<svg xmlns="http://www.w3.org/2000/svg" width="2560" height="1440" fill="#fff"><circle cx="21" cy="31" r="4"/><circle cx="130" cy="79" r="5"/><circle cx="227" cy="72" r="6"/><circle cx="314" cy="42" r="6"/><circle cx="384" cy="39" r="5"/><circle cx="458" cy="34" r="5"/><circle cx="481" cy="57" r="5"/><circle cx="612" cy="6" r="5"/><circle cx="720" cy="15" r="4"/><circle cx="727" cy="42" r="4"/><circle cx="877" cy="45" r="6"/><circle cx="911" cy="45" r="6"/><circle cx="1001" cy="70" r="6"/><circle cx="1051" cy="27" r="6"/><circle cx="1125" cy="31" r="4"/><circle cx="1249" cy="63" r="4"/><circle cx="1357" cy="2" r="5"/><circle cx="1357" cy="1442" r="5"/><circle cx="1379" cy="40" r="4"/><circle cx="1515" cy="53" r="5"/><circle cx="1567" cy="31" r="5"/><circle cx="1654" cy="71" r="5"/><circle cx="1754" cy="77" r="5"/><circle cx="1789" cy="14" r="4"/><circle cx="1916" cy="64" r="4"/><circle cx="1969" cy="11" r="4"/><circle cx="2043" cy="73" r="5"/><circle cx="2140" cy="45" r="6"/><circle cx="2212" cy="41" r="6"/><circle cx="2307" cy="25" r="4"/><circle cx="2378" cy="57" r="5"/><circle cx="2475" cy="16" r="5"/><circle cx="2527" cy="5" r="5"/><circle cx="2527" cy="1445" r="5"/><circle cx="73" cy="120" r="5"/><circle cx="104" cy="133" r="6"/><circle cx="201" cy="157" r="5"/><circle cx="316" cy="88" r="5"/><circle cx="393" cy="140" r="5"/><circle cx="406" cy="107" r="4"/><circle cx="513" cy="109" r="4"/><circle cx="579" cy="99" r="5"/><circle cx="671" cy="116" r="6"/><circle cx="772" cy="152" r="6"/><circle cx="836" cy="118" r="4"/><circle cx="947" cy="117" r="4"/><circle cx="1019" cy="132" r="4"/><circle cx="1045" cy="152" r="6"/><circle cx="1152" cy="99" r="4"/><circle cx="1272" cy="81" r="6"/><circle cx="1303" cy="131" r="5"/><circle cx="1398" cy="126" r="4"/><circle cx="1440" cy="90" r="5"/><circle cx="1574" cy="152" r="6"/><circle cx="1676" cy="159" r="5"/><circle cx="1717" cy="114" r="5"/><circle cx="1804" cy="89" r="4"/><circle cx="1877" cy="143" r="5"/><circle cx="1978" cy="100" r="5"/><circle cx="2045" cy="141" r="5"/><circle cx="2104" cy="105" r="5"/><circle cx="2210" cy="146" r="5"/><circle cx="2313" cy="98" r="6"/><circle cx="2340" cy="111" r="4"/><circle cx="2473" cy="102" r="6"/><circle cx="2529" cy="98" r="6"/><circle cx="14" cy="216" r="5"/><circle cx="98" cy="164" r="5"/><circle cx="194" cy="188" r="5"/><circle cx="297" cy="190" r="6"/><circle cx="360" cy="220" r="6"/><circle cx="412" cy="227" r="5"/><circle cx="526" cy="219" r="4"/><circle cx="608" cy="229" r="4"/><circle cx="667" cy="195" r="4"/><circle cx="723" cy="176" r="4"/><circle cx="801" cy="218" r="5"/><circle cx="897" cy="177" r="5"/><circle cx="998" cy="194" r="5"/><circle cx="1102" cy="200" r="6"/><circle cx="1146" cy="175" r="6"/><circle cx="1260" cy="181" r="6"/><circle cx="1286" cy="176" r="4"/><circle cx="1427" cy="179" r="6"/><circle cx="1471" cy="176" r="5"/><circle cx="1521" cy="187" r="5"/><circle cx="1608" cy="179" r="4"/><circle cx="1733" cy="172" r="5"/><circle cx="1786" cy="210" r="5"/><circle cx="1905" cy="168" r="4"/><circle cx="1964" cy="186" r="5"/><circle cx="2058" cy="171" r="5"/><circle cx="2159" cy="202" r="5"/><circle cx="2235" cy="229" r="6"/><circle cx="2260" cy="179" r="4"/><circle cx="2391" cy="175" r="5"/><circle cx="2447" cy="199" r="6"/><circle cx="2486" cy="212" r="5"/><circle cx="9" cy="252" r="4"/><circle cx="149" cy="318" r="5"/><circle cx="190" cy="257" r="4"/><circle cx="303" cy="316" r="6"/><circle cx="371" cy="307" r="6"/><circle cx="441" cy="293" r="5"/><circle cx="483" cy="241" r="6"/><circle cx="624" cy="287" r="5"/><circle cx="642" cy="263" r="6"/><circle cx="751" cy="259" r="5"/><circle cx="851" cy="300" r="4"/><circle cx="919" cy="250" r="6"/><circle cx="991" cy="313" r="6"/><circle cx="1077" cy="265" r="5"/><circle cx="1150" cy="297" r="5"/><circle cx="1273" cy="319" r="5"/><circle cx="1337" cy="303" r="6"/><circle cx="1431" cy="316" r="6"/><circle cx="1510" cy="244" r="6"/><circle cx="1548" cy="309" r="4"/><circle cx="1672" cy="257" r="5"/><circle cx="1692" cy="320" r="4"/><circle cx="1767" cy="256" r="4"/><circle cx="1896" cy="308" r="5"/><circle cx="1999" cy="277" r="6"/><circle cx="2070" cy="275" r="5"/><circle cx="2119" cy="310" r="5"/><circle cx="2224" cy="258" r="6"/><circle cx="2276" cy="277" r="6"/><circle cx="2385" cy="275" r="5"/><circle cx="2463" cy="266" r="5"/><circle cx="2510" cy="314" r="6"/><circle cx="72" cy="348" r="5"/><circle cx="96" cy="394" r="5"/><circle cx="163" cy="380" r="6"/><circle cx="279" cy="388" r="5"/><circle cx="329" cy="383" r="4"/><circle cx="428" cy="345" r="5"/><circle cx="543" cy="342" r="4"/><circle cx="571" cy="393" r="5"/><circle cx="681" cy="330" r="4"/><circle cx="777" cy="356" r="5"/><circle cx="862" cy="344" r="6"/><circle cx="959" cy="392" r="5"/><circle cx="992" cy="379" r="5"/><circle cx="1116" cy="362" r="6"/><circle cx="1196" cy="353" r="5"/><circle cx="1208" cy="351" r="4"/><circle cx="1304" cy="333" r="5"/><circle cx="1373" cy="380" r="6"/><circle cx="1442" cy="378" r="5"/><circle cx="1581" cy="350" r="4"/><circle cx="1679" cy="397" r="6"/><circle cx="1727" cy="368" r="5"/><circle cx="1780" cy="371" r="5"/><circle cx="1897" cy="355" r="6"/><circle cx="1996" cy="354" r="5"/><circle cx="2071" cy="352" r="5"/><circle cx="2089" cy="380" r="5"/><circle cx="2185" cy="377" r="5"/><circle cx="2301" cy="339" r="5"/><circle cx="2369" cy="366" r="5"/><circle cx="2402" cy="359" r="5"/><circle cx="2496" cy="343" r="5"/><circle cx="1" cy="452" r="5"/><circle cx="2561" cy="452" r="5"/><circle cx="130" cy="450" r="5"/><circle cx="229" cy="475" r="5"/><circle cx="275" cy="468" r="4"/><circle cx="369" cy="471" r="4"/><circle cx="434" cy="475" r="5"/><circle cx="533" cy="475" r="6"/><circle cx="638" cy="438" r="5"/><circle cx="703" cy="459" r="6"/><circle cx="774" cy="459" r="5"/><circle cx="866" cy="467" r="4"/><circle cx="904" cy="418" r="4"/><circle cx="969" cy="439" r="5"/><circle cx="1051" cy="460" r="4"/><circle cx="1132" cy="409" r="6"/><circle cx="1211" cy="463" r="6"/><circle cx="1327" cy="431" r="4"/><circle cx="1426" cy="477" r="5"/><circle cx="1511" cy="473" r="5"/><circle cx="1598" cy="403" r="5"/><circle cx="1643" cy="466" r="6"/><circle cx="1721" cy="420" r="5"/><circle cx="1796" cy="462" r="4"/><circle cx="1907" cy="451" r="5"/><circle cx="1974" cy="460" r="4"/><circle cx="2074" cy="431" r="6"/><circle cx="2081" cy="449" r="4"/><circle cx="2193" cy="442" r="6"/><circle cx="2279" cy="402" r="5"/><circle cx="2377" cy="458" r="5"/><circle cx="2479" cy="467" r="4"/><circle cx="2505" cy="437" r="6"/><circle cx="52" cy="486" r="5"/><circle cx="97" cy="510" r="5"/><circle cx="220" cy="510" r="6"/><circle cx="299" cy="508" r="5"/><circle cx="371" cy="546" r="4"/><circle cx="447" cy="504" r="4"/><circle cx="505" cy="483" r="4"/><circle cx="590" cy="514" r="6"/><circle cx="705" cy="540" r="5"/><circle cx="743" cy="540" r="5"/><circle cx="871" cy="557" r="5"/><circle cx="902" cy="498" r="4"/><circle cx="1038" cy="500" r="5"/><circle cx="1061" cy="529" r="6"/><circle cx="1151" cy="560" r="4"/><circle cx="1256" cy="556" r="5"/><circle cx="1301" cy="555" r="6"/><circle cx="1431" cy="520" r="4"/><circle cx="1453" cy="507" r="4"/><circle cx="1536" cy="515" r="5"/><circle cx="1675" cy="539" r="5"/><circle cx="1753" cy="547" r="4"/><circle cx="1819" cy="557" r="5"/><circle cx="1842" cy="542" r="4"/><circle cx="1954" cy="504" r="5"/><circle cx="2015" cy="499" r="4"/><circle cx="2141" cy="546" r="6"/><circle cx="2199" cy="508" r="6"/><circle cx="2291" cy="542" r="4"/><circle cx="2333" cy="533" r="5"/><circle cx="2420" cy="551" r="5"/><circle cx="2529" cy="500" r="4"/><circle cx="77" cy="580" r="5"/><circle cx="157" cy="626" r="5"/><circle cx="177" cy="626" r="5"/><circle cx="249" cy="595" r="6"/><circle cx="359" cy="617" r="4"/><circle cx="422" cy="640" r="4"/><circle cx="558" cy="621" r="5"/><circle cx="568" cy="601" r="5"/><circle cx="663" cy="630" r="4"/><circle cx="723" cy="573" r="5"/><circle cx="874" cy="584" r="5"/><circle cx="936" cy="595" r="6"/><circle cx="1038" cy="596" r="5"/><circle cx="1117" cy="591" r="6"/><circle cx="1183" cy="623" r="4"/><circle cx="1205" cy="609" r="5"/><circle cx="1303" cy="613" r="5"/><circle cx="1409" cy="591" r="6"/><circle cx="1487" cy="592" r="4"/><circle cx="1538" cy="594" r="5"/><circle cx="1655" cy="593" r="6"/><circle cx="1709" cy="575" r="6"/><circle cx="1838" cy="561" r="5"/><circle cx="1856" cy="605" r="6"/><circle cx="1948" cy="576" r="6"/><circle cx="2010" cy="578" r="4"/><circle cx="2146" cy="582" r="4"/><circle cx="2214" cy="591" r="4"/><circle cx="2309" cy="608" r="5"/><circle cx="2341" cy="620" r="4"/><circle cx="2427" cy="572" r="5"/><circle cx="2497" cy="575" r="6"/><circle cx="1" cy="661" r="5"/><circle cx="2561" cy="661" r="5"/><circle cx="89" cy="664" r="5"/><circle cx="192" cy="692" r="4"/><circle cx="320" cy="692" r="6"/><circle cx="342" cy="661" r="5"/><circle cx="406" cy="716" r="5"/><circle cx="521" cy="709" r="5"/><circle cx="630" cy="641" r="6"/><circle cx="657" cy="699" r="6"/><circle cx="734" cy="666" r="5"/><circle cx="805" cy="670" r="6"/><circle cx="958" cy="682" r="5"/><circle cx="1027" cy="644" r="6"/><circle cx="1112" cy="680" r="4"/><circle cx="1170" cy="684" r="4"/><circle cx="1217" cy="690" r="4"/><circle cx="1359" cy="678" r="4"/><circle cx="1439" cy="668" r="6"/><circle cx="1508" cy="666" r="6"/><circle cx="1586" cy="667" r="6"/><circle cx="1611" cy="708" r="4"/><circle cx="1697" cy="680" r="6"/><circle cx="1817" cy="713" r="5"/><circle cx="1890" cy="678" r="5"/><circle cx="1939" cy="668" r="6"/><circle cx="2006" cy="641" r="5"/><circle cx="2135" cy="709" r="5"/><circle cx="2235" cy="671" r="4"/><circle cx="2292" cy="643" r="4"/><circle cx="2362" cy="695" r="6"/><circle cx="2405" cy="651" r="4"/><circle cx="2551" cy="693" r="5"/><circle cx="68" cy="758" r="6"/><circle cx="128" cy="749" r="4"/><circle cx="191" cy="735" r="6"/><circle cx="301" cy="720" r="5"/><circle cx="376" cy="774" r="5"/><circle cx="445" cy="789" r="6"/><circle cx="483" cy="724" r="6"/><circle cx="593" cy="737" r="5"/><circle cx="650" cy="766" r="6"/><circle cx="777" cy="771" r="5"/><circle cx="803" cy="725" r="6"/><circle cx="925" cy="746" r="5"/><circle cx="1002" cy="722" r="6"/><circle cx="1100" cy="764" r="6"/><circle cx="1158" cy="734" r="4"/><circle cx="1252" cy="781" r="5"/><circle cx="1305" cy="778" r="6"/><circle cx="1427" cy="722" r="6"/><circle cx="1487" cy="793" r="4"/><circle cx="1590" cy="750" r="5"/><circle cx="1604" cy="764" r="5"/><circle cx="1733" cy="726" r="5"/><circle cx="1823" cy="736" r="5"/><circle cx="1868" cy="793" r="5"/><circle cx="1971" cy="775" r="6"/><circle cx="2035" cy="754" r="5"/><circle cx="2158" cy="745" r="6"/><circle cx="2213" cy="777" r="4"/><circle cx="2271" cy="738" r="4"/><circle cx="2381" cy="765" r="4"/><circle cx="2415" cy="721" r="5"/><circle cx="2560" cy="771" r="5"/><circle cx="-0" cy="771" r="5"/><circle cx="9" cy="873" r="5"/><circle cx="131" cy="857" r="5"/><circle cx="224" cy="802" r="4"/><circle cx="316" cy="872" r="4"/><circle cx="392" cy="878" r="6"/><circle cx="479" cy="826" r="5"/><circle cx="496" cy="809" r="5"/><circle cx="619" cy="844" r="5"/><circle cx="681" cy="847" r="5"/><circle cx="790" cy="820" r="5"/><circle cx="875" cy="838" r="6"/><circle cx="923" cy="856" r="5"/><circle cx="1035" cy="850" r="6"/><circle cx="1052" cy="829" r="6"/><circle cx="1121" cy="817" r="6"/><circle cx="1211" cy="836" r="5"/><circle cx="1328" cy="857" r="5"/><circle cx="1437" cy="861" r="4"/><circle cx="1501" cy="861" r="4"/><circle cx="1591" cy="858" r="5"/><circle cx="1603" cy="862" r="6"/><circle cx="1714" cy="804" r="6"/><circle cx="1817" cy="878" r="6"/><circle cx="1865" cy="880" r="4"/><circle cx="1980" cy="843" r="5"/><circle cx="2039" cy="878" r="5"/><circle cx="2151" cy="859" r="5"/><circle cx="2235" cy="838" r="6"/><circle cx="2264" cy="814" r="4"/><circle cx="2329" cy="807" r="4"/><circle cx="2444" cy="811" r="5"/><circle cx="2485" cy="859" r="5"/><circle cx="38" cy="886" r="5"/><circle cx="96" cy="908" r="5"/><circle cx="197" cy="941" r="4"/><circle cx="258" cy="925" r="4"/><circle cx="359" cy="947" r="5"/><circle cx="402" cy="922" r="6"/><circle cx="537" cy="927" r="6"/><circle cx="569" cy="912" r="6"/><circle cx="715" cy="935" r="4"/><circle cx="779" cy="920" r="6"/><circle cx="824" cy="928" r="4"/><circle cx="923" cy="902" r="4"/><circle cx="975" cy="938" r="4"/><circle cx="1083" cy="918" r="6"/><circle cx="1125" cy="887" r="4"/><circle cx="1260" cy="957" r="6"/><circle cx="1356" cy="916" r="5"/><circle cx="1394" cy="909" r="5"/><circle cx="1476" cy="941" r="5"/><circle cx="1594" cy="915" r="5"/><circle cx="1661" cy="933" r="5"/><circle cx="1691" cy="916" r="5"/><circle cx="1834" cy="893" r="5"/><circle cx="1874" cy="914" r="5"/><circle cx="1954" cy="883" r="4"/><circle cx="2028" cy="891" r="5"/><circle cx="2159" cy="881" r="4"/><circle cx="2204" cy="923" r="5"/><circle cx="2256" cy="944" r="6"/><circle cx="2367" cy="929" r="4"/><circle cx="2429" cy="919" r="5"/><circle cx="2500" cy="906" r="6"/><circle cx="5" cy="1015" r="4"/><circle cx="101" cy="1039" r="4"/><circle cx="195" cy="1035" r="6"/><circle cx="305" cy="1020" r="5"/><circle cx="341" cy="996" r="6"/><circle cx="434" cy="1024" r="5"/><circle cx="536" cy="971" r="4"/><circle cx="624" cy="1014" r="5"/><circle cx="661" cy="994" r="6"/><circle cx="738" cy="1021" r="5"/><circle cx="818" cy="979" r="5"/><circle cx="928" cy="981" r="5"/><circle cx="972" cy="999" r="6"/><circle cx="1041" cy="1020" r="5"/><circle cx="1190" cy="1029" r="5"/><circle cx="1241" cy="1015" r="4"/><circle cx="1317" cy="968" r="4"/><circle cx="1374" cy="1032" r="4"/><circle cx="1482" cy="1017" r="5"/><circle cx="1574" cy="963" r="5"/><circle cx="1603" cy="1019" r="5"/><circle cx="1693" cy="960" r="5"/><circle cx="1776" cy="1001" r="4"/><circle cx="1880" cy="1040" r="5"/><circle cx="1974" cy="985" r="5"/><circle cx="2064" cy="966" r="5"/><circle cx="2131" cy="1021" r="5"/><circle cx="2196" cy="1028" r="5"/><circle cx="2279" cy="966" r="6"/><circle cx="2379" cy="1029" r="6"/><circle cx="2434" cy="966" r="5"/><circle cx="2495" cy="1004" r="6"/><circle cx="80" cy="1116" r="4"/><circle cx="152" cy="1085" r="5"/><circle cx="199" cy="1091" r="5"/><circle cx="282" cy="1110" r="5"/><circle cx="344" cy="1096" r="6"/><circle cx="457" cy="1117" r="4"/><circle cx="542" cy="1094" r="5"/><circle cx="609" cy="1112" r="6"/><circle cx="695" cy="1074" r="5"/><circle cx="788" cy="1045" r="5"/><circle cx="872" cy="1067" r="5"/><circle cx="921" cy="1058" r="5"/><circle cx="968" cy="1054" r="4"/><circle cx="1043" cy="1053" r="6"/><circle cx="1133" cy="1047" r="5"/><circle cx="1277" cy="1112" r="5"/><circle cx="1331" cy="1090" r="4"/><circle cx="1396" cy="1068" r="5"/><circle cx="1506" cy="1093" r="6"/><circle cx="1575" cy="1079" r="5"/><circle cx="1603" cy="1056" r="6"/><circle cx="1701" cy="1107" r="4"/><circle cx="1829" cy="1093" r="4"/><circle cx="1912" cy="1065" r="5"/><circle cx="1927" cy="1061" r="5"/><circle cx="2044" cy="1115" r="6"/><circle cx="2128" cy="1076" r="5"/><circle cx="2187" cy="1082" r="5"/><circle cx="2308" cy="1089" r="5"/><circle cx="2348" cy="1064" r="6"/><circle cx="2432" cy="1097" r="4"/><circle cx="2543" cy="1116" r="5"/><circle cx="34" cy="1129" r="5"/><circle cx="134" cy="1142" r="5"/><circle cx="169" cy="1187" r="6"/><circle cx="316" cy="1161" r="5"/><circle cx="336" cy="1170" r="5"/><circle cx="408" cy="1143" r="6"/><circle cx="485" cy="1124" r="5"/><circle cx="615" cy="1149" r="5"/><circle cx="657" cy="1182" r="6"/><circle cx="752" cy="1151" r="4"/><circle cx="862" cy="1145" r="5"/><circle cx="927" cy="1131" r="5"/><circle cx="1020" cy="1185" r="5"/><circle cx="1073" cy="1129" r="5"/><circle cx="1177" cy="1159" r="5"/><circle cx="1255" cy="1148" r="5"/><circle cx="1318" cy="1164" r="5"/><circle cx="1388" cy="1159" r="6"/><circle cx="1467" cy="1140" r="6"/><circle cx="1545" cy="1170" r="4"/><circle cx="1615" cy="1194" r="5"/><circle cx="1736" cy="1137" r="4"/><circle cx="1794" cy="1138" r="5"/><circle cx="1854" cy="1195" r="5"/><circle cx="1960" cy="1157" r="5"/><circle cx="2047" cy="1179" r="4"/><circle cx="2129" cy="1152" r="4"/><circle cx="2217" cy="1166" r="4"/><circle cx="2283" cy="1178" r="6"/><circle cx="2359" cy="1139" r="5"/><circle cx="2449" cy="1184" r="6"/><circle cx="2533" cy="1163" r="5"/><circle cx="48" cy="1271" r="5"/><circle cx="155" cy="1212" r="5"/><circle cx="193" cy="1255" r="6"/><circle cx="314" cy="1264" r="5"/><circle cx="330" cy="1261" r="6"/><circle cx="445" cy="1231" r="6"/><circle cx="545" cy="1216" r="5"/><circle cx="590" cy="1273" r="5"/><circle cx="691" cy="1202" r="6"/><circle cx="727" cy="1206" r="6"/><circle cx="838" cy="1242" r="5"/><circle cx="924" cy="1265" r="4"/><circle cx="993" cy="1239" r="6"/><circle cx="1094" cy="1227" r="5"/><circle cx="1124" cy="1219" r="5"/><circle cx="1222" cy="1209" r="5"/><circle cx="1289" cy="1226" r="6"/><circle cx="1394" cy="1264" r="5"/><circle cx="1461" cy="1232" r="5"/><circle cx="1592" cy="1231" r="5"/><circle cx="1606" cy="1223" r="4"/><circle cx="1719" cy="1238" r="5"/><circle cx="1765" cy="1247" r="5"/><circle cx="1898" cy="1262" r="5"/><circle cx="1955" cy="1255" r="4"/><circle cx="2009" cy="1272" r="4"/><circle cx="2139" cy="1227" r="4"/><circle cx="2196" cy="1208" r="6"/><circle cx="2301" cy="1203" r="5"/><circle cx="2333" cy="1220" r="5"/><circle cx="2440" cy="1229" r="5"/><circle cx="2517" cy="1276" r="5"/><circle cx="53" cy="1351" r="5"/><circle cx="125" cy="1292" r="4"/><circle cx="192" cy="1331" r="4"/><circle cx="281" cy="1281" r="5"/><circle cx="341" cy="1308" r="5"/><circle cx="404" cy="1354" r="5"/><circle cx="545" cy="1324" r="5"/><circle cx="639" cy="1341" r="4"/><circle cx="676" cy="1348" r="5"/><circle cx="764" cy="1339" r="6"/><circle cx="879" cy="1353" r="5"/><circle cx="957" cy="1355" r="4"/><circle cx="1004" cy="1329" r="6"/><circle cx="1104" cy="1316" r="5"/><circle cx="1125" cy="1335" r="5"/><circle cx="1221" cy="1343" r="4"/><circle cx="1296" cy="1306" r="5"/><circle cx="1367" cy="1281" r="5"/><circle cx="1445" cy="1324" r="6"/><circle cx="1569" cy="1307" r="4"/><circle cx="1617" cy="1337" r="6"/><circle cx="1681" cy="1286" r="6"/><circle cx="1819" cy="1314" r="4"/><circle cx="1896" cy="1281" r="5"/><circle cx="1924" cy="1324" r="5"/><circle cx="2076" cy="1289" r="5"/><circle cx="2110" cy="1351" r="5"/><circle cx="2176" cy="1353" r="5"/><circle cx="2295" cy="1342" r="6"/><circle cx="2326" cy="1304" r="6"/><circle cx="2453" cy="1284" r="6"/><circle cx="2488" cy="1331" r="4"/><circle cx="48" cy="1390" r="5"/><circle cx="137" cy="1433" r="5"/><circle cx="170" cy="1398" r="4"/><circle cx="297" cy="1438" r="5"/><circle cx="297" cy="-2" r="5"/><circle cx="340" cy="1408" r="5"/><circle cx="412" cy="1419" r="5"/><circle cx="555" cy="1414" r="6"/><circle cx="603" cy="1361" r="5"/><circle cx="666" cy="1400" r="4"/><circle cx="760" cy="1384" r="5"/><circle cx="867" cy="1403" r="6"/><circle cx="903" cy="1361" r="6"/><circle cx="963" cy="1431" r="5"/><circle cx="1069" cy="1392" r="5"/><circle cx="1193" cy="1407" r="5"/><circle cx="1247" cy="1423" r="5"/><circle cx="1323" cy="1408" r="6"/><circle cx="1410" cy="1391" r="5"/><circle cx="1490" cy="1418" r="5"/><circle cx="1521" cy="1364" r="5"/><circle cx="1629" cy="1435" r="5"/><circle cx="1629" cy="-5" r="5"/><circle cx="1744" cy="1432" r="4"/><circle cx="1763" cy="1383" r="5"/><circle cx="1891" cy="1371" r="4"/><circle cx="1984" cy="1388" r="5"/><circle cx="2011" cy="1375" r="5"/><circle cx="2101" cy="1421" r="5"/><circle cx="2181" cy="1416" r="5"/><circle cx="2293" cy="1377" r="5"/><circle cx="2356" cy="1405" r="6"/><circle cx="2409" cy="1386" r="6"/><circle cx="2495" cy="1397" r="5"/><path stroke="#fff" d="M21 31L-33 5M21 31L73 120M21 31L-31 98M21 31L48 -50M2581 31L2527 5M2581 31L2529 98M21 1471L48 1390M130 79L227 72M130 79L73 120M130 79L104 133M130 79L98 164M130 79L137 -7M130 1519L137 1433M227 72L314 42M227 72L201 157M227 72L316 88M227 72L297 -2M227 1512L297 1438M314 42L384 39M314 42L316 88M314 42L297 -2M314 42L340 -32M314 1482L297 1438M314 1482L340 1408M384 39L458 34M384 39L406 107M384 39L340 -32M384 39L412 -21M384 1479L340 1408M384 1479L412 1419M458 34L481 57M458 34L406 107M458 34L513 109M458 34L412 -21M458 1474L412 1419M481 57L406 107M481 57L513 109M481 57L412 -21M481 57L555 -26M481 1497L412 1419M481 1497L555 1414M612 6L579 99M612 6L555 -26M612 6L666 -40M612 1446L555 1414M612 1446L666 1400M720 15L727 42M720 15L666 -40M720 15L760 -56M720 1455L666 1400M720 1455L760 1384M727 42L671 116M727 42L760 -56M727 1482L760 1384M877 45L911 45M877 45L836 118M877 45L867 -37M877 1485L867 1403M911 45L1001 70M911 45L947 117M911 45L867 -37M911 45L963 -9M911 1485L867 1403M911 1485L963 1431M1001 70L1051 27M1001 70L947 117M1001 70L1019 132M1001 70L1045 152M1051 27L1125 31M1051 27L963 -9M1051 27L1069 -48M1051 1467L963 1431M1051 1467L1069 1392M1125 31L1152 99M1125 31L1069 -48M1125 31L1193 -33M1125 1471L1069 1392M1125 1471L1193 1407M1249 63L1272 81M1249 63L1303 131M1249 63L1260 181M1249 63L1247 -17M1249 1503L1247 1423M1357 2L1379 40M1357 2L1323 -32M1357 2L1410 -49M1357 1442L1323 1408M1357 1442L1410 1391M1379 40L1398 126M1379 40L1440 90M1379 40L1323 -32M1379 40L1410 -49M1379 1480L1323 1408M1379 1480L1410 1391M1515 53L1567 31M1515 53L1440 90M1515 53L1490 -22M1515 53L1629 -5M1515 1493L1490 1418M1515 1493L1629 1435M1567 31L1654 71M1567 31L1490 -22M1567 31L1629 -5M1567 1471L1490 1418M1567 1471L1629 1435M1654 71L1754 77M1654 71L1676 159M1654 71L1717 114M1654 71L1629 -5M1654 1511L1629 1435M1754 77L1789 14M1754 77L1717 114M1754 77L1804 89M1754 77L1744 -8M1754 1517L1744 1432M1789 14L1804 89M1789 14L1744 -8M1789 14L1763 -57M1789 1454L1744 1432M1789 1454L1763 1383M1916 64L1969 11M1916 64L1877 143M1916 64L1978 100M1916 64L1905 168M1969 11L1978 100M1969 11L1984 -52M1969 11L2011 -65M1969 1451L1984 1388M1969 1451L2011 1375M2043 73L2140 45M2043 73L1978 100M2043 73L2045 141M2043 73L2104 105M2043 73L2058 171M2140 45L2212 41M2140 45L2104 105M2140 45L2101 -19M2140 45L2181 -24M2140 1485L2101 1421M2140 1485L2181 1416M2212 41L2307 25M2212 41L2210 146M2212 41L2181 -24M2212 1481L2181 1416M2307 25L2378 57M2307 25L2313 98M2307 25L2293 -63M2307 25L2356 -35M2307 1465L2293 1377M2307 1465L2356 1405M2378 57L2313 98M2378 57L2340 111M2378 57L2473 102M2475 16L2527 5M2475 16L2473 102M2475 16L2529 98M2475 16L2409 -54M2475 16L2495 -43M2475 1456L2409 1386M2475 1456L2495 1397M2527 5L2529 98M2527 5L2608 -50M2527 5L2495 -43M-33 5L48 -50M-33 1445L48 1390M2527 1445L2608 1390M2527 1445L2495 1397M73 120L104 133M73 120L-31 98M73 120L98 164M2633 120L2529 98M104 133L201 157M104 133L98 164M104 133L194 188M201 157L98 164M201 157L194 188M201 157L297 190M316 88L393 140M316 88L297 190M316 88L297 -2M316 1528L297 1438M393 140L406 107M393 140L297 190M393 140L360 220M393 140L412 227M406 107L513 109M513 109L579 99M513 109L526 219M579 99L671 116M671 116L772 152M671 116L667 195M671 116L723 176M772 152L836 118M772 152L723 176M772 152L801 218M772 152L751 259M836 118L897 177M947 117L1019 132M947 117L897 177M947 117L998 194M1019 132L1045 152M1019 132L998 194M1045 152L998 194M1045 152L1102 200M1045 152L1146 175M1152 99L1146 175M1272 81L1303 131M1272 81L1260 181M1272 81L1286 176M1272 81L1247 -17M1272 1521L1247 1423M1303 131L1398 126M1303 131L1260 181M1303 131L1286 176M1398 126L1440 90M1398 126L1427 179M1398 126L1471 176M1440 90L1427 179M1440 90L1471 176M1574 152L1521 187M1574 152L1608 179M1676 159L1717 114M1676 159L1608 179M1676 159L1733 172M1676 159L1672 257M1717 114L1804 89M1717 114L1733 172M1804 89L1877 143M1877 143L1905 168M1978 100L2045 141M1978 100L1964 186M2045 141L2104 105M2045 141L1964 186M2045 141L2058 171M2104 105L2058 171M2210 146L2159 202M2210 146L2235 229M2210 146L2260 179M2313 98L2340 111M2313 98L2260 179M2340 111L2391 175M2473 102L2529 98M2473 102L2391 175M2473 102L2447 199M14 216L-74 212M14 216L9 252M2574 216L2486 212M98 164L194 188M194 188L297 190M194 188L190 257M297 190L360 220M360 220L412 227M360 220L303 316M360 220L371 307M412 227L371 307M412 227L441 293M412 227L483 241M526 219L608 229M526 219L483 241M608 229L667 195M608 229L624 287M608 229L642 263M667 195L723 176M667 195L642 263M723 176L801 218M723 176L751 259M801 218L897 177M801 218L751 259M801 218L851 300M897 177L919 250M998 194L1102 200M998 194L919 250M1102 200L1146 175M1102 200L1077 265M1102 200L1150 297M1146 175L1260 181M1146 175L1077 265M1260 181L1286 176M1427 179L1471 176M1427 179L1521 187M1427 179L1510 244M1471 176L1521 187M1471 176L1510 244M1521 187L1608 179M1521 187L1510 244M1608 179L1672 257M1733 172L1786 210M1733 172L1672 257M1733 172L1767 256M1786 210L1767 256M1905 168L1964 186M1964 186L2058 171M1964 186L1999 277M2058 171L2159 202M2159 202L2235 229M2159 202L2224 258M2235 229L2260 179M2235 229L2224 258M2235 229L2276 277M2260 179L2224 258M2260 179L2276 277M2391 175L2447 199M2391 175L2486 212M2391 175L2385 275M2447 199L2486 212M2447 199L2385 275M2447 199L2463 266M2486 212L2463 266M2486 212L2510 314M9 252L-50 314M9 252L72 348M2569 252L2510 314M149 318L190 257M149 318L72 348M149 318L96 394M149 318L163 380M303 316L371 307M303 316L279 388M303 316L329 383M303 316L428 345M371 307L441 293M371 307L428 345M441 293L483 241M441 293L428 345M441 293L543 342M483 241L428 345M483 241L543 342M624 287L642 263M624 287L543 342M624 287L681 330M642 263L751 259M642 263L681 330M751 259L777 356M851 300L919 250M851 300L777 356M851 300L862 344M919 250L991 313M919 250L862 344M991 313L1077 265M991 313L959 392M991 313L992 379M1077 265L1150 297M1077 265L1116 362M1150 297L1116 362M1150 297L1196 353M1150 297L1208 351M1273 319L1337 303M1273 319L1196 353M1273 319L1208 351M1273 319L1304 333M1337 303L1431 316M1337 303L1304 333M1337 303L1373 380M1337 303L1442 378M1431 316L1510 244M1431 316L1304 333M1431 316L1373 380M1431 316L1442 378M1510 244L1548 309M1548 309L1581 350M1548 309L1598 403M1672 257L1692 320M1672 257L1767 256M1692 320L1679 397M1692 320L1727 368M1692 320L1780 371M1896 308L1999 277M1896 308L1897 355M1999 277L2070 275M1999 277L1996 354M2070 275L2119 310M2070 275L2071 352M2119 310L2071 352M2119 310L2089 380M2119 310L2185 377M2224 258L2276 277M2224 258L2301 339M2276 277L2301 339M2385 275L2463 266M2385 275L2369 366M2385 275L2402 359M2463 266L2510 314M2463 266L2496 343M2510 314L2496 343M72 348L96 394M72 348L163 380M96 394L163 380M96 394L130 450M163 380L279 388M163 380L130 450M279 388L329 383M279 388L229 475M279 388L275 468M329 383L428 345M543 342L571 393M571 393L533 475M571 393L638 438M571 393L505 483M681 330L777 356M681 330L638 438M777 356L862 344M777 356L774 459M862 344L959 392M862 344L904 418M959 392L992 379M959 392L904 418M959 392L969 439M992 379L969 439M992 379L1051 460M1116 362L1196 353M1116 362L1208 351M1116 362L1132 409M1196 353L1208 351M1196 353L1132 409M1208 351L1132 409M1304 333L1373 380M1304 333L1327 431M1373 380L1442 378M1373 380L1327 431M1442 378L1426 477M1581 350L1598 403M1679 397L1727 368M1679 397L1598 403M1679 397L1643 466M1679 397L1721 420M1727 368L1780 371M1727 368L1721 420M1780 371L1897 355M1780 371L1721 420M1780 371L1796 462M1897 355L1996 354M1897 355L1907 451M1996 354L2071 352M2071 352L2089 380M2071 352L2074 431M2089 380L2185 377M2089 380L2074 431M2089 380L2081 449M2185 377L2193 442M2185 377L2279 402M2301 339L2369 366M2301 339L2402 359M2301 339L2279 402M2369 366L2402 359M2369 366L2279 402M2369 366L2377 458M2402 359L2496 343M2402 359L2377 458M2496 343L2505 437M1 452L-81 467M1 452L-55 437M1 452L52 486M1 452L97 510M1 452L-31 500M2561 452L2479 467M2561 452L2505 437M2561 452L2529 500M130 450L52 486M130 450L97 510M130 450L220 510M229 475L275 468M229 475L220 510M229 475L299 508M275 468L369 471M275 468L220 510M275 468L299 508M369 471L434 475M369 471L299 508M369 471L371 546M369 471L447 504M434 475L533 475M434 475L371 546M434 475L447 504M434 475L505 483M533 475L447 504M533 475L505 483M533 475L590 514M638 438L703 459M638 438L590 514M703 459L774 459M703 459L705 540M703 459L743 540M774 459L866 467M774 459L705 540M774 459L743 540M866 467L904 418M866 467L871 557M866 467L902 498M904 418L969 439M904 418L902 498M969 439L1051 460M969 439L1038 500M1051 460L1132 409M1051 460L1038 500M1051 460L1061 529M1132 409L1211 463M1211 463L1327 431M1211 463L1151 560M1211 463L1256 556M1211 463L1301 555M1426 477L1511 473M1426 477L1431 520M1426 477L1453 507M1511 473L1598 403M1511 473L1431 520M1511 473L1453 507M1511 473L1536 515M1598 403L1643 466M1643 466L1721 420M1643 466L1675 539M1721 420L1796 462M1796 462L1842 542M1907 451L1974 460M1907 451L1954 504M1974 460L1954 504M1974 460L2015 499M2074 431L2081 449M2074 431L2193 442M2074 431L2015 499M2081 449L2015 499M2081 449L2141 546M2193 442L2279 402M2193 442L2141 546M2193 442L2199 508M2279 402L2377 458M2377 458L2333 533M2377 458L2420 551M2479 467L2505 437M2479 467L2420 551M2479 467L2529 500M2479 467L2497 575M2505 437L2529 500M52 486L97 510M52 486L-31 500M52 486L77 580M2612 486L2529 500M97 510L77 580M220 510L299 508M220 510L249 595M299 508L371 546M371 546L447 504M371 546L359 617M447 504L505 483M505 483L590 514M590 514L568 601M705 540L743 540M705 540L663 630M705 540L723 573M743 540L723 573M871 557L902 498M871 557L874 584M871 557L936 595M871 557L805 670M902 498L874 584M1038 500L1061 529M1038 500L1038 596M1061 529L1151 560M1061 529L1038 596M1061 529L1117 591M1151 560L1117 591M1151 560L1183 623M1151 560L1205 609M1256 556L1301 555M1256 556L1205 609M1256 556L1303 613M1301 555L1303 613M1431 520L1453 507M1431 520L1409 591M1453 507L1536 515M1453 507L1409 591M1536 515L1487 592M1536 515L1538 594M1675 539L1753 547M1675 539L1655 593M1675 539L1709 575M1753 547L1819 557M1753 547L1842 542M1753 547L1709 575M1753 547L1838 561M1819 557L1842 542M1819 557L1709 575M1819 557L1838 561M1819 557L1856 605M1842 542L1838 561M1842 542L1856 605M1954 504L2015 499M1954 504L1948 576M1954 504L2010 578M2015 499L2010 578M2141 546L2199 508M2141 546L2146 582M2141 546L2214 591M2199 508L2291 542M2199 508L2146 582M2199 508L2214 591M2291 542L2333 533M2291 542L2309 608M2333 533L2420 551M2333 533L2309 608M2333 533L2341 620M2420 551L2427 572M2420 551L2497 575M2529 500L2497 575M77 580L157 626M77 580L89 664M157 626L177 626M157 626L249 595M157 626L89 664M157 626L192 692M177 626L249 595M177 626L89 664M177 626L192 692M177 626L191 735M359 617L422 640M359 617L320 692M359 617L342 661M422 640L342 661M422 640L406 716M558 621L568 601M558 621L521 709M558 621L630 641M568 601L630 641M663 630L723 573M663 630L630 641M663 630L657 699M663 630L734 666M723 573L734 666M874 584L936 595M874 584L805 670M874 584L958 682M936 595L1038 596M936 595L958 682M936 595L1027 644M1038 596L1117 591M1038 596L1027 644M1117 591L1183 623M1117 591L1205 609M1183 623L1205 609M1183 623L1170 684M1183 623L1217 690M1205 609L1170 684M1303 613L1409 591M1303 613L1217 690M1303 613L1359 678M1409 591L1487 592M1409 591L1439 668M1487 592L1538 594M1487 592L1439 668M1487 592L1508 666M1538 594L1655 593M1538 594L1508 666M1538 594L1586 667M1655 593L1709 575M1655 593L1697 680M1709 575L1697 680M1838 561L1856 605M1856 605L1948 576M1856 605L1890 678M1948 576L2010 578M1948 576L1939 668M1948 576L2006 641M2010 578L1939 668M2010 578L2006 641M2146 582L2214 591M2214 591L2235 671M2309 608L2341 620M2309 608L2292 643M2341 620L2292 643M2341 620L2362 695M2341 620L2405 651M2427 572L2497 575M2427 572L2405 651M2497 575L2561 661M-63 575L1 661M1 661L89 664M1 661L-9 693M1 661L-0 771M2561 661L2551 693M2561 661L2560 771M89 664L68 758M192 692L128 749M192 692L191 735M192 692L301 720M320 692L342 661M320 692L406 716M320 692L301 720M320 692L376 774M342 661L301 720M406 716L376 774M406 716L445 789M406 716L483 724M521 709L483 724M521 709L593 737M521 709L496 809M630 641L657 699M630 641L593 737M657 699L734 666M657 699L593 737M657 699L650 766M734 666L805 670M734 666L803 725M805 670L777 771M805 670L803 725M958 682L1027 644M958 682L925 746M958 682L1002 722M1027 644L1112 680M1027 644L1002 722M1112 680L1170 684M1112 680L1100 764M1112 680L1158 734M1170 684L1217 690M1170 684L1158 734M1217 690L1158 734M1217 690L1252 781M1359 678L1439 668M1359 678L1305 778M1359 678L1427 722M1439 668L1508 666M1439 668L1427 722M1508 666L1586 667M1508 666L1427 722M1586 667L1611 708M1586 667L1590 750M1586 667L1604 764M1611 708L1697 680M1611 708L1590 750M1611 708L1604 764M1611 708L1733 726M1697 680L1733 726M1697 680L1714 804M1817 713L1890 678M1817 713L1733 726M1817 713L1823 736M1817 713L1868 793M1890 678L1939 668M1890 678L1823 736M1939 668L2006 641M1939 668L1971 775M2006 641L2035 754M2135 709L2235 671M2135 709L2035 754M2135 709L2158 745M2235 671L2292 643M2235 671L2158 745M2235 671L2271 738M2292 643L2362 695M2362 695L2405 651M2362 695L2381 765M2362 695L2415 721M2405 651L2415 721M2551 693L2628 758M2551 693L2560 771M-9 693L68 758M68 758L128 749M68 758L-0 771M68 758L131 857M2628 758L2560 771M128 749L191 735M128 749L224 802M191 735L301 720M191 735L224 802M301 720L376 774M376 774L445 789M376 774L392 878M445 789L483 724M445 789L479 826M445 789L496 809M483 724L479 826M483 724L496 809M593 737L650 766M593 737L619 844M650 766L777 771M650 766L619 844M650 766L681 847M777 771L803 725M777 771L790 820M803 725L790 820M925 746L1002 722M925 746L875 838M925 746L923 856M1002 722L1100 764M1100 764L1158 734M1100 764L1052 829M1100 764L1121 817M1252 781L1305 778M1252 781L1211 836M1252 781L1328 857M1305 778L1427 722M1305 778L1211 836M1305 778L1328 857M1427 722L1487 793M1487 793L1437 861M1487 793L1501 861M1590 750L1604 764M1604 764L1591 858M1604 764L1603 862M1733 726L1823 736M1733 726L1714 804M1823 736L1868 793M1823 736L1714 804M1868 793L1971 775M1868 793L1817 878M1868 793L1865 880M1971 775L2035 754M1971 775L1980 843M2035 754L1980 843M2158 745L2213 777M2158 745L2151 859M2213 777L2271 738M2213 777L2151 859M2213 777L2235 838M2213 777L2264 814M2271 738L2264 814M2271 738L2329 807M2381 765L2415 721M2381 765L2329 807M2381 765L2444 811M2415 721L2444 811M2560 771L2569 873M-0 771L9 873M9 873L-75 859M9 873L38 886M9 873L96 908M9 873L-60 906M2569 873L2485 859M2569 873L2500 906M131 857L224 802M131 857L38 886M131 857L96 908M131 857L197 941M316 872L392 878M316 872L258 925M316 872L359 947M316 872L402 922M392 878L479 826M392 878L359 947M392 878L402 922M479 826L496 809M479 826L537 927M619 844L681 847M619 844L537 927M619 844L569 912M681 847L790 820M681 847L715 935M790 820L875 838M790 820L779 920M875 838L923 856M875 838L824 928M875 838L923 902M923 856L1035 850M923 856L923 902M923 856L975 938M1035 850L1052 829M1035 850L1121 817M1035 850L1083 918M1035 850L1125 887M1052 829L1121 817M1052 829L1083 918M1052 829L1125 887M1121 817L1211 836M1121 817L1125 887M1211 836L1125 887M1328 857L1260 957M1328 857L1356 916M1328 857L1394 909M1437 861L1501 861M1437 861L1356 916M1437 861L1394 909M1437 861L1476 941M1501 861L1591 858M1501 861L1476 941M1591 858L1603 862M1591 858L1594 915M1603 862L1594 915M1603 862L1661 933M1603 862L1691 916M1714 804L1817 878M1714 804L1691 916M1817 878L1865 880M1817 878L1834 893M1817 878L1874 914M1865 880L1834 893M1865 880L1874 914M1865 880L1954 883M1980 843L2039 878M1980 843L1954 883M1980 843L2028 891M2039 878L1954 883M2039 878L2028 891M2039 878L2064 966M2151 859L2235 838M2151 859L2159 881M2151 859L2204 923M2235 838L2264 814M2235 838L2159 881M2235 838L2204 923M2264 814L2329 807M2444 811L2485 859M2485 859L2598 886M2485 859L2429 919M2485 859L2500 906M-75 859L38 886M38 886L96 908M96 908L197 941M197 941L258 925M197 941L195 1035M359 947L402 922M359 947L305 1020M359 947L341 996M402 922L341 996M402 922L434 1024M537 927L569 912M537 927L536 971M569 912L536 971M569 912L624 1014M569 912L661 994M715 935L779 920M715 935L661 994M715 935L738 1021M779 920L824 928M779 920L818 979M824 928L818 979M923 902L975 938M923 902L928 981M975 938L1083 918M975 938L928 981M975 938L972 999M1083 918L1125 887M1083 918L1041 1020M1260 957L1356 916M1260 957L1190 1029M1260 957L1241 1015M1260 957L1317 968M1356 916L1394 909M1356 916L1317 968M1394 909L1476 941M1394 909L1317 968M1476 941L1482 1017M1476 941L1574 963M1594 915L1661 933M1594 915L1691 916M1594 915L1574 963M1661 933L1691 916M1661 933L1574 963M1661 933L1693 960M1691 916L1693 960M1834 893L1874 914M1874 914L1954 883M1954 883L2028 891M2028 891L1974 985M2028 891L2064 966M2159 881L2204 923M2159 881L2256 944M2204 923L2256 944M2204 923L2279 966M2256 944L2367 929M2256 944L2196 1028M2256 944L2279 966M2367 929L2429 919M2367 929L2279 966M2367 929L2379 1029M2367 929L2434 966M2429 919L2500 906M2429 919L2434 966M2429 919L2495 1004M2500 906L2434 966M2500 906L2495 1004M5 1015L101 1039M5 1015L-65 1004M5 1015L-17 1116M5 1015L34 1129M2565 1015L2495 1004M2565 1015L2543 1116M101 1039L195 1035M101 1039L80 1116M101 1039L152 1085M195 1035L305 1020M195 1035L152 1085M195 1035L199 1091M305 1020L341 996M305 1020L282 1110M305 1020L344 1096M341 996L434 1024M434 1024L457 1117M536 971L624 1014M624 1014L661 994M624 1014L609 1112M624 1014L695 1074M661 994L738 1021M661 994L695 1074M738 1021L818 979M738 1021L695 1074M738 1021L788 1045M818 979L788 1045M928 981L972 999M928 981L921 1058M928 981L968 1054M972 999L1041 1020M972 999L921 1058M972 999L968 1054M1041 1020L968 1054M1041 1020L1043 1053M1041 1020L1133 1047M1190 1029L1241 1015M1190 1029L1133 1047M1241 1015L1317 968M1241 1015L1133 1047M1241 1015L1277 1112M1317 968L1374 1032M1374 1032L1331 1090M1374 1032L1396 1068M1482 1017L1396 1068M1482 1017L1506 1093M1482 1017L1575 1079M1574 963L1603 1019M1574 963L1603 1056M1603 1019L1693 960M1603 1019L1575 1079M1603 1019L1603 1056M1693 960L1776 1001M1776 1001L1880 1040M1880 1040L1974 985M1880 1040L1829 1093M1880 1040L1912 1065M1880 1040L1927 1061M1974 985L2064 966M1974 985L1912 1065M1974 985L1927 1061M2064 966L2131 1021M2131 1021L2196 1028M2131 1021L2044 1115M2131 1021L2128 1076M2131 1021L2187 1082M2196 1028L2279 966M2196 1028L2128 1076M2196 1028L2187 1082M2279 966L2348 1064M2379 1029L2434 966M2379 1029L2308 1089M2379 1029L2348 1064M2379 1029L2432 1097M2434 966L2495 1004M2495 1004L2432 1097M80 1116L152 1085M80 1116L-17 1116M80 1116L34 1129M80 1116L134 1142M2640 1116L2543 1116M152 1085L199 1091M152 1085L134 1142M199 1091L282 1110M199 1091L134 1142M199 1091L169 1187M282 1110L344 1096M282 1110L316 1161M282 1110L336 1170M344 1096L316 1161M344 1096L336 1170M344 1096L408 1143M457 1117L542 1094M457 1117L408 1143M457 1117L485 1124M457 1117L445 1231M542 1094L609 1112M542 1094L485 1124M542 1094L615 1149M609 1112L695 1074M609 1112L615 1149M609 1112L657 1182M695 1074L788 1045M788 1045L872 1067M788 1045L752 1151M872 1067L921 1058M872 1067L862 1145M872 1067L927 1131M921 1058L968 1054M921 1058L927 1131M968 1054L1043 1053M1043 1053L1133 1047M1043 1053L1073 1129M1133 1047L1073 1129M1277 1112L1331 1090M1277 1112L1255 1148M1277 1112L1318 1164M1331 1090L1396 1068M1331 1090L1318 1164M1331 1090L1388 1159M1396 1068L1388 1159M1396 1068L1467 1140M1506 1093L1575 1079M1506 1093L1603 1056M1506 1093L1467 1140M1506 1093L1545 1170M1575 1079L1603 1056M1603 1056L1701 1107M1701 1107L1736 1137M1701 1107L1794 1138M1829 1093L1912 1065M1829 1093L1927 1061M1829 1093L1794 1138M1829 1093L1854 1195M1912 1065L1927 1061M1912 1065L1960 1157M1927 1061L1960 1157M2044 1115L2128 1076M2044 1115L1960 1157M2044 1115L2047 1179M2044 1115L2129 1152M2128 1076L2187 1082M2128 1076L2129 1152M2187 1082L2129 1152M2187 1082L2217 1166M2308 1089L2348 1064M2308 1089L2359 1139M2348 1064L2432 1097M2348 1064L2359 1139M2432 1097L2449 1184M2543 1116L2594 1129M2543 1116L2449 1184M2543 1116L2533 1163M-17 1116L34 1129M34 1129L-27 1163M2594 1129L2533 1163M134 1142L169 1187M134 1142L155 1212M169 1187L155 1212M169 1187L193 1255M316 1161L336 1170M316 1161L330 1261M336 1170L408 1143M336 1170L330 1261M408 1143L485 1124M408 1143L445 1231M485 1124L445 1231M485 1124L545 1216M615 1149L657 1182M615 1149L545 1216M615 1149L691 1202M657 1182L752 1151M657 1182L691 1202M657 1182L727 1206M752 1151L862 1145M752 1151L691 1202M752 1151L727 1206M862 1145L927 1131M862 1145L838 1242M927 1131L1020 1185M927 1131L993 1239M1020 1185L1073 1129M1020 1185L993 1239M1020 1185L1094 1227M1073 1129L1094 1227M1073 1129L1124 1219M1177 1159L1255 1148M1177 1159L1124 1219M1177 1159L1222 1209M1255 1148L1318 1164M1255 1148L1222 1209M1255 1148L1289 1226M1318 1164L1388 1159M1318 1164L1289 1226M1388 1159L1467 1140M1388 1159L1461 1232M1467 1140L1545 1170M1467 1140L1461 1232M1545 1170L1615 1194M1545 1170L1592 1231M1545 1170L1606 1223M1615 1194L1592 1231M1615 1194L1606 1223M1615 1194L1719 1238M1736 1137L1794 1138M1736 1137L1719 1238M1794 1138L1854 1195M1794 1138L1765 1247M1854 1195L1765 1247M1854 1195L1898 1262M1960 1157L2047 1179M1960 1157L1955 1255M2047 1179L2009 1272M2129 1152L2139 1227M2129 1152L2196 1208M2217 1166L2283 1178M2217 1166L2139 1227M2217 1166L2196 1208M2283 1178L2359 1139M2283 1178L2196 1208M2283 1178L2301 1203M2283 1178L2333 1220M2359 1139L2301 1203M2359 1139L2333 1220M2449 1184L2533 1163M2449 1184L2440 1229M2449 1184L2453 1284M2533 1163L2440 1229M2533 1163L2517 1276M48 1271L155 1212M48 1271L-43 1276M48 1271L53 1351M48 1271L125 1292M2608 1271L2517 1276M155 1212L193 1255M155 1212L125 1292M193 1255L125 1292M193 1255L192 1331M193 1255L281 1281M314 1264L330 1261M314 1264L281 1281M314 1264L341 1308M314 1264L404 1354M330 1261L281 1281M330 1261L341 1308M445 1231L545 1216M445 1231L404 1354M545 1216L590 1273M545 1216L545 1324M590 1273L545 1324M590 1273L639 1341M691 1202L727 1206M727 1206L838 1242M838 1242L924 1265M838 1242L764 1339M924 1265L993 1239M924 1265L879 1353M993 1239L1094 1227M993 1239L1004 1329M1094 1227L1124 1219M1094 1227L1104 1316M1124 1219L1222 1209M1124 1219L1104 1316M1222 1209L1289 1226M1289 1226L1296 1306M1289 1226L1367 1281M1394 1264L1461 1232M1394 1264L1296 1306M1394 1264L1367 1281M1394 1264L1445 1324M1461 1232L1367 1281M1461 1232L1445 1324M1592 1231L1606 1223M1592 1231L1569 1307M1592 1231L1681 1286M1606 1223L1569 1307M1606 1223L1681 1286M1719 1238L1765 1247M1719 1238L1681 1286M1765 1247L1681 1286M1765 1247L1819 1314M1898 1262L1955 1255M1898 1262L1819 1314M1898 1262L1896 1281M1898 1262L1924 1324M1955 1255L2009 1272M1955 1255L1896 1281M1955 1255L1924 1324M2009 1272L2076 1289M2139 1227L2196 1208M2139 1227L2076 1289M2196 1208L2301 1203M2301 1203L2333 1220M2333 1220L2440 1229M2333 1220L2326 1304M2440 1229L2517 1276M2440 1229L2453 1284M2517 1276L2453 1284M2517 1276L2488 1331M53 1351L125 1292M53 1351L48 1390M53 1351L137 1433M125 1292L192 1331M192 1331L281 1281M192 1331L137 1433M192 1331L170 1398M281 1281L341 1308M341 1308L404 1354M404 1354L340 1408M404 1354L412 1419M545 1324L639 1341M545 1324L555 1414M545 1324L603 1361M639 1341L676 1348M639 1341L603 1361M639 1341L666 1400M676 1348L764 1339M676 1348L603 1361M676 1348L666 1400M676 1348L760 1384M764 1339L879 1353M764 1339L760 1384M879 1353L957 1355M879 1353L867 1403M879 1353L903 1361M957 1355L1004 1329M957 1355L903 1361M957 1355L963 1431M1004 1329L1104 1316M1004 1329L903 1361M1004 1329L1069 1392M1104 1316L1125 1335M1104 1316L1069 1392M1125 1335L1221 1343M1125 1335L1069 1392M1125 1335L1193 1407M1221 1343L1296 1306M1221 1343L1193 1407M1221 1343L1247 1423M1296 1306L1367 1281M1296 1306L1323 1408M1367 1281L1445 1324M1445 1324L1410 1391M1445 1324L1521 1364M1569 1307L1617 1337M1569 1307L1521 1364M1617 1337L1681 1286M1617 1337L1521 1364M1617 1337L1629 1435M1819 1314L1896 1281M1819 1314L1763 1383M1819 1314L1891 1371M1896 1281L1924 1324M1896 1281L1891 1371M1924 1324L1891 1371M1924 1324L1984 1388M2076 1289L2110 1351M2076 1289L2176 1353M2076 1289L2011 1375M2110 1351L2176 1353M2110 1351L2011 1375M2110 1351L2101 1421M2110 1351L2181 1416M2176 1353L2295 1342M2176 1353L2101 1421M2176 1353L2181 1416M2295 1342L2326 1304M2295 1342L2293 1377M2295 1342L2356 1405M2326 1304L2293 1377M2326 1304L2356 1405M2453 1284L2488 1331M2453 1284L2409 1386M2488 1331L2409 1386M2488 1331L2495 1397M48 1390L137 1433M48 1390L-65 1397M2608 1390L2495 1397M137 1433L170 1398M297 1438L340 1408M340 1408L412 1419M555 1414L603 1361M603 1361L666 1400M867 1403L903 1361M867 1403L963 1431M903 1361L963 1431M1193 1407L1247 1423M1247 1423L1323 1408M1323 1408L1410 1391M1410 1391L1490 1418M1490 1418L1521 1364M1629 1435L1744 1432M1744 1432L1763 1383M1891 1371L1984 1388M1984 1388L2011 1375M2011 1375L2101 1421M2101 1421L2181 1416M2293 1377L2356 1405M2356 1405L2409 1386M2409 1386L2495 1397"/></svg>