<svg xmlns="http://www.w3.org/2000/svg" width="2560" height="1440" fill="#fff"><circle cx="28" cy="65" r="5"/><circle cx="133" cy="73" r="5"/><circle cx="180" cy="3" r="5"/><circle cx="180" cy="1443" r="5"/><circle cx="289" cy="77" r="4"/><circle cx="372" cy="27" r="4"/><circle cx="434" cy="0" r="6"/><circle cx="434" cy="1440" r="6"/><circle cx="555" cy="18" r="5"/><circle cx="617" cy="67" r="5"/><circle cx="686" cy="11" r="5"/><circle cx="793" cy="76" r="5"/><circle cx="836" cy="34" r="5"/><circle cx="884" cy="7" r="4"/><circle cx="1003" cy="67" r="5"/><circle cx="1065" cy="63" r="4"/><circle cx="1163" cy="65" r="5"/><circle cx="1247" cy="50" r="6"/><circle cx="1317" cy="44" r="6"/><circle cx="1362" cy="77" r="4"/><circle cx="1501" cy="34" r="5"/><circle cx="1521" cy="12" r="6"/><circle cx="1648" cy="2" r="6"/><circle cx="1648" cy="1442" r="6"/><circle cx="1740" cy="53" r="6"/><circle cx="1811" cy="23" r="6"/><circle cx="1856" cy="20" r="4"/><circle cx="1977" cy="8" r="5"/><circle cx="2005" cy="31" r="4"/><circle cx="2159" cy="57" r="6"/><circle cx="2205" cy="70" r="5"/><circle cx="2318" cy="40" r="5"/><circle cx="2369" cy="51" r="4"/><circle cx="2471" cy="65" r="4"/><circle cx="2505" cy="57" r="5"/><circle cx="34" cy="121" r="5"/><circle cx="146" cy="107" r="6"/><circle cx="172" cy="156" r="4"/><circle cx="316" cy="129" r="4"/><circle cx="324" cy="138" r="5"/><circle cx="474" cy="145" r="5"/><circle cx="496" cy="109" r="5"/><circle cx="630" cy="110" r="5"/><circle cx="707" cy="102" r="4"/><circle cx="768" cy="124" r="5"/><circle cx="802" cy="135" r="5"/><circle cx="888" cy="143" r="4"/><circle cx="1005" cy="130" r="4"/><circle cx="1101" cy="159" r="5"/><circle cx="1184" cy="83" r="4"/><circle cx="1208" cy="155" r="5"/><circle cx="1305" cy="103" r="6"/><circle cx="1418" cy="137" r="6"/><circle cx="1508" cy="89" r="4"/><circle cx="1545" cy="96" r="5"/><circle cx="1646" cy="111" r="6"/><circle cx="1728" cy="144" r="4"/><circle cx="1826" cy="111" r="4"/><circle cx="1872" cy="120" r="5"/><circle cx="1938" cy="113" r="5"/><circle cx="2051" cy="120" r="5"/><circle cx="2136" cy="98" r="4"/><circle cx="2180" cy="125" r="5"/><circle cx="2294" cy="152" r="6"/><circle cx="2366" cy="126" r="5"/><circle cx="2459" cy="160" r="4"/><circle cx="2527" cy="154" r="5"/><circle cx="39" cy="185" r="5"/><circle cx="145" cy="239" r="5"/><circle cx="198" cy="191" r="5"/><circle cx="252" cy="204" r="5"/><circle cx="335" cy="188" r="6"/><circle cx="479" cy="202" r="4"/><circle cx="481" cy="207" r="5"/><circle cx="565" cy="169" r="5"/><circle cx="649" cy="187" r="5"/><circle cx="765" cy="186" r="5"/><circle cx="853" cy="178" r="5"/><circle cx="887" cy="172" r="4"/><circle cx="984" cy="205" r="5"/><circle cx="1104" cy="224" r="5"/><circle cx="1140" cy="162" r="5"/><circle cx="1229" cy="193" r="4"/><circle cx="1346" cy="197" r="5"/><circle cx="1416" cy="180" r="6"/><circle cx="1487" cy="164" r="5"/><circle cx="1587" cy="209" r="4"/><circle cx="1642" cy="237" r="5"/><circle cx="1702" cy="215" r="4"/><circle cx="1816" cy="179" r="5"/><circle cx="1877" cy="191" r="5"/><circle cx="1952" cy="233" r="5"/><circle cx="2047" cy="163" r="5"/><circle cx="2136" cy="224" r="4"/><circle cx="2219" cy="207" r="4"/><circle cx="2272" cy="165" r="5"/><circle cx="2358" cy="206" r="5"/><circle cx="2418" cy="176" r="4"/><circle cx="2559" cy="228" r="6"/><circle cx="-1" cy="228" r="6"/><circle cx="9" cy="318" r="6"/><circle cx="154" cy="310" r="5"/><circle cx="179" cy="264" r="6"/><circle cx="297" cy="280" r="5"/><circle cx="354" cy="253" r="5"/><circle cx="451" cy="316" r="5"/><circle cx="557" cy="271" r="4"/><circle cx="608" cy="313" r="5"/><circle cx="678" cy="244" r="4"/><circle cx="721" cy="275" r="5"/><circle cx="857" cy="319" r="5"/><circle cx="922" cy="254" r="5"/><circle cx="1013" cy="295" r="5"/><circle cx="1063" cy="286" r="5"/><circle cx="1199" cy="259" r="4"/><circle cx="1236" cy="271" r="6"/><circle cx="1329" cy="264" r="5"/><circle cx="1377" cy="246" r="6"/><circle cx="1444" cy="270" r="4"/><circle cx="1590" cy="288" r="5"/><circle cx="1677" cy="262" r="5"/><circle cx="1701" cy="275" r="5"/><circle cx="1814" cy="263" r="5"/><circle cx="1916" cy="271" r="4"/><circle cx="1977" cy="298" r="5"/><circle cx="2024" cy="245" r="5"/><circle cx="2158" cy="266" r="6"/><circle cx="2198" cy="294" r="5"/><circle cx="2292" cy="307" r="6"/><circle cx="2370" cy="274" r="5"/><circle cx="2421" cy="252" r="5"/><circle cx="2535" cy="313" r="4"/><circle cx="3" cy="354" r="5"/><circle cx="2563" cy="354" r="5"/><circle cx="133" cy="389" r="4"/><circle cx="235" cy="328" r="6"/><circle cx="244" cy="341" r="6"/><circle cx="336" cy="355" r="6"/><circle cx="457" cy="400" r="5"/><circle cx="517" cy="382" r="5"/><circle cx="566" cy="388" r="5"/><circle cx="697" cy="378" r="6"/><circle cx="775" cy="386" r="4"/><circle cx="821" cy="392" r="5"/><circle cx="889" cy="360" r="4"/><circle cx="1012" cy="332" r="4"/><circle cx="1112" cy="380" r="5"/><circle cx="1153" cy="400" r="5"/><circle cx="1231" cy="389" r="6"/><circle cx="1303" cy="356" r="4"/><circle cx="1377" cy="359" r="4"/><circle cx="1476" cy="332" r="5"/><circle cx="1556" cy="329" r="6"/><circle cx="1620" cy="366" r="6"/><circle cx="1702" cy="397" r="4"/><circle cx="1770" cy="366" r="5"/><circle cx="1912" cy="371" r="5"/><circle cx="1993" cy="399" r="4"/><circle cx="2013" cy="321" r="5"/><circle cx="2087" cy="348" r="4"/><circle cx="2178" cy="368" r="4"/><circle cx="2286" cy="384" r="5"/><circle cx="2397" cy="370" r="4"/><circle cx="2434" cy="393" r="4"/><circle cx="2536" cy="352" r="6"/><circle cx="59" cy="478" r="5"/><circle cx="85" cy="472" r="5"/><circle cx="191" cy="441" r="6"/><circle cx="256" cy="409" r="4"/><circle cx="346" cy="448" r="4"/><circle cx="478" cy="426" r="6"/><circle cx="500" cy="436" r="5"/><circle cx="605" cy="419" r="5"/><circle cx="703" cy="439" r="4"/><circle cx="768" cy="433" r="6"/><circle cx="867" cy="433" r="6"/><circle cx="949" cy="450" r="5"/><circle cx="1031" cy="448" r="5"/><circle cx="1061" cy="436" r="6"/><circle cx="1154" cy="465" r="5"/><circle cx="1264" cy="400" r="5"/><circle cx="1354" cy="462" r="4"/><circle cx="1398" cy="469" r="6"/><circle cx="1450" cy="467" r="5"/><circle cx="1562" cy="447" r="5"/><circle cx="1678" cy="464" r="6"/><circle cx="1705" cy="471" r="6"/><circle cx="1830" cy="455" r="5"/><circle cx="1861" cy="463" r="5"/><circle cx="1931" cy="440" r="5"/><circle cx="2001" cy="401" r="5"/><circle cx="2155" cy="460" r="4"/><circle cx="2206" cy="426" r="5"/><circle cx="2269" cy="451" r="4"/><circle cx="2366" cy="478" r="4"/><circle cx="2458" cy="455" r="5"/><circle cx="2485" cy="414" r="6"/><circle cx="72" cy="503" r="6"/><circle cx="109" cy="501" r="5"/><circle cx="189" cy="485" r="5"/><circle cx="304" cy="519" r="5"/><circle cx="395" cy="522" r="4"/><circle cx="458" cy="535" r="4"/><circle cx="532" cy="503" r="5"/><circle cx="584" cy="503" r="5"/><circle cx="705" cy="552" r="5"/><circle cx="777" cy="484" r="6"/><circle cx="828" cy="483" r="4"/><circle cx="894" cy="514" r="4"/><circle cx="992" cy="540" r="5"/><circle cx="1084" cy="532" r="5"/><circle cx="1140" cy="486" r="6"/><circle cx="1206" cy="530" r="6"/><circle cx="1304" cy="551" r="5"/><circle cx="1388" cy="488" r="4"/><circle cx="1478" cy="555" r="4"/><circle cx="1600" cy="486" r="6"/><circle cx="1625" cy="559" r="6"/><circle cx="1752" cy="547" r="4"/><circle cx="1762" cy="531" r="6"/><circle cx="1880" cy="504" r="6"/><circle cx="1993" cy="557" r="6"/><circle cx="2011" cy="524" r="5"/><circle cx="2156" cy="502" r="6"/><circle cx="2213" cy="494" r="5"/><circle cx="2269" cy="487" r="6"/><circle cx="2331" cy="557" r="6"/><circle cx="2450" cy="525" r="6"/><circle cx="2489" cy="515" r="5"/><circle cx="66" cy="564" r="6"/><circle cx="96" cy="583" r="5"/><circle cx="221" cy="588" r="6"/><circle cx="273" cy="573" r="4"/><circle cx="389" cy="629" r="5"/><circle cx="446" cy="566" r="6"/><circle cx="555" cy="585" r="4"/><circle cx="591" cy="575" r="6"/><circle cx="676" cy="611" r="4"/><circle cx="785" cy="602" r="6"/><circle cx="819" cy="572" r="5"/><circle cx="896" cy="571" r="6"/><circle cx="985" cy="568" r="6"/><circle cx="1118" cy="625" r="5"/><circle cx="1132" cy="600" r="4"/><circle cx="1223" cy="604" r="4"/><circle cx="1299" cy="634" r="5"/><circle cx="1419" cy="593" r="6"/><circle cx="1493" cy="591" r="4"/><circle cx="1550" cy="594" r="5"/><circle cx="1663" cy="573" r="6"/><circle cx="1687" cy="603" r="5"/><circle cx="1775" cy="591" r="5"/><circle cx="1896" cy="628" r="4"/><circle cx="1945" cy="583" r="5"/><circle cx="2011" cy="569" r="5"/><circle cx="2119" cy="611" r="4"/><circle cx="2176" cy="575" r="5"/><circle cx="2300" cy="638" r="5"/><circle cx="2352" cy="562" r="6"/><circle cx="2426" cy="613" r="6"/><circle cx="2531" cy="636" r="4"/><circle cx="38" cy="667" r="6"/><circle cx="134" cy="699" r="5"/><circle cx="174" cy="704" r="5"/><circle cx="274" cy="657" r="4"/><circle cx="355" cy="685" r="5"/><circle cx="431" cy="689" r="5"/><circle cx="540" cy="657" r="5"/><circle cx="604" cy="644" r="4"/><circle cx="645" cy="718" r="5"/><circle cx="760" cy="676" r="5"/><circle cx="820" cy="698" r="5"/><circle cx="908" cy="688" r="6"/><circle cx="1010" cy="708" r="4"/><circle cx="1075" cy="711" r="5"/><circle cx="1188" cy="681" r="6"/><circle cx="1278" cy="665" r="5"/><circle cx="1295" cy="698" r="6"/><circle cx="1423" cy="687" r="5"/><circle cx="1464" cy="692" r="5"/><circle cx="1600" cy="718" r="4"/><circle cx="1611" cy="715" r="6"/><circle cx="1754" cy="644" r="4"/><circle cx="1791" cy="695" r="6"/><circle cx="1889" cy="663" r="4"/><circle cx="1961" cy="660" r="6"/><circle cx="2039" cy="711" r="5"/><circle cx="2129" cy="691" r="6"/><circle cx="2233" cy="666" r="4"/><circle cx="2260" cy="652" r="6"/><circle cx="2395" cy="709" r="5"/><circle cx="2436" cy="708" r="4"/><circle cx="2495" cy="695" r="4"/><circle cx="68" cy="760" r="4"/><circle cx="131" cy="740" r="5"/><circle cx="227" cy="788" r="6"/><circle cx="308" cy="793" r="6"/><circle cx="339" cy="759" r="6"/><circle cx="412" cy="788" r="5"/><circle cx="546" cy="786" r="4"/><circle cx="582" cy="725" r="5"/><circle cx="641" cy="782" r="4"/><circle cx="791" cy="792" r="4"/><circle cx="850" cy="720" r="6"/><circle cx="949" cy="735" r="4"/><circle cx="967" cy="758" r="5"/><circle cx="1072" cy="733" r="5"/><circle cx="1163" cy="751" r="5"/><circle cx="1226" cy="797" r="6"/><circle cx="1316" cy="723" r="4"/><circle cx="1429" cy="748" r="5"/><circle cx="1502" cy="771" r="4"/><circle cx="1558" cy="788" r="5"/><circle cx="1676" cy="762" r="4"/><circle cx="1682" cy="789" r="5"/><circle cx="1787" cy="765" r="5"/><circle cx="1887" cy="761" r="5"/><circle cx="1938" cy="756" r="4"/><circle cx="2020" cy="792" r="4"/><circle cx="2086" cy="768" r="6"/><circle cx="2237" cy="776" r="6"/><circle cx="2242" cy="727" r="4"/><circle cx="2384" cy="780" r="5"/><circle cx="2426" cy="772" r="6"/><circle cx="2538" cy="762" r="4"/><circle cx="9" cy="845" r="5"/><circle cx="143" cy="877" r="5"/><circle cx="173" cy="847" r="5"/><circle cx="240" cy="825" r="6"/><circle cx="346" cy="805" r="4"/><circle cx="433" cy="873" r="6"/><circle cx="533" cy="843" r="5"/><circle cx="613" cy="858" r="5"/><circle cx="669" cy="836" r="5"/><circle cx="796" cy="810" r="6"/><circle cx="847" cy="850" r="5"/><circle cx="935" cy="832" r="5"/><circle cx="981" cy="867" r="4"/><circle cx="1091" cy="871" r="5"/><circle cx="1176" cy="827" r="5"/><circle cx="1253" cy="817" r="5"/><circle cx="1330" cy="812" r="5"/><circle cx="1410" cy="852" r="6"/><circle cx="1486" cy="867" r="4"/><circle cx="1539" cy="807" r="5"/><circle cx="1640" cy="823" r="6"/><circle cx="1704" cy="837" r="5"/><circle cx="1776" cy="868" r="6"/><circle cx="1900" cy="850" r="5"/><circle cx="1954" cy="845" r="6"/><circle cx="2006" cy="821" r="4"/><circle cx="2095" cy="846" r="6"/><circle cx="2166" cy="855" r="5"/><circle cx="2315" cy="877" r="5"/><circle cx="2327" cy="834" r="4"/><circle cx="2406" cy="837" r="4"/><circle cx="2513" cy="841" r="5"/><circle cx="60" cy="935" r="5"/><circle cx="156" cy="910" r="6"/><circle cx="216" cy="903" r="4"/><circle cx="262" cy="883" r="4"/><circle cx="341" cy="960" r="5"/><circle cx="405" cy="919" r="6"/><circle cx="489" cy="887" r="5"/><circle cx="573" cy="956" r="5"/><circle cx="653" cy="941" r="4"/><circle cx="729" cy="880" r="5"/><circle cx="875" cy="952" r="6"/><circle cx="881" cy="883" r="4"/><circle cx="967" cy="881" r="5"/><circle cx="1113" cy="883" r="5"/><circle cx="1195" cy="889" r="6"/><circle cx="1273" cy="890" r="5"/><circle cx="1352" cy="905" r="4"/><circle cx="1391" cy="958" r="5"/><circle cx="1498" cy="905" r="4"/><circle cx="1579" cy="944" r="5"/><circle cx="1625" cy="918" r="5"/><circle cx="1718" cy="935" r="6"/><circle cx="1806" cy="936" r="5"/><circle cx="1849" cy="885" r="5"/><circle cx="1950" cy="894" r="4"/><circle cx="2029" cy="951" r="6"/><circle cx="2144" cy="947" r="5"/><circle cx="2189" cy="947" r="5"/><circle cx="2245" cy="938" r="6"/><circle cx="2365" cy="899" r="5"/><circle cx="2411" cy="928" r="5"/><circle cx="2527" cy="898" r="4"/><circle cx="32" cy="983" r="5"/><circle cx="131" cy="999" r="5"/><circle cx="191" cy="1020" r="6"/><circle cx="271" cy="1009" r="5"/><circle cx="373" cy="1020" r="5"/><circle cx="480" cy="985" r="5"/><circle cx="558" cy="972" r="5"/><circle cx="582" cy="970" r="6"/><circle cx="695" cy="976" r="5"/><circle cx="759" cy="1036" r="4"/><circle cx="819" cy="1008" r="5"/><circle cx="892" cy="1022" r="4"/><circle cx="1017" cy="1038" r="4"/><circle cx="1043" cy="1035" r="4"/><circle cx="1179" cy="1013" r="5"/><circle cx="1247" cy="1020" r="5"/><circle cx="1326" cy="995" r="4"/><circle cx="1397" cy="965" r="6"/><circle cx="1459" cy="1033" r="6"/><circle cx="1566" cy="1002" r="6"/><circle cx="1601" cy="1017" r="4"/><circle cx="1717" cy="992" r="4"/><circle cx="1811" cy="983" r="5"/><circle cx="1893" cy="963" r="6"/><circle cx="1974" cy="1019" r="5"/><circle cx="2060" cy="1036" r="5"/><circle cx="2156" cy="965" r="4"/><circle cx="2220" cy="1015" r="5"/><circle cx="2272" cy="1010" r="5"/><circle cx="2397" cy="991" r="5"/><circle cx="2409" cy="1011" r="4"/><circle cx="2547" cy="1037" r="5"/><circle cx="59" cy="1058" r="6"/><circle cx="104" cy="1064" r="4"/><circle cx="216" cy="1099" r="6"/><circle cx="306" cy="1110" r="4"/><circle cx="377" cy="1045" r="5"/><circle cx="449" cy="1094" r="5"/><circle cx="534" cy="1064" r="4"/><circle cx="605" cy="1067" r="5"/><circle cx="668" cy="1102" r="6"/><circle cx="727" cy="1077" r="4"/><circle cx="819" cy="1059" r="5"/><circle cx="891" cy="1054" r="6"/><circle cx="997" cy="1052" r="5"/><circle cx="1090" cy="1110" r="5"/><circle cx="1180" cy="1057" r="5"/><circle cx="1214" cy="1083" r="6"/><circle cx="1299" cy="1048" r="5"/><circle cx="1368" cy="1104" r="4"/><circle cx="1497" cy="1044" r="4"/><circle cx="1550" cy="1056" r="5"/><circle cx="1660" cy="1104" r="4"/><circle cx="1707" cy="1084" r="5"/><circle cx="1780" cy="1066" r="6"/><circle cx="1854" cy="1090" r="5"/><circle cx="1975" cy="1081" r="6"/><circle cx="2027" cy="1105" r="4"/><circle cx="2081" cy="1057" r="5"/><circle cx="2234" cy="1056" r="6"/><circle cx="2312" cy="1102" r="4"/><circle cx="2354" cy="1076" r="6"/><circle cx="2422" cy="1099" r="4"/><circle cx="2544" cy="1061" r="4"/><circle cx="59" cy="1156" r="6"/><circle cx="106" cy="1182" r="6"/><circle cx="201" cy="1126" r="6"/><circle cx="243" cy="1127" r="5"/><circle cx="365" cy="1168" r="5"/><circle cx="455" cy="1168" r="4"/><circle cx="527" cy="1181" r="5"/><circle cx="628" cy="1122" r="6"/><circle cx="656" cy="1196" r="5"/><circle cx="727" cy="1180" r="5"/><circle cx="857" cy="1182" r="5"/><circle cx="925" cy="1195" r="4"/><circle cx="989" cy="1175" r="6"/><circle cx="1058" cy="1143" r="4"/><circle cx="1168" cy="1171" r="4"/><circle cx="1253" cy="1178" r="6"/><circle cx="1283" cy="1129" r="5"/><circle cx="1422" cy="1181" r="6"/><circle cx="1508" cy="1198" r="6"/><circle cx="1599" cy="1196" r="4"/><circle cx="1644" cy="1160" r="4"/><circle cx="1688" cy="1160" r="6"/><circle cx="1814" cy="1171" r="5"/><circle cx="1900" cy="1139" r="6"/><circle cx="1933" cy="1174" r="5"/><circle cx="2004" cy="1162" r="6"/><circle cx="2127" cy="1197" r="5"/><circle cx="2165" cy="1158" r="4"/><circle cx="2279" cy="1139" r="4"/><circle cx="2325" cy="1182" r="6"/><circle cx="2414" cy="1166" r="4"/><circle cx="2552" cy="1173" r="6"/><circle cx="1" cy="1270" r="4"/><circle cx="2561" cy="1270" r="4"/><circle cx="116" cy="1252" r="5"/><circle cx="220" cy="1259" r="4"/><circle cx="295" cy="1201" r="5"/><circle cx="353" cy="1211" r="4"/><circle cx="444" cy="1209" r="4"/><circle cx="489" cy="1227" r="5"/><circle cx="581" cy="1240" r="5"/><circle cx="666" cy="1217" r="4"/><circle cx="732" cy="1276" r="4"/><circle cx="807" cy="1247" r="5"/><circle cx="901" cy="1277" r="5"/><circle cx="1023" cy="1222" r="5"/><circle cx="1117" cy="1226" r="5"/><circle cx="1168" cy="1253" r="4"/><circle cx="1229" cy="1218" r="5"/><circle cx="1332" cy="1261" r="6"/><circle cx="1384" cy="1266" r="5"/><circle cx="1459" cy="1245" r="4"/><circle cx="1592" cy="1223" r="5"/><circle cx="1606" cy="1254" r="6"/><circle cx="1685" cy="1255" r="5"/><circle cx="1803" cy="1200" r="6"/><circle cx="1856" cy="1227" r="5"/><circle cx="1930" cy="1252" r="5"/><circle cx="2037" cy="1250" r="5"/><circle cx="2099" cy="1214" r="5"/><circle cx="2188" cy="1261" r="5"/><circle cx="2267" cy="1259" r="4"/><circle cx="2347" cy="1245" r="5"/><circle cx="2418" cy="1248" r="6"/><circle cx="2504" cy="1217" r="5"/><circle cx="3" cy="1313" r="5"/><circle cx="2563" cy="1313" r="5"/><circle cx="128" cy="1300" r="5"/><circle cx="225" cy="1336" r="6"/><circle cx="283" cy="1339" r="5"/><circle cx="399" cy="1284" r="4"/><circle cx="474" cy="1316" r="4"/><circle cx="511" cy="1313" r="4"/><circle cx="628" cy="1336" r="5"/><circle cx="704" cy="1356" r="5"/><circle cx="795" cy="1310" r="5"/><circle cx="873" cy="1310" r="4"/><circle cx="907" cy="1339" r="6"/><circle cx="1005" cy="1353" r="4"/><circle cx="1075" cy="1342" r="5"/><circle cx="1190" cy="1297" r="5"/><circle cx="1262" cy="1337" r="5"/><circle cx="1327" cy="1348" r="4"/><circle cx="1395" cy="1306" r="5"/><circle cx="1504" cy="1309" r="4"/><circle cx="1521" cy="1318" r="5"/><circle cx="1678" cy="1302" r="6"/><circle cx="1700" cy="1344" r="5"/><circle cx="1784" cy="1339" r="5"/><circle cx="1904" cy="1304" r="6"/><circle cx="1948" cy="1296" r="5"/><circle cx="2075" cy="1344" r="6"/><circle cx="2130" cy="1326" r="5"/><circle cx="2200" cy="1358" r="5"/><circle cx="2251" cy="1353" r="6"/><circle cx="2348" cy="1353" r="5"/><circle cx="2404" cy="1360" r="6"/><circle cx="2558" cy="1345" r="5"/><circle cx="-2" cy="1345" r="5"/><circle cx="59" cy="1364" r="6"/><circle cx="156" cy="1404" r="5"/><circle cx="213" cy="1381" r="4"/><circle cx="291" cy="1422" r="5"/><circle cx="351" cy="1440" r="6"/><circle cx="351" cy="-0" r="6"/><circle cx="466" cy="1391" r="5"/><circle cx="521" cy="1363" r="5"/><circle cx="617" cy="1403" r="5"/><circle cx="705" cy="1435" r="5"/><circle cx="776" cy="1409" r="4"/><circle cx="870" cy="1391" r="6"/><circle cx="939" cy="1401" r="4"/><circle cx="1036" cy="1412" r="5"/><circle cx="1090" cy="1415" r="5"/><circle cx="1141" cy="1406" r="6"/><circle cx="1252" cy="1363" r="6"/><circle cx="1288" cy="1376" r="5"/><circle cx="1387" cy="1410" r="5"/><circle cx="1478" cy="1410" r="4"/><circle cx="1592" cy="1381" r="5"/><circle cx="1659" cy="1439" r="4"/><circle cx="1659" cy="-1" r="4"/><circle cx="1719" cy="1429" r="5"/><circle cx="1805" cy="1418" r="6"/><circle cx="1881" cy="1390" r="5"/><circle cx="1981" cy="1370" r="5"/><circle cx="2065" cy="1427" r="4"/><circle cx="2136" cy="1366" r="5"/><circle cx="2232" cy="1418" r="5"/><circle cx="2261" cy="1378" r="4"/><circle cx="2326" cy="1426" r="6"/><circle cx="2427" cy="1414" r="6"/><circle cx="2493" cy="1434" r="5"/><path stroke="#fff" d="M28 65L133 73M28 65L-55 57M28 65L34 121M2588 65L2505 57M133 73L180 3M133 73L146 107M133 73L172 156M180 3L146 107M180 3L156 -36M180 3L213 -59M180 1443L156 1404M180 1443L213 1381M289 77L372 27M289 77L316 129M289 77L324 138M289 77L291 -18M289 77L351 -0M289 1517L291 1422M289 1517L351 1440M372 27L434 0M372 27L351 -0M372 1467L351 1440M434 0L351 -0M434 0L466 -49M434 1440L351 1440M434 1440L466 1391M555 18L617 67M555 18L496 109M555 18L466 -49M555 18L521 -77M555 18L617 -37M555 1458L466 1391M555 1458L521 1363M555 1458L617 1403M617 67L686 11M617 67L630 110M617 67L707 102M686 11L707 102M686 11L704 -84M686 11L617 -37M686 11L705 -5M686 1451L704 1356M686 1451L617 1403M686 1451L705 1435M793 76L836 34M793 76L707 102M793 76L768 124M793 76L802 135M793 76L765 186M836 34L884 7M836 34L776 -31M836 34L870 -49M836 1474L776 1409M836 1474L870 1391M884 7L870 -49M884 7L939 -39M884 1447L870 1391M884 1447L939 1401M1003 67L1065 63M1003 67L1005 130M1003 67L1036 -28M1003 1507L1036 1412M1065 63L1005 130M1065 63L1090 -25M1065 1503L1090 1415M1163 65L1247 50M1163 65L1184 83M1163 65L1208 155M1163 65L1140 162M1163 65L1141 -34M1163 1505L1141 1406M1247 50L1317 44M1247 50L1184 83M1247 50L1305 103M1317 44L1362 77M1317 44L1305 103M1317 44L1288 -64M1317 44L1387 -30M1317 1484L1288 1376M1317 1484L1387 1410M1362 77L1305 103M1362 77L1418 137M1362 77L1387 -30M1362 1517L1387 1410M1501 34L1521 12M1501 34L1508 89M1501 34L1545 96M1501 34L1478 -30M1501 1474L1478 1410M1521 12L1508 89M1521 12L1545 96M1521 12L1478 -30M1521 12L1592 -59M1521 1452L1478 1410M1521 1452L1592 1381M1648 2L1740 53M1648 2L1646 111M1648 2L1592 -59M1648 2L1659 -1M1648 2L1719 -11M1648 1442L1592 1381M1648 1442L1659 1439M1648 1442L1719 1429M1740 53L1811 23M1740 53L1728 144M1740 53L1719 -11M1740 1493L1719 1429M1811 23L1856 20M1811 23L1826 111M1811 23L1805 -22M1811 1463L1805 1418M1856 20L1826 111M1856 20L1872 120M1856 20L1805 -22M1856 20L1881 -50M1856 1460L1805 1418M1856 1460L1881 1390M1977 8L2005 31M1977 8L1938 113M1977 8L1981 -70M1977 8L2065 -13M1977 1448L1981 1370M1977 1448L2065 1427M2005 31L1938 113M2005 31L2051 120M2005 31L2065 -13M2005 1471L2065 1427M2159 57L2205 70M2159 57L2136 98M2159 57L2180 125M2159 57L2065 -13M2159 1497L2065 1427M2205 70L2136 98M2205 70L2180 125M2205 70L2294 152M2205 70L2232 -22M2205 1510L2232 1418M2318 40L2369 51M2318 40L2326 -14M2318 1480L2326 1426M2369 51L2366 126M2369 51L2326 -14M2369 51L2427 -26M2369 1491L2326 1426M2369 1491L2427 1414M2471 65L2505 57M2471 65L2459 160M2471 65L2493 -6M2471 1505L2493 1434M2505 57L2527 154M2505 57L2493 -6M2505 1497L2493 1434M34 121L146 107M34 121L-33 154M34 121L39 185M34 121L-1 228M2594 121L2527 154M2594 121L2559 228M146 107L172 156M146 107L198 191M172 156L145 239M172 156L198 191M316 129L324 138M316 129L335 188M324 138L252 204M324 138L335 188M324 138L354 253M474 145L496 109M474 145L479 202M474 145L481 207M474 145L565 169M496 109L479 202M496 109L481 207M496 109L565 169M630 110L707 102M630 110L565 169M630 110L649 187M707 102L768 124M768 124L802 135M768 124L765 186M768 124L853 178M802 135L888 143M802 135L765 186M802 135L853 178M888 143L853 178M888 143L887 172M1005 130L1101 159M1005 130L984 205M1101 159L1104 224M1101 159L1140 162M1184 83L1208 155M1184 83L1140 162M1208 155L1305 103M1208 155L1140 162M1208 155L1229 193M1305 103L1346 197M1418 137L1346 197M1418 137L1416 180M1418 137L1487 164M1418 137L1377 246M1508 89L1545 96M1508 89L1487 164M1545 96L1646 111M1545 96L1487 164M1646 111L1728 144M1646 111L1587 209M1646 111L1659 -1M1646 1551L1659 1439M1728 144L1702 215M1728 144L1816 179M1826 111L1872 120M1826 111L1816 179M1872 120L1938 113M1872 120L1816 179M1872 120L1877 191M1938 113L2047 163M2051 120L2136 98M2051 120L2047 163M2136 98L2180 125M2136 98L2047 163M2180 125L2272 165M2294 152L2366 126M2294 152L2219 207M2294 152L2272 165M2294 152L2358 206M2366 126L2272 165M2366 126L2358 206M2366 126L2418 176M2459 160L2527 154M2459 160L2418 176M2459 160L2421 252M2527 154L2599 185M2527 154L2559 228M-33 154L39 185M39 185L-1 228M2599 185L2559 228M145 239L198 191M145 239L154 310M145 239L179 264M198 191L252 204M198 191L179 264M252 204L335 188M335 188L297 280M335 188L354 253M479 202L481 207M479 202L557 271M481 207L565 169M481 207L557 271M565 169L649 187M649 187L678 244M649 187L721 275M765 186L853 178M765 186L721 275M853 178L887 172M887 172L984 205M887 172L922 254M984 205L922 254M984 205L1013 295M1104 224L1140 162M1104 224L1013 295M1104 224L1063 286M1104 224L1199 259M1229 193L1199 259M1229 193L1236 271M1346 197L1416 180M1346 197L1329 264M1346 197L1377 246M1416 180L1487 164M1416 180L1377 246M1416 180L1444 270M1487 164L1587 209M1587 209L1642 237M1587 209L1590 288M1587 209L1677 262M1642 237L1702 215M1642 237L1590 288M1642 237L1677 262M1642 237L1701 275M1702 215L1677 262M1702 215L1701 275M1816 179L1877 191M1816 179L1814 263M1877 191L1952 233M1877 191L1814 263M1877 191L1916 271M1952 233L1916 271M1952 233L1977 298M1952 233L2024 245M2047 163L2136 224M2047 163L2024 245M2136 224L2219 207M2136 224L2024 245M2136 224L2158 266M2136 224L2198 294M2219 207L2272 165M2219 207L2158 266M2219 207L2198 294M2358 206L2418 176M2358 206L2370 274M2358 206L2421 252M2418 176L2370 274M2418 176L2421 252M2559 228L2569 318M2559 228L2535 313M-1 228L9 318M9 318L-25 313M9 318L3 354M9 318L-24 352M2569 318L2535 313M2569 318L2536 352M154 310L179 264M154 310L133 389M154 310L235 328M179 264L235 328M179 264L244 341M297 280L354 253M297 280L235 328M297 280L244 341M297 280L336 355M354 253L451 316M354 253L336 355M451 316L457 400M557 271L608 313M608 313L678 244M608 313L566 388M608 313L605 419M678 244L721 275M721 275L697 378M857 319L922 254M857 319L821 392M857 319L889 360M922 254L1013 295M922 254L889 360M1013 295L1063 286M1013 295L1012 332M1063 286L1012 332M1199 259L1236 271M1236 271L1329 264M1236 271L1231 389M1236 271L1303 356M1329 264L1377 246M1329 264L1303 356M1329 264L1377 359M1377 246L1444 270M1444 270L1476 332M1444 270L1556 329M1590 288L1677 262M1590 288L1556 329M1590 288L1620 366M1677 262L1701 275M1701 275L1814 263M1701 275L1770 366M1814 263L1916 271M1814 263L1770 366M1916 271L1977 298M1916 271L1912 371M1977 298L2024 245M1977 298L1912 371M1977 298L2013 321M2024 245L2013 321M2158 266L2198 294M2158 266L2087 348M2158 266L2178 368M2198 294L2292 307M2198 294L2178 368M2292 307L2370 274M2292 307L2286 384M2292 307L2397 370M2370 274L2421 252M2370 274L2397 370M2535 313L2563 354M2535 313L2536 352M-25 313L3 354M3 354L-24 352M3 354L-75 414M2563 354L2536 352M2563 354L2485 414M133 389L85 472M133 389L191 441M235 328L244 341M235 328L256 409M244 341L336 355M244 341L256 409M336 355L256 409M336 355L346 448M457 400L517 382M457 400L478 426M457 400L500 436M517 382L566 388M517 382L478 426M517 382L500 436M517 382L605 419M566 388L478 426M566 388L500 436M566 388L605 419M697 378L775 386M697 378L605 419M697 378L703 439M775 386L821 392M775 386L768 433M821 392L889 360M821 392L768 433M821 392L867 433M889 360L867 433M1112 380L1153 400M1112 380L1061 436M1153 400L1231 389M1153 400L1061 436M1153 400L1154 465M1153 400L1140 486M1231 389L1303 356M1231 389L1154 465M1231 389L1264 400M1303 356L1377 359M1303 356L1264 400M1377 359L1476 332M1377 359L1398 469M1476 332L1556 329M1556 329L1620 366M1556 329L1562 447M1620 366L1702 397M1620 366L1562 447M1702 397L1770 366M1702 397L1678 464M1702 397L1705 471M1770 366L1830 455M1912 371L1993 399M1912 371L1931 440M1912 371L2001 401M1993 399L2013 321M1993 399L2087 348M1993 399L1931 440M1993 399L2001 401M2013 321L2087 348M2013 321L2001 401M2087 348L2178 368M2087 348L2001 401M2178 368L2155 460M2178 368L2206 426M2286 384L2269 451M2397 370L2434 393M2434 393L2536 352M2434 393L2458 455M2434 393L2485 414M2536 352L2485 414M59 478L85 472M59 478L72 503M59 478L109 501M59 478L66 564M59 478L96 583M85 472L72 503M85 472L109 501M85 472L66 564M191 441L256 409M191 441L189 485M256 409L189 485M346 448L304 519M346 448L395 522M478 426L500 436M478 426L532 503M500 436L532 503M605 419L584 503M703 439L768 433M703 439L777 484M768 433L777 484M768 433L828 483M867 433L949 450M867 433L828 483M867 433L894 514M949 450L1031 448M949 450L894 514M949 450L992 540M1031 448L1061 436M1031 448L992 540M1031 448L1084 532M1061 436L1154 465M1061 436L1140 486M1154 465L1140 486M1154 465L1206 530M1264 400L1354 462M1354 462L1398 469M1354 462L1450 467M1354 462L1304 551M1354 462L1388 488M1398 469L1450 467M1398 469L1388 488M1450 467L1562 447M1450 467L1388 488M1450 467L1478 555M1562 447L1600 486M1678 464L1705 471M1678 464L1600 486M1678 464L1762 531M1705 471L1600 486M1705 471L1752 547M1705 471L1762 531M1830 455L1861 463M1830 455L1880 504M1861 463L1931 440M1861 463L1880 504M1931 440L2001 401M1931 440L1880 504M2155 460L2206 426M2155 460L2156 502M2155 460L2213 494M2206 426L2269 451M2206 426L2213 494M2206 426L2269 487M2269 451L2213 494M2269 451L2269 487M2366 478L2458 455M2366 478L2269 487M2366 478L2331 557M2366 478L2450 525M2366 478L2352 562M2458 455L2485 414M2458 455L2450 525M2458 455L2489 515M2485 414L2489 515M72 503L109 501M72 503L66 564M72 503L96 583M109 501L66 564M109 501L96 583M189 485L304 519M189 485L221 588M304 519L395 522M304 519L221 588M304 519L273 573M395 522L458 535M395 522L389 629M395 522L446 566M458 535L532 503M458 535L389 629M458 535L446 566M532 503L584 503M532 503L591 575M584 503L555 585M584 503L591 575M705 552L777 484M705 552L676 611M705 552L785 602M777 484L828 483M777 484L819 572M828 483L894 514M828 483L819 572M894 514L819 572M894 514L896 571M992 540L1084 532M992 540L896 571M992 540L985 568M1084 532L1140 486M1084 532L1118 625M1084 532L1132 600M1140 486L1206 530M1206 530L1304 551M1206 530L1132 600M1206 530L1223 604M1304 551L1388 488M1304 551L1299 634M1388 488L1419 593M1478 555L1419 593M1478 555L1493 591M1478 555L1550 594M1600 486L1625 559M1600 486L1663 573M1625 559L1550 594M1625 559L1663 573M1625 559L1687 603M1752 547L1762 531M1752 547L1663 573M1752 547L1687 603M1752 547L1775 591M1762 531L1663 573M1762 531L1775 591M1880 504L1993 557M1993 557L2011 524M1993 557L1945 583M1993 557L2011 569M2011 524L1945 583M2011 524L2011 569M2156 502L2213 494M2156 502L2119 611M2156 502L2176 575M2213 494L2269 487M2269 487L2331 557M2331 557L2300 638M2331 557L2352 562M2331 557L2426 613M2450 525L2489 515M2450 525L2352 562M2450 525L2426 613M66 564L96 583M96 583L38 667M221 588L273 573M221 588L174 704M221 588L274 657M273 573L274 657M389 629L446 566M389 629L355 685M389 629L431 689M446 566L555 585M446 566L431 689M555 585L591 575M555 585L540 657M555 585L604 644M591 575L676 611M591 575L604 644M676 611L760 676M785 602L819 572M785 602L896 571M785 602L760 676M785 602L820 698M819 572L896 571M896 571L985 568M1118 625L1132 600M1118 625L1075 711M1118 625L1188 681M1132 600L1223 604M1223 604L1299 634M1223 604L1188 681M1223 604L1278 665M1299 634L1278 665M1299 634L1295 698M1299 634L1316 723M1419 593L1493 591M1419 593L1423 687M1419 593L1464 692M1493 591L1550 594M1493 591L1464 692M1663 573L1687 603M1687 603L1775 591M1687 603L1754 644M1775 591L1754 644M1775 591L1791 695M1896 628L1945 583M1896 628L1889 663M1896 628L1961 660M1945 583L2011 569M1945 583L1961 660M2011 569L2119 611M2011 569L1961 660M2119 611L2176 575M2119 611L2129 691M2176 575L2260 652M2300 638L2352 562M2300 638L2233 666M2300 638L2260 652M2300 638L2242 727M2352 562L2426 613M2426 613L2395 709M2426 613L2436 708M2531 636L2598 667M2531 636L2495 695M-29 636L38 667M38 667L134 699M38 667L-65 695M38 667L68 760M2598 667L2495 695M134 699L174 704M134 699L68 760M134 699L131 740M174 704L274 657M174 704L131 740M174 704L227 788M274 657L355 685M355 685L431 689M355 685L339 759M431 689L412 788M540 657L604 644M540 657L582 725M604 644L645 718M604 644L582 725M645 718L760 676M645 718L582 725M645 718L641 782M760 676L820 698M760 676L850 720M820 698L908 688M820 698L791 792M820 698L850 720M908 688L1010 708M908 688L850 720M908 688L949 735M908 688L967 758M1010 708L1075 711M1010 708L949 735M1010 708L967 758M1010 708L1072 733M1075 711L1072 733M1075 711L1163 751M1188 681L1278 665M1188 681L1295 698M1188 681L1163 751M1278 665L1295 698M1278 665L1316 723M1295 698L1316 723M1423 687L1464 692M1423 687L1316 723M1423 687L1429 748M1464 692L1429 748M1464 692L1502 771M1600 718L1611 715M1600 718L1558 788M1600 718L1676 762M1600 718L1539 807M1611 715L1558 788M1611 715L1676 762M1611 715L1682 789M1754 644L1791 695M1791 695L1889 663M1791 695L1787 765M1889 663L1961 660M1889 663L1887 761M1961 660L2039 711M2039 711L2129 691M2039 711L2020 792M2039 711L2086 768M2129 691L2233 666M2129 691L2086 768M2233 666L2260 652M2233 666L2237 776M2233 666L2242 727M2260 652L2237 776M2260 652L2242 727M2395 709L2436 708M2395 709L2384 780M2395 709L2426 772M2436 708L2495 695M2436 708L2384 780M2436 708L2426 772M2495 695L2538 762M68 760L131 740M68 760L-22 762M68 760L9 845M2628 760L2538 762M227 788L308 793M227 788L173 847M227 788L240 825M227 788L262 883M308 793L339 759M308 793L412 788M308 793L240 825M308 793L346 805M339 759L412 788M339 759L346 805M412 788L346 805M412 788L433 873M546 786L582 725M546 786L641 782M546 786L533 843M582 725L641 782M641 782L613 858M641 782L669 836M791 792L850 720M791 792L796 810M791 792L847 850M791 792L729 880M850 720L796 810M949 735L967 758M949 735L1072 733M967 758L1072 733M967 758L935 832M1072 733L1163 751M1163 751L1226 797M1163 751L1176 827M1226 797L1176 827M1226 797L1253 817M1226 797L1330 812M1226 797L1195 889M1316 723L1330 812M1429 748L1502 771M1429 748L1410 852M1502 771L1558 788M1502 771L1486 867M1502 771L1539 807M1558 788L1539 807M1558 788L1640 823M1676 762L1682 789M1676 762L1640 823M1676 762L1704 837M1682 789L1787 765M1682 789L1640 823M1682 789L1704 837M1787 765L1887 761M1787 765L1776 868M1887 761L1938 756M1887 761L1900 850M1938 756L1954 845M2020 792L2086 768M2020 792L1954 845M2020 792L2006 821M2020 792L2095 846M2086 768L2006 821M2086 768L2095 846M2237 776L2242 727M2237 776L2166 855M2237 776L2327 834M2384 780L2426 772M2384 780L2327 834M2384 780L2406 837M2426 772L2406 837M2426 772L2513 841M2538 762L2569 845M2538 762L2513 841M-22 762L9 845M9 845L-47 841M9 845L60 935M9 845L-33 898M2569 845L2513 841M2569 845L2527 898M143 877L173 847M143 877L60 935M143 877L156 910M143 877L216 903M173 847L240 825M173 847L156 910M173 847L216 903M240 825L216 903M240 825L262 883M433 873L533 843M433 873L405 919M433 873L489 887M533 843L613 858M533 843L489 887M613 858L669 836M613 858L573 956M613 858L653 941M669 836L729 880M796 810L847 850M796 810L729 880M796 810L881 883M847 850L935 832M847 850L875 952M847 850L881 883M935 832L981 867M935 832L881 883M935 832L967 881M981 867L1091 871M981 867L967 881M1091 871L967 881M1091 871L1113 883M1176 827L1253 817M1176 827L1113 883M1176 827L1195 889M1253 817L1330 812M1253 817L1195 889M1253 817L1273 890M1330 812L1410 852M1330 812L1273 890M1410 852L1486 867M1410 852L1352 905M1410 852L1397 965M1486 867L1539 807M1486 867L1498 905M1539 807L1640 823M1640 823L1704 837M1704 837L1776 868M1704 837L1718 935M1776 868L1718 935M1776 868L1806 936M1776 868L1849 885M1900 850L1954 845M1900 850L1849 885M1900 850L1950 894M1954 845L2006 821M1954 845L1950 894M2006 821L2095 846M2006 821L1950 894M2095 846L2166 855M2166 855L2144 947M2166 855L2189 947M2315 877L2327 834M2315 877L2245 938M2315 877L2365 899M2315 877L2411 928M2327 834L2406 837M2327 834L2365 899M2406 837L2365 899M2406 837L2411 928M2513 841L2527 898M60 935L156 910M60 935L32 983M60 935L131 999M156 910L216 903M156 910L131 999M216 903L262 883M262 883L341 960M341 960L405 919M341 960L271 1009M341 960L373 1020M341 960L377 1045M405 919L489 887M405 919L373 1020M405 919L480 985M489 887L480 985M573 956L653 941M573 956L480 985M573 956L558 972M573 956L582 970M653 941L582 970M653 941L695 976M729 880L695 976M875 952L881 883M875 952L819 1008M875 952L892 1022M875 952L891 1054M881 883L967 881M1113 883L1195 889M1195 889L1273 890M1273 890L1352 905M1352 905L1391 958M1352 905L1326 995M1352 905L1397 965M1391 958L1326 995M1391 958L1397 965M1391 958L1459 1033M1498 905L1579 944M1579 944L1625 918M1579 944L1566 1002M1579 944L1601 1017M1579 944L1550 1056M1625 918L1718 935M1625 918L1601 1017M1718 935L1806 936M1718 935L1717 992M1806 936L1849 885M1806 936L1811 983M1806 936L1893 963M1849 885L1811 983M1849 885L1893 963M1950 894L2029 951M1950 894L1893 963M2029 951L1974 1019M2029 951L2060 1036M2029 951L2081 1057M2144 947L2189 947M2144 947L2156 965M2189 947L2245 938M2189 947L2156 965M2189 947L2220 1015M2245 938L2156 965M2245 938L2220 1015M2245 938L2272 1010M2365 899L2411 928M2365 899L2397 991M2411 928L2397 991M2411 928L2409 1011M32 983L-13 1037M32 983L59 1058M32 983L-16 1061M2592 983L2547 1037M2592 983L2544 1061M131 999L191 1020M131 999L104 1064M191 1020L271 1009M191 1020L104 1064M191 1020L216 1099M191 1020L201 1126M271 1009L373 1020M271 1009L216 1099M373 1020L377 1045M373 1020L449 1094M480 985L558 972M480 985L582 970M558 972L582 970M558 972L534 1064M558 972L605 1067M582 970L605 1067M695 976L759 1036M759 1036L819 1008M759 1036L727 1077M759 1036L819 1059M819 1008L892 1022M819 1008L819 1059M819 1008L891 1054M892 1022L819 1059M892 1022L891 1054M1017 1038L1043 1035M1017 1038L997 1052M1017 1038L1090 1110M1043 1035L997 1052M1043 1035L1090 1110M1179 1013L1247 1020M1179 1013L1180 1057M1179 1013L1214 1083M1247 1020L1326 995M1247 1020L1180 1057M1247 1020L1214 1083M1247 1020L1299 1048M1326 995L1397 965M1326 995L1299 1048M1397 965L1459 1033M1459 1033L1566 1002M1459 1033L1497 1044M1459 1033L1550 1056M1566 1002L1601 1017M1566 1002L1497 1044M1566 1002L1550 1056M1601 1017L1497 1044M1601 1017L1550 1056M1717 992L1811 983M1717 992L1707 1084M1717 992L1780 1066M1811 983L1893 963M1811 983L1780 1066M1893 963L1974 1019M1974 1019L2060 1036M1974 1019L1975 1081M1974 1019L2027 1105M2060 1036L1975 1081M2060 1036L2027 1105M2060 1036L2081 1057M2156 965L2220 1015M2220 1015L2272 1010M2220 1015L2234 1056M2272 1010L2234 1056M2272 1010L2312 1102M2397 991L2409 1011M2397 991L2354 1076M2397 991L2422 1099M2409 1011L2354 1076M2409 1011L2422 1099M2547 1037L2619 1058M2547 1037L2544 1061M-13 1037L59 1058M59 1058L104 1064M59 1058L-16 1061M59 1058L59 1156M2619 1058L2544 1061M104 1064L59 1156M216 1099L306 1110M216 1099L201 1126M216 1099L243 1127M306 1110L201 1126M306 1110L243 1127M306 1110L365 1168M306 1110L295 1201M377 1045L449 1094M449 1094L534 1064M449 1094L455 1168M534 1064L605 1067M605 1067L668 1102M605 1067L628 1122M668 1102L727 1077M668 1102L628 1122M668 1102L656 1196M668 1102L727 1180M727 1077L819 1059M727 1077L628 1122M819 1059L891 1054M891 1054L997 1052M997 1052L1058 1143M1090 1110L1180 1057M1090 1110L1058 1143M1090 1110L1168 1171M1180 1057L1214 1083M1214 1083L1299 1048M1214 1083L1283 1129M1299 1048L1368 1104M1299 1048L1283 1129M1368 1104L1283 1129M1368 1104L1422 1181M1497 1044L1550 1056M1660 1104L1707 1084M1660 1104L1644 1160M1660 1104L1688 1160M1707 1084L1780 1066M1707 1084L1688 1160M1780 1066L1854 1090M1780 1066L1814 1171M1854 1090L1814 1171M1854 1090L1900 1139M1854 1090L1803 1200M1975 1081L2027 1105M1975 1081L1900 1139M1975 1081L2004 1162M2027 1105L2081 1057M2027 1105L2004 1162M2234 1056L2312 1102M2234 1056L2279 1139M2312 1102L2354 1076M2312 1102L2279 1139M2312 1102L2325 1182M2354 1076L2422 1099M2354 1076L2325 1182M2422 1099L2414 1166M2544 1061L2552 1173M59 1156L106 1182M59 1156L-8 1173M59 1156L116 1252M2619 1156L2552 1173M106 1182L201 1126M106 1182L-8 1173M106 1182L116 1252M106 1182L128 1300M2666 1182L2552 1173M201 1126L243 1127M243 1127L295 1201M365 1168L455 1168M365 1168L295 1201M365 1168L353 1211M365 1168L444 1209M455 1168L527 1181M455 1168L444 1209M455 1168L489 1227M527 1181L444 1209M527 1181L489 1227M527 1181L581 1240M628 1122L656 1196M628 1122L666 1217M656 1196L727 1180M656 1196L581 1240M656 1196L666 1217M727 1180L666 1217M727 1180L732 1276M857 1182L925 1195M857 1182L989 1175M857 1182L807 1247M857 1182L901 1277M925 1195L989 1175M925 1195L901 1277M925 1195L1023 1222M989 1175L1058 1143M989 1175L1023 1222M1058 1143L1023 1222M1058 1143L1117 1226M1168 1171L1253 1178M1168 1171L1117 1226M1168 1171L1168 1253M1168 1171L1229 1218M1253 1178L1283 1129M1253 1178L1168 1253M1253 1178L1229 1218M1253 1178L1332 1261M1422 1181L1508 1198M1422 1181L1384 1266M1422 1181L1459 1245M1508 1198L1599 1196M1508 1198L1459 1245M1508 1198L1592 1223M1508 1198L1606 1254M1599 1196L1644 1160M1599 1196L1688 1160M1599 1196L1592 1223M1599 1196L1606 1254M1644 1160L1688 1160M1644 1160L1592 1223M1688 1160L1685 1255M1814 1171L1900 1139M1814 1171L1803 1200M1814 1171L1856 1227M1900 1139L1933 1174M1900 1139L2004 1162M1933 1174L2004 1162M1933 1174L1803 1200M1933 1174L1856 1227M1933 1174L1930 1252M2004 1162L2037 1250M2127 1197L2165 1158M2127 1197L2037 1250M2127 1197L2099 1214M2127 1197L2188 1261M2165 1158L2099 1214M2279 1139L2325 1182M2325 1182L2414 1166M2325 1182L2347 1245M2414 1166L2347 1245M2414 1166L2418 1248M2414 1166L2504 1217M2552 1173L2561 1270M2552 1173L2504 1217M-8 1173L1 1270M1 1270L-56 1217M1 1270L3 1313M1 1270L-2 1345M1 1270L59 1364M2561 1270L2504 1217M2561 1270L2558 1345M116 1252L220 1259M116 1252L128 1300M220 1259L295 1201M220 1259L128 1300M220 1259L225 1336M220 1259L283 1339M295 1201L353 1211M353 1211L399 1284M444 1209L489 1227M444 1209L399 1284M489 1227L581 1240M489 1227L511 1313M581 1240L666 1217M581 1240L628 1336M666 1217L732 1276M732 1276L807 1247M732 1276L704 1356M732 1276L795 1310M807 1247L901 1277M807 1247L795 1310M807 1247L873 1310M901 1277L873 1310M901 1277L907 1339M1023 1222L1117 1226M1117 1226L1168 1253M1117 1226L1190 1297M1168 1253L1229 1218M1168 1253L1190 1297M1229 1218L1190 1297M1332 1261L1384 1266M1332 1261L1262 1337M1332 1261L1327 1348M1332 1261L1395 1306M1384 1266L1459 1245M1384 1266L1395 1306M1459 1245L1395 1306M1459 1245L1504 1309M1592 1223L1606 1254M1592 1223L1685 1255M1606 1254L1685 1255M1606 1254L1678 1302M1685 1255L1678 1302M1685 1255L1700 1344M1803 1200L1856 1227M1856 1227L1930 1252M1856 1227L1904 1304M1930 1252L1904 1304M1930 1252L1948 1296M2037 1250L2099 1214M2037 1250L1948 1296M2037 1250L2075 1344M2099 1214L2188 1261M2099 1214L2130 1326M2188 1261L2267 1259M2188 1261L2130 1326M2267 1259L2347 1245M2347 1245L2418 1248M2418 1248L2504 1217M2418 1248L2404 1360M2504 1217L2563 1313M-56 1217L3 1313M3 1313L-2 1345M3 1313L59 1364M2563 1313L2558 1345M128 1300L59 1364M225 1336L283 1339M225 1336L156 1404M225 1336L213 1381M225 1336L291 1422M283 1339L213 1381M283 1339L291 1422M283 1339L351 1440M399 1284L474 1316M474 1316L511 1313M474 1316L466 1391M474 1316L521 1363M511 1313L466 1391M511 1313L521 1363M628 1336L704 1356M628 1336L617 1403M628 1336L705 1435M704 1356L705 1435M704 1356L776 1409M795 1310L873 1310M873 1310L907 1339M873 1310L870 1391M907 1339L1005 1353M907 1339L870 1391M907 1339L939 1401M1005 1353L1075 1342M1005 1353L939 1401M1005 1353L1036 1412M1005 1353L1090 1415M1075 1342L1036 1412M1075 1342L1090 1415M1075 1342L1141 1406M1190 1297L1262 1337M1190 1297L1252 1363M1262 1337L1327 1348M1262 1337L1252 1363M1262 1337L1288 1376M1327 1348L1395 1306M1327 1348L1252 1363M1327 1348L1288 1376M1395 1306L1387 1410M1504 1309L1521 1318M1521 1318L1478 1410M1521 1318L1592 1381M1678 1302L1700 1344M1678 1302L1784 1339M1678 1302L1592 1381M1700 1344L1784 1339M1700 1344L1659 1439M1700 1344L1719 1429M1784 1339L1805 1418M1784 1339L1881 1390M1904 1304L1948 1296M1904 1304L1881 1390M1904 1304L1981 1370M1948 1296L1981 1370M2075 1344L2130 1326M2075 1344L1981 1370M2075 1344L2065 1427M2075 1344L2136 1366M2130 1326L2200 1358M2130 1326L2136 1366M2200 1358L2251 1353M2200 1358L2136 1366M2200 1358L2232 1418M2200 1358L2261 1378M2251 1353L2348 1353M2251 1353L2232 1418M2251 1353L2261 1378M2348 1353L2404 1360M2348 1353L2261 1378M2348 1353L2326 1426M2348 1353L2427 1414M2404 1360L2427 1414M2404 1360L2493 1434M2558 1345L2619 1364M2558 1345L2493 1434M-2 1345L59 1364M59 1364L156 1404M156 1404L213 1381M213 1381L291 1422M291 1422L351 1440M466 1391L521 1363M521 1363L617 1403M617 1403L705 1435M705 1435L776 1409M870 1391L939 1401M1036 1412L1090 1415M1036 1412L1141 1406M1090 1415L1141 1406M1141 1406L1252 1363M1252 1363L1288 1376M1288 1376L1387 1410M1387 1410L1478 1410M1592 1381L1659 1439M1659 1439L1719 1429M1719 1429L1805 1418M1805 1418L1881 1390M1881 1390L1981 1370M2065 1427L2136 1366M2232 1418L2261 1378M2261 1378L2326 1426M2326 1426L2427 1414M2427 1414L2493 1434"/></svg>