<svg xmlns="http://www.w3.org/2000/svg" width="2560" height="1440" fill="#fff"><circle cx="64" cy="41" r="4"/><circle cx="117" cy="16" r="5"/><circle cx="196" cy="72" r="6"/><circle cx="290" cy="5" r="6"/><circle cx="290" cy="1445" r="6"/><circle cx="332" cy="58" r="6"/><circle cx="439" cy="25" r="4"/><circle cx="541" cy="36" r="5"/><circle cx="602" cy="75" r="6"/><circle cx="702" cy="48" r="5"/><circle cx="792" cy="49" r="5"/><circle cx="871" cy="33" r="4"/><circle cx="916" cy="67" r="6"/><circle cx="991" cy="66" r="6"/><circle cx="1100" cy="31" r="5"/><circle cx="1135" cy="64" r="6"/><circle cx="1272" cy="38" r="4"/><circle cx="1347" cy="79" r="6"/><circle cx="1402" cy="51" r="6"/><circle cx="1441" cy="7" r="5"/><circle cx="1545" cy="12" r="6"/><circle cx="1637" cy="34" r="6"/><circle cx="1740" cy="70" r="5"/><circle cx="1801" cy="63" r="4"/><circle cx="1887" cy="72" r="6"/><circle cx="1972" cy="47" r="4"/><circle cx="2028" cy="45" r="6"/><circle cx="2153" cy="3" r="6"/><circle cx="2153" cy="1443" r="6"/><circle cx="2215" cy="22" r="5"/><circle cx="2251" cy="66" r="5"/><circle cx="2383" cy="40" r="4"/><circle cx="2438" cy="78" r="5"/><circle cx="2532" cy="70" r="4"/><circle cx="64" cy="134" r="4"/><circle cx="125" cy="144" r="6"/><circle cx="234" cy="141" r="4"/><circle cx="307" cy="103" r="5"/><circle cx="335" cy="121" r="5"/><circle cx="410" cy="103" r="5"/><circle cx="559" cy="129" r="5"/><circle cx="634" cy="116" r="6"/><circle cx="670" cy="108" r="4"/><circle cx="729" cy="82" r="4"/><circle cx="844" cy="97" r="5"/><circle cx="914" cy="107" r="6"/><circle cx="1011" cy="117" r="6"/><circle cx="1116" cy="147" r="5"/><circle cx="1164" cy="92" r="4"/><circle cx="1203" cy="153" r="6"/><circle cx="1294" cy="80" r="4"/><circle cx="1399" cy="156" r="5"/><circle cx="1451" cy="147" r="4"/><circle cx="1544" cy="142" r="5"/><circle cx="1640" cy="94" r="5"/><circle cx="1723" cy="149" r="5"/><circle cx="1780" cy="150" r="6"/><circle cx="1885" cy="149" r="5"/><circle cx="1934" cy="153" r="6"/><circle cx="2021" cy="100" r="4"/><circle cx="2103" cy="95" r="4"/><circle cx="2201" cy="114" r="4"/><circle cx="2319" cy="99" r="4"/><circle cx="2364" cy="96" r="5"/><circle cx="2404" cy="123" r="6"/><circle cx="2553" cy="100" r="5"/><circle cx="65" cy="176" r="5"/><circle cx="145" cy="180" r="4"/><circle cx="166" cy="236" r="6"/><circle cx="307" cy="221" r="5"/><circle cx="341" cy="183" r="4"/><circle cx="447" cy="161" r="5"/><circle cx="485" cy="216" r="6"/><circle cx="627" cy="223" r="5"/><circle cx="660" cy="221" r="6"/><circle cx="784" cy="193" r="4"/><circle cx="820" cy="213" r="6"/><circle cx="959" cy="210" r="5"/><circle cx="988" cy="209" r="5"/><circle cx="1093" cy="222" r="6"/><circle cx="1183" cy="182" r="6"/><circle cx="1211" cy="170" r="6"/><circle cx="1333" cy="216" r="5"/><circle cx="1364" cy="161" r="4"/><circle cx="1464" cy="234" r="5"/><circle cx="1593" cy="174" r="5"/><circle cx="1668" cy="200" r="4"/><circle cx="1706" cy="174" r="5"/><circle cx="1785" cy="219" r="6"/><circle cx="1851" cy="181" r="6"/><circle cx="1963" cy="164" r="4"/><circle cx="2065" cy="191" r="5"/><circle cx="2114" cy="180" r="6"/><circle cx="2189" cy="220" r="4"/><circle cx="2254" cy="202" r="5"/><circle cx="2388" cy="171" r="5"/><circle cx="2401" cy="163" r="5"/><circle cx="2518" cy="173" r="5"/><circle cx="67" cy="246" r="5"/><circle cx="128" cy="290" r="6"/><circle cx="176" cy="313" r="6"/><circle cx="307" cy="303" r="5"/><circle cx="344" cy="247" r="6"/><circle cx="460" cy="284" r="5"/><circle cx="515" cy="308" r="5"/><circle cx="594" cy="283" r="4"/><circle cx="642" cy="249" r="5"/><circle cx="741" cy="268" r="4"/><circle cx="828" cy="255" r="5"/><circle cx="909" cy="261" r="6"/><circle cx="1003" cy="273" r="5"/><circle cx="1097" cy="257" r="5"/><circle cx="1129" cy="285" r="5"/><circle cx="1248" cy="275" r="6"/><circle cx="1284" cy="252" r="6"/><circle cx="1376" cy="292" r="6"/><circle cx="1470" cy="271" r="5"/><circle cx="1532" cy="248" r="6"/><circle cx="1630" cy="313" r="5"/><circle cx="1704" cy="308" r="6"/><circle cx="1825" cy="278" r="6"/><circle cx="1886" cy="279" r="5"/><circle cx="1930" cy="247" r="4"/><circle cx="2058" cy="299" r="5"/><circle cx="2120" cy="264" r="5"/><circle cx="2235" cy="288" r="4"/><circle cx="2297" cy="319" r="6"/><circle cx="2326" cy="277" r="6"/><circle cx="2455" cy="270" r="5"/><circle cx="2550" cy="280" r="5"/><circle cx="7" cy="378" r="5"/><circle cx="124" cy="392" r="4"/><circle cx="216" cy="371" r="4"/><circle cx="256" cy="363" r="6"/><circle cx="339" cy="399" r="5"/><circle cx="454" cy="395" r="5"/><circle cx="485" cy="370" r="5"/><circle cx="610" cy="388" r="6"/><circle cx="684" cy="344" r="5"/><circle cx="724" cy="382" r="5"/><circle cx="839" cy="337" r="5"/><circle cx="925" cy="332" r="4"/><circle cx="1034" cy="343" r="6"/><circle cx="1114" cy="353" r="4"/><circle cx="1175" cy="340" r="6"/><circle cx="1279" cy="370" r="4"/><circle cx="1288" cy="338" r="5"/><circle cx="1409" cy="355" r="5"/><circle cx="1445" cy="334" r="4"/><circle cx="1593" cy="374" r="5"/><circle cx="1647" cy="364" r="5"/><circle cx="1741" cy="324" r="5"/><circle cx="1810" cy="330" r="4"/><circle cx="1871" cy="381" r="5"/><circle cx="1985" cy="338" r="6"/><circle cx="2041" cy="377" r="4"/><circle cx="2099" cy="362" r="5"/><circle cx="2177" cy="393" r="6"/><circle cx="2315" cy="337" r="5"/><circle cx="2372" cy="382" r="6"/><circle cx="2462" cy="323" r="5"/><circle cx="2557" cy="325" r="4"/><circle cx="-3" cy="325" r="4"/><circle cx="59" cy="451" r="6"/><circle cx="98" cy="479" r="5"/><circle cx="231" cy="406" r="6"/><circle cx="245" cy="443" r="6"/><circle cx="326" cy="471" r="6"/><circle cx="473" cy="431" r="4"/><circle cx="502" cy="430" r="5"/><circle cx="640" cy="463" r="5"/><circle cx="703" cy="424" r="4"/><circle cx="791" cy="455" r="5"/><circle cx="803" cy="422" r="6"/><circle cx="920" cy="434" r="5"/><circle cx="964" cy="425" r="6"/><circle cx="1041" cy="467" r="5"/><circle cx="1186" cy="403" r="5"/><circle cx="1270" cy="415" r="6"/><circle cx="1337" cy="442" r="4"/><circle cx="1414" cy="439" r="5"/><circle cx="1471" cy="445" r="4"/><circle cx="1589" cy="433" r="5"/><circle cx="1628" cy="427" r="5"/><circle cx="1759" cy="448" r="4"/><circle cx="1784" cy="469" r="5"/><circle cx="1846" cy="460" r="5"/><circle cx="1984" cy="468" r="6"/><circle cx="2001" cy="426" r="5"/><circle cx="2112" cy="414" r="4"/><circle cx="2192" cy="421" r="4"/><circle cx="2279" cy="416" r="5"/><circle cx="2348" cy="458" r="6"/><circle cx="2403" cy="415" r="5"/><circle cx="2515" cy="425" r="6"/><circle cx="41" cy="559" r="5"/><circle cx="154" cy="492" r="5"/><circle cx="219" cy="533" r="5"/><circle cx="261" cy="539" r="6"/><circle cx="366" cy="534" r="5"/><circle cx="454" cy="516" r="5"/><circle cx="559" cy="507" r="5"/><circle cx="579" cy="560" r="5"/><circle cx="705" cy="487" r="6"/><circle cx="758" cy="518" r="5"/><circle cx="803" cy="549" r="5"/><circle cx="888" cy="503" r="4"/><circle cx="996" cy="489" r="5"/><circle cx="1104" cy="549" r="4"/><circle cx="1189" cy="519" r="4"/><circle cx="1249" cy="544" r="5"/><circle cx="1338" cy="524" r="5"/><circle cx="1361" cy="506" r="5"/><circle cx="1475" cy="530" r="5"/><circle cx="1588" cy="519" r="4"/><circle cx="1669" cy="505" r="5"/><circle cx="1714" cy="520" r="6"/><circle cx="1807" cy="522" r="5"/><circle cx="1883" cy="492" r="5"/><circle cx="1977" cy="533" r="5"/><circle cx="2073" cy="488" r="5"/><circle cx="2113" cy="535" r="6"/><circle cx="2202" cy="513" r="4"/><circle cx="2300" cy="538" r="6"/><circle cx="2369" cy="553" r="5"/><circle cx="2420" cy="491" r="4"/><circle cx="2501" cy="547" r="5"/><circle cx="37" cy="572" r="5"/><circle cx="124" cy="576" r="4"/><circle cx="185" cy="571" r="5"/><circle cx="287" cy="584" r="6"/><circle cx="360" cy="569" r="5"/><circle cx="463" cy="634" r="5"/><circle cx="500" cy="632" r="6"/><circle cx="618" cy="622" r="6"/><circle cx="683" cy="573" r="4"/><circle cx="795" cy="598" r="5"/><circle cx="810" cy="587" r="6"/><circle cx="957" cy="567" r="4"/><circle cx="1008" cy="638" r="4"/><circle cx="1063" cy="595" r="5"/><circle cx="1120" cy="615" r="5"/><circle cx="1280" cy="612" r="5"/><circle cx="1301" cy="573" r="6"/><circle cx="1366" cy="562" r="6"/><circle cx="1452" cy="562" r="5"/><circle cx="1571" cy="623" r="5"/><circle cx="1617" cy="560" r="5"/><circle cx="1713" cy="596" r="4"/><circle cx="1766" cy="631" r="5"/><circle cx="1869" cy="608" r="5"/><circle cx="1948" cy="622" r="4"/><circle cx="2057" cy="604" r="6"/><circle cx="2130" cy="590" r="6"/><circle cx="2176" cy="619" r="4"/><circle cx="2290" cy="571" r="4"/><circle cx="2390" cy="569" r="5"/><circle cx="2465" cy="622" r="4"/><circle cx="2503" cy="607" r="4"/><circle cx="54" cy="688" r="5"/><circle cx="125" cy="664" r="4"/><circle cx="189" cy="652" r="5"/><circle cx="245" cy="688" r="6"/><circle cx="380" cy="658" r="6"/><circle cx="413" cy="673" r="4"/><circle cx="495" cy="686" r="5"/><circle cx="570" cy="658" r="6"/><circle cx="677" cy="671" r="4"/><circle cx="748" cy="668" r="6"/><circle cx="829" cy="662" r="5"/><circle cx="937" cy="682" r="4"/><circle cx="1001" cy="662" r="5"/><circle cx="1063" cy="719" r="5"/><circle cx="1125" cy="658" r="4"/><circle cx="1211" cy="662" r="5"/><circle cx="1302" cy="706" r="5"/><circle cx="1380" cy="694" r="5"/><circle cx="1503" cy="713" r="4"/><circle cx="1551" cy="658" r="5"/><circle cx="1655" cy="677" r="6"/><circle cx="1726" cy="649" r="5"/><circle cx="1770" cy="676" r="4"/><circle cx="1858" cy="641" r="4"/><circle cx="1991" cy="677" r="5"/><circle cx="2034" cy="650" r="5"/><circle cx="2157" cy="645" r="5"/><circle cx="2174" cy="651" r="4"/><circle cx="2306" cy="680" r="5"/><circle cx="2371" cy="646" r="5"/><circle cx="2423" cy="699" r="5"/><circle cx="2506" cy="715" r="5"/><circle cx="33" cy="724" r="6"/><circle cx="146" cy="787" r="5"/><circle cx="192" cy="762" r="4"/><circle cx="305" cy="747" r="5"/><circle cx="340" cy="747" r="5"/><circle cx="417" cy="750" r="6"/><circle cx="509" cy="767" r="5"/><circle cx="629" cy="736" r="6"/><circle cx="678" cy="752" r="6"/><circle cx="757" cy="796" r="5"/><circle cx="876" cy="764" r="5"/><circle cx="937" cy="766" r="5"/><circle cx="960" cy="759" r="6"/><circle cx="1041" cy="738" r="6"/><circle cx="1168" cy="759" r="4"/><circle cx="1260" cy="755" r="5"/><circle cx="1314" cy="732" r="5"/><circle cx="1413" cy="729" r="5"/><circle cx="1455" cy="745" r="5"/><circle cx="1559" cy="776" r="5"/><circle cx="1633" cy="778" r="4"/><circle cx="1702" cy="793" r="5"/><circle cx="1816" cy="749" r="4"/><circle cx="1906" cy="775" r="5"/><circle cx="1938" cy="742" r="5"/><circle cx="2025" cy="743" r="5"/><circle cx="2143" cy="768" r="5"/><circle cx="2236" cy="773" r="5"/><circle cx="2282" cy="726" r="5"/><circle cx="2352" cy="772" r="4"/><circle cx="2407" cy="771" r="4"/><circle cx="2502" cy="725" r="5"/><circle cx="72" cy="878" r="6"/><circle cx="104" cy="849" r="5"/><circle cx="183" cy="871" r="6"/><circle cx="281" cy="861" r="6"/><circle cx="398" cy="820" r="5"/><circle cx="431" cy="803" r="5"/><circle cx="514" cy="846" r="6"/><circle cx="580" cy="877" r="4"/><circle cx="686" cy="840" r="5"/><circle cx="748" cy="831" r="5"/><circle cx="864" cy="846" r="6"/><circle cx="952" cy="826" r="5"/><circle cx="1029" cy="811" r="5"/><circle cx="1102" cy="824" r="5"/><circle cx="1181" cy="855" r="6"/><circle cx="1214" cy="826" r="4"/><circle cx="1326" cy="866" r="6"/><circle cx="1428" cy="873" r="5"/><circle cx="1454" cy="833" r="5"/><circle cx="1552" cy="874" r="5"/><circle cx="1637" cy="818" r="5"/><circle cx="1700" cy="822" r="6"/><circle cx="1822" cy="874" r="4"/><circle cx="1872" cy="818" r="5"/><circle cx="1996" cy="859" r="6"/><circle cx="2032" cy="857" r="6"/><circle cx="2139" cy="820" r="5"/><circle cx="2231" cy="855" r="6"/><circle cx="2282" cy="851" r="6"/><circle cx="2323" cy="803" r="5"/><circle cx="2456" cy="859" r="6"/><circle cx="2500" cy="843" r="5"/><circle cx="8" cy="933" r="4"/><circle cx="125" cy="902" r="6"/><circle cx="160" cy="950" r="5"/><circle cx="297" cy="952" r="6"/><circle cx="353" cy="943" r="6"/><circle cx="440" cy="939" r="5"/><circle cx="525" cy="893" r="4"/><circle cx="569" cy="902" r="5"/><circle cx="658" cy="954" r="5"/><circle cx="733" cy="884" r="4"/><circle cx="818" cy="928" r="5"/><circle cx="894" cy="948" r="4"/><circle cx="969" cy="927" r="5"/><circle cx="1069" cy="949" r="4"/><circle cx="1126" cy="881" r="5"/><circle cx="1266" cy="919" r="5"/><circle cx="1314" cy="892" r="5"/><circle cx="1379" cy="952" r="5"/><circle cx="1453" cy="901" r="6"/><circle cx="1564" cy="892" r="4"/><circle cx="1631" cy="919" r="4"/><circle cx="1714" cy="892" r="5"/><circle cx="1840" cy="902" r="4"/><circle cx="1852" cy="920" r="5"/><circle cx="1963" cy="893" r="4"/><circle cx="2017" cy="919" r="5"/><circle cx="2158" cy="905" r="4"/><circle cx="2240" cy="937" r="4"/><circle cx="2286" cy="924" r="6"/><circle cx="2397" cy="927" r="5"/><circle cx="2458" cy="948" r="5"/><circle cx="2486" cy="916" r="5"/><circle cx="4" cy="974" r="5"/><circle cx="2564" cy="974" r="5"/><circle cx="127" cy="1028" r="5"/><circle cx="180" cy="964" r="4"/><circle cx="263" cy="1022" r="6"/><circle cx="337" cy="997" r="6"/><circle cx="454" cy="996" r="6"/><circle cx="528" cy="964" r="5"/><circle cx="572" cy="1030" r="5"/><circle cx="698" cy="1028" r="6"/><circle cx="768" cy="971" r="5"/><circle cx="860" cy="1019" r="4"/><circle cx="941" cy="1008" r="5"/><circle cx="963" cy="998" r="5"/><circle cx="1093" cy="1039" r="5"/><circle cx="1146" cy="999" r="5"/><circle cx="1248" cy="971" r="5"/><circle cx="1328" cy="1026" r="5"/><circle cx="1398" cy="983" r="6"/><circle cx="1471" cy="1029" r="4"/><circle cx="1562" cy="980" r="6"/><circle cx="1618" cy="1031" r="5"/><circle cx="1726" cy="978" r="5"/><circle cx="1804" cy="1015" r="5"/><circle cx="1842" cy="980" r="5"/><circle cx="1945" cy="964" r="4"/><circle cx="2016" cy="1038" r="5"/><circle cx="2159" cy="989" r="6"/><circle cx="2163" cy="1008" r="4"/><circle cx="2306" cy="1008" r="6"/><circle cx="2377" cy="970" r="4"/><circle cx="2467" cy="970" r="5"/><circle cx="2494" cy="967" r="5"/><circle cx="40" cy="1084" r="6"/><circle cx="94" cy="1069" r="6"/><circle cx="191" cy="1075" r="6"/><circle cx="273" cy="1078" r="6"/><circle cx="381" cy="1044" r="5"/><circle cx="416" cy="1052" r="4"/><circle cx="526" cy="1100" r="5"/><circle cx="579" cy="1116" r="4"/><circle cx="682" cy="1103" r="5"/><circle cx="756" cy="1118" r="4"/><circle cx="856" cy="1054" r="4"/><circle cx="957" cy="1064" r="5"/><circle cx="975" cy="1112" r="4"/><circle cx="1043" cy="1052" r="4"/><circle cx="1175" cy="1081" r="4"/><circle cx="1232" cy="1055" r="6"/><circle cx="1352" cy="1056" r="4"/><circle cx="1420" cy="1094" r="4"/><circle cx="1444" cy="1117" r="5"/><circle cx="1573" cy="1047" r="6"/><circle cx="1627" cy="1090" r="5"/><circle cx="1694" cy="1087" r="4"/><circle cx="1816" cy="1073" r="4"/><circle cx="1914" cy="1090" r="6"/><circle cx="1983" cy="1046" r="6"/><circle cx="2030" cy="1060" r="4"/><circle cx="2124" cy="1071" r="6"/><circle cx="2162" cy="1045" r="5"/><circle cx="2278" cy="1115" r="5"/><circle cx="2386" cy="1118" r="5"/><circle cx="2475" cy="1085" r="4"/><circle cx="2522" cy="1084" r="4"/><circle cx="2" cy="1181" r="6"/><circle cx="2562" cy="1181" r="6"/><circle cx="110" cy="1136" r="5"/><circle cx="228" cy="1139" r="4"/><circle cx="254" cy="1138" r="4"/><circle cx="378" cy="1125" r="5"/><circle cx="429" cy="1195" r="6"/><circle cx="558" cy="1200" r="5"/><circle cx="579" cy="1195" r="5"/><circle cx="709" cy="1165" r="6"/><circle cx="799" cy="1134" r="6"/><circle cx="874" cy="1195" r="6"/><circle cx="949" cy="1149" r="5"/><circle cx="977" cy="1197" r="5"/><circle cx="1102" cy="1144" r="4"/><circle cx="1147" cy="1134" r="4"/><circle cx="1223" cy="1181" r="5"/><circle cx="1329" cy="1167" r="6"/><circle cx="1408" cy="1152" r="5"/><circle cx="1505" cy="1151" r="5"/><circle cx="1591" cy="1123" r="5"/><circle cx="1607" cy="1128" r="6"/><circle cx="1694" cy="1183" r="5"/><circle cx="1801" cy="1180" r="5"/><circle cx="1912" cy="1144" r="5"/><circle cx="1993" cy="1153" r="6"/><circle cx="2009" cy="1190" r="6"/><circle cx="2148" cy="1173" r="5"/><circle cx="2239" cy="1132" r="5"/><circle cx="2299" cy="1155" r="6"/><circle cx="2356" cy="1155" r="5"/><circle cx="2432" cy="1143" r="5"/><circle cx="2490" cy="1179" r="5"/><circle cx="39" cy="1232" r="4"/><circle cx="116" cy="1216" r="4"/><circle cx="179" cy="1235" r="5"/><circle cx="287" cy="1215" r="6"/><circle cx="362" cy="1204" r="4"/><circle cx="413" cy="1205" r="5"/><circle cx="526" cy="1230" r="5"/><circle cx="561" cy="1221" r="4"/><circle cx="640" cy="1228" r="5"/><circle cx="734" cy="1223" r="4"/><circle cx="868" cy="1225" r="5"/><circle cx="914" cy="1272" r="5"/><circle cx="968" cy="1257" r="6"/><circle cx="1066" cy="1235" r="5"/><circle cx="1155" cy="1270" r="5"/><circle cx="1258" cy="1237" r="5"/><circle cx="1342" cy="1211" r="5"/><circle cx="1434" cy="1251" r="4"/><circle cx="1491" cy="1262" r="6"/><circle cx="1574" cy="1200" r="6"/><circle cx="1615" cy="1208" r="6"/><circle cx="1693" cy="1249" r="4"/><circle cx="1831" cy="1263" r="5"/><circle cx="1872" cy="1259" r="5"/><circle cx="1922" cy="1243" r="5"/><circle cx="2059" cy="1203" r="5"/><circle cx="2146" cy="1225" r="5"/><circle cx="2178" cy="1232" r="6"/><circle cx="2278" cy="1274" r="5"/><circle cx="2357" cy="1250" r="6"/><circle cx="2427" cy="1257" r="5"/><circle cx="2500" cy="1276" r="6"/><circle cx="20" cy="1284" r="5"/><circle cx="132" cy="1316" r="5"/><circle cx="219" cy="1290" r="5"/><circle cx="264" cy="1285" r="4"/><circle cx="368" cy="1280" r="5"/><circle cx="424" cy="1318" r="5"/><circle cx="547" cy="1345" r="4"/><circle cx="622" cy="1301" r="5"/><circle cx="718" cy="1350" r="6"/><circle cx="740" cy="1281" r="5"/><circle cx="851" cy="1281" r="4"/><circle cx="939" cy="1321" r="4"/><circle cx="1000" cy="1325" r="6"/><circle cx="1073" cy="1341" r="6"/><circle cx="1176" cy="1331" r="5"/><circle cx="1211" cy="1301" r="5"/><circle cx="1334" cy="1357" r="6"/><circle cx="1438" cy="1348" r="6"/><circle cx="1511" cy="1288" r="4"/><circle cx="1590" cy="1315" r="5"/><circle cx="1615" cy="1334" r="5"/><circle cx="1740" cy="1299" r="6"/><circle cx="1811" cy="1306" r="6"/><circle cx="1885" cy="1320" r="5"/><circle cx="1924" cy="1349" r="6"/><circle cx="2067" cy="1343" r="6"/><circle cx="2153" cy="1283" r="5"/><circle cx="2232" cy="1359" r="5"/><circle cx="2264" cy="1282" r="6"/><circle cx="2329" cy="1308" r="4"/><circle cx="2460" cy="1352" r="4"/><circle cx="2507" cy="1320" r="5"/><circle cx="21" cy="1409" r="6"/><circle cx="119" cy="1368" r="6"/><circle cx="216" cy="1430" r="5"/><circle cx="266" cy="1432" r="5"/><circle cx="347" cy="1414" r="5"/><circle cx="432" cy="1384" r="5"/><circle cx="524" cy="1409" r="6"/><circle cx="586" cy="1427" r="6"/><circle cx="700" cy="1377" r="4"/><circle cx="782" cy="1390" r="5"/><circle cx="813" cy="1434" r="4"/><circle cx="933" cy="1422" r="6"/><circle cx="1011" cy="1390" r="6"/><circle cx="1094" cy="1402" r="5"/><circle cx="1157" cy="1360" r="6"/><circle cx="1202" cy="1374" r="5"/><circle cx="1328" cy="1423" r="6"/><circle cx="1405" cy="1364" r="5"/><circle cx="1464" cy="1365" r="4"/><circle cx="1546" cy="1398" r="5"/><circle cx="1606" cy="1378" r="5"/><circle cx="1756" cy="1393" r="5"/><circle cx="1824" cy="1360" r="5"/><circle cx="1851" cy="1384" r="5"/><circle cx="1948" cy="1370" r="5"/><circle cx="2054" cy="1426" r="5"/><circle cx="2154" cy="1414" r="4"/><circle cx="2226" cy="1401" r="4"/><circle cx="2288" cy="1425" r="5"/><circle cx="2399" cy="1394" r="5"/><circle cx="2440" cy="1405" r="5"/><circle cx="2487" cy="1371" r="5"/><path stroke="#fff" d="M64 41L117 16M64 41L-28 70M64 41L64 134M64 41L-7 100M64 41L21 -31M2624 41L2532 70M2624 41L2553 100M64 1481L21 1409M117 16L196 72M117 16L21 -31M117 16L119 -72M117 16L216 -10M117 1456L21 1409M117 1456L119 1368M117 1456L216 1430M196 72L125 144M196 72L234 141M196 72L216 -10M196 72L266 -8M196 1512L216 1430M196 1512L266 1432M290 5L332 58M290 5L307 103M290 5L216 -10M290 5L266 -8M290 5L347 -26M290 1445L216 1430M290 1445L266 1432M290 1445L347 1414M332 58L307 103M332 58L335 121M332 58L410 103M332 58L347 -26M332 1498L347 1414M439 25L541 36M439 25L410 103M439 25L347 -26M439 25L432 -56M439 25L524 -31M439 1465L347 1414M439 1465L432 1384M439 1465L524 1409M541 36L602 75M541 36L559 129M541 36L524 -31M541 36L586 -13M541 1476L524 1409M541 1476L586 1427M602 75L559 129M602 75L634 116M602 75L670 108M602 75L586 -13M602 1515L586 1427M702 48L792 49M702 48L634 116M702 48L670 108M702 48L729 82M702 48L700 -63M702 1488L700 1377M792 49L729 82M792 49L844 97M792 49L813 -6M792 1489L813 1434M871 33L916 67M871 33L844 97M871 33L914 107M871 33L813 -6M871 33L933 -18M871 1473L813 1434M871 1473L933 1422M916 67L991 66M916 67L844 97M916 67L914 107M916 67L933 -18M916 1507L933 1422M991 66L914 107M991 66L1011 117M991 66L933 -18M991 1506L933 1422M1100 31L1135 64M1100 31L1094 -38M1100 1471L1094 1402M1135 64L1116 147M1135 64L1164 92M1135 64L1203 153M1135 64L1094 -38M1135 1504L1094 1402M1272 38L1347 79M1272 38L1294 80M1272 38L1328 -17M1272 1478L1328 1423M1347 79L1402 51M1347 79L1294 80M1347 79L1399 156M1347 79L1328 -17M1347 1519L1328 1423M1402 51L1441 7M1402 51L1399 156M1402 51L1451 147M1402 51L1328 -17M1402 1491L1328 1423M1441 7L1545 12M1441 7L1405 -76M1441 7L1464 -75M1441 1447L1405 1364M1441 1447L1464 1365M1545 12L1637 34M1545 12L1546 -42M1545 12L1606 -62M1545 1452L1546 1398M1545 1452L1606 1378M1637 34L1740 70M1637 34L1640 94M1637 34L1606 -62M1637 1474L1606 1378M1740 70L1801 63M1740 70L1640 94M1740 70L1723 149M1740 70L1780 150M1801 63L1887 72M1887 72L1972 47M1887 72L1885 149M1887 72L1934 153M1972 47L2028 45M1972 47L2021 100M1972 47L2054 -14M1972 1487L2054 1426M2028 45L2021 100M2028 45L2103 95M2028 45L2054 -14M2028 1485L2054 1426M2153 3L2215 22M2153 3L2103 95M2153 3L2054 -14M2153 3L2154 -26M2153 3L2226 -39M2153 1443L2054 1426M2153 1443L2154 1414M2153 1443L2226 1401M2215 22L2251 66M2215 22L2154 -26M2215 22L2226 -39M2215 22L2288 -15M2215 1462L2154 1414M2215 1462L2226 1401M2215 1462L2288 1425M2251 66L2201 114M2251 66L2319 99M2251 66L2288 -15M2251 1506L2288 1425M2383 40L2438 78M2383 40L2319 99M2383 40L2364 96M2383 40L2399 -46M2383 1480L2399 1394M2438 78L2532 70M2438 78L2364 96M2438 78L2404 123M2438 78L2401 163M2532 70L2553 100M2532 70L2518 173M64 134L125 144M64 134L-7 100M64 134L65 176M64 134L145 180M2624 134L2553 100M125 144L65 176M125 144L145 180M125 144L166 236M234 141L307 103M307 103L335 121M307 103L341 183M335 121L410 103M335 121L307 221M335 121L341 183M410 103L341 183M410 103L447 161M559 129L634 116M559 129L485 216M559 129L627 223M634 116L670 108M634 116L660 221M670 108L729 82M844 97L914 107M844 97L820 213M914 107L1011 117M1011 117L959 210M1011 117L988 209M1116 147L1164 92M1116 147L1203 153M1116 147L1093 222M1116 147L1183 182M1164 92L1203 153M1164 92L1183 182M1164 92L1211 170M1203 153L1183 182M1203 153L1211 170M1294 80L1364 161M1399 156L1451 147M1399 156L1333 216M1399 156L1364 161M1451 147L1544 142M1451 147L1364 161M1451 147L1464 234M1544 142L1593 174M1544 142L1532 248M1640 94L1593 174M1640 94L1706 174M1723 149L1780 150M1723 149L1668 200M1723 149L1706 174M1723 149L1785 219M1780 150L1706 174M1780 150L1785 219M1780 150L1851 181M1885 149L1934 153M1885 149L1851 181M1885 149L1963 164M1934 153L1851 181M1934 153L1963 164M1934 153L1930 247M2021 100L2103 95M2021 100L1963 164M2021 100L2065 191M2103 95L2201 114M2103 95L2114 180M2201 114L2114 180M2201 114L2189 220M2201 114L2254 202M2319 99L2364 96M2319 99L2404 123M2319 99L2401 163M2364 96L2404 123M2364 96L2401 163M2404 123L2388 171M2404 123L2401 163M2553 100L2625 176M2553 100L2518 173M-7 100L65 176M65 176L145 180M65 176L67 246M145 180L166 236M145 180L67 246M166 236L67 246M166 236L128 290M166 236L176 313M307 221L341 183M307 221L307 303M307 221L344 247M341 183L344 247M447 161L485 216M485 216L344 247M485 216L460 284M485 216L515 308M627 223L660 221M627 223L594 283M627 223L642 249M660 221L594 283M660 221L642 249M660 221L741 268M784 193L820 213M784 193L741 268M784 193L828 255M820 213L741 268M820 213L828 255M820 213L909 261M959 210L988 209M959 210L909 261M959 210L1003 273M988 209L1093 222M988 209L909 261M988 209L1003 273M1093 222L1183 182M1093 222L1097 257M1093 222L1129 285M1183 182L1211 170M1211 170L1248 275M1211 170L1284 252M1333 216L1364 161M1333 216L1248 275M1333 216L1284 252M1333 216L1376 292M1464 234L1470 271M1464 234L1532 248M1464 234L1445 334M1593 174L1668 200M1593 174L1532 248M1668 200L1706 174M1706 174L1785 219M1785 219L1851 181M1785 219L1825 278M1851 181L1825 278M1963 164L2065 191M1963 164L1930 247M2065 191L2114 180M2065 191L2058 299M2065 191L2120 264M2114 180L2189 220M2114 180L2120 264M2189 220L2254 202M2189 220L2120 264M2189 220L2235 288M2254 202L2235 288M2254 202L2326 277M2388 171L2401 163M2388 171L2455 270M2518 173L2455 270M67 246L128 290M67 246L-10 280M2627 246L2550 280M128 290L176 313M128 290L124 392M176 313L216 371M176 313L256 363M176 313L231 406M307 303L344 247M307 303L256 363M307 303L339 399M344 247L460 284M460 284L515 308M460 284L454 395M460 284L485 370M515 308L594 283M515 308L454 395M515 308L485 370M594 283L642 249M594 283L610 388M642 249L684 344M741 268L828 255M741 268L684 344M828 255L909 261M828 255L839 337M909 261L925 332M1003 273L1097 257M1003 273L925 332M1003 273L1034 343M1097 257L1129 285M1097 257L1034 343M1097 257L1114 353M1129 285L1034 343M1129 285L1114 353M1129 285L1175 340M1248 275L1284 252M1248 275L1175 340M1248 275L1288 338M1284 252L1376 292M1284 252L1288 338M1376 292L1470 271M1376 292L1409 355M1376 292L1445 334M1470 271L1532 248M1470 271L1409 355M1470 271L1445 334M1532 248L1630 313M1630 313L1704 308M1630 313L1593 374M1630 313L1647 364M1704 308L1647 364M1704 308L1741 324M1704 308L1810 330M1825 278L1886 279M1825 278L1741 324M1825 278L1810 330M1886 279L1930 247M1886 279L1810 330M1886 279L1871 381M1930 247L1985 338M2058 299L2120 264M2058 299L1985 338M2058 299L2041 377M2058 299L2099 362M2120 264L2099 362M2235 288L2297 319M2235 288L2326 277M2235 288L2315 337M2297 319L2326 277M2297 319L2315 337M2297 319L2372 382M2297 319L2279 416M2326 277L2315 337M2455 270L2550 280M2455 270L2462 323M2455 270L2557 325M2550 280L2567 378M2550 280L2462 323M2550 280L2557 325M-10 280L7 378M7 378L-3 325M7 378L59 451M7 378L-45 425M2567 378L2557 325M2567 378L2515 425M124 392L216 371M124 392L59 451M124 392L98 479M216 371L256 363M216 371L231 406M216 371L245 443M256 363L231 406M256 363L245 443M339 399L326 471M454 395L485 370M454 395L473 431M454 395L502 430M485 370L473 431M485 370L502 430M610 388L684 344M610 388L640 463M684 344L724 382M684 344L703 424M724 382L703 424M724 382L791 455M724 382L803 422M839 337L925 332M839 337L803 422M839 337L920 434M925 332L964 425M1034 343L1114 353M1034 343L964 425M1114 353L1175 340M1114 353L1186 403M1175 340L1186 403M1175 340L1270 415M1279 370L1288 338M1279 370L1186 403M1279 370L1270 415M1279 370L1337 442M1288 338L1186 403M1288 338L1270 415M1409 355L1445 334M1409 355L1414 439M1409 355L1471 445M1593 374L1647 364M1593 374L1589 433M1593 374L1628 427M1647 364L1589 433M1647 364L1628 427M1741 324L1810 330M1810 330L1871 381M1871 381L1846 460M1985 338L2041 377M1985 338L2001 426M2041 377L2099 362M2041 377L2001 426M2041 377L2112 414M2099 362L2177 393M2099 362L2112 414M2177 393L2112 414M2177 393L2192 421M2315 337L2372 382M2315 337L2279 416M2372 382L2279 416M2372 382L2348 458M2372 382L2403 415M2462 323L2557 325M2462 323L2403 415M2462 323L2515 425M2557 325L2515 425M59 451L98 479M59 451L-45 425M59 451L154 492M2619 451L2515 425M98 479L41 559M98 479L154 492M98 479L124 576M231 406L245 443M245 443L326 471M245 443L261 539M326 471L261 539M326 471L366 534M326 471L360 569M473 431L502 430M473 431L454 516M502 430L454 516M502 430L559 507M640 463L703 424M640 463L559 507M640 463L705 487M703 424L803 422M703 424L705 487M791 455L803 422M791 455L705 487M791 455L758 518M791 455L803 549M920 434L964 425M920 434L1041 467M920 434L888 503M920 434L996 489M964 425L1041 467M964 425L996 489M1041 467L996 489M1041 467L1104 549M1186 403L1270 415M1270 415L1337 442M1337 442L1414 439M1337 442L1338 524M1337 442L1361 506M1414 439L1471 445M1414 439L1361 506M1414 439L1475 530M1471 445L1475 530M1471 445L1452 562M1589 433L1628 427M1589 433L1588 519M1589 433L1669 505M1628 427L1588 519M1628 427L1669 505M1759 448L1784 469M1759 448L1846 460M1759 448L1714 520M1759 448L1807 522M1784 469L1846 460M1784 469L1714 520M1784 469L1807 522M1784 469L1883 492M1846 460L1807 522M1846 460L1883 492M1984 468L2001 426M1984 468L1883 492M1984 468L1977 533M1984 468L2073 488M2001 426L2073 488M2112 414L2192 421M2112 414L2073 488M2192 421L2279 416M2192 421L2202 513M2279 416L2348 458M2348 458L2403 415M2348 458L2300 538M2348 458L2420 491M2403 415L2515 425M2403 415L2420 491M41 559L-59 547M41 559L37 572M41 559L124 576M41 559L-57 607M2601 559L2501 547M2601 559L2503 607M154 492L219 533M154 492L124 576M154 492L185 571M219 533L261 539M219 533L185 571M219 533L287 584M261 539L185 571M261 539L287 584M366 534L454 516M366 534L287 584M366 534L360 569M454 516L559 507M454 516L360 569M559 507L579 560M579 560L500 632M579 560L618 622M579 560L683 573M579 560L570 658M705 487L758 518M705 487L683 573M758 518L803 549M758 518L795 598M758 518L810 587M803 549L888 503M803 549L795 598M803 549L810 587M888 503L996 489M888 503L957 567M996 489L957 567M1104 549L1189 519M1104 549L1063 595M1104 549L1120 615M1189 519L1249 544M1249 544L1338 524M1249 544L1280 612M1249 544L1301 573M1338 524L1361 506M1338 524L1301 573M1338 524L1366 562M1361 506L1301 573M1361 506L1366 562M1475 530L1452 562M1588 519L1669 505M1588 519L1571 623M1588 519L1617 560M1669 505L1714 520M1669 505L1617 560M1714 520L1807 522M1714 520L1713 596M1807 522L1883 492M1883 492L1977 533M1977 533L2073 488M1977 533L1948 622M1977 533L2057 604M2073 488L2113 535M2113 535L2202 513M2113 535L2057 604M2113 535L2130 590M2113 535L2176 619M2202 513L2300 538M2202 513L2290 571M2300 538L2369 553M2300 538L2290 571M2300 538L2390 569M2369 553L2420 491M2369 553L2290 571M2369 553L2390 569M2369 553L2371 646M2420 491L2501 547M2420 491L2390 569M2501 547L2597 572M2501 547L2465 622M2501 547L2503 607M-59 547L37 572M37 572L124 576M37 572L-57 607M37 572L54 688M2597 572L2503 607M124 576L185 571M185 571L189 652M287 584L360 569M287 584L245 688M360 569L380 658M463 634L500 632M463 634L380 658M463 634L413 673M463 634L495 686M500 632L413 673M500 632L495 686M500 632L570 658M618 622L683 573M618 622L570 658M618 622L677 671M618 622L629 736M683 573L677 671M795 598L810 587M795 598L748 668M795 598L829 662M810 587L748 668M810 587L829 662M957 567L1008 638M1008 638L1063 595M1008 638L937 682M1008 638L1001 662M1063 595L1120 615M1063 595L1001 662M1063 595L1125 658M1120 615L1125 658M1120 615L1211 662M1280 612L1301 573M1280 612L1366 562M1280 612L1211 662M1280 612L1302 706M1301 573L1366 562M1366 562L1452 562M1571 623L1617 560M1571 623L1503 713M1571 623L1551 658M1571 623L1655 677M1617 560L1713 596M1713 596L1766 631M1713 596L1655 677M1713 596L1726 649M1766 631L1869 608M1766 631L1726 649M1766 631L1770 676M1766 631L1858 641M1869 608L1948 622M1869 608L1770 676M1869 608L1858 641M1948 622L1858 641M1948 622L1991 677M1948 622L2034 650M2057 604L2130 590M2057 604L1991 677M2057 604L2034 650M2130 590L2176 619M2130 590L2157 645M2130 590L2174 651M2176 619L2157 645M2176 619L2174 651M2290 571L2306 680M2390 569L2465 622M2390 569L2371 646M2465 622L2503 607M2465 622L2371 646M2465 622L2423 699M2503 607L2506 715M54 688L125 664M54 688L-54 715M54 688L33 724M2614 688L2506 715M125 664L189 652M125 664L33 724M189 652L245 688M189 652L192 762M245 688L192 762M245 688L305 747M245 688L340 747M380 658L413 673M380 658L340 747M380 658L417 750M413 673L495 686M413 673L417 750M495 686L570 658M495 686L509 767M570 658L629 736M677 671L748 668M677 671L629 736M677 671L678 752M748 668L829 662M748 668L678 752M937 682L1001 662M937 682L876 764M937 682L937 766M1001 662L1063 719M1001 662L1041 738M1063 719L1125 658M1063 719L1041 738M1063 719L1029 811M1125 658L1211 662M1211 662L1302 706M1211 662L1260 755M1302 706L1380 694M1302 706L1260 755M1302 706L1314 732M1380 694L1314 732M1380 694L1413 729M1380 694L1455 745M1503 713L1551 658M1503 713L1413 729M1503 713L1455 745M1503 713L1559 776M1551 658L1655 677M1655 677L1726 649M1655 677L1633 778M1726 649L1770 676M1770 676L1858 641M1770 676L1816 749M1991 677L2034 650M1991 677L1938 742M1991 677L2025 743M2034 650L2157 645M2034 650L2025 743M2157 645L2174 651M2157 645L2143 768M2306 680L2371 646M2306 680L2282 726M2306 680L2352 772M2371 646L2423 699M2423 699L2506 715M2423 699L2407 771M2423 699L2502 725M2506 715L2593 724M2506 715L2502 725M-54 715L33 724M33 724L-58 725M2593 724L2502 725M146 787L192 762M146 787L104 849M146 787L183 871M305 747L340 747M305 747L281 861M305 747L398 820M340 747L417 750M340 747L398 820M417 750L398 820M417 750L431 803M509 767L431 803M509 767L514 846M629 736L678 752M629 736L686 840M678 752L757 796M678 752L686 840M757 796L686 840M757 796L748 831M757 796L864 846M757 796L733 884M876 764L937 766M876 764L960 759M876 764L864 846M876 764L952 826M937 766L960 759M937 766L952 826M960 759L1041 738M960 759L952 826M960 759L1029 811M1041 738L1029 811M1041 738L1102 824M1168 759L1260 755M1168 759L1102 824M1168 759L1181 855M1168 759L1214 826M1260 755L1314 732M1260 755L1214 826M1314 732L1413 729M1413 729L1455 745M1413 729L1454 833M1455 745L1559 776M1455 745L1454 833M1559 776L1633 778M1559 776L1552 874M1559 776L1637 818M1633 778L1702 793M1633 778L1637 818M1633 778L1700 822M1702 793L1816 749M1702 793L1637 818M1702 793L1700 822M1702 793L1714 892M1816 749L1906 775M1816 749L1872 818M1906 775L1938 742M1906 775L1872 818M1906 775L1996 859M1938 742L2025 743M2025 743L1996 859M2025 743L2032 857M2143 768L2236 773M2143 768L2139 820M2236 773L2282 726M2236 773L2231 855M2236 773L2282 851M2236 773L2323 803M2282 726L2352 772M2282 726L2323 803M2352 772L2407 771M2352 772L2323 803M2407 771L2502 725M2407 771L2323 803M2407 771L2456 859M2502 725L2500 843M72 878L104 849M72 878L8 933M72 878L125 902M72 878L160 950M104 849L183 871M104 849L125 902M183 871L281 861M183 871L125 902M183 871L160 950M281 861L297 952M281 861L353 943M398 820L431 803M431 803L514 846M514 846L580 877M514 846L525 893M514 846L569 902M580 877L525 893M580 877L569 902M580 877L658 954M686 840L748 831M686 840L733 884M748 831L733 884M864 846L952 826M864 846L818 928M952 826L1029 811M1029 811L1102 824M1102 824L1181 855M1102 824L1126 881M1181 855L1214 826M1181 855L1126 881M1181 855L1266 919M1214 826L1126 881M1326 866L1428 873M1326 866L1266 919M1326 866L1314 892M1428 873L1454 833M1428 873L1379 952M1428 873L1453 901M1454 833L1453 901M1552 874L1453 901M1552 874L1564 892M1552 874L1631 919M1552 874L1562 980M1637 818L1700 822M1637 818L1631 919M1700 822L1714 892M1822 874L1872 818M1822 874L1714 892M1822 874L1840 902M1822 874L1852 920M1872 818L1840 902M1872 818L1852 920M1996 859L2032 857M1996 859L1963 893M1996 859L2017 919M2032 857L2139 820M2032 857L1963 893M2032 857L2017 919M2139 820L2158 905M2231 855L2282 851M2231 855L2158 905M2231 855L2240 937M2231 855L2286 924M2282 851L2323 803M2282 851L2240 937M2282 851L2286 924M2456 859L2500 843M2456 859L2397 927M2456 859L2458 948M2456 859L2486 916M2500 843L2486 916M8 933L4 974M8 933L-66 967M2568 933L2494 967M125 902L160 950M125 902L180 964M160 950L127 1028M160 950L180 964M297 952L353 943M297 952L263 1022M297 952L337 997M353 943L440 939M353 943L337 997M353 943L454 996M440 939L525 893M440 939L454 996M440 939L528 964M525 893L569 902M525 893L528 964M569 902L658 954M569 902L528 964M658 954L698 1028M658 954L768 971M733 884L818 928M733 884L768 971M818 928L894 948M818 928L768 971M818 928L860 1019M894 948L969 927M894 948L860 1019M894 948L941 1008M894 948L963 998M969 927L1069 949M969 927L941 1008M969 927L963 998M1069 949L1126 881M1069 949L1093 1039M1069 949L1146 999M1266 919L1314 892M1266 919L1248 971M1314 892L1379 952M1314 892L1248 971M1379 952L1453 901M1379 952L1328 1026M1379 952L1398 983M1453 901L1398 983M1564 892L1631 919M1564 892L1562 980M1631 919L1714 892M1631 919L1562 980M1714 892L1726 978M1840 902L1852 920M1840 902L1842 980M1852 920L1804 1015M1852 920L1842 980M1963 893L2017 919M1963 893L1945 964M2017 919L1945 964M2158 905L2159 989M2158 905L2163 1008M2240 937L2286 924M2240 937L2159 989M2240 937L2306 1008M2286 924L2306 1008M2286 924L2377 970M2397 927L2458 948M2397 927L2377 970M2397 927L2467 970M2458 948L2486 916M2458 948L2467 970M2458 948L2494 967M2486 916L2467 970M2486 916L2494 967M4 974L-66 967M4 974L94 1069M2564 974L2494 967M127 1028L180 964M127 1028L40 1084M127 1028L94 1069M127 1028L191 1075M180 964L263 1022M263 1022L337 997M263 1022L191 1075M263 1022L273 1078M337 997L273 1078M337 997L381 1044M454 996L528 964M454 996L381 1044M454 996L416 1052M528 964L572 1030M572 1030L526 1100M572 1030L579 1116M698 1028L768 971M698 1028L682 1103M698 1028L756 1118M768 971L860 1019M860 1019L941 1008M860 1019L856 1054M941 1008L963 998M941 1008L957 1064M963 998L957 1064M963 998L1043 1052M1093 1039L1146 999M1093 1039L1043 1052M1093 1039L1175 1081M1093 1039L1102 1144M1146 999L1248 971M1146 999L1175 1081M1146 999L1232 1055M1248 971L1328 1026M1248 971L1232 1055M1328 1026L1398 983M1328 1026L1232 1055M1328 1026L1352 1056M1398 983L1471 1029M1398 983L1352 1056M1471 1029L1420 1094M1471 1029L1444 1117M1562 980L1618 1031M1562 980L1573 1047M1618 1031L1573 1047M1618 1031L1627 1090M1726 978L1804 1015M1726 978L1694 1087M1804 1015L1842 980M1804 1015L1816 1073M1842 980L1945 964M1842 980L1816 1073M1945 964L1983 1046M2016 1038L1914 1090M2016 1038L1983 1046M2016 1038L2030 1060M2159 989L2163 1008M2159 989L2124 1071M2159 989L2162 1045M2163 1008L2124 1071M2163 1008L2162 1045M2306 1008L2377 970M2306 1008L2278 1115M2377 970L2467 970M2467 970L2494 967M40 1084L94 1069M40 1084L-38 1084M40 1084L2 1181M40 1084L110 1136M2600 1084L2522 1084M94 1069L191 1075M94 1069L110 1136M191 1075L273 1078M191 1075L228 1139M273 1078L228 1139M273 1078L254 1138M381 1044L416 1052M381 1044L378 1125M416 1052L378 1125M526 1100L579 1116M579 1116L682 1103M579 1116L558 1200M579 1116L579 1195M682 1103L756 1118M682 1103L709 1165M756 1118L709 1165M756 1118L799 1134M756 1118L734 1223M856 1054L799 1134M957 1064L975 1112M957 1064L1043 1052M957 1064L949 1149M975 1112L1043 1052M975 1112L949 1149M975 1112L977 1197M1043 1052L1102 1144M1175 1081L1232 1055M1175 1081L1102 1144M1175 1081L1147 1134M1232 1055L1223 1181M1352 1056L1420 1094M1420 1094L1444 1117M1420 1094L1408 1152M1444 1117L1329 1167M1444 1117L1408 1152M1444 1117L1505 1151M1573 1047L1627 1090M1573 1047L1591 1123M1573 1047L1607 1128M1627 1090L1694 1087M1627 1090L1591 1123M1627 1090L1607 1128M1694 1087L1694 1183M1816 1073L1914 1090M1914 1090L1983 1046M1914 1090L1912 1144M1914 1090L1993 1153M1983 1046L2030 1060M1983 1046L1993 1153M2030 1060L2124 1071M2030 1060L2009 1190M2124 1071L2162 1045M2124 1071L2148 1173M2162 1045L2239 1132M2278 1115L2386 1118M2278 1115L2239 1132M2278 1115L2299 1155M2278 1115L2356 1155M2386 1118L2475 1085M2386 1118L2299 1155M2386 1118L2356 1155M2386 1118L2432 1143M2475 1085L2522 1084M2475 1085L2432 1143M2475 1085L2490 1179M2522 1084L2432 1143M2 1181L-70 1179M2 1181L39 1232M2 1181L20 1284M2562 1181L2490 1179M110 1136L116 1216M228 1139L254 1138M228 1139L287 1215M254 1138L287 1215M378 1125L429 1195M378 1125L362 1204M378 1125L413 1205M429 1195L362 1204M429 1195L413 1205M429 1195L526 1230M429 1195L368 1280M558 1200L579 1195M558 1200L526 1230M558 1200L561 1221M558 1200L640 1228M579 1195L526 1230M579 1195L561 1221M579 1195L640 1228M709 1165L799 1134M709 1165L640 1228M709 1165L734 1223M799 1134L874 1195M799 1134L734 1223M874 1195L949 1149M874 1195L868 1225M874 1195L914 1272M874 1195L851 1281M949 1149L977 1197M977 1197L968 1257M977 1197L1066 1235M1102 1144L1147 1134M1147 1134L1223 1181M1223 1181L1329 1167M1223 1181L1258 1237M1329 1167L1408 1152M1329 1167L1258 1237M1329 1167L1342 1211M1408 1152L1505 1151M1408 1152L1342 1211M1505 1151L1574 1200M1591 1123L1607 1128M1591 1123L1574 1200M1591 1123L1615 1208M1607 1128L1574 1200M1607 1128L1615 1208M1694 1183L1801 1180M1694 1183L1615 1208M1694 1183L1693 1249M1801 1180L1912 1144M1801 1180L1831 1263M1912 1144L1993 1153M1912 1144L2009 1190M1912 1144L1922 1243M1993 1153L2009 1190M1993 1153L2059 1203M2009 1190L1922 1243M2009 1190L2059 1203M2148 1173L2239 1132M2148 1173L2059 1203M2148 1173L2146 1225M2148 1173L2178 1232M2239 1132L2299 1155M2299 1155L2356 1155M2356 1155L2432 1143M2356 1155L2357 1250M2432 1143L2490 1179M2490 1179L2427 1257M39 1232L116 1216M39 1232L20 1284M116 1216L179 1235M116 1216L132 1316M179 1235L132 1316M179 1235L219 1290M179 1235L264 1285M287 1215L362 1204M287 1215L219 1290M287 1215L264 1285M362 1204L413 1205M362 1204L368 1280M413 1205L368 1280M413 1205L424 1318M526 1230L561 1221M561 1221L640 1228M561 1221L622 1301M640 1228L622 1301M734 1223L740 1281M868 1225L914 1272M868 1225L851 1281M914 1272L968 1257M914 1272L851 1281M914 1272L939 1321M968 1257L1066 1235M968 1257L939 1321M968 1257L1000 1325M1066 1235L1155 1270M1155 1270L1176 1331M1155 1270L1211 1301M1258 1237L1342 1211M1258 1237L1211 1301M1342 1211L1434 1251M1434 1251L1491 1262M1434 1251L1511 1288M1491 1262L1574 1200M1491 1262L1438 1348M1491 1262L1511 1288M1491 1262L1590 1315M1574 1200L1615 1208M1615 1208L1693 1249M1693 1249L1615 1334M1693 1249L1740 1299M1831 1263L1872 1259M1831 1263L1740 1299M1831 1263L1811 1306M1872 1259L1922 1243M1872 1259L1811 1306M1872 1259L1885 1320M1872 1259L1924 1349M2059 1203L2146 1225M2146 1225L2178 1232M2146 1225L2153 1283M2178 1232L2278 1274M2178 1232L2153 1283M2178 1232L2264 1282M2278 1274L2357 1250M2278 1274L2232 1359M2278 1274L2264 1282M2278 1274L2329 1308M2357 1250L2427 1257M2357 1250L2264 1282M2357 1250L2329 1308M2427 1257L2500 1276M2427 1257L2507 1320M2500 1276L2580 1284M2500 1276L2460 1352M2500 1276L2507 1320M2500 1276L2487 1371M-60 1276L20 1284M20 1284L-53 1320M20 1284L21 1409M2580 1284L2507 1320M132 1316L219 1290M132 1316L119 1368M219 1290L264 1285M219 1290L119 1368M264 1285L368 1280M368 1280L424 1318M424 1318L432 1384M547 1345L622 1301M547 1345L432 1384M547 1345L524 1409M547 1345L586 1427M622 1301L718 1350M622 1301L740 1281M718 1350L740 1281M718 1350L700 1377M718 1350L782 1390M718 1350L813 1434M740 1281L700 1377M740 1281L782 1390M939 1321L1000 1325M939 1321L1011 1390M1000 1325L1073 1341M1000 1325L933 1422M1000 1325L1011 1390M1073 1341L1176 1331M1073 1341L1011 1390M1073 1341L1094 1402M1073 1341L1157 1360M1176 1331L1211 1301M1176 1331L1157 1360M1176 1331L1202 1374M1211 1301L1157 1360M1211 1301L1202 1374M1334 1357L1438 1348M1334 1357L1202 1374M1334 1357L1328 1423M1334 1357L1405 1364M1438 1348L1511 1288M1438 1348L1405 1364M1438 1348L1464 1365M1511 1288L1590 1315M1511 1288L1464 1365M1590 1315L1615 1334M1590 1315L1546 1398M1590 1315L1606 1378M1615 1334L1546 1398M1615 1334L1606 1378M1740 1299L1811 1306M1740 1299L1756 1393M1811 1306L1885 1320M1811 1306L1824 1360M1885 1320L1924 1349M1885 1320L1824 1360M1885 1320L1851 1384M1924 1349L1824 1360M1924 1349L1851 1384M1924 1349L1948 1370M2067 1343L2153 1283M2067 1343L1948 1370M2067 1343L2054 1426M2232 1359L2264 1282M2232 1359L2154 1414M2232 1359L2226 1401M2232 1359L2288 1425M2264 1282L2329 1308M2460 1352L2507 1320M2460 1352L2399 1394M2460 1352L2440 1405M2460 1352L2487 1371M2507 1320L2487 1371M21 1409L119 1368M21 1409L-73 1371M2581 1409L2487 1371M119 1368L216 1430M216 1430L266 1432M266 1432L347 1414M347 1414L432 1384M432 1384L524 1409M524 1409L586 1427M586 1427L700 1377M700 1377L782 1390M782 1390L813 1434M933 1422L1011 1390M1011 1390L1094 1402M1094 1402L1157 1360M1157 1360L1202 1374M1328 1423L1405 1364M1405 1364L1464 1365M1464 1365L1546 1398M1546 1398L1606 1378M1756 1393L1824 1360M1756 1393L1851 1384M1824 1360L1851 1384M1851 1384L1948 1370M2054 1426L2154 1414M2154 1414L2226 1401M2226 1401L2288 1425M2288 1425L2399 1394M2399 1394L2440 1405M2440 1405L2487 1371"/></svg>