<svg xmlns="http://www.w3.org/2000/svg" width="2560" height="1440" fill="#fff"><circle cx="66" cy="70" r="5"/><circle cx="151" cy="24" r="5"/><circle cx="233" cy="49" r="4"/><circle cx="304" cy="10" r="5"/><circle cx="394" cy="62" r="5"/><circle cx="447" cy="52" r="4"/><circle cx="550" cy="8" r="6"/><circle cx="615" cy="78" r="6"/><circle cx="691" cy="50" r="5"/><circle cx="727" cy="71" r="4"/><circle cx="828" cy="41" r="4"/><circle cx="911" cy="23" r="6"/><circle cx="975" cy="23" r="4"/><circle cx="1079" cy="77" r="4"/><circle cx="1173" cy="22" r="6"/><circle cx="1253" cy="17" r="5"/><circle cx="1328" cy="6" r="5"/><circle cx="1414" cy="77" r="6"/><circle cx="1494" cy="15" r="4"/><circle cx="1583" cy="4" r="4"/><circle cx="1622" cy="43" r="5"/><circle cx="1699" cy="35" r="5"/><circle cx="1815" cy="4" r="5"/><circle cx="1815" cy="1444" r="5"/><circle cx="1854" cy="6" r="6"/><circle cx="1854" cy="1446" r="6"/><circle cx="1931" cy="78" r="5"/><circle cx="2074" cy="30" r="4"/><circle cx="2147" cy="71" r="6"/><circle cx="2165" cy="65" r="5"/><circle cx="2257" cy="65" r="5"/><circle cx="2390" cy="23" r="5"/><circle cx="2408" cy="21" r="6"/><circle cx="2507" cy="60" r="4"/><circle cx="15" cy="92" r="6"/><circle cx="105" cy="151" r="4"/><circle cx="179" cy="130" r="6"/><circle cx="280" cy="84" r="5"/><circle cx="321" cy="107" r="4"/><circle cx="459" cy="147" r="6"/><circle cx="552" cy="130" r="5"/><circle cx="604" cy="154" r="6"/><circle cx="700" cy="140" r="5"/><circle cx="798" cy="140" r="5"/><circle cx="829" cy="134" r="6"/><circle cx="914" cy="153" r="5"/><circle cx="987" cy="126" r="5"/><circle cx="1063" cy="129" r="5"/><circle cx="1145" cy="137" r="6"/><circle cx="1216" cy="142" r="5"/><circle cx="1290" cy="98" r="5"/><circle cx="1373" cy="148" r="4"/><circle cx="1457" cy="115" r="6"/><circle cx="1533" cy="89" r="5"/><circle cx="1606" cy="142" r="5"/><circle cx="1701" cy="89" r="4"/><circle cx="1824" cy="118" r="4"/><circle cx="1919" cy="144" r="5"/><circle cx="1930" cy="99" r="6"/><circle cx="2014" cy="88" r="5"/><circle cx="2084" cy="145" r="4"/><circle cx="2239" cy="158" r="5"/><circle cx="2312" cy="110" r="6"/><circle cx="2398" cy="113" r="5"/><circle cx="2426" cy="151" r="5"/><circle cx="2496" cy="117" r="6"/><circle cx="28" cy="183" r="4"/><circle cx="85" cy="221" r="5"/><circle cx="188" cy="165" r="5"/><circle cx="259" cy="186" r="4"/><circle cx="344" cy="239" r="4"/><circle cx="425" cy="203" r="5"/><circle cx="494" cy="191" r="6"/><circle cx="567" cy="230" r="6"/><circle cx="680" cy="212" r="5"/><circle cx="750" cy="232" r="5"/><circle cx="865" cy="167" r="5"/><circle cx="940" cy="183" r="5"/><circle cx="1015" cy="229" r="6"/><circle cx="1077" cy="170" r="5"/><circle cx="1169" cy="238" r="5"/><circle cx="1224" cy="209" r="5"/><circle cx="1320" cy="206" r="6"/><circle cx="1401" cy="211" r="5"/><circle cx="1467" cy="229" r="5"/><circle cx="1575" cy="186" r="6"/><circle cx="1662" cy="235" r="5"/><circle cx="1741" cy="206" r="5"/><circle cx="1808" cy="162" r="6"/><circle cx="1864" cy="187" r="6"/><circle cx="1955" cy="227" r="4"/><circle cx="2018" cy="172" r="5"/><circle cx="2127" cy="193" r="5"/><circle cx="2191" cy="175" r="4"/><circle cx="2287" cy="167" r="4"/><circle cx="2335" cy="166" r="6"/><circle cx="2460" cy="218" r="6"/><circle cx="2505" cy="214" r="5"/><circle cx="29" cy="274" r="5"/><circle cx="138" cy="284" r="4"/><circle cx="171" cy="294" r="6"/><circle cx="254" cy="310" r="5"/><circle cx="343" cy="295" r="5"/><circle cx="442" cy="273" r="4"/><circle cx="537" cy="249" r="4"/><circle cx="569" cy="296" r="5"/><circle cx="661" cy="264" r="5"/><circle cx="722" cy="283" r="5"/><circle cx="864" cy="268" r="6"/><circle cx="900" cy="255" r="4"/><circle cx="989" cy="315" r="5"/><circle cx="1079" cy="290" r="6"/><circle cx="1154" cy="292" r="5"/><circle cx="1232" cy="293" r="5"/><circle cx="1288" cy="241" r="5"/><circle cx="1361" cy="284" r="5"/><circle cx="1442" cy="317" r="5"/><circle cx="1539" cy="275" r="5"/><circle cx="1675" cy="250" r="5"/><circle cx="1712" cy="293" r="6"/><circle cx="1839" cy="242" r="6"/><circle cx="1870" cy="267" r="4"/><circle cx="1991" cy="257" r="4"/><circle cx="2053" cy="273" r="6"/><circle cx="2099" cy="303" r="6"/><circle cx="2174" cy="243" r="4"/><circle cx="2278" cy="260" r="5"/><circle cx="2378" cy="297" r="4"/><circle cx="2427" cy="256" r="5"/><circle cx="2517" cy="279" r="5"/><circle cx="19" cy="343" r="5"/><circle cx="154" cy="388" r="6"/><circle cx="203" cy="375" r="4"/><circle cx="261" cy="372" r="6"/><circle cx="363" cy="359" r="5"/><circle cx="404" cy="379" r="5"/><circle cx="534" cy="365" r="5"/><circle cx="628" cy="329" r="5"/><circle cx="715" cy="352" r="4"/><circle cx="748" cy="400" r="5"/><circle cx="845" cy="340" r="5"/><circle cx="948" cy="366" r="6"/><circle cx="989" cy="363" r="4"/><circle cx="1109" cy="352" r="5"/><circle cx="1168" cy="391" r="5"/><circle cx="1210" cy="382" r="4"/><circle cx="1318" cy="334" r="5"/><circle cx="1439" cy="376" r="4"/><circle cx="1515" cy="380" r="6"/><circle cx="1581" cy="380" r="5"/><circle cx="1672" cy="381" r="4"/><circle cx="1693" cy="364" r="4"/><circle cx="1783" cy="357" r="5"/><circle cx="1852" cy="356" r="6"/><circle cx="1926" cy="342" r="5"/><circle cx="2028" cy="392" r="5"/><circle cx="2097" cy="360" r="5"/><circle cx="2220" cy="370" r="4"/><circle cx="2302" cy="374" r="5"/><circle cx="2393" cy="364" r="4"/><circle cx="2457" cy="394" r="5"/><circle cx="2544" cy="362" r="4"/><circle cx="38" cy="403" r="4"/><circle cx="137" cy="468" r="4"/><circle cx="179" cy="407" r="4"/><circle cx="317" cy="475" r="5"/><circle cx="358" cy="403" r="5"/><circle cx="432" cy="408" r="6"/><circle cx="494" cy="425" r="6"/><circle cx="607" cy="406" r="6"/><circle cx="682" cy="417" r="5"/><circle cx="797" cy="443" r="4"/><circle cx="872" cy="451" r="4"/><circle cx="920" cy="464" r="5"/><circle cx="968" cy="462" r="6"/><circle cx="1117" cy="447" r="5"/><circle cx="1168" cy="478" r="6"/><circle cx="1216" cy="471" r="4"/><circle cx="1359" cy="408" r="6"/><circle cx="1429" cy="464" r="5"/><circle cx="1461" cy="464" r="6"/><circle cx="1549" cy="463" r="5"/><circle cx="1655" cy="474" r="6"/><circle cx="1756" cy="419" r="5"/><circle cx="1832" cy="462" r="5"/><circle cx="1844" cy="416" r="4"/><circle cx="1962" cy="434" r="6"/><circle cx="2039" cy="450" r="5"/><circle cx="2110" cy="439" r="5"/><circle cx="2238" cy="434" r="5"/><circle cx="2263" cy="474" r="6"/><circle cx="2364" cy="405" r="5"/><circle cx="2414" cy="402" r="6"/><circle cx="2498" cy="452" r="4"/><circle cx="8" cy="481" r="5"/><circle cx="111" cy="550" r="4"/><circle cx="194" cy="487" r="4"/><circle cx="250" cy="492" r="5"/><circle cx="341" cy="547" r="6"/><circle cx="474" cy="534" r="5"/><circle cx="491" cy="510" r="4"/><circle cx="571" cy="503" r="5"/><circle cx="657" cy="521" r="5"/><circle cx="786" cy="531" r="5"/><circle cx="867" cy="532" r="5"/><circle cx="941" cy="509" r="5"/><circle cx="1032" cy="506" r="5"/><circle cx="1112" cy="523" r="4"/><circle cx="1142" cy="530" r="5"/><circle cx="1260" cy="554" r="4"/><circle cx="1325" cy="512" r="6"/><circle cx="1381" cy="532" r="5"/><circle cx="1488" cy="550" r="4"/><circle cx="1529" cy="500" r="6"/><circle cx="1610" cy="504" r="6"/><circle cx="1702" cy="553" r="6"/><circle cx="1827" cy="505" r="4"/><circle cx="1887" cy="500" r="5"/><circle cx="1980" cy="480" r="5"/><circle cx="2037" cy="482" r="5"/><circle cx="2085" cy="505" r="5"/><circle cx="2179" cy="520" r="5"/><circle cx="2293" cy="527" r="5"/><circle cx="2387" cy="496" r="5"/><circle cx="2422" cy="496" r="5"/><circle cx="2534" cy="550" r="4"/><circle cx="27" cy="620" r="6"/><circle cx="127" cy="586" r="4"/><circle cx="204" cy="574" r="4"/><circle cx="288" cy="615" r="5"/><circle cx="331" cy="626" r="5"/><circle cx="460" cy="582" r="4"/><circle cx="537" cy="614" r="6"/><circle cx="636" cy="596" r="6"/><circle cx="682" cy="633" r="5"/><circle cx="792" cy="638" r="5"/><circle cx="813" cy="561" r="6"/><circle cx="954" cy="605" r="5"/><circle cx="991" cy="619" r="5"/><circle cx="1060" cy="563" r="5"/><circle cx="1136" cy="614" r="4"/><circle cx="1258" cy="603" r="5"/><circle cx="1316" cy="595" r="5"/><circle cx="1372" cy="588" r="6"/><circle cx="1502" cy="595" r="6"/><circle cx="1564" cy="593" r="6"/><circle cx="1626" cy="588" r="4"/><circle cx="1697" cy="611" r="4"/><circle cx="1761" cy="564" r="5"/><circle cx="1882" cy="602" r="4"/><circle cx="1946" cy="580" r="6"/><circle cx="2012" cy="582" r="5"/><circle cx="2099" cy="619" r="6"/><circle cx="2193" cy="580" r="6"/><circle cx="2306" cy="622" r="6"/><circle cx="2363" cy="595" r="4"/><circle cx="2478" cy="609" r="4"/><circle cx="2512" cy="618" r="5"/><circle cx="53" cy="709" r="6"/><circle cx="90" cy="675" r="5"/><circle cx="198" cy="679" r="5"/><circle cx="259" cy="706" r="4"/><circle cx="355" cy="654" r="5"/><circle cx="461" cy="678" r="5"/><circle cx="533" cy="684" r="5"/><circle cx="589" cy="674" r="6"/><circle cx="684" cy="660" r="4"/><circle cx="765" cy="662" r="5"/><circle cx="874" cy="643" r="4"/><circle cx="941" cy="668" r="5"/><circle cx="1027" cy="710" r="4"/><circle cx="1058" cy="714" r="4"/><circle cx="1198" cy="672" r="4"/><circle cx="1209" cy="720" r="5"/><circle cx="1311" cy="640" r="5"/><circle cx="1423" cy="653" r="4"/><circle cx="1496" cy="719" r="6"/><circle cx="1523" cy="655" r="6"/><circle cx="1662" cy="682" r="6"/><circle cx="1709" cy="691" r="4"/><circle cx="1780" cy="682" r="5"/><circle cx="1867" cy="653" r="6"/><circle cx="1930" cy="664" r="4"/><circle cx="2006" cy="706" r="6"/><circle cx="2137" cy="663" r="4"/><circle cx="2207" cy="667" r="5"/><circle cx="2287" cy="654" r="6"/><circle cx="2384" cy="685" r="5"/><circle cx="2463" cy="698" r="6"/><circle cx="2507" cy="700" r="5"/><circle cx="44" cy="770" r="4"/><circle cx="133" cy="741" r="5"/><circle cx="196" cy="795" r="6"/><circle cx="275" cy="779" r="5"/><circle cx="333" cy="763" r="4"/><circle cx="452" cy="779" r="5"/><circle cx="492" cy="777" r="5"/><circle cx="580" cy="789" r="6"/><circle cx="706" cy="779" r="4"/><circle cx="792" cy="727" r="6"/><circle cx="870" cy="749" r="6"/><circle cx="903" cy="764" r="5"/><circle cx="1018" cy="752" r="5"/><circle cx="1097" cy="720" r="5"/><circle cx="1173" cy="788" r="6"/><circle cx="1205" cy="743" r="5"/><circle cx="1358" cy="752" r="4"/><circle cx="1434" cy="795" r="5"/><circle cx="1444" cy="742" r="4"/><circle cx="1563" cy="790" r="4"/><circle cx="1621" cy="771" r="5"/><circle cx="1755" cy="721" r="4"/><circle cx="1830" cy="740" r="5"/><circle cx="1889" cy="733" r="6"/><circle cx="1993" cy="785" r="4"/><circle cx="2000" cy="751" r="5"/><circle cx="2095" cy="736" r="6"/><circle cx="2208" cy="791" r="5"/><circle cx="2251" cy="784" r="6"/><circle cx="2397" cy="730" r="5"/><circle cx="2454" cy="760" r="6"/><circle cx="2526" cy="794" r="5"/><circle cx="16" cy="845" r="5"/><circle cx="105" cy="815" r="6"/><circle cx="201" cy="871" r="6"/><circle cx="276" cy="872" r="5"/><circle cx="351" cy="816" r="5"/><circle cx="421" cy="866" r="4"/><circle cx="496" cy="822" r="6"/><circle cx="587" cy="827" r="5"/><circle cx="700" cy="873" r="5"/><circle cx="728" cy="812" r="4"/><circle cx="846" cy="807" r="5"/><circle cx="907" cy="806" r="5"/><circle cx="970" cy="809" r="5"/><circle cx="1081" cy="802" r="4"/><circle cx="1198" cy="860" r="4"/><circle cx="1227" cy="864" r="5"/><circle cx="1352" cy="808" r="4"/><circle cx="1432" cy="811" r="4"/><circle cx="1474" cy="873" r="5"/><circle cx="1589" cy="823" r="5"/><circle cx="1668" cy="867" r="5"/><circle cx="1690" cy="822" r="6"/><circle cx="1794" cy="863" r="4"/><circle cx="1870" cy="805" r="4"/><circle cx="1986" cy="835" r="4"/><circle cx="2009" cy="849" r="4"/><circle cx="2111" cy="814" r="4"/><circle cx="2218" cy="816" r="5"/><circle cx="2252" cy="855" r="4"/><circle cx="2353" cy="832" r="5"/><circle cx="2443" cy="842" r="6"/><circle cx="2558" cy="870" r="5"/><circle cx="-2" cy="870" r="5"/><circle cx="51" cy="904" r="5"/><circle cx="134" cy="947" r="5"/><circle cx="228" cy="938" r="5"/><circle cx="303" cy="934" r="5"/><circle cx="377" cy="941" r="5"/><circle cx="439" cy="934" r="4"/><circle cx="505" cy="889" r="5"/><circle cx="623" cy="907" r="5"/><circle cx="669" cy="956" r="4"/><circle cx="746" cy="938" r="4"/><circle cx="854" cy="937" r="4"/><circle cx="898" cy="927" r="5"/><circle cx="985" cy="949" r="6"/><circle cx="1118" cy="917" r="4"/><circle cx="1176" cy="899" r="4"/><circle cx="1253" cy="937" r="5"/><circle cx="1337" cy="922" r="5"/><circle cx="1392" cy="918" r="5"/><circle cx="1453" cy="918" r="5"/><circle cx="1563" cy="951" r="5"/><circle cx="1604" cy="912" r="4"/><circle cx="1717" cy="906" r="5"/><circle cx="1767" cy="926" r="5"/><circle cx="1920" cy="949" r="5"/><circle cx="1976" cy="950" r="6"/><circle cx="2072" cy="894" r="5"/><circle cx="2083" cy="894" r="5"/><circle cx="2231" cy="880" r="5"/><circle cx="2313" cy="929" r="6"/><circle cx="2357" cy="941" r="6"/><circle cx="2462" cy="907" r="5"/><circle cx="2527" cy="919" r="5"/><circle cx="52" cy="986" r="4"/><circle cx="145" cy="968" r="5"/><circle cx="203" cy="1021" r="4"/><circle cx="272" cy="1035" r="6"/><circle cx="368" cy="1020" r="5"/><circle cx="457" cy="969" r="5"/><circle cx="499" cy="1003" r="6"/><circle cx="566" cy="1021" r="6"/><circle cx="669" cy="981" r="5"/><circle cx="774" cy="997" r="6"/><circle cx="801" cy="1028" r="4"/><circle cx="905" cy="1015" r="6"/><circle cx="973" cy="1019" r="5"/><circle cx="1066" cy="981" r="5"/><circle cx="1168" cy="961" r="5"/><circle cx="1236" cy="1012" r="5"/><circle cx="1336" cy="1007" r="4"/><circle cx="1406" cy="1021" r="5"/><circle cx="1513" cy="1019" r="4"/><circle cx="1523" cy="992" r="6"/><circle cx="1602" cy="1030" r="5"/><circle cx="1740" cy="999" r="4"/><circle cx="1778" cy="983" r="5"/><circle cx="1859" cy="1024" r="5"/><circle cx="1952" cy="971" r="4"/><circle cx="2043" cy="1014" r="5"/><circle cx="2126" cy="993" r="4"/><circle cx="2191" cy="990" r="4"/><circle cx="2253" cy="976" r="6"/><circle cx="2331" cy="1037" r="5"/><circle cx="2468" cy="1032" r="6"/><circle cx="2548" cy="994" r="5"/><circle cx="5" cy="1095" r="5"/><circle cx="2565" cy="1095" r="5"/><circle cx="151" cy="1057" r="5"/><circle cx="207" cy="1076" r="4"/><circle cx="304" cy="1069" r="5"/><circle cx="325" cy="1064" r="6"/><circle cx="431" cy="1117" r="5"/><circle cx="483" cy="1043" r="4"/><circle cx="567" cy="1047" r="4"/><circle cx="662" cy="1076" r="5"/><circle cx="751" cy="1088" r="5"/><circle cx="812" cy="1078" r="5"/><circle cx="892" cy="1062" r="6"/><circle cx="1025" cy="1108" r="6"/><circle cx="1050" cy="1089" r="5"/><circle cx="1173" cy="1118" r="4"/><circle cx="1210" cy="1082" r="5"/><circle cx="1308" cy="1045" r="4"/><circle cx="1435" cy="1079" r="5"/><circle cx="1452" cy="1083" r="4"/><circle cx="1564" cy="1077" r="5"/><circle cx="1679" cy="1072" r="5"/><circle cx="1734" cy="1068" r="6"/><circle cx="1812" cy="1071" r="5"/><circle cx="1858" cy="1094" r="5"/><circle cx="1927" cy="1102" r="6"/><circle cx="2060" cy="1115" r="5"/><circle cx="2140" cy="1071" r="5"/><circle cx="2224" cy="1070" r="5"/><circle cx="2305" cy="1066" r="5"/><circle cx="2326" cy="1046" r="5"/><circle cx="2407" cy="1095" r="5"/><circle cx="2527" cy="1044" r="5"/><circle cx="23" cy="1172" r="5"/><circle cx="97" cy="1172" r="6"/><circle cx="224" cy="1172" r="4"/><circle cx="284" cy="1185" r="5"/><circle cx="341" cy="1171" r="5"/><circle cx="403" cy="1131" r="5"/><circle cx="500" cy="1187" r="6"/><circle cx="575" cy="1176" r="5"/><circle cx="695" cy="1138" r="5"/><circle cx="784" cy="1120" r="5"/><circle cx="810" cy="1162" r="5"/><circle cx="924" cy="1141" r="5"/><circle cx="1009" cy="1145" r="5"/><circle cx="1111" cy="1181" r="5"/><circle cx="1124" cy="1136" r="5"/><circle cx="1207" cy="1187" r="6"/><circle cx="1320" cy="1131" r="6"/><circle cx="1384" cy="1130" r="5"/><circle cx="1440" cy="1135" r="6"/><circle cx="1549" cy="1179" r="6"/><circle cx="1634" cy="1181" r="4"/><circle cx="1687" cy="1154" r="5"/><circle cx="1822" cy="1200" r="5"/><circle cx="1913" cy="1194" r="5"/><circle cx="1989" cy="1181" r="6"/><circle cx="2019" cy="1198" r="4"/><circle cx="2159" cy="1182" r="5"/><circle cx="2236" cy="1197" r="4"/><circle cx="2259" cy="1133" r="5"/><circle cx="2382" cy="1123" r="5"/><circle cx="2406" cy="1142" r="5"/><circle cx="2507" cy="1161" r="6"/><circle cx="42" cy="1266" r="5"/><circle cx="151" cy="1233" r="5"/><circle cx="183" cy="1203" r="5"/><circle cx="300" cy="1209" r="5"/><circle cx="353" cy="1261" r="5"/><circle cx="433" cy="1265" r="5"/><circle cx="511" cy="1240" r="4"/><circle cx="594" cy="1221" r="6"/><circle cx="700" cy="1263" r="4"/><circle cx="774" cy="1200" r="5"/><circle cx="817" cy="1251" r="5"/><circle cx="946" cy="1230" r="5"/><circle cx="1020" cy="1227" r="5"/><circle cx="1076" cy="1228" r="6"/><circle cx="1129" cy="1264" r="5"/><circle cx="1247" cy="1264" r="4"/><circle cx="1350" cy="1219" r="4"/><circle cx="1396" cy="1216" r="4"/><circle cx="1513" cy="1260" r="6"/><circle cx="1561" cy="1243" r="5"/><circle cx="1678" cy="1271" r="4"/><circle cx="1701" cy="1275" r="5"/><circle cx="1811" cy="1215" r="5"/><circle cx="1880" cy="1230" r="6"/><circle cx="1943" cy="1258" r="5"/><circle cx="2024" cy="1216" r="4"/><circle cx="2101" cy="1269" r="6"/><circle cx="2227" cy="1240" r="5"/><circle cx="2307" cy="1268" r="6"/><circle cx="2379" cy="1272" r="4"/><circle cx="2434" cy="1255" r="4"/><circle cx="2484" cy="1225" r="6"/><circle cx="69" cy="1356" r="5"/><circle cx="119" cy="1329" r="5"/><circle cx="193" cy="1347" r="5"/><circle cx="257" cy="1323" r="5"/><circle cx="338" cy="1356" r="5"/><circle cx="455" cy="1294" r="5"/><circle cx="501" cy="1294" r="4"/><circle cx="568" cy="1320" r="5"/><circle cx="662" cy="1359" r="5"/><circle cx="759" cy="1286" r="6"/><circle cx="821" cy="1283" r="5"/><circle cx="914" cy="1352" r="5"/><circle cx="1032" cy="1359" r="6"/><circle cx="1040" cy="1329" r="4"/><circle cx="1153" cy="1330" r="6"/><circle cx="1217" cy="1314" r="4"/><circle cx="1330" cy="1325" r="5"/><circle cx="1376" cy="1287" r="6"/><circle cx="1507" cy="1334" r="6"/><circle cx="1584" cy="1316" r="5"/><circle cx="1632" cy="1294" r="5"/><circle cx="1731" cy="1314" r="5"/><circle cx="1814" cy="1298" r="5"/><circle cx="1874" cy="1331" r="6"/><circle cx="1947" cy="1316" r="6"/><circle cx="2001" cy="1357" r="4"/><circle cx="2099" cy="1321" r="6"/><circle cx="2190" cy="1288" r="5"/><circle cx="2253" cy="1286" r="5"/><circle cx="2367" cy="1307" r="5"/><circle cx="2421" cy="1331" r="6"/><circle cx="2531" cy="1330" r="6"/><circle cx="16" cy="1403" r="4"/><circle cx="156" cy="1416" r="5"/><circle cx="197" cy="1425" r="5"/><circle cx="259" cy="1439" r="5"/><circle cx="259" cy="-1" r="5"/><circle cx="331" cy="1440" r="5"/><circle cx="331" cy="-0" r="5"/><circle cx="429" cy="1394" r="6"/><circle cx="508" cy="1387" r="5"/><circle cx="584" cy="1440" r="5"/><circle cx="584" cy="-0" r="5"/><circle cx="657" cy="1418" r="5"/><circle cx="721" cy="1435" r="4"/><circle cx="851" cy="1433" r="5"/><circle cx="896" cy="1431" r="5"/><circle cx="992" cy="1361" r="6"/><circle cx="1060" cy="1384" r="5"/><circle cx="1166" cy="1401" r="5"/><circle cx="1231" cy="1438" r="5"/><circle cx="1231" cy="-2" r="5"/><circle cx="1304" cy="1423" r="5"/><circle cx="1381" cy="1415" r="5"/><circle cx="1478" cy="1371" r="6"/><circle cx="1586" cy="1405" r="6"/><circle cx="1613" cy="1410" r="5"/><circle cx="1701" cy="1383" r="5"/><circle cx="1765" cy="1381" r="6"/><circle cx="1905" cy="1393" r="5"/><circle cx="1980" cy="1439" r="6"/><circle cx="1980" cy="-1" r="6"/><circle cx="2040" cy="1400" r="4"/><circle cx="2116" cy="1426" r="6"/><circle cx="2228" cy="1380" r="4"/><circle cx="2246" cy="1403" r="5"/><circle cx="2321" cy="1372" r="5"/><circle cx="2469" cy="1405" r="5"/><circle cx="2516" cy="1375" r="5"/><path stroke="#fff" d="M66 70L151 24M66 70L15 92M66 70L105 151M151 24L233 49M151 24L179 130M151 24L156 -24M151 24L197 -15M151 1464L156 1416M151 1464L197 1425M233 49L304 10M233 49L280 84M233 49L197 -15M233 49L259 -1M233 1489L197 1425M233 1489L259 1439M304 10L280 84M304 10L338 -84M304 10L259 -1M304 10L331 -0M304 1450L338 1356M304 1450L259 1439M304 1450L331 1440M394 62L447 52M394 62L321 107M394 62L459 147M394 62L331 -0M394 1502L331 1440M447 52L550 8M447 52L459 147M447 52L429 -46M447 1492L429 1394M550 8L615 78M550 8L508 -53M550 8L584 -0M550 8L657 -22M550 1448L508 1387M550 1448L584 1440M550 1448L657 1418M615 78L691 50M615 78L552 130M615 78L604 154M615 78L584 -0M615 1518L584 1440M691 50L727 71M691 50L700 140M691 50L657 -22M691 50L721 -5M691 1490L657 1418M691 1490L721 1435M727 71L700 140M727 71L798 140M727 71L721 -5M727 1511L721 1435M828 41L911 23M828 41L829 134M828 41L851 -7M828 41L896 -9M828 1481L851 1433M828 1481L896 1431M911 23L975 23M911 23L914 -88M911 23L851 -7M911 23L896 -9M911 1463L914 1352M911 1463L851 1433M911 1463L896 1431M975 23L896 -9M975 23L992 -79M975 1463L896 1431M975 1463L992 1361M1079 77L1173 22M1079 77L1063 129M1079 77L1145 137M1079 77L1077 170M1173 22L1253 17M1173 22L1166 -39M1173 22L1231 -2M1173 1462L1166 1401M1173 1462L1231 1438M1253 17L1328 6M1253 17L1290 98M1253 17L1231 -2M1253 17L1304 -17M1253 1457L1231 1438M1253 1457L1304 1423M1328 6L1290 98M1328 6L1231 -2M1328 6L1304 -17M1328 6L1381 -25M1328 1446L1231 1438M1328 1446L1304 1423M1328 1446L1381 1415M1414 77L1494 15M1414 77L1373 148M1414 77L1457 115M1414 77L1381 -25M1414 1517L1381 1415M1494 15L1583 4M1494 15L1533 89M1494 15L1478 -69M1494 1455L1478 1371M1583 4L1622 43M1583 4L1586 -35M1583 4L1613 -30M1583 1444L1586 1405M1583 1444L1613 1410M1622 43L1699 35M1622 43L1533 89M1622 43L1586 -35M1622 43L1613 -30M1622 1483L1586 1405M1622 1483L1613 1410M1699 35L1701 89M1699 35L1613 -30M1699 35L1701 -57M1699 1475L1613 1410M1699 1475L1701 1383M1815 4L1854 6M1815 4L1824 118M1815 4L1765 -59M1815 4L1905 -47M1815 1444L1765 1381M1815 1444L1905 1393M1854 6L1874 -109M1854 6L1765 -59M1854 6L1905 -47M1854 1446L1874 1331M1854 1446L1765 1381M1854 1446L1905 1393M1931 78L1919 144M1931 78L1930 99M1931 78L2014 88M1931 78L1980 -1M1931 1518L1980 1439M2074 30L2147 71M2074 30L2014 88M2074 30L2040 -40M2074 30L2116 -14M2074 1470L2040 1400M2074 1470L2116 1426M2147 71L2165 65M2147 71L2257 65M2147 71L2084 145M2147 71L2116 -14M2147 1511L2116 1426M2165 65L2257 65M2165 65L2191 175M2165 65L2116 -14M2165 1505L2116 1426M2257 65L2239 158M2257 65L2312 110M2257 65L2246 -37M2257 1505L2246 1403M2390 23L2408 21M2390 23L2398 113M2390 23L2321 -68M2390 23L2469 -35M2390 1463L2321 1372M2390 1463L2469 1405M2408 21L2507 60M2408 21L2398 113M2408 21L2469 -35M2408 1461L2469 1405M2507 60L2575 92M2507 60L2496 117M-53 60L15 92M15 92L-64 117M15 92L28 183M2575 92L2496 117M105 151L179 130M105 151L28 183M105 151L85 221M105 151L188 165M179 130L280 84M179 130L188 165M179 130L259 186M280 84L321 107M280 84L259 -1M280 1524L259 1439M321 107L259 186M459 147L552 130M459 147L425 203M459 147L494 191M552 130L604 154M552 130L494 191M604 154L700 140M604 154L567 230M604 154L680 212M700 140L798 140M700 140L680 212M798 140L829 134M798 140L750 232M798 140L865 167M829 134L914 153M829 134L865 167M914 153L987 126M914 153L865 167M914 153L940 183M914 153L900 255M987 126L1063 129M987 126L940 183M987 126L1015 229M987 126L1077 170M1063 129L1145 137M1063 129L1077 170M1145 137L1216 142M1145 137L1077 170M1216 142L1290 98M1216 142L1169 238M1216 142L1224 209M1290 98L1373 148M1373 148L1457 115M1373 148L1320 206M1373 148L1401 211M1457 115L1533 89M1457 115L1401 211M1457 115L1467 229M1533 89L1606 142M1533 89L1575 186M1606 142L1701 89M1606 142L1575 186M1606 142L1662 235M1824 118L1808 162M1824 118L1864 187M1919 144L1930 99M1919 144L1808 162M1919 144L1864 187M1919 144L1955 227M1930 99L2014 88M2014 88L2018 172M2014 88L1980 -1M2014 1528L1980 1439M2084 145L2018 172M2084 145L2127 193M2239 158L2312 110M2239 158L2191 175M2239 158L2287 167M2239 158L2335 166M2312 110L2398 113M2312 110L2287 167M2312 110L2335 166M2398 113L2426 151M2398 113L2335 166M2426 151L2496 117M2426 151L2335 166M2426 151L2460 218M2426 151L2427 256M2496 117L2460 218M2496 117L2505 214M28 183L85 221M28 183L-55 214M28 183L29 274M2588 183L2505 214M85 221L29 274M85 221L138 284M188 165L259 186M259 186L344 239M344 239L425 203M344 239L343 295M344 239L442 273M425 203L494 191M425 203L442 273M494 191L567 230M494 191L537 249M567 230L537 249M567 230L569 296M680 212L750 232M680 212L661 264M680 212L722 283M750 232L661 264M750 232L722 283M750 232L864 268M865 167L940 183M865 167L864 268M940 183L1015 229M940 183L900 255M1015 229L1077 170M1015 229L989 315M1015 229L1079 290M1169 238L1224 209M1169 238L1079 290M1169 238L1154 292M1169 238L1232 293M1224 209L1320 206M1224 209L1232 293M1224 209L1288 241M1320 206L1401 211M1320 206L1288 241M1320 206L1361 284M1401 211L1467 229M1401 211L1361 284M1467 229L1442 317M1467 229L1539 275M1575 186L1662 235M1575 186L1539 275M1575 186L1675 250M1662 235L1741 206M1662 235L1675 250M1662 235L1712 293M1741 206L1808 162M1741 206L1675 250M1741 206L1712 293M1741 206L1839 242M1808 162L1864 187M1808 162L1839 242M1864 187L1839 242M1864 187L1870 267M1955 227L2018 172M1955 227L1870 267M1955 227L1991 257M2018 172L1991 257M2018 172L2053 273M2127 193L2191 175M2127 193L2053 273M2127 193L2099 303M2127 193L2174 243M2191 175L2287 167M2191 175L2174 243M2287 167L2335 166M2287 167L2278 260M2460 218L2505 214M2460 218L2427 256M2460 218L2517 279M2505 214L2427 256M2505 214L2517 279M29 274L-43 279M29 274L19 343M29 274L-16 362M2589 274L2517 279M2589 274L2544 362M138 284L171 294M171 294L254 310M171 294L154 388M171 294L203 375M254 310L343 295M254 310L203 375M254 310L261 372M343 295L363 359M343 295L404 379M442 273L537 249M537 249L569 296M569 296L661 264M569 296L534 365M569 296L628 329M661 264L722 283M661 264L628 329M722 283L628 329M722 283L715 352M864 268L900 255M864 268L845 340M900 255L989 315M900 255L845 340M989 315L1079 290M989 315L948 366M989 315L989 363M1079 290L1154 292M1079 290L1109 352M1154 292L1232 293M1154 292L1109 352M1154 292L1168 391M1232 293L1288 241M1232 293L1318 334M1288 241L1361 284M1288 241L1318 334M1361 284L1442 317M1361 284L1318 334M1442 317L1539 275M1442 317L1439 376M1442 317L1515 380M1539 275L1581 380M1675 250L1712 293M1712 293L1693 364M1712 293L1783 357M1839 242L1870 267M1870 267L1852 356M1870 267L1926 342M1991 257L2053 273M1991 257L1926 342M2053 273L2099 303M2053 273L2097 360M2099 303L2174 243M2099 303L2097 360M2174 243L2278 260M2378 297L2427 256M2378 297L2393 364M2427 256L2517 279M2517 279L2579 343M-43 279L19 343M19 343L-16 362M19 343L38 403M2579 343L2544 362M154 388L203 375M154 388L261 372M154 388L137 468M154 388L179 407M203 375L261 372M203 375L179 407M261 372L179 407M261 372L358 403M363 359L404 379M363 359L317 475M363 359L358 403M363 359L432 408M404 379L358 403M404 379L432 408M404 379L494 425M534 365L432 408M534 365L494 425M534 365L607 406M628 329L715 352M628 329L607 406M715 352L748 400M715 352L607 406M715 352L682 417M748 400L845 340M748 400L682 417M748 400L797 443M845 340L948 366M948 366L989 363M948 366L920 464M948 366L968 462M1109 352L1168 391M1109 352L1210 382M1109 352L1117 447M1168 391L1210 382M1168 391L1117 447M1168 391L1168 478M1210 382L1216 471M1318 334L1359 408M1439 376L1515 380M1439 376L1359 408M1439 376L1429 464M1515 380L1581 380M1515 380L1461 464M1515 380L1549 463M1581 380L1672 381M1581 380L1549 463M1581 380L1655 474M1672 381L1693 364M1672 381L1655 474M1672 381L1756 419M1693 364L1783 357M1693 364L1756 419M1783 357L1852 356M1783 357L1756 419M1783 357L1844 416M1852 356L1926 342M1852 356L1832 462M1852 356L1844 416M1926 342L1962 434M2028 392L2097 360M2028 392L1962 434M2028 392L2039 450M2028 392L2110 439M2097 360L2110 439M2220 370L2302 374M2220 370L2238 434M2302 374L2393 364M2302 374L2238 434M2302 374L2263 474M2302 374L2364 405M2393 364L2457 394M2393 364L2364 405M2393 364L2414 402M2457 394L2544 362M2457 394L2364 405M2457 394L2414 402M2457 394L2498 452M2544 362L2598 403M2544 362L2498 452M-16 362L38 403M38 403L8 481M137 468L179 407M137 468L111 550M137 468L194 487M137 468L250 492M179 407L194 487M317 475L358 403M317 475L250 492M317 475L341 547M358 403L432 408M432 408L494 425M494 425L474 534M494 425L491 510M607 406L682 417M607 406L571 503M682 417L657 521M797 443L872 451M797 443L786 531M872 451L920 464M872 451L968 462M872 451L867 532M920 464L968 462M920 464L867 532M920 464L941 509M968 462L941 509M968 462L1032 506M1117 447L1168 478M1117 447L1112 523M1117 447L1142 530M1168 478L1216 471M1168 478L1112 523M1168 478L1142 530M1216 471L1260 554M1359 408L1429 464M1359 408L1325 512M1429 464L1461 464M1429 464L1381 532M1461 464L1549 463M1461 464L1488 550M1461 464L1529 500M1549 463L1529 500M1549 463L1610 504M1655 474L1610 504M1655 474L1702 553M1756 419L1832 462M1756 419L1844 416M1832 462L1844 416M1832 462L1827 505M1832 462L1887 500M1844 416L1827 505M1962 434L1980 480M1962 434L2037 482M2039 450L2110 439M2039 450L1980 480M2039 450L2037 482M2039 450L2085 505M2110 439L2037 482M2110 439L2085 505M2238 434L2263 474M2238 434L2179 520M2263 474L2179 520M2263 474L2293 527M2364 405L2414 402M2364 405L2387 496M2414 402L2387 496M2414 402L2422 496M2498 452L2568 481M2498 452L2422 496M2498 452L2534 550M-62 452L8 481M8 481L-26 550M2568 481L2534 550M111 550L194 487M111 550L127 586M111 550L204 574M194 487L250 492M194 487L204 574M250 492L341 547M250 492L204 574M341 547L288 615M341 547L331 626M341 547L355 654M474 534L491 510M474 534L571 503M474 534L460 582M474 534L537 614M491 510L571 503M491 510L460 582M571 503L657 521M657 521L636 596M786 531L867 532M786 531L792 638M786 531L813 561M867 532L941 509M867 532L813 561M941 509L1032 506M941 509L954 605M1032 506L1112 523M1032 506L1060 563M1112 523L1142 530M1112 523L1060 563M1142 530L1060 563M1142 530L1136 614M1260 554L1325 512M1260 554L1258 603M1260 554L1316 595M1260 554L1311 640M1325 512L1381 532M1325 512L1316 595M1325 512L1372 588M1381 532L1372 588M1488 550L1529 500M1488 550L1502 595M1488 550L1564 593M1488 550L1523 655M1529 500L1610 504M1529 500L1502 595M1610 504L1564 593M1610 504L1626 588M1702 553L1626 588M1702 553L1697 611M1702 553L1761 564M1827 505L1887 500M1827 505L1761 564M1827 505L1882 602M1887 500L1980 480M1887 500L1882 602M1887 500L1946 580M1980 480L2037 482M2037 482L2085 505M2085 505L2179 520M2085 505L2012 582M2179 520L2193 580M2293 527L2387 496M2293 527L2306 622M2293 527L2363 595M2387 496L2422 496M2387 496L2363 595M2534 550L2587 620M2534 550L2478 609M2534 550L2512 618M-26 550L27 620M27 620L-48 618M27 620L53 709M27 620L90 675M2587 620L2512 618M127 586L204 574M127 586L90 675M204 574L288 615M288 615L331 626M288 615L259 706M288 615L355 654M331 626L355 654M460 582L537 614M460 582L461 678M537 614L636 596M537 614L533 684M537 614L589 674M636 596L682 633M636 596L589 674M636 596L684 660M682 633L589 674M682 633L684 660M682 633L765 662M792 638L813 561M792 638L765 662M792 638L874 643M792 638L792 727M813 561L765 662M813 561L874 643M954 605L991 619M954 605L874 643M954 605L941 668M991 619L1060 563M991 619L941 668M991 619L1027 710M991 619L1058 714M1060 563L1136 614M1136 614L1198 672M1258 603L1316 595M1258 603L1198 672M1258 603L1311 640M1316 595L1372 588M1316 595L1311 640M1372 588L1311 640M1372 588L1423 653M1502 595L1564 593M1502 595L1423 653M1502 595L1523 655M1564 593L1626 588M1564 593L1523 655M1626 588L1697 611M1626 588L1662 682M1697 611L1761 564M1697 611L1662 682M1697 611L1709 691M1882 602L1946 580M1882 602L1867 653M1882 602L1930 664M1946 580L2012 582M1946 580L1930 664M2012 582L2099 619M2099 619L2193 580M2099 619L2137 663M2099 619L2207 667M2099 619L2095 736M2193 580L2137 663M2193 580L2207 667M2306 622L2363 595M2306 622L2207 667M2306 622L2287 654M2306 622L2384 685M2363 595L2287 654M2478 609L2512 618M2512 618L2463 698M2512 618L2507 700M53 709L90 675M53 709L-53 700M53 709L44 770M53 709L133 741M2613 709L2507 700M90 675L198 679M90 675L133 741M198 679L259 706M198 679L133 741M259 706L275 779M259 706L333 763M355 654L461 678M355 654L333 763M461 678L533 684M461 678L452 779M461 678L492 777M533 684L589 674M533 684L580 789M589 674L684 660M684 660L765 662M765 662L792 727M874 643L941 668M941 668L1027 710M941 668L870 749M1027 710L1058 714M1027 710L1018 752M1027 710L1097 720M1058 714L1018 752M1058 714L1097 720M1058 714L1081 802M1198 672L1209 720M1198 672L1205 743M1209 720L1173 788M1209 720L1205 743M1423 653L1496 719M1423 653L1523 655M1423 653L1444 742M1496 719L1523 655M1496 719L1434 795M1496 719L1444 742M1496 719L1563 790M1662 682L1709 691M1662 682L1621 771M1662 682L1755 721M1709 691L1780 682M1709 691L1755 721M1780 682L1867 653M1780 682L1755 721M1780 682L1830 740M1867 653L1930 664M1867 653L1830 740M1867 653L1889 733M1930 664L2006 706M1930 664L1889 733M2006 706L1889 733M2006 706L1993 785M2006 706L2000 751M2006 706L2095 736M2137 663L2207 667M2137 663L2095 736M2207 667L2287 654M2287 654L2384 685M2384 685L2463 698M2384 685L2397 730M2463 698L2507 700M2463 698L2397 730M2463 698L2454 760M2507 700L2454 760M44 770L-34 794M44 770L16 845M44 770L105 815M2604 770L2526 794M133 741L196 795M133 741L105 815M196 795L275 779M196 795L105 815M196 795L201 871M275 779L333 763M275 779L276 872M275 779L351 816M333 763L351 816M452 779L492 777M452 779L351 816M452 779L496 822M492 777L580 789M492 777L496 822M492 777L587 827M580 789L496 822M580 789L587 827M706 779L792 727M706 779L700 873M706 779L728 812M792 727L870 749M792 727L846 807M870 749L903 764M870 749L846 807M870 749L907 806M903 764L846 807M903 764L907 806M903 764L970 809M1018 752L1097 720M1018 752L970 809M1018 752L1081 802M1097 720L1081 802M1173 788L1205 743M1173 788L1081 802M1173 788L1198 860M1173 788L1227 864M1358 752L1444 742M1358 752L1352 808M1358 752L1432 811M1434 795L1444 742M1434 795L1352 808M1434 795L1432 811M1434 795L1474 873M1444 742L1432 811M1563 790L1621 771M1563 790L1589 823M1621 771L1589 823M1621 771L1668 867M1621 771L1690 822M1755 721L1830 740M1830 740L1889 733M1830 740L1870 805M1889 733L1870 805M1993 785L2000 751M1993 785L1986 835M1993 785L2009 849M2000 751L2095 736M2000 751L1986 835M2000 751L2009 849M2095 736L2111 814M2208 791L2251 784M2208 791L2111 814M2208 791L2218 816M2208 791L2252 855M2251 784L2218 816M2251 784L2252 855M2251 784L2353 832M2251 784L2231 880M2397 730L2454 760M2397 730L2353 832M2454 760L2526 794M2454 760L2443 842M2526 794L2576 845M2526 794L2443 842M2526 794L2558 870M-34 794L16 845M16 845L-2 870M16 845L51 904M16 845L-33 919M2576 845L2558 870M2576 845L2527 919M105 815L201 871M201 871L276 872M201 871L134 947M201 871L228 938M276 872L351 816M276 872L228 938M276 872L303 934M351 816L421 866M421 866L377 941M421 866L439 934M421 866L505 889M496 822L587 827M496 822L505 889M587 827L505 889M587 827L623 907M700 873L728 812M700 873L623 907M700 873L669 956M700 873L746 938M728 812L846 807M846 807L907 806M907 806L970 809M907 806L898 927M970 809L1081 802M1198 860L1227 864M1198 860L1176 899M1227 864L1176 899M1227 864L1253 937M1352 808L1432 811M1432 811L1474 873M1474 873L1392 918M1474 873L1453 918M1589 823L1668 867M1589 823L1690 822M1589 823L1604 912M1668 867L1690 822M1668 867L1604 912M1668 867L1717 906M1690 822L1794 863M1690 822L1717 906M1794 863L1870 805M1794 863L1717 906M1794 863L1767 926M1986 835L2009 849M1986 835L2072 894M2009 849L2072 894M2009 849L2083 894M2111 814L2218 816M2111 814L2072 894M2111 814L2083 894M2218 816L2252 855M2218 816L2231 880M2252 855L2231 880M2252 855L2313 929M2353 832L2443 842M2353 832L2313 929M2353 832L2357 941M2443 842L2462 907M2558 870L2611 904M2558 870L2462 907M2558 870L2527 919M-2 870L51 904M51 904L134 947M51 904L-33 919M51 904L52 986M2611 904L2527 919M134 947L228 938M134 947L52 986M134 947L145 968M228 938L303 934M228 938L145 968M303 934L377 941M377 941L439 934M377 941L368 1020M377 941L457 969M439 934L505 889M439 934L457 969M439 934L499 1003M505 889L457 969M623 907L669 956M623 907L669 981M669 956L746 938M669 956L669 981M746 938L669 981M746 938L774 997M854 937L898 927M854 937L905 1015M898 927L985 949M898 927L905 1015M985 949L905 1015M985 949L973 1019M985 949L1066 981M1118 917L1176 899M1118 917L1066 981M1118 917L1168 961M1176 899L1253 937M1176 899L1168 961M1253 937L1337 922M1253 937L1168 961M1253 937L1236 1012M1337 922L1392 918M1337 922L1453 918M1337 922L1336 1007M1392 918L1453 918M1392 918L1336 1007M1392 918L1406 1021M1453 918L1523 992M1563 951L1604 912M1563 951L1513 1019M1563 951L1523 992M1563 951L1602 1030M1717 906L1767 926M1767 926L1740 999M1767 926L1778 983M1920 949L1976 950M1920 949L1859 1024M1920 949L1952 971M1976 950L2072 894M1976 950L2083 894M1976 950L1952 971M1976 950L2043 1014M2072 894L2083 894M2083 894L2126 993M2231 880L2313 929M2231 880L2253 976M2313 929L2357 941M2313 929L2253 976M2357 941L2462 907M2357 941L2331 1037M2462 907L2527 919M2527 919L2548 994M52 986L145 968M52 986L-12 994M52 986L-33 1044M2612 986L2548 994M2612 986L2527 1044M145 968L203 1021M145 968L151 1057M203 1021L272 1035M203 1021L151 1057M203 1021L207 1076M272 1035L368 1020M272 1035L207 1076M272 1035L304 1069M272 1035L325 1064M368 1020L304 1069M368 1020L325 1064M457 969L499 1003M457 969L483 1043M499 1003L566 1021M499 1003L483 1043M499 1003L567 1047M566 1021L483 1043M566 1021L567 1047M566 1021L662 1076M669 981L774 997M669 981L662 1076M774 997L801 1028M774 997L751 1088M774 997L812 1078M801 1028L751 1088M801 1028L812 1078M801 1028L892 1062M905 1015L973 1019M905 1015L892 1062M973 1019L892 1062M973 1019L1025 1108M973 1019L1050 1089M1066 981L1168 961M1168 961L1236 1012M1236 1012L1336 1007M1236 1012L1210 1082M1236 1012L1308 1045M1336 1007L1406 1021M1336 1007L1308 1045M1406 1021L1435 1079M1406 1021L1452 1083M1513 1019L1523 992M1513 1019L1602 1030M1513 1019L1435 1079M1513 1019L1564 1077M1523 992L1602 1030M1523 992L1564 1077M1602 1030L1564 1077M1602 1030L1679 1072M1740 999L1778 983M1740 999L1679 1072M1740 999L1734 1068M1778 983L1859 1024M1778 983L1734 1068M1778 983L1812 1071M1859 1024L1812 1071M1859 1024L1858 1094M1859 1024L1927 1102M1952 971L2043 1014M2043 1014L2126 993M2043 1014L2060 1115M2043 1014L2140 1071M2126 993L2191 990M2126 993L2140 1071M2191 990L2253 976M2191 990L2140 1071M2191 990L2224 1070M2253 976L2331 1037M2253 976L2224 1070M2331 1037L2305 1066M2331 1037L2326 1046M2331 1037L2407 1095M2468 1032L2548 994M2468 1032L2565 1095M2468 1032L2407 1095M2468 1032L2527 1044M2468 1032L2406 1142M-92 1032L5 1095M2548 994L2565 1095M2548 994L2527 1044M-12 994L5 1095M5 1095L-33 1044M5 1095L23 1172M5 1095L-53 1161M2565 1095L2527 1044M2565 1095L2507 1161M151 1057L207 1076M151 1057L97 1172M207 1076L304 1069M207 1076L224 1172M304 1069L325 1064M325 1064L341 1171M325 1064L403 1131M431 1117L483 1043M431 1117L403 1131M431 1117L500 1187M483 1043L567 1047M567 1047L662 1076M662 1076L695 1138M751 1088L812 1078M751 1088L695 1138M751 1088L784 1120M812 1078L892 1062M812 1078L784 1120M892 1062L924 1141M1025 1108L1050 1089M1025 1108L1009 1145M1025 1108L1124 1136M1050 1089L1009 1145M1050 1089L1124 1136M1173 1118L1210 1082M1173 1118L1111 1181M1173 1118L1124 1136M1173 1118L1207 1187M1210 1082L1320 1131M1308 1045L1320 1131M1435 1079L1452 1083M1435 1079L1384 1130M1435 1079L1440 1135M1452 1083L1384 1130M1452 1083L1440 1135M1564 1077L1679 1072M1564 1077L1549 1179M1679 1072L1734 1068M1679 1072L1687 1154M1734 1068L1812 1071M1734 1068L1687 1154M1812 1071L1858 1094M1812 1071L1927 1102M1858 1094L1927 1102M1858 1094L1822 1200M1927 1102L1913 1194M1927 1102L1989 1181M2060 1115L2140 1071M2060 1115L2019 1198M2060 1115L2024 1216M2140 1071L2224 1070M2224 1070L2305 1066M2224 1070L2259 1133M2305 1066L2326 1046M2305 1066L2259 1133M2305 1066L2382 1123M2326 1046L2407 1095M2326 1046L2259 1133M2326 1046L2382 1123M2407 1095L2382 1123M2407 1095L2406 1142M2527 1044L2507 1161M23 1172L97 1172M23 1172L-53 1161M23 1172L42 1266M23 1172L-76 1225M2583 1172L2507 1161M2583 1172L2484 1225M97 1172L42 1266M97 1172L151 1233M97 1172L183 1203M224 1172L284 1185M224 1172L151 1233M224 1172L183 1203M224 1172L300 1209M284 1185L341 1171M284 1185L183 1203M284 1185L300 1209M284 1185L353 1261M341 1171L403 1131M341 1171L300 1209M341 1171L353 1261M500 1187L575 1176M500 1187L433 1265M500 1187L511 1240M500 1187L594 1221M575 1176L594 1221M695 1138L784 1120M695 1138L810 1162M784 1120L810 1162M784 1120L774 1200M810 1162L924 1141M810 1162L774 1200M810 1162L817 1251M924 1141L1009 1145M924 1141L946 1230M1009 1145L1020 1227M1009 1145L1076 1228M1111 1181L1124 1136M1111 1181L1207 1187M1111 1181L1076 1228M1111 1181L1129 1264M1124 1136L1207 1187M1207 1187L1129 1264M1207 1187L1247 1264M1320 1131L1384 1130M1320 1131L1350 1219M1384 1130L1440 1135M1384 1130L1396 1216M1440 1135L1549 1179M1440 1135L1396 1216M1549 1179L1634 1181M1549 1179L1513 1260M1549 1179L1561 1243M1634 1181L1687 1154M1634 1181L1678 1271M1822 1200L1913 1194M1822 1200L1811 1215M1822 1200L1880 1230M1913 1194L1989 1181M1913 1194L1880 1230M1913 1194L1943 1258M1989 1181L2019 1198M1989 1181L1943 1258M1989 1181L2024 1216M2019 1198L2024 1216M2019 1198L2101 1269M2159 1182L2236 1197M2159 1182L2259 1133M2159 1182L2101 1269M2159 1182L2227 1240M2159 1182L2190 1288M2236 1197L2259 1133M2236 1197L2227 1240M2236 1197L2253 1286M2382 1123L2406 1142M2406 1142L2507 1161M2406 1142L2484 1225M2507 1161L2484 1225M42 1266L69 1356M42 1266L119 1329M42 1266L-29 1330M2602 1266L2531 1330M151 1233L183 1203M151 1233L119 1329M183 1203L300 1209M300 1209L353 1261M353 1261L433 1265M353 1261L338 1356M433 1265L511 1240M433 1265L455 1294M433 1265L501 1294M511 1240L594 1221M511 1240L455 1294M511 1240L501 1294M594 1221L700 1263M594 1221L568 1320M700 1263L662 1359M700 1263L759 1286M774 1200L817 1251M774 1200L759 1286M774 1200L821 1283M817 1251L759 1286M817 1251L821 1283M946 1230L1020 1227M1020 1227L1076 1228M1020 1227L1040 1329M1076 1228L1129 1264M1076 1228L1040 1329M1129 1264L1153 1330M1129 1264L1217 1314M1247 1264L1350 1219M1247 1264L1217 1314M1247 1264L1330 1325M1350 1219L1396 1216M1350 1219L1330 1325M1350 1219L1376 1287M1396 1216L1376 1287M1513 1260L1561 1243M1513 1260L1507 1334M1513 1260L1584 1316M1513 1260L1478 1371M1561 1243L1507 1334M1561 1243L1584 1316M1561 1243L1632 1294M1678 1271L1701 1275M1678 1271L1632 1294M1678 1271L1731 1314M1701 1275L1632 1294M1701 1275L1731 1314M1701 1275L1701 1383M1811 1215L1880 1230M1811 1215L1814 1298M1880 1230L1943 1258M1880 1230L1814 1298M1943 1258L1874 1331M1943 1258L1947 1316M2024 1216L2101 1269M2101 1269L2099 1321M2101 1269L2190 1288M2227 1240L2307 1268M2227 1240L2190 1288M2227 1240L2253 1286M2307 1268L2379 1272M2307 1268L2253 1286M2307 1268L2367 1307M2307 1268L2321 1372M2379 1272L2434 1255M2379 1272L2367 1307M2379 1272L2421 1331M2434 1255L2484 1225M2434 1255L2367 1307M2434 1255L2421 1331M69 1356L119 1329M69 1356L16 1403M119 1329L193 1347M119 1329L156 1416M193 1347L257 1323M193 1347L156 1416M193 1347L197 1425M257 1323L338 1356M338 1356L331 1440M338 1356L429 1394M455 1294L501 1294M455 1294L429 1394M501 1294L568 1320M501 1294L508 1387M568 1320L662 1359M568 1320L508 1387M662 1359L584 1440M662 1359L657 1418M662 1359L721 1435M759 1286L821 1283M914 1352L1032 1359M914 1352L851 1433M914 1352L896 1431M914 1352L992 1361M1032 1359L1040 1329M1032 1359L1153 1330M1032 1359L992 1361M1032 1359L1060 1384M1040 1329L992 1361M1040 1329L1060 1384M1153 1330L1217 1314M1153 1330L1060 1384M1153 1330L1166 1401M1217 1314L1166 1401M1330 1325L1376 1287M1330 1325L1304 1423M1330 1325L1381 1415M1507 1334L1584 1316M1507 1334L1478 1371M1507 1334L1586 1405M1584 1316L1632 1294M1584 1316L1586 1405M1731 1314L1814 1298M1731 1314L1701 1383M1731 1314L1765 1381M1814 1298L1874 1331M1814 1298L1765 1381M1874 1331L1947 1316M1874 1331L1905 1393M1947 1316L2001 1357M1947 1316L1905 1393M2001 1357L2099 1321M2001 1357L1980 1439M2001 1357L2040 1400M2099 1321L2190 1288M2099 1321L2040 1400M2099 1321L2116 1426M2190 1288L2253 1286M2253 1286L2228 1380M2367 1307L2421 1331M2367 1307L2321 1372M2421 1331L2531 1330M2421 1331L2469 1405M2531 1330L2576 1403M2531 1330L2469 1405M2531 1330L2516 1375M-29 1330L16 1403M16 1403L-44 1375M2576 1403L2516 1375M156 1416L197 1425M197 1425L259 1439M259 1439L331 1440M331 1440L429 1394M429 1394L508 1387M508 1387L584 1440M584 1440L657 1418M657 1418L721 1435M851 1433L896 1431M992 1361L1060 1384M1060 1384L1166 1401M1166 1401L1231 1438M1231 1438L1304 1423M1304 1423L1381 1415M1381 1415L1478 1371M1586 1405L1613 1410M1613 1410L1701 1383M1701 1383L1765 1381M1905 1393L1980 1439M1980 1439L2040 1400M2040 1400L2116 1426M2228 1380L2246 1403M2228 1380L2321 1372M2246 1403L2321 1372M2469 1405L2516 1375"/></svg>