<svg xmlns="http://www.w3.org/2000/svg" width="2560" height="1440" fill="#fff"><circle cx="36" cy="80" r="4"/><circle cx="120" cy="61" r="4"/><circle cx="228" cy="75" r="4"/><circle cx="280" cy="67" r="4"/><circle cx="381" cy="12" r="4"/><circle cx="435" cy="33" r="5"/><circle cx="550" cy="62" r="6"/><circle cx="569" cy="75" r="6"/><circle cx="704" cy="21" r="6"/><circle cx="760" cy="36" r="4"/><circle cx="842" cy="51" r="4"/><circle cx="957" cy="63" r="5"/><circle cx="979" cy="49" r="5"/><circle cx="1062" cy="56" r="5"/><circle cx="1141" cy="22" r="6"/><circle cx="1232" cy="48" r="4"/><circle cx="1309" cy="69" r="4"/><circle cx="1384" cy="51" r="6"/><circle cx="1472" cy="76" r="6"/><circle cx="1595" cy="42" r="6"/><circle cx="1666" cy="3" r="5"/><circle cx="1666" cy="1443" r="5"/><circle cx="1715" cy="57" r="5"/><circle cx="1836" cy="45" r="5"/><circle cx="1887" cy="64" r="5"/><circle cx="1923" cy="59" r="5"/><circle cx="2075" cy="40" r="6"/><circle cx="2146" cy="30" r="5"/><circle cx="2167" cy="25" r="4"/><circle cx="2251" cy="39" r="5"/><circle cx="2344" cy="37" r="5"/><circle cx="2468" cy="50" r="4"/><circle cx="2533" cy="33" r="5"/><circle cx="45" cy="123" r="4"/><circle cx="80" cy="139" r="5"/><circle cx="207" cy="86" r="5"/><circle cx="260" cy="119" r="6"/><circle cx="381" cy="120" r="4"/><circle cx="407" cy="132" r="4"/><circle cx="549" cy="83" r="4"/><circle cx="634" cy="123" r="6"/><circle cx="685" cy="124" r="5"/><circle cx="777" cy="82" r="5"/><circle cx="800" cy="133" r="5"/><circle cx="942" cy="148" r="4"/><circle cx="985" cy="125" r="5"/><circle cx="1045" cy="96" r="5"/><circle cx="1163" cy="157" r="5"/><circle cx="1225" cy="126" r="4"/><circle cx="1306" cy="83" r="4"/><circle cx="1382" cy="88" r="6"/><circle cx="1449" cy="122" r="6"/><circle cx="1580" cy="103" r="4"/><circle cx="1647" cy="101" r="5"/><circle cx="1699" cy="82" r="5"/><circle cx="1765" cy="146" r="4"/><circle cx="1850" cy="145" r="5"/><circle cx="1948" cy="144" r="5"/><circle cx="2051" cy="123" r="4"/><circle cx="2087" cy="153" r="5"/><circle cx="2175" cy="146" r="4"/><circle cx="2251" cy="92" r="5"/><circle cx="2374" cy="125" r="4"/><circle cx="2439" cy="132" r="5"/><circle cx="2554" cy="97" r="5"/><circle cx="48" cy="211" r="6"/><circle cx="159" cy="221" r="5"/><circle cx="223" cy="165" r="5"/><circle cx="288" cy="229" r="4"/><circle cx="363" cy="228" r="5"/><circle cx="426" cy="167" r="6"/><circle cx="536" cy="239" r="4"/><circle cx="575" cy="191" r="5"/><circle cx="645" cy="173" r="6"/><circle cx="734" cy="219" r="4"/><circle cx="844" cy="203" r="4"/><circle cx="903" cy="195" r="5"/><circle cx="996" cy="185" r="5"/><circle cx="1116" cy="193" r="5"/><circle cx="1198" cy="181" r="6"/><circle cx="1240" cy="168" r="4"/><circle cx="1305" cy="202" r="5"/><circle cx="1416" cy="223" r="4"/><circle cx="1493" cy="174" r="4"/><circle cx="1567" cy="185" r="5"/><circle cx="1647" cy="173" r="6"/><circle cx="1714" cy="170" r="5"/><circle cx="1791" cy="240" r="4"/><circle cx="1920" cy="200" r="5"/><circle cx="1943" cy="234" r="6"/><circle cx="2045" cy="191" r="4"/><circle cx="2112" cy="168" r="4"/><circle cx="2197" cy="187" r="5"/><circle cx="2258" cy="168" r="4"/><circle cx="2327" cy="238" r="6"/><circle cx="2471" cy="172" r="5"/><circle cx="2493" cy="238" r="5"/><circle cx="9" cy="283" r="6"/><circle cx="145" cy="291" r="5"/><circle cx="172" cy="255" r="5"/><circle cx="290" cy="248" r="5"/><circle cx="370" cy="313" r="4"/><circle cx="471" cy="300" r="5"/><circle cx="534" cy="247" r="5"/><circle cx="578" cy="316" r="6"/><circle cx="674" cy="282" r="5"/><circle cx="754" cy="241" r="5"/><circle cx="851" cy="314" r="6"/><circle cx="949" cy="261" r="4"/><circle cx="994" cy="314" r="6"/><circle cx="1079" cy="266" r="5"/><circle cx="1194" cy="278" r="6"/><circle cx="1223" cy="247" r="5"/><circle cx="1295" cy="277" r="5"/><circle cx="1365" cy="311" r="5"/><circle cx="1480" cy="302" r="5"/><circle cx="1532" cy="242" r="5"/><circle cx="1605" cy="290" r="6"/><circle cx="1719" cy="279" r="5"/><circle cx="1789" cy="302" r="5"/><circle cx="1918" cy="292" r="6"/><circle cx="1925" cy="296" r="6"/><circle cx="2026" cy="311" r="5"/><circle cx="2121" cy="244" r="5"/><circle cx="2232" cy="285" r="6"/><circle cx="2295" cy="299" r="6"/><circle cx="2397" cy="311" r="4"/><circle cx="2413" cy="295" r="6"/><circle cx="2557" cy="316" r="6"/><circle cx="-3" cy="316" r="6"/><circle cx="72" cy="329" r="5"/><circle cx="151" cy="389" r="6"/><circle cx="233" cy="390" r="6"/><circle cx="260" cy="326" r="5"/><circle cx="392" cy="334" r="4"/><circle cx="412" cy="339" r="5"/><circle cx="503" cy="383" r="5"/><circle cx="621" cy="360" r="6"/><circle cx="706" cy="395" r="5"/><circle cx="759" cy="341" r="5"/><circle cx="841" cy="343" r="5"/><circle cx="885" cy="324" r="5"/><circle cx="967" cy="352" r="4"/><circle cx="1042" cy="350" r="5"/><circle cx="1132" cy="392" r="5"/><circle cx="1279" cy="350" r="5"/><circle cx="1294" cy="323" r="5"/><circle cx="1396" cy="333" r="5"/><circle cx="1498" cy="389" r="5"/><circle cx="1568" cy="337" r="5"/><circle cx="1667" cy="347" r="5"/><circle cx="1707" cy="386" r="5"/><circle cx="1828" cy="338" r="4"/><circle cx="1879" cy="364" r="4"/><circle cx="1980" cy="352" r="5"/><circle cx="2035" cy="372" r="6"/><circle cx="2157" cy="355" r="5"/><circle cx="2176" cy="386" r="5"/><circle cx="2248" cy="397" r="5"/><circle cx="2328" cy="341" r="4"/><circle cx="2455" cy="339" r="6"/><circle cx="2491" cy="367" r="4"/><circle cx="60" cy="479" r="6"/><circle cx="152" cy="416" r="5"/><circle cx="237" cy="447" r="4"/><circle cx="290" cy="407" r="5"/><circle cx="336" cy="431" r="5"/><circle cx="438" cy="426" r="5"/><circle cx="498" cy="460" r="6"/><circle cx="583" cy="416" r="4"/><circle cx="659" cy="465" r="5"/><circle cx="760" cy="424" r="5"/><circle cx="842" cy="459" r="5"/><circle cx="892" cy="474" r="4"/><circle cx="1037" cy="410" r="4"/><circle cx="1101" cy="434" r="5"/><circle cx="1191" cy="440" r="6"/><circle cx="1202" cy="410" r="5"/><circle cx="1317" cy="440" r="4"/><circle cx="1408" cy="451" r="5"/><circle cx="1519" cy="425" r="5"/><circle cx="1548" cy="473" r="5"/><circle cx="1657" cy="480" r="5"/><circle cx="1755" cy="444" r="5"/><circle cx="1825" cy="445" r="6"/><circle cx="1851" cy="447" r="4"/><circle cx="1922" cy="432" r="4"/><circle cx="2024" cy="412" r="6"/><circle cx="2149" cy="411" r="6"/><circle cx="2205" cy="473" r="6"/><circle cx="2278" cy="461" r="4"/><circle cx="2392" cy="426" r="5"/><circle cx="2431" cy="464" r="6"/><circle cx="2508" cy="458" r="5"/><circle cx="68" cy="529" r="4"/><circle cx="102" cy="529" r="5"/><circle cx="227" cy="529" r="4"/><circle cx="314" cy="490" r="6"/><circle cx="372" cy="550" r="5"/><circle cx="438" cy="526" r="5"/><circle cx="555" cy="531" r="5"/><circle cx="565" cy="505" r="6"/><circle cx="689" cy="489" r="4"/><circle cx="762" cy="514" r="6"/><circle cx="803" cy="524" r="4"/><circle cx="913" cy="530" r="6"/><circle cx="979" cy="552" r="4"/><circle cx="1099" cy="553" r="6"/><circle cx="1161" cy="522" r="5"/><circle cx="1279" cy="551" r="6"/><circle cx="1292" cy="533" r="4"/><circle cx="1411" cy="507" r="5"/><circle cx="1453" cy="497" r="5"/><circle cx="1573" cy="493" r="4"/><circle cx="1620" cy="525" r="5"/><circle cx="1712" cy="550" r="4"/><circle cx="1838" cy="512" r="6"/><circle cx="1859" cy="490" r="5"/><circle cx="1998" cy="543" r="5"/><circle cx="2042" cy="505" r="6"/><circle cx="2121" cy="559" r="5"/><circle cx="2164" cy="489" r="6"/><circle cx="2258" cy="484" r="5"/><circle cx="2368" cy="482" r="4"/><circle cx="2465" cy="530" r="5"/><circle cx="2516" cy="492" r="4"/><circle cx="47" cy="617" r="6"/><circle cx="154" cy="611" r="5"/><circle cx="161" cy="610" r="5"/><circle cx="314" cy="585" r="5"/><circle cx="361" cy="584" r="6"/><circle cx="414" cy="590" r="6"/><circle cx="515" cy="587" r="6"/><circle cx="622" cy="609" r="4"/><circle cx="681" cy="609" r="4"/><circle cx="721" cy="577" r="6"/><circle cx="879" cy="634" r="4"/><circle cx="926" cy="625" r="5"/><circle cx="1017" cy="622" r="4"/><circle cx="1109" cy="631" r="6"/><circle cx="1199" cy="612" r="5"/><circle cx="1213" cy="629" r="4"/><circle cx="1287" cy="594" r="4"/><circle cx="1409" cy="606" r="5"/><circle cx="1512" cy="632" r="5"/><circle cx="1555" cy="625" r="5"/><circle cx="1628" cy="632" r="6"/><circle cx="1689" cy="587" r="6"/><circle cx="1797" cy="635" r="4"/><circle cx="1893" cy="616" r="5"/><circle cx="1987" cy="610" r="5"/><circle cx="2066" cy="596" r="5"/><circle cx="2120" cy="575" r="5"/><circle cx="2234" cy="607" r="5"/><circle cx="2288" cy="590" r="5"/><circle cx="2345" cy="616" r="5"/><circle cx="2416" cy="616" r="5"/><circle cx="2531" cy="596" r="4"/><circle cx="16" cy="667" r="5"/><circle cx="158" cy="699" r="5"/><circle cx="235" cy="707" r="5"/><circle cx="259" cy="673" r="4"/><circle cx="346" cy="667" r="5"/><circle cx="417" cy="677" r="5"/><circle cx="549" cy="661" r="5"/><circle cx="601" cy="693" r="5"/><circle cx="666" cy="706" r="6"/><circle cx="787" cy="657" r="5"/><circle cx="826" cy="653" r="6"/><circle cx="950" cy="690" r="5"/><circle cx="988" cy="695" r="5"/><circle cx="1113" cy="685" r="5"/><circle cx="1172" cy="661" r="5"/><circle cx="1278" cy="664" r="5"/><circle cx="1325" cy="707" r="5"/><circle cx="1423" cy="675" r="5"/><circle cx="1512" cy="646" r="5"/><circle cx="1560" cy="699" r="5"/><circle cx="1637" cy="672" r="5"/><circle cx="1749" cy="699" r="4"/><circle cx="1822" cy="705" r="5"/><circle cx="1879" cy="674" r="5"/><circle cx="1955" cy="670" r="4"/><circle cx="2017" cy="671" r="4"/><circle cx="2129" cy="690" r="6"/><circle cx="2170" cy="705" r="5"/><circle cx="2246" cy="708" r="5"/><circle cx="2368" cy="660" r="6"/><circle cx="2424" cy="706" r="5"/><circle cx="2491" cy="652" r="6"/><circle cx="39" cy="736" r="5"/><circle cx="152" cy="792" r="5"/><circle cx="172" cy="744" r="6"/><circle cx="275" cy="745" r="4"/><circle cx="396" cy="723" r="6"/><circle cx="424" cy="797" r="5"/><circle cx="516" cy="788" r="5"/><circle cx="633" cy="723" r="4"/><circle cx="647" cy="749" r="4"/><circle cx="747" cy="730" r="4"/><circle cx="837" cy="763" r="5"/><circle cx="919" cy="738" r="5"/><circle cx="1004" cy="734" r="6"/><circle cx="1086" cy="747" r="4"/><circle cx="1125" cy="757" r="6"/><circle cx="1237" cy="745" r="5"/><circle cx="1309" cy="775" r="6"/><circle cx="1367" cy="758" r="6"/><circle cx="1453" cy="800" r="5"/><circle cx="1579" cy="740" r="6"/><circle cx="1620" cy="745" r="6"/><circle cx="1723" cy="733" r="4"/><circle cx="1807" cy="726" r="4"/><circle cx="1841" cy="766" r="5"/><circle cx="1978" cy="768" r="5"/><circle cx="2061" cy="734" r="5"/><circle cx="2096" cy="743" r="4"/><circle cx="2189" cy="737" r="5"/><circle cx="2286" cy="778" r="5"/><circle cx="2384" cy="724" r="4"/><circle cx="2401" cy="723" r="5"/><circle cx="2495" cy="774" r="4"/><circle cx="3" cy="837" r="4"/><circle cx="2563" cy="837" r="4"/><circle cx="101" cy="864" r="6"/><circle cx="168" cy="811" r="5"/><circle cx="295" cy="821" r="5"/><circle cx="357" cy="870" r="6"/><circle cx="448" cy="812" r="4"/><circle cx="557" cy="860" r="4"/><circle cx="638" cy="815" r="5"/><circle cx="678" cy="802" r="6"/><circle cx="762" cy="823" r="4"/><circle cx="815" cy="871" r="4"/><circle cx="909" cy="874" r="5"/><circle cx="989" cy="865" r="4"/><circle cx="1043" cy="840" r="4"/><circle cx="1122" cy="864" r="5"/><circle cx="1260" cy="808" r="4"/><circle cx="1299" cy="874" r="5"/><circle cx="1427" cy="810" r="6"/><circle cx="1499" cy="806" r="6"/><circle cx="1586" cy="812" r="6"/><circle cx="1657" cy="852" r="5"/><circle cx="1728" cy="868" r="6"/><circle cx="1775" cy="803" r="5"/><circle cx="1850" cy="810" r="5"/><circle cx="1993" cy="877" r="6"/><circle cx="2021" cy="834" r="5"/><circle cx="2134" cy="823" r="4"/><circle cx="2194" cy="823" r="4"/><circle cx="2252" cy="843" r="4"/><circle cx="2367" cy="805" r="5"/><circle cx="2431" cy="850" r="5"/><circle cx="2510" cy="867" r="5"/><circle cx="14" cy="900" r="5"/><circle cx="146" cy="945" r="6"/><circle cx="182" cy="889" r="5"/><circle cx="261" cy="951" r="4"/><circle cx="345" cy="937" r="5"/><circle cx="414" cy="932" r="5"/><circle cx="536" cy="958" r="4"/><circle cx="637" cy="948" r="4"/><circle cx="658" cy="959" r="5"/><circle cx="723" cy="951" r="4"/><circle cx="879" cy="919" r="6"/><circle cx="919" cy="901" r="5"/><circle cx="1010" cy="918" r="6"/><circle cx="1099" cy="890" r="6"/><circle cx="1126" cy="890" r="4"/><circle cx="1279" cy="932" r="5"/><circle cx="1350" cy="919" r="5"/><circle cx="1364" cy="941" r="6"/><circle cx="1510" cy="936" r="5"/><circle cx="1558" cy="898" r="5"/><circle cx="1675" cy="929" r="6"/><circle cx="1718" cy="927" r="5"/><circle cx="1835" cy="902" r="6"/><circle cx="1843" cy="939" r="6"/><circle cx="1964" cy="933" r="6"/><circle cx="2003" cy="929" r="5"/><circle cx="2091" cy="887" r="5"/><circle cx="2177" cy="959" r="6"/><circle cx="2258" cy="890" r="4"/><circle cx="2329" cy="938" r="4"/><circle cx="2453" cy="880" r="5"/><circle cx="2524" cy="901" r="5"/><circle cx="54" cy="1016" r="5"/><circle cx="140" cy="1000" r="6"/><circle cx="192" cy="1037" r="6"/><circle cx="291" cy="1024" r="5"/><circle cx="368" cy="1023" r="5"/><circle cx="423" cy="1003" r="4"/><circle cx="502" cy="1020" r="6"/><circle cx="600" cy="1020" r="6"/><circle cx="681" cy="969" r="5"/><circle cx="780" cy="1013" r="5"/><circle cx="873" cy="1034" r="5"/><circle cx="909" cy="966" r="5"/><circle cx="1016" cy="996" r="5"/><circle cx="1113" cy="979" r="6"/><circle cx="1161" cy="1001" r="6"/><circle cx="1223" cy="1029" r="6"/><circle cx="1319" cy="999" r="6"/><circle cx="1373" cy="1038" r="4"/><circle cx="1468" cy="995" r="6"/><circle cx="1562" cy="1006" r="5"/><circle cx="1637" cy="1016" r="5"/><circle cx="1693" cy="964" r="4"/><circle cx="1835" cy="961" r="5"/><circle cx="1878" cy="1018" r="4"/><circle cx="1994" cy="1009" r="5"/><circle cx="2073" cy="998" r="5"/><circle cx="2091" cy="988" r="5"/><circle cx="2198" cy="983" r="5"/><circle cx="2255" cy="968" r="5"/><circle cx="2327" cy="966" r="5"/><circle cx="2416" cy="999" r="4"/><circle cx="2530" cy="1016" r="4"/><circle cx="66" cy="1044" r="5"/><circle cx="118" cy="1077" r="5"/><circle cx="221" cy="1080" r="5"/><circle cx="256" cy="1049" r="5"/><circle cx="321" cy="1100" r="5"/><circle cx="417" cy="1068" r="6"/><circle cx="511" cy="1115" r="6"/><circle cx="567" cy="1058" r="5"/><circle cx="706" cy="1096" r="5"/><circle cx="773" cy="1089" r="6"/><circle cx="859" cy="1096" r="5"/><circle cx="939" cy="1118" r="4"/><circle cx="985" cy="1055" r="5"/><circle cx="1053" cy="1070" r="6"/><circle cx="1151" cy="1057" r="5"/><circle cx="1229" cy="1096" r="4"/><circle cx="1297" cy="1072" r="6"/><circle cx="1437" cy="1114" r="6"/><circle cx="1461" cy="1069" r="4"/><circle cx="1547" cy="1104" r="5"/><circle cx="1620" cy="1088" r="6"/><circle cx="1717" cy="1052" r="6"/><circle cx="1795" cy="1082" r="5"/><circle cx="1900" cy="1083" r="5"/><circle cx="1969" cy="1079" r="4"/><circle cx="2059" cy="1068" r="6"/><circle cx="2091" cy="1073" r="5"/><circle cx="2193" cy="1062" r="5"/><circle cx="2280" cy="1109" r="6"/><circle cx="2343" cy="1064" r="5"/><circle cx="2406" cy="1094" r="6"/><circle cx="2556" cy="1071" r="6"/><circle cx="-4" cy="1071" r="6"/><circle cx="27" cy="1184" r="5"/><circle cx="108" cy="1141" r="4"/><circle cx="163" cy="1138" r="5"/><circle cx="313" cy="1152" r="6"/><circle cx="337" cy="1164" r="5"/><circle cx="443" cy="1163" r="5"/><circle cx="497" cy="1175" r="4"/><circle cx="560" cy="1131" r="6"/><circle cx="671" cy="1194" r="6"/><circle cx="740" cy="1137" r="5"/><circle cx="814" cy="1181" r="5"/><circle cx="900" cy="1160" r="4"/><circle cx="982" cy="1171" r="5"/><circle cx="1041" cy="1173" r="5"/><circle cx="1159" cy="1176" r="6"/><circle cx="1231" cy="1133" r="6"/><circle cx="1341" cy="1175" r="6"/><circle cx="1376" cy="1182" r="5"/><circle cx="1459" cy="1196" r="4"/><circle cx="1530" cy="1151" r="5"/><circle cx="1606" cy="1173" r="5"/><circle cx="1681" cy="1184" r="6"/><circle cx="1776" cy="1189" r="5"/><circle cx="1862" cy="1162" r="5"/><circle cx="1959" cy="1176" r="6"/><circle cx="2001" cy="1144" r="5"/><circle cx="2128" cy="1128" r="4"/><circle cx="2216" cy="1190" r="5"/><circle cx="2265" cy="1149" r="4"/><circle cx="2337" cy="1198" r="5"/><circle cx="2462" cy="1183" r="6"/><circle cx="2516" cy="1151" r="5"/><circle cx="75" cy="1266" r="5"/><circle cx="159" cy="1215" r="6"/><circle cx="221" cy="1258" r="6"/><circle cx="307" cy="1242" r="5"/><circle cx="385" cy="1258" r="6"/><circle cx="478" cy="1212" r="4"/><circle cx="487" cy="1267" r="5"/><circle cx="620" cy="1202" r="4"/><circle cx="679" cy="1269" r="4"/><circle cx="756" cy="1258" r="5"/><circle cx="855" cy="1257" r="5"/><circle cx="891" cy="1205" r="5"/><circle cx="979" cy="1209" r="5"/><circle cx="1095" cy="1241" r="4"/><circle cx="1158" cy="1241" r="6"/><circle cx="1261" cy="1217" r="6"/><circle cx="1339" cy="1260" r="5"/><circle cx="1426" cy="1233" r="4"/><circle cx="1480" cy="1255" r="5"/><circle cx="1574" cy="1219" r="4"/><circle cx="1660" cy="1265" r="5"/><circle cx="1737" cy="1204" r="4"/><circle cx="1767" cy="1213" r="5"/><circle cx="1868" cy="1233" r="6"/><circle cx="1964" cy="1212" r="4"/><circle cx="2063" cy="1207" r="6"/><circle cx="2116" cy="1218" r="4"/><circle cx="2199" cy="1265" r="5"/><circle cx="2270" cy="1235" r="5"/><circle cx="2347" cy="1223" r="4"/><circle cx="2432" cy="1218" r="4"/><circle cx="2490" cy="1204" r="5"/><circle cx="2" cy="1281" r="6"/><circle cx="2562" cy="1281" r="6"/><circle cx="115" cy="1351" r="6"/><circle cx="229" cy="1315" r="4"/><circle cx="286" cy="1343" r="5"/><circle cx="388" cy="1288" r="5"/><circle cx="471" cy="1344" r="6"/><circle cx="489" cy="1332" r="6"/><circle cx="630" cy="1342" r="6"/><circle cx="711" cy="1281" r="5"/><circle cx="721" cy="1284" r="5"/><circle cx="854" cy="1293" r="5"/><circle cx="955" cy="1311" r="5"/><circle cx="982" cy="1310" r="5"/><circle cx="1049" cy="1305" r="5"/><circle cx="1138" cy="1313" r="5"/><circle cx="1202" cy="1287" r="5"/><circle cx="1315" cy="1359" r="6"/><circle cx="1397" cy="1291" r="5"/><circle cx="1495" cy="1348" r="4"/><circle cx="1525" cy="1300" r="4"/><circle cx="1624" cy="1338" r="5"/><circle cx="1689" cy="1345" r="5"/><circle cx="1767" cy="1359" r="6"/><circle cx="1841" cy="1352" r="6"/><circle cx="1957" cy="1281" r="5"/><circle cx="2024" cy="1285" r="4"/><circle cx="2135" cy="1326" r="4"/><circle cx="2214" cy="1317" r="5"/><circle cx="2274" cy="1331" r="4"/><circle cx="2396" cy="1349" r="5"/><circle cx="2463" cy="1285" r="6"/><circle cx="2533" cy="1322" r="5"/><circle cx="78" cy="1368" r="5"/><circle cx="83" cy="1395" r="6"/><circle cx="199" cy="1377" r="5"/><circle cx="313" cy="1411" r="6"/><circle cx="388" cy="1418" r="6"/><circle cx="432" cy="1379" r="6"/><circle cx="518" cy="1398" r="6"/><circle cx="568" cy="1405" r="5"/><circle cx="701" cy="1403" r="5"/><circle cx="720" cy="1379" r="6"/><circle cx="824" cy="1418" r="4"/><circle cx="945" cy="1363" r="5"/><circle cx="1038" cy="1365" r="5"/><circle cx="1078" cy="1407" r="5"/><circle cx="1151" cy="1376" r="5"/><circle cx="1227" cy="1379" r="6"/><circle cx="1345" cy="1400" r="6"/><circle cx="1383" cy="1375" r="6"/><circle cx="1448" cy="1408" r="4"/><circle cx="1529" cy="1430" r="4"/><circle cx="1643" cy="1425" r="6"/><circle cx="1746" cy="1409" r="5"/><circle cx="1808" cy="1385" r="5"/><circle cx="1917" cy="1431" r="5"/><circle cx="1978" cy="1387" r="6"/><circle cx="2071" cy="1368" r="4"/><circle cx="2087" cy="1392" r="5"/><circle cx="2235" cy="1420" r="5"/><circle cx="2317" cy="1416" r="5"/><circle cx="2370" cy="1393" r="6"/><circle cx="2427" cy="1371" r="4"/><circle cx="2498" cy="1376" r="4"/><path stroke="#fff" d="M36 80L120 61M36 80L-27 33M36 80L45 123M36 80L80 139M36 80L-6 97M2596 80L2533 33M2596 80L2554 97M120 61L45 123M120 61L80 139M120 61L207 86M120 61L83 -45M120 1501L83 1395M228 75L280 67M228 75L207 86M228 75L260 119M228 75L223 165M280 67L207 86M280 67L260 119M280 67L313 -29M280 1507L313 1411M381 12L435 33M381 12L381 120M381 12L313 -29M381 12L388 -22M381 12L432 -61M381 1452L313 1411M381 1452L388 1418M381 1452L432 1379M435 33L381 120M435 33L388 -22M435 1473L388 1418M550 62L569 75M550 62L549 83M550 62L634 123M550 62L518 -42M550 62L568 -35M550 1502L518 1398M550 1502L568 1405M569 75L549 83M569 75L634 123M569 75L575 191M569 75L568 -35M569 1515L568 1405M704 21L760 36M704 21L685 124M704 21L777 82M704 21L701 -37M704 21L720 -61M704 1461L701 1403M704 1461L720 1379M760 36L842 51M760 36L777 82M760 36L701 -37M760 36L824 -22M760 1476L701 1403M760 1476L824 1418M842 51L777 82M842 51L800 133M842 51L824 -22M842 1491L824 1418M957 63L979 49M957 63L942 148M957 63L985 125M957 63L1045 96M979 49L1062 56M979 49L942 148M979 49L985 125M979 49L1045 96M1062 56L1141 22M1062 56L1045 96M1062 56L1078 -33M1062 1496L1078 1407M1141 22L1232 48M1141 22L1078 -33M1141 22L1151 -64M1141 22L1227 -61M1141 1462L1078 1407M1141 1462L1151 1376M1141 1462L1227 1379M1232 48L1309 69M1232 48L1225 126M1232 48L1306 83M1309 69L1384 51M1309 69L1306 83M1309 69L1382 88M1384 51L1472 76M1384 51L1382 88M1384 51L1449 122M1384 51L1345 -40M1384 1491L1345 1400M1472 76L1382 88M1472 76L1449 122M1472 76L1493 174M1472 76L1529 -10M1472 1516L1529 1430M1595 42L1666 3M1595 42L1580 103M1595 42L1647 101M1595 42L1529 -10M1595 42L1643 -15M1595 1482L1529 1430M1595 1482L1643 1425M1666 3L1715 57M1666 3L1699 82M1666 3L1643 -15M1666 3L1746 -31M1666 1443L1643 1425M1666 1443L1746 1409M1715 57L1647 101M1715 57L1699 82M1715 57L1746 -31M1715 1497L1746 1409M1836 45L1887 64M1836 45L1923 59M1836 45L1850 145M1836 45L1808 -55M1836 45L1917 -9M1836 1485L1808 1385M1836 1485L1917 1431M1887 64L1923 59M1887 64L1850 145M1887 64L1948 144M1887 64L1917 -9M1887 1504L1917 1431M1923 59L1948 144M1923 59L1917 -9M1923 1499L1917 1431M2075 40L2146 30M2075 40L2167 25M2075 40L2051 123M2075 40L2087 -48M2075 1480L2087 1392M2146 30L2167 25M2146 30L2087 -48M2146 30L2235 -20M2146 1470L2087 1392M2146 1470L2235 1420M2167 25L2251 39M2167 25L2235 -20M2167 1465L2235 1420M2251 39L2344 37M2251 39L2251 92M2251 39L2235 -20M2251 39L2317 -24M2251 1479L2235 1420M2251 1479L2317 1416M2344 37L2374 125M2344 37L2317 -24M2344 37L2370 -47M2344 1477L2317 1416M2344 1477L2370 1393M2468 50L2533 33M2468 50L2439 132M2468 50L2554 97M2468 50L2471 172M2533 33L2554 97M2533 33L2498 -64M2533 1473L2498 1376M45 123L80 139M45 123L-6 97M45 123L48 211M2605 123L2554 97M80 139L-6 97M80 139L48 211M2640 139L2554 97M207 86L260 119M207 86L223 165M260 119L223 165M260 119L288 229M381 120L407 132M381 120L426 167M407 132L363 228M407 132L426 167M634 123L685 124M634 123L575 191M634 123L645 173M685 124L777 82M685 124L800 133M685 124L645 173M777 82L800 133M800 133L844 203M800 133L903 195M942 148L985 125M942 148L903 195M942 148L996 185M985 125L1045 96M985 125L996 185M1045 96L996 185M1163 157L1225 126M1163 157L1116 193M1163 157L1198 181M1163 157L1240 168M1225 126L1306 83M1225 126L1198 181M1225 126L1240 168M1306 83L1382 88M1382 88L1449 122M1449 122L1416 223M1449 122L1493 174M1580 103L1647 101M1580 103L1567 185M1580 103L1647 173M1647 101L1699 82M1647 101L1647 173M1699 82L1647 173M1699 82L1714 170M1765 146L1850 145M1765 146L1714 170M1765 146L1791 240M1850 145L1948 144M1850 145L1920 200M1948 144L1920 200M1948 144L1943 234M2051 123L2087 153M2051 123L2045 191M2051 123L2112 168M2087 153L2175 146M2087 153L2045 191M2087 153L2112 168M2087 153L2121 244M2175 146L2251 92M2175 146L2112 168M2175 146L2197 187M2175 146L2258 168M2251 92L2197 187M2251 92L2258 168M2374 125L2439 132M2374 125L2471 172M2439 132L2471 172M48 211L159 221M48 211L9 283M159 221L223 165M159 221L145 291M159 221L172 255M223 165L288 229M288 229L363 228M288 229L290 248M288 229L260 326M363 228L426 167M363 228L290 248M363 228L370 313M426 167L534 247M536 239L575 191M536 239L471 300M536 239L534 247M536 239L578 316M575 191L645 173M575 191L534 247M645 173L734 219M645 173L674 282M734 219L674 282M734 219L754 241M844 203L903 195M844 203L754 241M844 203L851 314M903 195L996 185M903 195L949 261M996 185L949 261M1116 193L1198 181M1116 193L1079 266M1198 181L1240 168M1198 181L1223 247M1240 168L1305 202M1240 168L1223 247M1305 202L1223 247M1305 202L1295 277M1416 223L1493 174M1416 223L1365 311M1416 223L1480 302M1493 174L1567 185M1493 174L1532 242M1567 185L1647 173M1567 185L1532 242M1567 185L1605 290M1647 173L1714 170M1714 170L1791 240M1791 240L1719 279M1791 240L1789 302M1791 240L1828 338M1920 200L1943 234M1920 200L1918 292M1920 200L1925 296M1943 234L1918 292M1943 234L1925 296M1943 234L2026 311M2045 191L2112 168M2045 191L2121 244M2112 168L2121 244M2197 187L2258 168M2197 187L2121 244M2197 187L2232 285M2258 168L2327 238M2327 238L2232 285M2327 238L2295 299M2327 238L2397 311M2327 238L2413 295M2471 172L2493 238M2493 238L2569 283M2493 238L2413 295M2493 238L2557 316M2493 238L2455 339M-67 238L9 283M9 283L-3 316M9 283L72 329M2569 283L2557 316M145 291L172 255M145 291L72 329M145 291L151 389M172 255L290 248M172 255L260 326M290 248L370 313M290 248L260 326M370 313L392 334M370 313L412 339M471 300L534 247M471 300L392 334M471 300L412 339M471 300L503 383M534 247L578 316M578 316L674 282M578 316L503 383M578 316L621 360M674 282L754 241M674 282L621 360M754 241L759 341M851 314L759 341M851 314L841 343M851 314L885 324M949 261L994 314M949 261L885 324M949 261L967 352M994 314L1079 266M994 314L885 324M994 314L967 352M994 314L1042 350M1079 266L1194 278M1079 266L1042 350M1194 278L1223 247M1194 278L1279 350M1194 278L1294 323M1223 247L1295 277M1295 277L1365 311M1295 277L1279 350M1295 277L1294 323M1365 311L1279 350M1365 311L1294 323M1365 311L1396 333M1480 302L1532 242M1480 302L1396 333M1480 302L1498 389M1480 302L1568 337M1532 242L1605 290M1605 290L1719 279M1605 290L1568 337M1605 290L1667 347M1719 279L1789 302M1719 279L1667 347M1719 279L1707 386M1789 302L1707 386M1789 302L1828 338M1918 292L1925 296M1918 292L1879 364M1918 292L1980 352M1925 296L1879 364M1925 296L1980 352M2026 311L1980 352M2026 311L2035 372M2026 311L2024 412M2121 244L2232 285M2232 285L2295 299M2232 285L2157 355M2295 299L2397 311M2295 299L2328 341M2397 311L2413 295M2397 311L2328 341M2397 311L2455 339M2413 295L2328 341M2413 295L2455 339M2557 316L2632 329M2557 316L2455 339M2557 316L2491 367M-3 316L72 329M72 329L151 389M72 329L152 416M151 389L233 390M151 389L152 416M233 390L260 326M233 390L152 416M233 390L237 447M233 390L290 407M260 326L290 407M392 334L412 339M412 339L438 426M503 383L438 426M503 383L498 460M503 383L583 416M621 360L706 395M621 360L583 416M621 360L659 465M706 395L759 341M706 395L659 465M706 395L760 424M706 395L689 489M759 341L841 343M759 341L760 424M841 343L885 324M885 324L967 352M967 352L1042 350M967 352L1037 410M1042 350L1132 392M1042 350L1037 410M1132 392L1037 410M1132 392L1101 434M1132 392L1191 440M1132 392L1202 410M1279 350L1294 323M1279 350L1202 410M1294 323L1396 333M1498 389L1568 337M1498 389L1408 451M1498 389L1519 425M1498 389L1548 473M1568 337L1667 347M1568 337L1519 425M1667 347L1707 386M1707 386L1755 444M1828 338L1879 364M1879 364L1825 445M1879 364L1922 432M1980 352L2035 372M1980 352L2024 412M2035 372L2157 355M2035 372L2024 412M2157 355L2176 386M2157 355L2149 411M2176 386L2248 397M2176 386L2149 411M2248 397L2149 411M2248 397L2205 473M2248 397L2278 461M2248 397L2258 484M2328 341L2392 426M2455 339L2491 367M2491 367L2508 458M60 479L152 416M60 479L-52 458M60 479L68 529M60 479L102 529M60 479L-44 492M2620 479L2508 458M2620 479L2516 492M152 416L237 447M237 447L290 407M237 447L227 529M290 407L336 431M290 407L314 490M336 431L438 426M336 431L314 490M438 426L498 460M498 460L438 526M498 460L555 531M498 460L565 505M583 416L659 465M583 416L565 505M659 465L565 505M659 465L689 489M760 424L842 459M760 424L689 489M760 424L762 514M842 459L892 474M842 459L762 514M842 459L803 524M842 459L913 530M892 474L803 524M892 474L913 530M1037 410L1101 434M1101 434L1191 440M1101 434L1202 410M1101 434L1161 522M1191 440L1202 410M1191 440L1161 522M1317 440L1408 451M1317 440L1292 533M1317 440L1411 507M1408 451L1411 507M1408 451L1453 497M1519 425L1548 473M1519 425L1453 497M1519 425L1573 493M1548 473L1453 497M1548 473L1573 493M1548 473L1620 525M1657 480L1755 444M1657 480L1573 493M1657 480L1620 525M1657 480L1712 550M1657 480L1689 587M1755 444L1825 445M1755 444L1851 447M1755 444L1838 512M1825 445L1851 447M1825 445L1838 512M1825 445L1859 490M1851 447L1922 432M1851 447L1838 512M1851 447L1859 490M1922 432L2024 412M1922 432L1859 490M2024 412L2042 505M2149 411L2205 473M2149 411L2164 489M2205 473L2278 461M2205 473L2164 489M2205 473L2258 484M2278 461L2258 484M2278 461L2368 482M2392 426L2431 464M2392 426L2368 482M2431 464L2508 458M2431 464L2368 482M2431 464L2465 530M2431 464L2516 492M2508 458L2465 530M2508 458L2516 492M68 529L102 529M68 529L47 617M102 529L47 617M102 529L154 611M102 529L161 610M227 529L154 611M227 529L161 610M314 490L372 550M314 490L314 585M314 490L361 584M372 550L438 526M372 550L314 585M372 550L361 584M372 550L414 590M438 526L414 590M438 526L515 587M555 531L565 505M555 531L515 587M565 505L515 587M689 489L762 514M689 489L721 577M762 514L803 524M762 514L721 577M803 524L913 530M803 524L721 577M913 530L979 552M913 530L926 625M979 552L1099 553M979 552L1017 622M1099 553L1161 522M1099 553L1017 622M1099 553L1109 631M1279 551L1292 533M1279 551L1199 612M1279 551L1213 629M1279 551L1287 594M1292 533L1287 594M1411 507L1453 497M1411 507L1409 606M1453 497L1409 606M1573 493L1620 525M1620 525L1689 587M1712 550L1689 587M1838 512L1859 490M1838 512L1893 616M1998 543L2042 505M1998 543L1987 610M1998 543L2066 596M2042 505L2121 559M2042 505L2066 596M2042 505L2120 575M2121 559L2164 489M2121 559L2066 596M2121 559L2120 575M2164 489L2258 484M2164 489L2120 575M2258 484L2288 590M2465 530L2516 492M2465 530L2416 616M2465 530L2531 596M2516 492L2531 596M47 617L154 611M47 617L-29 596M47 617L16 667M2607 617L2531 596M154 611L161 610M154 611L158 699M161 610L158 699M314 585L361 584M314 585L346 667M361 584L414 590M361 584L346 667M414 590L515 587M414 590L417 677M515 587L549 661M622 609L681 609M622 609L549 661M622 609L601 693M681 609L721 577M721 577L787 657M879 634L926 625M879 634L787 657M879 634L826 653M879 634L950 690M879 634L919 738M926 625L826 653M926 625L950 690M926 625L988 695M1017 622L1109 631M1017 622L988 695M1109 631L1199 612M1109 631L1113 685M1109 631L1172 661M1199 612L1213 629M1199 612L1172 661M1199 612L1278 664M1213 629L1287 594M1213 629L1172 661M1213 629L1278 664M1287 594L1278 664M1409 606L1512 632M1409 606L1423 675M1512 632L1555 625M1512 632L1423 675M1512 632L1512 646M1555 625L1628 632M1555 625L1512 646M1555 625L1560 699M1628 632L1689 587M1628 632L1637 672M1628 632L1620 745M1689 587L1637 672M1797 635L1893 616M1797 635L1749 699M1797 635L1822 705M1797 635L1879 674M1893 616L1987 610M1893 616L1879 674M1893 616L1955 670M1987 610L2066 596M1987 610L1955 670M1987 610L2017 671M2066 596L2120 575M2234 607L2288 590M2234 607L2345 616M2234 607L2170 705M2234 607L2246 708M2288 590L2345 616M2345 616L2416 616M2345 616L2368 660M2416 616L2368 660M2416 616L2424 706M2416 616L2491 652M2531 596L2576 667M2531 596L2491 652M-29 596L16 667M16 667L-69 652M16 667L39 736M2576 667L2491 652M158 699L235 707M158 699L152 792M158 699L172 744M235 707L259 673M235 707L172 744M235 707L275 745M259 673L346 667M259 673L275 745M346 667L417 677M346 667L396 723M417 677L396 723M417 677L424 797M549 661L601 693M601 693L666 706M601 693L633 723M601 693L647 749M666 706L633 723M666 706L647 749M666 706L747 730M666 706L678 802M787 657L826 653M787 657L747 730M826 653L747 730M826 653L837 763M950 690L988 695M950 690L919 738M950 690L1004 734M988 695L919 738M988 695L1004 734M1113 685L1172 661M1113 685L1086 747M1113 685L1125 757M1172 661L1125 757M1278 664L1325 707M1278 664L1237 745M1325 707L1423 675M1325 707L1237 745M1325 707L1309 775M1325 707L1367 758M1423 675L1512 646M1423 675L1367 758M1512 646L1560 699M1560 699L1637 672M1560 699L1579 740M1560 699L1620 745M1637 672L1579 740M1637 672L1620 745M1749 699L1822 705M1749 699L1723 733M1749 699L1807 726M1822 705L1879 674M1822 705L1807 726M1822 705L1841 766M1879 674L1955 670M1955 670L2017 671M1955 670L1978 768M2017 671L1978 768M2017 671L2061 734M2129 690L2170 705M2129 690L2246 708M2129 690L2061 734M2129 690L2096 743M2129 690L2189 737M2170 705L2246 708M2170 705L2096 743M2170 705L2189 737M2246 708L2189 737M2246 708L2286 778M2368 660L2424 706M2368 660L2384 724M2368 660L2401 723M2424 706L2491 652M2424 706L2384 724M2424 706L2401 723M2491 652L2401 723M39 736L-65 774M2599 736L2495 774M152 792L172 744M152 792L101 864M152 792L168 811M152 792L182 889M172 744L275 745M172 744L168 811M275 745L396 723M275 745L295 821M396 723L424 797M396 723L448 812M424 797L516 788M424 797L357 870M424 797L448 812M516 788L448 812M516 788L557 860M516 788L638 815M633 723L647 749M633 723L638 815M633 723L678 802M647 749L638 815M647 749L678 802M747 730L837 763M837 763L919 738M837 763L762 823M837 763L815 871M919 738L1004 734M1004 734L1086 747M1086 747L1125 757M1125 757L1237 745M1125 757L1122 864M1237 745L1309 775M1237 745L1260 808M1309 775L1367 758M1309 775L1260 808M1309 775L1299 874M1367 758L1453 800M1367 758L1427 810M1453 800L1427 810M1453 800L1499 806M1579 740L1620 745M1579 740L1499 806M1579 740L1586 812M1620 745L1586 812M1723 733L1807 726M1723 733L1775 803M1807 726L1841 766M1807 726L1775 803M1841 766L1775 803M1841 766L1850 810M1978 768L2061 734M1978 768L1993 877M1978 768L2021 834M2061 734L2096 743M2061 734L2021 834M2096 743L2189 737M2096 743L2134 823M2189 737L2194 823M2286 778L2384 724M2286 778L2194 823M2286 778L2252 843M2286 778L2367 805M2384 724L2401 723M2384 724L2367 805M2401 723L2367 805M2495 774L2563 837M2495 774L2431 850M2495 774L2453 880M-65 774L3 837M3 837L-50 867M3 837L14 900M3 837L-36 901M2563 837L2510 867M2563 837L2524 901M101 864L168 811M101 864L14 900M101 864L146 945M101 864L182 889M168 811L182 889M295 821L357 870M357 870L448 812M357 870L345 937M357 870L414 932M557 860L638 815M557 860L536 958M638 815L678 802M678 802L762 823M762 823L815 871M815 871L909 874M815 871L879 919M909 874L989 865M909 874L879 919M909 874L919 901M909 874L909 966M989 865L1043 840M989 865L919 901M989 865L1010 918M1043 840L1122 864M1043 840L1010 918M1043 840L1099 890M1043 840L1126 890M1122 864L1099 890M1122 864L1126 890M1260 808L1299 874M1299 874L1279 932M1299 874L1350 919M1299 874L1364 941M1427 810L1499 806M1427 810L1350 919M1499 806L1586 812M1499 806L1558 898M1586 812L1657 852M1586 812L1558 898M1657 852L1728 868M1657 852L1558 898M1657 852L1675 929M1657 852L1718 927M1728 868L1775 803M1728 868L1675 929M1728 868L1718 927M1728 868L1835 902M1775 803L1850 810M1850 810L1835 902M1850 810L1843 939M1993 877L2021 834M1993 877L1964 933M1993 877L2003 929M1993 877L2091 887M2021 834L2003 929M2021 834L2091 887M2134 823L2194 823M2134 823L2091 887M2194 823L2252 843M2194 823L2258 890M2252 843L2258 890M2367 805L2431 850M2367 805L2453 880M2431 850L2510 867M2431 850L2453 880M2431 850L2524 901M2510 867L2574 900M2510 867L2453 880M2510 867L2524 901M-50 867L14 900M14 900L-36 901M2574 900L2524 901M146 945L182 889M146 945L140 1000M146 945L192 1037M182 889L261 951M261 951L345 937M261 951L291 1024M261 951L256 1049M345 937L414 932M345 937L368 1023M414 932L423 1003M536 958L637 948M536 958L502 1020M536 958L600 1020M536 958L567 1058M637 948L658 959M637 948L723 951M637 948L600 1020M637 948L681 969M658 959L723 951M658 959L600 1020M658 959L681 969M723 951L681 969M723 951L780 1013M879 919L919 901M879 919L873 1034M879 919L909 966M919 901L1010 918M919 901L909 966M1010 918L1099 890M1010 918L1016 996M1099 890L1126 890M1099 890L1113 979M1126 890L1113 979M1126 890L1161 1001M1279 932L1350 919M1279 932L1364 941M1279 932L1319 999M1350 919L1364 941M1350 919L1319 999M1364 941L1319 999M1364 941L1373 1038M1510 936L1558 898M1510 936L1468 995M1510 936L1562 1006M1558 898L1562 1006M1675 929L1718 927M1675 929L1637 1016M1675 929L1693 964M1718 927L1835 902M1718 927L1693 964M1835 902L1843 939M1835 902L1835 961M1843 939L1964 933M1843 939L1835 961M1843 939L1878 1018M1964 933L2003 929M1964 933L1835 961M1964 933L1994 1009M2003 929L2091 887M2003 929L1994 1009M2091 887L2091 988M2177 959L2258 890M2177 959L2091 988M2177 959L2198 983M2177 959L2255 968M2177 959L2193 1062M2258 890L2329 938M2258 890L2255 968M2329 938L2255 968M2329 938L2327 966M2329 938L2416 999M2453 880L2524 901M54 1016L140 1000M54 1016L-30 1016M54 1016L66 1044M54 1016L-4 1071M2614 1016L2530 1016M2614 1016L2556 1071M140 1000L192 1037M140 1000L66 1044M140 1000L118 1077M192 1037L118 1077M192 1037L221 1080M192 1037L256 1049M291 1024L368 1023M291 1024L221 1080M291 1024L256 1049M291 1024L321 1100M368 1023L423 1003M368 1023L321 1100M368 1023L417 1068M423 1003L502 1020M423 1003L417 1068M502 1020L417 1068M502 1020L511 1115M502 1020L567 1058M600 1020L681 969M600 1020L567 1058M681 969L780 1013M780 1013L873 1034M780 1013L706 1096M780 1013L773 1089M873 1034L909 966M873 1034L859 1096M909 966L1016 996M1016 996L985 1055M1016 996L1053 1070M1113 979L1161 1001M1113 979L1053 1070M1113 979L1151 1057M1161 1001L1223 1029M1161 1001L1151 1057M1223 1029L1151 1057M1223 1029L1229 1096M1223 1029L1297 1072M1319 999L1373 1038M1319 999L1297 1072M1373 1038L1468 995M1373 1038L1297 1072M1373 1038L1437 1114M1468 995L1562 1006M1468 995L1461 1069M1562 1006L1637 1016M1562 1006L1620 1088M1637 1016L1693 964M1637 1016L1620 1088M1637 1016L1717 1052M1693 964L1717 1052M1835 961L1878 1018M1878 1018L1795 1082M1878 1018L1900 1083M1994 1009L2073 998M1994 1009L1969 1079M1994 1009L2059 1068M2073 998L2091 988M2073 998L2198 983M2073 998L2059 1068M2073 998L2091 1073M2091 988L2059 1068M2091 988L2091 1073M2198 983L2255 968M2198 983L2327 966M2198 983L2193 1062M2255 968L2327 966M2327 966L2416 999M2327 966L2343 1064M2416 999L2343 1064M2416 999L2406 1094M2530 1016L2626 1044M2530 1016L2556 1071M-30 1016L66 1044M66 1044L118 1077M66 1044L-4 1071M2626 1044L2556 1071M118 1077L108 1141M118 1077L163 1138M221 1080L256 1049M221 1080L163 1138M256 1049L321 1100M321 1100L313 1152M321 1100L337 1164M417 1068L443 1163M511 1115L567 1058M511 1115L443 1163M511 1115L497 1175M511 1115L560 1131M567 1058L560 1131M706 1096L773 1089M706 1096L671 1194M706 1096L740 1137M773 1089L859 1096M773 1089L740 1137M773 1089L814 1181M859 1096L939 1118M859 1096L900 1160M939 1118L985 1055M939 1118L900 1160M939 1118L982 1171M985 1055L1053 1070M1053 1070L1151 1057M1053 1070L1041 1173M1151 1057L1229 1096M1229 1096L1297 1072M1229 1096L1231 1133M1297 1072L1231 1133M1437 1114L1461 1069M1437 1114L1376 1182M1437 1114L1459 1196M1437 1114L1530 1151M1461 1069L1547 1104M1547 1104L1620 1088M1547 1104L1530 1151M1547 1104L1606 1173M1620 1088L1717 1052M1620 1088L1606 1173M1717 1052L1795 1082M1795 1082L1900 1083M1795 1082L1862 1162M1900 1083L1969 1079M1900 1083L1862 1162M1969 1079L2001 1144M2059 1068L2091 1073M2059 1068L2001 1144M2091 1073L2193 1062M2091 1073L2128 1128M2193 1062L2280 1109M2193 1062L2128 1128M2280 1109L2343 1064M2280 1109L2216 1190M2280 1109L2265 1149M2280 1109L2337 1198M2343 1064L2406 1094M2343 1064L2265 1149M2406 1094L2462 1183M2406 1094L2516 1151M2556 1071L2516 1151M27 1184L108 1141M27 1184L-44 1151M27 1184L75 1266M27 1184L-70 1204M27 1184L2 1281M2587 1184L2516 1151M2587 1184L2490 1204M108 1141L163 1138M108 1141L159 1215M163 1138L159 1215M313 1152L337 1164M313 1152L307 1242M337 1164L307 1242M337 1164L385 1258M443 1163L497 1175M443 1163L478 1212M497 1175L560 1131M497 1175L478 1212M497 1175L487 1267M560 1131L620 1202M671 1194L740 1137M671 1194L620 1202M671 1194L679 1269M671 1194L711 1281M740 1137L814 1181M814 1181L900 1160M814 1181L855 1257M814 1181L891 1205M900 1160L982 1171M900 1160L891 1205M982 1171L1041 1173M982 1171L979 1209M1041 1173L1159 1176M1041 1173L979 1209M1041 1173L1095 1241M1159 1176L1231 1133M1159 1176L1095 1241M1159 1176L1158 1241M1231 1133L1341 1175M1231 1133L1261 1217M1341 1175L1376 1182M1341 1175L1261 1217M1341 1175L1339 1260M1341 1175L1426 1233M1376 1182L1459 1196M1376 1182L1339 1260M1376 1182L1426 1233M1459 1196L1530 1151M1459 1196L1426 1233M1459 1196L1480 1255M1530 1151L1606 1173M1530 1151L1574 1219M1606 1173L1681 1184M1606 1173L1574 1219M1681 1184L1776 1189M1681 1184L1660 1265M1681 1184L1737 1204M1681 1184L1767 1213M1776 1189L1862 1162M1776 1189L1737 1204M1776 1189L1767 1213M1776 1189L1868 1233M1862 1162L1959 1176M1862 1162L1868 1233M1959 1176L2001 1144M1959 1176L1868 1233M1959 1176L1964 1212M1959 1176L2063 1207M2001 1144L1964 1212M2001 1144L2063 1207M2128 1128L2116 1218M2216 1190L2265 1149M2216 1190L2116 1218M2216 1190L2199 1265M2216 1190L2270 1235M2265 1149L2337 1198M2265 1149L2270 1235M2337 1198L2270 1235M2337 1198L2347 1223M2337 1198L2432 1218M2462 1183L2516 1151M2462 1183L2432 1218M2462 1183L2490 1204M2516 1151L2490 1204M75 1266L159 1215M75 1266L2 1281M75 1266L115 1351M75 1266L78 1368M159 1215L221 1258M221 1258L307 1242M221 1258L229 1315M221 1258L286 1343M307 1242L385 1258M307 1242L388 1288M385 1258L478 1212M385 1258L487 1267M385 1258L388 1288M478 1212L487 1267M487 1267L471 1344M487 1267L489 1332M679 1269L756 1258M679 1269L630 1342M679 1269L711 1281M679 1269L721 1284M756 1258L855 1257M756 1258L711 1281M756 1258L721 1284M756 1258L854 1293M855 1257L891 1205M855 1257L854 1293M891 1205L979 1209M891 1205L854 1293M979 1209L955 1311M979 1209L982 1310M1095 1241L1158 1241M1095 1241L1049 1305M1095 1241L1138 1313M1158 1241L1261 1217M1158 1241L1138 1313M1158 1241L1202 1287M1261 1217L1339 1260M1261 1217L1202 1287M1339 1260L1315 1359M1339 1260L1397 1291M1426 1233L1480 1255M1426 1233L1397 1291M1480 1255L1397 1291M1480 1255L1495 1348M1480 1255L1525 1300M1574 1219L1660 1265M1574 1219L1525 1300M1660 1265L1737 1204M1660 1265L1624 1338M1660 1265L1689 1345M1737 1204L1767 1213M1767 1213L1868 1233M1868 1233L1957 1281M1964 1212L2063 1207M1964 1212L1957 1281M1964 1212L2024 1285M2063 1207L2116 1218M2063 1207L2024 1285M2116 1218L2199 1265M2116 1218L2135 1326M2199 1265L2270 1235M2199 1265L2135 1326M2199 1265L2214 1317M2270 1235L2347 1223M2347 1223L2432 1218M2432 1218L2490 1204M2432 1218L2463 1285M2490 1204L2463 1285M2 1281L-97 1285M2 1281L-27 1322M2 1281L78 1368M2562 1281L2463 1285M2562 1281L2533 1322M115 1351L229 1315M115 1351L78 1368M115 1351L83 1395M115 1351L199 1377M229 1315L286 1343M229 1315L199 1377M286 1343L199 1377M286 1343L313 1411M388 1288L471 1344M388 1288L489 1332M471 1344L489 1332M471 1344L432 1379M471 1344L518 1398M489 1332L432 1379M489 1332L518 1398M630 1342L711 1281M630 1342L568 1405M630 1342L701 1403M630 1342L720 1379M711 1281L721 1284M721 1284L701 1403M721 1284L720 1379M854 1293L945 1363M955 1311L982 1310M955 1311L1049 1305M955 1311L945 1363M955 1311L1038 1365M982 1310L1049 1305M982 1310L945 1363M982 1310L1038 1365M1049 1305L1138 1313M1049 1305L1038 1365M1138 1313L1202 1287M1138 1313L1151 1376M1202 1287L1151 1376M1202 1287L1227 1379M1315 1359L1397 1291M1315 1359L1227 1379M1315 1359L1345 1400M1315 1359L1383 1375M1397 1291L1383 1375M1495 1348L1525 1300M1495 1348L1383 1375M1495 1348L1448 1408M1495 1348L1529 1430M1525 1300L1624 1338M1624 1338L1689 1345M1624 1338L1643 1425M1689 1345L1767 1359M1689 1345L1643 1425M1689 1345L1746 1409M1767 1359L1841 1352M1767 1359L1746 1409M1767 1359L1808 1385M1841 1352L1957 1281M1841 1352L1808 1385M1841 1352L1917 1431M1957 1281L2024 1285M1957 1281L1978 1387M2024 1285L1978 1387M2024 1285L2071 1368M2135 1326L2214 1317M2135 1326L2071 1368M2135 1326L2087 1392M2214 1317L2274 1331M2274 1331L2235 1420M2274 1331L2370 1393M2396 1349L2463 1285M2396 1349L2317 1416M2396 1349L2370 1393M2396 1349L2427 1371M2396 1349L2498 1376M2463 1285L2533 1322M2533 1322L2638 1368M2533 1322L2643 1395M2533 1322L2498 1376M-27 1322L78 1368M-27 1322L83 1395M78 1368L83 1395M83 1395L199 1377M313 1411L388 1418M388 1418L432 1379M432 1379L518 1398M518 1398L568 1405M701 1403L720 1379M720 1379L824 1418M945 1363L1038 1365M945 1363L1078 1407M1038 1365L1078 1407M1078 1407L1151 1376M1151 1376L1227 1379M1227 1379L1345 1400M1345 1400L1383 1375M1345 1400L1448 1408M1383 1375L1448 1408M1448 1408L1529 1430M1746 1409L1808 1385M1917 1431L1978 1387M1978 1387L2071 1368M1978 1387L2087 1392M2071 1368L2087 1392M2235 1420L2317 1416M2317 1416L2370 1393M2370 1393L2427 1371M2427 1371L2498 1376"/></svg>