<svg xmlns="http://www.w3.org/2000/svg" width="2560" height="1440" fill="#fff"><circle cx="38" cy="25" r="5"/><circle cx="148" cy="16" r="4"/><circle cx="189" cy="57" r="5"/><circle cx="315" cy="52" r="4"/><circle cx="360" cy="60" r="6"/><circle cx="401" cy="63" r="4"/><circle cx="528" cy="39" r="4"/><circle cx="583" cy="42" r="4"/><circle cx="644" cy="73" r="4"/><circle cx="727" cy="41" r="6"/><circle cx="831" cy="42" r="4"/><circle cx="926" cy="56" r="5"/><circle cx="1000" cy="53" r="4"/><circle cx="1096" cy="70" r="5"/><circle cx="1167" cy="20" r="5"/><circle cx="1269" cy="22" r="5"/><circle cx="1323" cy="45" r="5"/><circle cx="1373" cy="47" r="5"/><circle cx="1440" cy="57" r="5"/><circle cx="1523" cy="0" r="5"/><circle cx="1523" cy="1440" r="5"/><circle cx="1646" cy="10" r="4"/><circle cx="1721" cy="72" r="6"/><circle cx="1816" cy="64" r="5"/><circle cx="1904" cy="56" r="5"/><circle cx="1979" cy="79" r="6"/><circle cx="2076" cy="57" r="5"/><circle cx="2124" cy="12" r="5"/><circle cx="2201" cy="3" r="5"/><circle cx="2201" cy="1443" r="5"/><circle cx="2261" cy="5" r="6"/><circle cx="2261" cy="1445" r="6"/><circle cx="2328" cy="48" r="4"/><circle cx="2406" cy="13" r="5"/><circle cx="2500" cy="41" r="5"/><circle cx="50" cy="84" r="4"/><circle cx="120" cy="108" r="5"/><circle cx="178" cy="144" r="5"/><circle cx="319" cy="120" r="4"/><circle cx="337" cy="84" r="5"/><circle cx="415" cy="144" r="5"/><circle cx="550" cy="154" r="4"/><circle cx="598" cy="113" r="4"/><circle cx="657" cy="105" r="6"/><circle cx="769" cy="123" r="5"/><circle cx="852" cy="112" r="5"/><circle cx="951" cy="110" r="5"/><circle cx="982" cy="94" r="5"/><circle cx="1044" cy="88" r="6"/><circle cx="1195" cy="119" r="5"/><circle cx="1226" cy="109" r="6"/><circle cx="1360" cy="88" r="6"/><circle cx="1371" cy="129" r="6"/><circle cx="1465" cy="83" r="6"/><circle cx="1582" cy="134" r="5"/><circle cx="1679" cy="101" r="5"/><circle cx="1700" cy="82" r="5"/><circle cx="1816" cy="119" r="4"/><circle cx="1891" cy="90" r="5"/><circle cx="1962" cy="107" r="5"/><circle cx="2057" cy="153" r="6"/><circle cx="2107" cy="152" r="5"/><circle cx="2175" cy="135" r="4"/><circle cx="2265" cy="154" r="6"/><circle cx="2386" cy="100" r="6"/><circle cx="2414" cy="118" r="5"/><circle cx="2542" cy="136" r="5"/><circle cx="51" cy="205" r="5"/><circle cx="129" cy="185" r="4"/><circle cx="204" cy="205" r="4"/><circle cx="280" cy="219" r="5"/><circle cx="393" cy="224" r="4"/><circle cx="472" cy="195" r="4"/><circle cx="545" cy="232" r="5"/><circle cx="563" cy="217" r="5"/><circle cx="715" cy="164" r="4"/><circle cx="781" cy="208" r="5"/><circle cx="817" cy="229" r="4"/><circle cx="897" cy="188" r="5"/><circle cx="977" cy="178" r="6"/><circle cx="1092" cy="202" r="5"/><circle cx="1186" cy="215" r="6"/><circle cx="1220" cy="165" r="5"/><circle cx="1312" cy="185" r="6"/><circle cx="1404" cy="186" r="5"/><circle cx="1520" cy="162" r="5"/><circle cx="1552" cy="175" r="4"/><circle cx="1601" cy="231" r="6"/><circle cx="1714" cy="216" r="5"/><circle cx="1788" cy="190" r="5"/><circle cx="1861" cy="183" r="5"/><circle cx="1930" cy="213" r="6"/><circle cx="2034" cy="238" r="6"/><circle cx="2142" cy="175" r="4"/><circle cx="2164" cy="168" r="5"/><circle cx="2315" cy="204" r="4"/><circle cx="2365" cy="218" r="5"/><circle cx="2432" cy="212" r="4"/><circle cx="2551" cy="239" r="6"/><circle cx="19" cy="302" r="5"/><circle cx="140" cy="251" r="5"/><circle cx="207" cy="278" r="5"/><circle cx="261" cy="277" r="6"/><circle cx="322" cy="258" r="5"/><circle cx="434" cy="305" r="5"/><circle cx="521" cy="252" r="5"/><circle cx="586" cy="267" r="4"/><circle cx="671" cy="273" r="5"/><circle cx="765" cy="255" r="5"/><circle cx="809" cy="264" r="5"/><circle cx="947" cy="258" r="6"/><circle cx="1020" cy="272" r="5"/><circle cx="1105" cy="264" r="4"/><circle cx="1127" cy="250" r="4"/><circle cx="1210" cy="265" r="6"/><circle cx="1311" cy="293" r="5"/><circle cx="1437" cy="272" r="5"/><circle cx="1502" cy="292" r="5"/><circle cx="1593" cy="243" r="4"/><circle cx="1606" cy="290" r="5"/><circle cx="1697" cy="273" r="5"/><circle cx="1795" cy="258" r="5"/><circle cx="1848" cy="296" r="5"/><circle cx="1949" cy="308" r="4"/><circle cx="2005" cy="290" r="4"/><circle cx="2145" cy="303" r="5"/><circle cx="2223" cy="253" r="5"/><circle cx="2242" cy="272" r="6"/><circle cx="2379" cy="320" r="5"/><circle cx="2456" cy="295" r="4"/><circle cx="2529" cy="302" r="6"/><circle cx="32" cy="391" r="6"/><circle cx="95" cy="363" r="4"/><circle cx="231" cy="387" r="4"/><circle cx="293" cy="384" r="4"/><circle cx="372" cy="326" r="6"/><circle cx="444" cy="399" r="4"/><circle cx="519" cy="352" r="5"/><circle cx="639" cy="343" r="5"/><circle cx="680" cy="376" r="4"/><circle cx="732" cy="338" r="6"/><circle cx="828" cy="371" r="5"/><circle cx="894" cy="348" r="5"/><circle cx="1016" cy="329" r="4"/><circle cx="1049" cy="374" r="5"/><circle cx="1140" cy="357" r="5"/><circle cx="1260" cy="346" r="5"/><circle cx="1338" cy="383" r="6"/><circle cx="1377" cy="327" r="5"/><circle cx="1503" cy="382" r="6"/><circle cx="1543" cy="355" r="5"/><circle cx="1648" cy="392" r="5"/><circle cx="1760" cy="393" r="5"/><circle cx="1835" cy="397" r="6"/><circle cx="1874" cy="324" r="5"/><circle cx="1934" cy="393" r="5"/><circle cx="2072" cy="381" r="4"/><circle cx="2139" cy="351" r="5"/><circle cx="2162" cy="347" r="4"/><circle cx="2304" cy="397" r="5"/><circle cx="2328" cy="374" r="6"/><circle cx="2422" cy="344" r="5"/><circle cx="2540" cy="337" r="4"/><circle cx="47" cy="459" r="5"/><circle cx="84" cy="402" r="6"/><circle cx="195" cy="452" r="5"/><circle cx="265" cy="406" r="5"/><circle cx="324" cy="477" r="5"/><circle cx="473" cy="418" r="4"/><circle cx="543" cy="419" r="5"/><circle cx="587" cy="453" r="6"/><circle cx="665" cy="474" r="4"/><circle cx="741" cy="431" r="5"/><circle cx="874" cy="427" r="5"/><circle cx="921" cy="411" r="6"/><circle cx="982" cy="409" r="6"/><circle cx="1065" cy="466" r="4"/><circle cx="1162" cy="424" r="5"/><circle cx="1235" cy="426" r="6"/><circle cx="1309" cy="446" r="4"/><circle cx="1370" cy="454" r="5"/><circle cx="1511" cy="470" r="5"/><circle cx="1584" cy="408" r="4"/><circle cx="1662" cy="455" r="5"/><circle cx="1733" cy="406" r="5"/><circle cx="1821" cy="479" r="5"/><circle cx="1894" cy="400" r="4"/><circle cx="1997" cy="433" r="6"/><circle cx="2058" cy="413" r="6"/><circle cx="2110" cy="427" r="5"/><circle cx="2167" cy="467" r="5"/><circle cx="2275" cy="429" r="6"/><circle cx="2374" cy="473" r="4"/><circle cx="2452" cy="438" r="5"/><circle cx="2500" cy="417" r="5"/><circle cx="13" cy="508" r="6"/><circle cx="135" cy="514" r="4"/><circle cx="164" cy="529" r="4"/><circle cx="286" cy="516" r="6"/><circle cx="399" cy="519" r="6"/><circle cx="478" cy="514" r="5"/><circle cx="488" cy="487" r="4"/><circle cx="623" cy="506" r="5"/><circle cx="715" cy="493" r="5"/><circle cx="727" cy="542" r="5"/><circle cx="849" cy="494" r="6"/><circle cx="944" cy="559" r="4"/><circle cx="1035" cy="544" r="4"/><circle cx="1080" cy="549" r="6"/><circle cx="1155" cy="493" r="4"/><circle cx="1270" cy="539" r="5"/><circle cx="1306" cy="522" r="5"/><circle cx="1398" cy="524" r="5"/><circle cx="1501" cy="494" r="5"/><circle cx="1522" cy="538" r="4"/><circle cx="1671" cy="540" r="6"/><circle cx="1748" cy="526" r="5"/><circle cx="1823" cy="527" r="5"/><circle cx="1871" cy="530" r="5"/><circle cx="1958" cy="533" r="4"/><circle cx="2070" cy="530" r="5"/><circle cx="2104" cy="532" r="4"/><circle cx="2172" cy="554" r="5"/><circle cx="2313" cy="549" r="4"/><circle cx="2354" cy="543" r="6"/><circle cx="2409" cy="509" r="5"/><circle cx="2483" cy="523" r="5"/><circle cx="45" cy="582" r="4"/><circle cx="87" cy="608" r="4"/><circle cx="179" cy="620" r="5"/><circle cx="283" cy="580" r="6"/><circle cx="370" cy="560" r="5"/><circle cx="448" cy="578" r="5"/><circle cx="523" cy="588" r="5"/><circle cx="590" cy="638" r="5"/><circle cx="679" cy="622" r="4"/><circle cx="740" cy="625" r="5"/><circle cx="820" cy="637" r="5"/><circle cx="882" cy="579" r="6"/><circle cx="963" cy="581" r="5"/><circle cx="1057" cy="601" r="6"/><circle cx="1125" cy="597" r="5"/><circle cx="1251" cy="592" r="4"/><circle cx="1351" cy="612" r="5"/><circle cx="1433" cy="638" r="4"/><circle cx="1462" cy="619" r="4"/><circle cx="1589" cy="574" r="6"/><circle cx="1604" cy="569" r="6"/><circle cx="1747" cy="613" r="4"/><circle cx="1784" cy="620" r="6"/><circle cx="1871" cy="567" r="4"/><circle cx="1943" cy="616" r="6"/><circle cx="2070" cy="569" r="5"/><circle cx="2085" cy="607" r="5"/><circle cx="2210" cy="621" r="5"/><circle cx="2304" cy="632" r="6"/><circle cx="2344" cy="622" r="4"/><circle cx="2436" cy="591" r="5"/><circle cx="2518" cy="610" r="6"/><circle cx="57" cy="672" r="5"/><circle cx="82" cy="694" r="4"/><circle cx="198" cy="717" r="4"/><circle cx="260" cy="671" r="5"/><circle cx="361" cy="718" r="6"/><circle cx="456" cy="676" r="6"/><circle cx="526" cy="687" r="6"/><circle cx="596" cy="665" r="5"/><circle cx="676" cy="690" r="5"/><circle cx="749" cy="686" r="5"/><circle cx="872" cy="696" r="4"/><circle cx="952" cy="713" r="4"/><circle cx="994" cy="650" r="5"/><circle cx="1073" cy="673" r="6"/><circle cx="1140" cy="686" r="4"/><circle cx="1275" cy="709" r="5"/><circle cx="1354" cy="668" r="5"/><circle cx="1369" cy="710" r="5"/><circle cx="1454" cy="692" r="6"/><circle cx="1553" cy="693" r="5"/><circle cx="1623" cy="660" r="5"/><circle cx="1756" cy="652" r="5"/><circle cx="1833" cy="651" r="5"/><circle cx="1883" cy="651" r="5"/><circle cx="1957" cy="681" r="6"/><circle cx="2004" cy="655" r="5"/><circle cx="2112" cy="663" r="4"/><circle cx="2184" cy="705" r="4"/><circle cx="2311" cy="645" r="6"/><circle cx="2377" cy="641" r="4"/><circle cx="2456" cy="666" r="5"/><circle cx="2505" cy="645" r="4"/><circle cx="1" cy="725" r="4"/><circle cx="2561" cy="725" r="4"/><circle cx="160" cy="798" r="6"/><circle cx="196" cy="727" r="6"/><circle cx="282" cy="778" r="4"/><circle cx="354" cy="771" r="5"/><circle cx="463" cy="799" r="4"/><circle cx="510" cy="792" r="6"/><circle cx="626" cy="772" r="6"/><circle cx="717" cy="764" r="5"/><circle cx="780" cy="783" r="6"/><circle cx="828" cy="750" r="5"/><circle cx="898" cy="776" r="5"/><circle cx="981" cy="790" r="5"/><circle cx="1064" cy="761" r="5"/><circle cx="1198" cy="728" r="5"/><circle cx="1230" cy="790" r="5"/><circle cx="1337" cy="728" r="4"/><circle cx="1418" cy="748" r="6"/><circle cx="1483" cy="748" r="6"/><circle cx="1523" cy="775" r="5"/><circle cx="1621" cy="778" r="5"/><circle cx="1704" cy="768" r="6"/><circle cx="1839" cy="787" r="6"/><circle cx="1876" cy="733" r="5"/><circle cx="1964" cy="786" r="5"/><circle cx="2025" cy="793" r="6"/><circle cx="2157" cy="771" r="5"/><circle cx="2207" cy="783" r="5"/><circle cx="2301" cy="726" r="4"/><circle cx="2370" cy="741" r="4"/><circle cx="2466" cy="789" r="4"/><circle cx="2505" cy="800" r="6"/><circle cx="64" cy="871" r="5"/><circle cx="103" cy="851" r="5"/><circle cx="238" cy="838" r="6"/><circle cx="264" cy="815" r="5"/><circle cx="377" cy="842" r="6"/><circle cx="478" cy="854" r="4"/><circle cx="505" cy="816" r="4"/><circle cx="571" cy="853" r="6"/><circle cx="701" cy="863" r="4"/><circle cx="753" cy="847" r="5"/><circle cx="877" cy="839" r="5"/><circle cx="906" cy="811" r="5"/><circle cx="1033" cy="841" r="6"/><circle cx="1044" cy="852" r="5"/><circle cx="1142" cy="862" r="5"/><circle cx="1222" cy="840" r="5"/><circle cx="1285" cy="816" r="5"/><circle cx="1427" cy="848" r="5"/><circle cx="1484" cy="855" r="6"/><circle cx="1550" cy="820" r="4"/><circle cx="1633" cy="868" r="4"/><circle cx="1720" cy="826" r="4"/><circle cx="1821" cy="803" r="4"/><circle cx="1843" cy="861" r="5"/><circle cx="1984" cy="864" r="4"/><circle cx="2064" cy="826" r="6"/><circle cx="2103" cy="847" r="6"/><circle cx="2205" cy="870" r="4"/><circle cx="2309" cy="826" r="6"/><circle cx="2366" cy="842" r="4"/><circle cx="2451" cy="857" r="6"/><circle cx="2531" cy="822" r="5"/><circle cx="47" cy="886" r="5"/><circle cx="113" cy="889" r="5"/><circle cx="216" cy="888" r="5"/><circle cx="317" cy="901" r="4"/><circle cx="337" cy="944" r="5"/><circle cx="461" cy="882" r="5"/><circle cx="482" cy="946" r="5"/><circle cx="629" cy="953" r="6"/><circle cx="670" cy="918" r="6"/><circle cx="722" cy="920" r="4"/><circle cx="822" cy="895" r="5"/><circle cx="899" cy="899" r="6"/><circle cx="985" cy="894" r="5"/><circle cx="1106" cy="926" r="4"/><circle cx="1191" cy="897" r="5"/><circle cx="1209" cy="930" r="5"/><circle cx="1322" cy="918" r="4"/><circle cx="1382" cy="899" r="5"/><circle cx="1495" cy="884" r="5"/><circle cx="1584" cy="932" r="5"/><circle cx="1604" cy="918" r="5"/><circle cx="1717" cy="886" r="5"/><circle cx="1764" cy="950" r="5"/><circle cx="1894" cy="940" r="6"/><circle cx="1939" cy="953" r="5"/><circle cx="2054" cy="941" r="5"/><circle cx="2155" cy="940" r="5"/><circle cx="2226" cy="884" r="5"/><circle cx="2312" cy="883" r="5"/><circle cx="2353" cy="916" r="5"/><circle cx="2429" cy="933" r="4"/><circle cx="2509" cy="891" r="6"/><circle cx="59" cy="998" r="5"/><circle cx="130" cy="970" r="4"/><circle cx="186" cy="1019" r="5"/><circle cx="296" cy="985" r="5"/><circle cx="385" cy="976" r="5"/><circle cx="471" cy="1027" r="5"/><circle cx="509" cy="979" r="4"/><circle cx="578" cy="1007" r="4"/><circle cx="697" cy="1029" r="6"/><circle cx="784" cy="1015" r="6"/><circle cx="807" cy="991" r="5"/><circle cx="928" cy="975" r="6"/><circle cx="1036" cy="979" r="6"/><circle cx="1108" cy="1011" r="5"/><circle cx="1160" cy="1020" r="4"/><circle cx="1245" cy="975" r="4"/><circle cx="1323" cy="1025" r="5"/><circle cx="1376" cy="971" r="6"/><circle cx="1446" cy="974" r="5"/><circle cx="1598" cy="1031" r="4"/><circle cx="1658" cy="960" r="5"/><circle cx="1757" cy="1006" r="5"/><circle cx="1809" cy="1037" r="4"/><circle cx="1859" cy="983" r="5"/><circle cx="1979" cy="983" r="5"/><circle cx="2008" cy="1034" r="5"/><circle cx="2153" cy="995" r="4"/><circle cx="2200" cy="998" r="5"/><circle cx="2300" cy="969" r="4"/><circle cx="2327" cy="1038" r="4"/><circle cx="2476" cy="967" r="5"/><circle cx="2506" cy="963" r="6"/><circle cx="49" cy="1113" r="5"/><circle cx="89" cy="1052" r="6"/><circle cx="239" cy="1075" r="5"/><circle cx="247" cy="1043" r="5"/><circle cx="384" cy="1085" r="6"/><circle cx="428" cy="1056" r="5"/><circle cx="537" cy="1101" r="5"/><circle cx="620" cy="1080" r="5"/><circle cx="698" cy="1047" r="6"/><circle cx="761" cy="1119" r="5"/><circle cx="863" cy="1098" r="4"/><circle cx="901" cy="1054" r="4"/><circle cx="1037" cy="1067" r="5"/><circle cx="1082" cy="1095" r="4"/><circle cx="1126" cy="1072" r="5"/><circle cx="1216" cy="1066" r="6"/><circle cx="1311" cy="1077" r="4"/><circle cx="1361" cy="1107" r="6"/><circle cx="1482" cy="1117" r="5"/><circle cx="1549" cy="1101" r="6"/><circle cx="1635" cy="1097" r="5"/><circle cx="1739" cy="1040" r="6"/><circle cx="1834" cy="1103" r="4"/><circle cx="1903" cy="1070" r="6"/><circle cx="1935" cy="1044" r="4"/><circle cx="2058" cy="1106" r="6"/><circle cx="2116" cy="1073" r="4"/><circle cx="2186" cy="1061" r="5"/><circle cx="2252" cy="1042" r="5"/><circle cx="2327" cy="1079" r="5"/><circle cx="2446" cy="1067" r="4"/><circle cx="2525" cy="1066" r="6"/><circle cx="35" cy="1194" r="5"/><circle cx="102" cy="1183" r="5"/><circle cx="239" cy="1140" r="4"/><circle cx="258" cy="1148" r="6"/><circle cx="325" cy="1188" r="6"/><circle cx="400" cy="1153" r="5"/><circle cx="554" cy="1176" r="5"/><circle cx="616" cy="1178" r="6"/><circle cx="717" cy="1188" r="4"/><circle cx="775" cy="1186" r="4"/><circle cx="870" cy="1149" r="5"/><circle cx="912" cy="1191" r="4"/><circle cx="962" cy="1159" r="5"/><circle cx="1041" cy="1164" r="5"/><circle cx="1193" cy="1165" r="6"/><circle cx="1215" cy="1174" r="4"/><circle cx="1330" cy="1167" r="5"/><circle cx="1365" cy="1128" r="5"/><circle cx="1495" cy="1193" r="4"/><circle cx="1595" cy="1171" r="6"/><circle cx="1605" cy="1188" r="6"/><circle cx="1752" cy="1129" r="4"/><circle cx="1838" cy="1180" r="4"/><circle cx="1876" cy="1169" r="5"/><circle cx="1958" cy="1129" r="6"/><circle cx="2046" cy="1198" r="4"/><circle cx="2140" cy="1183" r="5"/><circle cx="2235" cy="1166" r="4"/><circle cx="2260" cy="1165" r="6"/><circle cx="2359" cy="1170" r="5"/><circle cx="2455" cy="1195" r="5"/><circle cx="2506" cy="1162" r="6"/><circle cx="63" cy="1220" r="5"/><circle cx="136" cy="1274" r="4"/><circle cx="215" cy="1236" r="5"/><circle cx="304" cy="1262" r="5"/><circle cx="343" cy="1219" r="5"/><circle cx="464" cy="1247" r="5"/><circle cx="496" cy="1265" r="6"/><circle cx="629" cy="1274" r="4"/><circle cx="712" cy="1260" r="6"/><circle cx="768" cy="1231" r="5"/><circle cx="828" cy="1256" r="6"/><circle cx="938" cy="1215" r="5"/><circle cx="978" cy="1204" r="4"/><circle cx="1053" cy="1231" r="5"/><circle cx="1191" cy="1278" r="5"/><circle cx="1236" cy="1220" r="5"/><circle cx="1347" cy="1245" r="5"/><circle cx="1432" cy="1266" r="5"/><circle cx="1514" cy="1234" r="5"/><circle cx="1535" cy="1259" r="4"/><circle cx="1615" cy="1232" r="4"/><circle cx="1722" cy="1201" r="5"/><circle cx="1832" cy="1267" r="4"/><circle cx="1892" cy="1220" r="6"/><circle cx="1975" cy="1221" r="6"/><circle cx="2065" cy="1255" r="4"/><circle cx="2125" cy="1248" r="6"/><circle cx="2227" cy="1257" r="4"/><circle cx="2279" cy="1275" r="4"/><circle cx="2353" cy="1273" r="6"/><circle cx="2442" cy="1208" r="5"/><circle cx="2536" cy="1278" r="5"/><circle cx="2" cy="1290" r="5"/><circle cx="2562" cy="1290" r="5"/><circle cx="85" cy="1345" r="5"/><circle cx="214" cy="1323" r="5"/><circle cx="319" cy="1317" r="5"/><circle cx="362" cy="1282" r="4"/><circle cx="451" cy="1308" r="5"/><circle cx="513" cy="1289" r="5"/><circle cx="630" cy="1350" r="6"/><circle cx="709" cy="1287" r="5"/><circle cx="732" cy="1343" r="5"/><circle cx="879" cy="1298" r="5"/><circle cx="937" cy="1346" r="4"/><circle cx="1034" cy="1307" r="5"/><circle cx="1068" cy="1294" r="5"/><circle cx="1136" cy="1329" r="5"/><circle cx="1210" cy="1330" r="5"/><circle cx="1359" cy="1320" r="4"/><circle cx="1388" cy="1303" r="6"/><circle cx="1491" cy="1308" r="4"/><circle cx="1528" cy="1319" r="6"/><circle cx="1626" cy="1331" r="5"/><circle cx="1750" cy="1326" r="6"/><circle cx="1778" cy="1334" r="5"/><circle cx="1843" cy="1309" r="4"/><circle cx="1995" cy="1318" r="4"/><circle cx="2053" cy="1347" r="5"/><circle cx="2086" cy="1305" r="5"/><circle cx="2205" cy="1301" r="5"/><circle cx="2276" cy="1351" r="6"/><circle cx="2337" cy="1292" r="5"/><circle cx="2478" cy="1337" r="5"/><circle cx="2549" cy="1335" r="5"/><circle cx="9" cy="1398" r="6"/><circle cx="115" cy="1419" r="5"/><circle cx="169" cy="1387" r="5"/><circle cx="253" cy="1404" r="5"/><circle cx="364" cy="1378" r="5"/><circle cx="406" cy="1426" r="5"/><circle cx="520" cy="1405" r="4"/><circle cx="633" cy="1425" r="5"/><circle cx="713" cy="1374" r="6"/><circle cx="779" cy="1395" r="4"/><circle cx="877" cy="1424" r="6"/><circle cx="927" cy="1429" r="5"/><circle cx="1030" cy="1417" r="4"/><circle cx="1116" cy="1369" r="5"/><circle cx="1178" cy="1362" r="6"/><circle cx="1212" cy="1422" r="5"/><circle cx="1284" cy="1428" r="6"/><circle cx="1427" cy="1368" r="4"/><circle cx="1473" cy="1440" r="5"/><circle cx="1473" cy="-0" r="5"/><circle cx="1521" cy="1370" r="5"/><circle cx="1625" cy="1381" r="4"/><circle cx="1740" cy="1435" r="5"/><circle cx="1740" cy="-5" r="5"/><circle cx="1822" cy="1364" r="6"/><circle cx="1844" cy="1426" r="6"/><circle cx="1948" cy="1400" r="4"/><circle cx="2066" cy="1385" r="4"/><circle cx="2148" cy="1400" r="4"/><circle cx="2164" cy="1396" r="6"/><circle cx="2251" cy="1378" r="5"/><circle cx="2383" cy="1416" r="6"/><circle cx="2444" cy="1432" r="5"/><circle cx="2500" cy="1428" r="5"/><path stroke="#fff" d="M38 25L-60 41M38 25L50 84M38 25L9 -42M38 25L115 -21M2598 25L2500 41M38 1465L9 1398M38 1465L115 1419M148 16L189 57M148 16L120 108M148 16L115 -21M148 16L169 -53M148 16L253 -36M148 1456L115 1419M148 1456L169 1387M148 1456L253 1404M189 57L120 108M189 57L178 144M315 52L360 60M315 52L401 63M315 52L319 120M315 52L337 84M315 52L253 -36M315 1492L253 1404M360 60L401 63M360 60L319 120M360 60L337 84M360 60L406 -14M360 1500L406 1426M401 63L337 84M401 63L415 144M401 63L406 -14M401 1503L406 1426M528 39L583 42M528 39L598 113M528 39L520 -35M528 1479L520 1405M583 42L644 73M583 42L598 113M583 42L657 105M583 42L633 -15M583 1482L633 1425M644 73L727 41M644 73L598 113M644 73L657 105M644 73L633 -15M644 1513L633 1425M727 41L657 105M727 41L769 123M727 41L779 -45M727 1481L779 1395M831 42L769 123M831 42L852 112M831 42L779 -45M831 42L877 -16M831 1482L779 1395M831 1482L877 1424M926 56L1000 53M926 56L951 110M926 56L982 94M926 56L877 -16M926 56L927 -11M926 1496L877 1424M926 1496L927 1429M1000 53L951 110M1000 53L982 94M1000 53L1044 88M1000 53L1030 -23M1000 1493L1030 1417M1096 70L1167 20M1096 70L1044 88M1096 70L1195 119M1096 70L1030 -23M1096 1510L1030 1417M1167 20L1269 22M1167 20L1212 -18M1167 1460L1212 1422M1269 22L1323 45M1269 22L1226 109M1269 22L1212 -18M1269 22L1284 -12M1269 1462L1212 1422M1269 1462L1284 1428M1323 45L1373 47M1323 45L1360 88M1323 45L1284 -12M1323 1485L1284 1428M1373 47L1440 57M1373 47L1360 88M1373 47L1371 129M1440 57L1360 88M1440 57L1465 83M1440 57L1473 -0M1440 1497L1473 1440M1523 0L1465 83M1523 0L1473 -0M1523 0L1521 -70M1523 0L1625 -59M1523 1440L1473 1440M1523 1440L1521 1370M1523 1440L1625 1381M1646 10L1721 72M1646 10L1679 101M1646 10L1700 82M1646 10L1625 -59M1646 1450L1625 1381M1721 72L1816 64M1721 72L1679 101M1721 72L1700 82M1721 72L1740 -5M1721 1512L1740 1435M1816 64L1904 56M1816 64L1816 119M1816 64L1891 90M1816 64L1844 -14M1816 1504L1844 1426M1904 56L1979 79M1904 56L1891 90M1904 56L1962 107M1904 56L1844 -14M1904 1496L1844 1426M1979 79L2076 57M1979 79L1891 90M1979 79L1962 107M1979 79L2057 153M2076 57L2124 12M2076 57L2057 153M2076 57L2107 152M2124 12L2201 3M2124 12L2066 -55M2124 12L2148 -40M2124 12L2164 -44M2124 1452L2066 1385M2124 1452L2148 1400M2124 1452L2164 1396M2201 3L2261 5M2201 3L2148 -40M2201 3L2164 -44M2201 3L2251 -62M2201 1443L2148 1400M2201 1443L2164 1396M2201 1443L2251 1378M2261 5L2328 48M2261 5L2276 -89M2261 5L2164 -44M2261 5L2251 -62M2261 1445L2276 1351M2261 1445L2164 1396M2261 1445L2251 1378M2328 48L2406 13M2328 48L2386 100M2328 48L2414 118M2328 48L2383 -24M2328 1488L2383 1416M2406 13L2386 100M2406 13L2383 -24M2406 13L2444 -8M2406 13L2500 -12M2406 1453L2383 1416M2406 1453L2444 1432M2406 1453L2500 1428M2500 41L2542 136M2500 41L2444 -8M2500 41L2500 -12M2500 1481L2444 1432M2500 1481L2500 1428M50 84L120 108M50 84L-18 136M2610 84L2542 136M120 108L178 144M120 108L129 185M178 144L129 185M178 144L204 205M178 144L140 251M319 120L337 84M319 120L415 144M319 120L280 219M337 84L415 144M415 144L393 224M415 144L472 195M550 154L598 113M550 154L472 195M550 154L545 232M550 154L563 217M598 113L657 105M657 105L715 164M769 123L852 112M769 123L715 164M769 123L781 208M852 112L897 188M951 110L982 94M951 110L1044 88M951 110L977 178M982 94L1044 88M982 94L977 178M1195 119L1226 109M1195 119L1186 215M1195 119L1220 165M1226 109L1220 165M1226 109L1312 185M1360 88L1371 129M1371 129L1465 83M1371 129L1312 185M1371 129L1404 186M1465 83L1520 162M1465 83L1473 -0M1465 1523L1473 1440M1582 134L1679 101M1582 134L1520 162M1582 134L1552 175M1582 134L1601 231M1679 101L1700 82M1679 101L1714 216M1700 82L1740 -5M1700 1522L1740 1435M1816 119L1891 90M1816 119L1788 190M1816 119L1861 183M1891 90L1962 107M1962 107L1930 213M2057 153L2107 152M2057 153L2034 238M2057 153L2142 175M2107 152L2175 135M2107 152L2142 175M2107 152L2164 168M2175 135L2265 154M2175 135L2142 175M2175 135L2164 168M2265 154L2164 168M2265 154L2315 204M2265 154L2223 253M2265 154L2242 272M2386 100L2414 118M2386 100L2365 218M2386 100L2383 -24M2386 1540L2383 1416M2414 118L2542 136M2414 118L2365 218M2414 118L2432 212M2542 136L2611 205M2542 136L2551 239M-18 136L51 205M51 205L129 185M51 205L-9 239M51 205L140 251M2611 205L2551 239M129 185L204 205M129 185L140 251M204 205L280 219M204 205L140 251M204 205L207 278M280 219L207 278M280 219L261 277M280 219L322 258M393 224L472 195M393 224L322 258M393 224L434 305M393 224L372 326M472 195L545 232M472 195L521 252M545 232L563 217M545 232L521 252M545 232L586 267M563 217L521 252M563 217L586 267M715 164L781 208M781 208L817 229M781 208L765 255M781 208L809 264M817 229L897 188M817 229L765 255M817 229L809 264M897 188L977 178M897 188L947 258M977 178L947 258M977 178L1020 272M1092 202L1186 215M1092 202L1020 272M1092 202L1105 264M1092 202L1127 250M1186 215L1220 165M1186 215L1127 250M1186 215L1210 265M1220 165L1312 185M1220 165L1210 265M1312 185L1404 186M1312 185L1311 293M1404 186L1520 162M1404 186L1437 272M1520 162L1552 175M1552 175L1601 231M1552 175L1593 243M1601 231L1593 243M1601 231L1606 290M1601 231L1697 273M1714 216L1788 190M1714 216L1697 273M1714 216L1795 258M1788 190L1861 183M1788 190L1795 258M1861 183L1930 213M1861 183L1795 258M1861 183L1848 296M1930 213L2034 238M1930 213L1949 308M1930 213L2005 290M2034 238L1949 308M2034 238L2005 290M2142 175L2164 168M2164 168L2223 253M2315 204L2365 218M2315 204L2223 253M2315 204L2242 272M2365 218L2432 212M2365 218L2379 320M2432 212L2456 295M2551 239L2579 302M2551 239L2529 302M2551 239L2540 337M-9 239L19 302M19 302L-31 302M19 302L32 391M19 302L95 363M19 302L-20 337M2579 302L2529 302M2579 302L2540 337M140 251L207 278M207 278L261 277M207 278L322 258M261 277L322 258M261 277L293 384M322 258L372 326M434 305L521 252M434 305L372 326M434 305L444 399M434 305L519 352M521 252L586 267M586 267L671 273M586 267L639 343M671 273L765 255M671 273L639 343M671 273L680 376M671 273L732 338M765 255L809 264M765 255L732 338M809 264L828 371M947 258L1020 272M947 258L894 348M947 258L1016 329M1020 272L1105 264M1020 272L1016 329M1105 264L1127 250M1105 264L1140 357M1127 250L1210 265M1127 250L1140 357M1210 265L1311 293M1210 265L1260 346M1311 293L1260 346M1311 293L1338 383M1311 293L1377 327M1437 272L1502 292M1437 272L1377 327M1502 292L1593 243M1502 292L1606 290M1502 292L1503 382M1502 292L1543 355M1593 243L1606 290M1593 243L1697 273M1606 290L1697 273M1606 290L1543 355M1697 273L1795 258M1795 258L1848 296M1848 296L1874 324M1949 308L2005 290M1949 308L1874 324M1949 308L1934 393M2145 303L2223 253M2145 303L2242 272M2145 303L2139 351M2145 303L2162 347M2223 253L2242 272M2242 272L2162 347M2379 320L2456 295M2379 320L2304 397M2379 320L2328 374M2379 320L2422 344M2456 295L2529 302M2456 295L2422 344M2529 302L2540 337M32 391L95 363M32 391L-20 337M32 391L47 459M32 391L84 402M2592 391L2540 337M95 363L47 459M95 363L84 402M231 387L293 384M231 387L195 452M231 387L265 406M293 384L372 326M293 384L265 406M293 384L324 477M372 326L444 399M444 399L519 352M444 399L473 418M444 399L543 419M519 352L473 418M519 352L543 419M639 343L680 376M639 343L732 338M639 343L587 453M680 376L732 338M680 376L741 431M732 338L741 431M828 371L894 348M828 371L741 431M828 371L874 427M828 371L921 411M894 348L874 427M894 348L921 411M894 348L982 409M1016 329L1049 374M1016 329L982 409M1049 374L1140 357M1049 374L982 409M1049 374L1065 466M1140 357L1162 424M1260 346L1338 383M1260 346L1377 327M1260 346L1235 426M1338 383L1377 327M1338 383L1309 446M1338 383L1370 454M1503 382L1543 355M1503 382L1511 470M1503 382L1584 408M1503 382L1501 494M1543 355L1648 392M1543 355L1584 408M1648 392L1760 393M1648 392L1584 408M1648 392L1662 455M1648 392L1733 406M1760 393L1835 397M1760 393L1662 455M1760 393L1733 406M1760 393L1821 479M1835 397L1874 324M1835 397L1934 393M1835 397L1821 479M1835 397L1894 400M1874 324L1934 393M1874 324L1894 400M1934 393L1894 400M1934 393L1997 433M2072 381L2139 351M2072 381L2162 347M2072 381L1997 433M2072 381L2058 413M2072 381L2110 427M2139 351L2162 347M2139 351L2058 413M2139 351L2110 427M2162 347L2110 427M2304 397L2328 374M2304 397L2275 429M2328 374L2422 344M2328 374L2275 429M2328 374L2374 473M2422 344L2452 438M2422 344L2500 417M2540 337L2500 417M47 459L84 402M47 459L13 508M47 459L135 514M84 402L13 508M195 452L265 406M195 452L135 514M195 452L164 529M195 452L286 516M265 406L324 477M324 477L286 516M324 477L399 519M324 477L370 560M473 418L543 419M473 418L478 514M473 418L488 487M543 419L587 453M543 419L488 487M587 453L665 474M587 453L488 487M587 453L623 506M665 474L741 431M665 474L623 506M665 474L715 493M665 474L727 542M741 431L715 493M874 427L921 411M874 427L849 494M921 411L982 409M921 411L849 494M982 409L1065 466M1065 466L1035 544M1065 466L1080 549M1065 466L1155 493M1162 424L1235 426M1162 424L1155 493M1235 426L1309 446M1235 426L1155 493M1309 446L1370 454M1309 446L1270 539M1309 446L1306 522M1370 454L1306 522M1370 454L1398 524M1511 470L1584 408M1511 470L1501 494M1511 470L1522 538M1584 408L1662 455M1662 455L1733 406M1662 455L1671 540M1821 479L1748 526M1821 479L1823 527M1821 479L1871 530M1894 400L1997 433M1997 433L2058 413M2058 413L2110 427M2058 413L2070 530M2110 427L2167 467M2167 467L2275 429M2167 467L2104 532M2167 467L2172 554M2275 429L2374 473M2374 473L2452 438M2374 473L2354 543M2374 473L2409 509M2452 438L2500 417M2452 438L2409 509M2452 438L2483 523M13 508L-77 523M13 508L45 582M2573 508L2483 523M135 514L164 529M135 514L87 608M164 529L179 620M286 516L283 580M286 516L370 560M399 519L478 514M399 519L488 487M399 519L370 560M399 519L448 578M478 514L488 487M478 514L448 578M478 514L523 588M623 506L715 493M623 506L727 542M715 493L727 542M715 493L849 494M727 542L679 622M727 542L740 625M849 494L944 559M849 494L882 579M944 559L1035 544M944 559L882 579M944 559L963 581M944 559L994 650M1035 544L1080 549M1035 544L963 581M1035 544L1057 601M1080 549L1155 493M1080 549L1057 601M1080 549L1125 597M1155 493L1125 597M1270 539L1306 522M1270 539L1251 592M1306 522L1398 524M1306 522L1251 592M1398 524L1501 494M1398 524L1351 612M1398 524L1462 619M1501 494L1522 538M1501 494L1589 574M1522 538L1462 619M1522 538L1589 574M1522 538L1604 569M1671 540L1748 526M1671 540L1589 574M1671 540L1604 569M1671 540L1747 613M1748 526L1823 527M1748 526L1747 613M1748 526L1784 620M1823 527L1871 530M1823 527L1871 567M1871 530L1958 533M1871 530L1871 567M1958 533L1943 616M2070 530L2104 532M2070 530L2172 554M2070 530L2070 569M2070 530L2085 607M2104 532L2172 554M2104 532L2070 569M2104 532L2085 607M2172 554L2210 621M2313 549L2354 543M2313 549L2304 632M2313 549L2344 622M2313 549L2311 645M2354 543L2409 509M2354 543L2344 622M2409 509L2483 523M2409 509L2436 591M2483 523L2436 591M2483 523L2518 610M45 582L87 608M45 582L-42 610M45 582L57 672M2605 582L2518 610M87 608L179 620M87 608L57 672M87 608L82 694M179 620L198 717M179 620L260 671M283 580L370 560M283 580L260 671M370 560L448 578M448 578L523 588M448 578L456 676M523 588L590 638M523 588L456 676M523 588L526 687M590 638L679 622M590 638L526 687M590 638L596 665M679 622L740 625M679 622L676 690M740 625L820 637M740 625L749 686M820 637L882 579M820 637L749 686M820 637L872 696M882 579L963 581M882 579L872 696M963 581L994 650M1057 601L1125 597M1057 601L994 650M1057 601L1073 673M1125 597L1073 673M1125 597L1140 686M1251 592L1351 612M1351 612L1433 638M1351 612L1354 668M1433 638L1462 619M1433 638L1354 668M1433 638L1454 692M1462 619L1454 692M1589 574L1604 569M1589 574L1623 660M1604 569L1553 693M1604 569L1623 660M1747 613L1784 620M1747 613L1756 652M1747 613L1833 651M1784 620L1756 652M1784 620L1833 651M1871 567L1943 616M1871 567L1883 651M1943 616L1883 651M1943 616L1957 681M1943 616L2004 655M2070 569L2085 607M2070 569L2004 655M2070 569L2112 663M2085 607L2004 655M2085 607L2112 663M2210 621L2304 632M2210 621L2112 663M2210 621L2184 705M2304 632L2344 622M2304 632L2311 645M2304 632L2377 641M2344 622L2311 645M2344 622L2377 641M2436 591L2518 610M2436 591L2377 641M2436 591L2456 666M2518 610L2456 666M2518 610L2505 645M57 672L82 694M57 672L-55 645M57 672L1 725M2617 672L2505 645M82 694L1 725M198 717L260 671M198 717L160 798M198 717L196 727M260 671L361 718M260 671L196 727M361 718L456 676M361 718L282 778M361 718L354 771M456 676L526 687M526 687L596 665M526 687L510 792M596 665L676 690M596 665L626 772M676 690L749 686M676 690L626 772M676 690L717 764M749 686L717 764M749 686L780 783M872 696L952 713M872 696L828 750M952 713L994 650M952 713L898 776M952 713L981 790M994 650L1073 673M1073 673L1140 686M1073 673L1064 761M1140 686L1064 761M1140 686L1198 728M1275 709L1354 668M1275 709L1369 710M1275 709L1198 728M1275 709L1230 790M1275 709L1337 728M1354 668L1369 710M1354 668L1337 728M1369 710L1454 692M1369 710L1337 728M1369 710L1418 748M1454 692L1418 748M1454 692L1483 748M1553 693L1623 660M1553 693L1483 748M1553 693L1523 775M1553 693L1621 778M1756 652L1833 651M1756 652L1704 768M1833 651L1883 651M1833 651L1876 733M1883 651L1957 681M1883 651L1876 733M1957 681L2004 655M1957 681L1876 733M1957 681L1964 786M2004 655L2112 663M2112 663L2184 705M2184 705L2157 771M2184 705L2207 783M2311 645L2377 641M2311 645L2301 726M2377 641L2456 666M2456 666L2505 645M2456 666L2370 741M2505 645L2561 725M-55 645L1 725M1 725L-55 800M2561 725L2505 800M160 798L196 727M160 798L103 851M160 798L238 838M160 798L113 889M196 727L282 778M282 778L354 771M282 778L238 838M282 778L264 815M354 771L264 815M354 771L377 842M463 799L510 792M463 799L377 842M463 799L478 854M463 799L505 816M463 799L461 882M510 792L478 854M510 792L505 816M510 792L571 853M626 772L717 764M626 772L571 853M626 772L701 863M717 764L780 783M717 764L753 847M780 783L828 750M780 783L753 847M780 783L877 839M828 750L898 776M828 750L906 811M898 776L981 790M898 776L877 839M898 776L906 811M981 790L1064 761M981 790L906 811M981 790L1033 841M1064 761L1033 841M1064 761L1044 852M1198 728L1230 790M1198 728L1285 816M1230 790L1222 840M1230 790L1285 816M1337 728L1418 748M1337 728L1285 816M1418 748L1483 748M1418 748L1427 848M1483 748L1523 775M1483 748L1484 855M1523 775L1621 778M1523 775L1484 855M1523 775L1550 820M1621 778L1704 768M1621 778L1550 820M1621 778L1633 868M1704 768L1839 787M1704 768L1720 826M1704 768L1717 886M1839 787L1876 733M1839 787L1964 786M1839 787L1821 803M1839 787L1843 861M1876 733L1821 803M1964 786L2025 793M1964 786L1984 864M1964 786L2064 826M2025 793L1984 864M2025 793L2064 826M2025 793L2103 847M2157 771L2207 783M2157 771L2064 826M2157 771L2103 847M2157 771L2205 870M2207 783L2205 870M2207 783L2226 884M2301 726L2370 741M2301 726L2309 826M2370 741L2466 789M2370 741L2366 842M2466 789L2505 800M2466 789L2451 857M2466 789L2531 822M2505 800L2451 857M2505 800L2531 822M2505 800L2509 891M64 871L103 851M64 871L47 886M64 871L113 889M103 851L47 886M103 851L113 889M103 851L216 888M238 838L264 815M238 838L216 888M238 838L317 901M264 815L216 888M377 842L317 901M377 842L337 944M377 842L461 882M478 854L505 816M478 854L571 853M478 854L461 882M505 816L571 853M505 816L461 882M571 853L670 918M701 863L753 847M701 863L670 918M701 863L722 920M753 847L722 920M753 847L822 895M877 839L906 811M877 839L822 895M877 839L899 899M906 811L899 899M1033 841L1044 852M1033 841L985 894M1044 852L1142 862M1044 852L985 894M1044 852L1106 926M1142 862L1222 840M1142 862L1106 926M1142 862L1191 897M1142 862L1209 930M1222 840L1285 816M1222 840L1191 897M1222 840L1209 930M1285 816L1322 918M1427 848L1484 855M1427 848L1382 899M1427 848L1495 884M1427 848L1446 974M1484 855L1550 820M1484 855L1495 884M1550 820L1495 884M1633 868L1584 932M1633 868L1604 918M1633 868L1717 886M1633 868L1658 960M1720 826L1821 803M1720 826L1717 886M1821 803L1843 861M1843 861L1894 940M1984 864L2064 826M1984 864L2054 941M2064 826L2103 847M2103 847L2054 941M2103 847L2155 940M2205 870L2155 940M2205 870L2226 884M2309 826L2366 842M2309 826L2226 884M2309 826L2312 883M2309 826L2353 916M2366 842L2312 883M2366 842L2353 916M2451 857L2531 822M2451 857L2429 933M2451 857L2509 891M2531 822L2607 886M2531 822L2509 891M-29 822L47 886M47 886L113 889M113 889L130 970M216 888L317 901M317 901L337 944M317 901L296 985M337 944L296 985M337 944L385 976M461 882L482 946M482 946L385 976M482 946L471 1027M482 946L509 979M482 946L578 1007M629 953L670 918M629 953L722 920M629 953L578 1007M629 953L697 1029M629 953L698 1047M670 918L722 920M670 918L697 1029M722 920L822 895M822 895L899 899M822 895L807 991M899 899L985 894M899 899L928 975M985 894L928 975M985 894L1036 979M1106 926L1191 897M1106 926L1036 979M1106 926L1108 1011M1191 897L1209 930M1191 897L1245 975M1209 930L1160 1020M1209 930L1245 975M1322 918L1382 899M1322 918L1245 975M1322 918L1376 971M1382 899L1376 971M1382 899L1446 974M1495 884L1584 932M1495 884L1446 974M1584 932L1604 918M1584 932L1598 1031M1584 932L1658 960M1604 918L1598 1031M1604 918L1658 960M1717 886L1764 950M1717 886L1658 960M1764 950L1757 1006M1764 950L1739 1040M1894 940L1939 953M1894 940L1859 983M1894 940L1979 983M1939 953L1859 983M1939 953L1979 983M1939 953L1935 1044M2054 941L1979 983M2054 941L2008 1034M2155 940L2226 884M2155 940L2153 995M2155 940L2200 998M2226 884L2312 883M2312 883L2353 916M2312 883L2300 969M2353 916L2429 933M2353 916L2300 969M2429 933L2476 967M2429 933L2506 963M2509 891L2476 967M2509 891L2506 963M59 998L130 970M59 998L-54 963M59 998L89 1052M2619 998L2506 963M130 970L186 1019M130 970L89 1052M186 1019L89 1052M186 1019L239 1075M186 1019L247 1043M296 985L385 976M296 985L239 1075M296 985L247 1043M385 976L428 1056M471 1027L509 979M471 1027L384 1085M471 1027L428 1056M471 1027L537 1101M509 979L578 1007M578 1007L537 1101M578 1007L620 1080M697 1029L784 1015M697 1029L620 1080M697 1029L698 1047M784 1015L807 991M784 1015L698 1047M784 1015L761 1119M784 1015L863 1098M807 991L928 975M807 991L901 1054M928 975L1036 979M928 975L901 1054M1036 979L1108 1011M1036 979L1037 1067M1108 1011L1160 1020M1108 1011L1037 1067M1108 1011L1126 1072M1160 1020L1126 1072M1160 1020L1216 1066M1245 975L1323 1025M1245 975L1216 1066M1323 1025L1376 971M1323 1025L1311 1077M1323 1025L1361 1107M1376 971L1446 974M1598 1031L1658 960M1598 1031L1549 1101M1598 1031L1635 1097M1757 1006L1809 1037M1757 1006L1859 983M1757 1006L1739 1040M1757 1006L1752 1129M1809 1037L1859 983M1809 1037L1739 1040M1809 1037L1834 1103M1859 983L1903 1070M1979 983L2008 1034M1979 983L1935 1044M2008 1034L1935 1044M2008 1034L2058 1106M2153 995L2200 998M2153 995L2116 1073M2153 995L2186 1061M2200 998L2300 969M2200 998L2186 1061M2200 998L2252 1042M2300 969L2327 1038M2300 969L2252 1042M2327 1038L2252 1042M2327 1038L2327 1079M2476 967L2506 963M2476 967L2446 1067M2476 967L2525 1066M2506 963L2525 1066M49 1113L89 1052M49 1113L-35 1066M49 1113L35 1194M49 1113L102 1183M49 1113L-54 1162M2609 1113L2525 1066M2609 1113L2506 1162M239 1075L247 1043M239 1075L239 1140M239 1075L258 1148M247 1043L239 1140M247 1043L258 1148M384 1085L428 1056M384 1085L400 1153M428 1056L400 1153M537 1101L620 1080M537 1101L554 1176M537 1101L616 1178M620 1080L698 1047M620 1080L616 1178M698 1047L761 1119M761 1119L863 1098M761 1119L717 1188M761 1119L775 1186M863 1098L901 1054M863 1098L870 1149M1037 1067L1082 1095M1037 1067L1126 1072M1037 1067L1041 1164M1082 1095L1126 1072M1082 1095L1041 1164M1082 1095L1193 1165M1126 1072L1216 1066M1216 1066L1311 1077M1216 1066L1193 1165M1311 1077L1361 1107M1311 1077L1330 1167M1311 1077L1365 1128M1361 1107L1482 1117M1361 1107L1330 1167M1361 1107L1365 1128M1482 1117L1549 1101M1482 1117L1365 1128M1482 1117L1495 1193M1549 1101L1635 1097M1549 1101L1595 1171M1549 1101L1605 1188M1635 1097L1739 1040M1635 1097L1595 1171M1635 1097L1605 1188M1739 1040L1752 1129M1834 1103L1903 1070M1834 1103L1752 1129M1834 1103L1838 1180M1834 1103L1876 1169M1903 1070L1935 1044M1903 1070L1876 1169M1903 1070L1958 1129M1935 1044L1958 1129M2058 1106L2116 1073M2058 1106L1958 1129M2058 1106L2046 1198M2058 1106L2140 1183M2116 1073L2186 1061M2186 1061L2252 1042M2252 1042L2327 1079M2327 1079L2446 1067M2327 1079L2260 1165M2327 1079L2359 1170M2446 1067L2525 1066M2525 1066L2506 1162M35 1194L102 1183M35 1194L-54 1162M35 1194L63 1220M35 1194L2 1290M2595 1194L2506 1162M102 1183L63 1220M102 1183L136 1274M239 1140L258 1148M239 1140L325 1188M239 1140L215 1236M258 1148L325 1188M258 1148L215 1236M325 1188L400 1153M325 1188L304 1262M325 1188L343 1219M400 1153L343 1219M400 1153L464 1247M554 1176L616 1178M554 1176L464 1247M554 1176L496 1265M554 1176L513 1289M616 1178L717 1188M616 1178L629 1274M717 1188L775 1186M717 1188L712 1260M717 1188L768 1231M775 1186L768 1231M775 1186L828 1256M870 1149L912 1191M870 1149L962 1159M870 1149L828 1256M870 1149L938 1215M912 1191L962 1159M912 1191L828 1256M912 1191L938 1215M912 1191L978 1204M962 1159L1041 1164M962 1159L938 1215M962 1159L978 1204M1041 1164L978 1204M1041 1164L1053 1231M1193 1165L1215 1174M1193 1165L1191 1278M1193 1165L1236 1220M1215 1174L1236 1220M1330 1167L1365 1128M1330 1167L1236 1220M1330 1167L1347 1245M1495 1193L1514 1234M1495 1193L1535 1259M1595 1171L1605 1188M1595 1171L1615 1232M1605 1188L1615 1232M1752 1129L1838 1180M1752 1129L1722 1201M1838 1180L1876 1169M1838 1180L1892 1220M1876 1169L1958 1129M1876 1169L1892 1220M1958 1129L1975 1221M2046 1198L2140 1183M2046 1198L1975 1221M2046 1198L2065 1255M2046 1198L2125 1248M2140 1183L2235 1166M2140 1183L2125 1248M2235 1166L2260 1165M2235 1166L2227 1257M2260 1165L2359 1170M2260 1165L2227 1257M2359 1170L2455 1195M2359 1170L2353 1273M2359 1170L2442 1208M2455 1195L2506 1162M2455 1195L2442 1208M2506 1162L2442 1208M63 1220L136 1274M63 1220L-24 1278M63 1220L2 1290M2623 1220L2536 1278M136 1274L215 1236M136 1274L85 1345M136 1274L214 1323M215 1236L304 1262M215 1236L214 1323M304 1262L343 1219M304 1262L319 1317M304 1262L362 1282M343 1219L319 1317M343 1219L362 1282M464 1247L496 1265M464 1247L451 1308M464 1247L513 1289M496 1265L451 1308M496 1265L513 1289M629 1274L712 1260M629 1274L630 1350M629 1274L709 1287M712 1260L768 1231M712 1260L709 1287M712 1260L732 1343M768 1231L828 1256M768 1231L709 1287M828 1256L879 1298M938 1215L978 1204M938 1215L879 1298M978 1204L1053 1231M1053 1231L1034 1307M1053 1231L1068 1294M1191 1278L1236 1220M1191 1278L1136 1329M1191 1278L1210 1330M1191 1278L1178 1362M1236 1220L1347 1245M1347 1245L1432 1266M1347 1245L1359 1320M1347 1245L1388 1303M1432 1266L1514 1234M1432 1266L1359 1320M1432 1266L1388 1303M1432 1266L1491 1308M1514 1234L1535 1259M1514 1234L1491 1308M1514 1234L1528 1319M1535 1259L1615 1232M1535 1259L1491 1308M1535 1259L1528 1319M1615 1232L1722 1201M1615 1232L1626 1331M1832 1267L1892 1220M1832 1267L1750 1326M1832 1267L1778 1334M1832 1267L1843 1309M1832 1267L1822 1364M1892 1220L1975 1221M1892 1220L1843 1309M1975 1221L2065 1255M1975 1221L1995 1318M2065 1255L2125 1248M2065 1255L2053 1347M2065 1255L2086 1305M2125 1248L2086 1305M2125 1248L2205 1301M2227 1257L2279 1275M2227 1257L2205 1301M2279 1275L2353 1273M2279 1275L2205 1301M2279 1275L2276 1351M2279 1275L2337 1292M2353 1273L2442 1208M2353 1273L2337 1292M2536 1278L2562 1290M2536 1278L2478 1337M2536 1278L2549 1335M-24 1278L2 1290M2 1290L-11 1335M2562 1290L2549 1335M85 1345L-11 1335M85 1345L9 1398M85 1345L115 1419M85 1345L169 1387M2645 1345L2549 1335M214 1323L319 1317M214 1323L169 1387M214 1323L253 1404M319 1317L362 1282M319 1317L364 1378M362 1282L451 1308M362 1282L364 1378M451 1308L513 1289M451 1308L364 1378M630 1350L732 1343M630 1350L633 1425M630 1350L713 1374M709 1287L732 1343M709 1287L713 1374M732 1343L713 1374M732 1343L779 1395M879 1298L937 1346M937 1346L1034 1307M937 1346L877 1424M937 1346L927 1429M1034 1307L1068 1294M1034 1307L1116 1369M1068 1294L1136 1329M1068 1294L1116 1369M1136 1329L1210 1330M1136 1329L1116 1369M1136 1329L1178 1362M1210 1330L1116 1369M1210 1330L1178 1362M1210 1330L1212 1422M1359 1320L1388 1303M1359 1320L1284 1428M1359 1320L1427 1368M1388 1303L1427 1368M1491 1308L1528 1319M1491 1308L1521 1370M1528 1319L1626 1331M1528 1319L1521 1370M1626 1331L1625 1381M1750 1326L1778 1334M1750 1326L1843 1309M1750 1326L1740 1435M1750 1326L1822 1364M1778 1334L1843 1309M1778 1334L1822 1364M1843 1309L1822 1364M1995 1318L2053 1347M1995 1318L2086 1305M1995 1318L1948 1400M2053 1347L2086 1305M2053 1347L2066 1385M2086 1305L2066 1385M2205 1301L2276 1351M2205 1301L2251 1378M2276 1351L2337 1292M2276 1351L2251 1378M2478 1337L2549 1335M2478 1337L2444 1432M2478 1337L2500 1428M2549 1335L2569 1398M-11 1335L9 1398M9 1398L115 1419M9 1398L-60 1428M2569 1398L2500 1428M115 1419L169 1387M169 1387L253 1404M253 1404L364 1378M364 1378L406 1426M406 1426L520 1405M520 1405L633 1425M633 1425L713 1374M713 1374L779 1395M779 1395L877 1424M877 1424L927 1429M927 1429L1030 1417M1116 1369L1178 1362M1178 1362L1212 1422M1212 1422L1284 1428M1427 1368L1473 1440M1427 1368L1521 1370M1473 1440L1521 1370M1740 1435L1844 1426M1822 1364L1844 1426M1844 1426L1948 1400M2066 1385L2148 1400M2148 1400L2164 1396M2164 1396L2251 1378M2383 1416L2444 1432M2444 1432L2500 1428"/></svg>