<svg xmlns="http://www.w3.org/2000/svg" width="2560" height="1440" fill="#fff"><circle cx="31" cy="77" r="6"/><circle cx="83" cy="40" r="4"/><circle cx="178" cy="41" r="5"/><circle cx="263" cy="16" r="5"/><circle cx="356" cy="33" r="5"/><circle cx="407" cy="64" r="5"/><circle cx="558" cy="55" r="4"/><circle cx="608" cy="57" r="5"/><circle cx="677" cy="8" r="4"/><circle cx="744" cy="79" r="4"/><circle cx="855" cy="31" r="5"/><circle cx="929" cy="7" r="6"/><circle cx="989" cy="69" r="4"/><circle cx="1107" cy="2" r="6"/><circle cx="1107" cy="1442" r="6"/><circle cx="1145" cy="43" r="6"/><circle cx="1279" cy="46" r="5"/><circle cx="1318" cy="77" r="5"/><circle cx="1418" cy="30" r="5"/><circle cx="1450" cy="62" r="5"/><circle cx="1573" cy="8" r="4"/><circle cx="1629" cy="54" r="5"/><circle cx="1717" cy="70" r="5"/><circle cx="1837" cy="64" r="6"/><circle cx="1913" cy="67" r="5"/><circle cx="1997" cy="77" r="5"/><circle cx="2002" cy="41" r="5"/><circle cx="2154" cy="73" r="4"/><circle cx="2185" cy="79" r="6"/><circle cx="2283" cy="21" r="5"/><circle cx="2393" cy="40" r="4"/><circle cx="2423" cy="31" r="6"/><circle cx="2487" cy="73" r="6"/><circle cx="57" cy="102" r="4"/><circle cx="132" cy="148" r="6"/><circle cx="179" cy="91" r="6"/><circle cx="308" cy="93" r="6"/><circle cx="345" cy="125" r="4"/><circle cx="442" cy="114" r="5"/><circle cx="537" cy="83" r="5"/><circle cx="618" cy="107" r="6"/><circle cx="714" cy="81" r="4"/><circle cx="734" cy="139" r="6"/><circle cx="857" cy="86" r="6"/><circle cx="911" cy="94" r="6"/><circle cx="969" cy="125" r="5"/><circle cx="1092" cy="141" r="5"/><circle cx="1167" cy="88" r="4"/><circle cx="1245" cy="148" r="6"/><circle cx="1323" cy="99" r="5"/><circle cx="1384" cy="139" r="5"/><circle cx="1515" cy="146" r="4"/><circle cx="1538" cy="110" r="5"/><circle cx="1602" cy="111" r="6"/><circle cx="1744" cy="118" r="5"/><circle cx="1784" cy="135" r="4"/><circle cx="1860" cy="158" r="5"/><circle cx="1992" cy="109" r="5"/><circle cx="2051" cy="128" r="5"/><circle cx="2133" cy="108" r="4"/><circle cx="2221" cy="85" r="5"/><circle cx="2276" cy="149" r="4"/><circle cx="2359" cy="98" r="6"/><circle cx="2427" cy="81" r="4"/><circle cx="2491" cy="146" r="6"/><circle cx="55" cy="177" r="5"/><circle cx="129" cy="161" r="4"/><circle cx="236" cy="206" r="6"/><circle cx="288" cy="217" r="5"/><circle cx="362" cy="186" r="6"/><circle cx="423" cy="202" r="5"/><circle cx="550" cy="195" r="4"/><circle cx="584" cy="186" r="5"/><circle cx="642" cy="227" r="4"/><circle cx="750" cy="223" r="5"/><circle cx="814" cy="201" r="4"/><circle cx="926" cy="172" r="6"/><circle cx="981" cy="194" r="4"/><circle cx="1051" cy="210" r="4"/><circle cx="1136" cy="210" r="5"/><circle cx="1280" cy="236" r="4"/><circle cx="1282" cy="195" r="6"/><circle cx="1387" cy="203" r="5"/><circle cx="1518" cy="214" r="6"/><circle cx="1600" cy="185" r="6"/><circle cx="1620" cy="237" r="6"/><circle cx="1718" cy="211" r="6"/><circle cx="1802" cy="182" r="6"/><circle cx="1879" cy="168" r="5"/><circle cx="1975" cy="216" r="5"/><circle cx="2035" cy="182" r="6"/><circle cx="2104" cy="172" r="6"/><circle cx="2170" cy="217" r="5"/><circle cx="2299" cy="198" r="5"/><circle cx="2357" cy="203" r="5"/><circle cx="2404" cy="211" r="4"/><circle cx="2508" cy="208" r="4"/><circle cx="17" cy="272" r="4"/><circle cx="117" cy="300" r="6"/><circle cx="186" cy="268" r="4"/><circle cx="294" cy="306" r="6"/><circle cx="336" cy="248" r="5"/><circle cx="438" cy="281" r="5"/><circle cx="495" cy="244" r="5"/><circle cx="597" cy="253" r="6"/><circle cx="673" cy="288" r="5"/><circle cx="786" cy="241" r="5"/><circle cx="874" cy="270" r="5"/><circle cx="956" cy="317" r="4"/><circle cx="973" cy="253" r="5"/><circle cx="1082" cy="295" r="5"/><circle cx="1129" cy="248" r="6"/><circle cx="1248" cy="261" r="5"/><circle cx="1292" cy="314" r="4"/><circle cx="1377" cy="290" r="5"/><circle cx="1518" cy="318" r="6"/><circle cx="1548" cy="256" r="6"/><circle cx="1633" cy="306" r="5"/><circle cx="1682" cy="251" r="4"/><circle cx="1808" cy="285" r="6"/><circle cx="1894" cy="270" r="5"/><circle cx="1977" cy="270" r="6"/><circle cx="2049" cy="291" r="5"/><circle cx="2098" cy="295" r="5"/><circle cx="2167" cy="316" r="5"/><circle cx="2274" cy="244" r="6"/><circle cx="2385" cy="268" r="5"/><circle cx="2420" cy="266" r="5"/><circle cx="2533" cy="257" r="4"/><circle cx="78" cy="392" r="4"/><circle cx="115" cy="381" r="6"/><circle cx="214" cy="369" r="5"/><circle cx="272" cy="348" r="4"/><circle cx="372" cy="367" r="4"/><circle cx="471" cy="373" r="4"/><circle cx="559" cy="335" r="5"/><circle cx="578" cy="378" r="4"/><circle cx="675" cy="329" r="4"/><circle cx="795" cy="371" r="5"/><circle cx="804" cy="322" r="6"/><circle cx="953" cy="337" r="5"/><circle cx="962" cy="376" r="6"/><circle cx="1102" cy="372" r="5"/><circle cx="1141" cy="388" r="6"/><circle cx="1248" cy="382" r="6"/><circle cx="1329" cy="328" r="4"/><circle cx="1384" cy="348" r="5"/><circle cx="1487" cy="346" r="4"/><circle cx="1580" cy="345" r="5"/><circle cx="1654" cy="356" r="5"/><circle cx="1733" cy="379" r="5"/><circle cx="1824" cy="326" r="4"/><circle cx="1858" cy="321" r="5"/><circle cx="1994" cy="377" r="6"/><circle cx="2031" cy="397" r="5"/><circle cx="2083" cy="378" r="4"/><circle cx="2235" cy="382" r="5"/><circle cx="2248" cy="394" r="5"/><circle cx="2355" cy="357" r="5"/><circle cx="2415" cy="397" r="6"/><circle cx="2485" cy="371" r="4"/><circle cx="53" cy="418" r="4"/><circle cx="82" cy="424" r="6"/><circle cx="217" cy="429" r="5"/><circle cx="270" cy="432" r="4"/><circle cx="344" cy="403" r="5"/><circle cx="434" cy="478" r="5"/><circle cx="484" cy="452" r="5"/><circle cx="570" cy="404" r="6"/><circle cx="667" cy="425" r="4"/><circle cx="743" cy="479" r="5"/><circle cx="862" cy="460" r="6"/><circle cx="925" cy="443" r="5"/><circle cx="994" cy="477" r="5"/><circle cx="1047" cy="458" r="5"/><circle cx="1194" cy="452" r="5"/><circle cx="1232" cy="474" r="5"/><circle cx="1299" cy="444" r="6"/><circle cx="1392" cy="411" r="4"/><circle cx="1482" cy="409" r="6"/><circle cx="1524" cy="415" r="6"/><circle cx="1664" cy="473" r="5"/><circle cx="1691" cy="454" r="4"/><circle cx="1774" cy="407" r="5"/><circle cx="1871" cy="444" r="5"/><circle cx="1939" cy="412" r="4"/><circle cx="2077" cy="415" r="6"/><circle cx="2113" cy="416" r="5"/><circle cx="2213" cy="458" r="4"/><circle cx="2306" cy="466" r="5"/><circle cx="2325" cy="424" r="4"/><circle cx="2450" cy="447" r="5"/><circle cx="2515" cy="437" r="6"/><circle cx="8" cy="552" r="4"/><circle cx="99" cy="506" r="5"/><circle cx="205" cy="485" r="5"/><circle cx="307" cy="522" r="5"/><circle cx="328" cy="540" r="5"/><circle cx="408" cy="521" r="5"/><circle cx="504" cy="533" r="4"/><circle cx="619" cy="494" r="6"/><circle cx="702" cy="521" r="6"/><circle cx="740" cy="512" r="5"/><circle cx="815" cy="538" r="4"/><circle cx="932" cy="507" r="5"/><circle cx="970" cy="558" r="5"/><circle cx="1096" cy="500" r="6"/><circle cx="1156" cy="481" r="5"/><circle cx="1222" cy="558" r="6"/><circle cx="1321" cy="503" r="4"/><circle cx="1400" cy="530" r="5"/><circle cx="1475" cy="511" r="6"/><circle cx="1592" cy="543" r="6"/><circle cx="1666" cy="491" r="4"/><circle cx="1700" cy="482" r="5"/><circle cx="1822" cy="535" r="4"/><circle cx="1907" cy="499" r="4"/><circle cx="1985" cy="532" r="4"/><circle cx="2029" cy="510" r="4"/><circle cx="2093" cy="499" r="5"/><circle cx="2233" cy="493" r="5"/><circle cx="2272" cy="556" r="4"/><circle cx="2371" cy="514" r="5"/><circle cx="2409" cy="491" r="4"/><circle cx="2554" cy="505" r="5"/><circle cx="28" cy="638" r="4"/><circle cx="126" cy="625" r="4"/><circle cx="221" cy="566" r="4"/><circle cx="304" cy="594" r="5"/><circle cx="382" cy="598" r="5"/><circle cx="476" cy="604" r="5"/><circle cx="506" cy="631" r="6"/><circle cx="629" cy="637" r="6"/><circle cx="707" cy="607" r="4"/><circle cx="755" cy="590" r="5"/><circle cx="877" cy="605" r="4"/><circle cx="956" cy="626" r="5"/><circle cx="991" cy="592" r="4"/><circle cx="1056" cy="578" r="5"/><circle cx="1196" cy="568" r="6"/><circle cx="1258" cy="635" r="5"/><circle cx="1318" cy="638" r="6"/><circle cx="1410" cy="562" r="5"/><circle cx="1476" cy="608" r="6"/><circle cx="1534" cy="627" r="5"/><circle cx="1654" cy="610" r="4"/><circle cx="1750" cy="611" r="5"/><circle cx="1809" cy="587" r="6"/><circle cx="1915" cy="570" r="5"/><circle cx="1983" cy="597" r="6"/><circle cx="2049" cy="603" r="6"/><circle cx="2091" cy="562" r="6"/><circle cx="2229" cy="632" r="5"/><circle cx="2309" cy="635" r="4"/><circle cx="2333" cy="587" r="5"/><circle cx="2446" cy="638" r="6"/><circle cx="2491" cy="575" r="5"/><circle cx="29" cy="692" r="4"/><circle cx="156" cy="680" r="5"/><circle cx="160" cy="674" r="6"/><circle cx="262" cy="718" r="4"/><circle cx="388" cy="642" r="5"/><circle cx="461" cy="700" r="5"/><circle cx="493" cy="659" r="5"/><circle cx="597" cy="654" r="6"/><circle cx="658" cy="655" r="5"/><circle cx="741" cy="694" r="5"/><circle cx="833" cy="668" r="4"/><circle cx="905" cy="682" r="5"/><circle cx="1036" cy="702" r="6"/><circle cx="1054" cy="656" r="6"/><circle cx="1160" cy="695" r="4"/><circle cx="1203" cy="705" r="5"/><circle cx="1352" cy="646" r="5"/><circle cx="1371" cy="693" r="5"/><circle cx="1454" cy="656" r="5"/><circle cx="1531" cy="653" r="5"/><circle cx="1633" cy="683" r="4"/><circle cx="1711" cy="644" r="5"/><circle cx="1821" cy="657" r="4"/><circle cx="1864" cy="700" r="4"/><circle cx="1940" cy="654" r="4"/><circle cx="2075" cy="666" r="5"/><circle cx="2108" cy="691" r="5"/><circle cx="2221" cy="644" r="4"/><circle cx="2291" cy="646" r="6"/><circle cx="2324" cy="695" r="5"/><circle cx="2454" cy="700" r="6"/><circle cx="2541" cy="673" r="4"/><circle cx="17" cy="749" r="6"/><circle cx="110" cy="737" r="4"/><circle cx="240" cy="744" r="4"/><circle cx="281" cy="722" r="5"/><circle cx="392" cy="788" r="4"/><circle cx="468" cy="776" r="5"/><circle cx="540" cy="798" r="6"/><circle cx="563" cy="759" r="6"/><circle cx="708" cy="784" r="6"/><circle cx="758" cy="752" r="5"/><circle cx="866" cy="724" r="4"/><circle cx="923" cy="788" r="4"/><circle cx="1038" cy="753" r="4"/><circle cx="1098" cy="729" r="5"/><circle cx="1196" cy="748" r="5"/><circle cx="1269" cy="744" r="5"/><circle cx="1327" cy="786" r="6"/><circle cx="1427" cy="754" r="5"/><circle cx="1477" cy="745" r="5"/><circle cx="1525" cy="797" r="6"/><circle cx="1671" cy="730" r="5"/><circle cx="1745" cy="790" r="5"/><circle cx="1779" cy="789" r="5"/><circle cx="1874" cy="750" r="5"/><circle cx="1965" cy="734" r="6"/><circle cx="2010" cy="778" r="4"/><circle cx="2123" cy="778" r="5"/><circle cx="2194" cy="765" r="5"/><circle cx="2310" cy="732" r="5"/><circle cx="2333" cy="740" r="6"/><circle cx="2471" cy="792" r="5"/><circle cx="2525" cy="748" r="5"/><circle cx="67" cy="827" r="5"/><circle cx="86" cy="823" r="6"/><circle cx="207" cy="823" r="5"/><circle cx="290" cy="877" r="6"/><circle cx="363" cy="816" r="5"/><circle cx="460" cy="809" r="4"/><circle cx="514" cy="846" r="5"/><circle cx="582" cy="824" r="5"/><circle cx="662" cy="818" r="5"/><circle cx="730" cy="839" r="5"/><circle cx="871" cy="865" r="5"/><circle cx="949" cy="824" r="5"/><circle cx="977" cy="866" r="5"/><circle cx="1088" cy="812" r="5"/><circle cx="1121" cy="861" r="5"/><circle cx="1266" cy="852" r="5"/><circle cx="1325" cy="857" r="5"/><circle cx="1391" cy="854" r="5"/><circle cx="1458" cy="866" r="5"/><circle cx="1529" cy="857" r="4"/><circle cx="1614" cy="813" r="6"/><circle cx="1699" cy="818" r="6"/><circle cx="1762" cy="838" r="5"/><circle cx="1913" cy="805" r="5"/><circle cx="1971" cy="872" r="5"/><circle cx="2031" cy="843" r="5"/><circle cx="2089" cy="862" r="6"/><circle cx="2229" cy="859" r="5"/><circle cx="2250" cy="803" r="6"/><circle cx="2334" cy="811" r="5"/><circle cx="2433" cy="873" r="5"/><circle cx="2549" cy="820" r="4"/><circle cx="36" cy="887" r="5"/><circle cx="149" cy="904" r="6"/><circle cx="181" cy="959" r="4"/><circle cx="271" cy="897" r="5"/><circle cx="369" cy="885" r="5"/><circle cx="440" cy="924" r="6"/><circle cx="519" cy="956" r="5"/><circle cx="562" cy="915" r="6"/><circle cx="706" cy="905" r="4"/><circle cx="736" cy="898" r="4"/><circle cx="808" cy="951" r="6"/><circle cx="932" cy="904" r="5"/><circle cx="1035" cy="943" r="6"/><circle cx="1068" cy="906" r="6"/><circle cx="1140" cy="939" r="5"/><circle cx="1266" cy="931" r="5"/><circle cx="1330" cy="936" r="5"/><circle cx="1387" cy="948" r="4"/><circle cx="1514" cy="946" r="4"/><circle cx="1569" cy="943" r="4"/><circle cx="1605" cy="915" r="6"/><circle cx="1691" cy="952" r="4"/><circle cx="1838" cy="900" r="4"/><circle cx="1845" cy="951" r="4"/><circle cx="1951" cy="914" r="5"/><circle cx="2000" cy="918" r="6"/><circle cx="2132" cy="945" r="4"/><circle cx="2174" cy="941" r="4"/><circle cx="2303" cy="930" r="5"/><circle cx="2347" cy="930" r="5"/><circle cx="2435" cy="912" r="5"/><circle cx="2491" cy="937" r="6"/><circle cx="75" cy="988" r="5"/><circle cx="92" cy="1033" r="5"/><circle cx="238" cy="1025" r="5"/><circle cx="264" cy="1015" r="5"/><circle cx="334" cy="1011" r="4"/><circle cx="460" cy="1037" r="4"/><circle cx="548" cy="1018" r="5"/><circle cx="597" cy="1008" r="4"/><circle cx="677" cy="1009" r="4"/><circle cx="799" cy="961" r="5"/><circle cx="853" cy="980" r="6"/><circle cx="949" cy="997" r="4"/><circle cx="1008" cy="1036" r="4"/><circle cx="1056" cy="975" r="6"/><circle cx="1176" cy="997" r="5"/><circle cx="1207" cy="976" r="5"/><circle cx="1304" cy="984" r="6"/><circle cx="1417" cy="1012" r="5"/><circle cx="1463" cy="963" r="5"/><circle cx="1585" cy="965" r="5"/><circle cx="1609" cy="1010" r="4"/><circle cx="1700" cy="1014" r="6"/><circle cx="1832" cy="1025" r="4"/><circle cx="1918" cy="992" r="4"/><circle cx="1929" cy="968" r="5"/><circle cx="2073" cy="1023" r="6"/><circle cx="2081" cy="976" r="4"/><circle cx="2174" cy="1006" r="5"/><circle cx="2306" cy="961" r="5"/><circle cx="2393" cy="993" r="6"/><circle cx="2418" cy="1021" r="5"/><circle cx="2514" cy="995" r="5"/><circle cx="15" cy="1084" r="5"/><circle cx="158" cy="1119" r="5"/><circle cx="219" cy="1112" r="5"/><circle cx="294" cy="1040" r="4"/><circle cx="366" cy="1107" r="5"/><circle cx="431" cy="1088" r="6"/><circle cx="494" cy="1055" r="6"/><circle cx="638" cy="1115" r="6"/><circle cx="700" cy="1094" r="6"/><circle cx="743" cy="1046" r="5"/><circle cx="869" cy="1043" r="5"/><circle cx="885" cy="1091" r="5"/><circle cx="984" cy="1053" r="4"/><circle cx="1060" cy="1117" r="4"/><circle cx="1148" cy="1112" r="5"/><circle cx="1237" cy="1097" r="6"/><circle cx="1336" cy="1101" r="5"/><circle cx="1389" cy="1047" r="6"/><circle cx="1478" cy="1093" r="5"/><circle cx="1521" cy="1099" r="6"/><circle cx="1637" cy="1059" r="6"/><circle cx="1738" cy="1045" r="5"/><circle cx="1762" cy="1080" r="4"/><circle cx="1913" cy="1113" r="6"/><circle cx="1942" cy="1066" r="5"/><circle cx="2030" cy="1064" r="4"/><circle cx="2095" cy="1075" r="5"/><circle cx="2191" cy="1084" r="6"/><circle cx="2284" cy="1052" r="4"/><circle cx="2395" cy="1057" r="5"/><circle cx="2417" cy="1100" r="5"/><circle cx="2541" cy="1114" r="5"/><circle cx="23" cy="1176" r="6"/><circle cx="109" cy="1182" r="4"/><circle cx="194" cy="1192" r="5"/><circle cx="317" cy="1121" r="5"/><circle cx="381" cy="1125" r="4"/><circle cx="469" cy="1158" r="6"/><circle cx="500" cy="1169" r="5"/><circle cx="615" cy="1136" r="4"/><circle cx="677" cy="1199" r="6"/><circle cx="728" cy="1129" r="5"/><circle cx="867" cy="1194" r="5"/><circle cx="947" cy="1176" r="5"/><circle cx="980" cy="1124" r="4"/><circle cx="1081" cy="1126" r="6"/><circle cx="1169" cy="1176" r="5"/><circle cx="1201" cy="1157" r="6"/><circle cx="1336" cy="1170" r="6"/><circle cx="1430" cy="1187" r="5"/><circle cx="1471" cy="1161" r="5"/><circle cx="1576" cy="1131" r="6"/><circle cx="1648" cy="1148" r="4"/><circle cx="1730" cy="1180" r="5"/><circle cx="1838" cy="1154" r="4"/><circle cx="1878" cy="1140" r="6"/><circle cx="1994" cy="1174" r="4"/><circle cx="2058" cy="1141" r="6"/><circle cx="2123" cy="1197" r="5"/><circle cx="2189" cy="1122" r="6"/><circle cx="2248" cy="1165" r="6"/><circle cx="2337" cy="1124" r="5"/><circle cx="2461" cy="1137" r="5"/><circle cx="2537" cy="1189" r="5"/><circle cx="6" cy="1251" r="5"/><circle cx="106" cy="1258" r="4"/><circle cx="174" cy="1241" r="4"/><circle cx="293" cy="1200" r="5"/><circle cx="331" cy="1210" r="6"/><circle cx="436" cy="1273" r="6"/><circle cx="523" cy="1260" r="5"/><circle cx="637" cy="1261" r="6"/><circle cx="708" cy="1274" r="5"/><circle cx="781" cy="1220" r="6"/><circle cx="843" cy="1256" r="6"/><circle cx="947" cy="1216" r="6"/><circle cx="1026" cy="1250" r="4"/><circle cx="1087" cy="1269" r="5"/><circle cx="1124" cy="1234" r="6"/><circle cx="1240" cy="1262" r="4"/><circle cx="1296" cy="1270" r="6"/><circle cx="1395" cy="1278" r="4"/><circle cx="1477" cy="1234" r="6"/><circle cx="1524" cy="1275" r="5"/><circle cx="1670" cy="1234" r="5"/><circle cx="1720" cy="1207" r="5"/><circle cx="1786" cy="1211" r="5"/><circle cx="1907" cy="1233" r="4"/><circle cx="1976" cy="1249" r="5"/><circle cx="2049" cy="1220" r="5"/><circle cx="2087" cy="1262" r="5"/><circle cx="2195" cy="1209" r="4"/><circle cx="2304" cy="1215" r="5"/><circle cx="2329" cy="1246" r="4"/><circle cx="2448" cy="1251" r="6"/><circle cx="2537" cy="1222" r="6"/><circle cx="56" cy="1296" r="5"/><circle cx="94" cy="1293" r="6"/><circle cx="199" cy="1359" r="6"/><circle cx="306" cy="1316" r="6"/><circle cx="387" cy="1319" r="6"/><circle cx="457" cy="1284" r="5"/><circle cx="544" cy="1291" r="5"/><circle cx="617" cy="1342" r="5"/><circle cx="651" cy="1358" r="5"/><circle cx="793" cy="1312" r="5"/><circle cx="842" cy="1332" r="4"/><circle cx="953" cy="1321" r="5"/><circle cx="1024" cy="1303" r="5"/><circle cx="1078" cy="1315" r="5"/><circle cx="1123" cy="1293" r="5"/><circle cx="1220" cy="1298" r="5"/><circle cx="1332" cy="1296" r="5"/><circle cx="1436" cy="1306" r="4"/><circle cx="1506" cy="1358" r="5"/><circle cx="1559" cy="1314" r="4"/><circle cx="1669" cy="1344" r="6"/><circle cx="1750" cy="1343" r="5"/><circle cx="1835" cy="1306" r="4"/><circle cx="1875" cy="1301" r="5"/><circle cx="1951" cy="1309" r="5"/><circle cx="2013" cy="1327" r="5"/><circle cx="2134" cy="1348" r="4"/><circle cx="2204" cy="1326" r="4"/><circle cx="2249" cy="1331" r="6"/><circle cx="2355" cy="1309" r="5"/><circle cx="2456" cy="1299" r="5"/><circle cx="2535" cy="1340" r="5"/><circle cx="65" cy="1374" r="4"/><circle cx="87" cy="1437" r="5"/><circle cx="87" cy="-3" r="5"/><circle cx="235" cy="1439" r="5"/><circle cx="235" cy="-1" r="5"/><circle cx="275" cy="1360" r="5"/><circle cx="339" cy="1439" r="5"/><circle cx="339" cy="-1" r="5"/><circle cx="449" cy="1404" r="5"/><circle cx="545" cy="1418" r="4"/><circle cx="616" cy="1419" r="5"/><circle cx="659" cy="1410" r="5"/><circle cx="786" cy="1416" r="4"/><circle cx="860" cy="1408" r="4"/><circle cx="904" cy="1364" r="6"/><circle cx="1004" cy="1432" r="4"/><circle cx="1068" cy="1366" r="5"/><circle cx="1124" cy="1412" r="5"/><circle cx="1201" cy="1423" r="6"/><circle cx="1296" cy="1411" r="5"/><circle cx="1381" cy="1365" r="6"/><circle cx="1516" cy="1381" r="5"/><circle cx="1589" cy="1437" r="5"/><circle cx="1589" cy="-3" r="5"/><circle cx="1627" cy="1361" r="5"/><circle cx="1710" cy="1360" r="6"/><circle cx="1802" cy="1425" r="5"/><circle cx="1856" cy="1427" r="5"/><circle cx="1983" cy="1420" r="4"/><circle cx="2014" cy="1422" r="4"/><circle cx="2086" cy="1384" r="4"/><circle cx="2223" cy="1427" r="4"/><circle cx="2312" cy="1385" r="6"/><circle cx="2322" cy="1399" r="6"/><circle cx="2478" cy="1364" r="5"/><circle cx="2539" cy="1367" r="5"/><path stroke="#fff" d="M31 77L83 40M31 77L-73 73M31 77L57 102M31 77L55 177M31 77L87 -3M2591 77L2487 73M31 1517L87 1437M83 40L178 41M83 40L57 102M83 40L179 91M83 40L87 -3M83 1480L87 1437M178 41L263 16M178 41L179 91M178 41L87 -3M178 41L235 -1M178 1481L87 1437M178 1481L235 1439M263 16L356 33M263 16L308 93M263 16L235 -1M263 16L339 -1M263 1456L235 1439M263 1456L339 1439M356 33L407 64M356 33L308 93M356 33L345 125M356 33L339 -1M356 1473L339 1439M407 64L345 125M407 64L442 114M407 64L339 -1M407 1504L339 1439M558 55L608 57M558 55L537 83M558 55L618 107M558 55L545 -22M558 1495L545 1418M608 57L677 8M608 57L537 83M608 57L618 107M677 8L714 81M677 8L651 -82M677 8L616 -21M677 8L659 -30M677 1448L651 1358M677 1448L616 1419M677 1448L659 1410M744 79L714 81M744 79L734 139M744 79L857 86M744 79L786 -24M744 1519L786 1416M855 31L929 7M855 31L857 86M855 31L911 94M855 31L786 -24M855 31L860 -32M855 1471L786 1416M855 1471L860 1408M929 7L911 94M929 7L860 -32M929 7L904 -76M929 7L1004 -8M929 1447L860 1408M929 1447L904 1364M929 1447L1004 1432M989 69L969 125M989 69L1004 -8M989 1509L1004 1432M1107 2L1145 43M1107 2L1004 -8M1107 2L1068 -74M1107 2L1124 -28M1107 2L1201 -17M1107 1442L1004 1432M1107 1442L1068 1366M1107 1442L1124 1412M1107 1442L1201 1423M1145 43L1092 141M1145 43L1167 88M1145 43L1124 -28M1145 43L1201 -17M1145 1483L1124 1412M1145 1483L1201 1423M1279 46L1318 77M1279 46L1245 148M1279 46L1323 99M1279 46L1201 -17M1279 46L1296 -29M1279 1486L1201 1423M1279 1486L1296 1411M1318 77L1245 148M1318 77L1323 99M1318 77L1384 139M1318 77L1296 -29M1318 1517L1296 1411M1418 30L1450 62M1418 30L1381 -75M1418 1470L1381 1365M1450 62L1384 139M1450 62L1538 110M1573 8L1629 54M1573 8L1602 111M1573 8L1516 -59M1573 8L1589 -3M1573 1448L1516 1381M1573 1448L1589 1437M1629 54L1717 70M1629 54L1602 111M1629 54L1589 -3M1629 1494L1589 1437M1717 70L1744 118M1837 64L1913 67M1837 64L1784 135M1837 64L1860 158M1837 64L1802 -15M1837 64L1856 -13M1837 1504L1802 1425M1837 1504L1856 1427M1913 67L1997 77M1913 67L2002 41M1913 67L1992 109M1913 67L1856 -13M1913 1507L1856 1427M1997 77L2002 41M1997 77L1992 109M1997 77L2051 128M1997 77L1983 -20M1997 1517L1983 1420M2002 41L1992 109M2002 41L1983 -20M2002 41L2014 -18M2002 1481L1983 1420M2002 1481L2014 1422M2154 73L2185 79M2154 73L2133 108M2154 73L2221 85M2154 73L2104 172M2185 79L2133 108M2185 79L2221 85M2185 79L2223 -13M2185 1519L2223 1427M2283 21L2221 85M2283 21L2359 98M2283 21L2223 -13M2283 21L2312 -55M2283 21L2322 -41M2283 1461L2223 1427M2283 1461L2312 1385M2283 1461L2322 1399M2393 40L2423 31M2393 40L2487 73M2393 40L2359 98M2393 40L2427 81M2423 31L2487 73M2423 31L2359 98M2423 31L2427 81M2487 73L2427 81M2487 73L2491 146M57 102L132 148M57 102L55 177M57 102L129 161M132 148L179 91M132 148L55 177M132 148L129 161M132 148L236 206M179 91L129 161M179 91L235 -1M179 1531L235 1439M308 93L345 125M308 93L362 186M308 93L339 -1M308 1533L339 1439M345 125L442 114M345 125L362 186M442 114L537 83M442 114L423 202M537 83L618 107M618 107L714 81M618 107L584 186M714 81L734 139M734 139L750 223M734 139L814 201M734 139L786 241M857 86L911 94M857 86L969 125M857 86L926 172M911 94L969 125M911 94L926 172M969 125L926 172M969 125L981 194M1092 141L1167 88M1092 141L1051 210M1092 141L1136 210M1092 141L1129 248M1245 148L1323 99M1245 148L1280 236M1245 148L1282 195M1323 99L1384 139M1323 99L1282 195M1384 139L1387 203M1515 146L1538 110M1515 146L1602 111M1515 146L1518 214M1538 110L1602 111M1538 110L1600 185M1602 111L1600 185M1744 118L1784 135M1744 118L1718 211M1744 118L1802 182M1784 135L1860 158M1784 135L1802 182M1860 158L1802 182M1860 158L1879 168M1992 109L2051 128M1992 109L2035 182M2051 128L2133 108M2051 128L2035 182M2051 128L2104 172M2133 108L2221 85M2133 108L2104 172M2221 85L2276 149M2276 149L2359 98M2276 149L2299 198M2276 149L2274 244M2359 98L2427 81M2427 81L2491 146M2491 146L2404 211M2491 146L2508 208M55 177L129 161M55 177L17 272M236 206L288 217M236 206L186 268M236 206L336 248M288 217L362 186M288 217L186 268M288 217L294 306M288 217L336 248M362 186L423 202M362 186L336 248M423 202L336 248M423 202L438 281M423 202L495 244M550 195L584 186M550 195L642 227M550 195L495 244M550 195L597 253M584 186L642 227M584 186L495 244M584 186L597 253M642 227L597 253M642 227L673 288M750 223L814 201M750 223L673 288M750 223L786 241M750 223L804 322M814 201L786 241M814 201L874 270M926 172L981 194M926 172L973 253M981 194L1051 210M981 194L973 253M1051 210L1136 210M1051 210L973 253M1051 210L1129 248M1136 210L1082 295M1136 210L1129 248M1280 236L1282 195M1280 236L1248 261M1280 236L1292 314M1280 236L1377 290M1282 195L1387 203M1282 195L1248 261M1387 203L1377 290M1518 214L1600 185M1518 214L1548 256M1600 185L1620 237M1600 185L1548 256M1620 237L1718 211M1620 237L1548 256M1620 237L1633 306M1620 237L1682 251M1718 211L1802 182M1718 211L1682 251M1718 211L1808 285M1802 182L1879 168M1879 168L1975 216M1975 216L2035 182M1975 216L1894 270M1975 216L1977 270M1975 216L2049 291M2035 182L2104 172M2035 182L1977 270M2104 172L2170 217M2170 217L2098 295M2170 217L2167 316M2170 217L2274 244M2299 198L2357 203M2299 198L2404 211M2299 198L2274 244M2357 203L2404 211M2357 203L2274 244M2357 203L2385 268M2357 203L2420 266M2404 211L2385 268M2404 211L2420 266M2508 208L2577 272M2508 208L2420 266M2508 208L2533 257M-52 208L17 272M17 272L117 300M17 272L-27 257M2577 272L2533 257M117 300L186 268M117 300L78 392M117 300L115 381M294 306L336 248M294 306L214 369M294 306L272 348M294 306L372 367M438 281L495 244M438 281L372 367M438 281L471 373M597 253L673 288M597 253L559 335M673 288L675 329M786 241L874 270M786 241L804 322M874 270L804 322M874 270L953 337M956 317L973 253M956 317L953 337M956 317L962 376M973 253L953 337M1082 295L1129 248M1082 295L1102 372M1082 295L1141 388M1129 248L1248 261M1248 261L1292 314M1292 314L1377 290M1292 314L1248 382M1292 314L1329 328M1377 290L1329 328M1377 290L1384 348M1518 318L1548 256M1518 318L1487 346M1518 318L1580 345M1518 318L1482 409M1518 318L1524 415M1548 256L1580 345M1633 306L1682 251M1633 306L1580 345M1633 306L1654 356M1682 251L1654 356M1808 285L1894 270M1808 285L1733 379M1808 285L1824 326M1808 285L1858 321M1894 270L1977 270M1894 270L1824 326M1894 270L1858 321M1977 270L2049 291M1977 270L1994 377M2049 291L2098 295M2098 295L2167 316M2098 295L2083 378M2167 316L2235 382M2274 244L2385 268M2385 268L2420 266M2385 268L2355 357M2420 266L2355 357M78 392L115 381M78 392L53 418M78 392L82 424M115 381L214 369M115 381L53 418M115 381L82 424M214 369L272 348M214 369L217 429M214 369L270 432M272 348L217 429M272 348L270 432M272 348L344 403M372 367L471 373M372 367L344 403M471 373L559 335M471 373L484 452M559 335L578 378M559 335L675 329M559 335L570 404M578 378L570 404M578 378L619 494M675 329L804 322M675 329L667 425M795 371L804 322M795 371L862 460M953 337L962 376M953 337L925 443M962 376L925 443M962 376L1047 458M1102 372L1141 388M1102 372L1047 458M1141 388L1248 382M1141 388L1194 452M1141 388L1156 481M1248 382L1194 452M1248 382L1232 474M1248 382L1299 444M1329 328L1384 348M1329 328L1392 411M1384 348L1487 346M1384 348L1392 411M1487 346L1482 409M1487 346L1524 415M1580 345L1654 356M1580 345L1524 415M1654 356L1733 379M1654 356L1691 454M1733 379L1691 454M1733 379L1774 407M1733 379L1700 482M1824 326L1858 321M1824 326L1774 407M1858 321L1774 407M1858 321L1871 444M1994 377L2031 397M1994 377L2083 378M1994 377L1939 412M1994 377L2077 415M2031 397L2083 378M2031 397L1939 412M2031 397L2077 415M2031 397L2113 416M2083 378L2077 415M2083 378L2113 416M2235 382L2248 394M2235 382L2213 458M2235 382L2325 424M2248 394L2213 458M2248 394L2306 466M2248 394L2325 424M2248 394L2233 493M2355 357L2415 397M2355 357L2325 424M2415 397L2485 371M2415 397L2450 447M2415 397L2515 437M2415 397L2409 491M2485 371L2450 447M2485 371L2515 437M53 418L82 424M53 418L-45 437M53 418L99 506M2613 418L2515 437M82 424L99 506M217 429L270 432M217 429L205 485M270 432L344 403M270 432L205 485M344 403L434 478M434 478L484 452M434 478L408 521M434 478L504 533M484 452L570 404M484 452L504 533M570 404L667 425M570 404L619 494M667 425L743 479M667 425L619 494M743 479L702 521M743 479L740 512M743 479L815 538M862 460L925 443M862 460L815 538M862 460L932 507M925 443L994 477M925 443L932 507M994 477L1047 458M994 477L932 507M994 477L970 558M994 477L1096 500M1047 458L1096 500M1194 452L1232 474M1194 452L1299 444M1194 452L1156 481M1232 474L1299 444M1232 474L1156 481M1232 474L1222 558M1299 444L1392 411M1299 444L1321 503M1392 411L1482 409M1482 409L1524 415M1482 409L1475 511M1524 415L1475 511M1664 473L1691 454M1664 473L1592 543M1664 473L1666 491M1664 473L1700 482M1691 454L1666 491M1691 454L1700 482M1774 407L1871 444M1774 407L1700 482M1871 444L1939 412M1871 444L1822 535M1871 444L1907 499M1939 412L1907 499M2077 415L2113 416M2077 415L2093 499M2113 416L2213 458M2113 416L2093 499M2213 458L2306 466M2213 458L2233 493M2306 466L2325 424M2306 466L2233 493M2306 466L2371 514M2325 424L2371 514M2450 447L2515 437M2450 447L2371 514M2450 447L2409 491M2515 437L2554 505M8 552L99 506M8 552L-6 505M8 552L28 638M8 552L-69 575M2568 552L2554 505M2568 552L2491 575M99 506L205 485M99 506L-6 505M2659 506L2554 505M205 485L221 566M307 522L328 540M307 522L408 521M307 522L221 566M307 522L304 594M328 540L408 521M328 540L304 594M328 540L382 598M408 521L504 533M408 521L382 598M504 533L476 604M504 533L506 631M619 494L702 521M702 521L740 512M702 521L707 607M702 521L755 590M740 512L815 538M740 512L755 590M815 538L755 590M815 538L877 605M932 507L970 558M932 507L991 592M970 558L956 626M970 558L991 592M970 558L1056 578M1096 500L1156 481M1096 500L1056 578M1096 500L1196 568M1156 481L1196 568M1222 558L1321 503M1222 558L1196 568M1222 558L1258 635M1222 558L1318 638M1321 503L1400 530M1400 530L1475 511M1400 530L1410 562M1475 511L1410 562M1475 511L1476 608M1592 543L1666 491M1592 543L1534 627M1592 543L1654 610M1666 491L1700 482M1822 535L1907 499M1822 535L1750 611M1822 535L1809 587M1907 499L1985 532M1907 499L1915 570M1985 532L2029 510M1985 532L1915 570M1985 532L1983 597M2029 510L2093 499M2029 510L2049 603M2029 510L2091 562M2093 499L2091 562M2233 493L2272 556M2272 556L2229 632M2272 556L2333 587M2371 514L2409 491M2371 514L2333 587M2554 505L2491 575M28 638L126 625M28 638L29 692M28 638L-19 673M2588 638L2541 673M126 625L156 680M126 625L160 674M221 566L304 594M304 594L382 598M304 594L388 642M382 598L476 604M382 598L388 642M476 604L506 631M476 604L388 642M476 604L493 659M506 631L461 700M506 631L493 659M506 631L597 654M629 637L707 607M629 637L597 654M629 637L658 655M707 607L755 590M707 607L658 655M707 607L741 694M755 590L741 694M877 605L956 626M877 605L833 668M877 605L905 682M956 626L991 592M956 626L905 682M956 626L1054 656M991 592L1056 578M991 592L1054 656M1056 578L1036 702M1056 578L1054 656M1196 568L1258 635M1258 635L1318 638M1258 635L1203 705M1258 635L1352 646M1318 638L1352 646M1318 638L1371 693M1318 638L1269 744M1410 562L1476 608M1410 562L1352 646M1476 608L1534 627M1476 608L1454 656M1476 608L1531 653M1534 627L1454 656M1534 627L1531 653M1534 627L1633 683M1654 610L1750 611M1654 610L1633 683M1654 610L1711 644M1750 611L1809 587M1750 611L1711 644M1750 611L1821 657M1809 587L1915 570M1809 587L1711 644M1809 587L1821 657M1915 570L1983 597M1915 570L1940 654M1983 597L2049 603M1983 597L2091 562M1983 597L1940 654M2049 603L2091 562M2049 603L2075 666M2049 603L2108 691M2091 562L2075 666M2229 632L2309 635M2229 632L2221 644M2229 632L2291 646M2309 635L2333 587M2309 635L2221 644M2309 635L2291 646M2309 635L2324 695M2333 587L2291 646M2333 587L2324 695M2446 638L2491 575M2446 638L2454 700M29 692L-19 673M29 692L17 749M29 692L110 737M2589 692L2541 673M156 680L160 674M156 680L262 718M156 680L110 737M156 680L240 744M160 674L262 718M160 674L110 737M160 674L240 744M262 718L240 744M262 718L281 722M388 642L461 700M388 642L493 659M461 700L493 659M461 700L468 776M493 659L597 654M597 654L658 655M597 654L563 759M658 655L741 694M741 694L708 784M741 694L758 752M833 668L905 682M833 668L866 724M905 682L866 724M905 682L923 788M1036 702L1054 656M1036 702L1038 753M1036 702L1098 729M1036 702L1088 812M1054 656L1098 729M1160 695L1203 705M1160 695L1098 729M1160 695L1196 748M1203 705L1196 748M1203 705L1269 744M1352 646L1371 693M1371 693L1454 656M1371 693L1327 786M1371 693L1427 754M1454 656L1531 653M1454 656L1477 745M1531 653L1633 683M1531 653L1477 745M1633 683L1711 644M1633 683L1671 730M1711 644L1671 730M1821 657L1864 700M1821 657L1874 750M1864 700L1940 654M1864 700L1874 750M1864 700L1965 734M1940 654L1965 734M2075 666L2108 691M2075 666L2123 778M2108 691L2221 644M2108 691L2123 778M2108 691L2194 765M2221 644L2291 646M2291 646L2324 695M2324 695L2310 732M2324 695L2333 740M2454 700L2541 673M2454 700L2333 740M2454 700L2471 792M2454 700L2525 748M2541 673L2577 749M2541 673L2525 748M-19 673L17 749M17 749L-35 748M17 749L86 823M17 749L-11 820M2577 749L2525 748M2577 749L2549 820M110 737L67 827M110 737L86 823M240 744L281 722M240 744L207 823M281 722L207 823M392 788L468 776M392 788L363 816M392 788L460 809M392 788L369 885M468 776L540 798M468 776L460 809M468 776L514 846M540 798L563 759M540 798L460 809M540 798L514 846M540 798L582 824M563 759L582 824M563 759L662 818M708 784L758 752M708 784L662 818M708 784L730 839M708 784L736 898M758 752L866 724M758 752L730 839M866 724L923 788M923 788L871 865M923 788L949 824M923 788L977 866M1038 753L1098 729M1038 753L949 824M1038 753L1088 812M1098 729L1088 812M1196 748L1269 744M1269 744L1327 786M1269 744L1266 852M1327 786L1266 852M1327 786L1325 857M1327 786L1391 854M1427 754L1477 745M1427 754L1525 797M1477 745L1525 797M1525 797L1458 866M1525 797L1529 857M1525 797L1614 813M1671 730L1745 790M1671 730L1614 813M1671 730L1699 818M1745 790L1779 789M1745 790L1699 818M1745 790L1762 838M1779 789L1874 750M1779 789L1699 818M1779 789L1762 838M1874 750L1965 734M1874 750L1913 805M1965 734L2010 778M1965 734L1913 805M2010 778L1913 805M2010 778L2031 843M2123 778L2194 765M2123 778L2089 862M2194 765L2310 732M2194 765L2229 859M2194 765L2250 803M2310 732L2333 740M2310 732L2250 803M2310 732L2334 811M2333 740L2250 803M2333 740L2334 811M2471 792L2525 748M2471 792L2433 873M2471 792L2549 820M2525 748L2549 820M67 827L86 823M67 827L-11 820M67 827L36 887M67 827L149 904M2627 827L2549 820M86 823L36 887M86 823L149 904M207 823L290 877M207 823L149 904M207 823L271 897M290 877L363 816M290 877L271 897M290 877L369 885M363 816L460 809M363 816L369 885M460 809L514 846M514 846L582 824M514 846L562 915M582 824L662 818M582 824L562 915M662 818L730 839M662 818L706 905M730 839L706 905M730 839L736 898M871 865L949 824M871 865L808 951M871 865L932 904M949 824L977 866M949 824L932 904M977 866L932 904M977 866L1035 943M1088 812L1121 861M1088 812L1068 906M1121 861L1068 906M1121 861L1140 939M1266 852L1325 857M1266 852L1266 931M1325 857L1391 854M1325 857L1266 931M1325 857L1330 936M1391 854L1458 866M1391 854L1330 936M1458 866L1529 857M1458 866L1463 963M1529 857L1614 813M1529 857L1514 946M1614 813L1699 818M1614 813L1605 915M1699 818L1762 838M1762 838L1838 900M1913 805L1971 872M1971 872L2031 843M1971 872L1951 914M1971 872L2000 918M2031 843L2089 862M2031 843L1951 914M2031 843L2000 918M2089 862L2000 918M2089 862L2132 945M2089 862L2081 976M2229 859L2250 803M2229 859L2334 811M2229 859L2174 941M2229 859L2303 930M2250 803L2334 811M2433 873L2347 930M2433 873L2435 912M2433 873L2491 937M2549 820L2596 887M-11 820L36 887M36 887L149 904M149 904L181 959M181 959L271 897M181 959L75 988M181 959L238 1025M181 959L264 1015M271 897L369 885M369 885L440 924M440 924L519 956M440 924L460 1037M519 956L562 915M519 956L548 1018M519 956L597 1008M519 956L494 1055M562 915L548 1018M562 915L597 1008M706 905L736 898M736 898L808 951M736 898L799 961M808 951L799 961M808 951L853 980M808 951L869 1043M932 904L853 980M1035 943L1068 906M1035 943L1008 1036M1035 943L1056 975M1068 906L1140 939M1068 906L1056 975M1140 939L1056 975M1140 939L1176 997M1140 939L1207 976M1266 931L1330 936M1266 931L1207 976M1266 931L1304 984M1330 936L1387 948M1330 936L1304 984M1387 948L1304 984M1387 948L1417 1012M1387 948L1463 963M1387 948L1389 1047M1514 946L1569 943M1514 946L1463 963M1514 946L1585 965M1569 943L1605 915M1569 943L1585 965M1569 943L1609 1010M1605 915L1691 952M1605 915L1585 965M1605 915L1609 1010M1691 952L1700 1014M1691 952L1738 1045M1838 900L1845 951M1845 951L1832 1025M1845 951L1918 992M1845 951L1929 968M1951 914L2000 918M1951 914L1918 992M1951 914L1929 968M2000 918L1929 968M2132 945L2174 941M2132 945L2073 1023M2132 945L2081 976M2132 945L2174 1006M2174 941L2174 1006M2303 930L2347 930M2303 930L2306 961M2347 930L2435 912M2347 930L2306 961M2347 930L2393 993M2435 912L2491 937M2435 912L2393 993M2491 937L2418 1021M2491 937L2514 995M75 988L92 1033M75 988L-46 995M2635 988L2514 995M92 1033L15 1084M92 1033L158 1119M238 1025L264 1015M238 1025L334 1011M238 1025L219 1112M238 1025L294 1040M264 1015L334 1011M264 1015L219 1112M264 1015L294 1040M334 1011L294 1040M460 1037L548 1018M460 1037L431 1088M460 1037L494 1055M548 1018L597 1008M548 1018L494 1055M597 1008L677 1009M677 1009L638 1115M677 1009L700 1094M677 1009L743 1046M799 961L853 980M799 961L743 1046M799 961L869 1043M853 980L949 997M853 980L869 1043M949 997L1008 1036M949 997L869 1043M949 997L984 1053M1008 1036L1056 975M1008 1036L984 1053M1056 975L984 1053M1176 997L1207 976M1207 976L1304 984M1304 984L1389 1047M1417 1012L1463 963M1417 1012L1336 1101M1417 1012L1389 1047M1417 1012L1478 1093M1585 965L1609 1010M1609 1010L1700 1014M1609 1010L1637 1059M1700 1014L1637 1059M1700 1014L1738 1045M1700 1014L1762 1080M1832 1025L1918 992M1832 1025L1738 1045M1832 1025L1762 1080M1918 992L1929 968M1918 992L1942 1066M1929 968L1942 1066M2073 1023L2081 976M2073 1023L2174 1006M2073 1023L2030 1064M2073 1023L2095 1075M2174 1006L2191 1084M2306 961L2393 993M2306 961L2284 1052M2393 993L2418 1021M2393 993L2395 1057M2418 1021L2514 995M2418 1021L2395 1057M2418 1021L2417 1100M2514 995L2575 1084M-46 995L15 1084M15 1084L-19 1114M15 1084L23 1176M2575 1084L2541 1114M158 1119L219 1112M158 1119L109 1182M158 1119L194 1192M219 1112L194 1192M294 1040L317 1121M366 1107L431 1088M366 1107L317 1121M366 1107L381 1125M366 1107L331 1210M431 1088L494 1055M431 1088L381 1125M431 1088L469 1158M494 1055L469 1158M638 1115L700 1094M638 1115L615 1136M638 1115L677 1199M638 1115L728 1129M700 1094L743 1046M700 1094L615 1136M700 1094L728 1129M743 1046L728 1129M869 1043L885 1091M885 1091L867 1194M885 1091L947 1176M984 1053L1060 1117M984 1053L980 1124M1060 1117L1148 1112M1060 1117L980 1124M1060 1117L1081 1126M1148 1112L1237 1097M1148 1112L1081 1126M1148 1112L1169 1176M1148 1112L1201 1157M1237 1097L1336 1101M1237 1097L1169 1176M1237 1097L1201 1157M1237 1097L1336 1170M1336 1101L1389 1047M1336 1101L1336 1170M1389 1047L1478 1093M1478 1093L1521 1099M1478 1093L1471 1161M1478 1093L1576 1131M1521 1099L1430 1187M1521 1099L1471 1161M1521 1099L1576 1131M1637 1059L1738 1045M1637 1059L1576 1131M1637 1059L1648 1148M1738 1045L1762 1080M1762 1080L1730 1180M1762 1080L1838 1154M1913 1113L1942 1066M1913 1113L1838 1154M1913 1113L1878 1140M1913 1113L1994 1174M1913 1113L1907 1233M1942 1066L2030 1064M1942 1066L1878 1140M2030 1064L2095 1075M2030 1064L2058 1141M2095 1075L2191 1084M2095 1075L2058 1141M2095 1075L2189 1122M2191 1084L2284 1052M2191 1084L2189 1122M2191 1084L2248 1165M2284 1052L2337 1124M2395 1057L2417 1100M2395 1057L2337 1124M2395 1057L2461 1137M2417 1100L2337 1124M2417 1100L2461 1137M2541 1114L2583 1176M2541 1114L2461 1137M2541 1114L2537 1189M-19 1114L23 1176M23 1176L-23 1189M23 1176L6 1251M23 1176L-23 1222M2583 1176L2537 1189M2583 1176L2537 1222M109 1182L194 1192M109 1182L106 1258M109 1182L174 1241M194 1192L174 1241M194 1192L293 1200M317 1121L381 1125M317 1121L293 1200M317 1121L331 1210M381 1125L469 1158M381 1125L331 1210M469 1158L500 1169M469 1158L436 1273M500 1169L523 1260M615 1136L677 1199M677 1199L728 1129M677 1199L637 1261M677 1199L708 1274M728 1129L781 1220M867 1194L947 1176M867 1194L781 1220M867 1194L843 1256M867 1194L947 1216M947 1176L980 1124M947 1176L947 1216M980 1124L1081 1126M980 1124L947 1216M1081 1126L1169 1176M1169 1176L1201 1157M1169 1176L1124 1234M1201 1157L1124 1234M1201 1157L1240 1262M1336 1170L1430 1187M1336 1170L1296 1270M1430 1187L1471 1161M1430 1187L1477 1234M1471 1161L1576 1131M1471 1161L1477 1234M1576 1131L1648 1148M1648 1148L1730 1180M1648 1148L1670 1234M1648 1148L1720 1207M1730 1180L1670 1234M1730 1180L1720 1207M1730 1180L1786 1211M1838 1154L1878 1140M1838 1154L1786 1211M1878 1140L1786 1211M1878 1140L1907 1233M1994 1174L2058 1141M1994 1174L1976 1249M1994 1174L2049 1220M2058 1141L2123 1197M2058 1141L2049 1220M2123 1197L2189 1122M2123 1197L2049 1220M2123 1197L2087 1262M2123 1197L2195 1209M2189 1122L2248 1165M2189 1122L2195 1209M2248 1165L2337 1124M2248 1165L2195 1209M2248 1165L2304 1215M2337 1124L2304 1215M2461 1137L2537 1189M2461 1137L2448 1251M2537 1189L2566 1251M2537 1189L2537 1222M-23 1189L6 1251M6 1251L-23 1222M6 1251L56 1296M6 1251L94 1293M2566 1251L2537 1222M106 1258L174 1241M106 1258L56 1296M106 1258L94 1293M174 1241L94 1293M174 1241L199 1359M293 1200L331 1210M293 1200L306 1316M331 1210L306 1316M436 1273L523 1260M436 1273L387 1319M436 1273L457 1284M436 1273L544 1291M523 1260L457 1284M523 1260L544 1291M637 1261L708 1274M637 1261L544 1291M637 1261L617 1342M637 1261L651 1358M708 1274L781 1220M708 1274L793 1312M781 1220L843 1256M781 1220L793 1312M843 1256L947 1216M843 1256L793 1312M843 1256L842 1332M947 1216L1026 1250M1026 1250L1087 1269M1026 1250L1024 1303M1087 1269L1124 1234M1087 1269L1024 1303M1087 1269L1078 1315M1087 1269L1123 1293M1124 1234L1078 1315M1124 1234L1123 1293M1240 1262L1296 1270M1240 1262L1220 1298M1240 1262L1332 1296M1296 1270L1395 1278M1296 1270L1220 1298M1296 1270L1332 1296M1395 1278L1477 1234M1395 1278L1332 1296M1395 1278L1436 1306M1395 1278L1381 1365M1477 1234L1524 1275M1477 1234L1436 1306M1524 1275L1436 1306M1524 1275L1506 1358M1524 1275L1559 1314M1524 1275L1516 1381M1670 1234L1720 1207M1670 1234L1669 1344M1720 1207L1786 1211M1786 1211L1835 1306M1907 1233L1976 1249M1907 1233L1875 1301M1907 1233L1951 1309M1976 1249L2049 1220M1976 1249L1951 1309M1976 1249L2013 1327M2049 1220L2087 1262M2087 1262L2195 1209M2087 1262L2013 1327M2087 1262L2134 1348M2195 1209L2304 1215M2304 1215L2329 1246M2329 1246L2355 1309M2448 1251L2537 1222M2448 1251L2355 1309M2448 1251L2456 1299M2448 1251L2478 1364M56 1296L94 1293M56 1296L-25 1340M56 1296L65 1374M2616 1296L2535 1340M94 1293L65 1374M199 1359L306 1316M199 1359L235 1439M199 1359L275 1360M306 1316L387 1319M306 1316L275 1360M387 1319L457 1284M387 1319L275 1360M387 1319L449 1404M457 1284L544 1291M457 1284L449 1404M544 1291L617 1342M617 1342L651 1358M617 1342L616 1419M617 1342L659 1410M651 1358L616 1419M651 1358L659 1410M793 1312L842 1332M793 1312L904 1364M842 1332L786 1416M842 1332L860 1408M842 1332L904 1364M953 1321L1024 1303M953 1321L904 1364M1024 1303L1078 1315M1024 1303L1068 1366M1078 1315L1123 1293M1078 1315L1068 1366M1123 1293L1220 1298M1123 1293L1068 1366M1220 1298L1332 1296M1332 1296L1381 1365M1436 1306L1506 1358M1436 1306L1381 1365M1506 1358L1559 1314M1506 1358L1516 1381M1506 1358L1589 1437M1559 1314L1669 1344M1559 1314L1516 1381M1559 1314L1627 1361M1669 1344L1750 1343M1669 1344L1627 1361M1669 1344L1710 1360M1750 1343L1835 1306M1750 1343L1627 1361M1750 1343L1710 1360M1750 1343L1802 1425M1835 1306L1875 1301M1835 1306L1802 1425M1875 1301L1951 1309M1875 1301L1856 1427M1951 1309L2013 1327M1951 1309L1983 1420M2013 1327L1983 1420M2013 1327L2086 1384M2134 1348L2204 1326M2134 1348L2086 1384M2204 1326L2249 1331M2249 1331L2355 1309M2249 1331L2223 1427M2249 1331L2312 1385M2249 1331L2322 1399M2355 1309L2312 1385M2355 1309L2322 1399M2456 1299L2535 1340M2456 1299L2478 1364M2456 1299L2539 1367M2535 1340L2625 1374M2535 1340L2478 1364M2535 1340L2539 1367M-25 1340L65 1374M65 1374L87 1437M65 1374L-21 1367M2625 1374L2539 1367M87 1437L-21 1367M2647 1437L2539 1367M235 1439L275 1360M275 1360L339 1439M449 1404L545 1418M545 1418L616 1419M545 1418L659 1410M616 1419L659 1410M786 1416L860 1408M860 1408L904 1364M1068 1366L1124 1412M1124 1412L1201 1423M1201 1423L1296 1411M1296 1411L1381 1365M1516 1381L1589 1437M1589 1437L1627 1361M1627 1361L1710 1360M1710 1360L1802 1425M1802 1425L1856 1427M1983 1420L2014 1422M2014 1422L2086 1384M2223 1427L2312 1385M2223 1427L2322 1399M2312 1385L2322 1399M2478 1364L2539 1367"/></svg>