<svg xmlns="http://www.w3.org/2000/svg" width="2560" height="1440" fill="#fff"><circle cx="47" cy="63" r="5"/><circle cx="113" cy="32" r="5"/><circle cx="162" cy="72" r="5"/><circle cx="305" cy="30" r="5"/><circle cx="359" cy="32" r="5"/><circle cx="416" cy="62" r="5"/><circle cx="499" cy="46" r="5"/><circle cx="605" cy="7" r="5"/><circle cx="660" cy="48" r="5"/><circle cx="781" cy="72" r="4"/><circle cx="853" cy="59" r="6"/><circle cx="936" cy="64" r="4"/><circle cx="1036" cy="60" r="5"/><circle cx="1112" cy="11" r="5"/><circle cx="1135" cy="9" r="6"/><circle cx="1250" cy="45" r="4"/><circle cx="1354" cy="25" r="4"/><circle cx="1434" cy="51" r="6"/><circle cx="1516" cy="14" r="5"/><circle cx="1588" cy="30" r="4"/><circle cx="1640" cy="8" r="5"/><circle cx="1738" cy="55" r="6"/><circle cx="1769" cy="72" r="6"/><circle cx="1882" cy="21" r="5"/><circle cx="1974" cy="18" r="5"/><circle cx="2010" cy="57" r="5"/><circle cx="2115" cy="58" r="5"/><circle cx="2166" cy="8" r="5"/><circle cx="2265" cy="11" r="5"/><circle cx="2396" cy="12" r="4"/><circle cx="2435" cy="42" r="5"/><circle cx="2559" cy="23" r="6"/><circle cx="-1" cy="23" r="6"/><circle cx="29" cy="136" r="4"/><circle cx="96" cy="113" r="5"/><circle cx="188" cy="101" r="5"/><circle cx="244" cy="85" r="5"/><circle cx="328" cy="141" r="5"/><circle cx="455" cy="90" r="6"/><circle cx="507" cy="116" r="5"/><circle cx="562" cy="98" r="6"/><circle cx="685" cy="100" r="5"/><circle cx="721" cy="113" r="4"/><circle cx="817" cy="84" r="5"/><circle cx="927" cy="148" r="4"/><circle cx="974" cy="114" r="6"/><circle cx="1104" cy="128" r="4"/><circle cx="1126" cy="120" r="4"/><circle cx="1201" cy="112" r="5"/><circle cx="1288" cy="155" r="5"/><circle cx="1423" cy="114" r="5"/><circle cx="1445" cy="132" r="4"/><circle cx="1551" cy="106" r="4"/><circle cx="1640" cy="109" r="4"/><circle cx="1689" cy="107" r="4"/><circle cx="1828" cy="94" r="5"/><circle cx="1881" cy="149" r="5"/><circle cx="1939" cy="86" r="5"/><circle cx="2015" cy="102" r="6"/><circle cx="2108" cy="129" r="4"/><circle cx="2191" cy="116" r="4"/><circle cx="2278" cy="118" r="5"/><circle cx="2337" cy="89" r="6"/><circle cx="2467" cy="127" r="5"/><circle cx="2513" cy="113" r="6"/><circle cx="32" cy="207" r="5"/><circle cx="132" cy="163" r="5"/><circle cx="206" cy="207" r="5"/><circle cx="266" cy="195" r="6"/><circle cx="322" cy="178" r="6"/><circle cx="447" cy="162" r="6"/><circle cx="555" cy="221" r="5"/><circle cx="607" cy="162" r="5"/><circle cx="652" cy="227" r="6"/><circle cx="791" cy="170" r="6"/><circle cx="843" cy="183" r="5"/><circle cx="900" cy="210" r="5"/><circle cx="1025" cy="179" r="4"/><circle cx="1073" cy="200" r="6"/><circle cx="1200" cy="238" r="5"/><circle cx="1278" cy="179" r="4"/><circle cx="1319" cy="219" r="4"/><circle cx="1374" cy="169" r="5"/><circle cx="1457" cy="183" r="4"/><circle cx="1573" cy="204" r="6"/><circle cx="1677" cy="237" r="5"/><circle cx="1759" cy="184" r="6"/><circle cx="1823" cy="182" r="6"/><circle cx="1892" cy="207" r="4"/><circle cx="1921" cy="201" r="5"/><circle cx="2009" cy="198" r="5"/><circle cx="2102" cy="226" r="5"/><circle cx="2172" cy="226" r="4"/><circle cx="2286" cy="221" r="6"/><circle cx="2383" cy="177" r="5"/><circle cx="2420" cy="230" r="5"/><circle cx="2513" cy="188" r="5"/><circle cx="69" cy="264" r="4"/><circle cx="124" cy="302" r="5"/><circle cx="196" cy="257" r="5"/><circle cx="252" cy="252" r="6"/><circle cx="351" cy="260" r="5"/><circle cx="425" cy="246" r="4"/><circle cx="493" cy="294" r="4"/><circle cx="570" cy="288" r="4"/><circle cx="718" cy="303" r="4"/><circle cx="720" cy="256" r="5"/><circle cx="876" cy="240" r="6"/><circle cx="910" cy="244" r="6"/><circle cx="971" cy="246" r="6"/><circle cx="1073" cy="295" r="5"/><circle cx="1177" cy="243" r="5"/><circle cx="1259" cy="246" r="5"/><circle cx="1360" cy="277" r="6"/><circle cx="1382" cy="307" r="4"/><circle cx="1470" cy="248" r="5"/><circle cx="1536" cy="312" r="6"/><circle cx="1618" cy="281" r="5"/><circle cx="1750" cy="292" r="5"/><circle cx="1830" cy="294" r="4"/><circle cx="1881" cy="250" r="5"/><circle cx="1970" cy="314" r="5"/><circle cx="2043" cy="295" r="6"/><circle cx="2103" cy="309" r="5"/><circle cx="2237" cy="261" r="4"/><circle cx="2302" cy="304" r="4"/><circle cx="2341" cy="315" r="5"/><circle cx="2466" cy="274" r="6"/><circle cx="2552" cy="280" r="6"/><circle cx="36" cy="372" r="6"/><circle cx="114" cy="323" r="5"/><circle cx="231" cy="357" r="5"/><circle cx="282" cy="359" r="6"/><circle cx="344" cy="391" r="5"/><circle cx="430" cy="333" r="5"/><circle cx="493" cy="351" r="5"/><circle cx="567" cy="389" r="5"/><circle cx="673" cy="379" r="4"/><circle cx="800" cy="361" r="5"/><circle cx="844" cy="326" r="4"/><circle cx="913" cy="387" r="5"/><circle cx="1035" cy="339" r="5"/><circle cx="1105" cy="347" r="5"/><circle cx="1174" cy="346" r="5"/><circle cx="1278" cy="330" r="6"/><circle cx="1318" cy="335" r="4"/><circle cx="1409" cy="386" r="4"/><circle cx="1499" cy="363" r="5"/><circle cx="1552" cy="361" r="4"/><circle cx="1606" cy="341" r="4"/><circle cx="1755" cy="321" r="5"/><circle cx="1816" cy="379" r="5"/><circle cx="1920" cy="332" r="5"/><circle cx="1987" cy="360" r="5"/><circle cx="2068" cy="378" r="5"/><circle cx="2129" cy="337" r="6"/><circle cx="2196" cy="326" r="4"/><circle cx="2318" cy="345" r="5"/><circle cx="2374" cy="347" r="4"/><circle cx="2461" cy="330" r="5"/><circle cx="2481" cy="372" r="6"/><circle cx="5" cy="479" r="4"/><circle cx="87" cy="433" r="6"/><circle cx="176" cy="411" r="5"/><circle cx="266" cy="413" r="6"/><circle cx="352" cy="433" r="5"/><circle cx="432" cy="470" r="5"/><circle cx="483" cy="449" r="5"/><circle cx="626" cy="471" r="5"/><circle cx="699" cy="457" r="5"/><circle cx="724" cy="425" r="5"/><circle cx="857" cy="479" r="6"/><circle cx="955" cy="457" r="5"/><circle cx="1037" cy="425" r="4"/><circle cx="1050" cy="442" r="6"/><circle cx="1155" cy="421" r="5"/><circle cx="1259" cy="419" r="4"/><circle cx="1309" cy="462" r="5"/><circle cx="1381" cy="413" r="6"/><circle cx="1511" cy="469" r="5"/><circle cx="1595" cy="410" r="6"/><circle cx="1673" cy="459" r="5"/><circle cx="1711" cy="414" r="5"/><circle cx="1763" cy="468" r="5"/><circle cx="1840" cy="472" r="6"/><circle cx="1969" cy="458" r="5"/><circle cx="2059" cy="447" r="5"/><circle cx="2121" cy="424" r="6"/><circle cx="2172" cy="465" r="5"/><circle cx="2282" cy="422" r="6"/><circle cx="2321" cy="441" r="6"/><circle cx="2406" cy="469" r="4"/><circle cx="2528" cy="451" r="6"/><circle cx="42" cy="494" r="5"/><circle cx="105" cy="554" r="6"/><circle cx="225" cy="493" r="4"/><circle cx="287" cy="558" r="5"/><circle cx="335" cy="543" r="5"/><circle cx="401" cy="553" r="5"/><circle cx="518" cy="542" r="5"/><circle cx="592" cy="505" r="5"/><circle cx="664" cy="484" r="5"/><circle cx="738" cy="498" r="5"/><circle cx="866" cy="481" r="5"/><circle cx="899" cy="483" r="5"/><circle cx="991" cy="540" r="5"/><circle cx="1051" cy="482" r="5"/><circle cx="1159" cy="522" r="5"/><circle cx="1209" cy="505" r="5"/><circle cx="1325" cy="542" r="6"/><circle cx="1433" cy="527" r="6"/><circle cx="1491" cy="506" r="4"/><circle cx="1539" cy="489" r="6"/><circle cx="1662" cy="557" r="4"/><circle cx="1708" cy="483" r="6"/><circle cx="1773" cy="482" r="5"/><circle cx="1915" cy="483" r="5"/><circle cx="1981" cy="494" r="4"/><circle cx="2036" cy="517" r="4"/><circle cx="2118" cy="481" r="4"/><circle cx="2186" cy="552" r="5"/><circle cx="2267" cy="488" r="6"/><circle cx="2333" cy="542" r="5"/><circle cx="2430" cy="525" r="4"/><circle cx="2506" cy="480" r="5"/><circle cx="38" cy="583" r="5"/><circle cx="98" cy="616" r="5"/><circle cx="234" cy="604" r="5"/><circle cx="314" cy="628" r="5"/><circle cx="367" cy="607" r="5"/><circle cx="464" cy="585" r="5"/><circle cx="509" cy="638" r="4"/><circle cx="565" cy="620" r="4"/><circle cx="700" cy="598" r="6"/><circle cx="744" cy="608" r="5"/><circle cx="809" cy="570" r="4"/><circle cx="922" cy="605" r="4"/><circle cx="992" cy="631" r="5"/><circle cx="1058" cy="573" r="4"/><circle cx="1164" cy="583" r="5"/><circle cx="1224" cy="623" r="5"/><circle cx="1339" cy="615" r="6"/><circle cx="1365" cy="579" r="6"/><circle cx="1480" cy="612" r="4"/><circle cx="1536" cy="578" r="5"/><circle cx="1617" cy="637" r="5"/><circle cx="1740" cy="594" r="5"/><circle cx="1809" cy="628" r="6"/><circle cx="1890" cy="631" r="5"/><circle cx="1997" cy="587" r="6"/><circle cx="2067" cy="638" r="6"/><circle cx="2108" cy="637" r="6"/><circle cx="2181" cy="597" r="4"/><circle cx="2272" cy="562" r="5"/><circle cx="2387" cy="623" r="4"/><circle cx="2425" cy="613" r="4"/><circle cx="2547" cy="604" r="4"/><circle cx="79" cy="679" r="5"/><circle cx="112" cy="717" r="4"/><circle cx="205" cy="672" r="5"/><circle cx="256" cy="694" r="5"/><circle cx="378" cy="690" r="5"/><circle cx="414" cy="641" r="5"/><circle cx="499" cy="691" r="5"/><circle cx="625" cy="703" r="5"/><circle cx="660" cy="712" r="5"/><circle cx="732" cy="711" r="6"/><circle cx="880" cy="670" r="4"/><circle cx="930" cy="695" r="5"/><circle cx="1037" cy="691" r="5"/><circle cx="1066" cy="684" r="6"/><circle cx="1186" cy="716" r="6"/><circle cx="1240" cy="643" r="5"/><circle cx="1336" cy="649" r="4"/><circle cx="1424" cy="664" r="6"/><circle cx="1465" cy="659" r="5"/><circle cx="1557" cy="678" r="5"/><circle cx="1626" cy="648" r="4"/><circle cx="1735" cy="712" r="6"/><circle cx="1762" cy="709" r="6"/><circle cx="1916" cy="711" r="4"/><circle cx="1973" cy="684" r="5"/><circle cx="2048" cy="690" r="4"/><circle cx="2111" cy="648" r="6"/><circle cx="2166" cy="696" r="5"/><circle cx="2302" cy="679" r="4"/><circle cx="2356" cy="716" r="5"/><circle cx="2439" cy="709" r="5"/><circle cx="2495" cy="675" r="5"/><circle cx="19" cy="794" r="6"/><circle cx="129" cy="744" r="4"/><circle cx="186" cy="737" r="5"/><circle cx="274" cy="787" r="4"/><circle cx="332" cy="726" r="5"/><circle cx="429" cy="799" r="4"/><circle cx="517" cy="760" r="4"/><circle cx="595" cy="782" r="4"/><circle cx="660" cy="794" r="4"/><circle cx="787" cy="737" r="6"/><circle cx="802" cy="742" r="5"/><circle cx="926" cy="796" r="4"/><circle cx="978" cy="779" r="6"/><circle cx="1067" cy="721" r="4"/><circle cx="1134" cy="738" r="4"/><circle cx="1230" cy="785" r="5"/><circle cx="1309" cy="750" r="5"/><circle cx="1420" cy="722" r="4"/><circle cx="1443" cy="729" r="6"/><circle cx="1588" cy="755" r="5"/><circle cx="1653" cy="775" r="4"/><circle cx="1705" cy="776" r="6"/><circle cx="1768" cy="778" r="6"/><circle cx="1912" cy="787" r="4"/><circle cx="1955" cy="742" r="5"/><circle cx="2016" cy="796" r="5"/><circle cx="2115" cy="751" r="5"/><circle cx="2235" cy="749" r="6"/><circle cx="2279" cy="766" r="4"/><circle cx="2346" cy="753" r="5"/><circle cx="2433" cy="763" r="5"/><circle cx="2499" cy="744" r="4"/><circle cx="35" cy="817" r="5"/><circle cx="108" cy="831" r="5"/><circle cx="203" cy="839" r="4"/><circle cx="312" cy="851" r="4"/><circle cx="338" cy="875" r="5"/><circle cx="470" cy="842" r="4"/><circle cx="552" cy="827" r="6"/><circle cx="573" cy="828" r="6"/><circle cx="655" cy="839" r="5"/><circle cx="776" cy="831" r="4"/><circle cx="810" cy="816" r="4"/><circle cx="907" cy="800" r="4"/><circle cx="997" cy="814" r="5"/><circle cx="1056" cy="836" r="5"/><circle cx="1126" cy="858" r="5"/><circle cx="1242" cy="800" r="4"/><circle cx="1333" cy="805" r="5"/><circle cx="1381" cy="866" r="5"/><circle cx="1520" cy="874" r="4"/><circle cx="1579" cy="863" r="4"/><circle cx="1657" cy="819" r="6"/><circle cx="1697" cy="827" r="5"/><circle cx="1798" cy="852" r="4"/><circle cx="1857" cy="810" r="6"/><circle cx="1952" cy="832" r="4"/><circle cx="2068" cy="834" r="6"/><circle cx="2126" cy="861" r="4"/><circle cx="2181" cy="860" r="5"/><circle cx="2318" cy="866" r="4"/><circle cx="2344" cy="867" r="5"/><circle cx="2428" cy="858" r="5"/><circle cx="2546" cy="857" r="4"/><circle cx="58" cy="930" r="5"/><circle cx="124" cy="952" r="5"/><circle cx="213" cy="951" r="5"/><circle cx="300" cy="945" r="4"/><circle cx="380" cy="949" r="5"/><circle cx="468" cy="898" r="6"/><circle cx="532" cy="916" r="5"/><circle cx="603" cy="910" r="5"/><circle cx="671" cy="951" r="5"/><circle cx="741" cy="900" r="5"/><circle cx="847" cy="949" r="4"/><circle cx="900" cy="949" r="5"/><circle cx="1013" cy="882" r="6"/><circle cx="1063" cy="917" r="5"/><circle cx="1128" cy="948" r="4"/><circle cx="1251" cy="955" r="5"/><circle cx="1334" cy="930" r="6"/><circle cx="1394" cy="891" r="4"/><circle cx="1454" cy="938" r="5"/><circle cx="1565" cy="926" r="6"/><circle cx="1657" cy="888" r="4"/><circle cx="1738" cy="925" r="5"/><circle cx="1766" cy="906" r="5"/><circle cx="1855" cy="923" r="4"/><circle cx="1924" cy="946" r="5"/><circle cx="2072" cy="900" r="5"/><circle cx="2099" cy="958" r="6"/><circle cx="2170" cy="930" r="5"/><circle cx="2310" cy="895" r="4"/><circle cx="2350" cy="921" r="5"/><circle cx="2475" cy="947" r="6"/><circle cx="2494" cy="923" r="5"/><circle cx="19" cy="1023" r="4"/><circle cx="134" cy="1026" r="5"/><circle cx="203" cy="968" r="4"/><circle cx="318" cy="962" r="6"/><circle cx="367" cy="981" r="5"/><circle cx="434" cy="1006" r="5"/><circle cx="486" cy="1004" r="5"/><circle cx="611" cy="970" r="5"/><circle cx="670" cy="983" r="6"/><circle cx="749" cy="961" r="4"/><circle cx="820" cy="1010" r="6"/><circle cx="934" cy="976" r="6"/><circle cx="1024" cy="1020" r="6"/><circle cx="1040" cy="1025" r="4"/><circle cx="1190" cy="994" r="6"/><circle cx="1272" cy="1003" r="6"/><circle cx="1303" cy="1014" r="6"/><circle cx="1361" cy="1011" r="6"/><circle cx="1456" cy="962" r="4"/><circle cx="1562" cy="966" r="5"/><circle cx="1614" cy="996" r="5"/><circle cx="1711" cy="1011" r="4"/><circle cx="1772" cy="992" r="5"/><circle cx="1844" cy="996" r="5"/><circle cx="1970" cy="1003" r="4"/><circle cx="2029" cy="1011" r="6"/><circle cx="2083" cy="973" r="5"/><circle cx="2168" cy="1018" r="6"/><circle cx="2316" cy="976" r="6"/><circle cx="2389" cy="979" r="5"/><circle cx="2474" cy="972" r="5"/><circle cx="2543" cy="1004" r="5"/><circle cx="34" cy="1063" r="6"/><circle cx="137" cy="1082" r="6"/><circle cx="224" cy="1069" r="6"/><circle cx="298" cy="1050" r="6"/><circle cx="325" cy="1043" r="4"/><circle cx="433" cy="1117" r="5"/><circle cx="503" cy="1074" r="4"/><circle cx="629" cy="1067" r="5"/><circle cx="673" cy="1052" r="5"/><circle cx="784" cy="1101" r="4"/><circle cx="803" cy="1069" r="6"/><circle cx="952" cy="1108" r="5"/><circle cx="981" cy="1109" r="6"/><circle cx="1046" cy="1112" r="5"/><circle cx="1162" cy="1048" r="5"/><circle cx="1279" cy="1118" r="6"/><circle cx="1321" cy="1079" r="6"/><circle cx="1367" cy="1081" r="5"/><circle cx="1441" cy="1078" r="6"/><circle cx="1521" cy="1109" r="6"/><circle cx="1680" cy="1110" r="5"/><circle cx="1759" cy="1065" r="5"/><circle cx="1787" cy="1105" r="4"/><circle cx="1899" cy="1075" r="5"/><circle cx="1987" cy="1096" r="6"/><circle cx="2001" cy="1046" r="5"/><circle cx="2147" cy="1080" r="6"/><circle cx="2220" cy="1109" r="4"/><circle cx="2267" cy="1100" r="6"/><circle cx="2398" cy="1058" r="6"/><circle cx="2464" cy="1093" r="5"/><circle cx="2516" cy="1100" r="5"/><circle cx="56" cy="1161" r="5"/><circle cx="122" cy="1167" r="4"/><circle cx="211" cy="1121" r="5"/><circle cx="299" cy="1144" r="6"/><circle cx="328" cy="1199" r="5"/><circle cx="440" cy="1142" r="4"/><circle cx="496" cy="1175" r="5"/><circle cx="630" cy="1130" r="4"/><circle cx="685" cy="1167" r="6"/><circle cx="763" cy="1195" r="6"/><circle cx="846" cy="1131" r="5"/><circle cx="934" cy="1189" r="5"/><circle cx="1004" cy="1130" r="5"/><circle cx="1106" cy="1130" r="5"/><circle cx="1192" cy="1174" r="4"/><circle cx="1213" cy="1130" r="5"/><circle cx="1335" cy="1195" r="6"/><circle cx="1365" cy="1127" r="5"/><circle cx="1488" cy="1184" r="4"/><circle cx="1527" cy="1142" r="5"/><circle cx="1622" cy="1190" r="6"/><circle cx="1707" cy="1147" r="5"/><circle cx="1770" cy="1140" r="5"/><circle cx="1876" cy="1194" r="5"/><circle cx="1983" cy="1198" r="4"/><circle cx="2033" cy="1195" r="5"/><circle cx="2127" cy="1184" r="5"/><circle cx="2202" cy="1134" r="4"/><circle cx="2308" cy="1175" r="5"/><circle cx="2329" cy="1142" r="5"/><circle cx="2416" cy="1181" r="5"/><circle cx="2546" cy="1169" r="4"/><circle cx="44" cy="1218" r="4"/><circle cx="136" cy="1256" r="6"/><circle cx="208" cy="1244" r="4"/><circle cx="295" cy="1239" r="4"/><circle cx="351" cy="1250" r="5"/><circle cx="468" cy="1229" r="4"/><circle cx="548" cy="1272" r="6"/><circle cx="580" cy="1267" r="5"/><circle cx="662" cy="1257" r="4"/><circle cx="768" cy="1217" r="5"/><circle cx="805" cy="1213" r="6"/><circle cx="884" cy="1250" r="6"/><circle cx="1005" cy="1259" r="4"/><circle cx="1047" cy="1274" r="6"/><circle cx="1163" cy="1211" r="6"/><circle cx="1247" cy="1229" r="4"/><circle cx="1298" cy="1235" r="4"/><circle cx="1425" cy="1248" r="5"/><circle cx="1472" cy="1245" r="5"/><circle cx="1565" cy="1221" r="5"/><circle cx="1618" cy="1271" r="4"/><circle cx="1746" cy="1206" r="5"/><circle cx="1797" cy="1273" r="6"/><circle cx="1894" cy="1203" r="6"/><circle cx="1932" cy="1232" r="4"/><circle cx="2045" cy="1210" r="5"/><circle cx="2080" cy="1237" r="6"/><circle cx="2170" cy="1220" r="5"/><circle cx="2246" cy="1273" r="5"/><circle cx="2321" cy="1205" r="5"/><circle cx="2457" cy="1280" r="5"/><circle cx="2490" cy="1207" r="5"/><circle cx="61" cy="1345" r="4"/><circle cx="129" cy="1341" r="5"/><circle cx="167" cy="1284" r="4"/><circle cx="320" cy="1309" r="5"/><circle cx="387" cy="1355" r="4"/><circle cx="479" cy="1320" r="5"/><circle cx="514" cy="1324" r="6"/><circle cx="629" cy="1335" r="6"/><circle cx="715" cy="1326" r="4"/><circle cx="780" cy="1318" r="5"/><circle cx="851" cy="1328" r="5"/><circle cx="928" cy="1305" r="4"/><circle cx="980" cy="1311" r="5"/><circle cx="1076" cy="1350" r="5"/><circle cx="1136" cy="1319" r="6"/><circle cx="1207" cy="1284" r="5"/><circle cx="1327" cy="1339" r="5"/><circle cx="1380" cy="1315" r="5"/><circle cx="1492" cy="1331" r="6"/><circle cx="1571" cy="1294" r="6"/><circle cx="1622" cy="1303" r="4"/><circle cx="1713" cy="1322" r="4"/><circle cx="1795" cy="1301" r="5"/><circle cx="1917" cy="1312" r="4"/><circle cx="1951" cy="1334" r="4"/><circle cx="2075" cy="1346" r="5"/><circle cx="2088" cy="1280" r="5"/><circle cx="2228" cy="1318" r="5"/><circle cx="2284" cy="1284" r="5"/><circle cx="2385" cy="1312" r="5"/><circle cx="2432" cy="1357" r="5"/><circle cx="2483" cy="1285" r="4"/><circle cx="20" cy="1369" r="5"/><circle cx="134" cy="1409" r="5"/><circle cx="228" cy="1434" r="5"/><circle cx="269" cy="1438" r="5"/><circle cx="269" cy="-2" r="5"/><circle cx="353" cy="1384" r="4"/><circle cx="417" cy="1369" r="4"/><circle cx="533" cy="1414" r="5"/><circle cx="593" cy="1367" r="5"/><circle cx="665" cy="1419" r="5"/><circle cx="784" cy="1365" r="5"/><circle cx="823" cy="1429" r="4"/><circle cx="949" cy="1394" r="6"/><circle cx="1007" cy="1380" r="4"/><circle cx="1110" cy="1389" r="4"/><circle cx="1191" cy="1387" r="5"/><circle cx="1229" cy="1386" r="6"/><circle cx="1307" cy="1374" r="5"/><circle cx="1434" cy="1417" r="5"/><circle cx="1457" cy="1375" r="5"/><circle cx="1526" cy="1413" r="5"/><circle cx="1628" cy="1416" r="5"/><circle cx="1694" cy="1383" r="6"/><circle cx="1825" cy="1396" r="6"/><circle cx="1878" cy="1366" r="6"/><circle cx="1935" cy="1420" r="5"/><circle cx="2057" cy="1360" r="5"/><circle cx="2091" cy="1397" r="5"/><circle cx="2223" cy="1417" r="4"/><circle cx="2265" cy="1407" r="5"/><circle cx="2389" cy="1363" r="5"/><circle cx="2442" cy="1405" r="5"/><circle cx="2506" cy="1365" r="5"/><path stroke="#fff" d="M47 63L113 32M47 63L-1 23M47 63L29 136M47 63L96 113M47 63L-47 113M2607 63L2559 23M2607 63L2513 113M113 32L162 72M113 32L96 113M113 32L188 101M113 32L134 -31M113 1472L134 1409M162 72L96 113M162 72L188 101M162 72L244 85M162 72L132 163M305 30L359 32M305 30L244 85M305 30L228 -6M305 30L269 -2M305 30L353 -56M305 1470L228 1434M305 1470L269 1438M305 1470L353 1384M359 32L416 62M359 32L269 -2M359 32L353 -56M359 1472L269 1438M359 1472L353 1384M416 62L499 46M416 62L455 90M416 62L507 116M416 62L447 162M499 46L455 90M499 46L507 116M499 46L562 98M499 46L533 -26M499 1486L533 1414M605 7L660 48M605 7L562 98M605 7L533 -26M605 7L593 -73M605 7L665 -21M605 1447L533 1414M605 1447L593 1367M605 1447L665 1419M660 48L685 100M660 48L721 113M660 48L665 -21M660 1488L665 1419M781 72L853 59M781 72L721 113M781 72L817 84M781 72L791 170M781 72L823 -11M781 1512L823 1429M853 59L936 64M853 59L817 84M853 59L823 -11M853 1499L823 1429M936 64L1036 60M936 64L927 148M936 64L974 114M936 64L949 -46M936 1504L949 1394M1036 60L1112 11M1036 60L974 114M1036 60L1104 128M1112 11L1135 9M1112 11L1110 -51M1112 1451L1110 1389M1135 9L1076 -90M1135 9L1110 -51M1135 9L1191 -53M1135 9L1229 -54M1135 1449L1076 1350M1135 1449L1110 1389M1135 1449L1191 1387M1135 1449L1229 1386M1250 45L1354 25M1250 45L1201 112M1250 45L1229 -54M1250 1485L1229 1386M1354 25L1434 51M1354 25L1423 114M1354 25L1307 -66M1354 1465L1307 1374M1434 51L1516 14M1434 51L1423 114M1434 51L1445 132M1434 51L1434 -23M1434 1491L1434 1417M1516 14L1588 30M1516 14L1434 -23M1516 14L1457 -65M1516 14L1526 -27M1516 1454L1434 1417M1516 1454L1457 1375M1516 1454L1526 1413M1588 30L1640 8M1588 30L1551 106M1588 30L1526 -27M1588 30L1628 -24M1588 1470L1526 1413M1588 1470L1628 1416M1640 8L1738 55M1640 8L1640 109M1640 8L1628 -24M1640 8L1694 -57M1640 1448L1628 1416M1640 1448L1694 1383M1738 55L1769 72M1738 55L1689 107M1738 55L1828 94M1738 55L1694 -57M1738 1495L1694 1383M1769 72L1689 107M1769 72L1828 94M1769 72L1759 184M1882 21L1974 18M1882 21L1828 94M1882 21L1825 -44M1882 21L1878 -74M1882 21L1935 -20M1882 1461L1825 1396M1882 1461L1878 1366M1882 1461L1935 1420M1974 18L2010 57M1974 18L1939 86M1974 18L2015 102M1974 18L1935 -20M1974 1458L1935 1420M2010 57L2115 58M2010 57L1939 86M2010 57L2015 102M2115 58L2166 8M2115 58L2108 129M2115 58L2191 116M2166 8L2265 11M2166 8L2091 -43M2166 8L2223 -23M2166 8L2265 -33M2166 1448L2091 1397M2166 1448L2223 1417M2166 1448L2265 1407M2265 11L2278 118M2265 11L2337 89M2265 11L2223 -23M2265 11L2265 -33M2265 1451L2223 1417M2265 1451L2265 1407M2396 12L2435 42M2396 12L2337 89M2396 12L2389 -77M2396 12L2442 -35M2396 1452L2389 1363M2396 1452L2442 1405M2435 42L2337 89M2435 42L2467 127M2435 42L2442 -35M2435 1482L2442 1405M2559 23L2513 113M2559 23L2580 -71M-1 23L20 -71M-1 1463L20 1369M2559 1463L2580 1369M29 136L96 113M29 136L-47 113M29 136L32 207M2589 136L2513 113M96 113L132 163M188 101L244 85M188 101L132 163M188 101L206 207M244 85L228 -6M244 85L269 -2M244 1525L228 1434M244 1525L269 1438M328 141L266 195M328 141L322 178M455 90L507 116M455 90L562 98M455 90L447 162M507 116L562 98M507 116L447 162M562 98L607 162M685 100L721 113M685 100L607 162M721 113L791 170M817 84L791 170M817 84L823 -11M817 1524L823 1429M927 148L974 114M927 148L843 183M927 148L900 210M927 148L910 244M974 114L1025 179M1104 128L1126 120M1104 128L1201 112M1104 128L1025 179M1104 128L1073 200M1126 120L1201 112M1126 120L1073 200M1201 112L1288 155M1201 112L1278 179M1288 155L1278 179M1288 155L1319 219M1288 155L1374 169M1423 114L1445 132M1423 114L1374 169M1423 114L1457 183M1445 132L1551 106M1445 132L1374 169M1445 132L1457 183M1551 106L1640 109M1551 106L1573 204M1640 109L1689 107M1689 107L1759 184M1828 94L1881 149M1828 94L1823 182M1881 149L1939 86M1881 149L1823 182M1881 149L1892 207M1881 149L1921 201M1939 86L2015 102M2015 102L2108 129M2015 102L2009 198M2108 129L2191 116M2108 129L2102 226M2191 116L2278 118M2278 118L2337 89M2278 118L2286 221M2337 89L2383 177M2467 127L2513 113M2467 127L2383 177M2467 127L2420 230M2467 127L2513 188M2513 113L2513 188M32 207L132 163M32 207L-47 188M32 207L69 264M32 207L-8 280M2592 207L2513 188M2592 207L2552 280M132 163L206 207M206 207L266 195M206 207L196 257M206 207L252 252M266 195L322 178M266 195L196 257M266 195L252 252M322 178L447 162M322 178L252 252M322 178L351 260M447 162L425 246M555 221L607 162M555 221L652 227M555 221L493 294M555 221L570 288M607 162L652 227M652 227L570 288M652 227L718 303M652 227L720 256M791 170L843 183M843 183L900 210M843 183L876 240M843 183L910 244M900 210L876 240M900 210L910 244M900 210L971 246M1025 179L1073 200M1025 179L971 246M1073 200L971 246M1073 200L1073 295M1200 238L1177 243M1200 238L1259 246M1278 179L1319 219M1278 179L1259 246M1319 219L1374 169M1319 219L1259 246M1319 219L1360 277M1374 169L1457 183M1457 183L1470 248M1573 204L1677 237M1573 204L1470 248M1573 204L1618 281M1677 237L1759 184M1677 237L1618 281M1677 237L1750 292M1677 237L1755 321M1759 184L1823 182M1759 184L1750 292M1823 182L1892 207M1823 182L1881 250M1892 207L1921 201M1892 207L1881 250M1921 201L2009 198M1921 201L1881 250M1921 201L1970 314M2009 198L2102 226M2102 226L2172 226M2102 226L2103 309M2172 226L2237 261M2286 221L2383 177M2286 221L2237 261M2286 221L2302 304M2286 221L2341 315M2383 177L2420 230M2420 230L2466 274M2420 230L2461 330M2513 188L2466 274M2513 188L2552 280M69 264L124 302M69 264L-8 280M69 264L114 323M2629 264L2552 280M124 302L196 257M124 302L114 323M196 257L252 252M196 257L114 323M252 252L351 260M351 260L425 246M351 260L282 359M351 260L430 333M425 246L493 294M425 246L430 333M493 294L570 288M493 294L430 333M493 294L493 351M570 288L493 351M570 288L567 389M718 303L720 256M718 303L673 379M718 303L800 361M876 240L910 244M876 240L971 246M876 240L844 326M910 244L971 246M1073 295L1177 243M1073 295L1035 339M1073 295L1105 347M1073 295L1174 346M1177 243L1259 246M1177 243L1174 346M1259 246L1278 330M1360 277L1382 307M1360 277L1470 248M1360 277L1278 330M1360 277L1318 335M1382 307L1318 335M1382 307L1409 386M1382 307L1381 413M1470 248L1536 312M1536 312L1618 281M1536 312L1499 363M1536 312L1552 361M1536 312L1606 341M1618 281L1552 361M1618 281L1606 341M1750 292L1830 294M1750 292L1755 321M1830 294L1881 250M1830 294L1755 321M1830 294L1816 379M1830 294L1920 332M1881 250L1920 332M1970 314L2043 295M1970 314L1920 332M1970 314L1987 360M2043 295L2103 309M2043 295L1987 360M2043 295L2068 378M2043 295L2129 337M2103 309L2068 378M2103 309L2129 337M2103 309L2196 326M2237 261L2302 304M2237 261L2196 326M2302 304L2341 315M2302 304L2318 345M2302 304L2374 347M2341 315L2318 345M2341 315L2374 347M2341 315L2282 422M2466 274L2552 280M2466 274L2461 330M2466 274L2481 372M2552 280L2596 372M-8 280L36 372M36 372L114 323M36 372L-79 372M36 372L87 433M36 372L-32 451M2596 372L2481 372M2596 372L2528 451M114 323L87 433M231 357L282 359M231 357L176 411M231 357L266 413M282 359L344 391M282 359L266 413M282 359L352 433M344 391L430 333M344 391L266 413M344 391L352 433M430 333L493 351M493 351L567 389M493 351L483 449M567 389L483 449M567 389L626 471M673 379L699 457M673 379L724 425M800 361L844 326M800 361L724 425M844 326L913 387M913 387L857 479M913 387L955 457M913 387L866 481M913 387L899 483M1035 339L1105 347M1035 339L1037 425M1035 339L1050 442M1105 347L1174 346M1105 347L1155 421M1174 346L1278 330M1174 346L1155 421M1278 330L1318 335M1278 330L1259 419M1318 335L1409 386M1318 335L1381 413M1409 386L1499 363M1409 386L1381 413M1499 363L1552 361M1499 363L1511 469M1552 361L1606 341M1552 361L1595 410M1606 341L1595 410M1755 321L1816 379M1816 379L1711 414M1816 379L1840 472M1920 332L1987 360M1987 360L1969 458M2068 378L2129 337M2068 378L2059 447M2068 378L2121 424M2129 337L2196 326M2129 337L2121 424M2318 345L2374 347M2318 345L2282 422M2318 345L2321 441M2374 347L2461 330M2461 330L2481 372M2481 372L2528 451M2481 372L2506 480M5 479L87 433M5 479L-32 451M5 479L42 494M5 479L105 554M5 479L-54 480M2565 479L2528 451M2565 479L2506 480M87 433L176 411M87 433L42 494M176 411L266 413M176 411L225 493M266 413L352 433M352 433L432 470M352 433L335 543M432 470L483 449M432 470L401 553M483 449L518 542M626 471L699 457M626 471L592 505M626 471L664 484M699 457L724 425M699 457L664 484M699 457L738 498M724 425L664 484M724 425L738 498M857 479L866 481M857 479L899 483M857 479L809 570M955 457L1050 442M955 457L866 481M955 457L899 483M955 457L991 540M1037 425L1050 442M1037 425L1051 482M1050 442L1155 421M1050 442L1051 482M1155 421L1159 522M1155 421L1209 505M1259 419L1309 462M1259 419L1209 505M1309 462L1381 413M1309 462L1325 542M1511 469L1595 410M1511 469L1433 527M1511 469L1491 506M1511 469L1539 489M1595 410L1673 459M1595 410L1539 489M1673 459L1711 414M1673 459L1763 468M1673 459L1708 483M1673 459L1773 482M1711 414L1763 468M1711 414L1708 483M1711 414L1773 482M1763 468L1840 472M1763 468L1708 483M1763 468L1773 482M1840 472L1773 482M1840 472L1915 483M1969 458L2059 447M1969 458L1915 483M1969 458L1981 494M1969 458L2036 517M2059 447L2121 424M2059 447L2036 517M2059 447L2118 481M2121 424L2172 465M2121 424L2118 481M2172 465L2282 422M2172 465L2118 481M2172 465L2186 552M2172 465L2267 488M2282 422L2321 441M2282 422L2267 488M2321 441L2406 469M2321 441L2267 488M2321 441L2333 542M2406 469L2430 525M2406 469L2506 480M2528 451L2602 494M2528 451L2506 480M-32 451L42 494M42 494L105 554M42 494L38 583M105 554L38 583M105 554L98 616M225 493L287 558M225 493L234 604M287 558L335 543M287 558L234 604M287 558L314 628M335 543L401 553M335 543L314 628M335 543L367 607M401 553L367 607M401 553L464 585M401 553L414 641M518 542L592 505M518 542L464 585M518 542L509 638M518 542L565 620M592 505L664 484M664 484L738 498M738 498L700 598M738 498L809 570M866 481L899 483M866 481L809 570M991 540L1051 482M991 540L922 605M991 540L992 631M991 540L1058 573M1051 482L1159 522M1051 482L1058 573M1159 522L1209 505M1159 522L1058 573M1159 522L1164 583M1209 505L1164 583M1325 542L1433 527M1325 542L1339 615M1325 542L1365 579M1325 542L1336 649M1433 527L1491 506M1433 527L1365 579M1433 527L1480 612M1491 506L1539 489M1491 506L1536 578M1539 489L1536 578M1662 557L1708 483M1662 557L1617 637M1662 557L1740 594M1662 557L1626 648M1708 483L1773 482M1915 483L1981 494M1981 494L2036 517M1981 494L1997 587M2036 517L2118 481M2036 517L1997 587M2186 552L2181 597M2186 552L2272 562M2267 488L2333 542M2267 488L2272 562M2333 542L2430 525M2333 542L2272 562M2333 542L2387 623M2430 525L2506 480M2430 525L2425 613M38 583L98 616M38 583L-13 604M38 583L79 679M2598 583L2547 604M98 616L-13 604M98 616L79 679M98 616L112 717M2658 616L2547 604M234 604L314 628M234 604L205 672M234 604L256 694M314 628L367 607M314 628L378 690M367 607L378 690M367 607L414 641M464 585L509 638M464 585L414 641M464 585L499 691M509 638L565 620M509 638L499 691M565 620L499 691M565 620L625 703M700 598L744 608M700 598L809 570M700 598L660 712M744 608L809 570M744 608L732 711M922 605L992 631M922 605L880 670M922 605L930 695M992 631L930 695M992 631L1037 691M992 631L1066 684M1058 573L1164 583M1164 583L1224 623M1164 583L1240 643M1224 623L1186 716M1224 623L1240 643M1339 615L1365 579M1339 615L1240 643M1339 615L1336 649M1339 615L1424 664M1365 579L1336 649M1480 612L1536 578M1480 612L1424 664M1480 612L1465 659M1536 578L1617 637M1536 578L1557 678M1617 637L1557 678M1617 637L1626 648M1740 594L1809 628M1740 594L1762 709M1809 628L1890 631M1809 628L1735 712M1809 628L1762 709M1890 631L1916 711M1997 587L2067 638M1997 587L1973 684M2067 638L2108 637M2067 638L1973 684M2067 638L2048 690M2067 638L2111 648M2108 637L2181 597M2108 637L2048 690M2108 637L2111 648M2108 637L2166 696M2181 597L2272 562M2181 597L2111 648M2181 597L2166 696M2387 623L2425 613M2387 623L2302 679M2425 613L2439 709M2425 613L2495 675M2547 604L2495 675M79 679L112 717M79 679L129 744M112 717L205 672M112 717L129 744M112 717L186 737M205 672L256 694M205 672L129 744M205 672L186 737M256 694L186 737M256 694L274 787M256 694L332 726M378 690L414 641M378 690L332 726M414 641L499 691M499 691L517 760M625 703L660 712M625 703L732 711M625 703L595 782M625 703L660 794M660 712L732 711M660 712L660 794M732 711L787 737M732 711L802 742M880 670L930 695M880 670L787 737M880 670L802 742M930 695L1037 691M930 695L978 779M1037 691L1066 684M1037 691L1067 721M1066 684L1067 721M1066 684L1134 738M1186 716L1240 643M1186 716L1134 738M1186 716L1230 785M1186 716L1242 800M1240 643L1336 649M1424 664L1465 659M1424 664L1420 722M1424 664L1443 729M1465 659L1557 678M1465 659L1420 722M1465 659L1443 729M1557 678L1626 648M1557 678L1588 755M1735 712L1762 709M1735 712L1653 775M1735 712L1705 776M1735 712L1768 778M1762 709L1768 778M1916 711L1973 684M1916 711L1912 787M1916 711L1955 742M1916 711L1857 810M1973 684L2048 690M1973 684L1955 742M2048 690L2111 648M2048 690L2115 751M2111 648L2166 696M2166 696L2115 751M2166 696L2235 749M2302 679L2356 716M2302 679L2235 749M2302 679L2279 766M2302 679L2346 753M2356 716L2439 709M2356 716L2279 766M2356 716L2346 753M2356 716L2433 763M2439 709L2495 675M2439 709L2433 763M2439 709L2499 744M2495 675L2499 744M19 794L-61 744M19 794L35 817M19 794L108 831M19 794L-14 857M2579 794L2499 744M2579 794L2546 857M129 744L186 737M129 744L108 831M186 737L274 787M274 787L332 726M274 787L203 839M274 787L312 851M429 799L470 842M429 799L468 898M517 760L552 827M517 760L573 828M595 782L660 794M595 782L552 827M595 782L573 828M595 782L655 839M660 794L655 839M787 737L802 742M787 737L776 831M787 737L810 816M802 742L776 831M802 742L810 816M926 796L978 779M926 796L907 800M926 796L997 814M978 779L907 800M978 779L997 814M978 779L1056 836M1067 721L1134 738M1134 738L1230 785M1230 785L1309 750M1230 785L1242 800M1230 785L1333 805M1309 750L1420 722M1309 750L1242 800M1309 750L1333 805M1420 722L1443 729M1588 755L1653 775M1653 775L1705 776M1653 775L1657 819M1653 775L1697 827M1705 776L1768 778M1705 776L1657 819M1705 776L1697 827M1768 778L1697 827M1768 778L1798 852M1912 787L1955 742M1912 787L2016 796M1912 787L1857 810M1912 787L1952 832M1955 742L2016 796M1955 742L1952 832M2016 796L2115 751M2016 796L1952 832M2016 796L2068 834M2115 751L2235 749M2115 751L2068 834M2235 749L2279 766M2235 749L2346 753M2279 766L2346 753M2346 753L2433 763M2433 763L2499 744M2433 763L2428 858M35 817L108 831M35 817L-14 857M2595 817L2546 857M108 831L203 839M108 831L58 930M312 851L338 875M338 875L300 945M338 875L380 949M470 842L552 827M470 842L468 898M552 827L573 828M552 827L532 916M573 828L655 839M573 828L603 910M655 839L603 910M655 839L741 900M776 831L810 816M776 831L741 900M810 816L907 800M907 800L997 814M997 814L1056 836M997 814L1013 882M1056 836L1126 858M1056 836L1013 882M1056 836L1063 917M1126 858L1013 882M1126 858L1063 917M1126 858L1128 948M1242 800L1333 805M1333 805L1381 866M1333 805L1394 891M1381 866L1334 930M1381 866L1394 891M1381 866L1454 938M1520 874L1579 863M1520 874L1454 938M1520 874L1565 926M1520 874L1456 962M1520 874L1562 966M1579 863L1657 819M1579 863L1565 926M1579 863L1657 888M1579 863L1562 966M1657 819L1697 827M1657 819L1657 888M1697 827L1657 888M1798 852L1857 810M1798 852L1738 925M1798 852L1766 906M1798 852L1855 923M1857 810L1952 832M1857 810L1855 923M2068 834L2126 861M2068 834L2181 860M2068 834L2072 900M2126 861L2181 860M2126 861L2072 900M2126 861L2170 930M2181 860L2170 930M2318 866L2344 867M2318 866L2310 895M2318 866L2350 921M2344 867L2428 858M2344 867L2310 895M2344 867L2350 921M2344 867L2316 976M2428 858L2475 947M2428 858L2494 923M2546 857L2618 930M2546 857L2494 923M-14 857L58 930M58 930L124 952M58 930L19 1023M124 952L213 951M124 952L134 1026M124 952L203 968M213 951L300 945M213 951L203 968M300 945L380 949M300 945L318 962M300 945L367 981M380 949L318 962M380 949L367 981M380 949L434 1006M468 898L532 916M468 898L434 1006M468 898L486 1004M532 916L603 910M532 916L486 1004M603 910L671 951M603 910L611 970M671 951L741 900M671 951L611 970M671 951L670 983M671 951L749 961M741 900L749 961M847 949L900 949M847 949L749 961M847 949L820 1010M847 949L934 976M900 949L820 1010M900 949L934 976M1013 882L1063 917M1013 882L934 976M1063 917L1128 948M1128 948L1190 994M1128 948L1162 1048M1251 955L1190 994M1251 955L1272 1003M1251 955L1303 1014M1334 930L1394 891M1334 930L1303 1014M1334 930L1361 1011M1394 891L1454 938M1394 891L1456 962M1454 938L1456 962M1565 926L1657 888M1565 926L1562 966M1565 926L1614 996M1657 888L1738 925M1738 925L1766 906M1738 925L1711 1011M1738 925L1772 992M1766 906L1855 923M1766 906L1772 992M1855 923L1924 946M1855 923L1844 996M1924 946L1844 996M1924 946L1970 1003M1924 946L2001 1046M2072 900L2099 958M2072 900L2083 973M2099 958L2170 930M2099 958L2029 1011M2099 958L2083 973M2099 958L2168 1018M2170 930L2083 973M2170 930L2168 1018M2310 895L2350 921M2310 895L2316 976M2350 921L2316 976M2350 921L2389 979M2475 947L2494 923M2475 947L2389 979M2475 947L2474 972M2475 947L2543 1004M2494 923L2474 972M2494 923L2543 1004M19 1023L-17 1004M19 1023L34 1063M19 1023L-44 1100M2579 1023L2543 1004M2579 1023L2516 1100M134 1026L203 968M134 1026L137 1082M134 1026L224 1069M318 962L367 981M318 962L298 1050M318 962L325 1043M367 981L434 1006M367 981L325 1043M434 1006L486 1004M434 1006L503 1074M486 1004L433 1117M486 1004L503 1074M611 970L670 983M611 970L629 1067M611 970L673 1052M670 983L749 961M670 983L629 1067M670 983L673 1052M749 961L820 1010M820 1010L784 1101M820 1010L803 1069M934 976L1024 1020M934 976L1040 1025M1024 1020L1040 1025M1024 1020L981 1109M1024 1020L1046 1112M1040 1025L1046 1112M1190 994L1272 1003M1190 994L1162 1048M1272 1003L1303 1014M1272 1003L1361 1011M1303 1014L1361 1011M1303 1014L1321 1079M1361 1011L1321 1079M1361 1011L1367 1081M1456 962L1562 966M1562 966L1614 996M1614 996L1711 1011M1711 1011L1772 992M1711 1011L1680 1110M1711 1011L1759 1065M1772 992L1844 996M1772 992L1759 1065M1844 996L1899 1075M1970 1003L2029 1011M1970 1003L1899 1075M1970 1003L1987 1096M1970 1003L2001 1046M2029 1011L2083 973M2029 1011L1987 1096M2029 1011L2001 1046M2083 973L2168 1018M2168 1018L2147 1080M2168 1018L2220 1109M2316 976L2389 979M2316 976L2398 1058M2389 979L2474 972M2389 979L2398 1058M2474 972L2543 1004M2474 972L2398 1058M2543 1004L2594 1063M-17 1004L34 1063M34 1063L137 1082M34 1063L-44 1100M34 1063L56 1161M2594 1063L2516 1100M137 1082L224 1069M137 1082L122 1167M137 1082L211 1121M224 1069L298 1050M224 1069L211 1121M224 1069L299 1144M298 1050L325 1043M298 1050L211 1121M298 1050L299 1144M433 1117L503 1074M433 1117L440 1142M433 1117L496 1175M503 1074L440 1142M503 1074L496 1175M629 1067L673 1052M629 1067L630 1130M629 1067L685 1167M673 1052L630 1130M784 1101L803 1069M784 1101L763 1195M784 1101L846 1131M803 1069L846 1131M952 1108L981 1109M952 1108L934 1189M952 1108L1004 1130M981 1109L1046 1112M981 1109L934 1189M981 1109L1004 1130M1046 1112L1004 1130M1046 1112L1106 1130M1162 1048L1106 1130M1162 1048L1213 1130M1279 1118L1321 1079M1279 1118L1367 1081M1279 1118L1213 1130M1279 1118L1335 1195M1279 1118L1365 1127M1321 1079L1367 1081M1321 1079L1365 1127M1367 1081L1441 1078M1367 1081L1365 1127M1441 1078L1521 1109M1441 1078L1365 1127M1441 1078L1527 1142M1521 1109L1488 1184M1521 1109L1527 1142M1680 1110L1759 1065M1680 1110L1622 1190M1680 1110L1707 1147M1680 1110L1770 1140M1759 1065L1787 1105M1759 1065L1770 1140M1787 1105L1707 1147M1787 1105L1770 1140M1787 1105L1746 1206M1899 1075L1987 1096M1899 1075L2001 1046M1899 1075L1876 1194M1987 1096L2001 1046M1987 1096L2033 1195M2147 1080L2220 1109M2147 1080L2267 1100M2147 1080L2127 1184M2147 1080L2202 1134M2220 1109L2267 1100M2220 1109L2202 1134M2267 1100L2202 1134M2267 1100L2308 1175M2267 1100L2329 1142M2398 1058L2464 1093M2398 1058L2329 1142M2464 1093L2516 1100M2464 1093L2416 1181M2464 1093L2546 1169M2516 1100L2546 1169M2516 1100L2490 1207M56 1161L122 1167M56 1161L-14 1169M56 1161L44 1218M2616 1161L2546 1169M122 1167L211 1121M122 1167L44 1218M122 1167L136 1256M211 1121L299 1144M299 1144L328 1199M299 1144L295 1239M328 1199L295 1239M328 1199L351 1250M328 1199L320 1309M440 1142L496 1175M440 1142L468 1229M496 1175L468 1229M630 1130L685 1167M685 1167L763 1195M685 1167L662 1257M685 1167L768 1217M763 1195L846 1131M763 1195L768 1217M763 1195L805 1213M846 1131L934 1189M846 1131L805 1213M934 1189L1004 1130M934 1189L884 1250M1004 1130L1106 1130M1106 1130L1192 1174M1106 1130L1163 1211M1192 1174L1213 1130M1192 1174L1163 1211M1192 1174L1247 1229M1213 1130L1163 1211M1335 1195L1365 1127M1335 1195L1247 1229M1335 1195L1298 1235M1335 1195L1425 1248M1488 1184L1527 1142M1488 1184L1425 1248M1488 1184L1472 1245M1488 1184L1565 1221M1527 1142L1622 1190M1527 1142L1565 1221M1622 1190L1707 1147M1622 1190L1565 1221M1622 1190L1618 1271M1707 1147L1770 1140M1707 1147L1746 1206M1770 1140L1746 1206M1876 1194L1797 1273M1876 1194L1894 1203M1876 1194L1932 1232M1983 1198L2033 1195M1983 1198L1894 1203M1983 1198L1932 1232M1983 1198L2045 1210M2033 1195L2127 1184M2033 1195L2045 1210M2033 1195L2080 1237M2127 1184L2045 1210M2127 1184L2080 1237M2127 1184L2170 1220M2202 1134L2170 1220M2308 1175L2329 1142M2308 1175L2321 1205M2308 1175L2284 1284M2329 1142L2416 1181M2329 1142L2321 1205M2416 1181L2321 1205M2416 1181L2490 1207M2546 1169L2604 1218M2546 1169L2490 1207M-14 1169L44 1218M44 1218L136 1256M136 1256L208 1244M136 1256L129 1341M136 1256L167 1284M208 1244L295 1239M208 1244L167 1284M295 1239L351 1250M295 1239L320 1309M351 1250L320 1309M351 1250L387 1355M468 1229L548 1272M468 1229L479 1320M548 1272L580 1267M548 1272L479 1320M548 1272L514 1324M580 1267L662 1257M580 1267L514 1324M580 1267L629 1335M662 1257L629 1335M662 1257L715 1326M768 1217L805 1213M768 1217L780 1318M805 1213L884 1250M805 1213L780 1318M884 1250L851 1328M884 1250L928 1305M1005 1259L1047 1274M1005 1259L928 1305M1005 1259L980 1311M1047 1274L980 1311M1047 1274L1076 1350M1047 1274L1136 1319M1047 1274L1007 1380M1163 1211L1247 1229M1163 1211L1207 1284M1247 1229L1298 1235M1247 1229L1207 1284M1298 1235L1327 1339M1425 1248L1472 1245M1425 1248L1380 1315M1472 1245L1492 1331M1472 1245L1571 1294M1565 1221L1618 1271M1565 1221L1571 1294M1618 1271L1571 1294M1618 1271L1622 1303M1618 1271L1713 1322M1746 1206L1797 1273M1746 1206L1795 1301M1797 1273L1894 1203M1797 1273L1713 1322M1797 1273L1795 1301M1894 1203L1932 1232M1894 1203L1917 1312M1932 1232L1917 1312M1932 1232L1951 1334M2045 1210L2080 1237M2045 1210L2088 1280M2080 1237L2170 1220M2080 1237L2088 1280M2170 1220L2246 1273M2170 1220L2088 1280M2246 1273L2321 1205M2246 1273L2228 1318M2246 1273L2284 1284M2246 1273L2265 1407M2321 1205L2284 1284M2457 1280L2490 1207M2457 1280L2385 1312M2457 1280L2432 1357M2457 1280L2483 1285M2457 1280L2506 1365M2490 1207L2483 1285M61 1345L129 1341M61 1345L20 1369M61 1345L134 1409M129 1341L167 1284M129 1341L20 1369M129 1341L134 1409M320 1309L387 1355M320 1309L353 1384M387 1355L353 1384M387 1355L417 1369M479 1320L514 1324M479 1320L417 1369M479 1320L533 1414M514 1324L533 1414M514 1324L593 1367M629 1335L715 1326M629 1335L593 1367M629 1335L665 1419M715 1326L780 1318M715 1326L665 1419M715 1326L784 1365M780 1318L851 1328M780 1318L784 1365M851 1328L928 1305M851 1328L784 1365M851 1328L949 1394M928 1305L980 1311M928 1305L949 1394M980 1311L949 1394M980 1311L1007 1380M1076 1350L1136 1319M1076 1350L1007 1380M1076 1350L1110 1389M1136 1319L1207 1284M1136 1319L1110 1389M1136 1319L1191 1387M1207 1284L1191 1387M1207 1284L1229 1386M1327 1339L1380 1315M1327 1339L1307 1374M1380 1315L1307 1374M1380 1315L1457 1375M1492 1331L1571 1294M1492 1331L1434 1417M1492 1331L1457 1375M1492 1331L1526 1413M1571 1294L1622 1303M1622 1303L1713 1322M1622 1303L1628 1416M1622 1303L1694 1383M1713 1322L1795 1301M1713 1322L1694 1383M1795 1301L1825 1396M1917 1312L1951 1334M1917 1312L1878 1366M1951 1334L1878 1366M1951 1334L1935 1420M1951 1334L2057 1360M2075 1346L2088 1280M2075 1346L2057 1360M2075 1346L2091 1397M2088 1280L2057 1360M2228 1318L2284 1284M2228 1318L2223 1417M2228 1318L2265 1407M2284 1284L2385 1312M2385 1312L2432 1357M2385 1312L2389 1363M2432 1357L2389 1363M2432 1357L2442 1405M2432 1357L2506 1365M2483 1285L2506 1365M20 1369L134 1409M20 1369L-54 1365M2580 1369L2506 1365M134 1409L228 1434M228 1434L269 1438M353 1384L417 1369M533 1414L593 1367M593 1367L665 1419M784 1365L823 1429M949 1394L1007 1380M1110 1389L1191 1387M1191 1387L1229 1386M1229 1386L1307 1374M1434 1417L1457 1375M1434 1417L1526 1413M1457 1375L1526 1413M1628 1416L1694 1383M1825 1396L1878 1366M1825 1396L1935 1420M1878 1366L1935 1420M2057 1360L2091 1397M2223 1417L2265 1407M2389 1363L2442 1405M2442 1405L2506 1365"/></svg>