<svg xmlns="http://www.w3.org/2000/svg" width="2560" height="1440" fill="#fff"><circle cx="72" cy="7" r="5"/><circle cx="129" cy="31" r="4"/><circle cx="203" cy="60" r="5"/><circle cx="274" cy="11" r="6"/><circle cx="344" cy="57" r="6"/><circle cx="432" cy="35" r="5"/><circle cx="509" cy="61" r="4"/><circle cx="596" cy="30" r="5"/><circle cx="697" cy="8" r="6"/><circle cx="773" cy="43" r="5"/><circle cx="837" cy="31" r="4"/><circle cx="890" cy="14" r="5"/><circle cx="1020" cy="36" r="5"/><circle cx="1065" cy="63" r="4"/><circle cx="1153" cy="5" r="5"/><circle cx="1273" cy="24" r="5"/><circle cx="1298" cy="31" r="5"/><circle cx="1438" cy="44" r="5"/><circle cx="1474" cy="74" r="5"/><circle cx="1600" cy="60" r="5"/><circle cx="1627" cy="36" r="6"/><circle cx="1721" cy="52" r="5"/><circle cx="1830" cy="15" r="5"/><circle cx="1878" cy="24" r="5"/><circle cx="1976" cy="7" r="6"/><circle cx="2044" cy="23" r="5"/><circle cx="2124" cy="50" r="5"/><circle cx="2202" cy="0" r="5"/><circle cx="2202" cy="1440" r="5"/><circle cx="2295" cy="49" r="4"/><circle cx="2356" cy="66" r="5"/><circle cx="2446" cy="18" r="5"/><circle cx="2529" cy="3" r="6"/><circle cx="2529" cy="1443" r="6"/><circle cx="9" cy="86" r="4"/><circle cx="110" cy="114" r="5"/><circle cx="163" cy="104" r="4"/><circle cx="273" cy="113" r="5"/><circle cx="326" cy="133" r="6"/><circle cx="431" cy="133" r="5"/><circle cx="504" cy="114" r="5"/><circle cx="639" cy="104" r="6"/><circle cx="642" cy="149" r="5"/><circle cx="770" cy="124" r="4"/><circle cx="816" cy="154" r="5"/><circle cx="942" cy="146" r="5"/><circle cx="967" cy="118" r="5"/><circle cx="1062" cy="146" r="6"/><circle cx="1123" cy="142" r="6"/><circle cx="1271" cy="84" r="5"/><circle cx="1357" cy="90" r="5"/><circle cx="1372" cy="133" r="5"/><circle cx="1459" cy="91" r="5"/><circle cx="1594" cy="109" r="4"/><circle cx="1628" cy="124" r="5"/><circle cx="1702" cy="86" r="4"/><circle cx="1765" cy="156" r="6"/><circle cx="1892" cy="133" r="4"/><circle cx="1948" cy="138" r="6"/><circle cx="2034" cy="103" r="5"/><circle cx="2129" cy="159" r="4"/><circle cx="2222" cy="114" r="5"/><circle cx="2287" cy="142" r="6"/><circle cx="2346" cy="109" r="4"/><circle cx="2438" cy="143" r="5"/><circle cx="2480" cy="103" r="6"/><circle cx="6" cy="199" r="6"/><circle cx="120" cy="192" r="6"/><circle cx="206" cy="236" r="4"/><circle cx="250" cy="181" r="4"/><circle cx="383" cy="216" r="5"/><circle cx="442" cy="233" r="4"/><circle cx="508" cy="224" r="5"/><circle cx="631" cy="202" r="5"/><circle cx="691" cy="204" r="4"/><circle cx="785" cy="182" r="4"/><circle cx="871" cy="183" r="6"/><circle cx="949" cy="233" r="5"/><circle cx="986" cy="201" r="5"/><circle cx="1087" cy="234" r="6"/><circle cx="1140" cy="216" r="6"/><circle cx="1277" cy="220" r="5"/><circle cx="1300" cy="192" r="5"/><circle cx="1365" cy="184" r="6"/><circle cx="1513" cy="238" r="4"/><circle cx="1534" cy="179" r="5"/><circle cx="1614" cy="230" r="5"/><circle cx="1753" cy="236" r="4"/><circle cx="1838" cy="181" r="6"/><circle cx="1848" cy="212" r="5"/><circle cx="1995" cy="183" r="4"/><circle cx="2050" cy="210" r="5"/><circle cx="2090" cy="234" r="5"/><circle cx="2237" cy="190" r="6"/><circle cx="2253" cy="225" r="4"/><circle cx="2360" cy="219" r="6"/><circle cx="2468" cy="202" r="4"/><circle cx="2490" cy="204" r="5"/><circle cx="12" cy="242" r="6"/><circle cx="111" cy="259" r="4"/><circle cx="203" cy="307" r="6"/><circle cx="314" cy="264" r="4"/><circle cx="363" cy="270" r="5"/><circle cx="445" cy="312" r="5"/><circle cx="550" cy="284" r="5"/><circle cx="582" cy="265" r="5"/><circle cx="696" cy="262" r="4"/><circle cx="763" cy="258" r="6"/><circle cx="819" cy="277" r="5"/><circle cx="890" cy="265" r="5"/><circle cx="960" cy="292" r="5"/><circle cx="1115" cy="250" r="5"/><circle cx="1163" cy="313" r="5"/><circle cx="1218" cy="276" r="6"/><circle cx="1308" cy="308" r="6"/><circle cx="1396" cy="293" r="4"/><circle cx="1451" cy="256" r="5"/><circle cx="1550" cy="309" r="5"/><circle cx="1608" cy="277" r="4"/><circle cx="1752" cy="272" r="5"/><circle cx="1806" cy="240" r="5"/><circle cx="1865" cy="279" r="5"/><circle cx="1923" cy="265" r="5"/><circle cx="2031" cy="260" r="4"/><circle cx="2100" cy="281" r="5"/><circle cx="2191" cy="315" r="5"/><circle cx="2254" cy="251" r="6"/><circle cx="2371" cy="301" r="4"/><circle cx="2424" cy="256" r="5"/><circle cx="2536" cy="303" r="6"/><circle cx="60" cy="327" r="4"/><circle cx="131" cy="348" r="5"/><circle cx="201" cy="329" r="4"/><circle cx="290" cy="388" r="5"/><circle cx="358" cy="371" r="5"/><circle cx="420" cy="320" r="4"/><circle cx="513" cy="382" r="5"/><circle cx="588" cy="334" r="5"/><circle cx="648" cy="358" r="5"/><circle cx="771" cy="368" r="6"/><circle cx="815" cy="387" r="5"/><circle cx="960" cy="360" r="5"/><circle cx="967" cy="328" r="6"/><circle cx="1078" cy="395" r="5"/><circle cx="1173" cy="359" r="6"/><circle cx="1266" cy="324" r="4"/><circle cx="1353" cy="398" r="5"/><circle cx="1395" cy="340" r="4"/><circle cx="1443" cy="379" r="4"/><circle cx="1568" cy="376" r="5"/><circle cx="1670" cy="360" r="6"/><circle cx="1696" cy="335" r="4"/><circle cx="1762" cy="389" r="5"/><circle cx="1869" cy="336" r="4"/><circle cx="1980" cy="321" r="5"/><circle cx="2058" cy="365" r="5"/><circle cx="2136" cy="334" r="4"/><circle cx="2232" cy="360" r="5"/><circle cx="2244" cy="340" r="5"/><circle cx="2347" cy="395" r="5"/><circle cx="2477" cy="348" r="6"/><circle cx="2484" cy="325" r="4"/><circle cx="20" cy="419" r="5"/><circle cx="115" cy="422" r="6"/><circle cx="225" cy="460" r="5"/><circle cx="315" cy="406" r="5"/><circle cx="323" cy="446" r="5"/><circle cx="411" cy="472" r="5"/><circle cx="531" cy="453" r="6"/><circle cx="597" cy="403" r="5"/><circle cx="658" cy="436" r="5"/><circle cx="792" cy="434" r="4"/><circle cx="874" cy="400" r="4"/><circle cx="947" cy="448" r="5"/><circle cx="1038" cy="467" r="4"/><circle cx="1115" cy="430" r="5"/><circle cx="1162" cy="441" r="5"/><circle cx="1213" cy="453" r="5"/><circle cx="1309" cy="410" r="5"/><circle cx="1406" cy="467" r="5"/><circle cx="1503" cy="455" r="5"/><circle cx="1595" cy="446" r="6"/><circle cx="1631" cy="436" r="4"/><circle cx="1717" cy="474" r="5"/><circle cx="1760" cy="460" r="6"/><circle cx="1851" cy="409" r="5"/><circle cx="1999" cy="406" r="5"/><circle cx="2069" cy="408" r="5"/><circle cx="2121" cy="429" r="4"/><circle cx="2172" cy="418" r="5"/><circle cx="2244" cy="425" r="6"/><circle cx="2372" cy="438" r="6"/><circle cx="2436" cy="456" r="5"/><circle cx="2486" cy="462" r="5"/><circle cx="56" cy="531" r="4"/><circle cx="131" cy="498" r="4"/><circle cx="209" cy="556" r="5"/><circle cx="248" cy="491" r="4"/><circle cx="327" cy="504" r="5"/><circle cx="417" cy="482" r="4"/><circle cx="491" cy="511" r="5"/><circle cx="597" cy="538" r="6"/><circle cx="670" cy="545" r="5"/><circle cx="734" cy="517" r="5"/><circle cx="832" cy="543" r="6"/><circle cx="949" cy="558" r="6"/><circle cx="996" cy="540" r="5"/><circle cx="1099" cy="555" r="5"/><circle cx="1124" cy="512" r="6"/><circle cx="1219" cy="536" r="6"/><circle cx="1309" cy="541" r="5"/><circle cx="1404" cy="516" r="5"/><circle cx="1463" cy="538" r="4"/><circle cx="1586" cy="551" r="5"/><circle cx="1611" cy="509" r="5"/><circle cx="1697" cy="538" r="4"/><circle cx="1773" cy="558" r="5"/><circle cx="1889" cy="489" r="4"/><circle cx="1942" cy="550" r="5"/><circle cx="2002" cy="510" r="5"/><circle cx="2089" cy="488" r="6"/><circle cx="2228" cy="501" r="5"/><circle cx="2301" cy="520" r="5"/><circle cx="2377" cy="500" r="4"/><circle cx="2422" cy="559" r="4"/><circle cx="2515" cy="532" r="4"/><circle cx="11" cy="615" r="5"/><circle cx="121" cy="628" r="5"/><circle cx="191" cy="577" r="5"/><circle cx="318" cy="582" r="6"/><circle cx="358" cy="582" r="5"/><circle cx="460" cy="612" r="4"/><circle cx="497" cy="594" r="5"/><circle cx="565" cy="563" r="5"/><circle cx="677" cy="611" r="5"/><circle cx="721" cy="572" r="5"/><circle cx="831" cy="624" r="4"/><circle cx="935" cy="571" r="5"/><circle cx="1007" cy="636" r="5"/><circle cx="1088" cy="592" r="6"/><circle cx="1123" cy="577" r="4"/><circle cx="1264" cy="593" r="6"/><circle cx="1344" cy="638" r="4"/><circle cx="1393" cy="619" r="5"/><circle cx="1467" cy="577" r="6"/><circle cx="1583" cy="564" r="5"/><circle cx="1647" cy="581" r="5"/><circle cx="1731" cy="596" r="4"/><circle cx="1839" cy="569" r="6"/><circle cx="1875" cy="596" r="6"/><circle cx="1995" cy="601" r="5"/><circle cx="2012" cy="575" r="5"/><circle cx="2097" cy="619" r="6"/><circle cx="2206" cy="579" r="6"/><circle cx="2281" cy="577" r="6"/><circle cx="2347" cy="586" r="6"/><circle cx="2424" cy="576" r="5"/><circle cx="2507" cy="590" r="5"/><circle cx="56" cy="676" r="5"/><circle cx="90" cy="709" r="4"/><circle cx="198" cy="700" r="5"/><circle cx="278" cy="667" r="6"/><circle cx="321" cy="672" r="5"/><circle cx="430" cy="669" r="5"/><circle cx="533" cy="660" r="5"/><circle cx="574" cy="672" r="6"/><circle cx="664" cy="645" r="4"/><circle cx="726" cy="666" r="4"/><circle cx="856" cy="661" r="5"/><circle cx="892" cy="666" r="5"/><circle cx="1039" cy="693" r="5"/><circle cx="1086" cy="706" r="5"/><circle cx="1185" cy="709" r="5"/><circle cx="1272" cy="699" r="5"/><circle cx="1292" cy="667" r="4"/><circle cx="1373" cy="655" r="4"/><circle cx="1490" cy="719" r="5"/><circle cx="1586" cy="700" r="6"/><circle cx="1628" cy="683" r="5"/><circle cx="1723" cy="651" r="5"/><circle cx="1813" cy="658" r="6"/><circle cx="1866" cy="642" r="5"/><circle cx="1971" cy="717" r="6"/><circle cx="2063" cy="699" r="4"/><circle cx="2138" cy="711" r="5"/><circle cx="2165" cy="651" r="5"/><circle cx="2263" cy="669" r="5"/><circle cx="2372" cy="706" r="5"/><circle cx="2423" cy="703" r="6"/><circle cx="2503" cy="687" r="4"/><circle cx="7" cy="777" r="6"/><circle cx="141" cy="757" r="5"/><circle cx="196" cy="732" r="4"/><circle cx="260" cy="739" r="5"/><circle cx="332" cy="726" r="5"/><circle cx="459" cy="785" r="4"/><circle cx="556" cy="799" r="5"/><circle cx="630" cy="795" r="6"/><circle cx="719" cy="744" r="4"/><circle cx="786" cy="768" r="6"/><circle cx="842" cy="787" r="6"/><circle cx="959" cy="741" r="4"/><circle cx="962" cy="789" r="6"/><circle cx="1070" cy="777" r="5"/><circle cx="1170" cy="739" r="5"/><circle cx="1276" cy="757" r="4"/><circle cx="1294" cy="742" r="5"/><circle cx="1380" cy="767" r="4"/><circle cx="1508" cy="791" r="5"/><circle cx="1520" cy="727" r="5"/><circle cx="1602" cy="774" r="5"/><circle cx="1685" cy="726" r="5"/><circle cx="1825" cy="722" r="6"/><circle cx="1890" cy="739" r="5"/><circle cx="1997" cy="792" r="6"/><circle cx="2060" cy="740" r="5"/><circle cx="2159" cy="765" r="6"/><circle cx="2236" cy="743" r="5"/><circle cx="2278" cy="764" r="6"/><circle cx="2323" cy="726" r="4"/><circle cx="2471" cy="752" r="5"/><circle cx="2536" cy="758" r="6"/><circle cx="55" cy="805" r="6"/><circle cx="146" cy="823" r="6"/><circle cx="161" cy="802" r="5"/><circle cx="276" cy="826" r="4"/><circle cx="386" cy="868" r="4"/><circle cx="442" cy="804" r="5"/><circle cx="483" cy="853" r="4"/><circle cx="604" cy="851" r="6"/><circle cx="715" cy="803" r="5"/><circle cx="800" cy="819" r="5"/><circle cx="806" cy="870" r="5"/><circle cx="945" cy="871" r="5"/><circle cx="1004" cy="873" r="6"/><circle cx="1091" cy="813" r="4"/><circle cx="1187" cy="862" r="5"/><circle cx="1239" cy="830" r="6"/><circle cx="1282" cy="812" r="5"/><circle cx="1385" cy="824" r="5"/><circle cx="1507" cy="817" r="6"/><circle cx="1545" cy="877" r="5"/><circle cx="1626" cy="815" r="4"/><circle cx="1715" cy="858" r="6"/><circle cx="1796" cy="817" r="5"/><circle cx="1896" cy="805" r="6"/><circle cx="1937" cy="837" r="6"/><circle cx="2037" cy="868" r="5"/><circle cx="2106" cy="877" r="5"/><circle cx="2223" cy="862" r="5"/><circle cx="2294" cy="850" r="4"/><circle cx="2324" cy="843" r="5"/><circle cx="2445" cy="857" r="4"/><circle cx="2539" cy="842" r="5"/><circle cx="12" cy="938" r="5"/><circle cx="95" cy="895" r="5"/><circle cx="233" cy="950" r="5"/><circle cx="301" cy="912" r="6"/><circle cx="320" cy="921" r="6"/><circle cx="450" cy="950" r="4"/><circle cx="481" cy="883" r="5"/><circle cx="568" cy="929" r="4"/><circle cx="646" cy="946" r="5"/><circle cx="722" cy="895" r="5"/><circle cx="852" cy="957" r="5"/><circle cx="881" cy="939" r="5"/><circle cx="967" cy="938" r="5"/><circle cx="1115" cy="892" r="5"/><circle cx="1185" cy="930" r="4"/><circle cx="1250" cy="892" r="5"/><circle cx="1292" cy="939" r="6"/><circle cx="1391" cy="956" r="5"/><circle cx="1485" cy="929" r="5"/><circle cx="1589" cy="958" r="4"/><circle cx="1624" cy="939" r="4"/><circle cx="1691" cy="910" r="4"/><circle cx="1799" cy="912" r="4"/><circle cx="1890" cy="933" r="6"/><circle cx="1937" cy="933" r="5"/><circle cx="2069" cy="911" r="4"/><circle cx="2134" cy="885" r="5"/><circle cx="2195" cy="930" r="5"/><circle cx="2256" cy="948" r="5"/><circle cx="2375" cy="945" r="5"/><circle cx="2436" cy="946" r="5"/><circle cx="2537" cy="951" r="6"/><circle cx="7" cy="996" r="4"/><circle cx="96" cy="1011" r="6"/><circle cx="166" cy="1033" r="5"/><circle cx="289" cy="971" r="4"/><circle cx="360" cy="1037" r="5"/><circle cx="478" cy="1009" r="4"/><circle cx="542" cy="999" r="5"/><circle cx="565" cy="1002" r="5"/><circle cx="655" cy="1001" r="5"/><circle cx="795" cy="1027" r="6"/><circle cx="810" cy="966" r="6"/><circle cx="941" cy="977" r="6"/><circle cx="974" cy="1014" r="4"/><circle cx="1053" cy="1018" r="5"/><circle cx="1141" cy="1029" r="5"/><circle cx="1270" cy="989" r="4"/><circle cx="1324" cy="1017" r="5"/><circle cx="1387" cy="1009" r="6"/><circle cx="1495" cy="976" r="6"/><circle cx="1600" cy="1032" r="5"/><circle cx="1658" cy="1029" r="4"/><circle cx="1750" cy="1020" r="5"/><circle cx="1834" cy="1025" r="5"/><circle cx="1853" cy="998" r="5"/><circle cx="1953" cy="1032" r="5"/><circle cx="2033" cy="988" r="6"/><circle cx="2128" cy="960" r="6"/><circle cx="2223" cy="1018" r="6"/><circle cx="2319" cy="990" r="4"/><circle cx="2374" cy="961" r="5"/><circle cx="2469" cy="1022" r="6"/><circle cx="2529" cy="961" r="5"/><circle cx="4" cy="1065" r="4"/><circle cx="2564" cy="1065" r="4"/><circle cx="119" cy="1093" r="5"/><circle cx="222" cy="1077" r="5"/><circle cx="242" cy="1082" r="4"/><circle cx="329" cy="1055" r="4"/><circle cx="432" cy="1082" r="5"/><circle cx="508" cy="1054" r="5"/><circle cx="637" cy="1046" r="6"/><circle cx="674" cy="1113" r="5"/><circle cx="756" cy="1119" r="5"/><circle cx="847" cy="1111" r="6"/><circle cx="916" cy="1067" r="5"/><circle cx="1025" cy="1094" r="4"/><circle cx="1101" cy="1112" r="5"/><circle cx="1160" cy="1106" r="5"/><circle cx="1271" cy="1084" r="6"/><circle cx="1305" cy="1062" r="6"/><circle cx="1430" cy="1083" r="6"/><circle cx="1506" cy="1061" r="5"/><circle cx="1555" cy="1120" r="5"/><circle cx="1672" cy="1070" r="5"/><circle cx="1694" cy="1092" r="5"/><circle cx="1811" cy="1115" r="5"/><circle cx="1844" cy="1085" r="4"/><circle cx="1997" cy="1117" r="6"/><circle cx="2035" cy="1076" r="4"/><circle cx="2101" cy="1066" r="5"/><circle cx="2174" cy="1108" r="5"/><circle cx="2264" cy="1101" r="4"/><circle cx="2361" cy="1055" r="5"/><circle cx="2434" cy="1092" r="5"/><circle cx="2506" cy="1094" r="6"/><circle cx="21" cy="1133" r="5"/><circle cx="89" cy="1175" r="5"/><circle cx="166" cy="1183" r="4"/><circle cx="303" cy="1129" r="5"/><circle cx="364" cy="1122" r="6"/><circle cx="414" cy="1137" r="4"/><circle cx="554" cy="1141" r="5"/><circle cx="592" cy="1152" r="5"/><circle cx="712" cy="1185" r="6"/><circle cx="766" cy="1186" r="5"/><circle cx="858" cy="1174" r="4"/><circle cx="946" cy="1122" r="6"/><circle cx="999" cy="1144" r="4"/><circle cx="1082" cy="1148" r="4"/><circle cx="1196" cy="1142" r="6"/><circle cx="1236" cy="1150" r="6"/><circle cx="1325" cy="1124" r="6"/><circle cx="1360" cy="1131" r="4"/><circle cx="1452" cy="1138" r="5"/><circle cx="1595" cy="1131" r="5"/><circle cx="1627" cy="1157" r="6"/><circle cx="1745" cy="1188" r="4"/><circle cx="1792" cy="1120" r="5"/><circle cx="1848" cy="1197" r="4"/><circle cx="1993" cy="1194" r="5"/><circle cx="2013" cy="1199" r="6"/><circle cx="2151" cy="1179" r="5"/><circle cx="2214" cy="1139" r="5"/><circle cx="2271" cy="1170" r="5"/><circle cx="2355" cy="1142" r="5"/><circle cx="2460" cy="1176" r="5"/><circle cx="2504" cy="1137" r="6"/><circle cx="10" cy="1235" r="5"/><circle cx="158" cy="1256" r="6"/><circle cx="187" cy="1214" r="4"/><circle cx="276" cy="1276" r="4"/><circle cx="393" cy="1251" r="5"/><circle cx="439" cy="1200" r="4"/><circle cx="534" cy="1211" r="4"/><circle cx="564" cy="1238" r="4"/><circle cx="704" cy="1222" r="4"/><circle cx="779" cy="1233" r="5"/><circle cx="857" cy="1222" r="4"/><circle cx="945" cy="1217" r="6"/><circle cx="1020" cy="1248" r="5"/><circle cx="1098" cy="1204" r="4"/><circle cx="1167" cy="1270" r="4"/><circle cx="1255" cy="1205" r="5"/><circle cx="1351" cy="1212" r="5"/><circle cx="1419" cy="1245" r="5"/><circle cx="1473" cy="1259" r="5"/><circle cx="1571" cy="1220" r="4"/><circle cx="1648" cy="1223" r="5"/><circle cx="1747" cy="1233" r="5"/><circle cx="1806" cy="1229" r="6"/><circle cx="1849" cy="1254" r="5"/><circle cx="1961" cy="1268" r="6"/><circle cx="2058" cy="1254" r="4"/><circle cx="2157" cy="1254" r="5"/><circle cx="2195" cy="1275" r="6"/><circle cx="2285" cy="1224" r="5"/><circle cx="2399" cy="1224" r="4"/><circle cx="2407" cy="1243" r="5"/><circle cx="2534" cy="1274" r="6"/><circle cx="35" cy="1283" r="5"/><circle cx="111" cy="1320" r="5"/><circle cx="201" cy="1332" r="5"/><circle cx="266" cy="1320" r="6"/><circle cx="386" cy="1282" r="6"/><circle cx="447" cy="1308" r="6"/><circle cx="523" cy="1327" r="4"/><circle cx="585" cy="1301" r="5"/><circle cx="664" cy="1335" r="4"/><circle cx="774" cy="1345" r="5"/><circle cx="843" cy="1318" r="5"/><circle cx="930" cy="1302" r="6"/><circle cx="988" cy="1324" r="6"/><circle cx="1068" cy="1295" r="4"/><circle cx="1121" cy="1305" r="5"/><circle cx="1213" cy="1356" r="6"/><circle cx="1297" cy="1341" r="5"/><circle cx="1437" cy="1313" r="6"/><circle cx="1448" cy="1295" r="5"/><circle cx="1590" cy="1350" r="6"/><circle cx="1667" cy="1287" r="5"/><circle cx="1735" cy="1288" r="4"/><circle cx="1822" cy="1329" r="4"/><circle cx="1855" cy="1319" r="6"/><circle cx="1955" cy="1282" r="5"/><circle cx="2045" cy="1333" r="4"/><circle cx="2123" cy="1300" r="5"/><circle cx="2169" cy="1314" r="4"/><circle cx="2285" cy="1316" r="4"/><circle cx="2331" cy="1334" r="5"/><circle cx="2432" cy="1310" r="5"/><circle cx="2551" cy="1343" r="5"/><circle cx="3" cy="1399" r="6"/><circle cx="2563" cy="1399" r="6"/><circle cx="116" cy="1394" r="5"/><circle cx="172" cy="1427" r="5"/><circle cx="255" cy="1385" r="5"/><circle cx="362" cy="1434" r="5"/><circle cx="457" cy="1403" r="5"/><circle cx="491" cy="1371" r="5"/><circle cx="605" cy="1419" r="6"/><circle cx="687" cy="1420" r="4"/><circle cx="762" cy="1361" r="5"/><circle cx="876" cy="1378" r="6"/><circle cx="912" cy="1422" r="6"/><circle cx="964" cy="1391" r="6"/><circle cx="1113" cy="1438" r="6"/><circle cx="1113" cy="-2" r="6"/><circle cx="1175" cy="1365" r="6"/><circle cx="1244" cy="1369" r="6"/><circle cx="1358" cy="1386" r="5"/><circle cx="1406" cy="1418" r="5"/><circle cx="1517" cy="1392" r="6"/><circle cx="1590" cy="1430" r="5"/><circle cx="1664" cy="1371" r="6"/><circle cx="1712" cy="1382" r="5"/><circle cx="1808" cy="1391" r="5"/><circle cx="1898" cy="1405" r="5"/><circle cx="1984" cy="1434" r="5"/><circle cx="2074" cy="1365" r="5"/><circle cx="2108" cy="1419" r="5"/><circle cx="2178" cy="1369" r="4"/><circle cx="2311" cy="1432" r="4"/><circle cx="2357" cy="1406" r="5"/><circle cx="2473" cy="1412" r="5"/><circle cx="2497" cy="1431" r="5"/><path stroke="#fff" d="M72 7L129 31M72 7L-31 3M72 7L3 -41M72 7L116 -46M2632 7L2529 3M72 1447L3 1399M72 1447L116 1394M129 31L203 60M129 31L110 114M129 31L116 -46M129 31L172 -13M129 1471L116 1394M129 1471L172 1427M203 60L274 11M203 60L163 104M203 60L273 113M203 60L172 -13M203 1500L172 1427M274 11L344 57M274 11L273 113M274 11L255 -55M274 11L362 -6M274 1451L255 1385M274 1451L362 1434M344 57L432 35M344 57L273 113M344 57L326 133M344 57L362 -6M344 1497L362 1434M432 35L509 61M432 35L431 133M432 35L362 -6M432 35L457 -37M432 1475L362 1434M432 1475L457 1403M509 61L596 30M509 61L504 114M596 30L697 8M596 30L639 104M596 30L605 -21M596 1470L605 1419M697 8L773 43M697 8L639 104M697 8L605 -21M697 8L687 -20M697 1448L605 1419M697 1448L687 1420M773 43L837 31M773 43L770 124M773 43L816 154M773 43L687 -20M773 1483L687 1420M837 31L890 14M837 31L912 -18M837 1471L912 1422M890 14L876 -62M890 14L912 -18M890 14L964 -49M890 1454L876 1378M890 1454L912 1422M890 1454L964 1391M1020 36L1065 63M1020 36L967 118M1020 36L1113 -2M1020 1476L1113 1438M1065 63L1153 5M1065 63L1062 146M1065 63L1123 142M1065 63L1113 -2M1065 1503L1113 1438M1153 5L1113 -2M1153 5L1175 -75M1153 1445L1113 1438M1153 1445L1175 1365M1273 24L1298 31M1273 24L1271 84M1273 24L1244 -71M1273 24L1358 -54M1273 1464L1244 1369M1273 1464L1358 1386M1298 31L1271 84M1298 31L1357 90M1298 31L1244 -71M1298 31L1358 -54M1298 1471L1244 1369M1298 1471L1358 1386M1438 44L1474 74M1438 44L1357 90M1438 44L1459 91M1438 44L1406 -22M1438 44L1517 -48M1438 1484L1406 1418M1438 1484L1517 1392M1474 74L1459 91M1474 74L1406 -22M1474 1514L1406 1418M1600 60L1627 36M1600 60L1594 109M1600 60L1628 124M1600 60L1702 86M1600 60L1590 -10M1600 1500L1590 1430M1627 36L1721 52M1627 36L1594 109M1627 36L1628 124M1627 36L1590 -10M1627 1476L1590 1430M1721 52L1702 86M1721 52L1712 -58M1721 1492L1712 1382M1830 15L1878 24M1830 15L1808 -49M1830 15L1898 -35M1830 1455L1808 1391M1830 1455L1898 1405M1878 24L1976 7M1878 24L1898 -35M1878 24L1984 -6M1878 1464L1898 1405M1878 1464L1984 1434M1976 7L2044 23M1976 7L2034 103M1976 7L1898 -35M1976 7L1984 -6M1976 1447L1898 1405M1976 1447L1984 1434M2044 23L2124 50M2044 23L2034 103M2044 23L1984 -6M2044 23L2108 -21M2044 1463L1984 1434M2044 1463L2108 1419M2124 50L2202 0M2124 50L2034 103M2124 50L2222 114M2124 50L2108 -21M2124 1490L2108 1419M2202 0L2108 -21M2202 0L2178 -71M2202 1440L2108 1419M2202 1440L2178 1369M2295 49L2356 66M2295 49L2222 114M2295 49L2346 109M2295 49L2311 -8M2295 1489L2311 1432M2356 66L2346 109M2356 66L2311 -8M2356 66L2357 -34M2356 1506L2311 1432M2356 1506L2357 1406M2446 18L2529 3M2446 18L2480 103M2446 18L2357 -34M2446 18L2473 -28M2446 18L2497 -9M2446 1458L2357 1406M2446 1458L2473 1412M2446 1458L2497 1431M2529 3L2563 -41M2529 3L2473 -28M2529 3L2497 -9M-31 3L3 -41M-31 1443L3 1399M2529 1443L2563 1399M2529 1443L2473 1412M2529 1443L2497 1431M9 86L110 114M9 86L-80 103M2569 86L2480 103M110 114L163 104M110 114L120 192M163 104L120 192M273 113L326 133M273 113L250 181M326 133L431 133M326 133L250 181M326 133L383 216M431 133L504 114M431 133L383 216M431 133L442 233M504 114L508 224M639 104L642 149M639 104L631 202M639 104L605 -21M639 1544L605 1419M642 149L631 202M642 149L691 204M770 124L816 154M770 124L785 182M816 154L785 182M816 154L871 183M942 146L967 118M942 146L871 183M942 146L949 233M942 146L986 201M967 118L986 201M1062 146L1123 142M1062 146L986 201M1062 146L1087 234M1123 142L1087 234M1123 142L1140 216M1123 142L1115 250M1271 84L1357 90M1271 84L1372 133M1271 84L1300 192M1357 90L1372 133M1357 90L1365 184M1372 133L1459 91M1372 133L1300 192M1372 133L1365 184M1459 91L1534 179M1594 109L1628 124M1594 109L1534 179M1628 124L1702 86M1628 124L1614 230M1702 86L1765 156M1765 156L1753 236M1765 156L1838 181M1765 156L1848 212M1892 133L1948 138M1892 133L1838 181M1948 138L2034 103M1948 138L1995 183M2034 103L1995 183M2129 159L2222 114M2129 159L2050 210M2129 159L2090 234M2222 114L2287 142M2222 114L2237 190M2287 142L2346 109M2287 142L2237 190M2287 142L2253 225M2287 142L2360 219M2346 109L2438 143M2438 143L2480 103M2438 143L2360 219M2438 143L2468 202M2438 143L2490 204M2480 103L2468 202M6 199L120 192M6 199L-92 202M6 199L-70 204M6 199L12 242M6 199L-24 303M2566 199L2468 202M2566 199L2490 204M2566 199L2536 303M120 192L206 236M120 192L111 259M206 236L250 181M206 236L203 307M206 236L201 329M250 181L314 264M383 216L442 233M383 216L314 264M383 216L363 270M442 233L508 224M442 233L363 270M442 233L445 312M508 224L445 312M508 224L550 284M508 224L582 265M631 202L691 204M631 202L582 265M631 202L696 262M691 204L696 262M691 204L763 258M785 182L871 183M785 182L763 258M785 182L819 277M871 183L949 233M871 183L890 265M949 233L986 201M949 233L890 265M949 233L960 292M986 201L960 292M1087 234L1140 216M1087 234L1115 250M1087 234L1163 313M1140 216L1115 250M1140 216L1163 313M1277 220L1300 192M1277 220L1365 184M1277 220L1218 276M1277 220L1308 308M1277 220L1266 324M1300 192L1365 184M1365 184L1451 256M1513 238L1534 179M1513 238L1614 230M1513 238L1451 256M1513 238L1550 309M1534 179L1614 230M1534 179L1451 256M1614 230L1550 309M1614 230L1608 277M1753 236L1752 272M1753 236L1806 240M1838 181L1848 212M1838 181L1806 240M1838 181L1865 279M1848 212L1806 240M1848 212L1865 279M1848 212L1923 265M1995 183L2050 210M1995 183L2090 234M1995 183L2031 260M2050 210L2090 234M2050 210L2031 260M2050 210L2100 281M2090 234L2031 260M2090 234L2100 281M2237 190L2253 225M2237 190L2254 251M2253 225L2254 251M2360 219L2254 251M2360 219L2371 301M2360 219L2424 256M2468 202L2490 204M2468 202L2424 256M2490 204L2572 242M2490 204L2424 256M-70 204L12 242M12 242L111 259M12 242L-24 303M12 242L60 327M2572 242L2536 303M111 259L203 307M111 259L60 327M111 259L131 348M203 307L131 348M203 307L201 329M203 307L290 388M314 264L363 270M363 270L445 312M363 270L420 320M445 312L420 320M445 312L513 382M550 284L582 265M550 284L513 382M550 284L588 334M582 265L588 334M582 265L648 358M696 262L763 258M763 258L819 277M763 258L771 368M819 277L890 265M819 277L771 368M819 277L815 387M890 265L960 292M890 265L967 328M960 292L960 360M960 292L967 328M1115 250L1163 313M1163 313L1218 276M1163 313L1173 359M1218 276L1308 308M1218 276L1173 359M1218 276L1266 324M1308 308L1396 293M1308 308L1266 324M1308 308L1309 410M1396 293L1451 256M1396 293L1353 398M1396 293L1395 340M1396 293L1443 379M1451 256L1395 340M1550 309L1608 277M1550 309L1568 376M1608 277L1696 335M1752 272L1806 240M1752 272L1696 335M1806 240L1865 279M1865 279L1923 265M1865 279L1869 336M1923 265L1869 336M1923 265L1980 321M2031 260L2100 281M2031 260L1980 321M2100 281L2191 315M2100 281L2136 334M2191 315L2254 251M2191 315L2136 334M2191 315L2232 360M2191 315L2244 340M2254 251L2244 340M2371 301L2424 256M2371 301L2347 395M2424 256L2477 348M2536 303L2620 327M2536 303L2477 348M2536 303L2484 325M-24 303L60 327M60 327L131 348M60 327L115 422M131 348L201 329M131 348L115 422M290 388L358 371M290 388L225 460M290 388L315 406M290 388L323 446M358 371L420 320M358 371L315 406M358 371L323 446M513 382L588 334M513 382L531 453M513 382L597 403M588 334L648 358M588 334L597 403M648 358L597 403M648 358L658 436M771 368L815 387M771 368L792 434M771 368L874 400M815 387L792 434M815 387L874 400M960 360L967 328M960 360L874 400M960 360L947 448M1078 395L1038 467M1078 395L1115 430M1078 395L1162 441M1173 359L1115 430M1173 359L1162 441M1173 359L1213 453M1266 324L1309 410M1353 398L1395 340M1353 398L1443 379M1353 398L1309 410M1353 398L1406 467M1395 340L1443 379M1443 379L1406 467M1443 379L1503 455M1568 376L1670 360M1568 376L1503 455M1568 376L1595 446M1568 376L1631 436M1670 360L1696 335M1670 360L1762 389M1670 360L1595 446M1670 360L1631 436M1696 335L1762 389M1762 389L1717 474M1762 389L1760 460M1762 389L1851 409M1869 336L1980 321M1869 336L1851 409M1980 321L2058 365M1980 321L1999 406M2058 365L2136 334M2058 365L1999 406M2058 365L2069 408M2058 365L2121 429M2136 334L2232 360M2232 360L2244 340M2232 360L2172 418M2232 360L2244 425M2244 340L2244 425M2347 395L2372 438M2347 395L2436 456M2477 348L2484 325M2477 348L2436 456M2477 348L2486 462M20 419L115 422M20 419L-74 462M2580 419L2486 462M115 422L131 498M225 460L315 406M225 460L209 556M225 460L248 491M315 406L323 446M323 446L411 472M323 446L327 504M411 472L327 504M411 472L417 482M411 472L491 511M531 453L597 403M531 453L491 511M531 453L597 538M597 403L658 436M792 434L874 400M792 434L734 517M874 400L947 448M947 448L1038 467M947 448L949 558M1038 467L1115 430M1038 467L996 540M1115 430L1162 441M1115 430L1124 512M1162 441L1213 453M1162 441L1124 512M1213 453L1309 410M1213 453L1219 536M1406 467L1503 455M1406 467L1404 516M1406 467L1463 538M1503 455L1595 446M1503 455L1463 538M1595 446L1631 436M1595 446L1611 509M1631 436L1717 474M1631 436L1611 509M1717 474L1760 460M1717 474L1697 538M1760 460L1851 409M1760 460L1697 538M1760 460L1773 558M1851 409L1889 489M1999 406L2069 408M1999 406L2002 510M2069 408L2121 429M2069 408L2089 488M2121 429L2172 418M2121 429L2089 488M2172 418L2244 425M2172 418L2089 488M2172 418L2228 501M2244 425L2228 501M2372 438L2436 456M2372 438L2486 462M2372 438L2301 520M2372 438L2377 500M2436 456L2486 462M2436 456L2377 500M2486 462L2515 532M56 531L131 498M56 531L11 615M56 531L121 628M131 498L209 556M131 498L191 577M209 556L248 491M209 556L191 577M209 556L318 582M248 491L327 504M248 491L191 577M327 504L318 582M327 504L358 582M417 482L491 511M491 511L497 594M491 511L565 563M597 538L670 545M597 538L565 563M597 538L677 611M670 545L734 517M670 545L677 611M670 545L721 572M670 545L664 645M734 517L832 543M734 517L721 572M832 543L949 558M832 543L831 624M832 543L935 571M949 558L996 540M949 558L935 571M949 558L1007 636M996 540L935 571M996 540L1007 636M996 540L1088 592M1099 555L1124 512M1099 555L1219 536M1099 555L1088 592M1099 555L1123 577M1124 512L1088 592M1124 512L1123 577M1219 536L1309 541M1219 536L1123 577M1219 536L1264 593M1309 541L1404 516M1309 541L1264 593M1404 516L1463 538M1404 516L1393 619M1404 516L1467 577M1463 538L1393 619M1463 538L1467 577M1586 551L1611 509M1586 551L1467 577M1586 551L1583 564M1586 551L1647 581M1611 509L1583 564M1611 509L1647 581M1697 538L1773 558M1697 538L1647 581M1697 538L1731 596M1773 558L1731 596M1773 558L1839 569M1889 489L1942 550M1889 489L1839 569M1889 489L1875 596M1942 550L2002 510M1942 550L1875 596M1942 550L1995 601M1942 550L2012 575M2002 510L2089 488M2002 510L1995 601M2002 510L2012 575M2089 488L2012 575M2228 501L2301 520M2228 501L2206 579M2228 501L2281 577M2301 520L2377 500M2301 520L2281 577M2301 520L2347 586M2377 500L2422 559M2377 500L2347 586M2422 559L2515 532M2422 559L2347 586M2422 559L2424 576M2422 559L2507 590M2515 532L2571 615M2515 532L2424 576M2515 532L2507 590M-45 532L11 615M11 615L-53 590M11 615L56 676M11 615L-57 687M2571 615L2507 590M2571 615L2503 687M121 628L191 577M121 628L56 676M121 628L90 709M318 582L358 582M318 582L278 667M318 582L321 672M358 582L321 672M358 582L430 669M460 612L497 594M460 612L430 669M460 612L533 660M497 594L565 563M497 594L430 669M497 594L533 660M565 563L533 660M565 563L574 672M677 611L721 572M677 611L664 645M677 611L726 666M721 572L664 645M721 572L726 666M831 624L856 661M831 624L892 666M935 571L1007 636M935 571L892 666M1007 636L1088 592M1007 636L1039 693M1088 592L1123 577M1264 593L1344 638M1264 593L1272 699M1264 593L1292 667M1344 638L1393 619M1344 638L1292 667M1344 638L1373 655M1393 619L1467 577M1393 619L1373 655M1467 577L1583 564M1583 564L1647 581M1647 581L1731 596M1731 596L1723 651M1839 569L1875 596M1839 569L1813 658M1839 569L1866 642M1875 596L1813 658M1875 596L1866 642M1995 601L2012 575M1995 601L2097 619M2012 575L2097 619M2097 619L2063 699M2097 619L2138 711M2097 619L2165 651M2206 579L2281 577M2206 579L2165 651M2281 577L2347 586M2281 577L2263 669M2347 586L2424 576M2424 576L2507 590M2507 590L2503 687M56 676L90 709M56 676L7 777M90 709L141 757M198 700L278 667M198 700L141 757M198 700L196 732M198 700L260 739M198 700L161 802M278 667L321 672M278 667L260 739M278 667L332 726M321 672L260 739M321 672L332 726M430 669L533 660M430 669L332 726M533 660L574 672M574 672L664 645M574 672L556 799M574 672L630 795M664 645L726 666M726 666L719 744M856 661L892 666M856 661L842 787M892 666L959 741M1039 693L1086 706M1039 693L959 741M1039 693L1070 777M1086 706L1185 709M1086 706L1070 777M1086 706L1170 739M1086 706L1091 813M1185 709L1272 699M1185 709L1170 739M1185 709L1276 757M1272 699L1292 667M1272 699L1276 757M1272 699L1294 742M1292 667L1373 655M1292 667L1294 742M1373 655L1380 767M1490 719L1586 700M1490 719L1508 791M1490 719L1520 727M1490 719L1507 817M1586 700L1628 683M1586 700L1520 727M1586 700L1602 774M1586 700L1685 726M1628 683L1723 651M1628 683L1602 774M1628 683L1685 726M1723 651L1813 658M1723 651L1685 726M1813 658L1866 642M1813 658L1825 722M1866 642L1825 722M1866 642L1890 739M1971 717L2063 699M1971 717L1890 739M1971 717L1997 792M1971 717L2060 740M2063 699L2138 711M2063 699L2060 740M2138 711L2165 651M2138 711L2060 740M2138 711L2159 765M2165 651L2263 669M2165 651L2159 765M2263 669L2236 743M2263 669L2278 764M2263 669L2323 726M2372 706L2423 703M2372 706L2323 726M2372 706L2471 752M2423 703L2503 687M2423 703L2323 726M2423 703L2471 752M2503 687L2471 752M2503 687L2536 758M7 777L-89 752M7 777L-24 758M7 777L55 805M7 777L-21 842M2567 777L2471 752M2567 777L2536 758M2567 777L2539 842M141 757L196 732M141 757L146 823M141 757L161 802M196 732L260 739M196 732L146 823M196 732L161 802M260 739L332 726M332 726L276 826M459 785L556 799M459 785L442 804M459 785L483 853M556 799L630 795M556 799L483 853M556 799L604 851M630 795L719 744M630 795L604 851M630 795L715 803M719 744L786 768M719 744L715 803M786 768L842 787M786 768L715 803M786 768L800 819M842 787L962 789M842 787L800 819M842 787L806 870M959 741L962 789M962 789L1070 777M962 789L945 871M962 789L1004 873M1070 777L1091 813M1276 757L1294 742M1276 757L1239 830M1276 757L1282 812M1294 742L1239 830M1294 742L1282 812M1380 767L1385 824M1508 791L1520 727M1508 791L1507 817M1508 791L1545 877M1520 727L1507 817M1602 774L1685 726M1602 774L1507 817M1602 774L1626 815M1685 726L1626 815M1825 722L1890 739M1825 722L1796 817M1825 722L1896 805M1890 739L1896 805M1997 792L2060 740M1997 792L1896 805M1997 792L1937 837M1997 792L2037 868M2060 740L2159 765M2159 765L2236 743M2236 743L2278 764M2236 743L2323 726M2278 764L2323 726M2278 764L2294 850M2278 764L2324 843M2471 752L2536 758M2536 758L2615 805M2536 758L2539 842M-24 758L55 805M55 805L146 823M55 805L-21 842M55 805L95 895M2615 805L2539 842M146 823L161 802M146 823L95 895M161 802L95 895M276 826L301 912M276 826L320 921M386 868L442 804M386 868L483 853M386 868L301 912M386 868L320 921M386 868L481 883M442 804L483 853M442 804L481 883M483 853L481 883M604 851L568 929M604 851L646 946M715 803L800 819M715 803L722 895M800 819L806 870M800 819L722 895M806 870L722 895M806 870L852 957M806 870L810 966M945 871L1004 873M945 871L881 939M945 871L967 938M1004 873L1091 813M1004 873L967 938M1004 873L1115 892M1091 813L1115 892M1187 862L1239 830M1187 862L1282 812M1187 862L1115 892M1187 862L1185 930M1187 862L1250 892M1239 830L1282 812M1239 830L1250 892M1282 812L1250 892M1507 817L1545 877M1545 877L1485 929M1545 877L1589 958M1626 815L1715 858M1626 815L1691 910M1715 858L1796 817M1715 858L1624 939M1715 858L1691 910M1715 858L1799 912M1796 817L1896 805M1796 817L1799 912M1896 805L1937 837M1937 837L2037 868M1937 837L1890 933M1937 837L1937 933M2037 868L2106 877M2037 868L2069 911M2106 877L2069 911M2106 877L2134 885M2106 877L2128 960M2223 862L2294 850M2223 862L2324 843M2223 862L2134 885M2223 862L2195 930M2223 862L2256 948M2294 850L2324 843M2539 842L2572 938M-21 842L12 938M12 938L95 895M12 938L-23 951M12 938L7 996M12 938L-31 961M2572 938L2537 951M2572 938L2529 961M95 895L96 1011M233 950L301 912M233 950L320 921M233 950L166 1033M233 950L289 971M301 912L320 921M301 912L289 971M320 921L289 971M450 950L481 883M450 950L478 1009M481 883L568 929M568 929L646 946M568 929L542 999M568 929L565 1002M646 946L722 895M646 946L655 1001M646 946L637 1046M722 895L810 966M852 957L881 939M852 957L795 1027M852 957L810 966M852 957L941 977M881 939L967 938M881 939L810 966M881 939L941 977M967 938L941 977M967 938L974 1014M1115 892L1185 930M1185 930L1250 892M1185 930L1141 1029M1250 892L1292 939M1292 939L1391 956M1292 939L1270 989M1292 939L1324 1017M1391 956L1485 929M1391 956L1387 1009M1391 956L1495 976M1485 929L1495 976M1589 958L1624 939M1589 958L1495 976M1589 958L1600 1032M1624 939L1691 910M1624 939L1658 1029M1691 910L1799 912M1799 912L1890 933M1799 912L1853 998M1890 933L1937 933M1890 933L1834 1025M1890 933L1853 998M1937 933L1853 998M1937 933L1953 1032M2069 911L2134 885M2069 911L2033 988M2069 911L2128 960M2134 885L2195 930M2134 885L2128 960M2195 930L2256 948M2195 930L2128 960M2195 930L2223 1018M2256 948L2223 1018M2256 948L2319 990M2375 945L2436 946M2375 945L2319 990M2375 945L2374 961M2375 945L2361 1055M2436 946L2537 951M2436 946L2374 961M2436 946L2469 1022M2436 946L2529 961M2537 951L2567 996M2537 951L2469 1022M2537 951L2529 961M-23 951L7 996M7 996L96 1011M7 996L-31 961M7 996L4 1065M2567 996L2529 961M96 1011L166 1033M96 1011L4 1065M96 1011L119 1093M166 1033L119 1093M166 1033L222 1077M166 1033L242 1082M289 971L360 1037M289 971L329 1055M360 1037L329 1055M360 1037L432 1082M360 1037L303 1129M360 1037L364 1122M478 1009L542 999M478 1009L432 1082M478 1009L508 1054M542 999L565 1002M542 999L508 1054M542 999L637 1046M565 1002L655 1001M565 1002L508 1054M565 1002L637 1046M655 1001L637 1046M795 1027L810 966M795 1027L756 1119M795 1027L847 1111M795 1027L916 1067M941 977L974 1014M941 977L916 1067M974 1014L1053 1018M974 1014L916 1067M1053 1018L1141 1029M1053 1018L1025 1094M1141 1029L1101 1112M1141 1029L1160 1106M1270 989L1324 1017M1270 989L1305 1062M1324 1017L1387 1009M1324 1017L1271 1084M1324 1017L1305 1062M1387 1009L1495 976M1387 1009L1305 1062M1387 1009L1430 1083M1495 976L1506 1061M1600 1032L1658 1029M1600 1032L1506 1061M1600 1032L1555 1120M1600 1032L1672 1070M1658 1029L1750 1020M1658 1029L1672 1070M1658 1029L1694 1092M1750 1020L1834 1025M1750 1020L1672 1070M1750 1020L1694 1092M1834 1025L1853 998M1834 1025L1811 1115M1834 1025L1844 1085M1853 998L1844 1085M1953 1032L2033 988M1953 1032L1997 1117M1953 1032L2035 1076M2033 988L2128 960M2033 988L2035 1076M2033 988L2101 1066M2223 1018L2319 990M2223 1018L2174 1108M2223 1018L2264 1101M2319 990L2374 961M2319 990L2361 1055M2374 961L2361 1055M2469 1022L2529 961M2469 1022L2434 1092M2469 1022L2506 1094M4 1065L-54 1094M4 1065L21 1133M4 1065L-56 1137M2564 1065L2506 1094M2564 1065L2504 1137M119 1093L222 1077M119 1093L89 1175M222 1077L242 1082M222 1077L303 1129M242 1082L329 1055M242 1082L303 1129M329 1055L303 1129M329 1055L364 1122M432 1082L508 1054M432 1082L364 1122M432 1082L414 1137M508 1054L554 1141M637 1046L674 1113M674 1113L756 1119M674 1113L592 1152M674 1113L712 1185M756 1119L847 1111M756 1119L712 1185M756 1119L766 1186M847 1111L916 1067M847 1111L858 1174M847 1111L946 1122M916 1067L946 1122M1025 1094L1101 1112M1025 1094L946 1122M1025 1094L999 1144M1025 1094L1082 1148M1101 1112L1160 1106M1101 1112L1082 1148M1101 1112L1196 1142M1160 1106L1082 1148M1160 1106L1196 1142M1160 1106L1236 1150M1271 1084L1305 1062M1271 1084L1196 1142M1271 1084L1236 1150M1271 1084L1325 1124M1305 1062L1325 1124M1430 1083L1506 1061M1430 1083L1360 1131M1430 1083L1452 1138M1506 1061L1555 1120M1506 1061L1452 1138M1555 1120L1452 1138M1555 1120L1595 1131M1555 1120L1627 1157M1672 1070L1694 1092M1694 1092L1627 1157M1811 1115L1844 1085M1811 1115L1792 1120M1811 1115L1848 1197M1844 1085L1792 1120M1997 1117L2035 1076M1997 1117L2101 1066M1997 1117L1993 1194M1997 1117L2013 1199M2035 1076L2101 1066M2101 1066L2174 1108M2174 1108L2264 1101M2174 1108L2151 1179M2174 1108L2214 1139M2264 1101L2214 1139M2264 1101L2271 1170M2264 1101L2355 1142M2361 1055L2434 1092M2361 1055L2355 1142M2434 1092L2506 1094M2434 1092L2460 1176M2434 1092L2504 1137M2506 1094L2581 1133M2506 1094L2504 1137M-54 1094L21 1133M21 1133L89 1175M21 1133L-56 1137M21 1133L10 1235M2581 1133L2504 1137M89 1175L166 1183M89 1175L10 1235M89 1175L158 1256M166 1183L158 1256M166 1183L187 1214M303 1129L364 1122M364 1122L414 1137M414 1137L393 1251M414 1137L439 1200M554 1141L592 1152M554 1141L534 1211M554 1141L564 1238M592 1152L534 1211M592 1152L564 1238M712 1185L766 1186M712 1185L704 1222M712 1185L779 1233M766 1186L858 1174M766 1186L704 1222M766 1186L779 1233M858 1174L857 1222M946 1122L999 1144M946 1122L945 1217M999 1144L1082 1148M999 1144L945 1217M1082 1148L1098 1204M1196 1142L1236 1150M1196 1142L1255 1205M1236 1150L1325 1124M1236 1150L1255 1205M1325 1124L1360 1131M1325 1124L1351 1212M1360 1131L1452 1138M1360 1131L1351 1212M1452 1138L1419 1245M1595 1131L1627 1157M1595 1131L1571 1220M1595 1131L1648 1223M1627 1157L1571 1220M1627 1157L1648 1223M1745 1188L1792 1120M1745 1188L1747 1233M1745 1188L1806 1229M1792 1120L1848 1197M1848 1197L1806 1229M1848 1197L1849 1254M1993 1194L2013 1199M1993 1194L1961 1268M1993 1194L2058 1254M1993 1194L1955 1282M2013 1199L1961 1268M2013 1199L2058 1254M2013 1199L1955 1282M2151 1179L2214 1139M2151 1179L2157 1254M2214 1139L2271 1170M2214 1139L2285 1224M2271 1170L2355 1142M2271 1170L2285 1224M2355 1142L2399 1224M2355 1142L2407 1243M2460 1176L2504 1137M2460 1176L2399 1224M2460 1176L2407 1243M10 1235L-26 1274M10 1235L35 1283M2570 1235L2534 1274M158 1256L187 1214M158 1256L111 1320M158 1256L201 1332M187 1214L276 1276M276 1276L266 1320M276 1276L386 1282M393 1251L439 1200M393 1251L386 1282M393 1251L447 1308M439 1200L534 1211M439 1200L386 1282M534 1211L564 1238M534 1211L585 1301M564 1238L523 1327M564 1238L585 1301M704 1222L779 1233M779 1233L857 1222M779 1233L843 1318M857 1222L945 1217M945 1217L1020 1248M945 1217L930 1302M1020 1248L1098 1204M1020 1248L988 1324M1020 1248L1068 1295M1098 1204L1167 1270M1098 1204L1068 1295M1098 1204L1121 1305M1167 1270L1255 1205M1167 1270L1121 1305M1167 1270L1213 1356M1255 1205L1351 1212M1351 1212L1419 1245M1419 1245L1473 1259M1419 1245L1437 1313M1419 1245L1448 1295M1473 1259L1571 1220M1473 1259L1437 1313M1473 1259L1448 1295M1571 1220L1648 1223M1648 1223L1667 1287M1747 1233L1806 1229M1747 1233L1849 1254M1747 1233L1667 1287M1747 1233L1735 1288M1806 1229L1849 1254M1806 1229L1855 1319M1849 1254L1822 1329M1849 1254L1855 1319M1961 1268L2058 1254M1961 1268L1955 1282M2058 1254L2045 1333M2058 1254L2123 1300M2157 1254L2195 1275M2157 1254L2123 1300M2157 1254L2169 1314M2195 1275L2123 1300M2195 1275L2169 1314M2195 1275L2285 1316M2195 1275L2178 1369M2285 1224L2285 1316M2399 1224L2407 1243M2399 1224L2432 1310M2407 1243L2331 1334M2407 1243L2432 1310M2534 1274L2595 1283M2534 1274L2432 1310M2534 1274L2551 1343M-26 1274L35 1283M35 1283L111 1320M35 1283L-9 1343M2595 1283L2551 1343M111 1320L201 1332M111 1320L116 1394M201 1332L266 1320M201 1332L172 1427M201 1332L255 1385M266 1320L386 1282M266 1320L255 1385M386 1282L447 1308M447 1308L523 1327M447 1308L457 1403M447 1308L491 1371M523 1327L585 1301M523 1327L457 1403M523 1327L491 1371M585 1301L664 1335M664 1335L774 1345M664 1335L605 1419M664 1335L687 1420M664 1335L762 1361M774 1345L843 1318M774 1345L762 1361M843 1318L930 1302M843 1318L762 1361M843 1318L876 1378M930 1302L988 1324M930 1302L876 1378M930 1302L964 1391M988 1324L1068 1295M988 1324L964 1391M1068 1295L1121 1305M1121 1305L1213 1356M1121 1305L1175 1365M1213 1356L1297 1341M1213 1356L1175 1365M1213 1356L1244 1369M1297 1341L1244 1369M1297 1341L1358 1386M1437 1313L1448 1295M1437 1313L1406 1418M1437 1313L1517 1392M1590 1350L1667 1287M1590 1350L1517 1392M1590 1350L1590 1430M1590 1350L1664 1371M1590 1350L1712 1382M1667 1287L1735 1288M1667 1287L1664 1371M1735 1288L1822 1329M1735 1288L1664 1371M1735 1288L1712 1382M1822 1329L1855 1319M1822 1329L1808 1391M1855 1319L1808 1391M1855 1319L1898 1405M1955 1282L2045 1333M2045 1333L2074 1365M2123 1300L2169 1314M2123 1300L2074 1365M2169 1314L2178 1369M2285 1316L2331 1334M2331 1334L2432 1310M2331 1334L2311 1432M2331 1334L2357 1406M2551 1343L2563 1399M2551 1343L2473 1412M2551 1343L2497 1431M-9 1343L3 1399M3 1399L-87 1412M3 1399L-63 1431M2563 1399L2473 1412M2563 1399L2497 1431M116 1394L172 1427M172 1427L255 1385M255 1385L362 1434M362 1434L457 1403M457 1403L491 1371M605 1419L687 1420M687 1420L762 1361M876 1378L912 1422M876 1378L964 1391M912 1422L964 1391M1113 1438L1175 1365M1175 1365L1244 1369M1358 1386L1406 1418M1406 1418L1517 1392M1517 1392L1590 1430M1590 1430L1664 1371M1664 1371L1712 1382M1712 1382L1808 1391M1898 1405L1984 1434M1984 1434L2074 1365M2074 1365L2108 1419M2074 1365L2178 1369M2108 1419L2178 1369M2311 1432L2357 1406M2473 1412L2497 1431"/></svg>