<svg xmlns="http://www.w3.org/2000/svg" width="2560" height="1440" fill="#fff"><circle cx="25" cy="56" r="4"/><circle cx="119" cy="2" r="6"/><circle cx="119" cy="1442" r="6"/><circle cx="185" cy="75" r="6"/><circle cx="302" cy="12" r="6"/><circle cx="359" cy="51" r="5"/><circle cx="448" cy="16" r="5"/><circle cx="518" cy="14" r="5"/><circle cx="564" cy="27" r="6"/><circle cx="690" cy="49" r="5"/><circle cx="780" cy="20" r="6"/><circle cx="831" cy="43" r="5"/><circle cx="927" cy="46" r="5"/><circle cx="1017" cy="6" r="5"/><circle cx="1082" cy="72" r="5"/><circle cx="1151" cy="35" r="6"/><circle cx="1221" cy="44" r="4"/><circle cx="1355" cy="9" r="5"/><circle cx="1395" cy="33" r="5"/><circle cx="1453" cy="10" r="4"/><circle cx="1523" cy="67" r="6"/><circle cx="1615" cy="54" r="5"/><circle cx="1688" cy="2" r="5"/><circle cx="1688" cy="1442" r="5"/><circle cx="1831" cy="19" r="4"/><circle cx="1847" cy="38" r="4"/><circle cx="1933" cy="67" r="4"/><circle cx="2002" cy="74" r="4"/><circle cx="2088" cy="47" r="4"/><circle cx="2160" cy="26" r="4"/><circle cx="2252" cy="8" r="5"/><circle cx="2388" cy="72" r="4"/><circle cx="2402" cy="76" r="4"/><circle cx="2524" cy="44" r="4"/><circle cx="4" cy="156" r="5"/><circle cx="2564" cy="156" r="5"/><circle cx="146" cy="100" r="6"/><circle cx="170" cy="92" r="4"/><circle cx="252" cy="140" r="6"/><circle cx="364" cy="88" r="5"/><circle cx="479" cy="81" r="5"/><circle cx="526" cy="101" r="5"/><circle cx="576" cy="136" r="4"/><circle cx="685" cy="97" r="4"/><circle cx="776" cy="137" r="5"/><circle cx="870" cy="153" r="5"/><circle cx="900" cy="116" r="4"/><circle cx="990" cy="139" r="5"/><circle cx="1119" cy="95" r="5"/><circle cx="1150" cy="146" r="6"/><circle cx="1248" cy="152" r="6"/><circle cx="1344" cy="133" r="5"/><circle cx="1360" cy="155" r="4"/><circle cx="1520" cy="141" r="5"/><circle cx="1591" cy="88" r="4"/><circle cx="1666" cy="89" r="4"/><circle cx="1712" cy="141" r="5"/><circle cx="1798" cy="97" r="4"/><circle cx="1918" cy="152" r="6"/><circle cx="1976" cy="160" r="4"/><circle cx="2066" cy="155" r="4"/><circle cx="2095" cy="110" r="5"/><circle cx="2191" cy="86" r="5"/><circle cx="2282" cy="109" r="6"/><circle cx="2397" cy="128" r="4"/><circle cx="2412" cy="117" r="4"/><circle cx="2504" cy="157" r="6"/><circle cx="34" cy="168" r="6"/><circle cx="109" cy="230" r="5"/><circle cx="215" cy="229" r="4"/><circle cx="287" cy="219" r="4"/><circle cx="372" cy="233" r="6"/><circle cx="472" cy="192" r="6"/><circle cx="529" cy="164" r="6"/><circle cx="615" cy="196" r="4"/><circle cx="692" cy="199" r="5"/><circle cx="754" cy="233" r="6"/><circle cx="822" cy="173" r="6"/><circle cx="881" cy="215" r="5"/><circle cx="1015" cy="177" r="5"/><circle cx="1073" cy="198" r="5"/><circle cx="1137" cy="238" r="5"/><circle cx="1223" cy="162" r="5"/><circle cx="1351" cy="192" r="6"/><circle cx="1405" cy="216" r="6"/><circle cx="1492" cy="173" r="5"/><circle cx="1585" cy="215" r="4"/><circle cx="1671" cy="197" r="5"/><circle cx="1733" cy="199" r="6"/><circle cx="1764" cy="189" r="4"/><circle cx="1891" cy="237" r="4"/><circle cx="1962" cy="208" r="5"/><circle cx="2045" cy="220" r="5"/><circle cx="2131" cy="229" r="6"/><circle cx="2202" cy="203" r="4"/><circle cx="2284" cy="184" r="5"/><circle cx="2381" cy="209" r="5"/><circle cx="2402" cy="222" r="4"/><circle cx="2508" cy="234" r="5"/><circle cx="5" cy="302" r="5"/><circle cx="88" cy="313" r="5"/><circle cx="167" cy="268" r="6"/><circle cx="258" cy="267" r="5"/><circle cx="333" cy="257" r="5"/><circle cx="478" cy="277" r="6"/><circle cx="486" cy="295" r="6"/><circle cx="625" cy="274" r="6"/><circle cx="671" cy="300" r="6"/><circle cx="735" cy="310" r="5"/><circle cx="807" cy="281" r="5"/><circle cx="926" cy="274" r="5"/><circle cx="1002" cy="285" r="5"/><circle cx="1096" cy="303" r="4"/><circle cx="1179" cy="271" r="6"/><circle cx="1233" cy="296" r="5"/><circle cx="1340" cy="282" r="6"/><circle cx="1390" cy="305" r="6"/><circle cx="1518" cy="292" r="4"/><circle cx="1599" cy="298" r="6"/><circle cx="1617" cy="247" r="5"/><circle cx="1753" cy="255" r="5"/><circle cx="1823" cy="246" r="5"/><circle cx="1885" cy="249" r="5"/><circle cx="1999" cy="296" r="5"/><circle cx="2073" cy="246" r="6"/><circle cx="2100" cy="308" r="6"/><circle cx="2180" cy="291" r="4"/><circle cx="2244" cy="306" r="6"/><circle cx="2392" cy="243" r="4"/><circle cx="2443" cy="276" r="4"/><circle cx="2501" cy="298" r="5"/><circle cx="26" cy="380" r="4"/><circle cx="92" cy="395" r="5"/><circle cx="238" cy="341" r="6"/><circle cx="284" cy="353" r="6"/><circle cx="396" cy="365" r="6"/><circle cx="465" cy="385" r="5"/><circle cx="520" cy="325" r="4"/><circle cx="569" cy="354" r="5"/><circle cx="708" cy="333" r="4"/><circle cx="745" cy="400" r="5"/><circle cx="816" cy="322" r="4"/><circle cx="885" cy="367" r="5"/><circle cx="1017" cy="376" r="6"/><circle cx="1069" cy="336" r="5"/><circle cx="1135" cy="342" r="5"/><circle cx="1241" cy="342" r="5"/><circle cx="1336" cy="392" r="5"/><circle cx="1435" cy="349" r="5"/><circle cx="1467" cy="359" r="4"/><circle cx="1521" cy="343" r="4"/><circle cx="1626" cy="331" r="4"/><circle cx="1734" cy="346" r="5"/><circle cx="1792" cy="376" r="4"/><circle cx="1873" cy="327" r="6"/><circle cx="1944" cy="321" r="6"/><circle cx="2029" cy="373" r="5"/><circle cx="2088" cy="399" r="4"/><circle cx="2238" cy="321" r="6"/><circle cx="2268" cy="348" r="5"/><circle cx="2347" cy="326" r="5"/><circle cx="2459" cy="352" r="6"/><circle cx="2497" cy="345" r="5"/><circle cx="47" cy="447" r="5"/><circle cx="93" cy="451" r="6"/><circle cx="203" cy="467" r="5"/><circle cx="249" cy="447" r="6"/><circle cx="342" cy="457" r="5"/><circle cx="474" cy="423" r="5"/><circle cx="545" cy="451" r="5"/><circle cx="618" cy="424" r="6"/><circle cx="657" cy="457" r="4"/><circle cx="787" cy="443" r="5"/><circle cx="860" cy="433" r="6"/><circle cx="885" cy="464" r="5"/><circle cx="995" cy="410" r="5"/><circle cx="1046" cy="431" r="4"/><circle cx="1180" cy="412" r="5"/><circle cx="1271" cy="459" r="5"/><circle cx="1325" cy="407" r="5"/><circle cx="1388" cy="412" r="5"/><circle cx="1502" cy="433" r="6"/><circle cx="1532" cy="440" r="6"/><circle cx="1611" cy="434" r="4"/><circle cx="1735" cy="406" r="5"/><circle cx="1805" cy="436" r="5"/><circle cx="1891" cy="476" r="5"/><circle cx="1975" cy="450" r="6"/><circle cx="2052" cy="428" r="4"/><circle cx="2107" cy="454" r="4"/><circle cx="2232" cy="438" r="5"/><circle cx="2254" cy="414" r="5"/><circle cx="2362" cy="454" r="5"/><circle cx="2441" cy="407" r="5"/><circle cx="2553" cy="415" r="5"/><circle cx="78" cy="538" r="4"/><circle cx="91" cy="508" r="5"/><circle cx="213" cy="482" r="5"/><circle cx="295" cy="553" r="6"/><circle cx="381" cy="548" r="6"/><circle cx="401" cy="480" r="5"/><circle cx="543" cy="530" r="4"/><circle cx="600" cy="513" r="6"/><circle cx="672" cy="549" r="6"/><circle cx="760" cy="488" r="4"/><circle cx="813" cy="545" r="4"/><circle cx="907" cy="547" r="5"/><circle cx="1024" cy="486" r="5"/><circle cx="1100" cy="545" r="6"/><circle cx="1160" cy="559" r="5"/><circle cx="1237" cy="543" r="5"/><circle cx="1326" cy="531" r="5"/><circle cx="1363" cy="550" r="5"/><circle cx="1471" cy="492" r="4"/><circle cx="1592" cy="514" r="5"/><circle cx="1637" cy="551" r="5"/><circle cx="1760" cy="487" r="5"/><circle cx="1784" cy="524" r="5"/><circle cx="1847" cy="492" r="5"/><circle cx="1986" cy="535" r="4"/><circle cx="2075" cy="549" r="5"/><circle cx="2086" cy="493" r="6"/><circle cx="2198" cy="521" r="4"/><circle cx="2298" cy="512" r="5"/><circle cx="2325" cy="524" r="6"/><circle cx="2415" cy="497" r="6"/><circle cx="2483" cy="546" r="6"/><circle cx="18" cy="588" r="5"/><circle cx="130" cy="594" r="6"/><circle cx="214" cy="618" r="5"/><circle cx="269" cy="586" r="4"/><circle cx="362" cy="606" r="4"/><circle cx="402" cy="614" r="6"/><circle cx="508" cy="580" r="6"/><circle cx="607" cy="589" r="5"/><circle cx="710" cy="576" r="4"/><circle cx="798" cy="563" r="5"/><circle cx="818" cy="570" r="6"/><circle cx="934" cy="618" r="4"/><circle cx="1032" cy="617" r="5"/><circle cx="1041" cy="588" r="5"/><circle cx="1175" cy="639" r="6"/><circle cx="1226" cy="605" r="6"/><circle cx="1348" cy="568" r="4"/><circle cx="1420" cy="589" r="5"/><circle cx="1444" cy="613" r="5"/><circle cx="1568" cy="572" r="6"/><circle cx="1663" cy="588" r="5"/><circle cx="1687" cy="615" r="5"/><circle cx="1838" cy="572" r="5"/><circle cx="1888" cy="577" r="4"/><circle cx="1938" cy="580" r="5"/><circle cx="2054" cy="610" r="4"/><circle cx="2093" cy="607" r="4"/><circle cx="2216" cy="614" r="4"/><circle cx="2246" cy="591" r="5"/><circle cx="2372" cy="594" r="6"/><circle cx="2479" cy="631" r="4"/><circle cx="2521" cy="625" r="6"/><circle cx="69" cy="677" r="6"/><circle cx="125" cy="718" r="5"/><circle cx="227" cy="661" r="6"/><circle cx="302" cy="712" r="5"/><circle cx="392" cy="644" r="5"/><circle cx="474" cy="657" r="5"/><circle cx="529" cy="708" r="6"/><circle cx="594" cy="647" r="5"/><circle cx="671" cy="674" r="4"/><circle cx="791" cy="672" r="5"/><circle cx="873" cy="711" r="5"/><circle cx="951" cy="705" r="4"/><circle cx="965" cy="654" r="4"/><circle cx="1053" cy="687" r="4"/><circle cx="1144" cy="644" r="6"/><circle cx="1244" cy="647" r="4"/><circle cx="1333" cy="706" r="5"/><circle cx="1393" cy="657" r="4"/><circle cx="1509" cy="675" r="4"/><circle cx="1547" cy="665" r="5"/><circle cx="1649" cy="713" r="5"/><circle cx="1705" cy="709" r="5"/><circle cx="1833" cy="673" r="6"/><circle cx="1840" cy="695" r="6"/><circle cx="1993" cy="706" r="5"/><circle cx="2056" cy="651" r="4"/><circle cx="2095" cy="718" r="6"/><circle cx="2226" cy="693" r="5"/><circle cx="2281" cy="672" r="6"/><circle cx="2345" cy="657" r="5"/><circle cx="2448" cy="642" r="6"/><circle cx="2493" cy="646" r="4"/><circle cx="66" cy="790" r="5"/><circle cx="93" cy="722" r="5"/><circle cx="164" cy="731" r="4"/><circle cx="308" cy="775" r="6"/><circle cx="360" cy="725" r="5"/><circle cx="416" cy="786" r="5"/><circle cx="507" cy="759" r="5"/><circle cx="610" cy="766" r="5"/><circle cx="706" cy="738" r="5"/><circle cx="741" cy="744" r="6"/><circle cx="878" cy="751" r="6"/><circle cx="890" cy="776" r="5"/><circle cx="965" cy="757" r="4"/><circle cx="1118" cy="764" r="6"/><circle cx="1133" cy="722" r="4"/><circle cx="1248" cy="731" r="4"/><circle cx="1282" cy="796" r="5"/><circle cx="1363" cy="750" r="4"/><circle cx="1471" cy="728" r="6"/><circle cx="1562" cy="739" r="4"/><circle cx="1669" cy="787" r="5"/><circle cx="1734" cy="798" r="5"/><circle cx="1831" cy="732" r="5"/><circle cx="1840" cy="761" r="5"/><circle cx="1927" cy="774" r="6"/><circle cx="2015" cy="741" r="4"/><circle cx="2138" cy="759" r="4"/><circle cx="2161" cy="772" r="4"/><circle cx="2296" cy="756" r="5"/><circle cx="2397" cy="768" r="4"/><circle cx="2435" cy="781" r="5"/><circle cx="2491" cy="759" r="6"/><circle cx="14" cy="868" r="4"/><circle cx="104" cy="869" r="5"/><circle cx="192" cy="850" r="4"/><circle cx="241" cy="817" r="4"/><circle cx="327" cy="816" r="5"/><circle cx="475" cy="856" r="4"/><circle cx="490" cy="830" r="5"/><circle cx="565" cy="846" r="6"/><circle cx="686" cy="804" r="5"/><circle cx="781" cy="876" r="6"/><circle cx="831" cy="829" r="6"/><circle cx="891" cy="830" r="6"/><circle cx="978" cy="863" r="6"/><circle cx="1091" cy="816" r="6"/><circle cx="1155" cy="809" r="5"/><circle cx="1252" cy="824" r="5"/><circle cx="1312" cy="856" r="4"/><circle cx="1382" cy="822" r="4"/><circle cx="1514" cy="867" r="6"/><circle cx="1537" cy="819" r="5"/><circle cx="1613" cy="853" r="5"/><circle cx="1711" cy="848" r="5"/><circle cx="1836" cy="809" r="5"/><circle cx="1846" cy="834" r="6"/><circle cx="1959" cy="875" r="5"/><circle cx="2041" cy="864" r="6"/><circle cx="2130" cy="830" r="4"/><circle cx="2181" cy="801" r="5"/><circle cx="2262" cy="834" r="5"/><circle cx="2365" cy="847" r="5"/><circle cx="2433" cy="837" r="6"/><circle cx="2526" cy="814" r="6"/><circle cx="28" cy="945" r="4"/><circle cx="129" cy="924" r="6"/><circle cx="222" cy="915" r="5"/><circle cx="265" cy="900" r="5"/><circle cx="394" cy="912" r="6"/><circle cx="476" cy="896" r="6"/><circle cx="505" cy="953" r="5"/><circle cx="594" cy="880" r="6"/><circle cx="646" cy="880" r="5"/><circle cx="721" cy="898" r="4"/><circle cx="859" cy="901" r="6"/><circle cx="898" cy="901" r="4"/><circle cx="1037" cy="939" r="6"/><circle cx="1052" cy="959" r="5"/><circle cx="1130" cy="882" r="6"/><circle cx="1231" cy="906" r="5"/><circle cx="1308" cy="912" r="4"/><circle cx="1426" cy="917" r="6"/><circle cx="1466" cy="924" r="5"/><circle cx="1584" cy="945" r="5"/><circle cx="1606" cy="904" r="4"/><circle cx="1723" cy="900" r="5"/><circle cx="1839" cy="922" r="4"/><circle cx="1880" cy="948" r="6"/><circle cx="1924" cy="893" r="4"/><circle cx="2019" cy="884" r="5"/><circle cx="2142" cy="892" r="4"/><circle cx="2179" cy="904" r="5"/><circle cx="2271" cy="925" r="4"/><circle cx="2379" cy="901" r="5"/><circle cx="2464" cy="897" r="6"/><circle cx="2545" cy="922" r="6"/><circle cx="18" cy="980" r="6"/><circle cx="122" cy="982" r="5"/><circle cx="238" cy="978" r="4"/><circle cx="281" cy="985" r="5"/><circle cx="384" cy="964" r="5"/><circle cx="437" cy="1018" r="4"/><circle cx="524" cy="1023" r="6"/><circle cx="577" cy="1003" r="6"/><circle cx="659" cy="965" r="4"/><circle cx="740" cy="1023" r="6"/><circle cx="835" cy="1018" r="5"/><circle cx="922" cy="964" r="5"/><circle cx="1022" cy="979" r="4"/><circle cx="1072" cy="987" r="5"/><circle cx="1175" cy="978" r="6"/><circle cx="1244" cy="998" r="5"/><circle cx="1300" cy="1017" r="4"/><circle cx="1377" cy="1005" r="4"/><circle cx="1473" cy="960" r="6"/><circle cx="1548" cy="990" r="4"/><circle cx="1657" cy="1016" r="4"/><circle cx="1743" cy="980" r="5"/><circle cx="1771" cy="1025" r="5"/><circle cx="1846" cy="982" r="5"/><circle cx="1924" cy="1010" r="4"/><circle cx="2055" cy="975" r="4"/><circle cx="2104" cy="962" r="5"/><circle cx="2183" cy="1019" r="5"/><circle cx="2275" cy="1002" r="5"/><circle cx="2345" cy="1034" r="5"/><circle cx="2478" cy="988" r="6"/><circle cx="2492" cy="999" r="5"/><circle cx="80" cy="1113" r="6"/><circle cx="84" cy="1083" r="5"/><circle cx="224" cy="1045" r="6"/><circle cx="263" cy="1103" r="5"/><circle cx="327" cy="1093" r="6"/><circle cx="441" cy="1104" r="4"/><circle cx="555" cy="1115" r="5"/><circle cx="565" cy="1057" r="6"/><circle cx="658" cy="1093" r="4"/><circle cx="786" cy="1066" r="5"/><circle cx="816" cy="1069" r="4"/><circle cx="940" cy="1109" r="4"/><circle cx="1005" cy="1068" r="4"/><circle cx="1045" cy="1114" r="6"/><circle cx="1163" cy="1045" r="5"/><circle cx="1233" cy="1082" r="6"/><circle cx="1338" cy="1051" r="5"/><circle cx="1395" cy="1043" r="6"/><circle cx="1492" cy="1045" r="5"/><circle cx="1523" cy="1053" r="4"/><circle cx="1665" cy="1085" r="5"/><circle cx="1736" cy="1091" r="6"/><circle cx="1839" cy="1040" r="5"/><circle cx="1917" cy="1115" r="6"/><circle cx="1941" cy="1102" r="4"/><circle cx="2018" cy="1054" r="5"/><circle cx="2116" cy="1066" r="5"/><circle cx="2188" cy="1067" r="6"/><circle cx="2297" cy="1094" r="4"/><circle cx="2335" cy="1069" r="5"/><circle cx="2444" cy="1059" r="4"/><circle cx="2515" cy="1113" r="5"/><circle cx="47" cy="1122" r="5"/><circle cx="92" cy="1188" r="4"/><circle cx="165" cy="1152" r="6"/><circle cx="257" cy="1195" r="4"/><circle cx="394" cy="1149" r="4"/><circle cx="430" cy="1197" r="5"/><circle cx="535" cy="1165" r="5"/><circle cx="628" cy="1162" r="6"/><circle cx="641" cy="1143" r="6"/><circle cx="730" cy="1126" r="4"/><circle cx="812" cy="1155" r="5"/><circle cx="897" cy="1132" r="4"/><circle cx="966" cy="1156" r="5"/><circle cx="1045" cy="1175" r="6"/><circle cx="1159" cy="1146" r="4"/><circle cx="1219" cy="1146" r="6"/><circle cx="1328" cy="1187" r="6"/><circle cx="1387" cy="1143" r="5"/><circle cx="1499" cy="1148" r="4"/><circle cx="1567" cy="1136" r="5"/><circle cx="1662" cy="1168" r="5"/><circle cx="1691" cy="1163" r="5"/><circle cx="1768" cy="1173" r="4"/><circle cx="1907" cy="1162" r="5"/><circle cx="1995" cy="1124" r="4"/><circle cx="2039" cy="1145" r="5"/><circle cx="2148" cy="1186" r="5"/><circle cx="2210" cy="1172" r="5"/><circle cx="2260" cy="1166" r="5"/><circle cx="2327" cy="1164" r="4"/><circle cx="2432" cy="1195" r="6"/><circle cx="2502" cy="1191" r="5"/><circle cx="46" cy="1271" r="6"/><circle cx="140" cy="1270" r="4"/><circle cx="238" cy="1256" r="5"/><circle cx="281" cy="1244" r="5"/><circle cx="368" cy="1203" r="5"/><circle cx="420" cy="1211" r="6"/><circle cx="541" cy="1238" r="5"/><circle cx="626" cy="1237" r="5"/><circle cx="689" cy="1216" r="4"/><circle cx="792" cy="1246" r="5"/><circle cx="811" cy="1271" r="6"/><circle cx="931" cy="1217" r="5"/><circle cx="997" cy="1263" r="5"/><circle cx="1077" cy="1217" r="5"/><circle cx="1179" cy="1212" r="5"/><circle cx="1224" cy="1211" r="6"/><circle cx="1302" cy="1260" r="6"/><circle cx="1370" cy="1245" r="6"/><circle cx="1507" cy="1239" r="6"/><circle cx="1527" cy="1230" r="4"/><circle cx="1677" cy="1212" r="6"/><circle cx="1730" cy="1276" r="4"/><circle cx="1821" cy="1223" r="5"/><circle cx="1892" cy="1256" r="5"/><circle cx="1957" cy="1207" r="6"/><circle cx="2030" cy="1234" r="5"/><circle cx="2136" cy="1255" r="5"/><circle cx="2189" cy="1224" r="6"/><circle cx="2285" cy="1236" r="5"/><circle cx="2331" cy="1239" r="4"/><circle cx="2431" cy="1219" r="5"/><circle cx="2555" cy="1277" r="5"/><circle cx="-5" cy="1277" r="5"/><circle cx="73" cy="1360" r="4"/><circle cx="90" cy="1334" r="5"/><circle cx="212" cy="1347" r="5"/><circle cx="268" cy="1310" r="6"/><circle cx="336" cy="1300" r="6"/><circle cx="419" cy="1314" r="5"/><circle cx="534" cy="1312" r="4"/><circle cx="578" cy="1315" r="6"/><circle cx="656" cy="1313" r="5"/><circle cx="758" cy="1315" r="6"/><circle cx="862" cy="1287" r="5"/><circle cx="951" cy="1297" r="6"/><circle cx="1005" cy="1332" r="4"/><circle cx="1093" cy="1321" r="5"/><circle cx="1143" cy="1356" r="5"/><circle cx="1257" cy="1294" r="5"/><circle cx="1341" cy="1283" r="6"/><circle cx="1387" cy="1298" r="5"/><circle cx="1472" cy="1300" r="4"/><circle cx="1595" cy="1309" r="4"/><circle cx="1625" cy="1348" r="5"/><circle cx="1739" cy="1332" r="6"/><circle cx="1830" cy="1348" r="6"/><circle cx="1862" cy="1344" r="6"/><circle cx="1933" cy="1354" r="4"/><circle cx="2048" cy="1328" r="6"/><circle cx="2149" cy="1359" r="5"/><circle cx="2176" cy="1297" r="4"/><circle cx="2278" cy="1306" r="5"/><circle cx="2391" cy="1285" r="5"/><circle cx="2436" cy="1298" r="5"/><circle cx="2550" cy="1355" r="5"/><circle cx="72" cy="1428" r="6"/><circle cx="95" cy="1361" r="4"/><circle cx="238" cy="1377" r="6"/><circle cx="282" cy="1360" r="5"/><circle cx="340" cy="1386" r="6"/><circle cx="416" cy="1431" r="5"/><circle cx="528" cy="1370" r="5"/><circle cx="640" cy="1393" r="5"/><circle cx="705" cy="1366" r="5"/><circle cx="724" cy="1390" r="5"/><circle cx="819" cy="1375" r="4"/><circle cx="946" cy="1373" r="6"/><circle cx="961" cy="1383" r="4"/><circle cx="1109" cy="1370" r="6"/><circle cx="1167" cy="1383" r="5"/><circle cx="1233" cy="1429" r="5"/><circle cx="1316" cy="1387" r="4"/><circle cx="1385" cy="1397" r="4"/><circle cx="1482" cy="1366" r="6"/><circle cx="1592" cy="1365" r="5"/><circle cx="1662" cy="1430" r="4"/><circle cx="1687" cy="1433" r="5"/><circle cx="1837" cy="1385" r="5"/><circle cx="1898" cy="1405" r="5"/><circle cx="1935" cy="1365" r="5"/><circle cx="2013" cy="1436" r="5"/><circle cx="2013" cy="-4" r="5"/><circle cx="2156" cy="1370" r="5"/><circle cx="2215" cy="1417" r="6"/><circle cx="2274" cy="1437" r="4"/><circle cx="2274" cy="-3" r="4"/><circle cx="2369" cy="1364" r="5"/><circle cx="2474" cy="1371" r="6"/><circle cx="2555" cy="1419" r="5"/><path stroke="#fff" d="M25 56L-36 44M25 56L34 168M25 56L72 -12M25 56L-5 -21M2585 56L2524 44M2585 56L2555 -21M25 1496L72 1428M25 1496L-5 1419M2585 1496L2555 1419M119 2L185 75M119 2L146 100M119 2L73 -80M119 2L72 -12M119 2L95 -79M119 1442L73 1360M119 1442L72 1428M119 1442L95 1361M185 75L146 100M185 75L170 92M185 75L252 140M302 12L359 51M302 12L364 88M302 12L238 -63M302 12L340 -54M302 1452L238 1377M302 1452L340 1386M359 51L448 16M359 51L364 88M359 51L416 -9M359 1491L416 1431M448 16L518 14M448 16L479 81M448 16L416 -9M448 1456L416 1431M518 14L564 27M518 14L479 81M518 14L526 101M518 14L528 -70M518 1454L528 1370M564 27L479 81M564 27L526 101M564 27L528 -70M564 27L640 -47M564 1467L528 1370M564 1467L640 1393M690 49L780 20M690 49L685 97M690 49L640 -47M690 1489L640 1393M780 20L831 43M780 20L724 -50M780 20L819 -65M780 1460L724 1390M780 1460L819 1375M831 43L927 46M831 43L776 137M831 43L870 153M831 43L900 116M927 46L1017 6M927 46L900 116M927 46L990 139M927 46L946 -67M927 1486L946 1373M1017 6L1082 72M1017 6L946 -67M1017 6L961 -57M1017 6L1109 -70M1017 1446L946 1373M1017 1446L961 1383M1017 1446L1109 1370M1082 72L1151 35M1082 72L990 139M1082 72L1119 95M1151 35L1221 44M1151 35L1119 95M1151 35L1167 -57M1151 35L1233 -11M1151 1475L1167 1383M1151 1475L1233 1429M1221 44L1119 95M1221 44L1248 152M1221 44L1233 -11M1221 1484L1233 1429M1355 9L1395 33M1355 9L1453 10M1355 9L1316 -53M1355 9L1385 -43M1355 1449L1316 1387M1355 1449L1385 1397M1395 33L1453 10M1395 33L1344 133M1395 33L1385 -43M1395 1473L1385 1397M1453 10L1523 67M1453 10L1385 -43M1453 10L1482 -74M1453 1450L1385 1397M1453 1450L1482 1366M1523 67L1615 54M1523 67L1520 141M1523 67L1591 88M1523 67L1492 173M1615 54L1688 2M1615 54L1591 88M1615 54L1666 89M1615 54L1662 -10M1615 1494L1662 1430M1688 2L1666 89M1688 2L1662 -10M1688 2L1687 -7M1688 1442L1662 1430M1688 1442L1687 1433M1831 19L1847 38M1831 19L1798 97M1831 19L1837 -55M1831 1459L1837 1385M1847 38L1933 67M1847 38L1798 97M1933 67L2002 74M1933 67L1918 152M2002 74L2088 47M2002 74L1976 160M2002 74L2095 110M2002 74L2013 -4M2002 1514L2013 1436M2088 47L2160 26M2088 47L2095 110M2088 47L2013 -4M2088 1487L2013 1436M2160 26L2252 8M2160 26L2191 86M2160 26L2156 -70M2160 26L2215 -23M2160 1466L2156 1370M2160 1466L2215 1417M2252 8L2191 86M2252 8L2282 109M2252 8L2215 -23M2252 8L2274 -3M2252 1448L2215 1417M2252 1448L2274 1437M2388 72L2402 76M2388 72L2282 109M2388 72L2397 128M2388 72L2412 117M2402 76L2397 128M2402 76L2412 117M2524 44L2555 -21M2524 1484L2555 1419M4 156L-56 157M4 156L34 168M4 156L109 230M4 156L-52 234M2564 156L2504 157M2564 156L2508 234M146 100L170 92M146 100L252 140M170 92L252 140M252 140L215 229M252 140L287 219M364 88L416 -9M364 1528L416 1431M479 81L526 101M479 81L529 164M526 101L576 136M526 101L529 164M576 136L472 192M576 136L529 164M576 136L615 196M776 137L870 153M776 137L692 199M776 137L754 233M776 137L822 173M870 153L900 116M870 153L822 173M870 153L881 215M900 116L990 139M900 116L822 173M990 139L1015 177M990 139L1073 198M1119 95L1150 146M1150 146L1248 152M1150 146L1073 198M1150 146L1137 238M1150 146L1223 162M1248 152L1344 133M1248 152L1223 162M1248 152L1351 192M1344 133L1360 155M1344 133L1351 192M1360 155L1351 192M1360 155L1405 216M1520 141L1591 88M1520 141L1492 173M1520 141L1585 215M1591 88L1666 89M1666 89L1712 141M1666 89L1687 -7M1666 1529L1687 1433M1712 141L1798 97M1712 141L1671 197M1712 141L1733 199M1712 141L1764 189M1798 97L1764 189M1918 152L1976 160M1918 152L1891 237M1918 152L1962 208M1976 160L2066 155M1976 160L1962 208M2066 155L2095 110M2066 155L2045 220M2066 155L2073 246M2095 110L2191 86M2191 86L2282 109M2282 109L2284 184M2282 109L2274 -3M2282 1549L2274 1437M2397 128L2412 117M2397 128L2504 157M2397 128L2381 209M2412 117L2504 157M2504 157L2594 168M2504 157L2508 234M-56 157L34 168M34 168L109 230M109 230L215 229M109 230L88 313M109 230L167 268M215 229L287 219M215 229L167 268M215 229L258 267M287 219L372 233M287 219L258 267M287 219L333 257M372 233L472 192M372 233L333 257M372 233L478 277M472 192L529 164M472 192L478 277M472 192L486 295M529 164L615 196M615 196L692 199M615 196L625 274M692 199L754 233M692 199L625 274M692 199L671 300M754 233L822 173M754 233L735 310M754 233L807 281M822 173L881 215M881 215L807 281M881 215L926 274M1015 177L1073 198M1015 177L1002 285M1073 198L1137 238M1137 238L1096 303M1137 238L1179 271M1137 238L1135 342M1351 192L1405 216M1351 192L1340 282M1405 216L1492 173M1405 216L1340 282M1405 216L1390 305M1492 173L1585 215M1585 215L1671 197M1585 215L1599 298M1585 215L1617 247M1671 197L1733 199M1671 197L1617 247M1671 197L1753 255M1733 199L1764 189M1733 199L1753 255M1764 189L1753 255M1764 189L1823 246M1891 237L1962 208M1891 237L1823 246M1891 237L1885 249M1891 237L1873 327M1962 208L2045 220M1962 208L1885 249M2045 220L2131 229M2045 220L1999 296M2045 220L2073 246M2131 229L2202 203M2131 229L2073 246M2131 229L2100 308M2131 229L2180 291M2202 203L2284 184M2202 203L2180 291M2284 184L2381 209M2381 209L2402 222M2381 209L2392 243M2402 222L2392 243M2402 222L2443 276M2508 234L2565 302M2508 234L2443 276M2508 234L2501 298M-52 234L5 302M5 302L88 313M5 302L-59 298M5 302L26 380M5 302L-63 345M2565 302L2501 298M2565 302L2497 345M88 313L167 268M88 313L26 380M88 313L92 395M167 268L238 341M258 267L333 257M258 267L238 341M258 267L284 353M333 257L284 353M478 277L486 295M478 277L465 385M478 277L520 325M486 295L465 385M486 295L520 325M486 295L569 354M625 274L671 300M625 274L569 354M625 274L708 333M671 300L735 310M671 300L708 333M735 310L807 281M735 310L708 333M735 310L816 322M807 281L926 274M807 281L816 322M926 274L1002 285M926 274L885 367M1002 285L1096 303M1002 285L1017 376M1002 285L1069 336M1096 303L1179 271M1096 303L1069 336M1096 303L1135 342M1179 271L1233 296M1179 271L1135 342M1179 271L1241 342M1233 296L1340 282M1233 296L1241 342M1233 296L1180 412M1340 282L1390 305M1340 282L1336 392M1390 305L1336 392M1390 305L1435 349M1390 305L1467 359M1518 292L1599 298M1518 292L1617 247M1518 292L1521 343M1599 298L1617 247M1599 298L1521 343M1599 298L1626 331M1617 247L1626 331M1753 255L1823 246M1753 255L1734 346M1823 246L1885 249M1823 246L1873 327M1885 249L1873 327M1885 249L1944 321M1999 296L2073 246M1999 296L2100 308M1999 296L1944 321M1999 296L2029 373M2073 246L2100 308M2100 308L2180 291M2100 308L2029 373M2180 291L2244 306M2180 291L2238 321M2244 306L2238 321M2244 306L2268 348M2244 306L2347 326M2244 306L2254 414M2392 243L2443 276M2392 243L2347 326M2443 276L2501 298M2443 276L2459 352M2501 298L2459 352M2501 298L2497 345M26 380L92 395M26 380L47 447M26 380L-7 415M2586 380L2553 415M92 395L47 447M92 395L93 451M92 395L-7 415M2652 395L2553 415M238 341L284 353M238 341L203 467M238 341L249 447M284 353L396 365M284 353L249 447M396 365L465 385M396 365L342 457M396 365L474 423M396 365L401 480M465 385L520 325M465 385L474 423M520 325L569 354M520 325L474 423M569 354L545 451M569 354L618 424M708 333L745 400M708 333L816 322M745 400L657 457M745 400L787 443M745 400L760 488M816 322L885 367M885 367L860 433M885 367L885 464M885 367L995 410M1017 376L1069 336M1017 376L995 410M1017 376L1046 431M1017 376L1024 486M1069 336L1135 342M1069 336L1046 431M1135 342L1180 412M1241 342L1180 412M1241 342L1325 407M1336 392L1271 459M1336 392L1325 407M1336 392L1388 412M1435 349L1467 359M1435 349L1388 412M1435 349L1502 433M1467 359L1521 343M1467 359L1502 433M1521 343L1502 433M1521 343L1532 440M1626 331L1734 346M1626 331L1611 434M1734 346L1792 376M1734 346L1735 406M1792 376L1873 327M1792 376L1735 406M1792 376L1805 436M1873 327L1944 321M2029 373L2088 399M2029 373L1975 450M2029 373L2052 428M2088 399L2052 428M2088 399L2107 454M2088 399L2086 493M2238 321L2268 348M2238 321L2347 326M2238 321L2254 414M2268 348L2347 326M2268 348L2232 438M2268 348L2254 414M2459 352L2497 345M2459 352L2441 407M2497 345L2441 407M2497 345L2553 415M47 447L93 451M47 447L-7 415M47 447L91 508M2607 447L2553 415M93 451L-7 415M93 451L78 538M93 451L91 508M2653 451L2553 415M203 467L249 447M203 467L213 482M249 447L342 457M249 447L213 482M342 457L295 553M342 457L381 548M342 457L401 480M474 423L545 451M474 423L401 480M545 451L618 424M545 451L543 530M545 451L600 513M618 424L657 457M657 457L600 513M657 457L672 549M787 443L860 433M787 443L885 464M787 443L760 488M787 443L813 545M860 433L885 464M885 464L907 547M995 410L1046 431M995 410L1024 486M1046 431L1024 486M1180 412L1271 459M1271 459L1325 407M1271 459L1237 543M1271 459L1326 531M1325 407L1388 412M1388 412L1471 492M1502 433L1532 440M1502 433L1471 492M1532 440L1611 434M1532 440L1471 492M1532 440L1592 514M1611 434L1592 514M1611 434L1637 551M1735 406L1805 436M1735 406L1760 487M1735 406L1784 524M1805 436L1760 487M1805 436L1784 524M1805 436L1847 492M1891 476L1975 450M1891 476L1847 492M1891 476L1888 577M1891 476L1938 580M1975 450L2052 428M1975 450L1986 535M1975 450L2086 493M2052 428L2107 454M2052 428L2086 493M2107 454L2086 493M2232 438L2254 414M2232 438L2198 521M2232 438L2298 512M2362 454L2441 407M2362 454L2298 512M2362 454L2325 524M2362 454L2415 497M2441 407L2415 497M78 538L91 508M78 538L18 588M78 538L130 594M91 508L130 594M295 553L381 548M295 553L214 618M295 553L269 586M295 553L362 606M381 548L401 480M381 548L362 606M381 548L402 614M543 530L600 513M543 530L508 580M543 530L607 589M600 513L672 549M600 513L607 589M672 549L607 589M672 549L710 576M760 488L813 545M760 488L798 563M760 488L818 570M813 545L907 547M813 545L798 563M813 545L818 570M907 547L818 570M907 547L934 618M1024 486L1100 545M1024 486L1041 588M1100 545L1160 559M1100 545L1032 617M1100 545L1041 588M1100 545L1144 644M1160 559L1237 543M1160 559L1175 639M1160 559L1226 605M1160 559L1144 644M1237 543L1326 531M1237 543L1226 605M1326 531L1363 550M1326 531L1348 568M1326 531L1420 589M1363 550L1348 568M1363 550L1420 589M1363 550L1444 613M1363 550L1393 657M1592 514L1637 551M1592 514L1568 572M1592 514L1663 588M1637 551L1568 572M1637 551L1663 588M1637 551L1687 615M1760 487L1784 524M1760 487L1847 492M1784 524L1847 492M1784 524L1838 572M1847 492L1838 572M1986 535L2075 549M1986 535L1938 580M2075 549L2086 493M2075 549L2054 610M2075 549L2093 607M2075 549L2056 651M2198 521L2216 614M2198 521L2246 591M2298 512L2325 524M2298 512L2246 591M2298 512L2372 594M2325 524L2415 497M2325 524L2246 591M2325 524L2372 594M2415 497L2483 546M2415 497L2372 594M2483 546L2578 588M2483 546L2479 631M2483 546L2521 625M2483 546L2448 642M-77 546L18 588M18 588L-39 625M18 588L69 677M2578 588L2521 625M130 594L214 618M130 594L69 677M130 594L227 661M214 618L269 586M214 618L227 661M269 586L362 606M269 586L227 661M362 606L402 614M362 606L392 644M402 614L508 580M402 614L392 644M402 614L474 657M508 580L607 589M508 580L474 657M508 580L594 647M607 589L594 647M710 576L798 563M710 576L671 674M798 563L818 570M798 563L791 672M818 570L791 672M934 618L1032 617M934 618L965 654M1032 617L1041 588M1032 617L965 654M1032 617L1053 687M1041 588L1053 687M1175 639L1226 605M1175 639L1144 644M1175 639L1244 647M1175 639L1133 722M1226 605L1144 644M1226 605L1244 647M1348 568L1420 589M1420 589L1444 613M1420 589L1393 657M1444 613L1393 657M1444 613L1509 675M1568 572L1663 588M1568 572L1687 615M1568 572L1547 665M1663 588L1687 615M1687 615L1649 713M1687 615L1705 709M1838 572L1888 577M1838 572L1938 580M1838 572L1833 673M1888 577L1938 580M1888 577L1833 673M2054 610L2093 607M2054 610L1993 706M2054 610L2056 651M2093 607L2056 651M2216 614L2246 591M2216 614L2226 693M2216 614L2281 672M2246 591L2281 672M2372 594L2345 657M2372 594L2448 642M2479 631L2521 625M2479 631L2448 642M2479 631L2493 646M2521 625L2448 642M2521 625L2493 646M69 677L125 718M69 677L93 722M125 718L66 790M125 718L93 722M125 718L164 731M227 661L302 712M227 661L164 731M302 712L392 644M302 712L308 775M302 712L360 725M392 644L474 657M392 644L360 725M474 657L529 708M529 708L594 647M529 708L507 759M529 708L610 766M594 647L671 674M671 674L706 738M671 674L741 744M791 672L873 711M791 672L706 738M791 672L741 744M873 711L951 705M873 711L878 751M873 711L890 776M873 711L965 757M951 705L965 654M951 705L878 751M951 705L965 757M1053 687L1118 764M1053 687L1133 722M1144 644L1133 722M1244 647L1333 706M1244 647L1248 731M1333 706L1393 657M1333 706L1248 731M1333 706L1282 796M1333 706L1363 750M1393 657L1471 728M1509 675L1547 665M1509 675L1471 728M1509 675L1562 739M1547 665L1649 713M1547 665L1471 728M1547 665L1562 739M1649 713L1705 709M1649 713L1562 739M1649 713L1669 787M1705 709L1669 787M1705 709L1734 798M1833 673L1840 695M1833 673L1831 732M1840 695L1831 732M1840 695L1840 761M1993 706L2056 651M1993 706L2095 718M1993 706L1927 774M1993 706L2015 741M2056 651L2095 718M2095 718L2015 741M2095 718L2138 759M2095 718L2161 772M2226 693L2281 672M2226 693L2161 772M2226 693L2296 756M2281 672L2345 657M2281 672L2296 756M2448 642L2493 646M2493 646L2491 759M66 790L93 722M66 790L14 868M66 790L104 869M66 790L-34 814M2626 790L2526 814M93 722L164 731M308 775L360 725M308 775L416 786M308 775L241 817M308 775L327 816M360 725L416 786M360 725L327 816M416 786L507 759M416 786L327 816M416 786L490 830M507 759L610 766M507 759L490 830M610 766L706 738M610 766L565 846M610 766L686 804M706 738L741 744M706 738L686 804M741 744L686 804M878 751L890 776M878 751L831 829M878 751L891 830M890 776L965 757M890 776L831 829M890 776L891 830M965 757L978 863M1118 764L1133 722M1118 764L1091 816M1118 764L1155 809M1133 722L1155 809M1248 731L1282 796M1248 731L1252 824M1282 796L1363 750M1282 796L1252 824M1282 796L1312 856M1363 750L1382 822M1471 728L1562 739M1471 728L1537 819M1562 739L1537 819M1669 787L1734 798M1669 787L1613 853M1669 787L1711 848M1734 798L1711 848M1734 798L1836 809M1734 798L1723 900M1831 732L1840 761M1831 732L1836 809M1831 732L1846 834M1840 761L1927 774M1840 761L1836 809M1840 761L1846 834M1927 774L2015 741M1927 774L1836 809M1927 774L1846 834M2138 759L2161 772M2138 759L2130 830M2138 759L2181 801M2161 772L2130 830M2161 772L2181 801M2296 756L2397 768M2296 756L2262 834M2397 768L2435 781M2397 768L2491 759M2397 768L2365 847M2397 768L2433 837M2435 781L2491 759M2435 781L2365 847M2435 781L2433 837M2435 781L2526 814M2491 759L2526 814M14 868L104 869M14 868L-34 814M14 868L28 945M14 868L-15 922M2574 868L2526 814M2574 868L2545 922M104 869L192 850M104 869L129 924M104 869L122 982M192 850L241 817M192 850L129 924M192 850L222 915M192 850L265 900M241 817L327 816M241 817L265 900M475 856L490 830M475 856L394 912M475 856L476 896M490 830L565 846M490 830L476 896M565 846L476 896M565 846L594 880M565 846L646 880M686 804L646 880M686 804L721 898M781 876L831 829M781 876L721 898M781 876L859 901M781 876L898 901M831 829L891 830M831 829L859 901M891 830L859 901M891 830L898 901M978 863L1091 816M978 863L898 901M978 863L1037 939M978 863L922 964M1091 816L1155 809M1091 816L1130 882M1155 809L1252 824M1155 809L1130 882M1252 824L1312 856M1252 824L1231 906M1312 856L1382 822M1312 856L1308 912M1382 822L1426 917M1514 867L1537 819M1514 867L1613 853M1514 867L1426 917M1514 867L1466 924M1514 867L1473 960M1537 819L1613 853M1537 819L1606 904M1613 853L1584 945M1613 853L1606 904M1711 848L1606 904M1711 848L1723 900M1836 809L1846 834M1846 834L1839 922M1959 875L2041 864M1959 875L1924 893M1959 875L2019 884M2041 864L2019 884M2041 864L2142 892M2130 830L2181 801M2130 830L2142 892M2130 830L2179 904M2181 801L2262 834M2181 801L2179 904M2262 834L2365 847M2262 834L2271 925M2365 847L2433 837M2365 847L2379 901M2433 837L2379 901M2433 837L2464 897M2526 814L2464 897M28 945L129 924M28 945L-15 922M28 945L18 980M28 945L122 982M2588 945L2545 922M129 924L222 915M129 924L122 982M222 915L265 900M222 915L238 978M222 915L281 985M265 900L238 978M265 900L281 985M394 912L476 896M394 912L384 964M394 912L437 1018M476 896L505 953M505 953L594 880M505 953L437 1018M505 953L524 1023M505 953L577 1003M594 880L646 880M594 880L577 1003M594 880L659 965M646 880L721 898M646 880L659 965M721 898L659 965M859 901L898 901M859 901L922 964M898 901L922 964M1037 939L1052 959M1037 939L1130 882M1037 939L1022 979M1037 939L1072 987M1052 959L1022 979M1052 959L1072 987M1130 882L1231 906M1130 882L1175 978M1231 906L1308 912M1231 906L1175 978M1231 906L1244 998M1426 917L1466 924M1426 917L1377 1005M1426 917L1473 960M1466 924L1473 960M1466 924L1548 990M1584 945L1606 904M1584 945L1548 990M1584 945L1657 1016M1723 900L1743 980M1839 922L1880 948M1839 922L1924 893M1839 922L1846 982M1880 948L1924 893M1880 948L1846 982M1880 948L1924 1010M1880 948L1839 1040M1924 893L2019 884M2019 884L2055 975M2142 892L2179 904M2142 892L2104 962M2179 904L2271 925M2179 904L2104 962M2271 925L2379 901M2271 925L2275 1002M2379 901L2464 897M2464 897L2545 922M2464 897L2478 988M2545 922L2578 980M2545 922L2478 988M-15 922L18 980M18 980L122 982M18 980L-82 988M18 980L-68 999M2578 980L2478 988M2578 980L2492 999M122 982L84 1083M238 978L281 985M238 978L224 1045M238 978L263 1103M281 985L224 1045M281 985L327 1093M384 964L437 1018M437 1018L524 1023M437 1018L441 1104M524 1023L577 1003M524 1023L555 1115M524 1023L565 1057M577 1003L659 965M577 1003L565 1057M659 965L740 1023M740 1023L835 1018M740 1023L786 1066M740 1023L816 1069M740 1023L730 1126M835 1018L922 964M835 1018L786 1066M835 1018L816 1069M922 964L1022 979M1022 979L1072 987M1022 979L1005 1068M1072 987L1175 978M1072 987L1163 1045M1175 978L1244 998M1175 978L1163 1045M1244 998L1300 1017M1244 998L1163 1045M1244 998L1233 1082M1300 1017L1377 1005M1300 1017L1233 1082M1300 1017L1338 1051M1300 1017L1395 1043M1377 1005L1338 1051M1377 1005L1395 1043M1473 960L1548 990M1473 960L1492 1045M1548 990L1492 1045M1548 990L1523 1053M1657 1016L1743 980M1657 1016L1771 1025M1657 1016L1665 1085M1743 980L1771 1025M1743 980L1736 1091M1771 1025L1846 982M1771 1025L1736 1091M1771 1025L1839 1040M1846 982L1924 1010M1846 982L1839 1040M1924 1010L1839 1040M2055 975L2104 962M2055 975L2018 1054M2104 962L2183 1019M2104 962L2116 1066M2183 1019L2275 1002M2183 1019L2116 1066M2183 1019L2188 1067M2275 1002L2345 1034M2275 1002L2297 1094M2275 1002L2335 1069M2345 1034L2297 1094M2345 1034L2335 1069M2345 1034L2444 1059M2478 988L2492 999M2478 988L2444 1059M2492 999L2444 1059M2492 999L2515 1113M80 1113L84 1083M80 1113L47 1122M80 1113L92 1188M80 1113L165 1152M84 1083L47 1122M84 1083L165 1152M224 1045L263 1103M224 1045L327 1093M263 1103L327 1093M263 1103L165 1152M263 1103L257 1195M327 1093L394 1149M441 1104L394 1149M441 1104L430 1197M555 1115L565 1057M555 1115L535 1165M555 1115L641 1143M565 1057L658 1093M658 1093L628 1162M658 1093L641 1143M658 1093L730 1126M786 1066L816 1069M786 1066L730 1126M786 1066L812 1155M816 1069L812 1155M940 1109L1005 1068M940 1109L1045 1114M940 1109L897 1132M940 1109L966 1156M1005 1068L1045 1114M1005 1068L1045 1175M1045 1114L966 1156M1045 1114L1045 1175M1045 1114L1077 1217M1163 1045L1233 1082M1163 1045L1159 1146M1233 1082L1159 1146M1233 1082L1219 1146M1338 1051L1395 1043M1338 1051L1387 1143M1395 1043L1492 1045M1395 1043L1387 1143M1492 1045L1523 1053M1492 1045L1499 1148M1523 1053L1499 1148M1523 1053L1567 1136M1665 1085L1736 1091M1665 1085L1662 1168M1665 1085L1691 1163M1736 1091L1691 1163M1736 1091L1768 1173M1839 1040L1917 1115M1917 1115L1941 1102M1917 1115L1907 1162M1917 1115L1995 1124M1917 1115L1957 1207M1941 1102L2018 1054M1941 1102L1907 1162M1941 1102L1995 1124M2018 1054L2116 1066M2018 1054L1995 1124M2018 1054L2039 1145M2116 1066L2188 1067M2116 1066L2039 1145M2188 1067L2210 1172M2297 1094L2335 1069M2297 1094L2260 1166M2297 1094L2327 1164M2335 1069L2444 1059M2444 1059L2515 1113M2515 1113L2607 1122M2515 1113L2432 1195M2515 1113L2502 1191M-45 1113L47 1122M47 1122L92 1188M92 1188L165 1152M92 1188L140 1270M165 1152L257 1195M257 1195L238 1256M257 1195L281 1244M394 1149L430 1197M394 1149L368 1203M394 1149L420 1211M430 1197L535 1165M430 1197L368 1203M430 1197L420 1211M535 1165L628 1162M535 1165L541 1238M628 1162L641 1143M628 1162L626 1237M628 1162L689 1216M641 1143L730 1126M641 1143L689 1216M730 1126L812 1155M812 1155L897 1132M812 1155L792 1246M897 1132L966 1156M897 1132L931 1217M966 1156L1045 1175M966 1156L931 1217M1045 1175L997 1263M1045 1175L1077 1217M1159 1146L1219 1146M1159 1146L1179 1212M1159 1146L1224 1211M1219 1146L1179 1212M1219 1146L1224 1211M1328 1187L1387 1143M1328 1187L1302 1260M1328 1187L1370 1245M1328 1187L1341 1283M1387 1143L1370 1245M1499 1148L1567 1136M1499 1148L1507 1239M1499 1148L1527 1230M1567 1136L1662 1168M1567 1136L1507 1239M1567 1136L1527 1230M1662 1168L1691 1163M1662 1168L1768 1173M1662 1168L1677 1212M1691 1163L1768 1173M1691 1163L1677 1212M1768 1173L1677 1212M1768 1173L1821 1223M1907 1162L1821 1223M1907 1162L1892 1256M1907 1162L1957 1207M1995 1124L2039 1145M1995 1124L1957 1207M2039 1145L2030 1234M2148 1186L2210 1172M2148 1186L2136 1255M2148 1186L2189 1224M2210 1172L2260 1166M2210 1172L2189 1224M2210 1172L2285 1236M2260 1166L2327 1164M2260 1166L2189 1224M2260 1166L2285 1236M2327 1164L2285 1236M2327 1164L2331 1239M2432 1195L2502 1191M2432 1195L2431 1219M2432 1195L2391 1285M2432 1195L2436 1298M2502 1191L2431 1219M2502 1191L2555 1277M46 1271L140 1270M46 1271L-5 1277M46 1271L90 1334M46 1271L-10 1355M2606 1271L2555 1277M2606 1271L2550 1355M140 1270L90 1334M140 1270L212 1347M238 1256L281 1244M238 1256L212 1347M238 1256L268 1310M281 1244L368 1203M281 1244L268 1310M281 1244L336 1300M368 1203L420 1211M420 1211L419 1314M541 1238L626 1237M541 1238L534 1312M541 1238L578 1315M626 1237L689 1216M626 1237L578 1315M626 1237L656 1313M689 1216L792 1246M792 1246L811 1271M792 1246L758 1315M792 1246L862 1287M811 1271L758 1315M811 1271L862 1287M811 1271L819 1375M931 1217L997 1263M931 1217L862 1287M931 1217L951 1297M997 1263L1077 1217M997 1263L951 1297M997 1263L1005 1332M1077 1217L1179 1212M1077 1217L1093 1321M1179 1212L1224 1211M1179 1212L1257 1294M1224 1211L1302 1260M1224 1211L1257 1294M1302 1260L1370 1245M1302 1260L1257 1294M1302 1260L1341 1283M1370 1245L1341 1283M1370 1245L1387 1298M1507 1239L1527 1230M1507 1239L1472 1300M1527 1230L1472 1300M1527 1230L1595 1309M1677 1212L1730 1276M1730 1276L1821 1223M1730 1276L1739 1332M1821 1223L1892 1256M1892 1256L1957 1207M1957 1207L2030 1234M2030 1234L2136 1255M2030 1234L2048 1328M2136 1255L2189 1224M2136 1255L2048 1328M2136 1255L2176 1297M2189 1224L2176 1297M2285 1236L2331 1239M2285 1236L2278 1306M2331 1239L2431 1219M2331 1239L2278 1306M2331 1239L2391 1285M2431 1219L2391 1285M2431 1219L2436 1298M2555 1277L2550 1355M2555 1277L2474 1371M73 1360L90 1334M73 1360L-10 1355M73 1360L72 1428M73 1360L95 1361M2633 1360L2550 1355M90 1334L95 1361M212 1347L268 1310M212 1347L238 1377M212 1347L282 1360M268 1310L336 1300M268 1310L282 1360M336 1300L419 1314M336 1300L282 1360M336 1300L340 1386M419 1314L534 1312M419 1314L416 1431M534 1312L578 1315M534 1312L528 1370M578 1315L656 1313M578 1315L528 1370M656 1313L640 1393M656 1313L705 1366M758 1315L705 1366M758 1315L724 1390M758 1315L819 1375M862 1287L951 1297M862 1287L819 1375M951 1297L1005 1332M951 1297L946 1373M1005 1332L1093 1321M1005 1332L946 1373M1005 1332L961 1383M1093 1321L1143 1356M1093 1321L1109 1370M1093 1321L1167 1383M1143 1356L1109 1370M1143 1356L1167 1383M1143 1356L1233 1429M1257 1294L1341 1283M1257 1294L1316 1387M1341 1283L1387 1298M1387 1298L1472 1300M1387 1298L1482 1366M1472 1300L1482 1366M1595 1309L1625 1348M1595 1309L1592 1365M1625 1348L1592 1365M1625 1348L1662 1430M1625 1348L1687 1433M1739 1332L1830 1348M1739 1332L1687 1433M1830 1348L1862 1344M1830 1348L1837 1385M1830 1348L1898 1405M1830 1348L1935 1365M1862 1344L1933 1354M1862 1344L1837 1385M1862 1344L1898 1405M1862 1344L1935 1365M1933 1354L1898 1405M1933 1354L1935 1365M2048 1328L2149 1359M2048 1328L2013 1436M2149 1359L2176 1297M2149 1359L2156 1370M2149 1359L2215 1417M2176 1297L2278 1306M2176 1297L2156 1370M2278 1306L2369 1364M2391 1285L2436 1298M2391 1285L2369 1364M2436 1298L2369 1364M2436 1298L2474 1371M2550 1355L2474 1371M2550 1355L2555 1419M72 1428L95 1361M72 1428L-5 1419M2632 1428L2555 1419M238 1377L282 1360M238 1377L340 1386M282 1360L340 1386M340 1386L416 1431M640 1393L705 1366M640 1393L724 1390M705 1366L724 1390M724 1390L819 1375M946 1373L961 1383M1109 1370L1167 1383M1167 1383L1233 1429M1233 1429L1316 1387M1316 1387L1385 1397M1385 1397L1482 1366M1482 1366L1592 1365M1592 1365L1662 1430M1662 1430L1687 1433M1837 1385L1898 1405M1837 1385L1935 1365M1898 1405L1935 1365M2156 1370L2215 1417M2215 1417L2274 1437M2274 1437L2369 1364M2369 1364L2474 1371M2474 1371L2555 1419"/></svg>