<svg xmlns="http://www.w3.org/2000/svg" width="2560" height="1440" fill="#fff"><circle cx="30" cy="75" r="5"/><circle cx="159" cy="74" r="5"/><circle cx="171" cy="14" r="6"/><circle cx="247" cy="9" r="5"/><circle cx="352" cy="39" r="5"/><circle cx="460" cy="63" r="5"/><circle cx="517" cy="7" r="5"/><circle cx="591" cy="40" r="4"/><circle cx="659" cy="62" r="4"/><circle cx="728" cy="14" r="5"/><circle cx="833" cy="68" r="5"/><circle cx="930" cy="60" r="6"/><circle cx="1015" cy="51" r="6"/><circle cx="1092" cy="10" r="5"/><circle cx="1160" cy="39" r="5"/><circle cx="1210" cy="72" r="6"/><circle cx="1298" cy="26" r="5"/><circle cx="1439" cy="8" r="5"/><circle cx="1511" cy="55" r="5"/><circle cx="1529" cy="30" r="6"/><circle cx="1667" cy="53" r="5"/><circle cx="1713" cy="41" r="6"/><circle cx="1810" cy="45" r="6"/><circle cx="1908" cy="14" r="5"/><circle cx="1971" cy="29" r="6"/><circle cx="2027" cy="54" r="5"/><circle cx="2120" cy="65" r="5"/><circle cx="2203" cy="4" r="5"/><circle cx="2203" cy="1444" r="5"/><circle cx="2256" cy="1" r="5"/><circle cx="2256" cy="1441" r="5"/><circle cx="2377" cy="51" r="5"/><circle cx="2438" cy="20" r="4"/><circle cx="2525" cy="8" r="5"/><circle cx="52" cy="85" r="5"/><circle cx="83" cy="136" r="5"/><circle cx="199" cy="97" r="4"/><circle cx="310" cy="159" r="4"/><circle cx="389" cy="144" r="6"/><circle cx="437" cy="135" r="5"/><circle cx="482" cy="120" r="4"/><circle cx="619" cy="100" r="5"/><circle cx="665" cy="90" r="4"/><circle cx="762" cy="159" r="4"/><circle cx="863" cy="84" r="5"/><circle cx="917" cy="126" r="5"/><circle cx="1038" cy="123" r="5"/><circle cx="1087" cy="93" r="5"/><circle cx="1135" cy="135" r="4"/><circle cx="1275" cy="106" r="5"/><circle cx="1333" cy="82" r="6"/><circle cx="1438" cy="89" r="5"/><circle cx="1440" cy="159" r="5"/><circle cx="1579" cy="102" r="6"/><circle cx="1663" cy="150" r="4"/><circle cx="1753" cy="107" r="5"/><circle cx="1763" cy="126" r="5"/><circle cx="1916" cy="142" r="5"/><circle cx="1932" cy="152" r="5"/><circle cx="2023" cy="105" r="5"/><circle cx="2156" cy="92" r="5"/><circle cx="2167" cy="109" r="4"/><circle cx="2280" cy="89" r="6"/><circle cx="2323" cy="85" r="5"/><circle cx="2464" cy="117" r="4"/><circle cx="2483" cy="141" r="6"/><circle cx="52" cy="215" r="4"/><circle cx="132" cy="174" r="4"/><circle cx="165" cy="189" r="5"/><circle cx="245" cy="208" r="5"/><circle cx="369" cy="239" r="5"/><circle cx="410" cy="197" r="4"/><circle cx="495" cy="191" r="4"/><circle cx="575" cy="218" r="5"/><circle cx="715" cy="216" r="4"/><circle cx="764" cy="210" r="5"/><circle cx="834" cy="208" r="6"/><circle cx="943" cy="173" r="5"/><circle cx="984" cy="174" r="6"/><circle cx="1094" cy="232" r="5"/><circle cx="1142" cy="192" r="4"/><circle cx="1245" cy="229" r="6"/><circle cx="1292" cy="204" r="4"/><circle cx="1431" cy="214" r="6"/><circle cx="1505" cy="165" r="4"/><circle cx="1542" cy="212" r="5"/><circle cx="1670" cy="195" r="5"/><circle cx="1681" cy="205" r="6"/><circle cx="1820" cy="196" r="5"/><circle cx="1868" cy="211" r="6"/><circle cx="1996" cy="187" r="5"/><circle cx="2075" cy="228" r="4"/><circle cx="2100" cy="198" r="6"/><circle cx="2194" cy="236" r="5"/><circle cx="2302" cy="238" r="6"/><circle cx="2348" cy="208" r="4"/><circle cx="2410" cy="235" r="6"/><circle cx="2498" cy="220" r="5"/><circle cx="33" cy="288" r="6"/><circle cx="109" cy="258" r="5"/><circle cx="188" cy="310" r="6"/><circle cx="256" cy="253" r="6"/><circle cx="399" cy="292" r="6"/><circle cx="450" cy="309" r="5"/><circle cx="554" cy="296" r="5"/><circle cx="640" cy="316" r="5"/><circle cx="712" cy="273" r="5"/><circle cx="789" cy="305" r="5"/><circle cx="836" cy="265" r="5"/><circle cx="914" cy="292" r="5"/><circle cx="1038" cy="293" r="6"/><circle cx="1120" cy="277" r="5"/><circle cx="1178" cy="245" r="6"/><circle cx="1249" cy="277" r="4"/><circle cx="1341" cy="309" r="5"/><circle cx="1418" cy="294" r="4"/><circle cx="1452" cy="312" r="5"/><circle cx="1563" cy="283" r="6"/><circle cx="1626" cy="248" r="4"/><circle cx="1733" cy="254" r="6"/><circle cx="1765" cy="287" r="4"/><circle cx="1889" cy="319" r="5"/><circle cx="1956" cy="249" r="5"/><circle cx="2003" cy="315" r="6"/><circle cx="2133" cy="296" r="5"/><circle cx="2206" cy="270" r="5"/><circle cx="2284" cy="290" r="5"/><circle cx="2350" cy="283" r="5"/><circle cx="2413" cy="267" r="5"/><circle cx="2538" cy="281" r="4"/><circle cx="8" cy="399" r="4"/><circle cx="151" cy="348" r="5"/><circle cx="237" cy="344" r="5"/><circle cx="251" cy="371" r="5"/><circle cx="385" cy="384" r="4"/><circle cx="403" cy="369" r="5"/><circle cx="535" cy="380" r="6"/><circle cx="566" cy="358" r="4"/><circle cx="680" cy="377" r="5"/><circle cx="792" cy="325" r="4"/><circle cx="831" cy="373" r="4"/><circle cx="896" cy="377" r="5"/><circle cx="982" cy="385" r="4"/><circle cx="1046" cy="369" r="4"/><circle cx="1134" cy="371" r="5"/><circle cx="1236" cy="384" r="6"/><circle cx="1351" cy="332" r="6"/><circle cx="1386" cy="380" r="4"/><circle cx="1508" cy="361" r="5"/><circle cx="1538" cy="341" r="5"/><circle cx="1621" cy="379" r="5"/><circle cx="1694" cy="376" r="4"/><circle cx="1762" cy="374" r="5"/><circle cx="1882" cy="343" r="5"/><circle cx="1940" cy="372" r="4"/><circle cx="2035" cy="338" r="6"/><circle cx="2132" cy="398" r="6"/><circle cx="2202" cy="384" r="5"/><circle cx="2271" cy="355" r="6"/><circle cx="2324" cy="392" r="5"/><circle cx="2478" cy="360" r="6"/><circle cx="2482" cy="326" r="4"/><circle cx="9" cy="428" r="4"/><circle cx="92" cy="415" r="4"/><circle cx="195" cy="465" r="6"/><circle cx="259" cy="421" r="5"/><circle cx="350" cy="427" r="5"/><circle cx="450" cy="403" r="4"/><circle cx="497" cy="412" r="5"/><circle cx="600" cy="417" r="4"/><circle cx="644" cy="461" r="6"/><circle cx="786" cy="475" r="5"/><circle cx="875" cy="464" r="5"/><circle cx="953" cy="447" r="5"/><circle cx="1039" cy="417" r="6"/><circle cx="1053" cy="451" r="5"/><circle cx="1135" cy="449" r="5"/><circle cx="1225" cy="416" r="6"/><circle cx="1307" cy="426" r="5"/><circle cx="1406" cy="417" r="5"/><circle cx="1441" cy="419" r="6"/><circle cx="1568" cy="428" r="5"/><circle cx="1653" cy="433" r="5"/><circle cx="1709" cy="442" r="6"/><circle cx="1781" cy="446" r="5"/><circle cx="1841" cy="412" r="5"/><circle cx="1947" cy="459" r="4"/><circle cx="2031" cy="403" r="4"/><circle cx="2111" cy="460" r="5"/><circle cx="2206" cy="443" r="4"/><circle cx="2251" cy="470" r="4"/><circle cx="2375" cy="477" r="5"/><circle cx="2414" cy="432" r="4"/><circle cx="2516" cy="437" r="4"/><circle cx="67" cy="532" r="6"/><circle cx="84" cy="499" r="6"/><circle cx="172" cy="488" r="6"/><circle cx="292" cy="559" r="4"/><circle cx="324" cy="528" r="4"/><circle cx="444" cy="491" r="6"/><circle cx="555" cy="491" r="6"/><circle cx="596" cy="518" r="6"/><circle cx="645" cy="510" r="4"/><circle cx="723" cy="556" r="6"/><circle cx="854" cy="554" r="5"/><circle cx="942" cy="485" r="5"/><circle cx="977" cy="536" r="4"/><circle cx="1102" cy="552" r="5"/><circle cx="1200" cy="541" r="5"/><circle cx="1201" cy="523" r="5"/><circle cx="1317" cy="484" r="4"/><circle cx="1375" cy="547" r="5"/><circle cx="1455" cy="560" r="4"/><circle cx="1523" cy="493" r="5"/><circle cx="1641" cy="514" r="5"/><circle cx="1721" cy="499" r="5"/><circle cx="1818" cy="507" r="5"/><circle cx="1911" cy="500" r="5"/><circle cx="1964" cy="530" r="5"/><circle cx="2066" cy="481" r="6"/><circle cx="2156" cy="535" r="4"/><circle cx="2202" cy="504" r="6"/><circle cx="2246" cy="531" r="5"/><circle cx="2326" cy="486" r="5"/><circle cx="2428" cy="505" r="4"/><circle cx="2520" cy="482" r="6"/><circle cx="5" cy="570" r="6"/><circle cx="2565" cy="570" r="6"/><circle cx="119" cy="601" r="4"/><circle cx="182" cy="589" r="6"/><circle cx="293" cy="576" r="5"/><circle cx="321" cy="609" r="6"/><circle cx="414" cy="630" r="5"/><circle cx="538" cy="586" r="4"/><circle cx="599" cy="596" r="5"/><circle cx="669" cy="631" r="6"/><circle cx="766" cy="563" r="6"/><circle cx="832" cy="575" r="4"/><circle cx="933" cy="572" r="4"/><circle cx="998" cy="583" r="4"/><circle cx="1052" cy="585" r="5"/><circle cx="1168" cy="623" r="4"/><circle cx="1206" cy="602" r="6"/><circle cx="1346" cy="585" r="6"/><circle cx="1370" cy="613" r="6"/><circle cx="1462" cy="610" r="5"/><circle cx="1567" cy="585" r="5"/><circle cx="1641" cy="564" r="5"/><circle cx="1690" cy="593" r="6"/><circle cx="1763" cy="564" r="5"/><circle cx="1918" cy="631" r="6"/><circle cx="1936" cy="613" r="5"/><circle cx="2020" cy="593" r="5"/><circle cx="2084" cy="594" r="5"/><circle cx="2169" cy="596" r="5"/><circle cx="2311" cy="612" r="4"/><circle cx="2357" cy="570" r="6"/><circle cx="2408" cy="609" r="5"/><circle cx="2500" cy="563" r="4"/><circle cx="54" cy="657" r="6"/><circle cx="146" cy="667" r="6"/><circle cx="191" cy="709" r="5"/><circle cx="299" cy="706" r="6"/><circle cx="369" cy="693" r="5"/><circle cx="420" cy="679" r="5"/><circle cx="547" cy="669" r="5"/><circle cx="615" cy="699" r="5"/><circle cx="660" cy="674" r="5"/><circle cx="780" cy="651" r="4"/><circle cx="814" cy="643" r="4"/><circle cx="939" cy="645" r="4"/><circle cx="1023" cy="678" r="5"/><circle cx="1118" cy="704" r="5"/><circle cx="1191" cy="687" r="5"/><circle cx="1212" cy="681" r="4"/><circle cx="1359" cy="718" r="5"/><circle cx="1404" cy="650" r="4"/><circle cx="1495" cy="666" r="5"/><circle cx="1579" cy="656" r="5"/><circle cx="1608" cy="689" r="5"/><circle cx="1681" cy="668" r="4"/><circle cx="1796" cy="688" r="5"/><circle cx="1913" cy="702" r="5"/><circle cx="1990" cy="700" r="5"/><circle cx="2020" cy="683" r="5"/><circle cx="2089" cy="711" r="4"/><circle cx="2230" cy="711" r="4"/><circle cx="2294" cy="661" r="5"/><circle cx="2350" cy="645" r="4"/><circle cx="2436" cy="664" r="5"/><circle cx="2531" cy="700" r="5"/><circle cx="5" cy="789" r="4"/><circle cx="129" cy="725" r="6"/><circle cx="171" cy="735" r="5"/><circle cx="279" cy="735" r="6"/><circle cx="400" cy="761" r="5"/><circle cx="432" cy="793" r="6"/><circle cx="538" cy="790" r="5"/><circle cx="573" cy="757" r="4"/><circle cx="696" cy="766" r="6"/><circle cx="765" cy="753" r="5"/><circle cx="877" cy="728" r="6"/><circle cx="944" cy="729" r="6"/><circle cx="988" cy="728" r="6"/><circle cx="1050" cy="792" r="6"/><circle cx="1126" cy="733" r="5"/><circle cx="1265" cy="734" r="5"/><circle cx="1331" cy="737" r="6"/><circle cx="1370" cy="729" r="6"/><circle cx="1501" cy="753" r="4"/><circle cx="1589" cy="765" r="5"/><circle cx="1602" cy="738" r="5"/><circle cx="1697" cy="761" r="5"/><circle cx="1801" cy="789" r="5"/><circle cx="1879" cy="773" r="4"/><circle cx="1965" cy="724" r="5"/><circle cx="2007" cy="765" r="4"/><circle cx="2128" cy="771" r="6"/><circle cx="2185" cy="761" r="4"/><circle cx="2319" cy="727" r="4"/><circle cx="2363" cy="787" r="4"/><circle cx="2432" cy="799" r="5"/><circle cx="2542" cy="799" r="4"/><circle cx="12" cy="829" r="6"/><circle cx="123" cy="846" r="4"/><circle cx="161" cy="838" r="6"/><circle cx="284" cy="817" r="5"/><circle cx="329" cy="862" r="5"/><circle cx="463" cy="860" r="6"/><circle cx="537" cy="870" r="5"/><circle cx="561" cy="831" r="4"/><circle cx="650" cy="821" r="6"/><circle cx="774" cy="823" r="5"/><circle cx="830" cy="838" r="5"/><circle cx="917" cy="812" r="4"/><circle cx="1018" cy="801" r="5"/><circle cx="1072" cy="828" r="6"/><circle cx="1153" cy="821" r="5"/><circle cx="1245" cy="844" r="6"/><circle cx="1341" cy="854" r="5"/><circle cx="1390" cy="852" r="5"/><circle cx="1497" cy="847" r="5"/><circle cx="1561" cy="851" r="5"/><circle cx="1622" cy="808" r="4"/><circle cx="1711" cy="806" r="5"/><circle cx="1806" cy="829" r="6"/><circle cx="1907" cy="823" r="4"/><circle cx="1976" cy="830" r="5"/><circle cx="2015" cy="839" r="5"/><circle cx="2085" cy="814" r="6"/><circle cx="2214" cy="849" r="5"/><circle cx="2275" cy="870" r="4"/><circle cx="2387" cy="859" r="6"/><circle cx="2473" cy="831" r="5"/><circle cx="2518" cy="824" r="4"/><circle cx="47" cy="951" r="4"/><circle cx="86" cy="893" r="4"/><circle cx="164" cy="886" r="5"/><circle cx="263" cy="929" r="5"/><circle cx="379" cy="955" r="4"/><circle cx="465" cy="939" r="5"/><circle cx="515" cy="931" r="6"/><circle cx="599" cy="955" r="5"/><circle cx="700" cy="880" r="5"/><circle cx="733" cy="944" r="5"/><circle cx="825" cy="937" r="6"/><circle cx="889" cy="960" r="4"/><circle cx="977" cy="902" r="5"/><circle cx="1098" cy="936" r="4"/><circle cx="1126" cy="898" r="6"/><circle cx="1200" cy="941" r="5"/><circle cx="1336" cy="932" r="5"/><circle cx="1401" cy="913" r="4"/><circle cx="1479" cy="948" r="4"/><circle cx="1570" cy="919" r="5"/><circle cx="1619" cy="925" r="5"/><circle cx="1722" cy="901" r="5"/><circle cx="1781" cy="917" r="5"/><circle cx="1882" cy="935" r="6"/><circle cx="1984" cy="899" r="6"/><circle cx="2053" cy="952" r="5"/><circle cx="2103" cy="911" r="5"/><circle cx="2229" cy="950" r="5"/><circle cx="2306" cy="899" r="5"/><circle cx="2362" cy="898" r="5"/><circle cx="2446" cy="949" r="4"/><circle cx="2513" cy="921" r="5"/><circle cx="50" cy="978" r="6"/><circle cx="144" cy="984" r="5"/><circle cx="183" cy="1002" r="5"/><circle cx="278" cy="994" r="5"/><circle cx="364" cy="1002" r="5"/><circle cx="413" cy="1037" r="6"/><circle cx="546" cy="992" r="4"/><circle cx="572" cy="1039" r="5"/><circle cx="717" cy="967" r="5"/><circle cx="783" cy="999" r="4"/><circle cx="842" cy="991" r="5"/><circle cx="913" cy="999" r="4"/><circle cx="1037" cy="971" r="5"/><circle cx="1103" cy="1023" r="5"/><circle cx="1169" cy="1012" r="4"/><circle cx="1236" cy="1030" r="5"/><circle cx="1359" cy="1029" r="4"/><circle cx="1431" cy="1002" r="5"/><circle cx="1475" cy="1012" r="4"/><circle cx="1586" cy="992" r="5"/><circle cx="1656" cy="962" r="6"/><circle cx="1738" cy="987" r="5"/><circle cx="1765" cy="994" r="6"/><circle cx="1846" cy="1008" r="5"/><circle cx="1929" cy="1008" r="4"/><circle cx="2026" cy="1029" r="4"/><circle cx="2121" cy="995" r="4"/><circle cx="2231" cy="1028" r="6"/><circle cx="2312" cy="1026" r="4"/><circle cx="2391" cy="984" r="6"/><circle cx="2478" cy="998" r="4"/><circle cx="2524" cy="1019" r="6"/><circle cx="64" cy="1092" r="5"/><circle cx="102" cy="1081" r="5"/><circle cx="175" cy="1097" r="5"/><circle cx="266" cy="1105" r="6"/><circle cx="373" cy="1051" r="5"/><circle cx="474" cy="1055" r="4"/><circle cx="541" cy="1104" r="5"/><circle cx="618" cy="1093" r="6"/><circle cx="685" cy="1088" r="6"/><circle cx="782" cy="1112" r="4"/><circle cx="815" cy="1116" r="5"/><circle cx="940" cy="1117" r="5"/><circle cx="1036" cy="1050" r="4"/><circle cx="1111" cy="1068" r="4"/><circle cx="1196" cy="1094" r="4"/><circle cx="1261" cy="1044" r="5"/><circle cx="1332" cy="1070" r="6"/><circle cx="1424" cy="1090" r="4"/><circle cx="1457" cy="1045" r="4"/><circle cx="1596" cy="1073" r="5"/><circle cx="1624" cy="1078" r="4"/><circle cx="1698" cy="1076" r="5"/><circle cx="1837" cy="1119" r="5"/><circle cx="1903" cy="1091" r="4"/><circle cx="1953" cy="1050" r="5"/><circle cx="2009" cy="1083" r="5"/><circle cx="2099" cy="1111" r="5"/><circle cx="2219" cy="1046" r="6"/><circle cx="2256" cy="1110" r="4"/><circle cx="2359" cy="1114" r="6"/><circle cx="2470" cy="1073" r="4"/><circle cx="2543" cy="1097" r="6"/><circle cx="29" cy="1172" r="5"/><circle cx="129" cy="1188" r="5"/><circle cx="178" cy="1153" r="5"/><circle cx="299" cy="1182" r="6"/><circle cx="389" cy="1189" r="4"/><circle cx="446" cy="1155" r="4"/><circle cx="531" cy="1185" r="6"/><circle cx="596" cy="1196" r="6"/><circle cx="716" cy="1135" r="5"/><circle cx="758" cy="1159" r="6"/><circle cx="878" cy="1189" r="4"/><circle cx="921" cy="1138" r="5"/><circle cx="971" cy="1183" r="5"/><circle cx="1070" cy="1131" r="6"/><circle cx="1186" cy="1121" r="6"/><circle cx="1265" cy="1199" r="5"/><circle cx="1301" cy="1187" r="4"/><circle cx="1395" cy="1180" r="6"/><circle cx="1458" cy="1173" r="6"/><circle cx="1557" cy="1144" r="5"/><circle cx="1615" cy="1141" r="5"/><circle cx="1711" cy="1139" r="5"/><circle cx="1830" cy="1170" r="4"/><circle cx="1910" cy="1128" r="5"/><circle cx="1947" cy="1184" r="4"/><circle cx="2046" cy="1139" r="5"/><circle cx="2090" cy="1187" r="4"/><circle cx="2235" cy="1129" r="5"/><circle cx="2266" cy="1181" r="5"/><circle cx="2386" cy="1133" r="4"/><circle cx="2448" cy="1168" r="5"/><circle cx="2551" cy="1124" r="5"/><circle cx="16" cy="1271" r="4"/><circle cx="135" cy="1280" r="4"/><circle cx="207" cy="1258" r="6"/><circle cx="296" cy="1213" r="5"/><circle cx="370" cy="1266" r="5"/><circle cx="454" cy="1240" r="6"/><circle cx="487" cy="1276" r="6"/><circle cx="564" cy="1237" r="4"/><circle cx="654" cy="1271" r="6"/><circle cx="800" cy="1216" r="6"/><circle cx="873" cy="1228" r="5"/><circle cx="932" cy="1259" r="5"/><circle cx="964" cy="1203" r="6"/><circle cx="1062" cy="1232" r="5"/><circle cx="1162" cy="1277" r="6"/><circle cx="1249" cy="1211" r="5"/><circle cx="1301" cy="1255" r="5"/><circle cx="1376" cy="1256" r="5"/><circle cx="1453" cy="1207" r="4"/><circle cx="1569" cy="1235" r="4"/><circle cx="1679" cy="1261" r="5"/><circle cx="1691" cy="1244" r="5"/><circle cx="1805" cy="1263" r="6"/><circle cx="1879" cy="1211" r="4"/><circle cx="1948" cy="1256" r="5"/><circle cx="2068" cy="1252" r="5"/><circle cx="2158" cy="1236" r="5"/><circle cx="2165" cy="1251" r="5"/><circle cx="2286" cy="1258" r="5"/><circle cx="2328" cy="1232" r="5"/><circle cx="2474" cy="1265" r="5"/><circle cx="2533" cy="1210" r="5"/><circle cx="29" cy="1352" r="6"/><circle cx="142" cy="1338" r="5"/><circle cx="218" cy="1298" r="6"/><circle cx="277" cy="1325" r="4"/><circle cx="375" cy="1342" r="5"/><circle cx="473" cy="1311" r="5"/><circle cx="505" cy="1306" r="6"/><circle cx="610" cy="1349" r="4"/><circle cx="675" cy="1340" r="5"/><circle cx="744" cy="1350" r="5"/><circle cx="853" cy="1355" r="4"/><circle cx="944" cy="1299" r="6"/><circle cx="1017" cy="1358" r="6"/><circle cx="1093" cy="1309" r="6"/><circle cx="1120" cy="1331" r="6"/><circle cx="1241" cy="1347" r="6"/><circle cx="1346" cy="1317" r="5"/><circle cx="1438" cy="1353" r="4"/><circle cx="1458" cy="1358" r="5"/><circle cx="1576" cy="1300" r="5"/><circle cx="1604" cy="1335" r="5"/><circle cx="1698" cy="1331" r="5"/><circle cx="1824" cy="1326" r="4"/><circle cx="1900" cy="1317" r="4"/><circle cx="1978" cy="1314" r="5"/><circle cx="2029" cy="1359" r="4"/><circle cx="2086" cy="1299" r="5"/><circle cx="2211" cy="1323" r="5"/><circle cx="2315" cy="1323" r="5"/><circle cx="2355" cy="1356" r="4"/><circle cx="2467" cy="1359" r="5"/><circle cx="2512" cy="1329" r="5"/><circle cx="57" cy="1411" r="6"/><circle cx="105" cy="1397" r="5"/><circle cx="191" cy="1372" r="5"/><circle cx="316" cy="1398" r="5"/><circle cx="378" cy="1364" r="5"/><circle cx="424" cy="1373" r="5"/><circle cx="501" cy="1424" r="4"/><circle cx="586" cy="1389" r="5"/><circle cx="692" cy="1379" r="5"/><circle cx="778" cy="1425" r="4"/><circle cx="808" cy="1380" r="6"/><circle cx="929" cy="1408" r="5"/><circle cx="969" cy="1417" r="6"/><circle cx="1054" cy="1375" r="5"/><circle cx="1160" cy="1416" r="6"/><circle cx="1278" cy="1437" r="6"/><circle cx="1278" cy="-3" r="6"/><circle cx="1336" cy="1369" r="6"/><circle cx="1420" cy="1412" r="4"/><circle cx="1511" cy="1420" r="5"/><circle cx="1548" cy="1405" r="4"/><circle cx="1620" cy="1433" r="5"/><circle cx="1693" cy="1384" r="6"/><circle cx="1791" cy="1360" r="5"/><circle cx="1915" cy="1424" r="5"/><circle cx="1974" cy="1424" r="5"/><circle cx="2055" cy="1429" r="5"/><circle cx="2121" cy="1417" r="4"/><circle cx="2231" cy="1410" r="4"/><circle cx="2299" cy="1362" r="4"/><circle cx="2370" cy="1391" r="5"/><circle cx="2405" cy="1385" r="5"/><circle cx="2542" cy="1383" r="5"/><path stroke="#fff" d="M30 75L-35 8M30 75L52 85M30 75L83 136M30 75L-77 141M30 75L57 -29M2590 75L2525 8M2590 75L2483 141M30 1515L57 1411M159 74L171 14M159 74L52 85M159 74L199 97M171 14L247 9M171 14L199 97M171 14L105 -43M171 14L191 -68M171 1454L105 1397M171 1454L191 1372M247 9L352 39M247 9L199 97M247 9L191 -68M247 9L316 -42M247 1449L191 1372M247 1449L316 1398M352 39L316 -42M352 39L378 -76M352 1479L316 1398M352 1479L378 1364M460 63L517 7M460 63L437 135M460 63L482 120M460 63L501 -16M460 1503L501 1424M517 7L591 40M517 7L501 -16M517 7L586 -51M517 1447L501 1424M517 1447L586 1389M591 40L659 62M591 40L619 100M591 40L665 90M591 40L586 -51M591 1480L586 1389M659 62L728 14M659 62L619 100M659 62L665 90M728 14L665 90M728 14L692 -61M728 14L778 -15M728 14L808 -60M728 1454L692 1379M728 1454L778 1425M728 1454L808 1380M833 68L863 84M833 68L917 126M833 68L778 -15M833 1508L778 1425M930 60L1015 51M930 60L863 84M930 60L917 126M930 60L929 -32M930 60L969 -23M930 1500L929 1408M930 1500L969 1417M1015 51L1092 10M1015 51L1038 123M1015 51L1087 93M1015 51L969 -23M1015 1491L969 1417M1092 10L1160 39M1092 10L1087 93M1092 10L1054 -65M1092 10L1160 -24M1092 1450L1054 1375M1092 1450L1160 1416M1160 39L1210 72M1160 39L1087 93M1160 39L1135 135M1160 39L1160 -24M1160 1479L1160 1416M1210 72L1298 26M1210 72L1275 106M1210 72L1160 -24M1210 72L1278 -3M1210 1512L1160 1416M1210 1512L1278 1437M1298 26L1275 106M1298 26L1333 82M1298 26L1278 -3M1298 26L1336 -71M1298 1466L1278 1437M1298 1466L1336 1369M1439 8L1511 55M1439 8L1529 30M1439 8L1438 89M1439 8L1420 -28M1439 8L1511 -20M1439 1448L1420 1412M1439 1448L1511 1420M1511 55L1529 30M1511 55L1438 89M1511 55L1579 102M1511 55L1511 -20M1511 1495L1511 1420M1529 30L1579 102M1529 30L1511 -20M1529 30L1548 -35M1529 1470L1511 1420M1529 1470L1548 1405M1667 53L1713 41M1667 53L1579 102M1667 53L1663 150M1667 53L1753 107M1667 53L1620 -7M1667 1493L1620 1433M1713 41L1810 45M1713 41L1753 107M1713 41L1763 126M1713 41L1693 -56M1713 1481L1693 1384M1810 45L1908 14M1810 45L1753 107M1810 45L1763 126M1810 45L1915 -16M1810 1485L1915 1424M1908 14L1971 29M1908 14L1915 -16M1908 14L1974 -16M1908 1454L1915 1424M1908 1454L1974 1424M1971 29L2027 54M1971 29L2023 105M1971 29L1915 -16M1971 29L1974 -16M1971 1469L1915 1424M1971 1469L1974 1424M2027 54L2120 65M2027 54L2023 105M2027 54L1974 -16M2027 54L2055 -11M2027 1494L1974 1424M2027 1494L2055 1429M2120 65L2156 92M2120 65L2167 109M2120 65L2055 -11M2120 65L2121 -23M2120 1505L2055 1429M2120 1505L2121 1417M2203 4L2256 1M2203 4L2156 92M2203 4L2280 89M2203 4L2121 -23M2203 4L2231 -30M2203 1444L2121 1417M2203 1444L2231 1410M2256 1L2280 89M2256 1L2323 85M2256 1L2231 -30M2256 1L2299 -78M2256 1441L2231 1410M2256 1441L2299 1362M2377 51L2438 20M2377 51L2280 89M2377 51L2323 85M2377 51L2370 -49M2377 51L2405 -55M2377 1491L2370 1391M2377 1491L2405 1385M2438 20L2525 8M2438 20L2405 -55M2438 1460L2405 1385M2525 8L2617 -29M2525 8L2542 -57M-35 8L57 -29M-35 1448L57 1411M2525 1448L2617 1411M2525 1448L2542 1383M52 85L83 136M83 136L52 215M83 136L132 174M83 136L165 189M199 97L132 174M310 159L389 144M310 159L245 208M310 159L369 239M310 159L256 253M389 144L437 135M389 144L482 120M389 144L369 239M389 144L410 197M437 135L482 120M437 135L410 197M437 135L495 191M482 120L495 191M619 100L665 90M619 100L575 218M762 159L715 216M762 159L764 210M762 159L834 208M863 84L917 126M917 126L943 173M917 126L984 174M1038 123L1087 93M1038 123L1135 135M1038 123L943 173M1038 123L984 174M1087 93L1135 135M1135 135L1142 192M1275 106L1333 82M1275 106L1292 204M1333 82L1438 89M1333 82L1440 159M1333 82L1278 -3M1333 1522L1278 1437M1438 89L1440 159M1438 89L1505 165M1440 159L1431 214M1440 159L1505 165M1440 159L1542 212M1579 102L1663 150M1579 102L1505 165M1663 150L1753 107M1663 150L1670 195M1663 150L1681 205M1753 107L1763 126M1763 126L1681 205M1763 126L1820 196M1916 142L1932 152M1916 142L2023 105M1916 142L1820 196M1916 142L1868 211M1916 142L1996 187M1932 152L2023 105M1932 152L1868 211M1932 152L1996 187M1932 152L1956 249M2023 105L1996 187M2156 92L2167 109M2156 92L2280 89M2156 92L2100 198M2167 109L2100 198M2280 89L2323 85M2464 117L2483 141M2483 141L2498 220M52 215L132 174M52 215L33 288M52 215L109 258M52 215L-22 281M2612 215L2538 281M132 174L165 189M132 174L109 258M165 189L245 208M165 189L109 258M165 189L256 253M245 208L256 253M369 239L410 197M369 239L399 292M410 197L495 191M410 197L399 292M495 191L575 218M575 218L554 296M715 216L764 210M715 216L712 273M764 210L834 208M764 210L712 273M764 210L836 265M834 208L943 173M834 208L789 305M834 208L836 265M943 173L984 174M943 173L914 292M984 174L1094 232M1094 232L1142 192M1094 232L1038 293M1094 232L1120 277M1094 232L1178 245M1142 192L1245 229M1142 192L1120 277M1142 192L1178 245M1245 229L1292 204M1245 229L1178 245M1245 229L1249 277M1292 204L1249 277M1431 214L1505 165M1431 214L1542 212M1431 214L1418 294M1431 214L1452 312M1505 165L1542 212M1542 212L1563 283M1542 212L1626 248M1670 195L1681 205M1670 195L1626 248M1670 195L1733 254M1681 205L1626 248M1681 205L1733 254M1820 196L1868 211M1820 196L1733 254M1820 196L1765 287M1868 211L1889 319M1868 211L1956 249M1996 187L2075 228M1996 187L1956 249M2075 228L2100 198M2075 228L2133 296M2075 228L2035 338M2100 198L2194 236M2100 198L2133 296M2194 236L2133 296M2194 236L2206 270M2194 236L2284 290M2302 238L2348 208M2302 238L2410 235M2302 238L2206 270M2302 238L2284 290M2302 238L2350 283M2348 208L2410 235M2348 208L2350 283M2348 208L2413 267M2410 235L2498 220M2410 235L2350 283M2410 235L2413 267M2498 220L2593 288M2498 220L2413 267M2498 220L2538 281M-62 220L33 288M33 288L109 258M33 288L-22 281M2593 288L2538 281M109 258L188 310M188 310L256 253M188 310L151 348M188 310L237 344M188 310L251 371M256 253L237 344M399 292L450 309M399 292L385 384M399 292L403 369M450 309L554 296M450 309L403 369M554 296L640 316M554 296L535 380M554 296L566 358M640 316L712 273M640 316L566 358M640 316L680 377M712 273L789 305M712 273L792 325M789 305L836 265M789 305L792 325M789 305L831 373M836 265L914 292M836 265L792 325M914 292L896 377M1038 293L1120 277M1038 293L1046 369M1120 277L1178 245M1120 277L1134 371M1178 245L1249 277M1249 277L1341 309M1249 277L1236 384M1341 309L1418 294M1341 309L1351 332M1341 309L1386 380M1418 294L1452 312M1418 294L1351 332M1452 312L1508 361M1452 312L1538 341M1563 283L1626 248M1563 283L1508 361M1563 283L1538 341M1626 248L1733 254M1733 254L1765 287M1765 287L1762 374M1765 287L1882 343M1889 319L1956 249M1889 319L2003 315M1889 319L1882 343M1889 319L1940 372M1956 249L2003 315M2003 315L1940 372M2003 315L2035 338M2003 315L2031 403M2133 296L2206 270M2133 296L2132 398M2206 270L2284 290M2206 270L2271 355M2284 290L2350 283M2284 290L2271 355M2350 283L2413 267M2413 267L2482 326M2538 281L2478 360M2538 281L2482 326M8 399L-82 360M8 399L9 428M8 399L92 415M8 399L-44 437M2568 399L2478 360M2568 399L2516 437M151 348L237 344M151 348L251 371M151 348L92 415M237 344L251 371M237 344L259 421M251 371L195 465M251 371L259 421M385 384L403 369M385 384L350 427M385 384L450 403M385 384L444 491M403 369L350 427M403 369L450 403M535 380L566 358M535 380L450 403M535 380L497 412M535 380L600 417M566 358L497 412M566 358L600 417M680 377L792 325M680 377L600 417M680 377L644 461M792 325L831 373M831 373L896 377M896 377L982 385M896 377L875 464M896 377L953 447M982 385L1046 369M982 385L953 447M982 385L1039 417M982 385L1053 451M1046 369L1134 371M1046 369L1039 417M1046 369L1053 451M1134 371L1236 384M1134 371L1135 449M1134 371L1225 416M1236 384L1225 416M1236 384L1307 426M1351 332L1386 380M1351 332L1307 426M1351 332L1406 417M1386 380L1307 426M1386 380L1406 417M1386 380L1441 419M1508 361L1538 341M1508 361L1441 419M1508 361L1568 428M1538 341L1621 379M1538 341L1568 428M1621 379L1694 376M1621 379L1568 428M1621 379L1653 433M1694 376L1762 374M1694 376L1653 433M1694 376L1709 442M1762 374L1709 442M1762 374L1781 446M1762 374L1841 412M1882 343L1940 372M1882 343L1841 412M1940 372L2035 338M1940 372L1947 459M2035 338L2031 403M2132 398L2202 384M2132 398L2111 460M2132 398L2206 443M2132 398L2066 481M2202 384L2271 355M2202 384L2206 443M2202 384L2251 470M2271 355L2324 392M2324 392L2375 477M2324 392L2414 432M2324 392L2326 486M2478 360L2482 326M2478 360L2414 432M2478 360L2516 437M9 428L92 415M9 428L-44 437M9 428L-40 482M2569 428L2516 437M2569 428L2520 482M92 415L84 499M195 465L259 421M195 465L84 499M195 465L172 488M195 465L182 589M259 421L350 427M259 421L172 488M350 427L444 491M450 403L497 412M450 403L444 491M497 412L444 491M497 412L555 491M600 417L644 461M600 417L555 491M644 461L555 491M644 461L596 518M644 461L645 510M786 475L875 464M786 475L723 556M786 475L854 554M786 475L766 563M875 464L953 447M875 464L854 554M875 464L942 485M953 447L1039 417M953 447L942 485M1039 417L1053 451M1039 417L1135 449M1053 451L1135 449M1135 449L1225 416M1135 449L1201 523M1225 416L1307 426M1225 416L1201 523M1307 426L1317 484M1406 417L1441 419M1406 417L1317 484M1441 419L1523 493M1568 428L1653 433M1568 428L1523 493M1653 433L1709 442M1653 433L1641 514M1709 442L1781 446M1709 442L1721 499M1781 446L1841 412M1781 446L1721 499M1781 446L1818 507M1841 412L1818 507M1841 412L1911 500M1947 459L2031 403M1947 459L1911 500M1947 459L1964 530M2031 403L2066 481M2111 460L2206 443M2111 460L2066 481M2111 460L2156 535M2206 443L2251 470M2206 443L2202 504M2251 470L2202 504M2251 470L2246 531M2251 470L2326 486M2375 477L2414 432M2375 477L2326 486M2375 477L2428 505M2375 477L2357 570M2414 432L2428 505M2516 437L2520 482M67 532L84 499M67 532L172 488M67 532L5 570M67 532L119 601M84 499L172 488M84 499L5 570M172 488L182 589M292 559L324 528M292 559L293 576M292 559L321 609M324 528L293 576M324 528L321 609M555 491L596 518M555 491L645 510M596 518L645 510M596 518L538 586M596 518L599 596M645 510L723 556M723 556L669 631M723 556L766 563M723 556L832 575M854 554L766 563M854 554L832 575M854 554L933 572M942 485L977 536M942 485L933 572M977 536L933 572M977 536L998 583M977 536L1052 585M1102 552L1200 541M1102 552L1201 523M1102 552L1052 585M1102 552L1168 623M1200 541L1201 523M1200 541L1168 623M1200 541L1206 602M1201 523L1206 602M1317 484L1375 547M1317 484L1346 585M1375 547L1455 560M1375 547L1346 585M1375 547L1370 613M1455 560L1523 493M1455 560L1462 610M1523 493L1567 585M1641 514L1721 499M1641 514L1567 585M1641 514L1641 564M1641 514L1690 593M1721 499L1690 593M1721 499L1763 564M1818 507L1911 500M1818 507L1763 564M1911 500L1964 530M1964 530L1936 613M1964 530L2020 593M2066 481L2084 594M2156 535L2202 504M2156 535L2246 531M2156 535L2084 594M2156 535L2169 596M2202 504L2246 531M2202 504L2169 596M2246 531L2326 486M2246 531L2169 596M2326 486L2357 570M2428 505L2520 482M2428 505L2500 563M2520 482L2565 570M2520 482L2500 563M-40 482L5 570M5 570L-60 563M5 570L54 657M2565 570L2500 563M119 601L182 589M119 601L54 657M119 601L146 667M182 589L293 576M182 589L146 667M293 576L321 609M321 609L414 630M321 609L299 706M414 630L369 693M414 630L420 679M538 586L599 596M538 586L547 669M599 596L669 631M599 596L547 669M599 596L660 674M669 631L615 699M669 631L660 674M766 563L832 575M766 563L780 651M832 575L780 651M832 575L814 643M933 572L998 583M933 572L939 645M998 583L1052 585M998 583L939 645M1052 585L1023 678M1168 623L1206 602M1168 623L1191 687M1168 623L1212 681M1206 602L1191 687M1206 602L1212 681M1346 585L1370 613M1346 585L1404 650M1370 613L1462 610M1370 613L1404 650M1370 613L1370 729M1462 610L1567 585M1462 610L1404 650M1462 610L1495 666M1567 585L1641 564M1567 585L1579 656M1641 564L1690 593M1641 564L1579 656M1641 564L1681 668M1690 593L1763 564M1690 593L1681 668M1763 564L1796 688M1918 631L1936 613M1918 631L2020 593M1918 631L1913 702M1918 631L1990 700M1918 631L1965 724M1936 613L2020 593M1936 613L1913 702M2020 593L2084 594M2020 593L2020 683M2084 594L2169 596M2311 612L2357 570M2311 612L2408 609M2311 612L2294 661M2311 612L2350 645M2357 570L2408 609M2357 570L2350 645M2408 609L2500 563M2408 609L2350 645M2408 609L2436 664M2500 563L2436 664M54 657L-29 700M54 657L129 725M2614 657L2531 700M146 667L191 709M146 667L129 725M146 667L171 735M191 709L299 706M191 709L129 725M191 709L171 735M191 709L279 735M299 706L369 693M299 706L279 735M299 706L284 817M369 693L420 679M369 693L279 735M369 693L400 761M420 679L400 761M420 679L432 793M547 669L615 699M547 669L660 674M547 669L573 757M615 699L660 674M615 699L573 757M615 699L696 766M660 674L696 766M780 651L814 643M780 651L765 753M814 643L877 728M939 645L1023 678M939 645L944 729M1023 678L1118 704M1023 678L944 729M1023 678L988 728M1118 704L1191 687M1118 704L1212 681M1118 704L1126 733M1191 687L1212 681M1191 687L1126 733M1212 681L1265 734M1359 718L1404 650M1359 718L1265 734M1359 718L1331 737M1359 718L1370 729M1404 650L1370 729M1495 666L1579 656M1495 666L1501 753M1579 656L1608 689M1579 656L1602 738M1608 689L1681 668M1608 689L1589 765M1608 689L1602 738M1681 668L1697 761M1796 688L1801 789M1913 702L1990 700M1913 702L1879 773M1913 702L1965 724M1990 700L2020 683M1990 700L1965 724M1990 700L2007 765M2020 683L2089 711M2020 683L1965 724M2089 711L2128 771M2089 711L2185 761M2230 711L2294 661M2230 711L2128 771M2230 711L2185 761M2230 711L2319 727M2294 661L2350 645M2294 661L2319 727M2350 645L2436 664M2436 664L2531 700M2531 700L2565 789M2531 700L2542 799M-29 700L5 789M5 789L-18 799M5 789L12 829M5 789L-42 824M2565 789L2542 799M2565 789L2518 824M129 725L171 735M129 725L161 838M171 735L279 735M171 735L161 838M279 735L284 817M400 761L432 793M400 761L284 817M432 793L538 790M432 793L463 860M538 790L573 757M538 790L463 860M538 790L537 870M538 790L561 831M573 757L561 831M573 757L650 821M696 766L765 753M696 766L650 821M696 766L774 823M765 753L877 728M765 753L774 823M765 753L830 838M877 728L944 729M877 728L988 728M877 728L917 812M944 729L988 728M944 729L917 812M988 728L1050 792M988 728L1018 801M1050 792L1126 733M1050 792L1018 801M1050 792L1072 828M1050 792L1153 821M1126 733L1072 828M1126 733L1153 821M1265 734L1331 737M1265 734L1370 729M1265 734L1245 844M1331 737L1370 729M1331 737L1341 854M1331 737L1390 852M1501 753L1589 765M1501 753L1497 847M1589 765L1602 738M1589 765L1561 851M1589 765L1622 808M1602 738L1697 761M1602 738L1622 808M1697 761L1801 789M1697 761L1622 808M1697 761L1711 806M1801 789L1879 773M1801 789L1711 806M1801 789L1806 829M1879 773L1806 829M1879 773L1907 823M1965 724L2007 765M2007 765L1976 830M2007 765L2015 839M2007 765L2085 814M2128 771L2185 761M2128 771L2085 814M2128 771L2214 849M2185 761L2214 849M2319 727L2363 787M2363 787L2432 799M2363 787L2387 859M2432 799L2387 859M2432 799L2473 831M2432 799L2518 824M2542 799L2572 829M2542 799L2473 831M2542 799L2518 824M-18 799L12 829M12 829L-87 831M12 829L-42 824M2572 829L2473 831M2572 829L2518 824M123 846L161 838M123 846L86 893M123 846L164 886M161 838L86 893M161 838L164 886M284 817L329 862M284 817L263 929M329 862L263 929M463 860L537 870M463 860L465 939M463 860L515 931M537 870L561 831M537 870L465 939M537 870L515 931M561 831L650 821M650 821L774 823M650 821L700 880M774 823L830 838M774 823L700 880M830 838L917 812M830 838L825 937M917 812L1018 801M917 812L977 902M1018 801L1072 828M1018 801L977 902M1072 828L1153 821M1072 828L1126 898M1153 821L1245 844M1153 821L1126 898M1245 844L1341 854M1245 844L1200 941M1341 854L1390 852M1341 854L1336 932M1341 854L1401 913M1390 852L1497 847M1390 852L1336 932M1390 852L1401 913M1497 847L1561 851M1497 847L1479 948M1497 847L1570 919M1561 851L1622 808M1561 851L1570 919M1561 851L1619 925M1622 808L1711 806M1711 806L1806 829M1711 806L1722 901M1806 829L1781 917M1907 823L1976 830M1907 823L1984 899M1976 830L2015 839M1976 830L2085 814M1976 830L1984 899M2015 839L2085 814M2015 839L1984 899M2015 839L2103 911M2085 814L2103 911M2214 849L2275 870M2214 849L2229 950M2214 849L2306 899M2275 870L2229 950M2275 870L2306 899M2275 870L2362 898M2387 859L2473 831M2387 859L2306 899M2387 859L2362 898M2473 831L2518 824M47 951L86 893M47 951L-47 921M47 951L50 978M47 951L144 984M2607 951L2513 921M86 893L164 886M86 893L50 978M164 886L263 929M164 886L144 984M263 929L183 1002M263 929L278 994M379 955L465 939M379 955L364 1002M379 955L413 1037M379 955L373 1051M465 939L515 931M465 939L413 1037M515 931L599 955M515 931L546 992M599 955L700 880M599 955L546 992M599 955L572 1039M599 955L717 967M700 880L733 944M700 880L717 967M733 944L825 937M733 944L717 967M733 944L783 999M733 944L842 991M825 937L889 960M825 937L783 999M825 937L842 991M889 960L977 902M889 960L842 991M889 960L913 999M977 902L913 999M977 902L1037 971M1098 936L1126 898M1098 936L1200 941M1098 936L1037 971M1098 936L1103 1023M1126 898L1200 941M1126 898L1037 971M1200 941L1169 1012M1200 941L1236 1030M1336 932L1401 913M1336 932L1359 1029M1401 913L1479 948M1479 948L1431 1002M1479 948L1475 1012M1570 919L1619 925M1570 919L1586 992M1570 919L1656 962M1619 925L1586 992M1619 925L1656 962M1722 901L1781 917M1722 901L1656 962M1722 901L1738 987M1722 901L1765 994M1781 917L1882 935M1781 917L1738 987M1781 917L1765 994M1882 935L1984 899M1882 935L1846 1008M1882 935L1929 1008M1984 899L2053 952M2053 952L2103 911M2053 952L2026 1029M2053 952L2121 995M2103 911L2121 995M2229 950L2306 899M2229 950L2231 1028M2229 950L2219 1046M2306 899L2362 898M2362 898L2446 949M2362 898L2391 984M2446 949L2513 921M2446 949L2391 984M2446 949L2478 998M2513 921L2610 978M2513 921L2478 998M2513 921L2524 1019M-47 921L50 978M50 978L144 984M50 978L-36 1019M2610 978L2524 1019M144 984L183 1002M144 984L102 1081M183 1002L278 994M183 1002L175 1097M278 994L364 1002M278 994L266 1105M278 994L373 1051M364 1002L413 1037M364 1002L373 1051M413 1037L373 1051M413 1037L474 1055M546 992L572 1039M546 992L474 1055M572 1039L474 1055M572 1039L541 1104M572 1039L618 1093M717 967L783 999M717 967L685 1088M783 999L842 991M842 991L913 999M1037 971L1103 1023M1037 971L1036 1050M1103 1023L1169 1012M1103 1023L1036 1050M1103 1023L1111 1068M1169 1012L1236 1030M1169 1012L1111 1068M1169 1012L1196 1094M1236 1030L1196 1094M1236 1030L1261 1044M1236 1030L1332 1070M1359 1029L1431 1002M1359 1029L1261 1044M1359 1029L1332 1070M1431 1002L1475 1012M1431 1002L1424 1090M1431 1002L1457 1045M1475 1012L1457 1045M1586 992L1656 962M1586 992L1596 1073M1586 992L1624 1078M1656 962L1738 987M1738 987L1765 994M1738 987L1698 1076M1765 994L1846 1008M1765 994L1698 1076M1846 1008L1929 1008M1846 1008L1837 1119M1846 1008L1903 1091M1929 1008L2026 1029M1929 1008L1903 1091M1929 1008L1953 1050M2026 1029L1953 1050M2026 1029L2009 1083M2121 995L2099 1111M2231 1028L2312 1026M2231 1028L2219 1046M2231 1028L2256 1110M2231 1028L2235 1129M2312 1026L2391 984M2312 1026L2219 1046M2312 1026L2359 1114M2391 984L2478 998M2478 998L2524 1019M2478 998L2470 1073M2524 1019L2470 1073M2524 1019L2543 1097M64 1092L102 1081M64 1092L-17 1097M64 1092L29 1172M64 1092L-9 1124M2624 1092L2543 1097M2624 1092L2551 1124M102 1081L175 1097M102 1081L178 1153M175 1097L266 1105M175 1097L129 1188M175 1097L178 1153M266 1105L178 1153M266 1105L299 1182M266 1105L296 1213M373 1051L474 1055M474 1055L541 1104M541 1104L618 1093M541 1104L531 1185M541 1104L596 1196M618 1093L685 1088M618 1093L596 1196M618 1093L716 1135M685 1088L782 1112M685 1088L716 1135M685 1088L758 1159M782 1112L815 1116M782 1112L716 1135M782 1112L758 1159M782 1112L800 1216M815 1116L716 1135M815 1116L758 1159M815 1116L800 1216M940 1117L921 1138M940 1117L971 1183M940 1117L964 1203M1036 1050L1111 1068M1036 1050L1070 1131M1111 1068L1070 1131M1111 1068L1186 1121M1196 1094L1261 1044M1196 1094L1186 1121M1261 1044L1332 1070M1261 1044L1186 1121M1332 1070L1424 1090M1424 1090L1457 1045M1424 1090L1395 1180M1424 1090L1458 1173M1596 1073L1624 1078M1596 1073L1698 1076M1596 1073L1557 1144M1596 1073L1615 1141M1624 1078L1698 1076M1624 1078L1557 1144M1624 1078L1615 1141M1698 1076L1711 1139M1837 1119L1903 1091M1837 1119L1830 1170M1837 1119L1910 1128M1903 1091L1953 1050M1903 1091L1910 1128M1953 1050L2009 1083M1953 1050L1910 1128M2009 1083L2099 1111M2009 1083L2046 1139M2099 1111L2046 1139M2099 1111L2090 1187M2219 1046L2256 1110M2219 1046L2235 1129M2256 1110L2359 1114M2256 1110L2235 1129M2256 1110L2266 1181M2359 1114L2266 1181M2359 1114L2386 1133M2359 1114L2448 1168M2470 1073L2543 1097M2470 1073L2448 1168M2470 1073L2551 1124M2543 1097L2589 1172M2543 1097L2551 1124M-17 1097L29 1172M29 1172L129 1188M29 1172L-9 1124M29 1172L-27 1210M2589 1172L2551 1124M2589 1172L2533 1210M129 1188L178 1153M129 1188L135 1280M129 1188L207 1258M299 1182L389 1189M299 1182L296 1213M389 1189L446 1155M389 1189L296 1213M389 1189L370 1266M389 1189L454 1240M531 1185L596 1196M531 1185L454 1240M531 1185L487 1276M531 1185L564 1237M596 1196L564 1237M596 1196L654 1271M716 1135L758 1159M758 1159L800 1216M878 1189L921 1138M878 1189L800 1216M878 1189L873 1228M878 1189L932 1259M921 1138L971 1183M921 1138L964 1203M971 1183L1070 1131M971 1183L932 1259M971 1183L964 1203M1070 1131L1186 1121M1070 1131L1062 1232M1186 1121L1265 1199M1265 1199L1301 1187M1265 1199L1249 1211M1265 1199L1301 1255M1301 1187L1395 1180M1301 1187L1249 1211M1301 1187L1301 1255M1395 1180L1458 1173M1395 1180L1376 1256M1395 1180L1453 1207M1458 1173L1557 1144M1458 1173L1376 1256M1458 1173L1453 1207M1557 1144L1615 1141M1557 1144L1569 1235M1615 1141L1711 1139M1615 1141L1569 1235M1711 1139L1830 1170M1711 1139L1691 1244M1830 1170L1805 1263M1830 1170L1879 1211M1910 1128L1947 1184M1910 1128L1879 1211M1947 1184L2046 1139M1947 1184L1879 1211M1947 1184L1948 1256M2046 1139L2090 1187M2090 1187L2068 1252M2090 1187L2158 1236M2090 1187L2165 1251M2235 1129L2266 1181M2266 1181L2286 1258M2266 1181L2328 1232M2386 1133L2448 1168M2386 1133L2328 1232M2448 1168L2474 1265M2448 1168L2533 1210M2551 1124L2533 1210M16 1271L-86 1265M16 1271L-27 1210M16 1271L29 1352M16 1271L-48 1329M2576 1271L2474 1265M2576 1271L2533 1210M2576 1271L2512 1329M135 1280L207 1258M135 1280L142 1338M135 1280L218 1298M207 1258L296 1213M207 1258L218 1298M207 1258L277 1325M296 1213L370 1266M370 1266L375 1342M370 1266L378 1364M454 1240L487 1276M454 1240L473 1311M454 1240L505 1306M487 1276L564 1237M487 1276L473 1311M487 1276L505 1306M564 1237L654 1271M564 1237L505 1306M654 1271L610 1349M654 1271L675 1340M800 1216L873 1228M873 1228L932 1259M873 1228L944 1299M932 1259L964 1203M932 1259L944 1299M964 1203L944 1299M1062 1232L1162 1277M1062 1232L1093 1309M1162 1277L1249 1211M1162 1277L1093 1309M1162 1277L1120 1331M1162 1277L1241 1347M1249 1211L1301 1255M1301 1255L1376 1256M1301 1255L1346 1317M1376 1256L1453 1207M1376 1256L1346 1317M1569 1235L1576 1300M1679 1261L1691 1244M1679 1261L1576 1300M1679 1261L1698 1331M1691 1244L1698 1331M1805 1263L1879 1211M1805 1263L1824 1326M1805 1263L1900 1317M1805 1263L1791 1360M1879 1211L1948 1256M1948 1256L1900 1317M1948 1256L1978 1314M2068 1252L2158 1236M2068 1252L2165 1251M2068 1252L2086 1299M2158 1236L2165 1251M2158 1236L2086 1299M2158 1236L2211 1323M2165 1251L2086 1299M2165 1251L2211 1323M2286 1258L2328 1232M2286 1258L2211 1323M2286 1258L2315 1323M2328 1232L2315 1323M2474 1265L2533 1210M2474 1265L2467 1359M2474 1265L2512 1329M29 1352L-48 1329M29 1352L57 1411M29 1352L105 1397M29 1352L-18 1383M2589 1352L2512 1329M2589 1352L2542 1383M142 1338L218 1298M142 1338L105 1397M142 1338L191 1372M218 1298L277 1325M218 1298L191 1372M277 1325L316 1398M375 1342L473 1311M375 1342L316 1398M375 1342L378 1364M375 1342L424 1373M473 1311L505 1306M473 1311L424 1373M505 1306L424 1373M610 1349L675 1340M610 1349L586 1389M610 1349L692 1379M675 1340L744 1350M675 1340L692 1379M744 1350L853 1355M744 1350L692 1379M744 1350L778 1425M744 1350L808 1380M853 1355L808 1380M853 1355L929 1408M944 1299L1017 1358M1017 1358L1093 1309M1017 1358L1120 1331M1017 1358L969 1417M1017 1358L1054 1375M1093 1309L1120 1331M1093 1309L1054 1375M1120 1331L1054 1375M1120 1331L1160 1416M1241 1347L1346 1317M1241 1347L1160 1416M1241 1347L1278 1437M1241 1347L1336 1369M1346 1317L1438 1353M1346 1317L1336 1369M1438 1353L1458 1358M1438 1353L1420 1412M1458 1358L1420 1412M1458 1358L1511 1420M1458 1358L1548 1405M1576 1300L1604 1335M1604 1335L1698 1331M1604 1335L1548 1405M1604 1335L1620 1433M1604 1335L1693 1384M1698 1331L1693 1384M1698 1331L1791 1360M1824 1326L1900 1317M1824 1326L1791 1360M1900 1317L1978 1314M1900 1317L1915 1424M1978 1314L2029 1359M1978 1314L2086 1299M2029 1359L2086 1299M2029 1359L2055 1429M2029 1359L2121 1417M2211 1323L2231 1410M2315 1323L2355 1356M2315 1323L2299 1362M2315 1323L2370 1391M2355 1356L2299 1362M2355 1356L2370 1391M2355 1356L2405 1385M2467 1359L2512 1329M2467 1359L2405 1385M2467 1359L2542 1383M2512 1329L2542 1383M57 1411L105 1397M57 1411L-18 1383M2617 1411L2542 1383M105 1397L191 1372M316 1398L378 1364M378 1364L424 1373M424 1373L501 1424M501 1424L586 1389M692 1379L778 1425M778 1425L808 1380M808 1380L929 1408M929 1408L969 1417M969 1417L1054 1375M1278 1437L1336 1369M1336 1369L1420 1412M1511 1420L1548 1405M1548 1405L1620 1433M1620 1433L1693 1384M1693 1384L1791 1360M1915 1424L1974 1424M1974 1424L2055 1429M2055 1429L2121 1417M2121 1417L2231 1410M2231 1410L2299 1362M2299 1362L2370 1391M2370 1391L2405 1385"/></svg>