<svg xmlns="http://www.w3.org/2000/svg" width="2560" height="1440" fill="#fff"><circle cx="28" cy="18" r="5"/><circle cx="111" cy="67" r="4"/><circle cx="215" cy="22" r="4"/><circle cx="279" cy="29" r="5"/><circle cx="380" cy="68" r="4"/><circle cx="433" cy="28" r="5"/><circle cx="552" cy="47" r="4"/><circle cx="595" cy="7" r="6"/><circle cx="671" cy="35" r="4"/><circle cx="768" cy="9" r="4"/><circle cx="821" cy="24" r="4"/><circle cx="917" cy="42" r="6"/><circle cx="992" cy="45" r="4"/><circle cx="1066" cy="6" r="6"/><circle cx="1147" cy="3" r="5"/><circle cx="1147" cy="1443" r="5"/><circle cx="1236" cy="40" r="6"/><circle cx="1289" cy="40" r="5"/><circle cx="1397" cy="30" r="6"/><circle cx="1499" cy="11" r="4"/><circle cx="1568" cy="2" r="5"/><circle cx="1568" cy="1442" r="5"/><circle cx="1671" cy="39" r="6"/><circle cx="1701" cy="73" r="4"/><circle cx="1769" cy="1" r="6"/><circle cx="1769" cy="1441" r="6"/><circle cx="1905" cy="29" r="5"/><circle cx="1934" cy="13" r="4"/><circle cx="2047" cy="13" r="6"/><circle cx="2080" cy="31" r="4"/><circle cx="2230" cy="22" r="4"/><circle cx="2318" cy="41" r="5"/><circle cx="2345" cy="3" r="5"/><circle cx="2345" cy="1443" r="5"/><circle cx="2431" cy="37" r="5"/><circle cx="2537" cy="41" r="6"/><circle cx="7" cy="108" r="4"/><circle cx="123" cy="111" r="4"/><circle cx="209" cy="91" r="5"/><circle cx="309" cy="112" r="5"/><circle cx="356" cy="83" r="4"/><circle cx="469" cy="131" r="5"/><circle cx="485" cy="84" r="6"/><circle cx="577" cy="99" r="6"/><circle cx="685" cy="156" r="5"/><circle cx="785" cy="107" r="5"/><circle cx="810" cy="159" r="5"/><circle cx="897" cy="96" r="6"/><circle cx="1001" cy="154" r="4"/><circle cx="1118" cy="143" r="5"/><circle cx="1200" cy="143" r="5"/><circle cx="1215" cy="117" r="4"/><circle cx="1317" cy="159" r="5"/><circle cx="1366" cy="137" r="6"/><circle cx="1442" cy="111" r="5"/><circle cx="1576" cy="83" r="5"/><circle cx="1666" cy="91" r="5"/><circle cx="1687" cy="93" r="6"/><circle cx="1836" cy="121" r="5"/><circle cx="1890" cy="87" r="5"/><circle cx="1961" cy="113" r="6"/><circle cx="2014" cy="91" r="5"/><circle cx="2134" cy="129" r="5"/><circle cx="2234" cy="94" r="5"/><circle cx="2291" cy="131" r="4"/><circle cx="2338" cy="113" r="4"/><circle cx="2450" cy="142" r="6"/><circle cx="2518" cy="118" r="5"/><circle cx="28" cy="237" r="4"/><circle cx="90" cy="224" r="5"/><circle cx="197" cy="186" r="6"/><circle cx="270" cy="222" r="4"/><circle cx="345" cy="238" r="5"/><circle cx="405" cy="198" r="6"/><circle cx="483" cy="211" r="5"/><circle cx="574" cy="201" r="5"/><circle cx="668" cy="171" r="4"/><circle cx="747" cy="195" r="4"/><circle cx="838" cy="219" r="4"/><circle cx="950" cy="238" r="5"/><circle cx="987" cy="162" r="5"/><circle cx="1091" cy="223" r="4"/><circle cx="1157" cy="199" r="6"/><circle cx="1234" cy="187" r="5"/><circle cx="1354" cy="216" r="6"/><circle cx="1393" cy="168" r="4"/><circle cx="1515" cy="180" r="5"/><circle cx="1560" cy="237" r="6"/><circle cx="1652" cy="216" r="6"/><circle cx="1708" cy="210" r="5"/><circle cx="1766" cy="208" r="5"/><circle cx="1908" cy="234" r="6"/><circle cx="1942" cy="212" r="6"/><circle cx="2001" cy="233" r="5"/><circle cx="2155" cy="232" r="6"/><circle cx="2210" cy="195" r="6"/><circle cx="2288" cy="209" r="5"/><circle cx="2325" cy="225" r="6"/><circle cx="2460" cy="201" r="5"/><circle cx="2526" cy="214" r="6"/><circle cx="6" cy="299" r="6"/><circle cx="87" cy="265" r="5"/><circle cx="172" cy="283" r="6"/><circle cx="249" cy="261" r="4"/><circle cx="362" cy="255" r="5"/><circle cx="453" cy="301" r="6"/><circle cx="510" cy="301" r="5"/><circle cx="618" cy="302" r="4"/><circle cx="664" cy="241" r="5"/><circle cx="732" cy="253" r="5"/><circle cx="811" cy="297" r="6"/><circle cx="904" cy="262" r="5"/><circle cx="978" cy="273" r="4"/><circle cx="1041" cy="297" r="5"/><circle cx="1167" cy="298" r="5"/><circle cx="1248" cy="282" r="4"/><circle cx="1329" cy="266" r="5"/><circle cx="1400" cy="309" r="5"/><circle cx="1508" cy="242" r="6"/><circle cx="1534" cy="283" r="5"/><circle cx="1610" cy="317" r="4"/><circle cx="1681" cy="309" r="5"/><circle cx="1833" cy="316" r="4"/><circle cx="1899" cy="287" r="6"/><circle cx="1951" cy="282" r="5"/><circle cx="2027" cy="287" r="6"/><circle cx="2082" cy="246" r="5"/><circle cx="2202" cy="260" r="5"/><circle cx="2275" cy="281" r="4"/><circle cx="2359" cy="275" r="5"/><circle cx="2428" cy="319" r="5"/><circle cx="2519" cy="258" r="4"/><circle cx="21" cy="331" r="5"/><circle cx="90" cy="322" r="5"/><circle cx="183" cy="330" r="5"/><circle cx="312" cy="365" r="5"/><circle cx="396" cy="344" r="6"/><circle cx="450" cy="324" r="6"/><circle cx="487" cy="375" r="6"/><circle cx="630" cy="373" r="5"/><circle cx="688" cy="355" r="6"/><circle cx="769" cy="376" r="5"/><circle cx="852" cy="367" r="5"/><circle cx="912" cy="374" r="4"/><circle cx="1029" cy="386" r="5"/><circle cx="1069" cy="382" r="5"/><circle cx="1138" cy="350" r="6"/><circle cx="1260" cy="371" r="4"/><circle cx="1345" cy="374" r="4"/><circle cx="1428" cy="359" r="6"/><circle cx="1475" cy="398" r="5"/><circle cx="1578" cy="359" r="5"/><circle cx="1669" cy="345" r="5"/><circle cx="1727" cy="365" r="5"/><circle cx="1770" cy="381" r="4"/><circle cx="1901" cy="374" r="6"/><circle cx="1932" cy="352" r="5"/><circle cx="2065" cy="368" r="6"/><circle cx="2139" cy="360" r="6"/><circle cx="2180" cy="348" r="6"/><circle cx="2241" cy="400" r="4"/><circle cx="2363" cy="358" r="5"/><circle cx="2445" cy="371" r="5"/><circle cx="2535" cy="370" r="6"/><circle cx="36" cy="409" r="4"/><circle cx="108" cy="432" r="4"/><circle cx="239" cy="443" r="5"/><circle cx="261" cy="412" r="4"/><circle cx="332" cy="457" r="5"/><circle cx="420" cy="415" r="6"/><circle cx="528" cy="472" r="6"/><circle cx="587" cy="410" r="4"/><circle cx="652" cy="473" r="5"/><circle cx="784" cy="473" r="6"/><circle cx="864" cy="441" r="5"/><circle cx="899" cy="441" r="6"/><circle cx="999" cy="411" r="6"/><circle cx="1079" cy="472" r="5"/><circle cx="1130" cy="476" r="4"/><circle cx="1244" cy="460" r="5"/><circle cx="1323" cy="468" r="5"/><circle cx="1385" cy="442" r="5"/><circle cx="1511" cy="429" r="4"/><circle cx="1529" cy="457" r="6"/><circle cx="1615" cy="463" r="5"/><circle cx="1758" cy="440" r="6"/><circle cx="1776" cy="423" r="6"/><circle cx="1899" cy="432" r="5"/><circle cx="1955" cy="466" r="4"/><circle cx="2048" cy="449" r="6"/><circle cx="2118" cy="479" r="4"/><circle cx="2168" cy="457" r="5"/><circle cx="2277" cy="457" r="6"/><circle cx="2356" cy="455" r="4"/><circle cx="2406" cy="409" r="4"/><circle cx="2509" cy="426" r="5"/><circle cx="62" cy="545" r="5"/><circle cx="113" cy="516" r="5"/><circle cx="207" cy="481" r="6"/><circle cx="277" cy="533" r="5"/><circle cx="380" cy="490" r="4"/><circle cx="424" cy="501" r="5"/><circle cx="501" cy="488" r="5"/><circle cx="638" cy="547" r="6"/><circle cx="707" cy="489" r="5"/><circle cx="767" cy="509" r="5"/><circle cx="834" cy="537" r="4"/><circle cx="938" cy="505" r="5"/><circle cx="982" cy="503" r="4"/><circle cx="1103" cy="482" r="5"/><circle cx="1175" cy="542" r="6"/><circle cx="1261" cy="505" r="4"/><circle cx="1323" cy="483" r="4"/><circle cx="1373" cy="556" r="5"/><circle cx="1478" cy="481" r="5"/><circle cx="1530" cy="515" r="4"/><circle cx="1649" cy="523" r="4"/><circle cx="1756" cy="543" r="5"/><circle cx="1764" cy="487" r="6"/><circle cx="1906" cy="543" r="5"/><circle cx="1921" cy="534" r="5"/><circle cx="2009" cy="494" r="5"/><circle cx="2149" cy="537" r="5"/><circle cx="2184" cy="547" r="6"/><circle cx="2306" cy="541" r="5"/><circle cx="2343" cy="512" r="6"/><circle cx="2437" cy="539" r="6"/><circle cx="2534" cy="534" r="4"/><circle cx="9" cy="632" r="6"/><circle cx="106" cy="573" r="6"/><circle cx="215" cy="562" r="5"/><circle cx="282" cy="602" r="5"/><circle cx="391" cy="576" r="6"/><circle cx="437" cy="596" r="5"/><circle cx="535" cy="615" r="5"/><circle cx="591" cy="603" r="6"/><circle cx="679" cy="617" r="6"/><circle cx="733" cy="614" r="4"/><circle cx="849" cy="625" r="5"/><circle cx="931" cy="574" r="6"/><circle cx="989" cy="616" r="5"/><circle cx="1101" cy="639" r="6"/><circle cx="1188" cy="609" r="5"/><circle cx="1202" cy="562" r="6"/><circle cx="1337" cy="613" r="4"/><circle cx="1424" cy="570" r="5"/><circle cx="1452" cy="576" r="6"/><circle cx="1552" cy="583" r="5"/><circle cx="1676" cy="591" r="6"/><circle cx="1710" cy="587" r="4"/><circle cx="1796" cy="598" r="4"/><circle cx="1886" cy="563" r="5"/><circle cx="1987" cy="574" r="6"/><circle cx="2035" cy="603" r="5"/><circle cx="2157" cy="602" r="6"/><circle cx="2229" cy="623" r="6"/><circle cx="2300" cy="603" r="6"/><circle cx="2393" cy="601" r="5"/><circle cx="2410" cy="601" r="4"/><circle cx="2492" cy="588" r="4"/><circle cx="59" cy="712" r="4"/><circle cx="156" cy="695" r="4"/><circle cx="214" cy="641" r="5"/><circle cx="281" cy="716" r="4"/><circle cx="364" cy="658" r="4"/><circle cx="439" cy="699" r="5"/><circle cx="518" cy="660" r="5"/><circle cx="578" cy="652" r="5"/><circle cx="658" cy="661" r="5"/><circle cx="735" cy="660" r="6"/><circle cx="857" cy="693" r="5"/><circle cx="903" cy="706" r="4"/><circle cx="973" cy="672" r="6"/><circle cx="1118" cy="660" r="4"/><circle cx="1123" cy="680" r="5"/><circle cx="1257" cy="720" r="5"/><circle cx="1301" cy="676" r="6"/><circle cx="1379" cy="711" r="6"/><circle cx="1473" cy="667" r="5"/><circle cx="1588" cy="662" r="5"/><circle cx="1654" cy="692" r="5"/><circle cx="1740" cy="690" r="6"/><circle cx="1788" cy="690" r="6"/><circle cx="1909" cy="708" r="6"/><circle cx="1987" cy="711" r="4"/><circle cx="2077" cy="642" r="6"/><circle cx="2138" cy="720" r="4"/><circle cx="2238" cy="648" r="4"/><circle cx="2314" cy="643" r="6"/><circle cx="2373" cy="714" r="5"/><circle cx="2454" cy="698" r="4"/><circle cx="2555" cy="659" r="5"/><circle cx="-5" cy="659" r="5"/><circle cx="46" cy="732" r="5"/><circle cx="141" cy="744" r="4"/><circle cx="185" cy="730" r="5"/><circle cx="282" cy="768" r="6"/><circle cx="349" cy="747" r="5"/><circle cx="410" cy="736" r="4"/><circle cx="554" cy="726" r="4"/><circle cx="613" cy="787" r="5"/><circle cx="668" cy="728" r="6"/><circle cx="752" cy="740" r="5"/><circle cx="854" cy="760" r="6"/><circle cx="888" cy="742" r="5"/><circle cx="1008" cy="795" r="6"/><circle cx="1087" cy="798" r="4"/><circle cx="1126" cy="730" r="6"/><circle cx="1245" cy="784" r="5"/><circle cx="1315" cy="781" r="6"/><circle cx="1392" cy="738" r="5"/><circle cx="1476" cy="771" r="5"/><circle cx="1568" cy="742" r="5"/><circle cx="1625" cy="769" r="5"/><circle cx="1722" cy="747" r="5"/><circle cx="1791" cy="743" r="5"/><circle cx="1907" cy="728" r="6"/><circle cx="1986" cy="799" r="6"/><circle cx="2057" cy="776" r="5"/><circle cx="2148" cy="771" r="5"/><circle cx="2181" cy="785" r="4"/><circle cx="2299" cy="768" r="4"/><circle cx="2376" cy="779" r="4"/><circle cx="2437" cy="731" r="5"/><circle cx="2522" cy="787" r="5"/><circle cx="26" cy="807" r="5"/><circle cx="126" cy="868" r="4"/><circle cx="236" cy="849" r="4"/><circle cx="305" cy="814" r="5"/><circle cx="395" cy="862" r="6"/><circle cx="474" cy="810" r="5"/><circle cx="508" cy="850" r="5"/><circle cx="631" cy="860" r="5"/><circle cx="718" cy="818" r="6"/><circle cx="767" cy="817" r="5"/><circle cx="855" cy="806" r="5"/><circle cx="905" cy="824" r="5"/><circle cx="1018" cy="831" r="5"/><circle cx="1085" cy="873" r="5"/><circle cx="1145" cy="851" r="5"/><circle cx="1267" cy="855" r="6"/><circle cx="1303" cy="865" r="5"/><circle cx="1393" cy="806" r="6"/><circle cx="1464" cy="845" r="5"/><circle cx="1527" cy="861" r="5"/><circle cx="1601" cy="871" r="5"/><circle cx="1729" cy="864" r="5"/><circle cx="1808" cy="877" r="5"/><circle cx="1896" cy="853" r="5"/><circle cx="1967" cy="859" r="5"/><circle cx="2049" cy="844" r="4"/><circle cx="2155" cy="843" r="5"/><circle cx="2224" cy="849" r="5"/><circle cx="2255" cy="823" r="4"/><circle cx="2337" cy="828" r="5"/><circle cx="2442" cy="832" r="5"/><circle cx="2519" cy="826" r="6"/><circle cx="40" cy="885" r="5"/><circle cx="131" cy="893" r="5"/><circle cx="202" cy="933" r="5"/><circle cx="254" cy="927" r="6"/><circle cx="391" cy="911" r="5"/><circle cx="466" cy="950" r="5"/><circle cx="515" cy="949" r="4"/><circle cx="601" cy="921" r="6"/><circle cx="671" cy="952" r="4"/><circle cx="723" cy="937" r="4"/><circle cx="817" cy="934" r="4"/><circle cx="958" cy="920" r="5"/><circle cx="1034" cy="915" r="5"/><circle cx="1082" cy="916" r="5"/><circle cx="1130" cy="959" r="5"/><circle cx="1252" cy="934" r="6"/><circle cx="1345" cy="954" r="5"/><circle cx="1370" cy="938" r="5"/><circle cx="1485" cy="930" r="6"/><circle cx="1536" cy="905" r="5"/><circle cx="1612" cy="907" r="6"/><circle cx="1740" cy="905" r="5"/><circle cx="1767" cy="953" r="5"/><circle cx="1884" cy="925" r="6"/><circle cx="1960" cy="910" r="4"/><circle cx="2022" cy="898" r="6"/><circle cx="2117" cy="897" r="5"/><circle cx="2198" cy="909" r="5"/><circle cx="2245" cy="926" r="5"/><circle cx="2333" cy="901" r="5"/><circle cx="2455" cy="944" r="5"/><circle cx="2540" cy="925" r="5"/><circle cx="43" cy="993" r="5"/><circle cx="137" cy="996" r="6"/><circle cx="205" cy="993" r="5"/><circle cx="260" cy="973" r="6"/><circle cx="351" cy="960" r="5"/><circle cx="444" cy="991" r="5"/><circle cx="535" cy="1021" r="6"/><circle cx="622" cy="1026" r="6"/><circle cx="678" cy="1008" r="6"/><circle cx="766" cy="1013" r="5"/><circle cx="852" cy="1020" r="6"/><circle cx="891" cy="1021" r="4"/><circle cx="1006" cy="1020" r="6"/><circle cx="1109" cy="985" r="5"/><circle cx="1149" cy="995" r="6"/><circle cx="1244" cy="978" r="6"/><circle cx="1329" cy="983" r="4"/><circle cx="1378" cy="967" r="6"/><circle cx="1509" cy="1038" r="5"/><circle cx="1597" cy="1029" r="5"/><circle cx="1646" cy="1035" r="6"/><circle cx="1691" cy="1023" r="5"/><circle cx="1768" cy="1032" r="4"/><circle cx="1850" cy="977" r="6"/><circle cx="1988" cy="999" r="6"/><circle cx="2016" cy="997" r="6"/><circle cx="2087" cy="979" r="5"/><circle cx="2203" cy="986" r="6"/><circle cx="2280" cy="1026" r="4"/><circle cx="2371" cy="987" r="5"/><circle cx="2437" cy="993" r="6"/><circle cx="2551" cy="1025" r="5"/><circle cx="63" cy="1094" r="5"/><circle cx="146" cy="1087" r="5"/><circle cx="181" cy="1042" r="5"/><circle cx="318" cy="1089" r="5"/><circle cx="337" cy="1089" r="5"/><circle cx="413" cy="1095" r="4"/><circle cx="541" cy="1089" r="6"/><circle cx="619" cy="1109" r="5"/><circle cx="678" cy="1050" r="6"/><circle cx="792" cy="1049" r="4"/><circle cx="816" cy="1100" r="6"/><circle cx="915" cy="1060" r="5"/><circle cx="988" cy="1058" r="5"/><circle cx="1087" cy="1088" r="6"/><circle cx="1157" cy="1055" r="4"/><circle cx="1223" cy="1087" r="4"/><circle cx="1339" cy="1074" r="4"/><circle cx="1409" cy="1044" r="5"/><circle cx="1480" cy="1074" r="6"/><circle cx="1593" cy="1101" r="4"/><circle cx="1637" cy="1055" r="4"/><circle cx="1756" cy="1083" r="6"/><circle cx="1772" cy="1109" r="5"/><circle cx="1919" cy="1067" r="6"/><circle cx="1998" cy="1080" r="4"/><circle cx="2065" cy="1057" r="4"/><circle cx="2115" cy="1041" r="6"/><circle cx="2209" cy="1045" r="5"/><circle cx="2256" cy="1114" r="6"/><circle cx="2395" cy="1069" r="4"/><circle cx="2423" cy="1109" r="6"/><circle cx="2524" cy="1060" r="5"/><circle cx="12" cy="1124" r="5"/><circle cx="130" cy="1158" r="6"/><circle cx="177" cy="1144" r="5"/><circle cx="299" cy="1130" r="6"/><circle cx="390" cy="1153" r="5"/><circle cx="437" cy="1197" r="5"/><circle cx="485" cy="1194" r="6"/><circle cx="627" cy="1184" r="5"/><circle cx="703" cy="1135" r="6"/><circle cx="762" cy="1122" r="6"/><circle cx="840" cy="1152" r="4"/><circle cx="883" cy="1133" r="4"/><circle cx="965" cy="1121" r="6"/><circle cx="1079" cy="1143" r="5"/><circle cx="1144" cy="1185" r="5"/><circle cx="1256" cy="1126" r="4"/><circle cx="1287" cy="1155" r="5"/><circle cx="1427" cy="1197" r="5"/><circle cx="1440" cy="1184" r="5"/><circle cx="1577" cy="1194" r="5"/><circle cx="1663" cy="1126" r="5"/><circle cx="1714" cy="1132" r="6"/><circle cx="1809" cy="1134" r="4"/><circle cx="1850" cy="1196" r="5"/><circle cx="1974" cy="1128" r="5"/><circle cx="2039" cy="1130" r="6"/><circle cx="2107" cy="1146" r="5"/><circle cx="2219" cy="1187" r="4"/><circle cx="2240" cy="1151" r="6"/><circle cx="2331" cy="1174" r="6"/><circle cx="2470" cy="1166" r="4"/><circle cx="2534" cy="1141" r="4"/><circle cx="65" cy="1222" r="4"/><circle cx="85" cy="1224" r="4"/><circle cx="196" cy="1208" r="5"/><circle cx="259" cy="1252" r="5"/><circle cx="366" cy="1266" r="5"/><circle cx="414" cy="1232" r="5"/><circle cx="506" cy="1225" r="5"/><circle cx="611" cy="1205" r="4"/><circle cx="667" cy="1250" r="4"/><circle cx="798" cy="1213" r="5"/><circle cx="859" cy="1258" r="4"/><circle cx="951" cy="1237" r="4"/><circle cx="1026" cy="1223" r="4"/><circle cx="1095" cy="1259" r="5"/><circle cx="1175" cy="1277" r="6"/><circle cx="1208" cy="1209" r="5"/><circle cx="1320" cy="1252" r="4"/><circle cx="1409" cy="1277" r="5"/><circle cx="1490" cy="1207" r="5"/><circle cx="1588" cy="1256" r="5"/><circle cx="1664" cy="1207" r="6"/><circle cx="1686" cy="1238" r="6"/><circle cx="1832" cy="1212" r="5"/><circle cx="1872" cy="1240" r="5"/><circle cx="1992" cy="1222" r="5"/><circle cx="2058" cy="1238" r="4"/><circle cx="2099" cy="1232" r="5"/><circle cx="2178" cy="1243" r="5"/><circle cx="2290" cy="1257" r="4"/><circle cx="2338" cy="1264" r="6"/><circle cx="2471" cy="1233" r="4"/><circle cx="2490" cy="1280" r="5"/><circle cx="29" cy="1296" r="5"/><circle cx="125" cy="1335" r="5"/><circle cx="203" cy="1287" r="6"/><circle cx="243" cy="1285" r="6"/><circle cx="364" cy="1315" r="4"/><circle cx="416" cy="1332" r="6"/><circle cx="493" cy="1305" r="4"/><circle cx="630" cy="1325" r="5"/><circle cx="680" cy="1350" r="4"/><circle cx="770" cy="1300" r="6"/><circle cx="835" cy="1303" r="5"/><circle cx="915" cy="1341" r="6"/><circle cx="974" cy="1353" r="4"/><circle cx="1080" cy="1328" r="5"/><circle cx="1137" cy="1290" r="4"/><circle cx="1209" cy="1281" r="6"/><circle cx="1325" cy="1309" r="6"/><circle cx="1435" cy="1280" r="6"/><circle cx="1496" cy="1351" r="4"/><circle cx="1598" cy="1294" r="5"/><circle cx="1604" cy="1330" r="4"/><circle cx="1711" cy="1333" r="4"/><circle cx="1812" cy="1329" r="6"/><circle cx="1886" cy="1295" r="6"/><circle cx="1942" cy="1318" r="5"/><circle cx="2051" cy="1343" r="5"/><circle cx="2081" cy="1360" r="5"/><circle cx="2237" cy="1320" r="5"/><circle cx="2313" cy="1335" r="5"/><circle cx="2321" cy="1344" r="4"/><circle cx="2469" cy="1323" r="5"/><circle cx="2518" cy="1303" r="4"/><circle cx="79" cy="1416" r="5"/><circle cx="130" cy="1397" r="5"/><circle cx="177" cy="1379" r="5"/><circle cx="315" cy="1384" r="6"/><circle cx="335" cy="1436" r="5"/><circle cx="335" cy="-4" r="5"/><circle cx="420" cy="1392" r="6"/><circle cx="534" cy="1427" r="5"/><circle cx="568" cy="1423" r="4"/><circle cx="704" cy="1416" r="4"/><circle cx="752" cy="1406" r="4"/><circle cx="841" cy="1433" r="5"/><circle cx="949" cy="1384" r="4"/><circle cx="972" cy="1362" r="6"/><circle cx="1073" cy="1382" r="4"/><circle cx="1195" cy="1430" r="5"/><circle cx="1270" cy="1419" r="5"/><circle cx="1353" cy="1393" r="4"/><circle cx="1380" cy="1434" r="6"/><circle cx="1515" cy="1371" r="5"/><circle cx="1567" cy="1429" r="5"/><circle cx="1601" cy="1413" r="5"/><circle cx="1704" cy="1380" r="5"/><circle cx="1779" cy="1365" r="5"/><circle cx="1886" cy="1406" r="6"/><circle cx="1940" cy="1395" r="6"/><circle cx="2033" cy="1386" r="5"/><circle cx="2088" cy="1382" r="6"/><circle cx="2176" cy="1410" r="4"/><circle cx="2263" cy="1411" r="6"/><circle cx="2332" cy="1413" r="5"/><circle cx="2476" cy="1369" r="6"/><circle cx="2511" cy="1384" r="5"/><path stroke="#fff" d="M28 18L111 67M28 18L-23 41M28 18L7 108M28 18L79 -24M28 18L-49 -56M2588 18L2537 41M2588 18L2511 -56M28 1458L79 1416M28 1458L-49 1384M2588 1458L2511 1384M111 67L123 111M111 67L79 -24M111 67L130 -43M111 1507L79 1416M111 1507L130 1397M215 22L279 29M215 22L209 91M215 22L130 -43M215 22L177 -61M215 1462L130 1397M215 1462L177 1379M279 29L209 91M279 29L309 112M279 29L315 -56M279 29L335 -4M279 1469L315 1384M279 1469L335 1436M380 68L433 28M380 68L309 112M380 68L356 83M380 68L335 -4M380 1508L335 1436M433 28L356 83M433 28L485 84M433 28L420 -48M433 1468L420 1392M552 47L595 7M552 47L485 84M552 47L577 99M552 47L534 -13M552 47L568 -17M552 1487L534 1427M552 1487L568 1423M595 7L671 35M595 7L577 99M595 7L534 -13M595 7L568 -17M595 1447L534 1427M595 1447L568 1423M671 35L704 -24M671 1475L704 1416M768 9L821 24M768 9L785 107M768 9L704 -24M768 9L752 -34M768 9L841 -7M768 1449L704 1416M768 1449L752 1406M768 1449L841 1433M821 24L917 42M821 24L785 107M821 24L897 96M821 24L841 -7M821 1464L841 1433M917 42L992 45M917 42L897 96M917 42L841 -7M917 42L949 -56M917 1482L841 1433M917 1482L949 1384M992 45L1066 6M992 45L897 96M992 45L987 162M1066 6L1147 3M1066 6L1080 -112M1066 6L1073 -58M1066 1446L1080 1328M1066 1446L1073 1382M1147 3L1236 40M1147 3L1073 -58M1147 3L1195 -10M1147 1443L1073 1382M1147 1443L1195 1430M1236 40L1289 40M1236 40L1215 117M1236 40L1195 -10M1236 40L1270 -21M1236 1480L1195 1430M1236 1480L1270 1419M1289 40L1397 30M1289 40L1195 -10M1289 40L1270 -21M1289 40L1380 -6M1289 1480L1195 1430M1289 1480L1270 1419M1289 1480L1380 1434M1397 30L1366 137M1397 30L1442 111M1397 30L1353 -47M1397 30L1380 -6M1397 1470L1353 1393M1397 1470L1380 1434M1499 11L1568 2M1499 11L1515 -69M1499 11L1567 -11M1499 1451L1515 1371M1499 1451L1567 1429M1568 2L1576 83M1568 2L1515 -69M1568 2L1567 -11M1568 2L1601 -27M1568 1442L1515 1371M1568 1442L1567 1429M1568 1442L1601 1413M1671 39L1701 73M1671 39L1769 1M1671 39L1666 91M1671 39L1687 93M1671 39L1601 -27M1671 1479L1601 1413M1701 73L1769 1M1701 73L1666 91M1701 73L1687 93M1769 1L1704 -60M1769 1L1779 -75M1769 1441L1704 1380M1769 1441L1779 1365M1905 29L1934 13M1905 29L1890 87M1905 29L1961 113M1905 29L1886 -34M1905 29L1940 -45M1905 1469L1886 1406M1905 1469L1940 1395M1934 13L1890 87M1934 13L1961 113M1934 13L1886 -34M1934 13L1940 -45M1934 1453L1886 1406M1934 1453L1940 1395M2047 13L2080 31M2047 13L2014 91M2047 13L2081 -80M2047 13L2033 -54M2047 13L2088 -58M2047 1453L2081 1360M2047 1453L2033 1386M2047 1453L2088 1382M2080 31L2014 91M2080 31L2134 129M2080 31L2088 -58M2080 1471L2088 1382M2230 22L2318 41M2230 22L2234 94M2230 22L2176 -30M2230 22L2263 -29M2230 1462L2176 1410M2230 1462L2263 1411M2318 41L2345 3M2318 41L2338 113M2318 41L2263 -29M2318 41L2332 -27M2318 1481L2263 1411M2318 1481L2332 1413M2345 3L2431 37M2345 3L2263 -29M2345 3L2332 -27M2345 1443L2263 1411M2345 1443L2332 1413M2431 37L2537 41M2431 37L2450 142M2431 37L2476 -71M2431 1477L2476 1369M2537 41L2567 108M2537 41L2518 118M2537 41L2511 -56M-23 41L7 108M2537 1481L2511 1384M7 108L-42 118M2567 108L2518 118M123 111L209 91M209 91L309 112M209 91L197 186M309 112L356 83M356 83L335 -4M356 1523L335 1436M469 131L485 84M469 131L577 99M469 131L405 198M469 131L483 211M469 131L574 201M485 84L577 99M485 84L534 -13M485 1524L534 1427M577 99L574 201M685 156L668 171M685 156L747 195M685 156L664 241M685 156L732 253M785 107L810 159M810 159L897 96M810 159L747 195M810 159L838 219M897 96L987 162M1001 154L950 238M1001 154L987 162M1118 143L1200 143M1118 143L1215 117M1118 143L1091 223M1118 143L1157 199M1200 143L1215 117M1200 143L1157 199M1200 143L1234 187M1215 117L1234 187M1317 159L1366 137M1317 159L1234 187M1317 159L1354 216M1317 159L1393 168M1317 159L1329 266M1366 137L1442 111M1366 137L1354 216M1366 137L1393 168M1442 111L1393 168M1442 111L1515 180M1442 111L1380 -6M1442 1551L1380 1434M1576 83L1666 91M1576 83L1687 93M1576 83L1567 -11M1576 1523L1567 1429M1666 91L1687 93M1687 93L1708 210M1836 121L1890 87M1836 121L1766 208M1890 87L1961 113M1961 113L2014 91M1961 113L1942 212M2014 91L2134 129M2134 129L2234 94M2134 129L2155 232M2134 129L2210 195M2234 94L2291 131M2234 94L2210 195M2291 131L2338 113M2291 131L2288 209M2291 131L2325 225M2338 113L2450 142M2338 113L2325 225M2450 142L2518 118M2450 142L2460 201M2518 118L2460 201M2518 118L2526 214M28 237L90 224M28 237L-34 214M28 237L6 299M28 237L87 265M28 237L-41 258M2588 237L2526 214M2588 237L2519 258M90 224L197 186M90 224L87 265M90 224L90 322M197 186L270 222M197 186L172 283M197 186L249 261M270 222L345 238M270 222L249 261M270 222L362 255M345 238L405 198M345 238L249 261M345 238L362 255M405 198L483 211M405 198L362 255M483 211L574 201M483 211L453 301M483 211L510 301M574 201L668 171M574 201L664 241M668 171L747 195M668 171L664 241M747 195L732 253M838 219L811 297M838 219L904 262M950 238L987 162M950 238L904 262M950 238L978 273M987 162L978 273M1091 223L1157 199M1091 223L1041 297M1091 223L1167 298M1157 199L1234 187M1157 199L1167 298M1234 187L1248 282M1354 216L1393 168M1354 216L1329 266M1354 216L1400 309M1393 168L1515 180M1515 180L1560 237M1515 180L1508 242M1515 180L1534 283M1560 237L1652 216M1560 237L1508 242M1560 237L1534 283M1560 237L1610 317M1652 216L1708 210M1652 216L1766 208M1652 216L1681 309M1708 210L1766 208M1708 210L1681 309M1908 234L1942 212M1908 234L2001 233M1908 234L1899 287M1908 234L1951 282M1908 234L1932 352M1942 212L2001 233M1942 212L1899 287M1942 212L1951 282M2001 233L1951 282M2001 233L2027 287M2001 233L2082 246M2155 232L2210 195M2155 232L2082 246M2155 232L2202 260M2155 232L2180 348M2210 195L2288 209M2210 195L2202 260M2288 209L2325 225M2288 209L2275 281M2288 209L2359 275M2325 225L2275 281M2325 225L2359 275M2460 201L2526 214M2460 201L2519 258M2526 214L2519 258M6 299L-41 258M6 299L21 331M6 299L90 322M6 299L-25 370M2566 299L2519 258M2566 299L2535 370M87 265L172 283M87 265L21 331M87 265L90 322M172 283L249 261M172 283L90 322M172 283L183 330M249 261L183 330M453 301L510 301M453 301L396 344M453 301L450 324M453 301L487 375M510 301L450 324M510 301L487 375M618 302L664 241M618 302L630 373M618 302L688 355M618 302L587 410M664 241L732 253M732 253L811 297M732 253L688 355M811 297L904 262M811 297L769 376M811 297L852 367M904 262L978 273M978 273L1041 297M1041 297L1029 386M1041 297L1069 382M1041 297L1138 350M1167 298L1248 282M1167 298L1138 350M1167 298L1260 371M1248 282L1329 266M1248 282L1260 371M1329 266L1400 309M1400 309L1345 374M1400 309L1428 359M1508 242L1534 283M1534 283L1610 317M1534 283L1578 359M1610 317L1681 309M1610 317L1578 359M1610 317L1669 345M1681 309L1669 345M1681 309L1727 365M1833 316L1899 287M1833 316L1770 381M1833 316L1901 374M1899 287L1951 282M1899 287L1932 352M1951 282L2027 287M2027 287L2082 246M2027 287L1932 352M2027 287L2065 368M2082 246L2065 368M2202 260L2275 281M2202 260L2139 360M2202 260L2180 348M2275 281L2359 275M2359 275L2428 319M2359 275L2363 358M2428 319L2363 358M2428 319L2445 371M2428 319L2406 409M21 331L90 322M21 331L-25 370M21 331L36 409M2581 331L2535 370M183 330L261 412M312 365L396 344M312 365L239 443M312 365L261 412M396 344L450 324M396 344L487 375M396 344L420 415M450 324L487 375M450 324L420 415M487 375L420 415M630 373L688 355M630 373L587 410M630 373L652 473M688 355L769 376M769 376L852 367M769 376L784 473M852 367L912 374M852 367L864 441M852 367L899 441M912 374L864 441M912 374L899 441M912 374L999 411M1029 386L1069 382M1029 386L1138 350M1029 386L999 411M1029 386L1079 472M1069 382L1138 350M1069 382L999 411M1069 382L1079 472M1138 350L1103 482M1260 371L1345 374M1260 371L1244 460M1345 374L1428 359M1345 374L1385 442M1428 359L1475 398M1428 359L1385 442M1475 398L1511 429M1475 398L1529 457M1475 398L1478 481M1578 359L1669 345M1578 359L1511 429M1669 345L1727 365M1727 365L1770 381M1727 365L1758 440M1727 365L1776 423M1770 381L1758 440M1770 381L1776 423M1770 381L1764 487M1901 374L1932 352M1901 374L1899 432M1932 352L1899 432M2065 368L2139 360M2065 368L2180 348M2065 368L2048 449M2139 360L2180 348M2139 360L2048 449M2139 360L2168 457M2180 348L2241 400M2241 400L2168 457M2241 400L2277 457M2363 358L2445 371M2363 358L2356 455M2363 358L2406 409M2445 371L2535 370M2445 371L2406 409M2445 371L2509 426M2535 370L2596 409M2535 370L2509 426M-25 370L36 409M36 409L108 432M36 409L-51 426M2596 409L2509 426M108 432L113 516M239 443L261 412M239 443L332 457M239 443L207 481M239 443L277 533M261 412L332 457M261 412L207 481M332 457L277 533M332 457L380 490M420 415L380 490M420 415L424 501M528 472L587 410M528 472L652 473M528 472L501 488M587 410L652 473M587 410L501 488M652 473L638 547M652 473L707 489M784 473L864 441M784 473L707 489M784 473L767 509M784 473L834 537M864 441L899 441M864 441L938 505M899 441L999 411M899 441L938 505M999 411L1079 472M1079 472L1130 476M1079 472L1103 482M1130 476L1103 482M1130 476L1175 542M1130 476L1202 562M1244 460L1323 468M1244 460L1261 505M1244 460L1323 483M1323 468L1385 442M1323 468L1261 505M1323 468L1323 483M1323 468L1373 556M1385 442L1323 483M1511 429L1529 457M1511 429L1478 481M1511 429L1530 515M1529 457L1615 463M1529 457L1478 481M1529 457L1530 515M1615 463L1649 523M1758 440L1776 423M1758 440L1756 543M1758 440L1764 487M1776 423L1764 487M1899 432L1955 466M1899 432L1906 543M1955 466L2048 449M1955 466L1906 543M1955 466L1921 534M1955 466L2009 494M2048 449L2118 479M2048 449L2009 494M2118 479L2168 457M2118 479L2149 537M2118 479L2184 547M2168 457L2149 537M2168 457L2184 547M2277 457L2356 455M2277 457L2306 541M2277 457L2343 512M2356 455L2406 409M2356 455L2343 512M2406 409L2509 426M2509 426L2534 534M62 545L113 516M62 545L-26 534M62 545L9 632M62 545L106 573M2622 545L2534 534M113 516L207 481M113 516L106 573M207 481L277 533M207 481L215 562M277 533L215 562M277 533L282 602M380 490L424 501M380 490L391 576M424 501L501 488M424 501L391 576M424 501L437 596M638 547L707 489M638 547L591 603M638 547L679 617M707 489L767 509M767 509L834 537M767 509L733 614M834 537L938 505M834 537L849 625M938 505L982 503M938 505L931 574M982 503L931 574M982 503L989 616M1103 482L1175 542M1103 482L1202 562M1175 542L1261 505M1175 542L1188 609M1175 542L1202 562M1261 505L1323 483M1261 505L1202 562M1323 483L1373 556M1373 556L1337 613M1373 556L1424 570M1373 556L1452 576M1478 481L1530 515M1478 481L1452 576M1530 515L1552 583M1649 523L1676 591M1649 523L1710 587M1756 543L1764 487M1756 543L1676 591M1756 543L1710 587M1756 543L1796 598M1906 543L1921 534M1906 543L1886 563M1906 543L1987 574M1921 534L2009 494M1921 534L1886 563M1921 534L1987 574M2009 494L1987 574M2009 494L2035 603M2149 537L2184 547M2149 537L2157 602M2184 547L2157 602M2184 547L2229 623M2306 541L2343 512M2306 541L2300 603M2343 512L2437 539M2437 539L2534 534M2437 539L2393 601M2437 539L2410 601M2437 539L2492 588M2534 534L2492 588M9 632L-68 588M9 632L59 712M9 632L-5 659M9 632L46 732M2569 632L2492 588M2569 632L2555 659M106 573L215 562M106 573L156 695M215 562L282 602M215 562L214 641M282 602L391 576M282 602L214 641M391 576L437 596M391 576L364 658M437 596L535 615M437 596L364 658M437 596L439 699M535 615L591 603M535 615L518 660M535 615L578 652M591 603L679 617M591 603L578 652M591 603L658 661M679 617L733 614M679 617L658 661M679 617L735 660M733 614L735 660M849 625L931 574M849 625L857 693M849 625L903 706M931 574L989 616M931 574L973 672M989 616L1101 639M989 616L973 672M1101 639L1188 609M1101 639L1118 660M1101 639L1123 680M1101 639L1126 730M1188 609L1202 562M1188 609L1118 660M1188 609L1123 680M1337 613L1424 570M1337 613L1301 676M1424 570L1452 576M1424 570L1473 667M1452 576L1552 583M1452 576L1473 667M1552 583L1588 662M1676 591L1710 587M1676 591L1740 690M1710 587L1796 598M1796 598L1886 563M1796 598L1788 690M1886 563L1987 574M1987 574L2035 603M2035 603L2077 642M2157 602L2229 623M2157 602L2077 642M2157 602L2238 648M2229 623L2300 603M2229 623L2238 648M2229 623L2314 643M2300 603L2393 601M2300 603L2238 648M2300 603L2314 643M2393 601L2410 601M2393 601L2314 643M2410 601L2492 588M2410 601L2454 698M2492 588L2555 659M59 712L-5 659M59 712L46 732M59 712L141 744M59 712L26 807M2619 712L2555 659M156 695L214 641M156 695L141 744M156 695L185 730M214 641L281 716M214 641L185 730M281 716L185 730M281 716L282 768M281 716L349 747M281 716L305 814M364 658L439 699M364 658L349 747M364 658L410 736M439 699L518 660M439 699L410 736M518 660L578 652M518 660L554 726M578 652L658 661M578 652L554 726M658 661L735 660M658 661L668 728M735 660L668 728M735 660L752 740M857 693L903 706M857 693L854 760M857 693L888 742M857 693L855 806M903 706L973 672M903 706L854 760M903 706L888 742M1118 660L1123 680M1118 660L1126 730M1123 680L1126 730M1257 720L1301 676M1257 720L1245 784M1257 720L1315 781M1301 676L1379 711M1301 676L1392 738M1379 711L1473 667M1379 711L1392 738M1379 711L1393 806M1473 667L1392 738M1588 662L1654 692M1588 662L1568 742M1588 662L1625 769M1654 692L1740 690M1654 692L1568 742M1654 692L1625 769M1654 692L1722 747M1740 690L1788 690M1740 690L1722 747M1740 690L1791 743M1788 690L1909 708M1788 690L1722 747M1788 690L1791 743M1909 708L1987 711M1909 708L1791 743M1909 708L1907 728M1987 711L2077 642M1987 711L1907 728M1987 711L1986 799M1987 711L2057 776M2077 642L2138 720M2138 720L2057 776M2138 720L2148 771M2138 720L2181 785M2238 648L2314 643M2314 643L2373 714M2373 714L2454 698M2373 714L2299 768M2373 714L2376 779M2373 714L2437 731M2454 698L2555 659M2454 698L2437 731M2555 659L2606 732M-5 659L46 732M46 732L-38 787M46 732L26 807M2606 732L2522 787M141 744L185 730M185 730L282 768M282 768L349 747M282 768L236 849M282 768L305 814M349 747L410 736M349 747L305 814M410 736L474 810M554 726L613 787M554 726L474 810M613 787L668 728M613 787L631 860M613 787L718 818M668 728L752 740M668 728L718 818M752 740L718 818M752 740L767 817M854 760L888 742M854 760L855 806M854 760L905 824M888 742L855 806M888 742L905 824M1008 795L1087 798M1008 795L905 824M1008 795L1018 831M1087 798L1126 730M1087 798L1018 831M1087 798L1085 873M1087 798L1145 851M1126 730L1145 851M1245 784L1315 781M1245 784L1267 855M1315 781L1267 855M1315 781L1303 865M1315 781L1393 806M1392 738L1476 771M1392 738L1393 806M1476 771L1568 742M1476 771L1393 806M1476 771L1464 845M1568 742L1625 769M1625 769L1722 747M1625 769L1601 871M1722 747L1791 743M1791 743L1907 728M1907 728L1986 799M1907 728L1896 853M1986 799L2057 776M1986 799L1967 859M1986 799L2049 844M2057 776L2148 771M2057 776L2049 844M2148 771L2181 785M2148 771L2155 843M2181 785L2155 843M2181 785L2224 849M2181 785L2255 823M2299 768L2376 779M2299 768L2255 823M2299 768L2337 828M2376 779L2437 731M2376 779L2337 828M2376 779L2442 832M2437 731L2522 787M2437 731L2442 832M2522 787L2586 807M2522 787L2442 832M2522 787L2519 826M-38 787L26 807M26 807L-41 826M26 807L40 885M2586 807L2519 826M126 868L40 885M126 868L131 893M236 849L305 814M236 849L254 927M305 814L395 862M395 862L474 810M395 862L391 911M395 862L466 950M395 862L351 960M474 810L508 850M508 850L631 860M508 850L515 949M631 860L718 818M631 860L601 921M718 818L767 817M767 817L855 806M855 806L905 824M905 824L958 920M1018 831L1085 873M1018 831L1034 915M1085 873L1145 851M1085 873L1034 915M1085 873L1082 916M1145 851L1082 916M1267 855L1303 865M1267 855L1252 934M1267 855L1244 978M1303 865L1252 934M1303 865L1345 954M1393 806L1464 845M1464 845L1527 861M1464 845L1485 930M1464 845L1536 905M1527 861L1601 871M1527 861L1485 930M1527 861L1536 905M1527 861L1612 907M1601 871L1536 905M1601 871L1612 907M1729 864L1808 877M1729 864L1740 905M1729 864L1767 953M1808 877L1896 853M1808 877L1740 905M1808 877L1767 953M1808 877L1884 925M1896 853L1967 859M1896 853L1884 925M1896 853L1960 910M1967 859L2049 844M1967 859L1960 910M1967 859L2022 898M2049 844L2022 898M2049 844L2117 897M2155 843L2224 849M2155 843L2117 897M2155 843L2198 909M2224 849L2255 823M2224 849L2198 909M2224 849L2245 926M2255 823L2337 828M2255 823L2245 926M2337 828L2442 832M2337 828L2333 901M2442 832L2519 826M2519 826L2600 885M2519 826L2540 925M-41 826L40 885M40 885L131 893M40 885L-20 925M2600 885L2540 925M131 893L202 933M202 933L254 927M202 933L137 996M202 933L205 993M202 933L260 973M254 927L205 993M254 927L260 973M254 927L351 960M391 911L466 950M391 911L351 960M391 911L444 991M466 950L515 949M466 950L444 991M466 950L535 1021M515 949L601 921M515 949L444 991M515 949L535 1021M601 921L671 952M671 952L723 937M671 952L622 1026M671 952L678 1008M723 937L817 934M723 937L678 1008M723 937L766 1013M958 920L1034 915M1034 915L1082 916M1082 916L1130 959M1082 916L1109 985M1130 959L1109 985M1130 959L1149 995M1130 959L1244 978M1130 959L1157 1055M1252 934L1345 954M1252 934L1244 978M1252 934L1329 983M1345 954L1370 938M1345 954L1329 983M1345 954L1378 967M1370 938L1329 983M1370 938L1378 967M1370 938L1409 1044M1485 930L1536 905M1485 930L1378 967M1485 930L1509 1038M1536 905L1612 907M1612 907L1740 905M1740 905L1767 953M1740 905L1850 977M1767 953L1768 1032M1767 953L1850 977M1884 925L1960 910M1884 925L1850 977M1960 910L2022 898M1960 910L1988 999M2022 898L2117 897M2022 898L2016 997M2117 897L2198 909M2117 897L2087 979M2198 909L2245 926M2198 909L2203 986M2245 926L2333 901M2245 926L2203 986M2333 901L2455 944M2333 901L2371 987M2455 944L2540 925M2455 944L2371 987M2455 944L2437 993M2540 925L2603 993M2540 925L2551 1025M-20 925L43 993M43 993L137 996M43 993L-9 1025M43 993L63 1094M43 993L-36 1060M2603 993L2551 1025M2603 993L2524 1060M137 996L205 993M137 996L146 1087M137 996L181 1042M205 993L260 973M205 993L181 1042M260 973L351 960M260 973L181 1042M351 960L444 991M444 991L535 1021M535 1021L622 1026M535 1021L541 1089M622 1026L678 1008M622 1026L619 1109M622 1026L678 1050M678 1008L766 1013M678 1008L678 1050M766 1013L852 1020M766 1013L678 1050M766 1013L792 1049M852 1020L891 1021M852 1020L792 1049M852 1020L816 1100M852 1020L915 1060M891 1021L915 1060M891 1021L988 1058M1006 1020L988 1058M1006 1020L1087 1088M1006 1020L965 1121M1109 985L1149 995M1109 985L1157 1055M1149 995L1244 978M1149 995L1087 1088M1149 995L1157 1055M1244 978L1329 983M1329 983L1378 967M1378 967L1409 1044M1509 1038L1597 1029M1509 1038L1409 1044M1509 1038L1480 1074M1597 1029L1646 1035M1597 1029L1691 1023M1597 1029L1593 1101M1597 1029L1637 1055M1646 1035L1691 1023M1646 1035L1593 1101M1646 1035L1637 1055M1646 1035L1663 1126M1691 1023L1768 1032M1691 1023L1637 1055M1691 1023L1756 1083M1768 1032L1850 977M1768 1032L1756 1083M1768 1032L1772 1109M1850 977L1919 1067M1988 999L2016 997M1988 999L2087 979M1988 999L1919 1067M1988 999L1998 1080M2016 997L2087 979M2016 997L1998 1080M2016 997L2065 1057M2087 979L2065 1057M2087 979L2115 1041M2203 986L2280 1026M2203 986L2115 1041M2203 986L2209 1045M2280 1026L2371 987M2280 1026L2209 1045M2280 1026L2256 1114M2371 987L2437 993M2371 987L2395 1069M2437 993L2395 1069M2437 993L2423 1109M2437 993L2524 1060M2551 1025L2623 1094M2551 1025L2524 1060M2551 1025L2572 1124M-9 1025L63 1094M-9 1025L12 1124M63 1094L146 1087M63 1094L12 1124M63 1094L130 1158M146 1087L181 1042M146 1087L130 1158M146 1087L177 1144M181 1042L177 1144M318 1089L337 1089M318 1089L413 1095M318 1089L299 1130M337 1089L413 1095M337 1089L299 1130M337 1089L390 1153M413 1095L299 1130M413 1095L390 1153M541 1089L619 1109M541 1089L485 1194M541 1089L627 1184M619 1109L678 1050M619 1109L627 1184M619 1109L703 1135M678 1050L703 1135M792 1049L816 1100M792 1049L762 1122M816 1100L762 1122M816 1100L840 1152M816 1100L883 1133M915 1060L988 1058M915 1060L883 1133M915 1060L965 1121M988 1058L1087 1088M988 1058L965 1121M1087 1088L1157 1055M1087 1088L1079 1143M1157 1055L1223 1087M1223 1087L1256 1126M1223 1087L1287 1155M1339 1074L1409 1044M1339 1074L1256 1126M1339 1074L1287 1155M1409 1044L1480 1074M1480 1074L1427 1197M1480 1074L1440 1184M1593 1101L1637 1055M1593 1101L1577 1194M1593 1101L1663 1126M1637 1055L1663 1126M1756 1083L1772 1109M1756 1083L1714 1132M1756 1083L1809 1134M1772 1109L1714 1132M1772 1109L1809 1134M1919 1067L1998 1080M1919 1067L1974 1128M1998 1080L1974 1128M1998 1080L2039 1130M2065 1057L2115 1041M2065 1057L2039 1130M2065 1057L2107 1146M2115 1041L2209 1045M2115 1041L2107 1146M2209 1045L2256 1114M2209 1045L2240 1151M2256 1114L2219 1187M2256 1114L2240 1151M2256 1114L2331 1174M2395 1069L2423 1109M2423 1109L2331 1174M2423 1109L2470 1166M2524 1060L2572 1124M2524 1060L2534 1141M-36 1060L12 1124M12 1124L-26 1141M2572 1124L2534 1141M130 1158L177 1144M130 1158L85 1224M130 1158L196 1208M177 1144L196 1208M299 1130L390 1153M299 1130L259 1252M390 1153L437 1197M390 1153L414 1232M437 1197L485 1194M437 1197L366 1266M437 1197L414 1232M437 1197L506 1225M485 1194L414 1232M485 1194L506 1225M485 1194L493 1305M627 1184L703 1135M627 1184L611 1205M627 1184L667 1250M703 1135L762 1122M762 1122L840 1152M762 1122L798 1213M840 1152L883 1133M840 1152L798 1213M883 1133L965 1121M965 1121L1079 1143M1079 1143L1144 1185M1079 1143L1026 1223M1144 1185L1095 1259M1144 1185L1175 1277M1144 1185L1208 1209M1144 1185L1209 1281M1256 1126L1287 1155M1256 1126L1208 1209M1287 1155L1208 1209M1287 1155L1320 1252M1427 1197L1440 1184M1427 1197L1409 1277M1427 1197L1490 1207M1427 1197L1435 1280M1440 1184L1409 1277M1440 1184L1490 1207M1440 1184L1435 1280M1577 1194L1490 1207M1577 1194L1588 1256M1577 1194L1664 1207M1577 1194L1598 1294M1663 1126L1714 1132M1663 1126L1664 1207M1714 1132L1664 1207M1714 1132L1686 1238M1809 1134L1850 1196M1809 1134L1832 1212M1850 1196L1832 1212M1850 1196L1872 1240M1850 1196L1886 1295M1974 1128L2039 1130M1974 1128L1992 1222M2039 1130L2107 1146M2039 1130L1992 1222M2107 1146L2058 1238M2107 1146L2099 1232M2219 1187L2240 1151M2219 1187L2178 1243M2240 1151L2331 1174M2240 1151L2178 1243M2331 1174L2290 1257M2331 1174L2338 1264M2470 1166L2534 1141M2470 1166L2471 1233M2534 1141L2471 1233M65 1222L85 1224M65 1222L29 1296M85 1224L29 1296M196 1208L259 1252M196 1208L203 1287M196 1208L243 1285M259 1252L366 1266M259 1252L203 1287M259 1252L243 1285M366 1266L414 1232M366 1266L364 1315M366 1266L416 1332M414 1232L506 1225M506 1225L611 1205M506 1225L493 1305M611 1205L667 1250M611 1205L630 1325M667 1250L630 1325M667 1250L680 1350M798 1213L859 1258M798 1213L770 1300M798 1213L835 1303M859 1258L951 1237M859 1258L770 1300M859 1258L835 1303M859 1258L915 1341M951 1237L1026 1223M1026 1223L1095 1259M1095 1259L1175 1277M1095 1259L1080 1328M1095 1259L1137 1290M1175 1277L1208 1209M1175 1277L1137 1290M1175 1277L1209 1281M1208 1209L1209 1281M1320 1252L1409 1277M1320 1252L1325 1309M1409 1277L1325 1309M1409 1277L1435 1280M1490 1207L1435 1280M1588 1256L1664 1207M1588 1256L1686 1238M1588 1256L1598 1294M1588 1256L1604 1330M1664 1207L1686 1238M1686 1238L1598 1294M1686 1238L1711 1333M1832 1212L1872 1240M1872 1240L1812 1329M1872 1240L1886 1295M1872 1240L1942 1318M1992 1222L2058 1238M1992 1222L2099 1232M1992 1222L1942 1318M2058 1238L2099 1232M2058 1238L2051 1343M2099 1232L2178 1243M2178 1243L2237 1320M2290 1257L2338 1264M2290 1257L2237 1320M2338 1264L2313 1335M2338 1264L2321 1344M2471 1233L2490 1280M2471 1233L2469 1323M2490 1280L2589 1296M2490 1280L2469 1323M2490 1280L2518 1303M2490 1280L2476 1369M-70 1280L29 1296M29 1296L125 1335M29 1296L-42 1303M2589 1296L2518 1303M125 1335L203 1287M125 1335L79 1416M125 1335L130 1397M125 1335L177 1379M203 1287L243 1285M203 1287L177 1379M364 1315L416 1332M364 1315L315 1384M364 1315L420 1392M416 1332L493 1305M416 1332L315 1384M416 1332L420 1392M493 1305L534 1427M630 1325L680 1350M630 1325L568 1423M630 1325L704 1416M680 1350L770 1300M680 1350L704 1416M680 1350L752 1406M770 1300L835 1303M770 1300L752 1406M835 1303L915 1341M915 1341L974 1353M915 1341L949 1384M915 1341L972 1362M974 1353L949 1384M974 1353L972 1362M974 1353L1073 1382M1080 1328L1137 1290M1080 1328L972 1362M1080 1328L1073 1382M1137 1290L1209 1281M1209 1281L1325 1309M1325 1309L1353 1393M1435 1280L1496 1351M1496 1351L1515 1371M1598 1294L1604 1330M1604 1330L1601 1413M1711 1333L1812 1329M1711 1333L1704 1380M1711 1333L1779 1365M1812 1329L1886 1295M1812 1329L1779 1365M1812 1329L1886 1406M1886 1295L1942 1318M1942 1318L1886 1406M1942 1318L1940 1395M2051 1343L2081 1360M2051 1343L2033 1386M2051 1343L2088 1382M2081 1360L2033 1386M2081 1360L2088 1382M2081 1360L2176 1410M2237 1320L2313 1335M2237 1320L2321 1344M2313 1335L2321 1344M2313 1335L2263 1411M2313 1335L2332 1413M2321 1344L2332 1413M2469 1323L2518 1303M2469 1323L2476 1369M2469 1323L2511 1384M2518 1303L2476 1369M2518 1303L2511 1384M79 1416L130 1397M79 1416L177 1379M130 1397L177 1379M315 1384L335 1436M315 1384L420 1392M335 1436L420 1392M534 1427L568 1423M704 1416L752 1406M752 1406L841 1433M841 1433L949 1384M949 1384L972 1362M972 1362L1073 1382M1195 1430L1270 1419M1270 1419L1353 1393M1270 1419L1380 1434M1353 1393L1380 1434M1515 1371L1567 1429M1515 1371L1601 1413M1567 1429L1601 1413M1704 1380L1779 1365M1886 1406L1940 1395M1940 1395L2033 1386M2033 1386L2088 1382M2263 1411L2332 1413M2476 1369L2511 1384"/></svg>