<svg xmlns="http://www.w3.org/2000/svg" width="2560" height="1440" fill="#fff"><circle cx="74" cy="59" r="5"/><circle cx="153" cy="75" r="6"/><circle cx="200" cy="55" r="6"/><circle cx="311" cy="65" r="5"/><circle cx="336" cy="60" r="4"/><circle cx="446" cy="66" r="4"/><circle cx="560" cy="7" r="6"/><circle cx="636" cy="46" r="5"/><circle cx="689" cy="10" r="6"/><circle cx="733" cy="58" r="5"/><circle cx="804" cy="35" r="5"/><circle cx="947" cy="55" r="4"/><circle cx="972" cy="12" r="5"/><circle cx="1077" cy="36" r="4"/><circle cx="1161" cy="33" r="6"/><circle cx="1279" cy="18" r="5"/><circle cx="1311" cy="37" r="4"/><circle cx="1440" cy="29" r="5"/><circle cx="1472" cy="26" r="5"/><circle cx="1535" cy="10" r="6"/><circle cx="1645" cy="2" r="5"/><circle cx="1645" cy="1442" r="5"/><circle cx="1748" cy="68" r="5"/><circle cx="1821" cy="33" r="6"/><circle cx="1919" cy="20" r="5"/><circle cx="1931" cy="14" r="5"/><circle cx="2048" cy="69" r="5"/><circle cx="2081" cy="80" r="6"/><circle cx="2217" cy="18" r="5"/><circle cx="2247" cy="11" r="6"/><circle cx="2336" cy="80" r="5"/><circle cx="2404" cy="80" r="5"/><circle cx="2489" cy="22" r="4"/><circle cx="1" cy="160" r="5"/><circle cx="2561" cy="160" r="5"/><circle cx="138" cy="85" r="4"/><circle cx="211" cy="99" r="5"/><circle cx="275" cy="117" r="5"/><circle cx="340" cy="131" r="6"/><circle cx="460" cy="94" r="6"/><circle cx="541" cy="157" r="6"/><circle cx="623" cy="91" r="5"/><circle cx="692" cy="128" r="4"/><circle cx="776" cy="138" r="6"/><circle cx="831" cy="116" r="5"/><circle cx="942" cy="105" r="5"/><circle cx="983" cy="150" r="5"/><circle cx="1101" cy="134" r="6"/><circle cx="1181" cy="144" r="4"/><circle cx="1276" cy="131" r="4"/><circle cx="1340" cy="118" r="5"/><circle cx="1399" cy="145" r="5"/><circle cx="1494" cy="149" r="4"/><circle cx="1545" cy="153" r="5"/><circle cx="1624" cy="81" r="4"/><circle cx="1737" cy="96" r="5"/><circle cx="1789" cy="96" r="4"/><circle cx="1919" cy="118" r="4"/><circle cx="1994" cy="155" r="6"/><circle cx="2001" cy="114" r="5"/><circle cx="2102" cy="95" r="6"/><circle cx="2175" cy="86" r="6"/><circle cx="2254" cy="103" r="4"/><circle cx="2378" cy="103" r="4"/><circle cx="2404" cy="149" r="4"/><circle cx="2512" cy="140" r="6"/><circle cx="23" cy="210" r="6"/><circle cx="99" cy="225" r="6"/><circle cx="202" cy="208" r="4"/><circle cx="261" cy="212" r="5"/><circle cx="368" cy="167" r="5"/><circle cx="412" cy="199" r="6"/><circle cx="495" cy="215" r="5"/><circle cx="617" cy="209" r="5"/><circle cx="676" cy="172" r="5"/><circle cx="732" cy="237" r="5"/><circle cx="848" cy="183" r="6"/><circle cx="937" cy="210" r="4"/><circle cx="1009" cy="198" r="5"/><circle cx="1105" cy="231" r="6"/><circle cx="1136" cy="222" r="6"/><circle cx="1211" cy="167" r="6"/><circle cx="1339" cy="205" r="4"/><circle cx="1406" cy="186" r="4"/><circle cx="1442" cy="165" r="6"/><circle cx="1543" cy="205" r="4"/><circle cx="1608" cy="178" r="5"/><circle cx="1701" cy="174" r="6"/><circle cx="1824" cy="165" r="6"/><circle cx="1854" cy="187" r="6"/><circle cx="1997" cy="240" r="5"/><circle cx="2027" cy="191" r="5"/><circle cx="2157" cy="203" r="5"/><circle cx="2183" cy="184" r="5"/><circle cx="2263" cy="183" r="5"/><circle cx="2373" cy="209" r="5"/><circle cx="2416" cy="191" r="5"/><circle cx="2541" cy="190" r="5"/><circle cx="38" cy="316" r="5"/><circle cx="140" cy="310" r="5"/><circle cx="176" cy="249" r="6"/><circle cx="277" cy="241" r="6"/><circle cx="328" cy="300" r="6"/><circle cx="460" cy="251" r="5"/><circle cx="556" cy="274" r="4"/><circle cx="594" cy="272" r="4"/><circle cx="716" cy="240" r="5"/><circle cx="730" cy="294" r="4"/><circle cx="858" cy="309" r="6"/><circle cx="914" cy="241" r="4"/><circle cx="971" cy="299" r="6"/><circle cx="1094" cy="245" r="5"/><circle cx="1149" cy="319" r="5"/><circle cx="1210" cy="268" r="6"/><circle cx="1348" cy="300" r="5"/><circle cx="1409" cy="290" r="4"/><circle cx="1518" cy="295" r="5"/><circle cx="1540" cy="266" r="5"/><circle cx="1649" cy="257" r="5"/><circle cx="1696" cy="249" r="6"/><circle cx="1832" cy="250" r="5"/><circle cx="1858" cy="281" r="6"/><circle cx="1981" cy="288" r="5"/><circle cx="2024" cy="272" r="4"/><circle cx="2084" cy="313" r="6"/><circle cx="2218" cy="259" r="5"/><circle cx="2271" cy="303" r="5"/><circle cx="2348" cy="291" r="6"/><circle cx="2431" cy="279" r="6"/><circle cx="2534" cy="292" r="5"/><circle cx="4" cy="337" r="5"/><circle cx="2564" cy="337" r="5"/><circle cx="120" cy="374" r="4"/><circle cx="222" cy="345" r="5"/><circle cx="306" cy="328" r="4"/><circle cx="380" cy="350" r="5"/><circle cx="462" cy="368" r="6"/><circle cx="510" cy="376" r="5"/><circle cx="601" cy="367" r="6"/><circle cx="716" cy="383" r="4"/><circle cx="787" cy="373" r="5"/><circle cx="819" cy="358" r="6"/><circle cx="949" cy="360" r="5"/><circle cx="1023" cy="344" r="4"/><circle cx="1069" cy="371" r="4"/><circle cx="1145" cy="374" r="5"/><circle cx="1231" cy="322" r="5"/><circle cx="1309" cy="376" r="5"/><circle cx="1370" cy="322" r="4"/><circle cx="1516" cy="331" r="4"/><circle cx="1600" cy="327" r="4"/><circle cx="1667" cy="369" r="5"/><circle cx="1749" cy="385" r="6"/><circle cx="1826" cy="334" r="6"/><circle cx="1916" cy="368" r="5"/><circle cx="1990" cy="327" r="6"/><circle cx="2046" cy="388" r="4"/><circle cx="2151" cy="346" r="5"/><circle cx="2167" cy="340" r="6"/><circle cx="2303" cy="369" r="5"/><circle cx="2329" cy="376" r="4"/><circle cx="2464" cy="335" r="5"/><circle cx="2501" cy="398" r="4"/><circle cx="42" cy="475" r="6"/><circle cx="88" cy="420" r="5"/><circle cx="174" cy="414" r="6"/><circle cx="280" cy="459" r="5"/><circle cx="358" cy="468" r="4"/><circle cx="467" cy="477" r="5"/><circle cx="502" cy="426" r="6"/><circle cx="574" cy="457" r="5"/><circle cx="646" cy="406" r="5"/><circle cx="793" cy="434" r="5"/><circle cx="856" cy="457" r="4"/><circle cx="914" cy="452" r="5"/><circle cx="1039" cy="459" r="5"/><circle cx="1044" cy="402" r="4"/><circle cx="1126" cy="408" r="6"/><circle cx="1258" cy="456" r="4"/><circle cx="1322" cy="421" r="6"/><circle cx="1361" cy="425" r="5"/><circle cx="1480" cy="473" r="6"/><circle cx="1590" cy="411" r="5"/><circle cx="1644" cy="409" r="5"/><circle cx="1683" cy="471" r="4"/><circle cx="1804" cy="423" r="5"/><circle cx="1886" cy="462" r="5"/><circle cx="1936" cy="430" r="5"/><circle cx="2080" cy="446" r="5"/><circle cx="2120" cy="403" r="5"/><circle cx="2171" cy="464" r="6"/><circle cx="2265" cy="453" r="5"/><circle cx="2359" cy="418" r="5"/><circle cx="2468" cy="452" r="5"/><circle cx="2508" cy="406" r="5"/><circle cx="72" cy="549" r="5"/><circle cx="107" cy="495" r="5"/><circle cx="224" cy="534" r="5"/><circle cx="279" cy="525" r="5"/><circle cx="398" cy="519" r="5"/><circle cx="433" cy="506" r="6"/><circle cx="521" cy="535" r="5"/><circle cx="629" cy="541" r="4"/><circle cx="676" cy="531" r="5"/><circle cx="740" cy="515" r="6"/><circle cx="818" cy="492" r="6"/><circle cx="922" cy="541" r="5"/><circle cx="1027" cy="496" r="4"/><circle cx="1046" cy="482" r="5"/><circle cx="1163" cy="535" r="6"/><circle cx="1243" cy="514" r="6"/><circle cx="1321" cy="521" r="4"/><circle cx="1402" cy="514" r="5"/><circle cx="1463" cy="548" r="4"/><circle cx="1535" cy="501" r="4"/><circle cx="1636" cy="529" r="5"/><circle cx="1706" cy="511" r="4"/><circle cx="1802" cy="534" r="5"/><circle cx="1850" cy="508" r="5"/><circle cx="1927" cy="546" r="4"/><circle cx="2078" cy="537" r="6"/><circle cx="2144" cy="502" r="5"/><circle cx="2179" cy="544" r="5"/><circle cx="2299" cy="488" r="5"/><circle cx="2336" cy="555" r="5"/><circle cx="2407" cy="510" r="5"/><circle cx="2507" cy="524" r="4"/><circle cx="32" cy="619" r="5"/><circle cx="125" cy="587" r="6"/><circle cx="210" cy="578" r="5"/><circle cx="288" cy="582" r="6"/><circle cx="394" cy="589" r="5"/><circle cx="405" cy="627" r="4"/><circle cx="522" cy="593" r="4"/><circle cx="568" cy="617" r="6"/><circle cx="707" cy="613" r="5"/><circle cx="779" cy="638" r="4"/><circle cx="803" cy="637" r="4"/><circle cx="955" cy="612" r="4"/><circle cx="963" cy="579" r="4"/><circle cx="1062" cy="617" r="4"/><circle cx="1135" cy="576" r="6"/><circle cx="1268" cy="595" r="5"/><circle cx="1312" cy="594" r="5"/><circle cx="1406" cy="633" r="6"/><circle cx="1444" cy="594" r="6"/><circle cx="1542" cy="565" r="4"/><circle cx="1650" cy="599" r="4"/><circle cx="1702" cy="578" r="6"/><circle cx="1820" cy="577" r="5"/><circle cx="1899" cy="632" r="5"/><circle cx="1933" cy="638" r="4"/><circle cx="2062" cy="623" r="6"/><circle cx="2130" cy="621" r="5"/><circle cx="2180" cy="602" r="5"/><circle cx="2291" cy="622" r="4"/><circle cx="2333" cy="609" r="5"/><circle cx="2417" cy="603" r="4"/><circle cx="2492" cy="588" r="5"/><circle cx="7" cy="695" r="5"/><circle cx="84" cy="682" r="5"/><circle cx="226" cy="668" r="5"/><circle cx="267" cy="708" r="5"/><circle cx="323" cy="662" r="6"/><circle cx="451" cy="678" r="6"/><circle cx="521" cy="655" r="5"/><circle cx="590" cy="641" r="6"/><circle cx="640" cy="696" r="6"/><circle cx="792" cy="645" r="5"/><circle cx="866" cy="719" r="4"/><circle cx="937" cy="665" r="4"/><circle cx="1009" cy="680" r="5"/><circle cx="1062" cy="714" r="5"/><circle cx="1165" cy="689" r="6"/><circle cx="1235" cy="653" r="5"/><circle cx="1299" cy="649" r="5"/><circle cx="1434" cy="657" r="6"/><circle cx="1493" cy="701" r="5"/><circle cx="1562" cy="673" r="4"/><circle cx="1641" cy="689" r="5"/><circle cx="1738" cy="692" r="5"/><circle cx="1825" cy="659" r="6"/><circle cx="1859" cy="671" r="5"/><circle cx="1946" cy="679" r="5"/><circle cx="2050" cy="713" r="6"/><circle cx="2159" cy="644" r="5"/><circle cx="2192" cy="690" r="5"/><circle cx="2297" cy="642" r="6"/><circle cx="2365" cy="692" r="5"/><circle cx="2438" cy="701" r="4"/><circle cx="2558" cy="686" r="5"/><circle cx="-2" cy="686" r="5"/><circle cx="26" cy="721" r="6"/><circle cx="113" cy="779" r="5"/><circle cx="221" cy="732" r="4"/><circle cx="308" cy="792" r="4"/><circle cx="359" cy="774" r="6"/><circle cx="459" cy="744" r="5"/><circle cx="493" cy="791" r="5"/><circle cx="619" cy="721" r="5"/><circle cx="644" cy="748" r="6"/><circle cx="722" cy="737" r="6"/><circle cx="856" cy="745" r="4"/><circle cx="924" cy="765" r="5"/><circle cx="980" cy="742" r="5"/><circle cx="1051" cy="800" r="5"/><circle cx="1173" cy="755" r="5"/><circle cx="1245" cy="771" r="5"/><circle cx="1335" cy="755" r="4"/><circle cx="1365" cy="791" r="6"/><circle cx="1474" cy="796" r="5"/><circle cx="1522" cy="797" r="5"/><circle cx="1648" cy="726" r="4"/><circle cx="1715" cy="747" r="6"/><circle cx="1801" cy="758" r="6"/><circle cx="1911" cy="729" r="4"/><circle cx="1959" cy="793" r="6"/><circle cx="2063" cy="728" r="6"/><circle cx="2142" cy="758" r="5"/><circle cx="2218" cy="762" r="5"/><circle cx="2309" cy="734" r="6"/><circle cx="2323" cy="778" r="6"/><circle cx="2431" cy="728" r="5"/><circle cx="2521" cy="795" r="5"/><circle cx="65" cy="831" r="5"/><circle cx="97" cy="802" r="4"/><circle cx="192" cy="849" r="4"/><circle cx="265" cy="825" r="6"/><circle cx="337" cy="858" r="4"/><circle cx="459" cy="858" r="4"/><circle cx="524" cy="814" r="4"/><circle cx="564" cy="809" r="5"/><circle cx="689" cy="843" r="5"/><circle cx="776" cy="878" r="4"/><circle cx="860" cy="820" r="6"/><circle cx="937" cy="817" r="4"/><circle cx="1014" cy="817" r="5"/><circle cx="1055" cy="858" r="6"/><circle cx="1173" cy="868" r="6"/><circle cx="1230" cy="831" r="4"/><circle cx="1341" cy="826" r="6"/><circle cx="1419" cy="820" r="5"/><circle cx="1493" cy="803" r="6"/><circle cx="1542" cy="878" r="5"/><circle cx="1648" cy="828" r="6"/><circle cx="1739" cy="859" r="6"/><circle cx="1769" cy="872" r="6"/><circle cx="1844" cy="877" r="5"/><circle cx="1950" cy="876" r="6"/><circle cx="2066" cy="879" r="4"/><circle cx="2102" cy="861" r="5"/><circle cx="2163" cy="850" r="4"/><circle cx="2303" cy="850" r="6"/><circle cx="2392" cy="857" r="5"/><circle cx="2447" cy="879" r="5"/><circle cx="2516" cy="867" r="5"/><circle cx="0" cy="912" r="6"/><circle cx="2560" cy="912" r="6"/><circle cx="81" cy="905" r="5"/><circle cx="184" cy="901" r="6"/><circle cx="303" cy="945" r="5"/><circle cx="353" cy="919" r="6"/><circle cx="474" cy="942" r="5"/><circle cx="517" cy="927" r="5"/><circle cx="637" cy="952" r="5"/><circle cx="710" cy="934" r="5"/><circle cx="779" cy="906" r="4"/><circle cx="837" cy="899" r="4"/><circle cx="926" cy="932" r="5"/><circle cx="974" cy="939" r="6"/><circle cx="1107" cy="897" r="5"/><circle cx="1138" cy="947" r="4"/><circle cx="1246" cy="920" r="5"/><circle cx="1355" cy="915" r="6"/><circle cx="1438" cy="921" r="5"/><circle cx="1476" cy="882" r="5"/><circle cx="1550" cy="959" r="5"/><circle cx="1639" cy="914" r="5"/><circle cx="1734" cy="900" r="5"/><circle cx="1799" cy="935" r="4"/><circle cx="1894" cy="916" r="5"/><circle cx="1920" cy="920" r="5"/><circle cx="2048" cy="947" r="5"/><circle cx="2158" cy="895" r="5"/><circle cx="2178" cy="896" r="5"/><circle cx="2249" cy="911" r="5"/><circle cx="2384" cy="891" r="5"/><circle cx="2426" cy="915" r="5"/><circle cx="2548" cy="951" r="6"/><circle cx="55" cy="1034" r="5"/><circle cx="143" cy="995" r="5"/><circle cx="211" cy="966" r="5"/><circle cx="307" cy="1033" r="5"/><circle cx="339" cy="985" r="4"/><circle cx="412" cy="989" r="6"/><circle cx="560" cy="1010" r="5"/><circle cx="600" cy="988" r="4"/><circle cx="646" cy="962" r="4"/><circle cx="722" cy="1002" r="5"/><circle cx="815" cy="1026" r="5"/><circle cx="886" cy="1009" r="5"/><circle cx="962" cy="972" r="5"/><circle cx="1080" cy="1002" r="5"/><circle cx="1136" cy="985" r="4"/><circle cx="1247" cy="1028" r="5"/><circle cx="1290" cy="1017" r="6"/><circle cx="1368" cy="1033" r="5"/><circle cx="1472" cy="973" r="5"/><circle cx="1556" cy="1020" r="5"/><circle cx="1624" cy="978" r="6"/><circle cx="1749" cy="1024" r="5"/><circle cx="1805" cy="977" r="4"/><circle cx="1898" cy="986" r="5"/><circle cx="1938" cy="1008" r="6"/><circle cx="2024" cy="1033" r="6"/><circle cx="2094" cy="978" r="6"/><circle cx="2183" cy="1029" r="5"/><circle cx="2306" cy="1022" r="5"/><circle cx="2323" cy="1004" r="5"/><circle cx="2461" cy="1003" r="6"/><circle cx="2516" cy="980" r="6"/><circle cx="69" cy="1042" r="5"/><circle cx="93" cy="1067" r="6"/><circle cx="218" cy="1077" r="4"/><circle cx="302" cy="1111" r="4"/><circle cx="367" cy="1056" r="6"/><circle cx="403" cy="1101" r="4"/><circle cx="499" cy="1042" r="6"/><circle cx="571" cy="1040" r="4"/><circle cx="695" cy="1067" r="5"/><circle cx="727" cy="1102" r="6"/><circle cx="806" cy="1092" r="4"/><circle cx="899" cy="1054" r="6"/><circle cx="974" cy="1085" r="4"/><circle cx="1086" cy="1071" r="5"/><circle cx="1156" cy="1079" r="5"/><circle cx="1217" cy="1098" r="5"/><circle cx="1354" cy="1106" r="5"/><circle cx="1429" cy="1115" r="5"/><circle cx="1453" cy="1090" r="6"/><circle cx="1556" cy="1063" r="5"/><circle cx="1629" cy="1087" r="5"/><circle cx="1727" cy="1069" r="5"/><circle cx="1773" cy="1062" r="6"/><circle cx="1914" cy="1110" r="4"/><circle cx="1973" cy="1102" r="5"/><circle cx="2043" cy="1109" r="5"/><circle cx="2154" cy="1042" r="5"/><circle cx="2204" cy="1072" r="5"/><circle cx="2256" cy="1072" r="4"/><circle cx="2361" cy="1057" r="5"/><circle cx="2405" cy="1051" r="6"/><circle cx="2518" cy="1077" r="5"/><circle cx="47" cy="1122" r="5"/><circle cx="132" cy="1144" r="5"/><circle cx="169" cy="1176" r="5"/><circle cx="263" cy="1178" r="5"/><circle cx="329" cy="1177" r="4"/><circle cx="441" cy="1155" r="5"/><circle cx="491" cy="1183" r="6"/><circle cx="617" cy="1120" r="4"/><circle cx="647" cy="1125" r="5"/><circle cx="771" cy="1146" r="6"/><circle cx="800" cy="1199" r="5"/><circle cx="890" cy="1192" r="5"/><circle cx="1020" cy="1174" r="5"/><circle cx="1106" cy="1160" r="5"/><circle cx="1188" cy="1178" r="5"/><circle cx="1211" cy="1148" r="5"/><circle cx="1286" cy="1156" r="5"/><circle cx="1403" cy="1134" r="4"/><circle cx="1516" cy="1133" r="5"/><circle cx="1522" cy="1197" r="5"/><circle cx="1643" cy="1141" r="5"/><circle cx="1715" cy="1158" r="4"/><circle cx="1838" cy="1142" r="5"/><circle cx="1884" cy="1183" r="4"/><circle cx="1992" cy="1128" r="5"/><circle cx="2002" cy="1193" r="6"/><circle cx="2129" cy="1144" r="5"/><circle cx="2237" cy="1175" r="5"/><circle cx="2291" cy="1165" r="5"/><circle cx="2395" cy="1182" r="6"/><circle cx="2417" cy="1156" r="5"/><circle cx="2515" cy="1121" r="6"/><circle cx="9" cy="1225" r="6"/><circle cx="86" cy="1252" r="5"/><circle cx="237" cy="1270" r="6"/><circle cx="241" cy="1208" r="4"/><circle cx="361" cy="1229" r="6"/><circle cx="477" cy="1262" r="5"/><circle cx="531" cy="1244" r="5"/><circle cx="604" cy="1231" r="5"/><circle cx="700" cy="1209" r="6"/><circle cx="759" cy="1255" r="5"/><circle cx="846" cy="1276" r="4"/><circle cx="921" cy="1278" r="4"/><circle cx="999" cy="1257" r="6"/><circle cx="1064" cy="1219" r="5"/><circle cx="1121" cy="1250" r="5"/><circle cx="1279" cy="1234" r="4"/><circle cx="1285" cy="1266" r="4"/><circle cx="1414" cy="1218" r="5"/><circle cx="1516" cy="1256" r="5"/><circle cx="1578" cy="1240" r="6"/><circle cx="1646" cy="1222" r="4"/><circle cx="1696" cy="1253" r="6"/><circle cx="1764" cy="1223" r="5"/><circle cx="1883" cy="1203" r="4"/><circle cx="1982" cy="1222" r="6"/><circle cx="2070" cy="1276" r="5"/><circle cx="2088" cy="1255" r="5"/><circle cx="2199" cy="1260" r="6"/><circle cx="2291" cy="1246" r="5"/><circle cx="2354" cy="1238" r="6"/><circle cx="2421" cy="1216" r="5"/><circle cx="2523" cy="1204" r="5"/><circle cx="63" cy="1330" r="5"/><circle cx="150" cy="1298" r="4"/><circle cx="225" cy="1282" r="5"/><circle cx="286" cy="1320" r="4"/><circle cx="346" cy="1314" r="6"/><circle cx="404" cy="1336" r="5"/><circle cx="509" cy="1346" r="4"/><circle cx="565" cy="1288" r="4"/><circle cx="717" cy="1339" r="5"/><circle cx="756" cy="1328" r="4"/><circle cx="860" cy="1294" r="4"/><circle cx="910" cy="1326" r="5"/><circle cx="981" cy="1295" r="5"/><circle cx="1051" cy="1331" r="5"/><circle cx="1154" cy="1356" r="4"/><circle cx="1220" cy="1335" r="5"/><circle cx="1321" cy="1291" r="4"/><circle cx="1411" cy="1335" r="5"/><circle cx="1479" cy="1286" r="5"/><circle cx="1522" cy="1350" r="4"/><circle cx="1662" cy="1283" r="5"/><circle cx="1698" cy="1342" r="6"/><circle cx="1777" cy="1347" r="6"/><circle cx="1913" cy="1317" r="4"/><circle cx="1973" cy="1348" r="5"/><circle cx="2039" cy="1342" r="6"/><circle cx="2091" cy="1356" r="5"/><circle cx="2224" cy="1297" r="6"/><circle cx="2303" cy="1318" r="5"/><circle cx="2347" cy="1328" r="4"/><circle cx="2465" cy="1281" r="5"/><circle cx="2512" cy="1336" r="6"/><circle cx="48" cy="1387" r="5"/><circle cx="114" cy="1363" r="5"/><circle cx="234" cy="1404" r="5"/><circle cx="265" cy="1374" r="5"/><circle cx="399" cy="1384" r="5"/><circle cx="440" cy="1379" r="4"/><circle cx="489" cy="1392" r="6"/><circle cx="581" cy="1423" r="6"/><circle cx="715" cy="1417" r="5"/><circle cx="758" cy="1420" r="5"/><circle cx="828" cy="1439" r="5"/><circle cx="828" cy="-1" r="5"/><circle cx="904" cy="1362" r="5"/><circle cx="991" cy="1438" r="5"/><circle cx="991" cy="-2" r="5"/><circle cx="1103" cy="1392" r="4"/><circle cx="1128" cy="1395" r="5"/><circle cx="1227" cy="1373" r="4"/><circle cx="1325" cy="1389" r="5"/><circle cx="1421" cy="1390" r="4"/><circle cx="1482" cy="1430" r="5"/><circle cx="1593" cy="1414" r="6"/><circle cx="1623" cy="1397" r="5"/><circle cx="1756" cy="1379" r="4"/><circle cx="1814" cy="1391" r="5"/><circle cx="1875" cy="1420" r="4"/><circle cx="1977" cy="1380" r="6"/><circle cx="2001" cy="1361" r="5"/><circle cx="2155" cy="1407" r="5"/><circle cx="2195" cy="1439" r="4"/><circle cx="2195" cy="-1" r="4"/><circle cx="2283" cy="1430" r="6"/><circle cx="2326" cy="1399" r="5"/><circle cx="2473" cy="1417" r="4"/><circle cx="2495" cy="1409" r="4"/><path stroke="#fff" d="M74 59L153 75M74 59L1 160M74 59L138 85M74 59L48 -53M74 1499L48 1387M153 75L200 55M153 75L138 85M153 75L211 99M200 55L138 85M200 55L211 99M200 55L275 117M200 55L234 -36M200 1495L234 1404M311 65L336 60M311 65L211 99M311 65L275 117M311 65L340 131M311 65L368 167M336 60L275 117M336 60L340 131M446 66L460 94M560 7L636 46M560 7L623 91M560 7L489 -48M560 7L581 -17M560 1447L489 1392M560 1447L581 1423M636 46L689 10M636 46L623 91M636 46L581 -17M636 1486L581 1423M689 10L733 58M689 10L623 91M689 10L715 -23M689 10L758 -20M689 1450L715 1417M689 1450L758 1420M733 58L804 35M733 58L776 138M733 58L715 -23M733 58L758 -20M733 1498L715 1417M733 1498L758 1420M804 35L776 138M804 35L831 116M804 35L758 -20M804 35L828 -1M804 1475L758 1420M804 1475L828 1439M947 55L972 12M947 55L942 105M947 55L983 150M947 55L991 -2M947 1495L991 1438M972 12L942 105M972 12L991 -2M972 1452L991 1438M1077 36L1161 33M1077 36L1101 134M1077 36L991 -2M1077 36L1103 -48M1077 36L1128 -45M1077 1476L991 1438M1077 1476L1103 1392M1077 1476L1128 1395M1161 33L1181 144M1161 33L1103 -48M1161 33L1128 -45M1161 1473L1103 1392M1161 1473L1128 1395M1279 18L1311 37M1279 18L1276 131M1279 18L1227 -67M1279 18L1325 -51M1279 1458L1227 1373M1279 1458L1325 1389M1311 37L1276 131M1311 37L1340 118M1311 37L1325 -51M1311 1477L1325 1389M1440 29L1472 26M1440 29L1535 10M1440 29L1421 -50M1440 29L1482 -10M1440 1469L1421 1390M1440 1469L1482 1430M1472 26L1535 10M1472 26L1421 -50M1472 26L1482 -10M1472 1466L1421 1390M1472 1466L1482 1430M1535 10L1482 -10M1535 10L1593 -26M1535 10L1623 -43M1535 1450L1482 1430M1535 1450L1593 1414M1535 1450L1623 1397M1645 2L1624 81M1645 2L1593 -26M1645 2L1623 -43M1645 1442L1593 1414M1645 1442L1623 1397M1748 68L1821 33M1748 68L1737 96M1748 68L1789 96M1821 33L1919 20M1821 33L1789 96M1821 33L1814 -49M1821 33L1875 -20M1821 1473L1814 1391M1821 1473L1875 1420M1919 20L1931 14M1919 20L1919 118M1919 20L1875 -20M1919 1460L1875 1420M1931 14L1973 -92M1931 14L1875 -20M1931 14L1977 -60M1931 1454L1973 1348M1931 1454L1875 1420M1931 1454L1977 1380M2048 69L2081 80M2048 69L1994 155M2048 69L2001 114M2048 69L2102 95M2081 80L2001 114M2081 80L2102 95M2081 80L2175 86M2217 18L2247 11M2217 18L2175 86M2217 18L2155 -33M2217 18L2195 -1M2217 18L2283 -10M2217 1458L2155 1407M2217 1458L2195 1439M2217 1458L2283 1430M2247 11L2195 -1M2247 11L2283 -10M2247 11L2326 -41M2247 1451L2195 1439M2247 1451L2283 1430M2247 1451L2326 1399M2336 80L2404 80M2336 80L2254 103M2336 80L2378 103M2336 80L2404 149M2336 80L2283 -10M2336 1520L2283 1430M2404 80L2489 22M2404 80L2378 103M2404 80L2404 149M2489 22L2512 140M2489 22L2473 -23M2489 22L2495 -31M2489 1462L2473 1417M2489 1462L2495 1409M1 160L-48 140M1 160L23 210M1 160L99 225M1 160L-19 190M2561 160L2512 140M2561 160L2541 190M138 85L211 99M211 99L275 117M275 117L340 131M340 131L368 167M340 131L412 199M460 94L541 157M460 94L368 167M460 94L412 199M460 94L495 215M541 157L623 91M541 157L495 215M541 157L617 209M541 157L460 251M623 91L692 128M692 128L776 138M692 128L676 172M692 128L716 240M776 138L831 116M776 138L848 183M831 116L848 183M831 116L828 -1M831 1556L828 1439M942 105L983 150M983 150L937 210M983 150L1009 198M1101 134L1181 144M1101 134L1105 231M1101 134L1136 222M1101 134L1094 245M1181 144L1211 167M1276 131L1340 118M1276 131L1211 167M1340 118L1399 145M1340 118L1339 205M1340 118L1442 165M1399 145L1494 149M1399 145L1339 205M1399 145L1406 186M1399 145L1442 165M1494 149L1545 153M1494 149L1406 186M1494 149L1442 165M1494 149L1543 205M1545 153L1442 165M1545 153L1543 205M1545 153L1608 178M1624 81L1737 96M1624 81L1593 -26M1624 1521L1593 1414M1737 96L1789 96M1737 96L1701 174M1737 96L1824 165M1789 96L1824 165M1789 96L1854 187M1919 118L1994 155M1919 118L2001 114M1919 118L1854 187M1994 155L2001 114M1994 155L1997 240M1994 155L2027 191M2001 114L2027 191M2102 95L2175 86M2102 95L2157 203M2102 95L2183 184M2175 86L2254 103M2175 86L2195 -1M2175 1526L2195 1439M2254 103L2183 184M2254 103L2263 183M2378 103L2404 149M2378 103L2416 191M2404 149L2373 209M2404 149L2416 191M2512 140L2583 210M2512 140L2416 191M2512 140L2541 190M-48 140L23 210M23 210L99 225M23 210L-19 190M23 210L-26 292M2583 210L2541 190M2583 210L2534 292M99 225L38 316M99 225L140 310M99 225L176 249M202 208L261 212M202 208L176 249M202 208L277 241M261 212L176 249M261 212L277 241M261 212L328 300M368 167L412 199M412 199L495 215M412 199L460 251M495 215L460 251M495 215L556 274M617 209L676 172M617 209L556 274M617 209L594 272M617 209L716 240M676 172L732 237M676 172L716 240M732 237L716 240M732 237L730 294M848 183L937 210M848 183L914 241M937 210L1009 198M937 210L914 241M937 210L971 299M1009 198L1105 231M1009 198L1094 245M1105 231L1136 222M1105 231L1094 245M1136 222L1211 167M1136 222L1094 245M1136 222L1210 268M1211 167L1210 268M1339 205L1406 186M1339 205L1348 300M1406 186L1442 165M1406 186L1409 290M1543 205L1608 178M1543 205L1518 295M1543 205L1540 266M1608 178L1701 174M1608 178L1649 257M1608 178L1696 249M1701 174L1649 257M1701 174L1696 249M1824 165L1854 187M1824 165L1832 250M1824 165L1858 281M1854 187L1832 250M1854 187L1858 281M1997 240L2027 191M1997 240L1981 288M1997 240L2024 272M1997 240L1990 327M2027 191L2024 272M2157 203L2183 184M2157 203L2263 183M2157 203L2218 259M2183 184L2263 183M2183 184L2218 259M2263 183L2373 209M2263 183L2218 259M2373 209L2416 191M2373 209L2348 291M2373 209L2431 279M2416 191L2431 279M38 316L140 310M38 316L-26 292M38 316L4 337M38 316L120 374M2598 316L2534 292M140 310L176 249M140 310L120 374M140 310L222 345M176 249L277 241M277 241L328 300M277 241L306 328M328 300L222 345M328 300L306 328M328 300L380 350M460 251L556 274M460 251L462 368M556 274L594 272M594 272L601 367M716 240L730 294M730 294L716 383M730 294L787 373M858 309L914 241M858 309L971 299M858 309L787 373M858 309L819 358M858 309L949 360M914 241L971 299M971 299L949 360M971 299L1023 344M1094 245L1149 319M1149 319L1210 268M1149 319L1145 374M1149 319L1231 322M1149 319L1126 408M1210 268L1231 322M1348 300L1409 290M1348 300L1231 322M1348 300L1309 376M1348 300L1370 322M1409 290L1518 295M1409 290L1370 322M1409 290L1516 331M1518 295L1540 266M1518 295L1516 331M1518 295L1600 327M1540 266L1649 257M1540 266L1516 331M1540 266L1600 327M1649 257L1696 249M1649 257L1600 327M1696 249L1667 369M1832 250L1858 281M1832 250L1826 334M1858 281L1826 334M1858 281L1916 368M1981 288L2024 272M1981 288L1990 327M2024 272L2084 313M2024 272L1990 327M2084 313L1990 327M2084 313L2046 388M2084 313L2151 346M2084 313L2167 340M2218 259L2271 303M2218 259L2167 340M2271 303L2348 291M2271 303L2167 340M2271 303L2303 369M2271 303L2329 376M2348 291L2431 279M2348 291L2303 369M2348 291L2329 376M2431 279L2534 292M2431 279L2464 335M2534 292L2564 337M2534 292L2464 335M-26 292L4 337M4 337L-96 335M4 337L-59 398M4 337L-52 406M2564 337L2464 335M2564 337L2501 398M2564 337L2508 406M120 374L222 345M120 374L88 420M120 374L174 414M222 345L306 328M222 345L174 414M306 328L380 350M380 350L462 368M462 368L510 376M462 368L467 477M462 368L502 426M510 376L601 367M510 376L502 426M510 376L574 457M601 367L574 457M601 367L646 406M716 383L787 373M716 383L819 358M716 383L646 406M787 373L819 358M787 373L793 434M819 358L793 434M819 358L856 457M949 360L1023 344M949 360L914 452M1023 344L1069 371M1023 344L1044 402M1069 371L1145 374M1069 371L1039 459M1069 371L1044 402M1069 371L1126 408M1145 374L1231 322M1145 374L1126 408M1231 322L1309 376M1309 376L1370 322M1309 376L1322 421M1309 376L1361 425M1370 322L1361 425M1516 331L1590 411M1600 327L1667 369M1600 327L1590 411M1667 369L1749 385M1667 369L1590 411M1667 369L1644 409M1749 385L1826 334M1749 385L1644 409M1749 385L1683 471M1749 385L1804 423M1826 334L1916 368M1826 334L1804 423M1916 368L1990 327M1916 368L1886 462M1916 368L1936 430M2046 388L2080 446M2046 388L2120 403M2151 346L2167 340M2151 346L2120 403M2167 340L2120 403M2303 369L2329 376M2303 369L2265 453M2303 369L2359 418M2329 376L2265 453M2329 376L2359 418M2464 335L2501 398M2464 335L2508 406M2501 398L2468 452M2501 398L2508 406M42 475L88 420M42 475L-52 406M42 475L72 549M42 475L107 495M42 475L-53 524M2602 475L2508 406M2602 475L2507 524M88 420L174 414M88 420L72 549M88 420L107 495M174 414L280 459M174 414L107 495M280 459L358 468M280 459L224 534M280 459L279 525M358 468L279 525M358 468L398 519M358 468L433 506M467 477L502 426M467 477L398 519M467 477L433 506M467 477L521 535M502 426L574 457M574 457L646 406M574 457L521 535M646 406L676 531M793 434L856 457M793 434L740 515M793 434L818 492M856 457L914 452M856 457L818 492M856 457L922 541M914 452L818 492M914 452L922 541M1039 459L1044 402M1039 459L1126 408M1039 459L1027 496M1039 459L1046 482M1044 402L1126 408M1044 402L1046 482M1258 456L1322 421M1258 456L1163 535M1258 456L1243 514M1322 421L1361 425M1322 421L1321 521M1361 425L1402 514M1480 473L1402 514M1480 473L1463 548M1480 473L1535 501M1480 473L1542 565M1590 411L1644 409M1590 411L1535 501M1644 409L1683 471M1683 471L1636 529M1683 471L1706 511M1804 423L1886 462M1804 423L1802 534M1804 423L1850 508M1886 462L1936 430M1886 462L1850 508M1886 462L1927 546M2080 446L2120 403M2080 446L2171 464M2080 446L2078 537M2080 446L2144 502M2120 403L2171 464M2171 464L2265 453M2171 464L2144 502M2171 464L2179 544M2265 453L2359 418M2265 453L2299 488M2359 418L2299 488M2359 418L2407 510M2468 452L2508 406M2468 452L2407 510M2468 452L2507 524M72 549L107 495M72 549L32 619M72 549L125 587M107 495L125 587M224 534L279 525M224 534L210 578M224 534L288 582M279 525L210 578M279 525L288 582M398 519L433 506M398 519L394 589M398 519L405 627M433 506L521 535M433 506L394 589M521 535L522 593M521 535L568 617M629 541L676 531M629 541L740 515M676 531L740 515M676 531L707 613M740 515L818 492M740 515L707 613M818 492L922 541M922 541L955 612M922 541L963 579M1027 496L1046 482M1046 482L1163 535M1046 482L1135 576M1163 535L1243 514M1163 535L1135 576M1243 514L1321 521M1243 514L1268 595M1243 514L1312 594M1321 521L1402 514M1321 521L1268 595M1321 521L1312 594M1402 514L1463 548M1402 514L1444 594M1463 548L1406 633M1463 548L1444 594M1463 548L1542 565M1535 501L1542 565M1636 529L1706 511M1636 529L1542 565M1636 529L1650 599M1636 529L1702 578M1706 511L1802 534M1706 511L1650 599M1706 511L1702 578M1802 534L1850 508M1802 534L1702 578M1802 534L1820 577M1850 508L1927 546M1850 508L1820 577M2078 537L2144 502M2078 537L2179 544M2078 537L2062 623M2144 502L2179 544M2144 502L2180 602M2179 544L2130 621M2179 544L2180 602M2299 488L2336 555M2336 555L2407 510M2336 555L2291 622M2336 555L2333 609M2336 555L2297 642M2407 510L2507 524M2407 510L2417 603M2507 524L2492 588M32 619L125 587M32 619L7 695M32 619L84 682M32 619L-2 686M2592 619L2558 686M125 587L210 578M125 587L84 682M210 578L288 582M210 578L226 668M288 582L323 662M394 589L405 627M394 589L323 662M394 589L451 678M405 627L323 662M405 627L451 678M522 593L568 617M522 593L521 655M522 593L590 641M568 617L521 655M568 617L590 641M568 617L640 696M707 613L779 638M707 613L792 645M779 638L803 637M779 638L792 645M803 637L792 645M955 612L963 579M955 612L1062 617M955 612L937 665M955 612L1009 680M963 579L1062 617M963 579L937 665M1062 617L1135 576M1062 617L1009 680M1062 617L1062 714M1135 576L1165 689M1135 576L1235 653M1268 595L1312 594M1268 595L1235 653M1268 595L1299 649M1312 594L1406 633M1312 594L1299 649M1406 633L1444 594M1406 633L1299 649M1406 633L1434 657M1444 594L1542 565M1444 594L1434 657M1650 599L1702 578M1650 599L1562 673M1650 599L1641 689M1820 577L1899 632M1820 577L1825 659M1899 632L1933 638M1899 632L1825 659M1899 632L1859 671M1899 632L1946 679M1933 638L1859 671M1933 638L1946 679M1933 638L1911 729M2062 623L2130 621M2062 623L2050 713M2062 623L2159 644M2062 623L2063 728M2130 621L2180 602M2130 621L2159 644M2130 621L2192 690M2180 602L2159 644M2180 602L2192 690M2291 622L2333 609M2291 622L2297 642M2333 609L2417 603M2333 609L2297 642M2333 609L2365 692M2417 603L2492 588M2417 603L2438 701M7 695L84 682M7 695L-2 686M7 695L26 721M2567 695L2558 686M84 682L-2 686M84 682L26 721M2644 682L2558 686M226 668L267 708M226 668L323 662M226 668L221 732M267 708L323 662M267 708L221 732M267 708L308 792M451 678L521 655M451 678L459 744M451 678L493 791M521 655L590 641M521 655L459 744M590 641L640 696M590 641L619 721M640 696L619 721M640 696L644 748M640 696L722 737M792 645L866 719M792 645L722 737M866 719L937 665M866 719L856 745M866 719L924 765M866 719L860 820M937 665L1009 680M1009 680L1062 714M1009 680L980 742M1062 714L1165 689M1062 714L980 742M1062 714L1051 800M1165 689L1235 653M1165 689L1173 755M1165 689L1245 771M1235 653L1299 649M1235 653L1173 755M1299 649L1335 755M1434 657L1493 701M1434 657L1562 673M1493 701L1562 673M1493 701L1474 796M1493 701L1522 797M1562 673L1641 689M1562 673L1648 726M1641 689L1738 692M1641 689L1648 726M1641 689L1715 747M1738 692L1825 659M1738 692L1648 726M1738 692L1715 747M1738 692L1801 758M1825 659L1859 671M1825 659L1801 758M1859 671L1946 679M1859 671L1911 729M1946 679L2050 713M1946 679L1911 729M2050 713L1959 793M2050 713L2063 728M2050 713L2142 758M2159 644L2192 690M2192 690L2142 758M2192 690L2218 762M2297 642L2365 692M2297 642L2309 734M2365 692L2438 701M2365 692L2309 734M2365 692L2431 728M2438 701L2431 728M2558 686L2586 721M2558 686L2521 795M-2 686L26 721M26 721L113 779M26 721L-39 795M2586 721L2521 795M113 779L65 831M113 779L97 802M113 779L192 849M221 732L308 792M308 792L359 774M308 792L265 825M308 792L337 858M359 774L459 744M359 774L265 825M359 774L337 858M459 744L493 791M459 744L524 814M493 791L459 858M493 791L524 814M493 791L564 809M619 721L644 748M619 721L722 737M619 721L564 809M644 748L722 737M644 748L564 809M644 748L689 843M722 737L689 843M856 745L924 765M856 745L860 820M924 765L980 742M924 765L860 820M924 765L937 817M980 742L1051 800M980 742L1014 817M1051 800L1014 817M1051 800L1055 858M1173 755L1245 771M1173 755L1173 868M1173 755L1230 831M1245 771L1335 755M1245 771L1230 831M1245 771L1341 826M1335 755L1365 791M1335 755L1341 826M1365 791L1341 826M1365 791L1419 820M1365 791L1355 915M1474 796L1522 797M1474 796L1419 820M1474 796L1493 803M1474 796L1476 882M1522 797L1493 803M1522 797L1542 878M1648 726L1715 747M1648 726L1648 828M1715 747L1801 758M1715 747L1648 828M1801 758L1769 872M1911 729L1959 793M1959 793L2063 728M1959 793L1950 876M2063 728L2142 758M2142 758L2218 762M2142 758L2163 850M2218 762L2309 734M2218 762L2323 778M2309 734L2323 778M2309 734L2303 850M2323 778L2431 728M2323 778L2303 850M2323 778L2392 857M2431 728L2521 795M2521 795L2516 867M65 831L97 802M65 831L0 912M65 831L81 905M97 802L192 849M97 802L81 905M192 849L265 825M192 849L184 901M265 825L337 858M265 825L184 901M337 858L303 945M337 858L353 919M459 858L524 814M459 858L474 942M459 858L517 927M524 814L564 809M689 843L776 878M689 843L710 934M689 843L779 906M776 878L779 906M776 878L837 899M860 820L937 817M860 820L837 899M937 817L1014 817M1014 817L1055 858M1055 858L974 939M1055 858L1107 897M1173 868L1230 831M1173 868L1107 897M1173 868L1138 947M1173 868L1246 920M1230 831L1246 920M1341 826L1419 820M1341 826L1355 915M1419 820L1493 803M1419 820L1476 882M1493 803L1542 878M1493 803L1476 882M1542 878L1476 882M1542 878L1550 959M1648 828L1739 859M1648 828L1639 914M1648 828L1734 900M1739 859L1769 872M1739 859L1734 900M1739 859L1799 935M1769 872L1844 877M1769 872L1734 900M1769 872L1799 935M1844 877L1950 876M1844 877L1799 935M1844 877L1894 916M1844 877L1920 920M1950 876L2066 879M1950 876L1894 916M1950 876L1920 920M2066 879L2102 861M2066 879L2048 947M2102 861L2163 850M2102 861L2048 947M2102 861L2158 895M2102 861L2178 896M2163 850L2158 895M2163 850L2178 896M2163 850L2249 911M2303 850L2392 857M2303 850L2249 911M2303 850L2384 891M2392 857L2447 879M2392 857L2384 891M2392 857L2426 915M2447 879L2516 867M2447 879L2384 891M2447 879L2426 915M2516 867L2560 912M2516 867L2426 915M2516 867L2548 951M-44 867L0 912M0 912L81 905M0 912L-12 951M0 912L-44 980M2560 912L2548 951M2560 912L2516 980M81 905L184 901M81 905L-12 951M2641 905L2548 951M184 901L143 995M184 901L211 966M303 945L353 919M303 945L211 966M303 945L307 1033M303 945L339 985M353 919L339 985M353 919L412 989M474 942L517 927M474 942L412 989M474 942L499 1042M517 927L560 1010M637 952L710 934M637 952L560 1010M637 952L600 988M637 952L646 962M710 934L779 906M710 934L646 962M710 934L722 1002M779 906L837 899M837 899L926 932M926 932L974 939M926 932L886 1009M926 932L962 972M974 939L886 1009M974 939L962 972M1107 897L1138 947M1107 897L1080 1002M1107 897L1136 985M1138 947L1080 1002M1138 947L1136 985M1246 920L1355 915M1246 920L1247 1028M1246 920L1290 1017M1355 915L1438 921M1355 915L1290 1017M1438 921L1476 882M1438 921L1472 973M1550 959L1639 914M1550 959L1472 973M1550 959L1556 1020M1550 959L1624 978M1639 914L1734 900M1639 914L1624 978M1734 900L1799 935M1799 935L1805 977M1894 916L1920 920M1894 916L1898 986M1894 916L1938 1008M1920 920L1898 986M1920 920L1938 1008M2048 947L2024 1033M2048 947L2094 978M2158 895L2178 896M2158 895L2249 911M2158 895L2094 978M2178 896L2249 911M2249 911L2323 1004M2384 891L2426 915M2426 915L2461 1003M2548 951L2461 1003M2548 951L2516 980M55 1034L143 995M55 1034L69 1042M55 1034L93 1067M55 1034L-42 1077M55 1034L47 1122M2615 1034L2518 1077M143 995L211 966M143 995L69 1042M143 995L93 1067M211 966L218 1077M307 1033L339 985M307 1033L302 1111M307 1033L367 1056M339 985L412 989M339 985L367 1056M412 989L367 1056M412 989L499 1042M560 1010L600 988M560 1010L499 1042M560 1010L571 1040M600 988L646 962M600 988L571 1040M646 962L722 1002M722 1002L815 1026M722 1002L695 1067M722 1002L727 1102M815 1026L886 1009M815 1026L806 1092M815 1026L899 1054M886 1009L962 972M886 1009L899 1054M962 972L899 1054M1080 1002L1136 985M1080 1002L1086 1071M1136 985L1086 1071M1247 1028L1290 1017M1247 1028L1368 1033M1247 1028L1156 1079M1247 1028L1217 1098M1290 1017L1368 1033M1368 1033L1354 1106M1368 1033L1453 1090M1472 973L1556 1020M1556 1020L1624 978M1556 1020L1556 1063M1556 1020L1629 1087M1624 978L1556 1063M1624 978L1629 1087M1749 1024L1805 977M1749 1024L1727 1069M1749 1024L1773 1062M1805 977L1898 986M1805 977L1773 1062M1898 986L1938 1008M1938 1008L2024 1033M2024 1033L2094 978M2024 1033L1973 1102M2024 1033L2043 1109M2094 978L2183 1029M2094 978L2154 1042M2183 1029L2154 1042M2183 1029L2204 1072M2183 1029L2256 1072M2306 1022L2323 1004M2306 1022L2256 1072M2306 1022L2361 1057M2306 1022L2405 1051M2323 1004L2256 1072M2323 1004L2361 1057M2323 1004L2405 1051M2461 1003L2516 980M2461 1003L2405 1051M2461 1003L2518 1077M2516 980L2518 1077M69 1042L93 1067M69 1042L47 1122M93 1067L47 1122M93 1067L132 1144M218 1077L302 1111M218 1077L132 1144M302 1111L367 1056M302 1111L263 1178M302 1111L329 1177M367 1056L403 1101M403 1101L499 1042M403 1101L441 1155M403 1101L491 1183M499 1042L571 1040M571 1040L617 1120M695 1067L727 1102M695 1067L617 1120M695 1067L647 1125M727 1102L806 1092M727 1102L647 1125M727 1102L771 1146M806 1092L899 1054M806 1092L771 1146M899 1054L974 1085M974 1085L1020 1174M1086 1071L1156 1079M1086 1071L1106 1160M1156 1079L1217 1098M1156 1079L1211 1148M1217 1098L1188 1178M1217 1098L1211 1148M1217 1098L1286 1156M1354 1106L1429 1115M1354 1106L1453 1090M1354 1106L1286 1156M1354 1106L1403 1134M1429 1115L1453 1090M1429 1115L1403 1134M1429 1115L1516 1133M1429 1115L1414 1218M1453 1090L1403 1134M1453 1090L1516 1133M1556 1063L1629 1087M1556 1063L1516 1133M1629 1087L1727 1069M1629 1087L1643 1141M1727 1069L1773 1062M1727 1069L1643 1141M1727 1069L1715 1158M1773 1062L1838 1142M1914 1110L1973 1102M1914 1110L1838 1142M1914 1110L1884 1183M1914 1110L1992 1128M1914 1110L1883 1203M1973 1102L2043 1109M1973 1102L1992 1128M1973 1102L2002 1193M2043 1109L1992 1128M2043 1109L2002 1193M2043 1109L2129 1144M2154 1042L2204 1072M2154 1042L2129 1144M2204 1072L2256 1072M2204 1072L2129 1144M2204 1072L2237 1175M2256 1072L2237 1175M2361 1057L2405 1051M2405 1051L2417 1156M2518 1077L2515 1121M47 1122L132 1144M47 1122L-45 1121M2607 1122L2515 1121M132 1144L169 1176M169 1176L263 1178M169 1176L86 1252M169 1176L241 1208M263 1178L329 1177M263 1178L237 1270M263 1178L241 1208M329 1177L441 1155M329 1177L241 1208M329 1177L361 1229M441 1155L491 1183M441 1155L361 1229M491 1183L477 1262M491 1183L531 1244M491 1183L604 1231M617 1120L647 1125M617 1120L604 1231M647 1125L700 1209M771 1146L800 1199M771 1146L700 1209M800 1199L890 1192M800 1199L700 1209M800 1199L759 1255M890 1192L846 1276M890 1192L860 1294M1020 1174L1106 1160M1020 1174L999 1257M1020 1174L1064 1219M1020 1174L1121 1250M1106 1160L1188 1178M1106 1160L1064 1219M1106 1160L1121 1250M1188 1178L1211 1148M1188 1178L1286 1156M1188 1178L1121 1250M1211 1148L1286 1156M1211 1148L1279 1234M1286 1156L1279 1234M1403 1134L1414 1218M1516 1133L1522 1197M1522 1197L1414 1218M1522 1197L1516 1256M1522 1197L1578 1240M1522 1197L1479 1286M1643 1141L1715 1158M1643 1141L1646 1222M1715 1158L1646 1222M1715 1158L1696 1253M1715 1158L1764 1223M1838 1142L1884 1183M1838 1142L1764 1223M1838 1142L1883 1203M1884 1183L1883 1203M1884 1183L1982 1222M1992 1128L2002 1193M1992 1128L1982 1222M2002 1193L1982 1222M2002 1193L2070 1276M2237 1175L2291 1165M2237 1175L2199 1260M2291 1165L2395 1182M2291 1165L2291 1246M2395 1182L2417 1156M2395 1182L2354 1238M2395 1182L2421 1216M2395 1182L2465 1281M2417 1156L2515 1121M2417 1156L2421 1216M2515 1121L2569 1225M2515 1121L2523 1204M-45 1121L9 1225M9 1225L86 1252M9 1225L-37 1204M2569 1225L2523 1204M86 1252L63 1330M86 1252L150 1298M86 1252L114 1363M237 1270L241 1208M237 1270L150 1298M237 1270L225 1282M237 1270L286 1320M241 1208L225 1282M361 1229L346 1314M477 1262L531 1244M477 1262L404 1336M477 1262L509 1346M477 1262L565 1288M531 1244L604 1231M531 1244L565 1288M604 1231L700 1209M604 1231L565 1288M700 1209L759 1255M759 1255L846 1276M759 1255L717 1339M759 1255L756 1328M846 1276L921 1278M846 1276L860 1294M846 1276L910 1326M921 1278L999 1257M921 1278L860 1294M921 1278L910 1326M921 1278L981 1295M999 1257L1064 1219M999 1257L981 1295M999 1257L1051 1331M1064 1219L1121 1250M1121 1250L1051 1331M1279 1234L1285 1266M1279 1234L1321 1291M1285 1266L1220 1335M1285 1266L1321 1291M1414 1218L1516 1256M1414 1218L1479 1286M1516 1256L1578 1240M1516 1256L1479 1286M1516 1256L1522 1350M1578 1240L1646 1222M1578 1240L1662 1283M1646 1222L1696 1253M1646 1222L1662 1283M1696 1253L1764 1223M1696 1253L1662 1283M1696 1253L1698 1342M1764 1223L1662 1283M1764 1223L1777 1347M1883 1203L1982 1222M1982 1222L2070 1276M2070 1276L2088 1255M2070 1276L2039 1342M2070 1276L2091 1356M2088 1255L2199 1260M2088 1255L2091 1356M2199 1260L2291 1246M2199 1260L2224 1297M2291 1246L2354 1238M2291 1246L2224 1297M2291 1246L2303 1318M2354 1238L2421 1216M2354 1238L2303 1318M2354 1238L2347 1328M2421 1216L2523 1204M2421 1216L2465 1281M2523 1204L2465 1281M63 1330L150 1298M63 1330L-48 1336M63 1330L48 1387M63 1330L114 1363M2623 1330L2512 1336M150 1298L225 1282M150 1298L114 1363M225 1282L286 1320M225 1282L265 1374M286 1320L346 1314M286 1320L234 1404M286 1320L265 1374M346 1314L404 1336M346 1314L265 1374M346 1314L399 1384M404 1336L399 1384M404 1336L440 1379M509 1346L565 1288M509 1346L440 1379M509 1346L489 1392M509 1346L581 1423M717 1339L756 1328M717 1339L715 1417M756 1328L715 1417M860 1294L910 1326M860 1294L904 1362M910 1326L981 1295M910 1326L904 1362M981 1295L1051 1331M981 1295L904 1362M1051 1331L1103 1392M1051 1331L1128 1395M1154 1356L1220 1335M1154 1356L1103 1392M1154 1356L1128 1395M1154 1356L1227 1373M1220 1335L1321 1291M1220 1335L1227 1373M1321 1291L1411 1335M1321 1291L1325 1389M1411 1335L1479 1286M1411 1335L1522 1350M1411 1335L1325 1389M1411 1335L1421 1390M1479 1286L1522 1350M1522 1350L1482 1430M1522 1350L1593 1414M1662 1283L1698 1342M1698 1342L1777 1347M1698 1342L1623 1397M1698 1342L1756 1379M1777 1347L1756 1379M1777 1347L1814 1391M1913 1317L1973 1348M1913 1317L1977 1380M1913 1317L2001 1361M1973 1348L2039 1342M1973 1348L1977 1380M1973 1348L2001 1361M2039 1342L2091 1356M2039 1342L1977 1380M2039 1342L2001 1361M2091 1356L2001 1361M2091 1356L2155 1407M2224 1297L2303 1318M2224 1297L2155 1407M2303 1318L2347 1328M2303 1318L2326 1399M2347 1328L2326 1399M2465 1281L2512 1336M2512 1336L2608 1387M2512 1336L2473 1417M2512 1336L2495 1409M-48 1336L48 1387M48 1387L114 1363M48 1387L-65 1409M2608 1387L2495 1409M114 1363L234 1404M234 1404L265 1374M265 1374L399 1384M399 1384L440 1379M399 1384L489 1392M440 1379L489 1392M489 1392L581 1423M715 1417L758 1420M758 1420L828 1439M828 1439L904 1362M904 1362L991 1438M1103 1392L1128 1395M1227 1373L1325 1389M1421 1390L1482 1430M1593 1414L1623 1397M1756 1379L1814 1391M1814 1391L1875 1420M1977 1380L2001 1361M2155 1407L2195 1439M2195 1439L2283 1430M2283 1430L2326 1399M2473 1417L2495 1409"/></svg>