<svg xmlns="http://www.w3.org/2000/svg" width="2560" height="1440" fill="#fff"><circle cx="40" cy="49" r="6"/><circle cx="95" cy="2" r="5"/><circle cx="95" cy="1442" r="5"/><circle cx="173" cy="54" r="6"/><circle cx="248" cy="17" r="5"/><circle cx="337" cy="69" r="4"/><circle cx="478" cy="10" r="4"/><circle cx="497" cy="2" r="5"/><circle cx="497" cy="1442" r="5"/><circle cx="597" cy="4" r="6"/><circle cx="597" cy="1444" r="6"/><circle cx="664" cy="38" r="4"/><circle cx="736" cy="76" r="5"/><circle cx="878" cy="14" r="5"/><circle cx="933" cy="74" r="4"/><circle cx="976" cy="55" r="5"/><circle cx="1071" cy="40" r="5"/><circle cx="1173" cy="59" r="4"/><circle cx="1233" cy="80" r="4"/><circle cx="1324" cy="58" r="5"/><circle cx="1406" cy="11" r="5"/><circle cx="1462" cy="36" r="4"/><circle cx="1596" cy="62" r="6"/><circle cx="1677" cy="42" r="6"/><circle cx="1701" cy="2" r="6"/><circle cx="1701" cy="1442" r="6"/><circle cx="1804" cy="69" r="4"/><circle cx="1867" cy="46" r="6"/><circle cx="1941" cy="48" r="5"/><circle cx="2057" cy="28" r="4"/><circle cx="2135" cy="3" r="4"/><circle cx="2135" cy="1443" r="4"/><circle cx="2238" cy="46" r="6"/><circle cx="2282" cy="39" r="5"/><circle cx="2381" cy="55" r="5"/><circle cx="2404" cy="28" r="4"/><circle cx="2485" cy="33" r="4"/><circle cx="55" cy="149" r="5"/><circle cx="152" cy="87" r="5"/><circle cx="180" cy="84" r="5"/><circle cx="285" cy="133" r="6"/><circle cx="382" cy="123" r="5"/><circle cx="409" cy="83" r="5"/><circle cx="540" cy="144" r="6"/><circle cx="631" cy="101" r="5"/><circle cx="664" cy="82" r="6"/><circle cx="760" cy="95" r="6"/><circle cx="870" cy="144" r="5"/><circle cx="894" cy="149" r="5"/><circle cx="961" cy="117" r="4"/><circle cx="1074" cy="89" r="4"/><circle cx="1127" cy="131" r="5"/><circle cx="1276" cy="139" r="4"/><circle cx="1333" cy="111" r="5"/><circle cx="1385" cy="133" r="5"/><circle cx="1444" cy="83" r="4"/><circle cx="1580" cy="141" r="5"/><circle cx="1624" cy="122" r="5"/><circle cx="1718" cy="158" r="4"/><circle cx="1812" cy="152" r="5"/><circle cx="1885" cy="99" r="5"/><circle cx="1942" cy="146" r="4"/><circle cx="2012" cy="119" r="5"/><circle cx="2108" cy="153" r="4"/><circle cx="2186" cy="102" r="5"/><circle cx="2285" cy="158" r="4"/><circle cx="2388" cy="102" r="5"/><circle cx="2405" cy="91" r="4"/><circle cx="2557" cy="143" r="6"/><circle cx="-3" cy="143" r="6"/><circle cx="4" cy="172" r="5"/><circle cx="2564" cy="172" r="5"/><circle cx="120" cy="165" r="5"/><circle cx="219" cy="227" r="5"/><circle cx="260" cy="202" r="5"/><circle cx="395" cy="188" r="5"/><circle cx="462" cy="191" r="5"/><circle cx="555" cy="210" r="5"/><circle cx="618" cy="213" r="5"/><circle cx="712" cy="170" r="4"/><circle cx="783" cy="214" r="6"/><circle cx="869" cy="171" r="5"/><circle cx="949" cy="231" r="5"/><circle cx="1010" cy="195" r="5"/><circle cx="1100" cy="162" r="4"/><circle cx="1140" cy="182" r="5"/><circle cx="1227" cy="230" r="6"/><circle cx="1300" cy="191" r="5"/><circle cx="1419" cy="219" r="5"/><circle cx="1496" cy="215" r="6"/><circle cx="1574" cy="196" r="4"/><circle cx="1630" cy="162" r="5"/><circle cx="1746" cy="167" r="5"/><circle cx="1808" cy="236" r="4"/><circle cx="1889" cy="167" r="5"/><circle cx="1920" cy="182" r="5"/><circle cx="2024" cy="202" r="6"/><circle cx="2142" cy="187" r="6"/><circle cx="2191" cy="223" r="5"/><circle cx="2305" cy="229" r="5"/><circle cx="2378" cy="207" r="4"/><circle cx="2462" cy="179" r="5"/><circle cx="2532" cy="238" r="6"/><circle cx="52" cy="299" r="5"/><circle cx="114" cy="319" r="6"/><circle cx="199" cy="273" r="5"/><circle cx="255" cy="251" r="5"/><circle cx="399" cy="292" r="4"/><circle cx="454" cy="256" r="4"/><circle cx="486" cy="301" r="6"/><circle cx="590" cy="286" r="5"/><circle cx="710" cy="316" r="4"/><circle cx="755" cy="318" r="5"/><circle cx="838" cy="312" r="5"/><circle cx="888" cy="261" r="5"/><circle cx="1022" cy="288" r="5"/><circle cx="1119" cy="283" r="5"/><circle cx="1149" cy="250" r="5"/><circle cx="1258" cy="266" r="6"/><circle cx="1285" cy="299" r="5"/><circle cx="1387" cy="296" r="6"/><circle cx="1476" cy="318" r="4"/><circle cx="1558" cy="307" r="5"/><circle cx="1644" cy="271" r="5"/><circle cx="1739" cy="301" r="6"/><circle cx="1817" cy="281" r="5"/><circle cx="1857" cy="318" r="4"/><circle cx="1980" cy="299" r="5"/><circle cx="2049" cy="251" r="6"/><circle cx="2098" cy="311" r="4"/><circle cx="2226" cy="269" r="5"/><circle cx="2302" cy="276" r="4"/><circle cx="2328" cy="319" r="5"/><circle cx="2459" cy="242" r="4"/><circle cx="2485" cy="295" r="6"/><circle cx="20" cy="356" r="5"/><circle cx="146" cy="363" r="4"/><circle cx="219" cy="399" r="5"/><circle cx="270" cy="370" r="4"/><circle cx="333" cy="335" r="5"/><circle cx="418" cy="398" r="6"/><circle cx="492" cy="370" r="4"/><circle cx="578" cy="326" r="5"/><circle cx="643" cy="363" r="6"/><circle cx="777" cy="376" r="6"/><circle cx="826" cy="365" r="5"/><circle cx="884" cy="336" r="5"/><circle cx="991" cy="350" r="5"/><circle cx="1101" cy="368" r="5"/><circle cx="1184" cy="332" r="5"/><circle cx="1246" cy="347" r="5"/><circle cx="1302" cy="380" r="5"/><circle cx="1430" cy="329" r="5"/><circle cx="1460" cy="395" r="4"/><circle cx="1563" cy="326" r="6"/><circle cx="1642" cy="385" r="5"/><circle cx="1753" cy="371" r="4"/><circle cx="1817" cy="371" r="5"/><circle cx="1868" cy="338" r="6"/><circle cx="1985" cy="333" r="6"/><circle cx="2066" cy="326" r="4"/><circle cx="2149" cy="379" r="6"/><circle cx="2168" cy="337" r="6"/><circle cx="2252" cy="369" r="4"/><circle cx="2341" cy="390" r="6"/><circle cx="2421" cy="377" r="4"/><circle cx="2517" cy="366" r="4"/><circle cx="67" cy="448" r="5"/><circle cx="118" cy="460" r="4"/><circle cx="190" cy="464" r="5"/><circle cx="261" cy="474" r="6"/><circle cx="327" cy="434" r="4"/><circle cx="440" cy="470" r="6"/><circle cx="538" cy="447" r="4"/><circle cx="563" cy="417" r="6"/><circle cx="661" cy="441" r="6"/><circle cx="771" cy="442" r="4"/><circle cx="845" cy="430" r="4"/><circle cx="931" cy="406" r="5"/><circle cx="1001" cy="440" r="5"/><circle cx="1059" cy="468" r="4"/><circle cx="1194" cy="444" r="5"/><circle cx="1238" cy="426" r="6"/><circle cx="1297" cy="412" r="5"/><circle cx="1376" cy="413" r="4"/><circle cx="1502" cy="436" r="5"/><circle cx="1589" cy="457" r="4"/><circle cx="1615" cy="458" r="4"/><circle cx="1741" cy="405" r="4"/><circle cx="1798" cy="448" r="4"/><circle cx="1880" cy="440" r="4"/><circle cx="1991" cy="465" r="4"/><circle cx="2054" cy="430" r="5"/><circle cx="2111" cy="423" r="5"/><circle cx="2233" cy="463" r="5"/><circle cx="2295" cy="442" r="5"/><circle cx="2332" cy="473" r="5"/><circle cx="2413" cy="408" r="4"/><circle cx="2531" cy="430" r="6"/><circle cx="20" cy="559" r="5"/><circle cx="119" cy="555" r="5"/><circle cx="212" cy="490" r="6"/><circle cx="287" cy="489" r="5"/><circle cx="332" cy="521" r="5"/><circle cx="461" cy="527" r="5"/><circle cx="553" cy="508" r="5"/><circle cx="581" cy="534" r="5"/><circle cx="710" cy="485" r="5"/><circle cx="722" cy="541" r="5"/><circle cx="825" cy="484" r="6"/><circle cx="956" cy="485" r="5"/><circle cx="976" cy="509" r="6"/><circle cx="1069" cy="542" r="6"/><circle cx="1123" cy="520" r="6"/><circle cx="1254" cy="547" r="6"/><circle cx="1349" cy="499" r="5"/><circle cx="1423" cy="532" r="6"/><circle cx="1515" cy="522" r="5"/><circle cx="1550" cy="531" r="5"/><circle cx="1672" cy="494" r="5"/><circle cx="1686" cy="554" r="5"/><circle cx="1810" cy="560" r="6"/><circle cx="1870" cy="537" r="4"/><circle cx="1928" cy="511" r="6"/><circle cx="2078" cy="509" r="4"/><circle cx="2095" cy="484" r="5"/><circle cx="2202" cy="497" r="5"/><circle cx="2275" cy="514" r="4"/><circle cx="2389" cy="494" r="5"/><circle cx="2418" cy="538" r="4"/><circle cx="2559" cy="495" r="5"/><circle cx="-1" cy="495" r="5"/><circle cx="14" cy="636" r="4"/><circle cx="114" cy="603" r="5"/><circle cx="223" cy="608" r="5"/><circle cx="276" cy="620" r="5"/><circle cx="330" cy="567" r="6"/><circle cx="410" cy="637" r="5"/><circle cx="505" cy="610" r="6"/><circle cx="619" cy="564" r="6"/><circle cx="649" cy="589" r="5"/><circle cx="747" cy="637" r="5"/><circle cx="833" cy="563" r="6"/><circle cx="887" cy="603" r="5"/><circle cx="1037" cy="612" r="5"/><circle cx="1086" cy="586" r="5"/><circle cx="1173" cy="574" r="5"/><circle cx="1249" cy="565" r="4"/><circle cx="1351" cy="623" r="4"/><circle cx="1362" cy="586" r="5"/><circle cx="1447" cy="593" r="5"/><circle cx="1572" cy="639" r="4"/><circle cx="1649" cy="614" r="4"/><circle cx="1682" cy="592" r="6"/><circle cx="1825" cy="629" r="6"/><circle cx="1868" cy="628" r="5"/><circle cx="1941" cy="635" r="5"/><circle cx="2033" cy="638" r="4"/><circle cx="2149" cy="593" r="4"/><circle cx="2236" cy="579" r="4"/><circle cx="2314" cy="587" r="5"/><circle cx="2399" cy="583" r="4"/><circle cx="2420" cy="614" r="6"/><circle cx="2527" cy="563" r="6"/><circle cx="39" cy="707" r="5"/><circle cx="94" cy="671" r="6"/><circle cx="184" cy="710" r="4"/><circle cx="313" cy="693" r="4"/><circle cx="354" cy="686" r="5"/><circle cx="436" cy="714" r="5"/><circle cx="555" cy="687" r="6"/><circle cx="623" cy="678" r="5"/><circle cx="688" cy="642" r="4"/><circle cx="767" cy="710" r="6"/><circle cx="833" cy="719" r="5"/><circle cx="956" cy="705" r="4"/><circle cx="966" cy="672" r="6"/><circle cx="1064" cy="653" r="5"/><circle cx="1189" cy="644" r="6"/><circle cx="1272" cy="717" r="4"/><circle cx="1301" cy="653" r="5"/><circle cx="1394" cy="687" r="4"/><circle cx="1517" cy="666" r="4"/><circle cx="1567" cy="677" r="6"/><circle cx="1609" cy="646" r="6"/><circle cx="1712" cy="671" r="4"/><circle cx="1819" cy="675" r="4"/><circle cx="1901" cy="674" r="5"/><circle cx="1972" cy="655" r="5"/><circle cx="2063" cy="715" r="6"/><circle cx="2081" cy="670" r="6"/><circle cx="2209" cy="709" r="5"/><circle cx="2299" cy="679" r="6"/><circle cx="2362" cy="641" r="6"/><circle cx="2471" cy="675" r="5"/><circle cx="2511" cy="667" r="5"/><circle cx="23" cy="742" r="4"/><circle cx="92" cy="778" r="6"/><circle cx="199" cy="765" r="5"/><circle cx="276" cy="763" r="4"/><circle cx="384" cy="752" r="5"/><circle cx="470" cy="793" r="5"/><circle cx="515" cy="785" r="5"/><circle cx="585" cy="782" r="4"/><circle cx="716" cy="771" r="5"/><circle cx="777" cy="763" r="4"/><circle cx="834" cy="771" r="4"/><circle cx="952" cy="735" r="4"/><circle cx="973" cy="727" r="6"/><circle cx="1107" cy="769" r="5"/><circle cx="1163" cy="799" r="5"/><circle cx="1266" cy="772" r="5"/><circle cx="1286" cy="746" r="5"/><circle cx="1391" cy="746" r="5"/><circle cx="1485" cy="785" r="6"/><circle cx="1565" cy="781" r="5"/><circle cx="1632" cy="771" r="4"/><circle cx="1736" cy="771" r="4"/><circle cx="1836" cy="773" r="5"/><circle cx="1898" cy="743" r="5"/><circle cx="1961" cy="792" r="6"/><circle cx="2017" cy="770" r="5"/><circle cx="2106" cy="763" r="5"/><circle cx="2168" cy="724" r="5"/><circle cx="2288" cy="754" r="4"/><circle cx="2321" cy="798" r="4"/><circle cx="2401" cy="775" r="4"/><circle cx="2549" cy="733" r="5"/><circle cx="17" cy="843" r="4"/><circle cx="103" cy="844" r="6"/><circle cx="193" cy="806" r="4"/><circle cx="269" cy="850" r="6"/><circle cx="336" cy="842" r="4"/><circle cx="468" cy="850" r="5"/><circle cx="556" cy="860" r="6"/><circle cx="618" cy="849" r="5"/><circle cx="661" cy="827" r="6"/><circle cx="798" cy="832" r="5"/><circle cx="859" cy="843" r="5"/><circle cx="957" cy="853" r="5"/><circle cx="1010" cy="826" r="5"/><circle cx="1084" cy="810" r="6"/><circle cx="1175" cy="839" r="6"/><circle cx="1236" cy="805" r="5"/><circle cx="1328" cy="802" r="6"/><circle cx="1438" cy="871" r="6"/><circle cx="1456" cy="858" r="5"/><circle cx="1584" cy="855" r="6"/><circle cx="1650" cy="826" r="5"/><circle cx="1723" cy="880" r="6"/><circle cx="1833" cy="802" r="6"/><circle cx="1866" cy="863" r="6"/><circle cx="1968" cy="864" r="6"/><circle cx="2069" cy="875" r="5"/><circle cx="2084" cy="818" r="4"/><circle cx="2209" cy="876" r="5"/><circle cx="2306" cy="808" r="4"/><circle cx="2352" cy="815" r="6"/><circle cx="2418" cy="816" r="4"/><circle cx="2496" cy="819" r="6"/><circle cx="11" cy="924" r="4"/><circle cx="143" cy="901" r="5"/><circle cx="186" cy="948" r="5"/><circle cx="301" cy="898" r="4"/><circle cx="369" cy="920" r="4"/><circle cx="469" cy="890" r="6"/><circle cx="550" cy="917" r="5"/><circle cx="615" cy="914" r="4"/><circle cx="681" cy="900" r="4"/><circle cx="730" cy="898" r="5"/><circle cx="852" cy="908" r="4"/><circle cx="950" cy="959" r="5"/><circle cx="984" cy="927" r="5"/><circle cx="1048" cy="940" r="4"/><circle cx="1155" cy="933" r="6"/><circle cx="1224" cy="945" r="6"/><circle cx="1303" cy="928" r="6"/><circle cx="1438" cy="893" r="4"/><circle cx="1519" cy="896" r="6"/><circle cx="1597" cy="944" r="5"/><circle cx="1668" cy="899" r="4"/><circle cx="1685" cy="943" r="6"/><circle cx="1779" cy="890" r="5"/><circle cx="1888" cy="909" r="6"/><circle cx="1978" cy="914" r="5"/><circle cx="2076" cy="891" r="6"/><circle cx="2094" cy="919" r="4"/><circle cx="2175" cy="952" r="5"/><circle cx="2258" cy="937" r="4"/><circle cx="2326" cy="904" r="5"/><circle cx="2431" cy="949" r="4"/><circle cx="2555" cy="934" r="5"/><circle cx="-5" cy="934" r="5"/><circle cx="19" cy="972" r="4"/><circle cx="139" cy="975" r="5"/><circle cx="183" cy="1020" r="4"/><circle cx="259" cy="973" r="5"/><circle cx="395" cy="1010" r="4"/><circle cx="434" cy="992" r="5"/><circle cx="500" cy="1027" r="4"/><circle cx="601" cy="1012" r="5"/><circle cx="692" cy="1029" r="4"/><circle cx="770" cy="1035" r="6"/><circle cx="832" cy="1031" r="4"/><circle cx="905" cy="1020" r="4"/><circle cx="1008" cy="1012" r="5"/><circle cx="1094" cy="1029" r="4"/><circle cx="1177" cy="987" r="5"/><circle cx="1248" cy="992" r="6"/><circle cx="1331" cy="983" r="4"/><circle cx="1416" cy="967" r="4"/><circle cx="1498" cy="1012" r="4"/><circle cx="1580" cy="1031" r="4"/><circle cx="1628" cy="992" r="5"/><circle cx="1739" cy="1012" r="5"/><circle cx="1785" cy="987" r="6"/><circle cx="1867" cy="1018" r="5"/><circle cx="1929" cy="1010" r="6"/><circle cx="2072" cy="1024" r="5"/><circle cx="2134" cy="1016" r="5"/><circle cx="2233" cy="965" r="5"/><circle cx="2313" cy="992" r="5"/><circle cx="2342" cy="966" r="4"/><circle cx="2436" cy="964" r="4"/><circle cx="2540" cy="964" r="4"/><circle cx="77" cy="1044" r="5"/><circle cx="153" cy="1102" r="5"/><circle cx="172" cy="1061" r="5"/><circle cx="283" cy="1054" r="4"/><circle cx="327" cy="1100" r="5"/><circle cx="437" cy="1119" r="5"/><circle cx="499" cy="1087" r="6"/><circle cx="563" cy="1091" r="4"/><circle cx="714" cy="1066" r="4"/><circle cx="771" cy="1099" r="4"/><circle cx="807" cy="1097" r="5"/><circle cx="896" cy="1081" r="4"/><circle cx="1037" cy="1104" r="5"/><circle cx="1090" cy="1050" r="5"/><circle cx="1191" cy="1075" r="5"/><circle cx="1238" cy="1119" r="5"/><circle cx="1315" cy="1052" r="5"/><circle cx="1435" cy="1094" r="5"/><circle cx="1507" cy="1054" r="5"/><circle cx="1558" cy="1106" r="6"/><circle cx="1657" cy="1069" r="6"/><circle cx="1704" cy="1112" r="5"/><circle cx="1820" cy="1111" r="5"/><circle cx="1885" cy="1081" r="5"/><circle cx="1974" cy="1115" r="6"/><circle cx="2017" cy="1041" r="5"/><circle cx="2122" cy="1117" r="5"/><circle cx="2172" cy="1045" r="5"/><circle cx="2319" cy="1065" r="5"/><circle cx="2352" cy="1088" r="5"/><circle cx="2477" cy="1078" r="5"/><circle cx="2516" cy="1064" r="4"/><circle cx="13" cy="1176" r="5"/><circle cx="98" cy="1197" r="5"/><circle cx="181" cy="1153" r="6"/><circle cx="298" cy="1157" r="5"/><circle cx="379" cy="1147" r="5"/><circle cx="428" cy="1135" r="5"/><circle cx="512" cy="1128" r="6"/><circle cx="640" cy="1184" r="6"/><circle cx="682" cy="1151" r="6"/><circle cx="724" cy="1185" r="5"/><circle cx="834" cy="1169" r="5"/><circle cx="943" cy="1188" r="6"/><circle cx="1029" cy="1180" r="4"/><circle cx="1076" cy="1142" r="6"/><circle cx="1124" cy="1156" r="6"/><circle cx="1206" cy="1183" r="5"/><circle cx="1331" cy="1156" r="4"/><circle cx="1390" cy="1188" r="5"/><circle cx="1505" cy="1133" r="4"/><circle cx="1549" cy="1185" r="5"/><circle cx="1620" cy="1153" r="6"/><circle cx="1744" cy="1138" r="4"/><circle cx="1798" cy="1176" r="5"/><circle cx="1876" cy="1162" r="6"/><circle cx="1936" cy="1132" r="4"/><circle cx="2069" cy="1151" r="4"/><circle cx="2117" cy="1170" r="5"/><circle cx="2191" cy="1156" r="4"/><circle cx="2247" cy="1130" r="5"/><circle cx="2324" cy="1145" r="4"/><circle cx="2446" cy="1194" r="6"/><circle cx="2559" cy="1179" r="6"/><circle cx="-1" cy="1179" r="6"/><circle cx="9" cy="1247" r="4"/><circle cx="136" cy="1251" r="5"/><circle cx="171" cy="1244" r="4"/><circle cx="269" cy="1238" r="4"/><circle cx="394" cy="1232" r="6"/><circle cx="438" cy="1242" r="5"/><circle cx="525" cy="1250" r="5"/><circle cx="596" cy="1273" r="6"/><circle cx="668" cy="1213" r="5"/><circle cx="767" cy="1256" r="5"/><circle cx="873" cy="1228" r="6"/><circle cx="935" cy="1255" r="6"/><circle cx="966" cy="1222" r="5"/><circle cx="1111" cy="1232" r="5"/><circle cx="1198" cy="1278" r="6"/><circle cx="1207" cy="1251" r="4"/><circle cx="1300" cy="1213" r="6"/><circle cx="1435" cy="1238" r="5"/><circle cx="1455" cy="1261" r="5"/><circle cx="1573" cy="1224" r="6"/><circle cx="1618" cy="1206" r="5"/><circle cx="1726" cy="1205" r="4"/><circle cx="1808" cy="1241" r="5"/><circle cx="1898" cy="1221" r="6"/><circle cx="1926" cy="1245" r="6"/><circle cx="2039" cy="1236" r="6"/><circle cx="2106" cy="1253" r="5"/><circle cx="2179" cy="1251" r="4"/><circle cx="2278" cy="1255" r="5"/><circle cx="2361" cy="1246" r="6"/><circle cx="2424" cy="1245" r="5"/><circle cx="2500" cy="1218" r="5"/><circle cx="46" cy="1322" r="5"/><circle cx="113" cy="1360" r="5"/><circle cx="202" cy="1349" r="5"/><circle cx="262" cy="1296" r="6"/><circle cx="376" cy="1306" r="4"/><circle cx="403" cy="1318" r="5"/><circle cx="491" cy="1319" r="6"/><circle cx="602" cy="1300" r="5"/><circle cx="673" cy="1343" r="6"/><circle cx="735" cy="1343" r="5"/><circle cx="856" cy="1294" r="5"/><circle cx="935" cy="1353" r="6"/><circle cx="1012" cy="1309" r="5"/><circle cx="1053" cy="1311" r="5"/><circle cx="1150" cy="1284" r="5"/><circle cx="1210" cy="1328" r="6"/><circle cx="1287" cy="1348" r="5"/><circle cx="1428" cy="1328" r="4"/><circle cx="1481" cy="1346" r="5"/><circle cx="1566" cy="1347" r="5"/><circle cx="1667" cy="1315" r="6"/><circle cx="1701" cy="1326" r="5"/><circle cx="1833" cy="1292" r="5"/><circle cx="1843" cy="1341" r="6"/><circle cx="1941" cy="1286" r="4"/><circle cx="2040" cy="1281" r="5"/><circle cx="2134" cy="1282" r="5"/><circle cx="2235" cy="1341" r="4"/><circle cx="2296" cy="1282" r="6"/><circle cx="2352" cy="1292" r="6"/><circle cx="2402" cy="1308" r="5"/><circle cx="2506" cy="1313" r="5"/><circle cx="43" cy="1384" r="4"/><circle cx="146" cy="1383" r="5"/><circle cx="191" cy="1437" r="5"/><circle cx="191" cy="-3" r="5"/><circle cx="273" cy="1435" r="4"/><circle cx="354" cy="1438" r="5"/><circle cx="354" cy="-2" r="5"/><circle cx="406" cy="1419" r="6"/><circle cx="554" cy="1424" r="4"/><circle cx="593" cy="1419" r="5"/><circle cx="641" cy="1439" r="5"/><circle cx="641" cy="-1" r="5"/><circle cx="788" cy="1383" r="5"/><circle cx="825" cy="1439" r="4"/><circle cx="825" cy="-1" r="4"/><circle cx="939" cy="1393" r="6"/><circle cx="1035" cy="1365" r="6"/><circle cx="1043" cy="1378" r="5"/><circle cx="1150" cy="1402" r="5"/><circle cx="1216" cy="1364" r="6"/><circle cx="1322" cy="1362" r="4"/><circle cx="1431" cy="1374" r="5"/><circle cx="1509" cy="1399" r="5"/><circle cx="1549" cy="1368" r="5"/><circle cx="1606" cy="1423" r="5"/><circle cx="1701" cy="1389" r="5"/><circle cx="1810" cy="1370" r="4"/><circle cx="1854" cy="1371" r="6"/><circle cx="1999" cy="1396" r="6"/><circle cx="2052" cy="1366" r="5"/><circle cx="2110" cy="1366" r="5"/><circle cx="2178" cy="1437" r="5"/><circle cx="2178" cy="-3" r="5"/><circle cx="2277" cy="1363" r="6"/><circle cx="2392" cy="1403" r="6"/><circle cx="2440" cy="1435" r="5"/><circle cx="2440" cy="-5" r="5"/><circle cx="2528" cy="1380" r="5"/><path stroke="#fff" d="M40 49L95 2M40 49L-75 33M40 49L55 149M40 49L-3 143M40 49L43 -56M2600 49L2485 33M2600 49L2557 143M40 1489L43 1384M95 2L173 54M95 2L113 -80M95 2L43 -56M95 2L146 -57M95 1442L113 1360M95 1442L43 1384M95 1442L146 1383M173 54L248 17M173 54L152 87M173 54L180 84M173 54L191 -3M173 1494L191 1437M248 17L337 69M248 17L180 84M248 17L191 -3M248 17L273 -5M248 1457L191 1437M248 1457L273 1435M337 69L285 133M337 69L382 123M337 69L409 83M337 69L354 -2M337 1509L354 1438M478 10L497 2M478 10L406 -21M478 10L554 -16M478 1450L406 1419M478 1450L554 1424M497 2L406 -21M497 2L554 -16M497 2L593 -21M497 1442L406 1419M497 1442L554 1424M497 1442L593 1419M597 4L664 38M597 4L554 -16M597 4L593 -21M597 4L641 -1M597 1444L554 1424M597 1444L593 1419M597 1444L641 1439M664 38L631 101M664 38L664 82M664 38L593 -21M664 38L641 -1M664 1478L593 1419M664 1478L641 1439M736 76L631 101M736 76L664 82M736 76L760 95M736 76L712 170M878 14L933 74M878 14L976 55M878 14L825 -1M878 14L939 -47M878 1454L825 1439M878 1454L939 1393M933 74L976 55M933 74L870 144M933 74L894 149M933 74L961 117M976 55L1071 40M976 55L961 117M976 55L939 -47M976 1495L939 1393M1071 40L1173 59M1071 40L1074 89M1071 40L1127 131M1071 40L1043 -62M1071 1480L1043 1378M1173 59L1233 80M1173 59L1074 89M1173 59L1127 131M1173 59L1150 -38M1173 1499L1150 1402M1233 80L1324 58M1233 80L1276 139M1233 80L1333 111M1324 58L1406 11M1324 58L1276 139M1324 58L1333 111M1324 58L1385 133M1406 11L1462 36M1406 11L1444 83M1406 11L1431 -66M1406 1451L1431 1374M1462 36L1444 83M1596 62L1677 42M1596 62L1580 141M1596 62L1624 122M1596 62L1630 162M1596 62L1606 -17M1596 1502L1606 1423M1677 42L1701 2M1677 42L1624 122M1677 42L1606 -17M1677 42L1701 -51M1677 1482L1606 1423M1677 1482L1701 1389M1701 2L1701 -114M1701 2L1606 -17M1701 2L1701 -51M1701 1442L1701 1326M1701 1442L1606 1423M1701 1442L1701 1389M1804 69L1867 46M1804 69L1812 152M1804 69L1746 167M1867 46L1941 48M1867 46L1885 99M1867 46L1854 -69M1867 1486L1854 1371M1941 48L1885 99M1941 48L2012 119M1941 48L1999 -44M1941 1488L1999 1396M2057 28L2135 3M2057 28L2012 119M2057 28L1999 -44M2057 28L2052 -74M2057 1468L1999 1396M2057 1468L2052 1366M2135 3L2238 46M2135 3L2186 102M2135 3L2110 -74M2135 3L2178 -3M2135 1443L2110 1366M2135 1443L2178 1437M2238 46L2282 39M2238 46L2186 102M2238 46L2178 -3M2238 1486L2178 1437M2282 39L2178 -3M2282 39L2277 -77M2282 1479L2178 1437M2282 1479L2277 1363M2381 55L2404 28M2381 55L2388 102M2381 55L2405 91M2381 55L2392 -37M2381 55L2440 -5M2381 1495L2392 1403M2381 1495L2440 1435M2404 28L2388 102M2404 28L2405 91M2404 28L2392 -37M2404 28L2440 -5M2404 1468L2392 1403M2404 1468L2440 1435M2485 33L2440 -5M2485 33L2528 -60M2485 1473L2440 1435M2485 1473L2528 1380M55 149L-3 143M55 149L4 172M55 149L120 165M2615 149L2557 143M152 87L180 84M152 87L120 165M180 84L120 165M285 133L382 123M285 133L219 227M285 133L260 202M285 133L255 251M382 123L409 83M382 123L395 188M382 123L462 191M409 83L395 188M409 83L354 -2M409 83L406 -21M409 1523L354 1438M409 1523L406 1419M540 144L631 101M540 144L462 191M540 144L555 210M540 144L618 213M631 101L664 82M664 82L760 95M664 82L641 -1M664 1522L641 1439M760 95L712 170M760 95L825 -1M760 1535L825 1439M870 144L894 149M870 144L961 117M870 144L869 171M894 149L961 117M894 149L869 171M894 149L949 231M961 117L1010 195M1074 89L1127 131M1074 89L1100 162M1127 131L1100 162M1127 131L1140 182M1276 139L1333 111M1276 139L1300 191M1333 111L1385 133M1333 111L1300 191M1385 133L1444 83M1385 133L1419 219M1580 141L1624 122M1580 141L1496 215M1580 141L1574 196M1580 141L1630 162M1624 122L1574 196M1624 122L1630 162M1718 158L1630 162M1718 158L1746 167M1812 152L1746 167M1812 152L1808 236M1812 152L1889 167M1885 99L1942 146M1885 99L1889 167M1885 99L1920 182M1942 146L2012 119M1942 146L1889 167M1942 146L1920 182M2012 119L2108 153M2012 119L2024 202M2108 153L2186 102M2108 153L2024 202M2108 153L2142 187M2186 102L2142 187M2186 102L2178 -3M2186 1542L2178 1437M2285 158L2191 223M2285 158L2305 229M2388 102L2405 91M2388 102L2378 207M2557 143L2564 172M2557 143L2462 179M2557 143L2532 238M-3 143L4 172M4 172L120 165M4 172L-98 179M4 172L-28 238M2564 172L2462 179M2564 172L2532 238M120 165L219 227M219 227L260 202M219 227L199 273M219 227L255 251M260 202L199 273M260 202L255 251M395 188L462 191M395 188L399 292M395 188L454 256M462 191L555 210M462 191L454 256M555 210L618 213M555 210L590 286M618 213L712 170M618 213L590 286M712 170L783 214M783 214L869 171M783 214L755 318M783 214L888 261M869 171L949 231M869 171L888 261M949 231L1010 195M949 231L888 261M949 231L1022 288M1010 195L1100 162M1010 195L1022 288M1100 162L1140 182M1140 182L1227 230M1140 182L1119 283M1140 182L1149 250M1227 230L1300 191M1227 230L1149 250M1227 230L1258 266M1227 230L1285 299M1300 191L1258 266M1419 219L1496 215M1419 219L1387 296M1419 219L1430 329M1496 215L1574 196M1496 215L1558 307M1574 196L1630 162M1574 196L1644 271M1746 167L1808 236M1808 236L1889 167M1808 236L1739 301M1808 236L1817 281M1889 167L1920 182M1920 182L2024 202M2024 202L1980 299M2024 202L2049 251M2142 187L2191 223M2142 187L2226 269M2191 223L2226 269M2305 229L2378 207M2305 229L2226 269M2305 229L2302 276M2305 229L2328 319M2378 207L2462 179M2378 207L2302 276M2378 207L2459 242M2462 179L2532 238M2462 179L2459 242M2532 238L2459 242M2532 238L2485 295M52 299L114 319M52 299L20 356M114 319L199 273M114 319L20 356M114 319L146 363M199 273L255 251M199 273L146 363M255 251L333 335M399 292L454 256M399 292L486 301M399 292L333 335M399 292L418 398M454 256L486 301M486 301L590 286M486 301L492 370M486 301L578 326M590 286L578 326M590 286L643 363M710 316L755 318M710 316L643 363M755 318L838 312M755 318L777 376M755 318L826 365M838 312L888 261M838 312L777 376M838 312L826 365M838 312L884 336M888 261L884 336M1022 288L1119 283M1022 288L991 350M1022 288L1101 368M1119 283L1149 250M1119 283L1101 368M1119 283L1184 332M1149 250L1184 332M1258 266L1285 299M1258 266L1184 332M1258 266L1246 347M1285 299L1387 296M1285 299L1246 347M1285 299L1302 380M1387 296L1476 318M1387 296L1430 329M1476 318L1558 307M1476 318L1430 329M1476 318L1460 395M1476 318L1563 326M1558 307L1644 271M1558 307L1563 326M1644 271L1739 301M1644 271L1563 326M1739 301L1817 281M1739 301L1753 371M1817 281L1857 318M1817 281L1868 338M1857 318L1817 371M1857 318L1868 338M1980 299L2049 251M1980 299L1985 333M1980 299L2066 326M2049 251L2098 311M2049 251L1985 333M2049 251L2066 326M2098 311L2066 326M2098 311L2149 379M2098 311L2168 337M2226 269L2302 276M2226 269L2168 337M2302 276L2328 319M2328 319L2252 369M2328 319L2341 390M2328 319L2421 377M2459 242L2485 295M2485 295L2580 356M2485 295L2421 377M2485 295L2517 366M-75 295L20 356M20 356L-43 366M20 356L-29 430M2580 356L2517 366M2580 356L2531 430M146 363L219 399M146 363L118 460M219 399L270 370M219 399L190 464M219 399L212 490M270 370L333 335M270 370L327 434M333 335L418 398M418 398L492 370M418 398L327 434M418 398L440 470M492 370L578 326M492 370L538 447M578 326L643 363M578 326L563 417M643 363L563 417M643 363L661 441M777 376L826 365M777 376L771 442M777 376L845 430M826 365L884 336M826 365L845 430M884 336L991 350M884 336L931 406M991 350L1101 368M991 350L931 406M991 350L1001 440M1101 368L1184 332M1184 332L1246 347M1246 347L1302 380M1246 347L1238 426M1302 380L1238 426M1302 380L1297 412M1302 380L1376 413M1430 329L1460 395M1430 329L1376 413M1460 395L1376 413M1460 395L1502 436M1563 326L1642 385M1642 385L1589 457M1642 385L1615 458M1642 385L1741 405M1642 385L1672 494M1753 371L1817 371M1753 371L1741 405M1753 371L1798 448M1817 371L1868 338M1817 371L1741 405M1817 371L1798 448M1868 338L1985 333M1868 338L1880 440M1985 333L2066 326M1985 333L2054 430M2066 326L2149 379M2149 379L2168 337M2149 379L2111 423M2168 337L2252 369M2168 337L2111 423M2252 369L2233 463M2252 369L2295 442M2341 390L2421 377M2341 390L2295 442M2341 390L2332 473M2341 390L2413 408M2421 377L2517 366M2421 377L2413 408M2517 366L2413 408M2517 366L2531 430M67 448L118 460M67 448L-29 430M67 448L-1 495M2627 448L2531 430M2627 448L2559 495M118 460L190 464M118 460L119 555M118 460L212 490M190 464L261 474M190 464L212 490M261 474L327 434M261 474L212 490M261 474L287 489M261 474L332 521M327 434L287 489M327 434L332 521M440 470L538 447M440 470L332 521M440 470L461 527M538 447L563 417M538 447L553 508M538 447L581 534M563 417L661 441M563 417L553 508M661 441L771 442M661 441L710 485M771 442L845 430M771 442L710 485M771 442L825 484M845 430L931 406M845 430L825 484M931 406L1001 440M931 406L956 485M1001 440L1059 468M1001 440L956 485M1001 440L976 509M1059 468L956 485M1059 468L976 509M1059 468L1069 542M1059 468L1123 520M1194 444L1238 426M1194 444L1297 412M1194 444L1123 520M1238 426L1297 412M1238 426L1254 547M1297 412L1376 413M1297 412L1349 499M1376 413L1349 499M1502 436L1589 457M1502 436L1423 532M1502 436L1515 522M1502 436L1550 531M1589 457L1615 458M1589 457L1550 531M1589 457L1672 494M1615 458L1550 531M1615 458L1672 494M1741 405L1798 448M1798 448L1880 440M1880 440L1991 465M1880 440L1870 537M1880 440L1928 511M1991 465L2054 430M1991 465L1928 511M1991 465L2078 509M1991 465L2095 484M2054 430L2111 423M2054 430L2078 509M2054 430L2095 484M2111 423L2078 509M2111 423L2095 484M2233 463L2295 442M2233 463L2332 473M2233 463L2202 497M2233 463L2275 514M2295 442L2332 473M2295 442L2275 514M2332 473L2275 514M2332 473L2389 494M2413 408L2389 494M2531 430L2559 495M20 559L119 555M20 559L-1 495M20 559L14 636M20 559L114 603M20 559L-33 563M2580 559L2559 495M2580 559L2527 563M119 555L114 603M212 490L287 489M287 489L332 521M287 489L330 567M332 521L330 567M461 527L553 508M461 527L505 610M553 508L581 534M553 508L619 564M581 534L505 610M581 534L619 564M581 534L649 589M710 485L722 541M710 485L825 484M722 541L619 564M722 541L649 589M722 541L747 637M722 541L833 563M825 484L956 485M825 484L833 563M956 485L976 509M976 509L1069 542M976 509L1037 612M1069 542L1123 520M1069 542L1037 612M1069 542L1086 586M1123 520L1086 586M1123 520L1173 574M1254 547L1349 499M1254 547L1173 574M1254 547L1249 565M1254 547L1189 644M1349 499L1423 532M1349 499L1362 586M1423 532L1515 522M1423 532L1362 586M1423 532L1447 593M1515 522L1550 531M1515 522L1447 593M1550 531L1572 639M1672 494L1686 554M1672 494L1682 592M1686 554L1810 560M1686 554L1649 614M1686 554L1682 592M1810 560L1870 537M1810 560L1928 511M1810 560L1825 629M1810 560L1868 628M1870 537L1928 511M2078 509L2095 484M2095 484L2202 497M2202 497L2275 514M2202 497L2149 593M2202 497L2236 579M2275 514L2314 587M2389 494L2418 538M2389 494L2399 583M2418 538L2399 583M2418 538L2420 614M2418 538L2527 563M2559 495L2527 563M14 636L-33 563M14 636L39 707M14 636L94 671M14 636L-49 667M2574 636L2527 563M2574 636L2511 667M114 603L223 608M114 603L94 671M223 608L276 620M223 608L184 710M276 620L330 567M276 620L313 693M276 620L354 686M330 567L410 637M410 637L505 610M410 637L354 686M410 637L436 714M505 610L555 687M619 564L649 589M619 564L688 642M649 589L623 678M649 589L688 642M747 637L833 563M747 637L688 642M747 637L767 710M747 637L833 719M833 563L887 603M1037 612L1086 586M1037 612L966 672M1037 612L1064 653M1086 586L1173 574M1086 586L1064 653M1173 574L1249 565M1173 574L1189 644M1249 565L1189 644M1351 623L1362 586M1351 623L1447 593M1351 623L1301 653M1351 623L1394 687M1362 586L1447 593M1362 586L1301 653M1447 593L1517 666M1572 639L1649 614M1572 639L1517 666M1572 639L1567 677M1572 639L1609 646M1649 614L1682 592M1649 614L1609 646M1649 614L1712 671M1682 592L1609 646M1682 592L1712 671M1825 629L1868 628M1825 629L1941 635M1825 629L1819 675M1825 629L1901 674M1868 628L1941 635M1868 628L1819 675M1868 628L1901 674M1941 635L2033 638M1941 635L1901 674M1941 635L1972 655M2033 638L1972 655M2033 638L2063 715M2033 638L2081 670M2149 593L2236 579M2236 579L2314 587M2236 579L2299 679M2314 587L2399 583M2314 587L2299 679M2314 587L2362 641M2399 583L2420 614M2399 583L2362 641M2420 614L2362 641M2420 614L2471 675M2420 614L2511 667M2527 563L2511 667M39 707L94 671M39 707L23 742M39 707L92 778M39 707L-11 733M2599 707L2549 733M94 671L184 710M94 671L92 778M184 710L199 765M313 693L354 686M313 693L276 763M313 693L384 752M354 686L436 714M354 686L384 752M436 714L384 752M436 714L470 793M555 687L623 678M555 687L515 785M555 687L585 782M623 678L688 642M767 710L833 719M767 710L716 771M767 710L777 763M767 710L834 771M833 719L777 763M833 719L834 771M956 705L966 672M956 705L952 735M956 705L973 727M966 672L1064 653M966 672L952 735M966 672L973 727M1064 653L973 727M1064 653L1107 769M1189 644L1301 653M1272 717L1301 653M1272 717L1266 772M1272 717L1286 746M1272 717L1328 802M1301 653L1286 746M1394 687L1391 746M1517 666L1567 677M1517 666L1609 646M1567 677L1609 646M1567 677L1565 781M1567 677L1632 771M1712 671L1736 771M1819 675L1836 773M1819 675L1898 743M1901 674L1972 655M1901 674L1898 743M1972 655L2063 715M1972 655L2081 670M2063 715L2081 670M2063 715L2017 770M2063 715L2106 763M2081 670L2106 763M2081 670L2168 724M2209 709L2299 679M2209 709L2168 724M2209 709L2288 754M2299 679L2362 641M2299 679L2288 754M2362 641L2471 675M2471 675L2511 667M2471 675L2549 733M2511 667L2549 733M23 742L92 778M23 742L-11 733M23 742L17 843M23 742L-64 819M2583 742L2549 733M2583 742L2496 819M92 778L199 765M92 778L103 844M199 765L276 763M199 765L193 806M199 765L269 850M276 763L193 806M276 763L269 850M384 752L470 793M384 752L336 842M470 793L515 785M470 793L468 850M470 793L469 890M515 785L585 782M515 785L468 850M515 785L556 860M585 782L618 849M585 782L661 827M716 771L777 763M716 771L661 827M777 763L834 771M777 763L798 832M834 771L798 832M834 771L859 843M952 735L973 727M973 727L1010 826M1107 769L1163 799M1107 769L1010 826M1107 769L1084 810M1107 769L1175 839M1163 799L1084 810M1163 799L1175 839M1163 799L1236 805M1266 772L1286 746M1266 772L1236 805M1266 772L1328 802M1286 746L1236 805M1286 746L1328 802M1391 746L1485 785M1391 746L1328 802M1485 785L1565 781M1485 785L1438 871M1485 785L1456 858M1565 781L1632 771M1565 781L1584 855M1565 781L1650 826M1632 771L1650 826M1736 771L1836 773M1736 771L1833 802M1836 773L1898 743M1836 773L1833 802M1836 773L1866 863M1898 743L1961 792M1898 743L1833 802M1961 792L2017 770M1961 792L1968 864M2017 770L2106 763M2017 770L2084 818M2106 763L2168 724M2106 763L2084 818M2288 754L2321 798M2288 754L2306 808M2321 798L2401 775M2321 798L2306 808M2321 798L2352 815M2401 775L2306 808M2401 775L2352 815M2401 775L2418 816M2401 775L2496 819M2549 733L2496 819M17 843L103 844M17 843L-64 819M17 843L11 924M17 843L-5 934M2577 843L2496 819M2577 843L2555 934M103 844L193 806M103 844L11 924M103 844L143 901M193 806L269 850M193 806L143 901M269 850L336 842M269 850L301 898M336 842L301 898M336 842L369 920M468 850L469 890M468 850L550 917M556 860L618 849M556 860L469 890M556 860L550 917M556 860L615 914M618 849L661 827M618 849L615 914M618 849L681 900M661 827L681 900M661 827L730 898M798 832L859 843M798 832L730 898M798 832L852 908M859 843L957 853M859 843L852 908M957 853L1010 826M957 853L950 959M957 853L984 927M1010 826L1084 810M1010 826L984 927M1084 810L1175 839M1175 839L1236 805M1175 839L1155 933M1236 805L1328 802M1438 871L1456 858M1438 871L1438 893M1438 871L1519 896M1438 871L1416 967M1456 858L1438 893M1456 858L1519 896M1584 855L1650 826M1584 855L1519 896M1584 855L1597 944M1584 855L1668 899M1650 826L1723 880M1650 826L1668 899M1723 880L1668 899M1723 880L1685 943M1723 880L1779 890M1723 880L1785 987M1833 802L1866 863M1833 802L1779 890M1866 863L1968 864M1866 863L1779 890M1866 863L1888 909M1968 864L2069 875M1968 864L1888 909M1968 864L1978 914M2069 875L2084 818M2069 875L1978 914M2069 875L2076 891M2069 875L2094 919M2084 818L2076 891M2209 876L2175 952M2209 876L2258 937M2209 876L2233 965M2306 808L2352 815M2306 808L2326 904M2352 815L2418 816M2352 815L2326 904M2418 816L2496 819M11 924L-5 934M11 924L19 972M11 924L-20 964M2571 924L2555 934M2571 924L2540 964M143 901L186 948M143 901L139 975M186 948L139 975M186 948L183 1020M186 948L259 973M301 898L369 920M301 898L259 973M369 920L395 1010M369 920L434 992M469 890L550 917M469 890L434 992M550 917L615 914M550 917L601 1012M615 914L681 900M615 914L601 1012M681 900L730 898M950 959L984 927M950 959L1048 940M950 959L905 1020M950 959L1008 1012M984 927L1048 940M984 927L1008 1012M1048 940L1155 933M1048 940L1008 1012M1155 933L1224 945M1155 933L1177 987M1224 945L1303 928M1224 945L1177 987M1224 945L1248 992M1224 945L1331 983M1303 928L1248 992M1303 928L1331 983M1303 928L1416 967M1303 928L1315 1052M1438 893L1519 896M1438 893L1416 967M1519 896L1597 944M1597 944L1668 899M1597 944L1685 943M1597 944L1628 992M1668 899L1685 943M1685 943L1628 992M1685 943L1739 1012M1779 890L1785 987M1888 909L1978 914M1888 909L1867 1018M1888 909L1929 1010M1978 914L2076 891M2076 891L2094 919M2094 919L2072 1024M2175 952L2258 937M2175 952L2134 1016M2175 952L2233 965M2175 952L2172 1045M2258 937L2326 904M2258 937L2233 965M2258 937L2313 992M2326 904L2313 992M2326 904L2342 966M2431 949L2342 966M2431 949L2436 964M2555 934L2579 972M2555 934L2436 964M2555 934L2540 964M-5 934L19 972M19 972L-20 964M19 972L77 1044M2579 972L2540 964M139 975L183 1020M139 975L77 1044M139 975L172 1061M183 1020L259 973M183 1020L153 1102M183 1020L172 1061M259 973L283 1054M395 1010L434 992M434 992L500 1027M500 1027L601 1012M500 1027L499 1087M500 1027L563 1091M500 1027L512 1128M601 1012L692 1029M601 1012L563 1091M692 1029L770 1035M692 1029L714 1066M770 1035L832 1031M770 1035L714 1066M770 1035L771 1099M770 1035L807 1097M832 1031L905 1020M832 1031L807 1097M832 1031L896 1081M905 1020L896 1081M1008 1012L1094 1029M1008 1012L1090 1050M1094 1029L1177 987M1094 1029L1037 1104M1094 1029L1090 1050M1177 987L1248 992M1177 987L1191 1075M1248 992L1331 983M1248 992L1315 1052M1331 983L1416 967M1331 983L1315 1052M1416 967L1498 1012M1498 1012L1580 1031M1498 1012L1435 1094M1498 1012L1507 1054M1580 1031L1628 992M1580 1031L1507 1054M1580 1031L1558 1106M1580 1031L1657 1069M1628 992L1739 1012M1628 992L1657 1069M1739 1012L1785 987M1739 1012L1657 1069M1739 1012L1704 1112M1785 987L1867 1018M1867 1018L1929 1010M1867 1018L1820 1111M1867 1018L1885 1081M1929 1010L1885 1081M1929 1010L1974 1115M1929 1010L2017 1041M2072 1024L2134 1016M2072 1024L2017 1041M2072 1024L2122 1117M2072 1024L2172 1045M2134 1016L2172 1045M2233 965L2313 992M2233 965L2172 1045M2313 992L2342 966M2313 992L2319 1065M2342 966L2436 964M2342 966L2319 1065M2436 964L2540 964M2540 964L2516 1064M77 1044L153 1102M77 1044L172 1061M77 1044L-44 1064M2637 1044L2516 1064M153 1102L172 1061M153 1102L181 1153M172 1061L181 1153M283 1054L327 1100M283 1054L298 1157M327 1100L437 1119M327 1100L298 1157M327 1100L379 1147M437 1119L499 1087M437 1119L379 1147M437 1119L428 1135M437 1119L512 1128M499 1087L563 1091M499 1087L428 1135M499 1087L512 1128M563 1091L512 1128M563 1091L640 1184M714 1066L771 1099M714 1066L682 1151M771 1099L807 1097M771 1099L682 1151M771 1099L834 1169M807 1097L896 1081M807 1097L834 1169M1037 1104L1090 1050M1037 1104L1029 1180M1037 1104L1076 1142M1037 1104L1124 1156M1090 1050L1191 1075M1090 1050L1076 1142M1191 1075L1238 1119M1191 1075L1124 1156M1238 1119L1315 1052M1238 1119L1206 1183M1238 1119L1331 1156M1238 1119L1300 1213M1315 1052L1331 1156M1435 1094L1507 1054M1435 1094L1390 1188M1435 1094L1505 1133M1507 1054L1558 1106M1507 1054L1505 1133M1558 1106L1505 1133M1558 1106L1549 1185M1558 1106L1620 1153M1657 1069L1704 1112M1657 1069L1620 1153M1704 1112L1744 1138M1704 1112L1726 1205M1820 1111L1885 1081M1820 1111L1744 1138M1820 1111L1798 1176M1820 1111L1876 1162M1885 1081L1876 1162M1885 1081L1936 1132M1974 1115L2017 1041M1974 1115L1936 1132M1974 1115L2069 1151M2122 1117L2172 1045M2122 1117L2069 1151M2122 1117L2117 1170M2122 1117L2191 1156M2319 1065L2352 1088M2319 1065L2247 1130M2319 1065L2324 1145M2352 1088L2477 1078M2352 1088L2247 1130M2352 1088L2324 1145M2477 1078L2516 1064M2477 1078L2446 1194M13 1176L98 1197M13 1176L-1 1179M13 1176L9 1247M13 1176L-60 1218M2573 1176L2559 1179M2573 1176L2500 1218M98 1197L181 1153M98 1197L-1 1179M98 1197L136 1251M98 1197L171 1244M2658 1197L2559 1179M181 1153L136 1251M181 1153L171 1244M298 1157L379 1147M298 1157L269 1238M379 1147L428 1135M379 1147L394 1232M428 1135L512 1128M428 1135L394 1232M640 1184L682 1151M640 1184L724 1185M640 1184L596 1273M640 1184L668 1213M682 1151L724 1185M682 1151L668 1213M724 1185L668 1213M724 1185L767 1256M834 1169L943 1188M834 1169L767 1256M834 1169L873 1228M943 1188L1029 1180M943 1188L873 1228M943 1188L935 1255M943 1188L966 1222M1029 1180L1076 1142M1029 1180L966 1222M1076 1142L1124 1156M1076 1142L1111 1232M1124 1156L1206 1183M1124 1156L1111 1232M1206 1183L1207 1251M1206 1183L1300 1213M1331 1156L1390 1188M1331 1156L1300 1213M1390 1188L1300 1213M1390 1188L1435 1238M1390 1188L1455 1261M1505 1133L1549 1185M1505 1133L1573 1224M1549 1185L1620 1153M1549 1185L1573 1224M1549 1185L1618 1206M1620 1153L1573 1224M1620 1153L1618 1206M1744 1138L1798 1176M1744 1138L1726 1205M1798 1176L1876 1162M1798 1176L1726 1205M1798 1176L1808 1241M1876 1162L1936 1132M1876 1162L1898 1221M2069 1151L2117 1170M2069 1151L2039 1236M2117 1170L2191 1156M2117 1170L2039 1236M2117 1170L2106 1253M2191 1156L2247 1130M2191 1156L2179 1251M2247 1130L2324 1145M2446 1194L2559 1179M2446 1194L2424 1245M2446 1194L2500 1218M2559 1179L2569 1247M2559 1179L2500 1218M-1 1179L9 1247M9 1247L-60 1218M9 1247L46 1322M9 1247L-54 1313M2569 1247L2500 1218M2569 1247L2506 1313M136 1251L171 1244M171 1244L269 1238M171 1244L262 1296M269 1238L262 1296M394 1232L438 1242M394 1232L376 1306M394 1232L403 1318M438 1242L525 1250M438 1242L376 1306M438 1242L403 1318M438 1242L491 1319M525 1250L596 1273M525 1250L491 1319M525 1250L602 1300M596 1273L668 1213M596 1273L602 1300M596 1273L673 1343M767 1256L735 1343M767 1256L856 1294M873 1228L935 1255M873 1228L966 1222M873 1228L856 1294M935 1255L966 1222M935 1255L856 1294M935 1255L935 1353M966 1222L1012 1309M1111 1232L1198 1278M1111 1232L1053 1311M1111 1232L1150 1284M1198 1278L1207 1251M1198 1278L1150 1284M1198 1278L1210 1328M1198 1278L1216 1364M1207 1251L1300 1213M1207 1251L1150 1284M1207 1251L1210 1328M1435 1238L1455 1261M1435 1238L1428 1328M1455 1261L1428 1328M1455 1261L1431 1374M1573 1224L1618 1206M1618 1206L1726 1205M1618 1206L1667 1315M1726 1205L1808 1241M1808 1241L1898 1221M1808 1241L1833 1292M1808 1241L1843 1341M1898 1221L1926 1245M1898 1221L1833 1292M1898 1221L1941 1286M1926 1245L1843 1341M1926 1245L1941 1286M2039 1236L2106 1253M2039 1236L2040 1281M2039 1236L2134 1282M2106 1253L2179 1251M2106 1253L2040 1281M2106 1253L2134 1282M2179 1251L2278 1255M2179 1251L2134 1282M2278 1255L2361 1246M2278 1255L2296 1282M2278 1255L2352 1292M2278 1255L2277 1363M2361 1246L2424 1245M2361 1246L2296 1282M2361 1246L2352 1292M2361 1246L2402 1308M2424 1245L2500 1218M2424 1245L2352 1292M2424 1245L2402 1308M46 1322L113 1360M46 1322L-54 1313M46 1322L43 1384M46 1322L-32 1380M2606 1322L2506 1313M2606 1322L2528 1380M113 1360L202 1349M113 1360L43 1384M113 1360L146 1383M202 1349L262 1296M202 1349L146 1383M202 1349L191 1437M202 1349L273 1435M262 1296L376 1306M376 1306L403 1318M403 1318L491 1319M403 1318L406 1419M491 1319L602 1300M602 1300L673 1343M673 1343L735 1343M673 1343L641 1439M735 1343L788 1383M856 1294L935 1353M856 1294L788 1383M935 1353L1012 1309M935 1353L939 1393M935 1353L1035 1365M1012 1309L1053 1311M1012 1309L1035 1365M1012 1309L1043 1378M1053 1311L1150 1284M1053 1311L1035 1365M1053 1311L1043 1378M1150 1284L1210 1328M1210 1328L1287 1348M1210 1328L1216 1364M1287 1348L1216 1364M1287 1348L1322 1362M1428 1328L1481 1346M1428 1328L1431 1374M1481 1346L1566 1347M1481 1346L1431 1374M1481 1346L1509 1399M1481 1346L1549 1368M1566 1347L1667 1315M1566 1347L1509 1399M1566 1347L1549 1368M1566 1347L1606 1423M1667 1315L1701 1326M1667 1315L1701 1389M1701 1326L1701 1389M1701 1326L1810 1370M1833 1292L1843 1341M1833 1292L1810 1370M1833 1292L1854 1371M1843 1341L1810 1370M1843 1341L1854 1371M1941 1286L1854 1371M1941 1286L1999 1396M2040 1281L2134 1282M2040 1281L2052 1366M2134 1282L2110 1366M2235 1341L2296 1282M2235 1341L2277 1363M2296 1282L2352 1292M2296 1282L2277 1363M2352 1292L2402 1308M2402 1308L2506 1313M2402 1308L2392 1403M2506 1313L2528 1380M43 1384L-32 1380M2603 1384L2528 1380M146 1383L191 1437M191 1437L273 1435M273 1435L354 1438M354 1438L406 1419M554 1424L593 1419M593 1419L641 1439M788 1383L825 1439M939 1393L1035 1365M939 1393L1043 1378M1035 1365L1043 1378M1150 1402L1216 1364M1216 1364L1322 1362M1431 1374L1509 1399M1509 1399L1549 1368M1549 1368L1606 1423M1701 1389L1810 1370M1810 1370L1854 1371M1999 1396L2052 1366M1999 1396L2110 1366M2052 1366L2110 1366M2110 1366L2178 1437M2277 1363L2392 1403M2392 1403L2440 1435M2440 1435L2528 1380"/></svg>