<svg xmlns="http://www.w3.org/2000/svg" width="2560" height="1440" fill="#fff"><circle cx="79" cy="68" r="6"/><circle cx="102" cy="49" r="5"/><circle cx="176" cy="7" r="5"/><circle cx="250" cy="65" r="5"/><circle cx="336" cy="28" r="6"/><circle cx="455" cy="66" r="5"/><circle cx="533" cy="11" r="5"/><circle cx="569" cy="70" r="6"/><circle cx="664" cy="20" r="6"/><circle cx="726" cy="39" r="6"/><circle cx="856" cy="35" r="6"/><circle cx="924" cy="0" r="4"/><circle cx="924" cy="1440" r="4"/><circle cx="1011" cy="19" r="4"/><circle cx="1074" cy="6" r="5"/><circle cx="1138" cy="26" r="5"/><circle cx="1224" cy="37" r="4"/><circle cx="1286" cy="60" r="6"/><circle cx="1392" cy="12" r="6"/><circle cx="1444" cy="39" r="5"/><circle cx="1600" cy="69" r="5"/><circle cx="1675" cy="38" r="4"/><circle cx="1740" cy="30" r="4"/><circle cx="1777" cy="4" r="5"/><circle cx="1777" cy="1444" r="5"/><circle cx="1871" cy="17" r="4"/><circle cx="1967" cy="33" r="5"/><circle cx="2042" cy="68" r="4"/><circle cx="2102" cy="77" r="5"/><circle cx="2192" cy="35" r="5"/><circle cx="2305" cy="25" r="4"/><circle cx="2367" cy="6" r="6"/><circle cx="2411" cy="3" r="6"/><circle cx="2411" cy="1443" r="6"/><circle cx="2546" cy="3" r="5"/><circle cx="2546" cy="1443" r="5"/><circle cx="59" cy="142" r="5"/><circle cx="113" cy="82" r="5"/><circle cx="206" cy="154" r="4"/><circle cx="242" cy="155" r="5"/><circle cx="350" cy="135" r="5"/><circle cx="400" cy="100" r="6"/><circle cx="481" cy="89" r="5"/><circle cx="624" cy="145" r="5"/><circle cx="699" cy="150" r="5"/><circle cx="752" cy="95" r="5"/><circle cx="862" cy="101" r="4"/><circle cx="912" cy="94" r="4"/><circle cx="1006" cy="128" r="5"/><circle cx="1072" cy="114" r="6"/><circle cx="1168" cy="127" r="5"/><circle cx="1267" cy="157" r="5"/><circle cx="1354" cy="152" r="4"/><circle cx="1438" cy="135" r="4"/><circle cx="1492" cy="123" r="5"/><circle cx="1559" cy="112" r="5"/><circle cx="1616" cy="143" r="5"/><circle cx="1699" cy="127" r="6"/><circle cx="1769" cy="124" r="4"/><circle cx="1881" cy="84" r="6"/><circle cx="1969" cy="147" r="4"/><circle cx="2039" cy="149" r="5"/><circle cx="2113" cy="109" r="5"/><circle cx="2205" cy="140" r="5"/><circle cx="2271" cy="101" r="6"/><circle cx="2349" cy="95" r="5"/><circle cx="2460" cy="148" r="4"/><circle cx="2541" cy="111" r="4"/><circle cx="4" cy="231" r="5"/><circle cx="2564" cy="231" r="5"/><circle cx="93" cy="177" r="5"/><circle cx="239" cy="238" r="5"/><circle cx="275" cy="235" r="6"/><circle cx="321" cy="209" r="6"/><circle cx="475" cy="187" r="5"/><circle cx="489" cy="178" r="6"/><circle cx="608" cy="197" r="6"/><circle cx="714" cy="198" r="5"/><circle cx="798" cy="192" r="6"/><circle cx="849" cy="229" r="4"/><circle cx="948" cy="235" r="5"/><circle cx="1026" cy="234" r="5"/><circle cx="1083" cy="221" r="4"/><circle cx="1155" cy="180" r="5"/><circle cx="1232" cy="236" r="6"/><circle cx="1352" cy="192" r="5"/><circle cx="1405" cy="191" r="4"/><circle cx="1480" cy="237" r="4"/><circle cx="1579" cy="217" r="5"/><circle cx="1665" cy="202" r="5"/><circle cx="1700" cy="174" r="6"/><circle cx="1815" cy="174" r="5"/><circle cx="1919" cy="174" r="4"/><circle cx="1973" cy="215" r="5"/><circle cx="2027" cy="227" r="5"/><circle cx="2103" cy="187" r="6"/><circle cx="2225" cy="215" r="4"/><circle cx="2306" cy="199" r="4"/><circle cx="2390" cy="191" r="6"/><circle cx="2404" cy="165" r="6"/><circle cx="2532" cy="193" r="4"/><circle cx="76" cy="297" r="4"/><circle cx="95" cy="248" r="5"/><circle cx="221" cy="293" r="5"/><circle cx="281" cy="311" r="5"/><circle cx="398" cy="263" r="4"/><circle cx="418" cy="286" r="4"/><circle cx="497" cy="282" r="5"/><circle cx="624" cy="313" r="5"/><circle cx="670" cy="273" r="5"/><circle cx="737" cy="293" r="4"/><circle cx="862" cy="308" r="5"/><circle cx="894" cy="293" r="5"/><circle cx="1023" cy="298" r="6"/><circle cx="1111" cy="250" r="4"/><circle cx="1177" cy="316" r="4"/><circle cx="1207" cy="244" r="6"/><circle cx="1341" cy="304" r="6"/><circle cx="1390" cy="320" r="5"/><circle cx="1452" cy="251" r="6"/><circle cx="1585" cy="304" r="6"/><circle cx="1668" cy="260" r="6"/><circle cx="1722" cy="252" r="5"/><circle cx="1831" cy="246" r="4"/><circle cx="1876" cy="287" r="6"/><circle cx="1970" cy="271" r="4"/><circle cx="2080" cy="245" r="5"/><circle cx="2113" cy="277" r="6"/><circle cx="2175" cy="242" r="6"/><circle cx="2286" cy="260" r="6"/><circle cx="2382" cy="291" r="5"/><circle cx="2415" cy="302" r="4"/><circle cx="2491" cy="292" r="4"/><circle cx="70" cy="399" r="4"/><circle cx="141" cy="350" r="5"/><circle cx="224" cy="324" r="6"/><circle cx="285" cy="358" r="5"/><circle cx="324" cy="390" r="4"/><circle cx="454" cy="398" r="5"/><circle cx="543" cy="375" r="6"/><circle cx="611" cy="399" r="5"/><circle cx="651" cy="377" r="4"/><circle cx="780" cy="330" r="5"/><circle cx="865" cy="373" r="6"/><circle cx="942" cy="333" r="5"/><circle cx="1014" cy="348" r="6"/><circle cx="1065" cy="399" r="5"/><circle cx="1145" cy="335" r="5"/><circle cx="1225" cy="373" r="5"/><circle cx="1293" cy="340" r="5"/><circle cx="1383" cy="346" r="4"/><circle cx="1456" cy="394" r="5"/><circle cx="1599" cy="321" r="4"/><circle cx="1605" cy="320" r="5"/><circle cx="1742" cy="385" r="6"/><circle cx="1834" cy="367" r="5"/><circle cx="1909" cy="351" r="6"/><circle cx="1958" cy="367" r="5"/><circle cx="2075" cy="335" r="4"/><circle cx="2102" cy="388" r="5"/><circle cx="2173" cy="394" r="5"/><circle cx="2319" cy="361" r="6"/><circle cx="2375" cy="364" r="5"/><circle cx="2434" cy="389" r="6"/><circle cx="2520" cy="344" r="4"/><circle cx="2" cy="480" r="6"/><circle cx="2562" cy="480" r="6"/><circle cx="84" cy="453" r="6"/><circle cx="192" cy="422" r="5"/><circle cx="260" cy="423" r="5"/><circle cx="343" cy="458" r="5"/><circle cx="453" cy="430" r="5"/><circle cx="495" cy="409" r="6"/><circle cx="610" cy="426" r="6"/><circle cx="710" cy="453" r="5"/><circle cx="770" cy="408" r="5"/><circle cx="813" cy="406" r="5"/><circle cx="954" cy="401" r="6"/><circle cx="991" cy="422" r="5"/><circle cx="1076" cy="421" r="5"/><circle cx="1154" cy="475" r="6"/><circle cx="1266" cy="403" r="5"/><circle cx="1288" cy="452" r="4"/><circle cx="1435" cy="425" r="6"/><circle cx="1519" cy="452" r="6"/><circle cx="1521" cy="429" r="6"/><circle cx="1671" cy="473" r="5"/><circle cx="1751" cy="416" r="6"/><circle cx="1805" cy="417" r="5"/><circle cx="1913" cy="411" r="6"/><circle cx="1979" cy="438" r="5"/><circle cx="2006" cy="418" r="5"/><circle cx="2129" cy="437" r="5"/><circle cx="2190" cy="420" r="4"/><circle cx="2253" cy="455" r="5"/><circle cx="2336" cy="461" r="6"/><circle cx="2455" cy="480" r="5"/><circle cx="2484" cy="468" r="6"/><circle cx="29" cy="482" r="5"/><circle cx="124" cy="499" r="4"/><circle cx="190" cy="526" r="5"/><circle cx="245" cy="519" r="5"/><circle cx="359" cy="540" r="5"/><circle cx="433" cy="510" r="6"/><circle cx="535" cy="519" r="5"/><circle cx="577" cy="481" r="6"/><circle cx="650" cy="544" r="5"/><circle cx="755" cy="526" r="6"/><circle cx="805" cy="555" r="5"/><circle cx="941" cy="501" r="6"/><circle cx="990" cy="498" r="6"/><circle cx="1066" cy="510" r="5"/><circle cx="1191" cy="552" r="4"/><circle cx="1253" cy="516" r="4"/><circle cx="1347" cy="525" r="5"/><circle cx="1387" cy="544" r="4"/><circle cx="1461" cy="495" r="5"/><circle cx="1533" cy="536" r="5"/><circle cx="1604" cy="524" r="4"/><circle cx="1719" cy="502" r="4"/><circle cx="1810" cy="528" r="5"/><circle cx="1873" cy="517" r="6"/><circle cx="1923" cy="515" r="4"/><circle cx="2047" cy="532" r="6"/><circle cx="2115" cy="524" r="5"/><circle cx="2235" cy="543" r="5"/><circle cx="2319" cy="489" r="5"/><circle cx="2376" cy="511" r="4"/><circle cx="2428" cy="552" r="4"/><circle cx="2558" cy="501" r="5"/><circle cx="-2" cy="501" r="5"/><circle cx="12" cy="607" r="5"/><circle cx="130" cy="577" r="5"/><circle cx="212" cy="564" r="4"/><circle cx="242" cy="576" r="4"/><circle cx="359" cy="571" r="4"/><circle cx="438" cy="629" r="5"/><circle cx="510" cy="573" r="5"/><circle cx="607" cy="616" r="4"/><circle cx="713" cy="621" r="5"/><circle cx="785" cy="589" r="5"/><circle cx="860" cy="570" r="4"/><circle cx="881" cy="565" r="6"/><circle cx="1021" cy="608" r="6"/><circle cx="1088" cy="602" r="4"/><circle cx="1132" cy="639" r="6"/><circle cx="1246" cy="586" r="6"/><circle cx="1335" cy="619" r="5"/><circle cx="1380" cy="564" r="5"/><circle cx="1464" cy="570" r="4"/><circle cx="1582" cy="624" r="4"/><circle cx="1604" cy="618" r="5"/><circle cx="1740" cy="637" r="4"/><circle cx="1819" cy="567" r="5"/><circle cx="1911" cy="596" r="5"/><circle cx="1962" cy="617" r="6"/><circle cx="2010" cy="637" r="5"/><circle cx="2100" cy="578" r="4"/><circle cx="2171" cy="579" r="4"/><circle cx="2271" cy="623" r="4"/><circle cx="2364" cy="572" r="5"/><circle cx="2448" cy="575" r="6"/><circle cx="2548" cy="583" r="4"/><circle cx="79" cy="700" r="4"/><circle cx="122" cy="643" r="5"/><circle cx="202" cy="641" r="6"/><circle cx="259" cy="647" r="5"/><circle cx="391" cy="700" r="5"/><circle cx="436" cy="713" r="5"/><circle cx="504" cy="718" r="6"/><circle cx="609" cy="682" r="5"/><circle cx="667" cy="666" r="6"/><circle cx="767" cy="683" r="5"/><circle cx="867" cy="708" r="5"/><circle cx="915" cy="649" r="6"/><circle cx="1009" cy="703" r="6"/><circle cx="1073" cy="671" r="6"/><circle cx="1159" cy="708" r="5"/><circle cx="1222" cy="664" r="5"/><circle cx="1304" cy="689" r="6"/><circle cx="1379" cy="646" r="5"/><circle cx="1512" cy="641" r="4"/><circle cx="1562" cy="682" r="6"/><circle cx="1645" cy="705" r="5"/><circle cx="1759" cy="646" r="4"/><circle cx="1823" cy="678" r="5"/><circle cx="1865" cy="704" r="6"/><circle cx="1969" cy="713" r="6"/><circle cx="2059" cy="678" r="5"/><circle cx="2106" cy="708" r="5"/><circle cx="2192" cy="690" r="4"/><circle cx="2266" cy="696" r="5"/><circle cx="2399" cy="668" r="4"/><circle cx="2447" cy="713" r="5"/><circle cx="2526" cy="647" r="6"/><circle cx="69" cy="770" r="4"/><circle cx="159" cy="771" r="6"/><circle cx="180" cy="760" r="4"/><circle cx="313" cy="731" r="5"/><circle cx="384" cy="746" r="6"/><circle cx="406" cy="736" r="6"/><circle cx="536" cy="750" r="4"/><circle cx="631" cy="784" r="4"/><circle cx="670" cy="766" r="5"/><circle cx="740" cy="799" r="4"/><circle cx="834" cy="775" r="5"/><circle cx="929" cy="791" r="4"/><circle cx="1003" cy="799" r="6"/><circle cx="1085" cy="734" r="5"/><circle cx="1149" cy="721" r="4"/><circle cx="1212" cy="789" r="4"/><circle cx="1337" cy="754" r="6"/><circle cx="1404" cy="784" r="6"/><circle cx="1473" cy="745" r="6"/><circle cx="1528" cy="792" r="5"/><circle cx="1659" cy="792" r="5"/><circle cx="1711" cy="749" r="5"/><circle cx="1816" cy="729" r="5"/><circle cx="1874" cy="737" r="6"/><circle cx="1995" cy="726" r="5"/><circle cx="2075" cy="730" r="5"/><circle cx="2133" cy="767" r="6"/><circle cx="2223" cy="798" r="6"/><circle cx="2272" cy="771" r="4"/><circle cx="2359" cy="752" r="4"/><circle cx="2406" cy="776" r="4"/><circle cx="2495" cy="746" r="5"/><circle cx="77" cy="865" r="5"/><circle cx="131" cy="802" r="5"/><circle cx="179" cy="819" r="5"/><circle cx="268" cy="808" r="6"/><circle cx="363" cy="868" r="6"/><circle cx="414" cy="852" r="6"/><circle cx="527" cy="829" r="5"/><circle cx="635" cy="815" r="5"/><circle cx="641" cy="815" r="5"/><circle cx="724" cy="830" r="4"/><circle cx="844" cy="817" r="5"/><circle cx="896" cy="843" r="6"/><circle cx="1024" cy="843" r="5"/><circle cx="1103" cy="840" r="6"/><circle cx="1137" cy="873" r="5"/><circle cx="1238" cy="876" r="4"/><circle cx="1333" cy="815" r="4"/><circle cx="1406" cy="815" r="5"/><circle cx="1500" cy="823" r="6"/><circle cx="1566" cy="869" r="6"/><circle cx="1622" cy="860" r="5"/><circle cx="1757" cy="854" r="5"/><circle cx="1763" cy="839" r="5"/><circle cx="1857" cy="867" r="5"/><circle cx="1964" cy="804" r="4"/><circle cx="2008" cy="827" r="5"/><circle cx="2121" cy="830" r="5"/><circle cx="2208" cy="851" r="5"/><circle cx="2255" cy="868" r="5"/><circle cx="2366" cy="824" r="5"/><circle cx="2463" cy="856" r="5"/><circle cx="2546" cy="832" r="5"/><circle cx="56" cy="938" r="5"/><circle cx="107" cy="945" r="5"/><circle cx="177" cy="890" r="5"/><circle cx="260" cy="959" r="6"/><circle cx="365" cy="906" r="4"/><circle cx="459" cy="954" r="6"/><circle cx="552" cy="942" r="5"/><circle cx="625" cy="934" r="4"/><circle cx="694" cy="884" r="4"/><circle cx="750" cy="893" r="4"/><circle cx="839" cy="935" r="5"/><circle cx="908" cy="902" r="4"/><circle cx="1012" cy="921" r="6"/><circle cx="1055" cy="939" r="5"/><circle cx="1189" cy="931" r="5"/><circle cx="1224" cy="932" r="6"/><circle cx="1358" cy="942" r="5"/><circle cx="1403" cy="908" r="5"/><circle cx="1507" cy="917" r="5"/><circle cx="1582" cy="918" r="4"/><circle cx="1617" cy="908" r="5"/><circle cx="1744" cy="957" r="4"/><circle cx="1774" cy="889" r="5"/><circle cx="1868" cy="910" r="5"/><circle cx="1979" cy="928" r="4"/><circle cx="2052" cy="926" r="5"/><circle cx="2138" cy="900" r="5"/><circle cx="2188" cy="881" r="5"/><circle cx="2278" cy="903" r="5"/><circle cx="2372" cy="938" r="4"/><circle cx="2431" cy="894" r="5"/><circle cx="2514" cy="920" r="6"/><circle cx="72" cy="986" r="5"/><circle cx="116" cy="984" r="4"/><circle cx="205" cy="985" r="6"/><circle cx="256" cy="1017" r="5"/><circle cx="376" cy="976" r="5"/><circle cx="444" cy="1030" r="5"/><circle cx="557" cy="966" r="4"/><circle cx="615" cy="1036" r="5"/><circle cx="656" cy="968" r="4"/><circle cx="735" cy="1028" r="6"/><circle cx="864" cy="982" r="5"/><circle cx="932" cy="1006" r="6"/><circle cx="1009" cy="1021" r="5"/><circle cx="1110" cy="998" r="4"/><circle cx="1154" cy="1019" r="6"/><circle cx="1206" cy="975" r="5"/><circle cx="1347" cy="973" r="4"/><circle cx="1406" cy="1025" r="5"/><circle cx="1451" cy="1036" r="5"/><circle cx="1532" cy="995" r="5"/><circle cx="1602" cy="983" r="5"/><circle cx="1705" cy="1006" r="5"/><circle cx="1826" cy="983" r="5"/><circle cx="1886" cy="1037" r="5"/><circle cx="1956" cy="1025" r="6"/><circle cx="2014" cy="1009" r="4"/><circle cx="2121" cy="1011" r="4"/><circle cx="2187" cy="996" r="6"/><circle cx="2243" cy="1010" r="5"/><circle cx="2340" cy="971" r="5"/><circle cx="2456" cy="991" r="4"/><circle cx="2523" cy="1030" r="4"/><circle cx="34" cy="1069" r="5"/><circle cx="84" cy="1118" r="5"/><circle cx="230" cy="1055" r="5"/><circle cx="308" cy="1113" r="5"/><circle cx="375" cy="1077" r="4"/><circle cx="415" cy="1107" r="5"/><circle cx="532" cy="1051" r="6"/><circle cx="598" cy="1040" r="4"/><circle cx="704" cy="1047" r="5"/><circle cx="778" cy="1057" r="6"/><circle cx="821" cy="1103" r="5"/><circle cx="900" cy="1058" r="6"/><circle cx="968" cy="1100" r="6"/><circle cx="1060" cy="1046" r="4"/><circle cx="1174" cy="1070" r="6"/><circle cx="1279" cy="1100" r="5"/><circle cx="1351" cy="1042" r="5"/><circle cx="1376" cy="1044" r="6"/><circle cx="1468" cy="1053" r="4"/><circle cx="1556" cy="1113" r="4"/><circle cx="1608" cy="1046" r="6"/><circle cx="1753" cy="1077" r="5"/><circle cx="1764" cy="1053" r="5"/><circle cx="1897" cy="1116" r="5"/><circle cx="1939" cy="1053" r="6"/><circle cx="2031" cy="1060" r="4"/><circle cx="2128" cy="1101" r="5"/><circle cx="2164" cy="1116" r="6"/><circle cx="2260" cy="1100" r="4"/><circle cx="2359" cy="1076" r="6"/><circle cx="2425" cy="1052" r="5"/><circle cx="2539" cy="1097" r="5"/><circle cx="59" cy="1195" r="4"/><circle cx="152" cy="1148" r="6"/><circle cx="214" cy="1133" r="4"/><circle cx="314" cy="1174" r="6"/><circle cx="365" cy="1154" r="5"/><circle cx="400" cy="1127" r="6"/><circle cx="504" cy="1179" r="6"/><circle cx="629" cy="1179" r="5"/><circle cx="684" cy="1177" r="4"/><circle cx="775" cy="1184" r="5"/><circle cx="811" cy="1140" r="5"/><circle cx="890" cy="1120" r="5"/><circle cx="974" cy="1185" r="4"/><circle cx="1118" cy="1186" r="6"/><circle cx="1175" cy="1189" r="5"/><circle cx="1263" cy="1127" r="5"/><circle cx="1346" cy="1184" r="6"/><circle cx="1408" cy="1131" r="4"/><circle cx="1496" cy="1142" r="5"/><circle cx="1592" cy="1142" r="5"/><circle cx="1622" cy="1124" r="5"/><circle cx="1724" cy="1169" r="5"/><circle cx="1816" cy="1187" r="6"/><circle cx="1879" cy="1147" r="6"/><circle cx="1925" cy="1169" r="5"/><circle cx="2021" cy="1186" r="5"/><circle cx="2117" cy="1149" r="4"/><circle cx="2170" cy="1149" r="6"/><circle cx="2274" cy="1150" r="5"/><circle cx="2348" cy="1186" r="5"/><circle cx="2424" cy="1169" r="5"/><circle cx="2494" cy="1179" r="6"/><circle cx="39" cy="1201" r="4"/><circle cx="132" cy="1231" r="5"/><circle cx="192" cy="1203" r="5"/><circle cx="300" cy="1241" r="5"/><circle cx="356" cy="1206" r="5"/><circle cx="479" cy="1220" r="4"/><circle cx="551" cy="1214" r="4"/><circle cx="599" cy="1279" r="5"/><circle cx="656" cy="1228" r="6"/><circle cx="731" cy="1251" r="4"/><circle cx="822" cy="1258" r="5"/><circle cx="893" cy="1218" r="5"/><circle cx="1028" cy="1213" r="4"/><circle cx="1107" cy="1250" r="5"/><circle cx="1190" cy="1277" r="4"/><circle cx="1262" cy="1230" r="5"/><circle cx="1333" cy="1240" r="5"/><circle cx="1388" cy="1263" r="5"/><circle cx="1462" cy="1261" r="5"/><circle cx="1582" cy="1258" r="5"/><circle cx="1627" cy="1255" r="5"/><circle cx="1736" cy="1245" r="4"/><circle cx="1791" cy="1204" r="5"/><circle cx="1840" cy="1201" r="6"/><circle cx="1930" cy="1237" r="6"/><circle cx="2075" cy="1208" r="4"/><circle cx="2098" cy="1216" r="5"/><circle cx="2184" cy="1250" r="6"/><circle cx="2300" cy="1231" r="5"/><circle cx="2336" cy="1214" r="6"/><circle cx="2402" cy="1205" r="4"/><circle cx="2491" cy="1257" r="5"/><circle cx="51" cy="1296" r="4"/><circle cx="87" cy="1290" r="5"/><circle cx="204" cy="1301" r="5"/><circle cx="291" cy="1315" r="5"/><circle cx="326" cy="1305" r="6"/><circle cx="403" cy="1297" r="4"/><circle cx="550" cy="1349" r="6"/><circle cx="629" cy="1294" r="6"/><circle cx="715" cy="1287" r="5"/><circle cx="749" cy="1292" r="5"/><circle cx="855" cy="1315" r="5"/><circle cx="954" cy="1348" r="4"/><circle cx="1011" cy="1337" r="5"/><circle cx="1048" cy="1338" r="6"/><circle cx="1194" cy="1357" r="5"/><circle cx="1274" cy="1303" r="6"/><circle cx="1338" cy="1306" r="6"/><circle cx="1383" cy="1320" r="6"/><circle cx="1469" cy="1280" r="4"/><circle cx="1559" cy="1349" r="4"/><circle cx="1649" cy="1299" r="5"/><circle cx="1702" cy="1316" r="6"/><circle cx="1766" cy="1287" r="6"/><circle cx="1884" cy="1313" r="4"/><circle cx="1935" cy="1320" r="6"/><circle cx="2027" cy="1351" r="4"/><circle cx="2141" cy="1335" r="5"/><circle cx="2232" cy="1296" r="6"/><circle cx="2303" cy="1324" r="5"/><circle cx="2353" cy="1322" r="4"/><circle cx="2435" cy="1297" r="4"/><circle cx="2539" cy="1328" r="5"/><circle cx="33" cy="1408" r="4"/><circle cx="127" cy="1381" r="5"/><circle cx="206" cy="1399" r="6"/><circle cx="253" cy="1423" r="6"/><circle cx="398" cy="1409" r="5"/><circle cx="445" cy="1392" r="5"/><circle cx="500" cy="1435" r="5"/><circle cx="606" cy="1393" r="5"/><circle cx="709" cy="1438" r="5"/><circle cx="709" cy="-2" r="5"/><circle cx="764" cy="1382" r="5"/><circle cx="851" cy="1394" r="5"/><circle cx="946" cy="1431" r="5"/><circle cx="963" cy="1396" r="4"/><circle cx="1054" cy="1409" r="6"/><circle cx="1141" cy="1364" r="6"/><circle cx="1279" cy="1366" r="6"/><circle cx="1283" cy="1363" r="5"/><circle cx="1431" cy="1394" r="4"/><circle cx="1445" cy="1435" r="5"/><circle cx="1445" cy="-5" r="5"/><circle cx="1530" cy="1433" r="4"/><circle cx="1661" cy="1409" r="6"/><circle cx="1689" cy="1380" r="6"/><circle cx="1762" cy="1362" r="5"/><circle cx="1903" cy="1374" r="5"/><circle cx="1993" cy="1370" r="5"/><circle cx="2041" cy="1369" r="5"/><circle cx="2110" cy="1384" r="4"/><circle cx="2203" cy="1400" r="5"/><circle cx="2285" cy="1415" r="5"/><circle cx="2395" cy="1424" r="5"/><circle cx="2401" cy="1393" r="5"/><circle cx="2482" cy="1363" r="6"/><path stroke="#fff" d="M79 68L102 49M79 68L-14 3M79 68L59 142M79 68L113 82M79 68L-19 111M2639 68L2546 3M2639 68L2541 111M102 49L176 7M102 49L59 142M102 49L113 82M102 49L33 -32M102 1489L33 1408M176 7L250 65M176 7L127 -59M176 7L206 -41M176 7L253 -17M176 1447L127 1381M176 1447L206 1399M176 1447L253 1423M250 65L336 28M250 65L242 155M250 65L206 -41M250 65L253 -17M250 1505L206 1399M250 1505L253 1423M336 28L350 135M336 28L400 100M336 28L253 -17M336 28L398 -31M336 1468L253 1423M336 1468L398 1409M455 66L400 100M455 66L481 89M455 66L500 -5M455 1506L500 1435M533 11L569 70M533 11L481 89M533 11L550 -91M533 11L500 -5M533 11L606 -47M533 1451L550 1349M533 1451L500 1435M533 1451L606 1393M569 70L664 20M569 70L481 89M569 70L624 145M569 70L500 -5M569 1510L500 1435M664 20L726 39M664 20L752 95M664 20L606 -47M664 20L709 -2M664 1460L606 1393M664 1460L709 1438M726 39L752 95M726 39L709 -2M726 39L764 -58M726 1479L709 1438M726 1479L764 1382M856 35L924 0M856 35L862 101M856 35L912 94M856 35L851 -46M856 35L946 -9M856 1475L851 1394M856 1475L946 1431M924 0L1011 19M924 0L851 -46M924 0L946 -9M924 0L963 -44M924 1440L851 1394M924 1440L946 1431M924 1440L963 1396M1011 19L1074 6M1011 19L946 -9M1011 19L1054 -31M1011 1459L946 1431M1011 1459L1054 1409M1074 6L1138 26M1074 6L1072 114M1074 6L1054 -31M1074 6L1141 -76M1074 1446L1054 1409M1074 1446L1141 1364M1138 26L1224 37M1138 26L1141 -76M1138 1466L1141 1364M1224 37L1286 60M1224 37L1168 127M1286 60L1392 12M1286 60L1267 157M1286 60L1354 152M1286 60L1279 -74M1286 1500L1279 1366M1392 12L1444 39M1392 12L1431 -46M1392 12L1445 -5M1392 1452L1431 1394M1392 1452L1445 1435M1444 39L1438 135M1444 39L1492 123M1444 39L1431 -46M1444 39L1445 -5M1444 1479L1431 1394M1444 1479L1445 1435M1600 69L1675 38M1600 69L1559 112M1600 69L1616 143M1675 38L1740 30M1675 38L1699 127M1675 38L1661 -31M1675 1478L1661 1409M1740 30L1777 4M1740 30L1661 -31M1740 1470L1661 1409M1777 4L1871 17M1777 4L1689 -60M1777 4L1762 -78M1777 1444L1689 1380M1777 1444L1762 1362M1871 17L1967 33M1871 17L1881 84M1871 17L1903 -66M1871 1457L1903 1374M1967 33L2042 68M1967 33L1881 84M1967 33L1903 -66M1967 33L1993 -70M1967 1473L1903 1374M1967 1473L1993 1370M2042 68L2102 77M2042 68L2039 149M2042 68L2113 109M2102 77L2192 35M2102 77L2113 109M2192 35L2271 101M2192 35L2203 -40M2192 1475L2203 1400M2305 25L2367 6M2305 25L2271 101M2305 25L2349 95M2305 25L2285 -25M2305 1465L2285 1415M2367 6L2411 3M2367 6L2285 -25M2367 6L2395 -16M2367 6L2401 -47M2367 1446L2285 1415M2367 1446L2395 1424M2367 1446L2401 1393M2411 3L2349 95M2411 3L2395 -16M2411 3L2401 -47M2411 3L2482 -77M2411 1443L2395 1424M2411 1443L2401 1393M2411 1443L2482 1363M2546 3L2541 111M2546 3L2539 -112M2546 3L2593 -32M2546 3L2482 -77M-14 3L33 -32M-14 1443L33 1408M2546 1443L2539 1328M2546 1443L2593 1408M2546 1443L2482 1363M59 142L113 82M59 142L-19 111M59 142L93 177M2619 142L2541 111M113 82L206 154M113 82L93 177M206 154L242 155M242 155L275 235M242 155L321 209M350 135L400 100M350 135L321 209M400 100L481 89M400 100L489 178M481 89L489 178M624 145L699 150M624 145L608 197M699 150L752 95M699 150L608 197M699 150L714 198M699 150L798 192M752 95L798 192M862 101L912 94M862 101L798 192M912 94L1006 128M1006 128L1072 114M1072 114L1168 127M1072 114L1083 221M1168 127L1155 180M1267 157L1354 152M1267 157L1232 236M1267 157L1352 192M1267 157L1207 244M1354 152L1438 135M1354 152L1352 192M1354 152L1405 191M1438 135L1492 123M1438 135L1405 191M1492 123L1559 112M1559 112L1616 143M1616 143L1699 127M1616 143L1579 217M1616 143L1665 202M1699 127L1769 124M1699 127L1665 202M1699 127L1700 174M1769 124L1700 174M1769 124L1815 174M1881 84L1969 147M1881 84L1815 174M1881 84L1919 174M1969 147L2039 149M1969 147L1919 174M1969 147L1973 215M2039 149L2113 109M2039 149L2027 227M2039 149L2103 187M2113 109L2205 140M2113 109L2103 187M2205 140L2271 101M2205 140L2225 215M2271 101L2349 95M2271 101L2306 199M2349 95L2390 191M2349 95L2404 165M2460 148L2541 111M2460 148L2390 191M2460 148L2404 165M2460 148L2532 193M2541 111L2532 193M4 231L93 177M4 231L-28 193M4 231L76 297M4 231L95 248M4 231L-69 292M2564 231L2532 193M2564 231L2491 292M93 177L95 248M239 238L275 235M239 238L321 209M239 238L221 293M239 238L281 311M239 238L224 324M275 235L321 209M275 235L221 293M275 235L281 311M321 209L398 263M475 187L489 178M475 187L398 263M475 187L418 286M475 187L497 282M489 178L608 197M489 178L497 282M608 197L714 198M608 197L670 273M714 198L798 192M714 198L670 273M714 198L737 293M798 192L849 229M849 229L948 235M849 229L862 308M849 229L894 293M948 235L1026 234M948 235L894 293M948 235L1023 298M1026 234L1083 221M1026 234L1023 298M1026 234L1111 250M1083 221L1155 180M1083 221L1023 298M1083 221L1111 250M1155 180L1232 236M1155 180L1111 250M1155 180L1207 244M1232 236L1177 316M1232 236L1207 244M1352 192L1405 191M1352 192L1341 304M1352 192L1452 251M1405 191L1480 237M1405 191L1452 251M1480 237L1452 251M1579 217L1585 304M1579 217L1605 320M1665 202L1700 174M1665 202L1668 260M1665 202L1722 252M1700 174L1668 260M1700 174L1722 252M1815 174L1919 174M1815 174L1722 252M1815 174L1831 246M1919 174L1973 215M1973 215L2027 227M1973 215L1970 271M2027 227L1970 271M2027 227L2080 245M2103 187L2080 245M2103 187L2113 277M2103 187L2175 242M2225 215L2306 199M2225 215L2175 242M2225 215L2286 260M2306 199L2390 191M2306 199L2404 165M2306 199L2286 260M2390 191L2404 165M2390 191L2382 291M2532 193L2491 292M76 297L95 248M76 297L70 399M76 297L141 350M221 293L281 311M221 293L224 324M221 293L285 358M281 311L224 324M281 311L285 358M398 263L418 286M398 263L497 282M418 286L497 282M497 282L543 375M624 313L670 273M624 313L611 399M624 313L651 377M670 273L737 293M670 273L651 377M737 293L780 330M737 293L770 408M862 308L894 293M862 308L780 330M862 308L865 373M894 293L865 373M894 293L942 333M1023 298L942 333M1023 298L1014 348M1111 250L1207 244M1111 250L1145 335M1177 316L1207 244M1177 316L1145 335M1177 316L1225 373M1341 304L1390 320M1341 304L1452 251M1341 304L1293 340M1341 304L1383 346M1390 320L1452 251M1390 320L1293 340M1390 320L1383 346M1390 320L1456 394M1585 304L1668 260M1585 304L1599 321M1585 304L1605 320M1668 260L1722 252M1668 260L1605 320M1722 252L1831 246M1831 246L1876 287M1876 287L1970 271M1876 287L1834 367M1876 287L1909 351M1970 271L1909 351M1970 271L1958 367M2080 245L2113 277M2080 245L2175 242M2080 245L2075 335M2113 277L2175 242M2113 277L2075 335M2175 242L2286 260M2286 260L2382 291M2286 260L2319 361M2382 291L2415 302M2382 291L2319 361M2382 291L2375 364M2415 302L2491 292M2415 302L2375 364M2415 302L2434 389M2491 292L2520 344M70 399L141 350M70 399L84 453M70 399L29 482M141 350L224 324M141 350L192 422M224 324L285 358M285 358L324 390M285 358L260 423M324 390L260 423M324 390L343 458M454 398L543 375M454 398L453 430M454 398L495 409M543 375L611 399M543 375L495 409M543 375L610 426M611 399L651 377M611 399L610 426M611 399L577 481M651 377L610 426M651 377L710 453M780 330L770 408M780 330L813 406M865 373L942 333M865 373L813 406M865 373L954 401M942 333L1014 348M942 333L954 401M1014 348L1065 399M1014 348L954 401M1014 348L991 422M1065 399L1145 335M1065 399L991 422M1065 399L1076 421M1145 335L1225 373M1145 335L1076 421M1225 373L1293 340M1225 373L1266 403M1225 373L1288 452M1293 340L1383 346M1293 340L1266 403M1383 346L1456 394M1383 346L1435 425M1456 394L1435 425M1456 394L1519 452M1456 394L1521 429M1599 321L1605 320M1742 385L1834 367M1742 385L1671 473M1742 385L1751 416M1742 385L1805 417M1742 385L1719 502M1834 367L1909 351M1834 367L1805 417M1834 367L1913 411M1909 351L1958 367M1909 351L1913 411M1958 367L1913 411M1958 367L1979 438M1958 367L2006 418M2075 335L2102 388M2075 335L2173 394M2102 388L2173 394M2102 388L2006 418M2102 388L2129 437M2102 388L2190 420M2173 394L2129 437M2173 394L2190 420M2173 394L2253 455M2319 361L2375 364M2319 361L2336 461M2375 364L2434 389M2375 364L2336 461M2434 389L2520 344M2434 389L2455 480M2434 389L2484 468M2 480L84 453M2 480L-76 468M2 480L29 482M2 480L-2 501M2562 480L2484 468M2562 480L2558 501M84 453L29 482M84 453L124 499M84 453L-2 501M2644 453L2558 501M192 422L260 423M192 422L124 499M192 422L245 519M260 423L343 458M260 423L245 519M343 458L453 430M343 458L359 540M343 458L433 510M453 430L495 409M453 430L433 510M495 409L577 481M610 426L710 453M610 426L577 481M710 453L770 408M710 453L650 544M710 453L755 526M770 408L813 406M954 401L991 422M954 401L941 501M991 422L1076 421M991 422L990 498M1076 421L1154 475M1076 421L1066 510M1154 475L1266 403M1154 475L1066 510M1154 475L1191 552M1154 475L1253 516M1266 403L1288 452M1288 452L1253 516M1288 452L1347 525M1435 425L1519 452M1435 425L1521 429M1435 425L1461 495M1519 452L1521 429M1519 452L1461 495M1519 452L1533 536M1521 429L1461 495M1521 429L1533 536M1671 473L1751 416M1671 473L1604 524M1671 473L1719 502M1751 416L1805 417M1751 416L1719 502M1751 416L1810 528M1805 417L1873 517M1913 411L1979 438M1913 411L2006 418M1979 438L2006 418M1979 438L1923 515M1979 438L2047 532M2129 437L2190 420M2129 437L2115 524M2190 420L2253 455M2253 455L2336 461M2253 455L2235 543M2253 455L2319 489M2336 461L2319 489M2336 461L2376 511M2455 480L2484 468M2455 480L2376 511M2455 480L2428 552M2455 480L2448 575M2484 468L2589 482M2484 468L2558 501M-76 468L29 482M29 482L-2 501M2589 482L2558 501M124 499L190 526M124 499L130 577M190 526L245 519M190 526L130 577M190 526L212 564M190 526L242 576M245 519L212 564M245 519L242 576M359 540L433 510M359 540L359 571M433 510L359 571M433 510L510 573M535 519L577 481M535 519L510 573M577 481L650 544M650 544L755 526M650 544L607 616M650 544L713 621M755 526L805 555M755 526L713 621M755 526L785 589M805 555L785 589M805 555L860 570M805 555L881 565M941 501L990 498M941 501L860 570M941 501L881 565M990 498L1066 510M1066 510L1021 608M1066 510L1088 602M1191 552L1253 516M1191 552L1246 586M1253 516L1347 525M1253 516L1246 586M1347 525L1387 544M1347 525L1335 619M1347 525L1380 564M1387 544L1380 564M1387 544L1464 570M1461 495L1533 536M1461 495L1464 570M1533 536L1604 524M1533 536L1464 570M1604 524L1582 624M1604 524L1604 618M1719 502L1810 528M1810 528L1873 517M1810 528L1819 567M1873 517L1923 515M1873 517L1819 567M1873 517L1911 596M1923 515L1911 596M1923 515L1962 617M2047 532L2115 524M2047 532L1962 617M2047 532L2100 578M2115 524L2235 543M2115 524L2100 578M2115 524L2171 579M2235 543L2319 489M2235 543L2171 579M2235 543L2271 623M2319 489L2376 511M2319 489L2364 572M2376 511L2428 552M2376 511L2364 572M2428 552L2364 572M2428 552L2448 575M2558 501L2548 583M12 607L-12 583M12 607L122 643M12 607L-34 647M2572 607L2548 583M2572 607L2526 647M130 577L212 564M130 577L122 643M130 577L202 641M212 564L242 576M212 564L202 641M242 576L202 641M242 576L259 647M438 629L510 573M438 629L391 700M438 629L436 713M438 629L504 718M510 573L607 616M607 616L609 682M607 616L667 666M713 621L785 589M713 621L667 666M713 621L767 683M785 589L860 570M785 589L881 565M860 570L881 565M860 570L915 649M881 565L915 649M1021 608L1088 602M1021 608L1009 703M1021 608L1073 671M1088 602L1132 639M1088 602L1073 671M1132 639L1073 671M1132 639L1159 708M1132 639L1222 664M1132 639L1149 721M1246 586L1335 619M1246 586L1222 664M1246 586L1304 689M1335 619L1380 564M1335 619L1304 689M1335 619L1379 646M1380 564L1464 570M1380 564L1379 646M1464 570L1512 641M1582 624L1604 618M1582 624L1512 641M1582 624L1562 682M1582 624L1645 705M1604 618L1512 641M1604 618L1562 682M1604 618L1645 705M1740 637L1819 567M1740 637L1759 646M1740 637L1823 678M1819 567L1911 596M1819 567L1759 646M1911 596L1962 617M1911 596L2010 637M1962 617L2010 637M1962 617L1969 713M2010 637L1969 713M2010 637L2059 678M2010 637L1995 726M2100 578L2171 579M2171 579L2271 623M2271 623L2192 690M2271 623L2266 696M2364 572L2448 575M2364 572L2399 668M2448 575L2548 583M2448 575L2526 647M2548 583L2526 647M79 700L122 643M79 700L69 770M122 643L202 641M202 641L259 647M259 647L313 731M391 700L436 713M391 700L313 731M391 700L384 746M391 700L406 736M436 713L504 718M436 713L384 746M436 713L406 736M504 718L609 682M504 718L406 736M504 718L536 750M609 682L667 666M609 682L536 750M667 666L767 683M667 666L670 766M767 683L867 708M867 708L915 649M867 708L834 775M867 708L929 791M867 708L844 817M915 649L1009 703M1009 703L1073 671M1009 703L1003 799M1009 703L1085 734M1073 671L1085 734M1159 708L1222 664M1159 708L1085 734M1159 708L1149 721M1159 708L1212 789M1222 664L1304 689M1222 664L1149 721M1304 689L1379 646M1304 689L1337 754M1379 646L1337 754M1512 641L1562 682M1562 682L1645 705M1562 682L1473 745M1645 705L1659 792M1645 705L1711 749M1759 646L1823 678M1759 646L1816 729M1823 678L1865 704M1823 678L1816 729M1823 678L1874 737M1865 704L1816 729M1865 704L1874 737M1969 713L1874 737M1969 713L1995 726M1969 713L1964 804M2059 678L2106 708M2059 678L1995 726M2059 678L2075 730M2106 708L2192 690M2106 708L2075 730M2106 708L2133 767M2192 690L2266 696M2192 690L2133 767M2266 696L2272 771M2399 668L2447 713M2399 668L2359 752M2447 713L2526 647M2447 713L2359 752M2447 713L2406 776M2447 713L2495 746M2526 647L2495 746M69 770L159 771M69 770L131 802M69 770L-14 832M2629 770L2546 832M159 771L180 760M159 771L131 802M159 771L179 819M159 771L268 808M180 760L131 802M180 760L179 819M180 760L268 808M313 731L384 746M313 731L406 736M313 731L268 808M384 746L406 736M384 746L414 852M536 750L631 784M536 750L527 829M631 784L670 766M631 784L635 815M631 784L641 815M670 766L740 799M670 766L635 815M670 766L641 815M740 799L834 775M740 799L724 830M740 799L750 893M834 775L929 791M834 775L844 817M834 775L896 843M929 791L1003 799M929 791L844 817M929 791L896 843M1003 799L896 843M1003 799L1024 843M1003 799L1103 840M1085 734L1149 721M1085 734L1103 840M1149 721L1212 789M1212 789L1238 876M1337 754L1404 784M1337 754L1333 815M1337 754L1406 815M1404 784L1473 745M1404 784L1333 815M1404 784L1406 815M1473 745L1528 792M1473 745L1406 815M1473 745L1500 823M1528 792L1500 823M1528 792L1622 860M1659 792L1711 749M1659 792L1622 860M1659 792L1763 839M1711 749L1816 729M1711 749L1757 854M1711 749L1763 839M1816 729L1874 737M1874 737L1964 804M1995 726L2075 730M1995 726L1964 804M2075 730L2133 767M2075 730L2121 830M2133 767L2223 798M2133 767L2121 830M2223 798L2272 771M2223 798L2208 851M2223 798L2255 868M2223 798L2188 881M2272 771L2359 752M2272 771L2255 868M2359 752L2406 776M2359 752L2366 824M2406 776L2495 746M2406 776L2366 824M2406 776L2463 856M2495 746L2546 832M77 865L131 802M77 865L-14 832M77 865L56 938M77 865L107 945M77 865L177 890M2637 865L2546 832M131 802L179 819M179 819L268 808M179 819L177 890M268 808L363 868M363 868L414 852M363 868L365 906M363 868L376 976M414 852L527 829M414 852L365 906M414 852L459 954M635 815L641 815M635 815L724 830M635 815L694 884M641 815L724 830M641 815L694 884M724 830L694 884M724 830L750 893M844 817L896 843M844 817L839 935M896 843L908 902M1024 843L1103 840M1024 843L1012 921M1024 843L1055 939M1103 840L1137 873M1137 873L1238 876M1137 873L1055 939M1137 873L1189 931M1137 873L1224 932M1238 876L1189 931M1238 876L1224 932M1333 815L1406 815M1333 815L1403 908M1406 815L1500 823M1500 823L1566 869M1500 823L1507 917M1566 869L1622 860M1566 869L1507 917M1566 869L1582 918M1566 869L1617 908M1622 860L1582 918M1622 860L1617 908M1757 854L1763 839M1757 854L1857 867M1757 854L1744 957M1757 854L1774 889M1763 839L1857 867M1763 839L1774 889M1857 867L1774 889M1857 867L1868 910M1964 804L2008 827M2008 827L1979 928M2008 827L2052 926M2121 830L2208 851M2121 830L2138 900M2121 830L2188 881M2208 851L2255 868M2208 851L2138 900M2208 851L2188 881M2255 868L2188 881M2255 868L2278 903M2366 824L2463 856M2366 824L2278 903M2366 824L2431 894M2463 856L2546 832M2463 856L2431 894M2463 856L2514 920M2546 832L2514 920M56 938L107 945M56 938L-46 920M56 938L72 986M56 938L116 984M2616 938L2514 920M107 945L177 890M107 945L72 986M107 945L116 984M177 890L260 959M177 890L205 985M260 959L205 985M260 959L256 1017M260 959L376 976M260 959L230 1055M365 906L376 976M459 954L552 942M459 954L376 976M459 954L444 1030M459 954L557 966M552 942L625 934M552 942L557 966M552 942L532 1051M625 934L694 884M625 934L557 966M625 934L656 968M694 884L750 893M750 893L839 935M839 935L908 902M839 935L864 982M908 902L1012 921M908 902L864 982M1012 921L1055 939M1012 921L932 1006M1012 921L1009 1021M1055 939L1009 1021M1055 939L1110 998M1189 931L1224 932M1189 931L1154 1019M1189 931L1206 975M1224 932L1154 1019M1224 932L1206 975M1358 942L1403 908M1358 942L1347 973M1358 942L1351 1042M1403 908L1507 917M1403 908L1347 973M1507 917L1582 918M1507 917L1532 995M1582 918L1617 908M1582 918L1602 983M1617 908L1602 983M1744 957L1774 889M1744 957L1705 1006M1744 957L1826 983M1744 957L1764 1053M1774 889L1868 910M1868 910L1979 928M1868 910L1826 983M1979 928L2052 926M1979 928L1956 1025M1979 928L2014 1009M2052 926L2138 900M2052 926L2014 1009M2052 926L2121 1011M2138 900L2188 881M2138 900L2187 996M2278 903L2372 938M2278 903L2243 1010M2278 903L2340 971M2372 938L2431 894M2372 938L2340 971M2372 938L2456 991M2431 894L2514 920M2431 894L2456 991M2514 920L2456 991M72 986L116 984M72 986L-37 1030M72 986L34 1069M2632 986L2523 1030M116 984L205 985M205 985L256 1017M205 985L230 1055M256 1017L230 1055M376 976L444 1030M444 1030L375 1077M444 1030L415 1107M444 1030L532 1051M557 966L615 1036M557 966L532 1051M615 1036L656 968M615 1036L532 1051M615 1036L598 1040M615 1036L704 1047M656 968L735 1028M656 968L598 1040M656 968L704 1047M735 1028L704 1047M735 1028L778 1057M864 982L932 1006M864 982L900 1058M932 1006L1009 1021M932 1006L900 1058M932 1006L968 1100M1009 1021L968 1100M1009 1021L1060 1046M1110 998L1154 1019M1110 998L1206 975M1110 998L1060 1046M1110 998L1174 1070M1154 1019L1206 975M1154 1019L1174 1070M1206 975L1174 1070M1347 973L1406 1025M1347 973L1351 1042M1347 973L1376 1044M1406 1025L1451 1036M1406 1025L1351 1042M1406 1025L1376 1044M1406 1025L1468 1053M1451 1036L1532 995M1451 1036L1376 1044M1451 1036L1468 1053M1532 995L1602 983M1532 995L1468 1053M1532 995L1608 1046M1602 983L1705 1006M1602 983L1608 1046M1705 1006L1753 1077M1705 1006L1764 1053M1826 983L1886 1037M1826 983L1753 1077M1826 983L1764 1053M1886 1037L1956 1025M1886 1037L1897 1116M1886 1037L1939 1053M1956 1025L2014 1009M1956 1025L1939 1053M1956 1025L2031 1060M2014 1009L1939 1053M2014 1009L2031 1060M2121 1011L2187 996M2121 1011L2031 1060M2121 1011L2128 1101M2187 996L2243 1010M2187 996L2128 1101M2187 996L2164 1116M2243 1010L2340 971M2243 1010L2260 1100M2340 971L2359 1076M2340 971L2425 1052M2456 991L2523 1030M2456 991L2425 1052M2523 1030L2594 1069M2523 1030L2425 1052M2523 1030L2539 1097M-37 1030L34 1069M34 1069L84 1118M34 1069L-21 1097M2594 1069L2539 1097M84 1118L-21 1097M84 1118L59 1195M84 1118L152 1148M84 1118L39 1201M2644 1118L2539 1097M230 1055L308 1113M230 1055L214 1133M308 1113L375 1077M308 1113L314 1174M308 1113L365 1154M375 1077L415 1107M375 1077L400 1127M415 1107L365 1154M415 1107L400 1127M415 1107L504 1179M532 1051L598 1040M598 1040L704 1047M704 1047L778 1057M778 1057L821 1103M778 1057L811 1140M821 1103L900 1058M821 1103L775 1184M821 1103L811 1140M821 1103L890 1120M900 1058L968 1100M900 1058L890 1120M968 1100L890 1120M968 1100L974 1185M1174 1070L1279 1100M1174 1070L1263 1127M1279 1100L1351 1042M1279 1100L1263 1127M1351 1042L1376 1044M1376 1044L1468 1053M1468 1053L1496 1142M1556 1113L1608 1046M1556 1113L1496 1142M1556 1113L1592 1142M1556 1113L1622 1124M1608 1046L1592 1142M1608 1046L1622 1124M1753 1077L1764 1053M1753 1077L1724 1169M1897 1116L1939 1053M1897 1116L1879 1147M1897 1116L1925 1169M1939 1053L2031 1060M2128 1101L2164 1116M2128 1101L2117 1149M2128 1101L2170 1149M2164 1116L2260 1100M2164 1116L2117 1149M2164 1116L2170 1149M2260 1100L2359 1076M2260 1100L2274 1150M2359 1076L2425 1052M2359 1076L2274 1150M2539 1097L2494 1179M59 1195L152 1148M59 1195L39 1201M59 1195L132 1231M59 1195L87 1290M152 1148L214 1133M152 1148L132 1231M152 1148L192 1203M214 1133L192 1203M314 1174L365 1154M314 1174L400 1127M314 1174L300 1241M314 1174L356 1206M365 1154L400 1127M365 1154L356 1206M400 1127L356 1206M504 1179L479 1220M504 1179L551 1214M629 1179L684 1177M629 1179L551 1214M629 1179L599 1279M629 1179L656 1228M684 1177L775 1184M684 1177L656 1228M684 1177L731 1251M775 1184L811 1140M775 1184L731 1251M775 1184L822 1258M811 1140L890 1120M811 1140L893 1218M890 1120L893 1218M974 1185L893 1218M974 1185L1028 1213M1118 1186L1175 1189M1118 1186L1028 1213M1118 1186L1107 1250M1175 1189L1263 1127M1175 1189L1107 1250M1175 1189L1190 1277M1175 1189L1262 1230M1263 1127L1346 1184M1346 1184L1408 1131M1346 1184L1262 1230M1346 1184L1333 1240M1346 1184L1388 1263M1408 1131L1496 1142M1496 1142L1592 1142M1592 1142L1622 1124M1592 1142L1582 1258M1622 1124L1724 1169M1724 1169L1816 1187M1724 1169L1736 1245M1724 1169L1791 1204M1816 1187L1879 1147M1816 1187L1791 1204M1816 1187L1840 1201M1816 1187L1766 1287M1879 1147L1925 1169M1879 1147L1840 1201M1879 1147L1930 1237M1925 1169L2021 1186M1925 1169L1840 1201M1925 1169L1930 1237M2021 1186L2075 1208M2021 1186L2098 1216M2117 1149L2170 1149M2117 1149L2075 1208M2117 1149L2098 1216M2170 1149L2098 1216M2170 1149L2184 1250M2274 1150L2348 1186M2274 1150L2300 1231M2274 1150L2336 1214M2348 1186L2424 1169M2348 1186L2300 1231M2348 1186L2336 1214M2348 1186L2402 1205M2424 1169L2494 1179M2424 1169L2336 1214M2424 1169L2402 1205M2424 1169L2491 1257M2494 1179L2599 1201M2494 1179L2402 1205M2494 1179L2491 1257M-66 1179L39 1201M39 1201L87 1290M132 1231L192 1203M132 1231L87 1290M132 1231L204 1301M192 1203L204 1301M300 1241L356 1206M300 1241L291 1315M300 1241L326 1305M356 1206L326 1305M479 1220L551 1214M479 1220L403 1297M551 1214L599 1279M599 1279L656 1228M599 1279L550 1349M599 1279L629 1294M656 1228L629 1294M656 1228L715 1287M731 1251L822 1258M731 1251L715 1287M731 1251L749 1292M822 1258L893 1218M822 1258L749 1292M822 1258L855 1315M893 1218L855 1315M1028 1213L1107 1250M1107 1250L1190 1277M1107 1250L1048 1338M1190 1277L1262 1230M1190 1277L1194 1357M1262 1230L1333 1240M1262 1230L1274 1303M1333 1240L1388 1263M1333 1240L1274 1303M1333 1240L1338 1306M1388 1263L1462 1261M1388 1263L1338 1306M1388 1263L1383 1320M1462 1261L1383 1320M1462 1261L1469 1280M1582 1258L1627 1255M1582 1258L1469 1280M1582 1258L1559 1349M1582 1258L1649 1299M1627 1255L1559 1349M1627 1255L1649 1299M1736 1245L1791 1204M1736 1245L1702 1316M1736 1245L1766 1287M1791 1204L1840 1201M1791 1204L1766 1287M1840 1201L1930 1237M1930 1237L1884 1313M1930 1237L1935 1320M2075 1208L2098 1216M2098 1216L2184 1250M2184 1250L2141 1335M2184 1250L2232 1296M2300 1231L2336 1214M2300 1231L2232 1296M2300 1231L2303 1324M2336 1214L2402 1205M2491 1257L2435 1297M2491 1257L2539 1328M51 1296L87 1290M51 1296L-21 1328M2611 1296L2539 1328M87 1290L127 1381M204 1301L291 1315M204 1301L127 1381M204 1301L206 1399M291 1315L326 1305M291 1315L253 1423M326 1305L403 1297M403 1297L398 1409M403 1297L445 1392M550 1349L629 1294M550 1349L500 1435M550 1349L606 1393M629 1294L715 1287M629 1294L606 1393M715 1287L749 1292M715 1287L764 1382M749 1292L855 1315M749 1292L764 1382M855 1315L954 1348M855 1315L851 1394M954 1348L1011 1337M954 1348L1048 1338M954 1348L946 1431M954 1348L963 1396M1011 1337L1048 1338M1011 1337L963 1396M1011 1337L1054 1409M1048 1338L1054 1409M1048 1338L1141 1364M1194 1357L1141 1364M1194 1357L1279 1366M1194 1357L1283 1363M1274 1303L1338 1306M1274 1303L1279 1366M1274 1303L1283 1363M1338 1306L1383 1320M1338 1306L1279 1366M1383 1320L1469 1280M1383 1320L1431 1394M1559 1349L1530 1433M1649 1299L1702 1316M1649 1299L1661 1409M1649 1299L1689 1380M1702 1316L1766 1287M1702 1316L1689 1380M1702 1316L1762 1362M1766 1287L1762 1362M1884 1313L1935 1320M1884 1313L1903 1374M1935 1320L2027 1351M1935 1320L1903 1374M1935 1320L1993 1370M2027 1351L1993 1370M2027 1351L2041 1369M2027 1351L2110 1384M2141 1335L2232 1296M2141 1335L2041 1369M2141 1335L2110 1384M2141 1335L2203 1400M2232 1296L2303 1324M2232 1296L2203 1400M2303 1324L2353 1322M2303 1324L2285 1415M2353 1322L2435 1297M2353 1322L2401 1393M2435 1297L2482 1363M2539 1328L2593 1408M2539 1328L2482 1363M-21 1328L33 1408M33 1408L127 1381M127 1381L206 1399M206 1399L253 1423M398 1409L445 1392M445 1392L500 1435M606 1393L709 1438M709 1438L764 1382M764 1382L851 1394M946 1431L963 1396M1054 1409L1141 1364M1279 1366L1283 1363M1431 1394L1445 1435M1431 1394L1530 1433M1445 1435L1530 1433M1661 1409L1689 1380M1661 1409L1762 1362M1689 1380L1762 1362M1903 1374L1993 1370M1993 1370L2041 1369M2041 1369L2110 1384M2110 1384L2203 1400M2203 1400L2285 1415M2285 1415L2395 1424M2395 1424L2401 1393M2401 1393L2482 1363"/></svg>