<svg xmlns="http://www.w3.org/2000/svg" width="2560" height="1440" fill="#fff"><circle cx="23" cy="57" r="4"/><circle cx="113" cy="44" r="4"/><circle cx="230" cy="60" r="5"/><circle cx="240" cy="3" r="6"/><circle cx="240" cy="1443" r="6"/><circle cx="383" cy="79" r="5"/><circle cx="457" cy="29" r="6"/><circle cx="532" cy="77" r="5"/><circle cx="627" cy="56" r="5"/><circle cx="717" cy="55" r="5"/><circle cx="790" cy="48" r="5"/><circle cx="872" cy="41" r="6"/><circle cx="888" cy="16" r="5"/><circle cx="978" cy="67" r="6"/><circle cx="1066" cy="41" r="5"/><circle cx="1165" cy="20" r="5"/><circle cx="1276" cy="9" r="4"/><circle cx="1356" cy="48" r="5"/><circle cx="1397" cy="8" r="6"/><circle cx="1456" cy="73" r="5"/><circle cx="1538" cy="40" r="5"/><circle cx="1677" cy="59" r="5"/><circle cx="1709" cy="40" r="6"/><circle cx="1793" cy="15" r="5"/><circle cx="1874" cy="15" r="6"/><circle cx="1959" cy="28" r="5"/><circle cx="2031" cy="77" r="5"/><circle cx="2155" cy="32" r="5"/><circle cx="2184" cy="74" r="6"/><circle cx="2257" cy="49" r="5"/><circle cx="2355" cy="28" r="6"/><circle cx="2401" cy="68" r="5"/><circle cx="2504" cy="16" r="5"/><circle cx="47" cy="155" r="5"/><circle cx="141" cy="129" r="4"/><circle cx="190" cy="94" r="6"/><circle cx="283" cy="93" r="5"/><circle cx="370" cy="155" r="4"/><circle cx="430" cy="97" r="5"/><circle cx="487" cy="154" r="5"/><circle cx="598" cy="129" r="6"/><circle cx="700" cy="139" r="5"/><circle cx="731" cy="141" r="5"/><circle cx="802" cy="84" r="5"/><circle cx="960" cy="94" r="5"/><circle cx="1034" cy="118" r="4"/><circle cx="1074" cy="98" r="4"/><circle cx="1182" cy="83" r="5"/><circle cx="1248" cy="153" r="5"/><circle cx="1300" cy="91" r="4"/><circle cx="1406" cy="105" r="4"/><circle cx="1492" cy="81" r="5"/><circle cx="1537" cy="92" r="4"/><circle cx="1663" cy="112" r="5"/><circle cx="1732" cy="139" r="5"/><circle cx="1786" cy="152" r="4"/><circle cx="1856" cy="159" r="4"/><circle cx="1989" cy="97" r="5"/><circle cx="2039" cy="110" r="4"/><circle cx="2092" cy="145" r="5"/><circle cx="2169" cy="89" r="5"/><circle cx="2260" cy="117" r="6"/><circle cx="2335" cy="147" r="6"/><circle cx="2418" cy="130" r="6"/><circle cx="2555" cy="156" r="5"/><circle cx="30" cy="214" r="5"/><circle cx="115" cy="232" r="6"/><circle cx="177" cy="224" r="5"/><circle cx="287" cy="209" r="5"/><circle cx="381" cy="189" r="5"/><circle cx="421" cy="163" r="5"/><circle cx="488" cy="211" r="5"/><circle cx="590" cy="163" r="6"/><circle cx="667" cy="163" r="4"/><circle cx="722" cy="218" r="5"/><circle cx="878" cy="233" r="6"/><circle cx="951" cy="237" r="6"/><circle cx="975" cy="175" r="4"/><circle cx="1068" cy="215" r="4"/><circle cx="1197" cy="207" r="6"/><circle cx="1238" cy="233" r="5"/><circle cx="1324" cy="234" r="5"/><circle cx="1389" cy="215" r="5"/><circle cx="1463" cy="235" r="5"/><circle cx="1568" cy="182" r="4"/><circle cx="1675" cy="213" r="4"/><circle cx="1727" cy="226" r="6"/><circle cx="1786" cy="199" r="5"/><circle cx="1895" cy="234" r="6"/><circle cx="1998" cy="189" r="4"/><circle cx="2054" cy="173" r="5"/><circle cx="2116" cy="191" r="5"/><circle cx="2161" cy="212" r="6"/><circle cx="2315" cy="204" r="5"/><circle cx="2390" cy="216" r="6"/><circle cx="2465" cy="210" r="4"/><circle cx="2559" cy="187" r="4"/><circle cx="-1" cy="187" r="4"/><circle cx="70" cy="293" r="5"/><circle cx="104" cy="313" r="5"/><circle cx="213" cy="273" r="5"/><circle cx="287" cy="301" r="6"/><circle cx="398" cy="288" r="5"/><circle cx="478" cy="278" r="5"/><circle cx="528" cy="286" r="5"/><circle cx="602" cy="281" r="6"/><circle cx="654" cy="280" r="5"/><circle cx="733" cy="266" r="5"/><circle cx="828" cy="253" r="5"/><circle cx="953" cy="245" r="4"/><circle cx="1012" cy="248" r="5"/><circle cx="1061" cy="264" r="4"/><circle cx="1125" cy="312" r="5"/><circle cx="1237" cy="262" r="6"/><circle cx="1281" cy="257" r="6"/><circle cx="1408" cy="310" r="4"/><circle cx="1511" cy="267" r="6"/><circle cx="1534" cy="276" r="5"/><circle cx="1604" cy="260" r="4"/><circle cx="1695" cy="246" r="6"/><circle cx="1773" cy="277" r="5"/><circle cx="1849" cy="294" r="6"/><circle cx="1928" cy="240" r="4"/><circle cx="2063" cy="255" r="5"/><circle cx="2101" cy="310" r="5"/><circle cx="2218" cy="248" r="5"/><circle cx="2262" cy="284" r="4"/><circle cx="2376" cy="312" r="6"/><circle cx="2424" cy="290" r="6"/><circle cx="2513" cy="242" r="4"/><circle cx="39" cy="386" r="6"/><circle cx="80" cy="383" r="5"/><circle cx="174" cy="338" r="5"/><circle cx="283" cy="385" r="5"/><circle cx="336" cy="373" r="5"/><circle cx="479" cy="362" r="5"/><circle cx="502" cy="331" r="5"/><circle cx="640" cy="388" r="5"/><circle cx="688" cy="328" r="5"/><circle cx="760" cy="373" r="5"/><circle cx="869" cy="321" r="6"/><circle cx="913" cy="330" r="4"/><circle cx="970" cy="344" r="6"/><circle cx="1059" cy="369" r="4"/><circle cx="1140" cy="336" r="4"/><circle cx="1248" cy="387" r="5"/><circle cx="1320" cy="391" r="5"/><circle cx="1380" cy="384" r="5"/><circle cx="1509" cy="346" r="6"/><circle cx="1579" cy="377" r="5"/><circle cx="1647" cy="346" r="6"/><circle cx="1722" cy="362" r="5"/><circle cx="1804" cy="332" r="5"/><circle cx="1895" cy="382" r="6"/><circle cx="1997" cy="362" r="5"/><circle cx="2019" cy="383" r="5"/><circle cx="2127" cy="393" r="6"/><circle cx="2185" cy="366" r="6"/><circle cx="2306" cy="332" r="5"/><circle cx="2341" cy="333" r="5"/><circle cx="2409" cy="383" r="5"/><circle cx="2488" cy="343" r="4"/><circle cx="27" cy="424" r="5"/><circle cx="134" cy="405" r="5"/><circle cx="223" cy="476" r="6"/><circle cx="261" cy="419" r="6"/><circle cx="378" cy="478" r="5"/><circle cx="464" cy="476" r="6"/><circle cx="558" cy="405" r="6"/><circle cx="577" cy="442" r="5"/><circle cx="665" cy="431" r="4"/><circle cx="746" cy="435" r="4"/><circle cx="832" cy="421" r="5"/><circle cx="910" cy="454" r="5"/><circle cx="971" cy="433" r="4"/><circle cx="1077" cy="435" r="4"/><circle cx="1191" cy="440" r="4"/><circle cx="1246" cy="435" r="6"/><circle cx="1337" cy="424" r="4"/><circle cx="1427" cy="412" r="5"/><circle cx="1447" cy="422" r="6"/><circle cx="1579" cy="438" r="5"/><circle cx="1619" cy="459" r="5"/><circle cx="1738" cy="402" r="4"/><circle cx="1788" cy="441" r="5"/><circle cx="1858" cy="457" r="6"/><circle cx="1960" cy="410" r="4"/><circle cx="2040" cy="442" r="5"/><circle cx="2084" cy="467" r="5"/><circle cx="2222" cy="417" r="5"/><circle cx="2241" cy="438" r="6"/><circle cx="2339" cy="433" r="4"/><circle cx="2460" cy="408" r="4"/><circle cx="2487" cy="424" r="5"/><circle cx="48" cy="481" r="5"/><circle cx="134" cy="527" r="5"/><circle cx="185" cy="524" r="5"/><circle cx="259" cy="535" r="6"/><circle cx="336" cy="522" r="6"/><circle cx="433" cy="510" r="6"/><circle cx="515" cy="527" r="5"/><circle cx="622" cy="527" r="4"/><circle cx="649" cy="534" r="6"/><circle cx="758" cy="548" r="6"/><circle cx="827" cy="558" r="6"/><circle cx="887" cy="521" r="5"/><circle cx="1006" cy="542" r="5"/><circle cx="1098" cy="530" r="6"/><circle cx="1182" cy="493" r="6"/><circle cx="1260" cy="489" r="5"/><circle cx="1349" cy="545" r="4"/><circle cx="1426" cy="552" r="6"/><circle cx="1488" cy="534" r="6"/><circle cx="1574" cy="515" r="5"/><circle cx="1610" cy="514" r="5"/><circle cx="1684" cy="481" r="4"/><circle cx="1810" cy="498" r="4"/><circle cx="1857" cy="554" r="5"/><circle cx="1951" cy="514" r="5"/><circle cx="2033" cy="498" r="5"/><circle cx="2151" cy="507" r="5"/><circle cx="2230" cy="536" r="6"/><circle cx="2275" cy="488" r="5"/><circle cx="2326" cy="549" r="4"/><circle cx="2441" cy="536" r="5"/><circle cx="2528" cy="509" r="5"/><circle cx="64" cy="638" r="5"/><circle cx="157" cy="566" r="5"/><circle cx="216" cy="565" r="5"/><circle cx="313" cy="574" r="5"/><circle cx="375" cy="576" r="6"/><circle cx="471" cy="578" r="6"/><circle cx="549" cy="627" r="5"/><circle cx="560" cy="626" r="5"/><circle cx="668" cy="624" r="4"/><circle cx="754" cy="631" r="5"/><circle cx="826" cy="582" r="5"/><circle cx="924" cy="599" r="6"/><circle cx="1037" cy="571" r="4"/><circle cx="1096" cy="610" r="5"/><circle cx="1176" cy="625" r="6"/><circle cx="1272" cy="623" r="5"/><circle cx="1318" cy="638" r="5"/><circle cx="1373" cy="625" r="6"/><circle cx="1472" cy="562" r="5"/><circle cx="1590" cy="616" r="6"/><circle cx="1618" cy="598" r="4"/><circle cx="1719" cy="588" r="6"/><circle cx="1826" cy="616" r="4"/><circle cx="1883" cy="594" r="6"/><circle cx="1927" cy="563" r="6"/><circle cx="2017" cy="618" r="5"/><circle cx="2083" cy="561" r="6"/><circle cx="2201" cy="585" r="6"/><circle cx="2258" cy="612" r="6"/><circle cx="2398" cy="574" r="5"/><circle cx="2442" cy="571" r="5"/><circle cx="2486" cy="589" r="5"/><circle cx="73" cy="672" r="5"/><circle cx="139" cy="666" r="5"/><circle cx="172" cy="654" r="5"/><circle cx="287" cy="688" r="4"/><circle cx="374" cy="661" r="4"/><circle cx="408" cy="686" r="6"/><circle cx="497" cy="668" r="5"/><circle cx="569" cy="681" r="6"/><circle cx="659" cy="645" r="6"/><circle cx="785" cy="705" r="4"/><circle cx="824" cy="651" r="5"/><circle cx="947" cy="657" r="5"/><circle cx="1002" cy="657" r="5"/><circle cx="1102" cy="687" r="6"/><circle cx="1173" cy="704" r="5"/><circle cx="1279" cy="708" r="5"/><circle cx="1323" cy="702" r="5"/><circle cx="1433" cy="694" r="4"/><circle cx="1483" cy="716" r="5"/><circle cx="1595" cy="699" r="5"/><circle cx="1656" cy="664" r="5"/><circle cx="1719" cy="642" r="5"/><circle cx="1762" cy="687" r="5"/><circle cx="1876" cy="671" r="5"/><circle cx="1988" cy="641" r="5"/><circle cx="2014" cy="687" r="5"/><circle cx="2112" cy="672" r="5"/><circle cx="2175" cy="688" r="5"/><circle cx="2307" cy="699" r="5"/><circle cx="2340" cy="681" r="4"/><circle cx="2415" cy="669" r="5"/><circle cx="2509" cy="696" r="4"/><circle cx="74" cy="790" r="5"/><circle cx="104" cy="778" r="5"/><circle cx="205" cy="795" r="6"/><circle cx="310" cy="793" r="5"/><circle cx="350" cy="781" r="6"/><circle cx="467" cy="790" r="5"/><circle cx="505" cy="793" r="4"/><circle cx="631" cy="722" r="4"/><circle cx="703" cy="735" r="5"/><circle cx="797" cy="734" r="6"/><circle cx="833" cy="755" r="5"/><circle cx="881" cy="795" r="5"/><circle cx="1004" cy="761" r="5"/><circle cx="1065" cy="786" r="5"/><circle cx="1174" cy="724" r="5"/><circle cx="1211" cy="731" r="5"/><circle cx="1346" cy="725" r="4"/><circle cx="1391" cy="740" r="5"/><circle cx="1463" cy="755" r="6"/><circle cx="1569" cy="783" r="4"/><circle cx="1622" cy="795" r="4"/><circle cx="1690" cy="748" r="5"/><circle cx="1767" cy="737" r="6"/><circle cx="1891" cy="779" r="6"/><circle cx="1952" cy="731" r="5"/><circle cx="2039" cy="789" r="4"/><circle cx="2133" cy="759" r="5"/><circle cx="2173" cy="791" r="6"/><circle cx="2313" cy="757" r="4"/><circle cx="2357" cy="749" r="4"/><circle cx="2468" cy="792" r="5"/><circle cx="2485" cy="784" r="5"/><circle cx="80" cy="848" r="5"/><circle cx="130" cy="809" r="5"/><circle cx="184" cy="846" r="5"/><circle cx="279" cy="868" r="5"/><circle cx="353" cy="873" r="4"/><circle cx="453" cy="803" r="4"/><circle cx="504" cy="827" r="5"/><circle cx="635" cy="822" r="6"/><circle cx="710" cy="804" r="5"/><circle cx="744" cy="836" r="5"/><circle cx="873" cy="832" r="4"/><circle cx="890" cy="825" r="6"/><circle cx="985" cy="804" r="6"/><circle cx="1053" cy="813" r="5"/><circle cx="1186" cy="855" r="4"/><circle cx="1269" cy="851" r="4"/><circle cx="1319" cy="849" r="6"/><circle cx="1437" cy="872" r="4"/><circle cx="1498" cy="860" r="4"/><circle cx="1573" cy="831" r="6"/><circle cx="1626" cy="845" r="6"/><circle cx="1718" cy="840" r="6"/><circle cx="1824" cy="831" r="4"/><circle cx="1907" cy="836" r="6"/><circle cx="1943" cy="877" r="5"/><circle cx="2045" cy="824" r="5"/><circle cx="2131" cy="815" r="5"/><circle cx="2190" cy="874" r="5"/><circle cx="2253" cy="813" r="6"/><circle cx="2360" cy="823" r="4"/><circle cx="2451" cy="843" r="5"/><circle cx="2533" cy="853" r="5"/><circle cx="32" cy="948" r="5"/><circle cx="151" cy="912" r="4"/><circle cx="179" cy="935" r="5"/><circle cx="303" cy="940" r="6"/><circle cx="389" cy="926" r="4"/><circle cx="428" cy="889" r="4"/><circle cx="510" cy="953" r="4"/><circle cx="630" cy="952" r="4"/><circle cx="708" cy="947" r="4"/><circle cx="782" cy="937" r="4"/><circle cx="863" cy="943" r="5"/><circle cx="886" cy="936" r="5"/><circle cx="975" cy="926" r="5"/><circle cx="1093" cy="916" r="4"/><circle cx="1136" cy="881" r="6"/><circle cx="1249" cy="908" r="5"/><circle cx="1305" cy="926" r="5"/><circle cx="1421" cy="925" r="5"/><circle cx="1457" cy="936" r="5"/><circle cx="1593" cy="938" r="5"/><circle cx="1605" cy="951" r="5"/><circle cx="1721" cy="911" r="6"/><circle cx="1786" cy="952" r="6"/><circle cx="1900" cy="918" r="5"/><circle cx="1960" cy="929" r="5"/><circle cx="2045" cy="946" r="5"/><circle cx="2116" cy="950" r="5"/><circle cx="2222" cy="937" r="5"/><circle cx="2314" cy="948" r="5"/><circle cx="2337" cy="910" r="4"/><circle cx="2450" cy="941" r="4"/><circle cx="2502" cy="953" r="5"/><circle cx="49" cy="989" r="5"/><circle cx="113" cy="962" r="5"/><circle cx="165" cy="994" r="5"/><circle cx="250" cy="970" r="5"/><circle cx="386" cy="991" r="5"/><circle cx="402" cy="1013" r="5"/><circle cx="543" cy="963" r="5"/><circle cx="620" cy="1012" r="4"/><circle cx="699" cy="1037" r="6"/><circle cx="761" cy="1004" r="5"/><circle cx="838" cy="1022" r="4"/><circle cx="922" cy="1034" r="5"/><circle cx="967" cy="999" r="4"/><circle cx="1095" cy="978" r="5"/><circle cx="1144" cy="965" r="6"/><circle cx="1252" cy="1006" r="5"/><circle cx="1322" cy="996" r="5"/><circle cx="1417" cy="1007" r="5"/><circle cx="1485" cy="1027" r="4"/><circle cx="1531" cy="1006" r="5"/><circle cx="1653" cy="1022" r="5"/><circle cx="1690" cy="981" r="5"/><circle cx="1795" cy="1011" r="4"/><circle cx="1907" cy="967" r="6"/><circle cx="1991" cy="1025" r="5"/><circle cx="2071" cy="978" r="5"/><circle cx="2132" cy="987" r="4"/><circle cx="2173" cy="968" r="5"/><circle cx="2244" cy="996" r="6"/><circle cx="2368" cy="1015" r="5"/><circle cx="2479" cy="1025" r="5"/><circle cx="2551" cy="1034" r="4"/><circle cx="42" cy="1062" r="5"/><circle cx="88" cy="1112" r="5"/><circle cx="228" cy="1055" r="6"/><circle cx="299" cy="1044" r="5"/><circle cx="345" cy="1105" r="5"/><circle cx="417" cy="1063" r="4"/><circle cx="522" cy="1076" r="6"/><circle cx="573" cy="1078" r="6"/><circle cx="647" cy="1057" r="6"/><circle cx="752" cy="1117" r="4"/><circle cx="852" cy="1049" r="4"/><circle cx="901" cy="1073" r="6"/><circle cx="1017" cy="1090" r="5"/><circle cx="1113" cy="1114" r="5"/><circle cx="1173" cy="1045" r="5"/><circle cx="1274" cy="1094" r="4"/><circle cx="1302" cy="1068" r="5"/><circle cx="1431" cy="1119" r="5"/><circle cx="1448" cy="1080" r="5"/><circle cx="1575" cy="1067" r="5"/><circle cx="1600" cy="1118" r="4"/><circle cx="1682" cy="1049" r="4"/><circle cx="1793" cy="1080" r="4"/><circle cx="1862" cy="1045" r="6"/><circle cx="1977" cy="1101" r="5"/><circle cx="2063" cy="1075" r="5"/><circle cx="2149" cy="1068" r="4"/><circle cx="2226" cy="1058" r="6"/><circle cx="2318" cy="1072" r="4"/><circle cx="2349" cy="1117" r="5"/><circle cx="2441" cy="1080" r="5"/><circle cx="2503" cy="1080" r="5"/><circle cx="61" cy="1122" r="5"/><circle cx="83" cy="1196" r="5"/><circle cx="211" cy="1148" r="5"/><circle cx="259" cy="1159" r="5"/><circle cx="320" cy="1190" r="4"/><circle cx="412" cy="1184" r="4"/><circle cx="531" cy="1197" r="5"/><circle cx="580" cy="1129" r="6"/><circle cx="659" cy="1134" r="5"/><circle cx="765" cy="1170" r="6"/><circle cx="815" cy="1178" r="5"/><circle cx="898" cy="1135" r="4"/><circle cx="1035" cy="1148" r="5"/><circle cx="1054" cy="1131" r="6"/><circle cx="1153" cy="1196" r="4"/><circle cx="1220" cy="1133" r="5"/><circle cx="1318" cy="1194" r="5"/><circle cx="1408" cy="1145" r="4"/><circle cx="1464" cy="1159" r="5"/><circle cx="1584" cy="1141" r="5"/><circle cx="1627" cy="1173" r="5"/><circle cx="1709" cy="1192" r="6"/><circle cx="1778" cy="1168" r="4"/><circle cx="1866" cy="1159" r="5"/><circle cx="1984" cy="1198" r="6"/><circle cx="2008" cy="1164" r="5"/><circle cx="2149" cy="1177" r="4"/><circle cx="2187" cy="1138" r="4"/><circle cx="2260" cy="1192" r="5"/><circle cx="2374" cy="1141" r="4"/><circle cx="2446" cy="1166" r="6"/><circle cx="2532" cy="1158" r="5"/><circle cx="16" cy="1226" r="5"/><circle cx="103" cy="1230" r="5"/><circle cx="218" cy="1259" r="5"/><circle cx="280" cy="1220" r="6"/><circle cx="329" cy="1227" r="5"/><circle cx="447" cy="1232" r="4"/><circle cx="502" cy="1203" r="6"/><circle cx="608" cy="1265" r="4"/><circle cx="704" cy="1236" r="5"/><circle cx="743" cy="1215" r="6"/><circle cx="819" cy="1201" r="5"/><circle cx="917" cy="1206" r="5"/><circle cx="1029" cy="1274" r="5"/><circle cx="1088" cy="1228" r="6"/><circle cx="1194" cy="1245" r="6"/><circle cx="1262" cy="1259" r="5"/><circle cx="1291" cy="1254" r="5"/><circle cx="1428" cy="1242" r="4"/><circle cx="1515" cy="1243" r="6"/><circle cx="1552" cy="1213" r="4"/><circle cx="1638" cy="1234" r="4"/><circle cx="1757" cy="1240" r="6"/><circle cx="1799" cy="1212" r="4"/><circle cx="1916" cy="1204" r="5"/><circle cx="1980" cy="1237" r="5"/><circle cx="2073" cy="1221" r="6"/><circle cx="2129" cy="1264" r="4"/><circle cx="2194" cy="1267" r="5"/><circle cx="2300" cy="1234" r="5"/><circle cx="2362" cy="1272" r="6"/><circle cx="2474" cy="1202" r="4"/><circle cx="2535" cy="1216" r="5"/><circle cx="48" cy="1355" r="6"/><circle cx="101" cy="1286" r="5"/><circle cx="228" cy="1332" r="6"/><circle cx="276" cy="1346" r="6"/><circle cx="327" cy="1287" r="5"/><circle cx="422" cy="1312" r="5"/><circle cx="524" cy="1337" r="4"/><circle cx="565" cy="1283" r="4"/><circle cx="651" cy="1335" r="6"/><circle cx="788" cy="1343" r="4"/><circle cx="805" cy="1304" r="6"/><circle cx="894" cy="1311" r="5"/><circle cx="1001" cy="1288" r="5"/><circle cx="1112" cy="1309" r="4"/><circle cx="1124" cy="1306" r="4"/><circle cx="1249" cy="1345" r="6"/><circle cx="1316" cy="1313" r="4"/><circle cx="1361" cy="1344" r="6"/><circle cx="1481" cy="1281" r="4"/><circle cx="1579" cy="1320" r="4"/><circle cx="1611" cy="1285" r="5"/><circle cx="1697" cy="1348" r="4"/><circle cx="1762" cy="1314" r="5"/><circle cx="1867" cy="1338" r="5"/><circle cx="1993" cy="1342" r="5"/><circle cx="2059" cy="1288" r="4"/><circle cx="2143" cy="1333" r="4"/><circle cx="2179" cy="1295" r="6"/><circle cx="2300" cy="1303" r="5"/><circle cx="2341" cy="1341" r="5"/><circle cx="2419" cy="1330" r="4"/><circle cx="2541" cy="1334" r="5"/><circle cx="39" cy="1407" r="5"/><circle cx="148" cy="1387" r="5"/><circle cx="186" cy="1418" r="4"/><circle cx="281" cy="1401" r="6"/><circle cx="354" cy="1410" r="4"/><circle cx="433" cy="1425" r="5"/><circle cx="553" cy="1403" r="6"/><circle cx="596" cy="1370" r="5"/><circle cx="686" cy="1383" r="4"/><circle cx="771" cy="1390" r="5"/><circle cx="847" cy="1422" r="5"/><circle cx="925" cy="1378" r="5"/><circle cx="1019" cy="1420" r="5"/><circle cx="1043" cy="1429" r="5"/><circle cx="1162" cy="1421" r="4"/><circle cx="1249" cy="1399" r="6"/><circle cx="1334" cy="1427" r="5"/><circle cx="1413" cy="1432" r="6"/><circle cx="1456" cy="1366" r="5"/><circle cx="1530" cy="1373" r="5"/><circle cx="1617" cy="1373" r="5"/><circle cx="1714" cy="1364" r="4"/><circle cx="1782" cy="1422" r="6"/><circle cx="1866" cy="1402" r="5"/><circle cx="1935" cy="1406" r="5"/><circle cx="2077" cy="1393" r="6"/><circle cx="2110" cy="1369" r="4"/><circle cx="2211" cy="1370" r="4"/><circle cx="2259" cy="1429" r="4"/><circle cx="2391" cy="1389" r="6"/><circle cx="2428" cy="1432" r="5"/><circle cx="2523" cy="1429" r="5"/><path stroke="#fff" d="M23 57L113 44M23 57L-56 16M23 57L39 -33M23 57L-37 -11M2583 57L2504 16M2583 57L2523 -11M23 1497L39 1407M23 1497L-37 1429M2583 1497L2523 1429M113 44L141 129M113 44L190 94M113 44L148 -53M113 1484L148 1387M230 60L240 3M230 60L190 94M230 60L283 93M230 60L186 -22M230 1500L186 1418M240 3L190 94M240 3L276 -94M240 3L186 -22M240 3L281 -39M240 1443L276 1346M240 1443L186 1418M240 1443L281 1401M383 79L457 29M383 79L283 93M383 79L370 155M383 79L430 97M457 29L532 77M457 29L430 97M457 29L433 -15M457 29L553 -37M457 1469L433 1425M457 1469L553 1403M532 77L627 56M532 77L487 154M532 77L598 129M532 77L590 163M627 56L717 55M627 56L598 129M627 56L553 -37M627 1496L553 1403M717 55L790 48M717 55L700 139M717 55L731 141M717 55L802 84M790 48L872 41M790 48L802 84M790 48L771 -50M790 48L847 -18M790 1488L771 1390M790 1488L847 1422M872 41L888 16M872 41L802 84M872 41L960 94M872 41L847 -18M872 1481L847 1422M888 16L960 94M888 16L847 -18M888 16L925 -62M888 1456L847 1422M888 1456L925 1378M978 67L1066 41M978 67L960 94M978 67L1034 118M978 67L1019 -20M978 67L1043 -11M978 1507L1019 1420M978 1507L1043 1429M1066 41L1034 118M1066 41L1074 98M1066 41L1019 -20M1066 41L1043 -11M1066 1481L1019 1420M1066 1481L1043 1429M1165 20L1182 83M1165 20L1162 -19M1165 20L1249 -41M1165 1460L1162 1421M1165 1460L1249 1399M1276 9L1300 91M1276 9L1249 -41M1276 9L1334 -13M1276 1449L1249 1399M1276 1449L1334 1427M1356 48L1397 8M1356 48L1300 91M1356 48L1406 105M1356 48L1334 -13M1356 48L1413 -8M1356 1488L1334 1427M1356 1488L1413 1432M1397 8L1456 73M1397 8L1334 -13M1397 8L1413 -8M1397 8L1456 -74M1397 1448L1334 1427M1397 1448L1413 1432M1397 1448L1456 1366M1456 73L1538 40M1456 73L1406 105M1456 73L1492 81M1456 73L1413 -8M1456 1513L1413 1432M1538 40L1492 81M1538 40L1537 92M1538 40L1530 -67M1538 1480L1530 1373M1677 59L1709 40M1677 59L1793 15M1677 59L1663 112M1677 59L1732 139M1709 40L1793 15M1709 40L1663 112M1709 40L1782 -18M1709 1480L1782 1422M1793 15L1874 15M1793 15L1782 -18M1793 15L1866 -38M1793 1455L1782 1422M1793 1455L1866 1402M1874 15L1959 28M1874 15L1782 -18M1874 15L1866 -38M1874 15L1935 -34M1874 1455L1782 1422M1874 1455L1866 1402M1874 1455L1935 1406M1959 28L2031 77M1959 28L1989 97M1959 28L1935 -34M1959 1468L1935 1406M2031 77L1989 97M2031 77L2039 110M2155 32L2184 74M2155 32L2169 89M2155 32L2077 -47M2155 32L2110 -71M2155 1472L2077 1393M2155 1472L2110 1369M2184 74L2257 49M2184 74L2169 89M2184 74L2260 117M2257 49L2355 28M2257 49L2169 89M2257 49L2260 117M2257 49L2259 -11M2257 1489L2259 1429M2355 28L2401 68M2355 28L2418 130M2355 28L2391 -51M2355 28L2428 -8M2355 1468L2391 1389M2355 1468L2428 1432M2401 68L2504 16M2401 68L2335 147M2401 68L2418 130M2401 68L2428 -8M2401 1508L2428 1432M2504 16L2599 -33M2504 16L2428 -8M2504 16L2523 -11M-56 16L39 -33M-56 1456L39 1407M2504 1456L2599 1407M2504 1456L2428 1432M2504 1456L2523 1429M47 155L141 129M47 155L-5 156M47 155L30 214M47 155L-1 187M2607 155L2555 156M2607 155L2559 187M141 129L190 94M141 129L177 224M190 94L283 93M283 93L287 209M370 155L430 97M370 155L287 209M370 155L381 189M370 155L421 163M430 97L487 154M430 97L421 163M487 154L421 163M487 154L488 211M487 154L590 163M598 129L700 139M598 129L590 163M598 129L667 163M700 139L731 141M700 139L667 163M700 139L722 218M731 141L802 84M731 141L667 163M731 141L722 218M960 94L1034 118M960 94L975 175M1034 118L1074 98M1034 118L975 175M1074 98L1182 83M1074 98L1043 -11M1074 1538L1043 1429M1182 83L1248 153M1182 83L1162 -19M1182 1523L1162 1421M1248 153L1300 91M1248 153L1197 207M1248 153L1238 233M1248 153L1281 257M1406 105L1492 81M1406 105L1389 215M1492 81L1537 92M1537 92L1568 182M1663 112L1732 139M1663 112L1675 213M1732 139L1786 152M1732 139L1727 226M1732 139L1786 199M1786 152L1856 159M1786 152L1786 199M1856 159L1786 199M1856 159L1895 234M1856 159L1928 240M1989 97L2039 110M1989 97L1998 189M2039 110L2092 145M2039 110L1998 189M2039 110L2054 173M2092 145L2169 89M2092 145L2054 173M2092 145L2116 191M2092 145L2161 212M2169 89L2260 117M2260 117L2335 147M2260 117L2315 204M2335 147L2418 130M2335 147L2315 204M2335 147L2390 216M2418 130L2390 216M2418 130L2465 210M2555 156L2590 214M2555 156L2559 187M2555 156L2513 242M-5 156L30 214M30 214L115 232M30 214L-1 187M30 214L70 293M2590 214L2559 187M115 232L177 224M115 232L70 293M115 232L104 313M115 232L213 273M177 224L213 273M177 224L174 338M287 209L381 189M287 209L213 273M287 209L287 301M381 189L421 163M381 189L488 211M381 189L398 288M421 163L488 211M488 211L478 278M488 211L528 286M590 163L667 163M590 163L602 281M667 163L722 218M722 218L654 280M722 218L733 266M878 233L951 237M878 233L828 253M878 233L953 245M878 233L869 321M878 233L913 330M951 237L975 175M951 237L953 245M951 237L1012 248M951 237L970 344M975 175L953 245M975 175L1012 248M1068 215L1012 248M1068 215L1061 264M1197 207L1238 233M1197 207L1125 312M1197 207L1237 262M1197 207L1281 257M1238 233L1324 234M1238 233L1237 262M1238 233L1281 257M1324 234L1389 215M1324 234L1237 262M1324 234L1281 257M1389 215L1463 235M1389 215L1408 310M1463 235L1408 310M1463 235L1511 267M1463 235L1534 276M1568 182L1511 267M1568 182L1534 276M1568 182L1604 260M1675 213L1727 226M1675 213L1695 246M1727 226L1786 199M1727 226L1695 246M1727 226L1773 277M1786 199L1773 277M1895 234L1849 294M1895 234L1928 240M1998 189L2054 173M1998 189L1928 240M1998 189L2063 255M2054 173L2116 191M2054 173L2063 255M2116 191L2161 212M2116 191L2063 255M2161 212L2063 255M2161 212L2101 310M2161 212L2218 248M2315 204L2390 216M2315 204L2218 248M2315 204L2262 284M2390 216L2465 210M2390 216L2424 290M2465 210L2559 187M2465 210L2513 242M2559 187L2513 242M70 293L104 313M70 293L39 386M70 293L80 383M104 313L39 386M104 313L80 383M104 313L174 338M213 273L287 301M213 273L174 338M287 301L398 288M287 301L283 385M287 301L336 373M398 288L478 278M398 288L336 373M478 278L528 286M478 278L479 362M478 278L502 331M528 286L602 281M528 286L479 362M528 286L502 331M602 281L654 280M602 281L502 331M602 281L688 328M654 280L733 266M654 280L640 388M654 280L688 328M733 266L828 253M733 266L688 328M733 266L760 373M828 253L869 321M828 253L913 330M953 245L1012 248M1012 248L1061 264M1061 264L1125 312M1061 264L1059 369M1125 312L1237 262M1125 312L1059 369M1125 312L1140 336M1237 262L1281 257M1408 310L1380 384M1511 267L1534 276M1511 267L1604 260M1511 267L1509 346M1534 276L1604 260M1534 276L1509 346M1604 260L1695 246M1604 260L1647 346M1695 246L1773 277M1695 246L1647 346M1773 277L1849 294M1773 277L1804 332M1849 294L1928 240M1849 294L1804 332M1849 294L1895 382M2063 255L2101 310M2101 310L1997 362M2101 310L2127 393M2101 310L2185 366M2218 248L2262 284M2262 284L2185 366M2262 284L2306 332M2262 284L2341 333M2376 312L2424 290M2376 312L2306 332M2376 312L2341 333M2376 312L2409 383M2376 312L2488 343M2424 290L2341 333M2424 290L2409 383M2424 290L2488 343M2513 242L2488 343M39 386L80 383M39 386L27 424M39 386L134 405M80 383L27 424M80 383L134 405M174 338L134 405M283 385L336 373M283 385L261 419M336 373L261 419M336 373L378 478M479 362L502 331M479 362L558 405M502 331L558 405M640 388L688 328M640 388L558 405M640 388L577 442M640 388L665 431M688 328L760 373M760 373L746 435M760 373L832 421M869 321L913 330M869 321L970 344M869 321L832 421M913 330L970 344M970 344L1059 369M970 344L971 433M1059 369L1140 336M1059 369L1077 435M1248 387L1320 391M1248 387L1191 440M1248 387L1246 435M1248 387L1337 424M1248 387L1260 489M1320 391L1380 384M1320 391L1246 435M1320 391L1337 424M1320 391L1427 412M1380 384L1337 424M1380 384L1427 412M1380 384L1447 422M1509 346L1579 377M1509 346L1427 412M1509 346L1447 422M1579 377L1647 346M1579 377L1579 438M1579 377L1619 459M1647 346L1722 362M1722 362L1804 332M1722 362L1738 402M1722 362L1788 441M1804 332L1895 382M1804 332L1738 402M1895 382L1997 362M1895 382L1858 457M1895 382L1960 410M1997 362L2019 383M1997 362L1960 410M1997 362L2040 442M2019 383L1960 410M2019 383L2040 442M2127 393L2185 366M2127 393L2040 442M2127 393L2084 467M2127 393L2222 417M2185 366L2222 417M2185 366L2241 438M2306 332L2341 333M2341 333L2409 383M2409 383L2460 408M2409 383L2487 424M2488 343L2460 408M2488 343L2487 424M27 424L134 405M27 424L-73 424M27 424L48 481M2587 424L2487 424M223 476L261 419M223 476L134 527M223 476L185 524M223 476L259 535M223 476L216 565M378 478L464 476M378 478L336 522M378 478L433 510M464 476L558 405M464 476L433 510M464 476L515 527M464 476L471 578M558 405L577 442M577 442L665 431M577 442L622 527M665 431L746 435M665 431L622 527M665 431L649 534M746 435L832 421M832 421L910 454M832 421L887 521M910 454L971 433M910 454L887 521M971 433L1077 435M1077 435L1098 530M1191 440L1246 435M1191 440L1182 493M1191 440L1260 489M1246 435L1182 493M1246 435L1260 489M1337 424L1427 412M1337 424L1447 422M1427 412L1447 422M1447 422L1488 534M1579 438L1619 459M1579 438L1574 515M1579 438L1610 514M1619 459L1574 515M1619 459L1610 514M1619 459L1684 481M1738 402L1788 441M1738 402L1684 481M1788 441L1858 457M1788 441L1684 481M1788 441L1810 498M1858 457L1810 498M1858 457L1857 554M1858 457L1951 514M1960 410L1951 514M2040 442L2084 467M2040 442L2033 498M2084 467L2033 498M2084 467L2151 507M2084 467L2083 561M2222 417L2241 438M2222 417L2275 488M2241 438L2339 433M2241 438L2230 536M2241 438L2275 488M2339 433L2275 488M2460 408L2487 424M2487 424L2528 509M48 481L134 527M48 481L-32 509M2608 481L2528 509M134 527L185 524M134 527L157 566M134 527L216 565M185 524L259 535M185 524L157 566M185 524L216 565M259 535L336 522M259 535L216 565M259 535L313 574M336 522L313 574M336 522L375 576M433 510L515 527M433 510L375 576M433 510L471 578M515 527L471 578M515 527L560 626M622 527L649 534M649 534L758 548M649 534L668 624M758 548L827 558M758 548L754 631M758 548L826 582M827 558L887 521M827 558L826 582M827 558L924 599M827 558L824 651M887 521L826 582M887 521L924 599M1006 542L1098 530M1006 542L924 599M1006 542L1037 571M1098 530L1182 493M1098 530L1037 571M1098 530L1096 610M1182 493L1260 489M1260 489L1349 545M1349 545L1426 552M1349 545L1373 625M1426 552L1488 534M1426 552L1373 625M1426 552L1472 562M1488 534L1574 515M1488 534L1472 562M1574 515L1610 514M1574 515L1590 616M1610 514L1684 481M1610 514L1618 598M1684 481L1719 588M1810 498L1857 554M1857 554L1826 616M1857 554L1883 594M1857 554L1927 563M1951 514L2033 498M1951 514L1883 594M1951 514L1927 563M2033 498L2083 561M2151 507L2230 536M2151 507L2083 561M2151 507L2201 585M2230 536L2275 488M2230 536L2201 585M2230 536L2258 612M2275 488L2326 549M2326 549L2441 536M2326 549L2258 612M2326 549L2398 574M2441 536L2528 509M2441 536L2398 574M2441 536L2442 571M2441 536L2486 589M2528 509L2442 571M2528 509L2486 589M64 638L73 672M64 638L139 666M64 638L172 654M157 566L216 565M157 566L139 666M157 566L172 654M313 574L375 576M313 574L374 661M375 576L471 578M375 576L374 661M471 578L549 627M549 627L560 626M549 627L497 668M549 627L569 681M560 626L497 668M560 626L569 681M668 624L659 645M754 631L826 582M754 631L659 645M754 631L785 705M754 631L824 651M826 582L824 651M924 599L947 657M924 599L1002 657M1037 571L1096 610M1037 571L947 657M1037 571L1002 657M1096 610L1176 625M1096 610L1002 657M1096 610L1102 687M1176 625L1272 623M1176 625L1102 687M1176 625L1173 704M1176 625L1174 724M1272 623L1318 638M1272 623L1279 708M1318 638L1373 625M1318 638L1279 708M1318 638L1323 702M1318 638L1346 725M1373 625L1323 702M1373 625L1433 694M1590 616L1618 598M1590 616L1595 699M1590 616L1656 664M1618 598L1719 588M1618 598L1656 664M1719 588L1656 664M1719 588L1719 642M1719 588L1762 687M1826 616L1883 594M1826 616L1762 687M1826 616L1876 671M1883 594L1927 563M1883 594L1876 671M1927 563L2017 618M1927 563L1988 641M2017 618L2083 561M2017 618L1988 641M2017 618L2014 687M2017 618L2112 672M2083 561L2112 672M2201 585L2258 612M2201 585L2175 688M2258 612L2175 688M2258 612L2307 699M2398 574L2442 571M2398 574L2486 589M2398 574L2415 669M2442 571L2486 589M2442 571L2415 669M2486 589L2415 669M73 672L139 666M73 672L172 654M139 666L172 654M172 654L287 688M287 688L374 661M287 688L408 686M287 688L310 793M374 661L408 686M408 686L497 668M408 686L350 781M408 686L467 790M497 668L569 681M569 681L659 645M569 681L631 722M659 645L631 722M659 645L703 735M785 705L824 651M785 705L703 735M785 705L797 734M785 705L833 755M824 651L797 734M947 657L1002 657M947 657L1004 761M1002 657L1102 687M1102 687L1173 704M1102 687L1174 724M1173 704L1174 724M1173 704L1211 731M1279 708L1323 702M1279 708L1211 731M1279 708L1346 725M1323 702L1346 725M1323 702L1391 740M1433 694L1483 716M1433 694L1346 725M1433 694L1391 740M1433 694L1463 755M1483 716L1391 740M1483 716L1463 755M1595 699L1656 664M1595 699L1569 783M1595 699L1622 795M1595 699L1690 748M1656 664L1719 642M1719 642L1762 687M1719 642L1767 737M1762 687L1690 748M1762 687L1767 737M1876 671L1988 641M1876 671L1891 779M1876 671L1952 731M1988 641L2014 687M1988 641L1952 731M2014 687L2112 672M2014 687L1952 731M2014 687L2039 789M2112 672L2175 688M2112 672L2133 759M2175 688L2133 759M2175 688L2173 791M2307 699L2340 681M2307 699L2313 757M2307 699L2357 749M2340 681L2415 669M2340 681L2313 757M2340 681L2357 749M2415 669L2357 749M2509 696L2468 792M2509 696L2485 784M74 790L104 778M74 790L80 848M74 790L130 809M104 778L205 795M104 778L80 848M104 778L130 809M205 795L310 793M205 795L130 809M205 795L184 846M205 795L279 868M310 793L350 781M310 793L279 868M350 781L353 873M350 781L453 803M467 790L505 793M467 790L453 803M467 790L504 827M505 793L453 803M505 793L504 827M631 722L703 735M631 722L635 822M631 722L710 804M703 735L797 734M703 735L710 804M797 734L833 755M797 734L881 795M833 755L881 795M833 755L873 832M833 755L890 825M881 795L873 832M881 795L890 825M881 795L985 804M1004 761L1065 786M1004 761L985 804M1004 761L1053 813M1065 786L985 804M1065 786L1053 813M1174 724L1211 731M1346 725L1391 740M1391 740L1463 755M1463 755L1569 783M1463 755L1498 860M1569 783L1622 795M1569 783L1573 831M1569 783L1626 845M1622 795L1690 748M1622 795L1573 831M1622 795L1626 845M1690 748L1767 737M1690 748L1718 840M1767 737L1718 840M1767 737L1824 831M1891 779L1952 731M1891 779L1824 831M1891 779L1907 836M1891 779L1943 877M2039 789L2133 759M2039 789L2045 824M2039 789L2131 815M2133 759L2173 791M2133 759L2131 815M2173 791L2131 815M2173 791L2190 874M2173 791L2253 813M2313 757L2357 749M2313 757L2253 813M2313 757L2360 823M2357 749L2360 823M2468 792L2485 784M2468 792L2451 843M2468 792L2533 853M2485 784L2451 843M2485 784L2533 853M80 848L130 809M80 848L151 912M130 809L184 846M184 846L279 868M184 846L151 912M184 846L179 935M279 868L353 873M279 868L303 940M353 873L303 940M353 873L389 926M353 873L428 889M453 803L504 827M453 803L428 889M504 827L635 822M504 827L428 889M635 822L710 804M635 822L744 836M710 804L744 836M873 832L890 825M890 825L985 804M890 825L886 936M985 804L1053 813M1053 813L1093 916M1053 813L1136 881M1186 855L1269 851M1186 855L1136 881M1186 855L1249 908M1269 851L1319 849M1269 851L1249 908M1269 851L1305 926M1319 849L1437 872M1319 849L1249 908M1319 849L1305 926M1437 872L1498 860M1437 872L1421 925M1437 872L1457 936M1498 860L1573 831M1498 860L1421 925M1498 860L1457 936M1573 831L1626 845M1573 831L1593 938M1626 845L1718 840M1626 845L1593 938M1718 840L1824 831M1718 840L1721 911M1824 831L1907 836M1907 836L1943 877M1907 836L1900 918M1943 877L1900 918M1943 877L1960 929M1943 877L1907 967M2045 824L2131 815M2131 815L2190 874M2190 874L2253 813M2190 874L2222 937M2190 874L2173 968M2253 813L2360 823M2360 823L2451 843M2360 823L2337 910M2451 843L2533 853M2451 843L2450 941M2533 853L2502 953M32 948L-58 953M32 948L49 989M32 948L113 962M32 948L-9 1034M2592 948L2502 953M2592 948L2551 1034M151 912L179 935M151 912L113 962M151 912L165 994M179 935L113 962M179 935L165 994M179 935L250 970M303 940L389 926M303 940L250 970M303 940L386 991M389 926L428 889M389 926L386 991M389 926L402 1013M510 953L543 963M630 952L708 947M630 952L543 963M630 952L620 1012M708 947L782 937M708 947L699 1037M708 947L761 1004M782 937L863 943M782 937L761 1004M863 943L886 936M863 943L975 926M863 943L838 1022M863 943L922 1034M886 936L975 926M975 926L1093 916M975 926L967 999M1093 916L1136 881M1093 916L1095 978M1093 916L1144 965M1136 881L1095 978M1136 881L1144 965M1249 908L1305 926M1249 908L1252 1006M1305 926L1252 1006M1305 926L1322 996M1421 925L1457 936M1421 925L1417 1007M1457 936L1417 1007M1457 936L1531 1006M1593 938L1605 951M1593 938L1531 1006M1605 951L1721 911M1605 951L1531 1006M1605 951L1653 1022M1605 951L1690 981M1721 911L1786 952M1721 911L1690 981M1786 952L1690 981M1786 952L1795 1011M1786 952L1862 1045M1900 918L1960 929M1900 918L1907 967M1960 929L2045 946M1960 929L1907 967M2045 946L2116 950M2045 946L1991 1025M2045 946L2071 978M2045 946L2132 987M2116 950L2222 937M2116 950L2071 978M2116 950L2132 987M2116 950L2173 968M2222 937L2314 948M2222 937L2173 968M2222 937L2244 996M2314 948L2337 910M2314 948L2244 996M2314 948L2368 1015M2450 941L2502 953M2450 941L2479 1025M2502 953L2479 1025M49 989L113 962M49 989L-9 1034M49 989L42 1062M2609 989L2551 1034M113 962L165 994M165 994L250 970M165 994L228 1055M250 970L228 1055M250 970L299 1044M386 991L402 1013M386 991L299 1044M386 991L417 1063M402 1013L299 1044M402 1013L417 1063M543 963L620 1012M543 963L522 1076M620 1012L699 1037M620 1012L573 1078M620 1012L647 1057M699 1037L761 1004M699 1037L647 1057M699 1037L752 1117M761 1004L838 1022M761 1004L852 1049M838 1022L922 1034M838 1022L852 1049M838 1022L901 1073M922 1034L967 999M922 1034L852 1049M922 1034L901 1073M967 999L901 1073M967 999L1017 1090M1095 978L1144 965M1095 978L1173 1045M1144 965L1173 1045M1252 1006L1322 996M1252 1006L1173 1045M1252 1006L1302 1068M1322 996L1417 1007M1322 996L1274 1094M1322 996L1302 1068M1417 1007L1485 1027M1417 1007L1448 1080M1485 1027L1531 1006M1485 1027L1431 1119M1485 1027L1448 1080M1485 1027L1575 1067M1531 1006L1575 1067M1653 1022L1690 981M1653 1022L1575 1067M1653 1022L1600 1118M1653 1022L1682 1049M1690 981L1682 1049M1795 1011L1793 1080M1795 1011L1862 1045M1907 967L1991 1025M1907 967L1862 1045M1991 1025L2071 978M1991 1025L1977 1101M1991 1025L2063 1075M2071 978L2132 987M2071 978L2063 1075M2132 987L2173 968M2132 987L2149 1068M2173 968L2244 996M2244 996L2226 1058M2244 996L2318 1072M2368 1015L2318 1072M2368 1015L2349 1117M2368 1015L2441 1080M2479 1025L2551 1034M2479 1025L2441 1080M2479 1025L2503 1080M2551 1034L2602 1062M2551 1034L2503 1080M-9 1034L42 1062M42 1062L88 1112M42 1062L61 1122M88 1112L61 1122M88 1112L83 1196M88 1112L103 1230M228 1055L299 1044M228 1055L211 1148M228 1055L259 1159M299 1044L345 1105M345 1105L417 1063M345 1105L320 1190M345 1105L412 1184M417 1063L522 1076M522 1076L573 1078M522 1076L580 1129M573 1078L647 1057M573 1078L580 1129M573 1078L659 1134M647 1057L580 1129M647 1057L659 1134M752 1117L659 1134M752 1117L765 1170M752 1117L815 1178M852 1049L901 1073M852 1049L898 1135M901 1073L898 1135M1017 1090L1113 1114M1017 1090L1035 1148M1017 1090L1054 1131M1113 1114L1173 1045M1113 1114L1035 1148M1113 1114L1054 1131M1113 1114L1153 1196M1173 1045L1220 1133M1274 1094L1302 1068M1274 1094L1220 1133M1274 1094L1318 1194M1302 1068L1220 1133M1431 1119L1448 1080M1431 1119L1408 1145M1431 1119L1464 1159M1448 1080L1408 1145M1448 1080L1464 1159M1575 1067L1600 1118M1575 1067L1584 1141M1600 1118L1682 1049M1600 1118L1584 1141M1600 1118L1627 1173M1682 1049L1793 1080M1793 1080L1862 1045M1793 1080L1778 1168M1862 1045L1866 1159M1977 1101L2063 1075M1977 1101L1984 1198M1977 1101L2008 1164M1977 1101L1916 1204M2063 1075L2149 1068M2149 1068L2226 1058M2149 1068L2187 1138M2226 1058L2318 1072M2226 1058L2187 1138M2318 1072L2349 1117M2318 1072L2374 1141M2349 1117L2441 1080M2349 1117L2374 1141M2441 1080L2503 1080M2441 1080L2446 1166M2503 1080L2446 1166M2503 1080L2532 1158M61 1122L83 1196M83 1196L16 1226M83 1196L103 1230M83 1196L101 1286M211 1148L259 1159M211 1148L218 1259M259 1159L320 1190M259 1159L280 1220M259 1159L329 1227M320 1190L412 1184M320 1190L280 1220M320 1190L329 1227M412 1184L329 1227M412 1184L447 1232M412 1184L502 1203M531 1197L580 1129M531 1197L447 1232M531 1197L502 1203M531 1197L608 1265M531 1197L565 1283M580 1129L659 1134M765 1170L815 1178M765 1170L704 1236M765 1170L743 1215M765 1170L819 1201M815 1178L898 1135M815 1178L743 1215M815 1178L819 1201M898 1135L917 1206M1035 1148L1054 1131M1035 1148L1029 1274M1054 1131L1153 1196M1054 1131L1088 1228M1153 1196L1220 1133M1153 1196L1088 1228M1153 1196L1194 1245M1318 1194L1408 1145M1318 1194L1262 1259M1318 1194L1291 1254M1408 1145L1464 1159M1408 1145L1428 1242M1464 1159L1428 1242M1464 1159L1515 1243M1584 1141L1627 1173M1584 1141L1552 1213M1584 1141L1638 1234M1627 1173L1709 1192M1627 1173L1552 1213M1627 1173L1638 1234M1709 1192L1778 1168M1709 1192L1638 1234M1709 1192L1757 1240M1709 1192L1799 1212M1778 1168L1866 1159M1778 1168L1757 1240M1778 1168L1799 1212M1866 1159L1799 1212M1866 1159L1916 1204M1984 1198L2008 1164M1984 1198L1916 1204M1984 1198L1980 1237M1984 1198L2073 1221M2008 1164L1916 1204M2008 1164L1980 1237M2008 1164L2073 1221M2149 1177L2187 1138M2149 1177L2260 1192M2149 1177L2073 1221M2149 1177L2194 1267M2187 1138L2260 1192M2260 1192L2194 1267M2260 1192L2300 1234M2374 1141L2446 1166M2446 1166L2532 1158M2446 1166L2474 1202M2532 1158L2576 1226M2532 1158L2474 1202M2532 1158L2535 1216M-28 1158L16 1226M16 1226L103 1230M16 1226L-25 1216M16 1226L101 1286M2576 1226L2535 1216M103 1230L101 1286M218 1259L280 1220M218 1259L228 1332M280 1220L329 1227M280 1220L327 1287M329 1227L327 1287M447 1232L502 1203M447 1232L422 1312M502 1203L422 1312M608 1265L704 1236M608 1265L565 1283M608 1265L651 1335M704 1236L743 1215M704 1236L651 1335M743 1215L819 1201M743 1215L805 1304M819 1201L917 1206M819 1201L805 1304M917 1206L894 1311M917 1206L1001 1288M1029 1274L1088 1228M1029 1274L1001 1288M1029 1274L1112 1309M1029 1274L1124 1306M1088 1228L1112 1309M1088 1228L1124 1306M1194 1245L1262 1259M1194 1245L1291 1254M1194 1245L1124 1306M1262 1259L1291 1254M1262 1259L1249 1345M1262 1259L1316 1313M1291 1254L1249 1345M1291 1254L1316 1313M1428 1242L1515 1243M1428 1242L1481 1281M1515 1243L1552 1213M1515 1243L1481 1281M1515 1243L1611 1285M1552 1213L1638 1234M1552 1213L1611 1285M1638 1234L1611 1285M1757 1240L1799 1212M1757 1240L1697 1348M1757 1240L1762 1314M1916 1204L1980 1237M1980 1237L1993 1342M2073 1221L2129 1264M2073 1221L2059 1288M2129 1264L2194 1267M2129 1264L2059 1288M2129 1264L2143 1333M2129 1264L2179 1295M2194 1267L2143 1333M2194 1267L2179 1295M2300 1234L2362 1272M2300 1234L2300 1303M2300 1234L2341 1341M2362 1272L2300 1303M2362 1272L2341 1341M2362 1272L2419 1330M2362 1272L2391 1389M2474 1202L2535 1216M2535 1216L2541 1334M48 1355L101 1286M48 1355L-19 1334M48 1355L39 1407M48 1355L148 1387M2608 1355L2541 1334M101 1286L148 1387M228 1332L276 1346M228 1332L148 1387M228 1332L186 1418M228 1332L281 1401M276 1346L327 1287M276 1346L281 1401M276 1346L354 1410M327 1287L422 1312M422 1312L524 1337M422 1312L433 1425M524 1337L565 1283M524 1337L553 1403M524 1337L596 1370M565 1283L651 1335M565 1283L596 1370M651 1335L596 1370M651 1335L686 1383M788 1343L805 1304M788 1343L894 1311M788 1343L686 1383M788 1343L771 1390M805 1304L894 1311M805 1304L771 1390M894 1311L1001 1288M894 1311L925 1378M1001 1288L1112 1309M1001 1288L925 1378M1112 1309L1124 1306M1249 1345L1316 1313M1249 1345L1361 1344M1249 1345L1249 1399M1316 1313L1361 1344M1361 1344L1334 1427M1361 1344L1456 1366M1481 1281L1579 1320M1481 1281L1456 1366M1481 1281L1530 1373M1579 1320L1611 1285M1579 1320L1530 1373M1579 1320L1617 1373M1611 1285L1617 1373M1697 1348L1762 1314M1697 1348L1617 1373M1697 1348L1714 1364M1762 1314L1867 1338M1762 1314L1714 1364M1867 1338L1866 1402M1867 1338L1935 1406M1993 1342L2059 1288M1993 1342L1935 1406M1993 1342L2077 1393M2059 1288L2077 1393M2059 1288L2110 1369M2143 1333L2179 1295M2143 1333L2077 1393M2143 1333L2110 1369M2179 1295L2110 1369M2179 1295L2211 1370M2300 1303L2341 1341M2300 1303L2211 1370M2341 1341L2419 1330M2341 1341L2391 1389M2419 1330L2541 1334M2419 1330L2391 1389M2541 1334L2599 1407M2541 1334L2523 1429M-19 1334L39 1407M39 1407L-37 1429M2599 1407L2523 1429M148 1387L186 1418M186 1418L281 1401M281 1401L354 1410M354 1410L433 1425M433 1425L553 1403M553 1403L596 1370M596 1370L686 1383M686 1383L771 1390M771 1390L847 1422M847 1422L925 1378M925 1378L1019 1420M1019 1420L1043 1429M1043 1429L1162 1421M1162 1421L1249 1399M1334 1427L1413 1432M1413 1432L1456 1366M1456 1366L1530 1373M1530 1373L1617 1373M1617 1373L1714 1364M1714 1364L1782 1422M1782 1422L1866 1402M1866 1402L1935 1406M2077 1393L2110 1369M2211 1370L2259 1429M2391 1389L2428 1432M2428 1432L2523 1429"/></svg>