<svg xmlns="http://www.w3.org/2000/svg" width="2560" height="1440" fill="#fff"><circle cx="17" cy="32" r="4"/><circle cx="157" cy="37" r="6"/><circle cx="229" cy="2" r="6"/><circle cx="229" cy="1442" r="6"/><circle cx="264" cy="44" r="6"/><circle cx="347" cy="42" r="5"/><circle cx="477" cy="7" r="4"/><circle cx="515" cy="58" r="5"/><circle cx="581" cy="14" r="6"/><circle cx="675" cy="61" r="6"/><circle cx="783" cy="48" r="5"/><circle cx="876" cy="11" r="6"/><circle cx="885" cy="24" r="4"/><circle cx="970" cy="30" r="6"/><circle cx="1085" cy="38" r="5"/><circle cx="1192" cy="36" r="5"/><circle cx="1268" cy="52" r="5"/><circle cx="1311" cy="35" r="6"/><circle cx="1406" cy="61" r="5"/><circle cx="1443" cy="72" r="5"/><circle cx="1533" cy="37" r="4"/><circle cx="1669" cy="20" r="5"/><circle cx="1709" cy="45" r="6"/><circle cx="1812" cy="35" r="6"/><circle cx="1919" cy="49" r="6"/><circle cx="1938" cy="43" r="5"/><circle cx="2062" cy="6" r="4"/><circle cx="2106" cy="59" r="5"/><circle cx="2202" cy="31" r="5"/><circle cx="2286" cy="0" r="6"/><circle cx="2286" cy="1440" r="6"/><circle cx="2363" cy="1" r="4"/><circle cx="2363" cy="1441" r="4"/><circle cx="2447" cy="46" r="4"/><circle cx="2507" cy="77" r="4"/><circle cx="16" cy="126" r="4"/><circle cx="102" cy="96" r="5"/><circle cx="222" cy="152" r="6"/><circle cx="251" cy="85" r="5"/><circle cx="392" cy="142" r="5"/><circle cx="419" cy="91" r="6"/><circle cx="552" cy="142" r="5"/><circle cx="619" cy="152" r="5"/><circle cx="659" cy="104" r="5"/><circle cx="772" cy="83" r="5"/><circle cx="873" cy="111" r="4"/><circle cx="914" cy="137" r="5"/><circle cx="984" cy="129" r="6"/><circle cx="1093" cy="123" r="5"/><circle cx="1150" cy="152" r="4"/><circle cx="1219" cy="89" r="4"/><circle cx="1296" cy="88" r="4"/><circle cx="1390" cy="82" r="6"/><circle cx="1456" cy="120" r="4"/><circle cx="1534" cy="103" r="6"/><circle cx="1664" cy="134" r="4"/><circle cx="1705" cy="84" r="4"/><circle cx="1804" cy="111" r="5"/><circle cx="1916" cy="119" r="5"/><circle cx="1981" cy="87" r="5"/><circle cx="2006" cy="94" r="6"/><circle cx="2114" cy="145" r="5"/><circle cx="2198" cy="82" r="6"/><circle cx="2240" cy="114" r="6"/><circle cx="2338" cy="103" r="4"/><circle cx="2411" cy="92" r="5"/><circle cx="2552" cy="103" r="5"/><circle cx="49" cy="202" r="4"/><circle cx="127" cy="176" r="5"/><circle cx="207" cy="215" r="5"/><circle cx="304" cy="184" r="5"/><circle cx="331" cy="214" r="5"/><circle cx="449" cy="225" r="5"/><circle cx="518" cy="224" r="4"/><circle cx="620" cy="162" r="6"/><circle cx="655" cy="195" r="4"/><circle cx="779" cy="176" r="4"/><circle cx="878" cy="180" r="4"/><circle cx="917" cy="230" r="5"/><circle cx="974" cy="171" r="6"/><circle cx="1065" cy="205" r="5"/><circle cx="1140" cy="202" r="4"/><circle cx="1270" cy="199" r="4"/><circle cx="1322" cy="215" r="4"/><circle cx="1367" cy="196" r="6"/><circle cx="1489" cy="219" r="6"/><circle cx="1524" cy="210" r="4"/><circle cx="1644" cy="223" r="5"/><circle cx="1707" cy="203" r="5"/><circle cx="1799" cy="169" r="5"/><circle cx="1890" cy="236" r="6"/><circle cx="1966" cy="217" r="5"/><circle cx="2073" cy="222" r="5"/><circle cx="2081" cy="179" r="6"/><circle cx="2228" cy="172" r="4"/><circle cx="2243" cy="182" r="5"/><circle cx="2379" cy="240" r="4"/><circle cx="2441" cy="196" r="5"/><circle cx="2540" cy="208" r="5"/><circle cx="53" cy="302" r="5"/><circle cx="125" cy="277" r="5"/><circle cx="184" cy="261" r="6"/><circle cx="260" cy="316" r="6"/><circle cx="392" cy="309" r="6"/><circle cx="418" cy="305" r="5"/><circle cx="498" cy="273" r="6"/><circle cx="602" cy="259" r="6"/><circle cx="642" cy="267" r="5"/><circle cx="747" cy="250" r="5"/><circle cx="858" cy="320" r="6"/><circle cx="882" cy="290" r="5"/><circle cx="1029" cy="266" r="5"/><circle cx="1085" cy="287" r="6"/><circle cx="1152" cy="315" r="5"/><circle cx="1215" cy="312" r="4"/><circle cx="1288" cy="266" r="6"/><circle cx="1410" cy="251" r="5"/><circle cx="1495" cy="263" r="5"/><circle cx="1549" cy="290" r="5"/><circle cx="1623" cy="305" r="6"/><circle cx="1713" cy="276" r="4"/><circle cx="1784" cy="316" r="4"/><circle cx="1893" cy="270" r="4"/><circle cx="1960" cy="272" r="4"/><circle cx="2017" cy="276" r="6"/><circle cx="2119" cy="309" r="5"/><circle cx="2232" cy="270" r="5"/><circle cx="2304" cy="246" r="5"/><circle cx="2335" cy="256" r="6"/><circle cx="2404" cy="255" r="6"/><circle cx="2540" cy="274" r="6"/><circle cx="20" cy="336" r="4"/><circle cx="109" cy="364" r="4"/><circle cx="211" cy="338" r="6"/><circle cx="316" cy="364" r="4"/><circle cx="358" cy="400" r="5"/><circle cx="464" cy="377" r="5"/><circle cx="500" cy="330" r="6"/><circle cx="573" cy="360" r="4"/><circle cx="688" cy="378" r="5"/><circle cx="761" cy="382" r="6"/><circle cx="877" cy="327" r="6"/><circle cx="892" cy="353" r="5"/><circle cx="965" cy="357" r="5"/><circle cx="1111" cy="370" r="4"/><circle cx="1178" cy="345" r="6"/><circle cx="1266" cy="367" r="6"/><circle cx="1356" cy="391" r="6"/><circle cx="1408" cy="373" r="4"/><circle cx="1487" cy="329" r="6"/><circle cx="1579" cy="348" r="4"/><circle cx="1625" cy="386" r="4"/><circle cx="1708" cy="376" r="5"/><circle cx="1787" cy="365" r="6"/><circle cx="1871" cy="347" r="4"/><circle cx="1958" cy="351" r="5"/><circle cx="2059" cy="324" r="4"/><circle cx="2113" cy="327" r="5"/><circle cx="2235" cy="386" r="5"/><circle cx="2315" cy="334" r="5"/><circle cx="2369" cy="376" r="5"/><circle cx="2403" cy="330" r="5"/><circle cx="2504" cy="328" r="5"/><circle cx="60" cy="439" r="5"/><circle cx="91" cy="460" r="5"/><circle cx="186" cy="476" r="4"/><circle cx="286" cy="445" r="4"/><circle cx="366" cy="435" r="5"/><circle cx="469" cy="417" r="5"/><circle cx="507" cy="479" r="4"/><circle cx="593" cy="462" r="5"/><circle cx="686" cy="410" r="5"/><circle cx="725" cy="443" r="5"/><circle cx="860" cy="436" r="5"/><circle cx="912" cy="411" r="4"/><circle cx="1039" cy="426" r="4"/><circle cx="1088" cy="476" r="5"/><circle cx="1160" cy="416" r="6"/><circle cx="1266" cy="470" r="5"/><circle cx="1280" cy="478" r="4"/><circle cx="1369" cy="462" r="5"/><circle cx="1502" cy="411" r="5"/><circle cx="1548" cy="429" r="5"/><circle cx="1674" cy="476" r="5"/><circle cx="1746" cy="402" r="4"/><circle cx="1791" cy="471" r="6"/><circle cx="1850" cy="406" r="5"/><circle cx="1996" cy="447" r="6"/><circle cx="2016" cy="468" r="5"/><circle cx="2153" cy="413" r="5"/><circle cx="2167" cy="457" r="5"/><circle cx="2289" cy="462" r="5"/><circle cx="2364" cy="455" r="6"/><circle cx="2415" cy="427" r="6"/><circle cx="2538" cy="461" r="5"/><circle cx="54" cy="499" r="4"/><circle cx="121" cy="531" r="4"/><circle cx="187" cy="514" r="5"/><circle cx="259" cy="507" r="6"/><circle cx="333" cy="503" r="6"/><circle cx="455" cy="549" r="5"/><circle cx="546" cy="504" r="4"/><circle cx="561" cy="559" r="4"/><circle cx="652" cy="508" r="4"/><circle cx="728" cy="483" r="5"/><circle cx="849" cy="538" r="5"/><circle cx="902" cy="509" r="5"/><circle cx="996" cy="560" r="5"/><circle cx="1047" cy="558" r="5"/><circle cx="1147" cy="481" r="4"/><circle cx="1276" cy="550" r="5"/><circle cx="1336" cy="555" r="6"/><circle cx="1436" cy="509" r="4"/><circle cx="1495" cy="486" r="6"/><circle cx="1598" cy="492" r="5"/><circle cx="1661" cy="498" r="5"/><circle cx="1731" cy="545" r="4"/><circle cx="1834" cy="506" r="5"/><circle cx="1845" cy="551" r="6"/><circle cx="1960" cy="485" r="4"/><circle cx="2011" cy="523" r="6"/><circle cx="2116" cy="516" r="4"/><circle cx="2187" cy="492" r="5"/><circle cx="2268" cy="499" r="6"/><circle cx="2366" cy="529" r="4"/><circle cx="2448" cy="523" r="6"/><circle cx="2539" cy="527" r="5"/><circle cx="57" cy="571" r="4"/><circle cx="154" cy="638" r="5"/><circle cx="169" cy="631" r="6"/><circle cx="297" cy="631" r="6"/><circle cx="374" cy="612" r="6"/><circle cx="462" cy="610" r="5"/><circle cx="526" cy="582" r="6"/><circle cx="601" cy="574" r="4"/><circle cx="701" cy="633" r="6"/><circle cx="774" cy="603" r="4"/><circle cx="866" cy="600" r="5"/><circle cx="944" cy="566" r="4"/><circle cx="1002" cy="565" r="5"/><circle cx="1089" cy="565" r="5"/><circle cx="1178" cy="589" r="5"/><circle cx="1271" cy="596" r="5"/><circle cx="1287" cy="610" r="4"/><circle cx="1411" cy="631" r="4"/><circle cx="1491" cy="630" r="5"/><circle cx="1562" cy="630" r="5"/><circle cx="1605" cy="569" r="6"/><circle cx="1691" cy="592" r="6"/><circle cx="1776" cy="629" r="6"/><circle cx="1862" cy="617" r="5"/><circle cx="1968" cy="595" r="4"/><circle cx="2052" cy="586" r="4"/><circle cx="2117" cy="603" r="6"/><circle cx="2220" cy="566" r="5"/><circle cx="2281" cy="617" r="6"/><circle cx="2391" cy="598" r="4"/><circle cx="2435" cy="595" r="5"/><circle cx="2481" cy="575" r="6"/><circle cx="68" cy="678" r="5"/><circle cx="143" cy="690" r="5"/><circle cx="202" cy="699" r="5"/><circle cx="285" cy="703" r="5"/><circle cx="345" cy="687" r="5"/><circle cx="442" cy="653" r="6"/><circle cx="540" cy="708" r="5"/><circle cx="638" cy="719" r="6"/><circle cx="696" cy="661" r="4"/><circle cx="740" cy="660" r="4"/><circle cx="834" cy="648" r="4"/><circle cx="883" cy="662" r="5"/><circle cx="1008" cy="675" r="5"/><circle cx="1088" cy="662" r="5"/><circle cx="1176" cy="646" r="6"/><circle cx="1241" cy="650" r="4"/><circle cx="1308" cy="689" r="4"/><circle cx="1376" cy="669" r="6"/><circle cx="1506" cy="674" r="5"/><circle cx="1562" cy="716" r="4"/><circle cx="1660" cy="644" r="6"/><circle cx="1708" cy="711" r="6"/><circle cx="1764" cy="650" r="5"/><circle cx="1904" cy="689" r="4"/><circle cx="1974" cy="691" r="6"/><circle cx="2005" cy="701" r="5"/><circle cx="2089" cy="681" r="4"/><circle cx="2192" cy="687" r="6"/><circle cx="2274" cy="702" r="4"/><circle cx="2396" cy="644" r="4"/><circle cx="2437" cy="682" r="5"/><circle cx="2523" cy="691" r="4"/><circle cx="64" cy="746" r="4"/><circle cx="150" cy="736" r="5"/><circle cx="209" cy="764" r="6"/><circle cx="278" cy="728" r="4"/><circle cx="369" cy="727" r="6"/><circle cx="411" cy="744" r="5"/><circle cx="520" cy="738" r="5"/><circle cx="574" cy="766" r="5"/><circle cx="660" cy="774" r="5"/><circle cx="743" cy="758" r="6"/><circle cx="850" cy="741" r="4"/><circle cx="938" cy="764" r="5"/><circle cx="963" cy="769" r="6"/><circle cx="1088" cy="760" r="5"/><circle cx="1177" cy="750" r="6"/><circle cx="1224" cy="774" r="5"/><circle cx="1292" cy="772" r="6"/><circle cx="1361" cy="760" r="4"/><circle cx="1507" cy="773" r="6"/><circle cx="1530" cy="765" r="5"/><circle cx="1655" cy="776" r="4"/><circle cx="1705" cy="735" r="6"/><circle cx="1787" cy="732" r="5"/><circle cx="1881" cy="798" r="5"/><circle cx="1932" cy="733" r="5"/><circle cx="2058" cy="762" r="4"/><circle cx="2113" cy="748" r="6"/><circle cx="2182" cy="800" r="4"/><circle cx="2305" cy="733" r="6"/><circle cx="2323" cy="769" r="5"/><circle cx="2452" cy="794" r="5"/><circle cx="2523" cy="721" r="5"/><circle cx="72" cy="826" r="5"/><circle cx="145" cy="816" r="5"/><circle cx="161" cy="852" r="5"/><circle cx="285" cy="802" r="5"/><circle cx="392" cy="873" r="6"/><circle cx="477" cy="824" r="6"/><circle cx="551" cy="872" r="5"/><circle cx="615" cy="865" r="4"/><circle cx="701" cy="862" r="5"/><circle cx="778" cy="860" r="5"/><circle cx="871" cy="833" r="5"/><circle cx="882" cy="813" r="6"/><circle cx="984" cy="849" r="6"/><circle cx="1066" cy="810" r="5"/><circle cx="1148" cy="860" r="4"/><circle cx="1264" cy="804" r="6"/><circle cx="1327" cy="870" r="5"/><circle cx="1434" cy="847" r="4"/><circle cx="1441" cy="811" r="4"/><circle cx="1524" cy="879" r="6"/><circle cx="1679" cy="843" r="5"/><circle cx="1750" cy="816" r="5"/><circle cx="1813" cy="811" r="6"/><circle cx="1886" cy="817" r="4"/><circle cx="1996" cy="872" r="4"/><circle cx="2033" cy="822" r="5"/><circle cx="2092" cy="801" r="4"/><circle cx="2213" cy="880" r="5"/><circle cx="2266" cy="834" r="5"/><circle cx="2356" cy="828" r="4"/><circle cx="2408" cy="861" r="5"/><circle cx="2510" cy="870" r="4"/><circle cx="77" cy="907" r="5"/><circle cx="150" cy="910" r="5"/><circle cx="171" cy="952" r="4"/><circle cx="302" cy="918" r="6"/><circle cx="376" cy="954" r="5"/><circle cx="453" cy="907" r="5"/><circle cx="529" cy="945" r="4"/><circle cx="639" cy="919" r="5"/><circle cx="648" cy="935" r="5"/><circle cx="774" cy="925" r="6"/><circle cx="862" cy="931" r="4"/><circle cx="913" cy="941" r="6"/><circle cx="1028" cy="943" r="4"/><circle cx="1082" cy="936" r="6"/><circle cx="1156" cy="906" r="5"/><circle cx="1277" cy="941" r="6"/><circle cx="1319" cy="913" r="5"/><circle cx="1412" cy="881" r="5"/><circle cx="1474" cy="932" r="5"/><circle cx="1600" cy="923" r="6"/><circle cx="1646" cy="949" r="5"/><circle cx="1698" cy="881" r="4"/><circle cx="1761" cy="895" r="6"/><circle cx="1880" cy="899" r="4"/><circle cx="1959" cy="940" r="6"/><circle cx="2028" cy="956" r="5"/><circle cx="2091" cy="906" r="4"/><circle cx="2205" cy="933" r="4"/><circle cx="2291" cy="926" r="6"/><circle cx="2390" cy="944" r="6"/><circle cx="2422" cy="930" r="5"/><circle cx="2488" cy="955" r="6"/><circle cx="74" cy="989" r="5"/><circle cx="103" cy="975" r="5"/><circle cx="174" cy="1016" r="4"/><circle cx="289" cy="977" r="5"/><circle cx="394" cy="964" r="5"/><circle cx="471" cy="1014" r="5"/><circle cx="541" cy="969" r="5"/><circle cx="632" cy="1030" r="5"/><circle cx="691" cy="1019" r="6"/><circle cx="730" cy="1011" r="6"/><circle cx="876" cy="1017" r="4"/><circle cx="888" cy="1035" r="5"/><circle cx="997" cy="1028" r="6"/><circle cx="1096" cy="990" r="6"/><circle cx="1141" cy="1022" r="4"/><circle cx="1228" cy="982" r="5"/><circle cx="1320" cy="1014" r="4"/><circle cx="1420" cy="972" r="6"/><circle cx="1466" cy="976" r="4"/><circle cx="1585" cy="1020" r="4"/><circle cx="1647" cy="1028" r="5"/><circle cx="1746" cy="1003" r="5"/><circle cx="1766" cy="1035" r="6"/><circle cx="1902" cy="969" r="5"/><circle cx="1922" cy="1000" r="5"/><circle cx="2001" cy="1007" r="5"/><circle cx="2108" cy="1011" r="4"/><circle cx="2236" cy="1040" r="4"/><circle cx="2271" cy="1033" r="6"/><circle cx="2384" cy="991" r="6"/><circle cx="2414" cy="1017" r="4"/><circle cx="2550" cy="975" r="5"/><circle cx="66" cy="1105" r="4"/><circle cx="146" cy="1088" r="5"/><circle cx="175" cy="1041" r="5"/><circle cx="288" cy="1073" r="4"/><circle cx="321" cy="1042" r="5"/><circle cx="416" cy="1071" r="5"/><circle cx="526" cy="1066" r="6"/><circle cx="601" cy="1107" r="5"/><circle cx="713" cy="1091" r="6"/><circle cx="793" cy="1079" r="6"/><circle cx="869" cy="1110" r="6"/><circle cx="950" cy="1111" r="6"/><circle cx="1035" cy="1047" r="5"/><circle cx="1076" cy="1079" r="6"/><circle cx="1140" cy="1117" r="5"/><circle cx="1251" cy="1098" r="4"/><circle cx="1318" cy="1062" r="5"/><circle cx="1382" cy="1053" r="4"/><circle cx="1491" cy="1096" r="5"/><circle cx="1555" cy="1099" r="4"/><circle cx="1633" cy="1086" r="5"/><circle cx="1686" cy="1081" r="6"/><circle cx="1836" cy="1043" r="6"/><circle cx="1893" cy="1063" r="5"/><circle cx="1955" cy="1076" r="5"/><circle cx="2001" cy="1099" r="5"/><circle cx="2150" cy="1081" r="5"/><circle cx="2219" cy="1066" r="5"/><circle cx="2297" cy="1087" r="6"/><circle cx="2328" cy="1094" r="5"/><circle cx="2479" cy="1089" r="5"/><circle cx="2555" cy="1099" r="5"/><circle cx="-5" cy="1099" r="5"/><circle cx="25" cy="1189" r="6"/><circle cx="152" cy="1125" r="6"/><circle cx="230" cy="1175" r="4"/><circle cx="302" cy="1128" r="4"/><circle cx="388" cy="1124" r="4"/><circle cx="428" cy="1133" r="5"/><circle cx="486" cy="1181" r="6"/><circle cx="561" cy="1156" r="6"/><circle cx="666" cy="1191" r="5"/><circle cx="750" cy="1135" r="6"/><circle cx="831" cy="1151" r="5"/><circle cx="883" cy="1168" r="4"/><circle cx="1020" cy="1141" r="4"/><circle cx="1104" cy="1182" r="4"/><circle cx="1131" cy="1146" r="6"/><circle cx="1240" cy="1129" r="5"/><circle cx="1294" cy="1197" r="4"/><circle cx="1366" cy="1124" r="6"/><circle cx="1494" cy="1187" r="6"/><circle cx="1555" cy="1155" r="6"/><circle cx="1627" cy="1169" r="5"/><circle cx="1742" cy="1143" r="5"/><circle cx="1809" cy="1126" r="6"/><circle cx="1870" cy="1173" r="5"/><circle cx="1958" cy="1152" r="5"/><circle cx="2030" cy="1155" r="5"/><circle cx="2092" cy="1193" r="5"/><circle cx="2204" cy="1131" r="6"/><circle cx="2268" cy="1163" r="5"/><circle cx="2388" cy="1154" r="5"/><circle cx="2460" cy="1183" r="6"/><circle cx="2516" cy="1158" r="6"/><circle cx="13" cy="1220" r="6"/><circle cx="119" cy="1237" r="6"/><circle cx="185" cy="1225" r="6"/><circle cx="306" cy="1266" r="5"/><circle cx="385" cy="1247" r="6"/><circle cx="407" cy="1212" r="5"/><circle cx="558" cy="1246" r="5"/><circle cx="591" cy="1240" r="5"/><circle cx="677" cy="1269" r="4"/><circle cx="733" cy="1259" r="6"/><circle cx="801" cy="1208" r="5"/><circle cx="953" cy="1251" r="6"/><circle cx="978" cy="1271" r="4"/><circle cx="1052" cy="1236" r="6"/><circle cx="1181" cy="1237" r="5"/><circle cx="1280" cy="1214" r="4"/><circle cx="1358" cy="1247" r="5"/><circle cx="1376" cy="1264" r="4"/><circle cx="1503" cy="1240" r="6"/><circle cx="1533" cy="1232" r="5"/><circle cx="1626" cy="1210" r="4"/><circle cx="1708" cy="1217" r="4"/><circle cx="1761" cy="1220" r="4"/><circle cx="1890" cy="1200" r="6"/><circle cx="1943" cy="1237" r="5"/><circle cx="2014" cy="1253" r="6"/><circle cx="2106" cy="1278" r="5"/><circle cx="2227" cy="1247" r="5"/><circle cx="2279" cy="1264" r="6"/><circle cx="2329" cy="1217" r="5"/><circle cx="2433" cy="1216" r="5"/><circle cx="2503" cy="1202" r="5"/><circle cx="18" cy="1349" r="6"/><circle cx="102" cy="1352" r="6"/><circle cx="218" cy="1324" r="5"/><circle cx="299" cy="1308" r="5"/><circle cx="371" cy="1320" r="5"/><circle cx="438" cy="1290" r="5"/><circle cx="559" cy="1295" r="5"/><circle cx="586" cy="1303" r="4"/><circle cx="681" cy="1337" r="6"/><circle cx="737" cy="1290" r="5"/><circle cx="808" cy="1324" r="5"/><circle cx="930" cy="1319" r="6"/><circle cx="1006" cy="1358" r="5"/><circle cx="1120" cy="1309" r="5"/><circle cx="1154" cy="1298" r="4"/><circle cx="1215" cy="1292" r="5"/><circle cx="1282" cy="1359" r="5"/><circle cx="1395" cy="1318" r="5"/><circle cx="1490" cy="1282" r="4"/><circle cx="1581" cy="1312" r="6"/><circle cx="1660" cy="1356" r="5"/><circle cx="1748" cy="1327" r="5"/><circle cx="1761" cy="1309" r="5"/><circle cx="1913" cy="1323" r="5"/><circle cx="1967" cy="1336" r="5"/><circle cx="2031" cy="1305" r="5"/><circle cx="2125" cy="1343" r="5"/><circle cx="2167" cy="1307" r="4"/><circle cx="2255" cy="1316" r="5"/><circle cx="2369" cy="1288" r="5"/><circle cx="2472" cy="1283" r="6"/><circle cx="2517" cy="1291" r="5"/><circle cx="68" cy="1410" r="4"/><circle cx="126" cy="1364" r="4"/><circle cx="222" cy="1431" r="5"/><circle cx="305" cy="1411" r="5"/><circle cx="333" cy="1430" r="4"/><circle cx="430" cy="1400" r="5"/><circle cx="510" cy="1435" r="5"/><circle cx="605" cy="1403" r="4"/><circle cx="643" cy="1376" r="5"/><circle cx="746" cy="1439" r="4"/><circle cx="746" cy="-1" r="4"/><circle cx="806" cy="1419" r="4"/><circle cx="936" cy="1417" r="5"/><circle cx="1017" cy="1437" r="4"/><circle cx="1017" cy="-3" r="4"/><circle cx="1041" cy="1367" r="5"/><circle cx="1192" cy="1433" r="5"/><circle cx="1224" cy="1415" r="6"/><circle cx="1356" cy="1377" r="6"/><circle cx="1413" cy="1410" r="5"/><circle cx="1466" cy="1368" r="5"/><circle cx="1528" cy="1389" r="6"/><circle cx="1603" cy="1436" r="5"/><circle cx="1603" cy="-4" r="5"/><circle cx="1730" cy="1399" r="6"/><circle cx="1806" cy="1412" r="5"/><circle cx="1861" cy="1364" r="6"/><circle cx="1963" cy="1438" r="5"/><circle cx="1963" cy="-2" r="5"/><circle cx="2022" cy="1376" r="6"/><circle cx="2113" cy="1376" r="5"/><circle cx="2177" cy="1372" r="4"/><circle cx="2267" cy="1417" r="5"/><circle cx="2354" cy="1435" r="5"/><circle cx="2429" cy="1364" r="5"/><circle cx="2526" cy="1411" r="5"/><path stroke="#fff" d="M17 32L-53 77M17 32L-8 103M17 32L68 -30M17 32L-34 -29M2577 32L2507 77M2577 32L2552 103M2577 32L2526 -29M17 1472L68 1410M17 1472L-34 1411M2577 1472L2526 1411M157 37L229 2M157 37L102 96M157 37L251 85M157 37L222 -9M157 1477L222 1431M229 2L264 44M229 2L251 85M229 2L222 -9M229 2L305 -29M229 1442L222 1431M229 1442L305 1411M264 44L347 42M264 44L251 85M264 44L222 -9M264 44L305 -29M264 1484L222 1431M264 1484L305 1411M347 42L419 91M347 42L305 -29M347 42L333 -10M347 1482L305 1411M347 1482L333 1430M477 7L515 58M477 7L419 91M477 7L430 -40M477 7L510 -5M477 1447L430 1400M477 1447L510 1435M515 58L581 14M515 58L419 91M515 58L552 142M515 58L510 -5M515 1498L510 1435M581 14L675 61M581 14L510 -5M581 14L605 -37M581 14L643 -64M581 1454L510 1435M581 1454L605 1403M581 1454L643 1376M675 61L783 48M675 61L659 104M675 61L772 83M675 61L746 -1M675 1501L746 1439M783 48L876 11M783 48L772 83M783 48L746 -1M783 48L806 -21M783 1488L746 1439M783 1488L806 1419M876 11L885 24M876 11L970 30M876 11L806 -21M876 11L936 -23M876 1451L806 1419M876 1451L936 1417M885 24L970 30M885 24L873 111M885 24L806 -21M885 24L936 -23M885 1464L806 1419M885 1464L936 1417M970 30L984 129M970 30L936 -23M970 30L1017 -3M970 1470L936 1417M970 1470L1017 1437M1085 38L1192 36M1085 38L1093 123M1085 38L1017 -3M1085 38L1041 -73M1085 38L1192 -7M1085 1478L1017 1437M1085 1478L1041 1367M1085 1478L1192 1433M1192 36L1268 52M1192 36L1219 89M1192 36L1192 -7M1192 36L1224 -25M1192 1476L1192 1433M1192 1476L1224 1415M1268 52L1311 35M1268 52L1219 89M1268 52L1296 88M1268 52L1224 -25M1268 1492L1224 1415M1311 35L1406 61M1311 35L1296 88M1311 35L1390 82M1311 35L1224 -25M1311 1475L1224 1415M1406 61L1443 72M1406 61L1390 82M1406 61L1456 120M1406 61L1413 -30M1406 1501L1413 1410M1443 72L1533 37M1443 72L1390 82M1443 72L1456 120M1443 72L1534 103M1533 37L1534 103M1533 37L1528 -51M1533 37L1603 -4M1533 1477L1528 1389M1533 1477L1603 1436M1669 20L1709 45M1669 20L1705 84M1669 20L1660 -84M1669 20L1603 -4M1669 20L1730 -41M1669 1460L1660 1356M1669 1460L1603 1436M1669 1460L1730 1399M1709 45L1812 35M1709 45L1664 134M1709 45L1705 84M1709 45L1730 -41M1709 1485L1730 1399M1812 35L1804 111M1812 35L1806 -28M1812 1475L1806 1412M1919 49L1938 43M1919 49L1916 119M1919 49L1981 87M1919 49L2006 94M1919 49L1963 -2M1919 1489L1963 1438M1938 43L1916 119M1938 43L1981 87M1938 43L2006 94M1938 43L1963 -2M1938 1483L1963 1438M2062 6L2106 59M2062 6L2022 -64M2062 6L2113 -64M2062 1446L2022 1376M2062 1446L2113 1376M2106 59L2202 31M2106 59L2114 145M2106 59L2198 82M2202 31L2286 0M2202 31L2198 82M2202 31L2240 114M2202 31L2267 -23M2202 1471L2267 1417M2286 0L2363 1M2286 0L2267 -23M2286 0L2354 -5M2286 1440L2267 1417M2286 1440L2354 1435M2363 1L2447 46M2363 1L2267 -23M2363 1L2354 -5M2363 1L2429 -76M2363 1441L2267 1417M2363 1441L2354 1435M2363 1441L2429 1364M2447 46L2507 77M2447 46L2411 92M2447 46L2354 -5M2447 46L2526 -29M2447 1486L2354 1435M2447 1486L2526 1411M2507 77L2576 126M2507 77L2411 92M2507 77L2552 103M-53 77L16 126M16 126L102 96M16 126L-8 103M16 126L49 202M16 126L-20 208M2576 126L2552 103M2576 126L2540 208M102 96L-8 103M102 96L127 176M2662 96L2552 103M222 152L251 85M222 152L127 176M222 152L207 215M222 152L304 184M251 85L222 -9M251 1525L222 1431M392 142L419 91M392 142L304 184M392 142L331 214M392 142L449 225M552 142L619 152M552 142L659 104M552 142L518 224M552 142L620 162M619 152L659 104M619 152L620 162M619 152L655 195M659 104L620 162M659 104L655 195M772 83L873 111M772 83L779 176M772 83L746 -1M772 1523L746 1439M873 111L914 137M873 111L878 180M914 137L984 129M914 137L878 180M914 137L917 230M914 137L974 171M984 129L1093 123M984 129L974 171M1093 123L1150 152M1093 123L1065 205M1093 123L1140 202M1150 152L1219 89M1150 152L1140 202M1219 89L1296 88M1219 89L1192 -7M1219 1529L1192 1433M1296 88L1390 82M1390 82L1456 120M1456 120L1534 103M1534 103L1524 210M1664 134L1705 84M1664 134L1644 223M1664 134L1707 203M1705 84L1804 111M1804 111L1799 169M1916 119L1981 87M1916 119L2006 94M1981 87L2006 94M1981 87L1963 -2M1981 1527L1963 1438M2006 94L1963 -2M2006 1534L1963 1438M2114 145L2198 82M2114 145L2073 222M2114 145L2081 179M2198 82L2240 114M2198 82L2228 172M2240 114L2338 103M2240 114L2228 172M2240 114L2243 182M2338 103L2411 92M2411 92L2441 196M2552 103L2540 208M49 202L127 176M49 202L-20 208M49 202L53 302M49 202L-20 274M2609 202L2540 208M2609 202L2540 274M127 176L207 215M127 176L184 261M207 215L304 184M207 215L125 277M207 215L184 261M304 184L331 214M331 214L260 316M449 225L518 224M449 225L418 305M449 225L498 273M518 224L498 273M518 224L602 259M620 162L655 195M620 162L602 259M655 195L602 259M655 195L642 267M779 176L878 180M779 176L747 250M878 180L917 230M878 180L974 171M917 230L974 171M917 230L858 320M917 230L882 290M974 171L1065 205M1065 205L1140 202M1065 205L1029 266M1065 205L1085 287M1270 199L1322 215M1270 199L1367 196M1270 199L1288 266M1322 215L1367 196M1322 215L1288 266M1322 215L1410 251M1367 196L1288 266M1367 196L1410 251M1489 219L1524 210M1489 219L1410 251M1489 219L1495 263M1489 219L1549 290M1524 210L1495 263M1644 223L1707 203M1644 223L1623 305M1644 223L1713 276M1707 203L1799 169M1707 203L1713 276M1799 169L1890 236M1890 236L1966 217M1890 236L1893 270M1890 236L1960 272M1966 217L2073 222M1966 217L1893 270M1966 217L1960 272M1966 217L2017 276M2073 222L2081 179M2073 222L2017 276M2073 222L2119 309M2228 172L2243 182M2228 172L2232 270M2243 182L2232 270M2243 182L2304 246M2379 240L2441 196M2379 240L2304 246M2379 240L2335 256M2379 240L2404 255M2441 196L2540 208M2441 196L2404 255M2540 208L2540 274M53 302L125 277M53 302L-20 274M53 302L20 336M53 302L109 364M2613 302L2540 274M125 277L184 261M125 277L109 364M125 277L211 338M184 261L260 316M184 261L211 338M260 316L211 338M260 316L316 364M392 309L418 305M392 309L316 364M392 309L358 400M392 309L464 377M418 305L498 273M418 305L464 377M418 305L500 330M498 273L602 259M498 273L500 330M602 259L642 267M642 267L747 250M642 267L573 360M642 267L688 378M858 320L882 290M858 320L761 382M858 320L877 327M858 320L892 353M882 290L877 327M882 290L892 353M882 290L965 357M1029 266L1085 287M1085 287L1152 315M1085 287L1111 370M1152 315L1215 312M1152 315L1111 370M1152 315L1178 345M1152 315L1160 416M1215 312L1288 266M1215 312L1178 345M1215 312L1266 367M1288 266L1266 367M1410 251L1495 263M1495 263L1549 290M1495 263L1487 329M1549 290L1623 305M1549 290L1487 329M1549 290L1579 348M1623 305L1713 276M1623 305L1579 348M1623 305L1625 386M1713 276L1784 316M1713 276L1708 376M1784 316L1787 365M1784 316L1871 347M1784 316L1746 402M1893 270L1960 272M1893 270L1871 347M1893 270L1958 351M1960 272L2017 276M1960 272L1958 351M2017 276L1958 351M2017 276L2059 324M2119 309L2059 324M2119 309L2113 327M2119 309L2153 413M2232 270L2304 246M2304 246L2335 256M2304 246L2315 334M2335 256L2404 255M2335 256L2315 334M2335 256L2403 330M2404 255L2403 330M2540 274L2580 336M2540 274L2504 328M-20 274L20 336M20 336L-56 328M20 336L60 439M2580 336L2504 328M109 364L211 338M109 364L60 439M109 364L91 460M316 364L358 400M316 364L286 445M316 364L366 435M358 400L286 445M358 400L366 435M358 400L333 503M464 377L500 330M464 377L469 417M500 330L573 360M500 330L469 417M573 360L593 462M688 378L761 382M688 378L686 410M688 378L725 443M688 378L728 483M761 382L686 410M761 382L725 443M761 382L728 483M877 327L892 353M877 327L965 357M877 327L912 411M892 353L965 357M892 353L912 411M965 357L912 411M965 357L1039 426M1111 370L1178 345M1111 370L1039 426M1111 370L1160 416M1178 345L1266 367M1178 345L1160 416M1266 367L1356 391M1266 367L1266 470M1356 391L1408 373M1356 391L1280 478M1356 391L1369 462M1408 373L1487 329M1408 373L1369 462M1408 373L1502 411M1487 329L1579 348M1487 329L1502 411M1579 348L1625 386M1579 348L1548 429M1625 386L1708 376M1625 386L1548 429M1708 376L1787 365M1708 376L1746 402M1787 365L1871 347M1787 365L1746 402M1787 365L1850 406M1871 347L1958 351M1871 347L1850 406M1958 351L1996 447M2059 324L2113 327M2113 327L2153 413M2235 386L2315 334M2235 386L2153 413M2235 386L2167 457M2235 386L2289 462M2315 334L2369 376M2315 334L2403 330M2369 376L2403 330M2369 376L2364 455M2369 376L2415 427M2403 330L2415 427M60 439L91 460M60 439L-22 461M60 439L54 499M2620 439L2538 461M91 460L186 476M91 460L54 499M91 460L121 531M186 476L121 531M186 476L187 514M186 476L259 507M286 445L366 435M286 445L259 507M286 445L333 503M366 435L469 417M366 435L333 503M469 417L507 479M507 479L593 462M507 479L455 549M507 479L546 504M593 462L686 410M593 462L546 504M593 462L652 508M686 410L725 443M686 410L728 483M725 443L652 508M725 443L728 483M860 436L912 411M860 436L849 538M860 436L902 509M912 411L902 509M1039 426L1088 476M1088 476L1160 416M1088 476L1047 558M1088 476L1147 481M1088 476L1089 565M1160 416L1147 481M1266 470L1280 478M1266 470L1276 550M1280 478L1369 462M1280 478L1276 550M1280 478L1336 555M1369 462L1336 555M1369 462L1436 509M1502 411L1548 429M1502 411L1495 486M1548 429L1495 486M1548 429L1598 492M1674 476L1598 492M1674 476L1661 498M1674 476L1731 545M1746 402L1791 471M1746 402L1850 406M1791 471L1850 406M1791 471L1731 545M1791 471L1834 506M1791 471L1845 551M1850 406L1834 506M1996 447L2016 468M1996 447L1960 485M1996 447L2011 523M2016 468L1960 485M2016 468L2011 523M2016 468L2116 516M2153 413L2167 457M2153 413L2187 492M2167 457L2116 516M2167 457L2187 492M2289 462L2364 455M2289 462L2268 499M2289 462L2366 529M2364 455L2415 427M2364 455L2268 499M2364 455L2366 529M2415 427L2448 523M2538 461L2539 527M54 499L121 531M54 499L-21 527M54 499L57 571M2614 499L2539 527M121 531L187 514M121 531L57 571M187 514L259 507M259 507L333 503M455 549L374 612M455 549L462 610M455 549L526 582M455 549L442 653M546 504L561 559M546 504L526 582M546 504L601 574M561 559L652 508M561 559L462 610M561 559L526 582M561 559L601 574M652 508L728 483M652 508L601 574M849 538L902 509M849 538L774 603M849 538L866 600M849 538L944 566M902 509L944 566M996 560L1047 558M996 560L944 566M996 560L1002 565M996 560L1089 565M1047 558L1002 565M1047 558L1089 565M1047 558L1088 662M1276 550L1336 555M1276 550L1271 596M1276 550L1287 610M1336 555L1271 596M1336 555L1287 610M1436 509L1495 486M1495 486L1598 492M1598 492L1661 498M1598 492L1605 569M1661 498L1731 545M1661 498L1605 569M1731 545L1691 592M1834 506L1845 551M1834 506L1862 617M1845 551L1776 629M1845 551L1862 617M1960 485L2011 523M1960 485L1968 595M2011 523L1968 595M2011 523L2052 586M2116 516L2187 492M2116 516L2052 586M2116 516L2117 603M2187 492L2268 499M2187 492L2220 566M2268 499L2220 566M2268 499L2281 617M2366 529L2448 523M2366 529L2391 598M2448 523L2539 527M2448 523L2435 595M2448 523L2481 575M2539 527L2617 571M2539 527L2481 575M-21 527L57 571M154 638L169 631M154 638L68 678M154 638L143 690M154 638L202 699M169 631L68 678M169 631L143 690M169 631L202 699M297 631L374 612M297 631L285 703M297 631L345 687M374 612L462 610M374 612L345 687M374 612L442 653M462 610L526 582M462 610L442 653M526 582L601 574M701 633L774 603M701 633L638 719M701 633L696 661M701 633L740 660M774 603L866 600M774 603L740 660M774 603L834 648M866 600L944 566M866 600L834 648M866 600L883 662M944 566L1002 565M1002 565L1089 565M1002 565L1008 675M1089 565L1178 589M1178 589L1271 596M1178 589L1176 646M1178 589L1241 650M1271 596L1287 610M1271 596L1241 650M1287 610L1241 650M1287 610L1308 689M1411 631L1491 630M1411 631L1376 669M1491 630L1562 630M1491 630L1376 669M1491 630L1506 674M1562 630L1605 569M1562 630L1506 674M1562 630L1562 716M1562 630L1660 644M1605 569L1691 592M1605 569L1660 644M1691 592L1776 629M1691 592L1660 644M1691 592L1764 650M1776 629L1862 617M1776 629L1764 650M1862 617L1904 689M1968 595L2052 586M1968 595L1974 691M2052 586L2117 603M2117 603L2220 566M2117 603L2089 681M2117 603L2192 687M2220 566L2281 617M2281 617L2192 687M2281 617L2274 702M2281 617L2305 733M2391 598L2435 595M2391 598L2481 575M2391 598L2396 644M2391 598L2437 682M2435 595L2481 575M2435 595L2396 644M2435 595L2437 682M2481 575L2396 644M68 678L143 690M68 678L64 746M143 690L202 699M143 690L150 736M202 699L150 736M202 699L209 764M285 703L345 687M285 703L278 728M285 703L369 727M345 687L278 728M345 687L369 727M442 653L369 727M442 653L411 744M540 708L638 719M540 708L520 738M540 708L574 766M638 719L696 661M638 719L574 766M638 719L660 774M696 661L740 660M740 660L834 648M740 660L743 758M834 648L883 662M883 662L850 741M1008 675L1088 662M1008 675L963 769M1008 675L1088 760M1088 662L1176 646M1088 662L1088 760M1176 646L1241 650M1176 646L1177 750M1176 646L1224 774M1241 650L1308 689M1308 689L1376 669M1308 689L1292 772M1308 689L1361 760M1376 669L1361 760M1506 674L1562 716M1506 674L1507 773M1506 674L1530 765M1562 716L1507 773M1562 716L1530 765M1660 644L1708 711M1660 644L1705 735M1708 711L1764 650M1708 711L1655 776M1708 711L1705 735M1708 711L1787 732M1764 650L1787 732M1904 689L1974 691M1904 689L1881 798M1904 689L1932 733M1974 691L2005 701M1974 691L1932 733M2005 701L2089 681M2005 701L1932 733M2005 701L2058 762M2089 681L2192 687M2089 681L2058 762M2089 681L2113 748M2192 687L2274 702M2192 687L2113 748M2274 702L2305 733M2274 702L2323 769M2396 644L2437 682M2437 682L2523 691M2437 682L2523 721M2523 691L2523 721M64 746L150 736M64 746L-37 721M64 746L72 826M2624 746L2523 721M150 736L209 764M150 736L145 816M209 764L278 728M209 764L145 816M209 764L285 802M278 728L369 727M278 728L285 802M369 727L411 744M411 744L520 738M411 744L477 824M520 738L574 766M520 738L477 824M574 766L660 774M660 774L743 758M660 774L615 865M743 758L850 741M743 758L778 860M850 741L938 764M850 741L871 833M850 741L882 813M938 764L963 769M938 764L871 833M938 764L882 813M938 764L984 849M963 769L882 813M963 769L984 849M963 769L1066 810M1088 760L1177 750M1088 760L1066 810M1177 750L1224 774M1177 750L1264 804M1224 774L1292 772M1224 774L1148 860M1224 774L1264 804M1292 772L1361 760M1292 772L1264 804M1292 772L1327 870M1361 760L1264 804M1507 773L1530 765M1507 773L1441 811M1507 773L1524 879M1530 765L1441 811M1530 765L1524 879M1655 776L1705 735M1655 776L1679 843M1705 735L1787 732M1705 735L1750 816M1787 732L1813 811M1881 798L1932 733M1881 798L1813 811M1881 798L1886 817M1881 798L1880 899M1932 733L1886 817M2058 762L2113 748M2058 762L2033 822M2058 762L2092 801M2113 748L2182 800M2113 748L2092 801M2182 800L2092 801M2182 800L2213 880M2182 800L2266 834M2305 733L2323 769M2305 733L2356 828M2323 769L2266 834M2323 769L2356 828M2452 794L2523 721M2452 794L2356 828M2452 794L2408 861M2452 794L2510 870M72 826L145 816M72 826L161 852M72 826L77 907M145 816L161 852M145 816L150 910M161 852L77 907M161 852L150 910M161 852L171 952M285 802L302 918M392 873L477 824M392 873L302 918M392 873L376 954M392 873L453 907M392 873L394 964M477 824L551 872M477 824L453 907M551 872L615 865M551 872L529 945M551 872L541 969M615 865L701 862M615 865L639 919M615 865L648 935M701 862L778 860M701 862L639 919M701 862L648 935M701 862L774 925M778 860L871 833M778 860L774 925M871 833L882 813M882 813L984 849M984 849L1066 810M984 849L913 941M1066 810L1148 860M1148 860L1082 936M1148 860L1156 906M1264 804L1327 870M1327 870L1277 941M1327 870L1319 913M1327 870L1412 881M1434 847L1441 811M1434 847L1524 879M1434 847L1412 881M1434 847L1474 932M1441 811L1412 881M1524 879L1474 932M1524 879L1600 923M1679 843L1750 816M1679 843L1600 923M1679 843L1698 881M1679 843L1761 895M1750 816L1813 811M1750 816L1698 881M1750 816L1761 895M1813 811L1886 817M1813 811L1761 895M1886 817L1880 899M1996 872L2033 822M1996 872L1959 940M1996 872L2028 956M1996 872L2091 906M2033 822L2092 801M2033 822L2091 906M2092 801L2091 906M2213 880L2266 834M2213 880L2205 933M2213 880L2291 926M2266 834L2356 828M2266 834L2291 926M2356 828L2408 861M2408 861L2510 870M2408 861L2390 944M2408 861L2422 930M2510 870L2488 955M2510 870L2550 975M77 907L150 910M77 907L74 989M77 907L103 975M150 910L171 952M150 910L103 975M171 952L103 975M171 952L174 1016M171 952L175 1041M302 918L376 954M302 918L289 977M302 918L394 964M376 954L453 907M376 954L289 977M376 954L394 964M453 907L529 945M453 907L394 964M529 945L471 1014M529 945L541 969M639 919L648 935M648 935L632 1030M648 935L691 1019M774 925L862 931M774 925L730 1011M862 931L913 941M862 931L876 1017M913 941L876 1017M913 941L888 1035M1028 943L1082 936M1028 943L997 1028M1028 943L1096 990M1028 943L1035 1047M1082 936L1156 906M1082 936L1096 990M1082 936L1141 1022M1156 906L1228 982M1277 941L1319 913M1277 941L1228 982M1277 941L1320 1014M1319 913L1320 1014M1319 913L1420 972M1412 881L1474 932M1412 881L1420 972M1474 932L1420 972M1474 932L1466 976M1600 923L1646 949M1600 923L1585 1020M1646 949L1698 881M1646 949L1585 1020M1646 949L1647 1028M1698 881L1761 895M1761 895L1746 1003M1880 899L1902 969M1959 940L2028 956M1959 940L1902 969M1959 940L1922 1000M1959 940L2001 1007M2028 956L2091 906M2028 956L2001 1007M2028 956L2108 1011M2091 906L2108 1011M2205 933L2291 926M2291 926L2271 1033M2390 944L2422 930M2390 944L2488 955M2390 944L2384 991M2390 944L2414 1017M2422 930L2488 955M2422 930L2384 991M2422 930L2414 1017M2488 955L2384 991M2488 955L2550 975M74 989L103 975M74 989L-10 975M74 989L175 1041M2634 989L2550 975M103 975L174 1016M174 1016L146 1088M174 1016L175 1041M289 977L288 1073M289 977L321 1042M394 964L471 1014M471 1014L541 969M471 1014L416 1071M471 1014L526 1066M541 969L526 1066M632 1030L691 1019M632 1030L730 1011M632 1030L601 1107M632 1030L713 1091M691 1019L730 1011M691 1019L713 1091M730 1011L713 1091M730 1011L793 1079M876 1017L888 1035M888 1035L869 1110M888 1035L950 1111M997 1028L950 1111M997 1028L1035 1047M997 1028L1076 1079M1096 990L1141 1022M1096 990L1035 1047M1096 990L1076 1079M1141 1022L1228 982M1141 1022L1140 1117M1228 982L1320 1014M1320 1014L1318 1062M1320 1014L1382 1053M1420 972L1466 976M1420 972L1382 1053M1585 1020L1647 1028M1585 1020L1555 1099M1585 1020L1633 1086M1647 1028L1746 1003M1647 1028L1633 1086M1647 1028L1686 1081M1746 1003L1766 1035M1746 1003L1686 1081M1746 1003L1836 1043M1766 1035L1686 1081M1766 1035L1836 1043M1766 1035L1742 1143M1766 1035L1809 1126M1902 969L1922 1000M1902 969L1836 1043M1902 969L1893 1063M1922 1000L2001 1007M1922 1000L1893 1063M1922 1000L1955 1076M2001 1007L1955 1076M2001 1007L2001 1099M2108 1011L2150 1081M2236 1040L2271 1033M2236 1040L2150 1081M2236 1040L2219 1066M2236 1040L2297 1087M2236 1040L2204 1131M2271 1033L2219 1066M2271 1033L2297 1087M2271 1033L2328 1094M2384 991L2414 1017M2384 991L2328 1094M2414 1017L2479 1089M66 1105L146 1088M66 1105L-5 1099M66 1105L152 1125M2626 1105L2555 1099M146 1088L175 1041M146 1088L152 1125M146 1088L230 1175M175 1041L152 1125M288 1073L321 1042M288 1073L302 1128M321 1042L416 1071M321 1042L302 1128M321 1042L388 1124M416 1071L526 1066M416 1071L388 1124M416 1071L428 1133M526 1066L601 1107M526 1066L561 1156M601 1107L561 1156M601 1107L666 1191M713 1091L793 1079M713 1091L750 1135M793 1079L869 1110M793 1079L750 1135M793 1079L831 1151M869 1110L950 1111M869 1110L831 1151M869 1110L883 1168M950 1111L883 1168M950 1111L1020 1141M1035 1047L1076 1079M1035 1047L1020 1141M1076 1079L1140 1117M1076 1079L1131 1146M1140 1117L1104 1182M1140 1117L1131 1146M1251 1098L1318 1062M1251 1098L1240 1129M1251 1098L1366 1124M1318 1062L1382 1053M1318 1062L1240 1129M1318 1062L1366 1124M1382 1053L1491 1096M1382 1053L1366 1124M1491 1096L1555 1099M1491 1096L1494 1187M1491 1096L1555 1155M1555 1099L1633 1086M1555 1099L1555 1155M1633 1086L1686 1081M1633 1086L1627 1169M1686 1081L1742 1143M1836 1043L1893 1063M1836 1043L1809 1126M1893 1063L1955 1076M1955 1076L2001 1099M1955 1076L1958 1152M2001 1099L1958 1152M2001 1099L2030 1155M2150 1081L2219 1066M2150 1081L2204 1131M2219 1066L2297 1087M2219 1066L2204 1131M2297 1087L2328 1094M2297 1087L2268 1163M2328 1094L2268 1163M2328 1094L2388 1154M2479 1089L2555 1099M2555 1099L2585 1189M2555 1099L2516 1158M-5 1099L25 1189M25 1189L-44 1158M25 1189L13 1220M25 1189L119 1237M25 1189L-57 1202M2585 1189L2516 1158M2585 1189L2503 1202M152 1125L230 1175M152 1125L185 1225M230 1175L302 1128M230 1175L185 1225M302 1128L388 1124M388 1124L428 1133M388 1124L407 1212M428 1133L486 1181M428 1133L407 1212M486 1181L561 1156M486 1181L407 1212M486 1181L558 1246M561 1156L558 1246M561 1156L591 1240M666 1191L750 1135M666 1191L591 1240M666 1191L677 1269M666 1191L733 1259M750 1135L831 1151M750 1135L801 1208M831 1151L883 1168M831 1151L801 1208M883 1168L801 1208M883 1168L953 1251M1020 1141L1104 1182M1020 1141L1052 1236M1104 1182L1131 1146M1104 1182L1052 1236M1104 1182L1181 1237M1131 1146L1240 1129M1131 1146L1181 1237M1240 1129L1294 1197M1240 1129L1280 1214M1294 1197L1366 1124M1294 1197L1280 1214M1294 1197L1358 1247M1294 1197L1376 1264M1366 1124L1358 1247M1494 1187L1555 1155M1494 1187L1503 1240M1494 1187L1533 1232M1494 1187L1490 1282M1555 1155L1627 1169M1555 1155L1533 1232M1627 1169L1626 1210M1627 1169L1708 1217M1742 1143L1809 1126M1742 1143L1708 1217M1742 1143L1761 1220M1809 1126L1870 1173M1809 1126L1890 1200M1870 1173L1761 1220M1870 1173L1890 1200M1870 1173L1943 1237M1958 1152L2030 1155M1958 1152L1890 1200M1958 1152L1943 1237M2030 1155L2092 1193M2092 1193L2014 1253M2092 1193L2106 1278M2204 1131L2268 1163M2268 1163L2227 1247M2268 1163L2329 1217M2388 1154L2460 1183M2388 1154L2329 1217M2388 1154L2433 1216M2460 1183L2516 1158M2460 1183L2433 1216M2460 1183L2503 1202M2460 1183L2472 1283M2516 1158L2573 1220M2516 1158L2503 1202M-44 1158L13 1220M13 1220L119 1237M13 1220L-57 1202M13 1220L-43 1291M2573 1220L2503 1202M2573 1220L2517 1291M119 1237L185 1225M119 1237L102 1352M185 1225L306 1266M185 1225L218 1324M306 1266L385 1247M306 1266L218 1324M306 1266L299 1308M306 1266L371 1320M385 1247L407 1212M385 1247L299 1308M385 1247L371 1320M385 1247L438 1290M407 1212L438 1290M558 1246L591 1240M558 1246L559 1295M558 1246L586 1303M591 1240L559 1295M591 1240L586 1303M677 1269L733 1259M677 1269L681 1337M677 1269L737 1290M733 1259L801 1208M733 1259L681 1337M733 1259L737 1290M801 1208L737 1290M953 1251L978 1271M953 1251L1052 1236M953 1251L930 1319M978 1271L1052 1236M978 1271L930 1319M978 1271L1006 1358M1052 1236L1120 1309M1181 1237L1120 1309M1181 1237L1154 1298M1181 1237L1215 1292M1280 1214L1358 1247M1280 1214L1376 1264M1280 1214L1215 1292M1358 1247L1376 1264M1358 1247L1395 1318M1376 1264L1395 1318M1376 1264L1356 1377M1503 1240L1533 1232M1503 1240L1490 1282M1503 1240L1581 1312M1533 1232L1490 1282M1533 1232L1581 1312M1626 1210L1708 1217M1708 1217L1761 1220M1761 1220L1761 1309M1890 1200L1943 1237M1890 1200L1913 1323M1943 1237L2014 1253M1943 1237L1913 1323M2014 1253L2106 1278M2014 1253L1967 1336M2014 1253L2031 1305M2106 1278L2031 1305M2106 1278L2125 1343M2106 1278L2167 1307M2227 1247L2279 1264M2227 1247L2329 1217M2227 1247L2167 1307M2227 1247L2255 1316M2279 1264L2329 1217M2279 1264L2255 1316M2279 1264L2369 1288M2329 1217L2369 1288M2433 1216L2503 1202M2433 1216L2369 1288M2433 1216L2472 1283M18 1349L102 1352M18 1349L-43 1291M18 1349L68 1410M18 1349L-34 1411M2578 1349L2517 1291M2578 1349L2526 1411M102 1352L68 1410M102 1352L126 1364M218 1324L299 1308M218 1324L126 1364M299 1308L371 1320M371 1320L438 1290M371 1320L430 1400M438 1290L430 1400M559 1295L586 1303M559 1295L643 1376M586 1303L643 1376M681 1337L737 1290M681 1337L605 1403M681 1337L643 1376M737 1290L808 1324M808 1324L806 1419M930 1319L1006 1358M930 1319L936 1417M930 1319L1041 1367M1006 1358L1017 1437M1006 1358L1041 1367M1120 1309L1154 1298M1120 1309L1215 1292M1120 1309L1041 1367M1154 1298L1215 1292M1215 1292L1282 1359M1282 1359L1192 1433M1282 1359L1224 1415M1282 1359L1356 1377M1395 1318L1356 1377M1395 1318L1413 1410M1395 1318L1466 1368M1490 1282L1581 1312M1490 1282L1466 1368M1581 1312L1660 1356M1581 1312L1528 1389M1660 1356L1748 1327M1660 1356L1603 1436M1660 1356L1730 1399M1748 1327L1761 1309M1748 1327L1730 1399M1748 1327L1806 1412M1748 1327L1861 1364M1761 1309L1806 1412M1761 1309L1861 1364M1913 1323L1967 1336M1913 1323L1861 1364M1967 1336L2031 1305M1967 1336L1861 1364M1967 1336L2022 1376M2031 1305L2125 1343M2031 1305L2022 1376M2125 1343L2167 1307M2125 1343L2113 1376M2125 1343L2177 1372M2167 1307L2255 1316M2167 1307L2177 1372M2255 1316L2177 1372M2255 1316L2267 1417M2369 1288L2472 1283M2369 1288L2429 1364M2472 1283L2517 1291M2472 1283L2429 1364M68 1410L126 1364M68 1410L-34 1411M2628 1410L2526 1411M222 1431L305 1411M305 1411L333 1430M333 1430L430 1400M430 1400L510 1435M510 1435L605 1403M605 1403L643 1376M746 1439L806 1419M936 1417L1017 1437M1017 1437L1041 1367M1192 1433L1224 1415M1356 1377L1413 1410M1356 1377L1466 1368M1413 1410L1466 1368M1413 1410L1528 1389M1466 1368L1528 1389M1528 1389L1603 1436M1730 1399L1806 1412M1806 1412L1861 1364M1963 1438L2022 1376M2022 1376L2113 1376M2113 1376L2177 1372M2267 1417L2354 1435M2354 1435L2429 1364M2429 1364L2526 1411"/></svg>