<svg xmlns="http://www.w3.org/2000/svg" width="2560" height="1440" fill="#fff"><circle cx="59" cy="31" r="5"/><circle cx="129" cy="63" r="5"/><circle cx="213" cy="4" r="4"/><circle cx="213" cy="1444" r="4"/><circle cx="260" cy="38" r="5"/><circle cx="321" cy="18" r="5"/><circle cx="402" cy="63" r="4"/><circle cx="549" cy="10" r="4"/><circle cx="575" cy="61" r="4"/><circle cx="677" cy="27" r="4"/><circle cx="761" cy="48" r="6"/><circle cx="858" cy="77" r="5"/><circle cx="902" cy="12" r="6"/><circle cx="990" cy="2" r="5"/><circle cx="990" cy="1442" r="5"/><circle cx="1119" cy="9" r="6"/><circle cx="1129" cy="18" r="5"/><circle cx="1258" cy="49" r="6"/><circle cx="1357" cy="48" r="6"/><circle cx="1403" cy="11" r="4"/><circle cx="1449" cy="58" r="6"/><circle cx="1551" cy="63" r="5"/><circle cx="1613" cy="17" r="5"/><circle cx="1695" cy="61" r="6"/><circle cx="1804" cy="45" r="5"/><circle cx="1913" cy="33" r="5"/><circle cx="1969" cy="39" r="5"/><circle cx="2070" cy="64" r="5"/><circle cx="2081" cy="62" r="6"/><circle cx="2166" cy="76" r="4"/><circle cx="2276" cy="65" r="5"/><circle cx="2365" cy="79" r="5"/><circle cx="2478" cy="14" r="6"/><circle cx="2552" cy="70" r="5"/><circle cx="44" cy="130" r="6"/><circle cx="81" cy="124" r="6"/><circle cx="171" cy="146" r="4"/><circle cx="319" cy="152" r="5"/><circle cx="325" cy="153" r="5"/><circle cx="419" cy="89" r="5"/><circle cx="489" cy="136" r="4"/><circle cx="585" cy="127" r="5"/><circle cx="700" cy="156" r="6"/><circle cx="759" cy="110" r="5"/><circle cx="865" cy="108" r="5"/><circle cx="945" cy="105" r="5"/><circle cx="998" cy="153" r="6"/><circle cx="1096" cy="102" r="5"/><circle cx="1171" cy="85" r="4"/><circle cx="1225" cy="108" r="4"/><circle cx="1287" cy="92" r="5"/><circle cx="1386" cy="142" r="5"/><circle cx="1454" cy="96" r="5"/><circle cx="1580" cy="106" r="5"/><circle cx="1615" cy="118" r="4"/><circle cx="1703" cy="86" r="5"/><circle cx="1808" cy="146" r="5"/><circle cx="1894" cy="109" r="4"/><circle cx="1933" cy="133" r="4"/><circle cx="2061" cy="131" r="6"/><circle cx="2131" cy="136" r="5"/><circle cx="2223" cy="155" r="6"/><circle cx="2316" cy="106" r="5"/><circle cx="2379" cy="112" r="5"/><circle cx="2415" cy="115" r="4"/><circle cx="2499" cy="90" r="5"/><circle cx="56" cy="176" r="6"/><circle cx="80" cy="169" r="4"/><circle cx="220" cy="239" r="6"/><circle cx="254" cy="212" r="6"/><circle cx="377" cy="162" r="6"/><circle cx="432" cy="191" r="5"/><circle cx="529" cy="205" r="4"/><circle cx="574" cy="211" r="4"/><circle cx="710" cy="231" r="5"/><circle cx="781" cy="195" r="5"/><circle cx="850" cy="229" r="5"/><circle cx="898" cy="169" r="5"/><circle cx="1035" cy="197" r="6"/><circle cx="1093" cy="188" r="6"/><circle cx="1167" cy="161" r="6"/><circle cx="1264" cy="183" r="5"/><circle cx="1345" cy="184" r="5"/><circle cx="1391" cy="175" r="5"/><circle cx="1489" cy="228" r="5"/><circle cx="1555" cy="189" r="5"/><circle cx="1653" cy="165" r="6"/><circle cx="1688" cy="212" r="6"/><circle cx="1777" cy="195" r="5"/><circle cx="1854" cy="231" r="6"/><circle cx="1967" cy="171" r="5"/><circle cx="2012" cy="207" r="4"/><circle cx="2111" cy="238" r="5"/><circle cx="2238" cy="196" r="5"/><circle cx="2310" cy="204" r="5"/><circle cx="2380" cy="168" r="6"/><circle cx="2430" cy="162" r="5"/><circle cx="2527" cy="164" r="4"/><circle cx="20" cy="281" r="6"/><circle cx="146" cy="261" r="5"/><circle cx="193" cy="248" r="5"/><circle cx="280" cy="282" r="5"/><circle cx="352" cy="267" r="5"/><circle cx="459" cy="263" r="5"/><circle cx="483" cy="280" r="5"/><circle cx="602" cy="297" r="4"/><circle cx="686" cy="243" r="6"/><circle cx="748" cy="263" r="5"/><circle cx="871" cy="314" r="5"/><circle cx="915" cy="269" r="6"/><circle cx="1005" cy="280" r="6"/><circle cx="1059" cy="265" r="5"/><circle cx="1196" cy="245" r="5"/><circle cx="1206" cy="315" r="5"/><circle cx="1282" cy="318" r="4"/><circle cx="1383" cy="255" r="5"/><circle cx="1457" cy="301" r="6"/><circle cx="1547" cy="273" r="4"/><circle cx="1637" cy="291" r="4"/><circle cx="1754" cy="267" r="4"/><circle cx="1833" cy="274" r="5"/><circle cx="1842" cy="251" r="5"/><circle cx="1995" cy="296" r="5"/><circle cx="2042" cy="293" r="5"/><circle cx="2146" cy="264" r="4"/><circle cx="2177" cy="270" r="4"/><circle cx="2285" cy="244" r="5"/><circle cx="2341" cy="315" r="5"/><circle cx="2415" cy="313" r="6"/><circle cx="2483" cy="314" r="5"/><circle cx="36" cy="347" r="4"/><circle cx="112" cy="372" r="6"/><circle cx="227" cy="336" r="6"/><circle cx="291" cy="349" r="5"/><circle cx="357" cy="359" r="6"/><circle cx="401" cy="346" r="6"/><circle cx="503" cy="321" r="5"/><circle cx="612" cy="369" r="5"/><circle cx="714" cy="339" r="4"/><circle cx="739" cy="335" r="5"/><circle cx="867" cy="373" r="5"/><circle cx="910" cy="394" r="5"/><circle cx="1008" cy="373" r="4"/><circle cx="1102" cy="338" r="4"/><circle cx="1139" cy="321" r="5"/><circle cx="1212" cy="374" r="6"/><circle cx="1322" cy="335" r="4"/><circle cx="1387" cy="389" r="6"/><circle cx="1458" cy="366" r="4"/><circle cx="1596" cy="325" r="6"/><circle cx="1627" cy="394" r="4"/><circle cx="1730" cy="345" r="5"/><circle cx="1826" cy="395" r="4"/><circle cx="1909" cy="383" r="4"/><circle cx="1966" cy="360" r="6"/><circle cx="2015" cy="364" r="5"/><circle cx="2155" cy="393" r="4"/><circle cx="2186" cy="389" r="5"/><circle cx="2262" cy="320" r="5"/><circle cx="2398" cy="373" r="4"/><circle cx="2433" cy="354" r="5"/><circle cx="2499" cy="386" r="4"/><circle cx="31" cy="459" r="6"/><circle cx="96" cy="439" r="5"/><circle cx="163" cy="452" r="4"/><circle cx="266" cy="473" r="5"/><circle cx="348" cy="445" r="5"/><circle cx="418" cy="461" r="5"/><circle cx="503" cy="464" r="6"/><circle cx="611" cy="423" r="6"/><circle cx="697" cy="402" r="6"/><circle cx="743" cy="449" r="5"/><circle cx="815" cy="447" r="5"/><circle cx="944" cy="466" r="6"/><circle cx="1034" cy="475" r="5"/><circle cx="1067" cy="426" r="6"/><circle cx="1140" cy="410" r="4"/><circle cx="1210" cy="451" r="5"/><circle cx="1328" cy="449" r="5"/><circle cx="1367" cy="465" r="5"/><circle cx="1500" cy="463" r="5"/><circle cx="1585" cy="437" r="5"/><circle cx="1648" cy="478" r="5"/><circle cx="1720" cy="432" r="5"/><circle cx="1803" cy="421" r="4"/><circle cx="1894" cy="456" r="5"/><circle cx="1973" cy="447" r="5"/><circle cx="2075" cy="449" r="5"/><circle cx="2118" cy="477" r="4"/><circle cx="2200" cy="408" r="5"/><circle cx="2274" cy="409" r="5"/><circle cx="2349" cy="465" r="5"/><circle cx="2414" cy="429" r="4"/><circle cx="2517" cy="453" r="5"/><circle cx="20" cy="497" r="6"/><circle cx="110" cy="545" r="4"/><circle cx="219" cy="485" r="5"/><circle cx="296" cy="486" r="5"/><circle cx="399" cy="484" r="5"/><circle cx="470" cy="524" r="6"/><circle cx="485" cy="560" r="5"/><circle cx="625" cy="560" r="4"/><circle cx="698" cy="559" r="6"/><circle cx="788" cy="511" r="5"/><circle cx="804" cy="547" r="4"/><circle cx="952" cy="550" r="5"/><circle cx="1013" cy="514" r="4"/><circle cx="1077" cy="500" r="5"/><circle cx="1133" cy="495" r="5"/><circle cx="1278" cy="559" r="6"/><circle cx="1283" cy="488" r="5"/><circle cx="1410" cy="551" r="4"/><circle cx="1468" cy="492" r="6"/><circle cx="1568" cy="493" r="5"/><circle cx="1638" cy="496" r="6"/><circle cx="1699" cy="503" r="4"/><circle cx="1762" cy="484" r="5"/><circle cx="1866" cy="512" r="5"/><circle cx="1955" cy="482" r="5"/><circle cx="2064" cy="506" r="5"/><circle cx="2087" cy="533" r="5"/><circle cx="2179" cy="551" r="5"/><circle cx="2304" cy="487" r="5"/><circle cx="2381" cy="544" r="5"/><circle cx="2443" cy="491" r="5"/><circle cx="2536" cy="508" r="5"/><circle cx="10" cy="625" r="4"/><circle cx="138" cy="629" r="5"/><circle cx="234" cy="595" r="4"/><circle cx="287" cy="579" r="5"/><circle cx="357" cy="561" r="5"/><circle cx="462" cy="572" r="4"/><circle cx="530" cy="573" r="5"/><circle cx="581" cy="611" r="4"/><circle cx="712" cy="603" r="5"/><circle cx="775" cy="626" r="5"/><circle cx="814" cy="581" r="4"/><circle cx="929" cy="640" r="4"/><circle cx="986" cy="635" r="6"/><circle cx="1053" cy="560" r="4"/><circle cx="1124" cy="623" r="5"/><circle cx="1244" cy="597" r="4"/><circle cx="1315" cy="574" r="5"/><circle cx="1379" cy="632" r="6"/><circle cx="1499" cy="629" r="4"/><circle cx="1577" cy="599" r="5"/><circle cx="1607" cy="584" r="4"/><circle cx="1723" cy="562" r="5"/><circle cx="1815" cy="583" r="4"/><circle cx="1919" cy="566" r="6"/><circle cx="1951" cy="629" r="6"/><circle cx="2055" cy="598" r="4"/><circle cx="2088" cy="602" r="5"/><circle cx="2183" cy="586" r="5"/><circle cx="2247" cy="621" r="6"/><circle cx="2380" cy="583" r="5"/><circle cx="2438" cy="639" r="6"/><circle cx="2526" cy="596" r="4"/><circle cx="28" cy="716" r="4"/><circle cx="154" cy="687" r="5"/><circle cx="198" cy="660" r="4"/><circle cx="263" cy="657" r="4"/><circle cx="388" cy="688" r="5"/><circle cx="476" cy="685" r="4"/><circle cx="553" cy="697" r="4"/><circle cx="623" cy="651" r="5"/><circle cx="714" cy="650" r="4"/><circle cx="736" cy="654" r="4"/><circle cx="834" cy="666" r="5"/><circle cx="905" cy="650" r="4"/><circle cx="961" cy="665" r="6"/><circle cx="1058" cy="700" r="4"/><circle cx="1181" cy="648" r="5"/><circle cx="1229" cy="652" r="6"/><circle cx="1305" cy="684" r="5"/><circle cx="1377" cy="649" r="5"/><circle cx="1449" cy="644" r="6"/><circle cx="1583" cy="663" r="4"/><circle cx="1619" cy="669" r="5"/><circle cx="1736" cy="676" r="6"/><circle cx="1833" cy="650" r="4"/><circle cx="1871" cy="675" r="5"/><circle cx="1995" cy="644" r="5"/><circle cx="2071" cy="698" r="5"/><circle cx="2126" cy="659" r="5"/><circle cx="2187" cy="701" r="6"/><circle cx="2310" cy="687" r="4"/><circle cx="2378" cy="683" r="4"/><circle cx="2434" cy="710" r="5"/><circle cx="2512" cy="669" r="5"/><circle cx="37" cy="778" r="4"/><circle cx="113" cy="791" r="5"/><circle cx="163" cy="797" r="5"/><circle cx="266" cy="762" r="5"/><circle cx="359" cy="776" r="5"/><circle cx="429" cy="747" r="5"/><circle cx="527" cy="775" r="4"/><circle cx="618" cy="736" r="6"/><circle cx="704" cy="746" r="4"/><circle cx="794" cy="783" r="6"/><circle cx="808" cy="766" r="6"/><circle cx="896" cy="771" r="5"/><circle cx="975" cy="788" r="4"/><circle cx="1119" cy="760" r="5"/><circle cx="1140" cy="759" r="6"/><circle cx="1269" cy="747" r="6"/><circle cx="1342" cy="790" r="5"/><circle cx="1391" cy="733" r="5"/><circle cx="1470" cy="759" r="5"/><circle cx="1541" cy="751" r="5"/><circle cx="1634" cy="729" r="6"/><circle cx="1758" cy="789" r="5"/><circle cx="1779" cy="757" r="5"/><circle cx="1851" cy="797" r="4"/><circle cx="1974" cy="791" r="6"/><circle cx="2016" cy="759" r="6"/><circle cx="2154" cy="736" r="5"/><circle cx="2231" cy="761" r="5"/><circle cx="2256" cy="754" r="5"/><circle cx="2344" cy="728" r="5"/><circle cx="2452" cy="785" r="4"/><circle cx="2552" cy="729" r="5"/><circle cx="53" cy="819" r="5"/><circle cx="88" cy="843" r="5"/><circle cx="201" cy="857" r="5"/><circle cx="240" cy="808" r="5"/><circle cx="391" cy="823" r="6"/><circle cx="478" cy="821" r="6"/><circle cx="553" cy="845" r="6"/><circle cx="588" cy="803" r="6"/><circle cx="679" cy="809" r="5"/><circle cx="782" cy="814" r="4"/><circle cx="824" cy="833" r="6"/><circle cx="955" cy="829" r="6"/><circle cx="1007" cy="876" r="4"/><circle cx="1111" cy="830" r="5"/><circle cx="1193" cy="872" r="5"/><circle cx="1215" cy="872" r="5"/><circle cx="1315" cy="845" r="5"/><circle cx="1367" cy="876" r="6"/><circle cx="1484" cy="817" r="5"/><circle cx="1543" cy="849" r="6"/><circle cx="1643" cy="849" r="6"/><circle cx="1705" cy="822" r="5"/><circle cx="1770" cy="813" r="5"/><circle cx="1840" cy="818" r="5"/><circle cx="1950" cy="848" r="6"/><circle cx="2062" cy="831" r="5"/><circle cx="2088" cy="826" r="5"/><circle cx="2185" cy="839" r="5"/><circle cx="2301" cy="877" r="5"/><circle cx="2373" cy="829" r="4"/><circle cx="2452" cy="806" r="5"/><circle cx="2511" cy="833" r="5"/><circle cx="30" cy="882" r="5"/><circle cx="112" cy="909" r="5"/><circle cx="239" cy="884" r="6"/><circle cx="248" cy="895" r="5"/><circle cx="397" cy="884" r="6"/><circle cx="460" cy="892" r="5"/><circle cx="546" cy="952" r="6"/><circle cx="610" cy="884" r="4"/><circle cx="695" cy="942" r="5"/><circle cx="732" cy="957" r="5"/><circle cx="876" cy="953" r="4"/><circle cx="956" cy="948" r="5"/><circle cx="1008" cy="903" r="6"/><circle cx="1064" cy="944" r="6"/><circle cx="1192" cy="894" r="5"/><circle cx="1259" cy="918" r="4"/><circle cx="1352" cy="886" r="5"/><circle cx="1419" cy="919" r="4"/><circle cx="1475" cy="938" r="5"/><circle cx="1525" cy="925" r="4"/><circle cx="1664" cy="931" r="5"/><circle cx="1754" cy="929" r="5"/><circle cx="1761" cy="907" r="5"/><circle cx="1878" cy="891" r="5"/><circle cx="1935" cy="898" r="4"/><circle cx="2052" cy="889" r="6"/><circle cx="2134" cy="933" r="5"/><circle cx="2224" cy="884" r="4"/><circle cx="2279" cy="924" r="4"/><circle cx="2358" cy="929" r="5"/><circle cx="2454" cy="925" r="4"/><circle cx="2503" cy="957" r="5"/><circle cx="41" cy="977" r="5"/><circle cx="115" cy="1016" r="5"/><circle cx="181" cy="1023" r="6"/><circle cx="313" cy="986" r="5"/><circle cx="326" cy="1005" r="4"/><circle cx="479" cy="1008" r="6"/><circle cx="530" cy="990" r="5"/><circle cx="627" cy="974" r="5"/><circle cx="649" cy="961" r="6"/><circle cx="728" cy="996" r="6"/><circle cx="801" cy="1008" r="6"/><circle cx="937" cy="973" r="5"/><circle cx="969" cy="977" r="5"/><circle cx="1056" cy="978" r="5"/><circle cx="1130" cy="1007" r="6"/><circle cx="1209" cy="1026" r="6"/><circle cx="1322" cy="997" r="5"/><circle cx="1362" cy="963" r="4"/><circle cx="1466" cy="1025" r="5"/><circle cx="1583" cy="982" r="5"/><circle cx="1678" cy="991" r="5"/><circle cx="1721" cy="967" r="6"/><circle cx="1809" cy="1000" r="5"/><circle cx="1885" cy="960" r="5"/><circle cx="1993" cy="985" r="6"/><circle cx="2070" cy="974" r="6"/><circle cx="2142" cy="1010" r="4"/><circle cx="2172" cy="1036" r="5"/><circle cx="2317" cy="972" r="4"/><circle cx="2383" cy="976" r="6"/><circle cx="2412" cy="978" r="5"/><circle cx="2558" cy="966" r="4"/><circle cx="-2" cy="966" r="4"/><circle cx="59" cy="1080" r="6"/><circle cx="82" cy="1069" r="4"/><circle cx="232" cy="1068" r="6"/><circle cx="247" cy="1041" r="6"/><circle cx="360" cy="1043" r="4"/><circle cx="446" cy="1052" r="5"/><circle cx="529" cy="1072" r="4"/><circle cx="617" cy="1089" r="6"/><circle cx="654" cy="1043" r="5"/><circle cx="771" cy="1042" r="5"/><circle cx="842" cy="1082" r="4"/><circle cx="890" cy="1100" r="5"/><circle cx="988" cy="1061" r="5"/><circle cx="1080" cy="1070" r="5"/><circle cx="1143" cy="1066" r="4"/><circle cx="1273" cy="1051" r="4"/><circle cx="1288" cy="1063" r="5"/><circle cx="1413" cy="1090" r="6"/><circle cx="1479" cy="1045" r="6"/><circle cx="1566" cy="1090" r="5"/><circle cx="1608" cy="1106" r="5"/><circle cx="1737" cy="1065" r="6"/><circle cx="1765" cy="1044" r="4"/><circle cx="1855" cy="1077" r="4"/><circle cx="1934" cy="1106" r="6"/><circle cx="2011" cy="1092" r="5"/><circle cx="2124" cy="1103" r="6"/><circle cx="2168" cy="1119" r="5"/><circle cx="2266" cy="1095" r="5"/><circle cx="2343" cy="1064" r="6"/><circle cx="2430" cy="1057" r="5"/><circle cx="2556" cy="1087" r="4"/><circle cx="-4" cy="1087" r="4"/><circle cx="34" cy="1165" r="4"/><circle cx="153" cy="1150" r="5"/><circle cx="231" cy="1122" r="5"/><circle cx="254" cy="1164" r="5"/><circle cx="369" cy="1155" r="6"/><circle cx="437" cy="1152" r="6"/><circle cx="489" cy="1147" r="5"/><circle cx="597" cy="1186" r="6"/><circle cx="693" cy="1180" r="4"/><circle cx="766" cy="1145" r="5"/><circle cx="821" cy="1190" r="6"/><circle cx="887" cy="1146" r="5"/><circle cx="1016" cy="1168" r="6"/><circle cx="1079" cy="1139" r="5"/><circle cx="1199" cy="1186" r="6"/><circle cx="1206" cy="1131" r="6"/><circle cx="1305" cy="1160" r="6"/><circle cx="1412" cy="1156" r="5"/><circle cx="1495" cy="1191" r="6"/><circle cx="1587" cy="1131" r="4"/><circle cx="1623" cy="1170" r="6"/><circle cx="1754" cy="1127" r="5"/><circle cx="1789" cy="1152" r="6"/><circle cx="1904" cy="1168" r="4"/><circle cx="1968" cy="1194" r="6"/><circle cx="2019" cy="1184" r="5"/><circle cx="2146" cy="1192" r="5"/><circle cx="2193" cy="1171" r="5"/><circle cx="2300" cy="1126" r="5"/><circle cx="2340" cy="1159" r="5"/><circle cx="2415" cy="1191" r="4"/><circle cx="2511" cy="1139" r="5"/><circle cx="63" cy="1240" r="5"/><circle cx="121" cy="1219" r="5"/><circle cx="232" cy="1252" r="5"/><circle cx="274" cy="1258" r="5"/><circle cx="398" cy="1277" r="5"/><circle cx="445" cy="1231" r="4"/><circle cx="556" cy="1206" r="5"/><circle cx="565" cy="1216" r="6"/><circle cx="702" cy="1216" r="6"/><circle cx="725" cy="1278" r="6"/><circle cx="829" cy="1277" r="6"/><circle cx="931" cy="1211" r="5"/><circle cx="979" cy="1213" r="5"/><circle cx="1042" cy="1202" r="6"/><circle cx="1139" cy="1263" r="5"/><circle cx="1269" cy="1250" r="5"/><circle cx="1355" cy="1276" r="6"/><circle cx="1370" cy="1204" r="4"/><circle cx="1486" cy="1240" r="5"/><circle cx="1584" cy="1255" r="5"/><circle cx="1616" cy="1220" r="5"/><circle cx="1733" cy="1201" r="5"/><circle cx="1796" cy="1278" r="4"/><circle cx="1868" cy="1221" r="5"/><circle cx="1931" cy="1225" r="5"/><circle cx="2013" cy="1279" r="5"/><circle cx="2148" cy="1207" r="5"/><circle cx="2180" cy="1235" r="6"/><circle cx="2240" cy="1256" r="6"/><circle cx="2392" cy="1233" r="5"/><circle cx="2405" cy="1214" r="6"/><circle cx="2491" cy="1273" r="6"/><circle cx="21" cy="1340" r="5"/><circle cx="125" cy="1320" r="6"/><circle cx="195" cy="1280" r="4"/><circle cx="261" cy="1286" r="4"/><circle cx="372" cy="1327" r="6"/><circle cx="427" cy="1293" r="6"/><circle cx="497" cy="1280" r="5"/><circle cx="579" cy="1341" r="4"/><circle cx="669" cy="1323" r="5"/><circle cx="746" cy="1287" r="5"/><circle cx="848" cy="1286" r="5"/><circle cx="892" cy="1344" r="5"/><circle cx="1026" cy="1280" r="5"/><circle cx="1045" cy="1297" r="4"/><circle cx="1171" cy="1355" r="4"/><circle cx="1257" cy="1334" r="5"/><circle cx="1332" cy="1351" r="5"/><circle cx="1411" cy="1294" r="5"/><circle cx="1517" cy="1315" r="5"/><circle cx="1587" cy="1319" r="4"/><circle cx="1625" cy="1298" r="6"/><circle cx="1730" cy="1284" r="5"/><circle cx="1788" cy="1335" r="5"/><circle cx="1884" cy="1306" r="5"/><circle cx="1939" cy="1306" r="5"/><circle cx="2051" cy="1307" r="5"/><circle cx="2089" cy="1300" r="4"/><circle cx="2223" cy="1331" r="5"/><circle cx="2298" cy="1292" r="6"/><circle cx="2365" cy="1303" r="5"/><circle cx="2474" cy="1309" r="5"/><circle cx="2529" cy="1297" r="4"/><circle cx="31" cy="1384" r="6"/><circle cx="152" cy="1385" r="6"/><circle cx="176" cy="1420" r="5"/><circle cx="247" cy="1361" r="5"/><circle cx="370" cy="1388" r="6"/><circle cx="449" cy="1394" r="4"/><circle cx="485" cy="1392" r="5"/><circle cx="594" cy="1408" r="5"/><circle cx="658" cy="1439" r="5"/><circle cx="658" cy="-1" r="5"/><circle cx="740" cy="1412" r="4"/><circle cx="874" cy="1438" r="6"/><circle cx="874" cy="-2" r="6"/><circle cx="932" cy="1399" r="4"/><circle cx="965" cy="1365" r="5"/><circle cx="1066" cy="1362" r="6"/><circle cx="1168" cy="1435" r="5"/><circle cx="1277" cy="1380" r="4"/><circle cx="1340" cy="1421" r="4"/><circle cx="1431" cy="1386" r="5"/><circle cx="1515" cy="1379" r="5"/><circle cx="1596" cy="1364" r="4"/><circle cx="1617" cy="1414" r="5"/><circle cx="1742" cy="1375" r="4"/><circle cx="1833" cy="1428" r="5"/><circle cx="1857" cy="1419" r="5"/><circle cx="1973" cy="1432" r="5"/><circle cx="2066" cy="1364" r="6"/><circle cx="2107" cy="1381" r="4"/><circle cx="2194" cy="1373" r="4"/><circle cx="2300" cy="1431" r="5"/><circle cx="2371" cy="1395" r="4"/><circle cx="2421" cy="1433" r="5"/><circle cx="2542" cy="1411" r="5"/><path stroke="#fff" d="M59 31L129 63M59 31L-8 70M59 31L81 124M59 31L31 -56M59 31L-18 -29M2619 31L2552 70M2619 31L2542 -29M59 1471L31 1384M59 1471L-18 1411M2619 1471L2542 1411M129 63L81 124M129 63L171 146M129 63L176 -20M129 1503L176 1420M213 4L260 38M213 4L321 18M213 4L152 -55M213 4L176 -20M213 4L247 -79M213 1444L152 1385M213 1444L176 1420M213 1444L247 1361M260 38L321 18M260 38L176 -20M260 1478L176 1420M321 18L402 63M321 18L370 -52M321 1458L370 1388M402 63L419 89M549 10L575 61M549 10L579 -99M549 10L485 -48M549 10L594 -32M549 10L658 -1M549 1450L579 1341M549 1450L485 1392M549 1450L594 1408M549 1450L658 1439M575 61L585 127M575 61L594 -32M575 61L658 -1M575 1501L594 1408M575 1501L658 1439M677 27L761 48M677 27L759 110M677 27L658 -1M677 27L740 -28M677 1467L658 1439M677 1467L740 1412M761 48L858 77M761 48L759 110M761 48L740 -28M761 1488L740 1412M858 77L902 12M858 77L865 108M858 77L945 105M858 77L874 -2M858 1517L874 1438M902 12L990 2M902 12L945 105M902 12L874 -2M902 12L932 -41M902 1452L874 1438M902 1452L932 1399M990 2L932 -41M990 2L965 -75M990 1442L932 1399M990 1442L965 1365M1119 9L1129 18M1119 9L1096 102M1119 9L1171 85M1119 9L1066 -78M1119 9L1168 -5M1119 1449L1066 1362M1119 1449L1168 1435M1129 18L1096 102M1129 18L1171 85M1129 18L1066 -78M1129 18L1168 -5M1129 1458L1066 1362M1129 1458L1168 1435M1258 49L1357 48M1258 49L1225 108M1258 49L1287 92M1258 49L1168 -5M1258 1489L1168 1435M1357 48L1403 11M1357 48L1449 58M1357 48L1287 92M1357 48L1340 -19M1357 1488L1340 1421M1403 11L1449 58M1403 11L1454 96M1403 11L1340 -19M1403 11L1431 -54M1403 1451L1340 1421M1403 1451L1431 1386M1449 58L1551 63M1449 58L1386 142M1449 58L1454 96M1551 63L1613 17M1551 63L1454 96M1551 63L1580 106M1551 63L1615 118M1613 17L1695 61M1613 17L1580 106M1613 17L1596 -76M1613 17L1617 -26M1613 1457L1596 1364M1613 1457L1617 1414M1695 61L1804 45M1695 61L1615 118M1695 61L1703 86M1804 45L1703 86M1804 45L1808 146M1804 45L1833 -12M1804 45L1857 -21M1804 1485L1833 1428M1804 1485L1857 1419M1913 33L1969 39M1913 33L1894 109M1913 33L1833 -12M1913 33L1857 -21M1913 33L1973 -8M1913 1473L1833 1428M1913 1473L1857 1419M1913 1473L1973 1432M1969 39L2070 64M1969 39L2081 62M1969 39L1933 133M1969 39L1973 -8M1969 1479L1973 1432M2070 64L2081 62M2070 64L2166 76M2070 64L2061 131M2070 64L2131 136M2081 62L2166 76M2081 62L2061 131M2081 62L2131 136M2166 76L2131 136M2166 76L2223 155M2276 65L2365 79M2276 65L2316 106M2276 65L2300 -9M2276 1505L2300 1431M2365 79L2316 106M2365 79L2379 112M2365 79L2415 115M2478 14L2552 70M2478 14L2499 90M2478 14L2421 -7M2478 14L2542 -29M2478 1454L2421 1433M2478 1454L2542 1411M2552 70L2604 130M2552 70L2499 90M2552 70L2542 -29M-8 70L44 130M2552 1510L2542 1411M44 130L81 124M44 130L56 176M44 130L80 169M44 130L-33 164M2604 130L2527 164M81 124L56 176M81 124L80 169M171 146L80 169M319 152L325 153M319 152L419 89M319 152L254 212M319 152L377 162M325 153L254 212M325 153L377 162M419 89L489 136M419 89L377 162M419 89L432 191M489 136L585 127M489 136L432 191M489 136L529 205M585 127L529 205M585 127L574 211M700 156L759 110M700 156L710 231M700 156L781 195M700 156L686 243M759 110L865 108M759 110L781 195M865 108L945 105M865 108L898 169M865 108L874 -2M865 1548L874 1438M945 105L998 153M945 105L898 169M998 153L898 169M998 153L1035 197M998 153L1093 188M1096 102L1171 85M1096 102L1093 188M1096 102L1167 161M1171 85L1225 108M1171 85L1167 161M1225 108L1287 92M1225 108L1167 161M1225 108L1264 183M1287 92L1264 183M1386 142L1454 96M1386 142L1345 184M1386 142L1391 175M1454 96L1391 175M1580 106L1615 118M1580 106L1555 189M1580 106L1653 165M1615 118L1555 189M1615 118L1653 165M1703 86L1653 165M1703 86L1688 212M1808 146L1894 109M1808 146L1777 195M1808 146L1854 231M1808 146L1842 251M1894 109L1933 133M1894 109L1967 171M1933 133L1967 171M2061 131L2131 136M2061 131L1967 171M2061 131L2012 207M2131 136L2223 155M2223 155L2316 106M2223 155L2238 196M2223 155L2310 204M2316 106L2379 112M2316 106L2380 168M2379 112L2415 115M2379 112L2380 168M2379 112L2430 162M2415 115L2499 90M2415 115L2380 168M2415 115L2430 162M2499 90L2430 162M2499 90L2527 164M56 176L80 169M56 176L-33 164M56 176L20 281M2616 176L2527 164M220 239L254 212M220 239L146 261M220 239L193 248M220 239L280 282M220 239L227 336M254 212L193 248M254 212L280 282M377 162L432 191M377 162L352 267M432 191L459 263M529 205L574 211M529 205L459 263M529 205L483 280M574 211L483 280M574 211L602 297M710 231L781 195M710 231L686 243M710 231L748 263M710 231L739 335M781 195L850 229M781 195L748 263M850 229L898 169M850 229L871 314M850 229L915 269M898 169L915 269M1035 197L1093 188M1035 197L1005 280M1035 197L1059 265M1093 188L1167 161M1093 188L1059 265M1167 161L1196 245M1264 183L1345 184M1264 183L1196 245M1345 184L1391 175M1345 184L1383 255M1391 175L1489 228M1391 175L1383 255M1489 228L1555 189M1489 228L1383 255M1489 228L1457 301M1489 228L1547 273M1555 189L1653 165M1555 189L1547 273M1653 165L1688 212M1688 212L1777 195M1688 212L1637 291M1688 212L1754 267M1777 195L1854 231M1777 195L1754 267M1777 195L1842 251M1854 231L1833 274M1854 231L1842 251M1967 171L2012 207M2012 207L2111 238M2012 207L1995 296M2012 207L2042 293M2111 238L1995 296M2111 238L2042 293M2111 238L2146 264M2111 238L2177 270M2238 196L2310 204M2238 196L2146 264M2238 196L2177 270M2238 196L2285 244M2310 204L2380 168M2310 204L2285 244M2380 168L2430 162M2430 162L2527 164M20 281L146 261M20 281L-77 314M20 281L36 347M2580 281L2483 314M146 261L193 248M193 248L227 336M280 282L352 267M280 282L227 336M280 282L291 349M352 267L291 349M352 267L357 359M352 267L401 346M459 263L483 280M459 263L401 346M459 263L503 321M483 280L503 321M602 297L686 243M602 297L503 321M602 297L612 369M602 297L611 423M686 243L748 263M686 243L739 335M748 263L714 339M748 263L739 335M871 314L915 269M871 314L867 373M871 314L910 394M915 269L1005 280M915 269L867 373M1005 280L1059 265M1005 280L1008 373M1005 280L1102 338M1059 265L1102 338M1196 245L1206 315M1196 245L1139 321M1206 315L1282 318M1206 315L1139 321M1206 315L1212 374M1282 318L1212 374M1282 318L1322 335M1383 255L1457 301M1383 255L1322 335M1457 301L1547 273M1457 301L1387 389M1457 301L1458 366M1547 273L1637 291M1547 273L1596 325M1637 291L1596 325M1637 291L1730 345M1754 267L1833 274M1754 267L1842 251M1754 267L1730 345M1833 274L1842 251M1995 296L2042 293M1995 296L1966 360M1995 296L2015 364M2042 293L1966 360M2042 293L2015 364M2146 264L2177 270M2177 270L2285 244M2285 244L2341 315M2285 244L2262 320M2341 315L2415 313M2341 315L2262 320M2341 315L2398 373M2415 313L2483 314M2415 313L2398 373M2415 313L2433 354M2415 313L2499 386M2483 314L2398 373M2483 314L2433 354M2483 314L2499 386M36 347L112 372M112 372L227 336M112 372L31 459M112 372L96 439M112 372L163 452M227 336L291 349M291 349L357 359M291 349L401 346M357 359L401 346M357 359L348 445M357 359L418 461M401 346L503 321M503 321L612 369M612 369L714 339M612 369L611 423M612 369L697 402M714 339L739 335M714 339L697 402M714 339L743 449M739 335L697 402M867 373L910 394M867 373L815 447M867 373L944 466M910 394L1008 373M910 394L815 447M910 394L944 466M1008 373L1067 426M1102 338L1139 321M1139 321L1212 374M1139 321L1140 410M1212 374L1140 410M1212 374L1210 451M1322 335L1387 389M1322 335L1328 449M1387 389L1458 366M1387 389L1328 449M1387 389L1367 465M1458 366L1500 463M1458 366L1468 492M1596 325L1627 394M1627 394L1585 437M1730 345L1826 395M1730 345L1720 432M1730 345L1803 421M1826 395L1909 383M1826 395L1803 421M1826 395L1894 456M1909 383L1966 360M1909 383L1894 456M1909 383L1973 447M1966 360L2015 364M1966 360L1973 447M2015 364L1973 447M2015 364L2075 449M2155 393L2186 389M2155 393L2075 449M2155 393L2118 477M2155 393L2200 408M2186 389L2262 320M2186 389L2200 408M2186 389L2274 409M2262 320L2200 408M2262 320L2274 409M2398 373L2433 354M2398 373L2414 429M2433 354L2499 386M2433 354L2414 429M2499 386L2414 429M2499 386L2517 453M31 459L96 439M31 459L-43 453M31 459L20 497M31 459L-24 508M2591 459L2517 453M2591 459L2536 508M96 439L163 452M96 439L20 497M96 439L110 545M163 452L266 473M163 452L110 545M163 452L219 485M266 473L348 445M266 473L219 485M266 473L296 486M266 473L287 579M348 445L418 461M348 445L296 486M348 445L399 484M418 461L503 464M418 461L399 484M503 464L611 423M503 464L399 484M503 464L470 524M503 464L485 560M611 423L697 402M697 402L743 449M743 449L815 447M743 449L788 511M815 447L788 511M815 447L804 547M944 466L1034 475M944 466L952 550M944 466L1013 514M1034 475L1067 426M1034 475L1013 514M1034 475L1077 500M1034 475L1053 560M1067 426L1140 410M1067 426L1077 500M1067 426L1133 495M1140 410L1210 451M1140 410L1133 495M1210 451L1133 495M1210 451L1283 488M1328 449L1367 465M1328 449L1283 488M1367 465L1283 488M1367 465L1410 551M1367 465L1468 492M1500 463L1585 437M1500 463L1468 492M1500 463L1568 493M1585 437L1648 478M1585 437L1568 493M1585 437L1638 496M1648 478L1720 432M1648 478L1568 493M1648 478L1638 496M1648 478L1699 503M1720 432L1803 421M1720 432L1699 503M1720 432L1762 484M1803 421L1762 484M1894 456L1973 447M1894 456L1866 512M1894 456L1955 482M1973 447L1955 482M2075 449L2118 477M2075 449L2064 506M2075 449L2087 533M2118 477L2064 506M2118 477L2087 533M2118 477L2179 551M2200 408L2274 409M2200 408L2304 487M2274 409L2349 465M2274 409L2304 487M2349 465L2414 429M2349 465L2304 487M2349 465L2381 544M2349 465L2443 491M2414 429L2443 491M2517 453L2580 497M2517 453L2443 491M2517 453L2536 508M-43 453L20 497M20 497L110 545M20 497L-24 508M2580 497L2536 508M110 545L138 629M219 485L296 486M219 485L234 595M296 486L287 579M296 486L357 561M399 484L470 524M399 484L357 561M470 524L485 560M470 524L462 572M470 524L530 573M485 560L462 572M485 560L530 573M485 560L581 611M625 560L698 559M625 560L530 573M625 560L581 611M625 560L623 651M698 559L788 511M698 559L712 603M698 559L714 650M788 511L804 547M788 511L814 581M804 547L814 581M952 550L1013 514M952 550L929 640M952 550L986 635M952 550L961 665M1013 514L1077 500M1013 514L1053 560M1077 500L1133 495M1077 500L1053 560M1133 495L1053 560M1278 559L1283 488M1278 559L1244 597M1278 559L1315 574M1278 559L1229 652M1283 488L1315 574M1410 551L1468 492M1410 551L1379 632M1410 551L1449 644M1468 492L1568 493M1568 493L1638 496M1638 496L1699 503M1638 496L1607 584M1699 503L1762 484M1699 503L1723 562M1762 484L1866 512M1762 484L1723 562M1866 512L1955 482M1866 512L1815 583M1866 512L1919 566M1955 482L1919 566M2064 506L2087 533M2064 506L2055 598M2064 506L2088 602M2087 533L2055 598M2087 533L2088 602M2179 551L2183 586M2179 551L2247 621M2304 487L2381 544M2304 487L2380 583M2381 544L2443 491M2381 544L2380 583M2443 491L2536 508M2536 508L2526 596M10 625L-34 596M10 625L28 716M10 625L-48 669M2570 625L2526 596M2570 625L2512 669M138 629L234 595M138 629L154 687M138 629L198 660M234 595L287 579M234 595L198 660M234 595L263 657M287 579L357 561M287 579L263 657M357 561L462 572M357 561L388 688M462 572L530 573M530 573L581 611M581 611L553 697M581 611L623 651M712 603L775 626M712 603L714 650M712 603L736 654M775 626L814 581M775 626L714 650M775 626L736 654M775 626L834 666M814 581L834 666M929 640L986 635M929 640L905 650M929 640L961 665M986 635L905 650M986 635L961 665M986 635L1058 700M1053 560L1124 623M1124 623L1058 700M1124 623L1181 648M1244 597L1315 574M1244 597L1181 648M1244 597L1229 652M1315 574L1379 632M1315 574L1377 649M1379 632L1305 684M1379 632L1377 649M1379 632L1449 644M1499 629L1577 599M1499 629L1449 644M1499 629L1583 663M1577 599L1607 584M1577 599L1583 663M1577 599L1619 669M1607 584L1723 562M1607 584L1583 663M1607 584L1619 669M1723 562L1815 583M1723 562L1736 676M1815 583L1919 566M1815 583L1833 650M1815 583L1871 675M1919 566L1951 629M1919 566L1995 644M1951 629L1833 650M1951 629L1871 675M1951 629L1995 644M2055 598L2088 602M2055 598L1995 644M2088 602L2183 586M2088 602L2126 659M2183 586L2247 621M2183 586L2126 659M2247 621L2187 701M2247 621L2310 687M2380 583L2438 639M2380 583L2378 683M2438 639L2526 596M2438 639L2378 683M2438 639L2434 710M2438 639L2512 669M2526 596L2512 669M28 716L37 778M28 716L-8 729M2588 716L2552 729M154 687L198 660M154 687L263 657M154 687L113 791M198 660L263 657M263 657L266 762M388 688L476 685M388 688L359 776M388 688L429 747M476 685L553 697M476 685L429 747M553 697L623 651M553 697L527 775M553 697L618 736M623 651L714 650M623 651L618 736M714 650L736 654M736 654L834 666M736 654L704 746M834 666L905 650M834 666L808 766M905 650L961 665M961 665L1058 700M1058 700L1119 760M1058 700L1140 759M1181 648L1229 652M1181 648L1140 759M1229 652L1305 684M1229 652L1269 747M1305 684L1377 649M1305 684L1269 747M1305 684L1391 733M1377 649L1449 644M1377 649L1391 733M1449 644L1391 733M1583 663L1619 669M1583 663L1634 729M1619 669L1634 729M1736 676L1833 650M1736 676L1634 729M1736 676L1779 757M1833 650L1871 675M1995 644L2071 698M2071 698L2126 659M2071 698L2016 759M2071 698L2154 736M2126 659L2187 701M2126 659L2154 736M2187 701L2154 736M2187 701L2231 761M2187 701L2256 754M2310 687L2378 683M2310 687L2231 761M2310 687L2256 754M2310 687L2344 728M2378 683L2434 710M2378 683L2344 728M2434 710L2512 669M2434 710L2344 728M2434 710L2452 785M2512 669L2552 729M37 778L113 791M37 778L-8 729M37 778L53 819M2597 778L2552 729M113 791L163 797M113 791L53 819M113 791L88 843M163 797L88 843M163 797L201 857M163 797L240 808M163 797L239 884M266 762L359 776M266 762L240 808M359 776L429 747M359 776L391 823M359 776L397 884M429 747L391 823M429 747L478 821M527 775L478 821M527 775L553 845M527 775L588 803M618 736L704 746M618 736L588 803M618 736L679 809M704 746L794 783M704 746L679 809M794 783L808 766M794 783L896 771M794 783L782 814M794 783L824 833M808 766L896 771M808 766L782 814M808 766L824 833M896 771L975 788M896 771L824 833M896 771L955 829M975 788L955 829M975 788L1007 876M1119 760L1140 759M1119 760L1111 830M1140 759L1111 830M1140 759L1193 872M1269 747L1342 790M1269 747L1315 845M1342 790L1391 733M1342 790L1315 845M1342 790L1367 876M1342 790L1352 886M1391 733L1470 759M1470 759L1541 751M1470 759L1484 817M1470 759L1543 849M1541 751L1634 729M1541 751L1484 817M1541 751L1543 849M1634 729L1643 849M1758 789L1779 757M1758 789L1851 797M1758 789L1705 822M1758 789L1770 813M1758 789L1840 818M1779 757L1851 797M1779 757L1770 813M1779 757L1840 818M1851 797L1770 813M1851 797L1840 818M1851 797L1878 891M1974 791L2016 759M1974 791L1950 848M1974 791L2062 831M1974 791L1935 898M2016 759L1950 848M2016 759L2062 831M2016 759L2088 826M2154 736L2231 761M2154 736L2256 754M2231 761L2256 754M2231 761L2185 839M2256 754L2344 728M2344 728L2373 829M2452 785L2373 829M2452 785L2452 806M2452 785L2511 833M2552 729L2511 833M53 819L88 843M53 819L-49 833M53 819L30 882M2613 819L2511 833M88 843L30 882M88 843L112 909M201 857L240 808M201 857L112 909M201 857L239 884M201 857L248 895M240 808L239 884M240 808L248 895M391 823L478 821M391 823L397 884M391 823L460 892M478 821L553 845M478 821L460 892M553 845L588 803M553 845L546 952M553 845L610 884M588 803L679 809M588 803L610 884M679 809L782 814M679 809L610 884M782 814L824 833M824 833L955 829M955 829L1007 876M955 829L1008 903M1007 876L956 948M1007 876L1008 903M1007 876L1064 944M1111 830L1193 872M1111 830L1192 894M1193 872L1215 872M1193 872L1192 894M1193 872L1259 918M1215 872L1192 894M1215 872L1259 918M1315 845L1367 876M1315 845L1259 918M1315 845L1352 886M1367 876L1352 886M1367 876L1419 919M1367 876L1362 963M1484 817L1543 849M1543 849L1643 849M1543 849L1525 925M1643 849L1705 822M1643 849L1664 931M1705 822L1770 813M1705 822L1761 907M1770 813L1840 818M1840 818L1878 891M1950 848L1878 891M1950 848L1935 898M1950 848L2052 889M2062 831L2088 826M2062 831L2052 889M2088 826L2185 839M2088 826L2052 889M2185 839L2134 933M2185 839L2224 884M2301 877L2373 829M2301 877L2224 884M2301 877L2279 924M2301 877L2358 929M2373 829L2452 806M2452 806L2511 833M2511 833L2590 882M-49 833L30 882M30 882L112 909M30 882L41 977M112 909L41 977M112 909L115 1016M239 884L248 895M248 895L313 986M397 884L460 892M460 892L479 1008M546 952L479 1008M546 952L530 990M546 952L627 974M695 942L732 957M695 942L627 974M695 942L649 961M695 942L728 996M695 942L654 1043M732 957L649 961M732 957L728 996M732 957L801 1008M732 957L771 1042M876 953L956 948M876 953L801 1008M876 953L937 973M956 948L1008 903M956 948L937 973M956 948L969 977M1008 903L1064 944M1008 903L969 977M1064 944L1056 978M1064 944L1130 1007M1192 894L1259 918M1259 918L1322 997M1352 886L1419 919M1352 886L1362 963M1419 919L1475 938M1419 919L1362 963M1475 938L1525 925M1475 938L1466 1025M1475 938L1479 1045M1525 925L1583 982M1664 931L1754 929M1664 931L1583 982M1664 931L1678 991M1664 931L1721 967M1754 929L1761 907M1754 929L1678 991M1754 929L1721 967M1754 929L1809 1000M1761 907L1721 967M1878 891L1935 898M1878 891L1885 960M1935 898L1885 960M1935 898L1993 985M2052 889L2134 933M2052 889L2070 974M2134 933L2070 974M2134 933L2142 1010M2134 933L2172 1036M2224 884L2279 924M2279 924L2358 929M2279 924L2317 972M2358 929L2317 972M2358 929L2383 976M2358 929L2412 978M2454 925L2503 957M2454 925L2383 976M2454 925L2412 978M2454 925L2558 966M2503 957L2412 978M2503 957L2558 966M41 977L115 1016M41 977L-2 966M41 977L59 1080M2601 977L2558 966M115 1016L181 1023M115 1016L59 1080M115 1016L82 1069M181 1023L82 1069M181 1023L232 1068M181 1023L247 1041M181 1023L231 1122M313 986L326 1005M313 986L247 1041M313 986L360 1043M326 1005L247 1041M326 1005L360 1043M479 1008L530 990M479 1008L446 1052M479 1008L529 1072M530 990L627 974M530 990L446 1052M530 990L529 1072M627 974L649 961M627 974L654 1043M649 961L728 996M649 961L654 1043M728 996L801 1008M728 996L771 1042M801 1008L771 1042M801 1008L842 1082M937 973L969 977M937 973L988 1061M969 977L1056 978M969 977L988 1061M1056 978L1130 1007M1056 978L1080 1070M1130 1007L1209 1026M1130 1007L1080 1070M1130 1007L1143 1066M1209 1026L1143 1066M1209 1026L1273 1051M1209 1026L1288 1063M1209 1026L1206 1131M1322 997L1362 963M1322 997L1273 1051M1322 997L1288 1063M1466 1025L1413 1090M1466 1025L1479 1045M1583 982L1678 991M1583 982L1479 1045M1583 982L1566 1090M1678 991L1721 967M1678 991L1737 1065M1721 967L1737 1065M1809 1000L1885 960M1809 1000L1765 1044M1809 1000L1855 1077M1885 960L1993 985M1993 985L2070 974M1993 985L2011 1092M2070 974L2142 1010M2070 974L2172 1036M2142 1010L2172 1036M2142 1010L2124 1103M2172 1036L2124 1103M2172 1036L2168 1119M2317 972L2383 976M2383 976L2412 978M2383 976L2343 1064M2412 978L2430 1057M59 1080L82 1069M59 1080L-4 1087M59 1080L34 1165M2619 1080L2556 1087M82 1069L-4 1087M82 1069L153 1150M2642 1069L2556 1087M232 1068L247 1041M232 1068L153 1150M232 1068L231 1122M232 1068L254 1164M247 1041L231 1122M360 1043L446 1052M360 1043L369 1155M446 1052L529 1072M446 1052L437 1152M529 1072L617 1089M529 1072L489 1147M617 1089L654 1043M617 1089L597 1186M617 1089L693 1180M617 1089L565 1216M771 1042L842 1082M771 1042L766 1145M842 1082L890 1100M842 1082L766 1145M842 1082L887 1146M890 1100L988 1061M890 1100L821 1190M890 1100L887 1146M988 1061L1080 1070M988 1061L1016 1168M1080 1070L1143 1066M1080 1070L1079 1139M1143 1066L1079 1139M1143 1066L1206 1131M1273 1051L1288 1063M1288 1063L1206 1131M1288 1063L1305 1160M1413 1090L1479 1045M1413 1090L1412 1156M1479 1045L1566 1090M1566 1090L1608 1106M1566 1090L1587 1131M1566 1090L1623 1170M1608 1106L1587 1131M1608 1106L1623 1170M1737 1065L1765 1044M1737 1065L1754 1127M1737 1065L1789 1152M1765 1044L1855 1077M1765 1044L1754 1127M1855 1077L1934 1106M1855 1077L1754 1127M1855 1077L1789 1152M1934 1106L2011 1092M1934 1106L1904 1168M1934 1106L1968 1194M2011 1092L2019 1184M2124 1103L2168 1119M2124 1103L2146 1192M2168 1119L2146 1192M2168 1119L2193 1171M2168 1119L2148 1207M2266 1095L2343 1064M2266 1095L2300 1126M2343 1064L2430 1057M2343 1064L2300 1126M2343 1064L2340 1159M2430 1057L2511 1139M2556 1087L2594 1165M2556 1087L2511 1139M-4 1087L34 1165M34 1165L-49 1139M34 1165L63 1240M34 1165L121 1219M2594 1165L2511 1139M153 1150L231 1122M153 1150L254 1164M153 1150L121 1219M231 1122L254 1164M254 1164L232 1252M254 1164L274 1258M369 1155L437 1152M437 1152L489 1147M437 1152L445 1231M489 1147L445 1231M489 1147L556 1206M489 1147L565 1216M597 1186L693 1180M597 1186L556 1206M597 1186L565 1216M597 1186L702 1216M693 1180L766 1145M693 1180L702 1216M693 1180L725 1278M766 1145L821 1190M766 1145L702 1216M821 1190L887 1146M821 1190L829 1277M821 1190L848 1286M887 1146L931 1211M887 1146L979 1213M1016 1168L1079 1139M1016 1168L931 1211M1016 1168L979 1213M1016 1168L1042 1202M1079 1139L1042 1202M1199 1186L1206 1131M1199 1186L1305 1160M1199 1186L1139 1263M1199 1186L1269 1250M1206 1131L1305 1160M1305 1160L1269 1250M1305 1160L1370 1204M1412 1156L1495 1191M1412 1156L1370 1204M1412 1156L1486 1240M1495 1191L1587 1131M1495 1191L1486 1240M1587 1131L1623 1170M1587 1131L1616 1220M1623 1170L1584 1255M1623 1170L1616 1220M1754 1127L1789 1152M1754 1127L1733 1201M1789 1152L1733 1201M1789 1152L1868 1221M1904 1168L1968 1194M1904 1168L2019 1184M1904 1168L1868 1221M1904 1168L1931 1225M1968 1194L2019 1184M1968 1194L1931 1225M1968 1194L2013 1279M2146 1192L2193 1171M2146 1192L2148 1207M2146 1192L2180 1235M2193 1171L2148 1207M2193 1171L2180 1235M2193 1171L2240 1256M2300 1126L2340 1159M2340 1159L2415 1191M2340 1159L2392 1233M2340 1159L2405 1214M2415 1191L2511 1139M2415 1191L2392 1233M2415 1191L2405 1214M63 1240L121 1219M63 1240L125 1320M63 1240L-31 1297M2623 1240L2529 1297M121 1219L125 1320M232 1252L274 1258M232 1252L195 1280M232 1252L261 1286M274 1258L195 1280M274 1258L261 1286M398 1277L445 1231M398 1277L372 1327M398 1277L427 1293M398 1277L497 1280M398 1277L370 1388M445 1231L427 1293M445 1231L497 1280M556 1206L565 1216M556 1206L497 1280M565 1216L497 1280M702 1216L725 1278M702 1216L746 1287M725 1278L829 1277M725 1278L669 1323M725 1278L746 1287M829 1277L746 1287M829 1277L848 1286M829 1277L892 1344M931 1211L979 1213M931 1211L848 1286M979 1213L1042 1202M979 1213L1026 1280M1042 1202L1026 1280M1042 1202L1045 1297M1139 1263L1045 1297M1139 1263L1171 1355M1269 1250L1355 1276M1269 1250L1257 1334M1355 1276L1370 1204M1355 1276L1257 1334M1355 1276L1332 1351M1355 1276L1411 1294M1370 1204L1411 1294M1486 1240L1411 1294M1486 1240L1517 1315M1584 1255L1616 1220M1584 1255L1517 1315M1584 1255L1587 1319M1584 1255L1625 1298M1616 1220L1625 1298M1733 1201L1796 1278M1733 1201L1730 1284M1796 1278L1868 1221M1796 1278L1730 1284M1796 1278L1788 1335M1796 1278L1884 1306M1868 1221L1931 1225M1868 1221L1884 1306M1931 1225L1884 1306M1931 1225L1939 1306M2013 1279L1939 1306M2013 1279L2051 1307M2013 1279L2089 1300M2013 1279L2066 1364M2148 1207L2180 1235M2148 1207L2240 1256M2180 1235L2240 1256M2180 1235L2223 1331M2240 1256L2223 1331M2240 1256L2298 1292M2392 1233L2405 1214M2392 1233L2491 1273M2392 1233L2365 1303M2405 1214L2491 1273M2405 1214L2365 1303M2491 1273L2581 1340M2491 1273L2474 1309M2491 1273L2529 1297M-69 1273L21 1340M21 1340L-31 1297M21 1340L31 1384M21 1340L-18 1411M2581 1340L2529 1297M2581 1340L2542 1411M125 1320L195 1280M125 1320L152 1385M195 1280L261 1286M195 1280L247 1361M261 1286L247 1361M372 1327L427 1293M372 1327L370 1388M372 1327L449 1394M427 1293L497 1280M427 1293L370 1388M579 1341L669 1323M579 1341L485 1392M579 1341L594 1408M669 1323L746 1287M669 1323L740 1412M746 1287L848 1286M848 1286L892 1344M892 1344L874 1438M892 1344L932 1399M892 1344L965 1365M1026 1280L1045 1297M1026 1280L965 1365M1026 1280L1066 1362M1045 1297L1066 1362M1171 1355L1257 1334M1171 1355L1168 1435M1171 1355L1277 1380M1257 1334L1332 1351M1257 1334L1277 1380M1332 1351L1277 1380M1332 1351L1340 1421M1332 1351L1431 1386M1411 1294L1431 1386M1517 1315L1587 1319M1517 1315L1515 1379M1587 1319L1625 1298M1587 1319L1515 1379M1587 1319L1596 1364M1625 1298L1730 1284M1625 1298L1596 1364M1730 1284L1788 1335M1730 1284L1742 1375M1788 1335L1884 1306M1788 1335L1742 1375M1788 1335L1833 1428M1884 1306L1939 1306M1939 1306L2051 1307M2051 1307L2089 1300M2051 1307L2066 1364M2051 1307L2107 1381M2089 1300L2066 1364M2089 1300L2107 1381M2223 1331L2298 1292M2223 1331L2194 1373M2223 1331L2300 1431M2298 1292L2365 1303M2298 1292L2300 1431M2298 1292L2371 1395M2365 1303L2474 1309M2365 1303L2371 1395M2474 1309L2529 1297M2529 1297L2591 1384M-31 1297L31 1384M31 1384L152 1385M31 1384L-18 1411M2591 1384L2542 1411M152 1385L176 1420M152 1385L247 1361M176 1420L247 1361M370 1388L449 1394M449 1394L485 1392M485 1392L594 1408M594 1408L658 1439M658 1439L740 1412M874 1438L932 1399M932 1399L965 1365M965 1365L1066 1362M1168 1435L1277 1380M1277 1380L1340 1421M1340 1421L1431 1386M1431 1386L1515 1379M1515 1379L1596 1364M1515 1379L1617 1414M1596 1364L1617 1414M1742 1375L1833 1428M1742 1375L1857 1419M1833 1428L1857 1419M1857 1419L1973 1432M1973 1432L2066 1364M2066 1364L2107 1381M2107 1381L2194 1373M2300 1431L2371 1395M2300 1431L2421 1433M2371 1395L2421 1433"/></svg>