<svg xmlns="http://www.w3.org/2000/svg" width="2560" height="1440" fill="#fff"><circle cx="8" cy="28" r="5"/><circle cx="128" cy="25" r="5"/><circle cx="197" cy="79" r="4"/><circle cx="240" cy="75" r="6"/><circle cx="365" cy="55" r="5"/><circle cx="432" cy="18" r="4"/><circle cx="526" cy="44" r="5"/><circle cx="611" cy="5" r="5"/><circle cx="695" cy="69" r="4"/><circle cx="800" cy="74" r="5"/><circle cx="842" cy="2" r="6"/><circle cx="842" cy="1442" r="6"/><circle cx="933" cy="58" r="5"/><circle cx="967" cy="16" r="5"/><circle cx="1073" cy="66" r="4"/><circle cx="1161" cy="54" r="5"/><circle cx="1243" cy="56" r="5"/><circle cx="1358" cy="79" r="5"/><circle cx="1384" cy="62" r="4"/><circle cx="1507" cy="72" r="6"/><circle cx="1528" cy="44" r="4"/><circle cx="1657" cy="24" r="5"/><circle cx="1750" cy="58" r="6"/><circle cx="1768" cy="31" r="5"/><circle cx="1912" cy="74" r="5"/><circle cx="1925" cy="50" r="6"/><circle cx="2066" cy="41" r="4"/><circle cx="2151" cy="79" r="6"/><circle cx="2184" cy="34" r="5"/><circle cx="2301" cy="40" r="4"/><circle cx="2320" cy="33" r="4"/><circle cx="2477" cy="77" r="5"/><circle cx="2524" cy="12" r="4"/><circle cx="19" cy="155" r="5"/><circle cx="132" cy="135" r="6"/><circle cx="204" cy="130" r="4"/><circle cx="268" cy="131" r="5"/><circle cx="336" cy="119" r="4"/><circle cx="432" cy="92" r="5"/><circle cx="504" cy="146" r="4"/><circle cx="589" cy="93" r="4"/><circle cx="642" cy="102" r="4"/><circle cx="759" cy="119" r="5"/><circle cx="842" cy="154" r="5"/><circle cx="909" cy="144" r="4"/><circle cx="1030" cy="91" r="5"/><circle cx="1098" cy="145" r="5"/><circle cx="1184" cy="142" r="5"/><circle cx="1201" cy="96" r="4"/><circle cx="1283" cy="82" r="6"/><circle cx="1416" cy="100" r="5"/><circle cx="1484" cy="132" r="6"/><circle cx="1573" cy="100" r="4"/><circle cx="1650" cy="124" r="5"/><circle cx="1733" cy="157" r="5"/><circle cx="1813" cy="138" r="5"/><circle cx="1866" cy="123" r="5"/><circle cx="1990" cy="146" r="5"/><circle cx="2047" cy="87" r="6"/><circle cx="2109" cy="135" r="6"/><circle cx="2189" cy="96" r="4"/><circle cx="2246" cy="98" r="6"/><circle cx="2328" cy="151" r="5"/><circle cx="2449" cy="139" r="5"/><circle cx="2556" cy="103" r="4"/><circle cx="45" cy="200" r="6"/><circle cx="127" cy="185" r="5"/><circle cx="237" cy="223" r="5"/><circle cx="291" cy="184" r="4"/><circle cx="364" cy="222" r="5"/><circle cx="429" cy="171" r="6"/><circle cx="491" cy="195" r="6"/><circle cx="624" cy="210" r="5"/><circle cx="675" cy="176" r="4"/><circle cx="787" cy="219" r="5"/><circle cx="813" cy="166" r="5"/><circle cx="882" cy="206" r="5"/><circle cx="982" cy="179" r="4"/><circle cx="1042" cy="182" r="4"/><circle cx="1137" cy="188" r="5"/><circle cx="1247" cy="167" r="6"/><circle cx="1312" cy="176" r="5"/><circle cx="1371" cy="236" r="5"/><circle cx="1487" cy="187" r="4"/><circle cx="1525" cy="192" r="6"/><circle cx="1678" cy="231" r="5"/><circle cx="1713" cy="238" r="5"/><circle cx="1763" cy="228" r="6"/><circle cx="1849" cy="238" r="4"/><circle cx="1925" cy="191" r="6"/><circle cx="2019" cy="232" r="5"/><circle cx="2109" cy="224" r="5"/><circle cx="2206" cy="169" r="5"/><circle cx="2263" cy="212" r="6"/><circle cx="2322" cy="170" r="5"/><circle cx="2430" cy="188" r="4"/><circle cx="2521" cy="183" r="5"/><circle cx="13" cy="293" r="5"/><circle cx="146" cy="249" r="6"/><circle cx="238" cy="249" r="5"/><circle cx="261" cy="248" r="5"/><circle cx="396" cy="260" r="5"/><circle cx="429" cy="259" r="5"/><circle cx="528" cy="294" r="6"/><circle cx="637" cy="275" r="4"/><circle cx="689" cy="247" r="4"/><circle cx="757" cy="310" r="4"/><circle cx="870" cy="278" r="6"/><circle cx="944" cy="269" r="5"/><circle cx="978" cy="295" r="4"/><circle cx="1060" cy="267" r="5"/><circle cx="1189" cy="304" r="4"/><circle cx="1210" cy="261" r="5"/><circle cx="1332" cy="281" r="6"/><circle cx="1366" cy="294" r="5"/><circle cx="1451" cy="313" r="4"/><circle cx="1529" cy="241" r="5"/><circle cx="1663" cy="297" r="5"/><circle cx="1746" cy="281" r="4"/><circle cx="1776" cy="311" r="5"/><circle cx="1882" cy="276" r="5"/><circle cx="1937" cy="242" r="5"/><circle cx="2010" cy="245" r="5"/><circle cx="2123" cy="273" r="6"/><circle cx="2196" cy="308" r="4"/><circle cx="2300" cy="304" r="5"/><circle cx="2390" cy="264" r="5"/><circle cx="2401" cy="255" r="4"/><circle cx="2520" cy="266" r="6"/><circle cx="2" cy="352" r="5"/><circle cx="2562" cy="352" r="5"/><circle cx="104" cy="399" r="5"/><circle cx="200" cy="328" r="6"/><circle cx="252" cy="354" r="6"/><circle cx="391" cy="347" r="6"/><circle cx="450" cy="383" r="5"/><circle cx="481" cy="350" r="5"/><circle cx="571" cy="375" r="5"/><circle cx="708" cy="386" r="5"/><circle cx="738" cy="343" r="4"/><circle cx="862" cy="320" r="6"/><circle cx="941" cy="339" r="6"/><circle cx="1032" cy="389" r="4"/><circle cx="1059" cy="333" r="5"/><circle cx="1177" cy="370" r="4"/><circle cx="1234" cy="369" r="5"/><circle cx="1345" cy="353" r="4"/><circle cx="1365" cy="363" r="5"/><circle cx="1514" cy="399" r="4"/><circle cx="1539" cy="339" r="5"/><circle cx="1634" cy="382" r="4"/><circle cx="1741" cy="373" r="5"/><circle cx="1794" cy="361" r="5"/><circle cx="1891" cy="370" r="5"/><circle cx="1986" cy="368" r="5"/><circle cx="2053" cy="348" r="4"/><circle cx="2152" cy="345" r="5"/><circle cx="2188" cy="382" r="5"/><circle cx="2290" cy="340" r="5"/><circle cx="2397" cy="335" r="5"/><circle cx="2449" cy="337" r="6"/><circle cx="2536" cy="355" r="6"/><circle cx="68" cy="410" r="6"/><circle cx="112" cy="460" r="4"/><circle cx="213" cy="422" r="5"/><circle cx="252" cy="466" r="5"/><circle cx="322" cy="418" r="5"/><circle cx="445" cy="468" r="4"/><circle cx="496" cy="479" r="5"/><circle cx="609" cy="459" r="6"/><circle cx="703" cy="410" r="4"/><circle cx="721" cy="475" r="6"/><circle cx="835" cy="453" r="5"/><circle cx="913" cy="446" r="5"/><circle cx="995" cy="414" r="4"/><circle cx="1064" cy="467" r="6"/><circle cx="1128" cy="474" r="5"/><circle cx="1235" cy="427" r="5"/><circle cx="1305" cy="421" r="6"/><circle cx="1398" cy="439" r="4"/><circle cx="1445" cy="464" r="5"/><circle cx="1557" cy="415" r="6"/><circle cx="1622" cy="401" r="6"/><circle cx="1690" cy="430" r="6"/><circle cx="1813" cy="433" r="4"/><circle cx="1844" cy="450" r="6"/><circle cx="1950" cy="426" r="5"/><circle cx="2035" cy="434" r="4"/><circle cx="2107" cy="417" r="6"/><circle cx="2234" cy="444" r="4"/><circle cx="2276" cy="410" r="6"/><circle cx="2378" cy="478" r="5"/><circle cx="2405" cy="462" r="5"/><circle cx="2516" cy="400" r="4"/><circle cx="71" cy="486" r="5"/><circle cx="154" cy="508" r="5"/><circle cx="190" cy="492" r="6"/><circle cx="256" cy="525" r="6"/><circle cx="338" cy="497" r="5"/><circle cx="477" cy="550" r="5"/><circle cx="529" cy="533" r="4"/><circle cx="576" cy="495" r="6"/><circle cx="672" cy="528" r="6"/><circle cx="792" cy="482" r="6"/><circle cx="857" cy="543" r="6"/><circle cx="926" cy="497" r="5"/><circle cx="965" cy="538" r="6"/><circle cx="1066" cy="517" r="6"/><circle cx="1172" cy="508" r="4"/><circle cx="1221" cy="499" r="6"/><circle cx="1335" cy="522" r="5"/><circle cx="1430" cy="515" r="5"/><circle cx="1449" cy="523" r="5"/><circle cx="1581" cy="552" r="5"/><circle cx="1644" cy="558" r="5"/><circle cx="1733" cy="554" r="4"/><circle cx="1820" cy="500" r="5"/><circle cx="1920" cy="505" r="4"/><circle cx="1937" cy="545" r="4"/><circle cx="2017" cy="556" r="4"/><circle cx="2142" cy="545" r="6"/><circle cx="2231" cy="503" r="5"/><circle cx="2290" cy="483" r="5"/><circle cx="2379" cy="527" r="6"/><circle cx="2412" cy="499" r="5"/><circle cx="2494" cy="538" r="6"/><circle cx="28" cy="589" r="5"/><circle cx="151" cy="627" r="6"/><circle cx="220" cy="589" r="6"/><circle cx="309" cy="630" r="5"/><circle cx="359" cy="602" r="6"/><circle cx="402" cy="619" r="5"/><circle cx="498" cy="619" r="6"/><circle cx="626" cy="606" r="4"/><circle cx="711" cy="599" r="5"/><circle cx="761" cy="612" r="5"/><circle cx="853" cy="608" r="5"/><circle cx="953" cy="571" r="4"/><circle cx="1018" cy="633" r="4"/><circle cx="1081" cy="560" r="5"/><circle cx="1154" cy="584" r="5"/><circle cx="1254" cy="632" r="5"/><circle cx="1322" cy="595" r="6"/><circle cx="1363" cy="584" r="5"/><circle cx="1486" cy="578" r="4"/><circle cx="1545" cy="618" r="5"/><circle cx="1658" cy="605" r="5"/><circle cx="1729" cy="561" r="4"/><circle cx="1821" cy="595" r="5"/><circle cx="1898" cy="609" r="5"/><circle cx="1972" cy="588" r="6"/><circle cx="2019" cy="594" r="6"/><circle cx="2155" cy="585" r="6"/><circle cx="2225" cy="562" r="4"/><circle cx="2275" cy="593" r="5"/><circle cx="2388" cy="639" r="5"/><circle cx="2448" cy="603" r="6"/><circle cx="2524" cy="561" r="4"/><circle cx="37" cy="693" r="5"/><circle cx="103" cy="643" r="5"/><circle cx="215" cy="669" r="4"/><circle cx="272" cy="708" r="4"/><circle cx="391" cy="705" r="5"/><circle cx="441" cy="654" r="6"/><circle cx="546" cy="647" r="4"/><circle cx="630" cy="681" r="5"/><circle cx="696" cy="665" r="4"/><circle cx="784" cy="672" r="5"/><circle cx="860" cy="700" r="4"/><circle cx="928" cy="713" r="5"/><circle cx="1040" cy="660" r="4"/><circle cx="1097" cy="691" r="5"/><circle cx="1168" cy="666" r="5"/><circle cx="1219" cy="689" r="5"/><circle cx="1348" cy="681" r="5"/><circle cx="1419" cy="687" r="4"/><circle cx="1473" cy="649" r="5"/><circle cx="1536" cy="698" r="4"/><circle cx="1650" cy="712" r="5"/><circle cx="1738" cy="666" r="5"/><circle cx="1838" cy="649" r="6"/><circle cx="1907" cy="654" r="5"/><circle cx="1952" cy="695" r="5"/><circle cx="2036" cy="684" r="5"/><circle cx="2108" cy="671" r="5"/><circle cx="2185" cy="686" r="5"/><circle cx="2265" cy="707" r="5"/><circle cx="2376" cy="711" r="4"/><circle cx="2402" cy="688" r="6"/><circle cx="2514" cy="676" r="4"/><circle cx="21" cy="755" r="4"/><circle cx="95" cy="751" r="5"/><circle cx="219" cy="720" r="5"/><circle cx="270" cy="731" r="4"/><circle cx="357" cy="747" r="5"/><circle cx="426" cy="786" r="5"/><circle cx="518" cy="797" r="6"/><circle cx="613" cy="799" r="4"/><circle cx="661" cy="755" r="5"/><circle cx="723" cy="798" r="6"/><circle cx="835" cy="736" r="5"/><circle cx="941" cy="771" r="5"/><circle cx="961" cy="793" r="5"/><circle cx="1096" cy="750" r="4"/><circle cx="1122" cy="769" r="4"/><circle cx="1214" cy="799" r="5"/><circle cx="1340" cy="738" r="5"/><circle cx="1382" cy="731" r="4"/><circle cx="1514" cy="721" r="6"/><circle cx="1576" cy="736" r="5"/><circle cx="1627" cy="737" r="5"/><circle cx="1719" cy="759" r="4"/><circle cx="1824" cy="755" r="5"/><circle cx="1846" cy="772" r="6"/><circle cx="1933" cy="758" r="6"/><circle cx="2006" cy="780" r="5"/><circle cx="2110" cy="791" r="4"/><circle cx="2162" cy="772" r="4"/><circle cx="2318" cy="745" r="6"/><circle cx="2321" cy="800" r="5"/><circle cx="2406" cy="724" r="5"/><circle cx="2548" cy="750" r="5"/><circle cx="15" cy="871" r="5"/><circle cx="159" cy="849" r="5"/><circle cx="165" cy="866" r="5"/><circle cx="285" cy="868" r="6"/><circle cx="334" cy="803" r="4"/><circle cx="464" cy="807" r="4"/><circle cx="519" cy="802" r="6"/><circle cx="625" cy="871" r="4"/><circle cx="649" cy="810" r="6"/><circle cx="793" cy="811" r="4"/><circle cx="837" cy="863" r="4"/><circle cx="935" cy="876" r="6"/><circle cx="1032" cy="879" r="5"/><circle cx="1095" cy="842" r="5"/><circle cx="1151" cy="816" r="5"/><circle cx="1203" cy="815" r="5"/><circle cx="1308" cy="831" r="4"/><circle cx="1373" cy="811" r="5"/><circle cx="1486" cy="856" r="6"/><circle cx="1592" cy="840" r="5"/><circle cx="1648" cy="843" r="5"/><circle cx="1734" cy="826" r="6"/><circle cx="1827" cy="866" r="4"/><circle cx="1854" cy="841" r="5"/><circle cx="1968" cy="805" r="5"/><circle cx="2068" cy="806" r="6"/><circle cx="2085" cy="836" r="5"/><circle cx="2171" cy="837" r="5"/><circle cx="2242" cy="804" r="5"/><circle cx="2336" cy="809" r="5"/><circle cx="2414" cy="801" r="6"/><circle cx="2518" cy="801" r="5"/><circle cx="4" cy="924" r="5"/><circle cx="2564" cy="924" r="5"/><circle cx="129" cy="915" r="5"/><circle cx="223" cy="889" r="6"/><circle cx="253" cy="887" r="4"/><circle cx="320" cy="923" r="6"/><circle cx="440" cy="900" r="6"/><circle cx="497" cy="889" r="5"/><circle cx="569" cy="919" r="5"/><circle cx="654" cy="930" r="6"/><circle cx="791" cy="932" r="5"/><circle cx="833" cy="929" r="5"/><circle cx="923" cy="902" r="5"/><circle cx="1031" cy="899" r="4"/><circle cx="1077" cy="939" r="4"/><circle cx="1147" cy="946" r="5"/><circle cx="1263" cy="942" r="5"/><circle cx="1292" cy="925" r="5"/><circle cx="1379" cy="950" r="4"/><circle cx="1519" cy="890" r="5"/><circle cx="1539" cy="888" r="5"/><circle cx="1639" cy="900" r="6"/><circle cx="1756" cy="906" r="5"/><circle cx="1813" cy="892" r="5"/><circle cx="1845" cy="896" r="6"/><circle cx="1932" cy="940" r="6"/><circle cx="2007" cy="894" r="6"/><circle cx="2144" cy="933" r="5"/><circle cx="2207" cy="938" r="5"/><circle cx="2294" cy="903" r="6"/><circle cx="2354" cy="887" r="5"/><circle cx="2464" cy="956" r="5"/><circle cx="2553" cy="939" r="5"/><circle cx="71" cy="1032" r="6"/><circle cx="129" cy="1018" r="4"/><circle cx="225" cy="1023" r="6"/><circle cx="303" cy="1030" r="5"/><circle cx="396" cy="969" r="5"/><circle cx="423" cy="1027" r="4"/><circle cx="535" cy="1009" r="6"/><circle cx="592" cy="1016" r="5"/><circle cx="652" cy="1037" r="4"/><circle cx="782" cy="983" r="6"/><circle cx="825" cy="1005" r="5"/><circle cx="956" cy="1015" r="4"/><circle cx="961" cy="964" r="5"/><circle cx="1091" cy="973" r="5"/><circle cx="1179" cy="1013" r="6"/><circle cx="1271" cy="1000" r="5"/><circle cx="1342" cy="1018" r="4"/><circle cx="1382" cy="975" r="6"/><circle cx="1506" cy="981" r="5"/><circle cx="1585" cy="1039" r="6"/><circle cx="1656" cy="1005" r="5"/><circle cx="1744" cy="977" r="6"/><circle cx="1790" cy="987" r="6"/><circle cx="1911" cy="964" r="5"/><circle cx="1972" cy="1009" r="5"/><circle cx="2028" cy="972" r="5"/><circle cx="2128" cy="1034" r="5"/><circle cx="2224" cy="995" r="5"/><circle cx="2252" cy="985" r="5"/><circle cx="2383" cy="1031" r="4"/><circle cx="2415" cy="1007" r="5"/><circle cx="2495" cy="1005" r="4"/><circle cx="30" cy="1107" r="6"/><circle cx="85" cy="1097" r="6"/><circle cx="215" cy="1075" r="5"/><circle cx="245" cy="1101" r="5"/><circle cx="380" cy="1046" r="5"/><circle cx="443" cy="1099" r="5"/><circle cx="500" cy="1058" r="6"/><circle cx="605" cy="1043" r="6"/><circle cx="705" cy="1081" r="5"/><circle cx="724" cy="1079" r="5"/><circle cx="812" cy="1085" r="4"/><circle cx="959" cy="1057" r="6"/><circle cx="995" cy="1090" r="4"/><circle cx="1076" cy="1043" r="5"/><circle cx="1129" cy="1120" r="6"/><circle cx="1220" cy="1087" r="5"/><circle cx="1292" cy="1112" r="4"/><circle cx="1419" cy="1113" r="4"/><circle cx="1472" cy="1118" r="6"/><circle cx="1555" cy="1065" r="5"/><circle cx="1647" cy="1045" r="6"/><circle cx="1694" cy="1042" r="5"/><circle cx="1780" cy="1059" r="5"/><circle cx="1889" cy="1119" r="6"/><circle cx="1928" cy="1084" r="5"/><circle cx="2031" cy="1080" r="6"/><circle cx="2145" cy="1068" r="4"/><circle cx="2178" cy="1095" r="5"/><circle cx="2261" cy="1119" r="5"/><circle cx="2359" cy="1045" r="6"/><circle cx="2403" cy="1069" r="4"/><circle cx="2533" cy="1093" r="5"/><circle cx="76" cy="1179" r="5"/><circle cx="156" cy="1139" r="6"/><circle cx="168" cy="1140" r="4"/><circle cx="265" cy="1165" r="5"/><circle cx="399" cy="1151" r="5"/><circle cx="419" cy="1189" r="5"/><circle cx="495" cy="1177" r="6"/><circle cx="602" cy="1177" r="6"/><circle cx="669" cy="1136" r="4"/><circle cx="795" cy="1193" r="4"/><circle cx="849" cy="1167" r="5"/><circle cx="904" cy="1189" r="4"/><circle cx="984" cy="1172" r="6"/><circle cx="1097" cy="1198" r="4"/><circle cx="1176" cy="1162" r="6"/><circle cx="1249" cy="1146" r="6"/><circle cx="1310" cy="1154" r="5"/><circle cx="1410" cy="1187" r="5"/><circle cx="1477" cy="1125" r="5"/><circle cx="1576" cy="1181" r="6"/><circle cx="1636" cy="1187" r="5"/><circle cx="1758" cy="1170" r="6"/><circle cx="1831" cy="1143" r="5"/><circle cx="1878" cy="1129" r="6"/><circle cx="1999" cy="1146" r="6"/><circle cx="2004" cy="1169" r="5"/><circle cx="2109" cy="1143" r="6"/><circle cx="2202" cy="1195" r="5"/><circle cx="2289" cy="1164" r="4"/><circle cx="2338" cy="1200" r="4"/><circle cx="2431" cy="1151" r="5"/><circle cx="2531" cy="1173" r="5"/><circle cx="27" cy="1278" r="4"/><circle cx="89" cy="1252" r="5"/><circle cx="183" cy="1237" r="6"/><circle cx="247" cy="1221" r="4"/><circle cx="365" cy="1215" r="6"/><circle cx="447" cy="1268" r="6"/><circle cx="533" cy="1200" r="5"/><circle cx="617" cy="1206" r="6"/><circle cx="709" cy="1228" r="5"/><circle cx="751" cy="1210" r="6"/><circle cx="847" cy="1208" r="5"/><circle cx="948" cy="1209" r="6"/><circle cx="988" cy="1230" r="6"/><circle cx="1083" cy="1260" r="4"/><circle cx="1158" cy="1253" r="5"/><circle cx="1239" cy="1206" r="5"/><circle cx="1290" cy="1265" r="5"/><circle cx="1396" cy="1250" r="5"/><circle cx="1456" cy="1251" r="4"/><circle cx="1533" cy="1220" r="6"/><circle cx="1605" cy="1249" r="5"/><circle cx="1757" cy="1260" r="4"/><circle cx="1793" cy="1278" r="6"/><circle cx="1854" cy="1216" r="5"/><circle cx="1946" cy="1210" r="5"/><circle cx="2073" cy="1242" r="5"/><circle cx="2110" cy="1200" r="4"/><circle cx="2211" cy="1222" r="6"/><circle cx="2259" cy="1255" r="4"/><circle cx="2366" cy="1216" r="4"/><circle cx="2445" cy="1203" r="6"/><circle cx="2515" cy="1227" r="5"/><circle cx="19" cy="1284" r="5"/><circle cx="84" cy="1317" r="4"/><circle cx="191" cy="1318" r="5"/><circle cx="242" cy="1304" r="4"/><circle cx="392" cy="1300" r="4"/><circle cx="431" cy="1296" r="5"/><circle cx="526" cy="1308" r="6"/><circle cx="620" cy="1328" r="5"/><circle cx="704" cy="1313" r="4"/><circle cx="782" cy="1321" r="5"/><circle cx="869" cy="1335" r="5"/><circle cx="937" cy="1302" r="4"/><circle cx="1019" cy="1290" r="4"/><circle cx="1061" cy="1310" r="6"/><circle cx="1134" cy="1358" r="5"/><circle cx="1234" cy="1282" r="5"/><circle cx="1314" cy="1296" r="4"/><circle cx="1419" cy="1311" r="5"/><circle cx="1512" cy="1285" r="5"/><circle cx="1563" cy="1280" r="4"/><circle cx="1642" cy="1319" r="6"/><circle cx="1757" cy="1288" r="5"/><circle cx="1828" cy="1342" r="5"/><circle cx="1893" cy="1290" r="4"/><circle cx="1973" cy="1300" r="6"/><circle cx="2008" cy="1295" r="6"/><circle cx="2134" cy="1300" r="4"/><circle cx="2236" cy="1335" r="6"/><circle cx="2275" cy="1320" r="5"/><circle cx="2385" cy="1323" r="4"/><circle cx="2431" cy="1324" r="5"/><circle cx="2529" cy="1346" r="5"/><circle cx="44" cy="1371" r="4"/><circle cx="139" cy="1421" r="5"/><circle cx="229" cy="1380" r="6"/><circle cx="295" cy="1402" r="5"/><circle cx="360" cy="1390" r="5"/><circle cx="410" cy="1371" r="5"/><circle cx="548" cy="1437" r="4"/><circle cx="548" cy="-3" r="4"/><circle cx="589" cy="1375" r="4"/><circle cx="683" cy="1379" r="5"/><circle cx="746" cy="1432" r="5"/><circle cx="852" cy="1386" r="5"/><circle cx="924" cy="1431" r="5"/><circle cx="988" cy="1377" r="5"/><circle cx="1041" cy="1393" r="5"/><circle cx="1191" cy="1399" r="5"/><circle cx="1280" cy="1416" r="5"/><circle cx="1286" cy="1400" r="5"/><circle cx="1429" cy="1417" r="5"/><circle cx="1469" cy="1389" r="6"/><circle cx="1561" cy="1433" r="5"/><circle cx="1609" cy="1377" r="6"/><circle cx="1730" cy="1381" r="5"/><circle cx="1838" cy="1431" r="6"/><circle cx="1846" cy="1429" r="4"/><circle cx="1986" cy="1404" r="4"/><circle cx="2011" cy="1369" r="5"/><circle cx="2106" cy="1361" r="5"/><circle cx="2186" cy="1392" r="5"/><circle cx="2242" cy="1415" r="4"/><circle cx="2398" cy="1437" r="4"/><circle cx="2398" cy="-3" r="4"/><circle cx="2467" cy="1364" r="5"/><circle cx="2555" cy="1399" r="6"/><circle cx="-5" cy="1399" r="6"/><path stroke="#fff" d="M8 28L-83 77M8 28L-36 12M8 28L-4 103M8 28L44 -69M8 28L-5 -41M2568 28L2477 77M2568 28L2524 12M2568 28L2556 103M2568 28L2555 -41M8 1468L44 1371M8 1468L-5 1399M2568 1468L2555 1399M128 25L197 79M128 25L132 135M128 25L139 -19M128 25L229 -60M128 1465L139 1421M128 1465L229 1380M197 79L240 75M197 79L132 135M197 79L204 130M240 75L204 130M240 75L268 131M240 75L336 119M365 55L432 18M365 55L336 119M365 55L432 92M365 55L295 -38M365 55L360 -50M365 1495L295 1402M365 1495L360 1390M432 18L526 44M432 18L432 92M432 18L360 -50M432 18L410 -69M432 1458L360 1390M432 1458L410 1371M526 44L611 5M526 44L432 92M526 44L589 93M526 44L548 -3M526 1484L548 1437M611 5L589 93M611 5L548 -3M611 5L589 -65M611 5L683 -61M611 1445L548 1437M611 1445L589 1375M611 1445L683 1379M695 69L642 102M695 69L759 119M695 69L746 -8M695 1509L746 1432M800 74L842 2M800 74L759 119M800 74L813 166M800 74L746 -8M800 1514L746 1432M842 2L933 58M842 2L746 -8M842 2L852 -54M842 2L924 -9M842 1442L746 1432M842 1442L852 1386M842 1442L924 1431M933 58L967 16M933 58L909 144M933 58L1030 91M933 58L924 -9M933 1498L924 1431M967 16L1030 91M967 16L924 -9M967 16L988 -63M967 16L1041 -47M967 1456L924 1431M967 1456L988 1377M967 1456L1041 1393M1073 66L1161 54M1073 66L1030 91M1073 66L1098 145M1161 54L1243 56M1161 54L1184 142M1161 54L1201 96M1161 54L1191 -41M1161 1494L1191 1399M1243 56L1201 96M1243 56L1283 82M1243 56L1280 -24M1243 56L1286 -40M1243 1496L1280 1416M1243 1496L1286 1400M1358 79L1384 62M1358 79L1283 82M1358 79L1416 100M1358 79L1312 176M1358 79L1429 -23M1358 1519L1429 1417M1384 62L1416 100M1384 62L1429 -23M1384 1502L1429 1417M1507 72L1528 44M1507 72L1416 100M1507 72L1484 132M1507 72L1573 100M1507 72L1561 -7M1507 1512L1561 1433M1528 44L1573 100M1528 44L1469 -51M1528 44L1561 -7M1528 1484L1469 1389M1528 1484L1561 1433M1657 24L1750 58M1657 24L1650 124M1657 24L1561 -7M1657 24L1609 -63M1657 24L1730 -59M1657 1464L1561 1433M1657 1464L1609 1377M1657 1464L1730 1381M1750 58L1768 31M1750 58L1813 138M1750 58L1838 -9M1750 1498L1838 1431M1768 31L1730 -59M1768 31L1838 -9M1768 31L1846 -11M1768 1471L1730 1381M1768 1471L1838 1431M1768 1471L1846 1429M1912 74L1925 50M1912 74L1866 123M1912 74L1990 146M1925 50L1866 123M1925 50L1838 -9M1925 50L1846 -11M1925 50L1986 -36M1925 1490L1838 1431M1925 1490L1846 1429M1925 1490L1986 1404M2066 41L2047 87M2151 79L2184 34M2151 79L2047 87M2151 79L2109 135M2151 79L2189 96M2151 79L2246 98M2184 34L2189 96M2184 34L2246 98M2184 34L2186 -48M2184 34L2242 -25M2184 1474L2186 1392M2184 1474L2242 1415M2301 40L2320 33M2301 40L2246 98M2301 40L2242 -25M2301 40L2398 -3M2301 1480L2242 1415M2301 1480L2398 1437M2320 33L2398 -3M2320 1473L2398 1437M2477 77L2524 12M2477 77L2449 139M2477 77L2556 103M2524 12L2555 -41M2524 1452L2555 1399M19 155L-4 103M19 155L45 200M19 155L127 185M19 155L-39 183M2579 155L2556 103M2579 155L2521 183M132 135L204 130M132 135L45 200M132 135L127 185M204 130L268 131M204 130L127 185M268 131L336 119M268 131L237 223M268 131L291 184M336 119L291 184M432 92L504 146M432 92L429 171M504 146L589 93M504 146L429 171M504 146L491 195M589 93L642 102M589 93L548 -3M589 1533L548 1437M642 102L624 210M642 102L675 176M759 119L842 154M759 119L813 166M842 154L909 144M842 154L787 219M842 154L813 166M842 154L882 206M909 144L882 206M909 144L982 179M1030 91L1098 145M1030 91L1042 182M1098 145L1184 142M1098 145L1042 182M1098 145L1137 188M1184 142L1201 96M1184 142L1137 188M1184 142L1247 167M1201 96L1283 82M1201 96L1247 167M1283 82L1247 167M1283 82L1312 176M1416 100L1484 132M1416 100L1429 -23M1416 1540L1429 1417M1484 132L1573 100M1484 132L1487 187M1484 132L1525 192M1573 100L1650 124M1573 100L1525 192M1650 124L1733 157M1733 157L1813 138M1733 157L1678 231M1733 157L1713 238M1733 157L1763 228M1813 138L1866 123M1866 123L1925 191M1990 146L2047 87M1990 146L1925 191M1990 146L2019 232M1990 146L2010 245M2047 87L2109 135M2109 135L2189 96M2109 135L2109 224M2109 135L2206 169M2189 96L2246 98M2189 96L2206 169M2246 98L2206 169M2328 151L2449 139M2328 151L2263 212M2328 151L2322 170M2449 139L2430 188M2449 139L2521 183M2556 103L2521 183M45 200L127 185M45 200L-39 183M45 200L13 293M2605 200L2521 183M127 185L146 249M237 223L291 184M237 223L146 249M237 223L238 249M237 223L261 248M291 184L364 222M291 184L261 248M364 222L429 171M364 222L396 260M364 222L429 259M429 171L491 195M429 171L429 259M491 195L396 260M491 195L429 259M491 195L528 294M624 210L675 176M624 210L637 275M624 210L689 247M675 176L637 275M675 176L689 247M787 219L813 166M787 219L757 310M787 219L870 278M813 166L882 206M882 206L870 278M882 206L944 269M982 179L1042 182M1042 182L1137 188M1042 182L1060 267M1137 188L1210 261M1247 167L1312 176M1247 167L1210 261M1312 176L1371 236M1312 176L1332 281M1371 236L1332 281M1371 236L1366 294M1371 236L1451 313M1487 187L1525 192M1487 187L1529 241M1525 192L1529 241M1678 231L1713 238M1678 231L1763 228M1678 231L1663 297M1678 231L1746 281M1713 238L1763 228M1713 238L1663 297M1713 238L1746 281M1763 228L1746 281M1763 228L1776 311M1849 238L1925 191M1849 238L1882 276M1849 238L1937 242M1925 191L1882 276M1925 191L1937 242M2019 232L2109 224M2019 232L1937 242M2019 232L2010 245M2019 232L2123 273M2109 224L2206 169M2109 224L2010 245M2109 224L2123 273M2206 169L2263 212M2263 212L2322 170M2263 212L2300 304M2322 170L2430 188M2430 188L2390 264M2430 188L2401 255M2521 183L2520 266M13 293L-40 266M13 293L2 352M13 293L-24 355M2573 293L2520 266M2573 293L2536 355M146 249L238 249M146 249L200 328M238 249L261 248M238 249L200 328M238 249L252 354M261 248L200 328M261 248L252 354M396 260L429 259M396 260L391 347M396 260L481 350M429 259L391 347M528 294L637 275M528 294L450 383M528 294L481 350M528 294L571 375M637 275L689 247M689 247L757 310M689 247L738 343M757 310L708 386M757 310L738 343M757 310L862 320M870 278L944 269M870 278L862 320M870 278L941 339M944 269L978 295M944 269L862 320M944 269L941 339M978 295L1060 267M978 295L862 320M978 295L941 339M978 295L1059 333M1060 267L1059 333M1189 304L1210 261M1189 304L1177 370M1189 304L1234 369M1210 261L1234 369M1332 281L1366 294M1332 281L1345 353M1332 281L1365 363M1366 294L1451 313M1366 294L1345 353M1366 294L1365 363M1451 313L1529 241M1451 313L1539 339M1529 241L1539 339M1663 297L1746 281M1663 297L1634 382M1746 281L1776 311M1776 311L1882 276M1776 311L1741 373M1776 311L1794 361M1882 276L1937 242M1882 276L1891 370M1937 242L2010 245M2123 273L2196 308M2123 273L2053 348M2123 273L2152 345M2196 308L2152 345M2196 308L2188 382M2196 308L2290 340M2300 304L2390 264M2300 304L2290 340M2300 304L2397 335M2390 264L2401 255M2390 264L2397 335M2390 264L2449 337M2401 255L2397 335M2520 266L2562 352M2520 266L2449 337M2520 266L2536 355M-40 266L2 352M2 352L-24 355M2 352L68 410M2 352L-44 400M2562 352L2536 355M2562 352L2516 400M104 399L68 410M104 399L112 460M104 399L71 486M200 328L252 354M200 328L213 422M252 354L213 422M252 354L322 418M391 347L450 383M391 347L481 350M391 347L322 418M450 383L481 350M450 383L445 468M450 383L496 479M481 350L571 375M571 375L609 459M571 375L576 495M708 386L738 343M708 386L703 410M708 386L721 475M738 343L703 410M862 320L941 339M941 339L995 414M1032 389L1059 333M1032 389L995 414M1032 389L1064 467M1059 333L995 414M1177 370L1234 369M1177 370L1235 427M1234 369L1235 427M1234 369L1305 421M1345 353L1365 363M1345 353L1305 421M1365 363L1305 421M1365 363L1398 439M1514 399L1539 339M1514 399L1445 464M1514 399L1557 415M1514 399L1622 401M1539 339L1557 415M1539 339L1622 401M1634 382L1557 415M1634 382L1622 401M1634 382L1690 430M1741 373L1794 361M1741 373L1690 430M1741 373L1813 433M1794 361L1891 370M1794 361L1813 433M1794 361L1844 450M1891 370L1986 368M1891 370L1844 450M1891 370L1950 426M1986 368L2053 348M1986 368L1950 426M1986 368L2035 434M2053 348L2152 345M2053 348L2035 434M2053 348L2107 417M2152 345L2188 382M2152 345L2107 417M2188 382L2107 417M2188 382L2234 444M2188 382L2276 410M2290 340L2397 335M2290 340L2234 444M2290 340L2276 410M2397 335L2449 337M2449 337L2536 355M2449 337L2516 400M2536 355L2516 400M68 410L112 460M68 410L-44 400M68 410L71 486M2628 410L2516 400M112 460L71 486M112 460L154 508M112 460L190 492M213 422L252 466M213 422L190 492M252 466L322 418M252 466L190 492M252 466L256 525M252 466L338 497M322 418L338 497M445 468L496 479M445 468L338 497M445 468L477 550M445 468L529 533M496 479L477 550M496 479L529 533M496 479L576 495M609 459L703 410M609 459L721 475M609 459L576 495M609 459L672 528M703 410L721 475M703 410L792 482M721 475L672 528M721 475L792 482M835 453L913 446M835 453L792 482M835 453L857 543M835 453L926 497M913 446L995 414M913 446L926 497M913 446L965 538M995 414L1064 467M1064 467L1128 474M1064 467L1066 517M1064 467L1081 560M1128 474L1066 517M1128 474L1172 508M1128 474L1221 499M1128 474L1081 560M1235 427L1305 421M1235 427L1172 508M1235 427L1221 499M1305 421L1398 439M1398 439L1445 464M1398 439L1430 515M1398 439L1449 523M1445 464L1557 415M1445 464L1430 515M1445 464L1449 523M1557 415L1622 401M1622 401L1690 430M1690 430L1813 433M1813 433L1844 450M1813 433L1820 500M1844 450L1820 500M1844 450L1920 505M1950 426L2035 434M1950 426L1920 505M2035 434L2107 417M2107 417L2142 545M2234 444L2276 410M2234 444L2231 503M2234 444L2290 483M2276 410L2231 503M2276 410L2290 483M2378 478L2405 462M2378 478L2290 483M2378 478L2379 527M2378 478L2412 499M2405 462L2379 527M2405 462L2412 499M2405 462L2494 538M71 486L154 508M154 508L190 492M154 508L256 525M154 508L220 589M190 492L256 525M256 525L338 497M256 525L220 589M338 497L359 602M477 550L529 533M477 550L498 619M529 533L576 495M529 533L498 619M576 495L672 528M672 528L626 606M672 528L711 599M792 482L857 543M792 482L761 612M857 543L926 497M857 543L965 538M857 543L853 608M926 497L965 538M926 497L953 571M965 538L1066 517M965 538L953 571M1066 517L1081 560M1066 517L1154 584M1172 508L1221 499M1172 508L1154 584M1221 499L1335 522M1221 499L1154 584M1335 522L1322 595M1335 522L1363 584M1430 515L1449 523M1430 515L1363 584M1430 515L1486 578M1449 523L1363 584M1449 523L1486 578M1581 552L1644 558M1581 552L1486 578M1581 552L1545 618M1581 552L1658 605M1644 558L1733 554M1644 558L1658 605M1644 558L1729 561M1733 554L1820 500M1733 554L1658 605M1733 554L1729 561M1733 554L1821 595M1820 500L1920 505M1820 500L1821 595M1920 505L1937 545M1937 545L2017 556M1937 545L1898 609M1937 545L1972 588M1937 545L2019 594M2017 556L1972 588M2017 556L2019 594M2142 545L2231 503M2142 545L2155 585M2142 545L2225 562M2231 503L2290 483M2231 503L2225 562M2290 483L2379 527M2379 527L2412 499M2379 527L2448 603M2412 499L2494 538M2494 538L2588 589M2494 538L2448 603M2494 538L2524 561M-66 538L28 589M28 589L151 627M28 589L-36 561M28 589L103 643M2588 589L2524 561M151 627L220 589M151 627L103 643M151 627L215 669M151 627L219 720M220 589L309 630M220 589L215 669M309 630L359 602M309 630L402 619M309 630L272 708M359 602L402 619M359 602L391 705M359 602L441 654M402 619L498 619M402 619L391 705M402 619L441 654M498 619L441 654M498 619L546 647M626 606L711 599M626 606L546 647M626 606L630 681M711 599L761 612M711 599L696 665M761 612L853 608M761 612L696 665M761 612L784 672M853 608L953 571M853 608L784 672M853 608L860 700M953 571L1018 633M1018 633L1081 560M1018 633L928 713M1018 633L1040 660M1018 633L1097 691M1081 560L1154 584M1154 584L1168 666M1254 632L1322 595M1254 632L1168 666M1254 632L1219 689M1322 595L1363 584M1322 595L1348 681M1363 584L1348 681M1486 578L1545 618M1486 578L1473 649M1545 618L1473 649M1545 618L1536 698M1545 618L1514 721M1658 605L1729 561M1658 605L1738 666M1729 561L1738 666M1821 595L1898 609M1821 595L1838 649M1898 609L1972 588M1898 609L1838 649M1898 609L1907 654M1972 588L2019 594M1972 588L1907 654M2019 594L2036 684M2019 594L2108 671M2155 585L2225 562M2155 585L2275 593M2155 585L2108 671M2155 585L2185 686M2225 562L2275 593M2275 593L2185 686M2275 593L2265 707M2388 639L2448 603M2388 639L2376 711M2388 639L2402 688M2388 639L2406 724M2448 603L2524 561M2448 603L2402 688M37 693L103 643M37 693L-46 676M37 693L21 755M37 693L95 751M37 693L-12 750M2597 693L2514 676M2597 693L2548 750M103 643L95 751M215 669L272 708M215 669L219 720M215 669L270 731M272 708L219 720M272 708L270 731M272 708L357 747M391 705L441 654M391 705L357 747M391 705L426 786M441 654L546 647M546 647L630 681M630 681L696 665M630 681L661 755M696 665L784 672M696 665L661 755M784 672L860 700M784 672L835 736M860 700L928 713M860 700L835 736M860 700L941 771M928 713L835 736M928 713L941 771M928 713L961 793M1040 660L1097 691M1097 691L1168 666M1097 691L1096 750M1097 691L1122 769M1168 666L1219 689M1168 666L1096 750M1219 689L1214 799M1348 681L1419 687M1348 681L1340 738M1348 681L1382 731M1419 687L1473 649M1419 687L1340 738M1419 687L1382 731M1419 687L1514 721M1473 649L1536 698M1473 649L1514 721M1536 698L1514 721M1536 698L1576 736M1536 698L1627 737M1650 712L1738 666M1650 712L1576 736M1650 712L1627 737M1650 712L1719 759M1738 666L1838 649M1738 666L1719 759M1838 649L1907 654M1838 649L1824 755M1907 654L1952 695M1907 654L1933 758M1952 695L2036 684M1952 695L1933 758M1952 695L2006 780M1952 695L1968 805M2036 684L2108 671M2108 671L2185 686M2185 686L2265 707M2185 686L2162 772M2265 707L2318 745M2265 707L2242 804M2376 711L2402 688M2376 711L2318 745M2376 711L2406 724M2376 711L2414 801M2402 688L2406 724M2514 676L2581 755M2514 676L2548 750M-46 676L21 755M21 755L95 751M21 755L-12 750M21 755L-42 801M2581 755L2548 750M2581 755L2518 801M95 751L-12 750M2655 751L2548 750M219 720L270 731M270 731L357 747M270 731L334 803M357 747L426 786M357 747L334 803M426 786L518 797M426 786L464 807M426 786L519 802M518 797L613 799M518 797L464 807M518 797L519 802M518 797L497 889M613 799L661 755M613 799L519 802M613 799L625 871M613 799L649 810M661 755L723 798M661 755L649 810M723 798L625 871M723 798L649 810M723 798L793 811M835 736L941 771M835 736L793 811M941 771L961 793M941 771L935 876M961 793L935 876M1096 750L1122 769M1096 750L1095 842M1096 750L1151 816M1122 769L1095 842M1122 769L1151 816M1122 769L1203 815M1214 799L1151 816M1214 799L1203 815M1214 799L1308 831M1340 738L1382 731M1340 738L1308 831M1340 738L1373 811M1382 731L1373 811M1514 721L1576 736M1576 736L1627 737M1627 737L1719 759M1627 737L1648 843M1719 759L1734 826M1824 755L1846 772M1824 755L1854 841M1846 772L1933 758M1846 772L1827 866M1846 772L1854 841M1933 758L2006 780M1933 758L1968 805M2006 780L1968 805M2006 780L2068 806M2006 780L2085 836M2110 791L2162 772M2110 791L2068 806M2110 791L2085 836M2110 791L2171 837M2162 772L2171 837M2162 772L2242 804M2318 745L2321 800M2318 745L2406 724M2318 745L2336 809M2321 800L2242 804M2321 800L2336 809M2321 800L2414 801M2321 800L2354 887M2406 724L2414 801M2548 750L2518 801M15 871L-42 801M15 871L4 924M15 871L-7 939M2575 871L2518 801M2575 871L2553 939M159 849L165 866M159 849L129 915M159 849L223 889M159 849L253 887M165 866L285 868M165 866L129 915M165 866L223 889M165 866L253 887M285 868L334 803M285 868L223 889M285 868L253 887M285 868L320 923M464 807L519 802M464 807L440 900M464 807L497 889M519 802L497 889M625 871L649 810M625 871L569 919M625 871L654 930M649 810L654 930M793 811L837 863M837 863L791 932M837 863L833 929M837 863L923 902M935 876L1032 879M935 876L923 902M935 876L961 964M1032 879L1095 842M1032 879L1031 899M1032 879L1077 939M1095 842L1151 816M1095 842L1031 899M1151 816L1203 815M1203 815L1308 831M1308 831L1373 811M1308 831L1292 925M1373 811L1486 856M1486 856L1592 840M1486 856L1519 890M1486 856L1539 888M1592 840L1648 843M1592 840L1519 890M1592 840L1539 888M1592 840L1639 900M1648 843L1734 826M1648 843L1639 900M1734 826L1756 906M1827 866L1854 841M1827 866L1813 892M1827 866L1845 896M1854 841L1813 892M1854 841L1845 896M1968 805L2068 806M1968 805L2007 894M2068 806L2085 836M2068 806L2007 894M2085 836L2171 837M2085 836L2007 894M2171 837L2242 804M2171 837L2144 933M2336 809L2414 801M2336 809L2294 903M2336 809L2354 887M2414 801L2354 887M4 924L-96 956M4 924L-7 939M4 924L-65 1005M2564 924L2464 956M2564 924L2553 939M2564 924L2495 1005M129 915L129 1018M223 889L253 887M223 889L320 923M253 887L320 923M320 923L303 1030M320 923L396 969M440 900L497 889M440 900L396 969M497 889L569 919M569 919L654 930M569 919L535 1009M569 919L592 1016M791 932L833 929M791 932L782 983M791 932L825 1005M833 929L923 902M833 929L782 983M833 929L825 1005M923 902L961 964M1031 899L1077 939M1031 899L961 964M1031 899L1091 973M1077 939L1147 946M1077 939L1091 973M1147 946L1263 942M1147 946L1091 973M1147 946L1179 1013M1263 942L1292 925M1263 942L1271 1000M1263 942L1382 975M1292 925L1379 950M1292 925L1271 1000M1292 925L1382 975M1379 950L1342 1018M1379 950L1382 975M1519 890L1539 888M1519 890L1639 900M1519 890L1506 981M1539 888L1639 900M1539 888L1506 981M1639 900L1656 1005M1756 906L1813 892M1756 906L1744 977M1756 906L1790 987M1813 892L1845 896M1813 892L1790 987M1845 896L1932 940M1845 896L1911 964M1932 940L2007 894M1932 940L1911 964M1932 940L1972 1009M1932 940L2028 972M2007 894L2028 972M2144 933L2207 938M2144 933L2224 995M2207 938L2294 903M2207 938L2224 995M2207 938L2252 985M2294 903L2354 887M2294 903L2224 995M2294 903L2252 985M2464 956L2553 939M2464 956L2383 1031M2464 956L2415 1007M2464 956L2495 1005M2553 939L2631 1032M2553 939L2495 1005M-7 939L71 1032M71 1032L129 1018M71 1032L30 1107M71 1032L85 1097M71 1032L-27 1093M2631 1032L2533 1093M129 1018L225 1023M129 1018L85 1097M225 1023L303 1030M225 1023L215 1075M225 1023L245 1101M303 1030L215 1075M303 1030L245 1101M303 1030L380 1046M396 969L423 1027M396 969L380 1046M423 1027L535 1009M423 1027L380 1046M423 1027L443 1099M423 1027L500 1058M535 1009L592 1016M535 1009L500 1058M535 1009L605 1043M592 1016L652 1037M592 1016L500 1058M592 1016L605 1043M652 1037L605 1043M652 1037L705 1081M652 1037L724 1079M782 983L825 1005M782 983L724 1079M782 983L812 1085M825 1005L812 1085M956 1015L961 964M956 1015L959 1057M956 1015L995 1090M961 964L959 1057M1091 973L1179 1013M1091 973L1076 1043M1179 1013L1271 1000M1179 1013L1076 1043M1179 1013L1220 1087M1271 1000L1342 1018M1342 1018L1382 975M1342 1018L1292 1112M1382 975L1506 981M1506 981L1585 1039M1506 981L1555 1065M1585 1039L1656 1005M1585 1039L1555 1065M1585 1039L1647 1045M1585 1039L1694 1042M1656 1005L1744 977M1656 1005L1647 1045M1656 1005L1694 1042M1744 977L1790 987M1744 977L1694 1042M1744 977L1780 1059M1790 987L1780 1059M1911 964L1972 1009M1911 964L2028 972M1972 1009L2028 972M1972 1009L1928 1084M1972 1009L2031 1080M2028 972L2031 1080M2128 1034L2224 995M2128 1034L2145 1068M2128 1034L2178 1095M2224 995L2252 985M2252 985L2359 1045M2383 1031L2415 1007M2383 1031L2359 1045M2383 1031L2403 1069M2415 1007L2495 1005M2415 1007L2359 1045M2415 1007L2403 1069M2495 1005L2533 1093M30 1107L85 1097M30 1107L-27 1093M30 1107L76 1179M30 1107L-29 1173M2590 1107L2533 1093M2590 1107L2531 1173M85 1097L76 1179M85 1097L156 1139M215 1075L245 1101M215 1075L156 1139M215 1075L168 1140M245 1101L265 1165M380 1046L443 1099M380 1046L399 1151M443 1099L500 1058M443 1099L399 1151M443 1099L495 1177M500 1058L605 1043M605 1043L705 1081M705 1081L724 1079M705 1081L812 1085M705 1081L669 1136M724 1079L812 1085M724 1079L669 1136M812 1085L849 1167M959 1057L995 1090M959 1057L1076 1043M959 1057L984 1172M995 1090L1076 1043M995 1090L984 1172M1076 1043L1129 1120M1129 1120L1220 1087M1129 1120L1097 1198M1129 1120L1176 1162M1220 1087L1292 1112M1220 1087L1176 1162M1220 1087L1249 1146M1292 1112L1249 1146M1292 1112L1310 1154M1419 1113L1472 1118M1419 1113L1410 1187M1419 1113L1477 1125M1472 1118L1555 1065M1472 1118L1410 1187M1472 1118L1477 1125M1555 1065L1647 1045M1555 1065L1477 1125M1647 1045L1694 1042M1694 1042L1780 1059M1780 1059L1831 1143M1889 1119L1928 1084M1889 1119L1831 1143M1889 1119L1878 1129M1928 1084L1878 1129M1928 1084L1999 1146M2031 1080L1999 1146M2031 1080L2004 1169M2031 1080L2109 1143M2145 1068L2178 1095M2145 1068L2109 1143M2178 1095L2261 1119M2178 1095L2109 1143M2261 1119L2359 1045M2261 1119L2202 1195M2261 1119L2289 1164M2359 1045L2403 1069M2403 1069L2431 1151M2533 1093L2531 1173M76 1179L156 1139M76 1179L89 1252M156 1139L168 1140M156 1139L183 1237M168 1140L265 1165M265 1165L247 1221M399 1151L419 1189M399 1151L495 1177M399 1151L365 1215M419 1189L495 1177M419 1189L365 1215M419 1189L447 1268M419 1189L533 1200M495 1177L533 1200M602 1177L669 1136M602 1177L533 1200M602 1177L617 1206M669 1136L617 1206M669 1136L709 1228M795 1193L849 1167M795 1193L709 1228M795 1193L751 1210M795 1193L847 1208M849 1167L904 1189M849 1167L847 1208M904 1189L984 1172M904 1189L847 1208M904 1189L948 1209M904 1189L988 1230M984 1172L948 1209M984 1172L988 1230M1097 1198L1083 1260M1097 1198L1158 1253M1176 1162L1249 1146M1176 1162L1158 1253M1176 1162L1239 1206M1249 1146L1310 1154M1249 1146L1239 1206M1310 1154L1239 1206M1310 1154L1290 1265M1410 1187L1477 1125M1410 1187L1396 1250M1410 1187L1456 1251M1576 1181L1636 1187M1576 1181L1533 1220M1576 1181L1605 1249M1576 1181L1563 1280M1636 1187L1605 1249M1758 1170L1831 1143M1758 1170L1757 1260M1758 1170L1793 1278M1758 1170L1757 1288M1831 1143L1878 1129M1831 1143L1854 1216M1878 1129L1854 1216M1878 1129L1946 1210M1999 1146L2004 1169M1999 1146L2109 1143M1999 1146L1946 1210M2004 1169L1946 1210M2004 1169L2073 1242M2109 1143L2110 1200M2202 1195L2289 1164M2202 1195L2110 1200M2202 1195L2211 1222M2202 1195L2259 1255M2289 1164L2338 1200M2289 1164L2211 1222M2289 1164L2366 1216M2338 1200L2259 1255M2338 1200L2366 1216M2338 1200L2445 1203M2431 1151L2531 1173M2431 1151L2366 1216M2431 1151L2445 1203M2431 1151L2515 1227M2531 1173L2445 1203M2531 1173L2515 1227M27 1278L89 1252M27 1278L-45 1227M27 1278L19 1284M27 1278L84 1317M27 1278L-31 1346M2587 1278L2515 1227M2587 1278L2529 1346M89 1252L183 1237M89 1252L19 1284M89 1252L84 1317M183 1237L247 1221M183 1237L191 1318M183 1237L242 1304M247 1221L242 1304M365 1215L447 1268M365 1215L392 1300M365 1215L431 1296M447 1268L392 1300M447 1268L431 1296M447 1268L526 1308M533 1200L617 1206M533 1200L526 1308M617 1206L709 1228M617 1206L620 1328M709 1228L751 1210M709 1228L704 1313M751 1210L847 1208M751 1210L704 1313M751 1210L782 1321M847 1208L948 1209M948 1209L988 1230M948 1209L937 1302M988 1230L937 1302M988 1230L1019 1290M1083 1260L1158 1253M1083 1260L1019 1290M1083 1260L1061 1310M1083 1260L1134 1358M1158 1253L1234 1282M1239 1206L1290 1265M1239 1206L1234 1282M1290 1265L1396 1250M1290 1265L1234 1282M1290 1265L1314 1296M1396 1250L1456 1251M1396 1250L1314 1296M1396 1250L1419 1311M1456 1251L1533 1220M1456 1251L1419 1311M1456 1251L1512 1285M1533 1220L1605 1249M1533 1220L1512 1285M1533 1220L1563 1280M1605 1249L1563 1280M1605 1249L1642 1319M1757 1260L1793 1278M1757 1260L1757 1288M1793 1278L1854 1216M1793 1278L1757 1288M1793 1278L1828 1342M1854 1216L1946 1210M1854 1216L1893 1290M1946 1210L1973 1300M2073 1242L2110 1200M2073 1242L2008 1295M2073 1242L2134 1300M2110 1200L2211 1222M2110 1200L2134 1300M2211 1222L2259 1255M2211 1222L2236 1335M2259 1255L2236 1335M2259 1255L2275 1320M2366 1216L2445 1203M2366 1216L2385 1323M2445 1203L2515 1227M2515 1227L2579 1284M-45 1227L19 1284M19 1284L84 1317M19 1284L-31 1346M2579 1284L2529 1346M84 1317L191 1318M84 1317L44 1371M191 1318L242 1304M191 1318L139 1421M191 1318L229 1380M242 1304L229 1380M242 1304L295 1402M392 1300L431 1296M392 1300L360 1390M392 1300L410 1371M431 1296L526 1308M431 1296L410 1371M526 1308L620 1328M526 1308L589 1375M620 1328L704 1313M620 1328L589 1375M620 1328L683 1379M704 1313L782 1321M704 1313L683 1379M782 1321L869 1335M782 1321L852 1386M869 1335L937 1302M869 1335L852 1386M937 1302L1019 1290M937 1302L988 1377M1019 1290L1061 1310M1061 1310L1134 1358M1061 1310L988 1377M1061 1310L1041 1393M1134 1358L1041 1393M1134 1358L1191 1399M1234 1282L1314 1296M1234 1282L1191 1399M1314 1296L1286 1400M1419 1311L1512 1285M1419 1311L1429 1417M1419 1311L1469 1389M1512 1285L1563 1280M1512 1285L1469 1389M1563 1280L1642 1319M1642 1319L1609 1377M1642 1319L1730 1381M1757 1288L1828 1342M1757 1288L1730 1381M1828 1342L1893 1290M1828 1342L1838 1431M1828 1342L1846 1429M1893 1290L1973 1300M1973 1300L2008 1295M1973 1300L1986 1404M1973 1300L2011 1369M2008 1295L1986 1404M2008 1295L2011 1369M2008 1295L2106 1361M2134 1300L2106 1361M2134 1300L2186 1392M2236 1335L2275 1320M2236 1335L2186 1392M2236 1335L2242 1415M2275 1320L2385 1323M2275 1320L2242 1415M2385 1323L2431 1324M2385 1323L2467 1364M2431 1324L2398 1437M2431 1324L2467 1364M2529 1346L2604 1371M2529 1346L2467 1364M2529 1346L2555 1399M-31 1346L44 1371M44 1371L139 1421M44 1371L-5 1399M2604 1371L2555 1399M139 1421L229 1380M229 1380L295 1402M295 1402L360 1390M295 1402L410 1371M360 1390L410 1371M548 1437L589 1375M589 1375L683 1379M683 1379L746 1432M746 1432L852 1386M852 1386L924 1431M924 1431L988 1377M988 1377L1041 1393M1191 1399L1280 1416M1191 1399L1286 1400M1280 1416L1286 1400M1429 1417L1469 1389M1469 1389L1561 1433M1561 1433L1609 1377M1838 1431L1846 1429M1986 1404L2011 1369M2011 1369L2106 1361M2106 1361L2186 1392M2186 1392L2242 1415M2398 1437L2467 1364M2467 1364L2555 1399"/></svg>