<svg xmlns="http://www.w3.org/2000/svg" width="2560" height="1440" fill="#fff"><circle cx="78" cy="2" r="5"/><circle cx="78" cy="1442" r="5"/><circle cx="84" cy="42" r="4"/><circle cx="165" cy="62" r="6"/><circle cx="293" cy="56" r="5"/><circle cx="340" cy="24" r="5"/><circle cx="437" cy="50" r="5"/><circle cx="542" cy="69" r="4"/><circle cx="569" cy="47" r="5"/><circle cx="695" cy="47" r="5"/><circle cx="793" cy="58" r="5"/><circle cx="830" cy="50" r="5"/><circle cx="928" cy="28" r="4"/><circle cx="1022" cy="22" r="5"/><circle cx="1075" cy="77" r="6"/><circle cx="1141" cy="63" r="6"/><circle cx="1241" cy="51" r="6"/><circle cx="1284" cy="50" r="4"/><circle cx="1424" cy="45" r="5"/><circle cx="1452" cy="15" r="5"/><circle cx="1585" cy="55" r="4"/><circle cx="1651" cy="19" r="5"/><circle cx="1737" cy="0" r="6"/><circle cx="1737" cy="1440" r="6"/><circle cx="1824" cy="13" r="6"/><circle cx="1884" cy="61" r="5"/><circle cx="1986" cy="25" r="6"/><circle cx="2072" cy="8" r="4"/><circle cx="2152" cy="74" r="5"/><circle cx="2191" cy="27" r="6"/><circle cx="2280" cy="7" r="4"/><circle cx="2376" cy="30" r="4"/><circle cx="2444" cy="69" r="5"/><circle cx="2547" cy="25" r="5"/><circle cx="74" cy="156" r="5"/><circle cx="106" cy="153" r="5"/><circle cx="227" cy="83" r="4"/><circle cx="257" cy="126" r="5"/><circle cx="328" cy="89" r="4"/><circle cx="427" cy="129" r="6"/><circle cx="490" cy="152" r="6"/><circle cx="610" cy="101" r="4"/><circle cx="655" cy="153" r="5"/><circle cx="748" cy="81" r="5"/><circle cx="811" cy="157" r="6"/><circle cx="892" cy="109" r="5"/><circle cx="963" cy="138" r="5"/><circle cx="1049" cy="157" r="4"/><circle cx="1143" cy="106" r="5"/><circle cx="1268" cy="148" r="5"/><circle cx="1337" cy="121" r="6"/><circle cx="1374" cy="131" r="4"/><circle cx="1465" cy="99" r="6"/><circle cx="1567" cy="109" r="4"/><circle cx="1669" cy="110" r="5"/><circle cx="1706" cy="121" r="4"/><circle cx="1797" cy="91" r="4"/><circle cx="1879" cy="93" r="5"/><circle cx="1930" cy="96" r="5"/><circle cx="2005" cy="103" r="4"/><circle cx="2105" cy="90" r="6"/><circle cx="2171" cy="159" r="5"/><circle cx="2247" cy="88" r="5"/><circle cx="2354" cy="133" r="5"/><circle cx="2472" cy="154" r="6"/><circle cx="2533" cy="128" r="5"/><circle cx="39" cy="212" r="5"/><circle cx="127" cy="197" r="5"/><circle cx="184" cy="204" r="5"/><circle cx="271" cy="189" r="5"/><circle cx="347" cy="222" r="5"/><circle cx="429" cy="175" r="5"/><circle cx="490" cy="163" r="5"/><circle cx="603" cy="200" r="5"/><circle cx="708" cy="223" r="4"/><circle cx="798" cy="176" r="4"/><circle cx="805" cy="220" r="5"/><circle cx="927" cy="201" r="5"/><circle cx="982" cy="212" r="4"/><circle cx="1099" cy="171" r="6"/><circle cx="1139" cy="234" r="6"/><circle cx="1261" cy="161" r="5"/><circle cx="1291" cy="217" r="5"/><circle cx="1360" cy="236" r="5"/><circle cx="1518" cy="220" r="6"/><circle cx="1541" cy="184" r="5"/><circle cx="1651" cy="215" r="6"/><circle cx="1690" cy="189" r="5"/><circle cx="1824" cy="229" r="6"/><circle cx="1845" cy="164" r="5"/><circle cx="1950" cy="168" r="6"/><circle cx="2050" cy="236" r="6"/><circle cx="2120" cy="173" r="4"/><circle cx="2174" cy="223" r="4"/><circle cx="2249" cy="225" r="6"/><circle cx="2390" cy="232" r="4"/><circle cx="2427" cy="195" r="4"/><circle cx="2517" cy="202" r="6"/><circle cx="46" cy="313" r="5"/><circle cx="126" cy="256" r="5"/><circle cx="239" cy="311" r="4"/><circle cx="306" cy="254" r="6"/><circle cx="324" cy="270" r="5"/><circle cx="442" cy="267" r="4"/><circle cx="532" cy="302" r="6"/><circle cx="633" cy="254" r="4"/><circle cx="694" cy="281" r="5"/><circle cx="790" cy="299" r="5"/><circle cx="859" cy="316" r="5"/><circle cx="905" cy="315" r="5"/><circle cx="1028" cy="266" r="5"/><circle cx="1085" cy="261" r="6"/><circle cx="1161" cy="262" r="6"/><circle cx="1226" cy="288" r="5"/><circle cx="1283" cy="287" r="5"/><circle cx="1428" cy="310" r="6"/><circle cx="1502" cy="243" r="4"/><circle cx="1593" cy="274" r="6"/><circle cx="1661" cy="296" r="5"/><circle cx="1703" cy="249" r="6"/><circle cx="1834" cy="317" r="5"/><circle cx="1853" cy="265" r="6"/><circle cx="1924" cy="244" r="4"/><circle cx="2056" cy="249" r="6"/><circle cx="2126" cy="286" r="4"/><circle cx="2225" cy="259" r="6"/><circle cx="2298" cy="281" r="6"/><circle cx="2352" cy="270" r="5"/><circle cx="2447" cy="305" r="4"/><circle cx="2550" cy="297" r="6"/><circle cx="52" cy="347" r="5"/><circle cx="97" cy="326" r="5"/><circle cx="173" cy="346" r="6"/><circle cx="272" cy="373" r="5"/><circle cx="378" cy="337" r="6"/><circle cx="450" cy="386" r="6"/><circle cx="520" cy="383" r="6"/><circle cx="633" cy="361" r="5"/><circle cx="655" cy="346" r="5"/><circle cx="791" cy="387" r="4"/><circle cx="851" cy="376" r="5"/><circle cx="932" cy="332" r="6"/><circle cx="1023" cy="345" r="6"/><circle cx="1111" cy="358" r="4"/><circle cx="1166" cy="369" r="5"/><circle cx="1259" cy="322" r="4"/><circle cx="1318" cy="379" r="5"/><circle cx="1429" cy="379" r="5"/><circle cx="1476" cy="382" r="5"/><circle cx="1548" cy="391" r="4"/><circle cx="1613" cy="330" r="5"/><circle cx="1693" cy="356" r="6"/><circle cx="1779" cy="396" r="5"/><circle cx="1849" cy="334" r="5"/><circle cx="1992" cy="365" r="4"/><circle cx="2005" cy="353" r="6"/><circle cx="2101" cy="367" r="6"/><circle cx="2222" cy="343" r="5"/><circle cx="2279" cy="389" r="6"/><circle cx="2341" cy="380" r="4"/><circle cx="2440" cy="387" r="5"/><circle cx="2549" cy="387" r="5"/><circle cx="28" cy="462" r="5"/><circle cx="92" cy="479" r="4"/><circle cx="234" cy="453" r="5"/><circle cx="292" cy="420" r="5"/><circle cx="347" cy="403" r="4"/><circle cx="404" cy="458" r="5"/><circle cx="497" cy="405" r="4"/><circle cx="614" cy="411" r="5"/><circle cx="702" cy="414" r="4"/><circle cx="759" cy="461" r="6"/><circle cx="870" cy="402" r="6"/><circle cx="959" cy="415" r="5"/><circle cx="973" cy="459" r="6"/><circle cx="1082" cy="458" r="4"/><circle cx="1177" cy="451" r="6"/><circle cx="1246" cy="463" r="5"/><circle cx="1287" cy="416" r="6"/><circle cx="1384" cy="448" r="4"/><circle cx="1466" cy="462" r="5"/><circle cx="1574" cy="402" r="5"/><circle cx="1666" cy="406" r="6"/><circle cx="1742" cy="436" r="6"/><circle cx="1784" cy="408" r="4"/><circle cx="1851" cy="412" r="5"/><circle cx="1928" cy="473" r="5"/><circle cx="2032" cy="425" r="5"/><circle cx="2086" cy="477" r="4"/><circle cx="2227" cy="465" r="6"/><circle cx="2267" cy="461" r="5"/><circle cx="2362" cy="470" r="4"/><circle cx="2459" cy="401" r="5"/><circle cx="2541" cy="430" r="6"/><circle cx="44" cy="497" r="6"/><circle cx="146" cy="481" r="5"/><circle cx="221" cy="558" r="5"/><circle cx="303" cy="532" r="5"/><circle cx="368" cy="480" r="4"/><circle cx="452" cy="485" r="4"/><circle cx="530" cy="547" r="5"/><circle cx="577" cy="542" r="6"/><circle cx="701" cy="506" r="6"/><circle cx="753" cy="511" r="5"/><circle cx="876" cy="528" r="4"/><circle cx="959" cy="538" r="5"/><circle cx="1000" cy="518" r="6"/><circle cx="1113" cy="513" r="5"/><circle cx="1145" cy="509" r="6"/><circle cx="1254" cy="537" r="5"/><circle cx="1351" cy="508" r="5"/><circle cx="1377" cy="544" r="6"/><circle cx="1472" cy="528" r="5"/><circle cx="1547" cy="500" r="6"/><circle cx="1676" cy="505" r="6"/><circle cx="1709" cy="530" r="5"/><circle cx="1791" cy="524" r="5"/><circle cx="1919" cy="531" r="4"/><circle cx="1970" cy="557" r="5"/><circle cx="2027" cy="553" r="4"/><circle cx="2144" cy="530" r="5"/><circle cx="2183" cy="501" r="5"/><circle cx="2320" cy="533" r="5"/><circle cx="2339" cy="509" r="6"/><circle cx="2470" cy="539" r="5"/><circle cx="2501" cy="537" r="5"/><circle cx="8" cy="581" r="5"/><circle cx="156" cy="563" r="5"/><circle cx="166" cy="562" r="5"/><circle cx="268" cy="635" r="5"/><circle cx="355" cy="604" r="5"/><circle cx="413" cy="561" r="5"/><circle cx="531" cy="620" r="5"/><circle cx="628" cy="571" r="6"/><circle cx="647" cy="608" r="5"/><circle cx="771" cy="570" r="5"/><circle cx="845" cy="573" r="4"/><circle cx="949" cy="625" r="5"/><circle cx="1029" cy="634" r="5"/><circle cx="1055" cy="591" r="6"/><circle cx="1125" cy="580" r="6"/><circle cx="1265" cy="602" r="5"/><circle cx="1298" cy="621" r="6"/><circle cx="1383" cy="629" r="4"/><circle cx="1493" cy="602" r="4"/><circle cx="1594" cy="620" r="5"/><circle cx="1640" cy="572" r="6"/><circle cx="1682" cy="579" r="4"/><circle cx="1813" cy="581" r="5"/><circle cx="1903" cy="605" r="5"/><circle cx="1950" cy="603" r="5"/><circle cx="2060" cy="630" r="6"/><circle cx="2158" cy="639" r="4"/><circle cx="2237" cy="585" r="4"/><circle cx="2244" cy="582" r="5"/><circle cx="2341" cy="591" r="5"/><circle cx="2448" cy="562" r="4"/><circle cx="2503" cy="627" r="5"/><circle cx="13" cy="699" r="4"/><circle cx="86" cy="678" r="5"/><circle cx="228" cy="706" r="4"/><circle cx="314" cy="679" r="6"/><circle cx="386" cy="647" r="4"/><circle cx="429" cy="666" r="6"/><circle cx="558" cy="710" r="5"/><circle cx="617" cy="681" r="6"/><circle cx="697" cy="699" r="5"/><circle cx="790" cy="713" r="4"/><circle cx="874" cy="683" r="5"/><circle cx="892" cy="714" r="4"/><circle cx="1038" cy="640" r="5"/><circle cx="1055" cy="679" r="5"/><circle cx="1147" cy="649" r="5"/><circle cx="1221" cy="694" r="5"/><circle cx="1346" cy="716" r="6"/><circle cx="1378" cy="717" r="6"/><circle cx="1462" cy="706" r="5"/><circle cx="1561" cy="690" r="6"/><circle cx="1656" cy="713" r="4"/><circle cx="1726" cy="652" r="5"/><circle cx="1823" cy="695" r="5"/><circle cx="1846" cy="700" r="5"/><circle cx="1987" cy="677" r="6"/><circle cx="2005" cy="654" r="6"/><circle cx="2121" cy="641" r="5"/><circle cx="2236" cy="699" r="5"/><circle cx="2257" cy="684" r="5"/><circle cx="2341" cy="691" r="6"/><circle cx="2472" cy="717" r="6"/><circle cx="2482" cy="673" r="4"/><circle cx="76" cy="791" r="5"/><circle cx="159" cy="754" r="6"/><circle cx="215" cy="738" r="4"/><circle cx="315" cy="794" r="5"/><circle cx="354" cy="746" r="5"/><circle cx="442" cy="784" r="5"/><circle cx="552" cy="728" r="5"/><circle cx="565" cy="787" r="4"/><circle cx="675" cy="746" r="4"/><circle cx="760" cy="792" r="5"/><circle cx="875" cy="797" r="5"/><circle cx="916" cy="760" r="6"/><circle cx="993" cy="749" r="6"/><circle cx="1084" cy="791" r="5"/><circle cx="1154" cy="794" r="6"/><circle cx="1228" cy="755" r="6"/><circle cx="1354" cy="727" r="5"/><circle cx="1370" cy="784" r="4"/><circle cx="1515" cy="733" r="5"/><circle cx="1534" cy="747" r="5"/><circle cx="1626" cy="750" r="6"/><circle cx="1683" cy="796" r="6"/><circle cx="1827" cy="797" r="5"/><circle cx="1916" cy="769" r="4"/><circle cx="1958" cy="741" r="5"/><circle cx="2041" cy="759" r="5"/><circle cx="2084" cy="727" r="5"/><circle cx="2196" cy="767" r="6"/><circle cx="2302" cy="798" r="5"/><circle cx="2330" cy="739" r="6"/><circle cx="2432" cy="737" r="5"/><circle cx="2526" cy="799" r="4"/><circle cx="48" cy="832" r="6"/><circle cx="126" cy="833" r="5"/><circle cx="239" cy="876" r="5"/><circle cx="274" cy="869" r="6"/><circle cx="341" cy="830" r="5"/><circle cx="403" cy="807" r="5"/><circle cx="491" cy="813" r="6"/><circle cx="639" cy="846" r="5"/><circle cx="640" cy="877" r="5"/><circle cx="742" cy="843" r="6"/><circle cx="835" cy="817" r="6"/><circle cx="884" cy="859" r="6"/><circle cx="1040" cy="828" r="4"/><circle cx="1102" cy="868" r="6"/><circle cx="1147" cy="803" r="4"/><circle cx="1248" cy="873" r="5"/><circle cx="1336" cy="830" r="4"/><circle cx="1432" cy="827" r="5"/><circle cx="1503" cy="805" r="6"/><circle cx="1538" cy="861" r="5"/><circle cx="1678" cy="809" r="6"/><circle cx="1740" cy="815" r="6"/><circle cx="1796" cy="868" r="5"/><circle cx="1915" cy="852" r="5"/><circle cx="1950" cy="853" r="5"/><circle cx="2061" cy="826" r="5"/><circle cx="2105" cy="826" r="5"/><circle cx="2194" cy="802" r="4"/><circle cx="2252" cy="879" r="5"/><circle cx="2398" cy="832" r="5"/><circle cx="2416" cy="855" r="4"/><circle cx="2503" cy="810" r="5"/><circle cx="41" cy="923" r="5"/><circle cx="155" cy="900" r="5"/><circle cx="175" cy="918" r="5"/><circle cx="309" cy="940" r="5"/><circle cx="390" cy="883" r="5"/><circle cx="459" cy="904" r="4"/><circle cx="481" cy="899" r="4"/><circle cx="569" cy="894" r="5"/><circle cx="719" cy="954" r="5"/><circle cx="736" cy="950" r="4"/><circle cx="824" cy="932" r="4"/><circle cx="917" cy="899" r="6"/><circle cx="977" cy="884" r="4"/><circle cx="1078" cy="952" r="5"/><circle cx="1127" cy="908" r="5"/><circle cx="1265" cy="913" r="6"/><circle cx="1348" cy="942" r="4"/><circle cx="1369" cy="939" r="5"/><circle cx="1442" cy="938" r="5"/><circle cx="1584" cy="907" r="5"/><circle cx="1631" cy="922" r="6"/><circle cx="1700" cy="904" r="5"/><circle cx="1764" cy="947" r="6"/><circle cx="1919" cy="881" r="4"/><circle cx="1971" cy="930" r="5"/><circle cx="2026" cy="959" r="5"/><circle cx="2087" cy="957" r="5"/><circle cx="2234" cy="930" r="6"/><circle cx="2296" cy="943" r="4"/><circle cx="2329" cy="909" r="4"/><circle cx="2438" cy="887" r="5"/><circle cx="2525" cy="945" r="5"/><circle cx="49" cy="1000" r="5"/><circle cx="102" cy="1012" r="4"/><circle cx="225" cy="965" r="5"/><circle cx="277" cy="968" r="4"/><circle cx="367" cy="1011" r="5"/><circle cx="473" cy="1025" r="6"/><circle cx="487" cy="980" r="5"/><circle cx="613" cy="1022" r="6"/><circle cx="647" cy="1036" r="4"/><circle cx="728" cy="1030" r="4"/><circle cx="826" cy="979" r="5"/><circle cx="906" cy="1034" r="4"/><circle cx="1012" cy="965" r="4"/><circle cx="1083" cy="1016" r="4"/><circle cx="1173" cy="967" r="5"/><circle cx="1224" cy="1017" r="4"/><circle cx="1288" cy="1002" r="5"/><circle cx="1366" cy="978" r="5"/><circle cx="1505" cy="979" r="5"/><circle cx="1587" cy="969" r="5"/><circle cx="1676" cy="968" r="5"/><circle cx="1699" cy="1009" r="4"/><circle cx="1801" cy="983" r="4"/><circle cx="1874" cy="1031" r="4"/><circle cx="1951" cy="964" r="5"/><circle cx="2022" cy="1011" r="5"/><circle cx="2087" cy="1028" r="5"/><circle cx="2190" cy="1003" r="5"/><circle cx="2277" cy="1014" r="5"/><circle cx="2395" cy="1037" r="6"/><circle cx="2448" cy="1022" r="4"/><circle cx="2559" cy="1026" r="5"/><circle cx="-1" cy="1026" r="5"/><circle cx="71" cy="1120" r="5"/><circle cx="100" cy="1095" r="5"/><circle cx="193" cy="1111" r="5"/><circle cx="256" cy="1076" r="6"/><circle cx="331" cy="1113" r="5"/><circle cx="425" cy="1075" r="4"/><circle cx="558" cy="1092" r="5"/><circle cx="614" cy="1081" r="4"/><circle cx="691" cy="1084" r="6"/><circle cx="780" cy="1094" r="5"/><circle cx="837" cy="1084" r="6"/><circle cx="949" cy="1066" r="5"/><circle cx="1035" cy="1083" r="4"/><circle cx="1119" cy="1099" r="5"/><circle cx="1186" cy="1073" r="5"/><circle cx="1270" cy="1077" r="6"/><circle cx="1333" cy="1049" r="5"/><circle cx="1431" cy="1077" r="5"/><circle cx="1440" cy="1116" r="5"/><circle cx="1554" cy="1077" r="4"/><circle cx="1602" cy="1095" r="5"/><circle cx="1750" cy="1114" r="5"/><circle cx="1774" cy="1060" r="4"/><circle cx="1910" cy="1083" r="5"/><circle cx="1937" cy="1106" r="5"/><circle cx="2017" cy="1051" r="5"/><circle cx="2125" cy="1097" r="5"/><circle cx="2213" cy="1098" r="6"/><circle cx="2246" cy="1088" r="4"/><circle cx="2384" cy="1085" r="6"/><circle cx="2455" cy="1085" r="5"/><circle cx="2482" cy="1118" r="4"/><circle cx="12" cy="1163" r="6"/><circle cx="158" cy="1162" r="4"/><circle cx="178" cy="1133" r="5"/><circle cx="307" cy="1124" r="4"/><circle cx="351" cy="1159" r="6"/><circle cx="455" cy="1195" r="5"/><circle cx="535" cy="1188" r="5"/><circle cx="569" cy="1145" r="6"/><circle cx="718" cy="1198" r="5"/><circle cx="734" cy="1161" r="6"/><circle cx="820" cy="1170" r="6"/><circle cx="893" cy="1159" r="6"/><circle cx="991" cy="1172" r="5"/><circle cx="1091" cy="1156" r="5"/><circle cx="1122" cy="1182" r="5"/><circle cx="1256" cy="1175" r="5"/><circle cx="1350" cy="1188" r="6"/><circle cx="1439" cy="1144" r="5"/><circle cx="1502" cy="1144" r="6"/><circle cx="1535" cy="1150" r="6"/><circle cx="1663" cy="1180" r="5"/><circle cx="1727" cy="1136" r="6"/><circle cx="1839" cy="1163" r="5"/><circle cx="1908" cy="1159" r="5"/><circle cx="1958" cy="1139" r="4"/><circle cx="2015" cy="1186" r="6"/><circle cx="2117" cy="1152" r="6"/><circle cx="2217" cy="1171" r="6"/><circle cx="2310" cy="1145" r="5"/><circle cx="2351" cy="1144" r="6"/><circle cx="2455" cy="1142" r="5"/><circle cx="2552" cy="1191" r="6"/><circle cx="32" cy="1267" r="5"/><circle cx="159" cy="1233" r="4"/><circle cx="232" cy="1264" r="5"/><circle cx="264" cy="1210" r="5"/><circle cx="381" cy="1241" r="5"/><circle cx="476" cy="1243" r="6"/><circle cx="509" cy="1226" r="6"/><circle cx="616" cy="1269" r="5"/><circle cx="708" cy="1237" r="6"/><circle cx="792" cy="1214" r="5"/><circle cx="806" cy="1215" r="5"/><circle cx="910" cy="1233" r="6"/><circle cx="970" cy="1201" r="5"/><circle cx="1095" cy="1269" r="5"/><circle cx="1188" cy="1256" r="5"/><circle cx="1235" cy="1245" r="5"/><circle cx="1309" cy="1224" r="4"/><circle cx="1384" cy="1235" r="5"/><circle cx="1489" cy="1255" r="6"/><circle cx="1560" cy="1247" r="5"/><circle cx="1656" cy="1261" r="5"/><circle cx="1739" cy="1267" r="4"/><circle cx="1798" cy="1251" r="5"/><circle cx="1886" cy="1201" r="6"/><circle cx="1924" cy="1266" r="5"/><circle cx="2015" cy="1263" r="5"/><circle cx="2143" cy="1201" r="5"/><circle cx="2206" cy="1274" r="5"/><circle cx="2270" cy="1239" r="5"/><circle cx="2330" cy="1223" r="5"/><circle cx="2471" cy="1252" r="6"/><circle cx="2556" cy="1220" r="4"/><circle cx="42" cy="1352" r="5"/><circle cx="122" cy="1346" r="4"/><circle cx="209" cy="1348" r="6"/><circle cx="311" cy="1301" r="4"/><circle cx="360" cy="1331" r="4"/><circle cx="430" cy="1329" r="6"/><circle cx="503" cy="1346" r="5"/><circle cx="613" cy="1337" r="6"/><circle cx="718" cy="1284" r="6"/><circle cx="746" cy="1327" r="6"/><circle cx="874" cy="1282" r="6"/><circle cx="944" cy="1307" r="5"/><circle cx="996" cy="1300" r="4"/><circle cx="1095" cy="1292" r="5"/><circle cx="1162" cy="1295" r="5"/><circle cx="1278" cy="1284" r="5"/><circle cx="1317" cy="1350" r="5"/><circle cx="1421" cy="1286" r="4"/><circle cx="1482" cy="1322" r="5"/><circle cx="1542" cy="1288" r="6"/><circle cx="1641" cy="1339" r="5"/><circle cx="1728" cy="1335" r="5"/><circle cx="1762" cy="1302" r="4"/><circle cx="1872" cy="1311" r="5"/><circle cx="1998" cy="1326" r="5"/><circle cx="2036" cy="1298" r="5"/><circle cx="2107" cy="1349" r="5"/><circle cx="2179" cy="1325" r="5"/><circle cx="2259" cy="1360" r="5"/><circle cx="2343" cy="1300" r="4"/><circle cx="2450" cy="1354" r="5"/><circle cx="2526" cy="1319" r="5"/><circle cx="50" cy="1397" r="6"/><circle cx="91" cy="1411" r="6"/><circle cx="200" cy="1406" r="5"/><circle cx="273" cy="1394" r="5"/><circle cx="336" cy="1377" r="4"/><circle cx="451" cy="1366" r="6"/><circle cx="536" cy="1365" r="4"/><circle cx="567" cy="1397" r="5"/><circle cx="663" cy="1419" r="4"/><circle cx="783" cy="1399" r="6"/><circle cx="866" cy="1364" r="6"/><circle cx="906" cy="1390" r="4"/><circle cx="969" cy="1394" r="5"/><circle cx="1091" cy="1430" r="5"/><circle cx="1130" cy="1408" r="5"/><circle cx="1263" cy="1364" r="5"/><circle cx="1320" cy="1389" r="5"/><circle cx="1394" cy="1415" r="5"/><circle cx="1446" cy="1386" r="6"/><circle cx="1586" cy="1370" r="4"/><circle cx="1678" cy="1410" r="5"/><circle cx="1752" cy="1379" r="4"/><circle cx="1815" cy="1363" r="5"/><circle cx="1914" cy="1425" r="5"/><circle cx="1940" cy="1364" r="5"/><circle cx="2069" cy="1389" r="4"/><circle cx="2143" cy="1395" r="5"/><circle cx="2180" cy="1417" r="4"/><circle cx="2310" cy="1389" r="6"/><circle cx="2370" cy="1371" r="6"/><circle cx="2416" cy="1420" r="5"/><circle cx="2543" cy="1387" r="4"/><path stroke="#fff" d="M78 2L84 42M78 2L165 62M78 2L-13 25M78 2L50 -43M78 2L91 -29M2638 2L2547 25M78 1442L50 1397M78 1442L91 1411M84 42L165 62M84 42L-13 25M84 42L91 -29M2644 42L2547 25M84 1482L91 1411M165 62L106 153M165 62L227 83M165 62L200 -34M165 1502L200 1406M293 56L340 24M293 56L227 83M293 56L257 126M293 56L328 89M293 56L273 -46M293 1496L273 1394M340 24L437 50M340 24L328 89M340 24L273 -46M340 24L336 -63M340 1464L273 1394M340 1464L336 1377M437 50L542 69M437 50L427 129M437 50L490 152M542 69L569 47M542 69L490 152M542 69L610 101M542 69L490 163M569 47L610 101M569 47L567 -43M569 1487L567 1397M695 47L793 58M695 47L610 101M695 47L655 153M695 47L748 81M695 47L663 -21M695 1487L663 1419M793 58L830 50M793 58L748 81M793 58L811 157M793 58L783 -41M793 1498L783 1399M830 50L748 81M830 50L892 109M830 50L783 -41M830 1490L783 1399M928 28L1022 22M928 28L892 109M928 28L906 -50M928 28L969 -46M928 1468L906 1390M928 1468L969 1394M1022 22L1075 77M1022 22L969 -46M1022 22L1091 -10M1022 1462L969 1394M1022 1462L1091 1430M1075 77L1141 63M1075 77L1143 106M1075 77L1099 171M1075 77L1091 -10M1075 1517L1091 1430M1141 63L1241 51M1141 63L1143 106M1141 63L1091 -10M1141 63L1130 -32M1141 1503L1091 1430M1141 1503L1130 1408M1241 51L1284 50M1241 51L1143 106M1241 51L1268 148M1241 51L1337 121M1284 50L1268 148M1284 50L1337 121M1284 50L1261 161M1284 50L1320 -51M1284 1490L1320 1389M1424 45L1452 15M1424 45L1374 131M1424 45L1465 99M1424 45L1394 -25M1424 45L1446 -54M1424 1485L1394 1415M1424 1485L1446 1386M1452 15L1465 99M1452 15L1394 -25M1452 15L1446 -54M1452 1455L1394 1415M1452 1455L1446 1386M1585 55L1651 19M1585 55L1567 109M1585 55L1669 110M1651 19L1737 0M1651 19L1669 110M1651 19L1586 -70M1651 19L1678 -30M1651 1459L1586 1370M1651 1459L1678 1410M1737 0L1824 13M1737 0L1678 -30M1737 0L1752 -61M1737 1440L1678 1410M1737 1440L1752 1379M1824 13L1884 61M1824 13L1797 91M1824 13L1815 -77M1824 13L1914 -15M1824 1453L1815 1363M1824 1453L1914 1425M1884 61L1986 25M1884 61L1879 93M1884 61L1930 96M1884 61L1914 -15M1884 1501L1914 1425M1986 25L2072 8M1986 25L1930 96M1986 25L2005 103M1986 25L1914 -15M1986 1465L1914 1425M2072 8L2152 74M2072 8L2105 90M2072 8L2069 -51M2072 1448L2069 1389M2152 74L2191 27M2152 74L2105 90M2152 74L2171 159M2152 74L2247 88M2191 27L2280 7M2191 27L2247 88M2191 27L2143 -45M2191 27L2180 -23M2191 1467L2143 1395M2191 1467L2180 1417M2280 7L2247 88M2280 7L2259 -80M2280 7L2310 -51M2280 1447L2259 1360M2280 1447L2310 1389M2376 30L2444 69M2376 30L2354 133M2376 30L2370 -69M2376 30L2416 -20M2376 1470L2370 1371M2376 1470L2416 1420M2444 69L2472 154M2444 69L2416 -20M2444 1509L2416 1420M2547 25L2533 128M2547 25L2610 -43M2547 25L2543 -53M-13 25L50 -43M-13 1465L50 1397M2547 1465L2610 1397M2547 1465L2543 1387M74 156L106 153M74 156L-27 128M74 156L39 212M74 156L127 197M2634 156L2533 128M106 153L39 212M106 153L127 197M106 153L184 204M227 83L257 126M227 83L328 89M227 83L200 -34M227 1523L200 1406M257 126L328 89M257 126L184 204M257 126L271 189M328 89L427 129M427 129L490 152M427 129L429 175M427 129L490 163M490 152L429 175M490 152L490 163M610 101L655 153M610 101L603 200M655 153L603 200M655 153L708 223M655 153L633 254M748 81L811 157M748 81L798 176M811 157L892 109M811 157L798 176M811 157L805 220M892 109L963 138M892 109L927 201M963 138L1049 157M963 138L927 201M963 138L982 212M1049 157L982 212M1049 157L1099 171M1143 106L1099 171M1268 148L1337 121M1268 148L1261 161M1268 148L1291 217M1337 121L1374 131M1337 121L1261 161M1374 131L1465 99M1374 131L1261 161M1374 131L1360 236M1465 99L1567 109M1567 109L1541 184M1669 110L1706 121M1669 110L1651 215M1669 110L1690 189M1706 121L1797 91M1706 121L1690 189M1797 91L1879 93M1797 91L1845 164M1879 93L1930 96M1879 93L1845 164M1879 93L1950 168M1930 96L2005 103M1930 96L1950 168M2005 103L2105 90M2005 103L1950 168M2105 90L2171 159M2105 90L2120 173M2171 159L2120 173M2171 159L2174 223M2171 159L2249 225M2247 88L2354 133M2354 133L2427 195M2472 154L2533 128M2472 154L2390 232M2472 154L2427 195M2472 154L2517 202M2533 128L2517 202M39 212L127 197M39 212L-43 202M39 212L-10 297M2599 212L2517 202M2599 212L2550 297M127 197L184 204M127 197L126 256M184 204L271 189M184 204L126 256M271 189L347 222M271 189L306 254M271 189L324 270M347 222L429 175M347 222L306 254M347 222L324 270M429 175L490 163M429 175L442 267M490 163L603 200M603 200L633 254M708 223L798 176M708 223L805 220M708 223L633 254M708 223L694 281M798 176L805 220M805 220L790 299M927 201L982 212M982 212L1028 266M1099 171L1139 234M1099 171L1085 261M1139 234L1028 266M1139 234L1085 261M1139 234L1161 262M1139 234L1226 288M1261 161L1291 217M1291 217L1360 236M1291 217L1226 288M1291 217L1283 287M1360 236L1283 287M1360 236L1428 310M1518 220L1541 184M1518 220L1428 310M1518 220L1502 243M1518 220L1593 274M1541 184L1502 243M1651 215L1690 189M1651 215L1593 274M1651 215L1661 296M1651 215L1703 249M1690 189L1703 249M1824 229L1845 164M1824 229L1834 317M1824 229L1853 265M1824 229L1924 244M1824 229L1849 334M1845 164L1950 168M1845 164L1853 265M1950 168L1924 244M2050 236L2120 173M2050 236L2056 249M2050 236L2126 286M2050 236L2005 353M2120 173L2174 223M2120 173L2056 249M2174 223L2249 225M2174 223L2126 286M2174 223L2225 259M2249 225L2225 259M2249 225L2298 281M2249 225L2352 270M2390 232L2427 195M2390 232L2352 270M2390 232L2447 305M2427 195L2517 202M2427 195L2352 270M2517 202L2550 297M46 313L126 256M46 313L-10 297M46 313L52 347M46 313L97 326M2606 313L2550 297M126 256L97 326M126 256L173 346M239 311L306 254M239 311L324 270M239 311L173 346M239 311L272 373M306 254L324 270M306 254L378 337M324 270L378 337M442 267L532 302M442 267L378 337M532 302L520 383M532 302L633 361M532 302L497 405M633 254L694 281M633 254L655 346M694 281L790 299M694 281L633 361M694 281L655 346M790 299L859 316M790 299L791 387M859 316L905 315M859 316L851 376M859 316L932 332M859 316L870 402M905 315L851 376M905 315L932 332M1028 266L1085 261M1028 266L1023 345M1085 261L1161 262M1085 261L1023 345M1161 262L1226 288M1161 262L1111 358M1161 262L1166 369M1226 288L1283 287M1226 288L1259 322M1283 287L1259 322M1283 287L1318 379M1428 310L1502 243M1428 310L1429 379M1428 310L1476 382M1502 243L1593 274M1593 274L1661 296M1593 274L1613 330M1661 296L1703 249M1661 296L1613 330M1661 296L1693 356M1834 317L1853 265M1834 317L1779 396M1834 317L1849 334M1834 317L1851 412M1853 265L1924 244M1853 265L1849 334M2056 249L2126 286M2056 249L2005 353M2056 249L2101 367M2126 286L2225 259M2126 286L2101 367M2225 259L2298 281M2225 259L2222 343M2298 281L2352 270M2298 281L2222 343M2298 281L2279 389M2352 270L2447 305M2447 305L2440 387M2447 305L2459 401M2550 297L2612 347M2550 297L2549 387M-10 297L52 347M52 347L97 326M52 347L-11 387M2612 347L2549 387M97 326L173 346M173 346L272 373M272 373L234 453M272 373L292 420M272 373L347 403M378 337L450 386M378 337L347 403M450 386L520 383M450 386L404 458M450 386L497 405M450 386L452 485M520 383L497 405M520 383L614 411M633 361L655 346M633 361L614 411M633 361L702 414M655 346L614 411M655 346L702 414M791 387L851 376M791 387L759 461M791 387L870 402M851 376L932 332M851 376L870 402M932 332L870 402M932 332L959 415M1023 345L1111 358M1023 345L959 415M1023 345L973 459M1111 358L1166 369M1166 369L1259 322M1166 369L1177 451M1259 322L1318 379M1259 322L1287 416M1318 379L1287 416M1429 379L1476 382M1429 379L1384 448M1429 379L1466 462M1476 382L1548 391M1476 382L1466 462M1476 382L1574 402M1548 391L1574 402M1548 391L1547 500M1613 330L1693 356M1613 330L1574 402M1613 330L1666 406M1693 356L1779 396M1693 356L1666 406M1693 356L1742 436M1779 396L1742 436M1779 396L1784 408M1779 396L1851 412M1849 334L1784 408M1849 334L1851 412M1992 365L2005 353M1992 365L2101 367M1992 365L2032 425M2005 353L2101 367M2005 353L2032 425M2101 367L2032 425M2222 343L2279 389M2279 389L2341 380M2279 389L2227 465M2279 389L2267 461M2341 380L2440 387M2341 380L2362 470M2440 387L2459 401M2440 387L2541 430M2549 387L2588 462M2549 387L2459 401M2549 387L2541 430M-11 387L28 462M28 462L92 479M28 462L-19 430M28 462L44 497M28 462L-59 537M2588 462L2541 430M2588 462L2501 537M92 479L44 497M92 479L146 481M92 479L156 563M234 453L292 420M234 453L146 481M234 453L221 558M234 453L303 532M292 420L347 403M347 403L404 458M347 403L368 480M404 458L368 480M404 458L452 485M614 411L702 414M702 414L759 461M702 414L701 506M759 461L701 506M759 461L753 511M759 461L771 570M870 402L959 415M959 415L973 459M959 415L1000 518M973 459L1082 458M973 459L959 538M973 459L1000 518M1082 458L1177 451M1082 458L1000 518M1082 458L1113 513M1082 458L1145 509M1177 451L1246 463M1177 451L1113 513M1177 451L1145 509M1246 463L1287 416M1246 463L1145 509M1246 463L1254 537M1246 463L1351 508M1287 416L1384 448M1287 416L1351 508M1384 448L1466 462M1384 448L1351 508M1384 448L1377 544M1466 462L1472 528M1466 462L1547 500M1574 402L1666 406M1574 402L1547 500M1666 406L1742 436M1666 406L1676 505M1742 436L1784 408M1742 436L1676 505M1784 408L1851 412M1784 408L1791 524M1851 412L1928 473M1928 473L2032 425M1928 473L1919 531M2032 425L2086 477M2086 477L2027 553M2086 477L2144 530M2227 465L2267 461M2227 465L2144 530M2227 465L2183 501M2227 465L2339 509M2267 461L2183 501M2267 461L2320 533M2267 461L2339 509M2362 470L2459 401M2362 470L2320 533M2362 470L2339 509M2459 401L2541 430M2541 430L2604 497M-19 430L44 497M44 497L146 481M44 497L8 581M146 481L156 563M146 481L166 562M221 558L303 532M221 558L156 563M221 558L166 562M221 558L268 635M303 532L368 480M303 532L268 635M303 532L355 604M368 480L452 485M368 480L413 561M452 485L530 547M452 485L413 561M530 547L577 542M530 547L531 620M530 547L628 571M577 542L531 620M577 542L628 571M577 542L647 608M701 506L753 511M701 506L628 571M701 506L771 570M753 511L771 570M753 511L845 573M876 528L959 538M876 528L771 570M876 528L845 573M959 538L1000 518M959 538L949 625M1000 518L1055 591M1113 513L1145 509M1113 513L1125 580M1145 509L1125 580M1254 537L1351 508M1254 537L1265 602M1254 537L1298 621M1351 508L1377 544M1377 544L1472 528M1377 544L1298 621M1377 544L1383 629M1472 528L1547 500M1472 528L1493 602M1547 500L1640 572M1676 505L1709 530M1676 505L1640 572M1676 505L1682 579M1709 530L1791 524M1709 530L1640 572M1709 530L1682 579M1709 530L1726 652M1791 524L1813 581M1919 531L1970 557M1919 531L1903 605M1919 531L1950 603M1970 557L2027 553M1970 557L1903 605M1970 557L1950 603M1970 557L2005 654M2027 553L2060 630M2144 530L2183 501M2144 530L2121 641M2183 501L2237 585M2183 501L2244 582M2320 533L2339 509M2320 533L2244 582M2320 533L2341 591M2339 509L2341 591M2470 539L2501 537M2470 539L2568 581M2470 539L2448 562M2470 539L2503 627M-90 539L8 581M2501 537L2568 581M2501 537L2448 562M2501 537L2503 627M-59 537L8 581M8 581L-57 627M8 581L86 678M2568 581L2503 627M156 563L166 562M268 635L228 706M268 635L314 679M355 604L413 561M355 604L314 679M355 604L386 647M355 604L429 666M413 561L386 647M413 561L429 666M531 620L558 710M628 571L647 608M647 608L617 681M647 608L697 699M771 570L845 573M949 625L1029 634M949 625L874 683M949 625L1038 640M1029 634L1055 591M1029 634L1038 640M1029 634L1055 679M1055 591L1125 580M1055 591L1038 640M1055 591L1055 679M1125 580L1038 640M1125 580L1147 649M1265 602L1298 621M1265 602L1221 694M1298 621L1383 629M1298 621L1346 716M1383 629L1346 716M1383 629L1378 717M1383 629L1354 727M1493 602L1594 620M1594 620L1640 572M1594 620L1682 579M1594 620L1561 690M1594 620L1656 713M1640 572L1682 579M1682 579L1726 652M1813 581L1903 605M1813 581L1726 652M1813 581L1823 695M1813 581L1846 700M1903 605L1950 603M1950 603L1987 677M1950 603L2005 654M2060 630L1987 677M2060 630L2005 654M2060 630L2121 641M2060 630L2084 727M2158 639L2237 585M2158 639L2121 641M2158 639L2236 699M2237 585L2244 582M2237 585L2341 591M2244 582L2341 591M2244 582L2257 684M2341 591L2341 691M2503 627L2472 717M2503 627L2482 673M13 699L86 678M13 699L-78 673M13 699L-34 799M2573 699L2482 673M2573 699L2526 799M86 678L76 791M86 678L159 754M228 706L314 679M228 706L159 754M228 706L215 738M314 679L386 647M314 679L354 746M386 647L429 666M558 710L617 681M558 710L552 728M558 710L565 787M617 681L697 699M617 681L552 728M617 681L675 746M697 699L790 713M697 699L675 746M697 699L760 792M790 713L874 683M790 713L760 792M874 683L892 714M874 683L916 760M892 714L875 797M892 714L916 760M892 714L993 749M1038 640L1055 679M1055 679L1147 649M1055 679L993 749M1147 649L1221 694M1221 694L1228 755M1346 716L1378 717M1346 716L1354 727M1346 716L1370 784M1378 717L1462 706M1378 717L1354 727M1378 717L1370 784M1462 706L1561 690M1462 706L1515 733M1462 706L1534 747M1462 706L1503 805M1561 690L1515 733M1561 690L1534 747M1561 690L1626 750M1656 713L1726 652M1656 713L1626 750M1656 713L1683 796M1656 713L1678 809M1726 652L1823 695M1823 695L1846 700M1823 695L1827 797M1846 700L1827 797M1846 700L1916 769M1987 677L2005 654M1987 677L1958 741M1987 677L2041 759M2005 654L1958 741M2121 641L2084 727M2236 699L2257 684M2236 699L2341 691M2236 699L2196 767M2236 699L2330 739M2257 684L2341 691M2257 684L2196 767M2257 684L2330 739M2341 691L2330 739M2341 691L2432 737M2472 717L2482 673M2472 717L2432 737M2472 717L2526 799M2472 717L2503 810M2482 673L2432 737M76 791L159 754M76 791L-34 799M76 791L48 832M76 791L126 833M2636 791L2526 799M159 754L215 738M159 754L126 833M315 794L354 746M315 794L274 869M315 794L341 830M354 746L442 784M354 746L341 830M354 746L403 807M442 784L403 807M442 784L491 813M442 784L390 883M552 728L565 787M565 787L491 813M565 787L639 846M565 787L569 894M675 746L760 792M675 746L639 846M760 792L742 843M760 792L835 817M875 797L916 760M875 797L835 817M875 797L884 859M875 797L917 899M916 760L993 749M916 760L835 817M993 749L1084 791M993 749L1040 828M1084 791L1154 794M1084 791L1040 828M1084 791L1102 868M1084 791L1147 803M1154 794L1228 755M1154 794L1102 868M1154 794L1147 803M1154 794L1127 908M1228 755L1147 803M1228 755L1248 873M1354 727L1370 784M1354 727L1336 830M1370 784L1336 830M1370 784L1432 827M1515 733L1534 747M1515 733L1503 805M1534 747L1626 750M1534 747L1503 805M1626 750L1683 796M1626 750L1678 809M1683 796L1678 809M1683 796L1740 815M1827 797L1916 769M1827 797L1740 815M1827 797L1796 868M1916 769L1958 741M1916 769L1915 852M1916 769L1950 853M1958 741L2041 759M2041 759L2084 727M2041 759L2061 826M2041 759L2105 826M2084 727L2061 826M2084 727L2105 826M2196 767L2302 798M2196 767L2105 826M2196 767L2194 802M2302 798L2330 739M2302 798L2194 802M2302 798L2252 879M2302 798L2398 832M2330 739L2432 737M2432 737L2398 832M2526 799L2608 832M2526 799L2503 810M-34 799L48 832M48 832L126 833M48 832L-57 810M48 832L41 923M2608 832L2503 810M126 833L155 900M126 833L175 918M239 876L274 869M239 876L155 900M239 876L175 918M239 876L309 940M239 876L225 965M274 869L341 830M274 869L309 940M274 869L277 968M341 830L403 807M341 830L390 883M403 807L491 813M403 807L390 883M491 813L459 904M491 813L481 899M639 846L640 877M639 846L742 843M639 846L569 894M640 877L742 843M640 877L569 894M640 877L719 954M640 877L736 950M742 843L835 817M742 843L719 954M835 817L884 859M884 859L824 932M884 859L917 899M884 859L977 884M1040 828L1102 868M1040 828L977 884M1102 868L1147 803M1102 868L1127 908M1147 803L1127 908M1248 873L1336 830M1248 873L1265 913M1336 830L1432 827M1432 827L1503 805M1432 827L1538 861M1432 827L1442 938M1503 805L1538 861M1538 861L1584 907M1538 861L1631 922M1538 861L1505 979M1678 809L1740 815M1678 809L1700 904M1740 815L1796 868M1740 815L1700 904M1796 868L1764 947M1796 868L1801 983M1915 852L1950 853M1915 852L1919 881M1950 853L1919 881M1950 853L1971 930M1950 853L1951 964M2061 826L2105 826M2105 826L2194 802M2194 802L2252 879M2252 879L2234 930M2252 879L2296 943M2252 879L2329 909M2398 832L2416 855M2398 832L2438 887M2416 855L2503 810M2416 855L2329 909M2416 855L2438 887M2503 810L2438 887M41 923L-35 945M41 923L49 1000M41 923L102 1012M41 923L-1 1026M2601 923L2525 945M2601 923L2559 1026M155 900L175 918M155 900L225 965M175 918L225 965M309 940L225 965M309 940L277 968M309 940L367 1011M390 883L459 904M390 883L481 899M459 904L481 899M459 904L487 980M481 899L569 894M481 899L487 980M569 894L487 980M719 954L736 950M719 954L728 1030M719 954L826 979M736 950L824 932M736 950L728 1030M736 950L826 979M824 932L917 899M824 932L826 979M917 899L977 884M977 884L1078 952M977 884L1012 965M1078 952L1127 908M1078 952L1012 965M1078 952L1083 1016M1078 952L1173 967M1127 908L1173 967M1265 913L1348 942M1265 913L1369 939M1265 913L1173 967M1265 913L1288 1002M1348 942L1369 939M1348 942L1442 938M1348 942L1366 978M1369 939L1442 938M1369 939L1366 978M1442 938L1366 978M1442 938L1505 979M1584 907L1631 922M1584 907L1505 979M1584 907L1587 969M1631 922L1700 904M1631 922L1587 969M1631 922L1676 968M1700 904L1764 947M1700 904L1676 968M1764 947L1676 968M1764 947L1699 1009M1764 947L1801 983M1919 881L1971 930M1919 881L1951 964M1971 930L2026 959M1971 930L1951 964M2026 959L2087 957M2026 959L1951 964M2026 959L2022 1011M2026 959L2087 1028M2087 957L2022 1011M2087 957L2087 1028M2087 957L2190 1003M2087 957L2017 1051M2234 930L2296 943M2234 930L2329 909M2234 930L2190 1003M2234 930L2277 1014M2296 943L2329 909M2296 943L2277 1014M2329 909L2438 887M2438 887L2525 945M2525 945L2609 1000M2525 945L2448 1022M2525 945L2559 1026M-35 945L49 1000M49 1000L102 1012M49 1000L-1 1026M2609 1000L2559 1026M102 1012L-1 1026M102 1012L100 1095M2662 1012L2559 1026M225 965L277 968M277 968L367 1011M367 1011L473 1025M367 1011L331 1113M367 1011L425 1075M473 1025L487 980M473 1025L425 1075M473 1025L558 1092M613 1022L647 1036M613 1022L558 1092M613 1022L614 1081M647 1036L728 1030M647 1036L614 1081M647 1036L691 1084M728 1030L691 1084M728 1030L780 1094M826 979L906 1034M826 979L837 1084M906 1034L837 1084M906 1034L949 1066M1012 965L1083 1016M1012 965L949 1066M1083 1016L1035 1083M1083 1016L1119 1099M1173 967L1224 1017M1173 967L1186 1073M1224 1017L1288 1002M1224 1017L1186 1073M1224 1017L1270 1077M1224 1017L1333 1049M1288 1002L1366 978M1288 1002L1270 1077M1288 1002L1333 1049M1366 978L1333 1049M1505 979L1587 969M1505 979L1554 1077M1587 969L1676 968M1587 969L1554 1077M1676 968L1699 1009M1699 1009L1801 983M1699 1009L1750 1114M1699 1009L1774 1060M1801 983L1874 1031M1801 983L1774 1060M1874 1031L1774 1060M1874 1031L1910 1083M1951 964L2022 1011M2022 1011L2087 1028M2022 1011L2017 1051M2087 1028L2017 1051M2087 1028L2125 1097M2190 1003L2277 1014M2190 1003L2213 1098M2277 1014L2246 1088M2395 1037L2448 1022M2395 1037L2384 1085M2395 1037L2455 1085M2395 1037L2351 1144M2448 1022L2455 1085M71 1120L100 1095M71 1120L12 1163M71 1120L158 1162M100 1095L193 1111M100 1095L158 1162M100 1095L178 1133M193 1111L256 1076M193 1111L158 1162M193 1111L178 1133M193 1111L307 1124M256 1076L331 1113M256 1076L178 1133M256 1076L307 1124M331 1113L425 1075M331 1113L307 1124M331 1113L351 1159M558 1092L614 1081M558 1092L535 1188M558 1092L569 1145M614 1081L691 1084M614 1081L569 1145M691 1084L780 1094M780 1094L837 1084M780 1094L734 1161M837 1084L820 1170M837 1084L893 1159M949 1066L1035 1083M1035 1083L1119 1099M1035 1083L991 1172M1035 1083L1091 1156M1119 1099L1186 1073M1119 1099L1091 1156M1119 1099L1122 1182M1186 1073L1270 1077M1270 1077L1333 1049M1270 1077L1256 1175M1333 1049L1431 1077M1431 1077L1440 1116M1431 1077L1439 1144M1431 1077L1502 1144M1440 1116L1350 1188M1440 1116L1439 1144M1440 1116L1502 1144M1440 1116L1535 1150M1554 1077L1602 1095M1554 1077L1502 1144M1554 1077L1535 1150M1602 1095L1535 1150M1602 1095L1663 1180M1602 1095L1727 1136M1750 1114L1774 1060M1750 1114L1663 1180M1750 1114L1727 1136M1750 1114L1839 1163M1774 1060L1727 1136M1910 1083L1937 1106M1910 1083L1908 1159M1910 1083L1958 1139M1937 1106L2017 1051M1937 1106L1908 1159M1937 1106L1958 1139M2125 1097L2213 1098M2125 1097L2117 1152M2125 1097L2143 1201M2213 1098L2246 1088M2213 1098L2117 1152M2213 1098L2217 1171M2246 1088L2217 1171M2246 1088L2310 1145M2384 1085L2455 1085M2384 1085L2310 1145M2384 1085L2351 1144M2384 1085L2455 1142M2455 1085L2482 1118M2455 1085L2455 1142M2482 1118L2572 1163M2482 1118L2455 1142M2482 1118L2552 1191M-78 1118L12 1163M12 1163L-8 1191M12 1163L32 1267M12 1163L-4 1220M2572 1163L2552 1191M2572 1163L2556 1220M158 1162L178 1133M158 1162L159 1233M178 1133L159 1233M307 1124L351 1159M307 1124L264 1210M351 1159L455 1195M351 1159L264 1210M351 1159L381 1241M455 1195L535 1188M455 1195L381 1241M455 1195L476 1243M455 1195L509 1226M535 1188L569 1145M535 1188L476 1243M535 1188L509 1226M569 1145L509 1226M718 1198L734 1161M718 1198L708 1237M718 1198L792 1214M718 1198L806 1215M718 1198L718 1284M734 1161L820 1170M734 1161L708 1237M734 1161L792 1214M820 1170L893 1159M820 1170L792 1214M820 1170L806 1215M893 1159L991 1172M893 1159L910 1233M893 1159L970 1201M991 1172L1091 1156M991 1172L910 1233M991 1172L970 1201M1091 1156L1122 1182M1122 1182L1095 1269M1122 1182L1095 1292M1256 1175L1350 1188M1256 1175L1235 1245M1256 1175L1309 1224M1350 1188L1439 1144M1350 1188L1309 1224M1350 1188L1384 1235M1439 1144L1502 1144M1439 1144L1535 1150M1502 1144L1535 1150M1663 1180L1727 1136M1663 1180L1560 1247M1663 1180L1656 1261M1727 1136L1839 1163M1839 1163L1908 1159M1839 1163L1798 1251M1839 1163L1886 1201M1908 1159L1958 1139M1908 1159L1886 1201M1958 1139L2015 1186M1958 1139L1886 1201M2015 1186L2117 1152M2015 1186L2015 1263M2015 1186L2036 1298M2117 1152L2217 1171M2117 1152L2143 1201M2217 1171L2143 1201M2217 1171L2270 1239M2310 1145L2351 1144M2310 1145L2270 1239M2310 1145L2330 1223M2351 1144L2455 1142M2351 1144L2330 1223M2552 1191L2592 1267M2552 1191L2471 1252M2552 1191L2556 1220M-8 1191L32 1267M32 1267L-4 1220M32 1267L42 1352M32 1267L-34 1319M2592 1267L2556 1220M2592 1267L2526 1319M159 1233L232 1264M159 1233L264 1210M232 1264L264 1210M232 1264L209 1348M232 1264L311 1301M381 1241L476 1243M381 1241L360 1331M381 1241L430 1329M476 1243L509 1226M476 1243L430 1329M509 1226L616 1269M616 1269L613 1337M616 1269L718 1284M708 1237L792 1214M708 1237L718 1284M708 1237L746 1327M792 1214L806 1215M806 1215L874 1282M910 1233L970 1201M910 1233L874 1282M910 1233L944 1307M970 1201L996 1300M1095 1269L1188 1256M1095 1269L996 1300M1095 1269L1095 1292M1095 1269L1162 1295M1188 1256L1235 1245M1188 1256L1095 1292M1188 1256L1162 1295M1188 1256L1278 1284M1235 1245L1309 1224M1235 1245L1162 1295M1235 1245L1278 1284M1309 1224L1384 1235M1309 1224L1278 1284M1384 1235L1489 1255M1384 1235L1421 1286M1489 1255L1560 1247M1489 1255L1421 1286M1489 1255L1482 1322M1489 1255L1542 1288M1560 1247L1656 1261M1560 1247L1482 1322M1560 1247L1542 1288M1656 1261L1739 1267M1656 1261L1641 1339M1739 1267L1798 1251M1739 1267L1728 1335M1739 1267L1762 1302M1798 1251L1886 1201M1798 1251L1762 1302M1798 1251L1872 1311M1886 1201L1924 1266M1924 1266L2015 1263M1924 1266L1872 1311M1924 1266L1998 1326M1924 1266L1940 1364M2015 1263L1998 1326M2015 1263L2036 1298M2015 1263L1940 1364M2143 1201L2206 1274M2206 1274L2270 1239M2206 1274L2179 1325M2206 1274L2259 1360M2270 1239L2330 1223M2270 1239L2343 1300M2330 1223L2471 1252M2330 1223L2343 1300M2471 1252L2556 1220M2471 1252L2450 1354M2471 1252L2526 1319M42 1352L-34 1319M42 1352L50 1397M42 1352L91 1411M42 1352L-17 1387M2602 1352L2526 1319M2602 1352L2543 1387M122 1346L209 1348M122 1346L91 1411M122 1346L200 1406M209 1348L311 1301M209 1348L200 1406M209 1348L273 1394M311 1301L360 1331M311 1301L336 1377M360 1331L430 1329M360 1331L336 1377M360 1331L451 1366M430 1329L503 1346M430 1329L451 1366M503 1346L451 1366M503 1346L536 1365M503 1346L567 1397M613 1337L718 1284M613 1337L536 1365M613 1337L567 1397M613 1337L663 1419M718 1284L746 1327M746 1327L783 1399M874 1282L944 1307M874 1282L866 1364M874 1282L906 1390M944 1307L996 1300M944 1307L866 1364M944 1307L969 1394M996 1300L1095 1292M1095 1292L1162 1295M1278 1284L1317 1350M1278 1284L1263 1364M1317 1350L1263 1364M1317 1350L1320 1389M1317 1350L1394 1415M1421 1286L1482 1322M1421 1286L1446 1386M1482 1322L1542 1288M1482 1322L1446 1386M1542 1288L1641 1339M1542 1288L1586 1370M1641 1339L1728 1335M1641 1339L1586 1370M1641 1339L1678 1410M1728 1335L1762 1302M1728 1335L1752 1379M1728 1335L1815 1363M1762 1302L1752 1379M1762 1302L1815 1363M1872 1311L1815 1363M1872 1311L1914 1425M1872 1311L1940 1364M1998 1326L2036 1298M1998 1326L1940 1364M1998 1326L2069 1389M2036 1298L2107 1349M2036 1298L2069 1389M2107 1349L2179 1325M2107 1349L2069 1389M2107 1349L2143 1395M2107 1349L2180 1417M2179 1325L2259 1360M2179 1325L2143 1395M2179 1325L2180 1417M2259 1360L2310 1389M2343 1300L2310 1389M2343 1300L2370 1371M2450 1354L2526 1319M2450 1354L2370 1371M2450 1354L2416 1420M2450 1354L2543 1387M2526 1319L2543 1387M50 1397L91 1411M50 1397L-17 1387M2610 1397L2543 1387M200 1406L273 1394M273 1394L336 1377M451 1366L536 1365M536 1365L567 1397M567 1397L663 1419M663 1419L783 1399M783 1399L866 1364M866 1364L906 1390M866 1364L969 1394M906 1390L969 1394M1091 1430L1130 1408M1263 1364L1320 1389M1320 1389L1394 1415M1394 1415L1446 1386M1586 1370L1678 1410M1678 1410L1752 1379M1752 1379L1815 1363M1914 1425L1940 1364M2069 1389L2143 1395M2143 1395L2180 1417M2310 1389L2370 1371M2310 1389L2416 1420M2370 1371L2416 1420"/></svg>