<svg xmlns="http://www.w3.org/2000/svg" width="2560" height="1440" fill="#fff"><circle cx="18" cy="9" r="4"/><circle cx="131" cy="14" r="4"/><circle cx="175" cy="33" r="6"/><circle cx="242" cy="72" r="4"/><circle cx="370" cy="12" r="4"/><circle cx="408" cy="46" r="4"/><circle cx="517" cy="21" r="5"/><circle cx="628" cy="28" r="5"/><circle cx="710" cy="53" r="6"/><circle cx="786" cy="71" r="6"/><circle cx="877" cy="26" r="6"/><circle cx="937" cy="30" r="4"/><circle cx="1018" cy="61" r="5"/><circle cx="1047" cy="6" r="5"/><circle cx="1162" cy="58" r="4"/><circle cx="1256" cy="23" r="4"/><circle cx="1303" cy="38" r="5"/><circle cx="1437" cy="6" r="4"/><circle cx="1488" cy="38" r="6"/><circle cx="1569" cy="60" r="5"/><circle cx="1656" cy="72" r="4"/><circle cx="1700" cy="18" r="5"/><circle cx="1813" cy="75" r="5"/><circle cx="1860" cy="29" r="6"/><circle cx="1963" cy="41" r="5"/><circle cx="2032" cy="41" r="5"/><circle cx="2112" cy="48" r="6"/><circle cx="2236" cy="35" r="5"/><circle cx="2318" cy="57" r="4"/><circle cx="2375" cy="13" r="5"/><circle cx="2432" cy="51" r="6"/><circle cx="2552" cy="49" r="6"/><circle cx="59" cy="83" r="5"/><circle cx="99" cy="107" r="6"/><circle cx="206" cy="95" r="6"/><circle cx="247" cy="97" r="6"/><circle cx="343" cy="111" r="5"/><circle cx="421" cy="120" r="6"/><circle cx="484" cy="128" r="4"/><circle cx="603" cy="93" r="5"/><circle cx="650" cy="112" r="4"/><circle cx="770" cy="119" r="5"/><circle cx="802" cy="143" r="5"/><circle cx="948" cy="143" r="5"/><circle cx="1027" cy="130" r="6"/><circle cx="1108" cy="135" r="5"/><circle cx="1137" cy="159" r="5"/><circle cx="1237" cy="139" r="6"/><circle cx="1296" cy="115" r="5"/><circle cx="1412" cy="118" r="6"/><circle cx="1467" cy="128" r="4"/><circle cx="1535" cy="115" r="6"/><circle cx="1667" cy="159" r="5"/><circle cx="1701" cy="133" r="5"/><circle cx="1826" cy="120" r="6"/><circle cx="1869" cy="127" r="4"/><circle cx="1950" cy="95" r="4"/><circle cx="2054" cy="94" r="4"/><circle cx="2095" cy="135" r="5"/><circle cx="2194" cy="152" r="5"/><circle cx="2282" cy="90" r="5"/><circle cx="2328" cy="118" r="4"/><circle cx="2405" cy="101" r="4"/><circle cx="2494" cy="107" r="5"/><circle cx="34" cy="227" r="6"/><circle cx="118" cy="178" r="6"/><circle cx="161" cy="234" r="4"/><circle cx="302" cy="211" r="6"/><circle cx="373" cy="175" r="5"/><circle cx="443" cy="161" r="6"/><circle cx="552" cy="164" r="5"/><circle cx="614" cy="213" r="5"/><circle cx="645" cy="236" r="5"/><circle cx="742" cy="166" r="5"/><circle cx="802" cy="168" r="5"/><circle cx="952" cy="165" r="5"/><circle cx="966" cy="170" r="5"/><circle cx="1080" cy="219" r="6"/><circle cx="1180" cy="229" r="6"/><circle cx="1212" cy="174" r="5"/><circle cx="1303" cy="192" r="5"/><circle cx="1389" cy="218" r="6"/><circle cx="1511" cy="238" r="4"/><circle cx="1578" cy="194" r="4"/><circle cx="1617" cy="227" r="5"/><circle cx="1701" cy="182" r="6"/><circle cx="1796" cy="222" r="4"/><circle cx="1883" cy="181" r="6"/><circle cx="1990" cy="233" r="4"/><circle cx="2054" cy="207" r="5"/><circle cx="2149" cy="200" r="5"/><circle cx="2168" cy="161" r="4"/><circle cx="2281" cy="166" r="5"/><circle cx="2362" cy="198" r="4"/><circle cx="2411" cy="165" r="5"/><circle cx="2540" cy="171" r="5"/><circle cx="33" cy="261" r="5"/><circle cx="151" cy="315" r="5"/><circle cx="162" cy="304" r="5"/><circle cx="295" cy="312" r="4"/><circle cx="374" cy="294" r="5"/><circle cx="467" cy="283" r="6"/><circle cx="513" cy="309" r="4"/><circle cx="635" cy="318" r="5"/><circle cx="677" cy="272" r="5"/><circle cx="777" cy="277" r="4"/><circle cx="846" cy="299" r="6"/><circle cx="886" cy="275" r="4"/><circle cx="998" cy="282" r="5"/><circle cx="1109" cy="318" r="5"/><circle cx="1164" cy="291" r="5"/><circle cx="1256" cy="291" r="4"/><circle cx="1296" cy="313" r="5"/><circle cx="1415" cy="286" r="4"/><circle cx="1452" cy="245" r="4"/><circle cx="1591" cy="287" r="4"/><circle cx="1671" cy="302" r="5"/><circle cx="1683" cy="292" r="6"/><circle cx="1793" cy="309" r="4"/><circle cx="1882" cy="315" r="4"/><circle cx="1977" cy="285" r="5"/><circle cx="2054" cy="249" r="5"/><circle cx="2133" cy="265" r="6"/><circle cx="2212" cy="303" r="4"/><circle cx="2250" cy="277" r="4"/><circle cx="2369" cy="275" r="4"/><circle cx="2412" cy="272" r="4"/><circle cx="2500" cy="241" r="5"/><circle cx="8" cy="352" r="6"/><circle cx="92" cy="372" r="6"/><circle cx="161" cy="362" r="6"/><circle cx="272" cy="329" r="6"/><circle cx="374" cy="385" r="6"/><circle cx="409" cy="385" r="5"/><circle cx="519" cy="333" r="6"/><circle cx="631" cy="389" r="6"/><circle cx="658" cy="365" r="4"/><circle cx="727" cy="397" r="6"/><circle cx="851" cy="357" r="5"/><circle cx="959" cy="362" r="5"/><circle cx="1034" cy="359" r="5"/><circle cx="1066" cy="397" r="6"/><circle cx="1196" cy="398" r="6"/><circle cx="1207" cy="342" r="6"/><circle cx="1323" cy="320" r="4"/><circle cx="1427" cy="372" r="5"/><circle cx="1511" cy="367" r="5"/><circle cx="1594" cy="348" r="5"/><circle cx="1617" cy="378" r="5"/><circle cx="1735" cy="365" r="6"/><circle cx="1771" cy="366" r="6"/><circle cx="1855" cy="350" r="4"/><circle cx="1945" cy="370" r="6"/><circle cx="2071" cy="347" r="5"/><circle cx="2151" cy="340" r="5"/><circle cx="2230" cy="378" r="4"/><circle cx="2253" cy="321" r="5"/><circle cx="2383" cy="330" r="6"/><circle cx="2438" cy="357" r="5"/><circle cx="2489" cy="382" r="6"/><circle cx="54" cy="464" r="6"/><circle cx="103" cy="451" r="5"/><circle cx="226" cy="447" r="4"/><circle cx="285" cy="453" r="4"/><circle cx="384" cy="456" r="5"/><circle cx="427" cy="434" r="5"/><circle cx="560" cy="467" r="6"/><circle cx="582" cy="468" r="4"/><circle cx="642" cy="420" r="6"/><circle cx="727" cy="468" r="6"/><circle cx="847" cy="468" r="5"/><circle cx="901" cy="422" r="6"/><circle cx="972" cy="465" r="5"/><circle cx="1116" cy="464" r="5"/><circle cx="1134" cy="409" r="4"/><circle cx="1240" cy="442" r="6"/><circle cx="1286" cy="479" r="6"/><circle cx="1417" cy="464" r="5"/><circle cx="1454" cy="457" r="5"/><circle cx="1586" cy="416" r="4"/><circle cx="1625" cy="417" r="5"/><circle cx="1740" cy="461" r="5"/><circle cx="1815" cy="425" r="5"/><circle cx="1900" cy="472" r="5"/><circle cx="1942" cy="449" r="6"/><circle cx="2005" cy="462" r="6"/><circle cx="2103" cy="423" r="6"/><circle cx="2210" cy="455" r="5"/><circle cx="2259" cy="442" r="5"/><circle cx="2400" cy="410" r="6"/><circle cx="2438" cy="448" r="5"/><circle cx="2500" cy="428" r="5"/><circle cx="43" cy="503" r="5"/><circle cx="102" cy="545" r="6"/><circle cx="177" cy="524" r="4"/><circle cx="282" cy="552" r="5"/><circle cx="380" cy="539" r="4"/><circle cx="403" cy="538" r="4"/><circle cx="519" cy="500" r="6"/><circle cx="606" cy="490" r="5"/><circle cx="679" cy="498" r="5"/><circle cx="763" cy="545" r="6"/><circle cx="859" cy="542" r="6"/><circle cx="916" cy="531" r="5"/><circle cx="969" cy="518" r="5"/><circle cx="1051" cy="502" r="6"/><circle cx="1188" cy="515" r="4"/><circle cx="1230" cy="527" r="4"/><circle cx="1356" cy="545" r="4"/><circle cx="1404" cy="553" r="5"/><circle cx="1457" cy="505" r="5"/><circle cx="1596" cy="520" r="5"/><circle cx="1646" cy="515" r="5"/><circle cx="1735" cy="513" r="4"/><circle cx="1810" cy="508" r="6"/><circle cx="1851" cy="546" r="4"/><circle cx="1957" cy="533" r="6"/><circle cx="2007" cy="542" r="5"/><circle cx="2139" cy="521" r="5"/><circle cx="2206" cy="484" r="5"/><circle cx="2310" cy="543" r="6"/><circle cx="2381" cy="558" r="4"/><circle cx="2450" cy="495" r="6"/><circle cx="2493" cy="487" r="6"/><circle cx="74" cy="577" r="6"/><circle cx="139" cy="633" r="6"/><circle cx="225" cy="587" r="6"/><circle cx="286" cy="563" r="5"/><circle cx="373" cy="574" r="5"/><circle cx="450" cy="638" r="5"/><circle cx="544" cy="632" r="5"/><circle cx="580" cy="562" r="4"/><circle cx="680" cy="638" r="6"/><circle cx="756" cy="589" r="5"/><circle cx="870" cy="637" r="6"/><circle cx="906" cy="602" r="5"/><circle cx="976" cy="591" r="5"/><circle cx="1109" cy="628" r="6"/><circle cx="1171" cy="595" r="5"/><circle cx="1262" cy="569" r="6"/><circle cx="1323" cy="561" r="6"/><circle cx="1428" cy="613" r="4"/><circle cx="1456" cy="635" r="5"/><circle cx="1566" cy="597" r="5"/><circle cx="1664" cy="614" r="5"/><circle cx="1715" cy="588" r="5"/><circle cx="1802" cy="636" r="4"/><circle cx="1844" cy="611" r="5"/><circle cx="1931" cy="640" r="6"/><circle cx="2051" cy="575" r="4"/><circle cx="2083" cy="598" r="6"/><circle cx="2240" cy="586" r="5"/><circle cx="2253" cy="613" r="5"/><circle cx="2353" cy="566" r="6"/><circle cx="2401" cy="609" r="4"/><circle cx="2524" cy="570" r="6"/><circle cx="55" cy="652" r="5"/><circle cx="95" cy="648" r="5"/><circle cx="177" cy="695" r="6"/><circle cx="310" cy="692" r="5"/><circle cx="328" cy="712" r="5"/><circle cx="470" cy="653" r="4"/><circle cx="553" cy="705" r="5"/><circle cx="628" cy="713" r="5"/><circle cx="700" cy="649" r="5"/><circle cx="771" cy="670" r="6"/><circle cx="872" cy="681" r="5"/><circle cx="936" cy="708" r="5"/><circle cx="991" cy="692" r="4"/><circle cx="1049" cy="647" r="5"/><circle cx="1186" cy="707" r="5"/><circle cx="1212" cy="659" r="5"/><circle cx="1334" cy="705" r="5"/><circle cx="1414" cy="710" r="5"/><circle cx="1450" cy="651" r="5"/><circle cx="1534" cy="698" r="6"/><circle cx="1653" cy="700" r="5"/><circle cx="1691" cy="671" r="5"/><circle cx="1766" cy="700" r="6"/><circle cx="1917" cy="695" r="5"/><circle cx="1999" cy="650" r="6"/><circle cx="2017" cy="699" r="5"/><circle cx="2122" cy="640" r="6"/><circle cx="2237" cy="657" r="5"/><circle cx="2282" cy="707" r="5"/><circle cx="2367" cy="656" r="5"/><circle cx="2406" cy="679" r="5"/><circle cx="2529" cy="650" r="4"/><circle cx="40" cy="745" r="5"/><circle cx="122" cy="728" r="6"/><circle cx="212" cy="740" r="4"/><circle cx="253" cy="745" r="4"/><circle cx="327" cy="742" r="5"/><circle cx="406" cy="779" r="4"/><circle cx="527" cy="732" r="4"/><circle cx="584" cy="759" r="6"/><circle cx="710" cy="775" r="4"/><circle cx="741" cy="745" r="5"/><circle cx="867" cy="785" r="5"/><circle cx="955" cy="725" r="6"/><circle cx="1030" cy="773" r="4"/><circle cx="1090" cy="722" r="5"/><circle cx="1148" cy="720" r="4"/><circle cx="1270" cy="790" r="5"/><circle cx="1299" cy="799" r="5"/><circle cx="1364" cy="795" r="5"/><circle cx="1449" cy="789" r="5"/><circle cx="1583" cy="787" r="5"/><circle cx="1610" cy="766" r="5"/><circle cx="1748" cy="749" r="5"/><circle cx="1811" cy="766" r="5"/><circle cx="1841" cy="781" r="6"/><circle cx="1981" cy="768" r="5"/><circle cx="2057" cy="775" r="5"/><circle cx="2160" cy="778" r="4"/><circle cx="2218" cy="728" r="5"/><circle cx="2258" cy="729" r="4"/><circle cx="2335" cy="775" r="6"/><circle cx="2437" cy="798" r="6"/><circle cx="2527" cy="773" r="5"/><circle cx="75" cy="838" r="4"/><circle cx="112" cy="835" r="4"/><circle cx="231" cy="815" r="4"/><circle cx="244" cy="843" r="5"/><circle cx="388" cy="831" r="4"/><circle cx="404" cy="812" r="6"/><circle cx="489" cy="824" r="5"/><circle cx="607" cy="855" r="5"/><circle cx="707" cy="831" r="6"/><circle cx="739" cy="867" r="4"/><circle cx="866" cy="876" r="6"/><circle cx="958" cy="852" r="5"/><circle cx="1001" cy="826" r="4"/><circle cx="1118" cy="861" r="6"/><circle cx="1121" cy="805" r="5"/><circle cx="1211" cy="880" r="5"/><circle cx="1302" cy="831" r="5"/><circle cx="1416" cy="801" r="5"/><circle cx="1508" cy="842" r="4"/><circle cx="1567" cy="860" r="4"/><circle cx="1655" cy="833" r="5"/><circle cx="1681" cy="839" r="5"/><circle cx="1791" cy="817" r="4"/><circle cx="1851" cy="877" r="6"/><circle cx="1932" cy="804" r="6"/><circle cx="2066" cy="846" r="4"/><circle cx="2105" cy="819" r="4"/><circle cx="2176" cy="814" r="6"/><circle cx="2252" cy="825" r="4"/><circle cx="2322" cy="803" r="5"/><circle cx="2448" cy="872" r="5"/><circle cx="2526" cy="808" r="5"/><circle cx="33" cy="943" r="5"/><circle cx="115" cy="933" r="5"/><circle cx="239" cy="941" r="4"/><circle cx="241" cy="937" r="5"/><circle cx="393" cy="928" r="5"/><circle cx="408" cy="911" r="5"/><circle cx="497" cy="926" r="6"/><circle cx="561" cy="914" r="5"/><circle cx="669" cy="920" r="4"/><circle cx="721" cy="884" r="5"/><circle cx="856" cy="932" r="5"/><circle cx="900" cy="922" r="5"/><circle cx="982" cy="921" r="5"/><circle cx="1106" cy="932" r="5"/><circle cx="1150" cy="953" r="5"/><circle cx="1270" cy="930" r="4"/><circle cx="1357" cy="886" r="6"/><circle cx="1425" cy="916" r="5"/><circle cx="1465" cy="946" r="5"/><circle cx="1533" cy="934" r="6"/><circle cx="1646" cy="950" r="6"/><circle cx="1693" cy="933" r="6"/><circle cx="1789" cy="911" r="4"/><circle cx="1889" cy="953" r="5"/><circle cx="1980" cy="905" r="5"/><circle cx="2036" cy="950" r="6"/><circle cx="2146" cy="895" r="4"/><circle cx="2165" cy="887" r="5"/><circle cx="2260" cy="931" r="5"/><circle cx="2357" cy="940" r="5"/><circle cx="2467" cy="920" r="5"/><circle cx="2520" cy="948" r="5"/><circle cx="70" cy="969" r="6"/><circle cx="139" cy="1033" r="5"/><circle cx="219" cy="972" r="5"/><circle cx="251" cy="1024" r="4"/><circle cx="392" cy="984" r="4"/><circle cx="406" cy="1007" r="5"/><circle cx="553" cy="973" r="5"/><circle cx="605" cy="1033" r="5"/><circle cx="666" cy="985" r="4"/><circle cx="794" cy="1005" r="5"/><circle cx="862" cy="1038" r="5"/><circle cx="951" cy="1020" r="4"/><circle cx="1016" cy="975" r="5"/><circle cx="1096" cy="1033" r="4"/><circle cx="1178" cy="1022" r="6"/><circle cx="1251" cy="1019" r="4"/><circle cx="1325" cy="1015" r="6"/><circle cx="1400" cy="987" r="5"/><circle cx="1450" cy="977" r="4"/><circle cx="1555" cy="1039" r="5"/><circle cx="1674" cy="966" r="6"/><circle cx="1686" cy="994" r="5"/><circle cx="1807" cy="968" r="6"/><circle cx="1902" cy="982" r="6"/><circle cx="1922" cy="982" r="5"/><circle cx="2072" cy="1014" r="5"/><circle cx="2099" cy="1029" r="4"/><circle cx="2215" cy="1022" r="6"/><circle cx="2290" cy="1011" r="5"/><circle cx="2371" cy="971" r="4"/><circle cx="2471" cy="984" r="6"/><circle cx="2494" cy="972" r="6"/><circle cx="48" cy="1056" r="5"/><circle cx="94" cy="1087" r="4"/><circle cx="216" cy="1059" r="4"/><circle cx="248" cy="1076" r="6"/><circle cx="385" cy="1081" r="6"/><circle cx="443" cy="1111" r="5"/><circle cx="501" cy="1059" r="6"/><circle cx="603" cy="1084" r="5"/><circle cx="720" cy="1077" r="4"/><circle cx="733" cy="1092" r="5"/><circle cx="851" cy="1071" r="5"/><circle cx="885" cy="1096" r="4"/><circle cx="973" cy="1112" r="4"/><circle cx="1065" cy="1113" r="4"/><circle cx="1140" cy="1115" r="5"/><circle cx="1270" cy="1079" r="5"/><circle cx="1318" cy="1091" r="4"/><circle cx="1404" cy="1065" r="4"/><circle cx="1514" cy="1066" r="5"/><circle cx="1549" cy="1101" r="5"/><circle cx="1608" cy="1072" r="5"/><circle cx="1744" cy="1054" r="4"/><circle cx="1834" cy="1097" r="4"/><circle cx="1862" cy="1051" r="5"/><circle cx="1947" cy="1076" r="4"/><circle cx="2067" cy="1099" r="5"/><circle cx="2082" cy="1045" r="5"/><circle cx="2189" cy="1072" r="5"/><circle cx="2252" cy="1075" r="6"/><circle cx="2328" cy="1088" r="6"/><circle cx="2427" cy="1042" r="5"/><circle cx="2493" cy="1075" r="5"/><circle cx="56" cy="1185" r="5"/><circle cx="115" cy="1194" r="4"/><circle cx="206" cy="1172" r="5"/><circle cx="281" cy="1183" r="4"/><circle cx="330" cy="1158" r="5"/><circle cx="470" cy="1164" r="6"/><circle cx="557" cy="1123" r="6"/><circle cx="634" cy="1129" r="6"/><circle cx="708" cy="1139" r="6"/><circle cx="722" cy="1193" r="5"/><circle cx="879" cy="1184" r="4"/><circle cx="904" cy="1137" r="4"/><circle cx="977" cy="1195" r="6"/><circle cx="1103" cy="1141" r="5"/><circle cx="1194" cy="1133" r="5"/><circle cx="1274" cy="1139" r="4"/><circle cx="1349" cy="1143" r="4"/><circle cx="1375" cy="1161" r="4"/><circle cx="1507" cy="1193" r="4"/><circle cx="1541" cy="1130" r="5"/><circle cx="1660" cy="1139" r="5"/><circle cx="1717" cy="1195" r="5"/><circle cx="1787" cy="1169" r="6"/><circle cx="1885" cy="1176" r="4"/><circle cx="1978" cy="1142" r="6"/><circle cx="2034" cy="1186" r="5"/><circle cx="2154" cy="1135" r="5"/><circle cx="2236" cy="1123" r="5"/><circle cx="2300" cy="1160" r="5"/><circle cx="2342" cy="1133" r="6"/><circle cx="2457" cy="1146" r="5"/><circle cx="2541" cy="1130" r="6"/><circle cx="71" cy="1255" r="5"/><circle cx="93" cy="1263" r="5"/><circle cx="189" cy="1209" r="4"/><circle cx="295" cy="1277" r="5"/><circle cx="377" cy="1275" r="6"/><circle cx="419" cy="1234" r="4"/><circle cx="531" cy="1226" r="6"/><circle cx="563" cy="1206" r="6"/><circle cx="652" cy="1237" r="4"/><circle cx="729" cy="1203" r="5"/><circle cx="848" cy="1204" r="5"/><circle cx="923" cy="1249" r="6"/><circle cx="1025" cy="1245" r="4"/><circle cx="1112" cy="1270" r="6"/><circle cx="1130" cy="1272" r="6"/><circle cx="1277" cy="1210" r="5"/><circle cx="1353" cy="1276" r="5"/><circle cx="1394" cy="1209" r="5"/><circle cx="1445" cy="1278" r="5"/><circle cx="1578" cy="1274" r="5"/><circle cx="1680" cy="1259" r="5"/><circle cx="1732" cy="1212" r="5"/><circle cx="1810" cy="1201" r="4"/><circle cx="1904" cy="1271" r="6"/><circle cx="1983" cy="1248" r="5"/><circle cx="2026" cy="1264" r="6"/><circle cx="2148" cy="1275" r="5"/><circle cx="2171" cy="1251" r="5"/><circle cx="2296" cy="1210" r="5"/><circle cx="2400" cy="1234" r="6"/><circle cx="2402" cy="1261" r="5"/><circle cx="2519" cy="1223" r="4"/><circle cx="71" cy="1359" r="5"/><circle cx="134" cy="1345" r="5"/><circle cx="211" cy="1346" r="5"/><circle cx="297" cy="1320" r="5"/><circle cx="343" cy="1322" r="5"/><circle cx="427" cy="1313" r="5"/><circle cx="547" cy="1326" r="5"/><circle cx="563" cy="1337" r="5"/><circle cx="653" cy="1298" r="5"/><circle cx="723" cy="1287" r="5"/><circle cx="810" cy="1320" r="4"/><circle cx="928" cy="1341" r="5"/><circle cx="994" cy="1328" r="6"/><circle cx="1072" cy="1333" r="5"/><circle cx="1172" cy="1311" r="6"/><circle cx="1269" cy="1284" r="5"/><circle cx="1294" cy="1318" r="5"/><circle cx="1402" cy="1333" r="5"/><circle cx="1493" cy="1297" r="6"/><circle cx="1533" cy="1347" r="4"/><circle cx="1640" cy="1327" r="5"/><circle cx="1694" cy="1322" r="5"/><circle cx="1827" cy="1281" r="4"/><circle cx="1906" cy="1337" r="6"/><circle cx="1928" cy="1330" r="6"/><circle cx="2027" cy="1320" r="5"/><circle cx="2088" cy="1299" r="4"/><circle cx="2231" cy="1324" r="5"/><circle cx="2252" cy="1337" r="4"/><circle cx="2328" cy="1333" r="5"/><circle cx="2469" cy="1336" r="5"/><circle cx="2502" cy="1297" r="5"/><circle cx="64" cy="1393" r="6"/><circle cx="80" cy="1362" r="5"/><circle cx="191" cy="1439" r="4"/><circle cx="191" cy="-1" r="4"/><circle cx="246" cy="1370" r="6"/><circle cx="332" cy="1386" r="6"/><circle cx="444" cy="1366" r="6"/><circle cx="555" cy="1378" r="5"/><circle cx="567" cy="1392" r="5"/><circle cx="655" cy="1399" r="5"/><circle cx="757" cy="1389" r="5"/><circle cx="839" cy="1384" r="4"/><circle cx="928" cy="1401" r="4"/><circle cx="1005" cy="1412" r="5"/><circle cx="1083" cy="1375" r="4"/><circle cx="1165" cy="1404" r="5"/><circle cx="1219" cy="1431" r="5"/><circle cx="1356" cy="1379" r="5"/><circle cx="1377" cy="1373" r="5"/><circle cx="1457" cy="1378" r="5"/><circle cx="1587" cy="1432" r="5"/><circle cx="1664" cy="1433" r="5"/><circle cx="1705" cy="1363" r="5"/><circle cx="1805" cy="1383" r="6"/><circle cx="1865" cy="1371" r="6"/><circle cx="1938" cy="1414" r="5"/><circle cx="2060" cy="1417" r="4"/><circle cx="2093" cy="1414" r="6"/><circle cx="2171" cy="1431" r="5"/><circle cx="2274" cy="1429" r="6"/><circle cx="2399" cy="1392" r="5"/><circle cx="2452" cy="1409" r="4"/><circle cx="2491" cy="1369" r="6"/><path stroke="#fff" d="M18 9L-8 49M18 9L59 83M18 9L64 -47M18 9L-69 -71M2578 9L2552 49M2578 9L2491 -71M18 1449L64 1393M18 1449L-69 1369M2578 1449L2491 1369M131 14L175 33M131 14L99 107M131 14L64 -47M131 14L191 -1M131 1454L64 1393M131 1454L191 1439M175 33L242 72M175 33L206 95M175 33L247 97M175 33L191 -1M175 1473L191 1439M242 72L206 95M242 72L247 97M370 12L408 46M370 12L332 -54M370 1452L332 1386M408 46L343 111M408 46L421 120M517 21L603 93M517 21L444 -74M517 21L555 -62M517 21L567 -48M517 1461L444 1366M517 1461L555 1378M517 1461L567 1392M628 28L710 53M628 28L603 93M628 28L650 112M628 28L655 -41M628 1468L655 1399M710 53L786 71M710 53L650 112M710 53L770 119M710 53L655 -41M710 1493L655 1399M786 71L877 26M786 71L770 119M786 71L802 143M786 71L802 168M877 26L937 30M877 26L839 -56M877 26L928 -39M877 1466L839 1384M877 1466L928 1401M937 30L1018 61M937 30L928 -39M937 1470L928 1401M1018 61L1047 6M1018 61L948 143M1018 61L1027 130M1018 61L1005 -28M1018 1501L1005 1412M1047 6L1005 -28M1047 6L1083 -65M1047 1446L1005 1412M1047 1446L1083 1375M1162 58L1108 135M1162 58L1165 -36M1162 58L1219 -9M1162 1498L1165 1404M1162 1498L1219 1431M1256 23L1303 38M1256 23L1165 -36M1256 23L1219 -9M1256 1463L1165 1404M1256 1463L1219 1431M1303 38L1296 115M1303 38L1219 -9M1303 38L1356 -61M1303 1478L1219 1431M1303 1478L1356 1379M1437 6L1488 38M1437 6L1377 -67M1437 6L1457 -62M1437 1446L1377 1373M1437 1446L1457 1378M1488 38L1569 60M1488 38L1412 118M1488 38L1467 128M1488 38L1535 115M1569 60L1656 72M1569 60L1535 115M1569 60L1587 -8M1569 1500L1587 1432M1656 72L1700 18M1656 72L1667 159M1656 72L1701 133M1656 72L1664 -7M1656 1512L1664 1433M1700 18L1587 -8M1700 18L1664 -7M1700 18L1705 -77M1700 1458L1587 1432M1700 1458L1664 1433M1700 1458L1705 1363M1813 75L1860 29M1813 75L1826 120M1813 75L1869 127M1813 75L1883 181M1860 29L1826 120M1860 29L1805 -57M1860 29L1865 -69M1860 29L1938 -26M1860 1469L1805 1383M1860 1469L1865 1371M1860 1469L1938 1414M1963 41L2032 41M1963 41L1950 95M1963 41L2054 94M1963 41L1938 -26M1963 41L2060 -23M1963 1481L1938 1414M1963 1481L2060 1417M2032 41L2112 48M2032 41L2054 94M2032 41L2060 -23M2032 41L2093 -26M2032 1481L2060 1417M2032 1481L2093 1414M2112 48L2054 94M2112 48L2095 135M2112 48L2093 -26M2112 48L2171 -9M2112 1488L2093 1414M2112 1488L2171 1431M2236 35L2318 57M2236 35L2282 90M2236 35L2171 -9M2236 35L2274 -11M2236 1475L2171 1431M2236 1475L2274 1429M2318 57L2375 13M2318 57L2282 90M2318 57L2328 118M2318 57L2274 -11M2318 1497L2274 1429M2375 13L2432 51M2375 13L2274 -11M2375 13L2399 -48M2375 13L2452 -31M2375 1453L2274 1429M2375 1453L2399 1392M2375 1453L2452 1409M2432 51L2405 101M2432 51L2494 107M2432 51L2452 -31M2432 1491L2452 1409M2552 49L2619 83M2552 49L2659 107M2552 49L2494 107M-8 49L59 83M-8 49L99 107M59 83L99 107M59 83L118 178M59 83L-20 171M2619 83L2540 171M99 107L206 95M99 107L118 178M206 95L247 97M206 95L191 -1M206 1535L191 1439M247 97L343 111M343 111L421 120M343 111L302 211M343 111L373 175M421 120L484 128M421 120L373 175M421 120L443 161M484 128L443 161M484 128L552 164M603 93L650 112M603 93L552 164M603 93L614 213M650 112L742 166M770 119L802 143M770 119L742 166M770 119L802 168M802 143L742 166M802 143L802 168M948 143L1027 130M948 143L952 165M948 143L966 170M1027 130L1108 135M1027 130L952 165M1027 130L966 170M1108 135L1137 159M1108 135L1080 219M1137 159L1237 139M1137 159L1080 219M1137 159L1180 229M1137 159L1212 174M1237 139L1296 115M1237 139L1180 229M1237 139L1212 174M1237 139L1303 192M1296 115L1412 118M1296 115L1212 174M1296 115L1303 192M1412 118L1467 128M1412 118L1535 115M1412 118L1389 218M1467 128L1535 115M1467 128L1389 218M1535 115L1578 194M1667 159L1701 133M1667 159L1578 194M1667 159L1617 227M1667 159L1701 182M1701 133L1701 182M1826 120L1869 127M1826 120L1796 222M1826 120L1883 181M1869 127L1950 95M1869 127L1883 181M1950 95L2054 94M1950 95L1883 181M2054 94L2095 135M2095 135L2054 207M2095 135L2149 200M2095 135L2168 161M2194 152L2149 200M2194 152L2168 161M2194 152L2281 166M2282 90L2328 118M2282 90L2281 166M2328 118L2405 101M2328 118L2281 166M2328 118L2362 198M2405 101L2494 107M2405 101L2411 165M2494 107L2411 165M2494 107L2540 171M34 227L118 178M34 227L-20 171M34 227L33 261M34 227L-60 241M2594 227L2540 171M2594 227L2500 241M118 178L161 234M118 178L33 261M161 234L151 315M161 234L162 304M302 211L373 175M302 211L295 312M302 211L272 329M373 175L443 161M443 161L552 164M443 161L467 283M552 164L614 213M552 164L645 236M614 213L645 236M614 213L677 272M645 236L742 166M645 236L635 318M645 236L677 272M742 166L802 168M802 168L777 277M952 165L966 170M952 165L998 282M966 170L998 282M1080 219L1180 229M1080 219L998 282M1080 219L1164 291M1180 229L1212 174M1180 229L1164 291M1212 174L1303 192M1303 192L1389 218M1303 192L1296 313M1389 218L1415 286M1389 218L1452 245M1511 238L1578 194M1511 238L1415 286M1511 238L1452 245M1578 194L1617 227M1617 227L1701 182M1617 227L1591 287M1617 227L1683 292M1701 182L1796 222M1796 222L1883 181M1796 222L1793 309M1990 233L2054 207M1990 233L1977 285M1990 233L2054 249M2054 207L2149 200M2054 207L2054 249M2054 207L2133 265M2149 200L2168 161M2149 200L2133 265M2281 166L2362 198M2281 166L2250 277M2362 198L2411 165M2362 198L2369 275M2362 198L2412 272M2411 165L2500 241M2540 171L2593 261M2540 171L2500 241M-20 171L33 261M33 261L-60 241M33 261L8 352M2593 261L2500 241M151 315L162 304M151 315L92 372M151 315L161 362M162 304L161 362M295 312L374 294M295 312L272 329M374 294L467 283M374 294L272 329M374 294L374 385M374 294L409 385M467 283L513 309M467 283L409 385M467 283L519 333M513 309L519 333M635 318L677 272M635 318L631 389M635 318L658 365M677 272L777 277M677 272L658 365M777 277L846 299M846 299L886 275M846 299L851 357M886 275L851 357M998 282L959 362M998 282L1034 359M1109 318L1164 291M1109 318L1034 359M1109 318L1066 397M1109 318L1134 409M1164 291L1256 291M1164 291L1207 342M1256 291L1296 313M1256 291L1207 342M1256 291L1323 320M1296 313L1207 342M1296 313L1323 320M1415 286L1452 245M1415 286L1323 320M1415 286L1427 372M1591 287L1671 302M1591 287L1683 292M1591 287L1594 348M1591 287L1617 378M1671 302L1683 292M1671 302L1617 378M1671 302L1735 365M1683 292L1735 365M1793 309L1882 315M1793 309L1735 365M1793 309L1771 366M1793 309L1855 350M1882 315L1977 285M1882 315L1855 350M1882 315L1945 370M1977 285L2054 249M1977 285L1945 370M1977 285L2071 347M2054 249L2133 265M2054 249L2071 347M2133 265L2212 303M2133 265L2151 340M2212 303L2250 277M2212 303L2151 340M2212 303L2230 378M2212 303L2253 321M2250 277L2253 321M2369 275L2412 272M2369 275L2383 330M2412 272L2500 241M2412 272L2383 330M8 352L92 372M8 352L-71 382M2568 352L2489 382M92 372L161 362M92 372L54 464M92 372L103 451M161 362L272 329M161 362L103 451M272 329L374 385M374 385L409 385M374 385L384 456M374 385L427 434M409 385L384 456M409 385L427 434M631 389L658 365M631 389L727 397M631 389L560 467M631 389L642 420M658 365L727 397M658 365L642 420M727 397L642 420M727 397L727 468M727 397L679 498M851 357L901 422M959 362L1034 359M959 362L901 422M959 362L972 465M1034 359L1066 397M1066 397L1116 464M1066 397L1134 409M1066 397L1051 502M1196 398L1207 342M1196 398L1116 464M1196 398L1134 409M1196 398L1240 442M1207 342L1240 442M1323 320L1427 372M1427 372L1511 367M1427 372L1417 464M1427 372L1454 457M1511 367L1594 348M1511 367L1454 457M1511 367L1586 416M1594 348L1617 378M1594 348L1586 416M1594 348L1625 417M1617 378L1586 416M1617 378L1625 417M1735 365L1771 366M1735 365L1740 461M1771 366L1855 350M1771 366L1740 461M1771 366L1815 425M1855 350L1945 370M1855 350L1815 425M1945 370L1942 449M1945 370L2005 462M2071 347L2151 340M2071 347L2103 423M2151 340L2230 378M2151 340L2103 423M2230 378L2253 321M2230 378L2210 455M2230 378L2259 442M2253 321L2259 442M2383 330L2438 357M2383 330L2400 410M2438 357L2489 382M2438 357L2400 410M2438 357L2500 428M2489 382L2400 410M2489 382L2438 448M2489 382L2500 428M54 464L103 451M54 464L43 503M54 464L102 545M103 451L43 503M103 451L102 545M226 447L285 453M226 447L177 524M285 453L282 552M285 453L286 563M384 456L427 434M384 456L380 539M384 456L403 538M427 434L403 538M427 434L519 500M560 467L582 468M560 467L519 500M560 467L606 490M582 468L642 420M582 468L519 500M582 468L606 490M582 468L679 498M642 420L606 490M727 468L847 468M727 468L679 498M727 468L763 545M847 468L901 422M847 468L763 545M847 468L859 542M901 422L972 465M972 465L916 531M972 465L969 518M972 465L1051 502M1116 464L1134 409M1116 464L1051 502M1116 464L1188 515M1240 442L1286 479M1240 442L1188 515M1240 442L1230 527M1286 479L1230 527M1286 479L1356 545M1286 479L1262 569M1286 479L1323 561M1417 464L1454 457M1417 464L1356 545M1417 464L1404 553M1417 464L1457 505M1454 457L1457 505M1586 416L1625 417M1586 416L1596 520M1625 417L1596 520M1625 417L1646 515M1740 461L1815 425M1740 461L1735 513M1740 461L1810 508M1815 425L1900 472M1815 425L1810 508M1900 472L1942 449M1900 472L1810 508M1900 472L1851 546M1900 472L1957 533M1942 449L2005 462M1942 449L1957 533M2005 462L2103 423M2005 462L1957 533M2005 462L2007 542M2103 423L2210 455M2103 423L2139 521M2210 455L2259 442M2210 455L2139 521M2210 455L2206 484M2259 442L2206 484M2259 442L2310 543M2400 410L2438 448M2400 410L2450 495M2438 448L2500 428M2438 448L2450 495M2438 448L2493 487M2500 428L2450 495M2500 428L2493 487M43 503L102 545M43 503L74 577M43 503L-36 570M2603 503L2524 570M102 545L177 524M102 545L74 577M177 524L225 587M282 552L380 539M282 552L225 587M282 552L286 563M282 552L373 574M380 539L403 538M380 539L286 563M380 539L373 574M403 538L373 574M519 500L606 490M519 500L580 562M606 490L679 498M679 498L763 545M763 545L859 542M763 545L756 589M859 542L916 531M859 542L870 637M859 542L906 602M916 531L969 518M916 531L906 602M916 531L976 591M969 518L1051 502M969 518L976 591M1051 502L976 591M1188 515L1230 527M1188 515L1171 595M1188 515L1262 569M1230 527L1262 569M1230 527L1323 561M1356 545L1404 553M1356 545L1323 561M1404 553L1457 505M1404 553L1323 561M1404 553L1428 613M1457 505L1428 613M1596 520L1646 515M1596 520L1566 597M1646 515L1735 513M1646 515L1664 614M1646 515L1715 588M1735 513L1810 508M1735 513L1715 588M1810 508L1851 546M1851 546L1802 636M1851 546L1844 611M1957 533L2007 542M1957 533L1931 640M2007 542L2051 575M2007 542L2083 598M2139 521L2206 484M2139 521L2051 575M2139 521L2083 598M2206 484L2240 586M2310 543L2381 558M2310 543L2240 586M2310 543L2253 613M2310 543L2353 566M2381 558L2353 566M2381 558L2401 609M2381 558L2367 656M2450 495L2493 487M2450 495L2524 570M2493 487L2524 570M74 577L139 633M74 577L55 652M74 577L95 648M139 633L225 587M139 633L55 652M139 633L95 648M139 633L177 695M225 587L286 563M286 563L373 574M373 574L450 638M450 638L544 632M450 638L470 653M544 632L580 562M544 632L470 653M544 632L553 705M544 632L527 732M680 638L756 589M680 638L628 713M680 638L700 649M680 638L771 670M680 638L741 745M756 589L700 649M756 589L771 670M870 637L906 602M870 637L771 670M870 637L872 681M870 637L936 708M906 602L976 591M906 602L872 681M976 591L1049 647M1109 628L1171 595M1109 628L1049 647M1109 628L1212 659M1109 628L1090 722M1109 628L1148 720M1171 595L1262 569M1171 595L1186 707M1171 595L1212 659M1262 569L1323 561M1428 613L1456 635M1428 613L1450 651M1456 635L1566 597M1456 635L1414 710M1456 635L1450 651M1456 635L1534 698M1566 597L1664 614M1566 597L1450 651M1566 597L1534 698M1664 614L1715 588M1664 614L1653 700M1664 614L1691 671M1715 588L1802 636M1715 588L1691 671M1802 636L1844 611M1802 636L1766 700M1844 611L1931 640M1931 640L1917 695M1931 640L1999 650M1931 640L2017 699M2051 575L2083 598M2051 575L1999 650M2051 575L2122 640M2083 598L1999 650M2083 598L2122 640M2240 586L2253 613M2240 586L2237 657M2253 613L2353 566M2253 613L2237 657M2253 613L2282 707M2353 566L2401 609M2353 566L2367 656M2401 609L2367 656M2401 609L2406 679M2524 570L2529 650M55 652L95 648M55 652L-31 650M55 652L40 745M2615 652L2529 650M95 648L177 695M95 648L122 728M177 695L122 728M177 695L212 740M310 692L328 712M310 692L253 745M310 692L327 742M328 712L253 745M328 712L327 742M328 712L406 779M470 653L553 705M553 705L628 713M553 705L527 732M553 705L584 759M628 713L700 649M628 713L527 732M628 713L584 759M700 649L771 670M700 649L741 745M771 670L741 745M872 681L936 708M872 681L867 785M872 681L955 725M936 708L991 692M936 708L867 785M936 708L955 725M991 692L1049 647M991 692L955 725M991 692L1030 773M1049 647L1090 722M1186 707L1212 659M1186 707L1148 720M1212 659L1148 720M1334 705L1414 710M1334 705L1270 790M1334 705L1299 799M1414 710L1450 651M1414 710L1449 789M1414 710L1416 801M1450 651L1534 698M1534 698L1583 787M1534 698L1610 766M1653 700L1691 671M1653 700L1610 766M1691 671L1766 700M1691 671L1748 749M1766 700L1748 749M1766 700L1811 766M1917 695L1999 650M1917 695L2017 699M1917 695L1981 768M1917 695L1932 804M1999 650L2017 699M2017 699L1981 768M2017 699L2057 775M2237 657L2282 707M2237 657L2218 728M2237 657L2258 729M2282 707L2218 728M2282 707L2258 729M2282 707L2335 775M2367 656L2406 679M40 745L122 728M40 745L-33 773M40 745L75 838M40 745L-34 808M2600 745L2527 773M2600 745L2526 808M122 728L212 740M122 728L112 835M212 740L253 745M212 740L231 815M212 740L244 843M253 745L327 742M253 745L231 815M327 742L406 779M327 742L404 812M406 779L388 831M406 779L404 812M406 779L489 824M527 732L584 759M527 732L489 824M584 759L489 824M584 759L607 855M710 775L741 745M710 775L707 831M710 775L739 867M710 775L721 884M741 745L707 831M867 785L955 725M867 785L866 876M867 785L958 852M955 725L1030 773M1030 773L1090 722M1030 773L1001 826M1030 773L1121 805M1090 722L1148 720M1090 722L1121 805M1148 720L1121 805M1270 790L1299 799M1270 790L1211 880M1270 790L1302 831M1299 799L1364 795M1299 799L1302 831M1299 799L1357 886M1364 795L1449 789M1364 795L1302 831M1364 795L1416 801M1364 795L1357 886M1449 789L1416 801M1449 789L1508 842M1583 787L1610 766M1583 787L1508 842M1583 787L1567 860M1583 787L1655 833M1610 766L1655 833M1610 766L1681 839M1748 749L1811 766M1748 749L1841 781M1748 749L1791 817M1811 766L1841 781M1811 766L1791 817M1841 781L1791 817M1841 781L1851 877M1841 781L1932 804M1981 768L2057 775M1981 768L1932 804M2057 775L2160 778M2057 775L2066 846M2057 775L2105 819M2160 778L2218 728M2160 778L2105 819M2160 778L2176 814M2218 728L2258 729M2258 729L2335 775M2258 729L2322 803M2335 775L2437 798M2335 775L2252 825M2335 775L2322 803M2437 798L2527 773M2437 798L2322 803M2437 798L2448 872M2437 798L2526 808M2527 773L2526 808M75 838L112 835M75 838L-34 808M75 838L115 933M2635 838L2526 808M112 835L115 933M231 815L244 843M244 843L239 941M244 843L241 937M388 831L404 812M388 831L393 928M388 831L408 911M404 812L489 824M404 812L408 911M489 824L497 926M607 855L707 831M607 855L561 914M607 855L669 920M607 855L721 884M707 831L739 867M707 831L721 884M739 867L669 920M739 867L721 884M866 876L958 852M866 876L856 932M866 876L900 922M958 852L1001 826M958 852L900 922M958 852L982 921M1001 826L1118 861M1001 826L982 921M1118 861L1121 805M1118 861L1211 880M1118 861L1106 932M1118 861L1150 953M1211 880L1302 831M1211 880L1150 953M1211 880L1270 930M1302 831L1357 886M1416 801L1508 842M1416 801L1357 886M1508 842L1567 860M1508 842L1533 934M1567 860L1655 833M1567 860L1533 934M1655 833L1681 839M1681 839L1646 950M1681 839L1693 933M1791 817L1851 877M1791 817L1789 911M1851 877L1789 911M1851 877L1889 953M1851 877L1807 968M1932 804L1980 905M2066 846L2105 819M2066 846L2146 895M2105 819L2176 814M2105 819L2165 887M2176 814L2252 825M2176 814L2146 895M2176 814L2165 887M2252 825L2322 803M2252 825L2165 887M2252 825L2260 931M2448 872L2526 808M2448 872L2467 920M33 943L115 933M33 943L-40 948M33 943L70 969M2593 943L2520 948M115 933L70 969M115 933L139 1033M239 941L241 937M239 941L219 972M239 941L251 1024M241 937L219 972M241 937L251 1024M393 928L408 911M393 928L497 926M393 928L392 984M393 928L406 1007M408 911L497 926M408 911L392 984M497 926L561 914M497 926L553 973M561 914L669 920M561 914L553 973M669 920L721 884M669 920L666 985M856 932L900 922M856 932L794 1005M856 932L862 1038M900 922L982 921M982 921L951 1020M982 921L1016 975M1106 932L1150 953M1106 932L1016 975M1150 953L1096 1033M1150 953L1178 1022M1270 930L1251 1019M1357 886L1425 916M1425 916L1465 946M1425 916L1533 934M1425 916L1400 987M1425 916L1450 977M1465 946L1533 934M1465 946L1400 987M1465 946L1450 977M1533 934L1450 977M1646 950L1693 933M1646 950L1555 1039M1646 950L1674 966M1646 950L1686 994M1693 933L1789 911M1693 933L1674 966M1693 933L1686 994M1789 911L1807 968M1889 953L1807 968M1889 953L1902 982M1889 953L1922 982M1980 905L2036 950M1980 905L1922 982M2036 950L2072 1014M2036 950L2099 1029M2036 950L2082 1045M2146 895L2165 887M2165 887L2260 931M2260 931L2357 940M2260 931L2215 1022M2260 931L2290 1011M2357 940L2371 971M2467 920L2520 948M2467 920L2371 971M2467 920L2471 984M2467 920L2494 972M2520 948L2630 969M2520 948L2471 984M2520 948L2494 972M-40 948L70 969M70 969L139 1033M70 969L48 1056M139 1033L48 1056M139 1033L94 1087M139 1033L216 1059M219 972L251 1024M219 972L216 1059M219 972L248 1076M251 1024L216 1059M251 1024L248 1076M392 984L406 1007M392 984L385 1081M406 1007L385 1081M406 1007L443 1111M406 1007L501 1059M553 973L605 1033M553 973L501 1059M605 1033L666 985M605 1033L603 1084M605 1033L634 1129M794 1005L862 1038M794 1005L720 1077M794 1005L733 1092M794 1005L851 1071M862 1038L951 1020M862 1038L851 1071M862 1038L885 1096M951 1020L1016 975M951 1020L973 1112M1016 975L1096 1033M1096 1033L1178 1022M1096 1033L1065 1113M1096 1033L1140 1115M1178 1022L1251 1019M1178 1022L1140 1115M1178 1022L1194 1133M1251 1019L1325 1015M1251 1019L1270 1079M1325 1015L1400 987M1325 1015L1270 1079M1325 1015L1318 1091M1325 1015L1404 1065M1400 987L1450 977M1400 987L1404 1065M1450 977L1404 1065M1555 1039L1514 1066M1555 1039L1549 1101M1555 1039L1608 1072M1555 1039L1541 1130M1674 966L1686 994M1674 966L1744 1054M1686 994L1744 1054M1807 968L1902 982M1807 968L1862 1051M1902 982L1922 982M1902 982L1862 1051M1902 982L1947 1076M1922 982L1862 1051M1922 982L1947 1076M2072 1014L2099 1029M2072 1014L2067 1099M2072 1014L2082 1045M2099 1029L2067 1099M2099 1029L2082 1045M2099 1029L2189 1072M2215 1022L2290 1011M2215 1022L2189 1072M2215 1022L2252 1075M2290 1011L2371 971M2290 1011L2252 1075M2290 1011L2328 1088M2371 971L2427 1042M2471 984L2494 972M2471 984L2427 1042M2471 984L2493 1075M2494 972L2427 1042M2494 972L2493 1075M48 1056L94 1087M48 1056L-19 1130M2608 1056L2541 1130M216 1059L248 1076M216 1059L206 1172M248 1076L206 1172M248 1076L330 1158M385 1081L443 1111M385 1081L330 1158M443 1111L501 1059M443 1111L470 1164M501 1059L557 1123M603 1084L557 1123M603 1084L634 1129M720 1077L733 1092M720 1077L708 1139M733 1092L708 1139M733 1092L722 1193M851 1071L885 1096M851 1071L904 1137M885 1096L973 1112M885 1096L879 1184M885 1096L904 1137M973 1112L1065 1113M973 1112L904 1137M973 1112L977 1195M1065 1113L1140 1115M1065 1113L1103 1141M1140 1115L1103 1141M1140 1115L1194 1133M1270 1079L1318 1091M1270 1079L1194 1133M1270 1079L1274 1139M1318 1091L1404 1065M1318 1091L1274 1139M1318 1091L1349 1143M1514 1066L1549 1101M1514 1066L1608 1072M1514 1066L1541 1130M1549 1101L1608 1072M1549 1101L1507 1193M1549 1101L1541 1130M1608 1072L1541 1130M1608 1072L1660 1139M1744 1054L1834 1097M1834 1097L1862 1051M1834 1097L1787 1169M1834 1097L1885 1176M1862 1051L1947 1076M1947 1076L1978 1142M2067 1099L2082 1045M2067 1099L1978 1142M2067 1099L2154 1135M2189 1072L2252 1075M2189 1072L2154 1135M2189 1072L2236 1123M2252 1075L2328 1088M2252 1075L2236 1123M2328 1088L2236 1123M2328 1088L2300 1160M2328 1088L2342 1133M2427 1042L2493 1075M2493 1075L2457 1146M2493 1075L2541 1130M56 1185L115 1194M56 1185L-19 1130M56 1185L71 1255M56 1185L93 1263M56 1185L-41 1223M2616 1185L2541 1130M2616 1185L2519 1223M115 1194L206 1172M115 1194L71 1255M115 1194L93 1263M115 1194L189 1209M206 1172L281 1183M206 1172L189 1209M281 1183L330 1158M281 1183L189 1209M281 1183L295 1277M470 1164L557 1123M470 1164L419 1234M470 1164L531 1226M470 1164L563 1206M557 1123L634 1129M557 1123L563 1206M634 1129L708 1139M634 1129L563 1206M708 1139L722 1193M708 1139L729 1203M722 1193L652 1237M722 1193L729 1203M722 1193L723 1287M879 1184L904 1137M879 1184L977 1195M879 1184L848 1204M879 1184L923 1249M904 1137L848 1204M977 1195L848 1204M977 1195L923 1249M977 1195L1025 1245M1103 1141L1194 1133M1194 1133L1274 1139M1274 1139L1349 1143M1274 1139L1277 1210M1349 1143L1375 1161M1349 1143L1277 1210M1349 1143L1394 1209M1375 1161L1394 1209M1507 1193L1541 1130M1507 1193L1578 1274M1507 1193L1493 1297M1660 1139L1717 1195M1660 1139L1732 1212M1717 1195L1787 1169M1717 1195L1680 1259M1717 1195L1732 1212M1717 1195L1810 1201M1787 1169L1885 1176M1787 1169L1732 1212M1787 1169L1810 1201M1885 1176L1978 1142M1885 1176L1810 1201M1978 1142L2034 1186M2034 1186L1983 1248M2034 1186L2026 1264M2154 1135L2236 1123M2154 1135L2171 1251M2236 1123L2300 1160M2300 1160L2342 1133M2300 1160L2296 1210M2342 1133L2457 1146M2342 1133L2296 1210M2342 1133L2400 1234M2457 1146L2541 1130M2457 1146L2400 1234M2457 1146L2519 1223M2541 1130L2519 1223M71 1255L93 1263M71 1255L71 1359M93 1263L71 1359M93 1263L134 1345M295 1277L377 1275M295 1277L297 1320M295 1277L343 1322M295 1277L246 1370M377 1275L419 1234M377 1275L297 1320M377 1275L343 1322M377 1275L427 1313M419 1234L531 1226M419 1234L427 1313M531 1226L563 1206M531 1226L547 1326M531 1226L563 1337M563 1206L652 1237M652 1237L729 1203M652 1237L653 1298M652 1237L723 1287M729 1203L848 1204M729 1203L723 1287M848 1204L923 1249M923 1249L928 1341M923 1249L994 1328M1025 1245L1112 1270M1025 1245L1130 1272M1025 1245L994 1328M1112 1270L1130 1272M1112 1270L1072 1333M1112 1270L1172 1311M1112 1270L1083 1375M1130 1272L1072 1333M1130 1272L1172 1311M1277 1210L1269 1284M1277 1210L1294 1318M1353 1276L1394 1209M1353 1276L1445 1278M1353 1276L1269 1284M1353 1276L1294 1318M1353 1276L1402 1333M1394 1209L1445 1278M1445 1278L1402 1333M1445 1278L1493 1297M1578 1274L1680 1259M1578 1274L1493 1297M1578 1274L1533 1347M1578 1274L1640 1327M1680 1259L1732 1212M1680 1259L1640 1327M1680 1259L1694 1322M1732 1212L1810 1201M1810 1201L1827 1281M1904 1271L1983 1248M1904 1271L1827 1281M1904 1271L1906 1337M1904 1271L1928 1330M1983 1248L2026 1264M1983 1248L2027 1320M2026 1264L2027 1320M2026 1264L2088 1299M2148 1275L2171 1251M2148 1275L2088 1299M2148 1275L2231 1324M2171 1251L2088 1299M2171 1251L2231 1324M2171 1251L2252 1337M2296 1210L2400 1234M2296 1210L2402 1261M2400 1234L2402 1261M2402 1261L2328 1333M2402 1261L2469 1336M2402 1261L2502 1297M2519 1223L2502 1297M71 1359L134 1345M71 1359L64 1393M71 1359L80 1362M134 1345L211 1346M134 1345L64 1393M134 1345L80 1362M211 1346L191 1439M211 1346L246 1370M297 1320L343 1322M297 1320L246 1370M297 1320L332 1386M343 1322L427 1313M343 1322L332 1386M427 1313L444 1366M547 1326L563 1337M547 1326L444 1366M547 1326L555 1378M547 1326L567 1392M563 1337L653 1298M563 1337L555 1378M563 1337L567 1392M653 1298L723 1287M653 1298L655 1399M723 1287L810 1320M810 1320L757 1389M810 1320L839 1384M928 1341L994 1328M928 1341L839 1384M928 1341L928 1401M994 1328L1072 1333M994 1328L1005 1412M1072 1333L1172 1311M1072 1333L1083 1375M1172 1311L1269 1284M1172 1311L1165 1404M1269 1284L1294 1318M1294 1318L1356 1379M1294 1318L1377 1373M1402 1333L1356 1379M1402 1333L1377 1373M1402 1333L1457 1378M1493 1297L1533 1347M1493 1297L1457 1378M1533 1347L1457 1378M1533 1347L1587 1432M1640 1327L1694 1322M1640 1327L1664 1433M1640 1327L1705 1363M1694 1322L1705 1363M1827 1281L1805 1383M1906 1337L1928 1330M1906 1337L1805 1383M1906 1337L1865 1371M1906 1337L1938 1414M1928 1330L2027 1320M1928 1330L1865 1371M1928 1330L1938 1414M2027 1320L2088 1299M2027 1320L2093 1414M2231 1324L2252 1337M2231 1324L2328 1333M2252 1337L2328 1333M2252 1337L2274 1429M2328 1333L2399 1392M2469 1336L2502 1297M2469 1336L2399 1392M2469 1336L2452 1409M2469 1336L2491 1369M2502 1297L2491 1369M64 1393L80 1362M191 1439L246 1370M246 1370L332 1386M332 1386L444 1366M555 1378L567 1392M555 1378L655 1399M567 1392L655 1399M757 1389L839 1384M839 1384L928 1401M928 1401L1005 1412M1005 1412L1083 1375M1083 1375L1165 1404M1165 1404L1219 1431M1356 1379L1377 1373M1377 1373L1457 1378M1587 1432L1664 1433M1664 1433L1705 1363M1705 1363L1805 1383M1805 1383L1865 1371M1865 1371L1938 1414M2060 1417L2093 1414M2060 1417L2171 1431M2093 1414L2171 1431M2171 1431L2274 1429M2399 1392L2452 1409M2399 1392L2491 1369M2452 1409L2491 1369"/></svg>