<svg xmlns="http://www.w3.org/2000/svg" width="2560" height="1440" fill="#fff"><circle cx="39" cy="78" r="4"/><circle cx="119" cy="32" r="4"/><circle cx="200" cy="10" r="5"/><circle cx="316" cy="11" r="5"/><circle cx="394" cy="71" r="4"/><circle cx="427" cy="27" r="5"/><circle cx="490" cy="61" r="4"/><circle cx="575" cy="69" r="6"/><circle cx="708" cy="18" r="5"/><circle cx="762" cy="23" r="4"/><circle cx="869" cy="57" r="6"/><circle cx="884" cy="68" r="4"/><circle cx="1037" cy="41" r="5"/><circle cx="1109" cy="23" r="4"/><circle cx="1141" cy="27" r="6"/><circle cx="1258" cy="15" r="5"/><circle cx="1285" cy="66" r="5"/><circle cx="1397" cy="23" r="6"/><circle cx="1489" cy="50" r="4"/><circle cx="1526" cy="57" r="4"/><circle cx="1675" cy="14" r="4"/><circle cx="1683" cy="42" r="4"/><circle cx="1807" cy="33" r="5"/><circle cx="1890" cy="67" r="5"/><circle cx="1984" cy="79" r="5"/><circle cx="2012" cy="71" r="6"/><circle cx="2087" cy="24" r="6"/><circle cx="2180" cy="65" r="4"/><circle cx="2273" cy="52" r="5"/><circle cx="2399" cy="31" r="5"/><circle cx="2430" cy="54" r="5"/><circle cx="2498" cy="47" r="4"/><circle cx="47" cy="128" r="5"/><circle cx="95" cy="153" r="6"/><circle cx="178" cy="104" r="4"/><circle cx="287" cy="101" r="6"/><circle cx="353" cy="117" r="5"/><circle cx="460" cy="120" r="4"/><circle cx="486" cy="97" r="5"/><circle cx="620" cy="149" r="6"/><circle cx="684" cy="85" r="5"/><circle cx="720" cy="158" r="5"/><circle cx="829" cy="142" r="6"/><circle cx="956" cy="144" r="4"/><circle cx="1023" cy="111" r="5"/><circle cx="1091" cy="155" r="4"/><circle cx="1196" cy="84" r="4"/><circle cx="1223" cy="142" r="6"/><circle cx="1280" cy="140" r="4"/><circle cx="1431" cy="141" r="5"/><circle cx="1511" cy="133" r="6"/><circle cx="1585" cy="121" r="5"/><circle cx="1625" cy="127" r="6"/><circle cx="1715" cy="156" r="6"/><circle cx="1804" cy="91" r="5"/><circle cx="1843" cy="85" r="5"/><circle cx="1946" cy="81" r="4"/><circle cx="2052" cy="102" r="6"/><circle cx="2145" cy="100" r="5"/><circle cx="2161" cy="127" r="4"/><circle cx="2279" cy="123" r="5"/><circle cx="2397" cy="92" r="5"/><circle cx="2457" cy="125" r="6"/><circle cx="2482" cy="107" r="6"/><circle cx="51" cy="187" r="4"/><circle cx="114" cy="229" r="5"/><circle cx="178" cy="235" r="5"/><circle cx="297" cy="209" r="5"/><circle cx="374" cy="207" r="5"/><circle cx="443" cy="212" r="5"/><circle cx="539" cy="176" r="6"/><circle cx="562" cy="233" r="6"/><circle cx="653" cy="211" r="6"/><circle cx="723" cy="162" r="5"/><circle cx="865" cy="167" r="4"/><circle cx="923" cy="198" r="5"/><circle cx="995" cy="198" r="6"/><circle cx="1055" cy="180" r="4"/><circle cx="1164" cy="191" r="6"/><circle cx="1255" cy="232" r="4"/><circle cx="1281" cy="222" r="6"/><circle cx="1433" cy="219" r="5"/><circle cx="1474" cy="219" r="5"/><circle cx="1590" cy="195" r="6"/><circle cx="1657" cy="226" r="6"/><circle cx="1734" cy="238" r="5"/><circle cx="1832" cy="218" r="5"/><circle cx="1847" cy="169" r="5"/><circle cx="1970" cy="233" r="5"/><circle cx="2058" cy="164" r="4"/><circle cx="2153" cy="183" r="4"/><circle cx="2229" cy="174" r="6"/><circle cx="2318" cy="233" r="6"/><circle cx="2384" cy="176" r="4"/><circle cx="2466" cy="175" r="5"/><circle cx="2480" cy="180" r="4"/><circle cx="32" cy="293" r="4"/><circle cx="96" cy="266" r="5"/><circle cx="165" cy="240" r="5"/><circle cx="246" cy="283" r="6"/><circle cx="374" cy="291" r="4"/><circle cx="463" cy="241" r="5"/><circle cx="488" cy="262" r="4"/><circle cx="621" cy="289" r="5"/><circle cx="665" cy="253" r="5"/><circle cx="738" cy="272" r="6"/><circle cx="834" cy="285" r="5"/><circle cx="902" cy="313" r="4"/><circle cx="998" cy="246" r="5"/><circle cx="1060" cy="246" r="5"/><circle cx="1177" cy="288" r="4"/><circle cx="1242" cy="308" r="5"/><circle cx="1340" cy="295" r="6"/><circle cx="1438" cy="263" r="6"/><circle cx="1450" cy="244" r="5"/><circle cx="1574" cy="304" r="5"/><circle cx="1631" cy="291" r="4"/><circle cx="1688" cy="285" r="5"/><circle cx="1834" cy="272" r="4"/><circle cx="1911" cy="248" r="6"/><circle cx="1932" cy="289" r="6"/><circle cx="2046" cy="297" r="5"/><circle cx="2123" cy="277" r="6"/><circle cx="2181" cy="320" r="5"/><circle cx="2298" cy="249" r="5"/><circle cx="2393" cy="256" r="4"/><circle cx="2411" cy="311" r="5"/><circle cx="2492" cy="248" r="5"/><circle cx="13" cy="329" r="4"/><circle cx="108" cy="332" r="6"/><circle cx="170" cy="320" r="6"/><circle cx="308" cy="356" r="5"/><circle cx="334" cy="345" r="6"/><circle cx="440" cy="370" r="5"/><circle cx="486" cy="379" r="6"/><circle cx="610" cy="360" r="5"/><circle cx="682" cy="371" r="4"/><circle cx="778" cy="359" r="5"/><circle cx="866" cy="327" r="6"/><circle cx="915" cy="396" r="6"/><circle cx="1036" cy="385" r="6"/><circle cx="1113" cy="389" r="5"/><circle cx="1195" cy="395" r="5"/><circle cx="1201" cy="353" r="4"/><circle cx="1341" cy="353" r="5"/><circle cx="1368" cy="390" r="5"/><circle cx="1441" cy="398" r="5"/><circle cx="1521" cy="359" r="6"/><circle cx="1672" cy="372" r="5"/><circle cx="1714" cy="371" r="5"/><circle cx="1778" cy="357" r="5"/><circle cx="1884" cy="332" r="6"/><circle cx="1997" cy="399" r="5"/><circle cx="2022" cy="393" r="5"/><circle cx="2128" cy="336" r="4"/><circle cx="2181" cy="399" r="6"/><circle cx="2296" cy="331" r="5"/><circle cx="2329" cy="331" r="4"/><circle cx="2457" cy="380" r="6"/><circle cx="2526" cy="352" r="5"/><circle cx="72" cy="445" r="5"/><circle cx="108" cy="447" r="5"/><circle cx="191" cy="424" r="5"/><circle cx="246" cy="413" r="6"/><circle cx="384" cy="423" r="5"/><circle cx="415" cy="447" r="5"/><circle cx="555" cy="461" r="5"/><circle cx="562" cy="419" r="5"/><circle cx="720" cy="416" r="6"/><circle cx="769" cy="465" r="6"/><circle cx="802" cy="457" r="5"/><circle cx="891" cy="474" r="6"/><circle cx="1018" cy="444" r="6"/><circle cx="1059" cy="409" r="6"/><circle cx="1190" cy="426" r="5"/><circle cx="1264" cy="425" r="5"/><circle cx="1324" cy="439" r="6"/><circle cx="1402" cy="444" r="4"/><circle cx="1456" cy="407" r="5"/><circle cx="1545" cy="418" r="5"/><circle cx="1622" cy="405" r="5"/><circle cx="1735" cy="465" r="6"/><circle cx="1838" cy="454" r="6"/><circle cx="1903" cy="471" r="5"/><circle cx="1943" cy="477" r="5"/><circle cx="2055" cy="417" r="6"/><circle cx="2091" cy="474" r="5"/><circle cx="2198" cy="465" r="5"/><circle cx="2266" cy="424" r="5"/><circle cx="2389" cy="409" r="5"/><circle cx="2466" cy="474" r="4"/><circle cx="2530" cy="428" r="5"/><circle cx="7" cy="545" r="4"/><circle cx="105" cy="491" r="5"/><circle cx="185" cy="495" r="4"/><circle cx="251" cy="517" r="5"/><circle cx="321" cy="528" r="5"/><circle cx="470" cy="481" r="4"/><circle cx="560" cy="483" r="5"/><circle cx="598" cy="560" r="5"/><circle cx="672" cy="498" r="5"/><circle cx="742" cy="532" r="4"/><circle cx="876" cy="535" r="4"/><circle cx="928" cy="503" r="5"/><circle cx="999" cy="488" r="5"/><circle cx="1108" cy="513" r="6"/><circle cx="1152" cy="554" r="5"/><circle cx="1229" cy="508" r="4"/><circle cx="1357" cy="551" r="4"/><circle cx="1367" cy="543" r="6"/><circle cx="1507" cy="523" r="6"/><circle cx="1571" cy="480" r="4"/><circle cx="1656" cy="542" r="4"/><circle cx="1694" cy="547" r="4"/><circle cx="1786" cy="550" r="5"/><circle cx="1880" cy="556" r="5"/><circle cx="1994" cy="512" r="6"/><circle cx="2066" cy="556" r="6"/><circle cx="2144" cy="521" r="5"/><circle cx="2239" cy="559" r="5"/><circle cx="2297" cy="550" r="4"/><circle cx="2357" cy="550" r="5"/><circle cx="2466" cy="528" r="5"/><circle cx="2530" cy="487" r="5"/><circle cx="1" cy="577" r="4"/><circle cx="2561" cy="577" r="4"/><circle cx="153" cy="626" r="5"/><circle cx="201" cy="635" r="6"/><circle cx="289" cy="560" r="5"/><circle cx="356" cy="562" r="4"/><circle cx="460" cy="616" r="4"/><circle cx="490" cy="605" r="4"/><circle cx="581" cy="604" r="6"/><circle cx="648" cy="563" r="5"/><circle cx="735" cy="628" r="4"/><circle cx="817" cy="639" r="5"/><circle cx="942" cy="561" r="4"/><circle cx="966" cy="637" r="4"/><circle cx="1047" cy="594" r="6"/><circle cx="1182" cy="602" r="5"/><circle cx="1238" cy="566" r="5"/><circle cx="1293" cy="634" r="4"/><circle cx="1363" cy="621" r="4"/><circle cx="1514" cy="631" r="4"/><circle cx="1590" cy="588" r="4"/><circle cx="1670" cy="628" r="6"/><circle cx="1735" cy="571" r="5"/><circle cx="1816" cy="604" r="5"/><circle cx="1874" cy="566" r="4"/><circle cx="1988" cy="605" r="6"/><circle cx="2026" cy="574" r="6"/><circle cx="2132" cy="572" r="4"/><circle cx="2234" cy="610" r="4"/><circle cx="2276" cy="598" r="4"/><circle cx="2321" cy="618" r="4"/><circle cx="2435" cy="570" r="5"/><circle cx="2483" cy="579" r="4"/><circle cx="12" cy="648" r="6"/><circle cx="155" cy="640" r="5"/><circle cx="166" cy="645" r="6"/><circle cx="318" cy="670" r="5"/><circle cx="347" cy="711" r="6"/><circle cx="447" cy="675" r="4"/><circle cx="500" cy="693" r="4"/><circle cx="591" cy="713" r="4"/><circle cx="713" cy="690" r="5"/><circle cx="783" cy="680" r="6"/><circle cx="840" cy="655" r="5"/><circle cx="889" cy="674" r="4"/><circle cx="1012" cy="681" r="6"/><circle cx="1105" cy="656" r="6"/><circle cx="1159" cy="716" r="4"/><circle cx="1263" cy="694" r="5"/><circle cx="1310" cy="650" r="5"/><circle cx="1437" cy="685" r="4"/><circle cx="1455" cy="691" r="6"/><circle cx="1527" cy="652" r="5"/><circle cx="1619" cy="687" r="4"/><circle cx="1714" cy="663" r="5"/><circle cx="1787" cy="645" r="6"/><circle cx="1841" cy="648" r="4"/><circle cx="1948" cy="681" r="4"/><circle cx="2028" cy="649" r="5"/><circle cx="2106" cy="669" r="5"/><circle cx="2165" cy="640" r="5"/><circle cx="2315" cy="704" r="4"/><circle cx="2340" cy="668" r="5"/><circle cx="2429" cy="656" r="5"/><circle cx="2493" cy="699" r="6"/><circle cx="59" cy="783" r="5"/><circle cx="122" cy="775" r="5"/><circle cx="223" cy="746" r="6"/><circle cx="300" cy="736" r="4"/><circle cx="396" cy="767" r="5"/><circle cx="445" cy="768" r="4"/><circle cx="557" cy="772" r="4"/><circle cx="629" cy="723" r="5"/><circle cx="720" cy="769" r="4"/><circle cx="790" cy="769" r="5"/><circle cx="858" cy="800" r="6"/><circle cx="886" cy="754" r="6"/><circle cx="1011" cy="727" r="6"/><circle cx="1106" cy="741" r="5"/><circle cx="1183" cy="762" r="5"/><circle cx="1227" cy="749" r="4"/><circle cx="1345" cy="786" r="5"/><circle cx="1415" cy="745" r="5"/><circle cx="1501" cy="775" r="5"/><circle cx="1565" cy="725" r="6"/><circle cx="1622" cy="787" r="6"/><circle cx="1750" cy="740" r="4"/><circle cx="1781" cy="752" r="5"/><circle cx="1911" cy="779" r="5"/><circle cx="1944" cy="752" r="4"/><circle cx="2007" cy="751" r="5"/><circle cx="2154" cy="760" r="6"/><circle cx="2193" cy="743" r="5"/><circle cx="2240" cy="796" r="5"/><circle cx="2390" cy="775" r="4"/><circle cx="2443" cy="795" r="5"/><circle cx="2496" cy="796" r="4"/><circle cx="78" cy="824" r="5"/><circle cx="137" cy="879" r="5"/><circle cx="165" cy="811" r="6"/><circle cx="314" cy="835" r="4"/><circle cx="376" cy="834" r="5"/><circle cx="463" cy="865" r="6"/><circle cx="547" cy="816" r="5"/><circle cx="588" cy="860" r="5"/><circle cx="667" cy="867" r="6"/><circle cx="748" cy="851" r="6"/><circle cx="819" cy="827" r="5"/><circle cx="933" cy="859" r="4"/><circle cx="976" cy="859" r="4"/><circle cx="1044" cy="830" r="5"/><circle cx="1187" cy="837" r="4"/><circle cx="1235" cy="819" r="4"/><circle cx="1302" cy="807" r="4"/><circle cx="1384" cy="824" r="6"/><circle cx="1486" cy="814" r="6"/><circle cx="1553" cy="880" r="4"/><circle cx="1622" cy="816" r="4"/><circle cx="1684" cy="819" r="6"/><circle cx="1804" cy="826" r="5"/><circle cx="1884" cy="841" r="5"/><circle cx="1926" cy="830" r="6"/><circle cx="2004" cy="859" r="6"/><circle cx="2144" cy="815" r="4"/><circle cx="2183" cy="872" r="5"/><circle cx="2300" cy="801" r="4"/><circle cx="2395" cy="805" r="6"/><circle cx="2444" cy="824" r="5"/><circle cx="2487" cy="842" r="6"/><circle cx="60" cy="953" r="4"/><circle cx="140" cy="884" r="5"/><circle cx="217" cy="922" r="5"/><circle cx="283" cy="930" r="5"/><circle cx="336" cy="946" r="5"/><circle cx="409" cy="882" r="6"/><circle cx="497" cy="921" r="5"/><circle cx="599" cy="911" r="5"/><circle cx="644" cy="960" r="5"/><circle cx="757" cy="916" r="6"/><circle cx="814" cy="954" r="4"/><circle cx="888" cy="947" r="5"/><circle cx="979" cy="959" r="5"/><circle cx="1111" cy="934" r="5"/><circle cx="1182" cy="940" r="5"/><circle cx="1249" cy="947" r="5"/><circle cx="1308" cy="937" r="4"/><circle cx="1407" cy="948" r="6"/><circle cx="1475" cy="881" r="4"/><circle cx="1581" cy="937" r="5"/><circle cx="1636" cy="946" r="6"/><circle cx="1717" cy="955" r="5"/><circle cx="1787" cy="895" r="5"/><circle cx="1840" cy="914" r="5"/><circle cx="1944" cy="941" r="4"/><circle cx="2079" cy="958" r="5"/><circle cx="2080" cy="949" r="4"/><circle cx="2230" cy="907" r="6"/><circle cx="2258" cy="943" r="4"/><circle cx="2340" cy="948" r="6"/><circle cx="2427" cy="924" r="5"/><circle cx="2556" cy="885" r="4"/><circle cx="12" cy="1018" r="6"/><circle cx="121" cy="1017" r="4"/><circle cx="173" cy="976" r="5"/><circle cx="244" cy="1002" r="6"/><circle cx="366" cy="975" r="5"/><circle cx="467" cy="1023" r="5"/><circle cx="531" cy="1014" r="5"/><circle cx="610" cy="988" r="5"/><circle cx="706" cy="965" r="5"/><circle cx="721" cy="1040" r="4"/><circle cx="853" cy="1037" r="4"/><circle cx="901" cy="996" r="6"/><circle cx="1011" cy="1016" r="4"/><circle cx="1067" cy="994" r="5"/><circle cx="1163" cy="1027" r="6"/><circle cx="1266" cy="996" r="5"/><circle cx="1290" cy="1014" r="5"/><circle cx="1398" cy="1030" r="4"/><circle cx="1453" cy="1016" r="6"/><circle cx="1570" cy="970" r="6"/><circle cx="1630" cy="969" r="4"/><circle cx="1683" cy="993" r="5"/><circle cx="1761" cy="1030" r="4"/><circle cx="1849" cy="966" r="5"/><circle cx="1971" cy="1003" r="6"/><circle cx="2068" cy="964" r="5"/><circle cx="2137" cy="1039" r="5"/><circle cx="2166" cy="998" r="5"/><circle cx="2241" cy="1033" r="6"/><circle cx="2331" cy="985" r="6"/><circle cx="2453" cy="989" r="5"/><circle cx="2524" cy="974" r="6"/><circle cx="11" cy="1079" r="5"/><circle cx="128" cy="1073" r="5"/><circle cx="204" cy="1047" r="6"/><circle cx="260" cy="1118" r="5"/><circle cx="374" cy="1053" r="5"/><circle cx="429" cy="1058" r="4"/><circle cx="550" cy="1091" r="4"/><circle cx="575" cy="1080" r="6"/><circle cx="683" cy="1072" r="5"/><circle cx="734" cy="1040" r="6"/><circle cx="815" cy="1096" r="5"/><circle cx="912" cy="1081" r="5"/><circle cx="983" cy="1096" r="6"/><circle cx="1113" cy="1053" r="6"/><circle cx="1176" cy="1113" r="5"/><circle cx="1278" cy="1111" r="5"/><circle cx="1347" cy="1056" r="6"/><circle cx="1378" cy="1078" r="5"/><circle cx="1506" cy="1090" r="6"/><circle cx="1593" cy="1075" r="5"/><circle cx="1679" cy="1054" r="5"/><circle cx="1727" cy="1115" r="5"/><circle cx="1818" cy="1052" r="4"/><circle cx="1871" cy="1060" r="4"/><circle cx="1992" cy="1045" r="5"/><circle cx="2040" cy="1058" r="6"/><circle cx="2082" cy="1080" r="5"/><circle cx="2190" cy="1042" r="4"/><circle cx="2279" cy="1089" r="5"/><circle cx="2367" cy="1105" r="4"/><circle cx="2447" cy="1043" r="5"/><circle cx="2541" cy="1053" r="5"/><circle cx="44" cy="1147" r="5"/><circle cx="131" cy="1147" r="4"/><circle cx="188" cy="1185" r="4"/><circle cx="298" cy="1169" r="5"/><circle cx="353" cy="1173" r="6"/><circle cx="434" cy="1138" r="5"/><circle cx="500" cy="1141" r="5"/><circle cx="567" cy="1152" r="4"/><circle cx="694" cy="1168" r="5"/><circle cx="794" cy="1125" r="4"/><circle cx="874" cy="1181" r="5"/><circle cx="901" cy="1190" r="5"/><circle cx="1012" cy="1184" r="5"/><circle cx="1101" cy="1121" r="4"/><circle cx="1146" cy="1139" r="5"/><circle cx="1244" cy="1173" r="6"/><circle cx="1295" cy="1189" r="5"/><circle cx="1370" cy="1164" r="5"/><circle cx="1482" cy="1121" r="6"/><circle cx="1531" cy="1185" r="5"/><circle cx="1639" cy="1126" r="5"/><circle cx="1681" cy="1130" r="5"/><circle cx="1811" cy="1192" r="6"/><circle cx="1914" cy="1183" r="5"/><circle cx="1995" cy="1168" r="4"/><circle cx="2012" cy="1129" r="5"/><circle cx="2092" cy="1194" r="4"/><circle cx="2166" cy="1189" r="6"/><circle cx="2314" cy="1136" r="6"/><circle cx="2337" cy="1185" r="5"/><circle cx="2417" cy="1160" r="4"/><circle cx="2498" cy="1154" r="5"/><circle cx="79" cy="1255" r="5"/><circle cx="107" cy="1268" r="5"/><circle cx="230" cy="1233" r="5"/><circle cx="306" cy="1219" r="5"/><circle cx="358" cy="1223" r="4"/><circle cx="448" cy="1217" r="4"/><circle cx="516" cy="1265" r="6"/><circle cx="578" cy="1209" r="5"/><circle cx="663" cy="1234" r="4"/><circle cx="741" cy="1237" r="4"/><circle cx="814" cy="1243" r="5"/><circle cx="903" cy="1246" r="5"/><circle cx="1005" cy="1226" r="6"/><circle cx="1046" cy="1235" r="4"/><circle cx="1200" cy="1239" r="5"/><circle cx="1247" cy="1254" r="5"/><circle cx="1331" cy="1244" r="5"/><circle cx="1361" cy="1249" r="5"/><circle cx="1514" cy="1267" r="5"/><circle cx="1522" cy="1201" r="4"/><circle cx="1670" cy="1237" r="6"/><circle cx="1695" cy="1239" r="6"/><circle cx="1774" cy="1211" r="6"/><circle cx="1875" cy="1251" r="4"/><circle cx="1967" cy="1202" r="5"/><circle cx="2075" cy="1221" r="5"/><circle cx="2084" cy="1217" r="6"/><circle cx="2237" cy="1238" r="4"/><circle cx="2265" cy="1238" r="5"/><circle cx="2387" cy="1271" r="4"/><circle cx="2440" cy="1214" r="5"/><circle cx="2550" cy="1261" r="5"/><circle cx="59" cy="1322" r="5"/><circle cx="89" cy="1350" r="6"/><circle cx="165" cy="1334" r="4"/><circle cx="297" cy="1296" r="5"/><circle cx="391" cy="1286" r="5"/><circle cx="447" cy="1307" r="5"/><circle cx="488" cy="1321" r="5"/><circle cx="637" cy="1346" r="5"/><circle cx="654" cy="1339" r="5"/><circle cx="793" cy="1297" r="5"/><circle cx="821" cy="1286" r="4"/><circle cx="886" cy="1352" r="4"/><circle cx="1035" cy="1314" r="6"/><circle cx="1117" cy="1288" r="6"/><circle cx="1173" cy="1344" r="5"/><circle cx="1250" cy="1360" r="6"/><circle cx="1333" cy="1322" r="6"/><circle cx="1427" cy="1328" r="6"/><circle cx="1481" cy="1348" r="5"/><circle cx="1564" cy="1344" r="5"/><circle cx="1660" cy="1322" r="4"/><circle cx="1716" cy="1315" r="5"/><circle cx="1762" cy="1335" r="5"/><circle cx="1899" cy="1313" r="6"/><circle cx="1959" cy="1282" r="5"/><circle cx="2029" cy="1316" r="6"/><circle cx="2148" cy="1284" r="5"/><circle cx="2189" cy="1349" r="6"/><circle cx="2241" cy="1292" r="5"/><circle cx="2328" cy="1345" r="5"/><circle cx="2409" cy="1332" r="6"/><circle cx="2512" cy="1333" r="5"/><circle cx="77" cy="1413" r="5"/><circle cx="119" cy="1393" r="5"/><circle cx="216" cy="1426" r="5"/><circle cx="270" cy="1400" r="4"/><circle cx="364" cy="1370" r="5"/><circle cx="442" cy="1411" r="6"/><circle cx="524" cy="1404" r="6"/><circle cx="633" cy="1425" r="5"/><circle cx="666" cy="1437" r="6"/><circle cx="666" cy="-3" r="6"/><circle cx="755" cy="1381" r="5"/><circle cx="803" cy="1437" r="4"/><circle cx="803" cy="-3" r="4"/><circle cx="948" cy="1396" r="5"/><circle cx="984" cy="1420" r="4"/><circle cx="1098" cy="1388" r="5"/><circle cx="1145" cy="1413" r="5"/><circle cx="1251" cy="1415" r="5"/><circle cx="1327" cy="1413" r="5"/><circle cx="1438" cy="1372" r="6"/><circle cx="1480" cy="1367" r="6"/><circle cx="1521" cy="1403" r="5"/><circle cx="1660" cy="1382" r="4"/><circle cx="1749" cy="1406" r="5"/><circle cx="1803" cy="1361" r="4"/><circle cx="1887" cy="1405" r="6"/><circle cx="1958" cy="1380" r="6"/><circle cx="2036" cy="1437" r="6"/><circle cx="2036" cy="-3" r="6"/><circle cx="2127" cy="1367" r="4"/><circle cx="2204" cy="1410" r="6"/><circle cx="2263" cy="1396" r="6"/><circle cx="2396" cy="1382" r="6"/><circle cx="2441" cy="1419" r="5"/><circle cx="2501" cy="1364" r="6"/><path stroke="#fff" d="M39 78L119 32M39 78L47 128M39 78L95 153M39 78L77 -27M39 1518L77 1413M119 32L200 10M119 32L178 104M119 32L77 -27M119 32L119 -47M119 1472L77 1413M119 1472L119 1393M200 10L178 104M200 10L119 -47M200 10L216 -14M200 10L270 -40M200 1450L119 1393M200 1450L216 1426M200 1450L270 1400M316 11L394 71M316 11L287 101M316 11L216 -14M316 11L270 -40M316 11L364 -70M316 1451L216 1426M316 1451L270 1400M316 1451L364 1370M394 71L427 27M394 71L353 117M394 71L460 120M427 27L490 61M427 27L486 97M427 27L442 -29M427 27L524 -36M427 1467L442 1411M427 1467L524 1404M490 61L575 69M490 61L460 120M490 61L486 97M575 69L486 97M575 69L620 149M575 69L633 -15M575 1509L633 1425M708 18L762 23M708 18L684 85M708 18L633 -15M708 18L666 -3M708 18L755 -59M708 1458L633 1425M708 1458L666 1437M708 1458L755 1381M762 23L755 -59M762 23L803 -3M762 1463L755 1381M762 1463L803 1437M869 57L884 68M869 57L829 142M869 57L865 167M869 57L803 -3M869 57L948 -44M869 1497L803 1437M869 1497L948 1396M884 68L829 142M884 68L865 167M884 68L803 -3M884 1508L803 1437M1037 41L1109 23M1037 41L1141 27M1037 41L1023 111M1037 41L984 -20M1037 1481L984 1420M1109 23L1141 27M1109 23L1098 -52M1109 23L1145 -27M1109 1463L1098 1388M1109 1463L1145 1413M1141 27L1196 84M1141 27L1098 -52M1141 27L1145 -27M1141 1467L1098 1388M1141 1467L1145 1413M1258 15L1285 66M1258 15L1196 84M1258 15L1250 -80M1258 15L1251 -25M1258 15L1327 -27M1258 1455L1250 1360M1258 1455L1251 1415M1258 1455L1327 1413M1285 66L1196 84M1285 66L1223 142M1285 66L1280 140M1285 66L1251 -25M1285 1506L1251 1415M1397 23L1489 50M1397 23L1327 -27M1397 23L1438 -68M1397 1463L1327 1413M1397 1463L1438 1372M1489 50L1526 57M1489 50L1511 133M1489 50L1521 -37M1489 1490L1521 1403M1526 57L1511 133M1526 57L1585 121M1675 14L1683 42M1675 14L1660 -58M1675 14L1749 -34M1675 1454L1660 1382M1675 1454L1749 1406M1683 42L1625 127M1807 33L1890 67M1807 33L1804 91M1807 33L1843 85M1807 33L1749 -34M1807 33L1887 -35M1807 1473L1749 1406M1807 1473L1887 1405M1890 67L1804 91M1890 67L1843 85M1890 67L1946 81M1890 67L1887 -35M1890 1507L1887 1405M1984 79L2012 71M1984 79L1946 81M1984 79L2052 102M1984 79L2036 -3M1984 1519L2036 1437M2012 71L2087 24M2012 71L1946 81M2012 71L2052 102M2012 71L2036 -3M2012 1511L2036 1437M2087 24L2180 65M2087 24L2052 102M2087 24L2145 100M2087 24L2036 -3M2087 1464L2036 1437M2180 65L2273 52M2180 65L2145 100M2180 65L2161 127M2180 65L2204 -30M2180 1505L2204 1410M2273 52L2279 123M2273 52L2204 -30M2273 52L2263 -44M2273 1492L2204 1410M2273 1492L2263 1396M2399 31L2430 54M2399 31L2397 92M2399 31L2396 -58M2399 31L2441 -21M2399 1471L2396 1382M2399 1471L2441 1419M2430 54L2498 47M2430 54L2397 92M2430 54L2457 125M2430 54L2482 107M2498 47L2482 107M2498 47L2441 -21M2498 1487L2441 1419M47 128L95 153M47 128L51 187M95 153L178 104M95 153L51 187M95 153L114 229M178 104L287 101M287 101L353 117M287 101L297 209M353 117L297 209M353 117L374 207M460 120L486 97M460 120L443 212M486 97L539 176M620 149L684 85M620 149L539 176M620 149L562 233M620 149L653 211M684 85L720 158M684 85L723 162M684 85L666 -3M684 1525L666 1437M720 158L723 162M720 158L738 272M829 142L723 162M829 142L865 167M829 142L923 198M956 144L1023 111M956 144L865 167M956 144L923 198M956 144L995 198M956 144L998 246M1023 111L1091 155M1023 111L1055 180M1091 155L1055 180M1091 155L1164 191M1091 155L1060 246M1196 84L1223 142M1223 142L1280 140M1223 142L1164 191M1223 142L1281 222M1280 140L1255 232M1280 140L1281 222M1431 141L1511 133M1431 141L1433 219M1431 141L1474 219M1431 141L1438 263M1431 141L1450 244M1511 133L1585 121M1511 133L1474 219M1585 121L1625 127M1585 121L1590 195M1625 127L1715 156M1625 127L1590 195M1715 156L1804 91M1715 156L1657 226M1715 156L1734 238M1804 91L1843 85M1804 91L1847 169M1843 85L1946 81M1843 85L1847 169M2052 102L2145 100M2052 102L2058 164M2145 100L2161 127M2145 100L2153 183M2161 127L2153 183M2161 127L2229 174M2279 123L2229 174M2397 92L2457 125M2397 92L2384 176M2457 125L2482 107M2457 125L2466 175M2457 125L2480 180M2482 107L2466 175M2482 107L2480 180M51 187L114 229M114 229L178 235M114 229L96 266M114 229L165 240M178 235L165 240M178 235L246 283M178 235L170 320M297 209L374 207M297 209L246 283M374 207L443 212M374 207L374 291M374 207L463 241M443 212L539 176M443 212L463 241M443 212L488 262M539 176L562 233M539 176L463 241M562 233L653 211M562 233L488 262M562 233L621 289M653 211L723 162M653 211L621 289M653 211L665 253M723 162L738 272M865 167L923 198M923 198L995 198M923 198L998 246M995 198L1055 180M995 198L998 246M995 198L1060 246M1055 180L998 246M1055 180L1060 246M1164 191L1255 232M1164 191L1177 288M1255 232L1281 222M1255 232L1242 308M1281 222L1242 308M1281 222L1340 295M1433 219L1474 219M1433 219L1438 263M1433 219L1450 244M1474 219L1438 263M1474 219L1450 244M1590 195L1657 226M1590 195L1574 304M1590 195L1631 291M1657 226L1734 238M1657 226L1631 291M1657 226L1688 285M1734 238L1832 218M1734 238L1688 285M1832 218L1847 169M1832 218L1834 272M1832 218L1911 248M1970 233L2058 164M1970 233L1911 248M1970 233L1932 289M1970 233L2046 297M2058 164L2153 183M2153 183L2229 174M2153 183L2123 277M2229 174L2318 233M2229 174L2298 249M2318 233L2384 176M2318 233L2298 249M2318 233L2393 256M2318 233L2296 331M2384 176L2466 175M2384 176L2480 180M2384 176L2393 256M2466 175L2480 180M2466 175L2492 248M2480 180L2492 248M32 293L96 266M32 293L13 329M32 293L108 332M32 293L-34 352M2592 293L2526 352M96 266L165 240M96 266L108 332M96 266L170 320M165 240L246 283M165 240L170 320M246 283L170 320M246 283L308 356M374 291L463 241M374 291L308 356M374 291L334 345M374 291L440 370M463 241L488 262M621 289L665 253M621 289L610 360M665 253L738 272M738 272L834 285M738 272L778 359M834 285L902 313M834 285L778 359M834 285L866 327M902 313L866 327M902 313L915 396M998 246L1060 246M1177 288L1242 308M1177 288L1195 395M1177 288L1201 353M1242 308L1340 295M1242 308L1201 353M1340 295L1438 263M1340 295L1341 353M1438 263L1450 244M1574 304L1631 291M1574 304L1521 359M1631 291L1688 285M1631 291L1672 372M1688 285L1672 372M1688 285L1714 371M1834 272L1911 248M1834 272L1932 289M1834 272L1778 357M1834 272L1884 332M1911 248L1932 289M1911 248L1884 332M1932 289L2046 297M1932 289L1884 332M2046 297L2123 277M2046 297L2022 393M2046 297L2128 336M2123 277L2181 320M2123 277L2128 336M2181 320L2128 336M2181 320L2181 399M2298 249L2393 256M2298 249L2296 331M2298 249L2329 331M2393 256L2411 311M2393 256L2492 248M2411 311L2492 248M2411 311L2329 331M2411 311L2457 380M2411 311L2389 409M2492 248L2526 352M13 329L108 332M13 329L-34 352M2573 329L2526 352M108 332L170 320M108 332L108 447M308 356L334 345M308 356L246 413M308 356L384 423M334 345L440 370M334 345L246 413M334 345L384 423M440 370L486 379M440 370L384 423M440 370L415 447M486 379L415 447M486 379L555 461M486 379L562 419M486 379L470 481M610 360L682 371M610 360L562 419M682 371L720 416M778 359L866 327M778 359L720 416M778 359L769 465M866 327L915 396M915 396L891 474M915 396L1018 444M915 396L928 503M1036 385L1113 389M1036 385L1018 444M1036 385L1059 409M1036 385L999 488M1113 389L1195 395M1113 389L1018 444M1113 389L1059 409M1113 389L1190 426M1195 395L1201 353M1195 395L1190 426M1195 395L1264 425M1201 353L1190 426M1341 353L1368 390M1341 353L1264 425M1341 353L1324 439M1368 390L1441 398M1368 390L1324 439M1368 390L1402 444M1368 390L1456 407M1441 398L1521 359M1441 398L1402 444M1441 398L1456 407M1521 359L1456 407M1521 359L1545 418M1521 359L1622 405M1672 372L1714 371M1672 372L1622 405M1714 371L1778 357M1714 371L1622 405M1714 371L1735 465M1778 357L1884 332M1997 399L2022 393M1997 399L1943 477M1997 399L2055 417M2022 393L2055 417M2022 393L2091 474M2128 336L2181 399M2128 336L2055 417M2181 399L2198 465M2181 399L2266 424M2296 331L2329 331M2296 331L2266 424M2296 331L2389 409M2329 331L2266 424M2329 331L2389 409M2457 380L2526 352M2457 380L2389 409M2457 380L2466 474M2457 380L2530 428M2526 352L2530 428M72 445L108 447M72 445L-30 428M72 445L105 491M2632 445L2530 428M108 447L191 424M108 447L105 491M108 447L185 495M191 424L246 413M191 424L105 491M191 424L185 495M191 424L251 517M246 413L185 495M246 413L251 517M384 423L415 447M384 423L470 481M415 447L321 528M415 447L470 481M555 461L562 419M555 461L470 481M555 461L560 483M555 461L598 560M562 419L560 483M720 416L769 465M720 416L802 457M720 416L672 498M769 465L802 457M769 465L672 498M769 465L742 532M802 457L891 474M802 457L742 532M802 457L876 535M891 474L876 535M891 474L928 503M1018 444L1059 409M1018 444L999 488M1059 409L999 488M1059 409L1108 513M1190 426L1264 425M1190 426L1229 508M1264 425L1324 439M1264 425L1229 508M1324 439L1402 444M1324 439L1367 543M1402 444L1456 407M1402 444L1367 543M1456 407L1545 418M1545 418L1622 405M1545 418L1507 523M1545 418L1571 480M1622 405L1571 480M1735 465L1838 454M1735 465L1694 547M1735 465L1786 550M1838 454L1903 471M1838 454L1943 477M1903 471L1943 477M1903 471L1880 556M1903 471L1994 512M1903 471L1874 566M1943 477L1880 556M1943 477L1994 512M2055 417L2091 474M2091 474L2066 556M2091 474L2144 521M2198 465L2266 424M2198 465L2144 521M2198 465L2239 559M2389 409L2466 474M2466 474L2530 428M2466 474L2466 528M2466 474L2530 487M2530 428L2530 487M7 545L-30 487M7 545L1 577M7 545L-77 579M7 545L12 648M2567 545L2530 487M2567 545L2483 579M105 491L185 495M185 495L251 517M251 517L321 528M251 517L289 560M321 528L289 560M321 528L356 562M470 481L560 483M560 483L598 560M598 560L672 498M598 560L581 604M598 560L648 563M672 498L742 532M672 498L648 563M742 532L648 563M742 532L735 628M876 535L928 503M876 535L942 561M928 503L999 488M928 503L942 561M999 488L942 561M1108 513L1152 554M1108 513L1047 594M1108 513L1182 602M1152 554L1229 508M1152 554L1047 594M1152 554L1182 602M1152 554L1238 566M1229 508L1182 602M1229 508L1238 566M1357 551L1367 543M1357 551L1293 634M1357 551L1363 621M1367 543L1363 621M1367 543L1310 650M1507 523L1571 480M1507 523L1514 631M1507 523L1590 588M1571 480L1656 542M1656 542L1694 547M1656 542L1590 588M1656 542L1670 628M1694 547L1670 628M1694 547L1735 571M1786 550L1880 556M1786 550L1735 571M1786 550L1816 604M1786 550L1787 645M1880 556L1816 604M1880 556L1874 566M1994 512L2066 556M1994 512L1988 605M1994 512L2026 574M2066 556L1988 605M2066 556L2026 574M2066 556L2132 572M2144 521L2239 559M2144 521L2132 572M2239 559L2297 550M2239 559L2234 610M2239 559L2276 598M2297 550L2357 550M2297 550L2234 610M2297 550L2276 598M2297 550L2321 618M2357 550L2466 528M2357 550L2276 598M2357 550L2321 618M2357 550L2435 570M2466 528L2530 487M2466 528L2435 570M2466 528L2483 579M2530 487L2561 577M-30 487L1 577M1 577L-77 579M1 577L12 648M2561 577L2483 579M153 626L201 635M153 626L12 648M153 626L155 640M153 626L166 645M201 635L155 640M201 635L166 645M201 635L318 670M201 635L223 746M289 560L356 562M289 560L318 670M460 616L490 605M460 616L447 675M460 616L500 693M490 605L581 604M490 605L447 675M490 605L500 693M581 604L648 563M581 604L591 713M581 604L629 723M648 563L735 628M735 628L817 639M735 628L713 690M735 628L783 680M817 639L783 680M817 639L840 655M817 639L889 674M942 561L966 637M966 637L1047 594M966 637L889 674M966 637L1012 681M966 637L1011 727M1047 594L1012 681M1047 594L1105 656M1182 602L1238 566M1182 602L1105 656M1238 566L1293 634M1238 566L1310 650M1293 634L1363 621M1293 634L1263 694M1293 634L1310 650M1363 621L1310 650M1363 621L1437 685M1514 631L1590 588M1514 631L1455 691M1514 631L1527 652M1590 588L1527 652M1670 628L1735 571M1670 628L1619 687M1670 628L1714 663M1735 571L1787 645M1816 604L1874 566M1816 604L1787 645M1816 604L1841 648M1874 566L1841 648M1988 605L2026 574M1988 605L1948 681M1988 605L2028 649M2026 574L2132 572M2026 574L2028 649M2132 572L2106 669M2132 572L2165 640M2234 610L2276 598M2234 610L2165 640M2276 598L2321 618M2321 618L2315 704M2321 618L2340 668M2435 570L2483 579M2435 570L2429 656M2483 579L2429 656M12 648L-131 656M12 648L-67 699M2572 648L2429 656M2572 648L2493 699M155 640L166 645M166 645L223 746M318 670L347 711M318 670L300 736M347 711L447 675M347 711L300 736M347 711L396 767M447 675L500 693M447 675L445 768M500 693L591 713M500 693L445 768M591 713L557 772M591 713L629 723M713 690L783 680M713 690L629 723M713 690L720 769M783 680L840 655M783 680L790 769M840 655L889 674M840 655L886 754M889 674L886 754M1012 681L1105 656M1012 681L1011 727M1012 681L1106 741M1105 656L1159 716M1105 656L1106 741M1159 716L1263 694M1159 716L1106 741M1159 716L1183 762M1159 716L1227 749M1263 694L1310 650M1263 694L1227 749M1437 685L1455 691M1437 685L1527 652M1437 685L1415 745M1455 691L1527 652M1455 691L1415 745M1455 691L1501 775M1527 652L1565 725M1619 687L1714 663M1619 687L1565 725M1619 687L1622 787M1714 663L1787 645M1714 663L1750 740M1714 663L1781 752M1787 645L1841 648M1841 648L1781 752M1948 681L2028 649M1948 681L1944 752M1948 681L2007 751M2028 649L2106 669M2028 649L2007 751M2106 669L2165 640M2106 669L2154 760M2106 669L2193 743M2165 640L2193 743M2315 704L2340 668M2315 704L2300 801M2340 668L2429 656M2429 656L2493 699M2493 699L2496 796M59 783L122 775M59 783L78 824M59 783L-4 885M2619 783L2556 885M122 775L223 746M122 775L78 824M122 775L137 879M122 775L165 811M223 746L300 736M223 746L165 811M300 736L314 835M396 767L445 768M396 767L376 834M445 768L376 834M445 768L463 865M557 772L629 723M557 772L547 816M557 772L588 860M629 723L720 769M720 769L790 769M720 769L748 851M790 769L858 800M790 769L748 851M790 769L819 827M858 800L886 754M858 800L819 827M858 800L933 859M886 754L1011 727M886 754L819 827M1011 727L1106 741M1011 727L1044 830M1106 741L1183 762M1183 762L1227 749M1183 762L1187 837M1183 762L1235 819M1227 749L1235 819M1227 749L1302 807M1345 786L1415 745M1345 786L1235 819M1345 786L1302 807M1345 786L1384 824M1415 745L1501 775M1415 745L1384 824M1501 775L1565 725M1501 775L1622 787M1501 775L1486 814M1565 725L1622 787M1565 725L1486 814M1622 787L1622 816M1622 787L1684 819M1750 740L1781 752M1750 740L1684 819M1781 752L1684 819M1781 752L1804 826M1911 779L1944 752M1911 779L2007 751M1911 779L1884 841M1911 779L1926 830M1911 779L2004 859M1944 752L2007 751M1944 752L1926 830M2007 751L2004 859M2154 760L2193 743M2154 760L2240 796M2154 760L2144 815M2154 760L2183 872M2193 743L2240 796M2193 743L2144 815M2240 796L2183 872M2240 796L2300 801M2240 796L2230 907M2390 775L2443 795M2390 775L2300 801M2390 775L2395 805M2390 775L2444 824M2443 795L2496 796M2443 795L2395 805M2443 795L2444 824M2443 795L2487 842M2496 796L2444 824M2496 796L2487 842M78 824L137 879M78 824L165 811M78 824L140 884M137 879L165 811M137 879L140 884M137 879L217 922M165 811L140 884M314 835L376 834M314 835L283 930M376 834L463 865M376 834L409 882M463 865L547 816M463 865L409 882M463 865L497 921M547 816L588 860M588 860L667 867M588 860L497 921M588 860L599 911M667 867L748 851M667 867L599 911M667 867L644 960M667 867L757 916M748 851L819 827M748 851L757 916M819 827L757 916M933 859L976 859M933 859L1044 830M933 859L888 947M976 859L1044 830M976 859L979 959M1044 830L1111 934M1187 837L1235 819M1187 837L1302 807M1187 837L1182 940M1235 819L1302 807M1302 807L1384 824M1384 824L1486 814M1384 824L1475 881M1486 814L1553 880M1486 814L1475 881M1553 880L1475 881M1553 880L1581 937M1553 880L1570 970M1622 816L1684 819M1684 819L1804 826M1804 826L1884 841M1804 826L1787 895M1804 826L1840 914M1884 841L1926 830M1884 841L1787 895M1884 841L1840 914M1926 830L2004 859M1926 830L1944 941M2004 859L1944 941M2144 815L2183 872M2183 872L2230 907M2183 872L2258 943M2300 801L2395 805M2395 805L2444 824M2395 805L2487 842M2444 824L2487 842M2487 842L2556 885M60 953L-4 885M60 953L12 1018M60 953L121 1017M2620 953L2556 885M140 884L217 922M140 884L173 976M217 922L283 930M217 922L173 976M217 922L244 1002M283 930L336 946M283 930L244 1002M283 930L366 975M336 946L409 882M336 946L244 1002M336 946L366 975M336 946L374 1053M409 882L497 921M409 882L366 975M497 921L599 911M497 921L531 1014M599 911L644 960M599 911L610 988M644 960L610 988M644 960L706 965M757 916L814 954M757 916L706 965M814 954L888 947M814 954L853 1037M814 954L901 996M888 947L979 959M888 947L853 1037M888 947L901 996M979 959L901 996M979 959L1011 1016M979 959L1067 994M1111 934L1182 940M1111 934L1067 994M1111 934L1163 1027M1182 940L1249 947M1182 940L1163 1027M1249 947L1308 937M1249 947L1266 996M1249 947L1290 1014M1308 937L1407 948M1308 937L1266 996M1308 937L1290 1014M1407 948L1475 881M1407 948L1398 1030M1407 948L1453 1016M1581 937L1636 946M1581 937L1570 970M1581 937L1630 969M1636 946L1717 955M1636 946L1570 970M1636 946L1630 969M1636 946L1683 993M1717 955L1787 895M1717 955L1630 969M1717 955L1683 993M1717 955L1761 1030M1787 895L1840 914M1787 895L1849 966M1840 914L1944 941M1840 914L1849 966M1944 941L1849 966M1944 941L1971 1003M2079 958L2080 949M2079 958L2068 964M2079 958L2137 1039M2079 958L2166 998M2080 949L2068 964M2230 907L2258 943M2230 907L2340 948M2230 907L2166 998M2258 943L2340 948M2258 943L2241 1033M2258 943L2331 985M2340 948L2427 924M2340 948L2331 985M2340 948L2453 989M2427 924L2331 985M2427 924L2453 989M2427 924L2447 1043M2556 885L2524 974M12 1018L121 1017M12 1018L-36 974M12 1018L11 1079M12 1018L-19 1053M2572 1018L2524 974M2572 1018L2541 1053M121 1017L173 976M121 1017L128 1073M121 1017L204 1047M173 976L244 1002M173 976L204 1047M244 1002L204 1047M366 975L374 1053M366 975L429 1058M467 1023L531 1014M467 1023L374 1053M467 1023L429 1058M467 1023L550 1091M531 1014L610 988M531 1014L550 1091M531 1014L575 1080M610 988L706 965M610 988L575 1080M706 965L721 1040M706 965L734 1040M721 1040L683 1072M721 1040L734 1040M721 1040L794 1125M853 1037L901 996M853 1037L815 1096M853 1037L912 1081M901 996L912 1081M1011 1016L1067 994M1011 1016L983 1096M1067 994L1113 1053M1163 1027L1266 996M1163 1027L1113 1053M1163 1027L1176 1113M1266 996L1290 1014M1266 996L1347 1056M1290 1014L1278 1111M1290 1014L1347 1056M1398 1030L1453 1016M1398 1030L1347 1056M1398 1030L1378 1078M1453 1016L1378 1078M1453 1016L1506 1090M1453 1016L1482 1121M1570 970L1630 969M1570 970L1593 1075M1630 969L1683 993M1683 993L1761 1030M1683 993L1679 1054M1761 1030L1679 1054M1761 1030L1727 1115M1761 1030L1818 1052M1849 966L1818 1052M1849 966L1871 1060M1971 1003L2068 964M1971 1003L1871 1060M1971 1003L1992 1045M1971 1003L2040 1058M2068 964L2040 1058M2137 1039L2166 998M2137 1039L2082 1080M2137 1039L2190 1042M2166 998L2241 1033M2166 998L2190 1042M2241 1033L2331 985M2241 1033L2190 1042M2241 1033L2279 1089M2453 989L2524 974M2453 989L2447 1043M2453 989L2541 1053M2524 974L2447 1043M2524 974L2541 1053M11 1079L128 1073M11 1079L-19 1053M11 1079L44 1147M11 1079L-62 1154M2571 1079L2541 1053M2571 1079L2498 1154M128 1073L204 1047M128 1073L44 1147M128 1073L131 1147M204 1047L260 1118M260 1118L188 1185M260 1118L298 1169M260 1118L353 1173M374 1053L429 1058M374 1053L434 1138M429 1058L434 1138M550 1091L575 1080M550 1091L500 1141M550 1091L567 1152M575 1080L500 1141M575 1080L567 1152M683 1072L734 1040M683 1072L694 1168M734 1040L815 1096M734 1040L794 1125M815 1096L912 1081M815 1096L794 1125M815 1096L874 1181M912 1081L983 1096M912 1081L901 1190M983 1096L1012 1184M1113 1053L1176 1113M1113 1053L1101 1121M1113 1053L1146 1139M1176 1113L1101 1121M1176 1113L1146 1139M1176 1113L1244 1173M1278 1111L1347 1056M1278 1111L1244 1173M1278 1111L1295 1189M1347 1056L1378 1078M1378 1078L1370 1164M1378 1078L1482 1121M1506 1090L1593 1075M1506 1090L1482 1121M1506 1090L1531 1185M1506 1090L1522 1201M1593 1075L1639 1126M1679 1054L1727 1115M1679 1054L1639 1126M1679 1054L1681 1130M1727 1115L1639 1126M1727 1115L1681 1130M1727 1115L1774 1211M1818 1052L1871 1060M1992 1045L2040 1058M1992 1045L2082 1080M1992 1045L2012 1129M2040 1058L2082 1080M2040 1058L2012 1129M2082 1080L2190 1042M2082 1080L2012 1129M2190 1042L2279 1089M2279 1089L2367 1105M2279 1089L2314 1136M2367 1105L2447 1043M2367 1105L2314 1136M2367 1105L2337 1185M2367 1105L2417 1160M2447 1043L2541 1053M44 1147L131 1147M44 1147L-62 1154M44 1147L79 1255M2604 1147L2498 1154M131 1147L188 1185M188 1185L230 1233M298 1169L353 1173M298 1169L230 1233M298 1169L306 1219M298 1169L358 1223M353 1173L434 1138M353 1173L306 1219M353 1173L358 1223M434 1138L500 1141M434 1138L448 1217M500 1141L567 1152M500 1141L448 1217M567 1152L578 1209M694 1168L794 1125M694 1168L578 1209M694 1168L663 1234M694 1168L741 1237M794 1125L874 1181M874 1181L901 1190M874 1181L814 1243M874 1181L903 1246M901 1190L903 1246M901 1190L1005 1226M1012 1184L1101 1121M1012 1184L1005 1226M1012 1184L1046 1235M1101 1121L1146 1139M1146 1139L1200 1239M1244 1173L1295 1189M1244 1173L1200 1239M1244 1173L1247 1254M1295 1189L1370 1164M1295 1189L1247 1254M1295 1189L1331 1244M1370 1164L1331 1244M1370 1164L1361 1249M1482 1121L1531 1185M1482 1121L1522 1201M1531 1185L1514 1267M1531 1185L1522 1201M1639 1126L1681 1130M1681 1130L1670 1237M1681 1130L1695 1239M1811 1192L1914 1183M1811 1192L1774 1211M1811 1192L1875 1251M1914 1183L1995 1168M1914 1183L1875 1251M1914 1183L1967 1202M1995 1168L2012 1129M1995 1168L1967 1202M2012 1129L1967 1202M2092 1194L2166 1189M2092 1194L2075 1221M2092 1194L2084 1217M2166 1189L2075 1221M2166 1189L2084 1217M2166 1189L2237 1238M2166 1189L2148 1284M2314 1136L2337 1185M2314 1136L2417 1160M2314 1136L2265 1238M2337 1185L2417 1160M2337 1185L2265 1238M2337 1185L2387 1271M2417 1160L2498 1154M2417 1160L2440 1214M2498 1154L2440 1214M79 1255L107 1268M79 1255L-10 1261M79 1255L59 1322M2639 1255L2550 1261M107 1268L-10 1261M107 1268L59 1322M107 1268L89 1350M107 1268L165 1334M2667 1268L2550 1261M230 1233L306 1219M230 1233L297 1296M306 1219L358 1223M306 1219L297 1296M358 1223L297 1296M358 1223L391 1286M448 1217L516 1265M448 1217L391 1286M448 1217L447 1307M516 1265L578 1209M516 1265L447 1307M516 1265L488 1321M578 1209L663 1234M663 1234L741 1237M663 1234L654 1339M741 1237L814 1243M741 1237L793 1297M741 1237L821 1286M814 1243L903 1246M814 1243L793 1297M814 1243L821 1286M903 1246L1005 1226M903 1246L821 1286M1005 1226L1046 1235M1005 1226L1035 1314M1046 1235L1035 1314M1046 1235L1117 1288M1200 1239L1247 1254M1200 1239L1117 1288M1200 1239L1173 1344M1247 1254L1331 1244M1331 1244L1361 1249M1331 1244L1333 1322M1361 1249L1333 1322M1514 1267L1522 1201M1514 1267L1427 1328M1514 1267L1481 1348M1514 1267L1564 1344M1670 1237L1695 1239M1670 1237L1774 1211M1670 1237L1660 1322M1670 1237L1716 1315M1695 1239L1774 1211M1695 1239L1660 1322M1695 1239L1716 1315M1774 1211L1875 1251M1875 1251L1899 1313M1875 1251L1959 1282M1967 1202L1959 1282M2075 1221L2084 1217M2075 1221L2029 1316M2084 1217L2029 1316M2084 1217L2148 1284M2237 1238L2265 1238M2237 1238L2241 1292M2265 1238L2241 1292M2265 1238L2328 1345M2387 1271L2440 1214M2387 1271L2328 1345M2387 1271L2409 1332M2550 1261L2619 1322M2550 1261L2512 1333M2550 1261L2501 1364M-10 1261L59 1322M59 1322L89 1350M59 1322L77 1413M89 1350L165 1334M89 1350L77 1413M89 1350L119 1393M165 1334L119 1393M165 1334L216 1426M297 1296L391 1286M297 1296L364 1370M391 1286L447 1307M391 1286L364 1370M447 1307L488 1321M447 1307L442 1411M488 1321L442 1411M488 1321L524 1404M637 1346L654 1339M637 1346L524 1404M637 1346L633 1425M637 1346L666 1437M654 1339L633 1425M654 1339L666 1437M654 1339L755 1381M793 1297L821 1286M793 1297L886 1352M793 1297L755 1381M821 1286L886 1352M886 1352L948 1396M1035 1314L1117 1288M1035 1314L948 1396M1035 1314L1098 1388M1117 1288L1173 1344M1173 1344L1250 1360M1173 1344L1098 1388M1173 1344L1145 1413M1250 1360L1333 1322M1250 1360L1251 1415M1250 1360L1327 1413M1333 1322L1427 1328M1333 1322L1327 1413M1427 1328L1481 1348M1427 1328L1438 1372M1427 1328L1480 1367M1481 1348L1438 1372M1481 1348L1480 1367M1481 1348L1521 1403M1564 1344L1660 1322M1564 1344L1480 1367M1564 1344L1521 1403M1564 1344L1660 1382M1660 1322L1716 1315M1660 1322L1660 1382M1716 1315L1762 1335M1716 1315L1660 1382M1762 1335L1749 1406M1762 1335L1803 1361M1899 1313L1959 1282M1899 1313L1803 1361M1899 1313L1887 1405M1899 1313L1958 1380M1959 1282L2029 1316M1959 1282L1958 1380M2029 1316L1958 1380M2029 1316L2036 1437M2148 1284L2189 1349M2148 1284L2241 1292M2148 1284L2127 1367M2189 1349L2241 1292M2189 1349L2127 1367M2189 1349L2204 1410M2189 1349L2263 1396M2241 1292L2263 1396M2328 1345L2409 1332M2328 1345L2263 1396M2328 1345L2396 1382M2409 1332L2396 1382M2409 1332L2441 1419M2409 1332L2501 1364M2512 1333L2501 1364M77 1413L119 1393M216 1426L270 1400M270 1400L364 1370M364 1370L442 1411M442 1411L524 1404M633 1425L666 1437M755 1381L803 1437M948 1396L984 1420M1098 1388L1145 1413M1145 1413L1251 1415M1251 1415L1327 1413M1438 1372L1480 1367M1438 1372L1521 1403M1480 1367L1521 1403M1660 1382L1749 1406M1749 1406L1803 1361M1803 1361L1887 1405M1887 1405L1958 1380M1958 1380L2036 1437M2127 1367L2204 1410M2204 1410L2263 1396M2396 1382L2441 1419M2396 1382L2501 1364M2441 1419L2501 1364"/></svg>