<svg xmlns="http://www.w3.org/2000/svg" width="2560" height="1440" fill="#fff"><circle cx="61" cy="72" r="5"/><circle cx="109" cy="32" r="6"/><circle cx="165" cy="53" r="6"/><circle cx="265" cy="8" r="6"/><circle cx="366" cy="14" r="4"/><circle cx="413" cy="70" r="5"/><circle cx="555" cy="77" r="5"/><circle cx="572" cy="25" r="6"/><circle cx="676" cy="50" r="4"/><circle cx="754" cy="28" r="4"/><circle cx="808" cy="20" r="5"/><circle cx="895" cy="9" r="6"/><circle cx="1023" cy="17" r="6"/><circle cx="1054" cy="6" r="5"/><circle cx="1135" cy="77" r="5"/><circle cx="1258" cy="17" r="5"/><circle cx="1352" cy="70" r="5"/><circle cx="1427" cy="30" r="6"/><circle cx="1502" cy="52" r="5"/><circle cx="1528" cy="10" r="5"/><circle cx="1659" cy="11" r="6"/><circle cx="1745" cy="15" r="4"/><circle cx="1793" cy="34" r="5"/><circle cx="1841" cy="32" r="6"/><circle cx="1954" cy="7" r="5"/><circle cx="2007" cy="78" r="5"/><circle cx="2127" cy="35" r="4"/><circle cx="2215" cy="10" r="6"/><circle cx="2293" cy="56" r="5"/><circle cx="2372" cy="30" r="4"/><circle cx="2449" cy="50" r="5"/><circle cx="2503" cy="24" r="6"/><circle cx="51" cy="145" r="5"/><circle cx="151" cy="150" r="5"/><circle cx="223" cy="154" r="4"/><circle cx="268" cy="114" r="5"/><circle cx="364" cy="154" r="4"/><circle cx="415" cy="146" r="4"/><circle cx="543" cy="150" r="6"/><circle cx="607" cy="112" r="4"/><circle cx="686" cy="105" r="4"/><circle cx="751" cy="107" r="5"/><circle cx="810" cy="105" r="5"/><circle cx="954" cy="125" r="4"/><circle cx="969" cy="133" r="5"/><circle cx="1120" cy="149" r="6"/><circle cx="1134" cy="124" r="5"/><circle cx="1217" cy="108" r="6"/><circle cx="1280" cy="86" r="5"/><circle cx="1409" cy="137" r="6"/><circle cx="1441" cy="116" r="4"/><circle cx="1548" cy="154" r="6"/><circle cx="1678" cy="107" r="5"/><circle cx="1689" cy="87" r="6"/><circle cx="1788" cy="135" r="4"/><circle cx="1871" cy="121" r="4"/><circle cx="1946" cy="154" r="4"/><circle cx="2026" cy="144" r="6"/><circle cx="2094" cy="89" r="6"/><circle cx="2168" cy="133" r="5"/><circle cx="2280" cy="140" r="4"/><circle cx="2346" cy="109" r="5"/><circle cx="2466" cy="120" r="4"/><circle cx="2554" cy="136" r="4"/><circle cx="16" cy="232" r="5"/><circle cx="118" cy="205" r="5"/><circle cx="180" cy="205" r="4"/><circle cx="300" cy="228" r="6"/><circle cx="392" cy="215" r="5"/><circle cx="413" cy="234" r="5"/><circle cx="557" cy="173" r="4"/><circle cx="614" cy="235" r="5"/><circle cx="649" cy="164" r="5"/><circle cx="753" cy="214" r="4"/><circle cx="835" cy="190" r="6"/><circle cx="885" cy="166" r="5"/><circle cx="1012" cy="176" r="5"/><circle cx="1116" cy="197" r="4"/><circle cx="1193" cy="168" r="6"/><circle cx="1202" cy="162" r="5"/><circle cx="1297" cy="178" r="4"/><circle cx="1377" cy="226" r="6"/><circle cx="1467" cy="223" r="6"/><circle cx="1558" cy="220" r="5"/><circle cx="1643" cy="218" r="5"/><circle cx="1729" cy="189" r="5"/><circle cx="1775" cy="215" r="5"/><circle cx="1910" cy="238" r="6"/><circle cx="1987" cy="239" r="5"/><circle cx="2025" cy="209" r="4"/><circle cx="2146" cy="239" r="5"/><circle cx="2176" cy="210" r="5"/><circle cx="2312" cy="177" r="5"/><circle cx="2322" cy="200" r="4"/><circle cx="2414" cy="210" r="5"/><circle cx="2559" cy="188" r="5"/><circle cx="-1" cy="188" r="5"/><circle cx="50" cy="308" r="5"/><circle cx="127" cy="257" r="5"/><circle cx="208" cy="248" r="6"/><circle cx="261" cy="247" r="4"/><circle cx="321" cy="248" r="4"/><circle cx="449" cy="281" r="5"/><circle cx="513" cy="261" r="5"/><circle cx="606" cy="316" r="5"/><circle cx="676" cy="269" r="5"/><circle cx="749" cy="294" r="4"/><circle cx="864" cy="253" r="4"/><circle cx="899" cy="240" r="5"/><circle cx="1012" cy="301" r="6"/><circle cx="1081" cy="247" r="5"/><circle cx="1123" cy="269" r="4"/><circle cx="1255" cy="294" r="5"/><circle cx="1306" cy="294" r="4"/><circle cx="1390" cy="286" r="5"/><circle cx="1505" cy="306" r="5"/><circle cx="1593" cy="257" r="5"/><circle cx="1643" cy="297" r="5"/><circle cx="1715" cy="284" r="5"/><circle cx="1810" cy="245" r="5"/><circle cx="1864" cy="301" r="5"/><circle cx="1924" cy="255" r="5"/><circle cx="2078" cy="253" r="5"/><circle cx="2091" cy="313" r="4"/><circle cx="2160" cy="265" r="5"/><circle cx="2289" cy="250" r="5"/><circle cx="2382" cy="313" r="5"/><circle cx="2473" cy="245" r="5"/><circle cx="2520" cy="285" r="4"/><circle cx="72" cy="375" r="4"/><circle cx="122" cy="376" r="5"/><circle cx="163" cy="380" r="6"/><circle cx="300" cy="386" r="5"/><circle cx="399" cy="334" r="6"/><circle cx="404" cy="359" r="6"/><circle cx="509" cy="380" r="6"/><circle cx="591" cy="362" r="5"/><circle cx="640" cy="337" r="4"/><circle cx="743" cy="364" r="6"/><circle cx="868" cy="377" r="5"/><circle cx="903" cy="337" r="6"/><circle cx="1005" cy="334" r="5"/><circle cx="1072" cy="365" r="5"/><circle cx="1188" cy="385" r="5"/><circle cx="1255" cy="376" r="5"/><circle cx="1360" cy="364" r="5"/><circle cx="1366" cy="339" r="5"/><circle cx="1468" cy="397" r="5"/><circle cx="1589" cy="399" r="4"/><circle cx="1672" cy="357" r="5"/><circle cx="1747" cy="375" r="4"/><circle cx="1837" cy="336" r="5"/><circle cx="1871" cy="381" r="5"/><circle cx="1946" cy="387" r="5"/><circle cx="2070" cy="350" r="4"/><circle cx="2098" cy="396" r="6"/><circle cx="2215" cy="323" r="5"/><circle cx="2284" cy="356" r="5"/><circle cx="2399" cy="344" r="5"/><circle cx="2443" cy="381" r="6"/><circle cx="2545" cy="348" r="6"/><circle cx="10" cy="435" r="4"/><circle cx="108" cy="442" r="4"/><circle cx="160" cy="426" r="5"/><circle cx="314" cy="435" r="6"/><circle cx="373" cy="474" r="5"/><circle cx="432" cy="426" r="6"/><circle cx="488" cy="457" r="5"/><circle cx="563" cy="442" r="4"/><circle cx="669" cy="422" r="6"/><circle cx="748" cy="434" r="4"/><circle cx="840" cy="457" r="5"/><circle cx="946" cy="421" r="5"/><circle cx="1014" cy="477" r="5"/><circle cx="1102" cy="444" r="4"/><circle cx="1194" cy="415" r="5"/><circle cx="1215" cy="463" r="4"/><circle cx="1281" cy="450" r="4"/><circle cx="1416" cy="405" r="6"/><circle cx="1443" cy="475" r="5"/><circle cx="1574" cy="421" r="5"/><circle cx="1658" cy="462" r="6"/><circle cx="1716" cy="460" r="5"/><circle cx="1773" cy="426" r="5"/><circle cx="1853" cy="451" r="5"/><circle cx="1975" cy="458" r="4"/><circle cx="2029" cy="429" r="5"/><circle cx="2115" cy="401" r="5"/><circle cx="2206" cy="424" r="5"/><circle cx="2317" cy="461" r="5"/><circle cx="2335" cy="445" r="5"/><circle cx="2469" cy="424" r="5"/><circle cx="2491" cy="408" r="4"/><circle cx="43" cy="508" r="5"/><circle cx="114" cy="536" r="5"/><circle cx="168" cy="557" r="5"/><circle cx="242" cy="485" r="4"/><circle cx="343" cy="555" r="4"/><circle cx="461" cy="485" r="5"/><circle cx="502" cy="505" r="4"/><circle cx="637" cy="541" r="4"/><circle cx="705" cy="491" r="4"/><circle cx="765" cy="522" r="6"/><circle cx="842" cy="481" r="6"/><circle cx="917" cy="484" r="6"/><circle cx="1024" cy="504" r="5"/><circle cx="1068" cy="492" r="6"/><circle cx="1161" cy="493" r="5"/><circle cx="1278" cy="549" r="5"/><circle cx="1300" cy="549" r="6"/><circle cx="1422" cy="550" r="5"/><circle cx="1506" cy="537" r="5"/><circle cx="1594" cy="486" r="5"/><circle cx="1673" cy="514" r="5"/><circle cx="1722" cy="547" r="6"/><circle cx="1788" cy="499" r="5"/><circle cx="1879" cy="535" r="5"/><circle cx="1966" cy="558" r="6"/><circle cx="2016" cy="546" r="5"/><circle cx="2080" cy="522" r="6"/><circle cx="2213" cy="512" r="6"/><circle cx="2280" cy="493" r="5"/><circle cx="2370" cy="516" r="5"/><circle cx="2430" cy="539" r="5"/><circle cx="2492" cy="508" r="5"/><circle cx="59" cy="589" r="5"/><circle cx="118" cy="580" r="5"/><circle cx="190" cy="624" r="5"/><circle cx="298" cy="568" r="6"/><circle cx="391" cy="562" r="5"/><circle cx="438" cy="609" r="4"/><circle cx="503" cy="631" r="4"/><circle cx="596" cy="632" r="5"/><circle cx="680" cy="621" r="4"/><circle cx="731" cy="595" r="5"/><circle cx="859" cy="608" r="4"/><circle cx="903" cy="631" r="5"/><circle cx="969" cy="627" r="6"/><circle cx="1054" cy="616" r="6"/><circle cx="1145" cy="581" r="5"/><circle cx="1212" cy="580" r="6"/><circle cx="1316" cy="584" r="5"/><circle cx="1392" cy="630" r="5"/><circle cx="1496" cy="640" r="6"/><circle cx="1544" cy="587" r="5"/><circle cx="1609" cy="594" r="6"/><circle cx="1746" cy="636" r="4"/><circle cx="1799" cy="574" r="4"/><circle cx="1908" cy="599" r="4"/><circle cx="1986" cy="581" r="6"/><circle cx="2062" cy="616" r="4"/><circle cx="2120" cy="571" r="5"/><circle cx="2181" cy="583" r="5"/><circle cx="2296" cy="575" r="5"/><circle cx="2382" cy="576" r="5"/><circle cx="2444" cy="564" r="5"/><circle cx="2546" cy="600" r="5"/><circle cx="15" cy="656" r="5"/><circle cx="107" cy="702" r="6"/><circle cx="237" cy="666" r="6"/><circle cx="257" cy="688" r="6"/><circle cx="355" cy="663" r="4"/><circle cx="470" cy="683" r="6"/><circle cx="535" cy="689" r="6"/><circle cx="572" cy="714" r="5"/><circle cx="693" cy="669" r="4"/><circle cx="739" cy="681" r="5"/><circle cx="822" cy="673" r="5"/><circle cx="956" cy="660" r="4"/><circle cx="996" cy="682" r="6"/><circle cx="1110" cy="671" r="5"/><circle cx="1174" cy="647" r="5"/><circle cx="1216" cy="703" r="5"/><circle cx="1341" cy="680" r="5"/><circle cx="1429" cy="699" r="5"/><circle cx="1458" cy="664" r="5"/><circle cx="1578" cy="716" r="5"/><circle cx="1602" cy="654" r="6"/><circle cx="1683" cy="684" r="4"/><circle cx="1823" cy="642" r="6"/><circle cx="1860" cy="678" r="4"/><circle cx="1985" cy="704" r="4"/><circle cx="2010" cy="701" r="6"/><circle cx="2136" cy="667" r="5"/><circle cx="2228" cy="686" r="6"/><circle cx="2303" cy="675" r="6"/><circle cx="2397" cy="716" r="5"/><circle cx="2427" cy="701" r="5"/><circle cx="2502" cy="696" r="5"/><circle cx="12" cy="730" r="4"/><circle cx="110" cy="774" r="5"/><circle cx="230" cy="780" r="6"/><circle cx="271" cy="798" r="6"/><circle cx="330" cy="800" r="4"/><circle cx="402" cy="774" r="5"/><circle cx="495" cy="748" r="5"/><circle cx="635" cy="794" r="6"/><circle cx="665" cy="754" r="5"/><circle cx="791" cy="755" r="5"/><circle cx="801" cy="794" r="4"/><circle cx="900" cy="783" r="6"/><circle cx="1008" cy="736" r="4"/><circle cx="1085" cy="752" r="5"/><circle cx="1182" cy="800" r="5"/><circle cx="1237" cy="735" r="5"/><circle cx="1337" cy="785" r="6"/><circle cx="1370" cy="798" r="6"/><circle cx="1486" cy="784" r="5"/><circle cx="1580" cy="727" r="4"/><circle cx="1620" cy="736" r="5"/><circle cx="1760" cy="737" r="4"/><circle cx="1785" cy="744" r="4"/><circle cx="1852" cy="756" r="5"/><circle cx="1971" cy="760" r="4"/><circle cx="2073" cy="755" r="4"/><circle cx="2080" cy="771" r="6"/><circle cx="2165" cy="724" r="4"/><circle cx="2279" cy="737" r="5"/><circle cx="2379" cy="795" r="6"/><circle cx="2418" cy="727" r="5"/><circle cx="2516" cy="751" r="4"/><circle cx="14" cy="835" r="6"/><circle cx="140" cy="852" r="6"/><circle cx="172" cy="802" r="5"/><circle cx="287" cy="831" r="6"/><circle cx="346" cy="843" r="4"/><circle cx="454" cy="843" r="6"/><circle cx="500" cy="833" r="5"/><circle cx="598" cy="823" r="5"/><circle cx="709" cy="866" r="4"/><circle cx="751" cy="859" r="5"/><circle cx="806" cy="825" r="4"/><circle cx="935" cy="863" r="4"/><circle cx="1006" cy="816" r="6"/><circle cx="1045" cy="865" r="5"/><circle cx="1158" cy="868" r="5"/><circle cx="1227" cy="818" r="5"/><circle cx="1323" cy="877" r="6"/><circle cx="1388" cy="841" r="5"/><circle cx="1477" cy="875" r="5"/><circle cx="1545" cy="877" r="5"/><circle cx="1623" cy="869" r="6"/><circle cx="1695" cy="829" r="4"/><circle cx="1764" cy="847" r="4"/><circle cx="1845" cy="810" r="5"/><circle cx="1973" cy="869" r="6"/><circle cx="2071" cy="845" r="6"/><circle cx="2156" cy="879" r="5"/><circle cx="2200" cy="838" r="5"/><circle cx="2292" cy="844" r="6"/><circle cx="2342" cy="847" r="4"/><circle cx="2426" cy="837" r="4"/><circle cx="2559" cy="848" r="5"/><circle cx="-1" cy="848" r="5"/><circle cx="23" cy="917" r="5"/><circle cx="111" cy="953" r="4"/><circle cx="204" cy="943" r="4"/><circle cx="259" cy="925" r="6"/><circle cx="324" cy="932" r="5"/><circle cx="480" cy="892" r="5"/><circle cx="509" cy="925" r="4"/><circle cx="627" cy="942" r="4"/><circle cx="708" cy="918" r="4"/><circle cx="735" cy="918" r="6"/><circle cx="841" cy="944" r="6"/><circle cx="883" cy="956" r="6"/><circle cx="990" cy="904" r="6"/><circle cx="1077" cy="888" r="5"/><circle cx="1184" cy="957" r="4"/><circle cx="1262" cy="889" r="5"/><circle cx="1318" cy="938" r="4"/><circle cx="1426" cy="948" r="5"/><circle cx="1506" cy="946" r="5"/><circle cx="1578" cy="954" r="5"/><circle cx="1647" cy="942" r="4"/><circle cx="1707" cy="902" r="6"/><circle cx="1773" cy="904" r="4"/><circle cx="1895" cy="941" r="4"/><circle cx="1996" cy="949" r="5"/><circle cx="2015" cy="881" r="6"/><circle cx="2149" cy="897" r="5"/><circle cx="2198" cy="912" r="6"/><circle cx="2262" cy="928" r="4"/><circle cx="2391" cy="940" r="5"/><circle cx="2408" cy="912" r="5"/><circle cx="2522" cy="955" r="6"/><circle cx="1" cy="1011" r="5"/><circle cx="2561" cy="1011" r="5"/><circle cx="135" cy="976" r="5"/><circle cx="221" cy="1039" r="6"/><circle cx="283" cy="1000" r="4"/><circle cx="361" cy="1020" r="5"/><circle cx="444" cy="1001" r="4"/><circle cx="497" cy="1028" r="5"/><circle cx="604" cy="1015" r="5"/><circle cx="691" cy="962" r="6"/><circle cx="800" cy="984" r="5"/><circle cx="806" cy="966" r="6"/><circle cx="934" cy="977" r="5"/><circle cx="975" cy="973" r="4"/><circle cx="1072" cy="994" r="4"/><circle cx="1137" cy="975" r="6"/><circle cx="1278" cy="970" r="5"/><circle cx="1344" cy="998" r="5"/><circle cx="1383" cy="986" r="4"/><circle cx="1448" cy="1031" r="6"/><circle cx="1570" cy="999" r="6"/><circle cx="1651" cy="1022" r="5"/><circle cx="1719" cy="963" r="5"/><circle cx="1839" cy="1038" r="6"/><circle cx="1843" cy="981" r="6"/><circle cx="1928" cy="1002" r="6"/><circle cx="2033" cy="997" r="4"/><circle cx="2101" cy="1016" r="5"/><circle cx="2224" cy="1022" r="5"/><circle cx="2260" cy="986" r="5"/><circle cx="2327" cy="979" r="5"/><circle cx="2410" cy="966" r="4"/><circle cx="2515" cy="1026" r="6"/><circle cx="78" cy="1096" r="6"/><circle cx="109" cy="1110" r="5"/><circle cx="225" cy="1094" r="4"/><circle cx="250" cy="1116" r="4"/><circle cx="368" cy="1043" r="5"/><circle cx="423" cy="1119" r="5"/><circle cx="507" cy="1112" r="4"/><circle cx="635" cy="1090" r="5"/><circle cx="683" cy="1086" r="6"/><circle cx="763" cy="1120" r="5"/><circle cx="849" cy="1049" r="5"/><circle cx="930" cy="1042" r="5"/><circle cx="990" cy="1107" r="5"/><circle cx="1062" cy="1078" r="6"/><circle cx="1128" cy="1106" r="4"/><circle cx="1211" cy="1114" r="4"/><circle cx="1323" cy="1058" r="5"/><circle cx="1414" cy="1072" r="4"/><circle cx="1505" cy="1099" r="4"/><circle cx="1536" cy="1059" r="4"/><circle cx="1637" cy="1049" r="5"/><circle cx="1729" cy="1070" r="4"/><circle cx="1771" cy="1076" r="5"/><circle cx="1907" cy="1110" r="5"/><circle cx="1938" cy="1045" r="4"/><circle cx="2036" cy="1080" r="5"/><circle cx="2118" cy="1084" r="4"/><circle cx="2200" cy="1052" r="5"/><circle cx="2290" cy="1075" r="5"/><circle cx="2374" cy="1119" r="5"/><circle cx="2442" cy="1070" r="5"/><circle cx="2535" cy="1098" r="6"/><circle cx="72" cy="1120" r="4"/><circle cx="132" cy="1164" r="5"/><circle cx="211" cy="1164" r="4"/><circle cx="304" cy="1131" r="4"/><circle cx="390" cy="1123" r="6"/><circle cx="409" cy="1154" r="5"/><circle cx="526" cy="1136" r="4"/><circle cx="584" cy="1181" r="4"/><circle cx="698" cy="1136" r="6"/><circle cx="726" cy="1193" r="6"/><circle cx="843" cy="1133" r="5"/><circle cx="934" cy="1133" r="6"/><circle cx="994" cy="1158" r="5"/><circle cx="1078" cy="1170" r="6"/><circle cx="1129" cy="1167" r="5"/><circle cx="1209" cy="1171" r="6"/><circle cx="1294" cy="1125" r="4"/><circle cx="1406" cy="1150" r="4"/><circle cx="1472" cy="1186" r="5"/><circle cx="1537" cy="1126" r="5"/><circle cx="1616" cy="1152" r="4"/><circle cx="1714" cy="1128" r="4"/><circle cx="1804" cy="1134" r="6"/><circle cx="1857" cy="1178" r="6"/><circle cx="1922" cy="1166" r="4"/><circle cx="2033" cy="1169" r="5"/><circle cx="2159" cy="1192" r="5"/><circle cx="2168" cy="1184" r="4"/><circle cx="2247" cy="1150" r="4"/><circle cx="2387" cy="1154" r="4"/><circle cx="2473" cy="1171" r="5"/><circle cx="2512" cy="1161" r="4"/><circle cx="69" cy="1255" r="4"/><circle cx="107" cy="1265" r="5"/><circle cx="228" cy="1275" r="5"/><circle cx="242" cy="1227" r="5"/><circle cx="355" cy="1233" r="5"/><circle cx="460" cy="1238" r="5"/><circle cx="494" cy="1215" r="5"/><circle cx="633" cy="1264" r="6"/><circle cx="695" cy="1202" r="6"/><circle cx="744" cy="1212" r="6"/><circle cx="839" cy="1207" r="5"/><circle cx="922" cy="1273" r="5"/><circle cx="1035" cy="1218" r="5"/><circle cx="1091" cy="1275" r="6"/><circle cx="1167" cy="1223" r="5"/><circle cx="1201" cy="1223" r="4"/><circle cx="1283" cy="1262" r="5"/><circle cx="1415" cy="1238" r="6"/><circle cx="1446" cy="1265" r="5"/><circle cx="1542" cy="1225" r="6"/><circle cx="1606" cy="1276" r="4"/><circle cx="1722" cy="1202" r="5"/><circle cx="1781" cy="1205" r="5"/><circle cx="1903" cy="1279" r="4"/><circle cx="1923" cy="1271" r="4"/><circle cx="2078" cy="1265" r="5"/><circle cx="2140" cy="1272" r="5"/><circle cx="2179" cy="1250" r="5"/><circle cx="2310" cy="1231" r="5"/><circle cx="2395" cy="1230" r="5"/><circle cx="2440" cy="1261" r="5"/><circle cx="2547" cy="1279" r="5"/><circle cx="79" cy="1322" r="4"/><circle cx="117" cy="1343" r="5"/><circle cx="212" cy="1313" r="5"/><circle cx="305" cy="1285" r="6"/><circle cx="393" cy="1324" r="5"/><circle cx="426" cy="1295" r="5"/><circle cx="513" cy="1337" r="4"/><circle cx="623" cy="1283" r="6"/><circle cx="694" cy="1328" r="6"/><circle cx="727" cy="1337" r="5"/><circle cx="846" cy="1351" r="6"/><circle cx="949" cy="1338" r="5"/><circle cx="991" cy="1317" r="5"/><circle cx="1110" cy="1297" r="5"/><circle cx="1191" cy="1288" r="5"/><circle cx="1238" cy="1355" r="4"/><circle cx="1283" cy="1338" r="4"/><circle cx="1417" cy="1308" r="5"/><circle cx="1468" cy="1291" r="5"/><circle cx="1571" cy="1326" r="5"/><circle cx="1640" cy="1350" r="6"/><circle cx="1743" cy="1329" r="6"/><circle cx="1762" cy="1307" r="6"/><circle cx="1894" cy="1296" r="5"/><circle cx="1971" cy="1291" r="5"/><circle cx="2069" cy="1328" r="6"/><circle cx="2133" cy="1296" r="5"/><circle cx="2214" cy="1294" r="6"/><circle cx="2304" cy="1337" r="4"/><circle cx="2355" cy="1348" r="5"/><circle cx="2457" cy="1338" r="5"/><circle cx="2527" cy="1310" r="4"/><circle cx="25" cy="1370" r="6"/><circle cx="153" cy="1437" r="5"/><circle cx="153" cy="-3" r="5"/><circle cx="182" cy="1380" r="4"/><circle cx="273" cy="1390" r="6"/><circle cx="376" cy="1373" r="6"/><circle cx="425" cy="1362" r="5"/><circle cx="528" cy="1437" r="5"/><circle cx="528" cy="-3" r="5"/><circle cx="608" cy="1389" r="5"/><circle cx="709" cy="1361" r="5"/><circle cx="781" cy="1435" r="5"/><circle cx="849" cy="1403" r="5"/><circle cx="939" cy="1420" r="4"/><circle cx="998" cy="1429" r="5"/><circle cx="1104" cy="1395" r="6"/><circle cx="1134" cy="1404" r="5"/><circle cx="1213" cy="1387" r="5"/><circle cx="1299" cy="1405" r="4"/><circle cx="1369" cy="1435" r="5"/><circle cx="1501" cy="1366" r="5"/><circle cx="1551" cy="1400" r="5"/><circle cx="1643" cy="1398" r="5"/><circle cx="1730" cy="1399" r="4"/><circle cx="1791" cy="1428" r="5"/><circle cx="1891" cy="1392" r="5"/><circle cx="1985" cy="1404" r="5"/><circle cx="2016" cy="1413" r="5"/><circle cx="2140" cy="1391" r="5"/><circle cx="2178" cy="1395" r="5"/><circle cx="2290" cy="1362" r="5"/><circle cx="2324" cy="1415" r="5"/><circle cx="2470" cy="1430" r="4"/><circle cx="2535" cy="1374" r="6"/><path stroke="#fff" d="M61 72L109 32M61 72L165 53M61 72L51 145M61 72L-6 136M61 72L153 -3M2621 72L2554 136M61 1512L153 1437M109 32L165 53M109 32L153 -3M109 1472L153 1437M165 53L265 8M165 53L151 150M165 53L153 -3M165 1493L153 1437M265 8L366 14M265 8L268 114M265 8L153 -3M265 8L273 -50M265 1448L153 1437M265 1448L273 1390M366 14L413 70M366 14L273 -50M366 14L376 -67M366 14L425 -78M366 1454L273 1390M366 1454L376 1373M366 1454L425 1362M413 70L364 154M413 70L415 146M413 70L528 -3M413 1510L528 1437M555 77L572 25M555 77L543 150M555 77L607 112M555 77L528 -3M555 1517L528 1437M572 25L676 50M572 25L528 -3M572 25L608 -51M572 1465L528 1437M572 1465L608 1389M676 50L754 28M676 50L686 105M676 50L751 107M754 28L808 20M754 28L751 107M754 28L810 105M754 28L781 -5M754 1468L781 1435M808 20L895 9M808 20L810 105M808 20L781 -5M808 20L849 -37M808 1460L781 1435M808 1460L849 1403M895 9L846 -89M895 9L849 -37M895 9L939 -20M895 9L998 -11M895 1449L846 1351M895 1449L849 1403M895 1449L939 1420M895 1449L998 1429M1023 17L1054 6M1023 17L939 -20M1023 17L998 -11M1023 17L1104 -45M1023 1457L939 1420M1023 1457L998 1429M1023 1457L1104 1395M1054 6L1135 77M1054 6L998 -11M1054 6L1104 -45M1054 6L1134 -36M1054 1446L998 1429M1054 1446L1104 1395M1054 1446L1134 1404M1135 77L1120 149M1135 77L1134 124M1135 77L1217 108M1258 17L1280 86M1258 17L1213 -53M1258 17L1299 -35M1258 1457L1213 1387M1258 1457L1299 1405M1352 70L1427 30M1352 70L1280 86M1352 70L1409 137M1352 70L1441 116M1352 70L1369 -5M1352 1510L1369 1435M1427 30L1502 52M1427 30L1409 137M1427 30L1441 116M1427 30L1369 -5M1427 1470L1369 1435M1502 52L1528 10M1502 52L1441 116M1502 52L1548 154M1502 52L1551 -40M1502 1492L1551 1400M1528 10L1501 -74M1528 10L1551 -40M1528 1450L1501 1366M1528 1450L1551 1400M1659 11L1745 15M1659 11L1678 107M1659 11L1689 87M1659 11L1640 -90M1659 11L1643 -42M1659 1451L1640 1350M1659 1451L1643 1398M1745 15L1793 34M1745 15L1689 87M1745 15L1730 -41M1745 15L1791 -12M1745 1455L1730 1399M1745 1455L1791 1428M1793 34L1841 32M1793 34L1788 135M1793 34L1791 -12M1793 1474L1791 1428M1841 32L1954 7M1841 32L1871 121M1841 32L1791 -12M1841 32L1891 -48M1841 1472L1791 1428M1841 1472L1891 1392M1954 7L2007 78M1954 7L1891 -48M1954 7L1985 -36M1954 7L2016 -27M1954 1447L1891 1392M1954 1447L1985 1404M1954 1447L2016 1413M2007 78L1946 154M2007 78L2026 144M2007 78L2094 89M2007 78L2016 -27M2007 1518L2016 1413M2127 35L2215 10M2127 35L2094 89M2127 35L2168 133M2127 35L2140 -49M2127 35L2178 -45M2127 1475L2140 1391M2127 1475L2178 1395M2215 10L2293 56M2215 10L2140 -49M2215 10L2178 -45M2215 1450L2140 1391M2215 1450L2178 1395M2293 56L2372 30M2293 56L2280 140M2293 56L2346 109M2293 56L2324 -25M2293 1496L2324 1415M2372 30L2449 50M2372 30L2346 109M2372 30L2324 -25M2372 30L2470 -10M2372 1470L2324 1415M2372 1470L2470 1430M2449 50L2503 24M2449 50L2466 120M2449 50L2470 -10M2449 1490L2470 1430M2503 24L2466 120M2503 24L2470 -10M2503 24L2535 -66M2503 1464L2470 1430M2503 1464L2535 1374M51 145L-6 136M51 145L16 232M51 145L118 205M51 145L-1 188M2611 145L2554 136M2611 145L2559 188M151 150L223 154M151 150L118 205M151 150L180 205M223 154L268 114M223 154L180 205M364 154L415 146M364 154L300 228M364 154L392 215M415 146L392 215M415 146L413 234M543 150L607 112M543 150L557 173M543 150L649 164M607 112L686 105M607 112L557 173M607 112L649 164M686 105L751 107M686 105L649 164M751 107L810 105M810 105L835 190M810 105L885 166M954 125L969 133M954 125L885 166M954 125L1012 176M969 133L885 166M969 133L1012 176M1120 149L1134 124M1120 149L1116 197M1120 149L1193 168M1120 149L1202 162M1134 124L1217 108M1134 124L1193 168M1134 124L1202 162M1217 108L1280 86M1217 108L1193 168M1217 108L1202 162M1280 86L1297 178M1409 137L1441 116M1409 137L1377 226M1409 137L1467 223M1548 154L1558 220M1548 154L1593 257M1678 107L1689 87M1678 107L1729 189M1689 87L1788 135M1788 135L1871 121M1788 135L1729 189M1788 135L1775 215M1871 121L1946 154M1946 154L2026 144M1946 154L1910 238M2026 144L2094 89M2026 144L1987 239M2026 144L2025 209M2094 89L2168 133M2168 133L2146 239M2168 133L2176 210M2280 140L2346 109M2280 140L2312 177M2280 140L2322 200M2346 109L2312 177M2346 109L2322 200M2466 120L2554 136M2466 120L2414 210M2554 136L2559 188M16 232L-1 188M16 232L50 308M16 232L-40 285M2576 232L2559 188M2576 232L2520 285M118 205L180 205M118 205L127 257M118 205L208 248M180 205L127 257M180 205L208 248M300 228L208 248M300 228L261 247M300 228L321 248M392 215L413 234M392 215L321 248M392 215L449 281M413 234L449 281M413 234L513 261M413 234L399 334M557 173L614 235M557 173L649 164M557 173L513 261M614 235L649 164M614 235L513 261M614 235L606 316M614 235L676 269M753 214L835 190M753 214L676 269M753 214L749 294M835 190L885 166M835 190L864 253M835 190L899 240M885 166L899 240M1012 176L1081 247M1116 197L1193 168M1116 197L1202 162M1116 197L1081 247M1116 197L1123 269M1193 168L1202 162M1297 178L1377 226M1377 226L1467 223M1377 226L1306 294M1377 226L1390 286M1467 223L1558 220M1467 223L1390 286M1467 223L1505 306M1558 220L1643 218M1558 220L1505 306M1558 220L1593 257M1643 218L1729 189M1643 218L1593 257M1643 218L1643 297M1643 218L1715 284M1729 189L1775 215M1729 189L1715 284M1775 215L1715 284M1775 215L1810 245M1910 238L1987 239M1910 238L1810 245M1910 238L1864 301M1910 238L1924 255M1987 239L2025 209M1987 239L1924 255M1987 239L2078 253M2025 209L2078 253M2146 239L2176 210M2146 239L2078 253M2146 239L2160 265M2176 210L2160 265M2312 177L2322 200M2312 177L2414 210M2312 177L2289 250M2322 200L2414 210M2322 200L2289 250M2414 210L2382 313M2414 210L2473 245M2559 188L2473 245M2559 188L2520 285M50 308L127 257M50 308L-40 285M50 308L72 375M50 308L-15 348M2610 308L2520 285M2610 308L2545 348M127 257L208 248M127 257L163 380M208 248L261 247M261 247L321 248M449 281L513 261M449 281L399 334M449 281L404 359M513 261L606 316M606 316L676 269M606 316L591 362M606 316L640 337M676 269L749 294M676 269L640 337M749 294L743 364M864 253L899 240M864 253L903 337M899 240L903 337M1012 301L1081 247M1012 301L1123 269M1012 301L1005 334M1012 301L1072 365M1081 247L1123 269M1081 247L1005 334M1123 269L1072 365M1255 294L1306 294M1255 294L1188 385M1255 294L1255 376M1255 294L1366 339M1306 294L1390 286M1306 294L1360 364M1306 294L1366 339M1390 286L1360 364M1390 286L1366 339M1505 306L1593 257M1505 306L1468 397M1505 306L1416 405M1593 257L1643 297M1643 297L1715 284M1643 297L1589 399M1643 297L1672 357M1715 284L1672 357M1810 245L1864 301M1810 245L1924 255M1810 245L1837 336M1864 301L1924 255M1864 301L1837 336M1864 301L1871 381M2078 253L2091 313M2078 253L2160 265M2091 313L2160 265M2091 313L2070 350M2091 313L2098 396M2091 313L2115 401M2160 265L2215 323M2289 250L2382 313M2289 250L2215 323M2289 250L2284 356M2382 313L2399 344M2382 313L2443 381M2473 245L2520 285M2520 285L2545 348M72 375L122 376M72 375L163 380M72 375L-15 348M72 375L108 442M2632 375L2545 348M122 376L163 380M122 376L108 442M122 376L160 426M163 380L108 442M163 380L160 426M300 386L399 334M300 386L404 359M300 386L314 435M300 386L242 485M399 334L404 359M404 359L509 380M404 359L432 426M509 380L591 362M509 380L432 426M509 380L488 457M509 380L563 442M591 362L640 337M591 362L563 442M591 362L669 422M640 337L743 364M640 337L669 422M743 364L669 422M743 364L748 434M868 377L903 337M868 377L840 457M868 377L946 421M868 377L842 481M903 337L1005 334M903 337L946 421M1005 334L1072 365M1005 334L946 421M1072 365L1102 444M1188 385L1255 376M1188 385L1194 415M1188 385L1215 463M1255 376L1360 364M1255 376L1194 415M1255 376L1281 450M1360 364L1366 339M1360 364L1416 405M1366 339L1416 405M1468 397L1416 405M1468 397L1443 475M1468 397L1574 421M1589 399L1672 357M1589 399L1574 421M1589 399L1594 486M1672 357L1747 375M1747 375L1837 336M1747 375L1773 426M1837 336L1871 381M1837 336L1773 426M1871 381L1946 387M1871 381L1853 451M1946 387L1853 451M1946 387L1975 458M1946 387L2029 429M2070 350L2098 396M2070 350L2115 401M2098 396L2029 429M2098 396L2115 401M2215 323L2284 356M2215 323L2206 424M2284 356L2206 424M2284 356L2317 461M2284 356L2335 445M2399 344L2443 381M2399 344L2335 445M2399 344L2469 424M2443 381L2469 424M2443 381L2491 408M2545 348L2570 435M2545 348L2491 408M-15 348L10 435M10 435L-91 424M10 435L-69 408M10 435L43 508M2570 435L2469 424M2570 435L2491 408M108 442L160 426M108 442L43 508M160 426L242 485M314 435L373 474M314 435L242 485M373 474L432 426M373 474L343 555M373 474L461 485M373 474L391 562M432 426L488 457M432 426L461 485M488 457L563 442M488 457L461 485M488 457L502 505M563 442L502 505M669 422L748 434M669 422L705 491M748 434L840 457M748 434L705 491M748 434L765 522M840 457L765 522M840 457L842 481M840 457L917 484M946 421L1014 477M946 421L917 484M1014 477L1102 444M1014 477L917 484M1014 477L1024 504M1014 477L1068 492M1102 444L1068 492M1102 444L1161 493M1194 415L1215 463M1194 415L1281 450M1194 415L1161 493M1215 463L1281 450M1215 463L1161 493M1215 463L1278 549M1281 450L1278 549M1281 450L1300 549M1416 405L1443 475M1443 475L1422 550M1443 475L1506 537M1574 421L1658 462M1574 421L1594 486M1658 462L1716 460M1658 462L1594 486M1658 462L1673 514M1716 460L1773 426M1716 460L1673 514M1716 460L1722 547M1716 460L1788 499M1773 426L1853 451M1773 426L1788 499M1853 451L1788 499M1853 451L1879 535M1975 458L2029 429M1975 458L1966 558M2029 429L2115 401M2029 429L2080 522M2115 401L2206 424M2206 424L2213 512M2317 461L2335 445M2317 461L2280 493M2317 461L2370 516M2335 445L2280 493M2335 445L2370 516M2469 424L2491 408M2469 424L2492 508M2491 408L2492 508M43 508L114 536M43 508L59 589M43 508L118 580M114 536L168 557M114 536L59 589M114 536L118 580M168 557L242 485M168 557L118 580M168 557L190 624M242 485L298 568M343 555L298 568M343 555L391 562M343 555L438 609M461 485L502 505M461 485L391 562M637 541L705 491M637 541L596 632M637 541L680 621M637 541L731 595M705 491L765 522M765 522L842 481M765 522L731 595M842 481L917 484M842 481L859 608M917 484L1024 504M1024 504L1068 492M1024 504L1054 616M1068 492L1161 493M1161 493L1145 581M1278 549L1300 549M1278 549L1212 580M1278 549L1316 584M1300 549L1212 580M1300 549L1316 584M1422 550L1506 537M1422 550L1392 630M1506 537L1496 640M1506 537L1544 587M1594 486L1673 514M1594 486L1609 594M1673 514L1722 547M1673 514L1609 594M1722 547L1788 499M1722 547L1746 636M1722 547L1799 574M1788 499L1799 574M1879 535L1966 558M1879 535L1799 574M1879 535L1908 599M1966 558L2016 546M1966 558L1908 599M1966 558L1986 581M2016 546L2080 522M2016 546L1986 581M2016 546L2062 616M2080 522L1986 581M2080 522L2062 616M2080 522L2120 571M2213 512L2280 493M2213 512L2120 571M2213 512L2181 583M2213 512L2296 575M2280 493L2296 575M2370 516L2430 539M2370 516L2382 576M2370 516L2444 564M2430 539L2492 508M2430 539L2382 576M2430 539L2444 564M2492 508L2444 564M2492 508L2546 600M59 589L118 580M59 589L-14 600M59 589L15 656M2619 589L2546 600M118 580L190 624M190 624L107 702M190 624L237 666M190 624L257 688M298 568L391 562M298 568L237 666M298 568L355 663M391 562L438 609M438 609L503 631M438 609L355 663M438 609L470 683M503 631L596 632M503 631L470 683M503 631L535 689M596 632L680 621M596 632L535 689M596 632L572 714M680 621L731 595M680 621L693 669M680 621L739 681M731 595L693 669M731 595L739 681M859 608L903 631M859 608L969 627M859 608L822 673M859 608L956 660M903 631L969 627M903 631L822 673M903 631L956 660M903 631L996 682M969 627L1054 616M969 627L956 660M969 627L996 682M1054 616L1145 581M1054 616L996 682M1054 616L1110 671M1145 581L1212 580M1145 581L1110 671M1145 581L1174 647M1212 580L1316 584M1212 580L1174 647M1316 584L1392 630M1316 584L1341 680M1392 630L1341 680M1392 630L1429 699M1392 630L1458 664M1496 640L1544 587M1496 640L1429 699M1496 640L1458 664M1544 587L1609 594M1544 587L1458 664M1544 587L1602 654M1609 594L1602 654M1609 594L1683 684M1746 636L1799 574M1746 636L1683 684M1746 636L1823 642M1746 636L1760 737M1799 574L1823 642M1908 599L1986 581M1908 599L1823 642M1908 599L1860 678M1986 581L2062 616M2062 616L2120 571M2062 616L2136 667M2120 571L2181 583M2120 571L2136 667M2181 583L2296 575M2181 583L2136 667M2181 583L2228 686M2296 575L2382 576M2296 575L2303 675M2382 576L2444 564M2444 564L2546 600M2546 600L2575 656M-14 600L15 656M15 656L107 702M15 656L-58 696M15 656L12 730M2575 656L2502 696M107 702L12 730M107 702L110 774M237 666L257 688M237 666L355 663M257 688L355 663M257 688L230 780M470 683L535 689M470 683L495 748M535 689L572 714M535 689L495 748M572 714L495 748M572 714L635 794M572 714L665 754M693 669L739 681M693 669L665 754M739 681L822 673M739 681L791 755M822 673L791 755M956 660L996 682M956 660L1008 736M996 682L1008 736M1110 671L1174 647M1110 671L1216 703M1110 671L1085 752M1174 647L1216 703M1174 647L1237 735M1216 703L1182 800M1216 703L1237 735M1341 680L1429 699M1341 680L1337 785M1341 680L1370 798M1429 699L1458 664M1429 699L1486 784M1578 716L1602 654M1578 716L1683 684M1578 716L1580 727M1578 716L1620 736M1602 654L1580 727M1602 654L1620 736M1683 684L1620 736M1683 684L1760 737M1823 642L1860 678M1823 642L1785 744M1860 678L1785 744M1860 678L1852 756M1985 704L2010 701M1985 704L1971 760M1985 704L2073 755M2010 701L1971 760M2010 701L2073 755M2010 701L2080 771M2136 667L2228 686M2136 667L2165 724M2228 686L2303 675M2228 686L2165 724M2228 686L2279 737M2303 675L2397 716M2303 675L2279 737M2397 716L2427 701M2397 716L2379 795M2397 716L2418 727M2427 701L2502 696M2427 701L2418 727M2427 701L2516 751M2502 696L2572 730M2502 696L2418 727M2502 696L2516 751M-58 696L12 730M12 730L-44 751M12 730L14 835M2572 730L2516 751M110 774L14 835M110 774L140 852M110 774L172 802M230 780L271 798M230 780L140 852M230 780L172 802M230 780L287 831M271 798L330 800M271 798L172 802M271 798L287 831M271 798L346 843M330 800L402 774M330 800L287 831M330 800L346 843M402 774L495 748M402 774L346 843M402 774L454 843M495 748L500 833M635 794L665 754M635 794L598 823M635 794L709 866M665 754L598 823M791 755L801 794M791 755L900 783M791 755L806 825M801 794L900 783M801 794L751 859M801 794L806 825M900 783L806 825M900 783L935 863M1008 736L1085 752M1008 736L1006 816M1085 752L1182 800M1182 800L1237 735M1182 800L1158 868M1182 800L1227 818M1237 735L1337 785M1237 735L1227 818M1337 785L1370 798M1337 785L1323 877M1337 785L1388 841M1370 798L1486 784M1370 798L1323 877M1370 798L1388 841M1486 784L1477 875M1486 784L1545 877M1580 727L1620 736M1760 737L1785 744M1760 737L1852 756M1760 737L1845 810M1785 744L1852 756M1785 744L1845 810M1852 756L1845 810M1971 760L2080 771M1971 760L1973 869M2073 755L2080 771M2073 755L2165 724M2073 755L2071 845M2080 771L2165 724M2080 771L2071 845M2165 724L2279 737M2279 737L2292 844M2379 795L2418 727M2379 795L2292 844M2379 795L2342 847M2379 795L2426 837M2418 727L2516 751M2516 751L2574 835M-44 751L14 835M14 835L-1 848M14 835L23 917M2574 835L2559 848M140 852L172 802M140 852L111 953M140 852L204 943M287 831L346 843M287 831L259 925M346 843L324 932M454 843L500 833M454 843L480 892M454 843L509 925M500 833L598 823M500 833L480 892M500 833L509 925M598 823L627 942M709 866L751 859M709 866L708 918M709 866L735 918M709 866L691 962M751 859L806 825M751 859L708 918M751 859L735 918M935 863L1006 816M935 863L1045 865M935 863L990 904M1006 816L1045 865M1006 816L990 904M1006 816L1077 888M1045 865L990 904M1045 865L1077 888M1158 868L1227 818M1158 868L1077 888M1158 868L1184 957M1158 868L1137 975M1227 818L1262 889M1323 877L1388 841M1323 877L1262 889M1323 877L1318 938M1388 841L1477 875M1477 875L1545 877M1477 875L1426 948M1477 875L1506 946M1545 877L1623 869M1545 877L1506 946M1545 877L1578 954M1623 869L1695 829M1623 869L1578 954M1623 869L1647 942M1623 869L1707 902M1695 829L1764 847M1695 829L1707 902M1764 847L1845 810M1764 847L1773 904M1845 810L1773 904M1973 869L2071 845M1973 869L1895 941M1973 869L1996 949M1973 869L2015 881M2071 845L2156 879M2071 845L2015 881M2156 879L2200 838M2156 879L2149 897M2156 879L2198 912M2200 838L2292 844M2200 838L2149 897M2200 838L2198 912M2292 844L2342 847M2292 844L2262 928M2342 847L2426 837M2342 847L2391 940M2342 847L2408 912M2426 837L2391 940M2426 837L2408 912M2559 848L2583 917M2559 848L2522 955M-1 848L23 917M23 917L111 953M23 917L-38 955M23 917L1 1011M2583 917L2522 955M111 953L204 943M111 953L135 976M204 943L259 925M204 943L135 976M204 943L221 1039M259 925L324 932M259 925L283 1000M324 932L283 1000M324 932L361 1020M480 892L509 925M480 892L444 1001M509 925L444 1001M509 925L497 1028M627 942L708 918M627 942L604 1015M627 942L691 962M708 918L735 918M708 918L691 962M735 918L691 962M735 918L806 966M841 944L883 956M841 944L800 984M841 944L806 966M841 944L934 977M841 944L849 1049M883 956L800 984M883 956L806 966M883 956L934 977M990 904L1077 888M990 904L975 973M1077 888L1137 975M1184 957L1262 889M1184 957L1137 975M1184 957L1278 970M1262 889L1318 938M1262 889L1278 970M1318 938L1278 970M1318 938L1344 998M1318 938L1383 986M1426 948L1506 946M1426 948L1344 998M1426 948L1383 986M1426 948L1448 1031M1506 946L1578 954M1506 946L1570 999M1578 954L1647 942M1578 954L1570 999M1647 942L1707 902M1647 942L1651 1022M1647 942L1719 963M1707 902L1773 904M1707 902L1719 963M1773 904L1719 963M1773 904L1843 981M1895 941L1996 949M1895 941L1843 981M1895 941L1928 1002M1996 949L2015 881M1996 949L1928 1002M1996 949L2033 997M2015 881L2149 897M2015 881L2033 997M2149 897L2198 912M2198 912L2262 928M2262 928L2224 1022M2262 928L2260 986M2262 928L2327 979M2391 940L2408 912M2391 940L2327 979M2391 940L2410 966M2408 912L2410 966M2522 955L2561 1011M2522 955L2410 966M2522 955L2515 1026M-38 955L1 1011M1 1011L-45 1026M1 1011L78 1096M1 1011L-25 1098M2561 1011L2515 1026M2561 1011L2535 1098M135 976L221 1039M221 1039L283 1000M221 1039L225 1094M221 1039L250 1116M283 1000L361 1020M283 1000L368 1043M361 1020L444 1001M361 1020L368 1043M361 1020L390 1123M444 1001L497 1028M444 1001L368 1043M497 1028L604 1015M497 1028L507 1112M497 1028L526 1136M604 1015L691 962M604 1015L635 1090M604 1015L683 1086M800 984L806 966M800 984L849 1049M806 966L849 1049M934 977L975 973M934 977L930 1042M975 973L1072 994M975 973L930 1042M1072 994L1137 975M1072 994L1062 1078M1278 970L1344 998M1278 970L1323 1058M1344 998L1383 986M1344 998L1323 1058M1383 986L1448 1031M1383 986L1323 1058M1448 1031L1414 1072M1448 1031L1505 1099M1448 1031L1536 1059M1570 999L1651 1022M1570 999L1536 1059M1570 999L1637 1049M1651 1022L1719 963M1651 1022L1637 1049M1651 1022L1729 1070M1839 1038L1843 981M1839 1038L1928 1002M1839 1038L1771 1076M1839 1038L1907 1110M1839 1038L1804 1134M1843 981L1928 1002M1843 981L1771 1076M1928 1002L1938 1045M2033 997L2101 1016M2033 997L1938 1045M2033 997L2036 1080M2101 1016L2036 1080M2101 1016L2118 1084M2101 1016L2200 1052M2224 1022L2260 986M2224 1022L2200 1052M2224 1022L2290 1075M2260 986L2327 979M2260 986L2200 1052M2260 986L2290 1075M2327 979L2410 966M2515 1026L2442 1070M2515 1026L2535 1098M78 1096L109 1110M78 1096L-25 1098M78 1096L72 1120M78 1096L132 1164M2638 1096L2535 1098M109 1110L72 1120M109 1110L132 1164M225 1094L250 1116M225 1094L211 1164M225 1094L304 1131M250 1116L211 1164M250 1116L304 1131M368 1043L423 1119M368 1043L390 1123M423 1119L507 1112M423 1119L390 1123M423 1119L409 1154M423 1119L526 1136M507 1112L526 1136M635 1090L683 1086M635 1090L584 1181M635 1090L698 1136M683 1086L763 1120M683 1086L698 1136M763 1120L698 1136M763 1120L726 1193M763 1120L843 1133M763 1120L744 1212M849 1049L930 1042M849 1049L843 1133M930 1042L990 1107M930 1042L934 1133M990 1107L1062 1078M990 1107L934 1133M990 1107L994 1158M1062 1078L1128 1106M1062 1078L1078 1170M1128 1106L1211 1114M1128 1106L1078 1170M1128 1106L1129 1167M1211 1114L1209 1171M1211 1114L1294 1125M1323 1058L1414 1072M1323 1058L1294 1125M1414 1072L1505 1099M1414 1072L1406 1150M1505 1099L1536 1059M1505 1099L1537 1126M1536 1059L1637 1049M1536 1059L1537 1126M1637 1049L1729 1070M1637 1049L1616 1152M1729 1070L1771 1076M1729 1070L1714 1128M1771 1076L1714 1128M1771 1076L1804 1134M1907 1110L1938 1045M1907 1110L1857 1178M1907 1110L1922 1166M1938 1045L2036 1080M2036 1080L2118 1084M2036 1080L2033 1169M2118 1084L2200 1052M2200 1052L2290 1075M2290 1075L2374 1119M2290 1075L2247 1150M2374 1119L2442 1070M2374 1119L2387 1154M2374 1119L2395 1230M2442 1070L2387 1154M2535 1098L2473 1171M2535 1098L2512 1161M72 1120L132 1164M132 1164L211 1164M132 1164L107 1265M211 1164L304 1131M211 1164L242 1227M304 1131L390 1123M390 1123L409 1154M409 1154L355 1233M409 1154L460 1238M409 1154L494 1215M526 1136L584 1181M526 1136L494 1215M584 1181L494 1215M584 1181L633 1264M698 1136L726 1193M698 1136L695 1202M726 1193L633 1264M726 1193L695 1202M726 1193L744 1212M843 1133L934 1133M843 1133L839 1207M934 1133L994 1158M934 1133L839 1207M994 1158L1078 1170M994 1158L1035 1218M1078 1170L1129 1167M1078 1170L1035 1218M1129 1167L1209 1171M1129 1167L1167 1223M1129 1167L1201 1223M1209 1171L1294 1125M1209 1171L1167 1223M1209 1171L1201 1223M1294 1125L1406 1150M1406 1150L1472 1186M1406 1150L1415 1238M1472 1186L1537 1126M1472 1186L1415 1238M1472 1186L1446 1265M1472 1186L1542 1225M1537 1126L1616 1152M1537 1126L1542 1225M1616 1152L1722 1202M1714 1128L1804 1134M1714 1128L1722 1202M1714 1128L1781 1205M1804 1134L1857 1178M1804 1134L1781 1205M1857 1178L1922 1166M1857 1178L1781 1205M1857 1178L1903 1279M1922 1166L2033 1169M1922 1166L1923 1271M2159 1192L2168 1184M2159 1192L2078 1265M2159 1192L2140 1272M2159 1192L2179 1250M2168 1184L2247 1150M2168 1184L2179 1250M2247 1150L2310 1231M2387 1154L2473 1171M2387 1154L2310 1231M2387 1154L2395 1230M2473 1171L2512 1161M2473 1171L2395 1230M2473 1171L2440 1261M69 1255L107 1265M69 1255L-13 1279M69 1255L79 1322M2629 1255L2547 1279M107 1265L79 1322M107 1265L117 1343M228 1275L242 1227M228 1275L212 1313M228 1275L305 1285M228 1275L182 1380M242 1227L212 1313M242 1227L305 1285M355 1233L460 1238M355 1233L305 1285M355 1233L393 1324M355 1233L426 1295M460 1238L494 1215M460 1238L426 1295M633 1264L695 1202M633 1264L623 1283M633 1264L694 1328M695 1202L744 1212M695 1202L623 1283M744 1212L839 1207M839 1207L922 1273M922 1273L846 1351M922 1273L949 1338M922 1273L991 1317M1035 1218L1091 1275M1035 1218L991 1317M1035 1218L1110 1297M1091 1275L1167 1223M1091 1275L991 1317M1091 1275L1110 1297M1091 1275L1191 1288M1167 1223L1201 1223M1167 1223L1191 1288M1201 1223L1283 1262M1201 1223L1191 1288M1283 1262L1238 1355M1283 1262L1283 1338M1415 1238L1446 1265M1415 1238L1417 1308M1415 1238L1468 1291M1446 1265L1542 1225M1446 1265L1417 1308M1446 1265L1468 1291M1542 1225L1606 1276M1542 1225L1468 1291M1606 1276L1571 1326M1606 1276L1640 1350M1722 1202L1781 1205M1722 1202L1762 1307M1781 1205L1762 1307M1903 1279L1923 1271M1903 1279L1894 1296M1903 1279L1971 1291M1903 1279L1891 1392M1923 1271L1894 1296M1923 1271L1971 1291M2078 1265L2140 1272M2078 1265L2069 1328M2078 1265L2133 1296M2140 1272L2179 1250M2140 1272L2133 1296M2140 1272L2214 1294M2179 1250L2133 1296M2179 1250L2214 1294M2310 1231L2395 1230M2310 1231L2304 1337M2395 1230L2440 1261M2440 1261L2547 1279M2440 1261L2457 1338M2440 1261L2527 1310M2547 1279L2527 1310M2547 1279L2585 1370M2547 1279L2535 1374M-13 1279L25 1370M79 1322L117 1343M79 1322L25 1370M117 1343L25 1370M117 1343L182 1380M212 1313L305 1285M212 1313L182 1380M212 1313L273 1390M305 1285L393 1324M393 1324L426 1295M393 1324L376 1373M393 1324L425 1362M426 1295L376 1373M426 1295L425 1362M513 1337L425 1362M513 1337L528 1437M623 1283L694 1328M623 1283L608 1389M623 1283L709 1361M694 1328L727 1337M694 1328L608 1389M694 1328L709 1361M727 1337L709 1361M846 1351L949 1338M846 1351L781 1435M846 1351L849 1403M949 1338L991 1317M949 1338L939 1420M949 1338L998 1429M1110 1297L1191 1288M1110 1297L1104 1395M1110 1297L1134 1404M1191 1288L1238 1355M1238 1355L1283 1338M1238 1355L1213 1387M1238 1355L1299 1405M1283 1338L1213 1387M1283 1338L1299 1405M1417 1308L1468 1291M1417 1308L1369 1435M1417 1308L1501 1366M1468 1291L1501 1366M1571 1326L1640 1350M1571 1326L1501 1366M1571 1326L1551 1400M1571 1326L1643 1398M1640 1350L1743 1329M1640 1350L1643 1398M1743 1329L1762 1307M1743 1329L1730 1399M1743 1329L1791 1428M1762 1307L1730 1399M1894 1296L1971 1291M1894 1296L1891 1392M1971 1291L2069 1328M1971 1291L1985 1404M2069 1328L2133 1296M2069 1328L2016 1413M2069 1328L2140 1391M2133 1296L2214 1294M2214 1294L2304 1337M2214 1294L2290 1362M2304 1337L2355 1348M2304 1337L2290 1362M2304 1337L2324 1415M2355 1348L2457 1338M2355 1348L2290 1362M2355 1348L2324 1415M2457 1338L2527 1310M2457 1338L2470 1430M2457 1338L2535 1374M2527 1310L2585 1370M2527 1310L2535 1374M-33 1310L25 1370M25 1370L-25 1374M2585 1370L2535 1374M153 1437L182 1380M182 1380L273 1390M273 1390L376 1373M376 1373L425 1362M528 1437L608 1389M608 1389L709 1361M709 1361L781 1435M781 1435L849 1403M849 1403L939 1420M939 1420L998 1429M1104 1395L1134 1404M1134 1404L1213 1387M1213 1387L1299 1405M1299 1405L1369 1435M1501 1366L1551 1400M1551 1400L1643 1398M1643 1398L1730 1399M1730 1399L1791 1428M1891 1392L1985 1404M1985 1404L2016 1413M2016 1413L2140 1391M2140 1391L2178 1395M2178 1395L2290 1362M2290 1362L2324 1415"/></svg>