<svg xmlns="http://www.w3.org/2000/svg" width="2560" height="1440" fill="#fff"><circle cx="50" cy="11" r="6"/><circle cx="82" cy="32" r="4"/><circle cx="182" cy="75" r="6"/><circle cx="282" cy="65" r="4"/><circle cx="389" cy="39" r="6"/><circle cx="429" cy="62" r="4"/><circle cx="492" cy="11" r="4"/><circle cx="616" cy="69" r="5"/><circle cx="666" cy="56" r="4"/><circle cx="732" cy="19" r="6"/><circle cx="862" cy="75" r="4"/><circle cx="960" cy="56" r="5"/><circle cx="992" cy="26" r="6"/><circle cx="1083" cy="58" r="4"/><circle cx="1193" cy="65" r="6"/><circle cx="1223" cy="23" r="6"/><circle cx="1341" cy="52" r="5"/><circle cx="1402" cy="18" r="5"/><circle cx="1448" cy="64" r="4"/><circle cx="1576" cy="64" r="6"/><circle cx="1620" cy="73" r="5"/><circle cx="1737" cy="12" r="4"/><circle cx="1811" cy="14" r="6"/><circle cx="1859" cy="31" r="5"/><circle cx="1923" cy="22" r="5"/><circle cx="2052" cy="68" r="5"/><circle cx="2135" cy="43" r="5"/><circle cx="2174" cy="61" r="4"/><circle cx="2244" cy="18" r="5"/><circle cx="2336" cy="30" r="5"/><circle cx="2476" cy="13" r="5"/><circle cx="2493" cy="69" r="5"/><circle cx="3" cy="85" r="5"/><circle cx="2563" cy="85" r="5"/><circle cx="91" cy="118" r="6"/><circle cx="234" cy="155" r="6"/><circle cx="300" cy="130" r="4"/><circle cx="357" cy="99" r="6"/><circle cx="440" cy="139" r="6"/><circle cx="518" cy="96" r="5"/><circle cx="634" cy="124" r="5"/><circle cx="656" cy="144" r="4"/><circle cx="755" cy="119" r="5"/><circle cx="837" cy="104" r="5"/><circle cx="953" cy="102" r="6"/><circle cx="1033" cy="135" r="5"/><circle cx="1070" cy="155" r="4"/><circle cx="1156" cy="98" r="6"/><circle cx="1208" cy="87" r="4"/><circle cx="1347" cy="146" r="5"/><circle cx="1380" cy="139" r="5"/><circle cx="1480" cy="101" r="5"/><circle cx="1533" cy="115" r="6"/><circle cx="1619" cy="99" r="4"/><circle cx="1728" cy="99" r="6"/><circle cx="1787" cy="159" r="6"/><circle cx="1907" cy="128" r="6"/><circle cx="1927" cy="128" r="5"/><circle cx="2043" cy="82" r="4"/><circle cx="2139" cy="121" r="5"/><circle cx="2213" cy="127" r="4"/><circle cx="2291" cy="130" r="5"/><circle cx="2326" cy="146" r="5"/><circle cx="2441" cy="145" r="6"/><circle cx="2556" cy="137" r="5"/><circle cx="-4" cy="137" r="5"/><circle cx="63" cy="216" r="6"/><circle cx="139" cy="162" r="5"/><circle cx="237" cy="231" r="4"/><circle cx="274" cy="163" r="4"/><circle cx="340" cy="216" r="5"/><circle cx="475" cy="173" r="5"/><circle cx="521" cy="191" r="5"/><circle cx="640" cy="195" r="4"/><circle cx="690" cy="219" r="5"/><circle cx="741" cy="237" r="6"/><circle cx="841" cy="228" r="4"/><circle cx="919" cy="216" r="5"/><circle cx="977" cy="161" r="5"/><circle cx="1099" cy="237" r="4"/><circle cx="1160" cy="235" r="5"/><circle cx="1252" cy="174" r="4"/><circle cx="1329" cy="175" r="6"/><circle cx="1439" cy="232" r="5"/><circle cx="1505" cy="222" r="5"/><circle cx="1525" cy="185" r="5"/><circle cx="1649" cy="210" r="5"/><circle cx="1715" cy="160" r="5"/><circle cx="1793" cy="206" r="5"/><circle cx="1896" cy="208" r="5"/><circle cx="1936" cy="208" r="6"/><circle cx="2040" cy="228" r="5"/><circle cx="2114" cy="172" r="4"/><circle cx="2213" cy="167" r="5"/><circle cx="2318" cy="223" r="4"/><circle cx="2326" cy="176" r="5"/><circle cx="2414" cy="162" r="6"/><circle cx="2544" cy="219" r="6"/><circle cx="72" cy="241" r="6"/><circle cx="124" cy="255" r="4"/><circle cx="208" cy="269" r="5"/><circle cx="294" cy="278" r="4"/><circle cx="321" cy="265" r="6"/><circle cx="433" cy="256" r="4"/><circle cx="539" cy="251" r="4"/><circle cx="603" cy="277" r="6"/><circle cx="651" cy="299" r="5"/><circle cx="722" cy="249" r="6"/><circle cx="841" cy="246" r="5"/><circle cx="915" cy="264" r="5"/><circle cx="997" cy="316" r="5"/><circle cx="1074" cy="298" r="4"/><circle cx="1165" cy="268" r="5"/><circle cx="1246" cy="310" r="5"/><circle cx="1317" cy="272" r="5"/><circle cx="1435" cy="243" r="6"/><circle cx="1497" cy="254" r="5"/><circle cx="1580" cy="306" r="4"/><circle cx="1678" cy="298" r="5"/><circle cx="1742" cy="254" r="5"/><circle cx="1807" cy="304" r="6"/><circle cx="1902" cy="243" r="4"/><circle cx="1959" cy="248" r="6"/><circle cx="2004" cy="282" r="5"/><circle cx="2122" cy="286" r="5"/><circle cx="2205" cy="305" r="4"/><circle cx="2267" cy="312" r="5"/><circle cx="2372" cy="247" r="4"/><circle cx="2440" cy="251" r="6"/><circle cx="2551" cy="308" r="6"/><circle cx="36" cy="380" r="4"/><circle cx="83" cy="333" r="6"/><circle cx="167" cy="388" r="5"/><circle cx="298" cy="353" r="5"/><circle cx="330" cy="351" r="5"/><circle cx="457" cy="378" r="4"/><circle cx="498" cy="365" r="4"/><circle cx="615" cy="359" r="5"/><circle cx="657" cy="367" r="6"/><circle cx="730" cy="345" r="5"/><circle cx="832" cy="355" r="6"/><circle cx="920" cy="397" r="4"/><circle cx="1036" cy="352" r="5"/><circle cx="1058" cy="345" r="4"/><circle cx="1157" cy="322" r="5"/><circle cx="1243" cy="354" r="5"/><circle cx="1296" cy="372" r="6"/><circle cx="1426" cy="376" r="6"/><circle cx="1467" cy="368" r="6"/><circle cx="1584" cy="368" r="4"/><circle cx="1606" cy="355" r="5"/><circle cx="1740" cy="379" r="5"/><circle cx="1764" cy="387" r="5"/><circle cx="1908" cy="368" r="5"/><circle cx="1997" cy="320" r="6"/><circle cx="2022" cy="324" r="5"/><circle cx="2094" cy="376" r="5"/><circle cx="2200" cy="383" r="6"/><circle cx="2246" cy="364" r="6"/><circle cx="2392" cy="331" r="4"/><circle cx="2451" cy="351" r="5"/><circle cx="2519" cy="329" r="6"/><circle cx="15" cy="463" r="5"/><circle cx="97" cy="471" r="5"/><circle cx="197" cy="461" r="6"/><circle cx="274" cy="450" r="5"/><circle cx="329" cy="439" r="5"/><circle cx="410" cy="474" r="6"/><circle cx="538" cy="427" r="6"/><circle cx="625" cy="475" r="5"/><circle cx="650" cy="460" r="5"/><circle cx="767" cy="461" r="6"/><circle cx="867" cy="457" r="6"/><circle cx="956" cy="419" r="5"/><circle cx="964" cy="403" r="4"/><circle cx="1067" cy="448" r="4"/><circle cx="1176" cy="436" r="5"/><circle cx="1240" cy="450" r="5"/><circle cx="1285" cy="437" r="5"/><circle cx="1415" cy="415" r="6"/><circle cx="1487" cy="438" r="4"/><circle cx="1522" cy="457" r="6"/><circle cx="1672" cy="402" r="5"/><circle cx="1755" cy="478" r="6"/><circle cx="1803" cy="424" r="5"/><circle cx="1906" cy="456" r="4"/><circle cx="1925" cy="412" r="5"/><circle cx="2026" cy="411" r="5"/><circle cx="2113" cy="421" r="4"/><circle cx="2221" cy="460" r="4"/><circle cx="2246" cy="447" r="4"/><circle cx="2337" cy="441" r="5"/><circle cx="2404" cy="475" r="5"/><circle cx="2526" cy="444" r="4"/><circle cx="7" cy="491" r="4"/><circle cx="110" cy="519" r="6"/><circle cx="163" cy="529" r="6"/><circle cx="252" cy="507" r="4"/><circle cx="361" cy="495" r="5"/><circle cx="426" cy="525" r="5"/><circle cx="512" cy="526" r="5"/><circle cx="630" cy="518" r="5"/><circle cx="692" cy="528" r="4"/><circle cx="759" cy="509" r="5"/><circle cx="803" cy="526" r="5"/><circle cx="925" cy="485" r="4"/><circle cx="1036" cy="496" r="4"/><circle cx="1064" cy="556" r="5"/><circle cx="1121" cy="556" r="6"/><circle cx="1252" cy="533" r="4"/><circle cx="1288" cy="503" r="5"/><circle cx="1373" cy="500" r="5"/><circle cx="1446" cy="554" r="4"/><circle cx="1534" cy="495" r="4"/><circle cx="1647" cy="485" r="5"/><circle cx="1687" cy="497" r="4"/><circle cx="1777" cy="545" r="5"/><circle cx="1856" cy="517" r="4"/><circle cx="1935" cy="504" r="5"/><circle cx="2034" cy="522" r="4"/><circle cx="2104" cy="553" r="5"/><circle cx="2221" cy="547" r="5"/><circle cx="2269" cy="517" r="5"/><circle cx="2384" cy="481" r="5"/><circle cx="2459" cy="493" r="5"/><circle cx="2525" cy="556" r="5"/><circle cx="61" cy="598" r="4"/><circle cx="118" cy="600" r="5"/><circle cx="180" cy="613" r="5"/><circle cx="300" cy="589" r="5"/><circle cx="334" cy="631" r="5"/><circle cx="466" cy="591" r="6"/><circle cx="514" cy="602" r="5"/><circle cx="578" cy="623" r="6"/><circle cx="713" cy="626" r="4"/><circle cx="739" cy="570" r="5"/><circle cx="863" cy="612" r="5"/><circle cx="881" cy="569" r="5"/><circle cx="995" cy="619" r="5"/><circle cx="1108" cy="614" r="6"/><circle cx="1182" cy="573" r="4"/><circle cx="1266" cy="569" r="4"/><circle cx="1282" cy="562" r="6"/><circle cx="1369" cy="589" r="5"/><circle cx="1451" cy="608" r="6"/><circle cx="1583" cy="634" r="5"/><circle cx="1642" cy="572" r="5"/><circle cx="1724" cy="578" r="5"/><circle cx="1796" cy="614" r="6"/><circle cx="1908" cy="589" r="4"/><circle cx="1932" cy="632" r="4"/><circle cx="2046" cy="578" r="6"/><circle cx="2134" cy="561" r="5"/><circle cx="2171" cy="631" r="5"/><circle cx="2313" cy="575" r="5"/><circle cx="2332" cy="605" r="5"/><circle cx="2462" cy="607" r="5"/><circle cx="2542" cy="583" r="4"/><circle cx="36" cy="656" r="5"/><circle cx="143" cy="698" r="5"/><circle cx="173" cy="665" r="5"/><circle cx="274" cy="666" r="4"/><circle cx="340" cy="694" r="5"/><circle cx="454" cy="672" r="5"/><circle cx="547" cy="720" r="4"/><circle cx="607" cy="667" r="6"/><circle cx="696" cy="669" r="5"/><circle cx="774" cy="697" r="5"/><circle cx="846" cy="656" r="5"/><circle cx="926" cy="698" r="6"/><circle cx="1013" cy="678" r="6"/><circle cx="1079" cy="718" r="4"/><circle cx="1198" cy="709" r="5"/><circle cx="1239" cy="677" r="5"/><circle cx="1313" cy="685" r="4"/><circle cx="1391" cy="691" r="5"/><circle cx="1450" cy="649" r="4"/><circle cx="1598" cy="718" r="5"/><circle cx="1630" cy="709" r="5"/><circle cx="1685" cy="710" r="5"/><circle cx="1839" cy="657" r="5"/><circle cx="1843" cy="685" r="4"/><circle cx="1947" cy="699" r="6"/><circle cx="2077" cy="692" r="6"/><circle cx="2153" cy="652" r="6"/><circle cx="2180" cy="694" r="6"/><circle cx="2304" cy="693" r="5"/><circle cx="2356" cy="649" r="4"/><circle cx="2424" cy="691" r="4"/><circle cx="2488" cy="697" r="4"/><circle cx="78" cy="773" r="4"/><circle cx="113" cy="769" r="5"/><circle cx="235" cy="789" r="5"/><circle cx="257" cy="725" r="6"/><circle cx="398" cy="721" r="4"/><circle cx="431" cy="738" r="4"/><circle cx="554" cy="751" r="5"/><circle cx="603" cy="761" r="6"/><circle cx="662" cy="742" r="5"/><circle cx="729" cy="763" r="5"/><circle cx="826" cy="795" r="5"/><circle cx="947" cy="755" r="4"/><circle cx="972" cy="721" r="6"/><circle cx="1098" cy="742" r="5"/><circle cx="1198" cy="754" r="5"/><circle cx="1229" cy="729" r="4"/><circle cx="1320" cy="769" r="5"/><circle cx="1375" cy="739" r="5"/><circle cx="1462" cy="775" r="5"/><circle cx="1585" cy="748" r="6"/><circle cx="1602" cy="788" r="5"/><circle cx="1747" cy="746" r="4"/><circle cx="1775" cy="785" r="5"/><circle cx="1879" cy="784" r="5"/><circle cx="1955" cy="724" r="5"/><circle cx="2055" cy="736" r="5"/><circle cx="2143" cy="770" r="6"/><circle cx="2221" cy="755" r="5"/><circle cx="2307" cy="724" r="5"/><circle cx="2385" cy="759" r="6"/><circle cx="2438" cy="783" r="4"/><circle cx="2500" cy="784" r="5"/><circle cx="65" cy="859" r="4"/><circle cx="91" cy="865" r="5"/><circle cx="180" cy="820" r="5"/><circle cx="276" cy="801" r="5"/><circle cx="373" cy="837" r="5"/><circle cx="470" cy="841" r="5"/><circle cx="522" cy="859" r="4"/><circle cx="630" cy="808" r="4"/><circle cx="660" cy="863" r="6"/><circle cx="737" cy="807" r="6"/><circle cx="820" cy="865" r="6"/><circle cx="952" cy="863" r="5"/><circle cx="1017" cy="878" r="5"/><circle cx="1051" cy="863" r="5"/><circle cx="1180" cy="801" r="5"/><circle cx="1201" cy="802" r="5"/><circle cx="1300" cy="835" r="5"/><circle cx="1439" cy="846" r="4"/><circle cx="1445" cy="846" r="5"/><circle cx="1581" cy="818" r="4"/><circle cx="1639" cy="875" r="4"/><circle cx="1744" cy="865" r="5"/><circle cx="1761" cy="875" r="4"/><circle cx="1855" cy="803" r="5"/><circle cx="1968" cy="869" r="5"/><circle cx="2029" cy="824" r="6"/><circle cx="2135" cy="811" r="6"/><circle cx="2197" cy="847" r="5"/><circle cx="2305" cy="848" r="5"/><circle cx="2343" cy="830" r="6"/><circle cx="2410" cy="822" r="5"/><circle cx="2531" cy="874" r="4"/><circle cx="66" cy="883" r="5"/><circle cx="82" cy="926" r="6"/><circle cx="225" cy="908" r="5"/><circle cx="263" cy="926" r="4"/><circle cx="368" cy="955" r="5"/><circle cx="401" cy="937" r="5"/><circle cx="534" cy="933" r="5"/><circle cx="562" cy="951" r="6"/><circle cx="653" cy="898" r="5"/><circle cx="752" cy="897" r="6"/><circle cx="859" cy="925" r="6"/><circle cx="916" cy="886" r="5"/><circle cx="1017" cy="920" r="5"/><circle cx="1099" cy="954" r="6"/><circle cx="1183" cy="914" r="5"/><circle cx="1258" cy="923" r="6"/><circle cx="1355" cy="960" r="5"/><circle cx="1365" cy="882" r="5"/><circle cx="1508" cy="929" r="6"/><circle cx="1587" cy="915" r="5"/><circle cx="1612" cy="931" r="6"/><circle cx="1682" cy="947" r="5"/><circle cx="1830" cy="958" r="5"/><circle cx="1900" cy="901" r="6"/><circle cx="1978" cy="884" r="5"/><circle cx="2074" cy="924" r="5"/><circle cx="2137" cy="917" r="5"/><circle cx="2178" cy="932" r="5"/><circle cx="2252" cy="884" r="6"/><circle cx="2355" cy="916" r="5"/><circle cx="2416" cy="901" r="5"/><circle cx="2492" cy="881" r="6"/><circle cx="64" cy="1022" r="6"/><circle cx="157" cy="996" r="5"/><circle cx="200" cy="1028" r="5"/><circle cx="270" cy="1007" r="6"/><circle cx="400" cy="1000" r="6"/><circle cx="468" cy="1000" r="6"/><circle cx="550" cy="989" r="5"/><circle cx="570" cy="982" r="6"/><circle cx="709" cy="966" r="4"/><circle cx="760" cy="994" r="5"/><circle cx="820" cy="1013" r="4"/><circle cx="916" cy="967" r="5"/><circle cx="1002" cy="1013" r="5"/><circle cx="1116" cy="1009" r="4"/><circle cx="1143" cy="984" r="5"/><circle cx="1249" cy="986" r="4"/><circle cx="1353" cy="1034" r="5"/><circle cx="1390" cy="978" r="4"/><circle cx="1464" cy="973" r="5"/><circle cx="1530" cy="980" r="5"/><circle cx="1606" cy="1036" r="6"/><circle cx="1748" cy="1002" r="5"/><circle cx="1827" cy="1003" r="5"/><circle cx="1877" cy="1036" r="6"/><circle cx="1948" cy="978" r="5"/><circle cx="2016" cy="988" r="4"/><circle cx="2123" cy="979" r="5"/><circle cx="2191" cy="982" r="6"/><circle cx="2305" cy="994" r="5"/><circle cx="2344" cy="1038" r="4"/><circle cx="2414" cy="1001" r="6"/><circle cx="2521" cy="1025" r="5"/><circle cx="75" cy="1091" r="6"/><circle cx="145" cy="1096" r="4"/><circle cx="216" cy="1107" r="5"/><circle cx="305" cy="1093" r="5"/><circle cx="337" cy="1074" r="4"/><circle cx="449" cy="1093" r="5"/><circle cx="556" cy="1077" r="5"/><circle cx="580" cy="1116" r="4"/><circle cx="690" cy="1104" r="5"/><circle cx="795" cy="1064" r="5"/><circle cx="848" cy="1114" r="6"/><circle cx="887" cy="1086" r="4"/><circle cx="999" cy="1073" r="4"/><circle cx="1066" cy="1116" r="5"/><circle cx="1138" cy="1085" r="5"/><circle cx="1272" cy="1114" r="4"/><circle cx="1302" cy="1054" r="4"/><circle cx="1391" cy="1115" r="4"/><circle cx="1470" cy="1046" r="6"/><circle cx="1556" cy="1065" r="5"/><circle cx="1617" cy="1071" r="5"/><circle cx="1692" cy="1079" r="4"/><circle cx="1761" cy="1044" r="5"/><circle cx="1871" cy="1078" r="6"/><circle cx="1931" cy="1096" r="5"/><circle cx="2052" cy="1116" r="6"/><circle cx="2099" cy="1057" r="6"/><circle cx="2169" cy="1116" r="6"/><circle cx="2260" cy="1058" r="4"/><circle cx="2323" cy="1065" r="5"/><circle cx="2431" cy="1112" r="4"/><circle cx="2507" cy="1063" r="5"/><circle cx="71" cy="1133" r="5"/><circle cx="84" cy="1131" r="4"/><circle cx="220" cy="1167" r="5"/><circle cx="265" cy="1192" r="5"/><circle cx="351" cy="1145" r="6"/><circle cx="423" cy="1139" r="5"/><circle cx="515" cy="1191" r="4"/><circle cx="588" cy="1138" r="4"/><circle cx="659" cy="1153" r="5"/><circle cx="794" cy="1155" r="5"/><circle cx="878" cy="1154" r="5"/><circle cx="942" cy="1170" r="5"/><circle cx="987" cy="1121" r="6"/><circle cx="1101" cy="1152" r="5"/><circle cx="1175" cy="1121" r="5"/><circle cx="1239" cy="1180" r="5"/><circle cx="1317" cy="1145" r="5"/><circle cx="1360" cy="1197" r="4"/><circle cx="1481" cy="1160" r="5"/><circle cx="1584" cy="1154" r="4"/><circle cx="1616" cy="1148" r="5"/><circle cx="1697" cy="1135" r="4"/><circle cx="1764" cy="1123" r="6"/><circle cx="1900" cy="1122" r="5"/><circle cx="1967" cy="1173" r="6"/><circle cx="2041" cy="1146" r="4"/><circle cx="2129" cy="1165" r="5"/><circle cx="2238" cy="1143" r="6"/><circle cx="2272" cy="1158" r="6"/><circle cx="2345" cy="1179" r="6"/><circle cx="2405" cy="1200" r="5"/><circle cx="2509" cy="1139" r="6"/><circle cx="38" cy="1243" r="6"/><circle cx="144" cy="1235" r="5"/><circle cx="211" cy="1210" r="5"/><circle cx="274" cy="1261" r="4"/><circle cx="389" cy="1262" r="5"/><circle cx="461" cy="1220" r="5"/><circle cx="507" cy="1207" r="5"/><circle cx="629" cy="1260" r="6"/><circle cx="716" cy="1271" r="5"/><circle cx="755" cy="1223" r="6"/><circle cx="862" cy="1224" r="4"/><circle cx="918" cy="1220" r="5"/><circle cx="981" cy="1237" r="4"/><circle cx="1047" cy="1211" r="6"/><circle cx="1186" cy="1200" r="6"/><circle cx="1228" cy="1239" r="5"/><circle cx="1347" cy="1201" r="5"/><circle cx="1382" cy="1235" r="6"/><circle cx="1490" cy="1215" r="5"/><circle cx="1551" cy="1228" r="4"/><circle cx="1607" cy="1246" r="5"/><circle cx="1697" cy="1217" r="6"/><circle cx="1802" cy="1210" r="5"/><circle cx="1868" cy="1264" r="4"/><circle cx="1992" cy="1253" r="6"/><circle cx="2012" cy="1276" r="5"/><circle cx="2125" cy="1253" r="6"/><circle cx="2170" cy="1205" r="4"/><circle cx="2302" cy="1272" r="4"/><circle cx="2328" cy="1212" r="4"/><circle cx="2421" cy="1274" r="5"/><circle cx="2532" cy="1266" r="5"/><circle cx="67" cy="1309" r="5"/><circle cx="114" cy="1285" r="6"/><circle cx="205" cy="1298" r="4"/><circle cx="317" cy="1353" r="5"/><circle cx="372" cy="1348" r="6"/><circle cx="431" cy="1331" r="5"/><circle cx="558" cy="1310" r="6"/><circle cx="595" cy="1324" r="5"/><circle cx="693" cy="1342" r="4"/><circle cx="799" cy="1332" r="6"/><circle cx="828" cy="1311" r="5"/><circle cx="896" cy="1284" r="6"/><circle cx="987" cy="1343" r="6"/><circle cx="1119" cy="1284" r="4"/><circle cx="1120" cy="1306" r="4"/><circle cx="1269" cy="1285" r="5"/><circle cx="1331" cy="1349" r="5"/><circle cx="1401" cy="1306" r="6"/><circle cx="1516" cy="1333" r="4"/><circle cx="1590" cy="1304" r="5"/><circle cx="1632" cy="1303" r="6"/><circle cx="1748" cy="1353" r="6"/><circle cx="1813" cy="1341" r="5"/><circle cx="1906" cy="1358" r="5"/><circle cx="1980" cy="1283" r="5"/><circle cx="2014" cy="1293" r="5"/><circle cx="2105" cy="1329" r="4"/><circle cx="2188" cy="1310" r="5"/><circle cx="2244" cy="1289" r="6"/><circle cx="2369" cy="1356" r="6"/><circle cx="2422" cy="1338" r="5"/><circle cx="2536" cy="1302" r="6"/><circle cx="74" cy="1378" r="4"/><circle cx="121" cy="1393" r="4"/><circle cx="180" cy="1391" r="6"/><circle cx="253" cy="1365" r="4"/><circle cx="330" cy="1397" r="6"/><circle cx="471" cy="1402" r="5"/><circle cx="524" cy="1379" r="4"/><circle cx="634" cy="1436" r="5"/><circle cx="634" cy="-4" r="5"/><circle cx="717" cy="1388" r="6"/><circle cx="737" cy="1419" r="4"/><circle cx="879" cy="1380" r="5"/><circle cx="942" cy="1388" r="6"/><circle cx="1002" cy="1425" r="5"/><circle cx="1098" cy="1386" r="4"/><circle cx="1189" cy="1381" r="6"/><circle cx="1233" cy="1364" r="6"/><circle cx="1283" cy="1369" r="5"/><circle cx="1414" cy="1382" r="5"/><circle cx="1483" cy="1396" r="5"/><circle cx="1535" cy="1424" r="6"/><circle cx="1615" cy="1373" r="5"/><circle cx="1716" cy="1368" r="6"/><circle cx="1763" cy="1425" r="5"/><circle cx="1894" cy="1400" r="6"/><circle cx="1958" cy="1379" r="5"/><circle cx="2001" cy="1381" r="6"/><circle cx="2091" cy="1401" r="5"/><circle cx="2165" cy="1440" r="6"/><circle cx="2165" cy="-0" r="6"/><circle cx="2270" cy="1415" r="5"/><circle cx="2343" cy="1419" r="4"/><circle cx="2442" cy="1408" r="6"/><circle cx="2555" cy="1422" r="6"/><circle cx="-5" cy="1422" r="6"/><path stroke="#fff" d="M50 11L82 32M50 11L3 85M50 11L74 -62M50 11L121 -47M50 11L-5 -18M2610 11L2555 -18M50 1451L74 1378M50 1451L121 1393M50 1451L-5 1422M2610 1451L2555 1422M82 32L91 118M82 32L121 -47M82 1472L121 1393M182 75L282 65M182 75L91 118M182 75L234 155M182 75L139 162M182 75L180 -49M182 1515L180 1391M282 65L300 130M282 65L357 99M389 39L429 62M389 39L357 99M389 39L330 -43M389 39L471 -38M389 1479L330 1397M389 1479L471 1402M429 62L492 11M429 62L357 99M429 62L440 139M429 62L518 96M492 11L518 96M492 11L471 -38M492 11L524 -61M492 1451L471 1402M492 1451L524 1379M616 69L666 56M616 69L634 124M616 69L656 144M616 69L634 -4M616 1509L634 1436M666 56L732 19M666 56L634 124M666 56L656 144M666 56L634 -4M666 1496L634 1436M732 19L755 119M732 19L634 -4M732 19L717 -52M732 19L737 -21M732 1459L634 1436M732 1459L717 1388M732 1459L737 1419M862 75L837 104M862 75L953 102M960 56L992 26M960 56L953 102M960 56L977 161M960 56L942 -52M960 56L1002 -15M960 1496L942 1388M960 1496L1002 1425M992 26L1083 58M992 26L953 102M992 26L942 -52M992 26L1002 -15M992 1466L942 1388M992 1466L1002 1425M1083 58L1193 65M1083 58L1033 135M1083 58L1070 155M1083 58L1156 98M1193 65L1223 23M1193 65L1156 98M1193 65L1208 87M1223 23L1156 98M1223 23L1208 87M1223 23L1189 -59M1223 23L1233 -76M1223 1463L1189 1381M1223 1463L1233 1364M1341 52L1402 18M1341 52L1448 64M1341 52L1347 146M1341 52L1380 139M1402 18L1448 64M1402 18L1414 -58M1402 18L1483 -44M1402 1458L1414 1382M1402 1458L1483 1396M1448 64L1480 101M1576 64L1620 73M1576 64L1480 101M1576 64L1533 115M1576 64L1619 99M1576 64L1535 -16M1576 1504L1535 1424M1620 73L1533 115M1620 73L1619 99M1620 73L1728 99M1620 73L1535 -16M1620 1513L1535 1424M1737 12L1811 14M1737 12L1728 99M1737 12L1748 -87M1737 12L1716 -72M1737 12L1763 -15M1737 1452L1748 1353M1737 1452L1716 1368M1737 1452L1763 1425M1811 14L1859 31M1811 14L1728 99M1811 14L1763 -15M1811 14L1894 -40M1811 1454L1763 1425M1811 1454L1894 1400M1859 31L1923 22M1859 31L1907 128M1859 31L1894 -40M1859 1471L1894 1400M1923 22L1907 128M1923 22L1927 128M1923 22L1894 -40M1923 22L1958 -61M1923 1462L1894 1400M1923 1462L1958 1379M2052 68L2135 43M2052 68L2043 82M2052 68L2091 -39M2052 1508L2091 1401M2135 43L2174 61M2135 43L2139 121M2135 43L2091 -39M2135 43L2165 -0M2135 1483L2091 1401M2135 1483L2165 1440M2174 61L2244 18M2174 61L2139 121M2174 61L2213 127M2174 61L2165 -0M2174 1501L2165 1440M2244 18L2336 30M2244 18L2165 -0M2244 18L2270 -25M2244 18L2343 -21M2244 1458L2165 1440M2244 1458L2270 1415M2244 1458L2343 1419M2336 30L2270 -25M2336 30L2343 -21M2336 1470L2270 1415M2336 1470L2343 1419M2476 13L2493 69M2476 13L2442 -32M2476 13L2555 -18M2476 1453L2442 1408M2476 1453L2555 1422M2493 69L2563 85M2493 69L2441 145M2493 69L2556 137M2493 69L2555 -18M-67 69L3 85M2493 1509L2555 1422M3 85L-4 137M2563 85L2556 137M91 118L-4 137M91 118L63 216M91 118L139 162M2651 118L2556 137M234 155L300 130M234 155L139 162M234 155L237 231M234 155L274 163M300 130L357 99M300 130L274 163M300 130L340 216M357 99L440 139M440 139L518 96M440 139L475 173M440 139L521 191M518 96L475 173M518 96L521 191M634 124L656 144M634 124L640 195M656 144L640 195M656 144L690 219M755 119L837 104M953 102L1033 135M953 102L977 161M1033 135L1070 155M1033 135L977 161M1070 155L1156 98M1070 155L977 161M1070 155L1099 237M1156 98L1208 87M1208 87L1252 174M1347 146L1380 139M1347 146L1252 174M1347 146L1329 175M1380 139L1480 101M1380 139L1329 175M1380 139L1435 243M1480 101L1533 115M1480 101L1525 185M1533 115L1619 99M1533 115L1525 185M1728 99L1787 159M1728 99L1715 160M1787 159L1715 160M1787 159L1793 206M1787 159L1742 254M1907 128L1927 128M1907 128L1896 208M1907 128L1936 208M1927 128L1896 208M1927 128L1936 208M2139 121L2213 127M2139 121L2114 172M2139 121L2213 167M2213 127L2291 130M2213 127L2213 167M2291 130L2326 146M2291 130L2213 167M2291 130L2318 223M2291 130L2326 176M2326 146L2441 145M2326 146L2318 223M2326 146L2326 176M2326 146L2414 162M2441 145L2414 162M2441 145L2440 251M2556 137L2544 219M63 216L139 162M63 216L-16 219M63 216L72 241M63 216L124 255M2623 216L2544 219M237 231L274 163M237 231L208 269M237 231L294 278M237 231L321 265M274 163L340 216M340 216L294 278M340 216L321 265M340 216L433 256M475 173L521 191M475 173L433 256M475 173L539 251M521 191L539 251M640 195L690 219M640 195L603 277M640 195L722 249M690 219L741 237M690 219L651 299M690 219L722 249M741 237L841 228M741 237L722 249M741 237L841 246M841 228L919 216M841 228L841 246M841 228L915 264M919 216L977 161M919 216L841 246M919 216L915 264M1099 237L1160 235M1099 237L1074 298M1099 237L1165 268M1160 235L1165 268M1160 235L1157 322M1252 174L1329 175M1329 175L1317 272M1329 175L1435 243M1439 232L1505 222M1439 232L1525 185M1439 232L1435 243M1439 232L1497 254M1505 222L1525 185M1505 222L1435 243M1505 222L1497 254M1505 222L1580 306M1525 185L1497 254M1649 210L1715 160M1649 210L1678 298M1715 160L1793 206M1715 160L1742 254M1793 206L1742 254M1793 206L1807 304M1896 208L1936 208M1896 208L1902 243M1896 208L1959 248M1936 208L1902 243M1936 208L1959 248M2040 228L2004 282M2040 228L2122 286M2040 228L1997 320M2040 228L2022 324M2114 172L2213 167M2318 223L2326 176M2318 223L2267 312M2318 223L2372 247M2326 176L2414 162M2326 176L2372 247M2414 162L2372 247M2414 162L2440 251M2544 219L2632 241M2544 219L2551 308M-16 219L72 241M72 241L124 255M72 241L-9 308M72 241L83 333M2632 241L2551 308M124 255L208 269M124 255L83 333M294 278L321 265M294 278L298 353M294 278L330 351M321 265L298 353M321 265L330 351M433 256L539 251M539 251L603 277M603 277L651 299M603 277L615 359M603 277L657 367M651 299L722 249M651 299L615 359M651 299L657 367M722 249L730 345M841 246L915 264M841 246L832 355M915 264L997 316M997 316L1074 298M997 316L1036 352M997 316L1058 345M997 316L964 403M1074 298L1036 352M1074 298L1058 345M1074 298L1157 322M1165 268L1246 310M1165 268L1157 322M1246 310L1317 272M1246 310L1157 322M1246 310L1243 354M1246 310L1296 372M1317 272L1296 372M1435 243L1497 254M1497 254L1580 306M1580 306L1584 368M1580 306L1606 355M1678 298L1742 254M1678 298L1606 355M1742 254L1807 304M1807 304L1902 243M1807 304L1740 379M1807 304L1764 387M1902 243L1959 248M1959 248L2004 282M1959 248L1997 320M2004 282L1997 320M2004 282L2022 324M2122 286L2205 305M2122 286L2094 376M2205 305L2267 312M2205 305L2200 383M2205 305L2246 364M2267 312L2200 383M2267 312L2246 364M2372 247L2440 251M2372 247L2392 331M2440 251L2392 331M2440 251L2451 351M2551 308L2596 380M2551 308L2643 333M2551 308L2519 329M-9 308L36 380M-9 308L83 333M36 380L83 333M36 380L-41 329M36 380L15 463M36 380L-34 444M2596 380L2519 329M2596 380L2526 444M83 333L167 388M167 388L197 461M298 353L330 351M298 353L274 450M298 353L329 439M330 351L329 439M457 378L498 365M457 378L410 474M457 378L538 427M498 365L538 427M615 359L657 367M615 359L538 427M615 359L650 460M657 367L730 345M657 367L650 460M730 345L832 355M832 355L920 397M920 397L867 457M920 397L956 419M920 397L964 403M920 397L925 485M1036 352L1058 345M1036 352L956 419M1036 352L964 403M1058 345L1067 448M1157 322L1243 354M1243 354L1296 372M1243 354L1285 437M1296 372L1240 450M1296 372L1285 437M1426 376L1467 368M1426 376L1415 415M1426 376L1487 438M1426 376L1522 457M1467 368L1584 368M1467 368L1415 415M1467 368L1487 438M1467 368L1522 457M1584 368L1606 355M1606 355L1672 402M1740 379L1764 387M1740 379L1672 402M1740 379L1803 424M1764 387L1672 402M1764 387L1755 478M1764 387L1803 424M1908 368L1906 456M1908 368L1925 412M1997 320L2022 324M1997 320L2026 411M2022 324L2094 376M2022 324L2026 411M2094 376L2026 411M2094 376L2113 421M2200 383L2246 364M2200 383L2221 460M2200 383L2246 447M2246 364L2221 460M2246 364L2246 447M2392 331L2451 351M2392 331L2519 329M2451 351L2519 329M2519 329L2526 444M15 463L97 471M15 463L-34 444M15 463L7 491M15 463L-35 556M2575 463L2526 444M2575 463L2525 556M97 471L7 491M97 471L110 519M97 471L163 529M197 461L274 450M197 461L110 519M197 461L163 529M197 461L252 507M274 450L329 439M274 450L252 507M274 450L361 495M329 439L410 474M329 439L361 495M410 474L361 495M410 474L426 525M410 474L512 526M538 427L625 475M538 427L512 526M625 475L650 460M625 475L630 518M625 475L692 528M650 460L630 518M650 460L692 528M767 461L867 457M767 461L759 509M767 461L803 526M767 461L739 570M867 457L956 419M867 457L803 526M867 457L925 485M956 419L964 403M956 419L925 485M964 403L925 485M1067 448L1176 436M1067 448L1036 496M1067 448L1064 556M1067 448L1121 556M1176 436L1240 450M1240 450L1285 437M1240 450L1252 533M1240 450L1288 503M1285 437L1288 503M1285 437L1373 500M1415 415L1487 438M1415 415L1522 457M1415 415L1373 500M1487 438L1522 457M1487 438L1534 495M1522 457L1534 495M1672 402L1647 485M1672 402L1687 497M1755 478L1803 424M1755 478L1687 497M1755 478L1777 545M1755 478L1724 578M1803 424L1906 456M1906 456L1925 412M1906 456L1856 517M1906 456L1935 504M1925 412L2026 411M1925 412L1935 504M2026 411L2113 421M2221 460L2246 447M2221 460L2221 547M2221 460L2269 517M2246 447L2337 441M2246 447L2269 517M2337 441L2404 475M2337 441L2269 517M2337 441L2384 481M2404 475L2384 481M2404 475L2459 493M2526 444L2567 491M2526 444L2459 493M-34 444L7 491M7 491L-35 556M2567 491L2525 556M110 519L163 529M110 519L61 598M110 519L118 600M163 529L118 600M163 529L180 613M252 507L300 589M361 495L426 525M361 495L300 589M426 525L512 526M426 525L466 591M512 526L466 591M512 526L514 602M630 518L692 528M630 518L578 623M692 528L759 509M692 528L739 570M759 509L803 526M759 509L739 570M803 526L739 570M803 526L881 569M925 485L881 569M1036 496L1064 556M1036 496L1121 556M1064 556L1121 556M1064 556L995 619M1064 556L1108 614M1121 556L1108 614M1121 556L1182 573M1252 533L1288 503M1252 533L1182 573M1252 533L1266 569M1252 533L1282 562M1288 503L1266 569M1288 503L1282 562M1373 500L1446 554M1373 500L1369 589M1446 554L1534 495M1446 554L1369 589M1446 554L1451 608M1446 554L1450 649M1534 495L1647 485M1647 485L1687 497M1647 485L1642 572M1687 497L1642 572M1687 497L1724 578M1777 545L1856 517M1777 545L1724 578M1777 545L1796 614M1856 517L1935 504M1856 517L1908 589M1935 504L2034 522M1935 504L1908 589M2034 522L2104 553M2034 522L2046 578M2104 553L2046 578M2104 553L2134 561M2104 553L2171 631M2104 553L2153 652M2221 547L2269 517M2221 547L2134 561M2221 547L2171 631M2221 547L2313 575M2269 517L2313 575M2384 481L2459 493M2384 481L2313 575M2459 493L2525 556M2459 493L2462 607M2525 556L2462 607M2525 556L2542 583M61 598L118 600M61 598L-18 583M61 598L36 656M2621 598L2542 583M118 600L180 613M118 600L173 665M180 613L143 698M180 613L173 665M300 589L334 631M300 589L274 666M300 589L340 694M334 631L274 666M334 631L340 694M334 631L398 721M466 591L514 602M466 591L578 623M466 591L454 672M514 602L578 623M514 602L454 672M578 623L547 720M578 623L607 667M713 626L739 570M713 626L696 669M713 626L774 697M863 612L881 569M863 612L846 656M881 569L846 656M995 619L1108 614M995 619L926 698M995 619L1013 678M995 619L972 721M1108 614L1182 573M1182 573L1266 569M1182 573L1282 562M1266 569L1282 562M1282 562L1369 589M1369 589L1451 608M1451 608L1391 691M1451 608L1450 649M1583 634L1642 572M1583 634L1598 718M1583 634L1630 709M1642 572L1724 578M1724 578L1796 614M1796 614L1839 657M1796 614L1843 685M1908 589L1932 632M1908 589L1839 657M1932 632L1839 657M1932 632L1843 685M1932 632L1947 699M1932 632L1955 724M2046 578L2134 561M2046 578L2077 692M2134 561L2171 631M2134 561L2153 652M2171 631L2153 652M2171 631L2180 694M2313 575L2332 605M2313 575L2356 649M2332 605L2304 693M2332 605L2356 649M2462 607L2542 583M2462 607L2424 691M2462 607L2488 697M2542 583L2596 656M-18 583L36 656M143 698L173 665M143 698L78 773M143 698L113 769M173 665L274 666M173 665L257 725M274 666L340 694M274 666L257 725M340 694L257 725M340 694L398 721M454 672L547 720M454 672L398 721M454 672L431 738M547 720L607 667M547 720L554 751M547 720L603 761M607 667L696 669M607 667L603 761M607 667L662 742M696 669L774 697M696 669L662 742M696 669L729 763M774 697L846 656M774 697L729 763M846 656L926 698M926 698L1013 678M926 698L947 755M926 698L972 721M1013 678L1079 718M1013 678L972 721M1013 678L1098 742M1079 718L972 721M1079 718L1098 742M1198 709L1239 677M1198 709L1198 754M1198 709L1229 729M1198 709L1180 801M1198 709L1201 802M1239 677L1313 685M1239 677L1198 754M1239 677L1229 729M1313 685L1391 691M1313 685L1320 769M1313 685L1375 739M1391 691L1450 649M1391 691L1320 769M1391 691L1375 739M1598 718L1630 709M1598 718L1685 710M1598 718L1585 748M1598 718L1602 788M1630 709L1685 710M1630 709L1585 748M1630 709L1602 788M1685 710L1585 748M1685 710L1747 746M1839 657L1843 685M1843 685L1947 699M1947 699L1879 784M1947 699L1955 724M2077 692L2153 652M2077 692L2180 694M2077 692L2055 736M2153 652L2180 694M2180 694L2143 770M2180 694L2221 755M2304 693L2356 649M2304 693L2307 724M2356 649L2424 691M2356 649L2307 724M2424 691L2488 697M2424 691L2385 759M2424 691L2438 783M2488 697L2500 784M78 773L113 769M78 773L65 859M78 773L91 865M78 773L66 883M113 769L65 859M113 769L91 865M113 769L180 820M235 789L257 725M235 789L180 820M235 789L276 801M257 725L276 801M398 721L431 738M431 738L373 837M431 738L470 841M554 751L603 761M554 751L522 859M554 751L630 808M603 761L662 742M603 761L630 808M662 742L729 763M662 742L630 808M729 763L826 795M729 763L737 807M826 795L737 807M826 795L820 865M947 755L972 721M1098 742L1180 801M1198 754L1229 729M1198 754L1180 801M1198 754L1201 802M1229 729L1180 801M1229 729L1201 802M1320 769L1375 739M1320 769L1300 835M1375 739L1462 775M1375 739L1300 835M1462 775L1439 846M1462 775L1445 846M1585 748L1602 788M1585 748L1581 818M1602 788L1581 818M1602 788L1639 875M1747 746L1775 785M1775 785L1879 784M1775 785L1744 865M1775 785L1761 875M1775 785L1855 803M1879 784L1955 724M1879 784L1855 803M1955 724L2055 736M2055 736L2143 770M2055 736L2029 824M2143 770L2221 755M2143 770L2135 811M2143 770L2197 847M2221 755L2307 724M2221 755L2135 811M2307 724L2385 759M2385 759L2438 783M2385 759L2343 830M2385 759L2410 822M2438 783L2500 784M2438 783L2410 822M2500 784L2531 874M2500 784L2492 881M65 859L91 865M65 859L66 883M65 859L82 926M91 865L66 883M91 865L82 926M180 820L276 801M180 820L225 908M276 801L373 837M276 801L225 908M373 837L470 841M373 837L368 955M373 837L401 937M470 841L522 859M470 841L401 937M522 859L534 933M630 808L660 863M630 808L653 898M660 863L737 807M660 863L653 898M660 863L752 897M660 863L709 966M737 807L820 865M737 807L752 897M820 865L752 897M820 865L859 925M820 865L916 886M952 863L1017 878M952 863L1051 863M952 863L859 925M952 863L916 886M952 863L1017 920M1017 878L1051 863M1017 878L916 886M1017 878L1017 920M1051 863L1017 920M1051 863L1099 954M1180 801L1201 802M1201 802L1300 835M1300 835L1258 923M1300 835L1365 882M1439 846L1445 846M1439 846L1365 882M1445 846L1365 882M1445 846L1508 929M1581 818L1639 875M1639 875L1587 915M1639 875L1612 931M1639 875L1682 947M1744 865L1761 875M1744 865L1682 947M1761 875L1855 803M1855 803L1900 901M1968 869L2029 824M1968 869L1900 901M1968 869L1978 884M1968 869L1948 978M2029 824L2135 811M2029 824L1978 884M2029 824L2074 924M2135 811L2197 847M2197 847L2137 917M2197 847L2178 932M2197 847L2252 884M2305 848L2343 830M2305 848L2252 884M2305 848L2355 916M2343 830L2410 822M2343 830L2355 916M2343 830L2416 901M2410 822L2416 901M2410 822L2492 881M2531 874L2626 883M2531 874L2492 881M-29 874L66 883M66 883L82 926M82 926L64 1022M82 926L157 996M225 908L263 926M225 908L270 1007M263 926L270 1007M368 955L401 937M368 955L400 1000M401 937L400 1000M401 937L468 1000M534 933L562 951M534 933L468 1000M534 933L550 989M534 933L570 982M562 951L653 898M562 951L550 989M562 951L570 982M653 898L709 966M752 897L709 966M752 897L760 994M859 925L916 886M859 925L820 1013M859 925L916 967M916 886L916 967M1017 920L1099 954M1017 920L1002 1013M1099 954L1183 914M1099 954L1116 1009M1099 954L1143 984M1183 914L1258 923M1183 914L1116 1009M1183 914L1143 984M1183 914L1249 986M1258 923L1355 960M1258 923L1249 986M1355 960L1365 882M1355 960L1353 1034M1355 960L1390 978M1355 960L1464 973M1365 882L1390 978M1508 929L1587 915M1508 929L1464 973M1508 929L1530 980M1587 915L1612 931M1587 915L1682 947M1612 931L1682 947M1612 931L1530 980M1612 931L1606 1036M1682 947L1748 1002M1830 958L1900 901M1830 958L1748 1002M1830 958L1827 1003M1830 958L1877 1036M1830 958L1761 1044M1900 901L1978 884M1900 901L1948 978M1978 884L2074 924M1978 884L1948 978M2074 924L2137 917M2074 924L2016 988M2074 924L2123 979M2137 917L2178 932M2137 917L2123 979M2137 917L2191 982M2178 932L2252 884M2178 932L2123 979M2178 932L2191 982M2252 884L2191 982M2355 916L2416 901M2355 916L2305 994M2355 916L2414 1001M2416 901L2492 881M2416 901L2414 1001M64 1022L157 996M64 1022L-39 1025M64 1022L75 1091M64 1022L71 1133M2624 1022L2521 1025M157 996L200 1028M200 1028L270 1007M200 1028L145 1096M200 1028L216 1107M270 1007L305 1093M270 1007L337 1074M400 1000L468 1000M400 1000L337 1074M400 1000L449 1093M468 1000L550 989M468 1000L570 982M550 989L570 982M550 989L556 1077M570 982L556 1077M709 966L760 994M760 994L820 1013M760 994L795 1064M820 1013L795 1064M916 967L1002 1013M1002 1013L999 1073M1002 1013L987 1121M1116 1009L1143 984M1116 1009L1138 1085M1143 984L1249 986M1143 984L1138 1085M1249 986L1302 1054M1353 1034L1390 978M1353 1034L1302 1054M1353 1034L1391 1115M1390 978L1464 973M1390 978L1470 1046M1464 973L1530 980M1464 973L1470 1046M1530 980L1606 1036M1530 980L1470 1046M1606 1036L1556 1065M1606 1036L1617 1071M1606 1036L1692 1079M1748 1002L1827 1003M1748 1002L1761 1044M1827 1003L1877 1036M1827 1003L1761 1044M1827 1003L1871 1078M1877 1036L1948 978M1877 1036L1871 1078M1877 1036L1931 1096M1948 978L2016 988M2123 979L2191 982M2123 979L2099 1057M2191 982L2260 1058M2305 994L2344 1038M2305 994L2414 1001M2305 994L2260 1058M2305 994L2323 1065M2344 1038L2414 1001M2344 1038L2323 1065M2414 1001L2521 1025M2521 1025L2507 1063M2521 1025L2509 1139M75 1091L145 1096M75 1091L71 1133M75 1091L84 1131M75 1091L-51 1139M2635 1091L2509 1139M145 1096L216 1107M145 1096L71 1133M145 1096L84 1131M216 1107L305 1093M216 1107L220 1167M216 1107L265 1192M305 1093L337 1074M305 1093L351 1145M337 1074L351 1145M449 1093L556 1077M449 1093L351 1145M449 1093L423 1139M556 1077L580 1116M556 1077L588 1138M580 1116L690 1104M580 1116L515 1191M580 1116L588 1138M580 1116L659 1153M690 1104L659 1153M795 1064L848 1114M795 1064L887 1086M795 1064L794 1155M848 1114L887 1086M848 1114L794 1155M848 1114L878 1154M848 1114L942 1170M887 1086L878 1154M999 1073L1066 1116M999 1073L987 1121M1066 1116L1138 1085M1066 1116L987 1121M1066 1116L1101 1152M1066 1116L1047 1211M1138 1085L1101 1152M1138 1085L1175 1121M1272 1114L1302 1054M1272 1114L1175 1121M1272 1114L1239 1180M1272 1114L1317 1145M1391 1115L1317 1145M1391 1115L1360 1197M1391 1115L1481 1160M1391 1115L1347 1201M1470 1046L1556 1065M1470 1046L1481 1160M1556 1065L1617 1071M1556 1065L1584 1154M1617 1071L1692 1079M1617 1071L1584 1154M1617 1071L1616 1148M1692 1079L1761 1044M1692 1079L1697 1135M1692 1079L1764 1123M1761 1044L1764 1123M1871 1078L1931 1096M1871 1078L1764 1123M1871 1078L1900 1122M1931 1096L1900 1122M1931 1096L1967 1173M2052 1116L2099 1057M2052 1116L1967 1173M2052 1116L2041 1146M2052 1116L2129 1165M2099 1057L2169 1116M2099 1057L2041 1146M2169 1116L2129 1165M2169 1116L2238 1143M2169 1116L2272 1158M2169 1116L2170 1205M2260 1058L2323 1065M2260 1058L2238 1143M2323 1065L2272 1158M2431 1112L2507 1063M2431 1112L2405 1200M2431 1112L2509 1139M2507 1063L2509 1139M71 1133L84 1131M220 1167L265 1192M220 1167L211 1210M265 1192L351 1145M265 1192L211 1210M265 1192L274 1261M351 1145L423 1139M423 1139L515 1191M423 1139L461 1220M423 1139L507 1207M515 1191L588 1138M515 1191L461 1220M515 1191L507 1207M588 1138L659 1153M588 1138L507 1207M659 1153L629 1260M794 1155L755 1223M794 1155L862 1224M878 1154L942 1170M878 1154L862 1224M878 1154L918 1220M942 1170L987 1121M942 1170L918 1220M942 1170L981 1237M987 1121L1047 1211M1101 1152L1175 1121M1101 1152L1047 1211M1101 1152L1186 1200M1175 1121L1239 1180M1175 1121L1186 1200M1239 1180L1317 1145M1239 1180L1186 1200M1239 1180L1228 1239M1317 1145L1360 1197M1317 1145L1347 1201M1360 1197L1347 1201M1360 1197L1382 1235M1481 1160L1490 1215M1481 1160L1551 1228M1584 1154L1616 1148M1584 1154L1551 1228M1616 1148L1697 1135M1616 1148L1607 1246M1616 1148L1697 1217M1697 1135L1764 1123M1697 1135L1697 1217M1764 1123L1802 1210M1900 1122L1967 1173M1967 1173L2041 1146M1967 1173L1992 1253M2041 1146L2129 1165M2129 1165L2125 1253M2129 1165L2170 1205M2238 1143L2272 1158M2238 1143L2345 1179M2238 1143L2170 1205M2272 1158L2345 1179M2272 1158L2328 1212M2345 1179L2405 1200M2345 1179L2302 1272M2345 1179L2328 1212M2405 1200L2509 1139M2405 1200L2328 1212M2405 1200L2421 1274M38 1243L144 1235M38 1243L-28 1266M38 1243L67 1309M38 1243L114 1285M38 1243L-24 1302M2598 1243L2532 1266M2598 1243L2536 1302M144 1235L211 1210M144 1235L67 1309M144 1235L114 1285M144 1235L205 1298M211 1210L274 1261M211 1210L205 1298M274 1261L317 1353M274 1261L253 1365M389 1262L461 1220M389 1262L372 1348M389 1262L431 1331M461 1220L507 1207M507 1207L558 1310M629 1260L716 1271M629 1260L558 1310M629 1260L595 1324M629 1260L693 1342M716 1271L755 1223M716 1271L693 1342M716 1271L799 1332M755 1223L828 1311M862 1224L918 1220M862 1224L828 1311M862 1224L896 1284M918 1220L981 1237M918 1220L896 1284M981 1237L1047 1211M981 1237L987 1343M1047 1211L1119 1284M1186 1200L1228 1239M1186 1200L1119 1284M1228 1239L1269 1285M1347 1201L1382 1235M1347 1201L1401 1306M1382 1235L1490 1215M1382 1235L1401 1306M1490 1215L1551 1228M1551 1228L1607 1246M1551 1228L1590 1304M1607 1246L1697 1217M1607 1246L1590 1304M1607 1246L1632 1303M1697 1217L1802 1210M1697 1217L1632 1303M1802 1210L1868 1264M1992 1253L2012 1276M1992 1253L1980 1283M1992 1253L2014 1293M2012 1276L1980 1283M2012 1276L2014 1293M2125 1253L2170 1205M2125 1253L2105 1329M2125 1253L2188 1310M2170 1205L2188 1310M2302 1272L2328 1212M2302 1272L2244 1289M2328 1212L2244 1289M2421 1274L2532 1266M2421 1274L2369 1356M2421 1274L2422 1338M2421 1274L2536 1302M2532 1266L2536 1302M67 1309L114 1285M67 1309L-24 1302M67 1309L74 1378M2627 1309L2536 1302M114 1285L205 1298M114 1285L74 1378M205 1298L180 1391M205 1298L253 1365M317 1353L372 1348M317 1353L253 1365M317 1353L330 1397M372 1348L431 1331M372 1348L330 1397M372 1348L471 1402M431 1331L330 1397M431 1331L471 1402M431 1331L524 1379M558 1310L595 1324M558 1310L524 1379M595 1324L693 1342M595 1324L524 1379M693 1342L717 1388M799 1332L828 1311M799 1332L896 1284M799 1332L717 1388M799 1332L879 1380M828 1311L896 1284M828 1311L879 1380M896 1284L879 1380M987 1343L879 1380M987 1343L942 1388M987 1343L1002 1425M987 1343L1098 1386M1119 1284L1120 1306M1119 1284L1098 1386M1120 1306L1098 1386M1120 1306L1189 1381M1269 1285L1331 1349M1269 1285L1233 1364M1269 1285L1283 1369M1331 1349L1401 1306M1331 1349L1233 1364M1331 1349L1283 1369M1331 1349L1414 1382M1401 1306L1414 1382M1401 1306L1483 1396M1516 1333L1590 1304M1516 1333L1483 1396M1516 1333L1535 1424M1516 1333L1615 1373M1590 1304L1632 1303M1590 1304L1615 1373M1632 1303L1615 1373M1632 1303L1716 1368M1748 1353L1813 1341M1748 1353L1716 1368M1748 1353L1763 1425M1813 1341L1906 1358M1813 1341L1763 1425M1906 1358L1894 1400M1906 1358L1958 1379M1906 1358L2001 1381M1980 1283L2014 1293M1980 1283L1958 1379M1980 1283L2001 1381M2014 1293L2105 1329M2014 1293L2001 1381M2105 1329L2188 1310M2105 1329L2091 1401M2188 1310L2244 1289M2369 1356L2422 1338M2369 1356L2270 1415M2369 1356L2343 1419M2369 1356L2442 1408M2422 1338L2442 1408M74 1378L121 1393M74 1378L-5 1422M2634 1378L2555 1422M121 1393L180 1391M180 1391L253 1365M253 1365L330 1397M471 1402L524 1379M634 1436L717 1388M634 1436L737 1419M717 1388L737 1419M879 1380L942 1388M942 1388L1002 1425M1002 1425L1098 1386M1098 1386L1189 1381M1189 1381L1233 1364M1189 1381L1283 1369M1233 1364L1283 1369M1414 1382L1483 1396M1483 1396L1535 1424M1535 1424L1615 1373M1615 1373L1716 1368M1716 1368L1763 1425M1894 1400L1958 1379M1958 1379L2001 1381M2001 1381L2091 1401M2091 1401L2165 1440M2165 1440L2270 1415M2270 1415L2343 1419M2343 1419L2442 1408M2442 1408L2555 1422"/></svg>