<svg xmlns="http://www.w3.org/2000/svg" width="2560" height="1440" fill="#fff"><circle cx="18" cy="21" r="5"/><circle cx="82" cy="79" r="5"/><circle cx="227" cy="12" r="5"/><circle cx="294" cy="52" r="5"/><circle cx="349" cy="60" r="5"/><circle cx="472" cy="46" r="6"/><circle cx="498" cy="68" r="4"/><circle cx="574" cy="72" r="5"/><circle cx="688" cy="46" r="5"/><circle cx="721" cy="21" r="4"/><circle cx="850" cy="78" r="6"/><circle cx="904" cy="22" r="6"/><circle cx="991" cy="79" r="6"/><circle cx="1080" cy="69" r="5"/><circle cx="1130" cy="77" r="5"/><circle cx="1250" cy="27" r="6"/><circle cx="1331" cy="10" r="6"/><circle cx="1402" cy="25" r="6"/><circle cx="1467" cy="17" r="5"/><circle cx="1589" cy="56" r="4"/><circle cx="1620" cy="46" r="6"/><circle cx="1715" cy="73" r="5"/><circle cx="1822" cy="37" r="5"/><circle cx="1886" cy="37" r="4"/><circle cx="1946" cy="26" r="5"/><circle cx="2080" cy="5" r="5"/><circle cx="2083" cy="48" r="5"/><circle cx="2191" cy="66" r="5"/><circle cx="2313" cy="66" r="5"/><circle cx="2345" cy="1" r="5"/><circle cx="2345" cy="1441" r="5"/><circle cx="2419" cy="10" r="5"/><circle cx="2555" cy="74" r="4"/><circle cx="44" cy="141" r="6"/><circle cx="137" cy="82" r="6"/><circle cx="186" cy="160" r="4"/><circle cx="277" cy="118" r="5"/><circle cx="325" cy="142" r="5"/><circle cx="444" cy="85" r="5"/><circle cx="533" cy="106" r="6"/><circle cx="631" cy="94" r="5"/><circle cx="686" cy="81" r="4"/><circle cx="740" cy="137" r="4"/><circle cx="874" cy="152" r="4"/><circle cx="954" cy="126" r="5"/><circle cx="977" cy="155" r="5"/><circle cx="1046" cy="84" r="4"/><circle cx="1187" cy="115" r="4"/><circle cx="1245" cy="98" r="5"/><circle cx="1345" cy="136" r="5"/><circle cx="1410" cy="115" r="5"/><circle cx="1520" cy="112" r="4"/><circle cx="1566" cy="97" r="4"/><circle cx="1679" cy="107" r="5"/><circle cx="1726" cy="98" r="6"/><circle cx="1838" cy="130" r="4"/><circle cx="1894" cy="98" r="6"/><circle cx="1950" cy="105" r="4"/><circle cx="2037" cy="141" r="4"/><circle cx="2105" cy="156" r="5"/><circle cx="2169" cy="85" r="5"/><circle cx="2290" cy="110" r="6"/><circle cx="2391" cy="136" r="5"/><circle cx="2400" cy="101" r="6"/><circle cx="2522" cy="151" r="4"/><circle cx="51" cy="215" r="5"/><circle cx="88" cy="224" r="5"/><circle cx="234" cy="194" r="5"/><circle cx="300" cy="216" r="6"/><circle cx="378" cy="200" r="6"/><circle cx="434" cy="207" r="5"/><circle cx="554" cy="161" r="5"/><circle cx="579" cy="219" r="5"/><circle cx="701" cy="198" r="6"/><circle cx="720" cy="201" r="5"/><circle cx="861" cy="201" r="6"/><circle cx="933" cy="206" r="4"/><circle cx="1038" cy="170" r="5"/><circle cx="1053" cy="181" r="4"/><circle cx="1138" cy="169" r="5"/><circle cx="1253" cy="238" r="5"/><circle cx="1357" cy="239" r="5"/><circle cx="1427" cy="170" r="6"/><circle cx="1440" cy="188" r="6"/><circle cx="1561" cy="227" r="4"/><circle cx="1662" cy="208" r="6"/><circle cx="1693" cy="217" r="5"/><circle cx="1837" cy="214" r="5"/><circle cx="1858" cy="230" r="5"/><circle cx="1973" cy="162" r="6"/><circle cx="2054" cy="180" r="6"/><circle cx="2108" cy="180" r="4"/><circle cx="2231" cy="178" r="6"/><circle cx="2254" cy="176" r="6"/><circle cx="2326" cy="189" r="5"/><circle cx="2475" cy="208" r="4"/><circle cx="2497" cy="163" r="5"/><circle cx="42" cy="301" r="6"/><circle cx="85" cy="290" r="4"/><circle cx="211" cy="309" r="5"/><circle cx="255" cy="241" r="4"/><circle cx="391" cy="242" r="6"/><circle cx="449" cy="254" r="5"/><circle cx="519" cy="258" r="5"/><circle cx="618" cy="298" r="5"/><circle cx="696" cy="297" r="5"/><circle cx="742" cy="307" r="4"/><circle cx="810" cy="255" r="5"/><circle cx="949" cy="251" r="5"/><circle cx="975" cy="302" r="6"/><circle cx="1047" cy="294" r="6"/><circle cx="1151" cy="262" r="5"/><circle cx="1219" cy="299" r="4"/><circle cx="1344" cy="291" r="6"/><circle cx="1428" cy="275" r="6"/><circle cx="1443" cy="268" r="6"/><circle cx="1559" cy="256" r="5"/><circle cx="1651" cy="245" r="5"/><circle cx="1694" cy="271" r="4"/><circle cx="1819" cy="278" r="5"/><circle cx="1885" cy="270" r="6"/><circle cx="1958" cy="270" r="5"/><circle cx="2025" cy="256" r="4"/><circle cx="2089" cy="258" r="5"/><circle cx="2225" cy="306" r="5"/><circle cx="2276" cy="255" r="5"/><circle cx="2333" cy="307" r="4"/><circle cx="2469" cy="311" r="6"/><circle cx="2541" cy="256" r="5"/><circle cx="24" cy="381" r="5"/><circle cx="121" cy="392" r="5"/><circle cx="230" cy="371" r="5"/><circle cx="257" cy="398" r="5"/><circle cx="332" cy="339" r="6"/><circle cx="463" cy="324" r="5"/><circle cx="557" cy="349" r="6"/><circle cx="606" cy="394" r="5"/><circle cx="657" cy="321" r="5"/><circle cx="738" cy="331" r="4"/><circle cx="842" cy="378" r="4"/><circle cx="920" cy="378" r="5"/><circle cx="997" cy="329" r="4"/><circle cx="1044" cy="320" r="5"/><circle cx="1143" cy="356" r="5"/><circle cx="1212" cy="334" r="6"/><circle cx="1295" cy="378" r="5"/><circle cx="1387" cy="331" r="5"/><circle cx="1479" cy="383" r="6"/><circle cx="1593" cy="379" r="5"/><circle cx="1641" cy="371" r="5"/><circle cx="1741" cy="387" r="6"/><circle cx="1776" cy="363" r="5"/><circle cx="1866" cy="388" r="5"/><circle cx="1980" cy="374" r="5"/><circle cx="2017" cy="324" r="5"/><circle cx="2142" cy="366" r="6"/><circle cx="2228" cy="381" r="4"/><circle cx="2288" cy="379" r="5"/><circle cx="2337" cy="321" r="4"/><circle cx="2451" cy="369" r="6"/><circle cx="2519" cy="391" r="4"/><circle cx="12" cy="432" r="5"/><circle cx="98" cy="475" r="5"/><circle cx="182" cy="446" r="4"/><circle cx="263" cy="452" r="4"/><circle cx="360" cy="469" r="4"/><circle cx="442" cy="444" r="4"/><circle cx="528" cy="446" r="5"/><circle cx="624" cy="468" r="5"/><circle cx="666" cy="420" r="4"/><circle cx="755" cy="452" r="5"/><circle cx="863" cy="415" r="4"/><circle cx="924" cy="411" r="4"/><circle cx="967" cy="448" r="4"/><circle cx="1110" cy="439" r="5"/><circle cx="1134" cy="437" r="6"/><circle cx="1229" cy="408" r="6"/><circle cx="1298" cy="409" r="5"/><circle cx="1411" cy="424" r="6"/><circle cx="1503" cy="408" r="4"/><circle cx="1552" cy="417" r="5"/><circle cx="1678" cy="456" r="4"/><circle cx="1695" cy="458" r="4"/><circle cx="1816" cy="423" r="5"/><circle cx="1902" cy="418" r="4"/><circle cx="1921" cy="448" r="5"/><circle cx="2052" cy="432" r="5"/><circle cx="2160" cy="451" r="5"/><circle cx="2223" cy="420" r="6"/><circle cx="2288" cy="468" r="5"/><circle cx="2392" cy="421" r="4"/><circle cx="2411" cy="401" r="6"/><circle cx="2501" cy="460" r="4"/><circle cx="17" cy="502" r="5"/><circle cx="84" cy="553" r="4"/><circle cx="236" cy="525" r="5"/><circle cx="273" cy="529" r="4"/><circle cx="323" cy="525" r="6"/><circle cx="428" cy="545" r="6"/><circle cx="544" cy="482" r="5"/><circle cx="596" cy="537" r="5"/><circle cx="648" cy="534" r="6"/><circle cx="741" cy="545" r="6"/><circle cx="803" cy="495" r="5"/><circle cx="931" cy="547" r="5"/><circle cx="971" cy="501" r="5"/><circle cx="1110" cy="536" r="5"/><circle cx="1138" cy="508" r="4"/><circle cx="1278" cy="532" r="5"/><circle cx="1355" cy="543" r="5"/><circle cx="1386" cy="495" r="4"/><circle cx="1463" cy="511" r="5"/><circle cx="1572" cy="540" r="5"/><circle cx="1676" cy="491" r="4"/><circle cx="1751" cy="534" r="5"/><circle cx="1779" cy="537" r="6"/><circle cx="1884" cy="530" r="4"/><circle cx="1924" cy="530" r="5"/><circle cx="2064" cy="513" r="6"/><circle cx="2141" cy="504" r="5"/><circle cx="2178" cy="513" r="5"/><circle cx="2298" cy="560" r="6"/><circle cx="2383" cy="545" r="4"/><circle cx="2445" cy="551" r="5"/><circle cx="2533" cy="509" r="5"/><circle cx="63" cy="591" r="6"/><circle cx="91" cy="622" r="6"/><circle cx="236" cy="596" r="5"/><circle cx="246" cy="610" r="5"/><circle cx="366" cy="619" r="6"/><circle cx="405" cy="633" r="4"/><circle cx="517" cy="575" r="4"/><circle cx="604" cy="634" r="6"/><circle cx="714" cy="563" r="6"/><circle cx="796" cy="591" r="6"/><circle cx="829" cy="639" r="5"/><circle cx="912" cy="625" r="4"/><circle cx="971" cy="562" r="4"/><circle cx="1047" cy="628" r="4"/><circle cx="1189" cy="572" r="5"/><circle cx="1273" cy="618" r="4"/><circle cx="1355" cy="630" r="4"/><circle cx="1434" cy="624" r="5"/><circle cx="1487" cy="612" r="5"/><circle cx="1574" cy="633" r="5"/><circle cx="1675" cy="613" r="5"/><circle cx="1683" cy="617" r="6"/><circle cx="1765" cy="625" r="5"/><circle cx="1910" cy="632" r="4"/><circle cx="1999" cy="579" r="5"/><circle cx="2032" cy="638" r="4"/><circle cx="2130" cy="577" r="4"/><circle cx="2182" cy="615" r="5"/><circle cx="2255" cy="571" r="5"/><circle cx="2339" cy="601" r="5"/><circle cx="2451" cy="600" r="5"/><circle cx="2487" cy="616" r="4"/><circle cx="78" cy="648" r="5"/><circle cx="158" cy="649" r="5"/><circle cx="219" cy="642" r="5"/><circle cx="249" cy="706" r="5"/><circle cx="356" cy="657" r="4"/><circle cx="423" cy="713" r="5"/><circle cx="491" cy="689" r="5"/><circle cx="575" cy="647" r="6"/><circle cx="683" cy="712" r="5"/><circle cx="767" cy="683" r="5"/><circle cx="868" cy="677" r="4"/><circle cx="924" cy="677" r="4"/><circle cx="1023" cy="664" r="4"/><circle cx="1059" cy="697" r="6"/><circle cx="1179" cy="646" r="5"/><circle cx="1214" cy="693" r="5"/><circle cx="1286" cy="683" r="6"/><circle cx="1379" cy="657" r="4"/><circle cx="1460" cy="646" r="4"/><circle cx="1556" cy="703" r="4"/><circle cx="1653" cy="678" r="6"/><circle cx="1757" cy="648" r="5"/><circle cx="1837" cy="657" r="5"/><circle cx="1916" cy="667" r="5"/><circle cx="1959" cy="714" r="4"/><circle cx="2025" cy="644" r="5"/><circle cx="2151" cy="688" r="4"/><circle cx="2204" cy="683" r="5"/><circle cx="2260" cy="680" r="5"/><circle cx="2369" cy="676" r="6"/><circle cx="2452" cy="668" r="5"/><circle cx="2491" cy="661" r="5"/><circle cx="65" cy="750" r="5"/><circle cx="80" cy="748" r="5"/><circle cx="206" cy="758" r="5"/><circle cx="316" cy="758" r="4"/><circle cx="391" cy="795" r="6"/><circle cx="440" cy="754" r="4"/><circle cx="522" cy="722" r="4"/><circle cx="565" cy="724" r="6"/><circle cx="694" cy="782" r="5"/><circle cx="730" cy="783" r="5"/><circle cx="801" cy="788" r="6"/><circle cx="922" cy="742" r="6"/><circle cx="981" cy="726" r="6"/><circle cx="1103" cy="725" r="5"/><circle cx="1164" cy="731" r="5"/><circle cx="1240" cy="746" r="5"/><circle cx="1319" cy="734" r="4"/><circle cx="1411" cy="769" r="5"/><circle cx="1515" cy="772" r="6"/><circle cx="1524" cy="740" r="6"/><circle cx="1665" cy="784" r="5"/><circle cx="1695" cy="734" r="5"/><circle cx="1838" cy="748" r="5"/><circle cx="1896" cy="782" r="5"/><circle cx="1946" cy="757" r="5"/><circle cx="2047" cy="777" r="5"/><circle cx="2111" cy="760" r="5"/><circle cx="2171" cy="784" r="4"/><circle cx="2310" cy="729" r="4"/><circle cx="2393" cy="750" r="5"/><circle cx="2451" cy="773" r="5"/><circle cx="2525" cy="751" r="5"/><circle cx="1" cy="837" r="5"/><circle cx="2561" cy="837" r="5"/><circle cx="133" cy="811" r="4"/><circle cx="208" cy="878" r="5"/><circle cx="253" cy="816" r="5"/><circle cx="357" cy="875" r="5"/><circle cx="464" cy="808" r="4"/><circle cx="555" cy="847" r="6"/><circle cx="637" cy="861" r="6"/><circle cx="706" cy="868" r="4"/><circle cx="767" cy="840" r="4"/><circle cx="852" cy="807" r="4"/><circle cx="881" cy="828" r="5"/><circle cx="977" cy="822" r="5"/><circle cx="1058" cy="842" r="6"/><circle cx="1194" cy="855" r="5"/><circle cx="1211" cy="817" r="4"/><circle cx="1354" cy="857" r="4"/><circle cx="1369" cy="802" r="5"/><circle cx="1474" cy="854" r="5"/><circle cx="1594" cy="818" r="5"/><circle cx="1633" cy="849" r="6"/><circle cx="1734" cy="873" r="5"/><circle cx="1818" cy="828" r="6"/><circle cx="1891" cy="871" r="5"/><circle cx="1982" cy="826" r="4"/><circle cx="2053" cy="823" r="6"/><circle cx="2141" cy="860" r="5"/><circle cx="2187" cy="801" r="6"/><circle cx="2298" cy="849" r="6"/><circle cx="2364" cy="823" r="5"/><circle cx="2421" cy="844" r="5"/><circle cx="2499" cy="851" r="6"/><circle cx="62" cy="903" r="5"/><circle cx="122" cy="914" r="4"/><circle cx="170" cy="954" r="6"/><circle cx="281" cy="948" r="5"/><circle cx="361" cy="901" r="5"/><circle cx="479" cy="953" r="5"/><circle cx="542" cy="882" r="6"/><circle cx="634" cy="951" r="5"/><circle cx="671" cy="887" r="4"/><circle cx="788" cy="927" r="5"/><circle cx="853" cy="904" r="4"/><circle cx="946" cy="915" r="5"/><circle cx="985" cy="949" r="6"/><circle cx="1049" cy="934" r="6"/><circle cx="1197" cy="880" r="5"/><circle cx="1274" cy="944" r="5"/><circle cx="1343" cy="893" r="5"/><circle cx="1373" cy="907" r="4"/><circle cx="1494" cy="952" r="4"/><circle cx="1594" cy="896" r="5"/><circle cx="1613" cy="922" r="4"/><circle cx="1718" cy="932" r="5"/><circle cx="1799" cy="912" r="5"/><circle cx="1884" cy="918" r="5"/><circle cx="1960" cy="905" r="5"/><circle cx="2022" cy="950" r="5"/><circle cx="2123" cy="895" r="4"/><circle cx="2192" cy="927" r="4"/><circle cx="2304" cy="935" r="6"/><circle cx="2346" cy="908" r="5"/><circle cx="2452" cy="933" r="6"/><circle cx="2538" cy="942" r="5"/><circle cx="24" cy="979" r="4"/><circle cx="97" cy="989" r="5"/><circle cx="172" cy="1036" r="5"/><circle cx="318" cy="1026" r="5"/><circle cx="374" cy="1038" r="5"/><circle cx="442" cy="1006" r="5"/><circle cx="530" cy="967" r="6"/><circle cx="633" cy="1024" r="5"/><circle cx="650" cy="1040" r="5"/><circle cx="728" cy="1034" r="6"/><circle cx="861" cy="1010" r="4"/><circle cx="894" cy="980" r="4"/><circle cx="974" cy="1025" r="6"/><circle cx="1050" cy="996" r="5"/><circle cx="1125" cy="967" r="5"/><circle cx="1225" cy="973" r="6"/><circle cx="1280" cy="1024" r="4"/><circle cx="1384" cy="1001" r="6"/><circle cx="1489" cy="978" r="4"/><circle cx="1551" cy="978" r="5"/><circle cx="1674" cy="999" r="6"/><circle cx="1750" cy="999" r="6"/><circle cx="1792" cy="983" r="5"/><circle cx="1907" cy="962" r="4"/><circle cx="1959" cy="965" r="5"/><circle cx="2046" cy="980" r="4"/><circle cx="2096" cy="1020" r="5"/><circle cx="2201" cy="1023" r="6"/><circle cx="2251" cy="981" r="4"/><circle cx="2332" cy="968" r="5"/><circle cx="2468" cy="974" r="5"/><circle cx="2554" cy="1002" r="5"/><circle cx="27" cy="1087" r="4"/><circle cx="98" cy="1051" r="5"/><circle cx="228" cy="1044" r="5"/><circle cx="285" cy="1076" r="5"/><circle cx="338" cy="1101" r="5"/><circle cx="414" cy="1047" r="5"/><circle cx="480" cy="1050" r="6"/><circle cx="621" cy="1104" r="4"/><circle cx="696" cy="1098" r="4"/><circle cx="793" cy="1104" r="5"/><circle cx="832" cy="1087" r="5"/><circle cx="907" cy="1095" r="5"/><circle cx="1016" cy="1077" r="6"/><circle cx="1107" cy="1071" r="6"/><circle cx="1122" cy="1078" r="4"/><circle cx="1226" cy="1072" r="5"/><circle cx="1324" cy="1108" r="5"/><circle cx="1374" cy="1091" r="6"/><circle cx="1518" cy="1074" r="5"/><circle cx="1537" cy="1051" r="6"/><circle cx="1609" cy="1084" r="6"/><circle cx="1684" cy="1058" r="6"/><circle cx="1796" cy="1103" r="6"/><circle cx="1851" cy="1099" r="5"/><circle cx="1957" cy="1106" r="4"/><circle cx="2044" cy="1055" r="5"/><circle cx="2133" cy="1110" r="6"/><circle cx="2178" cy="1070" r="6"/><circle cx="2274" cy="1109" r="4"/><circle cx="2366" cy="1060" r="6"/><circle cx="2408" cy="1072" r="5"/><circle cx="2537" cy="1083" r="5"/><circle cx="50" cy="1191" r="5"/><circle cx="121" cy="1141" r="5"/><circle cx="187" cy="1182" r="4"/><circle cx="286" cy="1140" r="6"/><circle cx="386" cy="1173" r="4"/><circle cx="435" cy="1130" r="5"/><circle cx="502" cy="1134" r="5"/><circle cx="576" cy="1147" r="6"/><circle cx="675" cy="1185" r="5"/><circle cx="772" cy="1169" r="6"/><circle cx="868" cy="1162" r="4"/><circle cx="932" cy="1147" r="5"/><circle cx="993" cy="1167" r="5"/><circle cx="1071" cy="1150" r="5"/><circle cx="1142" cy="1143" r="5"/><circle cx="1277" cy="1155" r="5"/><circle cx="1318" cy="1159" r="5"/><circle cx="1411" cy="1178" r="5"/><circle cx="1457" cy="1134" r="4"/><circle cx="1534" cy="1165" r="5"/><circle cx="1679" cy="1132" r="4"/><circle cx="1735" cy="1163" r="6"/><circle cx="1795" cy="1147" r="6"/><circle cx="1888" cy="1130" r="6"/><circle cx="1923" cy="1187" r="4"/><circle cx="2035" cy="1120" r="5"/><circle cx="2098" cy="1125" r="4"/><circle cx="2177" cy="1163" r="6"/><circle cx="2250" cy="1138" r="6"/><circle cx="2393" cy="1184" r="4"/><circle cx="2408" cy="1199" r="4"/><circle cx="2520" cy="1197" r="5"/><circle cx="72" cy="1212" r="5"/><circle cx="126" cy="1267" r="6"/><circle cx="230" cy="1232" r="5"/><circle cx="308" cy="1235" r="5"/><circle cx="351" cy="1212" r="4"/><circle cx="440" cy="1203" r="5"/><circle cx="514" cy="1208" r="4"/><circle cx="592" cy="1203" r="5"/><circle cx="651" cy="1247" r="6"/><circle cx="779" cy="1262" r="6"/><circle cx="815" cy="1235" r="4"/><circle cx="921" cy="1215" r="6"/><circle cx="1029" cy="1251" r="5"/><circle cx="1101" cy="1234" r="5"/><circle cx="1184" cy="1202" r="5"/><circle cx="1214" cy="1250" r="4"/><circle cx="1294" cy="1262" r="5"/><circle cx="1429" cy="1216" r="5"/><circle cx="1501" cy="1270" r="6"/><circle cx="1531" cy="1243" r="6"/><circle cx="1653" cy="1233" r="5"/><circle cx="1713" cy="1221" r="6"/><circle cx="1786" cy="1274" r="4"/><circle cx="1856" cy="1272" r="6"/><circle cx="1962" cy="1203" r="5"/><circle cx="2035" cy="1273" r="5"/><circle cx="2155" cy="1274" r="5"/><circle cx="2199" cy="1250" r="5"/><circle cx="2319" cy="1205" r="5"/><circle cx="2357" cy="1273" r="5"/><circle cx="2430" cy="1256" r="5"/><circle cx="2520" cy="1213" r="4"/><circle cx="7" cy="1334" r="6"/><circle cx="92" cy="1333" r="5"/><circle cx="202" cy="1299" r="6"/><circle cx="301" cy="1358" r="4"/><circle cx="351" cy="1299" r="5"/><circle cx="435" cy="1341" r="6"/><circle cx="552" cy="1317" r="5"/><circle cx="631" cy="1287" r="4"/><circle cx="717" cy="1327" r="5"/><circle cx="760" cy="1288" r="4"/><circle cx="813" cy="1328" r="4"/><circle cx="940" cy="1301" r="5"/><circle cx="974" cy="1322" r="5"/><circle cx="1040" cy="1333" r="4"/><circle cx="1136" cy="1296" r="6"/><circle cx="1256" cy="1327" r="5"/><circle cx="1329" cy="1328" r="4"/><circle cx="1436" cy="1317" r="6"/><circle cx="1446" cy="1334" r="5"/><circle cx="1580" cy="1347" r="6"/><circle cx="1649" cy="1281" r="5"/><circle cx="1691" cy="1308" r="4"/><circle cx="1833" cy="1325" r="5"/><circle cx="1856" cy="1280" r="4"/><circle cx="1953" cy="1358" r="5"/><circle cx="2036" cy="1335" r="5"/><circle cx="2115" cy="1359" r="5"/><circle cx="2161" cy="1318" r="5"/><circle cx="2252" cy="1340" r="5"/><circle cx="2397" cy="1337" r="5"/><circle cx="2443" cy="1337" r="6"/><circle cx="2507" cy="1337" r="5"/><circle cx="64" cy="1384" r="5"/><circle cx="149" cy="1366" r="6"/><circle cx="207" cy="1396" r="4"/><circle cx="291" cy="1437" r="5"/><circle cx="291" cy="-3" r="5"/><circle cx="355" cy="1395" r="5"/><circle cx="463" cy="1413" r="5"/><circle cx="530" cy="1384" r="5"/><circle cx="613" cy="1367" r="5"/><circle cx="670" cy="1380" r="4"/><circle cx="796" cy="1400" r="4"/><circle cx="859" cy="1374" r="6"/><circle cx="893" cy="1405" r="5"/><circle cx="975" cy="1381" r="4"/><circle cx="1092" cy="1389" r="5"/><circle cx="1152" cy="1436" r="5"/><circle cx="1152" cy="-4" r="5"/><circle cx="1252" cy="1385" r="6"/><circle cx="1307" cy="1367" r="6"/><circle cx="1430" cy="1384" r="4"/><circle cx="1520" cy="1380" r="5"/><circle cx="1535" cy="1426" r="5"/><circle cx="1679" cy="1438" r="4"/><circle cx="1679" cy="-2" r="4"/><circle cx="1745" cy="1434" r="5"/><circle cx="1778" cy="1392" r="6"/><circle cx="1913" cy="1376" r="5"/><circle cx="1969" cy="1374" r="6"/><circle cx="2035" cy="1418" r="5"/><circle cx="2118" cy="1389" r="6"/><circle cx="2168" cy="1388" r="6"/><circle cx="2293" cy="1429" r="6"/><circle cx="2329" cy="1432" r="5"/><circle cx="2419" cy="1383" r="6"/><circle cx="2529" cy="1382" r="6"/><path stroke="#fff" d="M18 21L82 79M18 21L-5 74M18 21L64 -56M18 21L-31 -58M2578 21L2555 74M2578 21L2529 -58M18 1461L64 1384M18 1461L-31 1382M2578 1461L2529 1382M82 79L-5 74M82 79L44 141M82 79L137 82M2642 79L2555 74M227 12L294 52M227 12L137 82M227 12L207 -44M227 12L291 -3M227 1452L207 1396M227 1452L291 1437M294 52L349 60M294 52L277 118M294 52L325 142M294 52L291 -3M294 1492L291 1437M349 60L277 118M349 60L325 142M349 60L444 85M349 60L291 -3M349 1500L291 1437M472 46L498 68M472 46L574 72M472 46L444 85M472 46L533 106M472 46L463 -27M472 1486L463 1413M498 68L574 72M498 68L444 85M498 68L533 106M498 68L463 -27M498 1508L463 1413M574 72L533 106M574 72L631 94M574 72L554 161M688 46L721 21M688 46L631 94M688 46L686 81M688 46L740 137M688 46L670 -60M688 1486L670 1380M721 21L686 81M721 21L670 -60M721 21L796 -40M721 1461L670 1380M721 1461L796 1400M850 78L904 22M850 78L874 152M850 78L861 201M850 78L893 -35M850 1518L893 1405M904 22L859 -66M904 22L893 -35M904 22L975 -59M904 1462L859 1374M904 1462L893 1405M904 1462L975 1381M991 79L1080 69M991 79L954 126M991 79L977 155M991 79L1046 84M991 79L1038 170M1080 69L1130 77M1080 69L1046 84M1080 69L1152 -4M1080 1509L1152 1436M1130 77L1046 84M1130 77L1187 115M1130 77L1138 169M1130 77L1152 -4M1130 1517L1152 1436M1250 27L1331 10M1250 27L1245 98M1250 27L1152 -4M1250 27L1252 -55M1250 1467L1152 1436M1250 1467L1252 1385M1331 10L1402 25M1331 10L1252 -55M1331 10L1307 -73M1331 1450L1252 1385M1331 1450L1307 1367M1402 25L1467 17M1402 25L1410 115M1402 25L1430 -56M1402 1465L1430 1384M1467 17L1410 115M1467 17L1430 -56M1467 17L1520 -60M1467 17L1535 -14M1467 1457L1430 1384M1467 1457L1520 1380M1467 1457L1535 1426M1589 56L1620 46M1589 56L1520 112M1589 56L1566 97M1589 56L1535 -14M1589 1496L1535 1426M1620 46L1715 73M1620 46L1566 97M1620 46L1679 107M1620 46L1679 -2M1620 1486L1679 1438M1715 73L1679 107M1715 73L1726 98M1715 73L1679 -2M1715 73L1745 -6M1715 1513L1679 1438M1715 1513L1745 1434M1822 37L1886 37M1822 37L1838 130M1822 37L1745 -6M1822 37L1778 -48M1822 1477L1745 1434M1822 1477L1778 1392M1886 37L1946 26M1886 37L1894 98M1886 37L1950 105M1946 26L1894 98M1946 26L1950 105M1946 26L1913 -64M1946 26L1969 -66M1946 1466L1913 1376M1946 1466L1969 1374M2080 5L2083 48M2080 5L2035 -22M2080 5L2118 -51M2080 5L2168 -52M2080 1445L2035 1418M2080 1445L2118 1389M2080 1445L2168 1388M2083 48L2191 66M2083 48L2169 85M2083 48L2035 -22M2083 1488L2035 1418M2191 66L2169 85M2313 66L2345 1M2313 66L2290 110M2313 66L2400 101M2313 66L2293 -11M2313 66L2329 -8M2313 1506L2293 1429M2313 1506L2329 1432M2345 1L2419 10M2345 1L2293 -11M2345 1L2329 -8M2345 1L2419 -57M2345 1441L2293 1429M2345 1441L2329 1432M2345 1441L2419 1383M2419 10L2400 101M2419 10L2329 -8M2419 10L2419 -57M2419 1450L2329 1432M2419 1450L2419 1383M2555 74L2604 141M2555 74L2522 151M-5 74L44 141M44 141L-38 151M44 141L51 215M44 141L88 224M2604 141L2522 151M137 82L186 160M186 160L234 194M186 160L255 241M277 118L325 142M277 118L234 194M325 142L300 216M325 142L378 200M444 85L533 106M533 106L554 161M631 94L686 81M631 94L554 161M631 94L701 198M686 81L740 137M740 137L701 198M740 137L720 201M874 152L954 126M874 152L861 201M874 152L933 206M954 126L977 155M954 126L933 206M954 126L1038 170M977 155L933 206M977 155L1038 170M977 155L1053 181M1046 84L1038 170M1046 84L1053 181M1187 115L1245 98M1187 115L1138 169M1245 98L1345 136M1345 136L1410 115M1345 136L1427 170M1410 115L1427 170M1410 115L1440 188M1520 112L1566 97M1566 97L1535 -14M1566 1537L1535 1426M1679 107L1726 98M1679 107L1662 208M1726 98L1679 -2M1726 98L1745 -6M1726 1538L1679 1438M1726 1538L1745 1434M1838 130L1894 98M1838 130L1837 214M1838 130L1858 230M1894 98L1950 105M1894 98L1973 162M1950 105L2037 141M1950 105L1973 162M2037 141L2105 156M2037 141L1973 162M2037 141L2054 180M2037 141L2108 180M2105 156L2169 85M2105 156L2054 180M2105 156L2108 180M2105 156L2089 258M2169 85L2231 178M2169 85L2254 176M2290 110L2400 101M2290 110L2231 178M2290 110L2254 176M2290 110L2326 189M2391 136L2400 101M2391 136L2326 189M2391 136L2475 208M2391 136L2497 163M2400 101L2497 163M2522 151L2475 208M2522 151L2497 163M51 215L88 224M51 215L42 301M51 215L85 290M51 215L-19 256M2611 215L2541 256M88 224L42 301M88 224L85 290M234 194L300 216M234 194L211 309M234 194L255 241M300 216L378 200M300 216L255 241M300 216L391 242M378 200L434 207M378 200L391 242M378 200L449 254M434 207L391 242M434 207L449 254M434 207L463 324M554 161L579 219M554 161L519 258M579 219L519 258M579 219L618 298M701 198L720 201M701 198L696 297M701 198L810 255M720 201L742 307M720 201L810 255M861 201L933 206M861 201L810 255M861 201L949 251M933 206L949 251M1038 170L1053 181M1053 181L1138 169M1138 169L1151 262M1253 238L1219 299M1357 239L1427 170M1357 239L1440 188M1357 239L1344 291M1357 239L1428 275M1357 239L1443 268M1427 170L1440 188M1440 188L1428 275M1440 188L1443 268M1561 227L1662 208M1561 227L1559 256M1561 227L1651 245M1662 208L1693 217M1662 208L1651 245M1662 208L1694 271M1693 217L1651 245M1693 217L1694 271M1837 214L1858 230M1837 214L1819 278M1837 214L1885 270M1858 230L1819 278M1858 230L1885 270M1973 162L2054 180M1973 162L1958 270M2054 180L2108 180M2054 180L2025 256M2108 180L2089 258M2231 178L2254 176M2231 178L2326 189M2231 178L2276 255M2254 176L2326 189M2254 176L2276 255M2326 189L2276 255M2475 208L2497 163M2475 208L2469 311M2475 208L2541 256M2497 163L2541 256M42 301L85 290M42 301L-19 256M42 301L24 381M2602 301L2541 256M211 309L255 241M211 309L230 371M211 309L257 398M211 309L332 339M255 241L332 339M391 242L449 254M391 242L463 324M449 254L519 258M449 254L463 324M519 258L463 324M519 258L557 349M618 298L696 297M618 298L557 349M618 298L657 321M696 297L742 307M696 297L657 321M696 297L738 331M742 307L810 255M742 307L657 321M742 307L738 331M810 255L738 331M949 251L975 302M949 251L1047 294M949 251L997 329M975 302L1047 294M975 302L920 378M975 302L997 329M975 302L1044 320M1047 294L1151 262M1047 294L997 329M1047 294L1044 320M1151 262L1219 299M1151 262L1143 356M1151 262L1212 334M1219 299L1212 334M1344 291L1428 275M1344 291L1443 268M1344 291L1295 378M1344 291L1387 331M1428 275L1443 268M1428 275L1387 331M1443 268L1387 331M1559 256L1651 245M1651 245L1694 271M1819 278L1885 270M1819 278L1776 363M1885 270L1958 270M1958 270L2025 256M1958 270L1980 374M1958 270L2017 324M2025 256L2089 258M2025 256L2017 324M2089 258L2017 324M2225 306L2276 255M2225 306L2142 366M2225 306L2228 381M2276 255L2333 307M2333 307L2288 379M2333 307L2337 321M2469 311L2541 256M2469 311L2451 369M2469 311L2519 391M2469 311L2411 401M24 381L121 392M24 381L-41 391M24 381L12 432M2584 381L2519 391M121 392L98 475M121 392L182 446M230 371L257 398M230 371L332 339M230 371L182 446M230 371L263 452M257 398L332 339M257 398L263 452M463 324L557 349M557 349L606 394M557 349L528 446M606 394L657 321M606 394L528 446M606 394L624 468M606 394L666 420M657 321L738 331M842 378L920 378M842 378L863 415M842 378L924 411M920 378L863 415M920 378L924 411M920 378L967 448M997 329L1044 320M1143 356L1212 334M1143 356L1110 439M1143 356L1134 437M1143 356L1229 408M1212 334L1295 378M1212 334L1229 408M1295 378L1387 331M1295 378L1229 408M1295 378L1298 409M1387 331L1411 424M1479 383L1593 379M1479 383L1411 424M1479 383L1503 408M1479 383L1552 417M1593 379L1641 371M1593 379L1503 408M1593 379L1552 417M1641 371L1741 387M1641 371L1552 417M1641 371L1678 456M1641 371L1695 458M1741 387L1776 363M1741 387L1678 456M1741 387L1695 458M1741 387L1816 423M1776 363L1866 388M1776 363L1816 423M1866 388L1816 423M1866 388L1902 418M1866 388L1921 448M1980 374L2017 324M1980 374L1902 418M1980 374L1921 448M1980 374L2052 432M2142 366L2228 381M2142 366L2052 432M2142 366L2160 451M2142 366L2223 420M2228 381L2288 379M2228 381L2223 420M2288 379L2337 321M2288 379L2223 420M2288 379L2288 468M2337 321L2411 401M2451 369L2519 391M2451 369L2392 421M2451 369L2411 401M2451 369L2501 460M2519 391L2572 432M2519 391L2501 460M-41 391L12 432M12 432L-59 460M12 432L17 502M12 432L-27 509M2572 432L2501 460M2572 432L2533 509M98 475L182 446M98 475L17 502M98 475L84 553M98 475L63 591M263 452L236 525M263 452L273 529M360 469L442 444M360 469L323 525M360 469L428 545M442 444L528 446M528 446L544 482M624 468L666 420M624 468L544 482M624 468L596 537M624 468L648 534M666 420L755 452M755 452L863 415M755 452L741 545M755 452L803 495M755 452L714 563M863 415L924 411M863 415L803 495M924 411L967 448M924 411L971 501M967 448L931 547M967 448L971 501M1110 439L1134 437M1110 439L1110 536M1110 439L1138 508M1134 437L1229 408M1134 437L1110 536M1134 437L1138 508M1229 408L1298 409M1298 409L1278 532M1411 424L1503 408M1411 424L1386 495M1411 424L1463 511M1503 408L1552 417M1552 417L1572 540M1678 456L1695 458M1678 456L1676 491M1695 458L1676 491M1695 458L1751 534M1816 423L1902 418M1902 418L1921 448M1902 418L1924 530M1921 448L1884 530M1921 448L1924 530M2052 432L2064 513M2052 432L2141 504M2160 451L2223 420M2160 451L2141 504M2160 451L2178 513M2223 420L2288 468M2288 468L2298 560M2288 468L2255 571M2392 421L2411 401M2501 460L2577 502M2501 460L2533 509M-59 460L17 502M17 502L-27 509M17 502L63 591M2577 502L2533 509M84 553L63 591M84 553L91 622M236 525L273 529M236 525L323 525M236 525L236 596M236 525L246 610M273 529L323 525M273 529L236 596M273 529L246 610M323 525L428 545M323 525L366 619M428 545L366 619M428 545L405 633M428 545L517 575M544 482L596 537M544 482L517 575M596 537L648 534M596 537L517 575M596 537L604 634M648 534L741 545M648 534L604 634M648 534L714 563M741 545L803 495M741 545L714 563M741 545L796 591M803 495L714 563M803 495L796 591M931 547L971 501M931 547L912 625M931 547L971 562M971 501L971 562M1110 536L1138 508M1110 536L1189 572M1138 508L1189 572M1278 532L1355 543M1278 532L1386 495M1278 532L1189 572M1278 532L1273 618M1355 543L1386 495M1355 543L1463 511M1355 543L1355 630M1355 543L1434 624M1386 495L1463 511M1463 511L1487 612M1572 540L1676 491M1572 540L1487 612M1572 540L1574 633M1676 491L1751 534M1751 534L1779 537M1751 534L1683 617M1751 534L1765 625M1779 537L1884 530M1779 537L1765 625M1779 537L1757 648M1884 530L1924 530M1924 530L1910 632M1924 530L1999 579M2064 513L2141 504M2064 513L1999 579M2064 513L2130 577M2141 504L2178 513M2141 504L2130 577M2178 513L2130 577M2178 513L2182 615M2178 513L2255 571M2298 560L2383 545M2298 560L2255 571M2298 560L2339 601M2383 545L2445 551M2383 545L2339 601M2383 545L2451 600M2445 551L2533 509M2445 551L2451 600M2445 551L2487 616M63 591L91 622M63 591L78 648M91 622L78 648M91 622L158 649M91 622L80 748M236 596L246 610M236 596L158 649M236 596L219 642M246 610L219 642M246 610L249 706M366 619L405 633M366 619L356 657M405 633L356 657M405 633L423 713M517 575L604 634M517 575L575 647M604 634L575 647M604 634L565 724M714 563L796 591M796 591L829 639M796 591L767 683M829 639L912 625M829 639L767 683M829 639L868 677M829 639L924 677M912 625L971 562M912 625L868 677M912 625L924 677M971 562L1047 628M1047 628L1023 664M1047 628L1059 697M1189 572L1273 618M1189 572L1179 646M1273 618L1355 630M1273 618L1214 693M1273 618L1286 683M1355 630L1434 624M1355 630L1286 683M1355 630L1379 657M1434 624L1487 612M1434 624L1379 657M1434 624L1460 646M1487 612L1574 633M1487 612L1460 646M1574 633L1556 703M1574 633L1653 678M1675 613L1683 617M1675 613L1653 678M1675 613L1757 648M1675 613L1695 734M1683 617L1765 625M1683 617L1653 678M1683 617L1757 648M1765 625L1757 648M1765 625L1837 657M1910 632L1999 579M1910 632L1837 657M1910 632L1916 667M1910 632L1959 714M1999 579L2032 638M1999 579L2025 644M2032 638L2025 644M2130 577L2182 615M2182 615L2255 571M2182 615L2151 688M2182 615L2204 683M2255 571L2339 601M2339 601L2260 680M2339 601L2369 676M2451 600L2487 616M2451 600L2452 668M2451 600L2491 661M2487 616L2452 668M2487 616L2491 661M78 648L158 649M78 648L65 750M78 648L80 748M158 649L219 642M219 642L249 706M219 642L206 758M249 706L206 758M249 706L316 758M249 706L253 816M356 657L423 713M356 657L316 758M423 713L491 689M423 713L391 795M423 713L440 754M491 689L575 647M491 689L440 754M491 689L522 722M491 689L565 724M575 647L522 722M575 647L565 724M683 712L767 683M683 712L694 782M683 712L730 783M767 683L801 788M868 677L924 677M868 677L922 742M924 677L922 742M924 677L981 726M1023 664L1059 697M1023 664L981 726M1023 664L1103 725M1059 697L981 726M1059 697L1103 725M1059 697L1164 731M1179 646L1214 693M1179 646L1103 725M1179 646L1164 731M1214 693L1286 683M1214 693L1164 731M1214 693L1240 746M1286 683L1240 746M1286 683L1319 734M1379 657L1460 646M1379 657L1319 734M1460 646L1556 703M1460 646L1524 740M1556 703L1515 772M1556 703L1524 740M1653 678L1665 784M1653 678L1695 734M1757 648L1837 657M1837 657L1916 667M1837 657L1838 748M1916 667L1959 714M1916 667L2025 644M1916 667L1946 757M1959 714L2025 644M1959 714L1896 782M1959 714L1946 757M2151 688L2204 683M2151 688L2260 680M2151 688L2111 760M2151 688L2171 784M2204 683L2260 680M2204 683L2171 784M2260 680L2369 676M2260 680L2310 729M2369 676L2452 668M2369 676L2310 729M2369 676L2393 750M2452 668L2491 661M2452 668L2393 750M2491 661L2525 751M65 750L80 748M65 750L-35 751M65 750L1 837M65 750L133 811M2625 750L2525 751M80 748L133 811M206 758L133 811M206 758L253 816M316 758L391 795M316 758L253 816M391 795L440 754M391 795L357 875M391 795L464 808M440 754L522 722M440 754L464 808M522 722L565 724M522 722L464 808M565 724L555 847M694 782L730 783M694 782L706 868M694 782L767 840M730 783L801 788M730 783L706 868M730 783L767 840M801 788L767 840M801 788L852 807M801 788L881 828M922 742L981 726M922 742L881 828M922 742L977 822M981 726L977 822M1103 725L1164 731M1103 725L1058 842M1164 731L1240 746M1240 746L1319 734M1240 746L1211 817M1319 734L1411 769M1319 734L1369 802M1411 769L1515 772M1411 769L1369 802M1411 769L1474 854M1515 772L1524 740M1515 772L1474 854M1515 772L1594 818M1524 740L1474 854M1524 740L1594 818M1665 784L1695 734M1665 784L1594 818M1665 784L1633 849M1665 784L1734 873M1838 748L1896 782M1838 748L1818 828M1896 782L1946 757M1896 782L1818 828M1896 782L1891 871M1946 757L2047 777M1946 757L1982 826M2047 777L2111 760M2047 777L1982 826M2047 777L2053 823M2111 760L2171 784M2111 760L2053 823M2111 760L2187 801M2171 784L2141 860M2171 784L2187 801M2310 729L2393 750M2393 750L2451 773M2393 750L2364 823M2451 773L2525 751M2451 773L2364 823M2451 773L2421 844M2451 773L2499 851M2525 751L2561 837M-35 751L1 837M1 837L-61 851M1 837L62 903M2561 837L2499 851M133 811L208 878M133 811L122 914M208 878L253 816M208 878L122 914M208 878L170 954M208 878L281 948M253 816L357 875M357 875L281 948M357 875L361 901M464 808L555 847M464 808L542 882M555 847L637 861M555 847L542 882M637 861L706 868M637 861L542 882M637 861L634 951M637 861L671 887M706 868L767 840M706 868L671 887M767 840L788 927M852 807L881 828M852 807L853 904M881 828L977 822M881 828L853 904M977 822L1058 842M977 822L946 915M1058 842L1049 934M1194 855L1211 817M1194 855L1197 880M1211 817L1197 880M1354 857L1369 802M1354 857L1343 893M1354 857L1373 907M1369 802L1474 854M1369 802L1343 893M1474 854L1494 952M1594 818L1633 849M1594 818L1594 896M1633 849L1734 873M1633 849L1594 896M1633 849L1613 922M1734 873L1818 828M1734 873L1718 932M1734 873L1799 912M1818 828L1891 871M1818 828L1799 912M1891 871L1884 918M1891 871L1960 905M1891 871L1907 962M1982 826L2053 823M2053 823L2141 860M2053 823L2123 895M2141 860L2187 801M2141 860L2123 895M2141 860L2192 927M2187 801L2298 849M2187 801L2123 895M2298 849L2364 823M2298 849L2304 935M2298 849L2346 908M2298 849L2332 968M2364 823L2421 844M2364 823L2346 908M2421 844L2499 851M2421 844L2452 933M2499 851L2452 933M2499 851L2538 942M62 903L122 914M62 903L24 979M122 914L170 954M122 914L97 989M170 954L97 989M170 954L172 1036M170 954L228 1044M281 948L361 901M281 948L318 1026M479 953L542 882M479 953L442 1006M479 953L530 967M542 882L530 967M634 951L671 887M634 951L530 967M634 951L633 1024M634 951L650 1040M788 927L853 904M788 927L728 1034M788 927L861 1010M853 904L946 915M853 904L894 980M946 915L985 949M946 915L1049 934M946 915L894 980M985 949L1049 934M985 949L894 980M985 949L974 1025M985 949L1050 996M1049 934L1050 996M1049 934L1125 967M1197 880L1274 944M1197 880L1125 967M1197 880L1225 973M1274 944L1343 893M1274 944L1225 973M1274 944L1280 1024M1343 893L1373 907M1343 893L1384 1001M1373 907L1384 1001M1494 952L1489 978M1494 952L1551 978M1594 896L1613 922M1594 896L1551 978M1613 922L1551 978M1613 922L1674 999M1718 932L1799 912M1718 932L1674 999M1718 932L1750 999M1718 932L1792 983M1799 912L1884 918M1799 912L1792 983M1884 918L1960 905M1884 918L1907 962M1884 918L1959 965M1960 905L2022 950M1960 905L1907 962M1960 905L1959 965M2022 950L1959 965M2022 950L2046 980M2022 950L2096 1020M2123 895L2192 927M2192 927L2304 935M2192 927L2201 1023M2192 927L2251 981M2304 935L2346 908M2304 935L2251 981M2304 935L2332 968M2346 908L2452 933M2346 908L2332 968M2452 933L2538 942M2452 933L2468 974M2538 942L2584 979M2538 942L2468 974M2538 942L2554 1002M-22 942L24 979M24 979L97 989M24 979L-6 1002M24 979L98 1051M2584 979L2554 1002M97 989L172 1036M97 989L98 1051M172 1036L98 1051M172 1036L228 1044M172 1036L121 1141M318 1026L374 1038M318 1026L228 1044M318 1026L285 1076M318 1026L338 1101M374 1038L442 1006M374 1038L338 1101M374 1038L414 1047M442 1006L530 967M442 1006L414 1047M442 1006L480 1050M530 967L480 1050M633 1024L650 1040M633 1024L728 1034M633 1024L621 1104M650 1040L728 1034M650 1040L621 1104M650 1040L696 1098M728 1034L696 1098M728 1034L793 1104M861 1010L894 980M861 1010L832 1087M861 1010L907 1095M894 980L974 1025M974 1025L1050 996M974 1025L907 1095M974 1025L1016 1077M1050 996L1125 967M1050 996L1016 1077M1125 967L1225 973M1125 967L1107 1071M1225 973L1280 1024M1225 973L1226 1072M1280 1024L1384 1001M1280 1024L1226 1072M1280 1024L1324 1108M1384 1001L1489 978M1384 1001L1374 1091M1489 978L1551 978M1489 978L1518 1074M1489 978L1537 1051M1551 978L1537 1051M1674 999L1750 999M1674 999L1609 1084M1674 999L1684 1058M1750 999L1792 983M1750 999L1684 1058M1750 999L1796 1103M1907 962L1959 965M1959 965L2046 980M2046 980L2096 1020M2046 980L2044 1055M2096 1020L2044 1055M2096 1020L2133 1110M2096 1020L2178 1070M2201 1023L2251 981M2201 1023L2178 1070M2251 981L2332 968M2332 968L2366 1060M2468 974L2554 1002M2468 974L2408 1072M2554 1002L2587 1087M2554 1002L2537 1083M-6 1002L27 1087M27 1087L98 1051M27 1087L-23 1083M2587 1087L2537 1083M98 1051L121 1141M228 1044L285 1076M285 1076L338 1101M285 1076L286 1140M338 1101L414 1047M338 1101L286 1140M414 1047L480 1050M414 1047L435 1130M480 1050L435 1130M480 1050L502 1134M621 1104L696 1098M621 1104L576 1147M696 1098L793 1104M696 1098L675 1185M793 1104L832 1087M793 1104L772 1169M832 1087L907 1095M832 1087L868 1162M907 1095L868 1162M907 1095L932 1147M1016 1077L1107 1071M1016 1077L993 1167M1016 1077L1071 1150M1107 1071L1122 1078M1107 1071L1071 1150M1107 1071L1142 1143M1122 1078L1142 1143M1226 1072L1324 1108M1226 1072L1277 1155M1324 1108L1374 1091M1324 1108L1277 1155M1324 1108L1318 1159M1374 1091L1318 1159M1374 1091L1411 1178M1374 1091L1457 1134M1518 1074L1537 1051M1518 1074L1609 1084M1518 1074L1457 1134M1518 1074L1534 1165M1537 1051L1609 1084M1537 1051L1534 1165M1609 1084L1684 1058M1609 1084L1679 1132M1684 1058L1679 1132M1796 1103L1851 1099M1796 1103L1735 1163M1796 1103L1795 1147M1796 1103L1888 1130M1851 1099L1795 1147M1851 1099L1888 1130M1957 1106L1888 1130M1957 1106L1923 1187M1957 1106L2035 1120M1957 1106L1962 1203M2044 1055L2035 1120M2044 1055L2098 1125M2133 1110L2178 1070M2133 1110L2035 1120M2133 1110L2098 1125M2133 1110L2177 1163M2178 1070L2177 1163M2178 1070L2250 1138M2274 1109L2366 1060M2274 1109L2250 1138M2274 1109L2319 1205M2366 1060L2408 1072M2366 1060L2393 1184M2408 1072L2537 1083M2537 1083L2520 1197M50 1191L121 1141M50 1191L-40 1197M50 1191L72 1212M50 1191L126 1267M50 1191L-40 1213M2610 1191L2520 1197M2610 1191L2520 1213M121 1141L187 1182M121 1141L72 1212M187 1182L230 1232M286 1140L230 1232M286 1140L308 1235M286 1140L351 1212M386 1173L435 1130M386 1173L308 1235M386 1173L351 1212M386 1173L440 1203M435 1130L502 1134M435 1130L440 1203M502 1134L576 1147M502 1134L440 1203M502 1134L514 1208M576 1147L675 1185M576 1147L514 1208M576 1147L592 1203M675 1185L772 1169M675 1185L592 1203M675 1185L651 1247M772 1169L868 1162M772 1169L779 1262M772 1169L815 1235M868 1162L932 1147M868 1162L921 1215M932 1147L993 1167M932 1147L921 1215M993 1167L1071 1150M993 1167L921 1215M993 1167L1029 1251M1071 1150L1142 1143M1071 1150L1101 1234M1142 1143L1101 1234M1142 1143L1184 1202M1277 1155L1318 1159M1277 1155L1184 1202M1318 1159L1411 1178M1318 1159L1294 1262M1411 1178L1457 1134M1411 1178L1429 1216M1457 1134L1534 1165M1457 1134L1429 1216M1534 1165L1531 1243M1679 1132L1735 1163M1679 1132L1653 1233M1735 1163L1795 1147M1735 1163L1653 1233M1735 1163L1713 1221M1795 1147L1888 1130M1888 1130L1923 1187M1923 1187L1856 1272M1923 1187L1962 1203M2035 1120L2098 1125M2035 1120L1962 1203M2098 1125L2177 1163M2177 1163L2250 1138M2177 1163L2199 1250M2250 1138L2199 1250M2250 1138L2319 1205M2393 1184L2408 1199M2393 1184L2319 1205M2393 1184L2430 1256M2408 1199L2319 1205M2408 1199L2357 1273M2408 1199L2430 1256M2520 1197L2632 1212M2520 1197L2520 1213M-40 1197L72 1212M72 1212L126 1267M126 1267L92 1333M126 1267L202 1299M126 1267L149 1366M230 1232L308 1235M230 1232L202 1299M308 1235L351 1212M308 1235L351 1299M351 1212L440 1203M351 1212L351 1299M440 1203L514 1208M514 1208L592 1203M592 1203L651 1247M592 1203L631 1287M651 1247L552 1317M651 1247L631 1287M651 1247L717 1327M779 1262L815 1235M779 1262L717 1327M779 1262L760 1288M779 1262L813 1328M815 1235L760 1288M815 1235L813 1328M921 1215L940 1301M1029 1251L1101 1234M1029 1251L940 1301M1029 1251L974 1322M1029 1251L1040 1333M1101 1234L1184 1202M1101 1234L1136 1296M1184 1202L1214 1250M1184 1202L1136 1296M1214 1250L1294 1262M1214 1250L1136 1296M1214 1250L1256 1327M1294 1262L1256 1327M1294 1262L1329 1328M1294 1262L1307 1367M1429 1216L1501 1270M1429 1216L1531 1243M1429 1216L1436 1317M1501 1270L1531 1243M1501 1270L1436 1317M1501 1270L1446 1334M1501 1270L1580 1347M1531 1243L1580 1347M1653 1233L1713 1221M1653 1233L1649 1281M1653 1233L1691 1308M1713 1221L1786 1274M1713 1221L1649 1281M1713 1221L1691 1308M1786 1274L1856 1272M1786 1274L1691 1308M1786 1274L1833 1325M1786 1274L1856 1280M1856 1272L1833 1325M1856 1272L1856 1280M1856 1272L1913 1376M1962 1203L2035 1273M2035 1273L1953 1358M2035 1273L2036 1335M2155 1274L2199 1250M2155 1274L2115 1359M2155 1274L2161 1318M2199 1250L2161 1318M2199 1250L2252 1340M2319 1205L2357 1273M2357 1273L2430 1256M2357 1273L2397 1337M2430 1256L2397 1337M2430 1256L2443 1337M7 1334L92 1333M7 1334L-53 1337M7 1334L64 1384M7 1334L-31 1382M2567 1334L2507 1337M2567 1334L2529 1382M92 1333L202 1299M92 1333L64 1384M92 1333L149 1366M202 1299L149 1366M202 1299L207 1396M301 1358L351 1299M301 1358L207 1396M301 1358L291 1437M301 1358L355 1395M351 1299L435 1341M351 1299L355 1395M435 1341L552 1317M435 1341L355 1395M435 1341L463 1413M435 1341L530 1384M552 1317L631 1287M552 1317L530 1384M552 1317L613 1367M631 1287L717 1327M631 1287L613 1367M717 1327L760 1288M717 1327L670 1380M760 1288L813 1328M813 1328L796 1400M813 1328L859 1374M940 1301L974 1322M940 1301L859 1374M940 1301L975 1381M974 1322L1040 1333M974 1322L975 1381M1040 1333L1136 1296M1040 1333L975 1381M1040 1333L1092 1389M1136 1296L1092 1389M1256 1327L1329 1328M1256 1327L1252 1385M1256 1327L1307 1367M1329 1328L1252 1385M1329 1328L1307 1367M1436 1317L1446 1334M1436 1317L1430 1384M1436 1317L1520 1380M1446 1334L1430 1384M1446 1334L1520 1380M1580 1347L1649 1281M1580 1347L1520 1380M1580 1347L1535 1426M1649 1281L1691 1308M1691 1308L1778 1392M1833 1325L1856 1280M1833 1325L1778 1392M1833 1325L1913 1376M1953 1358L2036 1335M1953 1358L1913 1376M1953 1358L1969 1374M2036 1335L2115 1359M2036 1335L1969 1374M2036 1335L2035 1418M2115 1359L2161 1318M2115 1359L2118 1389M2115 1359L2168 1388M2161 1318L2118 1389M2161 1318L2168 1388M2252 1340L2168 1388M2252 1340L2293 1429M2397 1337L2443 1337M2397 1337L2507 1337M2397 1337L2419 1383M2443 1337L2507 1337M2443 1337L2419 1383M2443 1337L2529 1382M2507 1337L2419 1383M2507 1337L2529 1382M64 1384L149 1366M64 1384L-31 1382M2624 1384L2529 1382M149 1366L207 1396M291 1437L355 1395M355 1395L463 1413M463 1413L530 1384M530 1384L613 1367M613 1367L670 1380M796 1400L859 1374M796 1400L893 1405M859 1374L893 1405M893 1405L975 1381M1092 1389L1152 1436M1252 1385L1307 1367M1520 1380L1535 1426M1679 1438L1745 1434M1679 1438L1778 1392M1745 1434L1778 1392M1913 1376L1969 1374M1969 1374L2035 1418M2035 1418L2118 1389M2118 1389L2168 1388M2293 1429L2329 1432"/></svg>