<svg xmlns="http://www.w3.org/2000/svg" width="2560" height="1440" fill="#fff"><circle cx="21" cy="49" r="5"/><circle cx="131" cy="4" r="5"/><circle cx="131" cy="1444" r="5"/><circle cx="223" cy="35" r="5"/><circle cx="295" cy="8" r="4"/><circle cx="391" cy="38" r="5"/><circle cx="439" cy="31" r="4"/><circle cx="510" cy="49" r="4"/><circle cx="577" cy="11" r="6"/><circle cx="682" cy="24" r="5"/><circle cx="745" cy="8" r="4"/><circle cx="829" cy="54" r="5"/><circle cx="942" cy="41" r="4"/><circle cx="962" cy="74" r="5"/><circle cx="1058" cy="18" r="5"/><circle cx="1153" cy="32" r="5"/><circle cx="1253" cy="54" r="5"/><circle cx="1332" cy="13" r="5"/><circle cx="1368" cy="14" r="5"/><circle cx="1517" cy="23" r="6"/><circle cx="1542" cy="54" r="4"/><circle cx="1622" cy="75" r="5"/><circle cx="1744" cy="58" r="6"/><circle cx="1773" cy="53" r="4"/><circle cx="1900" cy="69" r="4"/><circle cx="1984" cy="41" r="5"/><circle cx="2027" cy="33" r="6"/><circle cx="2136" cy="19" r="5"/><circle cx="2180" cy="54" r="4"/><circle cx="2282" cy="19" r="6"/><circle cx="2369" cy="53" r="6"/><circle cx="2432" cy="57" r="5"/><circle cx="2513" cy="11" r="6"/><circle cx="72" cy="91" r="5"/><circle cx="120" cy="159" r="4"/><circle cx="221" cy="109" r="5"/><circle cx="302" cy="103" r="6"/><circle cx="392" cy="81" r="6"/><circle cx="430" cy="114" r="4"/><circle cx="505" cy="128" r="4"/><circle cx="577" cy="104" r="4"/><circle cx="715" cy="86" r="6"/><circle cx="727" cy="82" r="4"/><circle cx="816" cy="138" r="6"/><circle cx="932" cy="86" r="4"/><circle cx="1002" cy="123" r="5"/><circle cx="1041" cy="100" r="4"/><circle cx="1173" cy="118" r="4"/><circle cx="1276" cy="110" r="5"/><circle cx="1346" cy="159" r="6"/><circle cx="1363" cy="86" r="6"/><circle cx="1443" cy="126" r="5"/><circle cx="1592" cy="122" r="5"/><circle cx="1674" cy="110" r="4"/><circle cx="1689" cy="132" r="5"/><circle cx="1837" cy="157" r="5"/><circle cx="1893" cy="131" r="6"/><circle cx="1993" cy="96" r="5"/><circle cx="2062" cy="157" r="5"/><circle cx="2103" cy="90" r="4"/><circle cx="2212" cy="120" r="5"/><circle cx="2248" cy="127" r="5"/><circle cx="2362" cy="99" r="6"/><circle cx="2463" cy="105" r="5"/><circle cx="2520" cy="158" r="4"/><circle cx="17" cy="187" r="6"/><circle cx="111" cy="166" r="5"/><circle cx="206" cy="214" r="6"/><circle cx="261" cy="231" r="5"/><circle cx="352" cy="236" r="6"/><circle cx="411" cy="211" r="5"/><circle cx="555" cy="213" r="4"/><circle cx="574" cy="215" r="6"/><circle cx="693" cy="217" r="6"/><circle cx="765" cy="202" r="4"/><circle cx="818" cy="199" r="5"/><circle cx="880" cy="192" r="5"/><circle cx="1006" cy="236" r="6"/><circle cx="1049" cy="222" r="6"/><circle cx="1147" cy="189" r="4"/><circle cx="1219" cy="175" r="5"/><circle cx="1319" cy="184" r="5"/><circle cx="1395" cy="221" r="4"/><circle cx="1516" cy="170" r="5"/><circle cx="1588" cy="199" r="4"/><circle cx="1663" cy="220" r="4"/><circle cx="1757" cy="164" r="5"/><circle cx="1836" cy="221" r="5"/><circle cx="1905" cy="196" r="5"/><circle cx="1969" cy="189" r="6"/><circle cx="2038" cy="202" r="5"/><circle cx="2082" cy="172" r="4"/><circle cx="2231" cy="221" r="6"/><circle cx="2270" cy="228" r="4"/><circle cx="2334" cy="236" r="5"/><circle cx="2421" cy="203" r="4"/><circle cx="2507" cy="191" r="4"/><circle cx="29" cy="309" r="4"/><circle cx="149" cy="282" r="5"/><circle cx="173" cy="286" r="6"/><circle cx="288" cy="290" r="5"/><circle cx="321" cy="275" r="4"/><circle cx="469" cy="266" r="5"/><circle cx="509" cy="307" r="6"/><circle cx="606" cy="319" r="6"/><circle cx="701" cy="308" r="5"/><circle cx="779" cy="285" r="6"/><circle cx="868" cy="275" r="6"/><circle cx="910" cy="302" r="4"/><circle cx="963" cy="287" r="6"/><circle cx="1101" cy="262" r="6"/><circle cx="1187" cy="269" r="4"/><circle cx="1272" cy="295" r="5"/><circle cx="1359" cy="282" r="4"/><circle cx="1364" cy="284" r="6"/><circle cx="1477" cy="241" r="5"/><circle cx="1582" cy="254" r="5"/><circle cx="1604" cy="264" r="4"/><circle cx="1747" cy="301" r="6"/><circle cx="1834" cy="253" r="5"/><circle cx="1869" cy="285" r="5"/><circle cx="1957" cy="258" r="5"/><circle cx="2071" cy="302" r="4"/><circle cx="2158" cy="261" r="5"/><circle cx="2186" cy="292" r="6"/><circle cx="2268" cy="311" r="5"/><circle cx="2392" cy="298" r="4"/><circle cx="2451" cy="263" r="6"/><circle cx="2485" cy="305" r="5"/><circle cx="12" cy="375" r="6"/><circle cx="159" cy="378" r="5"/><circle cx="166" cy="325" r="5"/><circle cx="288" cy="379" r="6"/><circle cx="399" cy="353" r="5"/><circle cx="447" cy="338" r="6"/><circle cx="549" cy="332" r="5"/><circle cx="605" cy="376" r="5"/><circle cx="668" cy="382" r="4"/><circle cx="722" cy="368" r="6"/><circle cx="832" cy="349" r="5"/><circle cx="910" cy="353" r="4"/><circle cx="1004" cy="321" r="4"/><circle cx="1063" cy="370" r="4"/><circle cx="1151" cy="332" r="6"/><circle cx="1278" cy="383" r="4"/><circle cx="1330" cy="360" r="6"/><circle cx="1394" cy="360" r="5"/><circle cx="1446" cy="357" r="4"/><circle cx="1578" cy="399" r="5"/><circle cx="1634" cy="326" r="5"/><circle cx="1745" cy="323" r="4"/><circle cx="1785" cy="369" r="5"/><circle cx="1878" cy="363" r="4"/><circle cx="1975" cy="378" r="5"/><circle cx="2042" cy="333" r="4"/><circle cx="2126" cy="358" r="4"/><circle cx="2208" cy="378" r="4"/><circle cx="2261" cy="353" r="6"/><circle cx="2344" cy="370" r="5"/><circle cx="2411" cy="365" r="6"/><circle cx="2520" cy="337" r="5"/><circle cx="20" cy="451" r="5"/><circle cx="124" cy="459" r="6"/><circle cx="178" cy="458" r="4"/><circle cx="288" cy="403" r="4"/><circle cx="379" cy="437" r="5"/><circle cx="427" cy="427" r="5"/><circle cx="502" cy="430" r="5"/><circle cx="596" cy="458" r="5"/><circle cx="708" cy="454" r="5"/><circle cx="735" cy="472" r="5"/><circle cx="862" cy="458" r="6"/><circle cx="896" cy="462" r="5"/><circle cx="966" cy="439" r="5"/><circle cx="1048" cy="432" r="4"/><circle cx="1195" cy="443" r="4"/><circle cx="1255" cy="400" r="5"/><circle cx="1286" cy="444" r="6"/><circle cx="1403" cy="440" r="4"/><circle cx="1505" cy="434" r="5"/><circle cx="1523" cy="444" r="4"/><circle cx="1666" cy="474" r="4"/><circle cx="1700" cy="408" r="4"/><circle cx="1804" cy="442" r="4"/><circle cx="1904" cy="451" r="5"/><circle cx="1994" cy="411" r="4"/><circle cx="2045" cy="478" r="4"/><circle cx="2134" cy="411" r="4"/><circle cx="2173" cy="439" r="5"/><circle cx="2278" cy="454" r="6"/><circle cx="2394" cy="448" r="4"/><circle cx="2437" cy="447" r="5"/><circle cx="2490" cy="466" r="4"/><circle cx="5" cy="481" r="5"/><circle cx="2565" cy="481" r="5"/><circle cx="126" cy="534" r="4"/><circle cx="209" cy="508" r="6"/><circle cx="288" cy="493" r="6"/><circle cx="367" cy="501" r="4"/><circle cx="415" cy="538" r="5"/><circle cx="505" cy="541" r="5"/><circle cx="609" cy="513" r="5"/><circle cx="641" cy="513" r="5"/><circle cx="792" cy="554" r="6"/><circle cx="819" cy="533" r="5"/><circle cx="902" cy="535" r="4"/><circle cx="1034" cy="543" r="4"/><circle cx="1050" cy="526" r="4"/><circle cx="1199" cy="539" r="4"/><circle cx="1259" cy="552" r="6"/><circle cx="1308" cy="543" r="6"/><circle cx="1388" cy="508" r="4"/><circle cx="1447" cy="523" r="6"/><circle cx="1548" cy="514" r="4"/><circle cx="1651" cy="548" r="6"/><circle cx="1759" cy="497" r="6"/><circle cx="1801" cy="494" r="6"/><circle cx="1906" cy="515" r="5"/><circle cx="1943" cy="526" r="5"/><circle cx="2007" cy="497" r="5"/><circle cx="2151" cy="545" r="5"/><circle cx="2184" cy="504" r="5"/><circle cx="2255" cy="489" r="6"/><circle cx="2369" cy="496" r="5"/><circle cx="2409" cy="507" r="5"/><circle cx="2502" cy="496" r="4"/><circle cx="54" cy="586" r="4"/><circle cx="135" cy="563" r="5"/><circle cx="220" cy="631" r="4"/><circle cx="292" cy="604" r="5"/><circle cx="376" cy="568" r="5"/><circle cx="452" cy="608" r="5"/><circle cx="553" cy="569" r="4"/><circle cx="574" cy="597" r="6"/><circle cx="715" cy="624" r="4"/><circle cx="774" cy="568" r="4"/><circle cx="835" cy="613" r="5"/><circle cx="902" cy="617" r="6"/><circle cx="1022" cy="612" r="5"/><circle cx="1058" cy="615" r="6"/><circle cx="1181" cy="590" r="4"/><circle cx="1268" cy="583" r="4"/><circle cx="1325" cy="576" r="5"/><circle cx="1413" cy="579" r="5"/><circle cx="1490" cy="588" r="5"/><circle cx="1552" cy="574" r="6"/><circle cx="1661" cy="617" r="5"/><circle cx="1748" cy="587" r="6"/><circle cx="1803" cy="618" r="6"/><circle cx="1881" cy="562" r="5"/><circle cx="1947" cy="623" r="5"/><circle cx="2070" cy="607" r="5"/><circle cx="2105" cy="617" r="6"/><circle cx="2204" cy="605" r="6"/><circle cx="2300" cy="615" r="6"/><circle cx="2387" cy="566" r="4"/><circle cx="2406" cy="628" r="4"/><circle cx="2489" cy="588" r="5"/><circle cx="32" cy="646" r="6"/><circle cx="99" cy="719" r="6"/><circle cx="236" cy="707" r="4"/><circle cx="258" cy="656" r="5"/><circle cx="337" cy="704" r="5"/><circle cx="436" cy="645" r="4"/><circle cx="501" cy="641" r="6"/><circle cx="611" cy="691" r="6"/><circle cx="706" cy="694" r="4"/><circle cx="789" cy="712" r="5"/><circle cx="836" cy="661" r="5"/><circle cx="933" cy="668" r="5"/><circle cx="1004" cy="653" r="5"/><circle cx="1051" cy="705" r="5"/><circle cx="1195" cy="666" r="5"/><circle cx="1224" cy="642" r="4"/><circle cx="1316" cy="701" r="4"/><circle cx="1399" cy="661" r="6"/><circle cx="1498" cy="684" r="5"/><circle cx="1560" cy="646" r="5"/><circle cx="1658" cy="713" r="5"/><circle cx="1713" cy="680" r="5"/><circle cx="1797" cy="641" r="6"/><circle cx="1894" cy="677" r="6"/><circle cx="1932" cy="705" r="5"/><circle cx="2004" cy="680" r="6"/><circle cx="2115" cy="712" r="5"/><circle cx="2178" cy="681" r="5"/><circle cx="2271" cy="678" r="5"/><circle cx="2381" cy="680" r="5"/><circle cx="2469" cy="703" r="6"/><circle cx="2485" cy="642" r="4"/><circle cx="10" cy="740" r="5"/><circle cx="88" cy="737" r="6"/><circle cx="180" cy="725" r="6"/><circle cx="260" cy="745" r="6"/><circle cx="372" cy="726" r="4"/><circle cx="443" cy="769" r="6"/><circle cx="559" cy="773" r="4"/><circle cx="639" cy="778" r="4"/><circle cx="682" cy="751" r="5"/><circle cx="796" cy="739" r="5"/><circle cx="831" cy="747" r="6"/><circle cx="920" cy="721" r="5"/><circle cx="965" cy="723" r="6"/><circle cx="1057" cy="751" r="4"/><circle cx="1138" cy="723" r="5"/><circle cx="1233" cy="726" r="6"/><circle cx="1331" cy="771" r="4"/><circle cx="1395" cy="755" r="5"/><circle cx="1441" cy="735" r="5"/><circle cx="1567" cy="747" r="4"/><circle cx="1614" cy="747" r="4"/><circle cx="1724" cy="741" r="5"/><circle cx="1821" cy="775" r="5"/><circle cx="1890" cy="727" r="5"/><circle cx="1985" cy="762" r="6"/><circle cx="2047" cy="795" r="5"/><circle cx="2153" cy="788" r="4"/><circle cx="2194" cy="757" r="5"/><circle cx="2251" cy="773" r="5"/><circle cx="2379" cy="774" r="6"/><circle cx="2477" cy="784" r="5"/><circle cx="2547" cy="731" r="6"/><circle cx="1" cy="837" r="4"/><circle cx="2561" cy="837" r="4"/><circle cx="148" cy="842" r="6"/><circle cx="229" cy="804" r="5"/><circle cx="295" cy="844" r="5"/><circle cx="379" cy="840" r="5"/><circle cx="400" cy="825" r="4"/><circle cx="540" cy="850" r="6"/><circle cx="606" cy="868" r="6"/><circle cx="650" cy="850" r="6"/><circle cx="739" cy="808" r="5"/><circle cx="843" cy="802" r="5"/><circle cx="941" cy="857" r="6"/><circle cx="1035" cy="806" r="6"/><circle cx="1116" cy="821" r="5"/><circle cx="1122" cy="808" r="6"/><circle cx="1220" cy="849" r="5"/><circle cx="1289" cy="841" r="6"/><circle cx="1413" cy="825" r="6"/><circle cx="1460" cy="826" r="4"/><circle cx="1561" cy="876" r="4"/><circle cx="1666" cy="836" r="4"/><circle cx="1708" cy="841" r="6"/><circle cx="1797" cy="823" r="4"/><circle cx="1854" cy="806" r="4"/><circle cx="1997" cy="839" r="4"/><circle cx="2012" cy="810" r="5"/><circle cx="2106" cy="842" r="5"/><circle cx="2220" cy="841" r="4"/><circle cx="2246" cy="821" r="6"/><circle cx="2348" cy="833" r="4"/><circle cx="2465" cy="852" r="5"/><circle cx="2497" cy="834" r="5"/><circle cx="10" cy="883" r="6"/><circle cx="138" cy="891" r="6"/><circle cx="161" cy="915" r="5"/><circle cx="279" cy="932" r="5"/><circle cx="350" cy="893" r="4"/><circle cx="405" cy="942" r="6"/><circle cx="555" cy="912" r="4"/><circle cx="608" cy="896" r="6"/><circle cx="697" cy="939" r="4"/><circle cx="743" cy="898" r="4"/><circle cx="806" cy="927" r="4"/><circle cx="917" cy="902" r="5"/><circle cx="976" cy="912" r="6"/><circle cx="1092" cy="957" r="5"/><circle cx="1166" cy="913" r="5"/><circle cx="1257" cy="955" r="4"/><circle cx="1354" cy="881" r="4"/><circle cx="1423" cy="960" r="4"/><circle cx="1472" cy="889" r="5"/><circle cx="1526" cy="942" r="5"/><circle cx="1604" cy="923" r="4"/><circle cx="1699" cy="885" r="6"/><circle cx="1798" cy="952" r="4"/><circle cx="1913" cy="936" r="5"/><circle cx="1998" cy="956" r="6"/><circle cx="2072" cy="892" r="6"/><circle cx="2105" cy="928" r="6"/><circle cx="2196" cy="914" r="5"/><circle cx="2285" cy="923" r="6"/><circle cx="2333" cy="943" r="6"/><circle cx="2431" cy="897" r="5"/><circle cx="2519" cy="916" r="6"/><circle cx="78" cy="1027" r="5"/><circle cx="105" cy="1008" r="5"/><circle cx="227" cy="1031" r="5"/><circle cx="276" cy="1035" r="6"/><circle cx="397" cy="1031" r="4"/><circle cx="402" cy="1033" r="4"/><circle cx="483" cy="1020" r="5"/><circle cx="611" cy="1015" r="4"/><circle cx="719" cy="1016" r="5"/><circle cx="754" cy="1011" r="5"/><circle cx="830" cy="981" r="6"/><circle cx="913" cy="981" r="4"/><circle cx="1020" cy="980" r="5"/><circle cx="1095" cy="986" r="4"/><circle cx="1199" cy="1019" r="4"/><circle cx="1277" cy="1023" r="5"/><circle cx="1302" cy="972" r="5"/><circle cx="1410" cy="1033" r="4"/><circle cx="1503" cy="1033" r="6"/><circle cx="1566" cy="1007" r="6"/><circle cx="1648" cy="975" r="4"/><circle cx="1705" cy="978" r="6"/><circle cx="1782" cy="1004" r="4"/><circle cx="1844" cy="997" r="5"/><circle cx="1972" cy="982" r="4"/><circle cx="2004" cy="970" r="5"/><circle cx="2081" cy="992" r="4"/><circle cx="2168" cy="965" r="6"/><circle cx="2252" cy="1016" r="5"/><circle cx="2324" cy="1016" r="5"/><circle cx="2409" cy="1000" r="5"/><circle cx="2501" cy="983" r="4"/><circle cx="47" cy="1060" r="5"/><circle cx="115" cy="1112" r="6"/><circle cx="213" cy="1083" r="5"/><circle cx="310" cy="1099" r="5"/><circle cx="351" cy="1112" r="5"/><circle cx="439" cy="1093" r="5"/><circle cx="482" cy="1083" r="4"/><circle cx="631" cy="1096" r="5"/><circle cx="691" cy="1092" r="6"/><circle cx="772" cy="1098" r="5"/><circle cx="855" cy="1117" r="5"/><circle cx="942" cy="1052" r="5"/><circle cx="1038" cy="1069" r="6"/><circle cx="1084" cy="1062" r="5"/><circle cx="1177" cy="1094" r="4"/><circle cx="1243" cy="1081" r="5"/><circle cx="1357" cy="1046" r="4"/><circle cx="1429" cy="1089" r="5"/><circle cx="1443" cy="1048" r="6"/><circle cx="1570" cy="1047" r="6"/><circle cx="1632" cy="1079" r="5"/><circle cx="1714" cy="1070" r="4"/><circle cx="1761" cy="1073" r="6"/><circle cx="1855" cy="1119" r="5"/><circle cx="1998" cy="1068" r="5"/><circle cx="2035" cy="1063" r="5"/><circle cx="2094" cy="1062" r="4"/><circle cx="2188" cy="1059" r="4"/><circle cx="2293" cy="1099" r="4"/><circle cx="2387" cy="1112" r="4"/><circle cx="2452" cy="1059" r="5"/><circle cx="2489" cy="1110" r="4"/><circle cx="55" cy="1158" r="4"/><circle cx="112" cy="1156" r="5"/><circle cx="194" cy="1179" r="5"/><circle cx="254" cy="1162" r="4"/><circle cx="325" cy="1161" r="4"/><circle cx="446" cy="1158" r="4"/><circle cx="559" cy="1197" r="5"/><circle cx="607" cy="1125" r="5"/><circle cx="676" cy="1183" r="5"/><circle cx="729" cy="1127" r="4"/><circle cx="862" cy="1135" r="6"/><circle cx="882" cy="1149" r="5"/><circle cx="995" cy="1137" r="5"/><circle cx="1110" cy="1122" r="5"/><circle cx="1179" cy="1148" r="5"/><circle cx="1258" cy="1168" r="4"/><circle cx="1360" cy="1152" r="6"/><circle cx="1438" cy="1143" r="5"/><circle cx="1519" cy="1159" r="6"/><circle cx="1577" cy="1199" r="4"/><circle cx="1608" cy="1187" r="5"/><circle cx="1715" cy="1148" r="4"/><circle cx="1783" cy="1178" r="4"/><circle cx="1859" cy="1185" r="6"/><circle cx="1928" cy="1146" r="6"/><circle cx="2059" cy="1159" r="5"/><circle cx="2127" cy="1200" r="5"/><circle cx="2210" cy="1182" r="6"/><circle cx="2292" cy="1136" r="4"/><circle cx="2362" cy="1172" r="5"/><circle cx="2444" cy="1193" r="4"/><circle cx="2532" cy="1145" r="5"/><circle cx="50" cy="1256" r="6"/><circle cx="137" cy="1239" r="6"/><circle cx="235" cy="1221" r="4"/><circle cx="256" cy="1219" r="5"/><circle cx="373" cy="1226" r="6"/><circle cx="410" cy="1273" r="5"/><circle cx="543" cy="1229" r="6"/><circle cx="569" cy="1258" r="5"/><circle cx="697" cy="1227" r="5"/><circle cx="729" cy="1209" r="5"/><circle cx="803" cy="1226" r="5"/><circle cx="883" cy="1201" r="6"/><circle cx="994" cy="1227" r="6"/><circle cx="1061" cy="1267" r="4"/><circle cx="1151" cy="1212" r="5"/><circle cx="1232" cy="1237" r="6"/><circle cx="1350" cy="1218" r="5"/><circle cx="1370" cy="1231" r="4"/><circle cx="1481" cy="1213" r="4"/><circle cx="1568" cy="1252" r="6"/><circle cx="1661" cy="1210" r="5"/><circle cx="1744" cy="1240" r="5"/><circle cx="1797" cy="1252" r="6"/><circle cx="1854" cy="1248" r="5"/><circle cx="1989" cy="1213" r="4"/><circle cx="2076" cy="1257" r="6"/><circle cx="2130" cy="1227" r="4"/><circle cx="2202" cy="1243" r="5"/><circle cx="2305" cy="1233" r="4"/><circle cx="2367" cy="1235" r="5"/><circle cx="2441" cy="1278" r="5"/><circle cx="2544" cy="1273" r="5"/><circle cx="44" cy="1293" r="6"/><circle cx="99" cy="1309" r="6"/><circle cx="235" cy="1348" r="6"/><circle cx="303" cy="1319" r="4"/><circle cx="352" cy="1321" r="6"/><circle cx="427" cy="1354" r="5"/><circle cx="507" cy="1282" r="4"/><circle cx="578" cy="1329" r="4"/><circle cx="655" cy="1310" r="4"/><circle cx="745" cy="1288" r="5"/><circle cx="834" cy="1308" r="5"/><circle cx="926" cy="1348" r="6"/><circle cx="980" cy="1285" r="5"/><circle cx="1063" cy="1326" r="6"/><circle cx="1155" cy="1302" r="4"/><circle cx="1209" cy="1341" r="4"/><circle cx="1321" cy="1347" r="5"/><circle cx="1433" cy="1328" r="5"/><circle cx="1498" cy="1341" r="5"/><circle cx="1571" cy="1291" r="5"/><circle cx="1675" cy="1326" r="6"/><circle cx="1746" cy="1342" r="6"/><circle cx="1775" cy="1341" r="4"/><circle cx="1860" cy="1355" r="6"/><circle cx="1995" cy="1287" r="5"/><circle cx="2067" cy="1282" r="5"/><circle cx="2111" cy="1322" r="5"/><circle cx="2207" cy="1331" r="5"/><circle cx="2315" cy="1343" r="4"/><circle cx="2322" cy="1288" r="6"/><circle cx="2461" cy="1303" r="4"/><circle cx="2524" cy="1288" r="5"/><circle cx="57" cy="1391" r="4"/><circle cx="130" cy="1417" r="5"/><circle cx="207" cy="1364" r="4"/><circle cx="309" cy="1385" r="6"/><circle cx="398" cy="1392" r="5"/><circle cx="448" cy="1375" r="5"/><circle cx="484" cy="1392" r="5"/><circle cx="566" cy="1399" r="6"/><circle cx="681" cy="1398" r="4"/><circle cx="772" cy="1367" r="5"/><circle cx="808" cy="1363" r="6"/><circle cx="920" cy="1399" r="5"/><circle cx="1034" cy="1366" r="5"/><circle cx="1090" cy="1369" r="6"/><circle cx="1199" cy="1436" r="5"/><circle cx="1199" cy="-4" r="5"/><circle cx="1203" cy="1397" r="6"/><circle cx="1339" cy="1433" r="6"/><circle cx="1366" cy="1392" r="4"/><circle cx="1478" cy="1408" r="5"/><circle cx="1525" cy="1393" r="6"/><circle cx="1620" cy="1403" r="6"/><circle cx="1700" cy="1396" r="4"/><circle cx="1808" cy="1389" r="4"/><circle cx="1864" cy="1401" r="5"/><circle cx="1944" cy="1431" r="6"/><circle cx="2007" cy="1397" r="4"/><circle cx="2108" cy="1403" r="6"/><circle cx="2207" cy="1432" r="6"/><circle cx="2247" cy="1375" r="5"/><circle cx="2359" cy="1428" r="5"/><circle cx="2412" cy="1376" r="4"/><circle cx="2530" cy="1392" r="5"/><path stroke="#fff" d="M21 49L131 4M21 49L-47 11M21 49L72 91M21 49L57 -49M21 49L-30 -48M2581 49L2513 11M2581 49L2530 -48M21 1489L57 1391M21 1489L-30 1392M2581 1489L2530 1392M131 4L223 35M131 4L72 91M131 4L57 -49M131 4L130 -23M131 1444L57 1391M131 1444L130 1417M223 35L295 8M223 35L221 109M223 35L302 103M223 35L130 -23M223 1475L130 1417M295 8L302 103M295 8L309 -55M295 1448L309 1385M391 38L439 31M391 38L302 103M391 38L392 81M391 38L430 114M439 31L510 49M439 31L392 81M439 31L430 114M439 31L484 -48M439 1471L484 1392M510 49L577 11M510 49L505 128M510 49L577 104M510 49L566 -41M510 1489L566 1399M577 11L682 24M577 11L577 104M577 11L566 -41M577 1451L566 1399M682 24L745 8M682 24L715 86M682 24L727 82M682 24L681 -42M682 1464L681 1398M745 8L715 86M745 8L727 82M745 8L681 -42M745 8L772 -73M745 1448L681 1398M745 1448L772 1367M829 54L942 41M829 54L715 86M829 54L727 82M829 54L816 138M829 54L932 86M942 41L962 74M942 41L932 86M942 41L920 -41M942 1481L920 1399M962 74L1058 18M962 74L932 86M962 74L1002 123M962 74L1041 100M1058 18L1153 32M1058 18L1041 100M1058 18L1034 -74M1058 18L1090 -71M1058 1458L1034 1366M1058 1458L1090 1369M1153 32L1173 118M1153 32L1199 -4M1153 32L1203 -43M1153 1472L1199 1436M1153 1472L1203 1397M1253 54L1332 13M1253 54L1276 110M1253 54L1199 -4M1253 54L1203 -43M1253 1494L1199 1436M1253 1494L1203 1397M1332 13L1368 14M1332 13L1363 86M1332 13L1339 -7M1332 13L1366 -48M1332 1453L1339 1433M1332 1453L1366 1392M1368 14L1363 86M1368 14L1321 -93M1368 14L1339 -7M1368 14L1366 -48M1368 1454L1321 1347M1368 1454L1339 1433M1368 1454L1366 1392M1517 23L1542 54M1517 23L1498 -99M1517 23L1478 -32M1517 23L1525 -47M1517 23L1620 -37M1517 1463L1498 1341M1517 1463L1478 1408M1517 1463L1525 1393M1517 1463L1620 1403M1542 54L1622 75M1542 54L1592 122M1542 54L1478 -32M1542 54L1525 -47M1542 1494L1478 1408M1542 1494L1525 1393M1622 75L1592 122M1622 75L1674 110M1622 75L1689 132M1622 75L1620 -37M1622 1515L1620 1403M1744 58L1773 53M1744 58L1674 110M1744 58L1689 132M1744 58L1757 164M1744 58L1700 -44M1744 1498L1700 1396M1773 53L1808 -51M1773 1493L1808 1389M1900 69L1984 41M1900 69L1893 131M1900 69L1993 96M1900 69L1944 -9M1900 1509L1944 1431M1984 41L2027 33M1984 41L1993 96M1984 41L1944 -9M1984 41L2007 -43M1984 1481L1944 1431M1984 1481L2007 1397M2027 33L1993 96M2027 33L1944 -9M2027 33L2007 -43M2027 33L2108 -37M2027 1473L1944 1431M2027 1473L2007 1397M2027 1473L2108 1403M2136 19L2180 54M2136 19L2103 90M2136 19L2212 120M2136 19L2108 -37M2136 19L2207 -8M2136 1459L2108 1403M2136 1459L2207 1432M2180 54L2103 90M2180 54L2212 120M2180 54L2248 127M2180 54L2207 -8M2180 1494L2207 1432M2282 19L2369 53M2282 19L2362 99M2282 19L2207 -8M2282 19L2247 -65M2282 19L2359 -12M2282 1459L2207 1432M2282 1459L2247 1375M2282 1459L2359 1428M2369 53L2432 57M2369 53L2362 99M2369 53L2463 105M2369 53L2359 -12M2369 1493L2359 1428M2432 57L2513 11M2432 57L2362 99M2432 57L2463 105M2432 57L2359 -12M2432 1497L2359 1428M2513 11L2463 105M2513 11L2530 -48M2513 1451L2530 1392M72 91L120 159M72 91L17 187M72 91L111 166M120 159L221 109M120 159L17 187M120 159L111 166M221 109L302 103M221 109L111 166M221 109L206 214M302 103L392 81M392 81L430 114M392 81L411 211M430 114L505 128M430 114L411 211M505 128L577 104M505 128L555 213M715 86L727 82M715 86L816 138M816 138L765 202M816 138L818 199M816 138L880 192M932 86L1002 123M1002 123L1041 100M1002 123L1006 236M1002 123L1049 222M1173 118L1147 189M1173 118L1219 175M1276 110L1346 159M1276 110L1219 175M1276 110L1319 184M1346 159L1363 86M1346 159L1443 126M1346 159L1319 184M1346 159L1395 221M1363 86L1443 126M1363 86L1339 -7M1363 1526L1339 1433M1443 126L1516 170M1443 126L1477 241M1592 122L1674 110M1592 122L1516 170M1592 122L1588 199M1674 110L1689 132M1674 110L1757 164M1689 132L1663 220M1689 132L1757 164M1837 157L1893 131M1837 157L1757 164M1837 157L1836 221M1837 157L1905 196M1837 157L1834 253M1893 131L1905 196M1893 131L1969 189M1993 96L2062 157M1993 96L1969 189M2062 157L2103 90M2062 157L2038 202M2062 157L2082 172M2103 90L2082 172M2212 120L2248 127M2248 127L2231 221M2248 127L2270 228M2362 99L2463 105M2362 99L2359 -12M2362 1539L2359 1428M2463 105L2520 158M2520 158L2577 187M2520 158L2507 191M-40 158L17 187M17 187L111 166M17 187L-53 191M2577 187L2507 191M111 166L206 214M206 214L261 231M206 214L149 282M206 214L173 286M261 231L352 236M261 231L173 286M261 231L288 290M261 231L321 275M352 236L411 211M352 236L288 290M352 236L321 275M411 211L469 266M555 213L574 215M574 215L693 217M574 215L509 307M693 217L765 202M693 217L701 308M765 202L818 199M765 202L779 285M818 199L880 192M818 199L779 285M818 199L868 275M880 192L868 275M1006 236L1049 222M1006 236L963 287M1006 236L1101 262M1006 236L1004 321M1049 222L1147 189M1049 222L963 287M1049 222L1101 262M1147 189L1219 175M1147 189L1101 262M1147 189L1187 269M1219 175L1319 184M1219 175L1187 269M1319 184L1395 221M1395 221L1359 282M1395 221L1364 284M1395 221L1477 241M1516 170L1588 199M1516 170L1477 241M1516 170L1582 254M1588 199L1663 220M1588 199L1582 254M1588 199L1604 264M1663 220L1582 254M1663 220L1604 264M1757 164L1836 221M1836 221L1905 196M1836 221L1834 253M1836 221L1869 285M1905 196L1969 189M1905 196L1957 258M1969 189L2038 202M1969 189L1957 258M2038 202L2082 172M2038 202L1957 258M2038 202L2071 302M2231 221L2270 228M2231 221L2158 261M2231 221L2186 292M2231 221L2268 311M2270 228L2334 236M2270 228L2268 311M2334 236L2421 203M2334 236L2392 298M2421 203L2507 191M2421 203L2451 263M2507 191L2451 263M29 309L12 375M29 309L-40 337M2589 309L2520 337M149 282L173 286M149 282L159 378M149 282L166 325M173 286L159 378M173 286L166 325M288 290L321 275M288 290L166 325M288 290L288 379M469 266L509 307M469 266L399 353M469 266L447 338M469 266L549 332M509 307L606 319M509 307L447 338M509 307L549 332M606 319L701 308M606 319L549 332M606 319L605 376M606 319L668 382M701 308L779 285M701 308L668 382M701 308L722 368M779 285L868 275M779 285L832 349M868 275L910 302M868 275L832 349M910 302L963 287M910 302L832 349M910 302L910 353M910 302L1004 321M963 287L910 353M963 287L1004 321M1101 262L1187 269M1101 262L1151 332M1187 269L1272 295M1187 269L1151 332M1272 295L1359 282M1272 295L1364 284M1272 295L1278 383M1359 282L1364 284M1359 282L1330 360M1359 282L1394 360M1364 284L1330 360M1364 284L1394 360M1477 241L1446 357M1582 254L1604 264M1582 254L1634 326M1604 264L1634 326M1747 301L1834 253M1747 301L1634 326M1747 301L1745 323M1747 301L1785 369M1834 253L1869 285M1834 253L1745 323M1869 285L1957 258M1869 285L1878 363M1957 258L2042 333M2071 302L2158 261M2071 302L2042 333M2071 302L2126 358M2158 261L2186 292M2186 292L2268 311M2186 292L2208 378M2186 292L2261 353M2268 311L2208 378M2268 311L2261 353M2392 298L2451 263M2392 298L2485 305M2392 298L2344 370M2392 298L2411 365M2451 263L2485 305M2451 263L2520 337M2485 305L2572 375M2485 305L2411 365M2485 305L2520 337M-75 305L12 375M12 375L-40 337M12 375L20 451M12 375L5 481M2572 375L2520 337M159 378L166 325M159 378L124 459M159 378L178 458M288 379L399 353M288 379L288 403M288 379L379 437M288 379L288 493M399 353L447 338M399 353L379 437M399 353L427 427M447 338L549 332M447 338L427 427M549 332L605 376M605 376L668 382M605 376L596 458M668 382L722 368M668 382L708 454M722 368L832 349M722 368L708 454M722 368L735 472M832 349L910 353M910 353L1004 321M910 353L966 439M1004 321L1063 370M1063 370L1151 332M1063 370L1048 432M1151 332L1195 443M1151 332L1255 400M1278 383L1330 360M1278 383L1195 443M1278 383L1255 400M1278 383L1286 444M1330 360L1394 360M1330 360L1255 400M1394 360L1446 357M1394 360L1403 440M1446 357L1403 440M1446 357L1505 434M1578 399L1634 326M1578 399L1505 434M1578 399L1523 444M1578 399L1666 474M1634 326L1700 408M1745 323L1785 369M1745 323L1700 408M1785 369L1878 363M1785 369L1700 408M1785 369L1804 442M1878 363L1975 378M1878 363L1804 442M1878 363L1904 451M1975 378L2042 333M1975 378L1904 451M1975 378L1994 411M1975 378L2007 497M2042 333L2126 358M2042 333L1994 411M2126 358L2134 411M2208 378L2261 353M2208 378L2134 411M2208 378L2173 439M2261 353L2344 370M2261 353L2278 454M2344 370L2411 365M2344 370L2278 454M2344 370L2394 448M2411 365L2394 448M2411 365L2437 447M20 451L-70 466M20 451L5 481M20 451L-58 496M2580 451L2490 466M2580 451L2502 496M124 459L178 458M124 459L126 534M124 459L209 508M124 459L135 563M178 458L126 534M178 458L209 508M288 403L288 493M379 437L427 427M379 437L288 493M379 437L367 501M427 427L502 430M427 427L367 501M502 430L596 458M596 458L708 454M596 458L609 513M596 458L641 513M708 454L735 472M708 454L641 513M735 472L641 513M735 472L792 554M862 458L896 462M862 458L966 439M862 458L792 554M862 458L819 533M862 458L902 535M896 462L966 439M896 462L902 535M966 439L1048 432M1048 432L1034 543M1048 432L1050 526M1195 443L1255 400M1195 443L1286 444M1195 443L1199 539M1255 400L1286 444M1286 444L1308 543M1403 440L1388 508M1403 440L1447 523M1505 434L1523 444M1505 434L1447 523M1505 434L1548 514M1523 444L1548 514M1666 474L1700 408M1666 474L1651 548M1666 474L1759 497M1804 442L1759 497M1804 442L1801 494M1904 451L1801 494M1904 451L1906 515M1904 451L1943 526M1994 411L2045 478M1994 411L2007 497M2045 478L2134 411M2045 478L2007 497M2134 411L2173 439M2173 439L2184 504M2173 439L2255 489M2278 454L2184 504M2278 454L2255 489M2278 454L2369 496M2394 448L2437 447M2394 448L2369 496M2394 448L2409 507M2437 447L2490 466M2437 447L2369 496M2437 447L2409 507M2490 466L2565 481M2490 466L2409 507M2490 466L2502 496M-70 466L5 481M5 481L-58 496M5 481L54 586M2565 481L2502 496M126 534L209 508M126 534L54 586M126 534L135 563M209 508L288 493M209 508L135 563M288 493L367 501M367 501L415 538M367 501L376 568M415 538L505 541M415 538L376 568M415 538L452 608M415 538L436 645M505 541L452 608M505 541L553 569M505 541L574 597M505 541L501 641M609 513L641 513M609 513L553 569M609 513L574 597M792 554L819 533M792 554L774 568M792 554L835 613M819 533L902 535M819 533L774 568M819 533L835 613M902 535L902 617M1034 543L1050 526M1034 543L1022 612M1034 543L1058 615M1050 526L1022 612M1050 526L1058 615M1199 539L1259 552M1199 539L1181 590M1199 539L1268 583M1259 552L1308 543M1259 552L1181 590M1259 552L1268 583M1259 552L1325 576M1308 543L1388 508M1308 543L1268 583M1308 543L1325 576M1388 508L1447 523M1388 508L1325 576M1388 508L1413 579M1447 523L1413 579M1447 523L1490 588M1548 514L1552 574M1651 548L1759 497M1651 548L1552 574M1651 548L1661 617M1651 548L1748 587M1759 497L1801 494M1759 497L1748 587M1801 494L1906 515M1906 515L1943 526M1906 515L2007 497M1906 515L1881 562M1943 526L2007 497M1943 526L1881 562M1943 526L1947 623M2151 545L2184 504M2151 545L2255 489M2151 545L2070 607M2151 545L2105 617M2151 545L2204 605M2184 504L2255 489M2184 504L2204 605M2369 496L2409 507M2369 496L2387 566M2409 507L2387 566M2502 496L2489 588M54 586L135 563M54 586L32 646M220 631L292 604M220 631L236 707M220 631L258 656M292 604L376 568M292 604L258 656M292 604L337 704M376 568L452 608M376 568L436 645M452 608L436 645M452 608L501 641M553 569L574 597M553 569L501 641M574 597L501 641M574 597L611 691M715 624L774 568M715 624L706 694M774 568L835 613M835 613L902 617M835 613L836 661M902 617L836 661M902 617L933 668M902 617L920 721M1022 612L1058 615M1022 612L1004 653M1058 615L1004 653M1058 615L1051 705M1181 590L1195 666M1181 590L1224 642M1268 583L1325 576M1268 583L1224 642M1325 576L1413 579M1413 579L1490 588M1413 579L1399 661M1490 588L1552 574M1490 588L1498 684M1490 588L1560 646M1552 574L1560 646M1661 617L1748 587M1661 617L1560 646M1661 617L1658 713M1661 617L1713 680M1748 587L1803 618M1748 587L1797 641M1803 618L1881 562M1803 618L1713 680M1803 618L1797 641M1881 562L1947 623M1947 623L1894 677M1947 623L1932 705M1947 623L2004 680M2070 607L2105 617M2070 607L2004 680M2105 617L2204 605M2105 617L2115 712M2105 617L2178 681M2204 605L2300 615M2204 605L2178 681M2300 615L2387 566M2300 615L2271 678M2300 615L2381 680M2387 566L2406 628M2406 628L2489 588M2406 628L2381 680M2406 628L2469 703M2406 628L2485 642M2489 588L2485 642M32 646L99 719M32 646L10 740M32 646L88 737M32 646L-13 731M2592 646L2547 731M99 719L10 740M99 719L88 737M99 719L180 725M236 707L258 656M236 707L180 725M236 707L260 745M236 707L229 804M258 656L337 704M258 656L260 745M337 704L260 745M337 704L372 726M436 645L501 641M436 645L372 726M611 691L706 694M611 691L559 773M611 691L639 778M611 691L682 751M706 694L789 712M706 694L682 751M789 712L836 661M789 712L796 739M789 712L831 747M789 712L843 802M836 661L796 739M836 661L831 747M933 668L1004 653M933 668L920 721M933 668L965 723M1004 653L1051 705M1004 653L965 723M1051 705L965 723M1051 705L1057 751M1051 705L1138 723M1195 666L1224 642M1195 666L1138 723M1195 666L1233 726M1224 642L1233 726M1316 701L1399 661M1316 701L1233 726M1316 701L1331 771M1399 661L1498 684M1399 661L1395 755M1399 661L1441 735M1498 684L1560 646M1498 684L1441 735M1498 684L1567 747M1560 646L1567 747M1658 713L1713 680M1658 713L1567 747M1658 713L1614 747M1658 713L1724 741M1713 680L1797 641M1713 680L1724 741M1797 641L1894 677M1894 677L1932 705M1894 677L2004 680M1894 677L1890 727M1932 705L2004 680M1932 705L1890 727M1932 705L1985 762M2004 680L1985 762M2115 712L2178 681M2115 712L2153 788M2178 681L2271 678M2178 681L2194 757M2271 678L2381 680M2271 678L2251 773M2381 680L2469 703M2381 680L2379 774M2469 703L2485 642M2469 703L2477 784M2469 703L2547 731M10 740L88 737M10 740L-13 731M10 740L1 837M2570 740L2547 731M88 737L180 725M88 737L-13 731M2648 737L2547 731M180 725L260 745M180 725L229 804M260 745L229 804M372 726L443 769M372 726L400 825M443 769L379 840M443 769L400 825M559 773L639 778M559 773L540 850M639 778L682 751M639 778L606 868M639 778L650 850M682 751L739 808M796 739L831 747M796 739L739 808M796 739L843 802M831 747L920 721M831 747L843 802M920 721L965 723M965 723L1035 806M1057 751L1138 723M1057 751L1035 806M1057 751L1116 821M1057 751L1122 808M1138 723L1233 726M1138 723L1122 808M1233 726L1331 771M1331 771L1395 755M1331 771L1289 841M1395 755L1441 735M1395 755L1413 825M1395 755L1460 826M1441 735L1413 825M1441 735L1460 826M1567 747L1614 747M1614 747L1666 836M1724 741L1821 775M1724 741L1708 841M1724 741L1797 823M1821 775L1890 727M1821 775L1797 823M1821 775L1854 806M1890 727L1854 806M1985 762L2047 795M1985 762L1997 839M1985 762L2012 810M2047 795L1997 839M2047 795L2012 810M2047 795L2106 842M2153 788L2194 757M2153 788L2106 842M2153 788L2220 841M2194 757L2251 773M2194 757L2220 841M2194 757L2246 821M2251 773L2379 774M2251 773L2220 841M2251 773L2246 821M2379 774L2477 784M2379 774L2348 833M2477 784L2547 731M2477 784L2465 852M2477 784L2497 834M1 837L-63 834M1 837L10 883M2561 837L2497 834M148 842L229 804M148 842L138 891M148 842L161 915M229 804L295 844M295 844L379 840M295 844L279 932M295 844L350 893M379 840L400 825M379 840L350 893M379 840L405 942M400 825L350 893M540 850L606 868M540 850L650 850M540 850L555 912M540 850L608 896M606 868L650 850M606 868L555 912M606 868L608 896M650 850L739 808M650 850L608 896M739 808L843 802M739 808L743 898M843 802L941 857M941 857L1035 806M941 857L917 902M941 857L976 912M1035 806L1116 821M1035 806L1122 808M1116 821L1122 808M1116 821L1220 849M1116 821L1166 913M1122 808L1220 849M1220 849L1289 841M1220 849L1166 913M1220 849L1257 955M1289 841L1354 881M1413 825L1460 826M1413 825L1354 881M1413 825L1472 889M1460 826L1472 889M1561 876L1472 889M1561 876L1526 942M1561 876L1604 923M1666 836L1708 841M1666 836L1699 885M1708 841L1797 823M1708 841L1699 885M1797 823L1854 806M1997 839L2012 810M1997 839L2072 892M2012 810L2106 842M2106 842L2072 892M2106 842L2105 928M2220 841L2246 821M2220 841L2196 914M2246 821L2196 914M2246 821L2285 923M2348 833L2431 897M2465 852L2497 834M2465 852L2570 883M2465 852L2431 897M2465 852L2519 916M-95 852L10 883M2497 834L2570 883M2497 834L2519 916M-63 834L10 883M10 883L138 891M10 883L-41 916M2570 883L2519 916M138 891L161 915M138 891L78 1027M138 891L105 1008M161 915L105 1008M279 932L350 893M279 932L227 1031M279 932L276 1035M350 893L405 942M405 942L397 1031M405 942L402 1033M405 942L483 1020M555 912L608 896M608 896L697 939M697 939L743 898M697 939L806 927M697 939L719 1016M697 939L754 1011M743 898L806 927M806 927L917 902M806 927L830 981M917 902L976 912M917 902L830 981M917 902L913 981M976 912L913 981M976 912L1020 980M1092 957L1166 913M1092 957L1020 980M1092 957L1095 986M1092 957L1084 1062M1166 913L1257 955M1166 913L1095 986M1257 955L1199 1019M1257 955L1277 1023M1257 955L1302 972M1354 881L1302 972M1423 960L1472 889M1423 960L1410 1033M1472 889L1526 942M1526 942L1604 923M1526 942L1503 1033M1526 942L1566 1007M1604 923L1699 885M1604 923L1566 1007M1604 923L1648 975M1699 885L1648 975M1699 885L1705 978M1798 952L1913 936M1798 952L1705 978M1798 952L1782 1004M1798 952L1844 997M1913 936L1998 956M1913 936L1844 997M1913 936L1972 982M1913 936L2004 970M1998 956L2072 892M1998 956L1972 982M1998 956L2004 970M1998 956L2081 992M2072 892L2105 928M2072 892L2004 970M2105 928L2196 914M2105 928L2081 992M2105 928L2168 965M2196 914L2285 923M2196 914L2168 965M2285 923L2333 943M2285 923L2252 1016M2285 923L2324 1016M2333 943L2431 897M2333 943L2252 1016M2333 943L2324 1016M2333 943L2409 1000M2431 897L2519 916M2431 897L2409 1000M2519 916L2501 983M78 1027L105 1008M78 1027L47 1060M78 1027L115 1112M105 1008L47 1060M227 1031L276 1035M227 1031L213 1083M276 1035L213 1083M276 1035L310 1099M276 1035L351 1112M397 1031L402 1033M397 1031L483 1020M397 1031L351 1112M397 1031L439 1093M402 1033L483 1020M402 1033L439 1093M483 1020L439 1093M483 1020L482 1083M611 1015L631 1096M611 1015L607 1125M719 1016L754 1011M719 1016L830 981M719 1016L691 1092M754 1011L830 981M754 1011L772 1098M830 981L913 981M913 981L942 1052M1020 980L1095 986M1020 980L942 1052M1020 980L1038 1069M1095 986L1084 1062M1199 1019L1277 1023M1199 1019L1177 1094M1199 1019L1243 1081M1277 1023L1302 972M1277 1023L1243 1081M1277 1023L1357 1046M1302 972L1357 1046M1410 1033L1357 1046M1410 1033L1429 1089M1410 1033L1443 1048M1503 1033L1566 1007M1503 1033L1429 1089M1503 1033L1443 1048M1503 1033L1570 1047M1566 1007L1648 975M1566 1007L1570 1047M1648 975L1705 978M1648 975L1570 1047M1705 978L1782 1004M1705 978L1714 1070M1782 1004L1844 997M1782 1004L1714 1070M1782 1004L1761 1073M1844 997L1761 1073M1844 997L1855 1119M1972 982L2004 970M1972 982L1998 1068M1972 982L2035 1063M2004 970L2081 992M2081 992L2168 965M2081 992L2094 1062M2168 965L2252 1016M2168 965L2188 1059M2252 1016L2324 1016M2252 1016L2188 1059M2324 1016L2409 1000M2324 1016L2293 1099M2409 1000L2501 983M2409 1000L2452 1059M2501 983L2452 1059M47 1060L115 1112M47 1060L55 1158M47 1060L-28 1145M2607 1060L2532 1145M115 1112L213 1083M115 1112L55 1158M115 1112L112 1156M213 1083L310 1099M310 1099L351 1112M310 1099L254 1162M310 1099L325 1161M351 1112L325 1161M439 1093L482 1083M439 1093L446 1158M482 1083L446 1158M631 1096L691 1092M631 1096L607 1125M691 1092L772 1098M691 1092L676 1183M691 1092L729 1127M772 1098L855 1117M772 1098L729 1127M772 1098L862 1135M855 1117L862 1135M855 1117L882 1149M855 1117L883 1201M942 1052L1038 1069M942 1052L995 1137M1038 1069L1084 1062M1038 1069L995 1137M1038 1069L1110 1122M1084 1062L1177 1094M1084 1062L1110 1122M1177 1094L1243 1081M1177 1094L1110 1122M1177 1094L1179 1148M1243 1081L1179 1148M1243 1081L1258 1168M1357 1046L1443 1048M1429 1089L1443 1048M1429 1089L1360 1152M1429 1089L1438 1143M1443 1048L1438 1143M1570 1047L1632 1079M1632 1079L1714 1070M1714 1070L1761 1073M1714 1070L1715 1148M1761 1073L1855 1119M1761 1073L1715 1148M1855 1119L1783 1178M1855 1119L1859 1185M1855 1119L1928 1146M1998 1068L2035 1063M1998 1068L2094 1062M1998 1068L1928 1146M2035 1063L2094 1062M2035 1063L2059 1159M2094 1062L2188 1059M2293 1099L2387 1112M2293 1099L2292 1136M2387 1112L2452 1059M2387 1112L2292 1136M2387 1112L2362 1172M2387 1112L2444 1193M2452 1059L2489 1110M2452 1059L2532 1145M2489 1110L2532 1145M55 1158L112 1156M55 1158L-28 1145M2615 1158L2532 1145M112 1156L194 1179M112 1156L137 1239M194 1179L254 1162M194 1179L137 1239M194 1179L235 1221M194 1179L256 1219M254 1162L325 1161M254 1162L235 1221M254 1162L256 1219M325 1161L256 1219M325 1161L373 1226M446 1158L373 1226M446 1158L543 1229M559 1197L607 1125M559 1197L543 1229M559 1197L569 1258M559 1197L507 1282M607 1125L676 1183M676 1183L729 1127M676 1183L697 1227M676 1183L729 1209M729 1127L729 1209M862 1135L882 1149M862 1135L803 1226M862 1135L883 1201M882 1149L995 1137M882 1149L883 1201M995 1137L994 1227M1110 1122L1179 1148M1110 1122L1151 1212M1179 1148L1258 1168M1179 1148L1151 1212M1258 1168L1360 1152M1258 1168L1232 1237M1258 1168L1350 1218M1360 1152L1438 1143M1360 1152L1350 1218M1360 1152L1370 1231M1438 1143L1519 1159M1438 1143L1481 1213M1519 1159L1577 1199M1519 1159L1608 1187M1519 1159L1481 1213M1519 1159L1568 1252M1577 1199L1608 1187M1577 1199L1568 1252M1577 1199L1661 1210M1577 1199L1571 1291M1608 1187L1568 1252M1608 1187L1661 1210M1608 1187L1571 1291M1715 1148L1783 1178M1715 1148L1661 1210M1783 1178L1859 1185M1783 1178L1744 1240M1783 1178L1797 1252M1859 1185L1928 1146M1859 1185L1797 1252M1859 1185L1854 1248M1928 1146L1854 1248M1928 1146L1989 1213M2059 1159L2127 1200M2059 1159L1989 1213M2127 1200L2210 1182M2127 1200L2076 1257M2127 1200L2130 1227M2127 1200L2202 1243M2210 1182L2292 1136M2210 1182L2130 1227M2210 1182L2202 1243M2210 1182L2305 1233M2292 1136L2362 1172M2362 1172L2444 1193M2362 1172L2305 1233M2362 1172L2367 1235M2444 1193L2532 1145M2444 1193L2367 1235M2444 1193L2441 1278M50 1256L137 1239M50 1256L-16 1273M50 1256L44 1293M50 1256L99 1309M50 1256L-36 1288M2610 1256L2544 1273M2610 1256L2524 1288M137 1239L44 1293M137 1239L99 1309M235 1221L256 1219M256 1219L373 1226M373 1226L410 1273M410 1273L352 1321M410 1273L427 1354M410 1273L507 1282M410 1273L448 1375M543 1229L569 1258M543 1229L507 1282M543 1229L578 1329M569 1258L507 1282M569 1258L578 1329M569 1258L655 1310M697 1227L729 1209M697 1227L655 1310M697 1227L745 1288M729 1209L803 1226M729 1209L745 1288M803 1226L883 1201M803 1226L745 1288M803 1226L834 1308M883 1201L994 1227M994 1227L1061 1267M994 1227L980 1285M1061 1267L980 1285M1061 1267L1063 1326M1151 1212L1232 1237M1151 1212L1155 1302M1232 1237L1350 1218M1232 1237L1155 1302M1232 1237L1209 1341M1350 1218L1370 1231M1568 1252L1661 1210M1568 1252L1571 1291M1661 1210L1744 1240M1744 1240L1797 1252M1744 1240L1675 1326M1744 1240L1746 1342M1797 1252L1854 1248M1854 1248L1860 1355M1989 1213L1995 1287M1989 1213L2067 1282M2076 1257L2130 1227M2076 1257L1995 1287M2076 1257L2067 1282M2076 1257L2111 1322M2130 1227L2202 1243M2130 1227L2067 1282M2202 1243L2305 1233M2202 1243L2207 1331M2305 1233L2367 1235M2305 1233L2322 1288M2367 1235L2441 1278M2367 1235L2322 1288M2441 1278L2544 1273M2441 1278L2461 1303M2441 1278L2524 1288M2544 1273L2604 1293M2544 1273L2461 1303M2544 1273L2524 1288M-16 1273L44 1293M44 1293L99 1309M44 1293L-36 1288M2604 1293L2524 1288M99 1309L57 1391M99 1309L130 1417M235 1348L303 1319M235 1348L207 1364M235 1348L309 1385M303 1319L352 1321M303 1319L207 1364M303 1319L309 1385M352 1321L427 1354M352 1321L309 1385M352 1321L398 1392M427 1354L398 1392M427 1354L448 1375M427 1354L484 1392M507 1282L578 1329M578 1329L655 1310M578 1329L566 1399M655 1310L681 1398M745 1288L772 1367M745 1288L808 1363M834 1308L926 1348M834 1308L772 1367M834 1308L808 1363M834 1308L920 1399M926 1348L980 1285M926 1348L808 1363M926 1348L920 1399M926 1348L1034 1366M980 1285L1063 1326M980 1285L1034 1366M1063 1326L1155 1302M1063 1326L1034 1366M1063 1326L1090 1369M1155 1302L1209 1341M1155 1302L1090 1369M1209 1341L1199 1436M1209 1341L1203 1397M1321 1347L1433 1328M1321 1347L1339 1433M1321 1347L1366 1392M1433 1328L1498 1341M1433 1328L1366 1392M1433 1328L1478 1408M1498 1341L1571 1291M1498 1341L1478 1408M1498 1341L1525 1393M1571 1291L1675 1326M1675 1326L1746 1342M1675 1326L1620 1403M1675 1326L1700 1396M1746 1342L1775 1341M1746 1342L1700 1396M1746 1342L1808 1389M1775 1341L1860 1355M1775 1341L1700 1396M1775 1341L1808 1389M1775 1341L1864 1401M1860 1355L1808 1389M1860 1355L1864 1401M1995 1287L2067 1282M1995 1287L2111 1322M1995 1287L2007 1397M2067 1282L2111 1322M2111 1322L2207 1331M2111 1322L2108 1403M2207 1331L2247 1375M2315 1343L2322 1288M2315 1343L2247 1375M2315 1343L2412 1376M2322 1288L2247 1375M2322 1288L2412 1376M2461 1303L2524 1288M2461 1303L2412 1376M2461 1303L2530 1392M57 1391L130 1417M57 1391L-30 1392M2617 1391L2530 1392M130 1417L207 1364M309 1385L398 1392M398 1392L448 1375M398 1392L484 1392M448 1375L484 1392M448 1375L566 1399M484 1392L566 1399M681 1398L772 1367M772 1367L808 1363M808 1363L920 1399M1034 1366L1090 1369M1090 1369L1203 1397M1199 1436L1203 1397M1339 1433L1366 1392M1478 1408L1525 1393M1525 1393L1620 1403M1620 1403L1700 1396M1808 1389L1864 1401M1864 1401L1944 1431M1944 1431L2007 1397M2007 1397L2108 1403M2108 1403L2207 1432M2207 1432L2247 1375M2359 1428L2412 1376"/></svg>