<svg xmlns="http://www.w3.org/2000/svg" width="2560" height="1440" fill="#fff"><circle cx="13" cy="35" r="5"/><circle cx="95" cy="76" r="6"/><circle cx="230" cy="68" r="5"/><circle cx="267" cy="65" r="5"/><circle cx="396" cy="3" r="5"/><circle cx="396" cy="1443" r="5"/><circle cx="459" cy="14" r="6"/><circle cx="556" cy="6" r="4"/><circle cx="577" cy="58" r="5"/><circle cx="658" cy="38" r="5"/><circle cx="768" cy="51" r="5"/><circle cx="830" cy="38" r="4"/><circle cx="930" cy="50" r="4"/><circle cx="975" cy="35" r="5"/><circle cx="1046" cy="11" r="5"/><circle cx="1154" cy="16" r="6"/><circle cx="1255" cy="66" r="5"/><circle cx="1295" cy="41" r="5"/><circle cx="1381" cy="24" r="4"/><circle cx="1447" cy="38" r="5"/><circle cx="1539" cy="4" r="5"/><circle cx="1539" cy="1444" r="5"/><circle cx="1662" cy="27" r="6"/><circle cx="1740" cy="50" r="5"/><circle cx="1811" cy="37" r="5"/><circle cx="1880" cy="55" r="4"/><circle cx="1929" cy="32" r="6"/><circle cx="2041" cy="12" r="4"/><circle cx="2095" cy="50" r="6"/><circle cx="2193" cy="53" r="5"/><circle cx="2317" cy="68" r="4"/><circle cx="2322" cy="26" r="5"/><circle cx="2473" cy="9" r="4"/><circle cx="2498" cy="70" r="4"/><circle cx="66" cy="138" r="5"/><circle cx="125" cy="99" r="5"/><circle cx="237" cy="129" r="4"/><circle cx="313" cy="111" r="6"/><circle cx="394" cy="86" r="5"/><circle cx="450" cy="125" r="5"/><circle cx="541" cy="138" r="5"/><circle cx="636" cy="98" r="4"/><circle cx="652" cy="155" r="6"/><circle cx="728" cy="97" r="4"/><circle cx="822" cy="108" r="5"/><circle cx="955" cy="139" r="5"/><circle cx="1032" cy="150" r="5"/><circle cx="1109" cy="96" r="5"/><circle cx="1199" cy="122" r="4"/><circle cx="1236" cy="107" r="6"/><circle cx="1296" cy="155" r="5"/><circle cx="1407" cy="123" r="5"/><circle cx="1485" cy="85" r="5"/><circle cx="1573" cy="97" r="4"/><circle cx="1674" cy="157" r="6"/><circle cx="1736" cy="136" r="5"/><circle cx="1764" cy="147" r="5"/><circle cx="1904" cy="135" r="5"/><circle cx="1928" cy="118" r="5"/><circle cx="2036" cy="84" r="6"/><circle cx="2140" cy="130" r="4"/><circle cx="2191" cy="92" r="5"/><circle cx="2299" cy="119" r="5"/><circle cx="2368" cy="100" r="4"/><circle cx="2461" cy="127" r="4"/><circle cx="2505" cy="90" r="4"/><circle cx="11" cy="211" r="4"/><circle cx="117" cy="224" r="5"/><circle cx="192" cy="205" r="5"/><circle cx="248" cy="195" r="4"/><circle cx="377" cy="212" r="6"/><circle cx="431" cy="229" r="6"/><circle cx="540" cy="165" r="4"/><circle cx="613" cy="161" r="4"/><circle cx="715" cy="161" r="5"/><circle cx="749" cy="217" r="4"/><circle cx="839" cy="206" r="4"/><circle cx="945" cy="192" r="6"/><circle cx="988" cy="220" r="6"/><circle cx="1053" cy="177" r="5"/><circle cx="1123" cy="210" r="5"/><circle cx="1213" cy="225" r="5"/><circle cx="1346" cy="216" r="4"/><circle cx="1382" cy="207" r="6"/><circle cx="1466" cy="201" r="4"/><circle cx="1587" cy="179" r="5"/><circle cx="1673" cy="173" r="4"/><circle cx="1724" cy="179" r="4"/><circle cx="1775" cy="188" r="5"/><circle cx="1899" cy="202" r="4"/><circle cx="1921" cy="175" r="6"/><circle cx="2042" cy="216" r="4"/><circle cx="2126" cy="228" r="4"/><circle cx="2227" cy="238" r="5"/><circle cx="2301" cy="193" r="5"/><circle cx="2377" cy="175" r="5"/><circle cx="2474" cy="194" r="6"/><circle cx="2514" cy="194" r="4"/><circle cx="34" cy="244" r="5"/><circle cx="109" cy="318" r="5"/><circle cx="239" cy="307" r="4"/><circle cx="251" cy="252" r="4"/><circle cx="400" cy="317" r="5"/><circle cx="449" cy="300" r="6"/><circle cx="510" cy="308" r="5"/><circle cx="578" cy="272" r="5"/><circle cx="658" cy="271" r="5"/><circle cx="742" cy="265" r="5"/><circle cx="859" cy="247" r="5"/><circle cx="942" cy="243" r="6"/><circle cx="1009" cy="314" r="5"/><circle cx="1064" cy="246" r="5"/><circle cx="1178" cy="285" r="5"/><circle cx="1234" cy="309" r="4"/><circle cx="1291" cy="283" r="5"/><circle cx="1414" cy="273" r="5"/><circle cx="1517" cy="240" r="4"/><circle cx="1541" cy="240" r="6"/><circle cx="1665" cy="276" r="4"/><circle cx="1700" cy="305" r="4"/><circle cx="1785" cy="265" r="4"/><circle cx="1857" cy="258" r="5"/><circle cx="1988" cy="298" r="4"/><circle cx="2025" cy="319" r="5"/><circle cx="2147" cy="291" r="6"/><circle cx="2204" cy="306" r="4"/><circle cx="2309" cy="308" r="6"/><circle cx="2362" cy="293" r="5"/><circle cx="2435" cy="248" r="5"/><circle cx="2495" cy="289" r="4"/><circle cx="40" cy="355" r="4"/><circle cx="138" cy="325" r="6"/><circle cx="216" cy="374" r="4"/><circle cx="299" cy="400" r="5"/><circle cx="368" cy="331" r="6"/><circle cx="466" cy="397" r="4"/><circle cx="528" cy="374" r="5"/><circle cx="574" cy="358" r="5"/><circle cx="682" cy="369" r="6"/><circle cx="744" cy="327" r="6"/><circle cx="811" cy="350" r="5"/><circle cx="918" cy="391" r="5"/><circle cx="991" cy="353" r="6"/><circle cx="1070" cy="332" r="6"/><circle cx="1185" cy="325" r="5"/><circle cx="1200" cy="321" r="5"/><circle cx="1335" cy="353" r="4"/><circle cx="1373" cy="343" r="5"/><circle cx="1471" cy="345" r="5"/><circle cx="1595" cy="381" r="4"/><circle cx="1653" cy="321" r="4"/><circle cx="1751" cy="377" r="5"/><circle cx="1808" cy="385" r="5"/><circle cx="1903" cy="354" r="6"/><circle cx="1957" cy="346" r="4"/><circle cx="2022" cy="374" r="5"/><circle cx="2133" cy="386" r="5"/><circle cx="2205" cy="367" r="4"/><circle cx="2318" cy="346" r="4"/><circle cx="2368" cy="378" r="6"/><circle cx="2440" cy="353" r="5"/><circle cx="2529" cy="361" r="5"/><circle cx="33" cy="466" r="4"/><circle cx="158" cy="461" r="5"/><circle cx="162" cy="454" r="5"/><circle cx="304" cy="468" r="4"/><circle cx="370" cy="406" r="5"/><circle cx="409" cy="451" r="4"/><circle cx="488" cy="449" r="5"/><circle cx="578" cy="421" r="4"/><circle cx="683" cy="465" r="5"/><circle cx="797" cy="408" r="5"/><circle cx="866" cy="426" r="6"/><circle cx="893" cy="413" r="4"/><circle cx="1030" cy="473" r="6"/><circle cx="1093" cy="404" r="5"/><circle cx="1149" cy="435" r="6"/><circle cx="1258" cy="404" r="6"/><circle cx="1310" cy="424" r="5"/><circle cx="1372" cy="435" r="5"/><circle cx="1501" cy="410" r="5"/><circle cx="1527" cy="462" r="5"/><circle cx="1666" cy="431" r="6"/><circle cx="1700" cy="405" r="6"/><circle cx="1816" cy="405" r="5"/><circle cx="1854" cy="404" r="5"/><circle cx="1957" cy="463" r="4"/><circle cx="2075" cy="408" r="4"/><circle cx="2125" cy="480" r="6"/><circle cx="2185" cy="448" r="6"/><circle cx="2261" cy="400" r="5"/><circle cx="2338" cy="414" r="6"/><circle cx="2406" cy="453" r="5"/><circle cx="2541" cy="444" r="4"/><circle cx="77" cy="491" r="5"/><circle cx="142" cy="524" r="5"/><circle cx="186" cy="546" r="5"/><circle cx="296" cy="556" r="5"/><circle cx="368" cy="508" r="5"/><circle cx="412" cy="531" r="5"/><circle cx="491" cy="526" r="5"/><circle cx="564" cy="538" r="5"/><circle cx="701" cy="530" r="6"/><circle cx="745" cy="496" r="4"/><circle cx="834" cy="486" r="4"/><circle cx="914" cy="494" r="6"/><circle cx="987" cy="535" r="4"/><circle cx="1117" cy="513" r="5"/><circle cx="1165" cy="553" r="6"/><circle cx="1229" cy="543" r="5"/><circle cx="1325" cy="480" r="4"/><circle cx="1375" cy="491" r="4"/><circle cx="1487" cy="543" r="5"/><circle cx="1579" cy="555" r="5"/><circle cx="1675" cy="488" r="4"/><circle cx="1714" cy="531" r="5"/><circle cx="1776" cy="503" r="5"/><circle cx="1909" cy="552" r="4"/><circle cx="1949" cy="528" r="4"/><circle cx="2029" cy="487" r="5"/><circle cx="2149" cy="555" r="4"/><circle cx="2188" cy="497" r="4"/><circle cx="2273" cy="538" r="5"/><circle cx="2335" cy="480" r="5"/><circle cx="2476" cy="543" r="6"/><circle cx="2525" cy="558" r="5"/><circle cx="4" cy="618" r="4"/><circle cx="81" cy="625" r="4"/><circle cx="205" cy="586" r="5"/><circle cx="298" cy="626" r="4"/><circle cx="351" cy="637" r="5"/><circle cx="428" cy="571" r="4"/><circle cx="537" cy="562" r="5"/><circle cx="585" cy="586" r="4"/><circle cx="683" cy="618" r="5"/><circle cx="761" cy="588" r="5"/><circle cx="869" cy="623" r="6"/><circle cx="923" cy="569" r="6"/><circle cx="1013" cy="609" r="5"/><circle cx="1064" cy="613" r="5"/><circle cx="1162" cy="575" r="5"/><circle cx="1215" cy="588" r="5"/><circle cx="1344" cy="603" r="6"/><circle cx="1380" cy="615" r="4"/><circle cx="1474" cy="620" r="5"/><circle cx="1559" cy="601" r="5"/><circle cx="1664" cy="636" r="4"/><circle cx="1756" cy="596" r="5"/><circle cx="1821" cy="568" r="6"/><circle cx="1900" cy="588" r="4"/><circle cx="1994" cy="599" r="4"/><circle cx="2024" cy="594" r="5"/><circle cx="2139" cy="630" r="5"/><circle cx="2182" cy="639" r="5"/><circle cx="2246" cy="621" r="6"/><circle cx="2344" cy="571" r="6"/><circle cx="2418" cy="609" r="5"/><circle cx="2523" cy="622" r="6"/><circle cx="45" cy="645" r="4"/><circle cx="102" cy="711" r="4"/><circle cx="238" cy="669" r="5"/><circle cx="247" cy="685" r="5"/><circle cx="376" cy="689" r="6"/><circle cx="451" cy="679" r="5"/><circle cx="480" cy="693" r="5"/><circle cx="563" cy="644" r="5"/><circle cx="715" cy="678" r="6"/><circle cx="739" cy="708" r="4"/><circle cx="809" cy="679" r="4"/><circle cx="903" cy="643" r="5"/><circle cx="1036" cy="713" r="4"/><circle cx="1116" cy="665" r="5"/><circle cx="1164" cy="653" r="6"/><circle cx="1247" cy="682" r="6"/><circle cx="1353" cy="692" r="6"/><circle cx="1435" cy="656" r="5"/><circle cx="1452" cy="718" r="4"/><circle cx="1567" cy="696" r="4"/><circle cx="1639" cy="690" r="6"/><circle cx="1682" cy="719" r="6"/><circle cx="1825" cy="688" r="5"/><circle cx="1890" cy="693" r="5"/><circle cx="1938" cy="690" r="4"/><circle cx="2017" cy="711" r="6"/><circle cx="2089" cy="705" r="4"/><circle cx="2179" cy="683" r="6"/><circle cx="2282" cy="704" r="4"/><circle cx="2348" cy="651" r="5"/><circle cx="2449" cy="649" r="5"/><circle cx="2516" cy="696" r="5"/><circle cx="17" cy="781" r="5"/><circle cx="124" cy="758" r="5"/><circle cx="221" cy="755" r="4"/><circle cx="259" cy="741" r="5"/><circle cx="364" cy="797" r="5"/><circle cx="470" cy="766" r="4"/><circle cx="533" cy="800" r="4"/><circle cx="601" cy="770" r="5"/><circle cx="655" cy="784" r="5"/><circle cx="778" cy="723" r="4"/><circle cx="824" cy="746" r="6"/><circle cx="954" cy="722" r="5"/><circle cx="1035" cy="790" r="5"/><circle cx="1091" cy="782" r="5"/><circle cx="1130" cy="790" r="4"/><circle cx="1245" cy="724" r="5"/><circle cx="1332" cy="749" r="4"/><circle cx="1439" cy="791" r="5"/><circle cx="1462" cy="723" r="5"/><circle cx="1539" cy="786" r="4"/><circle cx="1603" cy="760" r="5"/><circle cx="1759" cy="767" r="6"/><circle cx="1821" cy="729" r="5"/><circle cx="1918" cy="762" r="5"/><circle cx="1965" cy="763" r="5"/><circle cx="2016" cy="782" r="5"/><circle cx="2109" cy="776" r="4"/><circle cx="2220" cy="786" r="4"/><circle cx="2266" cy="765" r="4"/><circle cx="2358" cy="736" r="6"/><circle cx="2405" cy="774" r="4"/><circle cx="2559" cy="757" r="6"/><circle cx="-1" cy="757" r="6"/><circle cx="35" cy="864" r="6"/><circle cx="127" cy="839" r="5"/><circle cx="175" cy="820" r="6"/><circle cx="306" cy="807" r="6"/><circle cx="368" cy="822" r="4"/><circle cx="404" cy="816" r="6"/><circle cx="512" cy="831" r="5"/><circle cx="582" cy="870" r="6"/><circle cx="658" cy="865" r="6"/><circle cx="757" cy="873" r="5"/><circle cx="842" cy="826" r="6"/><circle cx="954" cy="868" r="5"/><circle cx="1004" cy="820" r="4"/><circle cx="1043" cy="879" r="5"/><circle cx="1146" cy="821" r="4"/><circle cx="1219" cy="852" r="5"/><circle cx="1336" cy="849" r="4"/><circle cx="1438" cy="851" r="4"/><circle cx="1448" cy="849" r="6"/><circle cx="1566" cy="838" r="4"/><circle cx="1664" cy="817" r="6"/><circle cx="1699" cy="846" r="5"/><circle cx="1801" cy="868" r="4"/><circle cx="1865" cy="864" r="5"/><circle cx="1979" cy="839" r="6"/><circle cx="2013" cy="863" r="6"/><circle cx="2093" cy="862" r="6"/><circle cx="2221" cy="838" r="5"/><circle cx="2270" cy="868" r="6"/><circle cx="2356" cy="835" r="4"/><circle cx="2408" cy="806" r="5"/><circle cx="2492" cy="801" r="5"/><circle cx="72" cy="936" r="6"/><circle cx="91" cy="886" r="5"/><circle cx="232" cy="954" r="5"/><circle cx="262" cy="927" r="5"/><circle cx="321" cy="929" r="5"/><circle cx="457" cy="888" r="6"/><circle cx="482" cy="881" r="5"/><circle cx="613" cy="951" r="4"/><circle cx="699" cy="917" r="5"/><circle cx="720" cy="941" r="5"/><circle cx="875" cy="952" r="5"/><circle cx="935" cy="903" r="5"/><circle cx="983" cy="956" r="5"/><circle cx="1069" cy="952" r="5"/><circle cx="1192" cy="950" r="5"/><circle cx="1247" cy="940" r="6"/><circle cx="1343" cy="929" r="5"/><circle cx="1393" cy="948" r="6"/><circle cx="1447" cy="930" r="6"/><circle cx="1578" cy="919" r="5"/><circle cx="1636" cy="958" r="5"/><circle cx="1758" cy="902" r="4"/><circle cx="1792" cy="957" r="5"/><circle cx="1852" cy="934" r="6"/><circle cx="2000" cy="896" r="6"/><circle cx="2053" cy="906" r="4"/><circle cx="2124" cy="903" r="6"/><circle cx="2180" cy="947" r="5"/><circle cx="2319" cy="886" r="6"/><circle cx="2333" cy="893" r="5"/><circle cx="2406" cy="908" r="5"/><circle cx="2495" cy="959" r="5"/><circle cx="49" cy="1000" r="5"/><circle cx="81" cy="996" r="5"/><circle cx="228" cy="978" r="4"/><circle cx="309" cy="964" r="5"/><circle cx="399" cy="1032" r="5"/><circle cx="447" cy="1021" r="5"/><circle cx="481" cy="1011" r="6"/><circle cx="564" cy="968" r="5"/><circle cx="705" cy="983" r="6"/><circle cx="736" cy="1021" r="4"/><circle cx="870" cy="1039" r="6"/><circle cx="937" cy="1035" r="6"/><circle cx="1034" cy="1007" r="6"/><circle cx="1118" cy="965" r="4"/><circle cx="1198" cy="1006" r="6"/><circle cx="1219" cy="991" r="5"/><circle cx="1342" cy="966" r="5"/><circle cx="1418" cy="961" r="5"/><circle cx="1494" cy="990" r="5"/><circle cx="1546" cy="1027" r="6"/><circle cx="1636" cy="975" r="5"/><circle cx="1701" cy="1021" r="5"/><circle cx="1810" cy="980" r="5"/><circle cx="1851" cy="992" r="5"/><circle cx="1940" cy="1006" r="6"/><circle cx="2019" cy="1007" r="5"/><circle cx="2148" cy="997" r="4"/><circle cx="2175" cy="1037" r="5"/><circle cx="2253" cy="997" r="6"/><circle cx="2351" cy="1010" r="5"/><circle cx="2441" cy="971" r="5"/><circle cx="2500" cy="983" r="5"/><circle cx="2" cy="1086" r="6"/><circle cx="2562" cy="1086" r="6"/><circle cx="139" cy="1119" r="6"/><circle cx="171" cy="1097" r="4"/><circle cx="306" cy="1091" r="5"/><circle cx="321" cy="1083" r="4"/><circle cx="427" cy="1067" r="5"/><circle cx="508" cy="1056" r="5"/><circle cx="635" cy="1101" r="5"/><circle cx="680" cy="1106" r="6"/><circle cx="758" cy="1082" r="4"/><circle cx="805" cy="1102" r="4"/><circle cx="905" cy="1116" r="4"/><circle cx="1021" cy="1091" r="5"/><circle cx="1063" cy="1077" r="4"/><circle cx="1187" cy="1087" r="5"/><circle cx="1271" cy="1105" r="4"/><circle cx="1292" cy="1106" r="6"/><circle cx="1389" cy="1118" r="4"/><circle cx="1451" cy="1052" r="5"/><circle cx="1538" cy="1113" r="5"/><circle cx="1645" cy="1040" r="5"/><circle cx="1745" cy="1050" r="4"/><circle cx="1800" cy="1073" r="5"/><circle cx="1889" cy="1073" r="6"/><circle cx="1923" cy="1074" r="6"/><circle cx="2068" cy="1094" r="6"/><circle cx="2126" cy="1069" r="4"/><circle cx="2207" cy="1107" r="6"/><circle cx="2254" cy="1090" r="4"/><circle cx="2343" cy="1060" r="5"/><circle cx="2437" cy="1112" r="4"/><circle cx="2526" cy="1112" r="5"/><circle cx="9" cy="1170" r="5"/><circle cx="159" cy="1128" r="5"/><circle cx="198" cy="1172" r="5"/><circle cx="295" cy="1162" r="5"/><circle cx="341" cy="1168" r="5"/><circle cx="442" cy="1180" r="4"/><circle cx="556" cy="1152" r="6"/><circle cx="639" cy="1125" r="6"/><circle cx="653" cy="1138" r="5"/><circle cx="761" cy="1133" r="6"/><circle cx="851" cy="1133" r="6"/><circle cx="945" cy="1146" r="4"/><circle cx="969" cy="1184" r="6"/><circle cx="1099" cy="1147" r="4"/><circle cx="1126" cy="1125" r="5"/><circle cx="1262" cy="1121" r="5"/><circle cx="1327" cy="1148" r="5"/><circle cx="1377" cy="1190" r="5"/><circle cx="1450" cy="1194" r="6"/><circle cx="1556" cy="1128" r="6"/><circle cx="1606" cy="1182" r="5"/><circle cx="1750" cy="1141" r="6"/><circle cx="1776" cy="1181" r="5"/><circle cx="1897" cy="1173" r="6"/><circle cx="1935" cy="1181" r="4"/><circle cx="2078" cy="1171" r="5"/><circle cx="2120" cy="1135" r="6"/><circle cx="2203" cy="1129" r="4"/><circle cx="2252" cy="1193" r="4"/><circle cx="2355" cy="1163" r="4"/><circle cx="2476" cy="1166" r="5"/><circle cx="2544" cy="1161" r="4"/><circle cx="60" cy="1273" r="5"/><circle cx="143" cy="1216" r="5"/><circle cx="240" cy="1243" r="6"/><circle cx="305" cy="1219" r="6"/><circle cx="344" cy="1212" r="6"/><circle cx="433" cy="1235" r="6"/><circle cx="529" cy="1205" r="4"/><circle cx="604" cy="1246" r="5"/><circle cx="712" cy="1260" r="6"/><circle cx="800" cy="1240" r="4"/><circle cx="833" cy="1258" r="5"/><circle cx="953" cy="1248" r="5"/><circle cx="1014" cy="1263" r="6"/><circle cx="1067" cy="1239" r="6"/><circle cx="1151" cy="1215" r="5"/><circle cx="1213" cy="1263" r="5"/><circle cx="1325" cy="1264" r="4"/><circle cx="1409" cy="1229" r="5"/><circle cx="1486" cy="1259" r="5"/><circle cx="1533" cy="1221" r="5"/><circle cx="1628" cy="1232" r="5"/><circle cx="1740" cy="1205" r="5"/><circle cx="1788" cy="1251" r="6"/><circle cx="1857" cy="1212" r="6"/><circle cx="1924" cy="1231" r="6"/><circle cx="2063" cy="1260" r="6"/><circle cx="2147" cy="1278" r="4"/><circle cx="2232" cy="1275" r="5"/><circle cx="2263" cy="1244" r="4"/><circle cx="2341" cy="1229" r="6"/><circle cx="2433" cy="1276" r="4"/><circle cx="2535" cy="1219" r="5"/><circle cx="28" cy="1281" r="5"/><circle cx="111" cy="1298" r="6"/><circle cx="233" cy="1336" r="6"/><circle cx="300" cy="1356" r="4"/><circle cx="359" cy="1313" r="6"/><circle cx="455" cy="1288" r="4"/><circle cx="537" cy="1330" r="4"/><circle cx="564" cy="1315" r="5"/><circle cx="653" cy="1348" r="4"/><circle cx="735" cy="1292" r="4"/><circle cx="820" cy="1307" r="5"/><circle cx="924" cy="1341" r="6"/><circle cx="1002" cy="1295" r="6"/><circle cx="1085" cy="1316" r="6"/><circle cx="1145" cy="1306" r="5"/><circle cx="1236" cy="1280" r="5"/><circle cx="1337" cy="1305" r="4"/><circle cx="1377" cy="1283" r="6"/><circle cx="1461" cy="1287" r="5"/><circle cx="1581" cy="1301" r="5"/><circle cx="1632" cy="1313" r="5"/><circle cx="1690" cy="1291" r="5"/><circle cx="1831" cy="1308" r="6"/><circle cx="1862" cy="1335" r="5"/><circle cx="1936" cy="1290" r="4"/><circle cx="2069" cy="1285" r="5"/><circle cx="2085" cy="1351" r="6"/><circle cx="2200" cy="1311" r="4"/><circle cx="2283" cy="1341" r="5"/><circle cx="2328" cy="1293" r="5"/><circle cx="2453" cy="1312" r="5"/><circle cx="2521" cy="1312" r="6"/><circle cx="8" cy="1405" r="4"/><circle cx="137" cy="1391" r="6"/><circle cx="163" cy="1361" r="5"/><circle cx="294" cy="1405" r="4"/><circle cx="393" cy="1427" r="5"/><circle cx="465" cy="1381" r="5"/><circle cx="485" cy="1393" r="4"/><circle cx="573" cy="1361" r="5"/><circle cx="647" cy="1412" r="5"/><circle cx="727" cy="1422" r="4"/><circle cx="812" cy="1378" r="5"/><circle cx="954" cy="1361" r="5"/><circle cx="998" cy="1424" r="6"/><circle cx="1071" cy="1397" r="4"/><circle cx="1160" cy="1416" r="6"/><circle cx="1279" cy="1404" r="4"/><circle cx="1328" cy="1413" r="5"/><circle cx="1419" cy="1373" r="6"/><circle cx="1445" cy="1405" r="5"/><circle cx="1534" cy="1387" r="5"/><circle cx="1614" cy="1418" r="6"/><circle cx="1695" cy="1372" r="5"/><circle cx="1774" cy="1421" r="5"/><circle cx="1842" cy="1365" r="5"/><circle cx="1955" cy="1418" r="5"/><circle cx="2068" cy="1399" r="6"/><circle cx="2120" cy="1437" r="4"/><circle cx="2120" cy="-3" r="4"/><circle cx="2208" cy="1400" r="5"/><circle cx="2304" cy="1399" r="6"/><circle cx="2323" cy="1393" r="4"/><circle cx="2401" cy="1369" r="5"/><circle cx="2549" cy="1376" r="6"/><path stroke="#fff" d="M13 35L95 76M13 35L-62 70M13 35L-55 90M13 35L8 -35M13 35L-11 -64M2573 35L2498 70M2573 35L2505 90M2573 35L2549 -64M13 1475L8 1405M13 1475L-11 1376M2573 1475L2549 1376M95 76L230 68M95 76L66 138M95 76L125 99M95 76L137 -49M95 1516L137 1391M230 68L267 65M230 68L125 99M230 68L237 129M230 68L313 111M267 65L237 129M267 65L313 111M267 65L294 -35M267 1505L294 1405M396 3L459 14M396 3L394 86M396 3L393 -13M396 3L465 -59M396 1443L393 1427M396 1443L465 1381M459 14L394 86M459 14L393 -13M459 14L465 -59M459 14L485 -47M459 1454L393 1427M459 1454L465 1381M459 1454L485 1393M556 6L577 58M556 6L573 -79M556 6L647 -28M556 1446L573 1361M556 1446L647 1412M577 58L658 38M577 58L541 138M577 58L636 98M658 38L636 98M658 38L728 97M658 38L647 -28M658 38L727 -18M658 1478L647 1412M658 1478L727 1422M768 51L830 38M768 51L728 97M768 51L822 108M768 51L727 -18M768 1491L727 1422M830 38L930 50M830 38L822 108M830 38L812 -62M830 1478L812 1378M930 50L975 35M930 50L955 139M975 35L1046 11M975 35L954 -79M975 35L998 -16M975 1475L954 1361M975 1475L998 1424M1046 11L1154 16M1046 11L1109 96M1046 11L998 -16M1046 11L1071 -43M1046 1451L998 1424M1046 1451L1071 1397M1154 16L1255 66M1154 16L1109 96M1154 16L1071 -43M1154 16L1160 -24M1154 1456L1071 1397M1154 1456L1160 1416M1255 66L1295 41M1255 66L1199 122M1255 66L1236 107M1255 66L1296 155M1295 41L1381 24M1295 41L1236 107M1295 41L1279 -36M1295 41L1328 -27M1295 1481L1279 1404M1295 1481L1328 1413M1381 24L1447 38M1381 24L1328 -27M1381 24L1419 -67M1381 24L1445 -35M1381 1464L1328 1413M1381 1464L1419 1373M1381 1464L1445 1405M1447 38L1539 4M1447 38L1407 123M1447 38L1485 85M1447 38L1445 -35M1447 1478L1445 1405M1539 4L1485 85M1539 4L1445 -35M1539 4L1534 -53M1539 4L1614 -22M1539 1444L1445 1405M1539 1444L1534 1387M1539 1444L1614 1418M1662 27L1740 50M1662 27L1573 97M1662 27L1614 -22M1662 27L1695 -68M1662 27L1774 -19M1662 1467L1614 1418M1662 1467L1695 1372M1662 1467L1774 1421M1740 50L1811 37M1740 50L1764 147M1740 50L1774 -19M1740 1490L1774 1421M1811 37L1880 55M1811 37L1774 -19M1811 37L1842 -75M1811 1477L1774 1421M1811 1477L1842 1365M1880 55L1929 32M1880 55L1904 135M1880 55L1928 118M1880 55L1955 -22M1880 1495L1955 1418M1929 32L1904 135M1929 32L1928 118M1929 32L2036 84M1929 32L1955 -22M1929 1472L1955 1418M2041 12L2095 50M2041 12L2036 84M2041 12L1955 -22M2041 12L2068 -41M2041 12L2120 -3M2041 1452L1955 1418M2041 1452L2068 1399M2041 1452L2120 1437M2095 50L2193 53M2095 50L2036 84M2095 50L2068 -41M2095 50L2120 -3M2095 1490L2068 1399M2095 1490L2120 1437M2193 53L2140 130M2193 53L2191 92M2193 53L2120 -3M2193 53L2208 -40M2193 1493L2120 1437M2193 1493L2208 1400M2317 68L2322 26M2317 68L2299 119M2317 68L2368 100M2322 26L2299 119M2322 26L2368 100M2322 26L2304 -41M2322 26L2323 -47M2322 1466L2304 1399M2322 1466L2323 1393M2473 9L2498 70M2473 9L2505 90M2473 9L2568 -35M2473 9L2549 -64M-87 9L8 -35M-87 1449L8 1405M2473 1449L2568 1405M2473 1449L2549 1376M2498 70L2461 127M2498 70L2505 90M66 138L125 99M66 138L11 211M66 138L117 224M66 138L34 244M237 129L313 111M237 129L192 205M237 129L248 195M313 111L394 86M313 111L248 195M394 86L450 125M394 86L393 -13M394 1526L393 1427M450 125L541 138M450 125L377 212M450 125L431 229M450 125L540 165M541 138L652 155M541 138L540 165M541 138L613 161M636 98L652 155M636 98L613 161M652 155L728 97M652 155L613 161M652 155L715 161M728 97L822 108M728 97L715 161M822 108L839 206M955 139L1032 150M955 139L945 192M955 139L988 220M955 139L942 243M1032 150L1109 96M1032 150L945 192M1032 150L1053 177M1109 96L1199 122M1109 96L1053 177M1199 122L1236 107M1199 122L1296 155M1236 107L1296 155M1296 155L1346 216M1296 155L1382 207M1407 123L1485 85M1407 123L1346 216M1407 123L1382 207M1407 123L1466 201M1485 85L1573 97M1573 97L1587 179M1674 157L1736 136M1674 157L1764 147M1674 157L1587 179M1674 157L1673 173M1674 157L1724 179M1736 136L1764 147M1736 136L1673 173M1736 136L1724 179M1736 136L1775 188M1764 147L1724 179M1764 147L1775 188M1904 135L1928 118M1904 135L1899 202M1904 135L1921 175M1928 118L1899 202M1928 118L1921 175M2036 84L2140 130M2140 130L2191 92M2140 130L2126 228M2299 119L2368 100M2299 119L2301 193M2299 119L2377 175M2368 100L2377 175M2461 127L2505 90M2461 127L2474 194M2461 127L2514 194M11 211L-86 194M11 211L-46 194M11 211L34 244M2571 211L2474 194M2571 211L2514 194M117 224L192 205M117 224L34 244M117 224L109 318M117 224L138 325M192 205L248 195M192 205L239 307M192 205L251 252M248 195L251 252M377 212L431 229M377 212L400 317M431 229L400 317M431 229L449 300M431 229L368 331M540 165L613 161M540 165L578 272M613 161L715 161M715 161L749 217M715 161L742 265M749 217L839 206M749 217L658 271M749 217L742 265M839 206L859 247M945 192L988 220M945 192L859 247M945 192L942 243M988 220L1053 177M988 220L942 243M988 220L1064 246M1053 177L1123 210M1053 177L1064 246M1123 210L1213 225M1123 210L1064 246M1123 210L1178 285M1213 225L1178 285M1213 225L1234 309M1213 225L1291 283M1213 225L1200 321M1346 216L1382 207M1346 216L1291 283M1346 216L1414 273M1382 207L1466 201M1382 207L1414 273M1466 201L1414 273M1466 201L1517 240M1466 201L1541 240M1587 179L1673 173M1587 179L1517 240M1587 179L1541 240M1673 173L1724 179M1724 179L1775 188M1775 188L1785 265M1775 188L1857 258M1899 202L1921 175M1899 202L1857 258M1921 175L2042 216M1921 175L1857 258M2042 216L2126 228M2042 216L1988 298M2042 216L2025 319M2126 228L2227 238M2126 228L2147 291M2227 238L2301 193M2227 238L2147 291M2227 238L2204 306M2301 193L2377 175M2377 175L2474 194M2377 175L2435 248M2474 194L2514 194M2474 194L2435 248M2514 194L2594 244M2514 194L2435 248M-46 194L34 244M34 244L109 318M109 318L40 355M109 318L138 325M239 307L251 252M239 307L138 325M239 307L216 374M239 307L299 400M400 317L449 300M400 317L368 331M400 317L370 406M449 300L510 308M449 300L368 331M449 300L466 397M510 308L578 272M510 308L528 374M510 308L574 358M578 272L658 271M578 272L574 358M658 271L742 265M658 271L682 369M658 271L744 327M742 265L744 327M859 247L942 243M859 247L811 350M942 243L1009 314M1009 314L1064 246M1009 314L991 353M1009 314L1070 332M1064 246L1070 332M1178 285L1234 309M1178 285L1185 325M1178 285L1200 321M1234 309L1291 283M1234 309L1185 325M1234 309L1200 321M1291 283L1335 353M1414 273L1373 343M1414 273L1471 345M1517 240L1541 240M1517 240L1471 345M1541 240L1665 276M1541 240L1471 345M1665 276L1700 305M1665 276L1653 321M1700 305L1785 265M1700 305L1653 321M1700 305L1751 377M1785 265L1857 258M1857 258L1903 354M1988 298L2025 319M1988 298L1957 346M1988 298L2022 374M2025 319L1957 346M2025 319L2022 374M2025 319L2075 408M2147 291L2204 306M2147 291L2133 386M2147 291L2205 367M2204 306L2205 367M2309 308L2362 293M2309 308L2318 346M2309 308L2261 400M2362 293L2435 248M2362 293L2318 346M2362 293L2368 378M2362 293L2440 353M2435 248L2495 289M2495 289L2440 353M2495 289L2529 361M40 355L138 325M40 355L-31 361M2600 355L2529 361M138 325L216 374M216 374L299 400M216 374L158 461M216 374L162 454M299 400L368 331M299 400L304 468M299 400L370 406M368 331L370 406M466 397L528 374M466 397L409 451M466 397L488 449M528 374L574 358M528 374L488 449M528 374L578 421M574 358L682 369M574 358L578 421M682 369L744 327M682 369L683 465M744 327L811 350M744 327L797 408M811 350L797 408M918 391L991 353M918 391L866 426M918 391L893 413M991 353L1070 332M991 353L1093 404M1070 332L1185 325M1070 332L1093 404M1185 325L1200 321M1185 325L1258 404M1200 321L1258 404M1335 353L1373 343M1335 353L1258 404M1335 353L1310 424M1335 353L1372 435M1373 343L1471 345M1373 343L1310 424M1373 343L1372 435M1471 345L1501 410M1595 381L1653 321M1595 381L1501 410M1595 381L1527 462M1595 381L1666 431M1653 321L1700 405M1751 377L1808 385M1751 377L1666 431M1751 377L1700 405M1751 377L1816 405M1808 385L1903 354M1808 385L1700 405M1808 385L1816 405M1808 385L1854 404M1903 354L1957 346M1903 354L1816 405M1903 354L1854 404M1957 346L2022 374M1957 346L1854 404M2022 374L2075 408M2133 386L2205 367M2133 386L2075 408M2133 386L2125 480M2133 386L2185 448M2205 367L2185 448M2205 367L2261 400M2318 346L2368 378M2318 346L2261 400M2318 346L2338 414M2368 378L2440 353M2368 378L2338 414M2368 378L2406 453M2440 353L2529 361M2440 353L2406 453M2529 361L2593 466M2529 361L2541 444M-31 361L33 466M33 466L-19 444M33 466L77 491M2593 466L2541 444M158 461L162 454M158 461L77 491M158 461L142 524M158 461L186 546M162 454L77 491M162 454L142 524M162 454L186 546M304 468L370 406M304 468L296 556M304 468L368 508M370 406L409 451M409 451L488 449M409 451L368 508M409 451L412 531M488 449L578 421M488 449L491 526M578 421L683 465M683 465L701 530M683 465L745 496M797 408L866 426M797 408L893 413M797 408L834 486M866 426L893 413M866 426L834 486M866 426L914 494M893 413L834 486M893 413L914 494M1030 473L1093 404M1030 473L1149 435M1030 473L987 535M1030 473L1117 513M1093 404L1149 435M1093 404L1117 513M1149 435L1258 404M1149 435L1117 513M1258 404L1310 424M1310 424L1372 435M1310 424L1325 480M1372 435L1325 480M1372 435L1375 491M1501 410L1527 462M1527 462L1487 543M1527 462L1579 555M1666 431L1700 405M1666 431L1675 488M1666 431L1714 531M1700 405L1675 488M1816 405L1854 404M1816 405L1776 503M1957 463L1909 552M1957 463L1949 528M1957 463L2029 487M2075 408L2029 487M2125 480L2185 448M2125 480L2029 487M2125 480L2149 555M2125 480L2188 497M2185 448L2261 400M2185 448L2188 497M2261 400L2338 414M2338 414L2406 453M2338 414L2335 480M2406 453L2335 480M2406 453L2476 543M2541 444L2637 491M-19 444L77 491M77 491L142 524M142 524L186 546M142 524L205 586M186 546L205 586M296 556L368 508M296 556L205 586M296 556L298 626M296 556L351 637M368 508L412 531M368 508L428 571M412 531L491 526M412 531L428 571M491 526L564 538M491 526L428 571M491 526L537 562M564 538L701 530M564 538L537 562M564 538L585 586M564 538L563 644M701 530L745 496M701 530L683 618M701 530L761 588M745 496L834 486M745 496L761 588M834 486L914 494M914 494L987 535M914 494L923 569M987 535L923 569M987 535L1013 609M1117 513L1165 553M1117 513L1162 575M1165 553L1229 543M1165 553L1162 575M1165 553L1215 588M1165 553L1164 653M1229 543L1162 575M1229 543L1215 588M1229 543L1344 603M1325 480L1375 491M1487 543L1579 555M1487 543L1474 620M1487 543L1559 601M1579 555L1675 488M1579 555L1559 601M1675 488L1714 531M1675 488L1776 503M1714 531L1776 503M1714 531L1756 596M1714 531L1821 568M1776 503L1756 596M1776 503L1821 568M1909 552L1949 528M1909 552L1821 568M1909 552L1900 588M1909 552L1994 599M1949 528L2029 487M1949 528L1900 588M1949 528L1994 599M2029 487L2024 594M2149 555L2188 497M2149 555L2139 630M2149 555L2182 639M2188 497L2273 538M2273 538L2335 480M2273 538L2246 621M2273 538L2344 571M2335 480L2344 571M2476 543L2525 558M2476 543L2418 609M2476 543L2523 622M2476 543L2449 649M2525 558L2564 618M2525 558L2523 622M-35 558L4 618M4 618L81 625M4 618L-37 622M4 618L45 645M4 618L-44 696M2564 618L2523 622M2564 618L2516 696M81 625L45 645M81 625L102 711M205 586L238 669M205 586L247 685M298 626L351 637M298 626L238 669M298 626L247 685M298 626L376 689M351 637L428 571M351 637L376 689M351 637L451 679M428 571L537 562M537 562L585 586M537 562L563 644M585 586L683 618M585 586L563 644M683 618L761 588M683 618L715 678M683 618L739 708M761 588L869 623M761 588L715 678M869 623L923 569M869 623L809 679M869 623L903 643M869 623L824 746M923 569L1013 609M923 569L903 643M1013 609L1064 613M1013 609L903 643M1013 609L1116 665M1064 613L1036 713M1064 613L1116 665M1162 575L1215 588M1162 575L1164 653M1215 588L1164 653M1215 588L1247 682M1344 603L1380 615M1344 603L1247 682M1344 603L1353 692M1380 615L1474 620M1380 615L1353 692M1380 615L1435 656M1474 620L1559 601M1474 620L1435 656M1474 620L1462 723M1559 601L1567 696M1559 601L1639 690M1664 636L1756 596M1664 636L1639 690M1664 636L1682 719M1756 596L1821 568M1756 596L1825 688M1821 568L1900 588M1900 588L1994 599M1994 599L2024 594M2139 630L2182 639M2139 630L2089 705M2139 630L2179 683M2182 639L2246 621M2182 639L2179 683M2246 621L2344 571M2246 621L2179 683M2246 621L2282 704M2344 571L2418 609M2344 571L2348 651M2418 609L2348 651M2418 609L2449 649M2523 622L2449 649M2523 622L2516 696M45 645L102 711M102 711L124 758M102 711L-1 757M2662 711L2559 757M238 669L247 685M238 669L221 755M238 669L259 741M247 685L221 755M247 685L259 741M376 689L451 679M376 689L480 693M376 689L364 797M451 679L480 693M451 679L563 644M451 679L470 766M480 693L563 644M480 693L470 766M715 678L739 708M715 678L809 679M715 678L778 723M739 708L809 679M739 708L778 723M739 708L824 746M809 679L778 723M809 679L824 746M903 643L954 722M1036 713L1116 665M1036 713L954 722M1036 713L1035 790M1036 713L1091 782M1116 665L1164 653M1164 653L1247 682M1247 682L1353 692M1247 682L1245 724M1353 692L1435 656M1353 692L1332 749M1435 656L1452 718M1435 656L1462 723M1452 718L1439 791M1452 718L1462 723M1567 696L1639 690M1567 696L1603 760M1639 690L1682 719M1639 690L1603 760M1682 719L1603 760M1682 719L1759 767M1682 719L1664 817M1825 688L1890 693M1825 688L1759 767M1825 688L1821 729M1890 693L1938 690M1890 693L1821 729M1890 693L1918 762M1938 690L2017 711M1938 690L1918 762M1938 690L1965 763M2017 711L2089 705M2017 711L1965 763M2017 711L2016 782M2089 705L2179 683M2089 705L2109 776M2179 683L2282 704M2282 704L2348 651M2282 704L2266 765M2282 704L2358 736M2348 651L2449 649M2348 651L2358 736M2449 649L2516 696M2516 696L2577 781M2516 696L2559 757M-44 696L17 781M17 781L124 758M17 781L-1 757M17 781L35 864M17 781L-68 801M2577 781L2559 757M2577 781L2492 801M124 758L127 839M124 758L175 820M221 755L259 741M221 755L175 820M221 755L306 807M259 741L175 820M259 741L306 807M364 797L306 807M364 797L368 822M364 797L404 816M470 766L533 800M470 766L404 816M470 766L512 831M533 800L601 770M533 800L512 831M533 800L582 870M533 800L482 881M601 770L655 784M655 784L658 865M778 723L824 746M778 723L842 826M824 746L842 826M954 722L1004 820M1035 790L1091 782M1035 790L1130 790M1035 790L1004 820M1035 790L1043 879M1091 782L1130 790M1091 782L1004 820M1091 782L1146 821M1130 790L1146 821M1130 790L1219 852M1245 724L1332 749M1245 724L1219 852M1332 749L1336 849M1439 791L1462 723M1439 791L1539 786M1439 791L1438 851M1439 791L1448 849M1462 723L1539 786M1539 786L1603 760M1539 786L1566 838M1603 760L1664 817M1759 767L1821 729M1759 767L1664 817M1759 767L1699 846M1918 762L1965 763M1918 762L2016 782M1918 762L1979 839M1965 763L2016 782M1965 763L1979 839M2016 782L1979 839M2016 782L2013 863M2109 776L2220 786M2109 776L2093 862M2220 786L2266 765M2220 786L2221 838M2220 786L2270 868M2266 765L2358 736M2266 765L2221 838M2358 736L2405 774M2358 736L2408 806M2405 774L2356 835M2405 774L2408 806M2405 774L2492 801M2559 757L2595 864M2559 757L2492 801M-1 757L35 864M35 864L127 839M35 864L72 936M35 864L91 886M127 839L175 820M127 839L72 936M127 839L91 886M175 820L91 886M306 807L368 822M306 807L404 816M368 822L404 816M368 822L321 929M368 822L457 888M404 816L457 888M512 831L582 870M512 831L457 888M512 831L482 881M582 870L658 865M582 870L482 881M582 870L613 951M658 865L757 873M658 865L699 917M658 865L720 941M757 873L842 826M757 873L699 917M757 873L720 941M842 826L954 868M842 826L935 903M954 868L1004 820M954 868L1043 879M954 868L935 903M954 868L983 956M1004 820L1043 879M1043 879L1069 952M1146 821L1219 852M1219 852L1192 950M1336 849L1343 929M1438 851L1448 849M1438 851L1447 930M1448 849L1393 948M1448 849L1447 930M1566 838L1664 817M1566 838L1578 919M1664 817L1699 846M1699 846L1801 868M1699 846L1758 902M1801 868L1865 864M1801 868L1758 902M1801 868L1792 957M1801 868L1852 934M1865 864L1852 934M1979 839L2013 863M1979 839L2000 896M2013 863L2093 862M2013 863L2000 896M2013 863L2053 906M2093 862L2000 896M2093 862L2053 906M2093 862L2124 903M2221 838L2270 868M2221 838L2124 903M2221 838L2319 886M2270 868L2356 835M2270 868L2319 886M2270 868L2333 893M2356 835L2408 806M2356 835L2319 886M2356 835L2333 893M2408 806L2492 801M2408 806L2406 908M72 936L91 886M72 936L49 1000M72 936L81 996M91 886L81 996M232 954L262 927M232 954L321 929M232 954L228 978M232 954L309 964M262 927L321 929M262 927L228 978M262 927L309 964M321 929L228 978M321 929L309 964M457 888L482 881M482 881L564 968M613 951L699 917M613 951L564 968M613 951L705 983M699 917L720 941M699 917L705 983M720 941L705 983M720 941L736 1021M875 952L935 903M875 952L870 1039M935 903L983 956M983 956L1069 952M983 956L937 1035M983 956L1034 1007M1069 952L1034 1007M1069 952L1118 965M1192 950L1247 940M1192 950L1118 965M1192 950L1198 1006M1192 950L1219 991M1247 940L1343 929M1247 940L1198 1006M1247 940L1219 991M1247 940L1342 966M1343 929L1393 948M1343 929L1342 966M1343 929L1418 961M1393 948L1447 930M1393 948L1342 966M1393 948L1418 961M1447 930L1418 961M1447 930L1494 990M1578 919L1636 958M1578 919L1494 990M1578 919L1636 975M1636 958L1636 975M1636 958L1701 1021M1636 958L1645 1040M1758 902L1792 957M1792 957L1852 934M1792 957L1810 980M1792 957L1851 992M1852 934L1810 980M1852 934L1851 992M2000 896L2053 906M2000 896L2019 1007M2053 906L2124 903M2053 906L2019 1007M2124 903L2180 947M2124 903L2148 997M2180 947L2148 997M2180 947L2175 1037M2180 947L2253 997M2319 886L2333 893M2319 886L2406 908M2333 893L2406 908M2333 893L2351 1010M2406 908L2495 959M2406 908L2441 971M2495 959L2609 1000M2495 959L2441 971M2495 959L2500 983M-65 959L49 1000M49 1000L81 996M49 1000L-60 983M49 1000L2 1086M2609 1000L2500 983M81 996L139 1119M228 978L309 964M399 1032L447 1021M399 1032L481 1011M399 1032L306 1091M399 1032L321 1083M399 1032L427 1067M447 1021L481 1011M447 1021L564 968M447 1021L427 1067M447 1021L508 1056M481 1011L564 968M481 1011L427 1067M481 1011L508 1056M564 968L508 1056M705 983L736 1021M736 1021L758 1082M870 1039L937 1035M870 1039L805 1102M870 1039L905 1116M870 1039L851 1133M937 1035L1034 1007M937 1035L905 1116M937 1035L1021 1091M1034 1007L1021 1091M1034 1007L1063 1077M1118 965L1198 1006M1118 965L1219 991M1198 1006L1219 991M1198 1006L1187 1087M1342 966L1418 961M1418 961L1494 990M1494 990L1546 1027M1494 990L1451 1052M1546 1027L1636 975M1546 1027L1451 1052M1546 1027L1538 1113M1546 1027L1556 1128M1636 975L1701 1021M1636 975L1645 1040M1701 1021L1645 1040M1701 1021L1745 1050M1810 980L1851 992M1810 980L1745 1050M1810 980L1800 1073M1851 992L1940 1006M1851 992L1889 1073M1940 1006L2019 1007M1940 1006L1889 1073M1940 1006L1923 1074M2019 1007L1923 1074M2019 1007L2068 1094M2148 997L2175 1037M2148 997L2126 1069M2175 1037L2253 997M2175 1037L2126 1069M2175 1037L2207 1107M2253 997L2351 1010M2253 997L2254 1090M2253 997L2343 1060M2351 1010L2441 971M2351 1010L2343 1060M2441 971L2500 983M2 1086L-34 1112M2 1086L9 1170M2 1086L-16 1161M2562 1086L2526 1112M2562 1086L2544 1161M139 1119L171 1097M139 1119L159 1128M139 1119L198 1172M139 1119L143 1216M171 1097L159 1128M171 1097L198 1172M306 1091L321 1083M306 1091L295 1162M306 1091L341 1168M321 1083L427 1067M321 1083L341 1168M427 1067L508 1056M635 1101L680 1106M635 1101L556 1152M635 1101L639 1125M635 1101L653 1138M680 1106L758 1082M680 1106L639 1125M680 1106L653 1138M680 1106L761 1133M758 1082L805 1102M758 1082L761 1133M805 1102L761 1133M805 1102L851 1133M905 1116L851 1133M905 1116L945 1146M905 1116L969 1184M1021 1091L1063 1077M1021 1091L945 1146M1063 1077L1099 1147M1063 1077L1126 1125M1187 1087L1271 1105M1187 1087L1292 1106M1187 1087L1126 1125M1187 1087L1262 1121M1271 1105L1292 1106M1271 1105L1262 1121M1271 1105L1327 1148M1292 1106L1389 1118M1292 1106L1262 1121M1292 1106L1327 1148M1389 1118L1451 1052M1389 1118L1327 1148M1389 1118L1377 1190M1451 1052L1538 1113M1451 1052L1556 1128M1538 1113L1556 1128M1538 1113L1606 1182M1645 1040L1745 1050M1745 1050L1800 1073M1745 1050L1750 1141M1800 1073L1889 1073M1800 1073L1750 1141M1800 1073L1776 1181M1889 1073L1923 1074M1889 1073L1897 1173M1923 1074L1897 1173M1923 1074L1935 1181M2068 1094L2126 1069M2068 1094L2078 1171M2068 1094L2120 1135M2126 1069L2207 1107M2126 1069L2120 1135M2207 1107L2254 1090M2207 1107L2120 1135M2207 1107L2203 1129M2254 1090L2343 1060M2254 1090L2203 1129M2254 1090L2252 1193M2343 1060L2437 1112M2343 1060L2355 1163M2437 1112L2526 1112M2437 1112L2355 1163M2437 1112L2476 1166M2526 1112L2569 1170M2526 1112L2476 1166M2526 1112L2544 1161M-34 1112L9 1170M9 1170L-84 1166M9 1170L-16 1161M9 1170L-25 1219M2569 1170L2476 1166M2569 1170L2544 1161M2569 1170L2535 1219M159 1128L198 1172M159 1128L143 1216M198 1172L143 1216M198 1172L240 1243M295 1162L341 1168M295 1162L240 1243M295 1162L305 1219M295 1162L344 1212M341 1168L305 1219M341 1168L344 1212M442 1180L433 1235M442 1180L529 1205M556 1152L639 1125M556 1152L653 1138M556 1152L529 1205M556 1152L604 1246M639 1125L653 1138M653 1138L761 1133M761 1133L851 1133M851 1133L945 1146M945 1146L969 1184M969 1184L953 1248M969 1184L1014 1263M1099 1147L1126 1125M1099 1147L1151 1215M1126 1125L1151 1215M1262 1121L1327 1148M1327 1148L1377 1190M1377 1190L1450 1194M1377 1190L1409 1229M1377 1190L1377 1283M1450 1194L1409 1229M1450 1194L1486 1259M1450 1194L1533 1221M1450 1194L1461 1287M1556 1128L1606 1182M1556 1128L1533 1221M1606 1182L1533 1221M1606 1182L1628 1232M1750 1141L1776 1181M1750 1141L1740 1205M1776 1181L1740 1205M1776 1181L1788 1251M1776 1181L1857 1212M1897 1173L1935 1181M1897 1173L1857 1212M1897 1173L1924 1231M1935 1181L1857 1212M1935 1181L1924 1231M2078 1171L2120 1135M2078 1171L2063 1260M2078 1171L2069 1285M2120 1135L2203 1129M2203 1129L2252 1193M2252 1193L2232 1275M2252 1193L2263 1244M2252 1193L2341 1229M2355 1163L2341 1229M2476 1166L2544 1161M2476 1166L2535 1219M2544 1161L2535 1219M60 1273L28 1281M60 1273L111 1298M143 1216L240 1243M143 1216L111 1298M240 1243L305 1219M240 1243L233 1336M305 1219L344 1212M305 1219L359 1313M344 1212L433 1235M344 1212L359 1313M433 1235L529 1205M433 1235L359 1313M433 1235L455 1288M529 1205L604 1246M604 1246L712 1260M604 1246L564 1315M712 1260L800 1240M712 1260L653 1348M712 1260L735 1292M800 1240L833 1258M800 1240L735 1292M800 1240L820 1307M833 1258L735 1292M833 1258L820 1307M833 1258L812 1378M953 1248L1014 1263M953 1248L924 1341M953 1248L1002 1295M1014 1263L1067 1239M1014 1263L1002 1295M1014 1263L1085 1316M1067 1239L1151 1215M1067 1239L1002 1295M1067 1239L1085 1316M1067 1239L1145 1306M1151 1215L1213 1263M1151 1215L1145 1306M1213 1263L1325 1264M1213 1263L1145 1306M1213 1263L1236 1280M1325 1264L1236 1280M1325 1264L1337 1305M1325 1264L1377 1283M1409 1229L1486 1259M1409 1229L1377 1283M1409 1229L1461 1287M1486 1259L1533 1221M1486 1259L1461 1287M1628 1232L1581 1301M1628 1232L1632 1313M1628 1232L1690 1291M1740 1205L1788 1251M1740 1205L1690 1291M1788 1251L1857 1212M1788 1251L1690 1291M1788 1251L1831 1308M1857 1212L1924 1231M1924 1231L1831 1308M1924 1231L1936 1290M2063 1260L2147 1278M2063 1260L2069 1285M2063 1260L2085 1351M2147 1278L2232 1275M2147 1278L2069 1285M2147 1278L2085 1351M2147 1278L2200 1311M2232 1275L2263 1244M2232 1275L2200 1311M2232 1275L2283 1341M2263 1244L2341 1229M2263 1244L2328 1293M2341 1229L2433 1276M2341 1229L2328 1293M2433 1276L2453 1312M2433 1276L2521 1312M2433 1276L2401 1369M2535 1219L2588 1281M2535 1219L2521 1312M-25 1219L28 1281M28 1281L111 1298M28 1281L-39 1312M28 1281L-11 1376M2588 1281L2521 1312M2588 1281L2549 1376M111 1298L137 1391M111 1298L163 1361M233 1336L300 1356M233 1336L137 1391M233 1336L163 1361M233 1336L294 1405M300 1356L359 1313M300 1356L294 1405M359 1313L455 1288M455 1288L537 1330M537 1330L564 1315M537 1330L465 1381M537 1330L485 1393M537 1330L573 1361M564 1315L653 1348M564 1315L573 1361M653 1348L735 1292M653 1348L573 1361M653 1348L647 1412M735 1292L820 1307M820 1307L924 1341M820 1307L812 1378M924 1341L954 1361M924 1341L998 1424M1002 1295L1085 1316M1002 1295L954 1361M1085 1316L1145 1306M1085 1316L1071 1397M1145 1306L1236 1280M1236 1280L1337 1305M1337 1305L1377 1283M1337 1305L1419 1373M1377 1283L1461 1287M1461 1287L1419 1373M1581 1301L1632 1313M1581 1301L1534 1387M1632 1313L1690 1291M1632 1313L1614 1418M1632 1313L1695 1372M1690 1291L1695 1372M1831 1308L1862 1335M1831 1308L1936 1290M1831 1308L1842 1365M1862 1335L1936 1290M1862 1335L1842 1365M1862 1335L1955 1418M2069 1285L2085 1351M2085 1351L2068 1399M2085 1351L2120 1437M2200 1311L2283 1341M2200 1311L2208 1400M2283 1341L2328 1293M2283 1341L2304 1399M2283 1341L2323 1393M2328 1293L2401 1369M2453 1312L2521 1312M2453 1312L2401 1369M2521 1312L2549 1376M8 1405L-11 1376M2568 1405L2549 1376M137 1391L163 1361M393 1427L465 1381M393 1427L485 1393M465 1381L485 1393M573 1361L647 1412M647 1412L727 1422M727 1422L812 1378M954 1361L998 1424M998 1424L1071 1397M1071 1397L1160 1416M1160 1416L1279 1404M1279 1404L1328 1413M1328 1413L1419 1373M1419 1373L1445 1405M1445 1405L1534 1387M1534 1387L1614 1418M1614 1418L1695 1372M1695 1372L1774 1421M1774 1421L1842 1365M1955 1418L2068 1399M2068 1399L2120 1437M2208 1400L2304 1399M2208 1400L2323 1393M2304 1399L2323 1393M2304 1399L2401 1369M2323 1393L2401 1369"/></svg>