<svg xmlns="http://www.w3.org/2000/svg" width="2560" height="1440" fill="#fff"><circle cx="15" cy="33" r="5"/><circle cx="97" cy="33" r="6"/><circle cx="204" cy="31" r="5"/><circle cx="316" cy="74" r="5"/><circle cx="381" cy="52" r="6"/><circle cx="445" cy="1" r="5"/><circle cx="445" cy="1441" r="5"/><circle cx="505" cy="26" r="4"/><circle cx="609" cy="72" r="6"/><circle cx="668" cy="45" r="4"/><circle cx="770" cy="2" r="5"/><circle cx="770" cy="1442" r="5"/><circle cx="880" cy="39" r="4"/><circle cx="887" cy="48" r="6"/><circle cx="994" cy="14" r="5"/><circle cx="1081" cy="47" r="5"/><circle cx="1171" cy="63" r="4"/><circle cx="1261" cy="80" r="4"/><circle cx="1299" cy="79" r="5"/><circle cx="1407" cy="23" r="6"/><circle cx="1468" cy="31" r="5"/><circle cx="1546" cy="30" r="6"/><circle cx="1617" cy="66" r="4"/><circle cx="1701" cy="33" r="6"/><circle cx="1787" cy="18" r="5"/><circle cx="1916" cy="19" r="6"/><circle cx="1950" cy="31" r="5"/><circle cx="2062" cy="71" r="4"/><circle cx="2113" cy="79" r="5"/><circle cx="2173" cy="74" r="5"/><circle cx="2292" cy="68" r="5"/><circle cx="2345" cy="21" r="5"/><circle cx="2420" cy="25" r="5"/><circle cx="2543" cy="10" r="5"/><circle cx="78" cy="103" r="4"/><circle cx="122" cy="117" r="5"/><circle cx="231" cy="81" r="5"/><circle cx="316" cy="123" r="5"/><circle cx="370" cy="143" r="5"/><circle cx="430" cy="102" r="5"/><circle cx="491" cy="156" r="6"/><circle cx="576" cy="85" r="5"/><circle cx="641" cy="116" r="4"/><circle cx="784" cy="126" r="4"/><circle cx="838" cy="152" r="5"/><circle cx="936" cy="136" r="6"/><circle cx="980" cy="121" r="5"/><circle cx="1109" cy="124" r="6"/><circle cx="1188" cy="93" r="6"/><circle cx="1215" cy="149" r="5"/><circle cx="1307" cy="82" r="6"/><circle cx="1377" cy="139" r="6"/><circle cx="1480" cy="111" r="5"/><circle cx="1585" cy="130" r="6"/><circle cx="1649" cy="148" r="4"/><circle cx="1754" cy="105" r="4"/><circle cx="1796" cy="155" r="4"/><circle cx="1865" cy="92" r="6"/><circle cx="1977" cy="146" r="6"/><circle cx="2022" cy="142" r="4"/><circle cx="2087" cy="131" r="5"/><circle cx="2181" cy="150" r="4"/><circle cx="2276" cy="106" r="6"/><circle cx="2337" cy="88" r="5"/><circle cx="2430" cy="135" r="4"/><circle cx="2485" cy="82" r="5"/><circle cx="29" cy="236" r="5"/><circle cx="122" cy="215" r="6"/><circle cx="194" cy="193" r="5"/><circle cx="261" cy="226" r="5"/><circle cx="329" cy="195" r="4"/><circle cx="435" cy="206" r="6"/><circle cx="526" cy="188" r="6"/><circle cx="584" cy="212" r="5"/><circle cx="694" cy="181" r="6"/><circle cx="795" cy="231" r="6"/><circle cx="851" cy="205" r="4"/><circle cx="896" cy="221" r="5"/><circle cx="984" cy="201" r="5"/><circle cx="1040" cy="235" r="4"/><circle cx="1167" cy="169" r="6"/><circle cx="1255" cy="219" r="4"/><circle cx="1316" cy="209" r="6"/><circle cx="1380" cy="165" r="5"/><circle cx="1485" cy="204" r="5"/><circle cx="1543" cy="235" r="5"/><circle cx="1632" cy="199" r="4"/><circle cx="1710" cy="225" r="5"/><circle cx="1763" cy="171" r="4"/><circle cx="1854" cy="181" r="5"/><circle cx="1976" cy="231" r="6"/><circle cx="2003" cy="225" r="5"/><circle cx="2116" cy="214" r="5"/><circle cx="2201" cy="195" r="5"/><circle cx="2280" cy="169" r="5"/><circle cx="2357" cy="204" r="6"/><circle cx="2449" cy="213" r="4"/><circle cx="2546" cy="199" r="6"/><circle cx="4" cy="268" r="6"/><circle cx="2564" cy="268" r="6"/><circle cx="117" cy="278" r="5"/><circle cx="180" cy="269" r="5"/><circle cx="282" cy="318" r="5"/><circle cx="347" cy="285" r="4"/><circle cx="470" cy="255" r="5"/><circle cx="502" cy="248" r="5"/><circle cx="575" cy="266" r="4"/><circle cx="710" cy="279" r="6"/><circle cx="722" cy="249" r="4"/><circle cx="827" cy="316" r="4"/><circle cx="929" cy="310" r="5"/><circle cx="981" cy="297" r="6"/><circle cx="1040" cy="319" r="6"/><circle cx="1187" cy="306" r="5"/><circle cx="1236" cy="297" r="5"/><circle cx="1297" cy="270" r="5"/><circle cx="1420" cy="274" r="5"/><circle cx="1510" cy="319" r="4"/><circle cx="1560" cy="263" r="6"/><circle cx="1614" cy="295" r="4"/><circle cx="1738" cy="263" r="5"/><circle cx="1837" cy="265" r="5"/><circle cx="1899" cy="306" r="5"/><circle cx="1977" cy="244" r="6"/><circle cx="2024" cy="301" r="5"/><circle cx="2131" cy="261" r="6"/><circle cx="2229" cy="313" r="4"/><circle cx="2320" cy="303" r="5"/><circle cx="2374" cy="307" r="5"/><circle cx="2446" cy="288" r="4"/><circle cx="2551" cy="280" r="6"/><circle cx="22" cy="338" r="5"/><circle cx="96" cy="379" r="4"/><circle cx="183" cy="351" r="6"/><circle cx="289" cy="390" r="5"/><circle cx="353" cy="395" r="5"/><circle cx="407" cy="360" r="5"/><circle cx="508" cy="365" r="6"/><circle cx="604" cy="333" r="6"/><circle cx="695" cy="352" r="6"/><circle cx="735" cy="332" r="4"/><circle cx="850" cy="367" r="5"/><circle cx="955" cy="379" r="6"/><circle cx="1037" cy="378" r="6"/><circle cx="1102" cy="394" r="5"/><circle cx="1164" cy="353" r="6"/><circle cx="1260" cy="391" r="4"/><circle cx="1284" cy="329" r="5"/><circle cx="1427" cy="364" r="6"/><circle cx="1482" cy="381" r="5"/><circle cx="1586" cy="370" r="6"/><circle cx="1642" cy="322" r="4"/><circle cx="1722" cy="399" r="5"/><circle cx="1834" cy="322" r="5"/><circle cx="1866" cy="388" r="5"/><circle cx="1943" cy="368" r="4"/><circle cx="2032" cy="321" r="5"/><circle cx="2100" cy="366" r="4"/><circle cx="2195" cy="384" r="5"/><circle cx="2268" cy="367" r="6"/><circle cx="2391" cy="382" r="6"/><circle cx="2468" cy="353" r="5"/><circle cx="2497" cy="334" r="5"/><circle cx="41" cy="429" r="5"/><circle cx="127" cy="424" r="6"/><circle cx="192" cy="470" r="5"/><circle cx="249" cy="474" r="5"/><circle cx="348" cy="414" r="6"/><circle cx="413" cy="412" r="5"/><circle cx="555" cy="458" r="6"/><circle cx="620" cy="416" r="5"/><circle cx="640" cy="404" r="4"/><circle cx="779" cy="418" r="5"/><circle cx="824" cy="408" r="5"/><circle cx="938" cy="464" r="6"/><circle cx="1017" cy="402" r="5"/><circle cx="1045" cy="436" r="5"/><circle cx="1165" cy="446" r="6"/><circle cx="1254" cy="443" r="6"/><circle cx="1351" cy="400" r="4"/><circle cx="1390" cy="411" r="6"/><circle cx="1481" cy="475" r="4"/><circle cx="1541" cy="424" r="6"/><circle cx="1634" cy="413" r="6"/><circle cx="1715" cy="432" r="5"/><circle cx="1839" cy="463" r="6"/><circle cx="1849" cy="430" r="5"/><circle cx="1945" cy="475" r="4"/><circle cx="2018" cy="424" r="6"/><circle cx="2146" cy="437" r="5"/><circle cx="2209" cy="402" r="6"/><circle cx="2271" cy="431" r="5"/><circle cx="2343" cy="417" r="5"/><circle cx="2438" cy="415" r="5"/><circle cx="2493" cy="429" r="5"/><circle cx="72" cy="494" r="4"/><circle cx="154" cy="481" r="5"/><circle cx="172" cy="558" r="5"/><circle cx="269" cy="558" r="4"/><circle cx="391" cy="511" r="5"/><circle cx="480" cy="534" r="5"/><circle cx="545" cy="496" r="5"/><circle cx="569" cy="496" r="4"/><circle cx="699" cy="542" r="5"/><circle cx="727" cy="525" r="5"/><circle cx="823" cy="491" r="6"/><circle cx="943" cy="500" r="4"/><circle cx="963" cy="537" r="5"/><circle cx="1097" cy="496" r="6"/><circle cx="1157" cy="508" r="5"/><circle cx="1204" cy="511" r="4"/><circle cx="1288" cy="554" r="5"/><circle cx="1362" cy="486" r="5"/><circle cx="1455" cy="505" r="5"/><circle cx="1599" cy="556" r="4"/><circle cx="1651" cy="498" r="6"/><circle cx="1753" cy="499" r="4"/><circle cx="1795" cy="546" r="5"/><circle cx="1875" cy="541" r="5"/><circle cx="1995" cy="534" r="6"/><circle cx="2030" cy="485" r="5"/><circle cx="2089" cy="481" r="6"/><circle cx="2198" cy="551" r="5"/><circle cx="2273" cy="527" r="4"/><circle cx="2347" cy="526" r="4"/><circle cx="2412" cy="534" r="6"/><circle cx="2504" cy="493" r="5"/><circle cx="66" cy="636" r="5"/><circle cx="84" cy="630" r="6"/><circle cx="197" cy="615" r="4"/><circle cx="278" cy="588" r="5"/><circle cx="338" cy="592" r="4"/><circle cx="405" cy="563" r="6"/><circle cx="547" cy="565" r="5"/><circle cx="589" cy="576" r="5"/><circle cx="661" cy="631" r="6"/><circle cx="760" cy="562" r="4"/><circle cx="820" cy="574" r="6"/><circle cx="949" cy="601" r="4"/><circle cx="1007" cy="595" r="5"/><circle cx="1111" cy="571" r="5"/><circle cx="1179" cy="614" r="6"/><circle cx="1264" cy="633" r="5"/><circle cx="1332" cy="582" r="5"/><circle cx="1413" cy="630" r="5"/><circle cx="1474" cy="621" r="5"/><circle cx="1555" cy="636" r="6"/><circle cx="1605" cy="591" r="4"/><circle cx="1694" cy="597" r="5"/><circle cx="1772" cy="632" r="6"/><circle cx="1882" cy="591" r="4"/><circle cx="1924" cy="640" r="4"/><circle cx="2005" cy="595" r="6"/><circle cx="2140" cy="620" r="4"/><circle cx="2171" cy="602" r="4"/><circle cx="2259" cy="637" r="4"/><circle cx="2338" cy="626" r="4"/><circle cx="2408" cy="600" r="5"/><circle cx="2548" cy="573" r="5"/><circle cx="16" cy="699" r="6"/><circle cx="85" cy="644" r="5"/><circle cx="182" cy="703" r="4"/><circle cx="288" cy="693" r="5"/><circle cx="330" cy="685" r="6"/><circle cx="438" cy="664" r="4"/><circle cx="554" cy="703" r="5"/><circle cx="633" cy="706" r="4"/><circle cx="716" cy="714" r="5"/><circle cx="798" cy="681" r="5"/><circle cx="824" cy="656" r="5"/><circle cx="901" cy="708" r="5"/><circle cx="1033" cy="669" r="6"/><circle cx="1064" cy="642" r="5"/><circle cx="1162" cy="696" r="5"/><circle cx="1256" cy="711" r="5"/><circle cx="1281" cy="663" r="5"/><circle cx="1422" cy="682" r="6"/><circle cx="1449" cy="642" r="6"/><circle cx="1600" cy="698" r="5"/><circle cx="1608" cy="698" r="5"/><circle cx="1681" cy="694" r="4"/><circle cx="1798" cy="644" r="5"/><circle cx="1900" cy="647" r="5"/><circle cx="1957" cy="682" r="4"/><circle cx="2055" cy="711" r="6"/><circle cx="2119" cy="707" r="5"/><circle cx="2160" cy="679" r="6"/><circle cx="2285" cy="640" r="4"/><circle cx="2362" cy="643" r="6"/><circle cx="2444" cy="718" r="4"/><circle cx="2543" cy="680" r="5"/><circle cx="73" cy="725" r="4"/><circle cx="158" cy="752" r="5"/><circle cx="206" cy="794" r="6"/><circle cx="264" cy="754" r="5"/><circle cx="383" cy="739" r="6"/><circle cx="463" cy="771" r="4"/><circle cx="531" cy="751" r="6"/><circle cx="595" cy="770" r="5"/><circle cx="645" cy="751" r="5"/><circle cx="789" cy="767" r="5"/><circle cx="806" cy="784" r="6"/><circle cx="957" cy="786" r="5"/><circle cx="962" cy="787" r="5"/><circle cx="1054" cy="777" r="6"/><circle cx="1133" cy="774" r="4"/><circle cx="1266" cy="758" r="5"/><circle cx="1323" cy="774" r="4"/><circle cx="1367" cy="746" r="5"/><circle cx="1444" cy="724" r="5"/><circle cx="1563" cy="771" r="5"/><circle cx="1634" cy="796" r="6"/><circle cx="1735" cy="730" r="6"/><circle cx="1820" cy="775" r="5"/><circle cx="1867" cy="750" r="5"/><circle cx="1938" cy="734" r="4"/><circle cx="2058" cy="783" r="6"/><circle cx="2104" cy="770" r="5"/><circle cx="2206" cy="775" r="4"/><circle cx="2310" cy="779" r="6"/><circle cx="2340" cy="741" r="5"/><circle cx="2436" cy="775" r="6"/><circle cx="2485" cy="749" r="6"/><circle cx="46" cy="874" r="6"/><circle cx="158" cy="814" r="5"/><circle cx="178" cy="804" r="4"/><circle cx="243" cy="861" r="4"/><circle cx="322" cy="834" r="5"/><circle cx="468" cy="880" r="5"/><circle cx="504" cy="861" r="5"/><circle cx="570" cy="803" r="6"/><circle cx="665" cy="875" r="5"/><circle cx="723" cy="818" r="6"/><circle cx="857" cy="805" r="5"/><circle cx="908" cy="850" r="6"/><circle cx="987" cy="847" r="4"/><circle cx="1081" cy="875" r="5"/><circle cx="1162" cy="833" r="6"/><circle cx="1205" cy="850" r="5"/><circle cx="1310" cy="867" r="5"/><circle cx="1418" cy="823" r="5"/><circle cx="1487" cy="874" r="4"/><circle cx="1595" cy="844" r="4"/><circle cx="1625" cy="842" r="5"/><circle cx="1724" cy="800" r="4"/><circle cx="1792" cy="822" r="4"/><circle cx="1850" cy="844" r="5"/><circle cx="1975" cy="861" r="5"/><circle cx="2006" cy="842" r="5"/><circle cx="2104" cy="877" r="5"/><circle cx="2194" cy="827" r="6"/><circle cx="2292" cy="806" r="4"/><circle cx="2323" cy="817" r="5"/><circle cx="2461" cy="831" r="4"/><circle cx="2481" cy="806" r="4"/><circle cx="27" cy="921" r="5"/><circle cx="148" cy="938" r="5"/><circle cx="164" cy="909" r="6"/><circle cx="258" cy="915" r="4"/><circle cx="332" cy="955" r="6"/><circle cx="478" cy="900" r="4"/><circle cx="517" cy="924" r="5"/><circle cx="622" cy="886" r="4"/><circle cx="659" cy="956" r="5"/><circle cx="724" cy="917" r="5"/><circle cx="869" cy="925" r="4"/><circle cx="929" cy="930" r="6"/><circle cx="965" cy="912" r="5"/><circle cx="1110" cy="883" r="5"/><circle cx="1157" cy="929" r="4"/><circle cx="1225" cy="928" r="4"/><circle cx="1339" cy="923" r="5"/><circle cx="1363" cy="943" r="5"/><circle cx="1487" cy="891" r="5"/><circle cx="1550" cy="911" r="5"/><circle cx="1646" cy="900" r="6"/><circle cx="1697" cy="937" r="5"/><circle cx="1777" cy="949" r="4"/><circle cx="1849" cy="911" r="5"/><circle cx="1973" cy="938" r="6"/><circle cx="2053" cy="937" r="6"/><circle cx="2122" cy="940" r="4"/><circle cx="2224" cy="941" r="4"/><circle cx="2267" cy="940" r="4"/><circle cx="2350" cy="889" r="5"/><circle cx="2407" cy="931" r="5"/><circle cx="2547" cy="947" r="4"/><circle cx="52" cy="969" r="5"/><circle cx="153" cy="994" r="5"/><circle cx="214" cy="963" r="6"/><circle cx="269" cy="1010" r="6"/><circle cx="366" cy="974" r="6"/><circle cx="431" cy="981" r="6"/><circle cx="514" cy="962" r="5"/><circle cx="594" cy="1036" r="5"/><circle cx="665" cy="1023" r="5"/><circle cx="790" cy="964" r="5"/><circle cx="836" cy="1014" r="5"/><circle cx="949" cy="1003" r="5"/><circle cx="975" cy="1005" r="4"/><circle cx="1113" cy="982" r="4"/><circle cx="1171" cy="1019" r="4"/><circle cx="1275" cy="986" r="6"/><circle cx="1308" cy="1037" r="4"/><circle cx="1415" cy="998" r="5"/><circle cx="1464" cy="1035" r="5"/><circle cx="1578" cy="1040" r="5"/><circle cx="1603" cy="991" r="5"/><circle cx="1742" cy="998" r="6"/><circle cx="1806" cy="961" r="5"/><circle cx="1862" cy="1029" r="6"/><circle cx="1983" cy="984" r="5"/><circle cx="2077" cy="1016" r="5"/><circle cx="2113" cy="960" r="6"/><circle cx="2240" cy="992" r="6"/><circle cx="2250" cy="1008" r="5"/><circle cx="2362" cy="1023" r="6"/><circle cx="2429" cy="976" r="5"/><circle cx="2520" cy="1028" r="5"/><circle cx="50" cy="1087" r="6"/><circle cx="106" cy="1055" r="5"/><circle cx="206" cy="1090" r="5"/><circle cx="277" cy="1041" r="4"/><circle cx="393" cy="1063" r="5"/><circle cx="457" cy="1091" r="4"/><circle cx="533" cy="1112" r="5"/><circle cx="583" cy="1047" r="5"/><circle cx="709" cy="1051" r="4"/><circle cx="759" cy="1083" r="5"/><circle cx="854" cy="1097" r="6"/><circle cx="959" cy="1095" r="5"/><circle cx="1021" cy="1091" r="5"/><circle cx="1059" cy="1076" r="5"/><circle cx="1138" cy="1114" r="6"/><circle cx="1268" cy="1083" r="4"/><circle cx="1348" cy="1051" r="6"/><circle cx="1412" cy="1085" r="6"/><circle cx="1478" cy="1040" r="6"/><circle cx="1576" cy="1102" r="5"/><circle cx="1648" cy="1043" r="4"/><circle cx="1702" cy="1082" r="4"/><circle cx="1761" cy="1069" r="6"/><circle cx="1892" cy="1095" r="4"/><circle cx="1970" cy="1049" r="4"/><circle cx="2041" cy="1090" r="6"/><circle cx="2084" cy="1084" r="5"/><circle cx="2176" cy="1063" r="5"/><circle cx="2289" cy="1072" r="5"/><circle cx="2333" cy="1106" r="6"/><circle cx="2405" cy="1107" r="6"/><circle cx="2508" cy="1061" r="5"/><circle cx="18" cy="1178" r="5"/><circle cx="113" cy="1195" r="6"/><circle cx="236" cy="1177" r="6"/><circle cx="264" cy="1176" r="5"/><circle cx="333" cy="1148" r="4"/><circle cx="478" cy="1153" r="5"/><circle cx="547" cy="1131" r="5"/><circle cx="593" cy="1188" r="5"/><circle cx="669" cy="1187" r="5"/><circle cx="722" cy="1160" r="5"/><circle cx="873" cy="1170" r="6"/><circle cx="937" cy="1189" r="6"/><circle cx="986" cy="1130" r="6"/><circle cx="1107" cy="1192" r="4"/><circle cx="1188" cy="1179" r="6"/><circle cx="1273" cy="1143" r="4"/><circle cx="1286" cy="1124" r="5"/><circle cx="1364" cy="1187" r="6"/><circle cx="1467" cy="1151" r="4"/><circle cx="1554" cy="1165" r="4"/><circle cx="1665" cy="1175" r="5"/><circle cx="1720" cy="1125" r="6"/><circle cx="1770" cy="1197" r="5"/><circle cx="1868" cy="1147" r="4"/><circle cx="1960" cy="1196" r="6"/><circle cx="2035" cy="1157" r="6"/><circle cx="2146" cy="1150" r="4"/><circle cx="2231" cy="1157" r="4"/><circle cx="2264" cy="1163" r="5"/><circle cx="2372" cy="1181" r="5"/><circle cx="2460" cy="1199" r="5"/><circle cx="2490" cy="1176" r="5"/><circle cx="76" cy="1275" r="6"/><circle cx="96" cy="1232" r="4"/><circle cx="223" cy="1244" r="5"/><circle cx="313" cy="1234" r="5"/><circle cx="327" cy="1209" r="6"/><circle cx="451" cy="1221" r="5"/><circle cx="520" cy="1244" r="5"/><circle cx="636" cy="1260" r="5"/><circle cx="682" cy="1205" r="6"/><circle cx="738" cy="1273" r="4"/><circle cx="872" cy="1262" r="5"/><circle cx="933" cy="1253" r="5"/><circle cx="1002" cy="1228" r="5"/><circle cx="1062" cy="1222" r="5"/><circle cx="1179" cy="1224" r="6"/><circle cx="1279" cy="1231" r="5"/><circle cx="1352" cy="1205" r="4"/><circle cx="1432" cy="1234" r="5"/><circle cx="1457" cy="1218" r="6"/><circle cx="1521" cy="1206" r="6"/><circle cx="1607" cy="1218" r="4"/><circle cx="1723" cy="1261" r="5"/><circle cx="1765" cy="1217" r="5"/><circle cx="1867" cy="1222" r="5"/><circle cx="1931" cy="1233" r="5"/><circle cx="2068" cy="1231" r="5"/><circle cx="2104" cy="1229" r="4"/><circle cx="2164" cy="1210" r="5"/><circle cx="2296" cy="1211" r="6"/><circle cx="2344" cy="1268" r="5"/><circle cx="2410" cy="1220" r="4"/><circle cx="2519" cy="1213" r="6"/><circle cx="14" cy="1291" r="6"/><circle cx="93" cy="1345" r="6"/><circle cx="205" cy="1312" r="4"/><circle cx="283" cy="1283" r="6"/><circle cx="335" cy="1323" r="5"/><circle cx="419" cy="1312" r="6"/><circle cx="509" cy="1282" r="5"/><circle cx="588" cy="1282" r="5"/><circle cx="715" cy="1342" r="6"/><circle cx="788" cy="1296" r="4"/><circle cx="861" cy="1314" r="4"/><circle cx="911" cy="1340" r="5"/><circle cx="1016" cy="1325" r="5"/><circle cx="1081" cy="1282" r="4"/><circle cx="1187" cy="1306" r="5"/><circle cx="1212" cy="1349" r="4"/><circle cx="1312" cy="1326" r="6"/><circle cx="1380" cy="1318" r="5"/><circle cx="1444" cy="1356" r="4"/><circle cx="1550" cy="1335" r="5"/><circle cx="1645" cy="1312" r="6"/><circle cx="1757" cy="1360" r="5"/><circle cx="1803" cy="1334" r="5"/><circle cx="1893" cy="1342" r="4"/><circle cx="1932" cy="1352" r="5"/><circle cx="2049" cy="1313" r="5"/><circle cx="2094" cy="1334" r="5"/><circle cx="2220" cy="1331" r="6"/><circle cx="2248" cy="1316" r="5"/><circle cx="2321" cy="1335" r="5"/><circle cx="2474" cy="1298" r="6"/><circle cx="2543" cy="1290" r="4"/><circle cx="71" cy="1364" r="5"/><circle cx="114" cy="1438" r="4"/><circle cx="114" cy="-2" r="4"/><circle cx="232" cy="1392" r="5"/><circle cx="286" cy="1436" r="6"/><circle cx="286" cy="-4" r="6"/><circle cx="324" cy="1368" r="4"/><circle cx="419" cy="1383" r="5"/><circle cx="491" cy="1435" r="5"/><circle cx="491" cy="-5" r="5"/><circle cx="597" cy="1374" r="5"/><circle cx="713" cy="1361" r="4"/><circle cx="791" cy="1375" r="5"/><circle cx="810" cy="1429" r="5"/><circle cx="954" cy="1396" r="6"/><circle cx="1036" cy="1426" r="6"/><circle cx="1120" cy="1397" r="6"/><circle cx="1160" cy="1436" r="5"/><circle cx="1160" cy="-4" r="5"/><circle cx="1219" cy="1380" r="5"/><circle cx="1319" cy="1378" r="6"/><circle cx="1402" cy="1370" r="6"/><circle cx="1454" cy="1427" r="5"/><circle cx="1569" cy="1362" r="4"/><circle cx="1670" cy="1364" r="5"/><circle cx="1722" cy="1408" r="4"/><circle cx="1828" cy="1374" r="5"/><circle cx="1844" cy="1417" r="4"/><circle cx="1956" cy="1411" r="6"/><circle cx="2016" cy="1433" r="5"/><circle cx="2111" cy="1416" r="5"/><circle cx="2234" cy="1393" r="6"/><circle cx="2273" cy="1381" r="5"/><circle cx="2362" cy="1431" r="5"/><circle cx="2439" cy="1423" r="5"/><circle cx="2560" cy="1386" r="6"/><circle cx="-0" cy="1386" r="6"/><path stroke="#fff" d="M15 33L97 33M15 33L-17 10M15 33L78 103M15 33L-75 82M15 33L-0 -54M2575 33L2543 10M2575 33L2485 82M2575 33L2560 -54M15 1473L-0 1386M2575 1473L2560 1386M97 33L204 31M97 33L78 103M97 33L122 117M97 33L114 -2M97 1473L114 1438M204 31L231 81M204 31L114 -2M204 31L232 -48M204 31L286 -4M204 1471L114 1438M204 1471L232 1392M204 1471L286 1436M316 74L381 52M316 74L231 81M316 74L316 123M316 74L286 -4M316 1514L286 1436M381 52L445 1M381 52L316 123M381 52L370 143M381 52L430 102M445 1L505 26M445 1L430 102M445 1L419 -57M445 1L491 -5M445 1441L419 1383M445 1441L491 1435M505 26L609 72M505 26L576 85M505 26L491 -5M505 1466L491 1435M609 72L668 45M609 72L576 85M609 72L641 116M668 45L576 85M668 45L641 116M770 2L715 -98M770 2L713 -79M770 2L791 -65M770 2L810 -11M770 1442L715 1342M770 1442L713 1361M770 1442L791 1375M770 1442L810 1429M880 39L887 48M880 39L810 -11M880 1479L810 1429M887 48L994 14M887 48L936 136M887 48L810 -11M887 48L954 -44M887 1488L810 1429M887 1488L954 1396M994 14L1081 47M994 14L980 121M994 14L954 -44M994 14L1036 -14M994 1454L954 1396M994 1454L1036 1426M1081 47L1109 124M1081 47L1036 -14M1081 47L1120 -43M1081 47L1160 -4M1081 1487L1036 1426M1081 1487L1120 1397M1081 1487L1160 1436M1171 63L1109 124M1171 63L1188 93M1171 63L1167 169M1171 63L1160 -4M1171 1503L1160 1436M1261 80L1299 79M1261 80L1188 93M1261 80L1215 149M1261 80L1307 82M1299 79L1307 82M1299 79L1377 139M1407 23L1468 31M1407 23L1307 82M1407 23L1377 139M1407 23L1402 -70M1407 23L1454 -13M1407 1463L1402 1370M1407 1463L1454 1427M1468 31L1546 30M1468 31L1480 111M1468 31L1454 -13M1468 1471L1454 1427M1546 30L1617 66M1546 30L1480 111M1546 30L1585 130M1546 30L1454 -13M1546 1470L1454 1427M1617 66L1701 33M1617 66L1585 130M1617 66L1649 148M1701 33L1787 18M1701 33L1754 105M1701 33L1670 -76M1701 33L1722 -32M1701 1473L1670 1364M1701 1473L1722 1408M1787 18L1865 92M1787 18L1722 -32M1787 18L1828 -66M1787 18L1844 -23M1787 1458L1722 1408M1787 1458L1828 1374M1787 1458L1844 1417M1916 19L1950 31M1916 19L1865 92M1916 19L1932 -88M1916 19L1844 -23M1916 19L1956 -29M1916 1459L1932 1352M1916 1459L1844 1417M1916 1459L1956 1411M1950 31L1865 92M1950 31L1956 -29M1950 31L2016 -7M1950 1471L1956 1411M1950 1471L2016 1433M2062 71L2113 79M2062 71L2022 142M2062 71L2087 131M2062 71L2016 -7M2062 1511L2016 1433M2113 79L2173 74M2113 79L2087 131M2113 79L2181 150M2113 79L2111 -24M2113 1519L2111 1416M2173 74L2181 150M2173 74L2276 106M2173 74L2111 -24M2173 1514L2111 1416M2292 68L2345 21M2292 68L2276 106M2292 68L2337 88M2292 68L2280 169M2345 21L2420 25M2345 21L2337 88M2345 21L2362 -9M2345 21L2439 -17M2345 1461L2362 1431M2345 1461L2439 1423M2420 25L2337 88M2420 25L2485 82M2420 25L2362 -9M2420 25L2439 -17M2420 1465L2362 1431M2420 1465L2439 1423M2543 10L2485 82M2543 10L2439 -17M2543 10L2560 -54M2543 1450L2439 1423M2543 1450L2560 1386M78 103L122 117M122 117L231 81M122 117L122 215M122 117L194 193M231 81L316 123M231 81L286 -4M231 1521L286 1436M316 123L370 143M316 123L329 195M370 143L430 102M370 143L329 195M370 143L435 206M430 102L491 156M491 156L435 206M491 156L526 188M491 156L584 212M576 85L641 116M641 116L694 181M784 126L838 152M784 126L851 205M838 152L936 136M838 152L795 231M838 152L851 205M838 152L896 221M936 136L980 121M936 136L896 221M936 136L984 201M980 121L984 201M1109 124L1188 93M1109 124L1215 149M1109 124L1167 169M1188 93L1215 149M1188 93L1167 169M1215 149L1167 169M1215 149L1255 219M1307 82L1377 139M1307 82L1380 165M1377 139L1316 209M1377 139L1380 165M1480 111L1585 130M1480 111L1485 204M1585 130L1649 148M1585 130L1632 199M1649 148L1632 199M1649 148L1710 225M1754 105L1796 155M1754 105L1763 171M1796 155L1865 92M1796 155L1763 171M1796 155L1854 181M1865 92L1854 181M1977 146L2022 142M1977 146L1976 231M1977 146L2003 225M1977 146L1977 244M2022 142L2087 131M2022 142L2003 225M2087 131L2181 150M2087 131L2116 214M2181 150L2116 214M2181 150L2201 195M2276 106L2337 88M2276 106L2201 195M2276 106L2280 169M2337 88L2362 -9M2337 1528L2362 1431M2430 135L2485 82M2430 135L2357 204M2430 135L2449 213M2485 82L2439 -17M2485 1522L2439 1423M29 236L122 215M29 236L-14 199M29 236L4 268M29 236L117 278M29 236L-9 280M2589 236L2546 199M2589 236L2551 280M122 215L194 193M122 215L117 278M122 215L180 269M194 193L261 226M194 193L180 269M261 226L329 195M261 226L180 269M261 226L282 318M261 226L347 285M329 195L347 285M435 206L526 188M435 206L470 255M435 206L502 248M526 188L584 212M526 188L470 255M526 188L502 248M584 212L694 181M584 212L502 248M584 212L575 266M694 181L710 279M694 181L722 249M795 231L851 205M795 231L896 221M795 231L710 279M795 231L722 249M851 205L896 221M896 221L984 201M984 201L1040 235M1040 235L981 297M1040 235L1040 319M1167 169L1255 219M1255 219L1316 209M1255 219L1236 297M1255 219L1297 270M1316 209L1380 165M1316 209L1297 270M1380 165L1485 204M1380 165L1420 274M1485 204L1543 235M1485 204L1420 274M1485 204L1560 263M1543 235L1632 199M1543 235L1510 319M1543 235L1560 263M1543 235L1614 295M1632 199L1710 225M1710 225L1763 171M1710 225L1738 263M1763 171L1854 181M1763 171L1738 263M1854 181L1837 265M1976 231L2003 225M1976 231L1977 244M1976 231L2024 301M1976 231L2032 321M2003 225L1977 244M2003 225L2024 301M2116 214L2201 195M2116 214L2131 261M2201 195L2280 169M2201 195L2131 261M2280 169L2357 204M2357 204L2449 213M2357 204L2320 303M2357 204L2374 307M2449 213L2546 199M2449 213L2446 288M2546 199L2564 268M2546 199L2551 280M-14 199L4 268M4 268L-9 280M4 268L22 338M4 268L-63 334M2564 268L2551 280M2564 268L2497 334M117 278L180 269M117 278L96 379M117 278L183 351M180 269L183 351M282 318L347 285M282 318L183 351M282 318L289 390M282 318L353 395M347 285L407 360M470 255L502 248M470 255L575 266M502 248L575 266M575 266L604 333M710 279L722 249M710 279L695 352M710 279L735 332M722 249L735 332M827 316L929 310M827 316L735 332M827 316L850 367M827 316L824 408M929 310L981 297M929 310L850 367M929 310L955 379M981 297L1040 319M981 297L955 379M1040 319L1037 378M1040 319L1017 402M1187 306L1236 297M1187 306L1297 270M1187 306L1164 353M1187 306L1284 329M1236 297L1297 270M1236 297L1164 353M1236 297L1284 329M1297 270L1284 329M1420 274L1427 364M1510 319L1560 263M1510 319L1427 364M1510 319L1482 381M1510 319L1586 370M1560 263L1614 295M1614 295L1586 370M1614 295L1642 322M1738 263L1837 265M1738 263L1642 322M1738 263L1834 322M1837 265L1899 306M1837 265L1834 322M1899 306L1834 322M1899 306L1866 388M1899 306L1943 368M1977 244L2024 301M1977 244L2032 321M2024 301L2131 261M2024 301L2032 321M2131 261L2100 366M2229 313L2320 303M2229 313L2195 384M2229 313L2268 367M2229 313L2209 402M2320 303L2374 307M2320 303L2268 367M2320 303L2391 382M2374 307L2446 288M2374 307L2391 382M2446 288L2468 353M2446 288L2497 334M2551 280L2582 338M2551 280L2497 334M-9 280L22 338M22 338L96 379M22 338L-63 334M22 338L41 429M2582 338L2497 334M96 379L183 351M96 379L41 429M96 379L127 424M183 351L127 424M289 390L353 395M289 390L249 474M289 390L348 414M353 395L407 360M353 395L348 414M353 395L413 412M407 360L508 365M407 360L348 414M407 360L413 412M508 365L604 333M508 365L413 412M508 365L555 458M604 333L695 352M604 333L620 416M604 333L640 404M695 352L735 332M695 352L620 416M695 352L640 404M735 332L779 418M850 367L779 418M850 367L824 408M955 379L1037 378M955 379L938 464M955 379L1017 402M1037 378L1102 394M1037 378L1017 402M1037 378L1045 436M1102 394L1164 353M1102 394L1017 402M1102 394L1045 436M1102 394L1165 446M1164 353L1260 391M1260 391L1284 329M1260 391L1254 443M1260 391L1351 400M1427 364L1482 381M1427 364L1351 400M1427 364L1390 411M1482 381L1390 411M1482 381L1541 424M1586 370L1642 322M1586 370L1541 424M1586 370L1634 413M1642 322L1722 399M1722 399L1634 413M1722 399L1715 432M1722 399L1753 499M1834 322L1866 388M1834 322L1849 430M1866 388L1943 368M1866 388L1839 463M1866 388L1849 430M1943 368L2018 424M2032 321L2100 366M2032 321L2018 424M2100 366L2146 437M2195 384L2268 367M2195 384L2146 437M2195 384L2209 402M2195 384L2271 431M2268 367L2209 402M2268 367L2271 431M2391 382L2468 353M2391 382L2343 417M2391 382L2438 415M2468 353L2497 334M2468 353L2438 415M2468 353L2493 429M41 429L127 424M41 429L-67 429M41 429L72 494M2601 429L2493 429M127 424L192 470M127 424L154 481M192 470L249 474M192 470L154 481M192 470L172 558M249 474L154 481M249 474L269 558M348 414L413 412M348 414L391 511M413 412L391 511M555 458L620 416M555 458L545 496M555 458L569 496M555 458L547 565M620 416L640 404M620 416L569 496M779 418L824 408M779 418L823 491M824 408L823 491M938 464L1045 436M938 464L943 500M938 464L963 537M1017 402L1045 436M1045 436L1097 496M1165 446L1254 443M1165 446L1097 496M1165 446L1157 508M1165 446L1204 511M1254 443L1351 400M1254 443L1204 511M1351 400L1390 411M1351 400L1362 486M1390 411L1362 486M1390 411L1455 505M1481 475L1541 424M1481 475L1455 505M1541 424L1634 413M1541 424L1455 505M1634 413L1715 432M1634 413L1651 498M1715 432L1651 498M1715 432L1753 499M1839 463L1849 430M1839 463L1753 499M1839 463L1795 546M1839 463L1875 541M1849 430L1945 475M1945 475L2018 424M1945 475L1875 541M1945 475L1995 534M1945 475L2030 485M2018 424L2030 485M2018 424L2089 481M2146 437L2209 402M2146 437L2089 481M2209 402L2271 431M2271 431L2343 417M2271 431L2273 527M2343 417L2438 415M2438 415L2493 429M2438 415L2504 493M2493 429L2504 493M72 494L154 481M154 481L172 558M172 558L269 558M172 558L197 615M269 558L197 615M269 558L278 588M269 558L338 592M391 511L480 534M391 511L338 592M391 511L405 563M480 534L545 496M480 534L405 563M480 534L547 565M545 496L569 496M545 496L547 565M545 496L589 576M569 496L547 565M569 496L589 576M699 542L727 525M699 542L589 576M699 542L661 631M699 542L760 562M727 525L823 491M727 525L760 562M727 525L820 574M823 491L760 562M823 491L820 574M943 500L963 537M943 500L949 601M963 537L949 601M963 537L1007 595M1097 496L1157 508M1097 496L1111 571M1157 508L1204 511M1157 508L1111 571M1157 508L1179 614M1204 511L1288 554M1204 511L1179 614M1288 554L1362 486M1288 554L1264 633M1288 554L1332 582M1288 554L1281 663M1362 486L1455 505M1362 486L1332 582M1599 556L1651 498M1599 556L1555 636M1599 556L1605 591M1599 556L1694 597M1651 498L1753 499M1651 498L1694 597M1753 499L1795 546M1795 546L1875 541M1795 546L1772 632M1795 546L1798 644M1875 541L1882 591M1995 534L2030 485M1995 534L2089 481M1995 534L2005 595M2030 485L2089 481M2030 485L2005 595M2089 481L2198 551M2198 551L2273 527M2198 551L2140 620M2198 551L2171 602M2198 551L2259 637M2273 527L2347 526M2273 527L2285 640M2347 526L2412 534M2347 526L2338 626M2347 526L2408 600M2412 534L2504 493M2412 534L2408 600M2504 493L2548 573M66 636L84 630M66 636L-12 573M66 636L16 699M66 636L85 644M66 636L-17 680M2626 636L2548 573M2626 636L2543 680M84 630L-12 573M84 630L16 699M84 630L85 644M84 630L73 725M2644 630L2548 573M197 615L278 588M197 615L182 703M278 588L338 592M278 588L288 693M278 588L330 685M338 592L405 563M338 592L330 685M405 563L438 664M547 565L589 576M589 576L661 631M661 631L633 706M661 631L716 714M760 562L820 574M820 574L798 681M820 574L824 656M949 601L1007 595M949 601L1033 669M1007 595L1111 571M1007 595L1033 669M1007 595L1064 642M1111 571L1179 614M1111 571L1064 642M1179 614L1264 633M1179 614L1162 696M1264 633L1332 582M1264 633L1256 711M1264 633L1281 663M1332 582L1413 630M1332 582L1281 663M1413 630L1474 621M1413 630L1422 682M1413 630L1449 642M1413 630L1444 724M1474 621L1555 636M1474 621L1422 682M1474 621L1449 642M1555 636L1605 591M1555 636L1600 698M1555 636L1608 698M1605 591L1694 597M1694 597L1772 632M1694 597L1681 694M1772 632L1798 644M1772 632L1735 730M1882 591L1924 640M1882 591L1798 644M1882 591L1900 647M1924 640L2005 595M1924 640L1900 647M1924 640L1957 682M1924 640L1938 734M2005 595L1957 682M2140 620L2171 602M2140 620L2119 707M2140 620L2160 679M2171 602L2160 679M2259 637L2338 626M2259 637L2285 640M2259 637L2362 643M2338 626L2408 600M2338 626L2285 640M2338 626L2362 643M2408 600L2362 643M2548 573L2543 680M16 699L85 644M16 699L-17 680M16 699L73 725M2576 699L2543 680M85 644L73 725M182 703L288 693M182 703L158 752M182 703L264 754M288 693L330 685M288 693L264 754M288 693L383 739M330 685L264 754M330 685L383 739M438 664L383 739M554 703L633 706M554 703L531 751M554 703L595 770M554 703L570 803M633 706L716 714M633 706L595 770M633 706L645 751M716 714L798 681M716 714L645 751M716 714L789 767M798 681L824 656M798 681L789 767M798 681L806 784M824 656L901 708M901 708L957 786M901 708L962 787M901 708L857 805M1033 669L1064 642M1033 669L1054 777M1064 642L1162 696M1162 696L1256 711M1162 696L1133 774M1256 711L1281 663M1256 711L1266 758M1256 711L1323 774M1281 663L1266 758M1422 682L1449 642M1422 682L1367 746M1422 682L1444 724M1449 642L1444 724M1600 698L1608 698M1600 698L1681 694M1600 698L1563 771M1608 698L1681 694M1608 698L1563 771M1681 694L1735 730M1798 644L1900 647M1798 644L1735 730M1900 647L1957 682M1900 647L1938 734M1957 682L2055 711M1957 682L1938 734M2055 711L2119 707M2055 711L2160 679M2055 711L2058 783M2055 711L2104 770M2119 707L2160 679M2119 707L2058 783M2119 707L2104 770M2160 679L2104 770M2285 640L2362 643M2362 643L2340 741M2444 718L2436 775M2444 718L2485 749M2444 718L2481 806M2543 680L2633 725M2543 680L2485 749M-17 680L73 725M73 725L158 752M158 752L206 794M158 752L158 814M158 752L178 804M206 794L264 754M206 794L158 814M206 794L178 804M206 794L243 861M264 754L322 834M383 739L463 771M383 739L322 834M463 771L531 751M531 751L595 770M531 751L570 803M595 770L645 751M595 770L570 803M645 751L570 803M645 751L723 818M789 767L806 784M789 767L723 818M789 767L857 805M806 784L723 818M806 784L857 805M957 786L962 787M957 786L1054 777M957 786L908 850M957 786L987 847M962 787L1054 777M962 787L908 850M962 787L987 847M1054 777L1133 774M1054 777L1081 875M1133 774L1162 833M1266 758L1323 774M1266 758L1367 746M1323 774L1367 746M1323 774L1310 867M1323 774L1418 823M1367 746L1444 724M1367 746L1418 823M1444 724L1418 823M1563 771L1634 796M1563 771L1595 844M1563 771L1625 842M1634 796L1595 844M1634 796L1625 842M1634 796L1724 800M1634 796L1646 900M1735 730L1820 775M1735 730L1724 800M1820 775L1867 750M1820 775L1724 800M1820 775L1792 822M1820 775L1850 844M1867 750L1938 734M1867 750L1792 822M1867 750L1850 844M2058 783L2104 770M2058 783L2006 842M2058 783L2104 877M2104 770L2194 827M2206 775L2310 779M2206 775L2194 827M2206 775L2292 806M2206 775L2323 817M2310 779L2340 741M2310 779L2292 806M2310 779L2323 817M2310 779L2350 889M2340 741L2436 775M2340 741L2292 806M2340 741L2323 817M2436 775L2485 749M2436 775L2461 831M2436 775L2481 806M2485 749L2461 831M2485 749L2481 806M46 874L27 921M46 874L148 938M46 874L-13 947M46 874L52 969M2606 874L2547 947M158 814L178 804M158 814L164 909M178 804L243 861M243 861L322 834M243 861L258 915M468 880L504 861M468 880L478 900M468 880L517 924M468 880L514 962M504 861L570 803M504 861L478 900M504 861L517 924M504 861L514 962M665 875L723 818M665 875L622 886M665 875L659 956M665 875L724 917M723 818L724 917M857 805L908 850M908 850L987 847M908 850L929 930M987 847L965 912M1081 875L1162 833M1081 875L1110 883M1081 875L1113 982M1162 833L1205 850M1162 833L1110 883M1162 833L1157 929M1205 850L1310 867M1205 850L1110 883M1205 850L1157 929M1205 850L1225 928M1310 867L1225 928M1310 867L1339 923M1310 867L1363 943M1418 823L1487 874M1418 823L1487 891M1487 874L1487 891M1487 874L1550 911M1595 844L1625 842M1595 844L1550 911M1595 844L1646 900M1625 842L1646 900M1724 800L1792 822M1792 822L1850 844M1792 822L1849 911M1850 844L1849 911M1975 861L2006 842M1975 861L1973 938M2006 842L1973 938M2104 877L2194 827M2104 877L2053 937M2104 877L2122 940M2104 877L2113 960M2194 827L2292 806M2292 806L2323 817M2323 817L2350 889M2461 831L2481 806M2461 831L2407 931M27 921L-13 947M27 921L52 969M27 921L-40 1028M2587 921L2547 947M2587 921L2520 1028M148 938L164 909M148 938L153 994M148 938L214 963M164 909L258 915M164 909L153 994M164 909L214 963M258 915L332 955M258 915L214 963M332 955L269 1010M332 955L366 974M332 955L431 981M478 900L517 924M478 900L431 981M478 900L514 962M517 924L514 962M622 886L659 956M622 886L724 917M659 956L724 917M659 956L594 1036M659 956L665 1023M724 917L790 964M869 925L929 930M869 925L965 912M869 925L790 964M869 925L836 1014M929 930L965 912M929 930L949 1003M929 930L975 1005M965 912L949 1003M965 912L975 1005M1110 883L1157 929M1110 883L1113 982M1157 929L1225 928M1157 929L1113 982M1225 928L1275 986M1339 923L1363 943M1339 923L1275 986M1363 943L1275 986M1363 943L1415 998M1487 891L1550 911M1550 911L1646 900M1550 911L1603 991M1646 900L1697 937M1697 937L1777 949M1697 937L1603 991M1697 937L1742 998M1777 949L1849 911M1777 949L1742 998M1777 949L1806 961M1849 911L1806 961M1849 911L1862 1029M1973 938L2053 937M1973 938L1983 984M1973 938L1970 1049M2053 937L2122 940M2053 937L1983 984M2053 937L2113 960M2122 940L2224 941M2122 940L2077 1016M2122 940L2113 960M2224 941L2267 940M2224 941L2113 960M2224 941L2240 992M2224 941L2250 1008M2267 940L2350 889M2267 940L2240 992M2267 940L2250 1008M2350 889L2407 931M2350 889L2429 976M2407 931L2362 1023M2407 931L2429 976M2547 947L2612 969M2547 947L2520 1028M-13 947L52 969M52 969L106 1055M153 994L214 963M153 994L106 1055M153 994L206 1090M214 963L269 1010M269 1010L366 974M269 1010L206 1090M269 1010L277 1041M366 974L431 981M366 974L277 1041M366 974L393 1063M431 981L514 962M431 981L393 1063M594 1036L665 1023M594 1036L583 1047M665 1023L583 1047M665 1023L709 1051M665 1023L759 1083M790 964L836 1014M790 964L709 1051M836 1014L949 1003M836 1014L759 1083M836 1014L854 1097M949 1003L975 1005M949 1003L959 1095M975 1005L1021 1091M1113 982L1171 1019M1113 982L1059 1076M1171 1019L1138 1114M1275 986L1308 1037M1275 986L1348 1051M1308 1037L1268 1083M1308 1037L1348 1051M1308 1037L1286 1124M1415 998L1464 1035M1415 998L1348 1051M1415 998L1412 1085M1415 998L1478 1040M1464 1035L1578 1040M1464 1035L1412 1085M1464 1035L1478 1040M1578 1040L1603 991M1578 1040L1478 1040M1578 1040L1576 1102M1578 1040L1648 1043M1603 991L1648 1043M1742 998L1806 961M1742 998L1702 1082M1742 998L1761 1069M1806 961L1862 1029M1806 961L1761 1069M1862 1029L1761 1069M1862 1029L1892 1095M1862 1029L1970 1049M1983 984L2077 1016M1983 984L1970 1049M1983 984L2041 1090M2077 1016L2113 960M2077 1016L2041 1090M2077 1016L2084 1084M2240 992L2250 1008M2240 992L2176 1063M2240 992L2289 1072M2250 1008L2176 1063M2250 1008L2289 1072M2362 1023L2429 976M2362 1023L2289 1072M2362 1023L2333 1106M2362 1023L2405 1107M2429 976L2520 1028M2429 976L2508 1061M2520 1028L2610 1087M2520 1028L2508 1061M-40 1028L50 1087M50 1087L106 1055M50 1087L-52 1061M50 1087L18 1178M2610 1087L2508 1061M106 1055L206 1090M206 1090L277 1041M206 1090L236 1177M393 1063L457 1091M393 1063L333 1148M457 1091L533 1112M457 1091L478 1153M457 1091L547 1131M533 1112L583 1047M533 1112L478 1153M533 1112L547 1131M583 1047L709 1051M583 1047L547 1131M709 1051L759 1083M709 1051L722 1160M759 1083L854 1097M759 1083L722 1160M854 1097L959 1095M854 1097L873 1170M959 1095L1021 1091M959 1095L937 1189M959 1095L986 1130M1021 1091L1059 1076M1021 1091L986 1130M1059 1076L1138 1114M1059 1076L986 1130M1138 1114L1107 1192M1138 1114L1188 1179M1138 1114L1179 1224M1268 1083L1273 1143M1268 1083L1286 1124M1348 1051L1412 1085M1348 1051L1286 1124M1412 1085L1478 1040M1412 1085L1467 1151M1478 1040L1576 1102M1576 1102L1648 1043M1576 1102L1554 1165M1648 1043L1702 1082M1702 1082L1761 1069M1702 1082L1665 1175M1702 1082L1720 1125M1761 1069L1720 1125M1892 1095L1970 1049M1892 1095L1868 1147M1970 1049L2041 1090M2041 1090L2084 1084M2041 1090L2035 1157M2084 1084L2176 1063M2084 1084L2035 1157M2084 1084L2146 1150M2176 1063L2146 1150M2289 1072L2333 1106M2289 1072L2264 1163M2333 1106L2405 1107M2333 1106L2264 1163M2333 1106L2372 1181M2405 1107L2372 1181M2405 1107L2490 1176M18 1178L113 1195M18 1178L-70 1176M18 1178L-41 1213M2578 1178L2490 1176M2578 1178L2519 1213M113 1195L76 1275M113 1195L96 1232M236 1177L264 1176M236 1177L223 1244M236 1177L313 1234M236 1177L327 1209M264 1176L333 1148M264 1176L223 1244M264 1176L313 1234M264 1176L327 1209M333 1148L327 1209M478 1153L547 1131M478 1153L451 1221M478 1153L520 1244M547 1131L593 1188M593 1188L669 1187M593 1188L520 1244M593 1188L636 1260M593 1188L682 1205M669 1187L722 1160M669 1187L636 1260M669 1187L682 1205M669 1187L738 1273M722 1160L682 1205M873 1170L937 1189M873 1170L872 1262M873 1170L933 1253M937 1189L986 1130M937 1189L933 1253M937 1189L1002 1228M986 1130L1002 1228M1107 1192L1188 1179M1107 1192L1062 1222M1107 1192L1179 1224M1107 1192L1081 1282M1188 1179L1273 1143M1188 1179L1179 1224M1273 1143L1286 1124M1273 1143L1279 1231M1286 1124L1364 1187M1364 1187L1279 1231M1364 1187L1352 1205M1364 1187L1432 1234M1364 1187L1457 1218M1467 1151L1554 1165M1467 1151L1457 1218M1467 1151L1521 1206M1554 1165L1521 1206M1554 1165L1607 1218M1665 1175L1720 1125M1665 1175L1607 1218M1665 1175L1723 1261M1665 1175L1765 1217M1720 1125L1770 1197M1720 1125L1765 1217M1770 1197L1868 1147M1770 1197L1723 1261M1770 1197L1765 1217M1770 1197L1867 1222M1868 1147L1960 1196M1868 1147L1867 1222M1868 1147L1931 1233M1960 1196L2035 1157M1960 1196L1867 1222M1960 1196L1931 1233M2035 1157L2068 1231M2035 1157L2104 1229M2146 1150L2231 1157M2146 1150L2104 1229M2146 1150L2164 1210M2231 1157L2264 1163M2231 1157L2164 1210M2231 1157L2296 1211M2264 1163L2296 1211M2372 1181L2460 1199M2372 1181L2296 1211M2372 1181L2410 1220M2460 1199L2490 1176M2460 1199L2410 1220M2460 1199L2519 1213M2460 1199L2474 1298M2490 1176L2410 1220M2490 1176L2519 1213M76 1275L96 1232M76 1275L14 1291M76 1275L93 1345M76 1275L71 1364M223 1244L313 1234M223 1244L205 1312M223 1244L283 1283M313 1234L327 1209M313 1234L283 1283M327 1209L283 1283M451 1221L520 1244M451 1221L419 1312M451 1221L509 1282M520 1244L509 1282M520 1244L588 1282M636 1260L682 1205M636 1260L588 1282M682 1205L738 1273M738 1273L715 1342M738 1273L788 1296M738 1273L713 1361M872 1262L933 1253M872 1262L788 1296M872 1262L861 1314M872 1262L911 1340M933 1253L1002 1228M933 1253L911 1340M1002 1228L1062 1222M1002 1228L1016 1325M1062 1222L1081 1282M1179 1224L1279 1231M1179 1224L1187 1306M1279 1231L1352 1205M1279 1231L1312 1326M1352 1205L1432 1234M1352 1205L1457 1218M1432 1234L1457 1218M1432 1234L1521 1206M1432 1234L1380 1318M1457 1218L1521 1206M1521 1206L1607 1218M1607 1218L1645 1312M1723 1261L1765 1217M1723 1261L1645 1312M1723 1261L1757 1360M1765 1217L1867 1222M1867 1222L1931 1233M1931 1233L1932 1352M2068 1231L2104 1229M2068 1231L2164 1210M2068 1231L2049 1313M2068 1231L2094 1334M2104 1229L2164 1210M2104 1229L2049 1313M2296 1211L2344 1268M2296 1211L2248 1316M2344 1268L2410 1220M2344 1268L2321 1335M2410 1220L2474 1298M2519 1213L2574 1291M2519 1213L2543 1290M-41 1213L14 1291M14 1291L93 1345M14 1291L-17 1290M14 1291L-0 1386M2574 1291L2543 1290M2574 1291L2560 1386M93 1345L71 1364M93 1345L114 1438M93 1345L-0 1386M2653 1345L2560 1386M205 1312L283 1283M205 1312L232 1392M283 1283L335 1323M335 1323L419 1312M335 1323L324 1368M335 1323L419 1383M419 1312L509 1282M419 1312L324 1368M419 1312L419 1383M509 1282L588 1282M509 1282L597 1374M588 1282L597 1374M715 1342L788 1296M715 1342L713 1361M715 1342L791 1375M788 1296L861 1314M788 1296L791 1375M861 1314L911 1340M911 1340L1016 1325M911 1340L954 1396M1016 1325L1081 1282M1016 1325L954 1396M1016 1325L1036 1426M1081 1282L1187 1306M1187 1306L1212 1349M1187 1306L1120 1397M1187 1306L1219 1380M1212 1349L1160 1436M1212 1349L1219 1380M1312 1326L1380 1318M1312 1326L1319 1378M1380 1318L1444 1356M1380 1318L1319 1378M1380 1318L1402 1370M1444 1356L1550 1335M1444 1356L1319 1378M1444 1356L1402 1370M1444 1356L1454 1427M1550 1335L1645 1312M1550 1335L1569 1362M1645 1312L1569 1362M1645 1312L1670 1364M1757 1360L1803 1334M1757 1360L1670 1364M1757 1360L1722 1408M1757 1360L1828 1374M1803 1334L1893 1342M1803 1334L1722 1408M1803 1334L1828 1374M1803 1334L1844 1417M1893 1342L1932 1352M1893 1342L1828 1374M1893 1342L1844 1417M1893 1342L1956 1411M1932 1352L1956 1411M2049 1313L2094 1334M2094 1334L2220 1331M2094 1334L2016 1433M2094 1334L2111 1416M2220 1331L2248 1316M2220 1331L2321 1335M2220 1331L2234 1393M2220 1331L2273 1381M2248 1316L2321 1335M2248 1316L2234 1393M2248 1316L2273 1381M2321 1335L2234 1393M2321 1335L2273 1381M2474 1298L2543 1290M2543 1290L2631 1364M-17 1290L71 1364M71 1364L114 1438M71 1364L-0 1386M2631 1364L2560 1386M232 1392L286 1436M232 1392L324 1368M286 1436L324 1368M324 1368L419 1383M419 1383L491 1435M491 1435L597 1374M597 1374L713 1361M713 1361L791 1375M791 1375L810 1429M954 1396L1036 1426M1036 1426L1120 1397M1120 1397L1160 1436M1120 1397L1219 1380M1160 1436L1219 1380M1219 1380L1319 1378M1319 1378L1402 1370M1402 1370L1454 1427M1569 1362L1670 1364M1670 1364L1722 1408M1828 1374L1844 1417M1956 1411L2016 1433M2016 1433L2111 1416M2111 1416L2234 1393M2234 1393L2273 1381M2273 1381L2362 1431M2362 1431L2439 1423"/></svg>