<svg xmlns="http://www.w3.org/2000/svg" width="2560" height="1440" fill="#fff"><circle cx="24" cy="25" r="6"/><circle cx="103" cy="78" r="4"/><circle cx="167" cy="13" r="4"/><circle cx="269" cy="10" r="6"/><circle cx="371" cy="73" r="5"/><circle cx="469" cy="17" r="6"/><circle cx="556" cy="49" r="6"/><circle cx="593" cy="20" r="4"/><circle cx="705" cy="0" r="5"/><circle cx="705" cy="1440" r="5"/><circle cx="770" cy="61" r="6"/><circle cx="834" cy="62" r="5"/><circle cx="906" cy="67" r="6"/><circle cx="1026" cy="25" r="5"/><circle cx="1093" cy="23" r="5"/><circle cx="1178" cy="53" r="5"/><circle cx="1228" cy="53" r="5"/><circle cx="1337" cy="34" r="6"/><circle cx="1416" cy="15" r="5"/><circle cx="1506" cy="46" r="6"/><circle cx="1599" cy="51" r="4"/><circle cx="1615" cy="60" r="4"/><circle cx="1684" cy="46" r="5"/><circle cx="1784" cy="80" r="6"/><circle cx="1862" cy="56" r="5"/><circle cx="1929" cy="8" r="5"/><circle cx="2062" cy="8" r="5"/><circle cx="2140" cy="31" r="4"/><circle cx="2196" cy="48" r="5"/><circle cx="2278" cy="19" r="5"/><circle cx="2339" cy="66" r="5"/><circle cx="2421" cy="38" r="5"/><circle cx="2480" cy="11" r="5"/><circle cx="63" cy="149" r="5"/><circle cx="153" cy="86" r="5"/><circle cx="199" cy="98" r="5"/><circle cx="311" cy="159" r="5"/><circle cx="373" cy="159" r="6"/><circle cx="422" cy="115" r="5"/><circle cx="502" cy="109" r="5"/><circle cx="610" cy="87" r="6"/><circle cx="659" cy="98" r="5"/><circle cx="794" cy="108" r="5"/><circle cx="838" cy="95" r="4"/><circle cx="913" cy="137" r="5"/><circle cx="981" cy="147" r="6"/><circle cx="1085" cy="156" r="4"/><circle cx="1162" cy="102" r="4"/><circle cx="1260" cy="149" r="5"/><circle cx="1336" cy="149" r="5"/><circle cx="1381" cy="109" r="6"/><circle cx="1482" cy="88" r="4"/><circle cx="1595" cy="133" r="5"/><circle cx="1622" cy="133" r="4"/><circle cx="1744" cy="137" r="6"/><circle cx="1803" cy="136" r="6"/><circle cx="1860" cy="132" r="6"/><circle cx="1936" cy="110" r="5"/><circle cx="2076" cy="148" r="5"/><circle cx="2100" cy="93" r="6"/><circle cx="2228" cy="145" r="4"/><circle cx="2254" cy="115" r="5"/><circle cx="2370" cy="82" r="5"/><circle cx="2464" cy="131" r="5"/><circle cx="2507" cy="113" r="4"/><circle cx="79" cy="188" r="5"/><circle cx="145" cy="202" r="5"/><circle cx="165" cy="229" r="6"/><circle cx="265" cy="186" r="6"/><circle cx="364" cy="232" r="4"/><circle cx="479" cy="205" r="5"/><circle cx="541" cy="229" r="6"/><circle cx="637" cy="209" r="4"/><circle cx="713" cy="189" r="4"/><circle cx="759" cy="217" r="4"/><circle cx="811" cy="231" r="6"/><circle cx="901" cy="219" r="4"/><circle cx="1014" cy="161" r="4"/><circle cx="1062" cy="197" r="4"/><circle cx="1197" cy="228" r="4"/><circle cx="1229" cy="228" r="5"/><circle cx="1311" cy="228" r="4"/><circle cx="1397" cy="228" r="5"/><circle cx="1444" cy="208" r="6"/><circle cx="1522" cy="185" r="6"/><circle cx="1647" cy="184" r="4"/><circle cx="1738" cy="180" r="5"/><circle cx="1837" cy="238" r="6"/><circle cx="1914" cy="212" r="5"/><circle cx="1964" cy="190" r="4"/><circle cx="2050" cy="224" r="6"/><circle cx="2138" cy="234" r="6"/><circle cx="2186" cy="201" r="5"/><circle cx="2245" cy="237" r="6"/><circle cx="2386" cy="216" r="6"/><circle cx="2410" cy="211" r="5"/><circle cx="2535" cy="166" r="6"/><circle cx="46" cy="246" r="6"/><circle cx="118" cy="258" r="4"/><circle cx="226" cy="241" r="5"/><circle cx="304" cy="252" r="6"/><circle cx="329" cy="307" r="5"/><circle cx="405" cy="252" r="6"/><circle cx="532" cy="247" r="6"/><circle cx="619" cy="305" r="4"/><circle cx="661" cy="317" r="5"/><circle cx="720" cy="241" r="5"/><circle cx="872" cy="275" r="5"/><circle cx="925" cy="292" r="6"/><circle cx="1021" cy="252" r="4"/><circle cx="1112" cy="254" r="5"/><circle cx="1158" cy="265" r="4"/><circle cx="1227" cy="310" r="5"/><circle cx="1316" cy="256" r="6"/><circle cx="1387" cy="247" r="4"/><circle cx="1452" cy="299" r="5"/><circle cx="1568" cy="266" r="5"/><circle cx="1632" cy="302" r="5"/><circle cx="1690" cy="271" r="4"/><circle cx="1821" cy="260" r="6"/><circle cx="1898" cy="300" r="4"/><circle cx="1979" cy="256" r="4"/><circle cx="2019" cy="313" r="5"/><circle cx="2117" cy="244" r="6"/><circle cx="2207" cy="285" r="5"/><circle cx="2247" cy="257" r="4"/><circle cx="2356" cy="296" r="5"/><circle cx="2453" cy="301" r="5"/><circle cx="2484" cy="278" r="4"/><circle cx="27" cy="356" r="5"/><circle cx="81" cy="345" r="6"/><circle cx="213" cy="369" r="5"/><circle cx="308" cy="357" r="5"/><circle cx="379" cy="358" r="5"/><circle cx="427" cy="344" r="5"/><circle cx="503" cy="355" r="5"/><circle cx="566" cy="387" r="5"/><circle cx="674" cy="332" r="5"/><circle cx="734" cy="351" r="5"/><circle cx="854" cy="329" r="5"/><circle cx="938" cy="361" r="4"/><circle cx="1031" cy="353" r="6"/><circle cx="1113" cy="330" r="4"/><circle cx="1138" cy="372" r="5"/><circle cx="1232" cy="373" r="6"/><circle cx="1348" cy="350" r="5"/><circle cx="1414" cy="371" r="5"/><circle cx="1453" cy="326" r="4"/><circle cx="1562" cy="354" r="6"/><circle cx="1613" cy="333" r="6"/><circle cx="1722" cy="341" r="4"/><circle cx="1834" cy="363" r="4"/><circle cx="1913" cy="341" r="4"/><circle cx="1941" cy="395" r="6"/><circle cx="2032" cy="397" r="6"/><circle cx="2135" cy="366" r="4"/><circle cx="2230" cy="380" r="4"/><circle cx="2284" cy="389" r="5"/><circle cx="2399" cy="398" r="6"/><circle cx="2404" cy="337" r="4"/><circle cx="2508" cy="347" r="5"/><circle cx="58" cy="463" r="5"/><circle cx="95" cy="415" r="6"/><circle cx="176" cy="416" r="5"/><circle cx="257" cy="445" r="4"/><circle cx="361" cy="465" r="4"/><circle cx="438" cy="445" r="5"/><circle cx="482" cy="465" r="4"/><circle cx="619" cy="472" r="4"/><circle cx="661" cy="448" r="6"/><circle cx="739" cy="456" r="4"/><circle cx="861" cy="450" r="5"/><circle cx="959" cy="411" r="5"/><circle cx="988" cy="439" r="5"/><circle cx="1049" cy="436" r="6"/><circle cx="1178" cy="444" r="5"/><circle cx="1256" cy="469" r="6"/><circle cx="1329" cy="427" r="5"/><circle cx="1386" cy="459" r="4"/><circle cx="1512" cy="441" r="5"/><circle cx="1563" cy="439" r="4"/><circle cx="1648" cy="411" r="4"/><circle cx="1740" cy="449" r="5"/><circle cx="1785" cy="413" r="5"/><circle cx="1887" cy="404" r="6"/><circle cx="1984" cy="458" r="6"/><circle cx="2029" cy="431" r="4"/><circle cx="2116" cy="458" r="6"/><circle cx="2236" cy="460" r="5"/><circle cx="2291" cy="416" r="6"/><circle cx="2353" cy="410" r="4"/><circle cx="2433" cy="473" r="5"/><circle cx="2532" cy="404" r="6"/><circle cx="59" cy="537" r="5"/><circle cx="100" cy="545" r="4"/><circle cx="192" cy="487" r="6"/><circle cx="286" cy="487" r="5"/><circle cx="370" cy="500" r="5"/><circle cx="400" cy="502" r="4"/><circle cx="542" cy="532" r="6"/><circle cx="566" cy="505" r="5"/><circle cx="681" cy="537" r="4"/><circle cx="795" cy="505" r="4"/><circle cx="877" cy="547" r="4"/><circle cx="915" cy="483" r="5"/><circle cx="1033" cy="527" r="6"/><circle cx="1041" cy="546" r="5"/><circle cx="1182" cy="525" r="6"/><circle cx="1224" cy="480" r="4"/><circle cx="1297" cy="541" r="4"/><circle cx="1378" cy="531" r="5"/><circle cx="1462" cy="551" r="5"/><circle cx="1537" cy="548" r="4"/><circle cx="1609" cy="499" r="4"/><circle cx="1686" cy="526" r="6"/><circle cx="1826" cy="523" r="5"/><circle cx="1906" cy="556" r="4"/><circle cx="1988" cy="539" r="5"/><circle cx="2059" cy="495" r="5"/><circle cx="2116" cy="481" r="4"/><circle cx="2196" cy="481" r="5"/><circle cx="2245" cy="508" r="4"/><circle cx="2358" cy="538" r="4"/><circle cx="2479" cy="491" r="5"/><circle cx="2524" cy="540" r="5"/><circle cx="16" cy="595" r="5"/><circle cx="131" cy="562" r="5"/><circle cx="173" cy="623" r="4"/><circle cx="265" cy="631" r="5"/><circle cx="352" cy="602" r="4"/><circle cx="433" cy="616" r="5"/><circle cx="555" cy="619" r="5"/><circle cx="611" cy="618" r="4"/><circle cx="667" cy="633" r="5"/><circle cx="798" cy="580" r="5"/><circle cx="852" cy="638" r="6"/><circle cx="957" cy="608" r="5"/><circle cx="1026" cy="610" r="5"/><circle cx="1104" cy="619" r="5"/><circle cx="1193" cy="624" r="5"/><circle cx="1233" cy="629" r="5"/><circle cx="1340" cy="639" r="5"/><circle cx="1365" cy="590" r="4"/><circle cx="1493" cy="561" r="6"/><circle cx="1540" cy="625" r="5"/><circle cx="1603" cy="624" r="5"/><circle cx="1708" cy="618" r="4"/><circle cx="1791" cy="598" r="4"/><circle cx="1912" cy="574" r="5"/><circle cx="1953" cy="606" r="6"/><circle cx="2006" cy="585" r="5"/><circle cx="2116" cy="569" r="5"/><circle cx="2232" cy="619" r="4"/><circle cx="2260" cy="565" r="4"/><circle cx="2359" cy="622" r="4"/><circle cx="2457" cy="598" r="5"/><circle cx="2544" cy="571" r="4"/><circle cx="39" cy="660" r="5"/><circle cx="158" cy="687" r="5"/><circle cx="223" cy="702" r="5"/><circle cx="258" cy="646" r="6"/><circle cx="324" cy="702" r="4"/><circle cx="462" cy="713" r="6"/><circle cx="492" cy="719" r="4"/><circle cx="615" cy="698" r="4"/><circle cx="671" cy="648" r="5"/><circle cx="745" cy="648" r="4"/><circle cx="848" cy="676" r="5"/><circle cx="941" cy="709" r="4"/><circle cx="1032" cy="697" r="5"/><circle cx="1119" cy="663" r="4"/><circle cx="1173" cy="669" r="4"/><circle cx="1241" cy="719" r="5"/><circle cx="1294" cy="710" r="6"/><circle cx="1398" cy="684" r="5"/><circle cx="1506" cy="669" r="6"/><circle cx="1582" cy="708" r="5"/><circle cx="1673" cy="687" r="6"/><circle cx="1687" cy="678" r="4"/><circle cx="1804" cy="666" r="5"/><circle cx="1920" cy="693" r="5"/><circle cx="1933" cy="681" r="5"/><circle cx="2013" cy="662" r="4"/><circle cx="2119" cy="689" r="5"/><circle cx="2190" cy="709" r="5"/><circle cx="2268" cy="643" r="6"/><circle cx="2361" cy="693" r="5"/><circle cx="2429" cy="699" r="5"/><circle cx="2502" cy="706" r="5"/><circle cx="57" cy="774" r="5"/><circle cx="152" cy="744" r="6"/><circle cx="186" cy="750" r="6"/><circle cx="316" cy="767" r="5"/><circle cx="330" cy="790" r="4"/><circle cx="475" cy="722" r="6"/><circle cx="531" cy="729" r="6"/><circle cx="638" cy="725" r="6"/><circle cx="681" cy="735" r="6"/><circle cx="784" cy="737" r="4"/><circle cx="822" cy="774" r="5"/><circle cx="952" cy="783" r="4"/><circle cx="998" cy="720" r="6"/><circle cx="1058" cy="738" r="5"/><circle cx="1180" cy="761" r="4"/><circle cx="1211" cy="771" r="6"/><circle cx="1331" cy="743" r="5"/><circle cx="1369" cy="796" r="4"/><circle cx="1491" cy="722" r="4"/><circle cx="1594" cy="741" r="4"/><circle cx="1646" cy="724" r="4"/><circle cx="1693" cy="782" r="6"/><circle cx="1763" cy="722" r="4"/><circle cx="1861" cy="751" r="5"/><circle cx="1930" cy="781" r="5"/><circle cx="2019" cy="776" r="5"/><circle cx="2125" cy="746" r="6"/><circle cx="2180" cy="747" r="4"/><circle cx="2280" cy="798" r="6"/><circle cx="2361" cy="793" r="4"/><circle cx="2466" cy="745" r="4"/><circle cx="2516" cy="799" r="5"/><circle cx="63" cy="834" r="5"/><circle cx="116" cy="807" r="4"/><circle cx="238" cy="876" r="5"/><circle cx="240" cy="867" r="4"/><circle cx="368" cy="814" r="5"/><circle cx="456" cy="869" r="5"/><circle cx="488" cy="837" r="5"/><circle cx="606" cy="823" r="5"/><circle cx="710" cy="855" r="6"/><circle cx="752" cy="857" r="6"/><circle cx="872" cy="853" r="5"/><circle cx="885" cy="874" r="5"/><circle cx="997" cy="817" r="5"/><circle cx="1079" cy="848" r="5"/><circle cx="1152" cy="829" r="5"/><circle cx="1215" cy="847" r="5"/><circle cx="1316" cy="812" r="5"/><circle cx="1404" cy="820" r="5"/><circle cx="1442" cy="814" r="6"/><circle cx="1593" cy="823" r="5"/><circle cx="1604" cy="830" r="4"/><circle cx="1746" cy="814" r="5"/><circle cx="1793" cy="829" r="6"/><circle cx="1902" cy="870" r="6"/><circle cx="1936" cy="827" r="6"/><circle cx="2031" cy="877" r="5"/><circle cx="2094" cy="820" r="5"/><circle cx="2165" cy="845" r="5"/><circle cx="2258" cy="830" r="6"/><circle cx="2398" cy="859" r="6"/><circle cx="2479" cy="874" r="4"/><circle cx="2547" cy="819" r="5"/><circle cx="0" cy="947" r="5"/><circle cx="2560" cy="947" r="5"/><circle cx="101" cy="891" r="5"/><circle cx="234" cy="923" r="6"/><circle cx="313" cy="927" r="6"/><circle cx="393" cy="956" r="4"/><circle cx="412" cy="907" r="4"/><circle cx="511" cy="886" r="6"/><circle cx="565" cy="884" r="4"/><circle cx="699" cy="900" r="5"/><circle cx="747" cy="925" r="4"/><circle cx="877" cy="926" r="5"/><circle cx="889" cy="926" r="5"/><circle cx="1009" cy="952" r="6"/><circle cx="1074" cy="948" r="6"/><circle cx="1153" cy="933" r="5"/><circle cx="1205" cy="941" r="5"/><circle cx="1341" cy="951" r="4"/><circle cx="1425" cy="892" r="5"/><circle cx="1473" cy="940" r="4"/><circle cx="1578" cy="881" r="5"/><circle cx="1619" cy="924" r="6"/><circle cx="1754" cy="929" r="5"/><circle cx="1813" cy="907" r="5"/><circle cx="1908" cy="887" r="4"/><circle cx="1995" cy="885" r="4"/><circle cx="2021" cy="890" r="4"/><circle cx="2146" cy="955" r="4"/><circle cx="2177" cy="886" r="5"/><circle cx="2302" cy="897" r="5"/><circle cx="2363" cy="959" r="5"/><circle cx="2475" cy="885" r="4"/><circle cx="2516" cy="951" r="5"/><circle cx="72" cy="1039" r="6"/><circle cx="105" cy="965" r="5"/><circle cx="228" cy="976" r="6"/><circle cx="246" cy="1014" r="5"/><circle cx="394" cy="981" r="5"/><circle cx="438" cy="976" r="5"/><circle cx="549" cy="1000" r="6"/><circle cx="596" cy="1027" r="6"/><circle cx="705" cy="1037" r="4"/><circle cx="773" cy="1038" r="4"/><circle cx="838" cy="963" r="6"/><circle cx="952" cy="1006" r="4"/><circle cx="1020" cy="1019" r="5"/><circle cx="1073" cy="962" r="5"/><circle cx="1131" cy="1032" r="5"/><circle cx="1230" cy="967" r="4"/><circle cx="1290" cy="1000" r="4"/><circle cx="1366" cy="978" r="6"/><circle cx="1445" cy="991" r="4"/><circle cx="1557" cy="962" r="4"/><circle cx="1624" cy="1009" r="4"/><circle cx="1747" cy="1024" r="4"/><circle cx="1831" cy="975" r="5"/><circle cx="1900" cy="984" r="5"/><circle cx="1942" cy="968" r="4"/><circle cx="2043" cy="989" r="5"/><circle cx="2110" cy="1038" r="5"/><circle cx="2230" cy="967" r="5"/><circle cx="2253" cy="1004" r="5"/><circle cx="2390" cy="1034" r="5"/><circle cx="2463" cy="964" r="4"/><circle cx="2529" cy="967" r="5"/><circle cx="6" cy="1064" r="6"/><circle cx="157" cy="1087" r="5"/><circle cx="228" cy="1050" r="5"/><circle cx="311" cy="1078" r="5"/><circle cx="378" cy="1044" r="4"/><circle cx="419" cy="1051" r="5"/><circle cx="545" cy="1110" r="5"/><circle cx="627" cy="1092" r="4"/><circle cx="654" cy="1099" r="4"/><circle cx="792" cy="1043" r="6"/><circle cx="816" cy="1070" r="6"/><circle cx="938" cy="1094" r="5"/><circle cx="1009" cy="1104" r="5"/><circle cx="1109" cy="1110" r="5"/><circle cx="1142" cy="1118" r="6"/><circle cx="1210" cy="1042" r="4"/><circle cx="1315" cy="1094" r="6"/><circle cx="1375" cy="1050" r="4"/><circle cx="1471" cy="1049" r="5"/><circle cx="1560" cy="1112" r="5"/><circle cx="1658" cy="1088" r="5"/><circle cx="1734" cy="1088" r="5"/><circle cx="1802" cy="1091" r="5"/><circle cx="1877" cy="1105" r="6"/><circle cx="1939" cy="1060" r="6"/><circle cx="2006" cy="1115" r="5"/><circle cx="2127" cy="1049" r="6"/><circle cx="2191" cy="1112" r="6"/><circle cx="2292" cy="1053" r="6"/><circle cx="2376" cy="1060" r="5"/><circle cx="2433" cy="1049" r="6"/><circle cx="2533" cy="1104" r="6"/><circle cx="51" cy="1157" r="5"/><circle cx="81" cy="1190" r="5"/><circle cx="175" cy="1123" r="4"/><circle cx="262" cy="1191" r="6"/><circle cx="356" cy="1184" r="4"/><circle cx="432" cy="1168" r="5"/><circle cx="538" cy="1149" r="4"/><circle cx="574" cy="1174" r="5"/><circle cx="686" cy="1142" r="5"/><circle cx="778" cy="1200" r="5"/><circle cx="822" cy="1147" r="5"/><circle cx="898" cy="1182" r="5"/><circle cx="963" cy="1144" r="4"/><circle cx="1116" cy="1166" r="5"/><circle cx="1193" cy="1184" r="5"/><circle cx="1223" cy="1183" r="5"/><circle cx="1317" cy="1190" r="6"/><circle cx="1404" cy="1122" r="6"/><circle cx="1459" cy="1143" r="5"/><circle cx="1588" cy="1130" r="5"/><circle cx="1617" cy="1164" r="6"/><circle cx="1747" cy="1185" r="4"/><circle cx="1801" cy="1134" r="6"/><circle cx="1908" cy="1156" r="4"/><circle cx="1929" cy="1182" r="5"/><circle cx="2076" cy="1176" r="5"/><circle cx="2099" cy="1198" r="6"/><circle cx="2163" cy="1143" r="6"/><circle cx="2308" cy="1170" r="5"/><circle cx="2356" cy="1133" r="4"/><circle cx="2465" cy="1125" r="6"/><circle cx="2536" cy="1174" r="5"/><circle cx="14" cy="1213" r="6"/><circle cx="122" cy="1220" r="5"/><circle cx="226" cy="1214" r="6"/><circle cx="252" cy="1265" r="5"/><circle cx="346" cy="1223" r="5"/><circle cx="441" cy="1240" r="4"/><circle cx="501" cy="1209" r="6"/><circle cx="599" cy="1224" r="4"/><circle cx="703" cy="1258" r="4"/><circle cx="760" cy="1238" r="4"/><circle cx="825" cy="1276" r="5"/><circle cx="889" cy="1237" r="4"/><circle cx="1015" cy="1224" r="5"/><circle cx="1086" cy="1221" r="6"/><circle cx="1199" cy="1220" r="5"/><circle cx="1264" cy="1240" r="5"/><circle cx="1281" cy="1255" r="6"/><circle cx="1439" cy="1237" r="4"/><circle cx="1489" cy="1253" r="4"/><circle cx="1554" cy="1253" r="5"/><circle cx="1644" cy="1271" r="5"/><circle cx="1730" cy="1267" r="5"/><circle cx="1801" cy="1278" r="4"/><circle cx="1847" cy="1269" r="4"/><circle cx="1997" cy="1278" r="5"/><circle cx="2070" cy="1217" r="6"/><circle cx="2080" cy="1232" r="5"/><circle cx="2230" cy="1208" r="5"/><circle cx="2258" cy="1232" r="4"/><circle cx="2357" cy="1269" r="4"/><circle cx="2408" cy="1210" r="5"/><circle cx="2508" cy="1235" r="5"/><circle cx="35" cy="1303" r="5"/><circle cx="133" cy="1353" r="6"/><circle cx="216" cy="1330" r="5"/><circle cx="295" cy="1334" r="4"/><circle cx="339" cy="1327" r="6"/><circle cx="474" cy="1288" r="5"/><circle cx="511" cy="1314" r="5"/><circle cx="571" cy="1348" r="6"/><circle cx="652" cy="1313" r="4"/><circle cx="734" cy="1311" r="6"/><circle cx="829" cy="1304" r="5"/><circle cx="908" cy="1344" r="4"/><circle cx="1032" cy="1327" r="5"/><circle cx="1115" cy="1338" r="6"/><circle cx="1162" cy="1282" r="4"/><circle cx="1235" cy="1348" r="5"/><circle cx="1287" cy="1286" r="4"/><circle cx="1434" cy="1297" r="6"/><circle cx="1449" cy="1343" r="4"/><circle cx="1596" cy="1326" r="5"/><circle cx="1671" cy="1352" r="6"/><circle cx="1747" cy="1334" r="4"/><circle cx="1782" cy="1283" r="6"/><circle cx="1917" cy="1350" r="5"/><circle cx="1977" cy="1288" r="5"/><circle cx="2031" cy="1298" r="6"/><circle cx="2080" cy="1321" r="5"/><circle cx="2168" cy="1286" r="5"/><circle cx="2298" cy="1290" r="5"/><circle cx="2359" cy="1299" r="5"/><circle cx="2430" cy="1307" r="5"/><circle cx="2517" cy="1314" r="6"/><circle cx="35" cy="1419" r="4"/><circle cx="153" cy="1406" r="4"/><circle cx="207" cy="1420" r="4"/><circle cx="250" cy="1407" r="5"/><circle cx="378" cy="1367" r="5"/><circle cx="402" cy="1434" r="5"/><circle cx="535" cy="1417" r="5"/><circle cx="608" cy="1419" r="6"/><circle cx="718" cy="1392" r="4"/><circle cx="731" cy="1389" r="4"/><circle cx="874" cy="1392" r="6"/><circle cx="891" cy="1398" r="6"/><circle cx="962" cy="1406" r="6"/><circle cx="1108" cy="1382" r="4"/><circle cx="1184" cy="1404" r="6"/><circle cx="1229" cy="1426" r="6"/><circle cx="1315" cy="1403" r="5"/><circle cx="1379" cy="1402" r="6"/><circle cx="1480" cy="1392" r="4"/><circle cx="1551" cy="1418" r="5"/><circle cx="1620" cy="1370" r="6"/><circle cx="1741" cy="1399" r="4"/><circle cx="1766" cy="1427" r="5"/><circle cx="1899" cy="1364" r="4"/><circle cx="1943" cy="1412" r="6"/><circle cx="2079" cy="1422" r="6"/><circle cx="2117" cy="1395" r="4"/><circle cx="2163" cy="1409" r="6"/><circle cx="2241" cy="1387" r="4"/><circle cx="2339" cy="1429" r="5"/><circle cx="2473" cy="1432" r="5"/><circle cx="2497" cy="1421" r="6"/><path stroke="#fff" d="M24 25L103 78M24 25L-80 11M24 25L35 -21M24 25L-87 -8M24 25L-63 -19M2584 25L2480 11M2584 25L2473 -8M2584 25L2497 -19M24 1465L35 1419M24 1465L-87 1432M24 1465L-63 1421M2584 1465L2473 1432M2584 1465L2497 1421M103 78L63 149M103 78L153 86M103 78L199 98M167 13L153 86M167 13L199 98M167 13L153 -34M167 13L207 -20M167 1453L153 1406M167 1453L207 1420M269 10L199 98M269 10L207 -20M269 10L250 -33M269 1450L207 1420M269 1450L250 1407M371 73L311 159M371 73L373 159M371 73L422 115M371 73L402 -6M371 1513L402 1434M469 17L422 115M469 17L502 109M469 17L402 -6M469 17L535 -23M469 1457L402 1434M469 1457L535 1417M556 49L593 20M556 49L502 109M556 49L610 87M556 49L535 -23M556 49L608 -21M556 1489L535 1417M556 1489L608 1419M593 20L610 87M593 20L659 98M593 20L535 -23M593 20L608 -21M593 1460L535 1417M593 1460L608 1419M705 0L770 61M705 0L659 98M705 0L718 -48M705 0L731 -51M705 1440L718 1392M705 1440L731 1389M770 61L834 62M770 61L659 98M770 61L794 108M770 61L838 95M834 62L906 67M834 62L794 108M834 62L838 95M906 67L838 95M906 67L913 137M906 67L981 147M906 67L891 -42M906 1507L891 1398M1026 25L1093 23M1026 25L962 -34M1026 25L1108 -58M1026 1465L962 1406M1026 1465L1108 1382M1093 23L1178 53M1093 23L1162 102M1093 23L1108 -58M1093 1463L1108 1382M1178 53L1228 53M1178 53L1162 102M1178 53L1184 -36M1178 53L1229 -14M1178 1493L1184 1404M1178 1493L1229 1426M1228 53L1162 102M1228 53L1260 149M1228 53L1229 -14M1228 1493L1229 1426M1337 34L1416 15M1337 34L1381 109M1337 34L1315 -37M1337 34L1379 -38M1337 1474L1315 1403M1337 1474L1379 1402M1416 15L1506 46M1416 15L1381 109M1416 15L1379 -38M1416 15L1480 -48M1416 1455L1379 1402M1416 1455L1480 1392M1506 46L1599 51M1506 46L1482 88M1506 46L1480 -48M1506 46L1551 -22M1506 1486L1480 1392M1506 1486L1551 1418M1599 51L1615 60M1599 51L1684 46M1599 51L1595 133M1599 51L1622 133M1615 60L1684 46M1615 60L1595 133M1615 60L1622 133M1615 60L1551 -22M1615 1500L1551 1418M1684 46L1744 137M1684 46L1766 -13M1684 1486L1766 1427M1784 80L1862 56M1784 80L1744 137M1784 80L1803 136M1784 80L1860 132M1784 80L1766 -13M1784 1520L1766 1427M1862 56L1929 8M1862 56L1803 136M1862 56L1860 132M1862 56L1936 110M1929 8L1936 110M1929 8L1917 -90M1929 8L1899 -76M1929 8L1943 -28M1929 1448L1917 1350M1929 1448L1899 1364M1929 1448L1943 1412M2062 8L2140 31M2062 8L2100 93M2062 8L2079 -18M2062 8L2117 -45M2062 1448L2079 1422M2062 1448L2117 1395M2140 31L2196 48M2140 31L2100 93M2140 31L2079 -18M2140 31L2163 -31M2140 1471L2079 1422M2140 1471L2163 1409M2196 48L2278 19M2196 48L2100 93M2196 48L2254 115M2196 48L2163 -31M2196 1488L2163 1409M2278 19L2339 66M2278 19L2254 115M2278 19L2241 -53M2278 19L2339 -11M2278 1459L2241 1387M2278 1459L2339 1429M2339 66L2421 38M2339 66L2254 115M2339 66L2370 82M2339 66L2339 -11M2339 1506L2339 1429M2421 38L2480 11M2421 38L2370 82M2421 38L2473 -8M2421 38L2497 -19M2421 1478L2473 1432M2421 1478L2497 1421M2480 11L2507 113M2480 11L2473 -8M2480 11L2497 -19M2480 1451L2473 1432M2480 1451L2497 1421M63 149L79 188M63 149L145 202M63 149L-25 166M63 149L46 246M2623 149L2535 166M153 86L199 98M199 98L265 186M311 159L373 159M311 159L265 186M311 159L364 232M373 159L422 115M373 159L364 232M373 159L405 252M422 115L502 109M422 115L479 205M502 109L610 87M502 109L479 205M610 87L659 98M610 87L608 -21M610 1527L608 1419M659 98L713 189M794 108L838 95M838 95L913 137M913 137L981 147M913 137L901 219M913 137L1014 161M981 147L1085 156M981 147L1014 161M981 147L1062 197M1085 156L1162 102M1085 156L1014 161M1085 156L1062 197M1260 149L1336 149M1260 149L1197 228M1260 149L1229 228M1260 149L1311 228M1336 149L1381 109M1336 149L1311 228M1381 109L1482 88M1381 109L1444 208M1482 88L1522 185M1595 133L1622 133M1595 133L1522 185M1595 133L1647 184M1622 133L1522 185M1622 133L1647 184M1744 137L1803 136M1744 137L1738 180M1803 136L1860 132M1803 136L1738 180M1860 132L1936 110M1860 132L1914 212M1936 110L1964 190M2076 148L2100 93M2076 148L2050 224M2076 148L2117 244M2228 145L2254 115M2228 145L2186 201M2228 145L2245 237M2370 82L2464 131M2370 82L2339 -11M2370 1522L2339 1429M2464 131L2507 113M2464 131L2386 216M2464 131L2410 211M2464 131L2535 166M2507 113L2535 166M79 188L145 202M79 188L165 229M79 188L46 246M79 188L118 258M145 202L165 229M145 202L118 258M145 202L226 241M165 229L265 186M165 229L118 258M165 229L226 241M265 186L226 241M265 186L304 252M364 232L304 252M364 232L329 307M364 232L405 252M479 205L541 229M479 205L405 252M479 205L532 247M541 229L637 209M541 229L532 247M541 229L619 305M637 209L713 189M637 209L532 247M713 189L759 217M713 189L720 241M759 217L811 231M759 217L720 241M811 231L901 219M811 231L720 241M811 231L872 275M811 231L854 329M901 219L872 275M901 219L925 292M1014 161L1062 197M1014 161L1021 252M1062 197L1021 252M1062 197L1112 254M1197 228L1229 228M1197 228L1112 254M1197 228L1158 265M1197 228L1227 310M1229 228L1158 265M1229 228L1227 310M1229 228L1316 256M1311 228L1397 228M1311 228L1316 256M1311 228L1387 247M1397 228L1444 208M1397 228L1316 256M1397 228L1387 247M1397 228L1452 299M1444 208L1522 185M1444 208L1387 247M1444 208L1452 299M1522 185L1568 266M1647 184L1738 180M1647 184L1690 271M1738 180L1837 238M1738 180L1821 260M1837 238L1914 212M1837 238L1821 260M1837 238L1898 300M1914 212L1964 190M1914 212L1898 300M1914 212L1979 256M1964 190L1979 256M2050 224L2138 234M2050 224L1979 256M2050 224L2019 313M2050 224L2117 244M2138 234L2186 201M2138 234L2245 237M2138 234L2117 244M2138 234L2207 285M2186 201L2245 237M2186 201L2117 244M2186 201L2207 285M2245 237L2207 285M2245 237L2247 257M2386 216L2410 211M2386 216L2356 296M2386 216L2453 301M2386 216L2484 278M2410 211L2356 296M2410 211L2484 278M2535 166L2606 246M-25 166L46 246M46 246L118 258M46 246L81 345M118 258L81 345M226 241L304 252M304 252L329 307M304 252L405 252M329 307L308 357M329 307L379 358M405 252L427 344M532 247L619 305M532 247L503 355M619 305L661 317M619 305L566 387M619 305L674 332M661 317L720 241M661 317L674 332M661 317L734 351M720 241L674 332M872 275L925 292M872 275L854 329M925 292L854 329M925 292L938 361M1021 252L1112 254M1112 254L1158 265M1112 254L1113 330M1158 265L1227 310M1158 265L1113 330M1227 310L1232 373M1316 256L1387 247M1316 256L1348 350M1387 247L1452 299M1452 299L1414 371M1452 299L1453 326M1568 266L1632 302M1568 266L1562 354M1568 266L1613 333M1632 302L1690 271M1632 302L1562 354M1632 302L1613 333M1632 302L1722 341M1690 271L1613 333M1690 271L1722 341M1821 260L1898 300M1821 260L1834 363M1821 260L1913 341M1898 300L1913 341M1979 256L2019 313M2019 313L2032 397M2117 244L2207 285M2207 285L2247 257M2356 296L2453 301M2356 296L2404 337M2453 301L2484 278M2453 301L2404 337M2453 301L2508 347M2484 278L2508 347M27 356L81 345M27 356L-52 347M27 356L58 463M27 356L95 415M27 356L-28 404M2587 356L2508 347M2587 356L2532 404M81 345L95 415M81 345L-28 404M2641 345L2532 404M213 369L308 357M213 369L176 416M213 369L257 445M308 357L379 358M308 357L427 344M308 357L257 445M379 358L427 344M379 358L361 465M427 344L503 355M427 344L438 445M503 355L566 387M566 387L619 472M674 332L734 351M674 332L661 448M734 351L739 456M854 329L938 361M854 329L861 450M938 361L1031 353M938 361L959 411M1031 353L1113 330M1031 353L959 411M1031 353L988 439M1031 353L1049 436M1113 330L1138 372M1138 372L1232 373M1138 372L1049 436M1138 372L1178 444M1232 373L1348 350M1232 373L1178 444M1232 373L1256 469M1348 350L1414 371M1348 350L1453 326M1348 350L1329 427M1414 371L1453 326M1414 371L1329 427M1414 371L1386 459M1562 354L1613 333M1562 354L1512 441M1562 354L1563 439M1613 333L1648 411M1722 341L1648 411M1722 341L1740 449M1722 341L1785 413M1834 363L1913 341M1834 363L1785 413M1834 363L1887 404M1913 341L1941 395M1913 341L1887 404M1941 395L2032 397M1941 395L1887 404M1941 395L1984 458M1941 395L2029 431M2032 397L1984 458M2032 397L2029 431M2032 397L2116 458M2135 366L2230 380M2230 380L2284 389M2230 380L2236 460M2230 380L2291 416M2230 380L2196 481M2284 389L2399 398M2284 389L2236 460M2284 389L2291 416M2284 389L2353 410M2399 398L2404 337M2399 398L2291 416M2399 398L2353 410M2399 398L2433 473M2404 337L2508 347M2404 337L2353 410M2508 347L2532 404M58 463L95 415M58 463L-28 404M58 463L59 537M58 463L100 545M2618 463L2532 404M95 415L176 416M95 415L192 487M176 416L257 445M176 416L192 487M257 445L192 487M257 445L286 487M361 465L438 445M361 465L286 487M361 465L370 500M361 465L400 502M438 445L482 465M438 445L370 500M438 445L400 502M482 465L400 502M482 465L542 532M482 465L566 505M619 472L661 448M619 472L542 532M619 472L566 505M619 472L681 537M661 448L739 456M661 448L566 505M661 448L681 537M739 456L681 537M739 456L795 505M861 450L795 505M861 450L877 547M861 450L915 483M959 411L988 439M959 411L1049 436M959 411L915 483M988 439L1049 436M988 439L915 483M988 439L1033 527M1049 436L1033 527M1178 444L1256 469M1178 444L1182 525M1178 444L1224 480M1256 469L1329 427M1256 469L1182 525M1256 469L1224 480M1329 427L1386 459M1386 459L1378 531M1512 441L1563 439M1512 441L1493 561M1563 439L1648 411M1563 439L1609 499M1648 411L1740 449M1648 411L1609 499M1740 449L1785 413M1740 449L1686 526M1740 449L1826 523M1785 413L1887 404M1785 413L1826 523M1984 458L2029 431M1984 458L1988 539M1984 458L2059 495M2029 431L2116 458M2029 431L2059 495M2116 458L2059 495M2116 458L2116 481M2116 458L2196 481M2236 460L2291 416M2236 460L2196 481M2236 460L2245 508M2291 416L2353 410M2353 410L2433 473M2433 473L2358 538M2433 473L2479 491M2433 473L2524 540M2532 404L2479 491M59 537L100 545M59 537L16 595M59 537L131 562M59 537L-16 571M2619 537L2544 571M100 545L16 595M100 545L131 562M192 487L286 487M192 487L131 562M286 487L370 500M286 487L400 502M370 500L400 502M370 500L352 602M542 532L566 505M542 532L555 619M795 505L877 547M795 505L798 580M877 547L915 483M877 547L798 580M877 547L852 638M1033 527L1041 546M1033 527L957 608M1033 527L1026 610M1041 546L957 608M1041 546L1026 610M1041 546L1104 619M1182 525L1224 480M1182 525L1193 624M1224 480L1297 541M1297 541L1378 531M1297 541L1365 590M1378 531L1462 551M1378 531L1365 590M1462 551L1537 548M1462 551L1365 590M1462 551L1493 561M1537 548L1609 499M1537 548L1493 561M1537 548L1540 625M1609 499L1686 526M1686 526L1708 618M1686 526L1791 598M1826 523L1906 556M1826 523L1791 598M1826 523L1912 574M1906 556L1912 574M1906 556L1953 606M1906 556L2006 585M1988 539L2059 495M1988 539L1912 574M1988 539L1953 606M1988 539L2006 585M2059 495L2116 481M2116 481L2196 481M2116 481L2116 569M2196 481L2245 508M2245 508L2232 619M2245 508L2260 565M2358 538L2260 565M2358 538L2359 622M2479 491L2524 540M2479 491L2457 598M2479 491L2544 571M2524 540L2576 595M2524 540L2457 598M2524 540L2544 571M-36 540L16 595M16 595L-16 571M16 595L39 660M2576 595L2544 571M131 562L173 623M173 623L265 631M173 623L158 687M173 623L258 646M265 631L352 602M265 631L223 702M265 631L258 646M265 631L324 702M352 602L433 616M352 602L324 702M433 616L462 713M433 616L492 719M433 616L475 722M555 619L611 618M611 618L667 633M611 618L671 648M667 633L615 698M667 633L671 648M667 633L745 648M667 633L638 725M798 580L852 638M798 580L745 648M798 580L848 676M852 638L957 608M852 638L745 648M852 638L848 676M957 608L1026 610M957 608L941 709M1026 610L1104 619M1026 610L1032 697M1104 619L1193 624M1104 619L1119 663M1104 619L1173 669M1193 624L1233 629M1193 624L1119 663M1193 624L1173 669M1233 629L1340 639M1233 629L1173 669M1233 629L1241 719M1233 629L1294 710M1340 639L1365 590M1340 639L1294 710M1340 639L1398 684M1340 639L1331 743M1365 590L1398 684M1493 561L1540 625M1493 561L1506 669M1540 625L1603 624M1540 625L1506 669M1603 624L1506 669M1603 624L1582 708M1708 618L1791 598M1708 618L1673 687M1708 618L1687 678M1708 618L1804 666M1791 598L1804 666M1912 574L1953 606M1912 574L2006 585M1953 606L2006 585M1953 606L1933 681M2006 585L2013 662M2116 569L2119 689M2232 619L2260 565M2232 619L2190 709M2232 619L2268 643M2260 565L2268 643M2359 622L2457 598M2359 622L2268 643M2359 622L2361 693M2359 622L2429 699M2457 598L2544 571M2457 598L2429 699M39 660L-58 706M2599 660L2502 706M158 687L223 702M158 687L258 646M158 687L152 744M158 687L186 750M223 702L258 646M223 702L152 744M223 702L186 750M258 646L324 702M324 702L316 767M324 702L330 790M462 713L492 719M462 713L475 722M462 713L531 729M492 719L475 722M492 719L531 729M615 698L671 648M615 698L531 729M615 698L638 725M615 698L681 735M671 648L745 648M671 648L638 725M745 648L681 735M848 676L941 709M848 676L784 737M848 676L822 774M941 709L1032 697M941 709L952 783M941 709L998 720M1032 697L1119 663M1032 697L998 720M1032 697L1058 738M1119 663L1173 669M1119 663L1058 738M1173 669L1241 719M1241 719L1294 710M1241 719L1180 761M1241 719L1211 771M1294 710L1211 771M1294 710L1331 743M1398 684L1331 743M1398 684L1491 722M1506 669L1582 708M1506 669L1491 722M1582 708L1673 687M1582 708L1594 741M1582 708L1646 724M1673 687L1687 678M1673 687L1646 724M1673 687L1693 782M1687 678L1646 724M1687 678L1763 722M1804 666L1920 693M1804 666L1763 722M1920 693L1933 681M1920 693L2013 662M1920 693L1861 751M1920 693L1930 781M1933 681L2013 662M1933 681L1861 751M2013 662L2119 689M2119 689L2190 709M2119 689L2125 746M2119 689L2180 747M2190 709L2268 643M2190 709L2125 746M2190 709L2180 747M2268 643L2361 693M2361 693L2429 699M2361 693L2361 793M2429 699L2502 706M2429 699L2466 745M2502 706L2466 745M2502 706L2516 799M57 774L152 744M57 774L63 834M57 774L116 807M57 774L-13 819M2617 774L2547 819M152 744L186 750M152 744L116 807M186 750L316 767M186 750L116 807M316 767L330 790M316 767L238 876M316 767L368 814M330 790L368 814M475 722L531 729M475 722L488 837M531 729L638 725M638 725L681 735M681 735L784 737M681 735L710 855M784 737L822 774M822 774L752 857M822 774L872 853M822 774L885 874M952 783L998 720M952 783L997 817M998 720L1058 738M998 720L997 817M1058 738L997 817M1058 738L1079 848M1180 761L1211 771M1180 761L1152 829M1180 761L1215 847M1211 771L1152 829M1211 771L1215 847M1331 743L1369 796M1331 743L1316 812M1369 796L1316 812M1369 796L1404 820M1369 796L1442 814M1491 722L1442 814M1594 741L1646 724M1594 741L1593 823M1594 741L1604 830M1646 724L1693 782M1693 782L1763 722M1693 782L1746 814M1693 782L1793 829M1763 722L1746 814M1861 751L1930 781M1861 751L1793 829M1930 781L2019 776M1930 781L1902 870M1930 781L1936 827M2019 776L1936 827M2019 776L2031 877M2019 776L2094 820M2125 746L2180 747M2125 746L2094 820M2125 746L2165 845M2180 747L2280 798M2180 747L2165 845M2280 798L2361 793M2280 798L2258 830M2280 798L2302 897M2361 793L2258 830M2361 793L2398 859M2466 745L2516 799M2516 799L2479 874M2516 799L2547 819M2516 799L2475 885M63 834L116 807M63 834L-13 819M63 834L101 891M2623 834L2547 819M116 807L101 891M238 876L240 867M238 876L234 923M238 876L313 927M238 876L228 976M240 867L234 923M368 814L456 869M456 869L488 837M456 869L412 907M456 869L511 886M488 837L511 886M488 837L565 884M606 823L710 855M606 823L565 884M606 823L699 900M710 855L752 857M710 855L699 900M710 855L747 925M752 857L699 900M752 857L747 925M872 853L885 874M872 853L877 926M872 853L889 926M885 874L877 926M885 874L889 926M885 874L838 963M997 817L1079 848M997 817L1009 952M1079 848L1152 829M1152 829L1215 847M1215 847L1316 812M1215 847L1205 941M1316 812L1404 820M1316 812L1442 814M1404 820L1442 814M1404 820L1425 892M1442 814L1425 892M1593 823L1604 830M1593 823L1578 881M1593 823L1619 924M1604 830L1578 881M1604 830L1619 924M1746 814L1793 829M1746 814L1754 929M1793 829L1754 929M1793 829L1813 907M1902 870L1936 827M1902 870L1813 907M1902 870L1908 887M1902 870L1995 885M1936 827L1908 887M1936 827L1995 885M2031 877L2094 820M2031 877L1995 885M2031 877L2021 890M2031 877L2043 989M2094 820L2165 845M2094 820L2177 886M2165 845L2258 830M2165 845L2177 886M2258 830L2177 886M2258 830L2302 897M2398 859L2479 874M2398 859L2302 897M2398 859L2363 959M2398 859L2475 885M2479 874L2547 819M2479 874L2475 885M2479 874L2516 951M0 947L-44 951M0 947L105 965M0 947L-97 964M0 947L-31 967M2560 947L2516 951M2560 947L2463 964M2560 947L2529 967M101 891L105 965M234 923L313 927M234 923L228 976M234 923L246 1014M313 927L393 956M313 927L228 976M393 956L412 907M393 956L394 981M393 956L438 976M393 956L378 1044M412 907L511 886M412 907L394 981M412 907L438 976M511 886L565 884M511 886L549 1000M565 884L549 1000M699 900L747 925M877 926L889 926M877 926L838 963M877 926L952 1006M889 926L838 963M889 926L952 1006M1009 952L1074 948M1009 952L952 1006M1009 952L1020 1019M1009 952L1073 962M1074 948L1153 933M1074 948L1020 1019M1074 948L1073 962M1074 948L1131 1032M1153 933L1205 941M1153 933L1073 962M1153 933L1230 967M1205 941L1230 967M1205 941L1210 1042M1341 951L1425 892M1341 951L1230 967M1341 951L1290 1000M1341 951L1366 978M1425 892L1473 940M1425 892L1366 978M1473 940L1445 991M1473 940L1557 962M1578 881L1619 924M1578 881L1557 962M1619 924L1557 962M1619 924L1624 1009M1754 929L1813 907M1754 929L1747 1024M1754 929L1831 975M1813 907L1908 887M1813 907L1831 975M1908 887L1995 885M1908 887L1942 968M1995 885L2021 890M2021 890L1942 968M2021 890L2043 989M2146 955L2177 886M2146 955L2110 1038M2146 955L2230 967M2146 955L2127 1049M2177 886L2230 967M2302 897L2363 959M2302 897L2230 967M2363 959L2390 1034M2475 885L2516 951M2475 885L2463 964M2516 951L2463 964M2516 951L2529 967M72 1039L105 965M72 1039L6 1064M72 1039L157 1087M228 976L246 1014M228 976L228 1050M246 1014L157 1087M246 1014L228 1050M246 1014L311 1078M394 981L438 976M394 981L378 1044M394 981L419 1051M438 976L378 1044M438 976L419 1051M549 1000L596 1027M596 1027L705 1037M596 1027L545 1110M596 1027L627 1092M596 1027L654 1099M705 1037L773 1038M705 1037L654 1099M705 1037L792 1043M773 1038L792 1043M773 1038L816 1070M838 963L792 1043M838 963L816 1070M952 1006L1020 1019M952 1006L938 1094M1020 1019L1073 962M1020 1019L1009 1104M1073 962L1131 1032M1131 1032L1109 1110M1131 1032L1142 1118M1131 1032L1210 1042M1230 967L1290 1000M1230 967L1210 1042M1290 1000L1366 978M1290 1000L1210 1042M1290 1000L1315 1094M1366 978L1445 991M1366 978L1375 1050M1445 991L1375 1050M1445 991L1471 1049M1557 962L1624 1009M1624 1009L1658 1088M1624 1009L1588 1130M1747 1024L1831 975M1747 1024L1734 1088M1747 1024L1802 1091M1831 975L1900 984M1900 984L1942 968M1900 984L1939 1060M1942 968L2043 989M1942 968L1939 1060M2043 989L2110 1038M2043 989L2127 1049M2110 1038L2127 1049M2110 1038L2191 1112M2230 967L2253 1004M2230 967L2292 1053M2253 1004L2292 1053M2390 1034L2292 1053M2390 1034L2376 1060M2390 1034L2433 1049M2463 964L2529 967M2463 964L2433 1049M2529 967L2566 1064M-31 967L6 1064M6 1064L-27 1104M6 1064L51 1157M2566 1064L2533 1104M157 1087L228 1050M157 1087L175 1123M228 1050L311 1078M228 1050L175 1123M311 1078L378 1044M311 1078L419 1051M378 1044L419 1051M545 1110L627 1092M545 1110L538 1149M545 1110L574 1174M627 1092L654 1099M627 1092L574 1174M627 1092L686 1142M654 1099L686 1142M792 1043L816 1070M792 1043L822 1147M816 1070L938 1094M816 1070L822 1147M938 1094L1009 1104M938 1094L898 1182M938 1094L963 1144M1009 1104L1109 1110M1009 1104L963 1144M1109 1110L1142 1118M1109 1110L1116 1166M1142 1118L1116 1166M1142 1118L1193 1184M1210 1042L1315 1094M1315 1094L1375 1050M1315 1094L1317 1190M1315 1094L1404 1122M1375 1050L1471 1049M1375 1050L1404 1122M1471 1049L1560 1112M1471 1049L1404 1122M1471 1049L1459 1143M1560 1112L1658 1088M1560 1112L1459 1143M1560 1112L1588 1130M1560 1112L1617 1164M1658 1088L1734 1088M1658 1088L1588 1130M1658 1088L1617 1164M1734 1088L1802 1091M1734 1088L1747 1185M1734 1088L1801 1134M1802 1091L1877 1105M1802 1091L1747 1185M1802 1091L1801 1134M1877 1105L1939 1060M1877 1105L1801 1134M1877 1105L1908 1156M1877 1105L1929 1182M1939 1060L2006 1115M1939 1060L1908 1156M2006 1115L1908 1156M2006 1115L1929 1182M2006 1115L2076 1176M2127 1049L2191 1112M2127 1049L2163 1143M2191 1112L2292 1053M2191 1112L2163 1143M2191 1112L2230 1208M2292 1053L2376 1060M2376 1060L2433 1049M2376 1060L2356 1133M2376 1060L2465 1125M2433 1049L2533 1104M2433 1049L2465 1125M2533 1104L2611 1157M2533 1104L2465 1125M2533 1104L2536 1174M-27 1104L51 1157M51 1157L81 1190M51 1157L-24 1174M51 1157L14 1213M2611 1157L2536 1174M81 1190L14 1213M81 1190L122 1220M175 1123L262 1191M175 1123L122 1220M175 1123L226 1214M262 1191L356 1184M262 1191L226 1214M262 1191L252 1265M262 1191L346 1223M356 1184L432 1168M356 1184L346 1223M432 1168L538 1149M432 1168L346 1223M432 1168L441 1240M432 1168L501 1209M538 1149L574 1174M538 1149L501 1209M538 1149L599 1224M574 1174L501 1209M574 1174L599 1224M686 1142L778 1200M686 1142L703 1258M778 1200L822 1147M778 1200L703 1258M778 1200L760 1238M778 1200L825 1276M822 1147L898 1182M898 1182L963 1144M898 1182L889 1237M963 1144L1015 1224M1116 1166L1193 1184M1116 1166L1086 1221M1193 1184L1223 1183M1193 1184L1199 1220M1223 1183L1317 1190M1223 1183L1199 1220M1223 1183L1264 1240M1223 1183L1281 1255M1317 1190L1404 1122M1317 1190L1264 1240M1317 1190L1281 1255M1404 1122L1459 1143M1459 1143L1439 1237M1459 1143L1489 1253M1588 1130L1617 1164M1617 1164L1554 1253M1747 1185L1801 1134M1747 1185L1730 1267M1747 1185L1782 1283M1801 1134L1908 1156M1908 1156L1929 1182M1929 1182L1977 1288M2076 1176L2099 1198M2076 1176L2163 1143M2076 1176L2070 1217M2076 1176L2080 1232M2099 1198L2163 1143M2099 1198L2070 1217M2099 1198L2080 1232M2163 1143L2230 1208M2308 1170L2356 1133M2308 1170L2230 1208M2308 1170L2258 1232M2356 1133L2408 1210M2465 1125L2536 1174M2465 1125L2408 1210M2536 1174L2574 1213M2536 1174L2508 1235M-24 1174L14 1213M14 1213L-52 1235M14 1213L35 1303M2574 1213L2508 1235M122 1220L226 1214M122 1220L35 1303M226 1214L252 1265M252 1265L216 1330M252 1265L295 1334M252 1265L339 1327M346 1223L441 1240M346 1223L339 1327M441 1240L501 1209M441 1240L474 1288M441 1240L511 1314M501 1209L474 1288M703 1258L760 1238M703 1258L652 1313M703 1258L734 1311M760 1238L825 1276M760 1238L734 1311M760 1238L829 1304M825 1276L889 1237M825 1276L829 1304M889 1237L829 1304M889 1237L908 1344M1015 1224L1086 1221M1015 1224L1032 1327M1086 1221L1115 1338M1086 1221L1162 1282M1199 1220L1264 1240M1199 1220L1281 1255M1199 1220L1162 1282M1264 1240L1281 1255M1264 1240L1287 1286M1281 1255L1287 1286M1439 1237L1489 1253M1439 1237L1434 1297M1439 1237L1449 1343M1489 1253L1554 1253M1489 1253L1434 1297M1489 1253L1449 1343M1554 1253L1644 1271M1554 1253L1596 1326M1644 1271L1730 1267M1644 1271L1596 1326M1644 1271L1671 1352M1644 1271L1620 1370M1730 1267L1801 1278M1730 1267L1747 1334M1730 1267L1782 1283M1801 1278L1847 1269M1801 1278L1747 1334M1801 1278L1782 1283M1847 1269L1782 1283M1847 1269L1917 1350M1847 1269L1899 1364M1997 1278L2070 1217M1997 1278L1977 1288M1997 1278L2031 1298M1997 1278L2080 1321M2070 1217L2080 1232M2070 1217L2031 1298M2080 1232L2031 1298M2080 1232L2080 1321M2230 1208L2258 1232M2230 1208L2298 1290M2258 1232L2357 1269M2258 1232L2168 1286M2258 1232L2298 1290M2357 1269L2408 1210M2357 1269L2298 1290M2357 1269L2359 1299M2357 1269L2430 1307M2408 1210L2359 1299M2408 1210L2430 1307M2508 1235L2595 1303M2508 1235L2430 1307M2508 1235L2517 1314M-52 1235L35 1303M35 1303L133 1353M35 1303L-43 1314M2595 1303L2517 1314M133 1353L216 1330M133 1353L153 1406M216 1330L295 1334M216 1330L207 1420M216 1330L250 1407M295 1334L339 1327M295 1334L250 1407M295 1334L378 1367M339 1327L378 1367M474 1288L511 1314M474 1288L571 1348M474 1288L378 1367M511 1314L571 1348M571 1348L652 1313M571 1348L535 1417M571 1348L608 1419M652 1313L734 1311M652 1313L718 1392M734 1311L718 1392M734 1311L731 1389M829 1304L908 1344M829 1304L874 1392M908 1344L874 1392M908 1344L891 1398M908 1344L962 1406M1032 1327L1115 1338M1032 1327L962 1406M1032 1327L1108 1382M1115 1338L1162 1282M1115 1338L1108 1382M1115 1338L1184 1404M1162 1282L1235 1348M1235 1348L1287 1286M1235 1348L1184 1404M1235 1348L1229 1426M1235 1348L1315 1403M1434 1297L1449 1343M1434 1297L1379 1402M1434 1297L1480 1392M1449 1343L1379 1402M1449 1343L1480 1392M1596 1326L1671 1352M1596 1326L1551 1418M1596 1326L1620 1370M1671 1352L1747 1334M1671 1352L1620 1370M1671 1352L1741 1399M1747 1334L1782 1283M1747 1334L1741 1399M1917 1350L1977 1288M1917 1350L1899 1364M1917 1350L1943 1412M1977 1288L2031 1298M2031 1298L2080 1321M2080 1321L2079 1422M2080 1321L2117 1395M2168 1286L2117 1395M2298 1290L2359 1299M2298 1290L2241 1387M2359 1299L2430 1307M2430 1307L2517 1314M2517 1314L2473 1432M2517 1314L2497 1421M153 1406L207 1420M153 1406L250 1407M207 1420L250 1407M378 1367L402 1434M535 1417L608 1419M718 1392L731 1389M874 1392L891 1398M874 1392L962 1406M891 1398L962 1406M1108 1382L1184 1404M1184 1404L1229 1426M1229 1426L1315 1403M1315 1403L1379 1402M1480 1392L1551 1418M1551 1418L1620 1370M1620 1370L1741 1399M1741 1399L1766 1427M1899 1364L1943 1412M2079 1422L2117 1395M2079 1422L2163 1409M2117 1395L2163 1409M2163 1409L2241 1387M2241 1387L2339 1429M2473 1432L2497 1421"/></svg>