<svg xmlns="http://www.w3.org/2000/svg" width="2560" height="1440" fill="#fff"><circle cx="34" cy="52" r="5"/><circle cx="135" cy="44" r="6"/><circle cx="234" cy="45" r="4"/><circle cx="245" cy="32" r="5"/><circle cx="366" cy="66" r="5"/><circle cx="474" cy="24" r="4"/><circle cx="527" cy="45" r="4"/><circle cx="588" cy="28" r="5"/><circle cx="694" cy="19" r="6"/><circle cx="743" cy="78" r="6"/><circle cx="837" cy="48" r="4"/><circle cx="924" cy="62" r="6"/><circle cx="1013" cy="20" r="4"/><circle cx="1090" cy="7" r="5"/><circle cx="1121" cy="10" r="5"/><circle cx="1204" cy="33" r="4"/><circle cx="1349" cy="52" r="5"/><circle cx="1431" cy="51" r="6"/><circle cx="1442" cy="58" r="6"/><circle cx="1532" cy="26" r="6"/><circle cx="1618" cy="45" r="5"/><circle cx="1692" cy="64" r="5"/><circle cx="1788" cy="35" r="6"/><circle cx="1901" cy="54" r="4"/><circle cx="1969" cy="5" r="4"/><circle cx="2055" cy="60" r="6"/><circle cx="2104" cy="19" r="5"/><circle cx="2194" cy="45" r="5"/><circle cx="2248" cy="64" r="6"/><circle cx="2327" cy="69" r="5"/><circle cx="2451" cy="49" r="4"/><circle cx="2487" cy="43" r="5"/><circle cx="56" cy="150" r="4"/><circle cx="86" cy="110" r="5"/><circle cx="191" cy="147" r="4"/><circle cx="287" cy="90" r="4"/><circle cx="388" cy="81" r="6"/><circle cx="405" cy="80" r="6"/><circle cx="528" cy="136" r="5"/><circle cx="638" cy="86" r="4"/><circle cx="705" cy="114" r="5"/><circle cx="765" cy="105" r="5"/><circle cx="816" cy="116" r="6"/><circle cx="924" cy="104" r="6"/><circle cx="973" cy="96" r="5"/><circle cx="1089" cy="138" r="4"/><circle cx="1191" cy="87" r="5"/><circle cx="1267" cy="137" r="6"/><circle cx="1304" cy="91" r="5"/><circle cx="1397" cy="88" r="5"/><circle cx="1469" cy="81" r="5"/><circle cx="1593" cy="138" r="5"/><circle cx="1679" cy="137" r="6"/><circle cx="1697" cy="131" r="5"/><circle cx="1829" cy="157" r="6"/><circle cx="1867" cy="123" r="4"/><circle cx="1975" cy="87" r="6"/><circle cx="2074" cy="159" r="4"/><circle cx="2100" cy="123" r="5"/><circle cx="2181" cy="96" r="5"/><circle cx="2247" cy="85" r="4"/><circle cx="2324" cy="131" r="5"/><circle cx="2456" cy="136" r="4"/><circle cx="2527" cy="120" r="5"/><circle cx="42" cy="165" r="4"/><circle cx="160" cy="216" r="5"/><circle cx="217" cy="188" r="5"/><circle cx="286" cy="211" r="6"/><circle cx="357" cy="198" r="5"/><circle cx="464" cy="209" r="5"/><circle cx="485" cy="160" r="6"/><circle cx="625" cy="161" r="5"/><circle cx="714" cy="169" r="4"/><circle cx="739" cy="161" r="5"/><circle cx="850" cy="160" r="5"/><circle cx="958" cy="168" r="5"/><circle cx="1024" cy="195" r="6"/><circle cx="1084" cy="191" r="5"/><circle cx="1172" cy="174" r="6"/><circle cx="1236" cy="208" r="4"/><circle cx="1311" cy="173" r="6"/><circle cx="1432" cy="172" r="4"/><circle cx="1492" cy="172" r="5"/><circle cx="1542" cy="167" r="4"/><circle cx="1671" cy="214" r="4"/><circle cx="1686" cy="173" r="4"/><circle cx="1802" cy="220" r="6"/><circle cx="1856" cy="194" r="4"/><circle cx="1975" cy="163" r="5"/><circle cx="2070" cy="201" r="4"/><circle cx="2123" cy="175" r="5"/><circle cx="2172" cy="181" r="4"/><circle cx="2259" cy="212" r="5"/><circle cx="2324" cy="202" r="5"/><circle cx="2403" cy="172" r="5"/><circle cx="2555" cy="224" r="5"/><circle cx="-5" cy="224" r="5"/><circle cx="17" cy="316" r="5"/><circle cx="147" cy="276" r="6"/><circle cx="217" cy="282" r="6"/><circle cx="313" cy="300" r="5"/><circle cx="377" cy="250" r="5"/><circle cx="455" cy="314" r="5"/><circle cx="503" cy="241" r="6"/><circle cx="622" cy="320" r="5"/><circle cx="687" cy="305" r="4"/><circle cx="779" cy="269" r="5"/><circle cx="852" cy="292" r="5"/><circle cx="886" cy="250" r="5"/><circle cx="1007" cy="295" r="6"/><circle cx="1115" cy="286" r="5"/><circle cx="1199" cy="295" r="5"/><circle cx="1219" cy="293" r="5"/><circle cx="1284" cy="253" r="5"/><circle cx="1420" cy="283" r="5"/><circle cx="1472" cy="306" r="6"/><circle cx="1537" cy="290" r="4"/><circle cx="1620" cy="266" r="6"/><circle cx="1693" cy="240" r="4"/><circle cx="1799" cy="291" r="5"/><circle cx="1911" cy="286" r="5"/><circle cx="1944" cy="309" r="5"/><circle cx="2078" cy="278" r="6"/><circle cx="2113" cy="255" r="5"/><circle cx="2238" cy="244" r="6"/><circle cx="2263" cy="262" r="4"/><circle cx="2384" cy="312" r="5"/><circle cx="2437" cy="313" r="4"/><circle cx="2559" cy="312" r="5"/><circle cx="-1" cy="312" r="5"/><circle cx="65" cy="366" r="4"/><circle cx="144" cy="385" r="4"/><circle cx="170" cy="394" r="4"/><circle cx="299" cy="388" r="4"/><circle cx="329" cy="375" r="6"/><circle cx="436" cy="394" r="5"/><circle cx="559" cy="392" r="5"/><circle cx="600" cy="342" r="4"/><circle cx="671" cy="336" r="4"/><circle cx="790" cy="382" r="6"/><circle cx="834" cy="396" r="5"/><circle cx="913" cy="379" r="5"/><circle cx="1034" cy="339" r="6"/><circle cx="1087" cy="323" r="4"/><circle cx="1178" cy="325" r="5"/><circle cx="1253" cy="386" r="5"/><circle cx="1309" cy="387" r="5"/><circle cx="1391" cy="352" r="5"/><circle cx="1448" cy="331" r="5"/><circle cx="1542" cy="371" r="5"/><circle cx="1608" cy="327" r="4"/><circle cx="1760" cy="339" r="6"/><circle cx="1838" cy="376" r="5"/><circle cx="1881" cy="369" r="5"/><circle cx="1970" cy="399" r="5"/><circle cx="2043" cy="364" r="4"/><circle cx="2149" cy="346" r="5"/><circle cx="2236" cy="384" r="5"/><circle cx="2319" cy="364" r="4"/><circle cx="2342" cy="365" r="4"/><circle cx="2448" cy="335" r="4"/><circle cx="2543" cy="333" r="5"/><circle cx="55" cy="427" r="5"/><circle cx="104" cy="462" r="5"/><circle cx="217" cy="422" r="5"/><circle cx="289" cy="405" r="5"/><circle cx="351" cy="414" r="4"/><circle cx="451" cy="424" r="5"/><circle cx="485" cy="425" r="4"/><circle cx="627" cy="430" r="5"/><circle cx="688" cy="449" r="5"/><circle cx="720" cy="453" r="4"/><circle cx="807" cy="406" r="4"/><circle cx="904" cy="467" r="6"/><circle cx="996" cy="462" r="5"/><circle cx="1107" cy="425" r="5"/><circle cx="1183" cy="460" r="5"/><circle cx="1259" cy="401" r="5"/><circle cx="1345" cy="444" r="5"/><circle cx="1435" cy="405" r="6"/><circle cx="1444" cy="463" r="5"/><circle cx="1580" cy="421" r="4"/><circle cx="1654" cy="478" r="5"/><circle cx="1688" cy="421" r="5"/><circle cx="1804" cy="455" r="5"/><circle cx="1851" cy="433" r="5"/><circle cx="1963" cy="416" r="4"/><circle cx="2011" cy="469" r="5"/><circle cx="2141" cy="464" r="5"/><circle cx="2206" cy="479" r="6"/><circle cx="2251" cy="413" r="5"/><circle cx="2382" cy="401" r="5"/><circle cx="2436" cy="423" r="5"/><circle cx="2549" cy="419" r="6"/><circle cx="57" cy="497" r="5"/><circle cx="151" cy="542" r="5"/><circle cx="233" cy="490" r="5"/><circle cx="289" cy="539" r="5"/><circle cx="337" cy="495" r="4"/><circle cx="460" cy="526" r="5"/><circle cx="485" cy="540" r="6"/><circle cx="600" cy="536" r="5"/><circle cx="682" cy="540" r="6"/><circle cx="773" cy="531" r="6"/><circle cx="848" cy="502" r="4"/><circle cx="893" cy="484" r="4"/><circle cx="1038" cy="514" r="5"/><circle cx="1091" cy="521" r="5"/><circle cx="1147" cy="553" r="5"/><circle cx="1254" cy="502" r="5"/><circle cx="1321" cy="530" r="5"/><circle cx="1431" cy="542" r="5"/><circle cx="1453" cy="556" r="6"/><circle cx="1582" cy="553" r="4"/><circle cx="1612" cy="558" r="4"/><circle cx="1700" cy="520" r="6"/><circle cx="1786" cy="498" r="5"/><circle cx="1857" cy="518" r="4"/><circle cx="1968" cy="481" r="4"/><circle cx="2054" cy="555" r="5"/><circle cx="2102" cy="485" r="5"/><circle cx="2164" cy="498" r="4"/><circle cx="2261" cy="524" r="5"/><circle cx="2378" cy="522" r="5"/><circle cx="2436" cy="543" r="6"/><circle cx="2542" cy="556" r="5"/><circle cx="37" cy="562" r="5"/><circle cx="107" cy="564" r="4"/><circle cx="174" cy="599" r="6"/><circle cx="287" cy="597" r="6"/><circle cx="377" cy="588" r="5"/><circle cx="460" cy="592" r="5"/><circle cx="540" cy="576" r="5"/><circle cx="612" cy="626" r="5"/><circle cx="654" cy="596" r="4"/><circle cx="729" cy="581" r="4"/><circle cx="800" cy="561" r="5"/><circle cx="933" cy="623" r="4"/><circle cx="997" cy="640" r="6"/><circle cx="1059" cy="586" r="4"/><circle cx="1141" cy="617" r="4"/><circle cx="1232" cy="629" r="4"/><circle cx="1335" cy="591" r="4"/><circle cx="1435" cy="580" r="5"/><circle cx="1453" cy="592" r="5"/><circle cx="1546" cy="585" r="5"/><circle cx="1654" cy="621" r="5"/><circle cx="1685" cy="579" r="5"/><circle cx="1827" cy="637" r="6"/><circle cx="1871" cy="603" r="6"/><circle cx="1982" cy="580" r="5"/><circle cx="2056" cy="572" r="4"/><circle cx="2138" cy="605" r="5"/><circle cx="2213" cy="611" r="5"/><circle cx="2303" cy="620" r="6"/><circle cx="2347" cy="622" r="5"/><circle cx="2465" cy="630" r="5"/><circle cx="2529" cy="614" r="6"/><circle cx="2" cy="647" r="4"/><circle cx="2562" cy="647" r="4"/><circle cx="110" cy="656" r="5"/><circle cx="164" cy="680" r="4"/><circle cx="287" cy="714" r="4"/><circle cx="373" cy="643" r="5"/><circle cx="418" cy="669" r="6"/><circle cx="537" cy="654" r="4"/><circle cx="569" cy="649" r="5"/><circle cx="663" cy="685" r="5"/><circle cx="770" cy="712" r="6"/><circle cx="866" cy="683" r="5"/><circle cx="913" cy="663" r="6"/><circle cx="974" cy="687" r="6"/><circle cx="1090" cy="704" r="5"/><circle cx="1167" cy="698" r="5"/><circle cx="1264" cy="709" r="4"/><circle cx="1289" cy="649" r="4"/><circle cx="1366" cy="651" r="4"/><circle cx="1459" cy="701" r="5"/><circle cx="1522" cy="707" r="6"/><circle cx="1607" cy="704" r="5"/><circle cx="1749" cy="657" r="5"/><circle cx="1798" cy="712" r="5"/><circle cx="1867" cy="675" r="5"/><circle cx="1970" cy="666" r="5"/><circle cx="2018" cy="659" r="4"/><circle cx="2119" cy="695" r="4"/><circle cx="2178" cy="715" r="5"/><circle cx="2310" cy="645" r="5"/><circle cx="2394" cy="650" r="5"/><circle cx="2407" cy="652" r="6"/><circle cx="2555" cy="703" r="5"/><circle cx="42" cy="800" r="5"/><circle cx="98" cy="726" r="4"/><circle cx="169" cy="791" r="5"/><circle cx="242" cy="784" r="5"/><circle cx="331" cy="760" r="5"/><circle cx="438" cy="769" r="5"/><circle cx="537" cy="775" r="4"/><circle cx="593" cy="778" r="5"/><circle cx="657" cy="791" r="4"/><circle cx="780" cy="747" r="5"/><circle cx="831" cy="721" r="5"/><circle cx="895" cy="787" r="5"/><circle cx="1024" cy="786" r="5"/><circle cx="1119" cy="754" r="5"/><circle cx="1191" cy="783" r="4"/><circle cx="1237" cy="721" r="6"/><circle cx="1325" cy="789" r="4"/><circle cx="1439" cy="759" r="5"/><circle cx="1502" cy="769" r="5"/><circle cx="1575" cy="789" r="6"/><circle cx="1649" cy="788" r="5"/><circle cx="1747" cy="778" r="6"/><circle cx="1773" cy="799" r="6"/><circle cx="1849" cy="738" r="4"/><circle cx="1959" cy="733" r="4"/><circle cx="2005" cy="726" r="5"/><circle cx="2146" cy="773" r="4"/><circle cx="2197" cy="796" r="5"/><circle cx="2262" cy="767" r="6"/><circle cx="2364" cy="727" r="5"/><circle cx="2441" cy="751" r="5"/><circle cx="2481" cy="764" r="5"/><circle cx="57" cy="866" r="5"/><circle cx="122" cy="833" r="4"/><circle cx="235" cy="879" r="4"/><circle cx="300" cy="854" r="5"/><circle cx="393" cy="835" r="4"/><circle cx="423" cy="832" r="6"/><circle cx="515" cy="803" r="5"/><circle cx="584" cy="820" r="6"/><circle cx="645" cy="861" r="5"/><circle cx="775" cy="813" r="4"/><circle cx="839" cy="847" r="6"/><circle cx="880" cy="849" r="6"/><circle cx="1026" cy="841" r="5"/><circle cx="1097" cy="869" r="4"/><circle cx="1139" cy="805" r="6"/><circle cx="1206" cy="803" r="5"/><circle cx="1316" cy="825" r="5"/><circle cx="1440" cy="833" r="4"/><circle cx="1482" cy="880" r="5"/><circle cx="1546" cy="802" r="4"/><circle cx="1622" cy="831" r="5"/><circle cx="1720" cy="871" r="5"/><circle cx="1778" cy="842" r="4"/><circle cx="1890" cy="847" r="5"/><circle cx="1928" cy="826" r="5"/><circle cx="2076" cy="822" r="5"/><circle cx="2103" cy="835" r="6"/><circle cx="2161" cy="873" r="5"/><circle cx="2282" cy="856" r="5"/><circle cx="2327" cy="833" r="5"/><circle cx="2426" cy="840" r="4"/><circle cx="2532" cy="869" r="5"/><circle cx="44" cy="888" r="6"/><circle cx="145" cy="904" r="4"/><circle cx="209" cy="910" r="6"/><circle cx="256" cy="920" r="4"/><circle cx="331" cy="904" r="5"/><circle cx="476" cy="924" r="5"/><circle cx="550" cy="933" r="5"/><circle cx="634" cy="925" r="6"/><circle cx="673" cy="897" r="5"/><circle cx="761" cy="904" r="4"/><circle cx="842" cy="941" r="5"/><circle cx="934" cy="918" r="5"/><circle cx="1009" cy="959" r="4"/><circle cx="1078" cy="901" r="4"/><circle cx="1195" cy="899" r="4"/><circle cx="1244" cy="927" r="6"/><circle cx="1282" cy="883" r="5"/><circle cx="1377" cy="956" r="5"/><circle cx="1515" cy="884" r="6"/><circle cx="1582" cy="892" r="6"/><circle cx="1650" cy="948" r="6"/><circle cx="1692" cy="920" r="5"/><circle cx="1818" cy="890" r="5"/><circle cx="1907" cy="893" r="5"/><circle cx="1956" cy="930" r="5"/><circle cx="2071" cy="907" r="5"/><circle cx="2127" cy="889" r="4"/><circle cx="2224" cy="908" r="5"/><circle cx="2269" cy="927" r="6"/><circle cx="2337" cy="954" r="4"/><circle cx="2471" cy="952" r="4"/><circle cx="2520" cy="899" r="5"/><circle cx="6" cy="1028" r="5"/><circle cx="106" cy="976" r="6"/><circle cx="229" cy="979" r="5"/><circle cx="291" cy="961" r="5"/><circle cx="357" cy="966" r="5"/><circle cx="435" cy="1000" r="5"/><circle cx="523" cy="988" r="4"/><circle cx="607" cy="1012" r="4"/><circle cx="664" cy="1024" r="5"/><circle cx="721" cy="1034" r="5"/><circle cx="864" cy="1022" r="5"/><circle cx="960" cy="1016" r="5"/><circle cx="969" cy="1013" r="5"/><circle cx="1082" cy="998" r="4"/><circle cx="1124" cy="980" r="5"/><circle cx="1243" cy="982" r="5"/><circle cx="1329" cy="979" r="4"/><circle cx="1417" cy="1017" r="5"/><circle cx="1519" cy="1029" r="4"/><circle cx="1591" cy="974" r="5"/><circle cx="1637" cy="1007" r="5"/><circle cx="1700" cy="961" r="5"/><circle cx="1785" cy="966" r="5"/><circle cx="1911" cy="990" r="6"/><circle cx="1947" cy="1022" r="4"/><circle cx="2043" cy="1033" r="5"/><circle cx="2083" cy="1028" r="5"/><circle cx="2179" cy="1000" r="6"/><circle cx="2258" cy="964" r="5"/><circle cx="2336" cy="972" r="6"/><circle cx="2431" cy="978" r="5"/><circle cx="2548" cy="1025" r="6"/><circle cx="72" cy="1068" r="5"/><circle cx="107" cy="1055" r="5"/><circle cx="201" cy="1106" r="5"/><circle cx="245" cy="1061" r="6"/><circle cx="321" cy="1095" r="5"/><circle cx="449" cy="1047" r="5"/><circle cx="511" cy="1094" r="5"/><circle cx="633" cy="1090" r="5"/><circle cx="684" cy="1112" r="5"/><circle cx="779" cy="1104" r="4"/><circle cx="848" cy="1060" r="6"/><circle cx="950" cy="1113" r="5"/><circle cx="986" cy="1049" r="6"/><circle cx="1088" cy="1077" r="5"/><circle cx="1124" cy="1052" r="5"/><circle cx="1209" cy="1056" r="6"/><circle cx="1331" cy="1082" r="5"/><circle cx="1420" cy="1062" r="5"/><circle cx="1497" cy="1064" r="5"/><circle cx="1525" cy="1098" r="4"/><circle cx="1624" cy="1075" r="4"/><circle cx="1692" cy="1084" r="4"/><circle cx="1828" cy="1112" r="5"/><circle cx="1863" cy="1068" r="5"/><circle cx="1934" cy="1108" r="5"/><circle cx="2006" cy="1100" r="5"/><circle cx="2128" cy="1094" r="6"/><circle cx="2238" cy="1044" r="5"/><circle cx="2252" cy="1064" r="6"/><circle cx="2368" cy="1047" r="5"/><circle cx="2422" cy="1056" r="5"/><circle cx="2555" cy="1087" r="6"/><circle cx="-5" cy="1087" r="6"/><circle cx="58" cy="1167" r="5"/><circle cx="124" cy="1188" r="6"/><circle cx="166" cy="1145" r="5"/><circle cx="296" cy="1176" r="6"/><circle cx="376" cy="1135" r="5"/><circle cx="454" cy="1165" r="6"/><circle cx="536" cy="1141" r="5"/><circle cx="561" cy="1193" r="6"/><circle cx="651" cy="1173" r="6"/><circle cx="739" cy="1135" r="4"/><circle cx="842" cy="1146" r="5"/><circle cx="889" cy="1148" r="5"/><circle cx="1005" cy="1128" r="5"/><circle cx="1088" cy="1160" r="6"/><circle cx="1194" cy="1146" r="6"/><circle cx="1276" cy="1120" r="5"/><circle cx="1285" cy="1199" r="5"/><circle cx="1388" cy="1123" r="4"/><circle cx="1468" cy="1154" r="5"/><circle cx="1542" cy="1129" r="4"/><circle cx="1611" cy="1140" r="4"/><circle cx="1719" cy="1151" r="5"/><circle cx="1829" cy="1148" r="4"/><circle cx="1884" cy="1120" r="4"/><circle cx="1923" cy="1157" r="4"/><circle cx="2038" cy="1126" r="5"/><circle cx="2099" cy="1151" r="5"/><circle cx="2216" cy="1122" r="4"/><circle cx="2299" cy="1158" r="5"/><circle cx="2337" cy="1158" r="5"/><circle cx="2439" cy="1122" r="5"/><circle cx="2536" cy="1183" r="5"/><circle cx="80" cy="1216" r="5"/><circle cx="126" cy="1223" r="5"/><circle cx="183" cy="1255" r="4"/><circle cx="253" cy="1223" r="4"/><circle cx="338" cy="1258" r="6"/><circle cx="463" cy="1242" r="5"/><circle cx="508" cy="1225" r="6"/><circle cx="585" cy="1221" r="5"/><circle cx="655" cy="1269" r="6"/><circle cx="740" cy="1256" r="5"/><circle cx="800" cy="1209" r="4"/><circle cx="930" cy="1209" r="5"/><circle cx="962" cy="1236" r="5"/><circle cx="1049" cy="1201" r="5"/><circle cx="1196" cy="1259" r="4"/><circle cx="1269" cy="1222" r="4"/><circle cx="1321" cy="1272" r="4"/><circle cx="1386" cy="1246" r="6"/><circle cx="1456" cy="1207" r="6"/><circle cx="1554" cy="1278" r="5"/><circle cx="1622" cy="1277" r="6"/><circle cx="1710" cy="1216" r="4"/><circle cx="1763" cy="1255" r="4"/><circle cx="1898" cy="1248" r="5"/><circle cx="1946" cy="1203" r="5"/><circle cx="2006" cy="1208" r="6"/><circle cx="2116" cy="1266" r="5"/><circle cx="2223" cy="1276" r="5"/><circle cx="2297" cy="1250" r="6"/><circle cx="2347" cy="1216" r="4"/><circle cx="2431" cy="1266" r="4"/><circle cx="2503" cy="1259" r="4"/><circle cx="73" cy="1309" r="6"/><circle cx="96" cy="1346" r="4"/><circle cx="224" cy="1314" r="5"/><circle cx="293" cy="1348" r="6"/><circle cx="381" cy="1317" r="5"/><circle cx="423" cy="1312" r="5"/><circle cx="517" cy="1289" r="5"/><circle cx="624" cy="1306" r="4"/><circle cx="664" cy="1308" r="4"/><circle cx="764" cy="1323" r="4"/><circle cx="812" cy="1312" r="6"/><circle cx="882" cy="1337" r="5"/><circle cx="971" cy="1358" r="5"/><circle cx="1106" cy="1346" r="4"/><circle cx="1127" cy="1291" r="5"/><circle cx="1252" cy="1355" r="4"/><circle cx="1335" cy="1322" r="5"/><circle cx="1436" cy="1338" r="6"/><circle cx="1471" cy="1323" r="6"/><circle cx="1571" cy="1296" r="4"/><circle cx="1654" cy="1312" r="5"/><circle cx="1697" cy="1291" r="5"/><circle cx="1799" cy="1320" r="6"/><circle cx="1894" cy="1351" r="5"/><circle cx="1976" cy="1309" r="5"/><circle cx="2074" cy="1348" r="5"/><circle cx="2138" cy="1333" r="5"/><circle cx="2166" cy="1319" r="5"/><circle cx="2276" cy="1305" r="4"/><circle cx="2392" cy="1299" r="5"/><circle cx="2478" cy="1300" r="4"/><circle cx="2500" cy="1314" r="5"/><circle cx="62" cy="1388" r="5"/><circle cx="155" cy="1411" r="5"/><circle cx="168" cy="1366" r="4"/><circle cx="276" cy="1405" r="4"/><circle cx="395" cy="1428" r="4"/><circle cx="445" cy="1363" r="6"/><circle cx="542" cy="1382" r="4"/><circle cx="606" cy="1383" r="5"/><circle cx="693" cy="1397" r="5"/><circle cx="763" cy="1404" r="6"/><circle cx="831" cy="1372" r="6"/><circle cx="956" cy="1411" r="5"/><circle cx="969" cy="1363" r="5"/><circle cx="1106" cy="1365" r="5"/><circle cx="1163" cy="1387" r="6"/><circle cx="1233" cy="1371" r="5"/><circle cx="1348" cy="1369" r="5"/><circle cx="1404" cy="1434" r="6"/><circle cx="1463" cy="1426" r="6"/><circle cx="1544" cy="1369" r="6"/><circle cx="1645" cy="1373" r="4"/><circle cx="1707" cy="1385" r="6"/><circle cx="1832" cy="1381" r="5"/><circle cx="1888" cy="1432" r="4"/><circle cx="1955" cy="1390" r="5"/><circle cx="2040" cy="1376" r="5"/><circle cx="2146" cy="1365" r="6"/><circle cx="2227" cy="1392" r="5"/><circle cx="2242" cy="1387" r="5"/><circle cx="2367" cy="1390" r="6"/><circle cx="2408" cy="1373" r="6"/><circle cx="2538" cy="1362" r="5"/><path stroke="#fff" d="M34 52L135 44M34 52L-73 43M34 52L86 110M34 52L-33 120M34 52L62 -52M2594 52L2487 43M2594 52L2527 120M34 1492L62 1388M135 44L234 45M135 44L245 32M135 44L86 110M135 44L155 -29M135 1484L155 1411M234 45L245 32M234 45L287 90M234 45L276 -35M234 1485L276 1405M245 32L287 90M245 32L155 -29M245 32L276 -35M245 1472L155 1411M245 1472L276 1405M366 66L287 90M366 66L388 81M366 66L405 80M366 66L395 -12M366 1506L395 1428M474 24L527 45M474 24L388 81M474 24L405 80M474 24L395 -12M474 1464L395 1428M527 45L588 28M527 45L528 136M527 45L542 -58M527 1485L542 1382M588 28L638 86M588 28L542 -58M588 28L606 -57M588 1468L542 1382M588 1468L606 1383M694 19L743 78M694 19L638 86M694 19L693 -43M694 19L763 -36M694 1459L693 1397M694 1459L763 1404M743 78L705 114M743 78L765 105M743 78L816 116M743 78L739 161M837 48L924 62M837 48L816 116M837 48L924 104M924 62L1013 20M924 62L924 104M924 62L973 96M924 62L956 -29M924 1502L956 1411M1013 20L1090 7M1013 20L973 96M1013 20L956 -29M1013 20L969 -77M1013 1460L956 1411M1013 1460L969 1363M1090 7L1121 10M1090 7L1106 -94M1090 7L1106 -75M1090 7L1163 -53M1090 1447L1106 1346M1090 1447L1106 1365M1090 1447L1163 1387M1121 10L1204 33M1121 10L1191 87M1121 10L1106 -75M1121 10L1163 -53M1121 1450L1106 1365M1121 1450L1163 1387M1204 33L1191 87M1204 33L1233 -69M1204 1473L1233 1371M1349 52L1304 91M1349 52L1397 88M1349 52L1404 -6M1349 1492L1404 1434M1431 51L1442 58M1431 51L1397 88M1431 51L1469 81M1431 51L1404 -6M1431 51L1463 -14M1431 1491L1404 1434M1431 1491L1463 1426M1442 58L1397 88M1442 58L1469 81M1442 58L1404 -6M1442 58L1463 -14M1442 1498L1404 1434M1442 1498L1463 1426M1532 26L1618 45M1532 26L1469 81M1532 26L1463 -14M1532 26L1544 -71M1532 1466L1463 1426M1532 1466L1544 1369M1618 45L1692 64M1618 45L1593 138M1692 64L1788 35M1692 64L1679 137M1692 64L1697 131M1788 35L1829 157M1788 35L1707 -55M1788 35L1832 -59M1788 1475L1707 1385M1788 1475L1832 1381M1901 54L1969 5M1901 54L1829 157M1901 54L1867 123M1901 54L1975 87M1901 54L1888 -8M1901 1494L1888 1432M1969 5L2055 60M1969 5L1975 87M1969 5L1888 -8M1969 5L1955 -50M1969 1445L1888 1432M1969 1445L1955 1390M2055 60L2104 19M2055 60L1975 87M2055 60L2074 159M2055 60L2100 123M2104 19L2194 45M2104 19L2040 -64M2104 1459L2040 1376M2194 45L2248 64M2194 45L2181 96M2194 45L2247 85M2194 45L2227 -48M2194 1485L2227 1392M2248 64L2327 69M2248 64L2181 96M2248 64L2247 85M2248 64L2324 131M2327 69L2247 85M2327 69L2324 131M2327 69L2403 172M2327 69L2367 -50M2327 1509L2367 1390M2451 49L2487 43M2451 49L2456 136M2487 43L2456 136M2487 43L2527 120M56 150L86 110M56 150L-33 120M56 150L42 165M56 150L-5 224M2616 150L2527 120M2616 150L2555 224M86 110L42 165M191 147L160 216M191 147L217 188M287 90L388 81M388 81L405 80M388 81L395 -12M388 1521L395 1428M405 80L485 160M405 80L395 -12M405 1520L395 1428M528 136L464 209M528 136L485 160M528 136L625 161M528 136L503 241M638 86L705 114M638 86L625 161M638 86L714 169M705 114L765 105M705 114L714 169M705 114L739 161M765 105L816 116M765 105L714 169M765 105L739 161M816 116L739 161M816 116L850 160M924 104L973 96M924 104L850 160M924 104L958 168M973 96L958 168M973 96L1024 195M1089 138L1024 195M1089 138L1084 191M1089 138L1172 174M1191 87L1267 137M1191 87L1304 91M1191 87L1172 174M1267 137L1304 91M1267 137L1172 174M1267 137L1236 208M1267 137L1311 173M1304 91L1311 173M1397 88L1469 81M1593 138L1679 137M1593 138L1697 131M1593 138L1492 172M1593 138L1542 167M1679 137L1697 131M1679 137L1671 214M1679 137L1686 173M1697 131L1671 214M1697 131L1686 173M1829 157L1867 123M1829 157L1802 220M1829 157L1856 194M1867 123L1975 87M1867 123L1856 194M1975 87L1975 163M2074 159L2100 123M2074 159L2070 201M2074 159L2123 175M2100 123L2181 96M2100 123L2070 201M2100 123L2123 175M2181 96L2247 85M2181 96L2172 181M2247 85L2324 131M2324 131L2324 202M2324 131L2403 172M2456 136L2527 120M2456 136L2403 172M2527 120L2602 165M-33 120L42 165M42 165L-5 224M2602 165L2555 224M160 216L217 188M160 216L147 276M160 216L217 282M217 188L286 211M217 188L147 276M217 188L217 282M286 211L357 198M286 211L217 282M286 211L313 300M286 211L377 250M357 198L485 160M357 198L377 250M464 209L485 160M464 209L377 250M464 209L455 314M464 209L503 241M485 160L503 241M625 161L714 169M714 169L739 161M850 160L958 168M850 160L886 250M958 168L1024 195M958 168L886 250M1024 195L1084 191M1024 195L1007 295M1084 191L1172 174M1172 174L1236 208M1236 208L1311 173M1236 208L1219 293M1236 208L1284 253M1311 173L1432 172M1311 173L1284 253M1432 172L1492 172M1432 172L1420 283M1492 172L1542 167M1671 214L1686 173M1671 214L1620 266M1671 214L1693 240M1686 173L1620 266M1686 173L1693 240M1802 220L1856 194M1802 220L1693 240M1802 220L1799 291M1802 220L1760 339M1856 194L1911 286M2070 201L2123 175M2070 201L2078 278M2070 201L2113 255M2123 175L2172 181M2123 175L2113 255M2172 181L2259 212M2172 181L2113 255M2172 181L2238 244M2259 212L2324 202M2259 212L2238 244M2259 212L2263 262M2324 202L2403 172M2324 202L2238 244M2324 202L2263 262M2555 224L2577 316M2555 224L2559 312M2555 224L2543 333M-5 224L17 316M17 316L-1 312M17 316L65 366M17 316L-17 333M2577 316L2559 312M2577 316L2543 333M147 276L217 282M147 276L170 394M217 282L313 300M313 300L377 250M313 300L299 388M313 300L329 375M377 250L455 314M455 314L503 241M455 314L436 394M455 314L451 424M622 320L687 305M622 320L559 392M622 320L600 342M622 320L671 336M687 305L779 269M687 305L600 342M687 305L671 336M779 269L852 292M779 269L886 250M779 269L790 382M852 292L886 250M852 292L790 382M852 292L834 396M852 292L913 379M1007 295L1115 286M1007 295L1034 339M1007 295L1087 323M1115 286L1199 295M1115 286L1034 339M1115 286L1087 323M1115 286L1178 325M1199 295L1219 293M1199 295L1284 253M1199 295L1178 325M1219 293L1284 253M1219 293L1178 325M1219 293L1253 386M1420 283L1472 306M1420 283L1391 352M1420 283L1448 331M1472 306L1537 290M1472 306L1391 352M1472 306L1448 331M1472 306L1542 371M1537 290L1620 266M1537 290L1542 371M1537 290L1608 327M1620 266L1693 240M1620 266L1608 327M1799 291L1911 286M1799 291L1760 339M1799 291L1838 376M1911 286L1944 309M1911 286L1881 369M1944 309L1881 369M1944 309L1963 416M2078 278L2113 255M2078 278L2043 364M2078 278L2149 346M2113 255L2149 346M2238 244L2263 262M2384 312L2437 313M2384 312L2319 364M2384 312L2342 365M2384 312L2448 335M2384 312L2382 401M2437 313L2448 335M2559 312L2625 366M2559 312L2543 333M2559 312L2549 419M-1 312L65 366M65 366L144 385M65 366L55 427M65 366L-11 419M2625 366L2549 419M144 385L170 394M144 385L55 427M144 385L104 462M144 385L217 422M170 394L104 462M170 394L217 422M299 388L329 375M299 388L217 422M299 388L289 405M299 388L351 414M329 375L436 394M329 375L289 405M329 375L351 414M436 394L351 414M436 394L451 424M436 394L485 425M559 392L600 342M559 392L485 425M559 392L627 430M600 342L671 336M600 342L627 430M790 382L834 396M790 382L720 453M790 382L807 406M834 396L913 379M834 396L807 406M834 396L904 467M913 379L807 406M913 379L904 467M913 379L893 484M1034 339L1087 323M1034 339L1107 425M1087 323L1178 325M1087 323L1107 425M1178 325L1253 386M1253 386L1309 387M1253 386L1183 460M1253 386L1259 401M1309 387L1391 352M1309 387L1259 401M1309 387L1345 444M1391 352L1448 331M1391 352L1435 405M1448 331L1435 405M1542 371L1608 327M1542 371L1435 405M1542 371L1580 421M1608 327L1580 421M1760 339L1838 376M1760 339L1688 421M1760 339L1804 455M1838 376L1881 369M1838 376L1804 455M1838 376L1851 433M1881 369L1970 399M1881 369L1851 433M1970 399L2043 364M1970 399L1963 416M1970 399L2011 469M1970 399L1968 481M2043 364L2149 346M2043 364L1963 416M2149 346L2236 384M2149 346L2141 464M2236 384L2319 364M2236 384L2251 413M2319 364L2342 365M2319 364L2251 413M2319 364L2382 401M2342 365L2251 413M2342 365L2382 401M2448 335L2543 333M2448 335L2382 401M2448 335L2436 423M2543 333L2549 419M55 427L104 462M55 427L-11 419M55 427L57 497M2615 427L2549 419M104 462L57 497M104 462L151 542M217 422L289 405M217 422L233 490M289 405L351 414M289 405L233 490M351 414L337 495M451 424L485 425M451 424L460 526M627 430L688 449M627 430L720 453M688 449L720 453M688 449L682 540M720 453L773 531M807 406L848 502M904 467L996 462M904 467L848 502M904 467L893 484M996 462L893 484M996 462L1038 514M1107 425L1183 460M1107 425L1038 514M1107 425L1091 521M1183 460L1259 401M1183 460L1147 553M1183 460L1254 502M1259 401L1345 444M1259 401L1254 502M1345 444L1435 405M1345 444L1444 463M1345 444L1321 530M1435 405L1444 463M1444 463L1431 542M1444 463L1453 556M1580 421L1654 478M1580 421L1688 421M1654 478L1688 421M1654 478L1700 520M1654 478L1685 579M1688 421L1700 520M1804 455L1851 433M1804 455L1786 498M1804 455L1857 518M1851 433L1786 498M1851 433L1857 518M1963 416L2011 469M1963 416L1968 481M2011 469L1968 481M2011 469L2054 555M2011 469L2102 485M2141 464L2206 479M2141 464L2102 485M2141 464L2164 498M2206 479L2251 413M2206 479L2102 485M2206 479L2164 498M2206 479L2261 524M2251 413L2261 524M2382 401L2436 423M2436 423L2378 522M57 497L-18 556M57 497L37 562M57 497L107 564M2617 497L2542 556M151 542L233 490M151 542L107 564M151 542L174 599M233 490L289 539M289 539L337 495M289 539L287 597M289 539L377 588M337 495L287 597M460 526L485 540M460 526L460 592M485 540L600 536M485 540L460 592M485 540L540 576M600 536L682 540M600 536L540 576M600 536L612 626M600 536L654 596M682 540L773 531M682 540L654 596M682 540L729 581M773 531L848 502M773 531L729 581M773 531L800 561M848 502L893 484M848 502L800 561M893 484L800 561M1038 514L1091 521M1038 514L1147 553M1038 514L1059 586M1091 521L1147 553M1091 521L1059 586M1147 553L1059 586M1147 553L1141 617M1254 502L1321 530M1254 502L1335 591M1321 530L1431 542M1321 530L1335 591M1431 542L1453 556M1431 542L1435 580M1431 542L1453 592M1453 556L1435 580M1453 556L1453 592M1453 556L1546 585M1582 553L1612 558M1582 553L1546 585M1582 553L1654 621M1612 558L1700 520M1612 558L1546 585M1612 558L1654 621M1612 558L1685 579M1700 520L1786 498M1700 520L1685 579M1786 498L1857 518M1857 518L1871 603M2054 555L2102 485M2054 555L1982 580M2054 555L2056 572M2054 555L2138 605M2102 485L2164 498M2164 498L2261 524M2261 524L2213 611M2261 524L2303 620M2378 522L2436 543M2378 522L2347 622M2436 543L2542 556M2436 543L2465 630M2542 556L2597 562M2542 556L2529 614M2542 556L2562 647M-18 556L37 562M-18 556L2 647M37 562L107 564M37 562L-31 614M37 562L2 647M2597 562L2529 614M107 564L174 599M107 564L110 656M174 599L287 597M174 599L110 656M174 599L164 680M287 597L377 588M287 597L373 643M377 588L460 592M377 588L373 643M377 588L418 669M460 592L540 576M460 592L418 669M540 576L537 654M540 576L569 649M612 626L654 596M612 626L537 654M612 626L569 649M612 626L663 685M654 596L729 581M654 596L663 685M729 581L800 561M933 623L997 640M933 623L866 683M933 623L913 663M933 623L974 687M997 640L1059 586M997 640L913 663M997 640L974 687M997 640L1090 704M1059 586L1141 617M1141 617L1232 629M1141 617L1090 704M1141 617L1167 698M1232 629L1264 709M1232 629L1289 649M1335 591L1435 580M1335 591L1289 649M1335 591L1366 651M1435 580L1453 592M1435 580L1366 651M1453 592L1546 585M1453 592L1459 701M1654 621L1685 579M1654 621L1607 704M1654 621L1749 657M1685 579L1749 657M1827 637L1871 603M1827 637L1749 657M1827 637L1798 712M1827 637L1867 675M1827 637L1849 738M1871 603L1982 580M1871 603L1867 675M1982 580L2056 572M1982 580L1970 666M1982 580L2018 659M2056 572L2138 605M2056 572L2018 659M2138 605L2213 611M2138 605L2119 695M2213 611L2303 620M2213 611L2178 715M2303 620L2347 622M2303 620L2310 645M2347 622L2310 645M2347 622L2394 650M2347 622L2407 652M2465 630L2529 614M2465 630L2562 647M2465 630L2394 650M2465 630L2407 652M-95 630L2 647M2529 614L2562 647M2529 614L2555 703M-31 614L2 647M2 647L-5 703M2562 647L2555 703M110 656L164 680M110 656L98 726M164 680L98 726M287 714L373 643M287 714L242 784M287 714L331 760M373 643L418 669M418 669L438 769M537 654L569 649M569 649L663 685M663 685L770 712M663 685L657 791M770 712L866 683M770 712L780 747M770 712L831 721M770 712L775 813M866 683L913 663M866 683L974 687M866 683L831 721M913 663L974 687M913 663L831 721M974 687L1024 786M1090 704L1167 698M1090 704L1119 754M1090 704L1139 805M1167 698L1119 754M1167 698L1191 783M1167 698L1237 721M1264 709L1289 649M1264 709L1237 721M1264 709L1325 789M1289 649L1366 651M1289 649L1237 721M1366 651L1459 701M1459 701L1522 707M1459 701L1439 759M1459 701L1502 769M1522 707L1607 704M1522 707L1439 759M1522 707L1502 769M1522 707L1575 789M1607 704L1649 788M1749 657L1798 712M1798 712L1867 675M1798 712L1747 778M1798 712L1849 738M1867 675L1970 666M1867 675L1849 738M1970 666L2018 659M1970 666L1959 733M1970 666L2005 726M2018 659L1959 733M2018 659L2005 726M2119 695L2178 715M2119 695L2146 773M2178 715L2146 773M2178 715L2197 796M2178 715L2262 767M2310 645L2394 650M2310 645L2407 652M2310 645L2364 727M2394 650L2407 652M2394 650L2364 727M2407 652L2364 727M2555 703L2658 726M2555 703L2481 764M-5 703L98 726M42 800L98 726M42 800L57 866M42 800L122 833M42 800L-28 869M42 800L44 888M2602 800L2532 869M98 726L169 791M169 791L242 784M169 791L122 833M242 784L331 760M242 784L300 854M331 760L300 854M331 760L393 835M331 760L423 832M438 769L537 775M438 769L393 835M438 769L423 832M438 769L515 803M537 775L593 778M537 775L515 803M537 775L584 820M593 778L657 791M593 778L515 803M593 778L584 820M593 778L645 861M657 791L584 820M657 791L645 861M657 791L673 897M780 747L831 721M780 747L895 787M780 747L775 813M831 721L895 787M895 787L839 847M895 787L880 849M1024 786L1026 841M1024 786L1097 869M1119 754L1191 783M1119 754L1139 805M1119 754L1206 803M1191 783L1237 721M1191 783L1139 805M1191 783L1206 803M1237 721L1206 803M1325 789L1316 825M1325 789L1282 883M1439 759L1502 769M1439 759L1440 833M1502 769L1575 789M1502 769L1546 802M1575 789L1649 788M1575 789L1546 802M1575 789L1622 831M1649 788L1747 778M1649 788L1622 831M1747 778L1773 799M1747 778L1720 871M1747 778L1778 842M1773 799L1849 738M1773 799L1720 871M1773 799L1778 842M1773 799L1818 890M1849 738L1928 826M1959 733L2005 726M1959 733L1928 826M2146 773L2197 796M2146 773L2076 822M2146 773L2103 835M2197 796L2262 767M2197 796L2161 873M2262 767L2364 727M2262 767L2282 856M2262 767L2327 833M2364 727L2441 751M2441 751L2481 764M2441 751L2426 840M2481 764L2426 840M2481 764L2532 869M57 866L122 833M57 866L-28 869M57 866L44 888M57 866L-40 899M2617 866L2532 869M2617 866L2520 899M122 833L145 904M235 879L300 854M235 879L209 910M235 879L256 920M235 879L229 979M300 854L256 920M300 854L331 904M393 835L423 832M393 835L331 904M423 832L515 803M423 832L476 924M515 803L584 820M584 820L645 861M645 861L634 925M645 861L673 897M775 813L839 847M775 813L880 849M775 813L761 904M839 847L880 849M839 847L761 904M839 847L842 941M880 849L842 941M880 849L934 918M1026 841L1097 869M1026 841L1078 901M1097 869L1139 805M1097 869L1078 901M1139 805L1206 803M1206 803L1195 899M1316 825L1282 883M1440 833L1482 880M1440 833L1515 884M1482 880L1515 884M1546 802L1622 831M1546 802L1515 884M1546 802L1582 892M1622 831L1582 892M1720 871L1778 842M1720 871L1692 920M1720 871L1700 961M1778 842L1890 847M1778 842L1818 890M1890 847L1928 826M1890 847L1818 890M1890 847L1907 893M1890 847L1956 930M1928 826L1907 893M1928 826L1956 930M2076 822L2103 835M2076 822L2071 907M2076 822L2127 889M2103 835L2161 873M2103 835L2071 907M2103 835L2127 889M2161 873L2071 907M2161 873L2127 889M2161 873L2224 908M2282 856L2327 833M2282 856L2224 908M2282 856L2269 927M2327 833L2426 840M2426 840L2520 899M2532 869L2604 888M2532 869L2520 899M-28 869L44 888M44 888L-40 899M44 888L106 976M2604 888L2520 899M145 904L209 910M145 904L106 976M209 910L256 920M209 910L229 979M209 910L291 961M256 920L229 979M256 920L291 961M331 904L291 961M331 904L357 966M476 924L550 933M476 924L435 1000M476 924L523 988M550 933L634 925M550 933L523 988M550 933L607 1012M634 925L673 897M634 925L607 1012M634 925L664 1024M673 897L761 904M761 904L842 941M842 941L934 918M842 941L864 1022M934 918L1009 959M1009 959L960 1016M1009 959L969 1013M1009 959L1082 998M1009 959L986 1049M1078 901L1124 980M1195 899L1244 927M1195 899L1282 883M1195 899L1243 982M1244 927L1282 883M1244 927L1243 982M1244 927L1329 979M1282 883L1243 982M1377 956L1329 979M1377 956L1417 1017M1515 884L1582 892M1515 884L1591 974M1582 892L1650 948M1582 892L1591 974M1650 948L1692 920M1650 948L1591 974M1650 948L1637 1007M1650 948L1700 961M1692 920L1700 961M1692 920L1785 966M1818 890L1907 893M1818 890L1785 966M1907 893L1956 930M1907 893L1911 990M1956 930L1911 990M1956 930L1947 1022M2071 907L2127 889M2224 908L2269 927M2224 908L2258 964M2269 927L2337 954M2269 927L2258 964M2269 927L2336 972M2337 954L2336 972M2337 954L2431 978M2337 954L2368 1047M2471 952L2520 899M2471 952L2431 978M2471 952L2548 1025M6 1028L106 976M6 1028L-12 1025M6 1028L72 1068M6 1028L107 1055M6 1028L-5 1087M2566 1028L2548 1025M2566 1028L2555 1087M106 976L72 1068M106 976L107 1055M229 979L291 961M229 979L245 1061M291 961L357 966M357 966L435 1000M357 966L449 1047M435 1000L523 988M435 1000L449 1047M523 988L607 1012M523 988L449 1047M607 1012L664 1024M607 1012L633 1090M664 1024L721 1034M664 1024L633 1090M664 1024L684 1112M721 1034L684 1112M721 1034L779 1104M721 1034L739 1135M864 1022L960 1016M864 1022L969 1013M864 1022L848 1060M960 1016L969 1013M960 1016L950 1113M960 1016L986 1049M969 1013L986 1049M1082 998L1124 980M1082 998L1088 1077M1082 998L1124 1052M1124 980L1088 1077M1124 980L1124 1052M1124 980L1209 1056M1243 982L1329 979M1243 982L1209 1056M1329 979L1417 1017M1329 979L1331 1082M1417 1017L1331 1082M1417 1017L1420 1062M1417 1017L1497 1064M1519 1029L1591 974M1519 1029L1497 1064M1519 1029L1525 1098M1591 974L1637 1007M1637 1007L1700 961M1637 1007L1624 1075M1637 1007L1692 1084M1700 961L1785 966M1911 990L1947 1022M1911 990L1863 1068M1947 1022L2043 1033M2043 1033L2083 1028M2043 1033L2006 1100M2043 1033L2038 1126M2083 1028L2179 1000M2083 1028L2128 1094M2179 1000L2258 964M2179 1000L2128 1094M2179 1000L2238 1044M2179 1000L2252 1064M2258 964L2336 972M2258 964L2238 1044M2336 972L2431 978M2336 972L2368 1047M2431 978L2368 1047M2431 978L2422 1056M2548 1025L2632 1068M2548 1025L2422 1056M2548 1025L2555 1087M-12 1025L72 1068M72 1068L107 1055M72 1068L-5 1087M2632 1068L2555 1087M107 1055L201 1106M201 1106L245 1061M201 1106L166 1145M201 1106L296 1176M245 1061L321 1095M245 1061L166 1145M321 1095L296 1176M321 1095L376 1135M449 1047L511 1094M511 1094L454 1165M511 1094L536 1141M633 1090L684 1112M633 1090L651 1173M684 1112L651 1173M684 1112L739 1135M779 1104L848 1060M779 1104L739 1135M779 1104L842 1146M779 1104L800 1209M848 1060L842 1146M848 1060L889 1148M950 1113L986 1049M950 1113L889 1148M950 1113L1005 1128M950 1113L930 1209M986 1049L1005 1128M1088 1077L1124 1052M1088 1077L1005 1128M1088 1077L1088 1160M1124 1052L1209 1056M1124 1052L1088 1160M1209 1056L1194 1146M1209 1056L1276 1120M1331 1082L1420 1062M1331 1082L1276 1120M1331 1082L1388 1123M1420 1062L1497 1064M1420 1062L1388 1123M1420 1062L1468 1154M1497 1064L1525 1098M1497 1064L1542 1129M1525 1098L1468 1154M1525 1098L1542 1129M1525 1098L1611 1140M1624 1075L1692 1084M1624 1075L1542 1129M1624 1075L1611 1140M1692 1084L1611 1140M1692 1084L1719 1151M1828 1112L1863 1068M1828 1112L1829 1148M1828 1112L1884 1120M1863 1068L1934 1108M1863 1068L1829 1148M1863 1068L1884 1120M1934 1108L2006 1100M1934 1108L1884 1120M1934 1108L1923 1157M1934 1108L1946 1203M2006 1100L2038 1126M2006 1100L2099 1151M2128 1094L2038 1126M2128 1094L2099 1151M2128 1094L2216 1122M2238 1044L2252 1064M2238 1044L2216 1122M2252 1064L2216 1122M2252 1064L2299 1158M2368 1047L2422 1056M2368 1047L2439 1122M2422 1056L2439 1122M2555 1087L2618 1167M2555 1087L2536 1183M-5 1087L58 1167M58 1167L124 1188M58 1167L-24 1183M58 1167L80 1216M58 1167L126 1223M2618 1167L2536 1183M124 1188L166 1145M124 1188L80 1216M124 1188L126 1223M124 1188L183 1255M166 1145L80 1216M166 1145L126 1223M296 1176L376 1135M296 1176L253 1223M296 1176L338 1258M376 1135L454 1165M454 1165L536 1141M454 1165L463 1242M454 1165L508 1225M536 1141L561 1193M536 1141L585 1221M561 1193L651 1173M561 1193L463 1242M561 1193L508 1225M561 1193L585 1221M651 1173L585 1221M651 1173L655 1269M739 1135L800 1209M842 1146L889 1148M842 1146L800 1209M842 1146L930 1209M889 1148L930 1209M889 1148L962 1236M1005 1128L1088 1160M1005 1128L1049 1201M1088 1160L1194 1146M1088 1160L1049 1201M1194 1146L1276 1120M1194 1146L1285 1199M1194 1146L1269 1222M1276 1120L1285 1199M1276 1120L1269 1222M1285 1199L1269 1222M1285 1199L1321 1272M1388 1123L1468 1154M1388 1123L1456 1207M1468 1154L1542 1129M1468 1154L1456 1207M1542 1129L1611 1140M1611 1140L1719 1151M1719 1151L1829 1148M1719 1151L1710 1216M1719 1151L1763 1255M1829 1148L1884 1120M1884 1120L1923 1157M1923 1157L1898 1248M1923 1157L1946 1203M1923 1157L2006 1208M2038 1126L2099 1151M2038 1126L2006 1208M2099 1151L2006 1208M2216 1122L2299 1158M2299 1158L2337 1158M2299 1158L2297 1250M2299 1158L2347 1216M2337 1158L2439 1122M2337 1158L2297 1250M2337 1158L2347 1216M2439 1122L2536 1183M2536 1183L2503 1259M80 1216L126 1223M80 1216L73 1309M126 1223L183 1255M183 1255L253 1223M183 1255L224 1314M253 1223L338 1258M253 1223L224 1314M338 1258L293 1348M338 1258L381 1317M338 1258L423 1312M463 1242L508 1225M463 1242L423 1312M463 1242L517 1289M508 1225L585 1221M508 1225L517 1289M585 1221L655 1269M655 1269L740 1256M655 1269L624 1306M655 1269L664 1308M740 1256L800 1209M740 1256L664 1308M740 1256L764 1323M740 1256L812 1312M930 1209L962 1236M930 1209L1049 1201M962 1236L1049 1201M962 1236L971 1358M962 1236L969 1363M1049 1201L1127 1291M1196 1259L1269 1222M1196 1259L1127 1291M1196 1259L1252 1355M1196 1259L1233 1371M1269 1222L1321 1272M1321 1272L1386 1246M1321 1272L1335 1322M1321 1272L1348 1369M1386 1246L1456 1207M1386 1246L1335 1322M1386 1246L1436 1338M1386 1246L1471 1323M1554 1278L1622 1277M1554 1278L1471 1323M1554 1278L1571 1296M1554 1278L1544 1369M1622 1277L1571 1296M1622 1277L1654 1312M1622 1277L1697 1291M1622 1277L1645 1373M1710 1216L1763 1255M1710 1216L1697 1291M1763 1255L1697 1291M1763 1255L1799 1320M1898 1248L1946 1203M1898 1248L1976 1309M1946 1203L2006 1208M2006 1208L1976 1309M2116 1266L2223 1276M2116 1266L2074 1348M2116 1266L2138 1333M2116 1266L2166 1319M2223 1276L2297 1250M2223 1276L2138 1333M2223 1276L2166 1319M2223 1276L2276 1305M2297 1250L2347 1216M2297 1250L2276 1305M2347 1216L2392 1299M2431 1266L2503 1259M2431 1266L2392 1299M2431 1266L2478 1300M2431 1266L2500 1314M2431 1266L2408 1373M2503 1259L2478 1300M2503 1259L2500 1314M2503 1259L2538 1362M73 1309L96 1346M73 1309L62 1388M73 1309L168 1366M73 1309L-22 1362M2633 1309L2538 1362M96 1346L62 1388M96 1346L155 1411M96 1346L168 1366M224 1314L293 1348M224 1314L168 1366M224 1314L276 1405M293 1348L381 1317M293 1348L168 1366M293 1348L276 1405M381 1317L423 1312M381 1317L445 1363M423 1312L517 1289M423 1312L445 1363M517 1289L445 1363M517 1289L542 1382M624 1306L664 1308M624 1306L606 1383M664 1308L606 1383M664 1308L693 1397M764 1323L812 1312M764 1323L693 1397M764 1323L763 1404M764 1323L831 1372M812 1312L882 1337M812 1312L763 1404M812 1312L831 1372M882 1337L971 1358M882 1337L831 1372M882 1337L956 1411M882 1337L969 1363M971 1358L956 1411M971 1358L969 1363M1106 1346L1127 1291M1106 1346L1106 1365M1106 1346L1163 1387M1127 1291L1106 1365M1252 1355L1335 1322M1252 1355L1233 1371M1252 1355L1348 1369M1335 1322L1348 1369M1436 1338L1471 1323M1436 1338L1348 1369M1436 1338L1463 1426M1471 1323L1544 1369M1571 1296L1654 1312M1571 1296L1544 1369M1571 1296L1645 1373M1654 1312L1697 1291M1654 1312L1645 1373M1654 1312L1707 1385M1697 1291L1707 1385M1799 1320L1894 1351M1799 1320L1707 1385M1799 1320L1832 1381M1894 1351L1976 1309M1894 1351L1832 1381M1894 1351L1888 1432M1894 1351L1955 1390M1976 1309L1955 1390M1976 1309L2040 1376M2074 1348L2138 1333M2074 1348L2040 1376M2074 1348L2146 1365M2138 1333L2166 1319M2138 1333L2146 1365M2166 1319L2146 1365M2166 1319L2227 1392M2276 1305L2227 1392M2276 1305L2242 1387M2276 1305L2367 1390M2392 1299L2478 1300M2392 1299L2367 1390M2392 1299L2408 1373M2478 1300L2500 1314M2478 1300L2538 1362M2500 1314L2408 1373M2500 1314L2538 1362M62 1388L155 1411M62 1388L-22 1362M2622 1388L2538 1362M155 1411L168 1366M395 1428L445 1363M445 1363L542 1382M542 1382L606 1383M606 1383L693 1397M693 1397L763 1404M763 1404L831 1372M956 1411L969 1363M1106 1365L1163 1387M1163 1387L1233 1371M1348 1369L1404 1434M1404 1434L1463 1426M1544 1369L1645 1373M1645 1373L1707 1385M1832 1381L1888 1432M1888 1432L1955 1390M1955 1390L2040 1376M2146 1365L2227 1392M2146 1365L2242 1387M2227 1392L2242 1387M2242 1387L2367 1390M2367 1390L2408 1373"/></svg>