<svg xmlns="http://www.w3.org/2000/svg" width="2560" height="1440" fill="#fff"><circle cx="6" cy="65" r="4"/><circle cx="91" cy="48" r="4"/><circle cx="223" cy="24" r="5"/><circle cx="276" cy="26" r="5"/><circle cx="330" cy="68" r="5"/><circle cx="448" cy="49" r="4"/><circle cx="505" cy="44" r="4"/><circle cx="631" cy="52" r="6"/><circle cx="697" cy="66" r="5"/><circle cx="729" cy="46" r="5"/><circle cx="853" cy="67" r="5"/><circle cx="925" cy="61" r="4"/><circle cx="1022" cy="67" r="4"/><circle cx="1097" cy="15" r="5"/><circle cx="1199" cy="15" r="6"/><circle cx="1278" cy="29" r="5"/><circle cx="1298" cy="5" r="4"/><circle cx="1363" cy="68" r="6"/><circle cx="1477" cy="5" r="4"/><circle cx="1547" cy="70" r="5"/><circle cx="1640" cy="78" r="6"/><circle cx="1685" cy="53" r="6"/><circle cx="1827" cy="8" r="4"/><circle cx="1847" cy="4" r="4"/><circle cx="1991" cy="60" r="6"/><circle cx="2043" cy="35" r="5"/><circle cx="2089" cy="68" r="5"/><circle cx="2219" cy="72" r="6"/><circle cx="2302" cy="26" r="6"/><circle cx="2361" cy="53" r="5"/><circle cx="2452" cy="61" r="5"/><circle cx="2491" cy="20" r="5"/><circle cx="73" cy="111" r="6"/><circle cx="102" cy="123" r="5"/><circle cx="182" cy="121" r="6"/><circle cx="254" cy="85" r="5"/><circle cx="362" cy="123" r="5"/><circle cx="404" cy="109" r="5"/><circle cx="557" cy="117" r="6"/><circle cx="577" cy="125" r="5"/><circle cx="684" cy="152" r="6"/><circle cx="768" cy="120" r="4"/><circle cx="819" cy="149" r="5"/><circle cx="903" cy="135" r="5"/><circle cx="986" cy="99" r="5"/><circle cx="1080" cy="94" r="5"/><circle cx="1172" cy="117" r="6"/><circle cx="1257" cy="152" r="5"/><circle cx="1337" cy="113" r="5"/><circle cx="1376" cy="109" r="5"/><circle cx="1503" cy="131" r="4"/><circle cx="1557" cy="147" r="5"/><circle cx="1607" cy="118" r="4"/><circle cx="1697" cy="145" r="6"/><circle cx="1779" cy="82" r="6"/><circle cx="1886" cy="129" r="5"/><circle cx="1939" cy="152" r="4"/><circle cx="2012" cy="81" r="5"/><circle cx="2104" cy="135" r="5"/><circle cx="2216" cy="98" r="5"/><circle cx="2248" cy="145" r="5"/><circle cx="2341" cy="124" r="5"/><circle cx="2411" cy="135" r="6"/><circle cx="2507" cy="151" r="5"/><circle cx="33" cy="196" r="4"/><circle cx="103" cy="185" r="6"/><circle cx="185" cy="222" r="5"/><circle cx="302" cy="208" r="5"/><circle cx="362" cy="205" r="5"/><circle cx="478" cy="202" r="5"/><circle cx="547" cy="160" r="6"/><circle cx="574" cy="223" r="5"/><circle cx="706" cy="201" r="5"/><circle cx="764" cy="177" r="5"/><circle cx="829" cy="204" r="5"/><circle cx="937" cy="190" r="5"/><circle cx="1027" cy="167" r="6"/><circle cx="1102" cy="221" r="5"/><circle cx="1143" cy="222" r="5"/><circle cx="1242" cy="235" r="6"/><circle cx="1356" cy="168" r="6"/><circle cx="1379" cy="215" r="4"/><circle cx="1472" cy="177" r="6"/><circle cx="1555" cy="184" r="5"/><circle cx="1665" cy="231" r="4"/><circle cx="1695" cy="203" r="5"/><circle cx="1832" cy="226" r="5"/><circle cx="1860" cy="223" r="4"/><circle cx="1969" cy="164" r="4"/><circle cx="2014" cy="162" r="5"/><circle cx="2136" cy="188" r="5"/><circle cx="2215" cy="235" r="5"/><circle cx="2312" cy="203" r="5"/><circle cx="2338" cy="188" r="4"/><circle cx="2461" cy="190" r="4"/><circle cx="2557" cy="182" r="5"/><circle cx="-3" cy="182" r="5"/><circle cx="80" cy="283" r="6"/><circle cx="114" cy="252" r="5"/><circle cx="177" cy="290" r="4"/><circle cx="285" cy="296" r="4"/><circle cx="381" cy="279" r="5"/><circle cx="474" cy="304" r="5"/><circle cx="487" cy="300" r="5"/><circle cx="604" cy="285" r="4"/><circle cx="651" cy="297" r="5"/><circle cx="724" cy="281" r="4"/><circle cx="831" cy="285" r="5"/><circle cx="939" cy="303" r="4"/><circle cx="992" cy="267" r="4"/><circle cx="1105" cy="275" r="6"/><circle cx="1121" cy="270" r="5"/><circle cx="1206" cy="276" r="5"/><circle cx="1338" cy="244" r="6"/><circle cx="1415" cy="317" r="4"/><circle cx="1513" cy="252" r="6"/><circle cx="1583" cy="274" r="4"/><circle cx="1660" cy="250" r="6"/><circle cx="1744" cy="279" r="5"/><circle cx="1811" cy="250" r="5"/><circle cx="1866" cy="287" r="5"/><circle cx="1990" cy="269" r="5"/><circle cx="2052" cy="243" r="5"/><circle cx="2128" cy="258" r="4"/><circle cx="2198" cy="259" r="5"/><circle cx="2290" cy="309" r="6"/><circle cx="2336" cy="289" r="5"/><circle cx="2461" cy="247" r="5"/><circle cx="2545" cy="246" r="4"/><circle cx="10" cy="321" r="5"/><circle cx="143" cy="367" r="4"/><circle cx="166" cy="361" r="5"/><circle cx="269" cy="375" r="5"/><circle cx="358" cy="370" r="4"/><circle cx="446" cy="370" r="4"/><circle cx="532" cy="332" r="6"/><circle cx="569" cy="361" r="5"/><circle cx="688" cy="324" r="5"/><circle cx="752" cy="336" r="5"/><circle cx="870" cy="343" r="5"/><circle cx="892" cy="371" r="5"/><circle cx="1027" cy="353" r="4"/><circle cx="1060" cy="379" r="5"/><circle cx="1146" cy="391" r="5"/><circle cx="1280" cy="353" r="5"/><circle cx="1357" cy="373" r="5"/><circle cx="1417" cy="341" r="4"/><circle cx="1496" cy="352" r="5"/><circle cx="1592" cy="354" r="4"/><circle cx="1646" cy="371" r="6"/><circle cx="1748" cy="346" r="6"/><circle cx="1799" cy="360" r="5"/><circle cx="1896" cy="366" r="5"/><circle cx="1950" cy="361" r="5"/><circle cx="2073" cy="400" r="5"/><circle cx="2123" cy="327" r="5"/><circle cx="2177" cy="342" r="6"/><circle cx="2294" cy="346" r="4"/><circle cx="2378" cy="357" r="4"/><circle cx="2473" cy="334" r="5"/><circle cx="2547" cy="332" r="5"/><circle cx="31" cy="402" r="5"/><circle cx="151" cy="429" r="5"/><circle cx="213" cy="407" r="5"/><circle cx="262" cy="443" r="5"/><circle cx="399" cy="404" r="5"/><circle cx="463" cy="423" r="4"/><circle cx="498" cy="424" r="5"/><circle cx="622" cy="462" r="6"/><circle cx="697" cy="479" r="4"/><circle cx="757" cy="465" r="5"/><circle cx="801" cy="440" r="4"/><circle cx="914" cy="431" r="5"/><circle cx="973" cy="430" r="5"/><circle cx="1094" cy="419" r="5"/><circle cx="1139" cy="476" r="5"/><circle cx="1225" cy="421" r="5"/><circle cx="1328" cy="455" r="6"/><circle cx="1390" cy="476" r="5"/><circle cx="1495" cy="420" r="4"/><circle cx="1557" cy="455" r="6"/><circle cx="1678" cy="461" r="6"/><circle cx="1685" cy="457" r="5"/><circle cx="1838" cy="406" r="5"/><circle cx="1854" cy="406" r="5"/><circle cx="1985" cy="407" r="5"/><circle cx="2055" cy="419" r="4"/><circle cx="2132" cy="402" r="4"/><circle cx="2163" cy="419" r="5"/><circle cx="2264" cy="426" r="6"/><circle cx="2374" cy="401" r="6"/><circle cx="2475" cy="454" r="6"/><circle cx="2538" cy="403" r="5"/><circle cx="65" cy="509" r="5"/><circle cx="109" cy="548" r="4"/><circle cx="163" cy="496" r="5"/><circle cx="279" cy="522" r="6"/><circle cx="365" cy="520" r="5"/><circle cx="441" cy="548" r="4"/><circle cx="492" cy="528" r="5"/><circle cx="562" cy="514" r="5"/><circle cx="689" cy="556" r="5"/><circle cx="760" cy="527" r="4"/><circle cx="801" cy="558" r="5"/><circle cx="952" cy="523" r="6"/><circle cx="1015" cy="553" r="5"/><circle cx="1108" cy="495" r="5"/><circle cx="1195" cy="508" r="6"/><circle cx="1210" cy="508" r="4"/><circle cx="1327" cy="502" r="5"/><circle cx="1394" cy="525" r="5"/><circle cx="1477" cy="517" r="6"/><circle cx="1572" cy="546" r="6"/><circle cx="1642" cy="515" r="6"/><circle cx="1687" cy="516" r="5"/><circle cx="1780" cy="532" r="5"/><circle cx="1861" cy="490" r="5"/><circle cx="1952" cy="513" r="5"/><circle cx="2052" cy="528" r="5"/><circle cx="2082" cy="520" r="5"/><circle cx="2188" cy="487" r="4"/><circle cx="2295" cy="524" r="5"/><circle cx="2372" cy="493" r="6"/><circle cx="2478" cy="555" r="5"/><circle cx="2504" cy="553" r="4"/><circle cx="53" cy="637" r="4"/><circle cx="140" cy="587" r="5"/><circle cx="194" cy="639" r="4"/><circle cx="320" cy="572" r="6"/><circle cx="381" cy="602" r="6"/><circle cx="420" cy="628" r="5"/><circle cx="504" cy="560" r="5"/><circle cx="589" cy="631" r="4"/><circle cx="672" cy="612" r="5"/><circle cx="795" cy="624" r="5"/><circle cx="879" cy="600" r="4"/><circle cx="916" cy="560" r="5"/><circle cx="962" cy="567" r="4"/><circle cx="1076" cy="560" r="5"/><circle cx="1199" cy="598" r="5"/><circle cx="1246" cy="635" r="6"/><circle cx="1291" cy="587" r="4"/><circle cx="1368" cy="607" r="5"/><circle cx="1473" cy="631" r="5"/><circle cx="1598" cy="629" r="5"/><circle cx="1638" cy="604" r="5"/><circle cx="1702" cy="600" r="4"/><circle cx="1786" cy="621" r="4"/><circle cx="1901" cy="596" r="5"/><circle cx="1930" cy="610" r="4"/><circle cx="2013" cy="627" r="6"/><circle cx="2119" cy="581" r="5"/><circle cx="2215" cy="601" r="6"/><circle cx="2268" cy="611" r="5"/><circle cx="2327" cy="624" r="5"/><circle cx="2419" cy="631" r="6"/><circle cx="2482" cy="565" r="5"/><circle cx="55" cy="684" r="6"/><circle cx="96" cy="696" r="6"/><circle cx="217" cy="673" r="5"/><circle cx="291" cy="655" r="5"/><circle cx="366" cy="658" r="5"/><circle cx="441" cy="657" r="5"/><circle cx="537" cy="645" r="4"/><circle cx="617" cy="656" r="6"/><circle cx="650" cy="670" r="6"/><circle cx="735" cy="699" r="4"/><circle cx="805" cy="681" r="4"/><circle cx="917" cy="677" r="6"/><circle cx="989" cy="652" r="5"/><circle cx="1117" cy="676" r="4"/><circle cx="1171" cy="698" r="4"/><circle cx="1273" cy="642" r="6"/><circle cx="1357" cy="664" r="5"/><circle cx="1415" cy="679" r="5"/><circle cx="1471" cy="707" r="5"/><circle cx="1529" cy="660" r="5"/><circle cx="1667" cy="683" r="4"/><circle cx="1704" cy="686" r="5"/><circle cx="1769" cy="641" r="5"/><circle cx="1849" cy="714" r="4"/><circle cx="1962" cy="648" r="6"/><circle cx="2023" cy="652" r="4"/><circle cx="2107" cy="659" r="4"/><circle cx="2200" cy="692" r="4"/><circle cx="2279" cy="673" r="6"/><circle cx="2372" cy="718" r="4"/><circle cx="2471" cy="694" r="6"/><circle cx="2536" cy="692" r="5"/><circle cx="13" cy="794" r="5"/><circle cx="158" cy="765" r="6"/><circle cx="234" cy="775" r="4"/><circle cx="319" cy="722" r="5"/><circle cx="371" cy="772" r="4"/><circle cx="459" cy="784" r="5"/><circle cx="500" cy="762" r="4"/><circle cx="639" cy="745" r="5"/><circle cx="698" cy="797" r="4"/><circle cx="723" cy="753" r="5"/><circle cx="873" cy="779" r="5"/><circle cx="951" cy="747" r="4"/><circle cx="989" cy="787" r="5"/><circle cx="1118" cy="742" r="5"/><circle cx="1182" cy="754" r="4"/><circle cx="1236" cy="798" r="6"/><circle cx="1326" cy="775" r="4"/><circle cx="1365" cy="770" r="5"/><circle cx="1490" cy="733" r="5"/><circle cx="1595" cy="768" r="4"/><circle cx="1677" cy="747" r="6"/><circle cx="1699" cy="724" r="5"/><circle cx="1813" cy="768" r="5"/><circle cx="1867" cy="773" r="5"/><circle cx="1928" cy="755" r="5"/><circle cx="2014" cy="729" r="6"/><circle cx="2125" cy="730" r="6"/><circle cx="2222" cy="773" r="4"/><circle cx="2289" cy="771" r="5"/><circle cx="2332" cy="793" r="6"/><circle cx="2462" cy="728" r="6"/><circle cx="2484" cy="740" r="4"/><circle cx="11" cy="819" r="6"/><circle cx="150" cy="818" r="5"/><circle cx="202" cy="859" r="6"/><circle cx="298" cy="815" r="6"/><circle cx="375" cy="811" r="5"/><circle cx="401" cy="833" r="5"/><circle cx="550" cy="870" r="5"/><circle cx="578" cy="840" r="5"/><circle cx="702" cy="853" r="6"/><circle cx="781" cy="834" r="5"/><circle cx="834" cy="800" r="5"/><circle cx="955" cy="824" r="4"/><circle cx="976" cy="803" r="5"/><circle cx="1095" cy="871" r="6"/><circle cx="1140" cy="835" r="5"/><circle cx="1256" cy="808" r="4"/><circle cx="1299" cy="869" r="6"/><circle cx="1378" cy="834" r="6"/><circle cx="1477" cy="846" r="5"/><circle cx="1534" cy="813" r="4"/><circle cx="1665" cy="858" r="6"/><circle cx="1714" cy="878" r="5"/><circle cx="1832" cy="859" r="5"/><circle cx="1883" cy="879" r="4"/><circle cx="1991" cy="862" r="5"/><circle cx="2048" cy="874" r="6"/><circle cx="2104" cy="828" r="6"/><circle cx="2188" cy="833" r="4"/><circle cx="2291" cy="823" r="5"/><circle cx="2346" cy="868" r="6"/><circle cx="2412" cy="829" r="5"/><circle cx="2548" cy="855" r="6"/><circle cx="52" cy="950" r="5"/><circle cx="149" cy="929" r="5"/><circle cx="182" cy="914" r="6"/><circle cx="250" cy="932" r="6"/><circle cx="325" cy="886" r="5"/><circle cx="419" cy="895" r="4"/><circle cx="487" cy="915" r="5"/><circle cx="622" cy="957" r="5"/><circle cx="688" cy="934" r="4"/><circle cx="779" cy="904" r="5"/><circle cx="837" cy="891" r="5"/><circle cx="952" cy="934" r="4"/><circle cx="967" cy="894" r="5"/><circle cx="1042" cy="920" r="5"/><circle cx="1152" cy="911" r="4"/><circle cx="1275" cy="949" r="5"/><circle cx="1287" cy="896" r="5"/><circle cx="1408" cy="915" r="5"/><circle cx="1445" cy="949" r="5"/><circle cx="1553" cy="883" r="5"/><circle cx="1602" cy="914" r="6"/><circle cx="1701" cy="930" r="4"/><circle cx="1791" cy="883" r="4"/><circle cx="1879" cy="949" r="4"/><circle cx="1993" cy="896" r="4"/><circle cx="2080" cy="927" r="5"/><circle cx="2096" cy="912" r="4"/><circle cx="2204" cy="930" r="5"/><circle cx="2252" cy="934" r="5"/><circle cx="2394" cy="893" r="4"/><circle cx="2468" cy="889" r="5"/><circle cx="2554" cy="944" r="5"/><circle cx="50" cy="1016" r="5"/><circle cx="145" cy="972" r="5"/><circle cx="171" cy="1029" r="5"/><circle cx="297" cy="1015" r="5"/><circle cx="331" cy="1035" r="5"/><circle cx="440" cy="1035" r="5"/><circle cx="493" cy="963" r="4"/><circle cx="569" cy="1035" r="5"/><circle cx="674" cy="992" r="6"/><circle cx="761" cy="1026" r="5"/><circle cx="814" cy="966" r="5"/><circle cx="902" cy="1020" r="5"/><circle cx="979" cy="1017" r="4"/><circle cx="1116" cy="1037" r="6"/><circle cx="1159" cy="1033" r="4"/><circle cx="1234" cy="1026" r="5"/><circle cx="1347" cy="988" r="4"/><circle cx="1399" cy="1018" r="5"/><circle cx="1474" cy="965" r="6"/><circle cx="1585" cy="984" r="5"/><circle cx="1680" cy="1009" r="6"/><circle cx="1691" cy="967" r="5"/><circle cx="1771" cy="990" r="4"/><circle cx="1902" cy="971" r="5"/><circle cx="1993" cy="989" r="4"/><circle cx="2009" cy="1006" r="5"/><circle cx="2152" cy="1004" r="5"/><circle cx="2210" cy="995" r="5"/><circle cx="2266" cy="978" r="5"/><circle cx="2325" cy="980" r="6"/><circle cx="2476" cy="1000" r="4"/><circle cx="2550" cy="1018" r="5"/><circle cx="55" cy="1064" r="5"/><circle cx="142" cy="1068" r="6"/><circle cx="203" cy="1083" r="4"/><circle cx="260" cy="1064" r="5"/><circle cx="327" cy="1110" r="5"/><circle cx="445" cy="1057" r="5"/><circle cx="498" cy="1093" r="6"/><circle cx="571" cy="1077" r="5"/><circle cx="663" cy="1089" r="5"/><circle cx="728" cy="1102" r="6"/><circle cx="812" cy="1060" r="4"/><circle cx="907" cy="1067" r="5"/><circle cx="1029" cy="1082" r="5"/><circle cx="1073" cy="1097" r="5"/><circle cx="1137" cy="1109" r="5"/><circle cx="1221" cy="1046" r="4"/><circle cx="1290" cy="1081" r="4"/><circle cx="1388" cy="1100" r="6"/><circle cx="1486" cy="1115" r="6"/><circle cx="1523" cy="1095" r="6"/><circle cx="1671" cy="1116" r="5"/><circle cx="1709" cy="1046" r="5"/><circle cx="1808" cy="1119" r="5"/><circle cx="1885" cy="1099" r="5"/><circle cx="1980" cy="1093" r="5"/><circle cx="2000" cy="1091" r="5"/><circle cx="2130" cy="1050" r="6"/><circle cx="2181" cy="1116" r="6"/><circle cx="2293" cy="1101" r="5"/><circle cx="2352" cy="1042" r="4"/><circle cx="2425" cy="1072" r="6"/><circle cx="2507" cy="1056" r="4"/><circle cx="28" cy="1139" r="6"/><circle cx="153" cy="1139" r="6"/><circle cx="224" cy="1198" r="5"/><circle cx="276" cy="1178" r="5"/><circle cx="385" cy="1136" r="6"/><circle cx="476" cy="1127" r="6"/><circle cx="547" cy="1149" r="6"/><circle cx="598" cy="1139" r="4"/><circle cx="686" cy="1159" r="6"/><circle cx="796" cy="1185" r="5"/><circle cx="834" cy="1188" r="4"/><circle cx="951" cy="1160" r="5"/><circle cx="1029" cy="1141" r="6"/><circle cx="1110" cy="1198" r="5"/><circle cx="1162" cy="1195" r="4"/><circle cx="1275" cy="1173" r="4"/><circle cx="1334" cy="1142" r="6"/><circle cx="1382" cy="1188" r="5"/><circle cx="1457" cy="1147" r="5"/><circle cx="1554" cy="1141" r="5"/><circle cx="1674" cy="1167" r="4"/><circle cx="1681" cy="1148" r="5"/><circle cx="1781" cy="1149" r="4"/><circle cx="1850" cy="1127" r="4"/><circle cx="1944" cy="1198" r="4"/><circle cx="2039" cy="1151" r="6"/><circle cx="2101" cy="1166" r="4"/><circle cx="2227" cy="1185" r="5"/><circle cx="2254" cy="1164" r="5"/><circle cx="2392" cy="1166" r="5"/><circle cx="2469" cy="1184" r="6"/><circle cx="2531" cy="1149" r="5"/><circle cx="62" cy="1234" r="6"/><circle cx="119" cy="1243" r="6"/><circle cx="211" cy="1273" r="5"/><circle cx="279" cy="1272" r="5"/><circle cx="375" cy="1237" r="4"/><circle cx="445" cy="1276" r="4"/><circle cx="531" cy="1237" r="6"/><circle cx="638" cy="1231" r="6"/><circle cx="704" cy="1225" r="5"/><circle cx="755" cy="1222" r="4"/><circle cx="880" cy="1233" r="6"/><circle cx="948" cy="1216" r="4"/><circle cx="1029" cy="1213" r="5"/><circle cx="1069" cy="1258" r="4"/><circle cx="1173" cy="1234" r="5"/><circle cx="1261" cy="1211" r="5"/><circle cx="1350" cy="1237" r="6"/><circle cx="1404" cy="1250" r="5"/><circle cx="1447" cy="1205" r="5"/><circle cx="1579" cy="1264" r="6"/><circle cx="1653" cy="1237" r="5"/><circle cx="1716" cy="1234" r="5"/><circle cx="1838" cy="1269" r="4"/><circle cx="1910" cy="1224" r="4"/><circle cx="1998" cy="1216" r="4"/><circle cx="2063" cy="1237" r="5"/><circle cx="2102" cy="1210" r="5"/><circle cx="2210" cy="1277" r="4"/><circle cx="2261" cy="1277" r="6"/><circle cx="2384" cy="1261" r="6"/><circle cx="2438" cy="1256" r="5"/><circle cx="2512" cy="1252" r="5"/><circle cx="37" cy="1287" r="6"/><circle cx="153" cy="1317" r="4"/><circle cx="215" cy="1301" r="6"/><circle cx="254" cy="1325" r="5"/><circle cx="339" cy="1295" r="4"/><circle cx="403" cy="1283" r="5"/><circle cx="519" cy="1285" r="4"/><circle cx="590" cy="1336" r="5"/><circle cx="687" cy="1322" r="6"/><circle cx="778" cy="1337" r="6"/><circle cx="855" cy="1304" r="5"/><circle cx="955" cy="1340" r="6"/><circle cx="999" cy="1329" r="5"/><circle cx="1055" cy="1327" r="6"/><circle cx="1180" cy="1308" r="6"/><circle cx="1217" cy="1353" r="4"/><circle cx="1292" cy="1345" r="5"/><circle cx="1430" cy="1286" r="5"/><circle cx="1518" cy="1285" r="4"/><circle cx="1599" cy="1299" r="6"/><circle cx="1666" cy="1297" r="6"/><circle cx="1736" cy="1341" r="6"/><circle cx="1826" cy="1306" r="4"/><circle cx="1841" cy="1299" r="4"/><circle cx="1958" cy="1306" r="5"/><circle cx="2077" cy="1332" r="6"/><circle cx="2088" cy="1348" r="6"/><circle cx="2179" cy="1303" r="6"/><circle cx="2242" cy="1295" r="4"/><circle cx="2364" cy="1319" r="6"/><circle cx="2417" cy="1316" r="5"/><circle cx="2555" cy="1341" r="4"/><circle cx="39" cy="1396" r="4"/><circle cx="113" cy="1387" r="5"/><circle cx="223" cy="1436" r="6"/><circle cx="223" cy="-4" r="6"/><circle cx="273" cy="1370" r="5"/><circle cx="364" cy="1404" r="5"/><circle cx="413" cy="1392" r="6"/><circle cx="548" cy="1379" r="6"/><circle cx="636" cy="1403" r="5"/><circle cx="673" cy="1395" r="5"/><circle cx="755" cy="1399" r="4"/><circle cx="832" cy="1411" r="5"/><circle cx="925" cy="1439" r="5"/><circle cx="925" cy="-1" r="5"/><circle cx="1030" cy="1415" r="6"/><circle cx="1062" cy="1360" r="6"/><circle cx="1185" cy="1410" r="5"/><circle cx="1279" cy="1437" r="5"/><circle cx="1279" cy="-3" r="5"/><circle cx="1287" cy="1427" r="5"/><circle cx="1373" cy="1407" r="6"/><circle cx="1518" cy="1381" r="4"/><circle cx="1588" cy="1402" r="6"/><circle cx="1665" cy="1419" r="5"/><circle cx="1756" cy="1372" r="5"/><circle cx="1789" cy="1396" r="5"/><circle cx="1870" cy="1366" r="5"/><circle cx="1986" cy="1400" r="6"/><circle cx="2048" cy="1391" r="5"/><circle cx="2110" cy="1420" r="4"/><circle cx="2164" cy="1404" r="5"/><circle cx="2295" cy="1389" r="6"/><circle cx="2349" cy="1425" r="5"/><circle cx="2468" cy="1374" r="5"/><circle cx="2531" cy="1363" r="5"/><path stroke="#fff" d="M6 65L91 48M6 65L-69 20M6 65L73 111M2566 65L2491 20M91 48L73 111M91 48L102 123M91 48L113 -53M91 1488L113 1387M223 24L276 26M223 24L182 121M223 24L254 85M223 24L223 -4M223 1464L223 1436M276 26L330 68M276 26L254 85M276 26L223 -4M276 26L273 -70M276 1466L223 1436M276 1466L273 1370M330 68L254 85M330 68L362 123M330 68L404 109M330 68L364 -36M330 1508L364 1404M448 49L505 44M448 49L362 123M448 49L404 109M448 49L364 -36M448 49L413 -48M448 1489L364 1404M448 1489L413 1392M505 44L557 117M505 44L547 160M505 44L548 -61M505 1484L548 1379M631 52L697 66M631 52L729 46M631 52L557 117M631 52L577 125M631 52L636 -37M631 1492L636 1403M697 66L729 46M697 66L684 152M697 66L768 120M729 46L768 120M729 46L755 -41M729 1486L755 1399M853 67L925 61M853 67L819 149M853 67L903 135M853 67L832 -29M853 67L925 -1M853 1507L832 1411M853 1507L925 1439M925 61L903 135M925 61L986 99M925 61L925 -1M925 1501L925 1439M1022 67L986 99M1022 67L1080 94M1022 67L1027 167M1022 67L1030 -25M1022 1507L1030 1415M1097 15L1080 94M1097 15L1030 -25M1097 15L1062 -80M1097 15L1185 -30M1097 1455L1030 1415M1097 1455L1062 1360M1097 1455L1185 1410M1199 15L1278 29M1199 15L1172 117M1199 15L1185 -30M1199 15L1279 -3M1199 1455L1185 1410M1199 1455L1279 1437M1278 29L1298 5M1278 29L1363 68M1278 29L1279 -3M1278 29L1287 -13M1278 1469L1279 1437M1278 1469L1287 1427M1298 5L1279 -3M1298 5L1287 -13M1298 5L1373 -33M1298 1445L1279 1437M1298 1445L1287 1427M1298 1445L1373 1407M1363 68L1337 113M1363 68L1376 109M1363 68L1356 168M1363 68L1373 -33M1363 1508L1373 1407M1477 5L1547 70M1477 5L1518 -59M1477 5L1588 -38M1477 1445L1518 1381M1477 1445L1588 1402M1547 70L1640 78M1547 70L1503 131M1547 70L1557 147M1547 70L1607 118M1640 78L1685 53M1640 78L1607 118M1640 78L1697 145M1640 78L1665 -21M1640 1518L1665 1419M1685 53L1697 145M1685 53L1779 82M1685 53L1665 -21M1685 1493L1665 1419M1827 8L1847 4M1827 8L1779 82M1827 8L1756 -68M1827 8L1789 -44M1827 8L1870 -74M1827 1448L1756 1372M1827 1448L1789 1396M1827 1448L1870 1366M1847 4L1779 82M1847 4L1789 -44M1847 4L1870 -74M1847 1444L1789 1396M1847 1444L1870 1366M1991 60L2043 35M1991 60L2089 68M1991 60L2012 81M1991 60L1986 -40M1991 1500L1986 1400M2043 35L2089 68M2043 35L2012 81M2043 35L1986 -40M2043 35L2048 -49M2043 1475L1986 1400M2043 1475L2048 1391M2089 68L2012 81M2089 68L2104 135M2089 68L2110 -20M2089 1508L2110 1420M2219 72L2302 26M2219 72L2216 98M2219 72L2248 145M2219 72L2164 -36M2219 1512L2164 1404M2302 26L2361 53M2302 26L2295 -51M2302 26L2349 -15M2302 1466L2295 1389M2302 1466L2349 1425M2361 53L2452 61M2361 53L2341 124M2361 53L2349 -15M2361 1493L2349 1425M2452 61L2491 20M2452 61L2411 135M2491 20L2468 -66M2491 20L2531 -77M2491 1460L2468 1374M2491 1460L2531 1363M73 111L102 123M73 111L33 196M73 111L103 185M102 123L182 121M102 123L103 185M182 121L254 85M182 121L185 222M254 85L223 -4M254 1525L223 1436M362 123L404 109M362 123L302 208M362 123L362 205M404 109L362 205M557 117L577 125M557 117L547 160M557 117L574 223M577 125L684 152M577 125L547 160M577 125L574 223M684 152L768 120M684 152L706 201M684 152L764 177M768 120L819 149M768 120L764 177M819 149L903 135M819 149L764 177M819 149L829 204M903 135L986 99M903 135L937 190M986 99L1080 94M986 99L1027 167M1080 94L1172 117M1080 94L1027 167M1172 117L1257 152M1257 152L1337 113M1257 152L1242 235M1257 152L1338 244M1337 113L1376 109M1337 113L1356 168M1376 109L1356 168M1376 109L1379 215M1503 131L1557 147M1503 131L1472 177M1503 131L1555 184M1557 147L1607 118M1557 147L1472 177M1557 147L1555 184M1607 118L1555 184M1697 145L1779 82M1697 145L1665 231M1697 145L1695 203M1779 82L1886 129M1886 129L1939 152M1886 129L1832 226M1886 129L1860 223M1886 129L1969 164M1939 152L1860 223M1939 152L1969 164M1939 152L2014 162M2012 81L1969 164M2012 81L2014 162M2104 135L2216 98M2104 135L2014 162M2104 135L2136 188M2216 98L2248 145M2248 145L2341 124M2248 145L2215 235M2248 145L2312 203M2341 124L2411 135M2341 124L2312 203M2341 124L2338 188M2411 135L2507 151M2411 135L2338 188M2411 135L2461 190M2507 151L2461 190M2507 151L2557 182M33 196L103 185M33 196L-3 182M33 196L80 283M33 196L-15 246M2593 196L2557 182M2593 196L2545 246M103 185L185 222M103 185L114 252M185 222L114 252M185 222L177 290M302 208L362 205M302 208L285 296M302 208L381 279M362 205L478 202M362 205L381 279M478 202L547 160M478 202L574 223M478 202L474 304M478 202L487 300M547 160L574 223M574 223L604 285M706 201L764 177M706 201L829 204M706 201L724 281M764 177L829 204M829 204L937 190M829 204L831 285M937 190L1027 167M937 190L939 303M937 190L992 267M1027 167L1102 221M1102 221L1143 222M1102 221L1105 275M1102 221L1121 270M1143 222L1242 235M1143 222L1105 275M1143 222L1121 270M1143 222L1206 276M1242 235L1121 270M1242 235L1206 276M1242 235L1338 244M1356 168L1379 215M1356 168L1338 244M1379 215L1472 177M1379 215L1338 244M1472 177L1555 184M1472 177L1513 252M1555 184L1513 252M1665 231L1695 203M1665 231L1583 274M1665 231L1660 250M1695 203L1660 250M1695 203L1744 279M1832 226L1860 223M1832 226L1811 250M1832 226L1866 287M1860 223L1811 250M1860 223L1866 287M1969 164L2014 162M2014 162L2052 243M2136 188L2215 235M2136 188L2052 243M2136 188L2128 258M2136 188L2198 259M2215 235L2198 259M2215 235L2290 309M2312 203L2338 188M2312 203L2336 289M2338 188L2336 289M2461 190L2557 182M2461 190L2461 247M2557 182L2461 247M2557 182L2545 246M80 283L114 252M80 283L10 321M114 252L177 290M177 290L143 367M177 290L166 361M285 296L381 279M285 296L269 375M285 296L358 370M381 279L474 304M381 279L358 370M474 304L487 300M474 304L446 370M474 304L532 332M487 300L446 370M487 300L532 332M487 300L569 361M604 285L651 297M604 285L532 332M604 285L569 361M604 285L688 324M651 297L724 281M651 297L569 361M651 297L688 324M651 297L752 336M724 281L831 285M724 281L688 324M724 281L752 336M831 285L752 336M831 285L870 343M831 285L892 371M939 303L992 267M939 303L870 343M939 303L892 371M992 267L1027 353M1105 275L1121 270M1105 275L1206 276M1105 275L1027 353M1121 270L1206 276M1206 276L1280 353M1338 244L1415 317M1415 317L1513 252M1415 317L1357 373M1415 317L1417 341M1415 317L1496 352M1513 252L1583 274M1513 252L1496 352M1583 274L1660 250M1583 274L1592 354M1660 250L1744 279M1660 250L1646 371M1744 279L1811 250M1744 279L1748 346M1811 250L1866 287M1811 250L1748 346M1866 287L1799 360M1866 287L1896 366M1990 269L2052 243M1990 269L1950 361M2052 243L2128 258M2128 258L2198 259M2128 258L2123 327M2128 258L2177 342M2198 259L2290 309M2198 259L2177 342M2290 309L2336 289M2290 309L2294 346M2290 309L2378 357M2336 289L2294 346M2336 289L2378 357M2461 247L2545 246M2461 247L2473 334M2545 246L2570 321M2545 246L2547 332M-15 246L10 321M10 321L-13 332M10 321L31 402M10 321L-22 403M2570 321L2547 332M2570 321L2538 403M143 367L166 361M143 367L151 429M143 367L213 407M166 361L269 375M166 361L151 429M166 361L213 407M269 375L358 370M269 375L213 407M269 375L262 443M358 370L399 404M446 370L399 404M446 370L463 423M446 370L498 424M532 332L569 361M532 332L498 424M569 361L498 424M688 324L752 336M752 336L870 343M870 343L892 371M870 343L914 431M892 371L914 431M892 371L973 430M1027 353L1060 379M1027 353L973 430M1027 353L1094 419M1060 379L1146 391M1060 379L973 430M1060 379L1094 419M1146 391L1094 419M1146 391L1139 476M1146 391L1225 421M1146 391L1108 495M1280 353L1357 373M1280 353L1225 421M1357 373L1417 341M1357 373L1328 455M1357 373L1390 476M1417 341L1496 352M1417 341L1495 420M1496 352L1592 354M1496 352L1495 420M1592 354L1646 371M1592 354L1557 455M1646 371L1748 346M1646 371L1678 461M1646 371L1685 457M1748 346L1799 360M1748 346L1838 406M1799 360L1838 406M1799 360L1854 406M1896 366L1950 361M1896 366L1838 406M1896 366L1854 406M1896 366L1985 407M1950 361L1854 406M1950 361L1985 407M2073 400L2123 327M2073 400L1985 407M2073 400L2055 419M2073 400L2132 402M2073 400L2163 419M2123 327L2177 342M2123 327L2132 402M2177 342L2132 402M2177 342L2163 419M2294 346L2378 357M2294 346L2264 426M2294 346L2374 401M2378 357L2473 334M2378 357L2374 401M2473 334L2547 332M2473 334L2538 403M2547 332L2591 402M2547 332L2538 403M-13 332L31 402M31 402L-22 403M31 402L65 509M2591 402L2538 403M151 429L213 407M151 429L262 443M151 429L163 496M213 407L262 443M262 443L279 522M399 404L463 423M463 423L498 424M463 423L492 528M498 424L492 528M622 462L697 479M622 462L562 514M622 462L689 556M697 479L757 465M697 479L801 440M697 479L689 556M697 479L760 527M757 465L801 440M757 465L760 527M757 465L801 558M801 440L914 431M914 431L973 430M914 431L952 523M973 430L952 523M1094 419L1139 476M1094 419L1108 495M1139 476L1108 495M1139 476L1195 508M1139 476L1210 508M1225 421L1328 455M1225 421L1195 508M1225 421L1210 508M1328 455L1390 476M1328 455L1327 502M1328 455L1394 525M1390 476L1327 502M1390 476L1394 525M1390 476L1477 517M1495 420L1557 455M1495 420L1477 517M1557 455L1477 517M1557 455L1572 546M1678 461L1685 457M1678 461L1642 515M1678 461L1687 516M1685 457L1642 515M1685 457L1687 516M1838 406L1854 406M1838 406L1861 490M1854 406L1861 490M1985 407L2055 419M1985 407L1952 513M2055 419L2132 402M2055 419L2052 528M2055 419L2082 520M2132 402L2163 419M2163 419L2264 426M2163 419L2188 487M2264 426L2374 401M2264 426L2188 487M2264 426L2295 524M2374 401L2475 454M2374 401L2372 493M2475 454L2538 403M2475 454L2372 493M2475 454L2478 555M2475 454L2504 553M65 509L109 548M65 509L163 496M109 548L163 496M109 548L53 637M109 548L140 587M163 496L279 522M163 496L140 587M279 522L365 520M279 522L320 572M365 520L441 548M365 520L320 572M365 520L381 602M441 548L492 528M441 548L420 628M441 548L504 560M492 528L562 514M492 528L504 560M562 514L504 560M562 514L589 631M689 556L760 527M689 556L672 612M760 527L801 558M760 527L795 624M801 558L795 624M801 558L879 600M952 523L1015 553M952 523L916 560M952 523L962 567M1015 553L916 560M1015 553L962 567M1015 553L1076 560M1015 553L989 652M1108 495L1195 508M1108 495L1076 560M1195 508L1210 508M1195 508L1199 598M1210 508L1199 598M1327 502L1394 525M1327 502L1291 587M1394 525L1477 517M1394 525L1368 607M1477 517L1572 546M1572 546L1642 515M1572 546L1598 629M1572 546L1638 604M1642 515L1687 516M1642 515L1638 604M1687 516L1780 532M1687 516L1702 600M1780 532L1861 490M1780 532L1786 621M1780 532L1769 641M1861 490L1952 513M1861 490L1901 596M1952 513L2052 528M1952 513L1901 596M1952 513L1930 610M2052 528L2082 520M2052 528L2013 627M2052 528L2119 581M2082 520L2188 487M2082 520L2119 581M2295 524L2372 493M2295 524L2215 601M2295 524L2268 611M2295 524L2327 624M2372 493L2478 555M2478 555L2504 553M2478 555L2419 631M2478 555L2482 565M2504 553L2482 565M53 637L140 587M53 637L55 684M53 637L96 696M53 637L-24 692M2613 637L2536 692M140 587L194 639M140 587L96 696M194 639L217 673M194 639L291 655M320 572L381 602M320 572L291 655M381 602L420 628M381 602L366 658M381 602L441 657M420 628L504 560M420 628L366 658M420 628L441 657M504 560L537 645M589 631L672 612M589 631L537 645M589 631L617 656M589 631L650 670M672 612L617 656M672 612L650 670M795 624L879 600M795 624L735 699M795 624L805 681M879 600L916 560M879 600L962 567M879 600L917 677M916 560L962 567M962 567L989 652M1076 560L989 652M1199 598L1246 635M1199 598L1291 587M1199 598L1273 642M1246 635L1291 587M1246 635L1171 698M1246 635L1273 642M1246 635L1357 664M1291 587L1368 607M1291 587L1273 642M1368 607L1273 642M1368 607L1357 664M1368 607L1415 679M1473 631L1415 679M1473 631L1471 707M1473 631L1529 660M1473 631L1490 733M1598 629L1638 604M1598 629L1529 660M1598 629L1667 683M1638 604L1702 600M1638 604L1667 683M1702 600L1786 621M1702 600L1704 686M1702 600L1769 641M1786 621L1769 641M1901 596L1930 610M1901 596L1962 648M1930 610L2013 627M1930 610L1962 648M1930 610L2023 652M2013 627L1962 648M2013 627L2023 652M2013 627L2014 729M2119 581L2215 601M2119 581L2107 659M2215 601L2268 611M2215 601L2200 692M2215 601L2279 673M2268 611L2327 624M2268 611L2200 692M2268 611L2279 673M2327 624L2419 631M2327 624L2279 673M2327 624L2372 718M2419 631L2482 565M2419 631L2471 694M2419 631L2462 728M55 684L96 696M55 684L-24 692M55 684L13 794M2615 684L2536 692M96 696L158 765M217 673L291 655M217 673L158 765M291 655L366 658M291 655L319 722M366 658L441 657M366 658L319 722M441 657L537 645M441 657L459 784M537 645L617 656M617 656L650 670M617 656L639 745M650 670L735 699M650 670L639 745M735 699L805 681M735 699L639 745M735 699L723 753M805 681L917 677M917 677L989 652M917 677L873 779M917 677L951 747M1117 676L1171 698M1117 676L1118 742M1171 698L1118 742M1171 698L1182 754M1273 642L1357 664M1357 664L1415 679M1357 664L1365 770M1415 679L1471 707M1415 679L1490 733M1471 707L1529 660M1471 707L1365 770M1471 707L1490 733M1529 660L1490 733M1667 683L1704 686M1667 683L1677 747M1667 683L1699 724M1704 686L1769 641M1704 686L1677 747M1704 686L1699 724M1769 641L1699 724M1849 714L1813 768M1849 714L1867 773M1849 714L1928 755M1962 648L2023 652M1962 648L2014 729M2023 652L2107 659M2023 652L2014 729M2107 659L2125 730M2200 692L2279 673M2200 692L2125 730M2200 692L2222 773M2279 673L2289 771M2372 718L2471 694M2372 718L2332 793M2372 718L2462 728M2471 694L2536 692M2471 694L2462 728M2471 694L2484 740M2536 692L2462 728M2536 692L2484 740M13 794L-76 740M13 794L11 819M13 794L-12 855M2573 794L2484 740M2573 794L2548 855M158 765L234 775M158 765L150 818M158 765L202 859M234 775L150 818M234 775L298 815M319 722L371 772M319 722L298 815M371 772L459 784M371 772L298 815M371 772L375 811M371 772L401 833M459 784L500 762M459 784L375 811M459 784L401 833M500 762L550 870M500 762L578 840M639 745L698 797M639 745L723 753M698 797L723 753M698 797L702 853M698 797L781 834M723 753L702 853M873 779L951 747M873 779L834 800M873 779L955 824M873 779L976 803M951 747L989 787M951 747L955 824M951 747L976 803M989 787L955 824M989 787L976 803M989 787L967 894M1118 742L1182 754M1118 742L1095 871M1118 742L1140 835M1182 754L1236 798M1182 754L1140 835M1182 754L1256 808M1236 798L1326 775M1236 798L1140 835M1236 798L1256 808M1236 798L1299 869M1326 775L1365 770M1326 775L1256 808M1326 775L1378 834M1365 770L1378 834M1490 733L1534 813M1595 768L1677 747M1595 768L1699 724M1595 768L1534 813M1677 747L1699 724M1677 747L1665 858M1813 768L1867 773M1813 768L1928 755M1813 768L1832 859M1867 773L1928 755M1867 773L1832 859M1867 773L1883 879M1928 755L2014 729M2014 729L2125 730M2125 730L2222 773M2125 730L2104 828M2222 773L2289 771M2222 773L2188 833M2222 773L2291 823M2289 771L2332 793M2289 771L2291 823M2332 793L2291 823M2332 793L2346 868M2332 793L2412 829M2462 728L2484 740M2484 740L2571 819M-76 740L11 819M11 819L-12 855M11 819L-92 889M2571 819L2548 855M2571 819L2468 889M150 818L202 859M150 818L182 914M202 859L149 929M202 859L182 914M202 859L250 932M298 815L375 811M298 815L325 886M375 811L401 833M375 811L325 886M401 833L325 886M401 833L419 895M550 870L578 840M550 870L487 915M550 870L622 957M550 870L493 963M578 840L487 915M578 840L622 957M702 853L781 834M702 853L688 934M702 853L779 904M781 834L834 800M781 834L779 904M781 834L837 891M834 800L837 891M955 824L976 803M955 824L967 894M976 803L967 894M1095 871L1140 835M1095 871L1042 920M1095 871L1152 911M1140 835L1152 911M1256 808L1299 869M1256 808L1287 896M1299 869L1378 834M1299 869L1275 949M1299 869L1287 896M1378 834L1477 846M1378 834L1408 915M1477 846L1534 813M1477 846L1408 915M1477 846L1445 949M1477 846L1553 883M1534 813L1553 883M1665 858L1714 878M1665 858L1553 883M1665 858L1602 914M1665 858L1701 930M1714 878L1701 930M1714 878L1791 883M1832 859L1883 879M1832 859L1791 883M1832 859L1879 949M1883 879L1791 883M1883 879L1879 949M1883 879L1902 971M1991 862L2048 874M1991 862L1993 896M2048 874L2104 828M2048 874L1993 896M2048 874L2080 927M2048 874L2096 912M2104 828L2188 833M2104 828L2080 927M2104 828L2096 912M2188 833L2291 823M2188 833L2204 930M2291 823L2346 868M2346 868L2412 829M2346 868L2394 893M2346 868L2325 980M2412 829L2394 893M2412 829L2468 889M2548 855L2468 889M2548 855L2554 944M52 950L-6 944M52 950L50 1016M52 950L145 972M2612 950L2554 944M149 929L182 914M149 929L250 932M149 929L145 972M149 929L171 1029M182 914L250 932M182 914L145 972M250 932L325 886M250 932L297 1015M325 886L419 895M419 895L487 915M419 895L493 963M487 915L493 963M622 957L688 934M622 957L569 1035M622 957L674 992M688 934L779 904M688 934L674 992M779 904L837 891M779 904L814 966M837 891L814 966M952 934L967 894M952 934L1042 920M952 934L902 1020M952 934L979 1017M967 894L1042 920M1042 920L1152 911M1042 920L979 1017M1275 949L1287 896M1275 949L1234 1026M1275 949L1347 988M1275 949L1221 1046M1408 915L1445 949M1408 915L1347 988M1408 915L1474 965M1445 949L1347 988M1445 949L1399 1018M1445 949L1474 965M1553 883L1602 914M1553 883L1585 984M1602 914L1701 930M1602 914L1585 984M1602 914L1691 967M1701 930L1680 1009M1701 930L1691 967M1791 883L1879 949M1791 883L1771 990M1879 949L1902 971M1993 896L2080 927M1993 896L1993 989M1993 896L2009 1006M2080 927L2096 912M2080 927L2152 1004M2204 930L2252 934M2204 930L2152 1004M2204 930L2210 995M2204 930L2266 978M2252 934L2210 995M2252 934L2266 978M2252 934L2325 980M2394 893L2468 889M2394 893L2325 980M2468 889L2554 944M2554 944L2610 1016M2554 944L2550 1018M-6 944L50 1016M50 1016L-10 1018M50 1016L55 1064M2610 1016L2550 1018M145 972L171 1029M145 972L142 1068M171 1029L142 1068M171 1029L203 1083M171 1029L260 1064M297 1015L331 1035M297 1015L260 1064M297 1015L327 1110M331 1035L260 1064M331 1035L327 1110M440 1035L493 963M440 1035L445 1057M440 1035L498 1093M440 1035L476 1127M569 1035L674 992M569 1035L571 1077M674 992L761 1026M674 992L663 1089M761 1026L814 966M761 1026L728 1102M761 1026L812 1060M814 966L902 1020M814 966L812 1060M902 1020L979 1017M902 1020L812 1060M902 1020L907 1067M979 1017L907 1067M979 1017L1029 1082M1116 1037L1159 1033M1116 1037L1029 1082M1116 1037L1073 1097M1116 1037L1137 1109M1116 1037L1221 1046M1159 1033L1234 1026M1159 1033L1137 1109M1159 1033L1221 1046M1234 1026L1221 1046M1234 1026L1290 1081M1347 988L1399 1018M1399 1018L1474 965M1399 1018L1388 1100M1474 965L1585 984M1474 965L1523 1095M1585 984L1680 1009M1680 1009L1691 967M1680 1009L1771 990M1680 1009L1709 1046M1691 967L1771 990M1691 967L1709 1046M1771 990L1709 1046M1902 971L1993 989M1902 971L2009 1006M1993 989L2009 1006M1993 989L1980 1093M1993 989L2000 1091M2009 1006L1980 1093M2009 1006L2000 1091M2152 1004L2210 995M2152 1004L2130 1050M2210 995L2266 978M2210 995L2130 1050M2266 978L2325 980M2266 978L2352 1042M2325 980L2352 1042M2476 1000L2550 1018M2476 1000L2425 1072M2476 1000L2507 1056M2550 1018L2615 1064M2550 1018L2507 1056M-10 1018L55 1064M55 1064L142 1068M55 1064L28 1139M142 1068L203 1083M142 1068L153 1139M203 1083L260 1064M203 1083L153 1139M260 1064L327 1110M327 1110L276 1178M327 1110L385 1136M445 1057L498 1093M445 1057L385 1136M445 1057L476 1127M498 1093L571 1077M498 1093L476 1127M498 1093L547 1149M571 1077L663 1089M571 1077L547 1149M571 1077L598 1139M663 1089L728 1102M663 1089L598 1139M663 1089L686 1159M728 1102L812 1060M728 1102L686 1159M728 1102L796 1185M812 1060L907 1067M1029 1082L1073 1097M1029 1082L951 1160M1029 1082L1029 1141M1073 1097L1137 1109M1073 1097L1029 1141M1137 1109L1110 1198M1137 1109L1162 1195M1221 1046L1290 1081M1290 1081L1275 1173M1290 1081L1334 1142M1388 1100L1486 1115M1388 1100L1334 1142M1388 1100L1382 1188M1388 1100L1457 1147M1486 1115L1523 1095M1486 1115L1457 1147M1486 1115L1554 1141M1486 1115L1447 1205M1523 1095L1457 1147M1523 1095L1554 1141M1671 1116L1709 1046M1671 1116L1554 1141M1671 1116L1674 1167M1671 1116L1681 1148M1808 1119L1885 1099M1808 1119L1781 1149M1808 1119L1850 1127M1885 1099L1980 1093M1885 1099L2000 1091M1885 1099L1850 1127M1980 1093L2000 1091M1980 1093L2039 1151M2000 1091L2039 1151M2130 1050L2181 1116M2130 1050L2101 1166M2181 1116L2293 1101M2181 1116L2101 1166M2181 1116L2227 1185M2181 1116L2254 1164M2293 1101L2352 1042M2293 1101L2227 1185M2293 1101L2254 1164M2293 1101L2392 1166M2352 1042L2425 1072M2425 1072L2507 1056M2425 1072L2392 1166M2507 1056L2531 1149M28 1139L153 1139M28 1139L-29 1149M28 1139L62 1234M2588 1139L2531 1149M153 1139L224 1198M153 1139L119 1243M224 1198L276 1178M224 1198L211 1273M276 1178L385 1136M276 1178L279 1272M385 1136L476 1127M385 1136L375 1237M476 1127L547 1149M547 1149L598 1139M547 1149L531 1237M598 1139L686 1159M598 1139L638 1231M686 1159L638 1231M686 1159L704 1225M796 1185L834 1188M796 1185L704 1225M796 1185L755 1222M796 1185L880 1233M834 1188L755 1222M834 1188L880 1233M834 1188L855 1304M951 1160L1029 1141M951 1160L880 1233M951 1160L948 1216M951 1160L1029 1213M1029 1141L1029 1213M1110 1198L1162 1195M1110 1198L1029 1213M1110 1198L1069 1258M1110 1198L1173 1234M1162 1195L1173 1234M1162 1195L1261 1211M1275 1173L1334 1142M1275 1173L1261 1211M1334 1142L1382 1188M1334 1142L1350 1237M1382 1188L1350 1237M1382 1188L1404 1250M1382 1188L1447 1205M1457 1147L1554 1141M1457 1147L1447 1205M1554 1141L1579 1264M1674 1167L1681 1148M1674 1167L1781 1149M1674 1167L1653 1237M1674 1167L1716 1234M1681 1148L1781 1149M1681 1148L1716 1234M1781 1149L1850 1127M1944 1198L1910 1224M1944 1198L1998 1216M2039 1151L2101 1166M2039 1151L1998 1216M2039 1151L2063 1237M2101 1166L2063 1237M2101 1166L2102 1210M2227 1185L2254 1164M2227 1185L2210 1277M2227 1185L2261 1277M2254 1164L2210 1277M2392 1166L2469 1184M2392 1166L2384 1261M2469 1184L2531 1149M2469 1184L2384 1261M2469 1184L2438 1256M2469 1184L2512 1252M2531 1149L2622 1234M-29 1149L62 1234M62 1234L119 1243M62 1234L-48 1252M62 1234L37 1287M2622 1234L2512 1252M119 1243L37 1287M119 1243L153 1317M211 1273L279 1272M211 1273L153 1317M211 1273L215 1301M211 1273L254 1325M279 1272L215 1301M279 1272L254 1325M279 1272L339 1295M375 1237L445 1276M375 1237L339 1295M375 1237L403 1283M445 1276L531 1237M445 1276L403 1283M445 1276L519 1285M445 1276L413 1392M531 1237L638 1231M531 1237L519 1285M638 1231L704 1225M638 1231L687 1322M704 1225L755 1222M880 1233L948 1216M880 1233L855 1304M948 1216L1029 1213M1029 1213L1069 1258M1069 1258L999 1329M1069 1258L1055 1327M1173 1234L1261 1211M1173 1234L1180 1308M1261 1211L1350 1237M1350 1237L1404 1250M1350 1237L1430 1286M1404 1250L1447 1205M1404 1250L1430 1286M1447 1205L1430 1286M1579 1264L1653 1237M1579 1264L1518 1285M1579 1264L1599 1299M1579 1264L1666 1297M1653 1237L1716 1234M1653 1237L1599 1299M1653 1237L1666 1297M1716 1234L1666 1297M1838 1269L1910 1224M1838 1269L1826 1306M1838 1269L1841 1299M1910 1224L1998 1216M1910 1224L1841 1299M1910 1224L1958 1306M1998 1216L2063 1237M1998 1216L1958 1306M2063 1237L2102 1210M2063 1237L2077 1332M2210 1277L2261 1277M2210 1277L2179 1303M2210 1277L2242 1295M2261 1277L2179 1303M2261 1277L2242 1295M2261 1277L2364 1319M2384 1261L2438 1256M2384 1261L2364 1319M2384 1261L2417 1316M2438 1256L2512 1252M2438 1256L2364 1319M2438 1256L2417 1316M2512 1252L2597 1287M2512 1252L2555 1341M-48 1252L37 1287M37 1287L-5 1341M37 1287L-29 1363M2597 1287L2555 1341M2597 1287L2531 1363M153 1317L215 1301M153 1317L113 1387M215 1301L254 1325M215 1301L273 1370M254 1325L339 1295M254 1325L273 1370M339 1295L403 1283M403 1283L519 1285M403 1283L413 1392M519 1285L590 1336M519 1285L548 1379M590 1336L687 1322M590 1336L548 1379M590 1336L636 1403M590 1336L673 1395M687 1322L778 1337M687 1322L636 1403M687 1322L673 1395M778 1337L855 1304M778 1337L673 1395M778 1337L755 1399M778 1337L832 1411M855 1304L832 1411M955 1340L999 1329M955 1340L1055 1327M955 1340L925 1439M955 1340L1062 1360M999 1329L1055 1327M999 1329L1030 1415M999 1329L1062 1360M1055 1327L1030 1415M1055 1327L1062 1360M1180 1308L1217 1353M1180 1308L1292 1345M1180 1308L1185 1410M1217 1353L1292 1345M1217 1353L1185 1410M1292 1345L1287 1427M1292 1345L1373 1407M1430 1286L1518 1285M1518 1285L1599 1299M1518 1285L1518 1381M1599 1299L1666 1297M1599 1299L1588 1402M1666 1297L1736 1341M1736 1341L1826 1306M1736 1341L1665 1419M1736 1341L1756 1372M1736 1341L1789 1396M1826 1306L1841 1299M1826 1306L1870 1366M1841 1299L1870 1366M1958 1306L1986 1400M2077 1332L2088 1348M2077 1332L2179 1303M2077 1332L2048 1391M2077 1332L2110 1420M2088 1348L2179 1303M2088 1348L2048 1391M2088 1348L2110 1420M2088 1348L2164 1404M2179 1303L2242 1295M2242 1295L2295 1389M2364 1319L2417 1316M2364 1319L2295 1389M2417 1316L2468 1374M2555 1341L2599 1396M2555 1341L2468 1374M2555 1341L2531 1363M-5 1341L39 1396M39 1396L113 1387M39 1396L-29 1363M2599 1396L2531 1363M113 1387L223 1436M223 1436L273 1370M273 1370L364 1404M364 1404L413 1392M413 1392L548 1379M548 1379L636 1403M636 1403L673 1395M673 1395L755 1399M755 1399L832 1411M832 1411L925 1439M1030 1415L1062 1360M1279 1437L1287 1427M1279 1437L1373 1407M1287 1427L1373 1407M1518 1381L1588 1402M1588 1402L1665 1419M1665 1419L1756 1372M1756 1372L1789 1396M1789 1396L1870 1366M1986 1400L2048 1391M2048 1391L2110 1420M2110 1420L2164 1404M2164 1404L2295 1389M2295 1389L2349 1425M2349 1425L2468 1374M2468 1374L2531 1363"/></svg>