<svg xmlns="http://www.w3.org/2000/svg" width="2560" height="1440" fill="#fff"><circle cx="65" cy="5" r="5"/><circle cx="65" cy="1445" r="5"/><circle cx="108" cy="21" r="4"/><circle cx="191" cy="46" r="5"/><circle cx="309" cy="64" r="6"/><circle cx="388" cy="10" r="6"/><circle cx="432" cy="0" r="5"/><circle cx="432" cy="1440" r="5"/><circle cx="549" cy="43" r="4"/><circle cx="622" cy="21" r="6"/><circle cx="685" cy="36" r="5"/><circle cx="784" cy="18" r="5"/><circle cx="850" cy="51" r="5"/><circle cx="943" cy="1" r="6"/><circle cx="943" cy="1441" r="6"/><circle cx="1030" cy="56" r="4"/><circle cx="1117" cy="21" r="6"/><circle cx="1195" cy="44" r="4"/><circle cx="1248" cy="36" r="5"/><circle cx="1290" cy="7" r="5"/><circle cx="1385" cy="28" r="6"/><circle cx="1445" cy="69" r="5"/><circle cx="1590" cy="31" r="4"/><circle cx="1630" cy="19" r="5"/><circle cx="1704" cy="20" r="5"/><circle cx="1792" cy="66" r="4"/><circle cx="1900" cy="18" r="6"/><circle cx="1937" cy="34" r="5"/><circle cx="2055" cy="66" r="5"/><circle cx="2145" cy="73" r="6"/><circle cx="2196" cy="23" r="5"/><circle cx="2314" cy="10" r="6"/><circle cx="2369" cy="3" r="5"/><circle cx="2369" cy="1443" r="5"/><circle cx="2445" cy="64" r="5"/><circle cx="2495" cy="22" r="5"/><circle cx="49" cy="106" r="5"/><circle cx="127" cy="89" r="5"/><circle cx="175" cy="116" r="5"/><circle cx="300" cy="112" r="6"/><circle cx="375" cy="160" r="5"/><circle cx="446" cy="96" r="5"/><circle cx="541" cy="147" r="5"/><circle cx="569" cy="95" r="5"/><circle cx="690" cy="127" r="4"/><circle cx="727" cy="120" r="5"/><circle cx="868" cy="97" r="5"/><circle cx="927" cy="96" r="5"/><circle cx="1021" cy="94" r="6"/><circle cx="1080" cy="94" r="4"/><circle cx="1199" cy="120" r="4"/><circle cx="1208" cy="81" r="6"/><circle cx="1318" cy="154" r="4"/><circle cx="1407" cy="159" r="5"/><circle cx="1510" cy="154" r="5"/><circle cx="1562" cy="140" r="6"/><circle cx="1659" cy="121" r="6"/><circle cx="1755" cy="97" r="4"/><circle cx="1768" cy="140" r="6"/><circle cx="1858" cy="120" r="5"/><circle cx="1960" cy="86" r="5"/><circle cx="2079" cy="94" r="6"/><circle cx="2083" cy="144" r="4"/><circle cx="2218" cy="103" r="5"/><circle cx="2253" cy="115" r="6"/><circle cx="2382" cy="149" r="5"/><circle cx="2431" cy="133" r="4"/><circle cx="2508" cy="83" r="4"/><circle cx="26" cy="201" r="5"/><circle cx="151" cy="181" r="5"/><circle cx="238" cy="237" r="5"/><circle cx="255" cy="210" r="6"/><circle cx="361" cy="178" r="5"/><circle cx="448" cy="182" r="6"/><circle cx="555" cy="239" r="6"/><circle cx="570" cy="168" r="5"/><circle cx="649" cy="182" r="6"/><circle cx="796" cy="185" r="4"/><circle cx="822" cy="187" r="6"/><circle cx="894" cy="199" r="5"/><circle cx="1002" cy="164" r="4"/><circle cx="1097" cy="232" r="4"/><circle cx="1177" cy="177" r="6"/><circle cx="1244" cy="161" r="6"/><circle cx="1303" cy="229" r="5"/><circle cx="1434" cy="201" r="6"/><circle cx="1444" cy="205" r="6"/><circle cx="1576" cy="201" r="6"/><circle cx="1649" cy="189" r="4"/><circle cx="1692" cy="202" r="5"/><circle cx="1812" cy="204" r="5"/><circle cx="1864" cy="175" r="4"/><circle cx="1928" cy="190" r="4"/><circle cx="2008" cy="219" r="5"/><circle cx="2094" cy="211" r="6"/><circle cx="2240" cy="188" r="4"/><circle cx="2262" cy="174" r="6"/><circle cx="2351" cy="223" r="5"/><circle cx="2436" cy="218" r="5"/><circle cx="2513" cy="195" r="5"/><circle cx="35" cy="282" r="4"/><circle cx="126" cy="299" r="5"/><circle cx="226" cy="289" r="6"/><circle cx="313" cy="253" r="6"/><circle cx="327" cy="297" r="4"/><circle cx="454" cy="320" r="5"/><circle cx="540" cy="278" r="6"/><circle cx="590" cy="287" r="5"/><circle cx="718" cy="244" r="4"/><circle cx="747" cy="294" r="5"/><circle cx="820" cy="294" r="5"/><circle cx="894" cy="250" r="5"/><circle cx="1010" cy="246" r="5"/><circle cx="1069" cy="255" r="5"/><circle cx="1182" cy="302" r="5"/><circle cx="1244" cy="319" r="6"/><circle cx="1292" cy="273" r="5"/><circle cx="1364" cy="250" r="6"/><circle cx="1484" cy="246" r="5"/><circle cx="1582" cy="306" r="4"/><circle cx="1660" cy="263" r="4"/><circle cx="1720" cy="309" r="4"/><circle cx="1806" cy="279" r="6"/><circle cx="1886" cy="289" r="5"/><circle cx="1949" cy="259" r="5"/><circle cx="2038" cy="252" r="6"/><circle cx="2093" cy="314" r="4"/><circle cx="2207" cy="304" r="5"/><circle cx="2266" cy="269" r="5"/><circle cx="2388" cy="292" r="5"/><circle cx="2426" cy="309" r="4"/><circle cx="2513" cy="260" r="6"/><circle cx="58" cy="384" r="6"/><circle cx="91" cy="398" r="4"/><circle cx="226" cy="351" r="5"/><circle cx="300" cy="352" r="5"/><circle cx="350" cy="368" r="5"/><circle cx="431" cy="359" r="6"/><circle cx="521" cy="331" r="6"/><circle cx="597" cy="339" r="5"/><circle cx="685" cy="399" r="5"/><circle cx="751" cy="382" r="6"/><circle cx="823" cy="349" r="6"/><circle cx="898" cy="345" r="5"/><circle cx="960" cy="373" r="5"/><circle cx="1114" cy="379" r="4"/><circle cx="1144" cy="398" r="5"/><circle cx="1244" cy="393" r="5"/><circle cx="1347" cy="355" r="5"/><circle cx="1392" cy="343" r="5"/><circle cx="1481" cy="336" r="5"/><circle cx="1571" cy="335" r="6"/><circle cx="1673" cy="353" r="5"/><circle cx="1721" cy="381" r="6"/><circle cx="1821" cy="394" r="4"/><circle cx="1845" cy="362" r="5"/><circle cx="1946" cy="392" r="5"/><circle cx="2056" cy="352" r="5"/><circle cx="2092" cy="320" r="5"/><circle cx="2240" cy="383" r="6"/><circle cx="2320" cy="373" r="5"/><circle cx="2327" cy="384" r="5"/><circle cx="2453" cy="345" r="5"/><circle cx="2520" cy="375" r="4"/><circle cx="4" cy="452" r="6"/><circle cx="2564" cy="452" r="6"/><circle cx="103" cy="405" r="4"/><circle cx="223" cy="441" r="5"/><circle cx="309" cy="479" r="4"/><circle cx="324" cy="443" r="4"/><circle cx="454" cy="461" r="5"/><circle cx="530" cy="457" r="5"/><circle cx="628" cy="431" r="5"/><circle cx="659" cy="453" r="6"/><circle cx="733" cy="445" r="5"/><circle cx="805" cy="446" r="6"/><circle cx="933" cy="402" r="4"/><circle cx="1023" cy="476" r="5"/><circle cx="1114" cy="418" r="5"/><circle cx="1175" cy="442" r="5"/><circle cx="1219" cy="455" r="4"/><circle cx="1298" cy="448" r="4"/><circle cx="1409" cy="416" r="5"/><circle cx="1481" cy="410" r="5"/><circle cx="1584" cy="456" r="6"/><circle cx="1649" cy="467" r="5"/><circle cx="1755" cy="417" r="5"/><circle cx="1805" cy="402" r="5"/><circle cx="1899" cy="475" r="4"/><circle cx="1940" cy="463" r="4"/><circle cx="2039" cy="429" r="6"/><circle cx="2117" cy="419" r="4"/><circle cx="2240" cy="409" r="5"/><circle cx="2247" cy="446" r="5"/><circle cx="2375" cy="409" r="6"/><circle cx="2406" cy="424" r="4"/><circle cx="2484" cy="403" r="5"/><circle cx="59" cy="490" r="4"/><circle cx="99" cy="521" r="6"/><circle cx="225" cy="548" r="5"/><circle cx="282" cy="515" r="5"/><circle cx="369" cy="493" r="6"/><circle cx="427" cy="546" r="5"/><circle cx="486" cy="492" r="6"/><circle cx="577" cy="528" r="6"/><circle cx="645" cy="492" r="5"/><circle cx="756" cy="508" r="4"/><circle cx="808" cy="533" r="5"/><circle cx="906" cy="498" r="5"/><circle cx="1003" cy="530" r="6"/><circle cx="1094" cy="501" r="6"/><circle cx="1163" cy="533" r="6"/><circle cx="1261" cy="526" r="5"/><circle cx="1289" cy="554" r="5"/><circle cx="1398" cy="517" r="5"/><circle cx="1513" cy="523" r="5"/><circle cx="1547" cy="553" r="5"/><circle cx="1611" cy="555" r="4"/><circle cx="1711" cy="542" r="5"/><circle cx="1810" cy="500" r="6"/><circle cx="1899" cy="508" r="5"/><circle cx="1944" cy="556" r="5"/><circle cx="2061" cy="516" r="5"/><circle cx="2130" cy="531" r="5"/><circle cx="2203" cy="500" r="5"/><circle cx="2300" cy="495" r="5"/><circle cx="2398" cy="523" r="5"/><circle cx="2455" cy="528" r="6"/><circle cx="2516" cy="518" r="4"/><circle cx="76" cy="588" r="5"/><circle cx="92" cy="617" r="4"/><circle cx="191" cy="565" r="5"/><circle cx="259" cy="568" r="5"/><circle cx="329" cy="564" r="6"/><circle cx="422" cy="577" r="4"/><circle cx="504" cy="597" r="5"/><circle cx="583" cy="592" r="5"/><circle cx="641" cy="584" r="6"/><circle cx="756" cy="565" r="5"/><circle cx="821" cy="615" r="5"/><circle cx="908" cy="632" r="5"/><circle cx="978" cy="633" r="5"/><circle cx="1075" cy="614" r="6"/><circle cx="1175" cy="626" r="4"/><circle cx="1246" cy="623" r="5"/><circle cx="1286" cy="626" r="4"/><circle cx="1371" cy="601" r="5"/><circle cx="1492" cy="637" r="6"/><circle cx="1555" cy="620" r="4"/><circle cx="1631" cy="615" r="4"/><circle cx="1717" cy="640" r="5"/><circle cx="1819" cy="605" r="6"/><circle cx="1914" cy="561" r="5"/><circle cx="1931" cy="627" r="5"/><circle cx="2034" cy="611" r="6"/><circle cx="2131" cy="573" r="4"/><circle cx="2205" cy="636" r="6"/><circle cx="2248" cy="562" r="5"/><circle cx="2335" cy="570" r="5"/><circle cx="2449" cy="629" r="5"/><circle cx="2507" cy="633" r="4"/><circle cx="66" cy="665" r="6"/><circle cx="94" cy="710" r="4"/><circle cx="210" cy="662" r="6"/><circle cx="286" cy="709" r="4"/><circle cx="390" cy="690" r="4"/><circle cx="409" cy="670" r="5"/><circle cx="488" cy="641" r="4"/><circle cx="560" cy="691" r="6"/><circle cx="685" cy="714" r="6"/><circle cx="765" cy="691" r="5"/><circle cx="818" cy="718" r="5"/><circle cx="910" cy="691" r="5"/><circle cx="965" cy="691" r="4"/><circle cx="1099" cy="689" r="4"/><circle cx="1156" cy="681" r="4"/><circle cx="1261" cy="715" r="5"/><circle cx="1284" cy="666" r="6"/><circle cx="1404" cy="699" r="4"/><circle cx="1495" cy="683" r="5"/><circle cx="1548" cy="689" r="5"/><circle cx="1604" cy="681" r="6"/><circle cx="1702" cy="656" r="4"/><circle cx="1785" cy="658" r="4"/><circle cx="1888" cy="696" r="5"/><circle cx="1924" cy="661" r="5"/><circle cx="2031" cy="715" r="6"/><circle cx="2120" cy="645" r="5"/><circle cx="2182" cy="673" r="6"/><circle cx="2261" cy="660" r="6"/><circle cx="2347" cy="710" r="5"/><circle cx="2429" cy="641" r="4"/><circle cx="2546" cy="719" r="6"/><circle cx="68" cy="742" r="5"/><circle cx="133" cy="729" r="5"/><circle cx="196" cy="739" r="6"/><circle cx="312" cy="765" r="6"/><circle cx="372" cy="784" r="6"/><circle cx="424" cy="721" r="4"/><circle cx="485" cy="787" r="5"/><circle cx="574" cy="728" r="5"/><circle cx="685" cy="747" r="5"/><circle cx="723" cy="789" r="5"/><circle cx="839" cy="748" r="6"/><circle cx="941" cy="782" r="5"/><circle cx="981" cy="733" r="4"/><circle cx="1064" cy="749" r="6"/><circle cx="1127" cy="727" r="5"/><circle cx="1250" cy="797" r="6"/><circle cx="1298" cy="770" r="4"/><circle cx="1372" cy="759" r="5"/><circle cx="1516" cy="770" r="4"/><circle cx="1523" cy="765" r="4"/><circle cx="1637" cy="770" r="4"/><circle cx="1746" cy="783" r="4"/><circle cx="1773" cy="772" r="4"/><circle cx="1878" cy="731" r="5"/><circle cx="1964" cy="746" r="5"/><circle cx="2079" cy="782" r="6"/><circle cx="2094" cy="783" r="5"/><circle cx="2194" cy="737" r="4"/><circle cx="2260" cy="774" r="4"/><circle cx="2359" cy="754" r="5"/><circle cx="2447" cy="758" r="5"/><circle cx="2556" cy="721" r="6"/><circle cx="-4" cy="721" r="6"/><circle cx="3" cy="822" r="5"/><circle cx="2563" cy="822" r="5"/><circle cx="146" cy="844" r="4"/><circle cx="221" cy="839" r="5"/><circle cx="257" cy="801" r="6"/><circle cx="366" cy="813" r="5"/><circle cx="461" cy="810" r="4"/><circle cx="548" cy="866" r="5"/><circle cx="600" cy="840" r="6"/><circle cx="666" cy="836" r="5"/><circle cx="764" cy="806" r="4"/><circle cx="831" cy="850" r="4"/><circle cx="889" cy="865" r="4"/><circle cx="1034" cy="811" r="5"/><circle cx="1090" cy="868" r="6"/><circle cx="1198" cy="822" r="6"/><circle cx="1258" cy="856" r="4"/><circle cx="1291" cy="830" r="5"/><circle cx="1411" cy="837" r="5"/><circle cx="1443" cy="873" r="5"/><circle cx="1546" cy="850" r="6"/><circle cx="1667" cy="865" r="5"/><circle cx="1721" cy="877" r="6"/><circle cx="1836" cy="839" r="5"/><circle cx="1915" cy="864" r="4"/><circle cx="1956" cy="876" r="6"/><circle cx="2062" cy="866" r="6"/><circle cx="2094" cy="872" r="5"/><circle cx="2239" cy="869" r="5"/><circle cx="2290" cy="833" r="4"/><circle cx="2394" cy="807" r="6"/><circle cx="2417" cy="802" r="4"/><circle cx="2481" cy="845" r="5"/><circle cx="23" cy="895" r="5"/><circle cx="120" cy="937" r="4"/><circle cx="176" cy="922" r="6"/><circle cx="249" cy="915" r="4"/><circle cx="366" cy="959" r="4"/><circle cx="450" cy="955" r="6"/><circle cx="540" cy="921" r="5"/><circle cx="605" cy="901" r="4"/><circle cx="645" cy="907" r="5"/><circle cx="755" cy="918" r="6"/><circle cx="855" cy="901" r="6"/><circle cx="923" cy="959" r="6"/><circle cx="1006" cy="956" r="5"/><circle cx="1057" cy="935" r="5"/><circle cx="1128" cy="884" r="4"/><circle cx="1261" cy="909" r="5"/><circle cx="1285" cy="906" r="5"/><circle cx="1412" cy="930" r="5"/><circle cx="1507" cy="923" r="6"/><circle cx="1554" cy="934" r="4"/><circle cx="1632" cy="931" r="5"/><circle cx="1705" cy="959" r="6"/><circle cx="1810" cy="911" r="5"/><circle cx="1843" cy="880" r="5"/><circle cx="1994" cy="893" r="5"/><circle cx="2038" cy="893" r="5"/><circle cx="2143" cy="886" r="6"/><circle cx="2220" cy="919" r="5"/><circle cx="2287" cy="905" r="4"/><circle cx="2387" cy="952" r="5"/><circle cx="2456" cy="896" r="5"/><circle cx="2545" cy="919" r="4"/><circle cx="51" cy="1015" r="4"/><circle cx="150" cy="1035" r="5"/><circle cx="190" cy="967" r="5"/><circle cx="289" cy="1009" r="5"/><circle cx="377" cy="1034" r="6"/><circle cx="404" cy="990" r="5"/><circle cx="509" cy="985" r="5"/><circle cx="621" cy="1013" r="5"/><circle cx="649" cy="970" r="6"/><circle cx="787" cy="1028" r="4"/><circle cx="821" cy="1007" r="5"/><circle cx="903" cy="1039" r="6"/><circle cx="1027" cy="984" r="5"/><circle cx="1045" cy="981" r="6"/><circle cx="1197" cy="1034" r="4"/><circle cx="1243" cy="1006" r="6"/><circle cx="1288" cy="1026" r="6"/><circle cx="1440" cy="1039" r="5"/><circle cx="1484" cy="1037" r="5"/><circle cx="1521" cy="972" r="5"/><circle cx="1607" cy="962" r="5"/><circle cx="1696" cy="979" r="4"/><circle cx="1830" cy="988" r="5"/><circle cx="1859" cy="992" r="4"/><circle cx="1944" cy="1009" r="5"/><circle cx="2049" cy="1032" r="4"/><circle cx="2127" cy="1017" r="4"/><circle cx="2180" cy="1028" r="5"/><circle cx="2279" cy="998" r="5"/><circle cx="2362" cy="1029" r="5"/><circle cx="2457" cy="964" r="5"/><circle cx="2548" cy="983" r="5"/><circle cx="79" cy="1119" r="6"/><circle cx="158" cy="1049" r="6"/><circle cx="207" cy="1089" r="6"/><circle cx="298" cy="1051" r="5"/><circle cx="344" cy="1104" r="5"/><circle cx="477" cy="1050" r="5"/><circle cx="486" cy="1067" r="6"/><circle cx="615" cy="1052" r="4"/><circle cx="668" cy="1064" r="5"/><circle cx="781" cy="1120" r="5"/><circle cx="870" cy="1054" r="5"/><circle cx="911" cy="1057" r="5"/><circle cx="1029" cy="1114" r="5"/><circle cx="1046" cy="1064" r="5"/><circle cx="1167" cy="1063" r="6"/><circle cx="1251" cy="1077" r="6"/><circle cx="1293" cy="1096" r="4"/><circle cx="1364" cy="1108" r="5"/><circle cx="1465" cy="1118" r="5"/><circle cx="1563" cy="1094" r="5"/><circle cx="1667" cy="1042" r="5"/><circle cx="1698" cy="1057" r="5"/><circle cx="1826" cy="1053" r="5"/><circle cx="1911" cy="1075" r="5"/><circle cx="1975" cy="1044" r="6"/><circle cx="2053" cy="1117" r="5"/><circle cx="2096" cy="1112" r="5"/><circle cx="2176" cy="1046" r="4"/><circle cx="2258" cy="1058" r="6"/><circle cx="2396" cy="1078" r="5"/><circle cx="2439" cy="1081" r="6"/><circle cx="2558" cy="1084" r="5"/><circle cx="-2" cy="1084" r="5"/><circle cx="25" cy="1157" r="6"/><circle cx="101" cy="1151" r="5"/><circle cx="183" cy="1169" r="5"/><circle cx="261" cy="1126" r="4"/><circle cx="354" cy="1155" r="5"/><circle cx="437" cy="1195" r="5"/><circle cx="535" cy="1122" r="5"/><circle cx="563" cy="1153" r="6"/><circle cx="700" cy="1188" r="4"/><circle cx="791" cy="1199" r="5"/><circle cx="872" cy="1125" r="5"/><circle cx="902" cy="1183" r="5"/><circle cx="961" cy="1163" r="6"/><circle cx="1079" cy="1166" r="4"/><circle cx="1167" cy="1123" r="5"/><circle cx="1258" cy="1171" r="5"/><circle cx="1347" cy="1143" r="4"/><circle cx="1380" cy="1185" r="6"/><circle cx="1480" cy="1129" r="4"/><circle cx="1563" cy="1180" r="6"/><circle cx="1669" cy="1199" r="5"/><circle cx="1754" cy="1131" r="5"/><circle cx="1803" cy="1173" r="5"/><circle cx="1881" cy="1124" r="5"/><circle cx="1984" cy="1162" r="5"/><circle cx="2060" cy="1162" r="5"/><circle cx="2101" cy="1170" r="5"/><circle cx="2213" cy="1137" r="4"/><circle cx="2300" cy="1179" r="6"/><circle cx="2341" cy="1177" r="5"/><circle cx="2462" cy="1187" r="5"/><circle cx="2535" cy="1139" r="5"/><circle cx="58" cy="1221" r="6"/><circle cx="129" cy="1219" r="4"/><circle cx="188" cy="1222" r="5"/><circle cx="270" cy="1212" r="5"/><circle cx="386" cy="1208" r="6"/><circle cx="448" cy="1210" r="5"/><circle cx="522" cy="1263" r="4"/><circle cx="601" cy="1251" r="6"/><circle cx="706" cy="1276" r="6"/><circle cx="771" cy="1240" r="4"/><circle cx="859" cy="1210" r="5"/><circle cx="885" cy="1247" r="5"/><circle cx="962" cy="1255" r="6"/><circle cx="1050" cy="1272" r="5"/><circle cx="1131" cy="1268" r="5"/><circle cx="1277" cy="1259" r="4"/><circle cx="1339" cy="1270" r="6"/><circle cx="1382" cy="1277" r="4"/><circle cx="1474" cy="1258" r="5"/><circle cx="1566" cy="1260" r="5"/><circle cx="1628" cy="1249" r="5"/><circle cx="1703" cy="1268" r="5"/><circle cx="1796" cy="1270" r="4"/><circle cx="1876" cy="1227" r="4"/><circle cx="1927" cy="1255" r="5"/><circle cx="2078" cy="1259" r="5"/><circle cx="2090" cy="1275" r="5"/><circle cx="2227" cy="1230" r="6"/><circle cx="2316" cy="1269" r="6"/><circle cx="2376" cy="1227" r="6"/><circle cx="2467" cy="1250" r="4"/><circle cx="2511" cy="1252" r="6"/><circle cx="4" cy="1357" r="6"/><circle cx="2564" cy="1357" r="6"/><circle cx="95" cy="1338" r="4"/><circle cx="180" cy="1331" r="4"/><circle cx="263" cy="1318" r="4"/><circle cx="369" cy="1325" r="5"/><circle cx="406" cy="1282" r="4"/><circle cx="501" cy="1322" r="5"/><circle cx="583" cy="1285" r="4"/><circle cx="643" cy="1310" r="6"/><circle cx="773" cy="1352" r="5"/><circle cx="824" cy="1316" r="5"/><circle cx="896" cy="1343" r="5"/><circle cx="1024" cy="1339" r="6"/><circle cx="1053" cy="1353" r="6"/><circle cx="1189" cy="1344" r="5"/><circle cx="1271" cy="1356" r="6"/><circle cx="1339" cy="1294" r="4"/><circle cx="1361" cy="1341" r="6"/><circle cx="1509" cy="1349" r="5"/><circle cx="1532" cy="1309" r="4"/><circle cx="1649" cy="1304" r="5"/><circle cx="1729" cy="1295" r="5"/><circle cx="1830" cy="1289" r="5"/><circle cx="1850" cy="1305" r="5"/><circle cx="1937" cy="1289" r="5"/><circle cx="2010" cy="1331" r="6"/><circle cx="2149" cy="1317" r="6"/><circle cx="2216" cy="1347" r="5"/><circle cx="2281" cy="1304" r="5"/><circle cx="2324" cy="1353" r="5"/><circle cx="2440" cy="1360" r="4"/><circle cx="2552" cy="1301" r="4"/><circle cx="59" cy="1372" r="5"/><circle cx="126" cy="1430" r="5"/><circle cx="206" cy="1401" r="5"/><circle cx="297" cy="1418" r="5"/><circle cx="378" cy="1407" r="5"/><circle cx="444" cy="1413" r="5"/><circle cx="508" cy="1396" r="6"/><circle cx="589" cy="1367" r="5"/><circle cx="713" cy="1383" r="4"/><circle cx="798" cy="1430" r="5"/><circle cx="810" cy="1361" r="4"/><circle cx="935" cy="1368" r="6"/><circle cx="1021" cy="1408" r="5"/><circle cx="1060" cy="1385" r="4"/><circle cx="1182" cy="1410" r="5"/><circle cx="1240" cy="1387" r="5"/><circle cx="1337" cy="1367" r="6"/><circle cx="1415" cy="1384" r="5"/><circle cx="1445" cy="1431" r="5"/><circle cx="1563" cy="1368" r="5"/><circle cx="1641" cy="1415" r="5"/><circle cx="1705" cy="1425" r="5"/><circle cx="1778" cy="1416" r="6"/><circle cx="1895" cy="1415" r="6"/><circle cx="1926" cy="1402" r="5"/><circle cx="2002" cy="1419" r="4"/><circle cx="2102" cy="1405" r="5"/><circle cx="2209" cy="1370" r="6"/><circle cx="2266" cy="1425" r="5"/><circle cx="2361" cy="1369" r="5"/><circle cx="2404" cy="1438" r="4"/><circle cx="2404" cy="-2" r="4"/><circle cx="2502" cy="1367" r="5"/><path stroke="#fff" d="M65 5L108 21M65 5L49 106M65 5L4 -83M65 5L59 -68M65 5L126 -10M65 1445L4 1357M65 1445L59 1372M65 1445L126 1430M108 21L191 46M108 21L127 89M108 21L126 -10M108 1461L126 1430M191 46L127 89M191 46L175 116M191 46L126 -10M191 46L206 -39M191 1486L126 1430M191 1486L206 1401M309 64L388 10M309 64L300 112M309 64L297 -22M309 1504L297 1418M388 10L432 0M388 10L297 -22M388 10L378 -33M388 10L444 -27M388 1450L297 1418M388 1450L378 1407M388 1450L444 1413M432 0L446 96M432 0L378 -33M432 0L444 -27M432 0L508 -44M432 1440L378 1407M432 1440L444 1413M432 1440L508 1396M549 43L622 21M549 43L569 95M549 43L508 -44M549 1483L508 1396M622 21L685 36M622 21L569 95M622 21L589 -73M622 1461L589 1367M685 36L784 18M685 36L690 127M685 36L727 120M685 36L713 -57M685 1476L713 1383M784 18L850 51M784 18L798 -10M784 18L810 -79M784 1458L798 1430M784 1458L810 1361M850 51L868 97M850 51L927 96M850 51L798 -10M850 1491L798 1430M943 1L1030 56M943 1L927 96M943 1L896 -97M943 1L935 -72M943 1L1021 -32M943 1441L896 1343M943 1441L935 1368M943 1441L1021 1408M1030 56L1117 21M1030 56L1021 94M1030 56L1080 94M1117 21L1195 44M1117 21L1080 94M1117 21L1182 -30M1117 1461L1182 1410M1195 44L1248 36M1195 44L1199 120M1195 44L1208 81M1195 44L1182 -30M1195 1484L1182 1410M1248 36L1290 7M1248 36L1208 81M1248 36L1182 -30M1248 1476L1182 1410M1290 7L1385 28M1290 7L1271 -84M1290 7L1240 -53M1290 7L1337 -73M1290 1447L1271 1356M1290 1447L1240 1387M1290 1447L1337 1367M1385 28L1445 69M1385 28L1415 -56M1385 28L1445 -9M1385 1468L1415 1384M1385 1468L1445 1431M1445 69L1407 159M1445 69L1445 -9M1445 1509L1445 1431M1590 31L1630 19M1590 31L1562 140M1590 31L1563 -72M1590 31L1641 -25M1590 1471L1563 1368M1590 1471L1641 1415M1630 19L1704 20M1630 19L1641 -25M1630 19L1705 -15M1630 1459L1641 1415M1630 1459L1705 1425M1704 20L1755 97M1704 20L1641 -25M1704 20L1705 -15M1704 20L1778 -24M1704 1460L1641 1415M1704 1460L1705 1425M1704 1460L1778 1416M1792 66L1755 97M1792 66L1768 140M1792 66L1858 120M1792 66L1778 -24M1792 1506L1778 1416M1900 18L1937 34M1900 18L1858 120M1900 18L1960 86M1900 18L1895 -25M1900 18L1926 -38M1900 1458L1895 1415M1900 1458L1926 1402M1937 34L1960 86M1937 34L1895 -25M1937 34L1926 -38M1937 34L2002 -21M1937 1474L1895 1415M1937 1474L1926 1402M1937 1474L2002 1419M2055 66L2145 73M2055 66L1960 86M2055 66L2079 94M2055 66L2083 144M2055 66L2002 -21M2055 1506L2002 1419M2145 73L2196 23M2145 73L2079 94M2145 73L2083 144M2145 73L2218 103M2196 23L2218 103M2196 23L2253 115M2196 23L2209 -70M2196 23L2266 -15M2196 1463L2209 1370M2196 1463L2266 1425M2314 10L2369 3M2314 10L2324 -87M2314 10L2266 -15M2314 10L2361 -71M2314 10L2404 -2M2314 1450L2324 1353M2314 1450L2266 1425M2314 1450L2361 1369M2314 1450L2404 1438M2369 3L2445 64M2369 3L2361 -71M2369 3L2404 -2M2369 1443L2361 1369M2369 1443L2404 1438M2445 64L2495 22M2445 64L2431 133M2445 64L2508 83M2445 64L2404 -2M2445 1504L2404 1438M2495 22L2508 83M2495 22L2404 -2M2495 22L2502 -73M2495 1462L2404 1438M2495 1462L2502 1367M49 106L127 89M49 106L-52 83M49 106L26 201M2609 106L2508 83M127 89L175 116M175 116L300 112M175 116L151 181M300 112L375 160M300 112L255 210M300 112L361 178M375 160L446 96M375 160L361 178M375 160L448 182M446 96L361 178M446 96L448 182M541 147L569 95M541 147L448 182M541 147L555 239M541 147L570 168M569 95L570 168M569 95L649 182M690 127L727 120M690 127L649 182M727 120L649 182M727 120L796 185M868 97L927 96M868 97L822 187M868 97L894 199M927 96L1021 94M927 96L894 199M1021 94L1080 94M1021 94L1002 164M1080 94L1002 164M1199 120L1208 81M1199 120L1177 177M1199 120L1244 161M1208 81L1177 177M1208 81L1244 161M1318 154L1407 159M1318 154L1244 161M1318 154L1303 229M1407 159L1434 201M1407 159L1444 205M1510 154L1562 140M1510 154L1434 201M1510 154L1444 205M1510 154L1576 201M1510 154L1484 246M1562 140L1659 121M1562 140L1576 201M1562 140L1649 189M1659 121L1755 97M1659 121L1649 189M1659 121L1692 202M1755 97L1768 140M1768 140L1858 120M1768 140L1692 202M1768 140L1812 204M1858 120L1812 204M1858 120L1864 175M1960 86L2079 94M1960 86L1928 190M2079 94L2083 144M2083 144L2008 219M2083 144L2094 211M2218 103L2253 115M2218 103L2240 188M2218 103L2262 174M2253 115L2240 188M2253 115L2262 174M2382 149L2431 133M2382 149L2351 223M2382 149L2436 218M2431 133L2508 83M2431 133L2513 195M2508 83L2513 195M26 201L-47 195M26 201L35 282M26 201L-47 260M2586 201L2513 195M2586 201L2513 260M151 181L238 237M151 181L255 210M238 237L255 210M238 237L226 289M238 237L313 253M238 237L226 351M255 210L226 289M255 210L313 253M361 178L448 182M361 178L313 253M555 239L570 168M555 239L540 278M555 239L590 287M570 168L649 182M649 182L718 244M796 185L822 187M796 185L894 199M796 185L718 244M822 187L894 199M822 187L820 294M822 187L894 250M894 199L894 250M1002 164L1010 246M1002 164L1069 255M1097 232L1177 177M1097 232L1010 246M1097 232L1069 255M1177 177L1244 161M1244 161L1303 229M1303 229L1244 319M1303 229L1292 273M1303 229L1364 250M1434 201L1444 205M1434 201L1364 250M1434 201L1484 246M1444 205L1364 250M1444 205L1484 246M1576 201L1649 189M1576 201L1484 246M1576 201L1582 306M1649 189L1692 202M1649 189L1660 263M1692 202L1660 263M1692 202L1720 309M1812 204L1864 175M1812 204L1806 279M1812 204L1886 289M1864 175L1928 190M1928 190L2008 219M1928 190L1949 259M2008 219L2094 211M2008 219L1949 259M2008 219L2038 252M2094 211L2038 252M2094 211L2093 314M2094 211L2092 320M2240 188L2262 174M2240 188L2266 269M2262 174L2351 223M2262 174L2266 269M2351 223L2436 218M2351 223L2266 269M2351 223L2388 292M2436 218L2513 195M2436 218L2388 292M2436 218L2513 260M2513 195L2513 260M35 282L126 299M35 282L-47 260M2595 282L2513 260M126 299L58 384M126 299L91 398M126 299L226 351M226 289L313 253M226 289L226 351M226 289L300 352M313 253L327 297M327 297L300 352M327 297L350 368M327 297L431 359M454 320L540 278M454 320L431 359M454 320L521 331M540 278L590 287M540 278L521 331M540 278L597 339M590 287L521 331M590 287L597 339M718 244L747 294M747 294L820 294M747 294L751 382M747 294L823 349M820 294L894 250M820 294L823 349M820 294L898 345M894 250L898 345M1010 246L1069 255M1182 302L1244 319M1182 302L1292 273M1182 302L1114 379M1182 302L1144 398M1244 319L1292 273M1244 319L1244 393M1244 319L1347 355M1292 273L1364 250M1292 273L1347 355M1364 250L1392 343M1484 246L1481 336M1582 306L1660 263M1582 306L1571 335M1582 306L1673 353M1660 263L1720 309M1660 263L1673 353M1720 309L1806 279M1720 309L1673 353M1720 309L1721 381M1806 279L1886 289M1806 279L1845 362M1886 289L1949 259M1886 289L1845 362M1949 259L2038 252M2038 252L2093 314M2038 252L2092 320M2093 314L2207 304M2093 314L2056 352M2093 314L2092 320M2207 304L2266 269M2207 304L2240 383M2388 292L2426 309M2388 292L2320 373M2388 292L2453 345M2426 309L2453 345M2426 309L2484 403M58 384L91 398M58 384L-40 375M58 384L4 452M58 384L103 405M2618 384L2520 375M91 398L103 405M91 398L59 490M226 351L300 352M226 351L223 441M300 352L350 368M300 352L324 443M350 368L431 359M350 368L324 443M431 359L521 331M431 359L454 461M521 331L597 339M685 399L751 382M685 399L628 431M685 399L659 453M685 399L733 445M685 399L645 492M751 382L823 349M751 382L733 445M751 382L805 446M823 349L898 345M823 349L805 446M898 345L960 373M898 345L933 402M960 373L933 402M960 373L1023 476M960 373L906 498M1114 379L1144 398M1114 379L1114 418M1144 398L1244 393M1144 398L1114 418M1144 398L1175 442M1244 393L1175 442M1244 393L1219 455M1244 393L1298 448M1347 355L1392 343M1347 355L1298 448M1347 355L1409 416M1392 343L1481 336M1392 343L1409 416M1392 343L1481 410M1481 336L1571 335M1481 336L1409 416M1481 336L1481 410M1571 335L1673 353M1571 335L1481 410M1571 335L1584 456M1673 353L1721 381M1721 381L1821 394M1721 381L1755 417M1721 381L1805 402M1821 394L1845 362M1821 394L1755 417M1821 394L1805 402M1845 362L1946 392M1845 362L1805 402M1946 392L2056 352M1946 392L1899 475M1946 392L1940 463M1946 392L2039 429M2056 352L2092 320M2056 352L2039 429M2056 352L2117 419M2092 320L2117 419M2240 383L2320 373M2240 383L2327 384M2240 383L2240 409M2240 383L2247 446M2320 373L2327 384M2320 373L2240 409M2320 373L2375 409M2327 384L2240 409M2327 384L2375 409M2327 384L2406 424M2453 345L2520 375M2453 345L2375 409M2453 345L2484 403M2520 375L2564 452M2520 375L2484 403M-40 375L4 452M4 452L-76 403M4 452L59 490M4 452L-44 518M2564 452L2484 403M2564 452L2516 518M103 405L59 490M103 405L99 521M223 441L309 479M223 441L225 548M309 479L324 443M309 479L282 515M309 479L369 493M309 479L329 564M324 443L369 493M454 461L530 457M454 461L369 493M454 461L427 546M454 461L486 492M530 457L628 431M530 457L486 492M530 457L577 528M628 431L659 453M628 431L645 492M659 453L733 445M659 453L645 492M733 445L805 446M733 445L756 508M805 446L756 508M805 446L808 533M933 402L906 498M1023 476L1114 418M1023 476L906 498M1023 476L1003 530M1023 476L1094 501M1114 418L1175 442M1114 418L1094 501M1175 442L1219 455M1175 442L1163 533M1219 455L1298 448M1219 455L1163 533M1219 455L1261 526M1298 448L1261 526M1409 416L1481 410M1409 416L1398 517M1584 456L1649 467M1584 456L1513 523M1584 456L1547 553M1584 456L1611 555M1649 467L1755 417M1649 467L1611 555M1649 467L1711 542M1755 417L1805 402M1755 417L1810 500M1805 402L1810 500M1899 475L1940 463M1899 475L1810 500M1899 475L1899 508M1899 475L1914 561M1940 463L2039 429M1940 463L1899 508M1940 463L1944 556M2039 429L2117 419M2039 429L2061 516M2117 419L2061 516M2240 409L2247 446M2240 409L2203 500M2247 446L2203 500M2247 446L2300 495M2375 409L2406 424M2406 424L2484 403M2406 424L2398 523M59 490L99 521M59 490L76 588M99 521L76 588M99 521L92 617M99 521L191 565M225 548L282 515M225 548L191 565M225 548L259 568M282 515L259 568M282 515L329 564M369 493L427 546M369 493L329 564M427 546L486 492M427 546L422 577M427 546L504 597M486 492L577 528M486 492L504 597M577 528L645 492M577 528L583 592M577 528L641 584M645 492L641 584M756 508L808 533M756 508L756 565M808 533L906 498M808 533L756 565M808 533L821 615M906 498L1003 530M1003 530L1094 501M1003 530L978 633M1003 530L1075 614M1094 501L1163 533M1094 501L1075 614M1163 533L1261 526M1163 533L1175 626M1261 526L1289 554M1261 526L1246 623M1289 554L1246 623M1289 554L1286 626M1289 554L1371 601M1289 554L1284 666M1398 517L1513 523M1398 517L1371 601M1513 523L1547 553M1547 553L1611 555M1547 553L1492 637M1547 553L1555 620M1611 555L1631 615M1711 542L1717 640M1810 500L1899 508M1810 500L1819 605M1899 508L1944 556M1899 508L1914 561M1944 556L1914 561M1944 556L1931 627M1944 556L2034 611M2061 516L2130 531M2061 516L2034 611M2061 516L2131 573M2130 531L2203 500M2130 531L2131 573M2203 500L2300 495M2203 500L2248 562M2300 495L2398 523M2300 495L2248 562M2300 495L2335 570M2398 523L2455 528M2398 523L2335 570M2398 523L2449 629M2455 528L2516 518M2455 528L2449 629M2455 528L2507 633M2455 528L2429 641M76 588L92 617M76 588L191 565M76 588L66 665M92 617L66 665M191 565L259 568M191 565L210 662M259 568L329 564M259 568L210 662M329 564L422 577M422 577L504 597M422 577L409 670M422 577L488 641M504 597L583 592M504 597L488 641M583 592L641 584M583 592L488 641M583 592L560 691M641 584L756 565M756 565L821 615M821 615L908 632M821 615L765 691M821 615L818 718M908 632L978 633M908 632L910 691M908 632L965 691M978 633L1075 614M978 633L910 691M978 633L965 691M1075 614L1175 626M1075 614L1099 689M1175 626L1246 623M1175 626L1099 689M1175 626L1156 681M1246 623L1286 626M1246 623L1284 666M1286 626L1371 601M1286 626L1261 715M1286 626L1284 666M1371 601L1284 666M1371 601L1404 699M1492 637L1555 620M1492 637L1495 683M1492 637L1548 689M1555 620L1631 615M1555 620L1548 689M1555 620L1604 681M1631 615L1717 640M1631 615L1604 681M1631 615L1702 656M1717 640L1819 605M1717 640L1702 656M1717 640L1785 658M1819 605L1914 561M1819 605L1785 658M1819 605L1888 696M1914 561L1931 627M1931 627L2034 611M1931 627L1888 696M1931 627L1924 661M2034 611L2031 715M2034 611L2120 645M2131 573L2205 636M2131 573L2120 645M2131 573L2182 673M2205 636L2248 562M2205 636L2120 645M2205 636L2182 673M2205 636L2261 660M2248 562L2335 570M2248 562L2261 660M2449 629L2507 633M2449 629L2429 641M2507 633L2429 641M2507 633L2546 719M66 665L94 710M66 665L68 742M66 665L-4 721M2626 665L2556 721M94 710L68 742M94 710L133 729M94 710L-4 721M2654 710L2556 721M210 662L286 709M210 662L133 729M210 662L196 739M286 709L196 739M286 709L312 765M286 709L257 801M390 690L409 670M390 690L372 784M390 690L424 721M409 670L488 641M409 670L424 721M488 641L560 691M560 691L685 714M560 691L485 787M560 691L574 728M685 714L765 691M685 714L574 728M685 714L685 747M685 714L723 789M765 691L818 718M765 691L685 747M765 691L839 748M818 718L839 748M818 718L764 806M910 691L965 691M910 691L839 748M910 691L981 733M965 691L941 782M965 691L981 733M1099 689L1156 681M1099 689L1064 749M1099 689L1127 727M1156 681L1127 727M1261 715L1284 666M1261 715L1250 797M1261 715L1298 770M1404 699L1495 683M1404 699L1372 759M1495 683L1548 689M1495 683L1516 770M1495 683L1523 765M1548 689L1604 681M1548 689L1523 765M1604 681L1702 656M1604 681L1637 770M1702 656L1785 658M1888 696L1924 661M1888 696L1878 731M1888 696L1964 746M1924 661L1878 731M1924 661L1964 746M2031 715L2120 645M2031 715L1964 746M2031 715L2079 782M2031 715L2094 783M2120 645L2182 673M2182 673L2261 660M2182 673L2194 737M2261 660L2347 710M2261 660L2194 737M2347 710L2429 641M2347 710L2359 754M2347 710L2394 807M2546 719L2628 742M2546 719L2447 758M2546 719L2556 721M2546 719L2563 822M-14 719L68 742M-14 719L3 822M68 742L133 729M68 742L-4 721M2628 742L2556 721M133 729L196 739M196 739L221 839M196 739L257 801M312 765L372 784M312 765L257 801M312 765L366 813M372 784L424 721M372 784L366 813M372 784L461 810M424 721L485 787M424 721L461 810M485 787L574 728M485 787L461 810M485 787L548 866M685 747L723 789M685 747L666 836M685 747L764 806M723 789L666 836M723 789L764 806M839 748L941 782M839 748L764 806M941 782L981 733M941 782L889 865M941 782L1034 811M981 733L1064 749M981 733L1034 811M1064 749L1127 727M1064 749L1034 811M1064 749L1090 868M1127 727L1034 811M1250 797L1298 770M1250 797L1198 822M1250 797L1258 856M1250 797L1291 830M1298 770L1372 759M1298 770L1291 830M1372 759L1411 837M1516 770L1523 765M1516 770L1546 850M1523 765L1546 850M1637 770L1746 783M1637 770L1667 865M1746 783L1773 772M1746 783L1721 877M1746 783L1836 839M1773 772L1878 731M1773 772L1836 839M1878 731L1964 746M2079 782L2094 783M2079 782L2062 866M2079 782L2094 872M2094 783L2094 872M2194 737L2260 774M2260 774L2359 754M2260 774L2239 869M2260 774L2290 833M2359 754L2447 758M2359 754L2394 807M2359 754L2417 802M2447 758L2394 807M2447 758L2417 802M2447 758L2481 845M2556 721L2563 822M-4 721L3 822M3 822L-79 845M3 822L23 895M3 822L-15 919M2563 822L2481 845M2563 822L2545 919M146 844L221 839M146 844L120 937M146 844L176 922M221 839L257 801M221 839L176 922M221 839L249 915M257 801L366 813M366 813L461 810M548 866L600 840M548 866L540 921M548 866L605 901M600 840L666 836M600 840L540 921M600 840L605 901M600 840L645 907M666 836L645 907M764 806L831 850M831 850L889 865M831 850L755 918M831 850L855 901M889 865L855 901M1034 811L1090 868M1090 868L1198 822M1090 868L1057 935M1090 868L1128 884M1198 822L1258 856M1198 822L1291 830M1198 822L1128 884M1258 856L1291 830M1258 856L1261 909M1258 856L1285 906M1291 830L1285 906M1411 837L1443 873M1411 837L1412 930M1443 873L1546 850M1443 873L1412 930M1443 873L1507 923M1546 850L1507 923M1546 850L1554 934M1667 865L1721 877M1667 865L1632 931M1721 877L1705 959M1721 877L1810 911M1836 839L1915 864M1836 839L1810 911M1836 839L1843 880M1915 864L1956 876M1915 864L1843 880M1915 864L1994 893M1956 876L1843 880M1956 876L1994 893M1956 876L2038 893M2062 866L2094 872M2062 866L1994 893M2062 866L2038 893M2062 866L2143 886M2094 872L2038 893M2094 872L2143 886M2239 869L2290 833M2239 869L2143 886M2239 869L2220 919M2239 869L2287 905M2290 833L2287 905M2394 807L2417 802M2394 807L2481 845M2417 802L2481 845M2417 802L2456 896M2481 845L2456 896M23 895L120 937M23 895L-15 919M23 895L-12 983M2583 895L2545 919M2583 895L2548 983M120 937L176 922M120 937L190 967M176 922L249 915M176 922L190 967M249 915L190 967M249 915L289 1009M366 959L450 955M366 959L289 1009M366 959L377 1034M366 959L404 990M450 955L540 921M450 955L404 990M450 955L509 985M450 955L477 1050M540 921L605 901M540 921L509 985M605 901L645 907M605 901L649 970M645 907L755 918M645 907L649 970M755 918L855 901M855 901L923 959M855 901L821 1007M923 959L1006 956M923 959L903 1039M923 959L911 1057M1006 956L1057 935M1006 956L1027 984M1006 956L1045 981M1006 956L1046 1064M1057 935L1128 884M1057 935L1027 984M1057 935L1045 981M1261 909L1285 906M1261 909L1243 1006M1412 930L1507 923M1507 923L1554 934M1507 923L1521 972M1554 934L1632 931M1554 934L1521 972M1554 934L1607 962M1632 931L1705 959M1632 931L1607 962M1632 931L1696 979M1705 959L1696 979M1705 959L1667 1042M1705 959L1698 1057M1810 911L1843 880M1810 911L1830 988M1810 911L1859 992M1843 880L1830 988M1994 893L2038 893M1994 893L1944 1009M2038 893L2143 886M2143 886L2220 919M2220 919L2287 905M2220 919L2279 998M2287 905L2387 952M2287 905L2279 998M2387 952L2456 896M2387 952L2362 1029M2387 952L2457 964M2456 896L2545 919M2456 896L2457 964M2545 919L2457 964M2545 919L2548 983M51 1015L150 1035M51 1015L-12 983M51 1015L-2 1084M2611 1015L2548 983M2611 1015L2558 1084M150 1035L190 967M150 1035L158 1049M150 1035L207 1089M190 967L158 1049M289 1009L377 1034M289 1009L298 1051M377 1034L404 990M377 1034L298 1051M377 1034L344 1104M404 990L477 1050M404 990L486 1067M509 985L621 1013M509 985L477 1050M509 985L486 1067M621 1013L649 970M621 1013L615 1052M621 1013L668 1064M649 970L615 1052M649 970L668 1064M787 1028L821 1007M787 1028L781 1120M787 1028L870 1054M821 1007L903 1039M821 1007L870 1054M821 1007L911 1057M903 1039L870 1054M903 1039L911 1057M903 1039L872 1125M1027 984L1045 981M1027 984L1046 1064M1045 981L1029 1114M1045 981L1046 1064M1197 1034L1243 1006M1197 1034L1288 1026M1197 1034L1167 1063M1197 1034L1251 1077M1197 1034L1167 1123M1243 1006L1288 1026M1243 1006L1167 1063M1243 1006L1251 1077M1288 1026L1251 1077M1288 1026L1293 1096M1288 1026L1364 1108M1440 1039L1484 1037M1440 1039L1521 972M1440 1039L1364 1108M1440 1039L1465 1118M1440 1039L1480 1129M1484 1037L1521 972M1484 1037L1465 1118M1484 1037L1563 1094M1484 1037L1480 1129M1521 972L1607 962M1607 962L1696 979M1607 962L1667 1042M1696 979L1667 1042M1696 979L1698 1057M1830 988L1859 992M1830 988L1826 1053M1859 992L1944 1009M1859 992L1826 1053M1859 992L1911 1075M1944 1009L2049 1032M1944 1009L1911 1075M1944 1009L1975 1044M2049 1032L2127 1017M2049 1032L1975 1044M2049 1032L2053 1117M2049 1032L2096 1112M2127 1017L2180 1028M2127 1017L2096 1112M2127 1017L2176 1046M2180 1028L2279 998M2180 1028L2176 1046M2180 1028L2258 1058M2279 998L2362 1029M2279 998L2258 1058M2362 1029L2258 1058M2362 1029L2396 1078M2362 1029L2439 1081M2457 964L2548 983M2457 964L2439 1081M2548 983L2558 1084M79 1119L158 1049M79 1119L-2 1084M79 1119L25 1157M79 1119L101 1151M79 1119L58 1221M2639 1119L2558 1084M158 1049L207 1089M207 1089L298 1051M207 1089L183 1169M207 1089L261 1126M298 1051L344 1104M298 1051L261 1126M344 1104L261 1126M344 1104L354 1155M344 1104L386 1208M477 1050L486 1067M477 1050L535 1122M486 1067L535 1122M486 1067L563 1153M615 1052L668 1064M615 1052L535 1122M615 1052L563 1153M781 1120L700 1188M781 1120L791 1199M870 1054L911 1057M870 1054L872 1125M911 1057L872 1125M1029 1114L1046 1064M1029 1114L961 1163M1029 1114L1079 1166M1046 1064L1167 1063M1167 1063L1251 1077M1167 1063L1167 1123M1251 1077L1293 1096M1293 1096L1364 1108M1293 1096L1258 1171M1293 1096L1347 1143M1364 1108L1347 1143M1364 1108L1380 1185M1465 1118L1563 1094M1465 1118L1380 1185M1465 1118L1480 1129M1563 1094L1667 1042M1563 1094L1480 1129M1563 1094L1563 1180M1667 1042L1698 1057M1698 1057L1754 1131M1826 1053L1911 1075M1826 1053L1754 1131M1826 1053L1881 1124M1911 1075L1975 1044M1911 1075L1881 1124M1975 1044L1984 1162M2053 1117L2096 1112M2053 1117L1984 1162M2053 1117L2060 1162M2053 1117L2101 1170M2096 1112L2060 1162M2096 1112L2101 1170M2176 1046L2258 1058M2176 1046L2213 1137M2258 1058L2213 1137M2396 1078L2439 1081M2396 1078L2341 1177M2439 1081L2462 1187M2439 1081L2535 1139M2558 1084L2585 1157M2558 1084L2535 1139M-2 1084L25 1157M25 1157L101 1151M25 1157L-25 1139M25 1157L58 1221M2585 1157L2535 1139M101 1151L183 1169M101 1151L58 1221M101 1151L129 1219M183 1169L261 1126M183 1169L129 1219M183 1169L188 1222M261 1126L270 1212M354 1155L437 1195M354 1155L270 1212M354 1155L386 1208M354 1155L448 1210M437 1195L386 1208M437 1195L448 1210M437 1195L406 1282M535 1122L563 1153M563 1153L522 1263M563 1153L601 1251M700 1188L791 1199M700 1188L706 1276M700 1188L771 1240M791 1199L771 1240M791 1199L859 1210M872 1125L902 1183M872 1125L859 1210M902 1183L961 1163M902 1183L859 1210M902 1183L885 1247M902 1183L962 1255M961 1163L962 1255M1079 1166L1167 1123M1079 1166L1131 1268M1167 1123L1258 1171M1258 1171L1347 1143M1258 1171L1277 1259M1347 1143L1380 1185M1380 1185L1339 1270M1380 1185L1382 1277M1480 1129L1563 1180M1563 1180L1669 1199M1563 1180L1566 1260M1563 1180L1628 1249M1669 1199L1754 1131M1669 1199L1628 1249M1669 1199L1703 1268M1669 1199L1649 1304M1754 1131L1803 1173M1803 1173L1881 1124M1803 1173L1796 1270M1803 1173L1876 1227M1881 1124L1984 1162M1984 1162L2060 1162M1984 1162L1927 1255M2060 1162L2101 1170M2060 1162L2078 1259M2101 1170L2078 1259M2101 1170L2090 1275M2213 1137L2300 1179M2213 1137L2227 1230M2300 1179L2341 1177M2300 1179L2227 1230M2300 1179L2316 1269M2300 1179L2376 1227M2341 1177L2316 1269M2341 1177L2376 1227M2462 1187L2535 1139M2462 1187L2376 1227M2462 1187L2467 1250M2462 1187L2511 1252M58 1221L129 1219M58 1221L-49 1252M2618 1221L2511 1252M129 1219L188 1222M188 1222L270 1212M188 1222L180 1331M270 1212L263 1318M386 1208L448 1210M386 1208L406 1282M448 1210L522 1263M448 1210L406 1282M522 1263L601 1251M522 1263L501 1322M522 1263L583 1285M601 1251L706 1276M601 1251L583 1285M601 1251L643 1310M706 1276L771 1240M706 1276L643 1310M706 1276L773 1352M771 1240L859 1210M771 1240L824 1316M859 1210L885 1247M885 1247L962 1255M885 1247L824 1316M885 1247L896 1343M962 1255L1050 1272M1050 1272L1131 1268M1050 1272L1024 1339M1050 1272L1053 1353M1050 1272L1060 1385M1131 1268L1189 1344M1277 1259L1339 1270M1277 1259L1339 1294M1339 1270L1382 1277M1339 1270L1339 1294M1339 1270L1361 1341M1382 1277L1474 1258M1382 1277L1339 1294M1382 1277L1361 1341M1474 1258L1566 1260M1474 1258L1509 1349M1474 1258L1532 1309M1566 1260L1628 1249M1566 1260L1532 1309M1566 1260L1649 1304M1628 1249L1703 1268M1628 1249L1649 1304M1703 1268L1796 1270M1703 1268L1649 1304M1703 1268L1729 1295M1796 1270L1729 1295M1796 1270L1830 1289M1796 1270L1850 1305M1876 1227L1927 1255M1876 1227L1830 1289M1876 1227L1850 1305M1876 1227L1937 1289M1927 1255L1850 1305M1927 1255L1937 1289M2078 1259L2090 1275M2078 1259L2010 1331M2078 1259L2149 1317M2090 1275L2010 1331M2090 1275L2149 1317M2090 1275L2102 1405M2227 1230L2281 1304M2316 1269L2376 1227M2316 1269L2281 1304M2316 1269L2324 1353M2376 1227L2467 1250M2467 1250L2511 1252M2467 1250L2552 1301M2467 1250L2502 1367M2511 1252L2552 1301M4 1357L95 1338M4 1357L-8 1301M4 1357L59 1372M4 1357L-58 1367M2564 1357L2552 1301M2564 1357L2502 1367M95 1338L180 1331M95 1338L59 1372M180 1331L263 1318M180 1331L206 1401M263 1318L369 1325M263 1318L206 1401M263 1318L297 1418M369 1325L406 1282M369 1325L378 1407M501 1322L583 1285M501 1322L444 1413M501 1322L508 1396M501 1322L589 1367M583 1285L643 1310M583 1285L589 1367M643 1310L589 1367M643 1310L713 1383M773 1352L824 1316M773 1352L713 1383M773 1352L798 1430M773 1352L810 1361M824 1316L896 1343M824 1316L810 1361M896 1343L810 1361M896 1343L935 1368M1024 1339L1053 1353M1024 1339L935 1368M1024 1339L1021 1408M1024 1339L1060 1385M1053 1353L935 1368M1053 1353L1021 1408M1053 1353L1060 1385M1189 1344L1271 1356M1189 1344L1182 1410M1189 1344L1240 1387M1271 1356L1240 1387M1271 1356L1337 1367M1339 1294L1361 1341M1339 1294L1337 1367M1361 1341L1337 1367M1361 1341L1415 1384M1509 1349L1532 1309M1509 1349L1415 1384M1509 1349L1445 1431M1509 1349L1563 1368M1532 1309L1563 1368M1649 1304L1729 1295M1729 1295L1830 1289M1729 1295L1778 1416M1830 1289L1850 1305M1850 1305L1937 1289M1937 1289L2010 1331M2010 1331L1926 1402M2010 1331L2002 1419M2149 1317L2216 1347M2149 1317L2102 1405M2149 1317L2209 1370M2216 1347L2281 1304M2216 1347L2209 1370M2216 1347L2266 1425M2281 1304L2324 1353M2281 1304L2209 1370M2324 1353L2266 1425M2324 1353L2361 1369M2440 1360L2361 1369M2440 1360L2502 1367M2552 1301L2619 1372M2552 1301L2502 1367M-8 1301L59 1372M59 1372L126 1430M126 1430L206 1401M206 1401L297 1418M297 1418L378 1407M378 1407L444 1413M444 1413L508 1396M508 1396L589 1367M713 1383L798 1430M798 1430L810 1361M935 1368L1021 1408M1021 1408L1060 1385M1182 1410L1240 1387M1337 1367L1415 1384M1415 1384L1445 1431M1563 1368L1641 1415M1641 1415L1705 1425M1705 1425L1778 1416M1778 1416L1895 1415M1895 1415L1926 1402M1895 1415L2002 1419M1926 1402L2002 1419M2209 1370L2266 1425M2361 1369L2404 1438"/></svg>