<svg xmlns="http://www.w3.org/2000/svg" width="2560" height="1440" fill="#fff"><circle cx="42" cy="72" r="5"/><circle cx="102" cy="78" r="6"/><circle cx="191" cy="63" r="5"/><circle cx="294" cy="73" r="6"/><circle cx="334" cy="79" r="5"/><circle cx="446" cy="20" r="5"/><circle cx="486" cy="14" r="5"/><circle cx="625" cy="48" r="5"/><circle cx="717" cy="66" r="6"/><circle cx="730" cy="75" r="5"/><circle cx="809" cy="36" r="4"/><circle cx="923" cy="2" r="5"/><circle cx="923" cy="1442" r="5"/><circle cx="1002" cy="50" r="4"/><circle cx="1052" cy="2" r="6"/><circle cx="1052" cy="1442" r="6"/><circle cx="1159" cy="17" r="6"/><circle cx="1216" cy="53" r="5"/><circle cx="1285" cy="70" r="6"/><circle cx="1428" cy="22" r="5"/><circle cx="1514" cy="58" r="5"/><circle cx="1544" cy="7" r="4"/><circle cx="1646" cy="24" r="5"/><circle cx="1712" cy="61" r="6"/><circle cx="1781" cy="22" r="4"/><circle cx="1872" cy="16" r="6"/><circle cx="1921" cy="49" r="6"/><circle cx="2028" cy="24" r="5"/><circle cx="2121" cy="20" r="6"/><circle cx="2171" cy="78" r="5"/><circle cx="2264" cy="59" r="6"/><circle cx="2354" cy="16" r="6"/><circle cx="2431" cy="70" r="6"/><circle cx="2511" cy="36" r="4"/><circle cx="24" cy="115" r="5"/><circle cx="136" cy="126" r="5"/><circle cx="161" cy="128" r="5"/><circle cx="246" cy="115" r="5"/><circle cx="390" cy="85" r="5"/><circle cx="443" cy="134" r="5"/><circle cx="483" cy="123" r="5"/><circle cx="633" cy="114" r="5"/><circle cx="717" cy="128" r="6"/><circle cx="752" cy="143" r="4"/><circle cx="874" cy="110" r="4"/><circle cx="953" cy="132" r="4"/><circle cx="993" cy="158" r="4"/><circle cx="1063" cy="149" r="4"/><circle cx="1160" cy="92" r="5"/><circle cx="1239" cy="138" r="6"/><circle cx="1312" cy="148" r="4"/><circle cx="1411" cy="127" r="5"/><circle cx="1489" cy="98" r="5"/><circle cx="1521" cy="101" r="4"/><circle cx="1609" cy="81" r="4"/><circle cx="1754" cy="91" r="4"/><circle cx="1798" cy="82" r="6"/><circle cx="1918" cy="141" r="5"/><circle cx="1947" cy="105" r="6"/><circle cx="2069" cy="139" r="5"/><circle cx="2122" cy="122" r="6"/><circle cx="2214" cy="100" r="5"/><circle cx="2255" cy="95" r="5"/><circle cx="2362" cy="147" r="5"/><circle cx="2455" cy="155" r="6"/><circle cx="2524" cy="109" r="6"/><circle cx="52" cy="220" r="5"/><circle cx="96" cy="196" r="5"/><circle cx="187" cy="218" r="6"/><circle cx="299" cy="231" r="5"/><circle cx="368" cy="239" r="5"/><circle cx="402" cy="193" r="5"/><circle cx="493" cy="206" r="5"/><circle cx="638" cy="222" r="4"/><circle cx="699" cy="225" r="5"/><circle cx="723" cy="191" r="5"/><circle cx="854" cy="236" r="5"/><circle cx="889" cy="203" r="5"/><circle cx="995" cy="240" r="5"/><circle cx="1058" cy="180" r="5"/><circle cx="1130" cy="220" r="5"/><circle cx="1213" cy="191" r="6"/><circle cx="1281" cy="212" r="5"/><circle cx="1370" cy="187" r="5"/><circle cx="1470" cy="187" r="5"/><circle cx="1576" cy="200" r="5"/><circle cx="1628" cy="235" r="4"/><circle cx="1754" cy="172" r="5"/><circle cx="1820" cy="233" r="6"/><circle cx="1875" cy="163" r="4"/><circle cx="1939" cy="165" r="5"/><circle cx="2030" cy="227" r="5"/><circle cx="2158" cy="210" r="5"/><circle cx="2183" cy="231" r="4"/><circle cx="2274" cy="198" r="5"/><circle cx="2345" cy="164" r="5"/><circle cx="2433" cy="216" r="6"/><circle cx="2486" cy="165" r="5"/><circle cx="72" cy="286" r="5"/><circle cx="95" cy="309" r="5"/><circle cx="221" cy="262" r="4"/><circle cx="306" cy="308" r="5"/><circle cx="383" cy="288" r="5"/><circle cx="401" cy="251" r="4"/><circle cx="520" cy="259" r="5"/><circle cx="560" cy="255" r="4"/><circle cx="705" cy="319" r="6"/><circle cx="767" cy="271" r="4"/><circle cx="808" cy="289" r="5"/><circle cx="905" cy="285" r="5"/><circle cx="991" cy="271" r="4"/><circle cx="1105" cy="304" r="4"/><circle cx="1171" cy="294" r="5"/><circle cx="1203" cy="250" r="4"/><circle cx="1322" cy="295" r="6"/><circle cx="1410" cy="307" r="5"/><circle cx="1444" cy="243" r="5"/><circle cx="1564" cy="304" r="6"/><circle cx="1652" cy="289" r="4"/><circle cx="1725" cy="276" r="5"/><circle cx="1792" cy="265" r="6"/><circle cx="1841" cy="301" r="5"/><circle cx="1939" cy="299" r="6"/><circle cx="2016" cy="241" r="5"/><circle cx="2096" cy="288" r="4"/><circle cx="2184" cy="255" r="5"/><circle cx="2280" cy="292" r="6"/><circle cx="2348" cy="273" r="6"/><circle cx="2412" cy="281" r="5"/><circle cx="2496" cy="320" r="5"/><circle cx="27" cy="369" r="6"/><circle cx="155" cy="323" r="5"/><circle cx="172" cy="342" r="5"/><circle cx="281" cy="326" r="4"/><circle cx="367" cy="333" r="5"/><circle cx="415" cy="377" r="5"/><circle cx="491" cy="388" r="6"/><circle cx="638" cy="347" r="6"/><circle cx="712" cy="342" r="4"/><circle cx="747" cy="365" r="5"/><circle cx="836" cy="322" r="6"/><circle cx="896" cy="358" r="5"/><circle cx="1027" cy="349" r="5"/><circle cx="1058" cy="337" r="4"/><circle cx="1169" cy="332" r="4"/><circle cx="1278" cy="360" r="4"/><circle cx="1336" cy="325" r="5"/><circle cx="1411" cy="326" r="6"/><circle cx="1497" cy="381" r="5"/><circle cx="1575" cy="331" r="5"/><circle cx="1623" cy="368" r="5"/><circle cx="1717" cy="339" r="5"/><circle cx="1774" cy="330" r="4"/><circle cx="1918" cy="333" r="6"/><circle cx="1976" cy="357" r="6"/><circle cx="2014" cy="397" r="4"/><circle cx="2150" cy="363" r="5"/><circle cx="2229" cy="338" r="4"/><circle cx="2297" cy="399" r="5"/><circle cx="2341" cy="324" r="5"/><circle cx="2476" cy="328" r="5"/><circle cx="2532" cy="333" r="5"/><circle cx="51" cy="478" r="6"/><circle cx="100" cy="416" r="4"/><circle cx="235" cy="462" r="6"/><circle cx="253" cy="419" r="5"/><circle cx="393" cy="430" r="5"/><circle cx="465" cy="417" r="4"/><circle cx="524" cy="429" r="6"/><circle cx="636" cy="471" r="4"/><circle cx="686" cy="470" r="6"/><circle cx="758" cy="435" r="5"/><circle cx="849" cy="410" r="5"/><circle cx="929" cy="440" r="4"/><circle cx="1035" cy="467" r="4"/><circle cx="1068" cy="405" r="5"/><circle cx="1161" cy="410" r="4"/><circle cx="1208" cy="437" r="5"/><circle cx="1299" cy="465" r="5"/><circle cx="1406" cy="468" r="5"/><circle cx="1519" cy="461" r="5"/><circle cx="1573" cy="415" r="5"/><circle cx="1614" cy="437" r="5"/><circle cx="1713" cy="469" r="6"/><circle cx="1791" cy="400" r="6"/><circle cx="1890" cy="457" r="4"/><circle cx="1939" cy="430" r="5"/><circle cx="2034" cy="403" r="4"/><circle cx="2086" cy="447" r="5"/><circle cx="2236" cy="432" r="4"/><circle cx="2266" cy="448" r="4"/><circle cx="2356" cy="412" r="5"/><circle cx="2463" cy="429" r="4"/><circle cx="2552" cy="417" r="4"/><circle cx="51" cy="544" r="6"/><circle cx="137" cy="483" r="4"/><circle cx="165" cy="507" r="5"/><circle cx="282" cy="504" r="5"/><circle cx="396" cy="501" r="6"/><circle cx="416" cy="491" r="4"/><circle cx="545" cy="557" r="4"/><circle cx="608" cy="515" r="5"/><circle cx="698" cy="559" r="4"/><circle cx="751" cy="530" r="6"/><circle cx="818" cy="529" r="5"/><circle cx="911" cy="505" r="4"/><circle cx="1017" cy="547" r="6"/><circle cx="1101" cy="513" r="4"/><circle cx="1179" cy="484" r="6"/><circle cx="1258" cy="499" r="6"/><circle cx="1308" cy="499" r="5"/><circle cx="1420" cy="556" r="5"/><circle cx="1504" cy="484" r="5"/><circle cx="1558" cy="549" r="5"/><circle cx="1640" cy="497" r="4"/><circle cx="1682" cy="522" r="5"/><circle cx="1838" cy="518" r="5"/><circle cx="1861" cy="484" r="4"/><circle cx="1928" cy="509" r="5"/><circle cx="2044" cy="544" r="4"/><circle cx="2099" cy="546" r="4"/><circle cx="2181" cy="546" r="4"/><circle cx="2296" cy="556" r="4"/><circle cx="2399" cy="518" r="5"/><circle cx="2429" cy="522" r="5"/><circle cx="2498" cy="491" r="6"/><circle cx="27" cy="596" r="5"/><circle cx="133" cy="607" r="4"/><circle cx="201" cy="565" r="5"/><circle cx="260" cy="602" r="5"/><circle cx="322" cy="604" r="4"/><circle cx="460" cy="562" r="5"/><circle cx="511" cy="629" r="6"/><circle cx="600" cy="609" r="5"/><circle cx="677" cy="625" r="5"/><circle cx="753" cy="595" r="6"/><circle cx="830" cy="572" r="6"/><circle cx="901" cy="623" r="6"/><circle cx="980" cy="622" r="5"/><circle cx="1056" cy="630" r="5"/><circle cx="1168" cy="611" r="4"/><circle cx="1277" cy="610" r="5"/><circle cx="1356" cy="574" r="6"/><circle cx="1400" cy="631" r="4"/><circle cx="1502" cy="573" r="5"/><circle cx="1575" cy="586" r="6"/><circle cx="1619" cy="578" r="5"/><circle cx="1734" cy="594" r="4"/><circle cx="1776" cy="560" r="5"/><circle cx="1857" cy="607" r="4"/><circle cx="1963" cy="588" r="4"/><circle cx="2011" cy="563" r="5"/><circle cx="2134" cy="595" r="5"/><circle cx="2227" cy="619" r="4"/><circle cx="2300" cy="576" r="5"/><circle cx="2361" cy="568" r="6"/><circle cx="2441" cy="637" r="5"/><circle cx="2506" cy="637" r="4"/><circle cx="44" cy="651" r="5"/><circle cx="150" cy="672" r="6"/><circle cx="175" cy="683" r="6"/><circle cx="242" cy="647" r="6"/><circle cx="362" cy="699" r="5"/><circle cx="451" cy="700" r="5"/><circle cx="481" cy="696" r="6"/><circle cx="595" cy="720" r="6"/><circle cx="652" cy="651" r="5"/><circle cx="748" cy="657" r="5"/><circle cx="849" cy="642" r="6"/><circle cx="889" cy="674" r="5"/><circle cx="1020" cy="697" r="5"/><circle cx="1096" cy="692" r="5"/><circle cx="1157" cy="656" r="5"/><circle cx="1226" cy="669" r="4"/><circle cx="1306" cy="701" r="5"/><circle cx="1432" cy="687" r="5"/><circle cx="1444" cy="650" r="6"/><circle cx="1532" cy="641" r="5"/><circle cx="1624" cy="704" r="6"/><circle cx="1725" cy="651" r="6"/><circle cx="1826" cy="665" r="5"/><circle cx="1868" cy="675" r="4"/><circle cx="1975" cy="658" r="5"/><circle cx="2053" cy="653" r="6"/><circle cx="2150" cy="696" r="6"/><circle cx="2202" cy="712" r="6"/><circle cx="2271" cy="679" r="5"/><circle cx="2335" cy="661" r="6"/><circle cx="2414" cy="688" r="4"/><circle cx="2536" cy="678" r="6"/><circle cx="31" cy="724" r="5"/><circle cx="86" cy="781" r="5"/><circle cx="194" cy="759" r="4"/><circle cx="245" cy="746" r="5"/><circle cx="377" cy="776" r="6"/><circle cx="442" cy="784" r="5"/><circle cx="537" cy="752" r="6"/><circle cx="636" cy="771" r="5"/><circle cx="672" cy="795" r="5"/><circle cx="773" cy="800" r="6"/><circle cx="836" cy="730" r="5"/><circle cx="943" cy="763" r="5"/><circle cx="1038" cy="793" r="5"/><circle cx="1051" cy="764" r="6"/><circle cx="1162" cy="752" r="5"/><circle cx="1257" cy="735" r="5"/><circle cx="1289" cy="739" r="4"/><circle cx="1386" cy="769" r="4"/><circle cx="1494" cy="782" r="4"/><circle cx="1550" cy="771" r="4"/><circle cx="1621" cy="732" r="4"/><circle cx="1733" cy="785" r="6"/><circle cx="1797" cy="745" r="4"/><circle cx="1883" cy="766" r="6"/><circle cx="1948" cy="748" r="5"/><circle cx="2025" cy="728" r="6"/><circle cx="2122" cy="723" r="4"/><circle cx="2166" cy="792" r="5"/><circle cx="2319" cy="720" r="5"/><circle cx="2335" cy="721" r="6"/><circle cx="2408" cy="752" r="4"/><circle cx="2518" cy="767" r="6"/><circle cx="31" cy="807" r="6"/><circle cx="148" cy="801" r="6"/><circle cx="193" cy="805" r="4"/><circle cx="263" cy="850" r="5"/><circle cx="348" cy="838" r="5"/><circle cx="459" cy="826" r="5"/><circle cx="484" cy="839" r="5"/><circle cx="634" cy="848" r="5"/><circle cx="687" cy="875" r="5"/><circle cx="793" cy="842" r="5"/><circle cx="800" cy="843" r="5"/><circle cx="902" cy="805" r="5"/><circle cx="1026" cy="834" r="4"/><circle cx="1091" cy="821" r="4"/><circle cx="1122" cy="857" r="5"/><circle cx="1222" cy="847" r="5"/><circle cx="1328" cy="822" r="5"/><circle cx="1362" cy="802" r="6"/><circle cx="1474" cy="835" r="6"/><circle cx="1595" cy="825" r="6"/><circle cx="1636" cy="865" r="5"/><circle cx="1759" cy="842" r="5"/><circle cx="1840" cy="876" r="4"/><circle cx="1919" cy="860" r="4"/><circle cx="1934" cy="845" r="6"/><circle cx="2027" cy="834" r="5"/><circle cx="2125" cy="878" r="5"/><circle cx="2200" cy="827" r="5"/><circle cx="2275" cy="845" r="5"/><circle cx="2338" cy="823" r="5"/><circle cx="2455" cy="802" r="6"/><circle cx="2483" cy="860" r="6"/><circle cx="67" cy="906" r="5"/><circle cx="88" cy="952" r="5"/><circle cx="202" cy="910" r="5"/><circle cx="313" cy="938" r="6"/><circle cx="391" cy="886" r="6"/><circle cx="455" cy="893" r="4"/><circle cx="518" cy="918" r="5"/><circle cx="597" cy="957" r="5"/><circle cx="676" cy="933" r="6"/><circle cx="739" cy="947" r="4"/><circle cx="829" cy="949" r="6"/><circle cx="882" cy="900" r="4"/><circle cx="1014" cy="934" r="6"/><circle cx="1057" cy="905" r="5"/><circle cx="1169" cy="928" r="5"/><circle cx="1209" cy="924" r="6"/><circle cx="1307" cy="892" r="5"/><circle cx="1389" cy="890" r="5"/><circle cx="1496" cy="919" r="4"/><circle cx="1573" cy="923" r="4"/><circle cx="1671" cy="927" r="4"/><circle cx="1714" cy="906" r="5"/><circle cx="1777" cy="898" r="6"/><circle cx="1869" cy="886" r="4"/><circle cx="1933" cy="919" r="5"/><circle cx="2007" cy="902" r="5"/><circle cx="2156" cy="939" r="5"/><circle cx="2166" cy="919" r="5"/><circle cx="2256" cy="947" r="5"/><circle cx="2321" cy="883" r="6"/><circle cx="2409" cy="930" r="5"/><circle cx="2519" cy="939" r="4"/><circle cx="5" cy="1037" r="4"/><circle cx="153" cy="1030" r="5"/><circle cx="165" cy="1015" r="5"/><circle cx="299" cy="1018" r="5"/><circle cx="352" cy="1033" r="6"/><circle cx="449" cy="967" r="5"/><circle cx="536" cy="997" r="6"/><circle cx="632" cy="988" r="5"/><circle cx="715" cy="1007" r="4"/><circle cx="731" cy="971" r="4"/><circle cx="822" cy="995" r="5"/><circle cx="894" cy="978" r="4"/><circle cx="1000" cy="967" r="6"/><circle cx="1043" cy="976" r="4"/><circle cx="1189" cy="982" r="5"/><circle cx="1245" cy="1015" r="5"/><circle cx="1316" cy="968" r="5"/><circle cx="1401" cy="971" r="5"/><circle cx="1450" cy="1003" r="6"/><circle cx="1533" cy="961" r="4"/><circle cx="1674" cy="1015" r="5"/><circle cx="1759" cy="979" r="5"/><circle cx="1780" cy="982" r="4"/><circle cx="1902" cy="1002" r="6"/><circle cx="1946" cy="1012" r="5"/><circle cx="2004" cy="1014" r="5"/><circle cx="2149" cy="1013" r="6"/><circle cx="2233" cy="995" r="4"/><circle cx="2250" cy="960" r="5"/><circle cx="2354" cy="984" r="6"/><circle cx="2474" cy="970" r="5"/><circle cx="2531" cy="1031" r="6"/><circle cx="25" cy="1093" r="5"/><circle cx="93" cy="1093" r="4"/><circle cx="177" cy="1102" r="5"/><circle cx="296" cy="1054" r="6"/><circle cx="347" cy="1107" r="5"/><circle cx="421" cy="1106" r="4"/><circle cx="546" cy="1054" r="6"/><circle cx="609" cy="1047" r="5"/><circle cx="706" cy="1069" r="6"/><circle cx="781" cy="1078" r="5"/><circle cx="823" cy="1076" r="6"/><circle cx="880" cy="1079" r="5"/><circle cx="1022" cy="1097" r="5"/><circle cx="1117" cy="1080" r="5"/><circle cx="1180" cy="1105" r="5"/><circle cx="1275" cy="1089" r="5"/><circle cx="1313" cy="1111" r="5"/><circle cx="1381" cy="1069" r="6"/><circle cx="1493" cy="1050" r="5"/><circle cx="1523" cy="1061" r="6"/><circle cx="1652" cy="1081" r="5"/><circle cx="1735" cy="1056" r="6"/><circle cx="1833" cy="1112" r="6"/><circle cx="1897" cy="1088" r="5"/><circle cx="1999" cy="1062" r="5"/><circle cx="2006" cy="1057" r="4"/><circle cx="2132" cy="1045" r="5"/><circle cx="2239" cy="1090" r="6"/><circle cx="2250" cy="1105" r="6"/><circle cx="2336" cy="1093" r="5"/><circle cx="2421" cy="1050" r="5"/><circle cx="2502" cy="1079" r="5"/><circle cx="59" cy="1157" r="5"/><circle cx="97" cy="1187" r="6"/><circle cx="167" cy="1134" r="5"/><circle cx="263" cy="1128" r="5"/><circle cx="391" cy="1143" r="5"/><circle cx="442" cy="1167" r="5"/><circle cx="553" cy="1136" r="6"/><circle cx="570" cy="1145" r="4"/><circle cx="668" cy="1183" r="5"/><circle cx="775" cy="1158" r="6"/><circle cx="854" cy="1127" r="5"/><circle cx="933" cy="1132" r="5"/><circle cx="966" cy="1142" r="4"/><circle cx="1076" cy="1194" r="5"/><circle cx="1182" cy="1194" r="5"/><circle cx="1234" cy="1147" r="5"/><circle cx="1305" cy="1157" r="5"/><circle cx="1409" cy="1155" r="4"/><circle cx="1506" cy="1148" r="4"/><circle cx="1550" cy="1191" r="4"/><circle cx="1655" cy="1169" r="6"/><circle cx="1680" cy="1147" r="5"/><circle cx="1818" cy="1186" r="5"/><circle cx="1860" cy="1173" r="6"/><circle cx="1971" cy="1142" r="5"/><circle cx="2015" cy="1182" r="6"/><circle cx="2154" cy="1154" r="5"/><circle cx="2230" cy="1186" r="5"/><circle cx="2259" cy="1123" r="5"/><circle cx="2335" cy="1159" r="6"/><circle cx="2461" cy="1147" r="4"/><circle cx="2557" cy="1130" r="4"/><circle cx="-3" cy="1130" r="4"/><circle cx="45" cy="1225" r="6"/><circle cx="103" cy="1261" r="4"/><circle cx="210" cy="1235" r="4"/><circle cx="245" cy="1255" r="5"/><circle cx="388" cy="1265" r="5"/><circle cx="440" cy="1226" r="4"/><circle cx="548" cy="1230" r="4"/><circle cx="636" cy="1251" r="5"/><circle cx="695" cy="1223" r="5"/><circle cx="734" cy="1230" r="5"/><circle cx="851" cy="1263" r="5"/><circle cx="880" cy="1247" r="5"/><circle cx="1002" cy="1211" r="4"/><circle cx="1069" cy="1271" r="4"/><circle cx="1180" cy="1251" r="6"/><circle cx="1260" cy="1253" r="6"/><circle cx="1286" cy="1201" r="6"/><circle cx="1436" cy="1275" r="5"/><circle cx="1465" cy="1271" r="4"/><circle cx="1582" cy="1241" r="5"/><circle cx="1638" cy="1247" r="6"/><circle cx="1682" cy="1276" r="4"/><circle cx="1794" cy="1249" r="5"/><circle cx="1917" cy="1223" r="4"/><circle cx="1958" cy="1216" r="5"/><circle cx="2068" cy="1218" r="5"/><circle cx="2132" cy="1278" r="5"/><circle cx="2196" cy="1241" r="4"/><circle cx="2253" cy="1221" r="5"/><circle cx="2322" cy="1272" r="6"/><circle cx="2470" cy="1255" r="5"/><circle cx="2517" cy="1273" r="5"/><circle cx="16" cy="1284" r="5"/><circle cx="140" cy="1290" r="5"/><circle cx="214" cy="1349" r="5"/><circle cx="255" cy="1306" r="4"/><circle cx="352" cy="1284" r="6"/><circle cx="441" cy="1285" r="6"/><circle cx="503" cy="1360" r="6"/><circle cx="562" cy="1345" r="5"/><circle cx="710" cy="1307" r="6"/><circle cx="723" cy="1299" r="5"/><circle cx="878" cy="1301" r="6"/><circle cx="947" cy="1327" r="5"/><circle cx="1036" cy="1323" r="5"/><circle cx="1114" cy="1300" r="5"/><circle cx="1143" cy="1319" r="5"/><circle cx="1277" cy="1288" r="4"/><circle cx="1335" cy="1298" r="5"/><circle cx="1364" cy="1329" r="4"/><circle cx="1475" cy="1343" r="5"/><circle cx="1598" cy="1354" r="6"/><circle cx="1661" cy="1297" r="6"/><circle cx="1731" cy="1299" r="5"/><circle cx="1788" cy="1340" r="5"/><circle cx="1863" cy="1300" r="5"/><circle cx="1981" cy="1346" r="6"/><circle cx="2024" cy="1325" r="6"/><circle cx="2152" cy="1332" r="6"/><circle cx="2239" cy="1341" r="5"/><circle cx="2309" cy="1298" r="5"/><circle cx="2387" cy="1354" r="6"/><circle cx="2470" cy="1358" r="4"/><circle cx="2526" cy="1328" r="6"/><circle cx="50" cy="1393" r="4"/><circle cx="122" cy="1385" r="5"/><circle cx="166" cy="1399" r="6"/><circle cx="273" cy="1365" r="6"/><circle cx="321" cy="1371" r="4"/><circle cx="430" cy="1366" r="5"/><circle cx="526" cy="1393" r="5"/><circle cx="591" cy="1362" r="6"/><circle cx="640" cy="1387" r="4"/><circle cx="777" cy="1378" r="4"/><circle cx="840" cy="1402" r="5"/><circle cx="946" cy="1391" r="5"/><circle cx="964" cy="1376" r="5"/><circle cx="1112" cy="1368" r="5"/><circle cx="1182" cy="1380" r="5"/><circle cx="1220" cy="1409" r="5"/><circle cx="1291" cy="1434" r="5"/><circle cx="1398" cy="1373" r="5"/><circle cx="1471" cy="1389" r="5"/><circle cx="1537" cy="1385" r="5"/><circle cx="1668" cy="1406" r="4"/><circle cx="1756" cy="1368" r="6"/><circle cx="1813" cy="1402" r="6"/><circle cx="1867" cy="1416" r="5"/><circle cx="1981" cy="1367" r="4"/><circle cx="2029" cy="1376" r="4"/><circle cx="2143" cy="1394" r="5"/><circle cx="2195" cy="1422" r="6"/><circle cx="2255" cy="1426" r="5"/><circle cx="2342" cy="1437" r="6"/><circle cx="2342" cy="-3" r="6"/><circle cx="2440" cy="1394" r="6"/><circle cx="2559" cy="1382" r="4"/><circle cx="-1" cy="1382" r="4"/><path stroke="#fff" d="M42 72L102 78M42 72L-49 36M42 72L24 115M42 72L-36 109M2602 72L2511 36M2602 72L2524 109M102 78L191 63M102 78L24 115M102 78L136 126M102 78L161 128M191 63L294 73M191 63L136 126M191 63L161 128M191 63L246 115M294 73L334 79M294 73L246 115M294 73L390 85M334 79L246 115M334 79L390 85M334 79L443 134M446 20L486 14M446 20L390 85M446 20L430 -74M446 1460L430 1366M486 14L483 123M486 14L430 -74M486 14L526 -47M486 1454L430 1366M486 1454L526 1393M625 48L717 66M625 48L633 114M625 48L640 -53M625 1488L640 1387M717 66L730 75M717 66L633 114M717 66L717 128M717 66L752 143M730 75L809 36M730 75L633 114M730 75L717 128M730 75L752 143M809 36L874 110M809 36L777 -62M809 36L840 -38M809 1476L777 1378M809 1476L840 1402M923 2L1002 50M923 2L840 -38M923 2L946 -49M923 2L964 -64M923 1442L840 1402M923 1442L946 1391M923 1442L964 1376M1002 50L1052 2M1002 50L953 132M1052 2L1159 17M1052 2L964 -64M1052 2L1112 -72M1052 1442L964 1376M1052 1442L1112 1368M1159 17L1216 53M1159 17L1160 92M1159 17L1182 -60M1159 17L1220 -31M1159 1457L1182 1380M1159 1457L1220 1409M1216 53L1285 70M1216 53L1160 92M1216 53L1239 138M1216 53L1220 -31M1216 1493L1220 1409M1285 70L1239 138M1285 70L1312 148M1285 70L1220 -31M1285 70L1291 -6M1285 1510L1220 1409M1285 1510L1291 1434M1428 22L1514 58M1428 22L1411 127M1428 22L1489 98M1428 22L1398 -67M1428 22L1471 -51M1428 1462L1398 1373M1428 1462L1471 1389M1514 58L1544 7M1514 58L1489 98M1514 58L1521 101M1514 58L1609 81M1544 7L1598 -86M1544 7L1471 -51M1544 7L1537 -55M1544 1447L1598 1354M1544 1447L1471 1389M1544 1447L1537 1385M1646 24L1712 61M1646 24L1609 81M1646 24L1537 -55M1646 24L1668 -34M1646 1464L1537 1385M1646 1464L1668 1406M1712 61L1781 22M1712 61L1609 81M1712 61L1754 91M1712 61L1798 82M1781 22L1872 16M1781 22L1754 91M1781 22L1798 82M1781 22L1813 -38M1781 1462L1813 1402M1872 16L1921 49M1872 16L1798 82M1872 16L1813 -38M1872 16L1867 -24M1872 1456L1813 1402M1872 1456L1867 1416M1921 49L2028 24M1921 49L1918 141M1921 49L1947 105M1921 49L1867 -24M1921 1489L1867 1416M2028 24L2121 20M2028 24L1947 105M2028 24L1981 -94M2028 24L2029 -64M2028 1464L1981 1346M2028 1464L2029 1376M2121 20L2171 78M2121 20L2122 122M2121 20L2143 -46M2121 20L2195 -18M2121 1460L2143 1394M2121 1460L2195 1422M2171 78L2122 122M2171 78L2214 100M2171 78L2255 95M2264 59L2354 16M2264 59L2214 100M2264 59L2255 95M2264 59L2255 -14M2264 59L2342 -3M2264 1499L2255 1426M2264 1499L2342 1437M2354 16L2431 70M2354 16L2342 -3M2354 16L2440 -46M2354 1456L2342 1437M2354 1456L2440 1394M2431 70L2511 36M2431 70L2362 147M2431 70L2455 155M2511 36L2524 109M2511 36L2440 -46M2511 1476L2440 1394M24 115L-36 109M24 115L52 220M24 115L-74 165M2584 115L2524 109M2584 115L2486 165M136 126L161 128M136 126L96 196M136 126L187 218M161 128L246 115M161 128L187 218M390 85L443 134M390 85L483 123M443 134L483 123M443 134L402 193M443 134L493 206M483 123L493 206M633 114L717 128M717 128L752 143M717 128L723 191M752 143L699 225M752 143L723 191M874 110L953 132M874 110L889 203M953 132L993 158M953 132L889 203M993 158L1063 149M993 158L995 240M993 158L1058 180M1063 149L1160 92M1063 149L1058 180M1239 138L1312 148M1239 138L1213 191M1239 138L1281 212M1312 148L1411 127M1312 148L1281 212M1312 148L1370 187M1411 127L1489 98M1411 127L1370 187M1411 127L1470 187M1489 98L1521 101M1489 98L1470 187M1521 101L1609 81M1521 101L1470 187M1521 101L1576 200M1754 91L1798 82M1754 91L1754 172M1798 82L1754 172M1918 141L1947 105M1918 141L1875 163M1918 141L1939 165M1947 105L1875 163M1947 105L1939 165M2069 139L2122 122M2069 139L2030 227M2069 139L2158 210M2069 139L2016 241M2122 122L2214 100M2122 122L2158 210M2214 100L2255 95M2362 147L2455 155M2362 147L2274 198M2362 147L2345 164M2362 147L2433 216M2455 155L2524 109M2455 155L2433 216M2455 155L2486 165M2524 109L2486 165M52 220L96 196M52 220L72 286M52 220L95 309M96 196L187 218M96 196L72 286M187 218L221 262M299 231L368 239M299 231L221 262M299 231L306 308M299 231L281 326M368 239L402 193M368 239L306 308M368 239L383 288M368 239L401 251M402 193L493 206M402 193L383 288M402 193L401 251M493 206L520 259M493 206L560 255M638 222L699 225M638 222L723 191M638 222L560 255M699 225L723 191M699 225L705 319M699 225L767 271M723 191L767 271M854 236L889 203M854 236L808 289M854 236L905 285M854 236L836 322M889 203L995 240M889 203L905 285M995 240L1058 180M995 240L991 271M1058 180L1130 220M1058 180L991 271M1130 220L1213 191M1130 220L1105 304M1130 220L1171 294M1130 220L1203 250M1213 191L1281 212M1213 191L1171 294M1213 191L1203 250M1281 212L1370 187M1281 212L1322 295M1370 187L1470 187M1370 187L1444 243M1470 187L1444 243M1576 200L1628 235M1628 235L1564 304M1628 235L1652 289M1754 172L1820 233M1754 172L1792 265M1820 233L1875 163M1820 233L1725 276M1820 233L1792 265M1820 233L1841 301M1875 163L1939 165M1939 165L2030 227M1939 165L2016 241M2030 227L1939 299M2030 227L2016 241M2030 227L2096 288M2158 210L2183 231M2158 210L2096 288M2158 210L2184 255M2183 231L2184 255M2274 198L2345 164M2274 198L2280 292M2274 198L2348 273M2433 216L2486 165M2433 216L2348 273M2433 216L2412 281M72 286L95 309M72 286L27 369M72 286L155 323M95 309L27 369M95 309L155 323M95 309L172 342M221 262L172 342M221 262L281 326M306 308L383 288M306 308L281 326M306 308L367 333M383 288L401 251M383 288L367 333M401 251L520 259M401 251L367 333M520 259L560 255M520 259L491 388M560 255L638 347M705 319L767 271M705 319L638 347M705 319L712 342M705 319L747 365M767 271L808 289M808 289L747 365M808 289L836 322M905 285L991 271M905 285L836 322M905 285L896 358M991 271L1027 349M991 271L1058 337M1105 304L1171 294M1105 304L1027 349M1105 304L1058 337M1105 304L1169 332M1171 294L1203 250M1171 294L1169 332M1203 250L1169 332M1322 295L1410 307M1322 295L1278 360M1322 295L1336 325M1322 295L1411 326M1410 307L1444 243M1410 307L1336 325M1410 307L1411 326M1444 243L1411 326M1564 304L1652 289M1564 304L1497 381M1564 304L1575 331M1564 304L1623 368M1652 289L1725 276M1652 289L1623 368M1652 289L1717 339M1725 276L1792 265M1725 276L1717 339M1725 276L1774 330M1792 265L1841 301M1792 265L1774 330M1841 301L1939 299M1841 301L1774 330M1841 301L1918 333M1939 299L2016 241M1939 299L1918 333M1939 299L1976 357M2016 241L2096 288M2096 288L2184 255M2096 288L2150 363M2184 255L2280 292M2184 255L2229 338M2280 292L2348 273M2280 292L2229 338M2280 292L2341 324M2348 273L2412 281M2348 273L2341 324M2412 281L2496 320M2412 281L2341 324M2412 281L2476 328M2496 320L2476 328M2496 320L2532 333M27 369L-28 333M27 369L100 416M27 369L-8 417M2587 369L2532 333M2587 369L2552 417M155 323L172 342M172 342L100 416M172 342L253 419M281 326L367 333M281 326L253 419M367 333L415 377M415 377L491 388M415 377L393 430M415 377L465 417M415 377L524 429M491 388L393 430M491 388L465 417M491 388L524 429M638 347L712 342M712 342L747 365M747 365L758 435M836 322L896 358M836 322L849 410M896 358L849 410M896 358L929 440M1027 349L1058 337M1027 349L1035 467M1027 349L1068 405M1058 337L1068 405M1169 332L1161 410M1278 360L1336 325M1336 325L1411 326M1411 326L1497 381M1497 381L1575 331M1497 381L1519 461M1497 381L1573 415M1575 331L1623 368M1575 331L1573 415M1623 368L1573 415M1623 368L1614 437M1717 339L1774 330M1717 339L1791 400M1774 330L1791 400M1918 333L1976 357M1918 333L2014 397M1918 333L1939 430M1976 357L2014 397M1976 357L1939 430M1976 357L2034 403M2014 397L1939 430M2014 397L2034 403M2014 397L2086 447M2150 363L2229 338M2150 363L2086 447M2150 363L2236 432M2229 338L2297 399M2229 338L2236 432M2297 399L2341 324M2297 399L2236 432M2297 399L2266 448M2297 399L2356 412M2341 324L2356 412M2476 328L2532 333M2476 328L2463 429M2532 333L2552 417M51 478L100 416M51 478L-8 417M51 478L51 544M51 478L137 483M51 478L-62 491M2611 478L2552 417M2611 478L2498 491M100 416L137 483M235 462L253 419M235 462L137 483M235 462L165 507M235 462L282 504M253 419L282 504M393 430L465 417M393 430L396 501M393 430L416 491M465 417L524 429M465 417L416 491M524 429L636 471M636 471L686 470M636 471L608 515M686 470L758 435M686 470L608 515M686 470L698 559M686 470L751 530M758 435L849 410M849 410L929 440M929 440L1035 467M929 440L911 505M1035 467L1068 405M1035 467L1017 547M1035 467L1101 513M1068 405L1161 410M1068 405L1101 513M1161 410L1208 437M1161 410L1179 484M1208 437L1299 465M1208 437L1179 484M1208 437L1258 499M1299 465L1406 468M1299 465L1258 499M1299 465L1308 499M1406 468L1308 499M1406 468L1420 556M1406 468L1504 484M1519 461L1573 415M1519 461L1614 437M1519 461L1504 484M1573 415L1614 437M1614 437L1713 469M1614 437L1640 497M1713 469L1791 400M1713 469L1640 497M1713 469L1682 522M1713 469L1776 560M1791 400L1890 457M1791 400L1861 484M1890 457L1939 430M1890 457L1838 518M1890 457L1861 484M1890 457L1928 509M1939 430L1928 509M2034 403L2086 447M2086 447L2099 546M2236 432L2266 448M2266 448L2356 412M2356 412L2463 429M2356 412L2399 518M2463 429L2552 417M2463 429L2429 522M2463 429L2498 491M2552 417L2498 491M51 544L27 596M51 544L133 607M51 544L44 651M137 483L165 507M165 507L201 565M282 504L396 501M282 504L201 565M282 504L260 602M396 501L416 491M396 501L322 604M396 501L460 562M416 491L460 562M545 557L608 515M545 557L460 562M545 557L511 629M545 557L600 609M608 515L698 559M608 515L600 609M698 559L751 530M698 559L677 625M698 559L753 595M751 530L818 529M751 530L753 595M751 530L830 572M818 529L911 505M818 529L830 572M911 505L1017 547M1017 547L1101 513M1017 547L980 622M1017 547L1056 630M1101 513L1179 484M1179 484L1258 499M1258 499L1308 499M1258 499L1277 610M1308 499L1277 610M1308 499L1356 574M1420 556L1356 574M1420 556L1400 631M1420 556L1502 573M1420 556L1444 650M1504 484L1558 549M1558 549L1502 573M1558 549L1575 586M1558 549L1619 578M1558 549L1532 641M1640 497L1682 522M1640 497L1575 586M1640 497L1619 578M1682 522L1619 578M1682 522L1734 594M1838 518L1861 484M1838 518L1928 509M1838 518L1776 560M1838 518L1857 607M1861 484L1928 509M1928 509L1963 588M2044 544L2099 546M2044 544L1963 588M2044 544L2011 563M2099 546L2181 546M2099 546L2011 563M2099 546L2134 595M2181 546L2134 595M2181 546L2227 619M2296 556L2300 576M2296 556L2361 568M2399 518L2429 522M2399 518L2498 491M2399 518L2361 568M2429 522L2498 491M2429 522L2361 568M2429 522L2441 637M27 596L-54 637M27 596L44 651M27 596L-24 678M2587 596L2506 637M2587 596L2536 678M133 607L201 565M133 607L150 672M133 607L175 683M201 565L260 602M201 565L242 647M260 602L322 604M260 602L242 647M322 604L242 647M322 604L362 699M460 562L511 629M511 629L600 609M511 629L451 700M511 629L481 696M600 609L677 625M600 609L652 651M677 625L753 595M677 625L652 651M677 625L748 657M753 595L830 572M753 595L748 657M830 572L901 623M830 572L849 642M901 623L980 622M901 623L849 642M901 623L889 674M980 622L1056 630M980 622L889 674M980 622L1020 697M1056 630L1020 697M1056 630L1096 692M1056 630L1157 656M1168 611L1157 656M1168 611L1226 669M1277 610L1356 574M1277 610L1226 669M1277 610L1306 701M1356 574L1400 631M1400 631L1432 687M1400 631L1444 650M1502 573L1575 586M1502 573L1444 650M1502 573L1532 641M1575 586L1619 578M1575 586L1532 641M1734 594L1776 560M1734 594L1725 651M1776 560L1857 607M1776 560L1725 651M1857 607L1826 665M1857 607L1868 675M1963 588L2011 563M1963 588L1975 658M2011 563L1975 658M2011 563L2053 653M2134 595L2227 619M2134 595L2053 653M2134 595L2150 696M2227 619L2300 576M2227 619L2202 712M2227 619L2271 679M2300 576L2361 568M2300 576L2335 661M2441 637L2506 637M2441 637L2414 688M2506 637L2536 678M44 651L150 672M44 651L-24 678M44 651L31 724M2604 651L2536 678M150 672L175 683M150 672L242 647M150 672L194 759M175 683L242 647M175 683L194 759M175 683L245 746M362 699L451 700M362 699L377 776M451 700L481 696M451 700L442 784M451 700L537 752M481 696L595 720M481 696L442 784M481 696L537 752M595 720L652 651M595 720L537 752M595 720L636 771M595 720L672 795M652 651L748 657M748 657L849 642M849 642L889 674M849 642L836 730M889 674L836 730M889 674L943 763M1020 697L1096 692M1020 697L1038 793M1020 697L1051 764M1096 692L1157 656M1096 692L1051 764M1096 692L1162 752M1157 656L1226 669M1157 656L1162 752M1226 669L1306 701M1226 669L1257 735M1306 701L1257 735M1306 701L1289 739M1432 687L1444 650M1432 687L1386 769M1432 687L1494 782M1444 650L1532 641M1532 641L1624 704M1624 704L1725 651M1624 704L1550 771M1624 704L1621 732M1725 651L1826 665M1826 665L1868 675M1826 665L1797 745M1868 675L1883 766M1868 675L1948 748M1975 658L2053 653M1975 658L1948 748M1975 658L2025 728M2053 653L2150 696M2053 653L2025 728M2150 696L2202 712M2150 696L2122 723M2150 696L2166 792M2202 712L2271 679M2202 712L2122 723M2202 712L2166 792M2271 679L2335 661M2271 679L2319 720M2271 679L2335 721M2335 661L2414 688M2335 661L2319 720M2335 661L2335 721M2414 688L2335 721M2414 688L2408 752M2536 678L2591 724M2536 678L2518 767M-24 678L31 724M31 724L86 781M31 724L-42 767M31 724L31 807M2591 724L2518 767M86 781L31 807M86 781L148 801M194 759L245 746M194 759L148 801M194 759L193 805M245 746L148 801M245 746L193 805M245 746L263 850M377 776L442 784M377 776L348 838M377 776L459 826M442 784L459 826M442 784L484 839M537 752L636 771M537 752L484 839M636 771L672 795M636 771L634 848M672 795L773 800M672 795L634 848M672 795L687 875M773 800L836 730M773 800L687 875M773 800L793 842M773 800L800 843M836 730L943 763M836 730L902 805M943 763L1038 793M943 763L902 805M1038 793L1051 764M1038 793L1026 834M1038 793L1091 821M1051 764L1026 834M1051 764L1091 821M1162 752L1257 735M1257 735L1289 739M1289 739L1386 769M1289 739L1328 822M1289 739L1362 802M1386 769L1328 822M1386 769L1362 802M1494 782L1550 771M1494 782L1474 835M1550 771L1621 732M1550 771L1474 835M1550 771L1595 825M1621 732L1595 825M1733 785L1797 745M1733 785L1636 865M1733 785L1759 842M1797 745L1883 766M1797 745L1759 842M1883 766L1948 748M1883 766L1919 860M1883 766L1934 845M1948 748L2025 728M2025 728L2122 723M2025 728L2027 834M2122 723L2166 792M2166 792L2125 878M2166 792L2200 827M2319 720L2335 721M2319 720L2408 752M2319 720L2338 823M2335 721L2408 752M2408 752L2338 823M2408 752L2455 802M2518 767L2591 807M2518 767L2455 802M2518 767L2483 860M-42 767L31 807M31 807L148 801M31 807L67 906M148 801L193 805M193 805L263 850M193 805L202 910M263 850L348 838M263 850L202 910M263 850L313 938M348 838L313 938M348 838L391 886M459 826L484 839M459 826L391 886M459 826L455 893M484 839L455 893M484 839L518 918M634 848L687 875M687 875L676 933M687 875L739 947M793 842L800 843M793 842L902 805M793 842L882 900M800 843L902 805M800 843L829 949M800 843L882 900M902 805L882 900M1026 834L1091 821M1026 834L1014 934M1026 834L1057 905M1091 821L1122 857M1122 857L1222 847M1122 857L1057 905M1122 857L1169 928M1222 847L1169 928M1222 847L1209 924M1328 822L1362 802M1328 822L1307 892M1328 822L1389 890M1362 802L1307 892M1362 802L1389 890M1474 835L1595 825M1474 835L1389 890M1474 835L1496 919M1595 825L1636 865M1595 825L1573 923M1636 865L1573 923M1636 865L1671 927M1636 865L1714 906M1759 842L1840 876M1759 842L1714 906M1759 842L1777 898M1840 876L1919 860M1840 876L1777 898M1840 876L1869 886M1919 860L1934 845M1919 860L1869 886M1919 860L1933 919M1934 845L2027 834M1934 845L1869 886M1934 845L1933 919M2027 834L2125 878M2027 834L2007 902M2125 878L2200 827M2125 878L2156 939M2125 878L2166 919M2200 827L2275 845M2200 827L2166 919M2275 845L2338 823M2275 845L2256 947M2275 845L2321 883M2338 823L2455 802M2338 823L2321 883M2455 802L2483 860M2483 860L2409 930M2483 860L2519 939M2483 860L2474 970M67 906L88 952M67 906L-41 939M2627 906L2519 939M88 952L202 910M88 952L153 1030M88 952L165 1015M202 910L165 1015M313 938L391 886M313 938L299 1018M313 938L352 1033M391 886L455 893M391 886L449 967M455 893L518 918M455 893L449 967M518 918L597 957M518 918L449 967M518 918L536 997M597 957L676 933M597 957L536 997M597 957L632 988M597 957L609 1047M676 933L739 947M676 933L632 988M676 933L731 971M739 947L829 949M739 947L715 1007M739 947L731 971M829 949L882 900M829 949L822 995M829 949L894 978M882 900L894 978M1014 934L1057 905M1014 934L1000 967M1014 934L1043 976M1057 905L1000 967M1057 905L1043 976M1169 928L1209 924M1169 928L1189 982M1209 924L1307 892M1209 924L1189 982M1209 924L1245 1015M1307 892L1389 890M1307 892L1316 968M1389 890L1401 971M1496 919L1573 923M1496 919L1401 971M1496 919L1533 961M1573 923L1533 961M1671 927L1714 906M1671 927L1674 1015M1714 906L1777 898M1714 906L1759 979M1777 898L1759 979M1777 898L1780 982M1869 886L1933 919M1933 919L2007 902M1933 919L1902 1002M2007 902L2004 1014M2156 939L2166 919M2156 939L2149 1013M2156 939L2233 995M2156 939L2250 960M2166 919L2149 1013M2166 919L2250 960M2256 947L2321 883M2256 947L2233 995M2256 947L2250 960M2256 947L2354 984M2321 883L2409 930M2321 883L2354 984M2409 930L2354 984M2409 930L2474 970M2519 939L2474 970M2519 939L2531 1031M5 1037L-29 1031M5 1037L25 1093M5 1037L-58 1079M5 1037L-3 1130M2565 1037L2531 1031M2565 1037L2502 1079M2565 1037L2557 1130M153 1030L165 1015M153 1030L93 1093M153 1030L177 1102M153 1030L167 1134M165 1015L177 1102M299 1018L352 1033M299 1018L296 1054M299 1018L263 1128M352 1033L296 1054M352 1033L347 1107M352 1033L421 1106M449 967L536 997M536 997L546 1054M536 997L609 1047M632 988L715 1007M632 988L546 1054M632 988L609 1047M715 1007L731 971M715 1007L706 1069M822 995L894 978M822 995L781 1078M822 995L823 1076M822 995L880 1079M894 978L1000 967M1000 967L1043 976M1000 967L1022 1097M1189 982L1245 1015M1189 982L1117 1080M1245 1015L1316 968M1245 1015L1180 1105M1245 1015L1275 1089M1316 968L1401 971M1401 971L1450 1003M1401 971L1381 1069M1450 1003L1533 961M1450 1003L1381 1069M1450 1003L1493 1050M1450 1003L1523 1061M1533 961L1493 1050M1533 961L1523 1061M1674 1015L1759 979M1674 1015L1780 982M1674 1015L1652 1081M1674 1015L1735 1056M1759 979L1780 982M1759 979L1735 1056M1780 982L1735 1056M1902 1002L1946 1012M1902 1002L2004 1014M1902 1002L1897 1088M1902 1002L1999 1062M1946 1012L2004 1014M1946 1012L1897 1088M1946 1012L1999 1062M1946 1012L2006 1057M2004 1014L1999 1062M2004 1014L2006 1057M2149 1013L2233 995M2149 1013L2132 1045M2233 995L2250 960M2250 960L2354 984M2354 984L2421 1050M2474 970L2531 1031M2474 970L2421 1050M2531 1031L2585 1093M2531 1031L2502 1079M-29 1031L25 1093M25 1093L93 1093M25 1093L59 1157M25 1093L-3 1130M2585 1093L2557 1130M93 1093L177 1102M93 1093L59 1157M93 1093L167 1134M177 1102L167 1134M177 1102L263 1128M296 1054L347 1107M296 1054L263 1128M296 1054L391 1143M347 1107L421 1106M347 1107L263 1128M347 1107L391 1143M421 1106L391 1143M421 1106L442 1167M546 1054L609 1047M546 1054L553 1136M546 1054L570 1145M609 1047L706 1069M706 1069L781 1078M781 1078L823 1076M781 1078L775 1158M781 1078L854 1127M823 1076L880 1079M823 1076L775 1158M823 1076L854 1127M880 1079L854 1127M880 1079L933 1132M880 1079L966 1142M1022 1097L1117 1080M1022 1097L933 1132M1022 1097L966 1142M1022 1097L1076 1194M1117 1080L1180 1105M1180 1105L1275 1089M1180 1105L1182 1194M1180 1105L1234 1147M1275 1089L1313 1111M1275 1089L1234 1147M1275 1089L1305 1157M1313 1111L1381 1069M1313 1111L1305 1157M1313 1111L1286 1201M1381 1069L1409 1155M1493 1050L1523 1061M1493 1050L1506 1148M1523 1061L1652 1081M1523 1061L1506 1148M1652 1081L1735 1056M1652 1081L1655 1169M1652 1081L1680 1147M1735 1056L1833 1112M1833 1112L1897 1088M1833 1112L1818 1186M1833 1112L1860 1173M1897 1088L1860 1173M1897 1088L1971 1142M1999 1062L2006 1057M1999 1062L1971 1142M2006 1057L1971 1142M2132 1045L2154 1154M2239 1090L2250 1105M2239 1090L2336 1093M2239 1090L2154 1154M2239 1090L2259 1123M2250 1105L2336 1093M2250 1105L2230 1186M2250 1105L2259 1123M2250 1105L2335 1159M2336 1093L2421 1050M2336 1093L2259 1123M2336 1093L2335 1159M2421 1050L2502 1079M2421 1050L2461 1147M2502 1079L2461 1147M2502 1079L2557 1130M59 1157L97 1187M59 1157L-3 1130M59 1157L45 1225M2619 1157L2557 1130M97 1187L167 1134M97 1187L45 1225M97 1187L103 1261M167 1134L263 1128M391 1143L442 1167M391 1143L440 1226M442 1167L553 1136M442 1167L440 1226M553 1136L570 1145M553 1136L548 1230M570 1145L668 1183M570 1145L548 1230M668 1183L636 1251M668 1183L695 1223M668 1183L734 1230M775 1158L854 1127M775 1158L734 1230M854 1127L933 1132M933 1132L966 1142M933 1132L1002 1211M966 1142L1002 1211M1076 1194L1002 1211M1076 1194L1069 1271M1182 1194L1234 1147M1182 1194L1180 1251M1182 1194L1260 1253M1234 1147L1305 1157M1234 1147L1286 1201M1305 1157L1286 1201M1409 1155L1506 1148M1506 1148L1550 1191M1550 1191L1582 1241M1655 1169L1680 1147M1655 1169L1582 1241M1655 1169L1638 1247M1655 1169L1682 1276M1818 1186L1860 1173M1818 1186L1794 1249M1818 1186L1917 1223M1860 1173L1917 1223M1860 1173L1958 1216M1971 1142L2015 1182M1971 1142L1958 1216M2015 1182L1917 1223M2015 1182L1958 1216M2015 1182L2068 1218M2154 1154L2230 1186M2154 1154L2068 1218M2154 1154L2196 1241M2230 1186L2259 1123M2230 1186L2196 1241M2230 1186L2253 1221M2259 1123L2335 1159M2335 1159L2253 1221M2335 1159L2322 1272M2461 1147L2470 1255M45 1225L103 1261M45 1225L-43 1273M45 1225L16 1284M2605 1225L2517 1273M103 1261L210 1235M103 1261L16 1284M103 1261L140 1290M210 1235L245 1255M210 1235L140 1290M210 1235L255 1306M245 1255L214 1349M245 1255L255 1306M388 1265L440 1226M388 1265L352 1284M388 1265L441 1285M440 1226L441 1285M548 1230L636 1251M548 1230L562 1345M636 1251L695 1223M636 1251L710 1307M636 1251L723 1299M695 1223L734 1230M695 1223L710 1307M695 1223L723 1299M734 1230L710 1307M734 1230L723 1299M851 1263L880 1247M851 1263L878 1301M880 1247L878 1301M880 1247L947 1327M1002 1211L1069 1271M1069 1271L1036 1323M1069 1271L1114 1300M1069 1271L1143 1319M1180 1251L1260 1253M1180 1251L1114 1300M1180 1251L1143 1319M1260 1253L1286 1201M1260 1253L1277 1288M1260 1253L1335 1298M1286 1201L1277 1288M1436 1275L1465 1271M1436 1275L1335 1298M1436 1275L1364 1329M1436 1275L1475 1343M1465 1271L1475 1343M1582 1241L1638 1247M1582 1241L1661 1297M1638 1247L1682 1276M1638 1247L1598 1354M1638 1247L1661 1297M1682 1276L1661 1297M1682 1276L1731 1299M1794 1249L1731 1299M1794 1249L1788 1340M1794 1249L1863 1300M1917 1223L1958 1216M1917 1223L1863 1300M1958 1216L2068 1218M2068 1218L2132 1278M2068 1218L2024 1325M2132 1278L2196 1241M2132 1278L2024 1325M2132 1278L2152 1332M2132 1278L2143 1394M2196 1241L2253 1221M2196 1241L2152 1332M2253 1221L2322 1272M2253 1221L2309 1298M2322 1272L2239 1341M2322 1272L2309 1298M2322 1272L2387 1354M2470 1255L2517 1273M2470 1255L2526 1328M2517 1273L2576 1284M2517 1273L2470 1358M2517 1273L2526 1328M-43 1273L16 1284M16 1284L-34 1328M16 1284L-1 1382M2576 1284L2526 1328M2576 1284L2559 1382M140 1290L214 1349M140 1290L122 1385M140 1290L166 1399M214 1349L255 1306M214 1349L166 1399M214 1349L273 1365M255 1306L352 1284M255 1306L273 1365M352 1284L441 1285M352 1284L273 1365M352 1284L321 1371M441 1285L503 1360M441 1285L430 1366M503 1360L562 1345M503 1360L430 1366M503 1360L526 1393M503 1360L591 1362M562 1345L526 1393M562 1345L591 1362M562 1345L640 1387M710 1307L723 1299M710 1307L777 1378M723 1299L777 1378M878 1301L947 1327M878 1301L840 1402M878 1301L946 1391M947 1327L1036 1323M947 1327L946 1391M947 1327L964 1376M1036 1323L1114 1300M1036 1323L964 1376M1036 1323L1112 1368M1114 1300L1143 1319M1114 1300L1112 1368M1143 1319L1112 1368M1143 1319L1182 1380M1277 1288L1335 1298M1277 1288L1364 1329M1335 1298L1364 1329M1335 1298L1398 1373M1364 1329L1398 1373M1475 1343L1398 1373M1475 1343L1471 1389M1475 1343L1537 1385M1598 1354L1661 1297M1598 1354L1537 1385M1598 1354L1668 1406M1661 1297L1731 1299M1731 1299L1788 1340M1731 1299L1756 1368M1788 1340L1863 1300M1788 1340L1756 1368M1788 1340L1813 1402M1863 1300L1867 1416M1981 1346L2024 1325M1981 1346L1981 1367M1981 1346L2029 1376M2024 1325L1981 1367M2024 1325L2029 1376M2152 1332L2239 1341M2152 1332L2143 1394M2152 1332L2195 1422M2239 1341L2309 1298M2239 1341L2195 1422M2239 1341L2255 1426M2309 1298L2387 1354M2387 1354L2470 1358M2387 1354L2342 1437M2387 1354L2440 1394M2470 1358L2526 1328M2470 1358L2440 1394M2470 1358L2559 1382M2526 1328L2559 1382M50 1393L122 1385M50 1393L166 1399M50 1393L-1 1382M2610 1393L2559 1382M122 1385L166 1399M166 1399L273 1365M273 1365L321 1371M430 1366L526 1393M526 1393L591 1362M591 1362L640 1387M777 1378L840 1402M840 1402L946 1391M946 1391L964 1376M1112 1368L1182 1380M1182 1380L1220 1409M1182 1380L1291 1434M1220 1409L1291 1434M1398 1373L1471 1389M1471 1389L1537 1385M1668 1406L1756 1368M1756 1368L1813 1402M1756 1368L1867 1416M1813 1402L1867 1416M1981 1367L2029 1376M2143 1394L2195 1422M2143 1394L2255 1426M2195 1422L2255 1426M2255 1426L2342 1437M2342 1437L2440 1394"/></svg>