<svg xmlns="http://www.w3.org/2000/svg" width="2560" height="1440" fill="#fff"><circle cx="36" cy="19" r="4"/><circle cx="82" cy="2" r="5"/><circle cx="82" cy="1442" r="5"/><circle cx="186" cy="63" r="4"/><circle cx="286" cy="20" r="5"/><circle cx="340" cy="12" r="4"/><circle cx="402" cy="26" r="5"/><circle cx="560" cy="57" r="4"/><circle cx="629" cy="45" r="6"/><circle cx="656" cy="74" r="4"/><circle cx="755" cy="68" r="5"/><circle cx="814" cy="44" r="4"/><circle cx="937" cy="14" r="6"/><circle cx="1021" cy="63" r="5"/><circle cx="1107" cy="1" r="4"/><circle cx="1107" cy="1441" r="4"/><circle cx="1162" cy="38" r="6"/><circle cx="1267" cy="16" r="5"/><circle cx="1347" cy="38" r="6"/><circle cx="1429" cy="63" r="5"/><circle cx="1482" cy="33" r="5"/><circle cx="1526" cy="50" r="4"/><circle cx="1674" cy="12" r="5"/><circle cx="1683" cy="31" r="6"/><circle cx="1840" cy="70" r="5"/><circle cx="1886" cy="1" r="6"/><circle cx="1886" cy="1441" r="6"/><circle cx="1945" cy="36" r="6"/><circle cx="2024" cy="8" r="6"/><circle cx="2086" cy="43" r="6"/><circle cx="2171" cy="18" r="4"/><circle cx="2315" cy="23" r="4"/><circle cx="2346" cy="13" r="4"/><circle cx="2434" cy="56" r="5"/><circle cx="2485" cy="47" r="5"/><circle cx="59" cy="90" r="6"/><circle cx="85" cy="93" r="6"/><circle cx="165" cy="100" r="5"/><circle cx="286" cy="81" r="5"/><circle cx="374" cy="84" r="5"/><circle cx="411" cy="131" r="5"/><circle cx="510" cy="111" r="4"/><circle cx="625" cy="152" r="5"/><circle cx="719" cy="96" r="5"/><circle cx="784" cy="114" r="4"/><circle cx="807" cy="96" r="5"/><circle cx="914" cy="89" r="4"/><circle cx="983" cy="122" r="6"/><circle cx="1061" cy="105" r="4"/><circle cx="1175" cy="156" r="5"/><circle cx="1239" cy="100" r="5"/><circle cx="1288" cy="145" r="5"/><circle cx="1378" cy="116" r="4"/><circle cx="1466" cy="153" r="6"/><circle cx="1560" cy="152" r="6"/><circle cx="1628" cy="115" r="5"/><circle cx="1719" cy="141" r="5"/><circle cx="1794" cy="151" r="4"/><circle cx="1866" cy="157" r="5"/><circle cx="1928" cy="123" r="5"/><circle cx="2033" cy="151" r="6"/><circle cx="2141" cy="132" r="5"/><circle cx="2226" cy="95" r="5"/><circle cx="2264" cy="144" r="5"/><circle cx="2364" cy="102" r="5"/><circle cx="2423" cy="128" r="5"/><circle cx="2512" cy="98" r="4"/><circle cx="69" cy="167" r="5"/><circle cx="87" cy="232" r="5"/><circle cx="206" cy="225" r="5"/><circle cx="306" cy="231" r="5"/><circle cx="393" cy="201" r="6"/><circle cx="435" cy="204" r="5"/><circle cx="548" cy="210" r="6"/><circle cx="626" cy="239" r="5"/><circle cx="678" cy="198" r="5"/><circle cx="789" cy="182" r="5"/><circle cx="866" cy="189" r="4"/><circle cx="930" cy="176" r="5"/><circle cx="1035" cy="208" r="5"/><circle cx="1104" cy="194" r="5"/><circle cx="1121" cy="205" r="5"/><circle cx="1211" cy="202" r="4"/><circle cx="1354" cy="204" r="5"/><circle cx="1424" cy="201" r="5"/><circle cx="1450" cy="220" r="5"/><circle cx="1543" cy="169" r="5"/><circle cx="1651" cy="181" r="6"/><circle cx="1696" cy="216" r="6"/><circle cx="1812" cy="174" r="6"/><circle cx="1918" cy="166" r="5"/><circle cx="1949" cy="203" r="5"/><circle cx="2057" cy="222" r="5"/><circle cx="2134" cy="219" r="4"/><circle cx="2160" cy="181" r="4"/><circle cx="2244" cy="218" r="5"/><circle cx="2368" cy="204" r="6"/><circle cx="2454" cy="226" r="5"/><circle cx="2534" cy="239" r="6"/><circle cx="40" cy="279" r="6"/><circle cx="158" cy="295" r="4"/><circle cx="223" cy="318" r="5"/><circle cx="257" cy="313" r="5"/><circle cx="339" cy="247" r="6"/><circle cx="445" cy="311" r="4"/><circle cx="518" cy="266" r="6"/><circle cx="574" cy="290" r="5"/><circle cx="647" cy="299" r="6"/><circle cx="768" cy="307" r="4"/><circle cx="823" cy="247" r="6"/><circle cx="949" cy="284" r="5"/><circle cx="1007" cy="241" r="4"/><circle cx="1096" cy="262" r="6"/><circle cx="1165" cy="254" r="5"/><circle cx="1230" cy="299" r="6"/><circle cx="1327" cy="265" r="5"/><circle cx="1376" cy="254" r="5"/><circle cx="1474" cy="283" r="4"/><circle cx="1577" cy="253" r="4"/><circle cx="1616" cy="241" r="5"/><circle cx="1723" cy="312" r="5"/><circle cx="1799" cy="304" r="5"/><circle cx="1917" cy="272" r="5"/><circle cx="1959" cy="244" r="5"/><circle cx="2027" cy="264" r="4"/><circle cx="2121" cy="260" r="4"/><circle cx="2217" cy="288" r="6"/><circle cx="2248" cy="275" r="4"/><circle cx="2329" cy="262" r="5"/><circle cx="2448" cy="244" r="5"/><circle cx="2528" cy="242" r="5"/><circle cx="25" cy="339" r="4"/><circle cx="113" cy="325" r="4"/><circle cx="224" cy="367" r="5"/><circle cx="312" cy="326" r="6"/><circle cx="337" cy="387" r="6"/><circle cx="425" cy="354" r="6"/><circle cx="506" cy="396" r="5"/><circle cx="583" cy="384" r="6"/><circle cx="644" cy="353" r="5"/><circle cx="753" cy="353" r="5"/><circle cx="825" cy="335" r="5"/><circle cx="891" cy="377" r="6"/><circle cx="988" cy="333" r="6"/><circle cx="1094" cy="371" r="4"/><circle cx="1124" cy="375" r="5"/><circle cx="1276" cy="399" r="5"/><circle cx="1329" cy="336" r="5"/><circle cx="1413" cy="397" r="6"/><circle cx="1470" cy="371" r="6"/><circle cx="1547" cy="379" r="5"/><circle cx="1635" cy="333" r="6"/><circle cx="1703" cy="361" r="4"/><circle cx="1773" cy="366" r="5"/><circle cx="1846" cy="358" r="6"/><circle cx="1988" cy="342" r="4"/><circle cx="2014" cy="331" r="4"/><circle cx="2111" cy="382" r="5"/><circle cx="2237" cy="326" r="6"/><circle cx="2245" cy="371" r="5"/><circle cx="2380" cy="357" r="5"/><circle cx="2457" cy="342" r="4"/><circle cx="2482" cy="350" r="5"/><circle cx="73" cy="461" r="5"/><circle cx="117" cy="437" r="5"/><circle cx="229" cy="458" r="5"/><circle cx="262" cy="456" r="5"/><circle cx="399" cy="462" r="6"/><circle cx="465" cy="433" r="5"/><circle cx="520" cy="461" r="4"/><circle cx="594" cy="469" r="5"/><circle cx="671" cy="407" r="5"/><circle cx="778" cy="409" r="6"/><circle cx="811" cy="401" r="5"/><circle cx="941" cy="465" r="5"/><circle cx="1017" cy="434" r="5"/><circle cx="1052" cy="415" r="4"/><circle cx="1129" cy="479" r="4"/><circle cx="1208" cy="435" r="5"/><circle cx="1340" cy="424" r="4"/><circle cx="1403" cy="480" r="6"/><circle cx="1466" cy="473" r="5"/><circle cx="1531" cy="404" r="4"/><circle cx="1605" cy="410" r="5"/><circle cx="1680" cy="428" r="4"/><circle cx="1767" cy="409" r="5"/><circle cx="1898" cy="448" r="6"/><circle cx="1995" cy="406" r="4"/><circle cx="2045" cy="459" r="5"/><circle cx="2140" cy="461" r="6"/><circle cx="2223" cy="469" r="4"/><circle cx="2256" cy="403" r="6"/><circle cx="2349" cy="444" r="5"/><circle cx="2438" cy="409" r="5"/><circle cx="2497" cy="418" r="5"/><circle cx="42" cy="498" r="5"/><circle cx="95" cy="550" r="6"/><circle cx="202" cy="494" r="6"/><circle cx="252" cy="504" r="5"/><circle cx="400" cy="560" r="5"/><circle cx="415" cy="492" r="5"/><circle cx="533" cy="481" r="4"/><circle cx="569" cy="494" r="6"/><circle cx="643" cy="551" r="6"/><circle cx="775" cy="518" r="5"/><circle cx="815" cy="549" r="6"/><circle cx="932" cy="534" r="4"/><circle cx="992" cy="554" r="5"/><circle cx="1106" cy="496" r="5"/><circle cx="1173" cy="510" r="4"/><circle cx="1230" cy="544" r="4"/><circle cx="1306" cy="486" r="5"/><circle cx="1380" cy="513" r="5"/><circle cx="1497" cy="497" r="4"/><circle cx="1569" cy="500" r="4"/><circle cx="1677" cy="495" r="4"/><circle cx="1689" cy="514" r="5"/><circle cx="1770" cy="515" r="6"/><circle cx="1889" cy="531" r="4"/><circle cx="1932" cy="516" r="5"/><circle cx="2020" cy="513" r="6"/><circle cx="2138" cy="549" r="5"/><circle cx="2229" cy="485" r="4"/><circle cx="2295" cy="522" r="4"/><circle cx="2342" cy="522" r="5"/><circle cx="2440" cy="519" r="6"/><circle cx="2559" cy="497" r="4"/><circle cx="-1" cy="497" r="4"/><circle cx="36" cy="583" r="4"/><circle cx="106" cy="594" r="5"/><circle cx="212" cy="561" r="5"/><circle cx="300" cy="619" r="5"/><circle cx="378" cy="570" r="5"/><circle cx="405" cy="568" r="6"/><circle cx="544" cy="617" r="4"/><circle cx="570" cy="594" r="5"/><circle cx="675" cy="611" r="5"/><circle cx="751" cy="622" r="6"/><circle cx="823" cy="598" r="5"/><circle cx="947" cy="610" r="6"/><circle cx="978" cy="625" r="4"/><circle cx="1076" cy="581" r="5"/><circle cx="1177" cy="596" r="5"/><circle cx="1212" cy="563" r="4"/><circle cx="1320" cy="620" r="5"/><circle cx="1375" cy="581" r="4"/><circle cx="1479" cy="564" r="5"/><circle cx="1564" cy="562" r="4"/><circle cx="1611" cy="612" r="6"/><circle cx="1756" cy="636" r="4"/><circle cx="1795" cy="582" r="5"/><circle cx="1894" cy="604" r="4"/><circle cx="1954" cy="567" r="4"/><circle cx="2037" cy="588" r="4"/><circle cx="2092" cy="599" r="5"/><circle cx="2211" cy="589" r="5"/><circle cx="2271" cy="583" r="4"/><circle cx="2395" cy="578" r="6"/><circle cx="2421" cy="571" r="6"/><circle cx="2530" cy="590" r="4"/><circle cx="1" cy="649" r="6"/><circle cx="2561" cy="649" r="6"/><circle cx="116" cy="693" r="5"/><circle cx="236" cy="661" r="4"/><circle cx="254" cy="689" r="4"/><circle cx="351" cy="646" r="4"/><circle cx="461" cy="695" r="4"/><circle cx="554" cy="646" r="6"/><circle cx="616" cy="695" r="4"/><circle cx="679" cy="644" r="5"/><circle cx="777" cy="655" r="6"/><circle cx="811" cy="677" r="5"/><circle cx="945" cy="650" r="5"/><circle cx="960" cy="653" r="5"/><circle cx="1076" cy="717" r="5"/><circle cx="1178" cy="644" r="5"/><circle cx="1207" cy="707" r="5"/><circle cx="1324" cy="713" r="6"/><circle cx="1406" cy="675" r="5"/><circle cx="1442" cy="708" r="5"/><circle cx="1534" cy="682" r="5"/><circle cx="1662" cy="696" r="5"/><circle cx="1682" cy="670" r="5"/><circle cx="1782" cy="646" r="5"/><circle cx="1878" cy="688" r="5"/><circle cx="1999" cy="688" r="4"/><circle cx="2074" cy="693" r="4"/><circle cx="2103" cy="708" r="6"/><circle cx="2210" cy="643" r="5"/><circle cx="2254" cy="643" r="5"/><circle cx="2359" cy="644" r="6"/><circle cx="2439" cy="696" r="5"/><circle cx="2483" cy="683" r="5"/><circle cx="45" cy="753" r="5"/><circle cx="144" cy="770" r="4"/><circle cx="187" cy="787" r="5"/><circle cx="269" cy="733" r="5"/><circle cx="347" cy="753" r="6"/><circle cx="476" cy="796" r="6"/><circle cx="533" cy="727" r="4"/><circle cx="595" cy="741" r="5"/><circle cx="706" cy="777" r="4"/><circle cx="777" cy="799" r="5"/><circle cx="880" cy="773" r="5"/><circle cx="923" cy="760" r="6"/><circle cx="1004" cy="779" r="5"/><circle cx="1061" cy="765" r="6"/><circle cx="1144" cy="720" r="4"/><circle cx="1276" cy="738" r="6"/><circle cx="1327" cy="786" r="5"/><circle cx="1419" cy="800" r="5"/><circle cx="1464" cy="720" r="5"/><circle cx="1542" cy="734" r="4"/><circle cx="1674" cy="782" r="5"/><circle cx="1682" cy="788" r="5"/><circle cx="1812" cy="728" r="4"/><circle cx="1857" cy="725" r="4"/><circle cx="1974" cy="748" r="6"/><circle cx="2064" cy="791" r="5"/><circle cx="2097" cy="787" r="6"/><circle cx="2196" cy="788" r="4"/><circle cx="2296" cy="726" r="5"/><circle cx="2329" cy="793" r="4"/><circle cx="2407" cy="723" r="6"/><circle cx="2497" cy="789" r="4"/><circle cx="64" cy="839" r="4"/><circle cx="119" cy="819" r="6"/><circle cx="175" cy="840" r="4"/><circle cx="281" cy="854" r="4"/><circle cx="395" cy="827" r="6"/><circle cx="415" cy="838" r="4"/><circle cx="552" cy="803" r="5"/><circle cx="569" cy="829" r="4"/><circle cx="688" cy="814" r="5"/><circle cx="797" cy="823" r="5"/><circle cx="862" cy="852" r="4"/><circle cx="901" cy="806" r="4"/><circle cx="963" cy="857" r="6"/><circle cx="1087" cy="838" r="6"/><circle cx="1146" cy="853" r="6"/><circle cx="1243" cy="820" r="5"/><circle cx="1350" cy="860" r="5"/><circle cx="1404" cy="821" r="6"/><circle cx="1515" cy="850" r="6"/><circle cx="1540" cy="879" r="5"/><circle cx="1659" cy="858" r="5"/><circle cx="1746" cy="854" r="5"/><circle cx="1778" cy="859" r="5"/><circle cx="1902" cy="814" r="5"/><circle cx="1956" cy="869" r="5"/><circle cx="2034" cy="805" r="4"/><circle cx="2142" cy="803" r="6"/><circle cx="2210" cy="814" r="4"/><circle cx="2252" cy="870" r="5"/><circle cx="2381" cy="877" r="6"/><circle cx="2456" cy="806" r="6"/><circle cx="2542" cy="841" r="4"/><circle cx="78" cy="906" r="5"/><circle cx="90" cy="936" r="5"/><circle cx="215" cy="907" r="4"/><circle cx="276" cy="937" r="5"/><circle cx="385" cy="889" r="6"/><circle cx="469" cy="883" r="6"/><circle cx="494" cy="917" r="6"/><circle cx="566" cy="891" r="5"/><circle cx="710" cy="931" r="6"/><circle cx="796" cy="894" r="6"/><circle cx="823" cy="926" r="6"/><circle cx="949" cy="885" r="4"/><circle cx="1005" cy="933" r="4"/><circle cx="1108" cy="953" r="5"/><circle cx="1154" cy="959" r="5"/><circle cx="1215" cy="898" r="5"/><circle cx="1316" cy="939" r="5"/><circle cx="1365" cy="935" r="5"/><circle cx="1501" cy="938" r="5"/><circle cx="1571" cy="884" r="5"/><circle cx="1632" cy="929" r="6"/><circle cx="1755" cy="898" r="5"/><circle cx="1794" cy="940" r="5"/><circle cx="1868" cy="946" r="6"/><circle cx="1981" cy="913" r="6"/><circle cx="2066" cy="952" r="5"/><circle cx="2123" cy="952" r="5"/><circle cx="2177" cy="958" r="6"/><circle cx="2268" cy="887" r="5"/><circle cx="2370" cy="955" r="5"/><circle cx="2478" cy="903" r="5"/><circle cx="2486" cy="940" r="5"/><circle cx="40" cy="1024" r="4"/><circle cx="82" cy="963" r="4"/><circle cx="231" cy="1023" r="5"/><circle cx="258" cy="1039" r="5"/><circle cx="334" cy="993" r="4"/><circle cx="440" cy="996" r="6"/><circle cx="527" cy="1011" r="6"/><circle cx="568" cy="1009" r="4"/><circle cx="698" cy="1019" r="4"/><circle cx="789" cy="1003" r="6"/><circle cx="875" cy="961" r="4"/><circle cx="936" cy="972" r="5"/><circle cx="967" cy="1024" r="6"/><circle cx="1079" cy="996" r="4"/><circle cx="1144" cy="1001" r="4"/><circle cx="1206" cy="1001" r="5"/><circle cx="1309" cy="967" r="5"/><circle cx="1382" cy="1012" r="5"/><circle cx="1501" cy="1024" r="6"/><circle cx="1555" cy="965" r="5"/><circle cx="1623" cy="1024" r="5"/><circle cx="1711" cy="1010" r="5"/><circle cx="1789" cy="1028" r="4"/><circle cx="1903" cy="981" r="5"/><circle cx="1987" cy="1002" r="4"/><circle cx="2056" cy="1038" r="6"/><circle cx="2136" cy="988" r="6"/><circle cx="2203" cy="1014" r="5"/><circle cx="2290" cy="1008" r="5"/><circle cx="2384" cy="990" r="5"/><circle cx="2406" cy="1016" r="5"/><circle cx="2496" cy="992" r="5"/><circle cx="57" cy="1071" r="5"/><circle cx="83" cy="1077" r="4"/><circle cx="162" cy="1099" r="5"/><circle cx="246" cy="1109" r="5"/><circle cx="350" cy="1110" r="6"/><circle cx="406" cy="1065" r="6"/><circle cx="547" cy="1116" r="5"/><circle cx="589" cy="1091" r="5"/><circle cx="664" cy="1089" r="4"/><circle cx="797" cy="1057" r="4"/><circle cx="819" cy="1117" r="5"/><circle cx="906" cy="1053" r="6"/><circle cx="1029" cy="1113" r="6"/><circle cx="1097" cy="1044" r="6"/><circle cx="1182" cy="1055" r="4"/><circle cx="1278" cy="1084" r="6"/><circle cx="1290" cy="1115" r="5"/><circle cx="1431" cy="1052" r="5"/><circle cx="1477" cy="1051" r="5"/><circle cx="1592" cy="1099" r="5"/><circle cx="1603" cy="1050" r="5"/><circle cx="1715" cy="1056" r="5"/><circle cx="1835" cy="1042" r="6"/><circle cx="1854" cy="1104" r="5"/><circle cx="1971" cy="1077" r="5"/><circle cx="2045" cy="1067" r="6"/><circle cx="2130" cy="1055" r="5"/><circle cx="2217" cy="1100" r="6"/><circle cx="2269" cy="1045" r="6"/><circle cx="2337" cy="1069" r="5"/><circle cx="2403" cy="1084" r="6"/><circle cx="2521" cy="1062" r="6"/><circle cx="32" cy="1133" r="5"/><circle cx="133" cy="1136" r="6"/><circle cx="229" cy="1128" r="4"/><circle cx="251" cy="1177" r="4"/><circle cx="349" cy="1159" r="5"/><circle cx="437" cy="1200" r="6"/><circle cx="494" cy="1169" r="5"/><circle cx="582" cy="1190" r="5"/><circle cx="649" cy="1123" r="5"/><circle cx="723" cy="1158" r="5"/><circle cx="862" cy="1194" r="5"/><circle cx="928" cy="1149" r="6"/><circle cx="972" cy="1170" r="4"/><circle cx="1107" cy="1137" r="4"/><circle cx="1168" cy="1129" r="5"/><circle cx="1265" cy="1125" r="4"/><circle cx="1310" cy="1157" r="4"/><circle cx="1385" cy="1183" r="4"/><circle cx="1440" cy="1188" r="4"/><circle cx="1559" cy="1187" r="6"/><circle cx="1612" cy="1181" r="5"/><circle cx="1683" cy="1180" r="6"/><circle cx="1784" cy="1177" r="6"/><circle cx="1882" cy="1147" r="5"/><circle cx="1944" cy="1177" r="5"/><circle cx="2055" cy="1165" r="4"/><circle cx="2101" cy="1123" r="5"/><circle cx="2226" cy="1165" r="5"/><circle cx="2310" cy="1132" r="6"/><circle cx="2377" cy="1192" r="5"/><circle cx="2462" cy="1166" r="5"/><circle cx="2502" cy="1184" r="5"/><circle cx="30" cy="1268" r="5"/><circle cx="124" cy="1248" r="4"/><circle cx="165" cy="1241" r="5"/><circle cx="282" cy="1204" r="6"/><circle cx="333" cy="1276" r="4"/><circle cx="468" cy="1224" r="4"/><circle cx="559" cy="1268" r="6"/><circle cx="592" cy="1266" r="4"/><circle cx="695" cy="1262" r="4"/><circle cx="749" cy="1260" r="6"/><circle cx="861" cy="1220" r="4"/><circle cx="888" cy="1267" r="6"/><circle cx="1007" cy="1274" r="4"/><circle cx="1081" cy="1274" r="5"/><circle cx="1141" cy="1234" r="4"/><circle cx="1213" cy="1209" r="6"/><circle cx="1351" cy="1232" r="5"/><circle cx="1389" cy="1210" r="5"/><circle cx="1518" cy="1202" r="4"/><circle cx="1592" cy="1215" r="6"/><circle cx="1679" cy="1264" r="5"/><circle cx="1737" cy="1268" r="5"/><circle cx="1827" cy="1244" r="5"/><circle cx="1861" cy="1245" r="5"/><circle cx="1944" cy="1234" r="5"/><circle cx="2063" cy="1232" r="5"/><circle cx="2113" cy="1231" r="5"/><circle cx="2233" cy="1254" r="4"/><circle cx="2288" cy="1235" r="5"/><circle cx="2361" cy="1202" r="5"/><circle cx="2462" cy="1262" r="5"/><circle cx="2493" cy="1210" r="5"/><circle cx="68" cy="1335" r="6"/><circle cx="148" cy="1298" r="4"/><circle cx="168" cy="1344" r="5"/><circle cx="302" cy="1301" r="5"/><circle cx="371" cy="1305" r="6"/><circle cx="458" cy="1336" r="5"/><circle cx="513" cy="1290" r="5"/><circle cx="561" cy="1351" r="5"/><circle cx="683" cy="1341" r="4"/><circle cx="730" cy="1329" r="5"/><circle cx="831" cy="1306" r="5"/><circle cx="919" cy="1341" r="4"/><circle cx="976" cy="1336" r="4"/><circle cx="1085" cy="1288" r="6"/><circle cx="1130" cy="1349" r="5"/><circle cx="1235" cy="1300" r="5"/><circle cx="1347" cy="1318" r="6"/><circle cx="1363" cy="1326" r="6"/><circle cx="1471" cy="1303" r="6"/><circle cx="1574" cy="1325" r="4"/><circle cx="1644" cy="1288" r="6"/><circle cx="1698" cy="1343" r="5"/><circle cx="1820" cy="1343" r="5"/><circle cx="1871" cy="1312" r="5"/><circle cx="1978" cy="1334" r="5"/><circle cx="2004" cy="1299" r="6"/><circle cx="2096" cy="1319" r="4"/><circle cx="2167" cy="1287" r="4"/><circle cx="2273" cy="1332" r="5"/><circle cx="2323" cy="1357" r="4"/><circle cx="2479" cy="1309" r="5"/><circle cx="2556" cy="1328" r="6"/><circle cx="-4" cy="1328" r="6"/><circle cx="18" cy="1431" r="5"/><circle cx="99" cy="1389" r="5"/><circle cx="184" cy="1383" r="4"/><circle cx="264" cy="1430" r="5"/><circle cx="330" cy="1440" r="5"/><circle cx="330" cy="-0" r="5"/><circle cx="469" cy="1440" r="4"/><circle cx="469" cy="-0" r="4"/><circle cx="506" cy="1366" r="6"/><circle cx="617" cy="1388" r="5"/><circle cx="694" cy="1374" r="6"/><circle cx="771" cy="1420" r="5"/><circle cx="877" cy="1370" r="5"/><circle cx="929" cy="1398" r="5"/><circle cx="990" cy="1425" r="4"/><circle cx="1103" cy="1421" r="6"/><circle cx="1124" cy="1394" r="5"/><circle cx="1241" cy="1406" r="5"/><circle cx="1327" cy="1397" r="6"/><circle cx="1389" cy="1426" r="5"/><circle cx="1469" cy="1381" r="4"/><circle cx="1567" cy="1372" r="6"/><circle cx="1645" cy="1407" r="6"/><circle cx="1692" cy="1380" r="6"/><circle cx="1832" cy="1408" r="5"/><circle cx="1919" cy="1415" r="6"/><circle cx="1995" cy="1393" r="5"/><circle cx="2048" cy="1380" r="6"/><circle cx="2103" cy="1361" r="5"/><circle cx="2228" cy="1402" r="4"/><circle cx="2260" cy="1437" r="4"/><circle cx="2260" cy="-3" r="4"/><circle cx="2382" cy="1420" r="4"/><circle cx="2460" cy="1364" r="5"/><circle cx="2486" cy="1407" r="5"/><path stroke="#fff" d="M36 19L82 2M36 19L59 90M36 19L85 93M36 19L18 -9M36 1459L18 1431M82 2L59 90M82 2L85 93M82 2L18 -9M82 2L99 -51M82 1442L18 1431M82 1442L99 1389M186 63L165 100M186 63L286 81M286 20L340 12M286 20L286 81M286 20L264 -10M286 20L330 -0M286 1460L264 1430M286 1460L330 1440M340 12L402 26M340 12L374 84M340 12L264 -10M340 12L330 -0M340 1452L264 1430M340 1452L330 1440M402 26L374 84M402 26L411 131M402 26L330 -0M402 26L469 -0M402 1466L330 1440M402 1466L469 1440M560 57L629 45M560 57L656 74M560 57L510 111M560 57L617 -52M560 1497L617 1388M629 45L656 74M629 45L625 152M629 45L719 96M629 45L617 -52M629 1485L617 1388M656 74L625 152M656 74L719 96M755 68L814 44M755 68L719 96M755 68L784 114M755 68L807 96M755 68L771 -20M755 1508L771 1420M814 44L784 114M814 44L807 96M814 44L771 -20M814 1484L771 1420M937 14L1021 63M937 14L914 89M937 14L877 -70M937 14L929 -42M937 14L990 -15M937 1454L877 1370M937 1454L929 1398M937 1454L990 1425M1021 63L983 122M1021 63L1061 105M1021 63L990 -15M1021 63L1103 -19M1021 1503L990 1425M1021 1503L1103 1421M1107 1L1162 38M1107 1L1130 -91M1107 1L1103 -19M1107 1L1124 -46M1107 1441L1130 1349M1107 1441L1103 1421M1107 1441L1124 1394M1162 38L1239 100M1162 38L1103 -19M1162 38L1124 -46M1162 38L1241 -34M1162 1478L1103 1421M1162 1478L1124 1394M1162 1478L1241 1406M1267 16L1347 38M1267 16L1239 100M1267 16L1241 -34M1267 16L1327 -43M1267 1456L1241 1406M1267 1456L1327 1397M1347 38L1429 63M1347 38L1378 116M1347 38L1327 -43M1347 38L1389 -14M1347 1478L1327 1397M1347 1478L1389 1426M1429 63L1482 33M1429 63L1378 116M1429 63L1466 153M1429 63L1389 -14M1429 1503L1389 1426M1482 33L1526 50M1482 33L1469 -59M1482 1473L1469 1381M1674 12L1683 31M1674 12L1645 -33M1674 12L1692 -60M1674 1452L1645 1407M1674 1452L1692 1380M1683 31L1628 115M1683 31L1645 -33M1683 31L1692 -60M1683 1471L1645 1407M1683 1471L1692 1380M1840 70L1886 1M1840 70L1794 151M1840 70L1866 157M1840 70L1812 174M1886 1L1945 36M1886 1L1832 -32M1886 1L1919 -25M1886 1441L1832 1408M1886 1441L1919 1415M1945 36L2024 8M1945 36L1928 123M1945 36L1919 -25M1945 1476L1919 1415M2024 8L2086 43M2024 8L1995 -47M2024 8L2048 -60M2024 1448L1995 1393M2024 1448L2048 1380M2086 43L2171 18M2086 43L2033 151M2086 43L2141 132M2171 18L2226 95M2171 18L2103 -79M2171 18L2228 -38M2171 18L2260 -3M2171 1458L2103 1361M2171 1458L2228 1402M2171 1458L2260 1437M2315 23L2346 13M2315 23L2364 102M2315 23L2260 -3M2315 23L2382 -20M2315 1463L2260 1437M2315 1463L2382 1420M2346 13L2364 102M2346 13L2260 -3M2346 13L2382 -20M2346 1453L2260 1437M2346 1453L2382 1420M2434 56L2485 47M2434 56L2364 102M2434 56L2423 128M2434 56L2512 98M2434 56L2382 -20M2434 1496L2382 1420M2485 47L2512 98M2485 47L2486 -33M2485 1487L2486 1407M59 90L85 93M59 90L69 167M85 93L165 100M85 93L69 167M286 81L374 84M286 81L264 -10M286 81L330 -0M286 1521L264 1430M286 1521L330 1440M374 84L411 131M411 131L510 111M411 131L393 201M411 131L435 204M510 111L548 210M625 152L548 210M625 152L626 239M625 152L678 198M719 96L784 114M719 96L807 96M784 114L807 96M784 114L789 182M807 96L789 182M914 89L983 122M914 89L866 189M914 89L930 176M983 122L1061 105M983 122L930 176M983 122L1035 208M1175 156L1239 100M1175 156L1104 194M1175 156L1121 205M1175 156L1211 202M1239 100L1288 145M1239 100L1211 202M1288 145L1378 116M1288 145L1211 202M1288 145L1354 204M1288 145L1327 265M1466 153L1560 152M1466 153L1424 201M1466 153L1450 220M1466 153L1543 169M1560 152L1628 115M1560 152L1543 169M1560 152L1651 181M1560 152L1616 241M1628 115L1719 141M1628 115L1543 169M1628 115L1651 181M1719 141L1794 151M1719 141L1651 181M1719 141L1696 216M1719 141L1812 174M1794 151L1866 157M1794 151L1812 174M1866 157L1928 123M1866 157L1812 174M1866 157L1918 166M1928 123L2033 151M1928 123L1918 166M1928 123L1949 203M2033 151L2141 132M2033 151L1949 203M2033 151L2057 222M2141 132L2226 95M2141 132L2134 219M2141 132L2160 181M2226 95L2264 144M2226 95L2260 -3M2226 1535L2260 1437M2264 144L2160 181M2264 144L2244 218M2364 102L2423 128M2364 102L2368 204M2423 128L2512 98M2423 128L2368 204M2423 128L2454 226M69 167L87 232M87 232L-26 239M87 232L40 279M87 232L158 295M87 232L113 325M2647 232L2534 239M206 225L306 231M206 225L158 295M206 225L223 318M206 225L257 313M306 231L393 201M306 231L339 247M306 231L312 326M393 201L435 204M393 201L339 247M393 201L445 311M435 204L339 247M435 204L518 266M548 210L626 239M548 210L518 266M548 210L574 290M626 239L678 198M626 239L574 290M626 239L647 299M678 198L789 182M678 198L647 299M789 182L866 189M789 182L823 247M866 189L930 176M866 189L823 247M930 176L1007 241M1035 208L1104 194M1035 208L1121 205M1035 208L1007 241M1035 208L1096 262M1104 194L1121 205M1104 194L1096 262M1104 194L1165 254M1121 205L1096 262M1121 205L1165 254M1211 202L1165 254M1211 202L1230 299M1354 204L1424 201M1354 204L1450 220M1354 204L1327 265M1354 204L1376 254M1424 201L1450 220M1424 201L1376 254M1424 201L1474 283M1450 220L1376 254M1450 220L1474 283M1543 169L1577 253M1651 181L1696 216M1651 181L1616 241M1696 216L1616 241M1696 216L1723 312M1812 174L1918 166M1918 166L1949 203M1918 166L1959 244M1949 203L1917 272M1949 203L1959 244M2057 222L2134 219M2057 222L1959 244M2057 222L2027 264M2057 222L2121 260M2134 219L2160 181M2134 219L2121 260M2160 181L2121 260M2244 218L2217 288M2244 218L2248 275M2244 218L2329 262M2244 218L2237 326M2368 204L2454 226M2368 204L2329 262M2368 204L2448 244M2454 226L2534 239M2454 226L2448 244M2454 226L2528 242M2534 239L2600 279M2534 239L2448 244M2534 239L2528 242M-26 239L40 279M40 279L-32 242M40 279L25 339M40 279L113 325M2600 279L2528 242M158 295L223 318M158 295L113 325M223 318L257 313M223 318L224 367M223 318L312 326M257 313L339 247M257 313L224 367M257 313L312 326M339 247L312 326M445 311L518 266M445 311L425 354M518 266L574 290M574 290L647 299M574 290L583 384M647 299L644 353M768 307L823 247M768 307L753 353M768 307L825 335M768 307L778 409M768 307L811 401M823 247L825 335M949 284L1007 241M949 284L988 333M1007 241L1096 262M1007 241L988 333M1096 262L1165 254M1165 254L1230 299M1230 299L1327 265M1230 299L1276 399M1327 265L1376 254M1327 265L1329 336M1376 254L1329 336M1474 283L1577 253M1474 283L1470 371M1577 253L1616 241M1616 241L1635 333M1723 312L1799 304M1723 312L1635 333M1723 312L1703 361M1723 312L1773 366M1799 304L1773 366M1799 304L1846 358M1917 272L1959 244M1917 272L1846 358M1917 272L1988 342M1959 244L2027 264M2027 264L2121 260M2027 264L1988 342M2027 264L2014 331M2121 260L2217 288M2217 288L2248 275M2217 288L2237 326M2217 288L2245 371M2248 275L2329 262M2248 275L2237 326M2248 275L2245 371M2329 262L2380 357M2448 244L2528 242M2448 244L2482 350M25 339L113 325M224 367L229 458M224 367L262 456M312 326L337 387M337 387L425 354M337 387L262 456M337 387L399 462M425 354L506 396M425 354L399 462M425 354L465 433M506 396L583 384M506 396L465 433M506 396L520 461M506 396L533 481M583 384L644 353M583 384L594 469M583 384L671 407M644 353L671 407M753 353L825 335M753 353L671 407M753 353L778 409M753 353L811 401M825 335L891 377M825 335L811 401M891 377L988 333M891 377L778 409M891 377L811 401M891 377L941 465M988 333L1017 434M988 333L1052 415M1094 371L1124 375M1094 371L1017 434M1094 371L1052 415M1124 375L1052 415M1124 375L1129 479M1124 375L1208 435M1276 399L1329 336M1276 399L1208 435M1276 399L1340 424M1276 399L1306 486M1329 336L1413 397M1329 336L1340 424M1413 397L1470 371M1413 397L1340 424M1413 397L1403 480M1413 397L1466 473M1470 371L1547 379M1470 371L1466 473M1470 371L1531 404M1547 379L1635 333M1547 379L1531 404M1547 379L1605 410M1635 333L1703 361M1635 333L1605 410M1703 361L1773 366M1703 361L1680 428M1703 361L1767 409M1773 366L1846 358M1773 366L1767 409M1846 358L1767 409M1846 358L1898 448M1988 342L2014 331M1988 342L1995 406M2014 331L2111 382M2014 331L1995 406M2111 382L2045 459M2111 382L2140 461M2237 326L2245 371M2237 326L2256 403M2245 371L2223 469M2245 371L2256 403M2380 357L2457 342M2380 357L2482 350M2380 357L2349 444M2380 357L2438 409M2457 342L2482 350M2457 342L2438 409M2457 342L2497 418M2482 350L2438 409M2482 350L2497 418M73 461L117 437M73 461L42 498M73 461L95 550M73 461L-1 497M2633 461L2559 497M117 437L42 498M117 437L202 494M229 458L262 456M229 458L202 494M229 458L252 504M229 458L212 561M262 456L202 494M262 456L252 504M399 462L465 433M399 462L400 560M399 462L415 492M465 433L520 461M465 433L415 492M520 461L594 469M520 461L533 481M520 461L569 494M594 469L533 481M594 469L569 494M594 469L643 551M671 407L778 409M778 409L811 401M941 465L1017 434M941 465L932 534M1017 434L1052 415M1017 434L1106 496M1052 415L1106 496M1129 479L1208 435M1129 479L1106 496M1129 479L1173 510M1340 424L1403 480M1340 424L1306 486M1403 480L1466 473M1403 480L1306 486M1403 480L1380 513M1466 473L1497 497M1466 473L1479 564M1531 404L1605 410M1531 404L1497 497M1605 410L1680 428M1605 410L1569 500M1680 428L1767 409M1680 428L1677 495M1680 428L1689 514M1767 409L1770 515M1898 448L1995 406M1898 448L1889 531M1898 448L1932 516M1995 406L2045 459M2045 459L2140 461M2045 459L2020 513M2140 461L2223 469M2140 461L2138 549M2140 461L2229 485M2223 469L2256 403M2223 469L2229 485M2223 469L2295 522M2256 403L2349 444M2256 403L2229 485M2349 444L2295 522M2349 444L2342 522M2438 409L2497 418M2438 409L2440 519M2497 418L2440 519M2497 418L2559 497M42 498L95 550M42 498L-1 497M42 498L36 583M2602 498L2559 497M95 550L36 583M95 550L106 594M202 494L252 504M202 494L212 561M252 504L212 561M400 560L415 492M400 560L378 570M400 560L405 568M400 560L351 646M415 492L378 570M415 492L405 568M533 481L569 494M569 494L643 551M569 494L570 594M643 551L570 594M643 551L675 611M643 551L679 644M775 518L815 549M775 518L823 598M815 549L932 534M815 549L823 598M815 549L777 655M932 534L992 554M932 534L947 610M992 554L947 610M992 554L978 625M992 554L1076 581M992 554L960 653M1106 496L1173 510M1106 496L1076 581M1173 510L1230 544M1173 510L1177 596M1173 510L1212 563M1230 544L1306 486M1230 544L1177 596M1230 544L1212 563M1306 486L1380 513M1380 513L1320 620M1380 513L1375 581M1380 513L1479 564M1497 497L1569 500M1497 497L1479 564M1497 497L1564 562M1569 500L1564 562M1677 495L1689 514M1677 495L1770 515M1689 514L1770 515M1689 514L1611 612M1689 514L1795 582M1770 515L1889 531M1770 515L1795 582M1889 531L1932 516M1889 531L1894 604M1889 531L1954 567M1932 516L2020 513M1932 516L1894 604M1932 516L1954 567M2020 513L1954 567M2020 513L2037 588M2020 513L2092 599M2138 549L2037 588M2138 549L2092 599M2138 549L2211 589M2138 549L2210 643M2229 485L2295 522M2229 485L2211 589M2295 522L2342 522M2295 522L2271 583M2342 522L2440 519M2342 522L2395 578M2342 522L2421 571M2440 519L2395 578M2440 519L2421 571M2559 497L2530 590M36 583L106 594M36 583L-30 590M36 583L1 649M2596 583L2530 590M106 594L212 561M106 594L1 649M106 594L116 693M212 561L300 619M300 619L378 570M300 619L236 661M300 619L254 689M300 619L351 646M378 570L405 568M378 570L351 646M405 568L351 646M544 617L570 594M544 617L554 646M570 594L554 646M675 611L751 622M675 611L616 695M675 611L679 644M751 622L823 598M751 622L679 644M751 622L777 655M751 622L811 677M823 598L777 655M823 598L811 677M947 610L978 625M947 610L945 650M947 610L960 653M978 625L1076 581M978 625L945 650M978 625L960 653M1076 581L1177 596M1076 581L1178 644M1177 596L1212 563M1177 596L1178 644M1212 563L1178 644M1320 620L1375 581M1320 620L1324 713M1320 620L1406 675M1320 620L1276 738M1375 581L1479 564M1375 581L1406 675M1479 564L1564 562M1564 562L1611 612M1611 612L1534 682M1611 612L1662 696M1611 612L1682 670M1756 636L1795 582M1756 636L1662 696M1756 636L1682 670M1756 636L1782 646M1756 636L1812 728M1795 582L1894 604M1795 582L1782 646M1894 604L1954 567M1894 604L1878 688M1954 567L2037 588M2037 588L2092 599M2037 588L1999 688M2092 599L2074 693M2092 599L2103 708M2211 589L2271 583M2211 589L2210 643M2211 589L2254 643M2271 583L2210 643M2271 583L2254 643M2395 578L2421 571M2395 578L2359 644M2395 578L2439 696M2421 571L2530 590M2421 571L2359 644M2530 590L2561 649M2530 590L2483 683M-30 590L1 649M1 649L-77 683M1 649L45 753M2561 649L2483 683M116 693L45 753M116 693L144 770M116 693L187 787M236 661L254 689M236 661L269 733M254 689L269 733M254 689L347 753M351 646L347 753M461 695L533 727M554 646L616 695M554 646L533 727M554 646L595 741M616 695L679 644M616 695L595 741M679 644L777 655M777 655L811 677M945 650L960 653M960 653L923 760M1076 717L1004 779M1076 717L1061 765M1076 717L1144 720M1076 717L1087 838M1178 644L1207 707M1178 644L1144 720M1207 707L1144 720M1207 707L1276 738M1207 707L1243 820M1324 713L1406 675M1324 713L1276 738M1324 713L1327 786M1406 675L1442 708M1406 675L1464 720M1442 708L1534 682M1442 708L1419 800M1442 708L1464 720M1442 708L1404 821M1534 682L1464 720M1534 682L1542 734M1662 696L1682 670M1662 696L1674 782M1662 696L1682 788M1682 670L1782 646M1682 670L1674 782M1782 646L1878 688M1782 646L1812 728M1878 688L1812 728M1878 688L1857 725M1878 688L1974 748M1999 688L2074 693M1999 688L1974 748M2074 693L2103 708M2103 708L2064 791M2103 708L2097 787M2103 708L2142 803M2210 643L2254 643M2210 643L2296 726M2254 643L2359 644M2254 643L2296 726M2359 644L2439 696M2359 644L2407 723M2439 696L2483 683M2439 696L2407 723M2483 683L2407 723M45 753L144 770M45 753L64 839M45 753L119 819M144 770L187 787M144 770L119 819M144 770L175 840M187 787L269 733M187 787L119 819M187 787L175 840M269 733L347 753M347 753L395 827M347 753L415 838M476 796L533 727M476 796L395 827M476 796L415 838M476 796L552 803M476 796L469 883M533 727L595 741M533 727L552 803M595 741L552 803M595 741L569 829M706 777L777 799M706 777L688 814M777 799L880 773M777 799L688 814M777 799L797 823M777 799L796 894M880 773L923 760M880 773L797 823M880 773L862 852M880 773L901 806M923 760L1004 779M923 760L901 806M923 760L963 857M1004 779L1061 765M1004 779L963 857M1004 779L1087 838M1061 765L1144 720M1061 765L1087 838M1276 738L1327 786M1276 738L1243 820M1327 786L1419 800M1327 786L1350 860M1327 786L1404 821M1419 800L1464 720M1419 800L1350 860M1419 800L1404 821M1464 720L1542 734M1674 782L1682 788M1674 782L1659 858M1682 788L1659 858M1682 788L1746 854M1682 788L1778 859M1812 728L1857 725M1857 725L1902 814M1974 748L2064 791M1974 748L1902 814M1974 748L2034 805M2064 791L2097 787M2064 791L2034 805M2064 791L2142 803M2097 787L2196 788M2097 787L2034 805M2097 787L2142 803M2196 788L2142 803M2196 788L2210 814M2196 788L2252 870M2296 726L2329 793M2329 793L2407 723M2329 793L2252 870M2329 793L2381 877M2407 723L2456 806M2497 789L2456 806M2497 789L2542 841M64 839L119 819M64 839L-18 841M64 839L78 906M64 839L90 936M2624 839L2542 841M119 819L175 840M175 840L281 854M175 840L215 907M281 854L215 907M281 854L276 937M395 827L415 838M395 827L385 889M395 827L469 883M415 838L385 889M415 838L469 883M552 803L569 829M552 803L566 891M569 829L566 891M688 814L710 931M797 823L862 852M797 823L796 894M797 823L823 926M862 852L901 806M862 852L796 894M862 852L823 926M901 806L963 857M901 806L949 885M963 857L949 885M963 857L1005 933M1087 838L1146 853M1146 853L1243 820M1146 853L1108 953M1146 853L1215 898M1243 820L1215 898M1350 860L1404 821M1350 860L1316 939M1350 860L1365 935M1404 821L1515 850M1515 850L1540 879M1515 850L1501 938M1515 850L1571 884M1540 879L1501 938M1540 879L1571 884M1540 879L1632 929M1540 879L1555 965M1659 858L1746 854M1659 858L1632 929M1746 854L1778 859M1746 854L1755 898M1746 854L1794 940M1778 859L1755 898M1778 859L1794 940M1902 814L1956 869M1956 869L2034 805M1956 869L1868 946M1956 869L1981 913M2142 803L2210 814M2210 814L2252 870M2210 814L2268 887M2252 870L2268 887M2381 877L2456 806M2381 877L2268 887M2381 877L2370 955M2381 877L2478 903M2456 806L2542 841M2456 806L2478 903M2542 841L2478 903M78 906L90 936M78 906L82 963M90 936L82 963M215 907L276 937M276 937L231 1023M276 937L258 1039M276 937L334 993M385 889L469 883M385 889L494 917M385 889L440 996M469 883L494 917M494 917L566 891M494 917L440 996M494 917L527 1011M566 891L568 1009M710 931L796 894M710 931L698 1019M710 931L789 1003M796 894L823 926M823 926L789 1003M823 926L875 961M949 885L1005 933M949 885L936 972M1005 933L936 972M1005 933L967 1024M1108 953L1154 959M1108 953L1079 996M1108 953L1144 1001M1108 953L1097 1044M1154 959L1215 898M1154 959L1079 996M1154 959L1144 1001M1154 959L1206 1001M1215 898L1316 939M1215 898L1206 1001M1316 939L1365 935M1316 939L1309 967M1316 939L1382 1012M1365 935L1309 967M1365 935L1382 1012M1501 938L1571 884M1501 938L1501 1024M1501 938L1555 965M1571 884L1632 929M1571 884L1555 965M1632 929L1555 965M1632 929L1623 1024M1755 898L1794 940M1794 940L1868 946M1794 940L1789 1028M1868 946L1981 913M1868 946L1903 981M1868 946L1835 1042M1981 913L2066 952M1981 913L1903 981M1981 913L1987 1002M2066 952L2123 952M2066 952L2056 1038M2066 952L2136 988M2123 952L2177 958M2123 952L2136 988M2177 958L2268 887M2177 958L2136 988M2177 958L2203 1014M2370 955L2486 940M2370 955L2290 1008M2370 955L2384 990M2370 955L2406 1016M2478 903L2486 940M2478 903L2496 992M2486 940L2496 992M40 1024L82 963M40 1024L-64 992M40 1024L57 1071M40 1024L83 1077M40 1024L-39 1062M2600 1024L2496 992M2600 1024L2521 1062M231 1023L258 1039M231 1023L162 1099M231 1023L246 1109M258 1039L334 993M258 1039L246 1109M334 993L440 996M334 993L350 1110M334 993L406 1065M440 996L527 1011M440 996L406 1065M527 1011L568 1009M527 1011L547 1116M527 1011L589 1091M568 1009L589 1091M698 1019L789 1003M698 1019L664 1089M698 1019L797 1057M789 1003L875 961M789 1003L797 1057M875 961L936 972M875 961L906 1053M936 972L967 1024M936 972L906 1053M967 1024L906 1053M967 1024L1029 1113M1079 996L1144 1001M1079 996L1097 1044M1144 1001L1206 1001M1144 1001L1097 1044M1206 1001L1182 1055M1206 1001L1278 1084M1309 967L1382 1012M1382 1012L1431 1052M1382 1012L1477 1051M1501 1024L1555 965M1501 1024L1431 1052M1501 1024L1477 1051M1501 1024L1603 1050M1623 1024L1711 1010M1623 1024L1592 1099M1623 1024L1603 1050M1623 1024L1715 1056M1711 1010L1789 1028M1711 1010L1603 1050M1711 1010L1715 1056M1789 1028L1715 1056M1789 1028L1835 1042M1789 1028L1854 1104M1903 981L1987 1002M1903 981L1835 1042M1903 981L1971 1077M1987 1002L2056 1038M1987 1002L1971 1077M1987 1002L2045 1067M2056 1038L2045 1067M2056 1038L2130 1055M2136 988L2203 1014M2136 988L2130 1055M2203 1014L2130 1055M2203 1014L2217 1100M2203 1014L2269 1045M2290 1008L2384 990M2290 1008L2217 1100M2290 1008L2269 1045M2290 1008L2337 1069M2384 990L2406 1016M2384 990L2403 1084M2406 1016L2496 992M2406 1016L2337 1069M2406 1016L2403 1084M2496 992L2521 1062M57 1071L83 1077M57 1071L-39 1062M57 1071L32 1133M57 1071L133 1136M2617 1071L2521 1062M83 1077L162 1099M83 1077L32 1133M83 1077L133 1136M162 1099L246 1109M162 1099L133 1136M162 1099L229 1128M246 1109L229 1128M246 1109L251 1177M350 1110L406 1065M350 1110L349 1159M350 1110L437 1200M406 1065L349 1159M547 1116L589 1091M547 1116L494 1169M547 1116L582 1190M547 1116L649 1123M589 1091L664 1089M589 1091L649 1123M664 1089L649 1123M664 1089L723 1158M797 1057L819 1117M819 1117L906 1053M819 1117L723 1158M819 1117L862 1194M906 1053L928 1149M1029 1113L1097 1044M1029 1113L928 1149M1029 1113L972 1170M1029 1113L1107 1137M1097 1044L1182 1055M1182 1055L1278 1084M1182 1055L1168 1129M1278 1084L1290 1115M1278 1084L1265 1125M1278 1084L1310 1157M1290 1115L1265 1125M1290 1115L1310 1157M1290 1115L1213 1209M1431 1052L1477 1051M1592 1099L1603 1050M1592 1099L1559 1187M1592 1099L1612 1181M1603 1050L1715 1056M1835 1042L1854 1104M1854 1104L1882 1147M1854 1104L1944 1177M1971 1077L2045 1067M1971 1077L1944 1177M2045 1067L2130 1055M2045 1067L2101 1123M2130 1055L2101 1123M2217 1100L2269 1045M2217 1100L2226 1165M2217 1100L2310 1132M2269 1045L2337 1069M2269 1045L2310 1132M2337 1069L2403 1084M2337 1069L2310 1132M2403 1084L2462 1166M2521 1062L2592 1133M-39 1062L32 1133M32 1133L133 1136M32 1133L-58 1184M2592 1133L2502 1184M133 1136L229 1128M229 1128L251 1177M229 1128L282 1204M251 1177L349 1159M251 1177L165 1241M251 1177L282 1204M349 1159L437 1200M349 1159L282 1204M437 1200L494 1169M437 1200L468 1224M437 1200L371 1305M494 1169L582 1190M494 1169L468 1224M582 1190L649 1123M582 1190L559 1268M582 1190L592 1266M649 1123L723 1158M723 1158L695 1262M723 1158L749 1260M862 1194L928 1149M862 1194L861 1220M862 1194L888 1267M928 1149L972 1170M928 1149L861 1220M972 1170L1007 1274M1107 1137L1168 1129M1168 1129L1265 1125M1168 1129L1141 1234M1168 1129L1213 1209M1265 1125L1310 1157M1265 1125L1213 1209M1310 1157L1385 1183M1310 1157L1351 1232M1385 1183L1440 1188M1385 1183L1351 1232M1385 1183L1389 1210M1440 1188L1389 1210M1440 1188L1518 1202M1559 1187L1612 1181M1559 1187L1518 1202M1559 1187L1592 1215M1612 1181L1683 1180M1612 1181L1592 1215M1683 1180L1784 1177M1683 1180L1592 1215M1683 1180L1679 1264M1784 1177L1882 1147M1784 1177L1737 1268M1784 1177L1827 1244M1784 1177L1861 1245M1882 1147L1944 1177M1882 1147L1861 1245M1882 1147L1944 1234M1944 1177L1944 1234M2055 1165L2101 1123M2055 1165L2063 1232M2055 1165L2113 1231M2101 1123L2063 1232M2101 1123L2113 1231M2226 1165L2310 1132M2226 1165L2233 1254M2226 1165L2288 1235M2310 1132L2361 1202M2377 1192L2462 1166M2377 1192L2288 1235M2377 1192L2361 1202M2462 1166L2502 1184M2462 1166L2462 1262M2462 1166L2493 1210M2502 1184L2462 1262M2502 1184L2493 1210M30 1268L124 1248M30 1268L-67 1210M30 1268L68 1335M30 1268L-4 1328M2590 1268L2493 1210M2590 1268L2556 1328M124 1248L165 1241M124 1248L148 1298M165 1241L148 1298M165 1241L168 1344M282 1204L333 1276M282 1204L302 1301M333 1276L302 1301M333 1276L371 1305M468 1224L513 1290M559 1268L592 1266M559 1268L513 1290M559 1268L561 1351M559 1268L506 1366M592 1266L561 1351M695 1262L749 1260M695 1262L683 1341M695 1262L730 1329M695 1262L694 1374M749 1260L683 1341M749 1260L730 1329M749 1260L831 1306M861 1220L888 1267M861 1220L831 1306M888 1267L831 1306M888 1267L919 1341M888 1267L877 1370M1007 1274L1081 1274M1007 1274L976 1336M1007 1274L1085 1288M1081 1274L1141 1234M1081 1274L1085 1288M1081 1274L1130 1349M1141 1234L1213 1209M1141 1234L1085 1288M1213 1209L1235 1300M1351 1232L1389 1210M1351 1232L1347 1318M1351 1232L1363 1326M1518 1202L1592 1215M1592 1215L1644 1288M1679 1264L1737 1268M1679 1264L1644 1288M1679 1264L1698 1343M1737 1268L1827 1244M1737 1268L1644 1288M1737 1268L1698 1343M1827 1244L1861 1245M1827 1244L1820 1343M1827 1244L1871 1312M1861 1245L1944 1234M1861 1245L1871 1312M1944 1234L1978 1334M1944 1234L2004 1299M2063 1232L2113 1231M2063 1232L2004 1299M2063 1232L2096 1319M2113 1231L2096 1319M2113 1231L2167 1287M2233 1254L2288 1235M2233 1254L2167 1287M2233 1254L2273 1332M2288 1235L2361 1202M2288 1235L2273 1332M2462 1262L2493 1210M2462 1262L2479 1309M2462 1262L2460 1364M2493 1210L2479 1309M68 1335L148 1298M68 1335L168 1344M68 1335L-4 1328M68 1335L99 1389M2628 1335L2556 1328M148 1298L168 1344M168 1344L99 1389M168 1344L184 1383M302 1301L371 1305M371 1305L458 1336M458 1336L513 1290M458 1336L469 1440M458 1336L506 1366M513 1290L561 1351M513 1290L506 1366M561 1351L506 1366M561 1351L617 1388M683 1341L730 1329M683 1341L617 1388M683 1341L694 1374M730 1329L694 1374M730 1329L771 1420M831 1306L919 1341M831 1306L877 1370M919 1341L976 1336M919 1341L877 1370M919 1341L929 1398M976 1336L929 1398M976 1336L990 1425M1085 1288L1130 1349M1085 1288L1124 1394M1130 1349L1103 1421M1130 1349L1124 1394M1235 1300L1347 1318M1235 1300L1241 1406M1347 1318L1363 1326M1347 1318L1471 1303M1347 1318L1327 1397M1363 1326L1471 1303M1363 1326L1327 1397M1363 1326L1389 1426M1471 1303L1574 1325M1471 1303L1469 1381M1471 1303L1567 1372M1574 1325L1644 1288M1574 1325L1567 1372M1644 1288L1698 1343M1698 1343L1645 1407M1698 1343L1692 1380M1820 1343L1871 1312M1820 1343L1832 1408M1978 1334L2004 1299M1978 1334L1919 1415M1978 1334L1995 1393M1978 1334L2048 1380M2004 1299L1995 1393M2096 1319L2167 1287M2096 1319L2048 1380M2096 1319L2103 1361M2167 1287L2103 1361M2273 1332L2323 1357M2273 1332L2228 1402M2323 1357L2228 1402M2323 1357L2382 1420M2479 1309L2556 1328M2479 1309L2460 1364M2479 1309L2486 1407M2556 1328L2578 1431M2556 1328L2486 1407M-4 1328L18 1431M18 1431L99 1389M18 1431L-74 1407M2578 1431L2486 1407M99 1389L184 1383M184 1383L264 1430M264 1430L330 1440M469 1440L506 1366M617 1388L694 1374M694 1374L771 1420M877 1370L929 1398M929 1398L990 1425M1103 1421L1124 1394M1327 1397L1389 1426M1389 1426L1469 1381M1469 1381L1567 1372M1567 1372L1645 1407M1567 1372L1692 1380M1645 1407L1692 1380M1832 1408L1919 1415M1919 1415L1995 1393M1995 1393L2048 1380M2048 1380L2103 1361M2228 1402L2260 1437M2382 1420L2460 1364M2460 1364L2486 1407"/></svg>