<svg xmlns="http://www.w3.org/2000/svg" width="2560" height="1440" fill="#fff"><circle cx="52" cy="59" r="4"/><circle cx="96" cy="56" r="5"/><circle cx="192" cy="30" r="5"/><circle cx="300" cy="45" r="5"/><circle cx="369" cy="41" r="4"/><circle cx="432" cy="64" r="5"/><circle cx="553" cy="73" r="5"/><circle cx="637" cy="75" r="5"/><circle cx="691" cy="46" r="4"/><circle cx="745" cy="30" r="5"/><circle cx="871" cy="27" r="5"/><circle cx="906" cy="68" r="5"/><circle cx="1023" cy="47" r="6"/><circle cx="1051" cy="36" r="5"/><circle cx="1147" cy="22" r="5"/><circle cx="1278" cy="65" r="5"/><circle cx="1354" cy="69" r="5"/><circle cx="1390" cy="6" r="4"/><circle cx="1494" cy="20" r="6"/><circle cx="1565" cy="15" r="4"/><circle cx="1636" cy="77" r="6"/><circle cx="1727" cy="78" r="6"/><circle cx="1828" cy="33" r="4"/><circle cx="1842" cy="75" r="5"/><circle cx="1967" cy="35" r="6"/><circle cx="2006" cy="18" r="5"/><circle cx="2140" cy="34" r="6"/><circle cx="2199" cy="49" r="6"/><circle cx="2256" cy="5" r="5"/><circle cx="2256" cy="1445" r="5"/><circle cx="2375" cy="74" r="5"/><circle cx="2475" cy="21" r="6"/><circle cx="2481" cy="36" r="5"/><circle cx="36" cy="92" r="6"/><circle cx="120" cy="105" r="6"/><circle cx="225" cy="106" r="4"/><circle cx="295" cy="106" r="4"/><circle cx="366" cy="115" r="4"/><circle cx="449" cy="97" r="5"/><circle cx="555" cy="107" r="4"/><circle cx="579" cy="109" r="5"/><circle cx="696" cy="155" r="5"/><circle cx="800" cy="142" r="5"/><circle cx="851" cy="125" r="5"/><circle cx="933" cy="147" r="6"/><circle cx="989" cy="148" r="6"/><circle cx="1061" cy="121" r="5"/><circle cx="1129" cy="132" r="4"/><circle cx="1205" cy="108" r="6"/><circle cx="1324" cy="99" r="4"/><circle cx="1370" cy="153" r="5"/><circle cx="1462" cy="134" r="4"/><circle cx="1555" cy="142" r="4"/><circle cx="1658" cy="127" r="5"/><circle cx="1711" cy="91" r="6"/><circle cx="1840" cy="146" r="6"/><circle cx="1883" cy="131" r="5"/><circle cx="1935" cy="113" r="5"/><circle cx="2016" cy="108" r="5"/><circle cx="2136" cy="89" r="6"/><circle cx="2174" cy="88" r="6"/><circle cx="2255" cy="89" r="5"/><circle cx="2359" cy="91" r="4"/><circle cx="2412" cy="129" r="5"/><circle cx="2523" cy="116" r="5"/><circle cx="45" cy="215" r="4"/><circle cx="108" cy="164" r="5"/><circle cx="165" cy="215" r="4"/><circle cx="262" cy="187" r="6"/><circle cx="338" cy="203" r="5"/><circle cx="452" cy="184" r="4"/><circle cx="509" cy="201" r="6"/><circle cx="628" cy="162" r="5"/><circle cx="650" cy="167" r="6"/><circle cx="749" cy="207" r="5"/><circle cx="805" cy="167" r="4"/><circle cx="894" cy="181" r="5"/><circle cx="967" cy="167" r="6"/><circle cx="1096" cy="174" r="5"/><circle cx="1147" cy="182" r="5"/><circle cx="1243" cy="221" r="4"/><circle cx="1344" cy="237" r="6"/><circle cx="1422" cy="166" r="5"/><circle cx="1487" cy="193" r="6"/><circle cx="1537" cy="221" r="5"/><circle cx="1641" cy="185" r="5"/><circle cx="1720" cy="231" r="4"/><circle cx="1772" cy="226" r="5"/><circle cx="1884" cy="225" r="6"/><circle cx="1942" cy="222" r="6"/><circle cx="2061" cy="202" r="5"/><circle cx="2114" cy="209" r="5"/><circle cx="2235" cy="234" r="6"/><circle cx="2273" cy="218" r="5"/><circle cx="2346" cy="240" r="4"/><circle cx="2480" cy="227" r="6"/><circle cx="2504" cy="186" r="5"/><circle cx="39" cy="245" r="6"/><circle cx="86" cy="279" r="4"/><circle cx="172" cy="316" r="4"/><circle cx="292" cy="242" r="6"/><circle cx="340" cy="256" r="5"/><circle cx="411" cy="292" r="4"/><circle cx="519" cy="286" r="5"/><circle cx="586" cy="244" r="4"/><circle cx="681" cy="295" r="5"/><circle cx="771" cy="276" r="4"/><circle cx="800" cy="294" r="6"/><circle cx="959" cy="263" r="4"/><circle cx="970" cy="274" r="6"/><circle cx="1101" cy="308" r="6"/><circle cx="1122" cy="294" r="5"/><circle cx="1234" cy="247" r="6"/><circle cx="1282" cy="292" r="6"/><circle cx="1362" cy="264" r="6"/><circle cx="1517" cy="284" r="4"/><circle cx="1549" cy="261" r="5"/><circle cx="1666" cy="269" r="6"/><circle cx="1693" cy="244" r="5"/><circle cx="1813" cy="314" r="5"/><circle cx="1874" cy="311" r="6"/><circle cx="2000" cy="308" r="6"/><circle cx="2032" cy="300" r="5"/><circle cx="2124" cy="293" r="5"/><circle cx="2194" cy="280" r="4"/><circle cx="2318" cy="250" r="6"/><circle cx="2322" cy="307" r="5"/><circle cx="2461" cy="308" r="5"/><circle cx="2516" cy="302" r="5"/><circle cx="26" cy="323" r="4"/><circle cx="127" cy="378" r="5"/><circle cx="192" cy="391" r="4"/><circle cx="242" cy="364" r="5"/><circle cx="370" cy="371" r="5"/><circle cx="432" cy="376" r="5"/><circle cx="497" cy="323" r="5"/><circle cx="598" cy="352" r="5"/><circle cx="679" cy="324" r="4"/><circle cx="746" cy="383" r="4"/><circle cx="840" cy="382" r="4"/><circle cx="957" cy="345" r="5"/><circle cx="987" cy="357" r="5"/><circle cx="1071" cy="345" r="4"/><circle cx="1164" cy="346" r="5"/><circle cx="1205" cy="365" r="6"/><circle cx="1355" cy="364" r="5"/><circle cx="1412" cy="326" r="5"/><circle cx="1451" cy="370" r="6"/><circle cx="1538" cy="371" r="4"/><circle cx="1641" cy="334" r="5"/><circle cx="1740" cy="386" r="6"/><circle cx="1825" cy="373" r="6"/><circle cx="1842" cy="384" r="6"/><circle cx="1941" cy="387" r="6"/><circle cx="2053" cy="335" r="6"/><circle cx="2094" cy="329" r="5"/><circle cx="2223" cy="394" r="5"/><circle cx="2242" cy="369" r="5"/><circle cx="2396" cy="387" r="4"/><circle cx="2420" cy="373" r="4"/><circle cx="2483" cy="392" r="5"/><circle cx="55" cy="459" r="4"/><circle cx="126" cy="465" r="4"/><circle cx="214" cy="405" r="6"/><circle cx="292" cy="466" r="5"/><circle cx="380" cy="480" r="4"/><circle cx="438" cy="421" r="5"/><circle cx="501" cy="466" r="4"/><circle cx="589" cy="430" r="4"/><circle cx="644" cy="443" r="4"/><circle cx="741" cy="443" r="5"/><circle cx="854" cy="473" r="5"/><circle cx="894" cy="416" r="5"/><circle cx="1036" cy="435" r="5"/><circle cx="1055" cy="405" r="5"/><circle cx="1158" cy="465" r="5"/><circle cx="1261" cy="417" r="4"/><circle cx="1307" cy="471" r="5"/><circle cx="1392" cy="434" r="5"/><circle cx="1497" cy="470" r="5"/><circle cx="1561" cy="424" r="5"/><circle cx="1637" cy="437" r="6"/><circle cx="1742" cy="421" r="5"/><circle cx="1776" cy="475" r="4"/><circle cx="1918" cy="449" r="5"/><circle cx="1972" cy="429" r="5"/><circle cx="2010" cy="406" r="6"/><circle cx="2091" cy="444" r="6"/><circle cx="2177" cy="414" r="5"/><circle cx="2316" cy="422" r="5"/><circle cx="2366" cy="426" r="5"/><circle cx="2449" cy="428" r="4"/><circle cx="2497" cy="411" r="5"/><circle cx="36" cy="539" r="6"/><circle cx="157" cy="553" r="4"/><circle cx="186" cy="519" r="5"/><circle cx="257" cy="502" r="6"/><circle cx="359" cy="490" r="5"/><circle cx="414" cy="512" r="4"/><circle cx="484" cy="539" r="5"/><circle cx="615" cy="520" r="6"/><circle cx="692" cy="487" r="6"/><circle cx="752" cy="547" r="5"/><circle cx="864" cy="487" r="6"/><circle cx="899" cy="525" r="4"/><circle cx="962" cy="509" r="5"/><circle cx="1083" cy="524" r="5"/><circle cx="1200" cy="531" r="4"/><circle cx="1211" cy="559" r="4"/><circle cx="1351" cy="534" r="4"/><circle cx="1406" cy="558" r="5"/><circle cx="1495" cy="482" r="5"/><circle cx="1591" cy="493" r="5"/><circle cx="1664" cy="481" r="6"/><circle cx="1758" cy="520" r="6"/><circle cx="1782" cy="560" r="4"/><circle cx="1882" cy="553" r="6"/><circle cx="1981" cy="521" r="4"/><circle cx="2026" cy="556" r="4"/><circle cx="2083" cy="486" r="5"/><circle cx="2184" cy="501" r="6"/><circle cx="2291" cy="502" r="6"/><circle cx="2338" cy="523" r="5"/><circle cx="2445" cy="524" r="4"/><circle cx="2488" cy="516" r="5"/><circle cx="38" cy="626" r="6"/><circle cx="149" cy="590" r="5"/><circle cx="171" cy="607" r="4"/><circle cx="281" cy="623" r="4"/><circle cx="373" cy="620" r="5"/><circle cx="406" cy="616" r="6"/><circle cx="513" cy="635" r="4"/><circle cx="574" cy="587" r="5"/><circle cx="706" cy="621" r="6"/><circle cx="727" cy="564" r="5"/><circle cx="812" cy="620" r="5"/><circle cx="942" cy="631" r="5"/><circle cx="1006" cy="599" r="6"/><circle cx="1068" cy="624" r="6"/><circle cx="1133" cy="606" r="5"/><circle cx="1262" cy="626" r="4"/><circle cx="1335" cy="615" r="6"/><circle cx="1391" cy="639" r="4"/><circle cx="1459" cy="611" r="5"/><circle cx="1593" cy="567" r="5"/><circle cx="1649" cy="582" r="6"/><circle cx="1715" cy="600" r="5"/><circle cx="1774" cy="562" r="5"/><circle cx="1840" cy="612" r="5"/><circle cx="1991" cy="573" r="6"/><circle cx="2049" cy="569" r="4"/><circle cx="2098" cy="624" r="5"/><circle cx="2165" cy="618" r="6"/><circle cx="2255" cy="611" r="5"/><circle cx="2321" cy="586" r="5"/><circle cx="2456" cy="578" r="4"/><circle cx="2519" cy="581" r="5"/><circle cx="19" cy="682" r="5"/><circle cx="117" cy="673" r="4"/><circle cx="160" cy="665" r="4"/><circle cx="269" cy="704" r="4"/><circle cx="341" cy="677" r="4"/><circle cx="468" cy="696" r="4"/><circle cx="526" cy="714" r="4"/><circle cx="630" cy="699" r="5"/><circle cx="692" cy="667" r="5"/><circle cx="735" cy="696" r="5"/><circle cx="820" cy="692" r="5"/><circle cx="907" cy="678" r="5"/><circle cx="1008" cy="689" r="5"/><circle cx="1075" cy="720" r="5"/><circle cx="1149" cy="699" r="5"/><circle cx="1203" cy="641" r="4"/><circle cx="1302" cy="694" r="5"/><circle cx="1361" cy="701" r="4"/><circle cx="1497" cy="645" r="4"/><circle cx="1544" cy="679" r="4"/><circle cx="1630" cy="706" r="5"/><circle cx="1702" cy="655" r="6"/><circle cx="1831" cy="668" r="5"/><circle cx="1877" cy="653" r="6"/><circle cx="1947" cy="690" r="5"/><circle cx="2067" cy="663" r="5"/><circle cx="2089" cy="718" r="5"/><circle cx="2224" cy="682" r="5"/><circle cx="2259" cy="641" r="6"/><circle cx="2325" cy="698" r="5"/><circle cx="2411" cy="720" r="5"/><circle cx="2540" cy="651" r="4"/><circle cx="39" cy="788" r="6"/><circle cx="99" cy="771" r="4"/><circle cx="230" cy="783" r="5"/><circle cx="248" cy="760" r="4"/><circle cx="371" cy="756" r="5"/><circle cx="469" cy="756" r="4"/><circle cx="486" cy="776" r="6"/><circle cx="639" cy="756" r="6"/><circle cx="644" cy="728" r="6"/><circle cx="724" cy="746" r="4"/><circle cx="832" cy="793" r="5"/><circle cx="945" cy="722" r="4"/><circle cx="968" cy="762" r="5"/><circle cx="1119" cy="772" r="5"/><circle cx="1183" cy="723" r="5"/><circle cx="1232" cy="774" r="5"/><circle cx="1349" cy="742" r="5"/><circle cx="1365" cy="781" r="6"/><circle cx="1472" cy="742" r="5"/><circle cx="1561" cy="796" r="5"/><circle cx="1668" cy="790" r="5"/><circle cx="1735" cy="789" r="6"/><circle cx="1793" cy="789" r="4"/><circle cx="1912" cy="746" r="5"/><circle cx="1922" cy="747" r="6"/><circle cx="2006" cy="753" r="5"/><circle cx="2111" cy="736" r="4"/><circle cx="2231" cy="796" r="6"/><circle cx="2275" cy="767" r="5"/><circle cx="2360" cy="725" r="5"/><circle cx="2469" cy="789" r="5"/><circle cx="2481" cy="799" r="5"/><circle cx="30" cy="837" r="5"/><circle cx="159" cy="802" r="4"/><circle cx="186" cy="863" r="5"/><circle cx="308" cy="818" r="5"/><circle cx="331" cy="832" r="6"/><circle cx="407" cy="849" r="4"/><circle cx="556" cy="818" r="5"/><circle cx="565" cy="857" r="6"/><circle cx="665" cy="834" r="4"/><circle cx="795" cy="874" r="5"/><circle cx="873" cy="853" r="5"/><circle cx="951" cy="823" r="5"/><circle cx="1013" cy="817" r="6"/><circle cx="1119" cy="841" r="5"/><circle cx="1166" cy="835" r="4"/><circle cx="1216" cy="848" r="4"/><circle cx="1315" cy="817" r="5"/><circle cx="1387" cy="851" r="6"/><circle cx="1453" cy="876" r="5"/><circle cx="1540" cy="824" r="5"/><circle cx="1643" cy="853" r="4"/><circle cx="1755" cy="834" r="6"/><circle cx="1831" cy="819" r="5"/><circle cx="1918" cy="854" r="6"/><circle cx="1934" cy="857" r="5"/><circle cx="2061" cy="874" r="6"/><circle cx="2115" cy="815" r="4"/><circle cx="2204" cy="870" r="6"/><circle cx="2257" cy="849" r="6"/><circle cx="2356" cy="827" r="5"/><circle cx="2402" cy="875" r="4"/><circle cx="2520" cy="869" r="6"/><circle cx="40" cy="960" r="5"/><circle cx="100" cy="936" r="6"/><circle cx="240" cy="926" r="5"/><circle cx="279" cy="914" r="4"/><circle cx="384" cy="900" r="5"/><circle cx="416" cy="950" r="4"/><circle cx="534" cy="937" r="5"/><circle cx="615" cy="920" r="5"/><circle cx="659" cy="941" r="5"/><circle cx="750" cy="952" r="5"/><circle cx="878" cy="931" r="6"/><circle cx="938" cy="893" r="5"/><circle cx="1020" cy="884" r="5"/><circle cx="1055" cy="900" r="4"/><circle cx="1149" cy="891" r="6"/><circle cx="1249" cy="945" r="4"/><circle cx="1286" cy="882" r="4"/><circle cx="1429" cy="918" r="4"/><circle cx="1442" cy="949" r="5"/><circle cx="1527" cy="895" r="5"/><circle cx="1633" cy="893" r="6"/><circle cx="1719" cy="888" r="5"/><circle cx="1818" cy="890" r="5"/><circle cx="1878" cy="883" r="5"/><circle cx="1935" cy="884" r="4"/><circle cx="2043" cy="916" r="5"/><circle cx="2115" cy="957" r="4"/><circle cx="2172" cy="903" r="5"/><circle cx="2267" cy="907" r="4"/><circle cx="2344" cy="914" r="5"/><circle cx="2419" cy="886" r="6"/><circle cx="2480" cy="949" r="4"/><circle cx="24" cy="1005" r="4"/><circle cx="131" cy="977" r="5"/><circle cx="196" cy="1030" r="5"/><circle cx="301" cy="976" r="6"/><circle cx="388" cy="997" r="4"/><circle cx="413" cy="1011" r="5"/><circle cx="537" cy="962" r="5"/><circle cx="624" cy="963" r="4"/><circle cx="669" cy="992" r="6"/><circle cx="796" cy="976" r="5"/><circle cx="866" cy="1030" r="6"/><circle cx="897" cy="993" r="5"/><circle cx="1020" cy="997" r="5"/><circle cx="1117" cy="963" r="5"/><circle cx="1121" cy="988" r="5"/><circle cx="1273" cy="1040" r="6"/><circle cx="1360" cy="990" r="5"/><circle cx="1423" cy="1023" r="6"/><circle cx="1520" cy="1014" r="5"/><circle cx="1576" cy="1012" r="4"/><circle cx="1634" cy="1030" r="5"/><circle cx="1728" cy="1029" r="5"/><circle cx="1835" cy="1017" r="5"/><circle cx="1909" cy="993" r="5"/><circle cx="1934" cy="1017" r="5"/><circle cx="2025" cy="968" r="6"/><circle cx="2084" cy="1018" r="5"/><circle cx="2215" cy="1035" r="6"/><circle cx="2278" cy="1027" r="5"/><circle cx="2360" cy="993" r="4"/><circle cx="2409" cy="992" r="6"/><circle cx="2534" cy="1029" r="6"/><circle cx="13" cy="1083" r="6"/><circle cx="110" cy="1054" r="5"/><circle cx="213" cy="1073" r="5"/><circle cx="301" cy="1072" r="5"/><circle cx="357" cy="1078" r="5"/><circle cx="448" cy="1059" r="5"/><circle cx="513" cy="1058" r="5"/><circle cx="618" cy="1103" r="5"/><circle cx="659" cy="1058" r="4"/><circle cx="748" cy="1067" r="5"/><circle cx="803" cy="1048" r="6"/><circle cx="911" cy="1106" r="5"/><circle cx="1040" cy="1074" r="5"/><circle cx="1042" cy="1068" r="4"/><circle cx="1142" cy="1057" r="5"/><circle cx="1217" cy="1112" r="5"/><circle cx="1307" cy="1045" r="5"/><circle cx="1406" cy="1040" r="5"/><circle cx="1464" cy="1067" r="4"/><circle cx="1561" cy="1119" r="5"/><circle cx="1619" cy="1097" r="5"/><circle cx="1701" cy="1070" r="4"/><circle cx="1806" cy="1118" r="5"/><circle cx="1870" cy="1079" r="5"/><circle cx="1984" cy="1114" r="5"/><circle cx="2012" cy="1100" r="5"/><circle cx="2087" cy="1073" r="5"/><circle cx="2230" cy="1060" r="5"/><circle cx="2287" cy="1055" r="4"/><circle cx="2320" cy="1096" r="6"/><circle cx="2405" cy="1072" r="4"/><circle cx="2548" cy="1109" r="5"/><circle cx="5" cy="1155" r="4"/><circle cx="115" cy="1195" r="5"/><circle cx="198" cy="1149" r="5"/><circle cx="254" cy="1137" r="4"/><circle cx="351" cy="1195" r="5"/><circle cx="452" cy="1170" r="4"/><circle cx="515" cy="1124" r="5"/><circle cx="606" cy="1183" r="6"/><circle cx="654" cy="1170" r="4"/><circle cx="779" cy="1159" r="4"/><circle cx="839" cy="1125" r="4"/><circle cx="942" cy="1142" r="4"/><circle cx="1029" cy="1170" r="5"/><circle cx="1105" cy="1199" r="5"/><circle cx="1174" cy="1142" r="5"/><circle cx="1202" cy="1165" r="5"/><circle cx="1344" cy="1160" r="6"/><circle cx="1364" cy="1138" r="5"/><circle cx="1495" cy="1177" r="4"/><circle cx="1569" cy="1167" r="5"/><circle cx="1614" cy="1148" r="6"/><circle cx="1746" cy="1171" r="4"/><circle cx="1794" cy="1165" r="4"/><circle cx="1850" cy="1200" r="5"/><circle cx="1945" cy="1167" r="6"/><circle cx="2004" cy="1188" r="4"/><circle cx="2121" cy="1131" r="6"/><circle cx="2216" cy="1186" r="4"/><circle cx="2310" cy="1181" r="6"/><circle cx="2336" cy="1150" r="5"/><circle cx="2444" cy="1192" r="6"/><circle cx="2555" cy="1150" r="4"/><circle cx="71" cy="1210" r="4"/><circle cx="91" cy="1257" r="5"/><circle cx="228" cy="1206" r="4"/><circle cx="305" cy="1268" r="5"/><circle cx="322" cy="1269" r="4"/><circle cx="446" cy="1241" r="6"/><circle cx="484" cy="1204" r="4"/><circle cx="578" cy="1261" r="4"/><circle cx="705" cy="1250" r="6"/><circle cx="788" cy="1246" r="5"/><circle cx="819" cy="1243" r="4"/><circle cx="889" cy="1234" r="5"/><circle cx="973" cy="1255" r="4"/><circle cx="1065" cy="1268" r="4"/><circle cx="1132" cy="1231" r="5"/><circle cx="1232" cy="1259" r="5"/><circle cx="1343" cy="1237" r="6"/><circle cx="1371" cy="1275" r="4"/><circle cx="1509" cy="1220" r="6"/><circle cx="1560" cy="1250" r="5"/><circle cx="1620" cy="1251" r="4"/><circle cx="1713" cy="1206" r="4"/><circle cx="1813" cy="1231" r="6"/><circle cx="1874" cy="1277" r="4"/><circle cx="1935" cy="1263" r="4"/><circle cx="2010" cy="1217" r="5"/><circle cx="2126" cy="1212" r="5"/><circle cx="2175" cy="1209" r="5"/><circle cx="2299" cy="1225" r="4"/><circle cx="2364" cy="1235" r="5"/><circle cx="2467" cy="1231" r="4"/><circle cx="2517" cy="1279" r="5"/><circle cx="11" cy="1296" r="4"/><circle cx="147" cy="1312" r="4"/><circle cx="219" cy="1297" r="4"/><circle cx="264" cy="1350" r="4"/><circle cx="398" cy="1285" r="4"/><circle cx="422" cy="1281" r="4"/><circle cx="502" cy="1281" r="5"/><circle cx="599" cy="1337" r="5"/><circle cx="657" cy="1304" r="4"/><circle cx="773" cy="1288" r="6"/><circle cx="860" cy="1352" r="6"/><circle cx="954" cy="1352" r="6"/><circle cx="977" cy="1299" r="6"/><circle cx="1076" cy="1286" r="6"/><circle cx="1180" cy="1299" r="4"/><circle cx="1216" cy="1294" r="6"/><circle cx="1328" cy="1302" r="4"/><circle cx="1415" cy="1299" r="5"/><circle cx="1487" cy="1314" r="5"/><circle cx="1536" cy="1323" r="5"/><circle cx="1658" cy="1289" r="5"/><circle cx="1698" cy="1329" r="5"/><circle cx="1820" cy="1306" r="5"/><circle cx="1896" cy="1286" r="5"/><circle cx="1960" cy="1285" r="5"/><circle cx="2037" cy="1285" r="5"/><circle cx="2105" cy="1299" r="5"/><circle cx="2208" cy="1323" r="6"/><circle cx="2273" cy="1348" r="5"/><circle cx="2375" cy="1287" r="6"/><circle cx="2429" cy="1309" r="4"/><circle cx="2539" cy="1315" r="5"/><circle cx="34" cy="1395" r="5"/><circle cx="136" cy="1361" r="6"/><circle cx="208" cy="1391" r="5"/><circle cx="282" cy="1389" r="5"/><circle cx="347" cy="1435" r="6"/><circle cx="347" cy="-5" r="6"/><circle cx="435" cy="1427" r="5"/><circle cx="551" cy="1379" r="5"/><circle cx="564" cy="1405" r="5"/><circle cx="659" cy="1413" r="6"/><circle cx="755" cy="1395" r="5"/><circle cx="859" cy="1383" r="5"/><circle cx="945" cy="1423" r="6"/><circle cx="1007" cy="1431" r="4"/><circle cx="1053" cy="1364" r="5"/><circle cx="1127" cy="1429" r="5"/><circle cx="1277" cy="1408" r="5"/><circle cx="1318" cy="1369" r="5"/><circle cx="1407" cy="1386" r="4"/><circle cx="1476" cy="1365" r="6"/><circle cx="1562" cy="1432" r="4"/><circle cx="1676" cy="1428" r="4"/><circle cx="1724" cy="1370" r="5"/><circle cx="1840" cy="1370" r="5"/><circle cx="1903" cy="1394" r="5"/><circle cx="1941" cy="1391" r="5"/><circle cx="2007" cy="1386" r="5"/><circle cx="2107" cy="1395" r="5"/><circle cx="2211" cy="1417" r="6"/><circle cx="2287" cy="1388" r="4"/><circle cx="2396" cy="1401" r="5"/><circle cx="2414" cy="1387" r="5"/><circle cx="2543" cy="1378" r="4"/><path stroke="#fff" d="M52 59L96 56M52 59L36 92M52 59L120 105M52 59L34 -45M52 1499L34 1395M96 56L192 30M96 56L36 92M96 56L120 105M192 30L120 105M192 30L225 106M192 30L208 -49M192 1470L208 1391M300 45L369 41M300 45L295 106M300 45L282 -51M300 45L347 -5M300 1485L282 1389M300 1485L347 1435M369 41L432 64M369 41L366 115M369 41L347 -5M369 41L435 -13M369 1481L347 1435M369 1481L435 1427M432 64L366 115M432 64L449 97M432 64L347 -5M432 64L435 -13M432 1504L347 1435M432 1504L435 1427M553 73L637 75M553 73L449 97M553 73L555 107M553 73L579 109M553 73L564 -35M553 1513L564 1405M637 75L691 46M637 75L579 109M637 75L628 162M637 75L650 167M691 46L745 30M691 46L696 155M691 46L659 -27M691 1486L659 1413M745 30L659 -27M745 30L755 -45M745 1470L659 1413M745 1470L755 1395M871 27L906 68M871 27L859 -57M871 27L945 -17M871 1467L859 1383M871 1467L945 1423M906 68L851 125M906 68L933 147M906 68L945 -17M906 1508L945 1423M1023 47L1051 36M1023 47L989 148M1023 47L1061 121M1023 47L1007 -9M1023 1487L1007 1431M1051 36L1147 22M1051 36L1061 121M1051 36L1007 -9M1051 36L1127 -11M1051 1476L1007 1431M1051 1476L1127 1429M1147 22L1129 132M1147 22L1205 108M1147 22L1127 -11M1147 1462L1127 1429M1278 65L1354 69M1278 65L1205 108M1278 65L1324 99M1278 65L1277 -32M1278 1505L1277 1408M1354 69L1390 6M1354 69L1324 99M1354 69L1370 153M1390 6L1494 20M1390 6L1318 -71M1390 6L1407 -54M1390 1446L1318 1369M1390 1446L1407 1386M1494 20L1565 15M1494 20L1407 -54M1494 20L1476 -75M1494 20L1562 -8M1494 1460L1407 1386M1494 1460L1476 1365M1494 1460L1562 1432M1565 15L1636 77M1565 15L1562 -8M1565 1455L1562 1432M1636 77L1727 78M1636 77L1658 127M1636 77L1711 91M1636 77L1641 185M1727 78L1842 75M1727 78L1658 127M1727 78L1711 91M1727 78L1676 -12M1727 1518L1676 1428M1828 33L1842 75M1828 33L1840 -70M1828 33L1903 -46M1828 1473L1840 1370M1828 1473L1903 1394M1842 75L1840 146M1842 75L1883 131M1842 75L1935 113M1967 35L2006 18M1967 35L1935 113M1967 35L2016 108M1967 35L1941 -49M1967 35L2007 -54M1967 1475L1941 1391M1967 1475L2007 1386M2006 18L2016 108M2006 18L1941 -49M2006 18L2007 -54M2006 1458L1941 1391M2006 1458L2007 1386M2140 34L2199 49M2140 34L2136 89M2140 34L2174 88M2140 34L2107 -45M2140 34L2211 -23M2140 1474L2107 1395M2140 1474L2211 1417M2199 49L2136 89M2199 49L2174 88M2199 49L2255 89M2199 49L2211 -23M2199 1489L2211 1417M2256 5L2255 89M2256 5L2273 -92M2256 5L2211 -23M2256 5L2287 -52M2256 1445L2273 1348M2256 1445L2211 1417M2256 1445L2287 1388M2375 74L2475 21M2375 74L2481 36M2375 74L2359 91M2375 74L2412 129M2375 74L2396 -39M2375 1514L2396 1401M2475 21L2481 36M2475 21L2523 116M2475 21L2396 -39M2475 21L2414 -53M2475 1461L2396 1401M2475 1461L2414 1387M2481 36L2523 116M2481 36L2396 -39M2481 1476L2396 1401M36 92L120 105M36 92L-37 116M36 92L108 164M2596 92L2523 116M120 105L108 164M225 106L295 106M225 106L262 187M295 106L366 115M295 106L262 187M295 106L338 203M366 115L449 97M366 115L338 203M449 97L452 184M449 97L435 -13M449 1537L435 1427M555 107L579 109M555 107L509 201M579 109L628 162M579 109L650 167M696 155L800 142M696 155L628 162M696 155L650 167M696 155L749 207M800 142L851 125M800 142L749 207M800 142L805 167M851 125L933 147M851 125L805 167M851 125L894 181M933 147L989 148M933 147L894 181M933 147L967 167M989 148L1061 121M989 148L894 181M989 148L967 167M1061 121L1129 132M1061 121L1096 174M1129 132L1205 108M1129 132L1096 174M1129 132L1147 182M1205 108L1147 182M1205 108L1243 221M1324 99L1370 153M1370 153L1344 237M1370 153L1422 166M1370 153L1362 264M1462 134L1555 142M1462 134L1422 166M1462 134L1487 193M1555 142L1658 127M1555 142L1487 193M1555 142L1537 221M1658 127L1711 91M1658 127L1641 185M1711 91L1676 -12M1711 1531L1676 1428M1840 146L1883 131M1840 146L1935 113M1840 146L1772 226M1840 146L1884 225M1883 131L1935 113M1883 131L1884 225M1883 131L1942 222M1935 113L2016 108M2016 108L2061 202M2136 89L2174 88M2136 89L2255 89M2136 89L2114 209M2174 88L2255 89M2255 89L2359 91M2359 91L2412 129M2412 129L2523 116M2412 129L2480 227M2412 129L2504 186M2523 116L2504 186M45 215L108 164M45 215L39 245M45 215L86 279M108 164L165 215M108 164L39 245M165 215L292 242M262 187L338 203M262 187L292 242M262 187L340 256M338 203L292 242M338 203L340 256M452 184L509 201M509 201L519 286M509 201L586 244M628 162L650 167M628 162L586 244M650 167L586 244M749 207L805 167M749 207L771 276M749 207L800 294M805 167L894 181M894 181L967 167M967 167L959 263M967 167L970 274M1096 174L1147 182M1147 182L1243 221M1147 182L1234 247M1243 221L1234 247M1243 221L1282 292M1344 237L1422 166M1344 237L1234 247M1344 237L1282 292M1344 237L1362 264M1422 166L1487 193M1487 193L1537 221M1487 193L1549 261M1537 221L1517 284M1537 221L1549 261M1641 185L1720 231M1641 185L1666 269M1641 185L1693 244M1720 231L1772 226M1720 231L1666 269M1720 231L1693 244M1772 226L1884 225M1772 226L1693 244M1772 226L1813 314M1884 225L1942 222M1884 225L1874 311M1942 222L2000 308M2061 202L2114 209M2114 209L2124 293M2114 209L2194 280M2235 234L2273 218M2235 234L2346 240M2235 234L2194 280M2235 234L2318 250M2235 234L2322 307M2273 218L2346 240M2273 218L2194 280M2273 218L2318 250M2273 218L2322 307M2346 240L2318 250M2346 240L2322 307M2480 227L2504 186M2480 227L2461 308M2480 227L2516 302M39 245L86 279M39 245L-44 302M39 245L26 323M2599 245L2516 302M86 279L172 316M86 279L26 323M172 316L127 378M172 316L192 391M172 316L242 364M292 242L340 256M340 256L411 292M340 256L370 371M411 292L519 286M411 292L370 371M411 292L432 376M411 292L497 323M519 286L586 244M519 286L497 323M519 286L598 352M681 295L771 276M681 295L800 294M681 295L598 352M681 295L679 324M771 276L800 294M771 276L679 324M800 294L746 383M800 294L840 382M959 263L970 274M959 263L957 345M970 274L957 345M970 274L987 357M1101 308L1122 294M1101 308L1071 345M1101 308L1164 346M1101 308L1205 365M1101 308L1055 405M1122 294L1071 345M1122 294L1164 346M1234 247L1282 292M1282 292L1362 264M1282 292L1205 365M1362 264L1355 364M1362 264L1412 326M1517 284L1549 261M1517 284L1412 326M1517 284L1538 371M1549 261L1666 269M1549 261L1641 334M1666 269L1693 244M1666 269L1641 334M1693 244L1641 334M1813 314L1874 311M1813 314L1740 386M1813 314L1825 373M1813 314L1842 384M1874 311L1825 373M1874 311L1842 384M2000 308L2032 300M2000 308L1941 387M2000 308L2053 335M2000 308L2010 406M2032 300L2124 293M2032 300L2053 335M2032 300L2094 329M2124 293L2194 280M2124 293L2053 335M2124 293L2094 329M2194 280L2242 369M2318 250L2322 307M2322 307L2242 369M2461 308L2516 302M2461 308L2420 373M2461 308L2483 392M2461 308L2497 411M2516 302L2586 323M2516 302L2483 392M-44 302L26 323M26 323L-63 411M2586 323L2497 411M127 378L192 391M127 378L242 364M127 378L126 465M127 378L214 405M192 391L242 364M192 391L214 405M242 364L214 405M242 364L292 466M370 371L432 376M370 371L438 421M432 376L497 323M432 376L438 421M432 376L501 466M598 352L679 324M598 352L589 430M598 352L644 443M679 324L746 383M746 383L840 382M746 383L741 443M840 382L854 473M840 382L894 416M840 382L864 487M957 345L987 357M957 345L894 416M987 357L1071 345M987 357L1036 435M987 357L1055 405M1071 345L1164 346M1071 345L1055 405M1164 346L1205 365M1205 365L1158 465M1205 365L1261 417M1355 364L1412 326M1355 364L1451 370M1355 364L1261 417M1355 364L1392 434M1412 326L1451 370M1451 370L1538 371M1451 370L1392 434M1451 370L1497 470M1538 371L1561 424M1641 334L1637 437M1740 386L1825 373M1740 386L1742 421M1740 386L1776 475M1825 373L1842 384M1825 373L1742 421M1842 384L1941 387M1842 384L1918 449M1941 387L1918 449M1941 387L1972 429M1941 387L2010 406M2053 335L2094 329M2053 335L2010 406M2094 329L2091 444M2223 394L2242 369M2223 394L2177 414M2242 369L2177 414M2242 369L2316 422M2396 387L2420 373M2396 387L2316 422M2396 387L2366 426M2396 387L2449 428M2420 373L2483 392M2420 373L2366 426M2420 373L2449 428M2483 392L2449 428M2483 392L2497 411M55 459L126 465M55 459L36 539M126 465L157 553M126 465L186 519M214 405L292 466M214 405L257 502M292 466L380 480M292 466L257 502M292 466L359 490M380 480L438 421M380 480L359 490M380 480L414 512M438 421L501 466M438 421L359 490M501 466L589 430M501 466L414 512M501 466L484 539M589 430L644 443M589 430L615 520M644 443L741 443M644 443L615 520M644 443L692 487M741 443L692 487M741 443L752 547M854 473L894 416M854 473L864 487M854 473L899 525M854 473L962 509M894 416L864 487M894 416L899 525M1036 435L1055 405M1036 435L962 509M1036 435L1083 524M1055 405L1158 465M1158 465L1083 524M1158 465L1200 531M1158 465L1211 559M1261 417L1307 471M1307 471L1392 434M1307 471L1351 534M1392 434L1497 470M1392 434L1495 482M1497 470L1561 424M1497 470L1495 482M1561 424L1637 437M1561 424L1495 482M1561 424L1591 493M1637 437L1591 493M1637 437L1664 481M1742 421L1776 475M1742 421L1664 481M1776 475L1758 520M1776 475L1774 562M1918 449L1972 429M1918 449L1882 553M1972 429L2010 406M1972 429L1981 521M2010 406L2091 444M2091 444L2177 414M2091 444L2083 486M2091 444L2184 501M2177 414L2184 501M2316 422L2366 426M2316 422L2291 502M2316 422L2338 523M2366 426L2449 428M2366 426L2338 523M2449 428L2497 411M2497 411L2488 516M36 539L-72 516M36 539L38 626M36 539L-41 581M2596 539L2488 516M2596 539L2519 581M157 553L186 519M157 553L257 502M157 553L149 590M157 553L171 607M186 519L257 502M186 519L149 590M186 519L171 607M257 502L359 490M359 490L414 512M414 512L484 539M414 512L406 616M484 539L406 616M484 539L513 635M484 539L574 587M615 520L692 487M615 520L574 587M615 520L727 564M692 487L752 547M692 487L727 564M752 547L706 621M752 547L727 564M752 547L812 620M864 487L899 525M864 487L962 509M899 525L962 509M962 509L1006 599M1083 524L1006 599M1083 524L1068 624M1083 524L1133 606M1200 531L1211 559M1211 559L1133 606M1211 559L1262 626M1211 559L1203 641M1351 534L1406 558M1351 534L1335 615M1406 558L1495 482M1406 558L1335 615M1406 558L1391 639M1406 558L1459 611M1495 482L1591 493M1591 493L1664 481M1591 493L1593 567M1664 481L1758 520M1664 481L1649 582M1758 520L1782 560M1758 520L1715 600M1758 520L1774 562M1782 560L1715 600M1782 560L1774 562M1782 560L1840 612M1882 553L1840 612M1882 553L1991 573M1882 553L1877 653M1981 521L2026 556M1981 521L2083 486M1981 521L1991 573M1981 521L2049 569M2026 556L2083 486M2026 556L1991 573M2026 556L2049 569M2026 556L2098 624M2083 486L2184 501M2083 486L2049 569M2184 501L2291 502M2291 502L2338 523M2291 502L2255 611M2291 502L2321 586M2338 523L2445 524M2338 523L2321 586M2445 524L2488 516M2445 524L2456 578M2488 516L2456 578M2488 516L2519 581M38 626L-41 581M38 626L19 682M38 626L117 673M38 626L-20 651M2598 626L2519 581M2598 626L2540 651M149 590L171 607M149 590L117 673M149 590L160 665M171 607L117 673M171 607L160 665M281 623L373 620M281 623L269 704M281 623L341 677M373 620L406 616M373 620L341 677M406 616L341 677M406 616L468 696M513 635L574 587M513 635L468 696M513 635L526 714M706 621L727 564M706 621L630 699M706 621L692 667M706 621L735 696M727 564L812 620M812 620L820 692M942 631L1006 599M942 631L907 678M942 631L945 722M1006 599L1068 624M1006 599L1008 689M1068 624L1133 606M1068 624L1008 689M1068 624L1075 720M1133 606L1149 699M1133 606L1203 641M1262 626L1335 615M1262 626L1203 641M1262 626L1302 694M1335 615L1391 639M1335 615L1302 694M1391 639L1459 611M1391 639L1361 701M1459 611L1497 645M1459 611L1544 679M1593 567L1649 582M1593 567L1497 645M1649 582L1715 600M1649 582L1702 655M1715 600L1774 562M1715 600L1702 655M1774 562L1840 612M1840 612L1831 668M1840 612L1877 653M1991 573L2049 569M2049 569L2098 624M2098 624L2165 618M2098 624L2067 663M2098 624L2089 718M2165 618L2255 611M2165 618L2067 663M2165 618L2224 682M2165 618L2259 641M2255 611L2321 586M2255 611L2224 682M2255 611L2259 641M2321 586L2259 641M2456 578L2519 581M2519 581L2540 651M19 682L117 673M19 682L-20 651M19 682L39 788M19 682L99 771M2579 682L2540 651M117 673L160 665M269 704L341 677M269 704L230 783M269 704L248 760M341 677L371 756M468 696L526 714M468 696L469 756M468 696L486 776M526 714L469 756M526 714L486 776M630 699L692 667M630 699L639 756M630 699L644 728M692 667L735 696M692 667L644 728M692 667L724 746M735 696L820 692M735 696L644 728M735 696L724 746M820 692L907 678M820 692L724 746M820 692L832 793M907 678L945 722M907 678L968 762M1008 689L1075 720M1008 689L945 722M1008 689L968 762M1075 720L1149 699M1075 720L1119 772M1149 699L1203 641M1149 699L1119 772M1149 699L1183 723M1203 641L1183 723M1302 694L1361 701M1302 694L1349 742M1302 694L1365 781M1361 701L1349 742M1361 701L1365 781M1497 645L1544 679M1497 645L1472 742M1544 679L1630 706M1544 679L1472 742M1630 706L1702 655M1630 706L1668 790M1831 668L1877 653M1877 653L1947 690M1877 653L1922 747M1947 690L1912 746M1947 690L1922 747M1947 690L2006 753M2067 663L2089 718M2067 663L2006 753M2067 663L2111 736M2089 718L2006 753M2089 718L2111 736M2089 718L2115 815M2224 682L2259 641M2224 682L2325 698M2259 641L2325 698M2325 698L2411 720M2325 698L2275 767M2325 698L2360 725M2411 720L2360 725M2411 720L2469 789M2411 720L2481 799M39 788L99 771M39 788L30 837M99 771L30 837M99 771L159 802M230 783L248 760M230 783L159 802M230 783L186 863M230 783L308 818M248 760L159 802M248 760L308 818M371 756L469 756M371 756L308 818M371 756L331 832M371 756L407 849M469 756L486 776M469 756L556 818M486 776L556 818M486 776L565 857M639 756L644 728M639 756L724 746M639 756L556 818M639 756L665 834M644 728L724 746M832 793L795 874M832 793L873 853M945 722L968 762M968 762L951 823M968 762L1013 817M1119 772L1183 723M1119 772L1119 841M1119 772L1166 835M1183 723L1232 774M1232 774L1166 835M1232 774L1216 848M1232 774L1315 817M1349 742L1365 781M1349 742L1315 817M1365 781L1315 817M1365 781L1387 851M1472 742L1561 796M1472 742L1540 824M1561 796L1540 824M1561 796L1643 853M1561 796L1527 895M1668 790L1735 789M1668 790L1643 853M1668 790L1633 893M1735 789L1793 789M1735 789L1755 834M1735 789L1719 888M1793 789L1755 834M1793 789L1831 819M1793 789L1818 890M1912 746L1922 747M1912 746L2006 753M1912 746L1934 857M1922 747L2006 753M1922 747L1918 854M2111 736L2115 815M2231 796L2275 767M2231 796L2204 870M2231 796L2257 849M2275 767L2360 725M2275 767L2257 849M2275 767L2356 827M2360 725L2356 827M2469 789L2481 799M2469 789L2520 869M2481 799L2590 837M2481 799L2520 869M-79 799L30 837M30 837L-40 869M30 837L100 936M2590 837L2520 869M159 802L186 863M186 863L100 936M186 863L240 926M186 863L279 914M308 818L331 832M308 818L407 849M331 832L407 849M331 832L279 914M331 832L384 900M407 849L384 900M407 849L416 950M556 818L565 857M565 857L534 937M565 857L615 920M565 857L537 962M665 834L659 941M795 874L873 853M795 874L750 952M795 874L796 976M873 853L951 823M873 853L878 931M873 853L938 893M951 823L1013 817M951 823L938 893M951 823L1020 884M1013 817L1119 841M1013 817L1020 884M1013 817L1055 900M1119 841L1166 835M1119 841L1055 900M1119 841L1149 891M1166 835L1216 848M1166 835L1149 891M1216 848L1149 891M1216 848L1286 882M1315 817L1387 851M1315 817L1286 882M1387 851L1453 876M1387 851L1286 882M1387 851L1429 918M1453 876L1540 824M1453 876L1429 918M1453 876L1442 949M1453 876L1527 895M1540 824L1527 895M1540 824L1633 893M1643 853L1633 893M1643 853L1719 888M1755 834L1831 819M1755 834L1719 888M1755 834L1818 890M1831 819L1918 854M1831 819L1818 890M1831 819L1878 883M1918 854L1934 857M1918 854L1878 883M1918 854L1935 884M1934 857L1878 883M1934 857L1935 884M2061 874L2115 815M2061 874L2043 916M2061 874L2115 957M2061 874L2172 903M2061 874L2025 968M2115 815L2204 870M2204 870L2257 849M2204 870L2172 903M2204 870L2267 907M2257 849L2172 903M2257 849L2267 907M2356 827L2402 875M2356 827L2344 914M2356 827L2419 886M2402 875L2344 914M2402 875L2419 886M2402 875L2409 992M2520 869L2419 886M2520 869L2480 949M40 960L100 936M40 960L24 1005M40 960L131 977M40 960L-26 1029M2600 960L2534 1029M100 936L24 1005M100 936L131 977M240 926L279 914M240 926L131 977M240 926L196 1030M240 926L301 976M279 914L301 976M384 900L416 950M384 900L301 976M416 950L388 997M416 950L413 1011M534 937L615 920M534 937L537 962M534 937L624 963M615 920L659 941M615 920L624 963M615 920L669 992M659 941L750 952M659 941L624 963M659 941L669 992M750 952L669 992M750 952L796 976M878 931L938 893M878 931L796 976M878 931L866 1030M878 931L897 993M938 893L1020 884M938 893L897 993M1020 884L1055 900M1020 884L1020 997M1055 900L1117 963M1149 891L1117 963M1149 891L1121 988M1249 945L1286 882M1249 945L1273 1040M1429 918L1442 949M1442 949L1360 990M1442 949L1423 1023M1442 949L1520 1014M1527 895L1633 893M1633 893L1719 888M1719 888L1818 890M1818 890L1878 883M1878 883L1935 884M1935 884L1909 993M2043 916L2115 957M2043 916L2025 968M2115 957L2172 903M2115 957L2025 968M2115 957L2084 1018M2172 903L2267 907M2267 907L2344 914M2344 914L2419 886M2344 914L2360 993M2419 886L2480 949M2480 949L2409 992M2480 949L2534 1029M24 1005L-26 1029M24 1005L13 1083M24 1005L110 1054M2584 1005L2534 1029M131 977L196 1030M131 977L110 1054M196 1030L110 1054M196 1030L213 1073M301 976L388 997M301 976L301 1072M388 997L413 1011M388 997L357 1078M388 997L448 1059M413 1011L357 1078M413 1011L448 1059M413 1011L513 1058M537 962L624 963M537 962L513 1058M624 963L669 992M669 992L659 1058M796 976L866 1030M796 976L803 1048M866 1030L897 993M866 1030L803 1048M866 1030L911 1106M897 993L803 1048M897 993L911 1106M1020 997L1117 963M1020 997L1121 988M1020 997L1040 1074M1020 997L1042 1068M1117 963L1121 988M1117 963L1142 1057M1121 988L1040 1074M1121 988L1142 1057M1273 1040L1360 990M1273 1040L1217 1112M1273 1040L1307 1045M1273 1040L1344 1160M1360 990L1423 1023M1360 990L1307 1045M1360 990L1406 1040M1423 1023L1520 1014M1423 1023L1406 1040M1423 1023L1464 1067M1520 1014L1576 1012M1520 1014L1464 1067M1576 1012L1634 1030M1634 1030L1728 1029M1634 1030L1619 1097M1634 1030L1701 1070M1728 1029L1835 1017M1728 1029L1701 1070M1835 1017L1909 993M1835 1017L1934 1017M1835 1017L1806 1118M1835 1017L1870 1079M1909 993L1934 1017M1909 993L1870 1079M1934 1017L2025 968M1934 1017L1870 1079M1934 1017L1984 1114M2025 968L2084 1018M2084 1018L2087 1073M2215 1035L2278 1027M2215 1035L2230 1060M2215 1035L2287 1055M2278 1027L2360 993M2278 1027L2230 1060M2278 1027L2287 1055M2278 1027L2320 1096M2360 993L2409 992M2360 993L2405 1072M2409 992L2405 1072M2534 1029L2573 1083M2534 1029L2548 1109M-26 1029L13 1083M13 1083L-12 1109M13 1083L5 1155M13 1083L-5 1150M2573 1083L2548 1109M2573 1083L2555 1150M110 1054L213 1073M213 1073L301 1072M213 1073L198 1149M213 1073L254 1137M301 1072L357 1078M301 1072L198 1149M301 1072L254 1137M357 1078L448 1059M448 1059L513 1058M448 1059L515 1124M513 1058L618 1103M513 1058L515 1124M618 1103L659 1058M618 1103L606 1183M618 1103L654 1170M659 1058L748 1067M659 1058L654 1170M748 1067L803 1048M748 1067L779 1159M748 1067L839 1125M803 1048L839 1125M911 1106L839 1125M911 1106L942 1142M1040 1074L1042 1068M1040 1074L1142 1057M1040 1074L1029 1170M1042 1068L1029 1170M1142 1057L1217 1112M1142 1057L1174 1142M1217 1112L1307 1045M1217 1112L1174 1142M1217 1112L1202 1165M1307 1045L1406 1040M1307 1045L1344 1160M1406 1040L1464 1067M1406 1040L1364 1138M1561 1119L1619 1097M1561 1119L1495 1177M1561 1119L1569 1167M1561 1119L1614 1148M1619 1097L1701 1070M1619 1097L1614 1148M1806 1118L1870 1079M1806 1118L1746 1171M1806 1118L1794 1165M1806 1118L1850 1200M1984 1114L2012 1100M1984 1114L1945 1167M1984 1114L2004 1188M2012 1100L2087 1073M2012 1100L1945 1167M2012 1100L2004 1188M2012 1100L2121 1131M2087 1073L2121 1131M2230 1060L2287 1055M2230 1060L2320 1096M2287 1055L2320 1096M2320 1096L2310 1181M2320 1096L2336 1150M2548 1109L2565 1155M2548 1109L2555 1150M-12 1109L5 1155M5 1155L115 1195M5 1155L-5 1150M5 1155L71 1210M2565 1155L2555 1150M115 1195L198 1149M115 1195L71 1210M115 1195L91 1257M115 1195L228 1206M198 1149L254 1137M198 1149L228 1206M254 1137L228 1206M351 1195L452 1170M351 1195L305 1268M351 1195L322 1269M351 1195L398 1285M452 1170L515 1124M452 1170L446 1241M452 1170L484 1204M515 1124L606 1183M515 1124L484 1204M606 1183L654 1170M606 1183L578 1261M606 1183L705 1250M654 1170L705 1250M779 1159L839 1125M779 1159L788 1246M779 1159L819 1243M839 1125L942 1142M942 1142L1029 1170M1029 1170L1105 1199M1105 1199L1174 1142M1105 1199L1065 1268M1105 1199L1132 1231M1105 1199L1076 1286M1174 1142L1202 1165M1202 1165L1132 1231M1202 1165L1232 1259M1344 1160L1364 1138M1344 1160L1343 1237M1344 1160L1371 1275M1364 1138L1343 1237M1495 1177L1569 1167M1495 1177L1509 1220M1569 1167L1614 1148M1569 1167L1509 1220M1569 1167L1560 1250M1614 1148L1620 1251M1746 1171L1794 1165M1746 1171L1713 1206M1746 1171L1813 1231M1794 1165L1850 1200M1794 1165L1713 1206M1794 1165L1813 1231M1850 1200L1945 1167M1850 1200L1813 1231M1850 1200L1874 1277M1945 1167L2004 1188M1945 1167L2010 1217M2004 1188L2010 1217M2004 1188L2037 1285M2121 1131L2216 1186M2121 1131L2126 1212M2121 1131L2175 1209M2216 1186L2310 1181M2216 1186L2126 1212M2216 1186L2175 1209M2216 1186L2299 1225M2310 1181L2336 1150M2310 1181L2299 1225M2310 1181L2364 1235M2336 1150L2444 1192M2336 1150L2299 1225M2336 1150L2364 1235M2444 1192L2364 1235M2444 1192L2467 1231M2444 1192L2517 1279M2444 1192L2375 1287M2555 1150L2631 1210M-5 1150L71 1210M71 1210L91 1257M91 1257L11 1296M91 1257L147 1312M91 1257L136 1361M305 1268L322 1269M305 1268L219 1297M305 1268L264 1350M305 1268L398 1285M322 1269L398 1285M322 1269L422 1281M446 1241L484 1204M446 1241L398 1285M446 1241L422 1281M446 1241L502 1281M484 1204L422 1281M484 1204L502 1281M578 1261L502 1281M578 1261L599 1337M578 1261L657 1304M705 1250L788 1246M705 1250L657 1304M705 1250L773 1288M788 1246L819 1243M788 1246L889 1234M788 1246L773 1288M819 1243L889 1234M819 1243L773 1288M889 1234L973 1255M973 1255L1065 1268M973 1255L977 1299M1065 1268L1132 1231M1065 1268L977 1299M1065 1268L1076 1286M1132 1231L1076 1286M1132 1231L1180 1299M1232 1259L1180 1299M1232 1259L1216 1294M1232 1259L1328 1302M1343 1237L1371 1275M1343 1237L1328 1302M1343 1237L1415 1299M1371 1275L1328 1302M1371 1275L1415 1299M1371 1275L1318 1369M1509 1220L1560 1250M1509 1220L1487 1314M1509 1220L1536 1323M1560 1250L1620 1251M1560 1250L1487 1314M1560 1250L1536 1323M1620 1251L1658 1289M1620 1251L1698 1329M1713 1206L1658 1289M1813 1231L1874 1277M1813 1231L1820 1306M1874 1277L1935 1263M1874 1277L1820 1306M1874 1277L1896 1286M1935 1263L2010 1217M1935 1263L1896 1286M1935 1263L1960 1285M2010 1217L1960 1285M2010 1217L2037 1285M2126 1212L2175 1209M2126 1212L2105 1299M2175 1209L2105 1299M2175 1209L2208 1323M2299 1225L2364 1235M2299 1225L2375 1287M2364 1235L2375 1287M2467 1231L2517 1279M2467 1231L2429 1309M2467 1231L2539 1315M2517 1279L2571 1296M2517 1279L2429 1309M2517 1279L2539 1315M-43 1279L11 1296M11 1296L-21 1315M11 1296L34 1395M11 1296L-17 1378M2571 1296L2539 1315M2571 1296L2543 1378M147 1312L219 1297M147 1312L136 1361M219 1297L264 1350M219 1297L136 1361M219 1297L208 1391M264 1350L208 1391M264 1350L282 1389M398 1285L422 1281M422 1281L502 1281M502 1281L551 1379M599 1337L657 1304M599 1337L551 1379M599 1337L564 1405M599 1337L659 1413M773 1288L860 1352M773 1288L755 1395M860 1352L954 1352M860 1352L755 1395M860 1352L859 1383M954 1352L977 1299M954 1352L859 1383M954 1352L945 1423M954 1352L1007 1431M977 1299L1076 1286M977 1299L1053 1364M1076 1286L1053 1364M1180 1299L1216 1294M1216 1294L1277 1408M1328 1302L1415 1299M1328 1302L1318 1369M1415 1299L1487 1314M1415 1299L1476 1365M1487 1314L1536 1323M1487 1314L1476 1365M1536 1323L1476 1365M1536 1323L1562 1432M1658 1289L1698 1329M1658 1289L1724 1370M1698 1329L1676 1428M1698 1329L1724 1370M1820 1306L1896 1286M1820 1306L1724 1370M1820 1306L1840 1370M1896 1286L1960 1285M1896 1286L1840 1370M1960 1285L2037 1285M2037 1285L2105 1299M2105 1299L2208 1323M2105 1299L2107 1395M2208 1323L2273 1348M2208 1323L2211 1417M2208 1323L2287 1388M2273 1348L2287 1388M2375 1287L2429 1309M2375 1287L2414 1387M2429 1309L2396 1401M2429 1309L2414 1387M2539 1315L2594 1395M2539 1315L2543 1378M-21 1315L34 1395M34 1395L136 1361M34 1395L-17 1378M2594 1395L2543 1378M136 1361L208 1391M208 1391L282 1389M282 1389L347 1435M347 1435L435 1427M435 1427L551 1379M551 1379L564 1405M564 1405L659 1413M659 1413L755 1395M755 1395L859 1383M859 1383L945 1423M945 1423L1007 1431M1007 1431L1053 1364M1053 1364L1127 1429M1277 1408L1318 1369M1318 1369L1407 1386M1407 1386L1476 1365M1562 1432L1676 1428M1676 1428L1724 1370M1840 1370L1903 1394M1840 1370L1941 1391M1903 1394L1941 1391M1903 1394L2007 1386M1941 1391L2007 1386M2007 1386L2107 1395M2211 1417L2287 1388M2396 1401L2414 1387"/></svg>