<svg xmlns="http://www.w3.org/2000/svg" width="2560" height="1440" fill="#fff"><circle cx="16" cy="37" r="5"/><circle cx="98" cy="37" r="6"/><circle cx="205" cy="63" r="5"/><circle cx="268" cy="40" r="6"/><circle cx="325" cy="20" r="6"/><circle cx="436" cy="55" r="5"/><circle cx="505" cy="64" r="5"/><circle cx="565" cy="25" r="6"/><circle cx="705" cy="10" r="5"/><circle cx="756" cy="60" r="4"/><circle cx="842" cy="67" r="6"/><circle cx="925" cy="15" r="5"/><circle cx="990" cy="23" r="5"/><circle cx="1106" cy="63" r="6"/><circle cx="1188" cy="76" r="6"/><circle cx="1276" cy="58" r="4"/><circle cx="1332" cy="23" r="4"/><circle cx="1391" cy="72" r="5"/><circle cx="1488" cy="41" r="5"/><circle cx="1545" cy="14" r="5"/><circle cx="1667" cy="21" r="6"/><circle cx="1744" cy="56" r="5"/><circle cx="1829" cy="73" r="5"/><circle cx="1860" cy="71" r="5"/><circle cx="1990" cy="65" r="5"/><circle cx="2070" cy="70" r="5"/><circle cx="2102" cy="30" r="6"/><circle cx="2193" cy="9" r="4"/><circle cx="2257" cy="65" r="6"/><circle cx="2343" cy="50" r="6"/><circle cx="2417" cy="50" r="4"/><circle cx="2543" cy="59" r="5"/><circle cx="0" cy="140" r="6"/><circle cx="2560" cy="140" r="6"/><circle cx="147" cy="152" r="6"/><circle cx="206" cy="129" r="5"/><circle cx="258" cy="100" r="4"/><circle cx="389" cy="157" r="4"/><circle cx="418" cy="152" r="4"/><circle cx="547" cy="85" r="6"/><circle cx="587" cy="120" r="5"/><circle cx="648" cy="115" r="5"/><circle cx="795" cy="108" r="4"/><circle cx="843" cy="155" r="5"/><circle cx="915" cy="138" r="4"/><circle cx="1007" cy="107" r="5"/><circle cx="1068" cy="92" r="5"/><circle cx="1143" cy="120" r="6"/><circle cx="1240" cy="111" r="5"/><circle cx="1327" cy="150" r="5"/><circle cx="1410" cy="103" r="4"/><circle cx="1452" cy="103" r="4"/><circle cx="1532" cy="131" r="5"/><circle cx="1653" cy="104" r="5"/><circle cx="1694" cy="124" r="4"/><circle cx="1789" cy="103" r="4"/><circle cx="1889" cy="147" r="5"/><circle cx="1994" cy="145" r="4"/><circle cx="2014" cy="115" r="5"/><circle cx="2150" cy="132" r="6"/><circle cx="2235" cy="109" r="5"/><circle cx="2298" cy="104" r="4"/><circle cx="2327" cy="83" r="5"/><circle cx="2440" cy="136" r="6"/><circle cx="2506" cy="108" r="5"/><circle cx="23" cy="217" r="5"/><circle cx="81" cy="233" r="5"/><circle cx="205" cy="197" r="5"/><circle cx="289" cy="210" r="5"/><circle cx="359" cy="189" r="4"/><circle cx="425" cy="160" r="4"/><circle cx="545" cy="171" r="4"/><circle cx="565" cy="218" r="5"/><circle cx="663" cy="201" r="5"/><circle cx="734" cy="211" r="6"/><circle cx="844" cy="160" r="5"/><circle cx="913" cy="209" r="4"/><circle cx="973" cy="221" r="5"/><circle cx="1109" cy="198" r="6"/><circle cx="1120" cy="221" r="5"/><circle cx="1245" cy="162" r="6"/><circle cx="1356" cy="178" r="5"/><circle cx="1404" cy="232" r="5"/><circle cx="1446" cy="225" r="6"/><circle cx="1546" cy="210" r="5"/><circle cx="1620" cy="179" r="5"/><circle cx="1702" cy="209" r="4"/><circle cx="1825" cy="184" r="5"/><circle cx="1864" cy="231" r="4"/><circle cx="1979" cy="236" r="5"/><circle cx="2053" cy="238" r="5"/><circle cx="2089" cy="220" r="5"/><circle cx="2176" cy="194" r="4"/><circle cx="2300" cy="235" r="6"/><circle cx="2327" cy="233" r="5"/><circle cx="2400" cy="228" r="5"/><circle cx="2546" cy="186" r="5"/><circle cx="39" cy="301" r="5"/><circle cx="97" cy="299" r="4"/><circle cx="240" cy="252" r="4"/><circle cx="314" cy="316" r="5"/><circle cx="383" cy="306" r="5"/><circle cx="473" cy="266" r="5"/><circle cx="502" cy="308" r="5"/><circle cx="583" cy="269" r="4"/><circle cx="699" cy="249" r="5"/><circle cx="773" cy="252" r="4"/><circle cx="833" cy="247" r="6"/><circle cx="935" cy="282" r="4"/><circle cx="982" cy="300" r="6"/><circle cx="1089" cy="282" r="5"/><circle cx="1122" cy="312" r="4"/><circle cx="1253" cy="316" r="6"/><circle cx="1349" cy="317" r="4"/><circle cx="1430" cy="270" r="5"/><circle cx="1464" cy="263" r="5"/><circle cx="1590" cy="243" r="5"/><circle cx="1627" cy="249" r="6"/><circle cx="1711" cy="288" r="4"/><circle cx="1777" cy="261" r="5"/><circle cx="1915" cy="307" r="4"/><circle cx="1995" cy="267" r="5"/><circle cx="2015" cy="251" r="5"/><circle cx="2100" cy="253" r="4"/><circle cx="2209" cy="252" r="5"/><circle cx="2277" cy="302" r="5"/><circle cx="2359" cy="251" r="5"/><circle cx="2476" cy="279" r="5"/><circle cx="2494" cy="307" r="5"/><circle cx="41" cy="338" r="4"/><circle cx="102" cy="339" r="6"/><circle cx="184" cy="358" r="5"/><circle cx="280" cy="347" r="5"/><circle cx="380" cy="351" r="4"/><circle cx="430" cy="386" r="4"/><circle cx="547" cy="350" r="5"/><circle cx="607" cy="349" r="5"/><circle cx="714" cy="329" r="5"/><circle cx="799" cy="345" r="4"/><circle cx="834" cy="363" r="4"/><circle cx="924" cy="358" r="6"/><circle cx="1000" cy="353" r="5"/><circle cx="1058" cy="379" r="5"/><circle cx="1121" cy="355" r="6"/><circle cx="1239" cy="347" r="5"/><circle cx="1312" cy="367" r="4"/><circle cx="1402" cy="369" r="5"/><circle cx="1471" cy="379" r="5"/><circle cx="1522" cy="357" r="5"/><circle cx="1605" cy="388" r="6"/><circle cx="1757" cy="374" r="5"/><circle cx="1801" cy="335" r="6"/><circle cx="1913" cy="324" r="4"/><circle cx="1968" cy="333" r="5"/><circle cx="2023" cy="377" r="6"/><circle cx="2091" cy="382" r="6"/><circle cx="2221" cy="329" r="5"/><circle cx="2310" cy="351" r="6"/><circle cx="2395" cy="329" r="4"/><circle cx="2406" cy="392" r="5"/><circle cx="2551" cy="361" r="4"/><circle cx="6" cy="408" r="6"/><circle cx="89" cy="478" r="5"/><circle cx="236" cy="464" r="5"/><circle cx="259" cy="480" r="5"/><circle cx="379" cy="458" r="5"/><circle cx="413" cy="411" r="5"/><circle cx="501" cy="431" r="5"/><circle cx="565" cy="423" r="5"/><circle cx="644" cy="407" r="4"/><circle cx="741" cy="440" r="5"/><circle cx="862" cy="470" r="5"/><circle cx="910" cy="469" r="5"/><circle cx="961" cy="428" r="5"/><circle cx="1120" cy="445" r="5"/><circle cx="1155" cy="422" r="4"/><circle cx="1222" cy="472" r="5"/><circle cx="1329" cy="426" r="5"/><circle cx="1401" cy="420" r="5"/><circle cx="1480" cy="470" r="5"/><circle cx="1552" cy="421" r="4"/><circle cx="1635" cy="473" r="5"/><circle cx="1690" cy="423" r="5"/><circle cx="1809" cy="465" r="5"/><circle cx="1919" cy="408" r="6"/><circle cx="1964" cy="438" r="5"/><circle cx="2002" cy="422" r="5"/><circle cx="2134" cy="447" r="5"/><circle cx="2170" cy="457" r="4"/><circle cx="2257" cy="469" r="4"/><circle cx="2356" cy="470" r="5"/><circle cx="2402" cy="429" r="6"/><circle cx="2543" cy="412" r="5"/><circle cx="22" cy="484" r="6"/><circle cx="89" cy="482" r="6"/><circle cx="217" cy="489" r="5"/><circle cx="281" cy="487" r="5"/><circle cx="328" cy="504" r="4"/><circle cx="418" cy="544" r="5"/><circle cx="497" cy="518" r="6"/><circle cx="620" cy="502" r="5"/><circle cx="717" cy="553" r="4"/><circle cx="799" cy="547" r="5"/><circle cx="854" cy="544" r="6"/><circle cx="916" cy="502" r="4"/><circle cx="975" cy="523" r="5"/><circle cx="1060" cy="548" r="6"/><circle cx="1174" cy="496" r="5"/><circle cx="1278" cy="496" r="5"/><circle cx="1308" cy="541" r="5"/><circle cx="1407" cy="486" r="6"/><circle cx="1509" cy="541" r="5"/><circle cx="1552" cy="541" r="5"/><circle cx="1658" cy="481" r="6"/><circle cx="1710" cy="500" r="4"/><circle cx="1774" cy="488" r="4"/><circle cx="1858" cy="534" r="6"/><circle cx="1972" cy="541" r="6"/><circle cx="2007" cy="500" r="5"/><circle cx="2128" cy="498" r="4"/><circle cx="2223" cy="486" r="5"/><circle cx="2296" cy="527" r="5"/><circle cx="2384" cy="500" r="5"/><circle cx="2474" cy="540" r="6"/><circle cx="2545" cy="537" r="6"/><circle cx="27" cy="607" r="5"/><circle cx="121" cy="638" r="5"/><circle cx="181" cy="570" r="5"/><circle cx="247" cy="595" r="6"/><circle cx="355" cy="593" r="5"/><circle cx="418" cy="578" r="6"/><circle cx="555" cy="602" r="5"/><circle cx="566" cy="561" r="5"/><circle cx="691" cy="609" r="6"/><circle cx="759" cy="621" r="5"/><circle cx="814" cy="612" r="6"/><circle cx="945" cy="605" r="4"/><circle cx="1034" cy="629" r="5"/><circle cx="1080" cy="617" r="4"/><circle cx="1181" cy="592" r="5"/><circle cx="1201" cy="581" r="5"/><circle cx="1357" cy="568" r="5"/><circle cx="1381" cy="561" r="5"/><circle cx="1481" cy="572" r="4"/><circle cx="1588" cy="619" r="4"/><circle cx="1617" cy="632" r="6"/><circle cx="1687" cy="568" r="5"/><circle cx="1830" cy="610" r="5"/><circle cx="1917" cy="578" r="4"/><circle cx="1982" cy="610" r="5"/><circle cx="2076" cy="579" r="4"/><circle cx="2086" cy="611" r="4"/><circle cx="2211" cy="569" r="5"/><circle cx="2273" cy="630" r="4"/><circle cx="2324" cy="581" r="4"/><circle cx="2424" cy="633" r="5"/><circle cx="2501" cy="612" r="6"/><circle cx="72" cy="696" r="5"/><circle cx="84" cy="641" r="5"/><circle cx="208" cy="702" r="4"/><circle cx="292" cy="679" r="6"/><circle cx="389" cy="719" r="5"/><circle cx="444" cy="666" r="5"/><circle cx="517" cy="661" r="5"/><circle cx="633" cy="688" r="5"/><circle cx="675" cy="650" r="5"/><circle cx="738" cy="688" r="4"/><circle cx="871" cy="682" r="4"/><circle cx="957" cy="702" r="5"/><circle cx="1003" cy="660" r="5"/><circle cx="1078" cy="706" r="5"/><circle cx="1168" cy="717" r="6"/><circle cx="1264" cy="655" r="4"/><circle cx="1283" cy="678" r="6"/><circle cx="1434" cy="667" r="5"/><circle cx="1453" cy="646" r="6"/><circle cx="1594" cy="705" r="6"/><circle cx="1608" cy="676" r="4"/><circle cx="1733" cy="681" r="5"/><circle cx="1807" cy="680" r="5"/><circle cx="1897" cy="656" r="5"/><circle cx="1983" cy="700" r="5"/><circle cx="2058" cy="692" r="5"/><circle cx="2111" cy="713" r="5"/><circle cx="2218" cy="696" r="4"/><circle cx="2287" cy="684" r="5"/><circle cx="2391" cy="640" r="6"/><circle cx="2404" cy="649" r="4"/><circle cx="2483" cy="695" r="6"/><circle cx="15" cy="761" r="6"/><circle cx="112" cy="778" r="4"/><circle cx="193" cy="791" r="4"/><circle cx="300" cy="726" r="6"/><circle cx="352" cy="762" r="6"/><circle cx="431" cy="798" r="5"/><circle cx="539" cy="760" r="5"/><circle cx="621" cy="770" r="5"/><circle cx="666" cy="752" r="4"/><circle cx="781" cy="772" r="4"/><circle cx="825" cy="793" r="5"/><circle cx="907" cy="723" r="5"/><circle cx="988" cy="788" r="5"/><circle cx="1107" cy="758" r="6"/><circle cx="1148" cy="763" r="6"/><circle cx="1259" cy="747" r="4"/><circle cx="1334" cy="789" r="5"/><circle cx="1413" cy="755" r="5"/><circle cx="1498" cy="728" r="5"/><circle cx="1536" cy="788" r="4"/><circle cx="1640" cy="720" r="6"/><circle cx="1725" cy="800" r="5"/><circle cx="1769" cy="771" r="6"/><circle cx="1864" cy="774" r="6"/><circle cx="1976" cy="791" r="5"/><circle cx="2072" cy="732" r="6"/><circle cx="2130" cy="745" r="5"/><circle cx="2225" cy="744" r="5"/><circle cx="2265" cy="780" r="4"/><circle cx="2373" cy="758" r="5"/><circle cx="2406" cy="761" r="4"/><circle cx="2551" cy="794" r="5"/><circle cx="58" cy="810" r="6"/><circle cx="129" cy="870" r="4"/><circle cx="188" cy="813" r="5"/><circle cx="281" cy="839" r="6"/><circle cx="377" cy="870" r="6"/><circle cx="421" cy="802" r="6"/><circle cx="485" cy="873" r="6"/><circle cx="607" cy="870" r="5"/><circle cx="679" cy="831" r="5"/><circle cx="728" cy="873" r="6"/><circle cx="862" cy="805" r="4"/><circle cx="948" cy="867" r="5"/><circle cx="1019" cy="858" r="6"/><circle cx="1088" cy="828" r="5"/><circle cx="1191" cy="876" r="5"/><circle cx="1246" cy="801" r="5"/><circle cx="1282" cy="853" r="6"/><circle cx="1371" cy="827" r="5"/><circle cx="1456" cy="877" r="6"/><circle cx="1566" cy="836" r="5"/><circle cx="1638" cy="833" r="4"/><circle cx="1694" cy="811" r="4"/><circle cx="1811" cy="853" r="6"/><circle cx="1901" cy="880" r="5"/><circle cx="1973" cy="853" r="6"/><circle cx="2017" cy="830" r="6"/><circle cx="2082" cy="850" r="4"/><circle cx="2213" cy="872" r="4"/><circle cx="2257" cy="863" r="4"/><circle cx="2343" cy="815" r="4"/><circle cx="2460" cy="863" r="5"/><circle cx="2544" cy="875" r="5"/><circle cx="76" cy="909" r="5"/><circle cx="158" cy="923" r="6"/><circle cx="194" cy="950" r="6"/><circle cx="292" cy="925" r="5"/><circle cx="377" cy="945" r="6"/><circle cx="405" cy="929" r="6"/><circle cx="543" cy="958" r="5"/><circle cx="605" cy="940" r="4"/><circle cx="719" cy="887" r="5"/><circle cx="734" cy="881" r="5"/><circle cx="837" cy="933" r="6"/><circle cx="888" cy="927" r="5"/><circle cx="1034" cy="929" r="6"/><circle cx="1113" cy="885" r="6"/><circle cx="1158" cy="950" r="5"/><circle cx="1221" cy="893" r="5"/><circle cx="1299" cy="881" r="6"/><circle cx="1367" cy="909" r="5"/><circle cx="1486" cy="881" r="5"/><circle cx="1562" cy="927" r="5"/><circle cx="1660" cy="883" r="5"/><circle cx="1690" cy="954" r="4"/><circle cx="1794" cy="932" r="5"/><circle cx="1911" cy="924" r="5"/><circle cx="1966" cy="928" r="4"/><circle cx="2056" cy="960" r="5"/><circle cx="2148" cy="920" r="5"/><circle cx="2197" cy="952" r="5"/><circle cx="2262" cy="932" r="5"/><circle cx="2323" cy="907" r="6"/><circle cx="2407" cy="912" r="6"/><circle cx="2541" cy="898" r="4"/><circle cx="28" cy="968" r="5"/><circle cx="90" cy="1011" r="6"/><circle cx="190" cy="995" r="5"/><circle cx="290" cy="1018" r="4"/><circle cx="350" cy="1038" r="5"/><circle cx="464" cy="971" r="4"/><circle cx="499" cy="1035" r="4"/><circle cx="584" cy="964" r="4"/><circle cx="713" cy="1007" r="5"/><circle cx="758" cy="1026" r="6"/><circle cx="868" cy="993" r="4"/><circle cx="960" cy="1029" r="5"/><circle cx="1015" cy="996" r="6"/><circle cx="1081" cy="968" r="6"/><circle cx="1172" cy="1008" r="5"/><circle cx="1237" cy="983" r="6"/><circle cx="1309" cy="1016" r="5"/><circle cx="1418" cy="1025" r="5"/><circle cx="1494" cy="1019" r="5"/><circle cx="1554" cy="998" r="6"/><circle cx="1608" cy="984" r="5"/><circle cx="1726" cy="1000" r="5"/><circle cx="1837" cy="973" r="5"/><circle cx="1879" cy="964" r="5"/><circle cx="1960" cy="1034" r="5"/><circle cx="2080" cy="1014" r="5"/><circle cx="2129" cy="977" r="4"/><circle cx="2206" cy="1014" r="4"/><circle cx="2286" cy="997" r="5"/><circle cx="2352" cy="977" r="5"/><circle cx="2415" cy="1031" r="4"/><circle cx="2496" cy="978" r="6"/><circle cx="35" cy="1047" r="5"/><circle cx="136" cy="1084" r="4"/><circle cx="165" cy="1084" r="5"/><circle cx="295" cy="1072" r="5"/><circle cx="383" cy="1104" r="5"/><circle cx="451" cy="1068" r="6"/><circle cx="495" cy="1112" r="5"/><circle cx="572" cy="1074" r="5"/><circle cx="707" cy="1066" r="6"/><circle cx="725" cy="1066" r="6"/><circle cx="828" cy="1089" r="6"/><circle cx="898" cy="1094" r="6"/><circle cx="1024" cy="1100" r="4"/><circle cx="1105" cy="1083" r="6"/><circle cx="1191" cy="1119" r="4"/><circle cx="1226" cy="1051" r="6"/><circle cx="1315" cy="1104" r="6"/><circle cx="1419" cy="1090" r="6"/><circle cx="1463" cy="1042" r="4"/><circle cx="1573" cy="1044" r="6"/><circle cx="1680" cy="1043" r="4"/><circle cx="1734" cy="1065" r="6"/><circle cx="1775" cy="1118" r="4"/><circle cx="1852" cy="1077" r="6"/><circle cx="1938" cy="1116" r="4"/><circle cx="2073" cy="1059" r="4"/><circle cx="2095" cy="1077" r="5"/><circle cx="2225" cy="1070" r="4"/><circle cx="2266" cy="1047" r="6"/><circle cx="2347" cy="1092" r="6"/><circle cx="2429" cy="1081" r="4"/><circle cx="2542" cy="1108" r="5"/><circle cx="32" cy="1122" r="6"/><circle cx="146" cy="1156" r="5"/><circle cx="221" cy="1164" r="6"/><circle cx="304" cy="1156" r="4"/><circle cx="360" cy="1174" r="5"/><circle cx="432" cy="1182" r="5"/><circle cx="496" cy="1170" r="5"/><circle cx="583" cy="1134" r="5"/><circle cx="702" cy="1182" r="6"/><circle cx="773" cy="1192" r="5"/><circle cx="848" cy="1127" r="4"/><circle cx="888" cy="1183" r="4"/><circle cx="1026" cy="1131" r="5"/><circle cx="1102" cy="1139" r="4"/><circle cx="1172" cy="1186" r="4"/><circle cx="1274" cy="1168" r="6"/><circle cx="1346" cy="1151" r="6"/><circle cx="1363" cy="1181" r="5"/><circle cx="1476" cy="1158" r="4"/><circle cx="1569" cy="1165" r="5"/><circle cx="1633" cy="1144" r="4"/><circle cx="1740" cy="1174" r="4"/><circle cx="1815" cy="1147" r="6"/><circle cx="1915" cy="1188" r="5"/><circle cx="1933" cy="1162" r="5"/><circle cx="2046" cy="1154" r="6"/><circle cx="2118" cy="1146" r="6"/><circle cx="2203" cy="1140" r="6"/><circle cx="2313" cy="1135" r="5"/><circle cx="2369" cy="1130" r="6"/><circle cx="2458" cy="1145" r="4"/><circle cx="2524" cy="1174" r="6"/><circle cx="78" cy="1200" r="5"/><circle cx="128" cy="1279" r="5"/><circle cx="210" cy="1214" r="4"/><circle cx="296" cy="1251" r="4"/><circle cx="361" cy="1221" r="5"/><circle cx="425" cy="1277" r="5"/><circle cx="551" cy="1236" r="6"/><circle cx="588" cy="1238" r="5"/><circle cx="667" cy="1229" r="5"/><circle cx="770" cy="1203" r="5"/><circle cx="827" cy="1211" r="5"/><circle cx="948" cy="1220" r="5"/><circle cx="990" cy="1210" r="4"/><circle cx="1061" cy="1226" r="5"/><circle cx="1161" cy="1249" r="5"/><circle cx="1213" cy="1257" r="6"/><circle cx="1354" cy="1228" r="4"/><circle cx="1414" cy="1226" r="4"/><circle cx="1470" cy="1227" r="5"/><circle cx="1595" cy="1208" r="4"/><circle cx="1602" cy="1279" r="5"/><circle cx="1742" cy="1263" r="5"/><circle cx="1787" cy="1270" r="5"/><circle cx="1865" cy="1226" r="5"/><circle cx="1945" cy="1209" r="6"/><circle cx="2055" cy="1276" r="4"/><circle cx="2082" cy="1215" r="6"/><circle cx="2213" cy="1216" r="5"/><circle cx="2288" cy="1228" r="5"/><circle cx="2395" cy="1217" r="6"/><circle cx="2478" cy="1215" r="4"/><circle cx="2557" cy="1277" r="5"/><circle cx="-3" cy="1277" r="5"/><circle cx="49" cy="1347" r="5"/><circle cx="157" cy="1335" r="5"/><circle cx="169" cy="1289" r="4"/><circle cx="305" cy="1291" r="6"/><circle cx="393" cy="1311" r="6"/><circle cx="474" cy="1320" r="5"/><circle cx="517" cy="1312" r="5"/><circle cx="613" cy="1326" r="5"/><circle cx="654" cy="1344" r="4"/><circle cx="764" cy="1325" r="5"/><circle cx="878" cy="1292" r="5"/><circle cx="914" cy="1282" r="5"/><circle cx="979" cy="1338" r="4"/><circle cx="1083" cy="1339" r="4"/><circle cx="1175" cy="1354" r="5"/><circle cx="1274" cy="1344" r="4"/><circle cx="1283" cy="1351" r="4"/><circle cx="1405" cy="1354" r="6"/><circle cx="1458" cy="1330" r="5"/><circle cx="1579" cy="1320" r="5"/><circle cx="1649" cy="1282" r="5"/><circle cx="1728" cy="1297" r="5"/><circle cx="1796" cy="1345" r="4"/><circle cx="1893" cy="1309" r="6"/><circle cx="1959" cy="1350" r="5"/><circle cx="2005" cy="1298" r="6"/><circle cx="2116" cy="1320" r="5"/><circle cx="2171" cy="1359" r="6"/><circle cx="2251" cy="1322" r="6"/><circle cx="2395" cy="1299" r="4"/><circle cx="2453" cy="1331" r="5"/><circle cx="2542" cy="1292" r="5"/><circle cx="17" cy="1371" r="6"/><circle cx="117" cy="1418" r="5"/><circle cx="195" cy="1400" r="6"/><circle cx="305" cy="1423" r="5"/><circle cx="395" cy="1427" r="6"/><circle cx="469" cy="1409" r="5"/><circle cx="513" cy="1431" r="6"/><circle cx="581" cy="1419" r="6"/><circle cx="649" cy="1422" r="5"/><circle cx="798" cy="1424" r="5"/><circle cx="846" cy="1391" r="5"/><circle cx="922" cy="1397" r="6"/><circle cx="969" cy="1429" r="5"/><circle cx="1088" cy="1386" r="6"/><circle cx="1135" cy="1389" r="5"/><circle cx="1227" cy="1397" r="4"/><circle cx="1294" cy="1413" r="4"/><circle cx="1411" cy="1410" r="5"/><circle cx="1506" cy="1387" r="4"/><circle cx="1555" cy="1425" r="5"/><circle cx="1630" cy="1385" r="5"/><circle cx="1717" cy="1393" r="5"/><circle cx="1780" cy="1392" r="4"/><circle cx="1843" cy="1390" r="6"/><circle cx="1933" cy="1402" r="5"/><circle cx="2004" cy="1365" r="5"/><circle cx="2118" cy="1368" r="4"/><circle cx="2231" cy="1429" r="4"/><circle cx="2288" cy="1379" r="5"/><circle cx="2396" cy="1439" r="4"/><circle cx="2396" cy="-1" r="4"/><circle cx="2401" cy="1360" r="5"/><circle cx="2527" cy="1393" r="5"/><path stroke="#fff" d="M16 37L98 37M16 37L-17 59M16 37L0 140M16 37L17 -69M16 37L-33 -47M2576 37L2543 59M2576 37L2527 -47M16 1477L17 1371M16 1477L-33 1393M2576 1477L2527 1393M98 37L-17 59M98 37L117 -22M2658 37L2543 59M98 1477L117 1418M205 63L268 40M205 63L147 152M205 63L206 129M205 63L258 100M205 63L195 -40M205 1503L195 1400M268 40L325 20M268 40L258 100M268 40L195 -40M268 40L305 -17M268 1480L195 1400M268 1480L305 1423M325 20L258 100M325 20L305 -17M325 20L395 -13M325 1460L305 1423M325 1460L395 1427M436 55L505 64M436 55L418 152M436 55L395 -13M436 55L469 -31M436 1495L395 1427M436 1495L469 1409M505 64L565 25M505 64L547 85M505 64L469 -31M505 64L513 -9M505 1504L469 1409M505 1504L513 1431M565 25L547 85M565 25L587 120M565 25L513 -9M565 25L581 -21M565 1465L513 1431M565 1465L581 1419M705 10L756 60M705 10L648 115M705 10L649 -18M705 10L798 -16M705 1450L649 1422M705 1450L798 1424M756 60L842 67M756 60L795 108M756 60L798 -16M756 1500L798 1424M842 67L795 108M842 67L843 155M842 67L844 160M842 67L798 -16M842 1507L798 1424M925 15L990 23M925 15L846 -49M925 15L922 -43M925 15L969 -11M925 1455L846 1391M925 1455L922 1397M925 1455L969 1429M990 23L1007 107M990 23L1068 92M990 23L922 -43M990 23L969 -11M990 1463L922 1397M990 1463L969 1429M1106 63L1188 76M1106 63L1007 107M1106 63L1068 92M1106 63L1143 120M1106 63L1088 -54M1106 1503L1088 1386M1188 76L1276 58M1188 76L1143 120M1188 76L1240 111M1188 76L1245 162M1276 58L1332 23M1276 58L1240 111M1276 58L1245 162M1276 58L1294 -27M1276 1498L1294 1413M1332 23L1391 72M1332 23L1294 -27M1332 23L1411 -30M1332 1463L1294 1413M1332 1463L1411 1410M1391 72L1327 150M1391 72L1410 103M1391 72L1452 103M1391 72L1411 -30M1391 1512L1411 1410M1488 41L1545 14M1488 41L1410 103M1488 41L1452 103M1488 41L1532 131M1488 41L1555 -15M1488 1481L1555 1425M1545 14L1506 -53M1545 14L1555 -15M1545 14L1630 -55M1545 1454L1506 1387M1545 1454L1555 1425M1545 1454L1630 1385M1667 21L1744 56M1667 21L1653 104M1667 21L1694 124M1667 21L1630 -55M1667 21L1717 -47M1667 1461L1630 1385M1667 1461L1717 1393M1744 56L1829 73M1744 56L1694 124M1744 56L1789 103M1829 73L1860 71M1829 73L1789 103M1829 73L1889 147M1829 73L1825 184M1860 71L1789 103M1860 71L1889 147M1990 65L2070 70M1990 65L2102 30M1990 65L1994 145M1990 65L2014 115M1990 65L1933 -38M1990 1505L1933 1402M2070 70L2102 30M2070 70L2014 115M2070 70L2150 132M2102 30L2193 9M2102 30L2150 132M2102 30L2118 -72M2102 1470L2118 1368M2193 9L2171 -81M2193 9L2231 -11M2193 1449L2171 1359M2193 1449L2231 1429M2257 65L2343 50M2257 65L2235 109M2257 65L2298 104M2257 65L2327 83M2257 65L2231 -11M2257 1505L2231 1429M2343 50L2417 50M2343 50L2298 104M2343 50L2327 83M2343 50L2396 -1M2343 1490L2396 1439M2417 50L2327 83M2417 50L2440 136M2417 50L2506 108M2417 50L2396 -1M2417 1490L2396 1439M2543 59L2560 140M2543 59L2506 108M-17 59L0 140M0 140L-54 108M0 140L23 217M0 140L-14 186M2560 140L2506 108M2560 140L2546 186M147 152L206 129M147 152L81 233M147 152L205 197M206 129L258 100M206 129L205 197M206 129L289 210M258 100L205 197M389 157L418 152M389 157L359 189M389 157L425 160M418 152L359 189M418 152L425 160M547 85L587 120M547 85L545 171M547 85L513 -9M547 1525L513 1431M587 120L648 115M587 120L545 171M587 120L565 218M648 115L545 171M648 115L663 201M795 108L843 155M795 108L844 160M843 155L915 138M843 155L844 160M843 155L833 247M915 138L1007 107M915 138L844 160M915 138L913 209M915 138L973 221M1007 107L1068 92M1007 107L973 221M1068 92L1143 120M1068 92L1109 198M1143 120L1109 198M1143 120L1245 162M1240 111L1327 150M1240 111L1245 162M1327 150L1410 103M1327 150L1245 162M1327 150L1356 178M1410 103L1452 103M1410 103L1356 178M1452 103L1532 131M1532 131L1546 210M1653 104L1694 124M1653 104L1620 179M1694 124L1702 209M1789 103L1825 184M1889 147L1994 145M1889 147L1825 184M1889 147L1864 231M1994 145L2014 115M1994 145L1979 236M2150 132L2235 109M2150 132L2089 220M2150 132L2176 194M2235 109L2298 104M2235 109L2327 83M2235 109L2176 194M2298 104L2327 83M2440 136L2506 108M2440 136L2400 228M2440 136L2546 186M2506 108L2546 186M23 217L81 233M23 217L-14 186M23 217L39 301M2583 217L2546 186M81 233L39 301M81 233L97 299M81 233L102 339M205 197L289 210M205 197L240 252M289 210L359 189M289 210L240 252M289 210L314 316M359 189L425 160M425 160L473 266M545 171L565 218M565 218L663 201M565 218L502 308M565 218L583 269M663 201L734 211M663 201L583 269M663 201L699 249M734 211L699 249M734 211L773 252M734 211L833 247M844 160L833 247M913 209L973 221M913 209L833 247M913 209L935 282M973 221L935 282M973 221L982 300M1109 198L1120 221M1109 198L1089 282M1109 198L1122 312M1120 221L1089 282M1120 221L1122 312M1356 178L1404 232M1356 178L1446 225M1404 232L1446 225M1404 232L1349 317M1404 232L1430 270M1404 232L1464 263M1446 225L1546 210M1446 225L1430 270M1446 225L1464 263M1546 210L1620 179M1546 210L1590 243M1546 210L1627 249M1620 179L1702 209M1620 179L1590 243M1620 179L1627 249M1702 209L1627 249M1702 209L1711 288M1702 209L1777 261M1825 184L1864 231M1825 184L1777 261M1864 231L1777 261M1864 231L1915 307M1979 236L2053 238M1979 236L1995 267M1979 236L2015 251M2053 238L2089 220M2053 238L1995 267M2053 238L2015 251M2053 238L2100 253M2089 220L2176 194M2089 220L2015 251M2089 220L2100 253M2176 194L2100 253M2176 194L2209 252M2300 235L2327 233M2300 235L2400 228M2300 235L2209 252M2300 235L2277 302M2300 235L2359 251M2327 233L2400 228M2327 233L2277 302M2327 233L2359 251M2400 228L2359 251M2400 228L2476 279M2546 186L2476 279M39 301L97 299M39 301L41 338M39 301L102 339M97 299L41 338M97 299L102 339M97 299L184 358M240 252L314 316M240 252L280 347M314 316L383 306M314 316L280 347M314 316L380 351M383 306L473 266M383 306L280 347M383 306L380 351M383 306L430 386M473 266L502 308M502 308L583 269M502 308L547 350M583 269L547 350M583 269L607 349M699 249L773 252M699 249L714 329M773 252L833 247M773 252L714 329M773 252L799 345M935 282L982 300M935 282L924 358M935 282L1000 353M982 300L924 358M982 300L1000 353M982 300L1058 379M1089 282L1122 312M1089 282L1121 355M1122 312L1058 379M1122 312L1121 355M1253 316L1349 317M1253 316L1239 347M1253 316L1312 367M1349 317L1430 270M1349 317L1312 367M1349 317L1402 369M1430 270L1464 263M1464 263L1522 357M1590 243L1627 249M1627 249L1711 288M1711 288L1777 261M1711 288L1757 374M1711 288L1801 335M1777 261L1801 335M1915 307L1995 267M1915 307L1913 324M1915 307L1968 333M1995 267L2015 251M1995 267L1968 333M2100 253L2209 252M2209 252L2277 302M2209 252L2221 329M2277 302L2221 329M2277 302L2310 351M2359 251L2310 351M2359 251L2395 329M2476 279L2494 307M2476 279L2395 329M2476 279L2551 361M2494 307L2551 361M2494 307L2543 412M41 338L102 339M41 338L-9 361M41 338L6 408M2601 338L2551 361M102 339L184 358M184 358L280 347M184 358L236 464M280 347L380 351M380 351L430 386M380 351L413 411M430 386L379 458M430 386L413 411M430 386L501 431M547 350L607 349M547 350L501 431M547 350L565 423M607 349L714 329M607 349L565 423M607 349L644 407M714 329L799 345M714 329L741 440M799 345L834 363M799 345L741 440M834 363L924 358M924 358L1000 353M924 358L961 428M1000 353L1058 379M1000 353L961 428M1058 379L1121 355M1058 379L1120 445M1121 355L1120 445M1121 355L1155 422M1239 347L1312 367M1239 347L1155 422M1312 367L1402 369M1312 367L1329 426M1402 369L1471 379M1402 369L1329 426M1402 369L1401 420M1471 379L1522 357M1471 379L1401 420M1471 379L1480 470M1471 379L1552 421M1522 357L1605 388M1522 357L1552 421M1605 388L1552 421M1605 388L1635 473M1605 388L1690 423M1605 388L1658 481M1757 374L1801 335M1757 374L1690 423M1757 374L1809 465M1757 374L1774 488M1801 335L1913 324M1913 324L1968 333M1913 324L1919 408M1968 333L2023 377M1968 333L1919 408M2023 377L2091 382M2023 377L1919 408M2023 377L1964 438M2023 377L2002 422M2091 382L2002 422M2091 382L2134 447M2091 382L2170 457M2221 329L2310 351M2310 351L2395 329M2310 351L2406 392M2395 329L2406 392M2395 329L2402 429M2406 392L2356 470M2406 392L2402 429M2551 361L2566 408M2551 361L2543 412M-9 361L6 408M6 408L-17 412M6 408L22 484M6 408L89 482M2566 408L2543 412M89 478L22 484M89 478L89 482M236 464L259 480M236 464L217 489M236 464L281 487M259 480L217 489M259 480L281 487M259 480L328 504M259 480L247 595M379 458L413 411M379 458L281 487M379 458L328 504M379 458L418 544M413 411L501 431M501 431L565 423M501 431L497 518M565 423L644 407M565 423L620 502M644 407L741 440M644 407L620 502M862 470L910 469M862 470L799 547M862 470L854 544M862 470L916 502M910 469L961 428M910 469L854 544M910 469L916 502M910 469L975 523M961 428L916 502M961 428L975 523M1120 445L1155 422M1120 445L1222 472M1120 445L1174 496M1155 422L1222 472M1155 422L1174 496M1222 472L1174 496M1222 472L1278 496M1222 472L1308 541M1329 426L1401 420M1329 426L1278 496M1329 426L1407 486M1401 420L1480 470M1401 420L1407 486M1480 470L1552 421M1480 470L1407 486M1480 470L1509 541M1552 421L1635 473M1635 473L1690 423M1635 473L1658 481M1635 473L1710 500M1690 423L1658 481M1690 423L1710 500M1809 465L1774 488M1809 465L1858 534M1919 408L1964 438M1919 408L2002 422M1964 438L2002 422M1964 438L1972 541M1964 438L2007 500M2002 422L2007 500M2134 447L2170 457M2134 447L2128 498M2134 447L2223 486M2170 457L2257 469M2170 457L2128 498M2170 457L2223 486M2257 469L2356 470M2257 469L2223 486M2257 469L2296 527M2257 469L2211 569M2356 470L2402 429M2356 470L2296 527M2356 470L2384 500M2402 429L2384 500M2543 412L2582 484M-17 412L22 484M22 484L89 482M22 484L-15 537M2582 484L2545 537M89 482L-15 537M2649 482L2545 537M217 489L281 487M217 489L181 570M217 489L247 595M281 487L328 504M328 504L418 544M328 504L355 593M418 544L497 518M418 544L355 593M418 544L418 578M497 518L418 578M497 518L555 602M497 518L566 561M620 502L555 602M620 502L566 561M717 553L799 547M717 553L691 609M717 553L759 621M717 553L675 650M799 547L854 544M799 547L759 621M799 547L814 612M854 544L916 502M854 544L814 612M916 502L975 523M975 523L1060 548M975 523L945 605M1060 548L1034 629M1060 548L1080 617M1174 496L1181 592M1174 496L1201 581M1278 496L1308 541M1278 496L1201 581M1278 496L1357 568M1308 541L1357 568M1308 541L1381 561M1407 486L1357 568M1407 486L1381 561M1509 541L1552 541M1509 541L1481 572M1552 541L1481 572M1552 541L1588 619M1658 481L1710 500M1658 481L1687 568M1710 500L1774 488M1710 500L1687 568M1774 488L1858 534M1774 488L1687 568M1858 534L1972 541M1858 534L1830 610M1858 534L1917 578M1972 541L2007 500M1972 541L1917 578M1972 541L1982 610M2007 500L2076 579M2128 498L2076 579M2128 498L2211 569M2223 486L2296 527M2223 486L2211 569M2296 527L2384 500M2296 527L2324 581M2384 500L2474 540M2384 500L2324 581M2474 540L2545 537M2474 540L2424 633M2474 540L2501 612M2545 537L2587 607M2545 537L2501 612M-15 537L27 607M27 607L121 638M27 607L-59 612M27 607L72 696M27 607L84 641M2587 607L2501 612M121 638L181 570M121 638L72 696M121 638L84 641M121 638L208 702M181 570L247 595M181 570L84 641M247 595L355 593M247 595L292 679M355 593L418 578M418 578L444 666M555 602L566 561M555 602L517 661M555 602L633 688M566 561L517 661M691 609L759 621M691 609L633 688M691 609L675 650M691 609L738 688M759 621L814 612M759 621L738 688M814 612L738 688M814 612L871 682M945 605L1034 629M945 605L871 682M945 605L957 702M945 605L1003 660M1034 629L1080 617M1034 629L1003 660M1034 629L1078 706M1080 617L1181 592M1080 617L1003 660M1181 592L1201 581M1181 592L1264 655M1201 581L1264 655M1201 581L1283 678M1357 568L1381 561M1381 561L1481 572M1381 561L1453 646M1481 572L1434 667M1481 572L1453 646M1588 619L1617 632M1588 619L1594 705M1588 619L1608 676M1617 632L1687 568M1617 632L1594 705M1617 632L1608 676M1617 632L1640 720M1830 610L1917 578M1830 610L1733 681M1830 610L1807 680M1830 610L1897 656M1917 578L1982 610M1917 578L1897 656M1982 610L2076 579M1982 610L1897 656M1982 610L1983 700M2076 579L2086 611M2086 611L2058 692M2086 611L2111 713M2211 569L2273 630M2273 630L2324 581M2273 630L2218 696M2273 630L2287 684M2324 581L2391 640M2424 633L2501 612M2424 633L2391 640M2424 633L2404 649M2424 633L2483 695M2501 612L2483 695M72 696L84 641M72 696L15 761M72 696L112 778M208 702L292 679M208 702L193 791M208 702L300 726M292 679L300 726M292 679L352 762M389 719L444 666M389 719L300 726M389 719L352 762M389 719L431 798M389 719L421 802M444 666L517 661M517 661L539 760M633 688L675 650M633 688L621 770M633 688L666 752M675 650L738 688M675 650L666 752M738 688L781 772M871 682L957 702M871 682L907 723M957 702L1003 660M957 702L907 723M957 702L988 788M1003 660L1078 706M1078 706L1168 717M1078 706L1107 758M1078 706L1148 763M1168 717L1283 678M1168 717L1107 758M1168 717L1148 763M1168 717L1259 747M1264 655L1283 678M1264 655L1259 747M1283 678L1259 747M1434 667L1453 646M1434 667L1413 755M1434 667L1498 728M1453 646L1413 755M1453 646L1498 728M1594 705L1608 676M1594 705L1498 728M1594 705L1640 720M1608 676L1640 720M1733 681L1807 680M1733 681L1640 720M1807 680L1897 656M1807 680L1769 771M1807 680L1864 774M1897 656L1983 700M1983 700L2058 692M1983 700L1976 791M1983 700L2072 732M2058 692L2111 713M2058 692L2072 732M2058 692L2130 745M2111 713L2072 732M2111 713L2130 745M2218 696L2287 684M2218 696L2130 745M2218 696L2225 744M2218 696L2265 780M2287 684L2391 640M2287 684L2225 744M2287 684L2265 780M2391 640L2404 649M2391 640L2483 695M2404 649L2483 695M2404 649L2373 758M2483 695L2575 761M-77 695L15 761M15 761L112 778M15 761L-9 794M15 761L58 810M2575 761L2551 794M112 778L193 791M112 778L58 810M112 778L188 813M193 791L129 870M193 791L188 813M193 791L281 839M300 726L352 762M300 726L281 839M352 762L431 798M352 762L421 802M431 798L377 870M431 798L421 802M431 798L485 873M539 760L621 770M621 770L666 752M621 770L607 870M621 770L679 831M781 772L825 793M781 772L728 873M781 772L862 805M825 793L907 723M825 793L862 805M825 793L734 881M907 723L988 788M907 723L862 805M988 788L948 867M988 788L1019 858M1107 758L1148 763M1107 758L1088 828M1148 763L1088 828M1259 747L1246 801M1334 789L1413 755M1334 789L1246 801M1334 789L1282 853M1334 789L1371 827M1334 789L1299 881M1413 755L1498 728M1413 755L1371 827M1498 728L1536 788M1536 788L1456 877M1536 788L1566 836M1536 788L1486 881M1725 800L1769 771M1725 800L1638 833M1725 800L1694 811M1725 800L1811 853M1725 800L1660 883M1769 771L1864 774M1769 771L1694 811M1769 771L1811 853M1864 774L1976 791M1864 774L1811 853M1976 791L1973 853M1976 791L2017 830M2072 732L2130 745M2072 732L2017 830M2130 745L2225 744M2225 744L2265 780M2265 780L2257 863M2265 780L2343 815M2373 758L2406 761M2373 758L2343 815M2406 761L2343 815M2551 794L2618 810M2551 794L2460 863M2551 794L2544 875M2551 794L2541 898M-9 794L58 810M58 810L-16 875M58 810L76 909M2618 810L2544 875M129 870L188 813M129 870L76 909M129 870L158 923M129 870L194 950M188 813L281 839M281 839L377 870M281 839L292 925M377 870L421 802M377 870L377 945M377 870L405 929M421 802L485 873M485 873L405 929M485 873L543 958M607 870L679 831M607 870L605 940M607 870L584 964M679 831L728 873M679 831L719 887M679 831L734 881M728 873L719 887M728 873L734 881M728 873L837 933M862 805L948 867M948 867L1019 858M948 867L888 927M948 867L1034 929M1019 858L1088 828M1019 858L1034 929M1088 828L1113 885M1191 876L1113 885M1191 876L1221 893M1246 801L1282 853M1282 853L1371 827M1282 853L1221 893M1282 853L1299 881M1371 827L1299 881M1371 827L1367 909M1456 877L1367 909M1456 877L1486 881M1566 836L1638 833M1566 836L1486 881M1566 836L1562 927M1638 833L1694 811M1638 833L1660 883M1694 811L1660 883M1811 853L1901 880M1811 853L1794 932M1901 880L1973 853M1901 880L1911 924M1901 880L1966 928M1901 880L1879 964M1973 853L2017 830M1973 853L1911 924M1973 853L1966 928M2017 830L2082 850M2082 850L2148 920M2213 872L2257 863M2213 872L2148 920M2213 872L2197 952M2213 872L2262 932M2257 863L2262 932M2257 863L2323 907M2343 815L2407 912M2460 863L2544 875M2460 863L2407 912M2460 863L2541 898M2544 875L2541 898M76 909L158 923M76 909L28 968M158 923L194 950M158 923L190 995M194 950L292 925M194 950L190 995M292 925L377 945M292 925L405 929M292 925L290 1018M377 945L405 929M377 945L350 1038M377 945L464 971M405 929L464 971M543 958L605 940M543 958L464 971M543 958L499 1035M543 958L584 964M605 940L584 964M719 887L734 881M719 887L713 1007M734 881L837 933M837 933L888 927M837 933L758 1026M837 933L868 993M888 927L868 993M888 927L960 1029M1034 929L1113 885M1034 929L1015 996M1034 929L1081 968M1113 885L1158 950M1113 885L1081 968M1158 950L1221 893M1158 950L1081 968M1158 950L1172 1008M1158 950L1237 983M1221 893L1299 881M1221 893L1237 983M1299 881L1367 909M1367 909L1486 881M1486 881L1562 927M1562 927L1660 883M1562 927L1554 998M1562 927L1608 984M1660 883L1690 954M1690 954L1794 932M1690 954L1608 984M1690 954L1726 1000M1690 954L1680 1043M1794 932L1726 1000M1794 932L1837 973M1794 932L1879 964M1911 924L1966 928M1911 924L1837 973M1911 924L1879 964M1966 928L2056 960M1966 928L1879 964M2056 960L2148 920M2056 960L2080 1014M2056 960L2129 977M2056 960L2073 1059M2148 920L2197 952M2148 920L2129 977M2197 952L2262 932M2197 952L2129 977M2197 952L2206 1014M2262 932L2323 907M2262 932L2286 997M2323 907L2407 912M2323 907L2286 997M2323 907L2352 977M2407 912L2352 977M2407 912L2496 978M2541 898L2588 968M2541 898L2496 978M-19 898L28 968M28 968L90 1011M28 968L-64 978M28 968L35 1047M2588 968L2496 978M90 1011L190 995M90 1011L35 1047M90 1011L136 1084M90 1011L165 1084M190 995L136 1084M190 995L165 1084M290 1018L350 1038M290 1018L295 1072M350 1038L295 1072M350 1038L383 1104M350 1038L451 1068M464 971L499 1035M464 971L451 1068M499 1035L451 1068M499 1035L495 1112M499 1035L572 1074M584 964L572 1074M713 1007L758 1026M713 1007L707 1066M713 1007L725 1066M758 1026L707 1066M758 1026L725 1066M758 1026L828 1089M868 993L960 1029M868 993L828 1089M868 993L898 1094M960 1029L1015 996M960 1029L898 1094M960 1029L1024 1100M1015 996L1081 968M1015 996L1024 1100M1081 968L1172 1008M1172 1008L1237 983M1172 1008L1105 1083M1172 1008L1226 1051M1237 983L1309 1016M1237 983L1226 1051M1309 1016L1418 1025M1309 1016L1226 1051M1309 1016L1315 1104M1418 1025L1494 1019M1418 1025L1419 1090M1418 1025L1463 1042M1494 1019L1554 998M1494 1019L1419 1090M1494 1019L1463 1042M1494 1019L1573 1044M1554 998L1608 984M1554 998L1463 1042M1554 998L1573 1044M1608 984L1573 1044M1608 984L1680 1043M1726 1000L1837 973M1726 1000L1680 1043M1726 1000L1734 1065M1837 973L1879 964M1837 973L1852 1077M1960 1034L2080 1014M1960 1034L1938 1116M2080 1014L2129 977M2080 1014L2073 1059M2080 1014L2095 1077M2129 977L2206 1014M2206 1014L2286 997M2206 1014L2225 1070M2206 1014L2266 1047M2286 997L2352 977M2286 997L2266 1047M2352 977L2415 1031M2415 1031L2496 978M2415 1031L2347 1092M2415 1031L2429 1081M2496 978L2595 1047M-64 978L35 1047M35 1047L-18 1108M35 1047L32 1122M2595 1047L2542 1108M136 1084L165 1084M136 1084L32 1122M136 1084L146 1156M165 1084L146 1156M165 1084L221 1164M295 1072L383 1104M295 1072L221 1164M295 1072L304 1156M383 1104L451 1068M383 1104L360 1174M383 1104L432 1182M451 1068L495 1112M495 1112L572 1074M495 1112L432 1182M495 1112L496 1170M572 1074L583 1134M707 1066L725 1066M707 1066L702 1182M725 1066L828 1089M725 1066L702 1182M828 1089L898 1094M828 1089L848 1127M898 1094L848 1127M898 1094L888 1183M1024 1100L1105 1083M1024 1100L1026 1131M1024 1100L1102 1139M1105 1083L1191 1119M1105 1083L1026 1131M1105 1083L1102 1139M1191 1119L1226 1051M1191 1119L1172 1186M1226 1051L1315 1104M1315 1104L1274 1168M1315 1104L1346 1151M1315 1104L1363 1181M1419 1090L1463 1042M1419 1090L1346 1151M1419 1090L1476 1158M1573 1044L1680 1043M1573 1044L1569 1165M1680 1043L1734 1065M1734 1065L1775 1118M1734 1065L1852 1077M1734 1065L1815 1147M1775 1118L1852 1077M1775 1118L1740 1174M1775 1118L1815 1147M1852 1077L1938 1116M1852 1077L1815 1147M1938 1116L1915 1188M1938 1116L1933 1162M1938 1116L1945 1209M2073 1059L2095 1077M2073 1059L2046 1154M2073 1059L2118 1146M2095 1077L2046 1154M2095 1077L2118 1146M2225 1070L2266 1047M2225 1070L2203 1140M2266 1047L2347 1092M2266 1047L2313 1135M2347 1092L2429 1081M2347 1092L2313 1135M2347 1092L2369 1130M2429 1081L2542 1108M2429 1081L2369 1130M2429 1081L2458 1145M2542 1108L2592 1122M2542 1108L2458 1145M2542 1108L2524 1174M-18 1108L32 1122M32 1122L-36 1174M32 1122L78 1200M2592 1122L2524 1174M146 1156L221 1164M146 1156L78 1200M146 1156L210 1214M221 1164L304 1156M221 1164L210 1214M304 1156L360 1174M304 1156L296 1251M360 1174L432 1182M360 1174L296 1251M360 1174L361 1221M432 1182L496 1170M432 1182L361 1221M496 1170L583 1134M496 1170L551 1236M583 1134L551 1236M583 1134L588 1238M702 1182L773 1192M702 1182L667 1229M702 1182L770 1203M773 1192L848 1127M773 1192L667 1229M773 1192L770 1203M773 1192L827 1211M848 1127L888 1183M848 1127L827 1211M888 1183L827 1211M888 1183L948 1220M888 1183L914 1282M1026 1131L1102 1139M1026 1131L990 1210M1026 1131L1061 1226M1102 1139L1172 1186M1102 1139L1061 1226M1172 1186L1161 1249M1172 1186L1213 1257M1274 1168L1346 1151M1274 1168L1363 1181M1274 1168L1213 1257M1274 1168L1354 1228M1346 1151L1363 1181M1346 1151L1354 1228M1363 1181L1354 1228M1363 1181L1414 1226M1476 1158L1569 1165M1476 1158L1414 1226M1476 1158L1470 1227M1569 1165L1633 1144M1569 1165L1470 1227M1569 1165L1595 1208M1633 1144L1740 1174M1633 1144L1595 1208M1740 1174L1815 1147M1740 1174L1742 1263M1815 1147L1865 1226M1915 1188L1933 1162M1915 1188L1865 1226M1915 1188L1945 1209M1933 1162L1945 1209M2046 1154L2118 1146M2046 1154L2082 1215M2118 1146L2203 1140M2118 1146L2082 1215M2203 1140L2313 1135M2203 1140L2213 1216M2203 1140L2288 1228M2313 1135L2369 1130M2313 1135L2288 1228M2369 1130L2458 1145M2369 1130L2395 1217M2458 1145L2524 1174M2458 1145L2478 1215M2524 1174L2478 1215M2524 1174L2557 1277M78 1200L128 1279M128 1279L210 1214M128 1279L157 1335M128 1279L169 1289M210 1214L296 1251M210 1214L169 1289M296 1251L361 1221M296 1251L305 1291M361 1221L425 1277M361 1221L305 1291M425 1277L305 1291M425 1277L393 1311M425 1277L474 1320M425 1277L517 1312M551 1236L588 1238M551 1236L517 1312M551 1236L613 1326M588 1238L667 1229M588 1238L517 1312M588 1238L613 1326M667 1229L770 1203M770 1203L827 1211M770 1203L764 1325M827 1211L878 1292M948 1220L990 1210M948 1220L1061 1226M948 1220L878 1292M948 1220L914 1282M990 1210L1061 1226M1061 1226L1161 1249M1161 1249L1213 1257M1161 1249L1083 1339M1213 1257L1175 1354M1213 1257L1274 1344M1354 1228L1414 1226M1354 1228L1470 1227M1414 1226L1470 1227M1470 1227L1458 1330M1595 1208L1602 1279M1595 1208L1649 1282M1602 1279L1579 1320M1602 1279L1649 1282M1742 1263L1787 1270M1742 1263L1649 1282M1742 1263L1728 1297M1787 1270L1865 1226M1787 1270L1728 1297M1787 1270L1796 1345M1865 1226L1945 1209M1865 1226L1893 1309M1945 1209L2005 1298M2055 1276L2082 1215M2055 1276L2005 1298M2055 1276L2116 1320M2055 1276L2004 1365M2082 1215L2116 1320M2213 1216L2288 1228M2213 1216L2251 1322M2288 1228L2395 1217M2288 1228L2251 1322M2395 1217L2478 1215M2395 1217L2395 1299M2395 1217L2453 1331M2478 1215L2557 1277M2557 1277L2609 1347M2557 1277L2542 1292M2557 1277L2577 1371M-3 1277L49 1347M-3 1277L17 1371M49 1347L-18 1292M49 1347L17 1371M49 1347L117 1418M49 1347L-33 1393M2609 1347L2542 1292M2609 1347L2527 1393M157 1335L169 1289M157 1335L117 1418M157 1335L195 1400M305 1291L393 1311M305 1291L305 1423M393 1311L474 1320M393 1311L395 1427M474 1320L517 1312M474 1320L469 1409M517 1312L613 1326M613 1326L654 1344M613 1326L581 1419M654 1344L764 1325M654 1344L581 1419M654 1344L649 1422M764 1325L798 1424M764 1325L846 1391M878 1292L914 1282M878 1292L846 1391M914 1282L979 1338M979 1338L1083 1339M979 1338L922 1397M979 1338L969 1429M1083 1339L1175 1354M1083 1339L1088 1386M1083 1339L1135 1389M1175 1354L1088 1386M1175 1354L1135 1389M1175 1354L1227 1397M1274 1344L1283 1351M1274 1344L1227 1397M1274 1344L1294 1413M1283 1351L1405 1354M1283 1351L1227 1397M1283 1351L1294 1413M1405 1354L1458 1330M1405 1354L1411 1410M1405 1354L1506 1387M1458 1330L1411 1410M1458 1330L1506 1387M1579 1320L1649 1282M1579 1320L1506 1387M1579 1320L1555 1425M1579 1320L1630 1385M1649 1282L1728 1297M1728 1297L1796 1345M1728 1297L1717 1393M1796 1345L1717 1393M1796 1345L1780 1392M1796 1345L1843 1390M1893 1309L1959 1350M1893 1309L2005 1298M1893 1309L1843 1390M1893 1309L1933 1402M1959 1350L2005 1298M1959 1350L1843 1390M1959 1350L1933 1402M1959 1350L2004 1365M2005 1298L2004 1365M2116 1320L2171 1359M2116 1320L2004 1365M2116 1320L2118 1368M2171 1359L2251 1322M2171 1359L2118 1368M2171 1359L2231 1429M2251 1322L2231 1429M2251 1322L2288 1379M2395 1299L2453 1331M2395 1299L2401 1360M2453 1331L2542 1292M2453 1331L2401 1360M2453 1331L2527 1393M2542 1292L2577 1371M2542 1292L2527 1393M-18 1292L17 1371M17 1371L-33 1393M2577 1371L2527 1393M117 1418L195 1400M195 1400L305 1423M305 1423L395 1427M395 1427L469 1409M469 1409L513 1431M513 1431L581 1419M581 1419L649 1422M798 1424L846 1391M846 1391L922 1397M922 1397L969 1429M969 1429L1088 1386M1088 1386L1135 1389M1135 1389L1227 1397M1227 1397L1294 1413M1506 1387L1555 1425M1555 1425L1630 1385M1630 1385L1717 1393M1717 1393L1780 1392M1780 1392L1843 1390M1843 1390L1933 1402M1933 1402L2004 1365M2231 1429L2288 1379M2288 1379L2396 1439M2288 1379L2401 1360M2396 1439L2401 1360"/></svg>