<svg xmlns="http://www.w3.org/2000/svg" width="2560" height="1440" fill="#fff"><circle cx="65" cy="40" r="5"/><circle cx="152" cy="34" r="5"/><circle cx="213" cy="42" r="5"/><circle cx="272" cy="73" r="5"/><circle cx="361" cy="73" r="5"/><circle cx="465" cy="22" r="6"/><circle cx="489" cy="4" r="5"/><circle cx="489" cy="1444" r="5"/><circle cx="627" cy="47" r="5"/><circle cx="692" cy="62" r="5"/><circle cx="791" cy="37" r="5"/><circle cx="840" cy="39" r="5"/><circle cx="943" cy="52" r="6"/><circle cx="1023" cy="76" r="5"/><circle cx="1077" cy="60" r="5"/><circle cx="1145" cy="23" r="5"/><circle cx="1219" cy="34" r="5"/><circle cx="1355" cy="42" r="5"/><circle cx="1425" cy="11" r="5"/><circle cx="1458" cy="47" r="5"/><circle cx="1572" cy="1" r="4"/><circle cx="1572" cy="1441" r="4"/><circle cx="1640" cy="22" r="5"/><circle cx="1730" cy="25" r="5"/><circle cx="1826" cy="4" r="5"/><circle cx="1826" cy="1444" r="5"/><circle cx="1897" cy="52" r="4"/><circle cx="1932" cy="47" r="4"/><circle cx="2052" cy="78" r="4"/><circle cx="2149" cy="55" r="5"/><circle cx="2174" cy="73" r="4"/><circle cx="2301" cy="68" r="5"/><circle cx="2365" cy="78" r="5"/><circle cx="2445" cy="3" r="4"/><circle cx="2445" cy="1443" r="4"/><circle cx="2549" cy="76" r="5"/><circle cx="53" cy="160" r="5"/><circle cx="153" cy="120" r="4"/><circle cx="201" cy="90" r="5"/><circle cx="256" cy="92" r="6"/><circle cx="360" cy="134" r="6"/><circle cx="449" cy="104" r="6"/><circle cx="498" cy="141" r="4"/><circle cx="608" cy="99" r="5"/><circle cx="675" cy="89" r="4"/><circle cx="732" cy="86" r="5"/><circle cx="835" cy="108" r="4"/><circle cx="944" cy="141" r="6"/><circle cx="1009" cy="120" r="5"/><circle cx="1072" cy="132" r="4"/><circle cx="1184" cy="142" r="5"/><circle cx="1279" cy="145" r="6"/><circle cx="1344" cy="149" r="6"/><circle cx="1401" cy="141" r="5"/><circle cx="1504" cy="116" r="4"/><circle cx="1540" cy="157" r="5"/><circle cx="1661" cy="120" r="4"/><circle cx="1703" cy="135" r="5"/><circle cx="1829" cy="104" r="4"/><circle cx="1893" cy="141" r="4"/><circle cx="1977" cy="126" r="6"/><circle cx="2059" cy="144" r="6"/><circle cx="2149" cy="105" r="4"/><circle cx="2220" cy="112" r="6"/><circle cx="2277" cy="133" r="5"/><circle cx="2375" cy="148" r="5"/><circle cx="2403" cy="130" r="5"/><circle cx="2497" cy="144" r="6"/><circle cx="64" cy="240" r="6"/><circle cx="148" cy="200" r="5"/><circle cx="178" cy="207" r="6"/><circle cx="245" cy="223" r="5"/><circle cx="387" cy="203" r="6"/><circle cx="469" cy="165" r="6"/><circle cx="516" cy="206" r="4"/><circle cx="573" cy="225" r="5"/><circle cx="713" cy="198" r="4"/><circle cx="800" cy="181" r="6"/><circle cx="803" cy="184" r="5"/><circle cx="948" cy="230" r="5"/><circle cx="984" cy="167" r="5"/><circle cx="1101" cy="196" r="5"/><circle cx="1193" cy="167" r="4"/><circle cx="1207" cy="183" r="5"/><circle cx="1281" cy="189" r="4"/><circle cx="1409" cy="203" r="6"/><circle cx="1457" cy="169" r="4"/><circle cx="1573" cy="185" r="5"/><circle cx="1635" cy="215" r="4"/><circle cx="1704" cy="236" r="5"/><circle cx="1800" cy="231" r="5"/><circle cx="1879" cy="214" r="5"/><circle cx="1961" cy="164" r="6"/><circle cx="2067" cy="164" r="5"/><circle cx="2091" cy="194" r="6"/><circle cx="2171" cy="234" r="4"/><circle cx="2315" cy="176" r="4"/><circle cx="2352" cy="189" r="5"/><circle cx="2425" cy="193" r="4"/><circle cx="2510" cy="162" r="4"/><circle cx="55" cy="294" r="5"/><circle cx="92" cy="295" r="5"/><circle cx="238" cy="292" r="5"/><circle cx="286" cy="277" r="5"/><circle cx="358" cy="269" r="5"/><circle cx="419" cy="285" r="5"/><circle cx="546" cy="296" r="4"/><circle cx="627" cy="246" r="5"/><circle cx="653" cy="260" r="5"/><circle cx="775" cy="296" r="5"/><circle cx="834" cy="278" r="4"/><circle cx="922" cy="275" r="6"/><circle cx="995" cy="299" r="4"/><circle cx="1056" cy="294" r="5"/><circle cx="1181" cy="297" r="5"/><circle cx="1243" cy="314" r="6"/><circle cx="1329" cy="245" r="6"/><circle cx="1389" cy="298" r="4"/><circle cx="1448" cy="280" r="5"/><circle cx="1598" cy="241" r="4"/><circle cx="1639" cy="298" r="6"/><circle cx="1690" cy="285" r="6"/><circle cx="1777" cy="303" r="4"/><circle cx="1892" cy="316" r="5"/><circle cx="1945" cy="271" r="5"/><circle cx="2023" cy="318" r="4"/><circle cx="2125" cy="299" r="6"/><circle cx="2238" cy="312" r="6"/><circle cx="2252" cy="242" r="5"/><circle cx="2375" cy="308" r="4"/><circle cx="2430" cy="241" r="5"/><circle cx="2486" cy="294" r="5"/><circle cx="50" cy="362" r="6"/><circle cx="144" cy="357" r="5"/><circle cx="182" cy="357" r="5"/><circle cx="279" cy="383" r="5"/><circle cx="383" cy="376" r="6"/><circle cx="424" cy="325" r="4"/><circle cx="504" cy="373" r="5"/><circle cx="632" cy="331" r="5"/><circle cx="703" cy="345" r="4"/><circle cx="769" cy="320" r="6"/><circle cx="835" cy="328" r="5"/><circle cx="918" cy="394" r="5"/><circle cx="1037" cy="351" r="5"/><circle cx="1046" cy="359" r="4"/><circle cx="1180" cy="367" r="5"/><circle cx="1227" cy="348" r="6"/><circle cx="1345" cy="323" r="5"/><circle cx="1389" cy="337" r="4"/><circle cx="1499" cy="354" r="4"/><circle cx="1535" cy="392" r="4"/><circle cx="1652" cy="344" r="5"/><circle cx="1710" cy="377" r="6"/><circle cx="1812" cy="380" r="5"/><circle cx="1909" cy="375" r="5"/><circle cx="1990" cy="358" r="4"/><circle cx="2037" cy="338" r="4"/><circle cx="2102" cy="349" r="5"/><circle cx="2207" cy="354" r="5"/><circle cx="2308" cy="333" r="6"/><circle cx="2367" cy="355" r="4"/><circle cx="2478" cy="365" r="5"/><circle cx="2542" cy="340" r="5"/><circle cx="19" cy="432" r="4"/><circle cx="112" cy="435" r="5"/><circle cx="182" cy="443" r="5"/><circle cx="289" cy="439" r="4"/><circle cx="356" cy="403" r="5"/><circle cx="459" cy="451" r="5"/><circle cx="548" cy="444" r="6"/><circle cx="569" cy="468" r="6"/><circle cx="691" cy="453" r="6"/><circle cx="749" cy="435" r="6"/><circle cx="877" cy="412" r="6"/><circle cx="955" cy="453" r="6"/><circle cx="996" cy="421" r="5"/><circle cx="1058" cy="459" r="4"/><circle cx="1126" cy="452" r="5"/><circle cx="1253" cy="446" r="4"/><circle cx="1334" cy="459" r="5"/><circle cx="1432" cy="462" r="4"/><circle cx="1445" cy="458" r="4"/><circle cx="1568" cy="405" r="6"/><circle cx="1655" cy="463" r="5"/><circle cx="1739" cy="437" r="6"/><circle cx="1781" cy="438" r="6"/><circle cx="1874" cy="476" r="5"/><circle cx="1942" cy="476" r="5"/><circle cx="2035" cy="436" r="4"/><circle cx="2094" cy="442" r="4"/><circle cx="2182" cy="479" r="5"/><circle cx="2245" cy="450" r="5"/><circle cx="2359" cy="470" r="5"/><circle cx="2473" cy="443" r="5"/><circle cx="2532" cy="431" r="5"/><circle cx="54" cy="530" r="5"/><circle cx="115" cy="508" r="4"/><circle cx="195" cy="502" r="5"/><circle cx="306" cy="508" r="6"/><circle cx="395" cy="546" r="5"/><circle cx="468" cy="530" r="4"/><circle cx="491" cy="505" r="5"/><circle cx="591" cy="533" r="6"/><circle cx="706" cy="496" r="6"/><circle cx="762" cy="536" r="5"/><circle cx="826" cy="527" r="5"/><circle cx="953" cy="495" r="5"/><circle cx="1001" cy="549" r="4"/><circle cx="1093" cy="482" r="6"/><circle cx="1173" cy="520" r="4"/><circle cx="1262" cy="535" r="5"/><circle cx="1347" cy="557" r="5"/><circle cx="1426" cy="532" r="4"/><circle cx="1486" cy="554" r="4"/><circle cx="1561" cy="501" r="4"/><circle cx="1608" cy="528" r="6"/><circle cx="1685" cy="518" r="5"/><circle cx="1763" cy="519" r="4"/><circle cx="1851" cy="484" r="6"/><circle cx="1935" cy="499" r="4"/><circle cx="2015" cy="511" r="4"/><circle cx="2143" cy="492" r="4"/><circle cx="2180" cy="523" r="5"/><circle cx="2279" cy="530" r="5"/><circle cx="2398" cy="546" r="6"/><circle cx="2407" cy="542" r="5"/><circle cx="2547" cy="510" r="4"/><circle cx="3" cy="636" r="4"/><circle cx="2563" cy="636" r="4"/><circle cx="158" cy="624" r="6"/><circle cx="189" cy="636" r="6"/><circle cx="310" cy="576" r="4"/><circle cx="320" cy="596" r="4"/><circle cx="475" cy="634" r="5"/><circle cx="558" cy="571" r="5"/><circle cx="568" cy="629" r="6"/><circle cx="713" cy="617" r="4"/><circle cx="780" cy="567" r="5"/><circle cx="848" cy="631" r="5"/><circle cx="930" cy="628" r="5"/><circle cx="1018" cy="615" r="5"/><circle cx="1061" cy="593" r="5"/><circle cx="1130" cy="619" r="6"/><circle cx="1268" cy="618" r="4"/><circle cx="1333" cy="574" r="4"/><circle cx="1426" cy="570" r="4"/><circle cx="1483" cy="626" r="5"/><circle cx="1527" cy="624" r="6"/><circle cx="1632" cy="601" r="4"/><circle cx="1683" cy="561" r="5"/><circle cx="1770" cy="633" r="6"/><circle cx="1907" cy="603" r="5"/><circle cx="1925" cy="597" r="6"/><circle cx="2065" cy="615" r="5"/><circle cx="2113" cy="570" r="5"/><circle cx="2227" cy="597" r="5"/><circle cx="2282" cy="575" r="5"/><circle cx="2374" cy="606" r="5"/><circle cx="2469" cy="599" r="5"/><circle cx="2481" cy="588" r="5"/><circle cx="40" cy="715" r="4"/><circle cx="91" cy="701" r="6"/><circle cx="216" cy="685" r="5"/><circle cx="273" cy="659" r="6"/><circle cx="368" cy="657" r="4"/><circle cx="447" cy="648" r="4"/><circle cx="555" cy="694" r="6"/><circle cx="577" cy="664" r="6"/><circle cx="652" cy="643" r="5"/><circle cx="789" cy="674" r="5"/><circle cx="840" cy="645" r="4"/><circle cx="908" cy="660" r="5"/><circle cx="976" cy="649" r="5"/><circle cx="1045" cy="697" r="5"/><circle cx="1153" cy="670" r="5"/><circle cx="1257" cy="674" r="5"/><circle cx="1321" cy="683" r="6"/><circle cx="1427" cy="690" r="5"/><circle cx="1501" cy="711" r="6"/><circle cx="1594" cy="696" r="4"/><circle cx="1672" cy="690" r="4"/><circle cx="1749" cy="648" r="4"/><circle cx="1831" cy="679" r="6"/><circle cx="1893" cy="689" r="6"/><circle cx="1994" cy="695" r="5"/><circle cx="2005" cy="647" r="5"/><circle cx="2128" cy="681" r="5"/><circle cx="2176" cy="701" r="4"/><circle cx="2294" cy="701" r="5"/><circle cx="2366" cy="672" r="5"/><circle cx="2468" cy="697" r="5"/><circle cx="2536" cy="711" r="5"/><circle cx="70" cy="742" r="6"/><circle cx="108" cy="794" r="5"/><circle cx="176" cy="786" r="4"/><circle cx="306" cy="733" r="6"/><circle cx="350" cy="773" r="5"/><circle cx="433" cy="763" r="5"/><circle cx="531" cy="766" r="6"/><circle cx="628" cy="733" r="4"/><circle cx="664" cy="796" r="5"/><circle cx="753" cy="758" r="5"/><circle cx="816" cy="762" r="6"/><circle cx="953" cy="793" r="5"/><circle cx="1004" cy="724" r="5"/><circle cx="1101" cy="767" r="6"/><circle cx="1166" cy="725" r="5"/><circle cx="1226" cy="769" r="5"/><circle cx="1318" cy="753" r="5"/><circle cx="1363" cy="791" r="4"/><circle cx="1469" cy="747" r="6"/><circle cx="1594" cy="729" r="4"/><circle cx="1602" cy="728" r="6"/><circle cx="1699" cy="786" r="6"/><circle cx="1810" cy="724" r="5"/><circle cx="1878" cy="783" r="5"/><circle cx="1971" cy="772" r="5"/><circle cx="2013" cy="798" r="5"/><circle cx="2156" cy="753" r="5"/><circle cx="2201" cy="780" r="5"/><circle cx="2280" cy="722" r="5"/><circle cx="2392" cy="787" r="6"/><circle cx="2467" cy="733" r="4"/><circle cx="2516" cy="796" r="6"/><circle cx="26" cy="871" r="5"/><circle cx="121" cy="822" r="5"/><circle cx="188" cy="807" r="6"/><circle cx="304" cy="878" r="4"/><circle cx="350" cy="848" r="5"/><circle cx="444" cy="814" r="4"/><circle cx="546" cy="837" r="5"/><circle cx="570" cy="835" r="5"/><circle cx="661" cy="838" r="4"/><circle cx="776" cy="867" r="5"/><circle cx="826" cy="867" r="4"/><circle cx="954" cy="820" r="5"/><circle cx="993" cy="849" r="5"/><circle cx="1082" cy="807" r="5"/><circle cx="1171" cy="854" r="5"/><circle cx="1259" cy="830" r="5"/><circle cx="1332" cy="800" r="5"/><circle cx="1362" cy="833" r="4"/><circle cx="1462" cy="804" r="6"/><circle cx="1583" cy="862" r="5"/><circle cx="1647" cy="864" r="5"/><circle cx="1754" cy="838" r="6"/><circle cx="1770" cy="862" r="5"/><circle cx="1864" cy="851" r="6"/><circle cx="1931" cy="855" r="4"/><circle cx="2060" cy="865" r="5"/><circle cx="2137" cy="828" r="5"/><circle cx="2193" cy="862" r="5"/><circle cx="2285" cy="815" r="5"/><circle cx="2362" cy="802" r="5"/><circle cx="2419" cy="825" r="5"/><circle cx="2558" cy="862" r="6"/><circle cx="-2" cy="862" r="6"/><circle cx="9" cy="956" r="4"/><circle cx="86" cy="910" r="5"/><circle cx="234" cy="913" r="4"/><circle cx="315" cy="921" r="6"/><circle cx="394" cy="902" r="4"/><circle cx="405" cy="903" r="6"/><circle cx="526" cy="942" r="5"/><circle cx="562" cy="947" r="4"/><circle cx="692" cy="916" r="4"/><circle cx="767" cy="897" r="4"/><circle cx="866" cy="918" r="5"/><circle cx="889" cy="899" r="4"/><circle cx="1003" cy="924" r="4"/><circle cx="1064" cy="928" r="5"/><circle cx="1148" cy="906" r="5"/><circle cx="1258" cy="950" r="6"/><circle cx="1308" cy="920" r="4"/><circle cx="1418" cy="908" r="5"/><circle cx="1497" cy="905" r="4"/><circle cx="1537" cy="924" r="5"/><circle cx="1616" cy="945" r="6"/><circle cx="1715" cy="919" r="5"/><circle cx="1799" cy="954" r="5"/><circle cx="1910" cy="883" r="5"/><circle cx="1948" cy="924" r="4"/><circle cx="2015" cy="881" r="4"/><circle cx="2147" cy="929" r="5"/><circle cx="2197" cy="886" r="5"/><circle cx="2252" cy="950" r="5"/><circle cx="2365" cy="959" r="6"/><circle cx="2425" cy="959" r="6"/><circle cx="2531" cy="958" r="5"/><circle cx="71" cy="1038" r="6"/><circle cx="120" cy="1030" r="6"/><circle cx="169" cy="1006" r="5"/><circle cx="275" cy="988" r="6"/><circle cx="338" cy="982" r="5"/><circle cx="452" cy="1033" r="4"/><circle cx="505" cy="1004" r="4"/><circle cx="572" cy="1014" r="5"/><circle cx="651" cy="994" r="4"/><circle cx="785" cy="1036" r="5"/><circle cx="875" cy="992" r="5"/><circle cx="910" cy="1029" r="5"/><circle cx="1008" cy="971" r="5"/><circle cx="1048" cy="979" r="6"/><circle cx="1185" cy="1006" r="5"/><circle cx="1247" cy="989" r="6"/><circle cx="1345" cy="1001" r="6"/><circle cx="1423" cy="992" r="5"/><circle cx="1471" cy="972" r="4"/><circle cx="1547" cy="1022" r="5"/><circle cx="1659" cy="1032" r="5"/><circle cx="1719" cy="1025" r="5"/><circle cx="1761" cy="1001" r="5"/><circle cx="1882" cy="980" r="4"/><circle cx="1943" cy="963" r="5"/><circle cx="2041" cy="991" r="6"/><circle cx="2148" cy="978" r="5"/><circle cx="2215" cy="1014" r="6"/><circle cx="2301" cy="965" r="5"/><circle cx="2399" cy="990" r="4"/><circle cx="2431" cy="990" r="5"/><circle cx="2556" cy="978" r="5"/><circle cx="-4" cy="978" r="5"/><circle cx="31" cy="1042" r="4"/><circle cx="129" cy="1070" r="6"/><circle cx="210" cy="1087" r="6"/><circle cx="260" cy="1109" r="4"/><circle cx="387" cy="1058" r="5"/><circle cx="415" cy="1085" r="4"/><circle cx="537" cy="1084" r="5"/><circle cx="574" cy="1076" r="5"/><circle cx="653" cy="1060" r="5"/><circle cx="790" cy="1042" r="6"/><circle cx="854" cy="1105" r="4"/><circle cx="926" cy="1077" r="6"/><circle cx="975" cy="1052" r="6"/><circle cx="1069" cy="1101" r="4"/><circle cx="1180" cy="1105" r="5"/><circle cx="1233" cy="1116" r="5"/><circle cx="1323" cy="1042" r="6"/><circle cx="1409" cy="1045" r="5"/><circle cx="1470" cy="1067" r="4"/><circle cx="1592" cy="1076" r="5"/><circle cx="1652" cy="1110" r="6"/><circle cx="1724" cy="1083" r="5"/><circle cx="1793" cy="1040" r="5"/><circle cx="1857" cy="1042" r="4"/><circle cx="1986" cy="1106" r="5"/><circle cx="2015" cy="1092" r="4"/><circle cx="2134" cy="1041" r="5"/><circle cx="2195" cy="1117" r="4"/><circle cx="2309" cy="1056" r="5"/><circle cx="2388" cy="1116" r="5"/><circle cx="2446" cy="1069" r="6"/><circle cx="2530" cy="1051" r="5"/><circle cx="70" cy="1139" r="5"/><circle cx="106" cy="1120" r="6"/><circle cx="180" cy="1173" r="6"/><circle cx="309" cy="1126" r="5"/><circle cx="381" cy="1121" r="4"/><circle cx="404" cy="1183" r="4"/><circle cx="504" cy="1199" r="4"/><circle cx="576" cy="1153" r="5"/><circle cx="689" cy="1146" r="5"/><circle cx="726" cy="1120" r="5"/><circle cx="849" cy="1134" r="4"/><circle cx="903" cy="1198" r="4"/><circle cx="1031" cy="1162" r="4"/><circle cx="1079" cy="1180" r="6"/><circle cx="1180" cy="1148" r="4"/><circle cx="1268" cy="1133" r="4"/><circle cx="1342" cy="1174" r="5"/><circle cx="1404" cy="1126" r="5"/><circle cx="1450" cy="1140" r="5"/><circle cx="1540" cy="1175" r="6"/><circle cx="1619" cy="1139" r="5"/><circle cx="1708" cy="1183" r="4"/><circle cx="1820" cy="1166" r="5"/><circle cx="1886" cy="1188" r="4"/><circle cx="1935" cy="1175" r="6"/><circle cx="2055" cy="1190" r="6"/><circle cx="2082" cy="1144" r="6"/><circle cx="2195" cy="1162" r="5"/><circle cx="2274" cy="1188" r="6"/><circle cx="2338" cy="1143" r="4"/><circle cx="2412" cy="1144" r="6"/><circle cx="2540" cy="1191" r="5"/><circle cx="44" cy="1206" r="4"/><circle cx="123" cy="1259" r="5"/><circle cx="201" cy="1272" r="5"/><circle cx="244" cy="1238" r="6"/><circle cx="387" cy="1275" r="5"/><circle cx="457" cy="1207" r="6"/><circle cx="498" cy="1270" r="5"/><circle cx="568" cy="1259" r="4"/><circle cx="713" cy="1256" r="5"/><circle cx="768" cy="1220" r="5"/><circle cx="833" cy="1260" r="4"/><circle cx="880" cy="1207" r="5"/><circle cx="1032" cy="1220" r="5"/><circle cx="1120" cy="1231" r="4"/><circle cx="1143" cy="1201" r="5"/><circle cx="1217" cy="1240" r="6"/><circle cx="1315" cy="1215" r="4"/><circle cx="1386" cy="1227" r="5"/><circle cx="1488" cy="1263" r="5"/><circle cx="1586" cy="1206" r="4"/><circle cx="1648" cy="1228" r="6"/><circle cx="1732" cy="1279" r="5"/><circle cx="1812" cy="1244" r="5"/><circle cx="1866" cy="1222" r="5"/><circle cx="1970" cy="1270" r="5"/><circle cx="2053" cy="1239" r="5"/><circle cx="2081" cy="1213" r="6"/><circle cx="2204" cy="1206" r="5"/><circle cx="2300" cy="1217" r="5"/><circle cx="2382" cy="1234" r="5"/><circle cx="2472" cy="1202" r="6"/><circle cx="2482" cy="1260" r="4"/><circle cx="46" cy="1307" r="4"/><circle cx="116" cy="1354" r="5"/><circle cx="199" cy="1333" r="6"/><circle cx="249" cy="1312" r="6"/><circle cx="360" cy="1326" r="5"/><circle cx="427" cy="1296" r="5"/><circle cx="507" cy="1337" r="5"/><circle cx="605" cy="1287" r="4"/><circle cx="720" cy="1284" r="4"/><circle cx="787" cy="1341" r="4"/><circle cx="807" cy="1340" r="4"/><circle cx="891" cy="1290" r="4"/><circle cx="1028" cy="1294" r="5"/><circle cx="1068" cy="1331" r="6"/><circle cx="1158" cy="1351" r="4"/><circle cx="1209" cy="1322" r="4"/><circle cx="1285" cy="1297" r="5"/><circle cx="1376" cy="1286" r="4"/><circle cx="1469" cy="1323" r="5"/><circle cx="1541" cy="1340" r="5"/><circle cx="1655" cy="1337" r="5"/><circle cx="1712" cy="1314" r="4"/><circle cx="1814" cy="1283" r="5"/><circle cx="1859" cy="1334" r="4"/><circle cx="1996" cy="1300" r="6"/><circle cx="2079" cy="1300" r="5"/><circle cx="2106" cy="1339" r="4"/><circle cx="2230" cy="1285" r="6"/><circle cx="2245" cy="1322" r="6"/><circle cx="2349" cy="1282" r="5"/><circle cx="2461" cy="1283" r="5"/><circle cx="2520" cy="1333" r="5"/><circle cx="23" cy="1409" r="4"/><circle cx="87" cy="1360" r="4"/><circle cx="234" cy="1391" r="6"/><circle cx="310" cy="1399" r="5"/><circle cx="350" cy="1378" r="5"/><circle cx="456" cy="1410" r="5"/><circle cx="553" cy="1393" r="6"/><circle cx="584" cy="1363" r="5"/><circle cx="652" cy="1431" r="6"/><circle cx="797" cy="1431" r="6"/><circle cx="825" cy="1419" r="6"/><circle cx="913" cy="1404" r="4"/><circle cx="1026" cy="1379" r="4"/><circle cx="1103" cy="1386" r="6"/><circle cx="1151" cy="1372" r="4"/><circle cx="1258" cy="1431" r="5"/><circle cx="1290" cy="1395" r="6"/><circle cx="1433" cy="1408" r="6"/><circle cx="1457" cy="1432" r="4"/><circle cx="1582" cy="1381" r="6"/><circle cx="1618" cy="1402" r="6"/><circle cx="1732" cy="1436" r="5"/><circle cx="1732" cy="-4" r="5"/><circle cx="1836" cy="1411" r="6"/><circle cx="1906" cy="1424" r="5"/><circle cx="1977" cy="1384" r="5"/><circle cx="2029" cy="1372" r="5"/><circle cx="2142" cy="1439" r="5"/><circle cx="2142" cy="-1" r="5"/><circle cx="2186" cy="1376" r="5"/><circle cx="2259" cy="1394" r="6"/><circle cx="2398" cy="1382" r="5"/><circle cx="2409" cy="1409" r="5"/><circle cx="2517" cy="1370" r="4"/><path stroke="#fff" d="M65 40L152 34M65 40L-11 76M65 40L23 -31M2625 40L2549 76M65 1480L23 1409M152 34L213 42M152 34L153 120M152 34L201 90M152 34L234 -49M152 1474L234 1391M213 42L272 73M213 42L201 90M213 42L256 92M213 42L234 -49M213 1482L234 1391M272 73L361 73M272 73L201 90M272 73L256 92M272 73L360 134M361 73L465 22M361 73L256 92M361 73L360 134M361 73L449 104M465 22L489 4M465 22L449 104M465 22L456 -30M465 1462L456 1410M489 4L456 -30M489 4L553 -47M489 1444L456 1410M489 1444L553 1393M627 47L692 62M627 47L608 99M627 47L675 89M627 47L652 -9M627 1487L652 1431M692 62L608 99M692 62L675 89M692 62L732 86M692 62L652 -9M692 1502L652 1431M791 37L840 39M791 37L732 86M791 37L835 108M791 37L797 -9M791 37L825 -21M791 1477L797 1431M791 1477L825 1419M840 39L943 52M840 39L835 108M840 39L797 -9M840 39L825 -21M840 1479L797 1431M840 1479L825 1419M943 52L1023 76M943 52L944 141M943 52L1009 120M943 52L913 -36M943 1492L913 1404M1023 76L1077 60M1023 76L944 141M1023 76L1009 120M1023 76L1072 132M1077 60L1145 23M1077 60L1072 132M1145 23L1219 34M1145 23L1103 -54M1145 23L1151 -68M1145 1463L1103 1386M1145 1463L1151 1372M1219 34L1184 142M1219 34L1258 -9M1219 34L1290 -45M1219 1474L1258 1431M1219 1474L1290 1395M1355 42L1425 11M1355 42L1458 47M1355 42L1290 -45M1355 42L1433 -32M1355 1482L1290 1395M1355 1482L1433 1408M1425 11L1458 47M1425 11L1433 -32M1425 11L1457 -8M1425 1451L1433 1408M1425 1451L1457 1432M1458 47L1504 116M1458 47L1433 -32M1458 47L1457 -8M1458 1487L1433 1408M1458 1487L1457 1432M1572 1L1640 22M1572 1L1541 -100M1572 1L1582 -59M1572 1L1618 -38M1572 1441L1541 1340M1572 1441L1582 1381M1572 1441L1618 1402M1640 22L1730 25M1640 22L1582 -59M1640 22L1618 -38M1640 22L1732 -4M1640 1462L1582 1381M1640 1462L1618 1402M1640 1462L1732 1436M1730 25L1826 4M1730 25L1732 -4M1730 1465L1732 1436M1826 4L1897 52M1826 4L1732 -4M1826 4L1836 -29M1826 4L1906 -16M1826 1444L1732 1436M1826 1444L1836 1411M1826 1444L1906 1424M1897 52L1932 47M1897 52L1829 104M1897 52L1836 -29M1897 52L1906 -16M1897 1492L1836 1411M1897 1492L1906 1424M1932 47L1893 141M1932 47L1977 126M1932 47L1906 -16M1932 47L1977 -56M1932 1487L1906 1424M1932 1487L1977 1384M2052 78L2149 55M2052 78L1977 126M2052 78L2059 144M2052 78L2067 164M2149 55L2174 73M2149 55L2149 105M2149 55L2220 112M2149 55L2142 -1M2149 1495L2142 1439M2174 73L2149 105M2174 73L2220 112M2174 73L2142 -1M2174 1513L2142 1439M2301 68L2365 78M2301 68L2220 112M2301 68L2277 133M2301 68L2259 -46M2301 1508L2259 1394M2365 78L2375 148M2365 78L2403 130M2445 3L2398 -58M2445 3L2409 -31M2445 3L2517 -70M2445 1443L2398 1382M2445 1443L2409 1409M2445 1443L2517 1370M2549 76L2613 160M2549 76L2497 144M2549 76L2510 162M2549 76L2583 -31M-11 76L53 160M-11 76L23 -31M-11 1516L23 1409M2549 1516L2583 1409M53 160L-63 144M53 160L64 240M53 160L148 200M53 160L-50 162M2613 160L2497 144M2613 160L2510 162M153 120L201 90M153 120L148 200M153 120L178 207M201 90L256 92M360 134L449 104M360 134L387 203M360 134L469 165M449 104L498 141M449 104L469 165M498 141L608 99M498 141L469 165M498 141L516 206M608 99L675 89M675 89L732 86M675 89L652 -9M675 1529L652 1431M835 108L800 181M835 108L803 184M944 141L1009 120M944 141L948 230M944 141L984 167M1009 120L1072 132M1009 120L984 167M1072 132L984 167M1072 132L1101 196M1184 142L1279 145M1184 142L1101 196M1184 142L1193 167M1184 142L1207 183M1279 145L1344 149M1279 145L1193 167M1279 145L1207 183M1279 145L1281 189M1344 149L1401 141M1344 149L1281 189M1344 149L1409 203M1344 149L1329 245M1401 141L1504 116M1401 141L1409 203M1401 141L1457 169M1504 116L1540 157M1504 116L1457 169M1504 116L1573 185M1540 157L1457 169M1540 157L1573 185M1540 157L1598 241M1661 120L1703 135M1661 120L1573 185M1703 135L1704 236M1829 104L1893 141M1893 141L1977 126M1893 141L1879 214M1893 141L1961 164M1977 126L2059 144M1977 126L1961 164M2059 144L1961 164M2059 144L2067 164M2059 144L2091 194M2149 105L2220 112M2149 105L2067 164M2149 105L2091 194M2220 112L2277 133M2277 133L2315 176M2277 133L2352 189M2375 148L2403 130M2375 148L2315 176M2375 148L2352 189M2375 148L2425 193M2403 130L2497 144M2403 130L2352 189M2403 130L2425 193M2497 144L2425 193M2497 144L2510 162M64 240L148 200M64 240L178 207M64 240L55 294M64 240L92 295M148 200L178 207M148 200L245 223M178 207L245 223M178 207L238 292M245 223L238 292M245 223L286 277M387 203L469 165M387 203L286 277M387 203L358 269M387 203L419 285M469 165L516 206M516 206L573 225M516 206L546 296M573 225L546 296M573 225L627 246M573 225L653 260M573 225L632 331M713 198L800 181M713 198L803 184M713 198L627 246M713 198L653 260M800 181L803 184M800 181L775 296M800 181L834 278M948 230L984 167M948 230L922 275M948 230L995 299M984 167L922 275M1101 196L1193 167M1101 196L1207 183M1101 196L1056 294M1193 167L1207 183M1193 167L1281 189M1207 183L1281 189M1281 189L1329 245M1409 203L1457 169M1409 203L1329 245M1409 203L1448 280M1573 185L1635 215M1573 185L1598 241M1635 215L1704 236M1635 215L1598 241M1635 215L1639 298M1635 215L1690 285M1704 236L1800 231M1704 236L1639 298M1704 236L1690 285M1800 231L1879 214M1800 231L1777 303M1879 214L1961 164M1879 214L1892 316M1879 214L1945 271M1961 164L1945 271M2067 164L2091 194M2067 164L2171 234M2091 194L2171 234M2091 194L2125 299M2171 234L2125 299M2171 234L2238 312M2171 234L2252 242M2315 176L2352 189M2315 176L2252 242M2352 189L2425 193M2425 193L2430 241M2510 162L2430 241M55 294L92 295M55 294L50 362M55 294L-18 340M2615 294L2542 340M92 295L50 362M92 295L144 357M238 292L286 277M238 292L182 357M238 292L279 383M286 277L358 269M358 269L419 285M358 269L424 325M419 285L383 376M419 285L424 325M546 296L627 246M546 296L504 373M546 296L632 331M627 246L653 260M627 246L632 331M653 260L632 331M653 260L703 345M775 296L834 278M775 296L703 345M775 296L769 320M775 296L835 328M834 278L922 275M834 278L769 320M834 278L835 328M922 275L995 299M922 275L835 328M995 299L1056 294M995 299L1037 351M995 299L1046 359M1056 294L1181 297M1056 294L1037 351M1056 294L1046 359M1181 297L1243 314M1181 297L1180 367M1181 297L1227 348M1243 314L1180 367M1243 314L1227 348M1243 314L1345 323M1329 245L1389 298M1329 245L1345 323M1389 298L1448 280M1389 298L1345 323M1389 298L1389 337M1448 280L1389 337M1448 280L1499 354M1598 241L1639 298M1639 298L1690 285M1639 298L1652 344M1690 285L1652 344M1690 285L1710 377M1777 303L1812 380M1892 316L1945 271M1892 316L1812 380M1892 316L1909 375M1945 271L2023 318M1945 271L1990 358M2023 318L1990 358M2023 318L2037 338M2023 318L2102 349M2125 299L2037 338M2125 299L2102 349M2125 299L2207 354M2238 312L2252 242M2238 312L2207 354M2238 312L2308 333M2252 242L2308 333M2375 308L2430 241M2375 308L2486 294M2375 308L2308 333M2375 308L2367 355M2430 241L2486 294M2486 294L2478 365M2486 294L2542 340M50 362L144 357M50 362L-18 340M50 362L19 432M2610 362L2542 340M144 357L182 357M144 357L112 435M144 357L182 443M182 357L279 383M182 357L112 435M182 357L182 443M279 383L383 376M279 383L289 439M279 383L356 403M383 376L424 325M383 376L356 403M383 376L459 451M424 325L504 373M504 373L459 451M504 373L548 444M504 373L569 468M632 331L703 345M703 345L769 320M703 345L749 435M769 320L835 328M769 320L749 435M835 328L877 412M918 394L877 412M918 394L955 453M918 394L996 421M918 394L953 495M1037 351L1046 359M1037 351L996 421M1037 351L1058 459M1046 359L996 421M1046 359L1058 459M1180 367L1227 348M1180 367L1126 452M1180 367L1253 446M1227 348L1345 323M1227 348L1253 446M1345 323L1389 337M1389 337L1499 354M1499 354L1535 392M1499 354L1568 405M1535 392L1568 405M1652 344L1710 377M1652 344L1568 405M1710 377L1655 463M1710 377L1739 437M1710 377L1781 438M1812 380L1909 375M1812 380L1739 437M1812 380L1781 438M1909 375L1990 358M1909 375L1874 476M1909 375L1942 476M1990 358L2037 338M1990 358L2035 436M2037 338L2102 349M2037 338L2035 436M2102 349L2207 354M2102 349L2094 442M2207 354L2308 333M2207 354L2245 450M2308 333L2367 355M2367 355L2478 365M2478 365L2542 340M2478 365L2473 443M2478 365L2532 431M2542 340L2532 431M19 432L112 435M19 432L-87 443M19 432L-28 431M19 432L-13 510M2579 432L2473 443M2579 432L2532 431M2579 432L2547 510M112 435L182 443M112 435L115 508M182 443L115 508M182 443L195 502M289 439L356 403M289 439L195 502M289 439L306 508M459 451L548 444M459 451L468 530M459 451L491 505M548 444L569 468M548 444L491 505M548 444L591 533M569 468L491 505M569 468L591 533M569 468L558 571M691 453L749 435M691 453L706 496M691 453L762 536M749 435L706 496M749 435L762 536M877 412L955 453M877 412L953 495M955 453L996 421M955 453L953 495M955 453L1001 549M996 421L1058 459M1058 459L1126 452M1058 459L1093 482M1126 452L1093 482M1126 452L1173 520M1253 446L1334 459M1253 446L1173 520M1253 446L1262 535M1334 459L1432 462M1334 459L1445 458M1334 459L1347 557M1432 462L1445 458M1432 462L1426 532M1445 458L1426 532M1568 405L1655 463M1568 405L1561 501M1655 463L1739 437M1655 463L1608 528M1655 463L1685 518M1739 437L1781 438M1739 437L1763 519M1781 438L1763 519M1781 438L1851 484M1874 476L1942 476M1874 476L1851 484M1874 476L1935 499M1942 476L1851 484M1942 476L1935 499M1942 476L2015 511M2035 436L2094 442M2035 436L2015 511M2094 442L2182 479M2094 442L2015 511M2094 442L2143 492M2182 479L2245 450M2182 479L2143 492M2182 479L2180 523M2182 479L2279 530M2245 450L2359 470M2245 450L2180 523M2245 450L2279 530M2359 470L2279 530M2359 470L2398 546M2359 470L2407 542M2473 443L2532 431M2473 443L2547 510M2532 431L2547 510M54 530L115 508M54 530L-13 510M2614 530L2547 510M115 508L195 502M195 502L306 508M195 502L158 624M306 508L395 546M306 508L310 576M306 508L320 596M395 546L468 530M395 546L310 576M395 546L320 596M468 530L491 505M491 505L558 571M591 533L706 496M591 533L558 571M591 533L568 629M706 496L762 536M706 496L780 567M762 536L826 527M762 536L780 567M826 527L953 495M826 527L780 567M953 495L1001 549M1001 549L1018 615M1001 549L1061 593M1093 482L1173 520M1173 520L1262 535M1173 520L1130 619M1262 535L1347 557M1262 535L1268 618M1262 535L1333 574M1347 557L1426 532M1347 557L1333 574M1347 557L1426 570M1426 532L1486 554M1426 532L1426 570M1486 554L1561 501M1486 554L1426 570M1486 554L1483 626M1486 554L1527 624M1561 501L1608 528M1608 528L1685 518M1608 528L1632 601M1608 528L1683 561M1685 518L1763 519M1685 518L1632 601M1685 518L1683 561M1763 519L1851 484M1763 519L1683 561M1851 484L1935 499M1935 499L2015 511M1935 499L1925 597M2143 492L2180 523M2143 492L2113 570M2180 523L2113 570M2180 523L2227 597M2279 530L2227 597M2279 530L2282 575M2398 546L2407 542M2398 546L2374 606M2398 546L2469 599M2398 546L2481 588M2407 542L2374 606M2407 542L2469 599M2407 542L2481 588M2547 510L2481 588M3 636L-79 588M3 636L40 715M3 636L-24 711M2563 636L2481 588M2563 636L2536 711M158 624L189 636M158 624L91 701M158 624L216 685M189 636L91 701M189 636L216 685M189 636L273 659M310 576L320 596M310 576L273 659M310 576L368 657M320 596L273 659M320 596L368 657M475 634L447 648M475 634L555 694M558 571L568 629M558 571L577 664M568 629L555 694M568 629L577 664M568 629L652 643M713 617L780 567M713 617L652 643M713 617L789 674M780 567L848 631M848 631L930 628M848 631L789 674M848 631L840 645M848 631L908 660M930 628L1018 615M930 628L840 645M930 628L908 660M930 628L976 649M1018 615L1061 593M1018 615L976 649M1018 615L1045 697M1061 593L1130 619M1061 593L1045 697M1130 619L1153 670M1130 619L1166 725M1268 618L1333 574M1268 618L1257 674M1268 618L1321 683M1333 574L1426 570M1333 574L1321 683M1426 570L1483 626M1483 626L1527 624M1483 626L1427 690M1483 626L1501 711M1527 624L1632 601M1527 624L1501 711M1527 624L1594 696M1632 601L1683 561M1683 561L1770 633M1770 633L1749 648M1770 633L1831 679M1770 633L1810 724M1907 603L1925 597M1907 603L1831 679M1907 603L1893 689M1907 603L2005 647M1925 597L1893 689M1925 597L1994 695M1925 597L2005 647M2065 615L2113 570M2065 615L1994 695M2065 615L2005 647M2065 615L2128 681M2113 570L2227 597M2113 570L2128 681M2227 597L2282 575M2282 575L2374 606M2374 606L2469 599M2374 606L2366 672M2469 599L2481 588M2469 599L2468 697M40 715L91 701M40 715L-24 711M40 715L70 742M2600 715L2536 711M91 701L70 742M91 701L108 794M216 685L273 659M216 685L176 786M216 685L306 733M273 659L306 733M368 657L447 648M368 657L306 733M447 648L433 763M555 694L577 664M555 694L531 766M555 694L628 733M577 664L652 643M577 664L628 733M652 643L628 733M789 674L840 645M789 674L753 758M789 674L816 762M840 645L908 660M840 645L816 762M908 660L976 649M976 649L1045 697M976 649L1004 724M1045 697L1004 724M1045 697L1101 767M1153 670L1257 674M1153 670L1101 767M1153 670L1166 725M1257 674L1321 683M1257 674L1226 769M1321 683L1427 690M1321 683L1318 753M1427 690L1501 711M1427 690L1469 747M1501 711L1469 747M1501 711L1602 728M1594 696L1672 690M1594 696L1594 729M1594 696L1602 728M1672 690L1749 648M1672 690L1594 729M1672 690L1602 728M1672 690L1699 786M1749 648L1831 679M1749 648L1810 724M1831 679L1893 689M1831 679L1810 724M1893 689L1810 724M1893 689L1878 783M1994 695L2005 647M1994 695L1971 772M1994 695L2013 798M2128 681L2176 701M2128 681L2156 753M2176 701L2156 753M2176 701L2201 780M2176 701L2280 722M2294 701L2366 672M2294 701L2280 722M2294 701L2362 802M2366 672L2468 697M2366 672L2280 722M2468 697L2536 711M2468 697L2467 733M2536 711L2467 733M2536 711L2516 796M70 742L108 794M70 742L121 822M108 794L176 786M108 794L121 822M108 794L188 807M176 786L121 822M176 786L188 807M306 733L350 773M350 773L433 763M350 773L350 848M350 773L444 814M433 763L531 766M433 763L444 814M531 766L444 814M531 766L546 837M531 766L570 835M628 733L664 796M664 796L753 758M664 796L570 835M664 796L661 838M753 758L816 762M816 762L776 867M816 762L826 867M953 793L1004 724M953 793L954 820M953 793L993 849M953 793L889 899M1004 724L1101 767M1004 724L954 820M1101 767L1166 725M1101 767L1082 807M1166 725L1226 769M1166 725L1082 807M1226 769L1318 753M1226 769L1171 854M1226 769L1259 830M1318 753L1363 791M1318 753L1259 830M1318 753L1332 800M1363 791L1469 747M1363 791L1332 800M1363 791L1362 833M1363 791L1462 804M1469 747L1462 804M1594 729L1602 728M1602 728L1699 786M1699 786L1647 864M1699 786L1754 838M1699 786L1770 862M1810 724L1878 783M1878 783L1971 772M1878 783L1864 851M1878 783L1931 855M1971 772L2013 798M1971 772L1931 855M2013 798L2060 865M2013 798L2015 881M2156 753L2201 780M2156 753L2137 828M2201 780L2137 828M2201 780L2193 862M2201 780L2285 815M2280 722L2285 815M2280 722L2362 802M2392 787L2467 733M2392 787L2285 815M2392 787L2362 802M2392 787L2419 825M2467 733L2516 796M2467 733L2419 825M2516 796L2586 871M2516 796L2419 825M2516 796L2558 862M-44 796L26 871M26 871L-2 862M26 871L9 956M26 871L86 910M2586 871L2558 862M121 822L188 807M121 822L86 910M188 807L234 913M304 878L350 848M304 878L234 913M304 878L315 921M304 878L394 902M350 848L315 921M350 848L394 902M350 848L405 903M444 814L546 837M444 814L405 903M546 837L570 835M546 837L526 942M546 837L562 947M570 835L661 838M570 835L526 942M661 838L692 916M776 867L826 867M776 867L692 916M776 867L767 897M776 867L866 918M826 867L767 897M826 867L866 918M826 867L889 899M954 820L993 849M954 820L889 899M954 820L1003 924M993 849L1082 807M993 849L1003 924M993 849L1064 928M1082 807L1171 854M1171 854L1259 830M1171 854L1148 906M1259 830L1332 800M1332 800L1362 833M1362 833L1462 804M1362 833L1308 920M1362 833L1418 908M1462 804L1418 908M1462 804L1497 905M1583 862L1647 864M1583 862L1497 905M1583 862L1537 924M1583 862L1616 945M1647 864L1754 838M1647 864L1616 945M1647 864L1715 919M1754 838L1770 862M1754 838L1864 851M1754 838L1715 919M1770 862L1864 851M1770 862L1715 919M1770 862L1799 954M1864 851L1931 855M1864 851L1910 883M1931 855L1910 883M1931 855L1948 924M2060 865L2137 828M2060 865L2015 881M2060 865L2147 929M2137 828L2193 862M2137 828L2197 886M2193 862L2285 815M2193 862L2147 929M2193 862L2197 886M2285 815L2362 802M2362 802L2419 825M2558 862L2569 956M2558 862L2646 910M2558 862L2531 958M-2 862L9 956M-2 862L86 910M9 956L86 910M9 956L-29 958M9 956L-4 978M2569 956L2531 958M2569 956L2556 978M234 913L275 988M315 921L405 903M315 921L275 988M315 921L338 982M394 902L405 903M394 902L338 982M405 903L338 982M526 942L562 947M526 942L505 1004M562 947L505 1004M562 947L572 1014M562 947L651 994M692 916L767 897M692 916L651 994M767 897L866 918M866 918L889 899M866 918L875 992M1003 924L1064 928M1003 924L1008 971M1003 924L1048 979M1064 928L1148 906M1064 928L1008 971M1064 928L1048 979M1148 906L1048 979M1148 906L1185 1006M1258 950L1308 920M1258 950L1185 1006M1258 950L1247 989M1258 950L1345 1001M1258 950L1323 1042M1308 920L1247 989M1418 908L1497 905M1418 908L1423 992M1418 908L1471 972M1497 905L1537 924M1497 905L1471 972M1537 924L1616 945M1537 924L1471 972M1537 924L1547 1022M1616 945L1547 1022M1616 945L1659 1032M1715 919L1799 954M1715 919L1761 1001M1799 954L1761 1001M1799 954L1882 980M1799 954L1793 1040M1910 883L1948 924M1910 883L1882 980M1910 883L1943 963M1948 924L2015 881M1948 924L1882 980M1948 924L1943 963M2015 881L1943 963M2015 881L2041 991M2147 929L2197 886M2147 929L2148 978M2197 886L2252 950M2197 886L2148 978M2252 950L2215 1014M2252 950L2301 965M2365 959L2425 959M2365 959L2301 965M2365 959L2399 990M2365 959L2431 990M2365 959L2309 1056M2425 959L2531 958M2425 959L2399 990M2425 959L2431 990M2531 958L2556 978M2531 958L2530 1051M71 1038L120 1030M71 1038L-4 978M71 1038L31 1042M71 1038L129 1070M71 1038L106 1120M2631 1038L2556 978M120 1030L169 1006M120 1030L31 1042M120 1030L129 1070M120 1030L106 1120M169 1006L275 988M169 1006L129 1070M169 1006L210 1087M275 988L338 982M338 982L387 1058M452 1033L505 1004M452 1033L387 1058M452 1033L415 1085M452 1033L537 1084M505 1004L572 1014M505 1004L537 1084M572 1014L651 994M572 1014L537 1084M572 1014L574 1076M651 994L574 1076M651 994L653 1060M785 1036L875 992M785 1036L790 1042M785 1036L854 1105M785 1036L726 1120M875 992L910 1029M875 992L790 1042M875 992L926 1077M910 1029L1008 971M910 1029L854 1105M910 1029L926 1077M910 1029L975 1052M1008 971L1048 979M1008 971L975 1052M1048 979L975 1052M1185 1006L1247 989M1185 1006L1180 1105M1247 989L1345 1001M1247 989L1323 1042M1345 1001L1423 992M1345 1001L1323 1042M1345 1001L1409 1045M1423 992L1471 972M1423 992L1409 1045M1423 992L1470 1067M1547 1022L1470 1067M1547 1022L1592 1076M1659 1032L1719 1025M1659 1032L1592 1076M1659 1032L1652 1110M1659 1032L1724 1083M1719 1025L1761 1001M1719 1025L1724 1083M1719 1025L1793 1040M1761 1001L1724 1083M1761 1001L1793 1040M1882 980L1943 963M1882 980L1857 1042M1943 963L2041 991M2041 991L2148 978M2041 991L2015 1092M2041 991L2134 1041M2148 978L2215 1014M2148 978L2134 1041M2215 1014L2301 965M2215 1014L2134 1041M2215 1014L2309 1056M2301 965L2399 990M2301 965L2309 1056M2399 990L2431 990M2399 990L2446 1069M2431 990L2446 1069M2431 990L2530 1051M2556 978L2591 1042M2556 978L2530 1051M-4 978L31 1042M31 1042L-30 1051M2591 1042L2530 1051M129 1070L210 1087M129 1070L106 1120M210 1087L260 1109M210 1087L180 1173M260 1109L309 1126M260 1109L244 1238M387 1058L415 1085M387 1058L309 1126M387 1058L381 1121M415 1085L309 1126M415 1085L381 1121M415 1085L404 1183M537 1084L574 1076M537 1084L576 1153M574 1076L653 1060M574 1076L576 1153M653 1060L689 1146M653 1060L726 1120M790 1042L854 1105M790 1042L726 1120M790 1042L849 1134M854 1105L926 1077M854 1105L849 1134M926 1077L975 1052M926 1077L849 1134M975 1052L1069 1101M1069 1101L1031 1162M1069 1101L1079 1180M1180 1105L1233 1116M1180 1105L1180 1148M1180 1105L1268 1133M1180 1105L1143 1201M1233 1116L1180 1148M1233 1116L1268 1133M1323 1042L1409 1045M1323 1042L1268 1133M1409 1045L1470 1067M1409 1045L1404 1126M1470 1067L1404 1126M1470 1067L1450 1140M1592 1076L1652 1110M1592 1076L1540 1175M1592 1076L1619 1139M1652 1110L1724 1083M1652 1110L1619 1139M1652 1110L1708 1183M1724 1083L1793 1040M1793 1040L1857 1042M1986 1106L2015 1092M1986 1106L1935 1175M1986 1106L2055 1190M1986 1106L2082 1144M2015 1092L2082 1144M2134 1041L2195 1117M2195 1117L2195 1162M2195 1117L2204 1206M2309 1056L2388 1116M2309 1056L2338 1143M2388 1116L2446 1069M2388 1116L2338 1143M2388 1116L2412 1144M2446 1069L2530 1051M2446 1069L2412 1144M70 1139L106 1120M70 1139L-20 1191M70 1139L44 1206M2630 1139L2540 1191M106 1120L180 1173M180 1173L123 1259M180 1173L201 1272M180 1173L244 1238M309 1126L381 1121M309 1126L404 1183M381 1121L404 1183M404 1183L387 1275M404 1183L457 1207M504 1199L576 1153M504 1199L457 1207M504 1199L498 1270M504 1199L568 1259M576 1153L689 1146M689 1146L726 1120M689 1146L713 1256M689 1146L768 1220M849 1134L903 1198M849 1134L880 1207M903 1198L880 1207M903 1198L891 1290M1031 1162L1079 1180M1031 1162L1032 1220M1079 1180L1032 1220M1079 1180L1120 1231M1079 1180L1143 1201M1180 1148L1268 1133M1180 1148L1143 1201M1268 1133L1342 1174M1342 1174L1404 1126M1342 1174L1450 1140M1342 1174L1315 1215M1342 1174L1386 1227M1404 1126L1450 1140M1404 1126L1386 1227M1450 1140L1540 1175M1450 1140L1386 1227M1540 1175L1619 1139M1540 1175L1488 1263M1540 1175L1586 1206M1619 1139L1586 1206M1619 1139L1648 1228M1708 1183L1648 1228M1820 1166L1886 1188M1820 1166L1935 1175M1820 1166L1812 1244M1820 1166L1866 1222M1820 1166L1814 1283M1886 1188L1935 1175M1886 1188L1812 1244M1886 1188L1866 1222M1935 1175L1866 1222M1935 1175L1970 1270M2055 1190L2082 1144M2055 1190L2053 1239M2055 1190L2081 1213M2082 1144L2081 1213M2195 1162L2274 1188M2195 1162L2204 1206M2274 1188L2338 1143M2274 1188L2204 1206M2274 1188L2300 1217M2274 1188L2230 1285M2338 1143L2412 1144M2338 1143L2300 1217M2412 1144L2382 1234M2412 1144L2472 1202M2540 1191L2604 1206M2540 1191L2472 1202M2540 1191L2482 1260M-20 1191L44 1206M44 1206L46 1307M123 1259L201 1272M123 1259L46 1307M123 1259L116 1354M201 1272L244 1238M201 1272L199 1333M201 1272L249 1312M244 1238L199 1333M244 1238L249 1312M387 1275L457 1207M387 1275L360 1326M387 1275L427 1296M387 1275L350 1378M457 1207L498 1270M457 1207L427 1296M498 1270L568 1259M498 1270L427 1296M498 1270L507 1337M568 1259L605 1287M568 1259L584 1363M713 1256L768 1220M713 1256L605 1287M713 1256L720 1284M768 1220L833 1260M768 1220L880 1207M768 1220L720 1284M833 1260L880 1207M833 1260L787 1341M833 1260L807 1340M833 1260L891 1290M880 1207L891 1290M1032 1220L1120 1231M1032 1220L1028 1294M1120 1231L1143 1201M1120 1231L1217 1240M1143 1201L1217 1240M1217 1240L1315 1215M1217 1240L1209 1322M1217 1240L1285 1297M1315 1215L1386 1227M1315 1215L1285 1297M1315 1215L1376 1286M1386 1227L1376 1286M1488 1263L1586 1206M1488 1263L1376 1286M1488 1263L1469 1323M1488 1263L1541 1340M1586 1206L1648 1228M1648 1228L1732 1279M1648 1228L1655 1337M1732 1279L1812 1244M1732 1279L1655 1337M1732 1279L1712 1314M1732 1279L1814 1283M1812 1244L1866 1222M1812 1244L1814 1283M1866 1222L1814 1283M1970 1270L2053 1239M1970 1270L1996 1300M1970 1270L1977 1384M2053 1239L2081 1213M2053 1239L1996 1300M2053 1239L2079 1300M2081 1213L2079 1300M2204 1206L2230 1285M2300 1217L2382 1234M2300 1217L2230 1285M2300 1217L2349 1282M2382 1234L2472 1202M2382 1234L2349 1282M2382 1234L2461 1283M2472 1202L2482 1260M2472 1202L2461 1283M2482 1260L2461 1283M2482 1260L2520 1333M46 1307L116 1354M46 1307L-40 1333M46 1307L87 1360M2606 1307L2520 1333M116 1354L199 1333M116 1354L87 1360M199 1333L249 1312M199 1333L234 1391M249 1312L360 1326M249 1312L234 1391M360 1326L427 1296M360 1326L310 1399M360 1326L350 1378M427 1296L507 1337M507 1337L456 1410M507 1337L553 1393M507 1337L584 1363M605 1287L720 1284M605 1287L584 1363M720 1284L787 1341M787 1341L807 1340M787 1341L797 1431M787 1341L825 1419M807 1340L891 1290M807 1340L797 1431M807 1340L825 1419M1028 1294L1068 1331M1028 1294L1026 1379M1068 1331L1158 1351M1068 1331L1026 1379M1068 1331L1103 1386M1068 1331L1151 1372M1158 1351L1209 1322M1158 1351L1103 1386M1158 1351L1151 1372M1209 1322L1285 1297M1209 1322L1151 1372M1209 1322L1290 1395M1285 1297L1376 1286M1285 1297L1290 1395M1376 1286L1469 1323M1469 1323L1541 1340M1469 1323L1433 1408M1469 1323L1457 1432M1541 1340L1582 1381M1541 1340L1618 1402M1655 1337L1712 1314M1655 1337L1582 1381M1655 1337L1618 1402M1814 1283L1859 1334M1859 1334L1836 1411M1996 1300L2079 1300M1996 1300L1977 1384M1996 1300L2029 1372M2079 1300L2106 1339M2079 1300L2029 1372M2106 1339L2029 1372M2106 1339L2142 1439M2106 1339L2186 1376M2230 1285L2245 1322M2230 1285L2186 1376M2245 1322L2349 1282M2245 1322L2186 1376M2245 1322L2259 1394M2349 1282L2461 1283M2349 1282L2398 1382M2461 1283L2520 1333M2520 1333L2583 1409M2520 1333L2517 1370M-40 1333L23 1409M23 1409L87 1360M23 1409L-43 1370M2583 1409L2517 1370M234 1391L310 1399M310 1399L350 1378M350 1378L456 1410M456 1410L553 1393M553 1393L584 1363M553 1393L652 1431M584 1363L652 1431M797 1431L825 1419M1026 1379L1103 1386M1103 1386L1151 1372M1258 1431L1290 1395M1433 1408L1457 1432M1582 1381L1618 1402M1732 1436L1836 1411M1836 1411L1906 1424M1906 1424L1977 1384M1977 1384L2029 1372M2142 1439L2186 1376M2142 1439L2259 1394M2186 1376L2259 1394M2259 1394L2398 1382M2398 1382L2409 1409M2398 1382L2517 1370M2409 1409L2517 1370"/></svg>