<svg xmlns="http://www.w3.org/2000/svg" width="2560" height="1440" fill="#fff"><circle cx="51" cy="17" r="5"/><circle cx="113" cy="29" r="5"/><circle cx="190" cy="20" r="4"/><circle cx="276" cy="47" r="5"/><circle cx="360" cy="6" r="4"/><circle cx="400" cy="74" r="4"/><circle cx="523" cy="44" r="5"/><circle cx="614" cy="34" r="5"/><circle cx="693" cy="77" r="4"/><circle cx="738" cy="65" r="5"/><circle cx="879" cy="80" r="5"/><circle cx="931" cy="55" r="5"/><circle cx="980" cy="67" r="4"/><circle cx="1059" cy="34" r="5"/><circle cx="1184" cy="44" r="5"/><circle cx="1248" cy="78" r="5"/><circle cx="1324" cy="19" r="5"/><circle cx="1372" cy="50" r="5"/><circle cx="1456" cy="60" r="5"/><circle cx="1548" cy="53" r="5"/><circle cx="1645" cy="38" r="4"/><circle cx="1750" cy="22" r="5"/><circle cx="1775" cy="5" r="4"/><circle cx="1844" cy="27" r="6"/><circle cx="1948" cy="50" r="5"/><circle cx="2009" cy="62" r="6"/><circle cx="2124" cy="62" r="6"/><circle cx="2172" cy="63" r="5"/><circle cx="2267" cy="64" r="5"/><circle cx="2356" cy="63" r="5"/><circle cx="2452" cy="23" r="4"/><circle cx="2535" cy="31" r="4"/><circle cx="6" cy="145" r="6"/><circle cx="85" cy="116" r="6"/><circle cx="174" cy="144" r="4"/><circle cx="293" cy="143" r="6"/><circle cx="390" cy="107" r="5"/><circle cx="469" cy="112" r="5"/><circle cx="553" cy="96" r="5"/><circle cx="595" cy="86" r="6"/><circle cx="653" cy="142" r="5"/><circle cx="750" cy="106" r="4"/><circle cx="857" cy="149" r="5"/><circle cx="886" cy="104" r="4"/><circle cx="1003" cy="91" r="6"/><circle cx="1066" cy="100" r="5"/><circle cx="1136" cy="135" r="6"/><circle cx="1245" cy="143" r="4"/><circle cx="1297" cy="97" r="5"/><circle cx="1373" cy="123" r="5"/><circle cx="1460" cy="139" r="5"/><circle cx="1534" cy="114" r="6"/><circle cx="1649" cy="96" r="5"/><circle cx="1701" cy="128" r="4"/><circle cx="1803" cy="140" r="5"/><circle cx="1889" cy="102" r="6"/><circle cx="1924" cy="105" r="5"/><circle cx="2079" cy="121" r="6"/><circle cx="2103" cy="110" r="5"/><circle cx="2232" cy="95" r="5"/><circle cx="2296" cy="117" r="4"/><circle cx="2368" cy="100" r="6"/><circle cx="2464" cy="103" r="5"/><circle cx="2502" cy="106" r="4"/><circle cx="25" cy="209" r="5"/><circle cx="87" cy="224" r="5"/><circle cx="193" cy="199" r="5"/><circle cx="288" cy="195" r="5"/><circle cx="397" cy="226" r="5"/><circle cx="459" cy="203" r="4"/><circle cx="528" cy="236" r="4"/><circle cx="581" cy="219" r="5"/><circle cx="714" cy="234" r="4"/><circle cx="739" cy="196" r="4"/><circle cx="867" cy="237" r="6"/><circle cx="900" cy="200" r="5"/><circle cx="1032" cy="161" r="4"/><circle cx="1068" cy="184" r="5"/><circle cx="1143" cy="167" r="5"/><circle cx="1226" cy="179" r="5"/><circle cx="1303" cy="215" r="6"/><circle cx="1383" cy="227" r="5"/><circle cx="1490" cy="219" r="4"/><circle cx="1573" cy="194" r="4"/><circle cx="1625" cy="165" r="5"/><circle cx="1755" cy="233" r="6"/><circle cx="1795" cy="160" r="5"/><circle cx="1880" cy="186" r="4"/><circle cx="1969" cy="212" r="4"/><circle cx="2074" cy="184" r="4"/><circle cx="2146" cy="168" r="6"/><circle cx="2219" cy="202" r="4"/><circle cx="2303" cy="219" r="5"/><circle cx="2365" cy="197" r="6"/><circle cx="2430" cy="203" r="4"/><circle cx="2535" cy="213" r="5"/><circle cx="25" cy="272" r="6"/><circle cx="158" cy="267" r="5"/><circle cx="209" cy="303" r="6"/><circle cx="317" cy="287" r="5"/><circle cx="365" cy="319" r="5"/><circle cx="452" cy="250" r="4"/><circle cx="505" cy="268" r="5"/><circle cx="599" cy="265" r="4"/><circle cx="652" cy="308" r="4"/><circle cx="766" cy="312" r="4"/><circle cx="808" cy="272" r="6"/><circle cx="883" cy="258" r="4"/><circle cx="977" cy="289" r="5"/><circle cx="1064" cy="259" r="5"/><circle cx="1168" cy="253" r="6"/><circle cx="1234" cy="293" r="4"/><circle cx="1332" cy="291" r="6"/><circle cx="1379" cy="277" r="5"/><circle cx="1470" cy="283" r="5"/><circle cx="1566" cy="306" r="6"/><circle cx="1616" cy="318" r="5"/><circle cx="1695" cy="318" r="4"/><circle cx="1805" cy="311" r="6"/><circle cx="1858" cy="271" r="4"/><circle cx="1988" cy="294" r="6"/><circle cx="2033" cy="295" r="6"/><circle cx="2146" cy="288" r="5"/><circle cx="2200" cy="307" r="5"/><circle cx="2302" cy="268" r="4"/><circle cx="2384" cy="290" r="4"/><circle cx="2443" cy="306" r="6"/><circle cx="2524" cy="308" r="6"/><circle cx="24" cy="382" r="6"/><circle cx="138" cy="397" r="6"/><circle cx="195" cy="376" r="4"/><circle cx="258" cy="396" r="5"/><circle cx="364" cy="399" r="6"/><circle cx="420" cy="350" r="5"/><circle cx="492" cy="369" r="5"/><circle cx="580" cy="327" r="4"/><circle cx="683" cy="388" r="5"/><circle cx="727" cy="369" r="5"/><circle cx="827" cy="395" r="6"/><circle cx="907" cy="358" r="6"/><circle cx="1018" cy="351" r="6"/><circle cx="1045" cy="340" r="5"/><circle cx="1156" cy="376" r="4"/><circle cx="1235" cy="385" r="4"/><circle cx="1319" cy="359" r="5"/><circle cx="1429" cy="335" r="4"/><circle cx="1514" cy="373" r="6"/><circle cx="1577" cy="384" r="6"/><circle cx="1629" cy="357" r="5"/><circle cx="1736" cy="386" r="5"/><circle cx="1773" cy="355" r="6"/><circle cx="1911" cy="335" r="5"/><circle cx="1975" cy="360" r="5"/><circle cx="2059" cy="386" r="5"/><circle cx="2100" cy="358" r="4"/><circle cx="2210" cy="320" r="6"/><circle cx="2313" cy="371" r="6"/><circle cx="2347" cy="345" r="6"/><circle cx="2453" cy="373" r="4"/><circle cx="2515" cy="381" r="6"/><circle cx="34" cy="442" r="4"/><circle cx="126" cy="446" r="5"/><circle cx="210" cy="459" r="5"/><circle cx="257" cy="459" r="5"/><circle cx="377" cy="405" r="5"/><circle cx="470" cy="446" r="4"/><circle cx="550" cy="461" r="4"/><circle cx="573" cy="424" r="5"/><circle cx="708" cy="434" r="5"/><circle cx="765" cy="445" r="6"/><circle cx="802" cy="449" r="6"/><circle cx="914" cy="478" r="6"/><circle cx="965" cy="465" r="4"/><circle cx="1060" cy="435" r="5"/><circle cx="1134" cy="467" r="5"/><circle cx="1208" cy="414" r="5"/><circle cx="1323" cy="476" r="5"/><circle cx="1425" cy="451" r="5"/><circle cx="1474" cy="478" r="5"/><circle cx="1582" cy="430" r="4"/><circle cx="1642" cy="465" r="6"/><circle cx="1700" cy="452" r="5"/><circle cx="1796" cy="465" r="5"/><circle cx="1883" cy="461" r="4"/><circle cx="1934" cy="427" r="6"/><circle cx="2009" cy="406" r="5"/><circle cx="2096" cy="408" r="5"/><circle cx="2229" cy="452" r="5"/><circle cx="2241" cy="417" r="6"/><circle cx="2363" cy="444" r="4"/><circle cx="2445" cy="451" r="4"/><circle cx="2525" cy="403" r="6"/><circle cx="11" cy="523" r="5"/><circle cx="146" cy="550" r="4"/><circle cx="177" cy="552" r="6"/><circle cx="259" cy="558" r="4"/><circle cx="364" cy="534" r="6"/><circle cx="468" cy="492" r="4"/><circle cx="487" cy="546" r="5"/><circle cx="629" cy="536" r="6"/><circle cx="700" cy="529" r="4"/><circle cx="754" cy="528" r="5"/><circle cx="864" cy="531" r="5"/><circle cx="895" cy="510" r="4"/><circle cx="1015" cy="550" r="5"/><circle cx="1111" cy="527" r="6"/><circle cx="1183" cy="504" r="4"/><circle cx="1224" cy="539" r="4"/><circle cx="1306" cy="528" r="4"/><circle cx="1363" cy="541" r="6"/><circle cx="1445" cy="516" r="5"/><circle cx="1584" cy="525" r="5"/><circle cx="1616" cy="516" r="6"/><circle cx="1701" cy="552" r="5"/><circle cx="1794" cy="485" r="6"/><circle cx="1847" cy="555" r="5"/><circle cx="1965" cy="514" r="4"/><circle cx="2002" cy="492" r="4"/><circle cx="2157" cy="510" r="5"/><circle cx="2162" cy="514" r="4"/><circle cx="2272" cy="503" r="5"/><circle cx="2350" cy="486" r="5"/><circle cx="2415" cy="550" r="5"/><circle cx="2536" cy="514" r="6"/><circle cx="37" cy="614" r="6"/><circle cx="86" cy="570" r="5"/><circle cx="207" cy="607" r="4"/><circle cx="283" cy="608" r="5"/><circle cx="400" cy="597" r="5"/><circle cx="474" cy="619" r="5"/><circle cx="534" cy="560" r="5"/><circle cx="604" cy="577" r="5"/><circle cx="705" cy="597" r="4"/><circle cx="748" cy="561" r="5"/><circle cx="876" cy="631" r="5"/><circle cx="924" cy="562" r="6"/><circle cx="1014" cy="584" r="5"/><circle cx="1100" cy="570" r="5"/><circle cx="1126" cy="567" r="5"/><circle cx="1209" cy="561" r="6"/><circle cx="1313" cy="620" r="6"/><circle cx="1367" cy="595" r="4"/><circle cx="1499" cy="630" r="6"/><circle cx="1574" cy="620" r="6"/><circle cx="1638" cy="622" r="5"/><circle cx="1704" cy="601" r="6"/><circle cx="1791" cy="571" r="6"/><circle cx="1879" cy="617" r="5"/><circle cx="1941" cy="618" r="5"/><circle cx="2065" cy="624" r="5"/><circle cx="2158" cy="570" r="5"/><circle cx="2235" cy="639" r="5"/><circle cx="2288" cy="637" r="5"/><circle cx="2377" cy="607" r="5"/><circle cx="2476" cy="580" r="5"/><circle cx="2557" cy="633" r="4"/><circle cx="-3" cy="633" r="4"/><circle cx="37" cy="651" r="4"/><circle cx="94" cy="702" r="4"/><circle cx="188" cy="643" r="6"/><circle cx="273" cy="679" r="5"/><circle cx="356" cy="716" r="6"/><circle cx="476" cy="674" r="4"/><circle cx="503" cy="649" r="5"/><circle cx="610" cy="694" r="4"/><circle cx="676" cy="700" r="5"/><circle cx="799" cy="653" r="5"/><circle cx="871" cy="681" r="4"/><circle cx="897" cy="666" r="5"/><circle cx="981" cy="678" r="5"/><circle cx="1096" cy="645" r="5"/><circle cx="1195" cy="666" r="5"/><circle cx="1227" cy="682" r="5"/><circle cx="1347" cy="668" r="5"/><circle cx="1361" cy="717" r="6"/><circle cx="1459" cy="690" r="5"/><circle cx="1576" cy="654" r="6"/><circle cx="1663" cy="703" r="4"/><circle cx="1707" cy="694" r="6"/><circle cx="1823" cy="654" r="5"/><circle cx="1885" cy="644" r="4"/><circle cx="1970" cy="710" r="5"/><circle cx="2029" cy="647" r="4"/><circle cx="2099" cy="661" r="5"/><circle cx="2208" cy="676" r="6"/><circle cx="2294" cy="640" r="4"/><circle cx="2335" cy="699" r="4"/><circle cx="2439" cy="689" r="6"/><circle cx="2544" cy="698" r="4"/><circle cx="67" cy="781" r="5"/><circle cx="128" cy="799" r="5"/><circle cx="189" cy="773" r="5"/><circle cx="245" cy="753" r="6"/><circle cx="374" cy="769" r="5"/><circle cx="446" cy="722" r="5"/><circle cx="548" cy="724" r="6"/><circle cx="617" cy="741" r="5"/><circle cx="690" cy="761" r="5"/><circle cx="750" cy="747" r="6"/><circle cx="841" cy="739" r="6"/><circle cx="917" cy="775" r="6"/><circle cx="1038" cy="749" r="4"/><circle cx="1084" cy="771" r="6"/><circle cx="1196" cy="792" r="5"/><circle cx="1202" cy="793" r="5"/><circle cx="1331" cy="773" r="6"/><circle cx="1414" cy="786" r="6"/><circle cx="1444" cy="751" r="5"/><circle cx="1552" cy="733" r="4"/><circle cx="1671" cy="766" r="5"/><circle cx="1705" cy="732" r="4"/><circle cx="1814" cy="791" r="4"/><circle cx="1887" cy="772" r="6"/><circle cx="1955" cy="721" r="5"/><circle cx="2033" cy="768" r="5"/><circle cx="2106" cy="753" r="5"/><circle cx="2213" cy="794" r="5"/><circle cx="2252" cy="752" r="6"/><circle cx="2348" cy="738" r="5"/><circle cx="2407" cy="748" r="5"/><circle cx="2483" cy="735" r="5"/><circle cx="72" cy="822" r="4"/><circle cx="150" cy="859" r="5"/><circle cx="185" cy="834" r="6"/><circle cx="272" cy="872" r="5"/><circle cx="367" cy="836" r="4"/><circle cx="416" cy="808" r="5"/><circle cx="528" cy="847" r="6"/><circle cx="564" cy="866" r="5"/><circle cx="709" cy="828" r="5"/><circle cx="752" cy="815" r="4"/><circle cx="859" cy="858" r="5"/><circle cx="934" cy="810" r="6"/><circle cx="985" cy="868" r="5"/><circle cx="1105" cy="805" r="4"/><circle cx="1156" cy="812" r="5"/><circle cx="1266" cy="826" r="5"/><circle cx="1283" cy="869" r="5"/><circle cx="1394" cy="850" r="5"/><circle cx="1499" cy="812" r="5"/><circle cx="1596" cy="807" r="4"/><circle cx="1632" cy="820" r="5"/><circle cx="1734" cy="821" r="6"/><circle cx="1785" cy="821" r="4"/><circle cx="1844" cy="870" r="5"/><circle cx="1952" cy="832" r="6"/><circle cx="2019" cy="829" r="5"/><circle cx="2144" cy="831" r="4"/><circle cx="2180" cy="841" r="4"/><circle cx="2290" cy="831" r="5"/><circle cx="2368" cy="824" r="5"/><circle cx="2450" cy="849" r="4"/><circle cx="2515" cy="850" r="6"/><circle cx="21" cy="902" r="5"/><circle cx="87" cy="938" r="5"/><circle cx="185" cy="955" r="5"/><circle cx="254" cy="913" r="5"/><circle cx="399" cy="888" r="6"/><circle cx="426" cy="884" r="6"/><circle cx="529" cy="943" r="5"/><circle cx="570" cy="919" r="6"/><circle cx="686" cy="955" r="5"/><circle cx="754" cy="943" r="4"/><circle cx="849" cy="938" r="4"/><circle cx="939" cy="929" r="4"/><circle cx="1033" cy="885" r="6"/><circle cx="1083" cy="917" r="4"/><circle cx="1153" cy="909" r="6"/><circle cx="1204" cy="913" r="4"/><circle cx="1326" cy="895" r="5"/><circle cx="1383" cy="952" r="5"/><circle cx="1456" cy="916" r="5"/><circle cx="1553" cy="945" r="6"/><circle cx="1650" cy="910" r="6"/><circle cx="1737" cy="882" r="5"/><circle cx="1779" cy="919" r="6"/><circle cx="1889" cy="892" r="4"/><circle cx="1995" cy="898" r="4"/><circle cx="2010" cy="925" r="6"/><circle cx="2118" cy="902" r="6"/><circle cx="2219" cy="948" r="5"/><circle cx="2265" cy="937" r="4"/><circle cx="2380" cy="953" r="5"/><circle cx="2457" cy="937" r="4"/><circle cx="2531" cy="935" r="5"/><circle cx="70" cy="975" r="5"/><circle cx="87" cy="977" r="6"/><circle cx="190" cy="972" r="5"/><circle cx="262" cy="1013" r="5"/><circle cx="330" cy="990" r="6"/><circle cx="434" cy="966" r="5"/><circle cx="553" cy="1027" r="5"/><circle cx="632" cy="1022" r="5"/><circle cx="700" cy="1004" r="5"/><circle cx="784" cy="972" r="5"/><circle cx="880" cy="977" r="6"/><circle cx="890" cy="983" r="5"/><circle cx="981" cy="1002" r="4"/><circle cx="1093" cy="986" r="6"/><circle cx="1152" cy="1039" r="6"/><circle cx="1215" cy="1025" r="4"/><circle cx="1351" cy="979" r="5"/><circle cx="1438" cy="963" r="6"/><circle cx="1514" cy="984" r="5"/><circle cx="1579" cy="989" r="6"/><circle cx="1602" cy="1034" r="6"/><circle cx="1687" cy="964" r="4"/><circle cx="1769" cy="973" r="5"/><circle cx="1893" cy="969" r="5"/><circle cx="1935" cy="975" r="5"/><circle cx="2021" cy="1021" r="4"/><circle cx="2105" cy="1019" r="5"/><circle cx="2192" cy="1006" r="6"/><circle cx="2310" cy="996" r="5"/><circle cx="2387" cy="1012" r="5"/><circle cx="2424" cy="979" r="6"/><circle cx="2517" cy="1004" r="5"/><circle cx="18" cy="1059" r="6"/><circle cx="93" cy="1082" r="4"/><circle cx="162" cy="1086" r="5"/><circle cx="262" cy="1051" r="4"/><circle cx="353" cy="1057" r="5"/><circle cx="472" cy="1082" r="5"/><circle cx="550" cy="1099" r="6"/><circle cx="600" cy="1046" r="6"/><circle cx="669" cy="1061" r="4"/><circle cx="765" cy="1046" r="5"/><circle cx="829" cy="1093" r="5"/><circle cx="885" cy="1086" r="4"/><circle cx="1034" cy="1113" r="5"/><circle cx="1072" cy="1070" r="4"/><circle cx="1122" cy="1074" r="5"/><circle cx="1259" cy="1063" r="6"/><circle cx="1329" cy="1047" r="4"/><circle cx="1439" cy="1106" r="4"/><circle cx="1465" cy="1104" r="6"/><circle cx="1556" cy="1079" r="5"/><circle cx="1650" cy="1070" r="5"/><circle cx="1737" cy="1072" r="5"/><circle cx="1829" cy="1090" r="5"/><circle cx="1867" cy="1087" r="6"/><circle cx="1926" cy="1107" r="6"/><circle cx="2054" cy="1110" r="5"/><circle cx="2083" cy="1088" r="5"/><circle cx="2210" cy="1045" r="4"/><circle cx="2301" cy="1093" r="5"/><circle cx="2340" cy="1074" r="4"/><circle cx="2462" cy="1040" r="5"/><circle cx="2531" cy="1077" r="5"/><circle cx="46" cy="1174" r="6"/><circle cx="125" cy="1165" r="5"/><circle cx="167" cy="1129" r="6"/><circle cx="281" cy="1188" r="5"/><circle cx="385" cy="1125" r="4"/><circle cx="415" cy="1194" r="5"/><circle cx="490" cy="1156" r="5"/><circle cx="563" cy="1141" r="4"/><circle cx="711" cy="1180" r="5"/><circle cx="738" cy="1199" r="5"/><circle cx="810" cy="1123" r="5"/><circle cx="895" cy="1149" r="6"/><circle cx="1034" cy="1159" r="5"/><circle cx="1112" cy="1164" r="6"/><circle cx="1162" cy="1132" r="5"/><circle cx="1279" cy="1186" r="6"/><circle cx="1356" cy="1132" r="4"/><circle cx="1385" cy="1188" r="4"/><circle cx="1509" cy="1180" r="6"/><circle cx="1555" cy="1144" r="5"/><circle cx="1613" cy="1198" r="4"/><circle cx="1721" cy="1195" r="5"/><circle cx="1777" cy="1185" r="5"/><circle cx="1888" cy="1158" r="5"/><circle cx="1990" cy="1196" r="5"/><circle cx="2009" cy="1143" r="4"/><circle cx="2099" cy="1186" r="4"/><circle cx="2203" cy="1132" r="6"/><circle cx="2279" cy="1187" r="4"/><circle cx="2394" cy="1196" r="4"/><circle cx="2473" cy="1134" r="4"/><circle cx="2488" cy="1157" r="4"/><circle cx="14" cy="1276" r="6"/><circle cx="145" cy="1202" r="5"/><circle cx="214" cy="1273" r="6"/><circle cx="249" cy="1227" r="6"/><circle cx="379" cy="1263" r="5"/><circle cx="459" cy="1211" r="5"/><circle cx="504" cy="1256" r="5"/><circle cx="577" cy="1202" r="5"/><circle cx="687" cy="1225" r="5"/><circle cx="754" cy="1239" r="5"/><circle cx="855" cy="1233" r="5"/><circle cx="928" cy="1224" r="6"/><circle cx="994" cy="1278" r="5"/><circle cx="1065" cy="1245" r="5"/><circle cx="1157" cy="1243" r="6"/><circle cx="1209" cy="1254" r="5"/><circle cx="1322" cy="1238" r="5"/><circle cx="1425" cy="1258" r="5"/><circle cx="1496" cy="1231" r="6"/><circle cx="1553" cy="1245" r="6"/><circle cx="1649" cy="1211" r="6"/><circle cx="1714" cy="1237" r="4"/><circle cx="1795" cy="1227" r="5"/><circle cx="1884" cy="1264" r="5"/><circle cx="1982" cy="1259" r="5"/><circle cx="2007" cy="1242" r="6"/><circle cx="2086" cy="1239" r="6"/><circle cx="2233" cy="1258" r="5"/><circle cx="2293" cy="1262" r="6"/><circle cx="2369" cy="1250" r="5"/><circle cx="2439" cy="1207" r="6"/><circle cx="2495" cy="1233" r="6"/><circle cx="11" cy="1348" r="6"/><circle cx="97" cy="1307" r="4"/><circle cx="224" cy="1313" r="5"/><circle cx="277" cy="1307" r="5"/><circle cx="338" cy="1347" r="6"/><circle cx="415" cy="1336" r="5"/><circle cx="527" cy="1323" r="4"/><circle cx="584" cy="1307" r="4"/><circle cx="648" cy="1298" r="4"/><circle cx="731" cy="1356" r="5"/><circle cx="848" cy="1280" r="5"/><circle cx="894" cy="1293" r="4"/><circle cx="1003" cy="1320" r="4"/><circle cx="1097" cy="1303" r="5"/><circle cx="1128" cy="1328" r="4"/><circle cx="1222" cy="1345" r="6"/><circle cx="1284" cy="1328" r="6"/><circle cx="1396" cy="1360" r="5"/><circle cx="1486" cy="1286" r="4"/><circle cx="1561" cy="1315" r="6"/><circle cx="1663" cy="1345" r="6"/><circle cx="1745" cy="1297" r="6"/><circle cx="1769" cy="1297" r="6"/><circle cx="1855" cy="1306" r="5"/><circle cx="1930" cy="1321" r="4"/><circle cx="2024" cy="1352" r="5"/><circle cx="2117" cy="1357" r="5"/><circle cx="2165" cy="1309" r="4"/><circle cx="2255" cy="1309" r="4"/><circle cx="2338" cy="1352" r="5"/><circle cx="2419" cy="1343" r="5"/><circle cx="2506" cy="1317" r="6"/><circle cx="2" cy="1432" r="4"/><circle cx="2562" cy="1432" r="4"/><circle cx="123" cy="1418" r="4"/><circle cx="231" cy="1436" r="5"/><circle cx="231" cy="-4" r="5"/><circle cx="285" cy="1410" r="6"/><circle cx="355" cy="1403" r="4"/><circle cx="451" cy="1364" r="5"/><circle cx="499" cy="1393" r="5"/><circle cx="634" cy="1372" r="6"/><circle cx="689" cy="1394" r="5"/><circle cx="783" cy="1434" r="5"/><circle cx="877" cy="1397" r="6"/><circle cx="914" cy="1420" r="4"/><circle cx="974" cy="1438" r="5"/><circle cx="974" cy="-2" r="5"/><circle cx="1115" cy="1438" r="4"/><circle cx="1115" cy="-2" r="4"/><circle cx="1129" cy="1405" r="5"/><circle cx="1202" cy="1399" r="5"/><circle cx="1301" cy="1361" r="5"/><circle cx="1420" cy="1372" r="4"/><circle cx="1459" cy="1380" r="6"/><circle cx="1559" cy="1425" r="6"/><circle cx="1671" cy="1360" r="6"/><circle cx="1735" cy="1361" r="5"/><circle cx="1774" cy="1406" r="5"/><circle cx="1910" cy="1428" r="5"/><circle cx="1960" cy="1433" r="5"/><circle cx="2028" cy="1426" r="6"/><circle cx="2135" cy="1376" r="5"/><circle cx="2204" cy="1404" r="6"/><circle cx="2319" cy="1368" r="6"/><circle cx="2371" cy="1397" r="4"/><circle cx="2478" cy="1367" r="5"/><circle cx="2520" cy="1400" r="5"/><path stroke="#fff" d="M51 17L113 29M51 17L-25 31M51 17L85 116M51 17L2 -8M51 17L123 -22M2611 17L2535 31M51 1457L2 1432M51 1457L123 1418M113 29L190 20M113 29L85 116M113 29L123 -22M113 29L231 -4M113 1469L123 1418M113 1469L231 1436M190 20L276 47M190 20L123 -22M190 20L231 -4M190 1460L123 1418M190 1460L231 1436M276 47L360 6M276 47L293 143M276 47L231 -4M276 47L285 -30M276 1487L231 1436M276 1487L285 1410M360 6L400 74M360 6L285 -30M360 6L355 -37M360 1446L285 1410M360 1446L355 1403M400 74L390 107M400 74L469 112M523 44L614 34M523 44L469 112M523 44L553 96M523 44L595 86M523 44L499 -47M523 1484L499 1393M614 34L693 77M614 34L553 96M614 34L595 86M614 34L634 -68M614 1474L634 1372M693 77L738 65M693 77L595 86M693 77L653 142M693 77L750 106M738 65L750 106M738 65L689 -46M738 65L783 -6M738 1505L689 1394M738 1505L783 1434M879 80L931 55M879 80L857 149M879 80L886 104M879 80L914 -20M879 1520L914 1420M931 55L980 67M931 55L886 104M931 55L1003 91M931 55L974 -2M931 1495L974 1438M980 67L1059 34M980 67L1003 91M980 67L974 -2M980 1507L974 1438M1059 34L1003 91M1059 34L1066 100M1059 34L974 -2M1059 34L1115 -2M1059 1474L974 1438M1059 1474L1115 1438M1184 44L1248 78M1184 44L1136 135M1184 44L1115 -2M1184 44L1129 -35M1184 44L1202 -41M1184 1484L1115 1438M1184 1484L1129 1405M1184 1484L1202 1399M1248 78L1324 19M1248 78L1245 143M1248 78L1297 97M1324 19L1372 50M1324 19L1297 97M1324 19L1301 -79M1324 1459L1301 1361M1372 50L1456 60M1372 50L1297 97M1372 50L1373 123M1456 60L1548 53M1456 60L1373 123M1456 60L1460 139M1456 60L1534 114M1548 53L1645 38M1548 53L1534 114M1548 53L1649 96M1548 53L1559 -15M1548 1493L1559 1425M1645 38L1750 22M1645 38L1649 96M1645 38L1559 -15M1645 38L1671 -80M1645 1478L1559 1425M1645 1478L1671 1360M1750 22L1775 5M1750 22L1844 27M1750 22L1774 -34M1750 1462L1774 1406M1775 5L1844 27M1775 5L1774 -34M1775 1445L1774 1406M1844 27L1889 102M1844 27L1774 -34M1844 27L1910 -12M1844 1467L1774 1406M1844 1467L1910 1428M1948 50L2009 62M1948 50L1889 102M1948 50L1924 105M1948 50L1910 -12M1948 50L1960 -7M1948 1490L1910 1428M1948 1490L1960 1433M2009 62L1924 105M2009 62L2079 121M2009 62L1960 -7M2009 62L2028 -14M2009 1502L1960 1433M2009 1502L2028 1426M2124 62L2172 63M2124 62L2079 121M2124 62L2103 110M2124 62L2146 168M2124 62L2028 -14M2124 1502L2028 1426M2172 63L2267 64M2172 63L2103 110M2172 63L2232 95M2172 63L2204 -36M2172 1503L2204 1404M2267 64L2356 63M2267 64L2232 95M2267 64L2296 117M2267 64L2368 100M2356 63L2452 23M2356 63L2296 117M2356 63L2368 100M2356 63L2371 -43M2356 1503L2371 1397M2452 23L2535 31M2452 23L2464 103M2452 23L2478 -73M2452 1463L2478 1367M2535 31L2502 106M2535 31L2562 -8M2535 31L2520 -40M-25 31L2 -8M-25 1471L2 1432M2535 1471L2562 1432M2535 1471L2520 1400M6 145L85 116M6 145L-58 106M6 145L25 209M6 145L87 224M6 145L-25 213M2566 145L2502 106M2566 145L2535 213M85 116L174 144M85 116L87 224M174 144L293 143M174 144L193 199M293 143L390 107M293 143L193 199M293 143L288 195M390 107L469 112M469 112L553 96M469 112L459 203M553 96L595 86M553 96L653 142M595 86L653 142M653 142L750 106M653 142L581 219M750 106L739 196M857 149L886 104M857 149L867 237M857 149L900 200M886 104L900 200M1003 91L1066 100M1003 91L1032 161M1066 100L1136 135M1066 100L1032 161M1066 100L1068 184M1136 135L1068 184M1136 135L1143 167M1136 135L1226 179M1245 143L1297 97M1245 143L1143 167M1245 143L1226 179M1245 143L1303 215M1297 97L1373 123M1373 123L1460 139M1460 139L1534 114M1460 139L1490 219M1534 114L1573 194M1534 114L1625 165M1649 96L1701 128M1649 96L1573 194M1649 96L1625 165M1701 128L1803 140M1701 128L1625 165M1701 128L1795 160M1803 140L1889 102M1803 140L1755 233M1803 140L1795 160M1803 140L1880 186M1889 102L1924 105M1889 102L1880 186M1924 105L1880 186M2079 121L2103 110M2079 121L2074 184M2079 121L2146 168M2103 110L2074 184M2103 110L2146 168M2232 95L2296 117M2232 95L2219 202M2296 117L2368 100M2368 100L2464 103M2368 100L2365 197M2464 103L2502 106M2464 103L2430 203M25 209L87 224M25 209L-25 213M25 209L25 272M2585 209L2535 213M87 224L25 272M87 224L158 267M193 199L288 195M193 199L158 267M193 199L209 303M288 195L397 226M288 195L317 287M397 226L459 203M397 226L317 287M397 226L365 319M397 226L452 250M459 203L528 236M459 203L452 250M459 203L505 268M528 236L581 219M528 236L452 250M528 236L505 268M528 236L599 265M581 219L505 268M581 219L599 265M581 219L580 327M714 234L739 196M714 234L652 308M714 234L766 312M714 234L808 272M739 196L808 272M867 237L900 200M867 237L808 272M867 237L883 258M900 200L883 258M1032 161L1068 184M1068 184L1143 167M1068 184L1064 259M1143 167L1226 179M1143 167L1168 253M1226 179L1303 215M1226 179L1168 253M1303 215L1383 227M1303 215L1332 291M1303 215L1379 277M1383 227L1490 219M1383 227L1332 291M1383 227L1379 277M1490 219L1573 194M1490 219L1470 283M1573 194L1625 165M1755 233L1795 160M1755 233L1695 318M1755 233L1805 311M1755 233L1773 355M1795 160L1880 186M1880 186L1858 271M1969 212L2074 184M1969 212L1988 294M2074 184L2146 168M2146 168L2219 202M2219 202L2303 219M2219 202L2200 307M2303 219L2365 197M2303 219L2302 268M2365 197L2430 203M2365 197L2302 268M2365 197L2384 290M2430 203L2535 213M2535 213L2585 272M-25 213L25 272M25 272L-36 308M25 272L24 382M2585 272L2524 308M158 267L209 303M209 303L317 287M209 303L195 376M209 303L258 396M317 287L365 319M317 287L364 399M365 319L364 399M365 319L420 350M365 319L377 405M452 250L505 268M452 250L420 350M505 268L599 265M599 265L652 308M599 265L580 327M652 308L580 327M652 308L683 388M766 312L808 272M766 312L727 369M808 272L883 258M883 258L977 289M883 258L907 358M977 289L1064 259M977 289L907 358M977 289L1018 351M977 289L1045 340M1064 259L1168 253M1064 259L1018 351M1064 259L1045 340M1168 253L1234 293M1234 293L1332 291M1234 293L1235 385M1234 293L1319 359M1332 291L1379 277M1332 291L1319 359M1379 277L1470 283M1379 277L1429 335M1470 283L1566 306M1470 283L1429 335M1470 283L1514 373M1566 306L1616 318M1566 306L1514 373M1566 306L1577 384M1566 306L1629 357M1616 318L1695 318M1616 318L1577 384M1616 318L1629 357M1695 318L1629 357M1695 318L1736 386M1695 318L1773 355M1805 311L1858 271M1805 311L1736 386M1805 311L1773 355M1805 311L1911 335M1858 271L1911 335M1988 294L2033 295M1988 294L1911 335M1988 294L1975 360M1988 294L2059 386M2033 295L2146 288M2033 295L1975 360M2033 295L2059 386M2033 295L2100 358M2146 288L2200 307M2146 288L2100 358M2146 288L2210 320M2146 288L2096 408M2200 307L2210 320M2200 307L2241 417M2302 268L2384 290M2302 268L2210 320M2302 268L2347 345M2384 290L2443 306M2384 290L2347 345M2443 306L2524 308M2443 306L2347 345M2443 306L2453 373M2443 306L2515 381M2524 308L2584 382M2524 308L2515 381M2524 308L2525 403M-36 308L24 382M24 382L-45 381M24 382L34 442M24 382L-35 403M2584 382L2515 381M2584 382L2525 403M138 397L195 376M138 397L126 446M138 397L210 459M195 376L258 396M195 376L126 446M258 396L364 399M258 396L210 459M258 396L257 459M364 399L420 350M364 399L377 405M420 350L492 369M420 350L377 405M492 369L580 327M492 369L470 446M492 369L573 424M580 327L573 424M683 388L727 369M683 388L573 424M683 388L708 434M727 369L827 395M727 369L708 434M727 369L765 445M827 395L907 358M827 395L765 445M827 395L802 449M907 358L1018 351M907 358L914 478M1018 351L1045 340M1018 351L1060 435M1045 340L1156 376M1045 340L1060 435M1156 376L1235 385M1156 376L1208 414M1235 385L1319 359M1235 385L1208 414M1319 359L1429 335M1319 359L1323 476M1429 335L1514 373M1429 335L1425 451M1514 373L1577 384M1514 373L1582 430M1577 384L1629 357M1577 384L1582 430M1629 357L1582 430M1736 386L1773 355M1736 386L1700 452M1736 386L1796 465M1773 355L1796 465M1911 335L1975 360M1911 335L1934 427M1975 360L1934 427M1975 360L2009 406M2059 386L2100 358M2059 386L2009 406M2059 386L2096 408M2100 358L2096 408M2210 320L2313 371M2210 320L2241 417M2313 371L2347 345M2313 371L2229 452M2313 371L2241 417M2313 371L2363 444M2347 345L2363 444M2453 373L2515 381M2453 373L2445 451M2453 373L2525 403M2515 381L2525 403M34 442L126 446M34 442L-35 403M34 442L11 523M34 442L-24 514M2594 442L2525 403M2594 442L2536 514M126 446L210 459M210 459L257 459M257 459L259 558M470 446L550 461M470 446L573 424M470 446L468 492M550 461L573 424M550 461L468 492M550 461L629 536M708 434L765 445M708 434L802 449M765 445L802 449M765 445L754 528M802 449L754 528M802 449L864 531M914 478L965 465M914 478L864 531M914 478L895 510M914 478L924 562M965 465L1060 435M965 465L895 510M965 465L1015 550M1060 435L1134 467M1134 467L1208 414M1134 467L1111 527M1134 467L1183 504M1323 476L1425 451M1323 476L1306 528M1323 476L1363 541M1425 451L1474 478M1425 451L1445 516M1474 478L1445 516M1582 430L1642 465M1582 430L1616 516M1642 465L1700 452M1642 465L1584 525M1642 465L1616 516M1700 452L1616 516M1700 452L1701 552M1700 452L1794 485M1796 465L1883 461M1796 465L1794 485M1883 461L1934 427M1883 461L1794 485M1883 461L1965 514M1934 427L2009 406M1934 427L1965 514M2009 406L2096 408M2009 406L2002 492M2096 408L2157 510M2229 452L2241 417M2229 452L2157 510M2229 452L2162 514M2229 452L2272 503M2241 417L2272 503M2363 444L2445 451M2363 444L2272 503M2363 444L2350 486M2445 451L2350 486M2445 451L2536 514M11 523L-24 514M11 523L37 614M11 523L86 570M2571 523L2536 514M146 550L177 552M146 550L86 570M146 550L207 607M146 550L188 643M177 552L259 558M177 552L86 570M177 552L207 607M177 552L188 643M259 558L364 534M259 558L207 607M259 558L283 608M364 534L468 492M364 534L283 608M364 534L400 597M468 492L487 546M487 546L400 597M487 546L474 619M487 546L534 560M629 536L700 529M629 536L534 560M629 536L604 577M629 536L705 597M700 529L754 528M700 529L604 577M700 529L705 597M700 529L748 561M754 528L705 597M754 528L748 561M864 531L895 510M864 531L876 631M864 531L924 562M895 510L924 562M1015 550L924 562M1015 550L1014 584M1015 550L1100 570M1111 527L1183 504M1111 527L1100 570M1111 527L1126 567M1111 527L1209 561M1183 504L1224 539M1183 504L1126 567M1183 504L1209 561M1224 539L1306 528M1224 539L1209 561M1306 528L1363 541M1363 541L1445 516M1363 541L1313 620M1363 541L1367 595M1445 516L1367 595M1445 516L1499 630M1584 525L1616 516M1584 525L1574 620M1616 516L1701 552M1701 552L1638 622M1701 552L1704 601M1701 552L1791 571M1794 485L1847 555M1794 485L1791 571M1847 555L1791 571M1847 555L1879 617M1847 555L1823 654M1847 555L1885 644M1965 514L2002 492M2157 510L2162 514M2157 510L2272 503M2157 510L2158 570M2162 514L2158 570M2272 503L2350 486M2350 486L2415 550M2415 550L2377 607M2415 550L2476 580M2536 514L2476 580M37 614L86 570M37 614L-3 633M37 614L37 651M37 614L-16 698M2597 614L2557 633M2597 614L2544 698M86 570L37 651M207 607L283 608M207 607L188 643M283 608L188 643M283 608L273 679M400 597L474 619M400 597L476 674M474 619L534 560M474 619L476 674M474 619L503 649M534 560L604 577M534 560L503 649M705 597L748 561M705 597L676 700M876 631L924 562M876 631L799 653M876 631L871 681M876 631L897 666M1014 584L1100 570M1014 584L981 678M1014 584L1096 645M1100 570L1126 567M1100 570L1096 645M1126 567L1209 561M1126 567L1096 645M1209 561L1195 666M1313 620L1367 595M1313 620L1227 682M1313 620L1347 668M1367 595L1347 668M1499 630L1574 620M1499 630L1459 690M1499 630L1576 654M1499 630L1552 733M1574 620L1638 622M1574 620L1576 654M1638 622L1704 601M1638 622L1576 654M1638 622L1663 703M1704 601L1791 571M1704 601L1707 694M1791 571L1823 654M1879 617L1941 618M1879 617L1823 654M1879 617L1885 644M1941 618L1885 644M1941 618L1970 710M1941 618L2029 647M1941 618L1955 721M2065 624L2158 570M2065 624L2029 647M2065 624L2099 661M2158 570L2235 639M2235 639L2288 637M2235 639L2208 676M2235 639L2294 640M2288 637L2377 607M2288 637L2208 676M2288 637L2294 640M2288 637L2335 699M2377 607L2476 580M2377 607L2294 640M2377 607L2439 689M2476 580L2557 633M2476 580L2439 689M2557 633L2597 651M2557 633L2544 698M-3 633L37 651M37 651L94 702M37 651L-16 698M2597 651L2544 698M94 702L-16 698M94 702L67 781M2654 702L2544 698M188 643L273 679M273 679L356 716M273 679L189 773M273 679L245 753M356 716L245 753M356 716L374 769M356 716L446 722M476 674L503 649M476 674L446 722M476 674L548 724M503 649L446 722M503 649L548 724M610 694L676 700M610 694L548 724M610 694L617 741M676 700L617 741M676 700L690 761M676 700L750 747M799 653L871 681M799 653L897 666M799 653L841 739M871 681L897 666M871 681L841 739M871 681L917 775M897 666L981 678M897 666L841 739M981 678L917 775M981 678L1038 749M1096 645L1195 666M1195 666L1227 682M1347 668L1361 717M1361 717L1459 690M1361 717L1331 773M1361 717L1414 786M1361 717L1444 751M1459 690L1444 751M1576 654L1663 703M1576 654L1552 733M1663 703L1707 694M1663 703L1671 766M1663 703L1705 732M1707 694L1823 654M1707 694L1671 766M1707 694L1705 732M1823 654L1885 644M1970 710L2029 647M1970 710L1887 772M1970 710L1955 721M1970 710L2033 768M2029 647L2099 661M2099 661L2208 676M2099 661L2106 753M2208 676L2294 640M2208 676L2252 752M2294 640L2335 699M2335 699L2252 752M2335 699L2348 738M2335 699L2407 748M2439 689L2348 738M2439 689L2407 748M2439 689L2483 735M2544 698L2483 735M67 781L128 799M67 781L72 822M128 799L189 773M128 799L72 822M128 799L150 859M128 799L185 834M189 773L245 753M189 773L150 859M189 773L185 834M245 753L185 834M245 753L272 872M374 769L446 722M374 769L367 836M374 769L416 808M446 722L416 808M548 724L617 741M548 724L528 847M617 741L690 761M617 741L709 828M690 761L750 747M690 761L709 828M690 761L752 815M750 747L841 739M750 747L709 828M750 747L752 815M841 739L917 775M917 775L859 858M917 775L934 810M1038 749L1084 771M1038 749L1105 805M1084 771L1196 792M1084 771L1105 805M1084 771L1156 812M1196 792L1202 793M1196 792L1105 805M1196 792L1156 812M1196 792L1266 826M1202 793L1105 805M1202 793L1156 812M1202 793L1266 826M1202 793L1283 869M1331 773L1414 786M1331 773L1266 826M1331 773L1283 869M1331 773L1394 850M1414 786L1444 751M1414 786L1394 850M1414 786L1499 812M1444 751L1499 812M1552 733L1499 812M1552 733L1596 807M1671 766L1705 732M1671 766L1632 820M1671 766L1734 821M1814 791L1887 772M1814 791L1734 821M1814 791L1785 821M1814 791L1844 870M1887 772L1955 721M1887 772L1844 870M1887 772L1952 832M1955 721L2033 768M2033 768L2106 753M2033 768L1952 832M2033 768L2019 829M2106 753L2213 794M2106 753L2144 831M2213 794L2252 752M2213 794L2144 831M2213 794L2180 841M2213 794L2290 831M2252 752L2348 738M2252 752L2290 831M2348 738L2407 748M2348 738L2368 824M2407 748L2483 735M2407 748L2368 824M2483 735L2450 849M2483 735L2515 850M72 822L150 859M150 859L185 834M150 859L87 938M185 834L272 872M272 872L367 836M272 872L254 913M367 836L416 808M367 836L399 888M367 836L426 884M416 808L399 888M416 808L426 884M528 847L564 866M528 847L426 884M528 847L529 943M528 847L570 919M564 866L529 943M564 866L570 919M709 828L752 815M859 858L934 810M859 858L849 938M934 810L985 868M985 868L939 929M985 868L1033 885M985 868L1083 917M1105 805L1156 812M1156 812L1153 909M1266 826L1283 869M1266 826L1326 895M1283 869L1204 913M1283 869L1326 895M1394 850L1326 895M1394 850L1383 952M1394 850L1456 916M1499 812L1596 807M1596 807L1632 820M1632 820L1734 821M1632 820L1650 910M1734 821L1785 821M1734 821L1737 882M1785 821L1844 870M1785 821L1737 882M1785 821L1779 919M1844 870L1779 919M1844 870L1889 892M1952 832L2019 829M1952 832L1889 892M1952 832L1995 898M2019 829L1995 898M2019 829L2010 925M2144 831L2180 841M2144 831L2118 902M2180 841L2290 831M2180 841L2118 902M2290 831L2368 824M2290 831L2265 937M2368 824L2450 849M2450 849L2515 850M2450 849L2457 937M2515 850L2581 902M2515 850L2531 935M-45 850L21 902M21 902L87 938M21 902L-29 935M21 902L70 975M21 902L87 977M2581 902L2531 935M87 938L185 955M87 938L70 975M87 938L87 977M185 955L254 913M185 955L87 977M185 955L190 972M185 955L262 1013M254 913L190 972M254 913L262 1013M254 913L330 990M399 888L426 884M399 888L434 966M426 884L434 966M529 943L570 919M529 943L434 966M529 943L553 1027M686 955L754 943M686 955L632 1022M686 955L700 1004M686 955L784 972M754 943L700 1004M754 943L784 972M849 938L784 972M849 938L880 977M849 938L890 983M939 929L1033 885M939 929L880 977M939 929L890 983M939 929L981 1002M1033 885L1083 917M1033 885L1153 909M1083 917L1153 909M1083 917L1093 986M1153 909L1204 913M1153 909L1093 986M1204 913L1215 1025M1326 895L1383 952M1326 895L1351 979M1383 952L1456 916M1383 952L1351 979M1383 952L1438 963M1456 916L1553 945M1456 916L1438 963M1456 916L1514 984M1553 945L1650 910M1553 945L1514 984M1553 945L1579 989M1553 945L1602 1034M1650 910L1737 882M1650 910L1579 989M1650 910L1687 964M1737 882L1779 919M1737 882L1769 973M1779 919L1687 964M1779 919L1769 973M1889 892L1995 898M1889 892L1893 969M1889 892L1935 975M1995 898L2010 925M1995 898L1935 975M2010 925L2118 902M2010 925L1935 975M2010 925L2021 1021M2118 902L2219 948M2118 902L2105 1019M2219 948L2265 937M2219 948L2192 1006M2219 948L2210 1045M2265 937L2192 1006M2265 937L2310 996M2380 953L2457 937M2380 953L2310 996M2380 953L2387 1012M2380 953L2424 979M2457 937L2531 935M2457 937L2424 979M2531 935L2630 975M2531 935L2517 1004M-29 935L70 975M70 975L87 977M70 975L18 1059M87 977L18 1059M190 972L262 1013M190 972L262 1051M262 1013L330 990M262 1013L262 1051M330 990L434 966M330 990L262 1051M330 990L353 1057M434 966L353 1057M553 1027L632 1022M553 1027L472 1082M553 1027L550 1099M553 1027L600 1046M632 1022L700 1004M632 1022L600 1046M632 1022L669 1061M700 1004L669 1061M700 1004L765 1046M784 972L880 977M784 972L765 1046M880 977L890 983M880 977L981 1002M890 983L981 1002M890 983L885 1086M1093 986L1152 1039M1093 986L1072 1070M1093 986L1122 1074M1152 1039L1215 1025M1152 1039L1072 1070M1152 1039L1122 1074M1152 1039L1162 1132M1215 1025L1259 1063M1351 979L1438 963M1351 979L1329 1047M1438 963L1514 984M1514 984L1579 989M1514 984L1602 1034M1579 989L1602 1034M1579 989L1556 1079M1602 1034L1556 1079M1602 1034L1650 1070M1687 964L1769 973M1687 964L1650 1070M1769 973L1893 969M1769 973L1737 1072M1893 969L1935 975M1893 969L1867 1087M1935 975L2021 1021M2021 1021L2105 1019M2021 1021L2054 1110M2021 1021L2083 1088M2105 1019L2192 1006M2105 1019L2054 1110M2105 1019L2083 1088M2192 1006L2210 1045M2192 1006L2203 1132M2310 996L2387 1012M2310 996L2301 1093M2310 996L2340 1074M2387 1012L2424 979M2387 1012L2340 1074M2387 1012L2462 1040M2424 979L2517 1004M2424 979L2462 1040M2517 1004L2578 1059M2517 1004L2462 1040M2517 1004L2531 1077M-43 1004L18 1059M18 1059L93 1082M18 1059L-29 1077M2578 1059L2531 1077M93 1082L162 1086M93 1082L46 1174M93 1082L125 1165M93 1082L167 1129M162 1086L262 1051M162 1086L125 1165M162 1086L167 1129M262 1051L353 1057M353 1057L385 1125M472 1082L550 1099M472 1082L385 1125M472 1082L490 1156M472 1082L563 1141M550 1099L600 1046M550 1099L490 1156M550 1099L563 1141M600 1046L669 1061M600 1046L563 1141M669 1061L765 1046M765 1046L829 1093M765 1046L810 1123M829 1093L885 1086M829 1093L810 1123M829 1093L895 1149M885 1086L810 1123M885 1086L895 1149M1034 1113L1072 1070M1034 1113L1034 1159M1072 1070L1122 1074M1122 1074L1112 1164M1122 1074L1162 1132M1259 1063L1329 1047M1259 1063L1162 1132M1259 1063L1279 1186M1259 1063L1356 1132M1329 1047L1356 1132M1439 1106L1465 1104M1439 1106L1356 1132M1439 1106L1385 1188M1439 1106L1509 1180M1465 1104L1556 1079M1465 1104L1509 1180M1465 1104L1555 1144M1556 1079L1650 1070M1556 1079L1555 1144M1650 1070L1737 1072M1737 1072L1829 1090M1829 1090L1867 1087M1829 1090L1926 1107M1829 1090L1777 1185M1829 1090L1888 1158M1867 1087L1926 1107M1867 1087L1888 1158M1926 1107L1888 1158M1926 1107L1990 1196M1926 1107L2009 1143M2054 1110L2083 1088M2054 1110L2009 1143M2054 1110L2099 1186M2083 1088L2009 1143M2083 1088L2099 1186M2210 1045L2301 1093M2210 1045L2203 1132M2301 1093L2340 1074M2301 1093L2203 1132M2301 1093L2279 1187M2462 1040L2531 1077M2462 1040L2473 1134M2531 1077L2473 1134M2531 1077L2488 1157M46 1174L125 1165M46 1174L14 1276M46 1174L145 1202M125 1165L167 1129M125 1165L145 1202M167 1129L145 1202M281 1188L214 1273M281 1188L249 1227M385 1125L415 1194M415 1194L490 1156M415 1194L379 1263M415 1194L459 1211M415 1194L504 1256M490 1156L563 1141M490 1156L459 1211M563 1141L577 1202M711 1180L738 1199M711 1180L687 1225M711 1180L754 1239M738 1199L810 1123M738 1199L687 1225M738 1199L754 1239M810 1123L895 1149M895 1149L855 1233M895 1149L928 1224M1034 1159L1112 1164M1034 1159L1065 1245M1112 1164L1162 1132M1112 1164L1065 1245M1112 1164L1157 1243M1279 1186L1356 1132M1279 1186L1385 1188M1279 1186L1209 1254M1279 1186L1322 1238M1356 1132L1385 1188M1385 1188L1322 1238M1385 1188L1425 1258M1509 1180L1555 1144M1509 1180L1496 1231M1509 1180L1553 1245M1555 1144L1613 1198M1613 1198L1553 1245M1613 1198L1649 1211M1721 1195L1777 1185M1721 1195L1649 1211M1721 1195L1714 1237M1721 1195L1795 1227M1777 1185L1714 1237M1777 1185L1795 1227M1888 1158L1884 1264M1990 1196L2009 1143M1990 1196L1982 1259M1990 1196L2007 1242M1990 1196L2086 1239M2009 1143L2007 1242M2099 1186L2203 1132M2099 1186L2086 1239M2203 1132L2279 1187M2279 1187L2233 1258M2279 1187L2293 1262M2394 1196L2488 1157M2394 1196L2369 1250M2394 1196L2439 1207M2473 1134L2488 1157M2473 1134L2439 1207M2473 1134L2495 1233M2488 1157L2439 1207M2488 1157L2495 1233M14 1276L-65 1233M14 1276L11 1348M14 1276L97 1307M14 1276L-54 1317M2574 1276L2495 1233M2574 1276L2506 1317M145 1202L214 1273M145 1202L249 1227M214 1273L249 1227M214 1273L224 1313M214 1273L277 1307M249 1227L224 1313M249 1227L277 1307M379 1263L459 1211M379 1263L338 1347M379 1263L415 1336M459 1211L504 1256M459 1211L577 1202M504 1256L577 1202M504 1256L527 1323M504 1256L584 1307M577 1202L687 1225M577 1202L584 1307M687 1225L754 1239M687 1225L648 1298M754 1239L855 1233M754 1239L848 1280M855 1233L928 1224M855 1233L848 1280M855 1233L894 1293M928 1224L994 1278M928 1224L848 1280M928 1224L894 1293M994 1278L1065 1245M994 1278L894 1293M994 1278L1003 1320M994 1278L1097 1303M1065 1245L1157 1243M1065 1245L1097 1303M1157 1243L1209 1254M1157 1243L1097 1303M1157 1243L1128 1328M1209 1254L1322 1238M1209 1254L1222 1345M1209 1254L1284 1328M1322 1238L1425 1258M1322 1238L1284 1328M1425 1258L1496 1231M1425 1258L1396 1360M1425 1258L1486 1286M1496 1231L1553 1245M1496 1231L1486 1286M1496 1231L1561 1315M1553 1245L1486 1286M1553 1245L1561 1315M1649 1211L1714 1237M1714 1237L1745 1297M1714 1237L1769 1297M1795 1227L1745 1297M1795 1227L1769 1297M1795 1227L1855 1306M1884 1264L1982 1259M1884 1264L1855 1306M1884 1264L1930 1321M1982 1259L2007 1242M1982 1259L2086 1239M1982 1259L1930 1321M2007 1242L2086 1239M2007 1242L2024 1352M2086 1239L2165 1309M2233 1258L2293 1262M2233 1258L2165 1309M2233 1258L2255 1309M2293 1262L2369 1250M2293 1262L2255 1309M2293 1262L2319 1368M2369 1250L2439 1207M2369 1250L2338 1352M2439 1207L2495 1233M2495 1233L2506 1317M11 1348L-54 1317M11 1348L2 1432M11 1348L-82 1367M11 1348L-40 1400M2571 1348L2506 1317M2571 1348L2478 1367M2571 1348L2520 1400M224 1313L277 1307M277 1307L338 1347M338 1347L415 1336M338 1347L285 1410M338 1347L355 1403M415 1336L355 1403M415 1336L451 1364M415 1336L499 1393M527 1323L584 1307M527 1323L451 1364M527 1323L499 1393M584 1307L648 1298M584 1307L634 1372M648 1298L731 1356M648 1298L634 1372M648 1298L689 1394M731 1356L634 1372M731 1356L689 1394M731 1356L783 1434M848 1280L894 1293M848 1280L877 1397M894 1293L877 1397M1003 1320L1097 1303M1097 1303L1128 1328M1128 1328L1222 1345M1128 1328L1129 1405M1222 1345L1284 1328M1222 1345L1202 1399M1222 1345L1301 1361M1284 1328L1202 1399M1284 1328L1301 1361M1396 1360L1301 1361M1396 1360L1420 1372M1396 1360L1459 1380M1486 1286L1561 1315M1486 1286L1459 1380M1561 1315L1663 1345M1561 1315L1559 1425M1663 1345L1745 1297M1663 1345L1671 1360M1663 1345L1735 1361M1745 1297L1769 1297M1745 1297L1735 1361M1769 1297L1855 1306M1769 1297L1735 1361M1855 1306L1930 1321M1930 1321L2024 1352M1930 1321L1910 1428M2024 1352L2117 1357M2024 1352L1960 1433M2024 1352L2028 1426M2117 1357L2165 1309M2117 1357L2135 1376M2117 1357L2204 1404M2165 1309L2135 1376M2165 1309L2204 1404M2255 1309L2338 1352M2255 1309L2319 1368M2338 1352L2419 1343M2338 1352L2319 1368M2338 1352L2371 1397M2419 1343L2319 1368M2419 1343L2371 1397M2419 1343L2478 1367M2506 1317L2478 1367M2506 1317L2520 1400M2 1432L-40 1400M2562 1432L2520 1400M123 1418L231 1436M231 1436L285 1410M285 1410L355 1403M355 1403L451 1364M451 1364L499 1393M634 1372L689 1394M689 1394L783 1434M783 1434L877 1397M877 1397L914 1420M877 1397L974 1438M914 1420L974 1438M1115 1438L1129 1405M1115 1438L1202 1399M1129 1405L1202 1399M1420 1372L1459 1380M1459 1380L1559 1425M1559 1425L1671 1360M1671 1360L1735 1361M1671 1360L1774 1406M1735 1361L1774 1406M1910 1428L1960 1433M1960 1433L2028 1426M2028 1426L2135 1376M2135 1376L2204 1404M2319 1368L2371 1397M2478 1367L2520 1400"/></svg>