<svg xmlns="http://www.w3.org/2000/svg" width="2560" height="1440" fill="#fff"><circle cx="22" cy="71" r="5"/><circle cx="91" cy="76" r="5"/><circle cx="171" cy="33" r="6"/><circle cx="318" cy="5" r="6"/><circle cx="318" cy="1445" r="6"/><circle cx="345" cy="23" r="4"/><circle cx="472" cy="14" r="6"/><circle cx="541" cy="47" r="4"/><circle cx="624" cy="57" r="6"/><circle cx="692" cy="51" r="6"/><circle cx="733" cy="64" r="6"/><circle cx="828" cy="67" r="4"/><circle cx="919" cy="30" r="6"/><circle cx="963" cy="76" r="5"/><circle cx="1063" cy="24" r="5"/><circle cx="1142" cy="11" r="5"/><circle cx="1205" cy="5" r="4"/><circle cx="1300" cy="35" r="4"/><circle cx="1392" cy="10" r="5"/><circle cx="1471" cy="20" r="6"/><circle cx="1556" cy="15" r="4"/><circle cx="1613" cy="36" r="4"/><circle cx="1715" cy="17" r="5"/><circle cx="1801" cy="53" r="6"/><circle cx="1915" cy="28" r="5"/><circle cx="1997" cy="51" r="5"/><circle cx="2016" cy="33" r="6"/><circle cx="2114" cy="59" r="5"/><circle cx="2237" cy="59" r="4"/><circle cx="2267" cy="29" r="5"/><circle cx="2366" cy="74" r="5"/><circle cx="2437" cy="62" r="5"/><circle cx="2543" cy="63" r="5"/><circle cx="79" cy="83" r="4"/><circle cx="158" cy="112" r="4"/><circle cx="216" cy="116" r="6"/><circle cx="309" cy="152" r="5"/><circle cx="351" cy="105" r="5"/><circle cx="475" cy="119" r="4"/><circle cx="536" cy="80" r="5"/><circle cx="598" cy="146" r="4"/><circle cx="671" cy="132" r="5"/><circle cx="779" cy="122" r="5"/><circle cx="811" cy="107" r="6"/><circle cx="896" cy="86" r="5"/><circle cx="1034" cy="155" r="5"/><circle cx="1062" cy="105" r="6"/><circle cx="1128" cy="85" r="6"/><circle cx="1236" cy="107" r="5"/><circle cx="1342" cy="105" r="5"/><circle cx="1372" cy="110" r="4"/><circle cx="1440" cy="93" r="6"/><circle cx="1595" cy="150" r="5"/><circle cx="1666" cy="130" r="5"/><circle cx="1680" cy="153" r="6"/><circle cx="1836" cy="159" r="5"/><circle cx="1860" cy="152" r="5"/><circle cx="1920" cy="159" r="4"/><circle cx="2042" cy="92" r="5"/><circle cx="2134" cy="112" r="5"/><circle cx="2183" cy="152" r="4"/><circle cx="2310" cy="115" r="6"/><circle cx="2398" cy="152" r="5"/><circle cx="2461" cy="94" r="5"/><circle cx="2558" cy="110" r="5"/><circle cx="-2" cy="110" r="5"/><circle cx="60" cy="195" r="5"/><circle cx="159" cy="195" r="5"/><circle cx="230" cy="185" r="6"/><circle cx="285" cy="235" r="5"/><circle cx="383" cy="174" r="5"/><circle cx="410" cy="174" r="6"/><circle cx="501" cy="216" r="5"/><circle cx="629" cy="173" r="5"/><circle cx="679" cy="173" r="5"/><circle cx="736" cy="199" r="6"/><circle cx="827" cy="198" r="5"/><circle cx="924" cy="236" r="5"/><circle cx="1016" cy="165" r="6"/><circle cx="1079" cy="216" r="5"/><circle cx="1198" cy="230" r="5"/><circle cx="1218" cy="239" r="4"/><circle cx="1321" cy="182" r="6"/><circle cx="1396" cy="210" r="5"/><circle cx="1457" cy="212" r="5"/><circle cx="1552" cy="213" r="5"/><circle cx="1650" cy="219" r="4"/><circle cx="1716" cy="210" r="5"/><circle cx="1775" cy="220" r="5"/><circle cx="1847" cy="194" r="5"/><circle cx="1945" cy="226" r="4"/><circle cx="2058" cy="190" r="5"/><circle cx="2120" cy="217" r="4"/><circle cx="2166" cy="177" r="5"/><circle cx="2245" cy="186" r="4"/><circle cx="2339" cy="179" r="6"/><circle cx="2474" cy="170" r="5"/><circle cx="2501" cy="215" r="5"/><circle cx="43" cy="271" r="5"/><circle cx="134" cy="267" r="5"/><circle cx="181" cy="298" r="5"/><circle cx="283" cy="265" r="4"/><circle cx="371" cy="280" r="5"/><circle cx="410" cy="252" r="5"/><circle cx="551" cy="273" r="5"/><circle cx="584" cy="251" r="5"/><circle cx="676" cy="278" r="5"/><circle cx="740" cy="288" r="4"/><circle cx="829" cy="276" r="5"/><circle cx="894" cy="318" r="4"/><circle cx="1025" cy="261" r="5"/><circle cx="1104" cy="319" r="5"/><circle cx="1165" cy="258" r="4"/><circle cx="1235" cy="252" r="5"/><circle cx="1341" cy="294" r="5"/><circle cx="1394" cy="312" r="4"/><circle cx="1498" cy="258" r="4"/><circle cx="1568" cy="263" r="5"/><circle cx="1642" cy="304" r="5"/><circle cx="1685" cy="306" r="5"/><circle cx="1781" cy="256" r="5"/><circle cx="1878" cy="265" r="4"/><circle cx="1962" cy="283" r="5"/><circle cx="2001" cy="295" r="6"/><circle cx="2084" cy="315" r="5"/><circle cx="2236" cy="261" r="5"/><circle cx="2303" cy="291" r="4"/><circle cx="2342" cy="303" r="5"/><circle cx="2442" cy="291" r="5"/><circle cx="2486" cy="268" r="5"/><circle cx="11" cy="376" r="5"/><circle cx="114" cy="370" r="6"/><circle cx="232" cy="353" r="5"/><circle cx="282" cy="334" r="5"/><circle cx="342" cy="378" r="5"/><circle cx="458" cy="361" r="6"/><circle cx="542" cy="355" r="5"/><circle cx="579" cy="380" r="5"/><circle cx="708" cy="330" r="5"/><circle cx="788" cy="354" r="4"/><circle cx="808" cy="352" r="6"/><circle cx="895" cy="367" r="6"/><circle cx="1004" cy="325" r="5"/><circle cx="1080" cy="351" r="5"/><circle cx="1148" cy="400" r="5"/><circle cx="1207" cy="371" r="6"/><circle cx="1355" cy="387" r="5"/><circle cx="1393" cy="395" r="5"/><circle cx="1447" cy="395" r="6"/><circle cx="1587" cy="363" r="5"/><circle cx="1679" cy="335" r="5"/><circle cx="1749" cy="344" r="4"/><circle cx="1839" cy="361" r="4"/><circle cx="1842" cy="328" r="5"/><circle cx="1926" cy="334" r="4"/><circle cx="2058" cy="369" r="4"/><circle cx="2082" cy="340" r="5"/><circle cx="2193" cy="381" r="5"/><circle cx="2291" cy="373" r="4"/><circle cx="2364" cy="339" r="5"/><circle cx="2467" cy="392" r="6"/><circle cx="2546" cy="345" r="6"/><circle cx="66" cy="413" r="6"/><circle cx="130" cy="416" r="6"/><circle cx="203" cy="438" r="6"/><circle cx="291" cy="450" r="6"/><circle cx="352" cy="453" r="6"/><circle cx="401" cy="415" r="6"/><circle cx="558" cy="421" r="5"/><circle cx="613" cy="463" r="5"/><circle cx="700" cy="453" r="5"/><circle cx="724" cy="411" r="5"/><circle cx="813" cy="474" r="6"/><circle cx="881" cy="456" r="5"/><circle cx="986" cy="462" r="4"/><circle cx="1075" cy="421" r="4"/><circle cx="1157" cy="435" r="5"/><circle cx="1227" cy="448" r="5"/><circle cx="1299" cy="477" r="4"/><circle cx="1433" cy="408" r="5"/><circle cx="1458" cy="404" r="6"/><circle cx="1553" cy="403" r="6"/><circle cx="1671" cy="463" r="5"/><circle cx="1737" cy="446" r="6"/><circle cx="1788" cy="420" r="5"/><circle cx="1843" cy="429" r="5"/><circle cx="1962" cy="426" r="6"/><circle cx="2030" cy="406" r="5"/><circle cx="2080" cy="426" r="5"/><circle cx="2220" cy="463" r="6"/><circle cx="2252" cy="429" r="5"/><circle cx="2396" cy="449" r="4"/><circle cx="2463" cy="419" r="4"/><circle cx="2520" cy="447" r="5"/><circle cx="34" cy="516" r="5"/><circle cx="153" cy="486" r="5"/><circle cx="211" cy="522" r="4"/><circle cx="296" cy="497" r="5"/><circle cx="367" cy="556" r="6"/><circle cx="461" cy="546" r="5"/><circle cx="559" cy="548" r="6"/><circle cx="610" cy="497" r="6"/><circle cx="713" cy="528" r="4"/><circle cx="792" cy="518" r="5"/><circle cx="832" cy="552" r="4"/><circle cx="942" cy="518" r="5"/><circle cx="994" cy="513" r="6"/><circle cx="1097" cy="537" r="5"/><circle cx="1155" cy="533" r="5"/><circle cx="1263" cy="532" r="6"/><circle cx="1313" cy="512" r="5"/><circle cx="1384" cy="559" r="6"/><circle cx="1489" cy="508" r="6"/><circle cx="1534" cy="544" r="4"/><circle cx="1674" cy="520" r="5"/><circle cx="1760" cy="539" r="4"/><circle cx="1837" cy="512" r="5"/><circle cx="1896" cy="560" r="4"/><circle cx="1955" cy="536" r="6"/><circle cx="2018" cy="558" r="6"/><circle cx="2157" cy="544" r="6"/><circle cx="2168" cy="559" r="5"/><circle cx="2267" cy="555" r="5"/><circle cx="2375" cy="499" r="4"/><circle cx="2433" cy="515" r="6"/><circle cx="2527" cy="522" r="5"/><circle cx="54" cy="631" r="5"/><circle cx="116" cy="608" r="5"/><circle cx="187" cy="609" r="6"/><circle cx="315" cy="613" r="5"/><circle cx="388" cy="614" r="6"/><circle cx="418" cy="618" r="5"/><circle cx="500" cy="588" r="5"/><circle cx="630" cy="608" r="5"/><circle cx="708" cy="635" r="4"/><circle cx="724" cy="581" r="4"/><circle cx="878" cy="567" r="5"/><circle cx="896" cy="629" r="6"/><circle cx="1025" cy="588" r="4"/><circle cx="1109" cy="634" r="5"/><circle cx="1144" cy="590" r="5"/><circle cx="1211" cy="626" r="4"/><circle cx="1323" cy="621" r="6"/><circle cx="1392" cy="631" r="4"/><circle cx="1461" cy="591" r="6"/><circle cx="1563" cy="566" r="6"/><circle cx="1619" cy="637" r="5"/><circle cx="1700" cy="572" r="5"/><circle cx="1803" cy="600" r="4"/><circle cx="1857" cy="593" r="5"/><circle cx="1967" cy="569" r="4"/><circle cx="2027" cy="609" r="4"/><circle cx="2119" cy="614" r="5"/><circle cx="2200" cy="590" r="4"/><circle cx="2258" cy="593" r="5"/><circle cx="2379" cy="633" r="5"/><circle cx="2467" cy="560" r="5"/><circle cx="2480" cy="604" r="5"/><circle cx="30" cy="703" r="5"/><circle cx="93" cy="647" r="5"/><circle cx="200" cy="669" r="6"/><circle cx="297" cy="702" r="5"/><circle cx="335" cy="657" r="5"/><circle cx="435" cy="679" r="5"/><circle cx="500" cy="671" r="4"/><circle cx="571" cy="662" r="5"/><circle cx="684" cy="696" r="5"/><circle cx="748" cy="691" r="5"/><circle cx="811" cy="663" r="6"/><circle cx="936" cy="665" r="6"/><circle cx="1004" cy="643" r="5"/><circle cx="1109" cy="705" r="4"/><circle cx="1161" cy="699" r="4"/><circle cx="1221" cy="655" r="6"/><circle cx="1343" cy="651" r="5"/><circle cx="1391" cy="650" r="4"/><circle cx="1490" cy="641" r="4"/><circle cx="1524" cy="713" r="5"/><circle cx="1647" cy="670" r="4"/><circle cx="1710" cy="661" r="6"/><circle cx="1809" cy="641" r="6"/><circle cx="1853" cy="672" r="5"/><circle cx="1951" cy="710" r="5"/><circle cx="2035" cy="671" r="5"/><circle cx="2144" cy="666" r="5"/><circle cx="2161" cy="669" r="5"/><circle cx="2312" cy="685" r="6"/><circle cx="2328" cy="683" r="6"/><circle cx="2466" cy="697" r="4"/><circle cx="2533" cy="640" r="6"/><circle cx="25" cy="723" r="5"/><circle cx="133" cy="762" r="5"/><circle cx="185" cy="739" r="5"/><circle cx="252" cy="754" r="5"/><circle cx="336" cy="735" r="5"/><circle cx="441" cy="752" r="5"/><circle cx="510" cy="744" r="5"/><circle cx="593" cy="749" r="5"/><circle cx="691" cy="746" r="4"/><circle cx="726" cy="758" r="4"/><circle cx="800" cy="790" r="5"/><circle cx="919" cy="782" r="4"/><circle cx="1009" cy="743" r="5"/><circle cx="1063" cy="792" r="5"/><circle cx="1133" cy="784" r="4"/><circle cx="1270" cy="734" r="5"/><circle cx="1304" cy="776" r="6"/><circle cx="1396" cy="787" r="5"/><circle cx="1484" cy="770" r="4"/><circle cx="1553" cy="724" r="5"/><circle cx="1636" cy="752" r="6"/><circle cx="1711" cy="791" r="5"/><circle cx="1784" cy="795" r="6"/><circle cx="1920" cy="754" r="6"/><circle cx="1943" cy="785" r="6"/><circle cx="2015" cy="797" r="6"/><circle cx="2103" cy="792" r="4"/><circle cx="2174" cy="778" r="4"/><circle cx="2290" cy="786" r="4"/><circle cx="2387" cy="749" r="4"/><circle cx="2409" cy="743" r="4"/><circle cx="2516" cy="775" r="5"/><circle cx="69" cy="847" r="4"/><circle cx="98" cy="824" r="5"/><circle cx="202" cy="864" r="5"/><circle cx="292" cy="868" r="5"/><circle cx="377" cy="808" r="6"/><circle cx="406" cy="853" r="4"/><circle cx="549" cy="816" r="6"/><circle cx="583" cy="805" r="5"/><circle cx="686" cy="819" r="4"/><circle cx="762" cy="838" r="5"/><circle cx="820" cy="827" r="5"/><circle cx="885" cy="878" r="4"/><circle cx="1002" cy="813" r="6"/><circle cx="1079" cy="811" r="6"/><circle cx="1179" cy="866" r="5"/><circle cx="1242" cy="809" r="5"/><circle cx="1286" cy="821" r="4"/><circle cx="1382" cy="842" r="6"/><circle cx="1488" cy="840" r="5"/><circle cx="1553" cy="847" r="5"/><circle cx="1610" cy="867" r="4"/><circle cx="1715" cy="806" r="5"/><circle cx="1820" cy="876" r="6"/><circle cx="1880" cy="870" r="4"/><circle cx="1936" cy="812" r="6"/><circle cx="2049" cy="831" r="6"/><circle cx="2084" cy="831" r="5"/><circle cx="2225" cy="849" r="4"/><circle cx="2297" cy="834" r="5"/><circle cx="2376" cy="863" r="6"/><circle cx="2436" cy="866" r="5"/><circle cx="2515" cy="805" r="5"/><circle cx="26" cy="912" r="4"/><circle cx="84" cy="935" r="6"/><circle cx="180" cy="928" r="4"/><circle cx="315" cy="903" r="4"/><circle cx="363" cy="925" r="6"/><circle cx="419" cy="915" r="6"/><circle cx="518" cy="924" r="4"/><circle cx="593" cy="939" r="4"/><circle cx="713" cy="937" r="5"/><circle cx="738" cy="892" r="4"/><circle cx="838" cy="957" r="5"/><circle cx="937" cy="901" r="5"/><circle cx="1019" cy="943" r="6"/><circle cx="1073" cy="881" r="4"/><circle cx="1146" cy="913" r="6"/><circle cx="1203" cy="921" r="6"/><circle cx="1353" cy="903" r="6"/><circle cx="1387" cy="916" r="6"/><circle cx="1519" cy="944" r="5"/><circle cx="1570" cy="952" r="6"/><circle cx="1607" cy="935" r="6"/><circle cx="1708" cy="881" r="4"/><circle cx="1787" cy="888" r="6"/><circle cx="1891" cy="892" r="6"/><circle cx="1956" cy="950" r="5"/><circle cx="2072" cy="913" r="4"/><circle cx="2083" cy="922" r="4"/><circle cx="2236" cy="901" r="6"/><circle cx="2285" cy="883" r="6"/><circle cx="2370" cy="907" r="6"/><circle cx="2412" cy="956" r="4"/><circle cx="2486" cy="956" r="5"/><circle cx="54" cy="1028" r="5"/><circle cx="116" cy="1039" r="5"/><circle cx="168" cy="1001" r="5"/><circle cx="281" cy="992" r="5"/><circle cx="340" cy="979" r="6"/><circle cx="417" cy="988" r="5"/><circle cx="505" cy="1030" r="5"/><circle cx="626" cy="1004" r="4"/><circle cx="687" cy="973" r="5"/><circle cx="728" cy="1039" r="5"/><circle cx="809" cy="1001" r="5"/><circle cx="897" cy="1002" r="5"/><circle cx="1016" cy="1028" r="4"/><circle cx="1084" cy="1003" r="4"/><circle cx="1140" cy="983" r="5"/><circle cx="1253" cy="1032" r="4"/><circle cx="1283" cy="976" r="4"/><circle cx="1412" cy="1017" r="4"/><circle cx="1511" cy="1032" r="6"/><circle cx="1521" cy="1010" r="6"/><circle cx="1660" cy="1028" r="6"/><circle cx="1711" cy="1036" r="6"/><circle cx="1814" cy="985" r="5"/><circle cx="1866" cy="974" r="6"/><circle cx="1936" cy="974" r="5"/><circle cx="2049" cy="978" r="6"/><circle cx="2118" cy="987" r="5"/><circle cx="2216" cy="979" r="6"/><circle cx="2281" cy="1026" r="5"/><circle cx="2385" cy="1005" r="5"/><circle cx="2472" cy="1040" r="5"/><circle cx="2494" cy="988" r="4"/><circle cx="14" cy="1105" r="6"/><circle cx="103" cy="1087" r="5"/><circle cx="163" cy="1062" r="5"/><circle cx="290" cy="1089" r="4"/><circle cx="391" cy="1068" r="5"/><circle cx="455" cy="1050" r="6"/><circle cx="534" cy="1093" r="4"/><circle cx="560" cy="1104" r="6"/><circle cx="671" cy="1113" r="4"/><circle cx="747" cy="1046" r="6"/><circle cx="823" cy="1081" r="6"/><circle cx="906" cy="1082" r="5"/><circle cx="992" cy="1057" r="6"/><circle cx="1075" cy="1109" r="5"/><circle cx="1180" cy="1111" r="5"/><circle cx="1250" cy="1087" r="5"/><circle cx="1282" cy="1043" r="5"/><circle cx="1434" cy="1079" r="6"/><circle cx="1460" cy="1114" r="6"/><circle cx="1544" cy="1051" r="6"/><circle cx="1658" cy="1058" r="6"/><circle cx="1694" cy="1060" r="5"/><circle cx="1769" cy="1096" r="5"/><circle cx="1868" cy="1092" r="5"/><circle cx="1964" cy="1106" r="5"/><circle cx="2002" cy="1063" r="4"/><circle cx="2153" cy="1067" r="5"/><circle cx="2185" cy="1099" r="5"/><circle cx="2300" cy="1096" r="4"/><circle cx="2342" cy="1071" r="4"/><circle cx="2408" cy="1062" r="6"/><circle cx="2524" cy="1091" r="5"/><circle cx="59" cy="1156" r="5"/><circle cx="99" cy="1197" r="5"/><circle cx="198" cy="1196" r="5"/><circle cx="290" cy="1139" r="5"/><circle cx="370" cy="1196" r="5"/><circle cx="410" cy="1148" r="5"/><circle cx="531" cy="1145" r="4"/><circle cx="603" cy="1160" r="4"/><circle cx="690" cy="1152" r="4"/><circle cx="746" cy="1133" r="4"/><circle cx="829" cy="1141" r="5"/><circle cx="934" cy="1146" r="4"/><circle cx="1017" cy="1177" r="4"/><circle cx="1116" cy="1121" r="5"/><circle cx="1164" cy="1193" r="5"/><circle cx="1217" cy="1173" r="5"/><circle cx="1329" cy="1195" r="4"/><circle cx="1436" cy="1183" r="6"/><circle cx="1480" cy="1184" r="6"/><circle cx="1545" cy="1183" r="4"/><circle cx="1622" cy="1127" r="4"/><circle cx="1721" cy="1198" r="4"/><circle cx="1810" cy="1156" r="4"/><circle cx="1885" cy="1200" r="5"/><circle cx="1937" cy="1195" r="6"/><circle cx="2059" cy="1186" r="5"/><circle cx="2121" cy="1167" r="6"/><circle cx="2173" cy="1127" r="4"/><circle cx="2304" cy="1197" r="4"/><circle cx="2325" cy="1169" r="5"/><circle cx="2465" cy="1122" r="4"/><circle cx="2506" cy="1196" r="5"/><circle cx="33" cy="1225" r="5"/><circle cx="110" cy="1216" r="6"/><circle cx="237" cy="1263" r="5"/><circle cx="276" cy="1215" r="6"/><circle cx="396" cy="1242" r="5"/><circle cx="418" cy="1274" r="6"/><circle cx="509" cy="1261" r="5"/><circle cx="564" cy="1212" r="5"/><circle cx="712" cy="1249" r="4"/><circle cx="788" cy="1256" r="4"/><circle cx="800" cy="1229" r="5"/><circle cx="915" cy="1225" r="4"/><circle cx="964" cy="1265" r="6"/><circle cx="1090" cy="1241" r="6"/><circle cx="1182" cy="1216" r="5"/><circle cx="1264" cy="1201" r="6"/><circle cx="1289" cy="1267" r="5"/><circle cx="1419" cy="1225" r="6"/><circle cx="1449" cy="1239" r="5"/><circle cx="1573" cy="1250" r="6"/><circle cx="1666" cy="1237" r="5"/><circle cx="1704" cy="1276" r="5"/><circle cx="1781" cy="1263" r="4"/><circle cx="1871" cy="1235" r="6"/><circle cx="1959" cy="1238" r="6"/><circle cx="2014" cy="1215" r="5"/><circle cx="2092" cy="1202" r="4"/><circle cx="2226" cy="1228" r="4"/><circle cx="2260" cy="1247" r="5"/><circle cx="2391" cy="1279" r="6"/><circle cx="2428" cy="1230" r="6"/><circle cx="2547" cy="1216" r="4"/><circle cx="48" cy="1339" r="5"/><circle cx="93" cy="1341" r="6"/><circle cx="235" cy="1350" r="5"/><circle cx="256" cy="1340" r="5"/><circle cx="354" cy="1357" r="6"/><circle cx="446" cy="1288" r="5"/><circle cx="492" cy="1323" r="5"/><circle cx="626" cy="1339" r="5"/><circle cx="692" cy="1338" r="5"/><circle cx="757" cy="1346" r="4"/><circle cx="849" cy="1307" r="4"/><circle cx="908" cy="1312" r="6"/><circle cx="1027" cy="1337" r="6"/><circle cx="1113" cy="1322" r="5"/><circle cx="1156" cy="1280" r="6"/><circle cx="1205" cy="1336" r="4"/><circle cx="1352" cy="1287" r="6"/><circle cx="1394" cy="1357" r="5"/><circle cx="1506" cy="1317" r="5"/><circle cx="1586" cy="1348" r="6"/><circle cx="1617" cy="1344" r="4"/><circle cx="1733" cy="1351" r="5"/><circle cx="1798" cy="1328" r="4"/><circle cx="1865" cy="1356" r="6"/><circle cx="1994" cy="1305" r="4"/><circle cx="2050" cy="1338" r="4"/><circle cx="2144" cy="1310" r="5"/><circle cx="2224" cy="1338" r="5"/><circle cx="2262" cy="1290" r="6"/><circle cx="2354" cy="1350" r="4"/><circle cx="2422" cy="1302" r="4"/><circle cx="2508" cy="1351" r="5"/><circle cx="59" cy="1407" r="5"/><circle cx="109" cy="1385" r="5"/><circle cx="212" cy="1379" r="5"/><circle cx="303" cy="1394" r="6"/><circle cx="355" cy="1428" r="5"/><circle cx="445" cy="1419" r="5"/><circle cx="531" cy="1405" r="5"/><circle cx="563" cy="1394" r="5"/><circle cx="646" cy="1422" r="5"/><circle cx="799" cy="1400" r="5"/><circle cx="872" cy="1440" r="4"/><circle cx="872" cy="-0" r="4"/><circle cx="928" cy="1388" r="5"/><circle cx="985" cy="1435" r="6"/><circle cx="985" cy="-5" r="6"/><circle cx="1054" cy="1424" r="6"/><circle cx="1124" cy="1371" r="5"/><circle cx="1268" cy="1401" r="4"/><circle cx="1305" cy="1421" r="5"/><circle cx="1438" cy="1424" r="6"/><circle cx="1448" cy="1415" r="6"/><circle cx="1536" cy="1384" r="4"/><circle cx="1672" cy="1409" r="5"/><circle cx="1748" cy="1414" r="6"/><circle cx="1775" cy="1364" r="5"/><circle cx="1900" cy="1415" r="5"/><circle cx="1944" cy="1400" r="5"/><circle cx="2025" cy="1415" r="4"/><circle cx="2126" cy="1423" r="5"/><circle cx="2182" cy="1408" r="4"/><circle cx="2266" cy="1366" r="5"/><circle cx="2372" cy="1402" r="6"/><circle cx="2467" cy="1379" r="5"/><circle cx="2524" cy="1410" r="6"/><path stroke="#fff" d="M22 71L91 76M22 71L-17 63M22 71L79 83M22 71L-2 110M2582 71L2543 63M2582 71L2558 110M91 76L171 33M91 76L79 83M91 76L158 112M91 76L-2 110M2651 76L2558 110M171 33L158 112M171 33L216 116M171 33L109 -55M171 33L212 -61M171 1473L109 1385M171 1473L212 1379M318 5L345 23M318 5L351 105M318 5L354 -83M318 5L303 -46M318 5L355 -12M318 1445L354 1357M318 1445L303 1394M318 1445L355 1428M345 23L351 105M345 23L355 -12M345 1463L355 1428M472 14L541 47M472 14L536 80M472 14L445 -21M472 14L531 -35M472 14L563 -46M472 1454L445 1419M472 1454L531 1405M472 1454L563 1394M541 47L624 57M541 47L536 80M541 47L531 -35M541 1487L531 1405M624 57L692 51M624 57L536 80M624 57L671 132M624 57L646 -18M624 1497L646 1422M692 51L733 64M692 51L671 132M692 51L646 -18M692 1491L646 1422M733 64L828 67M733 64L779 122M733 64L811 107M828 67L779 122M828 67L811 107M828 67L896 86M828 67L872 -0M828 1507L872 1440M919 30L963 76M919 30L896 86M919 30L872 -0M919 30L928 -52M919 30L985 -5M919 1470L872 1440M919 1470L928 1388M919 1470L985 1435M963 76L896 86M963 76L1062 105M963 76L1016 165M963 76L985 -5M963 1516L985 1435M1063 24L1142 11M1063 24L1062 105M1063 24L1128 85M1063 24L985 -5M1063 24L1054 -16M1063 1464L985 1435M1063 1464L1054 1424M1142 11L1205 5M1142 11L1128 85M1142 11L1054 -16M1142 11L1124 -69M1142 1451L1054 1424M1142 1451L1124 1371M1205 5L1236 107M1205 5L1268 -39M1205 5L1305 -19M1205 1445L1268 1401M1205 1445L1305 1421M1300 35L1236 107M1300 35L1342 105M1300 35L1268 -39M1300 35L1305 -19M1300 1475L1268 1401M1300 1475L1305 1421M1392 10L1471 20M1392 10L1440 93M1392 10L1305 -19M1392 10L1438 -16M1392 10L1448 -25M1392 1450L1305 1421M1392 1450L1438 1424M1392 1450L1448 1415M1471 20L1556 15M1471 20L1440 93M1471 20L1438 -16M1471 20L1448 -25M1471 1460L1438 1424M1471 1460L1448 1415M1556 15L1613 36M1556 15L1536 -56M1556 1455L1536 1384M1613 36L1666 130M1613 36L1672 -31M1613 1476L1672 1409M1715 17L1801 53M1715 17L1672 -31M1715 17L1748 -26M1715 1457L1672 1409M1715 1457L1748 1414M1801 53L1915 28M1801 53L1836 159M1801 53L1860 152M1801 53L1748 -26M1801 1493L1748 1414M1915 28L1997 51M1915 28L1900 -25M1915 28L1944 -40M1915 1468L1900 1415M1915 1468L1944 1400M1997 51L2016 33M1997 51L2042 92M1997 51L2025 -25M1997 1491L2025 1415M2016 33L2114 59M2016 33L2042 92M2016 33L1944 -40M2016 33L2025 -25M2016 1473L1944 1400M2016 1473L2025 1415M2114 59L2042 92M2114 59L2134 112M2114 59L2126 -17M2114 1499L2126 1423M2237 59L2267 29M2237 59L2183 152M2237 59L2310 115M2267 29L2310 115M2267 29L2182 -32M2267 1469L2182 1408M2366 74L2437 62M2366 74L2310 115M2366 74L2398 152M2366 74L2461 94M2366 74L2339 179M2437 62L2543 63M2437 62L2461 94M2543 63L2461 94M2543 63L2558 110M2543 63L2524 -30M2543 1503L2524 1410M79 83L158 112M79 83L-2 110M79 83L60 195M2639 83L2558 110M158 112L216 116M158 112L159 195M216 116L309 152M216 116L159 195M216 116L230 185M309 152L351 105M309 152L230 185M309 152L285 235M309 152L383 174M351 105L383 174M351 105L410 174M475 119L536 80M475 119L410 174M475 119L501 216M536 80L598 146M598 146L671 132M598 146L629 173M598 146L679 173M671 132L629 173M671 132L679 173M779 122L811 107M779 122L736 199M779 122L827 198M811 107L896 86M811 107L827 198M896 86L872 -0M896 1526L872 1440M1034 155L1062 105M1034 155L1128 85M1034 155L1016 165M1034 155L1079 216M1062 105L1128 85M1062 105L1016 165M1128 85L1236 107M1236 107L1342 105M1342 105L1372 110M1342 105L1440 93M1342 105L1321 182M1372 110L1440 93M1372 110L1321 182M1372 110L1396 210M1440 93L1438 -16M1440 1533L1438 1424M1595 150L1666 130M1595 150L1680 153M1595 150L1552 213M1595 150L1650 219M1595 150L1568 263M1666 130L1680 153M1666 130L1650 219M1666 130L1716 210M1680 153L1650 219M1680 153L1716 210M1836 159L1860 152M1836 159L1920 159M1836 159L1775 220M1836 159L1847 194M1860 152L1920 159M1860 152L1775 220M1860 152L1847 194M1920 159L1847 194M1920 159L1945 226M2042 92L2134 112M2042 92L2058 190M2134 112L2183 152M2134 112L2058 190M2134 112L2166 177M2183 152L2120 217M2183 152L2166 177M2183 152L2245 186M2310 115L2398 152M2310 115L2339 179M2398 152L2461 94M2398 152L2339 179M2398 152L2474 170M2461 94L2474 170M2558 110L2474 170M60 195L159 195M60 195L-59 215M60 195L43 271M60 195L134 267M2620 195L2501 215M159 195L230 185M159 195L134 267M230 185L285 235M230 185L283 265M285 235L283 265M285 235L371 280M285 235L282 334M383 174L410 174M383 174L371 280M383 174L410 252M410 174L501 216M410 174L410 252M501 216L410 252M501 216L551 273M501 216L584 251M629 173L679 173M629 173L584 251M679 173L736 199M679 173L676 278M736 199L827 198M736 199L676 278M736 199L740 288M827 198L924 236M827 198L829 276M924 236L894 318M1016 165L1079 216M1016 165L1025 261M1079 216L1025 261M1079 216L1165 258M1198 230L1218 239M1198 230L1165 258M1198 230L1235 252M1218 239L1165 258M1218 239L1235 252M1321 182L1396 210M1321 182L1235 252M1321 182L1341 294M1396 210L1457 212M1396 210L1341 294M1396 210L1394 312M1457 212L1552 213M1457 212L1498 258M1552 213L1498 258M1552 213L1568 263M1650 219L1716 210M1650 219L1642 304M1716 210L1775 220M1716 210L1781 256M1775 220L1847 194M1775 220L1781 256M1847 194L1878 265M1945 226L1878 265M1945 226L1962 283M1945 226L2001 295M2058 190L2120 217M2058 190L2166 177M2120 217L2166 177M2166 177L2245 186M2245 186L2339 179M2245 186L2236 261M2339 179L2342 303M2474 170L2501 215M2474 170L2486 268M2501 215L2603 271M2501 215L2442 291M2501 215L2486 268M-59 215L43 271M43 271L134 267M43 271L-14 345M2603 271L2546 345M134 267L181 298M181 298L114 370M181 298L232 353M181 298L282 334M283 265L371 280M283 265L232 353M283 265L282 334M371 280L410 252M371 280L342 378M410 252L458 361M551 273L584 251M551 273L542 355M551 273L579 380M584 251L676 278M584 251L542 355M676 278L740 288M676 278L708 330M740 288L708 330M740 288L788 354M829 276L894 318M829 276L788 354M829 276L808 352M829 276L895 367M894 318L808 352M894 318L895 367M894 318L1004 325M1025 261L1104 319M1025 261L1004 325M1025 261L1080 351M1104 319L1165 258M1104 319L1004 325M1104 319L1080 351M1165 258L1235 252M1235 252L1341 294M1341 294L1394 312M1341 294L1355 387M1394 312L1355 387M1394 312L1393 395M1498 258L1568 263M1568 263L1642 304M1568 263L1587 363M1642 304L1685 306M1642 304L1587 363M1642 304L1679 335M1685 306L1587 363M1685 306L1679 335M1685 306L1749 344M1781 256L1842 328M1878 265L1962 283M1878 265L1842 328M1878 265L1926 334M1962 283L2001 295M1962 283L1926 334M2001 295L2084 315M2001 295L1926 334M2001 295L2082 340M2084 315L2058 369M2084 315L2082 340M2084 315L2030 406M2084 315L2080 426M2236 261L2303 291M2303 291L2342 303M2303 291L2291 373M2303 291L2364 339M2342 303L2442 291M2342 303L2291 373M2342 303L2364 339M2442 291L2486 268M2442 291L2364 339M2442 291L2467 392M2486 268L2546 345M11 376L114 370M11 376L-14 345M11 376L66 413M11 376L-40 447M2571 376L2546 345M2571 376L2520 447M114 370L66 413M114 370L130 416M232 353L282 334M232 353L203 438M282 334L342 378M342 378L291 450M342 378L352 453M342 378L401 415M458 361L542 355M458 361L401 415M458 361L558 421M542 355L579 380M542 355L558 421M579 380L558 421M579 380L613 463M708 330L788 354M708 330L724 411M788 354L808 352M788 354L724 411M808 352L895 367M808 352L724 411M895 367L1004 325M895 367L881 456M1004 325L1080 351M1080 351L1148 400M1080 351L1075 421M1148 400L1207 371M1148 400L1075 421M1148 400L1157 435M1148 400L1227 448M1207 371L1157 435M1207 371L1227 448M1355 387L1393 395M1355 387L1447 395M1355 387L1433 408M1393 395L1447 395M1393 395L1433 408M1393 395L1458 404M1447 395L1433 408M1447 395L1458 404M1447 395L1553 403M1587 363L1679 335M1587 363L1553 403M1679 335L1749 344M1749 344L1842 328M1749 344L1737 446M1749 344L1788 420M1839 361L1842 328M1839 361L1788 420M1839 361L1843 429M1842 328L1926 334M1926 334L1962 426M2058 369L2082 340M2058 369L1962 426M2058 369L2030 406M2058 369L2080 426M2082 340L2030 406M2082 340L2080 426M2193 381L2291 373M2193 381L2080 426M2193 381L2220 463M2193 381L2252 429M2291 373L2364 339M2291 373L2252 429M2467 392L2546 345M2467 392L2396 449M2467 392L2463 419M2467 392L2520 447M2546 345L2626 413M-14 345L66 413M66 413L130 416M66 413L34 516M130 416L203 438M130 416L153 486M130 416L211 522M203 438L291 450M203 438L153 486M203 438L211 522M291 450L352 453M291 450L401 415M291 450L296 497M352 453L401 415M352 453L296 497M352 453L367 556M558 421L613 463M558 421L610 497M613 463L700 453M613 463L559 548M613 463L610 497M700 453L724 411M700 453L813 474M700 453L610 497M700 453L713 528M724 411L813 474M813 474L881 456M813 474L792 518M813 474L832 552M881 456L986 462M881 456L942 518M986 462L1075 421M986 462L942 518M986 462L994 513M1075 421L1157 435M1157 435L1227 448M1157 435L1155 533M1227 448L1299 477M1227 448L1263 532M1299 477L1263 532M1299 477L1313 512M1433 408L1458 404M1433 408L1489 508M1458 404L1553 403M1458 404L1489 508M1553 403L1671 463M1671 463L1737 446M1671 463L1674 520M1671 463L1700 572M1737 446L1788 420M1737 446L1674 520M1737 446L1760 539M1788 420L1843 429M1843 429L1962 426M1843 429L1837 512M1962 426L2030 406M1962 426L1955 536M2030 406L2080 426M2220 463L2252 429M2220 463L2157 544M2220 463L2267 555M2396 449L2463 419M2396 449L2375 499M2396 449L2433 515M2463 419L2520 447M2520 447L2527 522M34 516L-33 522M2594 516L2527 522M153 486L211 522M211 522L296 497M211 522L187 609M296 497L367 556M367 556L315 613M367 556L388 614M367 556L418 618M461 546L559 548M461 546L418 618M461 546L500 588M559 548L610 497M559 548L500 588M559 548L630 608M713 528L792 518M713 528L724 581M792 518L832 552M792 518L724 581M792 518L878 567M832 552L878 567M832 552L896 629M942 518L994 513M942 518L878 567M994 513L1097 537M994 513L1025 588M1097 537L1155 533M1097 537L1025 588M1097 537L1109 634M1097 537L1144 590M1155 533L1263 532M1155 533L1144 590M1263 532L1313 512M1313 512L1384 559M1384 559L1323 621M1384 559L1392 631M1384 559L1461 591M1384 559L1391 650M1489 508L1534 544M1489 508L1461 591M1489 508L1563 566M1534 544L1461 591M1534 544L1563 566M1674 520L1760 539M1674 520L1563 566M1674 520L1700 572M1760 539L1837 512M1760 539L1700 572M1760 539L1803 600M1837 512L1896 560M1837 512L1803 600M1837 512L1857 593M1896 560L1955 536M1896 560L1857 593M1896 560L1967 569M1955 536L2018 558M1955 536L1967 569M1955 536L2027 609M2018 558L1967 569M2018 558L2027 609M2018 558L2035 671M2157 544L2168 559M2157 544L2119 614M2157 544L2200 590M2157 544L2258 593M2168 559L2267 555M2168 559L2119 614M2168 559L2200 590M2168 559L2258 593M2267 555L2200 590M2267 555L2258 593M2375 499L2433 515M2375 499L2467 560M2433 515L2527 522M2433 515L2467 560M2433 515L2480 604M2527 522L2467 560M2527 522L2480 604M54 631L116 608M54 631L30 703M54 631L93 647M54 631L-27 640M54 631L25 723M2614 631L2533 640M116 608L187 609M116 608L93 647M116 608L200 669M187 609L93 647M187 609L200 669M315 613L388 614M315 613L297 702M315 613L335 657M388 614L418 618M388 614L335 657M388 614L435 679M418 618L335 657M418 618L435 679M500 588L500 671M500 588L571 662M630 608L708 635M630 608L724 581M630 608L571 662M630 608L684 696M708 635L724 581M708 635L684 696M708 635L748 691M708 635L811 663M878 567L896 629M878 567L811 663M896 629L811 663M896 629L936 665M896 629L1004 643M1025 588L936 665M1025 588L1004 643M1109 634L1144 590M1109 634L1004 643M1109 634L1109 705M1109 634L1161 699M1144 590L1211 626M1144 590L1221 655M1211 626L1161 699M1211 626L1221 655M1323 621L1392 631M1323 621L1221 655M1323 621L1343 651M1323 621L1391 650M1392 631L1461 591M1392 631L1343 651M1392 631L1391 650M1461 591L1490 641M1563 566L1619 637M1563 566L1490 641M1619 637L1700 572M1619 637L1647 670M1619 637L1710 661M1700 572L1710 661M1803 600L1857 593M1803 600L1809 641M1803 600L1853 672M1857 593L1809 641M1857 593L1853 672M1967 569L2027 609M2027 609L2035 671M2119 614L2200 590M2119 614L2144 666M2119 614L2161 669M2200 590L2258 593M2258 593L2312 685M2379 633L2312 685M2379 633L2328 683M2467 560L2480 604M2467 560L2533 640M2480 604L2466 697M2480 604L2533 640M30 703L93 647M30 703L-27 640M30 703L25 723M30 703L-44 775M2590 703L2533 640M2590 703L2516 775M200 669L297 702M200 669L185 739M200 669L252 754M297 702L335 657M297 702L252 754M297 702L336 735M335 657L336 735M435 679L500 671M435 679L441 752M500 671L571 662M500 671L441 752M500 671L510 744M571 662L593 749M684 696L748 691M684 696L691 746M684 696L726 758M748 691L811 663M748 691L691 746M748 691L726 758M811 663L936 665M936 665L1004 643M936 665L1009 743M1004 643L1009 743M1109 705L1161 699M1109 705L1133 784M1161 699L1221 655M1161 699L1133 784M1221 655L1270 734M1343 651L1391 650M1343 651L1270 734M1391 650L1490 641M1490 641L1524 713M1490 641L1553 724M1524 713L1484 770M1524 713L1553 724M1647 670L1710 661M1647 670L1553 724M1647 670L1636 752M1710 661L1809 641M1710 661L1636 752M1809 641L1853 672M1853 672L1920 754M1951 710L2035 671M1951 710L1920 754M1951 710L1943 785M2035 671L2144 666M2144 666L2161 669M2144 666L2174 778M2161 669L2174 778M2312 685L2328 683M2312 685L2290 786M2312 685L2387 749M2328 683L2290 786M2328 683L2387 749M2328 683L2409 743M2466 697L2533 640M2466 697L2387 749M2466 697L2409 743M2466 697L2516 775M25 723L-44 775M25 723L-45 805M2585 723L2516 775M2585 723L2515 805M133 762L185 739M133 762L69 847M133 762L98 824M133 762L202 864M185 739L252 754M185 739L98 824M252 754L336 735M252 754L202 864M336 735L441 752M336 735L377 808M441 752L510 744M441 752L377 808M510 744L593 749M510 744L549 816M510 744L583 805M593 749L691 746M593 749L549 816M593 749L583 805M691 746L726 758M691 746L686 819M726 758L800 790M726 758L686 819M800 790L762 838M800 790L820 827M919 782L820 827M919 782L885 878M919 782L1002 813M1009 743L1063 792M1009 743L1002 813M1009 743L1079 811M1063 792L1133 784M1063 792L1002 813M1063 792L1079 811M1063 792L1073 881M1133 784L1079 811M1133 784L1179 866M1270 734L1304 776M1270 734L1242 809M1270 734L1286 821M1304 776L1396 787M1304 776L1242 809M1304 776L1286 821M1304 776L1382 842M1396 787L1484 770M1396 787L1382 842M1396 787L1488 840M1396 787L1353 903M1484 770L1553 724M1484 770L1488 840M1553 724L1636 752M1636 752L1711 791M1636 752L1715 806M1711 791L1784 795M1711 791L1715 806M1711 791L1708 881M1784 795L1715 806M1784 795L1820 876M1784 795L1708 881M1784 795L1787 888M1920 754L1943 785M1920 754L1936 812M1943 785L2015 797M1943 785L1936 812M2015 797L2103 792M2015 797L1936 812M2015 797L2049 831M2015 797L2084 831M2103 792L2174 778M2103 792L2049 831M2103 792L2084 831M2174 778L2225 849M2290 786L2225 849M2290 786L2297 834M2387 749L2409 743M2516 775L2515 805M69 847L98 824M69 847L26 912M69 847L84 935M98 824L202 864M202 864L292 868M202 864L180 928M292 868L377 808M292 868L315 903M292 868L363 925M377 808L406 853M406 853L419 915M549 816L583 805M549 816L518 924M583 805L686 819M686 819L762 838M686 819L738 892M762 838L820 827M762 838L738 892M820 827L885 878M820 827L738 892M885 878L838 957M885 878L937 901M1002 813L1079 811M1002 813L1073 881M1079 811L1073 881M1179 866L1242 809M1179 866L1146 913M1179 866L1203 921M1242 809L1286 821M1242 809L1203 921M1286 821L1353 903M1382 842L1488 840M1382 842L1353 903M1382 842L1387 916M1488 840L1553 847M1553 847L1610 867M1553 847L1519 944M1553 847L1607 935M1610 867L1607 935M1610 867L1708 881M1715 806L1708 881M1820 876L1880 870M1820 876L1787 888M1820 876L1891 892M1820 876L1866 974M1880 870L1936 812M1880 870L1891 892M1936 812L1891 892M2049 831L2084 831M2049 831L2072 913M2049 831L2083 922M2084 831L2072 913M2084 831L2083 922M2225 849L2297 834M2225 849L2236 901M2225 849L2285 883M2297 834L2376 863M2297 834L2236 901M2297 834L2285 883M2376 863L2436 866M2376 863L2285 883M2376 863L2370 907M2376 863L2412 956M2436 866L2515 805M2436 866L2370 907M2436 866L2412 956M2436 866L2486 956M26 912L84 935M84 935L180 928M84 935L54 1028M84 935L168 1001M180 928L168 1001M180 928L281 992M315 903L363 925M315 903L281 992M315 903L340 979M363 925L419 915M363 925L340 979M363 925L417 988M419 915L518 924M419 915L340 979M419 915L417 988M518 924L593 939M518 924L505 1030M593 939L626 1004M713 937L738 892M713 937L687 973M738 892L687 973M838 957L937 901M838 957L809 1001M838 957L897 1002M937 901L1019 943M1019 943L1073 881M1019 943L1016 1028M1019 943L1084 1003M1019 943L992 1057M1073 881L1146 913M1146 913L1203 921M1146 913L1140 983M1203 921L1140 983M1203 921L1283 976M1353 903L1387 916M1353 903L1283 976M1387 916L1283 976M1387 916L1412 1017M1519 944L1570 952M1519 944L1607 935M1519 944L1511 1032M1519 944L1521 1010M1570 952L1607 935M1570 952L1521 1010M1570 952L1544 1051M1607 935L1660 1028M1708 881L1787 888M1787 888L1814 985M1891 892L1956 950M1891 892L1866 974M1956 950L1866 974M1956 950L1936 974M1956 950L2049 978M2072 913L2083 922M2072 913L2049 978M2072 913L2118 987M2083 922L2049 978M2083 922L2118 987M2236 901L2285 883M2236 901L2216 979M2285 883L2370 907M2370 907L2412 956M2370 907L2385 1005M2412 956L2486 956M2412 956L2385 1005M2486 956L2472 1040M2486 956L2494 988M54 1028L116 1039M54 1028L14 1105M54 1028L103 1087M116 1039L168 1001M116 1039L103 1087M116 1039L163 1062M168 1001L281 992M168 1001L163 1062M281 992L340 979M281 992L290 1089M340 979L417 988M417 988L391 1068M417 988L455 1050M505 1030L455 1050M505 1030L534 1093M505 1030L560 1104M626 1004L687 973M687 973L728 1039M687 973L747 1046M728 1039L809 1001M728 1039L671 1113M728 1039L747 1046M809 1001L897 1002M809 1001L747 1046M809 1001L823 1081M897 1002L906 1082M897 1002L992 1057M1016 1028L1084 1003M1016 1028L992 1057M1016 1028L1075 1109M1084 1003L1140 983M1140 983L1253 1032M1253 1032L1283 976M1253 1032L1250 1087M1253 1032L1282 1043M1283 976L1282 1043M1412 1017L1434 1079M1511 1032L1521 1010M1511 1032L1434 1079M1511 1032L1460 1114M1511 1032L1544 1051M1521 1010L1434 1079M1521 1010L1544 1051M1660 1028L1711 1036M1660 1028L1658 1058M1660 1028L1694 1060M1711 1036L1814 985M1711 1036L1658 1058M1711 1036L1694 1060M1711 1036L1769 1096M1814 985L1866 974M1814 985L1936 974M1814 985L1769 1096M1866 974L1936 974M1936 974L2002 1063M2049 978L2118 987M2049 978L2002 1063M2118 987L2216 979M2118 987L2153 1067M2216 979L2281 1026M2216 979L2153 1067M2216 979L2185 1099M2281 1026L2185 1099M2281 1026L2300 1096M2281 1026L2342 1071M2385 1005L2342 1071M2385 1005L2408 1062M2472 1040L2494 988M2472 1040L2408 1062M2472 1040L2524 1091M2472 1040L2465 1122M14 1105L103 1087M14 1105L-36 1091M14 1105L59 1156M2574 1105L2524 1091M103 1087L163 1062M103 1087L59 1156M290 1089L391 1068M290 1089L290 1139M391 1068L455 1050M391 1068L410 1148M455 1050L534 1093M455 1050L410 1148M534 1093L560 1104M534 1093L531 1145M560 1104L531 1145M560 1104L603 1160M560 1104L564 1212M671 1113L603 1160M671 1113L690 1152M671 1113L746 1133M747 1046L823 1081M747 1046L746 1133M823 1081L906 1082M823 1081L746 1133M823 1081L829 1141M906 1082L992 1057M906 1082L829 1141M906 1082L934 1146M992 1057L1075 1109M1075 1109L1180 1111M1075 1109L1017 1177M1075 1109L1116 1121M1180 1111L1250 1087M1180 1111L1116 1121M1180 1111L1164 1193M1180 1111L1217 1173M1250 1087L1282 1043M1250 1087L1217 1173M1434 1079L1460 1114M1434 1079L1436 1183M1460 1114L1544 1051M1460 1114L1436 1183M1460 1114L1480 1184M1544 1051L1658 1058M1658 1058L1694 1060M1658 1058L1622 1127M1694 1060L1769 1096M1694 1060L1622 1127M1769 1096L1868 1092M1769 1096L1810 1156M1868 1092L1964 1106M1868 1092L1810 1156M1868 1092L1885 1200M1964 1106L2002 1063M1964 1106L1937 1195M2153 1067L2185 1099M2153 1067L2121 1167M2153 1067L2173 1127M2185 1099L2121 1167M2185 1099L2173 1127M2300 1096L2342 1071M2300 1096L2304 1197M2300 1096L2325 1169M2342 1071L2408 1062M2342 1071L2325 1169M2408 1062L2465 1122M2524 1091L2465 1122M2524 1091L2506 1196M59 1156L99 1197M59 1156L33 1225M59 1156L110 1216M99 1197L198 1196M99 1197L33 1225M99 1197L110 1216M99 1197L-13 1216M2659 1197L2547 1216M198 1196L290 1139M198 1196L110 1216M198 1196L237 1263M198 1196L276 1215M290 1139L370 1196M290 1139L410 1148M290 1139L276 1215M370 1196L410 1148M370 1196L276 1215M370 1196L396 1242M370 1196L418 1274M410 1148L396 1242M531 1145L603 1160M531 1145L509 1261M531 1145L564 1212M603 1160L690 1152M603 1160L564 1212M690 1152L746 1133M690 1152L712 1249M746 1133L829 1141M829 1141L934 1146M829 1141L800 1229M934 1146L1017 1177M934 1146L915 1225M1017 1177L964 1265M1017 1177L1090 1241M1164 1193L1217 1173M1164 1193L1090 1241M1164 1193L1182 1216M1164 1193L1156 1280M1217 1173L1182 1216M1217 1173L1264 1201M1329 1195L1264 1201M1329 1195L1289 1267M1329 1195L1419 1225M1329 1195L1352 1287M1436 1183L1480 1184M1436 1183L1419 1225M1436 1183L1449 1239M1480 1184L1545 1183M1480 1184L1419 1225M1480 1184L1449 1239M1545 1183L1622 1127M1545 1183L1573 1250M1622 1127L1666 1237M1721 1198L1810 1156M1721 1198L1666 1237M1721 1198L1704 1276M1721 1198L1781 1263M1810 1156L1885 1200M1810 1156L1871 1235M1885 1200L1937 1195M1885 1200L1871 1235M1885 1200L1959 1238M1937 1195L1871 1235M1937 1195L1959 1238M1937 1195L2014 1215M2059 1186L2121 1167M2059 1186L2014 1215M2059 1186L2092 1202M2121 1167L2173 1127M2121 1167L2092 1202M2173 1127L2092 1202M2304 1197L2325 1169M2304 1197L2226 1228M2304 1197L2260 1247M2304 1197L2262 1290M2325 1169L2260 1247M2325 1169L2428 1230M2465 1122L2506 1196M2465 1122L2428 1230M2506 1196L2593 1225M2506 1196L2428 1230M2506 1196L2547 1216M-54 1196L33 1225M33 1225L110 1216M33 1225L-13 1216M2593 1225L2547 1216M110 1216L93 1341M237 1263L276 1215M237 1263L235 1350M237 1263L256 1340M276 1215L396 1242M396 1242L418 1274M396 1242L446 1288M418 1274L509 1261M418 1274L446 1288M418 1274L492 1323M509 1261L564 1212M509 1261L446 1288M509 1261L492 1323M712 1249L788 1256M712 1249L800 1229M712 1249L692 1338M712 1249L757 1346M788 1256L800 1229M788 1256L757 1346M788 1256L849 1307M800 1229L915 1225M800 1229L849 1307M915 1225L964 1265M915 1225L908 1312M964 1265L908 1312M964 1265L1027 1337M1090 1241L1182 1216M1090 1241L1113 1322M1090 1241L1156 1280M1182 1216L1264 1201M1182 1216L1156 1280M1264 1201L1289 1267M1289 1267L1205 1336M1289 1267L1352 1287M1419 1225L1449 1239M1419 1225L1352 1287M1449 1239L1352 1287M1449 1239L1506 1317M1573 1250L1666 1237M1573 1250L1506 1317M1573 1250L1586 1348M1573 1250L1617 1344M1666 1237L1704 1276M1704 1276L1781 1263M1704 1276L1733 1351M1781 1263L1871 1235M1781 1263L1798 1328M1781 1263L1775 1364M1871 1235L1959 1238M1959 1238L2014 1215M1959 1238L1994 1305M2014 1215L2092 1202M2014 1215L1994 1305M2226 1228L2260 1247M2226 1228L2262 1290M2260 1247L2224 1338M2260 1247L2262 1290M2391 1279L2428 1230M2391 1279L2354 1350M2391 1279L2422 1302M2391 1279L2372 1402M2428 1230L2422 1302M48 1339L93 1341M48 1339L-52 1351M48 1339L59 1407M48 1339L109 1385M48 1339L-36 1410M2608 1339L2508 1351M2608 1339L2524 1410M93 1341L59 1407M93 1341L109 1385M235 1350L256 1340M235 1350L212 1379M235 1350L303 1394M256 1340L354 1357M256 1340L212 1379M256 1340L303 1394M354 1357L303 1394M354 1357L355 1428M354 1357L445 1419M446 1288L492 1323M492 1323L531 1405M492 1323L563 1394M626 1339L692 1338M626 1339L563 1394M626 1339L646 1422M692 1338L757 1346M692 1338L646 1422M692 1338L799 1400M757 1346L849 1307M757 1346L799 1400M849 1307L908 1312M849 1307L799 1400M908 1312L928 1388M1027 1337L1113 1322M1027 1337L1054 1424M1027 1337L1124 1371M1113 1322L1156 1280M1113 1322L1205 1336M1113 1322L1124 1371M1156 1280L1205 1336M1205 1336L1124 1371M1205 1336L1268 1401M1352 1287L1394 1357M1394 1357L1305 1421M1394 1357L1438 1424M1394 1357L1448 1415M1506 1317L1586 1348M1506 1317L1536 1384M1586 1348L1617 1344M1586 1348L1536 1384M1617 1344L1536 1384M1617 1344L1672 1409M1733 1351L1798 1328M1733 1351L1672 1409M1733 1351L1748 1414M1733 1351L1775 1364M1798 1328L1865 1356M1798 1328L1775 1364M1865 1356L1775 1364M1865 1356L1900 1415M1865 1356L1944 1400M1994 1305L2050 1338M2050 1338L2144 1310M2050 1338L2025 1415M2050 1338L2126 1423M2144 1310L2224 1338M2144 1310L2126 1423M2144 1310L2182 1408M2224 1338L2262 1290M2224 1338L2182 1408M2224 1338L2266 1366M2262 1290L2266 1366M2354 1350L2422 1302M2354 1350L2266 1366M2354 1350L2372 1402M2354 1350L2467 1379M2422 1302L2508 1351M2422 1302L2467 1379M2508 1351L2619 1407M2508 1351L2467 1379M2508 1351L2524 1410M-52 1351L59 1407M59 1407L109 1385M59 1407L-36 1410M2619 1407L2524 1410M109 1385L212 1379M303 1394L355 1428M355 1428L445 1419M445 1419L531 1405M531 1405L563 1394M563 1394L646 1422M799 1400L872 1440M872 1440L928 1388M928 1388L985 1435M985 1435L1054 1424M1054 1424L1124 1371M1268 1401L1305 1421M1438 1424L1448 1415M1448 1415L1536 1384M1672 1409L1748 1414M1748 1414L1775 1364M1900 1415L1944 1400M1944 1400L2025 1415M2025 1415L2126 1423M2126 1423L2182 1408M2182 1408L2266 1366M2266 1366L2372 1402M2372 1402L2467 1379M2467 1379L2524 1410"/></svg>