<svg xmlns="http://www.w3.org/2000/svg" width="2560" height="1440" fill="#fff"><circle cx="21" cy="55" r="5"/><circle cx="113" cy="67" r="4"/><circle cx="210" cy="40" r="5"/><circle cx="294" cy="17" r="5"/><circle cx="358" cy="13" r="6"/><circle cx="477" cy="64" r="5"/><circle cx="522" cy="18" r="6"/><circle cx="590" cy="65" r="5"/><circle cx="690" cy="38" r="5"/><circle cx="745" cy="63" r="5"/><circle cx="814" cy="20" r="4"/><circle cx="915" cy="41" r="5"/><circle cx="1018" cy="63" r="4"/><circle cx="1082" cy="32" r="5"/><circle cx="1160" cy="32" r="5"/><circle cx="1204" cy="21" r="5"/><circle cx="1305" cy="62" r="6"/><circle cx="1388" cy="22" r="5"/><circle cx="1456" cy="11" r="5"/><circle cx="1547" cy="40" r="5"/><circle cx="1664" cy="50" r="5"/><circle cx="1692" cy="44" r="5"/><circle cx="1814" cy="50" r="5"/><circle cx="1868" cy="26" r="5"/><circle cx="1955" cy="60" r="6"/><circle cx="2014" cy="29" r="5"/><circle cx="2147" cy="7" r="5"/><circle cx="2232" cy="45" r="6"/><circle cx="2268" cy="55" r="4"/><circle cx="2376" cy="48" r="6"/><circle cx="2435" cy="18" r="4"/><circle cx="2540" cy="29" r="5"/><circle cx="41" cy="120" r="6"/><circle cx="107" cy="158" r="5"/><circle cx="162" cy="154" r="5"/><circle cx="267" cy="88" r="6"/><circle cx="333" cy="123" r="5"/><circle cx="455" cy="113" r="4"/><circle cx="502" cy="133" r="5"/><circle cx="569" cy="116" r="6"/><circle cx="702" cy="129" r="5"/><circle cx="788" cy="104" r="6"/><circle cx="800" cy="133" r="6"/><circle cx="883" cy="100" r="5"/><circle cx="988" cy="105" r="5"/><circle cx="1064" cy="82" r="6"/><circle cx="1143" cy="110" r="5"/><circle cx="1276" cy="155" r="5"/><circle cx="1327" cy="96" r="6"/><circle cx="1422" cy="154" r="5"/><circle cx="1503" cy="101" r="5"/><circle cx="1567" cy="99" r="6"/><circle cx="1619" cy="148" r="5"/><circle cx="1698" cy="86" r="5"/><circle cx="1768" cy="154" r="4"/><circle cx="1866" cy="103" r="5"/><circle cx="1952" cy="140" r="6"/><circle cx="2007" cy="107" r="5"/><circle cx="2154" cy="85" r="6"/><circle cx="2239" cy="143" r="5"/><circle cx="2277" cy="112" r="6"/><circle cx="2365" cy="90" r="5"/><circle cx="2422" cy="119" r="5"/><circle cx="2515" cy="128" r="5"/><circle cx="11" cy="175" r="6"/><circle cx="105" cy="193" r="5"/><circle cx="205" cy="220" r="5"/><circle cx="314" cy="168" r="5"/><circle cx="381" cy="173" r="5"/><circle cx="460" cy="237" r="5"/><circle cx="524" cy="231" r="5"/><circle cx="590" cy="169" r="5"/><circle cx="666" cy="200" r="4"/><circle cx="736" cy="228" r="5"/><circle cx="853" cy="183" r="4"/><circle cx="907" cy="195" r="6"/><circle cx="995" cy="173" r="6"/><circle cx="1113" cy="217" r="5"/><circle cx="1156" cy="227" r="5"/><circle cx="1222" cy="238" r="6"/><circle cx="1322" cy="204" r="5"/><circle cx="1365" cy="213" r="4"/><circle cx="1489" cy="191" r="6"/><circle cx="1575" cy="236" r="4"/><circle cx="1675" cy="218" r="5"/><circle cx="1734" cy="207" r="5"/><circle cx="1802" cy="217" r="5"/><circle cx="1888" cy="196" r="5"/><circle cx="1961" cy="171" r="6"/><circle cx="2055" cy="236" r="4"/><circle cx="2144" cy="225" r="4"/><circle cx="2186" cy="214" r="5"/><circle cx="2312" cy="184" r="5"/><circle cx="2350" cy="177" r="5"/><circle cx="2459" cy="238" r="5"/><circle cx="2501" cy="185" r="6"/><circle cx="61" cy="293" r="6"/><circle cx="102" cy="275" r="4"/><circle cx="231" cy="313" r="6"/><circle cx="246" cy="303" r="4"/><circle cx="370" cy="310" r="6"/><circle cx="428" cy="252" r="4"/><circle cx="495" cy="277" r="5"/><circle cx="565" cy="292" r="4"/><circle cx="682" cy="283" r="6"/><circle cx="790" cy="241" r="6"/><circle cx="850" cy="308" r="5"/><circle cx="901" cy="260" r="5"/><circle cx="993" cy="304" r="6"/><circle cx="1095" cy="281" r="4"/><circle cx="1165" cy="242" r="5"/><circle cx="1220" cy="278" r="4"/><circle cx="1348" cy="260" r="5"/><circle cx="1411" cy="294" r="4"/><circle cx="1495" cy="255" r="5"/><circle cx="1533" cy="283" r="6"/><circle cx="1669" cy="315" r="6"/><circle cx="1759" cy="261" r="4"/><circle cx="1770" cy="310" r="4"/><circle cx="1904" cy="257" r="5"/><circle cx="1943" cy="260" r="5"/><circle cx="2067" cy="299" r="5"/><circle cx="2149" cy="258" r="5"/><circle cx="2177" cy="319" r="5"/><circle cx="2314" cy="296" r="4"/><circle cx="2400" cy="318" r="5"/><circle cx="2465" cy="286" r="6"/><circle cx="2491" cy="300" r="5"/><circle cx="16" cy="358" r="5"/><circle cx="85" cy="363" r="5"/><circle cx="186" cy="363" r="4"/><circle cx="264" cy="376" r="6"/><circle cx="375" cy="347" r="5"/><circle cx="442" cy="337" r="5"/><circle cx="504" cy="343" r="4"/><circle cx="629" cy="342" r="5"/><circle cx="667" cy="336" r="4"/><circle cx="782" cy="338" r="4"/><circle cx="851" cy="399" r="6"/><circle cx="886" cy="348" r="5"/><circle cx="1026" cy="364" r="5"/><circle cx="1065" cy="358" r="6"/><circle cx="1178" cy="383" r="6"/><circle cx="1217" cy="334" r="6"/><circle cx="1347" cy="365" r="4"/><circle cx="1381" cy="400" r="4"/><circle cx="1494" cy="391" r="5"/><circle cx="1597" cy="329" r="4"/><circle cx="1662" cy="374" r="4"/><circle cx="1681" cy="375" r="5"/><circle cx="1800" cy="353" r="6"/><circle cx="1871" cy="323" r="5"/><circle cx="1928" cy="377" r="5"/><circle cx="2030" cy="355" r="6"/><circle cx="2100" cy="353" r="5"/><circle cx="2165" cy="373" r="5"/><circle cx="2305" cy="327" r="5"/><circle cx="2328" cy="325" r="6"/><circle cx="2411" cy="351" r="5"/><circle cx="2550" cy="372" r="4"/><circle cx="39" cy="425" r="5"/><circle cx="86" cy="451" r="5"/><circle cx="175" cy="466" r="5"/><circle cx="255" cy="446" r="4"/><circle cx="369" cy="464" r="4"/><circle cx="429" cy="406" r="4"/><circle cx="557" cy="473" r="6"/><circle cx="567" cy="422" r="4"/><circle cx="710" cy="438" r="6"/><circle cx="730" cy="419" r="4"/><circle cx="850" cy="462" r="6"/><circle cx="897" cy="430" r="5"/><circle cx="1015" cy="437" r="5"/><circle cx="1073" cy="410" r="6"/><circle cx="1179" cy="401" r="4"/><circle cx="1208" cy="434" r="4"/><circle cx="1288" cy="465" r="4"/><circle cx="1402" cy="416" r="6"/><circle cx="1477" cy="456" r="5"/><circle cx="1558" cy="461" r="6"/><circle cx="1644" cy="413" r="5"/><circle cx="1746" cy="441" r="6"/><circle cx="1763" cy="418" r="5"/><circle cx="1869" cy="471" r="4"/><circle cx="1943" cy="477" r="4"/><circle cx="2063" cy="437" r="5"/><circle cx="2111" cy="466" r="5"/><circle cx="2160" cy="464" r="4"/><circle cx="2302" cy="456" r="5"/><circle cx="2324" cy="433" r="5"/><circle cx="2401" cy="415" r="4"/><circle cx="2501" cy="408" r="5"/><circle cx="57" cy="547" r="4"/><circle cx="134" cy="553" r="4"/><circle cx="212" cy="533" r="5"/><circle cx="296" cy="484" r="5"/><circle cx="361" cy="484" r="5"/><circle cx="450" cy="516" r="6"/><circle cx="492" cy="496" r="5"/><circle cx="598" cy="526" r="5"/><circle cx="666" cy="543" r="4"/><circle cx="737" cy="486" r="4"/><circle cx="857" cy="509" r="5"/><circle cx="953" cy="542" r="6"/><circle cx="1021" cy="516" r="4"/><circle cx="1114" cy="508" r="4"/><circle cx="1133" cy="533" r="6"/><circle cx="1209" cy="552" r="6"/><circle cx="1308" cy="518" r="6"/><circle cx="1381" cy="498" r="6"/><circle cx="1476" cy="492" r="5"/><circle cx="1536" cy="511" r="6"/><circle cx="1647" cy="559" r="5"/><circle cx="1699" cy="543" r="5"/><circle cx="1827" cy="502" r="5"/><circle cx="1859" cy="516" r="4"/><circle cx="1963" cy="533" r="5"/><circle cx="2047" cy="550" r="4"/><circle cx="2087" cy="495" r="5"/><circle cx="2186" cy="511" r="5"/><circle cx="2309" cy="501" r="6"/><circle cx="2327" cy="560" r="6"/><circle cx="2441" cy="512" r="5"/><circle cx="2529" cy="540" r="4"/><circle cx="26" cy="579" r="6"/><circle cx="156" cy="640" r="4"/><circle cx="212" cy="632" r="6"/><circle cx="253" cy="588" r="6"/><circle cx="392" cy="621" r="4"/><circle cx="443" cy="579" r="4"/><circle cx="526" cy="632" r="6"/><circle cx="604" cy="603" r="6"/><circle cx="697" cy="585" r="4"/><circle cx="755" cy="605" r="5"/><circle cx="858" cy="589" r="5"/><circle cx="917" cy="605" r="5"/><circle cx="1032" cy="611" r="4"/><circle cx="1114" cy="596" r="6"/><circle cx="1165" cy="586" r="6"/><circle cx="1244" cy="583" r="4"/><circle cx="1317" cy="633" r="5"/><circle cx="1397" cy="589" r="4"/><circle cx="1470" cy="588" r="5"/><circle cx="1569" cy="574" r="5"/><circle cx="1602" cy="596" r="5"/><circle cx="1717" cy="573" r="4"/><circle cx="1831" cy="561" r="5"/><circle cx="1841" cy="636" r="5"/><circle cx="1984" cy="566" r="5"/><circle cx="2023" cy="583" r="5"/><circle cx="2086" cy="603" r="5"/><circle cx="2217" cy="562" r="5"/><circle cx="2267" cy="596" r="5"/><circle cx="2323" cy="587" r="5"/><circle cx="2471" cy="626" r="4"/><circle cx="2556" cy="574" r="5"/><circle cx="-4" cy="574" r="5"/><circle cx="22" cy="661" r="5"/><circle cx="133" cy="665" r="4"/><circle cx="182" cy="646" r="5"/><circle cx="317" cy="695" r="5"/><circle cx="332" cy="686" r="5"/><circle cx="470" cy="697" r="5"/><circle cx="545" cy="701" r="4"/><circle cx="616" cy="672" r="6"/><circle cx="657" cy="659" r="6"/><circle cx="772" cy="652" r="4"/><circle cx="809" cy="677" r="4"/><circle cx="949" cy="712" r="5"/><circle cx="972" cy="702" r="6"/><circle cx="1113" cy="695" r="5"/><circle cx="1145" cy="649" r="6"/><circle cx="1230" cy="710" r="4"/><circle cx="1326" cy="691" r="5"/><circle cx="1427" cy="684" r="4"/><circle cx="1515" cy="720" r="6"/><circle cx="1520" cy="691" r="5"/><circle cx="1648" cy="657" r="4"/><circle cx="1743" cy="666" r="5"/><circle cx="1816" cy="717" r="5"/><circle cx="1844" cy="674" r="5"/><circle cx="1977" cy="705" r="4"/><circle cx="2022" cy="676" r="6"/><circle cx="2147" cy="654" r="6"/><circle cx="2161" cy="673" r="6"/><circle cx="2300" cy="661" r="5"/><circle cx="2389" cy="715" r="5"/><circle cx="2470" cy="650" r="6"/><circle cx="2511" cy="669" r="4"/><circle cx="22" cy="735" r="6"/><circle cx="148" cy="781" r="4"/><circle cx="239" cy="727" r="6"/><circle cx="259" cy="741" r="5"/><circle cx="328" cy="752" r="5"/><circle cx="436" cy="758" r="6"/><circle cx="554" cy="773" r="5"/><circle cx="601" cy="788" r="4"/><circle cx="695" cy="791" r="6"/><circle cx="771" cy="772" r="4"/><circle cx="804" cy="791" r="5"/><circle cx="889" cy="797" r="6"/><circle cx="979" cy="774" r="6"/><circle cx="1044" cy="776" r="5"/><circle cx="1121" cy="795" r="4"/><circle cx="1256" cy="788" r="5"/><circle cx="1351" cy="775" r="6"/><circle cx="1397" cy="745" r="4"/><circle cx="1469" cy="747" r="4"/><circle cx="1528" cy="737" r="6"/><circle cx="1650" cy="758" r="5"/><circle cx="1687" cy="765" r="4"/><circle cx="1798" cy="796" r="4"/><circle cx="1862" cy="737" r="4"/><circle cx="1947" cy="746" r="5"/><circle cx="2063" cy="763" r="5"/><circle cx="2102" cy="721" r="4"/><circle cx="2188" cy="739" r="6"/><circle cx="2303" cy="769" r="4"/><circle cx="2337" cy="781" r="4"/><circle cx="2439" cy="780" r="4"/><circle cx="2515" cy="791" r="5"/><circle cx="75" cy="831" r="4"/><circle cx="116" cy="857" r="6"/><circle cx="239" cy="832" r="5"/><circle cx="295" cy="802" r="5"/><circle cx="355" cy="810" r="5"/><circle cx="415" cy="830" r="4"/><circle cx="555" cy="836" r="6"/><circle cx="583" cy="869" r="6"/><circle cx="646" cy="820" r="6"/><circle cx="744" cy="835" r="5"/><circle cx="801" cy="857" r="5"/><circle cx="909" cy="814" r="5"/><circle cx="1015" cy="819" r="6"/><circle cx="1047" cy="811" r="4"/><circle cx="1192" cy="831" r="4"/><circle cx="1241" cy="850" r="5"/><circle cx="1329" cy="859" r="5"/><circle cx="1416" cy="836" r="5"/><circle cx="1504" cy="841" r="6"/><circle cx="1553" cy="876" r="4"/><circle cx="1661" cy="825" r="6"/><circle cx="1685" cy="857" r="5"/><circle cx="1817" cy="864" r="5"/><circle cx="1885" cy="811" r="5"/><circle cx="1955" cy="822" r="5"/><circle cx="2053" cy="865" r="5"/><circle cx="2141" cy="843" r="4"/><circle cx="2200" cy="869" r="5"/><circle cx="2288" cy="810" r="4"/><circle cx="2365" cy="859" r="5"/><circle cx="2401" cy="830" r="4"/><circle cx="2557" cy="810" r="4"/><circle cx="-3" cy="810" r="4"/><circle cx="55" cy="907" r="6"/><circle cx="89" cy="934" r="5"/><circle cx="173" cy="929" r="6"/><circle cx="247" cy="960" r="5"/><circle cx="377" cy="908" r="5"/><circle cx="478" cy="911" r="5"/><circle cx="530" cy="901" r="5"/><circle cx="594" cy="911" r="4"/><circle cx="672" cy="895" r="4"/><circle cx="730" cy="923" r="4"/><circle cx="873" cy="928" r="6"/><circle cx="886" cy="960" r="6"/><circle cx="1017" cy="930" r="5"/><circle cx="1104" cy="945" r="5"/><circle cx="1195" cy="939" r="5"/><circle cx="1208" cy="881" r="4"/><circle cx="1338" cy="935" r="5"/><circle cx="1375" cy="958" r="4"/><circle cx="1466" cy="911" r="5"/><circle cx="1587" cy="900" r="4"/><circle cx="1652" cy="915" r="4"/><circle cx="1691" cy="947" r="5"/><circle cx="1838" cy="894" r="6"/><circle cx="1915" cy="885" r="5"/><circle cx="1989" cy="888" r="5"/><circle cx="2056" cy="903" r="4"/><circle cx="2144" cy="891" r="5"/><circle cx="2239" cy="925" r="5"/><circle cx="2286" cy="906" r="6"/><circle cx="2375" cy="927" r="6"/><circle cx="2431" cy="929" r="4"/><circle cx="2555" cy="959" r="6"/><circle cx="-5" cy="959" r="6"/><circle cx="25" cy="1038" r="5"/><circle cx="138" cy="1026" r="4"/><circle cx="239" cy="1015" r="4"/><circle cx="258" cy="979" r="5"/><circle cx="343" cy="996" r="5"/><circle cx="406" cy="1037" r="5"/><circle cx="557" cy="1020" r="6"/><circle cx="596" cy="1013" r="6"/><circle cx="641" cy="980" r="5"/><circle cx="765" cy="993" r="5"/><circle cx="848" cy="1035" r="6"/><circle cx="881" cy="993" r="6"/><circle cx="1003" cy="976" r="5"/><circle cx="1084" cy="961" r="5"/><circle cx="1130" cy="989" r="5"/><circle cx="1273" cy="981" r="5"/><circle cx="1336" cy="1005" r="6"/><circle cx="1398" cy="1012" r="5"/><circle cx="1507" cy="1003" r="4"/><circle cx="1569" cy="1011" r="6"/><circle cx="1611" cy="976" r="4"/><circle cx="1683" cy="1018" r="6"/><circle cx="1812" cy="1037" r="4"/><circle cx="1875" cy="1010" r="5"/><circle cx="1995" cy="986" r="5"/><circle cx="2033" cy="1032" r="5"/><circle cx="2085" cy="1029" r="5"/><circle cx="2213" cy="1027" r="6"/><circle cx="2252" cy="1016" r="5"/><circle cx="2343" cy="1016" r="5"/><circle cx="2407" cy="965" r="4"/><circle cx="2503" cy="1002" r="5"/><circle cx="51" cy="1043" r="5"/><circle cx="97" cy="1118" r="5"/><circle cx="170" cy="1071" r="5"/><circle cx="300" cy="1070" r="5"/><circle cx="345" cy="1094" r="6"/><circle cx="437" cy="1052" r="5"/><circle cx="504" cy="1063" r="5"/><circle cx="627" cy="1095" r="4"/><circle cx="714" cy="1099" r="4"/><circle cx="753" cy="1078" r="5"/><circle cx="831" cy="1060" r="5"/><circle cx="919" cy="1043" r="5"/><circle cx="992" cy="1070" r="5"/><circle cx="1088" cy="1116" r="5"/><circle cx="1197" cy="1116" r="4"/><circle cx="1206" cy="1075" r="5"/><circle cx="1328" cy="1087" r="5"/><circle cx="1386" cy="1112" r="6"/><circle cx="1494" cy="1059" r="6"/><circle cx="1556" cy="1047" r="4"/><circle cx="1677" cy="1109" r="4"/><circle cx="1747" cy="1042" r="4"/><circle cx="1792" cy="1113" r="4"/><circle cx="1901" cy="1049" r="5"/><circle cx="1966" cy="1046" r="6"/><circle cx="2008" cy="1114" r="6"/><circle cx="2134" cy="1078" r="5"/><circle cx="2164" cy="1098" r="6"/><circle cx="2306" cy="1092" r="4"/><circle cx="2372" cy="1084" r="4"/><circle cx="2437" cy="1063" r="5"/><circle cx="2547" cy="1099" r="5"/><circle cx="46" cy="1189" r="5"/><circle cx="144" cy="1160" r="4"/><circle cx="180" cy="1121" r="5"/><circle cx="299" cy="1171" r="5"/><circle cx="359" cy="1197" r="5"/><circle cx="413" cy="1141" r="5"/><circle cx="544" cy="1152" r="4"/><circle cx="560" cy="1142" r="5"/><circle cx="646" cy="1199" r="5"/><circle cx="776" cy="1180" r="4"/><circle cx="866" cy="1182" r="6"/><circle cx="946" cy="1128" r="4"/><circle cx="1031" cy="1159" r="4"/><circle cx="1106" cy="1169" r="5"/><circle cx="1156" cy="1164" r="5"/><circle cx="1253" cy="1134" r="6"/><circle cx="1296" cy="1172" r="5"/><circle cx="1384" cy="1135" r="4"/><circle cx="1494" cy="1130" r="5"/><circle cx="1599" cy="1159" r="6"/><circle cx="1609" cy="1143" r="6"/><circle cx="1682" cy="1200" r="5"/><circle cx="1800" cy="1186" r="4"/><circle cx="1866" cy="1179" r="4"/><circle cx="1947" cy="1155" r="4"/><circle cx="2004" cy="1158" r="6"/><circle cx="2118" cy="1149" r="4"/><circle cx="2220" cy="1152" r="4"/><circle cx="2301" cy="1178" r="5"/><circle cx="2329" cy="1163" r="6"/><circle cx="2424" cy="1155" r="4"/><circle cx="2546" cy="1179" r="6"/><circle cx="56" cy="1244" r="5"/><circle cx="132" cy="1269" r="4"/><circle cx="197" cy="1264" r="5"/><circle cx="241" cy="1231" r="6"/><circle cx="360" cy="1226" r="4"/><circle cx="423" cy="1207" r="5"/><circle cx="489" cy="1261" r="6"/><circle cx="612" cy="1231" r="4"/><circle cx="686" cy="1276" r="5"/><circle cx="775" cy="1241" r="5"/><circle cx="849" cy="1243" r="5"/><circle cx="939" cy="1269" r="6"/><circle cx="1036" cy="1209" r="5"/><circle cx="1087" cy="1204" r="6"/><circle cx="1157" cy="1220" r="5"/><circle cx="1244" cy="1218" r="5"/><circle cx="1325" cy="1257" r="4"/><circle cx="1435" cy="1276" r="5"/><circle cx="1445" cy="1223" r="5"/><circle cx="1532" cy="1202" r="6"/><circle cx="1664" cy="1215" r="4"/><circle cx="1756" cy="1230" r="6"/><circle cx="1832" cy="1231" r="5"/><circle cx="1847" cy="1261" r="4"/><circle cx="1940" cy="1202" r="4"/><circle cx="2029" cy="1279" r="5"/><circle cx="2147" cy="1262" r="5"/><circle cx="2213" cy="1204" r="5"/><circle cx="2257" cy="1208" r="5"/><circle cx="2365" cy="1250" r="5"/><circle cx="2471" cy="1219" r="5"/><circle cx="2495" cy="1269" r="5"/><circle cx="73" cy="1289" r="5"/><circle cx="152" cy="1353" r="4"/><circle cx="219" cy="1283" r="5"/><circle cx="265" cy="1296" r="6"/><circle cx="378" cy="1325" r="5"/><circle cx="418" cy="1285" r="5"/><circle cx="526" cy="1296" r="6"/><circle cx="574" cy="1326" r="4"/><circle cx="656" cy="1336" r="6"/><circle cx="742" cy="1283" r="5"/><circle cx="847" cy="1336" r="6"/><circle cx="882" cy="1285" r="6"/><circle cx="1012" cy="1315" r="4"/><circle cx="1061" cy="1346" r="5"/><circle cx="1130" cy="1324" r="6"/><circle cx="1206" cy="1330" r="4"/><circle cx="1300" cy="1333" r="4"/><circle cx="1437" cy="1306" r="6"/><circle cx="1487" cy="1288" r="5"/><circle cx="1577" cy="1322" r="5"/><circle cx="1657" cy="1297" r="4"/><circle cx="1748" cy="1321" r="5"/><circle cx="1839" cy="1351" r="4"/><circle cx="1888" cy="1346" r="4"/><circle cx="1981" cy="1341" r="4"/><circle cx="2071" cy="1325" r="5"/><circle cx="2158" cy="1302" r="5"/><circle cx="2161" cy="1299" r="5"/><circle cx="2298" cy="1282" r="6"/><circle cx="2383" cy="1299" r="5"/><circle cx="2450" cy="1311" r="5"/><circle cx="2547" cy="1302" r="6"/><circle cx="32" cy="1420" r="5"/><circle cx="88" cy="1372" r="4"/><circle cx="194" cy="1392" r="5"/><circle cx="307" cy="1402" r="4"/><circle cx="380" cy="1434" r="5"/><circle cx="439" cy="1398" r="4"/><circle cx="514" cy="1405" r="5"/><circle cx="613" cy="1427" r="5"/><circle cx="713" cy="1408" r="6"/><circle cx="740" cy="1433" r="5"/><circle cx="842" cy="1381" r="6"/><circle cx="918" cy="1381" r="5"/><circle cx="1033" cy="1368" r="5"/><circle cx="1081" cy="1372" r="4"/><circle cx="1151" cy="1364" r="6"/><circle cx="1261" cy="1378" r="6"/><circle cx="1347" cy="1400" r="4"/><circle cx="1404" cy="1366" r="6"/><circle cx="1458" cy="1440" r="5"/><circle cx="1458" cy="-0" r="5"/><circle cx="1539" cy="1419" r="4"/><circle cx="1619" cy="1435" r="4"/><circle cx="1715" cy="1374" r="5"/><circle cx="1828" cy="1418" r="5"/><circle cx="1859" cy="1380" r="5"/><circle cx="1938" cy="1439" r="4"/><circle cx="1938" cy="-1" r="4"/><circle cx="2011" cy="1406" r="6"/><circle cx="2118" cy="1406" r="5"/><circle cx="2214" cy="1404" r="4"/><circle cx="2295" cy="1366" r="5"/><circle cx="2356" cy="1374" r="6"/><circle cx="2457" cy="1376" r="5"/><circle cx="2501" cy="1381" r="4"/><path stroke="#fff" d="M21 55L113 67M21 55L-20 29M21 55L41 120M21 55L-45 128M21 55L32 -20M2581 55L2540 29M2581 55L2515 128M21 1495L32 1420M113 67L210 40M113 67L41 120M113 67L107 158M113 67L162 154M210 40L294 17M210 40L267 88M210 40L194 -48M210 1480L194 1392M294 17L358 13M294 17L267 88M294 17L307 -38M294 17L380 -6M294 1457L307 1402M294 1457L380 1434M358 13L267 88M358 13L307 -38M358 13L380 -6M358 13L439 -42M358 1453L307 1402M358 1453L380 1434M358 1453L439 1398M477 64L522 18M477 64L455 113M477 64L502 133M477 64L569 116M477 64L514 -35M477 1504L514 1405M522 18L590 65M522 18L569 116M522 18L514 -35M522 18L613 -13M522 1458L514 1405M522 1458L613 1427M590 65L569 116M590 65L590 169M590 65L613 -13M590 1505L613 1427M690 38L745 63M690 38L702 129M690 38L613 -13M690 38L713 -32M690 38L740 -7M690 1478L613 1427M690 1478L713 1408M690 1478L740 1433M745 63L702 129M745 63L788 104M745 63L800 133M745 63L740 -7M745 1503L740 1433M814 20L788 104M814 20L740 -7M814 20L842 -59M814 1460L740 1433M814 1460L842 1381M915 41L1018 63M915 41L883 100M915 41L988 105M915 41L918 -59M915 1481L918 1381M1018 63L1082 32M1018 63L988 105M1018 63L1064 82M1018 63L995 173M1082 32L1160 32M1082 32L1064 82M1082 32L1143 110M1160 32L1204 21M1160 32L1143 110M1204 21L1305 62M1204 21L1143 110M1204 21L1261 -62M1204 1461L1261 1378M1305 62L1388 22M1305 62L1276 155M1305 62L1327 96M1305 62L1347 -40M1305 1502L1347 1400M1388 22L1456 11M1388 22L1327 96M1388 22L1347 -40M1388 22L1458 -0M1388 1462L1347 1400M1388 1462L1458 1440M1456 11L1404 -74M1456 11L1458 -0M1456 1451L1404 1366M1456 1451L1458 1440M1547 40L1503 101M1547 40L1567 99M1547 40L1458 -0M1547 40L1539 -21M1547 40L1619 -5M1547 1480L1458 1440M1547 1480L1539 1419M1547 1480L1619 1435M1664 50L1692 44M1664 50L1567 99M1664 50L1619 148M1664 50L1698 86M1664 50L1619 -5M1664 1490L1619 1435M1692 44L1698 86M1692 44L1619 -5M1692 44L1715 -66M1692 1484L1619 1435M1692 1484L1715 1374M1814 50L1868 26M1814 50L1866 103M1814 50L1828 -22M1814 1490L1828 1418M1868 26L1866 103M1868 26L1828 -22M1868 26L1859 -60M1868 26L1938 -1M1868 1466L1828 1418M1868 1466L1859 1380M1868 1466L1938 1439M1955 60L2014 29M1955 60L1866 103M1955 60L1952 140M1955 60L2007 107M1955 60L1938 -1M1955 1500L1938 1439M2014 29L2007 107M2014 29L1938 -1M2014 29L2011 -34M2014 1469L1938 1439M2014 1469L2011 1406M2147 7L2232 45M2147 7L2154 85M2147 7L2118 -34M2147 7L2214 -36M2147 1447L2118 1406M2147 1447L2214 1404M2232 45L2268 55M2232 45L2154 85M2232 45L2277 112M2232 45L2214 -36M2232 1485L2214 1404M2268 55L2239 143M2268 55L2277 112M2376 48L2435 18M2376 48L2365 90M2376 48L2422 119M2376 48L2356 -66M2376 1488L2356 1374M2435 18L2365 90M2435 18L2457 -64M2435 1458L2457 1376M2540 29L2592 -20M2540 29L2501 -59M-20 29L32 -20M-20 1469L32 1420M2540 1469L2592 1420M2540 1469L2501 1381M41 120L107 158M41 120L-45 128M41 120L11 175M2601 120L2515 128M107 158L162 154M107 158L11 175M107 158L105 193M162 154L105 193M162 154L205 220M267 88L333 123M267 88L314 168M333 123L314 168M333 123L381 173M455 113L502 133M455 113L381 173M502 133L569 116M502 133L524 231M502 133L590 169M569 116L590 169M702 129L788 104M702 129L800 133M702 129L666 200M788 104L800 133M788 104L883 100M800 133L883 100M800 133L853 183M883 100L853 183M883 100L907 195M988 105L1064 82M988 105L995 173M1064 82L1143 110M1064 82L995 173M1276 155L1327 96M1276 155L1222 238M1276 155L1322 204M1276 155L1365 213M1327 96L1422 154M1327 96L1322 204M1422 154L1503 101M1422 154L1322 204M1422 154L1365 213M1422 154L1489 191M1503 101L1567 99M1503 101L1489 191M1567 99L1619 148M1619 148L1698 86M1619 148L1575 236M1619 148L1675 218M1698 86L1768 154M1768 154L1734 207M1768 154L1802 217M1866 103L1952 140M1952 140L2007 107M1952 140L1888 196M1952 140L1961 171M2007 107L1961 171M2154 85L2239 143M2154 85L2186 214M2239 143L2277 112M2239 143L2186 214M2239 143L2312 184M2277 112L2312 184M2277 112L2350 177M2365 90L2422 119M2365 90L2312 184M2365 90L2350 177M2422 119L2515 128M2422 119L2350 177M2422 119L2501 185M2515 128L2571 175M2515 128L2501 185M-45 128L11 175M11 175L105 193M11 175L-59 185M2571 175L2501 185M105 193L205 220M105 193L102 275M205 220L314 168M205 220L231 313M205 220L246 303M314 168L381 173M381 173L460 237M381 173L428 252M460 237L524 231M460 237L428 252M460 237L495 277M524 231L590 169M524 231L495 277M524 231L565 292M590 169L666 200M666 200L736 228M666 200L682 283M736 228L682 283M736 228L790 241M853 183L907 195M853 183L790 241M853 183L901 260M907 195L995 173M907 195L901 260M1113 217L1156 227M1113 217L1095 281M1113 217L1165 242M1156 227L1222 238M1156 227L1095 281M1156 227L1165 242M1156 227L1220 278M1222 238L1165 242M1222 238L1220 278M1222 238L1217 334M1322 204L1365 213M1322 204L1348 260M1365 213L1348 260M1365 213L1411 294M1489 191L1575 236M1489 191L1495 255M1489 191L1533 283M1575 236L1675 218M1575 236L1495 255M1575 236L1533 283M1675 218L1734 207M1675 218L1669 315M1675 218L1759 261M1734 207L1802 217M1734 207L1759 261M1802 217L1888 196M1802 217L1759 261M1802 217L1770 310M1888 196L1961 171M1888 196L1904 257M1888 196L1943 260M1961 171L1904 257M1961 171L1943 260M2055 236L2144 225M2055 236L2067 299M2055 236L2149 258M2055 236L2030 355M2144 225L2186 214M2144 225L2149 258M2144 225L2177 319M2186 214L2149 258M2186 214L2177 319M2312 184L2350 177M2312 184L2314 296M2350 177L2459 238M2459 238L2501 185M2459 238L2465 286M2459 238L2491 300M2501 185L2465 286M61 293L102 275M61 293L16 358M61 293L85 363M61 293L-10 372M2621 293L2550 372M102 275L85 363M231 313L246 303M231 313L186 363M231 313L264 376M246 303L186 363M246 303L264 376M370 310L428 252M370 310L375 347M370 310L442 337M370 310L429 406M428 252L495 277M428 252L442 337M495 277L565 292M495 277L504 343M565 292L504 343M565 292L629 342M682 283L790 241M682 283L629 342M682 283L667 336M790 241L850 308M790 241L782 338M850 308L901 260M850 308L782 338M850 308L851 399M850 308L886 348M901 260L993 304M901 260L886 348M993 304L1095 281M993 304L886 348M993 304L1026 364M993 304L1065 358M1095 281L1165 242M1095 281L1065 358M1165 242L1220 278M1220 278L1178 383M1220 278L1217 334M1348 260L1411 294M1348 260L1347 365M1411 294L1495 255M1411 294L1347 365M1495 255L1533 283M1533 283L1494 391M1533 283L1597 329M1669 315L1597 329M1669 315L1662 374M1669 315L1681 375M1669 315L1644 413M1759 261L1770 310M1759 261L1800 353M1770 310L1800 353M1770 310L1763 418M1904 257L1943 260M1904 257L1871 323M1943 260L1871 323M1943 260L1928 377M2067 299L2149 258M2067 299L2030 355M2067 299L2100 353M2149 258L2177 319M2177 319L2100 353M2177 319L2165 373M2314 296L2400 318M2314 296L2305 327M2314 296L2328 325M2400 318L2465 286M2400 318L2491 300M2400 318L2328 325M2400 318L2411 351M2465 286L2491 300M2465 286L2411 351M2491 300L2411 351M2491 300L2550 372M16 358L85 363M16 358L-10 372M16 358L39 425M16 358L-59 408M2576 358L2550 372M2576 358L2501 408M85 363L39 425M85 363L86 451M186 363L264 376M186 363L175 466M264 376L375 347M264 376L255 446M375 347L442 337M375 347L369 464M375 347L429 406M442 337L504 343M442 337L429 406M504 343L567 422M629 342L667 336M629 342L567 422M629 342L710 438M667 336L710 438M667 336L730 419M782 338L851 399M782 338L730 419M851 399L886 348M851 399L850 462M851 399L897 430M886 348L897 430M1026 364L1065 358M1026 364L1015 437M1026 364L1073 410M1065 358L1015 437M1065 358L1073 410M1178 383L1217 334M1178 383L1073 410M1178 383L1179 401M1178 383L1208 434M1217 334L1179 401M1217 334L1208 434M1347 365L1381 400M1347 365L1402 416M1381 400L1402 416M1381 400L1381 498M1494 391L1402 416M1494 391L1477 456M1494 391L1558 461M1597 329L1662 374M1662 374L1681 375M1662 374L1644 413M1681 375L1644 413M1681 375L1746 441M1681 375L1763 418M1800 353L1871 323M1800 353L1746 441M1800 353L1763 418M1871 323L1928 377M1928 377L2030 355M1928 377L1869 471M1928 377L1943 477M2030 355L2100 353M2030 355L2063 437M2100 353L2165 373M2100 353L2063 437M2165 373L2111 466M2165 373L2160 464M2305 327L2328 325M2305 327L2302 456M2305 327L2324 433M2328 325L2411 351M2328 325L2324 433M2411 351L2401 415M2550 372L2599 425M2550 372L2501 408M-10 372L39 425M39 425L86 451M39 425L-59 408M2599 425L2501 408M86 451L175 466M86 451L57 547M175 466L255 446M175 466L134 553M175 466L212 533M255 446L296 484M255 446L361 484M369 464L429 406M369 464L296 484M369 464L361 484M369 464L450 516M429 406L361 484M557 473L567 422M557 473L450 516M557 473L492 496M557 473L598 526M567 422L492 496M567 422L598 526M710 438L730 419M710 438L666 543M710 438L737 486M730 419L737 486M850 462L897 430M850 462L857 509M897 430L857 509M1015 437L1073 410M1015 437L1021 516M1073 410L1179 401M1179 401L1208 434M1208 434L1288 465M1288 465L1308 518M1402 416L1477 456M1402 416L1381 498M1477 456L1558 461M1477 456L1476 492M1477 456L1536 511M1558 461L1644 413M1558 461L1476 492M1558 461L1536 511M1644 413L1746 441M1746 441L1763 418M1746 441L1827 502M1763 418L1827 502M1869 471L1943 477M1869 471L1827 502M1869 471L1859 516M1869 471L1831 561M1943 477L1859 516M1943 477L1963 533M1943 477L1984 566M2063 437L2111 466M2063 437L2160 464M2063 437L2087 495M2111 466L2160 464M2111 466L2087 495M2111 466L2186 511M2160 464L2087 495M2160 464L2186 511M2302 456L2324 433M2302 456L2401 415M2302 456L2309 501M2302 456L2327 560M2324 433L2401 415M2324 433L2309 501M2401 415L2501 408M2401 415L2441 512M2501 408L2441 512M57 547L134 553M57 547L-31 540M57 547L26 579M57 547L-4 574M2617 547L2529 540M2617 547L2556 574M134 553L212 533M134 553L26 579M134 553L156 640M212 533L296 484M212 533L253 588M296 484L361 484M296 484L253 588M361 484L450 516M450 516L492 496M450 516L443 579M492 496L598 526M492 496L443 579M598 526L666 543M598 526L604 603M666 543L737 486M666 543L604 603M666 543L697 585M857 509L953 542M857 509L858 589M857 509L917 605M953 542L1021 516M953 542L858 589M953 542L917 605M953 542L1032 611M1021 516L1114 508M1021 516L1032 611M1114 508L1133 533M1114 508L1114 596M1133 533L1209 552M1133 533L1114 596M1133 533L1165 586M1133 533L1145 649M1209 552L1308 518M1209 552L1165 586M1209 552L1244 583M1308 518L1381 498M1308 518L1244 583M1308 518L1317 633M1381 498L1476 492M1381 498L1397 589M1476 492L1536 511M1476 492L1470 588M1536 511L1470 588M1536 511L1569 574M1647 559L1699 543M1647 559L1569 574M1647 559L1602 596M1647 559L1717 573M1647 559L1648 657M1699 543L1602 596M1699 543L1717 573M1827 502L1859 516M1827 502L1831 561M1859 516L1963 533M1859 516L1831 561M1963 533L2047 550M1963 533L1984 566M1963 533L2023 583M2047 550L2087 495M2047 550L1984 566M2047 550L2023 583M2047 550L2086 603M2087 495L2186 511M2186 511L2217 562M2309 501L2327 560M2309 501L2267 596M2309 501L2323 587M2327 560L2267 596M2327 560L2323 587M2327 560L2300 661M2441 512L2529 540M2441 512L2471 626M2529 540L2586 579M2529 540L2471 626M2529 540L2556 574M-31 540L26 579M26 579L-4 574M26 579L22 661M2586 579L2556 574M156 640L212 632M156 640L253 588M156 640L133 665M156 640L182 646M212 632L253 588M212 632L133 665M212 632L182 646M212 632L239 727M253 588L182 646M392 621L443 579M392 621L332 686M392 621L470 697M443 579L526 632M526 632L604 603M526 632L470 697M526 632L545 701M526 632L616 672M604 603L616 672M604 603L657 659M697 585L755 605M697 585L657 659M697 585L772 652M755 605L858 589M755 605L657 659M755 605L772 652M755 605L809 677M858 589L917 605M858 589L809 677M917 605L949 712M917 605L972 702M1032 611L1114 596M1114 596L1165 586M1114 596L1145 649M1165 586L1244 583M1165 586L1145 649M1244 583L1317 633M1317 633L1397 589M1317 633L1326 691M1397 589L1470 588M1470 588L1569 574M1569 574L1602 596M1569 574L1648 657M1602 596L1648 657M1717 573L1743 666M1831 561L1841 636M1831 561L1844 674M1841 636L1743 666M1841 636L1816 717M1841 636L1844 674M1984 566L2023 583M2023 583L2086 603M2023 583L2022 676M2086 603L2022 676M2086 603L2147 654M2086 603L2161 673M2217 562L2267 596M2217 562L2323 587M2217 562L2147 654M2217 562L2161 673M2267 596L2323 587M2267 596L2300 661M2323 587L2300 661M2471 626L2470 650M2471 626L2511 669M2556 574L2582 661M2556 574L2470 650M-4 574L22 661M22 661L-90 650M22 661L-49 669M22 661L22 735M2582 661L2470 650M2582 661L2511 669M133 665L182 646M317 695L332 686M317 695L239 727M317 695L259 741M317 695L328 752M332 686L328 752M470 697L545 701M470 697L436 758M545 701L616 672M545 701L554 773M616 672L657 659M657 659L772 652M772 652L809 677M949 712L972 702M949 712L889 797M949 712L979 774M972 702L979 774M972 702L1044 776M1113 695L1145 649M1113 695L1121 795M1145 649L1230 710M1230 710L1326 691M1230 710L1256 788M1326 691L1427 684M1326 691L1351 775M1326 691L1397 745M1427 684L1515 720M1427 684L1520 691M1427 684L1397 745M1427 684L1469 747M1515 720L1520 691M1515 720L1469 747M1515 720L1528 737M1520 691L1469 747M1520 691L1528 737M1648 657L1743 666M1648 657L1650 758M1743 666L1816 717M1743 666L1844 674M1816 717L1844 674M1816 717L1798 796M1816 717L1862 737M1844 674L1862 737M1977 705L2022 676M1977 705L1947 746M1977 705L2063 763M2022 676L2063 763M2022 676L2102 721M2147 654L2161 673M2147 654L2102 721M2147 654L2188 739M2161 673L2102 721M2161 673L2188 739M2300 661L2389 715M2300 661L2303 769M2389 715L2470 650M2389 715L2303 769M2389 715L2337 781M2389 715L2439 780M2470 650L2511 669M2511 669L2582 735M-49 669L22 735M22 735L-45 791M22 735L75 831M22 735L-3 810M2582 735L2515 791M2582 735L2557 810M148 781L75 831M148 781L116 857M148 781L239 832M239 727L259 741M239 727L295 802M259 741L328 752M259 741L239 832M259 741L295 802M328 752L295 802M328 752L355 810M436 758L355 810M436 758L415 830M554 773L601 788M554 773L555 836M601 788L695 791M601 788L555 836M601 788L583 869M601 788L646 820M695 791L771 772M695 791L646 820M695 791L744 835M695 791L672 895M771 772L804 791M771 772L744 835M771 772L801 857M804 791L889 797M804 791L744 835M804 791L801 857M804 791L909 814M889 797L801 857M889 797L909 814M979 774L1044 776M979 774L1015 819M979 774L1047 811M1044 776L1121 795M1044 776L1015 819M1044 776L1047 811M1121 795L1047 811M1121 795L1192 831M1256 788L1351 775M1256 788L1192 831M1256 788L1241 850M1256 788L1329 859M1351 775L1397 745M1351 775L1329 859M1351 775L1416 836M1397 745L1469 747M1397 745L1416 836M1469 747L1528 737M1528 737L1650 758M1528 737L1504 841M1650 758L1687 765M1650 758L1661 825M1650 758L1685 857M1687 765L1661 825M1687 765L1685 857M1798 796L1862 737M1798 796L1817 864M1798 796L1838 894M1862 737L1947 746M1862 737L1885 811M1947 746L1955 822M2063 763L2102 721M2063 763L2188 739M2063 763L2053 865M2102 721L2188 739M2188 739L2141 843M2303 769L2337 781M2303 769L2288 810M2337 781L2288 810M2337 781L2365 859M2337 781L2401 830M2439 780L2515 791M2439 780L2401 830M2515 791L2557 810M75 831L116 857M75 831L-3 810M75 831L55 907M2635 831L2557 810M116 857L55 907M116 857L89 934M116 857L173 929M239 832L295 802M295 802L355 810M355 810L415 830M355 810L377 908M415 830L377 908M415 830L478 911M555 836L583 869M555 836L646 820M555 836L530 901M583 869L646 820M583 869L530 901M583 869L594 911M646 820L672 895M744 835L801 857M744 835L730 923M801 857L873 928M909 814L1015 819M909 814L873 928M1015 819L1047 811M1015 819L1017 930M1192 831L1241 850M1192 831L1208 881M1241 850L1329 859M1241 850L1195 939M1241 850L1208 881M1329 859L1416 836M1329 859L1338 935M1416 836L1504 841M1416 836L1466 911M1504 841L1553 876M1504 841L1466 911M1504 841L1587 900M1553 876L1466 911M1553 876L1587 900M1661 825L1685 857M1661 825L1587 900M1661 825L1652 915M1685 857L1652 915M1685 857L1691 947M1817 864L1885 811M1817 864L1838 894M1817 864L1915 885M1885 811L1955 822M1885 811L1838 894M1885 811L1915 885M1955 822L1915 885M1955 822L1989 888M2053 865L2141 843M2053 865L1989 888M2053 865L2056 903M2053 865L2144 891M2141 843L2200 869M2141 843L2056 903M2141 843L2144 891M2200 869L2288 810M2200 869L2144 891M2200 869L2239 925M2200 869L2286 906M2288 810L2365 859M2288 810L2286 906M2365 859L2401 830M2365 859L2286 906M2365 859L2375 927M2401 830L2431 929M55 907L89 934M55 907L-5 959M2615 907L2555 959M89 934L173 929M89 934L-5 959M2649 934L2555 959M173 929L247 960M173 929L138 1026M173 929L258 979M247 960L239 1015M247 960L258 979M377 908L478 911M377 908L343 996M478 911L530 901M530 901L594 911M530 901L557 1020M594 911L672 895M594 911L596 1013M594 911L641 980M672 895L730 923M672 895L641 980M730 923L641 980M730 923L765 993M873 928L886 960M873 928L881 993M886 960L848 1035M886 960L881 993M886 960L1003 976M886 960L919 1043M1017 930L1104 945M1017 930L1003 976M1017 930L1084 961M1017 930L1130 989M1104 945L1195 939M1104 945L1003 976M1104 945L1084 961M1104 945L1130 989M1195 939L1208 881M1195 939L1130 989M1195 939L1273 981M1338 935L1375 958M1338 935L1273 981M1338 935L1336 1005M1338 935L1398 1012M1375 958L1466 911M1375 958L1273 981M1375 958L1336 1005M1375 958L1398 1012M1466 911L1507 1003M1587 900L1652 915M1587 900L1611 976M1652 915L1691 947M1652 915L1611 976M1691 947L1611 976M1691 947L1683 1018M1691 947L1747 1042M1838 894L1915 885M1838 894L1875 1010M1915 885L1989 888M1989 888L2056 903M1989 888L1995 986M2056 903L2144 891M2144 891L2239 925M2239 925L2286 906M2239 925L2213 1027M2239 925L2252 1016M2286 906L2375 927M2375 927L2431 929M2375 927L2343 1016M2375 927L2407 965M2431 929L2407 965M2431 929L2503 1002M2555 959L2585 1038M2555 959L2503 1002M2555 959L2611 1043M-5 959L25 1038M-5 959L51 1043M25 1038L-57 1002M25 1038L51 1043M25 1038L-13 1099M2585 1038L2503 1002M2585 1038L2547 1099M138 1026L51 1043M138 1026L170 1071M138 1026L180 1121M239 1015L258 979M239 1015L170 1071M239 1015L300 1070M258 979L343 996M258 979L300 1070M343 996L406 1037M343 996L300 1070M406 1037L345 1094M406 1037L437 1052M406 1037L504 1063M406 1037L413 1141M557 1020L596 1013M557 1020L641 980M557 1020L504 1063M557 1020L627 1095M596 1013L641 980M596 1013L504 1063M596 1013L627 1095M765 993L848 1035M765 993L753 1078M765 993L831 1060M848 1035L881 993M848 1035L831 1060M848 1035L919 1043M881 993L831 1060M881 993L919 1043M1003 976L1084 961M1003 976L992 1070M1084 961L1130 989M1130 989L1206 1075M1273 981L1336 1005M1273 981L1206 1075M1336 1005L1398 1012M1336 1005L1328 1087M1398 1012L1386 1112M1398 1012L1494 1059M1507 1003L1569 1011M1507 1003L1494 1059M1507 1003L1556 1047M1569 1011L1611 976M1569 1011L1683 1018M1569 1011L1494 1059M1569 1011L1556 1047M1611 976L1683 1018M1683 1018L1677 1109M1683 1018L1747 1042M1812 1037L1875 1010M1812 1037L1747 1042M1812 1037L1792 1113M1812 1037L1901 1049M1875 1010L1901 1049M1875 1010L1966 1046M1995 986L2033 1032M1995 986L2085 1029M1995 986L1901 1049M1995 986L1966 1046M2033 1032L2085 1029M2033 1032L1966 1046M2033 1032L2008 1114M2033 1032L2134 1078M2085 1029L2008 1114M2085 1029L2134 1078M2085 1029L2164 1098M2213 1027L2252 1016M2213 1027L2134 1078M2213 1027L2164 1098M2252 1016L2343 1016M2252 1016L2306 1092M2343 1016L2407 965M2343 1016L2306 1092M2343 1016L2372 1084M2407 965L2437 1063M2503 1002L2437 1063M2503 1002L2547 1099M51 1043L97 1118M51 1043L-13 1099M2611 1043L2547 1099M97 1118L170 1071M97 1118L46 1189M97 1118L144 1160M97 1118L180 1121M170 1071L144 1160M170 1071L180 1121M300 1070L345 1094M300 1070L299 1171M345 1094L437 1052M345 1094L299 1171M345 1094L413 1141M437 1052L504 1063M437 1052L413 1141M504 1063L560 1142M627 1095L714 1099M627 1095L560 1142M627 1095L646 1199M714 1099L753 1078M714 1099L776 1180M753 1078L831 1060M753 1078L776 1180M831 1060L919 1043M919 1043L992 1070M992 1070L946 1128M1088 1116L1031 1159M1088 1116L1106 1169M1088 1116L1156 1164M1088 1116L1036 1209M1197 1116L1206 1075M1197 1116L1156 1164M1197 1116L1253 1134M1197 1116L1244 1218M1206 1075L1253 1134M1328 1087L1386 1112M1328 1087L1253 1134M1328 1087L1296 1172M1328 1087L1384 1135M1386 1112L1384 1135M1386 1112L1494 1130M1494 1059L1556 1047M1494 1059L1494 1130M1677 1109L1747 1042M1677 1109L1599 1159M1677 1109L1609 1143M1677 1109L1682 1200M1747 1042L1792 1113M1792 1113L1800 1186M1901 1049L1966 1046M1966 1046L2008 1114M2008 1114L1947 1155M2008 1114L2004 1158M2134 1078L2164 1098M2134 1078L2118 1149M2164 1098L2118 1149M2164 1098L2220 1152M2306 1092L2372 1084M2306 1092L2301 1178M2306 1092L2329 1163M2372 1084L2437 1063M2372 1084L2329 1163M2372 1084L2424 1155M2437 1063L2424 1155M2547 1099L2606 1189M2547 1099L2546 1179M-13 1099L46 1189M46 1189L-14 1179M46 1189L56 1244M46 1189L73 1289M2606 1189L2546 1179M144 1160L180 1121M180 1121L241 1231M299 1171L359 1197M299 1171L241 1231M299 1171L360 1226M359 1197L413 1141M359 1197L360 1226M359 1197L423 1207M413 1141L423 1207M544 1152L560 1142M544 1152L646 1199M560 1142L646 1199M560 1142L612 1231M646 1199L612 1231M646 1199L686 1276M776 1180L866 1182M776 1180L775 1241M866 1182L946 1128M866 1182L849 1243M866 1182L939 1269M866 1182L882 1285M946 1128L1031 1159M1031 1159L1036 1209M1031 1159L1087 1204M1106 1169L1156 1164M1106 1169L1036 1209M1106 1169L1087 1204M1106 1169L1157 1220M1156 1164L1087 1204M1156 1164L1157 1220M1253 1134L1296 1172M1253 1134L1244 1218M1296 1172L1384 1135M1296 1172L1244 1218M1296 1172L1325 1257M1494 1130L1445 1223M1494 1130L1532 1202M1599 1159L1609 1143M1599 1159L1682 1200M1599 1159L1532 1202M1599 1159L1664 1215M1609 1143L1682 1200M1609 1143L1532 1202M1609 1143L1664 1215M1682 1200L1664 1215M1682 1200L1756 1230M1800 1186L1866 1179M1800 1186L1756 1230M1800 1186L1832 1231M1800 1186L1847 1261M1866 1179L1947 1155M1866 1179L1832 1231M1866 1179L1847 1261M1866 1179L1940 1202M1947 1155L2004 1158M1947 1155L1940 1202M2004 1158L2118 1149M2004 1158L1940 1202M2004 1158L2029 1279M2220 1152L2301 1178M2220 1152L2213 1204M2220 1152L2257 1208M2301 1178L2329 1163M2301 1178L2213 1204M2301 1178L2257 1208M2329 1163L2257 1208M2329 1163L2365 1250M2424 1155L2471 1219M2546 1179L2616 1244M2546 1179L2471 1219M2546 1179L2495 1269M-14 1179L56 1244M56 1244L132 1269M56 1244L73 1289M56 1244L-13 1302M2616 1244L2547 1302M132 1269L197 1264M132 1269L73 1289M132 1269L152 1353M132 1269L219 1283M197 1264L241 1231M197 1264L152 1353M197 1264L219 1283M197 1264L265 1296M241 1231L219 1283M241 1231L265 1296M360 1226L423 1207M360 1226L378 1325M360 1226L418 1285M423 1207L489 1261M423 1207L418 1285M489 1261L418 1285M489 1261L526 1296M489 1261L574 1326M612 1231L686 1276M612 1231L526 1296M686 1276L775 1241M686 1276L656 1336M686 1276L742 1283M775 1241L849 1243M775 1241L742 1283M849 1243L939 1269M849 1243L847 1336M849 1243L882 1285M939 1269L847 1336M939 1269L882 1285M939 1269L1012 1315M1036 1209L1087 1204M1036 1209L1012 1315M1087 1204L1157 1220M1157 1220L1244 1218M1244 1218L1325 1257M1325 1257L1300 1333M1435 1276L1445 1223M1435 1276L1437 1306M1435 1276L1487 1288M1435 1276L1404 1366M1445 1223L1532 1202M1445 1223L1437 1306M1445 1223L1487 1288M1532 1202L1487 1288M1664 1215L1756 1230M1664 1215L1657 1297M1756 1230L1832 1231M1756 1230L1748 1321M1832 1231L1847 1261M1832 1231L1940 1202M1847 1261L1839 1351M1847 1261L1888 1346M2029 1279L1981 1341M2029 1279L2071 1325M2147 1262L2213 1204M2147 1262L2158 1302M2147 1262L2161 1299M2213 1204L2257 1208M2257 1208L2298 1282M2365 1250L2298 1282M2365 1250L2383 1299M2471 1219L2495 1269M2495 1269L2450 1311M2495 1269L2547 1302M73 1289L-13 1302M73 1289L88 1372M2633 1289L2547 1302M152 1353L88 1372M152 1353L194 1392M219 1283L265 1296M219 1283L194 1392M265 1296L378 1325M265 1296L194 1392M378 1325L418 1285M378 1325L380 1434M378 1325L439 1398M418 1285L526 1296M526 1296L574 1326M526 1296L514 1405M574 1326L656 1336M656 1336L742 1283M656 1336L613 1427M656 1336L713 1408M847 1336L882 1285M847 1336L842 1381M847 1336L918 1381M882 1285L842 1381M1012 1315L1061 1346M1012 1315L1033 1368M1012 1315L1081 1372M1061 1346L1130 1324M1061 1346L1033 1368M1061 1346L1081 1372M1061 1346L1151 1364M1130 1324L1206 1330M1130 1324L1033 1368M1130 1324L1081 1372M1130 1324L1151 1364M1206 1330L1300 1333M1206 1330L1151 1364M1206 1330L1261 1378M1300 1333L1261 1378M1300 1333L1347 1400M1437 1306L1487 1288M1437 1306L1404 1366M1487 1288L1577 1322M1577 1322L1657 1297M1577 1322L1539 1419M1657 1297L1748 1321M1657 1297L1715 1374M1748 1321L1839 1351M1748 1321L1715 1374M1839 1351L1888 1346M1839 1351L1828 1418M1839 1351L1859 1380M1888 1346L1981 1341M1888 1346L1828 1418M1888 1346L1859 1380M1981 1341L2011 1406M2071 1325L2158 1302M2071 1325L2161 1299M2071 1325L2011 1406M2071 1325L2118 1406M2158 1302L2161 1299M2158 1302L2118 1406M2158 1302L2214 1404M2298 1282L2383 1299M2298 1282L2295 1366M2298 1282L2356 1374M2383 1299L2450 1311M2383 1299L2356 1374M2383 1299L2457 1376M2450 1311L2547 1302M2450 1311L2457 1376M2450 1311L2501 1381M2547 1302L2501 1381M32 1420L88 1372M32 1420L-59 1381M2592 1420L2501 1381M88 1372L194 1392M307 1402L380 1434M380 1434L439 1398M439 1398L514 1405M613 1427L713 1408M713 1408L740 1433M740 1433L842 1381M842 1381L918 1381M1033 1368L1081 1372M1081 1372L1151 1364M1151 1364L1261 1378M1261 1378L1347 1400M1347 1400L1404 1366M1404 1366L1458 1440M1458 1440L1539 1419M1539 1419L1619 1435M1619 1435L1715 1374M1828 1418L1859 1380M1859 1380L1938 1439M1938 1439L2011 1406M2011 1406L2118 1406M2118 1406L2214 1404M2214 1404L2295 1366M2295 1366L2356 1374M2356 1374L2457 1376M2457 1376L2501 1381"/></svg>