<svg xmlns="http://www.w3.org/2000/svg" width="2560" height="1440" fill="#fff"><circle cx="56" cy="45" r="4"/><circle cx="138" cy="59" r="6"/><circle cx="202" cy="36" r="5"/><circle cx="290" cy="16" r="6"/><circle cx="327" cy="8" r="4"/><circle cx="471" cy="17" r="4"/><circle cx="546" cy="73" r="4"/><circle cx="573" cy="55" r="4"/><circle cx="657" cy="67" r="5"/><circle cx="749" cy="56" r="5"/><circle cx="861" cy="57" r="6"/><circle cx="930" cy="56" r="4"/><circle cx="979" cy="57" r="5"/><circle cx="1063" cy="12" r="5"/><circle cx="1139" cy="6" r="5"/><circle cx="1206" cy="6" r="5"/><circle cx="1350" cy="34" r="6"/><circle cx="1410" cy="29" r="6"/><circle cx="1462" cy="58" r="5"/><circle cx="1566" cy="77" r="6"/><circle cx="1661" cy="39" r="6"/><circle cx="1733" cy="39" r="4"/><circle cx="1781" cy="73" r="5"/><circle cx="1845" cy="72" r="6"/><circle cx="1967" cy="38" r="6"/><circle cx="2061" cy="39" r="6"/><circle cx="2114" cy="17" r="4"/><circle cx="2212" cy="13" r="5"/><circle cx="2312" cy="49" r="5"/><circle cx="2320" cy="31" r="6"/><circle cx="2406" cy="72" r="5"/><circle cx="2528" cy="3" r="6"/><circle cx="2528" cy="1443" r="6"/><circle cx="16" cy="116" r="5"/><circle cx="106" cy="120" r="5"/><circle cx="203" cy="83" r="4"/><circle cx="244" cy="160" r="6"/><circle cx="373" cy="121" r="5"/><circle cx="434" cy="140" r="4"/><circle cx="510" cy="87" r="4"/><circle cx="614" cy="99" r="6"/><circle cx="669" cy="95" r="6"/><circle cx="743" cy="153" r="5"/><circle cx="810" cy="111" r="5"/><circle cx="913" cy="140" r="5"/><circle cx="1026" cy="156" r="4"/><circle cx="1079" cy="82" r="5"/><circle cx="1139" cy="117" r="5"/><circle cx="1239" cy="154" r="4"/><circle cx="1340" cy="116" r="5"/><circle cx="1373" cy="92" r="6"/><circle cx="1461" cy="112" r="6"/><circle cx="1529" cy="114" r="6"/><circle cx="1655" cy="112" r="5"/><circle cx="1692" cy="108" r="5"/><circle cx="1821" cy="144" r="4"/><circle cx="1854" cy="155" r="5"/><circle cx="1946" cy="139" r="6"/><circle cx="2021" cy="113" r="4"/><circle cx="2100" cy="151" r="4"/><circle cx="2235" cy="116" r="5"/><circle cx="2292" cy="149" r="6"/><circle cx="2350" cy="94" r="4"/><circle cx="2431" cy="99" r="5"/><circle cx="2494" cy="97" r="5"/><circle cx="61" cy="214" r="4"/><circle cx="80" cy="225" r="6"/><circle cx="185" cy="218" r="6"/><circle cx="277" cy="227" r="5"/><circle cx="359" cy="180" r="6"/><circle cx="428" cy="173" r="5"/><circle cx="544" cy="200" r="6"/><circle cx="576" cy="223" r="5"/><circle cx="687" cy="175" r="5"/><circle cx="725" cy="239" r="6"/><circle cx="866" cy="172" r="6"/><circle cx="907" cy="166" r="6"/><circle cx="1025" cy="186" r="5"/><circle cx="1078" cy="204" r="6"/><circle cx="1134" cy="174" r="5"/><circle cx="1228" cy="218" r="6"/><circle cx="1343" cy="198" r="6"/><circle cx="1419" cy="202" r="5"/><circle cx="1450" cy="226" r="6"/><circle cx="1536" cy="240" r="6"/><circle cx="1628" cy="205" r="5"/><circle cx="1747" cy="230" r="5"/><circle cx="1795" cy="235" r="5"/><circle cx="1889" cy="193" r="5"/><circle cx="1953" cy="170" r="4"/><circle cx="2053" cy="161" r="5"/><circle cx="2082" cy="212" r="6"/><circle cx="2175" cy="191" r="6"/><circle cx="2300" cy="218" r="5"/><circle cx="2364" cy="174" r="6"/><circle cx="2470" cy="218" r="5"/><circle cx="2542" cy="196" r="4"/><circle cx="65" cy="315" r="6"/><circle cx="92" cy="263" r="5"/><circle cx="196" cy="267" r="4"/><circle cx="273" cy="306" r="5"/><circle cx="367" cy="305" r="4"/><circle cx="429" cy="245" r="6"/><circle cx="531" cy="274" r="6"/><circle cx="631" cy="280" r="4"/><circle cx="674" cy="295" r="5"/><circle cx="775" cy="283" r="5"/><circle cx="874" cy="284" r="6"/><circle cx="920" cy="252" r="5"/><circle cx="1011" cy="248" r="4"/><circle cx="1060" cy="319" r="6"/><circle cx="1166" cy="284" r="6"/><circle cx="1229" cy="263" r="6"/><circle cx="1312" cy="268" r="5"/><circle cx="1426" cy="313" r="5"/><circle cx="1450" cy="290" r="5"/><circle cx="1587" cy="279" r="5"/><circle cx="1641" cy="290" r="4"/><circle cx="1704" cy="295" r="4"/><circle cx="1808" cy="287" r="5"/><circle cx="1894" cy="249" r="5"/><circle cx="1935" cy="314" r="5"/><circle cx="2004" cy="286" r="5"/><circle cx="2107" cy="252" r="5"/><circle cx="2214" cy="243" r="5"/><circle cx="2316" cy="245" r="5"/><circle cx="2353" cy="241" r="6"/><circle cx="2479" cy="297" r="6"/><circle cx="2484" cy="261" r="5"/><circle cx="10" cy="321" r="5"/><circle cx="131" cy="371" r="5"/><circle cx="206" cy="395" r="4"/><circle cx="297" cy="350" r="5"/><circle cx="349" cy="376" r="5"/><circle cx="414" cy="343" r="5"/><circle cx="513" cy="334" r="5"/><circle cx="587" cy="370" r="5"/><circle cx="670" cy="370" r="5"/><circle cx="774" cy="349" r="5"/><circle cx="879" cy="327" r="6"/><circle cx="939" cy="380" r="4"/><circle cx="989" cy="373" r="4"/><circle cx="1100" cy="325" r="4"/><circle cx="1176" cy="328" r="5"/><circle cx="1202" cy="345" r="6"/><circle cx="1360" cy="328" r="5"/><circle cx="1421" cy="326" r="6"/><circle cx="1507" cy="387" r="6"/><circle cx="1574" cy="347" r="5"/><circle cx="1621" cy="321" r="4"/><circle cx="1711" cy="356" r="6"/><circle cx="1782" cy="383" r="5"/><circle cx="1873" cy="346" r="5"/><circle cx="1937" cy="385" r="6"/><circle cx="2059" cy="331" r="5"/><circle cx="2123" cy="344" r="5"/><circle cx="2219" cy="369" r="5"/><circle cx="2252" cy="341" r="6"/><circle cx="2367" cy="326" r="4"/><circle cx="2416" cy="329" r="4"/><circle cx="2545" cy="396" r="4"/><circle cx="9" cy="461" r="5"/><circle cx="135" cy="414" r="5"/><circle cx="214" cy="454" r="5"/><circle cx="256" cy="445" r="6"/><circle cx="345" cy="445" r="4"/><circle cx="403" cy="474" r="4"/><circle cx="535" cy="470" r="5"/><circle cx="573" cy="434" r="6"/><circle cx="644" cy="436" r="6"/><circle cx="738" cy="406" r="6"/><circle cx="838" cy="433" r="5"/><circle cx="932" cy="447" r="5"/><circle cx="1019" cy="415" r="5"/><circle cx="1074" cy="427" r="6"/><circle cx="1188" cy="435" r="5"/><circle cx="1209" cy="464" r="4"/><circle cx="1327" cy="448" r="5"/><circle cx="1433" cy="406" r="5"/><circle cx="1513" cy="455" r="5"/><circle cx="1535" cy="453" r="5"/><circle cx="1628" cy="446" r="5"/><circle cx="1736" cy="437" r="5"/><circle cx="1803" cy="425" r="5"/><circle cx="1855" cy="403" r="4"/><circle cx="1948" cy="431" r="6"/><circle cx="2030" cy="448" r="4"/><circle cx="2135" cy="402" r="5"/><circle cx="2173" cy="458" r="5"/><circle cx="2252" cy="474" r="4"/><circle cx="2322" cy="438" r="5"/><circle cx="2452" cy="455" r="5"/><circle cx="2492" cy="452" r="5"/><circle cx="65" cy="535" r="4"/><circle cx="87" cy="484" r="5"/><circle cx="236" cy="520" r="4"/><circle cx="250" cy="507" r="5"/><circle cx="328" cy="517" r="4"/><circle cx="420" cy="551" r="6"/><circle cx="545" cy="511" r="4"/><circle cx="622" cy="517" r="5"/><circle cx="699" cy="541" r="5"/><circle cx="777" cy="486" r="4"/><circle cx="860" cy="483" r="5"/><circle cx="924" cy="516" r="4"/><circle cx="988" cy="523" r="4"/><circle cx="1054" cy="489" r="6"/><circle cx="1168" cy="534" r="6"/><circle cx="1277" cy="508" r="4"/><circle cx="1346" cy="513" r="5"/><circle cx="1393" cy="524" r="6"/><circle cx="1475" cy="531" r="5"/><circle cx="1569" cy="508" r="5"/><circle cx="1621" cy="510" r="6"/><circle cx="1712" cy="557" r="6"/><circle cx="1839" cy="546" r="5"/><circle cx="1848" cy="508" r="6"/><circle cx="1998" cy="546" r="6"/><circle cx="2021" cy="554" r="5"/><circle cx="2104" cy="487" r="6"/><circle cx="2194" cy="540" r="6"/><circle cx="2261" cy="551" r="6"/><circle cx="2355" cy="534" r="5"/><circle cx="2464" cy="525" r="4"/><circle cx="2542" cy="497" r="5"/><circle cx="47" cy="633" r="5"/><circle cx="154" cy="620" r="6"/><circle cx="223" cy="611" r="6"/><circle cx="297" cy="624" r="4"/><circle cx="393" cy="625" r="5"/><circle cx="415" cy="582" r="4"/><circle cx="518" cy="592" r="5"/><circle cx="605" cy="622" r="5"/><circle cx="713" cy="603" r="5"/><circle cx="722" cy="634" r="6"/><circle cx="862" cy="606" r="4"/><circle cx="906" cy="577" r="5"/><circle cx="976" cy="598" r="5"/><circle cx="1077" cy="636" r="5"/><circle cx="1175" cy="570" r="5"/><circle cx="1249" cy="567" r="6"/><circle cx="1287" cy="606" r="5"/><circle cx="1398" cy="593" r="4"/><circle cx="1507" cy="625" r="6"/><circle cx="1573" cy="615" r="5"/><circle cx="1620" cy="593" r="4"/><circle cx="1731" cy="614" r="5"/><circle cx="1809" cy="603" r="4"/><circle cx="1854" cy="622" r="6"/><circle cx="1967" cy="628" r="5"/><circle cx="2053" cy="603" r="5"/><circle cx="2120" cy="567" r="6"/><circle cx="2215" cy="639" r="4"/><circle cx="2314" cy="622" r="5"/><circle cx="2382" cy="561" r="4"/><circle cx="2446" cy="597" r="5"/><circle cx="2543" cy="621" r="4"/><circle cx="34" cy="684" r="5"/><circle cx="146" cy="702" r="6"/><circle cx="180" cy="708" r="4"/><circle cx="263" cy="644" r="5"/><circle cx="326" cy="681" r="4"/><circle cx="443" cy="715" r="5"/><circle cx="521" cy="707" r="5"/><circle cx="563" cy="657" r="5"/><circle cx="645" cy="647" r="5"/><circle cx="720" cy="672" r="5"/><circle cx="810" cy="680" r="5"/><circle cx="934" cy="686" r="4"/><circle cx="1029" cy="653" r="5"/><circle cx="1075" cy="690" r="5"/><circle cx="1137" cy="715" r="5"/><circle cx="1228" cy="644" r="5"/><circle cx="1345" cy="652" r="5"/><circle cx="1368" cy="643" r="5"/><circle cx="1447" cy="694" r="4"/><circle cx="1523" cy="692" r="5"/><circle cx="1659" cy="681" r="6"/><circle cx="1737" cy="676" r="5"/><circle cx="1761" cy="716" r="5"/><circle cx="1915" cy="710" r="4"/><circle cx="1968" cy="698" r="6"/><circle cx="2063" cy="716" r="6"/><circle cx="2110" cy="640" r="5"/><circle cx="2186" cy="651" r="5"/><circle cx="2282" cy="697" r="6"/><circle cx="2349" cy="696" r="4"/><circle cx="2480" cy="709" r="4"/><circle cx="2554" cy="642" r="6"/><circle cx="51" cy="768" r="6"/><circle cx="138" cy="793" r="5"/><circle cx="185" cy="732" r="4"/><circle cx="263" cy="754" r="5"/><circle cx="323" cy="751" r="4"/><circle cx="466" cy="727" r="6"/><circle cx="531" cy="774" r="5"/><circle cx="633" cy="777" r="6"/><circle cx="705" cy="783" r="6"/><circle cx="737" cy="727" r="5"/><circle cx="815" cy="750" r="5"/><circle cx="941" cy="732" r="6"/><circle cx="1017" cy="799" r="5"/><circle cx="1117" cy="756" r="4"/><circle cx="1187" cy="738" r="6"/><circle cx="1237" cy="772" r="5"/><circle cx="1342" cy="743" r="4"/><circle cx="1407" cy="788" r="5"/><circle cx="1499" cy="799" r="5"/><circle cx="1572" cy="797" r="5"/><circle cx="1612" cy="768" r="6"/><circle cx="1735" cy="787" r="5"/><circle cx="1791" cy="728" r="6"/><circle cx="1863" cy="737" r="6"/><circle cx="1999" cy="793" r="4"/><circle cx="2021" cy="725" r="5"/><circle cx="2117" cy="789" r="5"/><circle cx="2178" cy="752" r="6"/><circle cx="2249" cy="794" r="4"/><circle cx="2343" cy="790" r="4"/><circle cx="2453" cy="796" r="6"/><circle cx="2519" cy="783" r="5"/><circle cx="44" cy="877" r="4"/><circle cx="151" cy="877" r="6"/><circle cx="206" cy="842" r="6"/><circle cx="277" cy="822" r="5"/><circle cx="371" cy="868" r="6"/><circle cx="475" cy="843" r="5"/><circle cx="540" cy="878" r="6"/><circle cx="623" cy="839" r="4"/><circle cx="657" cy="867" r="5"/><circle cx="790" cy="829" r="5"/><circle cx="821" cy="860" r="4"/><circle cx="956" cy="840" r="4"/><circle cx="963" cy="836" r="4"/><circle cx="1074" cy="854" r="5"/><circle cx="1155" cy="863" r="6"/><circle cx="1270" cy="849" r="4"/><circle cx="1309" cy="829" r="5"/><circle cx="1370" cy="840" r="4"/><circle cx="1451" cy="807" r="5"/><circle cx="1531" cy="828" r="5"/><circle cx="1678" cy="867" r="4"/><circle cx="1743" cy="839" r="5"/><circle cx="1761" cy="876" r="5"/><circle cx="1849" cy="823" r="6"/><circle cx="1991" cy="868" r="6"/><circle cx="2025" cy="876" r="5"/><circle cx="2100" cy="846" r="5"/><circle cx="2162" cy="876" r="5"/><circle cx="2280" cy="869" r="4"/><circle cx="2360" cy="853" r="6"/><circle cx="2432" cy="853" r="5"/><circle cx="2525" cy="848" r="6"/><circle cx="71" cy="894" r="5"/><circle cx="89" cy="959" r="5"/><circle cx="239" cy="892" r="6"/><circle cx="273" cy="896" r="5"/><circle cx="352" cy="958" r="5"/><circle cx="443" cy="903" r="5"/><circle cx="544" cy="889" r="6"/><circle cx="592" cy="896" r="6"/><circle cx="669" cy="891" r="5"/><circle cx="778" cy="898" r="5"/><circle cx="844" cy="947" r="5"/><circle cx="932" cy="935" r="4"/><circle cx="1016" cy="956" r="6"/><circle cx="1063" cy="891" r="4"/><circle cx="1173" cy="942" r="6"/><circle cx="1208" cy="911" r="4"/><circle cx="1352" cy="929" r="4"/><circle cx="1416" cy="933" r="5"/><circle cx="1489" cy="928" r="4"/><circle cx="1539" cy="929" r="5"/><circle cx="1600" cy="941" r="5"/><circle cx="1732" cy="896" r="6"/><circle cx="1797" cy="948" r="5"/><circle cx="1842" cy="950" r="4"/><circle cx="1933" cy="932" r="5"/><circle cx="2024" cy="926" r="4"/><circle cx="2097" cy="946" r="4"/><circle cx="2199" cy="891" r="6"/><circle cx="2305" cy="881" r="6"/><circle cx="2366" cy="947" r="5"/><circle cx="2404" cy="932" r="6"/><circle cx="2519" cy="896" r="5"/><circle cx="12" cy="1008" r="6"/><circle cx="158" cy="1006" r="6"/><circle cx="186" cy="1036" r="5"/><circle cx="292" cy="973" r="5"/><circle cx="323" cy="969" r="5"/><circle cx="455" cy="990" r="5"/><circle cx="488" cy="1021" r="6"/><circle cx="606" cy="986" r="4"/><circle cx="673" cy="990" r="6"/><circle cx="730" cy="1025" r="6"/><circle cx="844" cy="1039" r="6"/><circle cx="950" cy="960" r="5"/><circle cx="1034" cy="1032" r="4"/><circle cx="1068" cy="1032" r="5"/><circle cx="1179" cy="969" r="5"/><circle cx="1265" cy="963" r="6"/><circle cx="1302" cy="1003" r="6"/><circle cx="1395" cy="961" r="6"/><circle cx="1455" cy="1012" r="6"/><circle cx="1545" cy="995" r="5"/><circle cx="1628" cy="1029" r="6"/><circle cx="1727" cy="1022" r="6"/><circle cx="1794" cy="1023" r="5"/><circle cx="1845" cy="970" r="5"/><circle cx="1969" cy="996" r="5"/><circle cx="2010" cy="961" r="6"/><circle cx="2150" cy="1030" r="5"/><circle cx="2229" cy="1025" r="5"/><circle cx="2290" cy="968" r="5"/><circle cx="2340" cy="961" r="5"/><circle cx="2423" cy="966" r="6"/><circle cx="2538" cy="967" r="5"/><circle cx="63" cy="1047" r="6"/><circle cx="100" cy="1114" r="6"/><circle cx="194" cy="1103" r="5"/><circle cx="290" cy="1113" r="5"/><circle cx="347" cy="1079" r="5"/><circle cx="407" cy="1072" r="5"/><circle cx="548" cy="1075" r="6"/><circle cx="592" cy="1087" r="5"/><circle cx="693" cy="1081" r="5"/><circle cx="780" cy="1069" r="5"/><circle cx="849" cy="1086" r="4"/><circle cx="920" cy="1043" r="6"/><circle cx="1031" cy="1069" r="6"/><circle cx="1118" cy="1115" r="4"/><circle cx="1155" cy="1060" r="5"/><circle cx="1217" cy="1081" r="5"/><circle cx="1356" cy="1115" r="4"/><circle cx="1400" cy="1077" r="5"/><circle cx="1499" cy="1110" r="4"/><circle cx="1571" cy="1066" r="5"/><circle cx="1618" cy="1089" r="5"/><circle cx="1690" cy="1089" r="4"/><circle cx="1781" cy="1048" r="6"/><circle cx="1877" cy="1090" r="4"/><circle cx="1961" cy="1049" r="5"/><circle cx="2024" cy="1079" r="4"/><circle cx="2152" cy="1097" r="4"/><circle cx="2163" cy="1081" r="6"/><circle cx="2289" cy="1096" r="5"/><circle cx="2351" cy="1071" r="5"/><circle cx="2477" cy="1082" r="5"/><circle cx="2543" cy="1079" r="6"/><circle cx="6" cy="1126" r="4"/><circle cx="152" cy="1171" r="5"/><circle cx="232" cy="1174" r="4"/><circle cx="305" cy="1180" r="6"/><circle cx="399" cy="1191" r="6"/><circle cx="418" cy="1172" r="5"/><circle cx="488" cy="1122" r="6"/><circle cx="564" cy="1185" r="4"/><circle cx="712" cy="1196" r="5"/><circle cx="724" cy="1155" r="4"/><circle cx="859" cy="1134" r="5"/><circle cx="947" cy="1166" r="5"/><circle cx="1004" cy="1178" r="5"/><circle cx="1100" cy="1143" r="5"/><circle cx="1144" cy="1148" r="5"/><circle cx="1269" cy="1142" r="5"/><circle cx="1336" cy="1191" r="5"/><circle cx="1366" cy="1130" r="5"/><circle cx="1485" cy="1187" r="5"/><circle cx="1593" cy="1123" r="6"/><circle cx="1642" cy="1148" r="4"/><circle cx="1720" cy="1155" r="5"/><circle cx="1831" cy="1200" r="6"/><circle cx="1857" cy="1126" r="6"/><circle cx="1946" cy="1180" r="5"/><circle cx="2072" cy="1194" r="6"/><circle cx="2082" cy="1171" r="5"/><circle cx="2190" cy="1172" r="5"/><circle cx="2291" cy="1200" r="5"/><circle cx="2358" cy="1151" r="5"/><circle cx="2416" cy="1172" r="4"/><circle cx="2509" cy="1200" r="5"/><circle cx="16" cy="1234" r="5"/><circle cx="144" cy="1233" r="6"/><circle cx="222" cy="1202" r="5"/><circle cx="311" cy="1231" r="5"/><circle cx="379" cy="1229" r="6"/><circle cx="413" cy="1250" r="5"/><circle cx="498" cy="1229" r="5"/><circle cx="576" cy="1234" r="5"/><circle cx="719" cy="1262" r="5"/><circle cx="732" cy="1265" r="6"/><circle cx="837" cy="1207" r="5"/><circle cx="942" cy="1259" r="5"/><circle cx="1022" cy="1208" r="5"/><circle cx="1080" cy="1257" r="5"/><circle cx="1190" cy="1272" r="5"/><circle cx="1206" cy="1233" r="5"/><circle cx="1331" cy="1227" r="5"/><circle cx="1432" cy="1278" r="6"/><circle cx="1474" cy="1251" r="5"/><circle cx="1560" cy="1217" r="4"/><circle cx="1645" cy="1274" r="4"/><circle cx="1757" cy="1228" r="5"/><circle cx="1773" cy="1252" r="6"/><circle cx="1866" cy="1218" r="5"/><circle cx="1923" cy="1275" r="6"/><circle cx="2012" cy="1202" r="6"/><circle cx="2095" cy="1269" r="5"/><circle cx="2213" cy="1219" r="6"/><circle cx="2240" cy="1230" r="4"/><circle cx="2358" cy="1222" r="5"/><circle cx="2437" cy="1239" r="4"/><circle cx="2514" cy="1264" r="4"/><circle cx="21" cy="1333" r="4"/><circle cx="88" cy="1282" r="6"/><circle cx="181" cy="1343" r="5"/><circle cx="306" cy="1352" r="4"/><circle cx="383" cy="1328" r="6"/><circle cx="412" cy="1285" r="5"/><circle cx="483" cy="1329" r="6"/><circle cx="589" cy="1347" r="5"/><circle cx="699" cy="1335" r="4"/><circle cx="782" cy="1291" r="4"/><circle cx="847" cy="1283" r="5"/><circle cx="948" cy="1343" r="6"/><circle cx="973" cy="1304" r="5"/><circle cx="1103" cy="1342" r="4"/><circle cx="1173" cy="1283" r="4"/><circle cx="1210" cy="1356" r="5"/><circle cx="1324" cy="1284" r="6"/><circle cx="1418" cy="1344" r="5"/><circle cx="1475" cy="1285" r="6"/><circle cx="1579" cy="1308" r="4"/><circle cx="1666" cy="1292" r="4"/><circle cx="1722" cy="1293" r="5"/><circle cx="1800" cy="1357" r="5"/><circle cx="1875" cy="1280" r="4"/><circle cx="2000" cy="1307" r="6"/><circle cx="2037" cy="1308" r="4"/><circle cx="2117" cy="1284" r="6"/><circle cx="2202" cy="1303" r="5"/><circle cx="2290" cy="1300" r="4"/><circle cx="2353" cy="1335" r="6"/><circle cx="2455" cy="1318" r="5"/><circle cx="2555" cy="1355" r="6"/><circle cx="-5" cy="1355" r="6"/><circle cx="64" cy="1368" r="4"/><circle cx="150" cy="1437" r="5"/><circle cx="150" cy="-3" r="5"/><circle cx="213" cy="1366" r="4"/><circle cx="305" cy="1365" r="4"/><circle cx="394" cy="1404" r="5"/><circle cx="434" cy="1429" r="6"/><circle cx="507" cy="1425" r="6"/><circle cx="602" cy="1393" r="5"/><circle cx="688" cy="1438" r="4"/><circle cx="688" cy="-2" r="4"/><circle cx="787" cy="1380" r="4"/><circle cx="875" cy="1375" r="4"/><circle cx="904" cy="1394" r="5"/><circle cx="1019" cy="1395" r="5"/><circle cx="1097" cy="1434" r="5"/><circle cx="1163" cy="1410" r="5"/><circle cx="1274" cy="1378" r="5"/><circle cx="1315" cy="1391" r="5"/><circle cx="1371" cy="1426" r="4"/><circle cx="1509" cy="1375" r="5"/><circle cx="1563" cy="1368" r="5"/><circle cx="1632" cy="1412" r="6"/><circle cx="1728" cy="1372" r="4"/><circle cx="1794" cy="1422" r="4"/><circle cx="1864" cy="1371" r="5"/><circle cx="1976" cy="1408" r="4"/><circle cx="2072" cy="1395" r="4"/><circle cx="2149" cy="1438" r="5"/><circle cx="2149" cy="-2" r="5"/><circle cx="2172" cy="1435" r="5"/><circle cx="2172" cy="-5" r="5"/><circle cx="2271" cy="1437" r="5"/><circle cx="2271" cy="-3" r="5"/><circle cx="2393" cy="1376" r="6"/><circle cx="2451" cy="1424" r="4"/><circle cx="2532" cy="1377" r="4"/><path stroke="#fff" d="M56 45L138 59M56 45L-32 3M56 45L16 116M56 45L106 120M2616 45L2528 3M138 59L202 36M138 59L106 120M138 59L203 83M138 59L150 -3M138 1499L150 1437M202 36L290 16M202 36L203 83M202 36L150 -3M202 36L213 -74M202 1476L150 1437M202 1476L213 1366M290 16L327 8M290 16L306 -88M290 16L305 -75M290 1456L306 1352M290 1456L305 1365M327 8L306 -88M327 8L305 -75M327 8L394 -36M327 8L434 -11M327 1448L306 1352M327 1448L305 1365M327 1448L394 1404M327 1448L434 1429M471 17L546 73M471 17L510 87M471 17L394 -36M471 17L434 -11M471 17L507 -15M471 1457L394 1404M471 1457L434 1429M471 1457L507 1425M546 73L573 55M546 73L510 87M546 73L614 99M573 55L657 67M573 55L510 87M573 55L614 99M573 55L507 -15M573 1495L507 1425M657 67L749 56M657 67L614 99M657 67L669 95M657 67L688 -2M657 1507L688 1438M749 56L669 95M749 56L743 153M749 56L810 111M749 56L688 -2M749 1496L688 1438M861 57L930 56M861 57L810 111M861 57L913 140M861 57L907 166M930 56L979 57M930 56L913 140M930 56L904 -46M930 1496L904 1394M979 57L1063 12M979 57L913 140M979 57L1019 -45M979 1497L1019 1395M1063 12L1139 6M1063 12L1079 82M1063 12L1019 -45M1063 12L1097 -6M1063 1452L1019 1395M1063 1452L1097 1434M1139 6L1206 6M1139 6L1079 82M1139 6L1097 -6M1139 6L1163 -30M1139 1446L1097 1434M1139 1446L1163 1410M1206 6L1210 -84M1206 6L1163 -30M1206 6L1274 -62M1206 1446L1210 1356M1206 1446L1163 1410M1206 1446L1274 1378M1350 34L1410 29M1350 34L1340 116M1350 34L1373 92M1350 34L1315 -49M1350 34L1371 -14M1350 1474L1315 1391M1350 1474L1371 1426M1410 29L1462 58M1410 29L1373 92M1410 29L1461 112M1410 29L1371 -14M1410 1469L1371 1426M1462 58L1566 77M1462 58L1373 92M1462 58L1461 112M1462 58L1529 114M1566 77L1661 39M1566 77L1529 114M1566 77L1655 112M1661 39L1733 39M1661 39L1655 112M1661 39L1692 108M1661 39L1632 -28M1661 1479L1632 1412M1733 39L1781 73M1733 39L1692 108M1733 39L1794 -18M1733 1479L1794 1422M1781 73L1845 72M1781 73L1692 108M1781 73L1821 144M1781 73L1794 -18M1781 1513L1794 1422M1845 72L1821 144M1845 72L1854 155M1967 38L2061 39M1967 38L1946 139M1967 38L2021 113M1967 38L1976 -32M1967 1478L1976 1408M2061 39L2114 17M2061 39L2021 113M2061 39L2072 -45M2061 39L2149 -2M2061 1479L2072 1395M2061 1479L2149 1438M2114 17L2072 -45M2114 17L2149 -2M2114 17L2172 -5M2114 1457L2072 1395M2114 1457L2149 1438M2114 1457L2172 1435M2212 13L2149 -2M2212 13L2172 -5M2212 13L2271 -3M2212 1453L2149 1438M2212 1453L2172 1435M2212 1453L2271 1437M2312 49L2320 31M2312 49L2406 72M2312 49L2292 149M2312 49L2350 94M2312 49L2271 -3M2312 1489L2271 1437M2320 31L2406 72M2320 31L2350 94M2320 31L2271 -3M2320 31L2393 -64M2320 1471L2271 1437M2320 1471L2393 1376M2406 72L2350 94M2406 72L2431 99M2406 72L2494 97M2528 3L2494 97M2528 3L2555 -85M2528 3L2451 -16M2528 3L2532 -63M2528 1443L2555 1355M2528 1443L2451 1424M2528 1443L2532 1377M16 116L106 120M16 116L-66 97M16 116L61 214M16 116L-18 196M2576 116L2494 97M2576 116L2542 196M106 120L203 83M106 120L80 225M203 83L244 160M203 83L150 -3M203 1523L150 1437M244 160L185 218M244 160L277 227M244 160L196 267M373 121L434 140M373 121L359 180M373 121L428 173M434 140L359 180M434 140L428 173M614 99L669 95M614 99L687 175M669 95L743 153M669 95L687 175M743 153L810 111M743 153L687 175M743 153L725 239M810 111L866 172M810 111L907 166M913 140L866 172M913 140L907 166M1026 156L1079 82M1026 156L1025 186M1026 156L1078 204M1026 156L1011 248M1079 82L1139 117M1079 82L1097 -6M1079 1522L1097 1434M1139 117L1239 154M1139 117L1078 204M1139 117L1134 174M1239 154L1228 218M1239 154L1343 198M1340 116L1373 92M1340 116L1343 198M1373 92L1461 112M1461 112L1529 114M1461 112L1419 202M1655 112L1692 108M1655 112L1628 205M1692 108L1628 205M1821 144L1854 155M1821 144L1795 235M1821 144L1889 193M1854 155L1946 139M1854 155L1795 235M1854 155L1889 193M1946 139L2021 113M1946 139L1889 193M1946 139L1953 170M2021 113L2100 151M2021 113L2053 161M2100 151L2053 161M2100 151L2082 212M2100 151L2175 191M2235 116L2292 149M2235 116L2175 191M2292 149L2350 94M2292 149L2300 218M2292 149L2364 174M2350 94L2364 174M2431 99L2494 97M2431 99L2470 218M2431 99L2451 -16M2431 1539L2451 1424M2494 97L2542 196M61 214L80 225M61 214L-18 196M61 214L65 315M61 214L92 263M2621 214L2542 196M80 225L185 218M80 225L65 315M80 225L92 263M185 218L277 227M185 218L92 263M185 218L196 267M277 227L359 180M277 227L196 267M277 227L273 306M359 180L428 173M359 180L429 245M428 173L544 200M428 173L429 245M544 200L576 223M544 200L531 274M576 223L687 175M576 223L531 274M576 223L631 280M687 175L725 239M725 239L631 280M725 239L674 295M725 239L775 283M866 172L907 166M866 172L874 284M866 172L920 252M907 166L920 252M1025 186L1078 204M1025 186L1134 174M1025 186L1011 248M1078 204L1134 174M1078 204L1011 248M1134 174L1228 218M1228 218L1166 284M1228 218L1229 263M1228 218L1312 268M1343 198L1419 202M1343 198L1312 268M1419 202L1450 226M1419 202L1450 290M1450 226L1536 240M1450 226L1426 313M1450 226L1450 290M1450 226L1421 326M1536 240L1628 205M1536 240L1450 290M1536 240L1587 279M1536 240L1574 347M1628 205L1587 279M1628 205L1641 290M1747 230L1795 235M1747 230L1704 295M1747 230L1808 287M1795 235L1808 287M1795 235L1894 249M1889 193L1953 170M1889 193L1894 249M1953 170L2053 161M2053 161L2082 212M2082 212L2175 191M2082 212L2004 286M2082 212L2107 252M2175 191L2107 252M2175 191L2214 243M2300 218L2364 174M2300 218L2214 243M2300 218L2316 245M2300 218L2353 241M2364 174L2316 245M2364 174L2353 241M2470 218L2542 196M2470 218L2479 297M2470 218L2484 261M2542 196L2484 261M65 315L92 263M65 315L10 321M65 315L131 371M92 263L10 321M196 267L273 306M273 306L367 305M273 306L297 350M367 305L429 245M367 305L297 350M367 305L349 376M367 305L414 343M429 245L531 274M429 245L414 343M531 274L631 280M531 274L513 334M631 280L674 295M631 280L670 370M674 295L775 283M674 295L670 370M775 283L874 284M775 283L774 349M775 283L879 327M874 284L920 252M874 284L774 349M874 284L879 327M920 252L1011 248M920 252L879 327M1011 248L1060 319M1060 319L989 373M1060 319L1100 325M1060 319L1074 427M1166 284L1229 263M1166 284L1100 325M1166 284L1176 328M1166 284L1202 345M1229 263L1312 268M1229 263L1176 328M1229 263L1202 345M1312 268L1360 328M1426 313L1450 290M1426 313L1360 328M1426 313L1421 326M1426 313L1433 406M1450 290L1421 326M1587 279L1641 290M1587 279L1574 347M1587 279L1621 321M1641 290L1704 295M1641 290L1574 347M1641 290L1621 321M1704 295L1621 321M1704 295L1711 356M1808 287L1894 249M1808 287L1873 346M1894 249L1935 314M1935 314L2004 286M1935 314L1873 346M1935 314L1937 385M1935 314L1948 431M2004 286L2107 252M2004 286L1937 385M2004 286L2059 331M2107 252L2059 331M2107 252L2123 344M2214 243L2316 245M2214 243L2252 341M2316 245L2353 241M2316 245L2367 326M2353 241L2367 326M2353 241L2416 329M2479 297L2484 261M2479 297L2570 321M2479 297L2367 326M2479 297L2416 329M-81 297L10 321M2484 261L2570 321M2484 261L2416 329M-76 261L10 321M10 321L-15 396M2570 321L2545 396M131 371L206 395M131 371L135 414M131 371L87 484M206 395L297 350M206 395L135 414M206 395L214 454M206 395L256 445M297 350L349 376M349 376L414 343M349 376L345 445M414 343L513 334M513 334L587 370M587 370L670 370M587 370L535 470M587 370L573 434M587 370L644 436M670 370L644 436M670 370L738 406M774 349L879 327M774 349L738 406M774 349L838 433M879 327L939 380M939 380L989 373M939 380L932 447M939 380L1019 415M989 373L1019 415M989 373L1074 427M1100 325L1176 328M1100 325L1202 345M1100 325L1074 427M1176 328L1202 345M1176 328L1188 435M1202 345L1188 435M1360 328L1421 326M1360 328L1327 448M1360 328L1433 406M1421 326L1433 406M1507 387L1574 347M1507 387L1433 406M1507 387L1513 455M1507 387L1535 453M1507 387L1628 446M1574 347L1621 321M1621 321L1711 356M1711 356L1782 383M1711 356L1736 437M1711 356L1803 425M1782 383L1873 346M1782 383L1736 437M1782 383L1803 425M1782 383L1855 403M1873 346L1937 385M1873 346L1855 403M1937 385L1855 403M1937 385L1948 431M2059 331L2123 344M2059 331L2030 448M2059 331L2135 402M2123 344L2219 369M2123 344L2135 402M2219 369L2252 341M2219 369L2135 402M2219 369L2173 458M2219 369L2322 438M2252 341L2367 326M2252 341L2322 438M2367 326L2416 329M2545 396L2569 461M2545 396L2452 455M2545 396L2492 452M-15 396L9 461M9 461L-68 452M9 461L65 535M9 461L87 484M9 461L-18 497M2569 461L2492 452M2569 461L2542 497M135 414L214 454M135 414L87 484M214 454L256 445M214 454L236 520M214 454L250 507M256 445L345 445M256 445L236 520M256 445L250 507M345 445L403 474M345 445L328 517M403 474L328 517M403 474L420 551M403 474L415 582M535 470L573 434M535 470L545 511M535 470L622 517M573 434L644 436M573 434L545 511M573 434L622 517M644 436L738 406M644 436L622 517M738 406L838 433M738 406L777 486M838 433L932 447M838 433L777 486M838 433L860 483M932 447L1019 415M932 447L860 483M932 447L924 516M1019 415L1074 427M1019 415L1054 489M1074 427L1054 489M1188 435L1209 464M1188 435L1168 534M1209 464L1168 534M1209 464L1277 508M1209 464L1175 570M1327 448L1277 508M1327 448L1346 513M1327 448L1393 524M1433 406L1513 455M1513 455L1535 453M1513 455L1475 531M1513 455L1569 508M1535 453L1628 446M1535 453L1569 508M1535 453L1621 510M1628 446L1736 437M1628 446L1569 508M1628 446L1621 510M1736 437L1803 425M1736 437L1712 557M1803 425L1855 403M1803 425L1848 508M1855 403L1948 431M1948 431L2030 448M1948 431L1848 508M2030 448L1998 546M2030 448L2104 487M2135 402L2173 458M2135 402L2104 487M2173 458L2252 474M2173 458L2104 487M2173 458L2194 540M2252 474L2322 438M2252 474L2194 540M2252 474L2261 551M2322 438L2355 534M2452 455L2492 452M2452 455L2464 525M2492 452L2464 525M2492 452L2542 497M65 535L87 484M65 535L-18 497M65 535L47 633M2625 535L2542 497M87 484L-18 497M2647 484L2542 497M236 520L250 507M236 520L328 517M236 520L223 611M250 507L328 517M250 507L223 611M328 517L420 551M420 551L393 625M420 551L415 582M420 551L518 592M545 511L622 517M545 511L518 592M622 517L699 541M699 541L777 486M699 541L713 603M777 486L860 483M860 483L924 516M860 483L906 577M924 516L988 523M924 516L906 577M924 516L976 598M988 523L1054 489M988 523L906 577M988 523L976 598M1054 489L1168 534M1168 534L1175 570M1168 534L1249 567M1277 508L1346 513M1277 508L1249 567M1277 508L1287 606M1346 513L1393 524M1346 513L1398 593M1393 524L1475 531M1393 524L1398 593M1475 531L1569 508M1475 531L1398 593M1475 531L1507 625M1569 508L1621 510M1621 510L1712 557M1621 510L1620 593M1712 557L1620 593M1712 557L1731 614M1712 557L1809 603M1839 546L1848 508M1839 546L1809 603M1839 546L1854 622M1848 508L1809 603M1848 508L1854 622M1998 546L2021 554M1998 546L1967 628M1998 546L2053 603M2021 554L1967 628M2021 554L2053 603M2104 487L2194 540M2104 487L2120 567M2194 540L2261 551M2194 540L2120 567M2261 551L2355 534M2261 551L2215 639M2261 551L2314 622M2355 534L2314 622M2355 534L2382 561M2355 534L2446 597M2464 525L2542 497M2464 525L2382 561M2464 525L2446 597M47 633L154 620M47 633L-17 621M47 633L34 684M47 633L-6 642M2607 633L2543 621M2607 633L2554 642M154 620L223 611M154 620L146 702M154 620L180 708M154 620L263 644M223 611L297 624M223 611L263 644M297 624L393 625M297 624L263 644M297 624L326 681M393 625L415 582M393 625L326 681M393 625L443 715M415 582L518 592M518 592L605 622M518 592L563 657M605 622L713 603M605 622L563 657M605 622L645 647M713 603L722 634M713 603L645 647M713 603L720 672M722 634L645 647M722 634L720 672M722 634L810 680M722 634L737 727M862 606L906 577M862 606L810 680M862 606L934 686M906 577L976 598M976 598L934 686M976 598L1029 653M1077 636L1029 653M1077 636L1075 690M1077 636L1137 715M1175 570L1249 567M1175 570L1228 644M1249 567L1287 606M1249 567L1228 644M1287 606L1228 644M1287 606L1345 652M1287 606L1368 643M1398 593L1345 652M1398 593L1368 643M1507 625L1573 615M1507 625L1620 593M1507 625L1447 694M1507 625L1523 692M1573 615L1620 593M1573 615L1523 692M1620 593L1659 681M1731 614L1809 603M1731 614L1659 681M1731 614L1737 676M1809 603L1854 622M1854 622L1967 628M1854 622L1863 737M1967 628L2053 603M1967 628L1968 698M2053 603L2120 567M2053 603L2110 640M2120 567L2110 640M2120 567L2186 651M2215 639L2110 640M2215 639L2186 651M2215 639L2282 697M2314 622L2382 561M2314 622L2282 697M2314 622L2349 696M2382 561L2446 597M2446 597L2543 621M2446 597L2554 642M2543 621L2594 684M2543 621L2480 709M2543 621L2554 642M-17 621L34 684M34 684L-6 642M34 684L51 768M2594 684L2554 642M146 702L180 708M146 702L51 768M146 702L138 793M146 702L185 732M180 708L185 732M180 708L263 754M263 644L326 681M326 681L323 751M443 715L521 707M443 715L466 727M521 707L563 657M521 707L466 727M521 707L531 774M563 657L645 647M563 657L466 727M645 647L720 672M720 672L810 680M720 672L737 727M810 680L737 727M810 680L815 750M934 686L1029 653M934 686L941 732M1029 653L1075 690M1029 653L941 732M1075 690L1137 715M1075 690L1117 756M1075 690L1187 738M1137 715L1117 756M1137 715L1187 738M1137 715L1237 772M1228 644L1345 652M1228 644L1187 738M1345 652L1368 643M1345 652L1342 743M1368 643L1447 694M1447 694L1523 692M1523 692L1499 799M1523 692L1612 768M1659 681L1737 676M1659 681L1761 716M1659 681L1612 768M1737 676L1761 716M1737 676L1791 728M1761 716L1735 787M1761 716L1791 728M1761 716L1863 737M1915 710L1968 698M1915 710L1863 737M1915 710L2021 725M1968 698L2063 716M1968 698L1999 793M1968 698L2021 725M2063 716L2110 640M2063 716L1999 793M2063 716L2021 725M2063 716L2117 789M2110 640L2186 651M2186 651L2282 697M2186 651L2178 752M2282 697L2349 696M2282 697L2249 794M2349 696L2343 790M2480 709L2554 642M2480 709L2453 796M2480 709L2519 783M51 768L138 793M51 768L-41 783M2611 768L2519 783M138 793L185 732M138 793L151 877M138 793L206 842M185 732L263 754M263 754L323 751M263 754L277 822M323 751L277 822M466 727L531 774M531 774L633 777M531 774L475 843M633 777L705 783M633 777L623 839M633 777L657 867M705 783L737 727M705 783L657 867M705 783L790 829M737 727L815 750M815 750L790 829M815 750L821 860M941 732L1017 799M941 732L956 840M941 732L963 836M1017 799L956 840M1017 799L963 836M1017 799L1074 854M1017 799L1063 891M1117 756L1187 738M1117 756L1074 854M1187 738L1237 772M1237 772L1342 743M1237 772L1270 849M1237 772L1309 829M1342 743L1407 788M1342 743L1309 829M1407 788L1499 799M1407 788L1309 829M1407 788L1370 840M1407 788L1451 807M1499 799L1572 797M1499 799L1451 807M1499 799L1531 828M1572 797L1612 768M1572 797L1451 807M1572 797L1531 828M1612 768L1531 828M1735 787L1791 728M1735 787L1743 839M1735 787L1761 876M1735 787L1732 896M1791 728L1863 737M1791 728L1849 823M1863 737L1849 823M1999 793L2021 725M1999 793L1991 868M1999 793L2025 876M2021 725L2117 789M2117 789L2178 752M2117 789L2100 846M2117 789L2162 876M2178 752L2249 794M2249 794L2280 869M2249 794L2199 891M2343 790L2360 853M2453 796L2519 783M2453 796L2432 853M2453 796L2525 848M2519 783L2525 848M44 877L-35 848M44 877L71 894M44 877L-41 896M2604 877L2525 848M2604 877L2519 896M151 877L206 842M151 877L71 894M151 877L89 959M151 877L239 892M206 842L277 822M206 842L239 892M206 842L273 896M277 822L239 892M277 822L273 896M371 868L475 843M371 868L352 958M371 868L443 903M371 868L323 969M475 843L540 878M475 843L443 903M475 843L544 889M540 878L623 839M540 878L443 903M540 878L544 889M540 878L592 896M623 839L657 867M623 839L592 896M623 839L669 891M657 867L592 896M657 867L669 891M790 829L821 860M790 829L778 898M821 860L778 898M821 860L844 947M956 840L963 836M956 840L932 935M1074 854L1155 863M1074 854L1063 891M1155 863L1063 891M1155 863L1173 942M1155 863L1208 911M1155 863L1179 969M1270 849L1309 829M1270 849L1208 911M1309 829L1370 840M1370 840L1451 807M1370 840L1352 929M1370 840L1416 933M1451 807L1531 828M1531 828L1539 929M1678 867L1743 839M1678 867L1761 876M1678 867L1600 941M1678 867L1732 896M1743 839L1761 876M1743 839L1849 823M1743 839L1732 896M1761 876L1732 896M1761 876L1797 948M1991 868L2025 876M1991 868L1933 932M1991 868L2024 926M1991 868L2010 961M2025 876L2100 846M2025 876L2024 926M2025 876L2010 961M2100 846L2162 876M2100 846L2097 946M2100 846L2199 891M2162 876L2097 946M2162 876L2199 891M2280 869L2199 891M2280 869L2305 881M2280 869L2290 968M2360 853L2432 853M2360 853L2305 881M2360 853L2404 932M2432 853L2525 848M2432 853L2404 932M2432 853L2519 896M2525 848L2519 896M71 894L89 959M89 959L12 1008M89 959L158 1006M89 959L63 1047M239 892L273 896M239 892L292 973M273 896L292 973M273 896L323 969M352 958L292 973M352 958L323 969M352 958L455 990M443 903L544 889M443 903L455 990M544 889L592 896M544 889L606 986M592 896L669 891M669 891L778 898M669 891L673 990M778 898L844 947M844 947L932 935M844 947L844 1039M844 947L950 960M932 935L1016 956M932 935L950 960M1016 956L1063 891M1016 956L950 960M1016 956L1034 1032M1016 956L1068 1032M1173 942L1208 911M1173 942L1179 969M1173 942L1265 963M1208 911L1179 969M1208 911L1265 963M1352 929L1416 933M1352 929L1265 963M1352 929L1302 1003M1352 929L1395 961M1416 933L1489 928M1416 933L1395 961M1416 933L1455 1012M1489 928L1539 929M1489 928L1395 961M1489 928L1455 1012M1539 929L1600 941M1539 929L1545 995M1600 941L1545 995M1732 896L1797 948M1797 948L1842 950M1797 948L1794 1023M1797 948L1845 970M1842 950L1794 1023M1842 950L1845 970M1933 932L2024 926M1933 932L1845 970M1933 932L1969 996M1933 932L2010 961M2024 926L2097 946M2024 926L2010 961M2097 946L2150 1030M2305 881L2366 947M2305 881L2290 968M2305 881L2340 961M2366 947L2404 932M2366 947L2290 968M2366 947L2340 961M2366 947L2423 966M2404 932L2340 961M2404 932L2423 966M2519 896L2423 966M2519 896L2538 967M12 1008L-22 967M12 1008L63 1047M12 1008L-83 1082M12 1008L-17 1079M2572 1008L2538 967M2572 1008L2477 1082M2572 1008L2543 1079M158 1006L186 1036M158 1006L63 1047M186 1036L194 1103M292 973L323 969M323 969L347 1079M455 990L488 1021M455 990L407 1072M488 1021L407 1072M488 1021L548 1075M488 1021L488 1122M606 986L673 990M606 986L548 1075M606 986L592 1087M673 990L730 1025M673 990L693 1081M730 1025L693 1081M730 1025L780 1069M730 1025L724 1155M844 1039L780 1069M844 1039L849 1086M844 1039L920 1043M844 1039L859 1134M950 960L1034 1032M950 960L920 1043M1034 1032L1068 1032M1034 1032L1031 1069M1068 1032L1031 1069M1068 1032L1118 1115M1068 1032L1155 1060M1179 969L1265 963M1179 969L1155 1060M1265 963L1302 1003M1302 1003L1395 961M1302 1003L1217 1081M1302 1003L1400 1077M1395 961L1455 1012M1455 1012L1545 995M1455 1012L1400 1077M1545 995L1628 1029M1545 995L1571 1066M1628 1029L1727 1022M1628 1029L1571 1066M1628 1029L1618 1089M1628 1029L1593 1123M1727 1022L1794 1023M1727 1022L1690 1089M1727 1022L1781 1048M1794 1023L1845 970M1794 1023L1781 1048M1845 970L1781 1048M1969 996L2010 961M1969 996L1961 1049M1969 996L2024 1079M2150 1030L2229 1025M2150 1030L2152 1097M2150 1030L2163 1081M2229 1025L2290 968M2229 1025L2152 1097M2229 1025L2163 1081M2229 1025L2289 1096M2290 968L2340 961M2340 961L2423 966M2423 966L2538 967M2538 967L2543 1079M63 1047L100 1114M63 1047L-17 1079M2623 1047L2543 1079M100 1114L194 1103M100 1114L6 1126M100 1114L152 1171M194 1103L290 1113M194 1103L152 1171M194 1103L232 1174M290 1113L347 1079M290 1113L232 1174M290 1113L305 1180M347 1079L407 1072M407 1072L488 1122M548 1075L592 1087M548 1075L488 1122M548 1075L564 1185M592 1087L693 1081M592 1087L564 1185M693 1081L780 1069M693 1081L724 1155M780 1069L849 1086M849 1086L920 1043M849 1086L859 1134M920 1043L1031 1069M920 1043L859 1134M1031 1069L1118 1115M1031 1069L1100 1143M1118 1115L1155 1060M1118 1115L1100 1143M1118 1115L1144 1148M1155 1060L1217 1081M1155 1060L1144 1148M1217 1081L1144 1148M1217 1081L1269 1142M1356 1115L1400 1077M1356 1115L1269 1142M1356 1115L1336 1191M1356 1115L1366 1130M1400 1077L1499 1110M1400 1077L1366 1130M1499 1110L1571 1066M1499 1110L1485 1187M1499 1110L1593 1123M1571 1066L1618 1089M1571 1066L1593 1123M1618 1089L1690 1089M1618 1089L1593 1123M1618 1089L1642 1148M1690 1089L1642 1148M1690 1089L1720 1155M1781 1048L1877 1090M1781 1048L1857 1126M1877 1090L1961 1049M1877 1090L1857 1126M1961 1049L2024 1079M2152 1097L2163 1081M2152 1097L2082 1171M2152 1097L2190 1172M2163 1081L2190 1172M2289 1096L2351 1071M2289 1096L2291 1200M2289 1096L2358 1151M2351 1071L2477 1082M2351 1071L2358 1151M2477 1082L2543 1079M2477 1082L2566 1126M2477 1082L2416 1172M-83 1082L6 1126M2543 1079L2566 1126M-17 1079L6 1126M6 1126L-51 1200M2566 1126L2509 1200M152 1171L232 1174M152 1171L144 1233M152 1171L222 1202M232 1174L305 1180M232 1174L222 1202M305 1180L222 1202M305 1180L311 1231M399 1191L418 1172M399 1191L311 1231M399 1191L379 1229M399 1191L413 1250M399 1191L412 1285M418 1172L488 1122M418 1172L379 1229M418 1172L413 1250M418 1172L498 1229M488 1122L498 1229M564 1185L498 1229M564 1185L576 1234M712 1196L724 1155M712 1196L719 1262M712 1196L732 1265M724 1155L719 1262M859 1134L947 1166M859 1134L837 1207M947 1166L1004 1178M947 1166L837 1207M947 1166L942 1259M947 1166L1022 1208M1004 1178L1100 1143M1004 1178L1022 1208M1004 1178L1080 1257M1100 1143L1144 1148M1100 1143L1022 1208M1144 1148L1206 1233M1269 1142L1336 1191M1269 1142L1366 1130M1269 1142L1331 1227M1336 1191L1366 1130M1336 1191L1331 1227M1336 1191L1324 1284M1366 1130L1331 1227M1485 1187L1432 1278M1485 1187L1474 1251M1485 1187L1560 1217M1485 1187L1475 1285M1593 1123L1642 1148M1642 1148L1720 1155M1720 1155L1757 1228M1831 1200L1857 1126M1831 1200L1757 1228M1831 1200L1773 1252M1831 1200L1866 1218M1831 1200L1875 1280M1857 1126L1946 1180M1857 1126L1866 1218M1946 1180L1866 1218M1946 1180L1923 1275M1946 1180L2012 1202M2072 1194L2082 1171M2072 1194L2012 1202M2072 1194L2095 1269M2072 1194L2117 1284M2082 1171L2190 1172M2082 1171L2012 1202M2082 1171L2095 1269M2190 1172L2213 1219M2190 1172L2240 1230M2291 1200L2358 1151M2291 1200L2213 1219M2291 1200L2240 1230M2291 1200L2358 1222M2358 1151L2416 1172M2358 1151L2358 1222M2416 1172L2509 1200M2416 1172L2358 1222M2416 1172L2437 1239M2509 1200L2576 1234M2509 1200L2437 1239M2509 1200L2514 1264M-51 1200L16 1234M16 1234L-46 1264M16 1234L21 1333M16 1234L88 1282M2576 1234L2514 1264M144 1233L222 1202M144 1233L88 1282M144 1233L181 1343M222 1202L311 1231M311 1231L379 1229M379 1229L413 1250M379 1229L412 1285M413 1250L383 1328M413 1250L412 1285M498 1229L576 1234M498 1229L483 1329M576 1234L589 1347M719 1262L732 1265M719 1262L699 1335M719 1262L782 1291M732 1265L699 1335M732 1265L782 1291M732 1265L847 1283M837 1207L782 1291M837 1207L847 1283M942 1259L1022 1208M942 1259L847 1283M942 1259L948 1343M942 1259L973 1304M1022 1208L1080 1257M1080 1257L1190 1272M1080 1257L1103 1342M1080 1257L1173 1283M1190 1272L1206 1233M1190 1272L1173 1283M1190 1272L1210 1356M1206 1233L1173 1283M1331 1227L1324 1284M1432 1278L1474 1251M1432 1278L1324 1284M1432 1278L1418 1344M1432 1278L1475 1285M1474 1251L1560 1217M1474 1251L1418 1344M1474 1251L1475 1285M1560 1217L1645 1274M1560 1217L1579 1308M1645 1274L1579 1308M1645 1274L1666 1292M1645 1274L1722 1293M1757 1228L1773 1252M1757 1228L1722 1293M1773 1252L1722 1293M1773 1252L1800 1357M1866 1218L1923 1275M1866 1218L1875 1280M1923 1275L1875 1280M1923 1275L2000 1307M2012 1202L2000 1307M2095 1269L2000 1307M2095 1269L2037 1308M2095 1269L2117 1284M2213 1219L2240 1230M2213 1219L2117 1284M2213 1219L2202 1303M2240 1230L2202 1303M2240 1230L2290 1300M2358 1222L2437 1239M2358 1222L2353 1335M2437 1239L2514 1264M2437 1239L2455 1318M2514 1264L2455 1318M2514 1264L2555 1355M21 1333L88 1282M21 1333L-5 1355M21 1333L64 1368M21 1333L-28 1377M2581 1333L2555 1355M2581 1333L2532 1377M88 1282L64 1368M181 1343L150 1437M181 1343L213 1366M306 1352L383 1328M306 1352L305 1365M383 1328L412 1285M383 1328L483 1329M383 1328L394 1404M412 1285L483 1329M483 1329L589 1347M483 1329L507 1425M589 1347L699 1335M589 1347L602 1393M699 1335L602 1393M782 1291L847 1283M782 1291L787 1380M847 1283L875 1375M948 1343L973 1304M948 1343L875 1375M948 1343L904 1394M948 1343L1019 1395M973 1304L904 1394M973 1304L1019 1395M1103 1342L1173 1283M1103 1342L1163 1410M1173 1283L1210 1356M1210 1356L1163 1410M1210 1356L1274 1378M1324 1284L1274 1378M1324 1284L1315 1391M1418 1344L1475 1285M1418 1344L1371 1426M1418 1344L1509 1375M1475 1285L1509 1375M1579 1308L1666 1292M1579 1308L1509 1375M1579 1308L1563 1368M1666 1292L1722 1293M1666 1292L1632 1412M1666 1292L1728 1372M1722 1293L1728 1372M1800 1357L1875 1280M1800 1357L1728 1372M1800 1357L1794 1422M1800 1357L1864 1371M1875 1280L1864 1371M2000 1307L2037 1308M2000 1307L1976 1408M2037 1308L2117 1284M2037 1308L2072 1395M2117 1284L2202 1303M2202 1303L2290 1300M2290 1300L2353 1335M2290 1300L2393 1376M2353 1335L2455 1318M2353 1335L2271 1437M2353 1335L2393 1376M2455 1318L2393 1376M2555 1355L2624 1368M2555 1355L2532 1377M-5 1355L64 1368M64 1368L-28 1377M2624 1368L2532 1377M150 1437L213 1366M213 1366L305 1365M305 1365L394 1404M394 1404L434 1429M434 1429L507 1425M507 1425L602 1393M602 1393L688 1438M787 1380L875 1375M875 1375L904 1394M1019 1395L1097 1434M1097 1434L1163 1410M1274 1378L1315 1391M1274 1378L1371 1426M1315 1391L1371 1426M1509 1375L1563 1368M1509 1375L1632 1412M1563 1368L1632 1412M1632 1412L1728 1372M1728 1372L1794 1422M1794 1422L1864 1371M1864 1371L1976 1408M2072 1395L2149 1438M2072 1395L2172 1435M2149 1438L2172 1435M2172 1435L2271 1437M2393 1376L2451 1424M2451 1424L2532 1377"/></svg>