<svg xmlns="http://www.w3.org/2000/svg" width="2560" height="1440" fill="#fff"><circle cx="56" cy="12" r="5"/><circle cx="87" cy="20" r="4"/><circle cx="237" cy="17" r="4"/><circle cx="299" cy="44" r="4"/><circle cx="355" cy="71" r="4"/><circle cx="420" cy="63" r="4"/><circle cx="501" cy="68" r="4"/><circle cx="616" cy="18" r="4"/><circle cx="681" cy="29" r="5"/><circle cx="741" cy="1" r="6"/><circle cx="741" cy="1441" r="6"/><circle cx="866" cy="22" r="6"/><circle cx="910" cy="56" r="5"/><circle cx="988" cy="72" r="5"/><circle cx="1056" cy="65" r="5"/><circle cx="1192" cy="64" r="4"/><circle cx="1257" cy="64" r="5"/><circle cx="1352" cy="13" r="4"/><circle cx="1382" cy="66" r="5"/><circle cx="1485" cy="66" r="5"/><circle cx="1559" cy="28" r="5"/><circle cx="1629" cy="59" r="4"/><circle cx="1739" cy="56" r="5"/><circle cx="1767" cy="30" r="6"/><circle cx="1901" cy="70" r="4"/><circle cx="1985" cy="5" r="6"/><circle cx="1985" cy="1445" r="6"/><circle cx="2052" cy="35" r="5"/><circle cx="2157" cy="61" r="5"/><circle cx="2238" cy="74" r="6"/><circle cx="2247" cy="70" r="5"/><circle cx="2392" cy="60" r="5"/><circle cx="2464" cy="11" r="6"/><circle cx="2487" cy="38" r="5"/><circle cx="63" cy="99" r="5"/><circle cx="112" cy="113" r="6"/><circle cx="227" cy="149" r="5"/><circle cx="295" cy="116" r="5"/><circle cx="371" cy="118" r="5"/><circle cx="435" cy="122" r="5"/><circle cx="557" cy="123" r="6"/><circle cx="627" cy="90" r="5"/><circle cx="661" cy="82" r="6"/><circle cx="788" cy="109" r="4"/><circle cx="863" cy="108" r="5"/><circle cx="920" cy="86" r="5"/><circle cx="1027" cy="86" r="6"/><circle cx="1082" cy="99" r="6"/><circle cx="1164" cy="131" r="6"/><circle cx="1241" cy="138" r="5"/><circle cx="1322" cy="149" r="4"/><circle cx="1382" cy="100" r="4"/><circle cx="1485" cy="89" r="4"/><circle cx="1545" cy="124" r="6"/><circle cx="1665" cy="141" r="5"/><circle cx="1703" cy="101" r="6"/><circle cx="1835" cy="146" r="4"/><circle cx="1907" cy="112" r="6"/><circle cx="1988" cy="145" r="6"/><circle cx="2076" cy="141" r="6"/><circle cx="2134" cy="103" r="4"/><circle cx="2222" cy="92" r="6"/><circle cx="2275" cy="152" r="5"/><circle cx="2349" cy="112" r="4"/><circle cx="2445" cy="152" r="5"/><circle cx="2550" cy="91" r="6"/><circle cx="70" cy="168" r="5"/><circle cx="122" cy="234" r="6"/><circle cx="170" cy="225" r="5"/><circle cx="272" cy="239" r="4"/><circle cx="397" cy="190" r="5"/><circle cx="427" cy="212" r="4"/><circle cx="512" cy="192" r="5"/><circle cx="626" cy="199" r="5"/><circle cx="657" cy="219" r="4"/><circle cx="782" cy="167" r="6"/><circle cx="867" cy="175" r="5"/><circle cx="939" cy="167" r="5"/><circle cx="1029" cy="201" r="6"/><circle cx="1103" cy="203" r="5"/><circle cx="1129" cy="181" r="5"/><circle cx="1266" cy="225" r="4"/><circle cx="1344" cy="175" r="5"/><circle cx="1415" cy="222" r="4"/><circle cx="1498" cy="173" r="5"/><circle cx="1537" cy="174" r="5"/><circle cx="1671" cy="191" r="5"/><circle cx="1747" cy="239" r="6"/><circle cx="1775" cy="182" r="5"/><circle cx="1914" cy="227" r="5"/><circle cx="1945" cy="191" r="6"/><circle cx="2047" cy="200" r="5"/><circle cx="2113" cy="222" r="5"/><circle cx="2179" cy="194" r="5"/><circle cx="2291" cy="209" r="5"/><circle cx="2389" cy="206" r="4"/><circle cx="2429" cy="210" r="4"/><circle cx="2507" cy="183" r="5"/><circle cx="2" cy="243" r="4"/><circle cx="2562" cy="243" r="4"/><circle cx="123" cy="316" r="4"/><circle cx="228" cy="295" r="4"/><circle cx="249" cy="283" r="6"/><circle cx="340" cy="285" r="4"/><circle cx="428" cy="261" r="5"/><circle cx="556" cy="299" r="5"/><circle cx="583" cy="315" r="5"/><circle cx="688" cy="251" r="5"/><circle cx="750" cy="256" r="5"/><circle cx="870" cy="280" r="5"/><circle cx="894" cy="294" r="4"/><circle cx="1040" cy="315" r="5"/><circle cx="1070" cy="318" r="5"/><circle cx="1124" cy="278" r="5"/><circle cx="1248" cy="299" r="4"/><circle cx="1330" cy="264" r="5"/><circle cx="1398" cy="288" r="5"/><circle cx="1466" cy="306" r="4"/><circle cx="1543" cy="255" r="6"/><circle cx="1668" cy="267" r="5"/><circle cx="1703" cy="306" r="6"/><circle cx="1782" cy="250" r="6"/><circle cx="1903" cy="295" r="5"/><circle cx="1986" cy="285" r="4"/><circle cx="2072" cy="281" r="5"/><circle cx="2126" cy="247" r="6"/><circle cx="2160" cy="272" r="5"/><circle cx="2311" cy="310" r="5"/><circle cx="2335" cy="290" r="5"/><circle cx="2401" cy="261" r="5"/><circle cx="2520" cy="291" r="5"/><circle cx="14" cy="357" r="6"/><circle cx="106" cy="356" r="5"/><circle cx="228" cy="359" r="5"/><circle cx="272" cy="330" r="5"/><circle cx="373" cy="393" r="6"/><circle cx="474" cy="379" r="5"/><circle cx="489" cy="339" r="6"/><circle cx="623" cy="399" r="5"/><circle cx="653" cy="365" r="5"/><circle cx="778" cy="331" r="4"/><circle cx="840" cy="374" r="5"/><circle cx="932" cy="345" r="5"/><circle cx="1025" cy="351" r="6"/><circle cx="1069" cy="371" r="5"/><circle cx="1140" cy="347" r="5"/><circle cx="1210" cy="320" r="4"/><circle cx="1304" cy="333" r="5"/><circle cx="1376" cy="353" r="5"/><circle cx="1462" cy="372" r="6"/><circle cx="1551" cy="340" r="5"/><circle cx="1624" cy="373" r="4"/><circle cx="1729" cy="387" r="6"/><circle cx="1824" cy="339" r="6"/><circle cx="1897" cy="339" r="5"/><circle cx="1964" cy="399" r="5"/><circle cx="2067" cy="374" r="6"/><circle cx="2129" cy="350" r="6"/><circle cx="2217" cy="361" r="5"/><circle cx="2302" cy="330" r="5"/><circle cx="2346" cy="322" r="5"/><circle cx="2415" cy="327" r="5"/><circle cx="2502" cy="327" r="5"/><circle cx="31" cy="451" r="4"/><circle cx="148" cy="419" r="5"/><circle cx="214" cy="443" r="6"/><circle cx="253" cy="414" r="5"/><circle cx="359" cy="479" r="5"/><circle cx="429" cy="458" r="5"/><circle cx="518" cy="425" r="5"/><circle cx="584" cy="474" r="5"/><circle cx="696" cy="479" r="6"/><circle cx="762" cy="420" r="6"/><circle cx="837" cy="428" r="5"/><circle cx="900" cy="474" r="5"/><circle cx="991" cy="459" r="6"/><circle cx="1109" cy="419" r="5"/><circle cx="1186" cy="410" r="6"/><circle cx="1243" cy="407" r="4"/><circle cx="1354" cy="433" r="5"/><circle cx="1372" cy="412" r="4"/><circle cx="1465" cy="452" r="5"/><circle cx="1588" cy="448" r="5"/><circle cx="1650" cy="423" r="5"/><circle cx="1690" cy="426" r="6"/><circle cx="1804" cy="474" r="5"/><circle cx="1897" cy="433" r="6"/><circle cx="1995" cy="441" r="4"/><circle cx="2041" cy="428" r="5"/><circle cx="2131" cy="439" r="5"/><circle cx="2194" cy="472" r="4"/><circle cx="2303" cy="421" r="4"/><circle cx="2372" cy="412" r="5"/><circle cx="2427" cy="467" r="6"/><circle cx="2540" cy="408" r="4"/><circle cx="75" cy="481" r="6"/><circle cx="103" cy="529" r="5"/><circle cx="190" cy="514" r="4"/><circle cx="282" cy="492" r="6"/><circle cx="351" cy="483" r="4"/><circle cx="466" cy="560" r="6"/><circle cx="489" cy="558" r="6"/><circle cx="601" cy="555" r="6"/><circle cx="680" cy="523" r="4"/><circle cx="731" cy="557" r="4"/><circle cx="823" cy="552" r="5"/><circle cx="880" cy="557" r="4"/><circle cx="964" cy="552" r="4"/><circle cx="1063" cy="509" r="4"/><circle cx="1164" cy="550" r="6"/><circle cx="1258" cy="493" r="6"/><circle cx="1305" cy="523" r="4"/><circle cx="1363" cy="537" r="6"/><circle cx="1472" cy="500" r="5"/><circle cx="1542" cy="522" r="5"/><circle cx="1600" cy="491" r="5"/><circle cx="1748" cy="498" r="4"/><circle cx="1776" cy="543" r="6"/><circle cx="1904" cy="533" r="4"/><circle cx="1961" cy="525" r="4"/><circle cx="2058" cy="513" r="6"/><circle cx="2084" cy="508" r="4"/><circle cx="2171" cy="538" r="5"/><circle cx="2259" cy="535" r="5"/><circle cx="2392" cy="496" r="6"/><circle cx="2435" cy="542" r="6"/><circle cx="2527" cy="560" r="5"/><circle cx="9" cy="573" r="5"/><circle cx="145" cy="626" r="5"/><circle cx="198" cy="592" r="5"/><circle cx="310" cy="560" r="5"/><circle cx="343" cy="613" r="6"/><circle cx="426" cy="607" r="4"/><circle cx="515" cy="598" r="5"/><circle cx="575" cy="600" r="5"/><circle cx="699" cy="588" r="6"/><circle cx="749" cy="565" r="5"/><circle cx="867" cy="636" r="5"/><circle cx="948" cy="603" r="6"/><circle cx="987" cy="593" r="5"/><circle cx="1056" cy="589" r="5"/><circle cx="1132" cy="574" r="5"/><circle cx="1262" cy="628" r="5"/><circle cx="1352" cy="623" r="5"/><circle cx="1375" cy="583" r="4"/><circle cx="1508" cy="585" r="5"/><circle cx="1556" cy="622" r="6"/><circle cx="1643" cy="603" r="6"/><circle cx="1720" cy="609" r="4"/><circle cx="1798" cy="589" r="4"/><circle cx="1920" cy="617" r="6"/><circle cx="1932" cy="562" r="5"/><circle cx="2043" cy="578" r="6"/><circle cx="2151" cy="589" r="6"/><circle cx="2191" cy="594" r="4"/><circle cx="2288" cy="573" r="5"/><circle cx="2322" cy="595" r="6"/><circle cx="2421" cy="610" r="4"/><circle cx="2492" cy="613" r="4"/><circle cx="47" cy="695" r="6"/><circle cx="131" cy="655" r="5"/><circle cx="233" cy="700" r="5"/><circle cx="317" cy="697" r="4"/><circle cx="396" cy="665" r="5"/><circle cx="405" cy="680" r="5"/><circle cx="529" cy="690" r="5"/><circle cx="567" cy="679" r="5"/><circle cx="676" cy="698" r="6"/><circle cx="751" cy="707" r="5"/><circle cx="860" cy="711" r="5"/><circle cx="905" cy="677" r="5"/><circle cx="984" cy="696" r="6"/><circle cx="1065" cy="697" r="5"/><circle cx="1122" cy="652" r="5"/><circle cx="1265" cy="712" r="4"/><circle cx="1304" cy="702" r="5"/><circle cx="1368" cy="685" r="6"/><circle cx="1468" cy="669" r="5"/><circle cx="1528" cy="641" r="4"/><circle cx="1629" cy="657" r="6"/><circle cx="1757" cy="709" r="4"/><circle cx="1776" cy="688" r="6"/><circle cx="1888" cy="698" r="6"/><circle cx="1953" cy="647" r="6"/><circle cx="2009" cy="654" r="4"/><circle cx="2118" cy="703" r="5"/><circle cx="2214" cy="652" r="5"/><circle cx="2267" cy="707" r="6"/><circle cx="2358" cy="717" r="5"/><circle cx="2447" cy="710" r="5"/><circle cx="2518" cy="655" r="5"/><circle cx="66" cy="799" r="4"/><circle cx="135" cy="794" r="5"/><circle cx="175" cy="741" r="5"/><circle cx="276" cy="781" r="5"/><circle cx="370" cy="722" r="5"/><circle cx="434" cy="725" r="5"/><circle cx="504" cy="789" r="4"/><circle cx="618" cy="799" r="5"/><circle cx="673" cy="796" r="5"/><circle cx="786" cy="776" r="6"/><circle cx="863" cy="731" r="6"/><circle cx="931" cy="723" r="5"/><circle cx="1024" cy="747" r="4"/><circle cx="1070" cy="746" r="5"/><circle cx="1152" cy="773" r="5"/><circle cx="1262" cy="797" r="5"/><circle cx="1342" cy="752" r="5"/><circle cx="1367" cy="728" r="6"/><circle cx="1470" cy="722" r="4"/><circle cx="1592" cy="774" r="5"/><circle cx="1602" cy="730" r="4"/><circle cx="1710" cy="796" r="4"/><circle cx="1785" cy="750" r="4"/><circle cx="1890" cy="756" r="5"/><circle cx="1933" cy="770" r="5"/><circle cx="2045" cy="727" r="4"/><circle cx="2159" cy="788" r="6"/><circle cx="2188" cy="751" r="6"/><circle cx="2316" cy="735" r="5"/><circle cx="2370" cy="780" r="6"/><circle cx="2406" cy="750" r="6"/><circle cx="2488" cy="722" r="5"/><circle cx="47" cy="852" r="4"/><circle cx="88" cy="842" r="5"/><circle cx="228" cy="847" r="4"/><circle cx="272" cy="861" r="5"/><circle cx="363" cy="817" r="5"/><circle cx="453" cy="862" r="6"/><circle cx="532" cy="829" r="4"/><circle cx="577" cy="858" r="4"/><circle cx="666" cy="844" r="4"/><circle cx="776" cy="861" r="6"/><circle cx="840" cy="839" r="5"/><circle cx="929" cy="806" r="4"/><circle cx="1008" cy="863" r="6"/><circle cx="1062" cy="804" r="4"/><circle cx="1142" cy="832" r="4"/><circle cx="1254" cy="821" r="4"/><circle cx="1359" cy="863" r="5"/><circle cx="1372" cy="819" r="6"/><circle cx="1480" cy="827" r="6"/><circle cx="1539" cy="857" r="5"/><circle cx="1626" cy="865" r="6"/><circle cx="1712" cy="811" r="6"/><circle cx="1812" cy="879" r="5"/><circle cx="1882" cy="816" r="4"/><circle cx="1965" cy="873" r="4"/><circle cx="2007" cy="817" r="4"/><circle cx="2118" cy="840" r="4"/><circle cx="2200" cy="850" r="4"/><circle cx="2304" cy="867" r="4"/><circle cx="2376" cy="817" r="5"/><circle cx="2415" cy="818" r="5"/><circle cx="2553" cy="874" r="6"/><circle cx="57" cy="918" r="5"/><circle cx="113" cy="929" r="5"/><circle cx="239" cy="948" r="5"/><circle cx="315" cy="938" r="4"/><circle cx="386" cy="899" r="5"/><circle cx="471" cy="946" r="5"/><circle cx="515" cy="881" r="4"/><circle cx="623" cy="894" r="4"/><circle cx="697" cy="891" r="5"/><circle cx="766" cy="902" r="6"/><circle cx="810" cy="916" r="5"/><circle cx="916" cy="923" r="4"/><circle cx="1014" cy="881" r="4"/><circle cx="1108" cy="890" r="6"/><circle cx="1138" cy="953" r="5"/><circle cx="1219" cy="913" r="5"/><circle cx="1298" cy="937" r="5"/><circle cx="1420" cy="946" r="5"/><circle cx="1443" cy="949" r="6"/><circle cx="1599" cy="904" r="4"/><circle cx="1650" cy="956" r="6"/><circle cx="1683" cy="938" r="6"/><circle cx="1783" cy="899" r="4"/><circle cx="1866" cy="953" r="5"/><circle cx="1942" cy="884" r="5"/><circle cx="2063" cy="914" r="5"/><circle cx="2108" cy="947" r="5"/><circle cx="2180" cy="953" r="5"/><circle cx="2258" cy="900" r="4"/><circle cx="2332" cy="958" r="5"/><circle cx="2456" cy="889" r="5"/><circle cx="2555" cy="924" r="5"/><circle cx="21" cy="1011" r="5"/><circle cx="134" cy="1004" r="5"/><circle cx="163" cy="1021" r="4"/><circle cx="280" cy="1023" r="4"/><circle cx="398" cy="1006" r="6"/><circle cx="407" cy="1022" r="5"/><circle cx="506" cy="1030" r="5"/><circle cx="597" cy="963" r="5"/><circle cx="668" cy="1005" r="6"/><circle cx="771" cy="1021" r="5"/><circle cx="846" cy="1027" r="6"/><circle cx="925" cy="1029" r="5"/><circle cx="966" cy="992" r="4"/><circle cx="1061" cy="1017" r="5"/><circle cx="1147" cy="1024" r="5"/><circle cx="1214" cy="996" r="4"/><circle cx="1298" cy="1030" r="4"/><circle cx="1362" cy="983" r="4"/><circle cx="1478" cy="1007" r="6"/><circle cx="1568" cy="1029" r="5"/><circle cx="1604" cy="1037" r="4"/><circle cx="1693" cy="1008" r="5"/><circle cx="1827" cy="1026" r="5"/><circle cx="1873" cy="966" r="6"/><circle cx="1964" cy="989" r="4"/><circle cx="2030" cy="999" r="5"/><circle cx="2133" cy="984" r="6"/><circle cx="2220" cy="1019" r="5"/><circle cx="2259" cy="970" r="5"/><circle cx="2322" cy="1015" r="4"/><circle cx="2473" cy="980" r="4"/><circle cx="2553" cy="1010" r="5"/><circle cx="14" cy="1050" r="5"/><circle cx="148" cy="1102" r="6"/><circle cx="215" cy="1117" r="5"/><circle cx="280" cy="1079" r="5"/><circle cx="356" cy="1081" r="5"/><circle cx="451" cy="1047" r="5"/><circle cx="481" cy="1097" r="5"/><circle cx="595" cy="1071" r="5"/><circle cx="652" cy="1116" r="6"/><circle cx="763" cy="1117" r="5"/><circle cx="827" cy="1080" r="4"/><circle cx="942" cy="1053" r="4"/><circle cx="1014" cy="1074" r="6"/><circle cx="1093" cy="1113" r="5"/><circle cx="1130" cy="1119" r="4"/><circle cx="1226" cy="1088" r="5"/><circle cx="1327" cy="1096" r="6"/><circle cx="1372" cy="1051" r="5"/><circle cx="1464" cy="1100" r="6"/><circle cx="1530" cy="1115" r="6"/><circle cx="1627" cy="1052" r="6"/><circle cx="1744" cy="1115" r="4"/><circle cx="1829" cy="1103" r="4"/><circle cx="1853" cy="1074" r="5"/><circle cx="1923" cy="1051" r="5"/><circle cx="2057" cy="1041" r="4"/><circle cx="2140" cy="1120" r="6"/><circle cx="2171" cy="1104" r="4"/><circle cx="2287" cy="1060" r="5"/><circle cx="2396" cy="1079" r="5"/><circle cx="2412" cy="1043" r="6"/><circle cx="2483" cy="1062" r="4"/><circle cx="54" cy="1133" r="5"/><circle cx="86" cy="1169" r="6"/><circle cx="237" cy="1142" r="5"/><circle cx="280" cy="1138" r="4"/><circle cx="342" cy="1188" r="5"/><circle cx="422" cy="1146" r="5"/><circle cx="510" cy="1132" r="5"/><circle cx="634" cy="1141" r="6"/><circle cx="715" cy="1140" r="5"/><circle cx="759" cy="1193" r="4"/><circle cx="844" cy="1192" r="5"/><circle cx="904" cy="1149" r="6"/><circle cx="1037" cy="1177" r="5"/><circle cx="1046" cy="1154" r="5"/><circle cx="1151" cy="1196" r="5"/><circle cx="1260" cy="1141" r="4"/><circle cx="1320" cy="1147" r="4"/><circle cx="1395" cy="1153" r="5"/><circle cx="1513" cy="1174" r="4"/><circle cx="1575" cy="1122" r="6"/><circle cx="1610" cy="1140" r="6"/><circle cx="1692" cy="1135" r="5"/><circle cx="1826" cy="1194" r="4"/><circle cx="1844" cy="1124" r="6"/><circle cx="1953" cy="1189" r="5"/><circle cx="2074" cy="1183" r="5"/><circle cx="2143" cy="1145" r="5"/><circle cx="2187" cy="1192" r="5"/><circle cx="2295" cy="1131" r="4"/><circle cx="2337" cy="1157" r="5"/><circle cx="2416" cy="1186" r="5"/><circle cx="2510" cy="1144" r="5"/><circle cx="57" cy="1239" r="5"/><circle cx="119" cy="1226" r="5"/><circle cx="182" cy="1247" r="5"/><circle cx="278" cy="1276" r="4"/><circle cx="371" cy="1249" r="6"/><circle cx="444" cy="1235" r="5"/><circle cx="551" cy="1237" r="4"/><circle cx="612" cy="1237" r="6"/><circle cx="644" cy="1211" r="5"/><circle cx="785" cy="1252" r="5"/><circle cx="878" cy="1249" r="6"/><circle cx="911" cy="1243" r="5"/><circle cx="965" cy="1260" r="5"/><circle cx="1116" cy="1252" r="4"/><circle cx="1146" cy="1230" r="4"/><circle cx="1265" cy="1277" r="5"/><circle cx="1289" cy="1222" r="5"/><circle cx="1370" cy="1225" r="6"/><circle cx="1504" cy="1260" r="6"/><circle cx="1539" cy="1240" r="4"/><circle cx="1650" cy="1259" r="5"/><circle cx="1722" cy="1237" r="5"/><circle cx="1782" cy="1213" r="6"/><circle cx="1859" cy="1258" r="4"/><circle cx="1974" cy="1274" r="5"/><circle cx="2079" cy="1247" r="4"/><circle cx="2146" cy="1235" r="5"/><circle cx="2217" cy="1239" r="5"/><circle cx="2304" cy="1238" r="5"/><circle cx="2363" cy="1208" r="4"/><circle cx="2411" cy="1222" r="4"/><circle cx="2487" cy="1253" r="4"/><circle cx="73" cy="1318" r="5"/><circle cx="130" cy="1318" r="5"/><circle cx="173" cy="1324" r="5"/><circle cx="285" cy="1314" r="4"/><circle cx="380" cy="1280" r="5"/><circle cx="410" cy="1341" r="5"/><circle cx="525" cy="1317" r="5"/><circle cx="597" cy="1350" r="5"/><circle cx="664" cy="1286" r="4"/><circle cx="767" cy="1353" r="6"/><circle cx="835" cy="1304" r="4"/><circle cx="937" cy="1292" r="5"/><circle cx="980" cy="1345" r="5"/><circle cx="1044" cy="1316" r="6"/><circle cx="1193" cy="1347" r="4"/><circle cx="1211" cy="1313" r="5"/><circle cx="1336" cy="1282" r="4"/><circle cx="1430" cy="1306" r="6"/><circle cx="1487" cy="1321" r="5"/><circle cx="1571" cy="1351" r="6"/><circle cx="1673" cy="1325" r="4"/><circle cx="1739" cy="1346" r="6"/><circle cx="1805" cy="1291" r="6"/><circle cx="1855" cy="1293" r="5"/><circle cx="1989" cy="1293" r="4"/><circle cx="2062" cy="1318" r="4"/><circle cx="2086" cy="1358" r="6"/><circle cx="2187" cy="1282" r="6"/><circle cx="2260" cy="1314" r="4"/><circle cx="2374" cy="1319" r="5"/><circle cx="2403" cy="1317" r="5"/><circle cx="2528" cy="1360" r="5"/><circle cx="32" cy="1374" r="5"/><circle cx="107" cy="1364" r="6"/><circle cx="220" cy="1431" r="5"/><circle cx="243" cy="1363" r="4"/><circle cx="353" cy="1429" r="5"/><circle cx="456" cy="1396" r="4"/><circle cx="529" cy="1420" r="5"/><circle cx="578" cy="1395" r="5"/><circle cx="713" cy="1399" r="4"/><circle cx="724" cy="1406" r="4"/><circle cx="829" cy="1374" r="5"/><circle cx="883" cy="1431" r="4"/><circle cx="975" cy="1417" r="6"/><circle cx="1053" cy="1383" r="5"/><circle cx="1198" cy="1368" r="5"/><circle cx="1208" cy="1396" r="6"/><circle cx="1357" cy="1423" r="6"/><circle cx="1405" cy="1393" r="4"/><circle cx="1452" cy="1412" r="6"/><circle cx="1537" cy="1434" r="4"/><circle cx="1661" cy="1396" r="4"/><circle cx="1721" cy="1384" r="6"/><circle cx="1786" cy="1397" r="5"/><circle cx="1887" cy="1433" r="5"/><circle cx="1965" cy="1419" r="6"/><circle cx="2069" cy="1394" r="6"/><circle cx="2123" cy="1364" r="6"/><circle cx="2211" cy="1364" r="5"/><circle cx="2265" cy="1413" r="4"/><circle cx="2393" cy="1362" r="5"/><circle cx="2421" cy="1368" r="5"/><circle cx="2558" cy="1401" r="5"/><circle cx="-2" cy="1401" r="5"/><path stroke="#fff" d="M56 12L87 20M56 12L63 99M56 12L32 -66M56 12L107 -76M56 12L-2 -39M2616 12L2558 -39M56 1452L32 1374M56 1452L107 1364M56 1452L-2 1401M2616 1452L2558 1401M87 20L63 99M87 20L112 113M237 17L299 44M237 17L295 116M237 17L220 -9M237 17L243 -77M237 1457L220 1431M237 1457L243 1363M299 44L355 71M299 44L295 116M299 44L220 -9M299 44L353 -11M299 1484L220 1431M299 1484L353 1429M355 71L420 63M355 71L295 116M355 71L371 118M355 71L353 -11M355 1511L353 1429M420 63L501 68M420 63L371 118M420 63L435 122M420 63L353 -11M420 1503L353 1429M501 68L435 122M501 68L557 123M501 68L529 -20M501 1508L529 1420M616 18L681 29M616 18L627 90M616 18L661 82M616 18L578 -45M616 1458L578 1395M681 29L741 1M681 29L627 90M681 29L661 82M681 29L724 -34M681 1469L724 1406M741 1L661 82M741 1L767 -87M741 1L713 -41M741 1L724 -34M741 1441L767 1353M741 1441L713 1399M741 1441L724 1406M866 22L910 56M866 22L863 108M866 22L920 86M866 22L829 -66M866 22L883 -9M866 1462L829 1374M866 1462L883 1431M910 56L988 72M910 56L863 108M910 56L920 86M910 56L883 -9M910 1496L883 1431M988 72L1056 65M988 72L920 86M988 72L1027 86M988 72L975 -23M988 1512L975 1417M1056 65L1027 86M1056 65L1082 99M1192 64L1257 64M1192 64L1164 131M1192 64L1241 138M1192 64L1208 -44M1192 1504L1208 1396M1257 64L1241 138M1257 64L1208 -44M1257 1504L1208 1396M1352 13L1382 66M1352 13L1382 100M1352 13L1357 -17M1352 13L1405 -47M1352 1453L1357 1423M1352 1453L1405 1393M1382 66L1382 100M1382 66L1357 -17M1382 1506L1357 1423M1485 66L1559 28M1485 66L1485 89M1485 66L1545 124M1485 66L1452 -28M1485 66L1537 -6M1485 1506L1452 1412M1485 1506L1537 1434M1559 28L1629 59M1559 28L1485 89M1559 28L1545 124M1559 28L1537 -6M1559 1468L1537 1434M1629 59L1665 141M1629 59L1703 101M1739 56L1767 30M1739 56L1665 141M1739 56L1703 101M1739 56L1786 -43M1739 1496L1786 1397M1767 30L1703 101M1767 30L1721 -56M1767 30L1786 -43M1767 1470L1721 1384M1767 1470L1786 1397M1901 70L1985 5M1901 70L1907 112M1901 70L1887 -7M1901 70L1965 -21M1901 1510L1887 1433M1901 1510L1965 1419M1985 5L2052 35M1985 5L1887 -7M1985 5L1965 -21M1985 5L2069 -46M1985 1445L1887 1433M1985 1445L1965 1419M1985 1445L2069 1394M2052 35L2134 103M2052 35L1965 -21M2052 35L2069 -46M2052 1475L1965 1419M2052 1475L2069 1394M2157 61L2238 74M2157 61L2247 70M2157 61L2134 103M2157 61L2222 92M2238 74L2247 70M2238 74L2222 92M2238 74L2275 152M2238 74L2265 -27M2238 1514L2265 1413M2247 70L2222 92M2247 70L2275 152M2247 70L2265 -27M2247 1510L2265 1413M2392 60L2464 11M2392 60L2487 38M2392 60L2349 112M2392 60L2445 152M2464 11L2487 38M2464 11L2550 91M2464 11L2421 -72M2464 11L2558 -39M2464 1451L2421 1368M2464 1451L2558 1401M2487 38L2550 91M2487 38L2558 -39M2487 1478L2558 1401M63 99L112 113M63 99L-10 91M63 99L70 168M2623 99L2550 91M112 113L70 168M112 113L122 234M227 149L295 116M227 149L170 225M295 116L371 118M371 118L435 122M371 118L397 190M435 122L397 190M435 122L427 212M557 123L627 90M557 123L661 82M557 123L512 192M557 123L626 199M627 90L661 82M627 90L626 199M788 109L863 108M788 109L782 167M788 109L867 175M863 108L920 86M863 108L867 175M920 86L939 167M1027 86L1082 99M1027 86L1029 201M1027 86L975 -23M1027 1526L975 1417M1082 99L1164 131M1082 99L1029 201M1082 99L1129 181M1164 131L1241 138M1164 131L1103 203M1164 131L1129 181M1241 138L1322 149M1241 138L1266 225M1322 149L1382 100M1322 149L1266 225M1322 149L1344 175M1382 100L1344 175M1382 100L1357 -17M1382 1540L1357 1423M1485 89L1545 124M1485 89L1498 173M1485 89L1537 174M1545 124L1498 173M1545 124L1537 174M1665 141L1703 101M1665 141L1671 191M1703 101L1671 191M1835 146L1907 112M1835 146L1775 182M1907 112L1988 145M1907 112L1914 227M1907 112L1945 191M1988 145L2076 141M1988 145L1914 227M1988 145L1945 191M1988 145L2047 200M2076 141L2134 103M2076 141L2047 200M2134 103L2222 92M2134 103L2179 194M2222 92L2275 152M2275 152L2349 112M2275 152L2291 209M2349 112L2445 152M2445 152L2389 206M2445 152L2429 210M2445 152L2507 183M2550 91L2630 168M2550 91L2507 183M-10 91L70 168M70 168L122 234M70 168L2 243M122 234L170 225M122 234L123 316M170 225L272 239M170 225L228 295M272 239L228 295M272 239L249 283M272 239L340 285M397 190L427 212M397 190L428 261M427 212L512 192M427 212L428 261M512 192L626 199M512 192L428 261M512 192L556 299M626 199L657 219M626 199L688 251M657 219L688 251M657 219L750 256M782 167L867 175M782 167L688 251M782 167L750 256M867 175L939 167M867 175L870 280M939 167L1029 201M1029 201L1103 203M1029 201L1129 181M1103 203L1129 181M1103 203L1124 278M1129 181L1124 278M1266 225L1344 175M1266 225L1248 299M1266 225L1330 264M1344 175L1415 222M1344 175L1330 264M1415 222L1498 173M1415 222L1398 288M1498 173L1537 174M1498 173L1543 255M1537 174L1543 255M1671 191L1747 239M1671 191L1775 182M1671 191L1668 267M1747 239L1775 182M1747 239L1668 267M1747 239L1703 306M1747 239L1782 250M1775 182L1782 250M1914 227L1945 191M1914 227L1903 295M1914 227L1986 285M1945 191L1986 285M2047 200L2113 222M2047 200L2072 281M2047 200L2126 247M2113 222L2179 194M2113 222L2072 281M2113 222L2126 247M2113 222L2160 272M2179 194L2291 209M2179 194L2126 247M2179 194L2160 272M2291 209L2389 206M2291 209L2311 310M2389 206L2429 210M2389 206L2401 261M2429 210L2507 183M2429 210L2401 261M2507 183L2562 243M2507 183L2520 291M-53 183L2 243M2 243L-40 291M2 243L-58 327M2562 243L2520 291M2562 243L2502 327M123 316L106 356M123 316L148 419M228 295L249 283M228 295L228 359M228 295L272 330M249 283L340 285M249 283L228 359M249 283L272 330M340 285L428 261M340 285L272 330M428 261L489 339M556 299L583 315M556 299L474 379M556 299L489 339M556 299L653 365M583 315L489 339M583 315L623 399M583 315L653 365M688 251L750 256M750 256L870 280M750 256L778 331M870 280L894 294M870 280L840 374M870 280L932 345M894 294L932 345M1040 315L1070 318M1040 315L1124 278M1040 315L1025 351M1040 315L1069 371M1070 318L1124 278M1070 318L1025 351M1070 318L1069 371M1070 318L1140 347M1124 278L1140 347M1248 299L1330 264M1248 299L1210 320M1248 299L1304 333M1248 299L1243 407M1330 264L1398 288M1330 264L1304 333M1398 288L1466 306M1398 288L1304 333M1398 288L1376 353M1466 306L1543 255M1466 306L1462 372M1466 306L1551 340M1543 255L1668 267M1543 255L1551 340M1668 267L1703 306M1668 267L1782 250M1703 306L1782 250M1703 306L1624 373M1703 306L1729 387M1782 250L1824 339M1903 295L1986 285M1903 295L1824 339M1903 295L1897 339M1986 285L1897 339M2072 281L2126 247M2072 281L2160 272M2072 281L2129 350M2126 247L2160 272M2160 272L2129 350M2311 310L2335 290M2311 310L2217 361M2311 310L2302 330M2311 310L2346 322M2335 290L2401 261M2335 290L2302 330M2335 290L2346 322M2335 290L2415 327M2401 261L2346 322M2401 261L2415 327M2520 291L2574 357M2520 291L2502 327M-40 291L14 357M14 357L106 356M14 357L-58 327M14 357L31 451M14 357L-20 408M2574 357L2502 327M2574 357L2540 408M106 356L148 419M228 359L272 330M228 359L214 443M228 359L253 414M272 330L253 414M373 393L474 379M373 393L359 479M373 393L429 458M373 393L351 483M474 379L489 339M474 379L429 458M474 379L518 425M489 339L518 425M623 399L653 365M623 399L518 425M623 399L584 474M653 365L762 420M778 331L840 374M778 331L762 420M778 331L837 428M840 374L932 345M840 374L762 420M840 374L837 428M932 345L1025 351M1025 351L1069 371M1025 351L991 459M1069 371L1140 347M1069 371L1109 419M1140 347L1109 419M1140 347L1186 410M1210 320L1186 410M1210 320L1243 407M1304 333L1376 353M1304 333L1243 407M1376 353L1462 372M1376 353L1354 433M1376 353L1372 412M1462 372L1551 340M1462 372L1372 412M1462 372L1465 452M1551 340L1624 373M1624 373L1588 448M1624 373L1650 423M1624 373L1690 426M1729 387L1824 339M1729 387L1650 423M1729 387L1690 426M1729 387L1804 474M1824 339L1897 339M1897 339L1964 399M1897 339L1897 433M1964 399L2067 374M1964 399L1897 433M1964 399L1995 441M1964 399L2041 428M2067 374L2129 350M2067 374L1995 441M2067 374L2041 428M2067 374L2131 439M2129 350L2217 361M2129 350L2131 439M2217 361L2302 330M2217 361L2303 421M2302 330L2346 322M2302 330L2303 421M2346 322L2415 327M2415 327L2502 327M2415 327L2372 412M2502 327L2540 408M31 451L-20 408M31 451L75 481M31 451L103 529M2591 451L2540 408M148 419L214 443M148 419L253 414M148 419L75 481M214 443L253 414M214 443L190 514M214 443L282 492M253 414L282 492M359 479L429 458M359 479L282 492M359 479L351 483M359 479L310 560M429 458L518 425M429 458L351 483M518 425L584 474M584 474L601 555M696 479L762 420M696 479L680 523M696 479L731 557M696 479L699 588M696 479L749 565M762 420L837 428M837 428L900 474M900 474L991 459M900 474L823 552M900 474L880 557M900 474L964 552M991 459L1109 419M991 459L964 552M991 459L1063 509M1109 419L1186 410M1109 419L1063 509M1186 410L1243 407M1186 410L1258 493M1243 407L1258 493M1354 433L1372 412M1354 433L1305 523M1354 433L1363 537M1372 412L1465 452M1465 452L1472 500M1588 448L1650 423M1588 448L1690 426M1588 448L1542 522M1588 448L1600 491M1650 423L1690 426M1650 423L1600 491M1690 426L1748 498M1804 474L1897 433M1804 474L1748 498M1804 474L1776 543M1897 433L1995 441M1897 433L1904 533M1995 441L2041 428M1995 441L2058 513M2041 428L2131 439M2041 428L2058 513M2131 439L2194 472M2131 439L2084 508M2194 472L2171 538M2194 472L2259 535M2303 421L2372 412M2372 412L2427 467M2372 412L2392 496M2427 467L2540 408M2427 467L2392 496M2427 467L2435 542M2427 467L2527 560M2540 408L2635 481M-20 408L75 481M75 481L103 529M75 481L9 573M103 529L190 514M103 529L9 573M103 529L145 626M190 514L198 592M282 492L351 483M282 492L310 560M351 483L310 560M466 560L489 558M466 560L426 607M466 560L515 598M489 558L426 607M489 558L515 598M489 558L575 600M601 555L680 523M601 555L515 598M601 555L575 600M601 555L699 588M680 523L731 557M680 523L699 588M680 523L749 565M731 557L823 552M731 557L699 588M731 557L749 565M823 552L880 557M823 552L749 565M880 557L964 552M880 557L867 636M880 557L948 603M964 552L948 603M964 552L987 593M1063 509L1164 550M1063 509L1056 589M1063 509L1132 574M1164 550L1258 493M1164 550L1132 574M1164 550L1122 652M1258 493L1305 523M1258 493L1363 537M1305 523L1363 537M1305 523L1375 583M1363 537L1352 623M1363 537L1375 583M1472 500L1542 522M1472 500L1600 491M1472 500L1508 585M1542 522L1600 491M1542 522L1508 585M1600 491L1643 603M1748 498L1776 543M1748 498L1798 589M1776 543L1720 609M1776 543L1798 589M1904 533L1961 525M1904 533L1920 617M1904 533L1932 562M1961 525L2058 513M1961 525L1932 562M2058 513L2084 508M2058 513L2043 578M2084 508L2171 538M2084 508L2043 578M2084 508L2151 589M2171 538L2259 535M2171 538L2151 589M2171 538L2191 594M2259 535L2191 594M2259 535L2288 573M2259 535L2322 595M2392 496L2435 542M2392 496L2322 595M2435 542L2527 560M2435 542L2421 610M2435 542L2492 613M2527 560L2569 573M2527 560L2492 613M-33 560L9 573M9 573L-68 613M9 573L-42 655M2569 573L2492 613M2569 573L2518 655M145 626L198 592M145 626L47 695M145 626L131 655M145 626L233 700M198 592L310 560M198 592L131 655M310 560L343 613M343 613L426 607M343 613L317 697M343 613L396 665M343 613L405 680M426 607L396 665M426 607L405 680M515 598L575 600M515 598L529 690M575 600L529 690M575 600L567 679M699 588L749 565M867 636L948 603M867 636L860 711M867 636L905 677M867 636L863 731M948 603L987 593M987 593L1056 589M1056 589L1132 574M1056 589L1065 697M1056 589L1122 652M1132 574L1122 652M1262 628L1352 623M1262 628L1375 583M1262 628L1265 712M1262 628L1304 702M1352 623L1375 583M1352 623L1368 685M1508 585L1556 622M1508 585L1468 669M1508 585L1528 641M1556 622L1643 603M1556 622L1468 669M1556 622L1528 641M1556 622L1629 657M1643 603L1720 609M1643 603L1528 641M1643 603L1629 657M1720 609L1798 589M1720 609L1629 657M1720 609L1776 688M1798 589L1776 688M1920 617L1932 562M1920 617L1888 698M1920 617L1953 647M1920 617L2009 654M1932 562L1953 647M2043 578L2151 589M2043 578L1953 647M2043 578L2009 654M2151 589L2191 594M2151 589L2214 652M2191 594L2288 573M2191 594L2214 652M2288 573L2322 595M2322 595L2421 610M2322 595L2267 707M2421 610L2492 613M2492 613L2518 655M47 695L131 655M47 695L-42 655M47 695L66 799M47 695L-72 722M2607 695L2518 655M2607 695L2488 722M131 655L233 700M131 655L175 741M233 700L317 697M233 700L175 741M233 700L276 781M317 697L370 722M396 665L405 680M396 665L370 722M396 665L434 725M405 680L370 722M405 680L434 725M529 690L567 679M529 690L434 725M529 690L504 789M567 679L676 698M676 698L751 707M676 698L673 796M751 707L786 776M860 711L905 677M860 711L786 776M860 711L863 731M860 711L931 723M905 677L984 696M905 677L863 731M905 677L931 723M984 696L1065 697M984 696L931 723M984 696L1024 747M984 696L1070 746M1065 697L1122 652M1065 697L1024 747M1065 697L1070 746M1265 712L1304 702M1265 712L1262 797M1304 702L1368 685M1304 702L1342 752M1304 702L1367 728M1368 685L1468 669M1368 685L1342 752M1368 685L1367 728M1468 669L1528 641M1468 669L1470 722M1528 641L1629 657M1629 657L1602 730M1757 709L1776 688M1757 709L1710 796M1757 709L1785 750M1757 709L1712 811M1776 688L1888 698M1776 688L1785 750M1888 698L1953 647M1888 698L1890 756M1888 698L1933 770M1953 647L2009 654M2009 654L2118 703M2009 654L2045 727M2118 703L2214 652M2118 703L2045 727M2118 703L2159 788M2118 703L2188 751M2214 652L2267 707M2214 652L2188 751M2267 707L2358 717M2267 707L2188 751M2267 707L2316 735M2358 717L2447 710M2358 717L2316 735M2358 717L2370 780M2358 717L2406 750M2447 710L2518 655M2447 710L2406 750M2447 710L2488 722M2518 655L2488 722M66 799L135 794M66 799L47 852M66 799L88 842M66 799L-7 874M2626 799L2553 874M135 794L175 741M135 794L88 842M135 794L228 847M175 741L276 781M175 741L228 847M276 781L228 847M276 781L272 861M276 781L363 817M370 722L434 725M370 722L363 817M434 725L504 789M504 789L453 862M504 789L532 829M504 789L515 881M618 799L673 796M618 799L532 829M618 799L577 858M618 799L666 844M618 799L623 894M673 796L666 844M673 796L697 891M786 776L863 731M786 776L776 861M786 776L840 839M863 731L931 723M931 723L929 806M1024 747L1070 746M1024 747L1062 804M1070 746L1152 773M1070 746L1062 804M1152 773L1262 797M1152 773L1142 832M1262 797L1342 752M1262 797L1254 821M1262 797L1372 819M1342 752L1367 728M1342 752L1372 819M1367 728L1470 722M1367 728L1372 819M1470 722L1480 827M1592 774L1602 730M1592 774L1539 857M1710 796L1785 750M1710 796L1712 811M1785 750L1890 756M1785 750L1712 811M1890 756L1933 770M1890 756L1882 816M1933 770L1882 816M1933 770L2007 817M2045 727L2159 788M2045 727L2007 817M2159 788L2188 751M2159 788L2118 840M2159 788L2200 850M2188 751L2200 850M2316 735L2370 780M2316 735L2376 817M2370 780L2406 750M2370 780L2376 817M2370 780L2415 818M2406 750L2376 817M2406 750L2415 818M2488 722L2415 818M47 852L88 842M47 852L-7 874M47 852L57 918M47 852L-5 924M2607 852L2553 874M2607 852L2555 924M88 842L57 918M88 842L113 929M228 847L272 861M228 847L239 948M272 861L363 817M272 861L239 948M272 861L315 938M363 817L386 899M453 862L532 829M453 862L386 899M453 862L471 946M453 862L515 881M532 829L577 858M532 829L515 881M577 858L666 844M577 858L515 881M577 858L623 894M666 844L623 894M666 844L697 891M776 861L840 839M776 861L697 891M776 861L766 902M776 861L810 916M840 839L929 806M840 839L766 902M840 839L810 916M929 806L1008 863M929 806L1014 881M1008 863L1062 804M1008 863L916 923M1008 863L1014 881M1008 863L1108 890M1062 804L1142 832M1062 804L1108 890M1142 832L1254 821M1142 832L1108 890M1142 832L1219 913M1254 821L1219 913M1359 863L1372 819M1359 863L1480 827M1359 863L1298 937M1359 863L1420 946M1359 863L1443 949M1372 819L1480 827M1480 827L1539 857M1480 827L1443 949M1539 857L1626 865M1539 857L1599 904M1626 865L1712 811M1626 865L1599 904M1626 865L1650 956M1626 865L1683 938M1712 811L1812 879M1812 879L1882 816M1812 879L1783 899M1812 879L1866 953M1812 879L1873 966M1882 816L1965 873M1882 816L1942 884M1965 873L2007 817M1965 873L1942 884M1965 873L2063 914M2007 817L1942 884M2118 840L2200 850M2118 840L2063 914M2200 850L2258 900M2304 867L2376 817M2304 867L2258 900M2304 867L2332 958M2376 817L2415 818M2415 818L2456 889M2553 874L2617 918M2553 874L2456 889M2553 874L2555 924M-7 874L57 918M57 918L113 929M57 918L-5 924M2617 918L2555 924M113 929L134 1004M113 929L163 1021M239 948L315 938M239 948L163 1021M239 948L280 1023M315 938L386 899M315 938L280 1023M386 899L471 946M386 899L398 1006M471 946L515 881M471 946L398 1006M471 946L506 1030M623 894L697 891M623 894L597 963M697 891L766 902M766 902L810 916M810 916L771 1021M810 916L846 1027M916 923L1014 881M916 923L966 992M1014 881L1108 890M1108 890L1138 953M1138 953L1219 913M1138 953L1061 1017M1138 953L1147 1024M1138 953L1214 996M1219 913L1298 937M1219 913L1214 996M1298 937L1298 1030M1298 937L1362 983M1420 946L1443 949M1420 946L1362 983M1420 946L1478 1007M1443 949L1362 983M1443 949L1478 1007M1599 904L1650 956M1599 904L1683 938M1650 956L1683 938M1650 956L1693 1008M1683 938L1783 899M1683 938L1693 1008M1783 899L1866 953M1866 953L1942 884M1866 953L1827 1026M1866 953L1873 966M2063 914L2108 947M2063 914L2030 999M2063 914L2133 984M2108 947L2180 953M2108 947L2030 999M2108 947L2133 984M2108 947L2057 1041M2180 953L2258 900M2180 953L2133 984M2180 953L2220 1019M2180 953L2259 970M2258 900L2332 958M2258 900L2259 970M2332 958L2259 970M2332 958L2322 1015M2332 958L2412 1043M2456 889L2473 980M2555 924L2581 1011M2555 924L2553 1010M-5 924L21 1011M21 1011L134 1004M21 1011L-7 1010M21 1011L14 1050M2581 1011L2553 1010M134 1004L163 1021M134 1004L148 1102M163 1021L148 1102M163 1021L215 1117M280 1023L280 1079M398 1006L407 1022M398 1006L356 1081M398 1006L451 1047M407 1022L506 1030M407 1022L356 1081M407 1022L451 1047M407 1022L481 1097M506 1030L451 1047M506 1030L481 1097M506 1030L595 1071M597 963L668 1005M668 1005L771 1021M668 1005L595 1071M668 1005L652 1116M771 1021L846 1027M771 1021L763 1117M771 1021L827 1080M846 1027L925 1029M846 1027L827 1080M846 1027L942 1053M925 1029L966 992M925 1029L942 1053M925 1029L1014 1074M966 992L1061 1017M966 992L942 1053M1061 1017L1147 1024M1061 1017L1014 1074M1147 1024L1214 996M1147 1024L1093 1113M1147 1024L1226 1088M1214 996L1226 1088M1298 1030L1362 983M1298 1030L1226 1088M1298 1030L1327 1096M1298 1030L1372 1051M1362 983L1372 1051M1478 1007L1568 1029M1478 1007L1464 1100M1568 1029L1604 1037M1568 1029L1530 1115M1568 1029L1627 1052M1604 1037L1693 1008M1604 1037L1627 1052M1604 1037L1575 1122M1604 1037L1610 1140M1693 1008L1627 1052M1693 1008L1692 1135M1827 1026L1873 966M1827 1026L1829 1103M1827 1026L1853 1074M1827 1026L1844 1124M1873 966L1964 989M1873 966L1923 1051M1964 989L2030 999M1964 989L1923 1051M1964 989L2057 1041M2030 999L2057 1041M2133 984L2220 1019M2133 984L2057 1041M2220 1019L2259 970M2220 1019L2171 1104M2220 1019L2287 1060M2259 970L2322 1015M2322 1015L2287 1060M2322 1015L2396 1079M2322 1015L2412 1043M2473 980L2553 1010M2473 980L2412 1043M2473 980L2483 1062M2553 1010L2574 1050M2553 1010L2483 1062M-7 1010L14 1050M14 1050L-77 1062M14 1050L54 1133M14 1050L-50 1144M2574 1050L2483 1062M2574 1050L2510 1144M148 1102L215 1117M148 1102L86 1169M148 1102L237 1142M215 1117L280 1079M215 1117L237 1142M215 1117L280 1138M280 1079L356 1081M280 1079L237 1142M280 1079L280 1138M356 1081L280 1138M356 1081L422 1146M451 1047L481 1097M481 1097L422 1146M481 1097L510 1132M595 1071L652 1116M595 1071L510 1132M595 1071L634 1141M652 1116L634 1141M652 1116L715 1140M652 1116L644 1211M763 1117L827 1080M763 1117L715 1140M763 1117L759 1193M827 1080L904 1149M942 1053L1014 1074M942 1053L904 1149M1014 1074L1093 1113M1014 1074L1046 1154M1093 1113L1130 1119M1093 1113L1037 1177M1093 1113L1046 1154M1130 1119L1046 1154M1130 1119L1151 1196M1226 1088L1260 1141M1327 1096L1372 1051M1327 1096L1260 1141M1327 1096L1320 1147M1327 1096L1395 1153M1372 1051L1464 1100M1372 1051L1395 1153M1464 1100L1530 1115M1464 1100L1395 1153M1464 1100L1513 1174M1530 1115L1513 1174M1530 1115L1575 1122M1530 1115L1610 1140M1627 1052L1575 1122M1627 1052L1610 1140M1744 1115L1829 1103M1744 1115L1853 1074M1744 1115L1692 1135M1829 1103L1853 1074M1829 1103L1826 1194M1829 1103L1844 1124M1853 1074L1923 1051M1853 1074L1844 1124M2140 1120L2171 1104M2140 1120L2074 1183M2140 1120L2143 1145M2140 1120L2187 1192M2171 1104L2143 1145M2287 1060L2396 1079M2287 1060L2295 1131M2396 1079L2412 1043M2396 1079L2337 1157M2412 1043L2483 1062M2483 1062L2510 1144M54 1133L86 1169M54 1133L-50 1144M54 1133L57 1239M2614 1133L2510 1144M86 1169L57 1239M86 1169L119 1226M86 1169L182 1247M237 1142L280 1138M237 1142L342 1188M280 1138L342 1188M342 1188L422 1146M342 1188L371 1249M342 1188L380 1280M422 1146L510 1132M422 1146L444 1235M510 1132L551 1237M634 1141L715 1140M634 1141L612 1237M634 1141L644 1211M715 1140L759 1193M715 1140L644 1211M759 1193L844 1192M759 1193L785 1252M844 1192L904 1149M844 1192L785 1252M844 1192L878 1249M844 1192L911 1243M904 1149L911 1243M1037 1177L1046 1154M1037 1177L1151 1196M1037 1177L1116 1252M1046 1154L1151 1196M1151 1196L1116 1252M1151 1196L1146 1230M1260 1141L1320 1147M1260 1141L1289 1222M1320 1147L1395 1153M1320 1147L1289 1222M1320 1147L1370 1225M1395 1153L1370 1225M1513 1174L1575 1122M1513 1174L1504 1260M1513 1174L1539 1240M1575 1122L1610 1140M1610 1140L1692 1135M1692 1135L1722 1237M1826 1194L1844 1124M1826 1194L1782 1213M1826 1194L1859 1258M1844 1124L1782 1213M1953 1189L1859 1258M1953 1189L1974 1274M1953 1189L1989 1293M2074 1183L2143 1145M2074 1183L2079 1247M2143 1145L2187 1192M2143 1145L2146 1235M2187 1192L2146 1235M2187 1192L2217 1239M2187 1192L2187 1282M2295 1131L2337 1157M2295 1131L2363 1208M2337 1157L2416 1186M2337 1157L2304 1238M2337 1157L2363 1208M2416 1186L2510 1144M2416 1186L2363 1208M2416 1186L2411 1222M2416 1186L2487 1253M2510 1144L2487 1253M57 1239L119 1226M57 1239L73 1318M119 1226L182 1247M119 1226L130 1318M182 1247L278 1276M182 1247L130 1318M182 1247L173 1324M278 1276L371 1249M278 1276L285 1314M278 1276L243 1363M371 1249L444 1235M371 1249L380 1280M371 1249L410 1341M444 1235L380 1280M444 1235L410 1341M551 1237L612 1237M551 1237L525 1317M612 1237L644 1211M612 1237L597 1350M612 1237L664 1286M644 1211L664 1286M785 1252L835 1304M878 1249L911 1243M878 1249L965 1260M878 1249L835 1304M878 1249L937 1292M911 1243L965 1260M911 1243L937 1292M965 1260L937 1292M965 1260L980 1345M965 1260L1044 1316M1116 1252L1146 1230M1116 1252L1044 1316M1146 1230L1211 1313M1265 1277L1289 1222M1265 1277L1193 1347M1265 1277L1211 1313M1265 1277L1336 1282M1289 1222L1370 1225M1289 1222L1336 1282M1370 1225L1336 1282M1370 1225L1430 1306M1504 1260L1539 1240M1504 1260L1430 1306M1504 1260L1487 1321M1504 1260L1571 1351M1539 1240L1650 1259M1539 1240L1487 1321M1650 1259L1722 1237M1650 1259L1673 1325M1722 1237L1782 1213M1722 1237L1805 1291M1782 1213L1859 1258M1782 1213L1805 1291M1859 1258L1805 1291M1859 1258L1855 1293M1974 1274L1855 1293M1974 1274L1989 1293M2079 1247L2146 1235M2079 1247L2062 1318M2079 1247L2086 1358M2146 1235L2217 1239M2146 1235L2187 1282M2217 1239L2304 1238M2217 1239L2187 1282M2217 1239L2260 1314M2304 1238L2363 1208M2304 1238L2260 1314M2304 1238L2374 1319M2363 1208L2411 1222M2411 1222L2487 1253M2411 1222L2374 1319M2411 1222L2403 1317M2487 1253L2403 1317M73 1318L130 1318M73 1318L173 1324M73 1318L32 1374M73 1318L107 1364M130 1318L173 1324M130 1318L107 1364M173 1324L107 1364M173 1324L243 1363M285 1314L380 1280M285 1314L243 1363M380 1280L410 1341M410 1341L353 1429M410 1341L456 1396M525 1317L597 1350M525 1317L456 1396M525 1317L529 1420M525 1317L578 1395M597 1350L664 1286M597 1350L529 1420M597 1350L578 1395M767 1353L835 1304M767 1353L713 1399M767 1353L724 1406M767 1353L829 1374M835 1304L829 1374M937 1292L980 1345M937 1292L1044 1316M980 1345L1044 1316M980 1345L975 1417M980 1345L1053 1383M1044 1316L1053 1383M1193 1347L1211 1313M1193 1347L1198 1368M1193 1347L1208 1396M1211 1313L1198 1368M1211 1313L1208 1396M1336 1282L1430 1306M1430 1306L1487 1321M1430 1306L1405 1393M1487 1321L1571 1351M1487 1321L1452 1412M1571 1351L1673 1325M1571 1351L1537 1434M1571 1351L1661 1396M1673 1325L1739 1346M1673 1325L1661 1396M1673 1325L1721 1384M1739 1346L1805 1291M1739 1346L1661 1396M1739 1346L1721 1384M1739 1346L1786 1397M1805 1291L1855 1293M1989 1293L2062 1318M2062 1318L2086 1358M2062 1318L2069 1394M2062 1318L2123 1364M2086 1358L2069 1394M2086 1358L2123 1364M2187 1282L2260 1314M2187 1282L2211 1364M2260 1314L2211 1364M2260 1314L2265 1413M2374 1319L2403 1317M2374 1319L2393 1362M2374 1319L2421 1368M2403 1317L2393 1362M2403 1317L2421 1368M2528 1360L2592 1374M2528 1360L2421 1368M2528 1360L2558 1401M-32 1360L32 1374M32 1374L107 1364M32 1374L-2 1401M2592 1374L2558 1401M220 1431L243 1363M353 1429L456 1396M456 1396L529 1420M456 1396L578 1395M529 1420L578 1395M713 1399L724 1406M724 1406L829 1374M829 1374L883 1431M883 1431L975 1417M975 1417L1053 1383M1198 1368L1208 1396M1357 1423L1405 1393M1357 1423L1452 1412M1405 1393L1452 1412M1452 1412L1537 1434M1661 1396L1721 1384M1721 1384L1786 1397M1786 1397L1887 1433M1887 1433L1965 1419M2069 1394L2123 1364M2123 1364L2211 1364M2211 1364L2265 1413M2393 1362L2421 1368"/></svg>