<svg xmlns="http://www.w3.org/2000/svg" width="2560" height="1440" fill="#fff"><circle cx="2" cy="24" r="5"/><circle cx="2562" cy="24" r="5"/><circle cx="122" cy="54" r="5"/><circle cx="164" cy="28" r="5"/><circle cx="269" cy="36" r="5"/><circle cx="353" cy="23" r="5"/><circle cx="458" cy="24" r="5"/><circle cx="504" cy="52" r="5"/><circle cx="572" cy="11" r="5"/><circle cx="702" cy="72" r="4"/><circle cx="751" cy="35" r="5"/><circle cx="856" cy="42" r="4"/><circle cx="896" cy="2" r="5"/><circle cx="896" cy="1442" r="5"/><circle cx="1016" cy="32" r="5"/><circle cx="1096" cy="31" r="6"/><circle cx="1131" cy="55" r="5"/><circle cx="1226" cy="39" r="5"/><circle cx="1321" cy="22" r="6"/><circle cx="1420" cy="23" r="5"/><circle cx="1476" cy="72" r="4"/><circle cx="1595" cy="1" r="5"/><circle cx="1595" cy="1441" r="5"/><circle cx="1603" cy="58" r="5"/><circle cx="1721" cy="19" r="5"/><circle cx="1776" cy="5" r="6"/><circle cx="1776" cy="1445" r="6"/><circle cx="1882" cy="43" r="5"/><circle cx="1925" cy="75" r="6"/><circle cx="2044" cy="73" r="6"/><circle cx="2134" cy="60" r="4"/><circle cx="2222" cy="73" r="5"/><circle cx="2299" cy="73" r="6"/><circle cx="2389" cy="80" r="4"/><circle cx="2417" cy="10" r="5"/><circle cx="2499" cy="74" r="5"/><circle cx="12" cy="137" r="6"/><circle cx="95" cy="115" r="5"/><circle cx="180" cy="105" r="5"/><circle cx="251" cy="148" r="4"/><circle cx="323" cy="92" r="5"/><circle cx="445" cy="146" r="6"/><circle cx="496" cy="135" r="5"/><circle cx="576" cy="80" r="5"/><circle cx="675" cy="153" r="4"/><circle cx="730" cy="84" r="6"/><circle cx="811" cy="131" r="6"/><circle cx="933" cy="113" r="5"/><circle cx="973" cy="121" r="5"/><circle cx="1056" cy="149" r="5"/><circle cx="1152" cy="132" r="4"/><circle cx="1246" cy="101" r="5"/><circle cx="1348" cy="117" r="5"/><circle cx="1385" cy="103" r="5"/><circle cx="1514" cy="100" r="5"/><circle cx="1571" cy="138" r="5"/><circle cx="1600" cy="141" r="6"/><circle cx="1691" cy="142" r="6"/><circle cx="1773" cy="136" r="5"/><circle cx="1871" cy="147" r="6"/><circle cx="1997" cy="91" r="5"/><circle cx="2061" cy="139" r="5"/><circle cx="2116" cy="104" r="6"/><circle cx="2188" cy="85" r="6"/><circle cx="2315" cy="117" r="5"/><circle cx="2343" cy="88" r="4"/><circle cx="2455" cy="104" r="4"/><circle cx="2484" cy="87" r="6"/><circle cx="62" cy="206" r="4"/><circle cx="86" cy="171" r="5"/><circle cx="173" cy="219" r="4"/><circle cx="280" cy="219" r="5"/><circle cx="378" cy="165" r="5"/><circle cx="456" cy="193" r="4"/><circle cx="496" cy="175" r="5"/><circle cx="582" cy="190" r="4"/><circle cx="715" cy="207" r="5"/><circle cx="746" cy="217" r="6"/><circle cx="818" cy="190" r="4"/><circle cx="956" cy="215" r="4"/><circle cx="970" cy="170" r="5"/><circle cx="1080" cy="176" r="5"/><circle cx="1169" cy="194" r="5"/><circle cx="1208" cy="224" r="6"/><circle cx="1310" cy="214" r="4"/><circle cx="1390" cy="223" r="6"/><circle cx="1459" cy="219" r="4"/><circle cx="1568" cy="168" r="4"/><circle cx="1676" cy="232" r="5"/><circle cx="1730" cy="167" r="5"/><circle cx="1770" cy="210" r="5"/><circle cx="1886" cy="200" r="4"/><circle cx="1947" cy="220" r="4"/><circle cx="2005" cy="161" r="5"/><circle cx="2150" cy="182" r="5"/><circle cx="2204" cy="231" r="4"/><circle cx="2267" cy="193" r="5"/><circle cx="2338" cy="196" r="5"/><circle cx="2466" cy="182" r="5"/><circle cx="2508" cy="219" r="4"/><circle cx="60" cy="243" r="6"/><circle cx="125" cy="307" r="5"/><circle cx="229" cy="242" r="5"/><circle cx="265" cy="292" r="6"/><circle cx="321" cy="246" r="5"/><circle cx="425" cy="255" r="5"/><circle cx="509" cy="248" r="6"/><circle cx="585" cy="292" r="4"/><circle cx="667" cy="256" r="4"/><circle cx="744" cy="278" r="6"/><circle cx="879" cy="251" r="6"/><circle cx="895" cy="259" r="4"/><circle cx="968" cy="318" r="6"/><circle cx="1109" cy="319" r="4"/><circle cx="1192" cy="312" r="5"/><circle cx="1265" cy="246" r="6"/><circle cx="1299" cy="285" r="5"/><circle cx="1440" cy="306" r="5"/><circle cx="1509" cy="293" r="5"/><circle cx="1561" cy="306" r="5"/><circle cx="1609" cy="302" r="4"/><circle cx="1690" cy="317" r="5"/><circle cx="1836" cy="301" r="5"/><circle cx="1844" cy="301" r="5"/><circle cx="1972" cy="300" r="4"/><circle cx="2033" cy="306" r="5"/><circle cx="2120" cy="269" r="5"/><circle cx="2205" cy="277" r="5"/><circle cx="2268" cy="253" r="6"/><circle cx="2332" cy="282" r="5"/><circle cx="2430" cy="291" r="6"/><circle cx="2538" cy="272" r="5"/><circle cx="56" cy="382" r="6"/><circle cx="92" cy="332" r="5"/><circle cx="169" cy="325" r="6"/><circle cx="277" cy="370" r="5"/><circle cx="396" cy="339" r="5"/><circle cx="473" cy="373" r="5"/><circle cx="493" cy="355" r="5"/><circle cx="608" cy="398" r="6"/><circle cx="656" cy="334" r="6"/><circle cx="763" cy="374" r="4"/><circle cx="802" cy="388" r="6"/><circle cx="957" cy="332" r="5"/><circle cx="1036" cy="327" r="6"/><circle cx="1086" cy="359" r="6"/><circle cx="1125" cy="396" r="6"/><circle cx="1220" cy="347" r="4"/><circle cx="1288" cy="369" r="6"/><circle cx="1387" cy="345" r="6"/><circle cx="1443" cy="327" r="5"/><circle cx="1546" cy="334" r="5"/><circle cx="1647" cy="385" r="4"/><circle cx="1722" cy="338" r="5"/><circle cx="1780" cy="363" r="4"/><circle cx="1860" cy="361" r="5"/><circle cx="1980" cy="343" r="5"/><circle cx="2050" cy="378" r="6"/><circle cx="2125" cy="397" r="4"/><circle cx="2224" cy="349" r="5"/><circle cx="2300" cy="388" r="6"/><circle cx="2349" cy="330" r="5"/><circle cx="2430" cy="399" r="5"/><circle cx="2540" cy="337" r="5"/><circle cx="70" cy="455" r="6"/><circle cx="149" cy="433" r="5"/><circle cx="165" cy="476" r="4"/><circle cx="240" cy="438" r="5"/><circle cx="400" cy="442" r="6"/><circle cx="461" cy="431" r="6"/><circle cx="501" cy="479" r="6"/><circle cx="562" cy="457" r="5"/><circle cx="661" cy="457" r="6"/><circle cx="750" cy="447" r="5"/><circle cx="876" cy="413" r="6"/><circle cx="953" cy="434" r="6"/><circle cx="1035" cy="433" r="5"/><circle cx="1116" cy="423" r="5"/><circle cx="1169" cy="429" r="5"/><circle cx="1219" cy="416" r="5"/><circle cx="1325" cy="471" r="4"/><circle cx="1410" cy="410" r="4"/><circle cx="1474" cy="466" r="4"/><circle cx="1592" cy="454" r="6"/><circle cx="1609" cy="431" r="6"/><circle cx="1687" cy="462" r="4"/><circle cx="1773" cy="412" r="5"/><circle cx="1901" cy="437" r="6"/><circle cx="1963" cy="434" r="6"/><circle cx="2009" cy="451" r="5"/><circle cx="2111" cy="471" r="5"/><circle cx="2214" cy="438" r="5"/><circle cx="2295" cy="469" r="4"/><circle cx="2364" cy="412" r="6"/><circle cx="2410" cy="419" r="4"/><circle cx="2558" cy="401" r="5"/><circle cx="-2" cy="401" r="5"/><circle cx="57" cy="544" r="4"/><circle cx="139" cy="555" r="5"/><circle cx="183" cy="483" r="4"/><circle cx="307" cy="517" r="6"/><circle cx="380" cy="533" r="4"/><circle cx="410" cy="558" r="6"/><circle cx="533" cy="544" r="6"/><circle cx="634" cy="506" r="5"/><circle cx="658" cy="522" r="6"/><circle cx="737" cy="545" r="5"/><circle cx="807" cy="553" r="5"/><circle cx="902" cy="521" r="5"/><circle cx="998" cy="557" r="5"/><circle cx="1106" cy="504" r="6"/><circle cx="1141" cy="526" r="6"/><circle cx="1239" cy="508" r="5"/><circle cx="1324" cy="488" r="5"/><circle cx="1438" cy="499" r="6"/><circle cx="1453" cy="512" r="5"/><circle cx="1548" cy="491" r="5"/><circle cx="1614" cy="547" r="4"/><circle cx="1747" cy="545" r="6"/><circle cx="1783" cy="535" r="5"/><circle cx="1843" cy="483" r="5"/><circle cx="1958" cy="491" r="6"/><circle cx="2040" cy="533" r="6"/><circle cx="2106" cy="522" r="5"/><circle cx="2223" cy="503" r="4"/><circle cx="2245" cy="554" r="4"/><circle cx="2375" cy="530" r="6"/><circle cx="2458" cy="485" r="5"/><circle cx="2500" cy="546" r="6"/><circle cx="8" cy="598" r="4"/><circle cx="118" cy="567" r="5"/><circle cx="172" cy="565" r="6"/><circle cx="315" cy="634" r="5"/><circle cx="378" cy="607" r="5"/><circle cx="474" cy="573" r="5"/><circle cx="546" cy="632" r="5"/><circle cx="597" cy="597" r="4"/><circle cx="656" cy="605" r="5"/><circle cx="789" cy="588" r="6"/><circle cx="823" cy="566" r="5"/><circle cx="926" cy="588" r="6"/><circle cx="1029" cy="628" r="5"/><circle cx="1045" cy="631" r="5"/><circle cx="1172" cy="607" r="5"/><circle cx="1253" cy="572" r="5"/><circle cx="1315" cy="563" r="5"/><circle cx="1430" cy="635" r="4"/><circle cx="1452" cy="621" r="4"/><circle cx="1543" cy="571" r="5"/><circle cx="1642" cy="633" r="5"/><circle cx="1712" cy="567" r="5"/><circle cx="1811" cy="598" r="5"/><circle cx="1912" cy="599" r="4"/><circle cx="1925" cy="612" r="5"/><circle cx="2016" cy="610" r="4"/><circle cx="2106" cy="600" r="5"/><circle cx="2186" cy="575" r="5"/><circle cx="2262" cy="565" r="4"/><circle cx="2393" cy="561" r="5"/><circle cx="2405" cy="609" r="5"/><circle cx="2510" cy="583" r="6"/><circle cx="52" cy="688" r="5"/><circle cx="160" cy="672" r="6"/><circle cx="169" cy="686" r="6"/><circle cx="289" cy="648" r="6"/><circle cx="323" cy="695" r="5"/><circle cx="469" cy="699" r="5"/><circle cx="540" cy="693" r="5"/><circle cx="597" cy="655" r="6"/><circle cx="675" cy="663" r="4"/><circle cx="759" cy="670" r="5"/><circle cx="865" cy="644" r="4"/><circle cx="913" cy="654" r="5"/><circle cx="993" cy="645" r="6"/><circle cx="1081" cy="707" r="5"/><circle cx="1185" cy="652" r="5"/><circle cx="1256" cy="702" r="6"/><circle cx="1328" cy="710" r="5"/><circle cx="1414" cy="718" r="5"/><circle cx="1498" cy="694" r="6"/><circle cx="1567" cy="645" r="6"/><circle cx="1675" cy="716" r="4"/><circle cx="1712" cy="712" r="5"/><circle cx="1798" cy="658" r="6"/><circle cx="1880" cy="660" r="5"/><circle cx="1984" cy="645" r="5"/><circle cx="2011" cy="658" r="5"/><circle cx="2117" cy="645" r="5"/><circle cx="2178" cy="663" r="6"/><circle cx="2266" cy="656" r="4"/><circle cx="2375" cy="706" r="4"/><circle cx="2455" cy="693" r="4"/><circle cx="2536" cy="661" r="5"/><circle cx="30" cy="758" r="5"/><circle cx="94" cy="728" r="6"/><circle cx="220" cy="752" r="6"/><circle cx="318" cy="743" r="5"/><circle cx="335" cy="778" r="5"/><circle cx="477" cy="730" r="5"/><circle cx="521" cy="760" r="5"/><circle cx="598" cy="732" r="5"/><circle cx="694" cy="747" r="6"/><circle cx="749" cy="764" r="6"/><circle cx="828" cy="757" r="4"/><circle cx="954" cy="759" r="6"/><circle cx="1023" cy="789" r="5"/><circle cx="1119" cy="794" r="5"/><circle cx="1186" cy="788" r="5"/><circle cx="1237" cy="778" r="4"/><circle cx="1301" cy="781" r="6"/><circle cx="1360" cy="721" r="5"/><circle cx="1504" cy="750" r="5"/><circle cx="1541" cy="773" r="5"/><circle cx="1665" cy="747" r="6"/><circle cx="1731" cy="787" r="5"/><circle cx="1840" cy="742" r="6"/><circle cx="1840" cy="792" r="5"/><circle cx="1934" cy="762" r="6"/><circle cx="2046" cy="729" r="4"/><circle cx="2134" cy="723" r="6"/><circle cx="2169" cy="761" r="6"/><circle cx="2320" cy="763" r="5"/><circle cx="2353" cy="750" r="5"/><circle cx="2423" cy="753" r="5"/><circle cx="2511" cy="786" r="6"/><circle cx="34" cy="857" r="5"/><circle cx="100" cy="879" r="5"/><circle cx="216" cy="854" r="5"/><circle cx="296" cy="863" r="4"/><circle cx="375" cy="803" r="5"/><circle cx="461" cy="827" r="5"/><circle cx="534" cy="827" r="4"/><circle cx="623" cy="876" r="6"/><circle cx="673" cy="820" r="4"/><circle cx="722" cy="806" r="5"/><circle cx="880" cy="803" r="6"/><circle cx="904" cy="877" r="4"/><circle cx="1011" cy="868" r="5"/><circle cx="1069" cy="809" r="5"/><circle cx="1194" cy="808" r="6"/><circle cx="1226" cy="847" r="6"/><circle cx="1282" cy="802" r="5"/><circle cx="1372" cy="867" r="5"/><circle cx="1451" cy="805" r="6"/><circle cx="1558" cy="804" r="6"/><circle cx="1675" cy="860" r="6"/><circle cx="1708" cy="861" r="5"/><circle cx="1836" cy="853" r="5"/><circle cx="1918" cy="870" r="5"/><circle cx="1946" cy="869" r="5"/><circle cx="2026" cy="859" r="5"/><circle cx="2139" cy="850" r="5"/><circle cx="2218" cy="864" r="4"/><circle cx="2291" cy="811" r="6"/><circle cx="2327" cy="835" r="6"/><circle cx="2429" cy="818" r="4"/><circle cx="2533" cy="858" r="4"/><circle cx="0" cy="944" r="5"/><circle cx="2560" cy="944" r="5"/><circle cx="153" cy="901" r="5"/><circle cx="216" cy="941" r="5"/><circle cx="248" cy="882" r="5"/><circle cx="389" cy="899" r="6"/><circle cx="422" cy="941" r="5"/><circle cx="522" cy="947" r="4"/><circle cx="603" cy="934" r="4"/><circle cx="665" cy="923" r="6"/><circle cx="732" cy="938" r="6"/><circle cx="875" cy="887" r="4"/><circle cx="943" cy="895" r="5"/><circle cx="1010" cy="946" r="5"/><circle cx="1083" cy="929" r="5"/><circle cx="1152" cy="883" r="4"/><circle cx="1208" cy="938" r="5"/><circle cx="1348" cy="914" r="6"/><circle cx="1430" cy="927" r="5"/><circle cx="1492" cy="899" r="5"/><circle cx="1534" cy="890" r="6"/><circle cx="1640" cy="935" r="5"/><circle cx="1682" cy="893" r="5"/><circle cx="1834" cy="903" r="4"/><circle cx="1900" cy="913" r="5"/><circle cx="1923" cy="952" r="6"/><circle cx="2016" cy="923" r="4"/><circle cx="2109" cy="910" r="5"/><circle cx="2163" cy="918" r="5"/><circle cx="2306" cy="940" r="5"/><circle cx="2363" cy="901" r="5"/><circle cx="2415" cy="889" r="4"/><circle cx="2524" cy="887" r="5"/><circle cx="46" cy="992" r="5"/><circle cx="157" cy="1038" r="5"/><circle cx="234" cy="963" r="5"/><circle cx="266" cy="1028" r="6"/><circle cx="381" cy="1021" r="5"/><circle cx="463" cy="1027" r="4"/><circle cx="547" cy="1032" r="6"/><circle cx="567" cy="970" r="6"/><circle cx="703" cy="1016" r="4"/><circle cx="724" cy="960" r="4"/><circle cx="844" cy="1029" r="4"/><circle cx="947" cy="992" r="4"/><circle cx="1003" cy="971" r="4"/><circle cx="1088" cy="978" r="5"/><circle cx="1190" cy="1030" r="6"/><circle cx="1245" cy="996" r="5"/><circle cx="1288" cy="1009" r="4"/><circle cx="1425" cy="981" r="4"/><circle cx="1441" cy="993" r="5"/><circle cx="1559" cy="985" r="5"/><circle cx="1667" cy="966" r="4"/><circle cx="1751" cy="1039" r="6"/><circle cx="1760" cy="1018" r="5"/><circle cx="1845" cy="966" r="5"/><circle cx="1925" cy="1027" r="4"/><circle cx="2036" cy="967" r="4"/><circle cx="2101" cy="1017" r="6"/><circle cx="2169" cy="1021" r="6"/><circle cx="2271" cy="983" r="4"/><circle cx="2328" cy="1011" r="5"/><circle cx="2466" cy="1020" r="5"/><circle cx="2501" cy="982" r="5"/><circle cx="73" cy="1068" r="5"/><circle cx="156" cy="1115" r="6"/><circle cx="167" cy="1097" r="5"/><circle cx="316" cy="1054" r="4"/><circle cx="387" cy="1089" r="5"/><circle cx="424" cy="1072" r="6"/><circle cx="541" cy="1110" r="4"/><circle cx="586" cy="1103" r="6"/><circle cx="657" cy="1048" r="5"/><circle cx="775" cy="1100" r="5"/><circle cx="820" cy="1068" r="4"/><circle cx="891" cy="1051" r="6"/><circle cx="1031" cy="1047" r="6"/><circle cx="1112" cy="1118" r="5"/><circle cx="1168" cy="1079" r="4"/><circle cx="1205" cy="1081" r="4"/><circle cx="1342" cy="1117" r="5"/><circle cx="1409" cy="1098" r="5"/><circle cx="1470" cy="1055" r="5"/><circle cx="1586" cy="1044" r="6"/><circle cx="1662" cy="1059" r="4"/><circle cx="1686" cy="1110" r="6"/><circle cx="1802" cy="1062" r="5"/><circle cx="1855" cy="1099" r="4"/><circle cx="1950" cy="1095" r="5"/><circle cx="2032" cy="1096" r="6"/><circle cx="2116" cy="1078" r="4"/><circle cx="2199" cy="1053" r="6"/><circle cx="2285" cy="1063" r="5"/><circle cx="2393" cy="1044" r="4"/><circle cx="2461" cy="1091" r="5"/><circle cx="2482" cy="1067" r="5"/><circle cx="77" cy="1150" r="4"/><circle cx="117" cy="1155" r="4"/><circle cx="173" cy="1124" r="4"/><circle cx="245" cy="1149" r="5"/><circle cx="327" cy="1132" r="4"/><circle cx="470" cy="1139" r="5"/><circle cx="504" cy="1154" r="5"/><circle cx="595" cy="1138" r="5"/><circle cx="705" cy="1135" r="6"/><circle cx="787" cy="1135" r="6"/><circle cx="863" cy="1187" r="4"/><circle cx="925" cy="1165" r="6"/><circle cx="1019" cy="1171" r="6"/><circle cx="1046" cy="1193" r="6"/><circle cx="1121" cy="1160" r="4"/><circle cx="1215" cy="1121" r="6"/><circle cx="1295" cy="1168" r="5"/><circle cx="1427" cy="1179" r="5"/><circle cx="1487" cy="1163" r="5"/><circle cx="1548" cy="1154" r="6"/><circle cx="1617" cy="1162" r="5"/><circle cx="1717" cy="1196" r="5"/><circle cx="1836" cy="1177" r="6"/><circle cx="1844" cy="1134" r="5"/><circle cx="1967" cy="1135" r="5"/><circle cx="2018" cy="1160" r="5"/><circle cx="2149" cy="1189" r="5"/><circle cx="2175" cy="1136" r="5"/><circle cx="2278" cy="1120" r="5"/><circle cx="2390" cy="1162" r="5"/><circle cx="2411" cy="1128" r="6"/><circle cx="2503" cy="1151" r="5"/><circle cx="37" cy="1279" r="4"/><circle cx="100" cy="1260" r="5"/><circle cx="232" cy="1244" r="4"/><circle cx="243" cy="1225" r="4"/><circle cx="330" cy="1218" r="5"/><circle cx="422" cy="1214" r="5"/><circle cx="482" cy="1252" r="4"/><circle cx="592" cy="1267" r="5"/><circle cx="691" cy="1219" r="5"/><circle cx="792" cy="1236" r="5"/><circle cx="819" cy="1237" r="5"/><circle cx="960" cy="1218" r="4"/><circle cx="1038" cy="1267" r="5"/><circle cx="1079" cy="1211" r="4"/><circle cx="1125" cy="1228" r="5"/><circle cx="1215" cy="1277" r="5"/><circle cx="1315" cy="1201" r="5"/><circle cx="1420" cy="1216" r="6"/><circle cx="1514" cy="1201" r="5"/><circle cx="1524" cy="1250" r="5"/><circle cx="1621" cy="1260" r="4"/><circle cx="1720" cy="1274" r="4"/><circle cx="1778" cy="1225" r="4"/><circle cx="1867" cy="1205" r="4"/><circle cx="1932" cy="1246" r="4"/><circle cx="2050" cy="1200" r="5"/><circle cx="2092" cy="1259" r="5"/><circle cx="2238" cy="1254" r="6"/><circle cx="2294" cy="1237" r="5"/><circle cx="2322" cy="1212" r="4"/><circle cx="2454" cy="1231" r="6"/><circle cx="2522" cy="1222" r="5"/><circle cx="12" cy="1327" r="5"/><circle cx="95" cy="1295" r="6"/><circle cx="187" cy="1321" r="4"/><circle cx="249" cy="1334" r="5"/><circle cx="375" cy="1342" r="6"/><circle cx="417" cy="1317" r="5"/><circle cx="485" cy="1355" r="6"/><circle cx="614" cy="1318" r="5"/><circle cx="683" cy="1282" r="6"/><circle cx="749" cy="1290" r="5"/><circle cx="864" cy="1336" r="5"/><circle cx="908" cy="1315" r="5"/><circle cx="989" cy="1309" r="5"/><circle cx="1045" cy="1305" r="6"/><circle cx="1154" cy="1313" r="5"/><circle cx="1272" cy="1339" r="6"/><circle cx="1315" cy="1317" r="5"/><circle cx="1400" cy="1343" r="5"/><circle cx="1477" cy="1289" r="4"/><circle cx="1535" cy="1291" r="5"/><circle cx="1658" cy="1344" r="6"/><circle cx="1706" cy="1294" r="5"/><circle cx="1796" cy="1335" r="5"/><circle cx="1888" cy="1299" r="6"/><circle cx="1950" cy="1345" r="5"/><circle cx="2017" cy="1315" r="5"/><circle cx="2146" cy="1294" r="5"/><circle cx="2195" cy="1328" r="6"/><circle cx="2283" cy="1309" r="5"/><circle cx="2334" cy="1299" r="6"/><circle cx="2444" cy="1350" r="4"/><circle cx="2553" cy="1337" r="5"/><circle cx="71" cy="1391" r="5"/><circle cx="91" cy="1401" r="5"/><circle cx="179" cy="1433" r="6"/><circle cx="293" cy="1393" r="6"/><circle cx="386" cy="1382" r="5"/><circle cx="471" cy="1376" r="6"/><circle cx="545" cy="1364" r="5"/><circle cx="569" cy="1408" r="5"/><circle cx="686" cy="1413" r="6"/><circle cx="737" cy="1382" r="4"/><circle cx="808" cy="1430" r="6"/><circle cx="886" cy="1404" r="5"/><circle cx="967" cy="1370" r="5"/><circle cx="1092" cy="1413" r="6"/><circle cx="1154" cy="1409" r="6"/><circle cx="1249" cy="1373" r="5"/><circle cx="1320" cy="1408" r="4"/><circle cx="1387" cy="1427" r="5"/><circle cx="1446" cy="1395" r="5"/><circle cx="1542" cy="1423" r="6"/><circle cx="1678" cy="1367" r="5"/><circle cx="1692" cy="1407" r="4"/><circle cx="1795" cy="1435" r="5"/><circle cx="1795" cy="-5" r="5"/><circle cx="1863" cy="1411" r="5"/><circle cx="1985" cy="1394" r="4"/><circle cx="2016" cy="1390" r="5"/><circle cx="2135" cy="1433" r="4"/><circle cx="2189" cy="1360" r="5"/><circle cx="2287" cy="1428" r="5"/><circle cx="2345" cy="1366" r="6"/><circle cx="2455" cy="1403" r="6"/><circle cx="2500" cy="1401" r="6"/><path stroke="#fff" d="M2 24L-61 74M2 24L-76 87M2 24L71 -49M2 24L-60 -39M2562 24L2499 74M2562 24L2484 87M2562 24L2500 -39M2 1464L71 1391M2 1464L-60 1401M2562 1464L2500 1401M122 54L164 28M122 54L95 115M122 54L180 105M122 54L91 -39M122 54L179 -7M122 1494L91 1401M122 1494L179 1433M164 28L269 36M164 28L180 105M164 28L91 -39M164 28L179 -7M164 1468L91 1401M164 1468L179 1433M269 36L353 23M269 36L323 92M269 36L179 -7M269 36L293 -47M269 1476L179 1433M269 1476L293 1393M353 23L458 24M353 23L323 92M353 23L293 -47M353 23L386 -58M353 1463L293 1393M353 1463L386 1382M458 24L504 52M458 24L471 -64M458 1464L471 1376M504 52L572 11M504 52L496 135M504 52L576 80M572 11L576 80M572 11L545 -76M572 11L569 -32M572 1451L545 1364M572 1451L569 1408M702 72L751 35M702 72L675 153M702 72L730 84M702 72L686 -27M702 1512L686 1413M751 35L730 84M751 35L686 -27M751 35L737 -58M751 35L808 -10M751 1475L686 1413M751 1475L737 1382M751 1475L808 1430M856 42L896 2M856 42L811 131M856 42L933 113M856 42L808 -10M856 42L886 -36M856 1482L808 1430M856 1482L886 1404M896 2L864 -104M896 2L808 -10M896 2L886 -36M896 2L967 -70M896 1442L864 1336M896 1442L808 1430M896 1442L886 1404M896 1442L967 1370M1016 32L1096 31M1016 32L973 121M1016 32L1092 -27M1016 1472L1092 1413M1096 31L1131 55M1096 31L1056 149M1096 31L1092 -27M1096 31L1154 -31M1096 1471L1092 1413M1096 1471L1154 1409M1131 55L1226 39M1131 55L1152 132M1131 55L1092 -27M1131 55L1154 -31M1131 1495L1092 1413M1131 1495L1154 1409M1226 39L1321 22M1226 39L1246 101M1226 39L1154 -31M1226 39L1249 -67M1226 1479L1154 1409M1226 1479L1249 1373M1321 22L1420 23M1321 22L1348 117M1321 22L1320 -32M1321 22L1387 -13M1321 1462L1320 1408M1321 1462L1387 1427M1420 23L1476 72M1420 23L1385 103M1420 23L1387 -13M1420 23L1446 -45M1420 1463L1387 1427M1420 1463L1446 1395M1476 72L1385 103M1476 72L1514 100M1476 72L1542 -17M1476 1512L1542 1423M1595 1L1603 58M1595 1L1542 -17M1595 1L1678 -73M1595 1L1692 -33M1595 1441L1542 1423M1595 1441L1678 1367M1595 1441L1692 1407M1603 58L1514 100M1603 58L1571 138M1603 58L1600 141M1603 58L1542 -17M1603 1498L1542 1423M1721 19L1776 5M1721 19L1678 -73M1721 19L1692 -33M1721 19L1795 -5M1721 1459L1678 1367M1721 1459L1692 1407M1721 1459L1795 1435M1776 5L1882 43M1776 5L1692 -33M1776 5L1795 -5M1776 5L1863 -29M1776 1445L1692 1407M1776 1445L1795 1435M1776 1445L1863 1411M1882 43L1925 75M1882 43L1871 147M1882 43L1795 -5M1882 43L1863 -29M1882 1483L1795 1435M1882 1483L1863 1411M1925 75L1871 147M1925 75L1997 91M1925 75L2005 161M2044 73L2134 60M2044 73L1997 91M2044 73L2061 139M2044 73L2116 104M2044 73L2005 161M2134 60L2222 73M2134 60L2116 104M2134 60L2188 85M2134 60L2135 -7M2134 1500L2135 1433M2222 73L2299 73M2222 73L2188 85M2222 73L2287 -12M2222 1513L2287 1428M2299 73L2389 80M2299 73L2315 117M2299 73L2343 88M2299 73L2287 -12M2299 1513L2287 1428M2389 80L2417 10M2389 80L2315 117M2389 80L2343 88M2389 80L2455 104M2417 10L2499 74M2417 10L2455 -37M2417 10L2500 -39M2417 1450L2455 1403M2417 1450L2500 1401M2499 74L2572 137M2499 74L2455 104M2499 74L2484 87M-61 74L12 137M12 137L95 115M12 137L-76 87M12 137L62 206M12 137L86 171M2572 137L2484 87M95 115L180 105M95 115L62 206M95 115L86 171M180 105L251 148M251 148L323 92M251 148L280 219M323 92L378 165M445 146L496 135M445 146L378 165M445 146L456 193M445 146L496 175M496 135L576 80M496 135L456 193M496 135L496 175M576 80L582 190M675 153L730 84M675 153L582 190M675 153L715 207M730 84L811 131M730 84L686 -27M730 1524L686 1413M811 131L746 217M811 131L818 190M933 113L973 121M933 113L970 170M973 121L1056 149M973 121L956 215M973 121L970 170M1056 149L1152 132M1056 149L970 170M1056 149L1080 176M1152 132L1246 101M1152 132L1080 176M1152 132L1169 194M1246 101L1348 117M1348 117L1385 103M1348 117L1310 214M1514 100L1571 138M1514 100L1600 141M1514 100L1568 168M1571 138L1600 141M1571 138L1568 168M1600 141L1691 142M1600 141L1568 168M1691 142L1773 136M1691 142L1676 232M1691 142L1730 167M1691 142L1770 210M1773 136L1871 147M1773 136L1730 167M1773 136L1770 210M1871 147L1886 200M1871 147L1947 220M1997 91L2061 139M1997 91L2005 161M2061 139L2116 104M2061 139L2005 161M2061 139L2150 182M2116 104L2188 85M2116 104L2150 182M2188 85L2150 182M2188 85L2135 -7M2188 1525L2135 1433M2315 117L2343 88M2315 117L2267 193M2315 117L2338 196M2343 88L2338 196M2343 88L2287 -12M2343 1528L2287 1428M2455 104L2484 87M2455 104L2466 182M2484 87L2466 182M62 206L86 171M62 206L60 243M86 171L173 219M86 171L60 243M173 219L125 307M173 219L229 242M280 219L229 242M280 219L265 292M280 219L321 246M378 165L321 246M378 165L425 255M456 193L496 175M456 193L425 255M456 193L509 248M496 175L582 190M496 175L509 248M582 190L509 248M715 207L746 217M715 207L818 190M715 207L667 256M715 207L744 278M746 217L818 190M746 217L667 256M746 217L744 278M818 190L879 251M956 215L970 170M956 215L879 251M956 215L895 259M1080 176L1169 194M1169 194L1208 224M1169 194L1265 246M1208 224L1310 214M1208 224L1192 312M1208 224L1265 246M1208 224L1299 285M1310 214L1390 223M1310 214L1265 246M1310 214L1299 285M1390 223L1459 219M1390 223L1440 306M1459 219L1440 306M1459 219L1509 293M1676 232L1730 167M1676 232L1770 210M1676 232L1609 302M1676 232L1690 317M1730 167L1770 210M1770 210L1836 301M1886 200L1947 220M1886 200L1844 301M1947 220L2005 161M1947 220L1972 300M1947 220L2033 306M2150 182L2204 231M2150 182L2120 269M2204 231L2267 193M2204 231L2120 269M2204 231L2205 277M2204 231L2268 253M2267 193L2338 196M2267 193L2205 277M2267 193L2268 253M2338 196L2268 253M2338 196L2332 282M2466 182L2508 219M2466 182L2430 291M2466 182L2538 272M2508 219L2538 272M60 243L125 307M60 243L-22 272M60 243L92 332M2620 243L2538 272M125 307L56 382M125 307L92 332M125 307L169 325M229 242L265 292M229 242L321 246M229 242L169 325M265 292L321 246M265 292L169 325M265 292L277 370M321 246L425 255M425 255L509 248M425 255L396 339M509 248L585 292M585 292L667 256M585 292L608 398M585 292L656 334M667 256L744 278M667 256L656 334M744 278L656 334M744 278L763 374M879 251L895 259M879 251L968 318M879 251L957 332M895 259L968 318M895 259L957 332M968 318L957 332M968 318L1036 327M968 318L953 434M1109 319L1192 312M1109 319L1036 327M1109 319L1086 359M1109 319L1125 396M1192 312L1265 246M1192 312L1220 347M1265 246L1299 285M1299 285L1288 369M1299 285L1387 345M1440 306L1509 293M1440 306L1387 345M1440 306L1443 327M1509 293L1561 306M1509 293L1443 327M1509 293L1546 334M1561 306L1609 302M1561 306L1546 334M1609 302L1690 317M1609 302L1546 334M1690 317L1647 385M1690 317L1722 338M1836 301L1844 301M1836 301L1722 338M1836 301L1780 363M1836 301L1860 361M1844 301L1780 363M1844 301L1860 361M1972 300L2033 306M1972 300L1980 343M2033 306L2120 269M2033 306L1980 343M2033 306L2050 378M2120 269L2205 277M2205 277L2268 253M2205 277L2224 349M2268 253L2332 282M2332 282L2430 291M2332 282L2349 330M2430 291L2538 272M2430 291L2349 330M2430 291L2430 399M2538 272L2540 337M56 382L92 332M56 382L-20 337M56 382L70 455M56 382L-2 401M2616 382L2540 337M2616 382L2558 401M92 332L169 325M92 332L-2 401M2652 332L2558 401M169 325L149 433M277 370L240 438M396 339L473 373M396 339L493 355M396 339L400 442M473 373L493 355M473 373L400 442M473 373L461 431M493 355L461 431M608 398L656 334M608 398L562 457M608 398L661 457M763 374L802 388M763 374L750 447M763 374L876 413M802 388L750 447M802 388L876 413M957 332L1036 327M957 332L953 434M1036 327L1086 359M1086 359L1125 396M1086 359L1035 433M1086 359L1116 423M1125 396L1035 433M1125 396L1116 423M1125 396L1169 429M1220 347L1288 369M1220 347L1219 416M1288 369L1387 345M1288 369L1219 416M1288 369L1325 471M1387 345L1443 327M1387 345L1410 410M1443 327L1546 334M1443 327L1410 410M1546 334L1609 431M1647 385L1722 338M1647 385L1592 454M1647 385L1609 431M1647 385L1687 462M1722 338L1780 363M1722 338L1773 412M1780 363L1860 361M1780 363L1773 412M1860 361L1773 412M1860 361L1901 437M1980 343L2050 378M1980 343L1963 434M2050 378L2125 397M2050 378L1963 434M2050 378L2009 451M2125 397L2224 349M2125 397L2111 471M2224 349L2300 388M2224 349L2214 438M2300 388L2349 330M2300 388L2214 438M2300 388L2295 469M2300 388L2364 412M2349 330L2430 399M2349 330L2364 412M2430 399L2364 412M2430 399L2410 419M2430 399L2458 485M2540 337L2558 401M70 455L149 433M70 455L-2 401M70 455L57 544M2630 455L2558 401M149 433L165 476M149 433L240 438M149 433L183 483M165 476L240 438M165 476L139 555M165 476L183 483M165 476L172 565M240 438L183 483M240 438L307 517M400 442L461 431M400 442L501 479M400 442L380 533M461 431L501 479M501 479L562 457M501 479L533 544M501 479L474 573M562 457L661 457M562 457L533 544M562 457L634 506M661 457L750 447M661 457L634 506M661 457L658 522M750 447L737 545M876 413L953 434M953 434L1035 433M953 434L902 521M1035 433L1116 423M1035 433L1106 504M1116 423L1169 429M1116 423L1106 504M1169 429L1219 416M1169 429L1106 504M1169 429L1141 526M1219 416L1239 508M1325 471L1324 488M1325 471L1315 563M1410 410L1474 466M1410 410L1438 499M1474 466L1438 499M1474 466L1453 512M1474 466L1548 491M1592 454L1609 431M1592 454L1687 462M1592 454L1548 491M1592 454L1614 547M1609 431L1687 462M1609 431L1548 491M1687 462L1773 412M1687 462L1747 545M1773 412L1843 483M1901 437L1963 434M1901 437L2009 451M1901 437L1843 483M1901 437L1958 491M1963 434L2009 451M1963 434L1958 491M2009 451L1958 491M2009 451L2040 533M2111 471L2214 438M2111 471L2040 533M2111 471L2106 522M2214 438L2295 469M2214 438L2223 503M2295 469L2364 412M2295 469L2223 503M2295 469L2375 530M2364 412L2410 419M2410 419L2458 485M57 544L139 555M57 544L8 598M57 544L118 567M139 555L183 483M139 555L118 567M139 555L172 565M183 483L172 565M307 517L380 533M307 517L410 558M307 517L315 634M307 517L378 607M380 533L410 558M380 533L378 607M380 533L474 573M410 558L378 607M410 558L474 573M533 544L474 573M533 544L546 632M533 544L597 597M634 506L658 522M634 506L656 605M658 522L737 545M658 522L597 597M658 522L656 605M737 545L807 553M737 545L789 588M737 545L823 566M807 553L902 521M807 553L789 588M807 553L823 566M902 521L998 557M902 521L823 566M902 521L926 588M998 557L926 588M998 557L1029 628M998 557L1045 631M998 557L993 645M1106 504L1141 526M1106 504L1172 607M1141 526L1239 508M1141 526L1172 607M1141 526L1253 572M1239 508L1324 488M1239 508L1253 572M1239 508L1315 563M1324 488L1438 499M1324 488L1315 563M1438 499L1453 512M1453 512L1548 491M1453 512L1543 571M1548 491L1543 571M1614 547L1543 571M1614 547L1642 633M1614 547L1712 567M1614 547L1567 645M1747 545L1783 535M1747 545L1843 483M1747 545L1712 567M1747 545L1811 598M1783 535L1843 483M1783 535L1712 567M1783 535L1811 598M1783 535L1798 658M1843 483L1958 491M1958 491L2040 533M2040 533L2106 522M2040 533L2016 610M2106 522L2106 600M2223 503L2245 554M2223 503L2186 575M2223 503L2262 565M2245 554L2186 575M2245 554L2262 565M2245 554L2266 656M2375 530L2458 485M2375 530L2393 561M2375 530L2405 609M2458 485L2500 546M2458 485L2510 583M2500 546L2568 598M2500 546L2393 561M2500 546L2405 609M2500 546L2510 583M-60 546L8 598M8 598L-50 583M8 598L-24 661M2568 598L2510 583M2568 598L2536 661M118 567L172 565M172 565L160 672M315 634L378 607M315 634L289 648M315 634L323 695M378 607L289 648M474 573L546 632M546 632L597 597M546 632L540 693M546 632L597 655M597 597L656 605M597 597L597 655M656 605L597 655M656 605L675 663M789 588L823 566M789 588L759 670M789 588L865 644M823 566L865 644M926 588L865 644M926 588L913 654M926 588L993 645M1029 628L1045 631M1029 628L913 654M1029 628L993 645M1029 628L1081 707M1045 631L993 645M1045 631L1081 707M1172 607L1253 572M1172 607L1185 652M1253 572L1315 563M1253 572L1185 652M1430 635L1452 621M1430 635L1414 718M1452 621L1543 571M1452 621L1498 694M1543 571L1567 645M1642 633L1712 567M1642 633L1567 645M1642 633L1675 716M1642 633L1712 712M1712 567L1811 598M1811 598L1798 658M1811 598L1880 660M1912 599L1925 612M1912 599L1880 660M1912 599L1984 645M1925 612L2016 610M1925 612L1880 660M1925 612L1984 645M1925 612L2011 658M2016 610L2106 600M2016 610L1984 645M2016 610L2011 658M2106 600L2186 575M2106 600L2117 645M2186 575L2262 565M2186 575L2178 663M2262 565L2266 656M2393 561L2405 609M2405 609L2510 583M2405 609L2455 693M2510 583L2536 661M52 688L160 672M52 688L169 686M52 688L-24 661M52 688L30 758M52 688L94 728M2612 688L2536 661M160 672L169 686M160 672L94 728M160 672L220 752M169 686L94 728M169 686L220 752M289 648L323 695M289 648L220 752M289 648L318 743M323 695L318 743M323 695L335 778M469 699L540 693M469 699L477 730M469 699L521 760M540 693L597 655M540 693L521 760M540 693L598 732M597 655L598 732M675 663L759 670M675 663L598 732M675 663L694 747M759 670L865 644M759 670L694 747M759 670L749 764M865 644L913 654M913 654L993 645M913 654L954 759M1081 707L1023 789M1081 707L1119 794M1081 707L1069 809M1185 652L1256 702M1256 702L1328 710M1256 702L1301 781M1256 702L1282 802M1328 710L1414 718M1328 710L1301 781M1328 710L1360 721M1414 718L1498 694M1414 718L1360 721M1414 718L1451 805M1498 694L1567 645M1498 694L1504 750M1498 694L1541 773M1567 645L1504 750M1675 716L1712 712M1675 716L1665 747M1675 716L1731 787M1712 712L1798 658M1712 712L1665 747M1712 712L1731 787M1798 658L1880 660M1798 658L1840 742M1880 660L1840 742M1984 645L2011 658M1984 645L2046 729M2011 658L2117 645M2011 658L2046 729M2117 645L2178 663M2117 645L2046 729M2117 645L2134 723M2178 663L2266 656M2178 663L2134 723M2178 663L2169 761M2375 706L2455 693M2375 706L2320 763M2375 706L2353 750M2375 706L2423 753M2455 693L2536 661M2455 693L2423 753M2536 661L2590 758M-24 661L30 758M30 758L94 728M30 758L-49 786M30 758L34 857M2590 758L2511 786M220 752L318 743M220 752L216 854M318 743L335 778M318 743L375 803M335 778L296 863M335 778L375 803M477 730L521 760M477 730L461 827M477 730L534 827M521 760L598 732M521 760L534 827M694 747L749 764M694 747L673 820M694 747L722 806M749 764L828 757M749 764L673 820M749 764L722 806M828 757L880 803M954 759L1023 789M954 759L880 803M1023 789L1119 794M1023 789L1011 868M1023 789L1069 809M1119 794L1186 788M1119 794L1069 809M1119 794L1194 808M1186 788L1237 778M1186 788L1194 808M1186 788L1226 847M1237 778L1301 781M1237 778L1194 808M1237 778L1226 847M1237 778L1282 802M1301 781L1360 721M1301 781L1282 802M1504 750L1541 773M1504 750L1451 805M1504 750L1558 804M1541 773L1451 805M1541 773L1558 804M1541 773L1534 890M1665 747L1731 787M1665 747L1558 804M1665 747L1675 860M1731 787L1675 860M1731 787L1708 861M1840 742L1840 792M1840 742L1934 762M1840 742L1836 853M1840 792L1934 762M1840 792L1836 853M1934 762L2046 729M2046 729L2134 723M2134 723L2169 761M2169 761L2139 850M2169 761L2218 864M2320 763L2353 750M2320 763L2291 811M2320 763L2327 835M2353 750L2423 753M2353 750L2291 811M2353 750L2327 835M2423 753L2511 786M2423 753L2429 818M2511 786L2429 818M2511 786L2533 858M2511 786L2524 887M34 857L100 879M34 857L-27 858M34 857L0 944M34 857L-36 887M2594 857L2533 858M2594 857L2524 887M100 879L153 901M100 879L46 992M216 854L296 863M216 854L153 901M216 854L216 941M216 854L248 882M296 863L375 803M296 863L248 882M296 863L389 899M375 803L461 827M375 803L389 899M461 827L534 827M461 827L389 899M461 827L422 941M534 827L623 876M623 876L673 820M623 876L603 934M623 876L665 923M623 876L567 970M673 820L722 806M722 806L732 938M880 803L904 877M880 803L875 887M880 803L943 895M904 877L875 887M904 877L943 895M1011 868L1069 809M1011 868L943 895M1011 868L1010 946M1011 868L1083 929M1194 808L1226 847M1194 808L1282 802M1226 847L1282 802M1226 847L1152 883M1372 867L1451 805M1372 867L1348 914M1372 867L1430 927M1451 805L1558 804M1558 804L1534 890M1675 860L1708 861M1675 860L1640 935M1675 860L1682 893M1708 861L1640 935M1708 861L1682 893M1836 853L1918 870M1836 853L1834 903M1918 870L1946 869M1918 870L1834 903M1918 870L1900 913M1918 870L1923 952M1946 869L2026 859M1946 869L1900 913M1946 869L1923 952M1946 869L2016 923M2026 859L2139 850M2026 859L2016 923M2026 859L2109 910M2026 859L2036 967M2139 850L2218 864M2139 850L2109 910M2139 850L2163 918M2218 864L2291 811M2218 864L2163 918M2291 811L2327 835M2291 811L2363 901M2327 835L2306 940M2327 835L2363 901M2429 818L2415 889M2533 858L2560 944M2533 858L2524 887M-27 858L0 944M0 944L-36 887M0 944L46 992M0 944L-59 982M2560 944L2524 887M2560 944L2501 982M153 901L216 941M153 901L248 882M153 901L234 963M216 941L248 882M216 941L234 963M216 941L266 1028M248 882L234 963M389 899L422 941M422 941L522 947M422 941L381 1021M422 941L463 1027M522 947L603 934M522 947L547 1032M522 947L567 970M603 934L665 923M603 934L567 970M665 923L732 938M665 923L567 970M665 923L724 960M732 938L703 1016M732 938L724 960M732 938L657 1048M875 887L943 895M1010 946L1083 929M1010 946L947 992M1010 946L1003 971M1010 946L1088 978M1083 929L1152 883M1083 929L1003 971M1083 929L1088 978M1152 883L1208 938M1208 938L1190 1030M1208 938L1245 996M1208 938L1288 1009M1348 914L1430 927M1348 914L1288 1009M1348 914L1425 981M1348 914L1441 993M1430 927L1492 899M1430 927L1425 981M1430 927L1441 993M1492 899L1534 890M1492 899L1425 981M1492 899L1441 993M1492 899L1559 985M1534 890L1559 985M1640 935L1682 893M1640 935L1559 985M1640 935L1667 966M1682 893L1667 966M1834 903L1900 913M1834 903L1845 966M1900 913L1923 952M1900 913L1845 966M1923 952L1845 966M1923 952L1925 1027M2016 923L2036 967M2109 910L2163 918M2109 910L2036 967M2163 918L2169 1021M2306 940L2363 901M2306 940L2271 983M2306 940L2328 1011M2306 940L2285 1063M2363 901L2415 889M2363 901L2328 1011M2524 887L2501 982M46 992L-59 982M46 992L73 1068M2606 992L2501 982M157 1038L266 1028M157 1038L73 1068M157 1038L156 1115M157 1038L167 1097M157 1038L173 1124M234 963L266 1028M266 1028L316 1054M381 1021L463 1027M381 1021L316 1054M381 1021L387 1089M381 1021L424 1072M463 1027L547 1032M463 1027L424 1072M547 1032L567 970M547 1032L541 1110M547 1032L586 1103M703 1016L724 960M703 1016L657 1048M844 1029L947 992M844 1029L775 1100M844 1029L820 1068M844 1029L891 1051M947 992L1003 971M947 992L891 1051M947 992L1031 1047M1003 971L1088 978M1003 971L1031 1047M1088 978L1031 1047M1190 1030L1245 996M1190 1030L1168 1079M1190 1030L1205 1081M1190 1030L1215 1121M1245 996L1288 1009M1245 996L1205 1081M1288 1009L1205 1081M1425 981L1441 993M1425 981L1470 1055M1441 993L1470 1055M1559 985L1586 1044M1667 966L1751 1039M1667 966L1662 1059M1751 1039L1760 1018M1751 1039L1662 1059M1751 1039L1686 1110M1751 1039L1802 1062M1760 1018L1845 966M1760 1018L1662 1059M1760 1018L1802 1062M1845 966L1802 1062M1925 1027L1855 1099M1925 1027L1950 1095M2036 967L2101 1017M2101 1017L2169 1021M2101 1017L2032 1096M2101 1017L2116 1078M2101 1017L2199 1053M2169 1021L2116 1078M2169 1021L2199 1053M2169 1021L2175 1136M2271 983L2328 1011M2271 983L2285 1063M2328 1011L2285 1063M2328 1011L2393 1044M2466 1020L2501 982M2466 1020L2393 1044M2466 1020L2461 1091M2466 1020L2482 1067M2501 982L2482 1067M73 1068L77 1150M156 1115L167 1097M156 1115L77 1150M156 1115L117 1155M156 1115L173 1124M167 1097L117 1155M167 1097L173 1124M167 1097L245 1149M316 1054L387 1089M316 1054L327 1132M387 1089L424 1072M387 1089L327 1132M387 1089L470 1139M424 1072L470 1139M541 1110L586 1103M541 1110L470 1139M541 1110L504 1154M541 1110L595 1138M586 1103L657 1048M586 1103L504 1154M586 1103L595 1138M657 1048L595 1138M657 1048L705 1135M775 1100L820 1068M775 1100L705 1135M775 1100L787 1135M820 1068L891 1051M820 1068L787 1135M891 1051L925 1165M1112 1118L1168 1079M1112 1118L1121 1160M1112 1118L1215 1121M1168 1079L1205 1081M1168 1079L1215 1121M1205 1081L1215 1121M1342 1117L1409 1098M1342 1117L1295 1168M1342 1117L1427 1179M1342 1117L1315 1201M1409 1098L1470 1055M1409 1098L1427 1179M1470 1055L1586 1044M1586 1044L1662 1059M1586 1044L1686 1110M1586 1044L1548 1154M1662 1059L1686 1110M1686 1110L1617 1162M1686 1110L1717 1196M1802 1062L1855 1099M1802 1062L1844 1134M1855 1099L1950 1095M1855 1099L1836 1177M1855 1099L1844 1134M1950 1095L2032 1096M1950 1095L1967 1135M1950 1095L2018 1160M2032 1096L2116 1078M2032 1096L1967 1135M2032 1096L2018 1160M2116 1078L2199 1053M2116 1078L2175 1136M2199 1053L2285 1063M2199 1053L2175 1136M2285 1063L2278 1120M2393 1044L2461 1091M2393 1044L2411 1128M2461 1091L2482 1067M2461 1091L2411 1128M2461 1091L2503 1151M2482 1067L2411 1128M2482 1067L2503 1151M77 1150L117 1155M117 1155L173 1124M117 1155L100 1260M173 1124L245 1149M245 1149L327 1132M245 1149L232 1244M245 1149L243 1225M327 1132L330 1218M470 1139L504 1154M470 1139L422 1214M504 1154L595 1138M504 1154L422 1214M595 1138L705 1135M705 1135L787 1135M705 1135L691 1219M787 1135L863 1187M787 1135L792 1236M863 1187L925 1165M863 1187L792 1236M863 1187L819 1237M925 1165L1019 1171M925 1165L960 1218M1019 1171L1046 1193M1019 1171L960 1218M1019 1171L1038 1267M1019 1171L1079 1211M1046 1193L1121 1160M1046 1193L1038 1267M1046 1193L1079 1211M1046 1193L1125 1228M1121 1160L1079 1211M1121 1160L1125 1228M1215 1121L1295 1168M1295 1168L1315 1201M1427 1179L1487 1163M1427 1179L1420 1216M1487 1163L1548 1154M1487 1163L1420 1216M1487 1163L1514 1201M1487 1163L1524 1250M1548 1154L1617 1162M1548 1154L1514 1201M1548 1154L1524 1250M1617 1162L1717 1196M1617 1162L1621 1260M1717 1196L1720 1274M1717 1196L1778 1225M1717 1196L1706 1294M1836 1177L1844 1134M1836 1177L1778 1225M1836 1177L1867 1205M1844 1134L1867 1205M1967 1135L2018 1160M1967 1135L1932 1246M1967 1135L2050 1200M2018 1160L2050 1200M2149 1189L2175 1136M2149 1189L2050 1200M2149 1189L2092 1259M2149 1189L2146 1294M2175 1136L2278 1120M2278 1120L2390 1162M2278 1120L2294 1237M2278 1120L2322 1212M2390 1162L2411 1128M2390 1162L2322 1212M2390 1162L2454 1231M2411 1128L2503 1151M2503 1151L2454 1231M2503 1151L2522 1222M37 1279L100 1260M37 1279L-38 1222M37 1279L12 1327M37 1279L95 1295M37 1279L-7 1337M2597 1279L2522 1222M2597 1279L2553 1337M100 1260L95 1295M100 1260L187 1321M232 1244L243 1225M232 1244L330 1218M232 1244L187 1321M232 1244L249 1334M243 1225L330 1218M330 1218L422 1214M422 1214L482 1252M482 1252L592 1267M482 1252L417 1317M592 1267L691 1219M592 1267L614 1318M592 1267L683 1282M691 1219L792 1236M691 1219L683 1282M691 1219L749 1290M792 1236L819 1237M792 1236L749 1290M819 1237L749 1290M960 1218L908 1315M960 1218L989 1309M1038 1267L1079 1211M1038 1267L989 1309M1038 1267L1045 1305M1079 1211L1125 1228M1125 1228L1045 1305M1125 1228L1154 1313M1215 1277L1315 1201M1215 1277L1154 1313M1215 1277L1272 1339M1215 1277L1315 1317M1215 1277L1249 1373M1315 1201L1420 1216M1420 1216L1514 1201M1420 1216L1477 1289M1514 1201L1524 1250M1514 1201L1535 1291M1524 1250L1477 1289M1524 1250L1535 1291M1621 1260L1535 1291M1621 1260L1658 1344M1621 1260L1706 1294M1720 1274L1778 1225M1720 1274L1658 1344M1720 1274L1706 1294M1720 1274L1796 1335M1778 1225L1867 1205M1867 1205L1932 1246M1867 1205L1888 1299M1932 1246L1888 1299M1932 1246L1950 1345M1932 1246L2017 1315M2050 1200L2092 1259M2092 1259L2017 1315M2092 1259L2146 1294M2092 1259L2195 1328M2238 1254L2294 1237M2238 1254L2322 1212M2238 1254L2195 1328M2238 1254L2283 1309M2238 1254L2334 1299M2294 1237L2322 1212M2294 1237L2283 1309M2294 1237L2334 1299M2322 1212L2334 1299M2454 1231L2522 1222M2454 1231L2444 1350M12 1327L95 1295M12 1327L-7 1337M12 1327L71 1391M2572 1327L2553 1337M95 1295L187 1321M95 1295L71 1391M187 1321L249 1334M249 1334L293 1393M375 1342L417 1317M375 1342L293 1393M375 1342L386 1382M417 1317L485 1355M417 1317L386 1382M417 1317L471 1376M485 1355L471 1376M485 1355L545 1364M485 1355L569 1408M614 1318L683 1282M614 1318L545 1364M614 1318L569 1408M683 1282L749 1290M683 1282L737 1382M749 1290L737 1382M864 1336L908 1315M864 1336L886 1404M908 1315L989 1309M908 1315L967 1370M989 1309L1045 1305M989 1309L967 1370M1045 1305L1154 1313M1045 1305L967 1370M1154 1313L1092 1413M1154 1313L1154 1409M1272 1339L1315 1317M1272 1339L1249 1373M1272 1339L1320 1408M1315 1317L1400 1343M1315 1317L1249 1373M1315 1317L1320 1408M1400 1343L1477 1289M1400 1343L1387 1427M1400 1343L1446 1395M1477 1289L1535 1291M1477 1289L1446 1395M1658 1344L1706 1294M1658 1344L1678 1367M1658 1344L1692 1407M1706 1294L1678 1367M1796 1335L1888 1299M1796 1335L1795 1435M1796 1335L1863 1411M1888 1299L1950 1345M1888 1299L1863 1411M1950 1345L2017 1315M1950 1345L1985 1394M1950 1345L2016 1390M2017 1315L1985 1394M2017 1315L2016 1390M2146 1294L2195 1328M2146 1294L2189 1360M2195 1328L2283 1309M2195 1328L2189 1360M2283 1309L2334 1299M2283 1309L2345 1366M2334 1299L2345 1366M2444 1350L2345 1366M2444 1350L2455 1403M2444 1350L2500 1401M2553 1337L2631 1391M2553 1337L2455 1403M2553 1337L2500 1401M-7 1337L71 1391M71 1391L91 1401M91 1401L179 1433M293 1393L386 1382M386 1382L471 1376M471 1376L545 1364M545 1364L569 1408M569 1408L686 1413M686 1413L737 1382M737 1382L808 1430M808 1430L886 1404M886 1404L967 1370M1092 1413L1154 1409M1249 1373L1320 1408M1320 1408L1387 1427M1387 1427L1446 1395M1446 1395L1542 1423M1678 1367L1692 1407M1795 1435L1863 1411M1985 1394L2016 1390M2135 1433L2189 1360M2189 1360L2287 1428M2287 1428L2345 1366M2345 1366L2455 1403M2455 1403L2500 1401"/></svg>