<svg xmlns="http://www.w3.org/2000/svg" width="2560" height="1440" fill="#fff"><circle cx="47" cy="28" r="6"/><circle cx="108" cy="41" r="4"/><circle cx="164" cy="41" r="6"/><circle cx="310" cy="61" r="4"/><circle cx="344" cy="47" r="5"/><circle cx="420" cy="39" r="6"/><circle cx="511" cy="64" r="4"/><circle cx="628" cy="15" r="5"/><circle cx="673" cy="11" r="6"/><circle cx="795" cy="55" r="5"/><circle cx="864" cy="35" r="5"/><circle cx="920" cy="51" r="6"/><circle cx="999" cy="54" r="4"/><circle cx="1090" cy="26" r="4"/><circle cx="1154" cy="57" r="6"/><circle cx="1208" cy="25" r="5"/><circle cx="1359" cy="42" r="6"/><circle cx="1421" cy="44" r="5"/><circle cx="1457" cy="21" r="5"/><circle cx="1584" cy="22" r="6"/><circle cx="1644" cy="55" r="5"/><circle cx="1688" cy="67" r="4"/><circle cx="1763" cy="38" r="6"/><circle cx="1888" cy="52" r="5"/><circle cx="1945" cy="49" r="6"/><circle cx="2063" cy="80" r="5"/><circle cx="2094" cy="50" r="4"/><circle cx="2162" cy="32" r="5"/><circle cx="2317" cy="0" r="4"/><circle cx="2317" cy="1440" r="4"/><circle cx="2326" cy="72" r="5"/><circle cx="2445" cy="41" r="5"/><circle cx="2495" cy="57" r="5"/><circle cx="65" cy="116" r="5"/><circle cx="151" cy="104" r="6"/><circle cx="190" cy="160" r="6"/><circle cx="247" cy="130" r="4"/><circle cx="327" cy="146" r="5"/><circle cx="404" cy="141" r="4"/><circle cx="516" cy="108" r="5"/><circle cx="629" cy="149" r="4"/><circle cx="685" cy="112" r="5"/><circle cx="779" cy="126" r="4"/><circle cx="814" cy="140" r="6"/><circle cx="903" cy="132" r="5"/><circle cx="973" cy="109" r="5"/><circle cx="1046" cy="159" r="6"/><circle cx="1173" cy="125" r="6"/><circle cx="1215" cy="89" r="5"/><circle cx="1305" cy="105" r="6"/><circle cx="1366" cy="124" r="5"/><circle cx="1504" cy="111" r="5"/><circle cx="1522" cy="89" r="5"/><circle cx="1614" cy="134" r="6"/><circle cx="1747" cy="116" r="5"/><circle cx="1811" cy="102" r="6"/><circle cx="1893" cy="158" r="4"/><circle cx="1976" cy="107" r="4"/><circle cx="2030" cy="135" r="5"/><circle cx="2137" cy="157" r="5"/><circle cx="2185" cy="154" r="5"/><circle cx="2296" cy="146" r="4"/><circle cx="2397" cy="124" r="6"/><circle cx="2468" cy="125" r="5"/><circle cx="2548" cy="121" r="5"/><circle cx="50" cy="163" r="6"/><circle cx="125" cy="181" r="5"/><circle cx="173" cy="199" r="5"/><circle cx="259" cy="176" r="6"/><circle cx="333" cy="191" r="5"/><circle cx="430" cy="202" r="4"/><circle cx="492" cy="181" r="5"/><circle cx="597" cy="236" r="5"/><circle cx="640" cy="233" r="4"/><circle cx="795" cy="219" r="5"/><circle cx="831" cy="219" r="5"/><circle cx="896" cy="186" r="4"/><circle cx="1021" cy="168" r="5"/><circle cx="1057" cy="160" r="5"/><circle cx="1177" cy="208" r="6"/><circle cx="1263" cy="207" r="4"/><circle cx="1300" cy="173" r="4"/><circle cx="1429" cy="227" r="5"/><circle cx="1506" cy="208" r="6"/><circle cx="1532" cy="225" r="5"/><circle cx="1648" cy="171" r="5"/><circle cx="1743" cy="186" r="5"/><circle cx="1823" cy="212" r="4"/><circle cx="1858" cy="190" r="5"/><circle cx="1961" cy="199" r="4"/><circle cx="2077" cy="182" r="5"/><circle cx="2087" cy="212" r="6"/><circle cx="2206" cy="180" r="6"/><circle cx="2243" cy="232" r="5"/><circle cx="2390" cy="212" r="5"/><circle cx="2427" cy="239" r="5"/><circle cx="2553" cy="199" r="5"/><circle cx="49" cy="285" r="6"/><circle cx="138" cy="280" r="5"/><circle cx="225" cy="261" r="4"/><circle cx="309" cy="309" r="5"/><circle cx="347" cy="290" r="5"/><circle cx="459" cy="250" r="6"/><circle cx="503" cy="264" r="6"/><circle cx="602" cy="241" r="5"/><circle cx="683" cy="302" r="5"/><circle cx="768" cy="273" r="6"/><circle cx="876" cy="296" r="4"/><circle cx="939" cy="280" r="6"/><circle cx="1025" cy="288" r="5"/><circle cx="1072" cy="314" r="5"/><circle cx="1193" cy="254" r="6"/><circle cx="1211" cy="287" r="6"/><circle cx="1343" cy="305" r="4"/><circle cx="1422" cy="249" r="5"/><circle cx="1504" cy="274" r="5"/><circle cx="1555" cy="277" r="5"/><circle cx="1602" cy="263" r="4"/><circle cx="1701" cy="311" r="5"/><circle cx="1779" cy="240" r="5"/><circle cx="1912" cy="283" r="5"/><circle cx="1920" cy="318" r="6"/><circle cx="2041" cy="252" r="5"/><circle cx="2117" cy="308" r="4"/><circle cx="2214" cy="267" r="5"/><circle cx="2291" cy="289" r="6"/><circle cx="2359" cy="298" r="4"/><circle cx="2471" cy="319" r="4"/><circle cx="2555" cy="242" r="5"/><circle cx="21" cy="382" r="6"/><circle cx="127" cy="393" r="6"/><circle cx="203" cy="341" r="5"/><circle cx="292" cy="334" r="4"/><circle cx="373" cy="321" r="5"/><circle cx="425" cy="331" r="4"/><circle cx="549" cy="338" r="4"/><circle cx="560" cy="385" r="4"/><circle cx="640" cy="367" r="6"/><circle cx="777" cy="372" r="5"/><circle cx="853" cy="393" r="5"/><circle cx="940" cy="359" r="5"/><circle cx="1030" cy="321" r="4"/><circle cx="1087" cy="367" r="4"/><circle cx="1192" cy="352" r="5"/><circle cx="1210" cy="396" r="5"/><circle cx="1344" cy="388" r="5"/><circle cx="1428" cy="336" r="5"/><circle cx="1470" cy="341" r="4"/><circle cx="1571" cy="334" r="5"/><circle cx="1641" cy="339" r="5"/><circle cx="1690" cy="387" r="5"/><circle cx="1784" cy="345" r="5"/><circle cx="1874" cy="391" r="5"/><circle cx="1951" cy="363" r="6"/><circle cx="2036" cy="345" r="5"/><circle cx="2129" cy="368" r="5"/><circle cx="2176" cy="361" r="4"/><circle cx="2317" cy="373" r="5"/><circle cx="2324" cy="400" r="5"/><circle cx="2437" cy="321" r="5"/><circle cx="2493" cy="357" r="4"/><circle cx="46" cy="404" r="5"/><circle cx="87" cy="402" r="4"/><circle cx="214" cy="427" r="6"/><circle cx="279" cy="424" r="4"/><circle cx="324" cy="402" r="6"/><circle cx="477" cy="415" r="5"/><circle cx="490" cy="442" r="5"/><circle cx="601" cy="433" r="5"/><circle cx="719" cy="453" r="4"/><circle cx="735" cy="406" r="6"/><circle cx="809" cy="479" r="4"/><circle cx="885" cy="468" r="6"/><circle cx="994" cy="457" r="5"/><circle cx="1119" cy="451" r="6"/><circle cx="1168" cy="404" r="5"/><circle cx="1262" cy="437" r="5"/><circle cx="1339" cy="405" r="5"/><circle cx="1393" cy="462" r="4"/><circle cx="1484" cy="424" r="5"/><circle cx="1574" cy="467" r="5"/><circle cx="1652" cy="437" r="4"/><circle cx="1698" cy="477" r="6"/><circle cx="1834" cy="448" r="5"/><circle cx="1903" cy="415" r="5"/><circle cx="1931" cy="480" r="5"/><circle cx="2023" cy="419" r="4"/><circle cx="2091" cy="478" r="5"/><circle cx="2195" cy="425" r="5"/><circle cx="2313" cy="457" r="6"/><circle cx="2332" cy="409" r="6"/><circle cx="2421" cy="450" r="4"/><circle cx="2497" cy="472" r="6"/><circle cx="43" cy="527" r="4"/><circle cx="138" cy="491" r="6"/><circle cx="213" cy="548" r="5"/><circle cx="270" cy="504" r="6"/><circle cx="333" cy="506" r="5"/><circle cx="419" cy="498" r="4"/><circle cx="506" cy="499" r="6"/><circle cx="573" cy="516" r="4"/><circle cx="660" cy="497" r="5"/><circle cx="798" cy="524" r="6"/><circle cx="878" cy="552" r="5"/><circle cx="957" cy="534" r="6"/><circle cx="985" cy="501" r="6"/><circle cx="1055" cy="487" r="4"/><circle cx="1121" cy="490" r="6"/><circle cx="1235" cy="506" r="4"/><circle cx="1307" cy="538" r="4"/><circle cx="1424" cy="542" r="6"/><circle cx="1466" cy="491" r="5"/><circle cx="1572" cy="544" r="4"/><circle cx="1670" cy="490" r="5"/><circle cx="1682" cy="505" r="5"/><circle cx="1835" cy="554" r="4"/><circle cx="1877" cy="516" r="5"/><circle cx="1970" cy="545" r="4"/><circle cx="2068" cy="526" r="5"/><circle cx="2082" cy="484" r="6"/><circle cx="2234" cy="558" r="5"/><circle cx="2292" cy="506" r="4"/><circle cx="2393" cy="490" r="6"/><circle cx="2407" cy="539" r="4"/><circle cx="2558" cy="483" r="5"/><circle cx="-2" cy="483" r="5"/><circle cx="17" cy="588" r="6"/><circle cx="151" cy="560" r="5"/><circle cx="176" cy="614" r="5"/><circle cx="292" cy="586" r="5"/><circle cx="347" cy="568" r="5"/><circle cx="424" cy="607" r="5"/><circle cx="552" cy="621" r="5"/><circle cx="603" cy="630" r="6"/><circle cx="647" cy="613" r="6"/><circle cx="750" cy="594" r="4"/><circle cx="803" cy="580" r="5"/><circle cx="893" cy="570" r="6"/><circle cx="1000" cy="638" r="4"/><circle cx="1103" cy="620" r="5"/><circle cx="1130" cy="614" r="4"/><circle cx="1260" cy="637" r="4"/><circle cx="1325" cy="616" r="4"/><circle cx="1393" cy="622" r="5"/><circle cx="1460" cy="607" r="6"/><circle cx="1562" cy="630" r="5"/><circle cx="1626" cy="593" r="5"/><circle cx="1742" cy="568" r="4"/><circle cx="1764" cy="630" r="4"/><circle cx="1879" cy="580" r="5"/><circle cx="1963" cy="572" r="5"/><circle cx="2027" cy="600" r="6"/><circle cx="2155" cy="600" r="5"/><circle cx="2215" cy="580" r="6"/><circle cx="2290" cy="562" r="5"/><circle cx="2363" cy="568" r="6"/><circle cx="2430" cy="595" r="5"/><circle cx="2498" cy="578" r="5"/><circle cx="59" cy="684" r="4"/><circle cx="91" cy="671" r="5"/><circle cx="188" cy="696" r="6"/><circle cx="255" cy="686" r="5"/><circle cx="388" cy="718" r="4"/><circle cx="479" cy="699" r="5"/><circle cx="552" cy="659" r="5"/><circle cx="564" cy="647" r="4"/><circle cx="710" cy="669" r="6"/><circle cx="737" cy="702" r="6"/><circle cx="836" cy="649" r="4"/><circle cx="918" cy="690" r="5"/><circle cx="961" cy="688" r="6"/><circle cx="1098" cy="713" r="5"/><circle cx="1190" cy="675" r="5"/><circle cx="1232" cy="657" r="4"/><circle cx="1318" cy="676" r="5"/><circle cx="1374" cy="674" r="6"/><circle cx="1454" cy="644" r="5"/><circle cx="1564" cy="699" r="4"/><circle cx="1624" cy="702" r="5"/><circle cx="1704" cy="648" r="4"/><circle cx="1765" cy="646" r="5"/><circle cx="1917" cy="644" r="6"/><circle cx="1962" cy="704" r="4"/><circle cx="2069" cy="678" r="6"/><circle cx="2112" cy="685" r="4"/><circle cx="2165" cy="658" r="5"/><circle cx="2291" cy="654" r="6"/><circle cx="2320" cy="704" r="4"/><circle cx="2453" cy="648" r="4"/><circle cx="2546" cy="642" r="5"/><circle cx="54" cy="765" r="5"/><circle cx="157" cy="772" r="5"/><circle cx="233" cy="733" r="6"/><circle cx="303" cy="743" r="5"/><circle cx="325" cy="728" r="4"/><circle cx="425" cy="729" r="5"/><circle cx="527" cy="727" r="6"/><circle cx="564" cy="743" r="6"/><circle cx="715" cy="746" r="5"/><circle cx="741" cy="800" r="5"/><circle cx="841" cy="733" r="5"/><circle cx="933" cy="764" r="5"/><circle cx="1019" cy="774" r="5"/><circle cx="1087" cy="729" r="5"/><circle cx="1139" cy="798" r="4"/><circle cx="1272" cy="773" r="6"/><circle cx="1351" cy="786" r="5"/><circle cx="1424" cy="732" r="6"/><circle cx="1473" cy="735" r="4"/><circle cx="1578" cy="768" r="5"/><circle cx="1635" cy="740" r="6"/><circle cx="1682" cy="757" r="6"/><circle cx="1836" cy="788" r="5"/><circle cx="1871" cy="779" r="6"/><circle cx="1928" cy="732" r="5"/><circle cx="2070" cy="764" r="5"/><circle cx="2131" cy="779" r="5"/><circle cx="2229" cy="763" r="6"/><circle cx="2278" cy="759" r="4"/><circle cx="2391" cy="791" r="4"/><circle cx="2430" cy="795" r="4"/><circle cx="2540" cy="735" r="6"/><circle cx="73" cy="857" r="6"/><circle cx="122" cy="843" r="4"/><circle cx="185" cy="833" r="5"/><circle cx="301" cy="845" r="5"/><circle cx="360" cy="839" r="4"/><circle cx="473" cy="849" r="6"/><circle cx="520" cy="815" r="4"/><circle cx="563" cy="803" r="5"/><circle cx="666" cy="856" r="5"/><circle cx="724" cy="820" r="4"/><circle cx="844" cy="833" r="4"/><circle cx="904" cy="860" r="6"/><circle cx="1030" cy="859" r="5"/><circle cx="1063" cy="816" r="5"/><circle cx="1156" cy="867" r="4"/><circle cx="1279" cy="824" r="5"/><circle cx="1326" cy="843" r="4"/><circle cx="1372" cy="857" r="5"/><circle cx="1447" cy="850" r="5"/><circle cx="1600" cy="835" r="5"/><circle cx="1604" cy="875" r="5"/><circle cx="1744" cy="847" r="6"/><circle cx="1833" cy="863" r="4"/><circle cx="1853" cy="814" r="5"/><circle cx="1983" cy="818" r="5"/><circle cx="2051" cy="838" r="5"/><circle cx="2120" cy="823" r="5"/><circle cx="2176" cy="811" r="5"/><circle cx="2289" cy="837" r="6"/><circle cx="2353" cy="812" r="5"/><circle cx="2421" cy="841" r="6"/><circle cx="2535" cy="851" r="5"/><circle cx="17" cy="902" r="5"/><circle cx="91" cy="916" r="5"/><circle cx="236" cy="883" r="6"/><circle cx="266" cy="905" r="4"/><circle cx="373" cy="915" r="5"/><circle cx="406" cy="945" r="5"/><circle cx="521" cy="955" r="4"/><circle cx="630" cy="882" r="5"/><circle cx="717" cy="948" r="5"/><circle cx="781" cy="947" r="5"/><circle cx="811" cy="895" r="6"/><circle cx="954" cy="959" r="4"/><circle cx="1018" cy="928" r="5"/><circle cx="1064" cy="927" r="6"/><circle cx="1194" cy="895" r="5"/><circle cx="1233" cy="912" r="4"/><circle cx="1329" cy="938" r="6"/><circle cx="1421" cy="913" r="6"/><circle cx="1489" cy="889" r="5"/><circle cx="1572" cy="930" r="4"/><circle cx="1675" cy="959" r="5"/><circle cx="1715" cy="903" r="6"/><circle cx="1822" cy="927" r="5"/><circle cx="1852" cy="943" r="5"/><circle cx="1976" cy="931" r="4"/><circle cx="2054" cy="941" r="4"/><circle cx="2134" cy="927" r="4"/><circle cx="2166" cy="896" r="6"/><circle cx="2272" cy="930" r="6"/><circle cx="2363" cy="947" r="5"/><circle cx="2475" cy="902" r="5"/><circle cx="2509" cy="912" r="5"/><circle cx="62" cy="982" r="5"/><circle cx="102" cy="1003" r="4"/><circle cx="206" cy="993" r="4"/><circle cx="277" cy="1012" r="5"/><circle cx="382" cy="983" r="6"/><circle cx="463" cy="1012" r="5"/><circle cx="496" cy="1022" r="5"/><circle cx="624" cy="963" r="4"/><circle cx="687" cy="1011" r="4"/><circle cx="769" cy="967" r="6"/><circle cx="802" cy="1015" r="5"/><circle cx="933" cy="988" r="5"/><circle cx="987" cy="986" r="4"/><circle cx="1068" cy="1034" r="6"/><circle cx="1154" cy="1009" r="6"/><circle cx="1224" cy="1036" r="5"/><circle cx="1339" cy="963" r="5"/><circle cx="1380" cy="962" r="5"/><circle cx="1470" cy="1031" r="5"/><circle cx="1526" cy="974" r="5"/><circle cx="1619" cy="1038" r="4"/><circle cx="1683" cy="1029" r="4"/><circle cx="1777" cy="1017" r="4"/><circle cx="1846" cy="1027" r="5"/><circle cx="1981" cy="1012" r="4"/><circle cx="2014" cy="1012" r="4"/><circle cx="2085" cy="985" r="5"/><circle cx="2162" cy="1024" r="5"/><circle cx="2300" cy="1008" r="5"/><circle cx="2342" cy="973" r="4"/><circle cx="2420" cy="974" r="4"/><circle cx="2533" cy="1012" r="4"/><circle cx="63" cy="1091" r="4"/><circle cx="120" cy="1053" r="6"/><circle cx="166" cy="1102" r="5"/><circle cx="313" cy="1083" r="5"/><circle cx="328" cy="1117" r="6"/><circle cx="432" cy="1088" r="5"/><circle cx="514" cy="1047" r="5"/><circle cx="577" cy="1097" r="5"/><circle cx="677" cy="1050" r="4"/><circle cx="734" cy="1104" r="5"/><circle cx="834" cy="1076" r="5"/><circle cx="956" cy="1105" r="5"/><circle cx="976" cy="1113" r="4"/><circle cx="1068" cy="1101" r="4"/><circle cx="1122" cy="1116" r="4"/><circle cx="1259" cy="1099" r="5"/><circle cx="1298" cy="1114" r="4"/><circle cx="1420" cy="1079" r="6"/><circle cx="1446" cy="1046" r="5"/><circle cx="1556" cy="1047" r="4"/><circle cx="1641" cy="1057" r="6"/><circle cx="1725" cy="1062" r="4"/><circle cx="1823" cy="1078" r="4"/><circle cx="1896" cy="1082" r="4"/><circle cx="1961" cy="1096" r="5"/><circle cx="2038" cy="1117" r="4"/><circle cx="2112" cy="1058" r="4"/><circle cx="2209" cy="1108" r="6"/><circle cx="2258" cy="1103" r="6"/><circle cx="2377" cy="1047" r="4"/><circle cx="2474" cy="1095" r="5"/><circle cx="2522" cy="1075" r="5"/><circle cx="12" cy="1166" r="4"/><circle cx="132" cy="1163" r="5"/><circle cx="200" cy="1134" r="4"/><circle cx="267" cy="1170" r="5"/><circle cx="352" cy="1139" r="5"/><circle cx="420" cy="1194" r="5"/><circle cx="559" cy="1169" r="5"/><circle cx="623" cy="1132" r="5"/><circle cx="703" cy="1142" r="5"/><circle cx="727" cy="1136" r="5"/><circle cx="822" cy="1145" r="4"/><circle cx="901" cy="1125" r="5"/><circle cx="1035" cy="1160" r="6"/><circle cx="1044" cy="1125" r="4"/><circle cx="1166" cy="1192" r="6"/><circle cx="1275" cy="1190" r="4"/><circle cx="1309" cy="1156" r="6"/><circle cx="1405" cy="1187" r="4"/><circle cx="1486" cy="1179" r="4"/><circle cx="1555" cy="1172" r="6"/><circle cx="1649" cy="1145" r="4"/><circle cx="1685" cy="1120" r="4"/><circle cx="1811" cy="1138" r="5"/><circle cx="1885" cy="1189" r="5"/><circle cx="1953" cy="1128" r="5"/><circle cx="2047" cy="1188" r="6"/><circle cx="2127" cy="1150" r="4"/><circle cx="2182" cy="1171" r="5"/><circle cx="2287" cy="1157" r="5"/><circle cx="2396" cy="1131" r="4"/><circle cx="2424" cy="1144" r="6"/><circle cx="2504" cy="1132" r="5"/><circle cx="9" cy="1209" r="5"/><circle cx="153" cy="1260" r="5"/><circle cx="188" cy="1214" r="5"/><circle cx="283" cy="1277" r="6"/><circle cx="324" cy="1226" r="4"/><circle cx="462" cy="1239" r="5"/><circle cx="498" cy="1233" r="4"/><circle cx="566" cy="1272" r="6"/><circle cx="695" cy="1201" r="5"/><circle cx="746" cy="1248" r="5"/><circle cx="832" cy="1251" r="5"/><circle cx="944" cy="1228" r="5"/><circle cx="979" cy="1221" r="5"/><circle cx="1041" cy="1271" r="5"/><circle cx="1188" cy="1226" r="4"/><circle cx="1212" cy="1273" r="5"/><circle cx="1341" cy="1237" r="4"/><circle cx="1386" cy="1277" r="5"/><circle cx="1466" cy="1257" r="4"/><circle cx="1555" cy="1270" r="5"/><circle cx="1640" cy="1200" r="6"/><circle cx="1721" cy="1272" r="5"/><circle cx="1776" cy="1258" r="4"/><circle cx="1920" cy="1233" r="5"/><circle cx="1960" cy="1280" r="6"/><circle cx="2031" cy="1266" r="5"/><circle cx="2130" cy="1232" r="6"/><circle cx="2183" cy="1207" r="5"/><circle cx="2319" cy="1242" r="6"/><circle cx="2340" cy="1227" r="4"/><circle cx="2404" cy="1255" r="6"/><circle cx="2548" cy="1265" r="5"/><circle cx="58" cy="1341" r="5"/><circle cx="119" cy="1314" r="5"/><circle cx="218" cy="1344" r="4"/><circle cx="287" cy="1293" r="5"/><circle cx="390" cy="1352" r="5"/><circle cx="406" cy="1282" r="5"/><circle cx="540" cy="1340" r="5"/><circle cx="622" cy="1332" r="4"/><circle cx="705" cy="1294" r="4"/><circle cx="738" cy="1289" r="5"/><circle cx="819" cy="1313" r="4"/><circle cx="925" cy="1300" r="5"/><circle cx="969" cy="1308" r="4"/><circle cx="1067" cy="1332" r="6"/><circle cx="1154" cy="1327" r="4"/><circle cx="1274" cy="1302" r="5"/><circle cx="1302" cy="1351" r="5"/><circle cx="1399" cy="1348" r="4"/><circle cx="1461" cy="1310" r="5"/><circle cx="1579" cy="1300" r="5"/><circle cx="1676" cy="1325" r="6"/><circle cx="1756" cy="1306" r="4"/><circle cx="1818" cy="1339" r="6"/><circle cx="1902" cy="1310" r="5"/><circle cx="1938" cy="1355" r="6"/><circle cx="2045" cy="1299" r="5"/><circle cx="2100" cy="1342" r="5"/><circle cx="2220" cy="1304" r="5"/><circle cx="2267" cy="1351" r="6"/><circle cx="2384" cy="1321" r="6"/><circle cx="2422" cy="1318" r="6"/><circle cx="2510" cy="1318" r="5"/><circle cx="27" cy="1405" r="5"/><circle cx="131" cy="1429" r="4"/><circle cx="233" cy="1412" r="4"/><circle cx="299" cy="1432" r="4"/><circle cx="348" cy="1393" r="5"/><circle cx="415" cy="1402" r="4"/><circle cx="535" cy="1398" r="5"/><circle cx="580" cy="1366" r="5"/><circle cx="662" cy="1394" r="4"/><circle cx="758" cy="1385" r="4"/><circle cx="872" cy="1371" r="6"/><circle cx="899" cy="1420" r="6"/><circle cx="991" cy="1373" r="5"/><circle cx="1075" cy="1389" r="6"/><circle cx="1175" cy="1435" r="5"/><circle cx="1220" cy="1370" r="5"/><circle cx="1291" cy="1420" r="4"/><circle cx="1389" cy="1391" r="6"/><circle cx="1458" cy="1382" r="4"/><circle cx="1545" cy="1408" r="4"/><circle cx="1613" cy="1371" r="6"/><circle cx="1694" cy="1374" r="5"/><circle cx="1821" cy="1421" r="5"/><circle cx="1843" cy="1415" r="5"/><circle cx="1961" cy="1367" r="4"/><circle cx="2034" cy="1396" r="4"/><circle cx="2159" cy="1418" r="6"/><circle cx="2234" cy="1382" r="6"/><circle cx="2299" cy="1399" r="4"/><circle cx="2376" cy="1405" r="4"/><circle cx="2468" cy="1397" r="5"/><circle cx="2556" cy="1399" r="4"/><circle cx="-4" cy="1399" r="4"/><path stroke="#fff" d="M47 28L108 41M47 28L65 116M47 28L27 -35M47 28L131 -11M47 28L-4 -41M2607 28L2556 -41M47 1468L27 1405M47 1468L131 1429M47 1468L-4 1399M2607 1468L2556 1399M108 41L164 41M108 41L151 104M108 41L131 -11M108 1481L131 1429M164 41L151 104M164 41L131 -11M164 41L233 -28M164 1481L131 1429M164 1481L233 1412M310 61L344 47M310 61L247 130M310 61L327 146M310 61L299 -8M310 1501L299 1432M344 47L420 39M344 47L299 -8M344 47L348 -47M344 1487L299 1432M344 1487L348 1393M420 39L511 64M420 39L404 141M420 39L348 -47M420 39L415 -38M420 1479L348 1393M420 1479L415 1402M511 64L516 108M511 64L535 -42M511 1504L535 1398M628 15L673 11M628 15L685 112M628 15L535 -42M628 15L662 -46M628 1455L535 1398M628 1455L662 1394M673 11L685 112M673 11L662 -46M673 11L758 -55M673 1451L662 1394M673 1451L758 1385M795 55L864 35M795 55L779 126M795 55L814 140M795 55L899 -20M795 1495L899 1420M864 35L920 51M864 35L903 132M864 35L872 -69M864 35L899 -20M864 1475L872 1371M864 1475L899 1420M920 51L999 54M920 51L903 132M920 51L973 109M920 51L899 -20M920 1491L899 1420M999 54L1090 26M999 54L973 109M999 54L1046 159M1090 26L1154 57M1090 26L1075 -51M1090 26L1175 -5M1090 1466L1075 1389M1090 1466L1175 1435M1154 57L1208 25M1154 57L1173 125M1154 57L1215 89M1154 57L1175 -5M1154 1497L1175 1435M1208 25L1173 125M1208 25L1215 89M1208 25L1175 -5M1208 1465L1175 1435M1359 42L1421 44M1359 42L1457 21M1359 42L1305 105M1359 42L1366 124M1359 42L1389 -49M1359 1482L1389 1391M1421 44L1457 21M1421 44L1366 124M1421 44L1504 111M1457 21L1522 89M1457 21L1389 -49M1457 21L1458 -58M1457 1461L1389 1391M1457 1461L1458 1382M1584 22L1644 55M1584 22L1522 89M1584 22L1545 -32M1584 22L1613 -69M1584 1462L1545 1408M1584 1462L1613 1371M1644 55L1688 67M1644 55L1614 134M1688 67L1763 38M1688 67L1614 134M1688 67L1747 116M1688 67L1648 171M1763 38L1747 116M1763 38L1811 102M1763 38L1821 -19M1763 38L1843 -25M1763 1478L1821 1421M1763 1478L1843 1415M1888 52L1945 49M1888 52L1811 102M1888 52L1821 -19M1888 52L1843 -25M1888 1492L1821 1421M1888 1492L1843 1415M1945 49L1976 107M2063 80L2094 50M2063 80L1976 107M2063 80L2030 135M2063 80L2137 157M2063 80L2077 182M2094 50L2162 32M2094 50L2159 -22M2094 1490L2159 1418M2162 32L2159 -22M2162 1472L2159 1418M2317 0L2326 72M2317 0L2267 -89M2317 0L2234 -58M2317 0L2299 -41M2317 0L2376 -35M2317 1440L2267 1351M2317 1440L2234 1382M2317 1440L2299 1399M2317 1440L2376 1405M2326 72L2296 146M2326 72L2397 124M2326 72L2299 -41M2326 1512L2299 1399M2445 41L2495 57M2445 41L2397 124M2445 41L2468 125M2445 41L2468 -43M2445 1481L2468 1397M2495 57L2468 125M2495 57L2548 121M2495 57L2468 -43M2495 1497L2468 1397M65 116L151 104M65 116L-12 121M65 116L50 163M65 116L125 181M2625 116L2548 121M151 104L190 160M151 104L125 181M190 160L247 130M190 160L125 181M190 160L173 199M190 160L259 176M247 130L327 146M247 130L259 176M327 146L404 141M327 146L259 176M327 146L333 191M404 141L333 191M404 141L430 202M404 141L492 181M516 108L629 149M516 108L492 181M629 149L685 112M629 149L597 236M629 149L640 233M629 149L602 241M685 112L779 126M779 126L814 140M779 126L795 219M814 140L903 132M814 140L795 219M814 140L831 219M903 132L973 109M903 132L896 186M973 109L1046 159M973 109L1021 168M1046 159L1021 168M1046 159L1057 160M1173 125L1215 89M1173 125L1177 208M1173 125L1193 254M1215 89L1305 105M1305 105L1366 124M1305 105L1263 207M1305 105L1300 173M1366 124L1300 173M1504 111L1522 89M1504 111L1614 134M1522 89L1614 134M1614 134L1648 171M1747 116L1811 102M1747 116L1648 171M1747 116L1743 186M1811 102L1893 158M1811 102L1858 190M1893 158L1976 107M1893 158L1823 212M1893 158L1858 190M1893 158L1961 199M1976 107L2030 135M1976 107L1961 199M2030 135L1961 199M2030 135L2077 182M2030 135L2087 212M2137 157L2185 154M2137 157L2077 182M2137 157L2087 212M2137 157L2206 180M2185 154L2087 212M2185 154L2206 180M2185 154L2243 232M2296 146L2397 124M2296 146L2206 180M2296 146L2243 232M2397 124L2468 125M2397 124L2390 212M2468 125L2548 121M2468 125L2553 199M2548 121L2610 163M2548 121L2553 199M-12 121L50 163M50 163L125 181M50 163L-7 199M50 163L-5 242M2610 163L2553 199M2610 163L2555 242M125 181L173 199M173 199L259 176M173 199L138 280M173 199L225 261M259 176L333 191M333 191L430 202M333 191L347 290M430 202L492 181M430 202L459 250M492 181L459 250M492 181L503 264M597 236L640 233M597 236L503 264M597 236L602 241M640 233L602 241M640 233L683 302M795 219L831 219M795 219L896 186M795 219L768 273M831 219L896 186M831 219L768 273M831 219L876 296M896 186L939 280M1021 168L1057 160M1057 160L1177 208M1177 208L1263 207M1177 208L1193 254M1177 208L1211 287M1263 207L1300 173M1263 207L1193 254M1263 207L1211 287M1429 227L1506 208M1429 227L1532 225M1429 227L1422 249M1429 227L1428 336M1506 208L1532 225M1506 208L1422 249M1506 208L1504 274M1506 208L1555 277M1532 225L1504 274M1532 225L1555 277M1532 225L1602 263M1648 171L1743 186M1648 171L1602 263M1743 186L1823 212M1743 186L1779 240M1823 212L1858 190M1823 212L1779 240M1858 190L1779 240M1858 190L1912 283M1961 199L1912 283M1961 199L2041 252M2077 182L2087 212M2077 182L2041 252M2087 212L2041 252M2206 180L2243 232M2206 180L2214 267M2243 232L2214 267M2243 232L2291 289M2390 212L2427 239M2390 212L2359 298M2390 212L2437 321M2427 239L2359 298M2427 239L2471 319M2427 239L2555 242M2427 239L2437 321M2553 199L2609 285M2553 199L2555 242M-7 199L49 285M49 285L138 280M49 285L-5 242M49 285L21 382M49 285L46 404M2609 285L2555 242M138 280L225 261M138 280L203 341M225 261L309 309M225 261L203 341M309 309L347 290M309 309L292 334M309 309L373 321M309 309L324 402M347 290L292 334M347 290L373 321M347 290L425 331M459 250L503 264M459 250L425 331M503 264L602 241M503 264L549 338M602 241L683 302M683 302L768 273M683 302L640 367M683 302L735 406M768 273L876 296M768 273L777 372M876 296L939 280M876 296L853 393M876 296L940 359M939 280L1025 288M939 280L940 359M939 280L1030 321M1025 288L1072 314M1025 288L1030 321M1025 288L1087 367M1072 314L1030 321M1072 314L1087 367M1193 254L1211 287M1193 254L1192 352M1211 287L1192 352M1211 287L1210 396M1343 305L1422 249M1343 305L1344 388M1343 305L1428 336M1343 305L1339 405M1422 249L1504 274M1422 249L1428 336M1504 274L1555 277M1504 274L1470 341M1555 277L1602 263M1555 277L1571 334M1602 263L1571 334M1602 263L1641 339M1701 311L1779 240M1701 311L1641 339M1701 311L1690 387M1701 311L1784 345M1779 240L1784 345M1912 283L1920 318M1912 283L1951 363M1920 318L1874 391M1920 318L1951 363M1920 318L1903 415M2041 252L2117 308M2041 252L2036 345M2117 308L2214 267M2117 308L2036 345M2117 308L2129 368M2117 308L2176 361M2214 267L2291 289M2214 267L2176 361M2291 289L2359 298M2291 289L2317 373M2291 289L2324 400M2359 298L2317 373M2359 298L2437 321M2471 319L2555 242M2471 319L2437 321M2471 319L2493 357M21 382L-67 357M21 382L46 404M21 382L87 402M2581 382L2493 357M127 393L203 341M127 393L46 404M127 393L87 402M127 393L214 427M127 393L138 491M203 341L292 334M203 341L214 427M292 334L373 321M292 334L324 402M373 321L425 331M373 321L324 402M425 331L477 415M549 338L560 385M549 338L640 367M560 385L640 367M560 385L477 415M560 385L490 442M560 385L601 433M640 367L601 433M640 367L735 406M777 372L853 393M777 372L719 453M777 372L735 406M853 393L940 359M853 393L885 468M940 359L1030 321M1030 321L1087 367M1087 367L1119 451M1087 367L1168 404M1192 352L1210 396M1192 352L1168 404M1192 352L1262 437M1210 396L1119 451M1210 396L1168 404M1210 396L1262 437M1344 388L1428 336M1344 388L1262 437M1344 388L1339 405M1344 388L1393 462M1428 336L1470 341M1470 341L1571 334M1470 341L1484 424M1571 334L1641 339M1641 339L1690 387M1690 387L1784 345M1690 387L1652 437M1690 387L1698 477M1784 345L1874 391M1784 345L1834 448M1874 391L1951 363M1874 391L1834 448M1874 391L1903 415M1951 363L2036 345M1951 363L1903 415M2036 345L2129 368M2036 345L2023 419M2129 368L2176 361M2129 368L2195 425M2129 368L2082 484M2176 361L2195 425M2317 373L2324 400M2317 373L2313 457M2317 373L2332 409M2324 400L2313 457M2324 400L2332 409M2437 321L2493 357M46 404L87 402M46 404L-2 483M2606 404L2558 483M214 427L279 424M214 427L138 491M214 427L270 504M279 424L324 402M279 424L270 504M324 402L333 506M477 415L490 442M477 415L419 498M477 415L506 499M490 442L419 498M490 442L506 499M601 433L506 499M601 433L573 516M601 433L660 497M719 453L735 406M719 453L660 497M735 406L809 479M809 479L885 468M809 479L798 524M885 468L878 552M885 468L957 534M885 468L893 570M994 457L957 534M994 457L985 501M994 457L1055 487M1119 451L1168 404M1119 451L1055 487M1119 451L1121 490M1168 404L1121 490M1262 437L1339 405M1262 437L1235 506M1339 405L1393 462M1393 462L1484 424M1393 462L1424 542M1393 462L1466 491M1484 424L1574 467M1484 424L1466 491M1574 467L1652 437M1574 467L1466 491M1574 467L1572 544M1574 467L1670 490M1652 437L1698 477M1652 437L1670 490M1652 437L1682 505M1698 477L1670 490M1698 477L1682 505M1698 477L1742 568M1834 448L1903 415M1834 448L1931 480M1834 448L1877 516M1903 415L1931 480M1931 480L1877 516M1931 480L1970 545M1931 480L1963 572M2023 419L2091 478M2023 419L2082 484M2091 478L2195 425M2091 478L2068 526M2091 478L2082 484M2313 457L2332 409M2313 457L2292 506M2313 457L2393 490M2332 409L2421 450M2332 409L2393 490M2421 450L2497 472M2421 450L2393 490M2421 450L2407 539M2497 472L2558 483M2497 472L2498 578M43 527L138 491M43 527L-2 483M43 527L17 588M43 527L151 560M2603 527L2558 483M138 491L213 548M138 491L151 560M213 548L270 504M213 548L151 560M213 548L176 614M213 548L292 586M270 504L333 506M270 504L292 586M333 506L419 498M333 506L292 586M333 506L347 568M419 498L506 499M419 498L347 568M506 499L573 516M573 516L660 497M798 524L878 552M798 524L750 594M798 524L803 580M798 524L893 570M878 552L957 534M878 552L803 580M878 552L893 570M957 534L985 501M957 534L893 570M985 501L1055 487M985 501L1121 490M1055 487L1121 490M1121 490L1235 506M1235 506L1307 538M1307 538L1325 616M1424 542L1466 491M1424 542L1393 622M1424 542L1460 607M1424 542L1454 644M1572 544L1562 630M1572 544L1626 593M1670 490L1682 505M1682 505L1626 593M1682 505L1742 568M1835 554L1877 516M1835 554L1879 580M1835 554L1765 646M1877 516L1879 580M1970 545L2068 526M1970 545L1879 580M1970 545L1963 572M1970 545L2027 600M2068 526L2082 484M2068 526L2027 600M2234 558L2292 506M2234 558L2155 600M2234 558L2215 580M2234 558L2290 562M2234 558L2291 654M2292 506L2290 562M2292 506L2363 568M2393 490L2407 539M2393 490L2363 568M2407 539L2363 568M2407 539L2430 595M2558 483L2577 588M-2 483L17 588M17 588L-62 578M17 588L91 671M17 588L-14 642M2577 588L2498 578M2577 588L2546 642M151 560L176 614M176 614L91 671M176 614L188 696M176 614L255 686M292 586L347 568M347 568L424 607M424 607L388 718M552 621L603 630M552 621L647 613M552 621L552 659M552 621L564 647M603 630L647 613M603 630L552 659M603 630L564 647M603 630L710 669M647 613L564 647M647 613L710 669M750 594L803 580M750 594L710 669M750 594L737 702M750 594L836 649M803 580L893 570M803 580L836 649M1000 638L1103 620M1000 638L918 690M1000 638L961 688M1103 620L1130 614M1103 620L1098 713M1103 620L1190 675M1103 620L1087 729M1130 614L1190 675M1130 614L1232 657M1260 637L1325 616M1260 637L1190 675M1260 637L1232 657M1260 637L1318 676M1325 616L1393 622M1325 616L1318 676M1325 616L1374 674M1393 622L1460 607M1393 622L1374 674M1393 622L1454 644M1460 607L1562 630M1460 607L1454 644M1562 630L1626 593M1562 630L1564 699M1562 630L1624 702M1626 593L1704 648M1742 568L1764 630M1742 568L1704 648M1742 568L1765 646M1764 630L1704 648M1764 630L1765 646M1879 580L1963 572M1879 580L1917 644M1963 572L2027 600M1963 572L1917 644M2027 600L1917 644M2027 600L2069 678M2155 600L2215 580M2155 600L2069 678M2155 600L2112 685M2155 600L2165 658M2215 580L2290 562M2215 580L2165 658M2215 580L2291 654M2290 562L2363 568M2290 562L2291 654M2363 568L2430 595M2430 595L2498 578M2430 595L2453 648M2498 578L2453 648M2498 578L2546 642M59 684L91 671M59 684L-14 642M59 684L54 765M59 684L-20 735M2619 684L2546 642M2619 684L2540 735M91 671L188 696M91 671L54 765M188 696L255 686M188 696L157 772M188 696L233 733M255 686L233 733M255 686L303 743M255 686L325 728M388 718L479 699M388 718L303 743M388 718L325 728M388 718L425 729M479 699L552 659M479 699L425 729M479 699L527 727M479 699L564 743M552 659L564 647M552 659L527 727M564 647L527 727M710 669L737 702M710 669L715 746M737 702L715 746M737 702L741 800M737 702L841 733M836 649L918 690M836 649L841 733M918 690L961 688M918 690L841 733M918 690L933 764M961 688L933 764M961 688L1019 774M1098 713L1190 675M1098 713L1087 729M1098 713L1139 798M1190 675L1232 657M1232 657L1318 676M1232 657L1272 773M1318 676L1374 674M1318 676L1272 773M1374 674L1454 644M1374 674L1424 732M1454 644L1424 732M1564 699L1624 702M1564 699L1473 735M1564 699L1578 768M1564 699L1635 740M1624 702L1578 768M1624 702L1635 740M1624 702L1682 757M1704 648L1765 646M1917 644L1962 704M1917 644L1928 732M1962 704L1928 732M1962 704L1983 818M2069 678L2112 685M2069 678L2165 658M2069 678L2070 764M2112 685L2165 658M2112 685L2070 764M2291 654L2320 704M2291 654L2278 759M2320 704L2229 763M2320 704L2278 759M2320 704L2391 791M2453 648L2546 642M2453 648L2540 735M2546 642L2540 735M54 765L157 772M54 765L-20 735M54 765L73 857M2614 765L2540 735M157 772L233 733M157 772L122 843M157 772L185 833M233 733L303 743M233 733L325 728M303 743L325 728M303 743L301 845M325 728L425 729M425 729L473 849M527 727L564 743M527 727L563 803M564 743L520 815M564 743L563 803M715 746L741 800M715 746L666 856M715 746L724 820M741 800L666 856M741 800L724 820M841 733L933 764M841 733L844 833M933 764L1019 774M933 764L904 860M1019 774L1087 729M1019 774L1030 859M1019 774L1063 816M1087 729L1139 798M1087 729L1063 816M1139 798L1063 816M1139 798L1156 867M1139 798L1194 895M1272 773L1351 786M1272 773L1279 824M1272 773L1326 843M1351 786L1424 732M1351 786L1279 824M1351 786L1326 843M1351 786L1372 857M1424 732L1473 735M1424 732L1447 850M1578 768L1635 740M1578 768L1682 757M1578 768L1600 835M1635 740L1682 757M1635 740L1600 835M1682 757L1600 835M1682 757L1744 847M1836 788L1871 779M1836 788L1928 732M1836 788L1744 847M1836 788L1833 863M1836 788L1853 814M1871 779L1928 732M1871 779L1853 814M1871 779L1983 818M1928 732L1983 818M2070 764L2131 779M2070 764L2051 838M2070 764L2120 823M2131 779L2229 763M2131 779L2051 838M2131 779L2120 823M2131 779L2176 811M2229 763L2278 759M2229 763L2176 811M2229 763L2289 837M2278 759L2289 837M2278 759L2353 812M2391 791L2430 795M2391 791L2353 812M2391 791L2421 841M2430 795L2353 812M2430 795L2421 841M2430 795L2475 902M2540 735L2535 851M73 857L122 843M73 857L-25 851M73 857L17 902M73 857L91 916M2633 857L2535 851M122 843L185 833M122 843L91 916M185 833L236 883M185 833L266 905M301 845L360 839M301 845L236 883M301 845L266 905M301 845L373 915M360 839L373 915M473 849L520 815M473 849L563 803M473 849L373 915M473 849L406 945M520 815L563 803M563 803L630 882M666 856L724 820M666 856L630 882M724 820L630 882M844 833L904 860M844 833L811 895M904 860L1030 859M904 860L811 895M904 860L954 959M1030 859L1063 816M1030 859L1018 928M1030 859L1064 927M1063 816L1064 927M1156 867L1194 895M1156 867L1233 912M1279 824L1326 843M1279 824L1233 912M1326 843L1372 857M1326 843L1329 938M1372 857L1447 850M1372 857L1329 938M1372 857L1421 913M1447 850L1421 913M1447 850L1489 889M1600 835L1604 875M1600 835L1572 930M1604 875L1489 889M1604 875L1572 930M1604 875L1715 903M1744 847L1833 863M1744 847L1715 903M1744 847L1822 927M1833 863L1853 814M1833 863L1822 927M1833 863L1852 943M1983 818L2051 838M1983 818L1976 931M2051 838L2120 823M2051 838L2054 941M2120 823L2176 811M2120 823L2166 896M2176 811L2289 837M2176 811L2166 896M2289 837L2353 812M2289 837L2272 930M2353 812L2421 841M2421 841L2475 902M2421 841L2509 912M2535 851L2577 902M2535 851L2475 902M2535 851L2509 912M-25 851L17 902M17 902L91 916M17 902L-51 912M17 902L62 982M2577 902L2509 912M91 916L62 982M91 916L102 1003M236 883L266 905M236 883L206 993M266 905L277 1012M373 915L406 945M373 915L382 983M406 945L382 983M406 945L463 1012M521 955L496 1022M521 955L624 963M521 955L514 1047M630 882L624 963M717 948L781 947M717 948L811 895M717 948L624 963M717 948L687 1011M717 948L769 967M781 947L811 895M781 947L769 967M781 947L802 1015M811 895L769 967M954 959L1018 928M954 959L933 988M954 959L987 986M1018 928L1064 927M1018 928L933 988M1018 928L987 986M1064 927L987 986M1064 927L1068 1034M1194 895L1233 912M1194 895L1154 1009M1233 912L1339 963M1329 938L1421 913M1329 938L1339 963M1329 938L1380 962M1421 913L1489 889M1421 913L1380 962M1489 889L1572 930M1489 889L1526 974M1572 930L1675 959M1572 930L1526 974M1675 959L1715 903M1675 959L1619 1038M1675 959L1683 1029M1715 903L1822 927M1715 903L1852 943M1822 927L1852 943M1822 927L1846 1027M1852 943L1777 1017M1852 943L1846 1027M1976 931L2054 941M1976 931L1981 1012M1976 931L2014 1012M2054 941L2134 927M2054 941L2014 1012M2054 941L2085 985M2134 927L2166 896M2134 927L2085 985M2134 927L2162 1024M2166 896L2272 930M2272 930L2363 947M2272 930L2300 1008M2272 930L2342 973M2363 947L2300 1008M2363 947L2342 973M2363 947L2420 974M2475 902L2509 912M2475 902L2420 974M2509 912L2533 1012M62 982L102 1003M62 982L-27 1012M62 982L120 1053M2622 982L2533 1012M102 1003L206 993M102 1003L63 1091M102 1003L120 1053M206 993L277 1012M277 1012L382 983M277 1012L313 1083M277 1012L328 1117M382 983L463 1012M463 1012L496 1022M463 1012L432 1088M463 1012L514 1047M496 1022L432 1088M496 1022L514 1047M496 1022L577 1097M624 963L687 1011M687 1011L769 967M687 1011L677 1050M769 967L802 1015M802 1015L834 1076M933 988L987 986M987 986L1068 1034M1068 1034L1154 1009M1068 1034L1068 1101M1068 1034L1044 1125M1154 1009L1224 1036M1154 1009L1122 1116M1224 1036L1259 1099M1224 1036L1298 1114M1339 963L1380 962M1380 962L1470 1031M1380 962L1446 1046M1470 1031L1526 974M1470 1031L1420 1079M1470 1031L1446 1046M1470 1031L1556 1047M1526 974L1446 1046M1526 974L1556 1047M1619 1038L1683 1029M1619 1038L1556 1047M1619 1038L1641 1057M1683 1029L1641 1057M1683 1029L1725 1062M1683 1029L1685 1120M1777 1017L1846 1027M1777 1017L1725 1062M1777 1017L1823 1078M1846 1027L1823 1078M1846 1027L1896 1082M1981 1012L2014 1012M1981 1012L1961 1096M2014 1012L2085 985M2014 1012L1961 1096M2085 985L2162 1024M2085 985L2112 1058M2162 1024L2112 1058M2162 1024L2209 1108M2162 1024L2258 1103M2300 1008L2342 973M2300 1008L2258 1103M2300 1008L2377 1047M2342 973L2420 974M2342 973L2377 1047M2420 974L2377 1047M2533 1012L2474 1095M2533 1012L2522 1075M63 1091L120 1053M63 1091L-38 1075M63 1091L12 1166M2623 1091L2522 1075M120 1053L166 1102M120 1053L132 1163M166 1102L132 1163M166 1102L200 1134M313 1083L328 1117M313 1083L352 1139M328 1117L432 1088M328 1117L267 1170M328 1117L352 1139M432 1088L514 1047M514 1047L577 1097M577 1097L559 1169M577 1097L623 1132M677 1050L734 1104M677 1050L623 1132M677 1050L703 1142M677 1050L727 1136M734 1104L834 1076M734 1104L703 1142M734 1104L727 1136M734 1104L822 1145M834 1076L822 1145M834 1076L901 1125M956 1105L976 1113M956 1105L901 1125M956 1105L1035 1160M976 1113L1068 1101M976 1113L901 1125M976 1113L1035 1160M976 1113L1044 1125M1068 1101L1122 1116M1068 1101L1035 1160M1068 1101L1044 1125M1122 1116L1044 1125M1122 1116L1166 1192M1259 1099L1298 1114M1259 1099L1166 1192M1259 1099L1275 1190M1259 1099L1309 1156M1298 1114L1275 1190M1298 1114L1309 1156M1420 1079L1446 1046M1420 1079L1486 1179M1446 1046L1556 1047M1556 1047L1641 1057M1641 1057L1725 1062M1641 1057L1685 1120M1725 1062L1823 1078M1725 1062L1685 1120M1823 1078L1896 1082M1823 1078L1811 1138M1896 1082L1961 1096M1896 1082L1885 1189M1896 1082L1953 1128M1961 1096L2038 1117M1961 1096L1953 1128M2038 1117L2112 1058M2038 1117L1953 1128M2038 1117L2047 1188M2209 1108L2258 1103M2209 1108L2127 1150M2209 1108L2182 1171M2209 1108L2287 1157M2258 1103L2182 1171M2258 1103L2287 1157M2377 1047L2396 1131M2474 1095L2522 1075M2474 1095L2396 1131M2474 1095L2424 1144M2474 1095L2504 1132M2522 1075L2424 1144M2522 1075L2504 1132M12 1166L-56 1132M12 1166L9 1209M12 1166L-12 1265M2572 1166L2504 1132M2572 1166L2548 1265M132 1163L200 1134M132 1163L153 1260M132 1163L188 1214M200 1134L267 1170M200 1134L188 1214M267 1170L352 1139M267 1170L188 1214M267 1170L324 1226M352 1139L420 1194M352 1139L324 1226M420 1194L462 1239M420 1194L498 1233M420 1194L406 1282M559 1169L623 1132M559 1169L462 1239M559 1169L498 1233M559 1169L566 1272M623 1132L703 1142M703 1142L727 1136M703 1142L695 1201M727 1136L822 1145M727 1136L695 1201M822 1145L901 1125M822 1145L832 1251M901 1125L944 1228M1035 1160L1044 1125M1035 1160L979 1221M1166 1192L1188 1226M1166 1192L1212 1273M1275 1190L1309 1156M1275 1190L1188 1226M1275 1190L1341 1237M1309 1156L1405 1187M1309 1156L1341 1237M1405 1187L1486 1179M1405 1187L1341 1237M1405 1187L1386 1277M1405 1187L1466 1257M1486 1179L1555 1172M1486 1179L1466 1257M1555 1172L1649 1145M1555 1172L1555 1270M1555 1172L1640 1200M1555 1172L1579 1300M1649 1145L1685 1120M1649 1145L1640 1200M1685 1120L1640 1200M1811 1138L1885 1189M1885 1189L1953 1128M1885 1189L1920 1233M2047 1188L2127 1150M2047 1188L2031 1266M2047 1188L2130 1232M2047 1188L2045 1299M2127 1150L2182 1171M2127 1150L2130 1232M2127 1150L2183 1207M2182 1171L2130 1232M2182 1171L2183 1207M2287 1157L2183 1207M2287 1157L2319 1242M2287 1157L2340 1227M2396 1131L2424 1144M2424 1144L2504 1132M2424 1144L2404 1255M2504 1132L2569 1209M-56 1132L9 1209M9 1209L-12 1265M2569 1209L2548 1265M153 1260L188 1214M153 1260L119 1314M153 1260L218 1344M188 1214L283 1277M283 1277L324 1226M283 1277L218 1344M283 1277L287 1293M324 1226L287 1293M324 1226L406 1282M462 1239L498 1233M462 1239L406 1282M498 1233L566 1272M498 1233L406 1282M566 1272L540 1340M566 1272L622 1332M566 1272L580 1366M695 1201L746 1248M695 1201L705 1294M695 1201L738 1289M746 1248L832 1251M746 1248L705 1294M746 1248L738 1289M746 1248L819 1313M832 1251L738 1289M832 1251L819 1313M944 1228L979 1221M944 1228L1041 1271M944 1228L925 1300M944 1228L969 1308M979 1221L1041 1271M979 1221L925 1300M979 1221L969 1308M1041 1271L969 1308M1041 1271L1067 1332M1188 1226L1212 1273M1188 1226L1274 1302M1212 1273L1154 1327M1212 1273L1274 1302M1341 1237L1386 1277M1341 1237L1274 1302M1386 1277L1466 1257M1386 1277L1399 1348M1386 1277L1461 1310M1466 1257L1555 1270M1466 1257L1461 1310M1555 1270L1640 1200M1555 1270L1579 1300M1640 1200L1721 1272M1721 1272L1776 1258M1721 1272L1676 1325M1721 1272L1756 1306M1721 1272L1694 1374M1776 1258L1756 1306M1776 1258L1818 1339M1920 1233L1960 1280M1920 1233L1902 1310M1960 1280L2031 1266M1960 1280L1902 1310M1960 1280L1938 1355M1960 1280L2045 1299M2031 1266L2130 1232M2031 1266L2045 1299M2031 1266L2100 1342M2130 1232L2183 1207M2183 1207L2220 1304M2319 1242L2340 1227M2319 1242L2404 1255M2319 1242L2267 1351M2319 1242L2384 1321M2340 1227L2404 1255M2404 1255L2384 1321M2404 1255L2422 1318M2548 1265L2618 1341M2548 1265L2510 1318M-12 1265L58 1341M58 1341L119 1314M58 1341L-50 1318M58 1341L27 1405M58 1341L-4 1399M2618 1341L2510 1318M2618 1341L2556 1399M119 1314L218 1344M218 1344L287 1293M218 1344L233 1412M287 1293L390 1352M390 1352L406 1282M390 1352L299 1432M390 1352L348 1393M390 1352L415 1402M540 1340L622 1332M540 1340L535 1398M540 1340L580 1366M622 1332L705 1294M622 1332L580 1366M622 1332L662 1394M705 1294L738 1289M705 1294L758 1385M738 1289L819 1313M819 1313L758 1385M819 1313L872 1371M925 1300L969 1308M925 1300L872 1371M925 1300L991 1373M969 1308L991 1373M1067 1332L1154 1327M1067 1332L991 1373M1067 1332L1075 1389M1154 1327L1075 1389M1154 1327L1220 1370M1274 1302L1302 1351M1274 1302L1220 1370M1302 1351L1399 1348M1302 1351L1220 1370M1302 1351L1291 1420M1302 1351L1389 1391M1399 1348L1461 1310M1399 1348L1389 1391M1399 1348L1458 1382M1461 1310L1458 1382M1579 1300L1676 1325M1579 1300L1545 1408M1579 1300L1613 1371M1676 1325L1756 1306M1676 1325L1613 1371M1676 1325L1694 1374M1756 1306L1818 1339M1756 1306L1694 1374M1818 1339L1902 1310M1818 1339L1821 1421M1818 1339L1843 1415M1902 1310L1938 1355M1902 1310L1961 1367M1938 1355L1843 1415M1938 1355L1961 1367M1938 1355L2034 1396M2045 1299L2100 1342M2045 1299L2034 1396M2100 1342L2220 1304M2100 1342L2034 1396M2100 1342L2159 1418M2220 1304L2267 1351M2220 1304L2159 1418M2220 1304L2234 1382M2267 1351L2234 1382M2267 1351L2299 1399M2384 1321L2422 1318M2384 1321L2376 1405M2422 1318L2510 1318M2422 1318L2376 1405M2422 1318L2468 1397M2510 1318L2468 1397M2510 1318L2556 1399M27 1405L131 1429M27 1405L-4 1399M2587 1405L2556 1399M131 1429L233 1412M233 1412L299 1432M299 1432L348 1393M348 1393L415 1402M415 1402L535 1398M535 1398L580 1366M580 1366L662 1394M662 1394L758 1385M872 1371L899 1420M899 1420L991 1373M991 1373L1075 1389M1075 1389L1175 1435M1175 1435L1220 1370M1220 1370L1291 1420M1389 1391L1458 1382M1458 1382L1545 1408M1545 1408L1613 1371M1613 1371L1694 1374M1821 1421L1843 1415M1961 1367L2034 1396M2159 1418L2234 1382M2234 1382L2299 1399M2299 1399L2376 1405M2468 1397L2556 1399"/></svg>