<svg xmlns="http://www.w3.org/2000/svg" width="2560" height="1440" fill="#fff"><circle cx="61" cy="26" r="4"/><circle cx="143" cy="14" r="5"/><circle cx="216" cy="73" r="5"/><circle cx="283" cy="75" r="6"/><circle cx="378" cy="11" r="5"/><circle cx="460" cy="22" r="5"/><circle cx="511" cy="57" r="5"/><circle cx="608" cy="14" r="4"/><circle cx="707" cy="14" r="5"/><circle cx="748" cy="22" r="5"/><circle cx="818" cy="49" r="4"/><circle cx="951" cy="16" r="6"/><circle cx="995" cy="15" r="5"/><circle cx="1106" cy="15" r="6"/><circle cx="1156" cy="7" r="5"/><circle cx="1210" cy="44" r="5"/><circle cx="1295" cy="17" r="5"/><circle cx="1377" cy="13" r="6"/><circle cx="1487" cy="75" r="6"/><circle cx="1570" cy="37" r="6"/><circle cx="1640" cy="47" r="4"/><circle cx="1702" cy="45" r="4"/><circle cx="1819" cy="56" r="6"/><circle cx="1896" cy="6" r="4"/><circle cx="1989" cy="72" r="6"/><circle cx="2061" cy="78" r="5"/><circle cx="2150" cy="68" r="5"/><circle cx="2179" cy="47" r="5"/><circle cx="2281" cy="52" r="5"/><circle cx="2379" cy="35" r="4"/><circle cx="2430" cy="40" r="6"/><circle cx="2538" cy="64" r="5"/><circle cx="41" cy="115" r="6"/><circle cx="141" cy="131" r="5"/><circle cx="217" cy="137" r="5"/><circle cx="240" cy="156" r="5"/><circle cx="382" cy="149" r="4"/><circle cx="407" cy="137" r="4"/><circle cx="548" cy="126" r="6"/><circle cx="568" cy="81" r="5"/><circle cx="681" cy="125" r="4"/><circle cx="763" cy="119" r="4"/><circle cx="848" cy="119" r="5"/><circle cx="913" cy="150" r="5"/><circle cx="978" cy="132" r="5"/><circle cx="1067" cy="131" r="5"/><circle cx="1188" cy="82" r="5"/><circle cx="1203" cy="89" r="4"/><circle cx="1329" cy="106" r="4"/><circle cx="1400" cy="131" r="4"/><circle cx="1483" cy="120" r="5"/><circle cx="1530" cy="150" r="4"/><circle cx="1615" cy="106" r="4"/><circle cx="1757" cy="81" r="4"/><circle cx="1775" cy="102" r="6"/><circle cx="1845" cy="131" r="6"/><circle cx="1982" cy="148" r="5"/><circle cx="2051" cy="97" r="5"/><circle cx="2122" cy="136" r="5"/><circle cx="2165" cy="107" r="5"/><circle cx="2309" cy="152" r="4"/><circle cx="2383" cy="84" r="4"/><circle cx="2421" cy="150" r="6"/><circle cx="2550" cy="128" r="5"/><circle cx="39" cy="186" r="5"/><circle cx="113" cy="190" r="4"/><circle cx="214" cy="176" r="6"/><circle cx="252" cy="177" r="4"/><circle cx="329" cy="215" r="5"/><circle cx="472" cy="201" r="6"/><circle cx="524" cy="185" r="6"/><circle cx="580" cy="187" r="6"/><circle cx="669" cy="191" r="5"/><circle cx="729" cy="178" r="4"/><circle cx="815" cy="209" r="5"/><circle cx="888" cy="183" r="5"/><circle cx="1037" cy="239" r="5"/><circle cx="1086" cy="206" r="4"/><circle cx="1140" cy="212" r="5"/><circle cx="1243" cy="236" r="5"/><circle cx="1356" cy="211" r="6"/><circle cx="1393" cy="225" r="5"/><circle cx="1454" cy="210" r="6"/><circle cx="1557" cy="208" r="4"/><circle cx="1652" cy="216" r="5"/><circle cx="1682" cy="238" r="5"/><circle cx="1807" cy="209" r="4"/><circle cx="1891" cy="231" r="5"/><circle cx="1960" cy="204" r="4"/><circle cx="2012" cy="169" r="5"/><circle cx="2156" cy="214" r="5"/><circle cx="2212" cy="235" r="6"/><circle cx="2264" cy="177" r="6"/><circle cx="2320" cy="202" r="5"/><circle cx="2442" cy="197" r="5"/><circle cx="2534" cy="210" r="4"/><circle cx="53" cy="266" r="6"/><circle cx="97" cy="313" r="4"/><circle cx="225" cy="261" r="5"/><circle cx="248" cy="280" r="6"/><circle cx="370" cy="307" r="4"/><circle cx="441" cy="263" r="5"/><circle cx="499" cy="303" r="4"/><circle cx="585" cy="319" r="5"/><circle cx="674" cy="290" r="6"/><circle cx="726" cy="248" r="6"/><circle cx="866" cy="309" r="4"/><circle cx="905" cy="251" r="5"/><circle cx="1026" cy="286" r="5"/><circle cx="1097" cy="284" r="5"/><circle cx="1168" cy="258" r="6"/><circle cx="1202" cy="240" r="5"/><circle cx="1331" cy="271" r="4"/><circle cx="1367" cy="310" r="4"/><circle cx="1473" cy="284" r="6"/><circle cx="1578" cy="288" r="5"/><circle cx="1652" cy="298" r="5"/><circle cx="1701" cy="275" r="5"/><circle cx="1763" cy="314" r="6"/><circle cx="1874" cy="268" r="6"/><circle cx="1963" cy="306" r="5"/><circle cx="2053" cy="301" r="5"/><circle cx="2145" cy="243" r="4"/><circle cx="2229" cy="283" r="4"/><circle cx="2287" cy="274" r="4"/><circle cx="2397" cy="302" r="5"/><circle cx="2420" cy="266" r="6"/><circle cx="2547" cy="285" r="4"/><circle cx="39" cy="339" r="4"/><circle cx="100" cy="354" r="5"/><circle cx="185" cy="334" r="4"/><circle cx="247" cy="354" r="4"/><circle cx="326" cy="321" r="5"/><circle cx="401" cy="374" r="6"/><circle cx="513" cy="330" r="4"/><circle cx="623" cy="358" r="5"/><circle cx="702" cy="343" r="5"/><circle cx="728" cy="365" r="5"/><circle cx="826" cy="329" r="5"/><circle cx="923" cy="350" r="5"/><circle cx="966" cy="329" r="5"/><circle cx="1063" cy="368" r="6"/><circle cx="1195" cy="348" r="5"/><circle cx="1276" cy="348" r="4"/><circle cx="1331" cy="396" r="6"/><circle cx="1401" cy="361" r="6"/><circle cx="1454" cy="321" r="6"/><circle cx="1561" cy="364" r="5"/><circle cx="1629" cy="364" r="6"/><circle cx="1737" cy="367" r="4"/><circle cx="1764" cy="373" r="5"/><circle cx="1919" cy="350" r="6"/><circle cx="1981" cy="387" r="6"/><circle cx="2022" cy="359" r="6"/><circle cx="2081" cy="369" r="5"/><circle cx="2203" cy="384" r="6"/><circle cx="2290" cy="335" r="6"/><circle cx="2400" cy="391" r="6"/><circle cx="2418" cy="389" r="5"/><circle cx="2544" cy="333" r="6"/><circle cx="8" cy="441" r="6"/><circle cx="129" cy="412" r="6"/><circle cx="205" cy="417" r="5"/><circle cx="269" cy="411" r="6"/><circle cx="375" cy="427" r="5"/><circle cx="424" cy="474" r="5"/><circle cx="543" cy="400" r="5"/><circle cx="582" cy="467" r="4"/><circle cx="684" cy="406" r="6"/><circle cx="739" cy="415" r="4"/><circle cx="811" cy="434" r="6"/><circle cx="928" cy="480" r="4"/><circle cx="1016" cy="456" r="6"/><circle cx="1092" cy="417" r="4"/><circle cx="1195" cy="455" r="5"/><circle cx="1276" cy="455" r="6"/><circle cx="1344" cy="421" r="5"/><circle cx="1388" cy="451" r="5"/><circle cx="1478" cy="455" r="5"/><circle cx="1588" cy="452" r="6"/><circle cx="1657" cy="448" r="5"/><circle cx="1697" cy="403" r="5"/><circle cx="1802" cy="459" r="6"/><circle cx="1896" cy="472" r="6"/><circle cx="1929" cy="413" r="5"/><circle cx="2007" cy="424" r="6"/><circle cx="2141" cy="400" r="5"/><circle cx="2195" cy="445" r="5"/><circle cx="2292" cy="463" r="5"/><circle cx="2360" cy="421" r="5"/><circle cx="2462" cy="451" r="5"/><circle cx="2553" cy="471" r="4"/><circle cx="13" cy="518" r="4"/><circle cx="121" cy="505" r="6"/><circle cx="232" cy="480" r="5"/><circle cx="317" cy="488" r="5"/><circle cx="367" cy="538" r="4"/><circle cx="473" cy="529" r="4"/><circle cx="495" cy="520" r="6"/><circle cx="572" cy="548" r="5"/><circle cx="688" cy="527" r="6"/><circle cx="750" cy="503" r="4"/><circle cx="850" cy="482" r="5"/><circle cx="889" cy="504" r="5"/><circle cx="968" cy="505" r="5"/><circle cx="1100" cy="538" r="5"/><circle cx="1168" cy="549" r="4"/><circle cx="1212" cy="496" r="5"/><circle cx="1351" cy="518" r="5"/><circle cx="1440" cy="560" r="5"/><circle cx="1506" cy="543" r="5"/><circle cx="1566" cy="489" r="4"/><circle cx="1612" cy="530" r="4"/><circle cx="1712" cy="517" r="4"/><circle cx="1815" cy="508" r="6"/><circle cx="1895" cy="537" r="6"/><circle cx="1938" cy="555" r="4"/><circle cx="2004" cy="499" r="4"/><circle cx="2126" cy="486" r="5"/><circle cx="2239" cy="497" r="5"/><circle cx="2247" cy="512" r="5"/><circle cx="2349" cy="544" r="5"/><circle cx="2477" cy="510" r="5"/><circle cx="2508" cy="530" r="5"/><circle cx="57" cy="599" r="6"/><circle cx="95" cy="584" r="5"/><circle cx="229" cy="624" r="5"/><circle cx="306" cy="621" r="5"/><circle cx="391" cy="607" r="4"/><circle cx="472" cy="603" r="6"/><circle cx="526" cy="612" r="4"/><circle cx="602" cy="586" r="6"/><circle cx="659" cy="583" r="4"/><circle cx="756" cy="623" r="4"/><circle cx="871" cy="627" r="5"/><circle cx="945" cy="601" r="6"/><circle cx="967" cy="638" r="6"/><circle cx="1085" cy="630" r="5"/><circle cx="1124" cy="626" r="4"/><circle cx="1208" cy="639" r="5"/><circle cx="1294" cy="634" r="6"/><circle cx="1424" cy="569" r="4"/><circle cx="1478" cy="610" r="5"/><circle cx="1524" cy="634" r="6"/><circle cx="1626" cy="569" r="4"/><circle cx="1701" cy="598" r="6"/><circle cx="1839" cy="596" r="5"/><circle cx="1868" cy="580" r="4"/><circle cx="1932" cy="567" r="5"/><circle cx="2060" cy="580" r="5"/><circle cx="2156" cy="579" r="5"/><circle cx="2183" cy="630" r="5"/><circle cx="2319" cy="568" r="4"/><circle cx="2358" cy="561" r="6"/><circle cx="2409" cy="581" r="5"/><circle cx="2543" cy="568" r="4"/><circle cx="62" cy="677" r="4"/><circle cx="116" cy="658" r="6"/><circle cx="185" cy="710" r="5"/><circle cx="309" cy="714" r="5"/><circle cx="349" cy="671" r="5"/><circle cx="452" cy="705" r="5"/><circle cx="525" cy="719" r="6"/><circle cx="605" cy="653" r="4"/><circle cx="712" cy="673" r="5"/><circle cx="753" cy="716" r="6"/><circle cx="813" cy="716" r="5"/><circle cx="914" cy="676" r="4"/><circle cx="1004" cy="668" r="5"/><circle cx="1043" cy="716" r="4"/><circle cx="1174" cy="658" r="5"/><circle cx="1211" cy="699" r="5"/><circle cx="1303" cy="677" r="5"/><circle cx="1431" cy="674" r="4"/><circle cx="1484" cy="687" r="4"/><circle cx="1583" cy="709" r="5"/><circle cx="1653" cy="675" r="4"/><circle cx="1755" cy="646" r="6"/><circle cx="1810" cy="648" r="5"/><circle cx="1887" cy="674" r="5"/><circle cx="1939" cy="653" r="5"/><circle cx="2052" cy="717" r="4"/><circle cx="2081" cy="717" r="5"/><circle cx="2163" cy="717" r="6"/><circle cx="2315" cy="654" r="6"/><circle cx="2376" cy="645" r="5"/><circle cx="2418" cy="679" r="4"/><circle cx="2530" cy="659" r="5"/><circle cx="66" cy="772" r="5"/><circle cx="132" cy="738" r="4"/><circle cx="168" cy="767" r="4"/><circle cx="250" cy="764" r="5"/><circle cx="383" cy="771" r="5"/><circle cx="477" cy="733" r="6"/><circle cx="518" cy="768" r="5"/><circle cx="631" cy="726" r="5"/><circle cx="718" cy="797" r="5"/><circle cx="751" cy="732" r="5"/><circle cx="859" cy="725" r="5"/><circle cx="955" cy="723" r="4"/><circle cx="966" cy="756" r="4"/><circle cx="1114" cy="751" r="5"/><circle cx="1159" cy="730" r="4"/><circle cx="1258" cy="754" r="4"/><circle cx="1335" cy="781" r="5"/><circle cx="1377" cy="756" r="5"/><circle cx="1445" cy="744" r="4"/><circle cx="1597" cy="798" r="5"/><circle cx="1637" cy="778" r="5"/><circle cx="1728" cy="721" r="4"/><circle cx="1804" cy="796" r="5"/><circle cx="1885" cy="788" r="6"/><circle cx="1991" cy="737" r="4"/><circle cx="2049" cy="777" r="5"/><circle cx="2131" cy="762" r="4"/><circle cx="2176" cy="796" r="5"/><circle cx="2309" cy="766" r="4"/><circle cx="2368" cy="727" r="5"/><circle cx="2462" cy="761" r="5"/><circle cx="2556" cy="729" r="6"/><circle cx="-4" cy="729" r="6"/><circle cx="56" cy="877" r="5"/><circle cx="120" cy="859" r="4"/><circle cx="205" cy="827" r="5"/><circle cx="254" cy="873" r="6"/><circle cx="348" cy="876" r="5"/><circle cx="441" cy="846" r="5"/><circle cx="489" cy="858" r="4"/><circle cx="623" cy="833" r="4"/><circle cx="664" cy="849" r="5"/><circle cx="778" cy="803" r="5"/><circle cx="880" cy="874" r="6"/><circle cx="890" cy="816" r="6"/><circle cx="1022" cy="829" r="5"/><circle cx="1047" cy="836" r="5"/><circle cx="1178" cy="877" r="4"/><circle cx="1260" cy="843" r="4"/><circle cx="1342" cy="849" r="5"/><circle cx="1407" cy="809" r="6"/><circle cx="1480" cy="807" r="4"/><circle cx="1598" cy="853" r="6"/><circle cx="1603" cy="844" r="6"/><circle cx="1755" cy="813" r="5"/><circle cx="1826" cy="850" r="5"/><circle cx="1884" cy="851" r="5"/><circle cx="1963" cy="801" r="5"/><circle cx="2055" cy="876" r="5"/><circle cx="2133" cy="856" r="5"/><circle cx="2215" cy="859" r="4"/><circle cx="2274" cy="835" r="5"/><circle cx="2356" cy="872" r="5"/><circle cx="2465" cy="818" r="5"/><circle cx="2558" cy="808" r="5"/><circle cx="-2" cy="808" r="5"/><circle cx="38" cy="907" r="6"/><circle cx="160" cy="956" r="5"/><circle cx="184" cy="954" r="5"/><circle cx="286" cy="956" r="5"/><circle cx="366" cy="943" r="4"/><circle cx="413" cy="882" r="6"/><circle cx="514" cy="881" r="5"/><circle cx="614" cy="899" r="4"/><circle cx="684" cy="885" r="6"/><circle cx="781" cy="892" r="6"/><circle cx="846" cy="922" r="6"/><circle cx="895" cy="894" r="5"/><circle cx="996" cy="948" r="5"/><circle cx="1056" cy="947" r="5"/><circle cx="1166" cy="922" r="5"/><circle cx="1255" cy="931" r="6"/><circle cx="1307" cy="886" r="4"/><circle cx="1424" cy="936" r="5"/><circle cx="1504" cy="886" r="5"/><circle cx="1545" cy="954" r="5"/><circle cx="1654" cy="944" r="6"/><circle cx="1724" cy="890" r="5"/><circle cx="1822" cy="946" r="5"/><circle cx="1868" cy="914" r="4"/><circle cx="1970" cy="946" r="4"/><circle cx="2020" cy="932" r="6"/><circle cx="2104" cy="891" r="4"/><circle cx="2205" cy="915" r="4"/><circle cx="2305" cy="922" r="6"/><circle cx="2383" cy="929" r="4"/><circle cx="2405" cy="918" r="5"/><circle cx="2554" cy="900" r="5"/><circle cx="37" cy="962" r="4"/><circle cx="122" cy="1017" r="6"/><circle cx="179" cy="994" r="6"/><circle cx="277" cy="999" r="4"/><circle cx="382" cy="1023" r="6"/><circle cx="403" cy="1027" r="6"/><circle cx="544" cy="976" r="5"/><circle cx="585" cy="1020" r="5"/><circle cx="707" cy="993" r="4"/><circle cx="798" cy="966" r="5"/><circle cx="809" cy="1012" r="6"/><circle cx="910" cy="1022" r="5"/><circle cx="1013" cy="979" r="5"/><circle cx="1080" cy="1017" r="4"/><circle cx="1158" cy="976" r="5"/><circle cx="1206" cy="1016" r="5"/><circle cx="1339" cy="1032" r="4"/><circle cx="1388" cy="985" r="5"/><circle cx="1460" cy="1012" r="6"/><circle cx="1567" cy="993" r="4"/><circle cx="1617" cy="988" r="5"/><circle cx="1688" cy="1015" r="4"/><circle cx="1815" cy="971" r="6"/><circle cx="1875" cy="1023" r="5"/><circle cx="1973" cy="999" r="5"/><circle cx="2065" cy="962" r="4"/><circle cx="2124" cy="1004" r="5"/><circle cx="2204" cy="1038" r="5"/><circle cx="2302" cy="981" r="5"/><circle cx="2338" cy="1035" r="4"/><circle cx="2478" cy="1000" r="4"/><circle cx="2537" cy="996" r="5"/><circle cx="5" cy="1113" r="4"/><circle cx="93" cy="1119" r="5"/><circle cx="165" cy="1112" r="4"/><circle cx="276" cy="1107" r="4"/><circle cx="394" cy="1065" r="5"/><circle cx="405" cy="1078" r="6"/><circle cx="544" cy="1072" r="4"/><circle cx="587" cy="1063" r="5"/><circle cx="712" cy="1047" r="4"/><circle cx="797" cy="1095" r="6"/><circle cx="872" cy="1049" r="4"/><circle cx="944" cy="1065" r="5"/><circle cx="1027" cy="1093" r="5"/><circle cx="1103" cy="1093" r="5"/><circle cx="1139" cy="1094" r="4"/><circle cx="1232" cy="1081" r="6"/><circle cx="1283" cy="1082" r="4"/><circle cx="1370" cy="1073" r="6"/><circle cx="1515" cy="1084" r="5"/><circle cx="1562" cy="1114" r="5"/><circle cx="1623" cy="1044" r="5"/><circle cx="1710" cy="1069" r="6"/><circle cx="1796" cy="1072" r="5"/><circle cx="1901" cy="1099" r="6"/><circle cx="1965" cy="1052" r="6"/><circle cx="2010" cy="1061" r="5"/><circle cx="2135" cy="1107" r="6"/><circle cx="2222" cy="1096" r="4"/><circle cx="2272" cy="1106" r="4"/><circle cx="2398" cy="1087" r="4"/><circle cx="2414" cy="1119" r="5"/><circle cx="2526" cy="1094" r="4"/><circle cx="75" cy="1140" r="4"/><circle cx="145" cy="1124" r="6"/><circle cx="171" cy="1156" r="6"/><circle cx="276" cy="1194" r="5"/><circle cx="388" cy="1173" r="5"/><circle cx="467" cy="1144" r="5"/><circle cx="525" cy="1132" r="4"/><circle cx="637" cy="1132" r="5"/><circle cx="682" cy="1124" r="4"/><circle cx="725" cy="1154" r="5"/><circle cx="814" cy="1128" r="4"/><circle cx="902" cy="1132" r="5"/><circle cx="1007" cy="1165" r="6"/><circle cx="1051" cy="1154" r="4"/><circle cx="1142" cy="1192" r="5"/><circle cx="1236" cy="1151" r="6"/><circle cx="1324" cy="1146" r="4"/><circle cx="1397" cy="1197" r="5"/><circle cx="1476" cy="1157" r="6"/><circle cx="1579" cy="1135" r="6"/><circle cx="1623" cy="1168" r="5"/><circle cx="1713" cy="1147" r="4"/><circle cx="1788" cy="1162" r="5"/><circle cx="1861" cy="1181" r="6"/><circle cx="1958" cy="1139" r="5"/><circle cx="2046" cy="1199" r="6"/><circle cx="2133" cy="1170" r="4"/><circle cx="2169" cy="1171" r="4"/><circle cx="2288" cy="1200" r="6"/><circle cx="2367" cy="1180" r="5"/><circle cx="2447" cy="1166" r="5"/><circle cx="2533" cy="1182" r="4"/><circle cx="23" cy="1237" r="5"/><circle cx="134" cy="1249" r="4"/><circle cx="230" cy="1235" r="5"/><circle cx="299" cy="1237" r="6"/><circle cx="353" cy="1213" r="5"/><circle cx="400" cy="1220" r="5"/><circle cx="492" cy="1279" r="4"/><circle cx="568" cy="1215" r="6"/><circle cx="653" cy="1203" r="5"/><circle cx="767" cy="1247" r="4"/><circle cx="822" cy="1208" r="4"/><circle cx="886" cy="1261" r="5"/><circle cx="1011" cy="1247" r="5"/><circle cx="1075" cy="1277" r="6"/><circle cx="1180" cy="1203" r="5"/><circle cx="1200" cy="1254" r="6"/><circle cx="1338" cy="1220" r="5"/><circle cx="1371" cy="1273" r="6"/><circle cx="1508" cy="1236" r="5"/><circle cx="1590" cy="1219" r="6"/><circle cx="1629" cy="1216" r="5"/><circle cx="1740" cy="1204" r="5"/><circle cx="1830" cy="1270" r="6"/><circle cx="1919" cy="1200" r="5"/><circle cx="1926" cy="1237" r="5"/><circle cx="2011" cy="1215" r="5"/><circle cx="2159" cy="1264" r="5"/><circle cx="2228" cy="1240" r="4"/><circle cx="2290" cy="1277" r="6"/><circle cx="2396" cy="1235" r="5"/><circle cx="2405" cy="1277" r="5"/><circle cx="2494" cy="1222" r="6"/><circle cx="79" cy="1349" r="5"/><circle cx="125" cy="1292" r="4"/><circle cx="208" cy="1289" r="5"/><circle cx="256" cy="1300" r="5"/><circle cx="396" cy="1341" r="5"/><circle cx="450" cy="1339" r="5"/><circle cx="513" cy="1301" r="6"/><circle cx="612" cy="1295" r="6"/><circle cx="659" cy="1301" r="6"/><circle cx="773" cy="1338" r="4"/><circle cx="805" cy="1359" r="5"/><circle cx="893" cy="1330" r="5"/><circle cx="1001" cy="1300" r="4"/><circle cx="1070" cy="1344" r="5"/><circle cx="1198" cy="1344" r="6"/><circle cx="1226" cy="1337" r="5"/><circle cx="1293" cy="1344" r="4"/><circle cx="1392" cy="1343" r="5"/><circle cx="1467" cy="1286" r="5"/><circle cx="1544" cy="1321" r="6"/><circle cx="1679" cy="1358" r="6"/><circle cx="1688" cy="1288" r="5"/><circle cx="1808" cy="1351" r="5"/><circle cx="1910" cy="1300" r="4"/><circle cx="1988" cy="1332" r="4"/><circle cx="2030" cy="1356" r="5"/><circle cx="2103" cy="1322" r="5"/><circle cx="2225" cy="1319" r="4"/><circle cx="2269" cy="1360" r="6"/><circle cx="2335" cy="1289" r="6"/><circle cx="2423" cy="1290" r="4"/><circle cx="2530" cy="1305" r="4"/><circle cx="26" cy="1370" r="4"/><circle cx="81" cy="1429" r="5"/><circle cx="224" cy="1427" r="4"/><circle cx="253" cy="1415" r="5"/><circle cx="369" cy="1413" r="5"/><circle cx="401" cy="1398" r="6"/><circle cx="502" cy="1380" r="5"/><circle cx="578" cy="1439" r="6"/><circle cx="578" cy="-1" r="6"/><circle cx="654" cy="1379" r="4"/><circle cx="780" cy="1369" r="6"/><circle cx="827" cy="1385" r="4"/><circle cx="929" cy="1380" r="6"/><circle cx="1026" cy="1377" r="5"/><circle cx="1093" cy="1396" r="5"/><circle cx="1146" cy="1403" r="6"/><circle cx="1260" cy="1429" r="6"/><circle cx="1305" cy="1385" r="5"/><circle cx="1369" cy="1410" r="5"/><circle cx="1496" cy="1414" r="6"/><circle cx="1549" cy="1369" r="4"/><circle cx="1670" cy="1430" r="5"/><circle cx="1715" cy="1412" r="5"/><circle cx="1813" cy="1398" r="5"/><circle cx="1908" cy="1373" r="5"/><circle cx="1949" cy="1416" r="5"/><circle cx="2053" cy="1426" r="5"/><circle cx="2120" cy="1415" r="4"/><circle cx="2192" cy="1396" r="4"/><circle cx="2299" cy="1363" r="5"/><circle cx="2383" cy="1389" r="5"/><circle cx="2438" cy="1413" r="6"/><circle cx="2485" cy="1372" r="6"/><path stroke="#fff" d="M61 26L143 14M61 26L-22 64M61 26L41 115M61 26L26 -70M61 26L81 -11M2621 26L2538 64M61 1466L26 1370M61 1466L81 1429M143 14L81 -11M143 14L224 -13M143 14L253 -25M143 1454L81 1429M143 1454L224 1427M143 1454L253 1415M216 73L283 75M216 73L141 131M216 73L217 137M216 73L240 156M216 73L224 -13M216 1513L224 1427M283 75L378 11M283 75L240 156M283 75L253 -25M283 1515L253 1415M378 11L460 22M378 11L396 -99M378 11L369 -27M378 11L401 -42M378 1451L396 1341M378 1451L369 1413M378 1451L401 1398M460 22L511 57M460 22L369 -27M460 22L401 -42M460 22L502 -60M460 1462L369 1413M460 1462L401 1398M460 1462L502 1380M511 57L548 126M511 57L568 81M511 57L578 -1M511 1497L578 1439M608 14L707 14M608 14L568 81M608 14L578 -1M608 14L654 -61M608 1454L578 1439M608 1454L654 1379M707 14L748 22M707 14L654 -61M707 14L780 -71M707 1454L654 1379M707 1454L780 1369M748 22L818 49M748 22L763 119M748 22L805 -81M748 22L780 -71M748 1462L805 1359M748 1462L780 1369M818 49L763 119M818 49L848 119M951 16L995 15M951 16L978 132M951 16L929 -60M951 1456L929 1380M995 15L1106 15M995 15L929 -60M995 15L1026 -63M995 1455L929 1380M995 1455L1026 1377M1106 15L1156 7M1106 15L1188 82M1106 15L1093 -44M1106 15L1146 -37M1106 1455L1093 1396M1106 1455L1146 1403M1156 7L1210 44M1156 7L1188 82M1156 7L1093 -44M1156 7L1146 -37M1156 1447L1093 1396M1156 1447L1146 1403M1210 44L1295 17M1210 44L1188 82M1210 44L1203 89M1210 44L1260 -11M1210 1484L1260 1429M1295 17L1377 13M1295 17L1260 -11M1295 17L1305 -55M1295 17L1369 -30M1295 1457L1260 1429M1295 1457L1305 1385M1295 1457L1369 1410M1377 13L1392 -97M1377 13L1305 -55M1377 13L1369 -30M1377 1453L1392 1343M1377 1453L1305 1385M1377 1453L1369 1410M1487 75L1570 37M1487 75L1400 131M1487 75L1483 120M1487 75L1530 150M1487 75L1496 -26M1487 1515L1496 1414M1570 37L1640 47M1570 37L1615 106M1570 37L1496 -26M1570 37L1670 -10M1570 1477L1496 1414M1570 1477L1670 1430M1640 47L1702 45M1640 47L1615 106M1640 47L1670 -10M1640 1487L1670 1430M1702 45L1757 81M1702 45L1775 102M1702 45L1670 -10M1702 45L1715 -28M1702 1485L1670 1430M1702 1485L1715 1412M1819 56L1896 6M1819 56L1757 81M1819 56L1775 102M1819 56L1845 131M1819 56L1813 -42M1819 1496L1813 1398M1896 6L1813 -42M1896 6L1908 -67M1896 6L1949 -24M1896 1446L1813 1398M1896 1446L1908 1373M1896 1446L1949 1416M1989 72L2061 78M1989 72L1982 148M1989 72L2051 97M1989 72L2012 169M1989 72L2053 -14M1989 1512L2053 1426M2061 78L2150 68M2061 78L2051 97M2061 78L2122 136M2061 78L2053 -14M2061 1518L2053 1426M2150 68L2179 47M2150 68L2122 136M2150 68L2165 107M2179 47L2165 107M2179 47L2120 -25M2179 47L2192 -44M2179 1487L2120 1415M2179 1487L2192 1396M2281 52L2379 35M2281 52L2309 152M2281 52L2383 84M2379 35L2430 40M2379 35L2383 84M2379 35L2383 -51M2379 35L2438 -27M2379 1475L2383 1389M2379 1475L2438 1413M2430 40L2383 84M2430 40L2421 150M2430 40L2383 -51M2430 40L2438 -27M2430 1480L2383 1389M2430 1480L2438 1413M2538 64L2601 115M2538 64L2550 128M2538 64L2438 -27M-22 64L41 115M2538 1504L2438 1413M41 115L141 131M41 115L-10 128M41 115L39 186M2601 115L2550 128M141 131L217 137M141 131L113 190M141 131L214 176M217 137L240 156M217 137L214 176M217 137L252 177M240 156L214 176M240 156L252 177M382 149L407 137M382 149L329 215M407 137L472 201M548 126L568 81M548 126L472 201M548 126L524 185M548 126L580 187M568 81L580 187M568 81L578 -1M568 1521L578 1439M681 125L763 119M681 125L669 191M681 125L729 178M763 119L848 119M763 119L729 178M848 119L913 150M848 119L815 209M848 119L888 183M913 150L978 132M913 150L888 183M913 150L905 251M978 132L1067 131M978 132L888 183M1067 131L1037 239M1067 131L1086 206M1188 82L1203 89M1329 106L1400 131M1400 131L1483 120M1400 131L1356 211M1400 131L1454 210M1483 120L1530 150M1483 120L1454 210M1483 120L1557 208M1530 150L1615 106M1530 150L1557 208M1757 81L1775 102M1757 81L1845 131M1775 102L1845 131M1775 102L1807 209M1845 131L1807 209M1845 131L1891 231M1982 148L2051 97M1982 148L1960 204M1982 148L2012 169M2051 97L2122 136M2051 97L2012 169M2122 136L2165 107M2122 136L2156 214M2309 152L2383 84M2309 152L2264 177M2309 152L2320 202M2383 84L2421 150M2421 150L2320 202M2421 150L2442 197M2421 150L2420 266M2550 128L2599 186M2550 128L2442 197M2550 128L2534 210M-10 128L39 186M39 186L113 190M39 186L-26 210M39 186L53 266M2599 186L2534 210M214 176L252 177M214 176L225 261M252 177L329 215M252 177L225 261M329 215L248 280M329 215L370 307M472 201L524 185M472 201L580 187M472 201L441 263M524 185L580 187M524 185L441 263M524 185L499 303M580 187L669 191M669 191L729 178M669 191L726 248M729 178L815 209M729 178L726 248M815 209L888 183M815 209L726 248M815 209L905 251M888 183L905 251M1037 239L1086 206M1037 239L1140 212M1037 239L1026 286M1037 239L1097 284M1086 206L1140 212M1086 206L1097 284M1140 212L1097 284M1140 212L1168 258M1140 212L1202 240M1243 236L1168 258M1243 236L1202 240M1243 236L1331 271M1356 211L1393 225M1356 211L1454 210M1356 211L1331 271M1356 211L1367 310M1393 225L1454 210M1393 225L1331 271M1393 225L1473 284M1454 210L1473 284M1557 208L1652 216M1557 208L1578 288M1652 216L1682 238M1652 216L1652 298M1652 216L1701 275M1682 238L1652 298M1682 238L1701 275M1682 238L1763 314M1807 209L1891 231M1807 209L1874 268M1891 231L1960 204M1891 231L1874 268M1960 204L2012 169M1960 204L1874 268M2156 214L2212 235M2156 214L2264 177M2156 214L2145 243M2212 235L2264 177M2212 235L2145 243M2212 235L2229 283M2212 235L2287 274M2264 177L2320 202M2264 177L2287 274M2320 202L2287 274M2320 202L2420 266M2442 197L2534 210M2442 197L2397 302M2442 197L2420 266M2534 210L2547 285M53 266L97 313M53 266L-13 285M53 266L39 339M53 266L-16 333M2613 266L2547 285M2613 266L2544 333M97 313L39 339M97 313L100 354M97 313L129 412M225 261L248 280M225 261L185 334M248 280L185 334M248 280L247 354M248 280L326 321M370 307L441 263M370 307L326 321M370 307L401 374M441 263L499 303M441 263L513 330M499 303L585 319M499 303L513 330M499 303L543 400M585 319L674 290M585 319L513 330M585 319L623 358M585 319L543 400M674 290L726 248M674 290L623 358M674 290L702 343M674 290L728 365M866 309L905 251M866 309L826 329M866 309L923 350M866 309L966 329M905 251L966 329M1026 286L1097 284M1026 286L923 350M1026 286L966 329M1026 286L1063 368M1097 284L1168 258M1168 258L1202 240M1168 258L1195 348M1202 240L1195 348M1331 271L1367 310M1331 271L1276 348M1367 310L1401 361M1367 310L1454 321M1473 284L1578 288M1473 284L1454 321M1578 288L1652 298M1578 288L1561 364M1652 298L1701 275M1652 298L1629 364M1701 275L1763 314M1763 314L1737 367M1763 314L1764 373M1763 314L1697 403M1874 268L1963 306M1874 268L1919 350M1963 306L2053 301M1963 306L1919 350M1963 306L1981 387M1963 306L2022 359M2053 301L2145 243M2053 301L2022 359M2053 301L2081 369M2145 243L2229 283M2229 283L2287 274M2229 283L2203 384M2229 283L2290 335M2287 274L2290 335M2397 302L2420 266M2397 302L2290 335M2397 302L2400 391M2397 302L2418 389M2420 266L2400 391M2547 285L2599 339M2547 285L2544 333M-13 285L39 339M39 339L100 354M39 339L-16 333M2599 339L2544 333M100 354L-16 333M100 354L129 412M2660 354L2544 333M185 334L247 354M185 334L129 412M185 334L205 417M247 354L326 321M247 354L205 417M247 354L269 411M326 321L401 374M401 374L375 427M401 374L424 474M513 330L543 400M623 358L702 343M623 358L543 400M623 358L684 406M702 343L728 365M702 343L684 406M702 343L739 415M728 365L684 406M728 365L739 415M728 365L811 434M826 329L923 350M923 350L966 329M966 329L1063 368M1063 368L1016 456M1063 368L1092 417M1195 348L1276 348M1195 348L1195 455M1276 348L1331 396M1331 396L1401 361M1331 396L1276 455M1331 396L1344 421M1331 396L1388 451M1401 361L1454 321M1401 361L1344 421M1401 361L1388 451M1454 321L1561 364M1561 364L1629 364M1561 364L1588 452M1629 364L1588 452M1629 364L1657 448M1629 364L1697 403M1737 367L1764 373M1737 367L1697 403M1764 373L1697 403M1764 373L1802 459M1919 350L1981 387M1919 350L1929 413M1981 387L2022 359M1981 387L1929 413M1981 387L2007 424M2022 359L2081 369M2022 359L2007 424M2081 369L2007 424M2081 369L2141 400M2203 384L2290 335M2203 384L2141 400M2203 384L2195 445M2203 384L2239 497M2290 335L2360 421M2400 391L2418 389M2400 391L2360 421M2400 391L2462 451M2418 389L2360 421M2418 389L2462 451M2544 333L2568 441M-16 333L8 441M8 441L-98 451M8 441L-7 471M8 441L13 518M2568 441L2462 451M2568 441L2553 471M129 412L205 417M129 412L121 505M205 417L269 411M205 417L232 480M269 411L375 427M269 411L232 480M269 411L317 488M375 427L424 474M375 427L317 488M375 427L367 538M424 474L367 538M424 474L473 529M424 474L495 520M543 400L582 467M582 467L572 548M684 406L739 415M684 406L688 527M739 415L811 434M739 415L750 503M811 434L750 503M811 434L850 482M811 434L889 504M928 480L1016 456M928 480L850 482M928 480L889 504M928 480L968 505M1016 456L1092 417M1016 456L968 505M1016 456L1100 538M1092 417L1195 455M1195 455L1276 455M1195 455L1168 549M1195 455L1212 496M1276 455L1344 421M1276 455L1212 496M1276 455L1351 518M1344 421L1388 451M1344 421L1351 518M1388 451L1478 455M1388 451L1351 518M1478 455L1506 543M1478 455L1566 489M1588 452L1657 448M1588 452L1566 489M1588 452L1612 530M1657 448L1697 403M1657 448L1612 530M1657 448L1712 517M1802 459L1896 472M1802 459L1712 517M1802 459L1815 508M1896 472L1929 413M1896 472L1815 508M1896 472L1895 537M1896 472L1932 567M1929 413L2007 424M2007 424L2004 499M2141 400L2195 445M2141 400L2126 486M2195 445L2126 486M2195 445L2239 497M2195 445L2247 512M2292 463L2360 421M2292 463L2239 497M2292 463L2247 512M2292 463L2349 544M2462 451L2477 510M2462 451L2508 530M2553 471L2573 518M2553 471L2477 510M2553 471L2508 530M-7 471L13 518M13 518L-52 530M13 518L57 599M13 518L-17 568M2573 518L2508 530M2573 518L2543 568M121 505L232 480M121 505L95 584M232 480L317 488M317 488L367 538M367 538L306 621M367 538L391 607M473 529L495 520M473 529L472 603M495 520L572 548M495 520L472 603M495 520L526 612M572 548L526 612M572 548L602 586M572 548L659 583M688 527L750 503M688 527L602 586M688 527L659 583M688 527L756 623M750 503L850 482M850 482L889 504M850 482L968 505M889 504L968 505M968 505L945 601M1100 538L1168 549M1100 538L1212 496M1100 538L1085 630M1100 538L1124 626M1168 549L1212 496M1168 549L1124 626M1351 518L1440 560M1351 518L1424 569M1440 560L1506 543M1440 560L1424 569M1440 560L1478 610M1506 543L1566 489M1506 543L1478 610M1506 543L1524 634M1566 489L1612 530M1566 489L1626 569M1612 530L1626 569M1712 517L1626 569M1712 517L1701 598M1815 508L1839 596M1815 508L1868 580M1895 537L1938 555M1895 537L1839 596M1895 537L1868 580M1895 537L1932 567M1938 555L2004 499M1938 555L1868 580M1938 555L1932 567M1938 555L1939 653M2004 499L2060 580M2126 486L2239 497M2126 486L2060 580M2126 486L2156 579M2239 497L2247 512M2349 544L2319 568M2349 544L2358 561M2349 544L2409 581M2477 510L2508 530M2477 510L2409 581M2477 510L2543 568M2508 530L2543 568M57 599L95 584M57 599L-17 568M57 599L62 677M57 599L116 658M2617 599L2543 568M95 584L62 677M95 584L116 658M229 624L306 621M229 624L185 710M229 624L309 714M306 621L391 607M306 621L309 714M306 621L349 671M391 607L472 603M391 607L349 671M472 603L526 612M472 603L452 705M526 612L602 586M526 612L605 653M602 586L659 583M602 586L605 653M659 583L605 653M756 623L712 673M871 627L945 601M871 627L967 638M871 627L914 676M871 627L859 725M945 601L967 638M945 601L914 676M945 601L1004 668M967 638L914 676M967 638L1004 668M967 638L955 723M1085 630L1124 626M1085 630L1004 668M1085 630L1043 716M1085 630L1174 658M1124 626L1208 639M1124 626L1174 658M1208 639L1294 634M1208 639L1174 658M1208 639L1211 699M1208 639L1303 677M1294 634L1303 677M1424 569L1478 610M1424 569L1431 674M1478 610L1524 634M1478 610L1484 687M1524 634L1431 674M1524 634L1484 687M1524 634L1583 709M1626 569L1701 598M1701 598L1653 675M1701 598L1755 646M1701 598L1810 648M1839 596L1868 580M1839 596L1755 646M1839 596L1810 648M1868 580L1932 567M1932 567L1939 653M2060 580L2156 579M2060 580L2183 630M2156 579L2183 630M2183 630L2163 717M2319 568L2358 561M2319 568L2409 581M2319 568L2315 654M2358 561L2409 581M2358 561L2315 654M2358 561L2376 645M2409 581L2376 645M2543 568L2530 659M62 677L116 658M62 677L-30 659M62 677L-4 729M2622 677L2530 659M2622 677L2556 729M116 658L185 710M116 658L132 738M185 710L132 738M185 710L168 767M185 710L250 764M309 714L349 671M309 714L250 764M309 714L383 771M349 671L383 771M452 705L525 719M452 705L383 771M452 705L477 733M452 705L518 768M525 719L605 653M525 719L477 733M525 719L518 768M525 719L631 726M605 653L631 726M712 673L753 716M712 673L813 716M712 673L631 726M712 673L751 732M753 716L813 716M753 716L718 797M753 716L751 732M753 716L778 803M813 716L751 732M813 716L859 725M813 716L778 803M914 676L859 725M914 676L955 723M1004 668L1043 716M1004 668L955 723M1043 716L966 756M1043 716L1114 751M1174 658L1211 699M1174 658L1159 730M1211 699L1303 677M1211 699L1159 730M1211 699L1258 754M1303 677L1258 754M1431 674L1484 687M1431 674L1377 756M1431 674L1445 744M1484 687L1583 709M1484 687L1445 744M1583 709L1653 675M1583 709L1597 798M1583 709L1637 778M1653 675L1755 646M1653 675L1637 778M1653 675L1728 721M1755 646L1810 648M1755 646L1728 721M1810 648L1887 674M1810 648L1728 721M1887 674L1939 653M1887 674L1885 788M1939 653L1991 737M2052 717L2081 717M2052 717L2163 717M2052 717L1991 737M2052 717L2049 777M2081 717L2163 717M2081 717L1991 737M2081 717L2049 777M2081 717L2131 762M2163 717L2131 762M2163 717L2176 796M2315 654L2376 645M2315 654L2418 679M2315 654L2368 727M2376 645L2418 679M2376 645L2368 727M2418 679L2530 659M2418 679L2368 727M2418 679L2462 761M2530 659L2556 729M66 772L132 738M66 772L-4 729M66 772L120 859M66 772L-2 808M2626 772L2556 729M2626 772L2558 808M132 738L168 767M168 767L250 764M168 767L205 827M250 764L205 827M250 764L254 873M383 771L477 733M383 771L441 846M477 733L518 768M518 768L489 858M631 726L623 833M718 797L751 732M718 797L664 849M718 797L778 803M718 797L684 885M751 732L778 803M859 725L955 723M859 725L890 816M955 723L966 756M966 756L890 816M966 756L1022 829M966 756L1047 836M1114 751L1159 730M1114 751L1022 829M1114 751L1047 836M1159 730L1258 754M1258 754L1335 781M1258 754L1260 843M1335 781L1377 756M1335 781L1260 843M1335 781L1342 849M1335 781L1407 809M1377 756L1445 744M1377 756L1342 849M1377 756L1407 809M1445 744L1407 809M1445 744L1480 807M1597 798L1637 778M1597 798L1480 807M1597 798L1598 853M1597 798L1603 844M1637 778L1598 853M1637 778L1603 844M1728 721L1804 796M1728 721L1755 813M1804 796L1885 788M1804 796L1755 813M1804 796L1826 850M1804 796L1884 851M1885 788L1826 850M1885 788L1884 851M1885 788L1963 801M1991 737L2049 777M1991 737L1963 801M2049 777L2131 762M2049 777L1963 801M2131 762L2176 796M2176 796L2133 856M2176 796L2215 859M2176 796L2274 835M2309 766L2368 727M2309 766L2274 835M2368 727L2462 761M2462 761L2556 729M2462 761L2465 818M2556 729L2558 808M56 877L120 859M56 877L-2 808M56 877L38 907M56 877L-6 900M56 877L37 962M2616 877L2558 808M2616 877L2554 900M120 859L205 827M120 859L38 907M120 859L160 956M205 827L254 873M254 873L348 876M254 873L184 954M254 873L286 956M348 876L441 846M348 876L286 956M348 876L366 943M348 876L413 882M441 846L489 858M441 846L413 882M441 846L514 881M489 858L413 882M489 858L514 881M623 833L664 849M623 833L614 899M623 833L684 885M664 849L614 899M664 849L684 885M778 803L781 892M880 874L890 816M880 874L781 892M880 874L846 922M880 874L895 894M880 874L798 966M890 816L895 894M1022 829L1047 836M1022 829L996 948M1178 877L1166 922M1260 843L1342 849M1260 843L1255 931M1260 843L1307 886M1342 849L1407 809M1342 849L1307 886M1407 809L1480 807M1480 807L1504 886M1598 853L1603 844M1598 853L1504 886M1598 853L1654 944M1603 844L1504 886M1755 813L1826 850M1755 813L1724 890M1826 850L1884 851M1826 850L1868 914M1884 851L1963 801M1884 851L1868 914M1963 801L2055 876M2055 876L2133 856M2055 876L2020 932M2055 876L2104 891M2055 876L2065 962M2133 856L2215 859M2133 856L2104 891M2133 856L2205 915M2215 859L2274 835M2215 859L2205 915M2274 835L2356 872M2274 835L2305 922M2356 872L2465 818M2356 872L2305 922M2356 872L2383 929M2356 872L2405 918M2465 818L2558 808M2465 818L2405 918M2558 808L2554 900M38 907L-6 900M38 907L37 962M38 907L-23 996M2598 907L2554 900M2598 907L2537 996M160 956L184 954M160 956L122 1017M160 956L179 994M184 954L286 956M184 954L122 1017M184 954L179 994M286 956L366 943M286 956L277 999M366 943L413 882M366 943L382 1023M366 943L403 1027M413 882L514 881M514 881L614 899M514 881L544 976M614 899L684 885M614 899L544 976M684 885L781 892M781 892L846 922M781 892L798 966M846 922L895 894M846 922L798 966M846 922L809 1012M996 948L1056 947M996 948L910 1022M996 948L1013 979M1056 947L1166 922M1056 947L1013 979M1056 947L1080 1017M1056 947L1158 976M1166 922L1255 931M1166 922L1158 976M1166 922L1206 1016M1255 931L1307 886M1255 931L1158 976M1255 931L1206 1016M1424 936L1504 886M1424 936L1388 985M1424 936L1460 1012M1504 886L1545 954M1545 954L1460 1012M1545 954L1567 993M1545 954L1617 988M1654 944L1724 890M1654 944L1567 993M1654 944L1617 988M1654 944L1688 1015M1724 890L1822 946M1724 890L1815 971M1822 946L1868 914M1822 946L1815 971M1822 946L1875 1023M1868 914L1815 971M1970 946L2020 932M1970 946L1973 999M2020 932L2104 891M2020 932L1973 999M2020 932L2065 962M2104 891L2205 915M2104 891L2065 962M2305 922L2383 929M2305 922L2405 918M2305 922L2302 981M2383 929L2405 918M2383 929L2302 981M2405 918L2478 1000M2554 900L2597 962M2554 900L2537 996M-6 900L37 962M37 962L-23 996M2597 962L2537 996M122 1017L179 994M122 1017L145 1124M179 994L277 999M277 999L382 1023M277 999L276 1107M382 1023L403 1027M382 1023L394 1065M382 1023L405 1078M403 1027L394 1065M403 1027L405 1078M544 976L585 1020M544 976L544 1072M544 976L587 1063M585 1020L544 1072M585 1020L587 1063M707 993L798 966M707 993L712 1047M798 966L809 1012M809 1012L910 1022M809 1012L797 1095M809 1012L872 1049M910 1022L872 1049M910 1022L944 1065M910 1022L902 1132M1013 979L1080 1017M1080 1017L1158 976M1080 1017L1027 1093M1080 1017L1103 1093M1158 976L1206 1016M1206 1016L1232 1081M1339 1032L1388 985M1339 1032L1283 1082M1339 1032L1370 1073M1388 985L1460 1012M1388 985L1370 1073M1460 1012L1370 1073M1460 1012L1515 1084M1567 993L1617 988M1567 993L1515 1084M1567 993L1623 1044M1617 988L1688 1015M1617 988L1623 1044M1688 1015L1623 1044M1688 1015L1710 1069M1815 971L1875 1023M1815 971L1796 1072M1875 1023L1796 1072M1875 1023L1901 1099M1875 1023L1965 1052M1973 999L2065 962M1973 999L1965 1052M1973 999L2010 1061M2065 962L2124 1004M2124 1004L2204 1038M2124 1004L2135 1107M2204 1038L2302 981M2204 1038L2135 1107M2204 1038L2222 1096M2204 1038L2272 1106M2302 981L2338 1035M2338 1035L2272 1106M2338 1035L2398 1087M2478 1000L2537 996M2478 1000L2526 1094M2537 996L2526 1094M5 1113L93 1119M5 1113L-34 1094M5 1113L75 1140M5 1113L-27 1182M2565 1113L2526 1094M2565 1113L2533 1182M93 1119L165 1112M93 1119L75 1140M93 1119L145 1124M93 1119L171 1156M165 1112L75 1140M165 1112L145 1124M165 1112L171 1156M276 1107L276 1194M394 1065L405 1078M394 1065L467 1144M405 1078L388 1173M405 1078L467 1144M544 1072L587 1063M544 1072L525 1132M587 1063L525 1132M587 1063L637 1132M712 1047L797 1095M712 1047L682 1124M797 1095L872 1049M797 1095L725 1154M797 1095L814 1128M872 1049L944 1065M872 1049L902 1132M944 1065L1027 1093M944 1065L902 1132M944 1065L1007 1165M1027 1093L1103 1093M1027 1093L1007 1165M1027 1093L1051 1154M1103 1093L1139 1094M1103 1093L1051 1154M1139 1094L1232 1081M1139 1094L1142 1192M1232 1081L1283 1082M1232 1081L1236 1151M1283 1082L1370 1073M1283 1082L1236 1151M1283 1082L1324 1146M1370 1073L1324 1146M1515 1084L1562 1114M1515 1084L1476 1157M1515 1084L1579 1135M1562 1114L1623 1044M1562 1114L1476 1157M1562 1114L1579 1135M1562 1114L1623 1168M1623 1044L1710 1069M1710 1069L1796 1072M1710 1069L1713 1147M1796 1072L1788 1162M1901 1099L1965 1052M1901 1099L1861 1181M1901 1099L1958 1139M1901 1099L1919 1200M1965 1052L2010 1061M1965 1052L1958 1139M2135 1107L2222 1096M2135 1107L2133 1170M2135 1107L2169 1171M2222 1096L2272 1106M2222 1096L2169 1171M2272 1106L2288 1200M2398 1087L2414 1119M2398 1087L2367 1180M2414 1119L2367 1180M2414 1119L2447 1166M2526 1094L2533 1182M75 1140L145 1124M75 1140L171 1156M145 1124L171 1156M171 1156L230 1235M276 1194L230 1235M276 1194L299 1237M276 1194L353 1213M276 1194L256 1300M388 1173L467 1144M388 1173L353 1213M388 1173L400 1220M467 1144L525 1132M467 1144L400 1220M525 1132L568 1215M637 1132L682 1124M637 1132L725 1154M637 1132L653 1203M682 1124L725 1154M682 1124L653 1203M725 1154L814 1128M725 1154L653 1203M814 1128L902 1132M814 1128L822 1208M902 1132L1007 1165M1007 1165L1051 1154M1007 1165L1011 1247M1051 1154L1011 1247M1142 1192L1075 1277M1142 1192L1180 1203M1142 1192L1200 1254M1236 1151L1324 1146M1236 1151L1180 1203M1236 1151L1200 1254M1324 1146L1397 1197M1324 1146L1338 1220M1397 1197L1476 1157M1397 1197L1338 1220M1397 1197L1371 1273M1397 1197L1467 1286M1476 1157L1579 1135M1476 1157L1508 1236M1579 1135L1623 1168M1579 1135L1590 1219M1623 1168L1713 1147M1623 1168L1590 1219M1623 1168L1629 1216M1713 1147L1788 1162M1713 1147L1629 1216M1713 1147L1740 1204M1788 1162L1861 1181M1788 1162L1740 1204M1861 1181L1830 1270M1861 1181L1919 1200M1861 1181L1926 1237M1958 1139L2046 1199M1958 1139L1919 1200M1958 1139L2011 1215M2046 1199L2133 1170M2046 1199L2011 1215M2133 1170L2169 1171M2133 1170L2159 1264M2169 1171L2159 1264M2169 1171L2228 1240M2288 1200L2367 1180M2288 1200L2228 1240M2288 1200L2290 1277M2367 1180L2447 1166M2367 1180L2396 1235M2447 1166L2533 1182M2447 1166L2396 1235M2447 1166L2494 1222M2533 1182L2583 1237M2533 1182L2494 1222M-27 1182L23 1237M23 1237L134 1249M23 1237L-66 1222M23 1237L79 1349M23 1237L-30 1305M2583 1237L2494 1222M2583 1237L2530 1305M134 1249L79 1349M134 1249L125 1292M134 1249L208 1289M230 1235L299 1237M230 1235L208 1289M230 1235L256 1300M299 1237L353 1213M299 1237L400 1220M299 1237L256 1300M353 1213L400 1220M400 1220L492 1279M492 1279L568 1215M492 1279L450 1339M492 1279L513 1301M492 1279L502 1380M568 1215L653 1203M568 1215L513 1301M568 1215L612 1295M653 1203L659 1301M767 1247L822 1208M767 1247L659 1301M767 1247L773 1338M822 1208L886 1261M886 1261L893 1330M1011 1247L1075 1277M1011 1247L1001 1300M1075 1277L1001 1300M1075 1277L1070 1344M1180 1203L1200 1254M1200 1254L1198 1344M1200 1254L1226 1337M1338 1220L1371 1273M1371 1273L1293 1344M1371 1273L1392 1343M1371 1273L1467 1286M1508 1236L1590 1219M1508 1236L1467 1286M1508 1236L1544 1321M1590 1219L1629 1216M1590 1219L1544 1321M1629 1216L1740 1204M1629 1216L1688 1288M1740 1204L1688 1288M1830 1270L1926 1237M1830 1270L1808 1351M1830 1270L1910 1300M1919 1200L1926 1237M1919 1200L2011 1215M1926 1237L2011 1215M1926 1237L1910 1300M2159 1264L2228 1240M2159 1264L2103 1322M2159 1264L2225 1319M2228 1240L2290 1277M2228 1240L2225 1319M2290 1277L2225 1319M2290 1277L2269 1360M2290 1277L2335 1289M2396 1235L2405 1277M2396 1235L2335 1289M2396 1235L2423 1290M2405 1277L2335 1289M2405 1277L2423 1290M2494 1222L2423 1290M2494 1222L2530 1305M79 1349L125 1292M79 1349L26 1370M79 1349L81 1429M125 1292L208 1289M208 1289L256 1300M256 1300L253 1415M396 1341L450 1339M396 1341L369 1413M396 1341L401 1398M450 1339L513 1301M450 1339L401 1398M450 1339L502 1380M513 1301L612 1295M513 1301L502 1380M612 1295L659 1301M612 1295L654 1379M659 1301L773 1338M659 1301L654 1379M773 1338L805 1359M773 1338L780 1369M773 1338L827 1385M805 1359L893 1330M805 1359L780 1369M805 1359L827 1385M893 1330L827 1385M893 1330L929 1380M1001 1300L1070 1344M1001 1300L1026 1377M1070 1344L1026 1377M1070 1344L1093 1396M1070 1344L1146 1403M1198 1344L1226 1337M1198 1344L1293 1344M1198 1344L1146 1403M1226 1337L1293 1344M1226 1337L1260 1429M1293 1344L1260 1429M1293 1344L1305 1385M1392 1343L1467 1286M1392 1343L1369 1410M1467 1286L1544 1321M1544 1321L1496 1414M1544 1321L1549 1369M1679 1358L1688 1288M1679 1358L1808 1351M1679 1358L1670 1430M1679 1358L1715 1412M1808 1351L1715 1412M1808 1351L1813 1398M1808 1351L1908 1373M1910 1300L1988 1332M1910 1300L1908 1373M1988 1332L2030 1356M1988 1332L1949 1416M2030 1356L2103 1322M2030 1356L1949 1416M2030 1356L2053 1426M2030 1356L2120 1415M2103 1322L2120 1415M2103 1322L2192 1396M2225 1319L2269 1360M2225 1319L2299 1363M2269 1360L2335 1289M2269 1360L2192 1396M2269 1360L2299 1363M2335 1289L2299 1363M2423 1290L2485 1372M2530 1305L2586 1370M2530 1305L2485 1372M-30 1305L26 1370M26 1370L81 1429M26 1370L-75 1372M2586 1370L2485 1372M224 1427L253 1415M253 1415L369 1413M369 1413L401 1398M502 1380L578 1439M578 1439L654 1379M780 1369L827 1385M827 1385L929 1380M929 1380L1026 1377M1026 1377L1093 1396M1093 1396L1146 1403M1260 1429L1305 1385M1305 1385L1369 1410M1369 1410L1496 1414M1496 1414L1549 1369M1670 1430L1715 1412M1715 1412L1813 1398M1813 1398L1908 1373M1908 1373L1949 1416M1949 1416L2053 1426M2053 1426L2120 1415M2120 1415L2192 1396M2192 1396L2299 1363M2299 1363L2383 1389M2383 1389L2438 1413M2383 1389L2485 1372M2438 1413L2485 1372"/></svg>