<svg xmlns="http://www.w3.org/2000/svg" width="2560" height="1440" fill="#fff"><circle cx="26" cy="3" r="4"/><circle cx="26" cy="1443" r="4"/><circle cx="113" cy="15" r="4"/><circle cx="203" cy="21" r="6"/><circle cx="292" cy="25" r="5"/><circle cx="390" cy="27" r="4"/><circle cx="429" cy="3" r="6"/><circle cx="429" cy="1443" r="6"/><circle cx="505" cy="53" r="5"/><circle cx="634" cy="57" r="6"/><circle cx="644" cy="14" r="6"/><circle cx="727" cy="74" r="4"/><circle cx="863" cy="41" r="5"/><circle cx="938" cy="67" r="5"/><circle cx="978" cy="30" r="4"/><circle cx="1110" cy="27" r="4"/><circle cx="1134" cy="51" r="5"/><circle cx="1237" cy="58" r="6"/><circle cx="1303" cy="45" r="5"/><circle cx="1430" cy="22" r="4"/><circle cx="1488" cy="67" r="4"/><circle cx="1536" cy="12" r="4"/><circle cx="1643" cy="50" r="5"/><circle cx="1711" cy="40" r="6"/><circle cx="1801" cy="48" r="5"/><circle cx="1881" cy="18" r="4"/><circle cx="1992" cy="3" r="6"/><circle cx="1992" cy="1443" r="6"/><circle cx="2070" cy="62" r="4"/><circle cx="2099" cy="9" r="5"/><circle cx="2172" cy="2" r="5"/><circle cx="2172" cy="1442" r="5"/><circle cx="2276" cy="59" r="5"/><circle cx="2357" cy="8" r="6"/><circle cx="2413" cy="69" r="5"/><circle cx="2557" cy="43" r="5"/><circle cx="-3" cy="43" r="5"/><circle cx="17" cy="105" r="5"/><circle cx="116" cy="151" r="5"/><circle cx="175" cy="135" r="5"/><circle cx="280" cy="148" r="5"/><circle cx="334" cy="147" r="5"/><circle cx="410" cy="142" r="5"/><circle cx="481" cy="112" r="4"/><circle cx="563" cy="139" r="5"/><circle cx="660" cy="153" r="5"/><circle cx="730" cy="141" r="6"/><circle cx="821" cy="106" r="5"/><circle cx="895" cy="137" r="5"/><circle cx="1039" cy="81" r="5"/><circle cx="1115" cy="86" r="5"/><circle cx="1125" cy="115" r="6"/><circle cx="1253" cy="147" r="6"/><circle cx="1347" cy="131" r="5"/><circle cx="1411" cy="121" r="4"/><circle cx="1510" cy="98" r="6"/><circle cx="1598" cy="96" r="6"/><circle cx="1617" cy="83" r="6"/><circle cx="1704" cy="157" r="5"/><circle cx="1839" cy="93" r="4"/><circle cx="1913" cy="118" r="5"/><circle cx="1992" cy="84" r="4"/><circle cx="2075" cy="148" r="4"/><circle cx="2158" cy="132" r="5"/><circle cx="2227" cy="139" r="6"/><circle cx="2291" cy="131" r="5"/><circle cx="2324" cy="160" r="6"/><circle cx="2466" cy="137" r="6"/><circle cx="2546" cy="156" r="5"/><circle cx="3" cy="192" r="5"/><circle cx="2563" cy="192" r="5"/><circle cx="105" cy="170" r="5"/><circle cx="200" cy="191" r="4"/><circle cx="294" cy="190" r="5"/><circle cx="342" cy="181" r="5"/><circle cx="431" cy="191" r="6"/><circle cx="525" cy="226" r="5"/><circle cx="602" cy="179" r="5"/><circle cx="663" cy="220" r="6"/><circle cx="766" cy="192" r="5"/><circle cx="874" cy="199" r="6"/><circle cx="893" cy="189" r="4"/><circle cx="996" cy="199" r="4"/><circle cx="1081" cy="227" r="4"/><circle cx="1195" cy="228" r="6"/><circle cx="1225" cy="193" r="5"/><circle cx="1348" cy="195" r="5"/><circle cx="1414" cy="220" r="6"/><circle cx="1514" cy="213" r="4"/><circle cx="1571" cy="176" r="5"/><circle cx="1656" cy="196" r="6"/><circle cx="1697" cy="229" r="6"/><circle cx="1820" cy="197" r="5"/><circle cx="1865" cy="185" r="5"/><circle cx="1992" cy="198" r="5"/><circle cx="2037" cy="222" r="6"/><circle cx="2152" cy="240" r="5"/><circle cx="2223" cy="165" r="6"/><circle cx="2287" cy="169" r="5"/><circle cx="2349" cy="217" r="4"/><circle cx="2444" cy="185" r="4"/><circle cx="2495" cy="171" r="5"/><circle cx="32" cy="250" r="5"/><circle cx="90" cy="309" r="5"/><circle cx="209" cy="272" r="5"/><circle cx="294" cy="285" r="5"/><circle cx="370" cy="283" r="5"/><circle cx="411" cy="268" r="5"/><circle cx="548" cy="286" r="6"/><circle cx="599" cy="278" r="6"/><circle cx="718" cy="265" r="6"/><circle cx="736" cy="307" r="6"/><circle cx="850" cy="254" r="4"/><circle cx="927" cy="294" r="5"/><circle cx="1006" cy="264" r="5"/><circle cx="1116" cy="304" r="4"/><circle cx="1139" cy="311" r="5"/><circle cx="1227" cy="303" r="6"/><circle cx="1333" cy="247" r="5"/><circle cx="1378" cy="312" r="5"/><circle cx="1476" cy="292" r="5"/><circle cx="1592" cy="306" r="4"/><circle cx="1647" cy="282" r="5"/><circle cx="1744" cy="303" r="6"/><circle cx="1818" cy="275" r="5"/><circle cx="1877" cy="269" r="5"/><circle cx="1957" cy="265" r="4"/><circle cx="2033" cy="241" r="4"/><circle cx="2088" cy="299" r="6"/><circle cx="2200" cy="283" r="5"/><circle cx="2249" cy="313" r="5"/><circle cx="2348" cy="240" r="4"/><circle cx="2414" cy="271" r="5"/><circle cx="2509" cy="287" r="5"/><circle cx="68" cy="335" r="4"/><circle cx="81" cy="372" r="5"/><circle cx="236" cy="378" r="5"/><circle cx="282" cy="381" r="4"/><circle cx="392" cy="399" r="5"/><circle cx="456" cy="387" r="4"/><circle cx="501" cy="388" r="4"/><circle cx="632" cy="347" r="5"/><circle cx="673" cy="356" r="5"/><circle cx="749" cy="350" r="6"/><circle cx="829" cy="360" r="6"/><circle cx="895" cy="344" r="5"/><circle cx="966" cy="368" r="6"/><circle cx="1046" cy="350" r="6"/><circle cx="1139" cy="384" r="5"/><circle cx="1256" cy="361" r="5"/><circle cx="1296" cy="390" r="5"/><circle cx="1413" cy="348" r="4"/><circle cx="1490" cy="352" r="4"/><circle cx="1550" cy="389" r="5"/><circle cx="1664" cy="373" r="5"/><circle cx="1700" cy="391" r="6"/><circle cx="1798" cy="341" r="6"/><circle cx="1853" cy="399" r="5"/><circle cx="1982" cy="364" r="4"/><circle cx="2002" cy="374" r="4"/><circle cx="2103" cy="377" r="4"/><circle cx="2192" cy="368" r="5"/><circle cx="2286" cy="322" r="5"/><circle cx="2341" cy="338" r="4"/><circle cx="2435" cy="325" r="6"/><circle cx="2491" cy="378" r="4"/><circle cx="49" cy="431" r="5"/><circle cx="101" cy="478" r="5"/><circle cx="228" cy="460" r="4"/><circle cx="290" cy="474" r="5"/><circle cx="330" cy="474" r="4"/><circle cx="470" cy="479" r="5"/><circle cx="549" cy="466" r="4"/><circle cx="618" cy="400" r="5"/><circle cx="701" cy="465" r="4"/><circle cx="742" cy="474" r="5"/><circle cx="860" cy="438" r="6"/><circle cx="938" cy="472" r="4"/><circle cx="1001" cy="468" r="5"/><circle cx="1066" cy="477" r="5"/><circle cx="1127" cy="405" r="5"/><circle cx="1213" cy="459" r="6"/><circle cx="1289" cy="468" r="5"/><circle cx="1368" cy="445" r="5"/><circle cx="1480" cy="478" r="5"/><circle cx="1585" cy="409" r="4"/><circle cx="1620" cy="408" r="5"/><circle cx="1698" cy="451" r="5"/><circle cx="1822" cy="435" r="5"/><circle cx="1889" cy="451" r="5"/><circle cx="1957" cy="434" r="4"/><circle cx="2056" cy="466" r="5"/><circle cx="2155" cy="436" r="5"/><circle cx="2171" cy="413" r="5"/><circle cx="2310" cy="422" r="5"/><circle cx="2397" cy="424" r="4"/><circle cx="2439" cy="422" r="5"/><circle cx="2484" cy="409" r="5"/><circle cx="26" cy="506" r="4"/><circle cx="96" cy="505" r="5"/><circle cx="229" cy="500" r="5"/><circle cx="317" cy="557" r="5"/><circle cx="332" cy="543" r="6"/><circle cx="454" cy="547" r="5"/><circle cx="528" cy="496" r="5"/><circle cx="591" cy="543" r="5"/><circle cx="713" cy="547" r="6"/><circle cx="791" cy="507" r="6"/><circle cx="851" cy="485" r="5"/><circle cx="942" cy="549" r="5"/><circle cx="1009" cy="484" r="4"/><circle cx="1105" cy="520" r="5"/><circle cx="1198" cy="483" r="4"/><circle cx="1266" cy="488" r="4"/><circle cx="1311" cy="520" r="4"/><circle cx="1372" cy="499" r="6"/><circle cx="1475" cy="529" r="4"/><circle cx="1521" cy="515" r="5"/><circle cx="1626" cy="509" r="6"/><circle cx="1716" cy="515" r="5"/><circle cx="1796" cy="508" r="4"/><circle cx="1891" cy="532" r="4"/><circle cx="1948" cy="484" r="6"/><circle cx="2020" cy="519" r="5"/><circle cx="2090" cy="524" r="6"/><circle cx="2161" cy="491" r="5"/><circle cx="2316" cy="496" r="5"/><circle cx="2391" cy="538" r="5"/><circle cx="2422" cy="522" r="5"/><circle cx="2512" cy="495" r="5"/><circle cx="20" cy="571" r="4"/><circle cx="154" cy="565" r="5"/><circle cx="217" cy="631" r="5"/><circle cx="277" cy="608" r="4"/><circle cx="363" cy="591" r="5"/><circle cx="452" cy="561" r="4"/><circle cx="523" cy="584" r="4"/><circle cx="605" cy="634" r="5"/><circle cx="682" cy="603" r="6"/><circle cx="739" cy="576" r="6"/><circle cx="825" cy="565" r="5"/><circle cx="925" cy="604" r="6"/><circle cx="1033" cy="603" r="6"/><circle cx="1119" cy="608" r="5"/><circle cx="1152" cy="587" r="5"/><circle cx="1269" cy="632" r="5"/><circle cx="1359" cy="614" r="5"/><circle cx="1377" cy="638" r="4"/><circle cx="1481" cy="564" r="5"/><circle cx="1589" cy="616" r="5"/><circle cx="1602" cy="625" r="5"/><circle cx="1719" cy="581" r="6"/><circle cx="1770" cy="613" r="6"/><circle cx="1901" cy="588" r="4"/><circle cx="1964" cy="562" r="5"/><circle cx="2030" cy="605" r="5"/><circle cx="2137" cy="630" r="5"/><circle cx="2229" cy="606" r="5"/><circle cx="2320" cy="626" r="6"/><circle cx="2344" cy="587" r="5"/><circle cx="2459" cy="612" r="4"/><circle cx="2552" cy="594" r="5"/><circle cx="30" cy="664" r="6"/><circle cx="98" cy="686" r="6"/><circle cx="200" cy="707" r="4"/><circle cx="277" cy="680" r="5"/><circle cx="334" cy="641" r="5"/><circle cx="404" cy="648" r="5"/><circle cx="528" cy="666" r="5"/><circle cx="634" cy="676" r="5"/><circle cx="645" cy="678" r="5"/><circle cx="722" cy="687" r="5"/><circle cx="815" cy="655" r="6"/><circle cx="928" cy="669" r="6"/><circle cx="1008" cy="693" r="5"/><circle cx="1048" cy="708" r="4"/><circle cx="1163" cy="666" r="6"/><circle cx="1203" cy="680" r="4"/><circle cx="1356" cy="718" r="5"/><circle cx="1408" cy="655" r="6"/><circle cx="1514" cy="674" r="5"/><circle cx="1525" cy="719" r="5"/><circle cx="1643" cy="702" r="4"/><circle cx="1707" cy="680" r="5"/><circle cx="1769" cy="642" r="5"/><circle cx="1868" cy="647" r="5"/><circle cx="1966" cy="692" r="5"/><circle cx="2042" cy="716" r="5"/><circle cx="2092" cy="641" r="5"/><circle cx="2161" cy="719" r="6"/><circle cx="2292" cy="706" r="5"/><circle cx="2377" cy="662" r="4"/><circle cx="2469" cy="717" r="5"/><circle cx="2481" cy="709" r="6"/><circle cx="57" cy="725" r="5"/><circle cx="97" cy="797" r="4"/><circle cx="221" cy="779" r="6"/><circle cx="299" cy="777" r="5"/><circle cx="370" cy="795" r="5"/><circle cx="401" cy="746" r="4"/><circle cx="490" cy="731" r="4"/><circle cx="582" cy="786" r="5"/><circle cx="699" cy="751" r="5"/><circle cx="761" cy="788" r="5"/><circle cx="821" cy="782" r="4"/><circle cx="944" cy="727" r="6"/><circle cx="1005" cy="750" r="6"/><circle cx="1093" cy="758" r="4"/><circle cx="1172" cy="785" r="5"/><circle cx="1240" cy="722" r="4"/><circle cx="1308" cy="743" r="6"/><circle cx="1372" cy="787" r="4"/><circle cx="1443" cy="726" r="5"/><circle cx="1599" cy="744" r="5"/><circle cx="1605" cy="768" r="5"/><circle cx="1733" cy="720" r="6"/><circle cx="1797" cy="727" r="6"/><circle cx="1906" cy="759" r="6"/><circle cx="1990" cy="767" r="6"/><circle cx="2025" cy="771" r="4"/><circle cx="2104" cy="759" r="5"/><circle cx="2208" cy="778" r="4"/><circle cx="2301" cy="776" r="6"/><circle cx="2348" cy="788" r="4"/><circle cx="2467" cy="756" r="6"/><circle cx="2524" cy="751" r="6"/><circle cx="25" cy="867" r="4"/><circle cx="122" cy="853" r="5"/><circle cx="236" cy="861" r="4"/><circle cx="309" cy="862" r="4"/><circle cx="353" cy="851" r="5"/><circle cx="422" cy="846" r="4"/><circle cx="497" cy="875" r="4"/><circle cx="586" cy="861" r="5"/><circle cx="713" cy="866" r="6"/><circle cx="766" cy="848" r="6"/><circle cx="832" cy="805" r="5"/><circle cx="911" cy="878" r="5"/><circle cx="1003" cy="807" r="5"/><circle cx="1041" cy="809" r="5"/><circle cx="1139" cy="841" r="6"/><circle cx="1266" cy="825" r="5"/><circle cx="1347" cy="803" r="6"/><circle cx="1367" cy="804" r="4"/><circle cx="1498" cy="828" r="6"/><circle cx="1588" cy="865" r="6"/><circle cx="1637" cy="876" r="6"/><circle cx="1702" cy="875" r="6"/><circle cx="1820" cy="819" r="5"/><circle cx="1904" cy="831" r="6"/><circle cx="1967" cy="801" r="4"/><circle cx="2076" cy="816" r="5"/><circle cx="2100" cy="841" r="5"/><circle cx="2229" cy="847" r="5"/><circle cx="2291" cy="803" r="4"/><circle cx="2376" cy="812" r="4"/><circle cx="2406" cy="803" r="5"/><circle cx="2490" cy="828" r="4"/><circle cx="22" cy="907" r="5"/><circle cx="138" cy="953" r="4"/><circle cx="162" cy="882" r="6"/><circle cx="243" cy="896" r="6"/><circle cx="323" cy="914" r="4"/><circle cx="450" cy="926" r="4"/><circle cx="526" cy="939" r="5"/><circle cx="615" cy="947" r="4"/><circle cx="676" cy="913" r="5"/><circle cx="737" cy="902" r="5"/><circle cx="840" cy="903" r="6"/><circle cx="900" cy="942" r="4"/><circle cx="1028" cy="901" r="4"/><circle cx="1096" cy="953" r="6"/><circle cx="1142" cy="923" r="5"/><circle cx="1217" cy="917" r="6"/><circle cx="1322" cy="922" r="5"/><circle cx="1368" cy="957" r="5"/><circle cx="1500" cy="939" r="6"/><circle cx="1541" cy="903" r="4"/><circle cx="1623" cy="913" r="6"/><circle cx="1731" cy="927" r="5"/><circle cx="1764" cy="950" r="6"/><circle cx="1893" cy="958" r="5"/><circle cx="1926" cy="924" r="5"/><circle cx="2035" cy="926" r="6"/><circle cx="2111" cy="888" r="6"/><circle cx="2183" cy="912" r="5"/><circle cx="2278" cy="882" r="5"/><circle cx="2350" cy="952" r="5"/><circle cx="2424" cy="953" r="6"/><circle cx="2494" cy="947" r="5"/><circle cx="67" cy="988" r="4"/><circle cx="134" cy="979" r="6"/><circle cx="222" cy="991" r="6"/><circle cx="280" cy="1009" r="5"/><circle cx="370" cy="1009" r="4"/><circle cx="478" cy="1025" r="5"/><circle cx="506" cy="1002" r="5"/><circle cx="584" cy="960" r="5"/><circle cx="673" cy="999" r="5"/><circle cx="766" cy="1031" r="4"/><circle cx="875" cy="1002" r="5"/><circle cx="943" cy="1007" r="5"/><circle cx="1035" cy="1016" r="6"/><circle cx="1072" cy="1008" r="5"/><circle cx="1131" cy="1017" r="4"/><circle cx="1201" cy="1001" r="6"/><circle cx="1300" cy="971" r="5"/><circle cx="1416" cy="1023" r="5"/><circle cx="1504" cy="992" r="5"/><circle cx="1581" cy="993" r="5"/><circle cx="1619" cy="1001" r="4"/><circle cx="1757" cy="1015" r="4"/><circle cx="1840" cy="976" r="5"/><circle cx="1897" cy="1037" r="5"/><circle cx="1956" cy="965" r="4"/><circle cx="2068" cy="973" r="6"/><circle cx="2150" cy="974" r="6"/><circle cx="2213" cy="968" r="5"/><circle cx="2307" cy="979" r="5"/><circle cx="2379" cy="995" r="6"/><circle cx="2423" cy="1034" r="5"/><circle cx="2481" cy="962" r="6"/><circle cx="34" cy="1092" r="6"/><circle cx="111" cy="1100" r="4"/><circle cx="227" cy="1051" r="4"/><circle cx="295" cy="1060" r="4"/><circle cx="384" cy="1116" r="4"/><circle cx="471" cy="1092" r="4"/><circle cx="488" cy="1071" r="5"/><circle cx="582" cy="1115" r="4"/><circle cx="690" cy="1110" r="5"/><circle cx="721" cy="1082" r="6"/><circle cx="823" cy="1076" r="5"/><circle cx="885" cy="1060" r="5"/><circle cx="973" cy="1085" r="5"/><circle cx="1103" cy="1110" r="5"/><circle cx="1126" cy="1076" r="6"/><circle cx="1218" cy="1087" r="4"/><circle cx="1355" cy="1086" r="6"/><circle cx="1408" cy="1053" r="5"/><circle cx="1446" cy="1057" r="4"/><circle cx="1572" cy="1091" r="5"/><circle cx="1621" cy="1068" r="4"/><circle cx="1751" cy="1063" r="5"/><circle cx="1787" cy="1046" r="4"/><circle cx="1894" cy="1089" r="4"/><circle cx="1922" cy="1045" r="6"/><circle cx="2039" cy="1053" r="6"/><circle cx="2106" cy="1082" r="6"/><circle cx="2223" cy="1043" r="4"/><circle cx="2249" cy="1091" r="5"/><circle cx="2351" cy="1064" r="5"/><circle cx="2428" cy="1097" r="5"/><circle cx="2509" cy="1118" r="6"/><circle cx="14" cy="1186" r="5"/><circle cx="134" cy="1127" r="5"/><circle cx="174" cy="1180" r="5"/><circle cx="316" cy="1134" r="5"/><circle cx="367" cy="1147" r="5"/><circle cx="419" cy="1200" r="5"/><circle cx="519" cy="1127" r="5"/><circle cx="577" cy="1168" r="5"/><circle cx="642" cy="1168" r="6"/><circle cx="754" cy="1122" r="6"/><circle cx="849" cy="1158" r="4"/><circle cx="910" cy="1182" r="5"/><circle cx="1022" cy="1132" r="5"/><circle cx="1080" cy="1170" r="5"/><circle cx="1188" cy="1162" r="5"/><circle cx="1280" cy="1133" r="5"/><circle cx="1285" cy="1122" r="6"/><circle cx="1438" cy="1146" r="5"/><circle cx="1466" cy="1129" r="5"/><circle cx="1594" cy="1159" r="4"/><circle cx="1639" cy="1135" r="5"/><circle cx="1740" cy="1139" r="5"/><circle cx="1803" cy="1192" r="4"/><circle cx="1880" cy="1149" r="4"/><circle cx="1921" cy="1130" r="5"/><circle cx="2060" cy="1159" r="4"/><circle cx="2089" cy="1137" r="6"/><circle cx="2236" cy="1170" r="5"/><circle cx="2272" cy="1155" r="6"/><circle cx="2391" cy="1158" r="4"/><circle cx="2430" cy="1151" r="5"/><circle cx="2497" cy="1167" r="6"/><circle cx="41" cy="1233" r="4"/><circle cx="105" cy="1228" r="4"/><circle cx="189" cy="1219" r="6"/><circle cx="312" cy="1210" r="6"/><circle cx="362" cy="1269" r="6"/><circle cx="439" cy="1206" r="6"/><circle cx="523" cy="1211" r="6"/><circle cx="592" cy="1219" r="4"/><circle cx="666" cy="1223" r="5"/><circle cx="749" cy="1215" r="5"/><circle cx="849" cy="1231" r="6"/><circle cx="886" cy="1233" r="5"/><circle cx="1026" cy="1235" r="5"/><circle cx="1070" cy="1221" r="6"/><circle cx="1144" cy="1237" r="6"/><circle cx="1226" cy="1235" r="6"/><circle cx="1286" cy="1259" r="5"/><circle cx="1395" cy="1258" r="5"/><circle cx="1499" cy="1245" r="4"/><circle cx="1570" cy="1226" r="5"/><circle cx="1653" cy="1244" r="6"/><circle cx="1746" cy="1221" r="5"/><circle cx="1788" cy="1234" r="4"/><circle cx="1866" cy="1247" r="5"/><circle cx="1923" cy="1225" r="6"/><circle cx="2020" cy="1201" r="6"/><circle cx="2080" cy="1238" r="6"/><circle cx="2233" cy="1270" r="5"/><circle cx="2248" cy="1279" r="5"/><circle cx="2378" cy="1204" r="5"/><circle cx="2444" cy="1235" r="6"/><circle cx="2492" cy="1280" r="5"/><circle cx="41" cy="1356" r="6"/><circle cx="113" cy="1326" r="4"/><circle cx="185" cy="1294" r="5"/><circle cx="274" cy="1311" r="5"/><circle cx="385" cy="1319" r="6"/><circle cx="404" cy="1341" r="6"/><circle cx="520" cy="1283" r="6"/><circle cx="595" cy="1292" r="5"/><circle cx="705" cy="1307" r="4"/><circle cx="773" cy="1283" r="5"/><circle cx="841" cy="1283" r="5"/><circle cx="897" cy="1302" r="4"/><circle cx="1034" cy="1356" r="5"/><circle cx="1104" cy="1323" r="4"/><circle cx="1182" cy="1314" r="5"/><circle cx="1203" cy="1310" r="4"/><circle cx="1308" cy="1343" r="6"/><circle cx="1367" cy="1331" r="5"/><circle cx="1486" cy="1282" r="4"/><circle cx="1592" cy="1326" r="6"/><circle cx="1633" cy="1350" r="5"/><circle cx="1686" cy="1318" r="6"/><circle cx="1817" cy="1285" r="5"/><circle cx="1901" cy="1289" r="4"/><circle cx="1991" cy="1343" r="4"/><circle cx="2063" cy="1341" r="6"/><circle cx="2098" cy="1346" r="5"/><circle cx="2188" cy="1335" r="6"/><circle cx="2241" cy="1280" r="6"/><circle cx="2358" cy="1294" r="5"/><circle cx="2479" cy="1282" r="5"/><circle cx="2548" cy="1346" r="6"/><circle cx="72" cy="1410" r="5"/><circle cx="100" cy="1382" r="6"/><circle cx="200" cy="1362" r="5"/><circle cx="300" cy="1393" r="5"/><circle cx="353" cy="1411" r="5"/><circle cx="424" cy="1363" r="4"/><circle cx="497" cy="1404" r="5"/><circle cx="622" cy="1407" r="5"/><circle cx="662" cy="1426" r="5"/><circle cx="782" cy="1379" r="5"/><circle cx="875" cy="1409" r="5"/><circle cx="916" cy="1385" r="5"/><circle cx="1023" cy="1434" r="6"/><circle cx="1111" cy="1402" r="5"/><circle cx="1192" cy="1363" r="6"/><circle cx="1270" cy="1378" r="5"/><circle cx="1357" cy="1367" r="4"/><circle cx="1393" cy="1429" r="4"/><circle cx="1502" cy="1371" r="4"/><circle cx="1575" cy="1430" r="4"/><circle cx="1650" cy="1380" r="4"/><circle cx="1705" cy="1431" r="5"/><circle cx="1786" cy="1402" r="6"/><circle cx="1901" cy="1388" r="5"/><circle cx="1958" cy="1366" r="4"/><circle cx="2049" cy="1396" r="5"/><circle cx="2143" cy="1437" r="5"/><circle cx="2143" cy="-3" r="5"/><circle cx="2220" cy="1406" r="5"/><circle cx="2294" cy="1361" r="4"/><circle cx="2358" cy="1420" r="4"/><circle cx="2478" cy="1381" r="4"/><circle cx="2510" cy="1382" r="5"/><path stroke="#fff" d="M26 3L113 15M26 3L-3 43M26 3L41 -84M26 3L72 -30M26 3L100 -58M2586 3L2557 43M26 1443L41 1356M26 1443L72 1410M26 1443L100 1382M113 15L203 21M113 15L72 -30M113 15L100 -58M113 1455L72 1410M113 1455L100 1382M203 21L292 25M203 21L175 135M203 21L200 -78M203 21L300 -47M203 1461L200 1362M203 1461L300 1393M292 25L390 27M292 25L300 -47M292 25L353 -29M292 1465L300 1393M292 1465L353 1411M390 27L429 3M390 27L353 -29M390 1467L353 1411M429 3L505 53M429 3L353 -29M429 3L424 -77M429 3L497 -36M429 1443L353 1411M429 1443L424 1363M429 1443L497 1404M505 53L481 112M505 53L563 139M505 53L497 -36M505 1493L497 1404M634 57L644 14M634 57L727 74M634 57L660 153M634 57L622 -33M634 57L662 -14M634 1497L622 1407M634 1497L662 1426M644 14L727 74M644 14L622 -33M644 14L662 -14M644 1454L622 1407M644 1454L662 1426M727 74L730 141M863 41L938 67M863 41L821 106M863 41L895 137M863 41L875 -31M863 41L916 -55M863 1481L875 1409M863 1481L916 1385M938 67L978 30M938 67L895 137M938 67L1039 81M978 30L1039 81M978 30L916 -55M978 30L1023 -6M978 1470L916 1385M978 1470L1023 1434M1110 27L1134 51M1110 27L1115 86M1110 27L1125 115M1110 27L1023 -6M1110 27L1111 -38M1110 1467L1023 1434M1110 1467L1111 1402M1134 51L1115 86M1134 51L1125 115M1237 58L1303 45M1237 58L1115 86M1237 58L1125 115M1237 58L1253 147M1303 45L1347 131M1303 45L1393 -11M1303 1485L1393 1429M1430 22L1488 67M1430 22L1393 -11M1430 1462L1393 1429M1488 67L1536 12M1488 67L1411 121M1488 67L1510 98M1536 12L1510 98M1536 12L1502 -69M1536 12L1575 -10M1536 1452L1502 1371M1536 1452L1575 1430M1643 50L1711 40M1643 50L1598 96M1643 50L1617 83M1643 50L1575 -10M1643 50L1705 -9M1643 1490L1575 1430M1643 1490L1705 1431M1711 40L1801 48M1711 40L1617 83M1711 40L1705 -9M1711 40L1786 -38M1711 1480L1705 1431M1711 1480L1786 1402M1801 48L1881 18M1801 48L1839 93M1801 48L1786 -38M1801 1488L1786 1402M1881 18L1839 93M1881 18L1913 118M1881 18L1786 -38M1881 18L1901 -52M1881 1458L1786 1402M1881 1458L1901 1388M1992 3L2070 62M1992 3L2099 9M1992 3L1992 84M1992 3L1958 -74M1992 3L2049 -44M1992 1443L1958 1366M1992 1443L2049 1396M2070 62L2099 9M2070 62L1992 84M2070 62L2075 148M2070 62L2143 -3M2070 1502L2143 1437M2099 9L2172 2M2099 9L2049 -44M2099 9L2143 -3M2099 1449L2049 1396M2099 1449L2143 1437M2172 2L2143 -3M2172 2L2220 -34M2172 1442L2143 1437M2172 1442L2220 1406M2276 59L2357 8M2276 59L2291 131M2357 8L2413 69M2357 8L2358 -20M2357 1448L2358 1420M2413 69L2466 137M2413 69L2358 -20M2413 1509L2358 1420M2557 43L2577 105M2557 43L2510 -58M-3 43L17 105M2557 1483L2510 1382M17 105L-14 156M17 105L3 192M17 105L105 170M17 105L-65 171M2577 105L2546 156M2577 105L2495 171M116 151L175 135M116 151L105 170M175 135L280 148M175 135L105 170M175 135L200 191M280 148L334 147M280 148L200 191M280 148L294 190M280 148L342 181M334 147L410 142M334 147L294 190M334 147L342 181M410 142L481 112M410 142L342 181M410 142L431 191M481 112L563 139M481 112L431 191M563 139L660 153M563 139L525 226M563 139L602 179M660 153L730 141M660 153L602 179M660 153L663 220M730 141L821 106M730 141L663 220M730 141L766 192M821 106L895 137M821 106L766 192M821 106L874 199M895 137L874 199M895 137L893 189M1039 81L1115 86M1039 81L1125 115M1039 81L1023 -6M1039 1521L1023 1434M1115 86L1125 115M1253 147L1347 131M1253 147L1195 228M1253 147L1225 193M1253 147L1348 195M1347 131L1411 121M1347 131L1348 195M1411 121L1348 195M1411 121L1414 220M1510 98L1598 96M1510 98L1617 83M1510 98L1571 176M1598 96L1617 83M1598 96L1571 176M1598 96L1656 196M1617 83L1575 -10M1617 1523L1575 1430M1704 157L1656 196M1704 157L1697 229M1704 157L1820 197M1839 93L1913 118M1839 93L1820 197M1839 93L1865 185M1913 118L1992 84M1913 118L1865 185M1913 118L1992 198M1992 84L2075 148M2075 148L2158 132M2075 148L1992 198M2075 148L2037 222M2158 132L2227 139M2158 132L2152 240M2158 132L2223 165M2227 139L2291 131M2227 139L2223 165M2227 139L2287 169M2291 131L2324 160M2291 131L2223 165M2291 131L2287 169M2324 160L2223 165M2324 160L2287 169M2324 160L2349 217M2324 160L2348 240M2466 137L2546 156M2466 137L2444 185M2466 137L2495 171M2546 156L2563 192M2546 156L2495 171M2546 156L2592 250M-14 156L3 192M-14 156L32 250M3 192L105 170M3 192L-65 171M3 192L32 250M2563 192L2495 171M105 170L200 191M200 191L294 190M200 191L209 272M294 190L342 181M294 190L294 285M342 181L431 191M431 191L525 226M431 191L411 268M525 226L602 179M525 226L548 286M525 226L599 278M602 179L663 220M602 179L599 278M663 220L599 278M663 220L718 265M766 192L718 265M874 199L893 189M874 199L850 254M874 199L927 294M893 189L996 199M893 189L850 254M996 199L1081 227M996 199L1006 264M1081 227L1006 264M1081 227L1116 304M1195 228L1225 193M1195 228L1139 311M1195 228L1227 303M1225 193L1227 303M1225 193L1333 247M1348 195L1414 220M1348 195L1333 247M1414 220L1333 247M1414 220L1378 312M1414 220L1476 292M1514 213L1571 176M1514 213L1476 292M1571 176L1656 196M1656 196L1697 229M1656 196L1647 282M1697 229L1647 282M1697 229L1744 303M1820 197L1865 185M1820 197L1818 275M1820 197L1877 269M1865 185L1818 275M1865 185L1877 269M1992 198L2037 222M1992 198L1957 265M1992 198L2033 241M2037 222L1957 265M2037 222L2033 241M2037 222L2088 299M2152 240L2088 299M2152 240L2200 283M2223 165L2287 169M2287 169L2349 217M2349 217L2444 185M2349 217L2348 240M2349 217L2414 271M2444 185L2495 171M2444 185L2414 271M32 250L90 309M32 250L-51 287M32 250L68 335M2592 250L2509 287M90 309L209 272M90 309L68 335M90 309L81 372M209 272L294 285M209 272L236 378M294 285L370 283M294 285L236 378M294 285L282 381M370 283L411 268M370 283L392 399M548 286L599 278M548 286L501 388M548 286L632 347M548 286L618 400M599 278L632 347M718 265L736 307M718 265L673 356M718 265L749 350M736 307L632 347M736 307L673 356M736 307L749 350M736 307L829 360M850 254L927 294M850 254L829 360M850 254L895 344M927 294L1006 264M927 294L895 344M927 294L966 368M1006 264L966 368M1006 264L1046 350M1116 304L1139 311M1116 304L1046 350M1116 304L1139 384M1116 304L1127 405M1139 311L1227 303M1139 311L1046 350M1139 311L1139 384M1227 303L1256 361M1227 303L1296 390M1333 247L1378 312M1378 312L1476 292M1378 312L1413 348M1476 292L1413 348M1476 292L1490 352M1592 306L1647 282M1592 306L1550 389M1592 306L1585 409M1647 282L1744 303M1647 282L1664 373M1744 303L1818 275M1744 303L1700 391M1744 303L1798 341M1818 275L1877 269M1818 275L1798 341M1877 269L1957 265M1957 265L2033 241M1957 265L1982 364M2033 241L2088 299M2088 299L2200 283M2088 299L2103 377M2200 283L2249 313M2200 283L2192 368M2200 283L2286 322M2249 313L2192 368M2249 313L2286 322M2249 313L2341 338M2249 313L2310 422M2348 240L2414 271M2348 240L2286 322M2348 240L2341 338M2414 271L2509 287M2414 271L2435 325M2509 287L2435 325M2509 287L2491 378M68 335L81 372M68 335L49 431M81 372L49 431M81 372L101 478M236 378L282 381M236 378L228 460M282 381L228 460M392 399L456 387M392 399L330 474M456 387L501 388M456 387L470 479M501 388L549 466M632 347L673 356M632 347L618 400M673 356L749 350M673 356L618 400M749 350L829 360M829 360L895 344M829 360L860 438M895 344L966 368M895 344L860 438M966 368L1046 350M966 368L1001 468M1046 350L1127 405M1139 384L1256 361M1139 384L1127 405M1256 361L1296 390M1256 361L1213 459M1296 390L1289 468M1296 390L1368 445M1413 348L1490 352M1490 352L1550 389M1550 389L1585 409M1550 389L1620 408M1664 373L1700 391M1664 373L1585 409M1664 373L1620 408M1664 373L1698 451M1700 391L1798 341M1700 391L1620 408M1700 391L1698 451M1798 341L1853 399M1798 341L1822 435M1853 399L1822 435M1853 399L1889 451M1982 364L2002 374M1982 364L1957 434M2002 374L1957 434M2103 377L2192 368M2103 377L2155 436M2103 377L2171 413M2192 368L2155 436M2192 368L2171 413M2286 322L2341 338M2286 322L2310 422M2341 338L2310 422M2435 325L2491 378M2435 325L2439 422M2435 325L2484 409M2491 378L2439 422M2491 378L2484 409M49 431L101 478M49 431L26 506M49 431L96 505M101 478L26 506M101 478L96 505M101 478L154 565M228 460L290 474M228 460L229 500M290 474L330 474M290 474L229 500M290 474L317 557M290 474L332 543M330 474L332 543M470 479L549 466M470 479L454 547M470 479L528 496M470 479L452 561M549 466L618 400M549 466L528 496M549 466L591 543M618 400L701 465M701 465L742 474M701 465L713 547M742 474L713 547M742 474L791 507M742 474L851 485M742 474L739 576M860 438L938 472M860 438L851 485M938 472L1001 468M938 472L851 485M938 472L942 549M938 472L1009 484M1001 468L1066 477M1001 468L942 549M1001 468L1009 484M1066 477L1127 405M1066 477L1009 484M1066 477L1105 520M1127 405L1213 459M1213 459L1289 468M1213 459L1198 483M1213 459L1266 488M1289 468L1368 445M1289 468L1266 488M1289 468L1311 520M1368 445L1311 520M1368 445L1372 499M1480 478L1372 499M1480 478L1475 529M1480 478L1521 515M1480 478L1481 564M1585 409L1620 408M1620 408L1626 509M1698 451L1626 509M1698 451L1716 515M1822 435L1889 451M1822 435L1796 508M1889 451L1957 434M1889 451L1891 532M1889 451L1948 484M1957 434L1948 484M2056 466L2020 519M2056 466L2090 524M2056 466L2161 491M2155 436L2171 413M2155 436L2090 524M2155 436L2161 491M2171 413L2161 491M2310 422L2397 424M2310 422L2316 496M2397 424L2439 422M2397 424L2484 409M2397 424L2316 496M2439 422L2484 409M2439 422L2422 522M2484 409L2512 495M26 506L96 505M26 506L-48 495M26 506L20 571M2586 506L2512 495M96 505L20 571M96 505L154 565M229 500L154 565M317 557L332 543M317 557L277 608M317 557L363 591M317 557L334 641M332 543L277 608M332 543L363 591M454 547L528 496M454 547L452 561M454 547L523 584M528 496L591 543M528 496L523 584M591 543L523 584M591 543L605 634M713 547L791 507M713 547L682 603M713 547L739 576M791 507L851 485M791 507L739 576M791 507L825 565M851 485L825 565M942 549L1009 484M942 549L925 604M942 549L1033 603M1105 520L1198 483M1105 520L1033 603M1105 520L1119 608M1105 520L1152 587M1198 483L1266 488M1198 483L1152 587M1266 488L1311 520M1266 488L1372 499M1311 520L1372 499M1311 520L1359 614M1372 499L1475 529M1475 529L1521 515M1475 529L1481 564M1521 515L1626 509M1521 515L1481 564M1521 515L1589 616M1626 509L1716 515M1626 509L1719 581M1716 515L1796 508M1716 515L1719 581M1796 508L1891 532M1891 532L1948 484M1891 532L1901 588M1891 532L1964 562M1948 484L2020 519M1948 484L1964 562M2020 519L2090 524M2020 519L1964 562M2020 519L2030 605M2090 524L2161 491M2090 524L2030 605M2316 496L2391 538M2316 496L2344 587M2391 538L2422 522M2391 538L2320 626M2391 538L2344 587M2391 538L2459 612M2422 522L2512 495M2422 522L2344 587M2422 522L2459 612M2512 495L2580 571M2512 495L2552 594M-48 495L20 571M20 571L-8 594M20 571L30 664M2580 571L2552 594M154 565L217 631M217 631L277 608M217 631L200 707M217 631L277 680M277 608L277 680M277 608L334 641M363 591L452 561M363 591L334 641M363 591L404 648M452 561L523 584M452 561L404 648M523 584L528 666M605 634L682 603M605 634L528 666M605 634L634 676M605 634L645 678M682 603L739 576M682 603L634 676M682 603L645 678M739 576L825 565M825 565L925 604M825 565L815 655M925 604L1033 603M925 604L928 669M1033 603L1119 608M1033 603L1008 693M1119 608L1152 587M1119 608L1163 666M1152 587L1163 666M1152 587L1203 680M1269 632L1359 614M1269 632L1163 666M1269 632L1203 680M1269 632L1240 722M1359 614L1377 638M1359 614L1408 655M1377 638L1356 718M1377 638L1408 655M1589 616L1602 625M1589 616L1514 674M1602 625L1514 674M1602 625L1643 702M1719 581L1770 613M1719 581L1769 642M1770 613L1707 680M1770 613L1769 642M1770 613L1868 647M1770 613L1733 720M1901 588L1964 562M1901 588L1868 647M1964 562L2030 605M2030 605L2092 641M2137 630L2229 606M2137 630L2092 641M2137 630L2161 719M2229 606L2320 626M2320 626L2344 587M2320 626L2292 706M2320 626L2377 662M2344 587L2377 662M2459 612L2552 594M2459 612L2469 717M2459 612L2481 709M2552 594L2590 664M-8 594L30 664M30 664L98 686M30 664L57 725M98 686L200 707M98 686L57 725M98 686L97 797M200 707L277 680M200 707L221 779M277 680L334 641M277 680L299 777M334 641L404 648M404 648L401 746M528 666L490 731M634 676L645 678M634 676L722 687M634 676L699 751M645 678L722 687M645 678L699 751M722 687L815 655M722 687L699 751M815 655L928 669M815 655L821 782M928 669L1008 693M928 669L944 727M1008 693L1048 708M1008 693L944 727M1008 693L1005 750M1048 708L944 727M1048 708L1005 750M1048 708L1093 758M1163 666L1203 680M1163 666L1240 722M1203 680L1172 785M1203 680L1240 722M1356 718L1408 655M1356 718L1308 743M1356 718L1372 787M1356 718L1347 803M1408 655L1514 674M1408 655L1443 726M1514 674L1525 719M1514 674L1443 726M1525 719L1443 726M1525 719L1599 744M1525 719L1605 768M1525 719L1498 828M1643 702L1707 680M1643 702L1599 744M1643 702L1605 768M1643 702L1733 720M1707 680L1769 642M1707 680L1733 720M1707 680L1797 727M1769 642L1733 720M1769 642L1797 727M1868 647L1966 692M1966 692L2042 716M1966 692L1906 759M1966 692L1990 767M2042 716L2092 641M2042 716L1990 767M2042 716L2025 771M2042 716L2104 759M2092 641L2161 719M2161 719L2104 759M2161 719L2208 778M2292 706L2377 662M2292 706L2301 776M2292 706L2348 788M2469 717L2481 709M2469 717L2467 756M2469 717L2524 751M2469 717L2406 803M2481 709L2467 756M2481 709L2524 751M57 725L97 797M57 725L-36 751M2617 725L2524 751M97 797L25 867M97 797L122 853M221 779L299 777M221 779L236 861M299 777L370 795M299 777L309 862M299 777L353 851M370 795L401 746M370 795L353 851M370 795L422 846M401 746L490 731M401 746L422 846M490 731L582 786M582 786L586 861M699 751L761 788M699 751L713 866M761 788L821 782M761 788L713 866M761 788L766 848M761 788L832 805M821 782L832 805M944 727L1005 750M944 727L1003 807M1005 750L1003 807M1005 750L1041 809M1093 758L1172 785M1093 758L1003 807M1093 758L1041 809M1093 758L1139 841M1172 785L1240 722M1172 785L1139 841M1172 785L1266 825M1240 722L1308 743M1308 743L1372 787M1308 743L1266 825M1308 743L1347 803M1372 787L1443 726M1372 787L1347 803M1372 787L1367 804M1443 726L1498 828M1599 744L1605 768M1605 768L1588 865M1733 720L1797 727M1797 727L1906 759M1797 727L1820 819M1906 759L1990 767M1906 759L1904 831M1906 759L1967 801M1990 767L2025 771M1990 767L1967 801M2025 771L2104 759M2025 771L1967 801M2025 771L2076 816M2104 759L2076 816M2104 759L2100 841M2208 778L2229 847M2301 776L2348 788M2301 776L2229 847M2301 776L2291 803M2301 776L2376 812M2348 788L2291 803M2348 788L2376 812M2348 788L2406 803M2467 756L2524 751M2467 756L2406 803M2467 756L2490 828M2524 751L2490 828M25 867L122 853M25 867L-70 828M25 867L22 907M2585 867L2490 828M122 853L22 907M122 853L138 953M122 853L162 882M236 861L309 862M236 861L162 882M236 861L243 896M236 861L323 914M309 862L353 851M309 862L243 896M309 862L323 914M353 851L422 846M353 851L323 914M422 846L497 875M422 846L450 926M497 875L586 861M497 875L450 926M497 875L526 939M586 861L526 939M586 861L615 947M586 861L584 960M713 866L766 848M713 866L676 913M713 866L737 902M766 848L832 805M766 848L737 902M766 848L840 903M832 805L911 878M832 805L840 903M911 878L840 903M911 878L900 942M911 878L875 1002M1003 807L1041 809M1003 807L1028 901M1041 809L1139 841M1041 809L1028 901M1139 841L1142 923M1139 841L1217 917M1266 825L1347 803M1266 825L1322 922M1347 803L1367 804M1498 828L1588 865M1498 828L1500 939M1498 828L1541 903M1588 865L1637 876M1588 865L1541 903M1588 865L1623 913M1637 876L1702 875M1637 876L1541 903M1637 876L1623 913M1637 876L1731 927M1702 875L1820 819M1702 875L1623 913M1702 875L1731 927M1702 875L1764 950M1820 819L1904 831M1904 831L1967 801M1904 831L1926 924M2076 816L2100 841M2076 816L2111 888M2100 841L2035 926M2100 841L2111 888M2229 847L2291 803M2229 847L2183 912M2229 847L2278 882M2291 803L2376 812M2291 803L2278 882M2376 812L2406 803M2406 803L2490 828M22 907L-66 947M22 907L67 988M22 907L-79 962M2582 907L2494 947M2582 907L2481 962M138 953L162 882M138 953L67 988M138 953L134 979M138 953L222 991M162 882L243 896M162 882L134 979M243 896L323 914M243 896L222 991M323 914L280 1009M450 926L526 939M450 926L478 1025M450 926L506 1002M526 939L506 1002M526 939L584 960M615 947L676 913M615 947L584 960M615 947L673 999M676 913L737 902M676 913L673 999M737 902L840 903M840 903L900 942M900 942L875 1002M900 942L943 1007M1028 901L1096 953M1096 953L1142 923M1096 953L1035 1016M1096 953L1072 1008M1096 953L1131 1017M1142 923L1217 917M1142 923L1131 1017M1142 923L1201 1001M1217 917L1322 922M1217 917L1201 1001M1217 917L1300 971M1322 922L1368 957M1322 922L1300 971M1368 957L1300 971M1368 957L1416 1023M1500 939L1541 903M1500 939L1504 992M1500 939L1581 993M1541 903L1623 913M1623 913L1581 993M1731 927L1764 950M1731 927L1757 1015M1764 950L1757 1015M1764 950L1840 976M1764 950L1787 1046M1893 958L1926 924M1893 958L1840 976M1893 958L1897 1037M1893 958L1956 965M1893 958L1922 1045M1926 924L2035 926M1926 924L1956 965M2035 926L2111 888M2035 926L1956 965M2035 926L2068 973M2111 888L2183 912M2111 888L2068 973M2183 912L2278 882M2183 912L2150 974M2183 912L2213 968M2278 882L2350 952M2278 882L2307 979M2350 952L2424 953M2350 952L2307 979M2350 952L2379 995M2424 953L2494 947M2424 953L2379 995M2424 953L2423 1034M2424 953L2481 962M2494 947L2481 962M67 988L134 979M134 979L222 991M134 979L227 1051M222 991L280 1009M222 991L227 1051M280 1009L370 1009M280 1009L227 1051M280 1009L295 1060M370 1009L295 1060M478 1025L506 1002M478 1025L471 1092M478 1025L488 1071M506 1002L584 960M506 1002L488 1071M584 960L673 999M673 999L766 1031M673 999L721 1082M766 1031L690 1110M766 1031L721 1082M766 1031L823 1076M766 1031L754 1122M875 1002L943 1007M875 1002L823 1076M875 1002L885 1060M943 1007L1035 1016M943 1007L885 1060M943 1007L973 1085M1035 1016L1072 1008M1035 1016L973 1085M1072 1008L1131 1017M1072 1008L1126 1076M1131 1017L1201 1001M1131 1017L1126 1076M1201 1001L1126 1076M1201 1001L1218 1087M1416 1023L1504 992M1416 1023L1355 1086M1416 1023L1408 1053M1416 1023L1446 1057M1504 992L1581 993M1504 992L1446 1057M1581 993L1619 1001M1581 993L1621 1068M1619 1001L1572 1091M1619 1001L1621 1068M1757 1015L1840 976M1757 1015L1751 1063M1757 1015L1787 1046M1840 976L1897 1037M1840 976L1787 1046M1897 1037L1894 1089M1897 1037L1922 1045M1897 1037L1921 1130M1956 965L1922 1045M2068 973L2150 974M2068 973L2039 1053M2068 973L2106 1082M2150 974L2213 968M2150 974L2106 1082M2150 974L2223 1043M2213 968L2307 979M2213 968L2223 1043M2213 968L2249 1091M2307 979L2379 995M2307 979L2351 1064M2379 995L2423 1034M2379 995L2351 1064M2423 1034L2481 962M2423 1034L2351 1064M2423 1034L2428 1097M34 1092L111 1100M34 1092L-51 1118M34 1092L14 1186M34 1092L134 1127M2594 1092L2509 1118M111 1100L134 1127M111 1100L174 1180M227 1051L295 1060M295 1060L316 1134M384 1116L471 1092M384 1116L316 1134M384 1116L367 1147M384 1116L419 1200M471 1092L488 1071M471 1092L519 1127M488 1071L582 1115M488 1071L519 1127M582 1115L519 1127M582 1115L577 1168M582 1115L642 1168M690 1110L721 1082M690 1110L642 1168M690 1110L754 1122M721 1082L823 1076M721 1082L754 1122M823 1076L885 1060M823 1076L754 1122M885 1060L973 1085M885 1060L849 1158M973 1085L910 1182M973 1085L1022 1132M1103 1110L1126 1076M1103 1110L1022 1132M1103 1110L1080 1170M1126 1076L1218 1087M1218 1087L1188 1162M1218 1087L1280 1133M1218 1087L1285 1122M1355 1086L1408 1053M1355 1086L1280 1133M1355 1086L1285 1122M1355 1086L1438 1146M1408 1053L1446 1057M1408 1053L1438 1146M1408 1053L1466 1129M1446 1057L1438 1146M1446 1057L1466 1129M1572 1091L1621 1068M1572 1091L1466 1129M1572 1091L1594 1159M1572 1091L1639 1135M1621 1068L1594 1159M1621 1068L1639 1135M1751 1063L1787 1046M1751 1063L1740 1139M1787 1046L1740 1139M1894 1089L1922 1045M1894 1089L1880 1149M1894 1089L1921 1130M1922 1045L1921 1130M2039 1053L2106 1082M2039 1053L2060 1159M2039 1053L2089 1137M2039 1053L2020 1201M2106 1082L2060 1159M2106 1082L2089 1137M2223 1043L2249 1091M2249 1091L2351 1064M2249 1091L2236 1170M2249 1091L2272 1155M2351 1064L2428 1097M2428 1097L2509 1118M2428 1097L2391 1158M2428 1097L2430 1151M2509 1118L2574 1186M2509 1118L2430 1151M2509 1118L2497 1167M-51 1118L14 1186M14 1186L-63 1167M14 1186L41 1233M14 1186L105 1228M2574 1186L2497 1167M134 1127L174 1180M134 1127L189 1219M174 1180L105 1228M174 1180L189 1219M316 1134L367 1147M316 1134L312 1210M367 1147L419 1200M367 1147L312 1210M367 1147L439 1206M419 1200L362 1269M419 1200L439 1206M519 1127L577 1168M519 1127L523 1211M577 1168L642 1168M577 1168L523 1211M577 1168L592 1219M642 1168L592 1219M642 1168L666 1223M754 1122L749 1215M849 1158L910 1182M849 1158L849 1231M849 1158L886 1233M910 1182L849 1231M910 1182L886 1233M1022 1132L1080 1170M1022 1132L1026 1235M1022 1132L1070 1221M1080 1170L1026 1235M1080 1170L1070 1221M1080 1170L1144 1237M1188 1162L1280 1133M1188 1162L1285 1122M1188 1162L1144 1237M1188 1162L1226 1235M1280 1133L1285 1122M1438 1146L1466 1129M1438 1146L1395 1258M1466 1129L1499 1245M1594 1159L1639 1135M1594 1159L1570 1226M1639 1135L1740 1139M1740 1139L1803 1192M1740 1139L1746 1221M1803 1192L1746 1221M1803 1192L1788 1234M1803 1192L1866 1247M1803 1192L1817 1285M1880 1149L1921 1130M1880 1149L1923 1225M1921 1130L1923 1225M2060 1159L2089 1137M2060 1159L2020 1201M2060 1159L2080 1238M2089 1137L2020 1201M2089 1137L2080 1238M2236 1170L2272 1155M2236 1170L2233 1270M2236 1170L2248 1279M2236 1170L2241 1280M2272 1155L2233 1270M2272 1155L2378 1204M2391 1158L2430 1151M2391 1158L2378 1204M2391 1158L2444 1235M2430 1151L2497 1167M2430 1151L2378 1204M2497 1167L2444 1235M2497 1167L2492 1280M41 1233L105 1228M105 1228L189 1219M105 1228L185 1294M189 1219L312 1210M189 1219L185 1294M312 1210L362 1269M312 1210L274 1311M362 1269L439 1206M362 1269L385 1319M362 1269L404 1341M439 1206L523 1211M439 1206L520 1283M523 1211L592 1219M523 1211L520 1283M592 1219L666 1223M592 1219L595 1292M666 1223L749 1215M666 1223L595 1292M666 1223L705 1307M749 1215L705 1307M749 1215L773 1283M849 1231L886 1233M849 1231L841 1283M849 1231L897 1302M886 1233L841 1283M886 1233L897 1302M1026 1235L1070 1221M1026 1235L1034 1356M1070 1221L1144 1237M1070 1221L1104 1323M1144 1237L1226 1235M1144 1237L1182 1314M1226 1235L1286 1259M1226 1235L1182 1314M1226 1235L1203 1310M1286 1259L1395 1258M1286 1259L1308 1343M1395 1258L1367 1331M1395 1258L1486 1282M1499 1245L1570 1226M1499 1245L1486 1282M1570 1226L1653 1244M1570 1226L1486 1282M1570 1226L1592 1326M1653 1244L1746 1221M1653 1244L1592 1326M1653 1244L1633 1350M1653 1244L1686 1318M1746 1221L1788 1234M1746 1221L1817 1285M1788 1234L1866 1247M1788 1234L1817 1285M1866 1247L1923 1225M1866 1247L1817 1285M1866 1247L1901 1289M1923 1225L2020 1201M1923 1225L1901 1289M2020 1201L2080 1238M2080 1238L2063 1341M2080 1238L2098 1346M2233 1270L2248 1279M2233 1270L2188 1335M2233 1270L2241 1280M2248 1279L2188 1335M2248 1279L2241 1280M2248 1279L2294 1361M2378 1204L2444 1235M2378 1204L2358 1294M2444 1235L2492 1280M2444 1235L2479 1282M2492 1280L2479 1282M2492 1280L2548 1346M2492 1280L2510 1382M41 1356L113 1326M41 1356L-12 1346M41 1356L72 1410M41 1356L100 1382M2601 1356L2548 1346M113 1326L185 1294M113 1326L72 1410M113 1326L100 1382M113 1326L200 1362M185 1294L274 1311M185 1294L200 1362M274 1311L385 1319M274 1311L200 1362M274 1311L300 1393M385 1319L404 1341M385 1319L424 1363M404 1341L353 1411M404 1341L424 1363M404 1341L497 1404M520 1283L595 1292M520 1283L424 1363M520 1283L497 1404M595 1292L705 1307M595 1292L622 1407M705 1307L773 1283M705 1307L782 1379M773 1283L841 1283M773 1283L782 1379M841 1283L897 1302M841 1283L782 1379M897 1302L875 1409M897 1302L916 1385M1034 1356L1104 1323M1034 1356L1023 1434M1034 1356L1111 1402M1104 1323L1182 1314M1104 1323L1111 1402M1104 1323L1192 1363M1182 1314L1203 1310M1182 1314L1192 1363M1203 1310L1192 1363M1203 1310L1270 1378M1308 1343L1367 1331M1308 1343L1270 1378M1308 1343L1357 1367M1367 1331L1270 1378M1367 1331L1357 1367M1367 1331L1393 1429M1486 1282L1502 1371M1592 1326L1633 1350M1592 1326L1686 1318M1592 1326L1650 1380M1633 1350L1686 1318M1633 1350L1650 1380M1686 1318L1650 1380M1686 1318L1705 1431M1817 1285L1901 1289M1901 1289L1901 1388M1991 1343L2063 1341M1991 1343L1901 1388M1991 1343L1958 1366M1991 1343L2049 1396M2063 1341L2098 1346M2063 1341L1958 1366M2063 1341L2049 1396M2098 1346L2188 1335M2098 1346L2049 1396M2098 1346L2143 1437M2188 1335L2241 1280M2188 1335L2220 1406M2241 1280L2294 1361M2358 1294L2294 1361M2479 1282L2548 1346M2479 1282L2478 1381M2479 1282L2510 1382M2548 1346L2478 1381M2548 1346L2510 1382M72 1410L100 1382M200 1362L300 1393M300 1393L353 1411M424 1363L497 1404M622 1407L662 1426M782 1379L875 1409M875 1409L916 1385M1023 1434L1111 1402M1111 1402L1192 1363M1192 1363L1270 1378M1270 1378L1357 1367M1357 1367L1393 1429M1502 1371L1575 1430M1575 1430L1650 1380M1650 1380L1705 1431M1705 1431L1786 1402M1786 1402L1901 1388M1901 1388L1958 1366M2143 1437L2220 1406M2220 1406L2294 1361M2294 1361L2358 1420M2478 1381L2510 1382"/></svg>