<svg xmlns="http://www.w3.org/2000/svg" width="2560" height="1440" fill="#fff"><circle cx="75" cy="23" r="6"/><circle cx="151" cy="28" r="6"/><circle cx="211" cy="31" r="5"/><circle cx="317" cy="19" r="4"/><circle cx="367" cy="56" r="4"/><circle cx="405" cy="31" r="4"/><circle cx="499" cy="43" r="6"/><circle cx="569" cy="8" r="6"/><circle cx="666" cy="11" r="5"/><circle cx="794" cy="53" r="4"/><circle cx="852" cy="4" r="5"/><circle cx="852" cy="1444" r="5"/><circle cx="904" cy="3" r="6"/><circle cx="904" cy="1443" r="6"/><circle cx="964" cy="16" r="6"/><circle cx="1104" cy="32" r="6"/><circle cx="1175" cy="36" r="6"/><circle cx="1248" cy="48" r="5"/><circle cx="1295" cy="42" r="5"/><circle cx="1371" cy="7" r="4"/><circle cx="1515" cy="0" r="5"/><circle cx="1515" cy="1440" r="5"/><circle cx="1527" cy="9" r="6"/><circle cx="1628" cy="7" r="5"/><circle cx="1731" cy="30" r="6"/><circle cx="1773" cy="62" r="5"/><circle cx="1852" cy="5" r="5"/><circle cx="1852" cy="1445" r="5"/><circle cx="1968" cy="6" r="5"/><circle cx="2072" cy="27" r="4"/><circle cx="2143" cy="43" r="4"/><circle cx="2218" cy="30" r="5"/><circle cx="2266" cy="56" r="6"/><circle cx="2328" cy="52" r="5"/><circle cx="2413" cy="49" r="6"/><circle cx="2492" cy="52" r="4"/><circle cx="79" cy="83" r="6"/><circle cx="108" cy="107" r="4"/><circle cx="217" cy="113" r="5"/><circle cx="243" cy="129" r="4"/><circle cx="357" cy="128" r="5"/><circle cx="432" cy="97" r="6"/><circle cx="480" cy="91" r="5"/><circle cx="564" cy="114" r="6"/><circle cx="647" cy="91" r="6"/><circle cx="746" cy="138" r="5"/><circle cx="856" cy="107" r="5"/><circle cx="935" cy="110" r="6"/><circle cx="971" cy="99" r="5"/><circle cx="1078" cy="133" r="4"/><circle cx="1151" cy="119" r="5"/><circle cx="1279" cy="109" r="6"/><circle cx="1344" cy="96" r="4"/><circle cx="1379" cy="138" r="4"/><circle cx="1479" cy="118" r="4"/><circle cx="1584" cy="100" r="4"/><circle cx="1611" cy="122" r="4"/><circle cx="1741" cy="104" r="5"/><circle cx="1822" cy="112" r="5"/><circle cx="1901" cy="96" r="5"/><circle cx="1988" cy="83" r="5"/><circle cx="2010" cy="106" r="5"/><circle cx="2139" cy="129" r="6"/><circle cx="2239" cy="110" r="4"/><circle cx="2293" cy="94" r="4"/><circle cx="2367" cy="140" r="5"/><circle cx="2450" cy="92" r="5"/><circle cx="2514" cy="120" r="5"/><circle cx="66" cy="225" r="5"/><circle cx="159" cy="197" r="5"/><circle cx="220" cy="168" r="5"/><circle cx="281" cy="225" r="4"/><circle cx="389" cy="160" r="6"/><circle cx="411" cy="229" r="6"/><circle cx="529" cy="218" r="4"/><circle cx="590" cy="209" r="6"/><circle cx="644" cy="225" r="5"/><circle cx="769" cy="232" r="6"/><circle cx="834" cy="208" r="6"/><circle cx="944" cy="228" r="5"/><circle cx="1026" cy="238" r="5"/><circle cx="1099" cy="202" r="6"/><circle cx="1196" cy="180" r="5"/><circle cx="1260" cy="183" r="5"/><circle cx="1322" cy="162" r="4"/><circle cx="1412" cy="188" r="4"/><circle cx="1440" cy="210" r="4"/><circle cx="1577" cy="210" r="4"/><circle cx="1622" cy="188" r="5"/><circle cx="1746" cy="199" r="6"/><circle cx="1793" cy="177" r="6"/><circle cx="1867" cy="169" r="4"/><circle cx="1999" cy="182" r="5"/><circle cx="2033" cy="204" r="5"/><circle cx="2122" cy="161" r="5"/><circle cx="2213" cy="224" r="6"/><circle cx="2311" cy="201" r="6"/><circle cx="2341" cy="201" r="4"/><circle cx="2452" cy="170" r="5"/><circle cx="2539" cy="236" r="5"/><circle cx="13" cy="272" r="4"/><circle cx="141" cy="246" r="5"/><circle cx="186" cy="264" r="5"/><circle cx="290" cy="276" r="5"/><circle cx="398" cy="250" r="6"/><circle cx="417" cy="306" r="5"/><circle cx="554" cy="288" r="6"/><circle cx="595" cy="268" r="6"/><circle cx="695" cy="288" r="4"/><circle cx="779" cy="313" r="5"/><circle cx="800" cy="249" r="5"/><circle cx="890" cy="267" r="6"/><circle cx="1007" cy="292" r="5"/><circle cx="1070" cy="295" r="4"/><circle cx="1165" cy="290" r="5"/><circle cx="1214" cy="260" r="6"/><circle cx="1303" cy="279" r="5"/><circle cx="1422" cy="261" r="4"/><circle cx="1451" cy="316" r="6"/><circle cx="1579" cy="272" r="6"/><circle cx="1673" cy="283" r="5"/><circle cx="1718" cy="295" r="5"/><circle cx="1777" cy="270" r="6"/><circle cx="1883" cy="287" r="5"/><circle cx="1980" cy="244" r="5"/><circle cx="2032" cy="318" r="4"/><circle cx="2099" cy="273" r="5"/><circle cx="2190" cy="303" r="6"/><circle cx="2274" cy="299" r="5"/><circle cx="2384" cy="242" r="6"/><circle cx="2430" cy="268" r="5"/><circle cx="2524" cy="294" r="4"/><circle cx="74" cy="368" r="5"/><circle cx="106" cy="387" r="5"/><circle cx="206" cy="387" r="6"/><circle cx="317" cy="379" r="6"/><circle cx="328" cy="331" r="5"/><circle cx="466" cy="395" r="4"/><circle cx="483" cy="331" r="5"/><circle cx="587" cy="338" r="4"/><circle cx="646" cy="325" r="4"/><circle cx="784" cy="340" r="6"/><circle cx="828" cy="352" r="6"/><circle cx="890" cy="379" r="5"/><circle cx="1023" cy="331" r="4"/><circle cx="1067" cy="370" r="6"/><circle cx="1158" cy="357" r="4"/><circle cx="1240" cy="359" r="5"/><circle cx="1330" cy="353" r="5"/><circle cx="1411" cy="343" r="5"/><circle cx="1493" cy="332" r="4"/><circle cx="1537" cy="339" r="5"/><circle cx="1663" cy="351" r="4"/><circle cx="1686" cy="368" r="5"/><circle cx="1775" cy="321" r="6"/><circle cx="1903" cy="345" r="5"/><circle cx="1944" cy="362" r="6"/><circle cx="2074" cy="369" r="4"/><circle cx="2089" cy="373" r="6"/><circle cx="2212" cy="388" r="5"/><circle cx="2257" cy="326" r="5"/><circle cx="2388" cy="345" r="5"/><circle cx="2455" cy="338" r="5"/><circle cx="2485" cy="394" r="6"/><circle cx="28" cy="414" r="5"/><circle cx="123" cy="423" r="5"/><circle cx="199" cy="461" r="5"/><circle cx="311" cy="425" r="5"/><circle cx="393" cy="453" r="6"/><circle cx="430" cy="465" r="5"/><circle cx="501" cy="433" r="4"/><circle cx="616" cy="429" r="6"/><circle cx="681" cy="464" r="5"/><circle cx="762" cy="437" r="6"/><circle cx="834" cy="405" r="5"/><circle cx="919" cy="435" r="5"/><circle cx="985" cy="417" r="5"/><circle cx="1110" cy="465" r="4"/><circle cx="1175" cy="470" r="4"/><circle cx="1262" cy="406" r="4"/><circle cx="1324" cy="459" r="5"/><circle cx="1404" cy="433" r="5"/><circle cx="1443" cy="417" r="4"/><circle cx="1540" cy="459" r="5"/><circle cx="1610" cy="438" r="5"/><circle cx="1745" cy="407" r="5"/><circle cx="1833" cy="407" r="6"/><circle cx="1852" cy="468" r="6"/><circle cx="1968" cy="407" r="5"/><circle cx="2022" cy="452" r="5"/><circle cx="2143" cy="461" r="5"/><circle cx="2220" cy="402" r="6"/><circle cx="2315" cy="415" r="5"/><circle cx="2390" cy="442" r="6"/><circle cx="2453" cy="436" r="4"/><circle cx="2512" cy="426" r="5"/><circle cx="26" cy="483" r="5"/><circle cx="132" cy="521" r="5"/><circle cx="203" cy="506" r="6"/><circle cx="250" cy="499" r="6"/><circle cx="374" cy="499" r="5"/><circle cx="425" cy="560" r="5"/><circle cx="545" cy="532" r="4"/><circle cx="638" cy="509" r="4"/><circle cx="642" cy="514" r="4"/><circle cx="757" cy="489" r="5"/><circle cx="860" cy="546" r="4"/><circle cx="955" cy="537" r="5"/><circle cx="1024" cy="484" r="5"/><circle cx="1095" cy="501" r="5"/><circle cx="1184" cy="493" r="4"/><circle cx="1203" cy="554" r="4"/><circle cx="1356" cy="525" r="6"/><circle cx="1373" cy="513" r="4"/><circle cx="1457" cy="502" r="4"/><circle cx="1533" cy="516" r="4"/><circle cx="1629" cy="505" r="6"/><circle cx="1695" cy="546" r="5"/><circle cx="1817" cy="536" r="5"/><circle cx="1848" cy="529" r="5"/><circle cx="1941" cy="492" r="6"/><circle cx="2010" cy="507" r="5"/><circle cx="2087" cy="551" r="5"/><circle cx="2216" cy="509" r="5"/><circle cx="2304" cy="545" r="5"/><circle cx="2358" cy="508" r="5"/><circle cx="2419" cy="526" r="4"/><circle cx="2504" cy="532" r="5"/><circle cx="30" cy="614" r="4"/><circle cx="97" cy="626" r="5"/><circle cx="236" cy="596" r="4"/><circle cx="319" cy="614" r="5"/><circle cx="346" cy="607" r="5"/><circle cx="424" cy="626" r="4"/><circle cx="526" cy="609" r="4"/><circle cx="621" cy="632" r="6"/><circle cx="646" cy="627" r="4"/><circle cx="734" cy="607" r="5"/><circle cx="831" cy="604" r="5"/><circle cx="880" cy="640" r="5"/><circle cx="1031" cy="613" r="5"/><circle cx="1095" cy="581" r="4"/><circle cx="1191" cy="628" r="4"/><circle cx="1207" cy="620" r="6"/><circle cx="1332" cy="599" r="6"/><circle cx="1397" cy="623" r="6"/><circle cx="1450" cy="626" r="5"/><circle cx="1583" cy="597" r="5"/><circle cx="1642" cy="572" r="6"/><circle cx="1760" cy="578" r="5"/><circle cx="1808" cy="604" r="4"/><circle cx="1854" cy="582" r="5"/><circle cx="1972" cy="572" r="5"/><circle cx="2076" cy="571" r="6"/><circle cx="2101" cy="594" r="4"/><circle cx="2184" cy="638" r="5"/><circle cx="2256" cy="628" r="5"/><circle cx="2346" cy="626" r="6"/><circle cx="2408" cy="639" r="5"/><circle cx="2503" cy="631" r="5"/><circle cx="69" cy="675" r="4"/><circle cx="105" cy="646" r="4"/><circle cx="211" cy="670" r="5"/><circle cx="274" cy="657" r="5"/><circle cx="330" cy="701" r="6"/><circle cx="437" cy="673" r="6"/><circle cx="523" cy="646" r="5"/><circle cx="575" cy="646" r="4"/><circle cx="644" cy="688" r="6"/><circle cx="720" cy="675" r="4"/><circle cx="802" cy="714" r="6"/><circle cx="907" cy="713" r="4"/><circle cx="999" cy="662" r="6"/><circle cx="1104" cy="671" r="5"/><circle cx="1135" cy="672" r="5"/><circle cx="1264" cy="661" r="6"/><circle cx="1300" cy="645" r="5"/><circle cx="1366" cy="696" r="4"/><circle cx="1448" cy="643" r="5"/><circle cx="1599" cy="647" r="5"/><circle cx="1604" cy="681" r="6"/><circle cx="1754" cy="668" r="4"/><circle cx="1826" cy="653" r="5"/><circle cx="1893" cy="717" r="6"/><circle cx="1991" cy="668" r="4"/><circle cx="2015" cy="644" r="5"/><circle cx="2107" cy="644" r="4"/><circle cx="2167" cy="662" r="6"/><circle cx="2242" cy="696" r="5"/><circle cx="2330" cy="677" r="6"/><circle cx="2476" cy="696" r="5"/><circle cx="2530" cy="718" r="5"/><circle cx="45" cy="736" r="5"/><circle cx="91" cy="799" r="4"/><circle cx="223" cy="754" r="4"/><circle cx="250" cy="752" r="4"/><circle cx="329" cy="737" r="6"/><circle cx="419" cy="735" r="6"/><circle cx="523" cy="775" r="6"/><circle cx="580" cy="738" r="5"/><circle cx="647" cy="764" r="5"/><circle cx="796" cy="773" r="5"/><circle cx="835" cy="742" r="6"/><circle cx="895" cy="732" r="6"/><circle cx="987" cy="799" r="6"/><circle cx="1112" cy="766" r="5"/><circle cx="1147" cy="722" r="5"/><circle cx="1212" cy="729" r="5"/><circle cx="1313" cy="783" r="5"/><circle cx="1396" cy="764" r="5"/><circle cx="1484" cy="782" r="4"/><circle cx="1557" cy="741" r="5"/><circle cx="1668" cy="758" r="4"/><circle cx="1690" cy="790" r="4"/><circle cx="1798" cy="757" r="6"/><circle cx="1899" cy="790" r="4"/><circle cx="1960" cy="769" r="5"/><circle cx="2065" cy="780" r="4"/><circle cx="2136" cy="735" r="5"/><circle cx="2178" cy="776" r="5"/><circle cx="2297" cy="764" r="5"/><circle cx="2328" cy="779" r="5"/><circle cx="2414" cy="786" r="4"/><circle cx="2510" cy="769" r="6"/><circle cx="65" cy="853" r="6"/><circle cx="128" cy="843" r="4"/><circle cx="163" cy="824" r="4"/><circle cx="309" cy="871" r="6"/><circle cx="345" cy="847" r="6"/><circle cx="469" cy="857" r="6"/><circle cx="499" cy="872" r="6"/><circle cx="621" cy="874" r="5"/><circle cx="668" cy="815" r="5"/><circle cx="795" cy="843" r="5"/><circle cx="836" cy="865" r="4"/><circle cx="894" cy="852" r="6"/><circle cx="987" cy="856" r="5"/><circle cx="1077" cy="877" r="4"/><circle cx="1187" cy="829" r="5"/><circle cx="1259" cy="870" r="6"/><circle cx="1327" cy="831" r="4"/><circle cx="1380" cy="868" r="5"/><circle cx="1481" cy="847" r="5"/><circle cx="1568" cy="856" r="5"/><circle cx="1654" cy="850" r="4"/><circle cx="1716" cy="846" r="5"/><circle cx="1798" cy="805" r="5"/><circle cx="1849" cy="839" r="4"/><circle cx="1968" cy="802" r="6"/><circle cx="2067" cy="848" r="6"/><circle cx="2090" cy="867" r="6"/><circle cx="2172" cy="820" r="5"/><circle cx="2268" cy="857" r="4"/><circle cx="2389" cy="855" r="5"/><circle cx="2434" cy="838" r="4"/><circle cx="2511" cy="800" r="4"/><circle cx="23" cy="920" r="6"/><circle cx="115" cy="942" r="4"/><circle cx="231" cy="929" r="5"/><circle cx="299" cy="948" r="6"/><circle cx="337" cy="952" r="4"/><circle cx="476" cy="951" r="5"/><circle cx="505" cy="952" r="6"/><circle cx="572" cy="942" r="6"/><circle cx="641" cy="912" r="5"/><circle cx="770" cy="931" r="5"/><circle cx="820" cy="914" r="4"/><circle cx="920" cy="906" r="5"/><circle cx="1005" cy="956" r="4"/><circle cx="1075" cy="940" r="6"/><circle cx="1173" cy="929" r="4"/><circle cx="1213" cy="933" r="5"/><circle cx="1288" cy="887" r="5"/><circle cx="1374" cy="958" r="6"/><circle cx="1502" cy="905" r="5"/><circle cx="1543" cy="960" r="5"/><circle cx="1623" cy="896" r="5"/><circle cx="1705" cy="923" r="5"/><circle cx="1825" cy="957" r="5"/><circle cx="1844" cy="897" r="6"/><circle cx="1956" cy="892" r="5"/><circle cx="2078" cy="895" r="4"/><circle cx="2116" cy="907" r="4"/><circle cx="2173" cy="906" r="4"/><circle cx="2243" cy="918" r="4"/><circle cx="2346" cy="924" r="5"/><circle cx="2464" cy="954" r="6"/><circle cx="2482" cy="944" r="4"/><circle cx="35" cy="971" r="5"/><circle cx="122" cy="1038" r="4"/><circle cx="169" cy="975" r="5"/><circle cx="317" cy="963" r="4"/><circle cx="374" cy="977" r="6"/><circle cx="437" cy="985" r="5"/><circle cx="525" cy="965" r="5"/><circle cx="632" cy="1002" r="5"/><circle cx="698" cy="970" r="5"/><circle cx="767" cy="986" r="6"/><circle cx="802" cy="968" r="4"/><circle cx="901" cy="1005" r="5"/><circle cx="992" cy="972" r="4"/><circle cx="1082" cy="1032" r="5"/><circle cx="1187" cy="1033" r="4"/><circle cx="1273" cy="983" r="5"/><circle cx="1342" cy="1011" r="6"/><circle cx="1366" cy="1031" r="4"/><circle cx="1482" cy="981" r="4"/><circle cx="1553" cy="1025" r="6"/><circle cx="1643" cy="963" r="4"/><circle cx="1753" cy="1018" r="4"/><circle cx="1777" cy="1002" r="4"/><circle cx="1901" cy="966" r="5"/><circle cx="1954" cy="1017" r="4"/><circle cx="2060" cy="999" r="6"/><circle cx="2137" cy="961" r="6"/><circle cx="2196" cy="1032" r="6"/><circle cx="2318" cy="965" r="6"/><circle cx="2387" cy="990" r="5"/><circle cx="2478" cy="1003" r="5"/><circle cx="2487" cy="1003" r="6"/><circle cx="65" cy="1095" r="5"/><circle cx="156" cy="1080" r="6"/><circle cx="190" cy="1052" r="4"/><circle cx="316" cy="1087" r="6"/><circle cx="376" cy="1100" r="5"/><circle cx="409" cy="1082" r="5"/><circle cx="524" cy="1056" r="5"/><circle cx="574" cy="1076" r="5"/><circle cx="677" cy="1106" r="6"/><circle cx="774" cy="1102" r="5"/><circle cx="825" cy="1043" r="5"/><circle cx="918" cy="1085" r="4"/><circle cx="1022" cy="1108" r="5"/><circle cx="1059" cy="1071" r="4"/><circle cx="1171" cy="1110" r="4"/><circle cx="1228" cy="1099" r="6"/><circle cx="1341" cy="1075" r="4"/><circle cx="1373" cy="1110" r="6"/><circle cx="1470" cy="1114" r="5"/><circle cx="1597" cy="1102" r="4"/><circle cx="1630" cy="1084" r="5"/><circle cx="1690" cy="1081" r="5"/><circle cx="1771" cy="1053" r="5"/><circle cx="1871" cy="1077" r="6"/><circle cx="1982" cy="1116" r="6"/><circle cx="2036" cy="1076" r="6"/><circle cx="2094" cy="1041" r="6"/><circle cx="2236" cy="1074" r="5"/><circle cx="2251" cy="1073" r="6"/><circle cx="2340" cy="1075" r="5"/><circle cx="2427" cy="1041" r="5"/><circle cx="2540" cy="1093" r="5"/><circle cx="8" cy="1138" r="5"/><circle cx="131" cy="1187" r="6"/><circle cx="195" cy="1160" r="5"/><circle cx="278" cy="1151" r="5"/><circle cx="351" cy="1179" r="5"/><circle cx="442" cy="1181" r="5"/><circle cx="496" cy="1133" r="4"/><circle cx="624" cy="1135" r="6"/><circle cx="665" cy="1157" r="4"/><circle cx="759" cy="1150" r="5"/><circle cx="828" cy="1188" r="6"/><circle cx="883" cy="1187" r="6"/><circle cx="1022" cy="1137" r="4"/><circle cx="1058" cy="1156" r="6"/><circle cx="1168" cy="1149" r="5"/><circle cx="1226" cy="1137" r="6"/><circle cx="1359" cy="1127" r="5"/><circle cx="1406" cy="1156" r="4"/><circle cx="1475" cy="1182" r="5"/><circle cx="1557" cy="1142" r="6"/><circle cx="1659" cy="1134" r="4"/><circle cx="1686" cy="1176" r="6"/><circle cx="1773" cy="1132" r="6"/><circle cx="1888" cy="1174" r="5"/><circle cx="1984" cy="1188" r="4"/><circle cx="2015" cy="1138" r="5"/><circle cx="2131" cy="1148" r="6"/><circle cx="2232" cy="1198" r="4"/><circle cx="2309" cy="1183" r="6"/><circle cx="2393" cy="1152" r="5"/><circle cx="2463" cy="1146" r="4"/><circle cx="2537" cy="1177" r="5"/><circle cx="18" cy="1270" r="4"/><circle cx="156" cy="1223" r="5"/><circle cx="223" cy="1209" r="4"/><circle cx="258" cy="1236" r="5"/><circle cx="334" cy="1255" r="6"/><circle cx="474" cy="1246" r="6"/><circle cx="542" cy="1255" r="5"/><circle cx="606" cy="1268" r="6"/><circle cx="661" cy="1232" r="5"/><circle cx="770" cy="1236" r="6"/><circle cx="873" cy="1232" r="4"/><circle cx="932" cy="1271" r="5"/><circle cx="993" cy="1251" r="5"/><circle cx="1115" cy="1270" r="5"/><circle cx="1129" cy="1245" r="6"/><circle cx="1254" cy="1206" r="5"/><circle cx="1326" cy="1265" r="5"/><circle cx="1423" cy="1233" r="4"/><circle cx="1506" cy="1232" r="4"/><circle cx="1529" cy="1258" r="5"/><circle cx="1624" cy="1218" r="5"/><circle cx="1703" cy="1252" r="4"/><circle cx="1799" cy="1206" r="5"/><circle cx="1901" cy="1220" r="5"/><circle cx="1970" cy="1272" r="5"/><circle cx="2071" cy="1239" r="5"/><circle cx="2116" cy="1243" r="4"/><circle cx="2161" cy="1235" r="5"/><circle cx="2270" cy="1209" r="6"/><circle cx="2341" cy="1205" r="4"/><circle cx="2424" cy="1273" r="6"/><circle cx="2558" cy="1266" r="6"/><circle cx="-2" cy="1266" r="6"/><circle cx="68" cy="1280" r="6"/><circle cx="113" cy="1350" r="6"/><circle cx="170" cy="1330" r="6"/><circle cx="301" cy="1345" r="5"/><circle cx="373" cy="1297" r="5"/><circle cx="431" cy="1318" r="6"/><circle cx="514" cy="1337" r="4"/><circle cx="638" cy="1340" r="4"/><circle cx="690" cy="1317" r="4"/><circle cx="785" cy="1283" r="5"/><circle cx="815" cy="1337" r="5"/><circle cx="889" cy="1358" r="6"/><circle cx="1033" cy="1331" r="4"/><circle cx="1077" cy="1320" r="5"/><circle cx="1160" cy="1331" r="6"/><circle cx="1260" cy="1291" r="5"/><circle cx="1347" cy="1288" r="5"/><circle cx="1426" cy="1348" r="5"/><circle cx="1446" cy="1342" r="4"/><circle cx="1572" cy="1349" r="4"/><circle cx="1622" cy="1333" r="5"/><circle cx="1735" cy="1297" r="5"/><circle cx="1830" cy="1286" r="5"/><circle cx="1874" cy="1333" r="5"/><circle cx="1973" cy="1299" r="5"/><circle cx="2064" cy="1354" r="5"/><circle cx="2159" cy="1337" r="5"/><circle cx="2222" cy="1281" r="5"/><circle cx="2279" cy="1341" r="5"/><circle cx="2369" cy="1298" r="6"/><circle cx="2451" cy="1330" r="4"/><circle cx="2505" cy="1284" r="5"/><circle cx="80" cy="1426" r="6"/><circle cx="128" cy="1438" r="6"/><circle cx="128" cy="-2" r="6"/><circle cx="221" cy="1435" r="6"/><circle cx="221" cy="-5" r="6"/><circle cx="296" cy="1404" r="4"/><circle cx="378" cy="1417" r="5"/><circle cx="407" cy="1434" r="5"/><circle cx="506" cy="1428" r="5"/><circle cx="590" cy="1389" r="5"/><circle cx="711" cy="1368" r="4"/><circle cx="744" cy="1434" r="5"/><circle cx="811" cy="1402" r="5"/><circle cx="894" cy="1388" r="5"/><circle cx="1001" cy="1435" r="5"/><circle cx="1089" cy="1407" r="4"/><circle cx="1130" cy="1401" r="5"/><circle cx="1225" cy="1362" r="5"/><circle cx="1281" cy="1391" r="6"/><circle cx="1413" cy="1431" r="5"/><circle cx="1455" cy="1397" r="4"/><circle cx="1563" cy="1437" r="6"/><circle cx="1563" cy="-3" r="6"/><circle cx="1642" cy="1408" r="4"/><circle cx="1685" cy="1408" r="5"/><circle cx="1798" cy="1430" r="6"/><circle cx="1854" cy="1384" r="5"/><circle cx="1980" cy="1406" r="5"/><circle cx="2056" cy="1380" r="4"/><circle cx="2106" cy="1402" r="4"/><circle cx="2239" cy="1371" r="5"/><circle cx="2294" cy="1378" r="6"/><circle cx="2348" cy="1417" r="5"/><circle cx="2414" cy="1423" r="6"/><circle cx="2510" cy="1380" r="5"/><path stroke="#fff" d="M75 23L151 28M75 23L79 83M75 23L108 107M75 23L80 -14M75 23L128 -2M75 1463L80 1426M75 1463L128 1438M151 28L211 31M151 28L80 -14M151 28L128 -2M151 28L221 -5M151 1468L80 1426M151 1468L128 1438M151 1468L221 1435M211 31L217 113M211 31L243 129M211 31L221 -5M211 1471L221 1435M317 19L367 56M317 19L221 -5M317 19L296 -36M317 19L378 -23M317 19L407 -6M317 1459L221 1435M317 1459L296 1404M317 1459L378 1417M317 1459L407 1434M367 56L405 31M367 56L357 128M367 56L407 -6M367 1496L407 1434M405 31L432 97M405 31L378 -23M405 31L407 -6M405 1471L378 1417M405 1471L407 1434M499 43L569 8M499 43L432 97M499 43L480 91M499 43L564 114M499 43L506 -12M499 1483L506 1428M569 8L666 11M569 8L564 114M569 8L506 -12M569 8L590 -51M569 1448L506 1428M569 1448L590 1389M666 11L647 91M666 11L590 -51M666 11L711 -72M666 11L744 -6M666 1451L590 1389M666 1451L711 1368M666 1451L744 1434M794 53L852 4M794 53L746 138M794 53L856 107M794 53L744 -6M794 1493L744 1434M852 4L904 3M852 4L889 -82M852 4L811 -38M852 4L894 -52M852 1444L889 1358M852 1444L811 1402M852 1444L894 1388M904 3L964 16M904 3L889 -82M904 3L894 -52M904 3L1001 -5M904 1443L889 1358M904 1443L894 1388M904 1443L1001 1435M964 16L935 110M964 16L971 99M964 16L894 -52M964 16L1001 -5M964 1456L894 1388M964 1456L1001 1435M1104 32L1175 36M1104 32L1151 119M1104 32L1001 -5M1104 32L1089 -33M1104 32L1130 -39M1104 1472L1001 1435M1104 1472L1089 1407M1104 1472L1130 1401M1175 36L1248 48M1175 36L1151 119M1175 36L1130 -39M1175 1476L1130 1401M1248 48L1295 42M1248 48L1279 109M1248 48L1281 -49M1248 1488L1281 1391M1295 42L1371 7M1295 42L1279 109M1295 42L1344 96M1295 42L1281 -49M1295 1482L1281 1391M1371 7L1344 96M1371 7L1281 -49M1371 7L1413 -9M1371 1447L1281 1391M1371 1447L1413 1431M1515 0L1527 9M1515 0L1413 -9M1515 0L1455 -43M1515 0L1563 -3M1515 1440L1413 1431M1515 1440L1455 1397M1515 1440L1563 1437M1527 9L1628 7M1527 9L1584 100M1527 9L1455 -43M1527 9L1563 -3M1527 1449L1455 1397M1527 1449L1563 1437M1628 7L1731 30M1628 7L1563 -3M1628 7L1642 -32M1628 7L1685 -32M1628 1447L1563 1437M1628 1447L1642 1408M1628 1447L1685 1408M1731 30L1773 62M1731 30L1741 104M1731 30L1685 -32M1731 30L1798 -10M1731 1470L1685 1408M1731 1470L1798 1430M1773 62L1852 5M1773 62L1741 104M1773 62L1822 112M1773 62L1798 -10M1773 1502L1798 1430M1852 5L1901 96M1852 5L1798 -10M1852 5L1854 -56M1852 1445L1798 1430M1852 1445L1854 1384M1968 6L2072 27M1968 6L1901 96M1968 6L1988 83M1968 6L2010 106M1968 6L1980 -34M1968 1446L1980 1406M2072 27L2143 43M2072 27L2010 106M2072 27L2056 -60M2072 27L2106 -38M2072 1467L2056 1380M2072 1467L2106 1402M2143 43L2218 30M2143 43L2139 129M2143 43L2106 -38M2143 1483L2106 1402M2218 30L2266 56M2218 30L2239 110M2218 30L2239 -69M2218 1470L2239 1371M2266 56L2328 52M2266 56L2239 110M2266 56L2293 94M2328 52L2413 49M2328 52L2293 94M2328 52L2367 140M2328 52L2348 -23M2328 1492L2348 1417M2413 49L2492 52M2413 49L2450 92M2413 49L2348 -23M2413 49L2414 -17M2413 1489L2348 1417M2413 1489L2414 1423M2492 52L2450 92M2492 52L2514 120M2492 52L2414 -17M2492 52L2510 -60M2492 1492L2414 1423M2492 1492L2510 1380M79 83L108 107M79 83L-46 120M79 83L80 -14M2639 83L2514 120M79 1523L80 1426M217 113L243 129M217 113L159 197M217 113L220 168M243 129L357 128M243 129L220 168M243 129L281 225M357 128L432 97M357 128L389 160M357 128L411 229M432 97L480 91M432 97L389 160M480 91L564 114M480 91L389 160M564 114L647 91M564 114L590 209M647 91L746 138M647 91L744 -6M647 1531L744 1434M746 138L856 107M746 138L769 232M746 138L834 208M856 107L935 110M856 107L971 99M856 107L834 208M935 110L971 99M935 110L944 228M971 99L1078 133M971 99L1001 -5M971 1539L1001 1435M1078 133L1151 119M1078 133L1099 202M1151 119L1099 202M1151 119L1196 180M1279 109L1344 96M1279 109L1260 183M1279 109L1322 162M1344 96L1379 138M1344 96L1322 162M1379 138L1479 118M1379 138L1322 162M1379 138L1412 188M1379 138L1440 210M1479 118L1584 100M1479 118L1412 188M1479 118L1440 210M1584 100L1611 122M1584 100L1622 188M1611 122L1577 210M1611 122L1622 188M1741 104L1822 112M1741 104L1746 199M1741 104L1793 177M1822 112L1901 96M1822 112L1793 177M1822 112L1867 169M1901 96L1988 83M1901 96L1867 169M1988 83L2010 106M1988 83L1999 182M1988 83L1980 -34M1988 1523L1980 1406M2010 106L1999 182M2010 106L2033 204M2139 129L2239 110M2139 129L2122 161M2239 110L2293 94M2367 140L2450 92M2367 140L2311 201M2367 140L2341 201M2367 140L2452 170M2450 92L2514 120M2450 92L2452 170M2514 120L2452 170M2514 120L2539 236M66 225L159 197M66 225L-21 236M66 225L13 272M66 225L141 246M2626 225L2539 236M159 197L220 168M159 197L141 246M159 197L186 264M220 168L281 225M220 168L186 264M281 225L186 264M281 225L290 276M389 160L411 229M389 160L398 250M411 229L398 250M411 229L417 306M529 218L590 209M529 218L554 288M590 209L644 225M590 209L554 288M590 209L595 268M644 225L595 268M644 225L695 288M644 225L646 325M769 232L834 208M769 232L779 313M769 232L800 249M834 208L800 249M834 208L890 267M944 228L1026 238M944 228L890 267M944 228L1007 292M1026 238L1099 202M1026 238L1007 292M1026 238L1070 295M1026 238L1023 331M1099 202L1196 180M1099 202L1070 295M1196 180L1260 183M1196 180L1165 290M1196 180L1214 260M1260 183L1322 162M1260 183L1214 260M1260 183L1303 279M1322 162L1412 188M1412 188L1440 210M1412 188L1422 261M1440 210L1422 261M1577 210L1622 188M1577 210L1579 272M1622 188L1579 272M1746 199L1793 177M1746 199L1777 270M1793 177L1867 169M1793 177L1777 270M1999 182L2033 204M1999 182L2122 161M1999 182L1980 244M2033 204L2122 161M2033 204L1980 244M2033 204L2099 273M2122 161L2213 224M2213 224L2311 201M2213 224L2190 303M2213 224L2274 299M2213 224L2257 326M2311 201L2341 201M2311 201L2274 299M2311 201L2384 242M2341 201L2384 242M2452 170L2384 242M2452 170L2430 268M2539 236L2573 272M2539 236L2524 294M-21 236L13 272M13 272L-36 294M13 272L74 368M2573 272L2524 294M141 246L186 264M186 264L290 276M290 276L398 250M290 276L317 379M290 276L328 331M398 250L417 306M398 250L328 331M417 306L328 331M417 306L466 395M417 306L483 331M554 288L595 268M554 288L483 331M554 288L587 338M595 268L587 338M595 268L646 325M695 288L779 313M695 288L646 325M779 313L800 249M779 313L784 340M779 313L828 352M800 249L890 267M800 249L784 340M890 267L828 352M890 267L890 379M1007 292L1070 295M1007 292L1023 331M1007 292L1067 370M1070 295L1023 331M1070 295L1067 370M1165 290L1214 260M1165 290L1158 357M1214 260L1303 279M1214 260L1240 359M1303 279L1240 359M1303 279L1330 353M1422 261L1451 316M1422 261L1411 343M1422 261L1493 332M1451 316L1411 343M1451 316L1493 332M1451 316L1537 339M1451 316L1443 417M1579 272L1673 283M1579 272L1493 332M1579 272L1537 339M1673 283L1718 295M1673 283L1663 351M1673 283L1686 368M1718 295L1777 270M1718 295L1663 351M1718 295L1686 368M1718 295L1775 321M1777 270L1883 287M1777 270L1775 321M1883 287L1980 244M1883 287L1903 345M1883 287L1944 362M1980 244L2032 318M2032 318L2099 273M2032 318L1944 362M2032 318L2074 369M2032 318L2089 373M2099 273L2074 369M2099 273L2089 373M2190 303L2274 299M2190 303L2212 388M2190 303L2257 326M2190 303L2220 402M2274 299L2257 326M2384 242L2430 268M2384 242L2388 345M2430 268L2524 294M2430 268L2388 345M2430 268L2455 338M2524 294L2455 338M74 368L106 387M74 368L28 414M74 368L123 423M74 368L26 483M106 387L206 387M106 387L28 414M106 387L123 423M206 387L317 379M206 387L123 423M206 387L199 461M317 379L328 331M317 379L311 425M317 379L393 453M328 331L311 425M466 395L483 331M466 395L393 453M466 395L430 465M466 395L501 433M483 331L587 338M483 331L501 433M587 338L646 325M587 338L616 429M646 325L616 429M784 340L828 352M784 340L762 437M784 340L834 405M828 352L890 379M828 352L834 405M890 379L834 405M890 379L919 435M890 379L985 417M1023 331L1067 370M1023 331L985 417M1067 370L1158 357M1067 370L985 417M1158 357L1240 359M1240 359L1330 353M1240 359L1262 406M1330 353L1411 343M1330 353L1262 406M1330 353L1324 459M1411 343L1404 433M1411 343L1443 417M1493 332L1537 339M1537 339L1610 438M1663 351L1686 368M1663 351L1610 438M1663 351L1745 407M1686 368L1775 321M1686 368L1745 407M1775 321L1745 407M1775 321L1833 407M1903 345L1944 362M1903 345L1833 407M1903 345L1968 407M1944 362L1833 407M1944 362L1968 407M2074 369L2089 373M2074 369L2022 452M2089 373L2022 452M2089 373L2143 461M2212 388L2257 326M2212 388L2143 461M2212 388L2220 402M2212 388L2315 415M2257 326L2220 402M2388 345L2455 338M2388 345L2485 394M2388 345L2390 442M2455 338L2485 394M2455 338L2453 436M2485 394L2453 436M2485 394L2512 426M28 414L-48 426M28 414L26 483M2588 414L2512 426M123 423L199 461M123 423L132 521M199 461L132 521M199 461L203 506M199 461L250 499M311 425L393 453M311 425L250 499M311 425L374 499M393 453L430 465M393 453L374 499M430 465L501 433M430 465L374 499M430 465L425 560M501 433L545 532M616 429L681 464M616 429L638 509M616 429L642 514M681 464L762 437M681 464L638 509M681 464L642 514M681 464L757 489M762 437L834 405M762 437L757 489M834 405L919 435M919 435L985 417M919 435L955 537M919 435L1024 484M985 417L1024 484M1110 465L1175 470M1110 465L1024 484M1110 465L1095 501M1110 465L1184 493M1175 470L1262 406M1175 470L1095 501M1175 470L1184 493M1175 470L1203 554M1262 406L1324 459M1324 459L1404 433M1324 459L1356 525M1324 459L1373 513M1404 433L1443 417M1404 433L1373 513M1404 433L1457 502M1443 417L1540 459M1443 417L1457 502M1540 459L1610 438M1540 459L1457 502M1540 459L1533 516M1540 459L1629 505M1610 438L1533 516M1610 438L1629 505M1745 407L1833 407M1833 407L1852 468M1852 468L1817 536M1852 468L1848 529M1852 468L1941 492M1968 407L2022 452M1968 407L1941 492M2022 452L1941 492M2022 452L2010 507M2143 461L2220 402M2143 461L2087 551M2143 461L2216 509M2220 402L2315 415M2315 415L2390 442M2315 415L2358 508M2390 442L2453 436M2390 442L2358 508M2390 442L2419 526M2453 436L2512 426M2453 436L2419 526M2512 426L2586 483M2512 426L2504 532M-48 426L26 483M26 483L132 521M26 483L-56 532M2586 483L2504 532M132 521L203 506M132 521L250 499M203 506L250 499M203 506L236 596M250 499L236 596M374 499L425 560M425 560L346 607M425 560L424 626M425 560L437 673M545 532L638 509M545 532L642 514M545 532L526 609M638 509L642 514M757 489L860 546M860 546L955 537M860 546L831 604M955 537L1024 484M955 537L1031 613M955 537L999 662M1024 484L1095 501M1095 501L1184 493M1095 501L1095 581M1184 493L1203 554M1203 554L1191 628M1203 554L1207 620M1356 525L1373 513M1356 525L1332 599M1373 513L1457 502M1373 513L1332 599M1457 502L1533 516M1533 516L1629 505M1533 516L1583 597M1629 505L1695 546M1629 505L1642 572M1695 546L1642 572M1695 546L1760 578M1817 536L1848 529M1817 536L1760 578M1817 536L1808 604M1817 536L1854 582M1848 529L1808 604M1848 529L1854 582M1941 492L2010 507M1941 492L1972 572M2010 507L2087 551M2010 507L1972 572M2010 507L2076 571M2087 551L2076 571M2087 551L2101 594M2216 509L2304 545M2304 545L2358 508M2304 545L2346 626M2358 508L2419 526M2358 508L2346 626M2419 526L2504 532M2504 532L2590 614M2504 532L2503 631M-56 532L30 614M30 614L97 626M30 614L-57 631M30 614L69 675M30 614L105 646M2590 614L2503 631M97 626L69 675M97 626L105 646M236 596L319 614M236 596L211 670M236 596L274 657M319 614L346 607M319 614L274 657M319 614L330 701M346 607L424 626M346 607L274 657M346 607L330 701M424 626L437 673M424 626L523 646M424 626L419 735M526 609L621 632M526 609L437 673M526 609L523 646M526 609L575 646M621 632L646 627M621 632L523 646M621 632L575 646M621 632L644 688M646 627L734 607M646 627L575 646M646 627L644 688M646 627L720 675M734 607L831 604M734 607L720 675M831 604L880 640M880 640L802 714M880 640L907 713M880 640L835 742M880 640L895 732M1031 613L1095 581M1031 613L999 662M1031 613L1104 671M1191 628L1207 620M1191 628L1135 672M1191 628L1264 661M1207 620L1135 672M1207 620L1264 661M1207 620L1300 645M1332 599L1397 623M1332 599L1264 661M1332 599L1300 645M1397 623L1450 626M1397 623L1300 645M1397 623L1366 696M1397 623L1448 643M1450 626L1448 643M1583 597L1642 572M1583 597L1599 647M1583 597L1604 681M1642 572L1599 647M1642 572L1604 681M1760 578L1808 604M1760 578L1854 582M1760 578L1754 668M1808 604L1854 582M1808 604L1826 653M1854 582L1826 653M1972 572L1991 668M1972 572L2015 644M2076 571L2101 594M2076 571L2015 644M2076 571L2107 644M2101 594L2184 638M2101 594L2107 644M2184 638L2256 628M2184 638L2107 644M2184 638L2167 662M2184 638L2242 696M2256 628L2346 626M2256 628L2167 662M2256 628L2242 696M2256 628L2330 677M2346 626L2408 639M2346 626L2330 677M2408 639L2503 631M2408 639L2330 677M2408 639L2476 696M2503 631L2476 696M2503 631L2530 718M69 675L105 646M69 675L45 736M105 646L211 670M211 670L274 657M211 670L223 754M211 670L250 752M274 657L330 701M330 701L329 737M330 701L419 735M437 673L523 646M437 673L419 735M523 646L575 646M644 688L720 675M644 688L580 738M644 688L647 764M720 675L802 714M802 714L796 773M802 714L835 742M802 714L895 732M907 713L999 662M907 713L835 742M907 713L895 732M907 713L987 799M999 662L1104 671M1104 671L1135 672M1104 671L1112 766M1104 671L1147 722M1135 672L1147 722M1135 672L1212 729M1264 661L1300 645M1264 661L1212 729M1300 645L1366 696M1366 696L1448 643M1366 696L1313 783M1366 696L1396 764M1599 647L1604 681M1599 647L1557 741M1604 681L1557 741M1604 681L1668 758M1754 668L1826 653M1754 668L1798 757M1826 653L1893 717M1826 653L1798 757M1893 717L1798 757M1893 717L1899 790M1893 717L1960 769M1893 717L1968 802M1991 668L2015 644M1991 668L1960 769M2015 644L2107 644M2107 644L2167 662M2167 662L2242 696M2167 662L2136 735M2242 696L2330 677M2242 696L2297 764M2330 677L2297 764M2476 696L2530 718M2476 696L2510 769M2530 718L2605 736M2530 718L2510 769M2530 718L2511 800M-30 718L45 736M45 736L91 799M45 736L-50 769M2605 736L2510 769M91 799L65 853M91 799L128 843M91 799L163 824M223 754L250 752M223 754L329 737M223 754L163 824M250 752L329 737M250 752L163 824M329 737L419 735M329 737L345 847M419 735L523 775M523 775L580 738M523 775L647 764M523 775L469 857M523 775L499 872M580 738L647 764M580 738L668 815M647 764L621 874M647 764L668 815M796 773L835 742M796 773L895 732M796 773L795 843M796 773L836 865M835 742L895 732M987 799L894 852M987 799L987 856M987 799L1077 877M1112 766L1147 722M1112 766L1212 729M1112 766L1187 829M1147 722L1212 729M1212 729L1187 829M1313 783L1396 764M1313 783L1259 870M1313 783L1327 831M1396 764L1484 782M1396 764L1327 831M1396 764L1380 868M1484 782L1557 741M1484 782L1481 847M1557 741L1668 758M1668 758L1690 790M1690 790L1654 850M1690 790L1716 846M1798 757L1798 805M1798 757L1849 839M1899 790L1960 769M1899 790L1798 805M1899 790L1849 839M1899 790L1968 802M1960 769L2065 780M1960 769L1968 802M2065 780L2136 735M2065 780L2067 848M2065 780L2090 867M2136 735L2178 776M2136 735L2172 820M2178 776L2297 764M2178 776L2172 820M2297 764L2328 779M2297 764L2268 857M2328 779L2414 786M2328 779L2268 857M2328 779L2389 855M2328 779L2434 838M2414 786L2510 769M2414 786L2389 855M2414 786L2434 838M2414 786L2511 800M2510 769L2511 800M65 853L128 843M65 853L163 824M65 853L23 920M65 853L115 942M128 843L163 824M128 843L115 942M309 871L345 847M309 871L231 929M309 871L299 948M309 871L337 952M309 871L317 963M345 847L469 857M345 847L337 952M469 857L499 872M469 857L476 951M499 872L476 951M499 872L505 952M621 874L668 815M621 874L572 942M621 874L641 912M668 815L641 912M795 843L836 865M795 843L894 852M795 843L770 931M795 843L820 914M836 865L894 852M836 865L820 914M836 865L920 906M894 852L987 856M894 852L920 906M987 856L1077 877M987 856L920 906M987 856L1005 956M1077 877L1075 940M1187 829L1259 870M1187 829L1173 929M1187 829L1213 933M1259 870L1327 831M1259 870L1213 933M1259 870L1288 887M1327 831L1380 868M1327 831L1288 887M1380 868L1481 847M1380 868L1288 887M1380 868L1374 958M1481 847L1568 856M1481 847L1502 905M1568 856L1654 850M1568 856L1502 905M1568 856L1543 960M1568 856L1623 896M1654 850L1716 846M1654 850L1623 896M1654 850L1705 923M1716 846L1798 805M1716 846L1705 923M1798 805L1849 839M1798 805L1844 897M1849 839L1844 897M1968 802L2067 848M1968 802L1956 892M2067 848L2090 867M2067 848L2078 895M2067 848L2116 907M2090 867L2172 820M2090 867L2078 895M2090 867L2116 907M2172 820L2268 857M2172 820L2173 906M2268 857L2243 918M2268 857L2346 924M2389 855L2434 838M2389 855L2346 924M2434 838L2511 800M23 920L115 942M23 920L-78 944M23 920L35 971M2583 920L2482 944M115 942L35 971M115 942L169 975M231 929L299 948M231 929L169 975M231 929L317 963M299 948L337 952M299 948L317 963M299 948L374 977M337 952L317 963M337 952L374 977M476 951L505 952M476 951L437 985M476 951L525 965M505 952L572 942M505 952L437 985M505 952L525 965M572 942L641 912M572 942L525 965M572 942L632 1002M641 912L632 1002M641 912L698 970M770 931L820 914M770 931L698 970M770 931L767 986M770 931L802 968M820 914L767 986M820 914L802 968M920 906L1005 956M920 906L901 1005M1005 956L1075 940M1005 956L992 972M1005 956L1082 1032M1075 940L1173 929M1075 940L992 972M1075 940L1082 1032M1173 929L1213 933M1213 933L1288 887M1213 933L1273 983M1288 887L1273 983M1374 958L1273 983M1374 958L1342 1011M1374 958L1366 1031M1374 958L1482 981M1502 905L1543 960M1502 905L1482 981M1543 960L1623 896M1543 960L1482 981M1543 960L1553 1025M1623 896L1705 923M1623 896L1643 963M1705 923L1643 963M1825 957L1844 897M1825 957L1753 1018M1825 957L1777 1002M1825 957L1901 966M1844 897L1956 892M1844 897L1901 966M1956 892L1901 966M2078 895L2116 907M2078 895L2060 999M2116 907L2173 906M2116 907L2137 961M2173 906L2243 918M2173 906L2137 961M2243 918L2318 965M2346 924L2318 965M2346 924L2387 990M2464 954L2482 944M2464 954L2387 990M2464 954L2478 1003M2464 954L2487 1003M2464 954L2427 1041M2482 944L2478 1003M2482 944L2487 1003M35 971L122 1038M122 1038L169 975M122 1038L65 1095M122 1038L156 1080M122 1038L190 1052M169 975L190 1052M317 963L374 977M374 977L437 985M374 977L409 1082M437 985L525 965M437 985L409 1082M525 965L524 1056M632 1002L698 970M632 1002L574 1076M632 1002L677 1106M698 970L767 986M767 986L802 968M767 986L825 1043M802 968L901 1005M802 968L825 1043M901 1005L992 972M901 1005L825 1043M901 1005L918 1085M1082 1032L1187 1033M1082 1032L1022 1108M1082 1032L1059 1071M1187 1033L1273 983M1187 1033L1171 1110M1187 1033L1228 1099M1187 1033L1226 1137M1273 983L1342 1011M1342 1011L1366 1031M1342 1011L1341 1075M1366 1031L1341 1075M1366 1031L1373 1110M1366 1031L1359 1127M1482 981L1553 1025M1553 1025L1597 1102M1553 1025L1630 1084M1753 1018L1777 1002M1753 1018L1771 1053M1777 1002L1771 1053M1901 966L1954 1017M1954 1017L2060 999M1954 1017L1871 1077M2060 999L2137 961M2060 999L2036 1076M2060 999L2094 1041M2137 961L2196 1032M2137 961L2094 1041M2196 1032L2094 1041M2196 1032L2236 1074M2196 1032L2251 1073M2318 965L2387 990M2318 965L2251 1073M2387 990L2340 1075M2387 990L2427 1041M2478 1003L2487 1003M2478 1003L2427 1041M2487 1003L2427 1041M2487 1003L2540 1093M65 1095L156 1080M65 1095L-20 1093M65 1095L8 1138M2625 1095L2540 1093M156 1080L190 1052M156 1080L131 1187M156 1080L195 1160M316 1087L376 1100M316 1087L409 1082M316 1087L278 1151M316 1087L351 1179M376 1100L409 1082M376 1100L351 1179M376 1100L442 1181M409 1082L442 1181M524 1056L574 1076M524 1056L496 1133M574 1076L496 1133M574 1076L624 1135M677 1106L774 1102M677 1106L624 1135M677 1106L665 1157M677 1106L759 1150M774 1102L825 1043M774 1102L759 1150M825 1043L918 1085M918 1085L1022 1108M918 1085L883 1187M1022 1108L1059 1071M1022 1108L1022 1137M1022 1108L1058 1156M1059 1071L1022 1137M1059 1071L1058 1156M1171 1110L1228 1099M1171 1110L1168 1149M1171 1110L1226 1137M1228 1099L1168 1149M1228 1099L1226 1137M1228 1099L1254 1206M1341 1075L1373 1110M1341 1075L1359 1127M1373 1110L1470 1114M1373 1110L1359 1127M1373 1110L1406 1156M1470 1114L1359 1127M1470 1114L1406 1156M1470 1114L1475 1182M1470 1114L1557 1142M1597 1102L1630 1084M1597 1102L1557 1142M1597 1102L1659 1134M1630 1084L1690 1081M1630 1084L1557 1142M1630 1084L1659 1134M1690 1081L1771 1053M1690 1081L1659 1134M1690 1081L1686 1176M1690 1081L1773 1132M1771 1053L1871 1077M1771 1053L1773 1132M1871 1077L1982 1116M1871 1077L1773 1132M1871 1077L1888 1174M1982 1116L2036 1076M1982 1116L1888 1174M1982 1116L1984 1188M1982 1116L2015 1138M2036 1076L2094 1041M2036 1076L2015 1138M2036 1076L2131 1148M2094 1041L2131 1148M2236 1074L2251 1073M2236 1074L2340 1075M2251 1073L2340 1075M2251 1073L2309 1183M2340 1075L2427 1041M2340 1075L2393 1152M2540 1093L2568 1138M2540 1093L2463 1146M2540 1093L2537 1177M-20 1093L8 1138M8 1138L-97 1146M8 1138L-23 1177M2568 1138L2463 1146M2568 1138L2537 1177M131 1187L195 1160M131 1187L156 1223M131 1187L223 1209M131 1187L68 1280M195 1160L278 1151M195 1160L156 1223M195 1160L223 1209M278 1151L351 1179M278 1151L223 1209M278 1151L258 1236M351 1179L442 1181M351 1179L334 1255M442 1181L496 1133M442 1181L474 1246M624 1135L665 1157M624 1135L661 1232M665 1157L759 1150M665 1157L661 1232M759 1150L828 1188M759 1150L770 1236M828 1188L883 1187M828 1188L770 1236M828 1188L873 1232M828 1188L785 1283M883 1187L873 1232M883 1187L932 1271M1022 1137L1058 1156M1022 1137L993 1251M1058 1156L1168 1149M1058 1156L1129 1245M1168 1149L1226 1137M1168 1149L1129 1245M1226 1137L1254 1206M1359 1127L1406 1156M1406 1156L1475 1182M1406 1156L1423 1233M1475 1182L1557 1142M1475 1182L1423 1233M1475 1182L1506 1232M1557 1142L1624 1218M1659 1134L1686 1176M1659 1134L1624 1218M1686 1176L1773 1132M1686 1176L1624 1218M1686 1176L1703 1252M1773 1132L1799 1206M1888 1174L1984 1188M1888 1174L1799 1206M1888 1174L1901 1220M1984 1188L2015 1138M1984 1188L1901 1220M1984 1188L1970 1272M2131 1148L2071 1239M2131 1148L2116 1243M2131 1148L2161 1235M2232 1198L2309 1183M2232 1198L2161 1235M2232 1198L2270 1209M2232 1198L2222 1281M2309 1183L2393 1152M2309 1183L2270 1209M2309 1183L2341 1205M2393 1152L2463 1146M2393 1152L2341 1205M2393 1152L2424 1273M2463 1146L2537 1177M2537 1177L2558 1266M18 1270L-2 1266M18 1270L68 1280M18 1270L-55 1284M2578 1270L2558 1266M2578 1270L2505 1284M156 1223L223 1209M156 1223L68 1280M156 1223L170 1330M223 1209L258 1236M258 1236L334 1255M334 1255L301 1345M334 1255L373 1297M334 1255L431 1318M474 1246L542 1255M474 1246L373 1297M474 1246L431 1318M474 1246L514 1337M542 1255L606 1268M542 1255L514 1337M606 1268L661 1232M606 1268L638 1340M606 1268L690 1317M661 1232L770 1236M661 1232L690 1317M770 1236L785 1283M770 1236L815 1337M873 1232L932 1271M873 1232L785 1283M932 1271L993 1251M993 1251L1115 1270M993 1251L1033 1331M1115 1270L1129 1245M1115 1270L1033 1331M1115 1270L1077 1320M1115 1270L1160 1331M1129 1245L1077 1320M1129 1245L1160 1331M1254 1206L1326 1265M1254 1206L1260 1291M1326 1265L1423 1233M1326 1265L1260 1291M1326 1265L1347 1288M1423 1233L1506 1232M1423 1233L1347 1288M1506 1232L1529 1258M1529 1258L1624 1218M1529 1258L1446 1342M1529 1258L1572 1349M1624 1218L1703 1252M1703 1252L1735 1297M1799 1206L1901 1220M1799 1206L1735 1297M1799 1206L1830 1286M1901 1220L1970 1272M1901 1220L1830 1286M1970 1272L2071 1239M1970 1272L1874 1333M1970 1272L1973 1299M2071 1239L2116 1243M2071 1239L2161 1235M2071 1239L1973 1299M2116 1243L2161 1235M2116 1243L2159 1337M2161 1235L2222 1281M2270 1209L2341 1205M2270 1209L2222 1281M2341 1205L2424 1273M2341 1205L2369 1298M2424 1273L2369 1298M2424 1273L2451 1330M2424 1273L2505 1284M2558 1266L2628 1280M2558 1266L2505 1284M2558 1266L2510 1380M-2 1266L68 1280M68 1280L113 1350M113 1350L170 1330M113 1350L80 1426M113 1350L128 1438M301 1345L373 1297M301 1345L296 1404M373 1297L431 1318M431 1318L514 1337M431 1318L378 1417M514 1337L506 1428M514 1337L590 1389M638 1340L690 1317M638 1340L590 1389M638 1340L711 1368M690 1317L785 1283M690 1317L711 1368M785 1283L815 1337M815 1337L889 1358M815 1337L811 1402M889 1358L811 1402M889 1358L894 1388M1033 1331L1077 1320M1033 1331L1089 1407M1077 1320L1160 1331M1077 1320L1089 1407M1160 1331L1130 1401M1160 1331L1225 1362M1260 1291L1347 1288M1260 1291L1225 1362M1260 1291L1281 1391M1347 1288L1426 1348M1426 1348L1446 1342M1426 1348L1413 1431M1426 1348L1455 1397M1446 1342L1413 1431M1446 1342L1455 1397M1572 1349L1622 1333M1572 1349L1563 1437M1572 1349L1642 1408M1622 1333L1735 1297M1622 1333L1642 1408M1622 1333L1685 1408M1735 1297L1830 1286M1830 1286L1874 1333M1830 1286L1854 1384M1874 1333L1973 1299M1874 1333L1854 1384M1973 1299L2064 1354M1973 1299L1980 1406M2064 1354L2159 1337M2064 1354L1980 1406M2064 1354L2056 1380M2064 1354L2106 1402M2159 1337L2222 1281M2159 1337L2106 1402M2159 1337L2239 1371M2222 1281L2279 1341M2279 1341L2369 1298M2279 1341L2239 1371M2279 1341L2294 1378M2279 1341L2348 1417M2369 1298L2451 1330M2369 1298L2294 1378M2451 1330L2505 1284M2451 1330L2414 1423M2451 1330L2510 1380M2505 1284L2510 1380M80 1426L128 1438M128 1438L221 1435M221 1435L296 1404M296 1404L378 1417M378 1417L407 1434M407 1434L506 1428M506 1428L590 1389M711 1368L744 1434M744 1434L811 1402M811 1402L894 1388M1001 1435L1089 1407M1089 1407L1130 1401M1130 1401L1225 1362M1225 1362L1281 1391M1413 1431L1455 1397M1563 1437L1642 1408M1642 1408L1685 1408M1685 1408L1798 1430M1798 1430L1854 1384M1980 1406L2056 1380M2056 1380L2106 1402M2239 1371L2294 1378M2294 1378L2348 1417M2348 1417L2414 1423M2414 1423L2510 1380"/></svg>