<svg xmlns="http://www.w3.org/2000/svg" width="2560" height="1440" fill="#fff"><circle cx="76" cy="48" r="4"/><circle cx="129" cy="32" r="5"/><circle cx="165" cy="45" r="6"/><circle cx="272" cy="50" r="5"/><circle cx="397" cy="51" r="6"/><circle cx="440" cy="36" r="4"/><circle cx="493" cy="7" r="5"/><circle cx="565" cy="72" r="6"/><circle cx="688" cy="61" r="4"/><circle cx="729" cy="70" r="5"/><circle cx="857" cy="3" r="4"/><circle cx="857" cy="1443" r="4"/><circle cx="893" cy="66" r="5"/><circle cx="981" cy="58" r="5"/><circle cx="1088" cy="18" r="6"/><circle cx="1130" cy="57" r="5"/><circle cx="1237" cy="70" r="5"/><circle cx="1359" cy="16" r="5"/><circle cx="1370" cy="36" r="5"/><circle cx="1497" cy="15" r="5"/><circle cx="1527" cy="21" r="5"/><circle cx="1607" cy="51" r="5"/><circle cx="1745" cy="35" r="5"/><circle cx="1799" cy="58" r="5"/><circle cx="1867" cy="71" r="5"/><circle cx="1977" cy="61" r="5"/><circle cx="2013" cy="51" r="6"/><circle cx="2124" cy="57" r="5"/><circle cx="2185" cy="59" r="5"/><circle cx="2273" cy="36" r="5"/><circle cx="2352" cy="56" r="6"/><circle cx="2458" cy="30" r="5"/><circle cx="2491" cy="33" r="5"/><circle cx="24" cy="127" r="6"/><circle cx="121" cy="125" r="5"/><circle cx="236" cy="146" r="4"/><circle cx="286" cy="100" r="6"/><circle cx="365" cy="81" r="5"/><circle cx="446" cy="83" r="6"/><circle cx="505" cy="112" r="4"/><circle cx="639" cy="107" r="5"/><circle cx="686" cy="156" r="5"/><circle cx="729" cy="117" r="4"/><circle cx="838" cy="157" r="5"/><circle cx="922" cy="113" r="6"/><circle cx="1006" cy="92" r="5"/><circle cx="1096" cy="118" r="6"/><circle cx="1142" cy="158" r="5"/><circle cx="1263" cy="156" r="5"/><circle cx="1295" cy="104" r="4"/><circle cx="1432" cy="101" r="5"/><circle cx="1515" cy="155" r="4"/><circle cx="1589" cy="127" r="4"/><circle cx="1627" cy="88" r="6"/><circle cx="1729" cy="158" r="4"/><circle cx="1775" cy="154" r="5"/><circle cx="1887" cy="155" r="4"/><circle cx="1974" cy="118" r="4"/><circle cx="2027" cy="138" r="5"/><circle cx="2109" cy="137" r="4"/><circle cx="2185" cy="99" r="4"/><circle cx="2263" cy="111" r="5"/><circle cx="2331" cy="88" r="5"/><circle cx="2413" cy="88" r="5"/><circle cx="2540" cy="85" r="6"/><circle cx="14" cy="228" r="5"/><circle cx="156" cy="215" r="5"/><circle cx="195" cy="225" r="5"/><circle cx="257" cy="222" r="5"/><circle cx="344" cy="213" r="5"/><circle cx="461" cy="200" r="6"/><circle cx="481" cy="211" r="5"/><circle cx="569" cy="213" r="6"/><circle cx="654" cy="204" r="5"/><circle cx="721" cy="177" r="5"/><circle cx="873" cy="198" r="4"/><circle cx="954" cy="218" r="5"/><circle cx="969" cy="239" r="4"/><circle cx="1095" cy="206" r="5"/><circle cx="1128" cy="163" r="6"/><circle cx="1206" cy="163" r="5"/><circle cx="1308" cy="192" r="4"/><circle cx="1390" cy="205" r="5"/><circle cx="1473" cy="207" r="4"/><circle cx="1565" cy="220" r="6"/><circle cx="1651" cy="192" r="6"/><circle cx="1719" cy="171" r="6"/><circle cx="1763" cy="185" r="5"/><circle cx="1909" cy="171" r="4"/><circle cx="1963" cy="162" r="6"/><circle cx="2001" cy="188" r="6"/><circle cx="2152" cy="206" r="4"/><circle cx="2201" cy="208" r="5"/><circle cx="2255" cy="201" r="6"/><circle cx="2358" cy="220" r="5"/><circle cx="2451" cy="186" r="5"/><circle cx="2553" cy="219" r="5"/><circle cx="21" cy="311" r="6"/><circle cx="122" cy="303" r="6"/><circle cx="223" cy="280" r="6"/><circle cx="240" cy="268" r="5"/><circle cx="352" cy="260" r="5"/><circle cx="440" cy="243" r="6"/><circle cx="538" cy="269" r="5"/><circle cx="623" cy="258" r="5"/><circle cx="681" cy="261" r="4"/><circle cx="791" cy="291" r="5"/><circle cx="869" cy="274" r="5"/><circle cx="900" cy="260" r="5"/><circle cx="1022" cy="263" r="5"/><circle cx="1057" cy="318" r="6"/><circle cx="1168" cy="243" r="6"/><circle cx="1204" cy="291" r="5"/><circle cx="1296" cy="250" r="5"/><circle cx="1390" cy="259" r="5"/><circle cx="1481" cy="259" r="5"/><circle cx="1582" cy="250" r="5"/><circle cx="1676" cy="277" r="5"/><circle cx="1745" cy="258" r="6"/><circle cx="1778" cy="266" r="4"/><circle cx="1915" cy="268" r="4"/><circle cx="1952" cy="264" r="5"/><circle cx="2005" cy="249" r="4"/><circle cx="2122" cy="280" r="5"/><circle cx="2174" cy="283" r="5"/><circle cx="2302" cy="253" r="5"/><circle cx="2367" cy="253" r="5"/><circle cx="2418" cy="288" r="5"/><circle cx="2488" cy="272" r="5"/><circle cx="26" cy="323" r="4"/><circle cx="90" cy="398" r="4"/><circle cx="209" cy="346" r="5"/><circle cx="248" cy="351" r="5"/><circle cx="355" cy="331" r="6"/><circle cx="437" cy="372" r="4"/><circle cx="537" cy="366" r="5"/><circle cx="629" cy="390" r="5"/><circle cx="652" cy="378" r="6"/><circle cx="799" cy="373" r="5"/><circle cx="839" cy="365" r="6"/><circle cx="953" cy="391" r="4"/><circle cx="1008" cy="362" r="4"/><circle cx="1090" cy="397" r="5"/><circle cx="1153" cy="330" r="5"/><circle cx="1266" cy="389" r="6"/><circle cx="1306" cy="336" r="5"/><circle cx="1397" cy="396" r="5"/><circle cx="1468" cy="397" r="5"/><circle cx="1576" cy="347" r="6"/><circle cx="1635" cy="358" r="4"/><circle cx="1745" cy="351" r="4"/><circle cx="1799" cy="396" r="6"/><circle cx="1856" cy="397" r="6"/><circle cx="1953" cy="320" r="5"/><circle cx="2032" cy="322" r="5"/><circle cx="2093" cy="324" r="5"/><circle cx="2207" cy="320" r="5"/><circle cx="2259" cy="377" r="5"/><circle cx="2400" cy="386" r="5"/><circle cx="2448" cy="386" r="5"/><circle cx="2522" cy="391" r="5"/><circle cx="72" cy="402" r="4"/><circle cx="91" cy="461" r="5"/><circle cx="191" cy="449" r="5"/><circle cx="265" cy="469" r="5"/><circle cx="347" cy="473" r="5"/><circle cx="459" cy="467" r="6"/><circle cx="520" cy="434" r="4"/><circle cx="568" cy="452" r="5"/><circle cx="651" cy="464" r="6"/><circle cx="722" cy="407" r="4"/><circle cx="849" cy="442" r="4"/><circle cx="951" cy="443" r="5"/><circle cx="1014" cy="430" r="6"/><circle cx="1094" cy="444" r="5"/><circle cx="1143" cy="434" r="5"/><circle cx="1213" cy="454" r="5"/><circle cx="1283" cy="404" r="5"/><circle cx="1374" cy="431" r="6"/><circle cx="1455" cy="467" r="6"/><circle cx="1543" cy="455" r="6"/><circle cx="1635" cy="402" r="5"/><circle cx="1685" cy="416" r="4"/><circle cx="1799" cy="417" r="6"/><circle cx="1861" cy="465" r="5"/><circle cx="1972" cy="428" r="6"/><circle cx="2069" cy="454" r="4"/><circle cx="2086" cy="401" r="5"/><circle cx="2165" cy="466" r="6"/><circle cx="2315" cy="443" r="5"/><circle cx="2374" cy="407" r="5"/><circle cx="2473" cy="477" r="5"/><circle cx="2496" cy="401" r="5"/><circle cx="54" cy="556" r="5"/><circle cx="113" cy="529" r="5"/><circle cx="175" cy="560" r="5"/><circle cx="242" cy="513" r="6"/><circle cx="387" cy="538" r="6"/><circle cx="426" cy="481" r="6"/><circle cx="550" cy="481" r="5"/><circle cx="570" cy="545" r="4"/><circle cx="720" cy="510" r="6"/><circle cx="786" cy="515" r="4"/><circle cx="832" cy="515" r="6"/><circle cx="960" cy="480" r="6"/><circle cx="980" cy="531" r="5"/><circle cx="1088" cy="505" r="5"/><circle cx="1174" cy="501" r="5"/><circle cx="1217" cy="542" r="5"/><circle cx="1289" cy="533" r="4"/><circle cx="1390" cy="511" r="4"/><circle cx="1512" cy="554" r="5"/><circle cx="1535" cy="539" r="5"/><circle cx="1674" cy="557" r="5"/><circle cx="1730" cy="528" r="4"/><circle cx="1762" cy="530" r="6"/><circle cx="1902" cy="533" r="6"/><circle cx="1972" cy="512" r="5"/><circle cx="2035" cy="523" r="5"/><circle cx="2086" cy="533" r="5"/><circle cx="2181" cy="486" r="5"/><circle cx="2260" cy="526" r="4"/><circle cx="2352" cy="507" r="4"/><circle cx="2435" cy="501" r="6"/><circle cx="2487" cy="499" r="4"/><circle cx="50" cy="633" r="4"/><circle cx="90" cy="572" r="6"/><circle cx="236" cy="590" r="5"/><circle cx="295" cy="638" r="5"/><circle cx="325" cy="586" r="5"/><circle cx="440" cy="596" r="4"/><circle cx="516" cy="592" r="4"/><circle cx="583" cy="566" r="6"/><circle cx="668" cy="601" r="6"/><circle cx="768" cy="568" r="6"/><circle cx="844" cy="620" r="6"/><circle cx="883" cy="633" r="6"/><circle cx="1009" cy="581" r="4"/><circle cx="1059" cy="613" r="5"/><circle cx="1194" cy="583" r="6"/><circle cx="1258" cy="566" r="6"/><circle cx="1314" cy="622" r="5"/><circle cx="1412" cy="626" r="5"/><circle cx="1495" cy="594" r="6"/><circle cx="1567" cy="600" r="6"/><circle cx="1631" cy="608" r="5"/><circle cx="1684" cy="628" r="6"/><circle cx="1780" cy="636" r="4"/><circle cx="1861" cy="615" r="5"/><circle cx="1937" cy="638" r="5"/><circle cx="2065" cy="598" r="6"/><circle cx="2086" cy="638" r="6"/><circle cx="2174" cy="601" r="5"/><circle cx="2283" cy="567" r="5"/><circle cx="2336" cy="575" r="6"/><circle cx="2452" cy="610" r="6"/><circle cx="2524" cy="571" r="6"/><circle cx="3" cy="707" r="4"/><circle cx="2563" cy="707" r="4"/><circle cx="105" cy="694" r="6"/><circle cx="200" cy="649" r="4"/><circle cx="274" cy="671" r="6"/><circle cx="343" cy="674" r="4"/><circle cx="434" cy="695" r="4"/><circle cx="524" cy="686" r="6"/><circle cx="627" cy="665" r="4"/><circle cx="652" cy="705" r="5"/><circle cx="721" cy="662" r="6"/><circle cx="819" cy="648" r="5"/><circle cx="892" cy="703" r="4"/><circle cx="991" cy="710" r="5"/><circle cx="1049" cy="678" r="5"/><circle cx="1147" cy="702" r="5"/><circle cx="1207" cy="678" r="4"/><circle cx="1302" cy="640" r="5"/><circle cx="1378" cy="674" r="5"/><circle cx="1500" cy="676" r="5"/><circle cx="1599" cy="676" r="5"/><circle cx="1617" cy="684" r="5"/><circle cx="1738" cy="712" r="5"/><circle cx="1817" cy="702" r="6"/><circle cx="1844" cy="690" r="5"/><circle cx="1933" cy="656" r="5"/><circle cx="2037" cy="641" r="5"/><circle cx="2101" cy="706" r="5"/><circle cx="2195" cy="717" r="4"/><circle cx="2264" cy="661" r="5"/><circle cx="2321" cy="663" r="5"/><circle cx="2402" cy="671" r="5"/><circle cx="2552" cy="680" r="6"/><circle cx="59" cy="780" r="5"/><circle cx="154" cy="761" r="5"/><circle cx="181" cy="749" r="4"/><circle cx="287" cy="789" r="4"/><circle cx="389" cy="794" r="5"/><circle cx="434" cy="769" r="5"/><circle cx="529" cy="795" r="5"/><circle cx="635" cy="762" r="4"/><circle cx="667" cy="786" r="6"/><circle cx="784" cy="722" r="5"/><circle cx="844" cy="793" r="4"/><circle cx="881" cy="730" r="5"/><circle cx="1014" cy="791" r="5"/><circle cx="1077" cy="788" r="6"/><circle cx="1128" cy="753" r="5"/><circle cx="1251" cy="795" r="5"/><circle cx="1327" cy="764" r="5"/><circle cx="1409" cy="750" r="4"/><circle cx="1482" cy="733" r="6"/><circle cx="1578" cy="742" r="5"/><circle cx="1672" cy="728" r="6"/><circle cx="1702" cy="791" r="5"/><circle cx="1815" cy="730" r="5"/><circle cx="1872" cy="740" r="6"/><circle cx="1936" cy="780" r="4"/><circle cx="2024" cy="724" r="6"/><circle cx="2151" cy="736" r="4"/><circle cx="2236" cy="766" r="4"/><circle cx="2281" cy="743" r="5"/><circle cx="2361" cy="758" r="6"/><circle cx="2414" cy="739" r="5"/><circle cx="2537" cy="741" r="6"/><circle cx="3" cy="870" r="5"/><circle cx="2563" cy="870" r="5"/><circle cx="113" cy="861" r="4"/><circle cx="166" cy="859" r="5"/><circle cx="253" cy="855" r="5"/><circle cx="376" cy="804" r="5"/><circle cx="459" cy="834" r="4"/><circle cx="502" cy="841" r="6"/><circle cx="564" cy="848" r="4"/><circle cx="645" cy="833" r="5"/><circle cx="792" cy="832" r="5"/><circle cx="876" cy="851" r="5"/><circle cx="881" cy="843" r="6"/><circle cx="1018" cy="848" r="6"/><circle cx="1055" cy="856" r="5"/><circle cx="1190" cy="822" r="4"/><circle cx="1261" cy="839" r="4"/><circle cx="1304" cy="836" r="5"/><circle cx="1376" cy="877" r="6"/><circle cx="1476" cy="865" r="4"/><circle cx="1575" cy="815" r="5"/><circle cx="1602" cy="815" r="4"/><circle cx="1753" cy="871" r="4"/><circle cx="1766" cy="846" r="4"/><circle cx="1843" cy="836" r="5"/><circle cx="1935" cy="848" r="5"/><circle cx="2009" cy="807" r="5"/><circle cx="2118" cy="822" r="5"/><circle cx="2213" cy="816" r="4"/><circle cx="2318" cy="806" r="4"/><circle cx="2382" cy="825" r="5"/><circle cx="2401" cy="836" r="4"/><circle cx="2537" cy="835" r="4"/><circle cx="7" cy="885" r="6"/><circle cx="139" cy="956" r="4"/><circle cx="183" cy="934" r="4"/><circle cx="274" cy="901" r="5"/><circle cx="396" cy="913" r="4"/><circle cx="402" cy="888" r="6"/><circle cx="551" cy="913" r="4"/><circle cx="634" cy="946" r="5"/><circle cx="677" cy="946" r="6"/><circle cx="749" cy="891" r="5"/><circle cx="807" cy="949" r="6"/><circle cx="893" cy="901" r="5"/><circle cx="1036" cy="941" r="6"/><circle cx="1105" cy="904" r="6"/><circle cx="1156" cy="898" r="6"/><circle cx="1230" cy="932" r="5"/><circle cx="1322" cy="914" r="4"/><circle cx="1388" cy="925" r="6"/><circle cx="1464" cy="943" r="5"/><circle cx="1593" cy="927" r="6"/><circle cx="1655" cy="928" r="5"/><circle cx="1748" cy="904" r="6"/><circle cx="1768" cy="915" r="5"/><circle cx="1891" cy="948" r="4"/><circle cx="1993" cy="917" r="6"/><circle cx="2023" cy="889" r="4"/><circle cx="2082" cy="918" r="5"/><circle cx="2174" cy="955" r="5"/><circle cx="2260" cy="895" r="4"/><circle cx="2344" cy="905" r="4"/><circle cx="2425" cy="881" r="5"/><circle cx="2522" cy="884" r="4"/><circle cx="4" cy="1019" r="5"/><circle cx="2564" cy="1019" r="5"/><circle cx="106" cy="989" r="5"/><circle cx="206" cy="1027" r="5"/><circle cx="314" cy="1013" r="6"/><circle cx="396" cy="999" r="5"/><circle cx="420" cy="985" r="5"/><circle cx="537" cy="964" r="4"/><circle cx="631" cy="965" r="5"/><circle cx="714" cy="1015" r="6"/><circle cx="720" cy="1007" r="4"/><circle cx="827" cy="999" r="4"/><circle cx="920" cy="964" r="6"/><circle cx="1001" cy="965" r="5"/><circle cx="1051" cy="991" r="4"/><circle cx="1173" cy="1002" r="5"/><circle cx="1243" cy="1036" r="6"/><circle cx="1353" cy="1034" r="6"/><circle cx="1364" cy="961" r="6"/><circle cx="1492" cy="1000" r="4"/><circle cx="1551" cy="980" r="6"/><circle cx="1644" cy="1034" r="5"/><circle cx="1734" cy="1022" r="4"/><circle cx="1830" cy="980" r="4"/><circle cx="1844" cy="1036" r="4"/><circle cx="1929" cy="991" r="5"/><circle cx="2053" cy="997" r="5"/><circle cx="2125" cy="1002" r="6"/><circle cx="2200" cy="963" r="5"/><circle cx="2311" cy="1013" r="5"/><circle cx="2346" cy="980" r="5"/><circle cx="2407" cy="1019" r="5"/><circle cx="2560" cy="973" r="4"/><circle cx="-0" cy="973" r="4"/><circle cx="76" cy="1080" r="6"/><circle cx="146" cy="1070" r="6"/><circle cx="218" cy="1079" r="4"/><circle cx="253" cy="1041" r="6"/><circle cx="347" cy="1054" r="4"/><circle cx="417" cy="1076" r="6"/><circle cx="484" cy="1043" r="5"/><circle cx="638" cy="1112" r="6"/><circle cx="675" cy="1097" r="6"/><circle cx="793" cy="1075" r="6"/><circle cx="838" cy="1045" r="6"/><circle cx="921" cy="1117" r="6"/><circle cx="980" cy="1105" r="5"/><circle cx="1054" cy="1056" r="5"/><circle cx="1166" cy="1072" r="4"/><circle cx="1250" cy="1112" r="6"/><circle cx="1320" cy="1049" r="6"/><circle cx="1420" cy="1093" r="5"/><circle cx="1497" cy="1073" r="5"/><circle cx="1572" cy="1118" r="6"/><circle cx="1671" cy="1067" r="5"/><circle cx="1691" cy="1111" r="5"/><circle cx="1772" cy="1075" r="5"/><circle cx="1912" cy="1112" r="6"/><circle cx="1929" cy="1069" r="6"/><circle cx="2036" cy="1082" r="4"/><circle cx="2096" cy="1044" r="4"/><circle cx="2211" cy="1044" r="6"/><circle cx="2303" cy="1081" r="6"/><circle cx="2344" cy="1063" r="6"/><circle cx="2479" cy="1113" r="4"/><circle cx="2537" cy="1070" r="6"/><circle cx="74" cy="1150" r="4"/><circle cx="108" cy="1188" r="5"/><circle cx="189" cy="1127" r="6"/><circle cx="296" cy="1161" r="5"/><circle cx="355" cy="1183" r="5"/><circle cx="458" cy="1147" r="5"/><circle cx="526" cy="1145" r="4"/><circle cx="640" cy="1156" r="5"/><circle cx="680" cy="1134" r="5"/><circle cx="723" cy="1127" r="4"/><circle cx="803" cy="1145" r="5"/><circle cx="938" cy="1195" r="4"/><circle cx="1003" cy="1169" r="5"/><circle cx="1087" cy="1181" r="5"/><circle cx="1199" cy="1164" r="6"/><circle cx="1261" cy="1132" r="6"/><circle cx="1311" cy="1180" r="5"/><circle cx="1365" cy="1160" r="6"/><circle cx="1493" cy="1145" r="5"/><circle cx="1548" cy="1125" r="6"/><circle cx="1640" cy="1138" r="5"/><circle cx="1704" cy="1131" r="5"/><circle cx="1769" cy="1131" r="4"/><circle cx="1895" cy="1172" r="4"/><circle cx="1926" cy="1149" r="4"/><circle cx="2072" cy="1155" r="4"/><circle cx="2149" cy="1179" r="5"/><circle cx="2205" cy="1194" r="4"/><circle cx="2314" cy="1136" r="6"/><circle cx="2349" cy="1168" r="5"/><circle cx="2430" cy="1161" r="5"/><circle cx="2498" cy="1143" r="5"/><circle cx="24" cy="1268" r="5"/><circle cx="136" cy="1222" r="5"/><circle cx="206" cy="1272" r="4"/><circle cx="291" cy="1272" r="4"/><circle cx="351" cy="1273" r="5"/><circle cx="417" cy="1265" r="4"/><circle cx="482" cy="1201" r="5"/><circle cx="616" cy="1234" r="5"/><circle cx="702" cy="1218" r="5"/><circle cx="775" cy="1225" r="5"/><circle cx="801" cy="1276" r="4"/><circle cx="888" cy="1218" r="6"/><circle cx="1015" cy="1265" r="5"/><circle cx="1047" cy="1223" r="5"/><circle cx="1163" cy="1236" r="5"/><circle cx="1222" cy="1249" r="5"/><circle cx="1354" cy="1231" r="5"/><circle cx="1410" cy="1273" r="6"/><circle cx="1518" cy="1239" r="6"/><circle cx="1554" cy="1203" r="5"/><circle cx="1601" cy="1277" r="5"/><circle cx="1689" cy="1246" r="6"/><circle cx="1787" cy="1224" r="5"/><circle cx="1896" cy="1270" r="4"/><circle cx="1989" cy="1240" r="5"/><circle cx="2022" cy="1201" r="6"/><circle cx="2094" cy="1254" r="5"/><circle cx="2197" cy="1261" r="6"/><circle cx="2288" cy="1214" r="4"/><circle cx="2335" cy="1219" r="5"/><circle cx="2405" cy="1253" r="4"/><circle cx="2517" cy="1206" r="5"/><circle cx="2" cy="1301" r="5"/><circle cx="2562" cy="1301" r="5"/><circle cx="145" cy="1289" r="5"/><circle cx="229" cy="1323" r="6"/><circle cx="280" cy="1289" r="5"/><circle cx="351" cy="1284" r="5"/><circle cx="408" cy="1313" r="4"/><circle cx="509" cy="1302" r="6"/><circle cx="603" cy="1315" r="5"/><circle cx="648" cy="1291" r="5"/><circle cx="734" cy="1356" r="6"/><circle cx="856" cy="1286" r="6"/><circle cx="940" cy="1326" r="5"/><circle cx="1035" cy="1347" r="5"/><circle cx="1082" cy="1346" r="4"/><circle cx="1194" cy="1326" r="5"/><circle cx="1260" cy="1321" r="5"/><circle cx="1326" cy="1319" r="6"/><circle cx="1391" cy="1286" r="6"/><circle cx="1447" cy="1324" r="5"/><circle cx="1524" cy="1297" r="4"/><circle cx="1606" cy="1325" r="5"/><circle cx="1748" cy="1351" r="5"/><circle cx="1795" cy="1305" r="5"/><circle cx="1856" cy="1343" r="6"/><circle cx="1929" cy="1293" r="5"/><circle cx="2040" cy="1310" r="5"/><circle cx="2151" cy="1289" r="6"/><circle cx="2165" cy="1322" r="6"/><circle cx="2318" cy="1324" r="6"/><circle cx="2369" cy="1310" r="4"/><circle cx="2438" cy="1284" r="5"/><circle cx="2557" cy="1353" r="4"/><circle cx="-3" cy="1353" r="4"/><circle cx="23" cy="1410" r="6"/><circle cx="111" cy="1427" r="4"/><circle cx="191" cy="1365" r="4"/><circle cx="257" cy="1381" r="5"/><circle cx="362" cy="1400" r="5"/><circle cx="406" cy="1373" r="4"/><circle cx="545" cy="1407" r="5"/><circle cx="589" cy="1373" r="5"/><circle cx="656" cy="1396" r="6"/><circle cx="798" cy="1415" r="6"/><circle cx="811" cy="1414" r="4"/><circle cx="919" cy="1406" r="5"/><circle cx="1015" cy="1383" r="4"/><circle cx="1051" cy="1375" r="4"/><circle cx="1174" cy="1437" r="5"/><circle cx="1174" cy="-3" r="5"/><circle cx="1239" cy="1388" r="6"/><circle cx="1290" cy="1428" r="6"/><circle cx="1382" cy="1402" r="4"/><circle cx="1452" cy="1434" r="5"/><circle cx="1540" cy="1415" r="6"/><circle cx="1603" cy="1391" r="4"/><circle cx="1760" cy="1383" r="4"/><circle cx="1778" cy="1416" r="4"/><circle cx="1888" cy="1376" r="6"/><circle cx="1965" cy="1436" r="5"/><circle cx="1965" cy="-4" r="5"/><circle cx="2039" cy="1416" r="4"/><circle cx="2158" cy="1433" r="5"/><circle cx="2214" cy="1406" r="6"/><circle cx="2299" cy="1384" r="5"/><circle cx="2385" cy="1373" r="4"/><circle cx="2405" cy="1362" r="5"/><circle cx="2485" cy="1408" r="5"/><path stroke="#fff" d="M76 48L129 32M76 48L165 45M76 48L24 127M76 48L23 -30M76 48L111 -13M76 1488L23 1410M76 1488L111 1427M129 32L165 45M129 32L121 125M129 32L111 -13M129 1472L111 1427M165 45L272 50M165 45L121 125M165 45L111 -13M165 1485L111 1427M272 50L236 146M272 50L286 100M272 50L365 81M272 50L257 -59M272 1490L257 1381M397 51L440 36M397 51L493 7M397 51L365 81M397 51L446 83M397 51L362 -40M397 1491L362 1400M440 36L493 7M440 36L365 81M440 36L446 83M440 36L362 -40M440 1476L362 1400M493 7L565 72M493 7L446 83M493 7L545 -33M493 1447L545 1407M565 72L505 112M565 72L639 107M565 72L545 -33M565 1512L545 1407M688 61L729 70M688 61L639 107M688 61L729 117M688 61L656 -44M688 1501L656 1396M729 70L686 156M729 70L729 117M729 70L798 -25M729 1510L798 1415M857 3L893 66M857 3L798 -25M857 3L811 -26M857 3L919 -34M857 1443L798 1415M857 1443L811 1414M857 1443L919 1406M893 66L981 58M893 66L838 157M893 66L922 113M893 66L919 -34M893 1506L919 1406M981 58L922 113M981 58L1006 92M981 58L919 -34M981 1498L919 1406M1088 18L1130 57M1088 18L1006 92M1088 18L1051 -65M1088 18L1174 -3M1088 1458L1051 1375M1088 1458L1174 1437M1130 57L1096 118M1130 57L1174 -3M1130 1497L1174 1437M1237 70L1263 156M1237 70L1295 104M1237 70L1206 163M1237 70L1174 -3M1237 70L1290 -12M1237 1510L1174 1437M1237 1510L1290 1428M1359 16L1370 36M1359 16L1432 101M1359 16L1290 -12M1359 16L1382 -38M1359 16L1452 -6M1359 1456L1290 1428M1359 1456L1382 1402M1359 1456L1452 1434M1370 36L1432 101M1370 36L1290 -12M1370 36L1382 -38M1370 1476L1290 1428M1370 1476L1382 1402M1497 15L1527 21M1497 15L1432 101M1497 15L1452 -6M1497 15L1540 -25M1497 1455L1452 1434M1497 1455L1540 1415M1527 21L1607 51M1527 21L1627 88M1527 21L1452 -6M1527 21L1540 -25M1527 1461L1452 1434M1527 1461L1540 1415M1607 51L1589 127M1607 51L1627 88M1607 51L1540 -25M1607 51L1603 -49M1607 1491L1540 1415M1607 1491L1603 1391M1745 35L1799 58M1745 35L1760 -57M1745 35L1778 -24M1745 1475L1760 1383M1745 1475L1778 1416M1799 58L1867 71M1799 58L1775 154M1799 58L1778 -24M1799 1498L1778 1416M1867 71L1887 155M1867 71L1909 171M1977 61L2013 51M1977 61L1974 118M1977 61L2027 138M1977 61L1965 -4M1977 1501L1965 1436M2013 51L1974 118M2013 51L2027 138M2013 51L1965 -4M2013 51L2039 -24M2013 1491L1965 1436M2013 1491L2039 1416M2124 57L2185 59M2124 57L2109 137M2124 57L2185 99M2124 57L2158 -7M2124 1497L2158 1433M2185 59L2273 36M2185 59L2185 99M2185 59L2158 -7M2185 59L2214 -34M2185 1499L2158 1433M2185 1499L2214 1406M2273 36L2352 56M2273 36L2263 111M2273 36L2331 88M2273 36L2214 -34M2273 1476L2214 1406M2352 56L2458 30M2352 56L2263 111M2352 56L2331 88M2352 56L2413 88M2458 30L2491 33M2458 30L2413 88M2458 30L2540 85M2458 30L2485 -32M2458 1470L2485 1408M2491 33L2413 88M2491 33L2540 85M2491 33L2583 -30M2491 33L2485 -32M-69 33L23 -30M-69 1473L23 1410M2491 1473L2583 1410M2491 1473L2485 1408M24 127L121 125M24 127L-20 85M24 127L14 228M24 127L-7 219M2584 127L2540 85M2584 127L2553 219M121 125L156 215M236 146L286 100M236 146L195 225M236 146L257 222M286 100L365 81M365 81L446 83M446 83L505 112M505 112L461 200M505 112L481 211M639 107L686 156M639 107L729 117M686 156L729 117M686 156L654 204M686 156L721 177M729 117L721 177M838 157L922 113M838 157L721 177M838 157L873 198M922 113L1006 92M922 113L873 198M1006 92L1096 118M1096 118L1142 158M1096 118L1095 206M1096 118L1128 163M1142 158L1095 206M1142 158L1128 163M1142 158L1206 163M1263 156L1295 104M1263 156L1206 163M1263 156L1308 192M1263 156L1296 250M1295 104L1308 192M1432 101L1515 155M1515 155L1589 127M1515 155L1473 207M1515 155L1565 220M1589 127L1627 88M1589 127L1565 220M1729 158L1775 154M1729 158L1651 192M1729 158L1719 171M1729 158L1763 185M1775 154L1719 171M1775 154L1763 185M1887 155L1909 171M1887 155L1963 162M1974 118L2027 138M1974 118L1963 162M1974 118L2001 188M2027 138L1963 162M2027 138L2001 188M2109 137L2185 99M2109 137L2152 206M2185 99L2263 111M2263 111L2331 88M2263 111L2255 201M2331 88L2413 88M2413 88L2451 186M14 228L-7 219M14 228L21 311M14 228L-72 272M14 228L26 323M2574 228L2553 219M2574 228L2488 272M156 215L195 225M156 215L122 303M195 225L257 222M195 225L223 280M195 225L240 268M257 222L344 213M257 222L223 280M257 222L240 268M344 213L352 260M344 213L440 243M344 213L355 331M461 200L481 211M461 200L569 213M461 200L440 243M461 200L538 269M481 211L569 213M481 211L440 243M481 211L538 269M569 213L654 204M569 213L538 269M569 213L623 258M654 204L721 177M654 204L623 258M654 204L681 261M721 177L681 261M873 198L954 218M873 198L869 274M873 198L900 260M954 218L969 239M954 218L869 274M954 218L900 260M954 218L1022 263M969 239L900 260M969 239L1022 263M1095 206L1128 163M1095 206L1022 263M1095 206L1168 243M1128 163L1206 163M1128 163L1168 243M1206 163L1168 243M1308 192L1390 205M1308 192L1296 250M1390 205L1473 207M1390 205L1390 259M1390 205L1481 259M1473 207L1390 259M1473 207L1481 259M1565 220L1651 192M1565 220L1481 259M1565 220L1582 250M1651 192L1719 171M1651 192L1582 250M1651 192L1676 277M1719 171L1763 185M1719 171L1745 258M1763 185L1745 258M1763 185L1778 266M1909 171L1963 162M1963 162L2001 188M2001 188L1952 264M2001 188L2005 249M2152 206L2201 208M2152 206L2255 201M2152 206L2122 280M2152 206L2174 283M2201 208L2255 201M2201 208L2174 283M2201 208L2302 253M2255 201L2358 220M2255 201L2302 253M2358 220L2451 186M2358 220L2302 253M2358 220L2367 253M2358 220L2418 288M2451 186L2553 219M2451 186L2488 272M2553 219L2581 311M2553 219L2488 272M-7 219L21 311M21 311L122 303M21 311L26 323M21 311L-38 391M2581 311L2522 391M122 303L26 323M122 303L209 346M223 280L240 268M223 280L209 346M223 280L248 351M240 268L209 346M240 268L248 351M352 260L440 243M352 260L355 331M440 243L538 269M538 269L623 258M623 258L681 261M681 261L791 291M791 291L869 274M791 291L799 373M791 291L839 365M869 274L900 260M869 274L839 365M900 260L839 365M1022 263L1057 318M1022 263L1008 362M1057 318L1008 362M1057 318L1090 397M1057 318L1153 330M1168 243L1204 291M1168 243L1153 330M1204 291L1296 250M1204 291L1153 330M1204 291L1266 389M1296 250L1390 259M1296 250L1306 336M1390 259L1481 259M1481 259L1582 250M1582 250L1676 277M1582 250L1576 347M1676 277L1745 258M1676 277L1635 358M1745 258L1778 266M1745 258L1745 351M1778 266L1745 351M1915 268L1952 264M1915 268L2005 249M1915 268L1953 320M1952 264L2005 249M1952 264L1953 320M1952 264L2032 322M2005 249L1953 320M2005 249L2032 322M2122 280L2174 283M2122 280L2093 324M2122 280L2207 320M2174 283L2093 324M2174 283L2207 320M2302 253L2367 253M2367 253L2418 288M2418 288L2488 272M2418 288L2400 386M26 323L-38 391M26 323L72 402M2586 323L2522 391M90 398L72 402M90 398L91 461M209 346L248 351M209 346L191 449M248 351L355 331M248 351L191 449M355 331L437 372M437 372L537 366M437 372L459 467M437 372L426 481M537 366L629 390M537 366L652 378M537 366L520 434M537 366L568 452M629 390L652 378M629 390L568 452M629 390L651 464M629 390L722 407M652 378L651 464M652 378L722 407M799 373L839 365M799 373L722 407M799 373L849 442M839 365L849 442M953 391L1008 362M953 391L951 443M953 391L1014 430M953 391L960 480M1008 362L1014 430M1090 397L1153 330M1090 397L1094 444M1090 397L1143 434M1266 389L1306 336M1266 389L1213 454M1266 389L1283 404M1306 336L1397 396M1306 336L1283 404M1397 396L1468 397M1397 396L1283 404M1397 396L1374 431M1397 396L1455 467M1468 397L1576 347M1468 397L1374 431M1468 397L1455 467M1468 397L1543 455M1576 347L1635 358M1576 347L1543 455M1576 347L1635 402M1635 358L1635 402M1635 358L1685 416M1745 351L1799 396M1745 351L1685 416M1745 351L1799 417M1799 396L1856 397M1799 396L1685 416M1799 396L1799 417M1799 396L1861 465M1856 397L1799 417M1856 397L1861 465M1856 397L1972 428M1953 320L2032 322M1953 320L1972 428M2032 322L2093 324M2032 322L2086 401M2093 324L2207 320M2093 324L2086 401M2207 320L2259 377M2259 377L2315 443M2400 386L2448 386M2400 386L2315 443M2400 386L2374 407M2400 386L2496 401M2448 386L2522 391M2448 386L2374 407M2448 386L2473 477M2448 386L2496 401M2522 391L2496 401M72 402L91 461M91 461L191 449M91 461L113 529M91 461L90 572M191 449L265 469M191 449L242 513M265 469L347 473M265 469L242 513M347 473L387 538M347 473L426 481M459 467L520 434M459 467L387 538M459 467L426 481M459 467L550 481M520 434L568 452M520 434L426 481M520 434L550 481M568 452L651 464M568 452L550 481M651 464L722 407M651 464L720 510M849 442L951 443M849 442L786 515M849 442L832 515M951 443L1014 430M951 443L960 480M951 443L980 531M1014 430L1094 444M1014 430L960 480M1094 444L1143 434M1094 444L1088 505M1143 434L1213 454M1143 434L1088 505M1143 434L1174 501M1213 454L1283 404M1213 454L1174 501M1213 454L1217 542M1283 404L1374 431M1374 431L1455 467M1374 431L1390 511M1455 467L1543 455M1455 467L1390 511M1543 455L1512 554M1543 455L1535 539M1635 402L1685 416M1799 417L1861 465M1799 417L1762 530M1861 465L1902 533M1972 428L2069 454M1972 428L1972 512M1972 428L2035 523M2069 454L2086 401M2069 454L2165 466M2069 454L2035 523M2069 454L2086 533M2086 401L2165 466M2165 466L2086 533M2165 466L2181 486M2315 443L2374 407M2315 443L2260 526M2315 443L2352 507M2473 477L2496 401M2473 477L2435 501M2473 477L2487 499M2473 477L2524 571M2496 401L2487 499M54 556L113 529M54 556L50 633M54 556L90 572M54 556L-36 571M2614 556L2524 571M113 529L175 560M113 529L90 572M175 560L242 513M175 560L90 572M175 560L236 590M175 560L200 649M242 513L236 590M242 513L325 586M387 538L426 481M387 538L325 586M387 538L440 596M550 481L570 545M550 481L583 566M570 545L516 592M570 545L583 566M720 510L786 515M720 510L832 515M720 510L668 601M720 510L768 568M786 515L832 515M786 515L768 568M832 515L768 568M832 515L844 620M960 480L980 531M960 480L1009 581M980 531L1088 505M980 531L1009 581M980 531L1059 613M1088 505L1174 501M1088 505L1059 613M1174 501L1217 542M1174 501L1194 583M1217 542L1289 533M1217 542L1194 583M1217 542L1258 566M1289 533L1194 583M1289 533L1258 566M1289 533L1314 622M1512 554L1535 539M1512 554L1495 594M1512 554L1567 600M1535 539L1495 594M1535 539L1567 600M1674 557L1730 528M1674 557L1762 530M1674 557L1631 608M1674 557L1684 628M1730 528L1762 530M1902 533L1972 512M1902 533L1861 615M1902 533L1937 638M1972 512L2035 523M2035 523L2086 533M2035 523L2065 598M2086 533L2065 598M2181 486L2260 526M2181 486L2174 601M2260 526L2352 507M2260 526L2283 567M2260 526L2336 575M2352 507L2435 501M2352 507L2283 567M2352 507L2336 575M2435 501L2487 499M2435 501L2452 610M2487 499L2452 610M2487 499L2524 571M50 633L90 572M50 633L3 707M50 633L105 694M50 633L-8 680M2610 633L2552 680M236 590L295 638M236 590L200 649M236 590L274 671M295 638L325 586M295 638L200 649M295 638L274 671M295 638L343 674M325 586L274 671M325 586L343 674M440 596L516 592M440 596L434 695M516 592L583 566M516 592L524 686M583 566L668 601M583 566L627 665M668 601L627 665M668 601L721 662M768 568L844 620M768 568L819 648M844 620L883 633M844 620L819 648M844 620L892 703M883 633L819 648M883 633L892 703M883 633L881 730M1009 581L1059 613M1059 613L1049 678M1059 613L1147 702M1194 583L1258 566M1194 583L1207 678M1258 566L1314 622M1258 566L1302 640M1314 622L1412 626M1314 622L1302 640M1314 622L1378 674M1412 626L1495 594M1412 626L1302 640M1412 626L1378 674M1412 626L1500 676M1495 594L1567 600M1495 594L1500 676M1567 600L1631 608M1567 600L1599 676M1631 608L1684 628M1631 608L1599 676M1631 608L1617 684M1684 628L1617 684M1684 628L1672 728M1780 636L1738 712M1780 636L1817 702M1861 615L1937 638M1861 615L1844 690M1861 615L1933 656M1937 638L1933 656M1937 638L2037 641M2065 598L2086 638M2065 598L2174 601M2065 598L2037 641M2086 638L2174 601M2086 638L2037 641M2086 638L2101 706M2086 638L2024 724M2174 601L2264 661M2283 567L2336 575M2283 567L2264 661M2336 575L2321 663M2452 610L2524 571M2452 610L2402 671M2524 571L2552 680M3 707L-8 680M3 707L59 780M3 707L-23 741M2563 707L2552 680M2563 707L2537 741M105 694L-8 680M105 694L59 780M105 694L154 761M105 694L181 749M2665 694L2552 680M200 649L274 671M200 649L181 749M274 671L343 674M343 674L434 695M434 695L524 686M434 695L434 769M524 686L627 665M524 686L529 795M627 665L652 705M627 665L721 662M652 705L721 662M652 705L635 762M652 705L667 786M721 662L819 648M721 662L784 722M819 648L784 722M892 703L991 710M892 703L881 730M991 710L1049 678M991 710L1014 791M1049 678L1147 702M1049 678L1128 753M1147 702L1207 678M1147 702L1077 788M1147 702L1128 753M1207 678L1302 640M1207 678L1128 753M1302 640L1378 674M1378 674L1327 764M1378 674L1409 750M1500 676L1482 733M1599 676L1617 684M1599 676L1578 742M1599 676L1672 728M1617 684L1578 742M1617 684L1672 728M1738 712L1817 702M1738 712L1672 728M1738 712L1702 791M1738 712L1815 730M1817 702L1844 690M1817 702L1815 730M1817 702L1872 740M1844 690L1933 656M1844 690L1815 730M1844 690L1872 740M2037 641L2101 706M2037 641L2024 724M2101 706L2195 717M2101 706L2024 724M2101 706L2151 736M2195 717L2264 661M2195 717L2151 736M2195 717L2236 766M2264 661L2321 663M2264 661L2281 743M2321 663L2402 671M2321 663L2281 743M2402 671L2414 739M2552 680L2537 741M59 780L154 761M59 780L-23 741M59 780L3 870M2619 780L2537 741M154 761L181 749M154 761L113 861M154 761L166 859M287 789L389 794M287 789L253 855M287 789L376 804M287 789L274 901M389 794L434 769M389 794L376 804M389 794L459 834M389 794L402 888M434 769L376 804M434 769L459 834M434 769L502 841M529 795L635 762M529 795L459 834M529 795L502 841M529 795L564 848M635 762L667 786M635 762L645 833M667 786L564 848M667 786L645 833M784 722L844 793M784 722L881 730M784 722L792 832M844 793L881 730M844 793L792 832M844 793L876 851M844 793L881 843M881 730L881 843M1014 791L1077 788M1014 791L1018 848M1014 791L1055 856M1077 788L1128 753M1077 788L1018 848M1077 788L1055 856M1128 753L1190 822M1251 795L1327 764M1251 795L1190 822M1251 795L1261 839M1251 795L1304 836M1251 795L1156 898M1327 764L1409 750M1327 764L1261 839M1327 764L1304 836M1409 750L1482 733M1482 733L1578 742M1482 733L1476 865M1482 733L1575 815M1578 742L1575 815M1578 742L1602 815M1672 728L1702 791M1702 791L1753 871M1702 791L1766 846M1815 730L1872 740M1815 730L1843 836M1872 740L1936 780M1872 740L1843 836M1936 780L2024 724M1936 780L1935 848M1936 780L2009 807M2024 724L2009 807M2151 736L2236 766M2151 736L2118 822M2151 736L2213 816M2236 766L2281 743M2236 766L2213 816M2236 766L2318 806M2281 743L2361 758M2281 743L2318 806M2361 758L2414 739M2361 758L2318 806M2361 758L2382 825M2361 758L2401 836M2414 739L2537 741M2414 739L2382 825M2414 739L2401 836M2537 741L2537 835M3 870L-23 835M3 870L7 885M3 870L-38 884M3 870L-0 973M2563 870L2537 835M2563 870L2522 884M2563 870L2560 973M113 861L166 859M113 861L7 885M166 859L253 855M166 859L139 956M166 859L183 934M253 855L274 901M376 804L402 888M459 834L502 841M459 834L402 888M502 841L564 848M502 841L551 913M564 848L645 833M564 848L551 913M792 832L876 851M792 832L881 843M792 832L749 891M876 851L881 843M876 851L893 901M881 843L893 901M1018 848L1055 856M1018 848L1036 941M1018 848L1105 904M1055 856L1036 941M1055 856L1105 904M1190 822L1261 839M1190 822L1156 898M1261 839L1304 836M1261 839L1230 932M1304 836L1376 877M1304 836L1322 914M1376 877L1322 914M1376 877L1388 925M1376 877L1364 961M1476 865L1575 815M1476 865L1464 943M1575 815L1602 815M1575 815L1593 927M1602 815L1593 927M1753 871L1766 846M1753 871L1843 836M1753 871L1748 904M1753 871L1768 915M1766 846L1843 836M1766 846L1748 904M1766 846L1768 915M1843 836L1935 848M1935 848L2009 807M1935 848L1993 917M1935 848L2023 889M2009 807L2023 889M2118 822L2213 816M2213 816L2260 895M2318 806L2382 825M2318 806L2401 836M2382 825L2401 836M2382 825L2425 881M2401 836L2425 881M2537 835L2567 885M2537 835L2522 884M-23 835L7 885M7 885L-38 884M7 885L-0 973M2567 885L2522 884M2567 885L2560 973M139 956L183 934M139 956L106 989M183 934L274 901M183 934L106 989M396 913L402 888M396 913L396 999M396 913L420 985M402 888L420 985M551 913L634 946M551 913L537 964M551 913L631 965M634 946L677 946M634 946L537 964M634 946L631 965M677 946L749 891M677 946L631 965M677 946L714 1015M677 946L720 1007M749 891L807 949M807 949L893 901M807 949L827 999M807 949L838 1045M893 901L827 999M893 901L920 964M1036 941L1105 904M1036 941L1001 965M1036 941L1051 991M1105 904L1156 898M1105 904L1051 991M1156 898L1230 932M1156 898L1173 1002M1230 932L1322 914M1230 932L1173 1002M1322 914L1388 925M1322 914L1364 961M1388 925L1464 943M1388 925L1353 1034M1388 925L1364 961M1464 943L1492 1000M1464 943L1551 980M1593 927L1655 928M1593 927L1551 980M1655 928L1748 904M1655 928L1768 915M1748 904L1768 915M1748 904L1830 980M1768 915L1830 980M1891 948L1830 980M1891 948L1929 991M1993 917L2023 889M1993 917L2082 918M1993 917L1929 991M1993 917L2053 997M2023 889L2082 918M2082 918L2174 955M2082 918L2053 997M2174 955L2260 895M2174 955L2125 1002M2174 955L2200 963M2174 955L2211 1044M2260 895L2344 905M2260 895L2200 963M2344 905L2425 881M2344 905L2346 980M2425 881L2522 884M2522 884L2560 973M4 1019L106 989M4 1019L-0 973M4 1019L76 1080M4 1019L-23 1070M2564 1019L2560 973M2564 1019L2537 1070M106 989L76 1080M106 989L146 1070M206 1027L314 1013M206 1027L146 1070M206 1027L218 1079M206 1027L253 1041M206 1027L189 1127M314 1013L396 999M314 1013L253 1041M314 1013L347 1054M396 999L420 985M396 999L347 1054M396 999L417 1076M420 985L417 1076M420 985L484 1043M537 964L631 965M537 964L484 1043M631 965L714 1015M714 1015L720 1007M714 1015L675 1097M714 1015L793 1075M827 999L920 964M827 999L793 1075M827 999L838 1045M920 964L1001 965M920 964L838 1045M1001 965L1051 991M1001 965L1054 1056M1051 991L1054 1056M1173 1002L1243 1036M1173 1002L1166 1072M1243 1036L1166 1072M1243 1036L1250 1112M1243 1036L1320 1049M1243 1036L1261 1132M1353 1034L1364 961M1353 1034L1320 1049M1353 1034L1420 1093M1364 961L1320 1049M1492 1000L1551 980M1492 1000L1497 1073M1551 980L1644 1034M1644 1034L1734 1022M1644 1034L1671 1067M1734 1022L1671 1067M1734 1022L1772 1075M1830 980L1844 1036M1830 980L1929 991M1844 1036L1929 991M1844 1036L1772 1075M1844 1036L1912 1112M1844 1036L1929 1069M1929 991L1929 1069M2053 997L2125 1002M2053 997L2036 1082M2053 997L2096 1044M2125 1002L2200 963M2125 1002L2096 1044M2125 1002L2211 1044M2200 963L2211 1044M2311 1013L2346 980M2311 1013L2407 1019M2311 1013L2211 1044M2311 1013L2303 1081M2311 1013L2344 1063M2346 980L2407 1019M2346 980L2344 1063M2407 1019L2344 1063M2407 1019L2479 1113M2560 973L2537 1070M76 1080L146 1070M76 1080L-23 1070M76 1080L74 1150M2636 1080L2537 1070M146 1070L218 1079M146 1070L189 1127M218 1079L253 1041M218 1079L189 1127M218 1079L296 1161M253 1041L347 1054M253 1041L189 1127M347 1054L417 1076M347 1054L296 1161M417 1076L484 1043M417 1076L458 1147M484 1043L458 1147M484 1043L526 1145M638 1112L675 1097M638 1112L640 1156M638 1112L680 1134M638 1112L723 1127M638 1112L616 1234M675 1097L640 1156M675 1097L680 1134M675 1097L723 1127M793 1075L838 1045M793 1075L723 1127M793 1075L803 1145M838 1045L921 1117M921 1117L980 1105M921 1117L938 1195M921 1117L1003 1169M921 1117L888 1218M980 1105L1054 1056M980 1105L938 1195M980 1105L1003 1169M1166 1072L1199 1164M1250 1112L1320 1049M1250 1112L1199 1164M1250 1112L1261 1132M1250 1112L1311 1180M1320 1049L1261 1132M1420 1093L1497 1073M1420 1093L1365 1160M1420 1093L1493 1145M1497 1073L1572 1118M1497 1073L1493 1145M1497 1073L1548 1125M1572 1118L1493 1145M1572 1118L1548 1125M1572 1118L1640 1138M1572 1118L1554 1203M1671 1067L1691 1111M1671 1067L1640 1138M1671 1067L1704 1131M1691 1111L1772 1075M1691 1111L1640 1138M1691 1111L1704 1131M1691 1111L1769 1131M1772 1075L1704 1131M1772 1075L1769 1131M1912 1112L1929 1069M1912 1112L1895 1172M1912 1112L1926 1149M1929 1069L2036 1082M1929 1069L1926 1149M2036 1082L2096 1044M2036 1082L2072 1155M2211 1044L2303 1081M2303 1081L2344 1063M2303 1081L2314 1136M2303 1081L2349 1168M2344 1063L2314 1136M2479 1113L2537 1070M2479 1113L2430 1161M2479 1113L2498 1143M2537 1070L2498 1143M74 1150L108 1188M74 1150L136 1222M108 1188L189 1127M108 1188L24 1268M108 1188L136 1222M108 1188L145 1289M296 1161L355 1183M355 1183L458 1147M458 1147L526 1145M458 1147L482 1201M526 1145L482 1201M640 1156L680 1134M640 1156L616 1234M640 1156L702 1218M680 1134L723 1127M680 1134L702 1218M723 1127L803 1145M803 1145L775 1225M803 1145L888 1218M938 1195L1003 1169M938 1195L888 1218M1003 1169L1087 1181M1003 1169L1047 1223M1087 1181L1015 1265M1087 1181L1047 1223M1087 1181L1163 1236M1199 1164L1261 1132M1199 1164L1163 1236M1199 1164L1222 1249M1261 1132L1311 1180M1311 1180L1365 1160M1311 1180L1354 1231M1365 1160L1354 1231M1365 1160L1391 1286M1493 1145L1548 1125M1493 1145L1554 1203M1548 1125L1640 1138M1548 1125L1554 1203M1640 1138L1704 1131M1704 1131L1769 1131M1769 1131L1787 1224M1895 1172L1926 1149M1926 1149L2022 1201M2072 1155L2149 1179M2072 1155L2022 1201M2149 1179L2205 1194M2149 1179L2094 1254M2149 1179L2197 1261M2149 1179L2151 1289M2205 1194L2197 1261M2205 1194L2288 1214M2314 1136L2349 1168M2314 1136L2288 1214M2314 1136L2335 1219M2349 1168L2430 1161M2349 1168L2288 1214M2349 1168L2335 1219M2430 1161L2498 1143M2430 1161L2405 1253M2430 1161L2517 1206M2498 1143L2517 1206M24 1268L136 1222M24 1268L-43 1206M24 1268L2 1301M24 1268L-3 1353M2584 1268L2517 1206M2584 1268L2557 1353M136 1222L206 1272M136 1222L145 1289M206 1272L291 1272M206 1272L145 1289M206 1272L229 1323M206 1272L280 1289M291 1272L351 1273M291 1272L229 1323M291 1272L280 1289M291 1272L351 1284M351 1273L417 1265M351 1273L280 1289M351 1273L351 1284M351 1273L408 1313M417 1265L482 1201M417 1265L351 1284M417 1265L408 1313M417 1265L509 1302M482 1201L509 1302M616 1234L702 1218M616 1234L603 1315M616 1234L648 1291M702 1218L775 1225M702 1218L648 1291M775 1225L801 1276M775 1225L856 1286M801 1276L888 1218M801 1276L734 1356M801 1276L856 1286M888 1218L856 1286M1015 1265L1047 1223M1015 1265L940 1326M1015 1265L1035 1347M1015 1265L1082 1346M1047 1223L1163 1236M1163 1236L1222 1249M1163 1236L1194 1326M1222 1249L1194 1326M1222 1249L1260 1321M1354 1231L1410 1273M1354 1231L1326 1319M1354 1231L1391 1286M1410 1273L1518 1239M1410 1273L1326 1319M1410 1273L1391 1286M1410 1273L1447 1324M1518 1239L1554 1203M1518 1239L1601 1277M1518 1239L1447 1324M1518 1239L1524 1297M1554 1203L1601 1277M1601 1277L1689 1246M1601 1277L1524 1297M1601 1277L1606 1325M1689 1246L1787 1224M1689 1246L1606 1325M1689 1246L1748 1351M1787 1224L1795 1305M1896 1270L1989 1240M1896 1270L1856 1343M1896 1270L1929 1293M1896 1270L1888 1376M1989 1240L2022 1201M1989 1240L1929 1293M1989 1240L2040 1310M2022 1201L2094 1254M2022 1201L2040 1310M2094 1254L2040 1310M2094 1254L2151 1289M2094 1254L2165 1322M2197 1261L2288 1214M2197 1261L2151 1289M2197 1261L2165 1322M2288 1214L2335 1219M2335 1219L2405 1253M2335 1219L2318 1324M2405 1253L2369 1310M2405 1253L2438 1284M2517 1206L2562 1301M2517 1206L2438 1284M-43 1206L2 1301M2 1301L-3 1353M2562 1301L2557 1353M145 1289L191 1365M229 1323L280 1289M229 1323L191 1365M229 1323L257 1381M280 1289L351 1284M351 1284L408 1313M408 1313L362 1400M408 1313L406 1373M509 1302L603 1315M509 1302L545 1407M509 1302L589 1373M603 1315L648 1291M603 1315L589 1373M603 1315L656 1396M648 1291L734 1356M648 1291L656 1396M734 1356L656 1396M734 1356L798 1415M734 1356L811 1414M856 1286L940 1326M940 1326L1035 1347M940 1326L919 1406M940 1326L1015 1383M1035 1347L1082 1346M1035 1347L1015 1383M1035 1347L1051 1375M1082 1346L1015 1383M1082 1346L1051 1375M1194 1326L1260 1321M1194 1326L1239 1388M1260 1321L1326 1319M1260 1321L1239 1388M1326 1319L1391 1286M1326 1319L1239 1388M1391 1286L1447 1324M1447 1324L1524 1297M1524 1297L1606 1325M1606 1325L1603 1391M1748 1351L1795 1305M1748 1351L1856 1343M1748 1351L1760 1383M1748 1351L1778 1416M1795 1305L1856 1343M1795 1305L1760 1383M1795 1305L1888 1376M1856 1343L1929 1293M1856 1343L1888 1376M1929 1293L2040 1310M1929 1293L1888 1376M2040 1310L2151 1289M2151 1289L2165 1322M2165 1322L2158 1433M2165 1322L2214 1406M2318 1324L2369 1310M2318 1324L2299 1384M2318 1324L2385 1373M2318 1324L2405 1362M2369 1310L2438 1284M2369 1310L2385 1373M2369 1310L2405 1362M2438 1284L2385 1373M2438 1284L2405 1362M2557 1353L2583 1410M2557 1353L2485 1408M-3 1353L23 1410M23 1410L111 1427M23 1410L-75 1408M2583 1410L2485 1408M111 1427L191 1365M191 1365L257 1381M257 1381L362 1400M362 1400L406 1373M545 1407L589 1373M589 1373L656 1396M798 1415L811 1414M919 1406L1015 1383M1015 1383L1051 1375M1174 1437L1239 1388M1239 1388L1290 1428M1290 1428L1382 1402M1382 1402L1452 1434M1452 1434L1540 1415M1540 1415L1603 1391M1760 1383L1778 1416M1888 1376L1965 1436M1965 1436L2039 1416M2039 1416L2158 1433M2158 1433L2214 1406M2214 1406L2299 1384M2299 1384L2385 1373M2385 1373L2405 1362M2405 1362L2485 1408"/></svg>