<svg xmlns="http://www.w3.org/2000/svg" width="2560" height="1440" fill="#fff"><circle cx="75" cy="77" r="5"/><circle cx="91" cy="26" r="5"/><circle cx="198" cy="31" r="4"/><circle cx="298" cy="47" r="4"/><circle cx="372" cy="1" r="5"/><circle cx="372" cy="1441" r="5"/><circle cx="402" cy="37" r="5"/><circle cx="519" cy="19" r="6"/><circle cx="576" cy="59" r="4"/><circle cx="706" cy="14" r="5"/><circle cx="777" cy="35" r="5"/><circle cx="873" cy="11" r="6"/><circle cx="946" cy="49" r="6"/><circle cx="980" cy="78" r="5"/><circle cx="1092" cy="41" r="5"/><circle cx="1125" cy="3" r="4"/><circle cx="1125" cy="1443" r="4"/><circle cx="1234" cy="35" r="4"/><circle cx="1305" cy="73" r="5"/><circle cx="1396" cy="15" r="5"/><circle cx="1440" cy="78" r="5"/><circle cx="1525" cy="54" r="4"/><circle cx="1616" cy="13" r="4"/><circle cx="1717" cy="58" r="6"/><circle cx="1774" cy="27" r="4"/><circle cx="1868" cy="76" r="6"/><circle cx="1934" cy="14" r="5"/><circle cx="2073" cy="4" r="5"/><circle cx="2073" cy="1444" r="5"/><circle cx="2129" cy="5" r="4"/><circle cx="2211" cy="42" r="5"/><circle cx="2301" cy="30" r="6"/><circle cx="2341" cy="43" r="5"/><circle cx="2406" cy="66" r="6"/><circle cx="2483" cy="22" r="5"/><circle cx="70" cy="142" r="4"/><circle cx="93" cy="122" r="5"/><circle cx="181" cy="88" r="5"/><circle cx="260" cy="124" r="5"/><circle cx="362" cy="144" r="6"/><circle cx="418" cy="101" r="4"/><circle cx="493" cy="139" r="5"/><circle cx="622" cy="118" r="5"/><circle cx="688" cy="86" r="6"/><circle cx="776" cy="84" r="5"/><circle cx="825" cy="130" r="5"/><circle cx="914" cy="105" r="4"/><circle cx="968" cy="101" r="5"/><circle cx="1074" cy="112" r="6"/><circle cx="1184" cy="86" r="5"/><circle cx="1242" cy="123" r="6"/><circle cx="1339" cy="83" r="5"/><circle cx="1400" cy="134" r="4"/><circle cx="1500" cy="80" r="4"/><circle cx="1536" cy="133" r="4"/><circle cx="1655" cy="86" r="5"/><circle cx="1720" cy="144" r="6"/><circle cx="1787" cy="95" r="4"/><circle cx="1898" cy="84" r="4"/><circle cx="1943" cy="97" r="6"/><circle cx="2015" cy="118" r="5"/><circle cx="2148" cy="99" r="6"/><circle cx="2189" cy="129" r="4"/><circle cx="2315" cy="114" r="4"/><circle cx="2338" cy="151" r="4"/><circle cx="2469" cy="121" r="5"/><circle cx="2506" cy="129" r="5"/><circle cx="58" cy="225" r="6"/><circle cx="149" cy="217" r="4"/><circle cx="207" cy="213" r="5"/><circle cx="297" cy="198" r="5"/><circle cx="358" cy="205" r="4"/><circle cx="465" cy="227" r="5"/><circle cx="498" cy="222" r="5"/><circle cx="633" cy="231" r="4"/><circle cx="679" cy="231" r="4"/><circle cx="722" cy="178" r="6"/><circle cx="814" cy="225" r="5"/><circle cx="943" cy="213" r="6"/><circle cx="968" cy="198" r="5"/><circle cx="1041" cy="216" r="6"/><circle cx="1139" cy="170" r="5"/><circle cx="1243" cy="182" r="4"/><circle cx="1313" cy="177" r="6"/><circle cx="1415" cy="190" r="4"/><circle cx="1515" cy="185" r="5"/><circle cx="1551" cy="211" r="4"/><circle cx="1677" cy="211" r="4"/><circle cx="1741" cy="220" r="5"/><circle cx="1811" cy="162" r="5"/><circle cx="1919" cy="236" r="6"/><circle cx="1976" cy="188" r="5"/><circle cx="2063" cy="173" r="5"/><circle cx="2105" cy="188" r="5"/><circle cx="2185" cy="176" r="6"/><circle cx="2288" cy="213" r="5"/><circle cx="2400" cy="163" r="5"/><circle cx="2420" cy="170" r="5"/><circle cx="2484" cy="224" r="6"/><circle cx="58" cy="245" r="5"/><circle cx="150" cy="312" r="5"/><circle cx="178" cy="275" r="5"/><circle cx="288" cy="245" r="4"/><circle cx="333" cy="263" r="5"/><circle cx="479" cy="247" r="4"/><circle cx="492" cy="265" r="6"/><circle cx="610" cy="283" r="5"/><circle cx="679" cy="312" r="4"/><circle cx="789" cy="282" r="6"/><circle cx="868" cy="266" r="5"/><circle cx="940" cy="246" r="5"/><circle cx="993" cy="262" r="4"/><circle cx="1112" cy="256" r="5"/><circle cx="1169" cy="269" r="6"/><circle cx="1274" cy="298" r="6"/><circle cx="1359" cy="244" r="6"/><circle cx="1377" cy="320" r="4"/><circle cx="1447" cy="303" r="4"/><circle cx="1599" cy="283" r="4"/><circle cx="1645" cy="262" r="6"/><circle cx="1740" cy="248" r="4"/><circle cx="1823" cy="266" r="4"/><circle cx="1885" cy="289" r="6"/><circle cx="1958" cy="315" r="4"/><circle cx="2026" cy="244" r="5"/><circle cx="2153" cy="275" r="5"/><circle cx="2167" cy="274" r="6"/><circle cx="2285" cy="253" r="5"/><circle cx="2333" cy="305" r="4"/><circle cx="2466" cy="293" r="5"/><circle cx="2503" cy="269" r="5"/><circle cx="70" cy="390" r="4"/><circle cx="105" cy="369" r="6"/><circle cx="191" cy="338" r="5"/><circle cx="317" cy="386" r="4"/><circle cx="385" cy="332" r="5"/><circle cx="428" cy="377" r="5"/><circle cx="516" cy="360" r="5"/><circle cx="606" cy="394" r="6"/><circle cx="660" cy="384" r="4"/><circle cx="753" cy="378" r="5"/><circle cx="874" cy="329" r="5"/><circle cx="895" cy="358" r="5"/><circle cx="988" cy="360" r="6"/><circle cx="1108" cy="391" r="5"/><circle cx="1129" cy="376" r="6"/><circle cx="1239" cy="358" r="5"/><circle cx="1300" cy="380" r="4"/><circle cx="1391" cy="338" r="5"/><circle cx="1469" cy="327" r="6"/><circle cx="1550" cy="325" r="4"/><circle cx="1604" cy="393" r="4"/><circle cx="1683" cy="394" r="6"/><circle cx="1834" cy="330" r="5"/><circle cx="1876" cy="341" r="5"/><circle cx="1930" cy="334" r="4"/><circle cx="2010" cy="337" r="5"/><circle cx="2126" cy="352" r="5"/><circle cx="2206" cy="353" r="6"/><circle cx="2281" cy="351" r="5"/><circle cx="2338" cy="358" r="5"/><circle cx="2413" cy="349" r="4"/><circle cx="2536" cy="390" r="6"/><circle cx="54" cy="474" r="5"/><circle cx="102" cy="400" r="6"/><circle cx="164" cy="418" r="4"/><circle cx="297" cy="446" r="6"/><circle cx="360" cy="470" r="4"/><circle cx="421" cy="464" r="6"/><circle cx="507" cy="457" r="4"/><circle cx="590" cy="404" r="5"/><circle cx="697" cy="419" r="5"/><circle cx="755" cy="421" r="6"/><circle cx="864" cy="412" r="4"/><circle cx="913" cy="414" r="5"/><circle cx="1011" cy="434" r="5"/><circle cx="1093" cy="410" r="5"/><circle cx="1157" cy="424" r="4"/><circle cx="1231" cy="435" r="4"/><circle cx="1283" cy="401" r="6"/><circle cx="1429" cy="437" r="5"/><circle cx="1502" cy="439" r="4"/><circle cx="1536" cy="418" r="6"/><circle cx="1612" cy="437" r="5"/><circle cx="1690" cy="467" r="6"/><circle cx="1810" cy="410" r="5"/><circle cx="1903" cy="426" r="4"/><circle cx="1923" cy="460" r="4"/><circle cx="2013" cy="437" r="4"/><circle cx="2083" cy="478" r="5"/><circle cx="2224" cy="451" r="4"/><circle cx="2287" cy="474" r="5"/><circle cx="2340" cy="412" r="5"/><circle cx="2474" cy="458" r="4"/><circle cx="2527" cy="468" r="6"/><circle cx="22" cy="500" r="5"/><circle cx="89" cy="541" r="4"/><circle cx="229" cy="559" r="5"/><circle cx="251" cy="541" r="6"/><circle cx="325" cy="490" r="6"/><circle cx="438" cy="483" r="6"/><circle cx="552" cy="552" r="5"/><circle cx="617" cy="484" r="5"/><circle cx="667" cy="504" r="5"/><circle cx="746" cy="518" r="5"/><circle cx="854" cy="488" r="6"/><circle cx="917" cy="526" r="5"/><circle cx="1028" cy="520" r="4"/><circle cx="1071" cy="530" r="5"/><circle cx="1196" cy="481" r="5"/><circle cx="1203" cy="556" r="6"/><circle cx="1308" cy="518" r="4"/><circle cx="1438" cy="558" r="6"/><circle cx="1507" cy="495" r="6"/><circle cx="1551" cy="558" r="5"/><circle cx="1602" cy="548" r="5"/><circle cx="1695" cy="558" r="6"/><circle cx="1799" cy="481" r="4"/><circle cx="1913" cy="542" r="6"/><circle cx="1936" cy="528" r="6"/><circle cx="2048" cy="536" r="4"/><circle cx="2084" cy="529" r="6"/><circle cx="2172" cy="501" r="4"/><circle cx="2259" cy="527" r="5"/><circle cx="2356" cy="556" r="6"/><circle cx="2455" cy="538" r="5"/><circle cx="2509" cy="556" r="4"/><circle cx="42" cy="575" r="6"/><circle cx="110" cy="615" r="6"/><circle cx="170" cy="606" r="5"/><circle cx="265" cy="590" r="4"/><circle cx="340" cy="600" r="4"/><circle cx="408" cy="609" r="5"/><circle cx="540" cy="587" r="5"/><circle cx="560" cy="615" r="4"/><circle cx="691" cy="626" r="6"/><circle cx="771" cy="614" r="5"/><circle cx="809" cy="631" r="5"/><circle cx="939" cy="618" r="4"/><circle cx="1013" cy="563" r="5"/><circle cx="1073" cy="620" r="4"/><circle cx="1171" cy="573" r="5"/><circle cx="1225" cy="622" r="5"/><circle cx="1287" cy="563" r="5"/><circle cx="1383" cy="593" r="4"/><circle cx="1460" cy="615" r="6"/><circle cx="1571" cy="562" r="6"/><circle cx="1679" cy="625" r="4"/><circle cx="1695" cy="629" r="6"/><circle cx="1812" cy="591" r="4"/><circle cx="1861" cy="620" r="6"/><circle cx="1992" cy="564" r="6"/><circle cx="2028" cy="624" r="6"/><circle cx="2137" cy="629" r="4"/><circle cx="2230" cy="631" r="5"/><circle cx="2311" cy="606" r="4"/><circle cx="2337" cy="635" r="6"/><circle cx="2469" cy="585" r="5"/><circle cx="2533" cy="606" r="6"/><circle cx="48" cy="719" r="5"/><circle cx="153" cy="707" r="5"/><circle cx="164" cy="664" r="4"/><circle cx="279" cy="684" r="4"/><circle cx="358" cy="644" r="4"/><circle cx="458" cy="679" r="5"/><circle cx="502" cy="695" r="5"/><circle cx="564" cy="686" r="5"/><circle cx="643" cy="650" r="5"/><circle cx="769" cy="655" r="5"/><circle cx="832" cy="665" r="6"/><circle cx="947" cy="689" r="5"/><circle cx="1020" cy="717" r="5"/><circle cx="1080" cy="660" r="4"/><circle cx="1132" cy="665" r="5"/><circle cx="1245" cy="674" r="5"/><circle cx="1342" cy="718" r="4"/><circle cx="1414" cy="643" r="6"/><circle cx="1479" cy="714" r="5"/><circle cx="1529" cy="673" r="5"/><circle cx="1653" cy="711" r="5"/><circle cx="1724" cy="704" r="5"/><circle cx="1775" cy="643" r="5"/><circle cx="1879" cy="648" r="6"/><circle cx="1957" cy="705" r="5"/><circle cx="2057" cy="686" r="5"/><circle cx="2102" cy="671" r="5"/><circle cx="2175" cy="699" r="5"/><circle cx="2312" cy="670" r="5"/><circle cx="2376" cy="693" r="5"/><circle cx="2454" cy="700" r="5"/><circle cx="2501" cy="663" r="5"/><circle cx="51" cy="778" r="6"/><circle cx="90" cy="783" r="5"/><circle cx="235" cy="770" r="5"/><circle cx="271" cy="764" r="5"/><circle cx="330" cy="770" r="4"/><circle cx="442" cy="735" r="5"/><circle cx="541" cy="722" r="5"/><circle cx="584" cy="725" r="5"/><circle cx="644" cy="768" r="6"/><circle cx="749" cy="768" r="5"/><circle cx="804" cy="748" r="5"/><circle cx="882" cy="747" r="5"/><circle cx="1026" cy="757" r="5"/><circle cx="1062" cy="763" r="6"/><circle cx="1174" cy="771" r="5"/><circle cx="1202" cy="762" r="5"/><circle cx="1284" cy="791" r="5"/><circle cx="1434" cy="784" r="6"/><circle cx="1489" cy="720" r="6"/><circle cx="1569" cy="725" r="6"/><circle cx="1676" cy="761" r="5"/><circle cx="1758" cy="759" r="4"/><circle cx="1817" cy="781" r="5"/><circle cx="1856" cy="721" r="5"/><circle cx="1943" cy="765" r="5"/><circle cx="2007" cy="734" r="6"/><circle cx="2110" cy="798" r="5"/><circle cx="2237" cy="781" r="6"/><circle cx="2303" cy="771" r="6"/><circle cx="2340" cy="756" r="5"/><circle cx="2459" cy="770" r="5"/><circle cx="2537" cy="743" r="4"/><circle cx="16" cy="817" r="6"/><circle cx="116" cy="856" r="5"/><circle cx="202" cy="821" r="6"/><circle cx="259" cy="869" r="6"/><circle cx="346" cy="877" r="4"/><circle cx="463" cy="870" r="6"/><circle cx="554" cy="815" r="5"/><circle cx="624" cy="837" r="5"/><circle cx="689" cy="819" r="5"/><circle cx="741" cy="828" r="5"/><circle cx="874" cy="875" r="6"/><circle cx="916" cy="814" r="5"/><circle cx="1037" cy="841" r="6"/><circle cx="1048" cy="802" r="5"/><circle cx="1141" cy="871" r="6"/><circle cx="1266" cy="825" r="6"/><circle cx="1303" cy="873" r="5"/><circle cx="1439" cy="821" r="6"/><circle cx="1519" cy="806" r="4"/><circle cx="1576" cy="805" r="6"/><circle cx="1657" cy="877" r="5"/><circle cx="1701" cy="860" r="5"/><circle cx="1791" cy="827" r="4"/><circle cx="1871" cy="818" r="5"/><circle cx="1967" cy="828" r="5"/><circle cx="2009" cy="852" r="5"/><circle cx="2132" cy="816" r="4"/><circle cx="2225" cy="875" r="5"/><circle cx="2243" cy="811" r="6"/><circle cx="2322" cy="800" r="4"/><circle cx="2471" cy="843" r="4"/><circle cx="2504" cy="836" r="5"/><circle cx="74" cy="904" r="5"/><circle cx="103" cy="948" r="5"/><circle cx="233" cy="905" r="5"/><circle cx="315" cy="899" r="5"/><circle cx="343" cy="924" r="6"/><circle cx="404" cy="880" r="6"/><circle cx="530" cy="883" r="5"/><circle cx="565" cy="931" r="4"/><circle cx="713" cy="887" r="4"/><circle cx="786" cy="928" r="5"/><circle cx="868" cy="922" r="4"/><circle cx="952" cy="890" r="4"/><circle cx="992" cy="918" r="6"/><circle cx="1044" cy="910" r="6"/><circle cx="1187" cy="941" r="5"/><circle cx="1279" cy="897" r="4"/><circle cx="1329" cy="934" r="6"/><circle cx="1418" cy="922" r="5"/><circle cx="1509" cy="906" r="6"/><circle cx="1595" cy="912" r="5"/><circle cx="1664" cy="928" r="4"/><circle cx="1692" cy="925" r="6"/><circle cx="1827" cy="895" r="5"/><circle cx="1893" cy="929" r="5"/><circle cx="1957" cy="937" r="4"/><circle cx="2072" cy="955" r="6"/><circle cx="2087" cy="950" r="4"/><circle cx="2186" cy="939" r="6"/><circle cx="2261" cy="932" r="5"/><circle cx="2372" cy="919" r="5"/><circle cx="2478" cy="909" r="5"/><circle cx="2489" cy="907" r="4"/><circle cx="43" cy="1039" r="5"/><circle cx="147" cy="968" r="4"/><circle cx="240" cy="1033" r="5"/><circle cx="282" cy="983" r="4"/><circle cx="400" cy="961" r="5"/><circle cx="429" cy="992" r="5"/><circle cx="543" cy="1010" r="5"/><circle cx="564" cy="999" r="4"/><circle cx="663" cy="960" r="6"/><circle cx="743" cy="985" r="6"/><circle cx="858" cy="991" r="5"/><circle cx="889" cy="974" r="4"/><circle cx="966" cy="989" r="4"/><circle cx="1104" cy="989" r="4"/><circle cx="1131" cy="966" r="6"/><circle cx="1231" cy="993" r="5"/><circle cx="1303" cy="1034" r="5"/><circle cx="1374" cy="977" r="4"/><circle cx="1451" cy="1000" r="5"/><circle cx="1548" cy="966" r="5"/><circle cx="1635" cy="985" r="5"/><circle cx="1686" cy="974" r="5"/><circle cx="1826" cy="1010" r="6"/><circle cx="1881" cy="1035" r="4"/><circle cx="1986" cy="1004" r="4"/><circle cx="2026" cy="996" r="6"/><circle cx="2121" cy="982" r="5"/><circle cx="2190" cy="1000" r="4"/><circle cx="2264" cy="1009" r="6"/><circle cx="2370" cy="992" r="5"/><circle cx="2450" cy="969" r="5"/><circle cx="2512" cy="978" r="6"/><circle cx="19" cy="1119" r="5"/><circle cx="118" cy="1048" r="5"/><circle cx="197" cy="1116" r="5"/><circle cx="254" cy="1087" r="6"/><circle cx="365" cy="1118" r="4"/><circle cx="470" cy="1107" r="4"/><circle cx="551" cy="1062" r="5"/><circle cx="632" cy="1095" r="4"/><circle cx="713" cy="1104" r="5"/><circle cx="779" cy="1085" r="4"/><circle cx="870" cy="1086" r="5"/><circle cx="910" cy="1041" r="4"/><circle cx="1004" cy="1114" r="6"/><circle cx="1108" cy="1082" r="4"/><circle cx="1193" cy="1110" r="5"/><circle cx="1206" cy="1109" r="5"/><circle cx="1326" cy="1043" r="4"/><circle cx="1394" cy="1105" r="6"/><circle cx="1443" cy="1075" r="5"/><circle cx="1529" cy="1102" r="5"/><circle cx="1601" cy="1054" r="4"/><circle cx="1714" cy="1114" r="6"/><circle cx="1779" cy="1120" r="6"/><circle cx="1917" cy="1117" r="4"/><circle cx="1968" cy="1107" r="5"/><circle cx="2061" cy="1088" r="6"/><circle cx="2107" cy="1099" r="5"/><circle cx="2216" cy="1098" r="6"/><circle cx="2289" cy="1088" r="5"/><circle cx="2399" cy="1095" r="5"/><circle cx="2427" cy="1058" r="4"/><circle cx="2485" cy="1076" r="5"/><circle cx="63" cy="1154" r="5"/><circle cx="95" cy="1170" r="4"/><circle cx="234" cy="1178" r="5"/><circle cx="276" cy="1157" r="6"/><circle cx="338" cy="1183" r="4"/><circle cx="424" cy="1178" r="5"/><circle cx="492" cy="1194" r="5"/><circle cx="604" cy="1171" r="5"/><circle cx="710" cy="1163" r="5"/><circle cx="790" cy="1190" r="5"/><circle cx="860" cy="1146" r="5"/><circle cx="926" cy="1192" r="6"/><circle cx="984" cy="1187" r="5"/><circle cx="1117" cy="1178" r="5"/><circle cx="1135" cy="1130" r="5"/><circle cx="1279" cy="1196" r="4"/><circle cx="1350" cy="1129" r="4"/><circle cx="1389" cy="1131" r="5"/><circle cx="1471" cy="1197" r="5"/><circle cx="1544" cy="1124" r="6"/><circle cx="1648" cy="1155" r="6"/><circle cx="1687" cy="1162" r="6"/><circle cx="1783" cy="1127" r="4"/><circle cx="1845" cy="1162" r="4"/><circle cx="1927" cy="1125" r="5"/><circle cx="2031" cy="1191" r="5"/><circle cx="2091" cy="1156" r="6"/><circle cx="2224" cy="1171" r="5"/><circle cx="2253" cy="1144" r="6"/><circle cx="2398" cy="1124" r="5"/><circle cx="2445" cy="1170" r="5"/><circle cx="2503" cy="1142" r="6"/><circle cx="2" cy="1238" r="5"/><circle cx="2562" cy="1238" r="5"/><circle cx="90" cy="1273" r="6"/><circle cx="185" cy="1213" r="4"/><circle cx="287" cy="1223" r="5"/><circle cx="388" cy="1222" r="5"/><circle cx="466" cy="1238" r="6"/><circle cx="533" cy="1248" r="5"/><circle cx="564" cy="1211" r="5"/><circle cx="717" cy="1207" r="6"/><circle cx="743" cy="1217" r="4"/><circle cx="873" cy="1256" r="5"/><circle cx="912" cy="1228" r="5"/><circle cx="990" cy="1200" r="5"/><circle cx="1067" cy="1253" r="6"/><circle cx="1154" cy="1243" r="6"/><circle cx="1232" cy="1221" r="5"/><circle cx="1300" cy="1227" r="5"/><circle cx="1389" cy="1250" r="6"/><circle cx="1472" cy="1263" r="4"/><circle cx="1538" cy="1241" r="5"/><circle cx="1639" cy="1211" r="5"/><circle cx="1691" cy="1224" r="5"/><circle cx="1819" cy="1209" r="4"/><circle cx="1887" cy="1260" r="5"/><circle cx="1938" cy="1228" r="6"/><circle cx="2025" cy="1265" r="5"/><circle cx="2094" cy="1242" r="5"/><circle cx="2168" cy="1230" r="5"/><circle cx="2262" cy="1245" r="5"/><circle cx="2372" cy="1239" r="5"/><circle cx="2404" cy="1261" r="5"/><circle cx="2521" cy="1204" r="4"/><circle cx="33" cy="1281" r="5"/><circle cx="81" cy="1323" r="4"/><circle cx="206" cy="1354" r="5"/><circle cx="286" cy="1343" r="5"/><circle cx="327" cy="1313" r="5"/><circle cx="422" cy="1326" r="4"/><circle cx="530" cy="1356" r="5"/><circle cx="633" cy="1353" r="6"/><circle cx="662" cy="1307" r="6"/><circle cx="799" cy="1315" r="4"/><circle cx="827" cy="1282" r="5"/><circle cx="955" cy="1314" r="5"/><circle cx="1029" cy="1343" r="5"/><circle cx="1095" cy="1323" r="4"/><circle cx="1189" cy="1282" r="5"/><circle cx="1226" cy="1283" r="5"/><circle cx="1335" cy="1316" r="5"/><circle cx="1368" cy="1305" r="5"/><circle cx="1476" cy="1341" r="5"/><circle cx="1584" cy="1332" r="5"/><circle cx="1645" cy="1342" r="6"/><circle cx="1752" cy="1320" r="6"/><circle cx="1774" cy="1282" r="5"/><circle cx="1849" cy="1313" r="5"/><circle cx="1931" cy="1290" r="6"/><circle cx="2074" cy="1326" r="5"/><circle cx="2145" cy="1340" r="5"/><circle cx="2232" cy="1333" r="4"/><circle cx="2267" cy="1295" r="5"/><circle cx="2323" cy="1281" r="5"/><circle cx="2427" cy="1349" r="4"/><circle cx="2558" cy="1358" r="5"/><circle cx="-2" cy="1358" r="5"/><circle cx="40" cy="1401" r="5"/><circle cx="126" cy="1422" r="5"/><circle cx="206" cy="1413" r="5"/><circle cx="290" cy="1374" r="4"/><circle cx="374" cy="1395" r="5"/><circle cx="442" cy="1403" r="4"/><circle cx="543" cy="1389" r="4"/><circle cx="635" cy="1429" r="5"/><circle cx="695" cy="1403" r="6"/><circle cx="762" cy="1390" r="5"/><circle cx="829" cy="1384" r="6"/><circle cx="942" cy="1405" r="5"/><circle cx="964" cy="1392" r="5"/><circle cx="1091" cy="1398" r="5"/><circle cx="1198" cy="1415" r="6"/><circle cx="1262" cy="1417" r="5"/><circle cx="1350" cy="1398" r="5"/><circle cx="1371" cy="1435" r="5"/><circle cx="1371" cy="-5" r="5"/><circle cx="1472" cy="1429" r="4"/><circle cx="1552" cy="1429" r="6"/><circle cx="1603" cy="1371" r="5"/><circle cx="1689" cy="1410" r="4"/><circle cx="1817" cy="1387" r="5"/><circle cx="1881" cy="1391" r="5"/><circle cx="1998" cy="1416" r="5"/><circle cx="2076" cy="1370" r="5"/><circle cx="2098" cy="1370" r="5"/><circle cx="2212" cy="1366" r="5"/><circle cx="2288" cy="1437" r="6"/><circle cx="2288" cy="-3" r="6"/><circle cx="2374" cy="1363" r="5"/><circle cx="2455" cy="1416" r="5"/><circle cx="2507" cy="1399" r="6"/><path stroke="#fff" d="M75 77L91 26M75 77L70 142M75 77L93 122M75 77L181 88M91 26L93 122M91 26L181 88M91 26L40 -39M91 26L126 -18M91 1466L40 1401M91 1466L126 1422M198 31L298 47M198 31L181 88M198 31L126 -18M198 31L206 -27M198 1471L126 1422M198 1471L206 1413M298 47L372 1M298 47L260 124M372 1L402 37M372 1L374 -45M372 1L442 -37M372 1441L374 1395M372 1441L442 1403M402 37L362 144M402 37L418 101M402 37L374 -45M402 37L442 -37M402 1477L374 1395M402 1477L442 1403M519 19L576 59M519 19L530 -84M519 19L442 -37M519 19L543 -51M519 1459L530 1356M519 1459L442 1403M519 1459L543 1389M576 59L622 118M576 59L635 -11M576 1499L635 1429M706 14L777 35M706 14L688 86M706 14L635 -11M706 14L695 -37M706 14L762 -50M706 1454L635 1429M706 1454L695 1403M706 1454L762 1390M777 35L873 11M777 35L776 84M777 35L762 -50M777 35L829 -56M777 1475L762 1390M777 1475L829 1384M873 11L946 49M873 11L829 -56M873 11L942 -35M873 11L964 -48M873 1451L829 1384M873 1451L942 1405M873 1451L964 1392M946 49L980 78M946 49L914 105M946 49L968 101M946 49L942 -35M946 1489L942 1405M980 78L914 105M980 78L968 101M980 78L1074 112M980 78L942 -35M980 1518L942 1405M1092 41L1125 3M1092 41L1074 112M1092 41L1184 86M1092 41L1091 -42M1092 1481L1091 1398M1125 3L1091 -42M1125 3L1198 -25M1125 1443L1091 1398M1125 1443L1198 1415M1234 35L1305 73M1234 35L1184 86M1234 35L1242 123M1234 35L1198 -25M1234 35L1262 -23M1234 1475L1198 1415M1234 1475L1262 1417M1305 73L1242 123M1305 73L1339 83M1305 73L1313 177M1305 73L1371 -5M1305 1513L1371 1435M1396 15L1440 78M1396 15L1339 83M1396 15L1350 -42M1396 15L1371 -5M1396 15L1472 -11M1396 1455L1350 1398M1396 1455L1371 1435M1396 1455L1472 1429M1440 78L1525 54M1440 78L1400 134M1440 78L1500 80M1525 54L1500 80M1525 54L1536 133M1525 54L1472 -11M1525 54L1552 -11M1525 1494L1472 1429M1525 1494L1552 1429M1616 13L1655 86M1616 13L1552 -11M1616 13L1603 -69M1616 13L1689 -30M1616 1453L1552 1429M1616 1453L1603 1371M1616 1453L1689 1410M1717 58L1774 27M1717 58L1655 86M1717 58L1720 144M1717 58L1787 95M1717 58L1689 -30M1717 1498L1689 1410M1774 27L1787 95M1774 27L1817 -53M1774 1467L1817 1387M1868 76L1934 14M1868 76L1787 95M1868 76L1898 84M1868 76L1943 97M1868 76L1811 162M1934 14L1898 84M1934 14L1943 97M1934 14L1881 -49M1934 14L1998 -24M1934 1454L1881 1391M1934 1454L1998 1416M2073 4L2129 5M2073 4L1998 -24M2073 4L2076 -70M2073 4L2098 -70M2073 1444L1998 1416M2073 1444L2076 1370M2073 1444L2098 1370M2129 5L2211 42M2129 5L2148 99M2129 5L2098 -70M2129 1445L2098 1370M2211 42L2301 30M2211 42L2148 99M2211 42L2189 129M2211 42L2288 -3M2211 1482L2288 1437M2301 30L2341 43M2301 30L2406 66M2301 30L2315 114M2301 30L2288 -3M2301 1470L2288 1437M2341 43L2406 66M2341 43L2315 114M2341 43L2338 151M2341 43L2288 -3M2341 1483L2288 1437M2406 66L2483 22M2406 66L2469 121M2406 66L2400 163M2483 22L2506 129M2483 22L2455 -24M2483 22L2507 -41M2483 1462L2455 1416M2483 1462L2507 1399M70 142L93 122M70 142L58 225M70 142L58 245M93 122L181 88M93 122L58 225M181 88L260 124M260 124L362 144M260 124L207 213M260 124L297 198M362 144L418 101M362 144L297 198M362 144L358 205M418 101L493 139M493 139L465 227M493 139L498 222M493 139L479 247M493 139L492 265M622 118L688 86M622 118L633 231M688 86L776 84M688 86L722 178M688 86L635 -11M688 1526L635 1429M776 84L825 130M776 84L722 178M825 130L914 105M825 130L814 225M914 105L968 101M968 101L1074 112M968 101L968 198M1074 112L1041 216M1074 112L1139 170M1184 86L1242 123M1184 86L1139 170M1184 86L1198 -25M1184 1526L1198 1415M1242 123L1243 182M1242 123L1313 177M1339 83L1400 134M1339 83L1313 177M1339 83L1371 -5M1339 1523L1371 1435M1400 134L1415 190M1500 80L1536 133M1536 133L1515 185M1536 133L1551 211M1655 86L1720 144M1720 144L1787 95M1720 144L1677 211M1720 144L1741 220M1787 95L1811 162M1898 84L1943 97M1943 97L2015 118M1943 97L1976 188M2015 118L1976 188M2015 118L2063 173M2148 99L2189 129M2148 99L2105 188M2148 99L2185 176M2189 129L2185 176M2315 114L2338 151M2315 114L2288 213M2338 151L2288 213M2338 151L2400 163M2338 151L2420 170M2469 121L2506 129M2469 121L2400 163M2469 121L2420 170M2469 121L2484 224M2506 129L2420 170M2506 129L2484 224M58 225L149 217M58 225L58 245M149 217L207 213M149 217L58 245M149 217L150 312M149 217L178 275M207 213L178 275M207 213L288 245M297 198L358 205M297 198L288 245M297 198L333 263M358 205L465 227M358 205L288 245M358 205L333 263M465 227L498 222M465 227L479 247M465 227L492 265M498 222L479 247M498 222L492 265M633 231L679 231M633 231L722 178M633 231L610 283M633 231L679 312M679 231L722 178M679 231L610 283M679 231L679 312M679 231L789 282M722 178L814 225M814 225L789 282M814 225L868 266M943 213L968 198M943 213L1041 216M943 213L868 266M943 213L940 246M943 213L993 262M968 198L1041 216M968 198L940 246M968 198L993 262M1041 216L993 262M1041 216L1112 256M1139 170L1243 182M1139 170L1112 256M1139 170L1169 269M1243 182L1313 177M1313 177L1359 244M1415 190L1515 185M1415 190L1359 244M1515 185L1551 211M1551 211L1599 283M1551 211L1645 262M1677 211L1741 220M1677 211L1599 283M1677 211L1645 262M1677 211L1740 248M1741 220L1811 162M1741 220L1645 262M1741 220L1740 248M1811 162L1740 248M1919 236L1976 188M1919 236L1823 266M1919 236L1885 289M1919 236L1958 315M1919 236L2026 244M1976 188L2063 173M1976 188L2026 244M2063 173L2105 188M2063 173L2026 244M2105 188L2185 176M2105 188L2026 244M2105 188L2167 274M2185 176L2153 275M2185 176L2167 274M2288 213L2285 253M2400 163L2420 170M2420 170L2484 224M2484 224L2466 293M2484 224L2503 269M150 312L178 275M150 312L105 369M150 312L191 338M150 312L102 400M178 275L191 338M288 245L333 263M333 263L385 332M479 247L492 265M492 265L516 360M610 283L679 312M679 312L660 384M789 282L868 266M789 282L753 378M789 282L874 329M868 266L940 246M868 266L874 329M940 246L993 262M993 262L988 360M1112 256L1169 269M1169 269L1274 298M1169 269L1129 376M1274 298L1359 244M1274 298L1239 358M1274 298L1300 380M1274 298L1283 401M1359 244L1377 320M1359 244L1391 338M1377 320L1447 303M1377 320L1391 338M1377 320L1469 327M1447 303L1391 338M1447 303L1469 327M1447 303L1550 325M1599 283L1645 262M1599 283L1550 325M1645 262L1740 248M1740 248L1823 266M1823 266L1885 289M1823 266L1834 330M1885 289L1834 330M1885 289L1876 341M1885 289L1930 334M1958 315L1876 341M1958 315L1930 334M1958 315L2010 337M2026 244L2010 337M2153 275L2167 274M2153 275L2126 352M2153 275L2206 353M2167 274L2126 352M2167 274L2206 353M2285 253L2333 305M2285 253L2281 351M2285 253L2338 358M2333 305L2281 351M2333 305L2338 358M2333 305L2413 349M2333 305L2340 412M2466 293L2503 269M2466 293L2413 349M70 390L105 369M70 390L-24 390M70 390L54 474M70 390L102 400M70 390L164 418M2630 390L2536 390M105 369L191 338M105 369L102 400M105 369L164 418M191 338L164 418M317 386L385 332M317 386L428 377M317 386L297 446M317 386L360 470M385 332L428 377M428 377L516 360M428 377L421 464M428 377L438 483M516 360L606 394M516 360L507 457M516 360L590 404M606 394L660 384M606 394L590 404M606 394L697 419M606 394L617 484M660 384L753 378M660 384L590 404M660 384L697 419M753 378L697 419M753 378L755 421M874 329L895 358M874 329L864 412M874 329L913 414M895 358L988 360M895 358L864 412M895 358L913 414M988 360L913 414M988 360L1011 434M988 360L1093 410M1108 391L1129 376M1108 391L1011 434M1108 391L1093 410M1108 391L1157 424M1129 376L1239 358M1129 376L1093 410M1129 376L1157 424M1239 358L1300 380M1239 358L1231 435M1239 358L1283 401M1300 380L1231 435M1300 380L1283 401M1391 338L1469 327M1391 338L1429 437M1469 327L1550 325M1550 325L1604 393M1550 325L1536 418M1604 393L1683 394M1604 393L1536 418M1604 393L1612 437M1604 393L1690 467M1683 394L1612 437M1683 394L1690 467M1683 394L1810 410M1834 330L1876 341M1834 330L1930 334M1834 330L1810 410M1876 341L1930 334M1876 341L1810 410M1930 334L2010 337M2010 337L2126 352M2010 337L2013 437M2126 352L2206 353M2206 353L2281 351M2206 353L2224 451M2281 351L2338 358M2281 351L2340 412M2338 358L2413 349M2338 358L2340 412M2413 349L2340 412M2536 390L2474 458M2536 390L2527 468M54 474L102 400M54 474L-33 468M54 474L22 500M54 474L89 541M2614 474L2527 468M102 400L164 418M297 446L360 470M297 446L251 541M297 446L325 490M360 470L421 464M360 470L325 490M360 470L438 483M421 464L507 457M421 464L325 490M421 464L438 483M507 457L438 483M507 457L617 484M590 404L617 484M697 419L755 421M697 419L667 504M755 421L864 412M755 421L746 518M755 421L854 488M864 412L913 414M864 412L854 488M913 414L854 488M1011 434L1093 410M1011 434L1028 520M1011 434L1071 530M1093 410L1157 424M1157 424L1231 435M1157 424L1196 481M1231 435L1283 401M1231 435L1196 481M1283 401L1196 481M1429 437L1502 439M1502 439L1536 418M1502 439L1507 495M1536 418L1612 437M1536 418L1507 495M1612 437L1690 467M1690 467L1602 548M1690 467L1695 558M1810 410L1903 426M1810 410L1799 481M1903 426L1923 460M1903 426L1936 528M1923 460L2013 437M1923 460L1913 542M1923 460L1936 528M2013 437L2083 478M2083 478L2048 536M2083 478L2084 529M2083 478L2172 501M2224 451L2287 474M2224 451L2172 501M2224 451L2259 527M2287 474L2340 412M2287 474L2172 501M2287 474L2259 527M2287 474L2356 556M2474 458L2527 468M2474 458L2455 538M2527 468L2582 500M2527 468L2509 556M-33 468L22 500M22 500L89 541M22 500L42 575M89 541L42 575M89 541L110 615M229 559L251 541M229 559L170 606M229 559L265 590M251 541L325 490M251 541L170 606M251 541L265 590M325 490L438 483M552 552L617 484M552 552L667 504M552 552L540 587M552 552L560 615M617 484L667 504M667 504L746 518M746 518L854 488M746 518L691 626M746 518L771 614M854 488L917 526M917 526L1028 520M917 526L939 618M917 526L1013 563M1028 520L1071 530M1028 520L1013 563M1071 530L1013 563M1071 530L1073 620M1071 530L1171 573M1196 481L1203 556M1196 481L1171 573M1203 556L1308 518M1203 556L1171 573M1203 556L1225 622M1203 556L1287 563M1308 518L1287 563M1308 518L1383 593M1438 558L1507 495M1438 558L1551 558M1438 558L1383 593M1438 558L1460 615M1438 558L1414 643M1507 495L1551 558M1507 495L1571 562M1551 558L1602 548M1551 558L1571 562M1602 548L1695 558M1602 548L1571 562M1695 558L1571 562M1695 558L1679 625M1695 558L1695 629M1799 481L1812 591M1913 542L1936 528M1913 542L1861 620M1913 542L1992 564M1913 542L1879 648M1936 528L1992 564M2048 536L2084 529M2048 536L1992 564M2048 536L2028 624M2084 529L2172 501M2084 529L1992 564M2084 529L2028 624M2172 501L2259 527M2259 527L2356 556M2259 527L2311 606M2356 556L2455 538M2356 556L2311 606M2356 556L2337 635M2455 538L2509 556M2455 538L2469 585M2455 538L2533 606M2509 556L2602 575M2509 556L2469 585M2509 556L2533 606M-51 556L42 575M42 575L110 615M42 575L-27 606M2602 575L2533 606M110 615L170 606M110 615L153 707M110 615L164 664M170 606L265 590M170 606L164 664M265 590L340 600M265 590L279 684M340 600L408 609M340 600L358 644M408 609L358 644M408 609L458 679M540 587L560 615M560 615L564 686M560 615L643 650M691 626L771 614M691 626L809 631M691 626L643 650M691 626L769 655M771 614L809 631M771 614L769 655M771 614L832 665M809 631L769 655M809 631L832 665M939 618L1013 563M939 618L947 689M1013 563L1073 620M1073 620L1080 660M1073 620L1132 665M1171 573L1225 622M1171 573L1132 665M1225 622L1287 563M1225 622L1132 665M1225 622L1245 674M1287 563L1383 593M1287 563L1245 674M1383 593L1460 615M1383 593L1414 643M1460 615L1414 643M1460 615L1529 673M1571 562L1529 673M1679 625L1695 629M1679 625L1653 711M1695 629L1653 711M1695 629L1724 704M1695 629L1775 643M1812 591L1861 620M1812 591L1775 643M1812 591L1879 648M1861 620L1775 643M1861 620L1879 648M1861 620L1856 721M1992 564L2028 624M2028 624L2057 686M2028 624L2102 671M2137 629L2230 631M2137 629L2057 686M2137 629L2102 671M2137 629L2175 699M2230 631L2311 606M2230 631L2337 635M2230 631L2175 699M2230 631L2312 670M2311 606L2337 635M2311 606L2312 670M2337 635L2312 670M2337 635L2376 693M2469 585L2533 606M2469 585L2454 700M2469 585L2501 663M2533 606L2501 663M48 719L153 707M48 719L51 778M48 719L90 783M48 719L-23 743M48 719L16 817M2608 719L2537 743M153 707L164 664M153 707L90 783M153 707L235 770M279 684L358 644M279 684L271 764M279 684L330 770M458 679L502 695M458 679L442 735M502 695L564 686M502 695L442 735M502 695L541 722M502 695L584 725M564 686L643 650M564 686L541 722M564 686L584 725M769 655L832 665M769 655L804 748M832 665L804 748M832 665L882 747M947 689L1020 717M947 689L882 747M947 689L1026 757M1020 717L1080 660M1020 717L1026 757M1020 717L1062 763M1020 717L1048 802M1080 660L1132 665M1245 674L1342 718M1245 674L1202 762M1342 718L1284 791M1342 718L1434 784M1414 643L1479 714M1479 714L1529 673M1479 714L1434 784M1479 714L1489 720M1479 714L1569 725M1529 673L1489 720M1529 673L1569 725M1653 711L1724 704M1653 711L1569 725M1653 711L1676 761M1724 704L1775 643M1724 704L1676 761M1724 704L1758 759M1879 648L1957 705M1879 648L1856 721M1957 705L2057 686M1957 705L1943 765M1957 705L2007 734M2057 686L2102 671M2057 686L2007 734M2102 671L2175 699M2102 671L2007 734M2175 699L2110 798M2175 699L2237 781M2312 670L2376 693M2312 670L2340 756M2376 693L2454 700M2376 693L2303 771M2376 693L2340 756M2454 700L2501 663M2454 700L2459 770M2501 663L2459 770M2501 663L2537 743M51 778L90 783M51 778L-23 743M51 778L16 817M51 778L116 856M2611 778L2537 743M90 783L16 817M90 783L116 856M235 770L271 764M235 770L330 770M235 770L202 821M271 764L330 770M271 764L202 821M330 770L442 735M442 735L541 722M541 722L584 725M541 722L554 815M584 725L644 768M584 725L554 815M644 768L749 768M644 768L554 815M644 768L624 837M644 768L689 819M749 768L804 748M749 768L689 819M749 768L741 828M804 748L882 747M804 748L741 828M882 747L916 814M1026 757L1062 763M1026 757L1037 841M1026 757L1048 802M1062 763L1174 771M1062 763L1037 841M1062 763L1048 802M1174 771L1202 762M1174 771L1284 791M1174 771L1141 871M1174 771L1266 825M1202 762L1284 791M1202 762L1141 871M1202 762L1266 825M1284 791L1266 825M1284 791L1303 873M1434 784L1489 720M1434 784L1439 821M1434 784L1519 806M1489 720L1569 725M1489 720L1519 806M1569 725L1576 805M1676 761L1758 759M1676 761L1576 805M1676 761L1701 860M1758 759L1817 781M1758 759L1791 827M1817 781L1856 721M1817 781L1791 827M1817 781L1871 818M1817 781L1827 895M1856 721L1943 765M1856 721L1871 818M1943 765L2007 734M1943 765L1871 818M1943 765L1967 828M2007 734L1967 828M2110 798L2009 852M2110 798L2132 816M2237 781L2303 771M2237 781L2225 875M2237 781L2243 811M2237 781L2322 800M2303 771L2340 756M2303 771L2243 811M2303 771L2322 800M2340 756L2243 811M2340 756L2322 800M2459 770L2537 743M2459 770L2471 843M2459 770L2504 836M2537 743L2576 817M-23 743L16 817M16 817L-56 836M2576 817L2504 836M116 856L202 821M116 856L74 904M116 856L103 948M202 821L259 869M202 821L233 905M259 869L346 877M259 869L233 905M259 869L315 899M346 877L315 899M346 877L343 924M346 877L404 880M346 877L400 961M463 870L404 880M463 870L530 883M463 870L400 961M554 815L624 837M554 815L530 883M624 837L689 819M624 837L530 883M689 819L741 828M689 819L713 887M741 828L713 887M874 875L916 814M874 875L786 928M874 875L868 922M874 875L952 890M874 875L889 974M916 814L952 890M916 814L992 918M1037 841L1048 802M1037 841L992 918M1037 841L1044 910M1141 871L1044 910M1141 871L1187 941M1141 871L1131 966M1266 825L1303 873M1266 825L1279 897M1303 873L1279 897M1303 873L1329 934M1439 821L1519 806M1439 821L1418 922M1439 821L1509 906M1519 806L1576 805M1519 806L1509 906M1657 877L1701 860M1657 877L1595 912M1657 877L1664 928M1657 877L1692 925M1657 877L1686 974M1701 860L1791 827M1701 860L1692 925M1791 827L1871 818M1791 827L1827 895M1871 818L1827 895M1967 828L2009 852M2009 852L1957 937M2132 816L2225 875M2225 875L2243 811M2225 875L2186 939M2225 875L2261 932M2243 811L2322 800M2471 843L2504 836M2471 843L2478 909M2471 843L2489 907M2504 836L2478 909M2504 836L2489 907M74 904L103 948M74 904L147 968M103 948L43 1039M103 948L147 968M103 948L118 1048M233 905L315 899M233 905L282 983M315 899L343 924M315 899L404 880M343 924L404 880M343 924L282 983M343 924L400 961M404 880L400 961M530 883L565 931M530 883L564 999M565 931L543 1010M565 931L564 999M565 931L663 960M713 887L786 928M713 887L663 960M713 887L743 985M786 928L868 922M786 928L743 985M786 928L858 991M868 922L952 890M868 922L858 991M868 922L889 974M952 890L992 918M952 890L1044 910M992 918L1044 910M992 918L966 989M1044 910L1131 966M1187 941L1279 897M1187 941L1104 989M1187 941L1131 966M1187 941L1231 993M1279 897L1329 934M1279 897L1231 993M1329 934L1418 922M1329 934L1303 1034M1329 934L1374 977M1418 922L1509 906M1418 922L1374 977M1418 922L1451 1000M1509 906L1595 912M1509 906L1548 966M1595 912L1664 928M1595 912L1548 966M1595 912L1635 985M1664 928L1692 925M1664 928L1635 985M1664 928L1686 974M1692 925L1635 985M1692 925L1686 974M1827 895L1893 929M1827 895L1826 1010M1893 929L1957 937M1893 929L1826 1010M1893 929L1881 1035M1957 937L1986 1004M2072 955L2087 950M2072 955L1986 1004M2072 955L2026 996M2072 955L2121 982M2087 950L2026 996M2087 950L2121 982M2186 939L2261 932M2186 939L2121 982M2186 939L2190 1000M2186 939L2264 1009M2261 932L2372 919M2261 932L2190 1000M2261 932L2264 1009M2372 919L2370 992M2372 919L2450 969M2478 909L2489 907M2478 909L2450 969M2478 909L2512 978M2489 907L2450 969M2489 907L2512 978M43 1039L-48 978M43 1039L19 1119M43 1039L118 1048M43 1039L63 1154M2603 1039L2512 978M147 968L240 1033M147 968L118 1048M240 1033L282 983M240 1033L197 1116M240 1033L254 1087M282 983L254 1087M400 961L429 992M429 992L543 1010M429 992L470 1107M543 1010L564 999M543 1010L663 960M543 1010L551 1062M564 999L663 960M564 999L551 1062M663 960L743 985M743 985L779 1085M858 991L889 974M858 991L870 1086M858 991L910 1041M889 974L966 989M889 974L910 1041M966 989L910 1041M1104 989L1131 966M1104 989L1108 1082M1131 966L1231 993M1231 993L1303 1034M1231 993L1326 1043M1303 1034L1374 977M1303 1034L1326 1043M1303 1034L1394 1105M1374 977L1451 1000M1374 977L1326 1043M1451 1000L1548 966M1451 1000L1443 1075M1548 966L1601 1054M1635 985L1686 974M1635 985L1601 1054M1826 1010L1881 1035M1826 1010L1783 1127M1881 1035L1917 1117M1881 1035L1927 1125M1986 1004L2026 996M1986 1004L1968 1107M2026 996L2121 982M2026 996L2061 1088M2121 982L2190 1000M2190 1000L2264 1009M2264 1009L2216 1098M2264 1009L2289 1088M2370 992L2450 969M2370 992L2427 1058M2450 969L2512 978M2512 978L2485 1076M19 1119L63 1154M19 1119L95 1170M19 1119L-57 1142M2579 1119L2503 1142M118 1048L197 1116M197 1116L254 1087M197 1116L234 1178M197 1116L276 1157M254 1087L234 1178M254 1087L276 1157M365 1118L470 1107M365 1118L338 1183M365 1118L424 1178M470 1107L551 1062M470 1107L424 1178M470 1107L492 1194M551 1062L632 1095M632 1095L713 1104M632 1095L604 1171M713 1104L779 1085M713 1104L710 1163M713 1104L717 1207M779 1085L870 1086M870 1086L910 1041M870 1086L860 1146M1004 1114L1108 1082M1004 1114L984 1187M1004 1114L990 1200M1108 1082L1193 1110M1108 1082L1117 1178M1108 1082L1135 1130M1193 1110L1206 1109M1193 1110L1117 1178M1193 1110L1135 1130M1206 1109L1135 1130M1326 1043L1394 1105M1326 1043L1350 1129M1394 1105L1443 1075M1394 1105L1350 1129M1394 1105L1389 1131M1443 1075L1529 1102M1443 1075L1389 1131M1443 1075L1544 1124M1529 1102L1601 1054M1529 1102L1544 1124M1601 1054L1544 1124M1714 1114L1779 1120M1714 1114L1648 1155M1714 1114L1687 1162M1714 1114L1783 1127M1714 1114L1691 1224M1779 1120L1687 1162M1779 1120L1783 1127M1779 1120L1845 1162M1779 1120L1819 1209M1917 1117L1968 1107M1917 1117L1845 1162M1917 1117L1927 1125M1968 1107L2061 1088M1968 1107L1927 1125M2061 1088L2107 1099M2061 1088L2031 1191M2061 1088L2091 1156M2107 1099L2216 1098M2107 1099L2091 1156M2216 1098L2289 1088M2216 1098L2224 1171M2216 1098L2253 1144M2289 1088L2224 1171M2289 1088L2253 1144M2399 1095L2427 1058M2399 1095L2485 1076M2399 1095L2398 1124M2399 1095L2445 1170M2427 1058L2485 1076M2427 1058L2398 1124M2485 1076L2503 1142M63 1154L95 1170M63 1154L2 1238M95 1170L90 1273M95 1170L185 1213M234 1178L276 1157M234 1178L185 1213M234 1178L287 1223M276 1157L338 1183M276 1157L287 1223M338 1183L287 1223M338 1183L388 1222M424 1178L492 1194M424 1178L388 1222M424 1178L466 1238M492 1194L466 1238M492 1194L533 1248M492 1194L564 1211M604 1171L710 1163M604 1171L533 1248M604 1171L564 1211M710 1163L790 1190M710 1163L717 1207M710 1163L743 1217M790 1190L860 1146M790 1190L717 1207M790 1190L743 1217M790 1190L827 1282M860 1146L926 1192M926 1192L984 1187M926 1192L873 1256M926 1192L912 1228M926 1192L990 1200M984 1187L912 1228M984 1187L990 1200M1117 1178L1135 1130M1117 1178L1067 1253M1117 1178L1154 1243M1279 1196L1350 1129M1279 1196L1232 1221M1279 1196L1300 1227M1279 1196L1226 1283M1350 1129L1389 1131M1389 1131L1471 1197M1471 1197L1544 1124M1471 1197L1389 1250M1471 1197L1472 1263M1471 1197L1538 1241M1544 1124L1648 1155M1648 1155L1687 1162M1648 1155L1639 1211M1648 1155L1691 1224M1687 1162L1639 1211M1687 1162L1691 1224M1783 1127L1845 1162M1783 1127L1819 1209M1845 1162L1927 1125M1845 1162L1819 1209M1927 1125L1938 1228M2031 1191L2091 1156M2031 1191L1938 1228M2031 1191L2025 1265M2031 1191L2094 1242M2091 1156L2094 1242M2091 1156L2168 1230M2224 1171L2253 1144M2224 1171L2168 1230M2224 1171L2262 1245M2253 1144L2168 1230M2253 1144L2262 1245M2398 1124L2445 1170M2398 1124L2503 1142M2398 1124L2372 1239M2445 1170L2503 1142M2445 1170L2372 1239M2445 1170L2521 1204M2503 1142L2521 1204M2 1238L90 1273M2 1238L-39 1204M2 1238L33 1281M2 1238L-2 1358M2562 1238L2521 1204M2562 1238L2558 1358M90 1273L185 1213M90 1273L33 1281M90 1273L81 1323M287 1223L388 1222M287 1223L327 1313M388 1222L466 1238M466 1238L533 1248M466 1238L564 1211M533 1248L564 1211M533 1248L530 1356M717 1207L743 1217M717 1207L662 1307M743 1217L827 1282M873 1256L912 1228M873 1256L799 1315M873 1256L827 1282M873 1256L955 1314M912 1228L990 1200M912 1228L955 1314M990 1200L1067 1253M1067 1253L1154 1243M1067 1253L1029 1343M1067 1253L1095 1323M1154 1243L1232 1221M1154 1243L1189 1282M1154 1243L1226 1283M1232 1221L1300 1227M1232 1221L1189 1282M1232 1221L1226 1283M1300 1227L1389 1250M1300 1227L1226 1283M1300 1227L1335 1316M1389 1250L1472 1263M1389 1250L1335 1316M1389 1250L1368 1305M1472 1263L1538 1241M1472 1263L1368 1305M1472 1263L1476 1341M1538 1241L1639 1211M1538 1241L1584 1332M1639 1211L1691 1224M1691 1224L1774 1282M1819 1209L1887 1260M1819 1209L1774 1282M1887 1260L1938 1228M1887 1260L1849 1313M1887 1260L1931 1290M1938 1228L2025 1265M1938 1228L1931 1290M2025 1265L2094 1242M2025 1265L1931 1290M2025 1265L2074 1326M2094 1242L2168 1230M2094 1242L2074 1326M2168 1230L2262 1245M2262 1245L2267 1295M2262 1245L2323 1281M2372 1239L2404 1261M2372 1239L2323 1281M2404 1261L2323 1281M2404 1261L2427 1349M2404 1261L2374 1363M2521 1204L2593 1281M-39 1204L33 1281M33 1281L81 1323M33 1281L-2 1358M2593 1281L2558 1358M81 1323L-2 1358M81 1323L40 1401M2641 1323L2558 1358M206 1354L286 1343M206 1354L126 1422M206 1354L206 1413M206 1354L290 1374M286 1343L327 1313M286 1343L206 1413M286 1343L290 1374M327 1313L422 1326M327 1313L290 1374M422 1326L374 1395M422 1326L442 1403M530 1356L633 1353M530 1356L543 1389M633 1353L662 1307M633 1353L543 1389M633 1353L635 1429M633 1353L695 1403M662 1307L695 1403M799 1315L827 1282M799 1315L762 1390M799 1315L829 1384M827 1282L829 1384M955 1314L1029 1343M955 1314L942 1405M955 1314L964 1392M1029 1343L1095 1323M1029 1343L964 1392M1029 1343L1091 1398M1095 1323L1189 1282M1095 1323L1091 1398M1189 1282L1226 1283M1335 1316L1368 1305M1335 1316L1350 1398M1368 1305L1476 1341M1368 1305L1350 1398M1476 1341L1584 1332M1476 1341L1472 1429M1584 1332L1645 1342M1584 1332L1552 1429M1584 1332L1603 1371M1645 1342L1752 1320M1645 1342L1603 1371M1645 1342L1689 1410M1752 1320L1774 1282M1752 1320L1689 1410M1752 1320L1817 1387M1774 1282L1849 1313M1774 1282L1817 1387M1849 1313L1931 1290M1849 1313L1817 1387M1849 1313L1881 1391M1931 1290L1881 1391M2074 1326L2145 1340M2074 1326L2076 1370M2074 1326L2098 1370M2145 1340L2232 1333M2145 1340L2076 1370M2145 1340L2098 1370M2145 1340L2212 1366M2232 1333L2267 1295M2232 1333L2212 1366M2267 1295L2323 1281M2267 1295L2212 1366M2323 1281L2374 1363M2427 1349L2374 1363M2427 1349L2455 1416M2427 1349L2507 1399M2558 1358L2600 1401M2558 1358L2507 1399M-2 1358L40 1401M40 1401L126 1422M40 1401L-53 1399M2600 1401L2507 1399M126 1422L206 1413M206 1413L290 1374M290 1374L374 1395M374 1395L442 1403M635 1429L695 1403M695 1403L762 1390M762 1390L829 1384M942 1405L964 1392M1091 1398L1198 1415M1198 1415L1262 1417M1262 1417L1350 1398M1350 1398L1371 1435M1371 1435L1472 1429M1472 1429L1552 1429M1552 1429L1603 1371M1603 1371L1689 1410M1817 1387L1881 1391M1881 1391L1998 1416M1998 1416L2076 1370M2076 1370L2098 1370M2212 1366L2288 1437M2288 1437L2374 1363M2374 1363L2455 1416M2455 1416L2507 1399"/></svg>