<svg xmlns="http://www.w3.org/2000/svg" width="2560" height="1440" fill="#fff"><circle cx="57" cy="66" r="5"/><circle cx="143" cy="40" r="5"/><circle cx="216" cy="32" r="4"/><circle cx="281" cy="3" r="6"/><circle cx="281" cy="1443" r="6"/><circle cx="364" cy="71" r="4"/><circle cx="435" cy="76" r="5"/><circle cx="482" cy="16" r="4"/><circle cx="595" cy="14" r="5"/><circle cx="661" cy="2" r="4"/><circle cx="661" cy="1442" r="4"/><circle cx="740" cy="6" r="6"/><circle cx="847" cy="6" r="6"/><circle cx="909" cy="39" r="5"/><circle cx="1015" cy="21" r="5"/><circle cx="1069" cy="21" r="5"/><circle cx="1156" cy="70" r="4"/><circle cx="1253" cy="29" r="5"/><circle cx="1288" cy="66" r="5"/><circle cx="1371" cy="6" r="6"/><circle cx="1516" cy="49" r="5"/><circle cx="1570" cy="42" r="4"/><circle cx="1631" cy="11" r="5"/><circle cx="1713" cy="37" r="5"/><circle cx="1819" cy="60" r="4"/><circle cx="1889" cy="30" r="4"/><circle cx="1975" cy="77" r="5"/><circle cx="2014" cy="65" r="6"/><circle cx="2118" cy="37" r="5"/><circle cx="2169" cy="20" r="5"/><circle cx="2292" cy="71" r="5"/><circle cx="2355" cy="41" r="5"/><circle cx="2471" cy="58" r="5"/><circle cx="2520" cy="15" r="5"/><circle cx="46" cy="113" r="6"/><circle cx="139" cy="132" r="5"/><circle cx="169" cy="157" r="5"/><circle cx="272" cy="97" r="6"/><circle cx="325" cy="116" r="6"/><circle cx="455" cy="126" r="4"/><circle cx="518" cy="134" r="4"/><circle cx="585" cy="83" r="5"/><circle cx="689" cy="143" r="6"/><circle cx="740" cy="94" r="4"/><circle cx="861" cy="158" r="6"/><circle cx="941" cy="147" r="5"/><circle cx="1018" cy="146" r="4"/><circle cx="1044" cy="130" r="5"/><circle cx="1161" cy="105" r="4"/><circle cx="1243" cy="155" r="5"/><circle cx="1335" cy="131" r="5"/><circle cx="1389" cy="138" r="4"/><circle cx="1461" cy="99" r="5"/><circle cx="1537" cy="88" r="5"/><circle cx="1635" cy="99" r="5"/><circle cx="1737" cy="117" r="5"/><circle cx="1817" cy="152" r="4"/><circle cx="1841" cy="144" r="5"/><circle cx="1947" cy="111" r="5"/><circle cx="2007" cy="133" r="5"/><circle cx="2133" cy="137" r="5"/><circle cx="2193" cy="139" r="4"/><circle cx="2307" cy="93" r="5"/><circle cx="2343" cy="107" r="5"/><circle cx="2440" cy="127" r="5"/><circle cx="2515" cy="144" r="6"/><circle cx="76" cy="217" r="4"/><circle cx="155" cy="181" r="4"/><circle cx="162" cy="167" r="4"/><circle cx="241" cy="197" r="6"/><circle cx="358" cy="220" r="4"/><circle cx="473" cy="182" r="6"/><circle cx="504" cy="234" r="5"/><circle cx="596" cy="173" r="5"/><circle cx="709" cy="198" r="6"/><circle cx="760" cy="206" r="6"/><circle cx="871" cy="210" r="5"/><circle cx="926" cy="235" r="4"/><circle cx="988" cy="183" r="5"/><circle cx="1094" cy="224" r="6"/><circle cx="1138" cy="228" r="5"/><circle cx="1274" cy="171" r="5"/><circle cx="1295" cy="167" r="6"/><circle cx="1405" cy="165" r="6"/><circle cx="1443" cy="195" r="5"/><circle cx="1587" cy="226" r="4"/><circle cx="1623" cy="202" r="5"/><circle cx="1734" cy="174" r="5"/><circle cx="1800" cy="210" r="6"/><circle cx="1887" cy="204" r="6"/><circle cx="1979" cy="165" r="5"/><circle cx="2009" cy="200" r="4"/><circle cx="2137" cy="206" r="5"/><circle cx="2200" cy="180" r="4"/><circle cx="2255" cy="210" r="5"/><circle cx="2327" cy="189" r="5"/><circle cx="2431" cy="189" r="5"/><circle cx="2512" cy="191" r="6"/><circle cx="76" cy="316" r="5"/><circle cx="86" cy="304" r="5"/><circle cx="219" cy="273" r="6"/><circle cx="276" cy="277" r="5"/><circle cx="393" cy="270" r="6"/><circle cx="473" cy="314" r="5"/><circle cx="481" cy="266" r="5"/><circle cx="634" cy="296" r="5"/><circle cx="669" cy="262" r="6"/><circle cx="779" cy="302" r="6"/><circle cx="853" cy="296" r="5"/><circle cx="924" cy="293" r="4"/><circle cx="972" cy="310" r="5"/><circle cx="1093" cy="245" r="6"/><circle cx="1177" cy="296" r="6"/><circle cx="1276" cy="287" r="4"/><circle cx="1301" cy="282" r="5"/><circle cx="1403" cy="282" r="5"/><circle cx="1506" cy="276" r="5"/><circle cx="1578" cy="263" r="4"/><circle cx="1653" cy="311" r="5"/><circle cx="1741" cy="305" r="4"/><circle cx="1825" cy="271" r="4"/><circle cx="1854" cy="283" r="5"/><circle cx="1932" cy="255" r="4"/><circle cx="2036" cy="280" r="4"/><circle cx="2088" cy="270" r="4"/><circle cx="2174" cy="259" r="6"/><circle cx="2297" cy="285" r="5"/><circle cx="2356" cy="307" r="4"/><circle cx="2401" cy="297" r="6"/><circle cx="2522" cy="271" r="4"/><circle cx="12" cy="391" r="6"/><circle cx="155" cy="389" r="5"/><circle cx="212" cy="363" r="6"/><circle cx="298" cy="385" r="4"/><circle cx="354" cy="327" r="5"/><circle cx="446" cy="336" r="5"/><circle cx="556" cy="368" r="5"/><circle cx="575" cy="357" r="6"/><circle cx="686" cy="359" r="5"/><circle cx="749" cy="340" r="5"/><circle cx="827" cy="393" r="4"/><circle cx="920" cy="384" r="6"/><circle cx="992" cy="376" r="6"/><circle cx="1049" cy="326" r="6"/><circle cx="1149" cy="368" r="4"/><circle cx="1263" cy="366" r="6"/><circle cx="1341" cy="375" r="4"/><circle cx="1409" cy="329" r="5"/><circle cx="1511" cy="374" r="5"/><circle cx="1551" cy="386" r="4"/><circle cx="1667" cy="362" r="6"/><circle cx="1743" cy="390" r="4"/><circle cx="1804" cy="349" r="5"/><circle cx="1863" cy="345" r="5"/><circle cx="1986" cy="358" r="5"/><circle cx="2072" cy="343" r="5"/><circle cx="2132" cy="375" r="5"/><circle cx="2182" cy="393" r="4"/><circle cx="2259" cy="359" r="5"/><circle cx="2345" cy="347" r="4"/><circle cx="2454" cy="352" r="6"/><circle cx="2525" cy="337" r="4"/><circle cx="20" cy="426" r="5"/><circle cx="130" cy="423" r="5"/><circle cx="168" cy="427" r="5"/><circle cx="253" cy="472" r="6"/><circle cx="376" cy="446" r="5"/><circle cx="451" cy="417" r="5"/><circle cx="518" cy="421" r="6"/><circle cx="583" cy="409" r="5"/><circle cx="673" cy="434" r="4"/><circle cx="753" cy="454" r="4"/><circle cx="841" cy="447" r="4"/><circle cx="942" cy="406" r="5"/><circle cx="1002" cy="422" r="6"/><circle cx="1101" cy="424" r="6"/><circle cx="1146" cy="451" r="5"/><circle cx="1231" cy="433" r="4"/><circle cx="1283" cy="477" r="6"/><circle cx="1414" cy="415" r="4"/><circle cx="1504" cy="405" r="5"/><circle cx="1526" cy="409" r="5"/><circle cx="1648" cy="447" r="6"/><circle cx="1714" cy="448" r="6"/><circle cx="1794" cy="462" r="5"/><circle cx="1897" cy="434" r="5"/><circle cx="1953" cy="404" r="6"/><circle cx="2076" cy="464" r="6"/><circle cx="2084" cy="427" r="6"/><circle cx="2226" cy="431" r="5"/><circle cx="2292" cy="449" r="5"/><circle cx="2382" cy="422" r="5"/><circle cx="2414" cy="409" r="5"/><circle cx="2488" cy="446" r="5"/><circle cx="8" cy="504" r="4"/><circle cx="154" cy="522" r="5"/><circle cx="177" cy="508" r="5"/><circle cx="242" cy="480" r="5"/><circle cx="350" cy="536" r="5"/><circle cx="429" cy="489" r="6"/><circle cx="532" cy="553" r="5"/><circle cx="614" cy="513" r="4"/><circle cx="663" cy="520" r="5"/><circle cx="722" cy="544" r="5"/><circle cx="858" cy="529" r="6"/><circle cx="954" cy="551" r="4"/><circle cx="1019" cy="501" r="5"/><circle cx="1078" cy="518" r="5"/><circle cx="1169" cy="536" r="6"/><circle cx="1272" cy="537" r="4"/><circle cx="1295" cy="493" r="5"/><circle cx="1390" cy="493" r="5"/><circle cx="1449" cy="553" r="5"/><circle cx="1542" cy="485" r="4"/><circle cx="1606" cy="524" r="6"/><circle cx="1728" cy="495" r="4"/><circle cx="1834" cy="487" r="5"/><circle cx="1892" cy="482" r="6"/><circle cx="1940" cy="486" r="6"/><circle cx="2025" cy="511" r="6"/><circle cx="2109" cy="488" r="5"/><circle cx="2221" cy="498" r="6"/><circle cx="2301" cy="549" r="4"/><circle cx="2386" cy="558" r="4"/><circle cx="2420" cy="508" r="6"/><circle cx="2527" cy="495" r="4"/><circle cx="60" cy="562" r="5"/><circle cx="140" cy="601" r="5"/><circle cx="187" cy="596" r="5"/><circle cx="315" cy="581" r="5"/><circle cx="321" cy="585" r="6"/><circle cx="419" cy="634" r="5"/><circle cx="549" cy="624" r="6"/><circle cx="584" cy="627" r="6"/><circle cx="660" cy="621" r="5"/><circle cx="746" cy="638" r="4"/><circle cx="810" cy="609" r="4"/><circle cx="901" cy="599" r="6"/><circle cx="987" cy="611" r="5"/><circle cx="1093" cy="595" r="5"/><circle cx="1175" cy="626" r="5"/><circle cx="1211" cy="594" r="6"/><circle cx="1342" cy="600" r="4"/><circle cx="1418" cy="633" r="5"/><circle cx="1483" cy="617" r="4"/><circle cx="1533" cy="629" r="5"/><circle cx="1676" cy="569" r="4"/><circle cx="1752" cy="606" r="6"/><circle cx="1762" cy="575" r="4"/><circle cx="1858" cy="606" r="5"/><circle cx="1998" cy="596" r="6"/><circle cx="2050" cy="609" r="6"/><circle cx="2085" cy="607" r="5"/><circle cx="2212" cy="619" r="4"/><circle cx="2260" cy="604" r="5"/><circle cx="2373" cy="575" r="5"/><circle cx="2437" cy="573" r="5"/><circle cx="2512" cy="638" r="4"/><circle cx="27" cy="699" r="6"/><circle cx="146" cy="677" r="4"/><circle cx="189" cy="677" r="6"/><circle cx="306" cy="661" r="4"/><circle cx="388" cy="684" r="6"/><circle cx="454" cy="670" r="5"/><circle cx="508" cy="720" r="4"/><circle cx="590" cy="672" r="5"/><circle cx="682" cy="676" r="5"/><circle cx="783" cy="646" r="5"/><circle cx="844" cy="710" r="5"/><circle cx="916" cy="688" r="5"/><circle cx="1022" cy="650" r="5"/><circle cx="1070" cy="666" r="6"/><circle cx="1198" cy="698" r="5"/><circle cx="1267" cy="663" r="4"/><circle cx="1334" cy="669" r="6"/><circle cx="1423" cy="676" r="5"/><circle cx="1459" cy="703" r="6"/><circle cx="1584" cy="662" r="5"/><circle cx="1622" cy="694" r="5"/><circle cx="1689" cy="667" r="6"/><circle cx="1838" cy="690" r="6"/><circle cx="1869" cy="668" r="5"/><circle cx="1935" cy="663" r="6"/><circle cx="2004" cy="643" r="5"/><circle cx="2146" cy="712" r="5"/><circle cx="2207" cy="682" r="5"/><circle cx="2305" cy="679" r="6"/><circle cx="2337" cy="713" r="5"/><circle cx="2464" cy="703" r="6"/><circle cx="2517" cy="686" r="5"/><circle cx="13" cy="741" r="4"/><circle cx="151" cy="759" r="5"/><circle cx="193" cy="779" r="5"/><circle cx="281" cy="734" r="5"/><circle cx="365" cy="795" r="6"/><circle cx="401" cy="791" r="5"/><circle cx="556" cy="758" r="6"/><circle cx="566" cy="745" r="5"/><circle cx="673" cy="787" r="5"/><circle cx="764" cy="786" r="4"/><circle cx="862" cy="774" r="5"/><circle cx="929" cy="753" r="5"/><circle cx="993" cy="783" r="5"/><circle cx="1070" cy="767" r="6"/><circle cx="1194" cy="787" r="4"/><circle cx="1270" cy="739" r="4"/><circle cx="1296" cy="769" r="6"/><circle cx="1391" cy="729" r="5"/><circle cx="1469" cy="730" r="4"/><circle cx="1551" cy="722" r="6"/><circle cx="1666" cy="788" r="6"/><circle cx="1708" cy="784" r="5"/><circle cx="1813" cy="782" r="6"/><circle cx="1909" cy="721" r="6"/><circle cx="1993" cy="749" r="5"/><circle cx="2035" cy="737" r="5"/><circle cx="2088" cy="777" r="4"/><circle cx="2227" cy="724" r="5"/><circle cx="2277" cy="755" r="5"/><circle cx="2324" cy="738" r="5"/><circle cx="2472" cy="724" r="4"/><circle cx="2554" cy="729" r="5"/><circle cx="60" cy="857" r="4"/><circle cx="139" cy="812" r="5"/><circle cx="192" cy="839" r="5"/><circle cx="295" cy="848" r="5"/><circle cx="376" cy="819" r="4"/><circle cx="445" cy="839" r="6"/><circle cx="558" cy="843" r="6"/><circle cx="573" cy="802" r="5"/><circle cx="641" cy="808" r="5"/><circle cx="778" cy="857" r="6"/><circle cx="819" cy="802" r="5"/><circle cx="907" cy="867" r="5"/><circle cx="1003" cy="874" r="5"/><circle cx="1054" cy="810" r="6"/><circle cx="1181" cy="831" r="5"/><circle cx="1205" cy="872" r="5"/><circle cx="1283" cy="860" r="6"/><circle cx="1361" cy="833" r="4"/><circle cx="1442" cy="808" r="6"/><circle cx="1539" cy="830" r="6"/><circle cx="1652" cy="871" r="5"/><circle cx="1752" cy="820" r="6"/><circle cx="1799" cy="814" r="6"/><circle cx="1880" cy="819" r="6"/><circle cx="1936" cy="829" r="5"/><circle cx="2073" cy="830" r="4"/><circle cx="2127" cy="827" r="5"/><circle cx="2194" cy="845" r="4"/><circle cx="2265" cy="852" r="5"/><circle cx="2324" cy="860" r="4"/><circle cx="2441" cy="873" r="6"/><circle cx="2488" cy="854" r="5"/><circle cx="51" cy="920" r="4"/><circle cx="138" cy="944" r="6"/><circle cx="190" cy="946" r="4"/><circle cx="289" cy="908" r="5"/><circle cx="330" cy="933" r="5"/><circle cx="412" cy="952" r="5"/><circle cx="492" cy="955" r="5"/><circle cx="587" cy="905" r="5"/><circle cx="696" cy="957" r="5"/><circle cx="743" cy="887" r="5"/><circle cx="823" cy="885" r="4"/><circle cx="914" cy="890" r="5"/><circle cx="995" cy="911" r="6"/><circle cx="1081" cy="935" r="5"/><circle cx="1133" cy="934" r="6"/><circle cx="1277" cy="960" r="5"/><circle cx="1337" cy="944" r="5"/><circle cx="1420" cy="886" r="6"/><circle cx="1477" cy="940" r="5"/><circle cx="1579" cy="917" r="5"/><circle cx="1656" cy="940" r="6"/><circle cx="1684" cy="934" r="5"/><circle cx="1768" cy="931" r="4"/><circle cx="1844" cy="895" r="4"/><circle cx="1928" cy="915" r="5"/><circle cx="2011" cy="909" r="6"/><circle cx="2100" cy="917" r="5"/><circle cx="2228" cy="918" r="6"/><circle cx="2270" cy="947" r="6"/><circle cx="2364" cy="894" r="5"/><circle cx="2456" cy="887" r="4"/><circle cx="2536" cy="931" r="5"/><circle cx="62" cy="968" r="5"/><circle cx="145" cy="1025" r="4"/><circle cx="195" cy="1028" r="4"/><circle cx="289" cy="1010" r="5"/><circle cx="375" cy="1007" r="4"/><circle cx="460" cy="966" r="4"/><circle cx="480" cy="971" r="6"/><circle cx="628" cy="960" r="5"/><circle cx="662" cy="1039" r="5"/><circle cx="755" cy="986" r="5"/><circle cx="841" cy="961" r="4"/><circle cx="909" cy="1014" r="4"/><circle cx="1008" cy="1032" r="5"/><circle cx="1047" cy="969" r="4"/><circle cx="1196" cy="1026" r="6"/><circle cx="1279" cy="999" r="6"/><circle cx="1355" cy="1038" r="5"/><circle cx="1374" cy="1015" r="4"/><circle cx="1494" cy="999" r="5"/><circle cx="1574" cy="1002" r="6"/><circle cx="1628" cy="988" r="5"/><circle cx="1707" cy="975" r="6"/><circle cx="1809" cy="1031" r="6"/><circle cx="1903" cy="1031" r="4"/><circle cx="2000" cy="966" r="5"/><circle cx="2007" cy="1008" r="4"/><circle cx="2137" cy="964" r="6"/><circle cx="2201" cy="983" r="6"/><circle cx="2298" cy="1006" r="4"/><circle cx="2344" cy="981" r="5"/><circle cx="2403" cy="1002" r="5"/><circle cx="2491" cy="1026" r="6"/><circle cx="19" cy="1102" r="5"/><circle cx="87" cy="1119" r="6"/><circle cx="193" cy="1044" r="5"/><circle cx="245" cy="1101" r="5"/><circle cx="398" cy="1043" r="4"/><circle cx="450" cy="1077" r="4"/><circle cx="481" cy="1051" r="5"/><circle cx="625" cy="1059" r="5"/><circle cx="697" cy="1073" r="5"/><circle cx="767" cy="1046" r="6"/><circle cx="842" cy="1101" r="4"/><circle cx="893" cy="1065" r="4"/><circle cx="1022" cy="1050" r="5"/><circle cx="1068" cy="1091" r="4"/><circle cx="1170" cy="1099" r="6"/><circle cx="1219" cy="1114" r="6"/><circle cx="1341" cy="1058" r="5"/><circle cx="1410" cy="1059" r="4"/><circle cx="1485" cy="1097" r="5"/><circle cx="1539" cy="1111" r="5"/><circle cx="1623" cy="1079" r="4"/><circle cx="1732" cy="1071" r="4"/><circle cx="1800" cy="1071" r="4"/><circle cx="1895" cy="1050" r="5"/><circle cx="1987" cy="1055" r="5"/><circle cx="2032" cy="1057" r="6"/><circle cx="2089" cy="1113" r="5"/><circle cx="2227" cy="1062" r="4"/><circle cx="2317" cy="1064" r="6"/><circle cx="2323" cy="1102" r="5"/><circle cx="2426" cy="1099" r="5"/><circle cx="2544" cy="1103" r="6"/><circle cx="71" cy="1191" r="6"/><circle cx="148" cy="1180" r="5"/><circle cx="211" cy="1167" r="5"/><circle cx="249" cy="1134" r="5"/><circle cx="389" cy="1151" r="5"/><circle cx="409" cy="1131" r="5"/><circle cx="552" cy="1162" r="5"/><circle cx="636" cy="1147" r="6"/><circle cx="677" cy="1175" r="5"/><circle cx="732" cy="1141" r="5"/><circle cx="867" cy="1150" r="5"/><circle cx="887" cy="1176" r="5"/><circle cx="985" cy="1123" r="5"/><circle cx="1065" cy="1143" r="4"/><circle cx="1146" cy="1170" r="6"/><circle cx="1279" cy="1196" r="5"/><circle cx="1300" cy="1122" r="5"/><circle cx="1394" cy="1200" r="6"/><circle cx="1465" cy="1123" r="4"/><circle cx="1593" cy="1169" r="6"/><circle cx="1607" cy="1124" r="6"/><circle cx="1729" cy="1175" r="6"/><circle cx="1827" cy="1174" r="6"/><circle cx="1859" cy="1128" r="6"/><circle cx="1974" cy="1169" r="4"/><circle cx="2002" cy="1153" r="5"/><circle cx="2102" cy="1142" r="5"/><circle cx="2222" cy="1120" r="5"/><circle cx="2306" cy="1125" r="6"/><circle cx="2377" cy="1129" r="5"/><circle cx="2403" cy="1140" r="4"/><circle cx="2537" cy="1191" r="5"/><circle cx="72" cy="1238" r="5"/><circle cx="140" cy="1213" r="5"/><circle cx="236" cy="1239" r="6"/><circle cx="242" cy="1215" r="6"/><circle cx="339" cy="1255" r="5"/><circle cx="451" cy="1237" r="6"/><circle cx="531" cy="1214" r="5"/><circle cx="628" cy="1210" r="5"/><circle cx="692" cy="1244" r="5"/><circle cx="729" cy="1268" r="5"/><circle cx="839" cy="1278" r="5"/><circle cx="952" cy="1215" r="5"/><circle cx="985" cy="1254" r="4"/><circle cx="1090" cy="1211" r="5"/><circle cx="1125" cy="1268" r="5"/><circle cx="1223" cy="1202" r="5"/><circle cx="1294" cy="1247" r="4"/><circle cx="1432" cy="1234" r="6"/><circle cx="1482" cy="1266" r="4"/><circle cx="1558" cy="1236" r="6"/><circle cx="1678" cy="1245" r="5"/><circle cx="1707" cy="1274" r="5"/><circle cx="1837" cy="1200" r="5"/><circle cx="1875" cy="1256" r="5"/><circle cx="1945" cy="1260" r="5"/><circle cx="2037" cy="1210" r="4"/><circle cx="2156" cy="1212" r="4"/><circle cx="2194" cy="1258" r="6"/><circle cx="2306" cy="1219" r="4"/><circle cx="2348" cy="1257" r="5"/><circle cx="2433" cy="1246" r="6"/><circle cx="2522" cy="1239" r="5"/><circle cx="12" cy="1360" r="6"/><circle cx="102" cy="1322" r="6"/><circle cx="213" cy="1331" r="4"/><circle cx="259" cy="1334" r="5"/><circle cx="337" cy="1289" r="6"/><circle cx="454" cy="1348" r="4"/><circle cx="548" cy="1359" r="5"/><circle cx="617" cy="1309" r="5"/><circle cx="699" cy="1334" r="5"/><circle cx="759" cy="1313" r="4"/><circle cx="853" cy="1328" r="5"/><circle cx="900" cy="1320" r="4"/><circle cx="971" cy="1353" r="4"/><circle cx="1083" cy="1288" r="6"/><circle cx="1188" cy="1326" r="5"/><circle cx="1242" cy="1292" r="5"/><circle cx="1315" cy="1333" r="6"/><circle cx="1392" cy="1303" r="5"/><circle cx="1457" cy="1289" r="6"/><circle cx="1599" cy="1311" r="4"/><circle cx="1606" cy="1330" r="6"/><circle cx="1750" cy="1298" r="5"/><circle cx="1815" cy="1334" r="4"/><circle cx="1891" cy="1348" r="6"/><circle cx="1930" cy="1292" r="6"/><circle cx="2071" cy="1296" r="4"/><circle cx="2104" cy="1284" r="5"/><circle cx="2223" cy="1281" r="6"/><circle cx="2289" cy="1318" r="5"/><circle cx="2367" cy="1322" r="5"/><circle cx="2403" cy="1301" r="5"/><circle cx="2546" cy="1339" r="5"/><circle cx="37" cy="1378" r="5"/><circle cx="141" cy="1434" r="6"/><circle cx="141" cy="-6" r="6"/><circle cx="227" cy="1409" r="5"/><circle cx="300" cy="1396" r="4"/><circle cx="326" cy="1382" r="4"/><circle cx="471" cy="1380" r="5"/><circle cx="528" cy="1439" r="5"/><circle cx="528" cy="-1" r="5"/><circle cx="630" cy="1423" r="6"/><circle cx="709" cy="1417" r="4"/><circle cx="800" cy="1391" r="6"/><circle cx="848" cy="1401" r="5"/><circle cx="913" cy="1406" r="4"/><circle cx="1039" cy="1437" r="6"/><circle cx="1039" cy="-3" r="6"/><circle cx="1042" cy="1439" r="4"/><circle cx="1042" cy="-1" r="4"/><circle cx="1133" cy="1403" r="5"/><circle cx="1212" cy="1363" r="5"/><circle cx="1332" cy="1363" r="5"/><circle cx="1438" cy="1408" r="5"/><circle cx="1461" cy="1428" r="5"/><circle cx="1522" cy="1434" r="5"/><circle cx="1605" cy="1386" r="5"/><circle cx="1702" cy="1383" r="5"/><circle cx="1816" cy="1392" r="6"/><circle cx="1846" cy="1416" r="5"/><circle cx="1952" cy="1386" r="5"/><circle cx="2072" cy="1417" r="4"/><circle cx="2108" cy="1415" r="5"/><circle cx="2161" cy="1416" r="6"/><circle cx="2317" cy="1375" r="6"/><circle cx="2322" cy="1364" r="5"/><circle cx="2427" cy="1383" r="5"/><circle cx="2535" cy="1401" r="4"/><path stroke="#fff" d="M57 66L143 40M57 66L-40 15M57 66L46 113M57 66L141 -6M2617 66L2520 15M57 1506L141 1434M143 40L216 32M143 40L139 132M143 40L141 -6M143 1480L141 1434M216 32L281 3M216 32L272 97M216 32L141 -6M216 32L227 -31M216 1472L141 1434M216 1472L227 1409M281 3L272 97M281 3L227 -31M281 3L300 -44M281 3L326 -58M281 1443L227 1409M281 1443L300 1396M281 1443L326 1382M364 71L435 76M364 71L272 97M364 71L325 116M364 71L455 126M435 76L482 16M435 76L455 126M482 16L454 -92M482 16L471 -60M482 16L528 -1M482 1456L454 1348M482 1456L471 1380M482 1456L528 1439M595 14L661 2M595 14L585 83M595 14L528 -1M595 14L630 -17M595 1454L528 1439M595 1454L630 1423M661 2L740 6M661 2L630 -17M661 2L709 -23M661 1442L630 1423M661 1442L709 1417M740 6L847 6M740 6L740 94M740 6L709 -23M740 6L800 -49M740 1446L709 1417M740 1446L800 1391M847 6L909 39M847 6L800 -49M847 6L848 -39M847 6L913 -34M847 1446L800 1391M847 1446L848 1401M847 1446L913 1406M909 39L1015 21M909 39L848 -39M909 39L913 -34M909 1479L848 1401M909 1479L913 1406M1015 21L1069 21M1015 21L1044 130M1015 21L1039 -3M1015 21L1042 -1M1015 1461L1039 1437M1015 1461L1042 1439M1069 21L1156 70M1069 21L1039 -3M1069 21L1042 -1M1069 21L1133 -37M1069 1461L1039 1437M1069 1461L1042 1439M1069 1461L1133 1403M1156 70L1253 29M1156 70L1161 105M1253 29L1288 66M1253 29L1161 105M1253 29L1212 -77M1253 1469L1212 1363M1288 66L1371 6M1288 66L1243 155M1288 66L1335 131M1288 66L1295 167M1371 6L1332 -77M1371 6L1438 -32M1371 6L1461 -12M1371 1446L1332 1363M1371 1446L1438 1408M1371 1446L1461 1428M1516 49L1570 42M1516 49L1461 99M1516 49L1537 88M1516 49L1461 -12M1516 49L1522 -6M1516 1489L1461 1428M1516 1489L1522 1434M1570 42L1631 11M1570 42L1537 88M1570 42L1635 99M1570 42L1522 -6M1570 1482L1522 1434M1631 11L1713 37M1631 11L1635 99M1631 11L1605 -54M1631 11L1702 -57M1631 1451L1605 1386M1631 1451L1702 1383M1713 37L1635 99M1713 37L1737 117M1713 37L1702 -57M1713 1477L1702 1383M1819 60L1889 30M1819 60L1841 144M1819 60L1846 -24M1819 1500L1846 1416M1889 30L1975 77M1889 30L1816 -48M1889 30L1846 -24M1889 30L1952 -54M1889 1470L1816 1392M1889 1470L1846 1416M1889 1470L1952 1386M1975 77L2014 65M1975 77L1947 111M1975 77L2007 133M1975 77L1979 165M2014 65L2118 37M2014 65L1947 111M2014 65L2007 133M2014 65L1979 165M2118 37L2169 20M2118 37L2072 -23M2118 37L2108 -25M2118 37L2161 -24M2118 1477L2072 1417M2118 1477L2108 1415M2118 1477L2161 1416M2169 20L2133 137M2169 20L2072 -23M2169 20L2108 -25M2169 20L2161 -24M2169 1460L2072 1417M2169 1460L2108 1415M2169 1460L2161 1416M2292 71L2355 41M2292 71L2307 93M2292 71L2343 107M2355 41L2307 93M2355 41L2343 107M2355 41L2317 -65M2355 1481L2317 1375M2471 58L2520 15M2471 58L2440 127M2471 58L2515 144M2520 15L2572 -80M2520 15L2597 -62M2520 15L2535 -39M-40 15L12 -80M-40 15L37 -62M-40 1455L12 1360M-40 1455L37 1378M2520 1455L2572 1360M2520 1455L2597 1378M2520 1455L2535 1401M46 113L139 132M46 113L-45 144M46 113L76 217M46 113L-48 191M2606 113L2515 144M2606 113L2512 191M139 132L169 157M139 132L155 181M139 132L162 167M169 157L155 181M169 157L162 167M169 157L241 197M272 97L325 116M325 116L358 220M455 126L518 134M455 126L473 182M518 134L585 83M518 134L473 182M518 134L504 234M518 134L596 173M585 83L596 173M689 143L740 94M689 143L596 173M689 143L709 198M689 143L760 206M740 94L709 198M861 158L941 147M861 158L760 206M861 158L871 210M941 147L1018 146M941 147L871 210M941 147L926 235M941 147L988 183M1018 146L1044 130M1018 146L988 183M1044 130L988 183M1044 130L1094 224M1044 130L1093 245M1161 105L1243 155M1161 105L1138 228M1243 155L1274 171M1243 155L1295 167M1335 131L1389 138M1335 131L1274 171M1335 131L1295 167M1335 131L1405 165M1389 138L1461 99M1389 138L1405 165M1389 138L1443 195M1461 99L1537 88M1461 99L1405 165M1461 99L1443 195M1537 88L1635 99M1737 117L1817 152M1737 117L1841 144M1737 117L1734 174M1817 152L1841 144M1817 152L1734 174M1817 152L1800 210M1817 152L1887 204M1841 144L1800 210M1841 144L1887 204M1947 111L2007 133M1947 111L1979 165M2007 133L1979 165M2007 133L2009 200M2133 137L2193 139M2133 137L2137 206M2133 137L2200 180M2193 139L2137 206M2193 139L2200 180M2193 139L2255 210M2307 93L2343 107M2307 93L2327 189M2343 107L2440 127M2343 107L2327 189M2440 127L2515 144M2440 127L2431 189M2440 127L2512 191M2515 144L2431 189M2515 144L2512 191M76 217L155 181M76 217L162 167M76 217L76 316M76 217L86 304M155 181L162 167M155 181L241 197M162 167L241 197M241 197L219 273M241 197L276 277M358 220L393 270M358 220L354 327M473 182L504 234M473 182L481 266M504 234L473 314M504 234L481 266M596 173L709 198M596 173L669 262M709 198L760 206M709 198L669 262M760 206L669 262M760 206L779 302M871 210L926 235M871 210L853 296M871 210L924 293M926 235L988 183M926 235L924 293M926 235L972 310M1094 224L1138 228M1094 224L1093 245M1094 224L1177 296M1138 228L1093 245M1138 228L1177 296M1274 171L1295 167M1295 167L1405 165M1405 165L1443 195M1443 195L1403 282M1443 195L1506 276M1587 226L1623 202M1587 226L1506 276M1587 226L1578 263M1587 226L1653 311M1623 202L1734 174M1623 202L1578 263M1623 202L1653 311M1734 174L1800 210M1800 210L1887 204M1800 210L1825 271M1887 204L1854 283M1887 204L1932 255M1979 165L2009 200M2009 200L1932 255M2009 200L2036 280M2009 200L2088 270M2137 206L2200 180M2137 206L2088 270M2137 206L2174 259M2200 180L2255 210M2200 180L2174 259M2255 210L2327 189M2255 210L2174 259M2255 210L2297 285M2327 189L2431 189M2327 189L2297 285M2431 189L2512 191M2431 189L2401 297M2512 191L2522 271M76 316L86 304M76 316L12 391M76 316L155 389M86 304L219 273M86 304L12 391M86 304L155 389M219 273L276 277M219 273L212 363M276 277L212 363M276 277L354 327M393 270L473 314M393 270L481 266M393 270L354 327M393 270L446 336M473 314L481 266M473 314L446 336M473 314L556 368M481 266L446 336M634 296L669 262M634 296L556 368M634 296L575 357M634 296L686 359M634 296L749 340M669 262L686 359M779 302L853 296M779 302L686 359M779 302L749 340M779 302L827 393M853 296L924 293M924 293L972 310M924 293L920 384M972 310L920 384M972 310L992 376M972 310L1049 326M1093 245L1177 296M1093 245L1049 326M1177 296L1149 368M1177 296L1263 366M1276 287L1301 282M1276 287L1263 366M1301 282L1403 282M1301 282L1263 366M1301 282L1341 375M1301 282L1409 329M1403 282L1506 276M1403 282L1409 329M1506 276L1578 263M1506 276L1511 374M1578 263L1653 311M1653 311L1741 305M1653 311L1667 362M1741 305L1825 271M1741 305L1667 362M1741 305L1743 390M1741 305L1804 349M1825 271L1854 283M1825 271L1804 349M1825 271L1863 345M1854 283L1932 255M1854 283L1804 349M1854 283L1863 345M1932 255L2036 280M2036 280L2088 270M2036 280L1986 358M2036 280L2072 343M2088 270L2174 259M2088 270L2072 343M2297 285L2356 307M2297 285L2259 359M2297 285L2345 347M2356 307L2401 297M2356 307L2345 347M2401 297L2345 347M2401 297L2454 352M2401 297L2414 409M2522 271L2525 337M12 391L-35 337M12 391L20 426M12 391L-72 446M2572 391L2525 337M2572 391L2488 446M155 389L212 363M155 389L130 423M155 389L168 427M212 363L298 385M212 363L168 427M298 385L354 327M298 385L253 472M298 385L376 446M298 385L242 480M354 327L446 336M446 336L451 417M556 368L575 357M556 368L518 421M556 368L583 409M575 357L518 421M575 357L583 409M686 359L749 340M686 359L673 434M749 340L827 393M827 393L753 454M827 393L841 447M920 384L992 376M920 384L942 406M920 384L1002 422M992 376L1049 326M992 376L942 406M992 376L1002 422M1049 326L1101 424M1149 368L1101 424M1149 368L1146 451M1263 366L1341 375M1263 366L1231 433M1341 375L1409 329M1341 375L1414 415M1409 329L1511 374M1409 329L1414 415M1511 374L1551 386M1511 374L1504 405M1511 374L1526 409M1551 386L1504 405M1551 386L1526 409M1551 386L1542 485M1667 362L1743 390M1667 362L1648 447M1667 362L1714 448M1743 390L1804 349M1743 390L1714 448M1743 390L1794 462M1804 349L1863 345M1863 345L1897 434M1863 345L1953 404M1986 358L2072 343M1986 358L1953 404M2072 343L2132 375M2072 343L2084 427M2132 375L2182 393M2132 375L2076 464M2132 375L2084 427M2132 375L2226 431M2182 393L2259 359M2182 393L2226 431M2259 359L2345 347M2259 359L2226 431M2259 359L2292 449M2345 347L2382 422M2454 352L2525 337M2454 352L2382 422M2454 352L2414 409M2454 352L2488 446M20 426L130 423M20 426L8 504M20 426L-33 495M2580 426L2527 495M130 423L168 427M168 427L177 508M168 427L242 480M253 472L154 522M253 472L177 508M253 472L242 480M376 446L451 417M376 446L350 536M376 446L429 489M451 417L518 421M451 417L429 489M518 421L583 409M518 421L429 489M583 409L673 434M583 409L614 513M673 434L753 454M673 434L614 513M673 434L663 520M753 454L841 447M753 454L663 520M753 454L722 544M841 447L942 406M841 447L858 529M942 406L1002 422M1002 422L1101 424M1002 422L1019 501M1101 424L1146 451M1101 424L1078 518M1146 451L1231 433M1146 451L1078 518M1146 451L1169 536M1231 433L1283 477M1231 433L1295 493M1283 477L1272 537M1283 477L1295 493M1283 477L1390 493M1414 415L1504 405M1414 415L1390 493M1504 405L1526 409M1504 405L1542 485M1526 409L1542 485M1648 447L1714 448M1648 447L1542 485M1648 447L1606 524M1648 447L1728 495M1714 448L1794 462M1714 448L1728 495M1794 462L1728 495M1794 462L1834 487M1794 462L1892 482M1897 434L1953 404M1897 434L1834 487M1897 434L1892 482M1897 434L1940 486M1953 404L1892 482M1953 404L1940 486M2076 464L2084 427M2076 464L2025 511M2076 464L2109 488M2084 427L2109 488M2226 431L2292 449M2226 431L2221 498M2292 449L2382 422M2292 449L2221 498M2292 449L2301 549M2382 422L2414 409M2382 422L2420 508M2414 409L2488 446M2488 446L2420 508M2488 446L2527 495M8 504L-33 495M8 504L60 562M2568 504L2527 495M154 522L177 508M154 522L242 480M154 522L140 601M154 522L187 596M177 508L242 480M177 508L187 596M350 536L429 489M350 536L315 581M350 536L321 585M429 489L532 553M532 553L614 513M532 553L549 624M532 553L584 627M614 513L663 520M663 520L722 544M663 520L660 621M722 544L746 638M858 529L954 551M858 529L810 609M858 529L901 599M858 529L783 646M954 551L1019 501M954 551L901 599M954 551L987 611M954 551L1022 650M1019 501L1078 518M1078 518L1169 536M1078 518L1093 595M1169 536L1093 595M1169 536L1175 626M1169 536L1211 594M1272 537L1295 493M1272 537L1211 594M1272 537L1342 600M1295 493L1390 493M1390 493L1449 553M1449 553L1418 633M1449 553L1483 617M1542 485L1606 524M1606 524L1676 569M1728 495L1676 569M1728 495L1762 575M1834 487L1892 482M1834 487L1940 486M1892 482L1940 486M1940 486L2025 511M2025 511L2109 488M2025 511L1998 596M2025 511L2050 609M2109 488L2221 498M2109 488L2085 607M2221 498L2301 549M2221 498L2260 604M2301 549L2386 558M2301 549L2260 604M2301 549L2373 575M2386 558L2420 508M2386 558L2373 575M2386 558L2437 573M2420 508L2373 575M2420 508L2437 573M2527 495L2620 562M-33 495L60 562M60 562L140 601M140 601L187 596M140 601L146 677M140 601L189 677M187 596L146 677M187 596L189 677M315 581L321 585M315 581L419 634M315 581L306 661M321 585L419 634M321 585L306 661M419 634L388 684M419 634L454 670M549 624L584 627M549 624L454 670M549 624L508 720M549 624L590 672M584 627L660 621M584 627L590 672M584 627L682 676M660 621L746 638M660 621L590 672M660 621L682 676M746 638L810 609M746 638L682 676M746 638L783 646M810 609L901 599M810 609L783 646M901 599L987 611M901 599L916 688M987 611L916 688M987 611L1022 650M987 611L1070 666M1093 595L1175 626M1093 595L1022 650M1093 595L1070 666M1175 626L1211 594M1175 626L1070 666M1175 626L1198 698M1211 594L1198 698M1211 594L1267 663M1342 600L1334 669M1418 633L1483 617M1418 633L1334 669M1418 633L1423 676M1418 633L1459 703M1483 617L1533 629M1533 629L1584 662M1533 629L1622 694M1533 629L1551 722M1676 569L1752 606M1676 569L1762 575M1676 569L1689 667M1752 606L1762 575M1752 606L1858 606M1752 606L1689 667M1762 575L1858 606M1858 606L1838 690M1858 606L1869 668M1998 596L2050 609M1998 596L2085 607M1998 596L1935 663M1998 596L2004 643M2050 609L2085 607M2050 609L2004 643M2085 607L2004 643M2085 607L2146 712M2212 619L2260 604M2212 619L2207 682M2260 604L2207 682M2260 604L2305 679M2373 575L2437 573M2512 638L2587 699M2512 638L2464 703M2512 638L2517 686M2512 638L2472 724M-48 638L27 699M27 699L-96 703M27 699L-43 686M27 699L13 741M27 699L-6 729M2587 699L2464 703M2587 699L2517 686M2587 699L2554 729M146 677L189 677M146 677L151 759M189 677L151 759M189 677L193 779M306 661L388 684M306 661L281 734M388 684L454 670M388 684L401 791M454 670L508 720M508 720L556 758M508 720L566 745M590 672L556 758M590 672L566 745M682 676L783 646M682 676L673 787M783 646L844 710M844 710L916 688M844 710L862 774M844 710L929 753M844 710L819 802M916 688L862 774M916 688L929 753M1022 650L1070 666M1070 666L1070 767M1198 698L1267 663M1198 698L1194 787M1198 698L1270 739M1267 663L1334 669M1267 663L1270 739M1334 669L1423 676M1334 669L1391 729M1423 676L1459 703M1423 676L1391 729M1423 676L1469 730M1459 703L1391 729M1459 703L1469 730M1459 703L1551 722M1584 662L1622 694M1584 662L1689 667M1584 662L1551 722M1622 694L1689 667M1622 694L1551 722M1622 694L1666 788M1689 667L1666 788M1838 690L1869 668M1838 690L1935 663M1838 690L1813 782M1838 690L1909 721M1869 668L1935 663M1869 668L1909 721M1935 663L2004 643M1935 663L1909 721M2004 643L2035 737M2146 712L2207 682M2146 712L2035 737M2146 712L2088 777M2146 712L2227 724M2207 682L2227 724M2305 679L2337 713M2305 679L2227 724M2305 679L2277 755M2305 679L2324 738M2337 713L2277 755M2337 713L2324 738M2464 703L2517 686M2464 703L2472 724M2464 703L2554 729M2517 686L2472 724M2517 686L2554 729M13 741L-88 724M13 741L-6 729M2573 741L2472 724M2573 741L2554 729M151 759L193 779M151 759L139 812M151 759L192 839M193 779L281 734M193 779L139 812M193 779L192 839M281 734L365 795M365 795L401 791M365 795L295 848M365 795L376 819M365 795L445 839M401 791L376 819M401 791L445 839M556 758L566 745M556 758L558 843M556 758L573 802M566 745L558 843M566 745L573 802M673 787L764 786M673 787L573 802M673 787L641 808M764 786L778 857M764 786L819 802M764 786L743 887M862 774L929 753M862 774L819 802M862 774L907 867M929 753L993 783M993 783L1070 767M993 783L1003 874M993 783L1054 810M1070 767L1054 810M1070 767L1181 831M1194 787L1270 739M1194 787L1296 769M1194 787L1181 831M1194 787L1205 872M1270 739L1296 769M1296 769L1283 860M1296 769L1361 833M1391 729L1469 730M1391 729L1442 808M1469 730L1551 722M1469 730L1442 808M1666 788L1708 784M1666 788L1652 871M1666 788L1752 820M1708 784L1652 871M1708 784L1752 820M1708 784L1799 814M1813 782L1752 820M1813 782L1799 814M1813 782L1880 819M1909 721L1993 749M1909 721L1880 819M1993 749L2035 737M1993 749L2088 777M1993 749L1936 829M2035 737L2088 777M2035 737L2073 830M2088 777L2073 830M2088 777L2127 827M2227 724L2277 755M2227 724L2324 738M2277 755L2324 738M2277 755L2265 852M2472 724L2554 729M60 857L139 812M60 857L51 920M60 857L62 968M139 812L192 839M192 839L295 848M295 848L376 819M295 848L289 908M295 848L330 933M376 819L445 839M558 843L573 802M558 843L641 808M558 843L587 905M573 802L641 808M641 808L587 905M778 857L819 802M778 857L743 887M778 857L823 885M819 802L823 885M907 867L1003 874M907 867L823 885M907 867L914 890M907 867L995 911M1003 874L1054 810M1003 874L914 890M1003 874L995 911M1054 810L1081 935M1181 831L1205 872M1181 831L1133 934M1205 872L1283 860M1205 872L1133 934M1283 860L1361 833M1283 860L1277 960M1283 860L1337 944M1361 833L1442 808M1361 833L1420 886M1442 808L1539 830M1442 808L1420 886M1539 830L1420 886M1539 830L1477 940M1539 830L1579 917M1652 871L1579 917M1652 871L1656 940M1652 871L1684 934M1752 820L1799 814M1799 814L1880 819M1799 814L1844 895M1880 819L1936 829M1880 819L1844 895M1936 829L1844 895M1936 829L1928 915M1936 829L2011 909M2073 830L2127 827M2073 830L2100 917M2127 827L2194 845M2127 827L2100 917M2194 845L2265 852M2194 845L2228 918M2265 852L2324 860M2265 852L2228 918M2265 852L2270 947M2324 860L2441 873M2324 860L2364 894M2441 873L2488 854M2441 873L2364 894M2441 873L2456 887M2488 854L2456 887M2488 854L2536 931M51 920L138 944M51 920L-24 931M51 920L62 968M2611 920L2536 931M138 944L190 946M138 944L62 968M138 944L145 1025M138 944L195 1028M190 946L289 908M190 946L145 1025M190 946L195 1028M289 908L330 933M289 908L289 1010M330 933L412 952M330 933L289 1010M330 933L375 1007M412 952L492 955M412 952L375 1007M412 952L460 966M412 952L480 971M492 955L587 905M492 955L460 966M492 955L480 971M492 955L481 1051M587 905L628 960M696 957L743 887M696 957L628 960M696 957L662 1039M696 957L755 986M743 887L823 885M743 887L755 986M823 885L841 961M914 890L995 911M914 890L841 961M995 911L1081 935M995 911L1047 969M1081 935L1133 934M1081 935L1047 969M1133 934L1047 969M1133 934L1196 1026M1277 960L1337 944M1277 960L1196 1026M1277 960L1279 999M1337 944L1279 999M1337 944L1355 1038M1337 944L1374 1015M1420 886L1477 940M1477 940L1494 999M1579 917L1656 940M1579 917L1574 1002M1579 917L1628 988M1656 940L1684 934M1656 940L1628 988M1656 940L1707 975M1684 934L1768 931M1684 934L1628 988M1684 934L1707 975M1768 931L1844 895M1768 931L1707 975M1844 895L1928 915M1928 915L2011 909M1928 915L2000 966M2011 909L2100 917M2011 909L2000 966M2011 909L2007 1008M2100 917L2137 964M2228 918L2270 947M2228 918L2137 964M2228 918L2201 983M2270 947L2201 983M2270 947L2298 1006M2270 947L2344 981M2364 894L2456 887M2364 894L2344 981M2364 894L2403 1002M2456 887L2536 931M2536 931L2622 968M2536 931L2491 1026M-24 931L62 968M145 1025L195 1028M145 1025L193 1044M195 1028L193 1044M195 1028L245 1101M289 1010L375 1007M289 1010L193 1044M289 1010L245 1101M375 1007L398 1043M460 966L480 971M460 966L398 1043M460 966L481 1051M480 971L450 1077M480 971L481 1051M628 960L662 1039M628 960L625 1059M662 1039L625 1059M662 1039L697 1073M662 1039L767 1046M755 986L841 961M755 986L767 1046M841 961L909 1014M909 1014L1008 1032M909 1014L893 1065M1008 1032L1047 969M1008 1032L1022 1050M1008 1032L1068 1091M1008 1032L985 1123M1047 969L1022 1050M1196 1026L1279 999M1196 1026L1170 1099M1196 1026L1219 1114M1279 999L1355 1038M1279 999L1341 1058M1355 1038L1374 1015M1355 1038L1341 1058M1355 1038L1410 1059M1374 1015L1341 1058M1374 1015L1410 1059M1494 999L1574 1002M1494 999L1485 1097M1574 1002L1628 988M1574 1002L1623 1079M1628 988L1707 975M1707 975L1732 1071M1809 1031L1903 1031M1809 1031L1732 1071M1809 1031L1800 1071M1809 1031L1895 1050M1809 1031L1859 1128M1903 1031L2007 1008M1903 1031L1895 1050M1903 1031L1987 1055M2000 966L2007 1008M2000 966L1987 1055M2000 966L2032 1057M2007 1008L1987 1055M2007 1008L2032 1057M2137 964L2201 983M2201 983L2298 1006M2201 983L2227 1062M2298 1006L2344 981M2298 1006L2317 1064M2344 981L2403 1002M2344 981L2317 1064M2403 1002L2491 1026M2403 1002L2426 1099M2491 1026L2579 1102M2491 1026L2426 1099M2491 1026L2544 1103M-69 1026L19 1102M19 1102L87 1119M19 1102L-16 1103M19 1102L-23 1191M2579 1102L2544 1103M2579 1102L2537 1191M87 1119L-16 1103M87 1119L71 1191M87 1119L148 1180M2647 1119L2544 1103M193 1044L245 1101M193 1044L249 1134M245 1101L211 1167M245 1101L249 1134M398 1043L450 1077M398 1043L481 1051M398 1043L409 1131M450 1077L481 1051M450 1077L389 1151M450 1077L409 1131M625 1059L697 1073M625 1059L636 1147M697 1073L767 1046M697 1073L636 1147M697 1073L732 1141M767 1046L842 1101M767 1046L732 1141M842 1101L893 1065M842 1101L867 1150M842 1101L887 1176M893 1065L867 1150M1022 1050L1068 1091M1022 1050L985 1123M1022 1050L1065 1143M1068 1091L1170 1099M1068 1091L985 1123M1068 1091L1065 1143M1170 1099L1219 1114M1170 1099L1146 1170M1219 1114L1146 1170M1219 1114L1300 1122M1219 1114L1223 1202M1341 1058L1410 1059M1341 1058L1300 1122M1410 1059L1485 1097M1410 1059L1465 1123M1485 1097L1539 1111M1485 1097L1465 1123M1485 1097L1607 1124M1539 1111L1623 1079M1539 1111L1465 1123M1539 1111L1593 1169M1539 1111L1607 1124M1623 1079L1732 1071M1623 1079L1593 1169M1623 1079L1607 1124M1732 1071L1800 1071M1732 1071L1729 1175M1800 1071L1895 1050M1800 1071L1827 1174M1800 1071L1859 1128M1895 1050L1987 1055M1895 1050L1859 1128M1987 1055L2032 1057M2032 1057L2089 1113M2032 1057L2002 1153M2089 1113L2002 1153M2089 1113L2102 1142M2227 1062L2222 1120M2317 1064L2323 1102M2317 1064L2306 1125M2317 1064L2377 1129M2323 1102L2222 1120M2323 1102L2306 1125M2323 1102L2377 1129M2323 1102L2403 1140M2426 1099L2377 1129M2426 1099L2403 1140M2544 1103L2537 1191M71 1191L148 1180M71 1191L-23 1191M71 1191L72 1238M71 1191L140 1213M2631 1191L2537 1191M148 1180L211 1167M148 1180L72 1238M148 1180L140 1213M211 1167L249 1134M211 1167L236 1239M211 1167L242 1215M249 1134L242 1215M389 1151L409 1131M389 1151L339 1255M389 1151L451 1237M409 1131L451 1237M552 1162L636 1147M552 1162L531 1214M552 1162L628 1210M636 1147L677 1175M636 1147L628 1210M677 1175L732 1141M677 1175L628 1210M677 1175L692 1244M677 1175L729 1268M867 1150L887 1176M867 1150L952 1215M887 1176L952 1215M985 1123L1065 1143M985 1123L952 1215M1065 1143L1146 1170M1065 1143L1090 1211M1146 1170L1090 1211M1146 1170L1223 1202M1279 1196L1300 1122M1279 1196L1394 1200M1279 1196L1223 1202M1279 1196L1294 1247M1394 1200L1465 1123M1394 1200L1432 1234M1394 1200L1392 1303M1394 1200L1457 1289M1593 1169L1607 1124M1593 1169L1558 1236M1729 1175L1827 1174M1729 1175L1678 1245M1729 1175L1707 1274M1729 1175L1837 1200M1827 1174L1859 1128M1827 1174L1837 1200M1827 1174L1875 1256M1859 1128L1837 1200M1974 1169L2002 1153M1974 1169L1945 1260M1974 1169L2037 1210M2002 1153L2102 1142M2002 1153L2037 1210M2102 1142L2222 1120M2102 1142L2037 1210M2102 1142L2156 1212M2222 1120L2306 1125M2222 1120L2156 1212M2306 1125L2377 1129M2306 1125L2306 1219M2377 1129L2403 1140M2403 1140L2433 1246M2537 1191L2632 1238M2537 1191L2522 1239M-23 1191L72 1238M72 1238L140 1213M72 1238L102 1322M140 1213L236 1239M140 1213L242 1215M236 1239L242 1215M236 1239L213 1331M236 1239L259 1334M242 1215L339 1255M339 1255L451 1237M339 1255L337 1289M451 1237L531 1214M451 1237L454 1348M628 1210L692 1244M628 1210L617 1309M692 1244L729 1268M692 1244L617 1309M692 1244L699 1334M729 1268L839 1278M729 1268L699 1334M729 1268L759 1313M839 1278L759 1313M839 1278L853 1328M839 1278L900 1320M952 1215L985 1254M985 1254L1090 1211M985 1254L971 1353M985 1254L1083 1288M1090 1211L1125 1268M1090 1211L1083 1288M1125 1268L1083 1288M1125 1268L1188 1326M1223 1202L1294 1247M1223 1202L1242 1292M1294 1247L1242 1292M1294 1247L1315 1333M1432 1234L1482 1266M1432 1234L1392 1303M1432 1234L1457 1289M1482 1266L1558 1236M1482 1266L1457 1289M1558 1236L1457 1289M1558 1236L1599 1311M1558 1236L1606 1330M1678 1245L1707 1274M1678 1245L1599 1311M1678 1245L1606 1330M1678 1245L1750 1298M1707 1274L1750 1298M1837 1200L1875 1256M1875 1256L1945 1260M1875 1256L1930 1292M1945 1260L1930 1292M2037 1210L2071 1296M2037 1210L2104 1284M2156 1212L2194 1258M2156 1212L2104 1284M2156 1212L2223 1281M2194 1258L2306 1219M2194 1258L2104 1284M2194 1258L2223 1281M2306 1219L2348 1257M2306 1219L2223 1281M2348 1257L2433 1246M2348 1257L2289 1318M2348 1257L2367 1322M2348 1257L2403 1301M2433 1246L2522 1239M2433 1246L2403 1301M2522 1239L2546 1339M12 1360L102 1322M12 1360L-14 1339M12 1360L37 1378M12 1360L-25 1401M2572 1360L2546 1339M2572 1360L2535 1401M102 1322L213 1331M102 1322L37 1378M102 1322L141 1434M213 1331L259 1334M259 1334L337 1289M259 1334L227 1409M259 1334L300 1396M337 1289L300 1396M337 1289L326 1382M454 1348L548 1359M454 1348L471 1380M548 1359L617 1309M548 1359L471 1380M548 1359L528 1439M548 1359L630 1423M617 1309L699 1334M699 1334L759 1313M699 1334L709 1417M759 1313L853 1328M759 1313L800 1391M853 1328L900 1320M853 1328L800 1391M853 1328L848 1401M900 1320L971 1353M900 1320L913 1406M971 1353L913 1406M971 1353L1039 1437M971 1353L1042 1439M1083 1288L1188 1326M1188 1326L1242 1292M1188 1326L1133 1403M1188 1326L1212 1363M1242 1292L1315 1333M1242 1292L1212 1363M1315 1333L1392 1303M1315 1333L1212 1363M1315 1333L1332 1363M1392 1303L1457 1289M1392 1303L1332 1363M1599 1311L1606 1330M1599 1311L1605 1386M1606 1330L1605 1386M1606 1330L1702 1383M1750 1298L1815 1334M1750 1298L1702 1383M1750 1298L1816 1392M1815 1334L1891 1348M1815 1334L1930 1292M1815 1334L1816 1392M1815 1334L1846 1416M1891 1348L1930 1292M1891 1348L1816 1392M1891 1348L1846 1416M1891 1348L1952 1386M1930 1292L1952 1386M2071 1296L2104 1284M2104 1284L2223 1281M2223 1281L2289 1318M2289 1318L2367 1322M2289 1318L2317 1375M2289 1318L2322 1364M2367 1322L2403 1301M2367 1322L2317 1375M2367 1322L2322 1364M2403 1301L2427 1383M2546 1339L2597 1378M2546 1339L2427 1383M2546 1339L2535 1401M-14 1339L37 1378M37 1378L-25 1401M2597 1378L2535 1401M141 1434L227 1409M227 1409L300 1396M300 1396L326 1382M471 1380L528 1439M528 1439L630 1423M630 1423L709 1417M800 1391L848 1401M848 1401L913 1406M1039 1437L1042 1439M1039 1437L1133 1403M1042 1439L1133 1403M1133 1403L1212 1363M1332 1363L1438 1408M1438 1408L1461 1428M1438 1408L1522 1434M1461 1428L1522 1434M1522 1434L1605 1386M1605 1386L1702 1383M1816 1392L1846 1416M1952 1386L2072 1417M2072 1417L2108 1415M2072 1417L2161 1416M2108 1415L2161 1416M2317 1375L2322 1364M2317 1375L2427 1383M2322 1364L2427 1383M2427 1383L2535 1401"/></svg>