<svg xmlns="http://www.w3.org/2000/svg" width="2560" height="1440" fill="#fff"><circle cx="55" cy="59" r="5"/><circle cx="152" cy="9" r="4"/><circle cx="186" cy="51" r="4"/><circle cx="280" cy="57" r="5"/><circle cx="396" cy="71" r="4"/><circle cx="404" cy="36" r="5"/><circle cx="492" cy="44" r="6"/><circle cx="603" cy="31" r="5"/><circle cx="647" cy="0" r="6"/><circle cx="647" cy="1440" r="6"/><circle cx="780" cy="51" r="4"/><circle cx="822" cy="7" r="4"/><circle cx="897" cy="42" r="4"/><circle cx="1037" cy="76" r="6"/><circle cx="1046" cy="9" r="6"/><circle cx="1139" cy="74" r="4"/><circle cx="1238" cy="76" r="5"/><circle cx="1332" cy="77" r="4"/><circle cx="1421" cy="33" r="4"/><circle cx="1471" cy="55" r="6"/><circle cx="1597" cy="60" r="5"/><circle cx="1616" cy="46" r="4"/><circle cx="1683" cy="11" r="4"/><circle cx="1826" cy="77" r="6"/><circle cx="1920" cy="53" r="5"/><circle cx="1989" cy="44" r="5"/><circle cx="2036" cy="17" r="4"/><circle cx="2112" cy="21" r="4"/><circle cx="2209" cy="75" r="5"/><circle cx="2248" cy="57" r="4"/><circle cx="2394" cy="56" r="4"/><circle cx="2402" cy="36" r="5"/><circle cx="2521" cy="31" r="6"/><circle cx="57" cy="95" r="6"/><circle cx="122" cy="148" r="5"/><circle cx="225" cy="156" r="4"/><circle cx="267" cy="132" r="6"/><circle cx="361" cy="87" r="6"/><circle cx="413" cy="157" r="5"/><circle cx="497" cy="149" r="5"/><circle cx="606" cy="82" r="4"/><circle cx="712" cy="95" r="5"/><circle cx="744" cy="133" r="5"/><circle cx="816" cy="131" r="5"/><circle cx="898" cy="120" r="6"/><circle cx="1004" cy="143" r="5"/><circle cx="1045" cy="93" r="6"/><circle cx="1156" cy="141" r="5"/><circle cx="1217" cy="146" r="5"/><circle cx="1285" cy="121" r="5"/><circle cx="1387" cy="128" r="5"/><circle cx="1492" cy="102" r="5"/><circle cx="1534" cy="135" r="4"/><circle cx="1602" cy="101" r="5"/><circle cx="1745" cy="100" r="5"/><circle cx="1802" cy="114" r="4"/><circle cx="1882" cy="157" r="5"/><circle cx="1929" cy="144" r="6"/><circle cx="2063" cy="114" r="4"/><circle cx="2112" cy="145" r="5"/><circle cx="2169" cy="113" r="5"/><circle cx="2249" cy="94" r="5"/><circle cx="2362" cy="125" r="5"/><circle cx="2419" cy="105" r="5"/><circle cx="2513" cy="89" r="6"/><circle cx="13" cy="212" r="4"/><circle cx="112" cy="207" r="6"/><circle cx="232" cy="197" r="5"/><circle cx="286" cy="208" r="6"/><circle cx="384" cy="206" r="5"/><circle cx="409" cy="169" r="5"/><circle cx="538" cy="181" r="4"/><circle cx="610" cy="222" r="6"/><circle cx="681" cy="222" r="4"/><circle cx="795" cy="176" r="5"/><circle cx="807" cy="222" r="5"/><circle cx="932" cy="176" r="5"/><circle cx="1026" cy="236" r="5"/><circle cx="1097" cy="234" r="5"/><circle cx="1169" cy="165" r="4"/><circle cx="1274" cy="230" r="4"/><circle cx="1343" cy="238" r="6"/><circle cx="1376" cy="228" r="4"/><circle cx="1475" cy="193" r="4"/><circle cx="1535" cy="208" r="5"/><circle cx="1650" cy="204" r="5"/><circle cx="1732" cy="237" r="5"/><circle cx="1812" cy="206" r="6"/><circle cx="1875" cy="219" r="5"/><circle cx="1937" cy="198" r="4"/><circle cx="2078" cy="194" r="4"/><circle cx="2094" cy="183" r="5"/><circle cx="2197" cy="182" r="5"/><circle cx="2308" cy="180" r="5"/><circle cx="2330" cy="218" r="6"/><circle cx="2439" cy="176" r="5"/><circle cx="2482" cy="232" r="4"/><circle cx="60" cy="241" r="5"/><circle cx="89" cy="251" r="5"/><circle cx="236" cy="282" r="4"/><circle cx="312" cy="269" r="5"/><circle cx="340" cy="256" r="6"/><circle cx="407" cy="254" r="5"/><circle cx="485" cy="315" r="5"/><circle cx="594" cy="274" r="6"/><circle cx="640" cy="314" r="5"/><circle cx="781" cy="287" r="6"/><circle cx="870" cy="302" r="6"/><circle cx="901" cy="269" r="4"/><circle cx="1033" cy="246" r="5"/><circle cx="1069" cy="316" r="5"/><circle cx="1165" cy="287" r="5"/><circle cx="1245" cy="277" r="5"/><circle cx="1290" cy="249" r="4"/><circle cx="1405" cy="251" r="6"/><circle cx="1440" cy="243" r="5"/><circle cx="1561" cy="270" r="5"/><circle cx="1624" cy="252" r="4"/><circle cx="1750" cy="283" r="4"/><circle cx="1837" cy="316" r="5"/><circle cx="1883" cy="257" r="5"/><circle cx="1995" cy="268" r="4"/><circle cx="2020" cy="256" r="5"/><circle cx="2149" cy="253" r="5"/><circle cx="2225" cy="317" r="4"/><circle cx="2286" cy="247" r="4"/><circle cx="2343" cy="266" r="4"/><circle cx="2422" cy="283" r="5"/><circle cx="2552" cy="307" r="5"/><circle cx="12" cy="343" r="6"/><circle cx="92" cy="349" r="6"/><circle cx="194" cy="369" r="6"/><circle cx="262" cy="340" r="5"/><circle cx="324" cy="337" r="5"/><circle cx="473" cy="322" r="5"/><circle cx="543" cy="345" r="4"/><circle cx="578" cy="370" r="5"/><circle cx="707" cy="364" r="5"/><circle cx="774" cy="352" r="6"/><circle cx="806" cy="327" r="5"/><circle cx="887" cy="335" r="5"/><circle cx="1015" cy="394" r="4"/><circle cx="1088" cy="327" r="6"/><circle cx="1122" cy="331" r="5"/><circle cx="1208" cy="378" r="5"/><circle cx="1329" cy="365" r="6"/><circle cx="1421" cy="347" r="5"/><circle cx="1509" cy="365" r="6"/><circle cx="1523" cy="392" r="4"/><circle cx="1660" cy="335" r="4"/><circle cx="1747" cy="377" r="5"/><circle cx="1776" cy="383" r="5"/><circle cx="1846" cy="327" r="4"/><circle cx="1950" cy="387" r="4"/><circle cx="2014" cy="320" r="5"/><circle cx="2146" cy="370" r="5"/><circle cx="2166" cy="372" r="5"/><circle cx="2310" cy="352" r="4"/><circle cx="2362" cy="393" r="5"/><circle cx="2455" cy="378" r="6"/><circle cx="2482" cy="348" r="6"/><circle cx="39" cy="416" r="5"/><circle cx="155" cy="408" r="5"/><circle cx="161" cy="477" r="5"/><circle cx="304" cy="453" r="4"/><circle cx="332" cy="416" r="5"/><circle cx="421" cy="440" r="4"/><circle cx="502" cy="448" r="5"/><circle cx="588" cy="420" r="4"/><circle cx="676" cy="462" r="5"/><circle cx="793" cy="404" r="6"/><circle cx="843" cy="478" r="4"/><circle cx="921" cy="422" r="4"/><circle cx="985" cy="454" r="5"/><circle cx="1056" cy="462" r="5"/><circle cx="1188" cy="445" r="5"/><circle cx="1224" cy="415" r="5"/><circle cx="1314" cy="406" r="5"/><circle cx="1411" cy="412" r="5"/><circle cx="1451" cy="424" r="5"/><circle cx="1580" cy="461" r="5"/><circle cx="1612" cy="418" r="4"/><circle cx="1693" cy="422" r="5"/><circle cx="1783" cy="438" r="5"/><circle cx="1873" cy="414" r="6"/><circle cx="1976" cy="462" r="5"/><circle cx="2068" cy="424" r="5"/><circle cx="2159" cy="446" r="5"/><circle cx="2227" cy="467" r="5"/><circle cx="2299" cy="445" r="6"/><circle cx="2355" cy="463" r="5"/><circle cx="2427" cy="411" r="6"/><circle cx="2490" cy="460" r="6"/><circle cx="63" cy="532" r="4"/><circle cx="121" cy="510" r="5"/><circle cx="200" cy="509" r="6"/><circle cx="251" cy="552" r="6"/><circle cx="357" cy="524" r="4"/><circle cx="415" cy="508" r="5"/><circle cx="519" cy="547" r="5"/><circle cx="638" cy="515" r="4"/><circle cx="690" cy="545" r="5"/><circle cx="755" cy="501" r="5"/><circle cx="844" cy="497" r="6"/><circle cx="902" cy="558" r="5"/><circle cx="1023" cy="518" r="6"/><circle cx="1069" cy="547" r="6"/><circle cx="1134" cy="558" r="5"/><circle cx="1252" cy="558" r="5"/><circle cx="1319" cy="485" r="5"/><circle cx="1429" cy="540" r="4"/><circle cx="1512" cy="512" r="5"/><circle cx="1577" cy="500" r="5"/><circle cx="1613" cy="535" r="5"/><circle cx="1737" cy="554" r="5"/><circle cx="1818" cy="547" r="5"/><circle cx="1909" cy="506" r="5"/><circle cx="1982" cy="549" r="5"/><circle cx="2076" cy="497" r="5"/><circle cx="2133" cy="554" r="4"/><circle cx="2212" cy="502" r="5"/><circle cx="2248" cy="552" r="5"/><circle cx="2376" cy="503" r="5"/><circle cx="2419" cy="557" r="6"/><circle cx="2504" cy="551" r="6"/><circle cx="64" cy="602" r="6"/><circle cx="115" cy="634" r="5"/><circle cx="223" cy="636" r="4"/><circle cx="316" cy="633" r="4"/><circle cx="399" cy="599" r="5"/><circle cx="461" cy="561" r="5"/><circle cx="527" cy="637" r="5"/><circle cx="592" cy="604" r="5"/><circle cx="700" cy="630" r="6"/><circle cx="795" cy="613" r="5"/><circle cx="867" cy="639" r="5"/><circle cx="919" cy="629" r="6"/><circle cx="975" cy="585" r="5"/><circle cx="1097" cy="577" r="4"/><circle cx="1170" cy="638" r="5"/><circle cx="1201" cy="639" r="4"/><circle cx="1344" cy="623" r="5"/><circle cx="1422" cy="594" r="6"/><circle cx="1482" cy="595" r="5"/><circle cx="1545" cy="626" r="4"/><circle cx="1669" cy="606" r="5"/><circle cx="1759" cy="605" r="4"/><circle cx="1789" cy="580" r="5"/><circle cx="1887" cy="572" r="6"/><circle cx="1950" cy="607" r="5"/><circle cx="2031" cy="581" r="5"/><circle cx="2097" cy="593" r="5"/><circle cx="2214" cy="634" r="5"/><circle cx="2268" cy="581" r="5"/><circle cx="2335" cy="580" r="5"/><circle cx="2402" cy="629" r="6"/><circle cx="2547" cy="633" r="4"/><circle cx="34" cy="666" r="6"/><circle cx="147" cy="640" r="4"/><circle cx="193" cy="701" r="4"/><circle cx="266" cy="649" r="4"/><circle cx="373" cy="671" r="5"/><circle cx="440" cy="715" r="6"/><circle cx="515" cy="695" r="5"/><circle cx="604" cy="671" r="6"/><circle cx="647" cy="655" r="5"/><circle cx="739" cy="712" r="5"/><circle cx="834" cy="690" r="6"/><circle cx="901" cy="691" r="6"/><circle cx="991" cy="674" r="5"/><circle cx="1090" cy="695" r="4"/><circle cx="1125" cy="701" r="5"/><circle cx="1279" cy="695" r="6"/><circle cx="1317" cy="646" r="5"/><circle cx="1423" cy="709" r="5"/><circle cx="1462" cy="669" r="5"/><circle cx="1585" cy="696" r="5"/><circle cx="1673" cy="649" r="5"/><circle cx="1722" cy="703" r="5"/><circle cx="1824" cy="679" r="5"/><circle cx="1887" cy="685" r="5"/><circle cx="1963" cy="683" r="4"/><circle cx="2009" cy="685" r="4"/><circle cx="2146" cy="645" r="4"/><circle cx="2219" cy="709" r="6"/><circle cx="2310" cy="660" r="5"/><circle cx="2348" cy="714" r="4"/><circle cx="2431" cy="692" r="4"/><circle cx="2517" cy="669" r="5"/><circle cx="33" cy="787" r="4"/><circle cx="158" cy="765" r="5"/><circle cx="186" cy="769" r="6"/><circle cx="305" cy="773" r="6"/><circle cx="340" cy="761" r="4"/><circle cx="404" cy="795" r="6"/><circle cx="541" cy="757" r="4"/><circle cx="612" cy="769" r="5"/><circle cx="653" cy="747" r="5"/><circle cx="747" cy="765" r="5"/><circle cx="878" cy="767" r="4"/><circle cx="945" cy="753" r="6"/><circle cx="1037" cy="760" r="4"/><circle cx="1060" cy="727" r="4"/><circle cx="1125" cy="737" r="5"/><circle cx="1275" cy="764" r="4"/><circle cx="1289" cy="745" r="6"/><circle cx="1394" cy="763" r="5"/><circle cx="1448" cy="725" r="4"/><circle cx="1524" cy="729" r="6"/><circle cx="1676" cy="744" r="4"/><circle cx="1716" cy="782" r="5"/><circle cx="1827" cy="797" r="4"/><circle cx="1904" cy="743" r="4"/><circle cx="1983" cy="755" r="5"/><circle cx="2076" cy="742" r="5"/><circle cx="2137" cy="746" r="6"/><circle cx="2196" cy="766" r="4"/><circle cx="2314" cy="785" r="6"/><circle cx="2333" cy="753" r="6"/><circle cx="2473" cy="757" r="5"/><circle cx="2508" cy="746" r="5"/><circle cx="17" cy="821" r="5"/><circle cx="124" cy="833" r="6"/><circle cx="214" cy="806" r="6"/><circle cx="279" cy="853" r="6"/><circle cx="383" cy="865" r="5"/><circle cx="456" cy="860" r="5"/><circle cx="528" cy="811" r="4"/><circle cx="606" cy="861" r="6"/><circle cx="681" cy="820" r="4"/><circle cx="737" cy="815" r="6"/><circle cx="875" cy="824" r="5"/><circle cx="956" cy="853" r="4"/><circle cx="977" cy="808" r="5"/><circle cx="1073" cy="861" r="6"/><circle cx="1176" cy="854" r="4"/><circle cx="1217" cy="845" r="5"/><circle cx="1360" cy="853" r="4"/><circle cx="1399" cy="804" r="5"/><circle cx="1493" cy="849" r="4"/><circle cx="1586" cy="818" r="6"/><circle cx="1654" cy="815" r="4"/><circle cx="1751" cy="830" r="6"/><circle cx="1797" cy="824" r="5"/><circle cx="1906" cy="830" r="4"/><circle cx="1924" cy="855" r="4"/><circle cx="2042" cy="841" r="5"/><circle cx="2111" cy="820" r="5"/><circle cx="2230" cy="872" r="4"/><circle cx="2288" cy="870" r="5"/><circle cx="2365" cy="862" r="5"/><circle cx="2475" cy="813" r="5"/><circle cx="2549" cy="829" r="6"/><circle cx="52" cy="906" r="4"/><circle cx="129" cy="912" r="5"/><circle cx="219" cy="900" r="5"/><circle cx="317" cy="923" r="4"/><circle cx="400" cy="934" r="4"/><circle cx="479" cy="922" r="5"/><circle cx="524" cy="950" r="5"/><circle cx="580" cy="949" r="5"/><circle cx="697" cy="947" r="4"/><circle cx="743" cy="892" r="6"/><circle cx="838" cy="941" r="6"/><circle cx="946" cy="931" r="6"/><circle cx="984" cy="904" r="6"/><circle cx="1045" cy="934" r="5"/><circle cx="1133" cy="948" r="4"/><circle cx="1249" cy="903" r="5"/><circle cx="1318" cy="890" r="6"/><circle cx="1386" cy="943" r="5"/><circle cx="1477" cy="896" r="5"/><circle cx="1521" cy="910" r="5"/><circle cx="1635" cy="941" r="6"/><circle cx="1691" cy="921" r="5"/><circle cx="1804" cy="897" r="4"/><circle cx="1885" cy="905" r="5"/><circle cx="1982" cy="901" r="5"/><circle cx="2072" cy="955" r="6"/><circle cx="2122" cy="953" r="6"/><circle cx="2200" cy="945" r="4"/><circle cx="2297" cy="898" r="5"/><circle cx="2333" cy="946" r="6"/><circle cx="2432" cy="921" r="5"/><circle cx="2522" cy="928" r="5"/><circle cx="16" cy="1005" r="5"/><circle cx="88" cy="979" r="4"/><circle cx="229" cy="1027" r="6"/><circle cx="287" cy="1033" r="5"/><circle cx="352" cy="973" r="6"/><circle cx="419" cy="1023" r="5"/><circle cx="555" cy="1004" r="5"/><circle cx="632" cy="985" r="5"/><circle cx="717" cy="1034" r="5"/><circle cx="762" cy="963" r="5"/><circle cx="820" cy="1005" r="4"/><circle cx="948" cy="1025" r="6"/><circle cx="991" cy="969" r="5"/><circle cx="1062" cy="1018" r="5"/><circle cx="1188" cy="1007" r="4"/><circle cx="1247" cy="992" r="5"/><circle cx="1280" cy="1000" r="5"/><circle cx="1399" cy="1008" r="6"/><circle cx="1472" cy="967" r="5"/><circle cx="1557" cy="1028" r="4"/><circle cx="1654" cy="961" r="6"/><circle cx="1700" cy="1009" r="4"/><circle cx="1811" cy="1024" r="6"/><circle cx="1871" cy="970" r="4"/><circle cx="1928" cy="1005" r="6"/><circle cx="2054" cy="967" r="4"/><circle cx="2130" cy="976" r="6"/><circle cx="2177" cy="964" r="6"/><circle cx="2295" cy="1022" r="5"/><circle cx="2380" cy="980" r="6"/><circle cx="2459" cy="981" r="5"/><circle cx="2503" cy="1000" r="5"/><circle cx="65" cy="1054" r="4"/><circle cx="137" cy="1065" r="5"/><circle cx="218" cy="1061" r="5"/><circle cx="281" cy="1082" r="6"/><circle cx="347" cy="1077" r="4"/><circle cx="473" cy="1048" r="6"/><circle cx="559" cy="1115" r="5"/><circle cx="634" cy="1045" r="5"/><circle cx="707" cy="1105" r="5"/><circle cx="749" cy="1059" r="5"/><circle cx="863" cy="1080" r="6"/><circle cx="911" cy="1046" r="4"/><circle cx="982" cy="1091" r="4"/><circle cx="1081" cy="1075" r="6"/><circle cx="1122" cy="1120" r="5"/><circle cx="1220" cy="1078" r="4"/><circle cx="1303" cy="1063" r="6"/><circle cx="1379" cy="1044" r="4"/><circle cx="1443" cy="1073" r="6"/><circle cx="1584" cy="1108" r="6"/><circle cx="1671" cy="1061" r="5"/><circle cx="1687" cy="1056" r="5"/><circle cx="1812" cy="1074" r="6"/><circle cx="1896" cy="1104" r="4"/><circle cx="1967" cy="1056" r="6"/><circle cx="2053" cy="1043" r="6"/><circle cx="2146" cy="1112" r="5"/><circle cx="2222" cy="1066" r="4"/><circle cx="2313" cy="1087" r="6"/><circle cx="2342" cy="1079" r="5"/><circle cx="2462" cy="1070" r="5"/><circle cx="2549" cy="1076" r="5"/><circle cx="48" cy="1120" r="5"/><circle cx="112" cy="1149" r="5"/><circle cx="213" cy="1124" r="6"/><circle cx="270" cy="1190" r="5"/><circle cx="392" cy="1180" r="6"/><circle cx="426" cy="1165" r="4"/><circle cx="527" cy="1147" r="4"/><circle cx="570" cy="1177" r="5"/><circle cx="689" cy="1135" r="5"/><circle cx="792" cy="1132" r="5"/><circle cx="825" cy="1164" r="6"/><circle cx="914" cy="1169" r="4"/><circle cx="1031" cy="1134" r="6"/><circle cx="1092" cy="1185" r="6"/><circle cx="1180" cy="1179" r="5"/><circle cx="1215" cy="1168" r="6"/><circle cx="1314" cy="1168" r="4"/><circle cx="1432" cy="1138" r="6"/><circle cx="1453" cy="1122" r="6"/><circle cx="1555" cy="1145" r="5"/><circle cx="1637" cy="1126" r="4"/><circle cx="1728" cy="1171" r="4"/><circle cx="1818" cy="1169" r="5"/><circle cx="1855" cy="1153" r="6"/><circle cx="1928" cy="1198" r="4"/><circle cx="2048" cy="1161" r="5"/><circle cx="2158" cy="1152" r="6"/><circle cx="2203" cy="1123" r="4"/><circle cx="2301" cy="1167" r="5"/><circle cx="2328" cy="1176" r="6"/><circle cx="2469" cy="1128" r="6"/><circle cx="2481" cy="1123" r="5"/><circle cx="71" cy="1246" r="5"/><circle cx="89" cy="1236" r="5"/><circle cx="226" cy="1274" r="5"/><circle cx="257" cy="1209" r="6"/><circle cx="380" cy="1253" r="4"/><circle cx="473" cy="1263" r="5"/><circle cx="520" cy="1244" r="5"/><circle cx="579" cy="1249" r="6"/><circle cx="668" cy="1249" r="4"/><circle cx="785" cy="1257" r="5"/><circle cx="873" cy="1220" r="6"/><circle cx="894" cy="1260" r="4"/><circle cx="1001" cy="1216" r="6"/><circle cx="1090" cy="1246" r="5"/><circle cx="1200" cy="1275" r="6"/><circle cx="1265" cy="1278" r="5"/><circle cx="1296" cy="1271" r="6"/><circle cx="1407" cy="1227" r="5"/><circle cx="1476" cy="1208" r="5"/><circle cx="1563" cy="1248" r="5"/><circle cx="1649" cy="1201" r="4"/><circle cx="1741" cy="1269" r="5"/><circle cx="1838" cy="1207" r="5"/><circle cx="1843" cy="1276" r="5"/><circle cx="1971" cy="1273" r="5"/><circle cx="2029" cy="1203" r="5"/><circle cx="2082" cy="1240" r="4"/><circle cx="2236" cy="1203" r="5"/><circle cx="2288" cy="1242" r="5"/><circle cx="2355" cy="1246" r="5"/><circle cx="2453" cy="1208" r="5"/><circle cx="2496" cy="1241" r="4"/><circle cx="28" cy="1295" r="6"/><circle cx="101" cy="1316" r="4"/><circle cx="164" cy="1294" r="6"/><circle cx="303" cy="1296" r="5"/><circle cx="324" cy="1298" r="4"/><circle cx="452" cy="1335" r="5"/><circle cx="511" cy="1297" r="6"/><circle cx="600" cy="1326" r="4"/><circle cx="654" cy="1351" r="5"/><circle cx="729" cy="1318" r="5"/><circle cx="832" cy="1301" r="5"/><circle cx="904" cy="1316" r="4"/><circle cx="1035" cy="1339" r="5"/><circle cx="1112" cy="1319" r="5"/><circle cx="1146" cy="1326" r="5"/><circle cx="1216" cy="1289" r="5"/><circle cx="1352" cy="1324" r="4"/><circle cx="1427" cy="1324" r="5"/><circle cx="1467" cy="1356" r="6"/><circle cx="1546" cy="1316" r="5"/><circle cx="1657" cy="1295" r="5"/><circle cx="1714" cy="1315" r="6"/><circle cx="1767" cy="1345" r="5"/><circle cx="1891" cy="1331" r="6"/><circle cx="1995" cy="1310" r="5"/><circle cx="2036" cy="1309" r="5"/><circle cx="2098" cy="1317" r="5"/><circle cx="2196" cy="1345" r="4"/><circle cx="2251" cy="1322" r="5"/><circle cx="2378" cy="1285" r="5"/><circle cx="2418" cy="1338" r="4"/><circle cx="2558" cy="1341" r="5"/><circle cx="-2" cy="1341" r="5"/><circle cx="59" cy="1391" r="6"/><circle cx="143" cy="1424" r="5"/><circle cx="188" cy="1375" r="6"/><circle cx="278" cy="1420" r="6"/><circle cx="399" cy="1376" r="6"/><circle cx="419" cy="1394" r="5"/><circle cx="485" cy="1392" r="4"/><circle cx="604" cy="1370" r="5"/><circle cx="642" cy="1412" r="6"/><circle cx="793" cy="1428" r="6"/><circle cx="849" cy="1424" r="5"/><circle cx="928" cy="1365" r="5"/><circle cx="974" cy="1424" r="6"/><circle cx="1095" cy="1371" r="6"/><circle cx="1187" cy="1418" r="4"/><circle cx="1273" cy="1371" r="5"/><circle cx="1288" cy="1388" r="6"/><circle cx="1437" cy="1438" r="6"/><circle cx="1437" cy="-2" r="6"/><circle cx="1476" cy="1416" r="5"/><circle cx="1580" cy="1361" r="5"/><circle cx="1661" cy="1364" r="6"/><circle cx="1726" cy="1439" r="5"/><circle cx="1726" cy="-1" r="5"/><circle cx="1807" cy="1402" r="5"/><circle cx="1879" cy="1436" r="5"/><circle cx="1879" cy="-4" r="5"/><circle cx="1933" cy="1363" r="4"/><circle cx="2053" cy="1423" r="6"/><circle cx="2141" cy="1402" r="5"/><circle cx="2188" cy="1384" r="5"/><circle cx="2281" cy="1389" r="4"/><circle cx="2388" cy="1391" r="5"/><circle cx="2415" cy="1376" r="4"/><circle cx="2491" cy="1366" r="4"/><path stroke="#fff" d="M55 59L-39 31M55 59L57 95M55 59L122 148M55 59L-47 89M55 59L59 -49M2615 59L2521 31M2615 59L2513 89M55 1499L59 1391M152 9L186 51M152 9L143 -16M152 9L188 -65M152 1449L143 1424M152 1449L188 1375M186 51L280 57M186 51L143 -16M186 51L278 -20M186 1491L143 1424M186 1491L278 1420M280 57L267 132M280 57L361 87M280 57L278 -20M280 1497L278 1420M396 71L404 36M396 71L492 44M396 71L361 87M404 36L492 44M404 36L361 87M404 36L399 -64M404 36L419 -46M404 1476L399 1376M404 1476L419 1394M492 44L497 149M492 44L419 -46M492 44L485 -48M492 1484L419 1394M492 1484L485 1392M603 31L647 0M603 31L606 82M603 31L604 -70M603 31L642 -28M603 1471L604 1370M603 1471L642 1412M647 0L606 82M647 0L654 -89M647 0L604 -70M647 0L642 -28M647 1440L654 1351M647 1440L604 1370M647 1440L642 1412M780 51L822 7M780 51L712 95M780 51L744 133M780 51L816 131M780 51L793 -12M780 1491L793 1428M822 7L897 42M822 7L793 -12M822 7L849 -16M822 1447L793 1428M822 1447L849 1424M897 42L898 120M897 42L793 -12M897 42L849 -16M897 42L974 -16M897 1482L793 1428M897 1482L849 1424M897 1482L974 1424M1037 76L1046 9M1037 76L1139 74M1037 76L1004 143M1037 76L1045 93M1037 76L974 -16M1037 1516L974 1424M1046 9L1045 93M1046 9L1035 -101M1046 9L974 -16M1046 9L1095 -69M1046 1449L1035 1339M1046 1449L974 1424M1046 1449L1095 1371M1139 74L1238 76M1139 74L1045 93M1139 74L1156 141M1139 74L1169 165M1238 76L1332 77M1238 76L1156 141M1238 76L1217 146M1238 76L1285 121M1332 77L1285 121M1332 77L1387 128M1421 33L1471 55M1421 33L1387 128M1421 33L1437 -2M1421 33L1476 -24M1421 1473L1437 1438M1421 1473L1476 1416M1471 55L1492 102M1471 55L1534 135M1471 55L1437 -2M1471 55L1476 -24M1471 1495L1437 1438M1471 1495L1476 1416M1597 60L1616 46M1597 60L1683 11M1597 60L1602 101M1616 46L1683 11M1616 46L1602 101M1616 46L1726 -1M1616 1486L1726 1439M1683 11L1745 100M1683 11L1661 -76M1683 11L1726 -1M1683 1451L1661 1364M1683 1451L1726 1439M1826 77L1920 53M1826 77L1745 100M1826 77L1802 114M1826 77L1882 157M1826 77L1879 -4M1826 1517L1879 1436M1920 53L1989 44M1920 53L1929 144M1920 53L1879 -4M1920 1493L1879 1436M1989 44L2036 17M1989 44L1929 144M1989 44L2063 114M1989 44L2053 -17M1989 1484L2053 1423M2036 17L2112 21M2036 17L2053 -17M2036 1457L2053 1423M2112 21L2053 -17M2112 21L2141 -38M2112 1461L2053 1423M2112 1461L2141 1402M2209 75L2248 57M2209 75L2169 113M2209 75L2249 94M2248 57L2249 94M2394 56L2402 36M2394 56L2362 125M2394 56L2419 105M2402 36L2521 31M2402 36L2362 125M2402 36L2419 105M2402 36L2388 -49M2402 1476L2388 1391M2521 31L2617 95M2521 31L2513 89M2521 31L2491 -74M-39 31L57 95M2521 1471L2491 1366M57 95L122 148M57 95L-47 89M57 95L112 207M2617 95L2513 89M122 148L112 207M122 148L89 251M225 156L267 132M225 156L232 197M225 156L286 208M267 132L232 197M267 132L286 208M361 87L413 157M361 87L409 169M413 157L497 149M413 157L384 206M413 157L409 169M413 157L407 254M497 149L409 169M497 149L538 181M497 149L610 222M606 82L712 95M712 95L744 133M744 133L816 131M744 133L795 176M816 131L898 120M816 131L795 176M816 131L807 222M898 120L1004 143M898 120L795 176M898 120L932 176M1004 143L1045 93M1004 143L932 176M1004 143L1026 236M1045 93L1156 141M1156 141L1217 146M1156 141L1169 165M1217 146L1285 121M1217 146L1169 165M1217 146L1274 230M1285 121L1387 128M1285 121L1274 230M1387 128L1492 102M1387 128L1376 228M1492 102L1534 135M1492 102L1475 193M1534 135L1602 101M1534 135L1475 193M1534 135L1535 208M1602 101L1650 204M1745 100L1802 114M1745 100L1726 -1M1745 1540L1726 1439M1802 114L1812 206M1882 157L1929 144M1882 157L1812 206M1882 157L1875 219M1882 157L1937 198M1929 144L1875 219M1929 144L1937 198M2063 114L2112 145M2063 114L2078 194M2063 114L2094 183M2112 145L2169 113M2112 145L2078 194M2112 145L2094 183M2112 145L2197 182M2169 113L2249 94M2169 113L2197 182M2249 94L2197 182M2249 94L2308 180M2362 125L2419 105M2362 125L2308 180M2362 125L2330 218M2419 105L2513 89M2419 105L2439 176M2513 89L2439 176M13 212L112 207M13 212L-78 232M13 212L60 241M13 212L89 251M13 212L-8 307M2573 212L2482 232M2573 212L2552 307M112 207L60 241M112 207L89 251M232 197L286 208M232 197L236 282M286 208L312 269M286 208L340 256M384 206L409 169M384 206L340 256M384 206L407 254M409 169L407 254M538 181L610 222M610 222L681 222M610 222L594 274M610 222L640 314M681 222L594 274M795 176L807 222M807 222L781 287M932 176L901 269M1026 236L1097 234M1026 236L1033 246M1026 236L1069 316M1097 234L1033 246M1097 234L1069 316M1097 234L1165 287M1097 234L1088 327M1274 230L1343 238M1274 230L1245 277M1274 230L1290 249M1343 238L1376 228M1343 238L1290 249M1343 238L1405 251M1343 238L1440 243M1376 228L1290 249M1376 228L1405 251M1376 228L1440 243M1475 193L1535 208M1475 193L1405 251M1475 193L1440 243M1535 208L1440 243M1535 208L1561 270M1535 208L1624 252M1650 204L1732 237M1650 204L1561 270M1650 204L1624 252M1732 237L1812 206M1732 237L1624 252M1732 237L1750 283M1812 206L1875 219M1812 206L1883 257M1875 219L1937 198M1875 219L1883 257M1937 198L1883 257M1937 198L1995 268M2078 194L2094 183M2078 194L2020 256M2078 194L2149 253M2094 183L2197 182M2094 183L2149 253M2197 182L2149 253M2308 180L2330 218M2308 180L2286 247M2308 180L2343 266M2330 218L2286 247M2330 218L2343 266M2330 218L2422 283M2439 176L2482 232M2482 232L2422 283M60 241L89 251M60 241L-8 307M60 241L12 343M2620 241L2552 307M89 251L92 349M236 282L312 269M236 282L194 369M236 282L262 340M312 269L340 256M312 269L262 340M312 269L324 337M340 256L407 254M340 256L324 337M407 254L485 315M485 315L473 322M485 315L543 345M485 315L578 370M594 274L640 314M594 274L543 345M594 274L578 370M640 314L578 370M640 314L707 364M781 287L870 302M781 287L707 364M781 287L774 352M781 287L806 327M870 302L901 269M870 302L774 352M870 302L806 327M870 302L887 335M901 269L887 335M1033 246L1069 316M1033 246L1088 327M1069 316L1088 327M1069 316L1122 331M1165 287L1245 277M1165 287L1088 327M1165 287L1122 331M1165 287L1208 378M1245 277L1290 249M1405 251L1440 243M1405 251L1421 347M1561 270L1624 252M1561 270L1509 365M1624 252L1660 335M1750 283L1837 316M1750 283L1660 335M1750 283L1747 377M1837 316L1883 257M1837 316L1776 383M1837 316L1846 327M1883 257L1846 327M1995 268L2020 256M1995 268L2014 320M2020 256L2014 320M2149 253L2225 317M2149 253L2146 370M2225 317L2286 247M2225 317L2146 370M2225 317L2166 372M2225 317L2310 352M2286 247L2343 266M2286 247L2310 352M2343 266L2422 283M2343 266L2310 352M2422 283L2455 378M2422 283L2482 348M2552 307L2572 343M2552 307L2482 348M-8 307L12 343M12 343L92 349M12 343L-78 348M12 343L39 416M2572 343L2482 348M92 349L194 369M92 349L39 416M92 349L155 408M194 369L262 340M194 369L155 408M194 369L161 477M262 340L324 337M262 340L332 416M324 337L304 453M324 337L332 416M473 322L543 345M543 345L578 370M543 345L588 420M578 370L588 420M707 364L774 352M707 364L676 462M707 364L793 404M774 352L806 327M774 352L793 404M806 327L887 335M806 327L793 404M887 335L921 422M1015 394L921 422M1015 394L985 454M1015 394L1056 462M1088 327L1122 331M1122 331L1208 378M1122 331L1188 445M1208 378L1188 445M1208 378L1224 415M1329 365L1421 347M1329 365L1224 415M1329 365L1314 406M1329 365L1411 412M1329 365L1319 485M1421 347L1509 365M1421 347L1411 412M1421 347L1451 424M1509 365L1523 392M1509 365L1411 412M1509 365L1451 424M1523 392L1451 424M1523 392L1580 461M1523 392L1612 418M1660 335L1747 377M1660 335L1612 418M1660 335L1693 422M1747 377L1776 383M1747 377L1693 422M1747 377L1783 438M1776 383L1693 422M1776 383L1783 438M1776 383L1873 414M1846 327L1873 414M1950 387L2014 320M1950 387L1873 414M1950 387L1976 462M2146 370L2166 372M2146 370L2068 424M2146 370L2159 446M2166 372L2068 424M2166 372L2159 446M2166 372L2227 467M2310 352L2362 393M2310 352L2299 445M2362 393L2455 378M2362 393L2299 445M2362 393L2355 463M2362 393L2427 411M2455 378L2482 348M2455 378L2427 411M2455 378L2490 460M2482 348L2427 411M39 416L-70 460M2599 416L2490 460M155 408L161 477M155 408L121 510M155 408L200 509M161 477L121 510M161 477L200 509M304 453L332 416M304 453L200 509M304 453L357 524M332 416L421 440M332 416L357 524M421 440L502 448M421 440L415 508M502 448L588 420M502 448L415 508M502 448L519 547M502 448L461 561M588 420L676 462M588 420L638 515M676 462L638 515M676 462L690 545M676 462L755 501M793 404L843 478M793 404L844 497M843 478L921 422M843 478L755 501M843 478L844 497M843 478L902 558M921 422L985 454M921 422L844 497M985 454L1056 462M985 454L1023 518M1056 462L1023 518M1056 462L1069 547M1188 445L1224 415M1224 415L1314 406M1224 415L1319 485M1314 406L1411 412M1314 406L1319 485M1411 412L1451 424M1580 461L1612 418M1580 461L1512 512M1580 461L1577 500M1580 461L1613 535M1612 418L1693 422M1612 418L1577 500M1693 422L1783 438M1783 438L1873 414M1873 414L1909 506M1976 462L2068 424M1976 462L1909 506M1976 462L1982 549M1976 462L2076 497M2068 424L2159 446M2068 424L2076 497M2159 446L2227 467M2159 446L2212 502M2227 467L2299 445M2227 467L2212 502M2227 467L2248 552M2299 445L2355 463M2299 445L2376 503M2355 463L2427 411M2355 463L2376 503M2427 411L2490 460M2490 460L2419 557M2490 460L2504 551M63 532L121 510M63 532L64 602M121 510L200 509M200 509L251 552M251 552L357 524M251 552L223 636M251 552L316 633M251 552L266 649M357 524L415 508M357 524L399 599M415 508L399 599M415 508L461 561M519 547L461 561M519 547L527 637M519 547L592 604M638 515L690 545M690 545L755 501M690 545L700 630M755 501L844 497M844 497L902 558M902 558L867 639M902 558L919 629M902 558L975 585M1023 518L1069 547M1023 518L975 585M1023 518L1097 577M1069 547L1134 558M1069 547L975 585M1069 547L1097 577M1134 558L1097 577M1134 558L1170 638M1134 558L1201 639M1252 558L1319 485M1252 558L1201 639M1252 558L1344 623M1252 558L1317 646M1429 540L1512 512M1429 540L1422 594M1429 540L1482 595M1512 512L1577 500M1512 512L1613 535M1512 512L1482 595M1577 500L1613 535M1613 535L1545 626M1613 535L1669 606M1737 554L1818 547M1737 554L1669 606M1737 554L1759 605M1737 554L1789 580M1818 547L1909 506M1818 547L1759 605M1818 547L1789 580M1818 547L1887 572M1909 506L1982 549M1909 506L1887 572M1982 549L1887 572M1982 549L1950 607M1982 549L2031 581M2076 497L2133 554M2076 497L2031 581M2076 497L2097 593M2133 554L2212 502M2133 554L2031 581M2133 554L2097 593M2133 554L2146 645M2212 502L2248 552M2212 502L2268 581M2248 552L2214 634M2248 552L2268 581M2376 503L2419 557M2376 503L2335 580M2419 557L2504 551M2419 557L2335 580M2419 557L2402 629M2504 551L2547 633M64 602L115 634M64 602L-13 633M64 602L34 666M64 602L147 640M2624 602L2547 633M115 634L223 636M115 634L34 666M115 634L147 640M223 636L147 640M223 636L193 701M223 636L266 649M316 633L399 599M316 633L266 649M316 633L373 671M399 599L461 561M399 599L373 671M461 561L527 637M527 637L592 604M527 637L515 695M527 637L604 671M592 604L604 671M592 604L647 655M700 630L795 613M700 630L647 655M700 630L739 712M795 613L867 639M795 613L834 690M867 639L919 629M867 639L834 690M867 639L901 691M919 629L975 585M919 629L901 691M919 629L991 674M975 585L991 674M1097 577L1170 638M1170 638L1201 639M1170 638L1090 695M1170 638L1125 701M1201 639L1125 701M1201 639L1279 695M1344 623L1422 594M1344 623L1279 695M1344 623L1317 646M1422 594L1482 595M1422 594L1317 646M1422 594L1462 669M1482 595L1545 626M1482 595L1462 669M1545 626L1585 696M1669 606L1759 605M1669 606L1673 649M1669 606L1722 703M1759 605L1789 580M1759 605L1673 649M1789 580L1887 572M1789 580L1824 679M1887 572L1950 607M1950 607L2031 581M1950 607L1887 685M1950 607L1963 683M2031 581L2097 593M2097 593L2146 645M2214 634L2268 581M2214 634L2146 645M2214 634L2219 709M2268 581L2335 580M2268 581L2310 660M2335 580L2402 629M2335 580L2310 660M2402 629L2310 660M2402 629L2348 714M2402 629L2431 692M2547 633L2594 666M2547 633L2517 669M-13 633L34 666M34 666L-43 669M2594 666L2517 669M147 640L193 701M193 701L266 649M193 701L158 765M193 701L186 769M373 671L440 715M373 671L340 761M440 715L515 695M440 715L340 761M440 715L404 795M440 715L541 757M515 695L604 671M515 695L541 757M604 671L647 655M604 671L653 747M647 655L653 747M739 712L834 690M739 712L653 747M739 712L747 765M739 712L737 815M834 690L901 691M834 690L878 767M901 691L878 767M901 691L945 753M991 674L945 753M991 674L1037 760M991 674L1060 727M1090 695L1125 701M1090 695L1037 760M1090 695L1060 727M1090 695L1125 737M1125 701L1060 727M1125 701L1125 737M1279 695L1317 646M1279 695L1275 764M1279 695L1289 745M1317 646L1289 745M1423 709L1462 669M1423 709L1394 763M1423 709L1448 725M1423 709L1524 729M1423 709L1399 804M1462 669L1448 725M1462 669L1524 729M1585 696L1673 649M1585 696L1524 729M1585 696L1676 744M1585 696L1586 818M1673 649L1722 703M1673 649L1676 744M1722 703L1824 679M1722 703L1676 744M1722 703L1716 782M1824 679L1887 685M1887 685L1963 683M1887 685L1904 743M1963 683L2009 685M1963 683L1904 743M1963 683L1983 755M2009 685L1983 755M2009 685L2076 742M2146 645L2219 709M2146 645L2137 746M2219 709L2137 746M2219 709L2196 766M2310 660L2348 714M2310 660L2333 753M2348 714L2431 692M2348 714L2314 785M2348 714L2333 753M2431 692L2517 669M2431 692L2473 757M2431 692L2508 746M2517 669L2473 757M2517 669L2508 746M33 787L17 821M33 787L-11 829M2593 787L2549 829M158 765L186 769M158 765L124 833M158 765L214 806M186 769L305 773M186 769L124 833M186 769L214 806M305 773L340 761M305 773L404 795M305 773L279 853M340 761L404 795M404 795L383 865M404 795L456 860M541 757L612 769M541 757L528 811M612 769L653 747M612 769L528 811M612 769L606 861M612 769L681 820M653 747L681 820M747 765L681 820M747 765L737 815M747 765L743 892M878 767L945 753M878 767L875 824M945 753L875 824M945 753L977 808M1037 760L1060 727M1037 760L1125 737M1037 760L977 808M1060 727L1125 737M1275 764L1289 745M1275 764L1217 845M1289 745L1394 763M1394 763L1448 725M1394 763L1360 853M1394 763L1399 804M1448 725L1524 729M1448 725L1399 804M1524 729L1586 818M1676 744L1716 782M1676 744L1654 815M1716 782L1654 815M1716 782L1751 830M1716 782L1797 824M1827 797L1904 743M1827 797L1751 830M1827 797L1797 824M1827 797L1906 830M1827 797L1804 897M1904 743L1983 755M1904 743L1906 830M1983 755L2076 742M1983 755L2042 841M2076 742L2137 746M2076 742L2042 841M2076 742L2111 820M2137 746L2196 766M2137 746L2111 820M2196 766L2111 820M2196 766L2230 872M2314 785L2333 753M2314 785L2288 870M2314 785L2365 862M2314 785L2297 898M2473 757L2508 746M2473 757L2475 813M2473 757L2549 829M2508 746L2475 813M2508 746L2549 829M17 821L124 833M17 821L-85 813M17 821L-11 829M17 821L52 906M2577 821L2475 813M2577 821L2549 829M124 833L214 806M124 833L129 912M214 806L279 853M214 806L219 900M279 853L383 865M279 853L219 900M279 853L317 923M383 865L456 860M383 865L317 923M383 865L400 934M456 860L528 811M456 860L479 922M528 811L606 861M606 861L681 820M606 861L580 949M681 820L737 815M737 815L743 892M875 824L956 853M875 824L977 808M875 824L838 941M956 853L977 808M956 853L1073 861M956 853L946 931M956 853L984 904M1073 861L1176 854M1073 861L984 904M1073 861L1045 934M1073 861L1133 948M1176 854L1217 845M1176 854L1133 948M1176 854L1249 903M1217 845L1249 903M1217 845L1318 890M1360 853L1399 804M1360 853L1318 890M1360 853L1386 943M1399 804L1318 890M1493 849L1586 818M1493 849L1477 896M1493 849L1521 910M1586 818L1654 815M1586 818L1521 910M1654 815L1751 830M1654 815L1691 921M1751 830L1797 824M1751 830L1804 897M1797 824L1804 897M1906 830L1924 855M1906 830L1885 905M1924 855L1885 905M1924 855L1982 901M2042 841L2111 820M2042 841L1982 901M2230 872L2288 870M2230 872L2200 945M2230 872L2297 898M2230 872L2177 964M2288 870L2365 862M2288 870L2297 898M2288 870L2333 946M2365 862L2297 898M2365 862L2333 946M2365 862L2432 921M2475 813L2549 829M52 906L129 912M52 906L-38 928M52 906L88 979M2612 906L2522 928M129 912L219 900M129 912L88 979M219 900L317 923M317 923L400 934M317 923L352 973M400 934L479 922M400 934L352 973M400 934L419 1023M479 922L524 950M479 922L580 949M479 922L419 1023M524 950L580 949M524 950L555 1004M524 950L473 1048M580 949L555 1004M580 949L632 985M697 947L743 892M697 947L632 985M697 947L762 963M743 892L838 941M743 892L762 963M838 941L946 931M838 941L762 963M838 941L820 1005M946 931L984 904M946 931L948 1025M946 931L991 969M984 904L1045 934M984 904L991 969M1045 934L1133 948M1045 934L991 969M1045 934L1062 1018M1133 948L1062 1018M1133 948L1188 1007M1249 903L1318 890M1249 903L1247 992M1249 903L1280 1000M1318 890L1386 943M1386 943L1477 896M1386 943L1399 1008M1386 943L1472 967M1477 896L1521 910M1477 896L1472 967M1521 910L1635 941M1521 910L1472 967M1635 941L1691 921M1635 941L1557 1028M1635 941L1654 961M1635 941L1700 1009M1691 921L1654 961M1691 921L1700 1009M1804 897L1885 905M1804 897L1871 970M1885 905L1982 901M1885 905L1871 970M1982 901L2054 967M2072 955L2122 953M2072 955L2054 967M2072 955L2130 976M2072 955L2177 964M2072 955L2053 1043M2122 953L2200 945M2122 953L2054 967M2122 953L2130 976M2122 953L2177 964M2200 945L2130 976M2200 945L2177 964M2297 898L2333 946M2333 946L2295 1022M2333 946L2380 980M2432 921L2522 928M2432 921L2380 980M2432 921L2459 981M2522 928L2576 1005M2522 928L2459 981M2522 928L2503 1000M-38 928L16 1005M16 1005L88 979M16 1005L-57 1000M16 1005L65 1054M16 1005L-11 1076M2576 1005L2503 1000M2576 1005L2549 1076M88 979L65 1054M229 1027L287 1033M229 1027L137 1065M229 1027L218 1061M229 1027L281 1082M229 1027L213 1124M287 1033L352 973M287 1033L218 1061M287 1033L281 1082M287 1033L347 1077M352 973L419 1023M352 973L347 1077M419 1023L347 1077M419 1023L473 1048M555 1004L632 985M555 1004L473 1048M555 1004L634 1045M632 985L717 1034M632 985L634 1045M717 1034L762 963M717 1034L634 1045M717 1034L707 1105M717 1034L749 1059M762 963L820 1005M820 1005L749 1059M820 1005L863 1080M820 1005L911 1046M948 1025L991 969M948 1025L863 1080M948 1025L911 1046M948 1025L982 1091M991 969L1062 1018M1062 1018L1081 1075M1188 1007L1247 992M1188 1007L1280 1000M1188 1007L1220 1078M1247 992L1280 1000M1247 992L1220 1078M1247 992L1303 1063M1280 1000L1220 1078M1280 1000L1303 1063M1399 1008L1472 967M1399 1008L1303 1063M1399 1008L1379 1044M1399 1008L1443 1073M1472 967L1443 1073M1557 1028L1584 1108M1654 961L1700 1009M1654 961L1671 1061M1654 961L1687 1056M1700 1009L1671 1061M1700 1009L1687 1056M1811 1024L1871 970M1811 1024L1928 1005M1811 1024L1812 1074M1871 970L1928 1005M1871 970L1812 1074M1928 1005L1896 1104M1928 1005L1967 1056M2054 967L2130 976M2054 967L2053 1043M2130 976L2177 964M2295 1022L2380 980M2295 1022L2222 1066M2295 1022L2313 1087M2295 1022L2342 1079M2380 980L2459 981M2380 980L2342 1079M2459 981L2503 1000M2459 981L2462 1070M2503 1000L2462 1070M65 1054L137 1065M65 1054L-11 1076M65 1054L48 1120M2625 1054L2549 1076M137 1065L218 1061M137 1065L112 1149M218 1061L281 1082M218 1061L213 1124M281 1082L347 1077M281 1082L213 1124M347 1077L392 1180M473 1048L559 1115M473 1048L527 1147M559 1115L527 1147M559 1115L570 1177M634 1045L707 1105M634 1045L689 1135M707 1105L749 1059M707 1105L689 1135M707 1105L792 1132M749 1059L689 1135M749 1059L792 1132M863 1080L911 1046M863 1080L792 1132M863 1080L825 1164M911 1046L982 1091M982 1091L1081 1075M982 1091L914 1169M982 1091L1031 1134M1081 1075L1122 1120M1081 1075L1031 1134M1122 1120L1031 1134M1122 1120L1092 1185M1122 1120L1180 1179M1122 1120L1215 1168M1220 1078L1303 1063M1220 1078L1215 1168M1303 1063L1379 1044M1379 1044L1443 1073M1379 1044L1432 1138M1379 1044L1453 1122M1443 1073L1432 1138M1443 1073L1453 1122M1584 1108L1671 1061M1584 1108L1687 1056M1584 1108L1555 1145M1584 1108L1637 1126M1671 1061L1687 1056M1671 1061L1637 1126M1687 1056L1637 1126M1812 1074L1896 1104M1812 1074L1818 1169M1812 1074L1855 1153M1896 1104L1967 1056M1896 1104L1855 1153M1967 1056L2053 1043M2053 1043L2146 1112M2053 1043L2048 1161M2146 1112L2222 1066M2146 1112L2048 1161M2146 1112L2158 1152M2146 1112L2203 1123M2222 1066L2313 1087M2222 1066L2158 1152M2222 1066L2203 1123M2313 1087L2342 1079M2313 1087L2301 1167M2313 1087L2328 1176M2462 1070L2549 1076M2462 1070L2469 1128M2462 1070L2481 1123M2549 1076L2608 1120M2549 1076L2481 1123M-11 1076L48 1120M48 1120L112 1149M48 1120L-79 1123M2608 1120L2481 1123M112 1149L71 1246M112 1149L89 1236M213 1124L270 1190M213 1124L257 1209M270 1190L392 1180M270 1190L226 1274M270 1190L257 1209M270 1190L303 1296M392 1180L426 1165M392 1180L380 1253M426 1165L380 1253M527 1147L570 1177M527 1147L520 1244M570 1177L520 1244M570 1177L579 1249M689 1135L792 1132M689 1135L668 1249M792 1132L825 1164M825 1164L914 1169M825 1164L785 1257M825 1164L873 1220M914 1169L873 1220M914 1169L894 1260M914 1169L1001 1216M1031 1134L1092 1185M1031 1134L1001 1216M1092 1185L1180 1179M1092 1185L1001 1216M1092 1185L1090 1246M1180 1179L1215 1168M1215 1168L1314 1168M1314 1168L1407 1227M1432 1138L1453 1122M1432 1138L1407 1227M1432 1138L1476 1208M1453 1122L1555 1145M1453 1122L1476 1208M1555 1145L1637 1126M1555 1145L1476 1208M1555 1145L1563 1248M1637 1126L1649 1201M1728 1171L1818 1169M1728 1171L1649 1201M1728 1171L1741 1269M1818 1169L1855 1153M1818 1169L1838 1207M1818 1169L1843 1276M1855 1153L1928 1198M1855 1153L1838 1207M1928 1198L1838 1207M1928 1198L1971 1273M1928 1198L2029 1203M2048 1161L2158 1152M2048 1161L2029 1203M2048 1161L2082 1240M2158 1152L2203 1123M2158 1152L2236 1203M2203 1123L2236 1203M2301 1167L2328 1176M2301 1167L2236 1203M2301 1167L2288 1242M2301 1167L2355 1246M2328 1176L2236 1203M2328 1176L2288 1242M2328 1176L2355 1246M2469 1128L2481 1123M2469 1128L2453 1208M2469 1128L2496 1241M2481 1123L2453 1208M71 1246L89 1236M71 1246L28 1295M71 1246L101 1316M71 1246L164 1294M89 1236L28 1295M89 1236L101 1316M89 1236L164 1294M226 1274L257 1209M226 1274L164 1294M226 1274L303 1296M226 1274L188 1375M257 1209L303 1296M257 1209L324 1298M380 1253L473 1263M380 1253L303 1296M380 1253L324 1298M473 1263L520 1244M473 1263L452 1335M473 1263L511 1297M520 1244L579 1249M520 1244L511 1297M579 1249L668 1249M579 1249L511 1297M579 1249L600 1326M668 1249L729 1318M785 1257L873 1220M785 1257L729 1318M785 1257L832 1301M873 1220L894 1260M873 1220L832 1301M894 1260L1001 1216M894 1260L832 1301M894 1260L904 1316M1001 1216L1090 1246M1090 1246L1112 1319M1090 1246L1146 1326M1200 1275L1265 1278M1200 1275L1296 1271M1200 1275L1112 1319M1200 1275L1146 1326M1200 1275L1216 1289M1265 1278L1296 1271M1265 1278L1216 1289M1265 1278L1273 1371M1265 1278L1288 1388M1296 1271L1216 1289M1296 1271L1352 1324M1296 1271L1273 1371M1407 1227L1476 1208M1407 1227L1427 1324M1476 1208L1563 1248M1563 1248L1649 1201M1563 1248L1546 1316M1649 1201L1657 1295M1741 1269L1843 1276M1741 1269L1657 1295M1741 1269L1714 1315M1741 1269L1767 1345M1838 1207L1843 1276M1843 1276L1767 1345M1843 1276L1891 1331M1971 1273L2029 1203M1971 1273L1891 1331M1971 1273L1995 1310M1971 1273L2036 1309M2029 1203L2082 1240M2029 1203L2036 1309M2082 1240L2036 1309M2082 1240L2098 1317M2236 1203L2288 1242M2288 1242L2355 1246M2288 1242L2251 1322M2355 1246L2453 1208M2355 1246L2378 1285M2453 1208L2496 1241M2453 1208L2378 1285M2496 1241L2558 1341M28 1295L101 1316M28 1295L-2 1341M28 1295L59 1391M2588 1295L2558 1341M101 1316L164 1294M101 1316L59 1391M164 1294L188 1375M303 1296L324 1298M324 1298L278 1420M324 1298L399 1376M452 1335L511 1297M452 1335L399 1376M452 1335L419 1394M452 1335L485 1392M511 1297L600 1326M600 1326L654 1351M600 1326L604 1370M600 1326L642 1412M654 1351L729 1318M654 1351L604 1370M654 1351L642 1412M729 1318L832 1301M729 1318L793 1428M832 1301L904 1316M904 1316L928 1365M1035 1339L1112 1319M1035 1339L974 1424M1035 1339L1095 1371M1112 1319L1146 1326M1112 1319L1095 1371M1146 1326L1216 1289M1146 1326L1095 1371M1216 1289L1273 1371M1352 1324L1427 1324M1352 1324L1273 1371M1352 1324L1288 1388M1427 1324L1467 1356M1427 1324L1437 1438M1427 1324L1476 1416M1467 1356L1546 1316M1467 1356L1437 1438M1467 1356L1476 1416M1467 1356L1580 1361M1546 1316L1580 1361M1657 1295L1714 1315M1657 1295L1580 1361M1657 1295L1661 1364M1714 1315L1767 1345M1714 1315L1661 1364M1714 1315L1807 1402M1767 1345L1807 1402M1891 1331L1807 1402M1891 1331L1879 1436M1891 1331L1933 1363M1995 1310L2036 1309M1995 1310L2098 1317M1995 1310L1933 1363M2036 1309L2098 1317M2098 1317L2053 1423M2098 1317L2141 1402M2196 1345L2251 1322M2196 1345L2141 1402M2196 1345L2188 1384M2196 1345L2281 1389M2251 1322L2188 1384M2251 1322L2281 1389M2378 1285L2418 1338M2378 1285L2388 1391M2378 1285L2415 1376M2418 1338L2388 1391M2418 1338L2415 1376M2418 1338L2491 1366M2558 1341L2619 1391M2558 1341L2491 1366M-2 1341L59 1391M59 1391L143 1424M143 1424L188 1375M188 1375L278 1420M399 1376L419 1394M399 1376L485 1392M419 1394L485 1392M604 1370L642 1412M793 1428L849 1424M849 1424L928 1365M928 1365L974 1424M1095 1371L1187 1418M1187 1418L1288 1388M1273 1371L1288 1388M1437 1438L1476 1416M1580 1361L1661 1364M1661 1364L1726 1439M1726 1439L1807 1402M1807 1402L1879 1436M1879 1436L1933 1363M2053 1423L2141 1402M2141 1402L2188 1384M2188 1384L2281 1389M2388 1391L2415 1376M2388 1391L2491 1366M2415 1376L2491 1366"/></svg>