<svg xmlns="http://www.w3.org/2000/svg" width="2560" height="1440" fill="#fff"><circle cx="57" cy="26" r="5"/><circle cx="150" cy="49" r="5"/><circle cx="237" cy="11" r="4"/><circle cx="288" cy="34" r="5"/><circle cx="389" cy="14" r="5"/><circle cx="422" cy="71" r="6"/><circle cx="488" cy="21" r="6"/><circle cx="634" cy="23" r="5"/><circle cx="710" cy="9" r="5"/><circle cx="800" cy="22" r="5"/><circle cx="841" cy="22" r="5"/><circle cx="903" cy="46" r="4"/><circle cx="1034" cy="47" r="5"/><circle cx="1089" cy="8" r="5"/><circle cx="1174" cy="23" r="6"/><circle cx="1230" cy="50" r="5"/><circle cx="1348" cy="51" r="4"/><circle cx="1396" cy="30" r="5"/><circle cx="1512" cy="6" r="6"/><circle cx="1512" cy="1446" r="6"/><circle cx="1561" cy="36" r="6"/><circle cx="1613" cy="75" r="6"/><circle cx="1695" cy="44" r="4"/><circle cx="1762" cy="51" r="5"/><circle cx="1867" cy="39" r="5"/><circle cx="1970" cy="2" r="5"/><circle cx="1970" cy="1442" r="5"/><circle cx="2050" cy="6" r="5"/><circle cx="2122" cy="77" r="4"/><circle cx="2203" cy="46" r="5"/><circle cx="2250" cy="47" r="6"/><circle cx="2362" cy="36" r="5"/><circle cx="2470" cy="42" r="5"/><circle cx="2501" cy="23" r="5"/><circle cx="26" cy="107" r="4"/><circle cx="102" cy="122" r="6"/><circle cx="162" cy="142" r="4"/><circle cx="247" cy="123" r="6"/><circle cx="333" cy="107" r="6"/><circle cx="404" cy="124" r="6"/><circle cx="556" cy="82" r="4"/><circle cx="580" cy="109" r="4"/><circle cx="667" cy="91" r="5"/><circle cx="799" cy="148" r="4"/><circle cx="801" cy="154" r="4"/><circle cx="935" cy="109" r="5"/><circle cx="984" cy="90" r="4"/><circle cx="1083" cy="141" r="4"/><circle cx="1164" cy="87" r="4"/><circle cx="1246" cy="156" r="4"/><circle cx="1305" cy="157" r="5"/><circle cx="1422" cy="91" r="6"/><circle cx="1508" cy="91" r="4"/><circle cx="1544" cy="84" r="6"/><circle cx="1633" cy="117" r="5"/><circle cx="1682" cy="157" r="5"/><circle cx="1765" cy="91" r="5"/><circle cx="1850" cy="96" r="4"/><circle cx="1921" cy="138" r="4"/><circle cx="2070" cy="116" r="5"/><circle cx="2131" cy="87" r="5"/><circle cx="2164" cy="113" r="4"/><circle cx="2260" cy="84" r="5"/><circle cx="2380" cy="148" r="4"/><circle cx="2466" cy="87" r="6"/><circle cx="2498" cy="156" r="5"/><circle cx="50" cy="177" r="6"/><circle cx="107" cy="212" r="5"/><circle cx="175" cy="176" r="6"/><circle cx="291" cy="219" r="6"/><circle cx="363" cy="216" r="5"/><circle cx="479" cy="212" r="6"/><circle cx="531" cy="187" r="4"/><circle cx="631" cy="188" r="5"/><circle cx="665" cy="218" r="5"/><circle cx="798" cy="233" r="4"/><circle cx="879" cy="193" r="5"/><circle cx="897" cy="232" r="5"/><circle cx="1035" cy="162" r="5"/><circle cx="1094" cy="182" r="5"/><circle cx="1156" cy="215" r="4"/><circle cx="1245" cy="198" r="4"/><circle cx="1338" cy="186" r="5"/><circle cx="1411" cy="191" r="4"/><circle cx="1505" cy="226" r="4"/><circle cx="1568" cy="231" r="4"/><circle cx="1632" cy="169" r="6"/><circle cx="1745" cy="219" r="4"/><circle cx="1782" cy="183" r="4"/><circle cx="1917" cy="228" r="5"/><circle cx="1998" cy="232" r="5"/><circle cx="2078" cy="225" r="6"/><circle cx="2139" cy="236" r="5"/><circle cx="2215" cy="209" r="5"/><circle cx="2257" cy="174" r="4"/><circle cx="2360" cy="195" r="5"/><circle cx="2459" cy="163" r="6"/><circle cx="2504" cy="170" r="5"/><circle cx="27" cy="242" r="6"/><circle cx="114" cy="310" r="4"/><circle cx="168" cy="295" r="5"/><circle cx="304" cy="252" r="5"/><circle cx="342" cy="303" r="4"/><circle cx="462" cy="293" r="4"/><circle cx="535" cy="291" r="6"/><circle cx="563" cy="254" r="6"/><circle cx="663" cy="302" r="5"/><circle cx="734" cy="288" r="5"/><circle cx="810" cy="245" r="5"/><circle cx="936" cy="308" r="5"/><circle cx="981" cy="296" r="5"/><circle cx="1077" cy="253" r="6"/><circle cx="1200" cy="318" r="5"/><circle cx="1233" cy="298" r="5"/><circle cx="1335" cy="300" r="5"/><circle cx="1369" cy="282" r="5"/><circle cx="1488" cy="277" r="4"/><circle cx="1546" cy="254" r="5"/><circle cx="1627" cy="304" r="6"/><circle cx="1753" cy="263" r="5"/><circle cx="1770" cy="249" r="4"/><circle cx="1851" cy="295" r="6"/><circle cx="1956" cy="306" r="5"/><circle cx="2069" cy="244" r="6"/><circle cx="2148" cy="282" r="6"/><circle cx="2203" cy="288" r="5"/><circle cx="2299" cy="289" r="4"/><circle cx="2373" cy="275" r="5"/><circle cx="2475" cy="258" r="5"/><circle cx="2503" cy="267" r="5"/><circle cx="42" cy="393" r="4"/><circle cx="90" cy="333" r="4"/><circle cx="219" cy="359" r="5"/><circle cx="265" cy="369" r="6"/><circle cx="386" cy="349" r="5"/><circle cx="476" cy="365" r="5"/><circle cx="530" cy="321" r="4"/><circle cx="628" cy="381" r="4"/><circle cx="652" cy="336" r="6"/><circle cx="750" cy="347" r="4"/><circle cx="850" cy="342" r="6"/><circle cx="956" cy="388" r="4"/><circle cx="984" cy="355" r="5"/><circle cx="1045" cy="346" r="5"/><circle cx="1156" cy="394" r="4"/><circle cx="1251" cy="398" r="4"/><circle cx="1351" cy="345" r="6"/><circle cx="1378" cy="344" r="5"/><circle cx="1464" cy="378" r="4"/><circle cx="1541" cy="383" r="5"/><circle cx="1637" cy="395" r="5"/><circle cx="1754" cy="367" r="5"/><circle cx="1809" cy="351" r="4"/><circle cx="1918" cy="337" r="4"/><circle cx="1967" cy="348" r="5"/><circle cx="2016" cy="390" r="4"/><circle cx="2158" cy="338" r="5"/><circle cx="2205" cy="338" r="4"/><circle cx="2296" cy="329" r="6"/><circle cx="2327" cy="337" r="4"/><circle cx="2453" cy="365" r="4"/><circle cx="2495" cy="394" r="4"/><circle cx="12" cy="411" r="5"/><circle cx="122" cy="437" r="6"/><circle cx="202" cy="459" r="4"/><circle cx="275" cy="440" r="5"/><circle cx="365" cy="451" r="4"/><circle cx="429" cy="431" r="6"/><circle cx="510" cy="416" r="5"/><circle cx="612" cy="415" r="5"/><circle cx="651" cy="440" r="4"/><circle cx="799" cy="448" r="5"/><circle cx="843" cy="411" r="5"/><circle cx="906" cy="452" r="5"/><circle cx="1005" cy="407" r="6"/><circle cx="1047" cy="423" r="5"/><circle cx="1138" cy="435" r="6"/><circle cx="1204" cy="427" r="5"/><circle cx="1288" cy="440" r="6"/><circle cx="1437" cy="479" r="4"/><circle cx="1507" cy="463" r="6"/><circle cx="1556" cy="418" r="6"/><circle cx="1631" cy="412" r="5"/><circle cx="1733" cy="440" r="5"/><circle cx="1784" cy="435" r="5"/><circle cx="1856" cy="433" r="5"/><circle cx="1990" cy="461" r="5"/><circle cx="2069" cy="454" r="5"/><circle cx="2117" cy="470" r="6"/><circle cx="2201" cy="429" r="6"/><circle cx="2268" cy="432" r="4"/><circle cx="2341" cy="411" r="6"/><circle cx="2423" cy="416" r="4"/><circle cx="2530" cy="465" r="6"/><circle cx="34" cy="494" r="6"/><circle cx="140" cy="527" r="5"/><circle cx="173" cy="505" r="6"/><circle cx="312" cy="496" r="5"/><circle cx="343" cy="552" r="5"/><circle cx="465" cy="510" r="5"/><circle cx="508" cy="537" r="6"/><circle cx="578" cy="480" r="5"/><circle cx="690" cy="485" r="6"/><circle cx="791" cy="511" r="5"/><circle cx="856" cy="518" r="5"/><circle cx="883" cy="550" r="5"/><circle cx="1008" cy="515" r="5"/><circle cx="1103" cy="496" r="5"/><circle cx="1162" cy="489" r="5"/><circle cx="1265" cy="511" r="5"/><circle cx="1319" cy="534" r="4"/><circle cx="1370" cy="501" r="6"/><circle cx="1466" cy="521" r="5"/><circle cx="1574" cy="541" r="5"/><circle cx="1624" cy="511" r="6"/><circle cx="1709" cy="492" r="6"/><circle cx="1813" cy="520" r="6"/><circle cx="1886" cy="554" r="4"/><circle cx="1925" cy="489" r="5"/><circle cx="2038" cy="522" r="5"/><circle cx="2123" cy="532" r="5"/><circle cx="2169" cy="549" r="6"/><circle cx="2273" cy="504" r="6"/><circle cx="2358" cy="534" r="6"/><circle cx="2457" cy="525" r="4"/><circle cx="2507" cy="490" r="4"/><circle cx="67" cy="611" r="6"/><circle cx="140" cy="611" r="5"/><circle cx="203" cy="634" r="6"/><circle cx="315" cy="598" r="6"/><circle cx="351" cy="580" r="4"/><circle cx="479" cy="639" r="5"/><circle cx="492" cy="571" r="6"/><circle cx="617" cy="607" r="5"/><circle cx="713" cy="590" r="4"/><circle cx="776" cy="597" r="5"/><circle cx="841" cy="600" r="4"/><circle cx="954" cy="591" r="5"/><circle cx="1015" cy="580" r="5"/><circle cx="1050" cy="601" r="5"/><circle cx="1133" cy="601" r="6"/><circle cx="1204" cy="600" r="5"/><circle cx="1326" cy="566" r="5"/><circle cx="1436" cy="568" r="4"/><circle cx="1505" cy="577" r="6"/><circle cx="1524" cy="587" r="4"/><circle cx="1653" cy="603" r="5"/><circle cx="1709" cy="632" r="5"/><circle cx="1829" cy="577" r="4"/><circle cx="1914" cy="603" r="4"/><circle cx="1982" cy="582" r="5"/><circle cx="2017" cy="562" r="5"/><circle cx="2110" cy="562" r="4"/><circle cx="2169" cy="619" r="4"/><circle cx="2255" cy="612" r="5"/><circle cx="2375" cy="600" r="6"/><circle cx="2453" cy="567" r="5"/><circle cx="2537" cy="639" r="6"/><circle cx="33" cy="689" r="5"/><circle cx="110" cy="716" r="4"/><circle cx="187" cy="685" r="4"/><circle cx="253" cy="715" r="5"/><circle cx="346" cy="654" r="5"/><circle cx="471" cy="687" r="6"/><circle cx="539" cy="645" r="6"/><circle cx="616" cy="680" r="5"/><circle cx="698" cy="716" r="5"/><circle cx="773" cy="715" r="5"/><circle cx="879" cy="713" r="5"/><circle cx="906" cy="673" r="5"/><circle cx="1021" cy="657" r="6"/><circle cx="1113" cy="689" r="5"/><circle cx="1146" cy="694" r="6"/><circle cx="1253" cy="659" r="5"/><circle cx="1356" cy="681" r="5"/><circle cx="1438" cy="663" r="4"/><circle cx="1441" cy="702" r="5"/><circle cx="1571" cy="667" r="5"/><circle cx="1652" cy="689" r="4"/><circle cx="1723" cy="692" r="6"/><circle cx="1829" cy="702" r="5"/><circle cx="1854" cy="659" r="5"/><circle cx="2000" cy="675" r="4"/><circle cx="2078" cy="696" r="5"/><circle cx="2145" cy="655" r="5"/><circle cx="2212" cy="711" r="5"/><circle cx="2297" cy="662" r="4"/><circle cx="2327" cy="650" r="5"/><circle cx="2421" cy="654" r="4"/><circle cx="2498" cy="677" r="5"/><circle cx="34" cy="762" r="5"/><circle cx="154" cy="741" r="6"/><circle cx="215" cy="721" r="5"/><circle cx="277" cy="750" r="6"/><circle cx="364" cy="771" r="6"/><circle cx="449" cy="766" r="6"/><circle cx="501" cy="751" r="5"/><circle cx="621" cy="753" r="5"/><circle cx="675" cy="721" r="5"/><circle cx="722" cy="780" r="4"/><circle cx="842" cy="728" r="4"/><circle cx="882" cy="789" r="5"/><circle cx="970" cy="796" r="5"/><circle cx="1054" cy="727" r="4"/><circle cx="1135" cy="791" r="4"/><circle cx="1230" cy="752" r="5"/><circle cx="1309" cy="744" r="6"/><circle cx="1403" cy="775" r="5"/><circle cx="1488" cy="786" r="6"/><circle cx="1583" cy="787" r="6"/><circle cx="1665" cy="744" r="5"/><circle cx="1736" cy="775" r="5"/><circle cx="1779" cy="772" r="6"/><circle cx="1909" cy="748" r="4"/><circle cx="1958" cy="792" r="6"/><circle cx="2073" cy="775" r="5"/><circle cx="2115" cy="728" r="6"/><circle cx="2176" cy="726" r="6"/><circle cx="2297" cy="784" r="5"/><circle cx="2375" cy="737" r="6"/><circle cx="2429" cy="743" r="5"/><circle cx="2560" cy="760" r="5"/><circle cx="-0" cy="760" r="5"/><circle cx="59" cy="810" r="5"/><circle cx="91" cy="801" r="4"/><circle cx="161" cy="847" r="5"/><circle cx="305" cy="834" r="5"/><circle cx="379" cy="848" r="6"/><circle cx="409" cy="807" r="4"/><circle cx="483" cy="844" r="4"/><circle cx="568" cy="836" r="4"/><circle cx="680" cy="858" r="6"/><circle cx="789" cy="837" r="5"/><circle cx="857" cy="868" r="5"/><circle cx="893" cy="808" r="4"/><circle cx="991" cy="865" r="4"/><circle cx="1081" cy="802" r="6"/><circle cx="1124" cy="861" r="6"/><circle cx="1243" cy="863" r="5"/><circle cx="1351" cy="853" r="6"/><circle cx="1422" cy="810" r="5"/><circle cx="1475" cy="878" r="6"/><circle cx="1598" cy="852" r="6"/><circle cx="1643" cy="826" r="6"/><circle cx="1749" cy="875" r="5"/><circle cx="1767" cy="803" r="6"/><circle cx="1866" cy="859" r="5"/><circle cx="1959" cy="828" r="6"/><circle cx="2025" cy="829" r="5"/><circle cx="2130" cy="831" r="5"/><circle cx="2190" cy="818" r="5"/><circle cx="2262" cy="836" r="4"/><circle cx="2349" cy="864" r="6"/><circle cx="2421" cy="860" r="4"/><circle cx="2520" cy="856" r="6"/><circle cx="17" cy="951" r="4"/><circle cx="117" cy="932" r="5"/><circle cx="187" cy="898" r="4"/><circle cx="302" cy="931" r="5"/><circle cx="324" cy="889" r="6"/><circle cx="430" cy="902" r="4"/><circle cx="498" cy="910" r="6"/><circle cx="564" cy="932" r="5"/><circle cx="674" cy="903" r="5"/><circle cx="754" cy="891" r="4"/><circle cx="853" cy="920" r="5"/><circle cx="958" cy="882" r="5"/><circle cx="1014" cy="920" r="6"/><circle cx="1077" cy="958" r="6"/><circle cx="1133" cy="902" r="5"/><circle cx="1226" cy="928" r="6"/><circle cx="1311" cy="897" r="5"/><circle cx="1385" cy="936" r="5"/><circle cx="1508" cy="960" r="5"/><circle cx="1531" cy="925" r="5"/><circle cx="1649" cy="934" r="6"/><circle cx="1710" cy="932" r="6"/><circle cx="1826" cy="925" r="6"/><circle cx="1851" cy="951" r="5"/><circle cx="1961" cy="960" r="5"/><circle cx="2014" cy="890" r="5"/><circle cx="2107" cy="911" r="5"/><circle cx="2215" cy="943" r="4"/><circle cx="2255" cy="907" r="6"/><circle cx="2363" cy="880" r="5"/><circle cx="2437" cy="909" r="6"/><circle cx="2551" cy="883" r="5"/><circle cx="70" cy="1029" r="6"/><circle cx="91" cy="964" r="5"/><circle cx="217" cy="1013" r="6"/><circle cx="298" cy="962" r="5"/><circle cx="394" cy="996" r="4"/><circle cx="469" cy="990" r="5"/><circle cx="518" cy="995" r="6"/><circle cx="574" cy="1022" r="6"/><circle cx="669" cy="994" r="5"/><circle cx="772" cy="992" r="5"/><circle cx="873" cy="1038" r="5"/><circle cx="936" cy="989" r="5"/><circle cx="962" cy="1021" r="5"/><circle cx="1100" cy="985" r="6"/><circle cx="1178" cy="1029" r="4"/><circle cx="1245" cy="983" r="5"/><circle cx="1284" cy="1016" r="5"/><circle cx="1388" cy="1000" r="6"/><circle cx="1458" cy="997" r="5"/><circle cx="1525" cy="995" r="5"/><circle cx="1675" cy="1010" r="4"/><circle cx="1707" cy="1005" r="6"/><circle cx="1788" cy="978" r="4"/><circle cx="1857" cy="1034" r="5"/><circle cx="1988" cy="1002" r="5"/><circle cx="2049" cy="1015" r="5"/><circle cx="2118" cy="994" r="6"/><circle cx="2223" cy="1002" r="5"/><circle cx="2306" cy="1035" r="5"/><circle cx="2357" cy="1006" r="6"/><circle cx="2459" cy="960" r="6"/><circle cx="2483" cy="1028" r="4"/><circle cx="22" cy="1098" r="5"/><circle cx="131" cy="1095" r="6"/><circle cx="205" cy="1092" r="6"/><circle cx="301" cy="1096" r="5"/><circle cx="356" cy="1056" r="4"/><circle cx="403" cy="1049" r="5"/><circle cx="515" cy="1116" r="4"/><circle cx="624" cy="1115" r="5"/><circle cx="697" cy="1043" r="5"/><circle cx="783" cy="1108" r="6"/><circle cx="801" cy="1041" r="5"/><circle cx="958" cy="1107" r="6"/><circle cx="1031" cy="1096" r="5"/><circle cx="1057" cy="1110" r="6"/><circle cx="1170" cy="1071" r="4"/><circle cx="1265" cy="1120" r="4"/><circle cx="1323" cy="1082" r="5"/><circle cx="1424" cy="1110" r="6"/><circle cx="1493" cy="1043" r="5"/><circle cx="1567" cy="1096" r="6"/><circle cx="1660" cy="1062" r="5"/><circle cx="1746" cy="1118" r="4"/><circle cx="1764" cy="1064" r="6"/><circle cx="1861" cy="1084" r="5"/><circle cx="1949" cy="1091" r="4"/><circle cx="2022" cy="1105" r="5"/><circle cx="2102" cy="1071" r="5"/><circle cx="2179" cy="1063" r="5"/><circle cx="2273" cy="1058" r="5"/><circle cx="2348" cy="1070" r="4"/><circle cx="2478" cy="1063" r="5"/><circle cx="2487" cy="1057" r="5"/><circle cx="29" cy="1180" r="4"/><circle cx="85" cy="1154" r="4"/><circle cx="177" cy="1179" r="5"/><circle cx="284" cy="1164" r="6"/><circle cx="384" cy="1173" r="6"/><circle cx="477" cy="1144" r="6"/><circle cx="546" cy="1141" r="4"/><circle cx="606" cy="1164" r="5"/><circle cx="694" cy="1149" r="5"/><circle cx="779" cy="1156" r="6"/><circle cx="822" cy="1159" r="5"/><circle cx="942" cy="1139" r="5"/><circle cx="993" cy="1125" r="4"/><circle cx="1053" cy="1160" r="4"/><circle cx="1148" cy="1186" r="4"/><circle cx="1243" cy="1146" r="5"/><circle cx="1314" cy="1121" r="4"/><circle cx="1373" cy="1135" r="5"/><circle cx="1445" cy="1191" r="6"/><circle cx="1592" cy="1159" r="6"/><circle cx="1628" cy="1167" r="4"/><circle cx="1699" cy="1127" r="4"/><circle cx="1803" cy="1187" r="6"/><circle cx="1904" cy="1180" r="5"/><circle cx="1937" cy="1127" r="5"/><circle cx="2025" cy="1137" r="4"/><circle cx="2101" cy="1169" r="5"/><circle cx="2180" cy="1198" r="6"/><circle cx="2258" cy="1137" r="6"/><circle cx="2374" cy="1166" r="6"/><circle cx="2446" cy="1135" r="5"/><circle cx="2525" cy="1183" r="6"/><circle cx="18" cy="1213" r="5"/><circle cx="135" cy="1219" r="5"/><circle cx="212" cy="1266" r="6"/><circle cx="319" cy="1262" r="6"/><circle cx="335" cy="1214" r="5"/><circle cx="479" cy="1202" r="4"/><circle cx="551" cy="1240" r="6"/><circle cx="599" cy="1278" r="6"/><circle cx="661" cy="1210" r="4"/><circle cx="747" cy="1209" r="6"/><circle cx="878" cy="1233" r="5"/><circle cx="913" cy="1254" r="5"/><circle cx="1009" cy="1222" r="4"/><circle cx="1095" cy="1243" r="6"/><circle cx="1138" cy="1217" r="5"/><circle cx="1228" cy="1227" r="5"/><circle cx="1351" cy="1264" r="6"/><circle cx="1433" cy="1236" r="5"/><circle cx="1457" cy="1253" r="5"/><circle cx="1597" cy="1255" r="5"/><circle cx="1620" cy="1248" r="4"/><circle cx="1737" cy="1261" r="5"/><circle cx="1826" cy="1217" r="5"/><circle cx="1850" cy="1205" r="4"/><circle cx="1983" cy="1243" r="4"/><circle cx="2048" cy="1214" r="5"/><circle cx="2155" cy="1228" r="6"/><circle cx="2185" cy="1233" r="4"/><circle cx="2301" cy="1210" r="4"/><circle cx="2393" cy="1269" r="5"/><circle cx="2471" cy="1219" r="4"/><circle cx="2533" cy="1266" r="6"/><circle cx="29" cy="1327" r="4"/><circle cx="119" cy="1281" r="5"/><circle cx="175" cy="1337" r="5"/><circle cx="246" cy="1327" r="6"/><circle cx="355" cy="1348" r="4"/><circle cx="436" cy="1324" r="5"/><circle cx="486" cy="1310" r="5"/><circle cx="614" cy="1301" r="6"/><circle cx="702" cy="1336" r="6"/><circle cx="743" cy="1301" r="4"/><circle cx="804" cy="1333" r="5"/><circle cx="952" cy="1327" r="5"/><circle cx="972" cy="1339" r="6"/><circle cx="1072" cy="1320" r="5"/><circle cx="1142" cy="1356" r="5"/><circle cx="1214" cy="1345" r="5"/><circle cx="1350" cy="1318" r="6"/><circle cx="1415" cy="1340" r="6"/><circle cx="1508" cy="1333" r="5"/><circle cx="1585" cy="1315" r="5"/><circle cx="1611" cy="1283" r="5"/><circle cx="1686" cy="1346" r="4"/><circle cx="1782" cy="1338" r="6"/><circle cx="1896" cy="1310" r="4"/><circle cx="1991" cy="1282" r="6"/><circle cx="2026" cy="1289" r="5"/><circle cx="2092" cy="1322" r="4"/><circle cx="2229" cy="1299" r="6"/><circle cx="2319" cy="1318" r="4"/><circle cx="2324" cy="1286" r="4"/><circle cx="2464" cy="1294" r="4"/><circle cx="2498" cy="1308" r="5"/><circle cx="51" cy="1431" r="6"/><circle cx="110" cy="1407" r="5"/><circle cx="183" cy="1402" r="4"/><circle cx="278" cy="1438" r="4"/><circle cx="278" cy="-2" r="4"/><circle cx="352" cy="1382" r="5"/><circle cx="434" cy="1390" r="4"/><circle cx="545" cy="1406" r="6"/><circle cx="614" cy="1420" r="6"/><circle cx="698" cy="1440" r="5"/><circle cx="698" cy="-0" r="5"/><circle cx="799" cy="1374" r="4"/><circle cx="877" cy="1407" r="5"/><circle cx="960" cy="1382" r="5"/><circle cx="1003" cy="1385" r="6"/><circle cx="1056" cy="1379" r="5"/><circle cx="1153" cy="1386" r="5"/><circle cx="1260" cy="1385" r="5"/><circle cx="1358" cy="1393" r="6"/><circle cx="1424" cy="1397" r="4"/><circle cx="1481" cy="1403" r="5"/><circle cx="1547" cy="1405" r="5"/><circle cx="1621" cy="1438" r="6"/><circle cx="1621" cy="-2" r="6"/><circle cx="1733" cy="1363" r="5"/><circle cx="1803" cy="1419" r="4"/><circle cx="1866" cy="1380" r="6"/><circle cx="1927" cy="1386" r="5"/><circle cx="2013" cy="1396" r="4"/><circle cx="2152" cy="1361" r="5"/><circle cx="2202" cy="1424" r="5"/><circle cx="2303" cy="1406" r="4"/><circle cx="2352" cy="1372" r="5"/><circle cx="2437" cy="1391" r="5"/><circle cx="2504" cy="1388" r="6"/><path stroke="#fff" d="M57 26L150 49M57 26L26 107M57 26L51 -9M57 26L110 -33M57 1466L51 1431M57 1466L110 1407M150 49L237 11M150 49L102 122M150 49L110 -33M150 49L183 -38M150 1489L110 1407M150 1489L183 1402M237 11L288 34M237 11L183 -38M237 11L278 -2M237 1451L183 1402M237 1451L278 1438M288 34L247 123M288 34L333 107M288 34L278 -2M288 1474L278 1438M389 14L422 71M389 14L488 21M389 14L333 107M389 14L352 -58M389 14L434 -50M389 1454L352 1382M389 1454L434 1390M422 71L488 21M422 71L333 107M422 71L404 124M488 21L556 82M488 21L434 -50M488 21L545 -34M488 1461L434 1390M488 1461L545 1406M634 23L710 9M634 23L667 91M634 23L545 -34M634 23L614 -20M634 23L698 -0M634 1463L545 1406M634 1463L614 1420M634 1463L698 1440M710 9L800 22M710 9L667 91M710 9L614 -20M710 9L698 -0M710 1449L614 1420M710 1449L698 1440M800 22L841 22M800 22L799 -66M800 22L877 -33M800 1462L799 1374M800 1462L877 1407M841 22L903 46M841 22L799 -66M841 22L877 -33M841 1462L799 1374M841 1462L877 1407M903 46L935 109M903 46L984 90M903 46L877 -33M903 1486L877 1407M1034 47L1089 8M1034 47L984 90M1034 47L1083 141M1089 8L1174 23M1089 8L1056 -61M1089 8L1153 -54M1089 1448L1056 1379M1089 1448L1153 1386M1174 23L1230 50M1174 23L1164 87M1174 23L1142 -84M1174 23L1153 -54M1174 1463L1142 1356M1174 1463L1153 1386M1230 50L1348 51M1230 50L1164 87M1230 50L1246 156M1230 50L1260 -55M1230 1490L1260 1385M1348 51L1396 30M1348 51L1305 157M1348 51L1422 91M1396 30L1422 91M1396 30L1358 -47M1396 30L1424 -43M1396 1470L1358 1393M1396 1470L1424 1397M1512 6L1561 36M1512 6L1508 91M1512 6L1544 84M1512 6L1481 -37M1512 6L1547 -35M1512 1446L1481 1403M1512 1446L1547 1405M1561 36L1613 75M1561 36L1544 84M1561 36L1547 -35M1561 36L1621 -2M1561 1476L1547 1405M1561 1476L1621 1438M1613 75L1544 84M1613 75L1633 117M1613 75L1632 169M1613 75L1621 -2M1613 1515L1621 1438M1695 44L1762 51M1695 44L1633 117M1695 44L1765 91M1695 44L1621 -2M1695 1484L1621 1438M1762 51L1867 39M1762 51L1765 91M1762 51L1850 96M1762 51L1803 -21M1762 1491L1803 1419M1867 39L1850 96M1867 39L1803 -21M1867 39L1866 -60M1867 39L1927 -54M1867 1479L1803 1419M1867 1479L1866 1380M1867 1479L1927 1386M1970 2L2050 6M1970 2L1927 -54M1970 2L2013 -44M1970 1442L1927 1386M1970 1442L2013 1396M2050 6L2122 77M2050 6L2070 116M2050 6L2131 87M2050 6L2013 -44M2050 1446L2013 1396M2122 77L2070 116M2122 77L2131 87M2122 77L2164 113M2203 46L2250 47M2203 46L2131 87M2203 46L2164 113M2203 46L2260 84M2203 46L2202 -16M2203 1486L2202 1424M2250 47L2362 36M2250 47L2260 84M2250 47L2202 -16M2250 47L2303 -34M2250 1487L2202 1424M2250 1487L2303 1406M2362 36L2470 42M2362 36L2303 -34M2362 36L2352 -68M2362 1476L2303 1406M2362 1476L2352 1372M2470 42L2501 23M2470 42L2466 87M2470 42L2437 -49M2470 42L2504 -52M2470 1482L2437 1391M2470 1482L2504 1388M2501 23L2466 87M2501 23L2611 -9M2501 23L2437 -49M2501 23L2504 -52M-59 23L51 -9M-59 1463L51 1431M2501 1463L2611 1431M2501 1463L2437 1391M2501 1463L2504 1388M26 107L102 122M26 107L50 177M102 122L162 142M102 122L50 177M102 122L175 176M162 142L247 123M162 142L107 212M162 142L175 176M247 123L333 107M247 123L175 176M247 123L291 219M333 107L404 124M404 124L363 216M404 124L479 212M556 82L580 109M556 82L545 -34M556 1522L545 1406M580 109L667 91M580 109L531 187M580 109L631 188M667 91L631 188M667 91L698 -0M667 1531L698 1440M799 148L801 154M799 148L798 233M799 148L879 193M801 154L798 233M801 154L879 193M801 154L810 245M935 109L984 90M935 109L1035 162M984 90L1035 162M1083 141L1164 87M1083 141L1035 162M1083 141L1094 182M1246 156L1305 157M1246 156L1245 198M1246 156L1338 186M1305 157L1245 198M1305 157L1338 186M1305 157L1411 191M1422 91L1508 91M1422 91L1411 191M1508 91L1544 84M1544 84L1633 117M1633 117L1682 157M1633 117L1632 169M1682 157L1765 91M1682 157L1632 169M1682 157L1745 219M1682 157L1782 183M1765 91L1850 96M1765 91L1782 183M1850 96L1921 138M1921 138L1917 228M2070 116L2131 87M2070 116L2164 113M2070 116L2078 225M2131 87L2164 113M2164 113L2260 84M2260 84L2257 174M2260 84L2202 -16M2260 1524L2202 1424M2380 148L2360 195M2380 148L2459 163M2466 87L2498 156M2466 87L2459 163M2466 87L2504 170M2498 156L2459 163M2498 156L2504 170M2498 156L2475 258M50 177L107 212M50 177L-56 170M50 177L27 242M2610 177L2504 170M107 212L175 176M107 212L27 242M107 212L168 295M175 176L291 219M291 219L363 216M291 219L304 252M291 219L342 303M363 216L304 252M363 216L342 303M479 212L531 187M479 212L462 293M479 212L535 291M479 212L563 254M531 187L631 188M531 187L563 254M631 188L665 218M631 188L563 254M665 218L663 302M798 233L879 193M798 233L734 288M798 233L810 245M879 193L897 232M879 193L810 245M897 232L810 245M897 232L936 308M897 232L981 296M897 232L850 342M1035 162L1094 182M1035 162L1077 253M1094 182L1156 215M1094 182L1077 253M1156 215L1245 198M1156 215L1077 253M1156 215L1200 318M1245 198L1338 186M1245 198L1233 298M1338 186L1411 191M1338 186L1369 282M1411 191L1505 226M1411 191L1369 282M1505 226L1568 231M1505 226L1488 277M1505 226L1546 254M1568 231L1632 169M1568 231L1488 277M1568 231L1546 254M1568 231L1627 304M1632 169L1546 254M1745 219L1782 183M1745 219L1753 263M1745 219L1770 249M1782 183L1753 263M1782 183L1770 249M1917 228L1998 232M1917 228L1851 295M1917 228L1956 306M1917 228L1918 337M1998 232L2078 225M1998 232L1956 306M1998 232L2069 244M1998 232L1967 348M2078 225L2139 236M2078 225L2069 244M2078 225L2148 282M2139 236L2215 209M2139 236L2069 244M2139 236L2148 282M2139 236L2203 288M2215 209L2257 174M2215 209L2203 288M2215 209L2299 289M2257 174L2360 195M2360 195L2299 289M2360 195L2373 275M2459 163L2504 170M2459 163L2475 258M2504 170L2475 258M27 242L-57 267M27 242L90 333M2587 242L2503 267M114 310L168 295M114 310L90 333M168 295L90 333M168 295L219 359M304 252L342 303M304 252L265 369M342 303L265 369M342 303L386 349M462 293L535 291M462 293L386 349M462 293L476 365M462 293L530 321M535 291L563 254M535 291L476 365M535 291L530 321M563 254L530 321M663 302L734 288M663 302L628 381M663 302L652 336M663 302L750 347M734 288L810 245M734 288L652 336M734 288L750 347M936 308L981 296M936 308L850 342M936 308L956 388M936 308L984 355M981 296L1077 253M981 296L984 355M981 296L1045 346M1077 253L1045 346M1200 318L1233 298M1200 318L1156 394M1200 318L1251 398M1233 298L1335 300M1335 300L1369 282M1335 300L1351 345M1335 300L1378 344M1369 282L1351 345M1369 282L1378 344M1488 277L1546 254M1546 254L1627 304M1627 304L1637 395M1627 304L1631 412M1753 263L1770 249M1753 263L1851 295M1753 263L1754 367M1770 249L1851 295M1851 295L1809 351M1851 295L1918 337M1956 306L1918 337M1956 306L1967 348M1956 306L2016 390M2069 244L2148 282M2069 244L2158 338M2148 282L2203 288M2148 282L2158 338M2203 288L2158 338M2203 288L2205 338M2299 289L2373 275M2299 289L2296 329M2299 289L2327 337M2373 275L2475 258M2373 275L2296 329M2373 275L2327 337M2475 258L2503 267M2503 267L2453 365M42 393L90 333M42 393L12 411M42 393L122 437M42 393L34 494M219 359L265 369M219 359L202 459M219 359L275 440M265 369L275 440M386 349L365 451M386 349L429 431M476 365L530 321M476 365L429 431M476 365L510 416M530 321L510 416M628 381L652 336M628 381L612 415M628 381L651 440M652 336L750 347M652 336L612 415M750 347L850 342M850 342L843 411M956 388L984 355M956 388L906 452M956 388L1005 407M984 355L1045 346M984 355L1005 407M1045 346L1005 407M1045 346L1047 423M1156 394L1251 398M1156 394L1138 435M1156 394L1204 427M1156 394L1162 489M1251 398L1204 427M1251 398L1288 440M1351 345L1378 344M1351 345L1464 378M1351 345L1288 440M1378 344L1464 378M1464 378L1541 383M1464 378L1507 463M1464 378L1556 418M1541 383L1637 395M1541 383L1507 463M1541 383L1556 418M1541 383L1631 412M1637 395L1556 418M1637 395L1631 412M1637 395L1733 440M1754 367L1809 351M1754 367L1733 440M1754 367L1784 435M1754 367L1856 433M1809 351L1856 433M1918 337L1967 348M1967 348L2016 390M2016 390L1990 461M2016 390L2069 454M2158 338L2205 338M2158 338L2201 429M2205 338L2296 329M2205 338L2201 429M2296 329L2327 337M2296 329L2341 411M2327 337L2341 411M2453 365L2495 394M2453 365L2423 416M2495 394L2572 411M2495 394L2423 416M2495 394L2530 465M2495 394L2507 490M-65 394L12 411M12 411L-30 465M12 411L34 494M2572 411L2530 465M122 437L202 459M122 437L34 494M122 437L140 527M122 437L173 505M202 459L275 440M202 459L140 527M202 459L173 505M275 440L365 451M275 440L312 496M365 451L429 431M365 451L312 496M365 451L343 552M429 431L510 416M429 431L465 510M510 416L578 480M612 415L651 440M612 415L578 480M612 415L690 485M651 440L578 480M651 440L690 485M799 448L843 411M799 448L791 511M799 448L856 518M843 411L906 452M906 452L1005 407M906 452L856 518M906 452L883 550M1005 407L1047 423M1047 423L1138 435M1047 423L1008 515M1047 423L1103 496M1138 435L1204 427M1138 435L1103 496M1138 435L1162 489M1204 427L1288 440M1204 427L1162 489M1288 440L1265 511M1288 440L1370 501M1437 479L1507 463M1437 479L1370 501M1437 479L1466 521M1437 479L1436 568M1507 463L1556 418M1507 463L1466 521M1556 418L1631 412M1631 412L1624 511M1733 440L1784 435M1733 440L1709 492M1784 435L1856 433M1784 435L1709 492M1784 435L1813 520M1856 433L1813 520M1856 433L1925 489M1990 461L2069 454M1990 461L1925 489M1990 461L2038 522M1990 461L2017 562M2069 454L2117 470M2069 454L2038 522M2069 454L2123 532M2117 470L2201 429M2117 470L2123 532M2117 470L2169 549M2201 429L2268 432M2201 429L2273 504M2268 432L2341 411M2268 432L2273 504M2341 411L2423 416M2341 411L2273 504M2530 465L2594 494M2530 465L2457 525M2530 465L2507 490M-30 465L34 494M34 494L-53 490M2594 494L2507 490M140 527L173 505M140 527L67 611M140 527L140 611M173 505L140 611M312 496L343 552M312 496L315 598M312 496L351 580M343 552L315 598M343 552L351 580M343 552L346 654M465 510L508 537M465 510L492 571M508 537L578 480M508 537L479 639M508 537L492 571M578 480L690 485M690 485L791 511M690 485L713 590M791 511L856 518M791 511L883 550M791 511L776 597M856 518L883 550M856 518L841 600M883 550L841 600M883 550L954 591M1008 515L1103 496M1008 515L954 591M1008 515L1015 580M1008 515L1050 601M1103 496L1162 489M1103 496L1133 601M1162 489L1265 511M1265 511L1319 534M1265 511L1326 566M1319 534L1370 501M1319 534L1326 566M1370 501L1466 521M1370 501L1326 566M1466 521L1436 568M1466 521L1505 577M1574 541L1624 511M1574 541L1505 577M1574 541L1524 587M1624 511L1709 492M1624 511L1653 603M1709 492L1813 520M1813 520L1886 554M1813 520L1829 577M1886 554L1925 489M1886 554L1829 577M1886 554L1914 603M1886 554L1982 582M2038 522L2123 532M2038 522L1982 582M2038 522L2017 562M2123 532L2169 549M2123 532L2110 562M2169 549L2110 562M2169 549L2169 619M2169 549L2255 612M2273 504L2358 534M2273 504L2255 612M2358 534L2457 525M2358 534L2375 600M2358 534L2453 567M2457 525L2507 490M2457 525L2453 567M67 611L140 611M67 611L-23 639M67 611L33 689M2627 611L2537 639M140 611L203 634M140 611L187 685M203 634L187 685M203 634L253 715M203 634L215 721M315 598L351 580M315 598L346 654M351 580L346 654M479 639L492 571M479 639L471 687M479 639L539 645M479 639L501 751M492 571L471 687M492 571L539 645M617 607L713 590M617 607L539 645M617 607L616 680M713 590L776 597M776 597L841 600M841 600L906 673M954 591L1015 580M954 591L906 673M954 591L1021 657M1015 580L1050 601M1015 580L1021 657M1050 601L1133 601M1050 601L1021 657M1133 601L1204 600M1133 601L1113 689M1133 601L1146 694M1204 600L1253 659M1326 566L1253 659M1436 568L1505 577M1436 568L1524 587M1436 568L1438 663M1505 577L1524 587M1505 577L1571 667M1524 587L1571 667M1653 603L1709 632M1653 603L1571 667M1653 603L1652 689M1709 632L1652 689M1709 632L1723 692M1829 577L1914 603M1829 577L1854 659M1914 603L1982 582M1914 603L2017 562M1914 603L1854 659M1982 582L2017 562M1982 582L2000 675M2017 562L2110 562M2110 562L2169 619M2169 619L2255 612M2169 619L2145 655M2255 612L2297 662M2255 612L2327 650M2375 600L2453 567M2375 600L2297 662M2375 600L2327 650M2375 600L2421 654M2453 567L2537 639M2453 567L2421 654M2537 639L2593 689M2537 639L2498 677M-23 639L33 689M33 689L110 716M33 689L34 762M33 689L-0 760M2593 689L2560 760M110 716L34 762M110 716L154 741M110 716L91 801M187 685L253 715M187 685L154 741M187 685L215 721M253 715L154 741M253 715L215 721M253 715L277 750M346 654L277 750M471 687L539 645M471 687L449 766M471 687L501 751M539 645L616 680M616 680L698 716M616 680L621 753M616 680L675 721M698 716L773 715M698 716L621 753M698 716L675 721M698 716L722 780M773 715L879 713M773 715L675 721M773 715L722 780M773 715L842 728M879 713L906 673M879 713L842 728M879 713L882 789M879 713L893 808M906 673L842 728M1021 657L1113 689M1021 657L1054 727M1113 689L1146 694M1113 689L1054 727M1146 694L1054 727M1146 694L1135 791M1146 694L1230 752M1253 659L1356 681M1253 659L1230 752M1253 659L1309 744M1356 681L1438 663M1356 681L1441 702M1356 681L1309 744M1438 663L1441 702M1441 702L1403 775M1441 702L1488 786M1441 702L1422 810M1571 667L1652 689M1571 667L1583 787M1652 689L1723 692M1652 689L1665 744M1723 692L1665 744M1723 692L1736 775M1723 692L1779 772M1829 702L1854 659M1829 702L1779 772M1829 702L1909 748M1829 702L1767 803M1854 659L1909 748M2000 675L2078 696M2078 696L2145 655M2078 696L2073 775M2078 696L2115 728M2078 696L2176 726M2145 655L2212 711M2145 655L2115 728M2145 655L2176 726M2212 711L2297 662M2212 711L2115 728M2212 711L2176 726M2297 662L2327 650M2297 662L2375 737M2327 650L2375 737M2421 654L2498 677M2421 654L2375 737M2421 654L2429 743M2498 677L2429 743M2498 677L2560 760M34 762L-0 760M34 762L59 810M34 762L91 801M2594 762L2560 760M154 741L215 721M154 741L91 801M215 721L277 750M277 750L364 771M277 750L305 834M364 771L449 766M364 771L305 834M364 771L379 848M364 771L409 807M449 766L501 751M449 766L409 807M449 766L483 844M621 753L675 721M621 753L568 836M675 721L722 780M722 780L680 858M722 780L789 837M842 728L882 789M882 789L970 796M882 789L857 868M882 789L893 808M970 796L893 808M970 796L991 865M970 796L1081 802M970 796L958 882M1054 727L1081 802M1135 791L1230 752M1135 791L1081 802M1135 791L1124 861M1230 752L1309 744M1230 752L1243 863M1309 744L1403 775M1403 775L1488 786M1403 775L1351 853M1403 775L1422 810M1488 786L1583 787M1488 786L1422 810M1488 786L1475 878M1583 787L1665 744M1583 787L1598 852M1583 787L1643 826M1665 744L1736 775M1665 744L1643 826M1736 775L1779 772M1736 775L1643 826M1736 775L1767 803M1779 772L1749 875M1779 772L1767 803M1909 748L1958 792M1909 748L1959 828M1958 792L1866 859M1958 792L1959 828M1958 792L2025 829M2073 775L2115 728M2073 775L2025 829M2073 775L2130 831M2115 728L2176 726M2176 726L2190 818M2297 784L2375 737M2297 784L2190 818M2297 784L2262 836M2297 784L2349 864M2375 737L2429 743M2560 760L2619 810M2560 760L2520 856M-0 760L59 810M59 810L91 801M59 810L-9 883M2619 810L2551 883M91 801L161 847M161 847L117 932M161 847L187 898M305 834L379 848M305 834L302 931M305 834L324 889M379 848L409 807M379 848L324 889M379 848L430 902M409 807L483 844M483 844L568 836M483 844L430 902M483 844L498 910M568 836L680 858M568 836L564 932M680 858L789 837M680 858L674 903M680 858L754 891M789 837L857 868M789 837L754 891M789 837L853 920M857 868L893 808M857 868L853 920M857 868L958 882M893 808L958 882M991 865L958 882M991 865L1014 920M1081 802L1124 861M1081 802L1133 902M1124 861L1077 958M1124 861L1133 902M1243 863L1351 853M1243 863L1226 928M1243 863L1311 897M1351 853L1422 810M1351 853L1311 897M1351 853L1385 936M1422 810L1475 878M1475 878L1385 936M1475 878L1508 960M1475 878L1531 925M1598 852L1643 826M1598 852L1531 925M1598 852L1649 934M1643 826L1649 934M1749 875L1767 803M1749 875L1710 932M1749 875L1826 925M1767 803L1866 859M1866 859L1959 828M1866 859L1826 925M1866 859L1851 951M1959 828L2025 829M1959 828L2014 890M2025 829L2130 831M2025 829L2014 890M2130 831L2190 818M2130 831L2107 911M2190 818L2262 836M2190 818L2255 907M2262 836L2255 907M2349 864L2421 860M2349 864L2255 907M2349 864L2363 880M2349 864L2437 909M2421 860L2520 856M2421 860L2363 880M2421 860L2437 909M2520 856L2437 909M2520 856L2551 883M17 951L117 932M17 951L-9 883M17 951L70 1029M17 951L91 964M2577 951L2551 883M117 932L187 898M117 932L70 1029M117 932L91 964M187 898L91 964M302 931L324 889M302 931L217 1013M302 931L298 962M324 889L430 902M324 889L298 962M430 902L498 910M498 910L564 932M498 910L469 990M498 910L518 995M564 932L518 995M564 932L574 1022M674 903L754 891M674 903L669 994M853 920L772 992M853 920L936 989M958 882L1014 920M1014 920L1077 958M1014 920L936 989M1014 920L1100 985M1077 958L1133 902M1077 958L1100 985M1077 958L1178 1029M1133 902L1226 928M1133 902L1100 985M1226 928L1311 897M1226 928L1245 983M1226 928L1284 1016M1311 897L1385 936M1311 897L1245 983M1385 936L1388 1000M1385 936L1458 997M1508 960L1531 925M1508 960L1458 997M1508 960L1525 995M1508 960L1493 1043M1531 925L1525 995M1649 934L1710 932M1649 934L1675 1010M1649 934L1707 1005M1710 932L1675 1010M1710 932L1707 1005M1710 932L1788 978M1826 925L1851 951M1826 925L1788 978M1826 925L1857 1034M1851 951L1961 960M1851 951L1788 978M1851 951L1857 1034M1961 960L2014 890M1961 960L1988 1002M1961 960L2049 1015M2014 890L2107 911M2014 890L1988 1002M2107 911L2215 943M2107 911L2118 994M2215 943L2255 907M2215 943L2223 1002M2255 907L2223 1002M2363 880L2437 909M2363 880L2357 1006M2437 909L2459 960M70 1029L91 964M70 1029L22 1098M70 1029L131 1095M217 1013L298 962M217 1013L205 1092M217 1013L301 1096M298 962L394 996M298 962L356 1056M394 996L469 990M394 996L356 1056M394 996L403 1049M469 990L518 995M469 990L574 1022M469 990L403 1049M518 995L574 1022M574 1022L669 994M574 1022L624 1115M669 994L772 992M669 994L697 1043M772 992L873 1038M772 992L697 1043M772 992L801 1041M873 1038L936 989M873 1038L962 1021M873 1038L801 1041M936 989L962 1021M962 1021L958 1107M1100 985L1178 1029M1100 985L1170 1071M1178 1029L1245 983M1178 1029L1170 1071M1245 983L1284 1016M1245 983L1170 1071M1284 1016L1388 1000M1284 1016L1323 1082M1388 1000L1458 997M1388 1000L1323 1082M1388 1000L1424 1110M1458 997L1525 995M1458 997L1493 1043M1525 995L1493 1043M1525 995L1567 1096M1675 1010L1707 1005M1675 1010L1660 1062M1707 1005L1660 1062M1707 1005L1764 1064M1788 978L1857 1034M1788 978L1764 1064M1857 1034L1764 1064M1857 1034L1861 1084M1988 1002L2049 1015M1988 1002L1949 1091M2049 1015L2118 994M2049 1015L2022 1105M2049 1015L2102 1071M2118 994L2102 1071M2118 994L2179 1063M2223 1002L2306 1035M2223 1002L2179 1063M2223 1002L2273 1058M2306 1035L2357 1006M2306 1035L2273 1058M2306 1035L2348 1070M2306 1035L2258 1137M2357 1006L2459 960M2357 1006L2273 1058M2357 1006L2348 1070M2459 960L2483 1028M2459 960L2478 1063M2459 960L2487 1057M2483 1028L2478 1063M2483 1028L2487 1057M22 1098L131 1095M22 1098L29 1180M22 1098L85 1154M131 1095L205 1092M131 1095L85 1154M131 1095L177 1179M205 1092L301 1096M205 1092L177 1179M205 1092L284 1164M301 1096L356 1056M301 1096L284 1164M356 1056L403 1049M515 1116L477 1144M515 1116L546 1141M515 1116L479 1202M624 1115L697 1043M624 1115L546 1141M624 1115L606 1164M624 1115L694 1149M697 1043L801 1041M783 1108L801 1041M783 1108L694 1149M783 1108L779 1156M783 1108L822 1159M801 1041L779 1156M958 1107L1031 1096M958 1107L1057 1110M958 1107L942 1139M958 1107L993 1125M1031 1096L1057 1110M1031 1096L942 1139M1031 1096L993 1125M1031 1096L1053 1160M1057 1110L942 1139M1057 1110L993 1125M1057 1110L1053 1160M1170 1071L1243 1146M1265 1120L1323 1082M1265 1120L1243 1146M1265 1120L1314 1121M1323 1082L1314 1121M1323 1082L1373 1135M1424 1110L1493 1043M1424 1110L1314 1121M1424 1110L1373 1135M1424 1110L1445 1191M1493 1043L1567 1096M1567 1096L1660 1062M1567 1096L1592 1159M1567 1096L1628 1167M1660 1062L1699 1127M1746 1118L1764 1064M1746 1118L1699 1127M1746 1118L1803 1187M1764 1064L1699 1127M1861 1084L1949 1091M1861 1084L1904 1180M1861 1084L1937 1127M1949 1091L2022 1105M1949 1091L1937 1127M1949 1091L2025 1137M2022 1105L2102 1071M2022 1105L1937 1127M2022 1105L2025 1137M2102 1071L2179 1063M2102 1071L2101 1169M2273 1058L2348 1070M2273 1058L2258 1137M2348 1070L2374 1166M2478 1063L2487 1057M2478 1063L2446 1135M2487 1057L2446 1135M29 1180L85 1154M29 1180L-35 1183M29 1180L18 1213M2589 1180L2525 1183M85 1154L18 1213M85 1154L135 1219M177 1179L135 1219M177 1179L212 1266M284 1164L384 1173M284 1164L319 1262M284 1164L335 1214M384 1173L477 1144M384 1173L319 1262M384 1173L335 1214M384 1173L479 1202M477 1144L546 1141M477 1144L479 1202M546 1141L606 1164M606 1164L551 1240M606 1164L661 1210M694 1149L779 1156M694 1149L661 1210M694 1149L747 1209M779 1156L822 1159M779 1156L747 1209M822 1159L747 1209M822 1159L878 1233M942 1139L993 1125M942 1139L878 1233M993 1125L1053 1160M1053 1160L1009 1222M1053 1160L1095 1243M1148 1186L1243 1146M1148 1186L1095 1243M1148 1186L1138 1217M1148 1186L1228 1227M1243 1146L1314 1121M1243 1146L1228 1227M1314 1121L1373 1135M1373 1135L1445 1191M1445 1191L1351 1264M1445 1191L1433 1236M1445 1191L1457 1253M1592 1159L1628 1167M1592 1159L1597 1255M1592 1159L1620 1248M1592 1159L1611 1283M1628 1167L1699 1127M1628 1167L1597 1255M1628 1167L1620 1248M1803 1187L1904 1180M1803 1187L1737 1261M1803 1187L1826 1217M1803 1187L1850 1205M1904 1180L1937 1127M1904 1180L1826 1217M1904 1180L1850 1205M1937 1127L2025 1137M2025 1137L2101 1169M2025 1137L2048 1214M2101 1169L2180 1198M2101 1169L2048 1214M2101 1169L2155 1228M2180 1198L2258 1137M2180 1198L2155 1228M2180 1198L2185 1233M2258 1137L2374 1166M2258 1137L2301 1210M2374 1166L2446 1135M2374 1166L2301 1210M2374 1166L2393 1269M2446 1135L2525 1183M2446 1135L2471 1219M2525 1183L2578 1213M2525 1183L2471 1219M2525 1183L2533 1266M-35 1183L18 1213M18 1213L-27 1266M2578 1213L2533 1266M135 1219L212 1266M135 1219L119 1281M212 1266L119 1281M212 1266L175 1337M212 1266L246 1327M319 1262L335 1214M319 1262L246 1327M319 1262L355 1348M479 1202L551 1240M551 1240L599 1278M551 1240L486 1310M551 1240L614 1301M599 1278L661 1210M599 1278L486 1310M599 1278L614 1301M599 1278L702 1336M661 1210L747 1209M661 1210L614 1301M747 1209L743 1301M878 1233L913 1254M878 1233L804 1333M913 1254L1009 1222M913 1254L952 1327M1009 1222L1095 1243M1095 1243L1138 1217M1095 1243L1072 1320M1138 1217L1228 1227M1228 1227L1214 1345M1351 1264L1433 1236M1351 1264L1457 1253M1351 1264L1350 1318M1433 1236L1457 1253M1433 1236L1350 1318M1457 1253L1508 1333M1597 1255L1620 1248M1597 1255L1585 1315M1597 1255L1611 1283M1620 1248L1585 1315M1620 1248L1611 1283M1737 1261L1826 1217M1737 1261L1686 1346M1737 1261L1782 1338M1737 1261L1733 1363M1826 1217L1850 1205M1983 1243L2048 1214M1983 1243L1896 1310M1983 1243L1991 1282M1983 1243L2026 1289M2048 1214L1991 1282M2048 1214L2026 1289M2155 1228L2185 1233M2155 1228L2092 1322M2155 1228L2229 1299M2185 1233L2229 1299M2301 1210L2324 1286M2393 1269L2319 1318M2393 1269L2324 1286M2393 1269L2464 1294M2471 1219L2533 1266M2471 1219L2464 1294M2471 1219L2498 1308M2533 1266L2464 1294M2533 1266L2498 1308M29 1327L119 1281M29 1327L51 1431M119 1281L175 1337M175 1337L246 1327M175 1337L110 1407M175 1337L183 1402M246 1327L183 1402M355 1348L436 1324M355 1348L352 1382M436 1324L486 1310M436 1324L352 1382M436 1324L434 1390M486 1310L434 1390M486 1310L545 1406M614 1301L702 1336M614 1301L614 1420M702 1336L743 1301M702 1336L804 1333M702 1336L698 1440M743 1301L804 1333M743 1301L799 1374M804 1333L799 1374M952 1327L972 1339M952 1327L960 1382M952 1327L1003 1385M972 1339L1072 1320M972 1339L960 1382M972 1339L1003 1385M972 1339L1056 1379M1072 1320L1142 1356M1072 1320L1003 1385M1072 1320L1056 1379M1142 1356L1214 1345M1142 1356L1056 1379M1142 1356L1153 1386M1214 1345L1153 1386M1214 1345L1260 1385M1350 1318L1415 1340M1350 1318L1260 1385M1350 1318L1358 1393M1415 1340L1508 1333M1415 1340L1358 1393M1415 1340L1424 1397M1415 1340L1481 1403M1508 1333L1585 1315M1508 1333L1481 1403M1508 1333L1547 1405M1585 1315L1611 1283M1611 1283L1686 1346M1686 1346L1782 1338M1686 1346L1621 1438M1686 1346L1733 1363M1782 1338L1733 1363M1782 1338L1803 1419M1782 1338L1866 1380M1896 1310L1991 1282M1896 1310L1866 1380M1896 1310L1927 1386M1991 1282L2026 1289M1991 1282L2092 1322M2026 1289L2092 1322M2026 1289L2013 1396M2092 1322L2013 1396M2092 1322L2152 1361M2229 1299L2319 1318M2229 1299L2324 1286M2229 1299L2152 1361M2319 1318L2324 1286M2319 1318L2303 1406M2319 1318L2352 1372M2324 1286L2352 1372M2464 1294L2498 1308M2498 1308L2437 1391M2498 1308L2504 1388M51 1431L110 1407M51 1431L-56 1388M2611 1431L2504 1388M110 1407L183 1402M278 1438L352 1382M352 1382L434 1390M545 1406L614 1420M614 1420L698 1440M799 1374L877 1407M877 1407L960 1382M960 1382L1003 1385M1003 1385L1056 1379M1153 1386L1260 1385M1260 1385L1358 1393M1358 1393L1424 1397M1424 1397L1481 1403M1481 1403L1547 1405M1547 1405L1621 1438M1733 1363L1803 1419M1803 1419L1866 1380M1866 1380L1927 1386M1927 1386L2013 1396M2152 1361L2202 1424M2202 1424L2303 1406M2303 1406L2352 1372M2352 1372L2437 1391M2437 1391L2504 1388"/></svg>