<svg xmlns="http://www.w3.org/2000/svg" width="2560" height="1440" fill="#fff"><circle cx="72" cy="69" r="5"/><circle cx="96" cy="6" r="4"/><circle cx="179" cy="36" r="5"/><circle cx="296" cy="43" r="5"/><circle cx="390" cy="1" r="4"/><circle cx="390" cy="1441" r="4"/><circle cx="459" cy="55" r="5"/><circle cx="529" cy="76" r="4"/><circle cx="584" cy="7" r="5"/><circle cx="686" cy="4" r="5"/><circle cx="686" cy="1444" r="5"/><circle cx="772" cy="37" r="4"/><circle cx="845" cy="4" r="5"/><circle cx="845" cy="1444" r="5"/><circle cx="916" cy="32" r="6"/><circle cx="1014" cy="50" r="5"/><circle cx="1099" cy="53" r="5"/><circle cx="1173" cy="34" r="5"/><circle cx="1239" cy="74" r="5"/><circle cx="1317" cy="30" r="5"/><circle cx="1415" cy="2" r="4"/><circle cx="1415" cy="1442" r="4"/><circle cx="1440" cy="53" r="6"/><circle cx="1533" cy="36" r="5"/><circle cx="1657" cy="39" r="4"/><circle cx="1709" cy="35" r="5"/><circle cx="1802" cy="77" r="6"/><circle cx="1915" cy="58" r="6"/><circle cx="1929" cy="18" r="5"/><circle cx="2047" cy="27" r="4"/><circle cx="2116" cy="70" r="6"/><circle cx="2216" cy="75" r="5"/><circle cx="2299" cy="45" r="5"/><circle cx="2345" cy="10" r="6"/><circle cx="2465" cy="66" r="6"/><circle cx="2536" cy="54" r="5"/><circle cx="2" cy="137" r="5"/><circle cx="2562" cy="137" r="5"/><circle cx="83" cy="148" r="6"/><circle cx="206" cy="120" r="6"/><circle cx="301" cy="98" r="5"/><circle cx="353" cy="158" r="6"/><circle cx="414" cy="151" r="6"/><circle cx="529" cy="133" r="5"/><circle cx="598" cy="155" r="5"/><circle cx="714" cy="126" r="5"/><circle cx="749" cy="119" r="4"/><circle cx="866" cy="141" r="5"/><circle cx="948" cy="99" r="4"/><circle cx="990" cy="153" r="5"/><circle cx="1079" cy="158" r="4"/><circle cx="1155" cy="85" r="5"/><circle cx="1203" cy="81" r="5"/><circle cx="1312" cy="96" r="5"/><circle cx="1371" cy="126" r="4"/><circle cx="1516" cy="110" r="6"/><circle cx="1559" cy="143" r="5"/><circle cx="1648" cy="149" r="5"/><circle cx="1690" cy="116" r="5"/><circle cx="1797" cy="131" r="5"/><circle cx="1873" cy="151" r="5"/><circle cx="1958" cy="120" r="6"/><circle cx="2009" cy="120" r="5"/><circle cx="2145" cy="129" r="5"/><circle cx="2195" cy="89" r="6"/><circle cx="2257" cy="82" r="4"/><circle cx="2399" cy="115" r="4"/><circle cx="2459" cy="151" r="5"/><circle cx="2551" cy="121" r="5"/><circle cx="56" cy="225" r="5"/><circle cx="124" cy="187" r="6"/><circle cx="188" cy="163" r="5"/><circle cx="289" cy="161" r="6"/><circle cx="323" cy="204" r="6"/><circle cx="473" cy="178" r="4"/><circle cx="499" cy="210" r="5"/><circle cx="589" cy="234" r="5"/><circle cx="652" cy="200" r="5"/><circle cx="784" cy="181" r="5"/><circle cx="833" cy="202" r="6"/><circle cx="904" cy="179" r="5"/><circle cx="1028" cy="195" r="4"/><circle cx="1066" cy="171" r="4"/><circle cx="1128" cy="194" r="4"/><circle cx="1252" cy="168" r="6"/><circle cx="1280" cy="190" r="5"/><circle cx="1397" cy="219" r="5"/><circle cx="1495" cy="225" r="4"/><circle cx="1599" cy="221" r="5"/><circle cx="1614" cy="188" r="5"/><circle cx="1723" cy="171" r="5"/><circle cx="1829" cy="181" r="5"/><circle cx="1863" cy="232" r="5"/><circle cx="1934" cy="237" r="5"/><circle cx="2012" cy="219" r="4"/><circle cx="2088" cy="234" r="5"/><circle cx="2224" cy="223" r="4"/><circle cx="2248" cy="205" r="5"/><circle cx="2390" cy="175" r="5"/><circle cx="2406" cy="202" r="4"/><circle cx="2549" cy="218" r="5"/><circle cx="38" cy="314" r="6"/><circle cx="149" cy="272" r="5"/><circle cx="224" cy="301" r="6"/><circle cx="302" cy="256" r="6"/><circle cx="363" cy="299" r="4"/><circle cx="408" cy="299" r="4"/><circle cx="532" cy="294" r="6"/><circle cx="570" cy="252" r="6"/><circle cx="710" cy="278" r="4"/><circle cx="784" cy="249" r="4"/><circle cx="846" cy="253" r="5"/><circle cx="922" cy="283" r="5"/><circle cx="1040" cy="313" r="5"/><circle cx="1057" cy="275" r="5"/><circle cx="1121" cy="291" r="5"/><circle cx="1245" cy="260" r="5"/><circle cx="1314" cy="268" r="6"/><circle cx="1390" cy="318" r="5"/><circle cx="1504" cy="304" r="5"/><circle cx="1537" cy="300" r="5"/><circle cx="1644" cy="262" r="6"/><circle cx="1694" cy="292" r="5"/><circle cx="1779" cy="297" r="5"/><circle cx="1903" cy="310" r="5"/><circle cx="1937" cy="307" r="5"/><circle cx="2022" cy="290" r="4"/><circle cx="2145" cy="307" r="5"/><circle cx="2198" cy="304" r="4"/><circle cx="2257" cy="299" r="6"/><circle cx="2357" cy="271" r="6"/><circle cx="2442" cy="257" r="4"/><circle cx="2520" cy="287" r="6"/><circle cx="3" cy="323" r="4"/><circle cx="2563" cy="323" r="4"/><circle cx="137" cy="397" r="4"/><circle cx="231" cy="372" r="4"/><circle cx="313" cy="369" r="5"/><circle cx="355" cy="397" r="6"/><circle cx="467" cy="333" r="4"/><circle cx="543" cy="342" r="5"/><circle cx="630" cy="339" r="4"/><circle cx="644" cy="374" r="6"/><circle cx="729" cy="324" r="4"/><circle cx="826" cy="352" r="5"/><circle cx="893" cy="370" r="5"/><circle cx="1012" cy="353" r="4"/><circle cx="1045" cy="396" r="4"/><circle cx="1125" cy="383" r="4"/><circle cx="1258" cy="385" r="5"/><circle cx="1305" cy="383" r="5"/><circle cx="1382" cy="326" r="4"/><circle cx="1511" cy="331" r="5"/><circle cx="1551" cy="390" r="4"/><circle cx="1614" cy="358" r="4"/><circle cx="1720" cy="372" r="5"/><circle cx="1787" cy="351" r="6"/><circle cx="1918" cy="356" r="5"/><circle cx="1927" cy="384" r="5"/><circle cx="2025" cy="344" r="4"/><circle cx="2108" cy="379" r="5"/><circle cx="2204" cy="351" r="5"/><circle cx="2241" cy="343" r="4"/><circle cx="2398" cy="371" r="4"/><circle cx="2467" cy="321" r="4"/><circle cx="2523" cy="338" r="5"/><circle cx="27" cy="418" r="5"/><circle cx="157" cy="459" r="5"/><circle cx="168" cy="473" r="6"/><circle cx="318" cy="411" r="6"/><circle cx="384" cy="421" r="5"/><circle cx="455" cy="413" r="5"/><circle cx="552" cy="462" r="5"/><circle cx="602" cy="404" r="5"/><circle cx="686" cy="411" r="5"/><circle cx="788" cy="456" r="4"/><circle cx="851" cy="474" r="5"/><circle cx="904" cy="431" r="6"/><circle cx="963" cy="472" r="5"/><circle cx="1119" cy="427" r="5"/><circle cx="1167" cy="412" r="6"/><circle cx="1208" cy="477" r="5"/><circle cx="1360" cy="438" r="4"/><circle cx="1391" cy="457" r="5"/><circle cx="1451" cy="402" r="5"/><circle cx="1567" cy="428" r="6"/><circle cx="1623" cy="433" r="5"/><circle cx="1710" cy="462" r="5"/><circle cx="1802" cy="477" r="6"/><circle cx="1909" cy="452" r="5"/><circle cx="1939" cy="473" r="5"/><circle cx="2052" cy="418" r="4"/><circle cx="2137" cy="442" r="4"/><circle cx="2182" cy="411" r="4"/><circle cx="2262" cy="416" r="4"/><circle cx="2376" cy="404" r="5"/><circle cx="2429" cy="408" r="5"/><circle cx="2537" cy="412" r="6"/><circle cx="47" cy="517" r="6"/><circle cx="112" cy="525" r="4"/><circle cx="163" cy="519" r="4"/><circle cx="282" cy="548" r="4"/><circle cx="397" cy="532" r="4"/><circle cx="451" cy="539" r="5"/><circle cx="536" cy="512" r="4"/><circle cx="611" cy="543" r="6"/><circle cx="715" cy="542" r="5"/><circle cx="731" cy="546" r="5"/><circle cx="860" cy="538" r="5"/><circle cx="882" cy="526" r="5"/><circle cx="980" cy="498" r="5"/><circle cx="1085" cy="515" r="6"/><circle cx="1160" cy="501" r="6"/><circle cx="1270" cy="505" r="6"/><circle cx="1302" cy="535" r="5"/><circle cx="1407" cy="515" r="5"/><circle cx="1503" cy="537" r="5"/><circle cx="1588" cy="507" r="5"/><circle cx="1602" cy="507" r="5"/><circle cx="1744" cy="512" r="4"/><circle cx="1786" cy="528" r="5"/><circle cx="1865" cy="560" r="6"/><circle cx="1992" cy="508" r="4"/><circle cx="2015" cy="503" r="5"/><circle cx="2129" cy="526" r="6"/><circle cx="2198" cy="535" r="4"/><circle cx="2273" cy="524" r="5"/><circle cx="2349" cy="551" r="5"/><circle cx="2420" cy="513" r="5"/><circle cx="2510" cy="533" r="4"/><circle cx="37" cy="571" r="5"/><circle cx="91" cy="611" r="5"/><circle cx="202" cy="629" r="6"/><circle cx="250" cy="584" r="6"/><circle cx="361" cy="624" r="4"/><circle cx="476" cy="599" r="5"/><circle cx="554" cy="635" r="5"/><circle cx="625" cy="568" r="4"/><circle cx="696" cy="573" r="5"/><circle cx="800" cy="584" r="5"/><circle cx="844" cy="608" r="5"/><circle cx="888" cy="625" r="6"/><circle cx="987" cy="593" r="6"/><circle cx="1064" cy="629" r="5"/><circle cx="1152" cy="639" r="4"/><circle cx="1207" cy="621" r="4"/><circle cx="1357" cy="632" r="6"/><circle cx="1388" cy="613" r="5"/><circle cx="1450" cy="627" r="5"/><circle cx="1557" cy="579" r="5"/><circle cx="1615" cy="609" r="5"/><circle cx="1684" cy="592" r="5"/><circle cx="1814" cy="623" r="5"/><circle cx="1914" cy="601" r="6"/><circle cx="1992" cy="605" r="6"/><circle cx="2048" cy="569" r="6"/><circle cx="2144" cy="617" r="5"/><circle cx="2173" cy="568" r="6"/><circle cx="2306" cy="578" r="6"/><circle cx="2393" cy="613" r="6"/><circle cx="2449" cy="568" r="5"/><circle cx="2527" cy="623" r="6"/><circle cx="78" cy="655" r="6"/><circle cx="158" cy="641" r="4"/><circle cx="224" cy="676" r="6"/><circle cx="314" cy="660" r="4"/><circle cx="394" cy="699" r="5"/><circle cx="477" cy="688" r="5"/><circle cx="496" cy="646" r="6"/><circle cx="566" cy="683" r="6"/><circle cx="680" cy="693" r="5"/><circle cx="747" cy="679" r="6"/><circle cx="841" cy="684" r="5"/><circle cx="914" cy="702" r="4"/><circle cx="1028" cy="693" r="5"/><circle cx="1095" cy="679" r="4"/><circle cx="1175" cy="648" r="5"/><circle cx="1279" cy="698" r="5"/><circle cx="1327" cy="703" r="5"/><circle cx="1391" cy="643" r="6"/><circle cx="1515" cy="715" r="5"/><circle cx="1589" cy="650" r="4"/><circle cx="1669" cy="640" r="6"/><circle cx="1685" cy="680" r="6"/><circle cx="1807" cy="693" r="5"/><circle cx="1880" cy="698" r="4"/><circle cx="1940" cy="675" r="6"/><circle cx="2043" cy="661" r="6"/><circle cx="2112" cy="692" r="4"/><circle cx="2202" cy="688" r="4"/><circle cx="2282" cy="718" r="6"/><circle cx="2344" cy="655" r="4"/><circle cx="2474" cy="698" r="5"/><circle cx="2496" cy="671" r="6"/><circle cx="66" cy="783" r="6"/><circle cx="121" cy="788" r="5"/><circle cx="220" cy="776" r="5"/><circle cx="310" cy="795" r="6"/><circle cx="353" cy="725" r="5"/><circle cx="473" cy="764" r="4"/><circle cx="558" cy="736" r="5"/><circle cx="599" cy="800" r="5"/><circle cx="694" cy="757" r="4"/><circle cx="800" cy="732" r="6"/><circle cx="832" cy="737" r="5"/><circle cx="888" cy="725" r="5"/><circle cx="1015" cy="755" r="4"/><circle cx="1101" cy="753" r="6"/><circle cx="1128" cy="726" r="5"/><circle cx="1219" cy="750" r="5"/><circle cx="1344" cy="728" r="6"/><circle cx="1439" cy="727" r="6"/><circle cx="1477" cy="725" r="5"/><circle cx="1540" cy="746" r="5"/><circle cx="1607" cy="746" r="4"/><circle cx="1751" cy="741" r="5"/><circle cx="1815" cy="758" r="5"/><circle cx="1884" cy="763" r="5"/><circle cx="1968" cy="769" r="5"/><circle cx="2076" cy="771" r="5"/><circle cx="2116" cy="782" r="5"/><circle cx="2212" cy="764" r="5"/><circle cx="2243" cy="772" r="5"/><circle cx="2324" cy="765" r="4"/><circle cx="2414" cy="749" r="6"/><circle cx="2541" cy="744" r="6"/><circle cx="68" cy="856" r="5"/><circle cx="143" cy="861" r="4"/><circle cx="164" cy="832" r="4"/><circle cx="308" cy="820" r="5"/><circle cx="333" cy="830" r="5"/><circle cx="412" cy="874" r="5"/><circle cx="545" cy="838" r="5"/><circle cx="633" cy="857" r="4"/><circle cx="683" cy="877" r="5"/><circle cx="745" cy="880" r="5"/><circle cx="829" cy="807" r="5"/><circle cx="931" cy="831" r="5"/><circle cx="1029" cy="854" r="5"/><circle cx="1043" cy="801" r="5"/><circle cx="1176" cy="831" r="5"/><circle cx="1232" cy="859" r="5"/><circle cx="1340" cy="837" r="4"/><circle cx="1365" cy="853" r="4"/><circle cx="1467" cy="858" r="6"/><circle cx="1565" cy="871" r="6"/><circle cx="1629" cy="870" r="4"/><circle cx="1753" cy="814" r="5"/><circle cx="1771" cy="872" r="5"/><circle cx="1884" cy="817" r="5"/><circle cx="1969" cy="828" r="5"/><circle cx="2068" cy="843" r="5"/><circle cx="2133" cy="805" r="6"/><circle cx="2216" cy="856" r="4"/><circle cx="2320" cy="800" r="5"/><circle cx="2323" cy="863" r="6"/><circle cx="2437" cy="821" r="5"/><circle cx="2545" cy="803" r="6"/><circle cx="76" cy="914" r="6"/><circle cx="104" cy="944" r="5"/><circle cx="229" cy="949" r="5"/><circle cx="273" cy="893" r="5"/><circle cx="344" cy="892" r="4"/><circle cx="426" cy="958" r="5"/><circle cx="489" cy="927" r="5"/><circle cx="627" cy="902" r="6"/><circle cx="693" cy="942" r="5"/><circle cx="767" cy="892" r="5"/><circle cx="866" cy="923" r="5"/><circle cx="927" cy="905" r="5"/><circle cx="967" cy="921" r="6"/><circle cx="1057" cy="882" r="5"/><circle cx="1180" cy="881" r="5"/><circle cx="1222" cy="940" r="4"/><circle cx="1330" cy="892" r="4"/><circle cx="1368" cy="959" r="6"/><circle cx="1443" cy="924" r="6"/><circle cx="1582" cy="943" r="4"/><circle cx="1635" cy="940" r="4"/><circle cx="1727" cy="914" r="6"/><circle cx="1772" cy="882" r="5"/><circle cx="1870" cy="953" r="4"/><circle cx="1952" cy="955" r="4"/><circle cx="2010" cy="901" r="4"/><circle cx="2138" cy="939" r="4"/><circle cx="2229" cy="891" r="4"/><circle cx="2303" cy="884" r="6"/><circle cx="2328" cy="928" r="6"/><circle cx="2433" cy="949" r="5"/><circle cx="2482" cy="946" r="4"/><circle cx="22" cy="1000" r="5"/><circle cx="109" cy="961" r="5"/><circle cx="165" cy="991" r="6"/><circle cx="268" cy="1011" r="6"/><circle cx="347" cy="977" r="4"/><circle cx="457" cy="993" r="6"/><circle cx="501" cy="996" r="4"/><circle cx="633" cy="965" r="4"/><circle cx="683" cy="970" r="6"/><circle cx="792" cy="998" r="5"/><circle cx="821" cy="1004" r="5"/><circle cx="898" cy="1028" r="5"/><circle cx="974" cy="998" r="4"/><circle cx="1113" cy="962" r="5"/><circle cx="1148" cy="985" r="6"/><circle cx="1242" cy="1026" r="5"/><circle cx="1325" cy="981" r="5"/><circle cx="1412" cy="997" r="5"/><circle cx="1442" cy="1038" r="6"/><circle cx="1527" cy="995" r="5"/><circle cx="1620" cy="973" r="5"/><circle cx="1733" cy="961" r="4"/><circle cx="1780" cy="994" r="4"/><circle cx="1843" cy="1039" r="6"/><circle cx="2000" cy="980" r="6"/><circle cx="2045" cy="1038" r="6"/><circle cx="2103" cy="1005" r="5"/><circle cx="2184" cy="969" r="6"/><circle cx="2271" cy="999" r="4"/><circle cx="2344" cy="1030" r="5"/><circle cx="2413" cy="1001" r="6"/><circle cx="2515" cy="984" r="4"/><circle cx="78" cy="1079" r="6"/><circle cx="141" cy="1099" r="4"/><circle cx="204" cy="1088" r="6"/><circle cx="317" cy="1103" r="5"/><circle cx="321" cy="1099" r="5"/><circle cx="421" cy="1104" r="5"/><circle cx="487" cy="1075" r="5"/><circle cx="564" cy="1044" r="5"/><circle cx="645" cy="1112" r="5"/><circle cx="752" cy="1062" r="5"/><circle cx="858" cy="1102" r="4"/><circle cx="938" cy="1088" r="5"/><circle cx="961" cy="1110" r="6"/><circle cx="1105" cy="1118" r="6"/><circle cx="1162" cy="1069" r="4"/><circle cx="1277" cy="1082" r="5"/><circle cx="1292" cy="1110" r="5"/><circle cx="1422" cy="1076" r="5"/><circle cx="1505" cy="1115" r="6"/><circle cx="1552" cy="1113" r="4"/><circle cx="1660" cy="1110" r="5"/><circle cx="1683" cy="1070" r="6"/><circle cx="1771" cy="1111" r="6"/><circle cx="1917" cy="1085" r="5"/><circle cx="1933" cy="1101" r="6"/><circle cx="2079" cy="1041" r="5"/><circle cx="2083" cy="1040" r="6"/><circle cx="2187" cy="1083" r="4"/><circle cx="2256" cy="1048" r="6"/><circle cx="2382" cy="1106" r="5"/><circle cx="2436" cy="1102" r="6"/><circle cx="2508" cy="1094" r="5"/><circle cx="50" cy="1120" r="6"/><circle cx="157" cy="1132" r="5"/><circle cx="205" cy="1165" r="5"/><circle cx="277" cy="1180" r="6"/><circle cx="345" cy="1145" r="6"/><circle cx="404" cy="1148" r="6"/><circle cx="545" cy="1139" r="4"/><circle cx="567" cy="1130" r="6"/><circle cx="654" cy="1188" r="5"/><circle cx="788" cy="1183" r="5"/><circle cx="851" cy="1155" r="6"/><circle cx="920" cy="1139" r="6"/><circle cx="995" cy="1170" r="5"/><circle cx="1069" cy="1199" r="5"/><circle cx="1148" cy="1179" r="4"/><circle cx="1273" cy="1149" r="4"/><circle cx="1355" cy="1184" r="5"/><circle cx="1430" cy="1161" r="5"/><circle cx="1449" cy="1137" r="5"/><circle cx="1532" cy="1183" r="5"/><circle cx="1658" cy="1137" r="5"/><circle cx="1736" cy="1198" r="4"/><circle cx="1771" cy="1123" r="6"/><circle cx="1869" cy="1168" r="5"/><circle cx="1943" cy="1135" r="4"/><circle cx="2056" cy="1130" r="5"/><circle cx="2105" cy="1124" r="4"/><circle cx="2213" cy="1168" r="6"/><circle cx="2298" cy="1144" r="5"/><circle cx="2344" cy="1167" r="5"/><circle cx="2402" cy="1176" r="6"/><circle cx="2497" cy="1176" r="6"/><circle cx="28" cy="1261" r="5"/><circle cx="98" cy="1252" r="5"/><circle cx="216" cy="1253" r="5"/><circle cx="251" cy="1219" r="5"/><circle cx="322" cy="1242" r="5"/><circle cx="418" cy="1263" r="6"/><circle cx="491" cy="1226" r="4"/><circle cx="597" cy="1260" r="5"/><circle cx="641" cy="1247" r="5"/><circle cx="732" cy="1211" r="5"/><circle cx="845" cy="1239" r="5"/><circle cx="901" cy="1260" r="5"/><circle cx="1005" cy="1205" r="4"/><circle cx="1112" cy="1274" r="6"/><circle cx="1187" cy="1239" r="5"/><circle cx="1249" cy="1275" r="4"/><circle cx="1348" cy="1265" r="5"/><circle cx="1367" cy="1251" r="5"/><circle cx="1509" cy="1212" r="4"/><circle cx="1542" cy="1270" r="4"/><circle cx="1634" cy="1247" r="6"/><circle cx="1757" cy="1280" r="5"/><circle cx="1771" cy="1255" r="4"/><circle cx="1873" cy="1276" r="5"/><circle cx="1968" cy="1265" r="6"/><circle cx="2069" cy="1227" r="5"/><circle cx="2125" cy="1272" r="5"/><circle cx="2225" cy="1244" r="4"/><circle cx="2241" cy="1280" r="6"/><circle cx="2385" cy="1277" r="4"/><circle cx="2453" cy="1246" r="6"/><circle cx="2484" cy="1231" r="5"/><circle cx="73" cy="1292" r="4"/><circle cx="111" cy="1308" r="5"/><circle cx="187" cy="1287" r="4"/><circle cx="247" cy="1281" r="4"/><circle cx="382" cy="1358" r="5"/><circle cx="417" cy="1304" r="5"/><circle cx="512" cy="1332" r="5"/><circle cx="575" cy="1292" r="4"/><circle cx="673" cy="1329" r="5"/><circle cx="723" cy="1346" r="6"/><circle cx="843" cy="1290" r="4"/><circle cx="896" cy="1302" r="6"/><circle cx="1006" cy="1335" r="5"/><circle cx="1086" cy="1322" r="4"/><circle cx="1140" cy="1341" r="4"/><circle cx="1215" cy="1352" r="5"/><circle cx="1327" cy="1359" r="4"/><circle cx="1413" cy="1302" r="4"/><circle cx="1446" cy="1322" r="5"/><circle cx="1556" cy="1333" r="5"/><circle cx="1636" cy="1281" r="6"/><circle cx="1683" cy="1357" r="5"/><circle cx="1768" cy="1313" r="4"/><circle cx="1849" cy="1308" r="4"/><circle cx="1972" cy="1299" r="5"/><circle cx="2005" cy="1282" r="6"/><circle cx="2129" cy="1307" r="4"/><circle cx="2234" cy="1353" r="5"/><circle cx="2270" cy="1352" r="5"/><circle cx="2400" cy="1329" r="5"/><circle cx="2445" cy="1336" r="5"/><circle cx="2512" cy="1288" r="5"/><circle cx="37" cy="1437" r="6"/><circle cx="37" cy="-3" r="6"/><circle cx="152" cy="1408" r="5"/><circle cx="195" cy="1384" r="5"/><circle cx="247" cy="1419" r="6"/><circle cx="352" cy="1398" r="4"/><circle cx="424" cy="1428" r="5"/><circle cx="550" cy="1398" r="6"/><circle cx="636" cy="1411" r="6"/><circle cx="694" cy="1368" r="5"/><circle cx="758" cy="1371" r="4"/><circle cx="861" cy="1375" r="5"/><circle cx="893" cy="1420" r="5"/><circle cx="968" cy="1404" r="5"/><circle cx="1101" cy="1434" r="5"/><circle cx="1158" cy="1379" r="4"/><circle cx="1206" cy="1369" r="4"/><circle cx="1357" cy="1439" r="6"/><circle cx="1357" cy="-1" r="6"/><circle cx="1395" cy="1420" r="6"/><circle cx="1507" cy="1409" r="5"/><circle cx="1554" cy="1401" r="6"/><circle cx="1609" cy="1412" r="6"/><circle cx="1711" cy="1393" r="6"/><circle cx="1802" cy="1380" r="6"/><circle cx="1874" cy="1409" r="4"/><circle cx="1969" cy="1431" r="4"/><circle cx="2072" cy="1390" r="4"/><circle cx="2153" cy="1428" r="4"/><circle cx="2208" cy="1408" r="5"/><circle cx="2319" cy="1423" r="5"/><circle cx="2387" cy="1410" r="5"/><circle cx="2440" cy="1435" r="5"/><circle cx="2440" cy="-5" r="5"/><circle cx="2532" cy="1386" r="5"/><path stroke="#fff" d="M72 69L96 6M72 69L83 148M72 69L37 -3M72 1509L37 1437M96 6L179 36M96 6L37 -3M96 6L152 -32M96 1446L37 1437M96 1446L152 1408M179 36L206 120M179 36L152 -32M179 36L195 -56M179 36L247 -21M179 1476L152 1408M179 1476L195 1384M179 1476L247 1419M296 43L390 1M296 43L301 98M296 43L247 -21M296 43L352 -42M296 1483L247 1419M296 1483L352 1398M390 1L459 55M390 1L382 -82M390 1L352 -42M390 1L424 -12M390 1441L382 1358M390 1441L352 1398M390 1441L424 1428M459 55L529 76M459 55L414 151M459 55L529 133M459 55L424 -12M459 1495L424 1428M529 76L584 7M529 76L529 133M529 76L550 -42M529 1516L550 1398M584 7L686 4M584 7L550 -42M584 7L636 -29M584 1447L550 1398M584 1447L636 1411M686 4L772 37M686 4L723 -94M686 4L636 -29M686 4L694 -72M686 1444L723 1346M686 1444L636 1411M686 1444L694 1368M772 37L845 4M772 37L714 126M772 37L749 119M772 37L758 -69M772 1477L758 1371M845 4L916 32M845 4L758 -69M845 4L861 -65M845 4L893 -20M845 1444L758 1371M845 1444L861 1375M845 1444L893 1420M916 32L1014 50M916 32L948 99M916 32L893 -20M916 32L968 -36M916 1472L893 1420M916 1472L968 1404M1014 50L1099 53M1014 50L948 99M1014 50L968 -36M1014 50L1101 -6M1014 1490L968 1404M1014 1490L1101 1434M1099 53L1173 34M1099 53L1155 85M1099 53L1203 81M1099 53L1101 -6M1099 1493L1101 1434M1173 34L1239 74M1173 34L1155 85M1173 34L1203 81M1173 34L1101 -6M1173 1474L1101 1434M1239 74L1155 85M1239 74L1203 81M1239 74L1312 96M1239 74L1252 168M1317 30L1415 2M1317 30L1312 96M1317 30L1357 -1M1317 30L1395 -20M1317 1470L1357 1439M1317 1470L1395 1420M1415 2L1440 53M1415 2L1357 -1M1415 2L1395 -20M1415 1442L1357 1439M1415 1442L1395 1420M1440 53L1533 36M1440 53L1516 110M1440 53L1357 -1M1440 53L1395 -20M1440 1493L1357 1439M1440 1493L1395 1420M1533 36L1516 110M1533 36L1507 -31M1533 36L1554 -39M1533 1476L1507 1409M1533 1476L1554 1401M1657 39L1709 35M1657 39L1690 116M1657 39L1609 -28M1657 1479L1609 1412M1709 35L1802 77M1709 35L1690 116M1709 35L1711 -47M1709 1475L1711 1393M1802 77L1797 131M1802 77L1829 181M1915 58L1929 18M1915 58L1873 151M1915 58L1958 120M1915 58L1874 -31M1915 58L1969 -9M1915 1498L1874 1409M1915 1498L1969 1431M1929 18L1958 120M1929 18L1874 -31M1929 18L1969 -9M1929 1458L1874 1409M1929 1458L1969 1431M2047 27L2116 70M2047 27L2009 120M2047 27L1969 -9M2047 27L2072 -50M2047 1467L1969 1431M2047 1467L2072 1390M2116 70L2216 75M2116 70L2145 129M2116 70L2195 89M2116 70L2153 -12M2116 1510L2153 1428M2216 75L2299 45M2216 75L2145 129M2216 75L2195 89M2216 75L2257 82M2299 45L2345 10M2299 45L2195 89M2299 45L2257 82M2299 45L2319 -17M2299 1485L2319 1423M2345 10L2270 -88M2345 10L2319 -17M2345 10L2387 -30M2345 10L2440 -5M2345 1450L2270 1352M2345 1450L2319 1423M2345 1450L2387 1410M2345 1450L2440 1435M2465 66L2536 54M2465 66L2399 115M2465 66L2459 151M2465 66L2551 121M2465 66L2440 -5M2465 1506L2440 1435M2536 54L2562 137M2536 54L2551 121M2536 54L2597 -3M-24 54L2 137M-24 54L37 -3M-24 1494L37 1437M2536 1494L2597 1437M2 137L83 148M2 137L-9 121M2 137L-11 218M2562 137L2551 121M2562 137L2549 218M83 148L-9 121M83 148L56 225M83 148L124 187M2643 148L2551 121M206 120L301 98M206 120L124 187M206 120L188 163M206 120L289 161M301 98L353 158M301 98L289 161M301 98L323 204M353 158L414 151M353 158L289 161M353 158L323 204M353 158L302 256M414 151L323 204M414 151L473 178M529 133L598 155M529 133L473 178M529 133L499 210M598 155L589 234M598 155L652 200M714 126L749 119M714 126L652 200M714 126L784 181M749 119L784 181M866 141L948 99M866 141L784 181M866 141L833 202M866 141L904 179M948 99L990 153M948 99L904 179M990 153L1079 158M990 153L904 179M990 153L1028 195M990 153L1066 171M1079 158L1028 195M1079 158L1066 171M1079 158L1128 194M1155 85L1203 81M1155 85L1101 -6M1155 1525L1101 1434M1203 81L1252 168M1312 96L1371 126M1312 96L1252 168M1371 126L1280 190M1371 126L1397 219M1516 110L1559 143M1559 143L1648 149M1559 143L1495 225M1559 143L1599 221M1559 143L1614 188M1648 149L1690 116M1648 149L1599 221M1648 149L1614 188M1648 149L1723 171M1690 116L1614 188M1690 116L1723 171M1797 131L1873 151M1797 131L1723 171M1797 131L1829 181M1873 151L1958 120M1873 151L1829 181M1873 151L1863 232M1958 120L2009 120M1958 120L1934 237M2009 120L2012 219M2145 129L2195 89M2145 129L2088 234M2195 89L2257 82M2257 82L2248 205M2399 115L2459 151M2399 115L2390 175M2399 115L2406 202M2459 151L2551 121M2459 151L2390 175M2459 151L2406 202M56 225L124 187M56 225L-11 218M56 225L38 314M2616 225L2549 218M124 187L188 163M124 187L149 272M188 163L149 272M289 161L323 204M289 161L302 256M323 204L302 256M473 178L499 210M499 210L589 234M499 210L532 294M499 210L570 252M589 234L652 200M589 234L532 294M589 234L570 252M652 200L570 252M652 200L710 278M784 181L833 202M784 181L784 249M833 202L904 179M833 202L784 249M833 202L846 253M904 179L846 253M1028 195L1066 171M1028 195L1128 194M1028 195L1057 275M1066 171L1128 194M1066 171L1057 275M1128 194L1121 291M1252 168L1280 190M1252 168L1245 260M1280 190L1245 260M1280 190L1314 268M1397 219L1495 225M1397 219L1314 268M1397 219L1390 318M1397 219L1382 326M1495 225L1504 304M1495 225L1537 300M1599 221L1614 188M1599 221L1537 300M1599 221L1644 262M1614 188L1644 262M1723 171L1829 181M1723 171L1644 262M1829 181L1863 232M1863 232L1934 237M1863 232L1903 310M1934 237L2012 219M1934 237L1903 310M1934 237L1937 307M2012 219L2088 234M2012 219L2022 290M2088 234L2022 290M2088 234L2145 307M2224 223L2248 205M2224 223L2198 304M2224 223L2257 299M2248 205L2257 299M2248 205L2357 271M2390 175L2406 202M2390 175L2357 271M2390 175L2442 257M2406 202L2357 271M2406 202L2442 257M2549 218L2520 287M38 314L-40 287M38 314L3 323M38 314L-37 338M38 314L27 418M2598 314L2520 287M2598 314L2523 338M149 272L224 301M224 301L302 256M224 301L231 372M302 256L363 299M363 299L408 299M363 299L313 369M363 299L355 397M363 299L318 411M408 299L467 333M532 294L570 252M532 294L467 333M532 294L543 342M570 252L543 342M710 278L784 249M710 278L644 374M710 278L729 324M784 249L846 253M784 249L729 324M846 253L922 283M846 253L826 352M922 283L1040 313M922 283L826 352M922 283L893 370M922 283L1012 353M1040 313L1057 275M1040 313L1121 291M1040 313L1012 353M1040 313L1045 396M1057 275L1121 291M1057 275L1012 353M1121 291L1125 383M1245 260L1314 268M1314 268L1390 318M1314 268L1382 326M1390 318L1305 383M1390 318L1382 326M1390 318L1451 402M1504 304L1537 300M1504 304L1511 331M1504 304L1451 402M1537 300L1511 331M1537 300L1551 390M1644 262L1694 292M1644 262L1614 358M1694 292L1779 297M1694 292L1614 358M1694 292L1720 372M1694 292L1787 351M1779 297L1720 372M1779 297L1787 351M1903 310L1937 307M1903 310L1918 356M1903 310L1927 384M1937 307L2022 290M1937 307L1918 356M1937 307L1927 384M2022 290L2025 344M2145 307L2198 304M2145 307L2108 379M2145 307L2204 351M2198 304L2257 299M2198 304L2204 351M2198 304L2241 343M2257 299L2204 351M2257 299L2241 343M2357 271L2442 257M2357 271L2398 371M2442 257L2467 321M2520 287L2563 323M2520 287L2467 321M2520 287L2523 338M-40 287L3 323M3 323L-37 338M3 323L27 418M3 323L-23 412M2563 323L2523 338M2563 323L2537 412M137 397L231 372M137 397L27 418M137 397L157 459M137 397L168 473M231 372L313 369M231 372L318 411M313 369L355 397M313 369L318 411M313 369L384 421M355 397L318 411M355 397L384 421M355 397L455 413M467 333L543 342M467 333L455 413M543 342L630 339M543 342L602 404M630 339L644 374M630 339L602 404M630 339L686 411M644 374L729 324M644 374L602 404M644 374L686 411M729 324L826 352M729 324L686 411M826 352L893 370M893 370L904 431M1012 353L1045 396M1045 396L1125 383M1045 396L1119 427M1125 383L1119 427M1125 383L1167 412M1258 385L1305 383M1258 385L1167 412M1258 385L1208 477M1258 385L1270 505M1305 383L1382 326M1305 383L1360 438M1305 383L1391 457M1511 331L1551 390M1511 331L1451 402M1551 390L1614 358M1551 390L1567 428M1551 390L1623 433M1614 358L1567 428M1614 358L1623 433M1720 372L1787 351M1720 372L1710 462M1918 356L1927 384M1918 356L1909 452M1927 384L1909 452M1927 384L1939 473M2025 344L2108 379M2025 344L2052 418M2108 379L2052 418M2108 379L2137 442M2108 379L2182 411M2204 351L2241 343M2204 351L2182 411M2241 343L2182 411M2241 343L2262 416M2398 371L2467 321M2398 371L2376 404M2398 371L2429 408M2467 321L2523 338M2467 321L2429 408M2523 338L2537 412M27 418L-23 412M27 418L47 517M2587 418L2537 412M157 459L168 473M157 459L112 525M157 459L163 519M168 473L112 525M168 473L163 519M318 411L384 421M384 421L455 413M384 421L397 532M455 413L552 462M552 462L602 404M552 462L451 539M552 462L536 512M552 462L611 543M602 404L686 411M686 411L788 456M788 456L851 474M788 456L715 542M788 456L731 546M851 474L904 431M851 474L963 472M851 474L860 538M851 474L882 526M904 431L963 472M904 431L882 526M904 431L980 498M963 472L980 498M1119 427L1167 412M1119 427L1085 515M1119 427L1160 501M1167 412L1208 477M1167 412L1160 501M1208 477L1160 501M1208 477L1270 505M1208 477L1302 535M1360 438L1391 457M1360 438L1451 402M1360 438L1270 505M1360 438L1407 515M1391 457L1451 402M1391 457L1302 535M1391 457L1407 515M1567 428L1623 433M1567 428L1588 507M1567 428L1602 507M1623 433L1588 507M1623 433L1602 507M1710 462L1802 477M1710 462L1744 512M1710 462L1786 528M1802 477L1909 452M1802 477L1744 512M1802 477L1786 528M1802 477L1865 560M1909 452L1939 473M1909 452L1992 508M1939 473L1865 560M1939 473L1992 508M1939 473L2015 503M2052 418L2137 442M2052 418L2015 503M2137 442L2182 411M2137 442L2129 526M2182 411L2262 416M2262 416L2376 404M2262 416L2273 524M2376 404L2429 408M2429 408L2537 412M2429 408L2420 513M47 517L112 525M47 517L-50 533M47 517L37 571M47 517L91 611M2607 517L2510 533M112 525L163 519M112 525L37 571M282 548L397 532M282 548L250 584M282 548L361 624M397 532L451 539M397 532L361 624M397 532L476 599M451 539L536 512M451 539L476 599M536 512L611 543M536 512L625 568M611 543L554 635M611 543L625 568M611 543L696 573M715 542L731 546M715 542L625 568M715 542L696 573M715 542L800 584M731 546L625 568M731 546L696 573M731 546L800 584M860 538L882 526M860 538L800 584M860 538L844 608M860 538L888 625M882 526L844 608M980 498L1085 515M980 498L987 593M1085 515L1160 501M1085 515L987 593M1085 515L1064 629M1160 501L1270 505M1270 505L1302 535M1302 535L1407 515M1407 515L1503 537M1407 515L1388 613M1503 537L1588 507M1503 537L1557 579M1588 507L1602 507M1588 507L1557 579M1602 507L1557 579M1744 512L1786 528M1744 512L1684 592M1786 528L1865 560M1786 528L1814 623M1865 560L1814 623M1865 560L1914 601M1992 508L2015 503M1992 508L1992 605M1992 508L2048 569M2015 503L2048 569M2129 526L2198 535M2129 526L2048 569M2129 526L2144 617M2129 526L2173 568M2198 535L2273 524M2198 535L2173 568M2198 535L2306 578M2273 524L2349 551M2273 524L2173 568M2273 524L2306 578M2349 551L2420 513M2349 551L2306 578M2349 551L2393 613M2349 551L2449 568M2420 513L2510 533M2420 513L2393 613M2420 513L2449 568M2510 533L2449 568M2510 533L2527 623M37 571L91 611M37 571L-33 623M37 571L78 655M2597 571L2527 623M91 611L202 629M91 611L78 655M91 611L158 641M202 629L250 584M202 629L78 655M202 629L158 641M202 629L224 676M250 584L158 641M250 584L224 676M250 584L314 660M361 624L314 660M361 624L394 699M476 599L554 635M476 599L496 646M554 635L477 688M554 635L496 646M554 635L566 683M625 568L696 573M800 584L844 608M844 608L888 625M844 608L841 684M888 625L987 593M888 625L841 684M888 625L914 702M987 593L1064 629M987 593L1028 693M1064 629L1152 639M1064 629L1028 693M1064 629L1095 679M1152 639L1207 621M1152 639L1095 679M1152 639L1175 648M1152 639L1128 726M1207 621L1175 648M1357 632L1388 613M1357 632L1450 627M1357 632L1327 703M1357 632L1391 643M1357 632L1344 728M1388 613L1450 627M1388 613L1391 643M1450 627L1391 643M1450 627L1477 725M1557 579L1615 609M1557 579L1589 650M1615 609L1684 592M1615 609L1589 650M1615 609L1669 640M1615 609L1685 680M1684 592L1669 640M1684 592L1685 680M1814 623L1914 601M1814 623L1807 693M1914 601L1992 605M1914 601L1880 698M1914 601L1940 675M1992 605L2048 569M1992 605L1940 675M1992 605L2043 661M2048 569L2043 661M2144 617L2173 568M2144 617L2043 661M2144 617L2112 692M2144 617L2202 688M2306 578L2393 613M2306 578L2344 655M2393 613L2449 568M2393 613L2344 655M2449 568L2527 623M2527 623L2474 698M2527 623L2496 671M78 655L158 641M158 641L224 676M224 676L314 660M224 676L220 776M314 660L394 699M314 660L353 725M394 699L477 688M394 699L353 725M477 688L496 646M477 688L566 683M477 688L473 764M496 646L566 683M496 646L558 736M566 683L680 693M566 683L558 736M680 693L747 679M680 693L694 757M747 679L694 757M747 679L800 732M747 679L832 737M841 684L800 732M841 684L832 737M841 684L888 725M914 702L888 725M1028 693L1095 679M1028 693L1015 755M1028 693L1101 753M1095 679L1101 753M1095 679L1128 726M1175 648L1279 698M1175 648L1128 726M1175 648L1219 750M1279 698L1327 703M1279 698L1219 750M1279 698L1344 728M1327 703L1344 728M1391 643L1344 728M1391 643L1439 727M1515 715L1589 650M1515 715L1439 727M1515 715L1477 725M1515 715L1540 746M1515 715L1607 746M1589 650L1669 640M1589 650L1685 680M1669 640L1685 680M1669 640L1607 746M1685 680L1751 741M1807 693L1880 698M1807 693L1751 741M1807 693L1815 758M1807 693L1884 763M1880 698L1940 675M1880 698L1884 763M1940 675L2043 661M1940 675L1968 769M2043 661L2112 692M2112 692L2202 688M2112 692L2076 771M2112 692L2116 782M2202 688L2282 718M2202 688L2212 764M2282 718L2212 764M2282 718L2243 772M2282 718L2324 765M2282 718L2320 800M2474 698L2496 671M2474 698L2414 749M2474 698L2541 744M2474 698L2545 803M2496 671L2414 749M2496 671L2541 744M66 783L121 788M66 783L-19 744M66 783L68 856M66 783L-15 803M2626 783L2541 744M2626 783L2545 803M121 788L220 776M121 788L68 856M121 788L143 861M121 788L164 832M220 776L310 795M220 776L164 832M220 776L308 820M310 795L353 725M310 795L308 820M310 795L333 830M310 795L273 893M473 764L558 736M558 736L599 800M558 736L545 838M599 800L694 757M599 800L545 838M599 800L633 857M800 732L832 737M800 732L888 725M800 732L829 807M832 737L888 725M832 737L829 807M888 725L829 807M1015 755L1101 753M1015 755L1043 801M1101 753L1128 726M1101 753L1043 801M1128 726L1219 750M1219 750L1176 831M1219 750L1232 859M1344 728L1439 727M1439 727L1477 725M1439 727L1540 746M1477 725L1540 746M1477 725L1467 858M1540 746L1607 746M1751 741L1815 758M1751 741L1753 814M1815 758L1884 763M1815 758L1753 814M1815 758L1884 817M1884 763L1968 769M1884 763L1884 817M1968 769L2076 771M1968 769L1884 817M1968 769L1969 828M2076 771L2116 782M2076 771L2068 843M2076 771L2133 805M2116 782L2212 764M2116 782L2068 843M2116 782L2133 805M2212 764L2243 772M2212 764L2133 805M2243 772L2324 765M2243 772L2216 856M2243 772L2320 800M2324 765L2414 749M2324 765L2320 800M2324 765L2323 863M2414 749L2437 821M2541 744L2437 821M2541 744L2545 803M68 856L143 861M68 856L-15 803M68 856L76 914M2628 856L2545 803M143 861L164 832M143 861L76 914M143 861L104 944M308 820L333 830M308 820L273 893M308 820L344 892M333 830L412 874M333 830L273 893M333 830L344 892M412 874L344 892M412 874L426 958M412 874L489 927M545 838L633 857M545 838L489 927M633 857L683 877M633 857L627 902M683 877L745 880M683 877L627 902M683 877L693 942M683 877L683 970M745 880L693 942M745 880L767 892M745 880L683 970M829 807L931 831M829 807L767 892M931 831L1029 854M931 831L927 905M1029 854L1043 801M1029 854L927 905M1029 854L967 921M1029 854L1057 882M1043 801L1057 882M1176 831L1232 859M1176 831L1180 881M1232 859L1180 881M1232 859L1222 940M1232 859L1330 892M1340 837L1365 853M1340 837L1330 892M1365 853L1467 858M1365 853L1330 892M1467 858L1565 871M1467 858L1443 924M1565 871L1629 870M1565 871L1582 943M1565 871L1635 940M1565 871L1620 973M1629 870L1582 943M1629 870L1635 940M1753 814L1771 872M1753 814L1772 882M1771 872L1884 817M1771 872L1727 914M1771 872L1772 882M1771 872L1733 961M1884 817L1969 828M1969 828L2068 843M1969 828L2010 901M2068 843L2133 805M2068 843L2010 901M2133 805L2216 856M2216 856L2229 891M2216 856L2303 884M2320 800L2323 863M2320 800L2303 884M2323 863L2229 891M2323 863L2303 884M2323 863L2328 928M2437 821L2545 803M2437 821L2433 949M76 914L104 944M76 914L22 1000M76 914L109 961M104 944L22 1000M104 944L109 961M104 944L165 991M229 949L273 893M229 949L165 991M229 949L268 1011M273 893L344 892M344 892L347 977M426 958L489 927M426 958L347 977M426 958L457 993M426 958L501 996M489 927L457 993M489 927L501 996M627 902L693 942M627 902L633 965M627 902L683 970M693 942L633 965M693 942L683 970M767 892L792 998M866 923L927 905M866 923L967 921M866 923L792 998M866 923L821 1004M927 905L967 921M927 905L974 998M967 921L1057 882M967 921L974 998M1057 882L1113 962M1180 881L1222 940M1180 881L1113 962M1180 881L1148 985M1222 940L1113 962M1222 940L1148 985M1222 940L1242 1026M1330 892L1368 959M1330 892L1325 981M1368 959L1443 924M1368 959L1325 981M1368 959L1412 997M1368 959L1442 1038M1443 924L1412 997M1443 924L1527 995M1582 943L1635 940M1582 943L1527 995M1582 943L1620 973M1635 940L1727 914M1635 940L1620 973M1727 914L1772 882M1727 914L1733 961M1727 914L1780 994M1772 882L1733 961M1772 882L1780 994M1870 953L1952 955M1870 953L1780 994M1870 953L1843 1039M1952 955L2010 901M1952 955L2000 980M2010 901L2000 980M2138 939L2103 1005M2138 939L2184 969M2229 891L2303 884M2229 891L2184 969M2303 884L2328 928M2328 928L2271 999M2328 928L2344 1030M2328 928L2413 1001M2433 949L2482 946M2433 949L2413 1001M2433 949L2515 984M2482 946L2413 1001M2482 946L2515 984M22 1000L109 961M22 1000L-45 984M22 1000L78 1079M2582 1000L2515 984M109 961L165 991M165 991L268 1011M165 991L204 1088M268 1011L347 977M268 1011L204 1088M268 1011L321 1099M347 977L457 993M457 993L501 996M457 993L487 1075M501 996L487 1075M501 996L564 1044M633 965L683 970M792 998L821 1004M792 998L752 1062M821 1004L898 1028M821 1004L752 1062M898 1028L974 998M898 1028L858 1102M898 1028L938 1088M898 1028L961 1110M1113 962L1148 985M1148 985L1242 1026M1148 985L1162 1069M1242 1026L1162 1069M1242 1026L1277 1082M1242 1026L1292 1110M1325 981L1412 997M1325 981L1277 1082M1412 997L1442 1038M1412 997L1422 1076M1442 1038L1527 995M1442 1038L1422 1076M1527 995L1620 973M1620 973L1683 1070M1733 961L1780 994M1780 994L1843 1039M1843 1039L1771 1111M1843 1039L1917 1085M1843 1039L1771 1123M2000 980L2045 1038M2000 980L2079 1041M2045 1038L2103 1005M2045 1038L2079 1041M2045 1038L2083 1040M2045 1038L2056 1130M2103 1005L2184 969M2103 1005L2079 1041M2103 1005L2083 1040M2184 969L2271 999M2184 969L2256 1048M2271 999L2344 1030M2271 999L2256 1048M2344 1030L2413 1001M2344 1030L2256 1048M2344 1030L2382 1106M2413 1001L2436 1102M2515 984L2508 1094M78 1079L141 1099M78 1079L50 1120M78 1079L157 1132M141 1099L204 1088M141 1099L50 1120M141 1099L157 1132M204 1088L157 1132M204 1088L205 1165M317 1103L321 1099M317 1103L421 1104M317 1103L277 1180M317 1103L345 1145M317 1103L404 1148M321 1099L345 1145M321 1099L404 1148M421 1104L487 1075M421 1104L345 1145M421 1104L404 1148M487 1075L564 1044M487 1075L567 1130M564 1044L645 1112M564 1044L545 1139M564 1044L567 1130M645 1112L752 1062M645 1112L545 1139M645 1112L567 1130M645 1112L654 1188M752 1062L788 1183M858 1102L938 1088M858 1102L961 1110M858 1102L851 1155M858 1102L920 1139M938 1088L961 1110M938 1088L920 1139M938 1088L995 1170M961 1110L920 1139M961 1110L995 1170M1105 1118L1162 1069M1105 1118L1069 1199M1105 1118L1148 1179M1162 1069L1277 1082M1162 1069L1148 1179M1277 1082L1292 1110M1277 1082L1273 1149M1292 1110L1273 1149M1292 1110L1355 1184M1422 1076L1505 1115M1422 1076L1430 1161M1422 1076L1449 1137M1505 1115L1552 1113M1505 1115L1430 1161M1505 1115L1449 1137M1505 1115L1532 1183M1552 1113L1660 1110M1552 1113L1532 1183M1660 1110L1683 1070M1660 1110L1771 1111M1660 1110L1658 1137M1683 1070L1771 1111M1683 1070L1658 1137M1683 1070L1771 1123M1771 1111L1736 1198M1771 1111L1771 1123M1917 1085L1933 1101M1917 1085L1869 1168M1917 1085L1943 1135M1933 1101L1869 1168M1933 1101L1943 1135M2079 1041L2083 1040M2079 1041L2056 1130M2083 1040L2056 1130M2083 1040L2105 1124M2187 1083L2256 1048M2187 1083L2105 1124M2187 1083L2213 1168M2256 1048L2298 1144M2382 1106L2436 1102M2382 1106L2298 1144M2382 1106L2344 1167M2382 1106L2402 1176M2436 1102L2508 1094M2436 1102L2402 1176M2436 1102L2497 1176M2508 1094L2610 1120M2508 1094L2497 1176M-52 1094L50 1120M50 1120L157 1132M157 1132L205 1165M205 1165L277 1180M205 1165L216 1253M205 1165L251 1219M277 1180L345 1145M277 1180L251 1219M277 1180L322 1242M345 1145L404 1148M404 1148L418 1263M545 1139L567 1130M545 1139L491 1226M567 1130L654 1188M654 1188L597 1260M654 1188L641 1247M654 1188L732 1211M788 1183L851 1155M788 1183L732 1211M788 1183L845 1239M851 1155L920 1139M851 1155L845 1239M851 1155L901 1260M920 1139L995 1170M995 1170L1069 1199M995 1170L1005 1205M1069 1199L1148 1179M1069 1199L1005 1205M1069 1199L1112 1274M1148 1179L1112 1274M1148 1179L1187 1239M1273 1149L1355 1184M1355 1184L1430 1161M1355 1184L1348 1265M1355 1184L1367 1251M1430 1161L1449 1137M1430 1161L1509 1212M1449 1137L1532 1183M1449 1137L1509 1212M1532 1183L1509 1212M1532 1183L1542 1270M1658 1137L1736 1198M1658 1137L1634 1247M1736 1198L1771 1123M1736 1198L1757 1280M1736 1198L1771 1255M1771 1123L1869 1168M1869 1168L1943 1135M1869 1168L1873 1276M2056 1130L2105 1124M2056 1130L2069 1227M2105 1124L2213 1168M2213 1168L2298 1144M2213 1168L2225 1244M2213 1168L2241 1280M2298 1144L2344 1167M2344 1167L2402 1176M2344 1167L2385 1277M2402 1176L2497 1176M2402 1176L2453 1246M2497 1176L2453 1246M2497 1176L2484 1231M28 1261L98 1252M28 1261L-76 1231M28 1261L73 1292M28 1261L111 1308M28 1261L-48 1288M2588 1261L2484 1231M2588 1261L2512 1288M98 1252L73 1292M98 1252L111 1308M98 1252L187 1287M216 1253L251 1219M216 1253L322 1242M216 1253L187 1287M216 1253L247 1281M251 1219L322 1242M251 1219L247 1281M322 1242L418 1263M322 1242L247 1281M418 1263L491 1226M418 1263L382 1358M418 1263L417 1304M491 1226L417 1304M491 1226L512 1332M597 1260L641 1247M597 1260L512 1332M597 1260L575 1292M597 1260L673 1329M641 1247L732 1211M641 1247L575 1292M641 1247L673 1329M845 1239L901 1260M845 1239L843 1290M845 1239L896 1302M901 1260L843 1290M901 1260L896 1302M1112 1274L1187 1239M1112 1274L1086 1322M1112 1274L1140 1341M1187 1239L1249 1275M1187 1239L1215 1352M1249 1275L1348 1265M1249 1275L1215 1352M1249 1275L1206 1369M1348 1265L1367 1251M1348 1265L1327 1359M1348 1265L1413 1302M1367 1251L1327 1359M1367 1251L1413 1302M1367 1251L1446 1322M1509 1212L1542 1270M1542 1270L1634 1247M1542 1270L1556 1333M1542 1270L1636 1281M1634 1247L1636 1281M1634 1247L1683 1357M1757 1280L1771 1255M1757 1280L1768 1313M1757 1280L1849 1308M1757 1280L1802 1380M1771 1255L1873 1276M1771 1255L1768 1313M1771 1255L1849 1308M1873 1276L1968 1265M1873 1276L1849 1308M1873 1276L1972 1299M1968 1265L2069 1227M1968 1265L1972 1299M1968 1265L2005 1282M2069 1227L2125 1272M2069 1227L2005 1282M2069 1227L2129 1307M2125 1272L2225 1244M2125 1272L2005 1282M2125 1272L2129 1307M2225 1244L2241 1280M2225 1244L2234 1353M2241 1280L2129 1307M2241 1280L2234 1353M2241 1280L2270 1352M2385 1277L2453 1246M2385 1277L2400 1329M2385 1277L2445 1336M2453 1246L2484 1231M2453 1246L2512 1288M2484 1231L2512 1288M73 1292L111 1308M111 1308L187 1287M111 1308L195 1384M187 1287L247 1281M187 1287L195 1384M382 1358L417 1304M382 1358L352 1398M382 1358L424 1428M417 1304L512 1332M512 1332L575 1292M512 1332L550 1398M575 1292L550 1398M673 1329L723 1346M673 1329L636 1411M673 1329L694 1368M723 1346L694 1368M723 1346L758 1371M843 1290L896 1302M843 1290L861 1375M896 1302L861 1375M896 1302L893 1420M1006 1335L1086 1322M1006 1335L968 1404M1086 1322L1140 1341M1086 1322L1158 1379M1140 1341L1215 1352M1140 1341L1158 1379M1140 1341L1206 1369M1215 1352L1158 1379M1215 1352L1206 1369M1327 1359L1413 1302M1327 1359L1357 1439M1327 1359L1395 1420M1413 1302L1446 1322M1446 1322L1507 1409M1556 1333L1636 1281M1556 1333L1507 1409M1556 1333L1554 1401M1556 1333L1609 1412M1636 1281L1683 1357M1683 1357L1609 1412M1683 1357L1711 1393M1768 1313L1849 1308M1768 1313L1711 1393M1768 1313L1802 1380M1849 1308L1802 1380M1972 1299L2005 1282M2129 1307L2072 1390M2234 1353L2270 1352M2234 1353L2208 1408M2234 1353L2319 1423M2270 1352L2208 1408M2270 1352L2319 1423M2400 1329L2445 1336M2400 1329L2387 1410M2445 1336L2512 1288M2445 1336L2387 1410M2445 1336L2440 1435M2512 1288L2532 1386M37 1437L152 1408M37 1437L-28 1386M2597 1437L2532 1386M152 1408L195 1384M152 1408L247 1419M195 1384L247 1419M247 1419L352 1398M352 1398L424 1428M550 1398L636 1411M636 1411L694 1368M694 1368L758 1371M861 1375L893 1420M861 1375L968 1404M893 1420L968 1404M1101 1434L1158 1379M1158 1379L1206 1369M1357 1439L1395 1420M1507 1409L1554 1401M1554 1401L1609 1412M1609 1412L1711 1393M1711 1393L1802 1380M1802 1380L1874 1409M1874 1409L1969 1431M1969 1431L2072 1390M2072 1390L2153 1428M2153 1428L2208 1408M2319 1423L2387 1410M2387 1410L2440 1435M2440 1435L2532 1386"/></svg>