<svg xmlns="http://www.w3.org/2000/svg" width="2560" height="1440" fill="#fff"><circle cx="53" cy="63" r="6"/><circle cx="107" cy="65" r="4"/><circle cx="175" cy="58" r="4"/><circle cx="248" cy="31" r="5"/><circle cx="376" cy="55" r="6"/><circle cx="445" cy="63" r="5"/><circle cx="551" cy="59" r="5"/><circle cx="615" cy="48" r="5"/><circle cx="684" cy="69" r="5"/><circle cx="755" cy="72" r="4"/><circle cx="807" cy="68" r="4"/><circle cx="935" cy="11" r="6"/><circle cx="972" cy="7" r="5"/><circle cx="1072" cy="29" r="6"/><circle cx="1125" cy="77" r="6"/><circle cx="1209" cy="57" r="5"/><circle cx="1326" cy="29" r="5"/><circle cx="1389" cy="4" r="5"/><circle cx="1389" cy="1444" r="5"/><circle cx="1519" cy="13" r="4"/><circle cx="1546" cy="49" r="4"/><circle cx="1678" cy="43" r="6"/><circle cx="1728" cy="68" r="5"/><circle cx="1763" cy="17" r="4"/><circle cx="1863" cy="4" r="5"/><circle cx="1863" cy="1444" r="5"/><circle cx="1979" cy="47" r="5"/><circle cx="2037" cy="54" r="5"/><circle cx="2089" cy="28" r="6"/><circle cx="2217" cy="71" r="5"/><circle cx="2292" cy="9" r="4"/><circle cx="2391" cy="21" r="5"/><circle cx="2438" cy="10" r="5"/><circle cx="2516" cy="65" r="4"/><circle cx="43" cy="93" r="4"/><circle cx="122" cy="129" r="6"/><circle cx="182" cy="120" r="6"/><circle cx="274" cy="150" r="4"/><circle cx="370" cy="90" r="5"/><circle cx="415" cy="126" r="4"/><circle cx="512" cy="103" r="4"/><circle cx="581" cy="102" r="4"/><circle cx="689" cy="109" r="4"/><circle cx="735" cy="152" r="6"/><circle cx="845" cy="146" r="6"/><circle cx="907" cy="141" r="5"/><circle cx="1023" cy="80" r="6"/><circle cx="1069" cy="117" r="4"/><circle cx="1148" cy="114" r="5"/><circle cx="1233" cy="85" r="5"/><circle cx="1309" cy="124" r="5"/><circle cx="1381" cy="147" r="5"/><circle cx="1468" cy="120" r="6"/><circle cx="1581" cy="105" r="4"/><circle cx="1641" cy="110" r="6"/><circle cx="1733" cy="134" r="5"/><circle cx="1790" cy="130" r="4"/><circle cx="1880" cy="107" r="5"/><circle cx="1931" cy="159" r="4"/><circle cx="2012" cy="143" r="5"/><circle cx="2150" cy="109" r="5"/><circle cx="2216" cy="131" r="5"/><circle cx="2314" cy="135" r="6"/><circle cx="2339" cy="124" r="5"/><circle cx="2426" cy="109" r="5"/><circle cx="2548" cy="141" r="5"/><circle cx="52" cy="180" r="4"/><circle cx="138" cy="185" r="5"/><circle cx="203" cy="178" r="4"/><circle cx="240" cy="185" r="5"/><circle cx="380" cy="179" r="4"/><circle cx="478" cy="239" r="4"/><circle cx="487" cy="225" r="6"/><circle cx="562" cy="228" r="5"/><circle cx="713" cy="186" r="4"/><circle cx="761" cy="208" r="5"/><circle cx="832" cy="191" r="4"/><circle cx="912" cy="167" r="5"/><circle cx="982" cy="191" r="4"/><circle cx="1047" cy="226" r="5"/><circle cx="1157" cy="233" r="5"/><circle cx="1250" cy="174" r="5"/><circle cx="1296" cy="185" r="6"/><circle cx="1375" cy="201" r="6"/><circle cx="1448" cy="189" r="4"/><circle cx="1585" cy="189" r="4"/><circle cx="1626" cy="165" r="5"/><circle cx="1717" cy="199" r="4"/><circle cx="1831" cy="162" r="4"/><circle cx="1874" cy="180" r="5"/><circle cx="1950" cy="199" r="6"/><circle cx="2070" cy="168" r="6"/><circle cx="2133" cy="211" r="5"/><circle cx="2190" cy="210" r="5"/><circle cx="2257" cy="190" r="5"/><circle cx="2367" cy="224" r="5"/><circle cx="2463" cy="195" r="5"/><circle cx="2525" cy="232" r="4"/><circle cx="33" cy="289" r="5"/><circle cx="128" cy="286" r="5"/><circle cx="170" cy="313" r="5"/><circle cx="297" cy="287" r="4"/><circle cx="342" cy="254" r="4"/><circle cx="444" cy="298" r="4"/><circle cx="509" cy="247" r="4"/><circle cx="566" cy="297" r="5"/><circle cx="648" cy="241" r="6"/><circle cx="721" cy="245" r="5"/><circle cx="857" cy="297" r="5"/><circle cx="912" cy="293" r="5"/><circle cx="1031" cy="312" r="5"/><circle cx="1119" cy="244" r="5"/><circle cx="1192" cy="244" r="4"/><circle cx="1245" cy="307" r="6"/><circle cx="1282" cy="292" r="5"/><circle cx="1374" cy="240" r="4"/><circle cx="1464" cy="298" r="5"/><circle cx="1569" cy="318" r="5"/><circle cx="1623" cy="301" r="6"/><circle cx="1704" cy="316" r="4"/><circle cx="1775" cy="288" r="6"/><circle cx="1843" cy="304" r="4"/><circle cx="1960" cy="284" r="4"/><circle cx="2054" cy="282" r="6"/><circle cx="2150" cy="274" r="5"/><circle cx="2193" cy="259" r="5"/><circle cx="2252" cy="241" r="5"/><circle cx="2342" cy="304" r="4"/><circle cx="2479" cy="276" r="4"/><circle cx="2505" cy="316" r="5"/><circle cx="16" cy="324" r="4"/><circle cx="95" cy="369" r="4"/><circle cx="169" cy="339" r="5"/><circle cx="281" cy="335" r="5"/><circle cx="365" cy="347" r="5"/><circle cx="451" cy="397" r="5"/><circle cx="531" cy="332" r="4"/><circle cx="590" cy="344" r="6"/><circle cx="653" cy="372" r="6"/><circle cx="799" cy="367" r="5"/><circle cx="869" cy="330" r="5"/><circle cx="908" cy="336" r="5"/><circle cx="963" cy="351" r="6"/><circle cx="1097" cy="397" r="5"/><circle cx="1156" cy="336" r="5"/><circle cx="1236" cy="376" r="5"/><circle cx="1283" cy="367" r="6"/><circle cx="1385" cy="347" r="5"/><circle cx="1500" cy="365" r="6"/><circle cx="1544" cy="398" r="4"/><circle cx="1620" cy="348" r="5"/><circle cx="1715" cy="397" r="5"/><circle cx="1778" cy="332" r="5"/><circle cx="1905" cy="370" r="4"/><circle cx="1956" cy="386" r="6"/><circle cx="2047" cy="379" r="5"/><circle cx="2117" cy="368" r="5"/><circle cx="2191" cy="329" r="6"/><circle cx="2259" cy="367" r="6"/><circle cx="2387" cy="321" r="4"/><circle cx="2413" cy="392" r="5"/><circle cx="2502" cy="363" r="4"/><circle cx="52" cy="467" r="4"/><circle cx="89" cy="414" r="6"/><circle cx="200" cy="455" r="5"/><circle cx="259" cy="402" r="6"/><circle cx="350" cy="457" r="5"/><circle cx="479" cy="432" r="5"/><circle cx="514" cy="448" r="5"/><circle cx="627" cy="402" r="5"/><circle cx="678" cy="474" r="4"/><circle cx="757" cy="429" r="4"/><circle cx="827" cy="430" r="6"/><circle cx="908" cy="451" r="5"/><circle cx="1005" cy="429" r="6"/><circle cx="1091" cy="410" r="4"/><circle cx="1130" cy="448" r="5"/><circle cx="1213" cy="453" r="4"/><circle cx="1334" cy="439" r="5"/><circle cx="1367" cy="431" r="5"/><circle cx="1459" cy="440" r="5"/><circle cx="1576" cy="423" r="4"/><circle cx="1601" cy="423" r="6"/><circle cx="1730" cy="445" r="4"/><circle cx="1770" cy="423" r="4"/><circle cx="1874" cy="474" r="6"/><circle cx="1929" cy="454" r="5"/><circle cx="2075" cy="444" r="4"/><circle cx="2144" cy="458" r="5"/><circle cx="2171" cy="416" r="5"/><circle cx="2288" cy="450" r="5"/><circle cx="2347" cy="443" r="6"/><circle cx="2436" cy="447" r="6"/><circle cx="2525" cy="474" r="5"/><circle cx="14" cy="503" r="6"/><circle cx="105" cy="550" r="5"/><circle cx="214" cy="542" r="4"/><circle cx="298" cy="539" r="5"/><circle cx="379" cy="484" r="5"/><circle cx="479" cy="480" r="6"/><circle cx="493" cy="522" r="4"/><circle cx="611" cy="551" r="4"/><circle cx="690" cy="483" r="5"/><circle cx="762" cy="481" r="5"/><circle cx="805" cy="497" r="5"/><circle cx="932" cy="555" r="6"/><circle cx="1010" cy="522" r="5"/><circle cx="1074" cy="495" r="5"/><circle cx="1184" cy="491" r="6"/><circle cx="1201" cy="551" r="5"/><circle cx="1289" cy="489" r="4"/><circle cx="1408" cy="517" r="5"/><circle cx="1493" cy="559" r="5"/><circle cx="1551" cy="493" r="5"/><circle cx="1655" cy="510" r="5"/><circle cx="1693" cy="547" r="5"/><circle cx="1795" cy="521" r="4"/><circle cx="1848" cy="492" r="5"/><circle cx="1948" cy="532" r="4"/><circle cx="2057" cy="554" r="5"/><circle cx="2093" cy="548" r="5"/><circle cx="2209" cy="498" r="6"/><circle cx="2278" cy="480" r="5"/><circle cx="2336" cy="518" r="5"/><circle cx="2402" cy="521" r="5"/><circle cx="2547" cy="538" r="5"/><circle cx="5" cy="627" r="5"/><circle cx="2565" cy="627" r="5"/><circle cx="146" cy="632" r="4"/><circle cx="218" cy="628" r="5"/><circle cx="254" cy="617" r="5"/><circle cx="334" cy="630" r="6"/><circle cx="409" cy="578" r="5"/><circle cx="537" cy="611" r="4"/><circle cx="574" cy="638" r="4"/><circle cx="704" cy="596" r="4"/><circle cx="741" cy="598" r="6"/><circle cx="864" cy="571" r="5"/><circle cx="881" cy="592" r="4"/><circle cx="979" cy="637" r="5"/><circle cx="1084" cy="640" r="4"/><circle cx="1191" cy="593" r="5"/><circle cx="1201" cy="625" r="5"/><circle cx="1289" cy="587" r="4"/><circle cx="1371" cy="617" r="5"/><circle cx="1467" cy="592" r="5"/><circle cx="1536" cy="576" r="6"/><circle cx="1670" cy="588" r="4"/><circle cx="1719" cy="601" r="5"/><circle cx="1768" cy="640" r="6"/><circle cx="1877" cy="600" r="5"/><circle cx="1922" cy="640" r="4"/><circle cx="2024" cy="580" r="5"/><circle cx="2105" cy="639" r="6"/><circle cx="2201" cy="612" r="6"/><circle cx="2302" cy="628" r="5"/><circle cx="2332" cy="639" r="5"/><circle cx="2448" cy="615" r="4"/><circle cx="2520" cy="566" r="4"/><circle cx="6" cy="720" r="4"/><circle cx="118" cy="693" r="5"/><circle cx="191" cy="711" r="4"/><circle cx="296" cy="663" r="5"/><circle cx="379" cy="690" r="5"/><circle cx="419" cy="641" r="5"/><circle cx="554" cy="685" r="4"/><circle cx="608" cy="656" r="6"/><circle cx="674" cy="715" r="6"/><circle cx="730" cy="703" r="5"/><circle cx="878" cy="666" r="5"/><circle cx="922" cy="665" r="4"/><circle cx="1032" cy="682" r="6"/><circle cx="1042" cy="651" r="4"/><circle cx="1133" cy="670" r="5"/><circle cx="1244" cy="658" r="5"/><circle cx="1358" cy="642" r="6"/><circle cx="1420" cy="685" r="4"/><circle cx="1467" cy="683" r="5"/><circle cx="1588" cy="646" r="6"/><circle cx="1675" cy="706" r="6"/><circle cx="1693" cy="701" r="4"/><circle cx="1821" cy="670" r="4"/><circle cx="1880" cy="644" r="5"/><circle cx="1921" cy="699" r="5"/><circle cx="2003" cy="702" r="5"/><circle cx="2096" cy="658" r="5"/><circle cx="2205" cy="664" r="6"/><circle cx="2275" cy="663" r="5"/><circle cx="2345" cy="713" r="5"/><circle cx="2415" cy="686" r="5"/><circle cx="2522" cy="702" r="6"/><circle cx="38" cy="799" r="5"/><circle cx="156" cy="799" r="5"/><circle cx="169" cy="723" r="4"/><circle cx="258" cy="791" r="6"/><circle cx="393" cy="726" r="4"/><circle cx="464" cy="785" r="5"/><circle cx="527" cy="723" r="5"/><circle cx="560" cy="736" r="5"/><circle cx="681" cy="745" r="5"/><circle cx="757" cy="764" r="4"/><circle cx="849" cy="741" r="6"/><circle cx="960" cy="776" r="5"/><circle cx="1006" cy="728" r="4"/><circle cx="1059" cy="752" r="5"/><circle cx="1167" cy="785" r="6"/><circle cx="1275" cy="735" r="5"/><circle cx="1298" cy="767" r="5"/><circle cx="1369" cy="774" r="5"/><circle cx="1479" cy="771" r="5"/><circle cx="1548" cy="784" r="4"/><circle cx="1600" cy="733" r="5"/><circle cx="1693" cy="765" r="6"/><circle cx="1827" cy="783" r="5"/><circle cx="1881" cy="739" r="5"/><circle cx="1932" cy="753" r="4"/><circle cx="2070" cy="765" r="4"/><circle cx="2121" cy="744" r="5"/><circle cx="2163" cy="765" r="5"/><circle cx="2289" cy="753" r="5"/><circle cx="2355" cy="733" r="5"/><circle cx="2420" cy="792" r="4"/><circle cx="2546" cy="734" r="4"/><circle cx="66" cy="864" r="5"/><circle cx="83" cy="808" r="5"/><circle cx="169" cy="823" r="5"/><circle cx="318" cy="874" r="6"/><circle cx="373" cy="871" r="5"/><circle cx="456" cy="868" r="5"/><circle cx="553" cy="876" r="5"/><circle cx="609" cy="878" r="5"/><circle cx="691" cy="867" r="5"/><circle cx="735" cy="848" r="5"/><circle cx="835" cy="858" r="5"/><circle cx="955" cy="814" r="5"/><circle cx="1008" cy="851" r="5"/><circle cx="1068" cy="879" r="6"/><circle cx="1189" cy="862" r="6"/><circle cx="1280" cy="841" r="5"/><circle cx="1331" cy="841" r="5"/><circle cx="1426" cy="860" r="4"/><circle cx="1504" cy="810" r="4"/><circle cx="1589" cy="861" r="5"/><circle cx="1611" cy="801" r="5"/><circle cx="1753" cy="834" r="5"/><circle cx="1781" cy="870" r="4"/><circle cx="1865" cy="820" r="5"/><circle cx="1992" cy="854" r="5"/><circle cx="2045" cy="877" r="5"/><circle cx="2081" cy="806" r="5"/><circle cx="2222" cy="802" r="4"/><circle cx="2301" cy="809" r="5"/><circle cx="2398" cy="854" r="4"/><circle cx="2455" cy="829" r="5"/><circle cx="2530" cy="856" r="6"/><circle cx="27" cy="944" r="4"/><circle cx="111" cy="891" r="5"/><circle cx="167" cy="904" r="6"/><circle cx="294" cy="884" r="5"/><circle cx="385" cy="932" r="4"/><circle cx="405" cy="900" r="5"/><circle cx="538" cy="903" r="4"/><circle cx="570" cy="952" r="4"/><circle cx="705" cy="903" r="6"/><circle cx="740" cy="945" r="4"/><circle cx="833" cy="908" r="6"/><circle cx="952" cy="900" r="4"/><circle cx="1038" cy="913" r="6"/><circle cx="1069" cy="924" r="5"/><circle cx="1155" cy="903" r="5"/><circle cx="1273" cy="936" r="4"/><circle cx="1345" cy="907" r="4"/><circle cx="1413" cy="938" r="4"/><circle cx="1468" cy="897" r="6"/><circle cx="1528" cy="896" r="5"/><circle cx="1614" cy="926" r="5"/><circle cx="1713" cy="913" r="5"/><circle cx="1812" cy="941" r="5"/><circle cx="1855" cy="959" r="5"/><circle cx="1920" cy="893" r="5"/><circle cx="2044" cy="899" r="4"/><circle cx="2110" cy="929" r="5"/><circle cx="2226" cy="905" r="5"/><circle cx="2265" cy="920" r="5"/><circle cx="2348" cy="884" r="6"/><circle cx="2424" cy="951" r="5"/><circle cx="2521" cy="955" r="5"/><circle cx="1" cy="1013" r="5"/><circle cx="2561" cy="1013" r="5"/><circle cx="138" cy="1017" r="5"/><circle cx="216" cy="1017" r="4"/><circle cx="245" cy="1009" r="6"/><circle cx="396" cy="989" r="6"/><circle cx="470" cy="1028" r="6"/><circle cx="504" cy="1015" r="6"/><circle cx="636" cy="1034" r="4"/><circle cx="686" cy="994" r="4"/><circle cx="732" cy="1023" r="6"/><circle cx="837" cy="975" r="4"/><circle cx="923" cy="1009" r="4"/><circle cx="1029" cy="1038" r="6"/><circle cx="1086" cy="990" r="5"/><circle cx="1138" cy="1021" r="5"/><circle cx="1215" cy="1031" r="4"/><circle cx="1283" cy="1004" r="5"/><circle cx="1435" cy="965" r="5"/><circle cx="1463" cy="1032" r="5"/><circle cx="1527" cy="1014" r="4"/><circle cx="1622" cy="1027" r="5"/><circle cx="1740" cy="974" r="6"/><circle cx="1838" cy="1030" r="6"/><circle cx="1870" cy="984" r="6"/><circle cx="1966" cy="1029" r="6"/><circle cx="2005" cy="1036" r="4"/><circle cx="2146" cy="985" r="6"/><circle cx="2197" cy="983" r="4"/><circle cx="2305" cy="971" r="6"/><circle cx="2379" cy="975" r="5"/><circle cx="2453" cy="968" r="4"/><circle cx="2559" cy="1024" r="5"/><circle cx="-1" cy="1024" r="5"/><circle cx="33" cy="1055" r="5"/><circle cx="107" cy="1046" r="6"/><circle cx="223" cy="1088" r="6"/><circle cx="319" cy="1092" r="5"/><circle cx="342" cy="1116" r="5"/><circle cx="412" cy="1068" r="5"/><circle cx="544" cy="1119" r="4"/><circle cx="584" cy="1056" r="6"/><circle cx="701" cy="1090" r="5"/><circle cx="736" cy="1088" r="4"/><circle cx="808" cy="1091" r="5"/><circle cx="948" cy="1061" r="5"/><circle cx="972" cy="1098" r="5"/><circle cx="1088" cy="1050" r="6"/><circle cx="1164" cy="1115" r="5"/><circle cx="1263" cy="1109" r="5"/><circle cx="1316" cy="1087" r="6"/><circle cx="1423" cy="1062" r="4"/><circle cx="1514" cy="1081" r="6"/><circle cx="1537" cy="1112" r="6"/><circle cx="1636" cy="1108" r="5"/><circle cx="1715" cy="1109" r="6"/><circle cx="1773" cy="1086" r="5"/><circle cx="1850" cy="1067" r="4"/><circle cx="1995" cy="1108" r="4"/><circle cx="2071" cy="1072" r="4"/><circle cx="2129" cy="1092" r="5"/><circle cx="2224" cy="1074" r="5"/><circle cx="2264" cy="1114" r="5"/><circle cx="2328" cy="1081" r="4"/><circle cx="2410" cy="1085" r="5"/><circle cx="2551" cy="1073" r="4"/><circle cx="3" cy="1147" r="4"/><circle cx="2563" cy="1147" r="4"/><circle cx="160" cy="1139" r="5"/><circle cx="226" cy="1151" r="6"/><circle cx="311" cy="1122" r="5"/><circle cx="348" cy="1171" r="4"/><circle cx="411" cy="1178" r="6"/><circle cx="545" cy="1183" r="5"/><circle cx="576" cy="1124" r="6"/><circle cx="672" cy="1171" r="4"/><circle cx="794" cy="1199" r="5"/><circle cx="827" cy="1142" r="6"/><circle cx="903" cy="1163" r="5"/><circle cx="1030" cy="1148" r="6"/><circle cx="1077" cy="1164" r="4"/><circle cx="1126" cy="1193" r="4"/><circle cx="1204" cy="1126" r="5"/><circle cx="1339" cy="1158" r="5"/><circle cx="1428" cy="1169" r="4"/><circle cx="1494" cy="1190" r="4"/><circle cx="1522" cy="1143" r="5"/><circle cx="1673" cy="1194" r="6"/><circle cx="1755" cy="1172" r="5"/><circle cx="1796" cy="1136" r="6"/><circle cx="1862" cy="1185" r="4"/><circle cx="1991" cy="1192" r="6"/><circle cx="2015" cy="1167" r="4"/><circle cx="2126" cy="1183" r="5"/><circle cx="2229" cy="1164" r="4"/><circle cx="2262" cy="1160" r="4"/><circle cx="2389" cy="1137" r="6"/><circle cx="2455" cy="1186" r="5"/><circle cx="2514" cy="1184" r="5"/><circle cx="59" cy="1224" r="4"/><circle cx="117" cy="1210" r="6"/><circle cx="202" cy="1279" r="5"/><circle cx="244" cy="1244" r="5"/><circle cx="381" cy="1260" r="4"/><circle cx="416" cy="1273" r="6"/><circle cx="499" cy="1276" r="4"/><circle cx="637" cy="1227" r="6"/><circle cx="717" cy="1247" r="5"/><circle cx="756" cy="1243" r="6"/><circle cx="800" cy="1260" r="5"/><circle cx="939" cy="1227" r="6"/><circle cx="974" cy="1229" r="5"/><circle cx="1092" cy="1215" r="6"/><circle cx="1125" cy="1228" r="5"/><circle cx="1254" cy="1235" r="5"/><circle cx="1324" cy="1261" r="6"/><circle cx="1365" cy="1245" r="6"/><circle cx="1512" cy="1225" r="4"/><circle cx="1584" cy="1234" r="5"/><circle cx="1674" cy="1242" r="5"/><circle cx="1743" cy="1245" r="4"/><circle cx="1829" cy="1276" r="5"/><circle cx="1850" cy="1270" r="4"/><circle cx="1994" cy="1206" r="4"/><circle cx="2069" cy="1240" r="4"/><circle cx="2131" cy="1263" r="5"/><circle cx="2213" cy="1240" r="6"/><circle cx="2280" cy="1251" r="4"/><circle cx="2329" cy="1250" r="6"/><circle cx="2437" cy="1201" r="6"/><circle cx="2536" cy="1270" r="5"/><circle cx="77" cy="1358" r="4"/><circle cx="152" cy="1352" r="4"/><circle cx="223" cy="1327" r="5"/><circle cx="243" cy="1357" r="4"/><circle cx="341" cy="1358" r="4"/><circle cx="447" cy="1318" r="5"/><circle cx="483" cy="1345" r="6"/><circle cx="635" cy="1332" r="5"/><circle cx="684" cy="1342" r="5"/><circle cx="722" cy="1291" r="5"/><circle cx="875" cy="1291" r="5"/><circle cx="895" cy="1343" r="5"/><circle cx="1014" cy="1354" r="6"/><circle cx="1091" cy="1344" r="5"/><circle cx="1199" cy="1309" r="5"/><circle cx="1231" cy="1306" r="5"/><circle cx="1284" cy="1294" r="5"/><circle cx="1416" cy="1336" r="5"/><circle cx="1472" cy="1281" r="4"/><circle cx="1599" cy="1333" r="4"/><circle cx="1641" cy="1299" r="5"/><circle cx="1706" cy="1295" r="5"/><circle cx="1840" cy="1334" r="4"/><circle cx="1915" cy="1324" r="5"/><circle cx="1921" cy="1335" r="6"/><circle cx="2064" cy="1295" r="5"/><circle cx="2096" cy="1340" r="6"/><circle cx="2171" cy="1352" r="5"/><circle cx="2289" cy="1295" r="5"/><circle cx="2395" cy="1284" r="4"/><circle cx="2408" cy="1359" r="5"/><circle cx="2485" cy="1353" r="4"/><circle cx="66" cy="1431" r="6"/><circle cx="82" cy="1397" r="5"/><circle cx="239" cy="1363" r="6"/><circle cx="306" cy="1373" r="4"/><circle cx="365" cy="1437" r="4"/><circle cx="365" cy="-3" r="4"/><circle cx="467" cy="1375" r="5"/><circle cx="507" cy="1401" r="5"/><circle cx="621" cy="1422" r="4"/><circle cx="694" cy="1430" r="4"/><circle cx="743" cy="1400" r="5"/><circle cx="868" cy="1371" r="6"/><circle cx="899" cy="1407" r="6"/><circle cx="991" cy="1387" r="5"/><circle cx="1065" cy="1424" r="4"/><circle cx="1140" cy="1393" r="6"/><circle cx="1230" cy="1434" r="5"/><circle cx="1350" cy="1435" r="5"/><circle cx="1387" cy="1362" r="6"/><circle cx="1515" cy="1440" r="5"/><circle cx="1515" cy="-0" r="5"/><circle cx="1558" cy="1425" r="5"/><circle cx="1631" cy="1416" r="5"/><circle cx="1756" cy="1364" r="4"/><circle cx="1821" cy="1433" r="4"/><circle cx="1844" cy="1438" r="5"/><circle cx="1844" cy="-2" r="5"/><circle cx="1976" cy="1425" r="5"/><circle cx="2025" cy="1368" r="5"/><circle cx="2149" cy="1392" r="5"/><circle cx="2182" cy="1366" r="5"/><circle cx="2288" cy="1428" r="4"/><circle cx="2359" cy="1422" r="5"/><circle cx="2416" cy="1396" r="4"/><circle cx="2546" cy="1364" r="4"/><path stroke="#fff" d="M53 63L107 65M53 63L-44 65M53 63L43 93M53 63L122 129M53 63L66 -9M2613 63L2516 65M53 1503L66 1431M107 65L175 58M107 65L43 93M107 65L122 129M107 65L66 -9M107 1505L66 1431M175 58L248 31M175 58L182 120M248 31L376 55M248 31L306 -67M248 1471L306 1373M376 55L445 63M376 55L370 90M376 55L415 126M376 55L365 -3M376 1495L365 1437M445 63L551 59M445 63L370 90M445 63L415 126M445 63L512 103M551 59L615 48M551 59L512 103M551 59L581 102M551 59L507 -39M551 1499L507 1401M615 48L684 69M615 48L581 102M615 48L689 109M615 48L621 -18M615 1488L621 1422M684 69L755 72M684 69L689 109M684 69L694 -10M684 1509L694 1430M755 72L807 68M755 72L689 109M755 72L735 152M807 68L845 146M935 11L972 7M935 11L1023 80M935 11L868 -69M935 11L899 -33M935 11L991 -53M935 1451L868 1371M935 1451L899 1407M935 1451L991 1387M972 7L1023 80M972 7L1014 -86M972 7L899 -33M972 7L991 -53M972 1447L1014 1354M972 1447L899 1407M972 1447L991 1387M1072 29L1125 77M1072 29L1023 80M1072 29L1069 117M1072 29L1065 -16M1072 29L1140 -47M1072 1469L1065 1424M1072 1469L1140 1393M1125 77L1209 57M1125 77L1023 80M1125 77L1069 117M1125 77L1148 114M1209 57L1148 114M1209 57L1233 85M1209 57L1230 -6M1209 1497L1230 1434M1326 29L1389 4M1326 29L1230 -6M1326 29L1350 -5M1326 1469L1230 1434M1326 1469L1350 1435M1389 4L1416 -104M1389 4L1350 -5M1389 4L1387 -78M1389 1444L1416 1336M1389 1444L1350 1435M1389 1444L1387 1362M1519 13L1546 49M1519 13L1515 -0M1519 13L1558 -15M1519 1453L1515 1440M1519 1453L1558 1425M1546 49L1468 120M1546 49L1581 105M1546 49L1515 -0M1546 49L1558 -15M1546 1489L1515 1440M1546 1489L1558 1425M1678 43L1728 68M1678 43L1763 17M1678 43L1641 110M1678 43L1733 134M1678 43L1631 -24M1678 1483L1631 1416M1728 68L1763 17M1728 68L1641 110M1728 68L1733 134M1728 68L1790 130M1763 17L1756 -76M1763 17L1821 -7M1763 17L1844 -2M1763 1457L1756 1364M1763 1457L1821 1433M1763 1457L1844 1438M1863 4L1821 -7M1863 4L1844 -2M1863 4L1976 -15M1863 1444L1821 1433M1863 1444L1844 1438M1863 1444L1976 1425M1979 47L2037 54M1979 47L2089 28M1979 47L2012 143M1979 47L1976 -15M1979 1487L1976 1425M2037 54L2089 28M2037 54L2012 143M2037 54L2070 168M2037 54L1976 -15M2037 1494L1976 1425M2089 28L2150 109M2089 28L2025 -72M2089 28L2149 -48M2089 1468L2025 1368M2089 1468L2149 1392M2217 71L2292 9M2217 71L2150 109M2217 71L2216 131M2217 71L2288 -12M2217 1511L2288 1428M2292 9L2288 -12M2292 9L2359 -18M2292 1449L2288 1428M2292 1449L2359 1422M2391 21L2438 10M2391 21L2426 109M2391 21L2359 -18M2391 21L2416 -44M2391 1461L2359 1422M2391 1461L2416 1396M2438 10L2426 109M2438 10L2408 -81M2438 10L2416 -44M2438 1450L2408 1359M2438 1450L2416 1396M2516 65L2426 109M2516 65L2548 141M43 93L-12 141M43 93L52 180M2603 93L2548 141M122 129L182 120M122 129L52 180M122 129L138 185M182 120L138 185M182 120L203 178M182 120L240 185M274 150L203 178M274 150L240 185M274 150L380 179M370 90L415 126M370 90L380 179M370 90L365 -3M370 1530L365 1437M415 126L512 103M415 126L380 179M512 103L581 102M689 109L735 152M689 109L713 186M735 152L713 186M735 152L761 208M735 152L721 245M845 146L907 141M845 146L761 208M845 146L832 191M845 146L912 167M907 141L832 191M907 141L912 167M907 141L982 191M1023 80L1069 117M1069 117L1148 114M1069 117L1047 226M1148 114L1233 85M1233 85L1309 124M1233 85L1250 174M1233 85L1230 -6M1233 1525L1230 1434M1309 124L1381 147M1309 124L1250 174M1309 124L1296 185M1309 124L1375 201M1381 147L1468 120M1381 147L1296 185M1381 147L1375 201M1381 147L1448 189M1468 120L1581 105M1468 120L1448 189M1581 105L1641 110M1581 105L1585 189M1581 105L1626 165M1641 110L1733 134M1641 110L1626 165M1733 134L1790 130M1733 134L1717 199M1790 130L1880 107M1790 130L1831 162M1790 130L1874 180M1880 107L1931 159M1880 107L1831 162M1880 107L1874 180M1880 107L1950 199M1931 159L2012 143M1931 159L1831 162M1931 159L1874 180M1931 159L1950 199M2012 143L1950 199M2012 143L2070 168M2150 109L2216 131M2150 109L2070 168M2216 131L2314 135M2216 131L2257 190M2314 135L2339 124M2314 135L2257 190M2314 135L2367 224M2339 124L2426 109M2339 124L2367 224M2426 109L2463 195M2548 141L2612 180M2548 141L2463 195M2548 141L2525 232M-12 141L52 180M52 180L138 185M138 185L203 178M138 185L240 185M203 178L240 185M240 185L297 287M380 179L342 254M478 239L487 225M478 239L562 228M478 239L444 298M478 239L509 247M487 225L562 228M487 225L444 298M487 225L509 247M562 228L509 247M562 228L566 297M562 228L648 241M713 186L761 208M713 186L648 241M713 186L721 245M761 208L832 191M761 208L721 245M832 191L912 167M912 167L982 191M982 191L1047 226M1047 226L1031 312M1047 226L1119 244M1157 233L1250 174M1157 233L1119 244M1157 233L1192 244M1157 233L1156 336M1250 174L1296 185M1250 174L1192 244M1296 185L1375 201M1296 185L1374 240M1375 201L1448 189M1375 201L1374 240M1448 189L1374 240M1448 189L1464 298M1585 189L1626 165M1585 189L1623 301M1626 165L1717 199M1717 199L1775 288M1831 162L1874 180M1874 180L1950 199M1950 199L1960 284M2070 168L2133 211M2070 168L2054 282M2133 211L2190 210M2133 211L2150 274M2133 211L2193 259M2190 210L2257 190M2190 210L2150 274M2190 210L2193 259M2190 210L2252 241M2257 190L2252 241M2367 224L2463 195M2367 224L2342 304M2367 224L2387 321M2463 195L2525 232M2463 195L2479 276M2525 232L2593 289M2525 232L2479 276M2525 232L2505 316M-35 232L33 289M33 289L128 286M33 289L-55 316M33 289L16 324M33 289L95 369M2593 289L2505 316M128 286L170 313M128 286L95 369M128 286L169 339M170 313L95 369M170 313L169 339M170 313L281 335M170 313L259 402M297 287L342 254M297 287L281 335M297 287L365 347M342 254L281 335M342 254L365 347M444 298L509 247M444 298L365 347M444 298L451 397M509 247L566 297M566 297L648 241M566 297L531 332M566 297L590 344M648 241L721 245M648 241L590 344M857 297L912 293M857 297L799 367M857 297L869 330M857 297L908 336M912 293L869 330M912 293L908 336M912 293L963 351M1031 312L1119 244M1031 312L963 351M1119 244L1192 244M1119 244L1156 336M1192 244L1245 307M1192 244L1282 292M1245 307L1282 292M1245 307L1156 336M1245 307L1236 376M1245 307L1283 367M1282 292L1374 240M1282 292L1236 376M1282 292L1283 367M1374 240L1464 298M1464 298L1385 347M1464 298L1500 365M1569 318L1623 301M1569 318L1500 365M1569 318L1544 398M1569 318L1620 348M1623 301L1704 316M1623 301L1620 348M1704 316L1775 288M1704 316L1620 348M1704 316L1715 397M1704 316L1778 332M1775 288L1843 304M1775 288L1778 332M1843 304L1778 332M1843 304L1905 370M1960 284L2054 282M1960 284L1905 370M1960 284L1956 386M2054 282L2150 274M2054 282L2047 379M2150 274L2193 259M2150 274L2191 329M2193 259L2252 241M2193 259L2191 329M2342 304L2259 367M2342 304L2387 321M2342 304L2413 392M2479 276L2505 316M2479 276L2387 321M2479 276L2502 363M2505 316L2576 324M2505 316L2502 363M-55 316L16 324M16 324L-58 363M2576 324L2502 363M95 369L169 339M95 369L89 414M169 339L89 414M169 339L259 402M281 335L365 347M281 335L259 402M365 347L451 397M451 397L479 432M451 397L514 448M451 397L479 480M531 332L590 344M590 344L653 372M590 344L627 402M653 372L627 402M653 372L678 474M653 372L690 483M799 367L869 330M799 367L908 336M799 367L757 429M799 367L827 430M869 330L908 336M869 330L963 351M908 336L963 351M963 351L1005 429M1097 397L1156 336M1097 397L1005 429M1097 397L1091 410M1097 397L1130 448M1156 336L1236 376M1236 376L1283 367M1236 376L1213 453M1283 367L1385 347M1283 367L1334 439M1385 347L1334 439M1385 347L1367 431M1500 365L1544 398M1500 365L1459 440M1500 365L1576 423M1544 398L1576 423M1544 398L1601 423M1620 348L1576 423M1620 348L1601 423M1715 397L1778 332M1715 397L1730 445M1715 397L1770 423M1778 332L1770 423M1905 370L1956 386M1905 370L1874 474M1905 370L1929 454M1956 386L2047 379M1956 386L1929 454M2047 379L2117 368M2047 379L2075 444M2117 368L2191 329M2117 368L2075 444M2117 368L2144 458M2117 368L2171 416M2191 329L2259 367M2191 329L2171 416M2259 367L2171 416M2259 367L2288 450M2387 321L2413 392M2413 392L2502 363M2413 392L2347 443M2413 392L2436 447M2502 363L2436 447M52 467L89 414M52 467L-35 474M52 467L14 503M52 467L105 550M52 467L-13 538M2612 467L2525 474M2612 467L2547 538M89 414L200 455M200 455L259 402M200 455L214 542M259 402L350 457M350 457L298 539M350 457L379 484M479 432L514 448M479 432L379 484M479 432L479 480M479 432L493 522M514 448L627 402M514 448L479 480M514 448L493 522M627 402L678 474M627 402L690 483M678 474L690 483M678 474L762 481M757 429L827 430M757 429L690 483M757 429L762 481M757 429L805 497M827 430L908 451M827 430L762 481M827 430L805 497M908 451L932 555M908 451L1010 522M1005 429L1091 410M1005 429L1010 522M1005 429L1074 495M1091 410L1130 448M1091 410L1074 495M1130 448L1213 453M1130 448L1074 495M1130 448L1184 491M1213 453L1184 491M1213 453L1201 551M1213 453L1289 489M1334 439L1367 431M1334 439L1289 489M1334 439L1408 517M1367 431L1459 440M1367 431L1289 489M1367 431L1408 517M1459 440L1408 517M1459 440L1551 493M1576 423L1601 423M1576 423L1551 493M1601 423L1551 493M1601 423L1655 510M1730 445L1770 423M1730 445L1655 510M1730 445L1693 547M1730 445L1795 521M1770 423L1848 492M1874 474L1929 454M1874 474L1795 521M1874 474L1848 492M1874 474L1948 532M1929 454L1848 492M1929 454L1948 532M2075 444L2144 458M2144 458L2171 416M2144 458L2093 548M2144 458L2209 498M2171 416L2209 498M2288 450L2347 443M2288 450L2209 498M2288 450L2278 480M2288 450L2336 518M2347 443L2436 447M2347 443L2278 480M2347 443L2336 518M2436 447L2525 474M2436 447L2402 521M2525 474L2574 503M2525 474L2547 538M2525 474L2520 566M-35 474L14 503M14 503L105 550M14 503L-13 538M14 503L-40 566M2574 503L2547 538M2574 503L2520 566M105 550L214 542M105 550L146 632M214 542L298 539M214 542L218 628M214 542L254 617M298 539L379 484M298 539L254 617M379 484L479 480M379 484L409 578M479 480L493 522M493 522L409 578M493 522L537 611M611 551L537 611M611 551L574 638M611 551L704 596M690 483L762 481M762 481L805 497M805 497L741 598M805 497L864 571M932 555L1010 522M932 555L864 571M932 555L881 592M932 555L979 637M1010 522L1074 495M1074 495L1184 491M1184 491L1201 551M1184 491L1191 593M1201 551L1191 593M1201 551L1201 625M1201 551L1289 587M1408 517L1493 559M1408 517L1467 592M1493 559L1551 493M1493 559L1467 592M1493 559L1536 576M1551 493L1536 576M1655 510L1693 547M1655 510L1670 588M1693 547L1670 588M1693 547L1719 601M1795 521L1848 492M1948 532L2057 554M1948 532L1877 600M1948 532L2024 580M2057 554L2093 548M2057 554L2024 580M2093 548L2024 580M2093 548L2105 639M2209 498L2278 480M2209 498L2201 612M2278 480L2336 518M2336 518L2402 521M2402 521L2448 615M2547 538L2565 627M2547 538L2520 566M-13 538L5 627M5 627L-40 566M5 627L6 720M5 627L-38 702M5 627L-14 734M2565 627L2520 566M2565 627L2522 702M2565 627L2546 734M146 632L218 628M146 632L118 693M218 628L254 617M218 628L191 711M218 628L296 663M254 617L334 630M254 617L296 663M334 630L409 578M334 630L296 663M334 630L379 690M334 630L419 641M409 578L379 690M409 578L419 641M537 611L574 638M537 611L554 685M537 611L608 656M574 638L554 685M574 638L608 656M704 596L741 598M741 598L730 703M864 571L881 592M864 571L878 666M881 592L878 666M881 592L922 665M979 637L922 665M979 637L1032 682M979 637L1042 651M1084 640L1032 682M1084 640L1042 651M1084 640L1133 670M1191 593L1201 625M1191 593L1133 670M1191 593L1244 658M1201 625L1289 587M1201 625L1133 670M1201 625L1244 658M1289 587L1371 617M1289 587L1244 658M1289 587L1358 642M1371 617L1467 592M1371 617L1358 642M1371 617L1420 685M1467 592L1536 576M1467 592L1467 683M1536 576L1588 646M1670 588L1719 601M1670 588L1588 646M1719 601L1768 640M1719 601L1693 701M1768 640L1877 600M1768 640L1675 706M1768 640L1693 701M1768 640L1821 670M1877 600L1922 640M1877 600L1821 670M1877 600L1880 644M1922 640L1880 644M1922 640L1921 699M1922 640L2003 702M2024 580L2105 639M2024 580L2096 658M2105 639L2201 612M2105 639L2096 658M2105 639L2205 664M2201 612L2302 628M2201 612L2205 664M2201 612L2275 663M2302 628L2332 639M2302 628L2205 664M2302 628L2275 663M2332 639L2275 663M2332 639L2345 713M2332 639L2415 686M2448 615L2520 566M2448 615L2415 686M6 720L-38 702M6 720L38 799M6 720L-14 734M2566 720L2522 702M2566 720L2546 734M118 693L191 711M118 693L169 723M191 711L169 723M191 711L258 791M296 663L379 690M296 663L419 641M379 690L419 641M379 690L393 726M419 641L393 726M554 685L608 656M554 685L527 723M554 685L560 736M608 656L674 715M608 656L560 736M674 715L730 703M674 715L560 736M674 715L681 745M674 715L757 764M730 703L681 745M730 703L757 764M878 666L922 665M878 666L849 741M922 665L849 741M1032 682L1042 651M1032 682L1006 728M1032 682L1059 752M1042 651L1133 670M1042 651L1006 728M1133 670L1059 752M1244 658L1358 642M1244 658L1275 735M1358 642L1420 685M1358 642L1467 683M1420 685L1467 683M1420 685L1369 774M1467 683L1588 646M1467 683L1479 771M1588 646L1675 706M1588 646L1600 733M1675 706L1693 701M1675 706L1600 733M1675 706L1693 765M1693 701L1693 765M1821 670L1880 644M1821 670L1881 739M1880 644L1921 699M1921 699L2003 702M1921 699L1881 739M1921 699L1932 753M2003 702L2096 658M2003 702L1932 753M2003 702L2070 765M2096 658L2205 664M2096 658L2121 744M2205 664L2275 663M2275 663L2345 713M2345 713L2415 686M2345 713L2289 753M2345 713L2355 733M2415 686L2522 702M2415 686L2355 733M2522 702L2546 734M38 799L-14 734M38 799L66 864M38 799L83 808M38 799L-30 856M2598 799L2546 734M2598 799L2530 856M156 799L169 723M156 799L258 791M156 799L83 808M156 799L169 823M156 799L167 904M258 791L169 823M258 791L318 874M258 791L294 884M393 726L464 785M464 785L527 723M464 785L560 736M464 785L456 868M527 723L560 736M681 745L757 764M681 745L691 867M757 764L849 741M757 764L735 848M849 741L960 776M849 741L835 858M960 776L1006 728M960 776L1059 752M960 776L955 814M960 776L1008 851M1006 728L1059 752M1006 728L955 814M1059 752L1167 785M1167 785L1275 735M1167 785L1189 862M1167 785L1155 903M1275 735L1298 767M1275 735L1369 774M1275 735L1280 841M1298 767L1369 774M1298 767L1280 841M1298 767L1331 841M1369 774L1331 841M1479 771L1548 784M1479 771L1504 810M1548 784L1600 733M1548 784L1504 810M1548 784L1589 861M1548 784L1611 801M1600 733L1693 765M1600 733L1611 801M1693 765L1611 801M1693 765L1753 834M1827 783L1881 739M1827 783L1932 753M1827 783L1753 834M1827 783L1781 870M1827 783L1865 820M1881 739L1932 753M1881 739L1865 820M1932 753L1865 820M2070 765L2121 744M2070 765L2163 765M2070 765L1992 854M2070 765L2081 806M2121 744L2163 765M2121 744L2081 806M2121 744L2222 802M2163 765L2289 753M2163 765L2081 806M2163 765L2222 802M2289 753L2355 733M2289 753L2222 802M2289 753L2301 809M2355 733L2420 792M2355 733L2301 809M2420 792L2398 854M2420 792L2455 829M66 864L83 808M66 864L-30 856M66 864L27 944M66 864L111 891M2626 864L2530 856M83 808L169 823M83 808L111 891M169 823L111 891M169 823L167 904M318 874L373 871M318 874L294 884M318 874L385 932M318 874L405 900M373 871L456 868M373 871L294 884M373 871L385 932M373 871L405 900M456 868L553 876M456 868L405 900M456 868L538 903M553 876L609 878M553 876L538 903M553 876L570 952M609 878L691 867M609 878L538 903M609 878L570 952M609 878L705 903M691 867L735 848M691 867L705 903M691 867L740 945M735 848L835 858M735 848L705 903M735 848L833 908M835 858L833 908M835 858L837 975M955 814L1008 851M955 814L952 900M1008 851L1068 879M1008 851L952 900M1008 851L1038 913M1068 879L1038 913M1068 879L1069 924M1068 879L1155 903M1189 862L1280 841M1189 862L1155 903M1189 862L1273 936M1280 841L1331 841M1280 841L1345 907M1331 841L1426 860M1331 841L1345 907M1426 860L1345 907M1426 860L1413 938M1426 860L1468 897M1504 810L1589 861M1504 810L1468 897M1504 810L1528 896M1589 861L1611 801M1589 861L1528 896M1589 861L1614 926M1611 801L1614 926M1753 834L1781 870M1753 834L1713 913M1781 870L1865 820M1781 870L1713 913M1781 870L1812 941M1865 820L1920 893M1992 854L2045 877M1992 854L2081 806M1992 854L1920 893M1992 854L2044 899M2045 877L2081 806M2045 877L1920 893M2045 877L2044 899M2045 877L2110 929M2222 802L2301 809M2222 802L2226 905M2301 809L2398 854M2301 809L2348 884M2398 854L2455 829M2398 854L2348 884M2398 854L2424 951M2455 829L2530 856M2530 856L2521 955M27 944L111 891M27 944L-39 955M27 944L1 1013M27 944L-1 1024M2587 944L2521 955M2587 944L2559 1024M111 891L167 904M167 904L245 1009M294 884L385 932M385 932L405 900M385 932L396 989M405 900L396 989M538 903L570 952M570 952L504 1015M705 903L740 945M705 903L686 994M740 945L833 908M740 945L686 994M740 945L732 1023M833 908L952 900M833 908L837 975M952 900L1038 913M1038 913L1069 924M1038 913L1086 990M1069 924L1155 903M1069 924L1086 990M1273 936L1345 907M1273 936L1283 1004M1345 907L1413 938M1413 938L1468 897M1413 938L1435 965M1468 897L1528 896M1468 897L1435 965M1528 896L1614 926M1614 926L1713 913M1614 926L1622 1027M1713 913L1740 974M1812 941L1855 959M1812 941L1740 974M1812 941L1838 1030M1812 941L1870 984M1855 959L1920 893M1855 959L1740 974M1855 959L1838 1030M1855 959L1870 984M1920 893L1870 984M2044 899L2110 929M2110 929L2146 985M2226 905L2265 920M2226 905L2146 985M2226 905L2197 983M2226 905L2305 971M2265 920L2348 884M2265 920L2197 983M2265 920L2305 971M2348 884L2305 971M2348 884L2379 975M2424 951L2379 975M2424 951L2453 968M2521 955L2561 1013M2521 955L2453 968M2521 955L2559 1024M-39 955L1 1013M1 1013L-1 1024M1 1013L33 1055M1 1013L-9 1073M2561 1013L2559 1024M2561 1013L2551 1073M138 1017L216 1017M138 1017L245 1009M138 1017L107 1046M216 1017L245 1009M216 1017L107 1046M216 1017L223 1088M245 1009L223 1088M245 1009L319 1092M396 989L470 1028M396 989L504 1015M396 989L412 1068M470 1028L504 1015M470 1028L412 1068M470 1028L544 1119M470 1028L584 1056M504 1015L412 1068M504 1015L584 1056M636 1034L686 994M636 1034L584 1056M636 1034L701 1090M686 994L732 1023M732 1023L701 1090M732 1023L736 1088M732 1023L808 1091M837 975L923 1009M923 1009L948 1061M923 1009L972 1098M1029 1038L1086 990M1029 1038L948 1061M1029 1038L972 1098M1029 1038L1088 1050M1029 1038L1030 1148M1086 990L1138 1021M1086 990L1088 1050M1138 1021L1215 1031M1138 1021L1088 1050M1138 1021L1164 1115M1215 1031L1283 1004M1215 1031L1263 1109M1215 1031L1204 1126M1283 1004L1316 1087M1435 965L1463 1032M1435 965L1527 1014M1435 965L1423 1062M1463 1032L1527 1014M1463 1032L1423 1062M1463 1032L1514 1081M1463 1032L1537 1112M1527 1014L1622 1027M1527 1014L1514 1081M1622 1027L1636 1108M1838 1030L1870 984M1838 1030L1773 1086M1838 1030L1850 1067M1870 984L1850 1067M1966 1029L2005 1036M1966 1029L1850 1067M1966 1029L1995 1108M1966 1029L2071 1072M2005 1036L1995 1108M2005 1036L2071 1072M2146 985L2197 983M2146 985L2129 1092M2197 983L2305 971M2197 983L2224 1074M2305 971L2379 975M2379 975L2453 968M2379 975L2410 1085M2559 1024L2593 1055M2559 1024L2551 1073M-1 1024L33 1055M33 1055L107 1046M33 1055L-9 1073M33 1055L3 1147M2593 1055L2551 1073M107 1046L160 1139M223 1088L160 1139M223 1088L226 1151M223 1088L311 1122M319 1092L342 1116M319 1092L412 1068M319 1092L311 1122M319 1092L348 1171M342 1116L412 1068M342 1116L311 1122M342 1116L348 1171M342 1116L411 1178M544 1119L584 1056M544 1119L545 1183M544 1119L576 1124M584 1056L576 1124M701 1090L736 1088M701 1090L808 1091M701 1090L672 1171M736 1088L808 1091M736 1088L827 1142M808 1091L794 1199M808 1091L827 1142M948 1061L972 1098M948 1061L903 1163M972 1098L903 1163M972 1098L1030 1148M1088 1050L1164 1115M1164 1115L1263 1109M1164 1115L1126 1193M1164 1115L1204 1126M1263 1109L1316 1087M1263 1109L1204 1126M1263 1109L1339 1158M1316 1087L1423 1062M1316 1087L1204 1126M1316 1087L1339 1158M1423 1062L1514 1081M1514 1081L1537 1112M1514 1081L1522 1143M1537 1112L1636 1108M1537 1112L1494 1190M1537 1112L1522 1143M1636 1108L1715 1109M1636 1108L1673 1194M1715 1109L1773 1086M1715 1109L1673 1194M1715 1109L1755 1172M1715 1109L1796 1136M1773 1086L1850 1067M1773 1086L1755 1172M1773 1086L1796 1136M1850 1067L1796 1136M1995 1108L2071 1072M1995 1108L1991 1192M1995 1108L2015 1167M2071 1072L2129 1092M2129 1092L2224 1074M2129 1092L2126 1183M2224 1074L2264 1114M2224 1074L2229 1164M2224 1074L2262 1160M2264 1114L2328 1081M2264 1114L2229 1164M2264 1114L2262 1160M2328 1081L2410 1085M2328 1081L2389 1137M2410 1085L2389 1137M2410 1085L2455 1186M2551 1073L2563 1147M-9 1073L3 1147M3 1147L-46 1184M3 1147L59 1224M2563 1147L2514 1184M160 1139L226 1151M160 1139L117 1210M226 1151L311 1122M226 1151L117 1210M226 1151L244 1244M311 1122L348 1171M348 1171L411 1178M348 1171L381 1260M411 1178L381 1260M411 1178L416 1273M545 1183L576 1124M545 1183L499 1276M545 1183L637 1227M576 1124L672 1171M672 1171L637 1227M794 1199L827 1142M794 1199L717 1247M794 1199L756 1243M794 1199L800 1260M827 1142L903 1163M827 1142L756 1243M903 1163L939 1227M903 1163L974 1229M1030 1148L1077 1164M1030 1148L974 1229M1030 1148L1092 1215M1077 1164L1126 1193M1077 1164L1092 1215M1077 1164L1125 1228M1126 1193L1204 1126M1126 1193L1092 1215M1126 1193L1125 1228M1339 1158L1428 1169M1339 1158L1324 1261M1339 1158L1365 1245M1428 1169L1494 1190M1428 1169L1522 1143M1428 1169L1365 1245M1428 1169L1512 1225M1494 1190L1522 1143M1494 1190L1512 1225M1494 1190L1584 1234M1522 1143L1512 1225M1673 1194L1755 1172M1673 1194L1674 1242M1673 1194L1743 1245M1755 1172L1796 1136M1755 1172L1743 1245M1796 1136L1862 1185M1862 1185L1850 1270M1991 1192L2015 1167M1991 1192L1994 1206M1991 1192L2069 1240M1991 1192L2064 1295M2015 1167L1994 1206M2126 1183L2229 1164M2126 1183L2069 1240M2126 1183L2131 1263M2229 1164L2262 1160M2229 1164L2213 1240M2262 1160L2213 1240M2262 1160L2280 1251M2389 1137L2455 1186M2389 1137L2329 1250M2389 1137L2437 1201M2455 1186L2514 1184M2455 1186L2437 1201M2455 1186L2536 1270M2514 1184L2619 1224M2514 1184L2437 1201M2514 1184L2536 1270M-46 1184L59 1224M59 1224L117 1210M59 1224L-24 1270M2619 1224L2536 1270M202 1279L244 1244M202 1279L152 1352M202 1279L223 1327M202 1279L243 1357M202 1279L239 1363M244 1244L223 1327M244 1244L243 1357M381 1260L416 1273M381 1260L341 1358M381 1260L447 1318M416 1273L499 1276M416 1273L447 1318M416 1273L483 1345M499 1276L447 1318M499 1276L483 1345M499 1276L467 1375M637 1227L717 1247M637 1227L635 1332M717 1247L756 1243M717 1247L800 1260M717 1247L722 1291M756 1243L800 1260M756 1243L722 1291M800 1260L722 1291M800 1260L875 1291M939 1227L974 1229M939 1227L875 1291M974 1229L1092 1215M1092 1215L1125 1228M1125 1228L1199 1309M1254 1235L1324 1261M1254 1235L1199 1309M1254 1235L1231 1306M1254 1235L1284 1294M1324 1261L1365 1245M1324 1261L1231 1306M1324 1261L1284 1294M1365 1245L1284 1294M1365 1245L1416 1336M1512 1225L1584 1234M1512 1225L1472 1281M1584 1234L1674 1242M1584 1234L1599 1333M1584 1234L1641 1299M1674 1242L1743 1245M1674 1242L1641 1299M1674 1242L1706 1295M1743 1245L1829 1276M1743 1245L1706 1295M1829 1276L1850 1270M1829 1276L1840 1334M1829 1276L1915 1324M1850 1270L1840 1334M1850 1270L1915 1324M1850 1270L1921 1335M1994 1206L2069 1240M2069 1240L2131 1263M2069 1240L2064 1295M2131 1263L2213 1240M2131 1263L2064 1295M2213 1240L2280 1251M2213 1240L2289 1295M2280 1251L2329 1250M2280 1251L2289 1295M2329 1250L2437 1201M2329 1250L2289 1295M2329 1250L2395 1284M2437 1201L2395 1284M2536 1270L2485 1353M2536 1270L2546 1364M77 1358L152 1352M77 1358L66 1431M77 1358L82 1397M77 1358L-14 1364M2637 1358L2546 1364M152 1352L223 1327M152 1352L82 1397M152 1352L239 1363M223 1327L243 1357M223 1327L239 1363M243 1357L239 1363M243 1357L306 1373M341 1358L306 1373M341 1358L365 1437M447 1318L483 1345M447 1318L467 1375M483 1345L467 1375M483 1345L507 1401M635 1332L684 1342M635 1332L722 1291M635 1332L621 1422M635 1332L694 1430M684 1342L722 1291M684 1342L621 1422M684 1342L694 1430M684 1342L743 1400M875 1291L895 1343M875 1291L868 1371M895 1343L868 1371M895 1343L899 1407M1014 1354L1091 1344M1014 1354L991 1387M1014 1354L1065 1424M1091 1344L1065 1424M1091 1344L1140 1393M1199 1309L1231 1306M1199 1309L1284 1294M1199 1309L1140 1393M1231 1306L1284 1294M1416 1336L1472 1281M1416 1336L1350 1435M1416 1336L1387 1362M1472 1281L1387 1362M1599 1333L1641 1299M1599 1333L1706 1295M1599 1333L1558 1425M1599 1333L1631 1416M1641 1299L1706 1295M1641 1299L1631 1416M1706 1295L1756 1364M1840 1334L1915 1324M1840 1334L1921 1335M1840 1334L1756 1364M1915 1324L1921 1335M1921 1335L1976 1425M1921 1335L2025 1368M2064 1295L2096 1340M2064 1295L2025 1368M2096 1340L2171 1352M2096 1340L2025 1368M2096 1340L2149 1392M2096 1340L2182 1366M2171 1352L2149 1392M2171 1352L2182 1366M2289 1295L2395 1284M2289 1295L2182 1366M2395 1284L2408 1359M2408 1359L2485 1353M2408 1359L2359 1422M2408 1359L2416 1396M2485 1353L2416 1396M2485 1353L2546 1364M66 1431L82 1397M66 1431L-14 1364M2626 1431L2546 1364M82 1397L-14 1364M2642 1397L2546 1364M239 1363L306 1373M306 1373L365 1437M365 1437L467 1375M467 1375L507 1401M507 1401L621 1422M621 1422L694 1430M694 1430L743 1400M868 1371L899 1407M899 1407L991 1387M991 1387L1065 1424M1065 1424L1140 1393M1140 1393L1230 1434M1230 1434L1350 1435M1350 1435L1387 1362M1515 1440L1558 1425M1515 1440L1631 1416M1558 1425L1631 1416M1756 1364L1821 1433M1756 1364L1844 1438M1821 1433L1844 1438M1976 1425L2025 1368M2149 1392L2182 1366M2182 1366L2288 1428M2288 1428L2359 1422M2359 1422L2416 1396"/></svg>