<svg xmlns="http://www.w3.org/2000/svg" width="2560" height="1440" fill="#fff"><circle cx="15" cy="8" r="5"/><circle cx="126" cy="60" r="5"/><circle cx="221" cy="60" r="4"/><circle cx="241" cy="22" r="5"/><circle cx="354" cy="70" r="4"/><circle cx="464" cy="5" r="5"/><circle cx="464" cy="1445" r="5"/><circle cx="558" cy="38" r="5"/><circle cx="600" cy="39" r="5"/><circle cx="683" cy="65" r="6"/><circle cx="787" cy="64" r="5"/><circle cx="815" cy="40" r="4"/><circle cx="899" cy="48" r="5"/><circle cx="967" cy="32" r="6"/><circle cx="1054" cy="55" r="4"/><circle cx="1150" cy="10" r="6"/><circle cx="1230" cy="47" r="4"/><circle cx="1317" cy="21" r="6"/><circle cx="1397" cy="21" r="4"/><circle cx="1497" cy="26" r="4"/><circle cx="1555" cy="47" r="5"/><circle cx="1676" cy="60" r="6"/><circle cx="1733" cy="23" r="5"/><circle cx="1819" cy="0" r="6"/><circle cx="1819" cy="1440" r="6"/><circle cx="1891" cy="4" r="5"/><circle cx="1891" cy="1444" r="5"/><circle cx="1978" cy="26" r="4"/><circle cx="2035" cy="60" r="5"/><circle cx="2102" cy="21" r="5"/><circle cx="2220" cy="25" r="5"/><circle cx="2303" cy="37" r="5"/><circle cx="2386" cy="40" r="5"/><circle cx="2407" cy="36" r="4"/><circle cx="2481" cy="21" r="6"/><circle cx="45" cy="140" r="5"/><circle cx="113" cy="116" r="6"/><circle cx="182" cy="82" r="5"/><circle cx="267" cy="128" r="6"/><circle cx="364" cy="152" r="6"/><circle cx="410" cy="90" r="6"/><circle cx="531" cy="151" r="5"/><circle cx="571" cy="120" r="6"/><circle cx="709" cy="124" r="5"/><circle cx="775" cy="144" r="4"/><circle cx="816" cy="156" r="5"/><circle cx="881" cy="109" r="6"/><circle cx="1015" cy="113" r="5"/><circle cx="1111" cy="103" r="5"/><circle cx="1194" cy="110" r="5"/><circle cx="1260" cy="119" r="5"/><circle cx="1316" cy="159" r="6"/><circle cx="1419" cy="135" r="5"/><circle cx="1457" cy="159" r="4"/><circle cx="1556" cy="111" r="6"/><circle cx="1634" cy="101" r="6"/><circle cx="1728" cy="134" r="6"/><circle cx="1775" cy="109" r="6"/><circle cx="1862" cy="142" r="5"/><circle cx="2000" cy="128" r="4"/><circle cx="2037" cy="143" r="5"/><circle cx="2158" cy="110" r="6"/><circle cx="2182" cy="145" r="6"/><circle cx="2253" cy="130" r="5"/><circle cx="2392" cy="110" r="6"/><circle cx="2438" cy="147" r="5"/><circle cx="2559" cy="154" r="4"/><circle cx="-1" cy="154" r="4"/><circle cx="41" cy="230" r="5"/><circle cx="81" cy="215" r="4"/><circle cx="180" cy="192" r="4"/><circle cx="303" cy="210" r="5"/><circle cx="397" cy="223" r="5"/><circle cx="454" cy="171" r="5"/><circle cx="481" cy="239" r="5"/><circle cx="600" cy="203" r="6"/><circle cx="679" cy="176" r="5"/><circle cx="788" cy="182" r="6"/><circle cx="835" cy="176" r="5"/><circle cx="907" cy="236" r="6"/><circle cx="997" cy="169" r="5"/><circle cx="1060" cy="240" r="5"/><circle cx="1136" cy="173" r="4"/><circle cx="1220" cy="209" r="5"/><circle cx="1309" cy="216" r="5"/><circle cx="1366" cy="180" r="4"/><circle cx="1465" cy="181" r="6"/><circle cx="1543" cy="185" r="5"/><circle cx="1607" cy="196" r="4"/><circle cx="1758" cy="165" r="5"/><circle cx="1789" cy="166" r="6"/><circle cx="1868" cy="229" r="6"/><circle cx="1984" cy="208" r="5"/><circle cx="2022" cy="215" r="5"/><circle cx="2122" cy="170" r="5"/><circle cx="2225" cy="230" r="6"/><circle cx="2282" cy="175" r="5"/><circle cx="2392" cy="172" r="5"/><circle cx="2458" cy="188" r="5"/><circle cx="2529" cy="175" r="6"/><circle cx="45" cy="288" r="5"/><circle cx="109" cy="308" r="4"/><circle cx="221" cy="289" r="5"/><circle cx="314" cy="286" r="5"/><circle cx="352" cy="319" r="4"/><circle cx="475" cy="250" r="6"/><circle cx="487" cy="280" r="5"/><circle cx="591" cy="276" r="6"/><circle cx="670" cy="240" r="4"/><circle cx="766" cy="259" r="4"/><circle cx="808" cy="244" r="5"/><circle cx="889" cy="252" r="4"/><circle cx="1022" cy="278" r="4"/><circle cx="1080" cy="284" r="5"/><circle cx="1198" cy="250" r="6"/><circle cx="1226" cy="279" r="6"/><circle cx="1303" cy="262" r="5"/><circle cx="1418" cy="295" r="4"/><circle cx="1459" cy="242" r="4"/><circle cx="1584" cy="258" r="5"/><circle cx="1631" cy="276" r="4"/><circle cx="1705" cy="263" r="4"/><circle cx="1814" cy="256" r="4"/><circle cx="1888" cy="263" r="4"/><circle cx="1951" cy="315" r="5"/><circle cx="2051" cy="261" r="5"/><circle cx="2115" cy="274" r="6"/><circle cx="2229" cy="249" r="5"/><circle cx="2246" cy="284" r="5"/><circle cx="2358" cy="282" r="5"/><circle cx="2443" cy="311" r="4"/><circle cx="2547" cy="266" r="5"/><circle cx="9" cy="338" r="5"/><circle cx="124" cy="356" r="5"/><circle cx="177" cy="395" r="5"/><circle cx="267" cy="374" r="6"/><circle cx="327" cy="344" r="5"/><circle cx="462" cy="379" r="5"/><circle cx="519" cy="323" r="4"/><circle cx="613" cy="333" r="6"/><circle cx="681" cy="392" r="6"/><circle cx="765" cy="342" r="6"/><circle cx="878" cy="345" r="6"/><circle cx="921" cy="335" r="5"/><circle cx="975" cy="368" r="5"/><circle cx="1112" cy="347" r="5"/><circle cx="1196" cy="387" r="5"/><circle cx="1218" cy="392" r="5"/><circle cx="1342" cy="379" r="5"/><circle cx="1401" cy="399" r="5"/><circle cx="1501" cy="326" r="6"/><circle cx="1593" cy="400" r="6"/><circle cx="1627" cy="373" r="5"/><circle cx="1725" cy="375" r="5"/><circle cx="1785" cy="331" r="5"/><circle cx="1903" cy="359" r="4"/><circle cx="1952" cy="365" r="5"/><circle cx="2078" cy="368" r="5"/><circle cx="2099" cy="353" r="5"/><circle cx="2238" cy="386" r="5"/><circle cx="2303" cy="353" r="6"/><circle cx="2352" cy="393" r="5"/><circle cx="2441" cy="393" r="6"/><circle cx="2527" cy="359" r="5"/><circle cx="59" cy="425" r="5"/><circle cx="151" cy="403" r="6"/><circle cx="234" cy="467" r="5"/><circle cx="282" cy="424" r="5"/><circle cx="385" cy="401" r="5"/><circle cx="474" cy="452" r="5"/><circle cx="556" cy="460" r="4"/><circle cx="638" cy="474" r="5"/><circle cx="698" cy="466" r="5"/><circle cx="724" cy="410" r="5"/><circle cx="816" cy="468" r="5"/><circle cx="889" cy="400" r="5"/><circle cx="972" cy="407" r="5"/><circle cx="1087" cy="467" r="5"/><circle cx="1167" cy="465" r="5"/><circle cx="1230" cy="461" r="4"/><circle cx="1310" cy="459" r="6"/><circle cx="1405" cy="453" r="4"/><circle cx="1455" cy="414" r="5"/><circle cx="1592" cy="456" r="6"/><circle cx="1632" cy="446" r="5"/><circle cx="1713" cy="416" r="5"/><circle cx="1813" cy="404" r="4"/><circle cx="1899" cy="402" r="4"/><circle cx="1968" cy="420" r="6"/><circle cx="2073" cy="406" r="5"/><circle cx="2137" cy="446" r="5"/><circle cx="2169" cy="431" r="6"/><circle cx="2309" cy="476" r="6"/><circle cx="2379" cy="457" r="6"/><circle cx="2414" cy="453" r="4"/><circle cx="2497" cy="425" r="4"/><circle cx="19" cy="548" r="5"/><circle cx="116" cy="499" r="5"/><circle cx="184" cy="482" r="5"/><circle cx="285" cy="493" r="5"/><circle cx="372" cy="558" r="5"/><circle cx="457" cy="528" r="4"/><circle cx="554" cy="507" r="6"/><circle cx="606" cy="527" r="4"/><circle cx="666" cy="502" r="5"/><circle cx="746" cy="544" r="5"/><circle cx="842" cy="537" r="5"/><circle cx="923" cy="517" r="5"/><circle cx="1014" cy="489" r="5"/><circle cx="1085" cy="497" r="5"/><circle cx="1137" cy="496" r="5"/><circle cx="1202" cy="489" r="5"/><circle cx="1288" cy="514" r="5"/><circle cx="1435" cy="493" r="6"/><circle cx="1514" cy="535" r="5"/><circle cx="1573" cy="533" r="4"/><circle cx="1667" cy="492" r="6"/><circle cx="1735" cy="534" r="5"/><circle cx="1788" cy="502" r="5"/><circle cx="1853" cy="545" r="5"/><circle cx="1946" cy="498" r="6"/><circle cx="2058" cy="520" r="5"/><circle cx="2159" cy="491" r="6"/><circle cx="2200" cy="510" r="5"/><circle cx="2297" cy="515" r="5"/><circle cx="2394" cy="517" r="5"/><circle cx="2458" cy="484" r="4"/><circle cx="2487" cy="498" r="6"/><circle cx="44" cy="598" r="5"/><circle cx="103" cy="587" r="5"/><circle cx="214" cy="602" r="4"/><circle cx="256" cy="611" r="4"/><circle cx="367" cy="613" r="5"/><circle cx="401" cy="569" r="6"/><circle cx="539" cy="595" r="4"/><circle cx="612" cy="561" r="6"/><circle cx="704" cy="617" r="5"/><circle cx="788" cy="576" r="6"/><circle cx="854" cy="617" r="4"/><circle cx="895" cy="598" r="4"/><circle cx="1004" cy="584" r="5"/><circle cx="1097" cy="624" r="4"/><circle cx="1176" cy="564" r="5"/><circle cx="1228" cy="599" r="5"/><circle cx="1319" cy="564" r="5"/><circle cx="1412" cy="602" r="6"/><circle cx="1482" cy="603" r="4"/><circle cx="1597" cy="578" r="6"/><circle cx="1635" cy="572" r="5"/><circle cx="1759" cy="601" r="5"/><circle cx="1827" cy="637" r="6"/><circle cx="1863" cy="601" r="4"/><circle cx="1988" cy="622" r="5"/><circle cx="2077" cy="577" r="5"/><circle cx="2146" cy="577" r="5"/><circle cx="2238" cy="592" r="4"/><circle cx="2319" cy="608" r="5"/><circle cx="2391" cy="584" r="4"/><circle cx="2410" cy="608" r="4"/><circle cx="2556" cy="606" r="5"/><circle cx="-4" cy="606" r="5"/><circle cx="75" cy="708" r="4"/><circle cx="100" cy="688" r="5"/><circle cx="232" cy="704" r="5"/><circle cx="250" cy="699" r="6"/><circle cx="330" cy="651" r="4"/><circle cx="446" cy="644" r="5"/><circle cx="504" cy="675" r="4"/><circle cx="631" cy="707" r="5"/><circle cx="675" cy="641" r="4"/><circle cx="778" cy="696" r="4"/><circle cx="868" cy="686" r="5"/><circle cx="881" cy="682" r="5"/><circle cx="995" cy="697" r="6"/><circle cx="1067" cy="644" r="6"/><circle cx="1180" cy="654" r="6"/><circle cx="1239" cy="666" r="6"/><circle cx="1305" cy="708" r="5"/><circle cx="1384" cy="679" r="5"/><circle cx="1512" cy="696" r="5"/><circle cx="1558" cy="706" r="4"/><circle cx="1661" cy="703" r="5"/><circle cx="1711" cy="647" r="5"/><circle cx="1812" cy="666" r="5"/><circle cx="1919" cy="661" r="5"/><circle cx="1976" cy="663" r="4"/><circle cx="2043" cy="712" r="5"/><circle cx="2119" cy="641" r="5"/><circle cx="2171" cy="699" r="4"/><circle cx="2242" cy="711" r="5"/><circle cx="2333" cy="700" r="5"/><circle cx="2415" cy="713" r="5"/><circle cx="2489" cy="664" r="4"/><circle cx="39" cy="744" r="5"/><circle cx="96" cy="747" r="6"/><circle cx="212" cy="792" r="5"/><circle cx="260" cy="776" r="4"/><circle cx="376" cy="732" r="4"/><circle cx="404" cy="770" r="6"/><circle cx="549" cy="774" r="6"/><circle cx="592" cy="756" r="6"/><circle cx="690" cy="768" r="6"/><circle cx="766" cy="758" r="4"/><circle cx="852" cy="750" r="5"/><circle cx="885" cy="757" r="6"/><circle cx="1031" cy="770" r="5"/><circle cx="1083" cy="756" r="5"/><circle cx="1177" cy="745" r="5"/><circle cx="1244" cy="742" r="5"/><circle cx="1322" cy="728" r="4"/><circle cx="1410" cy="734" r="4"/><circle cx="1452" cy="725" r="6"/><circle cx="1552" cy="756" r="5"/><circle cx="1613" cy="727" r="5"/><circle cx="1723" cy="787" r="5"/><circle cx="1773" cy="773" r="6"/><circle cx="1879" cy="755" r="5"/><circle cx="1929" cy="725" r="4"/><circle cx="2004" cy="786" r="5"/><circle cx="2117" cy="760" r="6"/><circle cx="2203" cy="771" r="6"/><circle cx="2252" cy="741" r="5"/><circle cx="2381" cy="791" r="4"/><circle cx="2459" cy="781" r="6"/><circle cx="2503" cy="732" r="5"/><circle cx="32" cy="813" r="4"/><circle cx="101" cy="869" r="6"/><circle cx="225" cy="807" r="5"/><circle cx="304" cy="846" r="4"/><circle cx="367" cy="801" r="5"/><circle cx="457" cy="825" r="6"/><circle cx="492" cy="836" r="5"/><circle cx="593" cy="854" r="4"/><circle cx="710" cy="814" r="5"/><circle cx="798" cy="817" r="6"/><circle cx="842" cy="832" r="5"/><circle cx="937" cy="813" r="6"/><circle cx="970" cy="813" r="4"/><circle cx="1088" cy="873" r="4"/><circle cx="1200" cy="819" r="6"/><circle cx="1234" cy="863" r="6"/><circle cx="1327" cy="820" r="6"/><circle cx="1423" cy="807" r="5"/><circle cx="1477" cy="804" r="4"/><circle cx="1531" cy="834" r="4"/><circle cx="1601" cy="833" r="6"/><circle cx="1698" cy="824" r="6"/><circle cx="1765" cy="875" r="4"/><circle cx="1905" cy="809" r="6"/><circle cx="1968" cy="850" r="5"/><circle cx="2018" cy="856" r="5"/><circle cx="2097" cy="857" r="6"/><circle cx="2191" cy="835" r="6"/><circle cx="2283" cy="800" r="5"/><circle cx="2336" cy="837" r="4"/><circle cx="2440" cy="864" r="5"/><circle cx="2553" cy="865" r="4"/><circle cx="74" cy="903" r="5"/><circle cx="116" cy="937" r="4"/><circle cx="162" cy="945" r="4"/><circle cx="306" cy="901" r="5"/><circle cx="323" cy="949" r="6"/><circle cx="401" cy="902" r="4"/><circle cx="519" cy="917" r="4"/><circle cx="636" cy="942" r="4"/><circle cx="682" cy="925" r="5"/><circle cx="739" cy="909" r="6"/><circle cx="829" cy="914" r="5"/><circle cx="932" cy="957" r="6"/><circle cx="1021" cy="899" r="5"/><circle cx="1093" cy="957" r="4"/><circle cx="1150" cy="952" r="5"/><circle cx="1204" cy="958" r="5"/><circle cx="1306" cy="919" r="5"/><circle cx="1372" cy="911" r="5"/><circle cx="1470" cy="930" r="6"/><circle cx="1527" cy="936" r="5"/><circle cx="1664" cy="940" r="4"/><circle cx="1686" cy="954" r="6"/><circle cx="1809" cy="943" r="6"/><circle cx="1852" cy="927" r="6"/><circle cx="1980" cy="941" r="5"/><circle cx="2049" cy="914" r="5"/><circle cx="2120" cy="928" r="4"/><circle cx="2171" cy="935" r="5"/><circle cx="2307" cy="915" r="5"/><circle cx="2335" cy="887" r="5"/><circle cx="2420" cy="948" r="6"/><circle cx="2497" cy="940" r="5"/><circle cx="22" cy="1030" r="6"/><circle cx="157" cy="1019" r="4"/><circle cx="227" cy="980" r="5"/><circle cx="319" cy="968" r="6"/><circle cx="386" cy="989" r="6"/><circle cx="475" cy="1018" r="5"/><circle cx="526" cy="997" r="6"/><circle cx="626" cy="1006" r="6"/><circle cx="703" cy="994" r="5"/><circle cx="774" cy="961" r="4"/><circle cx="866" cy="991" r="4"/><circle cx="943" cy="984" r="5"/><circle cx="1039" cy="990" r="5"/><circle cx="1118" cy="1028" r="5"/><circle cx="1175" cy="985" r="5"/><circle cx="1274" cy="961" r="4"/><circle cx="1330" cy="989" r="5"/><circle cx="1394" cy="1020" r="4"/><circle cx="1504" cy="1007" r="5"/><circle cx="1584" cy="975" r="4"/><circle cx="1620" cy="1003" r="6"/><circle cx="1718" cy="1027" r="6"/><circle cx="1780" cy="1028" r="6"/><circle cx="1908" cy="1018" r="4"/><circle cx="1986" cy="1032" r="5"/><circle cx="2005" cy="1039" r="6"/><circle cx="2090" cy="1006" r="6"/><circle cx="2194" cy="1038" r="5"/><circle cx="2255" cy="981" r="5"/><circle cx="2322" cy="990" r="5"/><circle cx="2413" cy="989" r="4"/><circle cx="2494" cy="985" r="6"/><circle cx="65" cy="1047" r="6"/><circle cx="133" cy="1111" r="5"/><circle cx="180" cy="1099" r="5"/><circle cx="303" cy="1089" r="6"/><circle cx="322" cy="1104" r="4"/><circle cx="426" cy="1100" r="5"/><circle cx="529" cy="1120" r="5"/><circle cx="602" cy="1084" r="5"/><circle cx="642" cy="1091" r="6"/><circle cx="785" cy="1115" r="5"/><circle cx="835" cy="1076" r="4"/><circle cx="930" cy="1051" r="6"/><circle cx="1006" cy="1120" r="4"/><circle cx="1046" cy="1104" r="6"/><circle cx="1173" cy="1080" r="5"/><circle cx="1262" cy="1100" r="5"/><circle cx="1298" cy="1097" r="5"/><circle cx="1367" cy="1113" r="4"/><circle cx="1446" cy="1101" r="5"/><circle cx="1537" cy="1076" r="5"/><circle cx="1639" cy="1107" r="5"/><circle cx="1703" cy="1062" r="5"/><circle cx="1765" cy="1099" r="5"/><circle cx="1905" cy="1062" r="5"/><circle cx="1998" cy="1104" r="4"/><circle cx="2055" cy="1102" r="5"/><circle cx="2110" cy="1063" r="5"/><circle cx="2172" cy="1082" r="6"/><circle cx="2303" cy="1093" r="6"/><circle cx="2380" cy="1091" r="4"/><circle cx="2475" cy="1115" r="4"/><circle cx="2546" cy="1056" r="4"/><circle cx="18" cy="1191" r="5"/><circle cx="123" cy="1138" r="4"/><circle cx="172" cy="1170" r="5"/><circle cx="246" cy="1163" r="6"/><circle cx="399" cy="1184" r="5"/><circle cx="431" cy="1173" r="5"/><circle cx="558" cy="1134" r="5"/><circle cx="600" cy="1133" r="5"/><circle cx="654" cy="1186" r="6"/><circle cx="778" cy="1172" r="5"/><circle cx="814" cy="1177" r="5"/><circle cx="921" cy="1197" r="6"/><circle cx="1028" cy="1167" r="6"/><circle cx="1088" cy="1146" r="5"/><circle cx="1184" cy="1181" r="5"/><circle cx="1258" cy="1126" r="5"/><circle cx="1335" cy="1134" r="4"/><circle cx="1411" cy="1146" r="5"/><circle cx="1444" cy="1168" r="6"/><circle cx="1557" cy="1186" r="5"/><circle cx="1635" cy="1165" r="5"/><circle cx="1731" cy="1126" r="6"/><circle cx="1777" cy="1190" r="4"/><circle cx="1878" cy="1164" r="4"/><circle cx="1932" cy="1126" r="5"/><circle cx="2040" cy="1149" r="6"/><circle cx="2090" cy="1189" r="5"/><circle cx="2174" cy="1178" r="5"/><circle cx="2279" cy="1171" r="5"/><circle cx="2355" cy="1127" r="5"/><circle cx="2461" cy="1150" r="6"/><circle cx="2529" cy="1151" r="6"/><circle cx="52" cy="1247" r="5"/><circle cx="80" cy="1251" r="6"/><circle cx="178" cy="1246" r="6"/><circle cx="278" cy="1273" r="5"/><circle cx="344" cy="1260" r="5"/><circle cx="408" cy="1225" r="5"/><circle cx="484" cy="1225" r="5"/><circle cx="568" cy="1265" r="5"/><circle cx="704" cy="1247" r="5"/><circle cx="725" cy="1279" r="6"/><circle cx="859" cy="1220" r="4"/><circle cx="921" cy="1267" r="6"/><circle cx="976" cy="1206" r="4"/><circle cx="1083" cy="1237" r="5"/><circle cx="1168" cy="1250" r="5"/><circle cx="1256" cy="1230" r="5"/><circle cx="1333" cy="1261" r="4"/><circle cx="1362" cy="1270" r="5"/><circle cx="1518" cy="1231" r="4"/><circle cx="1544" cy="1277" r="4"/><circle cx="1628" cy="1221" r="5"/><circle cx="1756" cy="1213" r="5"/><circle cx="1795" cy="1224" r="6"/><circle cx="1840" cy="1265" r="6"/><circle cx="1969" cy="1228" r="5"/><circle cx="2068" cy="1260" r="5"/><circle cx="2115" cy="1233" r="5"/><circle cx="2236" cy="1231" r="4"/><circle cx="2299" cy="1208" r="5"/><circle cx="2360" cy="1270" r="6"/><circle cx="2450" cy="1202" r="4"/><circle cx="2515" cy="1231" r="5"/><circle cx="31" cy="1359" r="6"/><circle cx="89" cy="1308" r="4"/><circle cx="238" cy="1330" r="6"/><circle cx="261" cy="1335" r="6"/><circle cx="325" cy="1305" r="5"/><circle cx="423" cy="1324" r="5"/><circle cx="558" cy="1346" r="5"/><circle cx="568" cy="1302" r="6"/><circle cx="647" cy="1327" r="5"/><circle cx="725" cy="1332" r="6"/><circle cx="875" cy="1342" r="5"/><circle cx="903" cy="1284" r="5"/><circle cx="997" cy="1353" r="4"/><circle cx="1107" cy="1304" r="6"/><circle cx="1197" cy="1319" r="4"/><circle cx="1209" cy="1336" r="4"/><circle cx="1335" cy="1305" r="4"/><circle cx="1403" cy="1300" r="4"/><circle cx="1514" cy="1285" r="4"/><circle cx="1534" cy="1335" r="5"/><circle cx="1679" cy="1307" r="5"/><circle cx="1688" cy="1335" r="5"/><circle cx="1779" cy="1282" r="6"/><circle cx="1850" cy="1302" r="6"/><circle cx="1998" cy="1316" r="5"/><circle cx="2046" cy="1346" r="6"/><circle cx="2087" cy="1339" r="5"/><circle cx="2209" cy="1293" r="6"/><circle cx="2288" cy="1345" r="5"/><circle cx="2365" cy="1358" r="5"/><circle cx="2458" cy="1310" r="5"/><circle cx="2538" cy="1341" r="6"/><circle cx="23" cy="1383" r="5"/><circle cx="100" cy="1401" r="6"/><circle cx="199" cy="1374" r="5"/><circle cx="291" cy="1418" r="5"/><circle cx="343" cy="1425" r="5"/><circle cx="409" cy="1375" r="5"/><circle cx="518" cy="1414" r="6"/><circle cx="566" cy="1365" r="6"/><circle cx="653" cy="1364" r="5"/><circle cx="754" cy="1411" r="6"/><circle cx="822" cy="1421" r="5"/><circle cx="945" cy="1385" r="4"/><circle cx="987" cy="1380" r="5"/><circle cx="1086" cy="1362" r="4"/><circle cx="1141" cy="1435" r="6"/><circle cx="1141" cy="-5" r="6"/><circle cx="1267" cy="1440" r="6"/><circle cx="1267" cy="-0" r="6"/><circle cx="1358" cy="1428" r="5"/><circle cx="1398" cy="1374" r="5"/><circle cx="1451" cy="1419" r="4"/><circle cx="1566" cy="1405" r="4"/><circle cx="1667" cy="1427" r="4"/><circle cx="1752" cy="1389" r="5"/><circle cx="1813" cy="1390" r="6"/><circle cx="1884" cy="1394" r="5"/><circle cx="1978" cy="1394" r="4"/><circle cx="2013" cy="1378" r="4"/><circle cx="2159" cy="1387" r="5"/><circle cx="2197" cy="1418" r="6"/><circle cx="2244" cy="1430" r="6"/><circle cx="2347" cy="1382" r="6"/><circle cx="2480" cy="1387" r="5"/><circle cx="2526" cy="1421" r="4"/><path stroke="#fff" d="M15 8L-79 21M15 8L31 -81M15 8L23 -57M15 8L100 -39M15 8L-34 -19M2575 8L2481 21M2575 8L2526 -19M15 1448L31 1359M15 1448L23 1383M15 1448L100 1401M15 1448L-34 1421M2575 1448L2526 1421M126 60L221 60M126 60L113 116M126 60L182 82M221 60L241 22M221 60L182 82M221 60L267 128M241 22L182 82M241 22L267 128M241 22L199 -66M241 22L291 -22M241 1462L199 1374M241 1462L291 1418M354 70L364 152M354 70L410 90M354 70L343 -15M354 1510L343 1425M464 5L558 38M464 5L410 90M464 5L409 -65M464 5L518 -26M464 1445L409 1375M464 1445L518 1414M558 38L600 39M558 38L571 120M558 38L518 -26M558 1478L518 1414M600 39L683 65M600 39L571 120M600 39L518 -26M600 1479L518 1414M683 65L709 124M683 65L679 176M683 65L754 -29M683 1505L754 1411M787 64L815 40M787 64L775 144M787 64L881 109M787 64L754 -29M787 64L822 -19M787 1504L754 1411M787 1504L822 1421M815 40L899 48M815 40L881 109M815 40L754 -29M815 40L822 -19M815 1480L754 1411M815 1480L822 1421M899 48L967 32M899 48L881 109M899 48L822 -19M899 48L945 -55M899 1488L822 1421M899 1488L945 1385M967 32L1054 55M967 32L1015 113M967 32L945 -55M967 32L987 -60M967 1472L945 1385M967 1472L987 1380M1054 55L1015 113M1054 55L1111 103M1054 55L1141 -5M1054 1495L1141 1435M1150 10L1230 47M1150 10L1111 103M1150 10L1141 -5M1150 10L1267 -0M1150 1450L1141 1435M1150 1450L1267 1440M1230 47L1317 21M1230 47L1194 110M1230 47L1260 119M1230 47L1267 -0M1230 1487L1267 1440M1317 21L1397 21M1317 21L1267 -0M1317 21L1358 -12M1317 1461L1267 1440M1317 1461L1358 1428M1397 21L1497 26M1397 21L1358 -12M1397 21L1398 -66M1397 21L1451 -21M1397 1461L1358 1428M1397 1461L1398 1374M1397 1461L1451 1419M1497 26L1555 47M1497 26L1556 111M1497 26L1451 -21M1497 26L1566 -35M1497 1466L1451 1419M1497 1466L1566 1405M1555 47L1556 111M1555 47L1634 101M1555 47L1566 -35M1555 1487L1566 1405M1676 60L1733 23M1676 60L1634 101M1676 60L1728 134M1676 60L1667 -13M1676 1500L1667 1427M1733 23L1819 0M1733 23L1775 109M1733 23L1667 -13M1733 23L1752 -51M1733 1463L1667 1427M1733 1463L1752 1389M1819 0L1891 4M1819 0L1752 -51M1819 0L1813 -50M1819 0L1884 -46M1819 1440L1752 1389M1819 1440L1813 1390M1819 1440L1884 1394M1891 4L1978 26M1891 4L1813 -50M1891 4L1884 -46M1891 1444L1813 1390M1891 1444L1884 1394M1978 26L2035 60M1978 26L2000 128M1978 26L1978 -46M1978 26L2013 -62M1978 1466L1978 1394M1978 1466L2013 1378M2035 60L2102 21M2035 60L2000 128M2035 60L2037 143M2102 21L2158 110M2102 21L2159 -53M2102 21L2197 -22M2102 1461L2159 1387M2102 1461L2197 1418M2220 25L2303 37M2220 25L2158 110M2220 25L2197 -22M2220 25L2244 -10M2220 1465L2197 1418M2220 1465L2244 1430M2303 37L2386 40M2303 37L2244 -10M2303 37L2347 -58M2303 1477L2244 1430M2303 1477L2347 1382M2386 40L2407 36M2386 40L2481 21M2386 40L2392 110M2386 40L2347 -58M2386 1480L2347 1382M2407 36L2481 21M2407 36L2392 110M2481 21L2480 -53M2481 21L2526 -19M2481 1461L2480 1387M2481 1461L2526 1421M45 140L113 116M45 140L-1 154M45 140L41 230M45 140L81 215M45 140L-31 175M2605 140L2559 154M2605 140L2529 175M113 116L182 82M113 116L81 215M113 116L180 192M182 82L267 128M267 128L303 210M364 152L410 90M364 152L303 210M364 152L397 223M410 90L454 171M410 90L343 -15M410 1530L343 1425M531 151L571 120M531 151L454 171M531 151L600 203M571 120L600 203M709 124L775 144M709 124L679 176M775 144L816 156M775 144L788 182M775 144L835 176M816 156L881 109M816 156L788 182M816 156L835 176M816 156L808 244M881 109L835 176M1015 113L1111 103M1015 113L997 169M1111 103L1194 110M1111 103L1136 173M1194 110L1260 119M1194 110L1136 173M1260 119L1316 159M1316 159L1419 135M1316 159L1309 216M1316 159L1366 180M1316 159L1303 262M1419 135L1457 159M1419 135L1366 180M1419 135L1465 181M1419 135L1459 242M1457 159L1465 181M1457 159L1543 185M1457 159L1459 242M1556 111L1634 101M1556 111L1543 185M1556 111L1607 196M1634 101L1728 134M1634 101L1607 196M1728 134L1775 109M1728 134L1758 165M1728 134L1789 166M1775 109L1862 142M1775 109L1758 165M1775 109L1789 166M1862 142L1758 165M1862 142L1789 166M1862 142L1868 229M2000 128L2037 143M2000 128L1984 208M2000 128L2022 215M2037 143L1984 208M2037 143L2022 215M2037 143L2122 170M2158 110L2182 145M2158 110L2253 130M2158 110L2122 170M2182 145L2253 130M2182 145L2122 170M2182 145L2225 230M2182 145L2282 175M2253 130L2225 230M2253 130L2282 175M2253 130L2229 249M2392 110L2438 147M2392 110L2392 172M2392 110L2458 188M2438 147L2392 172M2438 147L2458 188M2559 154L2458 188M2559 154L2529 175M41 230L81 215M41 230L-31 175M41 230L45 288M41 230L-13 266M2601 230L2529 175M2601 230L2547 266M81 215L45 288M180 192L221 289M303 210L397 223M303 210L221 289M303 210L314 286M397 223L454 171M397 223L481 239M397 223L475 250M454 171L481 239M454 171L475 250M481 239L475 250M481 239L487 280M600 203L679 176M600 203L591 276M600 203L670 240M679 176L670 240M788 182L835 176M788 182L766 259M788 182L808 244M835 176L808 244M907 236L997 169M907 236L889 252M907 236L921 335M997 169L1060 240M997 169L1022 278M1060 240L1136 173M1060 240L1022 278M1060 240L1080 284M1060 240L1112 347M1136 173L1220 209M1136 173L1198 250M1220 209L1309 216M1220 209L1198 250M1220 209L1226 279M1220 209L1303 262M1309 216L1366 180M1309 216L1226 279M1309 216L1303 262M1366 180L1465 181M1465 181L1543 185M1465 181L1459 242M1543 185L1607 196M1543 185L1584 258M1607 196L1584 258M1607 196L1631 276M1758 165L1789 166M1758 165L1814 256M1789 166L1868 229M1868 229L1984 208M1868 229L1814 256M1868 229L1888 263M1984 208L2022 215M1984 208L2051 261M2022 215L2051 261M2022 215L2115 274M2122 170L2115 274M2225 230L2282 175M2225 230L2229 249M2225 230L2246 284M2282 175L2392 172M2282 175L2229 249M2392 172L2458 188M2392 172L2358 282M2458 188L2529 175M2529 175L2547 266M45 288L109 308M45 288L-13 266M45 288L9 338M2605 288L2547 266M109 308L9 338M109 308L124 356M221 289L314 286M221 289L267 374M314 286L352 319M314 286L327 344M352 319L327 344M352 319L385 401M475 250L487 280M475 250L519 323M487 280L591 276M487 280L462 379M487 280L519 323M591 276L670 240M591 276L519 323M591 276L613 333M670 240L766 259M670 240L613 333M766 259L808 244M766 259L765 342M808 244L889 252M889 252L878 345M1022 278L1080 284M1022 278L975 368M1080 284L1112 347M1198 250L1226 279M1198 250L1303 262M1226 279L1303 262M1226 279L1218 392M1418 295L1459 242M1418 295L1342 379M1418 295L1501 326M1459 242L1501 326M1584 258L1631 276M1584 258L1501 326M1631 276L1705 263M1705 263L1814 256M1705 263L1785 331M1814 256L1888 263M1814 256L1785 331M1888 263L1951 315M1888 263L1903 359M1951 315L1903 359M1951 315L1952 365M2051 261L2115 274M2115 274L2078 368M2115 274L2099 353M2229 249L2246 284M2246 284L2358 282M2246 284L2238 386M2246 284L2303 353M2358 282L2443 311M2358 282L2303 353M2443 311L2441 393M2443 311L2527 359M2547 266L2569 338M2547 266L2527 359M-13 266L9 338M9 338L-33 359M9 338L59 425M2569 338L2527 359M124 356L177 395M124 356L59 425M124 356L151 403M177 395L267 374M177 395L151 403M177 395L234 467M177 395L184 482M267 374L327 344M267 374L234 467M267 374L282 424M327 344L282 424M327 344L385 401M462 379L519 323M462 379L385 401M462 379L474 452M519 323L613 333M613 333L681 392M681 392L765 342M681 392L638 474M681 392L698 466M681 392L724 410M765 342L878 345M765 342L724 410M878 345L921 335M878 345L975 368M878 345L889 400M921 335L975 368M921 335L889 400M921 335L972 407M975 368L889 400M975 368L972 407M1112 347L1196 387M1196 387L1218 392M1196 387L1167 465M1218 392L1230 461M1342 379L1401 399M1342 379L1310 459M1342 379L1405 453M1342 379L1455 414M1401 399L1310 459M1401 399L1405 453M1401 399L1455 414M1401 399L1435 493M1501 326L1593 400M1501 326L1455 414M1593 400L1627 373M1593 400L1592 456M1593 400L1632 446M1627 373L1725 375M1627 373L1592 456M1627 373L1632 446M1627 373L1713 416M1725 375L1785 331M1725 375L1713 416M1725 375L1813 404M1785 331L1813 404M1903 359L1952 365M1903 359L1899 402M1903 359L1968 420M1952 365L1899 402M1952 365L1968 420M2078 368L2099 353M2078 368L2073 406M2078 368L2137 446M2099 353L2073 406M2238 386L2303 353M2238 386L2169 431M2303 353L2352 393M2352 393L2441 393M2352 393L2309 476M2352 393L2379 457M2441 393L2379 457M2441 393L2414 453M2441 393L2497 425M2527 359L2619 425M2527 359L2497 425M-33 359L59 425M59 425L151 403M59 425L116 499M151 403L184 482M234 467L282 424M234 467L184 482M234 467L285 493M282 424L385 401M282 424L285 493M385 401L474 452M474 452L556 460M474 452L457 528M556 460L554 507M556 460L606 527M638 474L698 466M638 474L554 507M638 474L606 527M638 474L666 502M698 466L724 410M698 466L666 502M698 466L746 544M724 410L816 468M816 468L889 400M816 468L842 537M816 468L788 576M889 400L972 407M972 407L1014 489M1087 467L1167 465M1087 467L1014 489M1087 467L1085 497M1087 467L1137 496M1167 465L1230 461M1167 465L1137 496M1167 465L1202 489M1230 461L1310 459M1230 461L1202 489M1230 461L1288 514M1310 459L1405 453M1310 459L1288 514M1405 453L1455 414M1405 453L1435 493M1455 414L1435 493M1592 456L1632 446M1592 456L1573 533M1592 456L1667 492M1632 446L1713 416M1632 446L1667 492M1713 416L1813 404M1713 416L1667 492M1813 404L1899 402M1813 404L1788 502M1899 402L1968 420M1899 402L1946 498M1968 420L2073 406M1968 420L1946 498M2073 406L2137 446M2073 406L2169 431M2137 446L2169 431M2137 446L2159 491M2137 446L2200 510M2169 431L2159 491M2169 431L2200 510M2309 476L2379 457M2309 476L2297 515M2309 476L2394 517M2379 457L2414 453M2379 457L2394 517M2414 453L2394 517M2414 453L2458 484M2414 453L2487 498M2497 425L2458 484M2497 425L2487 498M19 548L116 499M19 548L-73 498M19 548L44 598M19 548L103 587M19 548L-4 606M2579 548L2487 498M2579 548L2556 606M116 499L184 482M116 499L44 598M116 499L103 587M184 482L285 493M372 558L457 528M372 558L367 613M372 558L401 569M372 558L446 644M457 528L401 569M457 528L539 595M554 507L606 527M554 507L539 595M554 507L612 561M606 527L666 502M606 527L612 561M666 502L746 544M666 502L612 561M746 544L704 617M746 544L788 576M842 537L923 517M842 537L788 576M842 537L854 617M842 537L895 598M923 517L1014 489M923 517L895 598M923 517L1004 584M1014 489L1085 497M1014 489L1004 584M1085 497L1137 496M1137 496L1202 489M1137 496L1176 564M1202 489L1288 514M1202 489L1176 564M1288 514L1228 599M1288 514L1319 564M1435 493L1514 535M1435 493L1412 602M1514 535L1573 533M1514 535L1482 603M1514 535L1597 578M1573 533L1597 578M1573 533L1635 572M1667 492L1735 534M1667 492L1635 572M1735 534L1788 502M1735 534L1635 572M1735 534L1759 601M1788 502L1853 545M1853 545L1946 498M1853 545L1759 601M1853 545L1827 637M1853 545L1863 601M1946 498L2058 520M1946 498L1988 622M2058 520L2159 491M2058 520L2077 577M2159 491L2200 510M2159 491L2146 577M2200 510L2146 577M2200 510L2238 592M2297 515L2238 592M2297 515L2319 608M2297 515L2391 584M2394 517L2458 484M2394 517L2391 584M2458 484L2487 498M2487 498L2556 606M44 598L103 587M44 598L-4 606M44 598L100 688M2604 598L2556 606M103 587L-4 606M103 587L100 688M2663 587L2556 606M214 602L256 611M256 611L367 613M256 611L232 704M256 611L250 699M256 611L330 651M367 613L401 569M367 613L330 651M367 613L446 644M401 569L330 651M401 569L446 644M539 595L612 561M539 595L446 644M539 595L504 675M612 561L704 617M704 617L788 576M704 617L675 641M788 576L854 617M854 617L895 598M854 617L868 686M854 617L881 682M895 598L881 682M1004 584L1097 624M1004 584L995 697M1004 584L1067 644M1097 624L1176 564M1097 624L1067 644M1097 624L1180 654M1176 564L1228 599M1176 564L1180 654M1228 599L1319 564M1228 599L1180 654M1228 599L1239 666M1319 564L1412 602M1412 602L1482 603M1412 602L1384 679M1482 603L1597 578M1482 603L1512 696M1597 578L1635 572M1635 572L1711 647M1759 601L1827 637M1759 601L1711 647M1759 601L1812 666M1827 637L1863 601M1827 637L1812 666M1827 637L1919 661M1863 601L1812 666M1863 601L1919 661M1988 622L2077 577M1988 622L1919 661M1988 622L1976 663M1988 622L2043 712M2077 577L2146 577M2077 577L2119 641M2146 577L2238 592M2146 577L2119 641M2238 592L2319 608M2319 608L2391 584M2319 608L2410 608M2319 608L2333 700M2391 584L2410 608M2410 608L2489 664M2556 606L2489 664M75 708L100 688M75 708L39 744M75 708L96 747M100 688L39 744M100 688L96 747M232 704L250 699M232 704L212 792M232 704L260 776M232 704L225 807M250 699L330 651M250 699L212 792M250 699L260 776M330 651L376 732M446 644L504 675M504 675L592 756M631 707L675 641M631 707L549 774M631 707L592 756M631 707L690 768M778 696L868 686M778 696L766 758M868 686L881 682M868 686L852 750M868 686L885 757M881 682L852 750M881 682L885 757M995 697L1067 644M995 697L1031 770M995 697L1083 756M1067 644L1083 756M1180 654L1239 666M1180 654L1177 745M1239 666L1305 708M1239 666L1177 745M1239 666L1244 742M1305 708L1384 679M1305 708L1244 742M1305 708L1322 728M1384 679L1322 728M1384 679L1410 734M1384 679L1452 725M1512 696L1558 706M1512 696L1452 725M1512 696L1552 756M1512 696L1613 727M1558 706L1661 703M1558 706L1552 756M1558 706L1613 727M1661 703L1711 647M1661 703L1613 727M1661 703L1723 787M1711 647L1812 666M1812 666L1773 773M1919 661L1976 663M1919 661L1929 725M1976 663L2043 712M1976 663L1929 725M2043 712L2119 641M2043 712L2004 786M2043 712L2117 760M2119 641L2171 699M2171 699L2242 711M2171 699L2117 760M2171 699L2252 741M2242 711L2333 700M2242 711L2203 771M2242 711L2252 741M2242 711L2283 800M2333 700L2415 713M2333 700L2252 741M2415 713L2489 664M2415 713L2381 791M2415 713L2459 781M2415 713L2503 732M2489 664L2459 781M2489 664L2503 732M39 744L96 747M39 744L-57 732M39 744L32 813M2599 744L2503 732M96 747L32 813M212 792L260 776M212 792L225 807M260 776L225 807M260 776L304 846M376 732L404 770M376 732L367 801M404 770L367 801M404 770L457 825M404 770L492 836M549 774L592 756M549 774L457 825M549 774L492 836M549 774L593 854M592 756L690 768M592 756L593 854M690 768L766 758M690 768L710 814M766 758L710 814M766 758L798 817M852 750L885 757M852 750L798 817M852 750L842 832M885 757L842 832M885 757L937 813M1031 770L1083 756M1031 770L937 813M1031 770L970 813M1031 770L1088 873M1083 756L1177 745M1177 745L1244 742M1177 745L1200 819M1244 742L1322 728M1244 742L1200 819M1322 728L1410 734M1322 728L1327 820M1410 734L1452 725M1410 734L1423 807M1410 734L1477 804M1452 725L1423 807M1452 725L1477 804M1552 756L1613 727M1552 756L1531 834M1552 756L1601 833M1613 727L1601 833M1723 787L1773 773M1723 787L1698 824M1773 773L1879 755M1773 773L1698 824M1773 773L1765 875M1879 755L1929 725M1879 755L1905 809M1929 725L2004 786M1929 725L1905 809M2004 786L1905 809M2004 786L1968 850M2004 786L2018 856M2117 760L2203 771M2117 760L2097 857M2117 760L2191 835M2203 771L2252 741M2203 771L2191 835M2203 771L2283 800M2252 741L2283 800M2381 791L2459 781M2381 791L2336 837M2381 791L2440 864M2459 781L2503 732M2459 781L2440 864M32 813L101 869M32 813L-7 865M32 813L74 903M2592 813L2553 865M101 869L-7 865M101 869L74 903M101 869L116 937M101 869L162 945M2661 869L2553 865M225 807L304 846M304 846L367 801M304 846L306 901M367 801L457 825M457 825L492 836M457 825L401 902M492 836L593 854M492 836L519 917M593 854L519 917M593 854L636 942M710 814L798 817M798 817L842 832M798 817L739 909M842 832L937 813M842 832L829 914M937 813L970 813M970 813L1021 899M1088 873L1200 819M1088 873L1021 899M1088 873L1093 957M1088 873L1150 952M1200 819L1234 863M1234 863L1327 820M1234 863L1204 958M1234 863L1306 919M1234 863L1274 961M1327 820L1423 807M1327 820L1306 919M1327 820L1372 911M1423 807L1477 804M1423 807L1372 911M1477 804L1531 834M1531 834L1601 833M1531 834L1470 930M1531 834L1527 936M1601 833L1698 824M1698 824L1765 875M1765 875L1809 943M1765 875L1852 927M1905 809L1968 850M1905 809L1852 927M1968 850L2018 856M1968 850L1980 941M2018 856L2097 857M2018 856L1980 941M2018 856L2049 914M2097 857L2191 835M2097 857L2049 914M2097 857L2120 928M2191 835L2283 800M2191 835L2171 935M2283 800L2336 837M2336 837L2307 915M2336 837L2335 887M2440 864L2335 887M2440 864L2420 948M2440 864L2497 940M2553 865L2634 903M2553 865L2497 940M-7 865L74 903M74 903L116 937M74 903L162 945M116 937L162 945M162 945L157 1019M162 945L227 980M306 901L323 949M306 901L401 902M306 901L227 980M306 901L319 968M323 949L401 902M323 949L227 980M323 949L319 968M323 949L386 989M401 902L386 989M519 917L475 1018M519 917L526 997M636 942L682 925M636 942L626 1006M636 942L703 994M682 925L739 909M682 925L703 994M682 925L774 961M739 909L829 914M739 909L703 994M739 909L774 961M829 914L774 961M829 914L866 991M932 957L1021 899M932 957L866 991M932 957L943 984M932 957L1039 990M932 957L930 1051M1021 899L1039 990M1093 957L1150 952M1093 957L1039 990M1093 957L1118 1028M1093 957L1175 985M1150 952L1204 958M1150 952L1118 1028M1150 952L1175 985M1204 958L1175 985M1204 958L1274 961M1306 919L1372 911M1306 919L1274 961M1306 919L1330 989M1372 911L1470 930M1372 911L1330 989M1470 930L1527 936M1470 930L1394 1020M1470 930L1504 1007M1527 936L1504 1007M1527 936L1584 975M1664 940L1686 954M1664 940L1584 975M1664 940L1620 1003M1686 954L1584 975M1686 954L1620 1003M1686 954L1718 1027M1809 943L1852 927M1809 943L1780 1028M1809 943L1908 1018M1852 927L1908 1018M1980 941L2049 914M1980 941L1986 1032M1980 941L2005 1039M2049 914L2120 928M2049 914L2090 1006M2120 928L2171 935M2120 928L2090 1006M2171 935L2194 1038M2171 935L2255 981M2307 915L2335 887M2307 915L2255 981M2307 915L2322 990M2335 887L2420 948M2335 887L2322 990M2420 948L2497 940M2420 948L2413 989M2420 948L2494 985M2497 940L2413 989M2497 940L2494 985M22 1030L-66 985M22 1030L65 1047M22 1030L-14 1056M2582 1030L2494 985M2582 1030L2546 1056M157 1019L227 980M157 1019L65 1047M157 1019L133 1111M157 1019L180 1099M227 980L319 968M319 968L386 989M319 968L303 1089M386 989L475 1018M386 989L426 1100M475 1018L526 997M475 1018L426 1100M526 997L626 1006M626 1006L703 994M626 1006L602 1084M626 1006L642 1091M703 994L774 961M866 991L943 984M866 991L835 1076M866 991L930 1051M943 984L1039 990M943 984L930 1051M1039 990L1118 1028M1118 1028L1175 985M1118 1028L1173 1080M1175 985L1173 1080M1274 961L1330 989M1330 989L1394 1020M1330 989L1298 1097M1394 1020L1446 1101M1504 1007L1584 975M1504 1007L1537 1076M1584 975L1620 1003M1718 1027L1780 1028M1718 1027L1703 1062M1718 1027L1765 1099M1780 1028L1703 1062M1780 1028L1765 1099M1908 1018L1986 1032M1908 1018L1905 1062M1986 1032L2005 1039M1986 1032L1905 1062M1986 1032L1998 1104M2005 1039L2090 1006M2005 1039L1998 1104M2005 1039L2055 1102M2090 1006L2110 1063M2194 1038L2255 981M2194 1038L2110 1063M2194 1038L2172 1082M2255 981L2322 990M2322 990L2413 989M2322 990L2303 1093M2413 989L2494 985M2413 989L2380 1091M2494 985L2546 1056M65 1047L133 1111M65 1047L-14 1056M65 1047L123 1138M2625 1047L2546 1056M133 1111L180 1099M133 1111L123 1138M133 1111L172 1170M180 1099L123 1138M180 1099L172 1170M180 1099L246 1163M303 1089L322 1104M303 1089L246 1163M322 1104L246 1163M426 1100L529 1120M426 1100L399 1184M426 1100L431 1173M529 1120L602 1084M529 1120L558 1134M529 1120L600 1133M602 1084L642 1091M602 1084L558 1134M602 1084L600 1133M642 1091L558 1134M642 1091L600 1133M642 1091L654 1186M785 1115L835 1076M785 1115L778 1172M785 1115L814 1177M835 1076L930 1051M835 1076L814 1177M930 1051L1006 1120M1006 1120L1046 1104M1006 1120L1028 1167M1006 1120L1088 1146M1006 1120L976 1206M1046 1104L1028 1167M1046 1104L1088 1146M1173 1080L1262 1100M1173 1080L1184 1181M1173 1080L1258 1126M1262 1100L1298 1097M1262 1100L1258 1126M1262 1100L1335 1134M1298 1097L1367 1113M1298 1097L1258 1126M1298 1097L1335 1134M1367 1113L1446 1101M1367 1113L1335 1134M1367 1113L1411 1146M1367 1113L1444 1168M1446 1101L1537 1076M1446 1101L1411 1146M1446 1101L1444 1168M1537 1076L1639 1107M1639 1107L1703 1062M1639 1107L1635 1165M1639 1107L1731 1126M1639 1107L1628 1221M1703 1062L1765 1099M1703 1062L1731 1126M1765 1099L1731 1126M1905 1062L1878 1164M1905 1062L1932 1126M1998 1104L2055 1102M1998 1104L1932 1126M1998 1104L2040 1149M2055 1102L2110 1063M2055 1102L2040 1149M2055 1102L2090 1189M2110 1063L2172 1082M2172 1082L2174 1178M2303 1093L2380 1091M2303 1093L2279 1171M2303 1093L2355 1127M2303 1093L2299 1208M2380 1091L2475 1115M2380 1091L2355 1127M2475 1115L2546 1056M2475 1115L2461 1150M2475 1115L2529 1151M2475 1115L2450 1202M18 1191L-31 1151M18 1191L52 1247M18 1191L80 1251M18 1191L-45 1231M2578 1191L2529 1151M2578 1191L2515 1231M123 1138L172 1170M172 1170L246 1163M172 1170L178 1246M246 1163L178 1246M399 1184L431 1173M399 1184L344 1260M399 1184L408 1225M399 1184L484 1225M431 1173L408 1225M431 1173L484 1225M558 1134L600 1133M558 1134L654 1186M600 1133L654 1186M654 1186L704 1247M654 1186L725 1279M778 1172L814 1177M778 1172L704 1247M778 1172L859 1220M814 1177L859 1220M921 1197L859 1220M921 1197L921 1267M921 1197L976 1206M921 1197L903 1284M1028 1167L1088 1146M1028 1167L976 1206M1028 1167L1083 1237M1088 1146L1184 1181M1088 1146L1083 1237M1184 1181L1258 1126M1184 1181L1168 1250M1184 1181L1256 1230M1258 1126L1335 1134M1335 1134L1411 1146M1411 1146L1444 1168M1444 1168L1557 1186M1444 1168L1518 1231M1557 1186L1635 1165M1557 1186L1518 1231M1557 1186L1544 1277M1557 1186L1628 1221M1635 1165L1628 1221M1731 1126L1777 1190M1731 1126L1756 1213M1777 1190L1756 1213M1777 1190L1795 1224M1777 1190L1840 1265M1777 1190L1779 1282M1878 1164L1932 1126M1878 1164L1969 1228M1932 1126L1969 1228M2040 1149L2090 1189M2040 1149L1969 1228M2040 1149L2115 1233M2090 1189L2174 1178M2090 1189L2068 1260M2090 1189L2115 1233M2174 1178L2279 1171M2174 1178L2115 1233M2174 1178L2236 1231M2279 1171L2355 1127M2279 1171L2236 1231M2279 1171L2299 1208M2355 1127L2461 1150M2355 1127L2299 1208M2461 1150L2529 1151M2461 1150L2450 1202M2461 1150L2515 1231M2529 1151L2450 1202M2529 1151L2515 1231M52 1247L80 1251M52 1247L89 1308M80 1251L178 1246M80 1251L89 1308M178 1246L278 1273M178 1246L238 1330M278 1273L344 1260M278 1273L238 1330M278 1273L261 1335M278 1273L325 1305M344 1260L408 1225M344 1260L325 1305M408 1225L484 1225M408 1225L423 1324M484 1225L568 1265M568 1265L558 1346M568 1265L568 1302M704 1247L725 1279M704 1247L725 1332M725 1279L647 1327M725 1279L725 1332M725 1279L653 1364M859 1220L921 1267M859 1220L903 1284M921 1267L976 1206M921 1267L875 1342M921 1267L903 1284M976 1206L903 1284M1083 1237L1168 1250M1083 1237L1107 1304M1168 1250L1256 1230M1168 1250L1107 1304M1168 1250L1197 1319M1256 1230L1333 1261M1256 1230L1362 1270M1256 1230L1197 1319M1333 1261L1362 1270M1333 1261L1335 1305M1333 1261L1403 1300M1362 1270L1335 1305M1362 1270L1403 1300M1518 1231L1544 1277M1518 1231L1514 1285M1518 1231L1534 1335M1544 1277L1628 1221M1544 1277L1514 1285M1544 1277L1534 1335M1628 1221L1679 1307M1756 1213L1795 1224M1756 1213L1840 1265M1756 1213L1779 1282M1795 1224L1840 1265M1795 1224L1779 1282M1795 1224L1850 1302M1840 1265L1779 1282M1840 1265L1850 1302M2068 1260L2115 1233M2068 1260L1998 1316M2068 1260L2046 1346M2068 1260L2087 1339M2115 1233L2209 1293M2236 1231L2299 1208M2236 1231L2209 1293M2299 1208L2360 1270M2360 1270L2288 1345M2360 1270L2365 1358M2360 1270L2458 1310M2360 1270L2347 1382M2450 1202L2515 1231M2515 1231L2458 1310M31 1359L89 1308M31 1359L-22 1341M31 1359L23 1383M31 1359L100 1401M2591 1359L2538 1341M89 1308L100 1401M238 1330L261 1335M238 1330L325 1305M238 1330L199 1374M261 1335L325 1305M261 1335L199 1374M261 1335L291 1418M325 1305L423 1324M423 1324L409 1375M558 1346L568 1302M558 1346L518 1414M558 1346L566 1365M568 1302L647 1327M568 1302L566 1365M568 1302L653 1364M647 1327L725 1332M647 1327L566 1365M647 1327L653 1364M725 1332L653 1364M725 1332L754 1411M875 1342L903 1284M875 1342L822 1421M875 1342L945 1385M875 1342L987 1380M997 1353L945 1385M997 1353L987 1380M997 1353L1086 1362M1107 1304L1197 1319M1107 1304L1209 1336M1107 1304L1086 1362M1197 1319L1209 1336M1209 1336L1141 1435M1335 1305L1403 1300M1335 1305L1398 1374M1403 1300L1514 1285M1403 1300L1398 1374M1514 1285L1534 1335M1534 1335L1566 1405M1679 1307L1688 1335M1688 1335L1667 1427M1688 1335L1752 1389M1779 1282L1850 1302M1850 1302L1813 1390M1850 1302L1884 1394M1998 1316L2046 1346M1998 1316L2087 1339M1998 1316L1978 1394M1998 1316L2013 1378M2046 1346L2087 1339M2046 1346L1978 1394M2046 1346L2013 1378M2087 1339L2013 1378M2087 1339L2159 1387M2209 1293L2288 1345M2209 1293L2159 1387M2209 1293L2197 1418M2288 1345L2365 1358M2288 1345L2244 1430M2288 1345L2347 1382M2365 1358L2458 1310M2365 1358L2347 1382M2365 1358L2480 1387M2458 1310L2538 1341M2458 1310L2480 1387M2538 1341L2583 1383M2538 1341L2480 1387M2538 1341L2526 1421M-22 1341L23 1383M23 1383L100 1401M23 1383L-34 1421M2583 1383L2526 1421M100 1401L199 1374M199 1374L291 1418M291 1418L343 1425M291 1418L409 1375M343 1425L409 1375M518 1414L566 1365M566 1365L653 1364M754 1411L822 1421M945 1385L987 1380M987 1380L1086 1362M1086 1362L1141 1435M1141 1435L1267 1440M1267 1440L1358 1428M1358 1428L1398 1374M1358 1428L1451 1419M1398 1374L1451 1419M1566 1405L1667 1427M1667 1427L1752 1389M1752 1389L1813 1390M1813 1390L1884 1394M1884 1394L1978 1394M1978 1394L2013 1378M2159 1387L2197 1418M2159 1387L2244 1430M2197 1418L2244 1430M2480 1387L2526 1421"/></svg>