<svg xmlns="http://www.w3.org/2000/svg" width="2560" height="1440" fill="#fff"><circle cx="8" cy="3" r="4"/><circle cx="8" cy="1443" r="4"/><circle cx="135" cy="75" r="5"/><circle cx="224" cy="37" r="4"/><circle cx="292" cy="47" r="6"/><circle cx="334" cy="41" r="5"/><circle cx="455" cy="30" r="5"/><circle cx="482" cy="55" r="5"/><circle cx="635" cy="59" r="6"/><circle cx="661" cy="27" r="5"/><circle cx="768" cy="64" r="5"/><circle cx="852" cy="78" r="6"/><circle cx="941" cy="18" r="5"/><circle cx="969" cy="0" r="5"/><circle cx="969" cy="1440" r="5"/><circle cx="1073" cy="45" r="5"/><circle cx="1152" cy="63" r="4"/><circle cx="1241" cy="18" r="4"/><circle cx="1301" cy="52" r="5"/><circle cx="1373" cy="54" r="6"/><circle cx="1497" cy="39" r="6"/><circle cx="1552" cy="76" r="6"/><circle cx="1673" cy="41" r="4"/><circle cx="1749" cy="62" r="4"/><circle cx="1767" cy="8" r="4"/><circle cx="1867" cy="24" r="6"/><circle cx="1971" cy="67" r="5"/><circle cx="2034" cy="49" r="5"/><circle cx="2138" cy="38" r="4"/><circle cx="2162" cy="20" r="5"/><circle cx="2251" cy="44" r="5"/><circle cx="2394" cy="3" r="5"/><circle cx="2394" cy="1443" r="5"/><circle cx="2447" cy="64" r="6"/><circle cx="2545" cy="6" r="6"/><circle cx="60" cy="115" r="6"/><circle cx="93" cy="81" r="5"/><circle cx="170" cy="93" r="5"/><circle cx="252" cy="151" r="6"/><circle cx="337" cy="126" r="5"/><circle cx="444" cy="113" r="6"/><circle cx="533" cy="124" r="5"/><circle cx="619" cy="129" r="4"/><circle cx="664" cy="139" r="4"/><circle cx="758" cy="93" r="5"/><circle cx="851" cy="147" r="5"/><circle cx="948" cy="119" r="6"/><circle cx="995" cy="101" r="6"/><circle cx="1118" cy="114" r="4"/><circle cx="1186" cy="157" r="5"/><circle cx="1212" cy="83" r="5"/><circle cx="1305" cy="83" r="6"/><circle cx="1436" cy="81" r="5"/><circle cx="1479" cy="110" r="6"/><circle cx="1567" cy="107" r="6"/><circle cx="1617" cy="112" r="6"/><circle cx="1743" cy="154" r="5"/><circle cx="1785" cy="129" r="4"/><circle cx="1867" cy="100" r="4"/><circle cx="1952" cy="86" r="6"/><circle cx="2071" cy="145" r="4"/><circle cx="2150" cy="129" r="4"/><circle cx="2206" cy="130" r="6"/><circle cx="2310" cy="117" r="6"/><circle cx="2346" cy="151" r="5"/><circle cx="2430" cy="124" r="5"/><circle cx="2557" cy="151" r="5"/><circle cx="-3" cy="151" r="5"/><circle cx="64" cy="235" r="5"/><circle cx="105" cy="200" r="5"/><circle cx="230" cy="204" r="5"/><circle cx="262" cy="190" r="6"/><circle cx="375" cy="161" r="5"/><circle cx="433" cy="231" r="4"/><circle cx="526" cy="196" r="5"/><circle cx="602" cy="222" r="4"/><circle cx="659" cy="200" r="5"/><circle cx="749" cy="239" r="5"/><circle cx="837" cy="211" r="5"/><circle cx="941" cy="213" r="6"/><circle cx="1006" cy="210" r="6"/><circle cx="1117" cy="190" r="5"/><circle cx="1182" cy="201" r="4"/><circle cx="1230" cy="161" r="4"/><circle cx="1349" cy="203" r="4"/><circle cx="1363" cy="226" r="5"/><circle cx="1446" cy="234" r="6"/><circle cx="1571" cy="225" r="4"/><circle cx="1627" cy="168" r="5"/><circle cx="1735" cy="196" r="5"/><circle cx="1789" cy="209" r="5"/><circle cx="1849" cy="197" r="5"/><circle cx="1928" cy="196" r="4"/><circle cx="2063" cy="217" r="5"/><circle cx="2096" cy="173" r="5"/><circle cx="2177" cy="211" r="4"/><circle cx="2293" cy="171" r="5"/><circle cx="2349" cy="226" r="6"/><circle cx="2424" cy="239" r="6"/><circle cx="2495" cy="207" r="5"/><circle cx="8" cy="314" r="6"/><circle cx="139" cy="283" r="5"/><circle cx="208" cy="293" r="5"/><circle cx="241" cy="256" r="6"/><circle cx="336" cy="293" r="5"/><circle cx="429" cy="267" r="4"/><circle cx="556" cy="292" r="5"/><circle cx="638" cy="278" r="5"/><circle cx="655" cy="259" r="6"/><circle cx="780" cy="303" r="4"/><circle cx="847" cy="265" r="5"/><circle cx="917" cy="293" r="4"/><circle cx="974" cy="319" r="5"/><circle cx="1066" cy="279" r="6"/><circle cx="1146" cy="287" r="6"/><circle cx="1258" cy="286" r="6"/><circle cx="1284" cy="296" r="5"/><circle cx="1428" cy="317" r="5"/><circle cx="1480" cy="319" r="5"/><circle cx="1590" cy="292" r="5"/><circle cx="1665" cy="252" r="6"/><circle cx="1742" cy="269" r="5"/><circle cx="1803" cy="242" r="6"/><circle cx="1885" cy="260" r="5"/><circle cx="1950" cy="290" r="4"/><circle cx="2046" cy="252" r="6"/><circle cx="2097" cy="318" r="6"/><circle cx="2220" cy="281" r="5"/><circle cx="2264" cy="283" r="4"/><circle cx="2360" cy="276" r="6"/><circle cx="2413" cy="302" r="6"/><circle cx="2551" cy="249" r="4"/><circle cx="15" cy="359" r="5"/><circle cx="127" cy="343" r="5"/><circle cx="237" cy="329" r="4"/><circle cx="309" cy="324" r="5"/><circle cx="346" cy="357" r="5"/><circle cx="454" cy="349" r="6"/><circle cx="536" cy="347" r="5"/><circle cx="563" cy="390" r="4"/><circle cx="717" cy="353" r="5"/><circle cx="790" cy="399" r="5"/><circle cx="824" cy="329" r="6"/><circle cx="914" cy="394" r="5"/><circle cx="1005" cy="389" r="4"/><circle cx="1104" cy="348" r="4"/><circle cx="1143" cy="362" r="6"/><circle cx="1276" cy="370" r="6"/><circle cx="1305" cy="327" r="5"/><circle cx="1365" cy="398" r="5"/><circle cx="1512" cy="380" r="5"/><circle cx="1521" cy="389" r="5"/><circle cx="1614" cy="356" r="5"/><circle cx="1705" cy="358" r="6"/><circle cx="1782" cy="365" r="5"/><circle cx="1897" cy="344" r="6"/><circle cx="1921" cy="400" r="4"/><circle cx="2003" cy="371" r="5"/><circle cx="2083" cy="388" r="4"/><circle cx="2190" cy="349" r="5"/><circle cx="2296" cy="349" r="6"/><circle cx="2335" cy="325" r="5"/><circle cx="2465" cy="390" r="5"/><circle cx="2490" cy="335" r="5"/><circle cx="51" cy="435" r="5"/><circle cx="158" cy="469" r="5"/><circle cx="219" cy="457" r="4"/><circle cx="310" cy="409" r="5"/><circle cx="328" cy="408" r="4"/><circle cx="463" cy="409" r="5"/><circle cx="510" cy="475" r="5"/><circle cx="564" cy="433" r="5"/><circle cx="650" cy="441" r="5"/><circle cx="787" cy="417" r="5"/><circle cx="846" cy="405" r="6"/><circle cx="937" cy="404" r="5"/><circle cx="1006" cy="401" r="5"/><circle cx="1064" cy="445" r="4"/><circle cx="1157" cy="450" r="5"/><circle cx="1271" cy="420" r="6"/><circle cx="1334" cy="477" r="5"/><circle cx="1428" cy="459" r="4"/><circle cx="1504" cy="465" r="5"/><circle cx="1541" cy="403" r="4"/><circle cx="1614" cy="432" r="4"/><circle cx="1695" cy="420" r="6"/><circle cx="1817" cy="473" r="6"/><circle cx="1865" cy="456" r="6"/><circle cx="1924" cy="409" r="6"/><circle cx="2056" cy="409" r="4"/><circle cx="2152" cy="425" r="5"/><circle cx="2173" cy="415" r="5"/><circle cx="2289" cy="401" r="5"/><circle cx="2342" cy="404" r="6"/><circle cx="2451" cy="411" r="5"/><circle cx="2533" cy="405" r="5"/><circle cx="60" cy="555" r="4"/><circle cx="134" cy="482" r="4"/><circle cx="209" cy="527" r="5"/><circle cx="295" cy="527" r="5"/><circle cx="353" cy="546" r="6"/><circle cx="431" cy="533" r="5"/><circle cx="487" cy="536" r="5"/><circle cx="562" cy="541" r="5"/><circle cx="702" cy="560" r="5"/><circle cx="745" cy="516" r="6"/><circle cx="810" cy="509" r="5"/><circle cx="889" cy="492" r="5"/><circle cx="1019" cy="522" r="6"/><circle cx="1090" cy="511" r="5"/><circle cx="1155" cy="489" r="5"/><circle cx="1255" cy="509" r="5"/><circle cx="1338" cy="482" r="5"/><circle cx="1439" cy="500" r="5"/><circle cx="1506" cy="518" r="5"/><circle cx="1581" cy="515" r="5"/><circle cx="1647" cy="529" r="5"/><circle cx="1714" cy="551" r="6"/><circle cx="1789" cy="485" r="5"/><circle cx="1885" cy="541" r="5"/><circle cx="1973" cy="518" r="6"/><circle cx="2044" cy="490" r="6"/><circle cx="2116" cy="552" r="5"/><circle cx="2166" cy="483" r="4"/><circle cx="2258" cy="540" r="5"/><circle cx="2368" cy="495" r="6"/><circle cx="2435" cy="505" r="5"/><circle cx="2553" cy="506" r="4"/><circle cx="54" cy="590" r="6"/><circle cx="117" cy="634" r="4"/><circle cx="206" cy="621" r="4"/><circle cx="277" cy="605" r="5"/><circle cx="327" cy="595" r="4"/><circle cx="404" cy="592" r="6"/><circle cx="511" cy="576" r="6"/><circle cx="607" cy="636" r="6"/><circle cx="650" cy="628" r="4"/><circle cx="787" cy="573" r="6"/><circle cx="853" cy="618" r="5"/><circle cx="956" cy="620" r="4"/><circle cx="1021" cy="589" r="5"/><circle cx="1088" cy="606" r="6"/><circle cx="1165" cy="613" r="5"/><circle cx="1213" cy="589" r="5"/><circle cx="1286" cy="606" r="4"/><circle cx="1395" cy="630" r="5"/><circle cx="1518" cy="574" r="6"/><circle cx="1575" cy="632" r="6"/><circle cx="1628" cy="560" r="5"/><circle cx="1704" cy="636" r="4"/><circle cx="1813" cy="578" r="5"/><circle cx="1907" cy="602" r="4"/><circle cx="1959" cy="612" r="6"/><circle cx="2021" cy="633" r="5"/><circle cx="2116" cy="613" r="5"/><circle cx="2218" cy="581" r="5"/><circle cx="2310" cy="629" r="5"/><circle cx="2347" cy="612" r="5"/><circle cx="2409" cy="591" r="5"/><circle cx="2519" cy="638" r="6"/><circle cx="38" cy="665" r="5"/><circle cx="123" cy="648" r="4"/><circle cx="164" cy="692" r="5"/><circle cx="270" cy="687" r="4"/><circle cx="388" cy="713" r="4"/><circle cx="453" cy="663" r="6"/><circle cx="532" cy="720" r="6"/><circle cx="605" cy="642" r="4"/><circle cx="702" cy="690" r="6"/><circle cx="724" cy="712" r="4"/><circle cx="822" cy="685" r="5"/><circle cx="942" cy="709" r="4"/><circle cx="1012" cy="644" r="5"/><circle cx="1044" cy="687" r="5"/><circle cx="1127" cy="711" r="5"/><circle cx="1225" cy="688" r="5"/><circle cx="1289" cy="667" r="6"/><circle cx="1372" cy="674" r="5"/><circle cx="1505" cy="644" r="4"/><circle cx="1546" cy="712" r="5"/><circle cx="1622" cy="707" r="5"/><circle cx="1710" cy="680" r="5"/><circle cx="1827" cy="662" r="6"/><circle cx="1916" cy="711" r="4"/><circle cx="1991" cy="646" r="6"/><circle cx="2001" cy="693" r="6"/><circle cx="2149" cy="648" r="6"/><circle cx="2179" cy="648" r="4"/><circle cx="2317" cy="688" r="5"/><circle cx="2335" cy="664" r="5"/><circle cx="2457" cy="705" r="4"/><circle cx="2488" cy="713" r="5"/><circle cx="21" cy="734" r="6"/><circle cx="123" cy="797" r="6"/><circle cx="225" cy="732" r="6"/><circle cx="274" cy="756" r="6"/><circle cx="379" cy="787" r="5"/><circle cx="402" cy="781" r="5"/><circle cx="522" cy="791" r="5"/><circle cx="561" cy="774" r="6"/><circle cx="653" cy="794" r="6"/><circle cx="797" cy="753" r="5"/><circle cx="843" cy="772" r="5"/><circle cx="942" cy="783" r="5"/><circle cx="992" cy="743" r="5"/><circle cx="1086" cy="778" r="5"/><circle cx="1195" cy="741" r="5"/><circle cx="1206" cy="731" r="5"/><circle cx="1320" cy="778" r="4"/><circle cx="1372" cy="721" r="5"/><circle cx="1451" cy="738" r="5"/><circle cx="1579" cy="766" r="5"/><circle cx="1636" cy="725" r="5"/><circle cx="1741" cy="749" r="4"/><circle cx="1826" cy="779" r="5"/><circle cx="1903" cy="770" r="6"/><circle cx="1996" cy="778" r="4"/><circle cx="2054" cy="735" r="5"/><circle cx="2149" cy="789" r="4"/><circle cx="2227" cy="767" r="6"/><circle cx="2250" cy="788" r="5"/><circle cx="2340" cy="732" r="4"/><circle cx="2443" cy="734" r="4"/><circle cx="2547" cy="745" r="4"/><circle cx="73" cy="854" r="6"/><circle cx="126" cy="877" r="4"/><circle cx="195" cy="867" r="5"/><circle cx="278" cy="825" r="4"/><circle cx="388" cy="851" r="5"/><circle cx="427" cy="866" r="5"/><circle cx="533" cy="852" r="4"/><circle cx="580" cy="845" r="4"/><circle cx="677" cy="859" r="4"/><circle cx="756" cy="852" r="5"/><circle cx="822" cy="849" r="6"/><circle cx="940" cy="851" r="5"/><circle cx="1004" cy="869" r="5"/><circle cx="1080" cy="850" r="4"/><circle cx="1185" cy="830" r="4"/><circle cx="1202" cy="841" r="6"/><circle cx="1340" cy="876" r="5"/><circle cx="1397" cy="865" r="6"/><circle cx="1510" cy="840" r="6"/><circle cx="1588" cy="834" r="5"/><circle cx="1626" cy="877" r="4"/><circle cx="1727" cy="873" r="5"/><circle cx="1774" cy="858" r="4"/><circle cx="1917" cy="805" r="5"/><circle cx="1953" cy="861" r="5"/><circle cx="2035" cy="825" r="5"/><circle cx="2082" cy="838" r="6"/><circle cx="2235" cy="852" r="5"/><circle cx="2303" cy="851" r="5"/><circle cx="2351" cy="842" r="5"/><circle cx="2465" cy="865" r="6"/><circle cx="2487" cy="810" r="5"/><circle cx="26" cy="954" r="5"/><circle cx="144" cy="942" r="5"/><circle cx="195" cy="958" r="6"/><circle cx="296" cy="924" r="5"/><circle cx="360" cy="891" r="4"/><circle cx="431" cy="924" r="4"/><circle cx="489" cy="916" r="6"/><circle cx="591" cy="937" r="6"/><circle cx="711" cy="948" r="4"/><circle cx="764" cy="927" r="5"/><circle cx="835" cy="892" r="5"/><circle cx="898" cy="926" r="5"/><circle cx="985" cy="922" r="5"/><circle cx="1092" cy="954" r="5"/><circle cx="1144" cy="929" r="4"/><circle cx="1273" cy="900" r="5"/><circle cx="1298" cy="925" r="4"/><circle cx="1382" cy="943" r="6"/><circle cx="1458" cy="960" r="5"/><circle cx="1584" cy="900" r="4"/><circle cx="1656" cy="951" r="4"/><circle cx="1752" cy="919" r="5"/><circle cx="1830" cy="936" r="4"/><circle cx="1868" cy="908" r="5"/><circle cx="1985" cy="949" r="5"/><circle cx="2066" cy="943" r="6"/><circle cx="2145" cy="913" r="6"/><circle cx="2230" cy="940" r="5"/><circle cx="2303" cy="883" r="5"/><circle cx="2326" cy="892" r="6"/><circle cx="2453" cy="882" r="5"/><circle cx="2489" cy="927" r="6"/><circle cx="15" cy="1004" r="5"/><circle cx="128" cy="1032" r="5"/><circle cx="186" cy="997" r="5"/><circle cx="292" cy="999" r="5"/><circle cx="363" cy="1032" r="5"/><circle cx="454" cy="1001" r="6"/><circle cx="495" cy="1031" r="6"/><circle cx="576" cy="978" r="6"/><circle cx="643" cy="1024" r="4"/><circle cx="740" cy="1006" r="6"/><circle cx="814" cy="993" r="5"/><circle cx="882" cy="984" r="6"/><circle cx="996" cy="997" r="6"/><circle cx="1118" cy="991" r="4"/><circle cx="1122" cy="989" r="5"/><circle cx="1246" cy="1038" r="4"/><circle cx="1308" cy="975" r="5"/><circle cx="1375" cy="1039" r="4"/><circle cx="1518" cy="993" r="5"/><circle cx="1538" cy="988" r="6"/><circle cx="1605" cy="1017" r="5"/><circle cx="1703" cy="965" r="4"/><circle cx="1816" cy="1023" r="5"/><circle cx="1907" cy="975" r="4"/><circle cx="1996" cy="997" r="4"/><circle cx="2041" cy="965" r="5"/><circle cx="2136" cy="1020" r="4"/><circle cx="2234" cy="987" r="5"/><circle cx="2285" cy="1020" r="5"/><circle cx="2385" cy="1024" r="4"/><circle cx="2445" cy="965" r="4"/><circle cx="2502" cy="1010" r="5"/><circle cx="3" cy="1042" r="5"/><circle cx="2563" cy="1042" r="5"/><circle cx="144" cy="1074" r="5"/><circle cx="228" cy="1057" r="4"/><circle cx="310" cy="1096" r="6"/><circle cx="347" cy="1049" r="5"/><circle cx="401" cy="1075" r="5"/><circle cx="545" cy="1083" r="5"/><circle cx="617" cy="1096" r="5"/><circle cx="703" cy="1119" r="4"/><circle cx="766" cy="1095" r="6"/><circle cx="802" cy="1106" r="4"/><circle cx="925" cy="1056" r="5"/><circle cx="985" cy="1063" r="6"/><circle cx="1119" cy="1085" r="4"/><circle cx="1169" cy="1118" r="5"/><circle cx="1275" cy="1044" r="4"/><circle cx="1347" cy="1118" r="4"/><circle cx="1367" cy="1077" r="5"/><circle cx="1499" cy="1048" r="5"/><circle cx="1550" cy="1081" r="6"/><circle cx="1601" cy="1051" r="5"/><circle cx="1702" cy="1110" r="6"/><circle cx="1769" cy="1114" r="5"/><circle cx="1869" cy="1114" r="5"/><circle cx="1933" cy="1116" r="4"/><circle cx="2075" cy="1104" r="4"/><circle cx="2122" cy="1077" r="5"/><circle cx="2168" cy="1082" r="6"/><circle cx="2259" cy="1091" r="5"/><circle cx="2398" cy="1080" r="5"/><circle cx="2476" cy="1075" r="6"/><circle cx="2529" cy="1099" r="4"/><circle cx="44" cy="1144" r="6"/><circle cx="115" cy="1187" r="5"/><circle cx="212" cy="1157" r="6"/><circle cx="269" cy="1183" r="5"/><circle cx="354" cy="1152" r="5"/><circle cx="445" cy="1151" r="4"/><circle cx="510" cy="1160" r="5"/><circle cx="603" cy="1145" r="5"/><circle cx="652" cy="1165" r="4"/><circle cx="723" cy="1187" r="5"/><circle cx="868" cy="1131" r="4"/><circle cx="906" cy="1172" r="6"/><circle cx="983" cy="1168" r="6"/><circle cx="1050" cy="1152" r="4"/><circle cx="1161" cy="1136" r="4"/><circle cx="1214" cy="1158" r="4"/><circle cx="1284" cy="1156" r="5"/><circle cx="1390" cy="1180" r="4"/><circle cx="1454" cy="1165" r="5"/><circle cx="1529" cy="1121" r="5"/><circle cx="1645" cy="1181" r="4"/><circle cx="1756" cy="1176" r="5"/><circle cx="1816" cy="1149" r="6"/><circle cx="1893" cy="1149" r="5"/><circle cx="1988" cy="1171" r="4"/><circle cx="2067" cy="1153" r="6"/><circle cx="2146" cy="1197" r="6"/><circle cx="2199" cy="1147" r="5"/><circle cx="2248" cy="1125" r="6"/><circle cx="2352" cy="1164" r="6"/><circle cx="2423" cy="1161" r="5"/><circle cx="2500" cy="1136" r="5"/><circle cx="4" cy="1240" r="6"/><circle cx="2564" cy="1240" r="6"/><circle cx="149" cy="1220" r="5"/><circle cx="164" cy="1235" r="5"/><circle cx="313" cy="1221" r="5"/><circle cx="359" cy="1231" r="5"/><circle cx="477" cy="1274" r="5"/><circle cx="495" cy="1270" r="5"/><circle cx="564" cy="1208" r="6"/><circle cx="694" cy="1240" r="6"/><circle cx="768" cy="1262" r="4"/><circle cx="841" cy="1254" r="6"/><circle cx="931" cy="1218" r="5"/><circle cx="962" cy="1211" r="4"/><circle cx="1046" cy="1246" r="5"/><circle cx="1135" cy="1271" r="5"/><circle cx="1240" cy="1219" r="6"/><circle cx="1340" cy="1273" r="5"/><circle cx="1408" cy="1262" r="6"/><circle cx="1451" cy="1266" r="4"/><circle cx="1558" cy="1213" r="5"/><circle cx="1625" cy="1201" r="5"/><circle cx="1726" cy="1222" r="5"/><circle cx="1796" cy="1273" r="5"/><circle cx="1858" cy="1233" r="6"/><circle cx="1973" cy="1222" r="5"/><circle cx="2029" cy="1255" r="6"/><circle cx="2094" cy="1215" r="5"/><circle cx="2216" cy="1259" r="5"/><circle cx="2247" cy="1204" r="5"/><circle cx="2342" cy="1267" r="6"/><circle cx="2403" cy="1278" r="5"/><circle cx="2529" cy="1228" r="4"/><circle cx="8" cy="1292" r="6"/><circle cx="138" cy="1308" r="4"/><circle cx="185" cy="1301" r="5"/><circle cx="247" cy="1339" r="5"/><circle cx="352" cy="1285" r="5"/><circle cx="426" cy="1340" r="6"/><circle cx="547" cy="1318" r="4"/><circle cx="593" cy="1351" r="5"/><circle cx="691" cy="1321" r="5"/><circle cx="799" cy="1290" r="5"/><circle cx="802" cy="1293" r="5"/><circle cx="890" cy="1311" r="5"/><circle cx="1000" cy="1290" r="4"/><circle cx="1090" cy="1332" r="5"/><circle cx="1151" cy="1360" r="5"/><circle cx="1207" cy="1333" r="5"/><circle cx="1314" cy="1350" r="4"/><circle cx="1427" cy="1292" r="6"/><circle cx="1448" cy="1349" r="6"/><circle cx="1584" cy="1332" r="5"/><circle cx="1672" cy="1359" r="6"/><circle cx="1709" cy="1327" r="5"/><circle cx="1781" cy="1330" r="5"/><circle cx="1874" cy="1301" r="5"/><circle cx="1986" cy="1281" r="5"/><circle cx="2020" cy="1344" r="5"/><circle cx="2097" cy="1332" r="4"/><circle cx="2215" cy="1306" r="5"/><circle cx="2319" cy="1294" r="4"/><circle cx="2337" cy="1311" r="5"/><circle cx="2470" cy="1344" r="5"/><circle cx="2504" cy="1323" r="6"/><circle cx="11" cy="1428" r="5"/><circle cx="149" cy="1380" r="5"/><circle cx="181" cy="1365" r="5"/><circle cx="294" cy="1405" r="5"/><circle cx="398" cy="1431" r="5"/><circle cx="427" cy="1433" r="6"/><circle cx="491" cy="1383" r="5"/><circle cx="596" cy="1376" r="5"/><circle cx="710" cy="1412" r="5"/><circle cx="741" cy="1372" r="5"/><circle cx="857" cy="1404" r="4"/><circle cx="923" cy="1396" r="6"/><circle cx="1012" cy="1418" r="5"/><circle cx="1098" cy="1429" r="5"/><circle cx="1184" cy="1385" r="5"/><circle cx="1279" cy="1427" r="4"/><circle cx="1289" cy="1416" r="4"/><circle cx="1371" cy="1394" r="5"/><circle cx="1460" cy="1391" r="5"/><circle cx="1556" cy="1362" r="5"/><circle cx="1610" cy="1432" r="6"/><circle cx="1692" cy="1408" r="5"/><circle cx="1825" cy="1373" r="4"/><circle cx="1903" cy="1373" r="5"/><circle cx="1992" cy="1405" r="5"/><circle cx="2079" cy="1362" r="6"/><circle cx="2149" cy="1361" r="5"/><circle cx="2182" cy="1434" r="6"/><circle cx="2182" cy="-6" r="6"/><circle cx="2245" cy="1370" r="5"/><circle cx="2391" cy="1385" r="5"/><circle cx="2472" cy="1374" r="4"/><circle cx="2546" cy="1393" r="6"/><path stroke="#fff" d="M8 3L-15 6M8 3L11 -12M8 3L-14 -47M2568 3L2545 6M2568 3L2546 -47M8 1443L11 1428M8 1443L-14 1393M2568 1443L2546 1393M135 75L224 37M135 75L60 115M135 75L93 81M135 75L170 93M224 37L292 47M224 37L170 93M224 37L294 -35M224 1477L294 1405M292 47L334 41M292 47L337 126M292 47L294 -35M292 1487L294 1405M334 41L337 126M334 41L294 -35M334 41L398 -9M334 1481L294 1405M334 1481L398 1431M455 30L482 55M455 30L444 113M455 30L398 -9M455 30L427 -7M455 30L491 -57M455 1470L398 1431M455 1470L427 1433M455 1470L491 1383M482 55L444 113M482 55L533 124M482 55L398 -9M482 55L427 -7M482 1495L398 1431M482 1495L427 1433M635 59L661 27M635 59L533 124M635 59L619 129M635 59L664 139M635 59L710 -28M635 1499L710 1412M661 27L768 64M661 27L596 -64M661 27L710 -28M661 1467L596 1376M661 1467L710 1412M768 64L852 78M768 64L758 93M768 64L710 -28M768 1504L710 1412M852 78L758 93M852 78L851 147M852 78L948 119M941 18L969 0M941 18L948 119M941 18L995 101M941 18L923 -44M941 18L1012 -22M941 1458L923 1396M941 1458L1012 1418M969 0L995 101M969 0L923 -44M969 0L1012 -22M969 1440L923 1396M969 1440L1012 1418M1073 45L1152 63M1073 45L995 101M1073 45L1118 114M1073 45L1012 -22M1073 45L1098 -11M1073 1485L1012 1418M1073 1485L1098 1429M1152 63L1118 114M1152 63L1212 83M1241 18L1301 52M1241 18L1212 83M1241 18L1305 83M1241 18L1279 -13M1241 18L1289 -24M1241 1458L1279 1427M1241 1458L1289 1416M1301 52L1373 54M1301 52L1305 83M1301 52L1279 -13M1301 52L1289 -24M1301 1492L1279 1427M1301 1492L1289 1416M1373 54L1305 83M1373 54L1436 81M1373 54L1479 110M1373 54L1371 -46M1373 1494L1371 1394M1497 39L1552 76M1497 39L1436 81M1497 39L1479 110M1497 39L1567 107M1497 39L1460 -49M1497 1479L1460 1391M1552 76L1479 110M1552 76L1567 107M1552 76L1617 112M1552 76L1610 -8M1552 1516L1610 1432M1673 41L1749 62M1673 41L1767 8M1673 41L1617 112M1673 41L1610 -8M1673 41L1692 -32M1673 1481L1610 1432M1673 1481L1692 1408M1749 62L1767 8M1749 62L1743 154M1749 62L1785 129M1767 8L1867 24M1767 8L1692 -32M1767 8L1825 -67M1767 1448L1692 1408M1767 1448L1825 1373M1867 24L1867 100M1867 24L1952 86M1867 24L1825 -67M1867 24L1903 -67M1867 1464L1825 1373M1867 1464L1903 1373M1971 67L2034 49M1971 67L1867 100M1971 67L1952 86M1971 67L1992 -35M1971 1507L1992 1405M2034 49L2138 38M2034 49L1952 86M2034 49L2071 145M2034 49L1992 -35M2034 1489L1992 1405M2138 38L2162 20M2138 38L2150 129M2138 38L2182 -6M2138 1478L2182 1434M2162 20L2251 44M2162 20L2182 -6M2162 1460L2182 1434M2251 44L2206 130M2251 44L2310 117M2251 44L2182 -6M2251 1484L2182 1434M2394 3L2447 64M2394 3L2391 -55M2394 1443L2391 1385M2447 64L2545 6M2447 64L2430 124M2545 6L2571 -12M2545 6L2472 -66M2545 6L2546 -47M-15 6L11 -12M-15 1446L11 1428M2545 1446L2571 1428M2545 1446L2472 1374M2545 1446L2546 1393M60 115L93 81M60 115L170 93M60 115L-3 151M60 115L105 200M2620 115L2557 151M93 81L170 93M93 81L105 200M170 93L252 151M252 151L337 126M252 151L230 204M252 151L262 190M252 151L241 256M337 126L262 190M337 126L375 161M444 113L533 124M444 113L375 161M533 124L619 129M533 124L526 196M619 129L664 139M619 129L659 200M664 139L758 93M664 139L659 200M758 93L851 147M851 147L837 211M948 119L995 101M948 119L941 213M948 119L1006 210M995 101L1006 210M1118 114L1186 157M1118 114L1117 190M1186 157L1212 83M1186 157L1117 190M1186 157L1182 201M1186 157L1230 161M1212 83L1305 83M1212 83L1230 161M1305 83L1279 -13M1305 1523L1279 1427M1436 81L1479 110M1479 110L1567 107M1567 107L1617 112M1567 107L1627 168M1617 112L1627 168M1743 154L1785 129M1743 154L1735 196M1743 154L1789 209M1785 129L1867 100M1867 100L1952 86M1867 100L1849 197M1952 86L1928 196M2071 145L2150 129M2071 145L2063 217M2071 145L2096 173M2071 145L2046 252M2150 129L2206 130M2150 129L2096 173M2150 129L2177 211M2206 130L2310 117M2206 130L2177 211M2206 130L2293 171M2310 117L2346 151M2310 117L2293 171M2346 151L2430 124M2346 151L2293 171M2346 151L2349 226M2430 124L2495 207M2557 151L2624 235M2557 151L2665 200M2557 151L2495 207M2557 151L2551 249M-3 151L64 235M-3 151L105 200M64 235L105 200M64 235L8 314M64 235L139 283M64 235L-9 249M2624 235L2551 249M105 200L139 283M230 204L262 190M230 204L208 293M230 204L241 256M262 190L241 256M375 161L433 231M433 231L526 196M433 231L429 267M526 196L602 222M526 196L429 267M526 196L556 292M602 222L659 200M602 222L556 292M602 222L638 278M602 222L655 259M659 200L638 278M659 200L655 259M749 239L837 211M749 239L655 259M749 239L780 303M749 239L847 265M837 211L941 213M837 211L847 265M941 213L1006 210M941 213L917 293M1006 210L1066 279M1117 190L1182 201M1117 190L1066 279M1117 190L1146 287M1182 201L1230 161M1182 201L1146 287M1182 201L1258 286M1349 203L1363 226M1349 203L1446 234M1363 226L1446 234M1363 226L1258 286M1363 226L1284 296M1363 226L1428 317M1446 234L1571 225M1446 234L1428 317M1446 234L1480 319M1571 225L1627 168M1571 225L1590 292M1571 225L1665 252M1627 168L1665 252M1735 196L1789 209M1735 196L1665 252M1735 196L1742 269M1735 196L1803 242M1789 209L1849 197M1789 209L1742 269M1789 209L1803 242M1849 197L1928 196M1849 197L1803 242M1849 197L1885 260M1928 196L1885 260M1928 196L1950 290M2063 217L2096 173M2063 217L2177 211M2063 217L2046 252M2063 217L2097 318M2096 173L2177 211M2096 173L2046 252M2177 211L2220 281M2293 171L2349 226M2349 226L2424 239M2349 226L2360 276M2349 226L2413 302M2424 239L2495 207M2424 239L2360 276M2424 239L2413 302M2495 207L2551 249M8 314L-9 249M8 314L15 359M8 314L-70 335M2568 314L2551 249M2568 314L2490 335M139 283L208 293M139 283L127 343M208 293L241 256M208 293L127 343M208 293L237 329M241 256L237 329M336 293L429 267M336 293L237 329M336 293L309 324M336 293L346 357M429 267L454 349M556 292L638 278M556 292L655 259M556 292L536 347M638 278L655 259M780 303L847 265M780 303L717 353M780 303L790 399M780 303L824 329M847 265L917 293M847 265L824 329M917 293L974 319M974 319L914 394M974 319L1005 389M974 319L937 404M974 319L1006 401M1066 279L1146 287M1066 279L1104 348M1066 279L1143 362M1146 287L1104 348M1146 287L1143 362M1258 286L1284 296M1258 286L1276 370M1258 286L1305 327M1284 296L1276 370M1284 296L1305 327M1428 317L1480 319M1428 317L1512 380M1480 319L1512 380M1480 319L1521 389M1590 292L1665 252M1590 292L1614 356M1665 252L1742 269M1742 269L1803 242M1742 269L1705 358M1803 242L1885 260M1885 260L1950 290M1885 260L1897 344M1950 290L2046 252M1950 290L1897 344M2046 252L2097 318M2097 318L2083 388M2097 318L2190 349M2220 281L2264 283M2220 281L2190 349M2264 283L2296 349M2360 276L2413 302M2360 276L2296 349M2360 276L2335 325M2413 302L2335 325M2413 302L2490 335M15 359L127 343M15 359L51 435M15 359L-27 405M2575 359L2533 405M237 329L309 324M309 324L346 357M309 324L310 409M309 324L328 408M346 357L454 349M346 357L310 409M346 357L328 408M454 349L536 347M454 349L463 409M536 347L563 390M536 347L463 409M536 347L564 433M563 390L463 409M563 390L564 433M563 390L650 441M717 353L790 399M717 353L650 441M717 353L787 417M790 399L824 329M790 399L787 417M790 399L846 405M824 329L787 417M824 329L846 405M914 394L1005 389M914 394L846 405M914 394L937 404M914 394L1006 401M1005 389L937 404M1005 389L1006 401M1005 389L1064 445M1104 348L1143 362M1143 362L1157 450M1276 370L1305 327M1276 370L1365 398M1276 370L1271 420M1365 398L1271 420M1365 398L1334 477M1365 398L1428 459M1365 398L1338 482M1512 380L1521 389M1512 380L1541 403M1521 389L1504 465M1521 389L1541 403M1614 356L1705 358M1614 356L1541 403M1614 356L1614 432M1614 356L1695 420M1705 358L1782 365M1705 358L1695 420M1782 365L1695 420M1782 365L1817 473M1897 344L1921 400M1897 344L2003 371M1897 344L1924 409M1921 400L2003 371M1921 400L1865 456M1921 400L1924 409M2003 371L2083 388M2003 371L1924 409M2003 371L2056 409M2083 388L2056 409M2083 388L2152 425M2083 388L2173 415M2190 349L2152 425M2190 349L2173 415M2296 349L2335 325M2296 349L2289 401M2296 349L2342 404M2335 325L2289 401M2335 325L2342 404M2465 390L2490 335M2465 390L2451 411M2465 390L2533 405M2465 390L2435 505M2490 335L2451 411M2490 335L2533 405M51 435L158 469M51 435L-27 405M51 435L134 482M51 435L-7 506M2611 435L2533 405M2611 435L2553 506M158 469L219 457M158 469L134 482M158 469L209 527M219 457L310 409M219 457L134 482M219 457L209 527M219 457L295 527M310 409L328 408M463 409L510 475M463 409L564 433M510 475L564 433M510 475L487 536M510 475L562 541M510 475L511 576M564 433L650 441M650 441L745 516M787 417L846 405M787 417L810 509M846 405L937 404M937 404L1006 401M1006 401L1064 445M1064 445L1157 450M1064 445L1019 522M1064 445L1090 511M1157 450L1090 511M1157 450L1155 489M1271 420L1334 477M1271 420L1255 509M1271 420L1338 482M1334 477L1255 509M1334 477L1338 482M1428 459L1504 465M1428 459L1338 482M1428 459L1439 500M1428 459L1506 518M1504 465L1541 403M1504 465L1439 500M1504 465L1506 518M1541 403L1614 432M1614 432L1695 420M1614 432L1581 515M1614 432L1647 529M1695 420L1789 485M1817 473L1865 456M1817 473L1789 485M1817 473L1885 541M1817 473L1813 578M1865 456L1924 409M1865 456L1789 485M1865 456L1885 541M1924 409L1973 518M2056 409L2152 425M2056 409L2044 490M2152 425L2173 415M2152 425L2166 483M2173 415L2289 401M2173 415L2166 483M2289 401L2342 404M2289 401L2368 495M2342 404L2451 411M2342 404L2368 495M2451 411L2533 405M2451 411L2435 505M60 555L134 482M60 555L-7 506M60 555L54 590M2620 555L2553 506M134 482L209 527M209 527L295 527M209 527L206 621M295 527L353 546M295 527L277 605M295 527L327 595M353 546L431 533M353 546L277 605M353 546L327 595M353 546L404 592M431 533L487 536M431 533L404 592M431 533L511 576M487 536L562 541M487 536L511 576M562 541L511 576M562 541L607 636M562 541L605 642M702 560L745 516M702 560L650 628M702 560L787 573M745 516L810 509M745 516L787 573M810 509L889 492M810 509L787 573M810 509L853 618M889 492L853 618M1019 522L1090 511M1019 522L1021 589M1090 511L1155 489M1090 511L1088 606M1155 489L1255 509M1155 489L1165 613M1255 509L1338 482M1255 509L1213 589M1439 500L1506 518M1439 500L1518 574M1506 518L1581 515M1506 518L1518 574M1581 515L1647 529M1581 515L1518 574M1581 515L1628 560M1647 529L1714 551M1647 529L1628 560M1714 551L1789 485M1714 551L1628 560M1714 551L1704 636M1714 551L1813 578M1789 485L1813 578M1885 541L1973 518M1885 541L1813 578M1885 541L1907 602M1973 518L2044 490M1973 518L1907 602M1973 518L1959 612M2044 490L2116 552M2116 552L2166 483M2116 552L2116 613M2116 552L2218 581M2116 552L2149 648M2166 483L2258 540M2258 540L2218 581M2368 495L2435 505M2368 495L2347 612M2368 495L2409 591M2435 505L2553 506M2435 505L2409 591M54 590L117 634M54 590L-41 638M54 590L38 665M54 590L123 648M2614 590L2519 638M117 634L38 665M117 634L123 648M117 634L164 692M206 621L277 605M206 621L123 648M206 621L164 692M206 621L270 687M277 605L327 595M277 605L270 687M327 595L404 592M327 595L270 687M404 592L453 663M511 576L453 663M607 636L650 628M607 636L532 720M607 636L605 642M607 636L702 690M650 628L605 642M650 628L702 690M650 628L724 712M787 573L853 618M787 573L822 685M853 618L956 620M853 618L822 685M956 620L1021 589M956 620L942 709M956 620L1012 644M1021 589L1088 606M1021 589L1012 644M1021 589L1044 687M1088 606L1165 613M1088 606L1012 644M1088 606L1044 687M1165 613L1213 589M1165 613L1225 688M1213 589L1286 606M1286 606L1395 630M1286 606L1289 667M1286 606L1372 674M1395 630L1372 674M1395 630L1372 721M1395 630L1451 738M1518 574L1575 632M1518 574L1505 644M1575 632L1628 560M1575 632L1505 644M1575 632L1546 712M1575 632L1622 707M1628 560L1704 636M1704 636L1710 680M1813 578L1827 662M1907 602L1959 612M1907 602L1827 662M1907 602L1991 646M1959 612L2021 633M1959 612L1991 646M1959 612L2001 693M2021 633L2116 613M2021 633L1991 646M2021 633L2001 693M2021 633L2054 735M2116 613L2149 648M2116 613L2179 648M2218 581L2310 629M2218 581L2149 648M2218 581L2179 648M2310 629L2347 612M2310 629L2409 591M2310 629L2317 688M2310 629L2335 664M2347 612L2409 591M2347 612L2317 688M2347 612L2335 664M2409 591L2335 664M2519 638L2598 665M2519 638L2457 705M2519 638L2488 713M2519 638L2581 734M-41 638L38 665M-41 638L21 734M38 665L123 648M38 665L21 734M123 648L164 692M164 692L225 732M270 687L225 732M270 687L274 756M388 713L453 663M388 713L379 787M388 713L402 781M453 663L532 720M532 720L605 642M532 720L522 791M532 720L561 774M605 642L702 690M702 690L724 712M702 690L653 794M724 712L822 685M724 712L797 753M822 685L797 753M822 685L843 772M942 709L942 783M942 709L992 743M1012 644L1044 687M1012 644L992 743M1044 687L1127 711M1044 687L992 743M1127 711L1225 688M1127 711L1086 778M1127 711L1195 741M1127 711L1206 731M1225 688L1289 667M1225 688L1195 741M1225 688L1206 731M1289 667L1372 674M1289 667L1206 731M1289 667L1372 721M1372 674L1372 721M1372 674L1451 738M1505 644L1546 712M1505 644L1451 738M1546 712L1622 707M1546 712L1579 766M1546 712L1636 725M1622 707L1710 680M1622 707L1579 766M1622 707L1636 725M1710 680L1827 662M1710 680L1636 725M1710 680L1741 749M1827 662L1916 711M1827 662L1826 779M1916 711L1991 646M1916 711L2001 693M1916 711L1903 770M1916 711L1917 805M1991 646L2001 693M2001 693L2054 735M2149 648L2179 648M2317 688L2335 664M2317 688L2227 767M2317 688L2340 732M2335 664L2340 732M2457 705L2488 713M2457 705L2443 734M2457 705L2547 745M2488 713L2581 734M2488 713L2443 734M2488 713L2547 745M-72 713L21 734M21 734L123 797M21 734L-13 745M2581 734L2547 745M123 797L225 732M123 797L73 854M123 797L126 877M123 797L195 867M225 732L274 756M225 732L278 825M274 756L379 787M274 756L402 781M274 756L278 825M379 787L402 781M379 787L388 851M402 781L388 851M402 781L427 866M522 791L561 774M522 791L533 852M522 791L580 845M561 774L653 794M561 774L533 852M561 774L580 845M653 794L580 845M653 794L677 859M653 794L756 852M797 753L843 772M797 753L822 849M843 772L942 783M843 772L822 849M942 783L992 743M942 783L940 851M942 783L1004 869M992 743L1086 778M1086 778L1080 850M1195 741L1206 731M1195 741L1185 830M1195 741L1202 841M1206 731L1202 841M1320 778L1372 721M1372 721L1451 738M1451 738L1510 840M1579 766L1636 725M1579 766L1510 840M1579 766L1588 834M1636 725L1741 749M1741 749L1826 779M1826 779L1903 770M1826 779L1774 858M1826 779L1917 805M1903 770L1996 778M1903 770L1917 805M1903 770L1953 861M1996 778L2054 735M1996 778L1917 805M1996 778L2035 825M2054 735L2035 825M2054 735L2082 838M2149 789L2227 767M2149 789L2250 788M2149 789L2082 838M2227 767L2250 788M2227 767L2235 852M2250 788L2340 732M2250 788L2235 852M2250 788L2303 851M2340 732L2443 734M2443 734L2547 745M2443 734L2487 810M2547 745L2487 810M73 854L126 877M73 854L26 954M126 877L195 867M126 877L144 942M195 867L278 825M195 867L144 942M195 867L195 958M278 825L296 924M388 851L427 866M388 851L360 891M388 851L431 924M427 866L360 891M427 866L431 924M427 866L489 916M533 852L580 845M533 852L489 916M533 852L591 937M580 845L591 937M677 859L756 852M677 859L711 948M756 852L822 849M756 852L764 927M756 852L835 892M822 849L835 892M940 851L1004 869M940 851L898 926M940 851L985 922M1004 869L1080 850M1004 869L985 922M1080 850L1092 954M1080 850L1144 929M1185 830L1202 841M1202 841L1144 929M1202 841L1273 900M1340 876L1397 865M1340 876L1273 900M1340 876L1298 925M1340 876L1382 943M1397 865L1510 840M1397 865L1298 925M1397 865L1382 943M1397 865L1458 960M1510 840L1588 834M1510 840L1584 900M1588 834L1626 877M1588 834L1584 900M1626 877L1727 873M1626 877L1584 900M1626 877L1656 951M1727 873L1774 858M1727 873L1752 919M1727 873L1703 965M1774 858L1752 919M1774 858L1830 936M1774 858L1868 908M1917 805L1953 861M1953 861L2035 825M1953 861L1868 908M1953 861L1985 949M2035 825L2082 838M2082 838L2066 943M2082 838L2145 913M2235 852L2303 851M2235 852L2230 940M2235 852L2303 883M2303 851L2351 842M2303 851L2303 883M2303 851L2326 892M2351 842L2465 865M2351 842L2303 883M2351 842L2326 892M2351 842L2453 882M2465 865L2487 810M2465 865L2453 882M2465 865L2489 927M2465 865L2445 965M2487 810L2453 882M26 954L-71 927M26 954L15 1004M26 954L3 1042M2586 954L2489 927M144 942L195 958M144 942L128 1032M144 942L186 997M195 958L128 1032M195 958L186 997M296 924L360 891M296 924L292 999M360 891L431 924M431 924L489 916M431 924L454 1001M489 916L591 937M489 916L454 1001M591 937L576 978M591 937L643 1024M711 948L764 927M711 948L643 1024M711 948L740 1006M764 927L835 892M764 927L740 1006M764 927L814 993M835 892L898 926M835 892L882 984M898 926L985 922M898 926L814 993M898 926L882 984M985 922L996 997M1092 954L1144 929M1092 954L996 997M1092 954L1118 991M1092 954L1122 989M1144 929L1118 991M1144 929L1122 989M1273 900L1298 925M1273 900L1308 975M1298 925L1382 943M1298 925L1308 975M1382 943L1458 960M1382 943L1308 975M1458 960L1518 993M1458 960L1538 988M1458 960L1499 1048M1584 900L1656 951M1656 951L1605 1017M1656 951L1703 965M1752 919L1830 936M1752 919L1868 908M1752 919L1703 965M1830 936L1868 908M1830 936L1816 1023M1830 936L1907 975M1868 908L1907 975M1985 949L2066 943M1985 949L1907 975M1985 949L1996 997M1985 949L2041 965M2066 943L2145 913M2066 943L1996 997M2066 943L2041 965M2145 913L2230 940M2145 913L2041 965M2145 913L2136 1020M2230 940L2303 883M2230 940L2234 987M2230 940L2285 1020M2303 883L2326 892M2453 882L2489 927M2453 882L2445 965M2489 927L2445 965M2489 927L2502 1010M15 1004L-58 1010M15 1004L3 1042M15 1004L-31 1099M2575 1004L2502 1010M2575 1004L2529 1099M128 1032L186 997M128 1032L144 1074M186 997L144 1074M186 997L228 1057M292 999L363 1032M292 999L228 1057M292 999L347 1049M363 1032L454 1001M363 1032L310 1096M363 1032L347 1049M363 1032L401 1075M454 1001L495 1031M454 1001L401 1075M495 1031L576 978M495 1031L545 1083M576 978L643 1024M576 978L545 1083M643 1024L740 1006M643 1024L617 1096M740 1006L814 993M740 1006L766 1095M814 993L882 984M814 993L766 1095M882 984L996 997M882 984L925 1056M996 997L925 1056M996 997L985 1063M1118 991L1122 989M1118 991L1119 1085M1122 989L1119 1085M1246 1038L1308 975M1246 1038L1275 1044M1308 975L1275 1044M1375 1039L1275 1044M1375 1039L1347 1118M1375 1039L1367 1077M1518 993L1538 988M1518 993L1605 1017M1518 993L1499 1048M1538 988L1605 1017M1538 988L1499 1048M1538 988L1550 1081M1605 1017L1550 1081M1605 1017L1601 1051M1816 1023L1907 975M1816 1023L1769 1114M1816 1023L1869 1114M1907 975L1996 997M1996 997L2041 965M2041 965L2136 1020M2136 1020L2234 987M2136 1020L2122 1077M2136 1020L2168 1082M2234 987L2285 1020M2234 987L2259 1091M2285 1020L2385 1024M2285 1020L2259 1091M2385 1024L2445 965M2385 1024L2398 1080M2445 965L2502 1010M2502 1010L2563 1042M2502 1010L2476 1075M-58 1010L3 1042M3 1042L-84 1075M3 1042L-31 1099M2563 1042L2476 1075M2563 1042L2529 1099M144 1074L228 1057M144 1074L44 1144M144 1074L212 1157M310 1096L347 1049M310 1096L401 1075M310 1096L269 1183M310 1096L354 1152M347 1049L401 1075M401 1075L354 1152M545 1083L617 1096M545 1083L510 1160M545 1083L603 1145M617 1096L703 1119M617 1096L603 1145M617 1096L652 1165M703 1119L766 1095M703 1119L652 1165M703 1119L723 1187M766 1095L802 1106M766 1095L723 1187M802 1106L868 1131M925 1056L985 1063M925 1056L868 1131M985 1063L1050 1152M1119 1085L1169 1118M1119 1085L1050 1152M1119 1085L1161 1136M1169 1118L1161 1136M1169 1118L1214 1158M1275 1044L1367 1077M1347 1118L1367 1077M1347 1118L1284 1156M1347 1118L1390 1180M1367 1077L1284 1156M1499 1048L1550 1081M1499 1048L1529 1121M1550 1081L1601 1051M1550 1081L1529 1121M1601 1051L1529 1121M1702 1110L1769 1114M1702 1110L1645 1181M1702 1110L1756 1176M1702 1110L1726 1222M1769 1114L1869 1114M1769 1114L1756 1176M1769 1114L1816 1149M1869 1114L1933 1116M1869 1114L1816 1149M1869 1114L1893 1149M1933 1116L1893 1149M1933 1116L1988 1171M2075 1104L2122 1077M2075 1104L2067 1153M2075 1104L2094 1215M2122 1077L2168 1082M2122 1077L2067 1153M2168 1082L2259 1091M2168 1082L2199 1147M2168 1082L2248 1125M2259 1091L2199 1147M2259 1091L2248 1125M2398 1080L2476 1075M2398 1080L2352 1164M2398 1080L2423 1161M2476 1075L2529 1099M2476 1075L2500 1136M2529 1099L2604 1144M2529 1099L2500 1136M-31 1099L44 1144M44 1144L115 1187M44 1144L-60 1136M44 1144L4 1240M2604 1144L2500 1136M115 1187L212 1157M115 1187L4 1240M115 1187L149 1220M115 1187L164 1235M212 1157L269 1183M212 1157L149 1220M212 1157L164 1235M269 1183L354 1152M269 1183L313 1221M269 1183L359 1231M354 1152L313 1221M354 1152L359 1231M445 1151L510 1160M510 1160L603 1145M510 1160L495 1270M510 1160L564 1208M603 1145L652 1165M603 1145L564 1208M652 1165L723 1187M652 1165L694 1240M723 1187L694 1240M723 1187L768 1262M868 1131L906 1172M906 1172L983 1168M906 1172L841 1254M906 1172L931 1218M906 1172L962 1211M983 1168L1050 1152M983 1168L931 1218M983 1168L962 1211M983 1168L1046 1246M1161 1136L1214 1158M1214 1158L1284 1156M1214 1158L1240 1219M1284 1156L1390 1180M1284 1156L1240 1219M1390 1180L1454 1165M1390 1180L1340 1273M1390 1180L1408 1262M1454 1165L1529 1121M1454 1165L1451 1266M1454 1165L1558 1213M1529 1121L1558 1213M1645 1181L1558 1213M1645 1181L1625 1201M1645 1181L1726 1222M1756 1176L1816 1149M1756 1176L1726 1222M1756 1176L1796 1273M1816 1149L1893 1149M1816 1149L1858 1233M1893 1149L1988 1171M1893 1149L1858 1233M1988 1171L2067 1153M1988 1171L1973 1222M1988 1171L2029 1255M2067 1153L2146 1197M2067 1153L2094 1215M2146 1197L2199 1147M2146 1197L2094 1215M2146 1197L2216 1259M2146 1197L2247 1204M2199 1147L2248 1125M2199 1147L2247 1204M2248 1125L2352 1164M2248 1125L2247 1204M2352 1164L2423 1161M2352 1164L2342 1267M2423 1161L2500 1136M2500 1136L2529 1228M4 1240L-31 1228M4 1240L8 1292M4 1240L-56 1323M2564 1240L2529 1228M2564 1240L2504 1323M149 1220L164 1235M149 1220L138 1308M149 1220L185 1301M164 1235L138 1308M164 1235L185 1301M313 1221L359 1231M313 1221L352 1285M359 1231L352 1285M477 1274L495 1270M477 1274L564 1208M477 1274L426 1340M477 1274L547 1318M495 1270L564 1208M495 1270L547 1318M694 1240L768 1262M694 1240L691 1321M768 1262L841 1254M768 1262L799 1290M768 1262L802 1293M841 1254L799 1290M841 1254L802 1293M841 1254L890 1311M931 1218L962 1211M931 1218L890 1311M931 1218L1000 1290M962 1211L1046 1246M962 1211L1000 1290M1046 1246L1135 1271M1046 1246L1000 1290M1046 1246L1090 1332M1135 1271L1240 1219M1135 1271L1090 1332M1135 1271L1151 1360M1135 1271L1207 1333M1240 1219L1340 1273M1240 1219L1207 1333M1340 1273L1408 1262M1340 1273L1314 1350M1340 1273L1427 1292M1408 1262L1451 1266M1408 1262L1427 1292M1408 1262L1448 1349M1451 1266L1427 1292M1451 1266L1448 1349M1558 1213L1625 1201M1558 1213L1584 1332M1625 1201L1726 1222M1726 1222L1796 1273M1796 1273L1858 1233M1796 1273L1781 1330M1796 1273L1874 1301M1858 1233L1973 1222M1858 1233L1874 1301M1973 1222L2029 1255M1973 1222L1986 1281M2029 1255L2094 1215M2029 1255L1986 1281M2029 1255L2020 1344M2216 1259L2247 1204M2216 1259L2215 1306M2247 1204L2215 1306M2342 1267L2403 1278M2342 1267L2319 1294M2342 1267L2337 1311M2403 1278L2319 1294M2403 1278L2337 1311M2403 1278L2470 1344M2529 1228L2568 1292M-31 1228L8 1292M8 1292L-56 1323M2568 1292L2504 1323M138 1308L185 1301M138 1308L149 1380M138 1308L181 1365M185 1301L247 1339M185 1301L181 1365M247 1339L352 1285M247 1339L149 1380M247 1339L181 1365M247 1339L294 1405M352 1285L426 1340M426 1340L398 1431M426 1340L427 1433M426 1340L491 1383M547 1318L593 1351M547 1318L491 1383M547 1318L596 1376M593 1351L691 1321M593 1351L491 1383M593 1351L596 1376M691 1321L710 1412M691 1321L741 1372M799 1290L802 1293M799 1290L890 1311M799 1290L741 1372M802 1293L890 1311M802 1293L741 1372M890 1311L923 1396M1090 1332L1151 1360M1090 1332L1098 1429M1090 1332L1184 1385M1151 1360L1207 1333M1151 1360L1098 1429M1151 1360L1184 1385M1207 1333L1314 1350M1207 1333L1184 1385M1314 1350L1279 1427M1314 1350L1289 1416M1314 1350L1371 1394M1427 1292L1448 1349M1427 1292L1460 1391M1448 1349L1371 1394M1448 1349L1460 1391M1584 1332L1672 1359M1584 1332L1709 1327M1584 1332L1556 1362M1672 1359L1709 1327M1672 1359L1556 1362M1672 1359L1610 1432M1672 1359L1692 1408M1709 1327L1781 1330M1709 1327L1692 1408M1781 1330L1874 1301M1781 1330L1825 1373M1874 1301L1825 1373M1874 1301L1903 1373M1986 1281L2020 1344M2020 1344L2097 1332M2020 1344L1992 1405M2020 1344L2079 1362M2097 1332L2079 1362M2097 1332L2149 1361M2215 1306L2319 1294M2215 1306L2149 1361M2215 1306L2245 1370M2319 1294L2337 1311M2319 1294L2245 1370M2337 1311L2245 1370M2337 1311L2391 1385M2470 1344L2504 1323M2470 1344L2391 1385M2470 1344L2472 1374M2504 1323L2472 1374M2504 1323L2546 1393M11 1428L-14 1393M2571 1428L2546 1393M149 1380L181 1365M398 1431L427 1433M427 1433L491 1383M710 1412L741 1372M741 1372L857 1404M857 1404L923 1396M923 1396L1012 1418M1012 1418L1098 1429M1098 1429L1184 1385M1279 1427L1289 1416M1289 1416L1371 1394M1371 1394L1460 1391M1460 1391L1556 1362M1556 1362L1610 1432M1610 1432L1692 1408M1825 1373L1903 1373M1903 1373L1992 1405M1992 1405L2079 1362M2079 1362L2149 1361M2149 1361L2182 1434M2149 1361L2245 1370M2182 1434L2245 1370M2391 1385L2472 1374M2472 1374L2546 1393"/></svg>