<svg xmlns="http://www.w3.org/2000/svg" width="2560" height="1440" fill="#fff"><circle cx="4" cy="54" r="4"/><circle cx="2564" cy="54" r="4"/><circle cx="91" cy="59" r="5"/><circle cx="215" cy="40" r="4"/><circle cx="317" cy="31" r="5"/><circle cx="359" cy="65" r="5"/><circle cx="472" cy="74" r="5"/><circle cx="523" cy="51" r="5"/><circle cx="587" cy="62" r="5"/><circle cx="653" cy="8" r="5"/><circle cx="768" cy="9" r="4"/><circle cx="801" cy="29" r="4"/><circle cx="934" cy="46" r="4"/><circle cx="1012" cy="9" r="4"/><circle cx="1069" cy="45" r="4"/><circle cx="1138" cy="73" r="5"/><circle cx="1237" cy="29" r="6"/><circle cx="1344" cy="28" r="6"/><circle cx="1411" cy="62" r="5"/><circle cx="1481" cy="35" r="5"/><circle cx="1527" cy="39" r="4"/><circle cx="1619" cy="5" r="4"/><circle cx="1754" cy="16" r="5"/><circle cx="1793" cy="1" r="5"/><circle cx="1793" cy="1441" r="5"/><circle cx="1907" cy="62" r="4"/><circle cx="1924" cy="44" r="5"/><circle cx="2013" cy="44" r="4"/><circle cx="2094" cy="42" r="5"/><circle cx="2214" cy="60" r="5"/><circle cx="2276" cy="52" r="5"/><circle cx="2349" cy="80" r="6"/><circle cx="2450" cy="46" r="5"/><circle cx="2550" cy="25" r="5"/><circle cx="15" cy="108" r="5"/><circle cx="95" cy="146" r="6"/><circle cx="165" cy="96" r="6"/><circle cx="264" cy="122" r="4"/><circle cx="327" cy="143" r="5"/><circle cx="427" cy="145" r="5"/><circle cx="534" cy="115" r="6"/><circle cx="584" cy="144" r="5"/><circle cx="685" cy="142" r="5"/><circle cx="722" cy="117" r="5"/><circle cx="873" cy="137" r="4"/><circle cx="923" cy="100" r="5"/><circle cx="1003" cy="92" r="6"/><circle cx="1118" cy="127" r="4"/><circle cx="1123" cy="145" r="5"/><circle cx="1212" cy="104" r="4"/><circle cx="1297" cy="115" r="6"/><circle cx="1400" cy="110" r="4"/><circle cx="1440" cy="84" r="5"/><circle cx="1538" cy="90" r="6"/><circle cx="1625" cy="157" r="4"/><circle cx="1713" cy="85" r="5"/><circle cx="1792" cy="146" r="5"/><circle cx="1907" cy="111" r="4"/><circle cx="1938" cy="107" r="6"/><circle cx="2043" cy="122" r="5"/><circle cx="2102" cy="89" r="5"/><circle cx="2230" cy="129" r="5"/><circle cx="2276" cy="160" r="4"/><circle cx="2359" cy="146" r="5"/><circle cx="2471" cy="83" r="5"/><circle cx="2551" cy="81" r="4"/><circle cx="55" cy="229" r="4"/><circle cx="80" cy="214" r="5"/><circle cx="224" cy="217" r="4"/><circle cx="318" cy="219" r="5"/><circle cx="364" cy="212" r="4"/><circle cx="424" cy="208" r="4"/><circle cx="490" cy="238" r="4"/><circle cx="595" cy="219" r="5"/><circle cx="663" cy="182" r="5"/><circle cx="733" cy="216" r="5"/><circle cx="832" cy="224" r="6"/><circle cx="907" cy="230" r="6"/><circle cx="960" cy="202" r="5"/><circle cx="1076" cy="170" r="5"/><circle cx="1179" cy="233" r="4"/><circle cx="1207" cy="240" r="5"/><circle cx="1344" cy="172" r="5"/><circle cx="1396" cy="171" r="5"/><circle cx="1477" cy="239" r="6"/><circle cx="1598" cy="203" r="5"/><circle cx="1663" cy="173" r="5"/><circle cx="1718" cy="172" r="6"/><circle cx="1794" cy="204" r="5"/><circle cx="1842" cy="189" r="6"/><circle cx="1997" cy="239" r="4"/><circle cx="2004" cy="211" r="5"/><circle cx="2118" cy="215" r="4"/><circle cx="2215" cy="194" r="5"/><circle cx="2303" cy="192" r="5"/><circle cx="2368" cy="224" r="6"/><circle cx="2444" cy="178" r="5"/><circle cx="2559" cy="236" r="5"/><circle cx="-1" cy="236" r="5"/><circle cx="21" cy="259" r="6"/><circle cx="109" cy="314" r="5"/><circle cx="208" cy="300" r="5"/><circle cx="318" cy="261" r="5"/><circle cx="386" cy="240" r="4"/><circle cx="469" cy="291" r="6"/><circle cx="509" cy="319" r="4"/><circle cx="568" cy="275" r="4"/><circle cx="657" cy="247" r="5"/><circle cx="761" cy="298" r="5"/><circle cx="820" cy="266" r="5"/><circle cx="931" cy="266" r="5"/><circle cx="1024" cy="320" r="5"/><circle cx="1094" cy="287" r="5"/><circle cx="1194" cy="285" r="5"/><circle cx="1272" cy="261" r="5"/><circle cx="1352" cy="262" r="5"/><circle cx="1368" cy="311" r="4"/><circle cx="1467" cy="240" r="5"/><circle cx="1539" cy="289" r="6"/><circle cx="1648" cy="255" r="6"/><circle cx="1709" cy="264" r="4"/><circle cx="1840" cy="312" r="5"/><circle cx="1847" cy="263" r="6"/><circle cx="1977" cy="318" r="5"/><circle cx="2037" cy="263" r="4"/><circle cx="2080" cy="291" r="4"/><circle cx="2236" cy="287" r="4"/><circle cx="2247" cy="285" r="5"/><circle cx="2381" cy="252" r="6"/><circle cx="2455" cy="264" r="5"/><circle cx="2491" cy="297" r="5"/><circle cx="47" cy="342" r="5"/><circle cx="109" cy="321" r="4"/><circle cx="173" cy="393" r="5"/><circle cx="250" cy="348" r="4"/><circle cx="366" cy="340" r="4"/><circle cx="434" cy="335" r="5"/><circle cx="528" cy="349" r="6"/><circle cx="603" cy="351" r="6"/><circle cx="694" cy="387" r="5"/><circle cx="770" cy="354" r="4"/><circle cx="858" cy="354" r="6"/><circle cx="947" cy="324" r="5"/><circle cx="974" cy="355" r="5"/><circle cx="1048" cy="397" r="5"/><circle cx="1120" cy="327" r="6"/><circle cx="1253" cy="378" r="5"/><circle cx="1311" cy="396" r="4"/><circle cx="1380" cy="327" r="4"/><circle cx="1452" cy="365" r="4"/><circle cx="1578" cy="353" r="5"/><circle cx="1660" cy="336" r="5"/><circle cx="1721" cy="332" r="6"/><circle cx="1801" cy="348" r="4"/><circle cx="1904" cy="342" r="5"/><circle cx="1945" cy="382" r="4"/><circle cx="2051" cy="345" r="5"/><circle cx="2111" cy="373" r="5"/><circle cx="2237" cy="379" r="5"/><circle cx="2272" cy="327" r="4"/><circle cx="2335" cy="343" r="6"/><circle cx="2443" cy="341" r="5"/><circle cx="2512" cy="356" r="4"/><circle cx="17" cy="428" r="4"/><circle cx="130" cy="473" r="4"/><circle cx="222" cy="415" r="5"/><circle cx="314" cy="422" r="5"/><circle cx="377" cy="415" r="5"/><circle cx="400" cy="415" r="5"/><circle cx="516" cy="457" r="5"/><circle cx="622" cy="468" r="5"/><circle cx="698" cy="409" r="6"/><circle cx="728" cy="400" r="6"/><circle cx="853" cy="421" r="6"/><circle cx="898" cy="457" r="5"/><circle cx="964" cy="437" r="5"/><circle cx="1100" cy="439" r="6"/><circle cx="1133" cy="450" r="5"/><circle cx="1215" cy="412" r="5"/><circle cx="1336" cy="464" r="6"/><circle cx="1431" cy="470" r="5"/><circle cx="1463" cy="410" r="6"/><circle cx="1541" cy="470" r="4"/><circle cx="1680" cy="471" r="5"/><circle cx="1697" cy="436" r="5"/><circle cx="1825" cy="455" r="4"/><circle cx="1849" cy="437" r="5"/><circle cx="1994" cy="426" r="6"/><circle cx="2075" cy="452" r="5"/><circle cx="2119" cy="440" r="4"/><circle cx="2235" cy="455" r="5"/><circle cx="2240" cy="431" r="6"/><circle cx="2359" cy="428" r="5"/><circle cx="2458" cy="460" r="4"/><circle cx="2531" cy="455" r="5"/><circle cx="16" cy="495" r="5"/><circle cx="110" cy="482" r="6"/><circle cx="184" cy="558" r="6"/><circle cx="249" cy="520" r="5"/><circle cx="343" cy="559" r="5"/><circle cx="412" cy="560" r="5"/><circle cx="520" cy="508" r="6"/><circle cx="570" cy="552" r="5"/><circle cx="696" cy="541" r="5"/><circle cx="723" cy="509" r="5"/><circle cx="832" cy="504" r="5"/><circle cx="902" cy="487" r="5"/><circle cx="984" cy="483" r="6"/><circle cx="1118" cy="484" r="4"/><circle cx="1122" cy="545" r="5"/><circle cx="1202" cy="496" r="5"/><circle cx="1312" cy="540" r="4"/><circle cx="1385" cy="517" r="5"/><circle cx="1493" cy="494" r="6"/><circle cx="1523" cy="531" r="4"/><circle cx="1666" cy="513" r="5"/><circle cx="1722" cy="482" r="6"/><circle cx="1765" cy="536" r="6"/><circle cx="1909" cy="555" r="5"/><circle cx="1925" cy="481" r="6"/><circle cx="2063" cy="481" r="5"/><circle cx="2139" cy="516" r="5"/><circle cx="2161" cy="497" r="6"/><circle cx="2288" cy="498" r="6"/><circle cx="2335" cy="521" r="5"/><circle cx="2401" cy="546" r="4"/><circle cx="2489" cy="488" r="6"/><circle cx="48" cy="638" r="6"/><circle cx="97" cy="621" r="6"/><circle cx="167" cy="583" r="6"/><circle cx="302" cy="588" r="5"/><circle cx="390" cy="627" r="6"/><circle cx="455" cy="581" r="5"/><circle cx="517" cy="633" r="4"/><circle cx="565" cy="573" r="4"/><circle cx="685" cy="627" r="4"/><circle cx="763" cy="578" r="4"/><circle cx="853" cy="575" r="4"/><circle cx="948" cy="597" r="4"/><circle cx="971" cy="595" r="4"/><circle cx="1093" cy="628" r="6"/><circle cx="1142" cy="573" r="4"/><circle cx="1233" cy="575" r="4"/><circle cx="1354" cy="579" r="6"/><circle cx="1434" cy="597" r="5"/><circle cx="1462" cy="604" r="4"/><circle cx="1567" cy="573" r="5"/><circle cx="1642" cy="635" r="5"/><circle cx="1755" cy="615" r="6"/><circle cx="1835" cy="625" r="6"/><circle cx="1880" cy="616" r="5"/><circle cx="1968" cy="638" r="5"/><circle cx="2002" cy="566" r="4"/><circle cx="2105" cy="562" r="5"/><circle cx="2239" cy="601" r="5"/><circle cx="2244" cy="561" r="6"/><circle cx="2333" cy="611" r="6"/><circle cx="2461" cy="568" r="4"/><circle cx="2521" cy="633" r="5"/><circle cx="8" cy="704" r="5"/><circle cx="136" cy="660" r="4"/><circle cx="219" cy="706" r="4"/><circle cx="311" cy="664" r="4"/><circle cx="373" cy="707" r="5"/><circle cx="443" cy="680" r="6"/><circle cx="514" cy="674" r="4"/><circle cx="620" cy="696" r="4"/><circle cx="669" cy="647" r="6"/><circle cx="759" cy="667" r="5"/><circle cx="846" cy="642" r="5"/><circle cx="940" cy="684" r="5"/><circle cx="980" cy="689" r="4"/><circle cx="1070" cy="709" r="4"/><circle cx="1142" cy="679" r="5"/><circle cx="1252" cy="707" r="5"/><circle cx="1347" cy="656" r="5"/><circle cx="1376" cy="647" r="5"/><circle cx="1517" cy="698" r="5"/><circle cx="1581" cy="667" r="5"/><circle cx="1667" cy="712" r="6"/><circle cx="1698" cy="667" r="5"/><circle cx="1818" cy="695" r="5"/><circle cx="1877" cy="688" r="5"/><circle cx="1960" cy="700" r="6"/><circle cx="2051" cy="654" r="4"/><circle cx="2149" cy="655" r="5"/><circle cx="2220" cy="645" r="4"/><circle cx="2291" cy="687" r="5"/><circle cx="2374" cy="696" r="4"/><circle cx="2457" cy="695" r="6"/><circle cx="2511" cy="659" r="5"/><circle cx="20" cy="790" r="6"/><circle cx="154" cy="759" r="5"/><circle cx="224" cy="799" r="5"/><circle cx="283" cy="748" r="5"/><circle cx="344" cy="736" r="5"/><circle cx="437" cy="756" r="4"/><circle cx="501" cy="774" r="4"/><circle cx="573" cy="792" r="6"/><circle cx="672" cy="740" r="6"/><circle cx="759" cy="731" r="5"/><circle cx="870" cy="744" r="6"/><circle cx="929" cy="799" r="5"/><circle cx="1009" cy="726" r="4"/><circle cx="1107" cy="728" r="5"/><circle cx="1170" cy="732" r="5"/><circle cx="1244" cy="724" r="5"/><circle cx="1282" cy="800" r="4"/><circle cx="1381" cy="767" r="4"/><circle cx="1457" cy="729" r="6"/><circle cx="1575" cy="732" r="6"/><circle cx="1642" cy="768" r="6"/><circle cx="1711" cy="741" r="6"/><circle cx="1772" cy="756" r="5"/><circle cx="1871" cy="778" r="6"/><circle cx="1938" cy="755" r="5"/><circle cx="2079" cy="756" r="5"/><circle cx="2132" cy="795" r="5"/><circle cx="2181" cy="724" r="5"/><circle cx="2279" cy="792" r="6"/><circle cx="2384" cy="748" r="5"/><circle cx="2455" cy="799" r="6"/><circle cx="2528" cy="798" r="4"/><circle cx="38" cy="879" r="4"/><circle cx="143" cy="817" r="6"/><circle cx="214" cy="808" r="5"/><circle cx="265" cy="854" r="4"/><circle cx="359" cy="832" r="5"/><circle cx="428" cy="805" r="6"/><circle cx="526" cy="831" r="5"/><circle cx="635" cy="816" r="5"/><circle cx="699" cy="842" r="5"/><circle cx="744" cy="874" r="5"/><circle cx="866" cy="873" r="4"/><circle cx="910" cy="800" r="6"/><circle cx="1036" cy="822" r="4"/><circle cx="1115" cy="834" r="5"/><circle cx="1184" cy="813" r="4"/><circle cx="1259" cy="866" r="4"/><circle cx="1324" cy="838" r="6"/><circle cx="1425" cy="813" r="6"/><circle cx="1452" cy="872" r="6"/><circle cx="1550" cy="844" r="4"/><circle cx="1647" cy="838" r="6"/><circle cx="1754" cy="814" r="5"/><circle cx="1828" cy="857" r="5"/><circle cx="1891" cy="806" r="5"/><circle cx="1969" cy="869" r="5"/><circle cx="2020" cy="822" r="5"/><circle cx="2146" cy="876" r="4"/><circle cx="2228" cy="863" r="5"/><circle cx="2274" cy="831" r="4"/><circle cx="2377" cy="829" r="5"/><circle cx="2442" cy="859" r="5"/><circle cx="2519" cy="803" r="4"/><circle cx="38" cy="936" r="6"/><circle cx="130" cy="913" r="5"/><circle cx="176" cy="941" r="5"/><circle cx="278" cy="925" r="4"/><circle cx="330" cy="919" r="5"/><circle cx="406" cy="886" r="6"/><circle cx="535" cy="946" r="5"/><circle cx="631" cy="954" r="4"/><circle cx="692" cy="896" r="4"/><circle cx="724" cy="884" r="6"/><circle cx="862" cy="924" r="4"/><circle cx="934" cy="907" r="5"/><circle cx="1033" cy="953" r="5"/><circle cx="1066" cy="934" r="4"/><circle cx="1125" cy="917" r="6"/><circle cx="1213" cy="915" r="6"/><circle cx="1313" cy="909" r="5"/><circle cx="1382" cy="905" r="5"/><circle cx="1467" cy="912" r="4"/><circle cx="1539" cy="959" r="4"/><circle cx="1667" cy="928" r="5"/><circle cx="1686" cy="928" r="5"/><circle cx="1833" cy="881" r="6"/><circle cx="1882" cy="913" r="4"/><circle cx="1985" cy="882" r="6"/><circle cx="2047" cy="902" r="5"/><circle cx="2112" cy="954" r="4"/><circle cx="2218" cy="899" r="6"/><circle cx="2259" cy="882" r="6"/><circle cx="2389" cy="939" r="5"/><circle cx="2463" cy="882" r="6"/><circle cx="2520" cy="885" r="5"/><circle cx="68" cy="1034" r="5"/><circle cx="97" cy="1037" r="6"/><circle cx="237" cy="971" r="6"/><circle cx="311" cy="1019" r="6"/><circle cx="339" cy="1023" r="5"/><circle cx="419" cy="1034" r="6"/><circle cx="488" cy="987" r="4"/><circle cx="581" cy="1007" r="6"/><circle cx="655" cy="1030" r="4"/><circle cx="724" cy="1036" r="4"/><circle cx="821" cy="977" r="5"/><circle cx="896" cy="1014" r="4"/><circle cx="994" cy="979" r="4"/><circle cx="1051" cy="982" r="5"/><circle cx="1144" cy="1024" r="5"/><circle cx="1231" cy="999" r="4"/><circle cx="1300" cy="1029" r="6"/><circle cx="1423" cy="1015" r="4"/><circle cx="1455" cy="965" r="4"/><circle cx="1598" cy="1017" r="5"/><circle cx="1608" cy="1026" r="6"/><circle cx="1741" cy="963" r="5"/><circle cx="1830" cy="966" r="5"/><circle cx="1850" cy="989" r="5"/><circle cx="1957" cy="1035" r="5"/><circle cx="2036" cy="973" r="4"/><circle cx="2093" cy="973" r="5"/><circle cx="2210" cy="1034" r="4"/><circle cx="2287" cy="988" r="6"/><circle cx="2335" cy="1015" r="6"/><circle cx="2443" cy="1025" r="6"/><circle cx="2484" cy="980" r="6"/><circle cx="53" cy="1046" r="6"/><circle cx="105" cy="1062" r="5"/><circle cx="213" cy="1078" r="4"/><circle cx="282" cy="1067" r="4"/><circle cx="356" cy="1070" r="5"/><circle cx="404" cy="1117" r="5"/><circle cx="536" cy="1085" r="4"/><circle cx="576" cy="1093" r="5"/><circle cx="679" cy="1105" r="6"/><circle cx="761" cy="1058" r="4"/><circle cx="822" cy="1043" r="6"/><circle cx="937" cy="1071" r="4"/><circle cx="985" cy="1064" r="6"/><circle cx="1059" cy="1054" r="6"/><circle cx="1137" cy="1111" r="5"/><circle cx="1264" cy="1080" r="4"/><circle cx="1295" cy="1110" r="4"/><circle cx="1434" cy="1100" r="5"/><circle cx="1475" cy="1119" r="5"/><circle cx="1584" cy="1108" r="4"/><circle cx="1632" cy="1062" r="6"/><circle cx="1737" cy="1098" r="5"/><circle cx="1789" cy="1086" r="4"/><circle cx="1841" cy="1063" r="5"/><circle cx="1945" cy="1103" r="5"/><circle cx="2029" cy="1053" r="4"/><circle cx="2103" cy="1072" r="5"/><circle cx="2199" cy="1108" r="6"/><circle cx="2290" cy="1092" r="5"/><circle cx="2379" cy="1063" r="4"/><circle cx="2429" cy="1107" r="6"/><circle cx="2559" cy="1070" r="4"/><circle cx="-1" cy="1070" r="4"/><circle cx="4" cy="1188" r="6"/><circle cx="2564" cy="1188" r="6"/><circle cx="103" cy="1190" r="4"/><circle cx="180" cy="1159" r="4"/><circle cx="312" cy="1178" r="5"/><circle cx="372" cy="1121" r="6"/><circle cx="469" cy="1156" r="5"/><circle cx="520" cy="1180" r="5"/><circle cx="570" cy="1175" r="5"/><circle cx="716" cy="1168" r="5"/><circle cx="794" cy="1123" r="5"/><circle cx="859" cy="1133" r="4"/><circle cx="882" cy="1126" r="5"/><circle cx="994" cy="1181" r="4"/><circle cx="1076" cy="1162" r="5"/><circle cx="1140" cy="1147" r="5"/><circle cx="1276" cy="1148" r="6"/><circle cx="1342" cy="1176" r="5"/><circle cx="1374" cy="1153" r="6"/><circle cx="1497" cy="1161" r="5"/><circle cx="1552" cy="1188" r="5"/><circle cx="1652" cy="1132" r="5"/><circle cx="1724" cy="1151" r="5"/><circle cx="1830" cy="1158" r="5"/><circle cx="1893" cy="1177" r="5"/><circle cx="1984" cy="1184" r="4"/><circle cx="2045" cy="1139" r="5"/><circle cx="2099" cy="1169" r="5"/><circle cx="2161" cy="1160" r="5"/><circle cx="2268" cy="1155" r="4"/><circle cx="2354" cy="1132" r="5"/><circle cx="2437" cy="1154" r="5"/><circle cx="2533" cy="1137" r="5"/><circle cx="54" cy="1244" r="6"/><circle cx="148" cy="1219" r="5"/><circle cx="197" cy="1231" r="4"/><circle cx="256" cy="1235" r="5"/><circle cx="340" cy="1274" r="5"/><circle cx="463" cy="1245" r="5"/><circle cx="553" cy="1267" r="4"/><circle cx="587" cy="1236" r="4"/><circle cx="676" cy="1230" r="5"/><circle cx="768" cy="1241" r="5"/><circle cx="858" cy="1242" r="5"/><circle cx="952" cy="1218" r="5"/><circle cx="991" cy="1234" r="6"/><circle cx="1082" cy="1245" r="4"/><circle cx="1189" cy="1266" r="5"/><circle cx="1229" cy="1222" r="6"/><circle cx="1303" cy="1256" r="6"/><circle cx="1432" cy="1239" r="6"/><circle cx="1511" cy="1208" r="5"/><circle cx="1534" cy="1225" r="6"/><circle cx="1627" cy="1278" r="5"/><circle cx="1730" cy="1263" r="4"/><circle cx="1825" cy="1252" r="4"/><circle cx="1878" cy="1230" r="5"/><circle cx="1971" cy="1237" r="4"/><circle cx="2035" cy="1251" r="6"/><circle cx="2140" cy="1267" r="4"/><circle cx="2203" cy="1240" r="5"/><circle cx="2293" cy="1261" r="6"/><circle cx="2337" cy="1269" r="6"/><circle cx="2407" cy="1273" r="6"/><circle cx="2515" cy="1242" r="4"/><circle cx="78" cy="1296" r="6"/><circle cx="154" cy="1352" r="5"/><circle cx="208" cy="1353" r="4"/><circle cx="309" cy="1280" r="6"/><circle cx="397" cy="1299" r="6"/><circle cx="462" cy="1341" r="5"/><circle cx="482" cy="1330" r="6"/><circle cx="610" cy="1302" r="6"/><circle cx="674" cy="1341" r="6"/><circle cx="777" cy="1358" r="5"/><circle cx="816" cy="1286" r="4"/><circle cx="907" cy="1323" r="4"/><circle cx="1026" cy="1307" r="6"/><circle cx="1092" cy="1281" r="6"/><circle cx="1155" cy="1308" r="6"/><circle cx="1222" cy="1281" r="6"/><circle cx="1303" cy="1317" r="5"/><circle cx="1391" cy="1302" r="5"/><circle cx="1495" cy="1353" r="4"/><circle cx="1536" cy="1333" r="5"/><circle cx="1660" cy="1324" r="5"/><circle cx="1747" cy="1322" r="6"/><circle cx="1803" cy="1287" r="6"/><circle cx="1859" cy="1293" r="5"/><circle cx="1927" cy="1321" r="5"/><circle cx="2012" cy="1335" r="6"/><circle cx="2091" cy="1304" r="5"/><circle cx="2170" cy="1294" r="6"/><circle cx="2241" cy="1349" r="4"/><circle cx="2369" cy="1324" r="5"/><circle cx="2431" cy="1293" r="6"/><circle cx="2549" cy="1307" r="6"/><circle cx="0" cy="1409" r="6"/><circle cx="2560" cy="1409" r="6"/><circle cx="99" cy="1423" r="4"/><circle cx="177" cy="1418" r="4"/><circle cx="312" cy="1391" r="5"/><circle cx="355" cy="1396" r="5"/><circle cx="471" cy="1395" r="6"/><circle cx="529" cy="1396" r="6"/><circle cx="592" cy="1432" r="4"/><circle cx="660" cy="1372" r="5"/><circle cx="790" cy="1427" r="6"/><circle cx="853" cy="1427" r="4"/><circle cx="957" cy="1378" r="6"/><circle cx="977" cy="1390" r="5"/><circle cx="1056" cy="1437" r="6"/><circle cx="1056" cy="-3" r="6"/><circle cx="1187" cy="1365" r="5"/><circle cx="1254" cy="1420" r="5"/><circle cx="1292" cy="1440" r="5"/><circle cx="1292" cy="-0" r="5"/><circle cx="1435" cy="1420" r="6"/><circle cx="1476" cy="1394" r="5"/><circle cx="1573" cy="1428" r="6"/><circle cx="1620" cy="1372" r="5"/><circle cx="1692" cy="1423" r="5"/><circle cx="1813" cy="1420" r="6"/><circle cx="1898" cy="1426" r="5"/><circle cx="1999" cy="1430" r="5"/><circle cx="2054" cy="1375" r="5"/><circle cx="2111" cy="1398" r="4"/><circle cx="2175" cy="1372" r="6"/><circle cx="2269" cy="1404" r="6"/><circle cx="2379" cy="1416" r="5"/><circle cx="2456" cy="1426" r="5"/><circle cx="2547" cy="1407" r="4"/><path stroke="#fff" d="M4 54L91 59M4 54L-10 25M4 54L15 108M4 54L-9 81M4 54L0 -31M2564 54L2550 25M2564 54L2551 81M4 1494L0 1409M91 59L15 108M91 59L95 146M91 59L165 96M91 59L99 -17M91 1499L99 1423M215 40L317 31M215 40L165 96M215 40L264 122M215 40L177 -22M215 1480L177 1418M317 31L359 65M317 31L264 122M317 31L312 -49M317 31L355 -44M317 1471L312 1391M317 1471L355 1396M359 65L472 74M359 65L327 143M359 65L427 145M359 65L355 -44M359 1505L355 1396M472 74L523 51M472 74L427 145M472 74L534 115M472 74L471 -45M472 1514L471 1395M523 51L587 62M523 51L534 115M523 51L529 -44M523 51L592 -8M523 1491L529 1396M523 1491L592 1432M587 62L653 8M587 62L534 115M587 62L584 144M587 62L592 -8M587 1502L592 1432M653 8L768 9M653 8L674 -99M653 8L592 -8M653 8L660 -68M653 1448L674 1341M653 1448L592 1432M653 1448L660 1372M768 9L801 29M768 9L777 -82M768 9L790 -13M768 9L853 -13M768 1449L777 1358M768 1449L790 1427M768 1449L853 1427M801 29L722 117M801 29L790 -13M801 29L853 -13M801 1469L790 1427M801 1469L853 1427M934 46L923 100M934 46L1003 92M1012 9L1069 45M1012 9L1003 92M1012 9L957 -62M1012 9L977 -50M1012 9L1056 -3M1012 1449L957 1378M1012 1449L977 1390M1012 1449L1056 1437M1069 45L1138 73M1069 45L1003 92M1069 45L1118 127M1069 45L1056 -3M1069 1485L1056 1437M1138 73L1118 127M1138 73L1123 145M1138 73L1212 104M1237 29L1344 28M1237 29L1212 104M1237 29L1297 115M1237 29L1254 -20M1237 29L1292 -0M1237 1469L1254 1420M1237 1469L1292 1440M1344 28L1411 62M1344 28L1297 115M1344 28L1292 -0M1344 28L1435 -20M1344 1468L1292 1440M1344 1468L1435 1420M1411 62L1481 35M1411 62L1400 110M1411 62L1440 84M1411 62L1435 -20M1411 1502L1435 1420M1481 35L1527 39M1481 35L1440 84M1481 35L1538 90M1481 35L1435 -20M1481 1475L1435 1420M1527 39L1538 90M1527 39L1476 -46M1527 39L1573 -12M1527 1479L1476 1394M1527 1479L1573 1428M1619 5L1573 -12M1619 5L1620 -68M1619 5L1692 -17M1619 1445L1573 1428M1619 1445L1620 1372M1619 1445L1692 1423M1754 16L1793 1M1754 16L1713 85M1754 16L1692 -17M1754 16L1813 -20M1754 1456L1692 1423M1754 1456L1813 1420M1793 1L1692 -17M1793 1L1813 -20M1793 1L1898 -14M1793 1441L1692 1423M1793 1441L1813 1420M1793 1441L1898 1426M1907 62L1924 44M1907 62L1907 111M1907 62L1938 107M1907 62L1813 -20M1907 62L1898 -14M1907 1502L1813 1420M1907 1502L1898 1426M1924 44L1907 111M1924 44L1938 107M1924 44L1898 -14M1924 44L1999 -10M1924 1484L1898 1426M1924 1484L1999 1430M2013 44L2094 42M2013 44L1938 107M2013 44L2043 122M2013 44L2102 89M2013 44L1999 -10M2013 1484L1999 1430M2094 42L2043 122M2094 42L2102 89M2094 42L2111 -42M2094 1482L2111 1398M2214 60L2276 52M2214 60L2102 89M2214 60L2230 129M2214 60L2269 -36M2214 1500L2269 1404M2276 52L2349 80M2276 52L2230 129M2276 52L2269 -36M2276 1492L2269 1404M2349 80L2450 46M2349 80L2276 160M2349 80L2359 146M2349 80L2379 -24M2349 1520L2379 1416M2450 46L2471 83M2450 46L2379 -24M2450 46L2456 -14M2450 1486L2379 1416M2450 1486L2456 1426M2550 25L2575 108M2550 25L2551 81M2550 25L2560 -31M2550 25L2547 -33M-10 25L15 108M-10 25L0 -31M-10 1465L0 1409M2550 1465L2560 1409M2550 1465L2547 1407M15 108L95 146M15 108L-9 81M2575 108L2551 81M95 146L165 96M95 146L55 229M95 146L80 214M165 96L264 122M165 96L177 -22M165 1536L177 1418M264 122L327 143M327 143L427 145M327 143L318 219M327 143L364 212M427 145L424 208M534 115L584 144M534 115L595 219M584 144L685 142M584 144L595 219M685 142L722 117M685 142L663 182M685 142L733 216M685 142L657 247M722 117L663 182M873 137L923 100M873 137L832 224M873 137L907 230M873 137L960 202M923 100L1003 92M923 100L960 202M1003 92L1056 -3M1003 1532L1056 1437M1118 127L1123 145M1118 127L1212 104M1118 127L1076 170M1123 145L1212 104M1123 145L1076 170M1212 104L1297 115M1297 115L1400 110M1297 115L1344 172M1400 110L1440 84M1400 110L1344 172M1400 110L1396 171M1440 84L1538 90M1538 90L1625 157M1538 90L1573 -12M1538 1530L1573 1428M1625 157L1598 203M1625 157L1663 173M1625 157L1718 172M1713 85L1792 146M1713 85L1663 173M1713 85L1718 172M1713 85L1692 -17M1713 1525L1692 1423M1792 146L1718 172M1792 146L1794 204M1792 146L1842 189M1907 111L1938 107M1907 111L1842 189M1938 107L2043 122M2043 122L2102 89M2043 122L2004 211M2230 129L2276 160M2230 129L2215 194M2276 160L2359 146M2276 160L2215 194M2276 160L2303 192M2359 146L2303 192M2359 146L2368 224M2359 146L2444 178M2471 83L2551 81M2471 83L2444 178M2471 83L2456 -14M2471 1523L2456 1426M55 229L80 214M55 229L-1 236M55 229L21 259M2615 229L2559 236M80 214L-1 236M80 214L21 259M80 214L109 314M2640 214L2559 236M224 217L318 219M224 217L208 300M224 217L318 261M318 219L364 212M318 219L318 261M318 219L386 240M364 212L424 208M364 212L318 261M364 212L386 240M424 208L490 238M424 208L386 240M424 208L469 291M490 238L469 291M490 238L509 319M595 219L663 182M595 219L568 275M595 219L657 247M663 182L733 216M663 182L657 247M733 216L832 224M733 216L657 247M733 216L761 298M832 224L907 230M832 224L761 298M832 224L820 266M907 230L960 202M907 230L820 266M907 230L931 266M960 202L1076 170M960 202L931 266M1076 170L1094 287M1179 233L1207 240M1179 233L1094 287M1179 233L1194 285M1179 233L1272 261M1207 240L1194 285M1207 240L1272 261M1344 172L1396 171M1344 172L1352 262M1396 171L1477 239M1396 171L1352 262M1396 171L1467 240M1477 239L1467 240M1477 239L1539 289M1598 203L1663 173M1598 203L1539 289M1598 203L1648 255M1663 173L1718 172M1663 173L1648 255M1718 172L1794 204M1794 204L1842 189M1794 204L1709 264M1794 204L1847 263M1842 189L1840 312M1842 189L1847 263M1997 239L2004 211M1997 239L1977 318M1997 239L2037 263M1997 239L2080 291M2004 211L2037 263M2118 215L2080 291M2215 194L2303 192M2215 194L2236 287M2215 194L2247 285M2303 192L2368 224M2303 192L2381 252M2368 224L2444 178M2368 224L2381 252M2368 224L2455 264M2444 178L2381 252M2444 178L2455 264M2559 236L2581 259M2559 236L2491 297M-1 236L21 259M21 259L-69 297M21 259L47 342M2581 259L2491 297M109 314L208 300M109 314L47 342M109 314L109 321M208 300L109 321M208 300L250 348M318 261L386 240M318 261L366 340M469 291L509 319M469 291L434 335M469 291L528 349M509 319L568 275M509 319L434 335M509 319L528 349M568 275L657 247M568 275L528 349M568 275L603 351M761 298L820 266M761 298L770 354M761 298L728 400M820 266L858 354M931 266L947 324M931 266L974 355M1024 320L1094 287M1024 320L947 324M1024 320L974 355M1024 320L1048 397M1024 320L1120 327M1094 287L1194 285M1094 287L1120 327M1194 285L1272 261M1194 285L1120 327M1272 261L1352 262M1272 261L1368 311M1352 262L1368 311M1352 262L1380 327M1368 311L1311 396M1368 311L1380 327M1368 311L1452 365M1467 240L1539 289M1467 240L1452 365M1539 289L1578 353M1648 255L1709 264M1648 255L1660 336M1648 255L1721 332M1709 264L1660 336M1709 264L1721 332M1840 312L1847 263M1840 312L1801 348M1840 312L1904 342M1847 263L1801 348M1847 263L1904 342M1977 318L2037 263M1977 318L1904 342M1977 318L1945 382M1977 318L2051 345M2037 263L2080 291M2037 263L2051 345M2080 291L2051 345M2080 291L2111 373M2236 287L2247 285M2236 287L2272 327M2247 285L2237 379M2247 285L2272 327M2247 285L2335 343M2381 252L2455 264M2381 252L2335 343M2455 264L2491 297M2455 264L2443 341M2491 297L2443 341M2491 297L2512 356M47 342L109 321M47 342L-48 356M47 342L17 428M2607 342L2512 356M109 321L173 393M173 393L250 348M173 393L130 473M173 393L222 415M173 393L110 482M250 348L222 415M250 348L314 422M366 340L434 335M366 340L314 422M366 340L377 415M366 340L400 415M434 335L528 349M434 335L400 415M528 349L603 351M603 351L694 387M694 387L770 354M694 387L698 409M694 387L728 400M770 354L858 354M770 354L698 409M770 354L728 400M858 354L947 324M858 354L853 421M947 324L974 355M974 355L1048 397M974 355L964 437M1048 397L1120 327M1048 397L964 437M1048 397L1100 439M1120 327L1100 439M1253 378L1311 396M1253 378L1215 412M1311 396L1380 327M1311 396L1215 412M1311 396L1336 464M1380 327L1452 365M1452 365L1431 470M1452 365L1463 410M1578 353L1660 336M1578 353L1463 410M1578 353L1541 470M1660 336L1721 332M1660 336L1697 436M1721 332L1801 348M1721 332L1697 436M1801 348L1904 342M1801 348L1849 437M1904 342L1945 382M1945 382L1994 426M1945 382L1925 481M2051 345L2111 373M2051 345L1994 426M2111 373L2075 452M2111 373L2119 440M2237 379L2272 327M2237 379L2335 343M2237 379L2235 455M2237 379L2240 431M2272 327L2335 343M2272 327L2240 431M2335 343L2359 428M2443 341L2512 356M2443 341L2359 428M2512 356L2531 455M17 428L-29 455M17 428L16 495M17 428L-71 488M2577 428L2531 455M2577 428L2489 488M130 473L222 415M130 473L110 482M130 473L184 558M222 415L314 422M222 415L249 520M314 422L377 415M314 422L400 415M377 415L400 415M400 415L516 457M516 457L622 468M516 457L520 508M516 457L570 552M622 468L698 409M622 468L520 508M622 468L570 552M622 468L696 541M698 409L728 400M698 409L723 509M728 400L723 509M853 421L898 457M853 421L832 504M853 421L902 487M898 457L964 437M898 457L832 504M898 457L902 487M898 457L984 483M964 437L902 487M964 437L984 483M1100 439L1133 450M1100 439L1118 484M1133 450L1215 412M1133 450L1118 484M1133 450L1122 545M1133 450L1202 496M1215 412L1202 496M1336 464L1431 470M1336 464L1312 540M1336 464L1385 517M1431 470L1463 410M1431 470L1385 517M1431 470L1493 494M1463 410L1541 470M1463 410L1493 494M1541 470L1493 494M1541 470L1523 531M1541 470L1567 573M1680 471L1697 436M1680 471L1666 513M1680 471L1722 482M1697 436L1666 513M1697 436L1722 482M1825 455L1849 437M1825 455L1722 482M1825 455L1765 536M1825 455L1925 481M1849 437L1925 481M1994 426L2075 452M1994 426L1925 481M1994 426L2063 481M2075 452L2119 440M2075 452L2063 481M2075 452L2139 516M2119 440L2063 481M2119 440L2139 516M2119 440L2161 497M2235 455L2240 431M2235 455L2161 497M2235 455L2288 498M2240 431L2161 497M2240 431L2288 498M2359 428L2458 460M2359 428L2288 498M2359 428L2335 521M2458 460L2531 455M2458 460L2401 546M2458 460L2489 488M2458 460L2461 568M2531 455L2576 495M2531 455L2489 488M-29 455L16 495M16 495L110 482M16 495L-71 488M2576 495L2489 488M110 482L184 558M110 482L167 583M184 558L249 520M184 558L97 621M184 558L167 583M249 520L343 559M249 520L167 583M249 520L302 588M343 559L412 560M343 559L302 588M343 559L390 627M412 560L390 627M412 560L455 581M520 508L570 552M520 508L455 581M520 508L565 573M570 552L517 633M570 552L565 573M696 541L723 509M696 541L685 627M696 541L763 578M696 541L669 647M723 509L763 578M832 504L902 487M832 504L763 578M832 504L853 575M902 487L984 483M984 483L971 595M1118 484L1122 545M1118 484L1202 496M1118 484L1142 573M1122 545L1202 496M1122 545L1093 628M1122 545L1142 573M1202 496L1233 575M1312 540L1385 517M1312 540L1233 575M1312 540L1354 579M1385 517L1354 579M1385 517L1434 597M1493 494L1523 531M1493 494L1567 573M1523 531L1462 604M1523 531L1567 573M1666 513L1722 482M1666 513L1765 536M1722 482L1765 536M1765 536L1755 615M1909 555L1925 481M1909 555L1835 625M1909 555L1880 616M1909 555L2002 566M2063 481L2139 516M2063 481L2105 562M2139 516L2161 497M2139 516L2105 562M2161 497L2105 562M2288 498L2335 521M2288 498L2244 561M2335 521L2401 546M2335 521L2244 561M2335 521L2333 611M2401 546L2461 568M2489 488L2461 568M48 638L97 621M48 638L-39 633M48 638L8 704M48 638L136 660M48 638L-49 659M2608 638L2521 633M2608 638L2511 659M97 621L167 583M97 621L136 660M167 583L136 660M302 588L311 664M390 627L455 581M390 627L373 707M390 627L443 680M455 581L517 633M517 633L565 573M517 633L443 680M517 633L514 674M685 627L620 696M685 627L669 647M685 627L759 667M763 578L853 575M763 578L759 667M853 575L948 597M853 575L846 642M948 597L971 595M948 597L846 642M948 597L940 684M948 597L980 689M971 595L940 684M971 595L980 689M1093 628L1142 573M1093 628L1070 709M1093 628L1142 679M1093 628L1107 728M1142 573L1233 575M1354 579L1434 597M1354 579L1347 656M1354 579L1376 647M1434 597L1462 604M1434 597L1347 656M1434 597L1376 647M1462 604L1376 647M1462 604L1517 698M1567 573L1642 635M1567 573L1581 667M1642 635L1755 615M1642 635L1581 667M1642 635L1667 712M1642 635L1698 667M1755 615L1835 625M1755 615L1698 667M1755 615L1818 695M1835 625L1880 616M1835 625L1818 695M1835 625L1877 688M1880 616L1968 638M1880 616L1877 688M1968 638L2002 566M1968 638L1960 700M1968 638L2051 654M2002 566L2105 562M2002 566L2051 654M2105 562L2149 655M2239 601L2244 561M2239 601L2333 611M2239 601L2149 655M2239 601L2220 645M2239 601L2291 687M2244 561L2333 611M2244 561L2220 645M2333 611L2291 687M2333 611L2374 696M2461 568L2521 633M2461 568L2511 659M2521 633L2568 704M2521 633L2457 695M2521 633L2511 659M-39 633L8 704M8 704L-49 659M8 704L20 790M2568 704L2511 659M136 660L219 706M136 660L154 759M219 706L154 759M219 706L283 748M311 664L373 707M311 664L283 748M311 664L344 736M373 707L443 680M373 707L344 736M373 707L437 756M443 680L514 674M443 680L437 756M514 674L620 696M514 674L501 774M620 696L669 647M620 696L573 792M620 696L672 740M669 647L759 667M669 647L672 740M759 667L846 642M759 667L759 731M846 642L870 744M940 684L980 689M940 684L870 744M940 684L1009 726M980 689L1070 709M980 689L1009 726M1070 709L1142 679M1070 709L1009 726M1070 709L1107 728M1142 679L1107 728M1142 679L1170 732M1142 679L1244 724M1252 707L1347 656M1252 707L1170 732M1252 707L1244 724M1252 707L1282 800M1347 656L1376 647M1376 647L1457 729M1517 698L1581 667M1517 698L1457 729M1517 698L1575 732M1581 667L1575 732M1667 712L1698 667M1667 712L1575 732M1667 712L1642 768M1667 712L1711 741M1698 667L1642 768M1698 667L1711 741M1818 695L1877 688M1818 695L1772 756M1877 688L1960 700M1877 688L1871 778M1960 700L2051 654M1960 700L1938 755M2051 654L2149 655M2051 654L2079 756M2149 655L2220 645M2149 655L2181 724M2220 645L2291 687M2220 645L2181 724M2291 687L2374 696M2374 696L2457 695M2374 696L2384 748M2457 695L2511 659M2457 695L2384 748M20 790L-32 798M20 790L38 879M20 790L-41 803M2580 790L2528 798M2580 790L2519 803M154 759L224 799M154 759L143 817M154 759L214 808M224 799L283 748M224 799L143 817M224 799L214 808M224 799L265 854M283 748L344 736M283 748L214 808M344 736L359 832M437 756L501 774M437 756L428 805M501 774L573 792M501 774L428 805M501 774L526 831M573 792L672 740M573 792L526 831M573 792L635 816M672 740L759 731M672 740L635 816M759 731L870 744M759 731L699 842M870 744L929 799M870 744L910 800M929 799L866 873M929 799L910 800M929 799L1036 822M929 799L934 907M1009 726L1107 728M1009 726L1036 822M1107 728L1170 732M1170 732L1244 724M1170 732L1184 813M1244 724L1282 800M1244 724L1184 813M1282 800L1259 866M1282 800L1324 838M1381 767L1457 729M1381 767L1425 813M1457 729L1575 732M1457 729L1425 813M1575 732L1642 768M1642 768L1711 741M1642 768L1647 838M1711 741L1772 756M1711 741L1754 814M1772 756L1754 814M1871 778L1938 755M1871 778L1828 857M1871 778L1891 806M1871 778L1833 881M1938 755L1891 806M1938 755L2020 822M2079 756L2132 795M2079 756L2181 724M2079 756L2020 822M2132 795L2181 724M2132 795L2146 876M2279 792L2384 748M2279 792L2228 863M2279 792L2274 831M2279 792L2377 829M2279 792L2259 882M2384 748L2455 799M2384 748L2377 829M2455 799L2528 798M2455 799L2442 859M2455 799L2519 803M2455 799L2463 882M2528 798L2519 803M38 879L38 936M38 879L130 913M38 879L-40 885M2598 879L2520 885M143 817L214 808M143 817L130 913M143 817L176 941M214 808L265 854M265 854L359 832M265 854L278 925M265 854L330 919M359 832L428 805M359 832L330 919M359 832L406 886M428 805L526 831M428 805L406 886M526 831L535 946M635 816L699 842M635 816L692 896M635 816L724 884M699 842L744 874M699 842L692 896M699 842L724 884M744 874L692 896M744 874L724 884M866 873L910 800M866 873L862 924M866 873L934 907M910 800L1036 822M910 800L934 907M1036 822L1115 834M1115 834L1184 813M1115 834L1125 917M1184 813L1259 866M1184 813L1213 915M1259 866L1324 838M1259 866L1213 915M1259 866L1313 909M1324 838L1425 813M1324 838L1313 909M1324 838L1382 905M1425 813L1452 872M1425 813L1382 905M1452 872L1550 844M1452 872L1382 905M1452 872L1467 912M1452 872L1455 965M1550 844L1647 838M1550 844L1467 912M1647 838L1754 814M1647 838L1667 928M1647 838L1686 928M1754 814L1828 857M1828 857L1891 806M1828 857L1833 881M1828 857L1882 913M1891 806L1969 869M1891 806L1833 881M1969 869L2020 822M1969 869L1882 913M1969 869L1985 882M1969 869L2047 902M2020 822L1985 882M2020 822L2047 902M2146 876L2228 863M2146 876L2112 954M2146 876L2218 899M2228 863L2274 831M2228 863L2218 899M2228 863L2259 882M2274 831L2218 899M2274 831L2259 882M2377 829L2442 859M2442 859L2389 939M2442 859L2463 882M2442 859L2520 885M2519 803L2520 885M38 936L130 913M38 936L-40 885M38 936L68 1034M38 936L53 1046M2598 936L2520 885M130 913L176 941M176 941L278 925M176 941L97 1037M176 941L237 971M278 925L330 919M278 925L237 971M330 919L406 886M406 886L535 946M535 946L631 954M535 946L488 987M535 946L581 1007M631 954L692 896M631 954L724 884M631 954L581 1007M631 954L655 1030M692 896L724 884M862 924L934 907M862 924L821 977M862 924L896 1014M1033 953L1066 934M1033 953L1125 917M1033 953L994 979M1033 953L1051 982M1033 953L1059 1054M1066 934L1125 917M1066 934L994 979M1066 934L1051 982M1125 917L1213 915M1125 917L1051 982M1213 915L1313 909M1213 915L1231 999M1313 909L1382 905M1313 909L1300 1029M1382 905L1467 912M1467 912L1539 959M1467 912L1455 965M1539 959L1455 965M1539 959L1598 1017M1539 959L1608 1026M1667 928L1686 928M1667 928L1598 1017M1667 928L1608 1026M1667 928L1741 963M1686 928L1741 963M1833 881L1882 913M1833 881L1830 966M1882 913L1830 966M1882 913L1850 989M1985 882L2047 902M1985 882L2036 973M2047 902L2036 973M2047 902L2093 973M2112 954L2036 973M2112 954L2093 973M2218 899L2259 882M2218 899L2287 988M2259 882L2287 988M2389 939L2463 882M2389 939L2335 1015M2389 939L2443 1025M2389 939L2484 980M2463 882L2520 885M2463 882L2484 980M68 1034L97 1037M68 1034L53 1046M68 1034L105 1062M68 1034L-1 1070M2628 1034L2559 1070M97 1037L53 1046M97 1037L105 1062M97 1037L-1 1070M2657 1037L2559 1070M237 971L311 1019M311 1019L339 1023M311 1019L282 1067M311 1019L356 1070M339 1023L419 1034M339 1023L282 1067M339 1023L356 1070M419 1034L488 987M419 1034L356 1070M419 1034L404 1117M419 1034L372 1121M581 1007L655 1030M581 1007L536 1085M581 1007L576 1093M655 1030L724 1036M655 1030L679 1105M724 1036L821 977M724 1036L679 1105M724 1036L761 1058M821 977L896 1014M821 977L761 1058M821 977L822 1043M896 1014L822 1043M896 1014L937 1071M896 1014L985 1064M994 979L1051 982M994 979L985 1064M1051 982L1059 1054M1144 1024L1231 999M1144 1024L1059 1054M1144 1024L1137 1111M1144 1024L1140 1147M1231 999L1300 1029M1231 999L1264 1080M1300 1029L1264 1080M1300 1029L1295 1110M1423 1015L1455 965M1423 1015L1434 1100M1598 1017L1608 1026M1598 1017L1584 1108M1598 1017L1632 1062M1608 1026L1584 1108M1608 1026L1632 1062M1741 963L1830 966M1741 963L1850 989M1830 966L1850 989M1830 966L1841 1063M1850 989L1957 1035M1850 989L1841 1063M1957 1035L1945 1103M1957 1035L2029 1053M2036 973L2093 973M2036 973L2029 1053M2093 973L2103 1072M2210 1034L2287 988M2210 1034L2199 1108M2287 988L2335 1015M2287 988L2290 1092M2335 1015L2443 1025M2335 1015L2290 1092M2335 1015L2379 1063M2443 1025L2484 980M2443 1025L2379 1063M2443 1025L2429 1107M2484 980L2559 1070M53 1046L105 1062M53 1046L-1 1070M2613 1046L2559 1070M105 1062L213 1078M213 1078L282 1067M213 1078L180 1159M356 1070L404 1117M356 1070L372 1121M404 1117L312 1178M404 1117L372 1121M404 1117L469 1156M536 1085L576 1093M536 1085L469 1156M536 1085L570 1175M576 1093L679 1105M576 1093L570 1175M679 1105L761 1058M679 1105L716 1168M761 1058L822 1043M761 1058L794 1123M822 1043L794 1123M822 1043L859 1133M937 1071L985 1064M937 1071L859 1133M937 1071L882 1126M985 1064L1059 1054M985 1064L882 1126M1059 1054L1137 1111M1137 1111L1076 1162M1137 1111L1140 1147M1264 1080L1295 1110M1264 1080L1276 1148M1295 1110L1276 1148M1295 1110L1342 1176M1295 1110L1374 1153M1434 1100L1475 1119M1434 1100L1374 1153M1434 1100L1497 1161M1475 1119L1497 1161M1475 1119L1552 1188M1475 1119L1511 1208M1584 1108L1632 1062M1584 1108L1552 1188M1584 1108L1652 1132M1632 1062L1737 1098M1632 1062L1652 1132M1737 1098L1789 1086M1737 1098L1841 1063M1737 1098L1652 1132M1737 1098L1724 1151M1789 1086L1841 1063M1789 1086L1724 1151M1789 1086L1830 1158M1841 1063L1830 1158M1945 1103L2029 1053M1945 1103L1893 1177M1945 1103L1984 1184M2029 1053L2103 1072M2029 1053L2045 1139M2103 1072L2199 1108M2103 1072L2045 1139M2103 1072L2099 1169M2199 1108L2290 1092M2199 1108L2161 1160M2199 1108L2268 1155M2290 1092L2268 1155M2290 1092L2354 1132M2379 1063L2429 1107M2379 1063L2354 1132M2379 1063L2437 1154M2429 1107L2354 1132M2429 1107L2437 1154M2429 1107L2533 1137M2559 1070L2533 1137M4 1188L103 1190M4 1188L-27 1137M4 1188L54 1244M4 1188L-45 1242M2564 1188L2533 1137M2564 1188L2515 1242M103 1190L180 1159M103 1190L54 1244M103 1190L148 1219M103 1190L78 1296M180 1159L148 1219M180 1159L197 1231M180 1159L256 1235M312 1178L372 1121M312 1178L256 1235M312 1178L340 1274M312 1178L309 1280M372 1121L469 1156M469 1156L520 1180M469 1156L463 1245M520 1180L570 1175M520 1180L463 1245M520 1180L553 1267M520 1180L587 1236M570 1175L553 1267M570 1175L587 1236M716 1168L794 1123M716 1168L676 1230M716 1168L768 1241M794 1123L859 1133M794 1123L882 1126M859 1133L882 1126M859 1133L858 1242M882 1126L952 1218M994 1181L1076 1162M994 1181L952 1218M994 1181L991 1234M1076 1162L1140 1147M1076 1162L1082 1245M1276 1148L1342 1176M1276 1148L1374 1153M1276 1148L1229 1222M1342 1176L1374 1153M1342 1176L1303 1256M1342 1176L1432 1239M1374 1153L1432 1239M1497 1161L1552 1188M1497 1161L1511 1208M1497 1161L1534 1225M1552 1188L1511 1208M1552 1188L1534 1225M1652 1132L1724 1151M1830 1158L1893 1177M1830 1158L1825 1252M1830 1158L1878 1230M1893 1177L1984 1184M1893 1177L1878 1230M1893 1177L1971 1237M1984 1184L2045 1139M1984 1184L1971 1237M1984 1184L2035 1251M2045 1139L2099 1169M2099 1169L2161 1160M2099 1169L2035 1251M2099 1169L2140 1267M2161 1160L2203 1240M2268 1155L2354 1132M2268 1155L2203 1240M2354 1132L2437 1154M2437 1154L2533 1137M2533 1137L2515 1242M54 1244L148 1219M54 1244L78 1296M54 1244L-11 1307M2614 1244L2549 1307M148 1219L197 1231M148 1219L78 1296M197 1231L256 1235M197 1231L154 1352M256 1235L340 1274M256 1235L309 1280M340 1274L309 1280M340 1274L397 1299M340 1274L312 1391M463 1245L397 1299M463 1245L462 1341M463 1245L482 1330M553 1267L587 1236M553 1267L610 1302M587 1236L676 1230M587 1236L610 1302M676 1230L768 1241M676 1230L610 1302M676 1230L674 1341M768 1241L858 1242M768 1241L816 1286M858 1242L952 1218M858 1242L816 1286M858 1242L907 1323M952 1218L991 1234M991 1234L1082 1245M991 1234L1026 1307M991 1234L1092 1281M1082 1245L1026 1307M1082 1245L1092 1281M1082 1245L1155 1308M1189 1266L1229 1222M1189 1266L1092 1281M1189 1266L1155 1308M1189 1266L1222 1281M1189 1266L1187 1365M1229 1222L1303 1256M1229 1222L1222 1281M1303 1256L1222 1281M1303 1256L1303 1317M1303 1256L1391 1302M1432 1239L1511 1208M1432 1239L1534 1225M1432 1239L1391 1302M1511 1208L1534 1225M1534 1225L1627 1278M1627 1278L1730 1263M1627 1278L1536 1333M1627 1278L1660 1324M1627 1278L1620 1372M1730 1263L1660 1324M1730 1263L1747 1322M1730 1263L1803 1287M1825 1252L1878 1230M1825 1252L1803 1287M1825 1252L1859 1293M1878 1230L1803 1287M1878 1230L1859 1293M1971 1237L2035 1251M1971 1237L1927 1321M2035 1251L2012 1335M2035 1251L2091 1304M2140 1267L2203 1240M2140 1267L2091 1304M2140 1267L2170 1294M2203 1240L2293 1261M2203 1240L2170 1294M2293 1261L2337 1269M2293 1261L2407 1273M2293 1261L2241 1349M2293 1261L2369 1324M2337 1269L2407 1273M2337 1269L2241 1349M2337 1269L2369 1324M2337 1269L2431 1293M2407 1273L2515 1242M2407 1273L2369 1324M2407 1273L2431 1293M2515 1242L2431 1293M2515 1242L2549 1307M78 1296L154 1352M78 1296L-11 1307M2638 1296L2549 1307M154 1352L208 1353M154 1352L99 1423M154 1352L177 1418M208 1353L177 1418M208 1353L312 1391M309 1280L397 1299M309 1280L312 1391M397 1299L462 1341M397 1299L482 1330M462 1341L482 1330M462 1341L471 1395M462 1341L529 1396M482 1330L471 1395M482 1330L529 1396M610 1302L674 1341M610 1302L660 1372M674 1341L777 1358M674 1341L660 1372M777 1358L816 1286M777 1358L790 1427M777 1358L853 1427M816 1286L907 1323M907 1323L957 1378M907 1323L977 1390M1026 1307L1092 1281M1026 1307L957 1378M1026 1307L977 1390M1092 1281L1155 1308M1155 1308L1222 1281M1155 1308L1187 1365M1222 1281L1303 1317M1303 1317L1391 1302M1303 1317L1254 1420M1303 1317L1292 1440M1391 1302L1495 1353M1495 1353L1536 1333M1495 1353L1435 1420M1495 1353L1476 1394M1536 1333L1476 1394M1660 1324L1747 1322M1660 1324L1620 1372M1747 1322L1803 1287M1747 1322L1813 1420M1803 1287L1859 1293M1859 1293L1927 1321M1927 1321L2012 1335M2012 1335L2091 1304M2012 1335L1999 1430M2012 1335L2054 1375M2091 1304L2170 1294M2091 1304L2054 1375M2170 1294L2241 1349M2170 1294L2175 1372M2241 1349L2175 1372M2241 1349L2269 1404M2369 1324L2431 1293M2369 1324L2379 1416M2549 1307L2560 1409M2549 1307L2547 1407M-11 1307L0 1409M0 1409L99 1423M0 1409L-13 1407M2560 1409L2547 1407M99 1423L177 1418M312 1391L355 1396M355 1396L471 1395M471 1395L529 1396M529 1396L592 1432M592 1432L660 1372M660 1372L790 1427M790 1427L853 1427M957 1378L977 1390M957 1378L1056 1437M977 1390L1056 1437M1187 1365L1254 1420M1187 1365L1292 1440M1254 1420L1292 1440M1435 1420L1476 1394M1476 1394L1573 1428M1573 1428L1620 1372M1620 1372L1692 1423M1813 1420L1898 1426M1898 1426L1999 1430M1999 1430L2054 1375M2054 1375L2111 1398M2054 1375L2175 1372M2111 1398L2175 1372M2175 1372L2269 1404M2269 1404L2379 1416M2379 1416L2456 1426M2456 1426L2547 1407"/></svg>