<svg xmlns="http://www.w3.org/2000/svg" width="2560" height="1440" fill="#fff"><circle cx="6" cy="2" r="5"/><circle cx="6" cy="1442" r="5"/><circle cx="131" cy="13" r="6"/><circle cx="229" cy="6" r="5"/><circle cx="283" cy="74" r="4"/><circle cx="356" cy="43" r="5"/><circle cx="479" cy="52" r="4"/><circle cx="536" cy="2" r="5"/><circle cx="536" cy="1442" r="5"/><circle cx="562" cy="66" r="6"/><circle cx="652" cy="54" r="4"/><circle cx="784" cy="48" r="5"/><circle cx="817" cy="72" r="5"/><circle cx="945" cy="53" r="6"/><circle cx="1038" cy="79" r="5"/><circle cx="1084" cy="51" r="4"/><circle cx="1183" cy="53" r="5"/><circle cx="1278" cy="37" r="5"/><circle cx="1323" cy="18" r="5"/><circle cx="1394" cy="27" r="5"/><circle cx="1485" cy="35" r="5"/><circle cx="1591" cy="56" r="5"/><circle cx="1632" cy="57" r="5"/><circle cx="1727" cy="78" r="6"/><circle cx="1767" cy="49" r="6"/><circle cx="1852" cy="36" r="5"/><circle cx="1981" cy="16" r="5"/><circle cx="2015" cy="21" r="4"/><circle cx="2138" cy="59" r="4"/><circle cx="2168" cy="51" r="4"/><circle cx="2243" cy="68" r="6"/><circle cx="2332" cy="9" r="4"/><circle cx="2462" cy="56" r="5"/><circle cx="2532" cy="10" r="5"/><circle cx="39" cy="119" r="6"/><circle cx="86" cy="108" r="5"/><circle cx="238" cy="126" r="5"/><circle cx="284" cy="112" r="5"/><circle cx="397" cy="137" r="4"/><circle cx="451" cy="105" r="6"/><circle cx="490" cy="85" r="5"/><circle cx="594" cy="154" r="5"/><circle cx="682" cy="155" r="5"/><circle cx="799" cy="91" r="5"/><circle cx="811" cy="107" r="4"/><circle cx="951" cy="128" r="5"/><circle cx="1013" cy="99" r="4"/><circle cx="1115" cy="130" r="5"/><circle cx="1123" cy="127" r="6"/><circle cx="1258" cy="86" r="5"/><circle cx="1354" cy="134" r="5"/><circle cx="1404" cy="113" r="5"/><circle cx="1504" cy="123" r="4"/><circle cx="1559" cy="126" r="6"/><circle cx="1668" cy="150" r="5"/><circle cx="1742" cy="90" r="6"/><circle cx="1781" cy="94" r="5"/><circle cx="1880" cy="127" r="5"/><circle cx="1949" cy="146" r="6"/><circle cx="2025" cy="118" r="5"/><circle cx="2123" cy="148" r="5"/><circle cx="2187" cy="158" r="4"/><circle cx="2305" cy="96" r="5"/><circle cx="2337" cy="91" r="5"/><circle cx="2460" cy="155" r="5"/><circle cx="2505" cy="158" r="5"/><circle cx="27" cy="199" r="4"/><circle cx="123" cy="167" r="6"/><circle cx="173" cy="229" r="5"/><circle cx="259" cy="176" r="4"/><circle cx="343" cy="191" r="4"/><circle cx="478" cy="212" r="5"/><circle cx="539" cy="202" r="4"/><circle cx="622" cy="215" r="5"/><circle cx="712" cy="229" r="5"/><circle cx="720" cy="181" r="6"/><circle cx="834" cy="191" r="4"/><circle cx="911" cy="166" r="5"/><circle cx="1030" cy="202" r="5"/><circle cx="1107" cy="181" r="6"/><circle cx="1190" cy="177" r="6"/><circle cx="1239" cy="176" r="5"/><circle cx="1286" cy="227" r="5"/><circle cx="1406" cy="172" r="4"/><circle cx="1443" cy="234" r="5"/><circle cx="1542" cy="211" r="6"/><circle cx="1650" cy="233" r="4"/><circle cx="1740" cy="180" r="4"/><circle cx="1820" cy="210" r="6"/><circle cx="1869" cy="209" r="6"/><circle cx="1958" cy="185" r="4"/><circle cx="2072" cy="211" r="4"/><circle cx="2113" cy="204" r="5"/><circle cx="2234" cy="228" r="4"/><circle cx="2270" cy="193" r="5"/><circle cx="2384" cy="212" r="4"/><circle cx="2419" cy="172" r="5"/><circle cx="2548" cy="169" r="4"/><circle cx="19" cy="303" r="5"/><circle cx="87" cy="314" r="5"/><circle cx="167" cy="273" r="6"/><circle cx="262" cy="246" r="5"/><circle cx="358" cy="297" r="5"/><circle cx="405" cy="244" r="5"/><circle cx="523" cy="258" r="5"/><circle cx="628" cy="301" r="6"/><circle cx="695" cy="271" r="5"/><circle cx="737" cy="293" r="5"/><circle cx="820" cy="271" r="5"/><circle cx="931" cy="261" r="6"/><circle cx="962" cy="280" r="4"/><circle cx="1094" cy="292" r="5"/><circle cx="1188" cy="282" r="5"/><circle cx="1275" cy="272" r="4"/><circle cx="1351" cy="303" r="5"/><circle cx="1423" cy="258" r="5"/><circle cx="1507" cy="287" r="6"/><circle cx="1577" cy="291" r="6"/><circle cx="1601" cy="274" r="6"/><circle cx="1729" cy="301" r="5"/><circle cx="1813" cy="270" r="6"/><circle cx="1862" cy="295" r="6"/><circle cx="1940" cy="311" r="6"/><circle cx="2043" cy="277" r="5"/><circle cx="2138" cy="317" r="4"/><circle cx="2160" cy="298" r="6"/><circle cx="2271" cy="289" r="5"/><circle cx="2386" cy="259" r="6"/><circle cx="2417" cy="292" r="4"/><circle cx="2542" cy="304" r="4"/><circle cx="54" cy="369" r="4"/><circle cx="146" cy="347" r="5"/><circle cx="225" cy="351" r="5"/><circle cx="260" cy="399" r="5"/><circle cx="337" cy="390" r="4"/><circle cx="470" cy="353" r="6"/><circle cx="503" cy="374" r="5"/><circle cx="588" cy="352" r="5"/><circle cx="645" cy="387" r="4"/><circle cx="724" cy="343" r="6"/><circle cx="850" cy="365" r="6"/><circle cx="894" cy="322" r="6"/><circle cx="1002" cy="337" r="5"/><circle cx="1060" cy="365" r="4"/><circle cx="1172" cy="328" r="5"/><circle cx="1225" cy="342" r="6"/><circle cx="1347" cy="357" r="6"/><circle cx="1381" cy="342" r="4"/><circle cx="1482" cy="374" r="5"/><circle cx="1587" cy="368" r="5"/><circle cx="1650" cy="351" r="4"/><circle cx="1699" cy="323" r="6"/><circle cx="1769" cy="372" r="5"/><circle cx="1848" cy="375" r="5"/><circle cx="1952" cy="361" r="4"/><circle cx="2029" cy="371" r="5"/><circle cx="2138" cy="328" r="4"/><circle cx="2189" cy="354" r="4"/><circle cx="2295" cy="323" r="5"/><circle cx="2327" cy="327" r="5"/><circle cx="2411" cy="320" r="5"/><circle cx="2523" cy="388" r="5"/><circle cx="2" cy="431" r="4"/><circle cx="2562" cy="431" r="4"/><circle cx="156" cy="422" r="5"/><circle cx="164" cy="421" r="5"/><circle cx="299" cy="472" r="4"/><circle cx="353" cy="433" r="5"/><circle cx="463" cy="424" r="5"/><circle cx="526" cy="424" r="5"/><circle cx="613" cy="420" r="6"/><circle cx="711" cy="469" r="6"/><circle cx="740" cy="458" r="4"/><circle cx="837" cy="469" r="4"/><circle cx="929" cy="463" r="4"/><circle cx="997" cy="478" r="4"/><circle cx="1089" cy="451" r="4"/><circle cx="1186" cy="408" r="4"/><circle cx="1248" cy="459" r="4"/><circle cx="1351" cy="419" r="5"/><circle cx="1393" cy="405" r="5"/><circle cx="1520" cy="418" r="6"/><circle cx="1524" cy="444" r="5"/><circle cx="1658" cy="471" r="4"/><circle cx="1729" cy="430" r="6"/><circle cx="1791" cy="427" r="5"/><circle cx="1915" cy="459" r="4"/><circle cx="1965" cy="447" r="5"/><circle cx="2059" cy="479" r="5"/><circle cx="2110" cy="465" r="4"/><circle cx="2164" cy="441" r="5"/><circle cx="2253" cy="417" r="5"/><circle cx="2368" cy="477" r="6"/><circle cx="2426" cy="402" r="5"/><circle cx="2532" cy="444" r="5"/><circle cx="52" cy="519" r="5"/><circle cx="145" cy="495" r="5"/><circle cx="196" cy="513" r="6"/><circle cx="295" cy="511" r="4"/><circle cx="373" cy="546" r="5"/><circle cx="441" cy="546" r="6"/><circle cx="502" cy="526" r="6"/><circle cx="631" cy="499" r="5"/><circle cx="665" cy="554" r="4"/><circle cx="766" cy="543" r="6"/><circle cx="806" cy="505" r="6"/><circle cx="945" cy="542" r="5"/><circle cx="1023" cy="546" r="5"/><circle cx="1068" cy="497" r="4"/><circle cx="1161" cy="544" r="6"/><circle cx="1227" cy="551" r="6"/><circle cx="1282" cy="560" r="6"/><circle cx="1410" cy="494" r="4"/><circle cx="1496" cy="494" r="4"/><circle cx="1591" cy="512" r="6"/><circle cx="1627" cy="548" r="5"/><circle cx="1727" cy="520" r="5"/><circle cx="1761" cy="484" r="5"/><circle cx="1899" cy="536" r="4"/><circle cx="1928" cy="494" r="6"/><circle cx="2064" cy="536" r="5"/><circle cx="2108" cy="504" r="5"/><circle cx="2194" cy="527" r="5"/><circle cx="2274" cy="524" r="4"/><circle cx="2346" cy="481" r="6"/><circle cx="2477" cy="517" r="5"/><circle cx="2559" cy="507" r="6"/><circle cx="-1" cy="507" r="6"/><circle cx="8" cy="620" r="5"/><circle cx="134" cy="568" r="5"/><circle cx="186" cy="564" r="5"/><circle cx="271" cy="567" r="4"/><circle cx="381" cy="623" r="6"/><circle cx="430" cy="628" r="5"/><circle cx="518" cy="607" r="5"/><circle cx="616" cy="597" r="5"/><circle cx="666" cy="630" r="4"/><circle cx="781" cy="579" r="5"/><circle cx="850" cy="605" r="4"/><circle cx="943" cy="583" r="5"/><circle cx="1027" cy="596" r="5"/><circle cx="1048" cy="574" r="5"/><circle cx="1151" cy="570" r="5"/><circle cx="1214" cy="565" r="5"/><circle cx="1360" cy="586" r="4"/><circle cx="1434" cy="607" r="5"/><circle cx="1518" cy="586" r="5"/><circle cx="1532" cy="590" r="5"/><circle cx="1638" cy="576" r="6"/><circle cx="1716" cy="573" r="6"/><circle cx="1839" cy="592" r="5"/><circle cx="1904" cy="583" r="6"/><circle cx="1993" cy="610" r="5"/><circle cx="2040" cy="639" r="5"/><circle cx="2144" cy="563" r="4"/><circle cx="2209" cy="625" r="5"/><circle cx="2295" cy="607" r="4"/><circle cx="2371" cy="628" r="4"/><circle cx="2471" cy="631" r="6"/><circle cx="2501" cy="571" r="4"/><circle cx="55" cy="679" r="4"/><circle cx="90" cy="659" r="4"/><circle cx="166" cy="662" r="4"/><circle cx="277" cy="660" r="5"/><circle cx="349" cy="700" r="4"/><circle cx="435" cy="657" r="5"/><circle cx="524" cy="646" r="4"/><circle cx="611" cy="690" r="4"/><circle cx="653" cy="685" r="5"/><circle cx="786" cy="717" r="5"/><circle cx="862" cy="653" r="4"/><circle cx="927" cy="690" r="5"/><circle cx="961" cy="664" r="4"/><circle cx="1055" cy="708" r="6"/><circle cx="1195" cy="684" r="5"/><circle cx="1207" cy="672" r="5"/><circle cx="1334" cy="698" r="5"/><circle cx="1421" cy="650" r="5"/><circle cx="1498" cy="707" r="6"/><circle cx="1581" cy="708" r="6"/><circle cx="1634" cy="705" r="6"/><circle cx="1710" cy="674" r="6"/><circle cx="1822" cy="709" r="4"/><circle cx="1902" cy="666" r="5"/><circle cx="1933" cy="701" r="5"/><circle cx="2046" cy="654" r="6"/><circle cx="2114" cy="689" r="4"/><circle cx="2210" cy="656" r="5"/><circle cx="2258" cy="713" r="5"/><circle cx="2321" cy="704" r="5"/><circle cx="2410" cy="692" r="4"/><circle cx="2553" cy="693" r="5"/><circle cx="11" cy="773" r="4"/><circle cx="93" cy="762" r="5"/><circle cx="206" cy="784" r="4"/><circle cx="287" cy="760" r="6"/><circle cx="360" cy="751" r="5"/><circle cx="473" cy="737" r="4"/><circle cx="533" cy="791" r="5"/><circle cx="586" cy="753" r="6"/><circle cx="653" cy="783" r="5"/><circle cx="774" cy="764" r="6"/><circle cx="806" cy="727" r="5"/><circle cx="937" cy="760" r="4"/><circle cx="1028" cy="758" r="6"/><circle cx="1107" cy="784" r="5"/><circle cx="1145" cy="763" r="5"/><circle cx="1212" cy="752" r="4"/><circle cx="1327" cy="790" r="5"/><circle cx="1410" cy="792" r="6"/><circle cx="1487" cy="792" r="5"/><circle cx="1536" cy="732" r="6"/><circle cx="1658" cy="722" r="5"/><circle cx="1726" cy="781" r="5"/><circle cx="1788" cy="788" r="4"/><circle cx="1900" cy="776" r="5"/><circle cx="1989" cy="800" r="4"/><circle cx="2054" cy="750" r="5"/><circle cx="2144" cy="746" r="6"/><circle cx="2190" cy="743" r="5"/><circle cx="2243" cy="741" r="4"/><circle cx="2350" cy="746" r="6"/><circle cx="2416" cy="768" r="5"/><circle cx="2557" cy="720" r="5"/><circle cx="-3" cy="720" r="5"/><circle cx="49" cy="872" r="5"/><circle cx="108" cy="833" r="5"/><circle cx="220" cy="866" r="5"/><circle cx="293" cy="867" r="5"/><circle cx="381" cy="812" r="4"/><circle cx="428" cy="812" r="6"/><circle cx="526" cy="874" r="5"/><circle cx="591" cy="835" r="6"/><circle cx="644" cy="855" r="6"/><circle cx="738" cy="819" r="6"/><circle cx="855" cy="813" r="6"/><circle cx="945" cy="855" r="5"/><circle cx="970" cy="875" r="4"/><circle cx="1067" cy="849" r="5"/><circle cx="1162" cy="823" r="6"/><circle cx="1202" cy="806" r="5"/><circle cx="1304" cy="833" r="4"/><circle cx="1368" cy="849" r="6"/><circle cx="1511" cy="800" r="6"/><circle cx="1521" cy="875" r="6"/><circle cx="1633" cy="821" r="4"/><circle cx="1737" cy="843" r="6"/><circle cx="1800" cy="848" r="5"/><circle cx="1910" cy="871" r="6"/><circle cx="1933" cy="802" r="5"/><circle cx="2072" cy="873" r="5"/><circle cx="2119" cy="869" r="4"/><circle cx="2210" cy="811" r="4"/><circle cx="2258" cy="809" r="4"/><circle cx="2337" cy="852" r="6"/><circle cx="2448" cy="847" r="5"/><circle cx="2508" cy="825" r="6"/><circle cx="70" cy="905" r="5"/><circle cx="157" cy="888" r="5"/><circle cx="194" cy="958" r="5"/><circle cx="258" cy="880" r="6"/><circle cx="344" cy="914" r="5"/><circle cx="461" cy="933" r="5"/><circle cx="482" cy="954" r="4"/><circle cx="570" cy="900" r="4"/><circle cx="664" cy="936" r="4"/><circle cx="775" cy="921" r="4"/><circle cx="856" cy="951" r="4"/><circle cx="882" cy="895" r="5"/><circle cx="1030" cy="917" r="4"/><circle cx="1056" cy="921" r="6"/><circle cx="1135" cy="923" r="4"/><circle cx="1222" cy="958" r="4"/><circle cx="1299" cy="883" r="5"/><circle cx="1365" cy="891" r="5"/><circle cx="1460" cy="890" r="4"/><circle cx="1545" cy="885" r="4"/><circle cx="1628" cy="911" r="5"/><circle cx="1713" cy="890" r="5"/><circle cx="1764" cy="957" r="5"/><circle cx="1860" cy="911" r="5"/><circle cx="1922" cy="958" r="5"/><circle cx="2006" cy="912" r="5"/><circle cx="2083" cy="949" r="5"/><circle cx="2238" cy="894" r="5"/><circle cx="2258" cy="931" r="4"/><circle cx="2344" cy="905" r="5"/><circle cx="2419" cy="952" r="6"/><circle cx="2483" cy="898" r="4"/><circle cx="48" cy="1038" r="6"/><circle cx="120" cy="991" r="5"/><circle cx="207" cy="981" r="4"/><circle cx="260" cy="966" r="4"/><circle cx="327" cy="1017" r="5"/><circle cx="464" cy="963" r="4"/><circle cx="497" cy="970" r="6"/><circle cx="606" cy="985" r="5"/><circle cx="707" cy="992" r="5"/><circle cx="760" cy="1000" r="5"/><circle cx="858" cy="963" r="5"/><circle cx="895" cy="1039" r="4"/><circle cx="975" cy="1033" r="5"/><circle cx="1058" cy="1035" r="4"/><circle cx="1161" cy="1034" r="5"/><circle cx="1203" cy="1034" r="5"/><circle cx="1296" cy="1004" r="6"/><circle cx="1390" cy="1002" r="5"/><circle cx="1482" cy="961" r="4"/><circle cx="1570" cy="1039" r="4"/><circle cx="1652" cy="997" r="6"/><circle cx="1686" cy="966" r="5"/><circle cx="1838" cy="1036" r="5"/><circle cx="1881" cy="995" r="6"/><circle cx="1992" cy="1010" r="6"/><circle cx="2068" cy="964" r="4"/><circle cx="2086" cy="1011" r="5"/><circle cx="2220" cy="1020" r="5"/><circle cx="2266" cy="1000" r="6"/><circle cx="2358" cy="1020" r="4"/><circle cx="2415" cy="983" r="6"/><circle cx="2545" cy="1009" r="4"/><circle cx="37" cy="1118" r="6"/><circle cx="160" cy="1109" r="5"/><circle cx="161" cy="1089" r="5"/><circle cx="276" cy="1087" r="5"/><circle cx="396" cy="1045" r="5"/><circle cx="451" cy="1112" r="5"/><circle cx="539" cy="1105" r="6"/><circle cx="632" cy="1074" r="5"/><circle cx="679" cy="1047" r="4"/><circle cx="747" cy="1043" r="6"/><circle cx="849" cy="1049" r="6"/><circle cx="901" cy="1077" r="6"/><circle cx="1001" cy="1119" r="4"/><circle cx="1083" cy="1107" r="5"/><circle cx="1124" cy="1069" r="4"/><circle cx="1222" cy="1086" r="5"/><circle cx="1354" cy="1083" r="6"/><circle cx="1402" cy="1086" r="5"/><circle cx="1454" cy="1089" r="5"/><circle cx="1542" cy="1109" r="5"/><circle cx="1671" cy="1080" r="5"/><circle cx="1752" cy="1101" r="5"/><circle cx="1817" cy="1115" r="6"/><circle cx="1880" cy="1115" r="5"/><circle cx="1978" cy="1117" r="6"/><circle cx="2024" cy="1062" r="6"/><circle cx="2131" cy="1081" r="4"/><circle cx="2185" cy="1055" r="4"/><circle cx="2278" cy="1091" r="5"/><circle cx="2349" cy="1059" r="5"/><circle cx="2434" cy="1083" r="6"/><circle cx="2517" cy="1054" r="6"/><circle cx="10" cy="1120" r="4"/><circle cx="125" cy="1169" r="5"/><circle cx="187" cy="1170" r="5"/><circle cx="287" cy="1162" r="4"/><circle cx="382" cy="1149" r="5"/><circle cx="427" cy="1187" r="5"/><circle cx="508" cy="1141" r="5"/><circle cx="612" cy="1125" r="4"/><circle cx="662" cy="1199" r="4"/><circle cx="768" cy="1163" r="5"/><circle cx="803" cy="1123" r="5"/><circle cx="913" cy="1132" r="5"/><circle cx="997" cy="1180" r="5"/><circle cx="1065" cy="1178" r="4"/><circle cx="1196" cy="1172" r="4"/><circle cx="1270" cy="1131" r="6"/><circle cx="1318" cy="1177" r="5"/><circle cx="1386" cy="1152" r="5"/><circle cx="1493" cy="1131" r="4"/><circle cx="1532" cy="1196" r="4"/><circle cx="1618" cy="1160" r="4"/><circle cx="1739" cy="1137" r="5"/><circle cx="1794" cy="1171" r="5"/><circle cx="1902" cy="1166" r="5"/><circle cx="1953" cy="1192" r="4"/><circle cx="2061" cy="1171" r="4"/><circle cx="2153" cy="1143" r="5"/><circle cx="2187" cy="1160" r="5"/><circle cx="2303" cy="1192" r="6"/><circle cx="2325" cy="1124" r="6"/><circle cx="2404" cy="1151" r="5"/><circle cx="2500" cy="1146" r="5"/><circle cx="62" cy="1201" r="5"/><circle cx="150" cy="1255" r="5"/><circle cx="192" cy="1279" r="4"/><circle cx="256" cy="1201" r="4"/><circle cx="389" cy="1261" r="5"/><circle cx="471" cy="1234" r="5"/><circle cx="513" cy="1262" r="4"/><circle cx="562" cy="1249" r="6"/><circle cx="650" cy="1208" r="5"/><circle cx="748" cy="1246" r="4"/><circle cx="820" cy="1234" r="5"/><circle cx="890" cy="1256" r="5"/><circle cx="1020" cy="1243" r="5"/><circle cx="1109" cy="1212" r="5"/><circle cx="1156" cy="1204" r="6"/><circle cx="1233" cy="1259" r="5"/><circle cx="1297" cy="1262" r="5"/><circle cx="1373" cy="1254" r="5"/><circle cx="1467" cy="1258" r="5"/><circle cx="1537" cy="1242" r="5"/><circle cx="1649" cy="1266" r="4"/><circle cx="1749" cy="1246" r="6"/><circle cx="1791" cy="1221" r="4"/><circle cx="1871" cy="1273" r="5"/><circle cx="1921" cy="1260" r="4"/><circle cx="2007" cy="1209" r="6"/><circle cx="2096" cy="1275" r="5"/><circle cx="2191" cy="1260" r="6"/><circle cx="2279" cy="1246" r="5"/><circle cx="2334" cy="1240" r="4"/><circle cx="2477" cy="1228" r="5"/><circle cx="2526" cy="1225" r="4"/><circle cx="62" cy="1331" r="6"/><circle cx="106" cy="1346" r="5"/><circle cx="221" cy="1340" r="5"/><circle cx="304" cy="1343" r="5"/><circle cx="332" cy="1304" r="6"/><circle cx="437" cy="1339" r="6"/><circle cx="542" cy="1299" r="4"/><circle cx="597" cy="1331" r="6"/><circle cx="676" cy="1316" r="6"/><circle cx="772" cy="1316" r="6"/><circle cx="839" cy="1332" r="5"/><circle cx="927" cy="1348" r="5"/><circle cx="1019" cy="1332" r="5"/><circle cx="1081" cy="1321" r="5"/><circle cx="1180" cy="1307" r="6"/><circle cx="1210" cy="1334" r="6"/><circle cx="1334" cy="1346" r="6"/><circle cx="1431" cy="1313" r="4"/><circle cx="1454" cy="1294" r="6"/><circle cx="1598" cy="1357" r="6"/><circle cx="1654" cy="1340" r="5"/><circle cx="1740" cy="1351" r="6"/><circle cx="1777" cy="1343" r="5"/><circle cx="1856" cy="1308" r="6"/><circle cx="1966" cy="1346" r="5"/><circle cx="2062" cy="1358" r="5"/><circle cx="2153" cy="1336" r="4"/><circle cx="2216" cy="1283" r="5"/><circle cx="2293" cy="1353" r="5"/><circle cx="2340" cy="1334" r="5"/><circle cx="2463" cy="1334" r="4"/><circle cx="2552" cy="1299" r="4"/><circle cx="16" cy="1363" r="5"/><circle cx="140" cy="1375" r="5"/><circle cx="203" cy="1390" r="6"/><circle cx="295" cy="1420" r="4"/><circle cx="360" cy="1422" r="6"/><circle cx="424" cy="1367" r="6"/><circle cx="530" cy="1369" r="5"/><circle cx="596" cy="1407" r="4"/><circle cx="711" cy="1380" r="5"/><circle cx="734" cy="1371" r="4"/><circle cx="833" cy="1374" r="5"/><circle cx="921" cy="1392" r="5"/><circle cx="1021" cy="1382" r="5"/><circle cx="1046" cy="1404" r="6"/><circle cx="1192" cy="1423" r="5"/><circle cx="1277" cy="1417" r="5"/><circle cx="1283" cy="1393" r="6"/><circle cx="1415" cy="1421" r="6"/><circle cx="1520" cy="1366" r="5"/><circle cx="1565" cy="1385" r="6"/><circle cx="1602" cy="1387" r="4"/><circle cx="1714" cy="1364" r="4"/><circle cx="1817" cy="1396" r="5"/><circle cx="1857" cy="1379" r="5"/><circle cx="1970" cy="1387" r="4"/><circle cx="2037" cy="1381" r="4"/><circle cx="2113" cy="1433" r="4"/><circle cx="2220" cy="1364" r="5"/><circle cx="2279" cy="1381" r="5"/><circle cx="2331" cy="1387" r="5"/><circle cx="2403" cy="1398" r="4"/><circle cx="2545" cy="1414" r="4"/><path stroke="#fff" d="M6 2L-98 56M6 2L-28 10M6 2L16 -77M6 2L-15 -26M2566 2L2462 56M2566 2L2532 10M2566 2L2545 -26M6 1442L16 1363M6 1442L-15 1414M2566 1442L2545 1414M131 13L229 6M131 13L86 108M131 13L140 -65M131 13L203 -50M131 1453L140 1375M131 1453L203 1390M229 6L283 74M229 6L221 -100M229 6L203 -50M229 6L295 -20M229 1446L221 1340M229 1446L203 1390M229 1446L295 1420M283 74L356 43M283 74L238 126M283 74L284 112M356 43L284 112M356 43L451 105M356 43L295 -20M356 43L360 -18M356 1483L295 1420M356 1483L360 1422M479 52L536 2M479 52L562 66M479 52L451 105M479 52L490 85M536 2L562 66M536 2L490 85M536 2L530 -71M536 2L596 -33M536 1442L530 1369M536 1442L596 1407M562 66L652 54M562 66L490 85M562 66L594 154M652 54L682 155M652 54L596 -33M652 1494L596 1407M784 48L817 72M784 48L799 91M784 48L811 107M817 72L799 91M817 72L811 107M945 53L1038 79M945 53L951 128M945 53L1013 99M945 53L911 166M945 53L921 -48M945 1493L921 1392M1038 79L1084 51M1038 79L1013 99M1038 79L1115 130M1038 79L1123 127M1084 51L1013 99M1084 51L1115 130M1084 51L1123 127M1084 51L1046 -36M1084 1491L1046 1404M1183 53L1278 37M1183 53L1258 86M1183 53L1192 -17M1183 1493L1192 1423M1278 37L1323 18M1278 37L1258 86M1278 37L1277 -23M1278 37L1283 -47M1278 1477L1277 1417M1278 1477L1283 1393M1323 18L1394 27M1323 18L1277 -23M1323 18L1283 -47M1323 18L1415 -19M1323 1458L1277 1417M1323 1458L1283 1393M1323 1458L1415 1421M1394 27L1485 35M1394 27L1354 134M1394 27L1404 113M1394 27L1415 -19M1394 1467L1415 1421M1485 35L1591 56M1485 35L1504 123M1485 35L1415 -19M1485 1475L1415 1421M1591 56L1632 57M1591 56L1559 126M1591 56L1565 -55M1591 56L1602 -53M1591 1496L1565 1385M1591 1496L1602 1387M1632 57L1727 78M1632 57L1559 126M1632 57L1668 150M1727 78L1767 49M1727 78L1668 150M1727 78L1742 90M1727 78L1781 94M1767 49L1852 36M1767 49L1742 90M1767 49L1781 94M1852 36L1781 94M1852 36L1880 127M1852 36L1817 -44M1852 36L1857 -61M1852 1476L1817 1396M1852 1476L1857 1379M1981 16L2015 21M1981 16L2025 118M1981 16L1966 -94M1981 16L1970 -53M1981 16L2037 -59M1981 1456L1966 1346M1981 1456L1970 1387M1981 1456L2037 1381M2015 21L2025 118M2015 21L1970 -53M2015 21L2037 -59M2015 21L2113 -7M2015 1461L1970 1387M2015 1461L2037 1381M2015 1461L2113 1433M2138 59L2168 51M2138 59L2243 68M2138 59L2123 148M2138 59L2113 -7M2138 1499L2113 1433M2168 51L2243 68M2168 51L2113 -7M2168 1491L2113 1433M2243 68L2187 158M2243 68L2305 96M2243 68L2337 91M2332 9L2305 96M2332 9L2337 91M2332 9L2279 -59M2332 9L2331 -53M2332 9L2403 -42M2332 1449L2279 1381M2332 1449L2331 1387M2332 1449L2403 1398M2462 56L2532 10M2462 56L2460 155M2462 56L2403 -42M2462 1496L2403 1398M2532 10L2545 -26M2532 1450L2545 1414M39 119L86 108M39 119L-55 158M39 119L27 199M39 119L123 167M39 119L-12 169M2599 119L2505 158M2599 119L2548 169M86 108L27 199M86 108L123 167M86 108L-12 169M2646 108L2548 169M238 126L284 112M238 126L259 176M284 112L259 176M397 137L451 105M397 137L490 85M397 137L343 191M397 137L478 212M451 105L490 85M451 105L478 212M594 154L682 155M594 154L539 202M594 154L622 215M682 155L622 215M682 155L712 229M682 155L720 181M799 91L811 107M799 91L720 181M799 91L834 191M811 107L834 191M951 128L1013 99M951 128L911 166M951 128L1030 202M1115 130L1123 127M1115 130L1107 181M1115 130L1190 177M1123 127L1107 181M1123 127L1190 177M1258 86L1354 134M1258 86L1239 176M1354 134L1404 113M1354 134L1239 176M1354 134L1406 172M1404 113L1504 123M1404 113L1406 172M1504 123L1559 126M1559 126L1542 211M1668 150L1742 90M1668 150L1650 233M1668 150L1740 180M1742 90L1781 94M1742 90L1740 180M1781 94L1880 127M1880 127L1949 146M1880 127L1820 210M1880 127L1869 209M1949 146L2025 118M1949 146L1869 209M1949 146L1958 185M2025 118L2123 148M2025 118L1958 185M2123 148L2187 158M2123 148L2072 211M2123 148L2113 204M2187 158L2113 204M2187 158L2234 228M2187 158L2270 193M2305 96L2337 91M2305 96L2270 193M2337 91L2270 193M2337 91L2419 172M2460 155L2505 158M2460 155L2384 212M2460 155L2419 172M2460 155L2548 169M2505 158L2587 199M2505 158L2419 172M2505 158L2548 169M-55 158L27 199M27 199L123 167M27 199L-12 169M2587 199L2548 169M123 167L173 229M173 229L259 176M173 229L167 273M173 229L262 246M259 176L343 191M259 176L262 246M343 191L262 246M343 191L358 297M343 191L405 244M478 212L539 202M478 212L405 244M478 212L523 258M539 202L523 258M622 215L712 229M622 215L628 301M712 229L720 181M712 229L695 271M712 229L737 293M720 181L695 271M720 181L737 293M834 191L911 166M834 191L820 271M911 166L931 261M1030 202L1107 181M1030 202L962 280M1107 181L1190 177M1107 181L1094 292M1190 177L1239 176M1190 177L1188 282M1239 176L1286 227M1239 176L1275 272M1286 227L1275 272M1286 227L1351 303M1406 172L1443 234M1406 172L1423 258M1443 234L1542 211M1443 234L1423 258M1443 234L1507 287M1542 211L1507 287M1542 211L1577 291M1542 211L1601 274M1650 233L1601 274M1650 233L1729 301M1650 233L1699 323M1740 180L1820 210M1820 210L1869 209M1820 210L1813 270M1820 210L1862 295M1869 209L1813 270M1869 209L1862 295M2072 211L2113 204M2072 211L2043 277M2113 204L2043 277M2113 204L2160 298M2234 228L2270 193M2234 228L2271 289M2234 228L2295 323M2270 193L2271 289M2384 212L2419 172M2384 212L2386 259M2384 212L2417 292M2419 172L2386 259M19 303L87 314M19 303L-18 304M19 303L54 369M2579 303L2542 304M87 314L167 273M87 314L-18 304M87 314L54 369M87 314L146 347M2647 314L2542 304M167 273L262 246M167 273L146 347M167 273L225 351M262 246L358 297M358 297L405 244M358 297L337 390M523 258L470 353M628 301L695 271M628 301L588 352M628 301L645 387M628 301L724 343M695 271L737 293M695 271L724 343M737 293L820 271M737 293L724 343M820 271L931 261M820 271L850 365M820 271L894 322M931 261L962 280M931 261L894 322M931 261L1002 337M962 280L894 322M962 280L1002 337M1094 292L1188 282M1094 292L1002 337M1094 292L1060 365M1094 292L1172 328M1188 282L1275 272M1188 282L1172 328M1188 282L1225 342M1275 272L1351 303M1275 272L1225 342M1351 303L1423 258M1351 303L1347 357M1351 303L1381 342M1423 258L1507 287M1423 258L1381 342M1507 287L1577 291M1507 287L1601 274M1577 291L1601 274M1577 291L1587 368M1577 291L1650 351M1601 274L1587 368M1729 301L1813 270M1729 301L1650 351M1729 301L1699 323M1729 301L1769 372M1813 270L1862 295M1813 270L1848 375M1862 295L1940 311M1862 295L1848 375M1940 311L2043 277M1940 311L1848 375M1940 311L1952 361M1940 311L2029 371M2043 277L2138 317M2043 277L2029 371M2138 317L2160 298M2138 317L2138 328M2138 317L2189 354M2160 298L2271 289M2160 298L2138 328M2160 298L2189 354M2271 289L2295 323M2271 289L2327 327M2386 259L2417 292M2386 259L2327 327M2386 259L2411 320M2417 292L2327 327M2417 292L2411 320M2542 304L2523 388M54 369L-37 388M54 369L2 431M2614 369L2523 388M146 347L225 351M146 347L156 422M146 347L164 421M225 351L260 399M225 351L156 422M260 399L337 390M260 399L164 421M260 399L299 472M260 399L353 433M337 390L299 472M337 390L353 433M470 353L503 374M470 353L463 424M470 353L526 424M503 374L588 352M503 374L463 424M503 374L526 424M588 352L645 387M588 352L526 424M588 352L613 420M645 387L724 343M645 387L613 420M850 365L894 322M850 365L837 469M850 365L929 463M894 322L1002 337M1002 337L1060 365M1060 365L1172 328M1060 365L1089 451M1172 328L1225 342M1172 328L1186 408M1225 342L1347 357M1225 342L1186 408M1347 357L1381 342M1347 357L1351 419M1347 357L1393 405M1381 342L1351 419M1381 342L1393 405M1482 374L1393 405M1482 374L1520 418M1482 374L1524 444M1587 368L1650 351M1587 368L1520 418M1587 368L1524 444M1650 351L1699 323M1699 323L1769 372M1769 372L1848 375M1769 372L1729 430M1769 372L1791 427M1848 375L1791 427M1952 361L2029 371M1952 361L1915 459M1952 361L1965 447M2029 371L1965 447M2138 328L2189 354M2189 354L2164 441M2189 354L2253 417M2295 323L2327 327M2295 323L2411 320M2295 323L2253 417M2327 327L2411 320M2411 320L2426 402M2523 388L2562 431M2523 388L2426 402M2523 388L2532 444M-37 388L2 431M2 431L-28 444M2 431L-1 507M2562 431L2532 444M2562 431L2559 507M156 422L164 421M156 422L145 495M156 422L196 513M164 421L145 495M299 472L353 433M299 472L295 511M353 433L463 424M353 433L295 511M463 424L526 424M463 424L502 526M526 424L613 420M613 420L711 469M613 420L631 499M711 469L740 458M711 469L631 499M711 469L766 543M711 469L806 505M740 458L837 469M740 458L631 499M740 458L766 543M740 458L806 505M837 469L929 463M837 469L806 505M929 463L997 478M929 463L945 542M997 478L1089 451M997 478L945 542M997 478L1023 546M997 478L1068 497M1089 451L1186 408M1089 451L1068 497M1186 408L1248 459M1248 459L1227 551M1248 459L1282 560M1351 419L1393 405M1351 419L1410 494M1393 405L1410 494M1520 418L1524 444M1520 418L1496 494M1524 444L1496 494M1524 444L1591 512M1658 471L1729 430M1658 471L1591 512M1658 471L1627 548M1658 471L1727 520M1729 430L1791 427M1729 430L1727 520M1729 430L1761 484M1791 427L1761 484M1915 459L1965 447M1915 459L1899 536M1915 459L1928 494M1965 447L2059 479M1965 447L1928 494M2059 479L2110 465M2059 479L2064 536M2059 479L2108 504M2110 465L2164 441M2110 465L2064 536M2110 465L2108 504M2110 465L2194 527M2164 441L2253 417M2164 441L2108 504M2164 441L2194 527M2253 417L2274 524M2253 417L2346 481M2368 477L2426 402M2368 477L2274 524M2368 477L2346 481M2368 477L2477 517M2426 402L2346 481M2532 444L2612 519M2532 444L2477 517M2532 444L2559 507M-28 444L52 519M52 519L-1 507M52 519L134 568M2612 519L2559 507M145 495L196 513M145 495L134 568M145 495L186 564M196 513L134 568M196 513L186 564M196 513L271 567M295 511L373 546M295 511L271 567M373 546L441 546M373 546L271 567M373 546L381 623M373 546L430 628M441 546L502 526M441 546L381 623M441 546L430 628M441 546L518 607M502 526L518 607M631 499L665 554M665 554L766 543M665 554L616 597M665 554L666 630M665 554L781 579M766 543L806 505M766 543L781 579M806 505L781 579M945 542L1023 546M945 542L943 583M945 542L1027 596M1023 546L1068 497M1023 546L1027 596M1023 546L1048 574M1068 497L1161 544M1068 497L1048 574M1161 544L1227 551M1161 544L1282 560M1161 544L1151 570M1161 544L1214 565M1227 551L1282 560M1227 551L1151 570M1227 551L1214 565M1282 560L1214 565M1282 560L1360 586M1410 494L1496 494M1410 494L1360 586M1496 494L1518 586M1591 512L1627 548M1591 512L1532 590M1591 512L1638 576M1627 548L1638 576M1627 548L1716 573M1727 520L1761 484M1727 520L1638 576M1727 520L1716 573M1761 484L1716 573M1899 536L1928 494M1899 536L1839 592M1899 536L1904 583M1928 494L1839 592M1928 494L1904 583M2064 536L2108 504M2064 536L2040 639M2064 536L2144 563M2108 504L2144 563M2194 527L2274 524M2194 527L2144 563M2194 527L2209 625M2274 524L2346 481M2274 524L2295 607M2477 517L2559 507M2477 517L2501 571M2559 507L2501 571M8 620L-89 631M8 620L-59 571M8 620L55 679M8 620L90 659M8 620L-7 693M2568 620L2471 631M2568 620L2501 571M2568 620L2553 693M134 568L186 564M134 568L90 659M186 564L271 567M186 564L166 662M271 567L277 660M381 623L430 628M381 623L349 700M381 623L435 657M430 628L518 607M430 628L435 657M518 607L616 597M518 607L524 646M616 597L666 630M616 597L611 690M616 597L653 685M666 630L611 690M666 630L653 685M781 579L850 605M781 579L862 653M850 605L943 583M850 605L862 653M943 583L1027 596M943 583L1048 574M943 583L961 664M1027 596L1048 574M1027 596L961 664M1048 574L1151 570M1151 570L1214 565M1151 570L1207 672M1214 565L1207 672M1360 586L1434 607M1360 586L1334 698M1360 586L1421 650M1434 607L1518 586M1434 607L1532 590M1434 607L1421 650M1518 586L1532 590M1532 590L1638 576M1638 576L1716 573M1716 573L1710 674M1839 592L1904 583M1839 592L1902 666M1904 583L1993 610M1904 583L1902 666M1993 610L2040 639M1993 610L1933 701M1993 610L2046 654M2040 639L2046 654M2040 639L2114 689M2040 639L2054 750M2144 563L2209 625M2209 625L2295 607M2209 625L2210 656M2295 607L2371 628M2371 628L2471 631M2371 628L2321 704M2371 628L2410 692M2471 631L2501 571M2471 631L2410 692M2471 631L2553 693M55 679L90 659M55 679L-7 693M55 679L93 762M55 679L-3 720M2615 679L2553 693M2615 679L2557 720M90 659L166 662M166 662L277 660M277 660L349 700M277 660L287 760M277 660L360 751M349 700L435 657M349 700L287 760M349 700L360 751M435 657L524 646M435 657L473 737M524 646L473 737M611 690L653 685M611 690L586 753M653 685L586 753M653 685L653 783M786 717L862 653M786 717L774 764M786 717L806 727M862 653L927 690M862 653L806 727M927 690L961 664M927 690L937 760M961 664L1055 708M1055 708L937 760M1055 708L1028 758M1055 708L1107 784M1195 684L1207 672M1195 684L1145 763M1195 684L1212 752M1207 672L1212 752M1334 698L1421 650M1334 698L1327 790M1421 650L1498 707M1498 707L1581 708M1498 707L1487 792M1498 707L1536 732M1498 707L1511 800M1581 708L1634 705M1581 708L1536 732M1581 708L1658 722M1634 705L1710 674M1634 705L1536 732M1634 705L1658 722M1710 674L1822 709M1710 674L1658 722M1710 674L1726 781M1822 709L1902 666M1822 709L1788 788M1822 709L1900 776M1902 666L1933 701M1933 701L2046 654M1933 701L1900 776M1933 701L1933 802M2046 654L2114 689M2046 654L2054 750M2114 689L2054 750M2114 689L2144 746M2210 656L2258 713M2210 656L2190 743M2258 713L2321 704M2258 713L2190 743M2258 713L2243 741M2258 713L2350 746M2321 704L2410 692M2321 704L2243 741M2321 704L2350 746M2410 692L2350 746M2410 692L2416 768M2553 693L2571 773M2553 693L2557 720M-7 693L11 773M11 773L93 762M11 773L-3 720M11 773L49 872M11 773L-52 825M2571 773L2557 720M2571 773L2508 825M93 762L-3 720M93 762L108 833M2653 762L2557 720M206 784L287 760M206 784L220 866M287 760L360 751M287 760L293 867M360 751L381 812M360 751L428 812M473 737L533 791M473 737L428 812M533 791L586 753M533 791L428 812M533 791L526 874M533 791L591 835M586 753L653 783M586 753L591 835M653 783L644 855M653 783L738 819M774 764L806 727M774 764L738 819M774 764L855 813M806 727L738 819M806 727L855 813M937 760L1028 758M937 760L855 813M937 760L945 855M1028 758L1107 784M1028 758L1067 849M1107 784L1145 763M1107 784L1067 849M1107 784L1162 823M1145 763L1212 752M1145 763L1162 823M1145 763L1202 806M1212 752L1162 823M1212 752L1202 806M1327 790L1410 792M1327 790L1304 833M1327 790L1368 849M1327 790L1299 883M1410 792L1487 792M1410 792L1368 849M1410 792L1511 800M1410 792L1365 891M1487 792L1536 732M1487 792L1511 800M1487 792L1521 875M1536 732L1511 800M1658 722L1726 781M1658 722L1633 821M1726 781L1788 788M1726 781L1737 843M1726 781L1800 848M1788 788L1737 843M1788 788L1800 848M1900 776L1989 800M1900 776L1910 871M1900 776L1933 802M1989 800L2054 750M1989 800L1933 802M2054 750L2144 746M2144 746L2190 743M2144 746L2210 811M2190 743L2243 741M2190 743L2210 811M2243 741L2210 811M2243 741L2258 809M2350 746L2416 768M2350 746L2337 852M2416 768L2337 852M2416 768L2448 847M2416 768L2508 825M49 872L108 833M49 872L-52 825M49 872L70 905M2609 872L2508 825M108 833L70 905M108 833L157 888M220 866L293 867M220 866L157 888M220 866L258 880M293 867L381 812M293 867L258 880M293 867L344 914M381 812L428 812M381 812L344 914M526 874L591 835M526 874L461 933M526 874L570 900M526 874L497 970M591 835L644 855M591 835L570 900M644 855L738 819M644 855L570 900M644 855L664 936M855 813L945 855M855 813L882 895M945 855L970 875M945 855L882 895M945 855L1030 917M970 875L882 895M970 875L1030 917M970 875L1056 921M1067 849L1162 823M1067 849L1030 917M1067 849L1056 921M1162 823L1202 806M1202 806L1304 833M1304 833L1368 849M1304 833L1299 883M1304 833L1365 891M1368 849L1299 883M1368 849L1365 891M1511 800L1521 875M1521 875L1460 890M1521 875L1545 885M1521 875L1482 961M1633 821L1737 843M1633 821L1545 885M1633 821L1628 911M1737 843L1800 848M1737 843L1713 890M1800 848L1713 890M1800 848L1860 911M1910 871L1933 802M1910 871L1860 911M1910 871L1922 958M2072 873L2119 869M2072 873L2006 912M2072 873L2083 949M2072 873L2068 964M2119 869L2083 949M2210 811L2258 809M2210 811L2238 894M2258 809L2337 852M2258 809L2238 894M2337 852L2238 894M2337 852L2344 905M2448 847L2508 825M2448 847L2419 952M2448 847L2483 898M2508 825L2483 898M70 905L157 888M70 905L120 991M157 888L194 958M157 888L258 880M194 958L120 991M194 958L207 981M194 958L260 966M258 880L344 914M258 880L260 966M344 914L260 966M344 914L327 1017M461 933L482 954M461 933L464 963M461 933L497 970M482 954L464 963M482 954L497 970M570 900L606 985M664 936L606 985M664 936L707 992M775 921L856 951M775 921L707 992M775 921L760 1000M775 921L858 963M856 951L882 895M856 951L858 963M882 895L858 963M1030 917L1056 921M1030 917L1135 923M1056 921L1135 923M1056 921L1058 1035M1135 923L1222 958M1222 958L1161 1034M1222 958L1203 1034M1222 958L1296 1004M1299 883L1365 891M1365 891L1460 890M1460 890L1545 885M1460 890L1482 961M1545 885L1628 911M1545 885L1482 961M1628 911L1713 890M1628 911L1652 997M1628 911L1686 966M1713 890L1764 957M1713 890L1686 966M1764 957L1860 911M1764 957L1652 997M1764 957L1686 966M1764 957L1838 1036M1860 911L1922 958M1860 911L1881 995M1922 958L2006 912M1922 958L1881 995M1922 958L1992 1010M2006 912L2083 949M2006 912L1992 1010M2006 912L2068 964M2083 949L2068 964M2083 949L2086 1011M2238 894L2258 931M2258 931L2344 905M2258 931L2220 1020M2258 931L2266 1000M2344 905L2419 952M2344 905L2415 983M2419 952L2483 898M2419 952L2358 1020M2419 952L2415 983M48 1038L120 991M48 1038L-15 1009M48 1038L37 1118M48 1038L-43 1054M48 1038L10 1120M2608 1038L2545 1009M2608 1038L2517 1054M120 991L207 981M120 991L161 1089M207 981L260 966M260 966L327 1017M327 1017L276 1087M327 1017L396 1045M464 963L497 970M464 963L396 1045M497 970L606 985M606 985L632 1074M606 985L679 1047M707 992L760 1000M707 992L679 1047M707 992L747 1043M760 1000L679 1047M760 1000L747 1043M858 963L895 1039M858 963L849 1049M895 1039L975 1033M895 1039L849 1049M895 1039L901 1077M895 1039L913 1132M975 1033L1058 1035M975 1033L901 1077M975 1033L1001 1119M975 1033L913 1132M1058 1035L1083 1107M1058 1035L1124 1069M1161 1034L1203 1034M1161 1034L1124 1069M1161 1034L1222 1086M1203 1034L1296 1004M1203 1034L1124 1069M1203 1034L1222 1086M1296 1004L1390 1002M1296 1004L1222 1086M1296 1004L1354 1083M1390 1002L1482 961M1390 1002L1354 1083M1390 1002L1402 1086M1390 1002L1454 1089M1570 1039L1652 997M1570 1039L1542 1109M1652 997L1686 966M1652 997L1671 1080M1686 966L1671 1080M1838 1036L1881 995M1838 1036L1752 1101M1838 1036L1817 1115M1838 1036L1880 1115M1992 1010L2068 964M1992 1010L2086 1011M1992 1010L2024 1062M2068 964L2086 1011M2086 1011L2024 1062M2086 1011L2131 1081M2220 1020L2266 1000M2220 1020L2185 1055M2220 1020L2278 1091M2266 1000L2358 1020M2266 1000L2278 1091M2358 1020L2415 983M2358 1020L2349 1059M2415 983L2349 1059M2415 983L2434 1083M2545 1009L2517 1054M37 1118L10 1120M37 1118L62 1201M160 1109L161 1089M160 1109L276 1087M160 1109L125 1169M160 1109L187 1170M161 1089L276 1087M161 1089L125 1169M161 1089L187 1170M276 1087L287 1162M396 1045L451 1112M396 1045L382 1149M451 1112L539 1105M451 1112L382 1149M451 1112L427 1187M451 1112L508 1141M539 1105L632 1074M539 1105L508 1141M539 1105L612 1125M632 1074L679 1047M632 1074L612 1125M679 1047L747 1043M747 1043L849 1049M747 1043L803 1123M849 1049L901 1077M849 1049L803 1123M901 1077L803 1123M901 1077L913 1132M1001 1119L1083 1107M1001 1119L913 1132M1001 1119L997 1180M1083 1107L1124 1069M1083 1107L1065 1178M1083 1107L1109 1212M1222 1086L1196 1172M1222 1086L1270 1131M1354 1083L1402 1086M1354 1083L1270 1131M1354 1083L1386 1152M1402 1086L1454 1089M1402 1086L1386 1152M1402 1086L1493 1131M1454 1089L1542 1109M1454 1089L1386 1152M1454 1089L1493 1131M1542 1109L1493 1131M1542 1109L1532 1196M1542 1109L1618 1160M1671 1080L1752 1101M1671 1080L1618 1160M1671 1080L1739 1137M1752 1101L1817 1115M1752 1101L1739 1137M1752 1101L1794 1171M1817 1115L1880 1115M1817 1115L1739 1137M1817 1115L1794 1171M1880 1115L1978 1117M1880 1115L1902 1166M1978 1117L2024 1062M1978 1117L1902 1166M1978 1117L1953 1192M1978 1117L2007 1209M2024 1062L2131 1081M2024 1062L2061 1171M2131 1081L2185 1055M2131 1081L2153 1143M2131 1081L2187 1160M2185 1055L2153 1143M2185 1055L2187 1160M2278 1091L2349 1059M2278 1091L2303 1192M2278 1091L2325 1124M2349 1059L2434 1083M2349 1059L2325 1124M2434 1083L2517 1054M2434 1083L2404 1151M2434 1083L2500 1146M2517 1054L2570 1120M2517 1054L2500 1146M-43 1054L10 1120M10 1120L-60 1146M10 1120L62 1201M2570 1120L2500 1146M125 1169L187 1170M125 1169L62 1201M125 1169L150 1255M187 1170L150 1255M187 1170L256 1201M287 1162L382 1149M287 1162L256 1201M382 1149L427 1187M427 1187L508 1141M427 1187L389 1261M427 1187L471 1234M508 1141L471 1234M612 1125L662 1199M612 1125L650 1208M662 1199L650 1208M768 1163L803 1123M768 1163L748 1246M768 1163L820 1234M913 1132L997 1180M997 1180L1065 1178M997 1180L1020 1243M1065 1178L1020 1243M1065 1178L1109 1212M1065 1178L1156 1204M1196 1172L1270 1131M1196 1172L1109 1212M1196 1172L1156 1204M1196 1172L1233 1259M1270 1131L1318 1177M1318 1177L1386 1152M1318 1177L1297 1262M1318 1177L1373 1254M1493 1131L1532 1196M1532 1196L1618 1160M1532 1196L1467 1258M1532 1196L1537 1242M1618 1160L1537 1242M1618 1160L1649 1266M1739 1137L1794 1171M1794 1171L1749 1246M1794 1171L1791 1221M1902 1166L1953 1192M1953 1192L1921 1260M1953 1192L2007 1209M2061 1171L2153 1143M2061 1171L2007 1209M2061 1171L2096 1275M2153 1143L2187 1160M2187 1160L2191 1260M2303 1192L2325 1124M2303 1192L2404 1151M2303 1192L2279 1246M2303 1192L2334 1240M2325 1124L2404 1151M2325 1124L2334 1240M2404 1151L2477 1228M2500 1146L2477 1228M2500 1146L2526 1225M62 1201L150 1255M62 1201L-34 1225M2622 1201L2526 1225M150 1255L192 1279M150 1255L106 1346M192 1279L256 1201M192 1279L221 1340M389 1261L471 1234M389 1261L332 1304M389 1261L437 1339M389 1261L424 1367M471 1234L513 1262M471 1234L562 1249M513 1262L562 1249M513 1262L542 1299M562 1249L650 1208M562 1249L542 1299M562 1249L597 1331M650 1208L748 1246M748 1246L820 1234M748 1246L676 1316M748 1246L772 1316M820 1234L890 1256M820 1234L839 1332M890 1256L839 1332M890 1256L927 1348M1020 1243L1109 1212M1020 1243L1019 1332M1020 1243L1081 1321M1109 1212L1156 1204M1156 1204L1233 1259M1156 1204L1180 1307M1233 1259L1297 1262M1233 1259L1180 1307M1233 1259L1210 1334M1297 1262L1373 1254M1297 1262L1334 1346M1373 1254L1334 1346M1373 1254L1431 1313M1373 1254L1454 1294M1467 1258L1537 1242M1467 1258L1431 1313M1467 1258L1454 1294M1537 1242L1454 1294M1649 1266L1749 1246M1649 1266L1598 1357M1649 1266L1654 1340M1749 1246L1791 1221M1749 1246L1740 1351M1791 1221L1871 1273M1871 1273L1921 1260M1871 1273L1856 1308M1871 1273L1857 1379M1921 1260L2007 1209M1921 1260L1856 1308M1921 1260L1966 1346M2007 1209L2096 1275M2096 1275L2191 1260M2096 1275L2062 1358M2096 1275L2153 1336M2191 1260L2279 1246M2191 1260L2153 1336M2191 1260L2216 1283M2279 1246L2334 1240M2279 1246L2216 1283M2334 1240L2340 1334M2477 1228L2526 1225M2477 1228L2463 1334M2477 1228L2552 1299M2526 1225L2552 1299M62 1331L106 1346M62 1331L-8 1299M62 1331L16 1363M62 1331L140 1375M62 1331L-15 1414M2622 1331L2552 1299M2622 1331L2545 1414M106 1346L16 1363M106 1346L140 1375M221 1340L304 1343M221 1340L140 1375M221 1340L203 1390M304 1343L332 1304M304 1343L295 1420M304 1343L360 1422M332 1304L437 1339M332 1304L424 1367M437 1339L360 1422M437 1339L424 1367M437 1339L530 1369M542 1299L597 1331M542 1299L530 1369M597 1331L676 1316M597 1331L530 1369M597 1331L596 1407M676 1316L772 1316M676 1316L711 1380M676 1316L734 1371M772 1316L839 1332M772 1316L734 1371M772 1316L833 1374M839 1332L927 1348M839 1332L833 1374M927 1348L1019 1332M927 1348L921 1392M927 1348L1021 1382M1019 1332L1081 1321M1019 1332L1021 1382M1019 1332L1046 1404M1081 1321L1180 1307M1081 1321L1021 1382M1081 1321L1046 1404M1180 1307L1210 1334M1180 1307L1192 1423M1210 1334L1192 1423M1210 1334L1283 1393M1334 1346L1277 1417M1334 1346L1283 1393M1334 1346L1415 1421M1431 1313L1454 1294M1454 1294L1520 1366M1598 1357L1654 1340M1598 1357L1520 1366M1598 1357L1565 1385M1598 1357L1602 1387M1654 1340L1740 1351M1654 1340L1602 1387M1654 1340L1714 1364M1740 1351L1777 1343M1740 1351L1714 1364M1740 1351L1817 1396M1777 1343L1856 1308M1777 1343L1714 1364M1777 1343L1817 1396M1777 1343L1857 1379M1856 1308L1817 1396M1856 1308L1857 1379M1966 1346L2062 1358M1966 1346L1970 1387M1966 1346L2037 1381M2062 1358L1970 1387M2062 1358L2037 1381M2062 1358L2113 1433M2153 1336L2216 1283M2153 1336L2113 1433M2153 1336L2220 1364M2216 1283L2293 1353M2216 1283L2220 1364M2293 1353L2340 1334M2293 1353L2220 1364M2293 1353L2279 1381M2293 1353L2331 1387M2340 1334L2279 1381M2340 1334L2331 1387M2340 1334L2403 1398M2463 1334L2552 1299M2463 1334L2403 1398M2552 1299L2576 1363M-8 1299L16 1363M16 1363L-15 1414M2576 1363L2545 1414M140 1375L203 1390M203 1390L295 1420M295 1420L360 1422M360 1422L424 1367M530 1369L596 1407M596 1407L711 1380M711 1380L734 1371M734 1371L833 1374M833 1374L921 1392M921 1392L1021 1382M921 1392L1046 1404M1021 1382L1046 1404M1192 1423L1277 1417M1277 1417L1283 1393M1415 1421L1520 1366M1520 1366L1565 1385M1520 1366L1602 1387M1565 1385L1602 1387M1817 1396L1857 1379M1970 1387L2037 1381M2220 1364L2279 1381M2279 1381L2331 1387M2331 1387L2403 1398"/></svg>