<svg xmlns="http://www.w3.org/2000/svg" width="2560" height="1440" fill="#fff"><circle cx="41" cy="40" r="5"/><circle cx="126" cy="5" r="4"/><circle cx="237" cy="59" r="6"/><circle cx="289" cy="64" r="4"/><circle cx="366" cy="1" r="6"/><circle cx="366" cy="1441" r="6"/><circle cx="478" cy="5" r="5"/><circle cx="531" cy="4" r="5"/><circle cx="531" cy="1444" r="5"/><circle cx="607" cy="62" r="5"/><circle cx="656" cy="16" r="5"/><circle cx="753" cy="6" r="5"/><circle cx="823" cy="12" r="5"/><circle cx="956" cy="47" r="6"/><circle cx="1008" cy="25" r="4"/><circle cx="1050" cy="2" r="4"/><circle cx="1050" cy="1442" r="4"/><circle cx="1124" cy="2" r="4"/><circle cx="1124" cy="1442" r="4"/><circle cx="1241" cy="55" r="6"/><circle cx="1329" cy="63" r="4"/><circle cx="1423" cy="19" r="5"/><circle cx="1514" cy="3" r="6"/><circle cx="1514" cy="1443" r="6"/><circle cx="1554" cy="33" r="6"/><circle cx="1679" cy="2" r="6"/><circle cx="1679" cy="1442" r="6"/><circle cx="1704" cy="43" r="6"/><circle cx="1836" cy="2" r="5"/><circle cx="1836" cy="1442" r="5"/><circle cx="1892" cy="7" r="5"/><circle cx="1943" cy="61" r="6"/><circle cx="2063" cy="48" r="6"/><circle cx="2091" cy="18" r="5"/><circle cx="2185" cy="30" r="5"/><circle cx="2317" cy="28" r="4"/><circle cx="2381" cy="37" r="6"/><circle cx="2443" cy="74" r="5"/><circle cx="2497" cy="16" r="4"/><circle cx="7" cy="127" r="5"/><circle cx="144" cy="145" r="4"/><circle cx="212" cy="103" r="5"/><circle cx="279" cy="132" r="4"/><circle cx="323" cy="97" r="5"/><circle cx="413" cy="110" r="6"/><circle cx="539" cy="84" r="6"/><circle cx="584" cy="126" r="5"/><circle cx="657" cy="109" r="5"/><circle cx="756" cy="125" r="6"/><circle cx="871" cy="108" r="5"/><circle cx="887" cy="80" r="6"/><circle cx="1025" cy="142" r="4"/><circle cx="1076" cy="128" r="5"/><circle cx="1133" cy="108" r="5"/><circle cx="1228" cy="92" r="5"/><circle cx="1336" cy="126" r="5"/><circle cx="1372" cy="106" r="6"/><circle cx="1504" cy="104" r="5"/><circle cx="1538" cy="105" r="5"/><circle cx="1673" cy="87" r="5"/><circle cx="1689" cy="143" r="5"/><circle cx="1801" cy="159" r="5"/><circle cx="1882" cy="139" r="5"/><circle cx="1944" cy="151" r="5"/><circle cx="2076" cy="87" r="5"/><circle cx="2130" cy="146" r="5"/><circle cx="2191" cy="160" r="6"/><circle cx="2301" cy="145" r="5"/><circle cx="2328" cy="107" r="4"/><circle cx="2413" cy="153" r="6"/><circle cx="2516" cy="131" r="5"/><circle cx="38" cy="171" r="5"/><circle cx="108" cy="226" r="5"/><circle cx="226" cy="172" r="5"/><circle cx="257" cy="238" r="5"/><circle cx="331" cy="193" r="6"/><circle cx="430" cy="210" r="6"/><circle cx="515" cy="193" r="5"/><circle cx="593" cy="208" r="6"/><circle cx="690" cy="222" r="6"/><circle cx="795" cy="178" r="6"/><circle cx="821" cy="205" r="5"/><circle cx="920" cy="167" r="5"/><circle cx="995" cy="160" r="4"/><circle cx="1099" cy="203" r="5"/><circle cx="1146" cy="236" r="6"/><circle cx="1215" cy="213" r="5"/><circle cx="1316" cy="236" r="4"/><circle cx="1412" cy="196" r="5"/><circle cx="1458" cy="189" r="6"/><circle cx="1556" cy="193" r="5"/><circle cx="1621" cy="183" r="4"/><circle cx="1745" cy="199" r="4"/><circle cx="1809" cy="180" r="5"/><circle cx="1856" cy="168" r="5"/><circle cx="1921" cy="163" r="5"/><circle cx="2028" cy="213" r="6"/><circle cx="2154" cy="178" r="5"/><circle cx="2192" cy="229" r="5"/><circle cx="2242" cy="181" r="5"/><circle cx="2364" cy="168" r="4"/><circle cx="2468" cy="216" r="5"/><circle cx="2541" cy="162" r="5"/><circle cx="36" cy="309" r="5"/><circle cx="158" cy="270" r="5"/><circle cx="166" cy="241" r="5"/><circle cx="250" cy="279" r="5"/><circle cx="398" cy="268" r="5"/><circle cx="419" cy="300" r="5"/><circle cx="512" cy="307" r="5"/><circle cx="615" cy="251" r="5"/><circle cx="659" cy="269" r="5"/><circle cx="729" cy="289" r="6"/><circle cx="843" cy="264" r="5"/><circle cx="956" cy="288" r="6"/><circle cx="1039" cy="246" r="5"/><circle cx="1106" cy="317" r="5"/><circle cx="1135" cy="246" r="4"/><circle cx="1267" cy="272" r="5"/><circle cx="1333" cy="249" r="6"/><circle cx="1405" cy="307" r="4"/><circle cx="1499" cy="277" r="4"/><circle cx="1522" cy="319" r="4"/><circle cx="1619" cy="261" r="4"/><circle cx="1730" cy="251" r="6"/><circle cx="1793" cy="312" r="6"/><circle cx="1888" cy="318" r="6"/><circle cx="1943" cy="271" r="5"/><circle cx="2066" cy="249" r="5"/><circle cx="2099" cy="307" r="5"/><circle cx="2230" cy="243" r="6"/><circle cx="2246" cy="281" r="4"/><circle cx="2332" cy="310" r="4"/><circle cx="2467" cy="315" r="4"/><circle cx="2533" cy="289" r="5"/><circle cx="22" cy="384" r="5"/><circle cx="119" cy="344" r="5"/><circle cx="215" cy="366" r="6"/><circle cx="267" cy="366" r="4"/><circle cx="377" cy="338" r="4"/><circle cx="472" cy="327" r="6"/><circle cx="507" cy="338" r="6"/><circle cx="562" cy="393" r="4"/><circle cx="686" cy="387" r="6"/><circle cx="762" cy="332" r="5"/><circle cx="832" cy="380" r="5"/><circle cx="917" cy="394" r="4"/><circle cx="990" cy="369" r="5"/><circle cx="1078" cy="353" r="6"/><circle cx="1174" cy="347" r="5"/><circle cx="1273" cy="352" r="6"/><circle cx="1284" cy="350" r="6"/><circle cx="1414" cy="322" r="5"/><circle cx="1459" cy="335" r="5"/><circle cx="1549" cy="343" r="5"/><circle cx="1636" cy="388" r="5"/><circle cx="1711" cy="328" r="4"/><circle cx="1762" cy="364" r="6"/><circle cx="1864" cy="363" r="6"/><circle cx="1929" cy="345" r="5"/><circle cx="2040" cy="353" r="5"/><circle cx="2147" cy="380" r="5"/><circle cx="2185" cy="332" r="6"/><circle cx="2251" cy="380" r="4"/><circle cx="2338" cy="335" r="5"/><circle cx="2425" cy="321" r="6"/><circle cx="2542" cy="367" r="4"/><circle cx="58" cy="434" r="4"/><circle cx="123" cy="469" r="6"/><circle cx="218" cy="462" r="5"/><circle cx="314" cy="464" r="6"/><circle cx="349" cy="463" r="5"/><circle cx="417" cy="448" r="6"/><circle cx="490" cy="436" r="4"/><circle cx="567" cy="420" r="5"/><circle cx="704" cy="428" r="4"/><circle cx="767" cy="429" r="5"/><circle cx="854" cy="405" r="5"/><circle cx="960" cy="446" r="5"/><circle cx="974" cy="424" r="6"/><circle cx="1112" cy="445" r="6"/><circle cx="1173" cy="423" r="6"/><circle cx="1240" cy="412" r="6"/><circle cx="1304" cy="476" r="6"/><circle cx="1390" cy="448" r="5"/><circle cx="1473" cy="402" r="6"/><circle cx="1570" cy="401" r="6"/><circle cx="1632" cy="434" r="5"/><circle cx="1746" cy="478" r="4"/><circle cx="1834" cy="412" r="4"/><circle cx="1872" cy="464" r="5"/><circle cx="1939" cy="415" r="4"/><circle cx="2075" cy="412" r="4"/><circle cx="2139" cy="455" r="4"/><circle cx="2226" cy="415" r="6"/><circle cx="2318" cy="441" r="5"/><circle cx="2351" cy="468" r="5"/><circle cx="2410" cy="415" r="4"/><circle cx="2513" cy="453" r="5"/><circle cx="15" cy="537" r="5"/><circle cx="134" cy="503" r="5"/><circle cx="214" cy="494" r="6"/><circle cx="260" cy="482" r="6"/><circle cx="324" cy="525" r="5"/><circle cx="441" cy="530" r="6"/><circle cx="554" cy="507" r="6"/><circle cx="600" cy="535" r="6"/><circle cx="677" cy="519" r="5"/><circle cx="759" cy="504" r="5"/><circle cx="844" cy="501" r="6"/><circle cx="881" cy="481" r="4"/><circle cx="965" cy="556" r="6"/><circle cx="1043" cy="545" r="6"/><circle cx="1167" cy="498" r="5"/><circle cx="1241" cy="501" r="5"/><circle cx="1329" cy="542" r="5"/><circle cx="1370" cy="535" r="5"/><circle cx="1501" cy="516" r="5"/><circle cx="1590" cy="544" r="5"/><circle cx="1652" cy="500" r="4"/><circle cx="1694" cy="505" r="6"/><circle cx="1832" cy="488" r="4"/><circle cx="1905" cy="542" r="4"/><circle cx="1923" cy="515" r="6"/><circle cx="2063" cy="552" r="4"/><circle cx="2089" cy="510" r="4"/><circle cx="2214" cy="480" r="4"/><circle cx="2279" cy="530" r="4"/><circle cx="2325" cy="549" r="5"/><circle cx="2451" cy="484" r="4"/><circle cx="2507" cy="555" r="5"/><circle cx="42" cy="637" r="5"/><circle cx="113" cy="631" r="6"/><circle cx="198" cy="639" r="4"/><circle cx="269" cy="628" r="4"/><circle cx="390" cy="635" r="4"/><circle cx="476" cy="583" r="5"/><circle cx="545" cy="625" r="5"/><circle cx="629" cy="577" r="5"/><circle cx="688" cy="561" r="6"/><circle cx="733" cy="581" r="4"/><circle cx="845" cy="585" r="5"/><circle cx="913" cy="575" r="5"/><circle cx="1015" cy="634" r="4"/><circle cx="1099" cy="571" r="4"/><circle cx="1193" cy="604" r="6"/><circle cx="1276" cy="588" r="6"/><circle cx="1315" cy="583" r="4"/><circle cx="1415" cy="567" r="6"/><circle cx="1490" cy="581" r="6"/><circle cx="1584" cy="613" r="4"/><circle cx="1619" cy="584" r="5"/><circle cx="1723" cy="624" r="5"/><circle cx="1813" cy="626" r="5"/><circle cx="1906" cy="610" r="6"/><circle cx="1933" cy="637" r="6"/><circle cx="2041" cy="637" r="6"/><circle cx="2120" cy="578" r="6"/><circle cx="2199" cy="563" r="5"/><circle cx="2317" cy="628" r="5"/><circle cx="2347" cy="611" r="5"/><circle cx="2470" cy="623" r="4"/><circle cx="2536" cy="607" r="6"/><circle cx="54" cy="652" r="6"/><circle cx="144" cy="651" r="5"/><circle cx="230" cy="649" r="5"/><circle cx="319" cy="677" r="6"/><circle cx="343" cy="683" r="5"/><circle cx="404" cy="691" r="6"/><circle cx="531" cy="663" r="4"/><circle cx="600" cy="654" r="6"/><circle cx="658" cy="716" r="5"/><circle cx="776" cy="704" r="5"/><circle cx="875" cy="663" r="5"/><circle cx="957" cy="684" r="6"/><circle cx="960" cy="655" r="5"/><circle cx="1058" cy="711" r="5"/><circle cx="1193" cy="666" r="4"/><circle cx="1263" cy="713" r="5"/><circle cx="1339" cy="711" r="5"/><circle cx="1429" cy="701" r="5"/><circle cx="1443" cy="705" r="4"/><circle cx="1579" cy="683" r="4"/><circle cx="1680" cy="669" r="6"/><circle cx="1710" cy="687" r="6"/><circle cx="1812" cy="707" r="6"/><circle cx="1889" cy="661" r="5"/><circle cx="1997" cy="641" r="4"/><circle cx="2019" cy="715" r="4"/><circle cx="2146" cy="677" r="6"/><circle cx="2229" cy="687" r="5"/><circle cx="2275" cy="647" r="5"/><circle cx="2361" cy="665" r="5"/><circle cx="2474" cy="701" r="5"/><circle cx="2529" cy="720" r="4"/><circle cx="30" cy="753" r="4"/><circle cx="102" cy="794" r="5"/><circle cx="188" cy="752" r="5"/><circle cx="255" cy="754" r="4"/><circle cx="330" cy="771" r="4"/><circle cx="416" cy="793" r="6"/><circle cx="495" cy="739" r="4"/><circle cx="628" cy="750" r="4"/><circle cx="707" cy="797" r="5"/><circle cx="745" cy="729" r="5"/><circle cx="820" cy="761" r="4"/><circle cx="928" cy="742" r="6"/><circle cx="1014" cy="732" r="6"/><circle cx="1046" cy="739" r="5"/><circle cx="1141" cy="788" r="6"/><circle cx="1258" cy="769" r="6"/><circle cx="1321" cy="750" r="4"/><circle cx="1421" cy="734" r="5"/><circle cx="1475" cy="778" r="5"/><circle cx="1526" cy="769" r="6"/><circle cx="1653" cy="741" r="5"/><circle cx="1717" cy="760" r="4"/><circle cx="1839" cy="725" r="6"/><circle cx="1904" cy="765" r="6"/><circle cx="1988" cy="796" r="4"/><circle cx="2073" cy="757" r="5"/><circle cx="2124" cy="799" r="5"/><circle cx="2201" cy="757" r="4"/><circle cx="2297" cy="760" r="5"/><circle cx="2376" cy="778" r="5"/><circle cx="2429" cy="785" r="5"/><circle cx="2505" cy="738" r="6"/><circle cx="50" cy="817" r="4"/><circle cx="102" cy="814" r="4"/><circle cx="196" cy="869" r="5"/><circle cx="275" cy="809" r="4"/><circle cx="324" cy="836" r="5"/><circle cx="456" cy="807" r="5"/><circle cx="552" cy="846" r="4"/><circle cx="635" cy="830" r="5"/><circle cx="702" cy="855" r="6"/><circle cx="779" cy="857" r="5"/><circle cx="850" cy="845" r="5"/><circle cx="910" cy="812" r="5"/><circle cx="977" cy="856" r="6"/><circle cx="1065" cy="879" r="5"/><circle cx="1176" cy="806" r="5"/><circle cx="1232" cy="859" r="5"/><circle cx="1347" cy="871" r="4"/><circle cx="1376" cy="829" r="4"/><circle cx="1445" cy="840" r="4"/><circle cx="1593" cy="840" r="6"/><circle cx="1635" cy="844" r="6"/><circle cx="1710" cy="831" r="4"/><circle cx="1769" cy="862" r="4"/><circle cx="1904" cy="857" r="5"/><circle cx="1931" cy="877" r="4"/><circle cx="2032" cy="846" r="4"/><circle cx="2083" cy="817" r="5"/><circle cx="2229" cy="869" r="6"/><circle cx="2264" cy="855" r="5"/><circle cx="2325" cy="854" r="5"/><circle cx="2423" cy="849" r="5"/><circle cx="2532" cy="853" r="5"/><circle cx="46" cy="883" r="5"/><circle cx="142" cy="887" r="5"/><circle cx="187" cy="958" r="5"/><circle cx="308" cy="943" r="4"/><circle cx="333" cy="939" r="6"/><circle cx="479" cy="918" r="4"/><circle cx="521" cy="923" r="4"/><circle cx="560" cy="945" r="5"/><circle cx="696" cy="952" r="6"/><circle cx="789" cy="907" r="4"/><circle cx="817" cy="948" r="5"/><circle cx="880" cy="906" r="5"/><circle cx="961" cy="906" r="4"/><circle cx="1045" cy="887" r="6"/><circle cx="1165" cy="946" r="6"/><circle cx="1254" cy="921" r="5"/><circle cx="1314" cy="952" r="5"/><circle cx="1399" cy="921" r="5"/><circle cx="1462" cy="886" r="4"/><circle cx="1564" cy="947" r="5"/><circle cx="1603" cy="938" r="5"/><circle cx="1730" cy="942" r="6"/><circle cx="1805" cy="894" r="4"/><circle cx="1883" cy="925" r="4"/><circle cx="1984" cy="921" r="5"/><circle cx="2065" cy="900" r="4"/><circle cx="2141" cy="915" r="5"/><circle cx="2226" cy="901" r="4"/><circle cx="2260" cy="925" r="5"/><circle cx="2391" cy="932" r="6"/><circle cx="2458" cy="914" r="5"/><circle cx="2513" cy="896" r="5"/><circle cx="14" cy="1014" r="5"/><circle cx="127" cy="968" r="5"/><circle cx="187" cy="1005" r="4"/><circle cx="268" cy="979" r="5"/><circle cx="329" cy="980" r="5"/><circle cx="448" cy="972" r="5"/><circle cx="492" cy="972" r="5"/><circle cx="573" cy="962" r="4"/><circle cx="641" cy="969" r="4"/><circle cx="781" cy="1020" r="5"/><circle cx="863" cy="1001" r="5"/><circle cx="907" cy="966" r="4"/><circle cx="969" cy="1013" r="6"/><circle cx="1067" cy="992" r="4"/><circle cx="1136" cy="989" r="5"/><circle cx="1202" cy="990" r="6"/><circle cx="1304" cy="965" r="4"/><circle cx="1370" cy="965" r="6"/><circle cx="1490" cy="1028" r="4"/><circle cx="1553" cy="980" r="5"/><circle cx="1677" cy="1016" r="5"/><circle cx="1705" cy="976" r="6"/><circle cx="1817" cy="965" r="5"/><circle cx="1855" cy="1021" r="6"/><circle cx="1995" cy="977" r="4"/><circle cx="2016" cy="1029" r="6"/><circle cx="2126" cy="1035" r="5"/><circle cx="2233" cy="1009" r="4"/><circle cx="2298" cy="1031" r="5"/><circle cx="2382" cy="987" r="5"/><circle cx="2435" cy="996" r="6"/><circle cx="2554" cy="1015" r="5"/><circle cx="77" cy="1077" r="5"/><circle cx="111" cy="1064" r="5"/><circle cx="186" cy="1055" r="5"/><circle cx="313" cy="1048" r="5"/><circle cx="336" cy="1059" r="5"/><circle cx="478" cy="1068" r="4"/><circle cx="517" cy="1086" r="5"/><circle cx="582" cy="1050" r="5"/><circle cx="675" cy="1100" r="5"/><circle cx="769" cy="1115" r="5"/><circle cx="873" cy="1096" r="4"/><circle cx="912" cy="1042" r="5"/><circle cx="1025" cy="1076" r="6"/><circle cx="1101" cy="1114" r="5"/><circle cx="1192" cy="1113" r="4"/><circle cx="1219" cy="1087" r="6"/><circle cx="1288" cy="1087" r="6"/><circle cx="1423" cy="1051" r="4"/><circle cx="1471" cy="1061" r="5"/><circle cx="1587" cy="1055" r="5"/><circle cx="1650" cy="1065" r="5"/><circle cx="1735" cy="1081" r="4"/><circle cx="1818" cy="1079" r="5"/><circle cx="1876" cy="1084" r="6"/><circle cx="1943" cy="1051" r="5"/><circle cx="2058" cy="1089" r="5"/><circle cx="2136" cy="1050" r="6"/><circle cx="2209" cy="1071" r="5"/><circle cx="2303" cy="1100" r="6"/><circle cx="2329" cy="1070" r="4"/><circle cx="2436" cy="1092" r="6"/><circle cx="2509" cy="1093" r="5"/><circle cx="36" cy="1154" r="5"/><circle cx="91" cy="1126" r="5"/><circle cx="166" cy="1149" r="4"/><circle cx="262" cy="1190" r="4"/><circle cx="324" cy="1186" r="4"/><circle cx="419" cy="1168" r="4"/><circle cx="508" cy="1163" r="5"/><circle cx="576" cy="1153" r="6"/><circle cx="700" cy="1165" r="5"/><circle cx="781" cy="1139" r="6"/><circle cx="880" cy="1136" r="6"/><circle cx="881" cy="1180" r="5"/><circle cx="969" cy="1187" r="5"/><circle cx="1062" cy="1138" r="5"/><circle cx="1124" cy="1146" r="5"/><circle cx="1243" cy="1128" r="4"/><circle cx="1348" cy="1174" r="4"/><circle cx="1381" cy="1155" r="5"/><circle cx="1518" cy="1185" r="6"/><circle cx="1575" cy="1125" r="5"/><circle cx="1614" cy="1157" r="5"/><circle cx="1721" cy="1192" r="4"/><circle cx="1791" cy="1183" r="5"/><circle cx="1856" cy="1188" r="5"/><circle cx="1959" cy="1196" r="4"/><circle cx="2002" cy="1187" r="5"/><circle cx="2096" cy="1149" r="5"/><circle cx="2227" cy="1129" r="5"/><circle cx="2240" cy="1193" r="6"/><circle cx="2380" cy="1170" r="5"/><circle cx="2463" cy="1120" r="6"/><circle cx="2540" cy="1168" r="4"/><circle cx="69" cy="1249" r="4"/><circle cx="125" cy="1217" r="6"/><circle cx="228" cy="1258" r="4"/><circle cx="255" cy="1208" r="4"/><circle cx="390" cy="1266" r="4"/><circle cx="447" cy="1257" r="6"/><circle cx="488" cy="1203" r="5"/><circle cx="593" cy="1276" r="5"/><circle cx="709" cy="1250" r="5"/><circle cx="732" cy="1276" r="4"/><circle cx="829" cy="1280" r="6"/><circle cx="888" cy="1241" r="6"/><circle cx="996" cy="1207" r="5"/><circle cx="1058" cy="1231" r="5"/><circle cx="1153" cy="1228" r="4"/><circle cx="1259" cy="1216" r="6"/><circle cx="1319" cy="1266" r="4"/><circle cx="1426" cy="1265" r="6"/><circle cx="1504" cy="1277" r="5"/><circle cx="1585" cy="1272" r="4"/><circle cx="1676" cy="1215" r="4"/><circle cx="1745" cy="1275" r="5"/><circle cx="1793" cy="1271" r="5"/><circle cx="1875" cy="1230" r="5"/><circle cx="1928" cy="1260" r="4"/><circle cx="2010" cy="1276" r="4"/><circle cx="2100" cy="1230" r="4"/><circle cx="2188" cy="1274" r="4"/><circle cx="2265" cy="1226" r="5"/><circle cx="2363" cy="1210" r="4"/><circle cx="2470" cy="1259" r="4"/><circle cx="2557" cy="1254" r="6"/><circle cx="-3" cy="1254" r="6"/><circle cx="25" cy="1330" r="4"/><circle cx="145" cy="1334" r="5"/><circle cx="198" cy="1342" r="5"/><circle cx="294" cy="1309" r="4"/><circle cx="369" cy="1306" r="4"/><circle cx="465" cy="1288" r="4"/><circle cx="501" cy="1290" r="6"/><circle cx="638" cy="1360" r="4"/><circle cx="710" cy="1335" r="5"/><circle cx="764" cy="1325" r="6"/><circle cx="830" cy="1324" r="4"/><circle cx="955" cy="1291" r="5"/><circle cx="973" cy="1281" r="6"/><circle cx="1054" cy="1309" r="5"/><circle cx="1200" cy="1350" r="5"/><circle cx="1225" cy="1288" r="5"/><circle cx="1318" cy="1314" r="5"/><circle cx="1364" cy="1354" r="4"/><circle cx="1440" cy="1358" r="4"/><circle cx="1554" cy="1322" r="5"/><circle cx="1601" cy="1354" r="4"/><circle cx="1701" cy="1331" r="4"/><circle cx="1806" cy="1337" r="4"/><circle cx="1850" cy="1306" r="4"/><circle cx="1985" cy="1331" r="5"/><circle cx="2050" cy="1313" r="4"/><circle cx="2117" cy="1313" r="5"/><circle cx="2166" cy="1343" r="4"/><circle cx="2242" cy="1289" r="5"/><circle cx="2399" cy="1322" r="4"/><circle cx="2418" cy="1287" r="4"/><circle cx="2559" cy="1355" r="6"/><circle cx="-1" cy="1355" r="6"/><circle cx="64" cy="1366" r="4"/><circle cx="147" cy="1405" r="6"/><circle cx="233" cy="1385" r="5"/><circle cx="302" cy="1401" r="4"/><circle cx="342" cy="1432" r="4"/><circle cx="454" cy="1428" r="5"/><circle cx="484" cy="1406" r="6"/><circle cx="596" cy="1400" r="5"/><circle cx="652" cy="1392" r="6"/><circle cx="749" cy="1372" r="6"/><circle cx="803" cy="1395" r="4"/><circle cx="951" cy="1367" r="6"/><circle cx="1025" cy="1360" r="4"/><circle cx="1107" cy="1431" r="6"/><circle cx="1177" cy="1432" r="5"/><circle cx="1254" cy="1411" r="6"/><circle cx="1335" cy="1407" r="4"/><circle cx="1381" cy="1407" r="4"/><circle cx="1457" cy="1417" r="5"/><circle cx="1537" cy="1425" r="4"/><circle cx="1646" cy="1424" r="5"/><circle cx="1732" cy="1403" r="5"/><circle cx="1824" cy="1431" r="6"/><circle cx="1887" cy="1437" r="4"/><circle cx="1887" cy="-3" r="4"/><circle cx="1973" cy="1387" r="5"/><circle cx="2019" cy="1387" r="5"/><circle cx="2125" cy="1439" r="4"/><circle cx="2125" cy="-1" r="4"/><circle cx="2197" cy="1379" r="4"/><circle cx="2314" cy="1439" r="6"/><circle cx="2314" cy="-1" r="6"/><circle cx="2323" cy="1432" r="4"/><circle cx="2450" cy="1423" r="4"/><circle cx="2542" cy="1387" r="5"/><path stroke="#fff" d="M41 40L126 5M41 40L-63 16M41 40L7 127M2601 40L2497 16M126 5L147 -35M126 1445L147 1405M237 59L289 64M237 59L212 103M237 59L323 97M289 64L366 1M289 64L212 103M289 64L279 132M289 64L323 97M366 1L302 -39M366 1L342 -8M366 1L454 -12M366 1441L302 1401M366 1441L342 1432M366 1441L454 1428M478 5L531 4M478 5L413 110M478 5L539 84M478 5L454 -12M478 5L484 -34M478 1445L454 1428M478 1445L484 1406M531 4L539 84M531 4L454 -12M531 4L484 -34M531 4L596 -40M531 1444L454 1428M531 1444L484 1406M531 1444L596 1400M607 62L656 16M607 62L539 84M607 62L584 126M607 62L657 109M607 62L596 -40M607 1502L596 1400M656 16L753 6M656 16L657 109M656 16L596 -40M656 16L652 -48M656 1456L596 1400M656 1456L652 1392M753 6L823 12M753 6L749 -68M753 6L803 -45M753 1446L749 1372M753 1446L803 1395M823 12L871 108M823 12L887 80M823 12L803 -45M823 1452L803 1395M956 47L1008 25M956 47L1050 2M956 47L871 108M956 47L887 80M956 47L951 -73M956 1487L951 1367M1008 25L1050 2M1008 25L1025 -80M1008 25L1107 -9M1008 1465L1025 1360M1008 1465L1107 1431M1050 2L1124 2M1050 2L1025 -80M1050 2L1107 -9M1050 1442L1025 1360M1050 1442L1107 1431M1124 2L1133 108M1124 2L1107 -9M1124 2L1177 -8M1124 1442L1107 1431M1124 1442L1177 1432M1241 55L1329 63M1241 55L1228 92M1241 55L1336 126M1241 55L1177 -8M1241 55L1254 -29M1241 1495L1177 1432M1241 1495L1254 1411M1329 63L1423 19M1329 63L1336 126M1329 63L1372 106M1329 63L1335 -33M1329 1503L1335 1407M1423 19L1514 3M1423 19L1372 106M1423 19L1381 -33M1423 19L1457 -23M1423 1459L1381 1407M1423 1459L1457 1417M1514 3L1554 33M1514 3L1504 104M1514 3L1457 -23M1514 3L1537 -15M1514 1443L1457 1417M1514 1443L1537 1425M1554 33L1504 104M1554 33L1538 105M1554 33L1537 -15M1554 33L1646 -16M1554 1473L1537 1425M1554 1473L1646 1424M1679 2L1704 43M1679 2L1673 87M1679 2L1701 -109M1679 2L1646 -16M1679 2L1732 -37M1679 1442L1701 1331M1679 1442L1646 1424M1679 1442L1732 1403M1704 43L1673 87M1704 43L1689 143M1704 43L1646 -16M1704 43L1732 -37M1704 1483L1646 1424M1704 1483L1732 1403M1836 2L1892 7M1836 2L1824 -9M1836 2L1887 -3M1836 1442L1824 1431M1836 1442L1887 1437M1892 7L1943 61M1892 7L1824 -9M1892 7L1887 -3M1892 7L1973 -53M1892 1447L1824 1431M1892 1447L1887 1437M1892 1447L1973 1387M1943 61L1944 151M1943 61L1921 163M1943 61L1887 -3M1943 1501L1887 1437M2063 48L2091 18M2063 48L2076 87M2063 48L2130 146M2063 48L2019 -53M2063 48L2125 -1M2063 1488L2019 1387M2063 1488L2125 1439M2091 18L2185 30M2091 18L2076 87M2091 18L2019 -53M2091 18L2125 -1M2091 1458L2019 1387M2091 1458L2125 1439M2185 30L2125 -1M2185 30L2197 -61M2185 1470L2125 1439M2185 1470L2197 1379M2317 28L2381 37M2317 28L2328 107M2317 28L2314 -1M2317 28L2323 -8M2317 1468L2314 1439M2317 1468L2323 1432M2381 37L2443 74M2381 37L2328 107M2381 37L2314 -1M2381 37L2323 -8M2381 1477L2314 1439M2381 1477L2323 1432M2443 74L2497 16M2443 74L2413 153M2443 74L2516 131M2443 74L2450 -17M2443 1514L2450 1423M2497 16L2559 -85M2497 16L2450 -17M2497 16L2542 -53M2497 1456L2559 1355M2497 1456L2450 1423M2497 1456L2542 1387M7 127L-44 131M7 127L38 171M7 127L-19 162M2567 127L2516 131M2567 127L2541 162M144 145L212 103M144 145L38 171M144 145L108 226M144 145L226 172M212 103L279 132M212 103L226 172M279 132L323 97M279 132L226 172M279 132L331 193M323 97L413 110M323 97L331 193M413 110L430 210M539 84L584 126M539 84L515 193M584 126L657 109M584 126L515 193M584 126L593 208M657 109L756 125M756 125L795 178M756 125L821 205M871 108L887 80M871 108L795 178M871 108L920 167M887 80L920 167M1025 142L1076 128M1025 142L995 160M1076 128L1133 108M1076 128L995 160M1076 128L1099 203M1133 108L1228 92M1133 108L1099 203M1228 92L1254 -29M1228 1532L1254 1411M1336 126L1372 106M1336 126L1412 196M1372 106L1412 196M1372 106L1458 189M1504 104L1538 105M1504 104L1458 189M1504 104L1556 193M1538 105L1556 193M1538 105L1621 183M1673 87L1689 143M1673 87L1621 183M1689 143L1621 183M1689 143L1745 199M1801 159L1882 139M1801 159L1745 199M1801 159L1809 180M1801 159L1856 168M1882 139L1944 151M1882 139L1809 180M1882 139L1856 168M1882 139L1921 163M1944 151L1856 168M1944 151L1921 163M1944 151L2028 213M2076 87L2130 146M2076 87L2125 -1M2076 1527L2125 1439M2130 146L2191 160M2130 146L2154 178M2191 160L2154 178M2191 160L2192 229M2191 160L2242 181M2191 160L2230 243M2301 145L2328 107M2301 145L2242 181M2301 145L2364 168M2328 107L2413 153M2328 107L2364 168M2413 153L2516 131M2413 153L2364 168M2413 153L2468 216M2516 131L2598 171M2516 131L2541 162M-44 131L38 171M38 171L108 226M38 171L-19 162M2598 171L2541 162M108 226L36 309M108 226L158 270M108 226L166 241M226 172L257 238M226 172L166 241M257 238L331 193M257 238L166 241M257 238L250 279M331 193L430 210M331 193L398 268M430 210L515 193M430 210L398 268M430 210L419 300M515 193L593 208M515 193L615 251M593 208L690 222M593 208L615 251M593 208L659 269M690 222L795 178M690 222L615 251M690 222L659 269M690 222L729 289M795 178L821 205M795 178L843 264M821 205L920 167M821 205L843 264M920 167L995 160M1099 203L1146 236M1099 203L1039 246M1099 203L1135 246M1146 236L1215 213M1146 236L1039 246M1146 236L1106 317M1146 236L1135 246M1215 213L1316 236M1215 213L1135 246M1215 213L1267 272M1316 236L1412 196M1316 236L1267 272M1316 236L1333 249M1412 196L1458 189M1412 196L1333 249M1458 189L1556 193M1458 189L1499 277M1556 193L1621 183M1556 193L1619 261M1621 183L1619 261M1745 199L1809 180M1745 199L1730 251M1809 180L1856 168M1809 180L1730 251M1856 168L1921 163M1921 163L2028 213M2028 213L1943 271M2028 213L2066 249M2028 213L2099 307M2154 178L2192 229M2154 178L2242 181M2192 229L2242 181M2192 229L2230 243M2192 229L2246 281M2242 181L2230 243M2468 216L2541 162M2468 216L2467 315M2468 216L2533 289M2468 216L2425 321M36 309L-27 289M36 309L22 384M36 309L119 344M36 309L-18 367M2596 309L2533 289M2596 309L2542 367M158 270L166 241M158 270L250 279M158 270L119 344M166 241L250 279M250 279L215 366M250 279L267 366M398 268L419 300M398 268L377 338M398 268L472 327M419 300L377 338M419 300L472 327M419 300L507 338M512 307L472 327M512 307L507 338M512 307L562 393M615 251L659 269M615 251L729 289M659 269L729 289M659 269L686 387M729 289L686 387M729 289L762 332M843 264L956 288M843 264L762 332M956 288L1039 246M956 288L990 369M1039 246L1106 317M1039 246L1135 246M1106 317L1135 246M1106 317L1078 353M1106 317L1174 347M1267 272L1333 249M1267 272L1273 352M1267 272L1284 350M1333 249L1405 307M1333 249L1284 350M1405 307L1414 322M1405 307L1459 335M1499 277L1522 319M1499 277L1414 322M1499 277L1459 335M1499 277L1549 343M1522 319L1459 335M1522 319L1549 343M1522 319L1473 402M1522 319L1570 401M1619 261L1711 328M1730 251L1793 312M1730 251L1711 328M1730 251L1762 364M1793 312L1888 318M1793 312L1711 328M1793 312L1762 364M1793 312L1864 363M1888 318L1943 271M1888 318L1864 363M1888 318L1929 345M1888 318L1834 412M1943 271L2066 249M1943 271L1929 345M2066 249L2099 307M2066 249L2040 353M2099 307L2040 353M2099 307L2147 380M2099 307L2185 332M2230 243L2246 281M2246 281L2332 310M2246 281L2185 332M2332 310L2338 335M2332 310L2425 321M2467 315L2533 289M2467 315L2425 321M2467 315L2542 367M2533 289L2542 367M22 384L119 344M22 384L-18 367M22 384L58 434M22 384L-47 453M2582 384L2542 367M2582 384L2513 453M119 344L215 366M119 344L58 434M215 366L267 366M215 366L218 462M377 338L472 327M472 327L507 338M507 338L562 393M507 338L567 420M562 393L490 436M562 393L567 420M686 387L762 332M686 387L704 428M686 387L767 429M762 332L832 380M832 380L917 394M832 380L767 429M832 380L854 405M917 394L990 369M917 394L854 405M917 394L960 446M917 394L974 424M990 369L1078 353M990 369L960 446M990 369L974 424M1078 353L1174 347M1078 353L1112 445M1174 347L1273 352M1174 347L1173 423M1174 347L1240 412M1273 352L1284 350M1273 352L1240 412M1284 350L1240 412M1414 322L1459 335M1459 335L1473 402M1549 343L1636 388M1549 343L1473 402M1549 343L1570 401M1636 388L1711 328M1636 388L1570 401M1636 388L1632 434M1711 328L1762 364M1762 364L1864 363M1762 364L1834 412M1864 363L1929 345M1864 363L1834 412M1929 345L2040 353M1929 345L1939 415M2040 353L2075 412M2147 380L2185 332M2147 380L2075 412M2147 380L2139 455M2147 380L2226 415M2185 332L2251 380M2185 332L2226 415M2251 380L2338 335M2251 380L2226 415M2251 380L2318 441M2251 380L2214 480M2338 335L2425 321M2338 335L2410 415M2425 321L2410 415M2542 367L2513 453M58 434L123 469M58 434L134 503M123 469L218 462M123 469L134 503M123 469L214 494M218 462L314 464M218 462L214 494M218 462L260 482M314 464L349 463M314 464L417 448M314 464L260 482M314 464L324 525M349 463L417 448M349 463L260 482M349 463L324 525M349 463L441 530M417 448L490 436M417 448L441 530M490 436L567 420M490 436L441 530M490 436L554 507M567 420L554 507M704 428L767 429M767 429L854 405M767 429L759 504M854 405L844 501M854 405L881 481M960 446L974 424M960 446L881 481M960 446L965 556M974 424L881 481M1112 445L1173 423M1112 445L1043 545M1112 445L1167 498M1173 423L1240 412M1173 423L1167 498M1173 423L1241 501M1240 412L1304 476M1304 476L1390 448M1304 476L1241 501M1304 476L1329 542M1304 476L1370 535M1390 448L1473 402M1390 448L1370 535M1473 402L1570 401M1570 401L1632 434M1632 434L1652 500M1632 434L1694 505M1746 478L1652 500M1746 478L1694 505M1746 478L1832 488M1834 412L1872 464M1834 412L1832 488M1872 464L1939 415M1872 464L1832 488M1872 464L1905 542M1872 464L1923 515M1939 415L1923 515M2075 412L2139 455M2075 412L2089 510M2139 455L2089 510M2139 455L2214 480M2226 415L2318 441M2226 415L2214 480M2318 441L2351 468M2318 441L2410 415M2318 441L2279 530M2351 468L2410 415M2351 468L2279 530M2351 468L2325 549M2351 468L2451 484M2410 415L2451 484M2513 453L2575 537M2513 453L2451 484M2513 453L2507 555M-47 453L15 537M15 537L-53 555M15 537L42 637M15 537L-24 607M2575 537L2507 555M2575 537L2536 607M134 503L214 494M214 494L260 482M214 494L324 525M260 482L324 525M441 530L476 583M554 507L600 535M554 507L476 583M600 535L677 519M600 535L545 625M600 535L629 577M600 535L688 561M677 519L759 504M677 519L629 577M677 519L688 561M677 519L733 581M759 504L844 501M759 504L688 561M759 504L733 581M844 501L881 481M844 501L845 585M844 501L913 575M965 556L1043 545M965 556L913 575M965 556L1015 634M1043 545L1015 634M1043 545L1099 571M1167 498L1241 501M1167 498L1099 571M1167 498L1193 604M1241 501L1276 588M1329 542L1370 535M1329 542L1276 588M1329 542L1315 583M1329 542L1415 567M1370 535L1315 583M1370 535L1415 567M1501 516L1590 544M1501 516L1415 567M1501 516L1490 581M1590 544L1652 500M1590 544L1490 581M1590 544L1584 613M1590 544L1619 584M1652 500L1694 505M1652 500L1619 584M1694 505L1619 584M1694 505L1723 624M1832 488L1905 542M1832 488L1923 515M1905 542L1923 515M1905 542L1906 610M1905 542L1933 637M1923 515L1906 610M2063 552L2089 510M2063 552L2041 637M2063 552L2120 578M2063 552L1997 641M2089 510L2120 578M2214 480L2279 530M2214 480L2199 563M2279 530L2325 549M2279 530L2199 563M2325 549L2317 628M2325 549L2347 611M2325 549L2275 647M2451 484L2507 555M2507 555L2470 623M2507 555L2536 607M42 637L113 631M42 637L-24 607M42 637L54 652M42 637L144 651M2602 637L2536 607M113 631L198 639M113 631L54 652M113 631L144 651M113 631L230 649M198 639L269 628M198 639L144 651M198 639L230 649M269 628L230 649M269 628L319 677M269 628L343 683M390 635L476 583M390 635L319 677M390 635L343 683M390 635L404 691M476 583L545 625M476 583L531 663M545 625L629 577M545 625L531 663M545 625L600 654M629 577L688 561M629 577L600 654M688 561L733 581M733 581L845 585M845 585L913 575M845 585L875 663M913 575L875 663M1015 634L957 684M1015 634L960 655M1099 571L1193 604M1193 604L1276 588M1193 604L1193 666M1193 604L1263 713M1276 588L1315 583M1276 588L1193 666M1315 583L1415 567M1415 567L1490 581M1490 581L1584 613M1584 613L1619 584M1584 613L1579 683M1619 584L1680 669M1723 624L1813 626M1723 624L1680 669M1723 624L1710 687M1813 626L1906 610M1813 626L1812 707M1813 626L1889 661M1813 626L1839 725M1906 610L1933 637M1906 610L1889 661M1933 637L2041 637M1933 637L1889 661M1933 637L1997 641M2041 637L2120 578M2041 637L1997 641M2041 637L2019 715M2120 578L2199 563M2120 578L2146 677M2317 628L2347 611M2317 628L2229 687M2317 628L2275 647M2317 628L2361 665M2347 611L2275 647M2347 611L2361 665M2470 623L2536 607M2470 623L2474 701M2536 607L2614 652M-24 607L54 652M54 652L144 651M54 652L30 753M144 651L230 649M230 649L319 677M319 677L343 683M319 677L404 691M343 683L404 691M343 683L330 771M404 691L416 793M404 691L495 739M531 663L600 654M531 663L495 739M600 654L658 716M600 654L628 750M658 716L628 750M658 716L707 797M658 716L745 729M658 716L635 830M776 704L745 729M776 704L820 761M875 663L957 684M875 663L960 655M875 663L928 742M957 684L960 655M957 684L928 742M957 684L1014 732M960 655L928 742M960 655L1014 732M1058 711L1014 732M1058 711L1046 739M1058 711L1141 788M1193 666L1263 713M1263 713L1339 711M1263 713L1258 769M1263 713L1321 750M1339 711L1429 701M1339 711L1258 769M1339 711L1321 750M1339 711L1421 734M1429 701L1443 705M1429 701L1421 734M1429 701L1475 778M1443 705L1421 734M1443 705L1475 778M1443 705L1526 769M1579 683L1526 769M1579 683L1653 741M1680 669L1710 687M1680 669L1653 741M1680 669L1717 760M1710 687L1812 707M1710 687L1653 741M1710 687L1717 760M1812 707L1889 661M1812 707L1839 725M1812 707L1904 765M1889 661L1839 725M1997 641L2019 715M2019 715L1988 796M2019 715L2073 757M2146 677L2229 687M2146 677L2073 757M2146 677L2201 757M2229 687L2275 647M2229 687L2201 757M2229 687L2297 760M2275 647L2361 665M2361 665L2474 701M2361 665L2376 778M2474 701L2529 720M2474 701L2429 785M2474 701L2505 738M2529 720L2590 753M2529 720L2505 738M-31 720L30 753M30 753L102 794M30 753L-55 738M30 753L50 817M2590 753L2505 738M102 794L188 752M102 794L50 817M102 794L102 814M102 794L142 887M188 752L255 754M188 752L196 869M188 752L275 809M255 754L330 771M255 754L275 809M255 754L324 836M330 771L416 793M330 771L275 809M330 771L324 836M416 793L495 739M416 793L324 836M416 793L456 807M495 739L456 807M628 750L635 830M707 797L745 729M707 797L635 830M707 797L702 855M707 797L779 857M745 729L820 761M820 761L850 845M928 742L1014 732M928 742L910 812M1014 732L1046 739M1046 739L1141 788M1141 788L1065 879M1141 788L1176 806M1258 769L1321 750M1258 769L1176 806M1258 769L1232 859M1321 750L1376 829M1421 734L1475 778M1421 734L1526 769M1475 778L1526 769M1475 778L1445 840M1526 769L1593 840M1653 741L1717 760M1653 741L1635 844M1717 760L1710 831M1839 725L1904 765M1904 765L1988 796M1904 765L1904 857M1904 765L1931 877M1988 796L2073 757M1988 796L1904 857M1988 796L2032 846M2073 757L2124 799M2073 757L2083 817M2124 799L2201 757M2124 799L2032 846M2124 799L2083 817M2201 757L2297 760M2297 760L2376 778M2297 760L2264 855M2376 778L2429 785M2376 778L2325 854M2376 778L2423 849M2429 785L2505 738M2429 785L2423 849M2505 738L2532 853M50 817L102 814M50 817L-28 853M50 817L46 883M2610 817L2532 853M102 814L196 869M102 814L46 883M102 814L142 887M196 869L275 809M196 869L142 887M196 869L187 958M275 809L324 836M324 836L333 939M456 807L552 846M552 846L635 830M635 830L702 855M702 855L779 857M702 855L696 952M702 855L789 907M779 857L850 845M779 857L789 907M779 857L817 948M850 845L910 812M850 845L789 907M850 845L880 906M910 812L977 856M977 856L1065 879M977 856L961 906M977 856L1045 887M1065 879L1045 887M1176 806L1232 859M1232 859L1165 946M1232 859L1254 921M1347 871L1376 829M1347 871L1314 952M1347 871L1399 921M1347 871L1370 965M1376 829L1445 840M1376 829L1462 886M1445 840L1399 921M1445 840L1462 886M1593 840L1635 844M1593 840L1710 831M1593 840L1564 947M1593 840L1603 938M1635 844L1710 831M1635 844L1564 947M1635 844L1603 938M1710 831L1769 862M1769 862L1730 942M1769 862L1805 894M1904 857L1931 877M1904 857L1883 925M1904 857L1984 921M1931 877L1883 925M1931 877L1984 921M2032 846L2083 817M2032 846L1984 921M2032 846L2065 900M2083 817L2065 900M2083 817L2141 915M2229 869L2264 855M2229 869L2325 854M2229 869L2141 915M2229 869L2226 901M2229 869L2260 925M2264 855L2325 854M2264 855L2226 901M2264 855L2260 925M2325 854L2260 925M2325 854L2391 932M2423 849L2391 932M2423 849L2458 914M2423 849L2513 896M2532 853L2606 883M2532 853L2458 914M2532 853L2513 896M-28 853L46 883M46 883L-47 896M2606 883L2513 896M142 887L187 958M142 887L127 968M187 958L127 968M187 958L187 1005M187 958L268 979M308 943L333 939M308 943L268 979M308 943L329 980M308 943L313 1048M308 943L336 1059M333 939L268 979M333 939L329 980M333 939L313 1048M479 918L521 923M479 918L560 945M479 918L448 972M479 918L492 972M521 923L560 945M521 923L448 972M521 923L492 972M521 923L573 962M560 945L492 972M560 945L573 962M560 945L641 969M696 952L641 969M696 952L781 1020M789 907L817 948M817 948L880 906M817 948L781 1020M817 948L863 1001M880 906L961 906M880 906L907 966M961 906L1045 887M961 906L907 966M1045 887L1067 992M1165 946L1254 921M1165 946L1067 992M1165 946L1136 989M1165 946L1202 990M1254 921L1314 952M1254 921L1202 990M1254 921L1304 965M1314 952L1399 921M1314 952L1304 965M1314 952L1370 965M1399 921L1462 886M1399 921L1370 965M1564 947L1603 938M1564 947L1553 980M1564 947L1587 1055M1603 938L1553 980M1603 938L1705 976M1730 942L1805 894M1730 942L1677 1016M1730 942L1705 976M1730 942L1817 965M1805 894L1883 925M1805 894L1817 965M1883 925L1817 965M1883 925L1855 1021M1984 921L2065 900M1984 921L1995 977M2065 900L2141 915M2065 900L1995 977M2141 915L2226 901M2226 901L2260 925M2260 925L2233 1009M2391 932L2458 914M2391 932L2382 987M2391 932L2435 996M2458 914L2513 896M2458 914L2435 996M14 1014L-6 1015M14 1014L77 1077M14 1014L-51 1093M2574 1014L2554 1015M2574 1014L2509 1093M127 968L187 1005M127 968L111 1064M127 968L186 1055M187 1005L111 1064M187 1005L186 1055M268 979L329 980M268 979L313 1048M329 980L313 1048M329 980L336 1059M448 972L492 972M448 972L478 1068M492 972L573 962M573 962L641 969M573 962L582 1050M641 969L582 1050M781 1020L863 1001M781 1020L769 1115M863 1001L907 966M863 1001L969 1013M863 1001L912 1042M907 966L969 1013M907 966L912 1042M969 1013L1067 992M969 1013L912 1042M969 1013L1025 1076M1067 992L1136 989M1067 992L1025 1076M1136 989L1202 990M1202 990L1304 965M1202 990L1219 1087M1304 965L1370 965M1370 965L1423 1051M1490 1028L1553 980M1490 1028L1423 1051M1490 1028L1471 1061M1553 980L1471 1061M1553 980L1587 1055M1677 1016L1705 976M1677 1016L1587 1055M1677 1016L1650 1065M1677 1016L1735 1081M1705 976L1817 965M1705 976L1650 1065M1817 965L1855 1021M1855 1021L1818 1079M1855 1021L1876 1084M1855 1021L1943 1051M1995 977L2016 1029M1995 977L1943 1051M2016 1029L2126 1035M2016 1029L1943 1051M2016 1029L2058 1089M2126 1035L2058 1089M2126 1035L2136 1050M2126 1035L2209 1071M2126 1035L2096 1149M2233 1009L2298 1031M2233 1009L2136 1050M2233 1009L2209 1071M2298 1031L2382 987M2298 1031L2303 1100M2298 1031L2329 1070M2382 987L2435 996M2382 987L2329 1070M2435 996L2554 1015M2435 996L2436 1092M2554 1015L2637 1077M2554 1015L2509 1093M-6 1015L77 1077M77 1077L111 1064M77 1077L36 1154M77 1077L91 1126M111 1064L186 1055M111 1064L91 1126M186 1055L166 1149M313 1048L336 1059M478 1068L517 1086M517 1086L582 1050M517 1086L508 1163M517 1086L576 1153M582 1050L675 1100M582 1050L576 1153M675 1100L769 1115M675 1100L576 1153M675 1100L700 1165M769 1115L700 1165M769 1115L781 1139M873 1096L912 1042M873 1096L781 1139M873 1096L880 1136M873 1096L881 1180M912 1042L880 1136M1025 1076L1101 1114M1025 1076L1062 1138M1101 1114L1192 1113M1101 1114L1062 1138M1101 1114L1124 1146M1192 1113L1219 1087M1192 1113L1288 1087M1192 1113L1124 1146M1192 1113L1243 1128M1219 1087L1288 1087M1219 1087L1124 1146M1219 1087L1243 1128M1288 1087L1243 1128M1288 1087L1348 1174M1288 1087L1381 1155M1423 1051L1471 1061M1423 1051L1381 1155M1471 1061L1575 1125M1587 1055L1650 1065M1587 1055L1575 1125M1650 1065L1735 1081M1650 1065L1575 1125M1735 1081L1818 1079M1818 1079L1876 1084M1876 1084L1943 1051M1876 1084L1856 1188M2058 1089L2136 1050M2058 1089L2002 1187M2058 1089L2096 1149M2136 1050L2209 1071M2136 1050L2096 1149M2209 1071L2303 1100M2209 1071L2227 1129M2303 1100L2329 1070M2303 1100L2227 1129M2303 1100L2380 1170M2329 1070L2436 1092M2329 1070L2380 1170M2436 1092L2509 1093M2436 1092L2380 1170M2436 1092L2463 1120M2509 1093L2463 1120M2509 1093L2540 1168M36 1154L91 1126M36 1154L-20 1168M36 1154L125 1217M2596 1154L2540 1168M91 1126L166 1149M91 1126L125 1217M166 1149L262 1190M166 1149L125 1217M166 1149L255 1208M262 1190L324 1186M262 1190L228 1258M262 1190L255 1208M324 1186L419 1168M324 1186L255 1208M419 1168L508 1163M419 1168L390 1266M419 1168L447 1257M419 1168L488 1203M508 1163L576 1153M508 1163L488 1203M576 1153L488 1203M700 1165L781 1139M700 1165L709 1250M781 1139L880 1136M781 1139L881 1180M880 1136L881 1180M880 1136L888 1241M881 1180L969 1187M881 1180L888 1241M969 1187L996 1207M1062 1138L1124 1146M1062 1138L996 1207M1062 1138L1058 1231M1124 1146L1153 1228M1243 1128L1259 1216M1348 1174L1381 1155M1348 1174L1259 1216M1381 1155L1426 1265M1518 1185L1575 1125M1518 1185L1614 1157M1518 1185L1426 1265M1518 1185L1504 1277M1518 1185L1585 1272M1575 1125L1614 1157M1614 1157L1721 1192M1614 1157L1676 1215M1721 1192L1791 1183M1721 1192L1676 1215M1721 1192L1745 1275M1791 1183L1856 1188M1791 1183L1745 1275M1791 1183L1793 1271M1791 1183L1875 1230M1856 1188L1959 1196M1856 1188L1875 1230M1959 1196L2002 1187M1959 1196L1928 1260M1959 1196L2010 1276M2002 1187L2096 1149M2002 1187L2010 1276M2096 1149L2100 1230M2227 1129L2240 1193M2227 1129L2265 1226M2240 1193L2188 1274M2240 1193L2265 1226M2240 1193L2363 1210M2240 1193L2242 1289M2380 1170L2463 1120M2380 1170L2363 1210M2463 1120L2540 1168M2540 1168L2470 1259M2540 1168L2557 1254M69 1249L125 1217M69 1249L-3 1254M69 1249L25 1330M2629 1249L2557 1254M125 1217L145 1334M228 1258L255 1208M228 1258L198 1342M228 1258L294 1309M390 1266L447 1257M390 1266L369 1306M390 1266L465 1288M447 1257L488 1203M447 1257L465 1288M447 1257L501 1290M488 1203L501 1290M593 1276L501 1290M593 1276L638 1360M709 1250L732 1276M732 1276L829 1280M732 1276L710 1335M732 1276L764 1325M829 1280L888 1241M829 1280L764 1325M829 1280L830 1324M888 1241L955 1291M888 1241L973 1281M996 1207L1058 1231M996 1207L955 1291M996 1207L973 1281M1058 1231L1153 1228M1058 1231L1054 1309M1153 1228L1225 1288M1259 1216L1319 1266M1259 1216L1225 1288M1259 1216L1318 1314M1319 1266L1225 1288M1319 1266L1318 1314M1426 1265L1504 1277M1426 1265L1364 1354M1426 1265L1440 1358M1504 1277L1585 1272M1504 1277L1440 1358M1504 1277L1554 1322M1585 1272L1676 1215M1585 1272L1554 1322M1585 1272L1601 1354M1745 1275L1793 1271M1745 1275L1701 1331M1745 1275L1806 1337M1793 1271L1875 1230M1793 1271L1806 1337M1793 1271L1850 1306M1875 1230L1928 1260M1875 1230L1850 1306M1928 1260L2010 1276M1928 1260L1850 1306M1928 1260L1985 1331M2010 1276L1985 1331M2010 1276L2050 1313M2100 1230L2117 1313M2188 1274L2265 1226M2188 1274L2117 1313M2188 1274L2166 1343M2188 1274L2242 1289M2265 1226L2363 1210M2265 1226L2242 1289M2363 1210L2418 1287M2470 1259L2557 1254M2470 1259L2399 1322M2470 1259L2418 1287M2557 1254L2585 1330M2557 1254L2559 1355M-3 1254L25 1330M25 1330L-1 1355M25 1330L64 1366M25 1330L-18 1387M2585 1330L2559 1355M2585 1330L2542 1387M145 1334L198 1342M145 1334L64 1366M145 1334L147 1405M145 1334L233 1385M198 1342L294 1309M198 1342L147 1405M198 1342L233 1385M294 1309L369 1306M294 1309L233 1385M294 1309L302 1401M369 1306L465 1288M465 1288L501 1290M501 1290L484 1406M638 1360L710 1335M638 1360L596 1400M638 1360L652 1392M710 1335L764 1325M710 1335L652 1392M710 1335L749 1372M764 1325L830 1324M764 1325L749 1372M830 1324L803 1395M955 1291L973 1281M955 1291L1054 1309M955 1291L951 1367M973 1281L1054 1309M973 1281L951 1367M1054 1309L951 1367M1054 1309L1025 1360M1200 1350L1225 1288M1200 1350L1177 1432M1200 1350L1254 1411M1225 1288L1318 1314M1318 1314L1364 1354M1318 1314L1335 1407M1364 1354L1440 1358M1364 1354L1335 1407M1364 1354L1381 1407M1440 1358L1381 1407M1440 1358L1457 1417M1554 1322L1601 1354M1554 1322L1537 1425M1601 1354L1701 1331M1601 1354L1537 1425M1601 1354L1646 1424M1701 1331L1732 1403M1806 1337L1850 1306M1806 1337L1824 1431M1985 1331L2050 1313M1985 1331L1973 1387M1985 1331L2019 1387M2050 1313L2117 1313M2050 1313L1973 1387M2050 1313L2019 1387M2117 1313L2166 1343M2117 1313L2197 1379M2166 1343L2242 1289M2166 1343L2197 1379M2242 1289L2197 1379M2399 1322L2418 1287M2399 1322L2450 1423M2559 1355L2624 1366M2559 1355L2542 1387M-1 1355L64 1366M64 1366L147 1405M64 1366L-18 1387M2624 1366L2542 1387M147 1405L233 1385M233 1385L302 1401M302 1401L342 1432M342 1432L454 1428M454 1428L484 1406M596 1400L652 1392M652 1392L749 1372M749 1372L803 1395M951 1367L1025 1360M1025 1360L1107 1431M1107 1431L1177 1432M1177 1432L1254 1411M1254 1411L1335 1407M1335 1407L1381 1407M1381 1407L1457 1417M1457 1417L1537 1425M1646 1424L1732 1403M1732 1403L1824 1431M1824 1431L1887 1437M1887 1437L1973 1387M1973 1387L2019 1387M2125 1439L2197 1379M2314 1439L2323 1432M2450 1423L2542 1387"/></svg>