<svg xmlns="http://www.w3.org/2000/svg" width="2560" height="1440" fill="#fff"><circle cx="16" cy="64" r="5"/><circle cx="82" cy="23" r="4"/><circle cx="164" cy="6" r="4"/><circle cx="273" cy="37" r="4"/><circle cx="324" cy="69" r="6"/><circle cx="441" cy="55" r="6"/><circle cx="490" cy="57" r="5"/><circle cx="584" cy="16" r="5"/><circle cx="682" cy="1" r="4"/><circle cx="682" cy="1441" r="4"/><circle cx="722" cy="12" r="4"/><circle cx="861" cy="64" r="5"/><circle cx="937" cy="12" r="6"/><circle cx="1038" cy="51" r="4"/><circle cx="1060" cy="16" r="5"/><circle cx="1152" cy="4" r="6"/><circle cx="1152" cy="1444" r="6"/><circle cx="1200" cy="63" r="6"/><circle cx="1284" cy="65" r="6"/><circle cx="1434" cy="23" r="5"/><circle cx="1485" cy="53" r="5"/><circle cx="1575" cy="44" r="5"/><circle cx="1609" cy="63" r="6"/><circle cx="1744" cy="8" r="5"/><circle cx="1815" cy="46" r="6"/><circle cx="1842" cy="41" r="5"/><circle cx="1992" cy="25" r="5"/><circle cx="2040" cy="56" r="4"/><circle cx="2132" cy="57" r="6"/><circle cx="2196" cy="59" r="4"/><circle cx="2252" cy="19" r="6"/><circle cx="2343" cy="20" r="6"/><circle cx="2401" cy="29" r="5"/><circle cx="2527" cy="13" r="5"/><circle cx="44" cy="142" r="4"/><circle cx="90" cy="149" r="5"/><circle cx="220" cy="98" r="5"/><circle cx="246" cy="85" r="6"/><circle cx="329" cy="113" r="4"/><circle cx="447" cy="96" r="6"/><circle cx="502" cy="92" r="5"/><circle cx="578" cy="97" r="5"/><circle cx="705" cy="101" r="4"/><circle cx="781" cy="86" r="4"/><circle cx="822" cy="116" r="5"/><circle cx="915" cy="113" r="5"/><circle cx="1034" cy="134" r="5"/><circle cx="1111" cy="91" r="5"/><circle cx="1166" cy="92" r="5"/><circle cx="1234" cy="151" r="6"/><circle cx="1292" cy="150" r="5"/><circle cx="1428" cy="99" r="5"/><circle cx="1477" cy="115" r="6"/><circle cx="1580" cy="102" r="6"/><circle cx="1646" cy="89" r="5"/><circle cx="1758" cy="88" r="6"/><circle cx="1780" cy="103" r="5"/><circle cx="1845" cy="157" r="5"/><circle cx="1928" cy="127" r="6"/><circle cx="2067" cy="127" r="6"/><circle cx="2128" cy="136" r="5"/><circle cx="2217" cy="125" r="5"/><circle cx="2267" cy="127" r="5"/><circle cx="2344" cy="135" r="5"/><circle cx="2434" cy="98" r="5"/><circle cx="2544" cy="133" r="5"/><circle cx="73" cy="196" r="6"/><circle cx="101" cy="205" r="5"/><circle cx="195" cy="187" r="5"/><circle cx="274" cy="162" r="5"/><circle cx="384" cy="222" r="4"/><circle cx="427" cy="191" r="5"/><circle cx="514" cy="166" r="5"/><circle cx="632" cy="189" r="4"/><circle cx="653" cy="225" r="4"/><circle cx="791" cy="211" r="4"/><circle cx="828" cy="175" r="5"/><circle cx="913" cy="201" r="5"/><circle cx="973" cy="214" r="4"/><circle cx="1045" cy="232" r="5"/><circle cx="1178" cy="205" r="6"/><circle cx="1273" cy="235" r="4"/><circle cx="1314" cy="178" r="5"/><circle cx="1439" cy="169" r="6"/><circle cx="1487" cy="186" r="5"/><circle cx="1587" cy="204" r="5"/><circle cx="1640" cy="227" r="6"/><circle cx="1751" cy="235" r="5"/><circle cx="1837" cy="178" r="5"/><circle cx="1863" cy="217" r="5"/><circle cx="1957" cy="210" r="4"/><circle cx="2047" cy="240" r="4"/><circle cx="2094" cy="232" r="5"/><circle cx="2183" cy="208" r="4"/><circle cx="2310" cy="162" r="4"/><circle cx="2338" cy="235" r="5"/><circle cx="2414" cy="232" r="5"/><circle cx="2509" cy="216" r="5"/><circle cx="32" cy="268" r="5"/><circle cx="142" cy="242" r="6"/><circle cx="199" cy="267" r="4"/><circle cx="249" cy="277" r="5"/><circle cx="398" cy="284" r="6"/><circle cx="472" cy="300" r="6"/><circle cx="556" cy="246" r="6"/><circle cx="605" cy="320" r="4"/><circle cx="691" cy="296" r="4"/><circle cx="799" cy="317" r="6"/><circle cx="842" cy="253" r="5"/><circle cx="925" cy="243" r="4"/><circle cx="996" cy="269" r="5"/><circle cx="1112" cy="266" r="5"/><circle cx="1128" cy="261" r="6"/><circle cx="1244" cy="296" r="5"/><circle cx="1309" cy="302" r="5"/><circle cx="1434" cy="281" r="6"/><circle cx="1519" cy="287" r="5"/><circle cx="1571" cy="255" r="6"/><circle cx="1600" cy="261" r="5"/><circle cx="1752" cy="265" r="5"/><circle cx="1804" cy="299" r="6"/><circle cx="1864" cy="274" r="5"/><circle cx="1997" cy="283" r="4"/><circle cx="2019" cy="242" r="5"/><circle cx="2123" cy="313" r="5"/><circle cx="2175" cy="255" r="5"/><circle cx="2278" cy="283" r="5"/><circle cx="2352" cy="242" r="5"/><circle cx="2422" cy="319" r="4"/><circle cx="2547" cy="318" r="6"/><circle cx="73" cy="393" r="4"/><circle cx="141" cy="331" r="5"/><circle cx="172" cy="334" r="6"/><circle cx="259" cy="389" r="6"/><circle cx="394" cy="320" r="4"/><circle cx="427" cy="367" r="5"/><circle cx="533" cy="338" r="5"/><circle cx="587" cy="385" r="4"/><circle cx="673" cy="387" r="6"/><circle cx="743" cy="379" r="5"/><circle cx="823" cy="343" r="4"/><circle cx="920" cy="349" r="6"/><circle cx="1003" cy="382" r="5"/><circle cx="1074" cy="320" r="4"/><circle cx="1190" cy="397" r="6"/><circle cx="1226" cy="387" r="5"/><circle cx="1333" cy="360" r="6"/><circle cx="1391" cy="352" r="6"/><circle cx="1492" cy="338" r="5"/><circle cx="1544" cy="364" r="4"/><circle cx="1605" cy="346" r="4"/><circle cx="1725" cy="357" r="4"/><circle cx="1772" cy="400" r="4"/><circle cx="1903" cy="340" r="6"/><circle cx="1967" cy="390" r="6"/><circle cx="2011" cy="399" r="5"/><circle cx="2108" cy="382" r="5"/><circle cx="2237" cy="362" r="6"/><circle cx="2306" cy="397" r="5"/><circle cx="2386" cy="386" r="4"/><circle cx="2445" cy="328" r="4"/><circle cx="2492" cy="352" r="5"/><circle cx="9" cy="479" r="4"/><circle cx="121" cy="428" r="4"/><circle cx="182" cy="442" r="4"/><circle cx="256" cy="401" r="4"/><circle cx="373" cy="448" r="5"/><circle cx="405" cy="431" r="5"/><circle cx="495" cy="439" r="5"/><circle cx="608" cy="455" r="5"/><circle cx="710" cy="459" r="6"/><circle cx="755" cy="414" r="5"/><circle cx="818" cy="419" r="4"/><circle cx="902" cy="421" r="5"/><circle cx="1037" cy="459" r="5"/><circle cx="1059" cy="450" r="6"/><circle cx="1137" cy="401" r="5"/><circle cx="1257" cy="415" r="4"/><circle cx="1332" cy="449" r="5"/><circle cx="1398" cy="442" r="4"/><circle cx="1503" cy="410" r="5"/><circle cx="1587" cy="433" r="5"/><circle cx="1630" cy="413" r="6"/><circle cx="1707" cy="434" r="5"/><circle cx="1765" cy="466" r="5"/><circle cx="1892" cy="428" r="4"/><circle cx="1925" cy="444" r="5"/><circle cx="2026" cy="456" r="5"/><circle cx="2122" cy="418" r="5"/><circle cx="2224" cy="433" r="5"/><circle cx="2316" cy="457" r="5"/><circle cx="2373" cy="435" r="5"/><circle cx="2472" cy="448" r="6"/><circle cx="2486" cy="435" r="4"/><circle cx="75" cy="521" r="5"/><circle cx="141" cy="531" r="5"/><circle cx="229" cy="558" r="6"/><circle cx="281" cy="534" r="4"/><circle cx="329" cy="506" r="4"/><circle cx="440" cy="548" r="5"/><circle cx="496" cy="488" r="4"/><circle cx="591" cy="549" r="5"/><circle cx="695" cy="492" r="4"/><circle cx="799" cy="542" r="4"/><circle cx="811" cy="484" r="5"/><circle cx="923" cy="487" r="4"/><circle cx="981" cy="497" r="6"/><circle cx="1056" cy="481" r="5"/><circle cx="1195" cy="491" r="6"/><circle cx="1254" cy="533" r="4"/><circle cx="1299" cy="551" r="6"/><circle cx="1412" cy="482" r="5"/><circle cx="1485" cy="493" r="6"/><circle cx="1527" cy="542" r="5"/><circle cx="1643" cy="551" r="5"/><circle cx="1745" cy="516" r="4"/><circle cx="1801" cy="516" r="6"/><circle cx="1895" cy="507" r="4"/><circle cx="1983" cy="510" r="6"/><circle cx="2077" cy="487" r="5"/><circle cx="2160" cy="557" r="6"/><circle cx="2194" cy="501" r="6"/><circle cx="2251" cy="486" r="4"/><circle cx="2383" cy="495" r="5"/><circle cx="2463" cy="490" r="6"/><circle cx="2497" cy="537" r="5"/><circle cx="0" cy="586" r="4"/><circle cx="2560" cy="586" r="4"/><circle cx="97" cy="618" r="5"/><circle cx="229" cy="584" r="5"/><circle cx="285" cy="597" r="5"/><circle cx="366" cy="615" r="5"/><circle cx="451" cy="582" r="5"/><circle cx="515" cy="588" r="5"/><circle cx="635" cy="639" r="6"/><circle cx="705" cy="597" r="5"/><circle cx="789" cy="639" r="6"/><circle cx="829" cy="582" r="5"/><circle cx="952" cy="572" r="5"/><circle cx="1030" cy="627" r="5"/><circle cx="1092" cy="605" r="6"/><circle cx="1181" cy="580" r="6"/><circle cx="1278" cy="629" r="4"/><circle cx="1359" cy="628" r="6"/><circle cx="1393" cy="570" r="5"/><circle cx="1465" cy="639" r="6"/><circle cx="1575" cy="568" r="6"/><circle cx="1642" cy="604" r="4"/><circle cx="1758" cy="564" r="4"/><circle cx="1786" cy="584" r="5"/><circle cx="1862" cy="597" r="4"/><circle cx="1954" cy="562" r="6"/><circle cx="2031" cy="568" r="6"/><circle cx="2103" cy="629" r="4"/><circle cx="2171" cy="613" r="5"/><circle cx="2258" cy="578" r="5"/><circle cx="2349" cy="570" r="5"/><circle cx="2408" cy="569" r="5"/><circle cx="2480" cy="584" r="5"/><circle cx="25" cy="698" r="5"/><circle cx="87" cy="672" r="4"/><circle cx="171" cy="673" r="5"/><circle cx="268" cy="719" r="4"/><circle cx="321" cy="658" r="5"/><circle cx="462" cy="652" r="4"/><circle cx="531" cy="640" r="6"/><circle cx="561" cy="673" r="5"/><circle cx="650" cy="706" r="4"/><circle cx="772" cy="716" r="5"/><circle cx="831" cy="706" r="4"/><circle cx="921" cy="702" r="5"/><circle cx="1026" cy="664" r="4"/><circle cx="1058" cy="649" r="5"/><circle cx="1150" cy="659" r="6"/><circle cx="1205" cy="657" r="4"/><circle cx="1327" cy="679" r="6"/><circle cx="1412" cy="685" r="4"/><circle cx="1458" cy="685" r="6"/><circle cx="1553" cy="673" r="5"/><circle cx="1617" cy="719" r="4"/><circle cx="1694" cy="677" r="4"/><circle cx="1765" cy="664" r="4"/><circle cx="1879" cy="673" r="6"/><circle cx="1937" cy="641" r="4"/><circle cx="2034" cy="683" r="4"/><circle cx="2158" cy="655" r="4"/><circle cx="2196" cy="677" r="5"/><circle cx="2313" cy="693" r="5"/><circle cx="2342" cy="701" r="4"/><circle cx="2432" cy="674" r="5"/><circle cx="2480" cy="690" r="5"/><circle cx="49" cy="769" r="6"/><circle cx="87" cy="751" r="5"/><circle cx="164" cy="792" r="5"/><circle cx="271" cy="782" r="4"/><circle cx="356" cy="785" r="5"/><circle cx="477" cy="796" r="5"/><circle cx="554" cy="737" r="5"/><circle cx="568" cy="734" r="5"/><circle cx="680" cy="726" r="5"/><circle cx="735" cy="743" r="4"/><circle cx="817" cy="778" r="5"/><circle cx="880" cy="726" r="4"/><circle cx="1021" cy="755" r="5"/><circle cx="1068" cy="798" r="5"/><circle cx="1169" cy="799" r="4"/><circle cx="1262" cy="753" r="4"/><circle cx="1338" cy="728" r="4"/><circle cx="1390" cy="769" r="5"/><circle cx="1483" cy="724" r="5"/><circle cx="1569" cy="767" r="5"/><circle cx="1660" cy="778" r="5"/><circle cx="1692" cy="743" r="4"/><circle cx="1822" cy="795" r="6"/><circle cx="1906" cy="774" r="5"/><circle cx="1936" cy="788" r="4"/><circle cx="2049" cy="764" r="5"/><circle cx="2147" cy="752" r="5"/><circle cx="2166" cy="722" r="5"/><circle cx="2243" cy="781" r="4"/><circle cx="2349" cy="781" r="4"/><circle cx="2423" cy="773" r="4"/><circle cx="2536" cy="748" r="6"/><circle cx="75" cy="833" r="5"/><circle cx="121" cy="809" r="4"/><circle cx="194" cy="809" r="5"/><circle cx="262" cy="828" r="4"/><circle cx="369" cy="870" r="4"/><circle cx="439" cy="874" r="6"/><circle cx="517" cy="836" r="4"/><circle cx="600" cy="866" r="6"/><circle cx="706" cy="875" r="4"/><circle cx="768" cy="870" r="5"/><circle cx="831" cy="857" r="5"/><circle cx="884" cy="801" r="5"/><circle cx="1027" cy="847" r="6"/><circle cx="1082" cy="832" r="5"/><circle cx="1159" cy="819" r="5"/><circle cx="1264" cy="824" r="5"/><circle cx="1323" cy="859" r="5"/><circle cx="1415" cy="872" r="5"/><circle cx="1508" cy="863" r="5"/><circle cx="1554" cy="856" r="6"/><circle cx="1680" cy="826" r="4"/><circle cx="1716" cy="867" r="4"/><circle cx="1830" cy="844" r="4"/><circle cx="1843" cy="827" r="5"/><circle cx="1922" cy="836" r="5"/><circle cx="2016" cy="821" r="5"/><circle cx="2115" cy="866" r="5"/><circle cx="2181" cy="864" r="4"/><circle cx="2277" cy="827" r="4"/><circle cx="2339" cy="878" r="6"/><circle cx="2420" cy="844" r="5"/><circle cx="2507" cy="859" r="6"/><circle cx="68" cy="891" r="5"/><circle cx="135" cy="957" r="6"/><circle cx="214" cy="908" r="6"/><circle cx="308" cy="923" r="4"/><circle cx="321" cy="947" r="5"/><circle cx="476" cy="940" r="5"/><circle cx="537" cy="892" r="5"/><circle cx="625" cy="939" r="6"/><circle cx="719" cy="918" r="6"/><circle cx="786" cy="883" r="5"/><circle cx="835" cy="949" r="4"/><circle cx="908" cy="893" r="5"/><circle cx="1020" cy="920" r="5"/><circle cx="1092" cy="944" r="4"/><circle cx="1136" cy="914" r="6"/><circle cx="1201" cy="894" r="4"/><circle cx="1309" cy="953" r="6"/><circle cx="1366" cy="891" r="6"/><circle cx="1508" cy="955" r="6"/><circle cx="1557" cy="944" r="5"/><circle cx="1657" cy="882" r="5"/><circle cx="1702" cy="923" r="5"/><circle cx="1804" cy="918" r="6"/><circle cx="1873" cy="931" r="5"/><circle cx="1940" cy="921" r="6"/><circle cx="2017" cy="945" r="4"/><circle cx="2094" cy="951" r="5"/><circle cx="2187" cy="931" r="5"/><circle cx="2316" cy="919" r="6"/><circle cx="2346" cy="956" r="5"/><circle cx="2418" cy="923" r="4"/><circle cx="2536" cy="924" r="6"/><circle cx="61" cy="1036" r="6"/><circle cx="145" cy="990" r="5"/><circle cx="171" cy="1015" r="5"/><circle cx="278" cy="989" r="5"/><circle cx="329" cy="1016" r="4"/><circle cx="412" cy="1009" r="4"/><circle cx="505" cy="968" r="4"/><circle cx="594" cy="972" r="6"/><circle cx="704" cy="970" r="6"/><circle cx="792" cy="962" r="4"/><circle cx="807" cy="1012" r="4"/><circle cx="952" cy="984" r="5"/><circle cx="1039" cy="978" r="6"/><circle cx="1056" cy="977" r="6"/><circle cx="1183" cy="983" r="6"/><circle cx="1212" cy="1016" r="4"/><circle cx="1308" cy="985" r="4"/><circle cx="1440" cy="980" r="6"/><circle cx="1454" cy="1022" r="5"/><circle cx="1577" cy="982" r="6"/><circle cx="1650" cy="1000" r="5"/><circle cx="1696" cy="1015" r="5"/><circle cx="1800" cy="961" r="4"/><circle cx="1854" cy="965" r="5"/><circle cx="1990" cy="1026" r="5"/><circle cx="2075" cy="981" r="5"/><circle cx="2118" cy="1026" r="6"/><circle cx="2232" cy="988" r="6"/><circle cx="2282" cy="1007" r="6"/><circle cx="2379" cy="988" r="5"/><circle cx="2409" cy="984" r="6"/><circle cx="2547" cy="988" r="5"/><circle cx="23" cy="1053" r="6"/><circle cx="118" cy="1065" r="6"/><circle cx="183" cy="1059" r="4"/><circle cx="291" cy="1054" r="4"/><circle cx="328" cy="1047" r="5"/><circle cx="415" cy="1104" r="6"/><circle cx="520" cy="1085" r="4"/><circle cx="625" cy="1067" r="5"/><circle cx="702" cy="1046" r="5"/><circle cx="738" cy="1103" r="5"/><circle cx="813" cy="1119" r="5"/><circle cx="883" cy="1107" r="5"/><circle cx="981" cy="1063" r="6"/><circle cx="1114" cy="1073" r="5"/><circle cx="1182" cy="1117" r="4"/><circle cx="1225" cy="1111" r="4"/><circle cx="1318" cy="1084" r="4"/><circle cx="1390" cy="1072" r="6"/><circle cx="1480" cy="1054" r="4"/><circle cx="1599" cy="1067" r="5"/><circle cx="1626" cy="1092" r="4"/><circle cx="1704" cy="1046" r="6"/><circle cx="1778" cy="1082" r="5"/><circle cx="1865" cy="1072" r="5"/><circle cx="1945" cy="1070" r="5"/><circle cx="2061" cy="1110" r="5"/><circle cx="2124" cy="1043" r="5"/><circle cx="2161" cy="1050" r="5"/><circle cx="2258" cy="1078" r="4"/><circle cx="2357" cy="1091" r="5"/><circle cx="2477" cy="1071" r="6"/><circle cx="2515" cy="1097" r="4"/><circle cx="11" cy="1159" r="4"/><circle cx="158" cy="1195" r="6"/><circle cx="188" cy="1129" r="4"/><circle cx="269" cy="1140" r="6"/><circle cx="343" cy="1154" r="5"/><circle cx="456" cy="1160" r="5"/><circle cx="554" cy="1125" r="4"/><circle cx="619" cy="1161" r="4"/><circle cx="697" cy="1172" r="5"/><circle cx="750" cy="1162" r="5"/><circle cx="818" cy="1166" r="4"/><circle cx="938" cy="1131" r="5"/><circle cx="994" cy="1179" r="5"/><circle cx="1118" cy="1130" r="4"/><circle cx="1180" cy="1153" r="4"/><circle cx="1250" cy="1194" r="6"/><circle cx="1341" cy="1177" r="5"/><circle cx="1400" cy="1125" r="5"/><circle cx="1466" cy="1151" r="4"/><circle cx="1586" cy="1175" r="6"/><circle cx="1675" cy="1142" r="4"/><circle cx="1721" cy="1135" r="6"/><circle cx="1836" cy="1173" r="6"/><circle cx="1898" cy="1177" r="6"/><circle cx="1994" cy="1187" r="4"/><circle cx="2061" cy="1178" r="5"/><circle cx="2102" cy="1178" r="4"/><circle cx="2190" cy="1130" r="5"/><circle cx="2286" cy="1140" r="5"/><circle cx="2352" cy="1163" r="6"/><circle cx="2445" cy="1133" r="5"/><circle cx="2558" cy="1136" r="5"/><circle cx="-2" cy="1136" r="5"/><circle cx="34" cy="1257" r="4"/><circle cx="122" cy="1260" r="4"/><circle cx="203" cy="1248" r="5"/><circle cx="263" cy="1266" r="6"/><circle cx="377" cy="1218" r="6"/><circle cx="456" cy="1239" r="5"/><circle cx="547" cy="1234" r="4"/><circle cx="629" cy="1207" r="5"/><circle cx="706" cy="1233" r="5"/><circle cx="778" cy="1275" r="4"/><circle cx="850" cy="1255" r="5"/><circle cx="923" cy="1279" r="5"/><circle cx="1019" cy="1273" r="4"/><circle cx="1040" cy="1211" r="5"/><circle cx="1121" cy="1250" r="6"/><circle cx="1273" cy="1258" r="5"/><circle cx="1343" cy="1267" r="6"/><circle cx="1412" cy="1269" r="5"/><circle cx="1443" cy="1268" r="4"/><circle cx="1540" cy="1217" r="5"/><circle cx="1638" cy="1264" r="6"/><circle cx="1747" cy="1243" r="5"/><circle cx="1813" cy="1248" r="6"/><circle cx="1865" cy="1218" r="5"/><circle cx="1968" cy="1226" r="5"/><circle cx="2021" cy="1277" r="5"/><circle cx="2151" cy="1236" r="4"/><circle cx="2178" cy="1242" r="6"/><circle cx="2251" cy="1237" r="5"/><circle cx="2346" cy="1267" r="6"/><circle cx="2466" cy="1226" r="4"/><circle cx="2515" cy="1219" r="6"/><circle cx="72" cy="1304" r="4"/><circle cx="90" cy="1289" r="5"/><circle cx="173" cy="1341" r="5"/><circle cx="273" cy="1317" r="6"/><circle cx="359" cy="1360" r="6"/><circle cx="411" cy="1343" r="4"/><circle cx="534" cy="1282" r="4"/><circle cx="582" cy="1360" r="5"/><circle cx="662" cy="1287" r="5"/><circle cx="788" cy="1284" r="6"/><circle cx="823" cy="1287" r="5"/><circle cx="888" cy="1298" r="4"/><circle cx="967" cy="1339" r="5"/><circle cx="1096" cy="1295" r="5"/><circle cx="1151" cy="1317" r="6"/><circle cx="1236" cy="1283" r="5"/><circle cx="1331" cy="1306" r="5"/><circle cx="1435" cy="1294" r="6"/><circle cx="1455" cy="1313" r="6"/><circle cx="1598" cy="1319" r="4"/><circle cx="1634" cy="1288" r="5"/><circle cx="1707" cy="1336" r="4"/><circle cx="1814" cy="1318" r="5"/><circle cx="1865" cy="1305" r="6"/><circle cx="1971" cy="1327" r="6"/><circle cx="2010" cy="1353" r="6"/><circle cx="2091" cy="1356" r="4"/><circle cx="2238" cy="1356" r="5"/><circle cx="2303" cy="1336" r="5"/><circle cx="2339" cy="1323" r="5"/><circle cx="2428" cy="1313" r="4"/><circle cx="2526" cy="1341" r="5"/><circle cx="58" cy="1373" r="5"/><circle cx="105" cy="1372" r="6"/><circle cx="173" cy="1404" r="4"/><circle cx="268" cy="1414" r="6"/><circle cx="376" cy="1416" r="5"/><circle cx="424" cy="1421" r="5"/><circle cx="536" cy="1363" r="5"/><circle cx="586" cy="1407" r="6"/><circle cx="682" cy="1405" r="5"/><circle cx="750" cy="1369" r="6"/><circle cx="813" cy="1404" r="6"/><circle cx="921" cy="1386" r="6"/><circle cx="989" cy="1413" r="5"/><circle cx="1068" cy="1406" r="5"/><circle cx="1141" cy="1388" r="6"/><circle cx="1238" cy="1374" r="4"/><circle cx="1290" cy="1433" r="5"/><circle cx="1419" cy="1405" r="5"/><circle cx="1512" cy="1370" r="6"/><circle cx="1566" cy="1387" r="5"/><circle cx="1601" cy="1425" r="4"/><circle cx="1731" cy="1414" r="5"/><circle cx="1787" cy="1360" r="5"/><circle cx="1868" cy="1430" r="6"/><circle cx="1945" cy="1418" r="5"/><circle cx="2019" cy="1426" r="5"/><circle cx="2107" cy="1430" r="4"/><circle cx="2167" cy="1408" r="5"/><circle cx="2282" cy="1437" r="4"/><circle cx="2282" cy="-3" r="4"/><circle cx="2380" cy="1386" r="5"/><circle cx="2425" cy="1408" r="6"/><circle cx="2535" cy="1384" r="4"/><path stroke="#fff" d="M16 64L82 23M16 64L-33 13M16 64L44 142M16 64L-16 133M2576 64L2527 13M2576 64L2544 133M82 23L164 6M164 6L220 98M164 6L173 -36M164 1446L173 1404M273 37L324 69M273 37L220 98M273 37L246 85M273 37L329 113M273 37L268 -26M273 1477L268 1414M324 69L246 85M324 69L329 113M324 69L274 162M324 69L268 -26M324 1509L268 1414M441 55L490 57M441 55L447 96M441 55L502 92M441 55L376 -24M441 55L424 -19M441 1495L376 1416M441 1495L424 1421M490 57L584 16M490 57L447 96M490 57L502 92M490 57L578 97M584 16L578 97M584 16L582 -80M584 16L536 -77M584 16L586 -33M584 1456L582 1360M584 1456L536 1363M584 1456L586 1407M682 1L722 12M682 1L705 101M682 1L586 -33M682 1L682 -35M682 1L750 -71M682 1441L586 1407M682 1441L682 1405M682 1441L750 1369M722 12L705 101M722 12L682 -35M722 12L750 -71M722 12L813 -36M722 1452L682 1405M722 1452L750 1369M722 1452L813 1404M861 64L937 12M861 64L781 86M861 64L822 116M861 64L915 113M861 64L813 -36M861 1504L813 1404M937 12L915 113M937 12L921 -54M937 12L989 -27M937 1452L921 1386M937 1452L989 1413M1038 51L1060 16M1038 51L1034 134M1038 51L1111 91M1038 51L1068 -34M1038 1491L1068 1406M1060 16L1152 4M1060 16L1111 91M1060 16L989 -27M1060 16L1068 -34M1060 1456L989 1413M1060 1456L1068 1406M1152 4L1200 63M1152 4L1166 92M1152 4L1068 -34M1152 4L1141 -52M1152 1444L1068 1406M1152 1444L1141 1388M1200 63L1284 65M1200 63L1111 91M1200 63L1166 92M1200 63L1234 151M1284 65L1234 151M1284 65L1292 150M1284 65L1314 178M1284 65L1290 -7M1284 1505L1290 1433M1434 23L1485 53M1434 23L1428 99M1434 23L1419 -35M1434 1463L1419 1405M1485 53L1575 44M1485 53L1428 99M1485 53L1477 115M1575 44L1609 63M1575 44L1580 102M1575 44L1646 89M1575 44L1601 -15M1575 1484L1601 1425M1609 63L1580 102M1609 63L1646 89M1609 63L1566 -53M1609 63L1601 -15M1609 1503L1566 1387M1609 1503L1601 1425M1744 8L1815 46M1744 8L1842 41M1744 8L1758 88M1744 8L1731 -26M1744 1448L1731 1414M1815 46L1842 41M1815 46L1758 88M1815 46L1780 103M1815 46L1868 -10M1815 1486L1868 1430M1842 41L1758 88M1842 41L1780 103M1842 41L1868 -10M1842 1481L1868 1430M1992 25L2040 56M1992 25L1928 127M1992 25L1945 -22M1992 25L2019 -14M1992 1465L1945 1418M1992 1465L2019 1426M2040 56L2067 127M2040 56L2019 -14M2040 56L2107 -10M2040 1496L2019 1426M2040 1496L2107 1430M2132 57L2196 59M2132 57L2067 127M2132 57L2128 136M2132 57L2107 -10M2132 57L2167 -32M2132 1497L2107 1430M2132 1497L2167 1408M2196 59L2252 19M2196 59L2217 125M2196 59L2267 127M2252 19L2343 20M2252 19L2238 -84M2252 19L2167 -32M2252 19L2282 -3M2252 1459L2238 1356M2252 1459L2167 1408M2252 1459L2282 1437M2343 20L2401 29M2343 20L2282 -3M2343 20L2380 -54M2343 20L2425 -32M2343 1460L2282 1437M2343 1460L2380 1386M2343 1460L2425 1408M2401 29L2434 98M2401 29L2380 -54M2401 29L2425 -32M2401 1469L2380 1386M2401 1469L2425 1408M2527 13L2526 -99M2527 13L2425 -32M2527 13L2535 -56M2527 1453L2526 1341M2527 1453L2425 1408M2527 1453L2535 1384M44 142L90 149M44 142L-16 133M44 142L73 196M44 142L101 205M2604 142L2544 133M90 149L-16 133M90 149L73 196M90 149L101 205M2650 149L2544 133M220 98L246 85M220 98L195 187M220 98L274 162M246 85L329 113M246 85L274 162M329 113L274 162M447 96L502 92M447 96L427 191M447 96L514 166M502 92L578 97M502 92L514 166M578 97L514 166M578 97L632 189M705 101L781 86M781 86L822 116M822 116L915 113M822 116L791 211M822 116L828 175M915 113L828 175M915 113L913 201M1034 134L1111 91M1034 134L973 214M1034 134L1045 232M1111 91L1166 92M1234 151L1292 150M1234 151L1178 205M1234 151L1314 178M1292 150L1273 235M1292 150L1314 178M1428 99L1477 115M1428 99L1439 169M1477 115L1580 102M1477 115L1439 169M1477 115L1487 186M1580 102L1646 89M1580 102L1587 204M1646 89L1601 -15M1646 1529L1601 1425M1758 88L1780 103M1758 88L1845 157M1780 103L1845 157M1780 103L1837 178M1845 157L1928 127M1845 157L1837 178M1845 157L1863 217M1928 127L1837 178M1928 127L1863 217M1928 127L1957 210M2067 127L2128 136M2067 127L2094 232M2067 127L2019 242M2128 136L2217 125M2128 136L2183 208M2217 125L2267 127M2217 125L2183 208M2217 125L2310 162M2267 127L2344 135M2267 127L2310 162M2344 135L2434 98M2344 135L2310 162M2344 135L2338 235M2344 135L2352 242M2544 133L2509 216M73 196L101 205M73 196L32 268M73 196L142 242M101 205L32 268M101 205L142 242M195 187L274 162M195 187L142 242M195 187L199 267M195 187L249 277M384 222L427 191M384 222L398 284M384 222L394 320M427 191L514 166M427 191L398 284M514 166L556 246M632 189L653 225M632 189L556 246M653 225L691 296M791 211L828 175M791 211L799 317M791 211L842 253M828 175L913 201M828 175L842 253M913 201L973 214M913 201L842 253M913 201L925 243M973 214L1045 232M973 214L925 243M973 214L996 269M1045 232L996 269M1045 232L1112 266M1045 232L1128 261M1178 205L1273 235M1178 205L1112 266M1178 205L1128 261M1178 205L1244 296M1273 235L1314 178M1273 235L1244 296M1273 235L1309 302M1314 178L1439 169M1439 169L1487 186M1439 169L1434 281M1487 186L1587 204M1487 186L1434 281M1487 186L1571 255M1587 204L1640 227M1587 204L1571 255M1587 204L1600 261M1640 227L1751 235M1640 227L1571 255M1640 227L1600 261M1640 227L1752 265M1751 235L1837 178M1751 235L1752 265M1751 235L1804 299M1837 178L1863 217M1863 217L1804 299M1863 217L1864 274M1957 210L2047 240M1957 210L1864 274M1957 210L1997 283M1957 210L2019 242M2047 240L2094 232M2047 240L1997 283M2047 240L2019 242M2047 240L2123 313M2094 232L2019 242M2094 232L2123 313M2094 232L2175 255M2183 208L2175 255M2310 162L2338 235M2310 162L2352 242M2338 235L2414 232M2338 235L2278 283M2338 235L2352 242M2414 232L2509 216M2414 232L2352 242M2414 232L2422 319M2414 232L2445 328M2509 216L2592 268M2509 216L2547 318M-51 216L32 268M32 268L-13 318M2592 268L2547 318M142 242L199 267M142 242L172 334M199 267L249 277M199 267L141 331M199 267L172 334M249 277L141 331M249 277L172 334M249 277L259 389M398 284L472 300M398 284L394 320M398 284L427 367M472 300L556 246M472 300L394 320M472 300L427 367M472 300L533 338M556 246L605 320M556 246L533 338M605 320L691 296M605 320L533 338M605 320L587 385M799 317L842 253M799 317L743 379M799 317L823 343M842 253L925 243M925 243L996 269M925 243L920 349M996 269L920 349M996 269L1074 320M1112 266L1128 261M1112 266L1074 320M1128 261L1074 320M1244 296L1309 302M1244 296L1226 387M1309 302L1333 360M1309 302L1391 352M1434 281L1519 287M1434 281L1391 352M1434 281L1492 338M1519 287L1571 255M1519 287L1600 261M1519 287L1492 338M1519 287L1544 364M1571 255L1600 261M1600 261L1605 346M1752 265L1804 299M1752 265L1864 274M1752 265L1725 357M1804 299L1864 274M1804 299L1903 340M1864 274L1903 340M1997 283L2019 242M2123 313L2175 255M2123 313L2108 382M2123 313L2122 418M2175 255L2278 283M2175 255L2237 362M2278 283L2352 242M2278 283L2237 362M2422 319L2386 386M2422 319L2445 328M2422 319L2492 352M2547 318L2633 393M2547 318L2445 328M2547 318L2492 352M-13 318L73 393M73 393L141 331M73 393L121 428M141 331L172 334M141 331L121 428M172 334L259 389M259 389L182 442M259 389L256 401M259 389L373 448M394 320L427 367M427 367L373 448M427 367L405 431M533 338L587 385M533 338L495 439M587 385L673 387M587 385L495 439M587 385L608 455M673 387L743 379M673 387L608 455M673 387L710 459M673 387L755 414M743 379L710 459M743 379L755 414M743 379L818 419M823 343L920 349M823 343L818 419M920 349L1003 382M920 349L902 421M1003 382L1074 320M1003 382L902 421M1003 382L1037 459M1003 382L1059 450M1074 320L1137 401M1190 397L1226 387M1190 397L1137 401M1190 397L1257 415M1190 397L1195 491M1226 387L1137 401M1226 387L1257 415M1226 387L1195 491M1333 360L1391 352M1333 360L1257 415M1333 360L1332 449M1333 360L1398 442M1391 352L1492 338M1391 352L1398 442M1492 338L1544 364M1492 338L1503 410M1544 364L1605 346M1544 364L1503 410M1544 364L1587 433M1605 346L1587 433M1605 346L1630 413M1725 357L1772 400M1725 357L1630 413M1725 357L1707 434M1772 400L1707 434M1772 400L1765 466M1903 340L1967 390M1903 340L1892 428M1967 390L2011 399M1967 390L1892 428M1967 390L1925 444M1967 390L2026 456M2011 399L2108 382M2011 399L1925 444M2011 399L2026 456M2108 382L2122 418M2237 362L2306 397M2237 362L2224 433M2306 397L2386 386M2306 397L2224 433M2306 397L2316 457M2306 397L2373 435M2386 386L2445 328M2386 386L2373 435M2445 328L2492 352M2492 352L2472 448M2492 352L2486 435M9 479L-74 435M9 479L75 521M2569 479L2486 435M121 428L182 442M121 428L75 521M182 442L256 401M182 442L141 531M373 448L405 431M373 448L329 506M405 431L495 439M405 431L329 506M405 431L496 488M495 439L496 488M608 455L710 459M608 455L591 549M608 455L695 492M710 459L755 414M710 459L695 492M755 414L818 419M755 414L811 484M818 419L902 421M818 419L811 484M902 421L923 487M1037 459L1059 450M1037 459L981 497M1037 459L1056 481M1059 450L1137 401M1059 450L981 497M1059 450L1056 481M1257 415L1332 449M1257 415L1195 491M1332 449L1398 442M1332 449L1299 551M1332 449L1412 482M1398 442L1412 482M1398 442L1485 493M1503 410L1587 433M1503 410L1412 482M1503 410L1485 493M1587 433L1630 413M1630 413L1707 434M1707 434L1765 466M1707 434L1745 516M1765 466L1745 516M1765 466L1801 516M1765 466L1758 564M1892 428L1925 444M1892 428L1895 507M1925 444L1895 507M1925 444L1983 510M2026 456L2122 418M2026 456L1983 510M2026 456L2077 487M2122 418L2077 487M2224 433L2316 457M2224 433L2194 501M2224 433L2251 486M2316 457L2373 435M2316 457L2251 486M2316 457L2383 495M2373 435L2472 448M2373 435L2383 495M2472 448L2486 435M2472 448L2463 490M2472 448L2497 537M2486 435L2463 490M75 521L141 531M75 521L0 586M75 521L97 618M141 531L229 558M141 531L97 618M141 531L229 584M229 558L281 534M229 558L329 506M229 558L229 584M229 558L285 597M281 534L329 506M281 534L229 584M281 534L285 597M440 548L496 488M440 548L366 615M440 548L451 582M440 548L515 588M591 549L515 588M591 549L705 597M695 492L705 597M799 542L811 484M799 542L705 597M799 542L789 639M799 542L829 582M811 484L923 487M811 484L829 582M923 487L981 497M923 487L952 572M981 497L1056 481M981 497L952 572M1195 491L1254 533M1195 491L1181 580M1254 533L1299 551M1254 533L1181 580M1254 533L1278 629M1299 551L1278 629M1299 551L1359 628M1299 551L1393 570M1412 482L1485 493M1412 482L1393 570M1485 493L1527 542M1485 493L1575 568M1527 542L1643 551M1527 542L1575 568M1643 551L1575 568M1643 551L1642 604M1745 516L1801 516M1745 516L1758 564M1745 516L1786 584M1801 516L1895 507M1801 516L1758 564M1801 516L1786 584M1895 507L1983 510M1895 507L1954 562M1983 510L1954 562M1983 510L2031 568M2077 487L2031 568M2160 557L2194 501M2160 557L2103 629M2160 557L2171 613M2160 557L2258 578M2160 557L2158 655M2194 501L2251 486M2194 501L2258 578M2251 486L2258 578M2383 495L2463 490M2383 495L2349 570M2383 495L2408 569M2463 490L2497 537M2463 490L2480 584M2497 537L2560 586M2497 537L2408 569M2497 537L2480 584M-63 537L0 586M0 586L-80 584M2560 586L2480 584M97 618L87 672M97 618L171 673M229 584L285 597M229 584L171 673M285 597L366 615M285 597L321 658M366 615L451 582M366 615L321 658M366 615L462 652M451 582L515 588M451 582L462 652M451 582L531 640M515 588L462 652M515 588L531 640M635 639L705 597M635 639L561 673M635 639L650 706M635 639L680 726M705 597L789 639M789 639L829 582M789 639L772 716M789 639L831 706M952 572L1030 627M1030 627L1092 605M1030 627L1026 664M1030 627L1058 649M1030 627L1150 659M1092 605L1181 580M1092 605L1026 664M1092 605L1058 649M1092 605L1150 659M1181 580L1150 659M1181 580L1205 657M1278 629L1359 628M1278 629L1205 657M1278 629L1327 679M1359 628L1393 570M1359 628L1327 679M1359 628L1412 685M1393 570L1465 639M1465 639L1412 685M1465 639L1458 685M1465 639L1553 673M1465 639L1483 724M1575 568L1642 604M1642 604L1694 677M1758 564L1786 584M1758 564L1765 664M1786 584L1862 597M1786 584L1765 664M1862 597L1954 562M1862 597L1879 673M1862 597L1937 641M1954 562L2031 568M1954 562L1937 641M2031 568L2103 629M2031 568L2034 683M2103 629L2171 613M2103 629L2034 683M2103 629L2158 655M2171 613L2258 578M2171 613L2158 655M2171 613L2196 677M2258 578L2349 570M2349 570L2408 569M2408 569L2480 584M2408 569L2432 674M2480 584L2432 674M25 698L87 672M25 698L-80 690M25 698L49 769M25 698L87 751M25 698L-24 748M2585 698L2480 690M2585 698L2536 748M87 672L171 673M87 672L87 751M171 673L268 719M268 719L321 658M268 719L271 782M268 719L356 785M462 652L531 640M531 640L561 673M531 640L568 734M561 673L650 706M561 673L554 737M561 673L568 734M650 706L568 734M650 706L680 726M650 706L735 743M772 716L831 706M772 716L680 726M772 716L735 743M772 716L817 778M831 706L921 702M831 706L817 778M831 706L880 726M921 702L1026 664M921 702L880 726M921 702L1021 755M921 702L884 801M1026 664L1058 649M1026 664L1021 755M1058 649L1150 659M1150 659L1205 657M1205 657L1262 753M1327 679L1412 685M1327 679L1262 753M1327 679L1338 728M1412 685L1458 685M1412 685L1483 724M1458 685L1553 673M1458 685L1390 769M1458 685L1483 724M1553 673L1617 719M1553 673L1483 724M1553 673L1569 767M1617 719L1694 677M1617 719L1569 767M1617 719L1660 778M1617 719L1692 743M1694 677L1765 664M1694 677L1692 743M1765 664L1879 673M1765 664L1692 743M1879 673L1937 641M1879 673L1906 774M1937 641L2034 683M2034 683L2049 764M2158 655L2196 677M2158 655L2166 722M2196 677L2313 693M2196 677L2147 752M2196 677L2166 722M2313 693L2342 701M2313 693L2243 781M2313 693L2349 781M2342 701L2432 674M2342 701L2349 781M2432 674L2480 690M2432 674L2423 773M2480 690L2423 773M2480 690L2536 748M49 769L87 751M49 769L-24 748M49 769L75 833M49 769L121 809M2609 769L2536 748M87 751L75 833M87 751L121 809M164 792L75 833M164 792L121 809M164 792L194 809M164 792L262 828M271 782L356 785M271 782L194 809M271 782L262 828M356 785L262 828M356 785L369 870M477 796L554 737M477 796L568 734M477 796L439 874M477 796L517 836M554 737L568 734M554 737L517 836M680 726L735 743M817 778L880 726M817 778L831 857M817 778L884 801M880 726L884 801M1021 755L1068 798M1021 755L1027 847M1021 755L1082 832M1068 798L1169 799M1068 798L1027 847M1068 798L1082 832M1068 798L1159 819M1169 799L1159 819M1169 799L1264 824M1262 753L1338 728M1262 753L1264 824M1338 728L1390 769M1390 769L1323 859M1390 769L1415 872M1483 724L1569 767M1569 767L1660 778M1569 767L1554 856M1660 778L1692 743M1660 778L1680 826M1660 778L1657 882M1692 743L1680 826M1822 795L1906 774M1822 795L1830 844M1822 795L1843 827M1906 774L1936 788M1906 774L1843 827M1906 774L1922 836M1936 788L1922 836M1936 788L2016 821M2049 764L2147 752M2049 764L2166 722M2049 764L2016 821M2147 752L2166 722M2147 752L2243 781M2147 752L2115 866M2166 722L2243 781M2243 781L2181 864M2243 781L2277 827M2349 781L2423 773M2349 781L2277 827M2423 773L2536 748M2423 773L2420 844M2536 748L2507 859M75 833L121 809M75 833L68 891M121 809L194 809M194 809L262 828M194 809L214 908M262 828L214 908M369 870L439 874M369 870L308 923M369 870L321 947M439 874L517 836M439 874L476 940M517 836L600 866M517 836L537 892M600 866L537 892M600 866L625 939M600 866L594 972M706 875L768 870M706 875L625 939M706 875L719 918M706 875L786 883M706 875L704 970M768 870L831 857M768 870L719 918M768 870L786 883M768 870L792 962M831 857L884 801M831 857L786 883M831 857L908 893M884 801L908 893M1027 847L1082 832M1027 847L1020 920M1082 832L1159 819M1082 832L1136 914M1159 819L1201 894M1264 824L1323 859M1264 824L1201 894M1264 824L1366 891M1323 859L1415 872M1323 859L1309 953M1323 859L1366 891M1415 872L1508 863M1415 872L1366 891M1508 863L1554 856M1508 863L1508 955M1508 863L1557 944M1554 856L1557 944M1554 856L1657 882M1680 826L1716 867M1680 826L1657 882M1716 867L1657 882M1716 867L1702 923M1830 844L1843 827M1830 844L1804 918M1830 844L1873 931M1843 827L1922 836M1843 827L1804 918M1922 836L2016 821M1922 836L1940 921M2016 821L2115 866M2115 866L2181 864M2115 866L2094 951M2115 866L2187 931M2181 864L2277 827M2181 864L2187 931M2277 827L2339 878M2339 878L2420 844M2339 878L2316 919M2339 878L2346 956M2339 878L2418 923M2420 844L2507 859M2420 844L2418 923M2507 859L2628 891M2507 859L2418 923M2507 859L2536 924M-53 859L68 891M68 891L135 957M68 891L-24 924M2628 891L2536 924M135 957L214 908M135 957L61 1036M135 957L145 990M135 957L171 1015M214 908L308 923M308 923L321 947M308 923L278 989M321 947L278 989M321 947L329 1016M321 947L328 1047M476 940L537 892M476 940L412 1009M476 940L505 968M537 892L505 968M537 892L594 972M625 939L719 918M625 939L594 972M625 939L704 970M719 918L786 883M719 918L704 970M786 883L792 962M835 949L908 893M835 949L792 962M835 949L807 1012M908 893L952 984M1020 920L1092 944M1020 920L952 984M1020 920L1039 978M1020 920L1056 977M1092 944L1136 914M1092 944L1039 978M1092 944L1056 977M1092 944L1183 983M1136 914L1201 894M1136 914L1056 977M1136 914L1183 983M1201 894L1183 983M1309 953L1366 891M1309 953L1212 1016M1309 953L1308 985M1366 891L1440 980M1508 955L1557 944M1508 955L1440 980M1508 955L1454 1022M1508 955L1577 982M1557 944L1577 982M1657 882L1702 923M1702 923L1650 1000M1702 923L1696 1015M1804 918L1873 931M1804 918L1800 961M1804 918L1854 965M1873 931L1940 921M1873 931L1800 961M1873 931L1854 965M1940 921L2017 945M1940 921L1854 965M1940 921L1990 1026M2017 945L2094 951M2017 945L1990 1026M2017 945L2075 981M2094 951L2187 931M2094 951L2075 981M2094 951L2118 1026M2187 931L2232 988M2316 919L2346 956M2316 919L2232 988M2316 919L2282 1007M2316 919L2379 988M2346 956L2282 1007M2346 956L2379 988M2346 956L2409 984M2418 923L2379 988M2418 923L2409 984M2536 924L2547 988M61 1036L145 990M61 1036L-13 988M61 1036L23 1053M61 1036L118 1065M2621 1036L2547 988M145 990L171 1015M145 990L118 1065M145 990L183 1059M171 1015L118 1065M171 1015L183 1059M278 989L329 1016M278 989L291 1054M278 989L328 1047M329 1016L412 1009M329 1016L291 1054M329 1016L328 1047M412 1009L505 968M412 1009L415 1104M505 968L594 972M594 972L625 1067M704 970L792 962M704 970L702 1046M792 962L807 1012M807 1012L702 1046M807 1012L813 1119M952 984L1039 978M952 984L1056 977M952 984L981 1063M1039 978L1056 977M1039 978L981 1063M1183 983L1212 1016M1183 983L1114 1073M1212 1016L1114 1073M1212 1016L1225 1111M1308 985L1318 1084M1440 980L1454 1022M1440 980L1390 1072M1440 980L1480 1054M1454 1022L1390 1072M1454 1022L1480 1054M1577 982L1650 1000M1577 982L1599 1067M1650 1000L1696 1015M1650 1000L1599 1067M1650 1000L1704 1046M1696 1015L1704 1046M1696 1015L1778 1082M1800 961L1854 965M1854 965L1865 1072M1990 1026L2075 981M1990 1026L1945 1070M1990 1026L2061 1110M2075 981L2118 1026M2075 981L2124 1043M2118 1026L2061 1110M2118 1026L2124 1043M2118 1026L2161 1050M2232 988L2282 1007M2232 988L2161 1050M2232 988L2258 1078M2282 1007L2379 988M2282 1007L2258 1078M2379 988L2409 984M2409 984L2357 1091M2409 984L2477 1071M2547 988L2583 1053M2547 988L2477 1071M-13 988L23 1053M23 1053L118 1065M23 1053L-45 1097M23 1053L-2 1136M2583 1053L2515 1097M2583 1053L2558 1136M118 1065L183 1059M183 1059L188 1129M291 1054L328 1047M291 1054L269 1140M291 1054L343 1154M328 1047L415 1104M415 1104L343 1154M415 1104L456 1160M415 1104L377 1218M520 1085L625 1067M520 1085L456 1160M520 1085L554 1125M625 1067L702 1046M625 1067L554 1125M625 1067L619 1161M702 1046L738 1103M738 1103L813 1119M738 1103L697 1172M738 1103L750 1162M738 1103L818 1166M813 1119L883 1107M813 1119L750 1162M813 1119L818 1166M883 1107L981 1063M883 1107L818 1166M883 1107L938 1131M981 1063L938 1131M981 1063L994 1179M1114 1073L1182 1117M1114 1073L1118 1130M1114 1073L1180 1153M1182 1117L1225 1111M1182 1117L1118 1130M1182 1117L1180 1153M1225 1111L1318 1084M1225 1111L1180 1153M1225 1111L1250 1194M1318 1084L1390 1072M1318 1084L1341 1177M1318 1084L1400 1125M1390 1072L1480 1054M1390 1072L1400 1125M1480 1054L1400 1125M1480 1054L1466 1151M1599 1067L1626 1092M1599 1067L1586 1175M1626 1092L1704 1046M1626 1092L1586 1175M1626 1092L1675 1142M1704 1046L1778 1082M1704 1046L1721 1135M1778 1082L1865 1072M1778 1082L1721 1135M1778 1082L1836 1173M1865 1072L1945 1070M1865 1072L1836 1173M2061 1110L2124 1043M2061 1110L2061 1178M2061 1110L2102 1178M2124 1043L2161 1050M2124 1043L2190 1130M2161 1050L2258 1078M2161 1050L2190 1130M2258 1078L2190 1130M2258 1078L2286 1140M2357 1091L2286 1140M2357 1091L2352 1163M2357 1091L2445 1133M2477 1071L2515 1097M2477 1071L2445 1133M2477 1071L2558 1136M2515 1097L2571 1159M2515 1097L2445 1133M2515 1097L2558 1136M-45 1097L11 1159M11 1159L-2 1136M11 1159L-45 1219M2571 1159L2558 1136M2571 1159L2515 1219M158 1195L188 1129M158 1195L269 1140M158 1195L122 1260M158 1195L203 1248M188 1129L269 1140M269 1140L343 1154M269 1140L263 1266M343 1154L377 1218M456 1160L554 1125M456 1160L377 1218M456 1160L456 1239M554 1125L619 1161M619 1161L697 1172M619 1161L547 1234M619 1161L629 1207M697 1172L750 1162M697 1172L629 1207M697 1172L706 1233M750 1162L818 1166M750 1162L706 1233M938 1131L994 1179M994 1179L1019 1273M994 1179L1040 1211M1118 1130L1180 1153M1118 1130L1040 1211M1180 1153L1250 1194M1250 1194L1341 1177M1250 1194L1273 1258M1250 1194L1236 1283M1341 1177L1400 1125M1341 1177L1273 1258M1341 1177L1343 1267M1400 1125L1466 1151M1466 1151L1540 1217M1586 1175L1675 1142M1586 1175L1540 1217M1586 1175L1638 1264M1675 1142L1721 1135M1721 1135L1747 1243M1836 1173L1898 1177M1836 1173L1813 1248M1836 1173L1865 1218M1898 1177L1994 1187M1898 1177L1865 1218M1898 1177L1968 1226M1994 1187L2061 1178M1994 1187L1968 1226M1994 1187L2021 1277M2061 1178L2102 1178M2061 1178L1968 1226M2061 1178L2021 1277M2102 1178L2151 1236M2102 1178L2178 1242M2190 1130L2286 1140M2190 1130L2178 1242M2286 1140L2352 1163M2286 1140L2251 1237M2352 1163L2445 1133M2352 1163L2346 1267M2445 1133L2515 1219M2558 1136L2515 1219M34 1257L122 1260M34 1257L-45 1219M34 1257L72 1304M34 1257L90 1289M2594 1257L2515 1219M122 1260L203 1248M122 1260L72 1304M122 1260L90 1289M203 1248L263 1266M203 1248L173 1341M203 1248L273 1317M263 1266L377 1218M263 1266L173 1341M263 1266L273 1317M377 1218L456 1239M456 1239L547 1234M456 1239L411 1343M456 1239L534 1282M547 1234L629 1207M547 1234L534 1282M629 1207L706 1233M629 1207L662 1287M706 1233L662 1287M706 1233L788 1284M778 1275L850 1255M778 1275L788 1284M778 1275L823 1287M850 1255L923 1279M850 1255L788 1284M850 1255L823 1287M850 1255L888 1298M923 1279L823 1287M923 1279L888 1298M923 1279L967 1339M1019 1273L1040 1211M1019 1273L1121 1250M1019 1273L967 1339M1019 1273L1096 1295M1040 1211L1121 1250M1040 1211L1096 1295M1121 1250L1096 1295M1121 1250L1151 1317M1273 1258L1343 1267M1273 1258L1236 1283M1273 1258L1331 1306M1343 1267L1412 1269M1343 1267L1331 1306M1343 1267L1435 1294M1412 1269L1443 1268M1412 1269L1331 1306M1412 1269L1435 1294M1412 1269L1455 1313M1443 1268L1540 1217M1443 1268L1435 1294M1443 1268L1455 1313M1540 1217L1634 1288M1638 1264L1747 1243M1638 1264L1598 1319M1638 1264L1634 1288M1638 1264L1707 1336M1747 1243L1813 1248M1747 1243L1707 1336M1747 1243L1814 1318M1813 1248L1865 1218M1813 1248L1814 1318M1813 1248L1865 1305M1865 1218L1865 1305M1968 1226L2021 1277M1968 1226L1971 1327M2021 1277L1971 1327M2021 1277L2010 1353M2151 1236L2178 1242M2151 1236L2251 1237M2178 1242L2251 1237M2251 1237L2346 1267M2346 1267L2303 1336M2346 1267L2339 1323M2346 1267L2428 1313M2466 1226L2515 1219M72 1304L90 1289M72 1304L58 1373M72 1304L105 1372M90 1289L58 1373M90 1289L105 1372M173 1341L273 1317M173 1341L105 1372M173 1341L173 1404M273 1317L359 1360M273 1317L268 1414M359 1360L411 1343M359 1360L268 1414M359 1360L376 1416M359 1360L424 1421M411 1343L376 1416M411 1343L424 1421M534 1282L582 1360M534 1282L536 1363M582 1360L662 1287M582 1360L536 1363M582 1360L586 1407M788 1284L823 1287M788 1284L750 1369M823 1287L888 1298M888 1298L967 1339M888 1298L921 1386M967 1339L921 1386M967 1339L989 1413M1096 1295L1151 1317M1096 1295L1141 1388M1151 1317L1236 1283M1151 1317L1141 1388M1151 1317L1238 1374M1236 1283L1331 1306M1236 1283L1238 1374M1435 1294L1455 1313M1435 1294L1512 1370M1455 1313L1419 1405M1455 1313L1512 1370M1598 1319L1634 1288M1598 1319L1512 1370M1598 1319L1566 1387M1598 1319L1601 1425M1634 1288L1707 1336M1634 1288L1566 1387M1707 1336L1731 1414M1707 1336L1787 1360M1814 1318L1865 1305M1814 1318L1787 1360M1814 1318L1868 1430M1865 1305L1971 1327M1865 1305L1787 1360M1971 1327L2010 1353M1971 1327L1945 1418M2010 1353L2091 1356M2010 1353L1945 1418M2010 1353L2019 1426M2091 1356L2107 1430M2091 1356L2167 1408M2238 1356L2303 1336M2238 1356L2339 1323M2238 1356L2167 1408M2238 1356L2282 1437M2303 1336L2339 1323M2303 1336L2282 1437M2303 1336L2380 1386M2339 1323L2428 1313M2339 1323L2380 1386M2428 1313L2526 1341M2428 1313L2425 1408M2526 1341L2618 1373M2526 1341L2535 1384M-34 1341L58 1373M58 1373L105 1372M58 1373L-25 1384M2618 1373L2535 1384M105 1372L173 1404M173 1404L268 1414M376 1416L424 1421M424 1421L536 1363M536 1363L586 1407M586 1407L682 1405M682 1405L750 1369M682 1405L813 1404M750 1369L813 1404M813 1404L921 1386M921 1386L989 1413M989 1413L1068 1406M1068 1406L1141 1388M1141 1388L1238 1374M1238 1374L1290 1433M1290 1433L1419 1405M1419 1405L1512 1370M1512 1370L1566 1387M1566 1387L1601 1425M1731 1414L1787 1360M1787 1360L1868 1430M1868 1430L1945 1418M1945 1418L2019 1426M2019 1426L2107 1430M2107 1430L2167 1408M2380 1386L2425 1408"/></svg>