<svg xmlns="http://www.w3.org/2000/svg" width="2560" height="1440" fill="#fff"><circle cx="62" cy="78" r="6"/><circle cx="135" cy="53" r="4"/><circle cx="204" cy="30" r="5"/><circle cx="308" cy="54" r="6"/><circle cx="359" cy="8" r="4"/><circle cx="461" cy="27" r="5"/><circle cx="544" cy="47" r="6"/><circle cx="573" cy="75" r="4"/><circle cx="701" cy="2" r="5"/><circle cx="701" cy="1442" r="5"/><circle cx="756" cy="67" r="6"/><circle cx="849" cy="7" r="5"/><circle cx="920" cy="7" r="6"/><circle cx="1036" cy="69" r="5"/><circle cx="1082" cy="52" r="4"/><circle cx="1153" cy="10" r="5"/><circle cx="1266" cy="28" r="4"/><circle cx="1338" cy="8" r="4"/><circle cx="1379" cy="18" r="6"/><circle cx="1471" cy="76" r="5"/><circle cx="1573" cy="33" r="4"/><circle cx="1634" cy="53" r="5"/><circle cx="1735" cy="4" r="6"/><circle cx="1735" cy="1444" r="6"/><circle cx="1837" cy="39" r="5"/><circle cx="1907" cy="44" r="4"/><circle cx="1938" cy="16" r="5"/><circle cx="2042" cy="74" r="5"/><circle cx="2147" cy="60" r="5"/><circle cx="2201" cy="80" r="5"/><circle cx="2311" cy="11" r="5"/><circle cx="2395" cy="45" r="5"/><circle cx="2463" cy="52" r="4"/><circle cx="2545" cy="37" r="5"/><circle cx="15" cy="156" r="5"/><circle cx="148" cy="127" r="4"/><circle cx="238" cy="99" r="6"/><circle cx="265" cy="157" r="5"/><circle cx="392" cy="103" r="6"/><circle cx="458" cy="83" r="5"/><circle cx="504" cy="136" r="5"/><circle cx="562" cy="128" r="5"/><circle cx="713" cy="135" r="5"/><circle cx="757" cy="86" r="6"/><circle cx="818" cy="130" r="5"/><circle cx="937" cy="114" r="6"/><circle cx="963" cy="147" r="5"/><circle cx="1108" cy="115" r="6"/><circle cx="1132" cy="124" r="5"/><circle cx="1203" cy="98" r="6"/><circle cx="1319" cy="158" r="6"/><circle cx="1413" cy="109" r="6"/><circle cx="1516" cy="92" r="4"/><circle cx="1590" cy="118" r="6"/><circle cx="1613" cy="92" r="4"/><circle cx="1719" cy="97" r="5"/><circle cx="1828" cy="116" r="5"/><circle cx="1867" cy="112" r="5"/><circle cx="1981" cy="144" r="5"/><circle cx="2014" cy="106" r="5"/><circle cx="2099" cy="106" r="5"/><circle cx="2197" cy="82" r="5"/><circle cx="2275" cy="100" r="6"/><circle cx="2368" cy="125" r="4"/><circle cx="2417" cy="149" r="5"/><circle cx="2555" cy="100" r="5"/><circle cx="-5" cy="100" r="5"/><circle cx="14" cy="164" r="5"/><circle cx="115" cy="209" r="4"/><circle cx="164" cy="185" r="4"/><circle cx="304" cy="236" r="6"/><circle cx="328" cy="231" r="5"/><circle cx="430" cy="196" r="5"/><circle cx="508" cy="199" r="5"/><circle cx="596" cy="220" r="5"/><circle cx="715" cy="175" r="4"/><circle cx="791" cy="198" r="5"/><circle cx="805" cy="213" r="5"/><circle cx="941" cy="163" r="6"/><circle cx="1028" cy="184" r="6"/><circle cx="1045" cy="177" r="6"/><circle cx="1121" cy="181" r="4"/><circle cx="1209" cy="220" r="5"/><circle cx="1299" cy="240" r="4"/><circle cx="1434" cy="232" r="5"/><circle cx="1457" cy="216" r="6"/><circle cx="1571" cy="175" r="4"/><circle cx="1612" cy="220" r="6"/><circle cx="1734" cy="206" r="5"/><circle cx="1813" cy="209" r="5"/><circle cx="1869" cy="163" r="6"/><circle cx="1985" cy="186" r="4"/><circle cx="2036" cy="238" r="5"/><circle cx="2130" cy="211" r="4"/><circle cx="2194" cy="227" r="5"/><circle cx="2282" cy="190" r="5"/><circle cx="2328" cy="178" r="4"/><circle cx="2452" cy="205" r="5"/><circle cx="2518" cy="231" r="5"/><circle cx="37" cy="302" r="6"/><circle cx="158" cy="284" r="6"/><circle cx="183" cy="309" r="4"/><circle cx="266" cy="269" r="5"/><circle cx="362" cy="315" r="6"/><circle cx="463" cy="293" r="5"/><circle cx="555" cy="285" r="5"/><circle cx="573" cy="313" r="5"/><circle cx="705" cy="243" r="5"/><circle cx="775" cy="269" r="5"/><circle cx="803" cy="295" r="5"/><circle cx="909" cy="271" r="6"/><circle cx="1036" cy="252" r="6"/><circle cx="1056" cy="248" r="5"/><circle cx="1168" cy="284" r="6"/><circle cx="1211" cy="297" r="4"/><circle cx="1339" cy="313" r="5"/><circle cx="1419" cy="291" r="4"/><circle cx="1500" cy="265" r="4"/><circle cx="1549" cy="310" r="6"/><circle cx="1628" cy="276" r="5"/><circle cx="1754" cy="255" r="6"/><circle cx="1794" cy="241" r="6"/><circle cx="1882" cy="297" r="5"/><circle cx="1996" cy="263" r="4"/><circle cx="2015" cy="294" r="5"/><circle cx="2122" cy="250" r="4"/><circle cx="2192" cy="308" r="5"/><circle cx="2270" cy="318" r="4"/><circle cx="2351" cy="287" r="6"/><circle cx="2401" cy="278" r="6"/><circle cx="2506" cy="248" r="6"/><circle cx="43" cy="355" r="6"/><circle cx="112" cy="321" r="5"/><circle cx="180" cy="374" r="6"/><circle cx="265" cy="326" r="5"/><circle cx="399" cy="368" r="5"/><circle cx="411" cy="326" r="5"/><circle cx="511" cy="346" r="4"/><circle cx="603" cy="383" r="4"/><circle cx="707" cy="344" r="6"/><circle cx="764" cy="358" r="6"/><circle cx="853" cy="361" r="5"/><circle cx="952" cy="378" r="4"/><circle cx="1039" cy="340" r="4"/><circle cx="1068" cy="389" r="5"/><circle cx="1126" cy="332" r="5"/><circle cx="1250" cy="367" r="5"/><circle cx="1306" cy="386" r="6"/><circle cx="1397" cy="339" r="4"/><circle cx="1510" cy="357" r="4"/><circle cx="1568" cy="383" r="5"/><circle cx="1610" cy="364" r="5"/><circle cx="1758" cy="344" r="4"/><circle cx="1833" cy="325" r="4"/><circle cx="1915" cy="399" r="5"/><circle cx="1974" cy="345" r="4"/><circle cx="2031" cy="381" r="6"/><circle cx="2128" cy="360" r="4"/><circle cx="2184" cy="350" r="5"/><circle cx="2300" cy="342" r="4"/><circle cx="2354" cy="358" r="5"/><circle cx="2426" cy="384" r="5"/><circle cx="2538" cy="354" r="5"/><circle cx="12" cy="416" r="5"/><circle cx="114" cy="417" r="5"/><circle cx="180" cy="446" r="6"/><circle cx="268" cy="480" r="5"/><circle cx="353" cy="422" r="5"/><circle cx="439" cy="454" r="5"/><circle cx="488" cy="468" r="4"/><circle cx="609" cy="450" r="5"/><circle cx="674" cy="409" r="6"/><circle cx="739" cy="401" r="5"/><circle cx="820" cy="415" r="5"/><circle cx="933" cy="458" r="4"/><circle cx="997" cy="434" r="4"/><circle cx="1080" cy="466" r="6"/><circle cx="1149" cy="420" r="5"/><circle cx="1255" cy="428" r="6"/><circle cx="1336" cy="448" r="4"/><circle cx="1362" cy="435" r="6"/><circle cx="1500" cy="473" r="5"/><circle cx="1595" cy="444" r="6"/><circle cx="1660" cy="417" r="5"/><circle cx="1748" cy="430" r="5"/><circle cx="1816" cy="410" r="5"/><circle cx="1890" cy="448" r="4"/><circle cx="1983" cy="425" r="4"/><circle cx="2059" cy="403" r="5"/><circle cx="2122" cy="425" r="6"/><circle cx="2174" cy="455" r="6"/><circle cx="2267" cy="411" r="5"/><circle cx="2322" cy="448" r="5"/><circle cx="2459" cy="419" r="6"/><circle cx="2508" cy="418" r="5"/><circle cx="27" cy="535" r="4"/><circle cx="126" cy="518" r="5"/><circle cx="215" cy="490" r="6"/><circle cx="308" cy="548" r="4"/><circle cx="373" cy="530" r="5"/><circle cx="467" cy="519" r="4"/><circle cx="539" cy="523" r="4"/><circle cx="594" cy="533" r="5"/><circle cx="698" cy="515" r="4"/><circle cx="726" cy="536" r="5"/><circle cx="873" cy="518" r="5"/><circle cx="954" cy="546" r="4"/><circle cx="1038" cy="541" r="4"/><circle cx="1070" cy="499" r="6"/><circle cx="1192" cy="552" r="6"/><circle cx="1242" cy="557" r="5"/><circle cx="1308" cy="496" r="4"/><circle cx="1378" cy="522" r="5"/><circle cx="1464" cy="510" r="6"/><circle cx="1584" cy="524" r="5"/><circle cx="1610" cy="523" r="5"/><circle cx="1717" cy="529" r="5"/><circle cx="1812" cy="554" r="5"/><circle cx="1878" cy="544" r="6"/><circle cx="1945" cy="543" r="6"/><circle cx="2022" cy="507" r="4"/><circle cx="2101" cy="505" r="5"/><circle cx="2191" cy="522" r="4"/><circle cx="2260" cy="555" r="5"/><circle cx="2348" cy="482" r="5"/><circle cx="2405" cy="536" r="5"/><circle cx="2534" cy="502" r="4"/><circle cx="3" cy="560" r="4"/><circle cx="2563" cy="560" r="4"/><circle cx="114" cy="565" r="6"/><circle cx="176" cy="578" r="4"/><circle cx="299" cy="600" r="4"/><circle cx="394" cy="610" r="5"/><circle cx="438" cy="565" r="5"/><circle cx="543" cy="566" r="5"/><circle cx="590" cy="568" r="5"/><circle cx="678" cy="588" r="5"/><circle cx="731" cy="605" r="6"/><circle cx="841" cy="588" r="5"/><circle cx="955" cy="599" r="5"/><circle cx="993" cy="574" r="5"/><circle cx="1061" cy="604" r="6"/><circle cx="1164" cy="639" r="6"/><circle cx="1228" cy="637" r="6"/><circle cx="1305" cy="588" r="5"/><circle cx="1428" cy="616" r="6"/><circle cx="1517" cy="608" r="4"/><circle cx="1574" cy="582" r="6"/><circle cx="1618" cy="608" r="6"/><circle cx="1728" cy="560" r="6"/><circle cx="1826" cy="618" r="4"/><circle cx="1900" cy="636" r="5"/><circle cx="1962" cy="577" r="5"/><circle cx="2005" cy="608" r="4"/><circle cx="2113" cy="564" r="6"/><circle cx="2201" cy="567" r="5"/><circle cx="2289" cy="561" r="6"/><circle cx="2371" cy="583" r="5"/><circle cx="2447" cy="629" r="5"/><circle cx="2529" cy="618" r="5"/><circle cx="57" cy="654" r="4"/><circle cx="82" cy="714" r="5"/><circle cx="193" cy="704" r="4"/><circle cx="304" cy="653" r="6"/><circle cx="359" cy="706" r="5"/><circle cx="453" cy="656" r="5"/><circle cx="552" cy="670" r="4"/><circle cx="596" cy="649" r="6"/><circle cx="689" cy="643" r="5"/><circle cx="779" cy="652" r="5"/><circle cx="862" cy="661" r="5"/><circle cx="923" cy="714" r="5"/><circle cx="1001" cy="703" r="5"/><circle cx="1084" cy="696" r="6"/><circle cx="1129" cy="646" r="6"/><circle cx="1242" cy="667" r="5"/><circle cx="1342" cy="698" r="4"/><circle cx="1403" cy="642" r="4"/><circle cx="1478" cy="668" r="5"/><circle cx="1536" cy="666" r="5"/><circle cx="1643" cy="666" r="6"/><circle cx="1728" cy="687" r="5"/><circle cx="1787" cy="669" r="5"/><circle cx="1866" cy="641" r="5"/><circle cx="1999" cy="656" r="4"/><circle cx="2068" cy="651" r="4"/><circle cx="2113" cy="664" r="5"/><circle cx="2230" cy="714" r="4"/><circle cx="2291" cy="695" r="5"/><circle cx="2334" cy="670" r="6"/><circle cx="2472" cy="678" r="5"/><circle cx="2554" cy="645" r="6"/><circle cx="-6" cy="645" r="6"/><circle cx="9" cy="737" r="5"/><circle cx="147" cy="796" r="5"/><circle cx="219" cy="789" r="5"/><circle cx="283" cy="753" r="6"/><circle cx="343" cy="745" r="5"/><circle cx="410" cy="745" r="6"/><circle cx="496" cy="759" r="5"/><circle cx="605" cy="775" r="6"/><circle cx="685" cy="725" r="5"/><circle cx="787" cy="728" r="5"/><circle cx="805" cy="795" r="5"/><circle cx="885" cy="730" r="5"/><circle cx="982" cy="751" r="5"/><circle cx="1051" cy="731" r="6"/><circle cx="1172" cy="760" r="4"/><circle cx="1273" cy="791" r="4"/><circle cx="1337" cy="739" r="4"/><circle cx="1391" cy="739" r="4"/><circle cx="1490" cy="741" r="4"/><circle cx="1550" cy="739" r="4"/><circle cx="1625" cy="733" r="4"/><circle cx="1695" cy="787" r="6"/><circle cx="1803" cy="760" r="5"/><circle cx="1904" cy="726" r="4"/><circle cx="1933" cy="794" r="5"/><circle cx="2018" cy="763" r="5"/><circle cx="2108" cy="752" r="5"/><circle cx="2224" cy="751" r="6"/><circle cx="2317" cy="748" r="6"/><circle cx="2355" cy="772" r="5"/><circle cx="2429" cy="746" r="5"/><circle cx="2491" cy="722" r="4"/><circle cx="31" cy="820" r="6"/><circle cx="93" cy="832" r="5"/><circle cx="201" cy="858" r="5"/><circle cx="319" cy="804" r="4"/><circle cx="323" cy="819" r="5"/><circle cx="432" cy="875" r="5"/><circle cx="486" cy="852" r="4"/><circle cx="565" cy="866" r="4"/><circle cx="676" cy="872" r="4"/><circle cx="743" cy="819" r="5"/><circle cx="862" cy="848" r="5"/><circle cx="889" cy="863" r="4"/><circle cx="1004" cy="857" r="4"/><circle cx="1069" cy="864" r="5"/><circle cx="1190" cy="830" r="5"/><circle cx="1208" cy="864" r="6"/><circle cx="1294" cy="873" r="6"/><circle cx="1363" cy="837" r="6"/><circle cx="1493" cy="837" r="6"/><circle cx="1557" cy="859" r="5"/><circle cx="1613" cy="825" r="5"/><circle cx="1711" cy="832" r="5"/><circle cx="1767" cy="840" r="5"/><circle cx="1867" cy="826" r="5"/><circle cx="1947" cy="835" r="5"/><circle cx="2013" cy="872" r="6"/><circle cx="2092" cy="840" r="6"/><circle cx="2186" cy="811" r="5"/><circle cx="2292" cy="867" r="4"/><circle cx="2383" cy="878" r="5"/><circle cx="2453" cy="876" r="5"/><circle cx="2535" cy="862" r="5"/><circle cx="1" cy="891" r="5"/><circle cx="2561" cy="891" r="5"/><circle cx="94" cy="883" r="5"/><circle cx="215" cy="916" r="5"/><circle cx="288" cy="926" r="5"/><circle cx="337" cy="891" r="6"/><circle cx="477" cy="892" r="6"/><circle cx="524" cy="932" r="4"/><circle cx="630" cy="887" r="6"/><circle cx="714" cy="905" r="5"/><circle cx="728" cy="895" r="5"/><circle cx="810" cy="949" r="5"/><circle cx="958" cy="925" r="5"/><circle cx="991" cy="906" r="4"/><circle cx="1049" cy="882" r="6"/><circle cx="1186" cy="943" r="5"/><circle cx="1258" cy="906" r="4"/><circle cx="1355" cy="894" r="5"/><circle cx="1416" cy="924" r="5"/><circle cx="1445" cy="936" r="4"/><circle cx="1600" cy="956" r="6"/><circle cx="1603" cy="919" r="4"/><circle cx="1733" cy="911" r="5"/><circle cx="1782" cy="938" r="5"/><circle cx="1857" cy="930" r="6"/><circle cx="1975" cy="928" r="4"/><circle cx="2052" cy="936" r="6"/><circle cx="2157" cy="936" r="5"/><circle cx="2225" cy="941" r="5"/><circle cx="2319" cy="927" r="6"/><circle cx="2384" cy="894" r="6"/><circle cx="2419" cy="958" r="5"/><circle cx="2498" cy="885" r="5"/><circle cx="42" cy="981" r="6"/><circle cx="96" cy="1022" r="5"/><circle cx="176" cy="982" r="6"/><circle cx="242" cy="1008" r="6"/><circle cx="379" cy="995" r="5"/><circle cx="463" cy="1021" r="6"/><circle cx="482" cy="988" r="5"/><circle cx="629" cy="1016" r="4"/><circle cx="677" cy="990" r="4"/><circle cx="768" cy="993" r="6"/><circle cx="871" cy="999" r="4"/><circle cx="925" cy="966" r="4"/><circle cx="1035" cy="1024" r="6"/><circle cx="1116" cy="961" r="5"/><circle cx="1192" cy="1012" r="4"/><circle cx="1205" cy="1028" r="5"/><circle cx="1285" cy="976" r="6"/><circle cx="1401" cy="1037" r="5"/><circle cx="1464" cy="989" r="5"/><circle cx="1554" cy="996" r="6"/><circle cx="1647" cy="971" r="5"/><circle cx="1734" cy="997" r="5"/><circle cx="1777" cy="988" r="5"/><circle cx="1846" cy="1013" r="5"/><circle cx="1956" cy="1026" r="6"/><circle cx="2047" cy="968" r="5"/><circle cx="2124" cy="967" r="5"/><circle cx="2236" cy="975" r="5"/><circle cx="2284" cy="1013" r="4"/><circle cx="2336" cy="1013" r="6"/><circle cx="2455" cy="974" r="5"/><circle cx="2480" cy="1008" r="6"/><circle cx="59" cy="1053" r="4"/><circle cx="82" cy="1053" r="5"/><circle cx="206" cy="1063" r="4"/><circle cx="282" cy="1085" r="5"/><circle cx="325" cy="1086" r="4"/><circle cx="423" cy="1056" r="4"/><circle cx="509" cy="1050" r="5"/><circle cx="598" cy="1097" r="5"/><circle cx="689" cy="1100" r="5"/><circle cx="791" cy="1068" r="5"/><circle cx="878" cy="1105" r="5"/><circle cx="895" cy="1118" r="5"/><circle cx="987" cy="1094" r="6"/><circle cx="1068" cy="1092" r="5"/><circle cx="1180" cy="1076" r="5"/><circle cx="1225" cy="1083" r="4"/><circle cx="1329" cy="1078" r="4"/><circle cx="1373" cy="1096" r="4"/><circle cx="1520" cy="1084" r="6"/><circle cx="1548" cy="1096" r="4"/><circle cx="1603" cy="1087" r="5"/><circle cx="1704" cy="1067" r="4"/><circle cx="1818" cy="1075" r="5"/><circle cx="1893" cy="1096" r="5"/><circle cx="1960" cy="1056" r="5"/><circle cx="2010" cy="1066" r="6"/><circle cx="2141" cy="1118" r="4"/><circle cx="2206" cy="1058" r="4"/><circle cx="2298" cy="1061" r="5"/><circle cx="2349" cy="1059" r="6"/><circle cx="2435" cy="1114" r="5"/><circle cx="2511" cy="1107" r="5"/><circle cx="5" cy="1196" r="6"/><circle cx="2565" cy="1196" r="6"/><circle cx="136" cy="1150" r="6"/><circle cx="194" cy="1164" r="5"/><circle cx="308" cy="1138" r="4"/><circle cx="326" cy="1142" r="5"/><circle cx="409" cy="1168" r="6"/><circle cx="536" cy="1145" r="6"/><circle cx="608" cy="1159" r="5"/><circle cx="662" cy="1179" r="6"/><circle cx="795" cy="1174" r="5"/><circle cx="866" cy="1165" r="4"/><circle cx="903" cy="1197" r="5"/><circle cx="969" cy="1184" r="5"/><circle cx="1069" cy="1154" r="6"/><circle cx="1177" cy="1178" r="5"/><circle cx="1230" cy="1180" r="5"/><circle cx="1341" cy="1133" r="5"/><circle cx="1426" cy="1160" r="4"/><circle cx="1466" cy="1149" r="6"/><circle cx="1549" cy="1148" r="4"/><circle cx="1603" cy="1191" r="4"/><circle cx="1700" cy="1157" r="5"/><circle cx="1795" cy="1127" r="6"/><circle cx="1909" cy="1183" r="6"/><circle cx="1972" cy="1122" r="5"/><circle cx="2050" cy="1139" r="5"/><circle cx="2113" cy="1134" r="4"/><circle cx="2201" cy="1194" r="6"/><circle cx="2286" cy="1199" r="5"/><circle cx="2370" cy="1159" r="5"/><circle cx="2454" cy="1198" r="6"/><circle cx="2484" cy="1144" r="4"/><circle cx="5" cy="1202" r="6"/><circle cx="2565" cy="1202" r="6"/><circle cx="117" cy="1230" r="5"/><circle cx="202" cy="1270" r="4"/><circle cx="284" cy="1228" r="5"/><circle cx="346" cy="1210" r="5"/><circle cx="450" cy="1232" r="5"/><circle cx="495" cy="1279" r="6"/><circle cx="606" cy="1208" r="6"/><circle cx="672" cy="1225" r="4"/><circle cx="750" cy="1203" r="5"/><circle cx="871" cy="1247" r="5"/><circle cx="894" cy="1228" r="6"/><circle cx="962" cy="1206" r="5"/><circle cx="1086" cy="1238" r="4"/><circle cx="1196" cy="1213" r="6"/><circle cx="1205" cy="1247" r="4"/><circle cx="1323" cy="1234" r="4"/><circle cx="1399" cy="1246" r="5"/><circle cx="1451" cy="1218" r="4"/><circle cx="1534" cy="1234" r="5"/><circle cx="1621" cy="1258" r="6"/><circle cx="1703" cy="1272" r="4"/><circle cx="1798" cy="1270" r="6"/><circle cx="1858" cy="1276" r="6"/><circle cx="1921" cy="1263" r="5"/><circle cx="2022" cy="1265" r="6"/><circle cx="2106" cy="1260" r="6"/><circle cx="2188" cy="1230" r="6"/><circle cx="2292" cy="1276" r="4"/><circle cx="2399" cy="1276" r="5"/><circle cx="2476" cy="1206" r="5"/><circle cx="2541" cy="1228" r="5"/><circle cx="68" cy="1283" r="5"/><circle cx="83" cy="1345" r="5"/><circle cx="202" cy="1293" r="4"/><circle cx="256" cy="1333" r="5"/><circle cx="349" cy="1340" r="4"/><circle cx="409" cy="1314" r="5"/><circle cx="499" cy="1315" r="5"/><circle cx="569" cy="1299" r="5"/><circle cx="682" cy="1352" r="4"/><circle cx="724" cy="1315" r="5"/><circle cx="835" cy="1318" r="5"/><circle cx="955" cy="1332" r="5"/><circle cx="997" cy="1355" r="4"/><circle cx="1066" cy="1308" r="5"/><circle cx="1167" cy="1344" r="6"/><circle cx="1273" cy="1339" r="5"/><circle cx="1293" cy="1329" r="6"/><circle cx="1375" cy="1345" r="6"/><circle cx="1462" cy="1332" r="6"/><circle cx="1539" cy="1341" r="5"/><circle cx="1618" cy="1344" r="4"/><circle cx="1751" cy="1349" r="5"/><circle cx="1793" cy="1357" r="4"/><circle cx="1906" cy="1289" r="6"/><circle cx="1921" cy="1329" r="6"/><circle cx="2040" cy="1294" r="5"/><circle cx="2132" cy="1329" r="5"/><circle cx="2235" cy="1315" r="5"/><circle cx="2313" cy="1291" r="4"/><circle cx="2331" cy="1341" r="6"/><circle cx="2407" cy="1282" r="4"/><circle cx="2521" cy="1342" r="5"/><circle cx="3" cy="1432" r="5"/><circle cx="2563" cy="1432" r="5"/><circle cx="83" cy="1384" r="5"/><circle cx="211" cy="1425" r="5"/><circle cx="272" cy="1421" r="6"/><circle cx="348" cy="1385" r="5"/><circle cx="455" cy="1428" r="5"/><circle cx="540" cy="1383" r="5"/><circle cx="614" cy="1370" r="5"/><circle cx="691" cy="1396" r="4"/><circle cx="796" cy="1382" r="5"/><circle cx="833" cy="1395" r="5"/><circle cx="930" cy="1394" r="5"/><circle cx="969" cy="1399" r="5"/><circle cx="1055" cy="1399" r="6"/><circle cx="1131" cy="1375" r="5"/><circle cx="1225" cy="1362" r="5"/><circle cx="1286" cy="1380" r="5"/><circle cx="1375" cy="1397" r="4"/><circle cx="1473" cy="1416" r="5"/><circle cx="1569" cy="1399" r="5"/><circle cx="1622" cy="1433" r="5"/><circle cx="1707" cy="1423" r="6"/><circle cx="1764" cy="1413" r="5"/><circle cx="1890" cy="1415" r="6"/><circle cx="1957" cy="1408" r="6"/><circle cx="2019" cy="1385" r="6"/><circle cx="2085" cy="1406" r="5"/><circle cx="2207" cy="1385" r="5"/><circle cx="2267" cy="1391" r="4"/><circle cx="2395" cy="1366" r="4"/><circle cx="2469" cy="1424" r="4"/><circle cx="2498" cy="1437" r="6"/><circle cx="2498" cy="-3" r="6"/><path stroke="#fff" d="M62 78L135 53M62 78L-15 37M62 78L15 156M62 78L-5 100M62 78L14 164M2622 78L2545 37M2622 78L2555 100M135 53L204 30M135 53L148 127M135 53L211 -15M135 1493L211 1425M204 30L308 54M204 30L238 99M204 30L211 -15M204 30L272 -19M204 1470L211 1425M204 1470L272 1421M308 54L359 8M308 54L238 99M308 54L392 103M308 54L272 -19M308 1494L272 1421M359 8L392 103M359 8L348 -55M359 8L455 -12M359 1448L348 1385M359 1448L455 1428M461 27L544 47M461 27L392 103M461 27L458 83M461 27L455 -12M461 1467L455 1428M544 47L573 75M544 47L458 83M544 47L504 136M544 47L562 128M573 75L562 128M701 2L756 67M701 2L757 86M701 2L682 -88M701 2L691 -44M701 2L796 -58M701 1442L682 1352M701 1442L691 1396M701 1442L796 1382M756 67L849 7M756 67L713 135M756 67L757 86M756 67L818 130M849 7L920 7M849 7L796 -58M849 7L833 -45M849 1447L796 1382M849 1447L833 1395M920 7L937 114M920 7L833 -45M920 7L930 -46M920 7L969 -41M920 1447L833 1395M920 1447L930 1394M920 1447L969 1399M1036 69L1082 52M1036 69L937 114M1036 69L1108 115M1082 52L1153 10M1082 52L1108 115M1082 52L1132 124M1082 52L1055 -41M1082 1492L1055 1399M1153 10L1203 98M1153 10L1167 -96M1153 10L1131 -65M1153 1450L1167 1344M1153 1450L1131 1375M1266 28L1338 8M1266 28L1203 98M1338 8L1379 18M1338 8L1286 -60M1338 8L1375 -43M1338 1448L1286 1380M1338 1448L1375 1397M1379 18L1471 76M1379 18L1413 109M1379 18L1375 -43M1379 18L1473 -24M1379 1458L1375 1397M1379 1458L1473 1416M1471 76L1413 109M1471 76L1516 92M1471 76L1473 -24M1471 1516L1473 1416M1573 33L1634 53M1573 33L1590 118M1573 33L1613 92M1573 33L1569 -41M1573 33L1622 -7M1573 1473L1569 1399M1573 1473L1622 1433M1634 53L1590 118M1634 53L1613 92M1634 53L1622 -7M1634 53L1707 -17M1634 1493L1622 1433M1634 1493L1707 1423M1735 4L1719 97M1735 4L1751 -91M1735 4L1707 -17M1735 4L1764 -27M1735 1444L1751 1349M1735 1444L1707 1423M1735 1444L1764 1413M1837 39L1907 44M1837 39L1828 116M1837 39L1867 112M1837 39L1764 -27M1837 39L1890 -25M1837 1479L1764 1413M1837 1479L1890 1415M1907 44L1938 16M1907 44L1867 112M1907 44L1890 -25M1907 44L1957 -32M1907 1484L1890 1415M1907 1484L1957 1408M1938 16L2042 74M1938 16L1890 -25M1938 16L1957 -32M1938 16L2019 -55M1938 1456L1890 1415M1938 1456L1957 1408M1938 1456L2019 1385M2042 74L2147 60M2042 74L1981 144M2042 74L2014 106M2042 74L2099 106M2147 60L2201 80M2147 60L2099 106M2147 60L2197 82M2147 60L2085 -34M2147 1500L2085 1406M2201 80L2099 106M2201 80L2197 82M2201 80L2275 100M2311 11L2395 45M2311 11L2275 100M2311 11L2207 -55M2311 11L2267 -49M2311 1451L2207 1385M2311 1451L2267 1391M2395 45L2463 52M2395 45L2368 125M2395 45L2469 -16M2395 1485L2469 1424M2463 52L2545 37M2463 52L2469 -16M2463 52L2498 -3M2463 1492L2469 1424M2463 1492L2498 1437M2545 37L2555 100M2545 37L2563 -8M2545 37L2498 -3M-15 37L3 -8M-15 1477L3 1432M2545 1477L2563 1432M2545 1477L2498 1437M15 156L-5 100M15 156L14 164M15 156L-42 231M2575 156L2555 100M2575 156L2518 231M148 127L238 99M148 127L115 209M148 127L164 185M238 99L265 157M238 99L211 -15M238 1539L211 1425M265 157L164 185M265 157L304 236M265 157L328 231M392 103L458 83M392 103L430 196M458 83L504 136M458 83L455 -12M458 1523L455 1428M504 136L562 128M504 136L430 196M504 136L508 199M562 128L508 199M562 128L596 220M713 135L757 86M713 135L818 130M713 135L715 175M713 135L791 198M757 86L818 130M757 86L715 175M818 130L791 198M818 130L805 213M937 114L963 147M937 114L941 163M963 147L941 163M963 147L1028 184M1108 115L1132 124M1108 115L1045 177M1108 115L1121 181M1132 124L1203 98M1132 124L1121 181M1203 98L1319 158M1203 98L1209 220M1319 158L1413 109M1319 158L1299 240M1413 109L1516 92M1413 109L1457 216M1516 92L1590 118M1516 92L1613 92M1516 92L1571 175M1590 118L1613 92M1590 118L1571 175M1719 97L1828 116M1719 97L1734 206M1828 116L1867 112M1828 116L1813 209M1828 116L1869 163M1867 112L1869 163M1981 144L2014 106M1981 144L1869 163M1981 144L1985 186M2014 106L2099 106M2014 106L1985 186M2099 106L2197 82M2197 82L2275 100M2275 100L2282 190M2275 100L2328 178M2368 125L2417 149M2368 125L2282 190M2368 125L2328 178M2417 149L2328 178M2417 149L2452 205M2555 100L2574 164M-5 100L14 164M14 164L-42 231M14 164L-54 248M2574 164L2518 231M2574 164L2506 248M115 209L164 185M115 209L158 284M164 185L158 284M304 236L328 231M304 236L266 269M304 236L362 315M304 236L265 326M328 231L430 196M328 231L266 269M328 231L362 315M430 196L508 199M430 196L463 293M508 199L596 220M508 199L555 285M596 220L555 285M596 220L573 313M596 220L705 243M715 175L791 198M715 175L805 213M715 175L705 243M791 198L805 213M791 198L775 269M805 213L775 269M805 213L803 295M941 163L1028 184M941 163L909 271M1028 184L1045 177M1028 184L1036 252M1028 184L1056 248M1045 177L1121 181M1045 177L1036 252M1045 177L1056 248M1121 181L1209 220M1121 181L1056 248M1209 220L1299 240M1209 220L1168 284M1209 220L1211 297M1299 240L1211 297M1299 240L1339 313M1434 232L1457 216M1434 232L1419 291M1434 232L1500 265M1434 232L1397 339M1457 216L1419 291M1457 216L1500 265M1571 175L1612 220M1612 220L1734 206M1612 220L1628 276M1734 206L1813 209M1734 206L1754 255M1734 206L1794 241M1813 209L1869 163M1813 209L1754 255M1813 209L1794 241M1869 163L1794 241M1985 186L2036 238M1985 186L1996 263M2036 238L2130 211M2036 238L1996 263M2036 238L2015 294M2036 238L2122 250M2130 211L2194 227M2130 211L2122 250M2194 227L2282 190M2194 227L2122 250M2194 227L2192 308M2282 190L2328 178M2328 178L2351 287M2452 205L2518 231M2452 205L2401 278M2452 205L2506 248M2518 231L2597 302M2518 231L2506 248M-42 231L37 302M37 302L-54 248M37 302L43 355M37 302L112 321M37 302L-22 354M2597 302L2506 248M2597 302L2538 354M158 284L183 309M158 284L112 321M158 284L180 374M183 309L266 269M183 309L112 321M183 309L180 374M183 309L265 326M266 269L265 326M362 315L265 326M362 315L399 368M362 315L411 326M463 293L555 285M463 293L399 368M463 293L411 326M463 293L511 346M555 285L573 313M555 285L511 346M573 313L511 346M573 313L603 383M705 243L775 269M705 243L707 344M775 269L803 295M803 295L909 271M803 295L764 358M803 295L853 361M909 271L853 361M909 271L952 378M1036 252L1056 248M1036 252L1039 340M1056 248L1039 340M1168 284L1211 297M1168 284L1126 332M1168 284L1250 367M1211 297L1126 332M1211 297L1250 367M1339 313L1419 291M1339 313L1250 367M1339 313L1306 386M1339 313L1397 339M1419 291L1500 265M1419 291L1397 339M1500 265L1549 310M1500 265L1510 357M1549 310L1628 276M1549 310L1510 357M1549 310L1568 383M1549 310L1610 364M1628 276L1610 364M1754 255L1794 241M1754 255L1758 344M1754 255L1833 325M1794 241L1833 325M1882 297L1833 325M1882 297L1915 399M1996 263L2015 294M1996 263L1974 345M2015 294L1974 345M2015 294L2031 381M2122 250L2192 308M2192 308L2270 318M2192 308L2128 360M2192 308L2184 350M2270 318L2351 287M2270 318L2184 350M2270 318L2300 342M2270 318L2267 411M2351 287L2401 278M2351 287L2300 342M2351 287L2354 358M2401 278L2506 248M2401 278L2354 358M2401 278L2426 384M43 355L112 321M43 355L-22 354M43 355L12 416M43 355L114 417M2603 355L2538 354M112 321L180 374M180 374L114 417M180 374L180 446M399 368L411 326M399 368L353 422M399 368L439 454M411 326L511 346M411 326L353 422M511 346L603 383M603 383L707 344M603 383L609 450M603 383L674 409M707 344L764 358M707 344L674 409M707 344L739 401M764 358L853 361M764 358L739 401M764 358L820 415M853 361L952 378M853 361L820 415M952 378L1039 340M952 378L933 458M952 378L997 434M1039 340L1068 389M1039 340L1126 332M1068 389L1126 332M1068 389L997 434M1068 389L1080 466M1068 389L1149 420M1126 332L1149 420M1250 367L1306 386M1250 367L1255 428M1306 386L1255 428M1306 386L1336 448M1306 386L1362 435M1510 357L1568 383M1568 383L1610 364M1568 383L1595 444M1568 383L1660 417M1610 364L1595 444M1610 364L1660 417M1758 344L1833 325M1758 344L1748 430M1758 344L1816 410M1833 325L1816 410M1915 399L1974 345M1915 399L1816 410M1915 399L1890 448M1915 399L1983 425M1974 345L2031 381M1974 345L1983 425M2031 381L1983 425M2031 381L2059 403M2031 381L2122 425M2128 360L2184 350M2128 360L2059 403M2128 360L2122 425M2128 360L2174 455M2184 350L2267 411M2300 342L2354 358M2300 342L2267 411M2354 358L2426 384M2354 358L2322 448M2426 384L2459 419M2426 384L2508 418M2538 354L2572 416M2538 354L2459 419M2538 354L2508 418M-22 354L12 416M12 416L114 417M12 416L-52 418M12 416L-26 502M2572 416L2508 418M2572 416L2534 502M114 417L180 446M114 417L126 518M180 446L268 480M180 446L126 518M180 446L215 490M268 480L353 422M268 480L215 490M268 480L308 548M353 422L439 454M439 454L488 468M439 454L373 530M439 454L467 519M488 468L467 519M488 468L539 523M609 450L674 409M609 450L594 533M609 450L698 515M674 409L739 401M674 409L698 515M739 401L820 415M820 415L933 458M820 415L873 518M933 458L997 434M933 458L873 518M933 458L954 546M997 434L1080 466M997 434L1070 499M1080 466L1149 420M1080 466L1038 541M1080 466L1070 499M1255 428L1336 448M1255 428L1362 435M1255 428L1308 496M1336 448L1362 435M1336 448L1308 496M1336 448L1378 522M1362 435L1308 496M1362 435L1378 522M1500 473L1464 510M1500 473L1584 524M1595 444L1660 417M1595 444L1584 524M1595 444L1610 523M1660 417L1748 430M1748 430L1816 410M1748 430L1717 529M1816 410L1890 448M1983 425L2059 403M1983 425L2022 507M2059 403L2122 425M2122 425L2174 455M2122 425L2101 505M2174 455L2267 411M2174 455L2101 505M2174 455L2191 522M2267 411L2322 448M2322 448L2348 482M2459 419L2508 418M2459 419L2405 536M2459 419L2534 502M2508 418L2534 502M27 535L-26 502M27 535L3 560M27 535L114 565M2587 535L2534 502M126 518L215 490M126 518L114 565M126 518L176 578M215 490L308 548M215 490L176 578M308 548L373 530M308 548L299 600M373 530L394 610M373 530L438 565M467 519L539 523M467 519L438 565M467 519L543 566M539 523L594 533M539 523L543 566M539 523L590 568M594 533L543 566M594 533L590 568M698 515L726 536M698 515L678 588M698 515L731 605M726 536L678 588M726 536L731 605M873 518L954 546M873 518L841 588M954 546L1038 541M954 546L955 599M954 546L993 574M1038 541L1070 499M1038 541L993 574M1038 541L1061 604M1070 499L993 574M1070 499L1061 604M1192 552L1242 557M1192 552L1164 639M1192 552L1228 637M1192 552L1129 646M1242 557L1228 637M1242 557L1305 588M1308 496L1378 522M1308 496L1305 588M1378 522L1464 510M1378 522L1305 588M1464 510L1428 616M1584 524L1610 523M1584 524L1574 582M1584 524L1618 608M1610 523L1717 529M1610 523L1574 582M1610 523L1618 608M1717 529L1812 554M1717 529L1728 560M1812 554L1878 544M1812 554L1728 560M1812 554L1826 618M1812 554L1866 641M1878 544L1945 543M1878 544L1826 618M1878 544L1900 636M1878 544L1962 577M1945 543L2022 507M1945 543L1962 577M1945 543L2005 608M2022 507L2101 505M2101 505L2191 522M2101 505L2113 564M2191 522L2260 555M2191 522L2113 564M2191 522L2201 567M2260 555L2348 482M2260 555L2201 567M2260 555L2289 561M2348 482L2405 536M2348 482L2289 561M2348 482L2371 583M2405 536L2371 583M2405 536L2447 629M2534 502L2563 560M-26 502L3 560M3 560L114 565M3 560L-31 618M3 560L-6 645M2563 560L2529 618M2563 560L2554 645M114 565L176 578M114 565L57 654M299 600L394 610M299 600L304 653M394 610L438 565M394 610L304 653M394 610L453 656M438 565L453 656M543 566L590 568M543 566L596 649M590 568L678 588M590 568L596 649M678 588L731 605M678 588L689 643M731 605L689 643M731 605L779 652M841 588L955 599M841 588L779 652M841 588L862 661M955 599L993 574M993 574L1061 604M1061 604L1084 696M1061 604L1129 646M1164 639L1228 637M1164 639L1084 696M1164 639L1129 646M1164 639L1242 667M1228 637L1305 588M1228 637L1242 667M1305 588L1242 667M1428 616L1517 608M1428 616L1403 642M1428 616L1478 668M1517 608L1574 582M1517 608L1478 668M1517 608L1536 666M1574 582L1618 608M1574 582L1536 666M1618 608L1536 666M1618 608L1643 666M1728 560L1787 669M1826 618L1900 636M1826 618L1787 669M1826 618L1866 641M1900 636L1962 577M1900 636L1866 641M1900 636L1904 726M1962 577L2005 608M1962 577L1999 656M2005 608L1999 656M2005 608L2068 651M2113 564L2201 567M2113 564L2068 651M2113 564L2113 664M2201 567L2289 561M2201 567L2113 664M2289 561L2371 583M2289 561L2334 670M2371 583L2447 629M2371 583L2334 670M2447 629L2529 618M2447 629L2472 678M2529 618L2617 654M2529 618L2472 678M2529 618L2554 645M-31 618L57 654M57 654L82 714M57 654L-6 645M57 654L9 737M2617 654L2554 645M82 714L9 737M82 714L147 796M193 704L219 789M304 653L359 706M359 706L453 656M359 706L283 753M359 706L343 745M359 706L410 745M453 656L552 670M453 656L410 745M552 670L596 649M552 670L496 759M596 649L689 643M596 649L605 775M689 643L779 652M689 643L685 725M779 652L862 661M779 652L787 728M862 661L923 714M862 661L885 730M923 714L1001 703M923 714L885 730M923 714L982 751M923 714L1051 731M1001 703L1084 696M1001 703L982 751M1001 703L1051 731M1084 696L1129 646M1084 696L1051 731M1129 646L1051 731M1242 667L1342 698M1242 667L1172 760M1342 698L1403 642M1342 698L1337 739M1342 698L1391 739M1403 642L1478 668M1403 642L1391 739M1478 668L1536 666M1478 668L1490 741M1536 666L1550 739M1643 666L1728 687M1643 666L1625 733M1728 687L1787 669M1728 687L1625 733M1728 687L1695 787M1728 687L1803 760M1787 669L1866 641M1787 669L1803 760M1866 641L1904 726M1999 656L2068 651M1999 656L2113 664M2068 651L2113 664M2113 664L2108 752M2230 714L2291 695M2230 714L2224 751M2230 714L2317 748M2230 714L2186 811M2291 695L2334 670M2291 695L2224 751M2291 695L2317 748M2291 695L2355 772M2334 670L2317 748M2334 670L2355 772M2472 678L2554 645M2472 678L2429 746M2472 678L2491 722M2554 645L2569 737M-6 645L9 737M9 737L-69 722M9 737L31 820M2569 737L2491 722M147 796L219 789M147 796L93 832M147 796L201 858M147 796L94 883M219 789L283 753M219 789L201 858M219 789L319 804M283 753L343 745M283 753L319 804M283 753L323 819M343 745L410 745M343 745L319 804M343 745L323 819M410 745L496 759M496 759L605 775M496 759L486 852M605 775L685 725M605 775L565 866M605 775L630 887M685 725L787 728M787 728L805 795M787 728L885 730M787 728L743 819M805 795L885 730M805 795L743 819M805 795L862 848M805 795L889 863M885 730L982 751M982 751L1051 731M982 751L1004 857M1172 760L1190 830M1273 791L1337 739M1273 791L1190 830M1273 791L1208 864M1273 791L1294 873M1337 739L1391 739M1337 739L1363 837M1391 739L1490 741M1391 739L1363 837M1490 741L1550 739M1490 741L1493 837M1550 739L1625 733M1550 739L1493 837M1625 733L1695 787M1625 733L1613 825M1695 787L1613 825M1695 787L1711 832M1695 787L1767 840M1803 760L1904 726M1803 760L1767 840M1803 760L1867 826M1904 726L1933 794M1904 726L1867 826M1933 794L2018 763M1933 794L1867 826M1933 794L1947 835M2018 763L2108 752M2018 763L1947 835M2018 763L2092 840M2108 752L2224 751M2108 752L2092 840M2108 752L2186 811M2224 751L2317 748M2224 751L2186 811M2317 748L2355 772M2355 772L2429 746M2429 746L2491 722M31 820L93 832M31 820L-25 862M31 820L1 891M31 820L94 883M2591 820L2535 862M93 832L94 883M201 858L215 916M201 858L288 926M319 804L323 819M319 804L337 891M323 819L337 891M432 875L486 852M432 875L337 891M432 875L477 892M486 852L565 866M486 852L477 892M486 852L524 932M565 866L477 892M565 866L524 932M565 866L630 887M676 872L743 819M676 872L630 887M676 872L714 905M676 872L728 895M743 819L714 905M743 819L728 895M862 848L889 863M862 848L810 949M889 863L958 925M1004 857L1069 864M1004 857L958 925M1004 857L991 906M1004 857L1049 882M1069 864L991 906M1069 864L1049 882M1069 864L1116 961M1190 830L1208 864M1208 864L1294 873M1208 864L1186 943M1208 864L1258 906M1294 873L1363 837M1294 873L1258 906M1294 873L1355 894M1363 837L1355 894M1363 837L1416 924M1493 837L1557 859M1493 837L1416 924M1493 837L1445 936M1557 859L1613 825M1557 859L1600 956M1557 859L1603 919M1613 825L1711 832M1613 825L1603 919M1711 832L1767 840M1711 832L1733 911M1767 840L1733 911M1767 840L1782 938M1867 826L1947 835M1867 826L1857 930M1947 835L2013 872M1947 835L1975 928M2013 872L2092 840M2013 872L1975 928M2013 872L2052 936M2013 872L2047 968M2092 840L2186 811M2092 840L2052 936M2186 811L2292 867M2292 867L2383 878M2292 867L2319 927M2292 867L2384 894M2383 878L2453 876M2383 878L2319 927M2383 878L2384 894M2383 878L2419 958M2453 876L2535 862M2453 876L2384 894M2453 876L2419 958M2453 876L2498 885M2535 862L2561 891M2535 862L2498 885M-25 862L1 891M1 891L94 883M1 891L-62 885M1 891L42 981M2561 891L2498 885M94 883L42 981M215 916L288 926M215 916L176 982M215 916L242 1008M288 926L337 891M288 926L242 1008M288 926L379 995M337 891L379 995M477 892L524 932M477 892L482 988M524 932L463 1021M524 932L482 988M630 887L714 905M630 887L728 895M714 905L728 895M714 905L768 993M728 895L810 949M810 949L768 993M810 949L871 999M958 925L991 906M958 925L1049 882M958 925L925 966M991 906L1049 882M991 906L925 966M1049 882L1116 961M1186 943L1258 906M1186 943L1116 961M1186 943L1192 1012M1186 943L1205 1028M1258 906L1355 894M1258 906L1285 976M1355 894L1416 924M1355 894L1285 976M1416 924L1445 936M1416 924L1464 989M1445 936L1464 989M1600 956L1603 919M1600 956L1554 996M1600 956L1647 971M1603 919L1554 996M1603 919L1647 971M1733 911L1782 938M1733 911L1734 997M1733 911L1777 988M1782 938L1857 930M1782 938L1734 997M1782 938L1777 988M1857 930L1777 988M1857 930L1846 1013M1975 928L2052 936M1975 928L1956 1026M1975 928L2047 968M2052 936L2047 968M2052 936L2124 967M2157 936L2225 941M2157 936L2124 967M2157 936L2236 975M2225 941L2319 927M2225 941L2124 967M2225 941L2236 975M2225 941L2284 1013M2319 927L2384 894M2319 927L2336 1013M2384 894L2419 958M2419 958L2455 974M2419 958L2480 1008M2498 885L2455 974M2498 885L2480 1008M42 981L96 1022M42 981L59 1053M42 981L82 1053M96 1022L176 982M96 1022L59 1053M96 1022L82 1053M176 982L242 1008M176 982L82 1053M176 982L206 1063M242 1008L206 1063M242 1008L282 1085M379 995L463 1021M379 995L423 1056M463 1021L482 988M463 1021L423 1056M463 1021L509 1050M482 988L423 1056M482 988L509 1050M629 1016L677 990M629 1016L598 1097M629 1016L689 1100M677 990L768 993M768 993L871 999M768 993L791 1068M871 999L925 966M871 999L791 1068M925 966L1035 1024M1035 1024L1116 961M1035 1024L987 1094M1035 1024L1068 1092M1116 961L1192 1012M1192 1012L1205 1028M1192 1012L1180 1076M1192 1012L1225 1083M1205 1028L1285 976M1205 1028L1180 1076M1205 1028L1225 1083M1285 976L1329 1078M1401 1037L1464 989M1401 1037L1329 1078M1401 1037L1373 1096M1401 1037L1341 1133M1464 989L1554 996M1554 996L1647 971M1554 996L1520 1084M1647 971L1734 997M1647 971L1704 1067M1734 997L1777 988M1734 997L1704 1067M1777 988L1846 1013M1846 1013L1818 1075M1956 1026L1893 1096M1956 1026L1960 1056M1956 1026L2010 1066M2047 968L2124 967M2047 968L2010 1066M2236 975L2284 1013M2236 975L2336 1013M2236 975L2206 1058M2284 1013L2336 1013M2284 1013L2298 1061M2284 1013L2349 1059M2336 1013L2298 1061M2336 1013L2349 1059M2455 974L2480 1008M2480 1008L2511 1107M59 1053L82 1053M59 1053L136 1150M82 1053L136 1150M206 1063L282 1085M206 1063L136 1150M206 1063L194 1164M282 1085L325 1086M282 1085L308 1138M282 1085L326 1142M325 1086L308 1138M325 1086L326 1142M423 1056L509 1050M509 1050L536 1145M598 1097L689 1100M598 1097L536 1145M598 1097L608 1159M689 1100L791 1068M689 1100L608 1159M689 1100L662 1179M791 1068L878 1105M791 1068L795 1174M878 1105L895 1118M878 1105L866 1165M895 1118L987 1094M895 1118L866 1165M987 1094L1068 1092M987 1094L969 1184M987 1094L1069 1154M1068 1092L1180 1076M1068 1092L1069 1154M1180 1076L1225 1083M1180 1076L1177 1178M1225 1083L1230 1180M1329 1078L1373 1096M1329 1078L1341 1133M1373 1096L1341 1133M1373 1096L1426 1160M1520 1084L1548 1096M1520 1084L1603 1087M1520 1084L1466 1149M1520 1084L1549 1148M1548 1096L1603 1087M1548 1096L1466 1149M1548 1096L1549 1148M1603 1087L1704 1067M1603 1087L1549 1148M1603 1087L1603 1191M1704 1067L1700 1157M1704 1067L1795 1127M1818 1075L1893 1096M1818 1075L1795 1127M1893 1096L1960 1056M1893 1096L1909 1183M1893 1096L1972 1122M1960 1056L2010 1066M1960 1056L1972 1122M2010 1066L1972 1122M2010 1066L2050 1139M2141 1118L2206 1058M2141 1118L2050 1139M2141 1118L2113 1134M2141 1118L2201 1194M2206 1058L2298 1061M2298 1061L2349 1059M2349 1059L2435 1114M2349 1059L2370 1159M2435 1114L2511 1107M2435 1114L2370 1159M2435 1114L2454 1198M2435 1114L2484 1144M2511 1107L2484 1144M5 1196L-76 1144M5 1196L5 1202M5 1196L-84 1206M5 1196L-19 1228M2565 1196L2484 1144M2565 1196L2476 1206M2565 1196L2541 1228M136 1150L194 1164M136 1150L117 1230M194 1164L117 1230M194 1164L202 1270M194 1164L284 1228M308 1138L326 1142M308 1138L409 1168M308 1138L346 1210M326 1142L409 1168M326 1142L346 1210M409 1168L536 1145M409 1168L346 1210M409 1168L450 1232M536 1145L608 1159M536 1145L606 1208M608 1159L662 1179M608 1159L606 1208M662 1179L606 1208M662 1179L672 1225M662 1179L750 1203M795 1174L866 1165M795 1174L750 1203M795 1174L871 1247M866 1165L903 1197M866 1165L894 1228M903 1197L969 1184M903 1197L871 1247M903 1197L894 1228M903 1197L962 1206M969 1184L1069 1154M969 1184L894 1228M969 1184L962 1206M1069 1154L1177 1178M1069 1154L1086 1238M1177 1178L1230 1180M1177 1178L1196 1213M1177 1178L1205 1247M1230 1180L1196 1213M1230 1180L1205 1247M1230 1180L1323 1234M1341 1133L1426 1160M1341 1133L1323 1234M1426 1160L1466 1149M1426 1160L1399 1246M1426 1160L1451 1218M1466 1149L1549 1148M1466 1149L1451 1218M1549 1148L1603 1191M1603 1191L1700 1157M1603 1191L1534 1234M1603 1191L1621 1258M1700 1157L1795 1127M1700 1157L1703 1272M1909 1183L1972 1122M1909 1183L1858 1276M1909 1183L1921 1263M1909 1183L1906 1289M1972 1122L2050 1139M2050 1139L2113 1134M2113 1134L2201 1194M2201 1194L2286 1199M2201 1194L2106 1260M2201 1194L2188 1230M2286 1199L2370 1159M2286 1199L2188 1230M2286 1199L2292 1276M2286 1199L2313 1291M2370 1159L2454 1198M2454 1198L2484 1144M2454 1198L2476 1206M2454 1198L2541 1228M2484 1144L2476 1206M5 1202L117 1230M5 1202L-84 1206M5 1202L-19 1228M5 1202L68 1283M2565 1202L2476 1206M2565 1202L2541 1228M117 1230L202 1270M117 1230L68 1283M202 1270L284 1228M202 1270L202 1293M202 1270L256 1333M284 1228L346 1210M284 1228L202 1293M346 1210L450 1232M450 1232L495 1279M450 1232L409 1314M450 1232L499 1315M495 1279L409 1314M495 1279L499 1315M495 1279L569 1299M495 1279L540 1383M606 1208L672 1225M606 1208L569 1299M672 1225L750 1203M672 1225L724 1315M871 1247L894 1228M871 1247L962 1206M871 1247L835 1318M894 1228L962 1206M1086 1238L1196 1213M1086 1238L1066 1308M1196 1213L1205 1247M1323 1234L1399 1246M1323 1234L1293 1329M1399 1246L1451 1218M1399 1246L1375 1345M1399 1246L1462 1332M1451 1218L1534 1234M1534 1234L1621 1258M1621 1258L1703 1272M1621 1258L1539 1341M1621 1258L1618 1344M1703 1272L1798 1270M1798 1270L1858 1276M1798 1270L1751 1349M1798 1270L1793 1357M1798 1270L1906 1289M1858 1276L1921 1263M1858 1276L1906 1289M1858 1276L1921 1329M1921 1263L2022 1265M1921 1263L1906 1289M1921 1263L1921 1329M2022 1265L2106 1260M2022 1265L2040 1294M2106 1260L2188 1230M2106 1260L2040 1294M2106 1260L2132 1329M2188 1230L2235 1315M2292 1276L2235 1315M2292 1276L2313 1291M2292 1276L2331 1341M2399 1276L2313 1291M2399 1276L2331 1341M2399 1276L2407 1282M2399 1276L2395 1366M2476 1206L2541 1228M2541 1228L2628 1283M-19 1228L68 1283M68 1283L83 1345M68 1283L83 1384M83 1345L-39 1342M83 1345L83 1384M2643 1345L2521 1342M202 1293L256 1333M256 1333L349 1340M256 1333L211 1425M256 1333L272 1421M349 1340L409 1314M349 1340L348 1385M409 1314L499 1315M409 1314L348 1385M499 1315L569 1299M499 1315L540 1383M569 1299L540 1383M569 1299L614 1370M682 1352L724 1315M682 1352L614 1370M682 1352L691 1396M724 1315L835 1318M724 1315L691 1396M724 1315L796 1382M835 1318L796 1382M835 1318L833 1395M955 1332L997 1355M955 1332L930 1394M955 1332L969 1399M997 1355L1066 1308M997 1355L930 1394M997 1355L969 1399M997 1355L1055 1399M1066 1308L1167 1344M1066 1308L1055 1399M1066 1308L1131 1375M1167 1344L1273 1339M1167 1344L1131 1375M1167 1344L1225 1362M1273 1339L1293 1329M1273 1339L1225 1362M1273 1339L1286 1380M1293 1329L1375 1345M1293 1329L1225 1362M1293 1329L1286 1380M1375 1345L1462 1332M1375 1345L1286 1380M1375 1345L1375 1397M1462 1332L1539 1341M1462 1332L1375 1397M1462 1332L1473 1416M1539 1341L1618 1344M1539 1341L1473 1416M1539 1341L1569 1399M1618 1344L1569 1399M1618 1344L1622 1433M1751 1349L1793 1357M1751 1349L1707 1423M1751 1349L1764 1413M1793 1357L1764 1413M1906 1289L1921 1329M1921 1329L1890 1415M1921 1329L1957 1408M2040 1294L2132 1329M2040 1294L2019 1385M2040 1294L2085 1406M2132 1329L2085 1406M2132 1329L2207 1385M2235 1315L2313 1291M2235 1315L2207 1385M2235 1315L2267 1391M2313 1291L2331 1341M2331 1341L2267 1391M2331 1341L2395 1366M2407 1282L2395 1366M2521 1342L2563 1432M2521 1342L2469 1424M2521 1342L2498 1437M-39 1342L3 1432M3 1432L83 1384M3 1432L-91 1424M3 1432L-62 1437M2563 1432L2469 1424M2563 1432L2498 1437M211 1425L272 1421M272 1421L348 1385M348 1385L455 1428M455 1428L540 1383M540 1383L614 1370M614 1370L691 1396M796 1382L833 1395M833 1395L930 1394M930 1394L969 1399M969 1399L1055 1399M1055 1399L1131 1375M1131 1375L1225 1362M1225 1362L1286 1380M1473 1416L1569 1399M1569 1399L1622 1433M1622 1433L1707 1423M1707 1423L1764 1413M1890 1415L1957 1408M1957 1408L2019 1385M2019 1385L2085 1406M2207 1385L2267 1391M2469 1424L2498 1437"/></svg>