<svg xmlns="http://www.w3.org/2000/svg" width="2560" height="1440" fill="#fff"><circle cx="49" cy="12" r="4"/><circle cx="81" cy="18" r="5"/><circle cx="211" cy="74" r="4"/><circle cx="256" cy="19" r="5"/><circle cx="336" cy="75" r="5"/><circle cx="406" cy="70" r="6"/><circle cx="535" cy="5" r="5"/><circle cx="535" cy="1445" r="5"/><circle cx="568" cy="35" r="5"/><circle cx="665" cy="63" r="5"/><circle cx="747" cy="41" r="4"/><circle cx="852" cy="29" r="5"/><circle cx="899" cy="61" r="5"/><circle cx="1033" cy="17" r="6"/><circle cx="1061" cy="72" r="5"/><circle cx="1149" cy="38" r="6"/><circle cx="1234" cy="22" r="4"/><circle cx="1360" cy="55" r="6"/><circle cx="1436" cy="19" r="5"/><circle cx="1504" cy="14" r="5"/><circle cx="1534" cy="61" r="5"/><circle cx="1628" cy="73" r="4"/><circle cx="1706" cy="10" r="6"/><circle cx="1815" cy="37" r="5"/><circle cx="1891" cy="21" r="6"/><circle cx="1970" cy="45" r="5"/><circle cx="2004" cy="70" r="5"/><circle cx="2108" cy="27" r="5"/><circle cx="2218" cy="6" r="6"/><circle cx="2263" cy="75" r="5"/><circle cx="2398" cy="6" r="6"/><circle cx="2425" cy="2" r="6"/><circle cx="2425" cy="1442" r="6"/><circle cx="2556" cy="35" r="4"/><circle cx="-4" cy="35" r="4"/><circle cx="48" cy="126" r="5"/><circle cx="152" cy="101" r="5"/><circle cx="164" cy="140" r="5"/><circle cx="254" cy="99" r="5"/><circle cx="390" cy="117" r="5"/><circle cx="462" cy="149" r="5"/><circle cx="505" cy="135" r="5"/><circle cx="602" cy="115" r="5"/><circle cx="667" cy="157" r="5"/><circle cx="725" cy="130" r="5"/><circle cx="843" cy="120" r="4"/><circle cx="884" cy="130" r="5"/><circle cx="989" cy="130" r="4"/><circle cx="1091" cy="131" r="4"/><circle cx="1182" cy="131" r="4"/><circle cx="1256" cy="139" r="5"/><circle cx="1354" cy="116" r="5"/><circle cx="1438" cy="130" r="5"/><circle cx="1445" cy="110" r="4"/><circle cx="1577" cy="127" r="6"/><circle cx="1613" cy="138" r="5"/><circle cx="1698" cy="119" r="5"/><circle cx="1822" cy="136" r="5"/><circle cx="1842" cy="92" r="5"/><circle cx="1931" cy="109" r="4"/><circle cx="2016" cy="93" r="6"/><circle cx="2094" cy="108" r="5"/><circle cx="2206" cy="132" r="4"/><circle cx="2251" cy="137" r="5"/><circle cx="2370" cy="105" r="5"/><circle cx="2420" cy="131" r="6"/><circle cx="2546" cy="160" r="6"/><circle cx="62" cy="195" r="6"/><circle cx="142" cy="215" r="6"/><circle cx="187" cy="224" r="5"/><circle cx="289" cy="234" r="4"/><circle cx="359" cy="240" r="5"/><circle cx="467" cy="165" r="4"/><circle cx="494" cy="225" r="5"/><circle cx="578" cy="223" r="5"/><circle cx="678" cy="168" r="6"/><circle cx="793" cy="163" r="4"/><circle cx="838" cy="205" r="5"/><circle cx="920" cy="208" r="5"/><circle cx="993" cy="227" r="5"/><circle cx="1060" cy="163" r="6"/><circle cx="1177" cy="197" r="6"/><circle cx="1235" cy="204" r="5"/><circle cx="1305" cy="214" r="4"/><circle cx="1419" cy="228" r="5"/><circle cx="1461" cy="221" r="4"/><circle cx="1563" cy="230" r="4"/><circle cx="1672" cy="206" r="6"/><circle cx="1718" cy="217" r="4"/><circle cx="1836" cy="185" r="5"/><circle cx="1903" cy="193" r="5"/><circle cx="1963" cy="230" r="4"/><circle cx="2003" cy="202" r="4"/><circle cx="2099" cy="207" r="5"/><circle cx="2209" cy="169" r="5"/><circle cx="2266" cy="161" r="4"/><circle cx="2368" cy="217" r="5"/><circle cx="2461" cy="211" r="4"/><circle cx="2509" cy="231" r="6"/><circle cx="49" cy="243" r="4"/><circle cx="151" cy="302" r="5"/><circle cx="197" cy="317" r="4"/><circle cx="248" cy="245" r="5"/><circle cx="361" cy="304" r="4"/><circle cx="460" cy="243" r="4"/><circle cx="542" cy="317" r="4"/><circle cx="575" cy="298" r="5"/><circle cx="694" cy="251" r="4"/><circle cx="752" cy="251" r="5"/><circle cx="850" cy="264" r="5"/><circle cx="892" cy="267" r="5"/><circle cx="966" cy="297" r="5"/><circle cx="1083" cy="257" r="5"/><circle cx="1169" cy="293" r="6"/><circle cx="1206" cy="278" r="4"/><circle cx="1354" cy="276" r="5"/><circle cx="1383" cy="298" r="5"/><circle cx="1453" cy="320" r="6"/><circle cx="1563" cy="298" r="5"/><circle cx="1631" cy="298" r="5"/><circle cx="1750" cy="312" r="6"/><circle cx="1801" cy="314" r="5"/><circle cx="1893" cy="253" r="5"/><circle cx="1987" cy="243" r="5"/><circle cx="2062" cy="316" r="5"/><circle cx="2092" cy="283" r="5"/><circle cx="2227" cy="313" r="5"/><circle cx="2283" cy="249" r="4"/><circle cx="2331" cy="309" r="4"/><circle cx="2455" cy="319" r="5"/><circle cx="2553" cy="267" r="5"/><circle cx="12" cy="373" r="5"/><circle cx="157" cy="340" r="5"/><circle cx="203" cy="357" r="5"/><circle cx="254" cy="343" r="5"/><circle cx="391" cy="324" r="5"/><circle cx="443" cy="333" r="5"/><circle cx="507" cy="372" r="6"/><circle cx="632" cy="367" r="6"/><circle cx="663" cy="379" r="4"/><circle cx="733" cy="344" r="4"/><circle cx="821" cy="377" r="4"/><circle cx="898" cy="365" r="4"/><circle cx="962" cy="336" r="5"/><circle cx="1071" cy="353" r="5"/><circle cx="1120" cy="340" r="5"/><circle cx="1259" cy="341" r="5"/><circle cx="1291" cy="363" r="5"/><circle cx="1423" cy="326" r="5"/><circle cx="1462" cy="393" r="5"/><circle cx="1526" cy="374" r="5"/><circle cx="1666" cy="354" r="4"/><circle cx="1716" cy="398" r="4"/><circle cx="1833" cy="399" r="6"/><circle cx="1844" cy="389" r="6"/><circle cx="1921" cy="391" r="5"/><circle cx="2051" cy="338" r="5"/><circle cx="2156" cy="331" r="4"/><circle cx="2238" cy="323" r="5"/><circle cx="2320" cy="341" r="5"/><circle cx="2364" cy="364" r="5"/><circle cx="2432" cy="324" r="5"/><circle cx="2504" cy="348" r="6"/><circle cx="37" cy="454" r="6"/><circle cx="141" cy="451" r="4"/><circle cx="225" cy="402" r="5"/><circle cx="275" cy="459" r="4"/><circle cx="397" cy="410" r="5"/><circle cx="444" cy="477" r="5"/><circle cx="533" cy="426" r="4"/><circle cx="626" cy="453" r="5"/><circle cx="666" cy="424" r="5"/><circle cx="730" cy="430" r="5"/><circle cx="825" cy="464" r="5"/><circle cx="909" cy="409" r="4"/><circle cx="982" cy="446" r="4"/><circle cx="1072" cy="445" r="5"/><circle cx="1123" cy="466" r="5"/><circle cx="1277" cy="416" r="5"/><circle cx="1350" cy="454" r="6"/><circle cx="1364" cy="446" r="5"/><circle cx="1497" cy="465" r="5"/><circle cx="1564" cy="437" r="4"/><circle cx="1666" cy="413" r="5"/><circle cx="1729" cy="431" r="6"/><circle cx="1763" cy="466" r="4"/><circle cx="1868" cy="447" r="5"/><circle cx="1980" cy="411" r="5"/><circle cx="2079" cy="404" r="5"/><circle cx="2147" cy="439" r="4"/><circle cx="2209" cy="415" r="5"/><circle cx="2272" cy="448" r="6"/><circle cx="2373" cy="458" r="5"/><circle cx="2462" cy="476" r="6"/><circle cx="2543" cy="473" r="6"/><circle cx="76" cy="525" r="5"/><circle cx="129" cy="519" r="5"/><circle cx="204" cy="523" r="4"/><circle cx="318" cy="558" r="5"/><circle cx="384" cy="512" r="4"/><circle cx="473" cy="482" r="5"/><circle cx="535" cy="495" r="6"/><circle cx="607" cy="484" r="5"/><circle cx="690" cy="550" r="5"/><circle cx="747" cy="533" r="6"/><circle cx="866" cy="531" r="6"/><circle cx="955" cy="514" r="5"/><circle cx="1018" cy="534" r="5"/><circle cx="1117" cy="540" r="6"/><circle cx="1194" cy="532" r="4"/><circle cx="1242" cy="538" r="5"/><circle cx="1291" cy="504" r="4"/><circle cx="1407" cy="490" r="5"/><circle cx="1494" cy="484" r="5"/><circle cx="1555" cy="543" r="6"/><circle cx="1636" cy="551" r="6"/><circle cx="1742" cy="515" r="5"/><circle cx="1821" cy="527" r="5"/><circle cx="1853" cy="548" r="6"/><circle cx="1948" cy="509" r="5"/><circle cx="2054" cy="497" r="6"/><circle cx="2155" cy="489" r="5"/><circle cx="2178" cy="490" r="4"/><circle cx="2292" cy="559" r="6"/><circle cx="2370" cy="559" r="5"/><circle cx="2416" cy="530" r="5"/><circle cx="2484" cy="547" r="5"/><circle cx="42" cy="567" r="5"/><circle cx="106" cy="586" r="5"/><circle cx="207" cy="639" r="5"/><circle cx="294" cy="580" r="4"/><circle cx="387" cy="565" r="5"/><circle cx="410" cy="562" r="5"/><circle cx="555" cy="630" r="4"/><circle cx="586" cy="583" r="6"/><circle cx="691" cy="571" r="5"/><circle cx="741" cy="565" r="5"/><circle cx="843" cy="614" r="5"/><circle cx="925" cy="584" r="5"/><circle cx="1011" cy="604" r="5"/><circle cx="1080" cy="566" r="5"/><circle cx="1140" cy="616" r="6"/><circle cx="1208" cy="584" r="6"/><circle cx="1360" cy="591" r="4"/><circle cx="1404" cy="564" r="5"/><circle cx="1479" cy="571" r="4"/><circle cx="1572" cy="583" r="5"/><circle cx="1667" cy="633" r="5"/><circle cx="1717" cy="634" r="5"/><circle cx="1809" cy="596" r="5"/><circle cx="1900" cy="608" r="4"/><circle cx="1969" cy="594" r="6"/><circle cx="2046" cy="567" r="5"/><circle cx="2157" cy="620" r="5"/><circle cx="2196" cy="598" r="4"/><circle cx="2246" cy="577" r="4"/><circle cx="2392" cy="588" r="6"/><circle cx="2456" cy="634" r="5"/><circle cx="2519" cy="574" r="4"/><circle cx="58" cy="717" r="5"/><circle cx="112" cy="652" r="5"/><circle cx="177" cy="676" r="6"/><circle cx="249" cy="684" r="5"/><circle cx="369" cy="685" r="4"/><circle cx="470" cy="666" r="5"/><circle cx="492" cy="681" r="5"/><circle cx="620" cy="691" r="4"/><circle cx="704" cy="693" r="6"/><circle cx="755" cy="641" r="5"/><circle cx="876" cy="643" r="4"/><circle cx="916" cy="709" r="6"/><circle cx="1009" cy="678" r="5"/><circle cx="1092" cy="717" r="5"/><circle cx="1195" cy="704" r="6"/><circle cx="1256" cy="689" r="5"/><circle cx="1310" cy="664" r="5"/><circle cx="1426" cy="670" r="4"/><circle cx="1451" cy="645" r="6"/><circle cx="1591" cy="690" r="5"/><circle cx="1625" cy="653" r="5"/><circle cx="1707" cy="711" r="5"/><circle cx="1830" cy="677" r="5"/><circle cx="1919" cy="693" r="5"/><circle cx="1989" cy="678" r="4"/><circle cx="2006" cy="698" r="5"/><circle cx="2138" cy="661" r="5"/><circle cx="2181" cy="692" r="6"/><circle cx="2256" cy="685" r="4"/><circle cx="2339" cy="649" r="5"/><circle cx="2456" cy="648" r="5"/><circle cx="2521" cy="705" r="5"/><circle cx="15" cy="765" r="4"/><circle cx="112" cy="778" r="4"/><circle cx="240" cy="760" r="5"/><circle cx="296" cy="793" r="5"/><circle cx="390" cy="767" r="5"/><circle cx="430" cy="768" r="4"/><circle cx="514" cy="755" r="4"/><circle cx="610" cy="741" r="5"/><circle cx="644" cy="781" r="5"/><circle cx="726" cy="747" r="4"/><circle cx="819" cy="746" r="5"/><circle cx="928" cy="763" r="5"/><circle cx="978" cy="753" r="5"/><circle cx="1079" cy="752" r="5"/><circle cx="1173" cy="750" r="6"/><circle cx="1225" cy="787" r="5"/><circle cx="1317" cy="779" r="5"/><circle cx="1436" cy="728" r="5"/><circle cx="1449" cy="792" r="5"/><circle cx="1582" cy="771" r="5"/><circle cx="1667" cy="747" r="5"/><circle cx="1754" cy="756" r="5"/><circle cx="1816" cy="721" r="4"/><circle cx="1908" cy="759" r="5"/><circle cx="1950" cy="746" r="4"/><circle cx="2059" cy="746" r="6"/><circle cx="2113" cy="724" r="4"/><circle cx="2182" cy="786" r="5"/><circle cx="2275" cy="748" r="4"/><circle cx="2347" cy="763" r="5"/><circle cx="2455" cy="746" r="4"/><circle cx="2490" cy="748" r="6"/><circle cx="40" cy="873" r="5"/><circle cx="151" cy="862" r="5"/><circle cx="193" cy="854" r="6"/><circle cx="313" cy="874" r="6"/><circle cx="355" cy="855" r="4"/><circle cx="401" cy="801" r="4"/><circle cx="555" cy="844" r="5"/><circle cx="637" cy="864" r="5"/><circle cx="666" cy="805" r="5"/><circle cx="741" cy="845" r="5"/><circle cx="870" cy="855" r="6"/><circle cx="928" cy="808" r="5"/><circle cx="1023" cy="859" r="5"/><circle cx="1064" cy="868" r="6"/><circle cx="1191" cy="850" r="4"/><circle cx="1209" cy="840" r="5"/><circle cx="1315" cy="841" r="4"/><circle cx="1372" cy="809" r="5"/><circle cx="1453" cy="848" r="4"/><circle cx="1600" cy="802" r="5"/><circle cx="1658" cy="827" r="6"/><circle cx="1688" cy="872" r="5"/><circle cx="1824" cy="812" r="4"/><circle cx="1889" cy="874" r="5"/><circle cx="1999" cy="826" r="5"/><circle cx="2078" cy="815" r="6"/><circle cx="2080" cy="817" r="5"/><circle cx="2237" cy="875" r="6"/><circle cx="2299" cy="876" r="4"/><circle cx="2367" cy="849" r="6"/><circle cx="2454" cy="868" r="5"/><circle cx="2542" cy="859" r="5"/><circle cx="1" cy="927" r="6"/><circle cx="2561" cy="927" r="6"/><circle cx="159" cy="909" r="5"/><circle cx="203" cy="903" r="6"/><circle cx="283" cy="882" r="5"/><circle cx="340" cy="942" r="4"/><circle cx="452" cy="944" r="4"/><circle cx="517" cy="935" r="4"/><circle cx="621" cy="957" r="4"/><circle cx="673" cy="896" r="5"/><circle cx="723" cy="901" r="5"/><circle cx="872" cy="960" r="5"/><circle cx="918" cy="902" r="6"/><circle cx="973" cy="930" r="5"/><circle cx="1116" cy="922" r="4"/><circle cx="1138" cy="916" r="4"/><circle cx="1248" cy="893" r="5"/><circle cx="1357" cy="882" r="5"/><circle cx="1437" cy="902" r="6"/><circle cx="1468" cy="948" r="4"/><circle cx="1551" cy="914" r="4"/><circle cx="1658" cy="890" r="5"/><circle cx="1727" cy="925" r="5"/><circle cx="1807" cy="904" r="5"/><circle cx="1909" cy="926" r="5"/><circle cx="1982" cy="886" r="5"/><circle cx="2060" cy="957" r="5"/><circle cx="2102" cy="956" r="6"/><circle cx="2197" cy="904" r="6"/><circle cx="2256" cy="902" r="5"/><circle cx="2351" cy="895" r="5"/><circle cx="2464" cy="944" r="5"/><circle cx="2527" cy="894" r="5"/><circle cx="75" cy="1034" r="5"/><circle cx="123" cy="1033" r="5"/><circle cx="226" cy="986" r="4"/><circle cx="268" cy="1001" r="6"/><circle cx="397" cy="1013" r="5"/><circle cx="442" cy="966" r="6"/><circle cx="526" cy="1016" r="6"/><circle cx="600" cy="1028" r="5"/><circle cx="715" cy="1037" r="4"/><circle cx="761" cy="1002" r="6"/><circle cx="808" cy="1034" r="6"/><circle cx="936" cy="978" r="5"/><circle cx="1033" cy="1019" r="4"/><circle cx="1047" cy="1024" r="6"/><circle cx="1190" cy="1024" r="4"/><circle cx="1202" cy="992" r="5"/><circle cx="1335" cy="992" r="6"/><circle cx="1419" cy="989" r="4"/><circle cx="1511" cy="977" r="5"/><circle cx="1598" cy="1032" r="5"/><circle cx="1639" cy="1038" r="6"/><circle cx="1692" cy="1035" r="6"/><circle cx="1784" cy="981" r="4"/><circle cx="1919" cy="1020" r="4"/><circle cx="1951" cy="1034" r="5"/><circle cx="2019" cy="967" r="5"/><circle cx="2156" cy="1020" r="5"/><circle cx="2193" cy="989" r="6"/><circle cx="2261" cy="982" r="6"/><circle cx="2390" cy="1028" r="4"/><circle cx="2421" cy="981" r="6"/><circle cx="2506" cy="996" r="5"/><circle cx="31" cy="1119" r="6"/><circle cx="144" cy="1070" r="4"/><circle cx="209" cy="1085" r="5"/><circle cx="247" cy="1062" r="6"/><circle cx="335" cy="1108" r="6"/><circle cx="453" cy="1084" r="5"/><circle cx="515" cy="1044" r="4"/><circle cx="630" cy="1066" r="6"/><circle cx="667" cy="1072" r="6"/><circle cx="725" cy="1077" r="6"/><circle cx="823" cy="1068" r="6"/><circle cx="940" cy="1120" r="5"/><circle cx="965" cy="1095" r="6"/><circle cx="1118" cy="1075" r="4"/><circle cx="1145" cy="1065" r="4"/><circle cx="1202" cy="1059" r="6"/><circle cx="1286" cy="1118" r="5"/><circle cx="1417" cy="1088" r="6"/><circle cx="1459" cy="1045" r="5"/><circle cx="1548" cy="1108" r="4"/><circle cx="1606" cy="1078" r="4"/><circle cx="1715" cy="1053" r="4"/><circle cx="1826" cy="1084" r="6"/><circle cx="1875" cy="1075" r="5"/><circle cx="1992" cy="1069" r="4"/><circle cx="2041" cy="1045" r="6"/><circle cx="2114" cy="1096" r="6"/><circle cx="2197" cy="1053" r="5"/><circle cx="2260" cy="1066" r="5"/><circle cx="2352" cy="1096" r="5"/><circle cx="2434" cy="1107" r="5"/><circle cx="2531" cy="1085" r="5"/><circle cx="50" cy="1124" r="6"/><circle cx="115" cy="1154" r="4"/><circle cx="187" cy="1166" r="5"/><circle cx="297" cy="1128" r="6"/><circle cx="368" cy="1138" r="6"/><circle cx="406" cy="1190" r="5"/><circle cx="517" cy="1173" r="5"/><circle cx="569" cy="1136" r="6"/><circle cx="710" cy="1142" r="6"/><circle cx="748" cy="1193" r="6"/><circle cx="880" cy="1136" r="5"/><circle cx="903" cy="1193" r="5"/><circle cx="984" cy="1135" r="5"/><circle cx="1060" cy="1177" r="5"/><circle cx="1174" cy="1162" r="5"/><circle cx="1264" cy="1198" r="4"/><circle cx="1297" cy="1138" r="6"/><circle cx="1394" cy="1140" r="5"/><circle cx="1481" cy="1167" r="5"/><circle cx="1543" cy="1159" r="5"/><circle cx="1643" cy="1125" r="4"/><circle cx="1748" cy="1125" r="5"/><circle cx="1829" cy="1157" r="4"/><circle cx="1874" cy="1150" r="5"/><circle cx="1958" cy="1138" r="6"/><circle cx="2042" cy="1122" r="5"/><circle cx="2106" cy="1186" r="6"/><circle cx="2220" cy="1176" r="5"/><circle cx="2278" cy="1183" r="5"/><circle cx="2390" cy="1185" r="6"/><circle cx="2442" cy="1121" r="5"/><circle cx="2495" cy="1181" r="4"/><circle cx="77" cy="1212" r="6"/><circle cx="126" cy="1246" r="4"/><circle cx="204" cy="1267" r="6"/><circle cx="279" cy="1238" r="5"/><circle cx="341" cy="1215" r="4"/><circle cx="479" cy="1207" r="5"/><circle cx="501" cy="1222" r="5"/><circle cx="598" cy="1245" r="5"/><circle cx="657" cy="1244" r="6"/><circle cx="780" cy="1209" r="5"/><circle cx="848" cy="1208" r="6"/><circle cx="895" cy="1211" r="5"/><circle cx="1025" cy="1214" r="6"/><circle cx="1095" cy="1270" r="6"/><circle cx="1160" cy="1275" r="6"/><circle cx="1277" cy="1224" r="5"/><circle cx="1359" cy="1258" r="4"/><circle cx="1361" cy="1242" r="6"/><circle cx="1501" cy="1262" r="5"/><circle cx="1560" cy="1249" r="5"/><circle cx="1671" cy="1264" r="6"/><circle cx="1693" cy="1272" r="6"/><circle cx="1798" cy="1233" r="4"/><circle cx="1856" cy="1229" r="4"/><circle cx="1958" cy="1213" r="5"/><circle cx="2072" cy="1252" r="6"/><circle cx="2121" cy="1279" r="6"/><circle cx="2182" cy="1259" r="5"/><circle cx="2278" cy="1214" r="4"/><circle cx="2378" cy="1267" r="6"/><circle cx="2460" cy="1228" r="5"/><circle cx="2557" cy="1279" r="6"/><circle cx="-3" cy="1279" r="6"/><circle cx="67" cy="1329" r="4"/><circle cx="115" cy="1340" r="5"/><circle cx="214" cy="1356" r="5"/><circle cx="276" cy="1337" r="6"/><circle cx="392" cy="1352" r="5"/><circle cx="418" cy="1287" r="5"/><circle cx="559" cy="1293" r="6"/><circle cx="602" cy="1315" r="5"/><circle cx="675" cy="1288" r="6"/><circle cx="750" cy="1312" r="5"/><circle cx="879" cy="1324" r="5"/><circle cx="897" cy="1360" r="4"/><circle cx="1025" cy="1297" r="5"/><circle cx="1106" cy="1304" r="5"/><circle cx="1189" cy="1359" r="4"/><circle cx="1250" cy="1325" r="5"/><circle cx="1353" cy="1353" r="5"/><circle cx="1406" cy="1298" r="4"/><circle cx="1486" cy="1291" r="5"/><circle cx="1525" cy="1282" r="5"/><circle cx="1642" cy="1281" r="5"/><circle cx="1744" cy="1358" r="4"/><circle cx="1839" cy="1358" r="5"/><circle cx="1875" cy="1345" r="5"/><circle cx="1920" cy="1291" r="5"/><circle cx="2021" cy="1326" r="4"/><circle cx="2085" cy="1294" r="5"/><circle cx="2220" cy="1302" r="4"/><circle cx="2248" cy="1341" r="5"/><circle cx="2384" cy="1339" r="5"/><circle cx="2423" cy="1313" r="6"/><circle cx="2545" cy="1335" r="5"/><circle cx="26" cy="1382" r="4"/><circle cx="137" cy="1396" r="4"/><circle cx="239" cy="1429" r="6"/><circle cx="319" cy="1391" r="5"/><circle cx="335" cy="1437" r="5"/><circle cx="335" cy="-3" r="5"/><circle cx="478" cy="1399" r="4"/><circle cx="546" cy="1399" r="5"/><circle cx="595" cy="1429" r="6"/><circle cx="699" cy="1373" r="5"/><circle cx="721" cy="1419" r="5"/><circle cx="874" cy="1391" r="5"/><circle cx="929" cy="1376" r="5"/><circle cx="1027" cy="1362" r="4"/><circle cx="1100" cy="1403" r="5"/><circle cx="1174" cy="1398" r="5"/><circle cx="1277" cy="1437" r="6"/><circle cx="1277" cy="-3" r="6"/><circle cx="1304" cy="1413" r="6"/><circle cx="1394" cy="1388" r="5"/><circle cx="1485" cy="1384" r="4"/><circle cx="1553" cy="1401" r="6"/><circle cx="1623" cy="1377" r="4"/><circle cx="1695" cy="1440" r="6"/><circle cx="1695" cy="-0" r="6"/><circle cx="1765" cy="1397" r="4"/><circle cx="1851" cy="1420" r="4"/><circle cx="1967" cy="1384" r="5"/><circle cx="2031" cy="1384" r="6"/><circle cx="2152" cy="1372" r="6"/><circle cx="2222" cy="1381" r="4"/><circle cx="2300" cy="1415" r="6"/><circle cx="2376" cy="1430" r="6"/><circle cx="2443" cy="1396" r="5"/><circle cx="2502" cy="1411" r="5"/><path stroke="#fff" d="M49 12L81 18M49 12L-4 35M49 12L26 -58M2609 12L2556 35M49 1452L26 1382M81 18L-4 35M81 18L48 126M81 18L137 -44M2641 18L2556 35M81 1458L137 1396M211 74L256 19M211 74L152 101M211 74L164 140M211 74L254 99M211 74L239 -11M211 1514L239 1429M256 19L336 75M256 19L254 99M256 19L239 -11M256 19L335 -3M256 1459L239 1429M256 1459L335 1437M336 75L406 70M336 75L254 99M336 75L390 117M336 75L335 -3M336 1515L335 1437M406 70L390 117M406 70L462 149M406 70L335 -3M406 1510L335 1437M535 5L568 35M535 5L478 -41M535 5L546 -41M535 5L595 -11M535 1445L478 1399M535 1445L546 1399M535 1445L595 1429M568 35L602 115M568 35L546 -41M568 35L595 -11M568 1475L546 1399M568 1475L595 1429M665 63L747 41M665 63L602 115M665 63L667 157M665 63L725 130M665 63L595 -11M665 1503L595 1429M747 41L852 29M747 41L725 130M747 41L699 -67M747 41L721 -21M747 1481L699 1373M747 1481L721 1419M852 29L899 61M852 29L843 120M852 29L874 -49M852 1469L874 1391M899 61L843 120M899 61L884 130M899 61L874 -49M899 1501L874 1391M1033 17L1061 72M1033 17L1027 -78M1033 17L1100 -37M1033 1457L1027 1362M1033 1457L1100 1403M1061 72L1149 38M1061 72L989 130M1061 72L1091 131M1061 72L1060 163M1149 38L1234 22M1149 38L1182 131M1149 38L1100 -37M1149 38L1174 -42M1149 1478L1100 1403M1149 1478L1174 1398M1234 22L1174 -42M1234 22L1277 -3M1234 22L1304 -27M1234 1462L1174 1398M1234 1462L1277 1437M1234 1462L1304 1413M1360 55L1436 19M1360 55L1354 116M1360 55L1445 110M1360 55L1277 -3M1360 55L1304 -27M1360 1495L1277 1437M1360 1495L1304 1413M1436 19L1504 14M1436 19L1445 110M1436 19L1394 -52M1436 19L1485 -56M1436 1459L1394 1388M1436 1459L1485 1384M1504 14L1534 61M1504 14L1445 110M1504 14L1485 -56M1504 14L1553 -39M1504 1454L1485 1384M1504 1454L1553 1401M1534 61L1577 127M1534 61L1613 138M1534 61L1553 -39M1534 1501L1553 1401M1628 73L1706 10M1628 73L1577 127M1628 73L1613 138M1628 73L1698 119M1628 73L1695 -0M1628 1513L1695 1440M1706 10L1698 119M1706 10L1744 -82M1706 10L1695 -0M1706 10L1765 -43M1706 1450L1744 1358M1706 1450L1695 1440M1706 1450L1765 1397M1815 37L1891 21M1815 37L1822 136M1815 37L1842 92M1815 37L1851 -20M1815 1477L1851 1420M1891 21L1970 45M1891 21L1842 92M1891 21L1931 109M1891 21L1851 -20M1891 1461L1851 1420M1970 45L2004 70M1970 45L1931 109M1970 45L2016 93M1970 45L1967 -56M1970 1485L1967 1384M2004 70L1931 109M2004 70L2016 93M2004 70L2094 108M2108 27L2016 93M2108 27L2094 108M2108 27L2031 -56M2108 1467L2031 1384M2218 6L2263 75M2218 6L2248 -99M2218 6L2152 -68M2218 6L2222 -59M2218 6L2300 -25M2218 1446L2248 1341M2218 1446L2152 1372M2218 1446L2222 1381M2218 1446L2300 1415M2263 75L2206 132M2263 75L2251 137M2263 75L2266 161M2398 6L2425 2M2398 6L2370 105M2398 6L2300 -25M2398 6L2376 -10M2398 6L2443 -44M2398 1446L2300 1415M2398 1446L2376 1430M2398 1446L2443 1396M2425 2L2384 -101M2425 2L2376 -10M2425 2L2443 -44M2425 2L2502 -29M2425 1442L2384 1339M2425 1442L2376 1430M2425 1442L2443 1396M2425 1442L2502 1411M2556 35L2608 126M2556 35L2502 -29M-4 35L48 126M2556 1475L2502 1411M48 126L152 101M48 126L-14 160M48 126L62 195M2608 126L2546 160M152 101L164 140M152 101L254 99M164 140L142 215M164 140L187 224M390 117L462 149M390 117L467 165M462 149L505 135M462 149L467 165M462 149L494 225M505 135L602 115M505 135L467 165M505 135L494 225M505 135L578 223M602 115L667 157M602 115L678 168M667 157L725 130M667 157L678 168M667 157L694 251M725 130L678 168M725 130L793 163M843 120L884 130M843 120L793 163M884 130L793 163M884 130L838 205M884 130L920 208M989 130L1091 131M989 130L993 227M989 130L1060 163M1091 131L1182 131M1091 131L1060 163M1182 131L1256 139M1182 131L1177 197M1182 131L1235 204M1256 139L1354 116M1256 139L1177 197M1256 139L1235 204M1256 139L1305 214M1354 116L1438 130M1354 116L1445 110M1354 116L1305 214M1438 130L1445 110M1438 130L1419 228M1438 130L1461 221M1577 127L1613 138M1577 127L1563 230M1577 127L1672 206M1613 138L1698 119M1613 138L1672 206M1698 119L1672 206M1698 119L1718 217M1822 136L1842 92M1822 136L1836 185M1842 92L1836 185M1931 109L2016 93M1931 109L1903 193M2016 93L2094 108M2094 108L2206 132M2094 108L2099 207M2206 132L2251 137M2206 132L2209 169M2206 132L2266 161M2251 137L2209 169M2251 137L2266 161M2370 105L2420 131M2370 105L2368 217M2420 131L2368 217M2420 131L2461 211M2546 160L2622 195M2546 160L2461 211M2546 160L2509 231M2546 160L2553 267M-14 160L62 195M62 195L142 215M62 195L49 243M62 195L-7 267M2622 195L2553 267M142 215L187 224M142 215L49 243M142 215L151 302M187 224L151 302M187 224L248 245M289 234L359 240M289 234L248 245M289 234L361 304M359 240L248 245M359 240L361 304M359 240L460 243M359 240L391 324M467 165L494 225M467 165L460 243M494 225L578 223M494 225L460 243M578 223L678 168M578 223L542 317M578 223L575 298M678 168L694 251M793 163L838 205M793 163L752 251M838 205L920 208M838 205L850 264M838 205L892 267M920 208L993 227M920 208L850 264M920 208L892 267M993 227L1060 163M993 227L966 297M993 227L1083 257M1060 163L1083 257M1177 197L1235 204M1177 197L1169 293M1177 197L1206 278M1235 204L1305 214M1235 204L1206 278M1305 214L1354 276M1419 228L1461 221M1419 228L1354 276M1419 228L1383 298M1419 228L1453 320M1461 221L1563 230M1563 230L1563 298M1563 230L1631 298M1672 206L1718 217M1672 206L1631 298M1718 217L1750 312M1836 185L1903 193M1836 185L1893 253M1903 193L1963 230M1903 193L1893 253M1903 193L1987 243M1963 230L2003 202M1963 230L1893 253M1963 230L1987 243M2003 202L2099 207M2003 202L1987 243M2099 207L2209 169M2099 207L2092 283M2209 169L2266 161M2368 217L2461 211M2368 217L2283 249M2368 217L2331 309M2461 211L2509 231M2509 231L2455 319M2509 231L2553 267M2509 231L2504 348M49 243L-7 267M2609 243L2553 267M151 302L197 317M151 302L157 340M151 302L203 357M197 317L248 245M197 317L157 340M197 317L203 357M197 317L254 343M248 245L254 343M361 304L391 324M361 304L443 333M460 243L391 324M460 243L443 333M542 317L575 298M542 317L507 372M542 317L632 367M575 298L507 372M575 298L632 367M694 251L752 251M752 251L850 264M752 251L733 344M850 264L892 267M892 267L966 297M892 267L962 336M966 297L898 365M966 297L962 336M966 297L1071 353M1083 257L1169 293M1083 257L1071 353M1083 257L1120 340M1169 293L1206 278M1169 293L1120 340M1169 293L1259 341M1206 278L1120 340M1206 278L1259 341M1354 276L1383 298M1354 276L1423 326M1383 298L1453 320M1383 298L1291 363M1383 298L1423 326M1453 320L1423 326M1453 320L1462 393M1453 320L1526 374M1563 298L1631 298M1563 298L1526 374M1631 298L1666 354M1750 312L1801 314M1750 312L1666 354M1750 312L1716 398M1801 314L1893 253M1801 314L1833 399M1801 314L1844 389M1893 253L1987 243M1987 243L2062 316M2062 316L2092 283M2062 316L2051 338M2062 316L2156 331M2062 316L2079 404M2092 283L2051 338M2092 283L2156 331M2227 313L2283 249M2227 313L2156 331M2227 313L2238 323M2227 313L2320 341M2283 249L2331 309M2283 249L2238 323M2331 309L2320 341M2331 309L2364 364M2455 319L2364 364M2455 319L2432 324M2455 319L2504 348M2553 267L2504 348M12 373L-56 348M12 373L37 454M12 373L-17 473M2572 373L2504 348M2572 373L2543 473M157 340L203 357M157 340L254 343M157 340L225 402M203 357L254 343M203 357L225 402M254 343L225 402M391 324L443 333M391 324L397 410M443 333L507 372M443 333L397 410M507 372L533 426M632 367L663 379M632 367L626 453M632 367L666 424M663 379L733 344M663 379L626 453M663 379L666 424M663 379L730 430M733 344L821 377M733 344L730 430M821 377L898 365M821 377L825 464M821 377L909 409M898 365L962 336M898 365L909 409M962 336L1071 353M962 336L909 409M1071 353L1120 340M1071 353L1072 445M1259 341L1291 363M1259 341L1277 416M1291 363L1277 416M1291 363L1350 454M1291 363L1364 446M1423 326L1462 393M1462 393L1526 374M1462 393L1497 465M1526 374L1497 465M1526 374L1564 437M1666 354L1716 398M1666 354L1666 413M1716 398L1666 413M1716 398L1729 431M1716 398L1763 466M1833 399L1844 389M1833 399L1921 391M1833 399L1729 431M1833 399L1868 447M1844 389L1921 391M1844 389L1868 447M1921 391L1868 447M1921 391L1980 411M2051 338L1980 411M2051 338L2079 404M2156 331L2238 323M2238 323L2320 341M2238 323L2209 415M2320 341L2364 364M2320 341L2272 448M2364 364L2432 324M2364 364L2373 458M2432 324L2504 348M37 454L141 451M37 454L-17 473M37 454L76 525M2597 454L2543 473M141 451L225 402M141 451L129 519M141 451L204 523M225 402L275 459M275 459L204 523M275 459L318 558M397 410L444 477M444 477L384 512M444 477L473 482M444 477L535 495M444 477L410 562M533 426L473 482M533 426L535 495M533 426L607 484M626 453L666 424M626 453L607 484M666 424L730 430M666 424L607 484M730 430L825 464M730 430L747 533M825 464L909 409M825 464L747 533M825 464L866 531M909 409L982 446M982 446L1072 445M982 446L955 514M982 446L1018 534M1072 445L1123 466M1123 466L1117 540M1123 466L1194 532M1123 466L1080 566M1277 416L1350 454M1277 416L1364 446M1277 416L1291 504M1350 454L1364 446M1350 454L1291 504M1350 454L1407 490M1364 446L1291 504M1364 446L1407 490M1497 465L1564 437M1497 465L1494 484M1497 465L1555 543M1564 437L1666 413M1564 437L1494 484M1666 413L1729 431M1729 431L1763 466M1729 431L1742 515M1763 466L1742 515M1763 466L1821 527M1868 447L1821 527M1868 447L1853 548M1980 411L2079 404M1980 411L1948 509M1980 411L2054 497M2079 404L2147 439M2079 404L2054 497M2147 439L2209 415M2147 439L2155 489M2147 439L2178 490M2209 415L2272 448M2209 415L2155 489M2209 415L2178 490M2272 448L2373 458M2272 448L2178 490M2272 448L2292 559M2373 458L2462 476M2373 458L2370 559M2373 458L2416 530M2462 476L2543 473M2462 476L2416 530M2462 476L2484 547M2462 476L2519 574M2543 473L2636 525M2543 473L2484 547M-17 473L76 525M76 525L129 519M76 525L42 567M76 525L106 586M129 519L204 523M129 519L42 567M129 519L106 586M318 558L384 512M318 558L294 580M318 558L387 565M318 558L410 562M384 512L473 482M384 512L387 565M384 512L410 562M473 482L535 495M473 482L410 562M535 495L607 484M535 495L586 583M607 484L586 583M690 550L747 533M690 550L586 583M690 550L691 571M690 550L741 565M690 550L755 641M747 533L691 571M747 533L741 565M866 531L955 514M866 531L843 614M866 531L925 584M866 531L876 643M955 514L1018 534M955 514L925 584M955 514L1011 604M1018 534L1117 540M1018 534L1011 604M1018 534L1080 566M1117 540L1194 532M1117 540L1080 566M1117 540L1140 616M1194 532L1242 538M1194 532L1140 616M1194 532L1208 584M1242 538L1291 504M1242 538L1208 584M1407 490L1494 484M1407 490L1404 564M1494 484L1555 543M1494 484L1479 571M1555 543L1636 551M1555 543L1479 571M1555 543L1572 583M1636 551L1572 583M1636 551L1667 633M1636 551L1717 634M1636 551L1625 653M1742 515L1821 527M1821 527L1853 548M1821 527L1809 596M1853 548L1948 509M1853 548L1809 596M1853 548L1900 608M1948 509L2054 497M1948 509L1969 594M1948 509L2046 567M2054 497L2155 489M2054 497L2046 567M2155 489L2178 490M2292 559L2370 559M2292 559L2246 577M2292 559L2339 649M2370 559L2416 530M2370 559L2392 588M2370 559L2339 649M2416 530L2484 547M2416 530L2392 588M2484 547L2456 634M2484 547L2519 574M42 567L106 586M42 567L-41 574M42 567L112 652M2602 567L2519 574M106 586L112 652M106 586L177 676M207 639L294 580M207 639L112 652M207 639L177 676M207 639L249 684M207 639L240 760M294 580L387 565M294 580L249 684M387 565L410 562M555 630L586 583M555 630L470 666M555 630L492 681M555 630L620 691M586 583L691 571M691 571L741 565M691 571L755 641M741 565L843 614M741 565L755 641M843 614L925 584M843 614L755 641M843 614L876 643M925 584L1011 604M925 584L876 643M1011 604L1080 566M1011 604L1009 678M1080 566L1140 616M1140 616L1208 584M1140 616L1195 704M1360 591L1404 564M1360 591L1310 664M1360 591L1426 670M1360 591L1451 645M1404 564L1479 571M1404 564L1426 670M1404 564L1451 645M1479 571L1572 583M1479 571L1451 645M1572 583L1625 653M1667 633L1717 634M1667 633L1591 690M1667 633L1625 653M1667 633L1707 711M1717 634L1809 596M1717 634L1625 653M1717 634L1707 711M1809 596L1900 608M1809 596L1830 677M1900 608L1969 594M1900 608L1830 677M1969 594L2046 567M1969 594L1989 678M2157 620L2196 598M2157 620L2246 577M2157 620L2138 661M2157 620L2181 692M2196 598L2246 577M2196 598L2138 661M2196 598L2256 685M2246 577L2256 685M2392 588L2456 634M2392 588L2339 649M2392 588L2456 648M2456 634L2519 574M2456 634L2456 648M2519 574L2456 648M58 717L112 652M58 717L-39 705M58 717L15 765M58 717L112 778M2618 717L2521 705M112 652L177 676M177 676L249 684M177 676L240 760M249 684L240 760M369 685L470 666M369 685L492 681M369 685L390 767M470 666L492 681M470 666L430 768M470 666L514 755M492 681L430 768M492 681L514 755M620 691L704 693M620 691L610 741M704 693L755 641M704 693L610 741M704 693L644 781M704 693L726 747M876 643L916 709M876 643L819 746M916 709L1009 678M916 709L819 746M916 709L928 763M916 709L978 753M1009 678L1092 717M1009 678L978 753M1009 678L1079 752M1092 717L1195 704M1092 717L1079 752M1092 717L1173 750M1195 704L1256 689M1195 704L1173 750M1195 704L1225 787M1256 689L1310 664M1256 689L1317 779M1310 664L1426 670M1426 670L1451 645M1426 670L1436 728M1451 645L1436 728M1591 690L1625 653M1591 690L1582 771M1591 690L1600 802M1707 711L1667 747M1707 711L1754 756M1707 711L1816 721M1830 677L1919 693M1830 677L1816 721M1919 693L1989 678M1919 693L2006 698M1919 693L1908 759M1919 693L1950 746M1989 678L2006 698M1989 678L1950 746M2006 698L1908 759M2006 698L1950 746M2006 698L2059 746M2138 661L2181 692M2138 661L2113 724M2181 692L2256 685M2181 692L2113 724M2181 692L2182 786M2256 685L2339 649M2256 685L2275 748M2456 648L2521 705M2456 648L2490 748M2521 705L2575 765M2521 705L2455 746M2521 705L2490 748M-39 705L15 765M15 765L112 778M15 765L-70 748M15 765L-18 859M2575 765L2490 748M2575 765L2542 859M112 778L151 862M240 760L296 793M240 760L193 854M296 793L390 767M296 793L313 874M296 793L355 855M296 793L283 882M390 767L430 768M390 767L355 855M390 767L401 801M430 768L514 755M430 768L401 801M514 755L610 741M514 755L555 844M610 741L644 781M610 741L666 805M644 781L726 747M644 781L637 864M644 781L666 805M726 747L819 746M726 747L666 805M726 747L741 845M819 746L928 763M819 746L870 855M928 763L978 753M928 763L870 855M928 763L928 808M978 753L1079 752M978 753L928 808M1079 752L1173 750M1079 752L1064 868M1173 750L1225 787M1173 750L1209 840M1225 787L1317 779M1225 787L1191 850M1225 787L1209 840M1317 779L1315 841M1317 779L1372 809M1436 728L1449 792M1449 792L1372 809M1449 792L1453 848M1582 771L1667 747M1582 771L1600 802M1582 771L1658 827M1667 747L1754 756M1667 747L1600 802M1667 747L1658 827M1754 756L1816 721M1754 756L1824 812M1816 721L1908 759M1816 721L1824 812M1908 759L1950 746M1908 759L1824 812M1950 746L1999 826M2059 746L2113 724M2059 746L1999 826M2059 746L2078 815M2059 746L2080 817M2113 724L2182 786M2113 724L2078 815M2182 786L2275 748M2182 786L2078 815M2182 786L2237 875M2275 748L2347 763M2347 763L2455 746M2347 763L2367 849M2455 746L2490 748M40 873L151 862M40 873L-18 859M40 873L1 927M40 873L159 909M40 873L-33 894M2600 873L2542 859M2600 873L2527 894M151 862L193 854M151 862L159 909M151 862L203 903M193 854L159 909M193 854L203 903M193 854L283 882M313 874L355 855M313 874L283 882M313 874L340 942M355 855L401 801M355 855L283 882M555 844L637 864M555 844L517 935M555 844L673 896M637 864L666 805M637 864L673 896M637 864L723 901M666 805L741 845M741 845L673 896M741 845L723 901M870 855L928 808M870 855L872 960M870 855L918 902M928 808L1023 859M928 808L918 902M1023 859L1064 868M1023 859L973 930M1023 859L1116 922M1064 868L973 930M1064 868L1116 922M1064 868L1138 916M1191 850L1209 840M1191 850L1116 922M1191 850L1138 916M1191 850L1248 893M1209 840L1138 916M1209 840L1248 893M1315 841L1372 809M1315 841L1248 893M1315 841L1357 882M1372 809L1453 848M1372 809L1357 882M1453 848L1357 882M1453 848L1437 902M1600 802L1658 827M1600 802L1658 890M1658 827L1688 872M1658 827L1658 890M1688 872L1658 890M1688 872L1727 925M1824 812L1889 874M1824 812L1807 904M1889 874L1807 904M1889 874L1909 926M1889 874L1982 886M1999 826L2078 815M1999 826L2080 817M1999 826L1982 886M2078 815L2080 817M2237 875L2299 876M2237 875L2197 904M2237 875L2256 902M2299 876L2367 849M2299 876L2197 904M2299 876L2256 902M2299 876L2351 895M2367 849L2454 868M2367 849L2351 895M2454 868L2542 859M2454 868L2351 895M2454 868L2464 944M2454 868L2527 894M2542 859L2561 927M2542 859L2527 894M-18 859L1 927M1 927L-96 944M1 927L-33 894M1 927L-54 996M2561 927L2464 944M2561 927L2527 894M2561 927L2506 996M159 909L203 903M159 909L226 986M203 903L283 882M203 903L226 986M340 942L452 944M340 942L268 1001M340 942L397 1013M340 942L442 966M452 944L517 935M452 944L397 1013M452 944L442 966M517 935L442 966M517 935L526 1016M621 957L673 896M621 957L723 901M621 957L600 1028M673 896L723 901M723 901L761 1002M872 960L918 902M872 960L973 930M872 960L808 1034M872 960L936 978M918 902L973 930M918 902L936 978M973 930L936 978M1116 922L1138 916M1138 916L1202 992M1248 893L1202 992M1357 882L1437 902M1357 882L1335 992M1437 902L1468 948M1437 902L1419 989M1437 902L1511 977M1468 948L1551 914M1468 948L1419 989M1468 948L1511 977M1468 948L1459 1045M1551 914L1658 890M1551 914L1511 977M1658 890L1727 925M1727 925L1807 904M1727 925L1784 981M1807 904L1909 926M1807 904L1784 981M1909 926L1982 886M1909 926L1919 1020M1982 886L2060 957M1982 886L2019 967M2060 957L2102 956M2060 957L2019 967M2102 956L2019 967M2102 956L2156 1020M2102 956L2193 989M2197 904L2256 902M2197 904L2193 989M2197 904L2261 982M2256 902L2351 895M2256 902L2261 982M2351 895L2421 981M2464 944L2527 894M2464 944L2421 981M2464 944L2506 996M75 1034L123 1033M75 1034L31 1119M75 1034L144 1070M75 1034L50 1124M123 1033L144 1070M226 986L268 1001M226 986L247 1062M268 1001L209 1085M268 1001L247 1062M397 1013L442 966M397 1013L335 1108M397 1013L453 1084M442 966L526 1016M526 1016L600 1028M526 1016L453 1084M526 1016L515 1044M600 1028L515 1044M600 1028L630 1066M600 1028L667 1072M715 1037L761 1002M715 1037L808 1034M715 1037L630 1066M715 1037L667 1072M715 1037L725 1077M761 1002L808 1034M761 1002L725 1077M761 1002L823 1068M808 1034L725 1077M808 1034L823 1068M936 978L1047 1024M1033 1019L1047 1024M1033 1019L965 1095M1047 1024L965 1095M1047 1024L1118 1075M1047 1024L1145 1065M1190 1024L1202 992M1190 1024L1118 1075M1190 1024L1145 1065M1190 1024L1202 1059M1202 992L1145 1065M1202 992L1202 1059M1335 992L1419 989M1335 992L1417 1088M1419 989L1459 1045M1511 977L1598 1032M1511 977L1459 1045M1598 1032L1639 1038M1598 1032L1692 1035M1598 1032L1548 1108M1598 1032L1606 1078M1639 1038L1692 1035M1639 1038L1606 1078M1639 1038L1715 1053M1639 1038L1643 1125M1692 1035L1606 1078M1692 1035L1715 1053M1692 1035L1748 1125M1784 981L1715 1053M1784 981L1826 1084M1919 1020L1951 1034M1919 1020L1875 1075M1919 1020L1992 1069M1951 1034L2019 967M1951 1034L1875 1075M1951 1034L1992 1069M1951 1034L2041 1045M2019 967L2041 1045M2156 1020L2193 989M2156 1020L2114 1096M2156 1020L2197 1053M2193 989L2261 982M2193 989L2197 1053M2261 982L2197 1053M2261 982L2260 1066M2390 1028L2421 981M2390 1028L2506 996M2390 1028L2352 1096M2390 1028L2434 1107M2421 981L2506 996M2506 996L2531 1085M31 1119L-29 1085M31 1119L50 1124M31 1119L115 1154M31 1119L77 1212M2591 1119L2531 1085M144 1070L209 1085M144 1070L115 1154M209 1085L247 1062M209 1085L187 1166M209 1085L297 1128M247 1062L335 1108M247 1062L297 1128M335 1108L297 1128M335 1108L368 1138M453 1084L515 1044M453 1084L368 1138M630 1066L667 1072M630 1066L569 1136M667 1072L725 1077M667 1072L710 1142M725 1077L710 1142M823 1068L880 1136M940 1120L965 1095M940 1120L880 1136M940 1120L903 1193M940 1120L984 1135M940 1120L895 1211M965 1095L984 1135M1118 1075L1145 1065M1118 1075L1202 1059M1118 1075L1174 1162M1145 1065L1202 1059M1202 1059L1286 1118M1286 1118L1264 1198M1286 1118L1297 1138M1286 1118L1394 1140M1417 1088L1459 1045M1417 1088L1394 1140M1417 1088L1481 1167M1548 1108L1606 1078M1548 1108L1481 1167M1548 1108L1543 1159M1548 1108L1643 1125M1606 1078L1643 1125M1715 1053L1748 1125M1826 1084L1875 1075M1826 1084L1748 1125M1826 1084L1829 1157M1826 1084L1874 1150M1875 1075L1874 1150M1875 1075L1958 1138M1992 1069L2041 1045M1992 1069L1958 1138M1992 1069L2042 1122M2041 1045L2114 1096M2041 1045L2042 1122M2114 1096L2197 1053M2114 1096L2042 1122M2114 1096L2106 1186M2197 1053L2260 1066M2260 1066L2352 1096M2260 1066L2220 1176M2352 1096L2434 1107M2352 1096L2390 1185M2352 1096L2442 1121M2434 1107L2390 1185M2434 1107L2442 1121M2434 1107L2495 1181M2531 1085L2610 1124M2531 1085L2442 1121M2531 1085L2495 1181M-29 1085L50 1124M50 1124L115 1154M50 1124L77 1212M115 1154L187 1166M115 1154L77 1212M187 1166L204 1267M297 1128L368 1138M297 1128L279 1238M368 1138L406 1190M368 1138L341 1215M406 1190L341 1215M406 1190L479 1207M406 1190L501 1222M406 1190L418 1287M517 1173L569 1136M517 1173L479 1207M517 1173L501 1222M569 1136L479 1207M569 1136L501 1222M569 1136L598 1245M710 1142L748 1193M710 1142L780 1209M748 1193L657 1244M748 1193L780 1209M748 1193L848 1208M880 1136L903 1193M880 1136L848 1208M880 1136L895 1211M903 1193L984 1135M903 1193L848 1208M903 1193L895 1211M984 1135L1060 1177M984 1135L1025 1214M1060 1177L1174 1162M1060 1177L1025 1214M1060 1177L1095 1270M1174 1162L1264 1198M1174 1162L1160 1275M1264 1198L1297 1138M1264 1198L1277 1224M1297 1138L1394 1140M1297 1138L1277 1224M1394 1140L1481 1167M1394 1140L1361 1242M1481 1167L1543 1159M1481 1167L1501 1262M1543 1159L1643 1125M1543 1159L1501 1262M1543 1159L1560 1249M1643 1125L1748 1125M1748 1125L1829 1157M1829 1157L1874 1150M1829 1157L1798 1233M1829 1157L1856 1229M1874 1150L1958 1138M1874 1150L1856 1229M1958 1138L2042 1122M1958 1138L1958 1213M2042 1122L2106 1186M2106 1186L2072 1252M2106 1186L2121 1279M2106 1186L2182 1259M2220 1176L2278 1183M2220 1176L2182 1259M2220 1176L2278 1214M2278 1183L2278 1214M2390 1185L2442 1121M2390 1185L2378 1267M2390 1185L2460 1228M2442 1121L2495 1181M2495 1181L2460 1228M77 1212L126 1246M77 1212L-3 1279M2637 1212L2557 1279M126 1246L204 1267M126 1246L115 1340M204 1267L279 1238M204 1267L214 1356M204 1267L276 1337M279 1238L341 1215M279 1238L276 1337M341 1215L418 1287M479 1207L501 1222M479 1207L418 1287M501 1222L559 1293M598 1245L657 1244M598 1245L559 1293M598 1245L602 1315M598 1245L675 1288M657 1244L559 1293M657 1244L602 1315M657 1244L675 1288M780 1209L848 1208M780 1209L895 1211M780 1209L750 1312M848 1208L895 1211M1025 1214L1095 1270M1025 1214L1025 1297M1095 1270L1160 1275M1095 1270L1025 1297M1095 1270L1106 1304M1160 1275L1106 1304M1160 1275L1189 1359M1160 1275L1250 1325M1277 1224L1359 1258M1277 1224L1361 1242M1277 1224L1250 1325M1359 1258L1361 1242M1359 1258L1353 1353M1359 1258L1406 1298M1361 1242L1353 1353M1361 1242L1406 1298M1501 1262L1560 1249M1501 1262L1486 1291M1501 1262L1525 1282M1560 1249L1486 1291M1560 1249L1525 1282M1560 1249L1642 1281M1671 1264L1693 1272M1671 1264L1798 1233M1671 1264L1642 1281M1671 1264L1623 1377M1693 1272L1798 1233M1693 1272L1642 1281M1693 1272L1744 1358M1693 1272L1623 1377M1798 1233L1856 1229M1856 1229L1958 1213M1856 1229L1920 1291M1958 1213L1920 1291M2072 1252L2121 1279M2072 1252L2182 1259M2072 1252L2021 1326M2072 1252L2085 1294M2121 1279L2182 1259M2121 1279L2085 1294M2121 1279L2152 1372M2182 1259L2220 1302M2278 1214L2378 1267M2278 1214L2220 1302M2378 1267L2460 1228M2378 1267L2384 1339M2378 1267L2423 1313M2460 1228L2557 1279M2460 1228L2423 1313M2557 1279L2627 1329M2557 1279L2545 1335M-3 1279L67 1329M67 1329L115 1340M67 1329L-15 1335M67 1329L26 1382M67 1329L137 1396M2627 1329L2545 1335M115 1340L214 1356M115 1340L26 1382M115 1340L137 1396M214 1356L276 1337M214 1356L137 1396M214 1356L239 1429M276 1337L239 1429M276 1337L319 1391M392 1352L418 1287M392 1352L319 1391M392 1352L335 1437M392 1352L478 1399M559 1293L602 1315M559 1293L546 1399M602 1315L675 1288M675 1288L750 1312M675 1288L699 1373M750 1312L879 1324M750 1312L699 1373M750 1312L721 1419M879 1324L897 1360M879 1324L874 1391M879 1324L929 1376M897 1360L874 1391M897 1360L929 1376M1025 1297L1106 1304M1025 1297L929 1376M1025 1297L1027 1362M1106 1304L1027 1362M1106 1304L1100 1403M1189 1359L1250 1325M1189 1359L1174 1398M1353 1353L1406 1298M1353 1353L1304 1413M1353 1353L1394 1388M1406 1298L1486 1291M1406 1298L1394 1388M1486 1291L1525 1282M1486 1291L1485 1384M1525 1282L1553 1401M1642 1281L1623 1377M1744 1358L1839 1358M1744 1358L1695 1440M1744 1358L1765 1397M1839 1358L1875 1345M1839 1358L1920 1291M1839 1358L1765 1397M1839 1358L1851 1420M1875 1345L1920 1291M1875 1345L1851 1420M1875 1345L1967 1384M1920 1291L1967 1384M2021 1326L2085 1294M2021 1326L1967 1384M2021 1326L2031 1384M2085 1294L2031 1384M2220 1302L2248 1341M2220 1302L2152 1372M2220 1302L2222 1381M2248 1341L2152 1372M2248 1341L2222 1381M2248 1341L2300 1415M2384 1339L2423 1313M2384 1339L2376 1430M2423 1313L2443 1396M2545 1335L2586 1382M2545 1335L2502 1411M-15 1335L26 1382M26 1382L-58 1411M2586 1382L2502 1411M239 1429L319 1391M319 1391L335 1437M478 1399L546 1399M546 1399L595 1429M595 1429L699 1373M699 1373L721 1419M874 1391L929 1376M929 1376L1027 1362M1027 1362L1100 1403M1100 1403L1174 1398M1174 1398L1277 1437M1277 1437L1304 1413M1304 1413L1394 1388M1394 1388L1485 1384M1485 1384L1553 1401M1553 1401L1623 1377M1623 1377L1695 1440M1695 1440L1765 1397M1765 1397L1851 1420M1967 1384L2031 1384M2152 1372L2222 1381M2222 1381L2300 1415M2300 1415L2376 1430M2376 1430L2443 1396M2443 1396L2502 1411"/></svg>