<svg xmlns="http://www.w3.org/2000/svg" width="2560" height="1440" fill="#fff"><circle cx="11" cy="62" r="5"/><circle cx="108" cy="19" r="4"/><circle cx="173" cy="46" r="5"/><circle cx="276" cy="3" r="6"/><circle cx="276" cy="1443" r="6"/><circle cx="382" cy="34" r="6"/><circle cx="400" cy="19" r="5"/><circle cx="497" cy="13" r="5"/><circle cx="633" cy="36" r="4"/><circle cx="676" cy="57" r="6"/><circle cx="761" cy="65" r="5"/><circle cx="809" cy="15" r="5"/><circle cx="888" cy="41" r="5"/><circle cx="1026" cy="24" r="4"/><circle cx="1109" cy="60" r="5"/><circle cx="1147" cy="40" r="5"/><circle cx="1222" cy="12" r="4"/><circle cx="1294" cy="25" r="6"/><circle cx="1432" cy="4" r="4"/><circle cx="1432" cy="1444" r="4"/><circle cx="1473" cy="64" r="5"/><circle cx="1541" cy="73" r="5"/><circle cx="1662" cy="72" r="5"/><circle cx="1696" cy="59" r="4"/><circle cx="1784" cy="35" r="5"/><circle cx="1884" cy="13" r="5"/><circle cx="1920" cy="21" r="6"/><circle cx="2071" cy="29" r="5"/><circle cx="2115" cy="55" r="5"/><circle cx="2183" cy="77" r="5"/><circle cx="2250" cy="50" r="5"/><circle cx="2391" cy="12" r="6"/><circle cx="2461" cy="45" r="5"/><circle cx="2539" cy="31" r="6"/><circle cx="16" cy="91" r="6"/><circle cx="106" cy="126" r="5"/><circle cx="221" cy="91" r="4"/><circle cx="255" cy="108" r="6"/><circle cx="329" cy="104" r="6"/><circle cx="449" cy="146" r="4"/><circle cx="496" cy="113" r="5"/><circle cx="616" cy="97" r="6"/><circle cx="699" cy="144" r="5"/><circle cx="743" cy="140" r="4"/><circle cx="818" cy="94" r="5"/><circle cx="883" cy="120" r="5"/><circle cx="1003" cy="106" r="5"/><circle cx="1045" cy="131" r="5"/><circle cx="1158" cy="142" r="5"/><circle cx="1278" cy="114" r="6"/><circle cx="1324" cy="117" r="5"/><circle cx="1427" cy="81" r="5"/><circle cx="1488" cy="137" r="5"/><circle cx="1585" cy="117" r="5"/><circle cx="1674" cy="130" r="5"/><circle cx="1695" cy="155" r="4"/><circle cx="1774" cy="157" r="5"/><circle cx="1910" cy="146" r="5"/><circle cx="1948" cy="89" r="4"/><circle cx="2052" cy="127" r="5"/><circle cx="2145" cy="117" r="5"/><circle cx="2176" cy="142" r="5"/><circle cx="2311" cy="81" r="5"/><circle cx="2363" cy="156" r="6"/><circle cx="2425" cy="130" r="5"/><circle cx="2496" cy="126" r="5"/><circle cx="70" cy="227" r="6"/><circle cx="99" cy="165" r="5"/><circle cx="227" cy="236" r="6"/><circle cx="250" cy="187" r="6"/><circle cx="366" cy="222" r="5"/><circle cx="456" cy="217" r="4"/><circle cx="524" cy="189" r="4"/><circle cx="624" cy="217" r="4"/><circle cx="642" cy="186" r="4"/><circle cx="766" cy="189" r="6"/><circle cx="822" cy="231" r="4"/><circle cx="896" cy="199" r="6"/><circle cx="997" cy="179" r="5"/><circle cx="1083" cy="202" r="4"/><circle cx="1127" cy="234" r="5"/><circle cx="1278" cy="165" r="6"/><circle cx="1338" cy="192" r="6"/><circle cx="1407" cy="225" r="5"/><circle cx="1518" cy="229" r="6"/><circle cx="1533" cy="222" r="5"/><circle cx="1605" cy="161" r="6"/><circle cx="1752" cy="163" r="5"/><circle cx="1792" cy="233" r="5"/><circle cx="1882" cy="177" r="5"/><circle cx="1987" cy="222" r="4"/><circle cx="2060" cy="166" r="4"/><circle cx="2155" cy="218" r="5"/><circle cx="2198" cy="191" r="5"/><circle cx="2240" cy="189" r="5"/><circle cx="2336" cy="191" r="4"/><circle cx="2442" cy="192" r="5"/><circle cx="2484" cy="208" r="6"/><circle cx="30" cy="315" r="5"/><circle cx="148" cy="313" r="4"/><circle cx="238" cy="301" r="4"/><circle cx="289" cy="297" r="6"/><circle cx="368" cy="292" r="6"/><circle cx="431" cy="293" r="5"/><circle cx="485" cy="290" r="5"/><circle cx="600" cy="267" r="5"/><circle cx="659" cy="270" r="4"/><circle cx="781" cy="280" r="5"/><circle cx="867" cy="305" r="5"/><circle cx="902" cy="268" r="5"/><circle cx="1033" cy="318" r="5"/><circle cx="1046" cy="306" r="4"/><circle cx="1177" cy="258" r="6"/><circle cx="1264" cy="301" r="5"/><circle cx="1352" cy="265" r="4"/><circle cx="1432" cy="293" r="4"/><circle cx="1500" cy="302" r="4"/><circle cx="1523" cy="262" r="4"/><circle cx="1651" cy="245" r="5"/><circle cx="1709" cy="277" r="5"/><circle cx="1763" cy="259" r="6"/><circle cx="1862" cy="298" r="4"/><circle cx="1989" cy="293" r="5"/><circle cx="2058" cy="244" r="5"/><circle cx="2140" cy="253" r="5"/><circle cx="2190" cy="314" r="4"/><circle cx="2303" cy="293" r="5"/><circle cx="2368" cy="281" r="4"/><circle cx="2477" cy="290" r="4"/><circle cx="2495" cy="320" r="4"/><circle cx="70" cy="387" r="6"/><circle cx="127" cy="385" r="6"/><circle cx="163" cy="370" r="6"/><circle cx="317" cy="348" r="6"/><circle cx="343" cy="359" r="5"/><circle cx="454" cy="375" r="4"/><circle cx="542" cy="397" r="5"/><circle cx="591" cy="328" r="5"/><circle cx="660" cy="379" r="5"/><circle cx="736" cy="361" r="6"/><circle cx="845" cy="391" r="4"/><circle cx="886" cy="383" r="6"/><circle cx="1040" cy="358" r="6"/><circle cx="1064" cy="354" r="5"/><circle cx="1130" cy="355" r="5"/><circle cx="1249" cy="378" r="6"/><circle cx="1306" cy="339" r="5"/><circle cx="1389" cy="324" r="5"/><circle cx="1449" cy="393" r="6"/><circle cx="1564" cy="354" r="6"/><circle cx="1648" cy="334" r="5"/><circle cx="1748" cy="369" r="5"/><circle cx="1826" cy="350" r="6"/><circle cx="1871" cy="375" r="5"/><circle cx="1994" cy="338" r="6"/><circle cx="2003" cy="337" r="4"/><circle cx="2124" cy="330" r="6"/><circle cx="2179" cy="329" r="4"/><circle cx="2296" cy="397" r="4"/><circle cx="2379" cy="351" r="6"/><circle cx="2480" cy="395" r="4"/><circle cx="2539" cy="357" r="4"/><circle cx="33" cy="440" r="5"/><circle cx="156" cy="442" r="5"/><circle cx="220" cy="421" r="6"/><circle cx="308" cy="405" r="6"/><circle cx="388" cy="455" r="4"/><circle cx="431" cy="425" r="4"/><circle cx="538" cy="456" r="5"/><circle cx="581" cy="413" r="4"/><circle cx="643" cy="437" r="6"/><circle cx="786" cy="455" r="6"/><circle cx="862" cy="409" r="6"/><circle cx="937" cy="440" r="6"/><circle cx="962" cy="476" r="5"/><circle cx="1051" cy="405" r="5"/><circle cx="1185" cy="438" r="6"/><circle cx="1266" cy="435" r="4"/><circle cx="1337" cy="439" r="4"/><circle cx="1428" cy="409" r="4"/><circle cx="1464" cy="432" r="6"/><circle cx="1571" cy="438" r="4"/><circle cx="1657" cy="468" r="4"/><circle cx="1716" cy="447" r="4"/><circle cx="1823" cy="434" r="5"/><circle cx="1880" cy="416" r="5"/><circle cx="1982" cy="459" r="6"/><circle cx="2065" cy="414" r="5"/><circle cx="2081" cy="443" r="5"/><circle cx="2222" cy="421" r="5"/><circle cx="2254" cy="411" r="5"/><circle cx="2336" cy="475" r="5"/><circle cx="2431" cy="418" r="5"/><circle cx="2535" cy="472" r="5"/><circle cx="74" cy="550" r="4"/><circle cx="109" cy="500" r="5"/><circle cx="186" cy="553" r="6"/><circle cx="274" cy="486" r="5"/><circle cx="340" cy="499" r="5"/><circle cx="412" cy="498" r="6"/><circle cx="498" cy="526" r="5"/><circle cx="575" cy="548" r="5"/><circle cx="694" cy="545" r="5"/><circle cx="723" cy="489" r="5"/><circle cx="854" cy="536" r="4"/><circle cx="940" cy="484" r="5"/><circle cx="1017" cy="526" r="4"/><circle cx="1054" cy="542" r="5"/><circle cx="1142" cy="481" r="5"/><circle cx="1275" cy="555" r="4"/><circle cx="1303" cy="521" r="5"/><circle cx="1401" cy="535" r="5"/><circle cx="1452" cy="489" r="5"/><circle cx="1581" cy="523" r="6"/><circle cx="1675" cy="500" r="5"/><circle cx="1709" cy="489" r="4"/><circle cx="1800" cy="484" r="4"/><circle cx="1885" cy="483" r="5"/><circle cx="1979" cy="492" r="5"/><circle cx="2026" cy="516" r="5"/><circle cx="2104" cy="547" r="5"/><circle cx="2196" cy="515" r="4"/><circle cx="2312" cy="529" r="6"/><circle cx="2334" cy="547" r="5"/><circle cx="2461" cy="532" r="5"/><circle cx="2495" cy="539" r="5"/><circle cx="17" cy="568" r="5"/><circle cx="84" cy="597" r="6"/><circle cx="187" cy="566" r="6"/><circle cx="285" cy="637" r="5"/><circle cx="397" cy="573" r="6"/><circle cx="428" cy="575" r="6"/><circle cx="554" cy="635" r="4"/><circle cx="620" cy="569" r="4"/><circle cx="689" cy="581" r="4"/><circle cx="794" cy="563" r="5"/><circle cx="846" cy="592" r="5"/><circle cx="910" cy="613" r="5"/><circle cx="995" cy="608" r="5"/><circle cx="1063" cy="633" r="4"/><circle cx="1122" cy="631" r="5"/><circle cx="1206" cy="623" r="5"/><circle cx="1329" cy="608" r="5"/><circle cx="1389" cy="579" r="6"/><circle cx="1476" cy="631" r="4"/><circle cx="1573" cy="617" r="5"/><circle cx="1670" cy="590" r="6"/><circle cx="1739" cy="569" r="5"/><circle cx="1774" cy="577" r="5"/><circle cx="1890" cy="577" r="4"/><circle cx="1940" cy="622" r="5"/><circle cx="2053" cy="566" r="5"/><circle cx="2106" cy="611" r="4"/><circle cx="2226" cy="630" r="6"/><circle cx="2263" cy="587" r="4"/><circle cx="2391" cy="617" r="5"/><circle cx="2437" cy="625" r="5"/><circle cx="2552" cy="621" r="5"/><circle cx="37" cy="668" r="4"/><circle cx="83" cy="716" r="5"/><circle cx="224" cy="654" r="5"/><circle cx="305" cy="677" r="5"/><circle cx="359" cy="642" r="5"/><circle cx="402" cy="681" r="4"/><circle cx="537" cy="657" r="5"/><circle cx="594" cy="682" r="5"/><circle cx="702" cy="699" r="5"/><circle cx="791" cy="643" r="4"/><circle cx="864" cy="687" r="5"/><circle cx="911" cy="672" r="6"/><circle cx="995" cy="709" r="5"/><circle cx="1116" cy="658" r="5"/><circle cx="1163" cy="711" r="5"/><circle cx="1272" cy="687" r="5"/><circle cx="1325" cy="667" r="4"/><circle cx="1396" cy="716" r="5"/><circle cx="1499" cy="715" r="5"/><circle cx="1548" cy="662" r="5"/><circle cx="1668" cy="652" r="4"/><circle cx="1737" cy="670" r="5"/><circle cx="1817" cy="671" r="6"/><circle cx="1874" cy="659" r="4"/><circle cx="1952" cy="713" r="6"/><circle cx="2016" cy="689" r="5"/><circle cx="2099" cy="714" r="6"/><circle cx="2160" cy="655" r="5"/><circle cx="2294" cy="714" r="6"/><circle cx="2390" cy="702" r="6"/><circle cx="2450" cy="704" r="5"/><circle cx="2495" cy="645" r="5"/><circle cx="76" cy="792" r="5"/><circle cx="132" cy="740" r="5"/><circle cx="175" cy="748" r="5"/><circle cx="263" cy="766" r="6"/><circle cx="370" cy="762" r="4"/><circle cx="465" cy="752" r="6"/><circle cx="497" cy="772" r="5"/><circle cx="638" cy="745" r="6"/><circle cx="664" cy="775" r="5"/><circle cx="772" cy="798" r="5"/><circle cx="822" cy="798" r="6"/><circle cx="893" cy="775" r="5"/><circle cx="968" cy="792" r="6"/><circle cx="1102" cy="764" r="6"/><circle cx="1120" cy="762" r="4"/><circle cx="1229" cy="791" r="6"/><circle cx="1342" cy="769" r="5"/><circle cx="1423" cy="771" r="5"/><circle cx="1511" cy="761" r="6"/><circle cx="1523" cy="753" r="5"/><circle cx="1666" cy="728" r="4"/><circle cx="1726" cy="779" r="4"/><circle cx="1807" cy="734" r="6"/><circle cx="1847" cy="721" r="4"/><circle cx="1927" cy="748" r="4"/><circle cx="2068" cy="757" r="5"/><circle cx="2091" cy="774" r="5"/><circle cx="2227" cy="768" r="5"/><circle cx="2292" cy="784" r="6"/><circle cx="2347" cy="763" r="4"/><circle cx="2441" cy="753" r="4"/><circle cx="2547" cy="762" r="4"/><circle cx="12" cy="818" r="4"/><circle cx="135" cy="875" r="4"/><circle cx="176" cy="818" r="4"/><circle cx="320" cy="877" r="6"/><circle cx="381" cy="832" r="4"/><circle cx="443" cy="870" r="5"/><circle cx="547" cy="822" r="5"/><circle cx="572" cy="804" r="4"/><circle cx="647" cy="818" r="4"/><circle cx="792" cy="834" r="6"/><circle cx="809" cy="877" r="5"/><circle cx="885" cy="847" r="5"/><circle cx="1012" cy="851" r="6"/><circle cx="1118" cy="829" r="4"/><circle cx="1144" cy="840" r="5"/><circle cx="1273" cy="813" r="5"/><circle cx="1314" cy="874" r="6"/><circle cx="1429" cy="816" r="4"/><circle cx="1492" cy="850" r="4"/><circle cx="1575" cy="804" r="6"/><circle cx="1608" cy="850" r="5"/><circle cx="1754" cy="833" r="5"/><circle cx="1839" cy="831" r="5"/><circle cx="1915" cy="810" r="5"/><circle cx="1955" cy="846" r="5"/><circle cx="2070" cy="848" r="5"/><circle cx="2101" cy="855" r="6"/><circle cx="2217" cy="853" r="5"/><circle cx="2307" cy="878" r="4"/><circle cx="2327" cy="816" r="5"/><circle cx="2416" cy="843" r="4"/><circle cx="2487" cy="821" r="5"/><circle cx="70" cy="912" r="4"/><circle cx="91" cy="957" r="5"/><circle cx="169" cy="901" r="4"/><circle cx="286" cy="938" r="5"/><circle cx="384" cy="898" r="5"/><circle cx="433" cy="913" r="4"/><circle cx="539" cy="912" r="5"/><circle cx="637" cy="911" r="5"/><circle cx="719" cy="904" r="4"/><circle cx="765" cy="933" r="5"/><circle cx="860" cy="943" r="5"/><circle cx="916" cy="922" r="6"/><circle cx="1015" cy="924" r="5"/><circle cx="1044" cy="910" r="4"/><circle cx="1196" cy="898" r="4"/><circle cx="1243" cy="955" r="5"/><circle cx="1314" cy="894" r="5"/><circle cx="1426" cy="957" r="5"/><circle cx="1490" cy="883" r="5"/><circle cx="1554" cy="894" r="5"/><circle cx="1666" cy="928" r="6"/><circle cx="1695" cy="950" r="5"/><circle cx="1803" cy="935" r="5"/><circle cx="1905" cy="905" r="5"/><circle cx="1975" cy="912" r="4"/><circle cx="2071" cy="955" r="6"/><circle cx="2100" cy="899" r="6"/><circle cx="2170" cy="922" r="5"/><circle cx="2272" cy="900" r="4"/><circle cx="2386" cy="916" r="6"/><circle cx="2469" cy="914" r="5"/><circle cx="2499" cy="889" r="5"/><circle cx="35" cy="1029" r="6"/><circle cx="159" cy="963" r="5"/><circle cx="166" cy="1036" r="4"/><circle cx="312" cy="1001" r="5"/><circle cx="323" cy="969" r="4"/><circle cx="404" cy="1018" r="5"/><circle cx="557" cy="1005" r="5"/><circle cx="629" cy="990" r="5"/><circle cx="712" cy="1013" r="5"/><circle cx="780" cy="982" r="5"/><circle cx="829" cy="1022" r="6"/><circle cx="911" cy="971" r="6"/><circle cx="1034" cy="1004" r="5"/><circle cx="1040" cy="1020" r="5"/><circle cx="1159" cy="962" r="4"/><circle cx="1245" cy="1023" r="5"/><circle cx="1307" cy="994" r="4"/><circle cx="1399" cy="988" r="4"/><circle cx="1462" cy="962" r="5"/><circle cx="1571" cy="1018" r="5"/><circle cx="1635" cy="974" r="6"/><circle cx="1719" cy="990" r="4"/><circle cx="1798" cy="976" r="4"/><circle cx="1849" cy="1015" r="6"/><circle cx="1984" cy="987" r="6"/><circle cx="2074" cy="996" r="5"/><circle cx="2153" cy="1026" r="5"/><circle cx="2171" cy="988" r="5"/><circle cx="2305" cy="984" r="5"/><circle cx="2344" cy="982" r="5"/><circle cx="2479" cy="1033" r="4"/><circle cx="2554" cy="1019" r="4"/><circle cx="52" cy="1067" r="5"/><circle cx="97" cy="1069" r="5"/><circle cx="163" cy="1078" r="5"/><circle cx="303" cy="1056" r="4"/><circle cx="370" cy="1108" r="4"/><circle cx="457" cy="1089" r="4"/><circle cx="558" cy="1090" r="6"/><circle cx="608" cy="1100" r="6"/><circle cx="657" cy="1117" r="6"/><circle cx="744" cy="1101" r="4"/><circle cx="841" cy="1074" r="4"/><circle cx="929" cy="1071" r="6"/><circle cx="981" cy="1085" r="4"/><circle cx="1093" cy="1041" r="4"/><circle cx="1141" cy="1094" r="5"/><circle cx="1256" cy="1052" r="5"/><circle cx="1353" cy="1098" r="4"/><circle cx="1410" cy="1070" r="5"/><circle cx="1455" cy="1076" r="4"/><circle cx="1592" cy="1062" r="4"/><circle cx="1604" cy="1048" r="4"/><circle cx="1727" cy="1089" r="5"/><circle cx="1821" cy="1103" r="5"/><circle cx="1919" cy="1084" r="4"/><circle cx="1937" cy="1080" r="6"/><circle cx="2047" cy="1116" r="5"/><circle cx="2118" cy="1071" r="6"/><circle cx="2187" cy="1074" r="5"/><circle cx="2279" cy="1068" r="4"/><circle cx="2349" cy="1112" r="5"/><circle cx="2418" cy="1073" r="5"/><circle cx="2541" cy="1115" r="5"/><circle cx="36" cy="1125" r="5"/><circle cx="135" cy="1130" r="5"/><circle cx="201" cy="1188" r="6"/><circle cx="259" cy="1180" r="5"/><circle cx="338" cy="1157" r="4"/><circle cx="400" cy="1173" r="4"/><circle cx="538" cy="1194" r="6"/><circle cx="601" cy="1184" r="6"/><circle cx="692" cy="1158" r="5"/><circle cx="766" cy="1139" r="5"/><circle cx="801" cy="1160" r="5"/><circle cx="933" cy="1144" r="5"/><circle cx="994" cy="1159" r="6"/><circle cx="1041" cy="1140" r="5"/><circle cx="1169" cy="1157" r="4"/><circle cx="1277" cy="1162" r="4"/><circle cx="1360" cy="1153" r="5"/><circle cx="1439" cy="1133" r="5"/><circle cx="1492" cy="1134" r="5"/><circle cx="1591" cy="1161" r="6"/><circle cx="1600" cy="1152" r="6"/><circle cx="1740" cy="1139" r="6"/><circle cx="1802" cy="1169" r="4"/><circle cx="1897" cy="1194" r="5"/><circle cx="1929" cy="1180" r="5"/><circle cx="2078" cy="1122" r="4"/><circle cx="2143" cy="1122" r="5"/><circle cx="2221" cy="1191" r="6"/><circle cx="2320" cy="1135" r="5"/><circle cx="2369" cy="1135" r="5"/><circle cx="2479" cy="1171" r="4"/><circle cx="2530" cy="1181" r="5"/><circle cx="24" cy="1210" r="5"/><circle cx="139" cy="1205" r="5"/><circle cx="197" cy="1256" r="4"/><circle cx="280" cy="1209" r="6"/><circle cx="365" cy="1261" r="5"/><circle cx="411" cy="1208" r="4"/><circle cx="505" cy="1207" r="5"/><circle cx="574" cy="1202" r="4"/><circle cx="661" cy="1203" r="4"/><circle cx="731" cy="1279" r="5"/><circle cx="824" cy="1209" r="5"/><circle cx="887" cy="1206" r="4"/><circle cx="969" cy="1253" r="5"/><circle cx="1062" cy="1262" r="6"/><circle cx="1121" cy="1203" r="5"/><circle cx="1238" cy="1210" r="6"/><circle cx="1358" cy="1269" r="5"/><circle cx="1387" cy="1267" r="4"/><circle cx="1495" cy="1222" r="6"/><circle cx="1556" cy="1221" r="5"/><circle cx="1604" cy="1215" r="5"/><circle cx="1701" cy="1267" r="6"/><circle cx="1779" cy="1228" r="4"/><circle cx="1875" cy="1262" r="5"/><circle cx="1923" cy="1278" r="4"/><circle cx="2029" cy="1217" r="5"/><circle cx="2095" cy="1261" r="5"/><circle cx="2194" cy="1227" r="5"/><circle cx="2300" cy="1254" r="6"/><circle cx="2365" cy="1213" r="5"/><circle cx="2470" cy="1264" r="5"/><circle cx="2557" cy="1239" r="5"/><circle cx="-3" cy="1239" r="5"/><circle cx="23" cy="1306" r="4"/><circle cx="147" cy="1355" r="5"/><circle cx="209" cy="1336" r="5"/><circle cx="294" cy="1293" r="4"/><circle cx="373" cy="1295" r="6"/><circle cx="428" cy="1294" r="6"/><circle cx="517" cy="1333" r="4"/><circle cx="568" cy="1348" r="6"/><circle cx="688" cy="1288" r="5"/><circle cx="797" cy="1281" r="5"/><circle cx="840" cy="1302" r="5"/><circle cx="922" cy="1294" r="4"/><circle cx="1007" cy="1350" r="5"/><circle cx="1061" cy="1285" r="6"/><circle cx="1189" cy="1327" r="5"/><circle cx="1226" cy="1350" r="5"/><circle cx="1307" cy="1290" r="6"/><circle cx="1403" cy="1358" r="6"/><circle cx="1487" cy="1302" r="4"/><circle cx="1540" cy="1336" r="5"/><circle cx="1602" cy="1345" r="6"/><circle cx="1684" cy="1328" r="5"/><circle cx="1820" cy="1333" r="5"/><circle cx="1880" cy="1303" r="5"/><circle cx="1979" cy="1285" r="5"/><circle cx="2028" cy="1289" r="5"/><circle cx="2128" cy="1293" r="4"/><circle cx="2165" cy="1351" r="6"/><circle cx="2299" cy="1326" r="5"/><circle cx="2362" cy="1283" r="6"/><circle cx="2440" cy="1336" r="4"/><circle cx="2506" cy="1309" r="4"/><circle cx="71" cy="1422" r="6"/><circle cx="135" cy="1422" r="6"/><circle cx="210" cy="1429" r="5"/><circle cx="275" cy="1393" r="5"/><circle cx="358" cy="1384" r="4"/><circle cx="419" cy="1428" r="6"/><circle cx="490" cy="1428" r="5"/><circle cx="637" cy="1430" r="5"/><circle cx="693" cy="1363" r="5"/><circle cx="757" cy="1379" r="4"/><circle cx="852" cy="1417" r="6"/><circle cx="910" cy="1375" r="5"/><circle cx="967" cy="1424" r="6"/><circle cx="1062" cy="1422" r="6"/><circle cx="1151" cy="1384" r="5"/><circle cx="1220" cy="1440" r="5"/><circle cx="1220" cy="-0" r="5"/><circle cx="1328" cy="1419" r="6"/><circle cx="1426" cy="1416" r="6"/><circle cx="1443" cy="1437" r="5"/><circle cx="1443" cy="-3" r="5"/><circle cx="1527" cy="1416" r="4"/><circle cx="1603" cy="1407" r="6"/><circle cx="1719" cy="1399" r="6"/><circle cx="1777" cy="1365" r="6"/><circle cx="1895" cy="1432" r="4"/><circle cx="1925" cy="1392" r="5"/><circle cx="2006" cy="1372" r="6"/><circle cx="2130" cy="1421" r="5"/><circle cx="2197" cy="1402" r="5"/><circle cx="2319" cy="1371" r="4"/><circle cx="2398" cy="1378" r="6"/><circle cx="2427" cy="1362" r="5"/><circle cx="2481" cy="1377" r="4"/><path stroke="#fff" d="M11 62L-21 31M11 62L16 91M11 62L106 126M11 62L71 -18M2571 62L2539 31M11 1502L71 1422M108 19L173 46M108 19L106 126M108 19L71 -18M108 19L135 -18M108 1459L71 1422M108 1459L135 1422M173 46L221 91M173 46L255 108M173 46L135 -18M173 46L210 -11M173 1486L135 1422M173 1486L210 1429M276 3L382 34M276 3L255 108M276 3L329 104M276 3L210 -11M276 3L275 -47M276 1443L210 1429M276 1443L275 1393M382 34L400 19M382 34L329 104M382 34L358 -56M382 34L419 -12M382 1474L358 1384M382 1474L419 1428M400 19L497 13M400 19L358 -56M400 19L419 -12M400 19L490 -12M400 1459L358 1384M400 1459L419 1428M400 1459L490 1428M497 13L496 113M497 13L568 -92M497 13L419 -12M497 13L490 -12M497 1453L568 1348M497 1453L419 1428M497 1453L490 1428M633 36L676 57M633 36L616 97M633 36L637 -10M633 1476L637 1430M676 57L761 65M676 57L616 97M676 57L699 144M676 57L637 -10M676 1497L637 1430M761 65L809 15M761 65L743 140M761 65L818 94M809 15L888 41M809 15L818 94M809 15L757 -61M809 15L852 -23M809 1455L757 1379M809 1455L852 1417M888 41L818 94M888 41L883 120M888 41L852 -23M888 41L967 -16M888 1481L852 1417M888 1481L967 1424M1026 24L1109 60M1026 24L1003 106M1026 24L967 -16M1026 24L1062 -18M1026 1464L967 1424M1026 1464L1062 1422M1109 60L1147 40M1109 60L1045 131M1109 60L1158 142M1109 60L1062 -18M1109 1500L1062 1422M1147 40L1222 12M1147 40L1151 -56M1147 40L1220 -0M1147 1480L1151 1384M1147 1480L1220 1440M1222 12L1294 25M1222 12L1220 -0M1222 12L1328 -21M1222 1452L1220 1440M1222 1452L1328 1419M1294 25L1278 114M1294 25L1324 117M1294 25L1220 -0M1294 25L1328 -21M1294 1465L1220 1440M1294 1465L1328 1419M1432 4L1473 64M1432 4L1427 81M1432 4L1403 -82M1432 4L1426 -24M1432 4L1443 -3M1432 1444L1403 1358M1432 1444L1426 1416M1432 1444L1443 1437M1473 64L1541 73M1473 64L1427 81M1473 64L1488 137M1473 64L1443 -3M1473 1504L1443 1437M1541 73L1488 137M1541 73L1585 117M1541 73L1527 -24M1541 1513L1527 1416M1662 72L1696 59M1662 72L1585 117M1662 72L1674 130M1662 72L1695 155M1696 59L1784 35M1696 59L1674 130M1696 59L1719 -41M1696 1499L1719 1399M1784 35L1884 13M1784 35L1719 -41M1784 35L1777 -75M1784 1475L1719 1399M1784 1475L1777 1365M1884 13L1920 21M1884 13L1948 89M1884 13L1895 -8M1884 13L1925 -48M1884 1453L1895 1432M1884 1453L1925 1392M1920 21L1948 89M1920 21L1895 -8M1920 21L1925 -48M1920 21L2006 -68M1920 1461L1895 1432M1920 1461L1925 1392M1920 1461L2006 1372M2071 29L2115 55M2071 29L2052 127M2071 29L2006 -68M2071 29L2130 -19M2071 1469L2006 1372M2071 1469L2130 1421M2115 55L2183 77M2115 55L2052 127M2115 55L2145 117M2115 55L2130 -19M2115 1495L2130 1421M2183 77L2250 50M2183 77L2145 117M2183 77L2176 142M2183 77L2130 -19M2183 1517L2130 1421M2250 50L2311 81M2250 50L2197 -38M2250 1490L2197 1402M2391 12L2461 45M2391 12L2311 81M2391 12L2319 -69M2391 12L2398 -62M2391 12L2427 -78M2391 1452L2319 1371M2391 1452L2398 1378M2391 1452L2427 1362M2461 45L2539 31M2461 45L2425 130M2461 45L2496 126M2539 31L2576 91M2539 31L2631 -18M-21 31L16 91M-21 31L71 -18M-21 1471L71 1422M2539 1471L2631 1422M16 91L106 126M16 91L-64 126M16 91L99 165M2576 91L2496 126M106 126L70 227M106 126L99 165M221 91L255 108M221 91L329 104M221 91L250 187M255 108L329 104M255 108L250 187M329 104L250 187M449 146L496 113M449 146L366 222M449 146L456 217M449 146L524 189M496 113L524 189M616 97L699 144M616 97L642 186M616 97L637 -10M616 1537L637 1430M699 144L743 140M699 144L642 186M699 144L766 189M743 140L818 94M743 140L766 189M818 94L883 120M883 120L1003 106M883 120L896 199M1003 106L1045 131M1003 106L997 179M1045 131L1158 142M1045 131L997 179M1045 131L1083 202M1158 142L1083 202M1158 142L1127 234M1158 142L1177 258M1278 114L1324 117M1278 114L1278 165M1278 114L1338 192M1324 117L1278 165M1324 117L1338 192M1427 81L1488 137M1427 81L1426 -24M1427 81L1443 -3M1427 1521L1426 1416M1427 1521L1443 1437M1488 137L1518 229M1488 137L1533 222M1585 117L1605 161M1674 130L1695 155M1674 130L1605 161M1674 130L1752 163M1695 155L1774 157M1695 155L1605 161M1695 155L1752 163M1774 157L1752 163M1774 157L1792 233M1774 157L1882 177M1774 157L1763 259M1910 146L1948 89M1910 146L1882 177M1910 146L1987 222M1948 89L1882 177M2052 127L2145 117M2052 127L2060 166M2145 117L2176 142M2145 117L2198 191M2176 142L2155 218M2176 142L2198 191M2176 142L2240 189M2311 81L2363 156M2311 81L2336 191M2363 156L2425 130M2363 156L2336 191M2363 156L2442 192M2425 130L2496 126M2425 130L2442 192M2425 130L2484 208M2496 126L2442 192M2496 126L2484 208M70 227L99 165M70 227L30 315M227 236L250 187M227 236L148 313M227 236L238 301M227 236L289 297M366 222L456 217M366 222L368 292M366 222L431 293M456 217L524 189M456 217L431 293M456 217L485 290M524 189L485 290M624 217L642 186M624 217L600 267M624 217L659 270M642 186L600 267M642 186L659 270M766 189L822 231M766 189L781 280M822 231L896 199M822 231L781 280M822 231L867 305M822 231L902 268M896 199L997 179M896 199L902 268M997 179L1083 202M1083 202L1127 234M1083 202L1177 258M1127 234L1177 258M1278 165L1338 192M1338 192L1407 225M1338 192L1352 265M1407 225L1352 265M1407 225L1432 293M1407 225L1389 324M1518 229L1533 222M1518 229L1500 302M1518 229L1523 262M1533 222L1605 161M1533 222L1500 302M1533 222L1523 262M1605 161L1651 245M1752 163L1792 233M1752 163L1763 259M1792 233L1709 277M1792 233L1763 259M1792 233L1862 298M1987 222L2060 166M1987 222L1989 293M1987 222L2058 244M2060 166L2058 244M2155 218L2198 191M2155 218L2240 189M2155 218L2058 244M2155 218L2140 253M2198 191L2240 189M2198 191L2140 253M2240 189L2336 191M2336 191L2368 281M2442 192L2484 208M2442 192L2477 290M2484 208L2477 290M2484 208L2495 320M30 315L-65 320M30 315L70 387M30 315L-21 357M2590 315L2495 320M2590 315L2539 357M148 313L238 301M148 313L127 385M148 313L163 370M238 301L289 297M238 301L317 348M289 297L368 292M289 297L317 348M289 297L343 359M368 292L431 293M368 292L317 348M368 292L343 359M431 293L485 290M431 293L454 375M485 290L600 267M485 290L454 375M600 267L659 270M600 267L591 328M659 270L591 328M659 270L660 379M781 280L867 305M781 280L902 268M781 280L736 361M867 305L902 268M867 305L886 383M867 305L862 409M1033 318L1046 306M1033 318L1040 358M1033 318L1064 354M1033 318L1051 405M1046 306L1040 358M1046 306L1064 354M1046 306L1051 405M1177 258L1264 301M1177 258L1130 355M1264 301L1249 378M1264 301L1306 339M1352 265L1432 293M1352 265L1306 339M1352 265L1389 324M1432 293L1500 302M1432 293L1389 324M1432 293L1449 393M1500 302L1523 262M1500 302L1564 354M1523 262L1564 354M1651 245L1709 277M1651 245L1648 334M1709 277L1763 259M1709 277L1648 334M1709 277L1748 369M1862 298L1826 350M1862 298L1871 375M1989 293L2058 244M1989 293L1994 338M1989 293L2003 337M2058 244L2140 253M2140 253L2190 314M2140 253L2124 330M2190 314L2124 330M2190 314L2179 329M2190 314L2222 421M2303 293L2368 281M2303 293L2296 397M2303 293L2379 351M2368 281L2379 351M2477 290L2495 320M2477 290L2539 357M2495 320L2480 395M2495 320L2539 357M70 387L127 385M70 387L163 370M70 387L-21 357M70 387L33 440M2630 387L2539 357M127 385L163 370M127 385L156 442M127 385L220 421M163 370L156 442M163 370L220 421M317 348L343 359M317 348L308 405M343 359L308 405M343 359L388 455M454 375L542 397M454 375L431 425M542 397L591 328M542 397L538 456M542 397L581 413M542 397L643 437M591 328L660 379M591 328L581 413M660 379L736 361M660 379L581 413M660 379L643 437M736 361L845 391M736 361L786 455M845 391L886 383M845 391L786 455M845 391L862 409M845 391L937 440M886 383L862 409M886 383L937 440M1040 358L1064 354M1040 358L1130 355M1040 358L1051 405M1064 354L1130 355M1064 354L1051 405M1130 355L1051 405M1130 355L1185 438M1249 378L1306 339M1249 378L1185 438M1249 378L1266 435M1249 378L1337 439M1306 339L1389 324M1306 339L1266 435M1389 324L1449 393M1449 393L1428 409M1449 393L1464 432M1449 393L1452 489M1564 354L1648 334M1564 354L1464 432M1564 354L1571 438M1648 334L1748 369M1748 369L1826 350M1748 369L1716 447M1826 350L1871 375M1826 350L1823 434M1826 350L1880 416M1871 375L1823 434M1871 375L1880 416M1994 338L2003 337M1994 338L2065 414M2003 337L2065 414M2124 330L2179 329M2124 330L2065 414M2179 329L2222 421M2179 329L2254 411M2296 397L2379 351M2296 397L2222 421M2296 397L2254 411M2296 397L2336 475M2379 351L2480 395M2379 351L2431 418M2480 395L2539 357M2480 395L2431 418M2480 395L2535 472M33 440L-25 472M2593 440L2535 472M156 442L220 421M156 442L109 500M220 421L308 405M220 421L274 486M308 405L274 486M308 405L340 499M388 455L431 425M388 455L340 499M388 455L412 498M431 425L412 498M538 456L581 413M538 456L643 437M538 456L498 526M538 456L575 548M581 413L643 437M643 437L723 489M786 455L862 409M786 455L723 489M786 455L794 563M862 409L937 440M937 440L962 476M937 440L940 484M962 476L940 484M962 476L1017 526M1185 438L1266 435M1185 438L1142 481M1266 435L1337 439M1266 435L1303 521M1337 439L1428 409M1337 439L1303 521M1428 409L1464 432M1428 409L1452 489M1464 432L1571 438M1464 432L1452 489M1571 438L1657 468M1571 438L1581 523M1657 468L1716 447M1657 468L1581 523M1657 468L1675 500M1657 468L1709 489M1716 447L1675 500M1716 447L1709 489M1716 447L1800 484M1823 434L1880 416M1823 434L1800 484M1823 434L1885 483M1880 416L1885 483M1982 459L2065 414M1982 459L2081 443M1982 459L1885 483M1982 459L1979 492M1982 459L2026 516M2065 414L2081 443M2081 443L1979 492M2081 443L2026 516M2081 443L2104 547M2222 421L2254 411M2222 421L2196 515M2254 411L2336 475M2336 475L2431 418M2336 475L2312 529M2336 475L2334 547M2535 472L2461 532M2535 472L2495 539M2535 472L2577 568M-25 472L17 568M74 550L109 500M74 550L17 568M74 550L84 597M74 550L187 566M109 500L186 553M109 500L84 597M109 500L187 566M186 553L274 486M186 553L187 566M186 553L224 654M274 486L340 499M274 486L187 566M340 499L412 498M340 499L397 573M412 498L397 573M412 498L428 575M498 526L575 548M498 526L397 573M498 526L428 575M498 526L554 635M575 548L554 635M575 548L620 569M575 548L537 657M694 545L723 489M694 545L620 569M694 545L689 581M723 489L689 581M723 489L794 563M854 536L940 484M854 536L794 563M854 536L846 592M854 536L910 613M940 484L1017 526M1017 526L1054 542M1017 526L995 608M1054 542L1142 481M1054 542L995 608M1054 542L1063 633M1054 542L1122 631M1275 555L1303 521M1275 555L1206 623M1275 555L1329 608M1303 521L1329 608M1303 521L1389 579M1401 535L1452 489M1401 535L1389 579M1452 489L1389 579M1581 523L1675 500M1581 523L1573 617M1581 523L1670 590M1675 500L1709 489M1675 500L1670 590M1709 489L1739 569M1800 484L1885 483M1800 484L1739 569M1800 484L1774 577M1885 483L1979 492M1979 492L2026 516M1979 492L2053 566M2026 516L2104 547M2026 516L2053 566M2104 547L2196 515M2104 547L2053 566M2104 547L2106 611M2196 515L2226 630M2196 515L2263 587M2312 529L2334 547M2312 529L2226 630M2312 529L2263 587M2312 529L2391 617M2334 547L2263 587M2334 547L2391 617M2461 532L2495 539M2461 532L2437 625M2461 532L2495 645M2495 539L2577 568M2495 539L2552 621M-65 539L17 568M17 568L84 597M17 568L-8 621M2577 568L2552 621M84 597L-8 621M84 597L37 668M2644 597L2552 621M187 566L224 654M285 637L224 654M285 637L305 677M285 637L359 642M397 573L428 575M397 573L359 642M428 575L359 642M428 575L402 681M554 635L620 569M554 635L537 657M554 635L594 682M620 569L689 581M794 563L846 592M794 563L791 643M846 592L910 613M846 592L791 643M910 613L995 608M910 613L864 687M910 613L911 672M995 608L1063 633M995 608L911 672M1063 633L1122 631M1063 633L995 709M1063 633L1116 658M1122 631L1206 623M1122 631L1116 658M1122 631L1163 711M1206 623L1116 658M1206 623L1272 687M1329 608L1389 579M1329 608L1272 687M1329 608L1325 667M1389 579L1476 631M1476 631L1573 617M1476 631L1499 715M1476 631L1548 662M1573 617L1670 590M1573 617L1548 662M1573 617L1668 652M1670 590L1739 569M1670 590L1668 652M1739 569L1774 577M1739 569L1737 670M1774 577L1890 577M1774 577L1817 671M1890 577L1940 622M1890 577L1874 659M1940 622L2053 566M1940 622L1874 659M1940 622L1952 713M1940 622L2016 689M2053 566L2106 611M2106 611L2099 714M2106 611L2160 655M2226 630L2263 587M2226 630L2160 655M2226 630L2294 714M2263 587L2160 655M2391 617L2437 625M2391 617L2390 702M2391 617L2450 704M2437 625L2390 702M2437 625L2450 704M2437 625L2495 645M2552 621L2597 668M2552 621L2495 645M-8 621L37 668M37 668L83 716M37 668L-65 645M37 668L-13 762M2597 668L2495 645M2597 668L2547 762M83 716L76 792M83 716L132 740M83 716L175 748M83 716L-13 762M2643 716L2547 762M224 654L305 677M224 654L175 748M305 677L359 642M305 677L402 681M305 677L263 766M359 642L402 681M402 681L370 762M402 681L465 752M537 657L594 682M537 657L465 752M537 657L497 772M594 682L702 699M594 682L638 745M702 699L791 643M702 699L638 745M702 699L664 775M702 699L772 798M791 643L864 687M864 687L911 672M864 687L893 775M911 672L995 709M911 672L893 775M995 709L968 792M1116 658L1163 711M1116 658L1102 764M1163 711L1102 764M1163 711L1120 762M1163 711L1229 791M1272 687L1325 667M1272 687L1229 791M1325 667L1396 716M1396 716L1342 769M1396 716L1423 771M1396 716L1429 816M1499 715L1548 662M1499 715L1423 771M1499 715L1511 761M1499 715L1523 753M1548 662L1523 753M1668 652L1737 670M1668 652L1666 728M1737 670L1817 671M1737 670L1666 728M1737 670L1807 734M1817 671L1874 659M1817 671L1807 734M1817 671L1847 721M1874 659L1952 713M1874 659L1847 721M1952 713L2016 689M1952 713L1927 748M1952 713L1915 810M2016 689L2099 714M2016 689L1927 748M2016 689L2068 757M2099 714L2160 655M2099 714L2068 757M2099 714L2091 774M2294 714L2227 768M2294 714L2292 784M2294 714L2347 763M2390 702L2450 704M2390 702L2347 763M2390 702L2441 753M2450 704L2495 645M2450 704L2441 753M76 792L132 740M76 792L-13 762M76 792L12 818M2636 792L2547 762M132 740L175 748M132 740L176 818M175 748L263 766M175 748L176 818M263 766L370 762M263 766L176 818M263 766L320 877M370 762L465 752M370 762L381 832M465 752L497 772M465 752L547 822M497 772L443 870M497 772L547 822M497 772L572 804M638 745L664 775M638 745L572 804M638 745L647 818M664 775L772 798M664 775L572 804M664 775L647 818M772 798L822 798M772 798L792 834M822 798L893 775M822 798L792 834M822 798L809 877M822 798L885 847M893 775L968 792M893 775L885 847M968 792L1012 851M1102 764L1120 762M1102 764L1118 829M1102 764L1144 840M1120 762L1118 829M1120 762L1144 840M1229 791L1144 840M1229 791L1273 813M1229 791L1314 874M1342 769L1423 771M1342 769L1273 813M1342 769L1314 874M1342 769L1429 816M1423 771L1511 761M1423 771L1429 816M1511 761L1523 753M1511 761L1492 850M1511 761L1575 804M1523 753L1575 804M1666 728L1726 779M1726 779L1807 734M1726 779L1754 833M1807 734L1847 721M1807 734L1839 831M1847 721L1927 748M1927 748L1915 810M1927 748L1955 846M2068 757L2091 774M2068 757L2070 848M2091 774L2070 848M2091 774L2101 855M2227 768L2292 784M2227 768L2217 853M2292 784L2347 763M2292 784L2307 878M2292 784L2327 816M2347 763L2441 753M2347 763L2327 816M2441 753L2487 821M2547 762L2572 818M2547 762L2487 821M-13 762L12 818M12 818L-73 821M12 818L-61 889M2572 818L2487 821M2572 818L2499 889M135 875L176 818M135 875L70 912M135 875L91 957M135 875L169 901M135 875L159 963M176 818L169 901M320 877L381 832M320 877L286 938M320 877L384 898M320 877L323 969M381 832L443 870M381 832L384 898M381 832L433 913M443 870L384 898M443 870L433 913M443 870L539 912M547 822L572 804M547 822L647 818M547 822L539 912M572 804L647 818M647 818L637 911M792 834L809 877M792 834L885 847M809 877L885 847M809 877L765 933M809 877L860 943M885 847L916 922M1012 851L1118 829M1012 851L916 922M1012 851L1015 924M1012 851L1044 910M1118 829L1144 840M1118 829L1196 898M1144 840L1196 898M1273 813L1314 874M1273 813L1196 898M1273 813L1314 894M1314 874L1314 894M1429 816L1492 850M1429 816L1490 883M1492 850L1575 804M1492 850L1490 883M1492 850L1554 894M1575 804L1608 850M1575 804L1554 894M1608 850L1554 894M1608 850L1666 928M1754 833L1839 831M1754 833L1666 928M1839 831L1915 810M1839 831L1803 935M1839 831L1905 905M1915 810L1955 846M1915 810L1905 905M1955 846L1905 905M1955 846L1975 912M2070 848L2101 855M2070 848L2071 955M2070 848L2100 899M2101 855L2071 955M2101 855L2100 899M2101 855L2170 922M2217 853L2307 878M2217 853L2170 922M2217 853L2272 900M2307 878L2327 816M2307 878L2272 900M2307 878L2386 916M2327 816L2416 843M2327 816L2272 900M2416 843L2487 821M2416 843L2386 916M2416 843L2469 914M2416 843L2499 889M2487 821L2499 889M70 912L91 957M70 912L169 901M70 912L159 963M91 957L169 901M91 957L35 1029M91 957L159 963M169 901L159 963M286 938L312 1001M286 938L323 969M384 898L433 913M384 898L323 969M433 913L539 912M433 913L404 1018M539 912L637 911M539 912L557 1005M637 911L719 904M637 911L557 1005M637 911L629 990M719 904L765 933M719 904L780 982M765 933L712 1013M765 933L780 982M860 943L916 922M860 943L780 982M860 943L829 1022M860 943L911 971M916 922L1015 924M916 922L911 971M1015 924L1044 910M1015 924L1034 1004M1015 924L1040 1020M1044 910L1034 1004M1196 898L1243 955M1196 898L1159 962M1243 955L1314 894M1243 955L1159 962M1243 955L1245 1023M1243 955L1307 994M1314 894L1307 994M1426 957L1490 883M1426 957L1399 988M1426 957L1462 962M1490 883L1554 894M1490 883L1462 962M1666 928L1695 950M1666 928L1635 974M1666 928L1719 990M1695 950L1635 974M1695 950L1719 990M1695 950L1798 976M1803 935L1905 905M1803 935L1798 976M1803 935L1849 1015M1905 905L1975 912M1975 912L1984 987M2071 955L2100 899M2071 955L1984 987M2071 955L2074 996M2100 899L2170 922M2100 899L2074 996M2170 922L2171 988M2272 900L2305 984M2386 916L2469 914M2386 916L2305 984M2386 916L2344 982M2469 914L2499 889M35 1029L-6 1019M35 1029L52 1067M35 1029L97 1069M35 1029L-19 1115M2595 1029L2554 1019M2595 1029L2541 1115M159 963L166 1036M166 1036L97 1069M166 1036L163 1078M312 1001L323 969M312 1001L404 1018M312 1001L303 1056M323 969L404 1018M404 1018L370 1108M404 1018L457 1089M557 1005L629 990M557 1005L558 1090M557 1005L608 1100M629 990L712 1013M712 1013L780 982M712 1013L744 1101M780 982L829 1022M829 1022L911 971M829 1022L841 1074M911 971L929 1071M1034 1004L1040 1020M1034 1004L1093 1041M1040 1020L981 1085M1040 1020L1093 1041M1159 962L1245 1023M1159 962L1093 1041M1245 1023L1307 994M1245 1023L1256 1052M1307 994L1399 988M1307 994L1256 1052M1399 988L1462 962M1399 988L1410 1070M1399 988L1455 1076M1462 962L1455 1076M1571 1018L1635 974M1571 1018L1592 1062M1571 1018L1604 1048M1635 974L1719 990M1635 974L1604 1048M1719 990L1798 976M1719 990L1727 1089M1798 976L1849 1015M1849 1015L1821 1103M1849 1015L1919 1084M1849 1015L1937 1080M1984 987L2074 996M1984 987L1919 1084M1984 987L1937 1080M2074 996L2153 1026M2153 1026L2171 988M2153 1026L2118 1071M2153 1026L2187 1074M2153 1026L2143 1122M2171 988L2187 1074M2305 984L2344 982M2305 984L2279 1068M2344 982L2418 1073M2479 1033L2554 1019M2479 1033L2418 1073M2554 1019L2612 1067M-6 1019L52 1067M52 1067L97 1069M52 1067L-19 1115M52 1067L36 1125M2612 1067L2541 1115M97 1069L163 1078M97 1069L135 1130M163 1078L135 1130M303 1056L370 1108M370 1108L457 1089M370 1108L338 1157M370 1108L400 1173M558 1090L608 1100M558 1090L538 1194M608 1100L657 1117M608 1100L601 1184M608 1100L692 1158M657 1117L744 1101M657 1117L601 1184M657 1117L692 1158M657 1117L661 1203M744 1101L692 1158M744 1101L766 1139M744 1101L801 1160M841 1074L929 1071M841 1074L766 1139M841 1074L801 1160M929 1071L981 1085M929 1071L933 1144M929 1071L994 1159M981 1085L933 1144M981 1085L994 1159M981 1085L1041 1140M1093 1041L1141 1094M1141 1094L1256 1052M1141 1094L1041 1140M1141 1094L1169 1157M1256 1052L1353 1098M1256 1052L1277 1162M1353 1098L1410 1070M1353 1098L1277 1162M1353 1098L1360 1153M1410 1070L1455 1076M1410 1070L1360 1153M1410 1070L1439 1133M1455 1076L1439 1133M1455 1076L1492 1134M1592 1062L1604 1048M1592 1062L1591 1161M1592 1062L1600 1152M1727 1089L1821 1103M1727 1089L1740 1139M1727 1089L1802 1169M1821 1103L1919 1084M1821 1103L1740 1139M1821 1103L1802 1169M1919 1084L1937 1080M1919 1084L1929 1180M1937 1080L2047 1116M1937 1080L1929 1180M2047 1116L2118 1071M2047 1116L2078 1122M2047 1116L2143 1122M2047 1116L2029 1217M2118 1071L2187 1074M2118 1071L2078 1122M2118 1071L2143 1122M2187 1074L2279 1068M2187 1074L2143 1122M2279 1068L2349 1112M2279 1068L2320 1135M2279 1068L2369 1135M2349 1112L2418 1073M2349 1112L2320 1135M2349 1112L2369 1135M2349 1112L2365 1213M2418 1073L2369 1135M2541 1115L2596 1125M2541 1115L2479 1171M2541 1115L2530 1181M-19 1115L36 1125M36 1125L135 1130M36 1125L-30 1181M36 1125L24 1210M2596 1125L2530 1181M135 1130L201 1188M135 1130L139 1205M201 1188L259 1180M201 1188L139 1205M201 1188L197 1256M201 1188L280 1209M259 1180L338 1157M259 1180L139 1205M259 1180L197 1256M259 1180L280 1209M338 1157L400 1173M338 1157L280 1209M400 1173L411 1208M400 1173L505 1207M538 1194L601 1184M538 1194L505 1207M538 1194L574 1202M601 1184L574 1202M601 1184L661 1203M692 1158L766 1139M692 1158L661 1203M766 1139L801 1160M766 1139L824 1209M801 1160L824 1209M801 1160L887 1206M933 1144L994 1159M933 1144L1041 1140M933 1144L887 1206M994 1159L1041 1140M994 1159L969 1253M1041 1140L1121 1203M1169 1157L1277 1162M1169 1157L1121 1203M1169 1157L1238 1210M1277 1162L1360 1153M1277 1162L1238 1210M1360 1153L1439 1133M1360 1153L1358 1269M1439 1133L1492 1134M1439 1133L1495 1222M1492 1134L1591 1161M1492 1134L1600 1152M1492 1134L1495 1222M1591 1161L1600 1152M1591 1161L1556 1221M1591 1161L1604 1215M1600 1152L1556 1221M1600 1152L1604 1215M1740 1139L1802 1169M1740 1139L1779 1228M1802 1169L1897 1194M1802 1169L1779 1228M1897 1194L1929 1180M1897 1194L1875 1262M1897 1194L1923 1278M1929 1180L1875 1262M1929 1180L1923 1278M2078 1122L2143 1122M2078 1122L2029 1217M2221 1191L2320 1135M2221 1191L2194 1227M2221 1191L2300 1254M2320 1135L2369 1135M2320 1135L2365 1213M2369 1135L2365 1213M2479 1171L2530 1181M2479 1171L2470 1264M2530 1181L2584 1210M2530 1181L2557 1239M-30 1181L24 1210M24 1210L139 1205M24 1210L-3 1239M24 1210L23 1306M2584 1210L2557 1239M139 1205L197 1256M197 1256L209 1336M280 1209L365 1261M280 1209L294 1293M365 1261L411 1208M365 1261L294 1293M365 1261L373 1295M365 1261L428 1294M411 1208L505 1207M411 1208L373 1295M411 1208L428 1294M505 1207L574 1202M505 1207L428 1294M574 1202L661 1203M661 1203L688 1288M731 1279L688 1288M731 1279L797 1281M731 1279L693 1363M731 1279L757 1379M824 1209L887 1206M824 1209L797 1281M824 1209L840 1302M887 1206L969 1253M887 1206L922 1294M969 1253L1062 1262M969 1253L922 1294M969 1253L1061 1285M1062 1262L1121 1203M1062 1262L1007 1350M1062 1262L1061 1285M1121 1203L1238 1210M1121 1203L1061 1285M1238 1210L1358 1269M1238 1210L1307 1290M1358 1269L1387 1267M1358 1269L1307 1290M1358 1269L1403 1358M1387 1267L1307 1290M1387 1267L1487 1302M1495 1222L1556 1221M1495 1222L1604 1215M1495 1222L1487 1302M1556 1221L1604 1215M1556 1221L1540 1336M1604 1215L1701 1267M1701 1267L1779 1228M1701 1267L1602 1345M1701 1267L1684 1328M1701 1267L1777 1365M1779 1228L1820 1333M1875 1262L1923 1278M1875 1262L1820 1333M1875 1262L1880 1303M1923 1278L1880 1303M1923 1278L1979 1285M2029 1217L2095 1261M2029 1217L1979 1285M2029 1217L2028 1289M2095 1261L2194 1227M2095 1261L2028 1289M2095 1261L2128 1293M2095 1261L2165 1351M2194 1227L2300 1254M2194 1227L2128 1293M2194 1227L2165 1351M2300 1254L2365 1213M2300 1254L2299 1326M2300 1254L2362 1283M2365 1213L2362 1283M2470 1264L2557 1239M2470 1264L2440 1336M2470 1264L2506 1309M2557 1239L2583 1306M2557 1239L2506 1309M-3 1239L23 1306M23 1306L-54 1309M2583 1306L2506 1309M147 1355L209 1336M147 1355L71 1422M147 1355L135 1422M209 1336L294 1293M209 1336L210 1429M209 1336L275 1393M294 1293L373 1295M294 1293L275 1393M373 1295L428 1294M373 1295L358 1384M428 1294L517 1333M517 1333L568 1348M517 1333L490 1428M568 1348L490 1428M568 1348L637 1430M568 1348L693 1363M688 1288L797 1281M688 1288L693 1363M797 1281L840 1302M797 1281L757 1379M840 1302L922 1294M840 1302L910 1375M922 1294L910 1375M1007 1350L1061 1285M1007 1350L910 1375M1007 1350L967 1424M1007 1350L1062 1422M1189 1327L1226 1350M1189 1327L1151 1384M1226 1350L1307 1290M1226 1350L1151 1384M1226 1350L1220 1440M1403 1358L1328 1419M1403 1358L1426 1416M1403 1358L1443 1437M1487 1302L1540 1336M1540 1336L1602 1345M1540 1336L1527 1416M1540 1336L1603 1407M1602 1345L1684 1328M1602 1345L1527 1416M1602 1345L1603 1407M1684 1328L1603 1407M1684 1328L1719 1399M1684 1328L1777 1365M1820 1333L1880 1303M1820 1333L1777 1365M1880 1303L1979 1285M1880 1303L1925 1392M1979 1285L2028 1289M1979 1285L2006 1372M2028 1289L2128 1293M2028 1289L2006 1372M2128 1293L2165 1351M2165 1351L2130 1421M2165 1351L2197 1402M2299 1326L2362 1283M2299 1326L2197 1402M2299 1326L2319 1371M2440 1336L2506 1309M2440 1336L2398 1378M2440 1336L2427 1362M2440 1336L2481 1377M2506 1309L2481 1377M71 1422L135 1422M135 1422L210 1429M210 1429L275 1393M275 1393L358 1384M358 1384L419 1428M419 1428L490 1428M637 1430L693 1363M693 1363L757 1379M757 1379L852 1417M852 1417L910 1375M910 1375L967 1424M967 1424L1062 1422M1062 1422L1151 1384M1151 1384L1220 1440M1328 1419L1426 1416M1426 1416L1443 1437M1527 1416L1603 1407M1603 1407L1719 1399M1719 1399L1777 1365M1895 1432L1925 1392M1925 1392L2006 1372M2130 1421L2197 1402M2319 1371L2398 1378M2319 1371L2427 1362M2398 1378L2427 1362M2398 1378L2481 1377M2427 1362L2481 1377"/></svg>