<svg xmlns="http://www.w3.org/2000/svg" width="2560" height="1440" fill="#fff"><circle cx="67" cy="58" r="5"/><circle cx="82" cy="49" r="5"/><circle cx="213" cy="29" r="4"/><circle cx="262" cy="60" r="6"/><circle cx="386" cy="9" r="5"/><circle cx="437" cy="58" r="6"/><circle cx="488" cy="60" r="6"/><circle cx="628" cy="71" r="4"/><circle cx="669" cy="25" r="5"/><circle cx="731" cy="68" r="5"/><circle cx="856" cy="79" r="5"/><circle cx="895" cy="20" r="5"/><circle cx="986" cy="7" r="6"/><circle cx="1105" cy="64" r="5"/><circle cx="1147" cy="60" r="4"/><circle cx="1207" cy="43" r="5"/><circle cx="1303" cy="54" r="5"/><circle cx="1370" cy="8" r="5"/><circle cx="1464" cy="67" r="5"/><circle cx="1586" cy="61" r="6"/><circle cx="1633" cy="24" r="4"/><circle cx="1749" cy="17" r="6"/><circle cx="1774" cy="9" r="6"/><circle cx="1907" cy="28" r="5"/><circle cx="1980" cy="1" r="5"/><circle cx="1980" cy="1441" r="5"/><circle cx="2019" cy="6" r="5"/><circle cx="2097" cy="36" r="6"/><circle cx="2183" cy="62" r="5"/><circle cx="2242" cy="1" r="5"/><circle cx="2242" cy="1441" r="5"/><circle cx="2376" cy="62" r="5"/><circle cx="2467" cy="46" r="4"/><circle cx="2513" cy="28" r="5"/><circle cx="77" cy="130" r="6"/><circle cx="155" cy="85" r="5"/><circle cx="198" cy="144" r="5"/><circle cx="247" cy="120" r="4"/><circle cx="371" cy="151" r="4"/><circle cx="443" cy="93" r="5"/><circle cx="501" cy="111" r="5"/><circle cx="610" cy="130" r="5"/><circle cx="703" cy="93" r="6"/><circle cx="778" cy="141" r="5"/><circle cx="817" cy="91" r="5"/><circle cx="914" cy="98" r="5"/><circle cx="1001" cy="102" r="4"/><circle cx="1063" cy="121" r="5"/><circle cx="1130" cy="109" r="5"/><circle cx="1225" cy="137" r="4"/><circle cx="1355" cy="159" r="5"/><circle cx="1422" cy="104" r="6"/><circle cx="1483" cy="90" r="6"/><circle cx="1595" cy="129" r="6"/><circle cx="1671" cy="106" r="5"/><circle cx="1724" cy="98" r="5"/><circle cx="1826" cy="158" r="5"/><circle cx="1906" cy="147" r="4"/><circle cx="1978" cy="117" r="4"/><circle cx="2038" cy="116" r="5"/><circle cx="2128" cy="158" r="5"/><circle cx="2190" cy="87" r="5"/><circle cx="2273" cy="125" r="5"/><circle cx="2343" cy="120" r="6"/><circle cx="2400" cy="105" r="5"/><circle cx="2511" cy="113" r="4"/><circle cx="43" cy="161" r="5"/><circle cx="157" cy="161" r="6"/><circle cx="176" cy="224" r="5"/><circle cx="285" cy="184" r="6"/><circle cx="350" cy="162" r="4"/><circle cx="446" cy="187" r="5"/><circle cx="520" cy="207" r="5"/><circle cx="564" cy="163" r="4"/><circle cx="655" cy="175" r="4"/><circle cx="777" cy="173" r="4"/><circle cx="824" cy="182" r="5"/><circle cx="929" cy="164" r="5"/><circle cx="995" cy="193" r="5"/><circle cx="1067" cy="227" r="4"/><circle cx="1150" cy="204" r="5"/><circle cx="1214" cy="211" r="6"/><circle cx="1293" cy="198" r="4"/><circle cx="1405" cy="163" r="5"/><circle cx="1517" cy="179" r="5"/><circle cx="1546" cy="236" r="5"/><circle cx="1621" cy="229" r="5"/><circle cx="1727" cy="203" r="5"/><circle cx="1818" cy="188" r="5"/><circle cx="1898" cy="175" r="4"/><circle cx="1945" cy="186" r="5"/><circle cx="2028" cy="233" r="4"/><circle cx="2120" cy="218" r="5"/><circle cx="2216" cy="219" r="4"/><circle cx="2293" cy="182" r="5"/><circle cx="2352" cy="174" r="6"/><circle cx="2446" cy="197" r="4"/><circle cx="2520" cy="194" r="4"/><circle cx="44" cy="247" r="6"/><circle cx="94" cy="284" r="5"/><circle cx="171" cy="252" r="4"/><circle cx="298" cy="252" r="4"/><circle cx="352" cy="308" r="4"/><circle cx="443" cy="244" r="4"/><circle cx="543" cy="265" r="6"/><circle cx="597" cy="265" r="5"/><circle cx="677" cy="293" r="4"/><circle cx="732" cy="318" r="5"/><circle cx="846" cy="270" r="6"/><circle cx="884" cy="249" r="5"/><circle cx="1034" cy="264" r="6"/><circle cx="1064" cy="241" r="6"/><circle cx="1162" cy="306" r="6"/><circle cx="1251" cy="257" r="4"/><circle cx="1336" cy="248" r="5"/><circle cx="1370" cy="257" r="5"/><circle cx="1475" cy="312" r="6"/><circle cx="1591" cy="302" r="4"/><circle cx="1620" cy="304" r="5"/><circle cx="1710" cy="249" r="6"/><circle cx="1838" cy="318" r="6"/><circle cx="1919" cy="311" r="4"/><circle cx="1971" cy="308" r="6"/><circle cx="2004" cy="318" r="5"/><circle cx="2100" cy="303" r="5"/><circle cx="2239" cy="272" r="4"/><circle cx="2249" cy="249" r="5"/><circle cx="2325" cy="256" r="5"/><circle cx="2425" cy="273" r="5"/><circle cx="2483" cy="303" r="5"/><circle cx="43" cy="400" r="6"/><circle cx="126" cy="371" r="5"/><circle cx="203" cy="334" r="5"/><circle cx="285" cy="388" r="4"/><circle cx="345" cy="322" r="5"/><circle cx="434" cy="394" r="5"/><circle cx="546" cy="342" r="6"/><circle cx="609" cy="376" r="5"/><circle cx="652" cy="329" r="6"/><circle cx="767" cy="323" r="6"/><circle cx="878" cy="363" r="6"/><circle cx="887" cy="335" r="6"/><circle cx="997" cy="364" r="5"/><circle cx="1078" cy="375" r="5"/><circle cx="1166" cy="370" r="4"/><circle cx="1273" cy="385" r="4"/><circle cx="1301" cy="389" r="5"/><circle cx="1411" cy="356" r="5"/><circle cx="1510" cy="324" r="5"/><circle cx="1591" cy="392" r="4"/><circle cx="1620" cy="365" r="6"/><circle cx="1743" cy="389" r="5"/><circle cx="1835" cy="375" r="5"/><circle cx="1883" cy="337" r="5"/><circle cx="1975" cy="327" r="4"/><circle cx="2002" cy="361" r="5"/><circle cx="2085" cy="342" r="4"/><circle cx="2180" cy="387" r="5"/><circle cx="2303" cy="359" r="5"/><circle cx="2351" cy="398" r="4"/><circle cx="2459" cy="346" r="5"/><circle cx="2488" cy="367" r="5"/><circle cx="41" cy="432" r="5"/><circle cx="135" cy="435" r="6"/><circle cx="209" cy="469" r="6"/><circle cx="305" cy="431" r="5"/><circle cx="362" cy="458" r="5"/><circle cx="423" cy="414" r="5"/><circle cx="501" cy="428" r="4"/><circle cx="606" cy="422" r="4"/><circle cx="715" cy="460" r="5"/><circle cx="720" cy="479" r="4"/><circle cx="847" cy="404" r="5"/><circle cx="942" cy="468" r="4"/><circle cx="1032" cy="412" r="5"/><circle cx="1068" cy="479" r="6"/><circle cx="1136" cy="472" r="5"/><circle cx="1272" cy="427" r="4"/><circle cx="1286" cy="457" r="6"/><circle cx="1401" cy="415" r="5"/><circle cx="1441" cy="460" r="4"/><circle cx="1599" cy="477" r="6"/><circle cx="1663" cy="456" r="6"/><circle cx="1710" cy="434" r="5"/><circle cx="1838" cy="448" r="6"/><circle cx="1841" cy="471" r="5"/><circle cx="1974" cy="415" r="6"/><circle cx="2042" cy="403" r="6"/><circle cx="2097" cy="448" r="5"/><circle cx="2211" cy="436" r="5"/><circle cx="2295" cy="466" r="4"/><circle cx="2332" cy="463" r="4"/><circle cx="2440" cy="403" r="4"/><circle cx="2535" cy="455" r="5"/><circle cx="22" cy="493" r="6"/><circle cx="85" cy="536" r="5"/><circle cx="161" cy="527" r="6"/><circle cx="268" cy="545" r="5"/><circle cx="379" cy="558" r="5"/><circle cx="442" cy="485" r="5"/><circle cx="529" cy="482" r="5"/><circle cx="592" cy="553" r="6"/><circle cx="707" cy="525" r="5"/><circle cx="799" cy="507" r="5"/><circle cx="801" cy="483" r="5"/><circle cx="888" cy="549" r="4"/><circle cx="1017" cy="488" r="6"/><circle cx="1069" cy="507" r="5"/><circle cx="1132" cy="520" r="5"/><circle cx="1256" cy="499" r="5"/><circle cx="1288" cy="552" r="6"/><circle cx="1389" cy="548" r="4"/><circle cx="1516" cy="533" r="4"/><circle cx="1598" cy="528" r="5"/><circle cx="1609" cy="503" r="6"/><circle cx="1716" cy="543" r="4"/><circle cx="1771" cy="509" r="4"/><circle cx="1858" cy="535" r="5"/><circle cx="1956" cy="512" r="6"/><circle cx="2003" cy="489" r="5"/><circle cx="2151" cy="531" r="5"/><circle cx="2183" cy="516" r="5"/><circle cx="2280" cy="542" r="5"/><circle cx="2387" cy="494" r="6"/><circle cx="2419" cy="514" r="5"/><circle cx="2533" cy="510" r="5"/><circle cx="26" cy="585" r="4"/><circle cx="109" cy="631" r="6"/><circle cx="204" cy="628" r="5"/><circle cx="274" cy="624" r="4"/><circle cx="342" cy="639" r="5"/><circle cx="460" cy="579" r="5"/><circle cx="540" cy="604" r="5"/><circle cx="592" cy="566" r="6"/><circle cx="671" cy="573" r="4"/><circle cx="771" cy="616" r="4"/><circle cx="823" cy="578" r="5"/><circle cx="932" cy="607" r="4"/><circle cx="996" cy="568" r="5"/><circle cx="1045" cy="614" r="5"/><circle cx="1169" cy="563" r="5"/><circle cx="1240" cy="584" r="6"/><circle cx="1295" cy="592" r="5"/><circle cx="1412" cy="609" r="4"/><circle cx="1512" cy="566" r="4"/><circle cx="1547" cy="637" r="5"/><circle cx="1619" cy="602" r="5"/><circle cx="1686" cy="640" r="5"/><circle cx="1769" cy="578" r="5"/><circle cx="1902" cy="611" r="5"/><circle cx="1936" cy="603" r="5"/><circle cx="2072" cy="601" r="5"/><circle cx="2135" cy="617" r="5"/><circle cx="2216" cy="580" r="6"/><circle cx="2302" cy="567" r="5"/><circle cx="2380" cy="624" r="5"/><circle cx="2415" cy="620" r="4"/><circle cx="2496" cy="639" r="5"/><circle cx="42" cy="641" r="4"/><circle cx="105" cy="655" r="5"/><circle cx="221" cy="684" r="4"/><circle cx="299" cy="683" r="5"/><circle cx="374" cy="681" r="5"/><circle cx="406" cy="641" r="4"/><circle cx="489" cy="680" r="6"/><circle cx="580" cy="713" r="4"/><circle cx="670" cy="675" r="5"/><circle cx="779" cy="649" r="6"/><circle cx="818" cy="645" r="6"/><circle cx="930" cy="718" r="6"/><circle cx="983" cy="705" r="4"/><circle cx="1062" cy="646" r="4"/><circle cx="1171" cy="654" r="5"/><circle cx="1228" cy="706" r="4"/><circle cx="1306" cy="675" r="5"/><circle cx="1407" cy="658" r="5"/><circle cx="1489" cy="700" r="5"/><circle cx="1540" cy="658" r="5"/><circle cx="1658" cy="717" r="4"/><circle cx="1714" cy="689" r="6"/><circle cx="1836" cy="718" r="5"/><circle cx="1864" cy="665" r="4"/><circle cx="1961" cy="715" r="5"/><circle cx="2013" cy="646" r="5"/><circle cx="2093" cy="693" r="4"/><circle cx="2227" cy="679" r="6"/><circle cx="2319" cy="676" r="6"/><circle cx="2359" cy="718" r="6"/><circle cx="2424" cy="658" r="5"/><circle cx="2537" cy="694" r="6"/><circle cx="24" cy="733" r="5"/><circle cx="108" cy="780" r="6"/><circle cx="164" cy="798" r="4"/><circle cx="268" cy="790" r="5"/><circle cx="390" cy="768" r="6"/><circle cx="412" cy="775" r="5"/><circle cx="500" cy="737" r="4"/><circle cx="634" cy="757" r="5"/><circle cx="692" cy="777" r="6"/><circle cx="754" cy="790" r="4"/><circle cx="876" cy="746" r="6"/><circle cx="892" cy="777" r="4"/><circle cx="979" cy="781" r="4"/><circle cx="1055" cy="736" r="6"/><circle cx="1156" cy="723" r="5"/><circle cx="1262" cy="771" r="4"/><circle cx="1296" cy="765" r="5"/><circle cx="1379" cy="728" r="5"/><circle cx="1447" cy="748" r="5"/><circle cx="1587" cy="760" r="6"/><circle cx="1678" cy="733" r="6"/><circle cx="1727" cy="800" r="6"/><circle cx="1830" cy="721" r="5"/><circle cx="1870" cy="735" r="5"/><circle cx="1995" cy="786" r="5"/><circle cx="2065" cy="763" r="5"/><circle cx="2125" cy="761" r="5"/><circle cx="2216" cy="780" r="4"/><circle cx="2241" cy="739" r="4"/><circle cx="2354" cy="787" r="4"/><circle cx="2477" cy="734" r="4"/><circle cx="2556" cy="783" r="5"/><circle cx="-4" cy="783" r="5"/><circle cx="2" cy="855" r="5"/><circle cx="2562" cy="855" r="5"/><circle cx="117" cy="873" r="4"/><circle cx="168" cy="805" r="6"/><circle cx="272" cy="845" r="5"/><circle cx="364" cy="856" r="5"/><circle cx="476" cy="823" r="5"/><circle cx="504" cy="873" r="5"/><circle cx="597" cy="811" r="5"/><circle cx="681" cy="805" r="5"/><circle cx="766" cy="824" r="6"/><circle cx="870" cy="836" r="5"/><circle cx="955" cy="869" r="4"/><circle cx="985" cy="835" r="4"/><circle cx="1041" cy="861" r="5"/><circle cx="1190" cy="841" r="6"/><circle cx="1200" cy="848" r="5"/><circle cx="1300" cy="862" r="4"/><circle cx="1363" cy="844" r="4"/><circle cx="1494" cy="851" r="4"/><circle cx="1545" cy="856" r="4"/><circle cx="1623" cy="866" r="5"/><circle cx="1718" cy="878" r="6"/><circle cx="1780" cy="830" r="5"/><circle cx="1866" cy="871" r="4"/><circle cx="1923" cy="824" r="4"/><circle cx="2053" cy="828" r="5"/><circle cx="2146" cy="827" r="6"/><circle cx="2227" cy="848" r="5"/><circle cx="2312" cy="817" r="4"/><circle cx="2333" cy="846" r="5"/><circle cx="2452" cy="808" r="5"/><circle cx="2540" cy="842" r="4"/><circle cx="39" cy="933" r="5"/><circle cx="108" cy="905" r="5"/><circle cx="182" cy="906" r="5"/><circle cx="258" cy="885" r="5"/><circle cx="368" cy="941" r="5"/><circle cx="409" cy="884" r="4"/><circle cx="555" cy="949" r="5"/><circle cx="623" cy="952" r="5"/><circle cx="700" cy="933" r="4"/><circle cx="800" cy="900" r="5"/><circle cx="857" cy="915" r="6"/><circle cx="949" cy="944" r="5"/><circle cx="986" cy="911" r="5"/><circle cx="1044" cy="944" r="6"/><circle cx="1151" cy="889" r="6"/><circle cx="1255" cy="885" r="4"/><circle cx="1303" cy="918" r="4"/><circle cx="1423" cy="956" r="6"/><circle cx="1496" cy="895" r="6"/><circle cx="1586" cy="915" r="5"/><circle cx="1663" cy="923" r="5"/><circle cx="1737" cy="898" r="5"/><circle cx="1796" cy="958" r="5"/><circle cx="1843" cy="891" r="5"/><circle cx="1964" cy="928" r="5"/><circle cx="2018" cy="928" r="5"/><circle cx="2099" cy="906" r="4"/><circle cx="2240" cy="942" r="4"/><circle cx="2243" cy="922" r="5"/><circle cx="2373" cy="915" r="6"/><circle cx="2476" cy="935" r="4"/><circle cx="2530" cy="936" r="5"/><circle cx="67" cy="966" r="5"/><circle cx="111" cy="991" r="4"/><circle cx="198" cy="1003" r="5"/><circle cx="266" cy="981" r="5"/><circle cx="336" cy="972" r="5"/><circle cx="460" cy="987" r="6"/><circle cx="522" cy="1024" r="5"/><circle cx="588" cy="987" r="4"/><circle cx="647" cy="971" r="6"/><circle cx="721" cy="1012" r="5"/><circle cx="800" cy="1015" r="6"/><circle cx="898" cy="1027" r="4"/><circle cx="984" cy="1036" r="4"/><circle cx="1069" cy="973" r="4"/><circle cx="1172" cy="971" r="5"/><circle cx="1278" cy="992" r="5"/><circle cx="1322" cy="1033" r="4"/><circle cx="1379" cy="1038" r="6"/><circle cx="1503" cy="1027" r="5"/><circle cx="1548" cy="982" r="4"/><circle cx="1667" cy="1018" r="6"/><circle cx="1707" cy="982" r="6"/><circle cx="1834" cy="975" r="6"/><circle cx="1887" cy="1029" r="5"/><circle cx="1964" cy="1017" r="5"/><circle cx="2023" cy="1035" r="5"/><circle cx="2146" cy="998" r="5"/><circle cx="2227" cy="998" r="6"/><circle cx="2293" cy="987" r="5"/><circle cx="2358" cy="1030" r="5"/><circle cx="2427" cy="985" r="5"/><circle cx="2538" cy="989" r="5"/><circle cx="48" cy="1083" r="6"/><circle cx="127" cy="1074" r="5"/><circle cx="201" cy="1114" r="6"/><circle cx="245" cy="1057" r="4"/><circle cx="326" cy="1045" r="5"/><circle cx="425" cy="1051" r="5"/><circle cx="534" cy="1106" r="6"/><circle cx="595" cy="1084" r="6"/><circle cx="685" cy="1102" r="6"/><circle cx="769" cy="1066" r="5"/><circle cx="862" cy="1106" r="6"/><circle cx="953" cy="1082" r="5"/><circle cx="965" cy="1060" r="5"/><circle cx="1101" cy="1048" r="4"/><circle cx="1196" cy="1083" r="5"/><circle cx="1266" cy="1078" r="5"/><circle cx="1280" cy="1109" r="6"/><circle cx="1367" cy="1049" r="5"/><circle cx="1455" cy="1050" r="5"/><circle cx="1589" cy="1041" r="4"/><circle cx="1645" cy="1103" r="5"/><circle cx="1751" cy="1047" r="5"/><circle cx="1769" cy="1059" r="4"/><circle cx="1887" cy="1060" r="5"/><circle cx="1952" cy="1050" r="5"/><circle cx="2036" cy="1106" r="5"/><circle cx="2101" cy="1053" r="5"/><circle cx="2178" cy="1053" r="5"/><circle cx="2318" cy="1092" r="6"/><circle cx="2358" cy="1080" r="5"/><circle cx="2402" cy="1047" r="4"/><circle cx="2506" cy="1057" r="5"/><circle cx="39" cy="1160" r="5"/><circle cx="117" cy="1134" r="6"/><circle cx="214" cy="1180" r="6"/><circle cx="273" cy="1142" r="6"/><circle cx="369" cy="1142" r="6"/><circle cx="459" cy="1169" r="5"/><circle cx="524" cy="1187" r="4"/><circle cx="597" cy="1191" r="5"/><circle cx="712" cy="1123" r="6"/><circle cx="726" cy="1167" r="6"/><circle cx="839" cy="1127" r="4"/><circle cx="888" cy="1134" r="6"/><circle cx="1040" cy="1180" r="5"/><circle cx="1072" cy="1165" r="5"/><circle cx="1192" cy="1174" r="5"/><circle cx="1222" cy="1122" r="5"/><circle cx="1289" cy="1186" r="5"/><circle cx="1401" cy="1192" r="5"/><circle cx="1516" cy="1184" r="6"/><circle cx="1536" cy="1129" r="5"/><circle cx="1642" cy="1158" r="5"/><circle cx="1687" cy="1170" r="6"/><circle cx="1838" cy="1164" r="5"/><circle cx="1897" cy="1129" r="4"/><circle cx="1953" cy="1138" r="6"/><circle cx="2020" cy="1156" r="6"/><circle cx="2115" cy="1188" r="5"/><circle cx="2221" cy="1194" r="5"/><circle cx="2275" cy="1127" r="5"/><circle cx="2329" cy="1175" r="5"/><circle cx="2463" cy="1179" r="4"/><circle cx="2543" cy="1150" r="5"/><circle cx="48" cy="1227" r="5"/><circle cx="104" cy="1202" r="4"/><circle cx="198" cy="1237" r="6"/><circle cx="319" cy="1269" r="5"/><circle cx="345" cy="1237" r="4"/><circle cx="402" cy="1267" r="5"/><circle cx="544" cy="1255" r="6"/><circle cx="593" cy="1243" r="5"/><circle cx="652" cy="1244" r="5"/><circle cx="796" cy="1236" r="6"/><circle cx="825" cy="1235" r="5"/><circle cx="921" cy="1268" r="5"/><circle cx="963" cy="1264" r="4"/><circle cx="1100" cy="1265" r="6"/><circle cx="1183" cy="1240" r="5"/><circle cx="1228" cy="1203" r="5"/><circle cx="1285" cy="1260" r="6"/><circle cx="1431" cy="1257" r="6"/><circle cx="1461" cy="1243" r="5"/><circle cx="1558" cy="1269" r="5"/><circle cx="1629" cy="1261" r="5"/><circle cx="1733" cy="1254" r="5"/><circle cx="1775" cy="1275" r="4"/><circle cx="1898" cy="1213" r="4"/><circle cx="1926" cy="1272" r="5"/><circle cx="2020" cy="1243" r="4"/><circle cx="2087" cy="1263" r="5"/><circle cx="2160" cy="1248" r="4"/><circle cx="2277" cy="1263" r="5"/><circle cx="2337" cy="1227" r="4"/><circle cx="2427" cy="1268" r="5"/><circle cx="2554" cy="1251" r="5"/><circle cx="18" cy="1324" r="5"/><circle cx="152" cy="1292" r="6"/><circle cx="181" cy="1305" r="5"/><circle cx="261" cy="1313" r="5"/><circle cx="342" cy="1333" r="5"/><circle cx="408" cy="1355" r="4"/><circle cx="491" cy="1321" r="5"/><circle cx="636" cy="1288" r="5"/><circle cx="684" cy="1358" r="4"/><circle cx="740" cy="1320" r="4"/><circle cx="812" cy="1341" r="5"/><circle cx="896" cy="1347" r="4"/><circle cx="994" cy="1303" r="6"/><circle cx="1049" cy="1292" r="5"/><circle cx="1138" cy="1299" r="4"/><circle cx="1220" cy="1344" r="6"/><circle cx="1288" cy="1331" r="5"/><circle cx="1399" cy="1295" r="5"/><circle cx="1508" cy="1297" r="5"/><circle cx="1551" cy="1353" r="6"/><circle cx="1618" cy="1305" r="5"/><circle cx="1709" cy="1303" r="6"/><circle cx="1803" cy="1357" r="5"/><circle cx="1904" cy="1354" r="6"/><circle cx="1933" cy="1303" r="4"/><circle cx="2012" cy="1356" r="6"/><circle cx="2100" cy="1343" r="5"/><circle cx="2219" cy="1309" r="5"/><circle cx="2272" cy="1330" r="4"/><circle cx="2360" cy="1313" r="6"/><circle cx="2425" cy="1349" r="4"/><circle cx="2557" cy="1349" r="5"/><circle cx="-3" cy="1349" r="5"/><circle cx="50" cy="1369" r="5"/><circle cx="125" cy="1366" r="4"/><circle cx="178" cy="1431" r="4"/><circle cx="319" cy="1373" r="5"/><circle cx="383" cy="1426" r="4"/><circle cx="435" cy="1370" r="6"/><circle cx="546" cy="1439" r="6"/><circle cx="546" cy="-1" r="6"/><circle cx="583" cy="1361" r="5"/><circle cx="696" cy="1425" r="6"/><circle cx="797" cy="1430" r="5"/><circle cx="845" cy="1372" r="6"/><circle cx="958" cy="1365" r="4"/><circle cx="1014" cy="1397" r="5"/><circle cx="1043" cy="1419" r="6"/><circle cx="1150" cy="1430" r="5"/><circle cx="1259" cy="1387" r="6"/><circle cx="1288" cy="1410" r="5"/><circle cx="1367" cy="1432" r="6"/><circle cx="1468" cy="1431" r="5"/><circle cx="1590" cy="1438" r="5"/><circle cx="1590" cy="-2" r="5"/><circle cx="1658" cy="1402" r="6"/><circle cx="1755" cy="1388" r="5"/><circle cx="1795" cy="1381" r="5"/><circle cx="1908" cy="1391" r="5"/><circle cx="1983" cy="1389" r="4"/><circle cx="2068" cy="1433" r="6"/><circle cx="2130" cy="1419" r="6"/><circle cx="2226" cy="1387" r="5"/><circle cx="2312" cy="1421" r="4"/><circle cx="2320" cy="1407" r="6"/><circle cx="2435" cy="1425" r="6"/><circle cx="2543" cy="1418" r="5"/><path stroke="#fff" d="M67 58L82 49M67 58L-47 28M67 58L77 130M67 58L43 161M2627 58L2513 28M82 49L77 130M82 49L155 85M82 49L178 -9M82 1489L178 1431M213 29L262 60M213 29L155 85M213 29L247 120M213 29L178 -9M213 1469L178 1431M262 60L247 120M262 60L178 -9M262 1500L178 1431M386 9L437 58M386 9L443 93M386 9L319 -67M386 9L383 -14M386 9L435 -70M386 1449L319 1373M386 1449L383 1426M386 1449L435 1370M437 58L488 60M437 58L443 93M437 58L501 111M437 58L383 -14M437 1498L383 1426M488 60L443 93M488 60L501 111M488 60L546 -1M488 1500L546 1439M628 71L669 25M628 71L610 130M628 71L703 93M628 71L546 -1M628 71L696 -15M628 1511L546 1439M628 1511L696 1425M669 25L731 68M669 25L610 130M669 25L703 93M669 25L696 -15M669 1465L696 1425M731 68L703 93M731 68L778 141M731 68L817 91M731 68L696 -15M731 1508L696 1425M856 79L895 20M856 79L817 91M856 79L914 98M856 79L797 -10M856 1519L797 1430M895 20L986 7M895 20L914 98M895 20L797 -10M895 20L845 -68M895 1460L797 1430M895 1460L845 1372M986 7L1001 102M986 7L958 -75M986 7L1014 -43M986 7L1043 -21M986 1447L958 1365M986 1447L1014 1397M986 1447L1043 1419M1105 64L1147 60M1105 64L1063 121M1105 64L1130 109M1105 64L1043 -21M1105 64L1150 -10M1105 1504L1043 1419M1105 1504L1150 1430M1147 60L1207 43M1147 60L1130 109M1147 60L1150 -10M1147 1500L1150 1430M1207 43L1303 54M1207 43L1130 109M1207 43L1225 137M1207 43L1150 -10M1207 1483L1150 1430M1303 54L1370 8M1303 54L1259 -53M1303 54L1288 -30M1303 54L1367 -8M1303 1494L1259 1387M1303 1494L1288 1410M1303 1494L1367 1432M1370 8L1422 104M1370 8L1367 -8M1370 8L1468 -9M1370 1448L1367 1432M1370 1448L1468 1431M1464 67L1422 104M1464 67L1483 90M1464 67L1405 163M1464 67L1468 -9M1464 1507L1468 1431M1586 61L1633 24M1586 61L1483 90M1586 61L1595 129M1586 61L1671 106M1586 61L1590 -2M1586 1501L1590 1438M1633 24L1671 106M1633 24L1590 -2M1633 24L1658 -38M1633 1464L1590 1438M1633 1464L1658 1402M1749 17L1774 9M1749 17L1724 98M1749 17L1658 -38M1749 17L1755 -52M1749 17L1795 -59M1749 1457L1658 1402M1749 1457L1755 1388M1749 1457L1795 1381M1774 9L1724 98M1774 9L1803 -83M1774 9L1755 -52M1774 9L1795 -59M1774 1449L1803 1357M1774 1449L1755 1388M1774 1449L1795 1381M1907 28L1980 1M1907 28L1908 -49M1907 1468L1908 1391M1980 1L2019 6M1980 1L2012 -84M1980 1L1983 -51M1980 1L2068 -7M1980 1441L2012 1356M1980 1441L1983 1389M1980 1441L2068 1433M2019 6L2097 36M2019 6L2012 -84M2019 6L1983 -51M2019 6L2068 -7M2019 1446L2012 1356M2019 1446L1983 1389M2019 1446L2068 1433M2097 36L2183 62M2097 36L2190 87M2097 36L2068 -7M2097 36L2130 -21M2097 1476L2068 1433M2097 1476L2130 1419M2183 62L2242 1M2183 62L2128 158M2183 62L2190 87M2183 62L2130 -21M2183 1502L2130 1419M2242 1L2190 87M2242 1L2226 -53M2242 1L2312 -19M2242 1L2320 -33M2242 1441L2226 1387M2242 1441L2312 1421M2242 1441L2320 1407M2376 62L2467 46M2376 62L2343 120M2376 62L2400 105M2376 62L2435 -15M2376 1502L2435 1425M2467 46L2513 28M2467 46L2400 105M2467 46L2511 113M2467 46L2435 -15M2467 1486L2435 1425M2513 28L2511 113M2513 28L2435 -15M2513 28L2543 -22M2513 1468L2435 1425M2513 1468L2543 1418M77 130L155 85M77 130L43 161M77 130L157 161M155 85L198 144M155 85L157 161M198 144L247 120M198 144L157 161M198 144L176 224M198 144L285 184M247 120L285 184M371 151L285 184M371 151L350 162M371 151L446 187M443 93L501 111M443 93L446 187M501 111L446 187M501 111L564 163M610 130L703 93M610 130L564 163M610 130L655 175M703 93L778 141M778 141L817 91M778 141L777 173M778 141L824 182M817 91L914 98M817 91L824 182M914 98L1001 102M914 98L929 164M1001 102L1063 121M1001 102L929 164M1001 102L995 193M1063 121L1130 109M1130 109L1150 204M1225 137L1214 211M1355 159L1422 104M1355 159L1293 198M1355 159L1405 163M1355 159L1336 248M1355 159L1370 257M1422 104L1483 90M1422 104L1405 163M1483 90L1517 179M1483 90L1468 -9M1483 1530L1468 1431M1595 129L1671 106M1595 129L1517 179M1595 129L1621 229M1671 106L1724 98M1671 106L1727 203M1724 98L1826 158M1724 98L1727 203M1826 158L1906 147M1826 158L1727 203M1826 158L1818 188M1826 158L1898 175M1906 147L1978 117M1906 147L1818 188M1906 147L1898 175M1906 147L1945 186M1978 117L2038 116M1978 117L1898 175M1978 117L1945 186M2038 116L2128 158M2128 158L2190 87M2128 158L2120 218M2128 158L2216 219M2190 87L2273 125M2273 125L2343 120M2273 125L2293 182M2273 125L2352 174M2343 120L2400 105M2343 120L2293 182M2343 120L2352 174M2400 105L2352 174M2400 105L2446 197M2511 113L2446 197M2511 113L2520 194M43 161L-40 194M43 161L44 247M2603 161L2520 194M157 161L176 224M157 161L171 252M176 224L94 284M176 224L171 252M285 184L350 162M285 184L298 252M350 162L298 252M446 187L520 207M446 187L443 244M520 207L564 163M520 207L443 244M520 207L543 265M520 207L597 265M564 163L655 175M564 163L543 265M777 173L824 182M824 182L846 270M824 182L884 249M929 164L995 193M929 164L884 249M995 193L1067 227M995 193L1034 264M995 193L1064 241M1067 227L1150 204M1067 227L1034 264M1067 227L1064 241M1150 204L1214 211M1150 204L1064 241M1150 204L1162 306M1214 211L1293 198M1214 211L1162 306M1214 211L1251 257M1293 198L1251 257M1293 198L1336 248M1293 198L1370 257M1405 163L1336 248M1405 163L1370 257M1517 179L1546 236M1546 236L1621 229M1546 236L1475 312M1546 236L1591 302M1546 236L1510 324M1621 229L1591 302M1621 229L1620 304M1621 229L1710 249M1727 203L1818 188M1727 203L1710 249M1818 188L1898 175M1818 188L1710 249M1898 175L1945 186M1945 186L2028 233M2028 233L2120 218M2028 233L2100 303M2120 218L2216 219M2120 218L2100 303M2216 219L2239 272M2216 219L2249 249M2293 182L2352 174M2293 182L2249 249M2293 182L2325 256M2352 174L2325 256M2446 197L2520 194M2446 197L2425 273M2446 197L2483 303M2520 194L2604 247M-40 194L44 247M44 247L94 284M44 247L171 252M44 247L-77 303M2604 247L2483 303M94 284L171 252M94 284L126 371M171 252L203 334M298 252L352 308M298 252L345 322M352 308L443 244M352 308L345 322M443 244L543 265M543 265L597 265M543 265L546 342M597 265L677 293M597 265L546 342M597 265L652 329M677 293L732 318M677 293L609 376M677 293L652 329M677 293L767 323M732 318L652 329M732 318L767 323M846 270L884 249M846 270L767 323M846 270L878 363M846 270L887 335M884 249L878 363M884 249L887 335M1034 264L1064 241M1034 264L997 364M1064 241L1162 306M1162 306L1251 257M1162 306L1166 370M1251 257L1336 248M1336 248L1370 257M1370 257L1411 356M1475 312L1411 356M1475 312L1510 324M1475 312L1401 415M1591 302L1620 304M1591 302L1510 324M1591 302L1620 365M1620 304L1710 249M1620 304L1591 392M1620 304L1620 365M1838 318L1919 311M1838 318L1743 389M1838 318L1835 375M1838 318L1883 337M1919 311L1971 308M1919 311L2004 318M1919 311L1883 337M1919 311L1975 327M1971 308L2004 318M1971 308L1883 337M1971 308L1975 327M1971 308L2002 361M2004 318L1975 327M2004 318L2002 361M2004 318L2042 403M2100 303L2085 342M2100 303L2180 387M2239 272L2249 249M2239 272L2325 256M2239 272L2303 359M2249 249L2325 256M2325 256L2425 273M2425 273L2483 303M2425 273L2459 346M2425 273L2488 367M2483 303L2459 346M2483 303L2488 367M43 400L126 371M43 400L41 432M43 400L135 435M43 400L-25 455M43 400L22 493M2603 400L2535 455M126 371L203 334M126 371L41 432M126 371L135 435M203 334L285 388M285 388L345 322M285 388L209 469M285 388L305 431M345 322L434 394M345 322L423 414M434 394L362 458M434 394L423 414M434 394L501 428M434 394L442 485M546 342L609 376M546 342L652 329M546 342L501 428M609 376L652 329M609 376L606 422M767 323L878 363M767 323L847 404M878 363L887 335M878 363L847 404M887 335L997 364M887 335L847 404M997 364L1078 375M997 364L1032 412M1078 375L1166 370M1078 375L1032 412M1166 370L1273 385M1273 385L1301 389M1273 385L1272 427M1273 385L1286 457M1301 389L1272 427M1301 389L1286 457M1301 389L1401 415M1411 356L1510 324M1411 356L1401 415M1411 356L1441 460M1591 392L1620 365M1591 392L1599 477M1620 365L1599 477M1620 365L1663 456M1743 389L1835 375M1743 389L1710 434M1743 389L1838 448M1835 375L1883 337M1835 375L1838 448M1835 375L1841 471M1975 327L2002 361M1975 327L1974 415M2002 361L1974 415M2002 361L2042 403M2085 342L2180 387M2085 342L2042 403M2180 387L2303 359M2180 387L2097 448M2180 387L2211 436M2303 359L2351 398M2351 398L2295 466M2351 398L2332 463M2351 398L2440 403M2351 398L2387 494M2459 346L2488 367M2459 346L2440 403M2488 367L2440 403M2488 367L2535 455M41 432L135 435M41 432L-25 455M41 432L22 493M2601 432L2535 455M135 435L209 469M135 435L161 527M209 469L305 431M209 469L161 527M209 469L268 545M305 431L362 458M362 458L423 414M362 458L379 558M362 458L442 485M423 414L501 428M423 414L442 485M501 428L442 485M501 428L529 482M606 422L715 460M606 422L529 482M715 460L720 479M715 460L707 525M715 460L799 507M715 460L801 483M720 479L707 525M720 479L799 507M720 479L801 483M720 479L671 573M847 404L801 483M942 468L888 549M942 468L1017 488M1032 412L1068 479M1032 412L1017 488M1068 479L1136 472M1068 479L1017 488M1068 479L1069 507M1068 479L1132 520M1136 472L1069 507M1136 472L1132 520M1136 472L1169 563M1272 427L1286 457M1272 427L1256 499M1286 457L1256 499M1286 457L1288 552M1401 415L1441 460M1441 460L1389 548M1441 460L1516 533M1599 477L1663 456M1599 477L1598 528M1599 477L1609 503M1663 456L1710 434M1663 456L1598 528M1663 456L1609 503M1710 434L1716 543M1838 448L1841 471M1838 448L1771 509M1838 448L1858 535M1841 471L1771 509M1841 471L1858 535M1974 415L2042 403M1974 415L1956 512M1974 415L2003 489M2042 403L2097 448M2097 448L2003 489M2097 448L2151 531M2097 448L2183 516M2211 436L2295 466M2211 436L2183 516M2295 466L2332 463M2295 466L2280 542M2295 466L2387 494M2332 463L2280 542M2332 463L2387 494M2332 463L2419 514M2535 455L2582 493M2535 455L2533 510M-25 455L22 493M22 493L85 536M22 493L-27 510M2582 493L2533 510M85 536L161 527M85 536L-27 510M85 536L26 585M85 536L109 631M2645 536L2533 510M161 527L204 628M268 545L274 624M379 558L342 639M379 558L460 579M379 558L406 641M442 485L529 482M529 482L592 553M529 482L592 566M592 553L540 604M592 553L592 566M592 553L671 573M707 525L799 507M707 525L671 573M799 507L801 483M799 507L823 578M888 549L823 578M888 549L932 607M1017 488L1069 507M1017 488L996 568M1069 507L1132 520M1069 507L996 568M1132 520L1169 563M1256 499L1288 552M1256 499L1240 584M1256 499L1295 592M1288 552L1389 548M1288 552L1240 584M1288 552L1295 592M1389 548L1295 592M1389 548L1412 609M1516 533L1598 528M1516 533L1609 503M1516 533L1512 566M1516 533L1547 637M1598 528L1609 503M1598 528L1619 602M1609 503L1619 602M1716 543L1771 509M1716 543L1769 578M1771 509L1858 535M1771 509L1769 578M1858 535L1956 512M1858 535L1902 611M1956 512L2003 489M1956 512L1902 611M1956 512L1936 603M2151 531L2183 516M2151 531L2072 601M2151 531L2135 617M2151 531L2216 580M2183 516L2280 542M2183 516L2216 580M2280 542L2216 580M2280 542L2302 567M2387 494L2419 514M2387 494L2302 567M2419 514L2533 510M2419 514L2415 620M2533 510L2586 585M-27 510L26 585M26 585L109 631M26 585L42 641M109 631L204 628M109 631L42 641M109 631L105 655M204 628L274 624M204 628L105 655M204 628L221 684M274 624L342 639M274 624L221 684M274 624L299 683M342 639L299 683M342 639L374 681M342 639L406 641M460 579L540 604M460 579L592 566M460 579L406 641M460 579L489 680M540 604L592 566M540 604L489 680M592 566L671 573M671 573L670 675M771 616L823 578M771 616L779 649M771 616L818 645M823 578L779 649M823 578L818 645M932 607L996 568M932 607L1045 614M996 568L1045 614M996 568L1062 646M1045 614L1062 646M1169 563L1240 584M1169 563L1171 654M1240 584L1295 592M1240 584L1171 654M1295 592L1306 675M1412 609L1512 566M1412 609L1407 658M1512 566L1547 637M1512 566L1540 658M1547 637L1619 602M1547 637L1489 700M1547 637L1540 658M1619 602L1686 640M1619 602L1540 658M1686 640L1769 578M1686 640L1658 717M1686 640L1714 689M1686 640L1678 733M1902 611L1936 603M1902 611L1864 665M1936 603L1864 665M1936 603L1961 715M1936 603L2013 646M2072 601L2135 617M2072 601L2013 646M2072 601L2093 693M2135 617L2216 580M2135 617L2093 693M2135 617L2227 679M2216 580L2302 567M2302 567L2380 624M2380 624L2415 620M2380 624L2319 676M2380 624L2359 718M2380 624L2424 658M2415 620L2496 639M2415 620L2424 658M2496 639L2424 658M2496 639L2537 694M2496 639L2477 734M42 641L105 655M42 641L-23 694M42 641L24 733M2602 641L2537 694M105 655L24 733M221 684L299 683M299 683L374 681M299 683L268 790M374 681L406 641M374 681L390 768M374 681L412 775M406 641L489 680M489 680L580 713M489 680L500 737M580 713L670 675M580 713L500 737M580 713L634 757M580 713L597 811M670 675L779 649M670 675L634 757M779 649L818 645M818 645L876 746M930 718L983 705M930 718L876 746M930 718L892 777M930 718L979 781M930 718L1055 736M983 705L1062 646M983 705L979 781M983 705L1055 736M1062 646L1171 654M1062 646L1055 736M1171 654L1228 706M1171 654L1156 723M1228 706L1306 675M1228 706L1156 723M1228 706L1262 771M1228 706L1296 765M1306 675L1407 658M1306 675L1296 765M1306 675L1379 728M1407 658L1489 700M1407 658L1379 728M1407 658L1447 748M1489 700L1540 658M1489 700L1447 748M1540 658L1587 760M1658 717L1714 689M1658 717L1587 760M1658 717L1678 733M1714 689L1678 733M1714 689L1727 800M1714 689L1830 721M1836 718L1864 665M1836 718L1830 721M1836 718L1870 735M1864 665L1830 721M1864 665L1870 735M1961 715L2013 646M1961 715L1870 735M1961 715L1995 786M2013 646L2093 693M2093 693L2065 763M2093 693L2125 761M2227 679L2319 676M2227 679L2216 780M2227 679L2241 739M2319 676L2359 718M2319 676L2424 658M2319 676L2241 739M2359 718L2424 658M2359 718L2354 787M2359 718L2312 817M2537 694L2584 733M2537 694L2477 734M2537 694L2556 783M-23 694L24 733M24 733L108 780M24 733L-4 783M2584 733L2556 783M108 780L164 798M108 780L117 873M108 780L168 805M164 798L268 790M164 798L117 873M164 798L168 805M164 798L272 845M268 790L168 805M268 790L272 845M268 790L258 885M390 768L412 775M390 768L364 856M390 768L476 823M412 775L500 737M412 775L364 856M412 775L476 823M500 737L476 823M634 757L692 777M634 757L597 811M634 757L681 805M692 777L754 790M692 777L597 811M692 777L681 805M692 777L766 824M754 790L681 805M754 790L766 824M876 746L892 777M876 746L870 836M892 777L979 781M892 777L870 836M979 781L1055 736M979 781L985 835M1055 736L1156 723M1156 723L1190 841M1262 771L1296 765M1262 771L1190 841M1262 771L1200 848M1296 765L1379 728M1296 765L1300 862M1379 728L1447 748M1379 728L1363 844M1447 748L1494 851M1587 760L1678 733M1587 760L1545 856M1587 760L1623 866M1678 733L1727 800M1727 800L1718 878M1727 800L1780 830M1830 721L1870 735M1870 735L1923 824M1995 786L2065 763M1995 786L1923 824M1995 786L2053 828M2065 763L2125 761M2065 763L2053 828M2125 761L2216 780M2125 761L2053 828M2125 761L2146 827M2216 780L2241 739M2216 780L2146 827M2216 780L2227 848M2354 787L2312 817M2354 787L2333 846M2354 787L2452 808M2477 734L2556 783M2477 734L2452 808M2556 783L2562 855M2556 783L2540 842M-4 783L2 855M2 855L-20 842M2 855L39 933M2 855L-30 936M2562 855L2540 842M2562 855L2530 936M117 873L168 805M117 873L108 905M117 873L182 906M168 805L182 906M272 845L364 856M272 845L258 885M364 856L368 941M364 856L409 884M476 823L504 873M476 823L409 884M504 873L597 811M504 873L409 884M504 873L555 949M597 811L681 805M681 805L766 824M766 824L870 836M766 824L800 900M870 836L800 900M870 836L857 915M955 869L985 835M955 869L1041 861M955 869L857 915M955 869L949 944M955 869L986 911M985 835L1041 861M985 835L986 911M1041 861L986 911M1041 861L1044 944M1041 861L1151 889M1190 841L1200 848M1190 841L1151 889M1190 841L1255 885M1200 848L1300 862M1200 848L1151 889M1200 848L1255 885M1300 862L1363 844M1300 862L1255 885M1300 862L1303 918M1363 844L1303 918M1494 851L1545 856M1494 851L1496 895M1545 856L1623 866M1545 856L1496 895M1545 856L1586 915M1623 866L1718 878M1623 866L1586 915M1623 866L1663 923M1718 878L1780 830M1718 878L1663 923M1718 878L1737 898M1780 830L1866 871M1780 830L1737 898M1780 830L1843 891M1866 871L1923 824M1866 871L1843 891M1923 824L1843 891M1923 824L1964 928M2053 828L2146 827M2053 828L2099 906M2146 827L2227 848M2146 827L2099 906M2227 848L2312 817M2227 848L2240 942M2227 848L2243 922M2312 817L2333 846M2333 846L2452 808M2333 846L2373 915M2452 808L2540 842M2540 842L2530 936M39 933L108 905M39 933L-30 936M39 933L67 966M39 933L-22 989M2599 933L2530 936M2599 933L2538 989M108 905L182 906M108 905L67 966M108 905L111 991M182 906L258 885M182 906L198 1003M258 885L266 981M368 941L409 884M368 941L336 972M368 941L460 987M409 884L460 987M555 949L623 952M555 949L522 1024M555 949L588 987M555 949L647 971M623 952L700 933M623 952L588 987M623 952L647 971M700 933L800 900M700 933L647 971M700 933L721 1012M800 900L857 915M857 915L949 944M857 915L800 1015M949 944L986 911M949 944L1044 944M986 911L1044 944M1044 944L1151 889M1044 944L1069 973M1151 889L1172 971M1255 885L1303 918M1303 918L1278 992M1423 956L1496 895M1423 956L1379 1038M1423 956L1503 1027M1423 956L1367 1049M1423 956L1455 1050M1496 895L1586 915M1496 895L1548 982M1586 915L1663 923M1586 915L1548 982M1663 923L1737 898M1663 923L1707 982M1737 898L1796 958M1737 898L1707 982M1796 958L1843 891M1796 958L1707 982M1796 958L1834 975M1796 958L1751 1047M1843 891L1834 975M1964 928L2018 928M1964 928L1964 1017M2018 928L2099 906M2018 928L2023 1035M2099 906L2146 998M2240 942L2243 922M2240 942L2146 998M2240 942L2227 998M2240 942L2293 987M2243 922L2227 998M2243 922L2293 987M2373 915L2476 935M2373 915L2293 987M2373 915L2427 985M2476 935L2530 936M2476 935L2427 985M2476 935L2538 989M2530 936L2538 989M67 966L111 991M67 966L-22 989M2627 966L2538 989M111 991L198 1003M111 991L127 1074M198 1003L266 981M198 1003L127 1074M198 1003L245 1057M266 981L336 972M266 981L245 1057M266 981L326 1045M336 972L460 987M336 972L326 1045M336 972L425 1051M460 987L522 1024M460 987L425 1051M522 1024L588 987M522 1024L534 1106M522 1024L595 1084M588 987L647 971M588 987L595 1084M647 971L721 1012M721 1012L800 1015M721 1012L685 1102M721 1012L769 1066M800 1015L898 1027M800 1015L769 1066M898 1027L984 1036M898 1027L862 1106M898 1027L953 1082M898 1027L965 1060M984 1036L1069 973M984 1036L953 1082M984 1036L965 1060M1069 973L1172 971M1069 973L1101 1048M1172 971L1278 992M1172 971L1101 1048M1278 992L1322 1033M1278 992L1379 1038M1278 992L1266 1078M1322 1033L1379 1038M1322 1033L1266 1078M1322 1033L1280 1109M1322 1033L1367 1049M1379 1038L1367 1049M1379 1038L1455 1050M1503 1027L1548 982M1503 1027L1455 1050M1503 1027L1589 1041M1503 1027L1536 1129M1548 982L1589 1041M1667 1018L1707 982M1667 1018L1589 1041M1667 1018L1645 1103M1667 1018L1751 1047M1667 1018L1769 1059M1707 982L1751 1047M1834 975L1887 1029M1834 975L1769 1059M1887 1029L1964 1017M1887 1029L1887 1060M1887 1029L1952 1050M1887 1029L1897 1129M1964 1017L2023 1035M1964 1017L1887 1060M1964 1017L1952 1050M2023 1035L1952 1050M2023 1035L2036 1106M2023 1035L2101 1053M2146 998L2227 998M2146 998L2101 1053M2146 998L2178 1053M2227 998L2293 987M2227 998L2178 1053M2293 987L2358 1030M2358 1030L2427 985M2358 1030L2318 1092M2358 1030L2358 1080M2358 1030L2402 1047M2427 985L2402 1047M2538 989L2506 1057M48 1083L127 1074M48 1083L-54 1057M48 1083L39 1160M48 1083L117 1134M48 1083L-17 1150M2608 1083L2506 1057M2608 1083L2543 1150M127 1074L201 1114M127 1074L117 1134M201 1114L245 1057M201 1114L117 1134M201 1114L214 1180M201 1114L273 1142M245 1057L326 1045M245 1057L273 1142M326 1045L425 1051M326 1045L369 1142M425 1051L369 1142M534 1106L595 1084M534 1106L459 1169M534 1106L524 1187M595 1084L685 1102M595 1084L597 1191M685 1102L769 1066M685 1102L712 1123M685 1102L726 1167M769 1066L862 1106M769 1066L712 1123M862 1106L953 1082M862 1106L839 1127M862 1106L888 1134M953 1082L965 1060M953 1082L888 1134M965 1060L888 1134M1101 1048L1196 1083M1101 1048L1072 1165M1196 1083L1266 1078M1196 1083L1280 1109M1196 1083L1192 1174M1196 1083L1222 1122M1266 1078L1280 1109M1266 1078L1222 1122M1280 1109L1222 1122M1280 1109L1289 1186M1367 1049L1455 1050M1455 1050L1536 1129M1589 1041L1645 1103M1589 1041L1536 1129M1645 1103L1642 1158M1645 1103L1687 1170M1751 1047L1769 1059M1887 1060L1952 1050M1887 1060L1897 1129M1952 1050L1953 1138M2036 1106L2101 1053M2036 1106L1953 1138M2036 1106L2020 1156M2036 1106L2115 1188M2101 1053L2178 1053M2318 1092L2358 1080M2318 1092L2402 1047M2318 1092L2275 1127M2318 1092L2329 1175M2358 1080L2402 1047M2358 1080L2275 1127M2358 1080L2329 1175M2402 1047L2506 1057M39 1160L117 1134M39 1160L-17 1150M39 1160L48 1227M39 1160L104 1202M2599 1160L2543 1150M117 1134L104 1202M214 1180L273 1142M214 1180L198 1237M273 1142L369 1142M369 1142L459 1169M369 1142L345 1237M459 1169L524 1187M524 1187L597 1191M524 1187L544 1255M524 1187L593 1243M597 1191L544 1255M597 1191L593 1243M597 1191L652 1244M712 1123L726 1167M712 1123L839 1127M726 1167L652 1244M726 1167L796 1236M726 1167L825 1235M839 1127L888 1134M839 1127L796 1236M888 1134L825 1235M1040 1180L1072 1165M1072 1165L1100 1265M1192 1174L1222 1122M1192 1174L1289 1186M1192 1174L1183 1240M1192 1174L1228 1203M1222 1122L1228 1203M1289 1186L1401 1192M1289 1186L1228 1203M1289 1186L1285 1260M1401 1192L1516 1184M1401 1192L1431 1257M1401 1192L1461 1243M1401 1192L1399 1295M1516 1184L1536 1129M1516 1184L1431 1257M1516 1184L1461 1243M1516 1184L1558 1269M1536 1129L1642 1158M1642 1158L1687 1170M1642 1158L1629 1261M1642 1158L1733 1254M1687 1170L1629 1261M1687 1170L1733 1254M1838 1164L1897 1129M1838 1164L1898 1213M1897 1129L1953 1138M1897 1129L1898 1213M1953 1138L2020 1156M1953 1138L1898 1213M2020 1156L2115 1188M2020 1156L2020 1243M2115 1188L2221 1194M2115 1188L2087 1263M2115 1188L2160 1248M2221 1194L2275 1127M2221 1194L2160 1248M2221 1194L2277 1263M2275 1127L2329 1175M2275 1127L2337 1227M2329 1175L2337 1227M2463 1179L2543 1150M2463 1179L2427 1268M2543 1150L2608 1227M2543 1150L2554 1251M-17 1150L48 1227M48 1227L104 1202M48 1227L-6 1251M48 1227L18 1324M2608 1227L2554 1251M104 1202L198 1237M104 1202L152 1292M198 1237L152 1292M198 1237L181 1305M198 1237L261 1313M319 1269L345 1237M319 1269L402 1267M319 1269L261 1313M319 1269L342 1333M345 1237L402 1267M402 1267L342 1333M402 1267L408 1355M402 1267L435 1370M544 1255L593 1243M544 1255L491 1321M544 1255L636 1288M593 1243L652 1244M593 1243L636 1288M652 1244L636 1288M796 1236L825 1235M796 1236L740 1320M796 1236L812 1341M825 1235L921 1268M921 1268L963 1264M921 1268L896 1347M921 1268L994 1303M963 1264L994 1303M963 1264L1049 1292M1100 1265L1183 1240M1100 1265L1049 1292M1100 1265L1138 1299M1183 1240L1228 1203M1183 1240L1285 1260M1183 1240L1138 1299M1228 1203L1285 1260M1285 1260L1220 1344M1285 1260L1288 1331M1431 1257L1461 1243M1431 1257L1399 1295M1431 1257L1508 1297M1461 1243L1399 1295M1461 1243L1508 1297M1558 1269L1629 1261M1558 1269L1508 1297M1558 1269L1551 1353M1558 1269L1618 1305M1629 1261L1618 1305M1629 1261L1709 1303M1733 1254L1775 1275M1733 1254L1709 1303M1775 1275L1709 1303M1775 1275L1803 1357M1898 1213L1926 1272M1898 1213L1933 1303M1926 1272L2020 1243M1926 1272L1904 1354M1926 1272L1933 1303M2020 1243L2087 1263M2087 1263L2160 1248M2087 1263L2100 1343M2160 1248L2100 1343M2160 1248L2219 1309M2277 1263L2337 1227M2277 1263L2219 1309M2277 1263L2272 1330M2337 1227L2427 1268M2337 1227L2360 1313M2427 1268L2554 1251M2427 1268L2360 1313M2427 1268L2425 1349M2554 1251L2578 1324M2554 1251L2557 1349M-6 1251L18 1324M18 1324L-3 1349M18 1324L50 1369M18 1324L-17 1418M2578 1324L2557 1349M2578 1324L2543 1418M152 1292L181 1305M152 1292L125 1366M181 1305L261 1313M181 1305L125 1366M181 1305L178 1431M261 1313L342 1333M261 1313L319 1373M342 1333L408 1355M342 1333L319 1373M408 1355L319 1373M408 1355L383 1426M408 1355L435 1370M491 1321L435 1370M491 1321L546 1439M491 1321L583 1361M636 1288L684 1358M636 1288L583 1361M684 1358L740 1320M684 1358L583 1361M684 1358L696 1425M740 1320L812 1341M812 1341L896 1347M812 1341L797 1430M812 1341L845 1372M896 1347L845 1372M896 1347L958 1365M994 1303L1049 1292M994 1303L958 1365M994 1303L1014 1397M1049 1292L1138 1299M1049 1292L1014 1397M1138 1299L1220 1344M1220 1344L1288 1331M1220 1344L1259 1387M1220 1344L1288 1410M1288 1331L1399 1295M1288 1331L1259 1387M1288 1331L1288 1410M1399 1295L1508 1297M1508 1297L1551 1353M1551 1353L1618 1305M1551 1353L1590 1438M1618 1305L1709 1303M1618 1305L1658 1402M1803 1357L1904 1354M1803 1357L1755 1388M1803 1357L1795 1381M1904 1354L1933 1303M1904 1354L1908 1391M1904 1354L1983 1389M1933 1303L1908 1391M2012 1356L2100 1343M2012 1356L1983 1389M2012 1356L2068 1433M2100 1343L2130 1419M2219 1309L2272 1330M2219 1309L2226 1387M2272 1330L2360 1313M2272 1330L2226 1387M2272 1330L2320 1407M2360 1313L2425 1349M2360 1313L2320 1407M2425 1349L2435 1425M2557 1349L2610 1369M2557 1349L2543 1418M-3 1349L50 1369M50 1369L125 1366M50 1369L-17 1418M2610 1369L2543 1418M125 1366L178 1431M319 1373L383 1426M383 1426L435 1370M546 1439L583 1361M696 1425L797 1430M797 1430L845 1372M958 1365L1014 1397M958 1365L1043 1419M1014 1397L1043 1419M1043 1419L1150 1430M1259 1387L1288 1410M1259 1387L1367 1432M1288 1410L1367 1432M1367 1432L1468 1431M1468 1431L1590 1438M1590 1438L1658 1402M1658 1402L1755 1388M1755 1388L1795 1381M1795 1381L1908 1391M1908 1391L1983 1389M2068 1433L2130 1419M2130 1419L2226 1387M2226 1387L2320 1407M2312 1421L2320 1407M2435 1425L2543 1418"/></svg>