<svg xmlns="http://www.w3.org/2000/svg" width="2560" height="1440" fill="#fff"><circle cx="40" cy="3" r="5"/><circle cx="40" cy="1443" r="5"/><circle cx="88" cy="54" r="6"/><circle cx="222" cy="67" r="4"/><circle cx="287" cy="24" r="6"/><circle cx="395" cy="5" r="4"/><circle cx="416" cy="50" r="6"/><circle cx="552" cy="33" r="5"/><circle cx="602" cy="49" r="4"/><circle cx="651" cy="52" r="4"/><circle cx="784" cy="50" r="5"/><circle cx="811" cy="29" r="6"/><circle cx="942" cy="75" r="6"/><circle cx="968" cy="19" r="5"/><circle cx="1097" cy="75" r="6"/><circle cx="1180" cy="47" r="5"/><circle cx="1211" cy="41" r="6"/><circle cx="1331" cy="48" r="4"/><circle cx="1436" cy="30" r="4"/><circle cx="1468" cy="45" r="4"/><circle cx="1588" cy="2" r="4"/><circle cx="1588" cy="1442" r="4"/><circle cx="1639" cy="45" r="6"/><circle cx="1708" cy="73" r="5"/><circle cx="1818" cy="51" r="4"/><circle cx="1917" cy="42" r="5"/><circle cx="1999" cy="34" r="4"/><circle cx="2004" cy="9" r="5"/><circle cx="2104" cy="53" r="6"/><circle cx="2203" cy="17" r="4"/><circle cx="2242" cy="49" r="5"/><circle cx="2400" cy="2" r="6"/><circle cx="2400" cy="1442" r="6"/><circle cx="2405" cy="77" r="6"/><circle cx="2487" cy="49" r="4"/><circle cx="54" cy="139" r="6"/><circle cx="86" cy="105" r="6"/><circle cx="201" cy="114" r="5"/><circle cx="316" cy="150" r="5"/><circle cx="382" cy="160" r="5"/><circle cx="472" cy="101" r="5"/><circle cx="510" cy="136" r="4"/><circle cx="584" cy="96" r="4"/><circle cx="653" cy="113" r="5"/><circle cx="779" cy="104" r="5"/><circle cx="815" cy="127" r="5"/><circle cx="934" cy="146" r="4"/><circle cx="963" cy="112" r="4"/><circle cx="1053" cy="142" r="4"/><circle cx="1195" cy="113" r="5"/><circle cx="1218" cy="132" r="6"/><circle cx="1345" cy="144" r="6"/><circle cx="1420" cy="102" r="6"/><circle cx="1500" cy="104" r="4"/><circle cx="1579" cy="80" r="4"/><circle cx="1640" cy="146" r="6"/><circle cx="1735" cy="157" r="6"/><circle cx="1773" cy="115" r="5"/><circle cx="1919" cy="138" r="4"/><circle cx="1927" cy="110" r="6"/><circle cx="2062" cy="157" r="6"/><circle cx="2097" cy="99" r="4"/><circle cx="2225" cy="153" r="5"/><circle cx="2285" cy="126" r="5"/><circle cx="2330" cy="156" r="5"/><circle cx="2401" cy="102" r="5"/><circle cx="2512" cy="95" r="5"/><circle cx="49" cy="183" r="6"/><circle cx="122" cy="220" r="6"/><circle cx="178" cy="170" r="6"/><circle cx="271" cy="175" r="5"/><circle cx="383" cy="197" r="6"/><circle cx="424" cy="172" r="4"/><circle cx="523" cy="180" r="5"/><circle cx="636" cy="182" r="6"/><circle cx="659" cy="166" r="5"/><circle cx="776" cy="221" r="5"/><circle cx="821" cy="199" r="5"/><circle cx="924" cy="174" r="4"/><circle cx="1008" cy="196" r="6"/><circle cx="1050" cy="233" r="5"/><circle cx="1152" cy="229" r="5"/><circle cx="1274" cy="202" r="6"/><circle cx="1318" cy="212" r="6"/><circle cx="1422" cy="188" r="5"/><circle cx="1508" cy="197" r="4"/><circle cx="1593" cy="180" r="5"/><circle cx="1660" cy="164" r="5"/><circle cx="1757" cy="177" r="6"/><circle cx="1830" cy="179" r="5"/><circle cx="1876" cy="174" r="4"/><circle cx="1923" cy="225" r="4"/><circle cx="2053" cy="222" r="5"/><circle cx="2131" cy="220" r="5"/><circle cx="2164" cy="177" r="4"/><circle cx="2264" cy="172" r="4"/><circle cx="2397" cy="191" r="6"/><circle cx="2462" cy="184" r="5"/><circle cx="2518" cy="181" r="4"/><circle cx="78" cy="261" r="5"/><circle cx="124" cy="317" r="4"/><circle cx="190" cy="317" r="6"/><circle cx="284" cy="257" r="4"/><circle cx="331" cy="295" r="4"/><circle cx="431" cy="250" r="5"/><circle cx="502" cy="286" r="5"/><circle cx="634" cy="320" r="5"/><circle cx="661" cy="251" r="5"/><circle cx="745" cy="269" r="6"/><circle cx="833" cy="248" r="5"/><circle cx="945" cy="264" r="4"/><circle cx="1002" cy="320" r="4"/><circle cx="1053" cy="261" r="4"/><circle cx="1123" cy="280" r="6"/><circle cx="1200" cy="272" r="4"/><circle cx="1322" cy="311" r="5"/><circle cx="1430" cy="271" r="4"/><circle cx="1448" cy="275" r="4"/><circle cx="1561" cy="271" r="6"/><circle cx="1656" cy="312" r="5"/><circle cx="1734" cy="241" r="5"/><circle cx="1807" cy="280" r="5"/><circle cx="1845" cy="282" r="6"/><circle cx="1934" cy="261" r="5"/><circle cx="2042" cy="302" r="6"/><circle cx="2086" cy="297" r="5"/><circle cx="2219" cy="282" r="4"/><circle cx="2270" cy="248" r="6"/><circle cx="2331" cy="262" r="6"/><circle cx="2471" cy="313" r="5"/><circle cx="2515" cy="315" r="6"/><circle cx="39" cy="337" r="5"/><circle cx="146" cy="394" r="5"/><circle cx="194" cy="397" r="6"/><circle cx="254" cy="354" r="5"/><circle cx="368" cy="383" r="6"/><circle cx="455" cy="400" r="5"/><circle cx="499" cy="337" r="6"/><circle cx="635" cy="323" r="5"/><circle cx="713" cy="375" r="6"/><circle cx="726" cy="335" r="6"/><circle cx="833" cy="390" r="5"/><circle cx="929" cy="342" r="5"/><circle cx="1035" cy="375" r="6"/><circle cx="1077" cy="328" r="6"/><circle cx="1149" cy="343" r="4"/><circle cx="1212" cy="352" r="5"/><circle cx="1300" cy="382" r="5"/><circle cx="1400" cy="366" r="6"/><circle cx="1452" cy="340" r="6"/><circle cx="1521" cy="385" r="4"/><circle cx="1618" cy="353" r="5"/><circle cx="1719" cy="400" r="5"/><circle cx="1807" cy="361" r="5"/><circle cx="1854" cy="343" r="5"/><circle cx="1939" cy="362" r="6"/><circle cx="2069" cy="371" r="5"/><circle cx="2117" cy="363" r="4"/><circle cx="2179" cy="343" r="4"/><circle cx="2245" cy="361" r="6"/><circle cx="2397" cy="379" r="5"/><circle cx="2415" cy="391" r="6"/><circle cx="2480" cy="346" r="5"/><circle cx="73" cy="475" r="6"/><circle cx="105" cy="433" r="6"/><circle cx="235" cy="467" r="4"/><circle cx="268" cy="462" r="6"/><circle cx="356" cy="479" r="5"/><circle cx="462" cy="410" r="6"/><circle cx="557" cy="472" r="5"/><circle cx="635" cy="438" r="5"/><circle cx="710" cy="436" r="4"/><circle cx="758" cy="459" r="5"/><circle cx="800" cy="469" r="5"/><circle cx="906" cy="451" r="5"/><circle cx="976" cy="436" r="4"/><circle cx="1100" cy="471" r="5"/><circle cx="1146" cy="400" r="6"/><circle cx="1231" cy="436" r="6"/><circle cx="1321" cy="406" r="4"/><circle cx="1406" cy="453" r="4"/><circle cx="1450" cy="424" r="5"/><circle cx="1554" cy="427" r="6"/><circle cx="1649" cy="440" r="4"/><circle cx="1692" cy="429" r="4"/><circle cx="1790" cy="421" r="4"/><circle cx="1882" cy="437" r="6"/><circle cx="1999" cy="470" r="5"/><circle cx="2060" cy="401" r="5"/><circle cx="2144" cy="473" r="4"/><circle cx="2173" cy="453" r="6"/><circle cx="2264" cy="415" r="5"/><circle cx="2389" cy="477" r="4"/><circle cx="2425" cy="464" r="5"/><circle cx="2510" cy="418" r="4"/><circle cx="49" cy="521" r="5"/><circle cx="132" cy="558" r="5"/><circle cx="210" cy="503" r="5"/><circle cx="276" cy="529" r="6"/><circle cx="341" cy="494" r="5"/><circle cx="432" cy="493" r="4"/><circle cx="494" cy="550" r="5"/><circle cx="617" cy="501" r="6"/><circle cx="670" cy="549" r="4"/><circle cx="773" cy="507" r="5"/><circle cx="827" cy="555" r="5"/><circle cx="887" cy="528" r="5"/><circle cx="989" cy="537" r="5"/><circle cx="1045" cy="523" r="4"/><circle cx="1178" cy="495" r="4"/><circle cx="1246" cy="534" r="4"/><circle cx="1333" cy="530" r="6"/><circle cx="1397" cy="532" r="6"/><circle cx="1462" cy="484" r="5"/><circle cx="1553" cy="550" r="5"/><circle cx="1674" cy="528" r="6"/><circle cx="1728" cy="527" r="5"/><circle cx="1760" cy="532" r="6"/><circle cx="1867" cy="505" r="5"/><circle cx="1980" cy="560" r="6"/><circle cx="2059" cy="553" r="5"/><circle cx="2109" cy="482" r="5"/><circle cx="2218" cy="560" r="4"/><circle cx="2296" cy="498" r="4"/><circle cx="2321" cy="498" r="6"/><circle cx="2438" cy="481" r="4"/><circle cx="2530" cy="505" r="5"/><circle cx="8" cy="587" r="4"/><circle cx="109" cy="601" r="5"/><circle cx="199" cy="628" r="5"/><circle cx="280" cy="623" r="4"/><circle cx="360" cy="628" r="4"/><circle cx="400" cy="590" r="5"/><circle cx="506" cy="597" r="4"/><circle cx="610" cy="583" r="6"/><circle cx="696" cy="607" r="4"/><circle cx="771" cy="623" r="4"/><circle cx="847" cy="605" r="5"/><circle cx="931" cy="578" r="6"/><circle cx="985" cy="620" r="5"/><circle cx="1099" cy="562" r="5"/><circle cx="1157" cy="567" r="5"/><circle cx="1273" cy="603" r="5"/><circle cx="1297" cy="569" r="5"/><circle cx="1368" cy="608" r="6"/><circle cx="1510" cy="603" r="5"/><circle cx="1564" cy="638" r="4"/><circle cx="1609" cy="629" r="6"/><circle cx="1694" cy="610" r="5"/><circle cx="1834" cy="597" r="5"/><circle cx="1889" cy="619" r="5"/><circle cx="1975" cy="639" r="4"/><circle cx="2039" cy="595" r="5"/><circle cx="2089" cy="591" r="6"/><circle cx="2164" cy="618" r="6"/><circle cx="2256" cy="585" r="5"/><circle cx="2398" cy="639" r="5"/><circle cx="2463" cy="601" r="5"/><circle cx="2511" cy="626" r="5"/><circle cx="77" cy="674" r="5"/><circle cx="119" cy="687" r="5"/><circle cx="190" cy="692" r="4"/><circle cx="282" cy="707" r="4"/><circle cx="362" cy="659" r="5"/><circle cx="406" cy="659" r="5"/><circle cx="481" cy="673" r="6"/><circle cx="595" cy="643" r="4"/><circle cx="666" cy="718" r="5"/><circle cx="787" cy="687" r="4"/><circle cx="817" cy="676" r="5"/><circle cx="958" cy="661" r="6"/><circle cx="964" cy="643" r="6"/><circle cx="1072" cy="713" r="6"/><circle cx="1182" cy="718" r="6"/><circle cx="1238" cy="679" r="5"/><circle cx="1311" cy="698" r="6"/><circle cx="1440" cy="715" r="6"/><circle cx="1518" cy="667" r="5"/><circle cx="1580" cy="648" r="4"/><circle cx="1604" cy="684" r="6"/><circle cx="1735" cy="672" r="6"/><circle cx="1798" cy="712" r="4"/><circle cx="1858" cy="684" r="6"/><circle cx="1942" cy="641" r="5"/><circle cx="2066" cy="708" r="5"/><circle cx="2132" cy="653" r="5"/><circle cx="2172" cy="709" r="4"/><circle cx="2249" cy="653" r="5"/><circle cx="2346" cy="681" r="4"/><circle cx="2444" cy="675" r="5"/><circle cx="2534" cy="640" r="4"/><circle cx="25" cy="727" r="4"/><circle cx="140" cy="789" r="6"/><circle cx="208" cy="755" r="6"/><circle cx="279" cy="754" r="5"/><circle cx="372" cy="732" r="6"/><circle cx="453" cy="765" r="6"/><circle cx="546" cy="777" r="5"/><circle cx="616" cy="794" r="4"/><circle cx="710" cy="756" r="6"/><circle cx="762" cy="733" r="4"/><circle cx="840" cy="764" r="5"/><circle cx="955" cy="747" r="5"/><circle cx="971" cy="748" r="5"/><circle cx="1065" cy="726" r="4"/><circle cx="1134" cy="759" r="6"/><circle cx="1217" cy="752" r="5"/><circle cx="1317" cy="758" r="5"/><circle cx="1370" cy="790" r="5"/><circle cx="1459" cy="778" r="5"/><circle cx="1577" cy="727" r="6"/><circle cx="1608" cy="742" r="6"/><circle cx="1724" cy="766" r="5"/><circle cx="1797" cy="721" r="5"/><circle cx="1919" cy="734" r="6"/><circle cx="1933" cy="744" r="4"/><circle cx="2007" cy="781" r="5"/><circle cx="2089" cy="735" r="5"/><circle cx="2180" cy="721" r="4"/><circle cx="2243" cy="782" r="5"/><circle cx="2384" cy="794" r="4"/><circle cx="2450" cy="743" r="5"/><circle cx="2521" cy="732" r="4"/><circle cx="52" cy="814" r="5"/><circle cx="128" cy="826" r="5"/><circle cx="183" cy="856" r="6"/><circle cx="316" cy="843" r="5"/><circle cx="338" cy="828" r="5"/><circle cx="434" cy="819" r="4"/><circle cx="528" cy="832" r="6"/><circle cx="620" cy="826" r="5"/><circle cx="676" cy="870" r="5"/><circle cx="747" cy="872" r="5"/><circle cx="811" cy="879" r="5"/><circle cx="891" cy="841" r="6"/><circle cx="1002" cy="820" r="4"/><circle cx="1077" cy="836" r="4"/><circle cx="1192" cy="807" r="6"/><circle cx="1210" cy="851" r="5"/><circle cx="1346" cy="830" r="5"/><circle cx="1419" cy="861" r="6"/><circle cx="1486" cy="835" r="4"/><circle cx="1555" cy="878" r="5"/><circle cx="1675" cy="820" r="4"/><circle cx="1718" cy="836" r="4"/><circle cx="1765" cy="872" r="5"/><circle cx="1884" cy="800" r="6"/><circle cx="1954" cy="849" r="6"/><circle cx="2049" cy="805" r="6"/><circle cx="2158" cy="866" r="5"/><circle cx="2232" cy="844" r="5"/><circle cx="2283" cy="878" r="4"/><circle cx="2329" cy="865" r="4"/><circle cx="2459" cy="815" r="6"/><circle cx="2542" cy="874" r="5"/><circle cx="18" cy="897" r="5"/><circle cx="95" cy="888" r="5"/><circle cx="209" cy="934" r="4"/><circle cx="300" cy="915" r="5"/><circle cx="365" cy="881" r="5"/><circle cx="422" cy="957" r="4"/><circle cx="540" cy="883" r="5"/><circle cx="591" cy="882" r="6"/><circle cx="686" cy="894" r="6"/><circle cx="730" cy="954" r="4"/><circle cx="814" cy="902" r="5"/><circle cx="918" cy="909" r="5"/><circle cx="1011" cy="910" r="6"/><circle cx="1091" cy="954" r="5"/><circle cx="1163" cy="928" r="5"/><circle cx="1219" cy="933" r="6"/><circle cx="1351" cy="914" r="5"/><circle cx="1386" cy="920" r="4"/><circle cx="1453" cy="934" r="5"/><circle cx="1548" cy="942" r="5"/><circle cx="1603" cy="932" r="5"/><circle cx="1751" cy="931" r="5"/><circle cx="1797" cy="891" r="5"/><circle cx="1895" cy="951" r="5"/><circle cx="1924" cy="883" r="6"/><circle cx="2029" cy="919" r="6"/><circle cx="2153" cy="907" r="5"/><circle cx="2172" cy="925" r="6"/><circle cx="2270" cy="909" r="5"/><circle cx="2390" cy="900" r="6"/><circle cx="2415" cy="952" r="5"/><circle cx="2507" cy="925" r="5"/><circle cx="25" cy="1009" r="5"/><circle cx="149" cy="1002" r="4"/><circle cx="195" cy="1018" r="5"/><circle cx="285" cy="995" r="4"/><circle cx="363" cy="976" r="5"/><circle cx="463" cy="982" r="4"/><circle cx="519" cy="1027" r="4"/><circle cx="625" cy="976" r="4"/><circle cx="669" cy="961" r="6"/><circle cx="776" cy="982" r="5"/><circle cx="801" cy="982" r="6"/><circle cx="936" cy="1008" r="5"/><circle cx="1020" cy="997" r="4"/><circle cx="1096" cy="1015" r="4"/><circle cx="1149" cy="1003" r="6"/><circle cx="1264" cy="1030" r="6"/><circle cx="1321" cy="1001" r="5"/><circle cx="1368" cy="1024" r="6"/><circle cx="1482" cy="1011" r="4"/><circle cx="1553" cy="1011" r="4"/><circle cx="1632" cy="1033" r="4"/><circle cx="1728" cy="971" r="6"/><circle cx="1779" cy="1040" r="5"/><circle cx="1862" cy="1013" r="5"/><circle cx="1995" cy="965" r="5"/><circle cx="2042" cy="973" r="5"/><circle cx="2152" cy="972" r="6"/><circle cx="2180" cy="1021" r="6"/><circle cx="2309" cy="967" r="4"/><circle cx="2383" cy="982" r="5"/><circle cx="2405" cy="1033" r="5"/><circle cx="2549" cy="986" r="4"/><circle cx="67" cy="1057" r="4"/><circle cx="81" cy="1116" r="6"/><circle cx="216" cy="1084" r="5"/><circle cx="283" cy="1094" r="5"/><circle cx="368" cy="1104" r="5"/><circle cx="456" cy="1051" r="5"/><circle cx="513" cy="1082" r="5"/><circle cx="565" cy="1097" r="6"/><circle cx="685" cy="1120" r="4"/><circle cx="768" cy="1081" r="5"/><circle cx="802" cy="1087" r="6"/><circle cx="923" cy="1051" r="4"/><circle cx="1000" cy="1112" r="5"/><circle cx="1040" cy="1064" r="5"/><circle cx="1176" cy="1042" r="5"/><circle cx="1260" cy="1049" r="6"/><circle cx="1358" cy="1091" r="5"/><circle cx="1403" cy="1082" r="6"/><circle cx="1457" cy="1060" r="5"/><circle cx="1536" cy="1060" r="6"/><circle cx="1673" cy="1087" r="5"/><circle cx="1744" cy="1102" r="4"/><circle cx="1789" cy="1041" r="5"/><circle cx="1884" cy="1053" r="6"/><circle cx="1936" cy="1120" r="5"/><circle cx="2006" cy="1050" r="5"/><circle cx="2144" cy="1083" r="5"/><circle cx="2239" cy="1074" r="4"/><circle cx="2254" cy="1120" r="6"/><circle cx="2374" cy="1072" r="5"/><circle cx="2467" cy="1050" r="4"/><circle cx="2515" cy="1051" r="6"/><circle cx="2" cy="1183" r="5"/><circle cx="2562" cy="1183" r="5"/><circle cx="145" cy="1193" r="5"/><circle cx="209" cy="1162" r="4"/><circle cx="296" cy="1150" r="4"/><circle cx="378" cy="1173" r="5"/><circle cx="439" cy="1174" r="6"/><circle cx="506" cy="1128" r="4"/><circle cx="565" cy="1182" r="4"/><circle cx="711" cy="1173" r="5"/><circle cx="756" cy="1171" r="4"/><circle cx="822" cy="1153" r="5"/><circle cx="939" cy="1198" r="4"/><circle cx="1004" cy="1138" r="4"/><circle cx="1072" cy="1168" r="4"/><circle cx="1130" cy="1196" r="6"/><circle cx="1210" cy="1139" r="5"/><circle cx="1341" cy="1122" r="6"/><circle cx="1417" cy="1123" r="6"/><circle cx="1495" cy="1167" r="5"/><circle cx="1584" cy="1169" r="5"/><circle cx="1628" cy="1195" r="4"/><circle cx="1690" cy="1127" r="5"/><circle cx="1794" cy="1159" r="6"/><circle cx="1898" cy="1134" r="6"/><circle cx="1988" cy="1144" r="5"/><circle cx="2013" cy="1196" r="4"/><circle cx="2086" cy="1144" r="6"/><circle cx="2208" cy="1129" r="4"/><circle cx="2252" cy="1176" r="5"/><circle cx="2337" cy="1152" r="6"/><circle cx="2416" cy="1199" r="5"/><circle cx="2504" cy="1175" r="5"/><circle cx="18" cy="1271" r="6"/><circle cx="139" cy="1242" r="4"/><circle cx="165" cy="1209" r="4"/><circle cx="294" cy="1244" r="4"/><circle cx="376" cy="1227" r="6"/><circle cx="444" cy="1202" r="5"/><circle cx="543" cy="1276" r="5"/><circle cx="625" cy="1259" r="4"/><circle cx="692" cy="1250" r="6"/><circle cx="728" cy="1247" r="4"/><circle cx="874" cy="1252" r="4"/><circle cx="884" cy="1228" r="5"/><circle cx="1036" cy="1258" r="6"/><circle cx="1081" cy="1230" r="4"/><circle cx="1199" cy="1228" r="6"/><circle cx="1223" cy="1246" r="6"/><circle cx="1301" cy="1229" r="4"/><circle cx="1421" cy="1275" r="5"/><circle cx="1476" cy="1226" r="4"/><circle cx="1547" cy="1223" r="5"/><circle cx="1640" cy="1241" r="6"/><circle cx="1735" cy="1277" r="6"/><circle cx="1831" cy="1268" r="6"/><circle cx="1845" cy="1204" r="6"/><circle cx="1957" cy="1258" r="4"/><circle cx="2042" cy="1253" r="5"/><circle cx="2081" cy="1238" r="5"/><circle cx="2180" cy="1263" r="5"/><circle cx="2245" cy="1221" r="4"/><circle cx="2386" cy="1242" r="6"/><circle cx="2405" cy="1254" r="4"/><circle cx="2532" cy="1261" r="5"/><circle cx="22" cy="1285" r="4"/><circle cx="84" cy="1302" r="5"/><circle cx="218" cy="1333" r="4"/><circle cx="298" cy="1285" r="4"/><circle cx="361" cy="1323" r="6"/><circle cx="412" cy="1301" r="5"/><circle cx="491" cy="1328" r="4"/><circle cx="630" cy="1315" r="5"/><circle cx="664" cy="1356" r="6"/><circle cx="726" cy="1334" r="5"/><circle cx="808" cy="1307" r="5"/><circle cx="892" cy="1303" r="5"/><circle cx="970" cy="1355" r="6"/><circle cx="1110" cy="1297" r="5"/><circle cx="1167" cy="1339" r="5"/><circle cx="1262" cy="1297" r="5"/><circle cx="1314" cy="1320" r="5"/><circle cx="1393" cy="1354" r="5"/><circle cx="1517" cy="1346" r="4"/><circle cx="1524" cy="1294" r="5"/><circle cx="1601" cy="1310" r="4"/><circle cx="1689" cy="1303" r="5"/><circle cx="1838" cy="1293" r="6"/><circle cx="1856" cy="1311" r="6"/><circle cx="1995" cy="1344" r="5"/><circle cx="2012" cy="1293" r="5"/><circle cx="2116" cy="1327" r="4"/><circle cx="2176" cy="1350" r="5"/><circle cx="2247" cy="1284" r="5"/><circle cx="2394" cy="1307" r="6"/><circle cx="2409" cy="1344" r="5"/><circle cx="2546" cy="1292" r="5"/><circle cx="76" cy="1407" r="5"/><circle cx="140" cy="1431" r="4"/><circle cx="217" cy="1420" r="5"/><circle cx="280" cy="1380" r="5"/><circle cx="329" cy="1426" r="5"/><circle cx="464" cy="1388" r="5"/><circle cx="548" cy="1363" r="5"/><circle cx="568" cy="1369" r="4"/><circle cx="646" cy="1405" r="5"/><circle cx="780" cy="1423" r="4"/><circle cx="833" cy="1407" r="5"/><circle cx="901" cy="1374" r="5"/><circle cx="964" cy="1402" r="5"/><circle cx="1113" cy="1371" r="6"/><circle cx="1198" cy="1430" r="5"/><circle cx="1267" cy="1363" r="4"/><circle cx="1335" cy="1386" r="6"/><circle cx="1367" cy="1399" r="4"/><circle cx="1460" cy="1367" r="4"/><circle cx="1580" cy="1402" r="5"/><circle cx="1671" cy="1375" r="5"/><circle cx="1690" cy="1422" r="5"/><circle cx="1819" cy="1418" r="5"/><circle cx="1840" cy="1412" r="5"/><circle cx="1958" cy="1376" r="6"/><circle cx="2014" cy="1405" r="6"/><circle cx="2148" cy="1434" r="5"/><circle cx="2183" cy="1371" r="4"/><circle cx="2317" cy="1439" r="5"/><circle cx="2317" cy="-1" r="5"/><circle cx="2339" cy="1425" r="6"/><circle cx="2478" cy="1372" r="6"/><circle cx="2537" cy="1360" r="4"/><path stroke="#fff" d="M40 3L88 54M40 3L76 -33M40 3L140 -9M40 3L-23 -80M2600 3L2537 -80M40 1443L76 1407M40 1443L140 1431M40 1443L-23 1360M2600 1443L2537 1360M88 54L54 139M88 54L86 105M88 54L76 -33M88 54L140 -9M88 1494L76 1407M88 1494L140 1431M222 67L287 24M222 67L201 114M222 67L178 170M222 67L140 -9M222 67L217 -20M222 1507L140 1431M222 1507L217 1420M287 24L395 5M287 24L217 -20M287 24L280 -60M287 24L329 -14M287 1464L217 1420M287 1464L280 1380M287 1464L329 1426M395 5L416 50M395 5L329 -14M395 5L464 -52M395 1445L329 1426M395 1445L464 1388M416 50L472 101M416 50L329 -14M416 50L464 -52M416 1490L329 1426M416 1490L464 1388M552 33L602 49M552 33L651 52M552 33L584 96M602 49L651 52M602 49L584 96M602 49L653 113M602 49L646 -35M602 1489L646 1405M651 52L584 96M651 52L653 113M651 52L646 -35M651 1492L646 1405M784 50L811 29M784 50L779 104M784 50L815 127M784 50L780 -17M784 50L833 -33M784 1490L780 1423M784 1490L833 1407M811 29L779 104M811 29L815 127M811 29L780 -17M811 29L833 -33M811 1469L780 1423M811 1469L833 1407M942 75L968 19M942 75L934 146M942 75L963 112M942 75L924 174M942 75L964 -38M942 1515L964 1402M968 19L963 112M968 19L970 -85M968 19L901 -66M968 19L964 -38M968 1459L970 1355M968 1459L901 1374M968 1459L964 1402M1097 75L1180 47M1097 75L1211 41M1097 75L1053 142M1097 75L1195 113M1180 47L1211 41M1180 47L1195 113M1180 47L1218 132M1180 47L1198 -10M1180 1487L1198 1430M1211 41L1195 113M1211 41L1218 132M1211 41L1198 -10M1211 1481L1198 1430M1331 48L1345 144M1331 48L1335 -54M1331 48L1367 -41M1331 1488L1335 1386M1331 1488L1367 1399M1436 30L1468 45M1436 30L1420 102M1436 30L1500 104M1436 30L1367 -41M1436 30L1460 -73M1436 1470L1367 1399M1436 1470L1460 1367M1468 45L1420 102M1468 45L1500 104M1588 2L1639 45M1588 2L1579 80M1588 2L1580 -38M1588 2L1671 -65M1588 2L1690 -18M1588 1442L1580 1402M1588 1442L1671 1375M1588 1442L1690 1422M1639 45L1708 73M1639 45L1579 80M1639 45L1640 146M1639 45L1690 -18M1639 1485L1690 1422M1708 73L1735 157M1708 73L1773 115M1708 73L1690 -18M1708 1513L1690 1422M1818 51L1917 42M1818 51L1773 115M1818 51L1819 -22M1818 51L1840 -28M1818 1491L1819 1418M1818 1491L1840 1412M1917 42L1999 34M1917 42L2004 9M1917 42L1919 138M1917 42L1927 110M1999 34L2004 9M1999 34L1927 110M1999 34L1958 -64M1999 34L2014 -35M1999 1474L1958 1376M1999 1474L2014 1405M2004 9L1995 -96M2004 9L1958 -64M2004 9L2014 -35M2004 1449L1995 1344M2004 1449L1958 1376M2004 1449L2014 1405M2104 53L2203 17M2104 53L2062 157M2104 53L2097 99M2104 53L2014 -35M2104 53L2148 -6M2104 1493L2014 1405M2104 1493L2148 1434M2203 17L2242 49M2203 17L2148 -6M2203 17L2183 -69M2203 1457L2148 1434M2203 1457L2183 1371M2242 49L2225 153M2242 49L2285 126M2242 49L2317 -1M2242 49L2339 -15M2242 1489L2317 1439M2242 1489L2339 1425M2400 2L2405 77M2400 2L2401 102M2400 2L2317 -1M2400 2L2339 -15M2400 2L2478 -68M2400 1442L2317 1439M2400 1442L2339 1425M2400 1442L2478 1372M2405 77L2487 49M2405 77L2401 102M2405 77L2397 191M2405 77L2339 -15M2405 1517L2339 1425M2487 49L2512 95M2487 49L2478 -68M2487 1489L2478 1372M54 139L86 105M54 139L-48 95M54 139L49 183M54 139L122 220M2614 139L2512 95M86 105L49 183M86 105L178 170M201 114L316 150M201 114L178 170M201 114L271 175M316 150L382 160M316 150L271 175M316 150L383 197M382 160L472 101M382 160L383 197M382 160L424 172M382 160L431 250M472 101L510 136M472 101L424 172M472 101L523 180M510 136L523 180M584 96L653 113M584 96L636 182M653 113L636 182M653 113L659 166M779 104L815 127M779 104L776 221M779 104L821 199M815 127L776 221M815 127L821 199M934 146L963 112M934 146L924 174M934 146L1008 196M963 112L924 174M1053 142L1008 196M1053 142L1050 233M1195 113L1218 132M1195 113L1274 202M1218 132L1152 229M1218 132L1274 202M1345 144L1420 102M1345 144L1274 202M1345 144L1318 212M1345 144L1422 188M1420 102L1500 104M1420 102L1422 188M1500 104L1579 80M1500 104L1508 197M1579 80L1640 146M1579 80L1593 180M1640 146L1593 180M1640 146L1660 164M1735 157L1773 115M1735 157L1660 164M1735 157L1757 177M1735 157L1734 241M1773 115L1757 177M1773 115L1830 179M1919 138L1927 110M1919 138L1876 174M1919 138L1923 225M1927 110L1876 174M2062 157L2097 99M2062 157L2053 222M2062 157L2131 220M2062 157L2164 177M2097 99L2164 177M2225 153L2285 126M2225 153L2164 177M2225 153L2264 172M2225 153L2270 248M2285 126L2330 156M2285 126L2264 172M2330 156L2401 102M2330 156L2264 172M2330 156L2397 191M2330 156L2331 262M2401 102L2397 191M2401 102L2462 184M2512 95L2462 184M2512 95L2518 181M49 183L122 220M49 183L-42 181M49 183L78 261M2609 183L2518 181M122 220L178 170M122 220L78 261M122 220L124 317M178 170L271 175M271 175L383 197M271 175L284 257M383 197L424 172M383 197L431 250M424 172L523 180M424 172L431 250M523 180L636 182M523 180L502 286M636 182L659 166M636 182L661 251M659 166L661 251M776 221L821 199M776 221L745 269M776 221L833 248M821 199L833 248M924 174L1008 196M924 174L945 264M1008 196L1050 233M1008 196L1053 261M1050 233L1053 261M1152 229L1123 280M1152 229L1200 272M1274 202L1318 212M1274 202L1200 272M1318 212L1322 311M1318 212L1430 271M1422 188L1508 197M1422 188L1430 271M1422 188L1448 275M1508 197L1593 180M1508 197L1448 275M1508 197L1561 271M1593 180L1660 164M1593 180L1561 271M1660 164L1757 177M1660 164L1734 241M1757 177L1830 179M1757 177L1734 241M1830 179L1876 174M1830 179L1807 280M1876 174L1923 225M1923 225L1845 282M1923 225L1934 261M2053 222L2131 220M2053 222L2042 302M2053 222L2086 297M2131 220L2164 177M2131 220L2086 297M2264 172L2270 248M2397 191L2462 184M2397 191L2331 262M2462 184L2518 181M78 261L124 317M78 261L39 337M124 317L190 317M124 317L39 337M124 317L146 394M190 317L284 257M190 317L146 394M190 317L194 397M190 317L254 354M284 257L331 295M331 295L254 354M331 295L368 383M431 250L502 286M431 250L499 337M502 286L499 337M634 320L661 251M634 320L635 323M634 320L713 375M634 320L726 335M661 251L745 269M661 251L635 323M745 269L833 248M745 269L726 335M833 248L945 264M945 264L1002 320M945 264L929 342M1002 320L1053 261M1002 320L929 342M1002 320L1035 375M1002 320L1077 328M1053 261L1123 280M1053 261L1077 328M1123 280L1200 272M1123 280L1077 328M1123 280L1149 343M1200 272L1149 343M1200 272L1212 352M1322 311L1300 382M1322 311L1321 406M1430 271L1448 275M1430 271L1452 340M1448 275L1452 340M1561 271L1656 312M1561 271L1618 353M1656 312L1734 241M1656 312L1618 353M1656 312L1719 400M1734 241L1807 280M1807 280L1845 282M1807 280L1807 361M1807 280L1854 343M1845 282L1934 261M1845 282L1807 361M1845 282L1854 343M1934 261L1939 362M2042 302L2086 297M2042 302L2069 371M2042 302L2117 363M2042 302L2060 401M2086 297L2069 371M2086 297L2117 363M2219 282L2270 248M2219 282L2331 262M2219 282L2179 343M2219 282L2245 361M2270 248L2331 262M2270 248L2245 361M2471 313L2515 315M2471 313L2397 379M2471 313L2415 391M2471 313L2480 346M2471 313L2510 418M2515 315L2599 337M2515 315L2480 346M2515 315L2510 418M-45 315L39 337M39 337L105 433M146 394L194 397M146 394L73 475M146 394L105 433M194 397L254 354M194 397L105 433M194 397L235 467M254 354L368 383M368 383L455 400M368 383L356 479M368 383L462 410M455 400L499 337M455 400L462 410M455 400L432 493M499 337L462 410M635 323L713 375M635 323L726 335M635 323L635 438M713 375L726 335M713 375L710 436M713 375L758 459M833 390L929 342M833 390L758 459M833 390L800 469M833 390L906 451M929 342L1035 375M929 342L906 451M1035 375L1077 328M1035 375L976 436M1035 375L1146 400M1077 328L1149 343M1149 343L1212 352M1149 343L1146 400M1212 352L1300 382M1212 352L1146 400M1212 352L1231 436M1300 382L1400 366M1300 382L1231 436M1300 382L1321 406M1400 366L1452 340M1400 366L1321 406M1400 366L1406 453M1400 366L1450 424M1452 340L1521 385M1452 340L1450 424M1521 385L1618 353M1521 385L1450 424M1521 385L1554 427M1618 353L1554 427M1618 353L1649 440M1719 400L1649 440M1719 400L1692 429M1719 400L1790 421M1807 361L1854 343M1807 361L1790 421M1807 361L1882 437M1854 343L1939 362M1854 343L1882 437M1939 362L1882 437M1939 362L1999 470M2069 371L2117 363M2069 371L2060 401M2117 363L2179 343M2117 363L2060 401M2179 343L2245 361M2179 343L2173 453M2179 343L2264 415M2245 361L2173 453M2245 361L2264 415M2397 379L2415 391M2397 379L2480 346M2397 379L2425 464M2415 391L2480 346M2415 391L2389 477M2415 391L2425 464M2480 346L2510 418M73 475L105 433M73 475L49 521M73 475L132 558M73 475L-30 505M2633 475L2530 505M105 433L49 521M235 467L268 462M235 467L210 503M235 467L276 529M268 462L356 479M268 462L210 503M268 462L276 529M268 462L341 494M356 479L276 529M356 479L341 494M356 479L432 493M462 410L557 472M462 410L432 493M557 472L635 438M557 472L494 550M557 472L617 501M635 438L710 436M635 438L617 501M710 436L758 459M710 436L800 469M710 436L773 507M758 459L800 469M758 459L773 507M800 469L773 507M800 469L827 555M906 451L976 436M906 451L887 528M1100 471L1146 400M1100 471L1045 523M1100 471L1178 495M1100 471L1099 562M1100 471L1157 567M1146 400L1231 436M1231 436L1321 406M1231 436L1178 495M1406 453L1450 424M1406 453L1397 532M1406 453L1462 484M1450 424L1462 484M1554 427L1649 440M1554 427L1462 484M1554 427L1553 550M1649 440L1692 429M1649 440L1674 528M1692 429L1790 421M1692 429L1674 528M1692 429L1728 527M1790 421L1882 437M1882 437L1867 505M1999 470L2060 401M1999 470L1980 560M1999 470L2059 553M2060 401L2109 482M2144 473L2173 453M2144 473L2109 482M2173 453L2264 415M2173 453L2109 482M2264 415L2296 498M2264 415L2321 498M2389 477L2425 464M2389 477L2296 498M2389 477L2321 498M2389 477L2438 481M2425 464L2321 498M2425 464L2438 481M2510 418L2438 481M2510 418L2530 505M49 521L132 558M49 521L-30 505M49 521L8 587M2609 521L2530 505M132 558L210 503M132 558L109 601M132 558L199 628M210 503L276 529M276 529L341 494M341 494L432 493M432 493L494 550M494 550L400 590M494 550L506 597M617 501L670 549M617 501L610 583M670 549L773 507M670 549L610 583M670 549L696 607M773 507L827 555M827 555L887 528M827 555L771 623M827 555L847 605M887 528L989 537M887 528L847 605M887 528L931 578M989 537L1045 523M989 537L931 578M989 537L985 620M989 537L964 643M1045 523L1099 562M1178 495L1246 534M1178 495L1099 562M1178 495L1157 567M1246 534L1333 530M1246 534L1157 567M1246 534L1273 603M1246 534L1297 569M1333 530L1397 532M1333 530L1273 603M1333 530L1297 569M1333 530L1368 608M1397 532L1462 484M1397 532L1297 569M1397 532L1368 608M1553 550L1510 603M1674 528L1728 527M1674 528L1760 532M1674 528L1694 610M1728 527L1760 532M1728 527L1694 610M1760 532L1867 505M1760 532L1694 610M1760 532L1834 597M1867 505L1834 597M1867 505L1889 619M1980 560L2059 553M1980 560L1975 639M1980 560L2039 595M1980 560L1942 641M2059 553L2109 482M2059 553L2039 595M2059 553L2089 591M2109 482L2089 591M2218 560L2296 498M2218 560L2164 618M2218 560L2256 585M2218 560L2249 653M2296 498L2321 498M2296 498L2256 585M2321 498L2256 585M2438 481L2530 505M2530 505L2568 587M-30 505L8 587M8 587L-97 601M8 587L-49 626M8 587L-26 640M2568 587L2463 601M2568 587L2511 626M2568 587L2534 640M109 601L199 628M109 601L77 674M109 601L119 687M199 628L280 623M199 628L119 687M199 628L190 692M280 623L360 628M280 623L282 707M280 623L362 659M360 628L400 590M360 628L362 659M360 628L406 659M400 590L362 659M400 590L406 659M400 590L481 673M506 597L610 583M506 597L481 673M506 597L595 643M610 583L696 607M610 583L595 643M696 607L771 623M696 607L595 643M771 623L847 605M771 623L787 687M771 623L817 676M847 605L817 676M931 578L985 620M931 578L958 661M931 578L964 643M985 620L958 661M985 620L964 643M985 620L1072 713M1099 562L1157 567M1273 603L1297 569M1273 603L1368 608M1273 603L1238 679M1297 569L1368 608M1368 608L1311 698M1510 603L1564 638M1510 603L1518 667M1564 638L1609 629M1564 638L1518 667M1564 638L1580 648M1564 638L1604 684M1609 629L1694 610M1609 629L1580 648M1609 629L1604 684M1609 629L1577 727M1694 610L1735 672M1834 597L1889 619M1834 597L1858 684M1889 619L1975 639M1889 619L1858 684M1889 619L1942 641M1975 639L2039 595M1975 639L1942 641M2039 595L2089 591M2039 595L1942 641M2089 591L2164 618M2089 591L2132 653M2164 618L2132 653M2164 618L2172 709M2164 618L2249 653M2256 585L2249 653M2398 639L2463 601M2398 639L2346 681M2398 639L2444 675M2398 639L2450 743M2463 601L2511 626M2463 601L2444 675M2463 601L2534 640M2511 626L2444 675M2511 626L2534 640M77 674L119 687M77 674L-26 640M77 674L25 727M2637 674L2534 640M119 687L190 692M190 692L208 755M282 707L208 755M282 707L279 754M282 707L372 732M362 659L406 659M362 659L372 732M406 659L481 673M406 659L372 732M481 673L453 765M595 643L666 718M666 718L616 794M666 718L710 756M666 718L762 733M787 687L817 676M787 687L710 756M787 687L762 733M787 687L840 764M817 676L762 733M817 676L840 764M958 661L964 643M958 661L955 747M958 661L971 748M964 643L971 748M1072 713L1182 718M1072 713L971 748M1072 713L1065 726M1072 713L1134 759M1182 718L1238 679M1182 718L1134 759M1182 718L1217 752M1182 718L1192 807M1238 679L1311 698M1238 679L1217 752M1238 679L1317 758M1311 698L1317 758M1440 715L1370 790M1440 715L1459 778M1518 667L1580 648M1518 667L1577 727M1580 648L1604 684M1580 648L1577 727M1604 684L1577 727M1604 684L1608 742M1735 672L1798 712M1735 672L1724 766M1735 672L1797 721M1798 712L1858 684M1798 712L1724 766M1798 712L1797 721M1858 684L1797 721M1858 684L1919 734M1942 641L1919 734M2066 708L2132 653M2066 708L2089 735M2066 708L2049 805M2132 653L2172 709M2132 653L2180 721M2172 709L2249 653M2172 709L2089 735M2172 709L2180 721M2249 653L2180 721M2444 675L2450 743M2444 675L2521 732M2534 640L2521 732M25 727L-39 732M2585 727L2521 732M140 789L208 755M140 789L52 814M140 789L128 826M140 789L183 856M140 789L95 888M208 755L279 754M208 755L183 856M279 754L372 732M279 754L316 843M279 754L338 828M372 732L453 765M453 765L546 777M453 765L434 819M453 765L528 832M546 777L616 794M546 777L528 832M616 794L620 826M710 756L762 733M762 733L840 764M840 764L891 841M955 747L971 748M955 747L1065 726M955 747L891 841M955 747L1002 820M971 748L1002 820M1065 726L1134 759M1134 759L1217 752M1134 759L1192 807M1217 752L1317 758M1217 752L1192 807M1317 758L1370 790M1317 758L1346 830M1370 790L1459 778M1370 790L1346 830M1459 778L1486 835M1577 727L1608 742M1608 742L1555 878M1608 742L1675 820M1724 766L1797 721M1724 766L1675 820M1724 766L1718 836M1797 721L1884 800M1919 734L1933 744M1919 734L2007 781M1919 734L1884 800M1933 744L2007 781M1933 744L1884 800M2007 781L2089 735M2007 781L1954 849M2007 781L2049 805M2089 735L2180 721M2089 735L2049 805M2180 721L2243 782M2243 782L2232 844M2384 794L2450 743M2384 794L2329 865M2384 794L2459 815M2450 743L2521 732M2450 743L2459 815M2521 732L2459 815M52 814L128 826M52 814L-18 874M52 814L18 897M52 814L95 888M2612 814L2542 874M128 826L183 856M128 826L95 888M183 856L95 888M183 856L209 934M316 843L338 828M316 843L434 819M316 843L300 915M316 843L365 881M338 828L434 819M338 828L300 915M338 828L365 881M434 819L365 881M528 832L620 826M528 832L540 883M528 832L591 882M620 826L676 870M620 826L591 882M676 870L747 872M676 870L591 882M676 870L686 894M676 870L669 961M747 872L811 879M747 872L686 894M747 872L730 954M747 872L814 902M811 879L891 841M811 879L814 902M811 879L801 982M891 841L814 902M891 841L918 909M1002 820L1077 836M1002 820L1011 910M1077 836L1011 910M1192 807L1210 851M1210 851L1163 928M1210 851L1219 933M1346 830L1419 861M1346 830L1351 914M1346 830L1386 920M1419 861L1486 835M1419 861L1351 914M1419 861L1386 920M1419 861L1453 934M1486 835L1555 878M1555 878L1548 942M1555 878L1603 932M1675 820L1718 836M1675 820L1765 872M1718 836L1765 872M1718 836L1751 931M1718 836L1797 891M1765 872L1751 931M1765 872L1797 891M1765 872L1728 971M1884 800L1954 849M1884 800L1924 883M1954 849L2049 805M1954 849L1924 883M1954 849L2029 919M2049 805L2029 919M2158 866L2232 844M2158 866L2153 907M2158 866L2172 925M2158 866L2152 972M2232 844L2283 878M2232 844L2270 909M2283 878L2329 865M2283 878L2270 909M2283 878L2309 967M2329 865L2270 909M2329 865L2390 900M2459 815L2542 874M2459 815L2390 900M2542 874L2578 897M2542 874L2507 925M-18 874L18 897M18 897L95 888M18 897L-53 925M18 897L-11 986M2578 897L2507 925M2578 897L2549 986M209 934L149 1002M209 934L195 1018M209 934L285 995M300 915L365 881M300 915L285 995M300 915L363 976M365 881L363 976M422 957L363 976M422 957L463 982M540 883L591 882M591 882L686 894M686 894L730 954M686 894L669 961M730 954L669 961M730 954L776 982M730 954L801 982M814 902L776 982M814 902L801 982M918 909L1011 910M918 909L936 1008M1011 910L1091 954M1011 910L1020 997M1091 954L1163 928M1091 954L1020 997M1091 954L1096 1015M1091 954L1149 1003M1163 928L1219 933M1163 928L1149 1003M1219 933L1149 1003M1219 933L1264 1030M1351 914L1386 920M1351 914L1453 934M1351 914L1321 1001M1386 920L1453 934M1453 934L1548 942M1453 934L1482 1011M1548 942L1603 932M1548 942L1553 1011M1603 932L1553 1011M1603 932L1632 1033M1751 931L1797 891M1751 931L1728 971M1797 891L1895 951M1797 891L1728 971M1895 951L1924 883M1895 951L1862 1013M1895 951L1995 965M1895 951L1884 1053M1924 883L2029 919M1924 883L1995 965M2029 919L1995 965M2029 919L2042 973M2153 907L2172 925M2153 907L2152 972M2153 907L2180 1021M2172 925L2270 909M2172 925L2152 972M2172 925L2180 1021M2270 909L2309 967M2390 900L2415 952M2390 900L2309 967M2390 900L2383 982M2415 952L2507 925M2415 952L2309 967M2415 952L2383 982M2415 952L2405 1033M2507 925L2549 986M25 1009L-11 986M25 1009L67 1057M25 1009L81 1116M25 1009L-45 1051M2585 1009L2549 986M2585 1009L2515 1051M149 1002L195 1018M149 1002L67 1057M149 1002L216 1084M195 1018L285 995M195 1018L216 1084M285 995L363 976M285 995L283 1094M363 976L463 982M463 982L519 1027M463 982L456 1051M519 1027L456 1051M519 1027L513 1082M519 1027L565 1097M625 976L669 961M669 961L776 982M776 982L801 982M776 982L802 1087M801 982L802 1087M936 1008L1020 997M936 1008L923 1051M1020 997L1096 1015M1020 997L1040 1064M1096 1015L1149 1003M1096 1015L1040 1064M1096 1015L1176 1042M1149 1003L1176 1042M1264 1030L1321 1001M1264 1030L1176 1042M1264 1030L1260 1049M1321 1001L1368 1024M1321 1001L1260 1049M1321 1001L1358 1091M1368 1024L1358 1091M1368 1024L1403 1082M1368 1024L1457 1060M1368 1024L1341 1122M1482 1011L1553 1011M1482 1011L1457 1060M1482 1011L1536 1060M1553 1011L1632 1033M1553 1011L1536 1060M1632 1033L1536 1060M1632 1033L1673 1087M1728 971L1779 1040M1728 971L1789 1041M1779 1040L1862 1013M1779 1040L1744 1102M1779 1040L1789 1041M1862 1013L1789 1041M1862 1013L1884 1053M1995 965L2042 973M1995 965L2006 1050M2042 973L2152 972M2042 973L2006 1050M2152 972L2180 1021M2180 1021L2144 1083M2180 1021L2239 1074M2309 967L2383 982M2383 982L2405 1033M2383 982L2374 1072M2405 1033L2374 1072M2405 1033L2467 1050M2405 1033L2515 1051M2549 986L2467 1050M2549 986L2515 1051M67 1057L81 1116M81 1116L2 1183M81 1116L145 1193M216 1084L283 1094M216 1084L209 1162M283 1094L368 1104M283 1094L209 1162M283 1094L296 1150M368 1104L456 1051M368 1104L296 1150M368 1104L378 1173M368 1104L439 1174M456 1051L513 1082M456 1051L506 1128M513 1082L565 1097M513 1082L506 1128M565 1097L685 1120M565 1097L506 1128M565 1097L565 1182M685 1120L768 1081M685 1120L711 1173M768 1081L802 1087M768 1081L756 1171M768 1081L822 1153M802 1087L756 1171M802 1087L822 1153M923 1051L1000 1112M1000 1112L1040 1064M1000 1112L939 1198M1000 1112L1004 1138M1000 1112L1072 1168M1040 1064L1004 1138M1176 1042L1260 1049M1176 1042L1210 1139M1260 1049L1210 1139M1260 1049L1341 1122M1358 1091L1403 1082M1358 1091L1341 1122M1358 1091L1417 1123M1403 1082L1457 1060M1403 1082L1341 1122M1403 1082L1417 1123M1457 1060L1536 1060M1457 1060L1417 1123M1536 1060L1495 1167M1673 1087L1744 1102M1673 1087L1690 1127M1744 1102L1789 1041M1744 1102L1690 1127M1744 1102L1794 1159M1789 1041L1884 1053M1884 1053L1936 1120M1884 1053L1898 1134M1936 1120L2006 1050M1936 1120L1898 1134M1936 1120L1988 1144M2006 1050L1988 1144M2144 1083L2239 1074M2144 1083L2086 1144M2144 1083L2208 1129M2239 1074L2254 1120M2239 1074L2208 1129M2239 1074L2252 1176M2254 1120L2208 1129M2254 1120L2252 1176M2254 1120L2337 1152M2254 1120L2245 1221M2374 1072L2467 1050M2374 1072L2337 1152M2467 1050L2515 1051M2515 1051L2504 1175M2 1183L-56 1175M2 1183L18 1271M2 1183L-28 1261M2562 1183L2504 1175M2562 1183L2532 1261M145 1193L209 1162M145 1193L139 1242M145 1193L165 1209M209 1162L296 1150M209 1162L165 1209M296 1150L378 1173M296 1150L294 1244M378 1173L439 1174M378 1173L376 1227M378 1173L444 1202M439 1174L506 1128M439 1174L376 1227M439 1174L444 1202M506 1128L565 1182M565 1182L625 1259M711 1173L756 1171M711 1173L822 1153M711 1173L692 1250M711 1173L728 1247M756 1171L822 1153M756 1171L728 1247M822 1153L884 1228M939 1198L1004 1138M939 1198L874 1252M939 1198L884 1228M939 1198L1036 1258M1004 1138L1072 1168M1072 1168L1130 1196M1072 1168L1036 1258M1072 1168L1081 1230M1130 1196L1210 1139M1130 1196L1081 1230M1130 1196L1199 1228M1130 1196L1223 1246M1210 1139L1199 1228M1210 1139L1223 1246M1341 1122L1417 1123M1417 1123L1495 1167M1495 1167L1584 1169M1495 1167L1476 1226M1495 1167L1547 1223M1584 1169L1628 1195M1584 1169L1547 1223M1584 1169L1640 1241M1628 1195L1690 1127M1628 1195L1640 1241M1690 1127L1794 1159M1794 1159L1898 1134M1794 1159L1831 1268M1794 1159L1845 1204M1898 1134L1988 1144M1898 1134L1845 1204M1988 1144L2013 1196M1988 1144L2086 1144M2013 1196L2086 1144M2013 1196L1957 1258M2013 1196L2042 1253M2013 1196L2081 1238M2086 1144L2081 1238M2208 1129L2252 1176M2208 1129L2245 1221M2252 1176L2337 1152M2252 1176L2245 1221M2337 1152L2416 1199M2337 1152L2386 1242M2416 1199L2504 1175M2416 1199L2386 1242M2416 1199L2405 1254M2416 1199L2394 1307M2504 1175L2532 1261M18 1271L-28 1261M18 1271L22 1285M18 1271L84 1302M18 1271L-14 1292M2578 1271L2532 1261M2578 1271L2546 1292M139 1242L165 1209M139 1242L84 1302M294 1244L298 1285M376 1227L444 1202M376 1227L361 1323M376 1227L412 1301M444 1202L412 1301M543 1276L625 1259M543 1276L491 1328M543 1276L548 1363M625 1259L692 1250M625 1259L630 1315M692 1250L728 1247M692 1250L630 1315M692 1250L726 1334M728 1247L726 1334M728 1247L808 1307M874 1252L884 1228M874 1252L808 1307M874 1252L892 1303M884 1228L808 1307M884 1228L892 1303M1036 1258L1081 1230M1036 1258L970 1355M1036 1258L1110 1297M1081 1230L1110 1297M1199 1228L1223 1246M1199 1228L1301 1229M1199 1228L1262 1297M1223 1246L1301 1229M1223 1246L1262 1297M1301 1229L1262 1297M1301 1229L1314 1320M1421 1275L1476 1226M1421 1275L1393 1354M1421 1275L1524 1294M1421 1275L1460 1367M1476 1226L1547 1223M1476 1226L1524 1294M1547 1223L1640 1241M1547 1223L1524 1294M1640 1241L1601 1310M1640 1241L1689 1303M1735 1277L1831 1268M1735 1277L1689 1303M1735 1277L1838 1293M1735 1277L1671 1375M1831 1268L1845 1204M1831 1268L1838 1293M1831 1268L1856 1311M1845 1204L1838 1293M1845 1204L1856 1311M1957 1258L2042 1253M1957 1258L2012 1293M2042 1253L2081 1238M2042 1253L1995 1344M2042 1253L2012 1293M2081 1238L2180 1263M2081 1238L2012 1293M2180 1263L2245 1221M2180 1263L2116 1327M2180 1263L2176 1350M2180 1263L2247 1284M2245 1221L2247 1284M2386 1242L2405 1254M2386 1242L2394 1307M2386 1242L2409 1344M2405 1254L2394 1307M2405 1254L2409 1344M2532 1261L2582 1285M2532 1261L2546 1292M-28 1261L22 1285M22 1285L84 1302M22 1285L-14 1292M22 1285L-23 1360M2582 1285L2546 1292M2582 1285L2537 1360M84 1302L-14 1292M84 1302L76 1407M2644 1302L2546 1292M218 1333L298 1285M218 1333L217 1420M218 1333L280 1380M298 1285L361 1323M361 1323L412 1301M361 1323L280 1380M361 1323L329 1426M412 1301L491 1328M412 1301L464 1388M491 1328L464 1388M491 1328L548 1363M491 1328L568 1369M630 1315L664 1356M630 1315L548 1363M630 1315L568 1369M664 1356L726 1334M664 1356L568 1369M664 1356L646 1405M726 1334L808 1307M726 1334L646 1405M808 1307L892 1303M892 1303L970 1355M892 1303L901 1374M970 1355L901 1374M970 1355L964 1402M1110 1297L1167 1339M1110 1297L1113 1371M1167 1339L1113 1371M1167 1339L1198 1430M1167 1339L1267 1363M1262 1297L1314 1320M1262 1297L1267 1363M1314 1320L1393 1354M1314 1320L1267 1363M1314 1320L1335 1386M1393 1354L1335 1386M1393 1354L1367 1399M1393 1354L1460 1367M1517 1346L1524 1294M1517 1346L1601 1310M1517 1346L1460 1367M1517 1346L1580 1402M1524 1294L1601 1310M1601 1310L1689 1303M1601 1310L1580 1402M1689 1303L1671 1375M1838 1293L1856 1311M1838 1293L1840 1412M1856 1311L1819 1418M1856 1311L1840 1412M1995 1344L2012 1293M1995 1344L1958 1376M1995 1344L2014 1405M2012 1293L1958 1376M2116 1327L2176 1350M2116 1327L2148 1434M2116 1327L2183 1371M2176 1350L2247 1284M2176 1350L2148 1434M2176 1350L2183 1371M2247 1284L2183 1371M2394 1307L2409 1344M2394 1307L2478 1372M2409 1344L2339 1425M2409 1344L2478 1372M2546 1292L2537 1360M76 1407L140 1431M76 1407L-23 1360M2636 1407L2537 1360M140 1431L217 1420M217 1420L280 1380M280 1380L329 1426M464 1388L548 1363M548 1363L568 1369M568 1369L646 1405M780 1423L833 1407M833 1407L901 1374M901 1374L964 1402M1113 1371L1198 1430M1198 1430L1267 1363M1267 1363L1335 1386M1335 1386L1367 1399M1367 1399L1460 1367M1580 1402L1671 1375M1580 1402L1690 1422M1671 1375L1690 1422M1819 1418L1840 1412M1958 1376L2014 1405M2148 1434L2183 1371M2317 1439L2339 1425M2478 1372L2537 1360"/></svg>