<svg xmlns="http://www.w3.org/2000/svg" width="2560" height="1440" fill="#fff"><circle cx="70" cy="14" r="4"/><circle cx="127" cy="71" r="5"/><circle cx="215" cy="60" r="6"/><circle cx="319" cy="42" r="4"/><circle cx="365" cy="29" r="4"/><circle cx="413" cy="72" r="4"/><circle cx="533" cy="35" r="5"/><circle cx="578" cy="1" r="4"/><circle cx="578" cy="1441" r="4"/><circle cx="676" cy="56" r="4"/><circle cx="794" cy="5" r="6"/><circle cx="794" cy="1445" r="6"/><circle cx="855" cy="1" r="5"/><circle cx="855" cy="1441" r="5"/><circle cx="940" cy="57" r="5"/><circle cx="984" cy="34" r="5"/><circle cx="1115" cy="31" r="6"/><circle cx="1186" cy="77" r="5"/><circle cx="1268" cy="27" r="5"/><circle cx="1323" cy="2" r="5"/><circle cx="1323" cy="1442" r="5"/><circle cx="1398" cy="27" r="5"/><circle cx="1496" cy="26" r="5"/><circle cx="1583" cy="30" r="4"/><circle cx="1673" cy="16" r="6"/><circle cx="1723" cy="10" r="4"/><circle cx="1775" cy="68" r="5"/><circle cx="1893" cy="70" r="5"/><circle cx="1996" cy="49" r="5"/><circle cx="2036" cy="67" r="6"/><circle cx="2083" cy="72" r="5"/><circle cx="2219" cy="32" r="5"/><circle cx="2319" cy="71" r="5"/><circle cx="2359" cy="34" r="5"/><circle cx="2469" cy="33" r="5"/><circle cx="2488" cy="66" r="5"/><circle cx="25" cy="128" r="4"/><circle cx="126" cy="142" r="6"/><circle cx="176" cy="82" r="4"/><circle cx="249" cy="136" r="5"/><circle cx="344" cy="90" r="6"/><circle cx="459" cy="119" r="5"/><circle cx="505" cy="96" r="4"/><circle cx="602" cy="132" r="4"/><circle cx="655" cy="97" r="5"/><circle cx="745" cy="149" r="5"/><circle cx="874" cy="134" r="4"/><circle cx="950" cy="119" r="4"/><circle cx="997" cy="132" r="5"/><circle cx="1115" cy="140" r="5"/><circle cx="1168" cy="123" r="6"/><circle cx="1241" cy="142" r="5"/><circle cx="1283" cy="93" r="6"/><circle cx="1366" cy="105" r="6"/><circle cx="1484" cy="139" r="6"/><circle cx="1548" cy="84" r="5"/><circle cx="1641" cy="159" r="6"/><circle cx="1732" cy="143" r="6"/><circle cx="1793" cy="94" r="4"/><circle cx="1917" cy="128" r="6"/><circle cx="1978" cy="101" r="4"/><circle cx="2013" cy="88" r="5"/><circle cx="2082" cy="125" r="4"/><circle cx="2164" cy="142" r="6"/><circle cx="2286" cy="101" r="4"/><circle cx="2380" cy="107" r="6"/><circle cx="2423" cy="131" r="5"/><circle cx="2537" cy="98" r="4"/><circle cx="43" cy="217" r="4"/><circle cx="128" cy="203" r="4"/><circle cx="166" cy="231" r="4"/><circle cx="252" cy="224" r="6"/><circle cx="335" cy="170" r="5"/><circle cx="468" cy="203" r="4"/><circle cx="502" cy="189" r="6"/><circle cx="599" cy="171" r="4"/><circle cx="685" cy="211" r="5"/><circle cx="741" cy="187" r="5"/><circle cx="838" cy="215" r="6"/><circle cx="927" cy="231" r="5"/><circle cx="969" cy="161" r="6"/><circle cx="1093" cy="187" r="4"/><circle cx="1134" cy="220" r="5"/><circle cx="1271" cy="179" r="4"/><circle cx="1331" cy="200" r="4"/><circle cx="1362" cy="179" r="6"/><circle cx="1495" cy="216" r="6"/><circle cx="1592" cy="224" r="6"/><circle cx="1646" cy="215" r="6"/><circle cx="1740" cy="173" r="6"/><circle cx="1814" cy="214" r="5"/><circle cx="1868" cy="191" r="6"/><circle cx="1952" cy="221" r="5"/><circle cx="2044" cy="237" r="6"/><circle cx="2113" cy="171" r="6"/><circle cx="2197" cy="230" r="5"/><circle cx="2316" cy="214" r="5"/><circle cx="2367" cy="191" r="5"/><circle cx="2458" cy="188" r="5"/><circle cx="2518" cy="163" r="4"/><circle cx="7" cy="287" r="6"/><circle cx="117" cy="277" r="4"/><circle cx="235" cy="242" r="6"/><circle cx="265" cy="254" r="6"/><circle cx="380" cy="298" r="6"/><circle cx="415" cy="286" r="6"/><circle cx="501" cy="269" r="6"/><circle cx="603" cy="256" r="5"/><circle cx="652" cy="283" r="5"/><circle cx="746" cy="273" r="4"/><circle cx="805" cy="293" r="4"/><circle cx="926" cy="259" r="5"/><circle cx="1028" cy="319" r="6"/><circle cx="1055" cy="294" r="6"/><circle cx="1179" cy="269" r="4"/><circle cx="1210" cy="242" r="4"/><circle cx="1309" cy="303" r="5"/><circle cx="1419" cy="304" r="6"/><circle cx="1444" cy="290" r="6"/><circle cx="1527" cy="255" r="6"/><circle cx="1672" cy="262" r="5"/><circle cx="1747" cy="294" r="4"/><circle cx="1817" cy="287" r="5"/><circle cx="1893" cy="296" r="5"/><circle cx="1946" cy="267" r="5"/><circle cx="2037" cy="300" r="6"/><circle cx="2094" cy="251" r="4"/><circle cx="2209" cy="290" r="5"/><circle cx="2293" cy="288" r="5"/><circle cx="2371" cy="260" r="5"/><circle cx="2474" cy="301" r="5"/><circle cx="2542" cy="306" r="5"/><circle cx="61" cy="393" r="5"/><circle cx="111" cy="378" r="5"/><circle cx="211" cy="355" r="5"/><circle cx="259" cy="330" r="5"/><circle cx="372" cy="388" r="4"/><circle cx="406" cy="362" r="4"/><circle cx="502" cy="322" r="6"/><circle cx="575" cy="372" r="6"/><circle cx="676" cy="377" r="4"/><circle cx="792" cy="326" r="5"/><circle cx="815" cy="337" r="6"/><circle cx="947" cy="345" r="4"/><circle cx="972" cy="388" r="5"/><circle cx="1070" cy="387" r="5"/><circle cx="1168" cy="345" r="5"/><circle cx="1264" cy="390" r="6"/><circle cx="1348" cy="322" r="5"/><circle cx="1439" cy="373" r="5"/><circle cx="1467" cy="382" r="4"/><circle cx="1538" cy="356" r="6"/><circle cx="1673" cy="379" r="6"/><circle cx="1718" cy="370" r="4"/><circle cx="1811" cy="367" r="4"/><circle cx="1875" cy="327" r="4"/><circle cx="1939" cy="363" r="5"/><circle cx="2056" cy="390" r="5"/><circle cx="2138" cy="346" r="5"/><circle cx="2191" cy="379" r="5"/><circle cx="2255" cy="366" r="4"/><circle cx="2382" cy="376" r="5"/><circle cx="2458" cy="330" r="5"/><circle cx="2542" cy="347" r="4"/><circle cx="48" cy="422" r="5"/><circle cx="130" cy="440" r="5"/><circle cx="230" cy="446" r="5"/><circle cx="274" cy="457" r="5"/><circle cx="343" cy="446" r="5"/><circle cx="405" cy="444" r="5"/><circle cx="546" cy="420" r="6"/><circle cx="573" cy="431" r="5"/><circle cx="656" cy="439" r="5"/><circle cx="727" cy="479" r="6"/><circle cx="870" cy="441" r="5"/><circle cx="904" cy="442" r="6"/><circle cx="998" cy="432" r="5"/><circle cx="1107" cy="409" r="6"/><circle cx="1150" cy="401" r="4"/><circle cx="1266" cy="431" r="6"/><circle cx="1280" cy="479" r="5"/><circle cx="1437" cy="446" r="5"/><circle cx="1449" cy="445" r="4"/><circle cx="1537" cy="444" r="6"/><circle cx="1648" cy="419" r="5"/><circle cx="1736" cy="459" r="4"/><circle cx="1787" cy="426" r="5"/><circle cx="1872" cy="426" r="5"/><circle cx="1991" cy="456" r="4"/><circle cx="2016" cy="436" r="6"/><circle cx="2097" cy="402" r="5"/><circle cx="2181" cy="410" r="5"/><circle cx="2279" cy="411" r="5"/><circle cx="2322" cy="414" r="5"/><circle cx="2433" cy="452" r="4"/><circle cx="2516" cy="477" r="5"/><circle cx="3" cy="543" r="5"/><circle cx="2563" cy="543" r="5"/><circle cx="143" cy="539" r="4"/><circle cx="212" cy="499" r="5"/><circle cx="285" cy="557" r="5"/><circle cx="354" cy="535" r="5"/><circle cx="426" cy="509" r="5"/><circle cx="487" cy="484" r="4"/><circle cx="572" cy="560" r="5"/><circle cx="693" cy="485" r="5"/><circle cx="775" cy="531" r="5"/><circle cx="859" cy="544" r="4"/><circle cx="908" cy="544" r="5"/><circle cx="1011" cy="515" r="5"/><circle cx="1061" cy="524" r="5"/><circle cx="1155" cy="547" r="6"/><circle cx="1261" cy="517" r="6"/><circle cx="1319" cy="558" r="6"/><circle cx="1439" cy="499" r="5"/><circle cx="1497" cy="496" r="4"/><circle cx="1522" cy="520" r="5"/><circle cx="1623" cy="554" r="5"/><circle cx="1741" cy="543" r="5"/><circle cx="1833" cy="542" r="4"/><circle cx="1867" cy="540" r="6"/><circle cx="1949" cy="531" r="5"/><circle cx="2060" cy="522" r="5"/><circle cx="2100" cy="543" r="5"/><circle cx="2185" cy="539" r="5"/><circle cx="2267" cy="502" r="5"/><circle cx="2344" cy="548" r="5"/><circle cx="2436" cy="505" r="6"/><circle cx="2551" cy="504" r="5"/><circle cx="12" cy="625" r="5"/><circle cx="87" cy="628" r="5"/><circle cx="217" cy="596" r="4"/><circle cx="287" cy="595" r="6"/><circle cx="393" cy="631" r="4"/><circle cx="405" cy="636" r="6"/><circle cx="518" cy="575" r="5"/><circle cx="615" cy="560" r="4"/><circle cx="682" cy="626" r="4"/><circle cx="734" cy="569" r="5"/><circle cx="823" cy="615" r="6"/><circle cx="952" cy="613" r="5"/><circle cx="1006" cy="626" r="5"/><circle cx="1052" cy="590" r="5"/><circle cx="1171" cy="565" r="5"/><circle cx="1262" cy="591" r="6"/><circle cx="1319" cy="579" r="5"/><circle cx="1415" cy="595" r="5"/><circle cx="1471" cy="593" r="6"/><circle cx="1551" cy="594" r="6"/><circle cx="1621" cy="624" r="5"/><circle cx="1733" cy="592" r="4"/><circle cx="1769" cy="609" r="5"/><circle cx="1875" cy="563" r="5"/><circle cx="1928" cy="601" r="5"/><circle cx="2033" cy="593" r="5"/><circle cx="2139" cy="567" r="5"/><circle cx="2216" cy="607" r="5"/><circle cx="2277" cy="613" r="6"/><circle cx="2349" cy="600" r="6"/><circle cx="2447" cy="585" r="6"/><circle cx="2528" cy="629" r="5"/><circle cx="39" cy="676" r="5"/><circle cx="160" cy="712" r="5"/><circle cx="229" cy="696" r="6"/><circle cx="257" cy="688" r="5"/><circle cx="385" cy="641" r="6"/><circle cx="469" cy="706" r="6"/><circle cx="522" cy="675" r="5"/><circle cx="626" cy="691" r="6"/><circle cx="645" cy="667" r="4"/><circle cx="799" cy="686" r="5"/><circle cx="824" cy="646" r="4"/><circle cx="914" cy="677" r="5"/><circle cx="1010" cy="718" r="5"/><circle cx="1054" cy="701" r="4"/><circle cx="1193" cy="711" r="5"/><circle cx="1264" cy="683" r="5"/><circle cx="1307" cy="709" r="5"/><circle cx="1405" cy="650" r="5"/><circle cx="1484" cy="711" r="5"/><circle cx="1553" cy="682" r="5"/><circle cx="1611" cy="645" r="5"/><circle cx="1693" cy="653" r="5"/><circle cx="1784" cy="713" r="5"/><circle cx="1843" cy="696" r="4"/><circle cx="1980" cy="716" r="5"/><circle cx="2043" cy="664" r="4"/><circle cx="2128" cy="656" r="5"/><circle cx="2194" cy="700" r="5"/><circle cx="2243" cy="698" r="5"/><circle cx="2321" cy="689" r="6"/><circle cx="2467" cy="670" r="4"/><circle cx="2480" cy="671" r="5"/><circle cx="52" cy="729" r="4"/><circle cx="84" cy="752" r="4"/><circle cx="194" cy="759" r="4"/><circle cx="255" cy="750" r="4"/><circle cx="384" cy="751" r="5"/><circle cx="422" cy="738" r="5"/><circle cx="530" cy="755" r="6"/><circle cx="602" cy="733" r="5"/><circle cx="657" cy="787" r="4"/><circle cx="788" cy="775" r="4"/><circle cx="850" cy="728" r="6"/><circle cx="944" cy="789" r="4"/><circle cx="968" cy="737" r="4"/><circle cx="1090" cy="790" r="5"/><circle cx="1180" cy="748" r="5"/><circle cx="1257" cy="776" r="4"/><circle cx="1353" cy="785" r="5"/><circle cx="1361" cy="724" r="6"/><circle cx="1507" cy="752" r="5"/><circle cx="1588" cy="755" r="5"/><circle cx="1674" cy="790" r="5"/><circle cx="1686" cy="797" r="4"/><circle cx="1769" cy="729" r="6"/><circle cx="1896" cy="724" r="5"/><circle cx="1960" cy="780" r="6"/><circle cx="2072" cy="750" r="5"/><circle cx="2086" cy="753" r="4"/><circle cx="2173" cy="773" r="5"/><circle cx="2299" cy="798" r="6"/><circle cx="2392" cy="763" r="6"/><circle cx="2466" cy="785" r="5"/><circle cx="2524" cy="763" r="6"/><circle cx="66" cy="868" r="5"/><circle cx="108" cy="822" r="5"/><circle cx="202" cy="813" r="5"/><circle cx="290" cy="874" r="5"/><circle cx="397" cy="803" r="6"/><circle cx="402" cy="844" r="6"/><circle cx="483" cy="874" r="5"/><circle cx="623" cy="856" r="6"/><circle cx="712" cy="805" r="5"/><circle cx="795" cy="837" r="5"/><circle cx="810" cy="816" r="6"/><circle cx="906" cy="848" r="5"/><circle cx="1001" cy="832" r="5"/><circle cx="1050" cy="871" r="6"/><circle cx="1153" cy="809" r="6"/><circle cx="1239" cy="821" r="6"/><circle cx="1293" cy="875" r="5"/><circle cx="1388" cy="839" r="5"/><circle cx="1459" cy="819" r="6"/><circle cx="1576" cy="842" r="5"/><circle cx="1626" cy="809" r="5"/><circle cx="1747" cy="851" r="5"/><circle cx="1797" cy="830" r="4"/><circle cx="1918" cy="826" r="5"/><circle cx="1973" cy="841" r="5"/><circle cx="2033" cy="830" r="6"/><circle cx="2155" cy="827" r="6"/><circle cx="2210" cy="833" r="6"/><circle cx="2281" cy="836" r="6"/><circle cx="2400" cy="843" r="5"/><circle cx="2449" cy="807" r="6"/><circle cx="2500" cy="831" r="4"/><circle cx="10" cy="915" r="6"/><circle cx="113" cy="950" r="6"/><circle cx="208" cy="957" r="5"/><circle cx="288" cy="947" r="4"/><circle cx="378" cy="916" r="6"/><circle cx="412" cy="922" r="5"/><circle cx="539" cy="885" r="6"/><circle cx="579" cy="898" r="5"/><circle cx="679" cy="958" r="5"/><circle cx="757" cy="940" r="4"/><circle cx="815" cy="918" r="6"/><circle cx="883" cy="943" r="5"/><circle cx="1036" cy="889" r="5"/><circle cx="1041" cy="935" r="6"/><circle cx="1123" cy="907" r="5"/><circle cx="1239" cy="881" r="4"/><circle cx="1330" cy="898" r="5"/><circle cx="1396" cy="897" r="5"/><circle cx="1455" cy="931" r="6"/><circle cx="1529" cy="907" r="4"/><circle cx="1601" cy="938" r="5"/><circle cx="1688" cy="897" r="5"/><circle cx="1799" cy="912" r="6"/><circle cx="1902" cy="911" r="5"/><circle cx="1989" cy="893" r="5"/><circle cx="2055" cy="938" r="5"/><circle cx="2145" cy="925" r="6"/><circle cx="2234" cy="885" r="6"/><circle cx="2266" cy="913" r="5"/><circle cx="2376" cy="894" r="4"/><circle cx="2454" cy="946" r="6"/><circle cx="2535" cy="946" r="5"/><circle cx="22" cy="1023" r="4"/><circle cx="138" cy="1017" r="5"/><circle cx="174" cy="1039" r="6"/><circle cx="246" cy="996" r="5"/><circle cx="354" cy="1035" r="6"/><circle cx="457" cy="1004" r="4"/><circle cx="489" cy="1025" r="5"/><circle cx="609" cy="1005" r="5"/><circle cx="717" cy="1030" r="5"/><circle cx="755" cy="975" r="5"/><circle cx="830" cy="981" r="4"/><circle cx="943" cy="979" r="5"/><circle cx="1019" cy="981" r="5"/><circle cx="1047" cy="1035" r="6"/><circle cx="1143" cy="963" r="6"/><circle cx="1260" cy="980" r="5"/><circle cx="1318" cy="1008" r="6"/><circle cx="1430" cy="1007" r="4"/><circle cx="1489" cy="1002" r="5"/><circle cx="1553" cy="1034" r="4"/><circle cx="1680" cy="986" r="4"/><circle cx="1719" cy="968" r="6"/><circle cx="1812" cy="989" r="5"/><circle cx="1888" cy="1037" r="5"/><circle cx="1949" cy="1012" r="5"/><circle cx="2054" cy="987" r="4"/><circle cx="2130" cy="1018" r="4"/><circle cx="2202" cy="983" r="4"/><circle cx="2307" cy="1015" r="4"/><circle cx="2325" cy="983" r="6"/><circle cx="2445" cy="1004" r="5"/><circle cx="2496" cy="1038" r="5"/><circle cx="58" cy="1104" r="5"/><circle cx="142" cy="1096" r="4"/><circle cx="238" cy="1048" r="5"/><circle cx="268" cy="1120" r="5"/><circle cx="327" cy="1056" r="5"/><circle cx="434" cy="1086" r="4"/><circle cx="501" cy="1049" r="5"/><circle cx="587" cy="1068" r="5"/><circle cx="667" cy="1114" r="4"/><circle cx="730" cy="1084" r="5"/><circle cx="806" cy="1096" r="5"/><circle cx="881" cy="1105" r="5"/><circle cx="1005" cy="1067" r="5"/><circle cx="1111" cy="1049" r="5"/><circle cx="1127" cy="1093" r="5"/><circle cx="1218" cy="1076" r="6"/><circle cx="1313" cy="1067" r="5"/><circle cx="1429" cy="1099" r="4"/><circle cx="1478" cy="1118" r="5"/><circle cx="1550" cy="1093" r="4"/><circle cx="1605" cy="1048" r="6"/><circle cx="1690" cy="1089" r="6"/><circle cx="1774" cy="1094" r="6"/><circle cx="1846" cy="1099" r="5"/><circle cx="1980" cy="1119" r="4"/><circle cx="2012" cy="1060" r="5"/><circle cx="2081" cy="1046" r="5"/><circle cx="2181" cy="1082" r="6"/><circle cx="2303" cy="1061" r="6"/><circle cx="2370" cy="1044" r="4"/><circle cx="2403" cy="1108" r="4"/><circle cx="2498" cy="1105" r="6"/><circle cx="7" cy="1136" r="4"/><circle cx="93" cy="1163" r="5"/><circle cx="236" cy="1137" r="5"/><circle cx="280" cy="1172" r="4"/><circle cx="326" cy="1183" r="4"/><circle cx="458" cy="1161" r="6"/><circle cx="530" cy="1175" r="6"/><circle cx="618" cy="1198" r="4"/><circle cx="658" cy="1131" r="4"/><circle cx="721" cy="1138" r="5"/><circle cx="871" cy="1147" r="5"/><circle cx="917" cy="1128" r="5"/><circle cx="980" cy="1124" r="6"/><circle cx="1094" cy="1197" r="5"/><circle cx="1123" cy="1172" r="6"/><circle cx="1242" cy="1151" r="5"/><circle cx="1297" cy="1142" r="5"/><circle cx="1418" cy="1140" r="5"/><circle cx="1478" cy="1132" r="5"/><circle cx="1578" cy="1132" r="6"/><circle cx="1634" cy="1200" r="5"/><circle cx="1738" cy="1140" r="4"/><circle cx="1786" cy="1128" r="4"/><circle cx="1918" cy="1120" r="4"/><circle cx="1961" cy="1172" r="5"/><circle cx="2042" cy="1133" r="5"/><circle cx="2082" cy="1126" r="6"/><circle cx="2209" cy="1133" r="5"/><circle cx="2286" cy="1140" r="5"/><circle cx="2320" cy="1159" r="6"/><circle cx="2445" cy="1139" r="6"/><circle cx="2522" cy="1127" r="5"/><circle cx="30" cy="1213" r="6"/><circle cx="120" cy="1206" r="5"/><circle cx="193" cy="1223" r="6"/><circle cx="282" cy="1273" r="5"/><circle cx="396" cy="1261" r="4"/><circle cx="441" cy="1251" r="5"/><circle cx="548" cy="1242" r="5"/><circle cx="584" cy="1207" r="5"/><circle cx="671" cy="1264" r="4"/><circle cx="766" cy="1267" r="4"/><circle cx="866" cy="1206" r="6"/><circle cx="946" cy="1274" r="5"/><circle cx="975" cy="1224" r="5"/><circle cx="1080" cy="1246" r="5"/><circle cx="1184" cy="1256" r="6"/><circle cx="1206" cy="1278" r="6"/><circle cx="1324" cy="1243" r="5"/><circle cx="1400" cy="1246" r="5"/><circle cx="1453" cy="1263" r="4"/><circle cx="1577" cy="1234" r="5"/><circle cx="1608" cy="1221" r="5"/><circle cx="1744" cy="1204" r="5"/><circle cx="1762" cy="1244" r="5"/><circle cx="1892" cy="1267" r="5"/><circle cx="1931" cy="1234" r="4"/><circle cx="2075" cy="1228" r="5"/><circle cx="2108" cy="1270" r="6"/><circle cx="2197" cy="1239" r="5"/><circle cx="2318" cy="1213" r="4"/><circle cx="2349" cy="1266" r="6"/><circle cx="2432" cy="1205" r="5"/><circle cx="2484" cy="1269" r="5"/><circle cx="45" cy="1352" r="6"/><circle cx="120" cy="1301" r="4"/><circle cx="173" cy="1282" r="6"/><circle cx="278" cy="1348" r="5"/><circle cx="328" cy="1339" r="5"/><circle cx="461" cy="1353" r="5"/><circle cx="537" cy="1293" r="5"/><circle cx="569" cy="1308" r="6"/><circle cx="641" cy="1327" r="4"/><circle cx="753" cy="1336" r="4"/><circle cx="807" cy="1286" r="5"/><circle cx="944" cy="1345" r="5"/><circle cx="1030" cy="1323" r="5"/><circle cx="1086" cy="1328" r="5"/><circle cx="1193" cy="1316" r="4"/><circle cx="1257" cy="1342" r="5"/><circle cx="1348" cy="1281" r="5"/><circle cx="1374" cy="1333" r="5"/><circle cx="1509" cy="1295" r="4"/><circle cx="1580" cy="1342" r="4"/><circle cx="1620" cy="1344" r="5"/><circle cx="1735" cy="1331" r="6"/><circle cx="1818" cy="1295" r="6"/><circle cx="1885" cy="1303" r="5"/><circle cx="1940" cy="1344" r="6"/><circle cx="2005" cy="1313" r="5"/><circle cx="2134" cy="1354" r="6"/><circle cx="2170" cy="1335" r="4"/><circle cx="2313" cy="1310" r="5"/><circle cx="2380" cy="1309" r="5"/><circle cx="2472" cy="1301" r="5"/><circle cx="2493" cy="1282" r="4"/><circle cx="56" cy="1435" r="5"/><circle cx="56" cy="-5" r="5"/><circle cx="117" cy="1404" r="6"/><circle cx="234" cy="1425" r="4"/><circle cx="300" cy="1381" r="6"/><circle cx="329" cy="1413" r="4"/><circle cx="402" cy="1405" r="6"/><circle cx="483" cy="1366" r="5"/><circle cx="626" cy="1401" r="4"/><circle cx="645" cy="1410" r="5"/><circle cx="798" cy="1421" r="5"/><circle cx="827" cy="1373" r="6"/><circle cx="880" cy="1440" r="6"/><circle cx="880" cy="-0" r="6"/><circle cx="1010" cy="1380" r="5"/><circle cx="1106" cy="1431" r="5"/><circle cx="1151" cy="1410" r="6"/><circle cx="1245" cy="1363" r="4"/><circle cx="1332" cy="1387" r="6"/><circle cx="1375" cy="1409" r="5"/><circle cx="1467" cy="1377" r="5"/><circle cx="1578" cy="1422" r="5"/><circle cx="1607" cy="1404" r="6"/><circle cx="1722" cy="1382" r="4"/><circle cx="1766" cy="1391" r="5"/><circle cx="1911" cy="1435" r="4"/><circle cx="1921" cy="1386" r="5"/><circle cx="2077" cy="1401" r="5"/><circle cx="2122" cy="1375" r="5"/><circle cx="2183" cy="1389" r="5"/><circle cx="2319" cy="1414" r="4"/><circle cx="2379" cy="1422" r="6"/><circle cx="2442" cy="1408" r="6"/><circle cx="2548" cy="1412" r="5"/><path stroke="#fff" d="M70 14L127 71M70 14L45 -88M70 14L56 -5M70 14L117 -36M70 14L-12 -28M2630 14L2548 -28M70 1454L45 1352M70 1454L56 1435M70 1454L117 1404M70 1454L-12 1412M2630 1454L2548 1412M127 71L215 60M127 71L126 142M127 71L176 82M127 71L56 -5M127 1511L56 1435M215 60L176 82M215 60L249 136M215 60L234 -15M215 1500L234 1425M319 42L365 29M319 42L344 90M319 42L329 -27M319 1482L329 1413M365 29L413 72M365 29L344 90M365 29L329 -27M365 29L402 -35M365 1469L329 1413M365 1469L402 1405M413 72L344 90M413 72L459 119M413 72L505 96M533 35L578 1M533 35L459 119M533 35L505 96M533 35L483 -74M533 35L626 -39M533 1475L483 1366M533 1475L626 1401M578 1L626 -39M578 1L645 -30M578 1441L626 1401M578 1441L645 1410M676 56L655 97M676 56L745 149M676 56L626 -39M676 56L645 -30M676 1496L626 1401M676 1496L645 1410M794 5L855 1M794 5L753 -104M794 5L798 -19M794 5L827 -67M794 5L880 -0M794 1445L753 1336M794 1445L798 1421M794 1445L827 1373M794 1445L880 1440M855 1L798 -19M855 1L827 -67M855 1L880 -0M855 1441L798 1421M855 1441L827 1373M855 1441L880 1440M940 57L984 34M940 57L950 119M940 57L997 132M940 57L969 161M940 57L880 -0M940 1497L880 1440M984 34L950 119M984 34L997 132M984 34L1010 -60M984 1474L1010 1380M1115 31L1186 77M1115 31L1115 140M1115 31L1168 123M1115 31L1106 -9M1115 31L1151 -30M1115 1471L1106 1431M1115 1471L1151 1410M1186 77L1115 140M1186 77L1168 123M1186 77L1241 142M1186 77L1283 93M1268 27L1323 2M1268 27L1283 93M1323 2L1398 27M1323 2L1332 -53M1323 2L1375 -31M1323 1442L1332 1387M1323 1442L1375 1409M1398 27L1496 26M1398 27L1366 105M1398 27L1375 -31M1398 1467L1375 1409M1496 26L1583 30M1496 26L1548 84M1496 26L1467 -63M1496 26L1578 -18M1496 1466L1467 1377M1496 1466L1578 1422M1583 30L1673 16M1583 30L1548 84M1583 30L1578 -18M1583 30L1607 -36M1583 1470L1578 1422M1583 1470L1607 1404M1673 16L1723 10M1673 16L1607 -36M1673 16L1722 -58M1673 1456L1607 1404M1673 1456L1722 1382M1723 10L1775 68M1723 10L1722 -58M1723 10L1766 -49M1723 1450L1722 1382M1723 1450L1766 1391M1775 68L1732 143M1775 68L1793 94M1893 70L1996 49M1893 70L1917 128M1893 70L1978 101M1893 70L1911 -5M1893 1510L1911 1435M1996 49L2036 67M1996 49L2083 72M1996 49L1978 101M1996 49L2013 88M2036 67L2083 72M2036 67L1978 101M2036 67L2013 88M2036 67L2082 125M2083 72L2013 88M2083 72L2082 125M2219 32L2164 142M2219 32L2286 101M2219 32L2183 -51M2219 1472L2183 1389M2319 71L2359 34M2319 71L2286 101M2319 71L2380 107M2319 71L2319 -26M2319 71L2379 -18M2319 1511L2319 1414M2319 1511L2379 1422M2359 34L2380 107M2359 34L2319 -26M2359 34L2379 -18M2359 34L2442 -32M2359 1474L2319 1414M2359 1474L2379 1422M2359 1474L2442 1408M2469 33L2488 66M2469 33L2537 98M2469 33L2379 -18M2469 33L2442 -32M2469 33L2548 -28M2469 1473L2379 1422M2469 1473L2442 1408M2469 1473L2548 1412M2488 66L2423 131M2488 66L2537 98M25 128L126 142M25 128L-23 98M25 128L43 217M25 128L-42 163M2585 128L2537 98M2585 128L2518 163M126 142L176 82M126 142L128 203M126 142L166 231M176 82L249 136M249 136L344 90M249 136L252 224M249 136L335 170M344 90L335 170M459 119L505 96M459 119L468 203M459 119L502 189M505 96L602 132M505 96L502 189M602 132L655 97M602 132L599 171M655 97L745 149M655 97L599 171M745 149L685 211M745 149L741 187M874 134L950 119M874 134L838 215M874 134L927 231M874 134L969 161M950 119L997 132M950 119L969 161M997 132L969 161M1115 140L1168 123M1115 140L1093 187M1115 140L1134 220M1168 123L1241 142M1168 123L1134 220M1241 142L1283 93M1241 142L1271 179M1241 142L1210 242M1283 93L1366 105M1283 93L1271 179M1366 105L1484 139M1366 105L1331 200M1366 105L1362 179M1484 139L1548 84M1484 139L1362 179M1484 139L1495 216M1484 139L1527 255M1641 159L1732 143M1641 159L1592 224M1641 159L1646 215M1641 159L1740 173M1641 159L1672 262M1732 143L1793 94M1732 143L1646 215M1732 143L1740 173M1793 94L1740 173M1917 128L1978 101M1917 128L1868 191M1917 128L1952 221M1978 101L2013 88M2013 88L2082 125M2082 125L2164 142M2082 125L2113 171M2164 142L2113 171M2164 142L2197 230M2286 101L2380 107M2286 101L2316 214M2380 107L2423 131M2380 107L2367 191M2423 131L2367 191M2423 131L2458 188M2423 131L2518 163M2537 98L2518 163M43 217L128 203M43 217L7 287M43 217L117 277M128 203L166 231M128 203L117 277M166 231L252 224M166 231L117 277M166 231L235 242M252 224L335 170M252 224L235 242M252 224L265 254M335 170L265 254M468 203L502 189M468 203L415 286M468 203L501 269M502 189L599 171M502 189L501 269M599 171L603 256M685 211L741 187M685 211L603 256M685 211L652 283M685 211L746 273M741 187L838 215M741 187L746 273M838 215L927 231M838 215L805 293M838 215L926 259M927 231L969 161M927 231L926 259M1093 187L1134 220M1093 187L1055 294M1134 220L1179 269M1134 220L1210 242M1271 179L1331 200M1271 179L1362 179M1271 179L1210 242M1331 200L1362 179M1331 200L1309 303M1495 216L1592 224M1495 216L1419 304M1495 216L1444 290M1495 216L1527 255M1592 224L1646 215M1592 224L1527 255M1592 224L1672 262M1646 215L1740 173M1646 215L1672 262M1740 173L1814 214M1814 214L1868 191M1814 214L1817 287M1868 191L1952 221M1952 221L2044 237M1952 221L1893 296M1952 221L1946 267M2044 237L2113 171M2044 237L1946 267M2044 237L2037 300M2044 237L2094 251M2113 171L2197 230M2113 171L2094 251M2197 230L2094 251M2197 230L2209 290M2197 230L2293 288M2316 214L2367 191M2316 214L2293 288M2316 214L2371 260M2367 191L2458 188M2367 191L2371 260M2458 188L2518 163M2458 188L2371 260M2458 188L2474 301M7 287L-86 301M7 287L-18 306M7 287L61 393M7 287L-18 347M2567 287L2474 301M2567 287L2542 306M2567 287L2542 347M117 277L111 378M235 242L265 254M235 242L211 355M235 242L259 330M265 254L380 298M265 254L259 330M380 298L415 286M380 298L372 388M380 298L406 362M415 286L501 269M415 286L406 362M415 286L502 322M501 269L603 256M501 269L502 322M603 256L652 283M652 283L676 377M746 273L805 293M746 273L792 326M746 273L815 337M805 293L792 326M805 293L815 337M926 259L947 345M1028 319L1055 294M1028 319L947 345M1028 319L972 388M1028 319L1070 387M1028 319L1107 409M1055 294L1070 387M1179 269L1210 242M1179 269L1168 345M1210 242L1168 345M1309 303L1264 390M1309 303L1348 322M1419 304L1444 290M1419 304L1348 322M1419 304L1439 373M1444 290L1527 255M1444 290L1348 322M1444 290L1439 373M1527 255L1538 356M1672 262L1747 294M1672 262L1673 379M1747 294L1817 287M1747 294L1718 370M1747 294L1811 367M1817 287L1893 296M1817 287L1811 367M1817 287L1875 327M1893 296L1946 267M1893 296L1875 327M1893 296L1939 363M1946 267L2037 300M1946 267L1939 363M2037 300L2094 251M2037 300L2056 390M2209 290L2293 288M2209 290L2138 346M2209 290L2191 379M2293 288L2371 260M2293 288L2255 366M2474 301L2542 306M2474 301L2458 330M2474 301L2542 347M2542 306L2458 330M2542 306L2542 347M61 393L111 378M61 393L-18 347M61 393L48 422M61 393L130 440M2621 393L2542 347M111 378L211 355M111 378L48 422M111 378L130 440M211 355L259 330M211 355L230 446M372 388L406 362M372 388L343 446M372 388L405 444M406 362L502 322M406 362L405 444M502 322L575 372M502 322L546 420M575 372L676 377M575 372L546 420M575 372L573 431M575 372L656 439M676 377L656 439M676 377L727 479M792 326L815 337M815 337L870 441M947 345L972 388M947 345L904 442M972 388L904 442M972 388L998 432M1070 387L998 432M1070 387L1107 409M1070 387L1150 401M1168 345L1264 390M1168 345L1107 409M1168 345L1150 401M1264 390L1348 322M1264 390L1266 431M1264 390L1280 479M1439 373L1467 382M1439 373L1437 446M1439 373L1449 445M1467 382L1538 356M1467 382L1437 446M1467 382L1449 445M1467 382L1537 444M1538 356L1537 444M1538 356L1648 419M1673 379L1718 370M1673 379L1648 419M1673 379L1736 459M1673 379L1787 426M1718 370L1648 419M1718 370L1736 459M1718 370L1787 426M1811 367L1875 327M1811 367L1787 426M1811 367L1872 426M1875 327L1939 363M1875 327L1872 426M1939 363L1872 426M1939 363L2016 436M2056 390L2138 346M2056 390L1991 456M2056 390L2016 436M2056 390L2097 402M2138 346L2191 379M2138 346L2097 402M2138 346L2181 410M2191 379L2255 366M2191 379L2181 410M2191 379L2279 411M2255 366L2181 410M2255 366L2279 411M2255 366L2322 414M2382 376L2458 330M2382 376L2322 414M2382 376L2433 452M2458 330L2542 347M48 422L130 440M48 422L-44 477M48 422L-9 504M2608 422L2516 477M2608 422L2551 504M130 440L230 446M130 440L212 499M230 446L274 457M230 446L212 499M274 457L343 446M274 457L212 499M274 457L285 557M343 446L405 444M343 446L354 535M343 446L426 509M405 444L426 509M405 444L487 484M546 420L573 431M546 420L487 484M573 431L656 439M573 431L487 484M656 439L727 479M656 439L693 485M727 479L693 485M727 479L775 531M727 479L734 569M870 441L904 442M870 441L859 544M904 442L998 432M904 442L908 544M998 432L1107 409M998 432L1011 515M1107 409L1150 401M1150 401L1266 431M1266 431L1280 479M1266 431L1261 517M1280 479L1261 517M1280 479L1319 558M1280 479L1319 579M1437 446L1449 445M1437 446L1439 499M1437 446L1497 496M1449 445L1439 499M1449 445L1497 496M1537 444L1648 419M1537 444L1497 496M1537 444L1522 520M1648 419L1736 459M1736 459L1787 426M1736 459L1741 543M1787 426L1872 426M1872 426L1867 540M1991 456L2016 436M1991 456L2097 402M1991 456L1949 531M1991 456L2060 522M2016 436L2097 402M2016 436L2060 522M2097 402L2181 410M2181 410L2279 411M2279 411L2322 414M2279 411L2267 502M2322 414L2433 452M2322 414L2267 502M2433 452L2516 477M2433 452L2436 505M2516 477L2563 543M2516 477L2436 505M2516 477L2551 504M-44 477L3 543M3 543L-9 504M3 543L12 625M2563 543L2551 504M143 539L212 499M143 539L87 628M143 539L217 596M212 499L285 557M285 557L354 535M285 557L217 596M285 557L287 595M354 535L426 509M354 535L287 595M426 509L487 484M426 509L518 575M487 484L518 575M572 560L518 575M572 560L615 560M693 485L775 531M693 485L615 560M693 485L734 569M775 531L859 544M775 531L734 569M775 531L823 615M859 544L908 544M859 544L823 615M908 544L1011 515M908 544L952 613M1011 515L1061 524M1011 515L1052 590M1061 524L1155 547M1061 524L1052 590M1061 524L1171 565M1155 547L1052 590M1155 547L1171 565M1261 517L1319 558M1261 517L1262 591M1261 517L1319 579M1319 558L1262 591M1319 558L1319 579M1319 558L1415 595M1439 499L1497 496M1439 499L1522 520M1439 499L1471 593M1497 496L1522 520M1522 520L1471 593M1522 520L1551 594M1623 554L1551 594M1623 554L1621 624M1623 554L1611 645M1741 543L1833 542M1741 543L1733 592M1741 543L1769 609M1833 542L1867 540M1833 542L1769 609M1833 542L1875 563M1833 542L1928 601M1867 540L1949 531M1867 540L1875 563M1867 540L1928 601M1949 531L1875 563M1949 531L1928 601M1949 531L2033 593M2060 522L2100 543M2060 522L2033 593M2060 522L2139 567M2100 543L2185 539M2100 543L2033 593M2100 543L2139 567M2100 543L2128 656M2185 539L2267 502M2185 539L2139 567M2185 539L2216 607M2267 502L2344 548M2344 548L2436 505M2344 548L2277 613M2344 548L2349 600M2436 505L2551 504M2436 505L2447 585M12 625L87 628M12 625L-32 629M12 625L39 676M12 625L-80 671M2572 625L2528 629M2572 625L2480 671M87 628L39 676M87 628L52 729M217 596L287 595M217 596L229 696M287 595L257 688M287 595L385 641M393 631L405 636M393 631L385 641M405 636L385 641M405 636L469 706M405 636L384 751M405 636L422 738M518 575L615 560M518 575L522 675M615 560L682 626M682 626L734 569M682 626L626 691M682 626L645 667M734 569L823 615M823 615L799 686M823 615L824 646M952 613L1006 626M952 613L1052 590M952 613L914 677M1006 626L1052 590M1006 626L914 677M1006 626L1010 718M1006 626L1054 701M1171 565L1262 591M1262 591L1319 579M1262 591L1264 683M1319 579L1415 595M1415 595L1471 593M1415 595L1405 650M1471 593L1551 594M1471 593L1405 650M1551 594L1621 624M1551 594L1611 645M1621 624L1553 682M1621 624L1611 645M1621 624L1693 653M1733 592L1769 609M1733 592L1693 653M1769 609L1693 653M1769 609L1784 713M1875 563L1928 601M1928 601L2033 593M2033 593L2043 664M2139 567L2216 607M2139 567L2128 656M2216 607L2277 613M2216 607L2194 700M2216 607L2243 698M2277 613L2349 600M2277 613L2243 698M2277 613L2321 689M2349 600L2447 585M2349 600L2321 689M2447 585L2528 629M2447 585L2467 670M2447 585L2480 671M2528 629L2599 676M2528 629L2467 670M2528 629L2480 671M-32 629L39 676M39 676L52 729M39 676L84 752M160 712L229 696M160 712L257 688M160 712L84 752M160 712L194 759M160 712L202 813M229 696L257 688M229 696L194 759M229 696L255 750M257 688L194 759M257 688L255 750M385 641L469 706M385 641L422 738M469 706L522 675M469 706L422 738M469 706L530 755M522 675L626 691M522 675L530 755M522 675L602 733M626 691L645 667M626 691L530 755M626 691L602 733M645 667L602 733M799 686L824 646M799 686L788 775M799 686L850 728M824 646L850 728M914 677L1010 718M914 677L850 728M914 677L968 737M1010 718L1054 701M1010 718L944 789M1010 718L968 737M1054 701L968 737M1054 701L1090 790M1193 711L1264 683M1193 711L1180 748M1193 711L1257 776M1193 711L1153 809M1264 683L1307 709M1264 683L1361 724M1307 709L1405 650M1307 709L1257 776M1307 709L1353 785M1307 709L1361 724M1405 650L1484 711M1405 650L1361 724M1484 711L1553 682M1484 711L1507 752M1484 711L1459 819M1553 682L1611 645M1553 682L1507 752M1553 682L1588 755M1611 645L1693 653M1693 653L1769 729M1784 713L1843 696M1784 713L1769 729M1784 713L1896 724M1784 713L1797 830M1843 696L1769 729M1843 696L1896 724M1980 716L2043 664M1980 716L1896 724M1980 716L1960 780M1980 716L2072 750M2043 664L2128 656M2043 664L2072 750M2043 664L2086 753M2128 656L2194 700M2194 700L2243 698M2194 700L2173 773M2243 698L2321 689M2321 689L2299 798M2321 689L2392 763M2467 670L2480 671M2480 671L2524 763M52 729L84 752M52 729L-36 763M52 729L108 822M2612 729L2524 763M84 752L108 822M194 759L255 750M194 759L202 813M255 750L202 813M384 751L422 738M384 751L397 803M384 751L402 844M422 738L397 803M530 755L602 733M530 755L539 885M602 733L657 787M657 787L623 856M657 787L712 805M788 775L850 728M788 775L712 805M788 775L795 837M788 775L810 816M850 728L810 816M944 789L968 737M944 789L906 848M944 789L1001 832M1090 790L1180 748M1090 790L1050 871M1090 790L1153 809M1180 748L1257 776M1180 748L1153 809M1180 748L1239 821M1257 776L1353 785M1257 776L1239 821M1353 785L1361 724M1353 785L1388 839M1507 752L1588 755M1507 752L1459 819M1507 752L1576 842M1588 755L1674 790M1588 755L1576 842M1588 755L1626 809M1674 790L1686 797M1674 790L1769 729M1674 790L1626 809M1674 790L1747 851M1686 797L1626 809M1686 797L1747 851M1769 729L1797 830M1896 724L1960 780M1896 724L1918 826M1960 780L1918 826M1960 780L1973 841M1960 780L2033 830M2072 750L2086 753M2072 750L2173 773M2072 750L2033 830M2086 753L2173 773M2086 753L2033 830M2086 753L2155 827M2173 773L2155 827M2173 773L2210 833M2299 798L2392 763M2299 798L2210 833M2299 798L2281 836M2392 763L2466 785M2392 763L2400 843M2392 763L2449 807M2466 785L2524 763M2466 785L2400 843M2466 785L2449 807M2466 785L2500 831M2524 763L2449 807M2524 763L2500 831M66 868L108 822M66 868L10 915M66 868L113 950M108 822L202 813M202 813L290 874M290 874L288 947M290 874L378 916M397 803L402 844M397 803L378 916M402 844L483 874M402 844L378 916M402 844L412 922M483 874L412 922M483 874L539 885M483 874L579 898M623 856L712 805M623 856L539 885M623 856L579 898M623 856L679 958M712 805L795 837M712 805L810 816M795 837L810 816M795 837L906 848M795 837L815 918M906 848L1001 832M906 848L883 943M1001 832L1050 871M1001 832L1036 889M1050 871L1036 889M1050 871L1041 935M1050 871L1123 907M1153 809L1239 821M1153 809L1123 907M1239 821L1293 875M1239 821L1239 881M1293 875L1388 839M1293 875L1239 881M1293 875L1330 898M1293 875L1396 897M1388 839L1459 819M1388 839L1330 898M1388 839L1396 897M1459 819L1396 897M1459 819L1455 931M1576 842L1626 809M1576 842L1529 907M1576 842L1601 938M1747 851L1797 830M1747 851L1688 897M1747 851L1799 912M1797 830L1799 912M1918 826L1973 841M1918 826L1902 911M1918 826L1989 893M1973 841L2033 830M1973 841L1902 911M1973 841L1989 893M2033 830L1989 893M2155 827L2210 833M2155 827L2145 925M2155 827L2234 885M2210 833L2281 836M2210 833L2234 885M2281 836L2234 885M2281 836L2266 913M2400 843L2449 807M2400 843L2500 831M2400 843L2376 894M2449 807L2500 831M2500 831L2570 915M-60 831L10 915M10 915L113 950M10 915L-106 946M10 915L-25 946M2570 915L2454 946M2570 915L2535 946M113 950L208 957M113 950L138 1017M208 957L288 947M208 957L174 1039M208 957L246 996M288 947L378 916M288 947L246 996M288 947L354 1035M378 916L412 922M412 922L457 1004M539 885L579 898M579 898L609 1005M679 958L757 940M679 958L609 1005M679 958L717 1030M679 958L755 975M757 940L815 918M757 940L717 1030M757 940L755 975M757 940L830 981M815 918L883 943M815 918L755 975M815 918L830 981M883 943L830 981M883 943L943 979M1036 889L1041 935M1036 889L1123 907M1036 889L1019 981M1041 935L1123 907M1041 935L1019 981M1041 935L1047 1035M1123 907L1143 963M1239 881L1330 898M1239 881L1260 980M1330 898L1396 897M1330 898L1318 1008M1396 897L1455 931M1455 931L1529 907M1455 931L1430 1007M1455 931L1489 1002M1529 907L1601 938M1529 907L1489 1002M1601 938L1688 897M1601 938L1680 986M1688 897L1680 986M1688 897L1719 968M1799 912L1902 911M1799 912L1719 968M1799 912L1812 989M1902 911L1989 893M1902 911L1949 1012M1989 893L2055 938M2055 938L2145 925M2055 938L2054 987M2145 925L2234 885M2145 925L2130 1018M2145 925L2202 983M2234 885L2266 913M2266 913L2202 983M2266 913L2307 1015M2266 913L2325 983M2376 894L2454 946M2376 894L2325 983M2454 946L2535 946M2454 946L2445 1004M2454 946L2496 1038M2535 946L2582 1023M2535 946L2445 1004M-25 946L22 1023M22 1023L-64 1038M22 1023L58 1104M2582 1023L2496 1038M138 1017L174 1039M138 1017L142 1096M174 1039L246 996M174 1039L142 1096M174 1039L238 1048M246 996L238 1048M246 996L327 1056M354 1035L457 1004M354 1035L327 1056M354 1035L434 1086M457 1004L489 1025M457 1004L434 1086M457 1004L501 1049M489 1025L434 1086M489 1025L501 1049M489 1025L587 1068M609 1005L587 1068M717 1030L755 975M717 1030L730 1084M717 1030L721 1138M755 975L830 981M830 981L943 979M943 979L1019 981M943 979L1005 1067M1019 981L1047 1035M1019 981L1005 1067M1047 1035L1005 1067M1047 1035L1111 1049M1047 1035L1127 1093M1143 963L1260 980M1143 963L1111 1049M1260 980L1318 1008M1260 980L1313 1067M1318 1008L1430 1007M1318 1008L1313 1067M1430 1007L1489 1002M1430 1007L1429 1099M1489 1002L1553 1034M1553 1034L1550 1093M1553 1034L1605 1048M1680 986L1719 968M1680 986L1605 1048M1719 968L1812 989M1812 989L1888 1037M1812 989L1774 1094M1812 989L1846 1099M1888 1037L1949 1012M1888 1037L1846 1099M1888 1037L1918 1120M1949 1012L2054 987M1949 1012L2012 1060M1949 1012L1918 1120M2054 987L2130 1018M2054 987L2081 1046M2130 1018L2202 983M2130 1018L2081 1046M2130 1018L2181 1082M2202 983L2181 1082M2307 1015L2325 983M2307 1015L2303 1061M2307 1015L2370 1044M2325 983L2303 1061M2325 983L2370 1044M2445 1004L2496 1038M2445 1004L2370 1044M2496 1038L2498 1105M2496 1038L2522 1127M58 1104L142 1096M58 1104L7 1136M58 1104L93 1163M58 1104L-38 1127M2618 1104L2522 1127M142 1096L93 1163M238 1048L268 1120M238 1048L327 1056M238 1048L236 1137M268 1120L327 1056M268 1120L236 1137M268 1120L280 1172M268 1120L326 1183M434 1086L501 1049M434 1086L458 1161M501 1049L587 1068M501 1049L458 1161M587 1068L667 1114M587 1068L658 1131M667 1114L730 1084M667 1114L658 1131M667 1114L721 1138M730 1084L806 1096M730 1084L658 1131M730 1084L721 1138M806 1096L881 1105M806 1096L721 1138M806 1096L871 1147M881 1105L871 1147M881 1105L917 1128M881 1105L980 1124M881 1105L866 1206M1005 1067L1111 1049M1005 1067L980 1124M1111 1049L1127 1093M1111 1049L1218 1076M1127 1093L1218 1076M1127 1093L1094 1197M1127 1093L1123 1172M1218 1076L1313 1067M1218 1076L1242 1151M1218 1076L1297 1142M1313 1067L1242 1151M1313 1067L1297 1142M1429 1099L1478 1118M1429 1099L1418 1140M1429 1099L1478 1132M1478 1118L1550 1093M1478 1118L1418 1140M1478 1118L1478 1132M1550 1093L1605 1048M1550 1093L1478 1132M1550 1093L1578 1132M1605 1048L1690 1089M1605 1048L1578 1132M1690 1089L1774 1094M1690 1089L1738 1140M1690 1089L1786 1128M1774 1094L1846 1099M1774 1094L1738 1140M1774 1094L1786 1128M1846 1099L1786 1128M1846 1099L1918 1120M1980 1119L2012 1060M1980 1119L1918 1120M1980 1119L1961 1172M1980 1119L2042 1133M2012 1060L2081 1046M2012 1060L2042 1133M2012 1060L2082 1126M2081 1046L2181 1082M2081 1046L2082 1126M2181 1082L2082 1126M2181 1082L2209 1133M2303 1061L2370 1044M2303 1061L2286 1140M2303 1061L2320 1159M2370 1044L2403 1108M2403 1108L2498 1105M2403 1108L2320 1159M2403 1108L2445 1139M2498 1105L2567 1136M2498 1105L2445 1139M2498 1105L2522 1127M-62 1105L7 1136M7 1136L93 1163M7 1136L-38 1127M7 1136L30 1213M2567 1136L2522 1127M93 1163L30 1213M93 1163L120 1206M236 1137L280 1172M236 1137L326 1183M236 1137L193 1223M280 1172L326 1183M280 1172L193 1223M326 1183L396 1261M458 1161L530 1175M458 1161L396 1261M458 1161L441 1251M530 1175L618 1198M530 1175L441 1251M530 1175L548 1242M530 1175L584 1207M618 1198L658 1131M618 1198L548 1242M618 1198L584 1207M618 1198L671 1264M658 1131L721 1138M871 1147L917 1128M871 1147L980 1124M871 1147L866 1206M917 1128L980 1124M917 1128L866 1206M917 1128L975 1224M980 1124L975 1224M1094 1197L1123 1172M1094 1197L1080 1246M1094 1197L1184 1256M1123 1172L1242 1151M1123 1172L1080 1246M1123 1172L1184 1256M1242 1151L1297 1142M1297 1142L1418 1140M1297 1142L1324 1243M1418 1140L1478 1132M1418 1140L1400 1246M1478 1132L1578 1132M1578 1132L1634 1200M1578 1132L1608 1221M1634 1200L1577 1234M1634 1200L1608 1221M1634 1200L1744 1204M1738 1140L1786 1128M1738 1140L1744 1204M1738 1140L1762 1244M1786 1128L1744 1204M1918 1120L1961 1172M1961 1172L2042 1133M1961 1172L1892 1267M1961 1172L1931 1234M2042 1133L2082 1126M2042 1133L2075 1228M2082 1126L2075 1228M2209 1133L2286 1140M2209 1133L2197 1239M2286 1140L2320 1159M2286 1140L2318 1213M2320 1159L2318 1213M2320 1159L2349 1266M2445 1139L2522 1127M2445 1139L2432 1205M30 1213L120 1206M30 1213L-76 1269M30 1213L-67 1282M2590 1213L2484 1269M2590 1213L2493 1282M120 1206L193 1223M120 1206L120 1301M120 1206L173 1282M193 1223L282 1273M193 1223L173 1282M282 1273L173 1282M282 1273L278 1348M282 1273L328 1339M396 1261L441 1251M441 1251L461 1353M548 1242L584 1207M548 1242L537 1293M548 1242L569 1308M584 1207L537 1293M584 1207L569 1308M671 1264L766 1267M671 1264L641 1327M766 1267L753 1336M766 1267L807 1286M866 1206L946 1274M866 1206L807 1286M946 1274L975 1224M946 1274L944 1345M946 1274L1030 1323M1080 1246L1184 1256M1080 1246L1030 1323M1080 1246L1086 1328M1184 1256L1206 1278M1184 1256L1193 1316M1206 1278L1324 1243M1206 1278L1193 1316M1206 1278L1257 1342M1206 1278L1245 1363M1324 1243L1400 1246M1324 1243L1348 1281M1400 1246L1453 1263M1400 1246L1348 1281M1400 1246L1374 1333M1453 1263L1509 1295M1577 1234L1608 1221M1577 1234L1509 1295M1577 1234L1580 1342M1577 1234L1620 1344M1744 1204L1762 1244M1762 1244L1735 1331M1762 1244L1818 1295M1892 1267L1931 1234M1892 1267L1818 1295M1892 1267L1885 1303M1892 1267L1940 1344M1931 1234L1885 1303M1931 1234L2005 1313M2075 1228L2108 1270M2075 1228L2197 1239M2075 1228L2005 1313M2108 1270L2197 1239M2108 1270L2134 1354M2108 1270L2170 1335M2108 1270L2122 1375M2197 1239L2170 1335M2318 1213L2349 1266M2318 1213L2313 1310M2349 1266L2432 1205M2349 1266L2313 1310M2349 1266L2380 1309M2432 1205L2484 1269M2432 1205L2472 1301M2432 1205L2493 1282M2484 1269L2472 1301M2484 1269L2493 1282M45 1352L120 1301M45 1352L56 1435M45 1352L117 1404M45 1352L-12 1412M2605 1352L2548 1412M120 1301L173 1282M120 1301L117 1404M173 1282L117 1404M278 1348L328 1339M278 1348L234 1425M278 1348L300 1381M328 1339L300 1381M328 1339L329 1413M461 1353L537 1293M461 1353L402 1405M461 1353L483 1366M537 1293L569 1308M537 1293L483 1366M569 1308L641 1327M569 1308L483 1366M641 1327L626 1401M641 1327L645 1410M753 1336L807 1286M753 1336L798 1421M807 1286L827 1373M944 1345L1030 1323M944 1345L1010 1380M1030 1323L1086 1328M1030 1323L1010 1380M1086 1328L1010 1380M1086 1328L1106 1431M1086 1328L1151 1410M1193 1316L1257 1342M1193 1316L1151 1410M1193 1316L1245 1363M1257 1342L1348 1281M1257 1342L1245 1363M1257 1342L1332 1387M1348 1281L1374 1333M1374 1333L1332 1387M1374 1333L1375 1409M1374 1333L1467 1377M1509 1295L1580 1342M1509 1295L1467 1377M1580 1342L1620 1344M1580 1342L1578 1422M1580 1342L1607 1404M1620 1344L1735 1331M1620 1344L1578 1422M1620 1344L1607 1404M1735 1331L1818 1295M1735 1331L1722 1382M1735 1331L1766 1391M1818 1295L1885 1303M1818 1295L1766 1391M1885 1303L1940 1344M1885 1303L1921 1386M1940 1344L2005 1313M1940 1344L1911 1435M1940 1344L1921 1386M2005 1313L1921 1386M2005 1313L2077 1401M2134 1354L2170 1335M2134 1354L2077 1401M2134 1354L2122 1375M2134 1354L2183 1389M2170 1335L2122 1375M2170 1335L2183 1389M2313 1310L2380 1309M2313 1310L2319 1414M2380 1309L2472 1301M2472 1301L2493 1282M2472 1301L2442 1408M56 1435L117 1404M56 1435L-12 1412M2616 1435L2548 1412M234 1425L300 1381M300 1381L329 1413M300 1381L402 1405M329 1413L402 1405M402 1405L483 1366M626 1401L645 1410M798 1421L827 1373M798 1421L880 1440M827 1373L880 1440M1010 1380L1106 1431M1106 1431L1151 1410M1151 1410L1245 1363M1245 1363L1332 1387M1332 1387L1375 1409M1375 1409L1467 1377M1578 1422L1607 1404M1722 1382L1766 1391M1911 1435L1921 1386M2077 1401L2122 1375M2077 1401L2183 1389M2122 1375L2183 1389M2319 1414L2379 1422M2379 1422L2442 1408M2442 1408L2548 1412"/></svg>