<svg xmlns="http://www.w3.org/2000/svg" width="2560" height="1440" fill="#fff"><circle cx="21" cy="55" r="4"/><circle cx="137" cy="37" r="4"/><circle cx="208" cy="13" r="5"/><circle cx="297" cy="75" r="4"/><circle cx="378" cy="59" r="5"/><circle cx="431" cy="56" r="6"/><circle cx="516" cy="36" r="6"/><circle cx="609" cy="31" r="4"/><circle cx="662" cy="1" r="4"/><circle cx="662" cy="1441" r="4"/><circle cx="788" cy="29" r="5"/><circle cx="865" cy="27" r="4"/><circle cx="913" cy="44" r="6"/><circle cx="1039" cy="6" r="4"/><circle cx="1091" cy="78" r="4"/><circle cx="1133" cy="47" r="6"/><circle cx="1274" cy="41" r="6"/><circle cx="1335" cy="41" r="4"/><circle cx="1365" cy="52" r="5"/><circle cx="1441" cy="62" r="4"/><circle cx="1577" cy="5" r="5"/><circle cx="1669" cy="64" r="5"/><circle cx="1723" cy="73" r="5"/><circle cx="1813" cy="59" r="4"/><circle cx="1908" cy="6" r="4"/><circle cx="1962" cy="5" r="6"/><circle cx="1962" cy="1445" r="6"/><circle cx="2079" cy="10" r="6"/><circle cx="2089" cy="31" r="5"/><circle cx="2200" cy="44" r="4"/><circle cx="2304" cy="55" r="5"/><circle cx="2385" cy="26" r="4"/><circle cx="2463" cy="20" r="6"/><circle cx="2542" cy="22" r="4"/><circle cx="34" cy="134" r="5"/><circle cx="107" cy="117" r="4"/><circle cx="235" cy="127" r="6"/><circle cx="254" cy="111" r="5"/><circle cx="365" cy="158" r="5"/><circle cx="468" cy="147" r="4"/><circle cx="544" cy="96" r="4"/><circle cx="603" cy="120" r="5"/><circle cx="685" cy="96" r="4"/><circle cx="778" cy="150" r="4"/><circle cx="830" cy="109" r="5"/><circle cx="919" cy="128" r="5"/><circle cx="1027" cy="104" r="5"/><circle cx="1064" cy="107" r="5"/><circle cx="1129" cy="100" r="6"/><circle cx="1234" cy="100" r="4"/><circle cx="1294" cy="96" r="4"/><circle cx="1400" cy="146" r="5"/><circle cx="1469" cy="87" r="5"/><circle cx="1525" cy="152" r="5"/><circle cx="1633" cy="94" r="5"/><circle cx="1711" cy="112" r="4"/><circle cx="1839" cy="113" r="5"/><circle cx="1872" cy="150" r="5"/><circle cx="1940" cy="94" r="6"/><circle cx="2027" cy="135" r="5"/><circle cx="2082" cy="119" r="6"/><circle cx="2185" cy="130" r="5"/><circle cx="2318" cy="152" r="5"/><circle cx="2381" cy="128" r="6"/><circle cx="2462" cy="130" r="5"/><circle cx="2505" cy="126" r="5"/><circle cx="67" cy="174" r="4"/><circle cx="128" cy="162" r="5"/><circle cx="167" cy="220" r="4"/><circle cx="280" cy="228" r="4"/><circle cx="383" cy="160" r="5"/><circle cx="418" cy="198" r="5"/><circle cx="510" cy="205" r="6"/><circle cx="610" cy="169" r="5"/><circle cx="678" cy="211" r="5"/><circle cx="737" cy="236" r="6"/><circle cx="824" cy="213" r="5"/><circle cx="912" cy="195" r="5"/><circle cx="1021" cy="207" r="5"/><circle cx="1041" cy="204" r="5"/><circle cx="1132" cy="228" r="5"/><circle cx="1224" cy="168" r="5"/><circle cx="1317" cy="231" r="5"/><circle cx="1399" cy="167" r="4"/><circle cx="1467" cy="177" r="4"/><circle cx="1561" cy="207" r="5"/><circle cx="1633" cy="220" r="6"/><circle cx="1731" cy="233" r="5"/><circle cx="1765" cy="187" r="4"/><circle cx="1900" cy="203" r="6"/><circle cx="1991" cy="170" r="6"/><circle cx="2001" cy="221" r="5"/><circle cx="2129" cy="175" r="5"/><circle cx="2229" cy="191" r="6"/><circle cx="2305" cy="201" r="6"/><circle cx="2339" cy="173" r="5"/><circle cx="2442" cy="166" r="4"/><circle cx="2519" cy="172" r="5"/><circle cx="71" cy="262" r="5"/><circle cx="135" cy="251" r="5"/><circle cx="162" cy="277" r="5"/><circle cx="255" cy="268" r="5"/><circle cx="377" cy="271" r="5"/><circle cx="410" cy="251" r="5"/><circle cx="496" cy="261" r="5"/><circle cx="600" cy="281" r="4"/><circle cx="648" cy="291" r="6"/><circle cx="724" cy="315" r="5"/><circle cx="852" cy="311" r="6"/><circle cx="922" cy="241" r="5"/><circle cx="1011" cy="253" r="4"/><circle cx="1086" cy="282" r="5"/><circle cx="1164" cy="245" r="5"/><circle cx="1209" cy="271" r="6"/><circle cx="1326" cy="247" r="5"/><circle cx="1432" cy="273" r="4"/><circle cx="1492" cy="318" r="5"/><circle cx="1531" cy="274" r="6"/><circle cx="1655" cy="250" r="4"/><circle cx="1747" cy="242" r="4"/><circle cx="1822" cy="254" r="5"/><circle cx="1843" cy="252" r="4"/><circle cx="1980" cy="317" r="5"/><circle cx="2012" cy="304" r="4"/><circle cx="2096" cy="305" r="4"/><circle cx="2160" cy="277" r="5"/><circle cx="2260" cy="297" r="5"/><circle cx="2390" cy="277" r="4"/><circle cx="2443" cy="296" r="6"/><circle cx="2491" cy="316" r="5"/><circle cx="63" cy="354" r="5"/><circle cx="148" cy="351" r="4"/><circle cx="176" cy="357" r="5"/><circle cx="299" cy="332" r="5"/><circle cx="394" cy="380" r="5"/><circle cx="433" cy="366" r="5"/><circle cx="515" cy="364" r="4"/><circle cx="589" cy="323" r="5"/><circle cx="719" cy="396" r="5"/><circle cx="735" cy="331" r="4"/><circle cx="847" cy="321" r="6"/><circle cx="897" cy="341" r="5"/><circle cx="1029" cy="330" r="5"/><circle cx="1076" cy="387" r="6"/><circle cx="1134" cy="357" r="5"/><circle cx="1233" cy="392" r="5"/><circle cx="1342" cy="358" r="5"/><circle cx="1422" cy="376" r="5"/><circle cx="1494" cy="336" r="6"/><circle cx="1564" cy="330" r="5"/><circle cx="1657" cy="333" r="5"/><circle cx="1694" cy="361" r="5"/><circle cx="1819" cy="361" r="6"/><circle cx="1912" cy="371" r="4"/><circle cx="1923" cy="364" r="4"/><circle cx="2067" cy="395" r="6"/><circle cx="2124" cy="349" r="4"/><circle cx="2188" cy="370" r="4"/><circle cx="2304" cy="396" r="5"/><circle cx="2333" cy="383" r="6"/><circle cx="2415" cy="362" r="5"/><circle cx="2513" cy="359" r="5"/><circle cx="28" cy="440" r="6"/><circle cx="139" cy="460" r="6"/><circle cx="194" cy="479" r="6"/><circle cx="319" cy="439" r="5"/><circle cx="393" cy="445" r="5"/><circle cx="400" cy="423" r="5"/><circle cx="487" cy="478" r="5"/><circle cx="578" cy="474" r="6"/><circle cx="679" cy="402" r="5"/><circle cx="724" cy="427" r="4"/><circle cx="858" cy="437" r="5"/><circle cx="948" cy="401" r="5"/><circle cx="993" cy="442" r="4"/><circle cx="1107" cy="437" r="5"/><circle cx="1157" cy="475" r="5"/><circle cx="1257" cy="451" r="6"/><circle cx="1359" cy="467" r="5"/><circle cx="1388" cy="444" r="6"/><circle cx="1482" cy="427" r="5"/><circle cx="1549" cy="472" r="5"/><circle cx="1648" cy="470" r="5"/><circle cx="1746" cy="404" r="4"/><circle cx="1783" cy="468" r="6"/><circle cx="1854" cy="432" r="6"/><circle cx="1944" cy="448" r="5"/><circle cx="2057" cy="464" r="4"/><circle cx="2136" cy="426" r="5"/><circle cx="2171" cy="432" r="5"/><circle cx="2275" cy="437" r="5"/><circle cx="2352" cy="449" r="6"/><circle cx="2448" cy="466" r="5"/><circle cx="2481" cy="408" r="6"/><circle cx="64" cy="525" r="5"/><circle cx="152" cy="553" r="4"/><circle cx="205" cy="502" r="4"/><circle cx="281" cy="510" r="4"/><circle cx="371" cy="531" r="5"/><circle cx="447" cy="526" r="5"/><circle cx="557" cy="551" r="5"/><circle cx="620" cy="539" r="4"/><circle cx="684" cy="547" r="6"/><circle cx="723" cy="485" r="5"/><circle cx="832" cy="522" r="4"/><circle cx="925" cy="557" r="6"/><circle cx="1007" cy="546" r="5"/><circle cx="1089" cy="495" r="5"/><circle cx="1125" cy="556" r="5"/><circle cx="1249" cy="499" r="5"/><circle cx="1288" cy="496" r="5"/><circle cx="1407" cy="555" r="5"/><circle cx="1482" cy="527" r="4"/><circle cx="1541" cy="495" r="6"/><circle cx="1665" cy="516" r="5"/><circle cx="1754" cy="535" r="5"/><circle cx="1828" cy="548" r="6"/><circle cx="1894" cy="521" r="4"/><circle cx="1969" cy="540" r="6"/><circle cx="2024" cy="533" r="5"/><circle cx="2127" cy="499" r="5"/><circle cx="2233" cy="550" r="5"/><circle cx="2254" cy="553" r="5"/><circle cx="2332" cy="551" r="5"/><circle cx="2422" cy="546" r="5"/><circle cx="2483" cy="526" r="6"/><circle cx="68" cy="633" r="5"/><circle cx="118" cy="595" r="5"/><circle cx="220" cy="600" r="4"/><circle cx="278" cy="594" r="6"/><circle cx="363" cy="609" r="5"/><circle cx="438" cy="616" r="5"/><circle cx="545" cy="578" r="4"/><circle cx="638" cy="563" r="5"/><circle cx="689" cy="607" r="5"/><circle cx="795" cy="607" r="6"/><circle cx="835" cy="602" r="6"/><circle cx="921" cy="589" r="4"/><circle cx="1005" cy="632" r="4"/><circle cx="1054" cy="574" r="5"/><circle cx="1156" cy="590" r="4"/><circle cx="1213" cy="596" r="5"/><circle cx="1300" cy="639" r="4"/><circle cx="1402" cy="596" r="5"/><circle cx="1507" cy="569" r="6"/><circle cx="1572" cy="570" r="5"/><circle cx="1641" cy="575" r="6"/><circle cx="1690" cy="607" r="5"/><circle cx="1770" cy="614" r="4"/><circle cx="1862" cy="578" r="4"/><circle cx="1971" cy="589" r="4"/><circle cx="2025" cy="635" r="5"/><circle cx="2117" cy="620" r="5"/><circle cx="2178" cy="616" r="5"/><circle cx="2310" cy="617" r="5"/><circle cx="2376" cy="570" r="6"/><circle cx="2448" cy="573" r="5"/><circle cx="2540" cy="573" r="6"/><circle cx="22" cy="671" r="5"/><circle cx="124" cy="684" r="6"/><circle cx="213" cy="662" r="4"/><circle cx="297" cy="714" r="5"/><circle cx="388" cy="670" r="6"/><circle cx="422" cy="701" r="4"/><circle cx="498" cy="670" r="5"/><circle cx="597" cy="720" r="5"/><circle cx="684" cy="685" r="5"/><circle cx="799" cy="674" r="5"/><circle cx="840" cy="688" r="6"/><circle cx="929" cy="715" r="4"/><circle cx="1014" cy="692" r="5"/><circle cx="1099" cy="643" r="4"/><circle cx="1134" cy="703" r="5"/><circle cx="1202" cy="692" r="5"/><circle cx="1321" cy="654" r="4"/><circle cx="1429" cy="649" r="6"/><circle cx="1500" cy="678" r="6"/><circle cx="1548" cy="693" r="5"/><circle cx="1623" cy="662" r="4"/><circle cx="1755" cy="702" r="4"/><circle cx="1813" cy="688" r="6"/><circle cx="1903" cy="705" r="5"/><circle cx="1999" cy="692" r="4"/><circle cx="2004" cy="688" r="6"/><circle cx="2080" cy="691" r="4"/><circle cx="2215" cy="660" r="4"/><circle cx="2260" cy="719" r="6"/><circle cx="2362" cy="666" r="6"/><circle cx="2418" cy="712" r="4"/><circle cx="2534" cy="709" r="5"/><circle cx="47" cy="744" r="5"/><circle cx="159" cy="753" r="6"/><circle cx="180" cy="757" r="5"/><circle cx="257" cy="768" r="6"/><circle cx="376" cy="797" r="5"/><circle cx="453" cy="783" r="4"/><circle cx="489" cy="733" r="4"/><circle cx="575" cy="740" r="6"/><circle cx="713" cy="778" r="6"/><circle cx="726" cy="761" r="5"/><circle cx="813" cy="795" r="4"/><circle cx="947" cy="753" r="6"/><circle cx="1008" cy="786" r="4"/><circle cx="1058" cy="778" r="4"/><circle cx="1182" cy="772" r="6"/><circle cx="1255" cy="759" r="6"/><circle cx="1341" cy="799" r="6"/><circle cx="1414" cy="771" r="5"/><circle cx="1514" cy="769" r="5"/><circle cx="1522" cy="789" r="5"/><circle cx="1657" cy="740" r="5"/><circle cx="1707" cy="790" r="5"/><circle cx="1762" cy="747" r="6"/><circle cx="1906" cy="761" r="6"/><circle cx="1973" cy="789" r="4"/><circle cx="2075" cy="788" r="5"/><circle cx="2132" cy="724" r="5"/><circle cx="2188" cy="790" r="6"/><circle cx="2288" cy="779" r="6"/><circle cx="2351" cy="765" r="6"/><circle cx="2427" cy="788" r="4"/><circle cx="2555" cy="745" r="6"/><circle cx="-5" cy="745" r="6"/><circle cx="55" cy="874" r="5"/><circle cx="125" cy="863" r="5"/><circle cx="163" cy="812" r="6"/><circle cx="263" cy="830" r="6"/><circle cx="343" cy="801" r="4"/><circle cx="452" cy="816" r="5"/><circle cx="506" cy="865" r="4"/><circle cx="599" cy="806" r="4"/><circle cx="707" cy="815" r="5"/><circle cx="746" cy="825" r="4"/><circle cx="861" cy="853" r="5"/><circle cx="959" cy="841" r="5"/><circle cx="1015" cy="837" r="5"/><circle cx="1101" cy="804" r="6"/><circle cx="1132" cy="834" r="6"/><circle cx="1249" cy="871" r="4"/><circle cx="1355" cy="807" r="4"/><circle cx="1424" cy="803" r="4"/><circle cx="1487" cy="817" r="6"/><circle cx="1576" cy="859" r="4"/><circle cx="1617" cy="829" r="6"/><circle cx="1685" cy="866" r="5"/><circle cx="1806" cy="804" r="6"/><circle cx="1900" cy="818" r="6"/><circle cx="1932" cy="855" r="4"/><circle cx="2054" cy="801" r="6"/><circle cx="2088" cy="834" r="6"/><circle cx="2168" cy="873" r="5"/><circle cx="2248" cy="861" r="4"/><circle cx="2377" cy="876" r="5"/><circle cx="2405" cy="826" r="6"/><circle cx="2516" cy="841" r="5"/><circle cx="24" cy="957" r="5"/><circle cx="145" cy="919" r="5"/><circle cx="214" cy="881" r="4"/><circle cx="246" cy="949" r="5"/><circle cx="321" cy="917" r="5"/><circle cx="423" cy="906" r="4"/><circle cx="508" cy="924" r="6"/><circle cx="625" cy="938" r="5"/><circle cx="667" cy="942" r="5"/><circle cx="768" cy="898" r="6"/><circle cx="813" cy="885" r="5"/><circle cx="947" cy="896" r="4"/><circle cx="975" cy="881" r="5"/><circle cx="1060" cy="935" r="4"/><circle cx="1155" cy="954" r="6"/><circle cx="1271" cy="911" r="5"/><circle cx="1312" cy="888" r="5"/><circle cx="1407" cy="943" r="6"/><circle cx="1466" cy="886" r="5"/><circle cx="1541" cy="916" r="5"/><circle cx="1648" cy="944" r="5"/><circle cx="1747" cy="885" r="5"/><circle cx="1784" cy="916" r="5"/><circle cx="1868" cy="949" r="4"/><circle cx="1997" cy="938" r="5"/><circle cx="2065" cy="937" r="6"/><circle cx="2149" cy="951" r="5"/><circle cx="2195" cy="898" r="5"/><circle cx="2250" cy="944" r="5"/><circle cx="2332" cy="903" r="5"/><circle cx="2432" cy="936" r="4"/><circle cx="2498" cy="927" r="6"/><circle cx="62" cy="1025" r="6"/><circle cx="120" cy="1026" r="4"/><circle cx="213" cy="1026" r="5"/><circle cx="286" cy="985" r="4"/><circle cx="339" cy="1000" r="6"/><circle cx="467" cy="1015" r="5"/><circle cx="501" cy="1013" r="5"/><circle cx="632" cy="1037" r="6"/><circle cx="661" cy="1002" r="5"/><circle cx="764" cy="970" r="6"/><circle cx="841" cy="980" r="5"/><circle cx="886" cy="961" r="5"/><circle cx="1018" cy="978" r="5"/><circle cx="1072" cy="1025" r="4"/><circle cx="1158" cy="1038" r="4"/><circle cx="1241" cy="1027" r="5"/><circle cx="1286" cy="990" r="6"/><circle cx="1408" cy="1039" r="5"/><circle cx="1504" cy="992" r="5"/><circle cx="1577" cy="979" r="4"/><circle cx="1622" cy="971" r="6"/><circle cx="1685" cy="976" r="5"/><circle cx="1794" cy="1039" r="4"/><circle cx="1843" cy="1014" r="5"/><circle cx="1974" cy="966" r="6"/><circle cx="2059" cy="970" r="6"/><circle cx="2150" cy="986" r="5"/><circle cx="2236" cy="1010" r="5"/><circle cx="2289" cy="1012" r="5"/><circle cx="2353" cy="975" r="5"/><circle cx="2429" cy="1030" r="4"/><circle cx="2559" cy="978" r="6"/><circle cx="-1" cy="978" r="6"/><circle cx="48" cy="1041" r="4"/><circle cx="87" cy="1089" r="5"/><circle cx="239" cy="1053" r="5"/><circle cx="312" cy="1096" r="4"/><circle cx="374" cy="1078" r="5"/><circle cx="449" cy="1079" r="6"/><circle cx="516" cy="1110" r="4"/><circle cx="593" cy="1109" r="5"/><circle cx="695" cy="1044" r="5"/><circle cx="753" cy="1068" r="5"/><circle cx="838" cy="1055" r="5"/><circle cx="951" cy="1111" r="5"/><circle cx="1035" cy="1112" r="6"/><circle cx="1046" cy="1100" r="5"/><circle cx="1157" cy="1052" r="4"/><circle cx="1227" cy="1065" r="5"/><circle cx="1300" cy="1110" r="6"/><circle cx="1438" cy="1094" r="5"/><circle cx="1502" cy="1082" r="5"/><circle cx="1524" cy="1087" r="5"/><circle cx="1637" cy="1067" r="6"/><circle cx="1709" cy="1049" r="4"/><circle cx="1816" cy="1090" r="5"/><circle cx="1871" cy="1108" r="5"/><circle cx="1932" cy="1069" r="5"/><circle cx="2037" cy="1055" r="6"/><circle cx="2100" cy="1115" r="4"/><circle cx="2232" cy="1070" r="5"/><circle cx="2256" cy="1062" r="6"/><circle cx="2386" cy="1056" r="6"/><circle cx="2442" cy="1064" r="6"/><circle cx="2504" cy="1073" r="4"/><circle cx="50" cy="1197" r="6"/><circle cx="138" cy="1157" r="5"/><circle cx="195" cy="1144" r="6"/><circle cx="257" cy="1149" r="6"/><circle cx="370" cy="1171" r="6"/><circle cx="412" cy="1190" r="4"/><circle cx="559" cy="1193" r="4"/><circle cx="585" cy="1178" r="5"/><circle cx="659" cy="1178" r="6"/><circle cx="744" cy="1153" r="4"/><circle cx="815" cy="1123" r="5"/><circle cx="929" cy="1174" r="6"/><circle cx="976" cy="1167" r="6"/><circle cx="1067" cy="1151" r="6"/><circle cx="1196" cy="1167" r="5"/><circle cx="1236" cy="1157" r="4"/><circle cx="1323" cy="1198" r="5"/><circle cx="1416" cy="1159" r="6"/><circle cx="1508" cy="1191" r="4"/><circle cx="1592" cy="1183" r="4"/><circle cx="1648" cy="1172" r="5"/><circle cx="1735" cy="1184" r="5"/><circle cx="1770" cy="1177" r="5"/><circle cx="1878" cy="1144" r="4"/><circle cx="1976" cy="1124" r="6"/><circle cx="2050" cy="1178" r="5"/><circle cx="2123" cy="1191" r="6"/><circle cx="2172" cy="1193" r="5"/><circle cx="2312" cy="1191" r="5"/><circle cx="2371" cy="1158" r="5"/><circle cx="2463" cy="1184" r="4"/><circle cx="2492" cy="1182" r="4"/><circle cx="67" cy="1218" r="4"/><circle cx="107" cy="1236" r="5"/><circle cx="172" cy="1263" r="4"/><circle cx="276" cy="1208" r="4"/><circle cx="355" cy="1271" r="5"/><circle cx="413" cy="1215" r="5"/><circle cx="507" cy="1253" r="6"/><circle cx="612" cy="1253" r="6"/><circle cx="711" cy="1236" r="6"/><circle cx="733" cy="1273" r="4"/><circle cx="819" cy="1264" r="4"/><circle cx="942" cy="1210" r="5"/><circle cx="1009" cy="1250" r="6"/><circle cx="1109" cy="1210" r="4"/><circle cx="1183" cy="1251" r="6"/><circle cx="1245" cy="1209" r="6"/><circle cx="1344" cy="1263" r="5"/><circle cx="1393" cy="1236" r="6"/><circle cx="1456" cy="1225" r="5"/><circle cx="1576" cy="1222" r="5"/><circle cx="1601" cy="1259" r="4"/><circle cx="1731" cy="1235" r="6"/><circle cx="1770" cy="1263" r="5"/><circle cx="1852" cy="1226" r="5"/><circle cx="1963" cy="1231" r="6"/><circle cx="2065" cy="1269" r="5"/><circle cx="2153" cy="1278" r="5"/><circle cx="2179" cy="1218" r="6"/><circle cx="2297" cy="1269" r="5"/><circle cx="2341" cy="1229" r="6"/><circle cx="2422" cy="1225" r="6"/><circle cx="2496" cy="1251" r="5"/><circle cx="51" cy="1311" r="5"/><circle cx="125" cy="1356" r="5"/><circle cx="216" cy="1355" r="5"/><circle cx="303" cy="1348" r="4"/><circle cx="337" cy="1304" r="5"/><circle cx="463" cy="1315" r="5"/><circle cx="536" cy="1303" r="6"/><circle cx="605" cy="1316" r="5"/><circle cx="656" cy="1330" r="6"/><circle cx="768" cy="1308" r="5"/><circle cx="864" cy="1341" r="5"/><circle cx="916" cy="1322" r="6"/><circle cx="1021" cy="1325" r="5"/><circle cx="1045" cy="1331" r="5"/><circle cx="1194" cy="1289" r="5"/><circle cx="1278" cy="1290" r="5"/><circle cx="1348" cy="1348" r="5"/><circle cx="1402" cy="1345" r="5"/><circle cx="1498" cy="1321" r="6"/><circle cx="1598" cy="1326" r="6"/><circle cx="1637" cy="1289" r="5"/><circle cx="1725" cy="1357" r="5"/><circle cx="1764" cy="1315" r="5"/><circle cx="1887" cy="1345" r="5"/><circle cx="1921" cy="1333" r="5"/><circle cx="2080" cy="1299" r="5"/><circle cx="2142" cy="1347" r="5"/><circle cx="2185" cy="1307" r="5"/><circle cx="2306" cy="1352" r="4"/><circle cx="2339" cy="1342" r="4"/><circle cx="2470" cy="1322" r="5"/><circle cx="2554" cy="1335" r="5"/><circle cx="19" cy="1402" r="5"/><circle cx="156" cy="1405" r="5"/><circle cx="196" cy="1384" r="5"/><circle cx="298" cy="1439" r="5"/><circle cx="298" cy="-1" r="5"/><circle cx="338" cy="1377" r="5"/><circle cx="419" cy="1361" r="4"/><circle cx="484" cy="1409" r="5"/><circle cx="561" cy="1412" r="4"/><circle cx="688" cy="1379" r="5"/><circle cx="771" cy="1373" r="6"/><circle cx="809" cy="1369" r="4"/><circle cx="948" cy="1377" r="6"/><circle cx="1013" cy="1368" r="4"/><circle cx="1044" cy="1374" r="6"/><circle cx="1129" cy="1394" r="4"/><circle cx="1270" cy="1392" r="4"/><circle cx="1311" cy="1401" r="5"/><circle cx="1434" cy="1431" r="5"/><circle cx="1504" cy="1398" r="6"/><circle cx="1559" cy="1368" r="5"/><circle cx="1605" cy="1388" r="6"/><circle cx="1703" cy="1398" r="5"/><circle cx="1822" cy="1402" r="5"/><circle cx="1906" cy="1400" r="6"/><circle cx="1992" cy="1430" r="6"/><circle cx="2053" cy="1417" r="5"/><circle cx="2117" cy="1437" r="4"/><circle cx="2117" cy="-3" r="4"/><circle cx="2169" cy="1363" r="4"/><circle cx="2299" cy="1376" r="4"/><circle cx="2393" cy="1409" r="6"/><circle cx="2424" cy="1428" r="4"/><circle cx="2482" cy="1419" r="5"/><path stroke="#fff" d="M21 55L-18 22M21 55L34 134M21 55L-55 126M21 55L19 -38M2581 55L2542 22M2581 55L2505 126M21 1495L19 1402M137 37L208 13M137 37L107 117M137 37L156 -35M137 37L196 -56M137 1477L156 1405M137 1477L196 1384M208 13L216 -85M208 13L156 -35M208 13L196 -56M208 13L298 -1M208 1453L216 1355M208 1453L156 1405M208 1453L196 1384M208 1453L298 1439M297 75L378 59M297 75L235 127M297 75L254 111M297 75L298 -1M297 1515L298 1439M378 59L431 56M378 59L365 158M378 59L383 160M378 59L298 -1M378 1499L298 1439M431 56L516 36M431 56L468 147M431 56L484 -31M431 1496L484 1409M516 36L609 31M516 36L544 96M516 36L484 -31M516 36L561 -28M516 1476L484 1409M516 1476L561 1412M609 31L662 1M609 31L544 96M609 31L603 120M609 31L561 -28M609 1471L561 1412M662 1L685 96M662 1L561 -28M662 1L688 -61M662 1441L561 1412M662 1441L688 1379M788 29L865 27M788 29L913 44M788 29L830 109M788 29L771 -67M788 29L809 -71M788 1469L771 1373M788 1469L809 1369M865 27L913 44M865 27L830 109M913 44L830 109M913 44L919 128M1039 6L1091 78M1039 6L1133 47M1039 6L1027 104M1039 6L1013 -72M1039 6L1044 -66M1039 1446L1013 1368M1039 1446L1044 1374M1091 78L1133 47M1091 78L1027 104M1091 78L1064 107M1091 78L1129 100M1133 47L1064 107M1133 47L1129 100M1133 47L1129 -46M1133 1487L1129 1394M1274 41L1335 41M1274 41L1365 52M1274 41L1234 100M1274 41L1294 96M1274 41L1311 -39M1274 1481L1311 1401M1335 41L1365 52M1335 41L1294 96M1335 41L1311 -39M1335 1481L1311 1401M1365 52L1441 62M1365 52L1294 96M1365 52L1434 -9M1365 1492L1434 1431M1441 62L1400 146M1441 62L1469 87M1441 62L1434 -9M1441 1502L1434 1431M1577 5L1669 64M1577 5L1633 94M1577 5L1504 -42M1577 5L1559 -72M1577 5L1605 -52M1577 1445L1504 1398M1577 1445L1559 1368M1577 1445L1605 1388M1669 64L1723 73M1669 64L1633 94M1669 64L1711 112M1669 64L1703 -42M1669 1504L1703 1398M1723 73L1813 59M1723 73L1633 94M1723 73L1711 112M1813 59L1839 113M1813 59L1822 -38M1813 1499L1822 1402M1908 6L1962 5M1908 6L1822 -38M1908 6L1906 -40M1908 6L1992 -10M1908 1446L1822 1402M1908 1446L1906 1400M1908 1446L1992 1430M1962 5L1940 94M1962 5L1906 -40M1962 5L1992 -10M1962 5L2053 -23M1962 1445L1906 1400M1962 1445L1992 1430M1962 1445L2053 1417M2079 10L2089 31M2079 10L2082 119M2079 10L1992 -10M2079 10L2053 -23M2079 10L2117 -3M2079 1450L1992 1430M2079 1450L2053 1417M2079 1450L2117 1437M2089 31L2082 119M2089 31L1992 -10M2089 31L2053 -23M2089 31L2117 -3M2089 1471L1992 1430M2089 1471L2053 1417M2089 1471L2117 1437M2200 44L2304 55M2200 44L2185 130M2304 55L2385 26M2304 55L2318 152M2385 26L2463 20M2385 26L2393 -31M2385 26L2424 -12M2385 1466L2393 1409M2385 1466L2424 1428M2463 20L2542 22M2463 20L2393 -31M2463 20L2424 -12M2463 20L2482 -21M2463 1460L2393 1409M2463 1460L2424 1428M2463 1460L2482 1419M2542 22L2579 -38M2542 22L2482 -21M-18 22L19 -38M-18 1462L19 1402M2542 1462L2579 1402M2542 1462L2482 1419M34 134L107 117M34 134L-55 126M34 134L67 174M34 134L-41 172M2594 134L2505 126M2594 134L2519 172M107 117L67 174M107 117L128 162M235 127L254 111M235 127L128 162M235 127L280 228M254 111L280 228M365 158L383 160M365 158L418 198M468 147L544 96M468 147L383 160M468 147L418 198M468 147L510 205M544 96L603 120M544 96L610 169M603 120L685 96M603 120L510 205M603 120L610 169M685 96L778 150M685 96L610 169M778 150L830 109M778 150L737 236M778 150L824 213M830 109L919 128M919 128L912 195M1027 104L1064 107M1027 104L1129 100M1064 107L1129 100M1064 107L1041 204M1129 100L1234 100M1234 100L1294 96M1234 100L1224 168M1294 96L1224 168M1400 146L1469 87M1400 146L1317 231M1400 146L1399 167M1400 146L1467 177M1469 87L1525 152M1469 87L1467 177M1469 87L1434 -9M1469 1527L1434 1431M1525 152L1467 177M1525 152L1561 207M1633 94L1711 112M1711 112L1765 187M1839 113L1872 150M1839 113L1940 94M1839 113L1765 187M1839 113L1900 203M1872 150L1940 94M1872 150L1900 203M1872 150L1843 252M1940 94L2027 135M1940 94L1991 170M2027 135L2082 119M2027 135L1991 170M2027 135L2001 221M2027 135L2129 175M2082 119L1991 170M2082 119L2129 175M2185 130L2129 175M2185 130L2229 191M2318 152L2381 128M2318 152L2229 191M2318 152L2305 201M2318 152L2339 173M2381 128L2462 130M2381 128L2305 201M2381 128L2339 173M2381 128L2442 166M2462 130L2505 126M2462 130L2442 166M2462 130L2519 172M2505 126L2442 166M2505 126L2519 172M67 174L128 162M67 174L-41 172M67 174L71 262M2627 174L2519 172M128 162L167 220M128 162L135 251M167 220L71 262M167 220L135 251M167 220L162 277M167 220L255 268M280 228L255 268M280 228L299 332M383 160L418 198M383 160L410 251M418 198L377 271M418 198L410 251M510 205L610 169M510 205L410 251M510 205L496 261M610 169L678 211M678 211L737 236M678 211L600 281M678 211L648 291M737 236L824 213M737 236L648 291M737 236L724 315M824 213L912 195M824 213L852 311M824 213L922 241M912 195L1021 207M912 195L922 241M1021 207L1041 204M1021 207L1011 253M1041 204L1132 228M1041 204L1011 253M1132 228L1086 282M1132 228L1164 245M1132 228L1209 271M1224 168L1317 231M1224 168L1164 245M1224 168L1209 271M1317 231L1399 167M1317 231L1209 271M1317 231L1326 247M1399 167L1467 177M1399 167L1326 247M1467 177L1561 207M1561 207L1633 220M1561 207L1531 274M1561 207L1655 250M1633 220L1731 233M1633 220L1531 274M1633 220L1655 250M1633 220L1657 333M1731 233L1765 187M1731 233L1655 250M1731 233L1747 242M1731 233L1822 254M1765 187L1747 242M1765 187L1822 254M1900 203L1991 170M1900 203L1822 254M1900 203L1843 252M1991 170L2001 221M2001 221L1980 317M2001 221L2012 304M2129 175L2229 191M2229 191L2305 201M2229 191L2160 277M2305 201L2339 173M2305 201L2260 297M2339 173L2442 166M2339 173L2390 277M2442 166L2519 172M71 262L135 251M71 262L162 277M71 262L63 354M135 251L162 277M135 251L148 351M162 277L148 351M162 277L176 357M255 268L299 332M377 271L410 251M377 271L299 332M377 271L433 366M410 251L496 261M496 261L600 281M496 261L515 364M496 261L589 323M600 281L648 291M600 281L589 323M648 291L724 315M648 291L589 323M724 315L719 396M724 315L735 331M724 315L679 402M852 311L922 241M852 311L847 321M852 311L897 341M922 241L1011 253M922 241L847 321M1011 253L1086 282M1011 253L1029 330M1086 282L1164 245M1086 282L1029 330M1086 282L1134 357M1164 245L1209 271M1209 271L1134 357M1326 247L1432 273M1326 247L1342 358M1432 273L1492 318M1492 318L1531 274M1492 318L1422 376M1492 318L1494 336M1492 318L1564 330M1531 274L1494 336M1531 274L1564 330M1655 250L1747 242M1655 250L1657 333M1747 242L1822 254M1747 242L1843 252M1822 254L1843 252M1980 317L2012 304M1980 317L1912 371M1980 317L1923 364M2012 304L2096 305M2096 305L2160 277M2096 305L2067 395M2096 305L2124 349M2160 277L2260 297M2160 277L2124 349M2160 277L2188 370M2260 297L2188 370M2260 297L2304 396M2260 297L2333 383M2390 277L2443 296M2390 277L2491 316M2390 277L2415 362M2443 296L2491 316M2443 296L2415 362M2443 296L2513 359M2491 316L2415 362M2491 316L2513 359M2491 316L2481 408M63 354L148 351M63 354L176 357M63 354L-47 359M63 354L28 440M2623 354L2513 359M148 351L176 357M176 357L194 479M299 332L394 380M299 332L319 439M394 380L433 366M394 380L319 439M394 380L393 445M394 380L400 423M433 366L515 364M433 366L393 445M433 366L400 423M515 364L589 323M719 396L735 331M719 396L679 402M719 396L724 427M719 396L723 485M735 331L847 321M735 331L679 402M735 331L724 427M847 321L897 341M847 321L858 437M897 341L858 437M897 341L948 401M1029 330L1076 387M1029 330L948 401M1076 387L1134 357M1076 387L993 442M1076 387L1107 437M1134 357L1233 392M1134 357L1107 437M1233 392L1342 358M1233 392L1257 451M1233 392L1249 499M1342 358L1422 376M1342 358L1359 467M1342 358L1388 444M1422 376L1494 336M1422 376L1388 444M1422 376L1482 427M1494 336L1564 330M1494 336L1482 427M1564 330L1657 333M1657 333L1694 361M1657 333L1746 404M1694 361L1648 470M1694 361L1746 404M1819 361L1912 371M1819 361L1923 364M1819 361L1746 404M1819 361L1783 468M1819 361L1854 432M1912 371L1923 364M1912 371L1854 432M1912 371L1944 448M1923 364L1854 432M1923 364L1944 448M2067 395L2124 349M2067 395L2057 464M2067 395L2136 426M2067 395L2171 432M2124 349L2188 370M2124 349L2136 426M2188 370L2136 426M2188 370L2171 432M2304 396L2333 383M2304 396L2275 437M2304 396L2352 449M2333 383L2415 362M2333 383L2275 437M2333 383L2352 449M2415 362L2481 408M2513 359L2588 440M2513 359L2481 408M-47 359L28 440M28 440L139 460M28 440L-79 408M28 440L64 525M2588 440L2481 408M139 460L194 479M139 460L64 525M139 460L152 553M139 460L205 502M194 479L152 553M194 479L205 502M194 479L281 510M319 439L393 445M319 439L400 423M319 439L281 510M393 445L400 423M393 445L371 531M400 423L487 478M487 478L578 474M487 478L447 526M487 478L557 551M578 474L557 551M578 474L620 539M578 474L545 578M578 474L638 563M679 402L724 427M679 402L723 485M724 427L723 485M858 437L948 401M858 437L832 522M948 401L993 442M993 442L1107 437M1107 437L1157 475M1107 437L1089 495M1157 475L1257 451M1157 475L1089 495M1157 475L1125 556M1157 475L1249 499M1257 451L1359 467M1257 451L1249 499M1257 451L1288 496M1359 467L1388 444M1359 467L1288 496M1359 467L1407 555M1388 444L1482 427M1482 427L1549 472M1482 427L1541 495M1549 472L1648 470M1549 472L1482 527M1549 472L1541 495M1648 470L1665 516M1648 470L1641 575M1746 404L1783 468M1783 468L1854 432M1783 468L1754 535M1783 468L1828 548M1854 432L1944 448M1944 448L1894 521M1944 448L1969 540M2057 464L2024 533M2057 464L2127 499M2136 426L2171 432M2136 426L2127 499M2171 432L2275 437M2171 432L2127 499M2275 437L2352 449M2275 437L2233 550M2352 449L2448 466M2448 466L2481 408M2448 466L2422 546M2448 466L2483 526M2448 466L2448 573M64 525L152 553M64 525L118 595M64 525L-20 573M2624 525L2540 573M152 553L205 502M152 553L118 595M205 502L281 510M205 502L220 600M281 510L371 531M281 510L278 594M371 531L447 526M371 531L278 594M371 531L363 609M447 526L363 609M447 526L438 616M557 551L620 539M557 551L545 578M557 551L638 563M620 539L684 547M620 539L545 578M620 539L638 563M684 547L723 485M684 547L638 563M684 547L689 607M832 522L925 557M832 522L795 607M832 522L835 602M925 557L1007 546M925 557L921 589M925 557L1005 632M1007 546L1089 495M1007 546L921 589M1007 546L1005 632M1007 546L1054 574M1089 495L1125 556M1089 495L1054 574M1125 556L1054 574M1125 556L1156 590M1125 556L1213 596M1249 499L1288 496M1249 499L1213 596M1407 555L1482 527M1407 555L1402 596M1407 555L1507 569M1407 555L1429 649M1482 527L1541 495M1482 527L1402 596M1482 527L1507 569M1541 495L1507 569M1541 495L1572 570M1665 516L1754 535M1665 516L1572 570M1665 516L1641 575M1665 516L1690 607M1754 535L1828 548M1754 535L1690 607M1754 535L1770 614M1828 548L1894 521M1828 548L1770 614M1828 548L1862 578M1894 521L1969 540M1894 521L1862 578M1894 521L1971 589M1969 540L2024 533M1969 540L1971 589M2024 533L2127 499M2024 533L1971 589M2233 550L2254 553M2233 550L2332 551M2233 550L2178 616M2233 550L2310 617M2254 553L2332 551M2254 553L2178 616M2254 553L2310 617M2332 551L2422 546M2332 551L2310 617M2332 551L2376 570M2422 546L2483 526M2422 546L2376 570M2422 546L2448 573M2483 526L2448 573M2483 526L2540 573M68 633L118 595M68 633L-20 573M68 633L22 671M68 633L124 684M2628 633L2540 573M118 595L220 600M118 595L124 684M220 600L278 594M220 600L213 662M278 594L363 609M278 594L213 662M363 609L438 616M363 609L388 670M438 616L388 670M438 616L422 701M438 616L498 670M638 563L689 607M689 607L795 607M689 607L684 685M795 607L835 602M795 607L799 674M795 607L840 688M835 602L921 589M835 602L799 674M835 602L840 688M921 589L1005 632M1005 632L1054 574M1005 632L1014 692M1054 574L1099 643M1156 590L1213 596M1156 590L1099 643M1156 590L1202 692M1213 596L1300 639M1213 596L1202 692M1300 639L1321 654M1402 596L1321 654M1402 596L1429 649M1507 569L1572 570M1507 569L1500 678M1572 570L1641 575M1572 570L1623 662M1641 575L1690 607M1641 575L1623 662M1690 607L1770 614M1690 607L1623 662M1770 614L1755 702M1770 614L1813 688M1971 589L2025 635M2025 635L2117 620M2025 635L1999 692M2025 635L2004 688M2025 635L2080 691M2117 620L2178 616M2117 620L2080 691M2117 620L2215 660M2117 620L2132 724M2178 616L2215 660M2310 617L2376 570M2310 617L2362 666M2376 570L2448 573M2376 570L2362 666M2448 573L2540 573M22 671L-26 709M22 671L47 744M22 671L-5 745M2582 671L2534 709M2582 671L2555 745M124 684L47 744M124 684L159 753M124 684L180 757M213 662L297 714M297 714L388 670M297 714L257 768M297 714L343 801M388 670L422 701M388 670L498 670M422 701L498 670M422 701L453 783M422 701L489 733M498 670L489 733M498 670L575 740M597 720L684 685M597 720L575 740M597 720L599 806M684 685L575 740M684 685L713 778M684 685L726 761M799 674L840 688M840 688L929 715M929 715L1014 692M929 715L947 753M1014 692L947 753M1014 692L1058 778M1099 643L1134 703M1134 703L1202 692M1134 703L1182 772M1202 692L1182 772M1202 692L1255 759M1321 654L1429 649M1429 649L1500 678M1500 678L1548 693M1500 678L1514 769M1548 693L1623 662M1548 693L1514 769M1548 693L1522 789M1623 662L1657 740M1755 702L1813 688M1755 702L1657 740M1755 702L1762 747M1813 688L1903 705M1813 688L1762 747M1903 705L1999 692M1903 705L2004 688M1903 705L1906 761M1903 705L1900 818M1999 692L2004 688M1999 692L2080 691M2004 688L2080 691M2004 688L1973 789M2080 691L2132 724M2215 660L2260 719M2260 719L2362 666M2260 719L2188 790M2260 719L2288 779M2362 666L2418 712M2362 666L2351 765M2418 712L2534 709M2418 712L2351 765M2418 712L2427 788M2534 709L2607 744M2534 709L2555 745M-26 709L47 744M47 744L159 753M47 744L-5 745M2607 744L2555 745M159 753L180 757M159 753L257 768M159 753L163 812M180 757L257 768M180 757L163 812M180 757L263 830M257 768L163 812M257 768L263 830M376 797L453 783M376 797L343 801M376 797L452 816M453 783L489 733M453 783L452 816M453 783L506 865M489 733L575 740M489 733L452 816M575 740L599 806M713 778L726 761M713 778L813 795M713 778L707 815M713 778L746 825M726 761L813 795M726 761L707 815M726 761L746 825M813 795L746 825M813 795L861 853M813 795L813 885M947 753L1008 786M947 753L959 841M1008 786L1058 778M1008 786L959 841M1008 786L1015 837M1008 786L1101 804M1058 778L1015 837M1058 778L1101 804M1058 778L1132 834M1182 772L1255 759M1182 772L1101 804M1182 772L1132 834M1255 759L1341 799M1255 759L1249 871M1255 759L1355 807M1341 799L1414 771M1341 799L1355 807M1341 799L1424 803M1341 799L1312 888M1414 771L1514 769M1414 771L1355 807M1414 771L1424 803M1414 771L1487 817M1514 769L1522 789M1514 769L1487 817M1522 789L1487 817M1522 789L1576 859M1522 789L1617 829M1657 740L1707 790M1657 740L1762 747M1657 740L1617 829M1707 790L1762 747M1707 790L1617 829M1707 790L1685 866M1707 790L1806 804M1762 747L1806 804M1906 761L1973 789M1906 761L1806 804M1906 761L1900 818M1906 761L1932 855M1973 789L1900 818M1973 789L1932 855M1973 789L2054 801M2075 788L2132 724M2075 788L2054 801M2075 788L2088 834M2132 724L2188 790M2132 724L2054 801M2188 790L2288 779M2188 790L2168 873M2188 790L2248 861M2288 779L2351 765M2288 779L2248 861M2351 765L2427 788M2351 765L2405 826M2427 788L2377 876M2427 788L2405 826M2427 788L2516 841M2555 745L2516 841M55 874L125 863M55 874L-44 841M55 874L24 957M55 874L145 919M2615 874L2516 841M125 863L163 812M125 863L145 919M125 863L214 881M163 812L214 881M263 830L343 801M263 830L214 881M263 830L321 917M452 816L506 865M452 816L423 906M506 865L599 806M506 865L423 906M506 865L508 924M599 806L707 815M707 815L746 825M707 815L768 898M746 825L768 898M861 853L768 898M861 853L813 885M861 853L947 896M959 841L1015 837M959 841L947 896M959 841L975 881M1015 837L1101 804M1015 837L975 881M1101 804L1132 834M1132 834L1060 935M1132 834L1155 954M1249 871L1271 911M1249 871L1312 888M1355 807L1424 803M1355 807L1312 888M1424 803L1487 817M1424 803L1466 886M1487 817L1466 886M1576 859L1617 829M1576 859L1541 916M1617 829L1685 866M1685 866L1648 944M1685 866L1747 885M1685 866L1685 976M1806 804L1900 818M1806 804L1747 885M1900 818L1932 855M1932 855L1997 938M2054 801L2088 834M2088 834L2168 873M2088 834L2065 937M2168 873L2248 861M2168 873L2149 951M2168 873L2195 898M2248 861L2195 898M2248 861L2250 944M2377 876L2405 826M2377 876L2332 903M2377 876L2432 936M2377 876L2353 975M2405 826L2516 841M2405 826L2332 903M2516 841L2498 927M24 957L-62 927M24 957L62 1025M24 957L-1 978M24 957L48 1041M2584 957L2498 927M2584 957L2559 978M145 919L214 881M145 919L120 1026M214 881L246 949M246 949L321 917M246 949L213 1026M246 949L286 985M246 949L339 1000M321 917L423 906M321 917L286 985M321 917L339 1000M423 906L508 924M508 924L625 938M508 924L467 1015M508 924L501 1013M625 938L667 942M625 938L632 1037M625 938L661 1002M667 942L632 1037M667 942L661 1002M667 942L764 970M768 898L813 885M768 898L764 970M813 885L764 970M813 885L841 980M947 896L975 881M947 896L886 961M947 896L1018 978M975 881L1060 935M975 881L1018 978M1060 935L1155 954M1060 935L1018 978M1155 954L1158 1038M1155 954L1157 1052M1271 911L1312 888M1271 911L1286 990M1312 888L1286 990M1407 943L1466 886M1407 943L1408 1039M1407 943L1504 992M1466 886L1541 916M1541 916L1504 992M1541 916L1577 979M1541 916L1622 971M1648 944L1577 979M1648 944L1622 971M1648 944L1685 976M1747 885L1784 916M1784 916L1868 949M1784 916L1794 1039M1868 949L1843 1014M1868 949L1974 966M1997 938L2065 937M1997 938L1974 966M1997 938L2059 970M2065 937L2149 951M2065 937L1974 966M2065 937L2059 970M2149 951L2195 898M2149 951L2059 970M2149 951L2150 986M2195 898L2250 944M2195 898L2150 986M2250 944L2332 903M2250 944L2236 1010M2250 944L2289 1012M2332 903L2432 936M2332 903L2353 975M2432 936L2498 927M2432 936L2353 975M2432 936L2429 1030M2498 927L2429 1030M2498 927L2559 978M62 1025L120 1026M62 1025L-1 978M62 1025L48 1041M62 1025L87 1089M2622 1025L2559 978M120 1026L213 1026M120 1026L48 1041M120 1026L87 1089M213 1026L286 985M213 1026L239 1053M213 1026L195 1144M286 985L339 1000M286 985L239 1053M339 1000L312 1096M339 1000L374 1078M467 1015L501 1013M467 1015L374 1078M467 1015L449 1079M501 1013L449 1079M501 1013L516 1110M632 1037L661 1002M632 1037L593 1109M632 1037L695 1044M661 1002L695 1044M764 970L841 980M764 970L753 1068M841 980L886 961M841 980L838 1055M886 961L838 1055M1018 978L1072 1025M1072 1025L1158 1038M1072 1025L1035 1112M1072 1025L1046 1100M1072 1025L1157 1052M1158 1038L1241 1027M1158 1038L1157 1052M1158 1038L1227 1065M1241 1027L1286 990M1241 1027L1157 1052M1241 1027L1227 1065M1241 1027L1300 1110M1286 990L1227 1065M1408 1039L1438 1094M1408 1039L1502 1082M1504 992L1577 979M1504 992L1502 1082M1504 992L1524 1087M1577 979L1622 971M1622 971L1685 976M1622 971L1637 1067M1685 976L1637 1067M1685 976L1709 1049M1794 1039L1843 1014M1794 1039L1709 1049M1794 1039L1816 1090M1843 1014L1816 1090M1843 1014L1871 1108M1843 1014L1932 1069M1974 966L2059 970M1974 966L2037 1055M2059 970L2037 1055M2150 986L2236 1010M2150 986L2232 1070M2236 1010L2289 1012M2236 1010L2232 1070M2236 1010L2256 1062M2289 1012L2353 975M2289 1012L2232 1070M2289 1012L2256 1062M2353 975L2386 1056M2429 1030L2386 1056M2429 1030L2442 1064M2429 1030L2504 1073M2559 978L2608 1041M2559 978L2504 1073M-1 978L48 1041M48 1041L87 1089M87 1089L50 1197M87 1089L138 1157M239 1053L312 1096M239 1053L195 1144M239 1053L257 1149M312 1096L374 1078M312 1096L257 1149M312 1096L370 1171M374 1078L449 1079M374 1078L370 1171M449 1079L516 1110M516 1110L593 1109M593 1109L559 1193M593 1109L585 1178M593 1109L659 1178M695 1044L753 1068M695 1044L744 1153M753 1068L838 1055M753 1068L744 1153M753 1068L815 1123M838 1055L815 1123M951 1111L1035 1112M951 1111L1046 1100M951 1111L929 1174M951 1111L976 1167M951 1111L942 1210M1035 1112L1046 1100M1035 1112L976 1167M1035 1112L1067 1151M1046 1100L1067 1151M1157 1052L1227 1065M1227 1065L1300 1110M1300 1110L1236 1157M1300 1110L1323 1198M1438 1094L1502 1082M1438 1094L1524 1087M1438 1094L1416 1159M1502 1082L1524 1087M1524 1087L1637 1067M1524 1087L1508 1191M1637 1067L1709 1049M1637 1067L1648 1172M1816 1090L1871 1108M1816 1090L1770 1177M1816 1090L1878 1144M1871 1108L1932 1069M1871 1108L1878 1144M1871 1108L1976 1124M1932 1069L2037 1055M1932 1069L1878 1144M1932 1069L1976 1124M2037 1055L2100 1115M2037 1055L1976 1124M2100 1115L2050 1178M2100 1115L2123 1191M2100 1115L2172 1193M2232 1070L2256 1062M2256 1062L2386 1056M2386 1056L2442 1064M2386 1056L2371 1158M2442 1064L2504 1073M2442 1064L2463 1184M2504 1073L2492 1182M50 1197L138 1157M50 1197L67 1218M50 1197L107 1236M138 1157L195 1144M138 1157L67 1218M138 1157L107 1236M195 1144L257 1149M195 1144L276 1208M257 1149L276 1208M370 1171L412 1190M370 1171L355 1271M370 1171L413 1215M412 1190L413 1215M559 1193L585 1178M559 1193L507 1253M585 1178L659 1178M585 1178L612 1253M659 1178L744 1153M659 1178L612 1253M659 1178L711 1236M744 1153L815 1123M744 1153L711 1236M929 1174L976 1167M929 1174L1067 1151M929 1174L942 1210M929 1174L1009 1250M976 1167L942 1210M976 1167L1009 1250M1067 1151L1109 1210M1196 1167L1236 1157M1196 1167L1109 1210M1196 1167L1183 1251M1196 1167L1245 1209M1196 1167L1194 1289M1236 1157L1245 1209M1323 1198L1416 1159M1323 1198L1245 1209M1323 1198L1344 1263M1323 1198L1393 1236M1416 1159L1508 1191M1416 1159L1393 1236M1416 1159L1456 1225M1508 1191L1592 1183M1508 1191L1456 1225M1508 1191L1576 1222M1592 1183L1648 1172M1592 1183L1576 1222M1592 1183L1601 1259M1648 1172L1735 1184M1648 1172L1576 1222M1648 1172L1731 1235M1735 1184L1770 1177M1735 1184L1731 1235M1735 1184L1770 1263M1735 1184L1852 1226M1770 1177L1731 1235M1770 1177L1770 1263M1770 1177L1852 1226M1878 1144L1852 1226M1976 1124L2050 1178M1976 1124L1963 1231M2050 1178L2123 1191M2050 1178L1963 1231M2050 1178L2065 1269M2123 1191L2172 1193M2123 1191L2179 1218M2172 1193L2153 1278M2172 1193L2179 1218M2312 1191L2371 1158M2312 1191L2297 1269M2312 1191L2341 1229M2371 1158L2463 1184M2371 1158L2341 1229M2371 1158L2422 1225M2463 1184L2492 1182M2463 1184L2422 1225M2463 1184L2496 1251M2492 1182L2422 1225M2492 1182L2496 1251M67 1218L107 1236M67 1218L51 1311M107 1236L172 1263M107 1236L51 1311M276 1208L355 1271M276 1208L337 1304M355 1271L413 1215M355 1271L303 1348M355 1271L337 1304M413 1215L507 1253M413 1215L463 1315M507 1253L463 1315M507 1253L536 1303M612 1253L536 1303M612 1253L605 1316M612 1253L656 1330M711 1236L733 1273M711 1236L656 1330M711 1236L768 1308M733 1273L819 1264M733 1273L656 1330M733 1273L768 1308M819 1264L768 1308M819 1264L864 1341M942 1210L1009 1250M942 1210L916 1322M1009 1250L1021 1325M1009 1250L1045 1331M1109 1210L1183 1251M1109 1210L1194 1289M1183 1251L1245 1209M1183 1251L1194 1289M1183 1251L1278 1290M1245 1209L1278 1290M1344 1263L1393 1236M1344 1263L1278 1290M1344 1263L1348 1348M1344 1263L1402 1345M1393 1236L1456 1225M1393 1236L1402 1345M1456 1225L1498 1321M1576 1222L1601 1259M1576 1222L1637 1289M1601 1259L1598 1326M1601 1259L1637 1289M1731 1235L1770 1263M1731 1235L1764 1315M1770 1263L1852 1226M1770 1263L1764 1315M1852 1226L1963 1231M1963 1231L2065 1269M1963 1231L1921 1333M2065 1269L2080 1299M2153 1278L2179 1218M2153 1278L2080 1299M2153 1278L2142 1347M2153 1278L2185 1307M2179 1218L2080 1299M2179 1218L2185 1307M2297 1269L2341 1229M2297 1269L2306 1352M2297 1269L2339 1342M2297 1269L2299 1376M2341 1229L2422 1225M2341 1229L2339 1342M2422 1225L2496 1251M2496 1251L2470 1322M2496 1251L2554 1335M51 1311L125 1356M51 1311L-6 1335M51 1311L19 1402M2611 1311L2554 1335M125 1356L216 1355M125 1356L156 1405M125 1356L196 1384M216 1355L303 1348M216 1355L156 1405M216 1355L196 1384M303 1348L337 1304M303 1348L298 1439M303 1348L338 1377M337 1304L338 1377M337 1304L419 1361M463 1315L536 1303M463 1315L419 1361M463 1315L484 1409M536 1303L605 1316M605 1316L656 1330M605 1316L561 1412M605 1316L688 1379M656 1330L688 1379M768 1308L771 1373M768 1308L809 1369M864 1341L916 1322M864 1341L771 1373M864 1341L809 1369M864 1341L948 1377M916 1322L948 1377M1021 1325L1045 1331M1021 1325L948 1377M1021 1325L1013 1368M1021 1325L1044 1374M1045 1331L1013 1368M1045 1331L1044 1374M1194 1289L1278 1290M1278 1290L1348 1348M1348 1348L1402 1345M1348 1348L1270 1392M1348 1348L1311 1401M1402 1345L1498 1321M1402 1345L1434 1431M1498 1321L1598 1326M1498 1321L1504 1398M1498 1321L1559 1368M1598 1326L1637 1289M1598 1326L1559 1368M1598 1326L1605 1388M1725 1357L1764 1315M1725 1357L1703 1398M1764 1315L1703 1398M1764 1315L1822 1402M1887 1345L1921 1333M1887 1345L1822 1402M1887 1345L1906 1400M1921 1333L1906 1400M2080 1299L2142 1347M2080 1299L2185 1307M2142 1347L2185 1307M2142 1347L2117 1437M2142 1347L2169 1363M2185 1307L2169 1363M2306 1352L2339 1342M2306 1352L2299 1376M2339 1342L2299 1376M2339 1342L2393 1409M2470 1322L2554 1335M2470 1322L2424 1428M2470 1322L2482 1419M2554 1335L2579 1402M-6 1335L19 1402M156 1405L196 1384M298 1439L338 1377M338 1377L419 1361M419 1361L484 1409M484 1409L561 1412M688 1379L771 1373M771 1373L809 1369M948 1377L1013 1368M948 1377L1044 1374M1013 1368L1044 1374M1270 1392L1311 1401M1434 1431L1504 1398M1504 1398L1559 1368M1504 1398L1605 1388M1559 1368L1605 1388M1605 1388L1703 1398M1822 1402L1906 1400M1992 1430L2053 1417M2053 1417L2117 1437M2117 1437L2169 1363M2393 1409L2424 1428M2393 1409L2482 1419M2424 1428L2482 1419"/></svg>