<svg xmlns="http://www.w3.org/2000/svg" width="2560" height="1440" fill="#fff"><circle cx="72" cy="55" r="5"/><circle cx="145" cy="20" r="6"/><circle cx="235" cy="37" r="5"/><circle cx="299" cy="51" r="5"/><circle cx="390" cy="39" r="5"/><circle cx="427" cy="39" r="5"/><circle cx="494" cy="74" r="4"/><circle cx="638" cy="45" r="5"/><circle cx="708" cy="42" r="4"/><circle cx="792" cy="20" r="6"/><circle cx="836" cy="4" r="4"/><circle cx="836" cy="1444" r="4"/><circle cx="940" cy="8" r="6"/><circle cx="971" cy="1" r="5"/><circle cx="971" cy="1441" r="5"/><circle cx="1071" cy="29" r="6"/><circle cx="1197" cy="56" r="6"/><circle cx="1241" cy="63" r="5"/><circle cx="1324" cy="8" r="5"/><circle cx="1388" cy="26" r="5"/><circle cx="1449" cy="1" r="5"/><circle cx="1449" cy="1441" r="5"/><circle cx="1563" cy="34" r="4"/><circle cx="1610" cy="10" r="4"/><circle cx="1688" cy="79" r="4"/><circle cx="1779" cy="20" r="6"/><circle cx="1865" cy="64" r="6"/><circle cx="1995" cy="30" r="5"/><circle cx="2008" cy="57" r="6"/><circle cx="2085" cy="34" r="4"/><circle cx="2195" cy="25" r="6"/><circle cx="2301" cy="15" r="5"/><circle cx="2382" cy="77" r="5"/><circle cx="2402" cy="66" r="5"/><circle cx="2528" cy="32" r="4"/><circle cx="4" cy="119" r="6"/><circle cx="2564" cy="119" r="6"/><circle cx="112" cy="108" r="6"/><circle cx="218" cy="125" r="5"/><circle cx="243" cy="106" r="4"/><circle cx="359" cy="133" r="5"/><circle cx="442" cy="153" r="4"/><circle cx="507" cy="135" r="5"/><circle cx="579" cy="143" r="5"/><circle cx="651" cy="125" r="4"/><circle cx="792" cy="150" r="4"/><circle cx="879" cy="142" r="5"/><circle cx="931" cy="121" r="5"/><circle cx="1009" cy="119" r="4"/><circle cx="1053" cy="102" r="5"/><circle cx="1135" cy="99" r="5"/><circle cx="1241" cy="82" r="5"/><circle cx="1326" cy="144" r="5"/><circle cx="1411" cy="90" r="5"/><circle cx="1491" cy="122" r="5"/><circle cx="1554" cy="107" r="5"/><circle cx="1611" cy="150" r="5"/><circle cx="1698" cy="97" r="4"/><circle cx="1828" cy="90" r="5"/><circle cx="1916" cy="126" r="5"/><circle cx="1941" cy="138" r="5"/><circle cx="2002" cy="136" r="4"/><circle cx="2086" cy="89" r="4"/><circle cx="2203" cy="90" r="5"/><circle cx="2276" cy="84" r="5"/><circle cx="2371" cy="89" r="5"/><circle cx="2445" cy="154" r="5"/><circle cx="2529" cy="119" r="4"/><circle cx="22" cy="226" r="4"/><circle cx="87" cy="162" r="5"/><circle cx="176" cy="197" r="4"/><circle cx="305" cy="224" r="5"/><circle cx="326" cy="181" r="6"/><circle cx="407" cy="202" r="5"/><circle cx="509" cy="170" r="5"/><circle cx="587" cy="174" r="5"/><circle cx="679" cy="216" r="6"/><circle cx="775" cy="240" r="4"/><circle cx="862" cy="233" r="5"/><circle cx="919" cy="169" r="6"/><circle cx="1004" cy="232" r="5"/><circle cx="1095" cy="170" r="5"/><circle cx="1154" cy="229" r="4"/><circle cx="1273" cy="201" r="5"/><circle cx="1304" cy="174" r="5"/><circle cx="1436" cy="208" r="6"/><circle cx="1487" cy="239" r="5"/><circle cx="1556" cy="193" r="5"/><circle cx="1634" cy="217" r="5"/><circle cx="1711" cy="212" r="4"/><circle cx="1816" cy="201" r="6"/><circle cx="1894" cy="236" r="5"/><circle cx="1944" cy="233" r="4"/><circle cx="2036" cy="238" r="5"/><circle cx="2106" cy="199" r="4"/><circle cx="2170" cy="236" r="4"/><circle cx="2272" cy="200" r="5"/><circle cx="2366" cy="205" r="6"/><circle cx="2470" cy="179" r="4"/><circle cx="2513" cy="237" r="6"/><circle cx="58" cy="279" r="4"/><circle cx="94" cy="241" r="5"/><circle cx="192" cy="267" r="5"/><circle cx="301" cy="310" r="4"/><circle cx="332" cy="288" r="6"/><circle cx="442" cy="289" r="6"/><circle cx="517" cy="308" r="6"/><circle cx="622" cy="305" r="5"/><circle cx="672" cy="302" r="4"/><circle cx="767" cy="317" r="5"/><circle cx="806" cy="288" r="6"/><circle cx="946" cy="240" r="6"/><circle cx="999" cy="314" r="5"/><circle cx="1119" cy="273" r="5"/><circle cx="1144" cy="309" r="6"/><circle cx="1229" cy="241" r="6"/><circle cx="1299" cy="281" r="4"/><circle cx="1430" cy="248" r="5"/><circle cx="1446" cy="308" r="5"/><circle cx="1597" cy="256" r="4"/><circle cx="1617" cy="244" r="5"/><circle cx="1708" cy="257" r="5"/><circle cx="1831" cy="251" r="5"/><circle cx="1898" cy="315" r="5"/><circle cx="1968" cy="256" r="5"/><circle cx="2026" cy="304" r="6"/><circle cx="2121" cy="258" r="5"/><circle cx="2219" cy="241" r="4"/><circle cx="2283" cy="248" r="4"/><circle cx="2347" cy="247" r="4"/><circle cx="2431" cy="278" r="6"/><circle cx="2486" cy="268" r="5"/><circle cx="76" cy="326" r="4"/><circle cx="93" cy="390" r="5"/><circle cx="203" cy="381" r="6"/><circle cx="242" cy="329" r="4"/><circle cx="372" cy="329" r="4"/><circle cx="474" cy="332" r="5"/><circle cx="503" cy="400" r="5"/><circle cx="595" cy="331" r="4"/><circle cx="710" cy="347" r="4"/><circle cx="734" cy="320" r="5"/><circle cx="862" cy="396" r="5"/><circle cx="894" cy="377" r="5"/><circle cx="962" cy="354" r="6"/><circle cx="1089" cy="377" r="4"/><circle cx="1152" cy="399" r="5"/><circle cx="1254" cy="337" r="6"/><circle cx="1287" cy="393" r="4"/><circle cx="1403" cy="361" r="5"/><circle cx="1511" cy="388" r="5"/><circle cx="1595" cy="346" r="6"/><circle cx="1675" cy="365" r="5"/><circle cx="1727" cy="356" r="4"/><circle cx="1794" cy="353" r="4"/><circle cx="1911" cy="324" r="5"/><circle cx="1959" cy="387" r="5"/><circle cx="2046" cy="362" r="5"/><circle cx="2084" cy="323" r="5"/><circle cx="2189" cy="360" r="5"/><circle cx="2274" cy="393" r="5"/><circle cx="2351" cy="359" r="5"/><circle cx="2430" cy="322" r="5"/><circle cx="2544" cy="349" r="5"/><circle cx="13" cy="402" r="5"/><circle cx="95" cy="464" r="5"/><circle cx="199" cy="472" r="5"/><circle cx="302" cy="408" r="6"/><circle cx="321" cy="415" r="5"/><circle cx="447" cy="466" r="5"/><circle cx="548" cy="471" r="5"/><circle cx="611" cy="414" r="5"/><circle cx="656" cy="451" r="6"/><circle cx="747" cy="441" r="6"/><circle cx="807" cy="474" r="5"/><circle cx="902" cy="426" r="5"/><circle cx="1025" cy="421" r="5"/><circle cx="1107" cy="441" r="6"/><circle cx="1155" cy="416" r="4"/><circle cx="1253" cy="410" r="5"/><circle cx="1358" cy="432" r="5"/><circle cx="1362" cy="454" r="5"/><circle cx="1452" cy="468" r="4"/><circle cx="1563" cy="453" r="4"/><circle cx="1642" cy="475" r="5"/><circle cx="1720" cy="435" r="5"/><circle cx="1830" cy="424" r="4"/><circle cx="1881" cy="411" r="5"/><circle cx="1966" cy="459" r="5"/><circle cx="2033" cy="416" r="5"/><circle cx="2115" cy="429" r="5"/><circle cx="2198" cy="446" r="5"/><circle cx="2287" cy="410" r="6"/><circle cx="2328" cy="461" r="5"/><circle cx="2411" cy="440" r="5"/><circle cx="2507" cy="468" r="4"/><circle cx="51" cy="527" r="4"/><circle cx="141" cy="545" r="5"/><circle cx="160" cy="516" r="5"/><circle cx="257" cy="487" r="5"/><circle cx="388" cy="543" r="5"/><circle cx="412" cy="552" r="5"/><circle cx="544" cy="557" r="5"/><circle cx="580" cy="508" r="5"/><circle cx="659" cy="491" r="6"/><circle cx="783" cy="522" r="5"/><circle cx="829" cy="553" r="6"/><circle cx="932" cy="496" r="6"/><circle cx="1039" cy="499" r="5"/><circle cx="1049" cy="521" r="6"/><circle cx="1194" cy="526" r="5"/><circle cx="1240" cy="507" r="4"/><circle cx="1319" cy="510" r="5"/><circle cx="1392" cy="481" r="6"/><circle cx="1458" cy="483" r="5"/><circle cx="1600" cy="532" r="5"/><circle cx="1675" cy="558" r="5"/><circle cx="1735" cy="509" r="4"/><circle cx="1788" cy="536" r="6"/><circle cx="1913" cy="508" r="5"/><circle cx="1981" cy="485" r="4"/><circle cx="2064" cy="493" r="5"/><circle cx="2152" cy="505" r="4"/><circle cx="2167" cy="519" r="5"/><circle cx="2284" cy="551" r="5"/><circle cx="2383" cy="525" r="5"/><circle cx="2453" cy="525" r="5"/><circle cx="2544" cy="556" r="5"/><circle cx="41" cy="621" r="5"/><circle cx="86" cy="575" r="4"/><circle cx="192" cy="583" r="5"/><circle cx="274" cy="630" r="4"/><circle cx="375" cy="596" r="4"/><circle cx="477" cy="622" r="5"/><circle cx="537" cy="604" r="4"/><circle cx="597" cy="583" r="5"/><circle cx="694" cy="601" r="5"/><circle cx="750" cy="591" r="5"/><circle cx="847" cy="627" r="4"/><circle cx="887" cy="615" r="4"/><circle cx="1007" cy="562" r="6"/><circle cx="1078" cy="624" r="4"/><circle cx="1123" cy="619" r="6"/><circle cx="1239" cy="585" r="5"/><circle cx="1331" cy="574" r="5"/><circle cx="1376" cy="610" r="5"/><circle cx="1497" cy="585" r="4"/><circle cx="1540" cy="614" r="5"/><circle cx="1676" cy="599" r="5"/><circle cx="1736" cy="610" r="5"/><circle cx="1807" cy="589" r="5"/><circle cx="1903" cy="606" r="4"/><circle cx="1957" cy="630" r="5"/><circle cx="2002" cy="625" r="5"/><circle cx="2132" cy="584" r="5"/><circle cx="2239" cy="596" r="6"/><circle cx="2308" cy="592" r="4"/><circle cx="2397" cy="629" r="5"/><circle cx="2460" cy="609" r="6"/><circle cx="2482" cy="578" r="6"/><circle cx="12" cy="683" r="6"/><circle cx="90" cy="690" r="4"/><circle cx="210" cy="665" r="6"/><circle cx="256" cy="703" r="6"/><circle cx="363" cy="650" r="5"/><circle cx="420" cy="692" r="6"/><circle cx="525" cy="689" r="6"/><circle cx="622" cy="675" r="4"/><circle cx="719" cy="680" r="5"/><circle cx="736" cy="657" r="6"/><circle cx="856" cy="704" r="6"/><circle cx="889" cy="674" r="5"/><circle cx="1030" cy="700" r="6"/><circle cx="1101" cy="664" r="4"/><circle cx="1175" cy="708" r="4"/><circle cx="1247" cy="668" r="6"/><circle cx="1301" cy="644" r="6"/><circle cx="1391" cy="677" r="6"/><circle cx="1469" cy="712" r="4"/><circle cx="1574" cy="703" r="4"/><circle cx="1619" cy="690" r="6"/><circle cx="1686" cy="699" r="6"/><circle cx="1761" cy="640" r="5"/><circle cx="1863" cy="690" r="6"/><circle cx="1923" cy="713" r="6"/><circle cx="2063" cy="710" r="6"/><circle cx="2093" cy="708" r="6"/><circle cx="2233" cy="657" r="4"/><circle cx="2240" cy="697" r="6"/><circle cx="2394" cy="691" r="5"/><circle cx="2443" cy="663" r="5"/><circle cx="2486" cy="662" r="5"/><circle cx="16" cy="738" r="5"/><circle cx="154" cy="795" r="6"/><circle cx="208" cy="739" r="6"/><circle cx="273" cy="741" r="6"/><circle cx="371" cy="723" r="5"/><circle cx="463" cy="748" r="5"/><circle cx="497" cy="764" r="4"/><circle cx="639" cy="758" r="6"/><circle cx="707" cy="754" r="5"/><circle cx="727" cy="732" r="5"/><circle cx="870" cy="769" r="5"/><circle cx="945" cy="737" r="5"/><circle cx="989" cy="762" r="4"/><circle cx="1061" cy="778" r="5"/><circle cx="1158" cy="772" r="5"/><circle cx="1201" cy="745" r="4"/><circle cx="1330" cy="795" r="4"/><circle cx="1396" cy="778" r="5"/><circle cx="1488" cy="761" r="5"/><circle cx="1525" cy="743" r="6"/><circle cx="1635" cy="720" r="5"/><circle cx="1749" cy="739" r="6"/><circle cx="1811" cy="742" r="4"/><circle cx="1876" cy="739" r="6"/><circle cx="1967" cy="790" r="6"/><circle cx="2018" cy="739" r="5"/><circle cx="2113" cy="785" r="5"/><circle cx="2190" cy="784" r="5"/><circle cx="2267" cy="798" r="6"/><circle cx="2366" cy="792" r="5"/><circle cx="2438" cy="744" r="5"/><circle cx="2498" cy="795" r="5"/><circle cx="12" cy="826" r="5"/><circle cx="108" cy="876" r="6"/><circle cx="205" cy="853" r="4"/><circle cx="308" cy="857" r="4"/><circle cx="326" cy="867" r="6"/><circle cx="454" cy="804" r="6"/><circle cx="494" cy="865" r="5"/><circle cx="616" cy="825" r="4"/><circle cx="646" cy="839" r="5"/><circle cx="777" cy="872" r="4"/><circle cx="802" cy="875" r="4"/><circle cx="888" cy="843" r="5"/><circle cx="980" cy="807" r="4"/><circle cx="1048" cy="857" r="4"/><circle cx="1184" cy="865" r="5"/><circle cx="1267" cy="834" r="5"/><circle cx="1299" cy="849" r="5"/><circle cx="1408" cy="811" r="5"/><circle cx="1485" cy="844" r="5"/><circle cx="1538" cy="841" r="4"/><circle cx="1628" cy="878" r="5"/><circle cx="1731" cy="805" r="5"/><circle cx="1761" cy="864" r="6"/><circle cx="1888" cy="868" r="6"/><circle cx="1958" cy="824" r="4"/><circle cx="2070" cy="861" r="5"/><circle cx="2102" cy="873" r="5"/><circle cx="2194" cy="843" r="4"/><circle cx="2273" cy="837" r="4"/><circle cx="2369" cy="822" r="5"/><circle cx="2477" cy="877" r="5"/><circle cx="2553" cy="875" r="6"/><circle cx="51" cy="889" r="4"/><circle cx="141" cy="895" r="4"/><circle cx="202" cy="881" r="6"/><circle cx="246" cy="954" r="6"/><circle cx="338" cy="914" r="5"/><circle cx="410" cy="936" r="6"/><circle cx="485" cy="888" r="5"/><circle cx="572" cy="939" r="5"/><circle cx="715" cy="933" r="4"/><circle cx="748" cy="936" r="5"/><circle cx="876" cy="898" r="4"/><circle cx="902" cy="915" r="5"/><circle cx="965" cy="958" r="5"/><circle cx="1046" cy="919" r="5"/><circle cx="1134" cy="951" r="5"/><circle cx="1266" cy="895" r="4"/><circle cx="1302" cy="950" r="4"/><circle cx="1404" cy="944" r="5"/><circle cx="1478" cy="955" r="4"/><circle cx="1537" cy="886" r="4"/><circle cx="1604" cy="931" r="6"/><circle cx="1750" cy="918" r="5"/><circle cx="1818" cy="909" r="5"/><circle cx="1907" cy="949" r="6"/><circle cx="1993" cy="891" r="6"/><circle cx="2002" cy="916" r="5"/><circle cx="2144" cy="948" r="4"/><circle cx="2164" cy="938" r="6"/><circle cx="2299" cy="932" r="6"/><circle cx="2375" cy="913" r="5"/><circle cx="2479" cy="930" r="4"/><circle cx="2486" cy="951" r="5"/><circle cx="13" cy="978" r="5"/><circle cx="131" cy="991" r="5"/><circle cx="236" cy="996" r="6"/><circle cx="248" cy="1029" r="4"/><circle cx="398" cy="1016" r="4"/><circle cx="411" cy="963" r="5"/><circle cx="490" cy="1031" r="6"/><circle cx="577" cy="1022" r="6"/><circle cx="686" cy="1030" r="5"/><circle cx="731" cy="973" r="6"/><circle cx="848" cy="1004" r="6"/><circle cx="925" cy="1037" r="4"/><circle cx="1007" cy="1035" r="5"/><circle cx="1071" cy="1001" r="4"/><circle cx="1142" cy="979" r="6"/><circle cx="1241" cy="1027" r="6"/><circle cx="1304" cy="1020" r="4"/><circle cx="1405" cy="1030" r="4"/><circle cx="1508" cy="986" r="4"/><circle cx="1528" cy="1003" r="4"/><circle cx="1617" cy="977" r="4"/><circle cx="1698" cy="988" r="5"/><circle cx="1806" cy="970" r="6"/><circle cx="1857" cy="961" r="5"/><circle cx="1947" cy="987" r="6"/><circle cx="2026" cy="964" r="5"/><circle cx="2084" cy="1005" r="5"/><circle cx="2174" cy="969" r="4"/><circle cx="2280" cy="1012" r="4"/><circle cx="2338" cy="991" r="6"/><circle cx="2412" cy="990" r="5"/><circle cx="2491" cy="1007" r="5"/><circle cx="22" cy="1112" r="5"/><circle cx="90" cy="1056" r="4"/><circle cx="200" cy="1054" r="4"/><circle cx="271" cy="1069" r="5"/><circle cx="391" cy="1063" r="4"/><circle cx="425" cy="1117" r="4"/><circle cx="513" cy="1089" r="4"/><circle cx="611" cy="1084" r="6"/><circle cx="687" cy="1044" r="6"/><circle cx="753" cy="1116" r="6"/><circle cx="809" cy="1075" r="4"/><circle cx="960" cy="1094" r="5"/><circle cx="1006" cy="1090" r="6"/><circle cx="1072" cy="1046" r="4"/><circle cx="1133" cy="1077" r="5"/><circle cx="1219" cy="1106" r="5"/><circle cx="1300" cy="1096" r="5"/><circle cx="1396" cy="1114" r="5"/><circle cx="1454" cy="1104" r="4"/><circle cx="1537" cy="1102" r="5"/><circle cx="1623" cy="1061" r="4"/><circle cx="1711" cy="1104" r="6"/><circle cx="1814" cy="1106" r="5"/><circle cx="1862" cy="1066" r="5"/><circle cx="1947" cy="1059" r="4"/><circle cx="2034" cy="1057" r="4"/><circle cx="2085" cy="1051" r="6"/><circle cx="2231" cy="1080" r="4"/><circle cx="2284" cy="1104" r="5"/><circle cx="2353" cy="1091" r="6"/><circle cx="2461" cy="1053" r="4"/><circle cx="2527" cy="1048" r="4"/><circle cx="37" cy="1121" r="6"/><circle cx="141" cy="1191" r="5"/><circle cx="196" cy="1136" r="4"/><circle cx="286" cy="1195" r="5"/><circle cx="382" cy="1135" r="5"/><circle cx="442" cy="1167" r="6"/><circle cx="533" cy="1182" r="6"/><circle cx="560" cy="1120" r="5"/><circle cx="646" cy="1160" r="5"/><circle cx="770" cy="1132" r="5"/><circle cx="803" cy="1190" r="6"/><circle cx="946" cy="1148" r="6"/><circle cx="988" cy="1121" r="5"/><circle cx="1092" cy="1168" r="6"/><circle cx="1194" cy="1171" r="4"/><circle cx="1259" cy="1134" r="4"/><circle cx="1345" cy="1147" r="4"/><circle cx="1375" cy="1184" r="6"/><circle cx="1460" cy="1163" r="6"/><circle cx="1533" cy="1188" r="4"/><circle cx="1630" cy="1196" r="6"/><circle cx="1706" cy="1167" r="6"/><circle cx="1837" cy="1131" r="5"/><circle cx="1877" cy="1198" r="5"/><circle cx="1941" cy="1172" r="5"/><circle cx="2066" cy="1196" r="6"/><circle cx="2083" cy="1197" r="6"/><circle cx="2205" cy="1155" r="5"/><circle cx="2272" cy="1145" r="4"/><circle cx="2389" cy="1122" r="5"/><circle cx="2450" cy="1199" r="6"/><circle cx="2538" cy="1188" r="5"/><circle cx="57" cy="1222" r="6"/><circle cx="158" cy="1233" r="6"/><circle cx="197" cy="1238" r="6"/><circle cx="314" cy="1261" r="5"/><circle cx="384" cy="1239" r="4"/><circle cx="434" cy="1225" r="4"/><circle cx="505" cy="1271" r="5"/><circle cx="595" cy="1241" r="5"/><circle cx="711" cy="1261" r="5"/><circle cx="780" cy="1221" r="5"/><circle cx="840" cy="1209" r="4"/><circle cx="892" cy="1221" r="4"/><circle cx="1031" cy="1280" r="6"/><circle cx="1066" cy="1249" r="6"/><circle cx="1169" cy="1223" r="5"/><circle cx="1260" cy="1240" r="5"/><circle cx="1348" cy="1211" r="5"/><circle cx="1360" cy="1255" r="4"/><circle cx="1478" cy="1201" r="6"/><circle cx="1587" cy="1236" r="5"/><circle cx="1669" cy="1261" r="5"/><circle cx="1741" cy="1235" r="5"/><circle cx="1796" cy="1240" r="4"/><circle cx="1891" cy="1229" r="6"/><circle cx="1934" cy="1217" r="5"/><circle cx="2074" cy="1205" r="5"/><circle cx="2140" cy="1220" r="5"/><circle cx="2188" cy="1260" r="4"/><circle cx="2284" cy="1276" r="5"/><circle cx="2369" cy="1267" r="5"/><circle cx="2441" cy="1264" r="5"/><circle cx="2548" cy="1202" r="5"/><circle cx="12" cy="1329" r="5"/><circle cx="106" cy="1359" r="6"/><circle cx="217" cy="1335" r="4"/><circle cx="315" cy="1336" r="5"/><circle cx="392" cy="1307" r="5"/><circle cx="416" cy="1297" r="5"/><circle cx="484" cy="1293" r="4"/><circle cx="632" cy="1340" r="6"/><circle cx="693" cy="1296" r="5"/><circle cx="728" cy="1335" r="5"/><circle cx="851" cy="1296" r="4"/><circle cx="940" cy="1327" r="5"/><circle cx="1038" cy="1290" r="5"/><circle cx="1095" cy="1343" r="5"/><circle cx="1127" cy="1287" r="6"/><circle cx="1276" cy="1281" r="4"/><circle cx="1310" cy="1336" r="5"/><circle cx="1400" cy="1308" r="4"/><circle cx="1449" cy="1300" r="6"/><circle cx="1543" cy="1320" r="5"/><circle cx="1680" cy="1358" r="4"/><circle cx="1681" cy="1355" r="4"/><circle cx="1823" cy="1322" r="5"/><circle cx="1845" cy="1312" r="5"/><circle cx="1923" cy="1282" r="6"/><circle cx="2044" cy="1327" r="5"/><circle cx="2127" cy="1289" r="6"/><circle cx="2219" cy="1354" r="5"/><circle cx="2277" cy="1354" r="4"/><circle cx="2388" cy="1294" r="4"/><circle cx="2401" cy="1281" r="5"/><circle cx="2527" cy="1282" r="5"/><circle cx="22" cy="1413" r="6"/><circle cx="87" cy="1405" r="5"/><circle cx="209" cy="1432" r="5"/><circle cx="284" cy="1394" r="4"/><circle cx="382" cy="1395" r="5"/><circle cx="451" cy="1405" r="6"/><circle cx="499" cy="1380" r="5"/><circle cx="569" cy="1397" r="4"/><circle cx="700" cy="1387" r="6"/><circle cx="767" cy="1400" r="4"/><circle cx="803" cy="1421" r="5"/><circle cx="953" cy="1429" r="5"/><circle cx="1021" cy="1398" r="4"/><circle cx="1041" cy="1425" r="5"/><circle cx="1122" cy="1395" r="5"/><circle cx="1200" cy="1382" r="4"/><circle cx="1327" cy="1375" r="5"/><circle cx="1362" cy="1418" r="5"/><circle cx="1470" cy="1415" r="6"/><circle cx="1555" cy="1430" r="4"/><circle cx="1675" cy="1436" r="5"/><circle cx="1675" cy="-4" r="5"/><circle cx="1742" cy="1413" r="6"/><circle cx="1762" cy="1413" r="5"/><circle cx="1876" cy="1429" r="6"/><circle cx="1993" cy="1424" r="6"/><circle cx="2029" cy="1380" r="4"/><circle cx="2104" cy="1369" r="6"/><circle cx="2205" cy="1440" r="6"/><circle cx="2205" cy="-0" r="6"/><circle cx="2242" cy="1388" r="5"/><circle cx="2336" cy="1398" r="6"/><circle cx="2469" cy="1425" r="4"/><circle cx="2547" cy="1373" r="6"/><path stroke="#fff" d="M72 55L145 20M72 55L4 119M72 55L112 108M72 55L87 -35M72 1495L87 1405M145 20L235 37M145 20L112 108M145 20L87 -35M145 20L209 -8M145 1460L87 1405M145 1460L209 1432M235 37L299 51M235 37L218 125M235 37L243 106M235 37L209 -8M235 1477L209 1432M299 51L390 39M299 51L218 125M299 51L243 106M299 51L359 133M390 39L427 39M390 39L359 133M390 39L382 -45M390 39L451 -35M390 1479L382 1395M390 1479L451 1405M427 39L494 74M427 39L382 -45M427 39L451 -35M427 39L499 -60M427 1479L382 1395M427 1479L451 1405M427 1479L499 1380M494 74L442 153M494 74L507 135M494 74L509 170M638 45L708 42M638 45L579 143M638 45L651 125M638 45L569 -43M638 1485L569 1397M708 42L792 20M708 42L651 125M708 42L700 -53M708 42L803 -19M708 1482L700 1387M708 1482L803 1421M792 20L836 4M792 20L767 -40M792 20L803 -19M792 1460L767 1400M792 1460L803 1421M836 4L940 8M836 4L767 -40M836 4L803 -19M836 1444L767 1400M836 1444L803 1421M940 8L971 1M940 8L953 -11M940 8L1021 -42M940 1448L953 1429M940 1448L1021 1398M971 1L953 -11M971 1L1021 -42M971 1L1041 -15M971 1441L953 1429M971 1441L1021 1398M971 1441L1041 1425M1071 29L1053 102M1071 29L1135 99M1071 29L1021 -42M1071 29L1041 -15M1071 29L1122 -45M1071 1469L1021 1398M1071 1469L1041 1425M1071 1469L1122 1395M1197 56L1241 63M1197 56L1135 99M1197 56L1241 82M1197 56L1122 -45M1197 56L1200 -58M1197 1496L1122 1395M1197 1496L1200 1382M1241 63L1324 8M1241 63L1135 99M1241 63L1241 82M1241 63L1326 144M1324 8L1388 26M1324 8L1241 82M1324 8L1327 -65M1324 8L1362 -22M1324 1448L1327 1375M1324 1448L1362 1418M1388 26L1449 1M1388 26L1411 90M1388 26L1362 -22M1388 26L1470 -25M1388 1466L1362 1418M1388 1466L1470 1415M1449 1L1411 90M1449 1L1362 -22M1449 1L1470 -25M1449 1L1555 -10M1449 1441L1362 1418M1449 1441L1470 1415M1449 1441L1555 1430M1563 34L1610 10M1563 34L1554 107M1563 34L1555 -10M1563 1474L1555 1430M1610 10L1554 107M1610 10L1555 -10M1610 10L1675 -4M1610 1450L1555 1430M1610 1450L1675 1436M1688 79L1698 97M1688 79L1675 -4M1688 1519L1675 1436M1779 20L1865 64M1779 20L1828 90M1779 20L1742 -27M1779 20L1762 -27M1779 20L1876 -11M1779 1460L1742 1413M1779 1460L1762 1413M1779 1460L1876 1429M1865 64L1828 90M1865 64L1916 126M1865 64L1941 138M1865 64L1876 -11M1865 1504L1876 1429M1995 30L2008 57M1995 30L2085 34M1995 30L2002 136M1995 30L1993 -16M1995 30L2029 -60M1995 1470L1993 1424M1995 1470L2029 1380M2008 57L2085 34M2008 57L2002 136M2008 57L2086 89M2008 57L1993 -16M2008 1497L1993 1424M2085 34L2086 89M2085 34L2104 -71M2085 1474L2104 1369M2195 25L2301 15M2195 25L2203 90M2195 25L2276 84M2195 25L2205 -0M2195 25L2242 -52M2195 1465L2205 1440M2195 1465L2242 1388M2301 15L2276 84M2301 15L2205 -0M2301 15L2242 -52M2301 15L2336 -42M2301 1455L2205 1440M2301 1455L2242 1388M2301 1455L2336 1398M2382 77L2402 66M2382 77L2371 89M2402 66L2371 89M2402 66L2336 -42M2402 66L2469 -15M2402 1506L2336 1398M2402 1506L2469 1425M2528 32L2564 119M2528 32L2529 119M2528 32L2582 -27M2528 32L2469 -15M-32 32L4 119M-32 32L22 -27M-32 1472L22 1413M2528 1472L2582 1413M2528 1472L2469 1425M4 119L112 108M4 119L-31 119M4 119L87 162M2564 119L2529 119M112 108L218 125M112 108L87 162M218 125L243 106M218 125L176 197M243 106L176 197M243 106L326 181M359 133L442 153M359 133L326 181M359 133L407 202M442 153L507 135M442 153L407 202M442 153L509 170M507 135L579 143M507 135L509 170M507 135L587 174M579 143L651 125M579 143L509 170M579 143L587 174M651 125L587 174M651 125L679 216M792 150L879 142M879 142L931 121M879 142L862 233M879 142L919 169M931 121L1009 119M931 121L919 169M1009 119L1053 102M1009 119L1004 232M1009 119L1095 170M1053 102L1135 99M1053 102L1095 170M1135 99L1095 170M1241 82L1326 144M1241 82L1304 174M1326 144L1411 90M1326 144L1273 201M1326 144L1304 174M1411 90L1491 122M1491 122L1554 107M1491 122L1436 208M1554 107L1611 150M1611 150L1698 97M1611 150L1556 193M1611 150L1634 217M1828 90L1916 126M1828 90L1816 201M1828 90L1876 -11M1828 1530L1876 1429M1916 126L1941 138M1916 126L2002 136M1941 138L2002 136M1941 138L1944 233M2002 136L2086 89M2086 89L2203 90M2086 89L2106 199M2203 90L2276 84M2203 90L2205 -0M2203 1530L2205 1440M2276 84L2371 89M2371 89L2445 154M2445 154L2529 119M2445 154L2366 205M2445 154L2470 179M2445 154L2513 237M2529 119L2470 179M22 226L87 162M22 226L-47 237M22 226L58 279M22 226L94 241M2582 226L2513 237M87 162L176 197M87 162L94 241M176 197L94 241M176 197L192 267M305 224L326 181M305 224L407 202M305 224L192 267M305 224L301 310M305 224L332 288M326 181L407 202M326 181L332 288M407 202L442 289M509 170L587 174M587 174L679 216M679 216L775 240M679 216L622 305M679 216L672 302M775 240L862 233M775 240L767 317M775 240L806 288M775 240L734 320M862 233L919 169M862 233L806 288M862 233L946 240M919 169L1004 232M919 169L946 240M1004 232L1095 170M1004 232L946 240M1004 232L999 314M1095 170L1154 229M1154 229L1119 273M1154 229L1144 309M1154 229L1229 241M1273 201L1304 174M1273 201L1229 241M1273 201L1299 281M1273 201L1254 337M1304 174L1299 281M1436 208L1487 239M1436 208L1430 248M1436 208L1446 308M1487 239L1556 193M1487 239L1430 248M1487 239L1446 308M1556 193L1634 217M1556 193L1597 256M1556 193L1617 244M1634 217L1597 256M1634 217L1617 244M1634 217L1708 257M1711 212L1816 201M1711 212L1708 257M1816 201L1894 236M1816 201L1708 257M1816 201L1831 251M1894 236L1944 233M1894 236L1831 251M1894 236L1898 315M1894 236L1968 256M1944 233L1968 256M1944 233L1911 324M2036 238L2106 199M2036 238L1968 256M2036 238L2026 304M2036 238L2121 258M2036 238L2084 323M2106 199L2170 236M2106 199L2121 258M2170 236L2272 200M2170 236L2121 258M2170 236L2219 241M2272 200L2366 205M2272 200L2219 241M2272 200L2283 248M2272 200L2347 247M2366 205L2283 248M2366 205L2347 247M2366 205L2431 278M2470 179L2513 237M2470 179L2486 268M2513 237L2431 278M2513 237L2486 268M58 279L94 241M58 279L76 326M58 279L-16 349M2618 279L2544 349M94 241L76 326M192 267L203 381M192 267L242 329M301 310L332 288M301 310L242 329M301 310L372 329M301 310L302 408M332 288L442 289M332 288L372 329M442 289L517 308M442 289L372 329M442 289L474 332M517 308L622 305M517 308L474 332M517 308L503 400M517 308L595 331M622 305L672 302M622 305L595 331M622 305L710 347M672 302L595 331M672 302L710 347M672 302L734 320M767 317L806 288M767 317L710 347M767 317L734 320M806 288L734 320M946 240L999 314M946 240L962 354M999 314L962 354M1119 273L1144 309M1144 309L1229 241M1144 309L1089 377M1144 309L1152 399M1229 241L1299 281M1229 241L1254 337M1299 281L1254 337M1430 248L1446 308M1430 248L1403 361M1446 308L1403 361M1446 308L1511 388M1597 256L1617 244M1597 256L1595 346M1617 244L1708 257M1617 244L1595 346M1708 257L1727 356M1831 251L1898 315M1831 251L1794 353M1898 315L1911 324M1898 315L1959 387M1968 256L2026 304M1968 256L1911 324M2026 304L2121 258M2026 304L2046 362M2026 304L2084 323M2121 258L2084 323M2219 241L2283 248M2219 241L2189 360M2283 248L2347 247M2347 247L2431 278M2431 278L2486 268M2431 278L2430 322M2486 268L2430 322M2486 268L2544 349M76 326L93 390M76 326L-16 349M76 326L13 402M2636 326L2544 349M93 390L203 381M93 390L-16 349M93 390L13 402M93 390L95 464M2653 390L2544 349M203 381L242 329M203 381L199 472M203 381L302 408M242 329L302 408M242 329L321 415M372 329L321 415M474 332L503 400M474 332L595 331M503 400L447 466M503 400L548 471M595 331L611 414M710 347L734 320M710 347L747 441M862 396L894 377M862 396L807 474M862 396L902 426M862 396L932 496M894 377L962 354M894 377L902 426M962 354L902 426M962 354L1025 421M1089 377L1152 399M1089 377L1025 421M1089 377L1107 441M1089 377L1155 416M1152 399L1107 441M1152 399L1155 416M1152 399L1253 410M1254 337L1287 393M1254 337L1253 410M1287 393L1253 410M1287 393L1358 432M1403 361L1358 432M1403 361L1362 454M1511 388L1595 346M1511 388L1452 468M1511 388L1563 453M1511 388L1458 483M1595 346L1675 365M1595 346L1563 453M1675 365L1727 356M1675 365L1720 435M1727 356L1794 353M1727 356L1720 435M1794 353L1830 424M1911 324L1959 387M1911 324L1881 411M1959 387L1881 411M1959 387L1966 459M1959 387L2033 416M2046 362L2084 323M2046 362L2033 416M2046 362L2115 429M2189 360L2274 393M2189 360L2198 446M2189 360L2287 410M2274 393L2351 359M2274 393L2198 446M2274 393L2287 410M2274 393L2328 461M2351 359L2430 322M2351 359L2287 410M2351 359L2328 461M2351 359L2411 440M2544 349L2573 402M-16 349L13 402M13 402L95 464M13 402L-53 468M2573 402L2507 468M95 464L51 527M95 464L141 545M95 464L160 516M199 472L141 545M199 472L160 516M199 472L257 487M302 408L321 415M302 408L257 487M321 415L257 487M447 466L388 543M447 466L412 552M548 471L611 414M548 471L656 451M548 471L544 557M548 471L580 508M611 414L656 451M611 414L659 491M656 451L747 441M656 451L580 508M656 451L659 491M747 441L807 474M747 441L659 491M747 441L783 522M807 474L902 426M807 474L783 522M807 474L829 553M902 426L932 496M1025 421L1107 441M1025 421L1039 499M1025 421L1049 521M1107 441L1155 416M1107 441L1049 521M1155 416L1253 410M1155 416L1194 526M1253 410L1240 507M1358 432L1362 454M1358 432L1319 510M1358 432L1392 481M1362 454L1452 468M1362 454L1319 510M1362 454L1392 481M1452 468L1392 481M1452 468L1458 483M1563 453L1642 475M1563 453L1458 483M1563 453L1600 532M1642 475L1720 435M1642 475L1600 532M1642 475L1675 558M1642 475L1735 509M1720 435L1735 509M1720 435L1788 536M1830 424L1881 411M1830 424L1913 508M1881 411L1966 459M1881 411L1913 508M1966 459L2033 416M1966 459L1913 508M1966 459L1981 485M2033 416L2115 429M2033 416L2064 493M2115 429L2198 446M2115 429L2064 493M2115 429L2152 505M2198 446L2152 505M2198 446L2167 519M2287 410L2328 461M2328 461L2411 440M2328 461L2383 525M2411 440L2507 468M2411 440L2383 525M2411 440L2453 525M2507 468L2453 525M2507 468L2544 556M51 527L-16 556M51 527L41 621M51 527L86 575M2611 527L2544 556M141 545L160 516M141 545L86 575M141 545L192 583M160 516L257 487M160 516L192 583M257 487L192 583M388 543L412 552M388 543L375 596M388 543L363 650M412 552L375 596M412 552L477 622M544 557L580 508M544 557L477 622M544 557L537 604M544 557L597 583M580 508L659 491M580 508L597 583M783 522L829 553M783 522L750 591M829 553L750 591M829 553L847 627M829 553L887 615M932 496L1039 499M932 496L1049 521M932 496L1007 562M1039 499L1049 521M1039 499L1007 562M1049 521L1007 562M1194 526L1240 507M1194 526L1123 619M1194 526L1239 585M1240 507L1319 510M1240 507L1239 585M1319 510L1392 481M1319 510L1331 574M1392 481L1458 483M1458 483L1497 585M1600 532L1675 558M1600 532L1540 614M1600 532L1676 599M1675 558L1735 509M1675 558L1676 599M1675 558L1736 610M1735 509L1788 536M1788 536L1736 610M1788 536L1807 589M1913 508L1981 485M1913 508L1903 606M1981 485L2064 493M2064 493L2152 505M2064 493L2167 519M2152 505L2167 519M2152 505L2132 584M2167 519L2132 584M2284 551L2383 525M2284 551L2239 596M2284 551L2308 592M2284 551L2233 657M2383 525L2453 525M2453 525L2460 609M2453 525L2482 578M2544 556L2601 621M2544 556L2482 578M-16 556L41 621M41 621L86 575M41 621L12 683M41 621L90 690M192 583L274 630M192 583L210 665M274 630L210 665M274 630L256 703M274 630L363 650M274 630L273 741M375 596L363 650M477 622L537 604M477 622L420 692M477 622L525 689M537 604L597 583M537 604L525 689M597 583L694 601M597 583L622 675M694 601L750 591M694 601L622 675M694 601L719 680M694 601L736 657M750 591L719 680M750 591L736 657M847 627L887 615M847 627L856 704M847 627L889 674M887 615L856 704M887 615L889 674M1007 562L1078 624M1078 624L1123 619M1078 624L1030 700M1078 624L1101 664M1123 619L1101 664M1123 619L1175 708M1239 585L1331 574M1239 585L1247 668M1239 585L1301 644M1331 574L1376 610M1331 574L1301 644M1331 574L1391 677M1376 610L1497 585M1376 610L1301 644M1376 610L1391 677M1497 585L1540 614M1540 614L1574 703M1540 614L1619 690M1676 599L1736 610M1676 599L1686 699M1676 599L1761 640M1736 610L1807 589M1736 610L1761 640M1807 589L1903 606M1807 589L1761 640M1903 606L1957 630M1903 606L1863 690M1957 630L2002 625M1957 630L1863 690M1957 630L1923 713M2002 625L2063 710M2002 625L2093 708M2132 584L2239 596M2132 584L2233 657M2239 596L2308 592M2239 596L2233 657M2239 596L2240 697M2308 592L2233 657M2308 592L2240 697M2397 629L2460 609M2397 629L2394 691M2397 629L2443 663M2460 609L2482 578M2460 609L2443 663M2460 609L2486 662M2482 578L2486 662M12 683L90 690M12 683L-74 662M12 683L16 738M2572 683L2486 662M90 690L16 738M210 665L256 703M210 665L208 739M210 665L273 741M256 703L208 739M256 703L273 741M256 703L371 723M363 650L420 692M363 650L371 723M420 692L525 689M420 692L371 723M420 692L463 748M525 689L463 748M525 689L497 764M622 675L639 758M719 680L736 657M719 680L707 754M719 680L727 732M736 657L707 754M736 657L727 732M856 704L889 674M856 704L870 769M889 674L870 769M889 674L945 737M1030 700L1101 664M1030 700L945 737M1030 700L989 762M1030 700L1061 778M1101 664L1175 708M1175 708L1247 668M1175 708L1158 772M1175 708L1201 745M1247 668L1301 644M1247 668L1201 745M1301 644L1391 677M1391 677L1469 712M1391 677L1396 778M1469 712L1396 778M1469 712L1488 761M1469 712L1525 743M1574 703L1619 690M1574 703L1525 743M1574 703L1635 720M1619 690L1686 699M1619 690L1525 743M1619 690L1635 720M1686 699L1761 640M1686 699L1635 720M1686 699L1749 739M1761 640L1749 739M1863 690L1923 713M1863 690L1811 742M1863 690L1876 739M1923 713L1876 739M1923 713L1967 790M1923 713L2018 739M2063 710L2093 708M2063 710L2018 739M2063 710L2113 785M2093 708L2018 739M2093 708L2113 785M2233 657L2240 697M2240 697L2190 784M2240 697L2267 798M2394 691L2443 663M2394 691L2366 792M2394 691L2438 744M2443 663L2486 662M2443 663L2438 744M2486 662L2438 744M16 738L-62 795M16 738L12 826M2576 738L2498 795M154 795L208 739M154 795L108 876M154 795L205 853M154 795L141 895M154 795L202 881M208 739L273 741M208 739L205 853M273 741L371 723M371 723L463 748M463 748L497 764M463 748L454 804M497 764L454 804M497 764L494 865M639 758L707 754M639 758L727 732M639 758L616 825M639 758L646 839M707 754L727 732M707 754L646 839M870 769L945 737M870 769L888 843M945 737L989 762M945 737L980 807M989 762L1061 778M989 762L980 807M1061 778L1158 772M1061 778L980 807M1061 778L1048 857M1158 772L1201 745M1158 772L1184 865M1201 745L1267 834M1330 795L1396 778M1330 795L1267 834M1330 795L1299 849M1330 795L1408 811M1396 778L1488 761M1396 778L1408 811M1488 761L1525 743M1488 761L1408 811M1488 761L1485 844M1525 743L1538 841M1635 720L1749 739M1635 720L1731 805M1749 739L1811 742M1749 739L1731 805M1811 742L1876 739M1811 742L1731 805M1876 739L1967 790M1967 790L2018 739M1967 790L1958 824M1967 790L1993 891M2113 785L2190 784M2113 785L2070 861M2113 785L2102 873M2190 784L2267 798M2190 784L2194 843M2190 784L2273 837M2267 798L2366 792M2267 798L2194 843M2267 798L2273 837M2366 792L2438 744M2366 792L2273 837M2366 792L2369 822M2438 744L2498 795M2498 795L2572 826M2498 795L2477 877M2498 795L2553 875M-62 795L12 826M12 826L-7 875M12 826L51 889M2572 826L2553 875M108 876L51 889M108 876L141 895M108 876L202 881M205 853L141 895M205 853L202 881M308 857L326 867M308 857L338 914M326 867L246 954M326 867L338 914M326 867L410 936M454 804L494 865M454 804L485 888M494 865L485 888M494 865L572 939M616 825L646 839M646 839L572 939M777 872L802 875M777 872L715 933M777 872L748 936M777 872L876 898M802 875L888 843M802 875L748 936M802 875L876 898M802 875L902 915M888 843L980 807M888 843L876 898M888 843L902 915M980 807L1048 857M1048 857L1046 919M1184 865L1267 834M1184 865L1134 951M1184 865L1266 895M1267 834L1299 849M1267 834L1266 895M1299 849L1408 811M1299 849L1266 895M1299 849L1302 950M1408 811L1485 844M1485 844L1538 841M1485 844L1478 955M1485 844L1537 886M1538 841L1628 878M1538 841L1537 886M1628 878L1537 886M1628 878L1604 931M1628 878L1617 977M1731 805L1761 864M1731 805L1750 918M1761 864L1750 918M1761 864L1818 909M1761 864L1806 970M1888 868L1958 824M1888 868L1818 909M1888 868L1907 949M1888 868L1857 961M1958 824L1993 891M1958 824L2002 916M2070 861L2102 873M2070 861L1993 891M2070 861L2002 916M2102 873L2144 948M2102 873L2164 938M2194 843L2273 837M2194 843L2164 938M2273 837L2299 932M2369 822L2375 913M2477 877L2553 875M2477 877L2375 913M2477 877L2479 930M2477 877L2486 951M2553 875L2611 889M2553 875L2479 930M-7 875L51 889M51 889L13 978M141 895L202 881M141 895L131 991M202 881L246 954M246 954L338 914M246 954L236 996M246 954L248 1029M338 914L410 936M338 914L411 963M410 936L485 888M410 936L398 1016M410 936L411 963M485 888L572 939M572 939L577 1022M715 933L748 936M715 933L686 1030M715 933L731 973M748 936L731 973M876 898L902 915M876 898L848 1004M902 915L965 958M902 915L848 1004M965 958L1046 919M965 958L925 1037M1046 919L1134 951M1046 919L1071 1001M1134 951L1071 1001M1134 951L1142 979M1266 895L1302 950M1302 950L1404 944M1302 950L1241 1027M1302 950L1304 1020M1404 944L1478 955M1404 944L1304 1020M1404 944L1405 1030M1404 944L1508 986M1478 955L1537 886M1478 955L1508 986M1478 955L1528 1003M1537 886L1604 931M1604 931L1528 1003M1604 931L1617 977M1604 931L1698 988M1750 918L1818 909M1750 918L1698 988M1750 918L1806 970M1818 909L1806 970M1818 909L1857 961M1907 949L1806 970M1907 949L1857 961M1907 949L1947 987M1993 891L2002 916M1993 891L2026 964M2002 916L1947 987M2002 916L2026 964M2144 948L2164 938M2144 948L2084 1005M2144 948L2174 969M2144 948L2085 1051M2164 938L2084 1005M2164 938L2174 969M2299 932L2375 913M2299 932L2280 1012M2299 932L2338 991M2375 913L2338 991M2375 913L2412 990M2479 930L2486 951M2486 951L2573 978M2486 951L2412 990M2486 951L2491 1007M-74 951L13 978M13 978L131 991M13 978L-69 1007M13 978L-33 1048M2573 978L2491 1007M2573 978L2527 1048M131 991L236 996M131 991L90 1056M131 991L200 1054M236 996L248 1029M236 996L200 1054M236 996L271 1069M248 1029L200 1054M248 1029L271 1069M398 1016L411 963M398 1016L490 1031M398 1016L391 1063M398 1016L425 1117M411 963L490 1031M490 1031L577 1022M490 1031L391 1063M490 1031L513 1089M577 1022L513 1089M577 1022L611 1084M577 1022L560 1120M686 1030L731 973M686 1030L611 1084M686 1030L687 1044M686 1030L753 1116M731 973L848 1004M731 973L687 1044M848 1004L925 1037M848 1004L809 1075M925 1037L960 1094M1007 1035L1071 1001M1007 1035L960 1094M1007 1035L1006 1090M1007 1035L1072 1046M1007 1035L988 1121M1071 1001L1142 979M1071 1001L1072 1046M1142 979L1241 1027M1142 979L1072 1046M1142 979L1133 1077M1241 1027L1304 1020M1241 1027L1219 1106M1241 1027L1300 1096M1304 1020L1405 1030M1304 1020L1300 1096M1405 1030L1396 1114M1405 1030L1454 1104M1508 986L1528 1003M1528 1003L1617 977M1617 977L1698 988M1617 977L1623 1061M1698 988L1711 1104M1806 970L1857 961M1857 961L1947 987M1947 987L2026 964M1947 987L1947 1059M2026 964L2084 1005M2026 964L2085 1051M2084 1005L2034 1057M2084 1005L2085 1051M2174 969L2085 1051M2280 1012L2338 991M2280 1012L2231 1080M2280 1012L2284 1104M2280 1012L2353 1091M2338 991L2412 990M2338 991L2353 1091M2412 990L2491 1007M2412 990L2461 1053M2491 1007L2461 1053M2491 1007L2527 1048M22 1112L90 1056M22 1112L-33 1048M22 1112L37 1121M22 1112L-22 1188M2582 1112L2527 1048M2582 1112L2538 1188M90 1056L37 1121M200 1054L271 1069M200 1054L196 1136M271 1069L196 1136M391 1063L425 1117M391 1063L382 1135M425 1117L382 1135M425 1117L442 1167M513 1089L533 1182M513 1089L560 1120M611 1084L687 1044M611 1084L560 1120M611 1084L646 1160M687 1044L753 1116M753 1116L809 1075M753 1116L770 1132M753 1116L803 1190M809 1075L770 1132M960 1094L1006 1090M960 1094L946 1148M960 1094L988 1121M1006 1090L1072 1046M1006 1090L946 1148M1006 1090L988 1121M1072 1046L1133 1077M1133 1077L1219 1106M1133 1077L1092 1168M1219 1106L1300 1096M1219 1106L1194 1171M1219 1106L1259 1134M1300 1096L1259 1134M1300 1096L1345 1147M1396 1114L1454 1104M1396 1114L1345 1147M1396 1114L1375 1184M1396 1114L1460 1163M1454 1104L1537 1102M1454 1104L1460 1163M1454 1104L1478 1201M1537 1102L1623 1061M1537 1102L1533 1188M1537 1102L1478 1201M1623 1061L1711 1104M1711 1104L1814 1106M1711 1104L1630 1196M1711 1104L1706 1167M1814 1106L1862 1066M1814 1106L1706 1167M1814 1106L1837 1131M1862 1066L1947 1059M1862 1066L1837 1131M1947 1059L2034 1057M2034 1057L2085 1051M2231 1080L2284 1104M2231 1080L2205 1155M2231 1080L2272 1145M2284 1104L2353 1091M2284 1104L2205 1155M2284 1104L2272 1145M2353 1091L2272 1145M2353 1091L2389 1122M2461 1053L2527 1048M2461 1053L2389 1122M37 1121L-22 1188M37 1121L57 1222M37 1121L-12 1202M2597 1121L2538 1188M2597 1121L2548 1202M141 1191L196 1136M141 1191L57 1222M141 1191L158 1233M141 1191L197 1238M196 1136L158 1233M196 1136L197 1238M286 1195L197 1238M286 1195L314 1261M382 1135L442 1167M442 1167L533 1182M442 1167L384 1239M442 1167L434 1225M533 1182L560 1120M533 1182L505 1271M533 1182L595 1241M560 1120L646 1160M646 1160L595 1241M770 1132L803 1190M770 1132L780 1221M770 1132L840 1209M803 1190L780 1221M803 1190L840 1209M803 1190L892 1221M946 1148L988 1121M946 1148L892 1221M988 1121L1092 1168M1092 1168L1194 1171M1092 1168L1066 1249M1092 1168L1169 1223M1194 1171L1259 1134M1194 1171L1169 1223M1194 1171L1260 1240M1259 1134L1345 1147M1345 1147L1375 1184M1345 1147L1348 1211M1375 1184L1460 1163M1375 1184L1348 1211M1375 1184L1360 1255M1460 1163L1533 1188M1460 1163L1478 1201M1533 1188L1630 1196M1533 1188L1478 1201M1533 1188L1587 1236M1630 1196L1706 1167M1630 1196L1587 1236M1630 1196L1669 1261M1706 1167L1669 1261M1706 1167L1741 1235M1837 1131L1877 1198M1877 1198L1941 1172M1877 1198L1891 1229M1877 1198L1934 1217M1877 1198L1923 1282M1941 1172L1891 1229M1941 1172L1934 1217M2066 1196L2083 1197M2066 1196L2074 1205M2066 1196L2140 1220M2066 1196L2044 1327M2083 1197L2074 1205M2083 1197L2140 1220M2083 1197L2127 1289M2205 1155L2272 1145M2205 1155L2188 1260M2272 1145L2389 1122M2389 1122L2450 1199M2450 1199L2538 1188M2450 1199L2441 1264M2450 1199L2548 1202M2450 1199L2401 1281M2538 1188L2617 1222M2538 1188L2548 1202M-22 1188L57 1222M57 1222L158 1233M57 1222L-12 1202M2617 1222L2548 1202M158 1233L197 1238M197 1238L217 1335M314 1261L384 1239M314 1261L315 1336M314 1261L392 1307M384 1239L434 1225M384 1239L392 1307M384 1239L416 1297M434 1225L505 1271M434 1225L416 1297M505 1271L595 1241M505 1271L416 1297M505 1271L484 1293M595 1241L632 1340M595 1241L693 1296M711 1261L780 1221M711 1261L693 1296M711 1261L728 1335M780 1221L840 1209M780 1221L851 1296M840 1209L892 1221M840 1209L851 1296M892 1221L851 1296M1031 1280L1066 1249M1031 1280L940 1327M1031 1280L1038 1290M1031 1280L1095 1343M1031 1280L1127 1287M1066 1249L1038 1290M1066 1249L1095 1343M1066 1249L1127 1287M1169 1223L1260 1240M1169 1223L1127 1287M1260 1240L1348 1211M1260 1240L1276 1281M1348 1211L1360 1255M1348 1211L1276 1281M1360 1255L1276 1281M1360 1255L1400 1308M1360 1255L1449 1300M1478 1201L1449 1300M1587 1236L1669 1261M1587 1236L1543 1320M1669 1261L1741 1235M1669 1261L1681 1355M1741 1235L1796 1240M1796 1240L1823 1322M1796 1240L1845 1312M1891 1229L1934 1217M1891 1229L1845 1312M1891 1229L1923 1282M1934 1217L1923 1282M2074 1205L2140 1220M2140 1220L2188 1260M2140 1220L2127 1289M2188 1260L2284 1276M2188 1260L2127 1289M2188 1260L2219 1354M2284 1276L2369 1267M2284 1276L2219 1354M2284 1276L2277 1354M2369 1267L2441 1264M2369 1267L2388 1294M2369 1267L2401 1281M2369 1267L2336 1398M2441 1264L2388 1294M2441 1264L2401 1281M2441 1264L2527 1282M2548 1202L2527 1282M12 1329L106 1359M12 1329L-33 1282M12 1329L22 1413M12 1329L-13 1373M2572 1329L2527 1282M2572 1329L2547 1373M106 1359L217 1335M106 1359L22 1413M106 1359L87 1405M217 1335L315 1336M217 1335L209 1432M217 1335L284 1394M315 1336L392 1307M315 1336L284 1394M315 1336L382 1395M392 1307L416 1297M392 1307L382 1395M416 1297L484 1293M484 1293L499 1380M632 1340L693 1296M632 1340L728 1335M632 1340L569 1397M632 1340L700 1387M693 1296L728 1335M693 1296L700 1387M728 1335L700 1387M728 1335L767 1400M851 1296L940 1327M940 1327L1038 1290M940 1327L953 1429M1038 1290L1095 1343M1038 1290L1127 1287M1095 1343L1127 1287M1095 1343L1122 1395M1276 1281L1310 1336M1276 1281L1327 1375M1310 1336L1400 1308M1310 1336L1200 1382M1310 1336L1327 1375M1310 1336L1362 1418M1400 1308L1449 1300M1400 1308L1327 1375M1449 1300L1543 1320M1449 1300L1470 1415M1543 1320L1470 1415M1543 1320L1555 1430M1680 1358L1681 1355M1680 1358L1675 1436M1680 1358L1742 1413M1680 1358L1762 1413M1681 1355L1675 1436M1681 1355L1742 1413M1681 1355L1762 1413M1823 1322L1845 1312M1823 1322L1923 1282M1823 1322L1876 1429M1845 1312L1923 1282M2044 1327L2127 1289M2044 1327L1993 1424M2044 1327L2029 1380M2044 1327L2104 1369M2127 1289L2104 1369M2219 1354L2277 1354M2219 1354L2205 1440M2219 1354L2242 1388M2277 1354L2242 1388M2277 1354L2336 1398M2388 1294L2401 1281M2388 1294L2336 1398M2527 1282L2547 1373M22 1413L87 1405M22 1413L-13 1373M2582 1413L2547 1373M87 1405L-13 1373M2647 1405L2547 1373M209 1432L284 1394M382 1395L451 1405M451 1405L499 1380M451 1405L569 1397M499 1380L569 1397M700 1387L767 1400M767 1400L803 1421M953 1429L1021 1398M953 1429L1041 1425M1021 1398L1041 1425M1041 1425L1122 1395M1122 1395L1200 1382M1327 1375L1362 1418M1470 1415L1555 1430M1675 1436L1742 1413M1742 1413L1762 1413M1876 1429L1993 1424M1993 1424L2029 1380M2029 1380L2104 1369M2205 1440L2242 1388M2469 1425L2547 1373"/></svg>