<svg xmlns="http://www.w3.org/2000/svg" width="2560" height="1440" fill="#fff"><circle cx="20" cy="79" r="4"/><circle cx="127" cy="11" r="5"/><circle cx="203" cy="33" r="6"/><circle cx="262" cy="48" r="5"/><circle cx="379" cy="58" r="5"/><circle cx="416" cy="13" r="5"/><circle cx="527" cy="46" r="5"/><circle cx="581" cy="31" r="6"/><circle cx="684" cy="3" r="4"/><circle cx="684" cy="1443" r="4"/><circle cx="732" cy="19" r="5"/><circle cx="852" cy="10" r="6"/><circle cx="905" cy="46" r="5"/><circle cx="961" cy="55" r="5"/><circle cx="1074" cy="61" r="6"/><circle cx="1130" cy="35" r="5"/><circle cx="1223" cy="11" r="5"/><circle cx="1355" cy="64" r="6"/><circle cx="1381" cy="55" r="6"/><circle cx="1494" cy="49" r="5"/><circle cx="1528" cy="53" r="5"/><circle cx="1663" cy="56" r="5"/><circle cx="1737" cy="78" r="6"/><circle cx="1809" cy="40" r="6"/><circle cx="1901" cy="37" r="6"/><circle cx="1956" cy="72" r="5"/><circle cx="2010" cy="5" r="5"/><circle cx="2010" cy="1445" r="5"/><circle cx="2081" cy="14" r="4"/><circle cx="2176" cy="42" r="5"/><circle cx="2263" cy="43" r="5"/><circle cx="2359" cy="48" r="4"/><circle cx="2466" cy="77" r="5"/><circle cx="2515" cy="46" r="6"/><circle cx="50" cy="114" r="5"/><circle cx="142" cy="89" r="5"/><circle cx="183" cy="157" r="5"/><circle cx="304" cy="154" r="4"/><circle cx="372" cy="96" r="4"/><circle cx="409" cy="85" r="5"/><circle cx="525" cy="84" r="6"/><circle cx="602" cy="106" r="5"/><circle cx="700" cy="80" r="6"/><circle cx="733" cy="91" r="6"/><circle cx="855" cy="96" r="6"/><circle cx="956" cy="111" r="4"/><circle cx="990" cy="153" r="5"/><circle cx="1045" cy="136" r="4"/><circle cx="1132" cy="133" r="4"/><circle cx="1274" cy="150" r="6"/><circle cx="1336" cy="154" r="6"/><circle cx="1367" cy="91" r="6"/><circle cx="1452" cy="122" r="5"/><circle cx="1571" cy="107" r="5"/><circle cx="1668" cy="117" r="5"/><circle cx="1743" cy="139" r="5"/><circle cx="1795" cy="125" r="5"/><circle cx="1906" cy="107" r="6"/><circle cx="1957" cy="113" r="5"/><circle cx="2046" cy="94" r="5"/><circle cx="2087" cy="142" r="5"/><circle cx="2230" cy="82" r="5"/><circle cx="2313" cy="86" r="5"/><circle cx="2341" cy="109" r="5"/><circle cx="2419" cy="101" r="5"/><circle cx="2495" cy="147" r="5"/><circle cx="29" cy="223" r="5"/><circle cx="82" cy="203" r="5"/><circle cx="222" cy="160" r="5"/><circle cx="252" cy="172" r="6"/><circle cx="375" cy="188" r="5"/><circle cx="475" cy="196" r="4"/><circle cx="522" cy="198" r="5"/><circle cx="629" cy="236" r="6"/><circle cx="671" cy="240" r="5"/><circle cx="774" cy="168" r="5"/><circle cx="869" cy="227" r="6"/><circle cx="886" cy="193" r="5"/><circle cx="961" cy="193" r="5"/><circle cx="1063" cy="235" r="4"/><circle cx="1147" cy="236" r="5"/><circle cx="1230" cy="165" r="5"/><circle cx="1302" cy="198" r="5"/><circle cx="1390" cy="210" r="4"/><circle cx="1466" cy="182" r="5"/><circle cx="1570" cy="213" r="5"/><circle cx="1623" cy="202" r="5"/><circle cx="1740" cy="193" r="5"/><circle cx="1763" cy="160" r="4"/><circle cx="1898" cy="179" r="4"/><circle cx="1964" cy="191" r="4"/><circle cx="2076" cy="209" r="4"/><circle cx="2092" cy="200" r="5"/><circle cx="2229" cy="227" r="6"/><circle cx="2258" cy="219" r="6"/><circle cx="2347" cy="202" r="4"/><circle cx="2418" cy="237" r="5"/><circle cx="2540" cy="199" r="5"/><circle cx="49" cy="303" r="6"/><circle cx="81" cy="258" r="5"/><circle cx="198" cy="287" r="4"/><circle cx="284" cy="270" r="4"/><circle cx="345" cy="277" r="6"/><circle cx="474" cy="279" r="5"/><circle cx="494" cy="307" r="5"/><circle cx="629" cy="265" r="5"/><circle cx="653" cy="265" r="5"/><circle cx="782" cy="302" r="5"/><circle cx="817" cy="312" r="6"/><circle cx="960" cy="300" r="4"/><circle cx="969" cy="273" r="5"/><circle cx="1100" cy="277" r="5"/><circle cx="1193" cy="289" r="6"/><circle cx="1201" cy="315" r="4"/><circle cx="1306" cy="313" r="6"/><circle cx="1372" cy="253" r="5"/><circle cx="1507" cy="258" r="5"/><circle cx="1554" cy="280" r="6"/><circle cx="1602" cy="296" r="4"/><circle cx="1721" cy="252" r="5"/><circle cx="1821" cy="253" r="5"/><circle cx="1866" cy="298" r="6"/><circle cx="1995" cy="240" r="5"/><circle cx="2042" cy="261" r="4"/><circle cx="2154" cy="318" r="5"/><circle cx="2168" cy="255" r="6"/><circle cx="2267" cy="314" r="5"/><circle cx="2326" cy="282" r="5"/><circle cx="2474" cy="250" r="6"/><circle cx="2489" cy="314" r="5"/><circle cx="31" cy="350" r="6"/><circle cx="125" cy="395" r="5"/><circle cx="211" cy="389" r="5"/><circle cx="249" cy="382" r="5"/><circle cx="362" cy="356" r="5"/><circle cx="453" cy="336" r="5"/><circle cx="542" cy="339" r="5"/><circle cx="582" cy="323" r="5"/><circle cx="697" cy="332" r="4"/><circle cx="795" cy="364" r="5"/><circle cx="877" cy="339" r="6"/><circle cx="886" cy="376" r="6"/><circle cx="964" cy="336" r="5"/><circle cx="1101" cy="353" r="6"/><circle cx="1193" cy="337" r="4"/><circle cx="1251" cy="382" r="6"/><circle cx="1310" cy="364" r="4"/><circle cx="1373" cy="356" r="6"/><circle cx="1462" cy="345" r="5"/><circle cx="1541" cy="338" r="4"/><circle cx="1658" cy="320" r="5"/><circle cx="1731" cy="349" r="5"/><circle cx="1779" cy="360" r="5"/><circle cx="1907" cy="328" r="5"/><circle cx="1949" cy="382" r="5"/><circle cx="2054" cy="385" r="6"/><circle cx="2127" cy="359" r="5"/><circle cx="2211" cy="372" r="6"/><circle cx="2265" cy="356" r="5"/><circle cx="2335" cy="353" r="5"/><circle cx="2452" cy="352" r="6"/><circle cx="2482" cy="368" r="5"/><circle cx="75" cy="411" r="5"/><circle cx="101" cy="455" r="6"/><circle cx="220" cy="465" r="5"/><circle cx="269" cy="407" r="5"/><circle cx="389" cy="406" r="5"/><circle cx="433" cy="429" r="5"/><circle cx="480" cy="410" r="6"/><circle cx="613" cy="478" r="5"/><circle cx="700" cy="429" r="4"/><circle cx="799" cy="460" r="6"/><circle cx="867" cy="410" r="6"/><circle cx="902" cy="450" r="5"/><circle cx="1003" cy="462" r="5"/><circle cx="1042" cy="449" r="6"/><circle cx="1173" cy="472" r="6"/><circle cx="1222" cy="477" r="4"/><circle cx="1345" cy="478" r="5"/><circle cx="1374" cy="478" r="5"/><circle cx="1504" cy="431" r="5"/><circle cx="1578" cy="418" r="5"/><circle cx="1660" cy="434" r="6"/><circle cx="1701" cy="473" r="4"/><circle cx="1795" cy="418" r="6"/><circle cx="1918" cy="432" r="6"/><circle cx="1956" cy="455" r="6"/><circle cx="2029" cy="462" r="6"/><circle cx="2154" cy="435" r="5"/><circle cx="2171" cy="429" r="5"/><circle cx="2254" cy="469" r="5"/><circle cx="2326" cy="444" r="5"/><circle cx="2461" cy="471" r="5"/><circle cx="2485" cy="451" r="4"/><circle cx="27" cy="491" r="6"/><circle cx="134" cy="551" r="5"/><circle cx="237" cy="524" r="4"/><circle cx="313" cy="540" r="5"/><circle cx="325" cy="531" r="4"/><circle cx="446" cy="531" r="6"/><circle cx="525" cy="504" r="4"/><circle cx="614" cy="517" r="5"/><circle cx="699" cy="490" r="5"/><circle cx="739" cy="538" r="4"/><circle cx="836" cy="526" r="5"/><circle cx="947" cy="559" r="4"/><circle cx="974" cy="542" r="6"/><circle cx="1068" cy="532" r="5"/><circle cx="1161" cy="534" r="5"/><circle cx="1260" cy="511" r="4"/><circle cx="1346" cy="491" r="4"/><circle cx="1390" cy="495" r="5"/><circle cx="1498" cy="504" r="6"/><circle cx="1546" cy="512" r="5"/><circle cx="1604" cy="491" r="6"/><circle cx="1722" cy="487" r="5"/><circle cx="1769" cy="511" r="5"/><circle cx="1853" cy="505" r="6"/><circle cx="1986" cy="540" r="5"/><circle cx="2050" cy="493" r="4"/><circle cx="2141" cy="554" r="6"/><circle cx="2215" cy="509" r="5"/><circle cx="2255" cy="531" r="6"/><circle cx="2338" cy="535" r="5"/><circle cx="2441" cy="527" r="5"/><circle cx="2549" cy="495" r="5"/><circle cx="60" cy="618" r="5"/><circle cx="84" cy="618" r="4"/><circle cx="189" cy="578" r="6"/><circle cx="267" cy="562" r="5"/><circle cx="370" cy="571" r="5"/><circle cx="427" cy="608" r="4"/><circle cx="550" cy="602" r="5"/><circle cx="599" cy="595" r="5"/><circle cx="665" cy="633" r="5"/><circle cx="777" cy="566" r="6"/><circle cx="852" cy="608" r="5"/><circle cx="901" cy="574" r="5"/><circle cx="963" cy="627" r="5"/><circle cx="1118" cy="571" r="5"/><circle cx="1159" cy="616" r="5"/><circle cx="1217" cy="610" r="4"/><circle cx="1295" cy="577" r="5"/><circle cx="1366" cy="583" r="6"/><circle cx="1465" cy="625" r="4"/><circle cx="1562" cy="571" r="5"/><circle cx="1667" cy="619" r="4"/><circle cx="1719" cy="617" r="6"/><circle cx="1810" cy="622" r="4"/><circle cx="1865" cy="561" r="6"/><circle cx="1974" cy="576" r="5"/><circle cx="2022" cy="613" r="5"/><circle cx="2107" cy="576" r="5"/><circle cx="2171" cy="630" r="5"/><circle cx="2290" cy="614" r="5"/><circle cx="2342" cy="562" r="4"/><circle cx="2435" cy="597" r="5"/><circle cx="2484" cy="577" r="5"/><circle cx="11" cy="705" r="6"/><circle cx="91" cy="688" r="5"/><circle cx="203" cy="705" r="6"/><circle cx="261" cy="655" r="5"/><circle cx="370" cy="658" r="5"/><circle cx="437" cy="640" r="5"/><circle cx="509" cy="684" r="4"/><circle cx="591" cy="714" r="4"/><circle cx="710" cy="682" r="6"/><circle cx="736" cy="641" r="6"/><circle cx="875" cy="651" r="6"/><circle cx="953" cy="714" r="6"/><circle cx="972" cy="685" r="5"/><circle cx="1113" cy="661" r="5"/><circle cx="1175" cy="671" r="4"/><circle cx="1225" cy="716" r="4"/><circle cx="1317" cy="647" r="5"/><circle cx="1385" cy="662" r="4"/><circle cx="1457" cy="677" r="5"/><circle cx="1547" cy="716" r="5"/><circle cx="1619" cy="711" r="4"/><circle cx="1688" cy="687" r="4"/><circle cx="1796" cy="694" r="6"/><circle cx="1856" cy="684" r="5"/><circle cx="1961" cy="663" r="4"/><circle cx="2036" cy="659" r="5"/><circle cx="2092" cy="683" r="5"/><circle cx="2197" cy="646" r="4"/><circle cx="2241" cy="694" r="5"/><circle cx="2353" cy="659" r="4"/><circle cx="2456" cy="657" r="5"/><circle cx="2549" cy="690" r="6"/><circle cx="65" cy="745" r="6"/><circle cx="152" cy="720" r="6"/><circle cx="183" cy="725" r="5"/><circle cx="308" cy="738" r="5"/><circle cx="356" cy="734" r="4"/><circle cx="448" cy="723" r="6"/><circle cx="498" cy="784" r="4"/><circle cx="619" cy="742" r="6"/><circle cx="656" cy="754" r="5"/><circle cx="748" cy="773" r="6"/><circle cx="807" cy="746" r="4"/><circle cx="907" cy="790" r="5"/><circle cx="1000" cy="784" r="5"/><circle cx="1053" cy="727" r="5"/><circle cx="1173" cy="784" r="6"/><circle cx="1200" cy="789" r="5"/><circle cx="1341" cy="730" r="5"/><circle cx="1369" cy="760" r="5"/><circle cx="1511" cy="776" r="5"/><circle cx="1587" cy="726" r="6"/><circle cx="1670" cy="766" r="4"/><circle cx="1721" cy="766" r="6"/><circle cx="1786" cy="761" r="4"/><circle cx="1907" cy="798" r="6"/><circle cx="1982" cy="770" r="4"/><circle cx="2065" cy="725" r="5"/><circle cx="2089" cy="736" r="4"/><circle cx="2195" cy="752" r="4"/><circle cx="2241" cy="739" r="4"/><circle cx="2341" cy="766" r="6"/><circle cx="2450" cy="784" r="5"/><circle cx="2545" cy="733" r="5"/><circle cx="3" cy="859" r="4"/><circle cx="2563" cy="859" r="4"/><circle cx="109" cy="811" r="6"/><circle cx="166" cy="856" r="5"/><circle cx="314" cy="802" r="5"/><circle cx="399" cy="874" r="5"/><circle cx="444" cy="865" r="5"/><circle cx="536" cy="803" r="4"/><circle cx="639" cy="805" r="5"/><circle cx="680" cy="816" r="6"/><circle cx="728" cy="833" r="4"/><circle cx="823" cy="821" r="5"/><circle cx="916" cy="819" r="4"/><circle cx="969" cy="871" r="6"/><circle cx="1087" cy="853" r="5"/><circle cx="1159" cy="836" r="4"/><circle cx="1220" cy="833" r="4"/><circle cx="1280" cy="862" r="6"/><circle cx="1407" cy="870" r="5"/><circle cx="1466" cy="820" r="5"/><circle cx="1568" cy="838" r="4"/><circle cx="1662" cy="849" r="6"/><circle cx="1697" cy="839" r="5"/><circle cx="1822" cy="832" r="5"/><circle cx="1889" cy="824" r="5"/><circle cx="1920" cy="860" r="4"/><circle cx="2053" cy="833" r="4"/><circle cx="2149" cy="860" r="5"/><circle cx="2208" cy="876" r="5"/><circle cx="2258" cy="847" r="5"/><circle cx="2325" cy="809" r="5"/><circle cx="2443" cy="860" r="4"/><circle cx="2524" cy="830" r="4"/><circle cx="75" cy="885" r="5"/><circle cx="102" cy="946" r="5"/><circle cx="194" cy="913" r="6"/><circle cx="275" cy="933" r="5"/><circle cx="365" cy="888" r="5"/><circle cx="410" cy="908" r="6"/><circle cx="508" cy="891" r="6"/><circle cx="562" cy="896" r="5"/><circle cx="695" cy="943" r="5"/><circle cx="749" cy="895" r="5"/><circle cx="841" cy="914" r="6"/><circle cx="936" cy="953" r="4"/><circle cx="960" cy="923" r="4"/><circle cx="1084" cy="886" r="6"/><circle cx="1145" cy="907" r="5"/><circle cx="1259" cy="948" r="5"/><circle cx="1334" cy="947" r="4"/><circle cx="1430" cy="937" r="4"/><circle cx="1483" cy="938" r="4"/><circle cx="1544" cy="896" r="5"/><circle cx="1660" cy="951" r="4"/><circle cx="1755" cy="898" r="5"/><circle cx="1837" cy="939" r="6"/><circle cx="1893" cy="934" r="4"/><circle cx="1961" cy="906" r="6"/><circle cx="2057" cy="938" r="4"/><circle cx="2157" cy="887" r="5"/><circle cx="2218" cy="939" r="6"/><circle cx="2293" cy="933" r="5"/><circle cx="2329" cy="913" r="5"/><circle cx="2457" cy="913" r="4"/><circle cx="2551" cy="952" r="5"/><circle cx="32" cy="1038" r="4"/><circle cx="119" cy="993" r="4"/><circle cx="223" cy="971" r="5"/><circle cx="282" cy="1009" r="5"/><circle cx="362" cy="976" r="4"/><circle cx="430" cy="1021" r="5"/><circle cx="526" cy="979" r="5"/><circle cx="616" cy="1019" r="5"/><circle cx="643" cy="987" r="5"/><circle cx="797" cy="995" r="4"/><circle cx="850" cy="1022" r="4"/><circle cx="931" cy="973" r="6"/><circle cx="1003" cy="966" r="5"/><circle cx="1057" cy="1032" r="6"/><circle cx="1163" cy="1016" r="6"/><circle cx="1226" cy="962" r="4"/><circle cx="1340" cy="1039" r="5"/><circle cx="1382" cy="1021" r="6"/><circle cx="1443" cy="998" r="4"/><circle cx="1526" cy="1006" r="5"/><circle cx="1646" cy="1033" r="6"/><circle cx="1714" cy="968" r="5"/><circle cx="1792" cy="988" r="5"/><circle cx="1907" cy="964" r="5"/><circle cx="1949" cy="1037" r="5"/><circle cx="2066" cy="1025" r="6"/><circle cx="2110" cy="1001" r="6"/><circle cx="2230" cy="1008" r="5"/><circle cx="2249" cy="966" r="6"/><circle cx="2359" cy="1004" r="4"/><circle cx="2448" cy="977" r="5"/><circle cx="2498" cy="999" r="6"/><circle cx="44" cy="1050" r="5"/><circle cx="134" cy="1058" r="5"/><circle cx="161" cy="1069" r="5"/><circle cx="256" cy="1113" r="4"/><circle cx="340" cy="1072" r="4"/><circle cx="456" cy="1077" r="4"/><circle cx="488" cy="1049" r="6"/><circle cx="561" cy="1065" r="5"/><circle cx="657" cy="1097" r="5"/><circle cx="730" cy="1110" r="5"/><circle cx="841" cy="1084" r="5"/><circle cx="955" cy="1112" r="5"/><circle cx="1016" cy="1096" r="5"/><circle cx="1089" cy="1084" r="4"/><circle cx="1136" cy="1052" r="5"/><circle cx="1231" cy="1041" r="4"/><circle cx="1315" cy="1114" r="5"/><circle cx="1434" cy="1115" r="5"/><circle cx="1502" cy="1100" r="6"/><circle cx="1597" cy="1102" r="6"/><circle cx="1601" cy="1070" r="6"/><circle cx="1688" cy="1048" r="5"/><circle cx="1826" cy="1071" r="5"/><circle cx="1886" cy="1083" r="5"/><circle cx="1981" cy="1078" r="4"/><circle cx="2068" cy="1073" r="4"/><circle cx="2146" cy="1055" r="6"/><circle cx="2225" cy="1105" r="5"/><circle cx="2303" cy="1067" r="5"/><circle cx="2364" cy="1075" r="4"/><circle cx="2415" cy="1071" r="4"/><circle cx="2495" cy="1045" r="4"/><circle cx="33" cy="1151" r="4"/><circle cx="110" cy="1126" r="4"/><circle cx="240" cy="1164" r="5"/><circle cx="255" cy="1188" r="5"/><circle cx="381" cy="1134" r="5"/><circle cx="449" cy="1161" r="4"/><circle cx="490" cy="1162" r="5"/><circle cx="593" cy="1147" r="5"/><circle cx="660" cy="1159" r="4"/><circle cx="795" cy="1190" r="5"/><circle cx="839" cy="1127" r="6"/><circle cx="931" cy="1145" r="4"/><circle cx="1007" cy="1139" r="6"/><circle cx="1101" cy="1191" r="4"/><circle cx="1178" cy="1160" r="6"/><circle cx="1262" cy="1174" r="6"/><circle cx="1342" cy="1146" r="6"/><circle cx="1418" cy="1134" r="4"/><circle cx="1496" cy="1192" r="5"/><circle cx="1594" cy="1184" r="5"/><circle cx="1641" cy="1137" r="6"/><circle cx="1687" cy="1198" r="5"/><circle cx="1808" cy="1197" r="6"/><circle cx="1852" cy="1149" r="6"/><circle cx="1975" cy="1143" r="4"/><circle cx="2018" cy="1184" r="5"/><circle cx="2130" cy="1144" r="6"/><circle cx="2186" cy="1184" r="4"/><circle cx="2281" cy="1186" r="5"/><circle cx="2376" cy="1184" r="6"/><circle cx="2405" cy="1174" r="6"/><circle cx="2516" cy="1161" r="6"/><circle cx="76" cy="1257" r="4"/><circle cx="147" cy="1266" r="6"/><circle cx="163" cy="1230" r="5"/><circle cx="308" cy="1276" r="4"/><circle cx="384" cy="1254" r="5"/><circle cx="456" cy="1265" r="5"/><circle cx="540" cy="1279" r="6"/><circle cx="586" cy="1228" r="5"/><circle cx="660" cy="1224" r="5"/><circle cx="721" cy="1262" r="6"/><circle cx="805" cy="1222" r="4"/><circle cx="914" cy="1211" r="6"/><circle cx="999" cy="1277" r="6"/><circle cx="1050" cy="1202" r="5"/><circle cx="1120" cy="1258" r="6"/><circle cx="1208" cy="1238" r="4"/><circle cx="1281" cy="1247" r="4"/><circle cx="1364" cy="1239" r="4"/><circle cx="1459" cy="1217" r="5"/><circle cx="1577" cy="1208" r="5"/><circle cx="1655" cy="1220" r="4"/><circle cx="1758" cy="1212" r="5"/><circle cx="1798" cy="1268" r="4"/><circle cx="1897" cy="1275" r="4"/><circle cx="1994" cy="1255" r="5"/><circle cx="2050" cy="1279" r="6"/><circle cx="2105" cy="1221" r="5"/><circle cx="2186" cy="1231" r="6"/><circle cx="2257" cy="1266" r="5"/><circle cx="2321" cy="1211" r="4"/><circle cx="2410" cy="1238" r="5"/><circle cx="2505" cy="1249" r="6"/><circle cx="49" cy="1291" r="5"/><circle cx="153" cy="1316" r="6"/><circle cx="176" cy="1327" r="5"/><circle cx="273" cy="1311" r="5"/><circle cx="349" cy="1302" r="5"/><circle cx="456" cy="1282" r="6"/><circle cx="510" cy="1292" r="5"/><circle cx="599" cy="1317" r="4"/><circle cx="711" cy="1299" r="6"/><circle cx="723" cy="1332" r="5"/><circle cx="813" cy="1299" r="5"/><circle cx="905" cy="1325" r="5"/><circle cx="1002" cy="1281" r="5"/><circle cx="1087" cy="1321" r="6"/><circle cx="1188" cy="1318" r="5"/><circle cx="1208" cy="1286" r="4"/><circle cx="1340" cy="1333" r="5"/><circle cx="1375" cy="1284" r="5"/><circle cx="1444" cy="1340" r="4"/><circle cx="1594" cy="1305" r="6"/><circle cx="1631" cy="1318" r="5"/><circle cx="1700" cy="1319" r="4"/><circle cx="1787" cy="1314" r="5"/><circle cx="1841" cy="1319" r="5"/><circle cx="1989" cy="1325" r="4"/><circle cx="2016" cy="1284" r="5"/><circle cx="2158" cy="1358" r="5"/><circle cx="2228" cy="1337" r="6"/><circle cx="2269" cy="1337" r="5"/><circle cx="2391" cy="1311" r="4"/><circle cx="2407" cy="1303" r="5"/><circle cx="2558" cy="1309" r="5"/><circle cx="-2" cy="1309" r="5"/><circle cx="41" cy="1431" r="4"/><circle cx="131" cy="1425" r="4"/><circle cx="221" cy="1386" r="4"/><circle cx="263" cy="1419" r="5"/><circle cx="391" cy="1425" r="5"/><circle cx="469" cy="1391" r="5"/><circle cx="552" cy="1365" r="6"/><circle cx="608" cy="1431" r="5"/><circle cx="660" cy="1365" r="5"/><circle cx="769" cy="1386" r="5"/><circle cx="870" cy="1402" r="5"/><circle cx="933" cy="1378" r="5"/><circle cx="962" cy="1438" r="4"/><circle cx="962" cy="-2" r="4"/><circle cx="1053" cy="1369" r="5"/><circle cx="1171" cy="1413" r="6"/><circle cx="1266" cy="1439" r="6"/><circle cx="1266" cy="-1" r="6"/><circle cx="1305" cy="1376" r="4"/><circle cx="1429" cy="1368" r="6"/><circle cx="1456" cy="1398" r="5"/><circle cx="1545" cy="1405" r="4"/><circle cx="1621" cy="1415" r="6"/><circle cx="1743" cy="1388" r="5"/><circle cx="1798" cy="1429" r="5"/><circle cx="1862" cy="1435" r="5"/><circle cx="1988" cy="1423" r="6"/><circle cx="2015" cy="1432" r="4"/><circle cx="2134" cy="1410" r="6"/><circle cx="2192" cy="1423" r="5"/><circle cx="2249" cy="1389" r="6"/><circle cx="2362" cy="1406" r="5"/><circle cx="2401" cy="1368" r="6"/><circle cx="2492" cy="1420" r="5"/><path stroke="#fff" d="M20 79L-45 46M20 79L50 114M20 79L41 -9M2580 79L2515 46M20 1519L41 1431M127 11L203 33M127 11L142 89M127 11L41 -9M127 11L131 -15M127 1451L41 1431M127 1451L131 1425M203 33L262 48M203 33L142 89M203 33L131 -15M203 33L263 -21M203 1473L131 1425M203 1473L263 1419M262 48L379 58M262 48L252 172M262 48L263 -21M262 1488L263 1419M379 58L416 13M379 58L372 96M379 58L409 85M379 58L391 -15M379 1498L391 1425M416 13L372 96M416 13L409 85M416 13L391 -15M416 13L469 -49M416 1453L391 1425M416 1453L469 1391M527 46L581 31M527 46L525 84M527 46L602 106M527 46L608 -9M527 1486L608 1431M581 31L525 84M581 31L602 106M581 31L608 -9M581 1471L608 1431M684 3L732 19M684 3L700 80M684 3L733 91M684 3L608 -9M684 3L660 -75M684 1443L608 1431M684 1443L660 1365M732 19L700 80M732 19L733 91M732 19L769 -54M732 1459L769 1386M852 10L905 46M852 10L855 96M852 10L769 -54M852 10L870 -38M852 10L933 -62M852 1450L769 1386M852 1450L870 1402M852 1450L933 1378M905 46L961 55M905 46L855 96M905 46L956 111M905 46L962 -2M905 1486L962 1438M961 55L1074 61M961 55L956 111M961 55L990 153M961 55L962 -2M961 1495L962 1438M1074 61L1130 35M1074 61L1045 136M1074 61L1132 133M1130 35L1223 11M1130 35L1132 133M1130 35L1171 -27M1130 1475L1171 1413M1223 11L1171 -27M1223 11L1266 -1M1223 11L1305 -64M1223 1451L1171 1413M1223 1451L1266 1439M1223 1451L1305 1376M1355 64L1381 55M1355 64L1336 154M1355 64L1367 91M1355 64L1452 122M1355 64L1266 -1M1355 1504L1266 1439M1381 55L1494 49M1381 55L1367 91M1381 55L1452 122M1494 49L1528 53M1494 49L1452 122M1494 49L1571 107M1494 49L1456 -42M1494 1489L1456 1398M1528 53L1571 107M1528 53L1545 -35M1528 53L1621 -25M1528 1493L1545 1405M1528 1493L1621 1415M1663 56L1737 78M1663 56L1668 117M1663 56L1621 -25M1663 1496L1621 1415M1737 78L1809 40M1737 78L1668 117M1737 78L1743 139M1737 78L1795 125M1809 40L1901 37M1809 40L1795 125M1809 40L1798 -11M1809 40L1862 -5M1809 1480L1798 1429M1809 1480L1862 1435M1901 37L1956 72M1901 37L1906 107M1901 37L1862 -5M1901 37L1988 -17M1901 1477L1862 1435M1901 1477L1988 1423M1956 72L2010 5M1956 72L1906 107M1956 72L1957 113M1956 72L1988 -17M1956 1512L1988 1423M2010 5L2081 14M2010 5L2046 94M2010 5L1988 -17M2010 5L2015 -8M2010 1445L1988 1423M2010 1445L2015 1432M2081 14L2046 94M2081 14L2015 -8M2081 14L2134 -30M2081 1454L2015 1432M2081 1454L2134 1410M2176 42L2263 43M2176 42L2230 82M2176 42L2134 -30M2176 42L2192 -17M2176 1482L2134 1410M2176 1482L2192 1423M2263 43L2230 82M2263 43L2313 86M2263 43L2249 -51M2263 1483L2249 1389M2359 48L2466 77M2359 48L2313 86M2359 48L2341 109M2359 48L2419 101M2359 48L2362 -34M2359 1488L2362 1406M2466 77L2515 46M2466 77L2419 101M2466 77L2495 147M2466 77L2492 -20M2466 1517L2492 1420M2515 46L2419 101M2515 46L2495 147M2515 46L2492 -20M2515 1486L2492 1420M50 114L142 89M50 114L82 203M50 114L-20 199M2610 114L2540 199M142 89L183 157M142 89L222 160M183 157L222 160M183 157L252 172M304 154L372 96M304 154L222 160M304 154L252 172M304 154L375 188M372 96L409 85M372 96L375 188M409 85L391 -15M409 1525L391 1425M525 84L602 106M525 84L522 198M602 106L700 80M700 80L733 91M700 80L774 168M733 91L855 96M733 91L774 168M855 96L956 111M855 96L886 193M956 111L990 153M956 111L961 193M990 153L1045 136M990 153L886 193M990 153L961 193M1045 136L1132 133M1045 136L1063 235M1132 133L1230 165M1274 150L1336 154M1274 150L1367 91M1274 150L1230 165M1274 150L1302 198M1274 150L1390 210M1336 154L1367 91M1336 154L1302 198M1336 154L1390 210M1367 91L1452 122M1452 122L1466 182M1571 107L1668 117M1571 107L1623 202M1668 117L1743 139M1668 117L1623 202M1743 139L1795 125M1743 139L1740 193M1743 139L1763 160M1795 125L1740 193M1795 125L1763 160M1906 107L1957 113M1906 107L1898 179M1906 107L1964 191M1957 113L2046 94M1957 113L1898 179M1957 113L1964 191M2046 94L2087 142M2046 94L2015 -8M2046 1534L2015 1432M2087 142L2076 209M2087 142L2092 200M2230 82L2313 86M2230 82L2341 109M2313 86L2341 109M2341 109L2419 101M2341 109L2347 202M2419 101L2495 147M2495 147L2540 199M2495 147L2474 250M29 223L82 203M29 223L-20 199M29 223L49 303M29 223L81 258M2589 223L2540 199M82 203L-20 199M82 203L49 303M82 203L81 258M2642 203L2540 199M222 160L252 172M252 172L284 270M375 188L475 196M375 188L345 277M475 196L522 198M475 196L474 279M522 198L629 236M522 198L474 279M629 236L671 240M629 236L629 265M629 236L653 265M629 236L582 323M671 240L629 265M671 240L653 265M671 240L697 332M869 227L886 193M869 227L961 193M869 227L817 312M869 227L969 273M886 193L961 193M961 193L969 273M1063 235L1147 236M1063 235L1100 277M1063 235L1101 353M1147 236L1230 165M1147 236L1100 277M1147 236L1193 289M1147 236L1201 315M1230 165L1302 198M1302 198L1390 210M1302 198L1372 253M1390 210L1466 182M1390 210L1372 253M1466 182L1570 213M1466 182L1372 253M1466 182L1507 258M1570 213L1623 202M1570 213L1507 258M1570 213L1554 280M1570 213L1602 296M1623 202L1554 280M1623 202L1602 296M1740 193L1763 160M1740 193L1721 252M1740 193L1821 253M1763 160L1721 252M1898 179L1964 191M1898 179L1821 253M1964 191L1995 240M1964 191L2042 261M2076 209L2092 200M2076 209L1995 240M2076 209L2042 261M2076 209L2168 255M2092 200L1995 240M2092 200L2042 261M2092 200L2168 255M2229 227L2258 219M2229 227L2154 318M2229 227L2168 255M2229 227L2267 314M2258 219L2347 202M2258 219L2168 255M2258 219L2326 282M2347 202L2418 237M2347 202L2326 282M2418 237L2474 250M2418 237L2489 314M2540 199L2474 250M49 303L81 258M49 303L31 350M49 303L75 411M81 258L198 287M81 258L31 350M198 287L284 270M198 287L211 389M198 287L249 382M284 270L345 277M345 277L362 356M474 279L494 307M474 279L453 336M474 279L542 339M494 307L453 336M494 307L542 339M494 307L582 323M494 307L480 410M629 265L653 265M629 265L582 323M629 265L697 332M653 265L582 323M653 265L697 332M782 302L817 312M782 302L697 332M782 302L795 364M817 312L795 364M817 312L877 339M817 312L886 376M960 300L969 273M960 300L964 336M969 273L964 336M1100 277L1193 289M1100 277L1101 353M1100 277L1193 337M1193 289L1201 315M1193 289L1193 337M1193 289L1251 382M1201 315L1306 313M1201 315L1193 337M1201 315L1251 382M1306 313L1372 253M1306 313L1251 382M1306 313L1310 364M1306 313L1373 356M1372 253L1373 356M1507 258L1554 280M1507 258L1462 345M1507 258L1541 338M1554 280L1602 296M1554 280L1541 338M1602 296L1541 338M1602 296L1658 320M1721 252L1821 253M1721 252L1658 320M1721 252L1731 349M1821 253L1866 298M1821 253L1907 328M1866 298L1779 360M1866 298L1907 328M1995 240L2042 261M2154 318L2168 255M2154 318L2127 359M2154 318L2211 372M2267 314L2326 282M2267 314L2211 372M2267 314L2265 356M2267 314L2335 353M2326 282L2265 356M2326 282L2335 353M2474 250L2489 314M2474 250L2452 352M2489 314L2591 350M2489 314L2452 352M2489 314L2482 368M-71 314L31 350M31 350L125 395M31 350L75 411M125 395L211 389M125 395L75 411M125 395L101 455M211 389L249 382M211 389L220 465M211 389L269 407M249 382L220 465M249 382L269 407M362 356L453 336M362 356L269 407M362 356L389 406M362 356L433 429M453 336L542 339M453 336L480 410M542 339L582 323M542 339L480 410M795 364L877 339M795 364L867 410M877 339L886 376M877 339L964 336M877 339L867 410M886 376L964 336M886 376L867 410M886 376L902 450M1101 353L1193 337M1101 353L1042 449M1193 337L1251 382M1251 382L1310 364M1310 364L1373 356M1373 356L1462 345M1373 356L1374 478M1462 345L1541 338M1462 345L1504 431M1541 338L1578 418M1658 320L1731 349M1731 349L1779 360M1731 349L1660 434M1731 349L1795 418M1779 360L1795 418M1907 328L1949 382M1907 328L1918 432M1949 382L2054 385M1949 382L1918 432M1949 382L1956 455M2054 385L2127 359M2054 385L2029 462M2127 359L2154 435M2127 359L2171 429M2211 372L2265 356M2211 372L2154 435M2211 372L2171 429M2265 356L2335 353M2265 356L2326 444M2335 353L2326 444M2452 352L2482 368M2452 352L2485 451M2482 368L2461 471M2482 368L2485 451M75 411L101 455M75 411L27 491M101 455L27 491M101 455L134 551M101 455L-11 495M2661 455L2549 495M220 465L269 407M220 465L237 524M269 407L389 406M389 406L433 429M389 406L480 410M433 429L480 410M433 429L446 531M613 478L700 429M613 478L525 504M613 478L614 517M613 478L699 490M613 478L599 595M700 429L699 490M799 460L867 410M799 460L902 450M799 460L739 538M799 460L836 526M799 460L777 566M867 410L902 450M902 450L1003 462M902 450L836 526M1003 462L1042 449M1003 462L947 559M1003 462L974 542M1003 462L1068 532M1042 449L1068 532M1173 472L1222 477M1173 472L1161 534M1173 472L1260 511M1173 472L1118 571M1222 477L1161 534M1222 477L1260 511M1222 477L1295 577M1345 478L1374 478M1345 478L1260 511M1345 478L1346 491M1345 478L1390 495M1374 478L1346 491M1374 478L1390 495M1504 431L1578 418M1504 431L1498 504M1504 431L1546 512M1578 418L1660 434M1578 418L1546 512M1578 418L1604 491M1660 434L1701 473M1660 434L1604 491M1660 434L1722 487M1701 473L1722 487M1701 473L1769 511M1795 418L1722 487M1795 418L1769 511M1795 418L1853 505M1918 432L1956 455M1918 432L2029 462M1918 432L1853 505M1956 455L2029 462M1956 455L1853 505M1956 455L1986 540M2029 462L1986 540M2029 462L2050 493M2154 435L2171 429M2154 435L2254 469M2154 435L2215 509M2171 429L2254 469M2171 429L2215 509M2254 469L2326 444M2254 469L2215 509M2254 469L2255 531M2326 444L2338 535M2461 471L2485 451M2461 471L2441 527M2461 471L2549 495M2461 471L2484 577M2485 451L2441 527M2485 451L2549 495M27 491L134 551M27 491L-11 495M2587 491L2549 495M134 551L60 618M134 551L84 618M134 551L189 578M237 524L313 540M237 524L325 531M237 524L189 578M237 524L267 562M313 540L325 531M313 540L267 562M313 540L370 571M325 531L267 562M325 531L370 571M446 531L525 504M446 531L370 571M446 531L427 608M446 531L437 640M525 504L614 517M525 504L550 602M525 504L599 595M614 517L699 490M614 517L550 602M614 517L599 595M699 490L739 538M739 538L777 566M739 538L736 641M836 526L777 566M836 526L852 608M836 526L901 574M947 559L974 542M947 559L901 574M947 559L963 627M974 542L1068 532M974 542L901 574M974 542L963 627M1068 532L1161 534M1068 532L1118 571M1161 534L1118 571M1161 534L1159 616M1260 511L1346 491M1260 511L1295 577M1346 491L1390 495M1346 491L1366 583M1390 495L1498 504M1390 495L1366 583M1498 504L1546 512M1498 504L1604 491M1498 504L1562 571M1546 512L1604 491M1546 512L1562 571M1604 491L1562 571M1722 487L1769 511M1769 511L1853 505M1769 511L1865 561M1853 505L1865 561M1986 540L2050 493M1986 540L1974 576M1986 540L2022 613M2050 493L2107 576M2141 554L2215 509M2141 554L2107 576M2141 554L2171 630M2141 554L2197 646M2215 509L2255 531M2255 531L2338 535M2255 531L2290 614M2255 531L2342 562M2338 535L2441 527M2338 535L2290 614M2338 535L2342 562M2441 527L2435 597M2441 527L2484 577M2549 495L2484 577M60 618L84 618M60 618L11 705M60 618L91 688M60 618L-11 690M2620 618L2549 690M84 618L91 688M189 578L267 562M189 578L203 705M189 578L261 655M267 562L261 655M370 571L427 608M370 571L370 658M427 608L370 658M427 608L437 640M550 602L599 595M550 602L509 684M599 595L665 633M665 633L591 714M665 633L710 682M665 633L736 641M777 566L852 608M777 566L736 641M852 608L901 574M852 608L736 641M852 608L875 651M901 574L875 651M963 627L875 651M963 627L953 714M963 627L972 685M1118 571L1159 616M1118 571L1113 661M1159 616L1217 610M1159 616L1113 661M1159 616L1175 671M1217 610L1295 577M1217 610L1175 671M1217 610L1225 716M1217 610L1317 647M1295 577L1366 583M1295 577L1317 647M1366 583L1317 647M1366 583L1385 662M1465 625L1562 571M1465 625L1385 662M1465 625L1457 677M1562 571L1667 619M1667 619L1719 617M1667 619L1688 687M1719 617L1810 622M1719 617L1688 687M1719 617L1796 694M1810 622L1865 561M1810 622L1796 694M1810 622L1856 684M1865 561L1974 576M1865 561L1856 684M1974 576L2022 613M1974 576L1961 663M2022 613L2107 576M2022 613L1961 663M2022 613L2036 659M2107 576L2171 630M2171 630L2092 683M2171 630L2197 646M2171 630L2241 694M2290 614L2342 562M2290 614L2241 694M2290 614L2353 659M2342 562L2435 597M2342 562L2353 659M2435 597L2484 577M2435 597L2353 659M2435 597L2456 657M2484 577L2456 657M11 705L91 688M11 705L-11 690M11 705L65 745M11 705L-15 733M2571 705L2549 690M2571 705L2545 733M91 688L65 745M91 688L152 720M203 705L261 655M203 705L152 720M203 705L183 725M203 705L308 738M261 655L308 738M370 658L437 640M370 658L356 734M370 658L448 723M437 640L509 684M437 640L448 723M509 684L591 714M509 684L448 723M509 684L498 784M591 714L619 742M591 714L656 754M710 682L736 641M710 682L619 742M710 682L656 754M710 682L748 773M875 651L953 714M875 651L972 685M953 714L972 685M953 714L907 790M953 714L1000 784M972 685L1053 727M1113 661L1175 671M1113 661L1053 727M1175 671L1225 716M1225 716L1173 784M1225 716L1200 789M1317 647L1385 662M1317 647L1341 730M1385 662L1457 677M1385 662L1341 730M1457 677L1547 716M1457 677L1369 760M1457 677L1511 776M1547 716L1619 711M1547 716L1511 776M1547 716L1587 726M1619 711L1688 687M1619 711L1587 726M1619 711L1670 766M1688 687L1670 766M1688 687L1721 766M1796 694L1856 684M1796 694L1786 761M1856 684L1786 761M1961 663L2036 659M2036 659L2092 683M2036 659L2065 725M2036 659L2089 736M2092 683L2065 725M2092 683L2089 736M2197 646L2241 694M2197 646L2195 752M2197 646L2241 739M2241 694L2195 752M2241 694L2241 739M2353 659L2456 657M2353 659L2341 766M2456 657L2549 690M2549 690L2545 733M65 745L152 720M65 745L-15 733M65 745L109 811M2625 745L2545 733M152 720L183 725M152 720L109 811M183 725L109 811M308 738L356 734M308 738L314 802M356 734L448 723M356 734L314 802M448 723L498 784M498 784L444 865M498 784L536 803M619 742L656 754M619 742L639 805M619 742L680 816M656 754L639 805M656 754L680 816M748 773L807 746M748 773L680 816M748 773L728 833M748 773L823 821M807 746L823 821M907 790L1000 784M907 790L823 821M907 790L916 819M1000 784L1053 727M1000 784L916 819M1000 784L969 871M1053 727L1087 853M1173 784L1200 789M1173 784L1087 853M1173 784L1159 836M1173 784L1220 833M1200 789L1159 836M1200 789L1220 833M1200 789L1280 862M1341 730L1369 760M1369 760L1407 870M1369 760L1466 820M1511 776L1587 726M1511 776L1466 820M1511 776L1568 838M1587 726L1568 838M1670 766L1721 766M1670 766L1662 849M1670 766L1697 839M1721 766L1786 761M1721 766L1662 849M1721 766L1697 839M1786 761L1822 832M1907 798L1982 770M1907 798L1822 832M1907 798L1889 824M1907 798L1920 860M1982 770L2065 725M1982 770L1889 824M1982 770L2053 833M2065 725L2089 736M2065 725L2053 833M2195 752L2241 739M2241 739L2341 766M2241 739L2325 809M2341 766L2450 784M2341 766L2325 809M2450 784L2545 733M2450 784L2325 809M2450 784L2443 860M2450 784L2524 830M2545 733L2524 830M3 859L-36 830M3 859L75 885M3 859L-9 952M2563 859L2524 830M2563 859L2551 952M109 811L166 856M109 811L75 885M166 856L75 885M166 856L194 913M314 802L399 874M399 874L444 865M399 874L365 888M399 874L410 908M444 865L365 888M444 865L410 908M444 865L508 891M536 803L639 805M536 803L508 891M536 803L562 896M639 805L680 816M639 805L728 833M680 816L728 833M728 833L749 895M823 821L916 819M823 821L841 914M916 819L969 871M969 871L936 953M969 871L960 923M969 871L1003 966M1087 853L1159 836M1087 853L1084 886M1087 853L1145 907M1159 836L1220 833M1159 836L1145 907M1220 833L1280 862M1280 862L1259 948M1280 862L1334 947M1280 862L1226 962M1407 870L1466 820M1407 870L1430 937M1407 870L1483 938M1466 820L1568 838M1466 820L1544 896M1568 838L1662 849M1568 838L1544 896M1662 849L1697 839M1697 839L1755 898M1822 832L1889 824M1822 832L1755 898M1822 832L1837 939M1889 824L1920 860M1889 824L1961 906M1920 860L1893 934M1920 860L1961 906M1920 860L1907 964M2053 833L2149 860M2053 833L2057 938M2149 860L2208 876M2149 860L2157 887M2208 876L2258 847M2208 876L2157 887M2208 876L2218 939M2208 876L2249 966M2258 847L2325 809M2258 847L2293 933M2258 847L2329 913M2325 809L2329 913M2443 860L2524 830M2443 860L2457 913M2524 830L2457 913M75 885L102 946M102 946L194 913M102 946L-9 952M102 946L119 993M2662 946L2551 952M194 913L275 933M194 913L119 993M194 913L223 971M275 933L365 888M275 933L223 971M275 933L282 1009M275 933L362 976M365 888L410 908M365 888L362 976M410 908L508 891M410 908L362 976M508 891L562 896M508 891L526 979M562 896L695 943M562 896L526 979M562 896L643 987M695 943L749 895M695 943L616 1019M695 943L643 987M695 943L797 995M749 895L841 914M749 895L797 995M841 914L936 953M841 914L797 995M841 914L931 973M936 953L960 923M936 953L931 973M936 953L1003 966M960 923L1084 886M960 923L931 973M960 923L1003 966M1084 886L1145 907M1145 907L1226 962M1259 948L1334 947M1259 948L1226 962M1259 948L1231 1041M1334 947L1430 937M1334 947L1340 1039M1334 947L1382 1021M1430 937L1483 938M1430 937L1382 1021M1430 937L1443 998M1483 938L1544 896M1483 938L1443 998M1483 938L1526 1006M1660 951L1646 1033M1660 951L1714 968M1660 951L1688 1048M1755 898L1837 939M1755 898L1714 968M1755 898L1792 988M1837 939L1893 934M1837 939L1792 988M1837 939L1907 964M1893 934L1961 906M1893 934L1907 964M1961 906L2057 938M1961 906L1907 964M2057 938L2066 1025M2057 938L2110 1001M2157 887L2218 939M2218 939L2293 933M2218 939L2230 1008M2218 939L2249 966M2293 933L2329 913M2293 933L2249 966M2329 913L2249 966M2329 913L2359 1004M2457 913L2448 977M2457 913L2498 999M2551 952L2592 1038M2551 952L2498 999M-9 952L32 1038M32 1038L-62 999M32 1038L44 1050M32 1038L134 1058M32 1038L-65 1045M2592 1038L2498 999M2592 1038L2495 1045M119 993L44 1050M119 993L134 1058M119 993L161 1069M223 971L282 1009M282 1009L362 976M282 1009L256 1113M282 1009L340 1072M362 976L430 1021M430 1021L340 1072M430 1021L456 1077M430 1021L488 1049M526 979L616 1019M526 979L488 1049M526 979L561 1065M616 1019L643 987M616 1019L561 1065M616 1019L657 1097M797 995L850 1022M797 995L841 1084M850 1022L931 973M850 1022L841 1084M931 973L1003 966M1003 966L1057 1032M1057 1032L1163 1016M1057 1032L1016 1096M1057 1032L1089 1084M1057 1032L1136 1052M1163 1016L1226 962M1163 1016L1089 1084M1163 1016L1136 1052M1163 1016L1231 1041M1226 962L1231 1041M1340 1039L1382 1021M1340 1039L1315 1114M1382 1021L1443 998M1382 1021L1434 1115M1443 998L1526 1006M1526 1006L1502 1100M1646 1033L1714 968M1646 1033L1597 1102M1646 1033L1601 1070M1646 1033L1688 1048M1714 968L1792 988M1714 968L1688 1048M1792 988L1826 1071M1907 964L1949 1037M1949 1037L1886 1083M1949 1037L1981 1078M2066 1025L2110 1001M2066 1025L1981 1078M2066 1025L2068 1073M2066 1025L2146 1055M2110 1001L2068 1073M2110 1001L2146 1055M2230 1008L2249 966M2230 1008L2303 1067M2359 1004L2448 977M2359 1004L2303 1067M2359 1004L2364 1075M2359 1004L2415 1071M2448 977L2498 999M2448 977L2415 1071M2448 977L2495 1045M2498 999L2495 1045M44 1050L134 1058M44 1050L33 1151M44 1050L110 1126M134 1058L161 1069M134 1058L110 1126M161 1069L256 1113M161 1069L110 1126M161 1069L240 1164M256 1113L340 1072M256 1113L240 1164M256 1113L255 1188M340 1072L381 1134M456 1077L488 1049M456 1077L381 1134M456 1077L449 1161M456 1077L490 1162M488 1049L561 1065M488 1049L490 1162M561 1065L657 1097M561 1065L593 1147M657 1097L730 1110M657 1097L593 1147M657 1097L660 1159M730 1110L841 1084M730 1110L660 1159M730 1110L795 1190M730 1110L839 1127M841 1084L839 1127M955 1112L1016 1096M955 1112L931 1145M955 1112L1007 1139M955 1112L914 1211M1016 1096L1089 1084M1016 1096L931 1145M1016 1096L1007 1139M1089 1084L1136 1052M1089 1084L1007 1139M1136 1052L1231 1041M1136 1052L1178 1160M1315 1114L1262 1174M1315 1114L1342 1146M1315 1114L1418 1134M1434 1115L1502 1100M1434 1115L1342 1146M1434 1115L1418 1134M1434 1115L1496 1192M1502 1100L1597 1102M1502 1100L1601 1070M1502 1100L1496 1192M1597 1102L1601 1070M1597 1102L1594 1184M1597 1102L1641 1137M1601 1070L1688 1048M1601 1070L1641 1137M1826 1071L1886 1083M1826 1071L1852 1149M1886 1083L1981 1078M1886 1083L1852 1149M1886 1083L1975 1143M1981 1078L2068 1073M1981 1078L1975 1143M2068 1073L2146 1055M2146 1055L2225 1105M2146 1055L2130 1144M2225 1105L2303 1067M2225 1105L2130 1144M2225 1105L2186 1184M2225 1105L2281 1186M2303 1067L2364 1075M2364 1075L2415 1071M2364 1075L2376 1184M2415 1071L2495 1045M2415 1071L2405 1174M2495 1045L2516 1161M33 1151L110 1126M33 1151L-44 1161M2593 1151L2516 1161M240 1164L255 1188M240 1164L163 1230M255 1188L308 1276M381 1134L449 1161M381 1134L384 1254M449 1161L490 1162M593 1147L660 1159M593 1147L586 1228M593 1147L660 1224M660 1159L660 1224M795 1190L839 1127M795 1190L805 1222M839 1127L931 1145M839 1127L914 1211M931 1145L1007 1139M931 1145L914 1211M1007 1139L1050 1202M1101 1191L1178 1160M1101 1191L1050 1202M1101 1191L1120 1258M1178 1160L1262 1174M1178 1160L1208 1238M1262 1174L1342 1146M1262 1174L1208 1238M1262 1174L1281 1247M1342 1146L1418 1134M1342 1146L1364 1239M1418 1134L1459 1217M1496 1192L1459 1217M1496 1192L1577 1208M1594 1184L1641 1137M1594 1184L1687 1198M1594 1184L1577 1208M1594 1184L1655 1220M1641 1137L1687 1198M1641 1137L1655 1220M1687 1198L1577 1208M1687 1198L1655 1220M1687 1198L1758 1212M1808 1197L1852 1149M1808 1197L1758 1212M1808 1197L1798 1268M1808 1197L1897 1275M1852 1149L1975 1143M1852 1149L1758 1212M1975 1143L2018 1184M2018 1184L1994 1255M2018 1184L2050 1279M2018 1184L2105 1221M2018 1184L2016 1284M2130 1144L2186 1184M2130 1144L2105 1221M2130 1144L2186 1231M2186 1184L2105 1221M2186 1184L2186 1231M2281 1186L2376 1184M2281 1186L2186 1231M2281 1186L2257 1266M2281 1186L2321 1211M2376 1184L2405 1174M2376 1184L2321 1211M2376 1184L2410 1238M2405 1174L2516 1161M2405 1174L2321 1211M2405 1174L2410 1238M2516 1161L2505 1249M76 1257L147 1266M76 1257L163 1230M76 1257L49 1291M76 1257L-2 1309M2636 1257L2558 1309M147 1266L163 1230M147 1266L49 1291M147 1266L153 1316M147 1266L176 1327M163 1230L153 1316M163 1230L176 1327M308 1276L384 1254M308 1276L273 1311M308 1276L349 1302M384 1254L456 1265M384 1254L349 1302M384 1254L456 1282M456 1265L349 1302M456 1265L456 1282M456 1265L510 1292M540 1279L586 1228M540 1279L456 1282M540 1279L510 1292M540 1279L599 1317M540 1279L552 1365M586 1228L660 1224M586 1228L599 1317M660 1224L721 1262M660 1224L711 1299M721 1262L805 1222M721 1262L711 1299M721 1262L723 1332M721 1262L813 1299M805 1222L813 1299M914 1211L999 1277M914 1211L1002 1281M999 1277L1050 1202M999 1277L1002 1281M999 1277L1087 1321M999 1277L1053 1369M1050 1202L1120 1258M1050 1202L1002 1281M1120 1258L1087 1321M1120 1258L1188 1318M1208 1238L1281 1247M1208 1238L1188 1318M1208 1238L1208 1286M1281 1247L1364 1239M1281 1247L1208 1286M1364 1239L1459 1217M1364 1239L1340 1333M1364 1239L1375 1284M1459 1217L1375 1284M1577 1208L1655 1220M1577 1208L1594 1305M1655 1220L1594 1305M1758 1212L1798 1268M1758 1212L1787 1314M1798 1268L1897 1275M1798 1268L1787 1314M1798 1268L1841 1319M1897 1275L1994 1255M1897 1275L1841 1319M1897 1275L1989 1325M1994 1255L2050 1279M1994 1255L1989 1325M1994 1255L2016 1284M2050 1279L2105 1221M2050 1279L1989 1325M2050 1279L2016 1284M2105 1221L2186 1231M2186 1231L2257 1266M2257 1266L2321 1211M2257 1266L2228 1337M2257 1266L2269 1337M2410 1238L2505 1249M2410 1238L2391 1311M2410 1238L2407 1303M2505 1249L2609 1291M2505 1249L2407 1303M2505 1249L2558 1309M-55 1249L49 1291M49 1291L153 1316M49 1291L-2 1309M2609 1291L2558 1309M153 1316L176 1327M153 1316L221 1386M176 1327L273 1311M176 1327L221 1386M273 1311L349 1302M273 1311L221 1386M273 1311L263 1419M349 1302L456 1282M456 1282L510 1292M510 1292L599 1317M510 1292L552 1365M599 1317L552 1365M599 1317L660 1365M711 1299L723 1332M711 1299L813 1299M711 1299L660 1365M723 1332L813 1299M723 1332L660 1365M723 1332L769 1386M813 1299L769 1386M905 1325L870 1402M905 1325L933 1378M1002 1281L1087 1321M1002 1281L1053 1369M1087 1321L1188 1318M1087 1321L1053 1369M1188 1318L1208 1286M1188 1318L1171 1413M1340 1333L1375 1284M1340 1333L1444 1340M1340 1333L1305 1376M1340 1333L1429 1368M1375 1284L1444 1340M1375 1284L1429 1368M1444 1340L1429 1368M1444 1340L1456 1398M1594 1305L1631 1318M1594 1305L1700 1319M1594 1305L1621 1415M1631 1318L1700 1319M1631 1318L1621 1415M1700 1319L1787 1314M1700 1319L1743 1388M1787 1314L1841 1319M1787 1314L1743 1388M1841 1319L1743 1388M1841 1319L1798 1429M1989 1325L2016 1284M1989 1325L1988 1423M2158 1358L2228 1337M2158 1358L2269 1337M2158 1358L2134 1410M2158 1358L2192 1423M2158 1358L2249 1389M2228 1337L2269 1337M2228 1337L2192 1423M2228 1337L2249 1389M2269 1337L2249 1389M2391 1311L2407 1303M2391 1311L2362 1406M2391 1311L2401 1368M2407 1303L2362 1406M2407 1303L2401 1368M2558 1309L2492 1420M41 1431L131 1425M41 1431L-68 1420M2601 1431L2492 1420M131 1425L221 1386M221 1386L263 1419M263 1419L391 1425M391 1425L469 1391M469 1391L552 1365M552 1365L608 1431M608 1431L660 1365M769 1386L870 1402M870 1402L933 1378M870 1402L962 1438M933 1378L962 1438M933 1378L1053 1369M1053 1369L1171 1413M1171 1413L1266 1439M1266 1439L1305 1376M1429 1368L1456 1398M1429 1368L1545 1405M1456 1398L1545 1405M1545 1405L1621 1415M1743 1388L1798 1429M1798 1429L1862 1435M1988 1423L2015 1432M2134 1410L2192 1423M2192 1423L2249 1389M2362 1406L2401 1368M2401 1368L2492 1420"/></svg>