<svg xmlns="http://www.w3.org/2000/svg" width="2560" height="1440" fill="#fff"><circle cx="56" cy="72" r="5"/><circle cx="108" cy="39" r="5"/><circle cx="189" cy="29" r="5"/><circle cx="313" cy="14" r="5"/><circle cx="334" cy="26" r="4"/><circle cx="406" cy="59" r="5"/><circle cx="507" cy="7" r="6"/><circle cx="627" cy="56" r="4"/><circle cx="686" cy="79" r="5"/><circle cx="760" cy="5" r="5"/><circle cx="760" cy="1445" r="5"/><circle cx="871" cy="66" r="4"/><circle cx="918" cy="79" r="5"/><circle cx="997" cy="77" r="5"/><circle cx="1090" cy="4" r="6"/><circle cx="1090" cy="1444" r="6"/><circle cx="1191" cy="38" r="5"/><circle cx="1260" cy="76" r="5"/><circle cx="1340" cy="4" r="4"/><circle cx="1340" cy="1444" r="4"/><circle cx="1375" cy="23" r="5"/><circle cx="1446" cy="54" r="6"/><circle cx="1530" cy="41" r="4"/><circle cx="1665" cy="29" r="5"/><circle cx="1731" cy="2" r="5"/><circle cx="1731" cy="1442" r="5"/><circle cx="1833" cy="32" r="5"/><circle cx="1899" cy="73" r="5"/><circle cx="1980" cy="51" r="6"/><circle cx="2063" cy="60" r="5"/><circle cx="2115" cy="55" r="5"/><circle cx="2167" cy="62" r="6"/><circle cx="2270" cy="44" r="5"/><circle cx="2390" cy="69" r="6"/><circle cx="2441" cy="22" r="4"/><circle cx="2524" cy="15" r="5"/><circle cx="63" cy="135" r="5"/><circle cx="117" cy="112" r="5"/><circle cx="220" cy="84" r="4"/><circle cx="296" cy="135" r="6"/><circle cx="337" cy="92" r="4"/><circle cx="455" cy="98" r="5"/><circle cx="481" cy="151" r="5"/><circle cx="592" cy="141" r="6"/><circle cx="654" cy="100" r="5"/><circle cx="741" cy="81" r="5"/><circle cx="876" cy="86" r="5"/><circle cx="959" cy="153" r="6"/><circle cx="986" cy="140" r="6"/><circle cx="1068" cy="147" r="6"/><circle cx="1178" cy="90" r="5"/><circle cx="1274" cy="133" r="4"/><circle cx="1304" cy="94" r="5"/><circle cx="1403" cy="88" r="5"/><circle cx="1514" cy="130" r="5"/><circle cx="1546" cy="91" r="5"/><circle cx="1669" cy="142" r="5"/><circle cx="1728" cy="103" r="5"/><circle cx="1797" cy="84" r="5"/><circle cx="1861" cy="122" r="4"/><circle cx="1957" cy="116" r="6"/><circle cx="2028" cy="128" r="6"/><circle cx="2082" cy="132" r="5"/><circle cx="2206" cy="126" r="4"/><circle cx="2249" cy="137" r="4"/><circle cx="2370" cy="117" r="5"/><circle cx="2436" cy="98" r="6"/><circle cx="2481" cy="115" r="5"/><circle cx="74" cy="166" r="5"/><circle cx="156" cy="165" r="5"/><circle cx="239" cy="228" r="4"/><circle cx="292" cy="231" r="4"/><circle cx="393" cy="204" r="4"/><circle cx="426" cy="235" r="4"/><circle cx="510" cy="196" r="5"/><circle cx="611" cy="209" r="4"/><circle cx="666" cy="187" r="5"/><circle cx="763" cy="190" r="4"/><circle cx="850" cy="202" r="5"/><circle cx="905" cy="172" r="5"/><circle cx="989" cy="168" r="5"/><circle cx="1054" cy="184" r="5"/><circle cx="1150" cy="233" r="6"/><circle cx="1262" cy="168" r="5"/><circle cx="1325" cy="226" r="6"/><circle cx="1397" cy="227" r="4"/><circle cx="1496" cy="163" r="4"/><circle cx="1597" cy="208" r="6"/><circle cx="1606" cy="223" r="4"/><circle cx="1731" cy="164" r="5"/><circle cx="1776" cy="222" r="4"/><circle cx="1873" cy="231" r="6"/><circle cx="1928" cy="160" r="4"/><circle cx="2029" cy="235" r="4"/><circle cx="2105" cy="161" r="4"/><circle cx="2182" cy="211" r="4"/><circle cx="2285" cy="165" r="5"/><circle cx="2371" cy="217" r="5"/><circle cx="2401" cy="164" r="6"/><circle cx="2532" cy="239" r="5"/><circle cx="75" cy="320" r="5"/><circle cx="159" cy="308" r="4"/><circle cx="194" cy="269" r="4"/><circle cx="262" cy="249" r="4"/><circle cx="385" cy="316" r="4"/><circle cx="450" cy="252" r="4"/><circle cx="500" cy="289" r="5"/><circle cx="627" cy="245" r="5"/><circle cx="657" cy="301" r="5"/><circle cx="784" cy="261" r="6"/><circle cx="836" cy="301" r="4"/><circle cx="934" cy="285" r="4"/><circle cx="993" cy="301" r="5"/><circle cx="1043" cy="313" r="5"/><circle cx="1159" cy="263" r="5"/><circle cx="1210" cy="243" r="6"/><circle cx="1298" cy="293" r="5"/><circle cx="1375" cy="293" r="6"/><circle cx="1501" cy="297" r="5"/><circle cx="1528" cy="305" r="4"/><circle cx="1662" cy="285" r="6"/><circle cx="1681" cy="311" r="5"/><circle cx="1827" cy="281" r="5"/><circle cx="1897" cy="271" r="5"/><circle cx="1963" cy="249" r="4"/><circle cx="2058" cy="254" r="6"/><circle cx="2142" cy="300" r="6"/><circle cx="2205" cy="313" r="5"/><circle cx="2302" cy="288" r="5"/><circle cx="2391" cy="298" r="5"/><circle cx="2418" cy="317" r="4"/><circle cx="2520" cy="284" r="5"/><circle cx="53" cy="380" r="4"/><circle cx="105" cy="351" r="4"/><circle cx="215" cy="372" r="5"/><circle cx="308" cy="331" r="6"/><circle cx="323" cy="354" r="5"/><circle cx="461" cy="321" r="5"/><circle cx="505" cy="361" r="6"/><circle cx="614" cy="329" r="6"/><circle cx="669" cy="375" r="4"/><circle cx="786" cy="374" r="5"/><circle cx="860" cy="360" r="4"/><circle cx="891" cy="392" r="6"/><circle cx="1029" cy="368" r="5"/><circle cx="1045" cy="337" r="5"/><circle cx="1150" cy="378" r="5"/><circle cx="1224" cy="341" r="6"/><circle cx="1305" cy="329" r="5"/><circle cx="1431" cy="338" r="5"/><circle cx="1467" cy="359" r="6"/><circle cx="1554" cy="354" r="6"/><circle cx="1626" cy="390" r="5"/><circle cx="1754" cy="325" r="6"/><circle cx="1834" cy="346" r="5"/><circle cx="1844" cy="378" r="4"/><circle cx="1990" cy="369" r="6"/><circle cx="2063" cy="327" r="6"/><circle cx="2139" cy="329" r="6"/><circle cx="2198" cy="351" r="5"/><circle cx="2244" cy="328" r="6"/><circle cx="2397" cy="369" r="5"/><circle cx="2465" cy="396" r="6"/><circle cx="2499" cy="327" r="5"/><circle cx="33" cy="468" r="6"/><circle cx="122" cy="438" r="4"/><circle cx="188" cy="421" r="4"/><circle cx="244" cy="454" r="4"/><circle cx="341" cy="469" r="5"/><circle cx="422" cy="408" r="4"/><circle cx="555" cy="459" r="6"/><circle cx="632" cy="465" r="4"/><circle cx="668" cy="430" r="4"/><circle cx="734" cy="478" r="6"/><circle cx="841" cy="413" r="6"/><circle cx="925" cy="416" r="5"/><circle cx="978" cy="452" r="5"/><circle cx="1088" cy="452" r="5"/><circle cx="1140" cy="413" r="6"/><circle cx="1280" cy="464" r="5"/><circle cx="1354" cy="457" r="6"/><circle cx="1388" cy="438" r="4"/><circle cx="1448" cy="477" r="4"/><circle cx="1567" cy="435" r="6"/><circle cx="1655" cy="413" r="5"/><circle cx="1735" cy="443" r="5"/><circle cx="1779" cy="438" r="6"/><circle cx="1867" cy="471" r="5"/><circle cx="1948" cy="450" r="6"/><circle cx="2041" cy="460" r="4"/><circle cx="2099" cy="467" r="4"/><circle cx="2167" cy="426" r="6"/><circle cx="2251" cy="414" r="4"/><circle cx="2377" cy="411" r="6"/><circle cx="2418" cy="402" r="4"/><circle cx="2547" cy="441" r="6"/><circle cx="32" cy="514" r="6"/><circle cx="154" cy="481" r="4"/><circle cx="240" cy="541" r="4"/><circle cx="252" cy="493" r="5"/><circle cx="365" cy="507" r="5"/><circle cx="459" cy="530" r="5"/><circle cx="491" cy="548" r="6"/><circle cx="574" cy="530" r="4"/><circle cx="677" cy="543" r="5"/><circle cx="747" cy="513" r="5"/><circle cx="806" cy="540" r="6"/><circle cx="949" cy="485" r="6"/><circle cx="1034" cy="522" r="5"/><circle cx="1076" cy="484" r="5"/><circle cx="1123" cy="510" r="5"/><circle cx="1205" cy="525" r="5"/><circle cx="1332" cy="548" r="4"/><circle cx="1376" cy="483" r="6"/><circle cx="1453" cy="521" r="6"/><circle cx="1554" cy="482" r="6"/><circle cx="1626" cy="521" r="5"/><circle cx="1704" cy="540" r="4"/><circle cx="1773" cy="514" r="4"/><circle cx="1895" cy="515" r="4"/><circle cx="1997" cy="521" r="4"/><circle cx="2070" cy="541" r="5"/><circle cx="2107" cy="523" r="4"/><circle cx="2193" cy="485" r="5"/><circle cx="2268" cy="504" r="5"/><circle cx="2334" cy="495" r="6"/><circle cx="2450" cy="494" r="4"/><circle cx="2507" cy="496" r="4"/><circle cx="58" cy="591" r="6"/><circle cx="116" cy="623" r="4"/><circle cx="175" cy="580" r="6"/><circle cx="307" cy="603" r="5"/><circle cx="374" cy="623" r="5"/><circle cx="478" cy="638" r="5"/><circle cx="503" cy="578" r="4"/><circle cx="611" cy="585" r="6"/><circle cx="688" cy="637" r="4"/><circle cx="766" cy="634" r="5"/><circle cx="854" cy="629" r="4"/><circle cx="912" cy="625" r="6"/><circle cx="1013" cy="580" r="6"/><circle cx="1087" cy="625" r="6"/><circle cx="1134" cy="605" r="6"/><circle cx="1253" cy="613" r="5"/><circle cx="1342" cy="576" r="4"/><circle cx="1365" cy="573" r="6"/><circle cx="1501" cy="627" r="6"/><circle cx="1573" cy="596" r="6"/><circle cx="1612" cy="578" r="5"/><circle cx="1698" cy="580" r="5"/><circle cx="1793" cy="584" r="4"/><circle cx="1912" cy="570" r="5"/><circle cx="1946" cy="600" r="5"/><circle cx="2048" cy="639" r="5"/><circle cx="2152" cy="618" r="5"/><circle cx="2197" cy="604" r="4"/><circle cx="2277" cy="637" r="5"/><circle cx="2380" cy="598" r="6"/><circle cx="2409" cy="563" r="4"/><circle cx="2494" cy="629" r="5"/><circle cx="73" cy="708" r="6"/><circle cx="119" cy="646" r="6"/><circle cx="186" cy="686" r="6"/><circle cx="311" cy="657" r="6"/><circle cx="391" cy="704" r="5"/><circle cx="453" cy="689" r="5"/><circle cx="538" cy="705" r="5"/><circle cx="608" cy="700" r="6"/><circle cx="647" cy="698" r="4"/><circle cx="757" cy="684" r="5"/><circle cx="814" cy="720" r="4"/><circle cx="920" cy="703" r="4"/><circle cx="1010" cy="650" r="4"/><circle cx="1068" cy="709" r="4"/><circle cx="1132" cy="686" r="5"/><circle cx="1218" cy="645" r="5"/><circle cx="1353" cy="665" r="4"/><circle cx="1371" cy="688" r="6"/><circle cx="1484" cy="670" r="5"/><circle cx="1565" cy="671" r="4"/><circle cx="1610" cy="689" r="5"/><circle cx="1748" cy="646" r="6"/><circle cx="1788" cy="652" r="5"/><circle cx="1868" cy="669" r="5"/><circle cx="1967" cy="642" r="4"/><circle cx="2037" cy="705" r="5"/><circle cx="2140" cy="693" r="5"/><circle cx="2211" cy="678" r="6"/><circle cx="2302" cy="671" r="5"/><circle cx="2338" cy="700" r="4"/><circle cx="2420" cy="652" r="4"/><circle cx="2494" cy="652" r="5"/><circle cx="39" cy="791" r="5"/><circle cx="159" cy="746" r="5"/><circle cx="235" cy="767" r="6"/><circle cx="268" cy="733" r="4"/><circle cx="372" cy="737" r="5"/><circle cx="476" cy="798" r="5"/><circle cx="513" cy="725" r="5"/><circle cx="599" cy="767" r="5"/><circle cx="692" cy="775" r="4"/><circle cx="785" cy="760" r="5"/><circle cx="820" cy="786" r="5"/><circle cx="888" cy="774" r="4"/><circle cx="1020" cy="765" r="6"/><circle cx="1072" cy="755" r="5"/><circle cx="1162" cy="781" r="4"/><circle cx="1264" cy="778" r="5"/><circle cx="1357" cy="787" r="5"/><circle cx="1429" cy="736" r="5"/><circle cx="1514" cy="772" r="5"/><circle cx="1582" cy="743" r="5"/><circle cx="1654" cy="739" r="5"/><circle cx="1691" cy="761" r="6"/><circle cx="1774" cy="756" r="4"/><circle cx="1879" cy="782" r="5"/><circle cx="1954" cy="745" r="4"/><circle cx="2008" cy="800" r="6"/><circle cx="2109" cy="784" r="4"/><circle cx="2190" cy="764" r="6"/><circle cx="2282" cy="770" r="4"/><circle cx="2355" cy="781" r="6"/><circle cx="2413" cy="772" r="5"/><circle cx="2549" cy="734" r="5"/><circle cx="4" cy="847" r="5"/><circle cx="2564" cy="847" r="5"/><circle cx="110" cy="871" r="5"/><circle cx="176" cy="838" r="5"/><circle cx="293" cy="820" r="4"/><circle cx="322" cy="841" r="5"/><circle cx="452" cy="843" r="5"/><circle cx="552" cy="803" r="4"/><circle cx="607" cy="809" r="5"/><circle cx="664" cy="802" r="5"/><circle cx="754" cy="858" r="6"/><circle cx="832" cy="852" r="4"/><circle cx="927" cy="853" r="5"/><circle cx="1015" cy="839" r="6"/><circle cx="1082" cy="800" r="4"/><circle cx="1153" cy="842" r="5"/><circle cx="1275" cy="818" r="6"/><circle cx="1359" cy="800" r="4"/><circle cx="1384" cy="840" r="5"/><circle cx="1458" cy="835" r="4"/><circle cx="1580" cy="842" r="5"/><circle cx="1642" cy="809" r="6"/><circle cx="1734" cy="835" r="6"/><circle cx="1791" cy="810" r="4"/><circle cx="1876" cy="845" r="4"/><circle cx="1974" cy="809" r="5"/><circle cx="2022" cy="855" r="6"/><circle cx="2127" cy="822" r="5"/><circle cx="2200" cy="840" r="6"/><circle cx="2259" cy="809" r="6"/><circle cx="2381" cy="873" r="6"/><circle cx="2412" cy="826" r="4"/><circle cx="2485" cy="828" r="6"/><circle cx="36" cy="931" r="6"/><circle cx="119" cy="958" r="6"/><circle cx="202" cy="934" r="5"/><circle cx="273" cy="895" r="4"/><circle cx="371" cy="926" r="5"/><circle cx="414" cy="957" r="5"/><circle cx="541" cy="886" r="5"/><circle cx="625" cy="920" r="5"/><circle cx="642" cy="930" r="6"/><circle cx="780" cy="927" r="5"/><circle cx="811" cy="905" r="5"/><circle cx="941" cy="922" r="4"/><circle cx="998" cy="941" r="4"/><circle cx="1069" cy="954" r="5"/><circle cx="1129" cy="894" r="5"/><circle cx="1246" cy="908" r="4"/><circle cx="1333" cy="950" r="5"/><circle cx="1428" cy="915" r="4"/><circle cx="1464" cy="895" r="5"/><circle cx="1589" cy="943" r="5"/><circle cx="1649" cy="884" r="4"/><circle cx="1706" cy="895" r="4"/><circle cx="1781" cy="891" r="5"/><circle cx="1871" cy="936" r="5"/><circle cx="1975" cy="902" r="5"/><circle cx="2042" cy="883" r="5"/><circle cx="2137" cy="885" r="5"/><circle cx="2210" cy="957" r="6"/><circle cx="2249" cy="950" r="5"/><circle cx="2355" cy="880" r="5"/><circle cx="2472" cy="956" r="5"/><circle cx="2560" cy="952" r="5"/><circle cx="-0" cy="952" r="5"/><circle cx="77" cy="1020" r="5"/><circle cx="110" cy="1030" r="4"/><circle cx="187" cy="992" r="5"/><circle cx="289" cy="984" r="5"/><circle cx="334" cy="986" r="5"/><circle cx="456" cy="1037" r="5"/><circle cx="556" cy="990" r="4"/><circle cx="578" cy="988" r="5"/><circle cx="677" cy="993" r="5"/><circle cx="759" cy="996" r="5"/><circle cx="832" cy="986" r="5"/><circle cx="945" cy="1018" r="6"/><circle cx="971" cy="1010" r="5"/><circle cx="1063" cy="1038" r="4"/><circle cx="1190" cy="1011" r="6"/><circle cx="1230" cy="1001" r="4"/><circle cx="1284" cy="1022" r="5"/><circle cx="1375" cy="992" r="5"/><circle cx="1474" cy="1039" r="6"/><circle cx="1599" cy="1031" r="5"/><circle cx="1602" cy="1002" r="6"/><circle cx="1685" cy="1014" r="6"/><circle cx="1807" cy="988" r="6"/><circle cx="1845" cy="989" r="5"/><circle cx="1970" cy="1025" r="5"/><circle cx="2025" cy="967" r="5"/><circle cx="2095" cy="969" r="5"/><circle cx="2216" cy="994" r="6"/><circle cx="2270" cy="1033" r="5"/><circle cx="2322" cy="972" r="5"/><circle cx="2435" cy="1009" r="4"/><circle cx="2516" cy="994" r="5"/><circle cx="34" cy="1064" r="5"/><circle cx="108" cy="1086" r="5"/><circle cx="224" cy="1110" r="4"/><circle cx="267" cy="1093" r="5"/><circle cx="380" cy="1111" r="4"/><circle cx="442" cy="1094" r="6"/><circle cx="509" cy="1071" r="4"/><circle cx="586" cy="1065" r="5"/><circle cx="656" cy="1078" r="5"/><circle cx="774" cy="1105" r="5"/><circle cx="861" cy="1104" r="4"/><circle cx="951" cy="1070" r="6"/><circle cx="984" cy="1097" r="5"/><circle cx="1056" cy="1058" r="5"/><circle cx="1190" cy="1047" r="4"/><circle cx="1247" cy="1077" r="5"/><circle cx="1290" cy="1097" r="6"/><circle cx="1419" cy="1112" r="4"/><circle cx="1489" cy="1043" r="5"/><circle cx="1545" cy="1094" r="4"/><circle cx="1602" cy="1111" r="6"/><circle cx="1702" cy="1047" r="6"/><circle cx="1770" cy="1104" r="5"/><circle cx="1850" cy="1069" r="4"/><circle cx="1950" cy="1089" r="5"/><circle cx="2072" cy="1115" r="5"/><circle cx="2120" cy="1054" r="6"/><circle cx="2186" cy="1055" r="4"/><circle cx="2269" cy="1083" r="4"/><circle cx="2386" cy="1046" r="6"/><circle cx="2428" cy="1058" r="5"/><circle cx="2542" cy="1111" r="6"/><circle cx="26" cy="1131" r="5"/><circle cx="91" cy="1147" r="5"/><circle cx="183" cy="1131" r="4"/><circle cx="288" cy="1121" r="6"/><circle cx="379" cy="1162" r="6"/><circle cx="442" cy="1160" r="5"/><circle cx="530" cy="1169" r="6"/><circle cx="585" cy="1138" r="5"/><circle cx="654" cy="1180" r="4"/><circle cx="733" cy="1173" r="6"/><circle cx="853" cy="1142" r="5"/><circle cx="885" cy="1159" r="5"/><circle cx="1033" cy="1147" r="5"/><circle cx="1051" cy="1150" r="4"/><circle cx="1153" cy="1149" r="5"/><circle cx="1272" cy="1150" r="5"/><circle cx="1325" cy="1195" r="4"/><circle cx="1420" cy="1189" r="6"/><circle cx="1475" cy="1122" r="4"/><circle cx="1566" cy="1148" r="5"/><circle cx="1660" cy="1157" r="5"/><circle cx="1729" cy="1173" r="6"/><circle cx="1771" cy="1166" r="5"/><circle cx="1887" cy="1197" r="4"/><circle cx="1991" cy="1178" r="5"/><circle cx="2020" cy="1131" r="4"/><circle cx="2159" cy="1189" r="5"/><circle cx="2181" cy="1126" r="6"/><circle cx="2246" cy="1180" r="6"/><circle cx="2322" cy="1132" r="5"/><circle cx="2461" cy="1140" r="6"/><circle cx="2495" cy="1134" r="5"/><circle cx="11" cy="1230" r="5"/><circle cx="82" cy="1210" r="5"/><circle cx="194" cy="1254" r="5"/><circle cx="272" cy="1271" r="5"/><circle cx="384" cy="1253" r="5"/><circle cx="465" cy="1211" r="5"/><circle cx="499" cy="1249" r="4"/><circle cx="603" cy="1227" r="5"/><circle cx="679" cy="1272" r="5"/><circle cx="767" cy="1217" r="6"/><circle cx="815" cy="1261" r="5"/><circle cx="928" cy="1246" r="5"/><circle cx="1030" cy="1233" r="6"/><circle cx="1084" cy="1244" r="6"/><circle cx="1142" cy="1203" r="4"/><circle cx="1238" cy="1221" r="5"/><circle cx="1352" cy="1208" r="6"/><circle cx="1410" cy="1228" r="6"/><circle cx="1490" cy="1227" r="5"/><circle cx="1549" cy="1207" r="6"/><circle cx="1629" cy="1248" r="5"/><circle cx="1692" cy="1263" r="5"/><circle cx="1777" cy="1241" r="6"/><circle cx="1910" cy="1204" r="4"/><circle cx="1940" cy="1223" r="4"/><circle cx="2059" cy="1235" r="5"/><circle cx="2143" cy="1267" r="5"/><circle cx="2223" cy="1205" r="5"/><circle cx="2285" cy="1234" r="5"/><circle cx="2328" cy="1265" r="4"/><circle cx="2434" cy="1217" r="6"/><circle cx="2490" cy="1263" r="6"/><circle cx="65" cy="1299" r="5"/><circle cx="141" cy="1346" r="6"/><circle cx="224" cy="1281" r="5"/><circle cx="305" cy="1339" r="6"/><circle cx="399" cy="1310" r="4"/><circle cx="471" cy="1355" r="5"/><circle cx="541" cy="1327" r="5"/><circle cx="599" cy="1320" r="4"/><circle cx="673" cy="1343" r="5"/><circle cx="741" cy="1310" r="5"/><circle cx="816" cy="1318" r="6"/><circle cx="915" cy="1304" r="6"/><circle cx="1006" cy="1353" r="6"/><circle cx="1091" cy="1344" r="4"/><circle cx="1121" cy="1302" r="6"/><circle cx="1242" cy="1311" r="5"/><circle cx="1304" cy="1337" r="5"/><circle cx="1378" cy="1342" r="6"/><circle cx="1485" cy="1296" r="4"/><circle cx="1530" cy="1296" r="5"/><circle cx="1630" cy="1350" r="6"/><circle cx="1738" cy="1356" r="5"/><circle cx="1793" cy="1306" r="5"/><circle cx="1900" cy="1315" r="4"/><circle cx="1967" cy="1326" r="4"/><circle cx="2015" cy="1314" r="5"/><circle cx="2131" cy="1294" r="5"/><circle cx="2216" cy="1318" r="6"/><circle cx="2264" cy="1347" r="6"/><circle cx="2381" cy="1310" r="6"/><circle cx="2442" cy="1305" r="5"/><circle cx="2499" cy="1345" r="6"/><circle cx="28" cy="1392" r="5"/><circle cx="96" cy="1434" r="4"/><circle cx="181" cy="1439" r="5"/><circle cx="181" cy="-1" r="5"/><circle cx="305" cy="1394" r="4"/><circle cx="322" cy="1421" r="5"/><circle cx="478" cy="1404" r="5"/><circle cx="526" cy="1392" r="5"/><circle cx="609" cy="1421" r="4"/><circle cx="658" cy="1432" r="4"/><circle cx="798" cy="1375" r="5"/><circle cx="832" cy="1426" r="6"/><circle cx="924" cy="1398" r="6"/><circle cx="1000" cy="1416" r="6"/><circle cx="1069" cy="1426" r="4"/><circle cx="1123" cy="1414" r="5"/><circle cx="1228" cy="1364" r="6"/><circle cx="1304" cy="1405" r="4"/><circle cx="1419" cy="1368" r="5"/><circle cx="1516" cy="1434" r="5"/><circle cx="1534" cy="1404" r="5"/><circle cx="1648" cy="1367" r="5"/><circle cx="1714" cy="1427" r="6"/><circle cx="1830" cy="1370" r="6"/><circle cx="1901" cy="1360" r="6"/><circle cx="1955" cy="1412" r="4"/><circle cx="2043" cy="1391" r="5"/><circle cx="2139" cy="1416" r="5"/><circle cx="2168" cy="1376" r="4"/><circle cx="2312" cy="1400" r="4"/><circle cx="2348" cy="1440" r="5"/><circle cx="2348" cy="-0" r="5"/><circle cx="2452" cy="1412" r="5"/><circle cx="2560" cy="1417" r="5"/><circle cx="-0" cy="1417" r="5"/><path stroke="#fff" d="M56 72L108 39M56 72L63 135M56 72L117 112M56 72L74 166M56 72L96 -6M56 1512L96 1434M108 39L189 29M108 39L117 112M108 39L96 -6M108 39L181 -1M108 1479L96 1434M108 1479L181 1439M189 29L220 84M189 29L181 -1M189 1469L181 1439M313 14L334 26M313 14L406 59M313 14L337 92M313 14L305 -46M313 14L322 -19M313 1454L305 1394M313 1454L322 1421M334 26L406 59M334 26L337 92M334 26L305 -46M334 26L322 -19M334 1466L305 1394M334 1466L322 1421M406 59L507 7M406 59L337 92M406 59L455 98M507 7L455 98M507 7L471 -85M507 7L478 -36M507 7L526 -48M507 1447L471 1355M507 1447L478 1404M507 1447L526 1392M627 56L686 79M627 56L592 141M627 56L654 100M627 56L609 -19M627 56L658 -8M627 1496L609 1421M627 1496L658 1432M686 79L760 5M686 79L654 100M686 79L741 81M686 79L658 -8M686 1519L658 1432M760 5L741 81M760 5L658 -8M760 5L798 -65M760 5L832 -14M760 1445L658 1432M760 1445L798 1375M760 1445L832 1426M871 66L918 79M871 66L876 86M871 66L832 -14M871 1506L832 1426M918 79L997 77M918 79L876 86M918 79L959 153M997 77L959 153M997 77L986 140M997 77L1068 147M1090 4L1191 38M1090 4L1000 -24M1090 4L1069 -14M1090 4L1123 -26M1090 1444L1000 1416M1090 1444L1069 1426M1090 1444L1123 1414M1191 38L1260 76M1191 38L1178 90M1191 38L1123 -26M1191 38L1228 -76M1191 1478L1123 1414M1191 1478L1228 1364M1260 76L1178 90M1260 76L1274 133M1260 76L1304 94M1260 76L1262 168M1340 4L1375 23M1340 4L1304 94M1340 4L1378 -98M1340 4L1304 -35M1340 1444L1378 1342M1340 1444L1304 1405M1375 23L1446 54M1375 23L1304 94M1375 23L1403 88M1375 23L1304 -35M1375 1463L1304 1405M1446 54L1530 41M1446 54L1403 88M1446 54L1514 130M1446 54L1516 -6M1446 1494L1516 1434M1530 41L1514 130M1530 41L1546 91M1530 41L1516 -6M1530 41L1534 -36M1530 1481L1516 1434M1530 1481L1534 1404M1665 29L1731 2M1665 29L1728 103M1665 29L1648 -73M1665 29L1714 -13M1665 1469L1648 1367M1665 1469L1714 1427M1731 2L1728 103M1731 2L1797 84M1731 2L1738 -84M1731 2L1714 -13M1731 1442L1738 1356M1731 1442L1714 1427M1833 32L1899 73M1833 32L1797 84M1833 32L1861 122M1833 32L1830 -70M1833 1472L1830 1370M1899 73L1980 51M1899 73L1861 122M1899 73L1957 116M1899 73L1928 160M1980 51L2063 60M1980 51L1957 116M1980 51L2028 128M1980 51L1955 -28M1980 1491L1955 1412M2063 60L2115 55M2063 60L2167 62M2063 60L2028 128M2063 60L2082 132M2115 55L2167 62M2115 55L2082 132M2115 55L2139 -24M2115 1495L2139 1416M2167 62L2270 44M2167 62L2206 126M2167 62L2139 -24M2167 1502L2139 1416M2270 44L2206 126M2270 44L2249 137M2270 44L2312 -40M2270 44L2348 -0M2270 1484L2312 1400M2270 1484L2348 1440M2390 69L2441 22M2390 69L2370 117M2390 69L2436 98M2390 69L2401 164M2390 69L2348 -0M2390 1509L2348 1440M2441 22L2524 15M2441 22L2436 98M2441 22L2348 -0M2441 22L2452 -28M2441 1462L2348 1440M2441 1462L2452 1412M2524 15L2588 -48M2524 15L2452 -28M2524 15L2560 -23M-36 15L28 -48M-36 1455L28 1392M2524 1455L2588 1392M2524 1455L2452 1412M2524 1455L2560 1417M63 135L117 112M63 135L74 166M63 135L156 165M117 112L74 166M117 112L156 165M220 84L296 135M220 84L156 165M220 84L181 -1M220 1524L181 1439M296 135L337 92M296 135L239 228M296 135L292 231M296 135L393 204M337 92L322 -19M337 1532L322 1421M455 98L481 151M481 151L393 204M481 151L510 196M592 141L654 100M592 141L510 196M592 141L611 209M592 141L666 187M654 100L741 81M654 100L666 187M741 81L763 190M876 86L905 172M876 86L832 -14M876 1526L832 1426M959 153L986 140M959 153L905 172M959 153L989 168M986 140L1068 147M986 140L989 168M986 140L1054 184M1068 147L989 168M1068 147L1054 184M1068 147L1150 233M1178 90L1274 133M1274 133L1304 94M1274 133L1262 168M1304 94L1262 168M1514 130L1546 91M1514 130L1496 163M1514 130L1597 208M1546 91L1496 163M1546 91L1516 -6M1546 1531L1516 1434M1669 142L1728 103M1669 142L1597 208M1669 142L1606 223M1669 142L1731 164M1728 103L1797 84M1728 103L1731 164M1797 84L1861 122M1797 84L1731 164M1861 122L1957 116M1861 122L1928 160M1957 116L2028 128M1957 116L1928 160M2028 128L2082 132M2028 128L2105 161M2082 132L2105 161M2206 126L2249 137M2206 126L2182 211M2206 126L2285 165M2249 137L2182 211M2249 137L2285 165M2370 117L2436 98M2370 117L2285 165M2370 117L2371 217M2370 117L2401 164M2436 98L2481 115M2436 98L2401 164M2481 115L2401 164M74 166L156 165M74 166L-28 239M2634 166L2532 239M156 165L239 228M239 228L292 231M239 228L194 269M239 228L262 249M292 231L262 249M292 231L308 331M393 204L426 235M393 204L450 252M426 235L510 196M426 235L450 252M426 235L500 289M510 196L450 252M510 196L500 289M611 209L666 187M611 209L627 245M611 209L657 301M666 187L763 190M666 187L627 245M763 190L850 202M763 190L784 261M850 202L905 172M850 202L784 261M905 172L989 168M905 172L934 285M989 168L1054 184M1054 184L1150 233M1150 233L1159 263M1150 233L1210 243M1262 168L1325 226M1262 168L1210 243M1325 226L1397 227M1325 226L1298 293M1325 226L1375 293M1325 226L1305 329M1397 227L1375 293M1397 227L1501 297M1496 163L1597 208M1597 208L1606 223M1597 208L1662 285M1606 223L1662 285M1606 223L1681 311M1731 164L1776 222M1776 222L1873 231M1776 222L1827 281M1873 231L1928 160M1873 231L1827 281M1873 231L1897 271M1873 231L1963 249M1928 160L1963 249M2029 235L2105 161M2029 235L1963 249M2029 235L2058 254M2029 235L2063 327M2105 161L2182 211M2285 165L2371 217M2371 217L2401 164M2371 217L2302 288M2371 217L2391 298M2532 239L2520 284M2532 239L2499 327M75 320L159 308M75 320L-40 284M75 320L53 380M75 320L105 351M2635 320L2520 284M159 308L194 269M159 308L105 351M159 308L215 372M194 269L262 249M262 249L308 331M385 316L308 331M385 316L323 354M385 316L461 321M450 252L500 289M450 252L461 321M500 289L461 321M500 289L505 361M627 245L657 301M627 245L614 329M657 301L784 261M657 301L614 329M657 301L669 375M784 261L836 301M784 261L786 374M836 301L786 374M836 301L860 360M934 285L993 301M934 285L1043 313M993 301L1043 313M993 301L1029 368M993 301L1045 337M1043 313L1029 368M1043 313L1045 337M1159 263L1210 243M1159 263L1150 378M1210 243L1298 293M1210 243L1224 341M1298 293L1375 293M1298 293L1224 341M1298 293L1305 329M1375 293L1305 329M1375 293L1431 338M1501 297L1528 305M1501 297L1431 338M1501 297L1467 359M1501 297L1554 354M1528 305L1431 338M1528 305L1467 359M1528 305L1554 354M1662 285L1681 311M1662 285L1626 390M1662 285L1754 325M1681 311L1626 390M1681 311L1754 325M1681 311L1655 413M1827 281L1897 271M1827 281L1754 325M1827 281L1834 346M1897 271L1963 249M1897 271L1834 346M1897 271L1990 369M1963 249L2058 254M2058 254L2142 300M2058 254L2063 327M2142 300L2205 313M2142 300L2063 327M2142 300L2139 329M2142 300L2198 351M2205 313L2302 288M2205 313L2139 329M2205 313L2198 351M2205 313L2244 328M2302 288L2391 298M2302 288L2244 328M2391 298L2418 317M2391 298L2397 369M2391 298L2499 327M2418 317L2397 369M2418 317L2499 327M2418 317L2418 402M2520 284L2499 327M53 380L105 351M53 380L33 468M53 380L122 438M53 380L-13 441M2613 380L2547 441M105 351L122 438M215 372L308 331M215 372L323 354M215 372L188 421M215 372L244 454M308 331L323 354M323 354L341 469M323 354L422 408M461 321L505 361M461 321L422 408M505 361L614 329M505 361L422 408M505 361L555 459M614 329L669 375M614 329L668 430M669 375L668 430M786 374L860 360M786 374L841 413M860 360L891 392M860 360L841 413M860 360L925 416M891 392L841 413M891 392L925 416M891 392L978 452M891 392L949 485M1029 368L1045 337M1029 368L978 452M1045 337L1150 378M1150 378L1224 341M1150 378L1088 452M1150 378L1140 413M1224 341L1305 329M1224 341L1140 413M1431 338L1467 359M1467 359L1554 354M1554 354L1626 390M1554 354L1567 435M1626 390L1567 435M1626 390L1655 413M1754 325L1834 346M1834 346L1844 378M1834 346L1779 438M1844 378L1779 438M1844 378L1867 471M1990 369L2063 327M1990 369L1948 450M1990 369L2041 460M2063 327L2139 329M2139 329L2198 351M2139 329L2167 426M2198 351L2244 328M2198 351L2167 426M2244 328L2251 414M2397 369L2465 396M2397 369L2377 411M2397 369L2418 402M2465 396L2499 327M2465 396L2377 411M2465 396L2418 402M2465 396L2547 441M33 468L122 438M33 468L-13 441M33 468L32 514M33 468L-53 496M2593 468L2547 441M2593 468L2507 496M122 438L188 421M122 438L154 481M188 421L244 454M188 421L154 481M188 421L252 493M244 454L341 469M244 454L240 541M244 454L252 493M341 469L422 408M341 469L252 493M341 469L365 507M422 408L365 507M555 459L632 465M555 459L459 530M555 459L491 548M555 459L574 530M632 465L668 430M632 465L734 478M632 465L574 530M632 465L677 543M668 430L734 478M734 478L677 543M734 478L747 513M734 478L806 540M841 413L925 416M925 416L978 452M925 416L949 485M978 452L949 485M978 452L1034 522M1088 452L1140 413M1088 452L1076 484M1088 452L1123 510M1140 413L1076 484M1280 464L1354 457M1280 464L1388 438M1280 464L1205 525M1354 457L1388 438M1354 457L1448 477M1354 457L1332 548M1354 457L1376 483M1388 438L1448 477M1388 438L1376 483M1448 477L1376 483M1448 477L1453 521M1567 435L1655 413M1567 435L1554 482M1567 435L1626 521M1655 413L1735 443M1735 443L1779 438M1735 443L1704 540M1735 443L1773 514M1779 438L1867 471M1779 438L1773 514M1867 471L1948 450M1867 471L1895 515M1948 450L2041 460M1948 450L1895 515M1948 450L1997 521M2041 460L2099 467M2041 460L1997 521M2041 460L2070 541M2099 467L2167 426M2099 467L2070 541M2099 467L2107 523M2099 467L2193 485M2167 426L2251 414M2167 426L2193 485M2251 414L2193 485M2251 414L2268 504M2251 414L2334 495M2377 411L2418 402M2377 411L2334 495M2377 411L2450 494M2418 402L2450 494M2547 441L2592 514M2547 441L2507 496M-13 441L32 514M32 514L-53 496M32 514L58 591M2592 514L2507 496M154 481L240 541M154 481L252 493M154 481L175 580M240 541L252 493M240 541L175 580M240 541L307 603M365 507L459 530M365 507L307 603M459 530L491 548M459 530L503 578M491 548L574 530M491 548L478 638M491 548L503 578M574 530L503 578M574 530L611 585M677 543L747 513M677 543L611 585M747 513L806 540M806 540L766 634M806 540L854 629M806 540L912 625M949 485L1034 522M949 485L1013 580M1034 522L1076 484M1034 522L1123 510M1034 522L1013 580M1076 484L1123 510M1123 510L1205 525M1123 510L1134 605M1205 525L1134 605M1205 525L1253 613M1205 525L1218 645M1332 548L1376 483M1332 548L1253 613M1332 548L1342 576M1332 548L1365 573M1376 483L1453 521M1453 521L1554 482M1453 521L1365 573M1453 521L1501 627M1554 482L1626 521M1554 482L1612 578M1626 521L1704 540M1626 521L1573 596M1626 521L1612 578M1704 540L1773 514M1704 540L1612 578M1704 540L1698 580M1773 514L1698 580M1773 514L1793 584M1895 515L1912 570M1895 515L1946 600M1997 521L2070 541M1997 521L1912 570M1997 521L1946 600M2070 541L2107 523M2070 541L2048 639M2107 523L2193 485M2107 523L2152 618M2193 485L2268 504M2268 504L2334 495M2268 504L2197 604M2334 495L2380 598M2334 495L2409 563M2450 494L2507 496M2450 494L2409 563M58 591L116 623M58 591L119 646M116 623L175 580M116 623L73 708M116 623L119 646M175 580L119 646M175 580L186 686M307 603L374 623M307 603L311 657M374 623L311 657M374 623L391 704M478 638L503 578M478 638L453 689M478 638L538 705M503 578L611 585M611 585L688 637M688 637L766 634M688 637L647 698M688 637L757 684M766 634L854 629M766 634L757 684M766 634L814 720M854 629L912 625M854 629L920 703M912 625L1013 580M912 625L920 703M912 625L1010 650M1013 580L1087 625M1013 580L1010 650M1087 625L1134 605M1087 625L1010 650M1087 625L1068 709M1087 625L1132 686M1134 605L1132 686M1134 605L1218 645M1253 613L1342 576M1253 613L1218 645M1342 576L1365 573M1342 576L1353 665M1365 573L1353 665M1365 573L1371 688M1501 627L1573 596M1501 627L1484 670M1501 627L1565 671M1573 596L1612 578M1573 596L1565 671M1573 596L1610 689M1612 578L1698 580M1698 580L1793 584M1698 580L1748 646M1793 584L1748 646M1793 584L1788 652M1912 570L1946 600M1912 570L1868 669M1912 570L1967 642M1946 600L1868 669M1946 600L1967 642M2048 639L2152 618M2048 639L1967 642M2048 639L2037 705M2048 639L2140 693M2152 618L2197 604M2152 618L2140 693M2152 618L2211 678M2197 604L2277 637M2197 604L2211 678M2277 637L2380 598M2277 637L2211 678M2277 637L2302 671M2277 637L2338 700M2380 598L2409 563M2380 598L2302 671M2380 598L2420 652M2409 563L2494 629M2409 563L2420 652M2494 629L2420 652M2494 629L2494 652M73 708L119 646M73 708L39 791M73 708L159 746M73 708L-11 734M2633 708L2549 734M119 646L186 686M186 686L159 746M186 686L235 767M186 686L268 733M311 657L391 704M311 657L268 733M311 657L372 737M391 704L453 689M391 704L372 737M453 689L538 705M453 689L372 737M453 689L513 725M538 705L608 700M538 705L513 725M608 700L647 698M608 700L513 725M608 700L599 767M608 700L607 809M647 698L599 767M647 698L692 775M647 698L664 802M757 684L814 720M757 684L785 760M814 720L785 760M814 720L820 786M814 720L888 774M920 703L888 774M1010 650L1068 709M1010 650L1020 765M1068 709L1132 686M1068 709L1020 765M1068 709L1072 755M1132 686L1218 645M1132 686L1072 755M1353 665L1371 688M1371 688L1484 670M1371 688L1357 787M1371 688L1429 736M1484 670L1565 671M1484 670L1429 736M1484 670L1514 772M1565 671L1610 689M1565 671L1582 743M1610 689L1582 743M1610 689L1654 739M1610 689L1691 761M1748 646L1788 652M1788 652L1868 669M1788 652L1774 756M1868 669L1967 642M1868 669L1879 782M1967 642L2037 705M2037 705L2140 693M2037 705L1954 745M2037 705L2008 800M2140 693L2211 678M2140 693L2190 764M2211 678L2190 764M2302 671L2338 700M2302 671L2282 770M2338 700L2420 652M2338 700L2282 770M2338 700L2355 781M2420 652L2494 652M2494 652L2549 734M39 791L-11 734M39 791L4 847M39 791L110 871M2599 791L2549 734M159 746L235 767M159 746L176 838M235 767L268 733M235 767L176 838M235 767L293 820M268 733L372 737M268 733L293 820M372 737L322 841M476 798L513 725M476 798L452 843M476 798L552 803M513 725L552 803M599 767L552 803M599 767L607 809M599 767L664 802M692 775L785 760M692 775L664 802M785 760L820 786M785 760L754 858M820 786L888 774M820 786L754 858M820 786L832 852M888 774L927 853M1020 765L1072 755M1020 765L1015 839M1020 765L1082 800M1072 755L1015 839M1072 755L1082 800M1162 781L1264 778M1162 781L1082 800M1162 781L1153 842M1162 781L1129 894M1264 778L1275 818M1264 778L1359 800M1357 787L1429 736M1357 787L1275 818M1357 787L1359 800M1357 787L1384 840M1429 736L1514 772M1429 736L1359 800M1514 772L1582 743M1514 772L1458 835M1514 772L1580 842M1582 743L1654 739M1582 743L1642 809M1654 739L1691 761M1654 739L1642 809M1691 761L1774 756M1691 761L1642 809M1691 761L1734 835M1774 756L1734 835M1774 756L1791 810M1879 782L1954 745M1879 782L1791 810M1879 782L1876 845M1879 782L1974 809M1954 745L2008 800M1954 745L1974 809M2008 800L1974 809M2008 800L2022 855M2008 800L2042 883M2109 784L2127 822M2190 764L2127 822M2190 764L2200 840M2190 764L2259 809M2282 770L2355 781M2282 770L2259 809M2355 781L2413 772M2355 781L2381 873M2355 781L2412 826M2413 772L2381 873M2413 772L2412 826M2413 772L2485 828M2413 772L2355 880M2549 734L2485 828M4 847L110 871M4 847L-75 828M4 847L36 931M4 847L-0 952M2564 847L2485 828M2564 847L2560 952M110 871L176 838M110 871L36 931M110 871L119 958M176 838L202 934M293 820L322 841M293 820L273 895M322 841L273 895M322 841L371 926M452 843L414 957M452 843L541 886M552 803L607 809M552 803L541 886M607 809L664 802M607 809L541 886M754 858L832 852M754 858L780 927M754 858L811 905M832 852L927 853M832 852L780 927M832 852L811 905M927 853L1015 839M927 853L941 922M1015 839L1082 800M1015 839L998 941M1082 800L1153 842M1153 842L1129 894M1275 818L1359 800M1275 818L1246 908M1359 800L1384 840M1384 840L1458 835M1384 840L1428 915M1384 840L1464 895M1458 835L1428 915M1458 835L1464 895M1580 842L1642 809M1580 842L1464 895M1580 842L1589 943M1580 842L1649 884M1642 809L1649 884M1734 835L1791 810M1734 835L1706 895M1734 835L1781 891M1791 810L1876 845M1791 810L1781 891M1876 845L1871 936M1974 809L2022 855M1974 809L1975 902M2022 855L1975 902M2022 855L2042 883M2022 855L2025 967M2127 822L2200 840M2127 822L2137 885M2200 840L2259 809M2200 840L2137 885M2259 809L2355 880M2381 873L2412 826M2381 873L2485 828M2381 873L2355 880M2412 826L2485 828M2412 826L2355 880M36 931L119 958M36 931L-0 952M36 931L77 1020M2596 931L2560 952M119 958L77 1020M119 958L110 1030M119 958L187 992M202 934L273 895M202 934L187 992M202 934L289 984M273 895L371 926M273 895L289 984M371 926L414 957M371 926L289 984M371 926L334 986M414 957L334 986M414 957L456 1037M541 886L625 920M541 886L642 930M625 920L642 930M625 920L556 990M625 920L578 988M625 920L677 993M642 930L556 990M642 930L578 988M642 930L677 993M780 927L811 905M780 927L759 996M780 927L832 986M811 905L759 996M811 905L832 986M941 922L998 941M941 922L945 1018M998 941L1069 954M998 941L945 1018M998 941L971 1010M1069 954L1129 894M1069 954L1063 1038M1129 894L1246 908M1246 908L1333 950M1246 908L1190 1011M1246 908L1230 1001M1333 950L1428 915M1333 950L1284 1022M1333 950L1375 992M1428 915L1464 895M1428 915L1375 992M1464 895L1375 992M1589 943L1649 884M1589 943L1599 1031M1589 943L1602 1002M1649 884L1706 895M1706 895L1781 891M1781 891L1871 936M1781 891L1807 988M1871 936L1975 902M1871 936L1807 988M1871 936L1845 989M1975 902L2042 883M1975 902L2025 967M2042 883L2137 885M2042 883L2025 967M2137 885L2210 957M2137 885L2095 969M2210 957L2249 950M2210 957L2216 994M2210 957L2270 1033M2210 957L2186 1055M2249 950L2216 994M2249 950L2270 1033M2249 950L2322 972M2355 880L2322 972M2472 956L2560 952M2472 956L2435 1009M2472 956L2516 994M2472 956L2428 1058M2560 952L2516 994M77 1020L110 1030M77 1020L34 1064M77 1020L108 1086M110 1030L187 992M110 1030L34 1064M110 1030L108 1086M187 992L289 984M289 984L334 986M334 986L267 1093M456 1037L380 1111M456 1037L442 1094M456 1037L509 1071M556 990L578 988M556 990L586 1065M578 988L677 993M578 988L586 1065M677 993L759 996M677 993L656 1078M759 996L832 986M759 996L774 1105M945 1018L971 1010M945 1018L951 1070M945 1018L984 1097M971 1010L951 1070M971 1010L984 1097M971 1010L1056 1058M1063 1038L1056 1058M1190 1011L1230 1001M1190 1011L1284 1022M1190 1011L1190 1047M1190 1011L1247 1077M1230 1001L1284 1022M1230 1001L1190 1047M1284 1022L1247 1077M1284 1022L1290 1097M1375 992L1474 1039M1474 1039L1419 1112M1474 1039L1489 1043M1474 1039L1475 1122M1599 1031L1602 1002M1599 1031L1685 1014M1599 1031L1545 1094M1599 1031L1602 1111M1602 1002L1685 1014M1602 1002L1602 1111M1602 1002L1702 1047M1685 1014L1702 1047M1807 988L1845 989M1807 988L1702 1047M1807 988L1850 1069M1845 989L1970 1025M1845 989L1850 1069M1970 1025L2025 967M1970 1025L1950 1089M1970 1025L2020 1131M2025 967L2095 969M2095 969L2120 1054M2216 994L2270 1033M2216 994L2120 1054M2216 994L2186 1055M2270 1033L2322 972M2270 1033L2269 1083M2322 972L2435 1009M2322 972L2386 1046M2435 1009L2516 994M2435 1009L2386 1046M2435 1009L2428 1058M34 1064L108 1086M34 1064L-18 1111M34 1064L26 1131M2594 1064L2542 1111M108 1086L26 1131M108 1086L91 1147M224 1110L267 1093M224 1110L183 1131M224 1110L288 1121M267 1093L183 1131M267 1093L288 1121M380 1111L442 1094M380 1111L288 1121M380 1111L379 1162M380 1111L442 1160M442 1094L509 1071M442 1094L379 1162M442 1094L442 1160M509 1071L586 1065M586 1065L656 1078M586 1065L585 1138M656 1078L585 1138M656 1078L654 1180M774 1105L861 1104M774 1105L733 1173M774 1105L853 1142M861 1104L951 1070M861 1104L853 1142M861 1104L885 1159M951 1070L984 1097M951 1070L1056 1058M984 1097L1056 1058M984 1097L1033 1147M1056 1058L1033 1147M1190 1047L1247 1077M1190 1047L1290 1097M1190 1047L1153 1149M1247 1077L1290 1097M1247 1077L1272 1150M1290 1097L1272 1150M1419 1112L1489 1043M1419 1112L1420 1189M1419 1112L1475 1122M1489 1043L1545 1094M1489 1043L1475 1122M1545 1094L1602 1111M1545 1094L1475 1122M1545 1094L1566 1148M1602 1111L1566 1148M1602 1111L1660 1157M1702 1047L1770 1104M1770 1104L1850 1069M1770 1104L1729 1173M1770 1104L1771 1166M1850 1069L1950 1089M1950 1089L1991 1178M1950 1089L2020 1131M2072 1115L2120 1054M2072 1115L2020 1131M2120 1054L2186 1055M2120 1054L2181 1126M2186 1055L2269 1083M2186 1055L2181 1126M2269 1083L2322 1132M2386 1046L2428 1058M2386 1046L2322 1132M2386 1046L2461 1140M2428 1058L2461 1140M2428 1058L2495 1134M2542 1111L2586 1131M2542 1111L2651 1147M2542 1111L2461 1140M2542 1111L2495 1134M-18 1111L26 1131M-18 1111L91 1147M26 1131L91 1147M26 1131L-65 1134M2586 1131L2495 1134M91 1147L183 1131M91 1147L82 1210M183 1131L288 1121M288 1121L379 1162M379 1162L442 1160M379 1162L384 1253M442 1160L530 1169M442 1160L465 1211M530 1169L585 1138M530 1169L465 1211M530 1169L499 1249M530 1169L603 1227M585 1138L654 1180M585 1138L603 1227M654 1180L733 1173M654 1180L603 1227M733 1173L767 1217M853 1142L885 1159M885 1159L928 1246M1033 1147L1051 1150M1033 1147L1030 1233M1051 1150L1153 1149M1051 1150L1030 1233M1051 1150L1084 1244M1051 1150L1142 1203M1153 1149L1142 1203M1272 1150L1325 1195M1272 1150L1238 1221M1272 1150L1352 1208M1325 1195L1238 1221M1325 1195L1352 1208M1325 1195L1410 1228M1420 1189L1475 1122M1420 1189L1352 1208M1420 1189L1410 1228M1420 1189L1490 1227M1566 1148L1660 1157M1566 1148L1549 1207M1660 1157L1729 1173M1660 1157L1629 1248M1729 1173L1771 1166M1729 1173L1692 1263M1729 1173L1777 1241M1771 1166L1887 1197M1771 1166L1777 1241M1887 1197L1910 1204M1887 1197L1940 1223M1991 1178L2020 1131M1991 1178L1910 1204M1991 1178L1940 1223M1991 1178L2059 1235M2159 1189L2181 1126M2159 1189L2246 1180M2159 1189L2059 1235M2159 1189L2143 1267M2159 1189L2223 1205M2181 1126L2246 1180M2181 1126L2223 1205M2246 1180L2322 1132M2246 1180L2223 1205M2246 1180L2285 1234M2461 1140L2495 1134M2461 1140L2434 1217M2495 1134L2434 1217M11 1230L82 1210M11 1230L-70 1263M11 1230L65 1299M2571 1230L2490 1263M82 1210L194 1254M82 1210L65 1299M194 1254L272 1271M194 1254L141 1346M194 1254L224 1281M272 1271L384 1253M272 1271L224 1281M272 1271L305 1339M384 1253L465 1211M384 1253L399 1310M465 1211L499 1249M465 1211L399 1310M499 1249L541 1327M603 1227L679 1272M603 1227L599 1320M679 1272L767 1217M679 1272L599 1320M679 1272L673 1343M679 1272L741 1310M767 1217L815 1261M767 1217L741 1310M767 1217L816 1318M815 1261L928 1246M815 1261L816 1318M815 1261L915 1304M928 1246L1030 1233M928 1246L915 1304M1030 1233L1084 1244M1030 1233L1121 1302M1084 1244L1142 1203M1084 1244L1091 1344M1084 1244L1121 1302M1142 1203L1238 1221M1142 1203L1121 1302M1238 1221L1352 1208M1238 1221L1242 1311M1352 1208L1410 1228M1410 1228L1490 1227M1410 1228L1485 1296M1490 1227L1549 1207M1490 1227L1485 1296M1490 1227L1530 1296M1549 1207L1629 1248M1549 1207L1485 1296M1549 1207L1530 1296M1629 1248L1692 1263M1629 1248L1530 1296M1629 1248L1630 1350M1692 1263L1777 1241M1692 1263L1630 1350M1777 1241L1793 1306M1910 1204L1940 1223M1940 1223L1900 1315M2059 1235L2143 1267M2059 1235L2015 1314M2059 1235L2131 1294M2143 1267L2223 1205M2143 1267L2131 1294M2143 1267L2216 1318M2223 1205L2285 1234M2285 1234L2328 1265M2285 1234L2216 1318M2328 1265L2264 1347M2328 1265L2381 1310M2434 1217L2490 1263M2434 1217L2381 1310M2434 1217L2442 1305M2490 1263L2381 1310M2490 1263L2442 1305M2490 1263L2499 1345M65 1299L141 1346M65 1299L28 1392M141 1346L224 1281M141 1346L96 1434M141 1346L181 1439M224 1281L305 1339M305 1339L399 1310M305 1339L305 1394M305 1339L322 1421M399 1310L471 1355M399 1310L478 1404M471 1355L541 1327M471 1355L478 1404M471 1355L526 1392M541 1327L599 1320M541 1327L478 1404M541 1327L526 1392M599 1320L673 1343M673 1343L741 1310M673 1343L609 1421M673 1343L658 1432M741 1310L816 1318M741 1310L798 1375M816 1318L915 1304M816 1318L798 1375M915 1304L1006 1353M915 1304L924 1398M1006 1353L1091 1344M1006 1353L924 1398M1006 1353L1000 1416M1006 1353L1069 1426M1091 1344L1121 1302M1091 1344L1069 1426M1091 1344L1123 1414M1121 1302L1123 1414M1242 1311L1304 1337M1242 1311L1228 1364M1304 1337L1378 1342M1304 1337L1228 1364M1304 1337L1304 1405M1304 1337L1419 1368M1378 1342L1304 1405M1378 1342L1419 1368M1485 1296L1530 1296M1485 1296L1419 1368M1630 1350L1648 1367M1630 1350L1714 1427M1738 1356L1793 1306M1738 1356L1648 1367M1738 1356L1714 1427M1738 1356L1830 1370M1793 1306L1900 1315M1793 1306L1830 1370M1900 1315L1967 1326M1900 1315L1830 1370M1900 1315L1901 1360M1967 1326L2015 1314M1967 1326L1901 1360M1967 1326L1955 1412M1967 1326L2043 1391M2015 1314L2131 1294M2015 1314L1901 1360M2015 1314L2043 1391M2131 1294L2216 1318M2131 1294L2168 1376M2216 1318L2264 1347M2216 1318L2168 1376M2264 1347L2381 1310M2264 1347L2168 1376M2264 1347L2312 1400M2381 1310L2442 1305M2442 1305L2499 1345M2442 1305L2452 1412M2499 1345L2588 1392M2499 1345L2452 1412M2499 1345L2560 1417M-61 1345L28 1392M28 1392L96 1434M28 1392L-0 1417M2588 1392L2560 1417M96 1434L181 1439M305 1394L322 1421M478 1404L526 1392M526 1392L609 1421M609 1421L658 1432M798 1375L832 1426M798 1375L924 1398M832 1426L924 1398M924 1398L1000 1416M1000 1416L1069 1426M1069 1426L1123 1414M1228 1364L1304 1405M1419 1368L1516 1434M1419 1368L1534 1404M1516 1434L1534 1404M1534 1404L1648 1367M1648 1367L1714 1427M1830 1370L1901 1360M1901 1360L1955 1412M1955 1412L2043 1391M2043 1391L2139 1416M2139 1416L2168 1376M2312 1400L2348 1440M2452 1412L2560 1417"/></svg>