<svg xmlns="http://www.w3.org/2000/svg" width="2560" height="1440" fill="#fff"><circle cx="47" cy="10" r="5"/><circle cx="109" cy="5" r="6"/><circle cx="109" cy="1445" r="6"/><circle cx="199" cy="49" r="4"/><circle cx="284" cy="79" r="6"/><circle cx="345" cy="23" r="6"/><circle cx="401" cy="1" r="5"/><circle cx="401" cy="1441" r="5"/><circle cx="506" cy="34" r="5"/><circle cx="616" cy="13" r="6"/><circle cx="689" cy="1" r="5"/><circle cx="689" cy="1441" r="5"/><circle cx="794" cy="16" r="5"/><circle cx="848" cy="35" r="4"/><circle cx="960" cy="58" r="4"/><circle cx="963" cy="46" r="6"/><circle cx="1106" cy="38" r="6"/><circle cx="1183" cy="77" r="6"/><circle cx="1270" cy="49" r="5"/><circle cx="1312" cy="44" r="5"/><circle cx="1412" cy="11" r="5"/><circle cx="1464" cy="41" r="6"/><circle cx="1569" cy="77" r="5"/><circle cx="1606" cy="69" r="6"/><circle cx="1744" cy="45" r="5"/><circle cx="1802" cy="39" r="4"/><circle cx="1900" cy="40" r="4"/><circle cx="1960" cy="10" r="4"/><circle cx="2016" cy="47" r="4"/><circle cx="2154" cy="59" r="5"/><circle cx="2160" cy="21" r="4"/><circle cx="2305" cy="19" r="5"/><circle cx="2351" cy="31" r="5"/><circle cx="2434" cy="68" r="6"/><circle cx="2538" cy="49" r="6"/><circle cx="17" cy="156" r="5"/><circle cx="158" cy="136" r="5"/><circle cx="240" cy="83" r="5"/><circle cx="248" cy="145" r="4"/><circle cx="394" cy="89" r="5"/><circle cx="409" cy="112" r="5"/><circle cx="547" cy="131" r="5"/><circle cx="594" cy="81" r="5"/><circle cx="658" cy="151" r="4"/><circle cx="725" cy="86" r="6"/><circle cx="800" cy="81" r="4"/><circle cx="890" cy="126" r="6"/><circle cx="1039" cy="104" r="5"/><circle cx="1103" cy="110" r="6"/><circle cx="1144" cy="98" r="5"/><circle cx="1216" cy="152" r="4"/><circle cx="1343" cy="104" r="4"/><circle cx="1391" cy="139" r="6"/><circle cx="1478" cy="104" r="5"/><circle cx="1560" cy="144" r="5"/><circle cx="1616" cy="137" r="6"/><circle cx="1696" cy="134" r="5"/><circle cx="1835" cy="135" r="6"/><circle cx="1910" cy="106" r="5"/><circle cx="1953" cy="157" r="5"/><circle cx="2031" cy="93" r="5"/><circle cx="2086" cy="80" r="5"/><circle cx="2164" cy="130" r="6"/><circle cx="2319" cy="109" r="4"/><circle cx="2399" cy="138" r="5"/><circle cx="2425" cy="155" r="4"/><circle cx="2491" cy="98" r="6"/><circle cx="23" cy="225" r="5"/><circle cx="139" cy="220" r="5"/><circle cx="183" cy="172" r="5"/><circle cx="279" cy="186" r="5"/><circle cx="356" cy="220" r="6"/><circle cx="436" cy="225" r="5"/><circle cx="507" cy="190" r="6"/><circle cx="620" cy="240" r="6"/><circle cx="676" cy="213" r="5"/><circle cx="732" cy="204" r="4"/><circle cx="810" cy="230" r="6"/><circle cx="943" cy="173" r="5"/><circle cx="970" cy="208" r="5"/><circle cx="1089" cy="217" r="6"/><circle cx="1171" cy="202" r="6"/><circle cx="1210" cy="189" r="5"/><circle cx="1285" cy="228" r="6"/><circle cx="1390" cy="237" r="6"/><circle cx="1461" cy="182" r="4"/><circle cx="1599" cy="206" r="5"/><circle cx="1650" cy="206" r="5"/><circle cx="1748" cy="163" r="4"/><circle cx="1772" cy="194" r="5"/><circle cx="1859" cy="171" r="4"/><circle cx="1950" cy="178" r="5"/><circle cx="2023" cy="220" r="4"/><circle cx="2090" cy="190" r="5"/><circle cx="2173" cy="168" r="6"/><circle cx="2263" cy="199" r="5"/><circle cx="2365" cy="237" r="4"/><circle cx="2439" cy="200" r="5"/><circle cx="2486" cy="169" r="5"/><circle cx="59" cy="284" r="5"/><circle cx="145" cy="302" r="6"/><circle cx="225" cy="273" r="5"/><circle cx="314" cy="275" r="5"/><circle cx="374" cy="287" r="4"/><circle cx="464" cy="257" r="6"/><circle cx="514" cy="305" r="5"/><circle cx="563" cy="294" r="5"/><circle cx="663" cy="308" r="4"/><circle cx="779" cy="291" r="5"/><circle cx="866" cy="250" r="6"/><circle cx="938" cy="319" r="4"/><circle cx="1000" cy="318" r="4"/><circle cx="1068" cy="263" r="4"/><circle cx="1138" cy="243" r="6"/><circle cx="1233" cy="315" r="5"/><circle cx="1294" cy="261" r="5"/><circle cx="1435" cy="259" r="5"/><circle cx="1495" cy="313" r="6"/><circle cx="1561" cy="280" r="5"/><circle cx="1633" cy="260" r="5"/><circle cx="1739" cy="291" r="5"/><circle cx="1781" cy="271" r="5"/><circle cx="1865" cy="253" r="5"/><circle cx="1944" cy="263" r="5"/><circle cx="2007" cy="255" r="4"/><circle cx="2108" cy="302" r="5"/><circle cx="2183" cy="249" r="5"/><circle cx="2300" cy="302" r="5"/><circle cx="2396" cy="250" r="6"/><circle cx="2408" cy="253" r="5"/><circle cx="2494" cy="256" r="5"/><circle cx="8" cy="393" r="5"/><circle cx="159" cy="327" r="6"/><circle cx="193" cy="395" r="5"/><circle cx="314" cy="377" r="6"/><circle cx="382" cy="381" r="4"/><circle cx="416" cy="356" r="5"/><circle cx="487" cy="328" r="4"/><circle cx="570" cy="346" r="6"/><circle cx="689" cy="345" r="5"/><circle cx="735" cy="339" r="4"/><circle cx="801" cy="368" r="4"/><circle cx="900" cy="377" r="5"/><circle cx="980" cy="332" r="6"/><circle cx="1086" cy="324" r="5"/><circle cx="1177" cy="343" r="6"/><circle cx="1270" cy="373" r="5"/><circle cx="1349" cy="397" r="6"/><circle cx="1428" cy="323" r="5"/><circle cx="1458" cy="353" r="5"/><circle cx="1594" cy="352" r="6"/><circle cx="1602" cy="372" r="5"/><circle cx="1693" cy="335" r="5"/><circle cx="1785" cy="392" r="4"/><circle cx="1881" cy="372" r="4"/><circle cx="1922" cy="348" r="4"/><circle cx="2014" cy="398" r="5"/><circle cx="2120" cy="344" r="4"/><circle cx="2176" cy="392" r="5"/><circle cx="2253" cy="327" r="4"/><circle cx="2385" cy="349" r="5"/><circle cx="2437" cy="336" r="6"/><circle cx="2499" cy="354" r="5"/><circle cx="47" cy="445" r="5"/><circle cx="153" cy="405" r="6"/><circle cx="178" cy="459" r="5"/><circle cx="296" cy="413" r="6"/><circle cx="374" cy="468" r="6"/><circle cx="464" cy="447" r="5"/><circle cx="537" cy="427" r="5"/><circle cx="608" cy="423" r="6"/><circle cx="654" cy="429" r="6"/><circle cx="748" cy="466" r="5"/><circle cx="811" cy="445" r="6"/><circle cx="885" cy="432" r="5"/><circle cx="979" cy="423" r="4"/><circle cx="1048" cy="471" r="6"/><circle cx="1141" cy="462" r="6"/><circle cx="1229" cy="470" r="5"/><circle cx="1353" cy="424" r="5"/><circle cx="1381" cy="473" r="5"/><circle cx="1473" cy="446" r="5"/><circle cx="1536" cy="416" r="5"/><circle cx="1603" cy="405" r="5"/><circle cx="1760" cy="466" r="4"/><circle cx="1779" cy="474" r="6"/><circle cx="1907" cy="470" r="5"/><circle cx="1979" cy="415" r="4"/><circle cx="2015" cy="470" r="5"/><circle cx="2124" cy="471" r="5"/><circle cx="2219" cy="404" r="5"/><circle cx="2272" cy="458" r="5"/><circle cx="2369" cy="437" r="5"/><circle cx="2447" cy="455" r="5"/><circle cx="2507" cy="471" r="5"/><circle cx="59" cy="547" r="6"/><circle cx="156" cy="491" r="4"/><circle cx="235" cy="514" r="5"/><circle cx="244" cy="482" r="6"/><circle cx="387" cy="522" r="4"/><circle cx="420" cy="484" r="6"/><circle cx="528" cy="530" r="5"/><circle cx="595" cy="551" r="6"/><circle cx="649" cy="549" r="5"/><circle cx="730" cy="493" r="4"/><circle cx="806" cy="548" r="6"/><circle cx="885" cy="483" r="6"/><circle cx="985" cy="517" r="5"/><circle cx="1108" cy="541" r="6"/><circle cx="1176" cy="521" r="5"/><circle cx="1216" cy="532" r="6"/><circle cx="1348" cy="504" r="5"/><circle cx="1370" cy="530" r="5"/><circle cx="1495" cy="494" r="6"/><circle cx="1537" cy="527" r="6"/><circle cx="1644" cy="523" r="6"/><circle cx="1713" cy="531" r="6"/><circle cx="1826" cy="485" r="4"/><circle cx="1906" cy="514" r="6"/><circle cx="1945" cy="508" r="6"/><circle cx="2070" cy="490" r="5"/><circle cx="2153" cy="546" r="5"/><circle cx="2233" cy="484" r="5"/><circle cx="2282" cy="526" r="6"/><circle cx="2396" cy="481" r="6"/><circle cx="2432" cy="480" r="6"/><circle cx="2507" cy="530" r="4"/><circle cx="60" cy="606" r="5"/><circle cx="148" cy="608" r="4"/><circle cx="177" cy="594" r="4"/><circle cx="244" cy="633" r="5"/><circle cx="325" cy="600" r="6"/><circle cx="454" cy="631" r="5"/><circle cx="560" cy="570" r="5"/><circle cx="630" cy="607" r="5"/><circle cx="718" cy="581" r="5"/><circle cx="784" cy="563" r="5"/><circle cx="851" cy="640" r="5"/><circle cx="901" cy="633" r="5"/><circle cx="984" cy="602" r="6"/><circle cx="1044" cy="631" r="4"/><circle cx="1170" cy="574" r="4"/><circle cx="1248" cy="578" r="6"/><circle cx="1330" cy="604" r="4"/><circle cx="1426" cy="629" r="4"/><circle cx="1494" cy="637" r="5"/><circle cx="1530" cy="612" r="6"/><circle cx="1669" cy="614" r="5"/><circle cx="1698" cy="604" r="4"/><circle cx="1805" cy="612" r="4"/><circle cx="1901" cy="563" r="4"/><circle cx="1998" cy="618" r="6"/><circle cx="2036" cy="580" r="5"/><circle cx="2151" cy="633" r="5"/><circle cx="2182" cy="562" r="5"/><circle cx="2248" cy="585" r="6"/><circle cx="2321" cy="570" r="4"/><circle cx="2453" cy="636" r="4"/><circle cx="2557" cy="577" r="5"/><circle cx="-3" cy="577" r="5"/><circle cx="35" cy="704" r="5"/><circle cx="118" cy="660" r="5"/><circle cx="217" cy="673" r="4"/><circle cx="287" cy="663" r="5"/><circle cx="364" cy="679" r="6"/><circle cx="440" cy="699" r="5"/><circle cx="482" cy="699" r="5"/><circle cx="562" cy="714" r="4"/><circle cx="682" cy="655" r="4"/><circle cx="740" cy="649" r="5"/><circle cx="872" cy="659" r="6"/><circle cx="930" cy="685" r="4"/><circle cx="994" cy="661" r="5"/><circle cx="1084" cy="706" r="5"/><circle cx="1177" cy="694" r="6"/><circle cx="1213" cy="647" r="5"/><circle cx="1322" cy="690" r="4"/><circle cx="1425" cy="654" r="4"/><circle cx="1495" cy="682" r="6"/><circle cx="1538" cy="649" r="4"/><circle cx="1641" cy="693" r="4"/><circle cx="1724" cy="694" r="5"/><circle cx="1826" cy="695" r="5"/><circle cx="1842" cy="647" r="4"/><circle cx="1995" cy="662" r="5"/><circle cx="2007" cy="650" r="5"/><circle cx="2157" cy="651" r="4"/><circle cx="2221" cy="673" r="5"/><circle cx="2252" cy="660" r="5"/><circle cx="2325" cy="718" r="5"/><circle cx="2410" cy="702" r="4"/><circle cx="2559" cy="705" r="6"/><circle cx="-1" cy="705" r="6"/><circle cx="70" cy="759" r="5"/><circle cx="92" cy="788" r="5"/><circle cx="214" cy="737" r="5"/><circle cx="262" cy="786" r="5"/><circle cx="344" cy="781" r="5"/><circle cx="435" cy="768" r="6"/><circle cx="558" cy="780" r="4"/><circle cx="594" cy="723" r="6"/><circle cx="654" cy="775" r="4"/><circle cx="752" cy="774" r="5"/><circle cx="804" cy="769" r="5"/><circle cx="918" cy="762" r="4"/><circle cx="981" cy="737" r="5"/><circle cx="1060" cy="750" r="5"/><circle cx="1164" cy="751" r="5"/><circle cx="1261" cy="722" r="4"/><circle cx="1323" cy="792" r="5"/><circle cx="1364" cy="763" r="4"/><circle cx="1441" cy="747" r="4"/><circle cx="1599" cy="769" r="4"/><circle cx="1660" cy="776" r="5"/><circle cx="1737" cy="744" r="5"/><circle cx="1823" cy="723" r="4"/><circle cx="1903" cy="753" r="6"/><circle cx="1969" cy="798" r="6"/><circle cx="2075" cy="748" r="5"/><circle cx="2148" cy="765" r="5"/><circle cx="2233" cy="750" r="6"/><circle cx="2267" cy="792" r="6"/><circle cx="2399" cy="787" r="5"/><circle cx="2433" cy="764" r="6"/><circle cx="2560" cy="797" r="5"/><circle cx="-0" cy="797" r="5"/><circle cx="38" cy="806" r="5"/><circle cx="120" cy="832" r="6"/><circle cx="189" cy="850" r="6"/><circle cx="268" cy="869" r="4"/><circle cx="335" cy="841" r="4"/><circle cx="436" cy="866" r="5"/><circle cx="482" cy="830" r="6"/><circle cx="609" cy="851" r="6"/><circle cx="657" cy="870" r="6"/><circle cx="761" cy="853" r="5"/><circle cx="816" cy="848" r="4"/><circle cx="958" cy="845" r="5"/><circle cx="1035" cy="859" r="5"/><circle cx="1110" cy="809" r="5"/><circle cx="1160" cy="828" r="4"/><circle cx="1251" cy="819" r="5"/><circle cx="1281" cy="865" r="5"/><circle cx="1428" cy="806" r="6"/><circle cx="1502" cy="821" r="5"/><circle cx="1594" cy="836" r="4"/><circle cx="1605" cy="856" r="4"/><circle cx="1719" cy="859" r="5"/><circle cx="1764" cy="854" r="6"/><circle cx="1916" cy="839" r="4"/><circle cx="1987" cy="870" r="5"/><circle cx="2080" cy="847" r="6"/><circle cx="2129" cy="828" r="5"/><circle cx="2206" cy="862" r="4"/><circle cx="2305" cy="821" r="5"/><circle cx="2376" cy="833" r="6"/><circle cx="2473" cy="819" r="4"/><circle cx="2513" cy="839" r="6"/><circle cx="59" cy="914" r="4"/><circle cx="159" cy="887" r="6"/><circle cx="179" cy="927" r="4"/><circle cx="302" cy="899" r="5"/><circle cx="356" cy="926" r="5"/><circle cx="423" cy="959" r="5"/><circle cx="500" cy="928" r="5"/><circle cx="600" cy="938" r="5"/><circle cx="715" cy="904" r="5"/><circle cx="758" cy="945" r="4"/><circle cx="802" cy="899" r="4"/><circle cx="883" cy="935" r="5"/><circle cx="1029" cy="911" r="5"/><circle cx="1070" cy="919" r="5"/><circle cx="1190" cy="906" r="5"/><circle cx="1239" cy="923" r="5"/><circle cx="1349" cy="910" r="5"/><circle cx="1395" cy="900" r="6"/><circle cx="1493" cy="915" r="6"/><circle cx="1566" cy="932" r="5"/><circle cx="1653" cy="960" r="5"/><circle cx="1716" cy="936" r="4"/><circle cx="1807" cy="952" r="5"/><circle cx="1893" cy="882" r="6"/><circle cx="1935" cy="884" r="5"/><circle cx="2010" cy="958" r="5"/><circle cx="2091" cy="884" r="5"/><circle cx="2178" cy="902" r="5"/><circle cx="2269" cy="918" r="5"/><circle cx="2365" cy="885" r="6"/><circle cx="2443" cy="947" r="5"/><circle cx="2497" cy="951" r="5"/><circle cx="5" cy="981" r="6"/><circle cx="2565" cy="981" r="6"/><circle cx="110" cy="991" r="5"/><circle cx="194" cy="1035" r="4"/><circle cx="309" cy="998" r="5"/><circle cx="327" cy="1010" r="5"/><circle cx="418" cy="988" r="4"/><circle cx="547" cy="1032" r="5"/><circle cx="561" cy="1039" r="4"/><circle cx="708" cy="998" r="4"/><circle cx="757" cy="1017" r="4"/><circle cx="819" cy="1028" r="5"/><circle cx="940" cy="1020" r="4"/><circle cx="1020" cy="1033" r="5"/><circle cx="1085" cy="976" r="6"/><circle cx="1200" cy="992" r="5"/><circle cx="1249" cy="984" r="5"/><circle cx="1341" cy="1036" r="4"/><circle cx="1404" cy="968" r="6"/><circle cx="1473" cy="1035" r="6"/><circle cx="1586" cy="1031" r="6"/><circle cx="1676" cy="1038" r="6"/><circle cx="1756" cy="1011" r="6"/><circle cx="1765" cy="979" r="4"/><circle cx="1868" cy="988" r="5"/><circle cx="1942" cy="976" r="4"/><circle cx="2034" cy="985" r="5"/><circle cx="2090" cy="1011" r="5"/><circle cx="2203" cy="962" r="5"/><circle cx="2271" cy="1000" r="5"/><circle cx="2362" cy="1009" r="5"/><circle cx="2426" cy="1032" r="6"/><circle cx="2538" cy="998" r="5"/><circle cx="77" cy="1092" r="5"/><circle cx="83" cy="1097" r="5"/><circle cx="162" cy="1094" r="5"/><circle cx="268" cy="1060" r="4"/><circle cx="397" cy="1054" r="5"/><circle cx="427" cy="1060" r="4"/><circle cx="510" cy="1106" r="5"/><circle cx="636" cy="1061" r="5"/><circle cx="649" cy="1051" r="6"/><circle cx="758" cy="1116" r="4"/><circle cx="845" cy="1063" r="5"/><circle cx="894" cy="1098" r="6"/><circle cx="1032" cy="1106" r="5"/><circle cx="1079" cy="1065" r="4"/><circle cx="1144" cy="1107" r="5"/><circle cx="1236" cy="1052" r="5"/><circle cx="1309" cy="1090" r="6"/><circle cx="1392" cy="1077" r="6"/><circle cx="1500" cy="1073" r="5"/><circle cx="1550" cy="1088" r="5"/><circle cx="1680" cy="1056" r="5"/><circle cx="1743" cy="1046" r="5"/><circle cx="1828" cy="1082" r="6"/><circle cx="1889" cy="1116" r="6"/><circle cx="1989" cy="1046" r="5"/><circle cx="2007" cy="1049" r="4"/><circle cx="2108" cy="1064" r="5"/><circle cx="2191" cy="1077" r="5"/><circle cx="2274" cy="1086" r="5"/><circle cx="2337" cy="1068" r="6"/><circle cx="2447" cy="1080" r="5"/><circle cx="2480" cy="1044" r="6"/><circle cx="51" cy="1139" r="5"/><circle cx="86" cy="1124" r="5"/><circle cx="180" cy="1174" r="4"/><circle cx="271" cy="1192" r="4"/><circle cx="363" cy="1193" r="4"/><circle cx="425" cy="1156" r="6"/><circle cx="485" cy="1127" r="4"/><circle cx="635" cy="1133" r="5"/><circle cx="687" cy="1176" r="5"/><circle cx="781" cy="1142" r="6"/><circle cx="808" cy="1165" r="4"/><circle cx="947" cy="1172" r="5"/><circle cx="982" cy="1189" r="6"/><circle cx="1045" cy="1164" r="5"/><circle cx="1148" cy="1178" r="6"/><circle cx="1211" cy="1141" r="4"/><circle cx="1280" cy="1159" r="4"/><circle cx="1426" cy="1127" r="6"/><circle cx="1467" cy="1183" r="6"/><circle cx="1554" cy="1176" r="5"/><circle cx="1609" cy="1151" r="6"/><circle cx="1698" cy="1177" r="6"/><circle cx="1762" cy="1177" r="5"/><circle cx="1877" cy="1146" r="5"/><circle cx="1937" cy="1167" r="5"/><circle cx="2022" cy="1143" r="5"/><circle cx="2101" cy="1173" r="5"/><circle cx="2165" cy="1133" r="6"/><circle cx="2310" cy="1197" r="5"/><circle cx="2367" cy="1132" r="6"/><circle cx="2464" cy="1173" r="5"/><circle cx="2535" cy="1163" r="5"/><circle cx="50" cy="1225" r="5"/><circle cx="124" cy="1209" r="6"/><circle cx="213" cy="1251" r="5"/><circle cx="271" cy="1250" r="5"/><circle cx="359" cy="1271" r="6"/><circle cx="426" cy="1242" r="5"/><circle cx="490" cy="1266" r="6"/><circle cx="606" cy="1277" r="5"/><circle cx="661" cy="1275" r="5"/><circle cx="758" cy="1209" r="5"/><circle cx="829" cy="1266" r="4"/><circle cx="915" cy="1224" r="5"/><circle cx="997" cy="1254" r="4"/><circle cx="1085" cy="1277" r="5"/><circle cx="1126" cy="1213" r="5"/><circle cx="1249" cy="1207" r="6"/><circle cx="1353" cy="1222" r="5"/><circle cx="1363" cy="1208" r="6"/><circle cx="1472" cy="1277" r="5"/><circle cx="1575" cy="1255" r="5"/><circle cx="1625" cy="1208" r="5"/><circle cx="1738" cy="1279" r="4"/><circle cx="1805" cy="1251" r="4"/><circle cx="1891" cy="1225" r="5"/><circle cx="1942" cy="1251" r="5"/><circle cx="2034" cy="1222" r="4"/><circle cx="2153" cy="1264" r="6"/><circle cx="2225" cy="1248" r="5"/><circle cx="2247" cy="1262" r="5"/><circle cx="2323" cy="1237" r="6"/><circle cx="2444" cy="1243" r="5"/><circle cx="2529" cy="1251" r="5"/><circle cx="27" cy="1330" r="5"/><circle cx="96" cy="1309" r="4"/><circle cx="233" cy="1309" r="5"/><circle cx="241" cy="1289" r="5"/><circle cx="333" cy="1288" r="5"/><circle cx="453" cy="1306" r="5"/><circle cx="488" cy="1358" r="5"/><circle cx="604" cy="1344" r="6"/><circle cx="665" cy="1328" r="6"/><circle cx="731" cy="1293" r="5"/><circle cx="865" cy="1319" r="6"/><circle cx="893" cy="1332" r="5"/><circle cx="997" cy="1356" r="5"/><circle cx="1042" cy="1301" r="5"/><circle cx="1184" cy="1344" r="5"/><circle cx="1212" cy="1299" r="6"/><circle cx="1322" cy="1284" r="5"/><circle cx="1378" cy="1312" r="6"/><circle cx="1454" cy="1343" r="6"/><circle cx="1598" cy="1317" r="5"/><circle cx="1609" cy="1291" r="5"/><circle cx="1703" cy="1312" r="5"/><circle cx="1824" cy="1321" r="4"/><circle cx="1874" cy="1313" r="5"/><circle cx="1931" cy="1305" r="6"/><circle cx="2000" cy="1304" r="5"/><circle cx="2105" cy="1344" r="5"/><circle cx="2171" cy="1331" r="5"/><circle cx="2291" cy="1308" r="5"/><circle cx="2388" cy="1336" r="5"/><circle cx="2425" cy="1346" r="5"/><circle cx="2542" cy="1336" r="4"/><circle cx="77" cy="1379" r="6"/><circle cx="144" cy="1426" r="4"/><circle cx="187" cy="1371" r="5"/><circle cx="292" cy="1389" r="5"/><circle cx="398" cy="1438" r="4"/><circle cx="398" cy="-2" r="4"/><circle cx="436" cy="1374" r="6"/><circle cx="501" cy="1373" r="4"/><circle cx="568" cy="1407" r="4"/><circle cx="672" cy="1404" r="4"/><circle cx="721" cy="1385" r="4"/><circle cx="854" cy="1390" r="5"/><circle cx="898" cy="1403" r="4"/><circle cx="969" cy="1403" r="4"/><circle cx="1046" cy="1434" r="4"/><circle cx="1156" cy="1384" r="6"/><circle cx="1212" cy="1363" r="6"/><circle cx="1281" cy="1414" r="5"/><circle cx="1373" cy="1387" r="6"/><circle cx="1517" cy="1381" r="5"/><circle cx="1573" cy="1398" r="5"/><circle cx="1612" cy="1364" r="5"/><circle cx="1703" cy="1437" r="4"/><circle cx="1703" cy="-3" r="4"/><circle cx="1823" cy="1363" r="6"/><circle cx="1872" cy="1385" r="4"/><circle cx="1996" cy="1425" r="6"/><circle cx="2051" cy="1406" r="6"/><circle cx="2088" cy="1366" r="5"/><circle cx="2187" cy="1399" r="6"/><circle cx="2252" cy="1406" r="5"/><circle cx="2376" cy="1401" r="5"/><circle cx="2438" cy="1375" r="5"/><circle cx="2498" cy="1429" r="6"/><path stroke="#fff" d="M47 10L109 5M47 10L-22 49M47 10L77 -61M47 10L144 -14M2607 10L2538 49M47 1450L77 1379M47 1450L144 1426M109 5L199 49M109 5L77 -61M109 5L144 -14M109 5L187 -69M109 1445L77 1379M109 1445L144 1426M109 1445L187 1371M199 49L284 79M199 49L158 136M199 49L240 83M199 49L144 -14M199 1489L144 1426M284 79L345 23M284 79L240 83M284 79L248 145M284 79L279 186M345 23L401 1M345 23L394 89M345 23L292 -51M345 23L398 -2M345 1463L292 1389M345 1463L398 1438M401 1L394 89M401 1L398 -2M401 1L436 -66M401 1441L398 1438M401 1441L436 1374M506 34L547 131M506 34L594 81M506 34L501 -67M506 34L568 -33M506 1474L501 1373M506 1474L568 1407M616 13L689 1M616 13L594 81M616 13L568 -33M616 13L672 -36M616 1453L568 1407M616 1453L672 1404M689 1L794 16M689 1L725 86M689 1L672 -36M689 1L721 -55M689 1441L672 1404M689 1441L721 1385M794 16L848 35M794 16L725 86M794 16L800 81M794 16L854 -50M794 1456L854 1390M848 35L800 81M848 35L890 126M848 35L854 -50M848 35L898 -37M848 1475L854 1390M848 1475L898 1403M960 58L963 46M960 58L890 126M960 58L1039 104M960 58L943 173M960 58L969 -37M960 1498L969 1403M963 46L890 126M963 46L1039 104M963 46L969 -37M963 46L1046 -6M963 1486L969 1403M963 1486L1046 1434M1106 38L1183 77M1106 38L1039 104M1106 38L1103 110M1106 38L1144 98M1106 38L1046 -6M1106 1478L1046 1434M1183 77L1270 49M1183 77L1103 110M1183 77L1144 98M1183 77L1216 152M1270 49L1312 44M1270 49L1343 104M1270 49L1281 -26M1270 1489L1281 1414M1312 44L1412 11M1312 44L1343 104M1312 44L1281 -26M1312 44L1373 -53M1312 1484L1281 1414M1312 1484L1373 1387M1412 11L1464 41M1412 11L1454 -97M1412 11L1373 -53M1412 1451L1454 1343M1412 1451L1373 1387M1464 41L1569 77M1464 41L1391 139M1464 41L1478 104M1464 41L1517 -59M1464 1481L1517 1381M1569 77L1606 69M1569 77L1478 104M1569 77L1560 144M1569 77L1616 137M1606 69L1560 144M1606 69L1616 137M1606 69L1696 134M1606 69L1573 -42M1606 1509L1573 1398M1744 45L1802 39M1744 45L1696 134M1744 45L1703 -3M1744 1485L1703 1437M1802 39L1900 40M1802 39L1835 135M1802 39L1703 -3M1802 39L1823 -77M1802 1479L1703 1437M1802 1479L1823 1363M1900 40L1960 10M1900 40L1910 106M1960 10L2016 47M1960 10L1996 -15M1960 10L2051 -34M1960 1450L1996 1425M1960 1450L2051 1406M2016 47L2031 93M2016 47L2086 80M2016 47L1996 -15M2016 47L2051 -34M2016 1487L1996 1425M2016 1487L2051 1406M2154 59L2160 21M2154 59L2086 80M2154 59L2164 130M2154 59L2173 168M2154 59L2187 -41M2154 1499L2187 1399M2160 21L2086 80M2160 21L2187 -41M2160 21L2252 -34M2160 1461L2187 1399M2160 1461L2252 1406M2305 19L2351 31M2305 19L2319 109M2305 19L2252 -34M2305 19L2376 -39M2305 1459L2252 1406M2305 1459L2376 1401M2351 31L2434 68M2351 31L2319 109M2351 31L2252 -34M2351 31L2376 -39M2351 1471L2252 1406M2351 1471L2376 1401M2434 68L2399 138M2434 68L2425 155M2434 68L2491 98M2434 68L2498 -11M2434 1508L2498 1429M2538 49L2577 156M2538 49L2491 98M2538 49L2498 -11M-22 49L17 156M2538 1489L2498 1429M17 156L23 225M17 156L-74 169M2577 156L2486 169M158 136L240 83M158 136L248 145M158 136L139 220M158 136L183 172M240 83L248 145M248 145L183 172M248 145L279 186M394 89L409 112M394 89L398 -2M394 1529L398 1438M409 112L398 -2M409 1552L398 1438M547 131L594 81M547 131L507 190M594 81L658 151M658 151L725 86M658 151L620 240M658 151L676 213M658 151L732 204M725 86L800 81M725 86L732 204M800 81L890 126M890 126L943 173M1039 104L1103 110M1103 110L1144 98M1103 110L1089 217M1144 98L1216 152M1144 98L1171 202M1216 152L1171 202M1216 152L1210 189M1216 152L1285 228M1343 104L1391 139M1391 139L1478 104M1391 139L1390 237M1391 139L1461 182M1478 104L1560 144M1478 104L1461 182M1560 144L1616 137M1560 144L1599 206M1616 137L1599 206M1616 137L1650 206M1696 134L1650 206M1696 134L1748 163M1835 135L1910 106M1835 135L1748 163M1835 135L1772 194M1835 135L1859 171M1910 106L1953 157M1910 106L1859 171M1910 106L1950 178M1953 157L2031 93M1953 157L1950 178M1953 157L2023 220M2031 93L2086 80M2031 93L1996 -15M2031 1533L1996 1425M2086 80L2164 130M2164 130L2090 190M2164 130L2173 168M2164 130L2263 199M2319 109L2399 138M2319 109L2263 199M2399 138L2425 155M2399 138L2439 200M2425 155L2491 98M2425 155L2439 200M2425 155L2486 169M2491 98L2486 169M2491 98L2498 -11M2491 1538L2498 1429M23 225L59 284M23 225L-66 256M2583 225L2494 256M139 220L183 172M139 220L145 302M139 220L225 273M279 186L356 220M279 186L225 273M279 186L314 275M356 220L436 225M356 220L314 275M356 220L374 287M436 225L507 190M436 225L374 287M436 225L464 257M507 190L464 257M507 190L514 305M620 240L676 213M620 240L563 294M620 240L663 308M676 213L732 204M676 213L663 308M732 204L810 230M732 204L779 291M810 230L943 173M810 230L779 291M810 230L866 250M943 173L970 208M943 173L866 250M970 208L866 250M1089 217L1171 202M1089 217L1068 263M1089 217L1138 243M1171 202L1210 189M1171 202L1138 243M1210 189L1285 228M1210 189L1138 243M1210 189L1294 261M1285 228L1233 315M1285 228L1294 261M1390 237L1461 182M1390 237L1294 261M1390 237L1435 259M1390 237L1428 323M1461 182L1435 259M1599 206L1650 206M1599 206L1561 280M1599 206L1633 260M1650 206L1633 260M1748 163L1772 194M1748 163L1781 271M1772 194L1859 171M1772 194L1739 291M1772 194L1781 271M1859 171L1950 178M1859 171L1865 253M1950 178L2023 220M1950 178L1944 263M2023 220L2090 190M2023 220L1944 263M2023 220L2007 255M2090 190L2173 168M2090 190L2108 302M2090 190L2183 249M2173 168L2263 199M2173 168L2183 249M2263 199L2183 249M2263 199L2300 302M2365 237L2300 302M2365 237L2396 250M2365 237L2408 253M2439 200L2486 169M2439 200L2396 250M2439 200L2408 253M2486 169L2494 256M59 284L145 302M59 284L8 393M59 284L159 327M145 302L225 273M145 302L159 327M145 302L153 405M225 273L314 275M225 273L159 327M314 275L374 287M314 275L314 377M374 287L464 257M374 287L416 356M464 257L514 305M464 257L487 328M514 305L563 294M514 305L487 328M514 305L570 346M563 294L487 328M563 294L570 346M663 308L689 345M663 308L735 339M779 291L866 250M779 291L735 339M779 291L801 368M866 250L938 319M938 319L1000 318M938 319L900 377M938 319L980 332M1000 318L1068 263M1000 318L980 332M1000 318L1086 324M1068 263L1138 243M1068 263L1086 324M1138 243L1086 324M1233 315L1294 261M1233 315L1177 343M1233 315L1270 373M1435 259L1495 313M1435 259L1428 323M1435 259L1458 353M1495 313L1561 280M1495 313L1428 323M1495 313L1458 353M1561 280L1633 260M1561 280L1594 352M1561 280L1602 372M1633 260L1594 352M1633 260L1693 335M1739 291L1781 271M1739 291L1865 253M1739 291L1693 335M1739 291L1785 392M1781 271L1865 253M1781 271L1693 335M1865 253L1944 263M1865 253L1922 348M1944 263L2007 255M1944 263L1922 348M2007 255L2108 302M2108 302L2183 249M2108 302L2120 344M2183 249L2253 327M2300 302L2253 327M2300 302L2385 349M2396 250L2408 253M2396 250L2494 256M2396 250L2437 336M2408 253L2494 256M2408 253L2437 336M2494 256L2437 336M8 393L-61 354M8 393L47 445M8 393L-53 471M2568 393L2499 354M2568 393L2507 471M159 327L193 395M159 327L153 405M193 395L153 405M193 395L178 459M193 395L296 413M193 395L244 482M314 377L382 381M314 377L416 356M314 377L296 413M382 381L416 356M382 381L296 413M382 381L374 468M416 356L487 328M416 356L464 447M487 328L570 346M570 346L537 427M570 346L608 423M689 345L735 339M689 345L608 423M689 345L654 429M735 339L801 368M801 368L811 445M801 368L885 432M900 377L980 332M900 377L885 432M900 377L979 423M900 377L885 483M980 332L1086 324M980 332L979 423M1086 324L1177 343M1177 343L1270 373M1270 373L1349 397M1270 373L1229 470M1270 373L1353 424M1349 397L1428 323M1349 397L1353 424M1349 397L1381 473M1349 397L1348 504M1428 323L1458 353M1458 353L1473 446M1594 352L1602 372M1594 352L1536 416M1594 352L1603 405M1602 372L1693 335M1602 372L1536 416M1602 372L1603 405M1693 335L1603 405M1785 392L1881 372M1785 392L1760 466M1785 392L1779 474M1785 392L1826 485M1881 372L1922 348M1922 348L2014 398M1922 348L1979 415M2014 398L1979 415M2014 398L2015 470M2014 398L2070 490M2120 344L2176 392M2120 344L2219 404M2176 392L2253 327M2176 392L2124 471M2176 392L2219 404M2253 327L2219 404M2385 349L2437 336M2385 349L2499 354M2385 349L2369 437M2437 336L2499 354M47 445L59 547M153 405L178 459M153 405L156 491M178 459L156 491M178 459L235 514M178 459L244 482M296 413L374 468M296 413L244 482M374 468L464 447M374 468L387 522M374 468L420 484M464 447L537 427M464 447L420 484M464 447L528 530M537 427L608 423M537 427L528 530M608 423L654 429M608 423L595 551M654 429L748 466M654 429L730 493M748 466L811 445M748 466L730 493M811 445L885 432M811 445L806 548M811 445L885 483M885 432L979 423M885 432L885 483M979 423L1048 471M979 423L985 517M1048 471L1141 462M1048 471L985 517M1048 471L1108 541M1141 462L1229 470M1141 462L1108 541M1141 462L1176 521M1141 462L1216 532M1229 470L1176 521M1229 470L1216 532M1229 470L1248 578M1353 424L1381 473M1353 424L1348 504M1353 424L1370 530M1381 473L1473 446M1381 473L1348 504M1381 473L1370 530M1473 446L1536 416M1473 446L1495 494M1473 446L1537 527M1536 416L1603 405M1536 416L1495 494M1603 405L1644 523M1760 466L1779 474M1760 466L1713 531M1760 466L1826 485M1779 474L1713 531M1779 474L1826 485M1907 470L1979 415M1907 470L1826 485M1907 470L1906 514M1907 470L1945 508M1907 470L1901 563M1979 415L2015 470M1979 415L1945 508M2015 470L1906 514M2015 470L1945 508M2015 470L2070 490M2124 471L2070 490M2124 471L2153 546M2219 404L2272 458M2219 404L2233 484M2272 458L2369 437M2272 458L2233 484M2272 458L2282 526M2369 437L2447 455M2369 437L2396 481M2369 437L2432 480M2447 455L2507 471M2447 455L2396 481M2447 455L2432 480M2447 455L2507 530M2507 471L2396 481M2507 471L2432 480M2507 471L2507 530M59 547L-53 530M59 547L60 606M59 547L-3 577M2619 547L2507 530M2619 547L2557 577M156 491L235 514M156 491L244 482M235 514L244 482M235 514L177 594M235 514L325 600M387 522L420 484M387 522L325 600M420 484L528 530M528 530L595 551M528 530L560 570M595 551L649 549M595 551L560 570M595 551L630 607M649 549L560 570M649 549L630 607M649 549L718 581M730 493L806 548M730 493L784 563M806 548L885 483M806 548L718 581M806 548L784 563M885 483L985 517M985 517L984 602M1108 541L1176 521M1108 541L1170 574M1176 521L1216 532M1176 521L1170 574M1216 532L1170 574M1216 532L1248 578M1348 504L1370 530M1348 504L1330 604M1370 530L1495 494M1370 530L1330 604M1495 494L1537 527M1495 494L1530 612M1537 527L1644 523M1537 527L1530 612M1644 523L1713 531M1644 523L1669 614M1644 523L1698 604M1713 531L1669 614M1713 531L1698 604M1826 485L1906 514M1906 514L1945 508M1906 514L1901 563M1945 508L1901 563M2070 490L2153 546M2070 490L2036 580M2153 546L2151 633M2153 546L2182 562M2233 484L2282 526M2233 484L2182 562M2282 526L2182 562M2282 526L2248 585M2282 526L2321 570M2396 481L2432 480M2396 481L2321 570M2432 480L2507 530M2507 530L2557 577M60 606L148 608M60 606L-3 577M60 606L35 704M60 606L118 660M2620 606L2557 577M148 608L177 594M148 608L244 633M148 608L118 660M177 594L244 633M177 594L118 660M177 594L217 673M244 633L325 600M244 633L217 673M244 633L287 663M325 600L287 663M325 600L364 679M454 631L560 570M454 631L364 679M454 631L440 699M454 631L482 699M560 570L630 607M630 607L682 655M718 581L784 563M718 581L682 655M718 581L740 649M784 563L851 640M784 563L740 649M851 640L901 633M851 640L740 649M851 640L872 659M901 633L984 602M901 633L872 659M901 633L930 685M984 602L1044 631M984 602L994 661M1044 631L994 661M1044 631L1084 706M1170 574L1248 578M1170 574L1213 647M1248 578L1330 604M1248 578L1213 647M1330 604L1426 629M1330 604L1322 690M1426 629L1494 637M1426 629L1425 654M1494 637L1530 612M1494 637L1425 654M1494 637L1495 682M1494 637L1538 649M1530 612L1495 682M1530 612L1538 649M1669 614L1698 604M1669 614L1641 693M1669 614L1724 694M1698 604L1805 612M1698 604L1724 694M1805 612L1826 695M1805 612L1842 647M1901 563L1998 618M1901 563L1842 647M1998 618L2036 580M1998 618L1995 662M1998 618L2007 650M2036 580L1995 662M2036 580L2007 650M2151 633L2182 562M2151 633L2157 651M2151 633L2221 673M2182 562L2248 585M2248 585L2321 570M2248 585L2221 673M2248 585L2252 660M2453 636L2557 577M2453 636L2410 702M35 704L118 660M35 704L-1 705M35 704L70 759M2595 704L2559 705M118 660L217 673M217 673L287 663M217 673L214 737M287 663L364 679M287 663L214 737M364 679L440 699M364 679L344 781M440 699L482 699M440 699L435 768M482 699L562 714M482 699L435 768M482 699L594 723M562 714L558 780M562 714L594 723M682 655L740 649M682 655L594 723M872 659L930 685M872 659L918 762M930 685L994 661M930 685L918 762M930 685L981 737M994 661L1084 706M994 661L981 737M1084 706L1177 694M1084 706L1060 750M1084 706L1164 751M1177 694L1213 647M1177 694L1164 751M1177 694L1261 722M1213 647L1261 722M1322 690L1425 654M1322 690L1261 722M1322 690L1364 763M1425 654L1495 682M1425 654L1441 747M1495 682L1538 649M1495 682L1441 747M1641 693L1724 694M1641 693L1599 769M1641 693L1660 776M1724 694L1737 744M1826 695L1842 647M1826 695L1737 744M1826 695L1823 723M1826 695L1903 753M1842 647L1823 723M1995 662L2007 650M1995 662L2075 748M2007 650L2075 748M2157 651L2221 673M2157 651L2252 660M2221 673L2252 660M2221 673L2233 750M2252 660L2325 718M2252 660L2233 750M2325 718L2410 702M2325 718L2233 750M2325 718L2267 792M2410 702L2399 787M2410 702L2433 764M2559 705L2630 759M2559 705L2560 797M-1 705L70 759M70 759L92 788M70 759L-0 797M70 759L38 806M2630 759L2560 797M92 788L-0 797M92 788L38 806M92 788L120 832M2652 788L2560 797M214 737L262 786M262 786L344 781M262 786L189 850M262 786L268 869M262 786L335 841M344 781L435 768M344 781L335 841M435 768L436 866M435 768L482 830M558 780L594 723M558 780L654 775M558 780L482 830M558 780L609 851M594 723L654 775M654 775L752 774M654 775L609 851M654 775L657 870M752 774L804 769M752 774L761 853M752 774L816 848M804 769L918 762M804 769L761 853M804 769L816 848M918 762L981 737M918 762L958 845M981 737L1060 750M981 737L958 845M1060 750L1164 751M1060 750L1035 859M1060 750L1110 809M1164 751L1110 809M1164 751L1160 828M1261 722L1323 792M1261 722L1251 819M1323 792L1364 763M1323 792L1251 819M1323 792L1281 865M1323 792L1428 806M1364 763L1441 747M1364 763L1428 806M1441 747L1428 806M1441 747L1502 821M1599 769L1660 776M1599 769L1594 836M1599 769L1605 856M1660 776L1737 744M1660 776L1594 836M1660 776L1719 859M1737 744L1823 723M1737 744L1764 854M1823 723L1903 753M1903 753L1969 798M1903 753L1916 839M1969 798L1916 839M1969 798L1987 870M1969 798L1893 882M1969 798L1935 884M2075 748L2148 765M2075 748L2080 847M2148 765L2233 750M2148 765L2080 847M2148 765L2129 828M2233 750L2267 792M2267 792L2206 862M2267 792L2305 821M2399 787L2433 764M2399 787L2305 821M2399 787L2376 833M2399 787L2473 819M2433 764L2376 833M2433 764L2473 819M2433 764L2513 839M2560 797L2598 806M2560 797L2513 839M-0 797L38 806M38 806L120 832M38 806L-47 839M2598 806L2513 839M120 832L189 850M120 832L59 914M120 832L159 887M189 850L268 869M189 850L159 887M189 850L179 927M268 869L335 841M268 869L302 899M335 841L302 899M335 841L356 926M436 866L482 830M436 866L423 959M436 866L500 928M482 830L500 928M609 851L657 870M609 851L600 938M657 870L600 938M657 870L715 904M761 853L816 848M761 853L715 904M761 853L802 899M816 848L802 899M958 845L1035 859M958 845L883 935M958 845L1029 911M1035 859L1110 809M1035 859L1029 911M1035 859L1070 919M1110 809L1160 828M1110 809L1070 919M1160 828L1251 819M1160 828L1190 906M1251 819L1281 865M1251 819L1239 923M1281 865L1190 906M1281 865L1239 923M1281 865L1349 910M1428 806L1502 821M1428 806L1395 900M1502 821L1594 836M1502 821L1605 856M1502 821L1493 915M1594 836L1605 856M1594 836L1566 932M1605 856L1566 932M1719 859L1764 854M1719 859L1716 936M1764 854L1716 936M1764 854L1807 952M1916 839L1987 870M1916 839L1893 882M1916 839L1935 884M1987 870L2080 847M1987 870L1893 882M1987 870L1935 884M2080 847L2129 828M2080 847L2091 884M2129 828L2206 862M2129 828L2091 884M2129 828L2178 902M2206 862L2178 902M2206 862L2269 918M2206 862L2203 962M2305 821L2376 833M2305 821L2365 885M2376 833L2473 819M2376 833L2365 885M2473 819L2513 839M59 914L159 887M59 914L5 981M59 914L110 991M159 887L179 927M179 927L110 991M179 927L194 1035M302 899L356 926M302 899L309 998M356 926L423 959M356 926L309 998M356 926L327 1010M423 959L500 928M423 959L418 988M423 959L397 1054M500 928L600 938M600 938L547 1032M715 904L758 945M715 904L802 899M715 904L708 998M758 945L802 899M758 945L708 998M758 945L757 1017M758 945L819 1028M802 899L883 935M883 935L940 1020M1029 911L1070 919M1029 911L1020 1033M1029 911L1085 976M1070 919L1085 976M1190 906L1239 923M1190 906L1200 992M1190 906L1249 984M1239 923L1200 992M1239 923L1249 984M1349 910L1395 900M1349 910L1404 968M1395 900L1493 915M1395 900L1404 968M1493 915L1566 932M1493 915L1404 968M1566 932L1653 960M1653 960L1716 936M1653 960L1586 1031M1653 960L1676 1038M1653 960L1680 1056M1716 936L1765 979M1807 952L1756 1011M1807 952L1765 979M1807 952L1868 988M1893 882L1935 884M1893 882L1868 988M1935 884L1942 976M2010 958L1942 976M2010 958L2034 985M2010 958L2090 1011M2010 958L1989 1046M2010 958L2007 1049M2091 884L2178 902M2178 902L2269 918M2178 902L2203 962M2269 918L2365 885M2269 918L2203 962M2269 918L2271 1000M2365 885L2443 947M2443 947L2497 951M2443 947L2362 1009M2443 947L2426 1032M2497 951L2565 981M2497 951L2538 998M2497 951L2480 1044M-63 951L5 981M5 981L110 991M5 981L-22 998M5 981L-80 1044M2565 981L2538 998M2565 981L2480 1044M110 991L194 1035M110 991L77 1092M194 1035L162 1094M194 1035L268 1060M309 998L327 1010M309 998L268 1060M327 1010L418 988M327 1010L268 1060M327 1010L397 1054M418 988L397 1054M418 988L427 1060M547 1032L561 1039M547 1032L510 1106M547 1032L636 1061M547 1032L649 1051M561 1039L510 1106M561 1039L636 1061M561 1039L649 1051M561 1039L635 1133M708 998L757 1017M708 998L636 1061M708 998L649 1051M757 1017L819 1028M757 1017L845 1063M819 1028L845 1063M819 1028L894 1098M940 1020L1020 1033M940 1020L894 1098M1020 1033L1085 976M1020 1033L1032 1106M1020 1033L1079 1065M1085 976L1200 992M1085 976L1079 1065M1200 992L1249 984M1200 992L1236 1052M1249 984L1236 1052M1341 1036L1404 968M1341 1036L1309 1090M1341 1036L1392 1077M1404 968L1473 1035M1473 1035L1392 1077M1473 1035L1500 1073M1473 1035L1550 1088M1473 1035L1426 1127M1586 1031L1676 1038M1586 1031L1500 1073M1586 1031L1550 1088M1586 1031L1680 1056M1676 1038L1756 1011M1676 1038L1680 1056M1676 1038L1743 1046M1756 1011L1765 979M1756 1011L1680 1056M1756 1011L1743 1046M1765 979L1868 988M1765 979L1743 1046M1868 988L1942 976M1868 988L1828 1082M1942 976L2034 985M1942 976L1989 1046M2034 985L2090 1011M2034 985L1989 1046M2034 985L2007 1049M2090 1011L2007 1049M2090 1011L2108 1064M2203 962L2271 1000M2203 962L2191 1077M2271 1000L2362 1009M2271 1000L2274 1086M2271 1000L2337 1068M2362 1009L2426 1032M2362 1009L2337 1068M2426 1032L2337 1068M2426 1032L2447 1080M2426 1032L2480 1044M2538 998L2480 1044M77 1092L83 1097M77 1092L162 1094M77 1092L51 1139M77 1092L86 1124M83 1097L162 1094M83 1097L51 1139M83 1097L86 1124M162 1094L86 1124M162 1094L180 1174M397 1054L427 1060M427 1060L510 1106M427 1060L425 1156M427 1060L485 1127M510 1106L425 1156M510 1106L485 1127M636 1061L649 1051M636 1061L635 1133M649 1051L635 1133M758 1116L845 1063M758 1116L687 1176M758 1116L781 1142M758 1116L808 1165M845 1063L894 1098M845 1063L781 1142M894 1098L947 1172M1032 1106L1079 1065M1032 1106L982 1189M1032 1106L1045 1164M1079 1065L1144 1107M1144 1107L1236 1052M1144 1107L1148 1178M1144 1107L1211 1141M1144 1107L1126 1213M1236 1052L1309 1090M1236 1052L1211 1141M1309 1090L1392 1077M1309 1090L1280 1159M1392 1077L1500 1073M1392 1077L1426 1127M1500 1073L1550 1088M1500 1073L1426 1127M1550 1088L1554 1176M1550 1088L1609 1151M1680 1056L1743 1046M1743 1046L1828 1082M1828 1082L1889 1116M1828 1082L1762 1177M1828 1082L1877 1146M1889 1116L1877 1146M1889 1116L1937 1167M1989 1046L2007 1049M1989 1046L2022 1143M2007 1049L2022 1143M2108 1064L2191 1077M2108 1064L2101 1173M2108 1064L2165 1133M2191 1077L2274 1086M2191 1077L2165 1133M2274 1086L2337 1068M2274 1086L2165 1133M2337 1068L2367 1132M2447 1080L2480 1044M2447 1080L2367 1132M2447 1080L2464 1173M51 1139L86 1124M51 1139L-25 1163M51 1139L50 1225M2611 1139L2535 1163M86 1124L124 1209M180 1174L271 1192M180 1174L124 1209M180 1174L213 1251M271 1192L363 1193M271 1192L271 1250M363 1193L425 1156M363 1193L359 1271M363 1193L426 1242M363 1193L333 1288M425 1156L485 1127M425 1156L426 1242M635 1133L687 1176M687 1176L781 1142M687 1176L661 1275M687 1176L758 1209M781 1142L808 1165M781 1142L758 1209M808 1165L758 1209M947 1172L982 1189M947 1172L1045 1164M947 1172L915 1224M947 1172L997 1254M982 1189L1045 1164M982 1189L915 1224M982 1189L997 1254M1045 1164L1148 1178M1045 1164L1126 1213M1148 1178L1211 1141M1148 1178L1126 1213M1148 1178L1249 1207M1211 1141L1280 1159M1211 1141L1249 1207M1280 1159L1249 1207M1280 1159L1353 1222M1426 1127L1467 1183M1426 1127L1363 1208M1467 1183L1554 1176M1467 1183L1353 1222M1467 1183L1363 1208M1467 1183L1472 1277M1554 1176L1609 1151M1554 1176L1575 1255M1554 1176L1625 1208M1609 1151L1698 1177M1609 1151L1625 1208M1698 1177L1762 1177M1698 1177L1625 1208M1698 1177L1738 1279M1698 1177L1703 1312M1762 1177L1877 1146M1762 1177L1738 1279M1762 1177L1805 1251M1877 1146L1937 1167M1877 1146L1891 1225M1937 1167L2022 1143M1937 1167L1891 1225M1937 1167L1942 1251M2022 1143L2101 1173M2022 1143L2034 1222M2101 1173L2165 1133M2101 1173L2034 1222M2101 1173L2153 1264M2310 1197L2367 1132M2310 1197L2247 1262M2310 1197L2323 1237M2367 1132L2464 1173M2367 1132L2323 1237M2464 1173L2535 1163M2464 1173L2444 1243M2535 1163L2610 1225M2535 1163L2444 1243M2535 1163L2529 1251M-25 1163L50 1225M50 1225L124 1209M50 1225L-31 1251M50 1225L27 1330M2610 1225L2529 1251M124 1209L213 1251M124 1209L96 1309M213 1251L271 1250M213 1251L233 1309M213 1251L241 1289M271 1250L233 1309M271 1250L241 1289M271 1250L333 1288M359 1271L426 1242M359 1271L333 1288M426 1242L490 1266M426 1242L453 1306M490 1266L453 1306M490 1266L488 1358M606 1277L661 1275M606 1277L604 1344M606 1277L665 1328M661 1275L604 1344M661 1275L665 1328M661 1275L731 1293M758 1209L829 1266M758 1209L731 1293M829 1266L915 1224M829 1266L731 1293M829 1266L865 1319M829 1266L893 1332M915 1224L997 1254M915 1224L865 1319M997 1254L1085 1277M997 1254L1042 1301M1085 1277L1126 1213M1085 1277L1042 1301M1085 1277L1184 1344M1085 1277L1156 1384M1249 1207L1212 1299M1353 1222L1363 1208M1353 1222L1322 1284M1353 1222L1378 1312M1363 1208L1322 1284M1472 1277L1575 1255M1472 1277L1378 1312M1472 1277L1454 1343M1575 1255L1625 1208M1575 1255L1598 1317M1575 1255L1609 1291M1625 1208L1609 1291M1738 1279L1805 1251M1738 1279L1703 1312M1805 1251L1824 1321M1891 1225L1942 1251M1891 1225L1874 1313M1891 1225L1931 1305M1942 1251L1931 1305M1942 1251L2000 1304M2034 1222L2000 1304M2153 1264L2225 1248M2153 1264L2247 1262M2153 1264L2105 1344M2153 1264L2171 1331M2225 1248L2247 1262M2225 1248L2323 1237M2225 1248L2171 1331M2225 1248L2291 1308M2247 1262L2323 1237M2247 1262L2291 1308M2323 1237L2291 1308M2444 1243L2529 1251M2444 1243L2388 1336M2444 1243L2425 1346M2529 1251L2587 1330M2529 1251L2542 1336M-31 1251L27 1330M27 1330L96 1309M27 1330L-18 1336M27 1330L77 1379M2587 1330L2542 1336M96 1309L77 1379M233 1309L241 1289M233 1309L333 1288M233 1309L187 1371M241 1289L333 1288M241 1289L187 1371M453 1306L488 1358M453 1306L436 1374M453 1306L501 1373M488 1358L436 1374M488 1358L501 1373M488 1358L568 1407M604 1344L665 1328M604 1344L568 1407M604 1344L672 1404M665 1328L731 1293M665 1328L672 1404M731 1293L721 1385M865 1319L893 1332M865 1319L854 1390M865 1319L898 1403M893 1332L854 1390M893 1332L898 1403M997 1356L1042 1301M997 1356L969 1403M997 1356L1046 1434M1184 1344L1212 1299M1184 1344L1156 1384M1184 1344L1212 1363M1184 1344L1281 1414M1212 1299L1322 1284M1212 1299L1156 1384M1212 1299L1212 1363M1322 1284L1378 1312M1378 1312L1454 1343M1378 1312L1373 1387M1454 1343L1373 1387M1454 1343L1517 1381M1598 1317L1609 1291M1598 1317L1517 1381M1598 1317L1573 1398M1598 1317L1612 1364M1609 1291L1703 1312M1609 1291L1612 1364M1703 1312L1612 1364M1703 1312L1823 1363M1824 1321L1874 1313M1824 1321L1823 1363M1824 1321L1872 1385M1874 1313L1931 1305M1874 1313L1823 1363M1874 1313L1872 1385M1931 1305L2000 1304M1931 1305L1872 1385M2105 1344L2171 1331M2105 1344L2051 1406M2105 1344L2088 1366M2105 1344L2187 1399M2171 1331L2088 1366M2171 1331L2187 1399M2291 1308L2388 1336M2291 1308L2252 1406M2388 1336L2425 1346M2388 1336L2376 1401M2388 1336L2438 1375M2425 1346L2376 1401M2425 1346L2438 1375M2425 1346L2498 1429M2542 1336L2438 1375M77 1379L144 1426M144 1426L187 1371M187 1371L292 1389M398 1438L436 1374M436 1374L501 1373M501 1373L568 1407M672 1404L721 1385M854 1390L898 1403M898 1403L969 1403M969 1403L1046 1434M1156 1384L1212 1363M1212 1363L1281 1414M1281 1414L1373 1387M1517 1381L1573 1398M1517 1381L1612 1364M1573 1398L1612 1364M1823 1363L1872 1385M1996 1425L2051 1406M1996 1425L2088 1366M2051 1406L2088 1366M2187 1399L2252 1406M2376 1401L2438 1375M2438 1375L2498 1429"/></svg>