<svg xmlns="http://www.w3.org/2000/svg" width="2560" height="1440" fill="#fff"><circle cx="13" cy="43" r="6"/><circle cx="128" cy="78" r="4"/><circle cx="161" cy="26" r="6"/><circle cx="257" cy="1" r="4"/><circle cx="257" cy="1441" r="4"/><circle cx="327" cy="36" r="5"/><circle cx="432" cy="17" r="5"/><circle cx="522" cy="35" r="5"/><circle cx="563" cy="22" r="5"/><circle cx="706" cy="7" r="5"/><circle cx="725" cy="53" r="4"/><circle cx="842" cy="57" r="6"/><circle cx="913" cy="46" r="6"/><circle cx="968" cy="13" r="4"/><circle cx="1086" cy="14" r="6"/><circle cx="1129" cy="31" r="5"/><circle cx="1237" cy="24" r="5"/><circle cx="1307" cy="1" r="6"/><circle cx="1307" cy="1441" r="6"/><circle cx="1412" cy="19" r="6"/><circle cx="1441" cy="38" r="4"/><circle cx="1593" cy="35" r="6"/><circle cx="1660" cy="13" r="5"/><circle cx="1720" cy="15" r="4"/><circle cx="1762" cy="39" r="5"/><circle cx="1861" cy="19" r="6"/><circle cx="1922" cy="11" r="4"/><circle cx="2009" cy="79" r="5"/><circle cx="2084" cy="61" r="5"/><circle cx="2206" cy="51" r="6"/><circle cx="2252" cy="13" r="6"/><circle cx="2328" cy="6" r="5"/><circle cx="2420" cy="58" r="4"/><circle cx="2524" cy="61" r="5"/><circle cx="66" cy="87" r="6"/><circle cx="143" cy="146" r="5"/><circle cx="207" cy="100" r="5"/><circle cx="312" cy="86" r="5"/><circle cx="359" cy="124" r="4"/><circle cx="445" cy="127" r="4"/><circle cx="498" cy="92" r="5"/><circle cx="600" cy="136" r="5"/><circle cx="704" cy="90" r="4"/><circle cx="761" cy="106" r="6"/><circle cx="844" cy="97" r="5"/><circle cx="909" cy="137" r="5"/><circle cx="969" cy="150" r="5"/><circle cx="1072" cy="106" r="5"/><circle cx="1132" cy="128" r="4"/><circle cx="1233" cy="140" r="5"/><circle cx="1324" cy="139" r="4"/><circle cx="1416" cy="112" r="5"/><circle cx="1484" cy="84" r="5"/><circle cx="1572" cy="126" r="5"/><circle cx="1622" cy="149" r="5"/><circle cx="1685" cy="144" r="5"/><circle cx="1774" cy="89" r="6"/><circle cx="1888" cy="131" r="5"/><circle cx="1970" cy="146" r="5"/><circle cx="2049" cy="125" r="5"/><circle cx="2156" cy="129" r="5"/><circle cx="2212" cy="117" r="4"/><circle cx="2253" cy="98" r="5"/><circle cx="2337" cy="145" r="6"/><circle cx="2478" cy="106" r="6"/><circle cx="2533" cy="125" r="6"/><circle cx="41" cy="184" r="5"/><circle cx="97" cy="218" r="5"/><circle cx="195" cy="173" r="5"/><circle cx="276" cy="221" r="6"/><circle cx="355" cy="234" r="5"/><circle cx="403" cy="187" r="5"/><circle cx="506" cy="239" r="6"/><circle cx="619" cy="166" r="6"/><circle cx="707" cy="193" r="4"/><circle cx="746" cy="235" r="6"/><circle cx="823" cy="231" r="6"/><circle cx="895" cy="189" r="5"/><circle cx="1022" cy="184" r="6"/><circle cx="1046" cy="182" r="5"/><circle cx="1154" cy="207" r="5"/><circle cx="1247" cy="195" r="5"/><circle cx="1332" cy="207" r="6"/><circle cx="1361" cy="168" r="5"/><circle cx="1475" cy="212" r="5"/><circle cx="1535" cy="221" r="4"/><circle cx="1616" cy="223" r="4"/><circle cx="1696" cy="173" r="6"/><circle cx="1827" cy="231" r="5"/><circle cx="1867" cy="179" r="4"/><circle cx="1948" cy="180" r="5"/><circle cx="2042" cy="218" r="4"/><circle cx="2097" cy="198" r="4"/><circle cx="2219" cy="235" r="6"/><circle cx="2295" cy="216" r="6"/><circle cx="2327" cy="168" r="5"/><circle cx="2405" cy="193" r="6"/><circle cx="2537" cy="166" r="6"/><circle cx="79" cy="284" r="4"/><circle cx="85" cy="251" r="4"/><circle cx="231" cy="309" r="5"/><circle cx="256" cy="316" r="5"/><circle cx="380" cy="242" r="5"/><circle cx="458" cy="255" r="5"/><circle cx="486" cy="293" r="4"/><circle cx="573" cy="286" r="5"/><circle cx="654" cy="251" r="4"/><circle cx="794" cy="243" r="5"/><circle cx="806" cy="287" r="6"/><circle cx="901" cy="294" r="5"/><circle cx="1026" cy="251" r="5"/><circle cx="1079" cy="292" r="5"/><circle cx="1164" cy="318" r="6"/><circle cx="1225" cy="276" r="5"/><circle cx="1336" cy="258" r="4"/><circle cx="1363" cy="248" r="4"/><circle cx="1444" cy="265" r="4"/><circle cx="1547" cy="305" r="5"/><circle cx="1639" cy="248" r="5"/><circle cx="1756" cy="284" r="5"/><circle cx="1763" cy="298" r="4"/><circle cx="1848" cy="302" r="6"/><circle cx="1950" cy="314" r="5"/><circle cx="2070" cy="275" r="4"/><circle cx="2141" cy="251" r="5"/><circle cx="2168" cy="303" r="6"/><circle cx="2312" cy="308" r="5"/><circle cx="2343" cy="318" r="5"/><circle cx="2460" cy="292" r="5"/><circle cx="2542" cy="313" r="4"/><circle cx="29" cy="322" r="6"/><circle cx="111" cy="394" r="4"/><circle cx="230" cy="357" r="6"/><circle cx="303" cy="353" r="5"/><circle cx="386" cy="342" r="4"/><circle cx="469" cy="327" r="5"/><circle cx="531" cy="375" r="5"/><circle cx="587" cy="336" r="4"/><circle cx="713" cy="375" r="5"/><circle cx="779" cy="390" r="6"/><circle cx="818" cy="330" r="4"/><circle cx="950" cy="368" r="5"/><circle cx="960" cy="335" r="6"/><circle cx="1103" cy="346" r="5"/><circle cx="1196" cy="337" r="5"/><circle cx="1246" cy="322" r="5"/><circle cx="1287" cy="362" r="5"/><circle cx="1430" cy="363" r="4"/><circle cx="1442" cy="355" r="5"/><circle cx="1522" cy="382" r="5"/><circle cx="1673" cy="360" r="4"/><circle cx="1737" cy="365" r="5"/><circle cx="1814" cy="400" r="5"/><circle cx="1867" cy="356" r="4"/><circle cx="1951" cy="340" r="5"/><circle cx="2008" cy="340" r="5"/><circle cx="2110" cy="390" r="5"/><circle cx="2226" cy="337" r="5"/><circle cx="2242" cy="393" r="4"/><circle cx="2342" cy="365" r="5"/><circle cx="2418" cy="328" r="4"/><circle cx="2485" cy="382" r="5"/><circle cx="41" cy="425" r="5"/><circle cx="150" cy="476" r="6"/><circle cx="203" cy="409" r="4"/><circle cx="247" cy="403" r="4"/><circle cx="355" cy="467" r="6"/><circle cx="468" cy="447" r="6"/><circle cx="509" cy="444" r="5"/><circle cx="622" cy="458" r="5"/><circle cx="659" cy="470" r="4"/><circle cx="800" cy="434" r="5"/><circle cx="844" cy="475" r="5"/><circle cx="891" cy="449" r="5"/><circle cx="973" cy="402" r="4"/><circle cx="1072" cy="428" r="5"/><circle cx="1184" cy="453" r="5"/><circle cx="1279" cy="478" r="5"/><circle cx="1320" cy="414" r="5"/><circle cx="1378" cy="447" r="4"/><circle cx="1501" cy="413" r="4"/><circle cx="1557" cy="459" r="6"/><circle cx="1622" cy="410" r="5"/><circle cx="1760" cy="472" r="6"/><circle cx="1825" cy="450" r="5"/><circle cx="1870" cy="404" r="4"/><circle cx="1983" cy="467" r="4"/><circle cx="2049" cy="435" r="4"/><circle cx="2146" cy="476" r="4"/><circle cx="2229" cy="433" r="4"/><circle cx="2315" cy="412" r="4"/><circle cx="2361" cy="457" r="4"/><circle cx="2464" cy="465" r="4"/><circle cx="2525" cy="414" r="6"/><circle cx="43" cy="552" r="5"/><circle cx="92" cy="523" r="6"/><circle cx="233" cy="555" r="4"/><circle cx="297" cy="545" r="5"/><circle cx="391" cy="510" r="5"/><circle cx="414" cy="534" r="6"/><circle cx="510" cy="502" r="6"/><circle cx="578" cy="491" r="5"/><circle cx="647" cy="510" r="6"/><circle cx="749" cy="495" r="5"/><circle cx="877" cy="482" r="4"/><circle cx="946" cy="541" r="6"/><circle cx="980" cy="557" r="4"/><circle cx="1057" cy="549" r="4"/><circle cx="1150" cy="513" r="5"/><circle cx="1279" cy="489" r="5"/><circle cx="1296" cy="553" r="5"/><circle cx="1405" cy="507" r="5"/><circle cx="1441" cy="559" r="6"/><circle cx="1580" cy="521" r="5"/><circle cx="1619" cy="507" r="6"/><circle cx="1695" cy="517" r="6"/><circle cx="1777" cy="483" r="5"/><circle cx="1917" cy="538" r="6"/><circle cx="1988" cy="486" r="4"/><circle cx="2078" cy="541" r="5"/><circle cx="2154" cy="528" r="5"/><circle cx="2227" cy="531" r="5"/><circle cx="2270" cy="546" r="5"/><circle cx="2330" cy="497" r="5"/><circle cx="2424" cy="551" r="5"/><circle cx="2484" cy="508" r="5"/><circle cx="36" cy="611" r="5"/><circle cx="82" cy="574" r="4"/><circle cx="201" cy="635" r="5"/><circle cx="301" cy="629" r="5"/><circle cx="367" cy="565" r="5"/><circle cx="465" cy="581" r="4"/><circle cx="505" cy="564" r="4"/><circle cx="613" cy="617" r="5"/><circle cx="678" cy="591" r="6"/><circle cx="740" cy="573" r="5"/><circle cx="836" cy="629" r="5"/><circle cx="903" cy="629" r="5"/><circle cx="985" cy="628" r="6"/><circle cx="1070" cy="599" r="6"/><circle cx="1167" cy="598" r="6"/><circle cx="1256" cy="592" r="5"/><circle cx="1348" cy="580" r="5"/><circle cx="1425" cy="593" r="5"/><circle cx="1464" cy="638" r="4"/><circle cx="1573" cy="576" r="4"/><circle cx="1636" cy="609" r="4"/><circle cx="1752" cy="619" r="5"/><circle cx="1825" cy="610" r="5"/><circle cx="1905" cy="621" r="5"/><circle cx="1940" cy="600" r="4"/><circle cx="2000" cy="626" r="5"/><circle cx="2131" cy="565" r="6"/><circle cx="2162" cy="572" r="6"/><circle cx="2297" cy="620" r="5"/><circle cx="2362" cy="608" r="5"/><circle cx="2467" cy="589" r="5"/><circle cx="2539" cy="613" r="6"/><circle cx="16" cy="696" r="5"/><circle cx="154" cy="684" r="4"/><circle cx="217" cy="711" r="5"/><circle cx="262" cy="670" r="6"/><circle cx="396" cy="687" r="5"/><circle cx="479" cy="676" r="5"/><circle cx="525" cy="680" r="5"/><circle cx="630" cy="719" r="5"/><circle cx="646" cy="677" r="6"/><circle cx="749" cy="679" r="5"/><circle cx="825" cy="671" r="5"/><circle cx="893" cy="711" r="5"/><circle cx="1036" cy="692" r="5"/><circle cx="1041" cy="701" r="6"/><circle cx="1182" cy="688" r="6"/><circle cx="1257" cy="709" r="6"/><circle cx="1302" cy="668" r="5"/><circle cx="1370" cy="649" r="5"/><circle cx="1468" cy="683" r="5"/><circle cx="1587" cy="717" r="4"/><circle cx="1610" cy="653" r="4"/><circle cx="1718" cy="669" r="4"/><circle cx="1790" cy="664" r="6"/><circle cx="1875" cy="660" r="4"/><circle cx="1983" cy="698" r="5"/><circle cx="2072" cy="647" r="5"/><circle cx="2086" cy="707" r="4"/><circle cx="2197" cy="669" r="6"/><circle cx="2274" cy="693" r="4"/><circle cx="2342" cy="698" r="5"/><circle cx="2430" cy="676" r="5"/><circle cx="2499" cy="702" r="6"/><circle cx="20" cy="792" r="5"/><circle cx="139" cy="755" r="5"/><circle cx="171" cy="754" r="5"/><circle cx="264" cy="722" r="5"/><circle cx="399" cy="745" r="5"/><circle cx="476" cy="761" r="5"/><circle cx="523" cy="736" r="4"/><circle cx="593" cy="734" r="5"/><circle cx="668" cy="787" r="6"/><circle cx="765" cy="796" r="4"/><circle cx="870" cy="731" r="5"/><circle cx="960" cy="795" r="4"/><circle cx="1019" cy="785" r="5"/><circle cx="1077" cy="787" r="4"/><circle cx="1163" cy="789" r="4"/><circle cx="1209" cy="726" r="4"/><circle cx="1341" cy="778" r="5"/><circle cx="1361" cy="747" r="5"/><circle cx="1484" cy="772" r="5"/><circle cx="1598" cy="737" r="5"/><circle cx="1645" cy="795" r="4"/><circle cx="1690" cy="734" r="4"/><circle cx="1766" cy="758" r="6"/><circle cx="1891" cy="726" r="6"/><circle cx="2000" cy="779" r="6"/><circle cx="2052" cy="771" r="4"/><circle cx="2097" cy="796" r="5"/><circle cx="2214" cy="778" r="5"/><circle cx="2316" cy="789" r="6"/><circle cx="2375" cy="736" r="5"/><circle cx="2449" cy="738" r="4"/><circle cx="2530" cy="798" r="5"/><circle cx="32" cy="808" r="5"/><circle cx="108" cy="833" r="6"/><circle cx="215" cy="873" r="5"/><circle cx="297" cy="825" r="5"/><circle cx="327" cy="873" r="5"/><circle cx="428" cy="830" r="6"/><circle cx="540" cy="816" r="6"/><circle cx="569" cy="845" r="5"/><circle cx="708" cy="838" r="4"/><circle cx="764" cy="824" r="6"/><circle cx="834" cy="816" r="5"/><circle cx="885" cy="854" r="4"/><circle cx="1006" cy="807" r="5"/><circle cx="1085" cy="864" r="5"/><circle cx="1187" cy="828" r="6"/><circle cx="1210" cy="826" r="5"/><circle cx="1339" cy="824" r="6"/><circle cx="1419" cy="862" r="5"/><circle cx="1451" cy="849" r="4"/><circle cx="1567" cy="823" r="5"/><circle cx="1637" cy="857" r="4"/><circle cx="1756" cy="802" r="5"/><circle cx="1791" cy="801" r="5"/><circle cx="1879" cy="844" r="4"/><circle cx="1979" cy="845" r="6"/><circle cx="2014" cy="807" r="6"/><circle cx="2107" cy="805" r="5"/><circle cx="2182" cy="878" r="5"/><circle cx="2247" cy="840" r="5"/><circle cx="2376" cy="826" r="4"/><circle cx="2459" cy="879" r="4"/><circle cx="2510" cy="857" r="4"/><circle cx="52" cy="890" r="5"/><circle cx="93" cy="944" r="5"/><circle cx="211" cy="901" r="5"/><circle cx="319" cy="923" r="6"/><circle cx="357" cy="947" r="5"/><circle cx="420" cy="894" r="6"/><circle cx="483" cy="912" r="5"/><circle cx="591" cy="904" r="5"/><circle cx="670" cy="943" r="4"/><circle cx="741" cy="892" r="4"/><circle cx="866" cy="927" r="4"/><circle cx="884" cy="953" r="5"/><circle cx="986" cy="915" r="6"/><circle cx="1089" cy="922" r="5"/><circle cx="1124" cy="897" r="6"/><circle cx="1230" cy="924" r="5"/><circle cx="1327" cy="929" r="4"/><circle cx="1361" cy="920" r="5"/><circle cx="1498" cy="950" r="5"/><circle cx="1547" cy="947" r="6"/><circle cx="1622" cy="887" r="6"/><circle cx="1753" cy="943" r="6"/><circle cx="1803" cy="881" r="6"/><circle cx="1872" cy="895" r="5"/><circle cx="1960" cy="950" r="4"/><circle cx="2078" cy="902" r="4"/><circle cx="2148" cy="929" r="5"/><circle cx="2175" cy="884" r="6"/><circle cx="2272" cy="956" r="4"/><circle cx="2364" cy="889" r="5"/><circle cx="2443" cy="894" r="5"/><circle cx="2546" cy="913" r="5"/><circle cx="13" cy="1016" r="4"/><circle cx="94" cy="1035" r="4"/><circle cx="222" cy="988" r="5"/><circle cx="264" cy="1038" r="5"/><circle cx="335" cy="1025" r="5"/><circle cx="435" cy="984" r="6"/><circle cx="544" cy="1028" r="6"/><circle cx="593" cy="1001" r="5"/><circle cx="669" cy="1010" r="5"/><circle cx="786" cy="967" r="5"/><circle cx="849" cy="1034" r="6"/><circle cx="942" cy="1003" r="5"/><circle cx="982" cy="993" r="5"/><circle cx="1056" cy="1019" r="5"/><circle cx="1168" cy="1014" r="5"/><circle cx="1201" cy="965" r="4"/><circle cx="1281" cy="982" r="5"/><circle cx="1414" cy="1012" r="5"/><circle cx="1464" cy="1032" r="4"/><circle cx="1597" cy="1034" r="5"/><circle cx="1679" cy="987" r="6"/><circle cx="1705" cy="993" r="4"/><circle cx="1786" cy="1038" r="5"/><circle cx="1916" cy="1026" r="5"/><circle cx="1988" cy="990" r="4"/><circle cx="2031" cy="1024" r="4"/><circle cx="2099" cy="971" r="6"/><circle cx="2175" cy="1005" r="4"/><circle cx="2294" cy="980" r="4"/><circle cx="2374" cy="1000" r="4"/><circle cx="2433" cy="965" r="6"/><circle cx="2483" cy="970" r="5"/><circle cx="46" cy="1110" r="6"/><circle cx="108" cy="1074" r="5"/><circle cx="216" cy="1103" r="5"/><circle cx="284" cy="1113" r="5"/><circle cx="358" cy="1051" r="5"/><circle cx="428" cy="1104" r="4"/><circle cx="499" cy="1041" r="6"/><circle cx="562" cy="1111" r="5"/><circle cx="665" cy="1042" r="4"/><circle cx="754" cy="1090" r="6"/><circle cx="815" cy="1117" r="5"/><circle cx="916" cy="1071" r="5"/><circle cx="968" cy="1100" r="5"/><circle cx="1119" cy="1106" r="6"/><circle cx="1131" cy="1101" r="5"/><circle cx="1206" cy="1114" r="6"/><circle cx="1288" cy="1099" r="4"/><circle cx="1433" cy="1069" r="5"/><circle cx="1490" cy="1057" r="5"/><circle cx="1526" cy="1065" r="4"/><circle cx="1659" cy="1084" r="6"/><circle cx="1696" cy="1079" r="4"/><circle cx="1800" cy="1049" r="6"/><circle cx="1846" cy="1059" r="5"/><circle cx="1930" cy="1114" r="4"/><circle cx="2064" cy="1102" r="5"/><circle cx="2096" cy="1055" r="4"/><circle cx="2177" cy="1080" r="5"/><circle cx="2250" cy="1117" r="4"/><circle cx="2324" cy="1110" r="5"/><circle cx="2439" cy="1071" r="6"/><circle cx="2547" cy="1089" r="6"/><circle cx="51" cy="1170" r="5"/><circle cx="99" cy="1155" r="5"/><circle cx="230" cy="1177" r="5"/><circle cx="244" cy="1160" r="6"/><circle cx="321" cy="1190" r="5"/><circle cx="470" cy="1192" r="6"/><circle cx="534" cy="1145" r="6"/><circle cx="578" cy="1135" r="5"/><circle cx="665" cy="1179" r="4"/><circle cx="777" cy="1156" r="6"/><circle cx="818" cy="1194" r="6"/><circle cx="947" cy="1169" r="5"/><circle cx="989" cy="1147" r="5"/><circle cx="1103" cy="1167" r="5"/><circle cx="1136" cy="1145" r="5"/><circle cx="1271" cy="1158" r="5"/><circle cx="1360" cy="1187" r="5"/><circle cx="1404" cy="1122" r="5"/><circle cx="1495" cy="1169" r="5"/><circle cx="1550" cy="1171" r="5"/><circle cx="1638" cy="1169" r="5"/><circle cx="1692" cy="1172" r="4"/><circle cx="1816" cy="1166" r="4"/><circle cx="1892" cy="1159" r="5"/><circle cx="1972" cy="1149" r="5"/><circle cx="2026" cy="1172" r="4"/><circle cx="2091" cy="1130" r="5"/><circle cx="2227" cy="1182" r="5"/><circle cx="2285" cy="1193" r="5"/><circle cx="2372" cy="1134" r="6"/><circle cx="2406" cy="1149" r="4"/><circle cx="2540" cy="1199" r="4"/><circle cx="5" cy="1263" r="5"/><circle cx="106" cy="1252" r="6"/><circle cx="187" cy="1228" r="5"/><circle cx="289" cy="1227" r="4"/><circle cx="334" cy="1227" r="5"/><circle cx="478" cy="1263" r="6"/><circle cx="519" cy="1204" r="5"/><circle cx="639" cy="1214" r="4"/><circle cx="715" cy="1207" r="5"/><circle cx="799" cy="1258" r="5"/><circle cx="828" cy="1225" r="4"/><circle cx="937" cy="1247" r="6"/><circle cx="1002" cy="1201" r="5"/><circle cx="1063" cy="1241" r="4"/><circle cx="1191" cy="1276" r="5"/><circle cx="1279" cy="1225" r="5"/><circle cx="1306" cy="1274" r="4"/><circle cx="1368" cy="1224" r="4"/><circle cx="1503" cy="1238" r="6"/><circle cx="1532" cy="1231" r="5"/><circle cx="1634" cy="1218" r="5"/><circle cx="1699" cy="1257" r="5"/><circle cx="1827" cy="1247" r="5"/><circle cx="1895" cy="1275" r="4"/><circle cx="1923" cy="1244" r="5"/><circle cx="2002" cy="1248" r="5"/><circle cx="2133" cy="1210" r="4"/><circle cx="2208" cy="1253" r="4"/><circle cx="2315" cy="1245" r="5"/><circle cx="2354" cy="1270" r="6"/><circle cx="2465" cy="1276" r="5"/><circle cx="2533" cy="1218" r="4"/><circle cx="64" cy="1352" r="5"/><circle cx="90" cy="1354" r="6"/><circle cx="192" cy="1334" r="5"/><circle cx="296" cy="1295" r="5"/><circle cx="322" cy="1294" r="5"/><circle cx="449" cy="1331" r="5"/><circle cx="527" cy="1322" r="6"/><circle cx="608" cy="1287" r="6"/><circle cx="704" cy="1331" r="6"/><circle cx="748" cy="1286" r="4"/><circle cx="810" cy="1337" r="4"/><circle cx="910" cy="1314" r="4"/><circle cx="960" cy="1339" r="4"/><circle cx="1086" cy="1305" r="6"/><circle cx="1193" cy="1280" r="5"/><circle cx="1277" cy="1339" r="5"/><circle cx="1344" cy="1336" r="6"/><circle cx="1360" cy="1288" r="5"/><circle cx="1476" cy="1334" r="5"/><circle cx="1536" cy="1343" r="6"/><circle cx="1625" cy="1337" r="5"/><circle cx="1684" cy="1312" r="4"/><circle cx="1807" cy="1347" r="6"/><circle cx="1903" cy="1343" r="5"/><circle cx="1929" cy="1288" r="5"/><circle cx="2005" cy="1316" r="6"/><circle cx="2123" cy="1318" r="6"/><circle cx="2162" cy="1342" r="6"/><circle cx="2298" cy="1349" r="5"/><circle cx="2329" cy="1319" r="6"/><circle cx="2429" cy="1289" r="6"/><circle cx="2548" cy="1297" r="4"/><circle cx="68" cy="1387" r="5"/><circle cx="89" cy="1369" r="6"/><circle cx="163" cy="1370" r="5"/><circle cx="277" cy="1411" r="5"/><circle cx="346" cy="1430" r="5"/><circle cx="478" cy="1387" r="5"/><circle cx="521" cy="1386" r="5"/><circle cx="604" cy="1385" r="5"/><circle cx="709" cy="1388" r="6"/><circle cx="732" cy="1419" r="5"/><circle cx="841" cy="1425" r="5"/><circle cx="933" cy="1364" r="4"/><circle cx="988" cy="1373" r="5"/><circle cx="1058" cy="1420" r="4"/><circle cx="1180" cy="1438" r="4"/><circle cx="1180" cy="-2" r="4"/><circle cx="1273" cy="1438" r="5"/><circle cx="1273" cy="-2" r="5"/><circle cx="1328" cy="1401" r="5"/><circle cx="1401" cy="1427" r="4"/><circle cx="1447" cy="1370" r="5"/><circle cx="1568" cy="1423" r="5"/><circle cx="1601" cy="1401" r="4"/><circle cx="1702" cy="1400" r="5"/><circle cx="1798" cy="1378" r="5"/><circle cx="1903" cy="1409" r="4"/><circle cx="1943" cy="1424" r="4"/><circle cx="2071" cy="1377" r="4"/><circle cx="2133" cy="1418" r="5"/><circle cx="2234" cy="1400" r="6"/><circle cx="2288" cy="1398" r="4"/><circle cx="2321" cy="1380" r="4"/><circle cx="2414" cy="1393" r="5"/><circle cx="2485" cy="1427" r="4"/><path stroke="#fff" d="M13 43L-36 61M13 43L66 87M13 43L-82 106M13 43L-27 125M13 43L-75 -13M2573 43L2524 61M2573 43L2478 106M2573 43L2533 125M2573 43L2485 -13M13 1483L-75 1427M2573 1483L2485 1427M128 78L161 26M128 78L66 87M128 78L143 146M128 78L207 100M128 78L195 173M161 26L257 1M161 26L207 100M161 26L163 -70M161 1466L163 1370M257 1L327 36M257 1L312 86M257 1L277 -29M257 1L346 -10M257 1441L277 1411M257 1441L346 1430M327 36L312 86M327 36L359 124M327 36L277 -29M327 36L346 -10M327 1476L277 1411M327 1476L346 1430M432 17L522 35M432 17L498 92M432 17L346 -10M432 17L478 -53M432 1457L346 1430M432 1457L478 1387M522 35L563 22M522 35L498 92M522 35L478 -53M522 35L521 -54M522 1475L478 1387M522 1475L521 1386M563 22L498 92M563 22L521 -54M563 22L604 -55M563 1462L521 1386M563 1462L604 1385M706 7L725 53M706 7L704 90M706 7L704 -109M706 7L709 -52M706 7L732 -21M706 1447L704 1331M706 1447L709 1388M706 1447L732 1419M725 53L704 90M725 53L761 106M725 53L709 -52M725 53L732 -21M725 1493L709 1388M725 1493L732 1419M842 57L913 46M842 57L761 106M842 57L844 97M842 57L909 137M842 57L841 -15M842 1497L841 1425M913 46L968 13M913 46L844 97M913 46L909 137M913 46L841 -15M913 1486L841 1425M968 13L1086 14M968 13L933 -76M968 13L988 -67M968 13L1058 -20M968 1453L933 1364M968 1453L988 1373M968 1453L1058 1420M1086 14L1129 31M1086 14L1072 106M1086 14L1058 -20M1086 14L1180 -2M1086 1454L1058 1420M1086 1454L1180 1438M1129 31L1237 24M1129 31L1072 106M1129 31L1058 -20M1129 31L1180 -2M1129 1471L1058 1420M1129 1471L1180 1438M1237 24L1307 1M1237 24L1180 -2M1237 24L1273 -2M1237 1464L1180 1438M1237 1464L1273 1438M1307 1L1273 -2M1307 1L1328 -39M1307 1L1401 -13M1307 1441L1273 1438M1307 1441L1328 1401M1307 1441L1401 1427M1412 19L1441 38M1412 19L1416 112M1412 19L1484 84M1412 19L1401 -13M1412 19L1447 -70M1412 1459L1401 1427M1412 1459L1447 1370M1441 38L1416 112M1441 38L1484 84M1441 38L1401 -13M1441 1478L1401 1427M1593 35L1660 13M1593 35L1572 126M1593 35L1568 -17M1593 35L1601 -39M1593 1475L1568 1423M1593 1475L1601 1401M1660 13L1720 15M1660 13L1568 -17M1660 13L1601 -39M1660 13L1702 -40M1660 1453L1568 1423M1660 1453L1601 1401M1660 1453L1702 1400M1720 15L1762 39M1720 15L1774 89M1720 15L1702 -40M1720 15L1798 -62M1720 1455L1702 1400M1720 1455L1798 1378M1762 39L1774 89M1762 39L1798 -62M1762 1479L1798 1378M1861 19L1922 11M1861 19L1774 89M1861 19L1798 -62M1861 19L1903 -31M1861 19L1943 -16M1861 1459L1798 1378M1861 1459L1903 1409M1861 1459L1943 1424M1922 11L2009 79M1922 11L1903 -31M1922 11L1943 -16M1922 1451L1903 1409M1922 1451L1943 1424M2009 79L2084 61M2009 79L1970 146M2009 79L2049 125M2009 79L1948 180M2084 61L2049 125M2084 61L2156 129M2084 61L2133 -22M2084 1501L2133 1418M2206 51L2252 13M2206 51L2156 129M2206 51L2212 117M2206 51L2253 98M2206 51L2234 -40M2206 1491L2234 1400M2252 13L2328 6M2252 13L2253 98M2252 13L2234 -40M2252 13L2288 -42M2252 1453L2234 1400M2252 1453L2288 1398M2328 6L2288 -42M2328 6L2321 -60M2328 6L2414 -47M2328 1446L2288 1398M2328 1446L2321 1380M2328 1446L2414 1393M2420 58L2337 145M2420 58L2478 106M2420 58L2414 -47M2420 58L2485 -13M2420 1498L2414 1393M2420 1498L2485 1427M2524 61L2626 87M2524 61L2478 106M2524 61L2533 125M2524 61L2485 -13M-36 61L66 87M2524 1501L2485 1427M66 87L143 146M143 146L207 100M143 146L97 218M143 146L195 173M207 100L312 86M207 100L195 173M312 86L359 124M312 86L346 -10M312 1526L346 1430M359 124L445 127M359 124L355 234M359 124L403 187M445 127L498 92M445 127L403 187M498 92L600 136M600 136L619 166M704 90L761 106M704 90L619 166M761 106L844 97M761 106L707 193M844 97L909 137M844 97L841 -15M844 1537L841 1425M909 137L969 150M909 137L895 189M969 150L895 189M969 150L1022 184M969 150L1046 182M1072 106L1132 128M1072 106L1022 184M1072 106L1046 182M1132 128L1233 140M1132 128L1154 207M1233 140L1324 139M1233 140L1154 207M1233 140L1247 195M1324 139L1416 112M1324 139L1247 195M1324 139L1332 207M1324 139L1361 168M1416 112L1484 84M1416 112L1361 168M1484 84L1572 126M1572 126L1622 149M1572 126L1685 144M1572 126L1535 221M1622 149L1685 144M1622 149L1616 223M1622 149L1696 173M1622 149L1639 248M1685 144L1774 89M1685 144L1696 173M1685 144L1639 248M1774 89L1696 173M1888 131L1970 146M1888 131L1827 231M1888 131L1867 179M1888 131L1948 180M1970 146L2049 125M1970 146L1948 180M1970 146L2042 218M2049 125L2042 218M2049 125L2097 198M2156 129L2212 117M2156 129L2097 198M2212 117L2253 98M2253 98L2337 145M2253 98L2327 168M2337 145L2295 216M2337 145L2327 168M2337 145L2405 193M2478 106L2533 125M2478 106L2537 166M2533 125L2601 184M2533 125L2537 166M-27 125L41 184M41 184L97 218M41 184L-23 166M41 184L79 284M41 184L85 251M2601 184L2537 166M97 218L195 173M97 218L79 284M97 218L85 251M195 173L276 221M276 221L355 234M276 221L231 309M276 221L256 316M276 221L380 242M355 234L403 187M355 234L380 242M403 187L380 242M403 187L458 255M506 239L458 255M506 239L486 293M506 239L573 286M506 239L469 327M619 166L707 193M619 166L654 251M707 193L746 235M707 193L654 251M707 193L794 243M746 235L823 231M746 235L654 251M746 235L794 243M746 235L806 287M823 231L895 189M823 231L794 243M823 231L806 287M823 231L901 294M1022 184L1046 182M1022 184L1026 251M1022 184L1079 292M1046 182L1026 251M1154 207L1247 195M1154 207L1225 276M1247 195L1332 207M1247 195L1225 276M1332 207L1361 168M1332 207L1336 258M1332 207L1363 248M1361 168L1336 258M1361 168L1363 248M1475 212L1535 221M1475 212L1363 248M1475 212L1444 265M1535 221L1616 223M1535 221L1547 305M1616 223L1696 173M1616 223L1547 305M1616 223L1639 248M1696 173L1639 248M1827 231L1867 179M1827 231L1756 284M1827 231L1763 298M1827 231L1848 302M1867 179L1948 180M1948 180L2042 218M2042 218L2097 198M2042 218L2070 275M2097 198L2070 275M2097 198L2141 251M2219 235L2295 216M2219 235L2141 251M2219 235L2168 303M2219 235L2312 308M2219 235L2226 337M2295 216L2327 168M2295 216L2405 193M2295 216L2312 308M2327 168L2405 193M2405 193L2537 166M2405 193L2460 292M79 284L85 251M79 284L-18 313M79 284L29 322M2639 284L2542 313M85 251L29 322M231 309L256 316M231 309L230 357M231 309L303 353M231 309L247 403M256 316L230 357M256 316L303 353M256 316L247 403M380 242L458 255M380 242L386 342M458 255L486 293M458 255L469 327M486 293L573 286M486 293L469 327M573 286L654 251M573 286L531 375M573 286L587 336M654 251L587 336M794 243L806 287M794 243L818 330M806 287L901 294M806 287L818 330M901 294L818 330M901 294L950 368M901 294L960 335M1026 251L1079 292M1026 251L960 335M1026 251L1103 346M1079 292L1164 318M1079 292L960 335M1079 292L1103 346M1164 318L1225 276M1164 318L1103 346M1164 318L1196 337M1164 318L1246 322M1225 276L1196 337M1225 276L1246 322M1336 258L1363 248M1336 258L1287 362M1363 248L1444 265M1444 265L1547 305M1444 265L1430 363M1444 265L1442 355M1547 305L1639 248M1547 305L1522 382M1756 284L1763 298M1756 284L1848 302M1756 284L1673 360M1756 284L1737 365M1763 298L1848 302M1763 298L1737 365M1848 302L1950 314M1848 302L1867 356M1950 314L1867 356M1950 314L1951 340M1950 314L2008 340M1950 314L1870 404M2070 275L2141 251M2070 275L2168 303M2070 275L2008 340M2141 251L2168 303M2168 303L2110 390M2168 303L2226 337M2312 308L2343 318M2312 308L2226 337M2312 308L2342 365M2343 318L2460 292M2343 318L2342 365M2343 318L2418 328M2460 292L2542 313M2460 292L2418 328M2460 292L2485 382M2542 313L2589 322M2542 313L2485 382M-18 313L29 322M29 322L41 425M29 322L-35 414M2589 322L2525 414M111 394L41 425M111 394L150 476M111 394L203 409M230 357L303 353M230 357L203 409M230 357L247 403M303 353L386 342M303 353L247 403M386 342L469 327M469 327L531 375M531 375L587 336M531 375L468 447M531 375L509 444M713 375L779 390M713 375L659 470M779 390L818 330M779 390L800 434M779 390L844 475M779 390L749 495M950 368L960 335M950 368L891 449M950 368L973 402M960 335L973 402M1103 346L1196 337M1103 346L1072 428M1196 337L1246 322M1196 337L1287 362M1246 322L1287 362M1246 322L1320 414M1287 362L1320 414M1430 363L1442 355M1430 363L1522 382M1430 363L1378 447M1430 363L1501 413M1442 355L1522 382M1442 355L1501 413M1522 382L1501 413M1522 382L1557 459M1673 360L1737 365M1673 360L1622 410M1737 365L1814 400M1737 365L1760 472M1814 400L1867 356M1814 400L1760 472M1814 400L1825 450M1814 400L1870 404M1867 356L1951 340M1867 356L1870 404M1951 340L2008 340M1951 340L1870 404M2008 340L2110 390M2008 340L2049 435M2110 390L2049 435M2110 390L2146 476M2226 337L2242 393M2226 337L2229 433M2242 393L2229 433M2242 393L2315 412M2342 365L2418 328M2342 365L2315 412M2342 365L2361 457M2418 328L2485 382M2485 382L2464 465M2485 382L2525 414M41 425L150 476M41 425L-35 414M41 425L92 523M2601 425L2525 414M150 476L203 409M150 476L92 523M150 476L233 555M203 409L247 403M355 467L297 545M355 467L391 510M355 467L414 534M355 467L367 565M468 447L509 444M468 447L391 510M468 447L414 534M468 447L510 502M509 444L622 458M509 444L510 502M509 444L578 491M622 458L659 470M622 458L578 491M622 458L647 510M659 470L578 491M659 470L647 510M800 434L844 475M800 434L891 449M800 434L749 495M800 434L877 482M844 475L891 449M844 475L749 495M844 475L877 482M891 449L877 482M891 449L946 541M973 402L1072 428M1072 428L1184 453M1072 428L1150 513M1184 453L1279 478M1184 453L1150 513M1184 453L1279 489M1279 478L1320 414M1279 478L1378 447M1279 478L1279 489M1279 478L1296 553M1320 414L1378 447M1320 414L1279 489M1378 447L1405 507M1501 413L1557 459M1557 459L1622 410M1557 459L1580 521M1557 459L1619 507M1622 410L1619 507M1760 472L1825 450M1760 472L1695 517M1760 472L1777 483M1825 450L1870 404M1825 450L1777 483M1983 467L2049 435M1983 467L1917 538M1983 467L1988 486M2049 435L1988 486M2146 476L2078 541M2146 476L2154 528M2146 476L2131 565M2229 433L2315 412M2229 433L2227 531M2315 412L2361 457M2315 412L2330 497M2361 457L2464 465M2361 457L2330 497M2464 465L2525 414M2464 465L2424 551M2464 465L2484 508M2525 414L2484 508M43 552L92 523M43 552L36 611M43 552L82 574M43 552L-21 613M2603 552L2539 613M92 523L36 611M92 523L82 574M233 555L297 545M233 555L201 635M297 545L391 510M297 545L301 629M297 545L367 565M391 510L414 534M391 510L367 565M414 534L367 565M414 534L465 581M510 502L578 491M510 502L465 581M510 502L505 564M578 491L647 510M647 510L749 495M647 510L678 591M749 495L740 573M877 482L946 541M946 541L980 557M946 541L903 629M980 557L1057 549M980 557L985 628M1057 549L1150 513M1057 549L1070 599M1057 549L1167 598M1150 513L1167 598M1279 489L1296 553M1279 489L1256 592M1296 553L1405 507M1296 553L1256 592M1296 553L1348 580M1405 507L1441 559M1405 507L1425 593M1441 559L1348 580M1441 559L1425 593M1441 559L1464 638M1580 521L1619 507M1580 521L1695 517M1580 521L1573 576M1580 521L1636 609M1619 507L1695 517M1619 507L1573 576M1695 517L1777 483M1695 517L1636 609M1917 538L1988 486M1917 538L1825 610M1917 538L1905 621M1917 538L1940 600M2078 541L2154 528M2078 541L2131 565M2078 541L2162 572M2078 541L2072 647M2154 528L2227 531M2154 528L2131 565M2154 528L2162 572M2227 531L2270 546M2227 531L2131 565M2227 531L2162 572M2270 546L2330 497M2270 546L2297 620M2330 497L2424 551M2424 551L2484 508M2424 551L2362 608M2424 551L2467 589M2484 508L2467 589M36 611L82 574M36 611L-21 613M36 611L16 696M2596 611L2539 613M201 635L301 629M201 635L154 684M201 635L217 711M201 635L262 670M301 629L367 565M301 629L262 670M301 629L264 722M465 581L505 564M613 617L678 591M613 617L525 680M613 617L630 719M613 617L646 677M678 591L740 573M678 591L646 677M678 591L749 679M740 573L749 679M836 629L903 629M836 629L749 679M836 629L825 671M836 629L893 711M836 629L870 731M903 629L985 628M903 629L825 671M903 629L893 711M985 628L1070 599M985 628L1036 692M985 628L1041 701M1070 599L1167 598M1070 599L1036 692M1070 599L1041 701M1167 598L1256 592M1167 598L1182 688M1256 592L1348 580M1256 592L1302 668M1348 580L1425 593M1348 580L1370 649M1425 593L1464 638M1425 593L1370 649M1464 638L1370 649M1464 638L1468 683M1573 576L1636 609M1573 576L1610 653M1636 609L1610 653M1636 609L1718 669M1752 619L1825 610M1752 619L1718 669M1752 619L1790 664M1825 610L1905 621M1825 610L1790 664M1825 610L1875 660M1905 621L1940 600M1905 621L2000 626M1905 621L1875 660M1940 600L2000 626M1940 600L1875 660M2000 626L1983 698M2000 626L2072 647M2131 565L2162 572M2162 572L2197 669M2297 620L2362 608M2297 620L2197 669M2297 620L2274 693M2362 608L2467 589M2362 608L2342 698M2467 589L2539 613M2467 589L2430 676M2539 613L2576 696M2539 613L2499 702M-21 613L16 696M16 696L-61 702M16 696L20 792M2576 696L2499 702M154 684L217 711M154 684L262 670M154 684L139 755M154 684L171 754M217 711L262 670M217 711L171 754M217 711L264 722M262 670L264 722M396 687L479 676M396 687L399 745M479 676L525 680M479 676L399 745M479 676L476 761M479 676L523 736M525 680L523 736M630 719L646 677M630 719L593 734M630 719L668 787M646 677L593 734M646 677L668 787M749 679L825 671M825 671L893 711M825 671L870 731M893 711L870 731M893 711L960 795M1036 692L1041 701M1036 692L1019 785M1041 701L1019 785M1041 701L1077 787M1182 688L1257 709M1182 688L1302 668M1182 688L1163 789M1182 688L1209 726M1257 709L1302 668M1257 709L1209 726M1257 709L1341 778M1257 709L1361 747M1302 668L1370 649M1302 668L1361 747M1370 649L1361 747M1468 683L1484 772M1587 717L1610 653M1587 717L1598 737M1610 653L1598 737M1718 669L1790 664M1718 669L1690 734M1718 669L1766 758M1790 664L1875 660M1790 664L1766 758M1875 660L1891 726M1983 698L2072 647M1983 698L1891 726M1983 698L2000 779M2072 647L2086 707M2072 647L2197 669M2086 707L2052 771M2086 707L2097 796M2197 669L2274 693M2197 669L2214 778M2274 693L2342 698M2342 698L2430 676M2342 698L2316 789M2342 698L2375 736M2430 676L2499 702M2430 676L2375 736M2430 676L2449 738M2499 702L2449 738M2499 702L2530 798M20 792L-30 798M20 792L32 808M20 792L108 833M2580 792L2530 798M139 755L171 754M139 755L108 833M171 754L264 722M171 754L108 833M264 722L297 825M399 745L476 761M399 745L428 830M476 761L523 736M476 761L428 830M476 761L540 816M523 736L593 734M523 736L540 816M593 734L668 787M593 734L540 816M668 787L708 838M668 787L764 824M765 796L708 838M765 796L764 824M765 796L834 816M765 796L741 892M870 731L960 795M870 731L834 816M960 795L1019 785M960 795L885 854M960 795L1006 807M1019 785L1077 787M1019 785L1006 807M1077 787L1163 789M1077 787L1006 807M1077 787L1085 864M1163 789L1209 726M1163 789L1187 828M1163 789L1210 826M1209 726L1210 826M1341 778L1361 747M1341 778L1339 824M1341 778L1419 862M1361 747L1339 824M1484 772L1419 862M1484 772L1451 849M1484 772L1567 823M1598 737L1645 795M1598 737L1690 734M1598 737L1567 823M1645 795L1690 734M1645 795L1567 823M1645 795L1637 857M1645 795L1622 887M1690 734L1766 758M1690 734L1756 802M1766 758L1756 802M1766 758L1791 801M1891 726L1791 801M1891 726L1879 844M2000 779L2052 771M2000 779L2097 796M2000 779L1979 845M2000 779L2014 807M2052 771L2097 796M2052 771L2014 807M2052 771L2107 805M2097 796L2014 807M2097 796L2107 805M2214 778L2316 789M2214 778L2182 878M2214 778L2247 840M2316 789L2375 736M2316 789L2247 840M2316 789L2376 826M2375 736L2449 738M2375 736L2376 826M2449 738L2530 798M2530 798L2592 808M2530 798L2510 857M-30 798L32 808M32 808L108 833M32 808L-50 857M32 808L52 890M2592 808L2510 857M108 833L52 890M215 873L297 825M215 873L211 901M215 873L222 988M297 825L327 873M297 825L211 901M297 825L319 923M327 873L319 923M327 873L357 947M327 873L420 894M428 830L420 894M428 830L483 912M540 816L569 845M540 816L591 904M569 845L483 912M569 845L591 904M708 838L764 824M708 838L741 892M764 824L834 816M764 824L741 892M834 816L885 854M885 854L866 927M1006 807L1085 864M1006 807L986 915M1085 864L1187 828M1085 864L1089 922M1085 864L1124 897M1187 828L1210 826M1187 828L1124 897M1187 828L1230 924M1210 826L1124 897M1210 826L1230 924M1339 824L1419 862M1339 824L1327 929M1339 824L1361 920M1419 862L1451 849M1419 862L1361 920M1451 849L1498 950M1567 823L1637 857M1567 823L1622 887M1637 857L1622 887M1756 802L1791 801M1756 802L1803 881M1791 801L1879 844M1791 801L1803 881M1879 844L1979 845M1879 844L1803 881M1879 844L1872 895M1979 845L2014 807M1979 845L1872 895M1979 845L1960 950M2014 807L2107 805M2107 805L2078 902M2107 805L2175 884M2182 878L2247 840M2182 878L2078 902M2182 878L2148 929M2182 878L2175 884M2247 840L2175 884M2376 826L2364 889M2459 879L2510 857M2459 879L2364 889M2459 879L2443 894M2459 879L2433 965M2459 879L2483 970M2510 857L2443 894M2510 857L2546 913M52 890L93 944M52 890L-14 913M2612 890L2546 913M93 944L211 901M93 944L-14 913M93 944L13 1016M93 944L94 1035M2653 944L2546 913M211 901L222 988M319 923L357 947M319 923L335 1025M357 947L420 894M357 947L335 1025M357 947L435 984M420 894L483 912M420 894L435 984M483 912L591 904M483 912L435 984M591 904L670 943M591 904L593 1001M670 943L741 892M670 943L669 1010M670 943L665 1042M741 892L786 967M866 927L884 953M866 927L786 967M884 953L986 915M884 953L786 967M884 953L849 1034M884 953L942 1003M986 915L1089 922M986 915L942 1003M986 915L982 993M1089 922L1124 897M1089 922L1056 1019M1124 897L1230 924M1230 924L1201 965M1230 924L1281 982M1327 929L1361 920M1327 929L1281 982M1361 920L1281 982M1361 920L1414 1012M1498 950L1547 947M1498 950L1414 1012M1498 950L1464 1032M1498 950L1490 1057M1547 947L1622 887M1547 947L1597 1034M1753 943L1803 881M1753 943L1679 987M1753 943L1705 993M1753 943L1786 1038M1753 943L1800 1049M1803 881L1872 895M1872 895L1960 950M1960 950L1916 1026M1960 950L1988 990M1960 950L2031 1024M2078 902L2148 929M2078 902L2175 884M2078 902L2099 971M2148 929L2175 884M2148 929L2099 971M2148 929L2175 1005M2272 956L2175 1005M2272 956L2294 980M2364 889L2443 894M2364 889L2374 1000M2443 894L2433 965M2443 894L2483 970M2546 913L2483 970M13 1016L94 1035M13 1016L-13 1089M2573 1016L2547 1089M94 1035L46 1110M94 1035L108 1074M222 988L264 1038M264 1038L335 1025M264 1038L216 1103M264 1038L284 1113M264 1038L358 1051M335 1025L358 1051M435 984L358 1051M435 984L499 1041M544 1028L593 1001M544 1028L499 1041M544 1028L562 1111M544 1028L534 1145M544 1028L578 1135M593 1001L669 1010M593 1001L499 1041M593 1001L665 1042M669 1010L665 1042M669 1010L754 1090M786 967L849 1034M849 1034L942 1003M849 1034L815 1117M849 1034L916 1071M942 1003L982 993M942 1003L916 1071M982 993L1056 1019M982 993L916 1071M982 993L968 1100M1056 1019L1168 1014M1056 1019L1119 1106M1168 1014L1201 965M1168 1014L1131 1101M1201 965L1281 982M1281 982L1288 1099M1414 1012L1464 1032M1414 1012L1433 1069M1414 1012L1490 1057M1464 1032L1433 1069M1464 1032L1490 1057M1464 1032L1526 1065M1597 1034L1679 987M1597 1034L1526 1065M1597 1034L1659 1084M1679 987L1705 993M1679 987L1659 1084M1679 987L1696 1079M1705 993L1786 1038M1705 993L1696 1079M1786 1038L1696 1079M1786 1038L1800 1049M1786 1038L1846 1059M1916 1026L1988 990M1916 1026L1800 1049M1916 1026L1846 1059M1916 1026L1930 1114M1988 990L2031 1024M2031 1024L2099 971M2031 1024L2064 1102M2031 1024L2096 1055M2099 971L2175 1005M2099 971L2096 1055M2175 1005L2177 1080M2294 980L2374 1000M2374 1000L2433 965M2374 1000L2439 1071M2433 965L2483 970M2433 965L2439 1071M46 1110L108 1074M46 1110L-13 1089M46 1110L51 1170M46 1110L99 1155M2606 1110L2547 1089M108 1074L216 1103M108 1074L99 1155M216 1103L284 1113M216 1103L230 1177M216 1103L244 1160M284 1113L230 1177M284 1113L244 1160M284 1113L321 1190M358 1051L428 1104M428 1104L499 1041M428 1104L470 1192M499 1041L562 1111M562 1111L534 1145M562 1111L578 1135M562 1111L519 1204M665 1042L754 1090M754 1090L815 1117M754 1090L777 1156M815 1117L777 1156M815 1117L818 1194M916 1071L968 1100M916 1071L989 1147M968 1100L947 1169M968 1100L989 1147M1119 1106L1131 1101M1119 1106L1206 1114M1119 1106L1103 1167M1119 1106L1136 1145M1131 1101L1206 1114M1131 1101L1103 1167M1131 1101L1136 1145M1206 1114L1288 1099M1206 1114L1136 1145M1206 1114L1271 1158M1288 1099L1271 1158M1288 1099L1404 1122M1433 1069L1490 1057M1433 1069L1526 1065M1433 1069L1404 1122M1490 1057L1526 1065M1659 1084L1696 1079M1659 1084L1638 1169M1659 1084L1692 1172M1696 1079L1692 1172M1800 1049L1846 1059M1800 1049L1816 1166M1846 1059L1930 1114M1846 1059L1892 1159M1930 1114L1892 1159M1930 1114L1972 1149M2064 1102L2096 1055M2064 1102L1972 1149M2064 1102L2026 1172M2064 1102L2091 1130M2096 1055L2177 1080M2096 1055L2091 1130M2177 1080L2250 1117M2177 1080L2091 1130M2250 1117L2324 1110M2250 1117L2227 1182M2250 1117L2285 1193M2324 1110L2285 1193M2324 1110L2372 1134M2324 1110L2406 1149M2439 1071L2547 1089M2439 1071L2372 1134M2439 1071L2406 1149M2547 1089L2611 1170M2547 1089L2540 1199M-13 1089L51 1170M51 1170L99 1155M51 1170L-20 1199M51 1170L106 1252M2611 1170L2540 1199M99 1155L106 1252M99 1155L187 1228M230 1177L244 1160M230 1177L187 1228M244 1160L321 1190M244 1160L289 1227M321 1190L289 1227M321 1190L334 1227M321 1190L322 1294M470 1192L534 1145M470 1192L478 1263M470 1192L519 1204M534 1145L578 1135M534 1145L519 1204M578 1135L519 1204M578 1135L639 1214M665 1179L639 1214M665 1179L715 1207M777 1156L818 1194M777 1156L715 1207M777 1156L828 1225M818 1194L715 1207M818 1194L799 1258M818 1194L828 1225M947 1169L989 1147M947 1169L937 1247M947 1169L1002 1201M989 1147L937 1247M989 1147L1002 1201M1103 1167L1136 1145M1103 1167L1002 1201M1103 1167L1063 1241M1136 1145L1063 1241M1271 1158L1360 1187M1271 1158L1279 1225M1360 1187L1404 1122M1360 1187L1279 1225M1360 1187L1368 1224M1360 1187L1360 1288M1404 1122L1495 1169M1495 1169L1550 1171M1495 1169L1503 1238M1495 1169L1532 1231M1550 1171L1638 1169M1550 1171L1503 1238M1550 1171L1532 1231M1550 1171L1634 1218M1638 1169L1692 1172M1638 1169L1634 1218M1638 1169L1699 1257M1692 1172L1634 1218M1692 1172L1699 1257M1816 1166L1892 1159M1816 1166L1827 1247M1892 1159L1972 1149M1892 1159L1923 1244M1972 1149L2026 1172M1972 1149L2002 1248M2026 1172L2091 1130M2026 1172L2002 1248M2091 1130L2133 1210M2227 1182L2285 1193M2227 1182L2133 1210M2227 1182L2208 1253M2227 1182L2315 1245M2285 1193L2315 1245M2285 1193L2354 1270M2372 1134L2406 1149M2540 1199L2565 1263M2540 1199L2533 1218M2540 1199L2548 1297M-20 1199L5 1263M5 1263L106 1252M5 1263L-95 1276M5 1263L-27 1218M5 1263L-12 1297M2565 1263L2465 1276M2565 1263L2533 1218M2565 1263L2548 1297M106 1252L187 1228M106 1252L90 1354M187 1228L192 1334M289 1227L334 1227M289 1227L296 1295M289 1227L322 1294M334 1227L296 1295M334 1227L322 1294M478 1263L519 1204M478 1263L449 1331M478 1263L527 1322M639 1214L715 1207M639 1214L608 1287M715 1207L748 1286M799 1258L828 1225M799 1258L748 1286M799 1258L810 1337M937 1247L1002 1201M937 1247L910 1314M937 1247L960 1339M1002 1201L1063 1241M1063 1241L1086 1305M1191 1276L1279 1225M1191 1276L1086 1305M1191 1276L1193 1280M1279 1225L1306 1274M1279 1225L1368 1224M1306 1274L1368 1224M1306 1274L1277 1339M1306 1274L1344 1336M1306 1274L1360 1288M1368 1224L1360 1288M1503 1238L1532 1231M1503 1238L1476 1334M1532 1231L1634 1218M1634 1218L1699 1257M1699 1257L1684 1312M1827 1247L1895 1275M1827 1247L1807 1347M1895 1275L1923 1244M1895 1275L1807 1347M1895 1275L1903 1343M1895 1275L1929 1288M1923 1244L2002 1248M1923 1244L1929 1288M1923 1244L2005 1316M2002 1248L1929 1288M2002 1248L2005 1316M2133 1210L2208 1253M2133 1210L2123 1318M2208 1253L2123 1318M2208 1253L2162 1342M2315 1245L2354 1270M2315 1245L2329 1319M2354 1270L2298 1349M2354 1270L2329 1319M2354 1270L2429 1289M2465 1276L2533 1218M2465 1276L2429 1289M2465 1276L2548 1297M2533 1218L2429 1289M2533 1218L2548 1297M64 1352L90 1354M64 1352L-12 1297M64 1352L68 1387M64 1352L89 1369M64 1352L163 1370M2624 1352L2548 1297M90 1354L68 1387M90 1354L89 1369M90 1354L163 1370M192 1334L296 1295M192 1334L89 1369M192 1334L163 1370M192 1334L277 1411M296 1295L322 1294M296 1295L277 1411M449 1331L527 1322M449 1331L478 1387M527 1322L608 1287M527 1322L478 1387M527 1322L521 1386M608 1287L704 1331M608 1287L604 1385M704 1331L748 1286M704 1331L709 1388M704 1331L732 1419M748 1286L810 1337M810 1337L910 1314M810 1337L841 1425M910 1314L960 1339M910 1314L933 1364M910 1314L988 1373M960 1339L933 1364M960 1339L988 1373M1086 1305L1193 1280M1086 1305L1058 1420M1277 1339L1344 1336M1277 1339L1360 1288M1277 1339L1273 1438M1277 1339L1328 1401M1344 1336L1360 1288M1344 1336L1328 1401M1344 1336L1447 1370M1476 1334L1536 1343M1476 1334L1447 1370M1536 1343L1625 1337M1536 1343L1447 1370M1536 1343L1568 1423M1536 1343L1601 1401M1625 1337L1684 1312M1625 1337L1568 1423M1625 1337L1601 1401M1625 1337L1702 1400M1684 1312L1702 1400M1807 1347L1903 1343M1807 1347L1798 1378M1903 1343L1929 1288M1903 1343L2005 1316M1903 1343L1903 1409M1929 1288L2005 1316M2005 1316L2071 1377M2123 1318L2162 1342M2123 1318L2071 1377M2123 1318L2133 1418M2162 1342L2071 1377M2162 1342L2133 1418M2162 1342L2234 1400M2298 1349L2329 1319M2298 1349L2234 1400M2298 1349L2288 1398M2298 1349L2321 1380M2329 1319L2321 1380M2429 1289L2414 1393M68 1387L89 1369M89 1369L163 1370M277 1411L346 1430M478 1387L521 1386M521 1386L604 1385M604 1385L709 1388M709 1388L732 1419M732 1419L841 1425M933 1364L988 1373M988 1373L1058 1420M1180 1438L1273 1438M1273 1438L1328 1401M1328 1401L1401 1427M1401 1427L1447 1370M1568 1423L1601 1401M1702 1400L1798 1378M1903 1409L1943 1424M2071 1377L2133 1418M2234 1400L2288 1398M2288 1398L2321 1380M2321 1380L2414 1393M2414 1393L2485 1427"/></svg>