<svg xmlns="http://www.w3.org/2000/svg" width="2560" height="1440" fill="#fff"><circle cx="74" cy="18" r="6"/><circle cx="125" cy="39" r="6"/><circle cx="207" cy="42" r="6"/><circle cx="311" cy="65" r="5"/><circle cx="380" cy="15" r="5"/><circle cx="403" cy="17" r="5"/><circle cx="552" cy="32" r="6"/><circle cx="625" cy="15" r="4"/><circle cx="711" cy="27" r="5"/><circle cx="723" cy="17" r="5"/><circle cx="871" cy="8" r="5"/><circle cx="884" cy="63" r="5"/><circle cx="962" cy="48" r="5"/><circle cx="1094" cy="38" r="6"/><circle cx="1146" cy="1" r="6"/><circle cx="1146" cy="1441" r="6"/><circle cx="1259" cy="35" r="5"/><circle cx="1288" cy="2" r="5"/><circle cx="1288" cy="1442" r="5"/><circle cx="1438" cy="70" r="4"/><circle cx="1485" cy="32" r="4"/><circle cx="1525" cy="55" r="5"/><circle cx="1637" cy="21" r="6"/><circle cx="1753" cy="40" r="5"/><circle cx="1769" cy="69" r="5"/><circle cx="1860" cy="78" r="6"/><circle cx="1989" cy="23" r="5"/><circle cx="2002" cy="72" r="5"/><circle cx="2116" cy="37" r="5"/><circle cx="2177" cy="39" r="4"/><circle cx="2293" cy="53" r="5"/><circle cx="2345" cy="1" r="4"/><circle cx="2345" cy="1441" r="4"/><circle cx="2415" cy="47" r="4"/><circle cx="2501" cy="31" r="5"/><circle cx="4" cy="110" r="5"/><circle cx="2564" cy="110" r="5"/><circle cx="100" cy="141" r="4"/><circle cx="187" cy="125" r="5"/><circle cx="287" cy="105" r="5"/><circle cx="349" cy="84" r="5"/><circle cx="478" cy="115" r="6"/><circle cx="531" cy="152" r="6"/><circle cx="590" cy="113" r="6"/><circle cx="679" cy="128" r="5"/><circle cx="745" cy="105" r="5"/><circle cx="848" cy="95" r="4"/><circle cx="954" cy="136" r="4"/><circle cx="990" cy="144" r="4"/><circle cx="1088" cy="93" r="5"/><circle cx="1187" cy="95" r="5"/><circle cx="1248" cy="146" r="4"/><circle cx="1338" cy="120" r="5"/><circle cx="1391" cy="131" r="4"/><circle cx="1441" cy="96" r="4"/><circle cx="1528" cy="112" r="6"/><circle cx="1678" cy="111" r="5"/><circle cx="1693" cy="139" r="5"/><circle cx="1796" cy="147" r="5"/><circle cx="1870" cy="91" r="5"/><circle cx="1968" cy="158" r="4"/><circle cx="2027" cy="133" r="6"/><circle cx="2149" cy="149" r="5"/><circle cx="2236" cy="148" r="4"/><circle cx="2254" cy="108" r="4"/><circle cx="2356" cy="102" r="6"/><circle cx="2425" cy="87" r="6"/><circle cx="2552" cy="130" r="5"/><circle cx="33" cy="173" r="4"/><circle cx="99" cy="239" r="5"/><circle cx="168" cy="176" r="6"/><circle cx="298" cy="213" r="6"/><circle cx="353" cy="232" r="5"/><circle cx="459" cy="201" r="5"/><circle cx="515" cy="182" r="5"/><circle cx="598" cy="193" r="4"/><circle cx="678" cy="187" r="5"/><circle cx="724" cy="208" r="5"/><circle cx="860" cy="175" r="5"/><circle cx="900" cy="236" r="4"/><circle cx="1006" cy="168" r="4"/><circle cx="1065" cy="230" r="4"/><circle cx="1125" cy="231" r="5"/><circle cx="1247" cy="217" r="6"/><circle cx="1352" cy="215" r="5"/><circle cx="1390" cy="231" r="5"/><circle cx="1443" cy="192" r="5"/><circle cx="1534" cy="199" r="4"/><circle cx="1643" cy="226" r="6"/><circle cx="1722" cy="177" r="5"/><circle cx="1827" cy="185" r="5"/><circle cx="1875" cy="238" r="6"/><circle cx="1971" cy="194" r="6"/><circle cx="2007" cy="198" r="4"/><circle cx="2089" cy="228" r="5"/><circle cx="2211" cy="193" r="5"/><circle cx="2257" cy="162" r="5"/><circle cx="2376" cy="226" r="6"/><circle cx="2439" cy="165" r="5"/><circle cx="2494" cy="202" r="4"/><circle cx="42" cy="311" r="4"/><circle cx="138" cy="319" r="6"/><circle cx="233" cy="299" r="6"/><circle cx="265" cy="274" r="6"/><circle cx="375" cy="279" r="5"/><circle cx="441" cy="280" r="4"/><circle cx="495" cy="311" r="5"/><circle cx="569" cy="307" r="4"/><circle cx="690" cy="252" r="6"/><circle cx="795" cy="262" r="4"/><circle cx="849" cy="261" r="5"/><circle cx="925" cy="262" r="5"/><circle cx="1003" cy="244" r="4"/><circle cx="1046" cy="254" r="6"/><circle cx="1133" cy="288" r="4"/><circle cx="1248" cy="310" r="5"/><circle cx="1321" cy="316" r="4"/><circle cx="1408" cy="308" r="6"/><circle cx="1469" cy="274" r="6"/><circle cx="1535" cy="261" r="4"/><circle cx="1641" cy="263" r="5"/><circle cx="1687" cy="288" r="5"/><circle cx="1776" cy="302" r="6"/><circle cx="1869" cy="249" r="5"/><circle cx="1921" cy="316" r="6"/><circle cx="2033" cy="262" r="6"/><circle cx="2093" cy="292" r="5"/><circle cx="2167" cy="272" r="5"/><circle cx="2316" cy="259" r="5"/><circle cx="2334" cy="308" r="5"/><circle cx="2472" cy="297" r="6"/><circle cx="2494" cy="291" r="4"/><circle cx="33" cy="357" r="6"/><circle cx="139" cy="379" r="4"/><circle cx="187" cy="334" r="5"/><circle cx="277" cy="355" r="5"/><circle cx="348" cy="399" r="6"/><circle cx="463" cy="338" r="4"/><circle cx="544" cy="323" r="5"/><circle cx="568" cy="323" r="4"/><circle cx="660" cy="373" r="5"/><circle cx="793" cy="387" r="5"/><circle cx="856" cy="395" r="4"/><circle cx="951" cy="337" r="5"/><circle cx="1032" cy="365" r="6"/><circle cx="1101" cy="397" r="6"/><circle cx="1132" cy="326" r="6"/><circle cx="1202" cy="324" r="4"/><circle cx="1328" cy="329" r="4"/><circle cx="1428" cy="369" r="5"/><circle cx="1479" cy="373" r="5"/><circle cx="1531" cy="340" r="5"/><circle cx="1649" cy="336" r="4"/><circle cx="1725" cy="345" r="6"/><circle cx="1839" cy="392" r="5"/><circle cx="1869" cy="323" r="5"/><circle cx="1974" cy="357" r="5"/><circle cx="2079" cy="371" r="5"/><circle cx="2091" cy="398" r="6"/><circle cx="2232" cy="333" r="6"/><circle cx="2251" cy="344" r="6"/><circle cx="2371" cy="369" r="5"/><circle cx="2426" cy="394" r="4"/><circle cx="2546" cy="351" r="5"/><circle cx="6" cy="402" r="5"/><circle cx="95" cy="423" r="6"/><circle cx="188" cy="455" r="6"/><circle cx="241" cy="400" r="5"/><circle cx="365" cy="455" r="5"/><circle cx="444" cy="422" r="5"/><circle cx="553" cy="463" r="5"/><circle cx="565" cy="425" r="5"/><circle cx="652" cy="450" r="5"/><circle cx="741" cy="418" r="6"/><circle cx="862" cy="425" r="5"/><circle cx="905" cy="403" r="5"/><circle cx="1022" cy="468" r="4"/><circle cx="1085" cy="427" r="6"/><circle cx="1134" cy="434" r="4"/><circle cx="1221" cy="464" r="5"/><circle cx="1287" cy="461" r="4"/><circle cx="1402" cy="469" r="6"/><circle cx="1501" cy="447" r="4"/><circle cx="1589" cy="447" r="4"/><circle cx="1628" cy="412" r="4"/><circle cx="1718" cy="453" r="6"/><circle cx="1823" cy="471" r="5"/><circle cx="1855" cy="431" r="4"/><circle cx="1954" cy="431" r="4"/><circle cx="2059" cy="424" r="5"/><circle cx="2120" cy="455" r="6"/><circle cx="2191" cy="425" r="5"/><circle cx="2319" cy="420" r="5"/><circle cx="2351" cy="459" r="4"/><circle cx="2424" cy="437" r="5"/><circle cx="2523" cy="464" r="5"/><circle cx="36" cy="536" r="6"/><circle cx="146" cy="532" r="5"/><circle cx="204" cy="535" r="5"/><circle cx="308" cy="526" r="5"/><circle cx="373" cy="535" r="5"/><circle cx="415" cy="485" r="5"/><circle cx="531" cy="533" r="5"/><circle cx="640" cy="499" r="4"/><circle cx="650" cy="559" r="4"/><circle cx="760" cy="481" r="6"/><circle cx="861" cy="511" r="6"/><circle cx="958" cy="547" r="5"/><circle cx="984" cy="509" r="5"/><circle cx="1058" cy="490" r="5"/><circle cx="1143" cy="521" r="5"/><circle cx="1266" cy="536" r="5"/><circle cx="1324" cy="481" r="5"/><circle cx="1370" cy="525" r="5"/><circle cx="1440" cy="510" r="5"/><circle cx="1595" cy="493" r="4"/><circle cx="1626" cy="546" r="5"/><circle cx="1721" cy="493" r="6"/><circle cx="1770" cy="522" r="6"/><circle cx="1860" cy="491" r="5"/><circle cx="1937" cy="525" r="5"/><circle cx="2050" cy="527" r="6"/><circle cx="2136" cy="559" r="5"/><circle cx="2187" cy="542" r="4"/><circle cx="2259" cy="514" r="4"/><circle cx="2346" cy="535" r="5"/><circle cx="2416" cy="550" r="6"/><circle cx="2494" cy="535" r="5"/><circle cx="79" cy="597" r="4"/><circle cx="137" cy="579" r="5"/><circle cx="162" cy="591" r="5"/><circle cx="255" cy="632" r="4"/><circle cx="353" cy="626" r="5"/><circle cx="459" cy="634" r="5"/><circle cx="550" cy="575" r="4"/><circle cx="619" cy="629" r="6"/><circle cx="653" cy="623" r="4"/><circle cx="738" cy="603" r="6"/><circle cx="803" cy="561" r="5"/><circle cx="903" cy="604" r="5"/><circle cx="994" cy="626" r="5"/><circle cx="1046" cy="609" r="4"/><circle cx="1154" cy="580" r="6"/><circle cx="1233" cy="638" r="5"/><circle cx="1339" cy="565" r="5"/><circle cx="1440" cy="577" r="6"/><circle cx="1485" cy="608" r="5"/><circle cx="1578" cy="634" r="6"/><circle cx="1676" cy="598" r="4"/><circle cx="1685" cy="569" r="6"/><circle cx="1822" cy="585" r="4"/><circle cx="1845" cy="573" r="5"/><circle cx="1948" cy="589" r="4"/><circle cx="2033" cy="564" r="6"/><circle cx="2139" cy="583" r="5"/><circle cx="2219" cy="633" r="4"/><circle cx="2287" cy="590" r="5"/><circle cx="2359" cy="563" r="6"/><circle cx="2424" cy="625" r="4"/><circle cx="2483" cy="574" r="5"/><circle cx="12" cy="664" r="6"/><circle cx="135" cy="678" r="4"/><circle cx="195" cy="649" r="5"/><circle cx="268" cy="660" r="5"/><circle cx="370" cy="684" r="5"/><circle cx="431" cy="690" r="6"/><circle cx="502" cy="676" r="4"/><circle cx="587" cy="691" r="5"/><circle cx="665" cy="715" r="5"/><circle cx="794" cy="641" r="5"/><circle cx="843" cy="673" r="4"/><circle cx="883" cy="669" r="5"/><circle cx="982" cy="682" r="5"/><circle cx="1085" cy="664" r="5"/><circle cx="1176" cy="716" r="4"/><circle cx="1217" cy="698" r="5"/><circle cx="1343" cy="700" r="4"/><circle cx="1415" cy="717" r="4"/><circle cx="1454" cy="713" r="5"/><circle cx="1562" cy="718" r="5"/><circle cx="1678" cy="661" r="5"/><circle cx="1691" cy="652" r="6"/><circle cx="1787" cy="687" r="6"/><circle cx="1843" cy="658" r="4"/><circle cx="1992" cy="643" r="5"/><circle cx="2033" cy="720" r="5"/><circle cx="2114" cy="694" r="5"/><circle cx="2240" cy="643" r="5"/><circle cx="2292" cy="677" r="5"/><circle cx="2388" cy="703" r="4"/><circle cx="2418" cy="662" r="5"/><circle cx="2490" cy="686" r="5"/><circle cx="11" cy="766" r="5"/><circle cx="84" cy="768" r="4"/><circle cx="170" cy="763" r="5"/><circle cx="255" cy="786" r="4"/><circle cx="353" cy="781" r="4"/><circle cx="453" cy="727" r="5"/><circle cx="542" cy="788" r="4"/><circle cx="630" cy="740" r="6"/><circle cx="706" cy="731" r="6"/><circle cx="784" cy="756" r="5"/><circle cx="840" cy="759" r="6"/><circle cx="956" cy="720" r="5"/><circle cx="1027" cy="749" r="4"/><circle cx="1051" cy="748" r="5"/><circle cx="1149" cy="753" r="5"/><circle cx="1216" cy="791" r="5"/><circle cx="1304" cy="749" r="5"/><circle cx="1365" cy="746" r="4"/><circle cx="1448" cy="793" r="4"/><circle cx="1544" cy="785" r="5"/><circle cx="1678" cy="793" r="6"/><circle cx="1683" cy="748" r="5"/><circle cx="1836" cy="747" r="6"/><circle cx="1877" cy="762" r="5"/><circle cx="1963" cy="788" r="6"/><circle cx="2015" cy="765" r="6"/><circle cx="2150" cy="771" r="4"/><circle cx="2168" cy="757" r="5"/><circle cx="2264" cy="747" r="5"/><circle cx="2368" cy="792" r="5"/><circle cx="2461" cy="776" r="6"/><circle cx="2526" cy="733" r="4"/><circle cx="79" cy="821" r="5"/><circle cx="122" cy="809" r="5"/><circle cx="167" cy="846" r="6"/><circle cx="243" cy="843" r="5"/><circle cx="330" cy="849" r="5"/><circle cx="411" cy="840" r="5"/><circle cx="550" cy="872" r="6"/><circle cx="594" cy="869" r="5"/><circle cx="645" cy="849" r="5"/><circle cx="795" cy="802" r="5"/><circle cx="863" cy="869" r="6"/><circle cx="924" cy="838" r="5"/><circle cx="1014" cy="833" r="5"/><circle cx="1064" cy="876" r="5"/><circle cx="1194" cy="815" r="5"/><circle cx="1248" cy="861" r="4"/><circle cx="1335" cy="806" r="5"/><circle cx="1405" cy="815" r="5"/><circle cx="1506" cy="852" r="5"/><circle cx="1545" cy="813" r="5"/><circle cx="1648" cy="824" r="6"/><circle cx="1749" cy="813" r="5"/><circle cx="1834" cy="850" r="6"/><circle cx="1905" cy="870" r="4"/><circle cx="1968" cy="871" r="5"/><circle cx="2071" cy="874" r="6"/><circle cx="2129" cy="858" r="4"/><circle cx="2214" cy="860" r="5"/><circle cx="2284" cy="836" r="5"/><circle cx="2371" cy="803" r="4"/><circle cx="2440" cy="874" r="6"/><circle cx="2546" cy="864" r="5"/><circle cx="12" cy="912" r="4"/><circle cx="119" cy="900" r="6"/><circle cx="212" cy="942" r="5"/><circle cx="285" cy="938" r="5"/><circle cx="382" cy="916" r="5"/><circle cx="463" cy="894" r="5"/><circle cx="481" cy="900" r="5"/><circle cx="637" cy="881" r="6"/><circle cx="699" cy="885" r="5"/><circle cx="721" cy="897" r="5"/><circle cx="853" cy="943" r="6"/><circle cx="940" cy="930" r="4"/><circle cx="1023" cy="921" r="5"/><circle cx="1103" cy="944" r="6"/><circle cx="1134" cy="896" r="5"/><circle cx="1225" cy="888" r="4"/><circle cx="1311" cy="955" r="5"/><circle cx="1406" cy="883" r="5"/><circle cx="1475" cy="937" r="5"/><circle cx="1571" cy="959" r="5"/><circle cx="1627" cy="944" r="6"/><circle cx="1687" cy="951" r="5"/><circle cx="1837" cy="946" r="6"/><circle cx="1847" cy="931" r="4"/><circle cx="1967" cy="883" r="5"/><circle cx="2041" cy="934" r="6"/><circle cx="2123" cy="907" r="5"/><circle cx="2230" cy="944" r="5"/><circle cx="2308" cy="918" r="6"/><circle cx="2334" cy="932" r="6"/><circle cx="2463" cy="888" r="6"/><circle cx="2522" cy="912" r="5"/><circle cx="46" cy="967" r="6"/><circle cx="139" cy="971" r="5"/><circle cx="168" cy="1012" r="6"/><circle cx="291" cy="1020" r="6"/><circle cx="356" cy="966" r="6"/><circle cx="461" cy="973" r="4"/><circle cx="496" cy="974" r="6"/><circle cx="613" cy="964" r="5"/><circle cx="679" cy="1020" r="4"/><circle cx="785" cy="990" r="5"/><circle cx="841" cy="972" r="5"/><circle cx="922" cy="1004" r="5"/><circle cx="970" cy="1025" r="5"/><circle cx="1040" cy="989" r="5"/><circle cx="1177" cy="1012" r="5"/><circle cx="1270" cy="1035" r="6"/><circle cx="1319" cy="983" r="5"/><circle cx="1379" cy="979" r="6"/><circle cx="1488" cy="1032" r="4"/><circle cx="1561" cy="1021" r="4"/><circle cx="1635" cy="962" r="6"/><circle cx="1688" cy="1007" r="4"/><circle cx="1818" cy="972" r="5"/><circle cx="1843" cy="1010" r="5"/><circle cx="1988" cy="1040" r="5"/><circle cx="2027" cy="1026" r="4"/><circle cx="2135" cy="1007" r="5"/><circle cx="2225" cy="978" r="6"/><circle cx="2263" cy="1017" r="6"/><circle cx="2324" cy="1019" r="6"/><circle cx="2474" cy="1019" r="4"/><circle cx="2483" cy="1030" r="6"/><circle cx="37" cy="1060" r="6"/><circle cx="86" cy="1069" r="5"/><circle cx="167" cy="1084" r="6"/><circle cx="292" cy="1041" r="5"/><circle cx="353" cy="1094" r="6"/><circle cx="434" cy="1118" r="4"/><circle cx="538" cy="1116" r="5"/><circle cx="621" cy="1120" r="5"/><circle cx="658" cy="1047" r="5"/><circle cx="749" cy="1098" r="5"/><circle cx="863" cy="1065" r="4"/><circle cx="947" cy="1089" r="6"/><circle cx="973" cy="1059" r="4"/><circle cx="1085" cy="1070" r="4"/><circle cx="1138" cy="1052" r="5"/><circle cx="1263" cy="1049" r="5"/><circle cx="1281" cy="1044" r="6"/><circle cx="1434" cy="1090" r="5"/><circle cx="1440" cy="1041" r="6"/><circle cx="1584" cy="1092" r="4"/><circle cx="1614" cy="1081" r="5"/><circle cx="1742" cy="1048" r="4"/><circle cx="1770" cy="1050" r="5"/><circle cx="1900" cy="1073" r="6"/><circle cx="1922" cy="1114" r="5"/><circle cx="2047" cy="1099" r="6"/><circle cx="2095" cy="1100" r="6"/><circle cx="2181" cy="1078" r="4"/><circle cx="2250" cy="1059" r="5"/><circle cx="2351" cy="1113" r="5"/><circle cx="2477" cy="1078" r="4"/><circle cx="2546" cy="1090" r="5"/><circle cx="61" cy="1185" r="4"/><circle cx="131" cy="1173" r="4"/><circle cx="230" cy="1151" r="5"/><circle cx="258" cy="1155" r="5"/><circle cx="335" cy="1130" r="6"/><circle cx="465" cy="1157" r="5"/><circle cx="500" cy="1147" r="5"/><circle cx="611" cy="1155" r="5"/><circle cx="706" cy="1197" r="5"/><circle cx="789" cy="1158" r="6"/><circle cx="808" cy="1136" r="5"/><circle cx="960" cy="1193" r="6"/><circle cx="1008" cy="1138" r="5"/><circle cx="1076" cy="1152" r="5"/><circle cx="1124" cy="1144" r="5"/><circle cx="1247" cy="1123" r="5"/><circle cx="1317" cy="1185" r="5"/><circle cx="1403" cy="1191" r="5"/><circle cx="1505" cy="1153" r="6"/><circle cx="1530" cy="1146" r="4"/><circle cx="1662" cy="1192" r="6"/><circle cx="1697" cy="1167" r="5"/><circle cx="1825" cy="1141" r="5"/><circle cx="1884" cy="1147" r="4"/><circle cx="1991" cy="1191" r="6"/><circle cx="2074" cy="1155" r="5"/><circle cx="2145" cy="1155" r="5"/><circle cx="2166" cy="1198" r="4"/><circle cx="2312" cy="1140" r="6"/><circle cx="2398" cy="1157" r="5"/><circle cx="2432" cy="1149" r="5"/><circle cx="2525" cy="1135" r="5"/><circle cx="47" cy="1253" r="6"/><circle cx="101" cy="1207" r="5"/><circle cx="169" cy="1227" r="4"/><circle cx="306" cy="1229" r="5"/><circle cx="326" cy="1280" r="6"/><circle cx="427" cy="1270" r="5"/><circle cx="525" cy="1241" r="5"/><circle cx="570" cy="1210" r="5"/><circle cx="676" cy="1238" r="5"/><circle cx="791" cy="1245" r="5"/><circle cx="852" cy="1222" r="5"/><circle cx="893" cy="1261" r="5"/><circle cx="977" cy="1228" r="5"/><circle cx="1107" cy="1239" r="6"/><circle cx="1148" cy="1247" r="5"/><circle cx="1237" cy="1252" r="5"/><circle cx="1310" cy="1219" r="5"/><circle cx="1394" cy="1204" r="5"/><circle cx="1470" cy="1232" r="5"/><circle cx="1577" cy="1262" r="4"/><circle cx="1624" cy="1240" r="5"/><circle cx="1696" cy="1270" r="5"/><circle cx="1793" cy="1220" r="6"/><circle cx="1876" cy="1208" r="5"/><circle cx="1979" cy="1229" r="5"/><circle cx="2064" cy="1252" r="5"/><circle cx="2085" cy="1260" r="5"/><circle cx="2224" cy="1219" r="5"/><circle cx="2319" cy="1274" r="5"/><circle cx="2355" cy="1229" r="5"/><circle cx="2401" cy="1229" r="4"/><circle cx="2554" cy="1211" r="5"/><circle cx="30" cy="1324" r="5"/><circle cx="126" cy="1292" r="5"/><circle cx="227" cy="1315" r="4"/><circle cx="269" cy="1287" r="5"/><circle cx="397" cy="1329" r="4"/><circle cx="441" cy="1295" r="5"/><circle cx="511" cy="1286" r="6"/><circle cx="564" cy="1334" r="4"/><circle cx="704" cy="1283" r="6"/><circle cx="792" cy="1286" r="5"/><circle cx="846" cy="1309" r="5"/><circle cx="935" cy="1351" r="6"/><circle cx="1033" cy="1302" r="4"/><circle cx="1113" cy="1330" r="5"/><circle cx="1158" cy="1358" r="6"/><circle cx="1243" cy="1319" r="4"/><circle cx="1329" cy="1321" r="6"/><circle cx="1416" cy="1314" r="5"/><circle cx="1516" cy="1328" r="5"/><circle cx="1524" cy="1281" r="5"/><circle cx="1620" cy="1330" r="6"/><circle cx="1715" cy="1313" r="5"/><circle cx="1802" cy="1310" r="5"/><circle cx="1915" cy="1332" r="5"/><circle cx="1945" cy="1357" r="5"/><circle cx="2058" cy="1296" r="5"/><circle cx="2111" cy="1293" r="4"/><circle cx="2234" cy="1359" r="6"/><circle cx="2283" cy="1342" r="4"/><circle cx="2369" cy="1343" r="5"/><circle cx="2421" cy="1299" r="5"/><circle cx="2548" cy="1334" r="5"/><circle cx="26" cy="1367" r="5"/><circle cx="149" cy="1403" r="5"/><circle cx="213" cy="1427" r="5"/><circle cx="262" cy="1411" r="4"/><circle cx="361" cy="1405" r="5"/><circle cx="405" cy="1397" r="5"/><circle cx="528" cy="1380" r="5"/><circle cx="608" cy="1425" r="5"/><circle cx="642" cy="1366" r="5"/><circle cx="722" cy="1377" r="5"/><circle cx="862" cy="1426" r="6"/><circle cx="909" cy="1406" r="5"/><circle cx="1020" cy="1379" r="5"/><circle cx="1117" cy="1401" r="5"/><circle cx="1172" cy="1434" r="6"/><circle cx="1214" cy="1423" r="5"/><circle cx="1340" cy="1388" r="6"/><circle cx="1373" cy="1382" r="5"/><circle cx="1458" cy="1398" r="5"/><circle cx="1561" cy="1427" r="6"/><circle cx="1627" cy="1362" r="5"/><circle cx="1744" cy="1404" r="6"/><circle cx="1779" cy="1380" r="5"/><circle cx="1905" cy="1436" r="5"/><circle cx="1905" cy="-4" r="5"/><circle cx="1995" cy="1365" r="6"/><circle cx="2030" cy="1391" r="4"/><circle cx="2091" cy="1401" r="5"/><circle cx="2208" cy="1393" r="4"/><circle cx="2276" cy="1373" r="4"/><circle cx="2398" cy="1364" r="4"/><circle cx="2407" cy="1417" r="5"/><circle cx="2507" cy="1406" r="5"/><path stroke="#fff" d="M74 18L125 39M74 18L4 110M74 18L26 -73M74 18L149 -37M74 1458L26 1367M74 1458L149 1403M125 39L207 42M125 39L187 125M125 39L149 -37M125 39L213 -13M125 1479L149 1403M125 1479L213 1427M207 42L187 125M207 42L149 -37M207 42L213 -13M207 42L262 -29M207 1482L149 1403M207 1482L213 1427M207 1482L262 1411M311 65L380 15M311 65L403 17M311 65L287 105M311 65L349 84M380 15L403 17M380 15L349 84M380 15L361 -35M380 15L405 -43M380 1455L361 1405M380 1455L405 1397M403 17L349 84M403 17L361 -35M403 17L405 -43M403 1457L361 1405M403 1457L405 1397M552 32L625 15M552 32L478 115M552 32L590 113M552 32L528 -60M552 32L608 -15M552 1472L528 1380M552 1472L608 1425M625 15L711 27M625 15L608 -15M625 15L642 -74M625 1455L608 1425M625 1455L642 1366M711 27L723 17M711 27L679 128M711 27L745 105M711 27L722 -63M711 1467L722 1377M723 17L745 105M723 17L722 -63M723 1457L722 1377M871 8L884 63M871 8L962 48M871 8L848 95M871 8L862 -14M871 8L909 -34M871 1448L862 1426M871 1448L909 1406M884 63L962 48M884 63L848 95M884 63L862 -14M884 63L909 -34M884 1503L862 1426M884 1503L909 1406M962 48L954 136M962 48L990 144M962 48L909 -34M962 1488L909 1406M1094 38L1146 1M1094 38L1088 93M1094 38L1187 95M1094 38L1117 -39M1094 38L1172 -6M1094 1478L1117 1401M1094 1478L1172 1434M1146 1L1158 -82M1146 1L1117 -39M1146 1L1172 -6M1146 1L1214 -17M1146 1441L1158 1358M1146 1441L1117 1401M1146 1441L1172 1434M1146 1441L1214 1423M1259 35L1288 2M1259 35L1187 95M1259 35L1214 -17M1259 1475L1214 1423M1288 2L1214 -17M1288 2L1340 -52M1288 2L1373 -58M1288 1442L1214 1423M1288 1442L1340 1388M1288 1442L1373 1382M1438 70L1485 32M1438 70L1525 55M1438 70L1391 131M1438 70L1441 96M1438 70L1528 112M1485 32L1525 55M1485 32L1528 112M1485 32L1458 -42M1485 32L1561 -13M1485 1472L1458 1398M1485 1472L1561 1427M1525 55L1441 96M1525 55L1528 112M1525 55L1561 -13M1525 1495L1561 1427M1637 21L1678 111M1637 21L1561 -13M1637 21L1627 -78M1637 21L1744 -36M1637 1461L1561 1427M1637 1461L1627 1362M1637 1461L1744 1404M1753 40L1769 69M1753 40L1678 111M1753 40L1744 -36M1753 40L1779 -60M1753 1480L1744 1404M1753 1480L1779 1380M1769 69L1860 78M1769 69L1678 111M1769 69L1796 147M1769 69L1870 91M1860 78L1796 147M1860 78L1870 91M1860 78L1905 -4M1860 1518L1905 1436M1989 23L2002 72M1989 23L2027 133M1989 23L1905 -4M1989 23L1995 -75M1989 23L2030 -49M1989 1463L1905 1436M1989 1463L1995 1365M1989 1463L2030 1391M2002 72L2116 37M2002 72L1968 158M2002 72L2027 133M2116 37L2177 39M2116 37L2149 149M2116 37L2091 -39M2116 1477L2091 1401M2177 39L2208 -47M2177 1479L2208 1393M2293 53L2345 1M2293 53L2236 148M2293 53L2254 108M2293 53L2356 102M2345 1L2415 47M2345 1L2398 -76M2345 1L2407 -23M2345 1441L2398 1364M2345 1441L2407 1417M2415 47L2501 31M2415 47L2356 102M2415 47L2425 87M2415 47L2407 -23M2415 1487L2407 1417M2501 31L2564 110M2501 31L2425 87M2501 31L2507 -34M-59 31L4 110M2501 1471L2507 1406M4 110L100 141M4 110L-8 130M4 110L33 173M2564 110L2552 130M100 141L187 125M100 141L33 173M100 141L99 239M100 141L168 176M187 125L287 105M187 125L168 176M287 105L349 84M287 105L298 213M478 115L531 152M478 115L459 201M478 115L515 182M531 152L590 113M531 152L459 201M531 152L515 182M531 152L598 193M590 113L679 128M590 113L515 182M590 113L598 193M679 128L745 105M679 128L678 187M679 128L724 208M745 105L848 95M745 105L678 187M848 95L860 175M848 95L862 -14M848 1535L862 1426M954 136L990 144M954 136L860 175M954 136L1006 168M990 144L1088 93M990 144L1006 168M1088 93L1187 95M1187 95L1248 146M1248 146L1338 120M1248 146L1247 217M1338 120L1391 131M1338 120L1352 215M1338 120L1390 231M1391 131L1441 96M1391 131L1352 215M1391 131L1443 192M1441 96L1528 112M1528 112L1534 199M1678 111L1693 139M1678 111L1722 177M1693 139L1643 226M1693 139L1722 177M1796 147L1870 91M1796 147L1722 177M1796 147L1827 185M1870 91L1827 185M1870 91L1905 -4M1870 1531L1905 1436M1968 158L2027 133M1968 158L1971 194M1968 158L2007 198M2027 133L1971 194M2027 133L2007 198M2149 149L2236 148M2149 149L2089 228M2149 149L2211 193M2149 149L2257 162M2236 148L2254 108M2236 148L2211 193M2236 148L2257 162M2254 108L2356 102M2254 108L2211 193M2254 108L2257 162M2356 102L2425 87M2356 102L2439 165M2425 87L2439 165M2552 130L2593 173M2552 130L2439 165M2552 130L2494 202M-8 130L33 173M33 173L99 239M99 239L168 176M99 239L42 311M99 239L138 319M298 213L353 232M298 213L233 299M298 213L265 274M298 213L375 279M353 232L459 201M353 232L265 274M353 232L375 279M353 232L441 280M459 201L515 182M459 201L441 280M515 182L598 193M598 193L678 187M598 193L690 252M678 187L724 208M678 187L690 252M724 208L690 252M724 208L795 262M860 175L900 236M860 175L849 261M860 175L925 262M900 236L849 261M900 236L925 262M900 236L951 337M1006 168L1065 230M1006 168L1003 244M1006 168L1046 254M1065 230L1125 231M1065 230L1003 244M1065 230L1046 254M1065 230L1133 288M1125 231L1247 217M1125 231L1046 254M1125 231L1133 288M1125 231L1132 326M1247 217L1352 215M1247 217L1248 310M1247 217L1202 324M1352 215L1390 231M1352 215L1443 192M1390 231L1443 192M1390 231L1408 308M1390 231L1469 274M1443 192L1534 199M1443 192L1469 274M1534 199L1643 226M1534 199L1535 261M1643 226L1722 177M1643 226L1641 263M1643 226L1687 288M1722 177L1827 185M1827 185L1875 238M1827 185L1869 249M1875 238L1971 194M1875 238L1869 249M1875 238L1921 316M1875 238L1869 323M1971 194L2007 198M1971 194L2033 262M2007 198L2089 228M2007 198L2033 262M2089 228L2033 262M2089 228L2093 292M2089 228L2167 272M2211 193L2257 162M2211 193L2167 272M2257 162L2316 259M2376 226L2439 165M2376 226L2494 202M2376 226L2316 259M2376 226L2334 308M2376 226L2472 297M2439 165L2494 202M2494 202L2472 297M2494 202L2494 291M42 311L138 319M42 311L33 357M42 311L-14 351M42 311L6 402M2602 311L2546 351M138 319L233 299M138 319L139 379M138 319L187 334M233 299L265 274M233 299L187 334M233 299L277 355M265 274L187 334M265 274L277 355M375 279L441 280M375 279L463 338M441 280L495 311M441 280L463 338M495 311L569 307M495 311L463 338M495 311L544 323M495 311L568 323M569 307L544 323M569 307L568 323M690 252L795 262M690 252L660 373M795 262L849 261M849 261L925 262M925 262L1003 244M925 262L951 337M1003 244L1046 254M1003 244L951 337M1046 254L1133 288M1133 288L1132 326M1133 288L1202 324M1248 310L1321 316M1248 310L1202 324M1248 310L1328 329M1321 316L1408 308M1321 316L1328 329M1408 308L1469 274M1408 308L1328 329M1408 308L1428 369M1469 274L1535 261M1469 274L1531 340M1535 261L1641 263M1535 261L1531 340M1641 263L1687 288M1641 263L1649 336M1641 263L1725 345M1687 288L1776 302M1687 288L1649 336M1687 288L1725 345M1776 302L1869 249M1776 302L1725 345M1776 302L1839 392M1776 302L1869 323M1869 249L1921 316M1869 249L1869 323M1921 316L1869 323M1921 316L1974 357M2033 262L2093 292M2033 262L1974 357M2093 292L2167 272M2093 292L2079 371M2093 292L2091 398M2167 272L2232 333M2316 259L2334 308M2316 259L2232 333M2316 259L2251 344M2334 308L2232 333M2334 308L2251 344M2334 308L2371 369M2472 297L2494 291M2472 297L2426 394M2472 297L2546 351M2494 291L2546 351M33 357L139 379M33 357L-14 351M33 357L6 402M33 357L95 423M2593 357L2546 351M139 379L187 334M139 379L95 423M139 379L188 455M187 334L241 400M277 355L348 399M277 355L241 400M348 399L241 400M348 399L365 455M348 399L444 422M348 399L415 485M463 338L544 323M463 338L444 422M544 323L568 323M544 323L565 425M568 323L660 373M660 373L565 425M660 373L652 450M660 373L741 418M793 387L856 395M793 387L741 418M793 387L862 425M793 387L905 403M793 387L760 481M856 395L862 425M856 395L905 403M951 337L1032 365M951 337L905 403M1032 365L1101 397M1032 365L1132 326M1032 365L1022 468M1032 365L1085 427M1101 397L1132 326M1101 397L1085 427M1101 397L1134 434M1101 397L1058 490M1132 326L1202 324M1428 369L1479 373M1428 369L1531 340M1428 369L1402 469M1428 369L1501 447M1479 373L1531 340M1479 373L1501 447M1531 340L1501 447M1649 336L1725 345M1649 336L1628 412M1725 345L1718 453M1839 392L1869 323M1839 392L1823 471M1839 392L1855 431M1839 392L1860 491M1974 357L2079 371M1974 357L1954 431M2079 371L2091 398M2079 371L2059 424M2079 371L2120 455M2091 398L2059 424M2091 398L2120 455M2091 398L2191 425M2232 333L2251 344M2232 333L2191 425M2251 344L2191 425M2251 344L2319 420M2371 369L2426 394M2371 369L2319 420M2371 369L2351 459M2371 369L2424 437M2426 394L2319 420M2426 394L2424 437M2546 351L2566 402M-14 351L6 402M6 402L95 423M6 402L-37 464M2566 402L2523 464M95 423L188 455M188 455L241 400M188 455L146 532M188 455L204 535M365 455L444 422M365 455L308 526M365 455L373 535M365 455L415 485M444 422L415 485M553 463L565 425M553 463L652 450M553 463L531 533M553 463L640 499M553 463L550 575M565 425L652 450M565 425L640 499M652 450L741 418M652 450L640 499M741 418L760 481M862 425L905 403M862 425L861 511M1022 468L1085 427M1022 468L984 509M1022 468L1058 490M1085 427L1134 434M1085 427L1058 490M1134 434L1221 464M1134 434L1143 521M1221 464L1287 461M1221 464L1143 521M1221 464L1266 536M1287 461L1266 536M1287 461L1324 481M1402 469L1324 481M1402 469L1370 525M1402 469L1440 510M1402 469L1440 577M1501 447L1589 447M1501 447L1440 510M1589 447L1628 412M1589 447L1595 493M1628 412L1718 453M1628 412L1595 493M1718 453L1721 493M1718 453L1770 522M1823 471L1855 431M1823 471L1721 493M1823 471L1770 522M1823 471L1860 491M1855 431L1954 431M1855 431L1860 491M1954 431L2059 424M1954 431L1937 525M2059 424L2120 455M2059 424L2050 527M2120 455L2191 425M2120 455L2050 527M2191 425L2259 514M2319 420L2351 459M2319 420L2424 437M2351 459L2424 437M2351 459L2346 535M2351 459L2359 563M2424 437L2523 464M2523 464L2596 536M2523 464L2494 535M2523 464L2483 574M-37 464L36 536M36 536L-66 535M36 536L79 597M2596 536L2494 535M146 532L204 535M146 532L79 597M146 532L137 579M146 532L162 591M204 535L308 526M204 535L137 579M204 535L162 591M308 526L373 535M308 526L415 485M308 526L353 626M373 535L415 485M373 535L353 626M531 533L640 499M531 533L550 575M640 499L650 559M650 559L550 575M650 559L619 629M650 559L653 623M650 559L738 603M760 481L861 511M760 481L738 603M760 481L803 561M861 511L958 547M861 511L803 561M861 511L903 604M958 547L984 509M958 547L903 604M958 547L994 626M984 509L1058 490M1058 490L1143 521M1143 521L1154 580M1266 536L1324 481M1266 536L1339 565M1324 481L1370 525M1324 481L1339 565M1370 525L1440 510M1370 525L1339 565M1370 525L1440 577M1440 510L1440 577M1440 510L1485 608M1595 493L1626 546M1626 546L1721 493M1626 546L1578 634M1626 546L1676 598M1626 546L1685 569M1721 493L1770 522M1721 493L1685 569M1770 522L1822 585M1770 522L1845 573M1860 491L1937 525M1860 491L1845 573M1937 525L1845 573M1937 525L1948 589M1937 525L2033 564M2050 527L2136 559M2050 527L2033 564M2050 527L2139 583M2136 559L2187 542M2136 559L2033 564M2136 559L2139 583M2187 542L2259 514M2187 542L2139 583M2187 542L2219 633M2259 514L2346 535M2346 535L2416 550M2346 535L2287 590M2346 535L2359 563M2416 550L2494 535M2416 550L2359 563M2416 550L2424 625M2416 550L2483 574M2494 535L2483 574M79 597L137 579M79 597L162 591M79 597L12 664M137 579L162 591M137 579L195 649M162 591L195 649M255 632L195 649M255 632L268 660M353 626L268 660M353 626L370 684M353 626L431 690M459 634L550 575M459 634L370 684M459 634L431 690M459 634L502 676M459 634L453 727M550 575L619 629M619 629L653 623M619 629L587 691M619 629L665 715M653 623L738 603M653 623L587 691M653 623L665 715M738 603L803 561M738 603L794 641M803 561L794 641M903 604L994 626M903 604L843 673M903 604L883 669M994 626L1046 609M994 626L982 682M994 626L1085 664M1046 609L1154 580M1046 609L982 682M1046 609L1085 664M1154 580L1233 638M1154 580L1085 664M1233 638L1339 565M1233 638L1176 716M1233 638L1217 698M1339 565L1440 577M1440 577L1485 608M1485 608L1578 634M1485 608L1454 713M1578 634L1562 718M1578 634L1678 661M1676 598L1685 569M1676 598L1678 661M1676 598L1691 652M1685 569L1678 661M1685 569L1691 652M1822 585L1845 573M1822 585L1787 687M1822 585L1843 658M1845 573L1843 658M1948 589L2033 564M1948 589L1992 643M2033 564L1992 643M2139 583L2219 633M2139 583L2240 643M2219 633L2287 590M2219 633L2240 643M2219 633L2292 677M2287 590L2359 563M2287 590L2240 643M2287 590L2292 677M2359 563L2424 625M2424 625L2483 574M2424 625L2418 662M2424 625L2490 686M2483 574L2418 662M12 664L135 678M12 664L-70 686M12 664L11 766M12 664L-34 733M2572 664L2490 686M2572 664L2526 733M135 678L195 649M135 678L170 763M195 649L268 660M370 684L431 690M370 684L353 781M370 684L453 727M431 690L502 676M431 690L453 727M502 676L587 691M502 676L453 727M587 691L665 715M587 691L630 740M665 715L630 740M665 715L706 731M794 641L843 673M794 641L883 669M843 673L883 669M843 673L784 756M843 673L840 759M883 669L840 759M883 669L956 720M982 682L956 720M982 682L1027 749M982 682L1051 748M1085 664L1051 748M1176 716L1217 698M1176 716L1149 753M1176 716L1216 791M1217 698L1149 753M1217 698L1216 791M1217 698L1304 749M1343 700L1415 717M1343 700L1304 749M1343 700L1365 746M1415 717L1454 713M1415 717L1365 746M1415 717L1448 793M1415 717L1405 815M1454 713L1562 718M1454 713L1448 793M1562 718L1544 785M1562 718L1545 813M1678 661L1691 652M1678 661L1683 748M1691 652L1787 687M1691 652L1683 748M1787 687L1843 658M1787 687L1836 747M1843 658L1836 747M1843 658L1877 762M1992 643L2033 720M1992 643L2114 694M1992 643L2015 765M2033 720L2114 694M2033 720L1963 788M2033 720L2015 765M2114 694L2150 771M2114 694L2168 757M2240 643L2292 677M2240 643L2264 747M2292 677L2388 703M2292 677L2264 747M2388 703L2418 662M2388 703L2368 792M2418 662L2490 686M2490 686L2461 776M2490 686L2526 733M11 766L84 768M11 766L-34 733M11 766L79 821M11 766L-14 864M2571 766L2526 733M2571 766L2546 864M84 768L170 763M84 768L79 821M84 768L122 809M170 763L255 786M170 763L122 809M170 763L167 846M255 786L353 781M255 786L243 843M353 781L330 849M353 781L411 840M453 727L542 788M542 788L630 740M542 788L550 872M542 788L594 869M630 740L706 731M630 740L645 849M706 731L784 756M706 731L795 802M784 756L840 759M784 756L795 802M840 759L795 802M956 720L1027 749M956 720L924 838M1027 749L1051 748M1027 749L1014 833M1051 748L1149 753M1051 748L1014 833M1149 753L1216 791M1149 753L1194 815M1216 791L1194 815M1216 791L1248 861M1304 749L1365 746M1304 749L1335 806M1365 746L1335 806M1365 746L1405 815M1448 793L1544 785M1448 793L1405 815M1448 793L1506 852M1544 785L1506 852M1544 785L1545 813M1544 785L1648 824M1678 793L1683 748M1678 793L1545 813M1678 793L1648 824M1678 793L1749 813M1683 748L1648 824M1683 748L1749 813M1836 747L1877 762M1836 747L1749 813M1836 747L1834 850M1877 762L1963 788M1963 788L2015 765M1963 788L1968 871M1963 788L1967 883M2150 771L2168 757M2150 771L2129 858M2168 757L2264 747M2264 747L2284 836M2368 792L2461 776M2368 792L2284 836M2368 792L2371 803M2461 776L2526 733M2461 776L2371 803M2461 776L2440 874M79 821L122 809M79 821L167 846M79 821L119 900M122 809L167 846M122 809L119 900M167 846L243 843M167 846L119 900M243 843L330 849M243 843L212 942M330 849L411 840M330 849L285 938M330 849L382 916M411 840L382 916M411 840L463 894M411 840L481 900M550 872L594 869M550 872L463 894M550 872L481 900M550 872L637 881M594 869L645 849M594 869L637 881M594 869L613 964M645 849L637 881M645 849L699 885M645 849L721 897M795 802L863 869M795 802L721 897M863 869L924 838M863 869L853 943M863 869L940 930M863 869L841 972M924 838L1014 833M924 838L940 930M1014 833L1064 876M1014 833L1023 921M1064 876L1023 921M1064 876L1103 944M1064 876L1134 896M1194 815L1248 861M1194 815L1134 896M1194 815L1225 888M1248 861L1335 806M1248 861L1225 888M1335 806L1405 815M1335 806L1406 883M1405 815L1406 883M1506 852L1545 813M1506 852L1406 883M1506 852L1475 937M1545 813L1648 824M1648 824L1749 813M1749 813L1834 850M1834 850L1905 870M1834 850L1837 946M1834 850L1847 931M1905 870L1968 871M1905 870L1837 946M1905 870L1847 931M1905 870L1967 883M1968 871L2071 874M1968 871L1967 883M1968 871L2041 934M2071 874L2129 858M2071 874L1967 883M2071 874L2041 934M2071 874L2123 907M2129 858L2214 860M2129 858L2123 907M2214 860L2284 836M2214 860L2123 907M2214 860L2230 944M2284 836L2371 803M2284 836L2308 918M2371 803L2440 874M2371 803L2463 888M2440 874L2546 864M2440 874L2463 888M2440 874L2522 912M2546 864L2572 912M2546 864L2463 888M2546 864L2522 912M-14 864L12 912M12 912L-97 888M12 912L-38 912M12 912L46 967M2572 912L2463 888M2572 912L2522 912M119 900L46 967M119 900L139 971M212 942L285 938M212 942L139 971M212 942L168 1012M285 938L382 916M285 938L291 1020M285 938L356 966M382 916L463 894M382 916L356 966M463 894L481 900M463 894L496 974M481 900L461 973M481 900L496 974M637 881L699 885M637 881L613 964M699 885L721 897M721 897L785 990M853 943L940 930M853 943L785 990M853 943L841 972M853 943L922 1004M940 930L1023 921M940 930L922 1004M1023 921L1103 944M1023 921L1040 989M1103 944L1134 896M1103 944L1040 989M1103 944L1177 1012M1134 896L1225 888M1311 955L1270 1035M1311 955L1319 983M1311 955L1379 979M1311 955L1281 1044M1406 883L1475 937M1406 883L1379 979M1475 937L1571 959M1475 937L1379 979M1475 937L1440 1041M1571 959L1627 944M1571 959L1488 1032M1571 959L1561 1021M1571 959L1635 962M1627 944L1687 951M1627 944L1635 962M1627 944L1688 1007M1687 951L1635 962M1687 951L1688 1007M1687 951L1742 1048M1837 946L1847 931M1837 946L1818 972M1837 946L1843 1010M1847 931L1818 972M1847 931L1843 1010M1967 883L2041 934M2041 934L2123 907M2041 934L2027 1026M2123 907L2135 1007M2230 944L2308 918M2230 944L2334 932M2230 944L2225 978M2230 944L2263 1017M2308 918L2334 932M2308 918L2225 978M2308 918L2324 1019M2334 932L2263 1017M2334 932L2324 1019M2463 888L2522 912M2522 912L2606 967M-38 912L46 967M46 967L139 971M46 967L37 1060M139 971L168 1012M168 1012L86 1069M168 1012L167 1084M291 1020L356 966M291 1020L292 1041M291 1020L353 1094M356 966L461 973M356 966L292 1041M461 973L496 974M496 974L613 964M613 964L679 1020M613 964L658 1047M679 1020L658 1047M785 990L841 972M785 990L749 1098M785 990L863 1065M841 972L863 1065M922 1004L970 1025M922 1004L947 1089M922 1004L973 1059M970 1025L1040 989M970 1025L947 1089M970 1025L973 1059M1040 989L973 1059M1040 989L1085 1070M1177 1012L1138 1052M1177 1012L1263 1049M1270 1035L1319 983M1270 1035L1263 1049M1270 1035L1281 1044M1270 1035L1247 1123M1319 983L1379 979M1319 983L1263 1049M1319 983L1281 1044M1379 979L1440 1041M1488 1032L1561 1021M1488 1032L1434 1090M1488 1032L1440 1041M1561 1021L1635 962M1561 1021L1584 1092M1561 1021L1614 1081M1635 962L1688 1007M1688 1007L1742 1048M1688 1007L1770 1050M1818 972L1843 1010M1818 972L1742 1048M1818 972L1770 1050M1843 1010L1770 1050M1843 1010L1900 1073M1988 1040L2027 1026M1988 1040L1900 1073M1988 1040L1922 1114M1988 1040L2047 1099M2027 1026L2135 1007M2027 1026L2047 1099M2135 1007L2095 1100M2135 1007L2181 1078M2225 978L2263 1017M2225 978L2250 1059M2263 1017L2324 1019M2263 1017L2250 1059M2324 1019L2250 1059M2324 1019L2351 1113M2474 1019L2483 1030M2474 1019L2477 1078M2483 1030L2597 1060M2483 1030L2477 1078M2483 1030L2546 1090M-77 1030L37 1060M37 1060L86 1069M37 1060L-14 1090M37 1060L-35 1135M2597 1060L2546 1090M2597 1060L2525 1135M86 1069L167 1084M86 1069L-14 1090M2646 1069L2546 1090M167 1084L131 1173M167 1084L230 1151M167 1084L258 1155M292 1041L353 1094M292 1041L335 1130M353 1094L434 1118M353 1094L258 1155M353 1094L335 1130M434 1118L465 1157M434 1118L500 1147M538 1116L621 1120M538 1116L465 1157M538 1116L500 1147M538 1116L611 1155M538 1116L570 1210M621 1120L658 1047M621 1120L611 1155M658 1047L749 1098M749 1098L789 1158M749 1098L808 1136M863 1065L947 1089M863 1065L808 1136M947 1089L973 1059M947 1089L1008 1138M973 1059L1008 1138M1085 1070L1138 1052M1085 1070L1076 1152M1085 1070L1124 1144M1138 1052L1124 1144M1263 1049L1281 1044M1263 1049L1247 1123M1281 1044L1247 1123M1434 1090L1440 1041M1434 1090L1505 1153M1434 1090L1530 1146M1584 1092L1614 1081M1584 1092L1505 1153M1584 1092L1530 1146M1614 1081L1530 1146M1614 1081L1662 1192M1614 1081L1697 1167M1742 1048L1770 1050M1770 1050L1825 1141M1900 1073L1922 1114M1900 1073L1825 1141M1900 1073L1884 1147M1922 1114L1884 1147M1922 1114L1991 1191M2047 1099L2095 1100M2047 1099L1991 1191M2047 1099L2074 1155M2095 1100L2181 1078M2095 1100L2074 1155M2095 1100L2145 1155M2181 1078L2250 1059M2181 1078L2145 1155M2250 1059L2312 1140M2351 1113L2312 1140M2351 1113L2398 1157M2351 1113L2432 1149M2477 1078L2546 1090M2477 1078L2432 1149M2477 1078L2525 1135M2546 1090L2525 1135M61 1185L131 1173M61 1185L47 1253M61 1185L101 1207M61 1185L-6 1211M2621 1185L2554 1211M131 1173L101 1207M131 1173L169 1227M230 1151L258 1155M230 1151L335 1130M230 1151L169 1227M230 1151L306 1229M258 1155L335 1130M258 1155L306 1229M335 1130L306 1229M465 1157L500 1147M500 1147L525 1241M500 1147L570 1210M611 1155L706 1197M611 1155L570 1210M611 1155L676 1238M706 1197L789 1158M706 1197L676 1238M706 1197L704 1283M789 1158L808 1136M789 1158L791 1245M789 1158L852 1222M960 1193L1008 1138M960 1193L1076 1152M960 1193L893 1261M960 1193L977 1228M1008 1138L1076 1152M1008 1138L977 1228M1076 1152L1124 1144M1076 1152L1107 1239M1124 1144L1107 1239M1124 1144L1148 1247M1247 1123L1317 1185M1317 1185L1403 1191M1317 1185L1237 1252M1317 1185L1310 1219M1317 1185L1394 1204M1403 1191L1505 1153M1403 1191L1310 1219M1403 1191L1394 1204M1403 1191L1470 1232M1505 1153L1530 1146M1505 1153L1470 1232M1662 1192L1697 1167M1662 1192L1577 1262M1662 1192L1624 1240M1662 1192L1696 1270M1697 1167L1624 1240M1697 1167L1696 1270M1697 1167L1793 1220M1825 1141L1884 1147M1825 1141L1793 1220M1825 1141L1876 1208M1884 1147L1876 1208M1991 1191L2074 1155M1991 1191L1979 1229M1991 1191L2064 1252M2074 1155L2145 1155M2145 1155L2166 1198M2145 1155L2224 1219M2166 1198L2085 1260M2166 1198L2224 1219M2166 1198L2111 1293M2312 1140L2398 1157M2312 1140L2224 1219M2312 1140L2355 1229M2398 1157L2432 1149M2398 1157L2355 1229M2398 1157L2401 1229M2432 1149L2525 1135M2432 1149L2401 1229M2525 1135L2554 1211M47 1253L101 1207M47 1253L-6 1211M47 1253L30 1324M47 1253L126 1292M2607 1253L2554 1211M101 1207L169 1227M101 1207L126 1292M169 1227L126 1292M169 1227L227 1315M306 1229L326 1280M306 1229L269 1287M326 1280L427 1270M326 1280L269 1287M326 1280L397 1329M427 1270L525 1241M427 1270L397 1329M427 1270L441 1295M427 1270L511 1286M525 1241L570 1210M525 1241L441 1295M525 1241L511 1286M676 1238L704 1283M791 1245L852 1222M791 1245L704 1283M791 1245L792 1286M791 1245L846 1309M852 1222L893 1261M852 1222L792 1286M852 1222L846 1309M893 1261L977 1228M893 1261L846 1309M893 1261L935 1351M977 1228L1033 1302M1107 1239L1148 1247M1107 1239L1033 1302M1107 1239L1113 1330M1148 1247L1237 1252M1148 1247L1113 1330M1237 1252L1310 1219M1237 1252L1243 1319M1310 1219L1394 1204M1310 1219L1329 1321M1394 1204L1470 1232M1470 1232L1416 1314M1470 1232L1524 1281M1577 1262L1624 1240M1577 1262L1516 1328M1577 1262L1524 1281M1577 1262L1620 1330M1624 1240L1696 1270M1624 1240L1620 1330M1696 1270L1620 1330M1696 1270L1715 1313M1793 1220L1876 1208M1793 1220L1802 1310M1876 1208L1979 1229M1979 1229L2064 1252M1979 1229L2085 1260M2064 1252L2085 1260M2064 1252L2058 1296M2064 1252L2111 1293M2085 1260L2058 1296M2085 1260L2111 1293M2224 1219L2234 1359M2319 1274L2355 1229M2319 1274L2401 1229M2319 1274L2283 1342M2319 1274L2369 1343M2319 1274L2421 1299M2355 1229L2401 1229M2355 1229L2421 1299M2401 1229L2421 1299M2554 1211L2548 1334M30 1324L126 1292M30 1324L-12 1334M30 1324L26 1367M30 1324L-53 1406M2590 1324L2548 1334M2590 1324L2507 1406M126 1292L227 1315M227 1315L269 1287M227 1315L262 1411M397 1329L441 1295M397 1329L361 1405M397 1329L405 1397M441 1295L511 1286M441 1295L405 1397M511 1286L564 1334M511 1286L528 1380M564 1334L528 1380M564 1334L608 1425M564 1334L642 1366M704 1283L792 1286M704 1283L722 1377M792 1286L846 1309M792 1286L722 1377M846 1309L935 1351M935 1351L862 1426M935 1351L909 1406M935 1351L1020 1379M1033 1302L1113 1330M1033 1302L1020 1379M1113 1330L1158 1358M1113 1330L1117 1401M1158 1358L1117 1401M1158 1358L1172 1434M1158 1358L1214 1423M1243 1319L1329 1321M1329 1321L1416 1314M1329 1321L1340 1388M1329 1321L1373 1382M1416 1314L1340 1388M1416 1314L1373 1382M1416 1314L1458 1398M1516 1328L1524 1281M1516 1328L1458 1398M1516 1328L1561 1427M1524 1281L1627 1362M1620 1330L1715 1313M1620 1330L1627 1362M1715 1313L1802 1310M1715 1313L1744 1404M1715 1313L1779 1380M1802 1310L1915 1332M1802 1310L1744 1404M1802 1310L1779 1380M1915 1332L1945 1357M1915 1332L1995 1365M1945 1357L1905 1436M1945 1357L1995 1365M1945 1357L2030 1391M2058 1296L2111 1293M2058 1296L1995 1365M2058 1296L2091 1401M2111 1293L2091 1401M2234 1359L2283 1342M2234 1359L2208 1393M2234 1359L2276 1373M2283 1342L2369 1343M2283 1342L2208 1393M2283 1342L2276 1373M2369 1343L2421 1299M2369 1343L2398 1364M2369 1343L2407 1417M2421 1299L2398 1364M2548 1334L2586 1367M2548 1334L2507 1406M-12 1334L26 1367M26 1367L-53 1406M2586 1367L2507 1406M149 1403L213 1427M149 1403L262 1411M213 1427L262 1411M262 1411L361 1405M361 1405L405 1397M528 1380L608 1425M528 1380L642 1366M608 1425L642 1366M642 1366L722 1377M862 1426L909 1406M1117 1401L1172 1434M1172 1434L1214 1423M1340 1388L1373 1382M1373 1382L1458 1398M1561 1427L1627 1362M1744 1404L1779 1380M1995 1365L2030 1391M2030 1391L2091 1401M2091 1401L2208 1393M2208 1393L2276 1373M2398 1364L2407 1417M2407 1417L2507 1406"/></svg>