<svg xmlns="http://www.w3.org/2000/svg" width="2560" height="1440" fill="#fff"><circle cx="32" cy="8" r="5"/><circle cx="158" cy="18" r="4"/><circle cx="162" cy="18" r="5"/><circle cx="283" cy="14" r="6"/><circle cx="342" cy="70" r="5"/><circle cx="450" cy="55" r="5"/><circle cx="525" cy="66" r="6"/><circle cx="585" cy="60" r="5"/><circle cx="652" cy="2" r="5"/><circle cx="652" cy="1442" r="5"/><circle cx="763" cy="56" r="5"/><circle cx="866" cy="46" r="5"/><circle cx="930" cy="14" r="5"/><circle cx="1012" cy="8" r="4"/><circle cx="1092" cy="5" r="4"/><circle cx="1185" cy="75" r="5"/><circle cx="1234" cy="15" r="5"/><circle cx="1307" cy="31" r="6"/><circle cx="1391" cy="21" r="5"/><circle cx="1482" cy="27" r="5"/><circle cx="1595" cy="54" r="5"/><circle cx="1631" cy="28" r="6"/><circle cx="1703" cy="50" r="6"/><circle cx="1802" cy="51" r="5"/><circle cx="1862" cy="71" r="4"/><circle cx="1986" cy="40" r="4"/><circle cx="2028" cy="53" r="5"/><circle cx="2111" cy="74" r="5"/><circle cx="2207" cy="71" r="4"/><circle cx="2286" cy="52" r="6"/><circle cx="2396" cy="20" r="4"/><circle cx="2476" cy="72" r="4"/><circle cx="2508" cy="11" r="6"/><circle cx="64" cy="148" r="5"/><circle cx="113" cy="120" r="5"/><circle cx="232" cy="92" r="4"/><circle cx="296" cy="115" r="4"/><circle cx="395" cy="146" r="4"/><circle cx="435" cy="129" r="6"/><circle cx="555" cy="115" r="6"/><circle cx="600" cy="152" r="6"/><circle cx="702" cy="112" r="5"/><circle cx="800" cy="137" r="6"/><circle cx="879" cy="142" r="5"/><circle cx="894" cy="158" r="5"/><circle cx="994" cy="114" r="6"/><circle cx="1118" cy="108" r="4"/><circle cx="1148" cy="112" r="6"/><circle cx="1227" cy="122" r="6"/><circle cx="1332" cy="143" r="4"/><circle cx="1377" cy="154" r="5"/><circle cx="1450" cy="99" r="5"/><circle cx="1536" cy="113" r="5"/><circle cx="1648" cy="146" r="4"/><circle cx="1694" cy="83" r="6"/><circle cx="1787" cy="138" r="6"/><circle cx="1887" cy="109" r="4"/><circle cx="1925" cy="93" r="5"/><circle cx="2050" cy="84" r="6"/><circle cx="2110" cy="129" r="6"/><circle cx="2171" cy="91" r="5"/><circle cx="2284" cy="140" r="4"/><circle cx="2340" cy="99" r="6"/><circle cx="2442" cy="105" r="5"/><circle cx="2507" cy="114" r="5"/><circle cx="1" cy="165" r="5"/><circle cx="2561" cy="165" r="5"/><circle cx="130" cy="223" r="6"/><circle cx="224" cy="208" r="4"/><circle cx="287" cy="228" r="5"/><circle cx="353" cy="200" r="4"/><circle cx="415" cy="190" r="5"/><circle cx="535" cy="211" r="4"/><circle cx="591" cy="226" r="5"/><circle cx="714" cy="191" r="6"/><circle cx="786" cy="225" r="4"/><circle cx="834" cy="192" r="5"/><circle cx="960" cy="218" r="4"/><circle cx="1039" cy="222" r="6"/><circle cx="1086" cy="173" r="5"/><circle cx="1147" cy="170" r="5"/><circle cx="1227" cy="235" r="5"/><circle cx="1294" cy="194" r="6"/><circle cx="1385" cy="225" r="4"/><circle cx="1466" cy="202" r="4"/><circle cx="1594" cy="215" r="5"/><circle cx="1640" cy="162" r="4"/><circle cx="1686" cy="238" r="5"/><circle cx="1777" cy="215" r="5"/><circle cx="1840" cy="203" r="5"/><circle cx="1933" cy="173" r="4"/><circle cx="2014" cy="229" r="6"/><circle cx="2080" cy="164" r="4"/><circle cx="2226" cy="170" r="4"/><circle cx="2292" cy="197" r="5"/><circle cx="2340" cy="194" r="5"/><circle cx="2420" cy="166" r="6"/><circle cx="2535" cy="172" r="5"/><circle cx="49" cy="246" r="5"/><circle cx="121" cy="301" r="4"/><circle cx="218" cy="316" r="5"/><circle cx="300" cy="291" r="5"/><circle cx="362" cy="281" r="4"/><circle cx="433" cy="254" r="5"/><circle cx="489" cy="272" r="5"/><circle cx="631" cy="302" r="5"/><circle cx="688" cy="300" r="5"/><circle cx="780" cy="257" r="4"/><circle cx="857" cy="248" r="6"/><circle cx="940" cy="290" r="4"/><circle cx="1020" cy="287" r="5"/><circle cx="1088" cy="250" r="4"/><circle cx="1190" cy="254" r="5"/><circle cx="1248" cy="305" r="6"/><circle cx="1318" cy="274" r="4"/><circle cx="1362" cy="312" r="6"/><circle cx="1454" cy="273" r="4"/><circle cx="1539" cy="274" r="6"/><circle cx="1602" cy="257" r="5"/><circle cx="1725" cy="247" r="6"/><circle cx="1838" cy="288" r="4"/><circle cx="1910" cy="301" r="6"/><circle cx="1967" cy="274" r="4"/><circle cx="2072" cy="280" r="6"/><circle cx="2156" cy="315" r="4"/><circle cx="2234" cy="255" r="5"/><circle cx="2304" cy="301" r="6"/><circle cx="2372" cy="295" r="6"/><circle cx="2462" cy="316" r="5"/><circle cx="2481" cy="244" r="4"/><circle cx="65" cy="375" r="6"/><circle cx="151" cy="395" r="6"/><circle cx="214" cy="385" r="6"/><circle cx="273" cy="388" r="4"/><circle cx="374" cy="367" r="6"/><circle cx="437" cy="363" r="5"/><circle cx="539" cy="381" r="4"/><circle cx="594" cy="375" r="6"/><circle cx="698" cy="359" r="5"/><circle cx="768" cy="331" r="5"/><circle cx="816" cy="400" r="6"/><circle cx="940" cy="327" r="6"/><circle cx="1022" cy="391" r="5"/><circle cx="1113" cy="366" r="6"/><circle cx="1199" cy="399" r="4"/><circle cx="1208" cy="330" r="4"/><circle cx="1287" cy="383" r="5"/><circle cx="1381" cy="324" r="5"/><circle cx="1503" cy="394" r="4"/><circle cx="1549" cy="375" r="4"/><circle cx="1655" cy="386" r="5"/><circle cx="1703" cy="331" r="4"/><circle cx="1819" cy="340" r="4"/><circle cx="1900" cy="330" r="6"/><circle cx="1979" cy="331" r="5"/><circle cx="2078" cy="362" r="5"/><circle cx="2092" cy="382" r="6"/><circle cx="2216" cy="336" r="6"/><circle cx="2253" cy="387" r="4"/><circle cx="2355" cy="363" r="4"/><circle cx="2412" cy="382" r="5"/><circle cx="2556" cy="331" r="4"/><circle cx="-4" cy="331" r="4"/><circle cx="73" cy="460" r="6"/><circle cx="97" cy="429" r="5"/><circle cx="228" cy="476" r="5"/><circle cx="241" cy="465" r="5"/><circle cx="339" cy="474" r="6"/><circle cx="408" cy="427" r="6"/><circle cx="542" cy="469" r="4"/><circle cx="590" cy="447" r="5"/><circle cx="656" cy="420" r="6"/><circle cx="752" cy="476" r="5"/><circle cx="845" cy="446" r="5"/><circle cx="954" cy="442" r="5"/><circle cx="991" cy="441" r="6"/><circle cx="1051" cy="435" r="6"/><circle cx="1194" cy="409" r="6"/><circle cx="1269" cy="458" r="5"/><circle cx="1340" cy="418" r="5"/><circle cx="1426" cy="454" r="4"/><circle cx="1455" cy="438" r="5"/><circle cx="1521" cy="421" r="4"/><circle cx="1619" cy="444" r="4"/><circle cx="1720" cy="478" r="6"/><circle cx="1814" cy="466" r="5"/><circle cx="1850" cy="461" r="5"/><circle cx="1987" cy="410" r="5"/><circle cx="2071" cy="475" r="4"/><circle cx="2158" cy="476" r="5"/><circle cx="2203" cy="469" r="5"/><circle cx="2314" cy="435" r="4"/><circle cx="2327" cy="441" r="6"/><circle cx="2476" cy="454" r="4"/><circle cx="2551" cy="461" r="5"/><circle cx="29" cy="496" r="6"/><circle cx="93" cy="517" r="4"/><circle cx="237" cy="486" r="6"/><circle cx="301" cy="535" r="6"/><circle cx="331" cy="534" r="5"/><circle cx="423" cy="555" r="5"/><circle cx="534" cy="481" r="5"/><circle cx="574" cy="515" r="4"/><circle cx="648" cy="551" r="4"/><circle cx="783" cy="488" r="5"/><circle cx="827" cy="520" r="5"/><circle cx="902" cy="534" r="4"/><circle cx="1004" cy="524" r="4"/><circle cx="1112" cy="548" r="5"/><circle cx="1149" cy="560" r="5"/><circle cx="1265" cy="529" r="4"/><circle cx="1312" cy="504" r="4"/><circle cx="1406" cy="486" r="5"/><circle cx="1450" cy="510" r="4"/><circle cx="1575" cy="553" r="5"/><circle cx="1679" cy="533" r="5"/><circle cx="1719" cy="480" r="5"/><circle cx="1781" cy="522" r="6"/><circle cx="1895" cy="503" r="5"/><circle cx="1935" cy="539" r="5"/><circle cx="2062" cy="520" r="6"/><circle cx="2085" cy="486" r="4"/><circle cx="2174" cy="511" r="6"/><circle cx="2301" cy="482" r="4"/><circle cx="2341" cy="540" r="5"/><circle cx="2420" cy="543" r="4"/><circle cx="2484" cy="491" r="5"/><circle cx="68" cy="638" r="6"/><circle cx="129" cy="596" r="4"/><circle cx="204" cy="624" r="5"/><circle cx="312" cy="618" r="5"/><circle cx="323" cy="620" r="4"/><circle cx="454" cy="576" r="6"/><circle cx="497" cy="611" r="6"/><circle cx="569" cy="607" r="6"/><circle cx="640" cy="581" r="6"/><circle cx="778" cy="628" r="5"/><circle cx="875" cy="568" r="4"/><circle cx="929" cy="615" r="6"/><circle cx="967" cy="570" r="5"/><circle cx="1117" cy="606" r="6"/><circle cx="1169" cy="625" r="4"/><circle cx="1220" cy="605" r="6"/><circle cx="1314" cy="611" r="4"/><circle cx="1401" cy="614" r="5"/><circle cx="1450" cy="605" r="5"/><circle cx="1528" cy="622" r="5"/><circle cx="1669" cy="624" r="5"/><circle cx="1735" cy="640" r="6"/><circle cx="1774" cy="583" r="5"/><circle cx="1862" cy="628" r="6"/><circle cx="1975" cy="570" r="6"/><circle cx="2065" cy="640" r="5"/><circle cx="2097" cy="591" r="5"/><circle cx="2169" cy="573" r="4"/><circle cx="2247" cy="611" r="6"/><circle cx="2330" cy="588" r="5"/><circle cx="2411" cy="573" r="5"/><circle cx="2501" cy="580" r="6"/><circle cx="69" cy="676" r="6"/><circle cx="89" cy="696" r="4"/><circle cx="183" cy="654" r="4"/><circle cx="287" cy="663" r="5"/><circle cx="363" cy="658" r="5"/><circle cx="442" cy="659" r="5"/><circle cx="496" cy="712" r="4"/><circle cx="630" cy="667" r="5"/><circle cx="686" cy="655" r="5"/><circle cx="724" cy="676" r="5"/><circle cx="835" cy="674" r="5"/><circle cx="931" cy="643" r="4"/><circle cx="1009" cy="645" r="5"/><circle cx="1057" cy="691" r="4"/><circle cx="1146" cy="657" r="4"/><circle cx="1262" cy="648" r="5"/><circle cx="1330" cy="693" r="5"/><circle cx="1371" cy="695" r="5"/><circle cx="1459" cy="715" r="4"/><circle cx="1562" cy="692" r="5"/><circle cx="1640" cy="718" r="4"/><circle cx="1696" cy="678" r="5"/><circle cx="1766" cy="658" r="5"/><circle cx="1847" cy="681" r="5"/><circle cx="1943" cy="664" r="5"/><circle cx="2076" cy="665" r="5"/><circle cx="2148" cy="716" r="4"/><circle cx="2163" cy="650" r="4"/><circle cx="2256" cy="718" r="4"/><circle cx="2360" cy="672" r="6"/><circle cx="2467" cy="708" r="4"/><circle cx="2536" cy="688" r="5"/><circle cx="26" cy="779" r="4"/><circle cx="120" cy="787" r="6"/><circle cx="207" cy="729" r="5"/><circle cx="249" cy="760" r="6"/><circle cx="370" cy="749" r="6"/><circle cx="415" cy="760" r="5"/><circle cx="488" cy="733" r="4"/><circle cx="639" cy="730" r="5"/><circle cx="662" cy="749" r="6"/><circle cx="745" cy="739" r="5"/><circle cx="835" cy="735" r="5"/><circle cx="921" cy="773" r="4"/><circle cx="980" cy="782" r="6"/><circle cx="1114" cy="797" r="6"/><circle cx="1125" cy="729" r="4"/><circle cx="1253" cy="753" r="6"/><circle cx="1305" cy="751" r="5"/><circle cx="1435" cy="746" r="4"/><circle cx="1441" cy="788" r="6"/><circle cx="1529" cy="790" r="4"/><circle cx="1674" cy="794" r="5"/><circle cx="1703" cy="728" r="6"/><circle cx="1781" cy="777" r="5"/><circle cx="1868" cy="768" r="5"/><circle cx="1927" cy="732" r="5"/><circle cx="2035" cy="741" r="5"/><circle cx="2135" cy="732" r="4"/><circle cx="2240" cy="794" r="4"/><circle cx="2283" cy="746" r="5"/><circle cx="2386" cy="741" r="5"/><circle cx="2407" cy="763" r="6"/><circle cx="2536" cy="790" r="6"/><circle cx="20" cy="813" r="6"/><circle cx="97" cy="872" r="4"/><circle cx="175" cy="836" r="4"/><circle cx="248" cy="840" r="5"/><circle cx="387" cy="801" r="6"/><circle cx="457" cy="854" r="6"/><circle cx="557" cy="855" r="4"/><circle cx="561" cy="809" r="5"/><circle cx="710" cy="872" r="4"/><circle cx="780" cy="805" r="6"/><circle cx="854" cy="803" r="4"/><circle cx="904" cy="862" r="5"/><circle cx="1014" cy="832" r="6"/><circle cx="1043" cy="810" r="5"/><circle cx="1175" cy="815" r="6"/><circle cx="1239" cy="825" r="6"/><circle cx="1346" cy="818" r="5"/><circle cx="1426" cy="811" r="5"/><circle cx="1500" cy="873" r="5"/><circle cx="1566" cy="846" r="5"/><circle cx="1617" cy="835" r="5"/><circle cx="1710" cy="831" r="5"/><circle cx="1794" cy="829" r="6"/><circle cx="1865" cy="816" r="5"/><circle cx="1990" cy="816" r="5"/><circle cx="2016" cy="871" r="4"/><circle cx="2104" cy="847" r="5"/><circle cx="2201" cy="821" r="4"/><circle cx="2294" cy="844" r="4"/><circle cx="2321" cy="837" r="6"/><circle cx="2414" cy="838" r="5"/><circle cx="2493" cy="871" r="5"/><circle cx="69" cy="918" r="4"/><circle cx="154" cy="954" r="4"/><circle cx="197" cy="896" r="6"/><circle cx="292" cy="932" r="5"/><circle cx="347" cy="913" r="6"/><circle cx="423" cy="946" r="5"/><circle cx="546" cy="893" r="6"/><circle cx="583" cy="910" r="5"/><circle cx="687" cy="919" r="5"/><circle cx="779" cy="949" r="5"/><circle cx="877" cy="940" r="6"/><circle cx="933" cy="920" r="5"/><circle cx="999" cy="951" r="4"/><circle cx="1086" cy="894" r="5"/><circle cx="1135" cy="910" r="6"/><circle cx="1277" cy="941" r="5"/><circle cx="1314" cy="912" r="5"/><circle cx="1380" cy="945" r="5"/><circle cx="1476" cy="932" r="5"/><circle cx="1562" cy="936" r="4"/><circle cx="1661" cy="938" r="5"/><circle cx="1741" cy="953" r="5"/><circle cx="1831" cy="899" r="4"/><circle cx="1843" cy="933" r="5"/><circle cx="1929" cy="931" r="4"/><circle cx="2068" cy="933" r="4"/><circle cx="2134" cy="910" r="5"/><circle cx="2211" cy="909" r="5"/><circle cx="2259" cy="954" r="6"/><circle cx="2374" cy="909" r="5"/><circle cx="2454" cy="888" r="5"/><circle cx="2539" cy="891" r="4"/><circle cx="66" cy="1024" r="6"/><circle cx="119" cy="1022" r="4"/><circle cx="224" cy="1025" r="5"/><circle cx="294" cy="1031" r="5"/><circle cx="368" cy="993" r="4"/><circle cx="423" cy="1038" r="5"/><circle cx="525" cy="984" r="6"/><circle cx="612" cy="988" r="6"/><circle cx="686" cy="1035" r="6"/><circle cx="750" cy="1031" r="5"/><circle cx="851" cy="989" r="4"/><circle cx="948" cy="1027" r="6"/><circle cx="990" cy="987" r="5"/><circle cx="1089" cy="991" r="5"/><circle cx="1135" cy="1001" r="5"/><circle cx="1271" cy="1012" r="5"/><circle cx="1329" cy="1036" r="5"/><circle cx="1411" cy="970" r="6"/><circle cx="1481" cy="1011" r="4"/><circle cx="1530" cy="1016" r="4"/><circle cx="1670" cy="972" r="4"/><circle cx="1728" cy="1023" r="5"/><circle cx="1766" cy="986" r="4"/><circle cx="1851" cy="961" r="5"/><circle cx="1998" cy="968" r="5"/><circle cx="2066" cy="1032" r="5"/><circle cx="2086" cy="975" r="4"/><circle cx="2181" cy="1002" r="5"/><circle cx="2299" cy="1028" r="6"/><circle cx="2392" cy="966" r="6"/><circle cx="2463" cy="1018" r="4"/><circle cx="2559" cy="1037" r="4"/><circle cx="-1" cy="1037" r="4"/><circle cx="76" cy="1069" r="5"/><circle cx="90" cy="1083" r="4"/><circle cx="177" cy="1046" r="4"/><circle cx="263" cy="1091" r="5"/><circle cx="387" cy="1098" r="6"/><circle cx="435" cy="1071" r="5"/><circle cx="545" cy="1068" r="4"/><circle cx="623" cy="1081" r="4"/><circle cx="693" cy="1051" r="4"/><circle cx="741" cy="1086" r="5"/><circle cx="863" cy="1074" r="5"/><circle cx="949" cy="1054" r="4"/><circle cx="978" cy="1097" r="5"/><circle cx="1056" cy="1094" r="5"/><circle cx="1147" cy="1116" r="6"/><circle cx="1260" cy="1068" r="6"/><circle cx="1352" cy="1112" r="6"/><circle cx="1407" cy="1075" r="4"/><circle cx="1486" cy="1104" r="5"/><circle cx="1540" cy="1105" r="4"/><circle cx="1664" cy="1090" r="5"/><circle cx="1739" cy="1099" r="5"/><circle cx="1783" cy="1108" r="5"/><circle cx="1891" cy="1068" r="6"/><circle cx="1936" cy="1042" r="6"/><circle cx="2054" cy="1066" r="5"/><circle cx="2124" cy="1050" r="5"/><circle cx="2214" cy="1105" r="6"/><circle cx="2276" cy="1105" r="6"/><circle cx="2398" cy="1081" r="4"/><circle cx="2441" cy="1114" r="5"/><circle cx="2544" cy="1066" r="5"/><circle cx="31" cy="1193" r="5"/><circle cx="132" cy="1192" r="5"/><circle cx="237" cy="1159" r="5"/><circle cx="275" cy="1190" r="6"/><circle cx="395" cy="1140" r="5"/><circle cx="439" cy="1160" r="4"/><circle cx="550" cy="1139" r="4"/><circle cx="626" cy="1138" r="4"/><circle cx="652" cy="1125" r="6"/><circle cx="725" cy="1144" r="5"/><circle cx="832" cy="1123" r="5"/><circle cx="914" cy="1161" r="5"/><circle cx="1021" cy="1172" r="5"/><circle cx="1087" cy="1175" r="4"/><circle cx="1127" cy="1192" r="6"/><circle cx="1242" cy="1192" r="4"/><circle cx="1286" cy="1140" r="4"/><circle cx="1386" cy="1151" r="5"/><circle cx="1506" cy="1155" r="4"/><circle cx="1587" cy="1136" r="5"/><circle cx="1680" cy="1172" r="4"/><circle cx="1705" cy="1125" r="6"/><circle cx="1829" cy="1141" r="4"/><circle cx="1906" cy="1160" r="6"/><circle cx="1946" cy="1155" r="6"/><circle cx="2067" cy="1194" r="5"/><circle cx="2102" cy="1148" r="5"/><circle cx="2191" cy="1189" r="4"/><circle cx="2267" cy="1195" r="4"/><circle cx="2387" cy="1146" r="6"/><circle cx="2475" cy="1129" r="5"/><circle cx="2496" cy="1157" r="5"/><circle cx="74" cy="1250" r="5"/><circle cx="91" cy="1226" r="4"/><circle cx="210" cy="1227" r="5"/><circle cx="263" cy="1279" r="5"/><circle cx="345" cy="1256" r="5"/><circle cx="405" cy="1219" r="5"/><circle cx="498" cy="1260" r="5"/><circle cx="571" cy="1221" r="5"/><circle cx="644" cy="1211" r="6"/><circle cx="799" cy="1222" r="6"/><circle cx="878" cy="1257" r="5"/><circle cx="888" cy="1201" r="5"/><circle cx="1031" cy="1274" r="4"/><circle cx="1117" cy="1230" r="4"/><circle cx="1196" cy="1236" r="4"/><circle cx="1229" cy="1253" r="4"/><circle cx="1295" cy="1218" r="4"/><circle cx="1365" cy="1217" r="6"/><circle cx="1519" cy="1263" r="5"/><circle cx="1536" cy="1226" r="5"/><circle cx="1668" cy="1270" r="5"/><circle cx="1730" cy="1234" r="6"/><circle cx="1771" cy="1207" r="5"/><circle cx="1884" cy="1241" r="5"/><circle cx="1982" cy="1212" r="5"/><circle cx="2073" cy="1270" r="5"/><circle cx="2136" cy="1257" r="6"/><circle cx="2171" cy="1227" r="5"/><circle cx="2301" cy="1202" r="5"/><circle cx="2380" cy="1235" r="5"/><circle cx="2404" cy="1246" r="5"/><circle cx="2552" cy="1255" r="6"/><circle cx="17" cy="1349" r="4"/><circle cx="144" cy="1349" r="6"/><circle cx="237" cy="1295" r="5"/><circle cx="280" cy="1329" r="4"/><circle cx="350" cy="1326" r="6"/><circle cx="432" cy="1308" r="5"/><circle cx="546" cy="1316" r="6"/><circle cx="633" cy="1318" r="5"/><circle cx="696" cy="1325" r="6"/><circle cx="755" cy="1309" r="6"/><circle cx="816" cy="1306" r="5"/><circle cx="951" cy="1326" r="6"/><circle cx="966" cy="1309" r="5"/><circle cx="1046" cy="1330" r="5"/><circle cx="1161" cy="1350" r="4"/><circle cx="1261" cy="1344" r="5"/><circle cx="1349" cy="1324" r="5"/><circle cx="1424" cy="1293" r="5"/><circle cx="1440" cy="1280" r="5"/><circle cx="1576" cy="1355" r="5"/><circle cx="1659" cy="1354" r="6"/><circle cx="1737" cy="1299" r="4"/><circle cx="1817" cy="1291" r="4"/><circle cx="1895" cy="1289" r="5"/><circle cx="1962" cy="1349" r="6"/><circle cx="2005" cy="1313" r="5"/><circle cx="2142" cy="1316" r="4"/><circle cx="2239" cy="1281" r="5"/><circle cx="2275" cy="1322" r="5"/><circle cx="2323" cy="1349" r="5"/><circle cx="2433" cy="1286" r="4"/><circle cx="2556" cy="1296" r="5"/><circle cx="-4" cy="1296" r="5"/><circle cx="43" cy="1413" r="6"/><circle cx="147" cy="1414" r="5"/><circle cx="185" cy="1418" r="5"/><circle cx="268" cy="1420" r="6"/><circle cx="336" cy="1382" r="5"/><circle cx="470" cy="1421" r="5"/><circle cx="496" cy="1396" r="4"/><circle cx="579" cy="1361" r="6"/><circle cx="699" cy="1421" r="5"/><circle cx="761" cy="1405" r="5"/><circle cx="846" cy="1399" r="4"/><circle cx="906" cy="1403" r="6"/><circle cx="970" cy="1410" r="4"/><circle cx="1046" cy="1389" r="5"/><circle cx="1198" cy="1434" r="6"/><circle cx="1235" cy="1409" r="5"/><circle cx="1291" cy="1439" r="6"/><circle cx="1291" cy="-1" r="6"/><circle cx="1387" cy="1429" r="4"/><circle cx="1517" cy="1379" r="4"/><circle cx="1541" cy="1414" r="5"/><circle cx="1646" cy="1388" r="5"/><circle cx="1759" cy="1370" r="5"/><circle cx="1772" cy="1419" r="4"/><circle cx="1883" cy="1411" r="6"/><circle cx="1938" cy="1366" r="4"/><circle cx="2065" cy="1392" r="4"/><circle cx="2144" cy="1384" r="5"/><circle cx="2166" cy="1419" r="4"/><circle cx="2276" cy="1419" r="6"/><circle cx="2371" cy="1433" r="4"/><circle cx="2422" cy="1388" r="4"/><circle cx="2503" cy="1367" r="5"/><path stroke="#fff" d="M32 8L-52 11M32 8L17 -91M32 8L43 -27M2592 8L2508 11M32 1448L17 1349M32 1448L43 1413M158 18L162 18M158 18L147 -26M158 18L185 -22M158 1458L147 1414M158 1458L185 1418M162 18L144 -91M162 18L147 -26M162 18L185 -22M162 18L268 -20M162 1458L144 1349M162 1458L147 1414M162 1458L185 1418M162 1458L268 1420M283 14L342 70M283 14L232 92M283 14L268 -20M283 14L336 -58M283 1454L268 1420M283 1454L336 1382M342 70L296 115M342 70L395 146M342 70L435 129M450 55L525 66M450 55L395 146M450 55L435 129M450 55L470 -19M450 1495L470 1421M525 66L585 60M525 66L435 129M525 66L555 115M525 66L470 -19M525 1506L470 1421M585 60L652 2M585 60L555 115M585 60L600 152M585 60L702 112M652 2L579 -79M652 2L699 -19M652 1442L579 1361M652 1442L699 1421M763 56L866 46M763 56L702 112M763 56L800 137M763 56L699 -19M763 56L761 -35M763 1496L699 1421M763 1496L761 1405M866 46L930 14M866 46L879 142M866 46L846 -41M866 46L906 -37M866 1486L846 1399M866 1486L906 1403M930 14L1012 8M930 14L846 -41M930 14L906 -37M930 14L970 -30M930 1454L846 1399M930 1454L906 1403M930 1454L970 1410M1012 8L1092 5M1012 8L994 114M1012 8L970 -30M1012 8L1046 -51M1012 1448L970 1410M1012 1448L1046 1389M1092 5L1046 -51M1092 1445L1046 1389M1185 75L1234 15M1185 75L1118 108M1185 75L1148 112M1185 75L1227 122M1185 75L1198 -6M1185 1515L1198 1434M1234 15L1307 31M1234 15L1198 -6M1234 15L1235 -31M1234 15L1291 -1M1234 1455L1198 1434M1234 1455L1235 1409M1234 1455L1291 1439M1307 31L1391 21M1307 31L1235 -31M1307 31L1291 -1M1307 31L1387 -11M1307 1471L1235 1409M1307 1471L1291 1439M1307 1471L1387 1429M1391 21L1482 27M1391 21L1450 99M1391 21L1387 -11M1391 1461L1387 1429M1482 27L1450 99M1482 27L1536 113M1482 27L1517 -61M1482 27L1541 -26M1482 1467L1517 1379M1482 1467L1541 1414M1595 54L1631 28M1595 54L1703 50M1595 54L1536 113M1595 54L1694 83M1595 54L1541 -26M1595 1494L1541 1414M1631 28L1703 50M1631 28L1694 83M1631 28L1541 -26M1631 28L1646 -52M1631 1468L1541 1414M1631 1468L1646 1388M1703 50L1802 51M1703 50L1694 83M1703 50L1772 -21M1703 1490L1772 1419M1802 51L1862 71M1802 51L1787 138M1802 51L1772 -21M1802 51L1883 -29M1802 1491L1772 1419M1802 1491L1883 1411M1862 71L1787 138M1862 71L1887 109M1862 71L1925 93M1862 71L1883 -29M1862 1511L1883 1411M1986 40L2028 53M1986 40L1925 93M1986 40L2050 84M2028 53L2111 74M2028 53L1925 93M2028 53L2050 84M2028 53L2110 129M2111 74L2207 71M2111 74L2050 84M2111 74L2110 129M2111 74L2171 91M2207 71L2286 52M2207 71L2171 91M2286 52L2284 140M2286 52L2340 99M2286 52L2276 -21M2286 52L2371 -7M2286 1492L2276 1419M2286 1492L2371 1433M2396 20L2476 72M2396 20L2442 105M2396 20L2371 -7M2396 20L2422 -52M2396 1460L2371 1433M2396 1460L2422 1388M2476 72L2508 11M2476 72L2442 105M2476 72L2507 114M2508 11L2507 114M2508 11L2603 -27M2508 11L2503 -73M-52 11L43 -27M-52 1451L43 1413M2508 1451L2603 1413M2508 1451L2503 1367M64 148L113 120M64 148L1 165M64 148L130 223M64 148L-25 172M64 148L49 246M2624 148L2535 172M113 120L130 223M232 92L296 115M395 146L435 129M395 146L353 200M395 146L415 190M435 129L415 190M555 115L600 152M555 115L535 211M555 115L591 226M600 152L702 112M600 152L535 211M600 152L591 226M702 112L714 191M800 137L879 142M800 137L714 191M800 137L786 225M800 137L834 192M879 142L894 158M879 142L834 192M894 158L994 114M894 158L834 192M894 158L960 218M894 158L857 248M994 114L1039 222M1118 108L1148 112M1118 108L1086 173M1118 108L1147 170M1148 112L1227 122M1148 112L1086 173M1148 112L1147 170M1227 122L1332 143M1227 122L1147 170M1227 122L1294 194M1332 143L1377 154M1332 143L1294 194M1377 154L1450 99M1377 154L1294 194M1377 154L1385 225M1377 154L1466 202M1450 99L1536 113M1450 99L1466 202M1648 146L1694 83M1648 146L1594 215M1648 146L1640 162M1694 83L1787 138M1787 138L1777 215M1787 138L1840 203M1887 109L1925 93M1887 109L1933 173M1925 93L1933 173M2050 84L2110 129M2050 84L2080 164M2110 129L2171 91M2110 129L2080 164M2171 91L2226 170M2171 91L2166 -21M2171 1531L2166 1419M2284 140L2340 99M2284 140L2226 170M2284 140L2292 197M2284 140L2340 194M2340 99L2442 105M2340 99L2340 194M2340 99L2420 166M2442 105L2507 114M2442 105L2420 166M2507 114L2561 165M2507 114L2535 172M-53 114L1 165M1 165L-25 172M1 165L49 246M1 165L-79 244M2561 165L2535 172M2561 165L2481 244M130 223L224 208M130 223L49 246M130 223L121 301M224 208L287 228M287 228L353 200M287 228L300 291M287 228L362 281M353 200L415 190M353 200L362 281M353 200L433 254M415 190L433 254M415 190L489 272M535 211L591 226M535 211L489 272M591 226L489 272M591 226L631 302M714 191L786 225M714 191L688 300M714 191L780 257M786 225L834 192M786 225L780 257M786 225L857 248M834 192L857 248M960 218L1039 222M960 218L940 290M1039 222L1086 173M1039 222L1020 287M1039 222L1088 250M1086 173L1147 170M1086 173L1088 250M1147 170L1190 254M1227 235L1294 194M1227 235L1190 254M1227 235L1248 305M1294 194L1318 274M1385 225L1466 202M1385 225L1318 274M1385 225L1362 312M1385 225L1454 273M1466 202L1454 273M1466 202L1539 274M1594 215L1640 162M1594 215L1686 238M1594 215L1539 274M1594 215L1602 257M1640 162L1686 238M1640 162L1602 257M1686 238L1777 215M1686 238L1602 257M1686 238L1725 247M1777 215L1840 203M1777 215L1725 247M1777 215L1838 288M1840 203L1933 173M1840 203L1725 247M1840 203L1838 288M1933 173L2014 229M2014 229L2080 164M2014 229L1967 274M2014 229L2072 280M2226 170L2292 197M2226 170L2234 255M2292 197L2340 194M2292 197L2234 255M2340 194L2420 166M2340 194L2372 295M2420 166L2481 244M2535 172L2609 246M2535 172L2481 244M-25 172L49 246M49 246L121 301M121 301L218 316M121 301L65 375M218 316L300 291M218 316L151 395M218 316L214 385M218 316L273 388M300 291L362 281M300 291L374 367M362 281L433 254M362 281L374 367M433 254L489 272M433 254L437 363M489 272L437 363M631 302L688 300M631 302L594 375M631 302L698 359M631 302L656 420M688 300L698 359M688 300L768 331M780 257L857 248M780 257L768 331M857 248L940 290M940 290L1020 287M940 290L940 327M1020 287L1088 250M1020 287L940 327M1088 250L1190 254M1190 254L1248 305M1190 254L1208 330M1248 305L1318 274M1248 305L1208 330M1248 305L1287 383M1318 274L1362 312M1318 274L1381 324M1362 312L1454 273M1362 312L1381 324M1454 273L1539 274M1454 273L1381 324M1539 274L1602 257M1539 274L1549 375M1602 257L1725 247M1725 247L1703 331M1838 288L1910 301M1838 288L1819 340M1838 288L1900 330M1910 301L1967 274M1910 301L1819 340M1910 301L1900 330M1910 301L1979 331M1967 274L1900 330M1967 274L1979 331M2072 280L2156 315M2072 280L1979 331M2072 280L2078 362M2072 280L2092 382M2156 315L2234 255M2156 315L2078 362M2156 315L2092 382M2156 315L2216 336M2234 255L2304 301M2234 255L2216 336M2304 301L2372 295M2304 301L2216 336M2304 301L2253 387M2304 301L2355 363M2372 295L2462 316M2372 295L2355 363M2372 295L2412 382M2462 316L2481 244M2462 316L2412 382M2462 316L2556 331M2481 244L2556 331M65 375L151 395M65 375L-4 331M65 375L73 460M65 375L97 429M2625 375L2556 331M151 395L214 385M151 395L97 429M214 385L273 388M214 385L228 476M214 385L241 465M273 388L241 465M374 367L437 363M374 367L339 474M374 367L408 427M437 363L539 381M437 363L408 427M539 381L594 375M539 381L542 469M539 381L534 481M594 375L698 359M594 375L590 447M594 375L656 420M698 359L768 331M698 359L656 420M768 331L816 400M816 400L752 476M816 400L845 446M816 400L783 488M940 327L1022 391M940 327L954 442M940 327L991 441M1022 391L1113 366M1022 391L954 442M1022 391L991 441M1022 391L1051 435M1113 366L1199 399M1113 366L1208 330M1113 366L1051 435M1113 366L1194 409M1199 399L1208 330M1199 399L1287 383M1199 399L1194 409M1208 330L1194 409M1287 383L1194 409M1287 383L1269 458M1287 383L1340 418M1381 324L1340 418M1503 394L1549 375M1503 394L1426 454M1503 394L1455 438M1503 394L1521 421M1549 375L1655 386M1549 375L1521 421M1549 375L1619 444M1655 386L1703 331M1655 386L1619 444M1655 386L1720 478M1655 386L1719 480M1819 340L1900 330M1900 330L1979 331M1979 331L1987 410M2078 362L2092 382M2078 362L1987 410M2092 382L1987 410M2092 382L2071 475M2216 336L2253 387M2253 387L2203 469M2253 387L2314 435M2253 387L2327 441M2355 363L2412 382M2355 363L2314 435M2355 363L2327 441M2412 382L2327 441M2412 382L2476 454M73 460L97 429M73 460L-9 461M73 460L29 496M73 460L93 517M2633 460L2551 461M97 429L29 496M97 429L93 517M228 476L241 465M228 476L237 486M241 465L237 486M241 465L301 535M339 474L408 427M339 474L237 486M339 474L301 535M339 474L331 534M542 469L590 447M542 469L534 481M542 469L574 515M590 447L656 420M590 447L534 481M590 447L574 515M656 420L752 476M752 476L845 446M752 476L783 488M752 476L827 520M845 446L783 488M845 446L827 520M954 442L991 441M954 442L1051 435M954 442L1004 524M991 441L1051 435M991 441L1004 524M1051 435L1004 524M1194 409L1269 458M1269 458L1340 418M1269 458L1265 529M1269 458L1312 504M1340 418L1312 504M1340 418L1406 486M1426 454L1455 438M1426 454L1521 421M1426 454L1406 486M1426 454L1450 510M1455 438L1521 421M1455 438L1406 486M1455 438L1450 510M1521 421L1619 444M1720 478L1814 466M1720 478L1679 533M1720 478L1719 480M1720 478L1781 522M1814 466L1850 461M1814 466L1719 480M1814 466L1781 522M1814 466L1895 503M1850 461L1781 522M1850 461L1895 503M1850 461L1935 539M2071 475L2158 476M2071 475L2062 520M2071 475L2085 486M2158 476L2203 469M2158 476L2062 520M2158 476L2085 486M2158 476L2174 511M2203 469L2174 511M2203 469L2301 482M2203 469L2169 573M2314 435L2327 441M2314 435L2301 482M2327 441L2301 482M2476 454L2551 461M2476 454L2484 491M2551 461L2589 496M2551 461L2484 491M2551 461L2501 580M-9 461L29 496M29 496L93 517M29 496L-76 491M2589 496L2484 491M93 517L129 596M237 486L301 535M301 535L331 534M301 535L312 618M331 534L423 555M331 534L312 618M331 534L323 620M423 555L454 576M423 555L497 611M534 481L574 515M574 515L569 607M574 515L640 581M648 551L569 607M648 551L640 581M783 488L827 520M827 520L902 534M827 520L875 568M902 534L875 568M902 534L929 615M902 534L967 570M1004 524L967 570M1112 548L1149 560M1112 548L1117 606M1149 560L1117 606M1149 560L1169 625M1149 560L1220 605M1149 560L1146 657M1265 529L1312 504M1265 529L1220 605M1265 529L1314 611M1312 504L1406 486M1406 486L1450 510M1450 510L1450 605M1575 553L1528 622M1679 533L1719 480M1679 533L1669 624M1679 533L1774 583M1719 480L1781 522M1781 522L1774 583M1895 503L1935 539M1895 503L1975 570M1935 539L1862 628M1935 539L1975 570M2062 520L2085 486M2062 520L1975 570M2062 520L2097 591M2085 486L2174 511M2174 511L2169 573M2301 482L2341 540M2341 540L2420 543M2341 540L2247 611M2341 540L2330 588M2341 540L2411 573M2420 543L2484 491M2420 543L2330 588M2420 543L2411 573M2420 543L2501 580M2484 491L2501 580M68 638L129 596M68 638L69 676M68 638L89 696M68 638L183 654M68 638L-24 688M2628 638L2536 688M129 596L204 624M129 596L69 676M129 596L183 654M204 624L183 654M204 624L287 663M204 624L207 729M312 618L323 620M312 618L287 663M312 618L363 658M323 620L287 663M323 620L363 658M454 576L497 611M454 576L442 659M497 611L569 607M497 611L442 659M497 611L496 712M569 607L640 581M569 607L630 667M640 581L630 667M640 581L686 655M778 628L724 676M778 628L835 674M875 568L929 615M875 568L931 643M929 615L967 570M929 615L931 643M929 615L1009 645M967 570L931 643M967 570L1009 645M1117 606L1169 625M1117 606L1220 605M1117 606L1146 657M1169 625L1220 605M1169 625L1146 657M1169 625L1262 648M1220 605L1262 648M1314 611L1401 614M1314 611L1262 648M1314 611L1330 693M1401 614L1450 605M1401 614L1371 695M1450 605L1528 622M1528 622L1562 692M1669 624L1735 640M1669 624L1696 678M1735 640L1774 583M1735 640L1696 678M1735 640L1766 658M1735 640L1703 728M1774 583L1862 628M1774 583L1766 658M1862 628L1847 681M1862 628L1943 664M1975 570L2065 640M1975 570L1943 664M2065 640L2097 591M2065 640L2076 665M2065 640L2035 741M2097 591L2169 573M2097 591L2076 665M2097 591L2163 650M2169 573L2247 611M2169 573L2163 650M2247 611L2330 588M2247 611L2163 650M2247 611L2256 718M2330 588L2411 573M2330 588L2360 672M2411 573L2501 580M2411 573L2360 672M2501 580L2536 688M69 676L89 696M69 676L-24 688M2629 676L2536 688M183 654L207 729M287 663L363 658M287 663L249 760M363 658L442 659M363 658L370 749M442 659L496 712M442 659L488 733M496 712L415 760M496 712L488 733M496 712L561 809M630 667L686 655M630 667L639 730M630 667L662 749M686 655L724 676M686 655L639 730M686 655L662 749M724 676L639 730M724 676L662 749M724 676L745 739M835 674L931 643M835 674L835 735M931 643L1009 645M1009 645L1057 691M1057 691L1146 657M1057 691L1125 729M1146 657L1125 729M1262 648L1330 693M1262 648L1253 753M1330 693L1371 695M1330 693L1253 753M1330 693L1305 751M1371 695L1459 715M1371 695L1305 751M1371 695L1435 746M1459 715L1562 692M1459 715L1435 746M1459 715L1441 788M1459 715L1426 811M1562 692L1640 718M1562 692L1529 790M1640 718L1696 678M1640 718L1674 794M1640 718L1703 728M1696 678L1766 658M1696 678L1703 728M1766 658L1847 681M1847 681L1943 664M1847 681L1868 768M1847 681L1927 732M1943 664L1927 732M2076 665L2148 716M2076 665L2035 741M2076 665L2135 732M2148 716L2163 650M2148 716L2256 718M2148 716L2135 732M2163 650L2135 732M2256 718L2240 794M2256 718L2283 746M2360 672L2283 746M2360 672L2386 741M2360 672L2407 763M2467 708L2536 688M2467 708L2386 741M2467 708L2407 763M2536 688L2536 790M26 779L120 787M26 779L-24 790M26 779L20 813M2586 779L2536 790M120 787L207 729M120 787L20 813M120 787L97 872M120 787L175 836M207 729L249 760M249 760L370 749M249 760L175 836M249 760L248 840M370 749L415 760M370 749L387 801M415 760L488 733M415 760L387 801M415 760L457 854M488 733L387 801M488 733L561 809M639 730L662 749M639 730L745 739M662 749L745 739M745 739L835 735M745 739L780 805M835 735L921 773M835 735L780 805M835 735L854 803M921 773L980 782M921 773L854 803M921 773L904 862M921 773L1014 832M980 782L904 862M980 782L1014 832M980 782L1043 810M1114 797L1125 729M1114 797L1014 832M1114 797L1043 810M1114 797L1175 815M1114 797L1086 894M1125 729L1175 815M1253 753L1305 751M1253 753L1175 815M1253 753L1239 825M1305 751L1239 825M1305 751L1346 818M1435 746L1441 788M1435 746L1426 811M1441 788L1529 790M1441 788L1346 818M1441 788L1426 811M1529 790L1500 873M1529 790L1566 846M1529 790L1617 835M1674 794L1703 728M1674 794L1617 835M1674 794L1710 831M1703 728L1781 777M1781 777L1868 768M1781 777L1710 831M1781 777L1794 829M1781 777L1865 816M1868 768L1927 732M1868 768L1794 829M1868 768L1865 816M1927 732L2035 741M1927 732L1990 816M2035 741L2135 732M2035 741L1990 816M2240 794L2283 746M2240 794L2201 821M2240 794L2294 844M2240 794L2321 837M2283 746L2386 741M2283 746L2321 837M2386 741L2407 763M2407 763L2414 838M2536 790L2580 813M2536 790L2493 871M2536 790L2539 891M-24 790L20 813M20 813L97 872M20 813L-21 891M2580 813L2539 891M97 872L175 836M97 872L69 918M97 872L197 896M175 836L248 840M175 836L197 896M248 840L197 896M248 840L292 932M248 840L347 913M387 801L457 854M387 801L347 913M457 854L557 855M457 854L423 946M457 854L546 893M557 855L561 809M557 855L546 893M557 855L583 910M561 809L546 893M561 809L583 910M710 872L780 805M710 872L687 919M710 872L779 949M780 805L854 803M854 803L904 862M904 862L877 940M904 862L933 920M1014 832L1043 810M1014 832L1086 894M1043 810L1086 894M1175 815L1239 825M1175 815L1135 910M1239 825L1346 818M1239 825L1314 912M1346 818L1426 811M1346 818L1314 912M1426 811L1500 873M1500 873L1566 846M1500 873L1476 932M1500 873L1562 936M1566 846L1617 835M1566 846L1562 936M1617 835L1710 831M1617 835L1661 938M1710 831L1794 829M1794 829L1865 816M1794 829L1831 899M1865 816L1831 899M1990 816L2016 871M1990 816L2104 847M2016 871L2104 847M2016 871L2068 933M2104 847L2201 821M2104 847L2068 933M2104 847L2134 910M2201 821L2294 844M2201 821L2211 909M2294 844L2321 837M2294 844L2211 909M2294 844L2259 954M2321 837L2414 838M2321 837L2374 909M2414 838L2493 871M2414 838L2374 909M2414 838L2454 888M2493 871L2454 888M2493 871L2539 891M69 918L154 954M69 918L-21 891M2629 918L2539 891M154 954L197 896M154 954L119 1022M154 954L224 1025M154 954L177 1046M197 896L292 932M292 932L347 913M292 932L294 1031M292 932L368 993M347 913L423 946M347 913L368 993M423 946L368 993M423 946L423 1038M423 946L525 984M546 893L583 910M546 893L525 984M583 910L525 984M583 910L612 988M687 919L779 949M687 919L612 988M779 949L877 940M779 949L750 1031M779 949L851 989M877 940L933 920M877 940L851 989M933 920L999 951M933 920L990 987M999 951L948 1027M999 951L990 987M999 951L1089 991M1086 894L1135 910M1086 894L1089 991M1135 910L1089 991M1135 910L1135 1001M1277 941L1314 912M1277 941L1380 945M1277 941L1271 1012M1314 912L1380 945M1380 945L1476 932M1380 945L1411 970M1476 932L1562 936M1476 932L1411 970M1476 932L1481 1011M1562 936L1661 938M1562 936L1530 1016M1661 938L1741 953M1661 938L1670 972M1741 953L1843 933M1741 953L1670 972M1741 953L1728 1023M1741 953L1766 986M1831 899L1843 933M1831 899L1929 931M1831 899L1851 961M1843 933L1929 931M1843 933L1766 986M1843 933L1851 961M1929 931L1851 961M1929 931L1998 968M1929 931L1936 1042M2068 933L2134 910M2068 933L1998 968M2068 933L2086 975M2134 910L2211 909M2134 910L2086 975M2134 910L2181 1002M2211 909L2259 954M2211 909L2181 1002M2259 954L2181 1002M2259 954L2299 1028M2259 954L2392 966M2374 909L2454 888M2374 909L2392 966M2454 888L2539 891M2454 888L2392 966M66 1024L119 1022M66 1024L-1 1037M66 1024L76 1069M66 1024L90 1083M66 1024L-16 1066M2626 1024L2559 1037M2626 1024L2544 1066M119 1022L76 1069M119 1022L90 1083M119 1022L177 1046M224 1025L294 1031M224 1025L177 1046M224 1025L263 1091M294 1031L368 993M294 1031L263 1091M294 1031L387 1098M368 993L423 1038M423 1038L387 1098M423 1038L435 1071M423 1038L395 1140M525 984L612 988M525 984L545 1068M612 988L686 1035M686 1035L750 1031M686 1035L623 1081M686 1035L693 1051M686 1035L741 1086M750 1031L693 1051M750 1031L741 1086M851 989L863 1074M948 1027L990 987M948 1027L863 1074M948 1027L949 1054M948 1027L978 1097M990 987L1089 991M990 987L949 1054M1089 991L1135 1001M1135 1001L1147 1116M1271 1012L1329 1036M1271 1012L1260 1068M1329 1036L1411 970M1329 1036L1260 1068M1329 1036L1352 1112M1329 1036L1407 1075M1411 970L1481 1011M1411 970L1407 1075M1481 1011L1530 1016M1481 1011L1486 1104M1530 1016L1540 1105M1670 972L1728 1023M1670 972L1766 986M1728 1023L1766 986M1728 1023L1664 1090M1728 1023L1739 1099M1766 986L1851 961M1998 968L2066 1032M1998 968L2086 975M1998 968L1936 1042M2066 1032L2086 975M2066 1032L2054 1066M2066 1032L2124 1050M2086 975L2124 1050M2181 1002L2124 1050M2181 1002L2214 1105M2299 1028L2392 966M2299 1028L2214 1105M2299 1028L2276 1105M2299 1028L2398 1081M2392 966L2463 1018M2463 1018L2559 1037M2463 1018L2398 1081M2463 1018L2441 1114M2559 1037L2636 1069M2559 1037L2650 1083M2559 1037L2544 1066M-1 1037L76 1069M-1 1037L90 1083M76 1069L90 1083M76 1069L-16 1066M2636 1069L2544 1066M90 1083L177 1046M177 1046L263 1091M263 1091L237 1159M263 1091L275 1190M387 1098L435 1071M387 1098L395 1140M387 1098L439 1160M435 1071L545 1068M435 1071L395 1140M435 1071L439 1160M545 1068L623 1081M545 1068L550 1139M623 1081L693 1051M623 1081L626 1138M623 1081L652 1125M693 1051L741 1086M693 1051L652 1125M741 1086L725 1144M863 1074L949 1054M863 1074L832 1123M863 1074L914 1161M949 1054L978 1097M978 1097L1056 1094M978 1097L914 1161M978 1097L1021 1172M1056 1094L1147 1116M1056 1094L1021 1172M1056 1094L1087 1175M1147 1116L1260 1068M1147 1116L1087 1175M1147 1116L1127 1192M1260 1068L1352 1112M1260 1068L1286 1140M1352 1112L1407 1075M1352 1112L1286 1140M1352 1112L1386 1151M1407 1075L1486 1104M1407 1075L1386 1151M1486 1104L1540 1105M1486 1104L1506 1155M1486 1104L1587 1136M1540 1105L1506 1155M1540 1105L1587 1136M1540 1105L1536 1226M1664 1090L1739 1099M1664 1090L1587 1136M1664 1090L1680 1172M1664 1090L1705 1125M1739 1099L1783 1108M1739 1099L1680 1172M1739 1099L1705 1125M1783 1108L1891 1068M1783 1108L1705 1125M1783 1108L1829 1141M1783 1108L1771 1207M1891 1068L1936 1042M1891 1068L1829 1141M1891 1068L1906 1160M1891 1068L1946 1155M1936 1042L1946 1155M2054 1066L2124 1050M2054 1066L2102 1148M2124 1050L2214 1105M2214 1105L2276 1105M2214 1105L2191 1189M2276 1105L2267 1195M2276 1105L2301 1202M2398 1081L2441 1114M2398 1081L2387 1146M2398 1081L2475 1129M2441 1114L2387 1146M2441 1114L2475 1129M2441 1114L2496 1157M2544 1066L2475 1129M2544 1066L2496 1157M31 1193L132 1192M31 1193L-64 1157M31 1193L74 1250M31 1193L91 1226M31 1193L-8 1255M2591 1193L2496 1157M2591 1193L2552 1255M132 1192L237 1159M132 1192L74 1250M132 1192L91 1226M132 1192L210 1227M237 1159L275 1190M237 1159L210 1227M275 1190L210 1227M275 1190L263 1279M275 1190L345 1256M395 1140L439 1160M395 1140L405 1219M439 1160L405 1219M550 1139L626 1138M550 1139L571 1221M626 1138L652 1125M626 1138L644 1211M652 1125L725 1144M652 1125L644 1211M725 1144L832 1123M725 1144L644 1211M832 1123L914 1161M832 1123L799 1222M832 1123L888 1201M914 1161L888 1201M1021 1172L1087 1175M1021 1172L1127 1192M1021 1172L1031 1274M1087 1175L1127 1192M1087 1175L1117 1230M1127 1192L1117 1230M1127 1192L1196 1236M1242 1192L1286 1140M1242 1192L1196 1236M1242 1192L1229 1253M1242 1192L1295 1218M1286 1140L1295 1218M1386 1151L1365 1217M1506 1155L1587 1136M1506 1155L1519 1263M1506 1155L1536 1226M1587 1136L1536 1226M1680 1172L1705 1125M1680 1172L1668 1270M1680 1172L1730 1234M1705 1125L1730 1234M1829 1141L1906 1160M1829 1141L1771 1207M1906 1160L1946 1155M1906 1160L1884 1241M1906 1160L1982 1212M1946 1155L1884 1241M1946 1155L1982 1212M2067 1194L2102 1148M2067 1194L1982 1212M2067 1194L2073 1270M2067 1194L2136 1257M2102 1148L2191 1189M2191 1189L2267 1195M2191 1189L2136 1257M2191 1189L2171 1227M2267 1195L2301 1202M2267 1195L2239 1281M2387 1146L2475 1129M2387 1146L2301 1202M2387 1146L2380 1235M2475 1129L2496 1157M2496 1157L2552 1255M74 1250L91 1226M74 1250L-8 1255M74 1250L-4 1296M2634 1250L2552 1255M2634 1250L2556 1296M210 1227L263 1279M210 1227L237 1295M263 1279L345 1256M263 1279L237 1295M263 1279L280 1329M345 1256L405 1219M345 1256L350 1326M345 1256L432 1308M405 1219L498 1260M405 1219L432 1308M498 1260L571 1221M498 1260L432 1308M498 1260L546 1316M571 1221L644 1211M571 1221L546 1316M571 1221L633 1318M644 1211L633 1318M799 1222L878 1257M799 1222L888 1201M799 1222L755 1309M799 1222L816 1306M878 1257L888 1201M878 1257L816 1306M878 1257L966 1309M1031 1274L1117 1230M1031 1274L951 1326M1031 1274L966 1309M1031 1274L1046 1330M1117 1230L1196 1236M1196 1236L1229 1253M1196 1236L1295 1218M1229 1253L1295 1218M1229 1253L1261 1344M1295 1218L1365 1217M1365 1217L1349 1324M1365 1217L1424 1293M1365 1217L1440 1280M1519 1263L1536 1226M1519 1263L1424 1293M1519 1263L1440 1280M1519 1263L1576 1355M1536 1226L1440 1280M1668 1270L1730 1234M1668 1270L1659 1354M1668 1270L1737 1299M1668 1270L1646 1388M1730 1234L1771 1207M1730 1234L1737 1299M1771 1207L1817 1291M1884 1241L1982 1212M1884 1241L1817 1291M1884 1241L1895 1289M2073 1270L2136 1257M2073 1270L2171 1227M2073 1270L2005 1313M2073 1270L2142 1316M2136 1257L2171 1227M2136 1257L2142 1316M2171 1227L2142 1316M2171 1227L2239 1281M2301 1202L2380 1235M2301 1202L2239 1281M2380 1235L2404 1246M2380 1235L2433 1286M2404 1246L2433 1286M2552 1255L2577 1349M2552 1255L2556 1296M-8 1255L17 1349M17 1349L-4 1296M17 1349L43 1413M17 1349L-57 1367M2577 1349L2556 1296M2577 1349L2503 1367M144 1349L237 1295M144 1349L147 1414M144 1349L185 1418M237 1295L280 1329M280 1329L350 1326M280 1329L268 1420M280 1329L336 1382M350 1326L432 1308M350 1326L336 1382M546 1316L633 1318M546 1316L496 1396M546 1316L579 1361M633 1318L696 1325M633 1318L579 1361M696 1325L755 1309M696 1325L579 1361M696 1325L699 1421M696 1325L761 1405M755 1309L816 1306M755 1309L699 1421M755 1309L761 1405M816 1306L846 1399M951 1326L966 1309M951 1326L1046 1330M951 1326L906 1403M951 1326L970 1410M966 1309L1046 1330M1046 1330L1046 1389M1161 1350L1198 1434M1261 1344L1349 1324M1261 1344L1235 1409M1261 1344L1291 1439M1349 1324L1424 1293M1349 1324L1440 1280M1424 1293L1440 1280M1576 1355L1659 1354M1576 1355L1517 1379M1576 1355L1541 1414M1576 1355L1646 1388M1659 1354L1737 1299M1659 1354L1646 1388M1659 1354L1759 1370M1737 1299L1817 1291M1737 1299L1759 1370M1817 1291L1895 1289M1817 1291L1759 1370M1895 1289L1962 1349M1895 1289L1883 1411M1895 1289L1938 1366M1962 1349L2005 1313M1962 1349L1883 1411M1962 1349L1938 1366M1962 1349L2065 1392M2005 1313L1938 1366M2005 1313L2065 1392M2142 1316L2144 1384M2239 1281L2275 1322M2239 1281L2323 1349M2275 1322L2323 1349M2275 1322L2276 1419M2323 1349L2276 1419M2323 1349L2371 1433M2323 1349L2422 1388M2433 1286L2422 1388M2556 1296L2503 1367M43 1413L147 1414M43 1413L-57 1367M2603 1413L2503 1367M147 1414L185 1418M185 1418L268 1420M268 1420L336 1382M336 1382L470 1421M470 1421L496 1396M496 1396L579 1361M699 1421L761 1405M761 1405L846 1399M846 1399L906 1403M906 1403L970 1410M970 1410L1046 1389M1198 1434L1235 1409M1198 1434L1291 1439M1235 1409L1291 1439M1517 1379L1541 1414M1646 1388L1759 1370M1759 1370L1772 1419M1883 1411L1938 1366M2065 1392L2144 1384M2065 1392L2166 1419M2144 1384L2166 1419M2166 1419L2276 1419M2276 1419L2371 1433M2371 1433L2422 1388M2422 1388L2503 1367"/></svg>