<svg xmlns="http://www.w3.org/2000/svg" width="2560" height="1440" fill="#fff"><circle cx="70" cy="62" r="5"/><circle cx="118" cy="31" r="5"/><circle cx="166" cy="8" r="6"/><circle cx="258" cy="5" r="6"/><circle cx="258" cy="1445" r="6"/><circle cx="389" cy="61" r="4"/><circle cx="448" cy="29" r="5"/><circle cx="521" cy="35" r="6"/><circle cx="584" cy="30" r="4"/><circle cx="662" cy="48" r="6"/><circle cx="798" cy="48" r="6"/><circle cx="863" cy="9" r="4"/><circle cx="902" cy="52" r="6"/><circle cx="982" cy="1" r="6"/><circle cx="982" cy="1441" r="6"/><circle cx="1069" cy="44" r="6"/><circle cx="1124" cy="65" r="6"/><circle cx="1239" cy="43" r="5"/><circle cx="1303" cy="75" r="6"/><circle cx="1404" cy="47" r="6"/><circle cx="1508" cy="65" r="4"/><circle cx="1561" cy="50" r="4"/><circle cx="1658" cy="77" r="6"/><circle cx="1722" cy="5" r="6"/><circle cx="1722" cy="1445" r="6"/><circle cx="1791" cy="37" r="4"/><circle cx="1847" cy="4" r="5"/><circle cx="1847" cy="1444" r="5"/><circle cx="1988" cy="51" r="4"/><circle cx="2041" cy="59" r="6"/><circle cx="2141" cy="20" r="5"/><circle cx="2187" cy="25" r="6"/><circle cx="2250" cy="14" r="5"/><circle cx="2332" cy="4" r="6"/><circle cx="2332" cy="1444" r="6"/><circle cx="2436" cy="9" r="4"/><circle cx="2489" cy="76" r="4"/><circle cx="22" cy="88" r="6"/><circle cx="131" cy="95" r="5"/><circle cx="178" cy="154" r="5"/><circle cx="298" cy="124" r="6"/><circle cx="339" cy="85" r="5"/><circle cx="468" cy="109" r="4"/><circle cx="557" cy="111" r="6"/><circle cx="572" cy="135" r="5"/><circle cx="673" cy="130" r="4"/><circle cx="749" cy="114" r="5"/><circle cx="828" cy="112" r="5"/><circle cx="906" cy="115" r="6"/><circle cx="1023" cy="158" r="4"/><circle cx="1074" cy="109" r="6"/><circle cx="1138" cy="105" r="6"/><circle cx="1232" cy="153" r="4"/><circle cx="1293" cy="149" r="5"/><circle cx="1421" cy="133" r="4"/><circle cx="1474" cy="130" r="6"/><circle cx="1562" cy="160" r="5"/><circle cx="1627" cy="128" r="4"/><circle cx="1748" cy="98" r="5"/><circle cx="1761" cy="133" r="4"/><circle cx="1902" cy="115" r="6"/><circle cx="1965" cy="140" r="5"/><circle cx="2066" cy="154" r="6"/><circle cx="2103" cy="153" r="6"/><circle cx="2163" cy="135" r="4"/><circle cx="2295" cy="116" r="4"/><circle cx="2379" cy="89" r="5"/><circle cx="2416" cy="144" r="4"/><circle cx="2535" cy="102" r="5"/><circle cx="11" cy="222" r="5"/><circle cx="142" cy="162" r="6"/><circle cx="169" cy="196" r="6"/><circle cx="245" cy="195" r="5"/><circle cx="337" cy="207" r="5"/><circle cx="444" cy="165" r="5"/><circle cx="488" cy="212" r="5"/><circle cx="638" cy="180" r="5"/><circle cx="666" cy="199" r="6"/><circle cx="778" cy="203" r="4"/><circle cx="868" cy="168" r="4"/><circle cx="900" cy="193" r="4"/><circle cx="1006" cy="237" r="5"/><circle cx="1067" cy="220" r="5"/><circle cx="1165" cy="226" r="5"/><circle cx="1239" cy="207" r="6"/><circle cx="1288" cy="177" r="4"/><circle cx="1373" cy="208" r="6"/><circle cx="1440" cy="197" r="4"/><circle cx="1524" cy="176" r="4"/><circle cx="1612" cy="175" r="4"/><circle cx="1695" cy="217" r="5"/><circle cx="1788" cy="235" r="5"/><circle cx="1882" cy="195" r="5"/><circle cx="1927" cy="198" r="5"/><circle cx="2080" cy="219" r="5"/><circle cx="2080" cy="162" r="6"/><circle cx="2223" cy="200" r="4"/><circle cx="2245" cy="223" r="4"/><circle cx="2369" cy="173" r="6"/><circle cx="2460" cy="224" r="5"/><circle cx="2498" cy="176" r="5"/><circle cx="24" cy="255" r="5"/><circle cx="128" cy="320" r="5"/><circle cx="224" cy="258" r="5"/><circle cx="300" cy="265" r="5"/><circle cx="372" cy="266" r="4"/><circle cx="404" cy="300" r="5"/><circle cx="509" cy="318" r="5"/><circle cx="636" cy="299" r="5"/><circle cx="705" cy="300" r="4"/><circle cx="789" cy="296" r="6"/><circle cx="827" cy="285" r="4"/><circle cx="910" cy="289" r="6"/><circle cx="960" cy="290" r="4"/><circle cx="1057" cy="259" r="4"/><circle cx="1178" cy="282" r="6"/><circle cx="1219" cy="243" r="5"/><circle cx="1317" cy="276" r="6"/><circle cx="1362" cy="286" r="5"/><circle cx="1470" cy="263" r="4"/><circle cx="1543" cy="278" r="6"/><circle cx="1671" cy="308" r="5"/><circle cx="1709" cy="253" r="5"/><circle cx="1766" cy="298" r="4"/><circle cx="1901" cy="269" r="5"/><circle cx="2000" cy="256" r="4"/><circle cx="2074" cy="266" r="4"/><circle cx="2141" cy="296" r="5"/><circle cx="2193" cy="296" r="5"/><circle cx="2302" cy="265" r="5"/><circle cx="2334" cy="279" r="5"/><circle cx="2417" cy="266" r="5"/><circle cx="2539" cy="294" r="4"/><circle cx="71" cy="388" r="5"/><circle cx="142" cy="353" r="5"/><circle cx="188" cy="380" r="6"/><circle cx="249" cy="384" r="5"/><circle cx="379" cy="361" r="5"/><circle cx="430" cy="380" r="5"/><circle cx="522" cy="392" r="5"/><circle cx="600" cy="371" r="5"/><circle cx="663" cy="329" r="5"/><circle cx="737" cy="335" r="5"/><circle cx="807" cy="391" r="5"/><circle cx="928" cy="350" r="5"/><circle cx="966" cy="392" r="5"/><circle cx="1110" cy="366" r="5"/><circle cx="1179" cy="384" r="4"/><circle cx="1279" cy="336" r="5"/><circle cx="1303" cy="393" r="5"/><circle cx="1439" cy="323" r="5"/><circle cx="1477" cy="393" r="4"/><circle cx="1546" cy="336" r="5"/><circle cx="1666" cy="352" r="4"/><circle cx="1718" cy="365" r="5"/><circle cx="1826" cy="387" r="6"/><circle cx="1896" cy="383" r="5"/><circle cx="1924" cy="379" r="4"/><circle cx="2030" cy="374" r="5"/><circle cx="2151" cy="342" r="5"/><circle cx="2224" cy="383" r="6"/><circle cx="2253" cy="335" r="5"/><circle cx="2336" cy="339" r="6"/><circle cx="2403" cy="331" r="5"/><circle cx="2510" cy="375" r="5"/><circle cx="19" cy="408" r="4"/><circle cx="133" cy="461" r="4"/><circle cx="204" cy="451" r="5"/><circle cx="288" cy="412" r="4"/><circle cx="399" cy="424" r="4"/><circle cx="454" cy="477" r="5"/><circle cx="525" cy="418" r="4"/><circle cx="575" cy="452" r="4"/><circle cx="686" cy="410" r="5"/><circle cx="775" cy="443" r="6"/><circle cx="813" cy="435" r="4"/><circle cx="931" cy="459" r="5"/><circle cx="1014" cy="432" r="4"/><circle cx="1064" cy="412" r="4"/><circle cx="1127" cy="432" r="4"/><circle cx="1269" cy="445" r="6"/><circle cx="1300" cy="441" r="4"/><circle cx="1366" cy="434" r="4"/><circle cx="1444" cy="407" r="4"/><circle cx="1540" cy="450" r="5"/><circle cx="1611" cy="406" r="4"/><circle cx="1718" cy="415" r="5"/><circle cx="1837" cy="408" r="5"/><circle cx="1898" cy="446" r="5"/><circle cx="1995" cy="429" r="4"/><circle cx="2048" cy="420" r="5"/><circle cx="2135" cy="402" r="4"/><circle cx="2226" cy="429" r="5"/><circle cx="2271" cy="468" r="6"/><circle cx="2374" cy="427" r="4"/><circle cx="2412" cy="432" r="5"/><circle cx="2502" cy="453" r="6"/><circle cx="15" cy="514" r="6"/><circle cx="86" cy="506" r="4"/><circle cx="204" cy="560" r="5"/><circle cx="286" cy="504" r="5"/><circle cx="361" cy="551" r="4"/><circle cx="457" cy="534" r="5"/><circle cx="550" cy="497" r="6"/><circle cx="585" cy="518" r="4"/><circle cx="674" cy="501" r="6"/><circle cx="737" cy="557" r="6"/><circle cx="844" cy="510" r="4"/><circle cx="913" cy="529" r="6"/><circle cx="994" cy="551" r="5"/><circle cx="1042" cy="519" r="4"/><circle cx="1184" cy="527" r="6"/><circle cx="1227" cy="551" r="6"/><circle cx="1318" cy="480" r="5"/><circle cx="1361" cy="514" r="6"/><circle cx="1467" cy="499" r="4"/><circle cx="1546" cy="529" r="5"/><circle cx="1611" cy="536" r="5"/><circle cx="1735" cy="509" r="4"/><circle cx="1792" cy="553" r="5"/><circle cx="1884" cy="512" r="5"/><circle cx="1999" cy="494" r="6"/><circle cx="2026" cy="541" r="5"/><circle cx="2118" cy="511" r="4"/><circle cx="2165" cy="487" r="6"/><circle cx="2306" cy="548" r="6"/><circle cx="2390" cy="530" r="4"/><circle cx="2478" cy="487" r="4"/><circle cx="2523" cy="505" r="6"/><circle cx="60" cy="568" r="5"/><circle cx="99" cy="579" r="5"/><circle cx="210" cy="637" r="5"/><circle cx="301" cy="636" r="4"/><circle cx="395" cy="578" r="6"/><circle cx="468" cy="591" r="6"/><circle cx="505" cy="585" r="5"/><circle cx="596" cy="581" r="5"/><circle cx="669" cy="563" r="6"/><circle cx="764" cy="585" r="4"/><circle cx="866" cy="584" r="5"/><circle cx="943" cy="621" r="5"/><circle cx="981" cy="582" r="5"/><circle cx="1058" cy="618" r="5"/><circle cx="1182" cy="562" r="4"/><circle cx="1249" cy="590" r="6"/><circle cx="1333" cy="636" r="5"/><circle cx="1405" cy="639" r="6"/><circle cx="1460" cy="564" r="5"/><circle cx="1579" cy="637" r="4"/><circle cx="1650" cy="610" r="6"/><circle cx="1751" cy="613" r="6"/><circle cx="1769" cy="592" r="5"/><circle cx="1877" cy="598" r="6"/><circle cx="1998" cy="576" r="5"/><circle cx="2009" cy="631" r="5"/><circle cx="2157" cy="612" r="5"/><circle cx="2225" cy="564" r="5"/><circle cx="2244" cy="573" r="4"/><circle cx="2396" cy="607" r="6"/><circle cx="2458" cy="589" r="5"/><circle cx="2557" cy="609" r="5"/><circle cx="-3" cy="609" r="5"/><circle cx="60" cy="663" r="6"/><circle cx="126" cy="700" r="6"/><circle cx="193" cy="684" r="4"/><circle cx="242" cy="647" r="6"/><circle cx="328" cy="690" r="5"/><circle cx="415" cy="708" r="5"/><circle cx="554" cy="643" r="4"/><circle cx="562" cy="680" r="5"/><circle cx="658" cy="678" r="5"/><circle cx="761" cy="669" r="5"/><circle cx="806" cy="685" r="5"/><circle cx="888" cy="712" r="6"/><circle cx="1012" cy="666" r="5"/><circle cx="1047" cy="670" r="4"/><circle cx="1171" cy="644" r="5"/><circle cx="1211" cy="674" r="6"/><circle cx="1349" cy="672" r="4"/><circle cx="1387" cy="665" r="4"/><circle cx="1465" cy="711" r="5"/><circle cx="1597" cy="711" r="4"/><circle cx="1665" cy="686" r="6"/><circle cx="1685" cy="657" r="5"/><circle cx="1807" cy="714" r="6"/><circle cx="1873" cy="692" r="5"/><circle cx="1990" cy="681" r="4"/><circle cx="2020" cy="661" r="6"/><circle cx="2115" cy="681" r="6"/><circle cx="2239" cy="668" r="5"/><circle cx="2280" cy="692" r="6"/><circle cx="2357" cy="641" r="5"/><circle cx="2422" cy="678" r="4"/><circle cx="2524" cy="670" r="6"/><circle cx="31" cy="800" r="5"/><circle cx="140" cy="760" r="6"/><circle cx="214" cy="731" r="4"/><circle cx="246" cy="757" r="5"/><circle cx="379" cy="747" r="5"/><circle cx="428" cy="745" r="6"/><circle cx="527" cy="782" r="6"/><circle cx="567" cy="780" r="6"/><circle cx="665" cy="730" r="6"/><circle cx="762" cy="722" r="4"/><circle cx="872" cy="789" r="6"/><circle cx="931" cy="762" r="5"/><circle cx="983" cy="776" r="5"/><circle cx="1044" cy="753" r="5"/><circle cx="1136" cy="799" r="6"/><circle cx="1235" cy="773" r="5"/><circle cx="1356" cy="788" r="6"/><circle cx="1432" cy="795" r="5"/><circle cx="1497" cy="725" r="4"/><circle cx="1528" cy="721" r="5"/><circle cx="1644" cy="792" r="5"/><circle cx="1753" cy="760" r="5"/><circle cx="1769" cy="765" r="5"/><circle cx="1848" cy="740" r="5"/><circle cx="1982" cy="759" r="5"/><circle cx="2013" cy="731" r="4"/><circle cx="2107" cy="756" r="4"/><circle cx="2172" cy="797" r="5"/><circle cx="2262" cy="725" r="4"/><circle cx="2366" cy="797" r="6"/><circle cx="2430" cy="740" r="4"/><circle cx="2537" cy="729" r="4"/><circle cx="2" cy="859" r="4"/><circle cx="2562" cy="859" r="4"/><circle cx="122" cy="824" r="6"/><circle cx="180" cy="853" r="6"/><circle cx="294" cy="827" r="5"/><circle cx="366" cy="862" r="4"/><circle cx="479" cy="867" r="5"/><circle cx="487" cy="861" r="6"/><circle cx="636" cy="853" r="4"/><circle cx="644" cy="804" r="6"/><circle cx="758" cy="855" r="5"/><circle cx="868" cy="832" r="5"/><circle cx="953" cy="861" r="5"/><circle cx="1023" cy="841" r="4"/><circle cx="1046" cy="859" r="6"/><circle cx="1188" cy="817" r="5"/><circle cx="1212" cy="855" r="4"/><circle cx="1355" cy="825" r="6"/><circle cx="1363" cy="878" r="6"/><circle cx="1451" cy="807" r="5"/><circle cx="1562" cy="857" r="6"/><circle cx="1627" cy="879" r="6"/><circle cx="1757" cy="873" r="5"/><circle cx="1814" cy="864" r="4"/><circle cx="1862" cy="804" r="6"/><circle cx="1970" cy="831" r="5"/><circle cx="2014" cy="856" r="5"/><circle cx="2157" cy="841" r="5"/><circle cx="2191" cy="831" r="5"/><circle cx="2250" cy="801" r="5"/><circle cx="2350" cy="853" r="5"/><circle cx="2435" cy="819" r="4"/><circle cx="2541" cy="832" r="4"/><circle cx="68" cy="895" r="6"/><circle cx="89" cy="895" r="4"/><circle cx="218" cy="916" r="4"/><circle cx="300" cy="917" r="5"/><circle cx="391" cy="929" r="6"/><circle cx="472" cy="927" r="5"/><circle cx="546" cy="955" r="6"/><circle cx="626" cy="886" r="5"/><circle cx="641" cy="929" r="5"/><circle cx="738" cy="928" r="5"/><circle cx="871" cy="930" r="6"/><circle cx="903" cy="908" r="5"/><circle cx="990" cy="931" r="4"/><circle cx="1115" cy="943" r="5"/><circle cx="1192" cy="914" r="5"/><circle cx="1233" cy="884" r="5"/><circle cx="1304" cy="889" r="5"/><circle cx="1391" cy="946" r="4"/><circle cx="1465" cy="918" r="5"/><circle cx="1543" cy="925" r="6"/><circle cx="1629" cy="958" r="5"/><circle cx="1693" cy="899" r="4"/><circle cx="1800" cy="902" r="5"/><circle cx="1918" cy="918" r="4"/><circle cx="1993" cy="908" r="5"/><circle cx="2062" cy="925" r="5"/><circle cx="2144" cy="903" r="5"/><circle cx="2228" cy="930" r="4"/><circle cx="2244" cy="928" r="5"/><circle cx="2332" cy="915" r="4"/><circle cx="2446" cy="950" r="4"/><circle cx="2536" cy="931" r="6"/><circle cx="6" cy="969" r="5"/><circle cx="107" cy="1037" r="5"/><circle cx="205" cy="1037" r="4"/><circle cx="291" cy="1037" r="6"/><circle cx="348" cy="1007" r="5"/><circle cx="403" cy="986" r="6"/><circle cx="521" cy="1019" r="4"/><circle cx="596" cy="973" r="4"/><circle cx="645" cy="996" r="5"/><circle cx="727" cy="994" r="5"/><circle cx="867" cy="1021" r="4"/><circle cx="881" cy="1026" r="5"/><circle cx="1026" cy="974" r="6"/><circle cx="1115" cy="978" r="4"/><circle cx="1179" cy="1005" r="6"/><circle cx="1230" cy="972" r="6"/><circle cx="1333" cy="1027" r="5"/><circle cx="1388" cy="1030" r="6"/><circle cx="1454" cy="980" r="5"/><circle cx="1594" cy="963" r="5"/><circle cx="1638" cy="980" r="5"/><circle cx="1684" cy="976" r="5"/><circle cx="1793" cy="995" r="5"/><circle cx="1867" cy="965" r="5"/><circle cx="1922" cy="1011" r="6"/><circle cx="2013" cy="1003" r="5"/><circle cx="2116" cy="989" r="5"/><circle cx="2227" cy="1012" r="6"/><circle cx="2276" cy="1020" r="6"/><circle cx="2326" cy="1031" r="6"/><circle cx="2457" cy="1036" r="4"/><circle cx="2545" cy="989" r="5"/><circle cx="28" cy="1043" r="6"/><circle cx="105" cy="1113" r="6"/><circle cx="184" cy="1117" r="6"/><circle cx="255" cy="1062" r="5"/><circle cx="349" cy="1109" r="6"/><circle cx="479" cy="1116" r="5"/><circle cx="548" cy="1092" r="5"/><circle cx="579" cy="1082" r="5"/><circle cx="652" cy="1041" r="5"/><circle cx="781" cy="1057" r="4"/><circle cx="818" cy="1067" r="6"/><circle cx="890" cy="1074" r="5"/><circle cx="992" cy="1040" r="6"/><circle cx="1104" cy="1090" r="6"/><circle cx="1181" cy="1069" r="4"/><circle cx="1252" cy="1111" r="6"/><circle cx="1311" cy="1113" r="5"/><circle cx="1408" cy="1081" r="5"/><circle cx="1473" cy="1091" r="5"/><circle cx="1581" cy="1042" r="5"/><circle cx="1609" cy="1061" r="4"/><circle cx="1707" cy="1075" r="5"/><circle cx="1802" cy="1089" r="5"/><circle cx="1850" cy="1112" r="4"/><circle cx="1931" cy="1102" r="5"/><circle cx="2015" cy="1040" r="4"/><circle cx="2116" cy="1073" r="6"/><circle cx="2222" cy="1082" r="6"/><circle cx="2247" cy="1069" r="5"/><circle cx="2369" cy="1060" r="4"/><circle cx="2477" cy="1077" r="5"/><circle cx="2523" cy="1102" r="5"/><circle cx="34" cy="1155" r="5"/><circle cx="131" cy="1178" r="6"/><circle cx="210" cy="1193" r="6"/><circle cx="276" cy="1122" r="5"/><circle cx="367" cy="1152" r="6"/><circle cx="416" cy="1164" r="5"/><circle cx="528" cy="1182" r="4"/><circle cx="595" cy="1160" r="6"/><circle cx="642" cy="1125" r="5"/><circle cx="783" cy="1132" r="5"/><circle cx="834" cy="1175" r="5"/><circle cx="921" cy="1166" r="4"/><circle cx="990" cy="1145" r="6"/><circle cx="1091" cy="1200" r="6"/><circle cx="1145" cy="1200" r="4"/><circle cx="1246" cy="1185" r="4"/><circle cx="1306" cy="1172" r="5"/><circle cx="1405" cy="1141" r="5"/><circle cx="1458" cy="1147" r="4"/><circle cx="1600" cy="1126" r="6"/><circle cx="1632" cy="1147" r="5"/><circle cx="1694" cy="1138" r="5"/><circle cx="1817" cy="1145" r="6"/><circle cx="1861" cy="1132" r="5"/><circle cx="1986" cy="1191" r="4"/><circle cx="2021" cy="1172" r="4"/><circle cx="2108" cy="1154" r="4"/><circle cx="2205" cy="1162" r="6"/><circle cx="2294" cy="1141" r="5"/><circle cx="2357" cy="1135" r="4"/><circle cx="2438" cy="1139" r="5"/><circle cx="2543" cy="1191" r="5"/><circle cx="49" cy="1202" r="4"/><circle cx="81" cy="1210" r="6"/><circle cx="199" cy="1242" r="5"/><circle cx="267" cy="1238" r="5"/><circle cx="351" cy="1275" r="5"/><circle cx="444" cy="1248" r="4"/><circle cx="486" cy="1218" r="4"/><circle cx="587" cy="1251" r="4"/><circle cx="701" cy="1232" r="4"/><circle cx="790" cy="1215" r="6"/><circle cx="826" cy="1209" r="6"/><circle cx="920" cy="1218" r="4"/><circle cx="1028" cy="1203" r="6"/><circle cx="1102" cy="1218" r="6"/><circle cx="1171" cy="1217" r="5"/><circle cx="1264" cy="1263" r="5"/><circle cx="1294" cy="1257" r="6"/><circle cx="1432" cy="1253" r="4"/><circle cx="1472" cy="1245" r="5"/><circle cx="1573" cy="1265" r="4"/><circle cx="1648" cy="1221" r="6"/><circle cx="1710" cy="1238" r="4"/><circle cx="1833" cy="1265" r="6"/><circle cx="1920" cy="1218" r="4"/><circle cx="1988" cy="1279" r="5"/><circle cx="2006" cy="1205" r="4"/><circle cx="2139" cy="1214" r="4"/><circle cx="2183" cy="1213" r="5"/><circle cx="2271" cy="1240" r="5"/><circle cx="2371" cy="1254" r="5"/><circle cx="2404" cy="1246" r="4"/><circle cx="2496" cy="1251" r="6"/><circle cx="1" cy="1358" r="5"/><circle cx="2561" cy="1358" r="5"/><circle cx="102" cy="1290" r="4"/><circle cx="237" cy="1311" r="5"/><circle cx="304" cy="1329" r="5"/><circle cx="344" cy="1291" r="5"/><circle cx="441" cy="1323" r="5"/><circle cx="515" cy="1324" r="4"/><circle cx="613" cy="1345" r="5"/><circle cx="648" cy="1340" r="4"/><circle cx="740" cy="1325" r="5"/><circle cx="844" cy="1353" r="5"/><circle cx="945" cy="1312" r="6"/><circle cx="1028" cy="1294" r="5"/><circle cx="1091" cy="1302" r="5"/><circle cx="1137" cy="1328" r="6"/><circle cx="1259" cy="1354" r="6"/><circle cx="1319" cy="1282" r="4"/><circle cx="1374" cy="1308" r="5"/><circle cx="1497" cy="1305" r="5"/><circle cx="1587" cy="1345" r="4"/><circle cx="1604" cy="1319" r="4"/><circle cx="1720" cy="1314" r="5"/><circle cx="1763" cy="1322" r="4"/><circle cx="1890" cy="1323" r="4"/><circle cx="1949" cy="1297" r="4"/><circle cx="2040" cy="1320" r="5"/><circle cx="2095" cy="1311" r="6"/><circle cx="2193" cy="1285" r="6"/><circle cx="2319" cy="1346" r="6"/><circle cx="2386" cy="1318" r="5"/><circle cx="2449" cy="1341" r="5"/><circle cx="2510" cy="1282" r="6"/><circle cx="12" cy="1437" r="6"/><circle cx="12" cy="-3" r="6"/><circle cx="138" cy="1430" r="6"/><circle cx="197" cy="1376" r="5"/><circle cx="271" cy="1373" r="6"/><circle cx="378" cy="1369" r="4"/><circle cx="429" cy="1362" r="6"/><circle cx="508" cy="1381" r="4"/><circle cx="571" cy="1399" r="6"/><circle cx="660" cy="1383" r="6"/><circle cx="751" cy="1427" r="5"/><circle cx="844" cy="1439" r="6"/><circle cx="844" cy="-1" r="6"/><circle cx="903" cy="1365" r="6"/><circle cx="984" cy="1420" r="5"/><circle cx="1067" cy="1378" r="5"/><circle cx="1171" cy="1377" r="4"/><circle cx="1211" cy="1363" r="5"/><circle cx="1312" cy="1432" r="4"/><circle cx="1392" cy="1407" r="5"/><circle cx="1449" cy="1412" r="5"/><circle cx="1568" cy="1379" r="5"/><circle cx="1657" cy="1363" r="6"/><circle cx="1712" cy="1381" r="4"/><circle cx="1835" cy="1418" r="6"/><circle cx="1858" cy="1364" r="6"/><circle cx="1946" cy="1435" r="4"/><circle cx="2038" cy="1431" r="5"/><circle cx="2098" cy="1382" r="5"/><circle cx="2177" cy="1432" r="6"/><circle cx="2250" cy="1369" r="6"/><circle cx="2349" cy="1386" r="5"/><circle cx="2420" cy="1368" r="5"/><circle cx="2506" cy="1426" r="6"/><path stroke="#fff" d="M70 62L118 31M70 62L22 88M70 62L131 95M70 62L12 -3M70 62L138 -10M70 1502L12 1437M70 1502L138 1430M118 31L166 8M118 31L22 88M118 31L131 95M118 31L138 -10M118 1471L138 1430M166 8L258 5M166 8L131 95M166 8L138 -10M166 8L197 -64M166 1448L138 1430M166 1448L197 1376M258 5L339 85M258 5L138 -10M258 5L197 -64M258 5L271 -67M258 1445L138 1430M258 1445L197 1376M258 1445L271 1373M389 61L448 29M389 61L298 124M389 61L339 85M389 61L468 109M389 61L444 165M448 29L521 35M448 29L468 109M448 29L429 -78M448 29L508 -59M448 1469L429 1362M448 1469L508 1381M521 35L584 30M521 35L468 109M521 35L557 111M521 35L571 -41M521 1475L571 1399M584 30L662 48M584 30L557 111M584 30L571 -41M584 1470L571 1399M662 48L673 130M662 48L749 114M662 48L660 -57M662 48L751 -13M662 1488L660 1383M662 1488L751 1427M798 48L863 9M798 48L749 114M798 48L828 112M798 48L751 -13M798 48L844 -1M798 1488L751 1427M798 1488L844 1439M863 9L902 52M863 9L844 -87M863 9L844 -1M863 9L903 -75M863 1449L844 1353M863 1449L844 1439M863 1449L903 1365M902 52L982 1M902 52L828 112M902 52L906 115M902 52L844 -1M902 1492L844 1439M982 1L1069 44M982 1L984 -20M982 1L1067 -62M982 1441L984 1420M982 1441L1067 1378M1069 44L1124 65M1069 44L1074 109M1069 44L1138 105M1069 44L984 -20M1069 1484L984 1420M1124 65L1239 43M1124 65L1074 109M1124 65L1138 105M1239 43L1303 75M1239 43L1138 105M1239 43L1312 -8M1239 1483L1312 1432M1303 75L1404 47M1303 75L1293 149M1303 75L1312 -8M1303 1515L1312 1432M1404 47L1421 133M1404 47L1392 -33M1404 47L1449 -28M1404 1487L1392 1407M1404 1487L1449 1412M1508 65L1561 50M1508 65L1474 130M1508 65L1449 -28M1508 1505L1449 1412M1561 50L1658 77M1561 50L1627 128M1658 77L1722 5M1658 77L1627 128M1658 77L1748 98M1658 77L1612 175M1722 5L1791 37M1722 5L1748 98M1722 5L1712 -59M1722 1445L1712 1381M1791 37L1847 4M1791 37L1748 98M1791 37L1761 133M1791 37L1835 -22M1791 1477L1835 1418M1847 4L1902 115M1847 4L1835 -22M1847 4L1858 -76M1847 4L1946 -5M1847 1444L1835 1418M1847 1444L1858 1364M1847 1444L1946 1435M1988 51L2041 59M1988 51L1902 115M1988 51L1965 140M1988 51L1946 -5M1988 51L2038 -9M1988 1491L1946 1435M1988 1491L2038 1431M2041 59L2141 20M2041 59L2066 154M2041 59L2080 162M2041 59L2038 -9M2041 1499L2038 1431M2141 20L2187 25M2141 20L2038 -9M2141 20L2098 -58M2141 20L2177 -8M2141 1460L2038 1431M2141 1460L2098 1382M2141 1460L2177 1432M2187 25L2250 14M2187 25L2177 -8M2187 1465L2177 1432M2250 14L2332 4M2250 14L2295 116M2250 14L2177 -8M2250 14L2250 -71M2250 1454L2177 1432M2250 1454L2250 1369M2332 4L2379 89M2332 4L2319 -94M2332 4L2349 -54M2332 1444L2319 1346M2332 1444L2349 1386M2436 9L2489 76M2436 9L2379 89M2436 9L2420 -72M2436 9L2506 -14M2436 1449L2420 1368M2436 1449L2506 1426M2489 76L2582 88M2489 76L2535 102M2489 76L2498 176M2489 76L2506 -14M-71 76L22 88M2489 1516L2506 1426M22 88L-25 102M22 88L12 -3M2582 88L2535 102M22 1528L12 1437M131 95L178 154M131 95L142 162M178 154L142 162M178 154L169 196M178 154L245 195M178 154L224 258M298 124L339 85M298 124L245 195M298 124L337 207M339 85L337 207M468 109L557 111M468 109L444 165M557 111L572 135M557 111L638 180M572 135L673 130M572 135L488 212M572 135L638 180M572 135L666 199M673 130L749 114M673 130L638 180M673 130L666 199M749 114L828 112M749 114L778 203M828 112L906 115M828 112L868 168M906 115L868 168M906 115L900 193M1023 158L1074 109M1023 158L1006 237M1023 158L1067 220M1023 158L1057 259M1074 109L1138 105M1074 109L1067 220M1138 105L1232 153M1232 153L1293 149M1232 153L1239 207M1232 153L1288 177M1232 153L1219 243M1293 149L1239 207M1293 149L1288 177M1293 149L1373 208M1421 133L1474 130M1421 133L1373 208M1421 133L1440 197M1474 130L1562 160M1474 130L1440 197M1474 130L1524 176M1562 160L1627 128M1562 160L1524 176M1562 160L1612 175M1562 160L1543 278M1627 128L1612 175M1748 98L1761 133M1761 133L1695 217M1761 133L1788 235M1902 115L1965 140M1902 115L1882 195M1902 115L1927 198M1965 140L2066 154M1965 140L1882 195M1965 140L1927 198M2066 154L2103 153M2066 154L2080 219M2066 154L2080 162M2103 153L2163 135M2103 153L2080 219M2103 153L2080 162M2103 153L2074 266M2163 135L2080 162M2163 135L2223 200M2295 116L2379 89M2295 116L2223 200M2295 116L2369 173M2379 89L2416 144M2379 89L2369 173M2416 144L2369 173M2416 144L2460 224M2416 144L2498 176M2535 102L2498 176M2535 102L2572 -3M-25 102L12 -3M-25 1542L12 1437M2535 1542L2572 1437M11 222L-62 176M11 222L24 255M11 222L-21 294M2571 222L2498 176M2571 222L2539 294M142 162L169 196M169 196L245 195M169 196L128 320M169 196L224 258M245 195L224 258M245 195L300 265M337 207L300 265M337 207L372 266M444 165L488 212M638 180L666 199M666 199L636 299M666 199L705 300M778 203L868 168M778 203L789 296M778 203L827 285M868 168L900 193M900 193L910 289M1006 237L1067 220M1006 237L910 289M1006 237L960 290M1006 237L1057 259M1067 220L1165 226M1067 220L1057 259M1165 226L1239 207M1165 226L1057 259M1165 226L1178 282M1165 226L1219 243M1239 207L1288 177M1239 207L1219 243M1288 177L1317 276M1373 208L1440 197M1373 208L1317 276M1373 208L1362 286M1440 197L1524 176M1440 197L1470 263M1524 176L1612 175M1524 176L1543 278M1612 175L1695 217M1695 217L1788 235M1695 217L1671 308M1695 217L1709 253M1788 235L1882 195M1788 235L1709 253M1788 235L1766 298M1882 195L1927 198M1882 195L1901 269M1927 198L1901 269M1927 198L2000 256M2080 219L2080 162M2080 219L2000 256M2080 219L2074 266M2223 200L2245 223M2223 200L2302 265M2245 223L2193 296M2245 223L2302 265M2369 173L2460 224M2369 173L2417 266M2460 224L2498 176M2460 224L2417 266M2460 224L2539 294M24 255L-21 294M2584 255L2539 294M128 320L224 258M128 320L71 388M128 320L142 353M128 320L188 380M224 258L300 265M300 265L372 266M300 265L404 300M372 266L404 300M372 266L379 361M404 300L509 318M404 300L379 361M404 300L430 380M509 318L430 380M509 318L522 392M636 299L705 300M636 299L600 371M636 299L663 329M705 300L789 296M705 300L663 329M705 300L737 335M789 296L827 285M789 296L737 335M789 296L807 391M827 285L910 289M827 285L807 391M910 289L960 290M910 289L928 350M960 290L1057 259M960 290L928 350M960 290L966 392M1178 282L1219 243M1178 282L1110 366M1178 282L1179 384M1178 282L1279 336M1219 243L1317 276M1317 276L1362 286M1317 276L1279 336M1362 286L1470 263M1362 286L1279 336M1362 286L1439 323M1470 263L1543 278M1470 263L1439 323M1470 263L1546 336M1543 278L1546 336M1671 308L1709 253M1671 308L1766 298M1671 308L1666 352M1671 308L1718 365M1709 253L1766 298M1766 298L1718 365M1901 269L2000 256M2000 256L2074 266M2074 266L2141 296M2141 296L2193 296M2141 296L2151 342M2193 296L2151 342M2193 296L2224 383M2193 296L2253 335M2302 265L2334 279M2302 265L2253 335M2302 265L2336 339M2334 279L2417 266M2334 279L2336 339M2334 279L2403 331M2417 266L2403 331M2539 294L2510 375M71 388L142 353M71 388L19 408M71 388L133 461M142 353L188 380M142 353L249 384M142 353L133 461M188 380L249 384M188 380L133 461M188 380L204 451M249 384L204 451M249 384L288 412M379 361L430 380M379 361L288 412M379 361L399 424M430 380L522 392M430 380L399 424M522 392L600 371M522 392L525 418M522 392L575 452M600 371L663 329M600 371L525 418M600 371L575 452M663 329L737 335M663 329L686 410M737 335L807 391M737 335L686 410M807 391L775 443M807 391L813 435M928 350L966 392M928 350L931 459M966 392L931 459M966 392L1014 432M966 392L1064 412M1110 366L1179 384M1110 366L1014 432M1110 366L1064 412M1110 366L1127 432M1179 384L1127 432M1279 336L1303 393M1303 393L1269 445M1303 393L1300 441M1303 393L1366 434M1303 393L1318 480M1439 323L1477 393M1439 323L1546 336M1439 323L1444 407M1477 393L1546 336M1477 393L1444 407M1477 393L1540 450M1477 393L1467 499M1546 336L1611 406M1666 352L1718 365M1666 352L1611 406M1666 352L1718 415M1718 365L1826 387M1718 365L1718 415M1826 387L1896 383M1826 387L1924 379M1826 387L1837 408M1826 387L1898 446M1896 383L1924 379M1896 383L1837 408M1896 383L1898 446M1896 383L1995 429M1924 379L1837 408M1924 379L1898 446M1924 379L1995 429M2030 374L1995 429M2030 374L2048 420M2030 374L2135 402M2151 342L2224 383M2151 342L2135 402M2224 383L2253 335M2224 383L2226 429M2224 383L2271 468M2253 335L2336 339M2253 335L2226 429M2336 339L2403 331M2336 339L2374 427M2403 331L2374 427M2403 331L2412 432M2510 375L2579 408M2510 375L2502 453M-50 375L19 408M133 461L204 451M133 461L86 506M204 451L288 412M204 451L286 504M288 412L399 424M288 412L286 504M399 424L454 477M454 477L525 418M454 477L457 534M454 477L468 591M525 418L575 452M525 418L550 497M575 452L550 497M575 452L585 518M686 410L775 443M686 410L674 501M775 443L813 435M775 443L674 501M775 443L844 510M813 435L844 510M931 459L1014 432M931 459L844 510M931 459L913 529M1014 432L1064 412M1014 432L1042 519M1064 412L1127 432M1064 412L1042 519M1127 432L1184 527M1269 445L1300 441M1269 445L1318 480M1269 445L1361 514M1300 441L1366 434M1300 441L1318 480M1300 441L1361 514M1366 434L1444 407M1366 434L1318 480M1366 434L1361 514M1444 407L1467 499M1540 450L1611 406M1540 450L1467 499M1540 450L1546 529M1540 450L1611 536M1611 406L1718 415M1718 415L1735 509M1837 408L1898 446M1837 408L1884 512M1898 446L1884 512M1995 429L2048 420M1995 429L1999 494M2048 420L2135 402M2048 420L1999 494M2135 402L2226 429M2135 402L2165 487M2226 429L2271 468M2226 429L2165 487M2271 468L2165 487M2271 468L2306 548M2271 468L2225 564M2374 427L2412 432M2412 432L2502 453M2412 432L2390 530M2412 432L2478 487M2502 453L2575 514M2502 453L2478 487M2502 453L2523 505M-58 453L15 514M15 514L86 506M15 514L-37 505M15 514L60 568M15 514L-3 609M2575 514L2523 505M2575 514L2557 609M86 506L60 568M86 506L99 579M204 560L286 504M204 560L99 579M204 560L210 637M204 560L242 647M286 504L361 551M361 551L301 636M361 551L395 578M457 534L395 578M457 534L468 591M457 534L505 585M550 497L585 518M550 497L505 585M550 497L596 581M585 518L674 501M585 518L596 581M585 518L669 563M674 501L737 557M674 501L669 563M737 557L669 563M737 557L764 585M737 557L761 669M844 510L913 529M844 510L866 584M913 529L994 551M913 529L866 584M913 529L981 582M994 551L1042 519M994 551L943 621M994 551L981 582M994 551L1058 618M1042 519L1058 618M1184 527L1227 551M1184 527L1182 562M1184 527L1249 590M1184 527L1171 644M1227 551L1182 562M1227 551L1249 590M1227 551L1171 644M1318 480L1361 514M1361 514L1460 564M1467 499L1546 529M1467 499L1460 564M1546 529L1611 536M1546 529L1460 564M1611 536L1579 637M1611 536L1650 610M1735 509L1792 553M1735 509L1769 592M1792 553L1884 512M1792 553L1751 613M1792 553L1769 592M1792 553L1877 598M1884 512L1999 494M1884 512L1877 598M1999 494L2026 541M1999 494L1998 576M2026 541L2118 511M2026 541L1998 576M2026 541L2009 631M2118 511L2165 487M2118 511L2157 612M2165 487L2225 564M2306 548L2390 530M2306 548L2225 564M2306 548L2244 573M2306 548L2396 607M2390 530L2478 487M2390 530L2396 607M2390 530L2458 589M2478 487L2523 505M2523 505L2458 589M2523 505L2557 609M60 568L99 579M60 568L-3 609M60 568L60 663M2620 568L2557 609M99 579L60 663M210 637L301 636M210 637L126 700M210 637L193 684M210 637L242 647M301 636L395 578M301 636L242 647M301 636L328 690M395 578L468 591M468 591L505 585M468 591L554 643M505 585L596 581M505 585L554 643M596 581L669 563M596 581L554 643M669 563L764 585M764 585L866 584M764 585L761 669M764 585L806 685M866 584L943 621M943 621L981 582M943 621L888 712M943 621L1012 666M981 582L1058 618M981 582L1012 666M1058 618L1012 666M1058 618L1047 670M1182 562L1249 590M1182 562L1171 644M1182 562L1211 674M1249 590L1171 644M1249 590L1211 674M1333 636L1405 639M1333 636L1211 674M1333 636L1349 672M1333 636L1387 665M1405 639L1460 564M1405 639L1349 672M1405 639L1387 665M1405 639L1465 711M1579 637L1650 610M1579 637L1597 711M1579 637L1528 721M1650 610L1751 613M1650 610L1665 686M1650 610L1685 657M1751 613L1769 592M1751 613L1665 686M1751 613L1685 657M1769 592L1877 598M1769 592L1685 657M1877 598L1998 576M1877 598L1873 692M1998 576L2009 631M1998 576L2020 661M2009 631L1990 681M2009 631L2020 661M2009 631L2013 731M2157 612L2225 564M2157 612L2244 573M2157 612L2115 681M2157 612L2239 668M2225 564L2244 573M2244 573L2239 668M2396 607L2458 589M2396 607L2357 641M2396 607L2422 678M2458 589L2524 670M2557 609L2620 663M2557 609L2524 670M-3 609L60 663M60 663L126 700M60 663L-36 670M2620 663L2524 670M126 700L193 684M126 700L140 760M126 700L214 731M193 684L242 647M193 684L140 760M193 684L214 731M242 647L214 731M328 690L415 708M328 690L246 757M328 690L379 747M328 690L428 745M415 708L379 747M415 708L428 745M554 643L562 680M554 643L658 678M562 680L658 678M562 680L527 782M562 680L567 780M658 678L665 730M761 669L806 685M761 669L665 730M761 669L762 722M806 685L888 712M806 685L762 722M888 712L872 789M888 712L931 762M1012 666L1047 670M1012 666L1044 753M1047 670L1044 753M1171 644L1211 674M1211 674L1235 773M1349 672L1387 665M1465 711L1432 795M1465 711L1497 725M1465 711L1528 721M1465 711L1451 807M1597 711L1665 686M1597 711L1685 657M1597 711L1528 721M1597 711L1644 792M1665 686L1685 657M1665 686L1644 792M1807 714L1873 692M1807 714L1753 760M1807 714L1769 765M1807 714L1848 740M1807 714L1862 804M1873 692L1848 740M1990 681L2020 661M1990 681L1982 759M1990 681L2013 731M2020 661L2115 681M2020 661L2013 731M2115 681L2239 668M2115 681L2013 731M2115 681L2107 756M2239 668L2280 692M2239 668L2262 725M2280 692L2357 641M2280 692L2262 725M2280 692L2366 797M2280 692L2250 801M2357 641L2422 678M2422 678L2524 670M2422 678L2430 740M2524 670L2537 729M31 800L-23 729M31 800L2 859M31 800L122 824M31 800L-19 832M31 800L68 895M2591 800L2537 729M2591 800L2541 832M140 760L214 731M140 760L122 824M140 760L180 853M214 731L246 757M246 757L180 853M246 757L294 827M379 747L428 745M379 747L294 827M379 747L366 862M428 745L527 782M527 782L567 780M527 782L479 867M527 782L487 861M567 780L665 730M567 780L487 861M567 780L644 804M665 730L762 722M665 730L644 804M872 789L931 762M872 789L868 832M931 762L983 776M931 762L868 832M983 776L1044 753M983 776L1023 841M1044 753L1023 841M1044 753L1046 859M1136 799L1235 773M1136 799L1046 859M1136 799L1188 817M1136 799L1212 855M1235 773L1188 817M1235 773L1212 855M1356 788L1432 795M1356 788L1355 825M1356 788L1363 878M1356 788L1451 807M1356 788L1304 889M1432 795L1355 825M1432 795L1451 807M1497 725L1528 721M1497 725L1451 807M1644 792L1753 760M1644 792L1562 857M1644 792L1627 879M1753 760L1769 765M1753 760L1848 740M1769 765L1848 740M1769 765L1757 873M1769 765L1862 804M1848 740L1862 804M1982 759L2013 731M1982 759L1970 831M1982 759L2014 856M2107 756L2172 797M2107 756L2157 841M2172 797L2157 841M2172 797L2191 831M2172 797L2250 801M2262 725L2250 801M2366 797L2430 740M2366 797L2350 853M2366 797L2435 819M2430 740L2537 729M2430 740L2435 819M2 859L-19 832M2 859L68 895M2 859L89 895M2 859L-24 931M2562 859L2541 832M2562 859L2536 931M122 824L180 853M122 824L68 895M122 824L89 895M180 853L89 895M180 853L218 916M294 827L366 862M294 827L218 916M294 827L300 917M366 862L300 917M366 862L391 929M479 867L487 861M479 867L472 927M487 861L472 927M636 853L644 804M636 853L626 886M636 853L641 929M636 853L738 928M644 804L758 855M644 804L626 886M758 855L738 928M868 832L953 861M868 832L871 930M868 832L903 908M953 861L1023 841M953 861L1046 859M953 861L903 908M953 861L990 931M1023 841L1046 859M1023 841L990 931M1046 859L990 931M1188 817L1212 855M1188 817L1233 884M1212 855L1192 914M1212 855L1233 884M1355 825L1363 878M1355 825L1451 807M1355 825L1304 889M1363 878L1304 889M1363 878L1391 946M1363 878L1465 918M1562 857L1627 879M1562 857L1465 918M1562 857L1543 925M1627 879L1629 958M1627 879L1693 899M1627 879L1594 963M1757 873L1814 864M1757 873L1693 899M1757 873L1800 902M1814 864L1862 804M1814 864L1800 902M1814 864L1867 965M1862 804L1970 831M1970 831L2014 856M1970 831L1918 918M1970 831L1993 908M2014 856L1918 918M2014 856L1993 908M2014 856L2062 925M2157 841L2191 831M2157 841L2250 801M2157 841L2144 903M2191 831L2250 801M2191 831L2144 903M2191 831L2244 928M2350 853L2435 819M2350 853L2332 915M2435 819L2541 832M68 895L89 895M68 895L-24 931M2628 895L2536 931M218 916L300 917M300 917L391 929M300 917L348 1007M391 929L472 927M391 929L348 1007M391 929L403 986M472 927L546 955M472 927L403 986M546 955L626 886M546 955L641 929M546 955L521 1019M546 955L596 973M626 886L641 929M626 886L596 973M641 929L596 973M641 929L645 996M738 928L871 930M738 928L645 996M738 928L727 994M871 930L903 908M871 930L867 1021M871 930L881 1026M903 908L990 931M990 931L1026 974M1115 943L1192 914M1115 943L1026 974M1115 943L1115 978M1115 943L1179 1005M1115 943L1230 972M1192 914L1233 884M1192 914L1179 1005M1192 914L1230 972M1233 884L1304 889M1233 884L1230 972M1304 889L1230 972M1391 946L1465 918M1391 946L1333 1027M1391 946L1388 1030M1391 946L1454 980M1465 918L1543 925M1465 918L1454 980M1543 925L1629 958M1543 925L1454 980M1543 925L1594 963M1629 958L1594 963M1629 958L1638 980M1629 958L1684 976M1693 899L1800 902M1693 899L1684 976M1800 902L1793 995M1800 902L1867 965M1918 918L1993 908M1918 918L1867 965M1918 918L1922 1011M1993 908L2062 925M1993 908L2013 1003M2062 925L2144 903M2062 925L2013 1003M2062 925L2116 989M2144 903L2228 930M2144 903L2116 989M2228 930L2244 928M2228 930L2332 915M2228 930L2227 1012M2244 928L2332 915M2244 928L2227 1012M2244 928L2276 1020M2446 950L2536 931M2446 950L2457 1036M2536 931L2566 969M2536 931L2545 989M-24 931L6 969M6 969L-15 989M6 969L28 1043M2566 969L2545 989M107 1037L205 1037M107 1037L28 1043M107 1037L105 1113M205 1037L291 1037M205 1037L184 1117M205 1037L255 1062M291 1037L348 1007M291 1037L255 1062M291 1037L349 1109M291 1037L276 1122M348 1007L403 986M348 1007L349 1109M521 1019L548 1092M521 1019L579 1082M596 973L645 996M596 973L652 1041M645 996L727 994M645 996L652 1041M727 994L652 1041M727 994L781 1057M867 1021L881 1026M867 1021L781 1057M867 1021L818 1067M867 1021L890 1074M881 1026L818 1067M881 1026L890 1074M881 1026L992 1040M1026 974L1115 978M1026 974L992 1040M1115 978L1179 1005M1115 978L1104 1090M1179 1005L1230 972M1179 1005L1181 1069M1333 1027L1388 1030M1333 1027L1252 1111M1333 1027L1311 1113M1333 1027L1408 1081M1388 1030L1454 980M1388 1030L1408 1081M1388 1030L1473 1091M1454 980L1473 1091M1594 963L1638 980M1594 963L1581 1042M1638 980L1684 976M1638 980L1581 1042M1638 980L1609 1061M1684 976L1793 995M1684 976L1707 1075M1793 995L1867 965M1793 995L1802 1089M1867 965L1922 1011M1922 1011L2013 1003M1922 1011L1931 1102M1922 1011L2015 1040M2013 1003L2116 989M2013 1003L2015 1040M2116 989L2116 1073M2227 1012L2276 1020M2227 1012L2222 1082M2227 1012L2247 1069M2276 1020L2326 1031M2276 1020L2222 1082M2276 1020L2247 1069M2326 1031L2247 1069M2326 1031L2369 1060M2326 1031L2357 1135M2457 1036L2545 989M2457 1036L2477 1077M2457 1036L2438 1139M2545 989L2588 1043M-15 989L28 1043M28 1043L-37 1102M2588 1043L2523 1102M105 1113L184 1117M105 1113L34 1155M105 1113L131 1178M105 1113L81 1210M184 1117L131 1178M184 1117L210 1193M184 1117L276 1122M255 1062L276 1122M349 1109L276 1122M349 1109L367 1152M349 1109L416 1164M479 1116L548 1092M479 1116L367 1152M479 1116L416 1164M479 1116L528 1182M548 1092L579 1082M548 1092L595 1160M548 1092L642 1125M579 1082L652 1041M579 1082L595 1160M579 1082L642 1125M652 1041L642 1125M781 1057L818 1067M781 1057L783 1132M818 1067L890 1074M818 1067L783 1132M890 1074L992 1040M890 1074L921 1166M992 1040L1104 1090M992 1040L990 1145M1104 1090L1181 1069M1181 1069L1252 1111M1252 1111L1311 1113M1252 1111L1246 1185M1252 1111L1306 1172M1311 1113L1306 1172M1311 1113L1405 1141M1408 1081L1473 1091M1408 1081L1405 1141M1408 1081L1458 1147M1473 1091L1405 1141M1473 1091L1458 1147M1581 1042L1609 1061M1581 1042L1600 1126M1609 1061L1707 1075M1609 1061L1600 1126M1609 1061L1632 1147M1707 1075L1802 1089M1707 1075L1632 1147M1707 1075L1694 1138M1802 1089L1850 1112M1802 1089L1817 1145M1802 1089L1861 1132M1850 1112L1931 1102M1850 1112L1817 1145M1850 1112L1861 1132M1931 1102L1817 1145M1931 1102L1861 1132M1931 1102L1986 1191M2015 1040L2116 1073M2116 1073L2108 1154M2222 1082L2247 1069M2222 1082L2205 1162M2222 1082L2294 1141M2247 1069L2294 1141M2369 1060L2477 1077M2369 1060L2357 1135M2369 1060L2438 1139M2477 1077L2523 1102M2477 1077L2438 1139M2523 1102L2594 1155M2523 1102L2438 1139M2523 1102L2543 1191M-37 1102L34 1155M34 1155L-17 1191M34 1155L49 1202M34 1155L81 1210M2594 1155L2543 1191M131 1178L210 1193M131 1178L49 1202M131 1178L81 1210M210 1193L199 1242M210 1193L267 1238M276 1122L367 1152M367 1152L416 1164M416 1164L444 1248M416 1164L486 1218M528 1182L595 1160M528 1182L486 1218M528 1182L587 1251M595 1160L642 1125M595 1160L587 1251M642 1125L701 1232M783 1132L834 1175M783 1132L790 1215M783 1132L826 1209M834 1175L921 1166M834 1175L790 1215M834 1175L826 1209M834 1175L920 1218M921 1166L990 1145M921 1166L826 1209M921 1166L920 1218M990 1145L920 1218M990 1145L1028 1203M1091 1200L1145 1200M1091 1200L1028 1203M1091 1200L1102 1218M1091 1200L1171 1217M1091 1200L1091 1302M1145 1200L1102 1218M1145 1200L1171 1217M1246 1185L1306 1172M1246 1185L1171 1217M1246 1185L1264 1263M1246 1185L1294 1257M1306 1172L1264 1263M1306 1172L1294 1257M1405 1141L1458 1147M1458 1147L1432 1253M1458 1147L1472 1245M1600 1126L1632 1147M1600 1126L1694 1138M1600 1126L1648 1221M1632 1147L1694 1138M1632 1147L1648 1221M1694 1138L1648 1221M1694 1138L1710 1238M1817 1145L1861 1132M1817 1145L1833 1265M1986 1191L2021 1172M1986 1191L1920 1218M1986 1191L1988 1279M1986 1191L2006 1205M2021 1172L2108 1154M2021 1172L2006 1205M2108 1154L2139 1214M2108 1154L2183 1213M2205 1162L2294 1141M2205 1162L2139 1214M2205 1162L2183 1213M2205 1162L2271 1240M2294 1141L2357 1135M2294 1141L2271 1240M2357 1135L2438 1139M2543 1191L2609 1202M2543 1191L2496 1251M2543 1191L2510 1282M-17 1191L49 1202M49 1202L81 1210M49 1202L102 1290M81 1210L102 1290M199 1242L267 1238M199 1242L102 1290M199 1242L237 1311M267 1238L351 1275M267 1238L237 1311M267 1238L344 1291M351 1275L444 1248M351 1275L304 1329M351 1275L344 1291M444 1248L486 1218M444 1248L441 1323M486 1218L587 1251M587 1251L613 1345M701 1232L790 1215M701 1232L740 1325M790 1215L826 1209M826 1209L920 1218M920 1218L945 1312M1028 1203L1102 1218M1028 1203L1028 1294M1102 1218L1171 1217M1102 1218L1091 1302M1264 1263L1294 1257M1264 1263L1259 1354M1264 1263L1319 1282M1294 1257L1319 1282M1294 1257L1374 1308M1432 1253L1472 1245M1432 1253L1374 1308M1432 1253L1497 1305M1472 1245L1573 1265M1472 1245L1374 1308M1472 1245L1497 1305M1573 1265L1648 1221M1573 1265L1497 1305M1573 1265L1587 1345M1573 1265L1604 1319M1648 1221L1710 1238M1710 1238L1720 1314M1710 1238L1763 1322M1833 1265L1920 1218M1833 1265L1763 1322M1833 1265L1890 1323M1833 1265L1858 1364M1920 1218L1988 1279M1920 1218L2006 1205M1920 1218L1949 1297M1988 1279L2006 1205M1988 1279L1949 1297M1988 1279L2040 1320M2139 1214L2183 1213M2139 1214L2095 1311M2139 1214L2193 1285M2183 1213L2271 1240M2183 1213L2193 1285M2271 1240L2371 1254M2271 1240L2193 1285M2371 1254L2404 1246M2371 1254L2386 1318M2404 1246L2496 1251M2404 1246L2510 1282M2496 1251L2449 1341M2496 1251L2510 1282M1 1358L-50 1282M1 1358L12 1437M1 1358L-54 1426M2561 1358L2510 1282M2561 1358L2506 1426M237 1311L304 1329M237 1311L197 1376M237 1311L271 1373M304 1329L344 1291M304 1329L271 1373M304 1329L378 1369M344 1291L271 1373M344 1291L378 1369M441 1323L515 1324M441 1323L378 1369M441 1323L429 1362M441 1323L508 1381M515 1324L613 1345M515 1324L429 1362M515 1324L508 1381M613 1345L648 1340M613 1345L571 1399M613 1345L660 1383M648 1340L740 1325M648 1340L660 1383M740 1325L844 1353M740 1325L660 1383M740 1325L751 1427M844 1353L945 1312M844 1353L844 1439M844 1353L903 1365M945 1312L1028 1294M945 1312L903 1365M945 1312L984 1420M1028 1294L1091 1302M1028 1294L1137 1328M1028 1294L1067 1378M1091 1302L1137 1328M1091 1302L1067 1378M1137 1328L1067 1378M1137 1328L1171 1377M1137 1328L1211 1363M1259 1354L1319 1282M1259 1354L1171 1377M1259 1354L1211 1363M1259 1354L1312 1432M1319 1282L1374 1308M1374 1308L1392 1407M1497 1305L1587 1345M1497 1305L1568 1379M1587 1345L1604 1319M1587 1345L1568 1379M1587 1345L1657 1363M1604 1319L1720 1314M1604 1319L1568 1379M1604 1319L1657 1363M1720 1314L1763 1322M1720 1314L1657 1363M1720 1314L1712 1381M1763 1322L1712 1381M1763 1322L1858 1364M1890 1323L1949 1297M1890 1323L1835 1418M1890 1323L1858 1364M1949 1297L2040 1320M2040 1320L2095 1311M2040 1320L2098 1382M2095 1311L2193 1285M2095 1311L2098 1382M2193 1285L2250 1369M2319 1346L2386 1318M2319 1346L2250 1369M2319 1346L2349 1386M2386 1318L2449 1341M2386 1318L2349 1386M2386 1318L2420 1368M2449 1341L2510 1282M2449 1341L2420 1368M2449 1341L2506 1426M12 1437L-54 1426M2572 1437L2506 1426M138 1430L197 1376M197 1376L271 1373M378 1369L429 1362M429 1362L508 1381M508 1381L571 1399M571 1399L660 1383M844 1439L903 1365M903 1365L984 1420M984 1420L1067 1378M1171 1377L1211 1363M1312 1432L1392 1407M1392 1407L1449 1412M1568 1379L1657 1363M1657 1363L1712 1381M1835 1418L1858 1364M1835 1418L1946 1435M1946 1435L2038 1431M2038 1431L2098 1382M2098 1382L2177 1432M2177 1432L2250 1369M2250 1369L2349 1386M2349 1386L2420 1368"/></svg>