<svg xmlns="http://www.w3.org/2000/svg" width="2560" height="1440" fill="#fff"><circle cx="47" cy="72" r="5"/><circle cx="137" cy="80" r="6"/><circle cx="193" cy="6" r="5"/><circle cx="311" cy="75" r="5"/><circle cx="383" cy="38" r="4"/><circle cx="414" cy="42" r="6"/><circle cx="523" cy="77" r="4"/><circle cx="621" cy="8" r="5"/><circle cx="708" cy="76" r="5"/><circle cx="734" cy="12" r="6"/><circle cx="822" cy="32" r="6"/><circle cx="896" cy="26" r="6"/><circle cx="997" cy="32" r="5"/><circle cx="1091" cy="41" r="5"/><circle cx="1190" cy="74" r="5"/><circle cx="1263" cy="35" r="5"/><circle cx="1335" cy="8" r="5"/><circle cx="1435" cy="16" r="5"/><circle cx="1484" cy="45" r="5"/><circle cx="1541" cy="64" r="4"/><circle cx="1638" cy="72" r="6"/><circle cx="1682" cy="13" r="5"/><circle cx="1767" cy="22" r="6"/><circle cx="1858" cy="35" r="6"/><circle cx="1937" cy="50" r="6"/><circle cx="2036" cy="73" r="5"/><circle cx="2103" cy="24" r="4"/><circle cx="2240" cy="38" r="5"/><circle cx="2282" cy="39" r="5"/><circle cx="2340" cy="68" r="5"/><circle cx="2407" cy="39" r="4"/><circle cx="2495" cy="15" r="4"/><circle cx="65" cy="109" r="5"/><circle cx="123" cy="112" r="5"/><circle cx="220" cy="154" r="6"/><circle cx="286" cy="84" r="5"/><circle cx="382" cy="144" r="6"/><circle cx="407" cy="107" r="5"/><circle cx="483" cy="148" r="5"/><circle cx="585" cy="144" r="5"/><circle cx="677" cy="130" r="5"/><circle cx="756" cy="85" r="5"/><circle cx="815" cy="107" r="4"/><circle cx="946" cy="159" r="5"/><circle cx="1018" cy="104" r="5"/><circle cx="1041" cy="137" r="4"/><circle cx="1131" cy="107" r="6"/><circle cx="1256" cy="102" r="5"/><circle cx="1300" cy="118" r="5"/><circle cx="1367" cy="137" r="5"/><circle cx="1493" cy="108" r="4"/><circle cx="1582" cy="81" r="4"/><circle cx="1661" cy="147" r="4"/><circle cx="1754" cy="132" r="4"/><circle cx="1795" cy="144" r="5"/><circle cx="1917" cy="108" r="4"/><circle cx="1959" cy="130" r="5"/><circle cx="2047" cy="136" r="5"/><circle cx="2133" cy="99" r="6"/><circle cx="2237" cy="89" r="5"/><circle cx="2307" cy="114" r="5"/><circle cx="2380" cy="90" r="5"/><circle cx="2422" cy="143" r="5"/><circle cx="2527" cy="135" r="5"/><circle cx="42" cy="175" r="5"/><circle cx="106" cy="206" r="5"/><circle cx="232" cy="172" r="5"/><circle cx="260" cy="174" r="5"/><circle cx="380" cy="183" r="6"/><circle cx="447" cy="229" r="6"/><circle cx="529" cy="189" r="5"/><circle cx="628" cy="180" r="5"/><circle cx="668" cy="239" r="5"/><circle cx="780" cy="203" r="4"/><circle cx="859" cy="222" r="6"/><circle cx="932" cy="204" r="5"/><circle cx="968" cy="161" r="6"/><circle cx="1088" cy="237" r="5"/><circle cx="1165" cy="218" r="5"/><circle cx="1222" cy="203" r="4"/><circle cx="1331" cy="196" r="6"/><circle cx="1369" cy="203" r="5"/><circle cx="1479" cy="214" r="5"/><circle cx="1531" cy="210" r="6"/><circle cx="1637" cy="201" r="5"/><circle cx="1738" cy="213" r="6"/><circle cx="1779" cy="202" r="5"/><circle cx="1892" cy="235" r="5"/><circle cx="1986" cy="182" r="5"/><circle cx="2008" cy="187" r="4"/><circle cx="2133" cy="225" r="5"/><circle cx="2179" cy="218" r="6"/><circle cx="2255" cy="204" r="5"/><circle cx="2363" cy="175" r="4"/><circle cx="2432" cy="195" r="5"/><circle cx="2501" cy="217" r="4"/><circle cx="7" cy="246" r="5"/><circle cx="105" cy="274" r="5"/><circle cx="189" cy="318" r="5"/><circle cx="313" cy="298" r="5"/><circle cx="374" cy="265" r="6"/><circle cx="419" cy="261" r="4"/><circle cx="484" cy="317" r="6"/><circle cx="587" cy="261" r="4"/><circle cx="679" cy="259" r="5"/><circle cx="775" cy="281" r="5"/><circle cx="859" cy="301" r="4"/><circle cx="916" cy="299" r="5"/><circle cx="994" cy="300" r="4"/><circle cx="1041" cy="271" r="6"/><circle cx="1121" cy="298" r="4"/><circle cx="1222" cy="248" r="6"/><circle cx="1316" cy="253" r="5"/><circle cx="1372" cy="302" r="4"/><circle cx="1479" cy="303" r="6"/><circle cx="1595" cy="306" r="5"/><circle cx="1678" cy="265" r="5"/><circle cx="1722" cy="281" r="6"/><circle cx="1802" cy="312" r="5"/><circle cx="1850" cy="248" r="5"/><circle cx="1950" cy="276" r="5"/><circle cx="2067" cy="320" r="6"/><circle cx="2088" cy="300" r="4"/><circle cx="2163" cy="307" r="5"/><circle cx="2275" cy="261" r="5"/><circle cx="2363" cy="254" r="5"/><circle cx="2404" cy="313" r="6"/><circle cx="2484" cy="257" r="6"/><circle cx="70" cy="323" r="4"/><circle cx="153" cy="341" r="5"/><circle cx="229" cy="397" r="6"/><circle cx="256" cy="354" r="5"/><circle cx="340" cy="348" r="5"/><circle cx="430" cy="377" r="5"/><circle cx="524" cy="377" r="5"/><circle cx="595" cy="394" r="6"/><circle cx="701" cy="348" r="5"/><circle cx="750" cy="376" r="5"/><circle cx="857" cy="375" r="5"/><circle cx="950" cy="331" r="5"/><circle cx="1039" cy="395" r="5"/><circle cx="1118" cy="384" r="5"/><circle cx="1133" cy="322" r="6"/><circle cx="1210" cy="348" r="5"/><circle cx="1306" cy="396" r="6"/><circle cx="1405" cy="340" r="5"/><circle cx="1475" cy="338" r="5"/><circle cx="1523" cy="336" r="5"/><circle cx="1656" cy="388" r="6"/><circle cx="1684" cy="375" r="6"/><circle cx="1840" cy="325" r="5"/><circle cx="1866" cy="323" r="5"/><circle cx="1955" cy="358" r="5"/><circle cx="2065" cy="375" r="4"/><circle cx="2086" cy="327" r="6"/><circle cx="2177" cy="337" r="4"/><circle cx="2253" cy="343" r="5"/><circle cx="2359" cy="332" r="5"/><circle cx="2409" cy="332" r="5"/><circle cx="2508" cy="360" r="5"/><circle cx="3" cy="457" r="6"/><circle cx="2563" cy="457" r="6"/><circle cx="102" cy="427" r="5"/><circle cx="221" cy="472" r="5"/><circle cx="242" cy="433" r="4"/><circle cx="344" cy="455" r="4"/><circle cx="470" cy="473" r="4"/><circle cx="498" cy="414" r="4"/><circle cx="588" cy="412" r="6"/><circle cx="671" cy="438" r="6"/><circle cx="754" cy="439" r="5"/><circle cx="846" cy="462" r="5"/><circle cx="914" cy="413" r="6"/><circle cx="1018" cy="405" r="6"/><circle cx="1062" cy="406" r="5"/><circle cx="1190" cy="421" r="4"/><circle cx="1236" cy="455" r="5"/><circle cx="1309" cy="422" r="4"/><circle cx="1397" cy="414" r="6"/><circle cx="1511" cy="404" r="5"/><circle cx="1574" cy="421" r="6"/><circle cx="1618" cy="452" r="5"/><circle cx="1712" cy="429" r="4"/><circle cx="1823" cy="471" r="5"/><circle cx="1889" cy="413" r="6"/><circle cx="1991" cy="437" r="4"/><circle cx="2002" cy="419" r="5"/><circle cx="2135" cy="434" r="5"/><circle cx="2161" cy="404" r="5"/><circle cx="2258" cy="468" r="5"/><circle cx="2372" cy="475" r="4"/><circle cx="2441" cy="405" r="5"/><circle cx="2535" cy="431" r="5"/><circle cx="70" cy="515" r="5"/><circle cx="105" cy="558" r="5"/><circle cx="208" cy="525" r="5"/><circle cx="277" cy="533" r="4"/><circle cx="374" cy="552" r="5"/><circle cx="404" cy="505" r="5"/><circle cx="546" cy="519" r="6"/><circle cx="622" cy="500" r="4"/><circle cx="703" cy="513" r="4"/><circle cx="737" cy="516" r="5"/><circle cx="878" cy="533" r="6"/><circle cx="901" cy="545" r="6"/><circle cx="987" cy="541" r="5"/><circle cx="1057" cy="525" r="5"/><circle cx="1186" cy="512" r="6"/><circle cx="1277" cy="521" r="4"/><circle cx="1353" cy="552" r="5"/><circle cx="1422" cy="502" r="5"/><circle cx="1480" cy="529" r="5"/><circle cx="1532" cy="481" r="6"/><circle cx="1672" cy="514" r="5"/><circle cx="1681" cy="522" r="5"/><circle cx="1778" cy="520" r="5"/><circle cx="1880" cy="555" r="5"/><circle cx="1926" cy="534" r="4"/><circle cx="2039" cy="498" r="4"/><circle cx="2150" cy="518" r="6"/><circle cx="2208" cy="531" r="4"/><circle cx="2279" cy="549" r="6"/><circle cx="2355" cy="530" r="6"/><circle cx="2419" cy="523" r="5"/><circle cx="2492" cy="545" r="5"/><circle cx="10" cy="565" r="6"/><circle cx="148" cy="640" r="6"/><circle cx="239" cy="571" r="6"/><circle cx="310" cy="581" r="5"/><circle cx="353" cy="584" r="5"/><circle cx="417" cy="613" r="5"/><circle cx="526" cy="608" r="6"/><circle cx="573" cy="576" r="5"/><circle cx="692" cy="596" r="5"/><circle cx="763" cy="619" r="6"/><circle cx="864" cy="620" r="5"/><circle cx="902" cy="591" r="6"/><circle cx="1014" cy="560" r="4"/><circle cx="1063" cy="629" r="4"/><circle cx="1183" cy="599" r="5"/><circle cx="1260" cy="569" r="5"/><circle cx="1284" cy="627" r="5"/><circle cx="1396" cy="597" r="4"/><circle cx="1451" cy="585" r="5"/><circle cx="1581" cy="576" r="4"/><circle cx="1634" cy="579" r="4"/><circle cx="1752" cy="609" r="5"/><circle cx="1822" cy="593" r="5"/><circle cx="1917" cy="602" r="5"/><circle cx="1930" cy="562" r="6"/><circle cx="2046" cy="599" r="6"/><circle cx="2123" cy="583" r="5"/><circle cx="2233" cy="596" r="5"/><circle cx="2302" cy="596" r="5"/><circle cx="2337" cy="583" r="4"/><circle cx="2431" cy="637" r="5"/><circle cx="2507" cy="630" r="5"/><circle cx="74" cy="673" r="4"/><circle cx="119" cy="673" r="5"/><circle cx="190" cy="717" r="6"/><circle cx="262" cy="647" r="6"/><circle cx="342" cy="687" r="5"/><circle cx="450" cy="670" r="5"/><circle cx="512" cy="703" r="4"/><circle cx="572" cy="674" r="6"/><circle cx="657" cy="675" r="6"/><circle cx="773" cy="693" r="5"/><circle cx="877" cy="687" r="5"/><circle cx="933" cy="676" r="5"/><circle cx="999" cy="701" r="6"/><circle cx="1115" cy="649" r="5"/><circle cx="1157" cy="643" r="5"/><circle cx="1260" cy="683" r="5"/><circle cx="1289" cy="687" r="6"/><circle cx="1365" cy="704" r="6"/><circle cx="1462" cy="640" r="5"/><circle cx="1525" cy="684" r="5"/><circle cx="1651" cy="669" r="5"/><circle cx="1695" cy="662" r="5"/><circle cx="1782" cy="689" r="4"/><circle cx="1849" cy="680" r="5"/><circle cx="1945" cy="698" r="5"/><circle cx="2074" cy="652" r="6"/><circle cx="2153" cy="651" r="6"/><circle cx="2179" cy="713" r="6"/><circle cx="2273" cy="701" r="4"/><circle cx="2342" cy="675" r="4"/><circle cx="2456" cy="717" r="6"/><circle cx="2480" cy="698" r="5"/><circle cx="60" cy="782" r="6"/><circle cx="158" cy="741" r="5"/><circle cx="216" cy="745" r="5"/><circle cx="275" cy="793" r="5"/><circle cx="400" cy="778" r="5"/><circle cx="479" cy="771" r="6"/><circle cx="523" cy="799" r="5"/><circle cx="590" cy="781" r="5"/><circle cx="643" cy="776" r="4"/><circle cx="750" cy="792" r="4"/><circle cx="837" cy="778" r="5"/><circle cx="915" cy="757" r="5"/><circle cx="1031" cy="742" r="4"/><circle cx="1113" cy="756" r="5"/><circle cx="1157" cy="789" r="5"/><circle cx="1265" cy="766" r="5"/><circle cx="1347" cy="762" r="5"/><circle cx="1407" cy="782" r="6"/><circle cx="1447" cy="725" r="4"/><circle cx="1586" cy="778" r="5"/><circle cx="1670" cy="756" r="5"/><circle cx="1736" cy="757" r="5"/><circle cx="1823" cy="794" r="4"/><circle cx="1919" cy="739" r="4"/><circle cx="1988" cy="741" r="5"/><circle cx="2059" cy="767" r="5"/><circle cx="2100" cy="743" r="5"/><circle cx="2218" cy="746" r="5"/><circle cx="2302" cy="727" r="5"/><circle cx="2320" cy="759" r="6"/><circle cx="2431" cy="792" r="5"/><circle cx="2509" cy="773" r="5"/><circle cx="60" cy="859" r="4"/><circle cx="150" cy="821" r="4"/><circle cx="218" cy="822" r="6"/><circle cx="273" cy="818" r="5"/><circle cx="335" cy="836" r="4"/><circle cx="471" cy="862" r="5"/><circle cx="530" cy="857" r="5"/><circle cx="589" cy="878" r="6"/><circle cx="714" cy="811" r="4"/><circle cx="766" cy="827" r="5"/><circle cx="819" cy="869" r="6"/><circle cx="960" cy="855" r="6"/><circle cx="984" cy="860" r="4"/><circle cx="1040" cy="857" r="6"/><circle cx="1134" cy="844" r="5"/><circle cx="1230" cy="879" r="5"/><circle cx="1293" cy="825" r="5"/><circle cx="1407" cy="826" r="5"/><circle cx="1441" cy="876" r="4"/><circle cx="1582" cy="802" r="6"/><circle cx="1623" cy="812" r="6"/><circle cx="1728" cy="804" r="4"/><circle cx="1810" cy="867" r="5"/><circle cx="1862" cy="806" r="5"/><circle cx="1928" cy="813" r="4"/><circle cx="2002" cy="814" r="5"/><circle cx="2103" cy="875" r="5"/><circle cx="2165" cy="828" r="5"/><circle cx="2253" cy="852" r="5"/><circle cx="2387" cy="854" r="5"/><circle cx="2444" cy="818" r="5"/><circle cx="2514" cy="802" r="6"/><circle cx="64" cy="917" r="4"/><circle cx="142" cy="955" r="4"/><circle cx="215" cy="908" r="4"/><circle cx="297" cy="951" r="5"/><circle cx="354" cy="952" r="6"/><circle cx="439" cy="944" r="5"/><circle cx="530" cy="887" r="5"/><circle cx="639" cy="905" r="5"/><circle cx="714" cy="956" r="4"/><circle cx="749" cy="917" r="5"/><circle cx="840" cy="902" r="4"/><circle cx="936" cy="922" r="4"/><circle cx="968" cy="884" r="6"/><circle cx="1117" cy="947" r="5"/><circle cx="1181" cy="942" r="5"/><circle cx="1263" cy="899" r="5"/><circle cx="1306" cy="920" r="6"/><circle cx="1408" cy="905" r="5"/><circle cx="1499" cy="929" r="6"/><circle cx="1574" cy="960" r="5"/><circle cx="1658" cy="923" r="5"/><circle cx="1691" cy="916" r="5"/><circle cx="1777" cy="934" r="5"/><circle cx="1895" cy="934" r="5"/><circle cx="1951" cy="918" r="6"/><circle cx="2044" cy="894" r="4"/><circle cx="2146" cy="900" r="5"/><circle cx="2171" cy="944" r="5"/><circle cx="2271" cy="895" r="5"/><circle cx="2389" cy="925" r="4"/><circle cx="2433" cy="960" r="4"/><circle cx="2528" cy="933" r="5"/><circle cx="11" cy="965" r="5"/><circle cx="84" cy="975" r="6"/><circle cx="197" cy="984" r="4"/><circle cx="283" cy="1007" r="6"/><circle cx="337" cy="967" r="4"/><circle cx="401" cy="969" r="6"/><circle cx="493" cy="1016" r="5"/><circle cx="607" cy="978" r="4"/><circle cx="647" cy="1027" r="4"/><circle cx="788" cy="1005" r="4"/><circle cx="861" cy="983" r="5"/><circle cx="881" cy="991" r="5"/><circle cx="1025" cy="975" r="5"/><circle cx="1085" cy="1037" r="6"/><circle cx="1142" cy="1031" r="6"/><circle cx="1220" cy="1000" r="5"/><circle cx="1327" cy="965" r="6"/><circle cx="1395" cy="997" r="6"/><circle cx="1465" cy="967" r="5"/><circle cx="1537" cy="1030" r="4"/><circle cx="1646" cy="999" r="6"/><circle cx="1720" cy="993" r="6"/><circle cx="1780" cy="1022" r="5"/><circle cx="1851" cy="1019" r="4"/><circle cx="1990" cy="1014" r="6"/><circle cx="2049" cy="1009" r="5"/><circle cx="2085" cy="1000" r="6"/><circle cx="2238" cy="1024" r="5"/><circle cx="2257" cy="992" r="5"/><circle cx="2372" cy="990" r="5"/><circle cx="2451" cy="1024" r="5"/><circle cx="2556" cy="978" r="5"/><circle cx="-4" cy="978" r="5"/><circle cx="20" cy="1052" r="4"/><circle cx="133" cy="1075" r="4"/><circle cx="177" cy="1080" r="5"/><circle cx="261" cy="1111" r="4"/><circle cx="348" cy="1114" r="5"/><circle cx="424" cy="1094" r="6"/><circle cx="537" cy="1088" r="5"/><circle cx="636" cy="1060" r="6"/><circle cx="657" cy="1102" r="5"/><circle cx="757" cy="1040" r="5"/><circle cx="802" cy="1076" r="5"/><circle cx="920" cy="1068" r="5"/><circle cx="1015" cy="1067" r="5"/><circle cx="1045" cy="1074" r="4"/><circle cx="1160" cy="1102" r="6"/><circle cx="1237" cy="1097" r="5"/><circle cx="1315" cy="1040" r="5"/><circle cx="1412" cy="1063" r="5"/><circle cx="1495" cy="1119" r="5"/><circle cx="1584" cy="1074" r="4"/><circle cx="1654" cy="1105" r="5"/><circle cx="1736" cy="1060" r="5"/><circle cx="1827" cy="1089" r="5"/><circle cx="1844" cy="1053" r="5"/><circle cx="1993" cy="1115" r="4"/><circle cx="2008" cy="1077" r="4"/><circle cx="2096" cy="1113" r="5"/><circle cx="2215" cy="1047" r="5"/><circle cx="2320" cy="1119" r="4"/><circle cx="2367" cy="1103" r="6"/><circle cx="2477" cy="1119" r="5"/><circle cx="2533" cy="1093" r="6"/><circle cx="50" cy="1141" r="5"/><circle cx="100" cy="1171" r="5"/><circle cx="222" cy="1190" r="4"/><circle cx="276" cy="1169" r="5"/><circle cx="346" cy="1188" r="4"/><circle cx="406" cy="1199" r="6"/><circle cx="512" cy="1154" r="4"/><circle cx="618" cy="1171" r="4"/><circle cx="704" cy="1162" r="4"/><circle cx="788" cy="1129" r="4"/><circle cx="846" cy="1128" r="6"/><circle cx="937" cy="1149" r="4"/><circle cx="1038" cy="1130" r="5"/><circle cx="1046" cy="1178" r="4"/><circle cx="1150" cy="1160" r="4"/><circle cx="1240" cy="1158" r="6"/><circle cx="1284" cy="1129" r="4"/><circle cx="1419" cy="1131" r="5"/><circle cx="1479" cy="1175" r="5"/><circle cx="1542" cy="1159" r="5"/><circle cx="1618" cy="1183" r="5"/><circle cx="1703" cy="1166" r="6"/><circle cx="1793" cy="1181" r="5"/><circle cx="1871" cy="1142" r="5"/><circle cx="1946" cy="1137" r="4"/><circle cx="2023" cy="1191" r="5"/><circle cx="2132" cy="1178" r="5"/><circle cx="2171" cy="1124" r="5"/><circle cx="2317" cy="1157" r="6"/><circle cx="2326" cy="1143" r="6"/><circle cx="2476" cy="1154" r="4"/><circle cx="2538" cy="1168" r="4"/><circle cx="20" cy="1249" r="5"/><circle cx="136" cy="1269" r="5"/><circle cx="165" cy="1248" r="6"/><circle cx="280" cy="1240" r="5"/><circle cx="356" cy="1231" r="5"/><circle cx="401" cy="1201" r="6"/><circle cx="552" cy="1240" r="4"/><circle cx="626" cy="1258" r="5"/><circle cx="679" cy="1278" r="5"/><circle cx="753" cy="1232" r="5"/><circle cx="852" cy="1272" r="6"/><circle cx="950" cy="1230" r="5"/><circle cx="1030" cy="1248" r="5"/><circle cx="1077" cy="1210" r="4"/><circle cx="1140" cy="1209" r="6"/><circle cx="1237" cy="1236" r="6"/><circle cx="1283" cy="1274" r="5"/><circle cx="1409" cy="1214" r="5"/><circle cx="1442" cy="1234" r="5"/><circle cx="1543" cy="1232" r="4"/><circle cx="1663" cy="1242" r="4"/><circle cx="1724" cy="1230" r="5"/><circle cx="1784" cy="1205" r="5"/><circle cx="1917" cy="1242" r="6"/><circle cx="1979" cy="1208" r="4"/><circle cx="2019" cy="1266" r="5"/><circle cx="2135" cy="1255" r="5"/><circle cx="2189" cy="1255" r="6"/><circle cx="2317" cy="1248" r="5"/><circle cx="2396" cy="1245" r="5"/><circle cx="2434" cy="1224" r="4"/><circle cx="2502" cy="1220" r="4"/><circle cx="3" cy="1314" r="4"/><circle cx="2563" cy="1314" r="4"/><circle cx="138" cy="1287" r="5"/><circle cx="162" cy="1345" r="6"/><circle cx="244" cy="1331" r="5"/><circle cx="327" cy="1342" r="5"/><circle cx="432" cy="1326" r="4"/><circle cx="507" cy="1328" r="4"/><circle cx="626" cy="1358" r="5"/><circle cx="647" cy="1318" r="5"/><circle cx="749" cy="1298" r="4"/><circle cx="810" cy="1326" r="5"/><circle cx="950" cy="1320" r="6"/><circle cx="967" cy="1346" r="4"/><circle cx="1111" cy="1307" r="4"/><circle cx="1139" cy="1323" r="5"/><circle cx="1264" cy="1283" r="6"/><circle cx="1337" cy="1353" r="5"/><circle cx="1439" cy="1285" r="5"/><circle cx="1454" cy="1287" r="5"/><circle cx="1566" cy="1340" r="6"/><circle cx="1604" cy="1282" r="4"/><circle cx="1759" cy="1359" r="5"/><circle cx="1837" cy="1291" r="5"/><circle cx="1902" cy="1305" r="5"/><circle cx="1956" cy="1320" r="4"/><circle cx="2079" cy="1316" r="5"/><circle cx="2083" cy="1305" r="4"/><circle cx="2179" cy="1354" r="6"/><circle cx="2277" cy="1357" r="4"/><circle cx="2347" cy="1309" r="5"/><circle cx="2461" cy="1348" r="4"/><circle cx="2539" cy="1293" r="5"/><circle cx="73" cy="1397" r="6"/><circle cx="119" cy="1411" r="6"/><circle cx="211" cy="1429" r="4"/><circle cx="294" cy="1430" r="5"/><circle cx="338" cy="1362" r="5"/><circle cx="438" cy="1419" r="5"/><circle cx="500" cy="1420" r="5"/><circle cx="622" cy="1375" r="4"/><circle cx="696" cy="1419" r="5"/><circle cx="761" cy="1404" r="5"/><circle cx="810" cy="1393" r="5"/><circle cx="912" cy="1401" r="5"/><circle cx="1003" cy="1420" r="5"/><circle cx="1041" cy="1385" r="6"/><circle cx="1127" cy="1413" r="5"/><circle cx="1203" cy="1434" r="5"/><circle cx="1318" cy="1387" r="5"/><circle cx="1424" cy="1405" r="4"/><circle cx="1511" cy="1412" r="4"/><circle cx="1593" cy="1369" r="5"/><circle cx="1667" cy="1369" r="5"/><circle cx="1721" cy="1393" r="5"/><circle cx="1817" cy="1420" r="5"/><circle cx="1885" cy="1400" r="6"/><circle cx="1960" cy="1376" r="4"/><circle cx="2041" cy="1424" r="4"/><circle cx="2148" cy="1414" r="5"/><circle cx="2188" cy="1382" r="5"/><circle cx="2316" cy="1375" r="4"/><circle cx="2335" cy="1391" r="5"/><circle cx="2416" cy="1383" r="4"/><circle cx="2493" cy="1407" r="5"/><path stroke="#fff" d="M47 72L137 80M47 72L65 109M47 72L123 112M47 72L-33 135M47 72L42 175M2607 72L2527 135M137 80L193 6M137 80L65 109M137 80L123 112M137 80L119 -29M137 1520L119 1411M193 6L119 -29M193 6L211 -11M193 1446L119 1411M193 1446L211 1429M311 75L383 38M311 75L286 84M311 75L382 144M311 75L294 -10M311 1515L294 1430M383 38L414 42M383 38L407 107M383 38L438 -21M383 1478L438 1419M414 42L407 107M414 42L438 -21M414 42L500 -20M414 1482L438 1419M414 1482L500 1420M523 77L483 148M523 77L585 144M523 77L500 -20M523 1517L500 1420M621 8L708 76M621 8L626 -82M621 8L622 -65M621 8L696 -21M621 1448L626 1358M621 1448L622 1375M621 1448L696 1419M708 76L734 12M708 76L677 130M708 76L756 85M734 12L822 32M734 12L756 85M734 12L696 -21M734 12L761 -36M734 1452L696 1419M734 1452L761 1404M822 32L896 26M822 32L756 85M822 32L815 107M822 32L810 -47M822 1472L810 1393M896 26L997 32M896 26L810 -47M896 26L912 -39M896 26L1003 -20M896 1466L810 1393M896 1466L912 1401M896 1466L1003 1420M997 32L1091 41M997 32L1018 104M997 32L1003 -20M997 32L1041 -55M997 1472L1003 1420M997 1472L1041 1385M1091 41L1190 74M1091 41L1018 104M1091 41L1131 107M1091 41L1127 -27M1091 1481L1127 1413M1190 74L1263 35M1190 74L1131 107M1190 74L1256 102M1190 74L1203 -6M1190 1514L1203 1434M1263 35L1335 8M1263 35L1256 102M1263 35L1300 118M1263 35L1203 -6M1263 1475L1203 1434M1335 8L1435 16M1335 8L1337 -87M1335 8L1318 -53M1335 8L1424 -35M1335 1448L1337 1353M1335 1448L1318 1387M1335 1448L1424 1405M1435 16L1484 45M1435 16L1424 -35M1435 16L1511 -28M1435 1456L1424 1405M1435 1456L1511 1412M1484 45L1541 64M1484 45L1493 108M1484 45L1424 -35M1484 45L1511 -28M1484 1485L1424 1405M1484 1485L1511 1412M1541 64L1638 72M1541 64L1493 108M1541 64L1582 81M1638 72L1682 13M1638 72L1582 81M1638 72L1661 147M1682 13L1767 22M1682 13L1667 -71M1682 13L1721 -47M1682 1453L1667 1369M1682 1453L1721 1393M1767 22L1858 35M1767 22L1759 -81M1767 22L1721 -47M1767 22L1817 -20M1767 1462L1759 1359M1767 1462L1721 1393M1767 1462L1817 1420M1858 35L1937 50M1858 35L1917 108M1858 35L1817 -20M1858 35L1885 -40M1858 1475L1817 1420M1858 1475L1885 1400M1937 50L2036 73M1937 50L1917 108M1937 50L1959 130M1937 50L1885 -40M1937 1490L1885 1400M2036 73L2103 24M2036 73L2047 136M2036 73L2133 99M2036 73L2041 -16M2036 1513L2041 1424M2103 24L2133 99M2103 24L2041 -16M2103 24L2148 -26M2103 24L2188 -58M2103 1464L2041 1424M2103 1464L2148 1414M2103 1464L2188 1382M2240 38L2282 39M2240 38L2340 68M2240 38L2237 89M2240 38L2188 -58M2240 1478L2188 1382M2282 39L2340 68M2282 39L2237 89M2282 39L2307 114M2282 39L2335 -49M2282 1479L2335 1391M2340 68L2407 39M2340 68L2307 114M2340 68L2380 90M2407 39L2495 15M2407 39L2380 90M2407 39L2422 143M2407 39L2416 -57M2407 1479L2416 1383M2495 15L2461 -92M2495 15L2493 -33M2495 1455L2461 1348M2495 1455L2493 1407M65 109L123 112M65 109L-33 135M65 109L42 175M2625 109L2527 135M123 112L220 154M123 112L106 206M220 154L286 84M220 154L106 206M220 154L232 172M220 154L260 174M286 84L232 172M286 84L260 174M286 84L294 -10M286 1524L294 1430M382 144L407 107M382 144L483 148M382 144L380 183M407 107L483 148M407 107L380 183M483 148L447 229M483 148L529 189M585 144L677 130M585 144L529 189M585 144L628 180M585 144L587 261M677 130L756 85M677 130L628 180M677 130L668 239M756 85L815 107M815 107L780 203M946 159L1018 104M946 159L1041 137M946 159L932 204M946 159L968 161M1018 104L1041 137M1018 104L968 161M1041 137L1131 107M1041 137L968 161M1041 137L1088 237M1131 107L1256 102M1256 102L1300 118M1300 118L1367 137M1300 118L1331 196M1367 137L1331 196M1367 137L1369 203M1493 108L1582 81M1493 108L1479 214M1493 108L1531 210M1582 81L1661 147M1661 147L1754 132M1661 147L1637 201M1754 132L1795 144M1754 132L1738 213M1754 132L1779 202M1795 144L1738 213M1795 144L1779 202M1917 108L1959 130M1959 130L2047 136M1959 130L1986 182M1959 130L2008 187M2047 136L2133 99M2047 136L1986 182M2047 136L2008 187M2133 99L2237 89M2133 99L2179 218M2237 89L2307 114M2237 89L2255 204M2307 114L2380 90M2307 114L2363 175M2380 90L2422 143M2380 90L2363 175M2422 143L2363 175M2422 143L2432 195M2527 135L2602 175M2527 135L2501 217M-33 135L42 175M42 175L106 206M42 175L7 246M106 206L105 274M232 172L260 174M380 183L447 229M380 183L374 265M380 183L419 261M447 229L529 189M447 229L374 265M447 229L419 261M529 189L628 180M529 189L587 261M628 180L668 239M628 180L679 259M668 239L587 261M668 239L679 259M780 203L859 222M780 203L775 281M859 222L932 204M859 222L775 281M859 222L859 301M859 222L916 299M932 204L968 161M932 204L916 299M1088 237L1165 218M1088 237L1041 271M1088 237L1121 298M1088 237L1133 322M1165 218L1222 203M1165 218L1121 298M1165 218L1222 248M1222 203L1222 248M1222 203L1316 253M1331 196L1369 203M1331 196L1316 253M1369 203L1479 214M1369 203L1316 253M1369 203L1372 302M1479 214L1531 210M1479 214L1479 303M1531 210L1637 201M1531 210L1479 303M1637 201L1678 265M1738 213L1779 202M1738 213L1678 265M1738 213L1722 281M1779 202L1722 281M1779 202L1850 248M1892 235L1986 182M1892 235L1850 248M1892 235L1950 276M1892 235L1840 325M1892 235L1866 323M1986 182L2008 187M1986 182L1950 276M2008 187L1950 276M2133 225L2179 218M2133 225L2088 300M2179 218L2255 204M2179 218L2163 307M2179 218L2275 261M2255 204L2275 261M2363 175L2432 195M2363 175L2363 254M2432 195L2501 217M2432 195L2363 254M2432 195L2484 257M2501 217L2567 246M2501 217L2484 257M-59 217L7 246M7 246L105 274M7 246L-76 257M7 246L70 323M2567 246L2484 257M105 274L189 318M105 274L70 323M105 274L153 341M189 318L313 298M189 318L153 341M189 318L229 397M189 318L256 354M313 298L374 265M313 298L419 261M313 298L256 354M313 298L340 348M374 265L419 261M374 265L340 348M419 261L484 317M484 317L430 377M484 317L524 377M484 317L498 414M587 261L679 259M679 259L701 348M775 281L859 301M775 281L701 348M775 281L750 376M859 301L916 299M859 301L857 375M916 299L994 300M916 299L950 331M994 300L1041 271M994 300L950 331M994 300L1039 395M994 300L1018 405M1041 271L1121 298M1041 271L950 331M1041 271L1133 322M1121 298L1118 384M1121 298L1133 322M1222 248L1316 253M1222 248L1210 348M1316 253L1372 302M1372 302L1405 340M1479 303L1405 340M1479 303L1475 338M1479 303L1523 336M1595 306L1678 265M1595 306L1523 336M1595 306L1656 388M1678 265L1722 281M1678 265L1684 375M1722 281L1802 312M1722 281L1684 375M1802 312L1850 248M1802 312L1840 325M1802 312L1866 323M1850 248L1840 325M1850 248L1866 323M1950 276L1955 358M2067 320L2088 300M2067 320L2163 307M2067 320L1955 358M2067 320L2065 375M2067 320L2086 327M2088 300L2163 307M2088 300L2065 375M2088 300L2086 327M2163 307L2086 327M2163 307L2177 337M2275 261L2363 254M2275 261L2253 343M2275 261L2359 332M2363 254L2404 313M2363 254L2359 332M2404 313L2484 257M2404 313L2359 332M2404 313L2409 332M2404 313L2441 405M2484 257L2508 360M70 323L153 341M70 323L102 427M153 341L229 397M153 341L102 427M229 397L256 354M229 397L221 472M229 397L242 433M256 354L340 348M256 354L242 433M340 348L430 377M340 348L344 455M430 377L524 377M430 377L470 473M430 377L498 414M524 377L595 394M524 377L498 414M524 377L588 412M595 394L701 348M595 394L588 412M595 394L671 438M701 348L750 376M750 376L857 375M750 376L754 439M857 375L846 462M857 375L914 413M950 331L914 413M950 331L1018 405M1039 395L1118 384M1039 395L1018 405M1039 395L1062 406M1118 384L1133 322M1118 384L1062 406M1118 384L1190 421M1133 322L1210 348M1210 348L1306 396M1210 348L1190 421M1306 396L1405 340M1306 396L1236 455M1306 396L1309 422M1306 396L1397 414M1405 340L1475 338M1405 340L1397 414M1475 338L1523 336M1475 338L1511 404M1523 336L1511 404M1523 336L1574 421M1656 388L1684 375M1656 388L1574 421M1656 388L1618 452M1656 388L1712 429M1684 375L1712 429M1840 325L1866 323M1840 325L1889 413M1866 323L1889 413M1955 358L1889 413M1955 358L1991 437M1955 358L2002 419M2065 375L2086 327M2065 375L2002 419M2065 375L2135 434M2086 327L2177 337M2177 337L2253 343M2177 337L2135 434M2177 337L2161 404M2253 343L2161 404M2359 332L2409 332M2409 332L2508 360M2409 332L2441 405M2508 360L2441 405M2508 360L2535 431M3 457L102 427M3 457L-25 431M3 457L70 515M3 457L-68 545M3 457L10 565M2563 457L2535 431M2563 457L2492 545M102 427L70 515M221 472L242 433M221 472L208 525M221 472L277 533M221 472L239 571M242 433L344 455M242 433L208 525M344 455L374 552M344 455L404 505M470 473L498 414M470 473L404 505M470 473L546 519M498 414L588 412M588 412L671 438M588 412L622 500M671 438L754 439M671 438L622 500M671 438L703 513M754 439L846 462M754 439L703 513M754 439L737 516M846 462L914 413M846 462L878 533M846 462L901 545M914 413L1018 405M1018 405L1062 406M1062 406L1057 525M1190 421L1236 455M1190 421L1186 512M1236 455L1309 422M1236 455L1186 512M1236 455L1277 521M1309 422L1397 414M1397 414L1511 404M1397 414L1422 502M1511 404L1574 421M1511 404L1532 481M1574 421L1618 452M1574 421L1532 481M1618 452L1532 481M1618 452L1672 514M1618 452L1681 522M1712 429L1672 514M1712 429L1681 522M1823 471L1889 413M1823 471L1778 520M1823 471L1880 555M1823 471L1930 562M1889 413L1991 437M1991 437L2002 419M1991 437L2039 498M2002 419L2039 498M2135 434L2161 404M2135 434L2150 518M2161 404L2258 468M2161 404L2150 518M2258 468L2208 531M2372 475L2441 405M2372 475L2355 530M2372 475L2419 523M2441 405L2535 431M2535 431L2630 515M-25 431L70 515M70 515L105 558M70 515L10 565M105 558L208 525M105 558L10 565M105 558L148 640M208 525L277 533M208 525L239 571M277 533L239 571M277 533L310 581M277 533L353 584M374 552L404 505M374 552L310 581M374 552L353 584M374 552L417 613M404 505L353 584M546 519L622 500M546 519L526 608M546 519L573 576M622 500L703 513M622 500L573 576M703 513L737 516M703 513L692 596M737 516L692 596M737 516L763 619M878 533L901 545M878 533L987 541M878 533L864 620M878 533L902 591M901 545L987 541M901 545L864 620M901 545L902 591M987 541L1057 525M987 541L1014 560M1057 525L1014 560M1057 525L1063 629M1186 512L1277 521M1186 512L1183 599M1186 512L1260 569M1277 521L1353 552M1277 521L1260 569M1353 552L1422 502M1353 552L1260 569M1353 552L1284 627M1353 552L1396 597M1422 502L1480 529M1422 502L1396 597M1422 502L1451 585M1480 529L1532 481M1480 529L1451 585M1480 529L1462 640M1532 481L1581 576M1672 514L1681 522M1672 514L1778 520M1672 514L1634 579M1681 522L1778 520M1681 522L1634 579M1778 520L1752 609M1778 520L1822 593M1880 555L1926 534M1880 555L1822 593M1880 555L1917 602M1880 555L1930 562M1926 534L1917 602M1926 534L1930 562M2039 498L2046 599M2150 518L2208 531M2150 518L2123 583M2150 518L2233 596M2208 531L2279 549M2208 531L2123 583M2208 531L2233 596M2279 549L2355 530M2279 549L2233 596M2279 549L2302 596M2279 549L2337 583M2355 530L2419 523M2355 530L2302 596M2355 530L2337 583M2419 523L2492 545M2419 523L2337 583M2492 545L2570 565M2492 545L2431 637M2492 545L2507 630M-68 545L10 565M10 565L-53 630M2570 565L2507 630M148 640L74 673M148 640L119 673M148 640L190 717M239 571L310 581M239 571L262 647M310 581L353 584M310 581L262 647M353 584L417 613M417 613L342 687M417 613L450 670M526 608L573 576M526 608L450 670M526 608L512 703M526 608L572 674M573 576L572 674M692 596L763 619M692 596L657 675M763 619L657 675M763 619L773 693M864 620L902 591M864 620L877 687M864 620L933 676M902 591L877 687M902 591L933 676M1014 560L1063 629M1063 629L999 701M1063 629L1115 649M1063 629L1157 643M1183 599L1260 569M1183 599L1115 649M1183 599L1157 643M1260 569L1284 627M1284 627L1260 683M1284 627L1289 687M1396 597L1451 585M1396 597L1462 640M1451 585L1462 640M1451 585L1525 684M1581 576L1634 579M1581 576L1651 669M1634 579L1651 669M1752 609L1822 593M1752 609L1651 669M1752 609L1695 662M1752 609L1782 689M1822 593L1917 602M1822 593L1849 680M1917 602L1930 562M1917 602L1945 698M1930 562L2046 599M2046 599L2123 583M2046 599L2074 652M2123 583L2074 652M2123 583L2153 651M2233 596L2302 596M2233 596L2153 651M2302 596L2337 583M2302 596L2342 675M2337 583L2342 675M2431 637L2507 630M2431 637L2456 717M2431 637L2480 698M2507 630L2456 717M2507 630L2480 698M74 673L119 673M74 673L60 782M119 673L190 717M119 673L158 741M190 717L262 647M190 717L158 741M190 717L216 745M262 647L342 687M342 687L450 670M342 687L275 793M342 687L400 778M450 670L512 703M512 703L572 674M512 703L479 771M572 674L657 675M572 674L590 781M657 675L773 693M657 675L643 776M773 693L877 687M773 693L750 792M773 693L837 778M877 687L933 676M877 687L915 757M933 676L999 701M933 676L915 757M999 701L1115 649M999 701L915 757M999 701L1031 742M1115 649L1157 643M1115 649L1113 756M1157 643L1260 683M1260 683L1289 687M1260 683L1365 704M1260 683L1265 766M1289 687L1365 704M1289 687L1265 766M1289 687L1347 762M1365 704L1347 762M1365 704L1407 782M1365 704L1447 725M1462 640L1525 684M1462 640L1447 725M1525 684L1447 725M1525 684L1586 778M1525 684L1582 802M1651 669L1695 662M1651 669L1670 756M1695 662L1782 689M1695 662L1736 757M1782 689L1849 680M1782 689L1736 757M1849 680L1945 698M1849 680L1919 739M1945 698L1919 739M1945 698L1988 741M2074 652L2153 651M2074 652L2179 713M2074 652L2100 743M2153 651L2179 713M2153 651L2100 743M2179 713L2273 701M2179 713L2100 743M2179 713L2218 746M2273 701L2342 675M2273 701L2218 746M2273 701L2302 727M2273 701L2320 759M2342 675L2302 727M2342 675L2320 759M2456 717L2480 698M2456 717L2431 792M2456 717L2509 773M2480 698L2509 773M2480 698L2514 802M60 782L60 859M60 782L150 821M60 782L-46 802M2620 782L2514 802M158 741L216 745M158 741L150 821M216 745L275 793M216 745L218 822M216 745L273 818M275 793L218 822M275 793L273 818M275 793L335 836M400 778L479 771M400 778L335 836M479 771L523 799M479 771L471 862M479 771L530 857M523 799L590 781M523 799L471 862M523 799L530 857M523 799L530 887M590 781L643 776M590 781L589 878M643 776L714 811M750 792L837 778M750 792L714 811M750 792L766 827M750 792L819 869M837 778L915 757M837 778L766 827M837 778L819 869M915 757L960 855M1031 742L1113 756M1113 756L1157 789M1113 756L1134 844M1157 789L1134 844M1265 766L1347 762M1265 766L1293 825M1347 762L1407 782M1347 762L1293 825M1407 782L1447 725M1407 782L1407 826M1407 782L1441 876M1447 725L1407 826M1586 778L1670 756M1586 778L1582 802M1586 778L1623 812M1670 756L1736 757M1670 756L1623 812M1670 756L1728 804M1736 757L1823 794M1736 757L1728 804M1823 794L1728 804M1823 794L1810 867M1823 794L1862 806M1919 739L1988 741M1919 739L1862 806M1919 739L1928 813M1988 741L2059 767M1988 741L1928 813M1988 741L2002 814M2059 767L2100 743M2059 767L2002 814M2100 743L2165 828M2218 746L2302 727M2218 746L2320 759M2218 746L2165 828M2302 727L2320 759M2320 759L2253 852M2431 792L2509 773M2431 792L2387 854M2431 792L2444 818M2431 792L2514 802M2509 773L2444 818M2509 773L2514 802M60 859L150 821M60 859L64 917M150 821L218 822M218 822L273 818M218 822L215 908M273 818L335 836M273 818L215 908M471 862L530 857M471 862L439 944M471 862L530 887M530 857L589 878M530 857L530 887M589 878L530 887M589 878L639 905M589 878L607 978M714 811L766 827M766 827L819 869M766 827L749 917M819 869L749 917M819 869L840 902M960 855L984 860M960 855L1040 857M960 855L936 922M960 855L968 884M984 860L1040 857M984 860L936 922M984 860L968 884M1040 857L1134 844M1040 857L968 884M1134 844L1230 879M1134 844L1117 947M1230 879L1293 825M1230 879L1181 942M1230 879L1263 899M1230 879L1306 920M1293 825L1263 899M1293 825L1306 920M1407 826L1441 876M1407 826L1408 905M1441 876L1408 905M1441 876L1499 929M1441 876L1465 967M1582 802L1623 812M1623 812L1728 804M1623 812L1658 923M1728 804L1810 867M1810 867L1862 806M1810 867L1777 934M1810 867L1895 934M1862 806L1928 813M1928 813L2002 814M1928 813L1951 918M2002 814L1951 918M2002 814L2044 894M2103 875L2165 828M2103 875L2044 894M2103 875L2146 900M2103 875L2171 944M2165 828L2253 852M2165 828L2146 900M2253 852L2271 895M2387 854L2444 818M2387 854L2271 895M2387 854L2389 925M2387 854L2433 960M2444 818L2514 802M64 917L142 955M64 917L11 965M64 917L84 975M64 917L-4 978M2624 917L2556 978M142 955L215 908M142 955L84 975M142 955L197 984M215 908L297 951M215 908L197 984M297 951L354 952M297 951L283 1007M297 951L337 967M297 951L401 969M354 952L439 944M354 952L283 1007M354 952L337 967M354 952L401 969M439 944L530 887M439 944L401 969M439 944L493 1016M639 905L714 956M639 905L607 978M714 956L749 917M714 956L647 1027M714 956L788 1005M714 956L757 1040M749 917L840 902M840 902L861 983M840 902L881 991M936 922L968 884M936 922L861 983M936 922L881 991M968 884L1025 975M1117 947L1181 942M1117 947L1025 975M1117 947L1085 1037M1117 947L1142 1031M1181 942L1263 899M1181 942L1142 1031M1181 942L1220 1000M1263 899L1306 920M1263 899L1327 965M1306 920L1327 965M1408 905L1499 929M1408 905L1395 997M1408 905L1465 967M1499 929L1574 960M1499 929L1465 967M1574 960L1658 923M1574 960L1537 1030M1574 960L1646 999M1658 923L1691 916M1658 923L1646 999M1691 916L1777 934M1691 916L1646 999M1691 916L1720 993M1777 934L1895 934M1777 934L1720 993M1895 934L1951 918M1895 934L1851 1019M1951 918L2044 894M1951 918L1990 1014M2044 894L2146 900M2146 900L2171 944M2171 944L2085 1000M2171 944L2238 1024M2171 944L2257 992M2271 895L2389 925M2271 895L2238 1024M2271 895L2257 992M2389 925L2433 960M2389 925L2372 990M2433 960L2528 933M2433 960L2372 990M2433 960L2451 1024M2528 933L2571 965M2528 933L2556 978M-32 933L11 965M11 965L84 975M11 965L-4 978M11 965L20 1052M2571 965L2556 978M84 975L-4 978M84 975L20 1052M2644 975L2556 978M197 984L283 1007M197 984L133 1075M197 984L177 1080M283 1007L337 967M283 1007L261 1111M337 967L401 969M401 969L493 1016M493 1016L607 978M493 1016L424 1094M493 1016L537 1088M607 978L647 1027M607 978L636 1060M647 1027L636 1060M647 1027L657 1102M788 1005L861 983M788 1005L881 991M788 1005L757 1040M788 1005L802 1076M861 983L881 991M861 983L920 1068M881 991L920 1068M1025 975L1085 1037M1025 975L1015 1067M1025 975L1045 1074M1085 1037L1142 1031M1085 1037L1015 1067M1085 1037L1045 1074M1142 1031L1220 1000M1142 1031L1160 1102M1220 1000L1327 965M1220 1000L1237 1097M1220 1000L1315 1040M1327 965L1395 997M1327 965L1315 1040M1395 997L1465 967M1395 997L1315 1040M1395 997L1412 1063M1465 967L1537 1030M1537 1030L1495 1119M1537 1030L1584 1074M1646 999L1720 993M1646 999L1584 1074M1720 993L1780 1022M1720 993L1736 1060M1780 1022L1851 1019M1780 1022L1736 1060M1780 1022L1827 1089M1780 1022L1844 1053M1851 1019L1827 1089M1851 1019L1844 1053M1990 1014L2049 1009M1990 1014L2085 1000M1990 1014L1993 1115M1990 1014L2008 1077M2049 1009L2085 1000M2049 1009L2008 1077M2085 1000L2096 1113M2238 1024L2257 992M2238 1024L2215 1047M2238 1024L2171 1124M2257 992L2372 990M2257 992L2215 1047M2372 990L2451 1024M2372 990L2367 1103M2451 1024L2477 1119M2556 978L2580 1052M-4 978L20 1052M20 1052L-27 1093M20 1052L50 1141M2580 1052L2533 1093M133 1075L177 1080M133 1075L100 1171M177 1080L261 1111M261 1111L222 1190M261 1111L276 1169M348 1114L424 1094M348 1114L276 1169M348 1114L346 1188M348 1114L406 1199M348 1114L401 1201M424 1094L537 1088M424 1094L406 1199M424 1094L401 1201M537 1088L636 1060M537 1088L512 1154M636 1060L657 1102M636 1060L618 1171M657 1102L618 1171M657 1102L704 1162M757 1040L802 1076M757 1040L788 1129M757 1040L846 1128M802 1076L788 1129M802 1076L846 1128M920 1068L1015 1067M920 1068L846 1128M920 1068L937 1149M1015 1067L1045 1074M1015 1067L1038 1130M1045 1074L1038 1130M1160 1102L1237 1097M1160 1102L1150 1160M1160 1102L1240 1158M1160 1102L1140 1209M1237 1097L1315 1040M1237 1097L1240 1158M1237 1097L1284 1129M1315 1040L1412 1063M1412 1063L1495 1119M1412 1063L1419 1131M1495 1119L1419 1131M1495 1119L1479 1175M1495 1119L1542 1159M1584 1074L1654 1105M1584 1074L1542 1159M1654 1105L1736 1060M1654 1105L1618 1183M1654 1105L1703 1166M1736 1060L1827 1089M1827 1089L1844 1053M1827 1089L1871 1142M1844 1053L1871 1142M1993 1115L2008 1077M1993 1115L1946 1137M1993 1115L2023 1191M1993 1115L1979 1208M2008 1077L2096 1113M2008 1077L1946 1137M2096 1113L2132 1178M2096 1113L2171 1124M2215 1047L2171 1124M2320 1119L2367 1103M2320 1119L2317 1157M2320 1119L2326 1143M2367 1103L2477 1119M2367 1103L2317 1157M2367 1103L2326 1143M2477 1119L2533 1093M2477 1119L2476 1154M2477 1119L2538 1168M2533 1093L2610 1141M2533 1093L2476 1154M2533 1093L2538 1168M-27 1093L50 1141M50 1141L100 1171M50 1141L-22 1168M50 1141L20 1249M2610 1141L2538 1168M100 1171L20 1249M100 1171L136 1269M100 1171L165 1248M222 1190L276 1169M222 1190L136 1269M222 1190L165 1248M222 1190L280 1240M276 1169L346 1188M276 1169L280 1240M346 1188L406 1199M346 1188L356 1231M346 1188L401 1201M406 1199L356 1231M406 1199L401 1201M512 1154L552 1240M618 1171L704 1162M618 1171L552 1240M618 1171L626 1258M704 1162L788 1129M704 1162L753 1232M788 1129L846 1128M846 1128L937 1149M937 1149L1038 1130M937 1149L950 1230M1038 1130L1046 1178M1038 1130L1077 1210M1046 1178L950 1230M1046 1178L1030 1248M1046 1178L1077 1210M1046 1178L1140 1209M1150 1160L1240 1158M1150 1160L1077 1210M1150 1160L1140 1209M1150 1160L1237 1236M1240 1158L1284 1129M1240 1158L1237 1236M1419 1131L1479 1175M1419 1131L1409 1214M1419 1131L1442 1234M1479 1175L1542 1159M1479 1175L1409 1214M1479 1175L1442 1234M1542 1159L1618 1183M1542 1159L1543 1232M1618 1183L1703 1166M1618 1183L1543 1232M1618 1183L1663 1242M1703 1166L1663 1242M1703 1166L1724 1230M1703 1166L1784 1205M1793 1181L1871 1142M1793 1181L1724 1230M1793 1181L1784 1205M1871 1142L1946 1137M1946 1137L2023 1191M1946 1137L1979 1208M2023 1191L2132 1178M2023 1191L1979 1208M2023 1191L2019 1266M2132 1178L2171 1124M2132 1178L2135 1255M2132 1178L2189 1255M2317 1157L2326 1143M2317 1157L2317 1248M2317 1157L2396 1245M2326 1143L2317 1248M2326 1143L2396 1245M2476 1154L2538 1168M2476 1154L2434 1224M2476 1154L2502 1220M2538 1168L2502 1220M20 1249L-58 1220M20 1249L3 1314M20 1249L-21 1293M2580 1249L2502 1220M2580 1249L2539 1293M136 1269L165 1248M136 1269L138 1287M136 1269L162 1345M165 1248L138 1287M165 1248L162 1345M280 1240L356 1231M280 1240L244 1331M280 1240L327 1342M356 1231L401 1201M552 1240L626 1258M552 1240L507 1328M626 1258L679 1278M626 1258L647 1318M679 1278L753 1232M679 1278L626 1358M679 1278L647 1318M679 1278L749 1298M753 1232L852 1272M753 1232L749 1298M753 1232L810 1326M852 1272L950 1230M852 1272L749 1298M852 1272L810 1326M852 1272L950 1320M950 1230L1030 1248M950 1230L950 1320M1030 1248L1077 1210M1077 1210L1140 1209M1140 1209L1237 1236M1237 1236L1283 1274M1237 1236L1264 1283M1283 1274L1264 1283M1283 1274L1337 1353M1283 1274L1318 1387M1409 1214L1442 1234M1409 1214L1439 1285M1409 1214L1454 1287M1442 1234L1439 1285M1442 1234L1454 1287M1543 1232L1454 1287M1543 1232L1566 1340M1543 1232L1604 1282M1663 1242L1724 1230M1663 1242L1604 1282M1724 1230L1784 1205M1784 1205L1837 1291M1917 1242L1979 1208M1917 1242L1837 1291M1917 1242L1902 1305M1917 1242L1956 1320M1979 1208L2019 1266M2019 1266L1956 1320M2019 1266L2079 1316M2019 1266L2083 1305M2135 1255L2189 1255M2135 1255L2079 1316M2135 1255L2083 1305M2135 1255L2179 1354M2189 1255L2079 1316M2189 1255L2083 1305M2189 1255L2179 1354M2317 1248L2396 1245M2317 1248L2277 1357M2317 1248L2347 1309M2396 1245L2434 1224M2396 1245L2347 1309M2434 1224L2502 1220M2502 1220L2539 1293M3 1314L-99 1348M3 1314L-21 1293M3 1314L73 1397M3 1314L-67 1407M2563 1314L2461 1348M2563 1314L2539 1293M2563 1314L2493 1407M138 1287L162 1345M162 1345L244 1331M162 1345L119 1411M244 1331L327 1342M244 1331L338 1362M327 1342L432 1326M327 1342L294 1430M327 1342L338 1362M432 1326L507 1328M432 1326L338 1362M432 1326L438 1419M432 1326L500 1420M507 1328L500 1420M626 1358L647 1318M626 1358L622 1375M626 1358L696 1419M647 1318L622 1375M749 1298L810 1326M749 1298L761 1404M810 1326L761 1404M810 1326L810 1393M950 1320L967 1346M950 1320L912 1401M950 1320L1041 1385M967 1346L912 1401M967 1346L1003 1420M967 1346L1041 1385M1111 1307L1139 1323M1111 1307L1127 1413M1139 1323L1264 1283M1139 1323L1127 1413M1139 1323L1203 1434M1264 1283L1337 1353M1264 1283L1318 1387M1337 1353L1318 1387M1337 1353L1424 1405M1439 1285L1454 1287M1566 1340L1604 1282M1566 1340L1511 1412M1566 1340L1593 1369M1566 1340L1667 1369M1604 1282L1593 1369M1759 1359L1837 1291M1759 1359L1667 1369M1759 1359L1721 1393M1759 1359L1817 1420M1837 1291L1902 1305M1902 1305L1956 1320M1902 1305L1885 1400M1902 1305L1960 1376M1956 1320L1960 1376M2079 1316L2083 1305M2079 1316L2179 1354M2179 1354L2148 1414M2179 1354L2188 1382M2277 1357L2347 1309M2277 1357L2188 1382M2277 1357L2316 1375M2277 1357L2335 1391M2347 1309L2316 1375M2347 1309L2335 1391M2461 1348L2539 1293M2461 1348L2416 1383M2461 1348L2493 1407M2539 1293L2493 1407M73 1397L119 1411M119 1411L211 1429M211 1429L294 1430M294 1430L338 1362M338 1362L438 1419M438 1419L500 1420M622 1375L696 1419M696 1419L761 1404M761 1404L810 1393M810 1393L912 1401M912 1401L1003 1420M1003 1420L1041 1385M1041 1385L1127 1413M1127 1413L1203 1434M1424 1405L1511 1412M1511 1412L1593 1369M1593 1369L1667 1369M1667 1369L1721 1393M1721 1393L1817 1420M1817 1420L1885 1400M1885 1400L1960 1376M1960 1376L2041 1424M2041 1424L2148 1414M2148 1414L2188 1382M2316 1375L2335 1391M2316 1375L2416 1383M2335 1391L2416 1383M2416 1383L2493 1407"/></svg>