<svg xmlns="http://www.w3.org/2000/svg" width="2560" height="1440" fill="#fff"><circle cx="12" cy="16" r="5"/><circle cx="93" cy="10" r="4"/><circle cx="161" cy="69" r="6"/><circle cx="284" cy="2" r="5"/><circle cx="284" cy="1442" r="5"/><circle cx="356" cy="4" r="6"/><circle cx="356" cy="1444" r="6"/><circle cx="408" cy="44" r="5"/><circle cx="528" cy="49" r="5"/><circle cx="576" cy="13" r="5"/><circle cx="677" cy="30" r="4"/><circle cx="745" cy="47" r="5"/><circle cx="858" cy="21" r="4"/><circle cx="907" cy="20" r="5"/><circle cx="1020" cy="33" r="5"/><circle cx="1053" cy="30" r="5"/><circle cx="1164" cy="25" r="5"/><circle cx="1271" cy="64" r="6"/><circle cx="1352" cy="18" r="4"/><circle cx="1433" cy="22" r="5"/><circle cx="1471" cy="34" r="5"/><circle cx="1529" cy="38" r="5"/><circle cx="1637" cy="3" r="6"/><circle cx="1637" cy="1443" r="6"/><circle cx="1711" cy="57" r="5"/><circle cx="1811" cy="51" r="4"/><circle cx="1854" cy="53" r="5"/><circle cx="1942" cy="60" r="4"/><circle cx="2058" cy="62" r="5"/><circle cx="2100" cy="31" r="4"/><circle cx="2171" cy="36" r="4"/><circle cx="2317" cy="9" r="4"/><circle cx="2354" cy="15" r="5"/><circle cx="2449" cy="56" r="4"/><circle cx="2535" cy="67" r="5"/><circle cx="67" cy="89" r="5"/><circle cx="106" cy="151" r="5"/><circle cx="199" cy="150" r="5"/><circle cx="306" cy="96" r="5"/><circle cx="383" cy="114" r="4"/><circle cx="445" cy="124" r="4"/><circle cx="501" cy="96" r="5"/><circle cx="637" cy="116" r="5"/><circle cx="654" cy="143" r="6"/><circle cx="796" cy="147" r="6"/><circle cx="852" cy="113" r="4"/><circle cx="904" cy="88" r="5"/><circle cx="980" cy="147" r="6"/><circle cx="1101" cy="121" r="6"/><circle cx="1163" cy="101" r="5"/><circle cx="1226" cy="96" r="5"/><circle cx="1305" cy="97" r="6"/><circle cx="1436" cy="109" r="6"/><circle cx="1469" cy="127" r="5"/><circle cx="1533" cy="160" r="4"/><circle cx="1646" cy="96" r="5"/><circle cx="1754" cy="101" r="6"/><circle cx="1782" cy="119" r="5"/><circle cx="1882" cy="116" r="4"/><circle cx="1939" cy="122" r="5"/><circle cx="2016" cy="144" r="4"/><circle cx="2139" cy="87" r="5"/><circle cx="2214" cy="105" r="5"/><circle cx="2282" cy="129" r="5"/><circle cx="2379" cy="150" r="5"/><circle cx="2468" cy="86" r="4"/><circle cx="2534" cy="96" r="5"/><circle cx="73" cy="228" r="6"/><circle cx="95" cy="181" r="6"/><circle cx="170" cy="209" r="5"/><circle cx="246" cy="222" r="4"/><circle cx="370" cy="202" r="6"/><circle cx="477" cy="190" r="6"/><circle cx="502" cy="177" r="4"/><circle cx="600" cy="182" r="5"/><circle cx="642" cy="185" r="4"/><circle cx="784" cy="186" r="5"/><circle cx="838" cy="179" r="5"/><circle cx="944" cy="178" r="4"/><circle cx="1006" cy="230" r="5"/><circle cx="1114" cy="205" r="4"/><circle cx="1133" cy="185" r="4"/><circle cx="1243" cy="229" r="5"/><circle cx="1351" cy="226" r="5"/><circle cx="1418" cy="183" r="5"/><circle cx="1482" cy="171" r="4"/><circle cx="1573" cy="174" r="4"/><circle cx="1635" cy="238" r="5"/><circle cx="1692" cy="175" r="5"/><circle cx="1794" cy="227" r="5"/><circle cx="1901" cy="163" r="6"/><circle cx="1958" cy="165" r="5"/><circle cx="2045" cy="167" r="5"/><circle cx="2081" cy="167" r="5"/><circle cx="2184" cy="229" r="5"/><circle cx="2282" cy="165" r="5"/><circle cx="2392" cy="211" r="6"/><circle cx="2422" cy="186" r="6"/><circle cx="2510" cy="180" r="5"/><circle cx="60" cy="280" r="5"/><circle cx="83" cy="259" r="5"/><circle cx="226" cy="313" r="6"/><circle cx="302" cy="301" r="4"/><circle cx="350" cy="305" r="5"/><circle cx="474" cy="278" r="6"/><circle cx="531" cy="245" r="4"/><circle cx="589" cy="255" r="5"/><circle cx="648" cy="276" r="5"/><circle cx="736" cy="243" r="5"/><circle cx="853" cy="299" r="4"/><circle cx="945" cy="307" r="5"/><circle cx="980" cy="276" r="4"/><circle cx="1052" cy="301" r="5"/><circle cx="1200" cy="297" r="6"/><circle cx="1251" cy="254" r="5"/><circle cx="1336" cy="292" r="6"/><circle cx="1416" cy="276" r="5"/><circle cx="1492" cy="310" r="6"/><circle cx="1579" cy="292" r="5"/><circle cx="1620" cy="300" r="6"/><circle cx="1695" cy="251" r="5"/><circle cx="1808" cy="289" r="5"/><circle cx="1902" cy="246" r="5"/><circle cx="1961" cy="303" r="5"/><circle cx="2015" cy="284" r="5"/><circle cx="2135" cy="246" r="5"/><circle cx="2170" cy="283" r="5"/><circle cx="2285" cy="283" r="6"/><circle cx="2332" cy="274" r="5"/><circle cx="2419" cy="252" r="4"/><circle cx="2532" cy="316" r="4"/><circle cx="36" cy="360" r="5"/><circle cx="107" cy="397" r="6"/><circle cx="183" cy="378" r="6"/><circle cx="316" cy="391" r="5"/><circle cx="346" cy="365" r="5"/><circle cx="425" cy="326" r="4"/><circle cx="500" cy="336" r="6"/><circle cx="638" cy="390" r="4"/><circle cx="650" cy="337" r="5"/><circle cx="759" cy="351" r="5"/><circle cx="869" cy="378" r="4"/><circle cx="955" cy="376" r="6"/><circle cx="991" cy="390" r="4"/><circle cx="1070" cy="395" r="5"/><circle cx="1167" cy="360" r="4"/><circle cx="1234" cy="376" r="4"/><circle cx="1288" cy="333" r="5"/><circle cx="1362" cy="355" r="5"/><circle cx="1518" cy="373" r="5"/><circle cx="1537" cy="352" r="5"/><circle cx="1658" cy="352" r="4"/><circle cx="1755" cy="326" r="4"/><circle cx="1830" cy="387" r="4"/><circle cx="1911" cy="326" r="6"/><circle cx="1994" cy="364" r="5"/><circle cx="2002" cy="386" r="5"/><circle cx="2139" cy="375" r="5"/><circle cx="2211" cy="368" r="4"/><circle cx="2257" cy="381" r="5"/><circle cx="2368" cy="322" r="5"/><circle cx="2401" cy="331" r="5"/><circle cx="2522" cy="344" r="5"/><circle cx="38" cy="446" r="5"/><circle cx="84" cy="433" r="6"/><circle cx="210" cy="428" r="5"/><circle cx="320" cy="446" r="5"/><circle cx="369" cy="420" r="4"/><circle cx="465" cy="432" r="5"/><circle cx="481" cy="425" r="5"/><circle cx="567" cy="439" r="5"/><circle cx="693" cy="407" r="6"/><circle cx="783" cy="465" r="4"/><circle cx="842" cy="402" r="5"/><circle cx="923" cy="464" r="5"/><circle cx="969" cy="473" r="5"/><circle cx="1073" cy="435" r="5"/><circle cx="1146" cy="471" r="4"/><circle cx="1246" cy="461" r="4"/><circle cx="1296" cy="426" r="5"/><circle cx="1436" cy="434" r="5"/><circle cx="1494" cy="418" r="6"/><circle cx="1529" cy="432" r="6"/><circle cx="1610" cy="442" r="5"/><circle cx="1741" cy="428" r="5"/><circle cx="1822" cy="424" r="4"/><circle cx="1916" cy="416" r="5"/><circle cx="1940" cy="429" r="5"/><circle cx="2001" cy="467" r="5"/><circle cx="2131" cy="432" r="6"/><circle cx="2195" cy="428" r="6"/><circle cx="2240" cy="405" r="6"/><circle cx="2393" cy="402" r="5"/><circle cx="2419" cy="454" r="5"/><circle cx="2551" cy="413" r="5"/><circle cx="71" cy="493" r="4"/><circle cx="115" cy="560" r="4"/><circle cx="237" cy="515" r="6"/><circle cx="259" cy="560" r="5"/><circle cx="339" cy="535" r="4"/><circle cx="458" cy="528" r="6"/><circle cx="520" cy="522" r="6"/><circle cx="638" cy="484" r="6"/><circle cx="645" cy="490" r="5"/><circle cx="778" cy="540" r="4"/><circle cx="840" cy="532" r="4"/><circle cx="883" cy="558" r="5"/><circle cx="1010" cy="513" r="5"/><circle cx="1054" cy="501" r="4"/><circle cx="1186" cy="546" r="5"/><circle cx="1214" cy="531" r="5"/><circle cx="1288" cy="511" r="6"/><circle cx="1390" cy="536" r="6"/><circle cx="1507" cy="549" r="5"/><circle cx="1524" cy="512" r="5"/><circle cx="1643" cy="494" r="5"/><circle cx="1721" cy="531" r="6"/><circle cx="1822" cy="514" r="5"/><circle cx="1902" cy="508" r="4"/><circle cx="1955" cy="522" r="5"/><circle cx="2004" cy="491" r="5"/><circle cx="2104" cy="502" r="5"/><circle cx="2223" cy="515" r="5"/><circle cx="2250" cy="544" r="4"/><circle cx="2377" cy="516" r="4"/><circle cx="2401" cy="532" r="5"/><circle cx="2557" cy="548" r="5"/><circle cx="-3" cy="548" r="5"/><circle cx="30" cy="623" r="5"/><circle cx="121" cy="584" r="6"/><circle cx="199" cy="617" r="4"/><circle cx="317" cy="568" r="5"/><circle cx="346" cy="592" r="5"/><circle cx="429" cy="637" r="5"/><circle cx="539" cy="574" r="5"/><circle cx="587" cy="570" r="5"/><circle cx="720" cy="577" r="6"/><circle cx="742" cy="626" r="5"/><circle cx="873" cy="639" r="4"/><circle cx="936" cy="607" r="4"/><circle cx="1011" cy="623" r="5"/><circle cx="1083" cy="568" r="6"/><circle cx="1135" cy="580" r="5"/><circle cx="1221" cy="563" r="5"/><circle cx="1342" cy="589" r="5"/><circle cx="1425" cy="574" r="4"/><circle cx="1461" cy="619" r="6"/><circle cx="1569" cy="628" r="6"/><circle cx="1640" cy="632" r="4"/><circle cx="1693" cy="637" r="4"/><circle cx="1799" cy="613" r="6"/><circle cx="1860" cy="639" r="5"/><circle cx="1968" cy="581" r="4"/><circle cx="2019" cy="605" r="4"/><circle cx="2140" cy="595" r="4"/><circle cx="2175" cy="603" r="6"/><circle cx="2311" cy="581" r="4"/><circle cx="2363" cy="624" r="5"/><circle cx="2469" cy="624" r="6"/><circle cx="2482" cy="600" r="4"/><circle cx="53" cy="643" r="4"/><circle cx="120" cy="701" r="5"/><circle cx="189" cy="677" r="6"/><circle cx="292" cy="686" r="5"/><circle cx="346" cy="647" r="5"/><circle cx="443" cy="656" r="5"/><circle cx="493" cy="698" r="4"/><circle cx="581" cy="657" r="6"/><circle cx="683" cy="675" r="4"/><circle cx="785" cy="657" r="4"/><circle cx="818" cy="690" r="6"/><circle cx="902" cy="680" r="4"/><circle cx="976" cy="643" r="5"/><circle cx="1098" cy="711" r="5"/><circle cx="1139" cy="652" r="5"/><circle cx="1271" cy="699" r="5"/><circle cx="1310" cy="643" r="4"/><circle cx="1360" cy="666" r="6"/><circle cx="1512" cy="678" r="5"/><circle cx="1576" cy="717" r="5"/><circle cx="1636" cy="692" r="5"/><circle cx="1684" cy="668" r="5"/><circle cx="1810" cy="640" r="5"/><circle cx="1917" cy="654" r="4"/><circle cx="1977" cy="651" r="5"/><circle cx="2052" cy="706" r="5"/><circle cx="2107" cy="689" r="5"/><circle cx="2199" cy="658" r="6"/><circle cx="2278" cy="677" r="4"/><circle cx="2345" cy="653" r="4"/><circle cx="2412" cy="684" r="6"/><circle cx="2489" cy="655" r="5"/><circle cx="39" cy="760" r="5"/><circle cx="125" cy="743" r="5"/><circle cx="202" cy="787" r="5"/><circle cx="263" cy="791" r="5"/><circle cx="389" cy="787" r="6"/><circle cx="402" cy="728" r="4"/><circle cx="508" cy="723" r="5"/><circle cx="596" cy="750" r="4"/><circle cx="662" cy="767" r="6"/><circle cx="722" cy="742" r="6"/><circle cx="838" cy="782" r="5"/><circle cx="915" cy="769" r="6"/><circle cx="971" cy="725" r="5"/><circle cx="1096" cy="723" r="5"/><circle cx="1194" cy="736" r="4"/><circle cx="1244" cy="797" r="6"/><circle cx="1335" cy="784" r="6"/><circle cx="1427" cy="792" r="4"/><circle cx="1491" cy="770" r="5"/><circle cx="1536" cy="770" r="6"/><circle cx="1642" cy="729" r="4"/><circle cx="1750" cy="753" r="6"/><circle cx="1767" cy="770" r="6"/><circle cx="1888" cy="748" r="5"/><circle cx="1984" cy="763" r="4"/><circle cx="2007" cy="771" r="5"/><circle cx="2100" cy="778" r="5"/><circle cx="2208" cy="786" r="4"/><circle cx="2247" cy="730" r="5"/><circle cx="2389" cy="769" r="4"/><circle cx="2420" cy="764" r="4"/><circle cx="2510" cy="734" r="4"/><circle cx="16" cy="849" r="5"/><circle cx="150" cy="862" r="5"/><circle cx="220" cy="858" r="4"/><circle cx="308" cy="880" r="5"/><circle cx="372" cy="865" r="6"/><circle cx="414" cy="843" r="5"/><circle cx="510" cy="828" r="5"/><circle cx="595" cy="834" r="5"/><circle cx="687" cy="862" r="6"/><circle cx="733" cy="837" r="6"/><circle cx="873" cy="819" r="5"/><circle cx="922" cy="872" r="5"/><circle cx="970" cy="828" r="5"/><circle cx="1055" cy="843" r="6"/><circle cx="1163" cy="839" r="4"/><circle cx="1266" cy="815" r="5"/><circle cx="1315" cy="877" r="6"/><circle cx="1424" cy="863" r="4"/><circle cx="1454" cy="818" r="5"/><circle cx="1577" cy="858" r="5"/><circle cx="1666" cy="859" r="5"/><circle cx="1717" cy="820" r="6"/><circle cx="1795" cy="825" r="6"/><circle cx="1910" cy="880" r="5"/><circle cx="1958" cy="869" r="5"/><circle cx="2044" cy="859" r="5"/><circle cx="2147" cy="879" r="4"/><circle cx="2167" cy="834" r="5"/><circle cx="2269" cy="869" r="5"/><circle cx="2351" cy="832" r="5"/><circle cx="2414" cy="833" r="4"/><circle cx="2492" cy="801" r="5"/><circle cx="5" cy="919" r="5"/><circle cx="131" cy="895" r="5"/><circle cx="198" cy="940" r="6"/><circle cx="317" cy="937" r="6"/><circle cx="365" cy="899" r="4"/><circle cx="432" cy="912" r="5"/><circle cx="501" cy="947" r="5"/><circle cx="580" cy="936" r="6"/><circle cx="699" cy="898" r="5"/><circle cx="773" cy="901" r="4"/><circle cx="822" cy="908" r="5"/><circle cx="940" cy="882" r="4"/><circle cx="977" cy="955" r="6"/><circle cx="1092" cy="944" r="5"/><circle cx="1191" cy="890" r="4"/><circle cx="1241" cy="909" r="4"/><circle cx="1325" cy="885" r="5"/><circle cx="1406" cy="917" r="4"/><circle cx="1457" cy="889" r="5"/><circle cx="1564" cy="958" r="5"/><circle cx="1675" cy="937" r="5"/><circle cx="1701" cy="916" r="5"/><circle cx="1803" cy="922" r="5"/><circle cx="1911" cy="897" r="5"/><circle cx="1981" cy="951" r="5"/><circle cx="2044" cy="880" r="4"/><circle cx="2140" cy="946" r="6"/><circle cx="2195" cy="922" r="5"/><circle cx="2242" cy="918" r="5"/><circle cx="2344" cy="959" r="4"/><circle cx="2454" cy="952" r="4"/><circle cx="2494" cy="893" r="6"/><circle cx="43" cy="986" r="6"/><circle cx="121" cy="1035" r="5"/><circle cx="232" cy="986" r="4"/><circle cx="276" cy="1036" r="5"/><circle cx="341" cy="1025" r="5"/><circle cx="448" cy="1016" r="5"/><circle cx="534" cy="1017" r="5"/><circle cx="589" cy="1018" r="4"/><circle cx="652" cy="993" r="4"/><circle cx="730" cy="991" r="5"/><circle cx="840" cy="1019" r="5"/><circle cx="936" cy="969" r="5"/><circle cx="985" cy="964" r="5"/><circle cx="1066" cy="1014" r="6"/><circle cx="1143" cy="1035" r="6"/><circle cx="1229" cy="999" r="4"/><circle cx="1326" cy="1037" r="6"/><circle cx="1412" cy="967" r="5"/><circle cx="1467" cy="969" r="5"/><circle cx="1576" cy="988" r="5"/><circle cx="1671" cy="960" r="4"/><circle cx="1733" cy="970" r="5"/><circle cx="1784" cy="1036" r="4"/><circle cx="1920" cy="986" r="4"/><circle cx="1930" cy="967" r="5"/><circle cx="2002" cy="1034" r="6"/><circle cx="2088" cy="1005" r="5"/><circle cx="2216" cy="989" r="4"/><circle cx="2295" cy="1000" r="4"/><circle cx="2385" cy="1032" r="5"/><circle cx="2426" cy="1005" r="4"/><circle cx="2541" cy="965" r="6"/><circle cx="40" cy="1055" r="5"/><circle cx="97" cy="1100" r="4"/><circle cx="208" cy="1080" r="4"/><circle cx="313" cy="1041" r="5"/><circle cx="345" cy="1120" r="5"/><circle cx="439" cy="1086" r="4"/><circle cx="509" cy="1069" r="4"/><circle cx="589" cy="1076" r="5"/><circle cx="645" cy="1068" r="5"/><circle cx="745" cy="1045" r="5"/><circle cx="819" cy="1118" r="5"/><circle cx="947" cy="1074" r="6"/><circle cx="990" cy="1067" r="5"/><circle cx="1046" cy="1074" r="4"/><circle cx="1131" cy="1047" r="6"/><circle cx="1238" cy="1118" r="5"/><circle cx="1291" cy="1117" r="5"/><circle cx="1411" cy="1086" r="6"/><circle cx="1446" cy="1075" r="5"/><circle cx="1573" cy="1075" r="5"/><circle cx="1641" cy="1064" r="4"/><circle cx="1696" cy="1046" r="4"/><circle cx="1787" cy="1075" r="5"/><circle cx="1910" cy="1107" r="5"/><circle cx="1991" cy="1102" r="5"/><circle cx="2061" cy="1116" r="5"/><circle cx="2092" cy="1076" r="5"/><circle cx="2223" cy="1043" r="6"/><circle cx="2271" cy="1104" r="5"/><circle cx="2320" cy="1087" r="6"/><circle cx="2410" cy="1115" r="5"/><circle cx="2547" cy="1089" r="6"/><circle cx="4" cy="1121" r="6"/><circle cx="2564" cy="1121" r="6"/><circle cx="112" cy="1173" r="5"/><circle cx="202" cy="1171" r="5"/><circle cx="261" cy="1188" r="5"/><circle cx="345" cy="1173" r="6"/><circle cx="418" cy="1132" r="5"/><circle cx="484" cy="1160" r="5"/><circle cx="629" cy="1165" r="4"/><circle cx="671" cy="1130" r="4"/><circle cx="745" cy="1190" r="5"/><circle cx="819" cy="1169" r="6"/><circle cx="902" cy="1141" r="4"/><circle cx="971" cy="1131" r="5"/><circle cx="1105" cy="1187" r="5"/><circle cx="1188" cy="1179" r="4"/><circle cx="1215" cy="1137" r="4"/><circle cx="1308" cy="1150" r="4"/><circle cx="1404" cy="1156" r="5"/><circle cx="1444" cy="1170" r="4"/><circle cx="1532" cy="1151" r="5"/><circle cx="1640" cy="1124" r="5"/><circle cx="1759" cy="1138" r="5"/><circle cx="1823" cy="1189" r="6"/><circle cx="1865" cy="1127" r="5"/><circle cx="1950" cy="1156" r="4"/><circle cx="2041" cy="1200" r="5"/><circle cx="2146" cy="1129" r="5"/><circle cx="2190" cy="1144" r="4"/><circle cx="2280" cy="1197" r="4"/><circle cx="2357" cy="1177" r="5"/><circle cx="2451" cy="1183" r="5"/><circle cx="2488" cy="1184" r="6"/><circle cx="23" cy="1208" r="4"/><circle cx="91" cy="1202" r="6"/><circle cx="202" cy="1277" r="4"/><circle cx="241" cy="1273" r="5"/><circle cx="355" cy="1275" r="5"/><circle cx="427" cy="1232" r="6"/><circle cx="531" cy="1224" r="6"/><circle cx="615" cy="1266" r="5"/><circle cx="701" cy="1256" r="5"/><circle cx="798" cy="1212" r="4"/><circle cx="837" cy="1266" r="5"/><circle cx="923" cy="1229" r="6"/><circle cx="983" cy="1246" r="6"/><circle cx="1080" cy="1202" r="5"/><circle cx="1142" cy="1271" r="5"/><circle cx="1231" cy="1216" r="4"/><circle cx="1291" cy="1254" r="5"/><circle cx="1361" cy="1236" r="4"/><circle cx="1511" cy="1264" r="6"/><circle cx="1556" cy="1205" r="6"/><circle cx="1675" cy="1279" r="6"/><circle cx="1719" cy="1251" r="4"/><circle cx="1831" cy="1205" r="6"/><circle cx="1897" cy="1232" r="6"/><circle cx="1986" cy="1264" r="6"/><circle cx="2027" cy="1204" r="5"/><circle cx="2120" cy="1256" r="5"/><circle cx="2236" cy="1267" r="6"/><circle cx="2290" cy="1250" r="4"/><circle cx="2342" cy="1266" r="5"/><circle cx="2465" cy="1270" r="5"/><circle cx="2482" cy="1263" r="6"/><circle cx="60" cy="1297" r="5"/><circle cx="85" cy="1342" r="6"/><circle cx="239" cy="1358" r="5"/><circle cx="268" cy="1312" r="4"/><circle cx="334" cy="1293" r="5"/><circle cx="421" cy="1320" r="5"/><circle cx="540" cy="1298" r="6"/><circle cx="621" cy="1330" r="5"/><circle cx="663" cy="1304" r="5"/><circle cx="783" cy="1337" r="4"/><circle cx="848" cy="1354" r="5"/><circle cx="924" cy="1352" r="6"/><circle cx="965" cy="1314" r="4"/><circle cx="1092" cy="1335" r="5"/><circle cx="1165" cy="1351" r="5"/><circle cx="1227" cy="1293" r="4"/><circle cx="1323" cy="1343" r="5"/><circle cx="1406" cy="1325" r="5"/><circle cx="1481" cy="1356" r="4"/><circle cx="1536" cy="1284" r="6"/><circle cx="1619" cy="1311" r="5"/><circle cx="1701" cy="1344" r="6"/><circle cx="1781" cy="1311" r="5"/><circle cx="1900" cy="1298" r="4"/><circle cx="1925" cy="1321" r="6"/><circle cx="2004" cy="1292" r="4"/><circle cx="2145" cy="1291" r="4"/><circle cx="2220" cy="1321" r="6"/><circle cx="2309" cy="1300" r="6"/><circle cx="2348" cy="1309" r="5"/><circle cx="2465" cy="1337" r="6"/><circle cx="2494" cy="1354" r="5"/><circle cx="25" cy="1392" r="4"/><circle cx="153" cy="1361" r="6"/><circle cx="202" cy="1395" r="5"/><circle cx="313" cy="1424" r="5"/><circle cx="355" cy="1372" r="4"/><circle cx="404" cy="1435" r="5"/><circle cx="404" cy="-5" r="5"/><circle cx="538" cy="1427" r="4"/><circle cx="606" cy="1380" r="6"/><circle cx="692" cy="1427" r="5"/><circle cx="797" cy="1390" r="6"/><circle cx="841" cy="1391" r="4"/><circle cx="892" cy="1420" r="4"/><circle cx="1011" cy="1419" r="6"/><circle cx="1104" cy="1360" r="4"/><circle cx="1125" cy="1412" r="4"/><circle cx="1251" cy="1373" r="6"/><circle cx="1292" cy="1408" r="4"/><circle cx="1374" cy="1438" r="6"/><circle cx="1374" cy="-2" r="6"/><circle cx="1473" cy="1410" r="6"/><circle cx="1562" cy="1435" r="5"/><circle cx="1562" cy="-5" r="5"/><circle cx="1641" cy="1425" r="5"/><circle cx="1760" cy="1438" r="5"/><circle cx="1760" cy="-2" r="5"/><circle cx="1797" cy="1427" r="4"/><circle cx="1911" cy="1414" r="5"/><circle cx="1920" cy="1362" r="4"/><circle cx="2000" cy="1415" r="5"/><circle cx="2113" cy="1429" r="5"/><circle cx="2172" cy="1382" r="6"/><circle cx="2314" cy="1410" r="5"/><circle cx="2384" cy="1384" r="4"/><circle cx="2439" cy="1375" r="6"/><circle cx="2530" cy="1400" r="4"/><path stroke="#fff" d="M12 16L93 10M12 16L-25 67M12 16L-26 96M12 16L25 -48M12 16L-30 -40M2572 16L2535 67M2572 16L2534 96M2572 16L2530 -40M12 1456L25 1392M12 1456L-30 1400M2572 1456L2530 1400M93 10L161 69M93 10L67 89M93 10L25 -48M93 10L153 -79M93 1450L25 1392M93 1450L153 1361M161 69L67 89M161 69L106 151M161 69L199 150M284 2L356 4M284 2L306 96M284 2L239 -82M284 2L202 -45M284 2L313 -16M284 1442L239 1358M284 1442L202 1395M284 1442L313 1424M356 4L408 44M356 4L313 -16M356 4L355 -68M356 4L404 -5M356 1444L313 1424M356 1444L355 1372M356 1444L404 1435M408 44L383 114M408 44L445 124M408 44L501 96M408 44L404 -5M408 1484L404 1435M528 49L576 13M528 49L501 96M528 49L538 -13M528 1489L538 1427M576 13L677 30M576 13L538 -13M576 13L606 -60M576 1453L538 1427M576 1453L606 1380M677 30L745 47M677 30L637 116M677 30L692 -13M677 1470L692 1427M745 47L796 147M745 47L692 -13M745 47L797 -50M745 1487L692 1427M745 1487L797 1390M858 21L907 20M858 21L904 88M858 21L797 -50M858 21L841 -49M858 21L892 -20M858 1461L797 1390M858 1461L841 1391M858 1461L892 1420M907 20L904 88M907 20L892 -20M907 1460L892 1420M1020 33L1053 30M1020 33L980 147M1020 33L1011 -21M1020 1473L1011 1419M1053 30L1101 121M1053 30L1011 -21M1053 30L1125 -28M1053 1470L1011 1419M1053 1470L1125 1412M1164 25L1101 121M1164 25L1163 101M1164 25L1226 96M1164 25L1125 -28M1164 1465L1125 1412M1271 64L1352 18M1271 64L1163 101M1271 64L1226 96M1271 64L1305 97M1271 64L1292 -32M1271 1504L1292 1408M1352 18L1433 22M1352 18L1305 97M1352 18L1292 -32M1352 18L1374 -2M1352 1458L1292 1408M1352 1458L1374 1438M1433 22L1471 34M1433 22L1436 109M1433 22L1374 -2M1433 22L1473 -30M1433 1462L1374 1438M1433 1462L1473 1410M1471 34L1529 38M1471 34L1436 109M1471 34L1473 -30M1471 34L1562 -5M1471 1474L1473 1410M1471 1474L1562 1435M1529 38L1473 -30M1529 38L1562 -5M1529 1478L1473 1410M1529 1478L1562 1435M1637 3L1711 57M1637 3L1646 96M1637 3L1562 -5M1637 3L1641 -15M1637 1443L1562 1435M1637 1443L1641 1425M1711 57L1646 96M1711 57L1754 101M1711 57L1782 119M1711 57L1760 -2M1711 1497L1760 1438M1811 51L1854 53M1811 51L1754 101M1811 51L1782 119M1811 51L1760 -2M1811 51L1797 -13M1811 1491L1760 1438M1811 1491L1797 1427M1854 53L1942 60M1854 53L1782 119M1854 53L1882 116M1854 53L1797 -13M1854 1493L1797 1427M1942 60L1882 116M1942 60L1939 122M1942 60L1911 -26M1942 60L2000 -25M1942 1500L1911 1414M1942 1500L2000 1415M2058 62L2100 31M2058 62L2016 144M2058 62L2139 87M2058 62L2000 -25M2058 62L2113 -11M2058 1502L2000 1415M2058 1502L2113 1429M2100 31L2171 36M2100 31L2139 87M2100 31L2113 -11M2100 31L2172 -58M2100 1471L2113 1429M2100 1471L2172 1382M2171 36L2139 87M2171 36L2214 105M2171 36L2113 -11M2171 36L2172 -58M2171 1476L2113 1429M2171 1476L2172 1382M2317 9L2354 15M2317 9L2314 -30M2317 9L2384 -56M2317 1449L2314 1410M2317 1449L2384 1384M2354 15L2449 56M2354 15L2314 -30M2354 15L2384 -56M2354 15L2439 -65M2354 1455L2314 1410M2354 1455L2384 1384M2354 1455L2439 1375M2449 56L2535 67M2449 56L2468 86M2449 56L2534 96M2535 67L2627 89M2535 67L2468 86M2535 67L2534 96M-25 67L67 89M67 89L106 151M67 89L95 181M106 151L73 228M106 151L95 181M106 151L170 209M199 150L306 96M199 150L170 209M199 150L246 222M306 96L383 114M306 96L370 202M306 96L313 -16M306 1536L313 1424M383 114L445 124M383 114L370 202M445 124L501 96M445 124L477 190M445 124L502 177M501 96L477 190M501 96L502 177M637 116L654 143M637 116L600 182M637 116L642 185M637 116L692 -13M637 1556L692 1427M654 143L600 182M654 143L642 185M796 147L852 113M796 147L784 186M796 147L838 179M796 147L736 243M852 113L904 88M852 113L784 186M852 113L838 179M904 88L980 147M904 88L944 178M980 147L944 178M980 147L1006 230M1101 121L1163 101M1101 121L1114 205M1101 121L1133 185M1163 101L1226 96M1163 101L1133 185M1226 96L1305 97M1436 109L1469 127M1436 109L1418 183M1436 109L1482 171M1469 127L1533 160M1469 127L1418 183M1469 127L1482 171M1469 127L1573 174M1533 160L1482 171M1533 160L1573 174M1646 96L1692 175M1646 96L1641 -15M1646 1536L1641 1425M1754 101L1782 119M1754 101L1692 175M1754 101L1760 -2M1754 1541L1760 1438M1782 119L1692 175M1882 116L1939 122M1882 116L1901 163M1882 116L1958 165M1939 122L2016 144M1939 122L1901 163M1939 122L1958 165M2016 144L1958 165M2016 144L2045 167M2016 144L2081 167M2139 87L2214 105M2139 87L2081 167M2214 105L2282 129M2214 105L2282 165M2282 129L2379 150M2282 129L2282 165M2379 150L2282 165M2379 150L2392 211M2379 150L2422 186M2468 86L2534 96M2468 86L2422 186M2468 86L2510 180M2534 96L2510 180M73 228L95 181M73 228L170 209M73 228L60 280M73 228L83 259M95 181L170 209M95 181L83 259M170 209L246 222M246 222L226 313M246 222L302 301M370 202L350 305M477 190L502 177M477 190L474 278M477 190L531 245M502 177L474 278M502 177L531 245M600 182L642 185M600 182L589 255M642 185L589 255M642 185L648 276M784 186L838 179M784 186L736 243M838 179L944 178M838 179L736 243M944 178L1006 230M944 178L980 276M1006 230L980 276M1006 230L1052 301M1114 205L1133 185M1243 229L1351 226M1243 229L1200 297M1243 229L1251 254M1351 226L1418 183M1351 226L1251 254M1351 226L1336 292M1351 226L1416 276M1418 183L1482 171M1418 183L1416 276M1482 171L1573 174M1573 174L1635 238M1635 238L1692 175M1635 238L1579 292M1635 238L1620 300M1635 238L1695 251M1692 175L1695 251M1794 227L1901 163M1794 227L1695 251M1794 227L1808 289M1794 227L1902 246M1794 227L1755 326M1901 163L1958 165M1901 163L1902 246M1958 165L2045 167M2045 167L2081 167M2045 167L2015 284M2045 167L2135 246M2081 167L2184 229M2081 167L2135 246M2184 229L2135 246M2184 229L2170 283M2184 229L2285 283M2392 211L2422 186M2392 211L2332 274M2392 211L2419 252M2422 186L2510 180M2422 186L2419 252M60 280L83 259M60 280L-28 316M60 280L-38 344M2620 280L2532 316M2620 280L2522 344M226 313L302 301M226 313L183 378M226 313L210 428M302 301L350 305M302 301L316 391M302 301L346 365M350 305L316 391M350 305L346 365M350 305L425 326M474 278L531 245M474 278L425 326M474 278L500 336M531 245L589 255M531 245L500 336M589 255L648 276M589 255L650 337M648 276L736 243M648 276L650 337M736 243L759 351M853 299L945 307M853 299L759 351M853 299L869 378M853 299L842 402M945 307L980 276M945 307L1052 301M945 307L955 376M945 307L991 390M980 276L1052 301M1052 301L1070 395M1200 297L1251 254M1200 297L1167 360M1200 297L1234 376M1200 297L1288 333M1251 254L1336 292M1251 254L1288 333M1336 292L1416 276M1336 292L1288 333M1336 292L1362 355M1416 276L1492 310M1416 276L1362 355M1492 310L1579 292M1492 310L1518 373M1492 310L1537 352M1492 310L1494 418M1579 292L1620 300M1579 292L1537 352M1620 300L1695 251M1620 300L1658 352M1695 251L1755 326M1808 289L1902 246M1808 289L1755 326M1902 246L1961 303M1902 246L1911 326M1961 303L2015 284M1961 303L1911 326M1961 303L1994 364M1961 303L2002 386M2015 284L1994 364M2135 246L2170 283M2170 283L2285 283M2170 283L2139 375M2285 283L2332 274M2285 283L2257 381M2285 283L2368 322M2332 274L2419 252M2332 274L2368 322M2332 274L2401 331M2419 252L2368 322M2419 252L2401 331M2532 316L2596 360M2532 316L2522 344M2532 316L2551 413M-28 316L36 360M36 360L107 397M36 360L-38 344M36 360L84 433M36 360L-9 413M2596 360L2522 344M2596 360L2551 413M107 397L183 378M107 397L38 446M107 397L84 433M183 378L210 428M316 391L346 365M316 391L320 446M316 391L369 420M346 365L320 446M346 365L369 420M425 326L500 336M500 336L465 432M500 336L481 425M638 390L650 337M638 390L567 439M638 390L693 407M638 390L638 484M638 390L645 490M650 337L759 351M650 337L693 407M759 351L693 407M759 351L842 402M869 378L955 376M869 378L842 402M955 376L991 390M955 376L923 464M955 376L969 473M991 390L1070 395M991 390L969 473M991 390L1073 435M1070 395L1073 435M1167 360L1234 376M1234 376L1288 333M1234 376L1246 461M1234 376L1296 426M1288 333L1362 355M1362 355L1296 426M1362 355L1436 434M1518 373L1537 352M1518 373L1436 434M1518 373L1494 418M1518 373L1529 432M1537 352L1494 418M1537 352L1529 432M1658 352L1610 442M1755 326L1830 387M1755 326L1741 428M1830 387L1911 326M1830 387L1741 428M1830 387L1822 424M1830 387L1916 416M1911 326L1994 364M1911 326L1916 416M1994 364L2002 386M1994 364L1940 429M2002 386L1916 416M2002 386L1940 429M2002 386L2001 467M2139 375L2211 368M2139 375L2131 432M2139 375L2195 428M2139 375L2240 405M2211 368L2257 381M2211 368L2131 432M2211 368L2195 428M2211 368L2240 405M2257 381L2195 428M2257 381L2240 405M2368 322L2401 331M2368 322L2393 402M2401 331L2522 344M2401 331L2393 402M2522 344L2551 413M38 446L84 433M38 446L-9 413M38 446L71 493M38 446L-3 548M2598 446L2551 413M2598 446L2557 548M84 433L-9 413M84 433L71 493M2644 433L2551 413M210 428L237 515M320 446L369 420M320 446L237 515M320 446L339 535M369 420L465 432M465 432L481 425M465 432L458 528M481 425L567 439M481 425L458 528M481 425L520 522M567 439L520 522M567 439L638 484M567 439L645 490M693 407L638 484M693 407L645 490M783 465L842 402M783 465L778 540M783 465L840 532M842 402L923 464M923 464L969 473M923 464L883 558M923 464L1010 513M969 473L1010 513M969 473L1054 501M1073 435L1146 471M1073 435L1010 513M1073 435L1054 501M1146 471L1054 501M1146 471L1186 546M1246 461L1296 426M1246 461L1214 531M1246 461L1288 511M1296 426L1288 511M1436 434L1494 418M1436 434L1390 536M1494 418L1529 432M1529 432L1610 442M1529 432L1524 512M1610 442L1524 512M1610 442L1643 494M1741 428L1822 424M1741 428L1721 531M1741 428L1822 514M1822 424L1822 514M1916 416L1940 429M1916 416L2001 467M1940 429L2001 467M1940 429L2004 491M2001 467L1955 522M2001 467L2004 491M2131 432L2195 428M2131 432L2240 405M2131 432L2104 502M2195 428L2240 405M2393 402L2419 454M2393 402L2377 516M2419 454L2377 516M2419 454L2401 532M71 493L115 560M71 493L-3 548M2631 493L2557 548M115 560L121 584M115 560L199 617M115 560L53 643M237 515L259 560M237 515L339 535M237 515L317 568M259 560L339 535M259 560L199 617M259 560L317 568M259 560L346 592M339 535L317 568M339 535L346 592M458 528L520 522M458 528L539 574M520 522L539 574M520 522L587 570M638 484L645 490M638 484L587 570M645 490L587 570M778 540L840 532M778 540L883 558M778 540L720 577M778 540L742 626M840 532L883 558M840 532L720 577M883 558L873 639M883 558L936 607M1010 513L1054 501M1010 513L1083 568M1054 501L1083 568M1186 546L1214 531M1186 546L1135 580M1186 546L1221 563M1214 531L1288 511M1214 531L1135 580M1214 531L1221 563M1288 511L1390 536M1288 511L1221 563M1390 536L1342 589M1390 536L1425 574M1390 536L1461 619M1507 549L1524 512M1507 549L1425 574M1507 549L1461 619M1507 549L1569 628M1643 494L1721 531M1721 531L1822 514M1721 531L1693 637M1721 531L1799 613M1822 514L1902 508M1822 514L1799 613M1902 508L1955 522M1955 522L2004 491M1955 522L1968 581M1955 522L2019 605M2004 491L2104 502M2004 491L1968 581M2104 502L2223 515M2104 502L2140 595M2223 515L2250 544M2223 515L2140 595M2223 515L2175 603M2250 544L2175 603M2250 544L2311 581M2377 516L2401 532M2377 516L2311 581M2401 532L2311 581M2401 532L2363 624M2401 532L2469 624M2557 548L2590 623M2557 548L2482 600M-3 548L30 623M30 623L121 584M30 623L53 643M30 623L-71 655M2590 623L2489 655M121 584L199 617M121 584L53 643M199 617L189 677M199 617L292 686M317 568L346 592M317 568L346 647M346 592L429 637M346 592L346 647M429 637L346 647M429 637L443 656M429 637L493 698M429 637L402 728M539 574L587 570M539 574L581 657M587 570L581 657M720 577L742 626M720 577L683 675M720 577L785 657M742 626L683 675M742 626L785 657M742 626L818 690M873 639L936 607M873 639L818 690M873 639L902 680M873 639L976 643M936 607L1011 623M936 607L976 643M1011 623L1083 568M1011 623L976 643M1011 623L1098 711M1011 623L971 725M1083 568L1135 580M1083 568L1139 652M1135 580L1221 563M1135 580L1139 652M1342 589L1425 574M1342 589L1310 643M1342 589L1360 666M1425 574L1461 619M1425 574L1360 666M1461 619L1512 678M1569 628L1640 632M1569 628L1512 678M1569 628L1576 717M1640 632L1693 637M1640 632L1636 692M1640 632L1684 668M1640 632L1642 729M1693 637L1799 613M1693 637L1636 692M1693 637L1684 668M1799 613L1860 639M1799 613L1810 640M1860 639L1810 640M1860 639L1917 654M1860 639L1888 748M1968 581L2019 605M1968 581L1917 654M1968 581L1977 651M2019 605L1977 651M2140 595L2175 603M2140 595L2107 689M2140 595L2199 658M2175 603L2107 689M2175 603L2199 658M2311 581L2363 624M2311 581L2345 653M2363 624L2469 624M2363 624L2345 653M2363 624L2412 684M2469 624L2482 600M2469 624L2412 684M2469 624L2489 655M2482 600L2489 655M53 643L120 701M120 701L189 677M120 701L39 760M120 701L125 743M189 677L292 686M189 677L125 743M189 677L202 787M292 686L346 647M292 686L263 791M346 647L443 656M443 656L493 698M443 656L402 728M443 656L508 723M493 698L581 657M493 698L402 728M493 698L508 723M581 657L508 723M581 657L596 750M683 675L785 657M683 675L722 742M785 657L818 690M785 657L722 742M818 690L902 680M818 690L838 782M902 680L976 643M902 680L971 725M976 643L971 725M1098 711L1139 652M1098 711L1096 723M1098 711L1194 736M1139 652L1096 723M1139 652L1194 736M1271 699L1310 643M1271 699L1360 666M1271 699L1194 736M1271 699L1244 797M1310 643L1360 666M1512 678L1576 717M1512 678L1491 770M1512 678L1536 770M1576 717L1636 692M1576 717L1536 770M1576 717L1642 729M1636 692L1684 668M1636 692L1642 729M1684 668L1642 729M1684 668L1750 753M1810 640L1917 654M1810 640L1767 770M1917 654L1977 651M1917 654L1888 748M1977 651L2052 706M2052 706L2107 689M2052 706L1984 763M2052 706L2007 771M2052 706L2100 778M2107 689L2199 658M2107 689L2100 778M2199 658L2278 677M2199 658L2247 730M2278 677L2345 653M2278 677L2247 730M2345 653L2412 684M2412 684L2489 655M2412 684L2420 764M2489 655L2510 734M39 760L125 743M39 760L-50 734M39 760L16 849M2599 760L2510 734M125 743L202 787M125 743L150 862M202 787L263 791M202 787L150 862M202 787L220 858M263 791L220 858M263 791L308 880M389 787L402 728M389 787L372 865M389 787L414 843M508 723L596 750M508 723L510 828M596 750L662 767M596 750L595 834M662 767L722 742M662 767L595 834M662 767L687 862M662 767L733 837M722 742L733 837M838 782L915 769M838 782L873 819M915 769L971 725M915 769L873 819M915 769L922 872M915 769L970 828M1096 723L1194 736M1096 723L1055 843M1194 736L1244 797M1244 797L1335 784M1244 797L1163 839M1244 797L1266 815M1335 784L1427 792M1335 784L1266 815M1335 784L1315 877M1335 784L1325 885M1427 792L1491 770M1427 792L1424 863M1427 792L1454 818M1491 770L1536 770M1491 770L1454 818M1536 770L1454 818M1536 770L1577 858M1642 729L1750 753M1750 753L1767 770M1750 753L1717 820M1750 753L1795 825M1767 770L1888 748M1767 770L1717 820M1767 770L1795 825M1888 748L1984 763M1888 748L1795 825M1984 763L2007 771M2007 771L2100 778M2007 771L2044 859M2100 778L2044 859M2100 778L2167 834M2208 786L2247 730M2208 786L2167 834M2208 786L2269 869M2389 769L2420 764M2389 769L2351 832M2389 769L2414 833M2420 764L2351 832M2420 764L2414 833M2420 764L2492 801M2510 734L2492 801M16 849L-68 801M16 849L5 919M16 849L-66 893M2576 849L2492 801M2576 849L2494 893M150 862L220 858M150 862L131 895M150 862L198 940M220 858L308 880M220 858L198 940M308 880L372 865M308 880L317 937M308 880L365 899M372 865L414 843M372 865L365 899M372 865L432 912M414 843L510 828M414 843L365 899M414 843L432 912M510 828L595 834M510 828L501 947M595 834L687 862M595 834L580 936M687 862L733 837M687 862L699 898M687 862L773 901M733 837L699 898M733 837L773 901M873 819L922 872M873 819L970 828M873 819L940 882M922 872L970 828M922 872L940 882M922 872L977 955M970 828L1055 843M970 828L940 882M1055 843L1163 839M1055 843L1092 944M1163 839L1191 890M1266 815L1315 877M1266 815L1241 909M1266 815L1325 885M1315 877L1241 909M1315 877L1325 885M1424 863L1454 818M1424 863L1406 917M1424 863L1457 889M1454 818L1457 889M1577 858L1666 859M1577 858L1564 958M1666 859L1717 820M1666 859L1675 937M1666 859L1701 916M1717 820L1795 825M1717 820L1701 916M1795 825L1803 922M1910 880L1958 869M1910 880L1803 922M1910 880L1911 897M1910 880L1930 967M1958 869L2044 859M1958 869L1911 897M1958 869L1981 951M1958 869L2044 880M2044 859L2147 879M2044 859L2044 880M2147 879L2167 834M2147 879L2140 946M2147 879L2195 922M2167 834L2269 869M2269 869L2351 832M2269 869L2195 922M2269 869L2242 918M2351 832L2414 833M2414 833L2492 801M2492 801L2494 893M5 919L-66 893M5 919L43 986M5 919L-19 965M2565 919L2494 893M2565 919L2541 965M131 895L198 940M198 940L232 986M317 937L365 899M317 937L276 1036M317 937L341 1025M317 937L313 1041M365 899L432 912M432 912L501 947M501 947L580 936M501 947L448 1016M501 947L534 1017M580 936L589 1018M580 936L652 993M699 898L773 901M699 898L652 993M699 898L730 991M773 901L822 908M773 901L730 991M822 908L840 1019M940 882L977 955M940 882L936 969M977 955L936 969M977 955L985 964M1092 944L1066 1014M1092 944L1143 1035M1092 944L1131 1047M1191 890L1241 909M1241 909L1325 885M1241 909L1229 999M1325 885L1406 917M1406 917L1457 889M1406 917L1412 967M1406 917L1467 969M1457 889L1412 967M1457 889L1467 969M1564 958L1467 969M1564 958L1576 988M1564 958L1573 1075M1675 937L1701 916M1675 937L1576 988M1675 937L1671 960M1675 937L1733 970M1701 916L1671 960M1701 916L1733 970M1803 922L1733 970M1803 922L1784 1036M1911 897L1981 951M1911 897L1920 986M1911 897L1930 967M1981 951L1920 986M1981 951L1930 967M1981 951L2002 1034M2140 946L2195 922M2140 946L2242 918M2140 946L2088 1005M2140 946L2216 989M2195 922L2242 918M2195 922L2216 989M2242 918L2216 989M2344 959L2454 952M2344 959L2295 1000M2344 959L2385 1032M2344 959L2426 1005M2454 952L2494 893M2454 952L2426 1005M2454 952L2541 965M2494 893L2541 965M43 986L121 1035M43 986L-19 965M43 986L40 1055M43 986L-13 1089M2603 986L2541 965M2603 986L2547 1089M121 1035L40 1055M121 1035L97 1100M121 1035L208 1080M232 986L276 1036M232 986L208 1080M232 986L313 1041M276 1036L341 1025M276 1036L208 1080M276 1036L313 1041M341 1025L448 1016M341 1025L313 1041M341 1025L345 1120M448 1016L534 1017M448 1016L439 1086M448 1016L509 1069M534 1017L589 1018M534 1017L509 1069M534 1017L589 1076M589 1018L652 993M589 1018L589 1076M589 1018L645 1068M652 993L730 991M652 993L645 1068M730 991L745 1045M840 1019L745 1045M936 969L985 964M936 969L947 1074M985 964L990 1067M1066 1014L1143 1035M1066 1014L990 1067M1066 1014L1046 1074M1066 1014L1131 1047M1143 1035L1229 999M1143 1035L1131 1047M1229 999L1326 1037M1229 999L1131 1047M1326 1037L1412 967M1326 1037L1291 1117M1326 1037L1411 1086M1412 967L1467 969M1467 969L1446 1075M1576 988L1671 960M1576 988L1573 1075M1576 988L1641 1064M1671 960L1733 970M1671 960L1696 1046M1733 970L1784 1036M1784 1036L1696 1046M1784 1036L1787 1075M1784 1036L1759 1138M1920 986L1930 967M2002 1034L2088 1005M2002 1034L1991 1102M2002 1034L2061 1116M2002 1034L2092 1076M2088 1005L2092 1076M2216 989L2295 1000M2216 989L2223 1043M2295 1000L2385 1032M2295 1000L2223 1043M2295 1000L2320 1087M2385 1032L2426 1005M2385 1032L2320 1087M2385 1032L2410 1115M40 1055L97 1100M40 1055L-13 1089M40 1055L4 1121M2600 1055L2547 1089M97 1100L4 1121M97 1100L112 1173M97 1100L91 1202M208 1080L202 1171M313 1041L345 1120M345 1120L439 1086M345 1120L345 1173M345 1120L418 1132M439 1086L509 1069M439 1086L418 1132M439 1086L484 1160M509 1069L589 1076M509 1069L484 1160M589 1076L645 1068M589 1076L671 1130M645 1068L745 1045M645 1068L671 1130M745 1045L819 1118M745 1045L671 1130M819 1118L745 1190M819 1118L819 1169M819 1118L902 1141M819 1118L798 1212M947 1074L990 1067M947 1074L1046 1074M947 1074L902 1141M947 1074L971 1131M990 1067L1046 1074M990 1067L971 1131M1046 1074L1131 1047M1046 1074L971 1131M1238 1118L1291 1117M1238 1118L1188 1179M1238 1118L1215 1137M1238 1118L1308 1150M1238 1118L1231 1216M1291 1117L1411 1086M1291 1117L1215 1137M1291 1117L1308 1150M1411 1086L1446 1075M1411 1086L1404 1156M1411 1086L1444 1170M1446 1075L1404 1156M1446 1075L1444 1170M1446 1075L1532 1151M1573 1075L1641 1064M1573 1075L1532 1151M1573 1075L1640 1124M1641 1064L1696 1046M1641 1064L1640 1124M1696 1046L1787 1075M1696 1046L1640 1124M1787 1075L1759 1138M1787 1075L1865 1127M1910 1107L1991 1102M1910 1107L1823 1189M1910 1107L1865 1127M1910 1107L1950 1156M1991 1102L2061 1116M1991 1102L2092 1076M1991 1102L1950 1156M2061 1116L2092 1076M2061 1116L2041 1200M2061 1116L2146 1129M2092 1076L2146 1129M2223 1043L2271 1104M2223 1043L2320 1087M2223 1043L2190 1144M2271 1104L2320 1087M2271 1104L2190 1144M2271 1104L2280 1197M2320 1087L2410 1115M2410 1115L2357 1177M2410 1115L2451 1183M2410 1115L2488 1184M2547 1089L2564 1121M-13 1089L4 1121M4 1121L-72 1184M4 1121L23 1208M2564 1121L2488 1184M112 1173L202 1171M112 1173L23 1208M112 1173L91 1202M202 1171L261 1188M202 1171L91 1202M261 1188L345 1173M261 1188L202 1277M261 1188L241 1273M345 1173L418 1132M345 1173L355 1275M345 1173L427 1232M418 1132L484 1160M484 1160L427 1232M484 1160L531 1224M629 1165L671 1130M629 1165L531 1224M671 1130L745 1190M745 1190L819 1169M745 1190L701 1256M745 1190L798 1212M819 1169L902 1141M819 1169L798 1212M819 1169L837 1266M902 1141L971 1131M902 1141L923 1229M971 1131L923 1229M1105 1187L1188 1179M1105 1187L983 1246M1105 1187L1080 1202M1105 1187L1142 1271M1188 1179L1215 1137M1188 1179L1231 1216M1215 1137L1308 1150M1215 1137L1231 1216M1308 1150L1404 1156M1308 1150L1291 1254M1404 1156L1444 1170M1404 1156L1361 1236M1444 1170L1532 1151M1532 1151L1511 1264M1532 1151L1556 1205M1640 1124L1556 1205M1759 1138L1823 1189M1759 1138L1831 1205M1823 1189L1865 1127M1823 1189L1831 1205M1823 1189L1897 1232M1865 1127L1950 1156M1865 1127L1831 1205M1950 1156L2027 1204M2041 1200L1986 1264M2041 1200L2027 1204M2041 1200L2120 1256M2041 1200L2004 1292M2146 1129L2190 1144M2280 1197L2357 1177M2280 1197L2236 1267M2280 1197L2290 1250M2280 1197L2342 1266M2357 1177L2451 1183M2357 1177L2342 1266M2451 1183L2488 1184M2451 1183L2465 1270M2451 1183L2482 1263M2488 1184L2465 1270M2488 1184L2482 1263M23 1208L91 1202M23 1208L60 1297M91 1202L60 1297M202 1277L241 1273M202 1277L268 1312M202 1277L153 1361M241 1273L239 1358M241 1273L268 1312M241 1273L334 1293M355 1275L427 1232M355 1275L268 1312M355 1275L334 1293M355 1275L421 1320M427 1232L531 1224M427 1232L421 1320M531 1224L615 1266M531 1224L540 1298M615 1266L701 1256M615 1266L540 1298M615 1266L621 1330M615 1266L663 1304M701 1256L798 1212M701 1256L621 1330M701 1256L663 1304M798 1212L837 1266M837 1266L923 1229M837 1266L783 1337M923 1229L983 1246M923 1229L965 1314M983 1246L1080 1202M983 1246L965 1314M1080 1202L1142 1271M1142 1271L1092 1335M1142 1271L1165 1351M1142 1271L1227 1293M1231 1216L1291 1254M1231 1216L1227 1293M1291 1254L1361 1236M1291 1254L1227 1293M1291 1254L1323 1343M1361 1236L1406 1325M1511 1264L1556 1205M1511 1264L1481 1356M1511 1264L1536 1284M1556 1205L1536 1284M1556 1205L1619 1311M1675 1279L1719 1251M1675 1279L1536 1284M1675 1279L1619 1311M1675 1279L1701 1344M1675 1279L1781 1311M1719 1251L1701 1344M1719 1251L1781 1311M1831 1205L1897 1232M1831 1205L1781 1311M1897 1232L1986 1264M1897 1232L1900 1298M1897 1232L1925 1321M1986 1264L2027 1204M1986 1264L1925 1321M1986 1264L2004 1292M2027 1204L2120 1256M2027 1204L2004 1292M2120 1256L2145 1291M2120 1256L2220 1321M2236 1267L2290 1250M2236 1267L2145 1291M2236 1267L2220 1321M2236 1267L2309 1300M2290 1250L2342 1266M2290 1250L2309 1300M2290 1250L2348 1309M2342 1266L2309 1300M2342 1266L2348 1309M2465 1270L2482 1263M2465 1270L2465 1337M2465 1270L2494 1354M2482 1263L2465 1337M2482 1263L2494 1354M60 1297L85 1342M60 1297L25 1392M85 1342L25 1392M85 1342L153 1361M85 1342L202 1395M239 1358L268 1312M239 1358L153 1361M239 1358L202 1395M268 1312L334 1293M334 1293L421 1320M334 1293L355 1372M421 1320L355 1372M421 1320L404 1435M540 1298L621 1330M540 1298L663 1304M621 1330L663 1304M621 1330L606 1380M663 1304L606 1380M783 1337L848 1354M783 1337L797 1390M848 1354L924 1352M848 1354L797 1390M848 1354L841 1391M848 1354L892 1420M924 1352L965 1314M924 1352L841 1391M924 1352L892 1420M924 1352L1011 1419M1092 1335L1165 1351M1092 1335L1011 1419M1092 1335L1104 1360M1092 1335L1125 1412M1165 1351L1104 1360M1165 1351L1125 1412M1165 1351L1251 1373M1227 1293L1251 1373M1323 1343L1406 1325M1323 1343L1251 1373M1323 1343L1292 1408M1323 1343L1374 1438M1406 1325L1481 1356M1481 1356L1536 1284M1481 1356L1473 1410M1536 1284L1619 1311M1619 1311L1701 1344M1701 1344L1781 1311M1701 1344L1641 1425M1900 1298L1925 1321M1900 1298L2004 1292M1900 1298L1911 1414M1900 1298L1920 1362M1925 1321L2004 1292M1925 1321L1920 1362M2145 1291L2220 1321M2145 1291L2172 1382M2220 1321L2309 1300M2220 1321L2172 1382M2309 1300L2348 1309M2348 1309L2314 1410M2348 1309L2384 1384M2465 1337L2494 1354M2465 1337L2439 1375M2465 1337L2530 1400M2494 1354L2439 1375M2494 1354L2530 1400M25 1392L-30 1400M2585 1392L2530 1400M153 1361L202 1395M313 1424L355 1372M313 1424L404 1435M355 1372L404 1435M538 1427L606 1380M606 1380L692 1427M797 1390L841 1391M841 1391L892 1420M1011 1419L1104 1360M1104 1360L1125 1412M1251 1373L1292 1408M1292 1408L1374 1438M1473 1410L1562 1435M1562 1435L1641 1425M1641 1425L1760 1438M1760 1438L1797 1427M1797 1427L1911 1414M1911 1414L1920 1362M1911 1414L2000 1415M1920 1362L2000 1415M2000 1415L2113 1429M2113 1429L2172 1382M2314 1410L2384 1384M2384 1384L2439 1375M2439 1375L2530 1400"/></svg>