<svg xmlns="http://www.w3.org/2000/svg" width="2560" height="1440" fill="#fff"><circle cx="13" cy="60" r="6"/><circle cx="103" cy="52" r="6"/><circle cx="226" cy="26" r="5"/><circle cx="259" cy="57" r="5"/><circle cx="382" cy="42" r="5"/><circle cx="455" cy="47" r="5"/><circle cx="484" cy="62" r="6"/><circle cx="601" cy="67" r="5"/><circle cx="654" cy="79" r="5"/><circle cx="733" cy="18" r="4"/><circle cx="845" cy="53" r="5"/><circle cx="927" cy="77" r="5"/><circle cx="967" cy="27" r="4"/><circle cx="1119" cy="11" r="5"/><circle cx="1197" cy="3" r="6"/><circle cx="1197" cy="1443" r="6"/><circle cx="1221" cy="44" r="5"/><circle cx="1304" cy="58" r="4"/><circle cx="1415" cy="21" r="5"/><circle cx="1520" cy="59" r="4"/><circle cx="1580" cy="62" r="6"/><circle cx="1659" cy="49" r="5"/><circle cx="1748" cy="44" r="6"/><circle cx="1813" cy="75" r="5"/><circle cx="1905" cy="10" r="4"/><circle cx="1981" cy="36" r="5"/><circle cx="2069" cy="62" r="4"/><circle cx="2151" cy="75" r="5"/><circle cx="2203" cy="73" r="6"/><circle cx="2301" cy="41" r="5"/><circle cx="2357" cy="79" r="5"/><circle cx="2474" cy="19" r="5"/><circle cx="2537" cy="3" r="5"/><circle cx="2537" cy="1443" r="5"/><circle cx="46" cy="91" r="5"/><circle cx="80" cy="131" r="5"/><circle cx="190" cy="91" r="6"/><circle cx="315" cy="88" r="5"/><circle cx="330" cy="88" r="6"/><circle cx="464" cy="109" r="6"/><circle cx="516" cy="89" r="5"/><circle cx="589" cy="97" r="6"/><circle cx="698" cy="88" r="5"/><circle cx="793" cy="129" r="5"/><circle cx="846" cy="111" r="4"/><circle cx="882" cy="132" r="6"/><circle cx="1012" cy="153" r="5"/><circle cx="1101" cy="145" r="5"/><circle cx="1190" cy="155" r="5"/><circle cx="1201" cy="94" r="5"/><circle cx="1339" cy="153" r="4"/><circle cx="1411" cy="160" r="6"/><circle cx="1469" cy="86" r="5"/><circle cx="1528" cy="145" r="4"/><circle cx="1669" cy="138" r="5"/><circle cx="1756" cy="155" r="5"/><circle cx="1811" cy="153" r="5"/><circle cx="1870" cy="103" r="5"/><circle cx="1961" cy="88" r="6"/><circle cx="2077" cy="125" r="5"/><circle cx="2119" cy="82" r="6"/><circle cx="2236" cy="112" r="5"/><circle cx="2253" cy="109" r="4"/><circle cx="2344" cy="97" r="5"/><circle cx="2452" cy="156" r="6"/><circle cx="2526" cy="123" r="5"/><circle cx="16" cy="174" r="5"/><circle cx="134" cy="218" r="4"/><circle cx="234" cy="183" r="5"/><circle cx="292" cy="238" r="4"/><circle cx="345" cy="166" r="5"/><circle cx="401" cy="196" r="4"/><circle cx="515" cy="204" r="5"/><circle cx="623" cy="223" r="5"/><circle cx="647" cy="204" r="6"/><circle cx="748" cy="194" r="5"/><circle cx="869" cy="204" r="5"/><circle cx="928" cy="220" r="5"/><circle cx="1006" cy="224" r="4"/><circle cx="1080" cy="173" r="5"/><circle cx="1170" cy="173" r="5"/><circle cx="1262" cy="201" r="6"/><circle cx="1353" cy="230" r="5"/><circle cx="1427" cy="189" r="5"/><circle cx="1442" cy="169" r="4"/><circle cx="1562" cy="189" r="5"/><circle cx="1677" cy="195" r="5"/><circle cx="1757" cy="212" r="6"/><circle cx="1801" cy="225" r="4"/><circle cx="1890" cy="227" r="4"/><circle cx="1924" cy="225" r="4"/><circle cx="2076" cy="184" r="6"/><circle cx="2145" cy="164" r="5"/><circle cx="2201" cy="179" r="5"/><circle cx="2287" cy="166" r="6"/><circle cx="2390" cy="215" r="6"/><circle cx="2463" cy="230" r="6"/><circle cx="2495" cy="228" r="4"/><circle cx="1" cy="318" r="4"/><circle cx="2561" cy="318" r="4"/><circle cx="126" cy="318" r="4"/><circle cx="197" cy="257" r="5"/><circle cx="252" cy="274" r="4"/><circle cx="358" cy="263" r="5"/><circle cx="469" cy="318" r="4"/><circle cx="555" cy="293" r="4"/><circle cx="601" cy="258" r="6"/><circle cx="646" cy="289" r="6"/><circle cx="775" cy="299" r="6"/><circle cx="876" cy="315" r="5"/><circle cx="891" cy="277" r="6"/><circle cx="1007" cy="310" r="5"/><circle cx="1101" cy="303" r="5"/><circle cx="1169" cy="248" r="5"/><circle cx="1271" cy="258" r="4"/><circle cx="1360" cy="267" r="5"/><circle cx="1362" cy="303" r="6"/><circle cx="1477" cy="315" r="5"/><circle cx="1586" cy="288" r="4"/><circle cx="1605" cy="265" r="6"/><circle cx="1692" cy="293" r="5"/><circle cx="1783" cy="246" r="5"/><circle cx="1853" cy="258" r="4"/><circle cx="1942" cy="299" r="5"/><circle cx="2039" cy="271" r="5"/><circle cx="2135" cy="302" r="6"/><circle cx="2187" cy="256" r="4"/><circle cx="2292" cy="310" r="6"/><circle cx="2374" cy="270" r="4"/><circle cx="2476" cy="286" r="5"/><circle cx="2492" cy="272" r="5"/><circle cx="43" cy="326" r="6"/><circle cx="101" cy="325" r="5"/><circle cx="170" cy="385" r="5"/><circle cx="258" cy="322" r="5"/><circle cx="348" cy="322" r="5"/><circle cx="408" cy="367" r="5"/><circle cx="493" cy="376" r="5"/><circle cx="623" cy="347" r="4"/><circle cx="669" cy="377" r="5"/><circle cx="787" cy="367" r="4"/><circle cx="856" cy="356" r="6"/><circle cx="944" cy="327" r="5"/><circle cx="1017" cy="331" r="6"/><circle cx="1090" cy="363" r="6"/><circle cx="1163" cy="354" r="6"/><circle cx="1205" cy="389" r="5"/><circle cx="1357" cy="338" r="4"/><circle cx="1397" cy="393" r="4"/><circle cx="1489" cy="328" r="4"/><circle cx="1593" cy="381" r="5"/><circle cx="1606" cy="398" r="6"/><circle cx="1737" cy="396" r="5"/><circle cx="1780" cy="345" r="5"/><circle cx="1866" cy="372" r="5"/><circle cx="1942" cy="370" r="4"/><circle cx="2054" cy="346" r="6"/><circle cx="2116" cy="335" r="5"/><circle cx="2183" cy="392" r="4"/><circle cx="2272" cy="374" r="5"/><circle cx="2326" cy="390" r="4"/><circle cx="2447" cy="386" r="5"/><circle cx="2497" cy="386" r="6"/><circle cx="9" cy="464" r="6"/><circle cx="115" cy="417" r="5"/><circle cx="190" cy="464" r="5"/><circle cx="278" cy="478" r="6"/><circle cx="388" cy="419" r="6"/><circle cx="479" cy="423" r="5"/><circle cx="484" cy="401" r="5"/><circle cx="605" cy="479" r="5"/><circle cx="663" cy="422" r="5"/><circle cx="752" cy="459" r="4"/><circle cx="863" cy="407" r="4"/><circle cx="955" cy="441" r="4"/><circle cx="1029" cy="459" r="4"/><circle cx="1104" cy="475" r="4"/><circle cx="1153" cy="421" r="5"/><circle cx="1270" cy="453" r="6"/><circle cx="1356" cy="424" r="6"/><circle cx="1402" cy="475" r="6"/><circle cx="1452" cy="468" r="5"/><circle cx="1527" cy="477" r="6"/><circle cx="1612" cy="450" r="5"/><circle cx="1699" cy="435" r="5"/><circle cx="1832" cy="436" r="6"/><circle cx="1902" cy="465" r="4"/><circle cx="1954" cy="462" r="5"/><circle cx="2040" cy="471" r="6"/><circle cx="2150" cy="441" r="5"/><circle cx="2160" cy="412" r="5"/><circle cx="2270" cy="439" r="5"/><circle cx="2378" cy="438" r="5"/><circle cx="2430" cy="427" r="4"/><circle cx="2516" cy="430" r="5"/><circle cx="58" cy="512" r="5"/><circle cx="155" cy="543" r="6"/><circle cx="165" cy="534" r="5"/><circle cx="278" cy="553" r="5"/><circle cx="369" cy="550" r="4"/><circle cx="476" cy="542" r="4"/><circle cx="504" cy="493" r="5"/><circle cx="628" cy="536" r="5"/><circle cx="696" cy="553" r="6"/><circle cx="743" cy="490" r="5"/><circle cx="852" cy="510" r="5"/><circle cx="901" cy="539" r="4"/><circle cx="1014" cy="524" r="5"/><circle cx="1057" cy="533" r="4"/><circle cx="1159" cy="481" r="5"/><circle cx="1264" cy="547" r="5"/><circle cx="1318" cy="490" r="4"/><circle cx="1395" cy="551" r="5"/><circle cx="1500" cy="544" r="5"/><circle cx="1553" cy="538" r="5"/><circle cx="1670" cy="558" r="4"/><circle cx="1736" cy="486" r="4"/><circle cx="1825" cy="516" r="5"/><circle cx="1848" cy="483" r="5"/><circle cx="1944" cy="508" r="5"/><circle cx="2029" cy="548" r="4"/><circle cx="2108" cy="512" r="4"/><circle cx="2166" cy="508" r="4"/><circle cx="2310" cy="526" r="5"/><circle cx="2334" cy="514" r="4"/><circle cx="2472" cy="520" r="5"/><circle cx="2496" cy="490" r="4"/><circle cx="20" cy="622" r="5"/><circle cx="134" cy="611" r="5"/><circle cx="232" cy="566" r="5"/><circle cx="286" cy="560" r="5"/><circle cx="362" cy="572" r="6"/><circle cx="449" cy="596" r="4"/><circle cx="524" cy="597" r="6"/><circle cx="569" cy="623" r="5"/><circle cx="708" cy="590" r="5"/><circle cx="740" cy="571" r="4"/><circle cx="821" cy="589" r="5"/><circle cx="958" cy="598" r="4"/><circle cx="986" cy="632" r="6"/><circle cx="1120" cy="573" r="4"/><circle cx="1161" cy="620" r="4"/><circle cx="1203" cy="563" r="5"/><circle cx="1314" cy="574" r="4"/><circle cx="1385" cy="639" r="5"/><circle cx="1501" cy="624" r="6"/><circle cx="1525" cy="575" r="5"/><circle cx="1656" cy="571" r="6"/><circle cx="1730" cy="616" r="4"/><circle cx="1813" cy="563" r="5"/><circle cx="1907" cy="585" r="6"/><circle cx="1966" cy="640" r="5"/><circle cx="2037" cy="608" r="6"/><circle cx="2084" cy="624" r="4"/><circle cx="2233" cy="629" r="4"/><circle cx="2272" cy="637" r="4"/><circle cx="2347" cy="617" r="6"/><circle cx="2423" cy="613" r="4"/><circle cx="2523" cy="589" r="5"/><circle cx="75" cy="677" r="5"/><circle cx="90" cy="697" r="6"/><circle cx="213" cy="710" r="6"/><circle cx="289" cy="684" r="6"/><circle cx="372" cy="641" r="5"/><circle cx="436" cy="717" r="5"/><circle cx="559" cy="716" r="5"/><circle cx="584" cy="653" r="4"/><circle cx="709" cy="683" r="5"/><circle cx="799" cy="663" r="5"/><circle cx="839" cy="691" r="5"/><circle cx="881" cy="644" r="4"/><circle cx="985" cy="644" r="5"/><circle cx="1100" cy="688" r="4"/><circle cx="1140" cy="676" r="5"/><circle cx="1267" cy="700" r="4"/><circle cx="1287" cy="640" r="5"/><circle cx="1439" cy="644" r="6"/><circle cx="1516" cy="664" r="4"/><circle cx="1530" cy="720" r="5"/><circle cx="1626" cy="706" r="5"/><circle cx="1701" cy="685" r="4"/><circle cx="1823" cy="673" r="5"/><circle cx="1871" cy="684" r="6"/><circle cx="1983" cy="707" r="6"/><circle cx="2022" cy="652" r="5"/><circle cx="2137" cy="687" r="5"/><circle cx="2182" cy="659" r="6"/><circle cx="2291" cy="651" r="4"/><circle cx="2352" cy="650" r="5"/><circle cx="2407" cy="659" r="5"/><circle cx="2491" cy="713" r="5"/><circle cx="20" cy="740" r="6"/><circle cx="109" cy="778" r="4"/><circle cx="227" cy="792" r="4"/><circle cx="298" cy="720" r="5"/><circle cx="363" cy="790" r="5"/><circle cx="417" cy="760" r="6"/><circle cx="480" cy="796" r="5"/><circle cx="628" cy="728" r="5"/><circle cx="670" cy="767" r="4"/><circle cx="742" cy="738" r="4"/><circle cx="866" cy="738" r="5"/><circle cx="914" cy="759" r="4"/><circle cx="1031" cy="743" r="5"/><circle cx="1116" cy="768" r="5"/><circle cx="1132" cy="787" r="4"/><circle cx="1234" cy="796" r="4"/><circle cx="1353" cy="752" r="5"/><circle cx="1422" cy="753" r="4"/><circle cx="1458" cy="784" r="5"/><circle cx="1596" cy="738" r="5"/><circle cx="1652" cy="734" r="5"/><circle cx="1719" cy="755" r="5"/><circle cx="1784" cy="732" r="5"/><circle cx="1859" cy="742" r="5"/><circle cx="1934" cy="795" r="4"/><circle cx="2001" cy="791" r="6"/><circle cx="2117" cy="771" r="5"/><circle cx="2199" cy="752" r="5"/><circle cx="2243" cy="789" r="6"/><circle cx="2399" cy="725" r="5"/><circle cx="2474" cy="753" r="5"/><circle cx="2491" cy="785" r="5"/><circle cx="73" cy="810" r="6"/><circle cx="134" cy="831" r="6"/><circle cx="227" cy="845" r="4"/><circle cx="246" cy="863" r="5"/><circle cx="343" cy="865" r="4"/><circle cx="434" cy="846" r="4"/><circle cx="502" cy="804" r="5"/><circle cx="628" cy="836" r="6"/><circle cx="678" cy="848" r="6"/><circle cx="722" cy="827" r="4"/><circle cx="813" cy="855" r="5"/><circle cx="900" cy="813" r="6"/><circle cx="981" cy="849" r="5"/><circle cx="1105" cy="871" r="5"/><circle cx="1160" cy="817" r="5"/><circle cx="1211" cy="832" r="4"/><circle cx="1315" cy="826" r="4"/><circle cx="1382" cy="822" r="6"/><circle cx="1477" cy="813" r="4"/><circle cx="1567" cy="826" r="5"/><circle cx="1609" cy="827" r="4"/><circle cx="1750" cy="868" r="5"/><circle cx="1827" cy="844" r="6"/><circle cx="1906" cy="870" r="4"/><circle cx="1974" cy="809" r="5"/><circle cx="2017" cy="847" r="5"/><circle cx="2092" cy="802" r="6"/><circle cx="2191" cy="817" r="4"/><circle cx="2319" cy="839" r="5"/><circle cx="2324" cy="880" r="6"/><circle cx="2475" cy="834" r="5"/><circle cx="2505" cy="869" r="6"/><circle cx="16" cy="915" r="5"/><circle cx="88" cy="897" r="4"/><circle cx="161" cy="888" r="6"/><circle cx="260" cy="930" r="5"/><circle cx="350" cy="933" r="4"/><circle cx="438" cy="932" r="5"/><circle cx="550" cy="936" r="5"/><circle cx="572" cy="919" r="5"/><circle cx="660" cy="959" r="6"/><circle cx="752" cy="916" r="5"/><circle cx="868" cy="916" r="5"/><circle cx="951" cy="948" r="5"/><circle cx="974" cy="919" r="5"/><circle cx="1105" cy="894" r="5"/><circle cx="1128" cy="886" r="4"/><circle cx="1277" cy="914" r="5"/><circle cx="1357" cy="952" r="5"/><circle cx="1398" cy="957" r="6"/><circle cx="1468" cy="930" r="4"/><circle cx="1593" cy="904" r="5"/><circle cx="1678" cy="920" r="5"/><circle cx="1683" cy="931" r="5"/><circle cx="1772" cy="927" r="4"/><circle cx="1871" cy="940" r="5"/><circle cx="1989" cy="936" r="4"/><circle cx="2030" cy="919" r="5"/><circle cx="2089" cy="884" r="6"/><circle cx="2161" cy="939" r="4"/><circle cx="2291" cy="884" r="6"/><circle cx="2341" cy="917" r="4"/><circle cx="2469" cy="890" r="5"/><circle cx="2557" cy="896" r="5"/><circle cx="-3" cy="896" r="5"/><circle cx="2" cy="1013" r="5"/><circle cx="2562" cy="1013" r="5"/><circle cx="155" cy="974" r="5"/><circle cx="171" cy="979" r="5"/><circle cx="292" cy="977" r="5"/><circle cx="356" cy="993" r="5"/><circle cx="460" cy="989" r="6"/><circle cx="491" cy="995" r="6"/><circle cx="613" cy="963" r="5"/><circle cx="657" cy="1035" r="6"/><circle cx="721" cy="1027" r="5"/><circle cx="865" cy="1013" r="6"/><circle cx="886" cy="985" r="5"/><circle cx="990" cy="1026" r="5"/><circle cx="1064" cy="1017" r="6"/><circle cx="1150" cy="1016" r="4"/><circle cx="1213" cy="1014" r="5"/><circle cx="1344" cy="1005" r="6"/><circle cx="1419" cy="1012" r="5"/><circle cx="1499" cy="969" r="6"/><circle cx="1539" cy="1036" r="5"/><circle cx="1650" cy="962" r="6"/><circle cx="1753" cy="1002" r="5"/><circle cx="1829" cy="968" r="4"/><circle cx="1861" cy="1010" r="5"/><circle cx="1920" cy="972" r="5"/><circle cx="2023" cy="1006" r="5"/><circle cx="2126" cy="971" r="5"/><circle cx="2167" cy="964" r="5"/><circle cx="2290" cy="970" r="6"/><circle cx="2372" cy="980" r="6"/><circle cx="2470" cy="1038" r="5"/><circle cx="2513" cy="1006" r="5"/><circle cx="25" cy="1061" r="4"/><circle cx="139" cy="1112" r="4"/><circle cx="162" cy="1068" r="4"/><circle cx="305" cy="1098" r="5"/><circle cx="359" cy="1066" r="5"/><circle cx="473" cy="1092" r="5"/><circle cx="538" cy="1095" r="6"/><circle cx="632" cy="1085" r="6"/><circle cx="677" cy="1044" r="6"/><circle cx="776" cy="1094" r="6"/><circle cx="878" cy="1119" r="5"/><circle cx="907" cy="1043" r="5"/><circle cx="1011" cy="1097" r="4"/><circle cx="1114" cy="1060" r="6"/><circle cx="1166" cy="1111" r="5"/><circle cx="1206" cy="1097" r="4"/><circle cx="1354" cy="1088" r="6"/><circle cx="1437" cy="1052" r="5"/><circle cx="1453" cy="1102" r="4"/><circle cx="1542" cy="1117" r="4"/><circle cx="1673" cy="1061" r="5"/><circle cx="1717" cy="1087" r="6"/><circle cx="1775" cy="1063" r="5"/><circle cx="1917" cy="1100" r="4"/><circle cx="1928" cy="1071" r="4"/><circle cx="2036" cy="1086" r="5"/><circle cx="2094" cy="1098" r="5"/><circle cx="2160" cy="1083" r="4"/><circle cx="2242" cy="1113" r="5"/><circle cx="2385" cy="1110" r="6"/><circle cx="2478" cy="1094" r="6"/><circle cx="2499" cy="1044" r="5"/><circle cx="57" cy="1158" r="5"/><circle cx="103" cy="1148" r="5"/><circle cx="167" cy="1182" r="6"/><circle cx="313" cy="1144" r="5"/><circle cx="389" cy="1198" r="5"/><circle cx="473" cy="1190" r="4"/><circle cx="519" cy="1154" r="6"/><circle cx="581" cy="1134" r="4"/><circle cx="709" cy="1175" r="6"/><circle cx="785" cy="1145" r="6"/><circle cx="834" cy="1161" r="5"/><circle cx="913" cy="1192" r="4"/><circle cx="1007" cy="1124" r="5"/><circle cx="1076" cy="1131" r="5"/><circle cx="1175" cy="1174" r="4"/><circle cx="1235" cy="1166" r="5"/><circle cx="1330" cy="1171" r="6"/><circle cx="1361" cy="1199" r="6"/><circle cx="1507" cy="1152" r="5"/><circle cx="1579" cy="1196" r="4"/><circle cx="1642" cy="1157" r="4"/><circle cx="1741" cy="1121" r="4"/><circle cx="1772" cy="1125" r="6"/><circle cx="1920" cy="1141" r="6"/><circle cx="1994" cy="1129" r="5"/><circle cx="2009" cy="1130" r="6"/><circle cx="2132" cy="1166" r="6"/><circle cx="2160" cy="1166" r="5"/><circle cx="2244" cy="1144" r="5"/><circle cx="2335" cy="1122" r="5"/><circle cx="2415" cy="1197" r="4"/><circle cx="2533" cy="1200" r="4"/><circle cx="60" cy="1266" r="4"/><circle cx="146" cy="1211" r="5"/><circle cx="211" cy="1221" r="6"/><circle cx="315" cy="1275" r="6"/><circle cx="348" cy="1256" r="4"/><circle cx="412" cy="1244" r="6"/><circle cx="533" cy="1277" r="4"/><circle cx="628" cy="1244" r="5"/><circle cx="655" cy="1216" r="4"/><circle cx="779" cy="1243" r="6"/><circle cx="833" cy="1237" r="6"/><circle cx="957" cy="1279" r="5"/><circle cx="1032" cy="1210" r="6"/><circle cx="1066" cy="1205" r="5"/><circle cx="1196" cy="1202" r="5"/><circle cx="1205" cy="1262" r="4"/><circle cx="1355" cy="1201" r="5"/><circle cx="1417" cy="1224" r="5"/><circle cx="1445" cy="1267" r="6"/><circle cx="1594" cy="1227" r="6"/><circle cx="1673" cy="1235" r="5"/><circle cx="1721" cy="1209" r="4"/><circle cx="1779" cy="1246" r="5"/><circle cx="1852" cy="1200" r="5"/><circle cx="1948" cy="1235" r="5"/><circle cx="2055" cy="1262" r="6"/><circle cx="2083" cy="1239" r="6"/><circle cx="2216" cy="1214" r="5"/><circle cx="2246" cy="1260" r="5"/><circle cx="2383" cy="1246" r="5"/><circle cx="2448" cy="1207" r="5"/><circle cx="2520" cy="1249" r="6"/><circle cx="26" cy="1306" r="6"/><circle cx="99" cy="1300" r="5"/><circle cx="229" cy="1359" r="4"/><circle cx="295" cy="1334" r="5"/><circle cx="331" cy="1292" r="5"/><circle cx="442" cy="1294" r="6"/><circle cx="519" cy="1350" r="5"/><circle cx="638" cy="1349" r="5"/><circle cx="717" cy="1351" r="5"/><circle cx="727" cy="1337" r="6"/><circle cx="838" cy="1309" r="6"/><circle cx="952" cy="1280" r="4"/><circle cx="965" cy="1306" r="6"/><circle cx="1116" cy="1341" r="5"/><circle cx="1186" cy="1319" r="4"/><circle cx="1216" cy="1327" r="5"/><circle cx="1309" cy="1339" r="5"/><circle cx="1412" cy="1295" r="5"/><circle cx="1455" cy="1304" r="6"/><circle cx="1579" cy="1346" r="5"/><circle cx="1653" cy="1346" r="5"/><circle cx="1702" cy="1281" r="6"/><circle cx="1840" cy="1326" r="5"/><circle cx="1865" cy="1321" r="4"/><circle cx="1962" cy="1313" r="6"/><circle cx="2063" cy="1330" r="5"/><circle cx="2082" cy="1344" r="4"/><circle cx="2174" cy="1323" r="6"/><circle cx="2280" cy="1334" r="5"/><circle cx="2361" cy="1354" r="5"/><circle cx="2405" cy="1342" r="5"/><circle cx="2502" cy="1329" r="6"/><circle cx="2" cy="1427" r="6"/><circle cx="2562" cy="1427" r="6"/><circle cx="127" cy="1423" r="6"/><circle cx="164" cy="1419" r="5"/><circle cx="291" cy="1361" r="6"/><circle cx="357" cy="1365" r="5"/><circle cx="414" cy="1418" r="5"/><circle cx="531" cy="1402" r="5"/><circle cx="609" cy="1390" r="5"/><circle cx="683" cy="1432" r="5"/><circle cx="734" cy="1405" r="5"/><circle cx="870" cy="1424" r="5"/><circle cx="891" cy="1425" r="4"/><circle cx="990" cy="1413" r="4"/><circle cx="1101" cy="1385" r="4"/><circle cx="1194" cy="1400" r="5"/><circle cx="1233" cy="1362" r="4"/><circle cx="1288" cy="1402" r="5"/><circle cx="1379" cy="1428" r="5"/><circle cx="1444" cy="1379" r="5"/><circle cx="1553" cy="1412" r="5"/><circle cx="1667" cy="1433" r="5"/><circle cx="1734" cy="1364" r="4"/><circle cx="1786" cy="1375" r="4"/><circle cx="1895" cy="1369" r="6"/><circle cx="1957" cy="1394" r="5"/><circle cx="2079" cy="1427" r="6"/><circle cx="2140" cy="1371" r="6"/><circle cx="2171" cy="1403" r="4"/><circle cx="2295" cy="1419" r="4"/><circle cx="2369" cy="1431" r="5"/><circle cx="2452" cy="1400" r="5"/><circle cx="2484" cy="1418" r="5"/><path stroke="#fff" d="M13 60L103 52M13 60L-23 3M13 60L46 91M13 60L-34 123M13 60L2 -13M2573 60L2537 3M2573 60L2526 123M13 1500L2 1427M103 52L46 91M103 52L80 131M103 52L190 91M103 52L127 -17M103 1492L127 1423M226 26L259 57M226 26L190 91M226 26L315 88M226 26L127 -17M226 26L164 -21M226 1466L127 1423M226 1466L164 1419M259 57L190 91M259 57L315 88M259 57L330 88M382 42L455 47M382 42L484 62M382 42L315 88M382 42L330 88M382 42L414 -22M382 1482L414 1418M455 47L484 62M455 47L464 109M455 47L516 89M455 47L414 -22M455 1487L414 1418M484 62L464 109M484 62L516 89M484 62L589 97M601 67L654 79M601 67L516 89M601 67L589 97M654 79L733 18M654 79L589 97M654 79L698 88M654 79L683 -8M654 1519L683 1432M733 18L698 88M733 18L683 -8M733 18L734 -35M733 1458L683 1432M733 1458L734 1405M845 53L927 77M845 53L793 129M845 53L846 111M845 53L882 132M845 53L870 -16M845 1493L870 1424M927 77L967 27M927 77L846 111M927 77L882 132M927 77L891 -15M927 1517L891 1425M967 27L870 -16M967 27L891 -15M967 27L990 -27M967 1467L870 1424M967 1467L891 1425M967 1467L990 1413M1119 11L1197 3M1119 11L1116 -99M1119 11L1101 -55M1119 1451L1116 1341M1119 1451L1101 1385M1197 3L1221 44M1197 3L1201 94M1197 3L1194 -40M1197 3L1233 -78M1197 1443L1194 1400M1197 1443L1233 1362M1221 44L1304 58M1221 44L1201 94M1221 44L1194 -40M1221 44L1288 -38M1221 1484L1194 1400M1221 1484L1288 1402M1304 58L1339 153M1304 58L1288 -38M1304 58L1379 -12M1304 1498L1288 1402M1304 1498L1379 1428M1415 21L1520 59M1415 21L1469 86M1415 21L1379 -12M1415 21L1444 -61M1415 1461L1379 1428M1415 1461L1444 1379M1520 59L1580 62M1520 59L1469 86M1520 59L1528 145M1520 59L1553 -28M1520 1499L1553 1412M1580 62L1659 49M1580 62L1528 145M1580 62L1553 -28M1580 1502L1553 1412M1659 49L1748 44M1659 49L1669 138M1659 49L1667 -7M1659 1489L1667 1433M1748 44L1813 75M1748 44L1667 -7M1748 44L1786 -65M1748 1484L1667 1433M1748 1484L1786 1375M1813 75L1811 153M1813 75L1870 103M1905 10L1981 36M1905 10L1870 103M1905 10L1961 88M1905 10L1895 -71M1905 10L1957 -46M1905 1450L1895 1369M1905 1450L1957 1394M1981 36L2069 62M1981 36L1961 88M1981 36L1957 -46M1981 1476L1957 1394M2069 62L2151 75M2069 62L2077 125M2069 62L2119 82M2069 62L2079 -13M2069 1502L2079 1427M2151 75L2203 73M2151 75L2077 125M2151 75L2119 82M2151 75L2145 164M2203 73L2119 82M2203 73L2236 112M2203 73L2253 109M2301 41L2357 79M2301 41L2253 109M2301 41L2344 97M2301 41L2295 -21M2301 41L2369 -9M2301 1481L2295 1419M2301 1481L2369 1431M2357 79L2344 97M2357 79L2452 156M2357 79L2369 -9M2357 1519L2369 1431M2474 19L2537 3M2474 19L2562 -13M2474 19L2452 -40M2474 19L2484 -22M-86 19L2 -13M-86 1459L2 1427M2474 1459L2562 1427M2474 1459L2452 1400M2474 1459L2484 1418M2537 3L2562 -13M2537 3L2484 -22M-23 3L2 -13M-23 1443L2 1427M2537 1443L2562 1427M2537 1443L2484 1418M46 91L80 131M46 91L-34 123M46 91L16 174M2606 91L2526 123M80 131L16 174M80 131L134 218M190 91L234 183M190 91L127 -17M190 1531L127 1423M315 88L330 88M315 88L345 166M330 88L345 166M464 109L516 89M464 109L401 196M464 109L515 204M516 89L589 97M589 97L698 88M698 88L793 129M793 129L846 111M793 129L882 132M793 129L748 194M846 111L882 132M846 111L869 204M882 132L869 204M1012 153L1101 145M1012 153L928 220M1012 153L1006 224M1012 153L1080 173M1101 145L1190 155M1101 145L1080 173M1101 145L1170 173M1190 155L1201 94M1190 155L1170 173M1190 155L1262 201M1190 155L1169 248M1201 94L1170 173M1339 153L1411 160M1339 153L1262 201M1339 153L1353 230M1339 153L1427 189M1411 160L1469 86M1411 160L1353 230M1411 160L1427 189M1411 160L1442 169M1469 86L1528 145M1469 86L1442 169M1528 145L1442 169M1528 145L1562 189M1669 138L1756 155M1669 138L1562 189M1669 138L1677 195M1756 155L1811 153M1756 155L1677 195M1756 155L1757 212M1756 155L1801 225M1811 153L1870 103M1811 153L1757 212M1811 153L1801 225M1870 103L1961 88M2077 125L2119 82M2077 125L2076 184M2077 125L2145 164M2119 82L2145 164M2236 112L2253 109M2236 112L2201 179M2236 112L2287 166M2253 109L2201 179M2253 109L2287 166M2344 97L2287 166M2452 156L2526 123M2452 156L2390 215M2452 156L2463 230M2452 156L2495 228M2526 123L2576 174M-34 123L16 174M16 174L-65 228M2576 174L2495 228M134 218L234 183M134 218L197 257M234 183L292 238M234 183L197 257M234 183L252 274M292 238L345 166M292 238L252 274M292 238L358 263M292 238L258 322M345 166L401 196M345 166L358 263M401 196L515 204M401 196L358 263M515 204L623 223M515 204L555 293M623 223L647 204M623 223L601 258M623 223L646 289M647 204L748 194M647 204L601 258M647 204L646 289M748 194L775 299M869 204L928 220M869 204L891 277M928 220L1006 224M928 220L891 277M928 220L944 327M1006 224L1080 173M1006 224L1007 310M1006 224L1017 331M1170 173L1262 201M1170 173L1169 248M1262 201L1271 258M1353 230L1427 189M1353 230L1360 267M1353 230L1362 303M1427 189L1442 169M1427 189L1360 267M1562 189L1586 288M1562 189L1605 265M1677 195L1757 212M1677 195L1605 265M1677 195L1692 293M1757 212L1801 225M1757 212L1783 246M1801 225L1783 246M1801 225L1853 258M1890 227L1924 225M1890 227L1853 258M1890 227L1942 299M1924 225L1853 258M1924 225L1942 299M2076 184L2145 164M2076 184L2039 271M2145 164L2201 179M2201 179L2287 166M2201 179L2187 256M2287 166L2390 215M2390 215L2463 230M2390 215L2374 270M2463 230L2495 228M2463 230L2476 286M2463 230L2492 272M2495 228L2476 286M2495 228L2492 272M1 318L-68 272M1 318L43 326M1 318L101 325M1 318L-63 386M2561 318L2492 272M2561 318L2497 386M126 318L197 257M126 318L43 326M126 318L101 325M126 318L170 385M126 318L115 417M197 257L252 274M197 257L258 322M252 274L258 322M358 263L348 322M469 318L555 293M469 318L408 367M469 318L493 376M469 318L479 423M469 318L484 401M555 293L601 258M555 293L623 347M601 258L646 289M601 258L623 347M646 289L623 347M646 289L669 377M775 299L876 315M775 299L787 367M775 299L856 356M876 315L891 277M876 315L856 356M876 315L944 327M876 315L863 407M891 277L856 356M891 277L944 327M1007 310L1101 303M1007 310L944 327M1007 310L1017 331M1007 310L1090 363M1101 303L1169 248M1101 303L1017 331M1101 303L1090 363M1101 303L1163 354M1169 248L1271 258M1169 248L1163 354M1271 258L1360 267M1271 258L1362 303M1360 267L1362 303M1360 267L1357 338M1362 303L1357 338M1362 303L1397 393M1477 315L1489 328M1586 288L1605 265M1586 288L1593 381M1586 288L1606 398M1605 265L1692 293M1605 265L1593 381M1692 293L1783 246M1692 293L1737 396M1692 293L1780 345M1783 246L1853 258M1783 246L1780 345M1853 258L1942 299M1942 299L2039 271M1942 299L1942 370M2039 271L2135 302M2039 271L2054 346M2039 271L2116 335M2135 302L2187 256M2135 302L2054 346M2135 302L2116 335M2135 302L2183 392M2187 256L2292 310M2292 310L2374 270M2292 310L2272 374M2292 310L2326 390M2476 286L2492 272M2476 286L2447 386M43 326L101 325M101 325L170 385M101 325L115 417M170 385L258 322M170 385L115 417M170 385L190 464M258 322L348 322M348 322L408 367M348 322L388 419M408 367L493 376M408 367L388 419M408 367L484 401M493 376L479 423M493 376L484 401M623 347L669 377M623 347L663 422M669 377L605 479M669 377L663 422M787 367L856 356M787 367L752 459M787 367L863 407M856 356L863 407M944 327L1017 331M1017 331L1090 363M1090 363L1163 354M1090 363L1153 421M1163 354L1205 389M1163 354L1153 421M1205 389L1153 421M1205 389L1270 453M1205 389L1159 481M1357 338L1397 393M1357 338L1356 424M1397 393L1356 424M1397 393L1402 475M1397 393L1452 468M1593 381L1606 398M1593 381L1612 450M1606 398L1612 450M1606 398L1699 435M1737 396L1780 345M1737 396L1699 435M1737 396L1832 436M1737 396L1736 486M1780 345L1866 372M1866 372L1942 370M1866 372L1832 436M1942 370L2054 346M1942 370L1954 462M2054 346L2116 335M2054 346L2040 471M2116 335L2183 392M2116 335L2160 412M2183 392L2272 374M2183 392L2150 441M2183 392L2160 412M2272 374L2326 390M2272 374L2160 412M2272 374L2270 439M2326 390L2270 439M2326 390L2378 438M2447 386L2497 386M2447 386L2378 438M2447 386L2430 427M2447 386L2516 430M2497 386L2569 464M2497 386L2430 427M2497 386L2516 430M-63 386L9 464M9 464L-44 430M9 464L58 512M9 464L-64 490M2569 464L2516 430M2569 464L2496 490M115 417L190 464M115 417L58 512M190 464L278 478M190 464L155 543M190 464L165 534M278 478L388 419M278 478L278 553M278 478L232 566M278 478L286 560M388 419L479 423M388 419L484 401M479 423L484 401M479 423L504 493M605 479L663 422M605 479L504 493M605 479L628 536M605 479L696 553M663 422L752 459M663 422L743 490M752 459L743 490M752 459L852 510M863 407L955 441M863 407L852 510M955 441L1029 459M955 441L1014 524M1029 459L1104 475M1029 459L1014 524M1029 459L1057 533M1104 475L1153 421M1104 475L1057 533M1104 475L1159 481M1153 421L1159 481M1270 453L1356 424M1270 453L1159 481M1270 453L1264 547M1270 453L1318 490M1356 424L1402 475M1356 424L1318 490M1402 475L1452 468M1402 475L1318 490M1402 475L1395 551M1452 468L1527 477M1452 468L1395 551M1452 468L1500 544M1527 477L1612 450M1527 477L1500 544M1527 477L1553 538M1527 477L1525 575M1612 450L1699 435M1699 435L1736 486M1832 436L1902 465M1832 436L1825 516M1832 436L1848 483M1902 465L1954 462M1902 465L1825 516M1902 465L1848 483M1902 465L1944 508M1954 462L2040 471M1954 462L1944 508M2040 471L1944 508M2040 471L2029 548M2040 471L2108 512M2150 441L2160 412M2150 441L2108 512M2150 441L2166 508M2160 412L2166 508M2270 439L2310 526M2270 439L2334 514M2378 438L2430 427M2378 438L2310 526M2378 438L2334 514M2430 427L2516 430M2430 427L2496 490M2516 430L2496 490M58 512L155 543M58 512L165 534M155 543L165 534M155 543L134 611M155 543L232 566M165 534L134 611M165 534L232 566M278 553L369 550M278 553L232 566M278 553L286 560M278 553L362 572M369 550L286 560M369 550L362 572M369 550L449 596M369 550L372 641M476 542L504 493M476 542L449 596M476 542L524 597M504 493L524 597M628 536L696 553M628 536L569 623M628 536L708 590M696 553L743 490M696 553L708 590M696 553L740 571M743 490L708 590M743 490L740 571M852 510L901 539M852 510L821 589M901 539L958 598M1014 524L1057 533M1014 524L958 598M1014 524L986 632M1057 533L1120 573M1159 481L1203 563M1264 547L1318 490M1264 547L1203 563M1264 547L1314 574M1264 547L1287 640M1318 490L1314 574M1395 551L1314 574M1395 551L1385 639M1395 551L1439 644M1500 544L1553 538M1500 544L1501 624M1500 544L1525 575M1553 538L1525 575M1553 538L1656 571M1670 558L1736 486M1670 558L1656 571M1670 558L1730 616M1736 486L1825 516M1736 486L1656 571M1825 516L1848 483M1825 516L1813 563M1848 483L1944 508M1848 483L1813 563M1944 508L1907 585M2029 548L2108 512M2029 548L2037 608M2029 548L2084 624M2029 548L2022 652M2108 512L2166 508M2310 526L2334 514M2472 520L2496 490M2472 520L2423 613M2472 520L2523 589M2496 490L2523 589M20 622L-37 589M20 622L75 677M20 622L90 697M2580 622L2523 589M134 611L75 677M134 611L90 697M232 566L286 560M286 560L362 572M362 572L449 596M362 572L372 641M449 596L524 597M449 596L372 641M524 597L569 623M524 597L584 653M569 623L559 716M569 623L584 653M708 590L740 571M708 590L709 683M740 571L821 589M821 589L799 663M821 589L839 691M821 589L881 644M958 598L986 632M958 598L881 644M958 598L985 644M986 632L881 644M986 632L985 644M986 632L1031 743M1120 573L1161 620M1120 573L1203 563M1120 573L1140 676M1161 620L1203 563M1161 620L1100 688M1161 620L1140 676M1203 563L1287 640M1314 574L1385 639M1314 574L1287 640M1385 639L1287 640M1385 639L1439 644M1501 624L1525 575M1501 624L1439 644M1501 624L1516 664M1501 624L1530 720M1525 575L1516 664M1656 571L1730 616M1730 616L1813 563M1730 616L1701 685M1730 616L1823 673M1813 563L1907 585M1813 563L1823 673M1907 585L1966 640M1907 585L1871 684M1966 640L2037 608M1966 640L1871 684M1966 640L1983 707M1966 640L2022 652M2037 608L2084 624M2037 608L2022 652M2084 624L2022 652M2084 624L2137 687M2084 624L2182 659M2233 629L2272 637M2233 629L2182 659M2233 629L2291 651M2272 637L2347 617M2272 637L2182 659M2272 637L2291 651M2272 637L2352 650M2347 617L2423 613M2347 617L2291 651M2347 617L2352 650M2347 617L2407 659M2423 613L2523 589M2423 613L2352 650M2423 613L2407 659M75 677L90 697M75 677L20 740M75 677L109 778M90 697L20 740M90 697L109 778M213 710L289 684M213 710L227 792M213 710L298 720M289 684L372 641M289 684L298 720M372 641L436 717M436 717L363 790M436 717L417 760M436 717L480 796M436 717L502 804M559 716L584 653M559 716L480 796M559 716L628 728M559 716L502 804M584 653L628 728M709 683L799 663M709 683L628 728M709 683L742 738M799 663L839 691M799 663L881 644M799 663L742 738M839 691L881 644M839 691L866 738M839 691L914 759M985 644L1031 743M1100 688L1140 676M1100 688L1031 743M1100 688L1116 768M1140 676L1116 768M1267 700L1287 640M1267 700L1234 796M1267 700L1353 752M1439 644L1516 664M1516 664L1530 720M1530 720L1626 706M1530 720L1458 784M1530 720L1596 738M1626 706L1701 685M1626 706L1596 738M1626 706L1652 734M1626 706L1719 755M1701 685L1652 734M1701 685L1719 755M1701 685L1784 732M1823 673L1871 684M1823 673L1784 732M1823 673L1859 742M1871 684L1784 732M1871 684L1859 742M1983 707L2022 652M1983 707L1934 795M1983 707L2001 791M1983 707L1974 809M2137 687L2182 659M2137 687L2117 771M2137 687L2199 752M2182 659L2199 752M2291 651L2352 650M2352 650L2407 659M2407 659L2491 713M2407 659L2399 725M2491 713L2580 740M2491 713L2399 725M2491 713L2474 753M2491 713L2491 785M-69 713L20 740M20 740L-69 785M20 740L73 810M2580 740L2491 785M109 778L73 810M109 778L134 831M227 792L298 720M227 792L227 845M227 792L246 863M298 720L363 790M363 790L417 760M363 790L343 865M363 790L434 846M417 760L480 796M417 760L434 846M417 760L502 804M480 796L434 846M480 796L502 804M628 728L670 767M628 728L628 836M670 767L742 738M670 767L628 836M670 767L678 848M670 767L722 827M866 738L914 759M866 738L900 813M914 759L900 813M914 759L981 849M1031 743L1116 768M1116 768L1132 787M1116 768L1160 817M1132 787L1105 871M1132 787L1160 817M1132 787L1211 832M1132 787L1128 886M1234 796L1211 832M1234 796L1315 826M1353 752L1422 753M1353 752L1458 784M1353 752L1315 826M1353 752L1382 822M1422 753L1458 784M1422 753L1382 822M1422 753L1477 813M1458 784L1382 822M1458 784L1477 813M1596 738L1652 734M1596 738L1567 826M1596 738L1609 827M1652 734L1719 755M1652 734L1609 827M1719 755L1784 732M1719 755L1750 868M1784 732L1859 742M1859 742L1934 795M1859 742L1827 844M1934 795L2001 791M1934 795L1906 870M1934 795L1974 809M2001 791L1974 809M2001 791L2017 847M2001 791L2092 802M2117 771L2199 752M2117 771L2092 802M2117 771L2191 817M2199 752L2243 789M2199 752L2191 817M2243 789L2191 817M2243 789L2319 839M2243 789L2291 884M2399 725L2474 753M2474 753L2491 785M2474 753L2475 834M2491 785L2475 834M2491 785L2505 869M73 810L134 831M73 810L88 897M134 831L227 845M134 831L88 897M134 831L161 888M227 845L246 863M227 845L161 888M227 845L260 930M246 863L343 865M246 863L161 888M246 863L260 930M343 865L350 933M434 846L502 804M434 846L438 932M628 836L678 848M628 836L722 827M628 836L572 919M678 848L722 827M678 848L752 916M722 827L813 855M722 827L752 916M813 855L900 813M813 855L752 916M813 855L868 916M900 813L981 849M900 813L868 916M981 849L974 919M1105 871L1160 817M1105 871L1105 894M1105 871L1128 886M1160 817L1211 832M1160 817L1128 886M1211 832L1128 886M1211 832L1277 914M1315 826L1382 822M1315 826L1277 914M1382 822L1477 813M1477 813L1567 826M1567 826L1609 827M1567 826L1593 904M1609 827L1593 904M1750 868L1827 844M1750 868L1678 920M1750 868L1683 931M1750 868L1772 927M1827 844L1906 870M1827 844L1772 927M1827 844L1871 940M1906 870L1974 809M1906 870L1871 940M1974 809L2017 847M2017 847L2092 802M2017 847L2030 919M2017 847L2089 884M2092 802L2191 817M2092 802L2089 884M2319 839L2324 880M2319 839L2291 884M2319 839L2341 917M2324 880L2291 884M2324 880L2341 917M2324 880L2290 970M2324 880L2372 980M2475 834L2505 869M2475 834L2469 890M2475 834L2557 896M2505 869L2576 915M2505 869L2469 890M2505 869L2557 896M-55 869L16 915M16 915L88 897M16 915L-3 896M16 915L2 1013M2576 915L2557 896M88 897L161 888M88 897L-3 896M2648 897L2557 896M161 888L171 979M260 930L350 933M260 930L171 979M260 930L292 977M350 933L438 932M350 933L292 977M350 933L356 993M438 932L356 993M438 932L460 989M438 932L491 995M550 936L572 919M550 936L460 989M550 936L491 995M550 936L613 963M572 919L660 959M572 919L613 963M660 959L613 963M660 959L657 1035M660 959L721 1027M660 959L677 1044M868 916L951 948M868 916L865 1013M868 916L886 985M951 948L974 919M951 948L886 985M951 948L990 1026M1105 894L1128 886M1277 914L1357 952M1277 914L1213 1014M1357 952L1398 957M1357 952L1344 1005M1357 952L1419 1012M1398 957L1468 930M1398 957L1344 1005M1398 957L1419 1012M1398 957L1499 969M1468 930L1499 969M1593 904L1678 920M1593 904L1683 931M1593 904L1650 962M1678 920L1683 931M1678 920L1772 927M1678 920L1650 962M1683 931L1650 962M1772 927L1753 1002M1772 927L1829 968M1871 940L1829 968M1871 940L1861 1010M1871 940L1920 972M1989 936L2030 919M1989 936L1920 972M1989 936L2023 1006M2030 919L2089 884M2030 919L2023 1006M2030 919L2126 971M2089 884L2161 939M2089 884L2126 971M2161 939L2126 971M2161 939L2167 964M2291 884L2341 917M2291 884L2290 970M2341 917L2290 970M2341 917L2372 980M2469 890L2557 896M2 1013L-90 1038M2 1013L-47 1006M2 1013L25 1061M2 1013L-61 1044M2562 1013L2470 1038M2562 1013L2513 1006M2562 1013L2499 1044M155 974L171 979M155 974L162 1068M171 979L292 977M171 979L162 1068M292 977L356 993M292 977L359 1066M356 993L460 989M356 993L359 1066M460 989L491 995M460 989L473 1092M491 995L473 1092M491 995L538 1095M613 963L657 1035M657 1035L721 1027M657 1035L632 1085M657 1035L677 1044M721 1027L632 1085M721 1027L677 1044M721 1027L776 1094M865 1013L886 985M865 1013L878 1119M865 1013L907 1043M886 985L907 1043M990 1026L1064 1017M990 1026L907 1043M990 1026L1011 1097M990 1026L1007 1124M1064 1017L1150 1016M1064 1017L1011 1097M1064 1017L1114 1060M1150 1016L1213 1014M1150 1016L1114 1060M1150 1016L1206 1097M1213 1014L1114 1060M1213 1014L1206 1097M1344 1005L1419 1012M1344 1005L1354 1088M1344 1005L1437 1052M1419 1012L1499 969M1419 1012L1437 1052M1499 969L1539 1036M1499 969L1437 1052M1539 1036L1453 1102M1539 1036L1542 1117M1650 962L1673 1061M1753 1002L1829 968M1753 1002L1673 1061M1753 1002L1717 1087M1753 1002L1775 1063M1829 968L1861 1010M1829 968L1920 972M1861 1010L1920 972M1861 1010L1928 1071M2023 1006L2126 971M2023 1006L2036 1086M2126 971L2167 964M2167 964L2290 970M2290 970L2372 980M2470 1038L2513 1006M2470 1038L2385 1110M2470 1038L2478 1094M2470 1038L2499 1044M2513 1006L2585 1061M2513 1006L2478 1094M2513 1006L2499 1044M-47 1006L25 1061M25 1061L-61 1044M2585 1061L2499 1044M139 1112L162 1068M139 1112L57 1158M139 1112L103 1148M139 1112L167 1182M139 1112L146 1211M162 1068L103 1148M305 1098L359 1066M305 1098L313 1144M359 1066L313 1144M473 1092L538 1095M473 1092L473 1190M473 1092L519 1154M538 1095L632 1085M538 1095L519 1154M538 1095L581 1134M632 1085L677 1044M632 1085L581 1134M677 1044L776 1094M776 1094L709 1175M776 1094L785 1145M776 1094L834 1161M878 1119L907 1043M878 1119L834 1161M878 1119L913 1192M1011 1097L1007 1124M1011 1097L1076 1131M1114 1060L1166 1111M1114 1060L1076 1131M1166 1111L1206 1097M1166 1111L1175 1174M1166 1111L1235 1166M1206 1097L1175 1174M1206 1097L1235 1166M1354 1088L1437 1052M1354 1088L1453 1102M1354 1088L1330 1171M1354 1088L1361 1199M1437 1052L1453 1102M1453 1102L1542 1117M1453 1102L1507 1152M1542 1117L1507 1152M1542 1117L1579 1196M1673 1061L1717 1087M1673 1061L1775 1063M1673 1061L1741 1121M1717 1087L1775 1063M1717 1087L1741 1121M1717 1087L1772 1125M1775 1063L1741 1121M1775 1063L1772 1125M1917 1100L1928 1071M1917 1100L1920 1141M1917 1100L1994 1129M1917 1100L2009 1130M1928 1071L1920 1141M1928 1071L1994 1129M2036 1086L2094 1098M2036 1086L1994 1129M2036 1086L2009 1130M2094 1098L2160 1083M2094 1098L2009 1130M2094 1098L2132 1166M2094 1098L2160 1166M2160 1083L2242 1113M2160 1083L2132 1166M2160 1083L2160 1166M2160 1083L2244 1144M2242 1113L2244 1144M2242 1113L2335 1122M2242 1113L2216 1214M2385 1110L2478 1094M2385 1110L2335 1122M2385 1110L2415 1197M2385 1110L2448 1207M2478 1094L2499 1044M57 1158L103 1148M57 1158L167 1182M57 1158L-27 1200M2617 1158L2533 1200M103 1148L167 1182M103 1148L146 1211M167 1182L146 1211M167 1182L211 1221M313 1144L389 1198M313 1144L211 1221M389 1198L473 1190M389 1198L348 1256M389 1198L412 1244M473 1190L519 1154M473 1190L412 1244M473 1190L442 1294M519 1154L581 1134M581 1134L655 1216M709 1175L785 1145M709 1175L628 1244M709 1175L655 1216M709 1175L779 1243M785 1145L834 1161M785 1145L779 1243M785 1145L833 1237M834 1161L779 1243M834 1161L833 1237M913 1192L833 1237M913 1192L957 1279M913 1192L952 1280M1007 1124L1076 1131M1007 1124L1032 1210M1007 1124L1066 1205M1076 1131L1032 1210M1076 1131L1066 1205M1175 1174L1235 1166M1175 1174L1196 1202M1175 1174L1205 1262M1235 1166L1330 1171M1235 1166L1196 1202M1330 1171L1361 1199M1330 1171L1355 1201M1361 1199L1355 1201M1361 1199L1417 1224M1361 1199L1445 1267M1507 1152L1579 1196M1507 1152L1594 1227M1579 1196L1642 1157M1579 1196L1594 1227M1642 1157L1594 1227M1642 1157L1673 1235M1741 1121L1772 1125M1741 1121L1721 1209M1772 1125L1721 1209M1772 1125L1852 1200M1920 1141L1994 1129M1920 1141L2009 1130M1920 1141L1852 1200M1994 1129L2009 1130M2132 1166L2160 1166M2132 1166L2083 1239M2132 1166L2216 1214M2160 1166L2244 1144M2160 1166L2216 1214M2244 1144L2335 1122M2244 1144L2216 1214M2335 1122L2415 1197M2415 1197L2383 1246M2415 1197L2448 1207M2533 1200L2620 1266M2533 1200L2448 1207M2533 1200L2520 1249M-27 1200L60 1266M60 1266L-40 1249M60 1266L26 1306M60 1266L99 1300M2620 1266L2520 1249M146 1211L211 1221M146 1211L99 1300M315 1275L348 1256M315 1275L295 1334M315 1275L331 1292M315 1275L291 1361M348 1256L412 1244M348 1256L331 1292M412 1244L442 1294M533 1277L628 1244M533 1277L442 1294M533 1277L519 1350M628 1244L655 1216M628 1244L638 1349M779 1243L833 1237M779 1243L838 1309M833 1237L838 1309M957 1279L1032 1210M957 1279L838 1309M957 1279L952 1280M957 1279L965 1306M1032 1210L1066 1205M1032 1210L965 1306M1196 1202L1205 1262M1205 1262L1186 1319M1205 1262L1216 1327M1355 1201L1417 1224M1355 1201L1412 1295M1417 1224L1445 1267M1417 1224L1412 1295M1417 1224L1455 1304M1445 1267L1412 1295M1445 1267L1455 1304M1445 1267L1444 1379M1594 1227L1673 1235M1673 1235L1721 1209M1673 1235L1779 1246M1673 1235L1702 1281M1721 1209L1779 1246M1721 1209L1702 1281M1779 1246L1852 1200M1779 1246L1702 1281M1779 1246L1840 1326M1852 1200L1948 1235M1948 1235L2055 1262M1948 1235L1962 1313M2055 1262L2083 1239M2055 1262L1962 1313M2055 1262L2063 1330M2055 1262L2082 1344M2083 1239L2063 1330M2216 1214L2246 1260M2246 1260L2174 1323M2246 1260L2280 1334M2383 1246L2448 1207M2383 1246L2405 1342M2448 1207L2520 1249M2520 1249L2586 1306M2520 1249L2502 1329M-40 1249L26 1306M26 1306L99 1300M26 1306L-58 1329M2586 1306L2502 1329M99 1300L127 1423M229 1359L295 1334M229 1359L164 1419M229 1359L291 1361M295 1334L331 1292M295 1334L291 1361M295 1334L357 1365M331 1292L291 1361M331 1292L357 1365M442 1294L519 1350M442 1294L357 1365M519 1350L531 1402M519 1350L609 1390M638 1349L717 1351M638 1349L727 1337M638 1349L609 1390M717 1351L727 1337M717 1351L609 1390M717 1351L683 1432M717 1351L734 1405M727 1337L838 1309M727 1337L734 1405M838 1309L965 1306M952 1280L965 1306M965 1306L990 1413M1116 1341L1186 1319M1116 1341L1101 1385M1186 1319L1216 1327M1186 1319L1194 1400M1186 1319L1233 1362M1216 1327L1309 1339M1216 1327L1194 1400M1216 1327L1233 1362M1309 1339L1288 1402M1309 1339L1379 1428M1412 1295L1455 1304M1412 1295L1444 1379M1455 1304L1579 1346M1455 1304L1444 1379M1579 1346L1653 1346M1579 1346L1553 1412M1653 1346L1702 1281M1653 1346L1553 1412M1653 1346L1667 1433M1653 1346L1734 1364M1702 1281L1734 1364M1840 1326L1865 1321M1840 1326L1786 1375M1840 1326L1895 1369M1865 1321L1786 1375M1865 1321L1895 1369M1962 1313L1895 1369M1962 1313L1957 1394M2063 1330L2082 1344M2063 1330L2079 1427M2063 1330L2140 1371M2082 1344L2174 1323M2082 1344L2079 1427M2082 1344L2140 1371M2174 1323L2280 1334M2174 1323L2140 1371M2174 1323L2171 1403M2280 1334L2361 1354M2280 1334L2295 1419M2361 1354L2405 1342M2361 1354L2295 1419M2361 1354L2369 1431M2405 1342L2502 1329M2405 1342L2452 1400M2502 1329L2452 1400M2502 1329L2484 1418M2 1427L-76 1418M2562 1427L2484 1418M127 1423L164 1419M291 1361L357 1365M357 1365L414 1418M414 1418L531 1402M531 1402L609 1390M609 1390L683 1432M683 1432L734 1405M870 1424L891 1425M891 1425L990 1413M1194 1400L1233 1362M1233 1362L1288 1402M1288 1402L1379 1428M1379 1428L1444 1379M1553 1412L1667 1433M1667 1433L1734 1364M1734 1364L1786 1375M1895 1369L1957 1394M2079 1427L2140 1371M2079 1427L2171 1403M2140 1371L2171 1403M2295 1419L2369 1431M2369 1431L2452 1400M2452 1400L2484 1418"/></svg>