<svg xmlns="http://www.w3.org/2000/svg" width="2560" height="1440" fill="#fff"><circle cx="14" cy="66" r="5"/><circle cx="87" cy="46" r="5"/><circle cx="192" cy="2" r="4"/><circle cx="192" cy="1442" r="4"/><circle cx="311" cy="15" r="4"/><circle cx="377" cy="1" r="6"/><circle cx="377" cy="1441" r="6"/><circle cx="459" cy="78" r="5"/><circle cx="528" cy="7" r="5"/><circle cx="583" cy="30" r="4"/><circle cx="672" cy="55" r="6"/><circle cx="725" cy="67" r="5"/><circle cx="861" cy="67" r="4"/><circle cx="933" cy="28" r="5"/><circle cx="1021" cy="29" r="6"/><circle cx="1083" cy="32" r="5"/><circle cx="1177" cy="77" r="6"/><circle cx="1242" cy="51" r="6"/><circle cx="1308" cy="40" r="5"/><circle cx="1427" cy="37" r="5"/><circle cx="1441" cy="49" r="5"/><circle cx="1522" cy="40" r="4"/><circle cx="1608" cy="27" r="5"/><circle cx="1692" cy="77" r="5"/><circle cx="1774" cy="68" r="4"/><circle cx="1862" cy="39" r="5"/><circle cx="1994" cy="17" r="5"/><circle cx="2008" cy="0" r="5"/><circle cx="2008" cy="1440" r="5"/><circle cx="2119" cy="61" r="5"/><circle cx="2204" cy="2" r="4"/><circle cx="2204" cy="1442" r="4"/><circle cx="2307" cy="51" r="5"/><circle cx="2338" cy="56" r="5"/><circle cx="2430" cy="39" r="5"/><circle cx="2545" cy="34" r="4"/><circle cx="68" cy="157" r="4"/><circle cx="83" cy="128" r="5"/><circle cx="202" cy="98" r="6"/><circle cx="314" cy="145" r="6"/><circle cx="392" cy="119" r="5"/><circle cx="427" cy="86" r="5"/><circle cx="482" cy="123" r="5"/><circle cx="610" cy="117" r="6"/><circle cx="683" cy="157" r="5"/><circle cx="724" cy="138" r="4"/><circle cx="853" cy="154" r="5"/><circle cx="916" cy="148" r="4"/><circle cx="990" cy="117" r="5"/><circle cx="1105" cy="135" r="4"/><circle cx="1145" cy="148" r="5"/><circle cx="1225" cy="156" r="5"/><circle cx="1347" cy="157" r="4"/><circle cx="1405" cy="135" r="5"/><circle cx="1475" cy="120" r="4"/><circle cx="1539" cy="124" r="6"/><circle cx="1651" cy="151" r="5"/><circle cx="1747" cy="148" r="5"/><circle cx="1767" cy="134" r="5"/><circle cx="1900" cy="126" r="6"/><circle cx="1926" cy="152" r="4"/><circle cx="2054" cy="97" r="5"/><circle cx="2123" cy="125" r="5"/><circle cx="2195" cy="103" r="4"/><circle cx="2288" cy="135" r="5"/><circle cx="2384" cy="110" r="5"/><circle cx="2412" cy="110" r="6"/><circle cx="2509" cy="113" r="5"/><circle cx="17" cy="173" r="6"/><circle cx="98" cy="216" r="4"/><circle cx="185" cy="213" r="4"/><circle cx="247" cy="164" r="4"/><circle cx="337" cy="224" r="6"/><circle cx="478" cy="182" r="5"/><circle cx="537" cy="169" r="6"/><circle cx="566" cy="240" r="6"/><circle cx="649" cy="239" r="4"/><circle cx="750" cy="185" r="5"/><circle cx="838" cy="226" r="4"/><circle cx="953" cy="163" r="5"/><circle cx="970" cy="202" r="4"/><circle cx="1103" cy="196" r="6"/><circle cx="1198" cy="222" r="4"/><circle cx="1255" cy="229" r="6"/><circle cx="1281" cy="206" r="6"/><circle cx="1417" cy="168" r="5"/><circle cx="1456" cy="224" r="4"/><circle cx="1561" cy="177" r="6"/><circle cx="1627" cy="238" r="4"/><circle cx="1734" cy="203" r="5"/><circle cx="1824" cy="179" r="4"/><circle cx="1853" cy="188" r="4"/><circle cx="1922" cy="197" r="5"/><circle cx="2042" cy="185" r="5"/><circle cx="2126" cy="212" r="5"/><circle cx="2190" cy="171" r="5"/><circle cx="2272" cy="164" r="4"/><circle cx="2361" cy="171" r="4"/><circle cx="2435" cy="239" r="5"/><circle cx="2510" cy="208" r="5"/><circle cx="59" cy="304" r="4"/><circle cx="140" cy="271" r="5"/><circle cx="208" cy="297" r="5"/><circle cx="298" cy="270" r="6"/><circle cx="374" cy="245" r="4"/><circle cx="445" cy="255" r="4"/><circle cx="504" cy="283" r="4"/><circle cx="582" cy="243" r="5"/><circle cx="647" cy="240" r="6"/><circle cx="724" cy="316" r="5"/><circle cx="821" cy="306" r="6"/><circle cx="957" cy="304" r="5"/><circle cx="1005" cy="318" r="4"/><circle cx="1113" cy="268" r="6"/><circle cx="1186" cy="277" r="5"/><circle cx="1277" cy="246" r="5"/><circle cx="1302" cy="317" r="5"/><circle cx="1424" cy="246" r="4"/><circle cx="1464" cy="299" r="5"/><circle cx="1547" cy="253" r="5"/><circle cx="1646" cy="281" r="4"/><circle cx="1688" cy="275" r="6"/><circle cx="1823" cy="281" r="4"/><circle cx="1917" cy="302" r="6"/><circle cx="1928" cy="270" r="5"/><circle cx="2056" cy="280" r="5"/><circle cx="2121" cy="270" r="5"/><circle cx="2173" cy="253" r="6"/><circle cx="2299" cy="243" r="5"/><circle cx="2371" cy="262" r="6"/><circle cx="2432" cy="312" r="4"/><circle cx="2529" cy="302" r="6"/><circle cx="25" cy="354" r="6"/><circle cx="114" cy="380" r="4"/><circle cx="180" cy="354" r="4"/><circle cx="307" cy="324" r="4"/><circle cx="388" cy="333" r="5"/><circle cx="406" cy="347" r="5"/><circle cx="526" cy="380" r="5"/><circle cx="624" cy="376" r="5"/><circle cx="713" cy="373" r="5"/><circle cx="758" cy="354" r="4"/><circle cx="856" cy="354" r="4"/><circle cx="913" cy="328" r="4"/><circle cx="1034" cy="346" r="5"/><circle cx="1081" cy="360" r="5"/><circle cx="1148" cy="361" r="4"/><circle cx="1276" cy="358" r="5"/><circle cx="1337" cy="348" r="5"/><circle cx="1373" cy="395" r="4"/><circle cx="1481" cy="372" r="5"/><circle cx="1550" cy="387" r="5"/><circle cx="1644" cy="359" r="6"/><circle cx="1736" cy="369" r="6"/><circle cx="1761" cy="381" r="4"/><circle cx="1856" cy="365" r="6"/><circle cx="1934" cy="376" r="4"/><circle cx="2076" cy="376" r="5"/><circle cx="2117" cy="355" r="6"/><circle cx="2225" cy="336" r="5"/><circle cx="2289" cy="336" r="5"/><circle cx="2370" cy="346" r="4"/><circle cx="2454" cy="365" r="5"/><circle cx="2517" cy="350" r="5"/><circle cx="10" cy="429" r="6"/><circle cx="156" cy="434" r="5"/><circle cx="174" cy="418" r="4"/><circle cx="265" cy="407" r="5"/><circle cx="325" cy="443" r="6"/><circle cx="453" cy="436" r="4"/><circle cx="529" cy="465" r="5"/><circle cx="589" cy="480" r="6"/><circle cx="684" cy="465" r="5"/><circle cx="764" cy="411" r="5"/><circle cx="834" cy="400" r="5"/><circle cx="932" cy="474" r="4"/><circle cx="1002" cy="477" r="6"/><circle cx="1109" cy="438" r="5"/><circle cx="1171" cy="463" r="6"/><circle cx="1209" cy="423" r="4"/><circle cx="1331" cy="461" r="5"/><circle cx="1363" cy="461" r="6"/><circle cx="1473" cy="435" r="6"/><circle cx="1590" cy="421" r="6"/><circle cx="1644" cy="468" r="4"/><circle cx="1710" cy="416" r="5"/><circle cx="1773" cy="478" r="4"/><circle cx="1902" cy="409" r="5"/><circle cx="1961" cy="401" r="5"/><circle cx="2024" cy="409" r="5"/><circle cx="2094" cy="401" r="5"/><circle cx="2220" cy="431" r="5"/><circle cx="2248" cy="463" r="5"/><circle cx="2334" cy="480" r="6"/><circle cx="2436" cy="417" r="5"/><circle cx="2552" cy="478" r="6"/><circle cx="26" cy="546" r="6"/><circle cx="116" cy="487" r="5"/><circle cx="232" cy="492" r="5"/><circle cx="271" cy="530" r="6"/><circle cx="327" cy="541" r="5"/><circle cx="406" cy="553" r="5"/><circle cx="540" cy="559" r="6"/><circle cx="617" cy="539" r="6"/><circle cx="701" cy="487" r="6"/><circle cx="768" cy="524" r="4"/><circle cx="833" cy="539" r="4"/><circle cx="945" cy="514" r="5"/><circle cx="962" cy="550" r="5"/><circle cx="1072" cy="548" r="6"/><circle cx="1166" cy="493" r="6"/><circle cx="1207" cy="495" r="4"/><circle cx="1286" cy="500" r="6"/><circle cx="1399" cy="533" r="5"/><circle cx="1495" cy="513" r="6"/><circle cx="1566" cy="524" r="5"/><circle cx="1635" cy="523" r="6"/><circle cx="1718" cy="544" r="5"/><circle cx="1801" cy="534" r="4"/><circle cx="1854" cy="492" r="5"/><circle cx="1976" cy="516" r="5"/><circle cx="2079" cy="543" r="4"/><circle cx="2159" cy="511" r="5"/><circle cx="2208" cy="508" r="5"/><circle cx="2252" cy="557" r="5"/><circle cx="2325" cy="523" r="5"/><circle cx="2411" cy="484" r="5"/><circle cx="2555" cy="506" r="6"/><circle cx="-5" cy="506" r="6"/><circle cx="15" cy="629" r="6"/><circle cx="99" cy="625" r="5"/><circle cx="206" cy="628" r="5"/><circle cx="311" cy="633" r="6"/><circle cx="343" cy="628" r="6"/><circle cx="458" cy="579" r="4"/><circle cx="528" cy="635" r="5"/><circle cx="639" cy="626" r="6"/><circle cx="644" cy="591" r="5"/><circle cx="736" cy="582" r="5"/><circle cx="829" cy="601" r="5"/><circle cx="914" cy="635" r="5"/><circle cx="1029" cy="561" r="5"/><circle cx="1113" cy="614" r="5"/><circle cx="1167" cy="628" r="5"/><circle cx="1247" cy="626" r="5"/><circle cx="1298" cy="618" r="5"/><circle cx="1439" cy="561" r="5"/><circle cx="1512" cy="582" r="4"/><circle cx="1546" cy="568" r="6"/><circle cx="1628" cy="590" r="5"/><circle cx="1717" cy="601" r="5"/><circle cx="1797" cy="634" r="4"/><circle cx="1907" cy="593" r="5"/><circle cx="1951" cy="587" r="5"/><circle cx="2075" cy="570" r="4"/><circle cx="2127" cy="562" r="4"/><circle cx="2165" cy="617" r="5"/><circle cx="2294" cy="616" r="5"/><circle cx="2325" cy="615" r="4"/><circle cx="2419" cy="635" r="4"/><circle cx="2495" cy="579" r="5"/><circle cx="39" cy="703" r="6"/><circle cx="156" cy="710" r="5"/><circle cx="182" cy="669" r="6"/><circle cx="299" cy="660" r="5"/><circle cx="384" cy="699" r="6"/><circle cx="403" cy="661" r="6"/><circle cx="538" cy="679" r="5"/><circle cx="630" cy="709" r="5"/><circle cx="669" cy="707" r="5"/><circle cx="778" cy="672" r="5"/><circle cx="840" cy="642" r="4"/><circle cx="903" cy="704" r="4"/><circle cx="981" cy="691" r="6"/><circle cx="1042" cy="642" r="6"/><circle cx="1194" cy="660" r="5"/><circle cx="1205" cy="705" r="5"/><circle cx="1301" cy="701" r="5"/><circle cx="1424" cy="658" r="5"/><circle cx="1493" cy="706" r="5"/><circle cx="1534" cy="698" r="5"/><circle cx="1677" cy="691" r="4"/><circle cx="1685" cy="708" r="5"/><circle cx="1785" cy="701" r="5"/><circle cx="1876" cy="712" r="5"/><circle cx="1942" cy="657" r="5"/><circle cx="2069" cy="687" r="6"/><circle cx="2156" cy="655" r="4"/><circle cx="2201" cy="647" r="5"/><circle cx="2310" cy="649" r="6"/><circle cx="2343" cy="717" r="4"/><circle cx="2425" cy="644" r="4"/><circle cx="2505" cy="661" r="6"/><circle cx="54" cy="747" r="5"/><circle cx="97" cy="771" r="4"/><circle cx="192" cy="770" r="5"/><circle cx="256" cy="748" r="5"/><circle cx="366" cy="763" r="4"/><circle cx="420" cy="733" r="4"/><circle cx="493" cy="753" r="4"/><circle cx="602" cy="759" r="6"/><circle cx="719" cy="791" r="6"/><circle cx="789" cy="734" r="4"/><circle cx="830" cy="787" r="6"/><circle cx="908" cy="729" r="5"/><circle cx="1030" cy="763" r="5"/><circle cx="1041" cy="793" r="5"/><circle cx="1173" cy="723" r="4"/><circle cx="1261" cy="743" r="6"/><circle cx="1353" cy="762" r="4"/><circle cx="1374" cy="771" r="5"/><circle cx="1445" cy="726" r="5"/><circle cx="1590" cy="727" r="4"/><circle cx="1625" cy="794" r="6"/><circle cx="1720" cy="745" r="6"/><circle cx="1806" cy="777" r="5"/><circle cx="1853" cy="760" r="6"/><circle cx="1949" cy="723" r="4"/><circle cx="2069" cy="737" r="5"/><circle cx="2098" cy="753" r="4"/><circle cx="2215" cy="763" r="6"/><circle cx="2270" cy="725" r="6"/><circle cx="2326" cy="757" r="5"/><circle cx="2478" cy="730" r="4"/><circle cx="2531" cy="789" r="4"/><circle cx="34" cy="843" r="5"/><circle cx="118" cy="819" r="5"/><circle cx="208" cy="813" r="4"/><circle cx="245" cy="823" r="5"/><circle cx="394" cy="829" r="5"/><circle cx="403" cy="818" r="5"/><circle cx="544" cy="822" r="5"/><circle cx="622" cy="853" r="4"/><circle cx="647" cy="803" r="5"/><circle cx="778" cy="826" r="5"/><circle cx="827" cy="871" r="5"/><circle cx="946" cy="844" r="5"/><circle cx="964" cy="837" r="5"/><circle cx="1100" cy="838" r="4"/><circle cx="1171" cy="815" r="4"/><circle cx="1275" cy="829" r="5"/><circle cx="1359" cy="814" r="6"/><circle cx="1422" cy="861" r="5"/><circle cx="1519" cy="840" r="4"/><circle cx="1590" cy="814" r="5"/><circle cx="1653" cy="802" r="6"/><circle cx="1680" cy="814" r="6"/><circle cx="1791" cy="866" r="6"/><circle cx="1851" cy="869" r="5"/><circle cx="1966" cy="867" r="4"/><circle cx="2066" cy="861" r="4"/><circle cx="2140" cy="801" r="4"/><circle cx="2205" cy="818" r="6"/><circle cx="2286" cy="873" r="5"/><circle cx="2399" cy="807" r="6"/><circle cx="2430" cy="868" r="5"/><circle cx="2506" cy="817" r="4"/><circle cx="62" cy="890" r="5"/><circle cx="85" cy="902" r="6"/><circle cx="174" cy="883" r="5"/><circle cx="262" cy="914" r="5"/><circle cx="363" cy="934" r="4"/><circle cx="473" cy="894" r="5"/><circle cx="531" cy="944" r="6"/><circle cx="638" cy="921" r="6"/><circle cx="684" cy="894" r="6"/><circle cx="736" cy="888" r="5"/><circle cx="807" cy="927" r="6"/><circle cx="952" cy="958" r="5"/><circle cx="1016" cy="918" r="6"/><circle cx="1084" cy="948" r="5"/><circle cx="1184" cy="942" r="4"/><circle cx="1239" cy="920" r="4"/><circle cx="1320" cy="951" r="6"/><circle cx="1379" cy="910" r="4"/><circle cx="1480" cy="896" r="5"/><circle cx="1545" cy="884" r="6"/><circle cx="1601" cy="892" r="6"/><circle cx="1719" cy="908" r="4"/><circle cx="1783" cy="894" r="5"/><circle cx="1869" cy="897" r="5"/><circle cx="1992" cy="894" r="6"/><circle cx="2050" cy="953" r="6"/><circle cx="2092" cy="909" r="5"/><circle cx="2216" cy="940" r="5"/><circle cx="2310" cy="915" r="5"/><circle cx="2336" cy="954" r="4"/><circle cx="2476" cy="913" r="5"/><circle cx="2510" cy="933" r="6"/><circle cx="17" cy="1039" r="5"/><circle cx="144" cy="991" r="6"/><circle cx="178" cy="1011" r="5"/><circle cx="241" cy="1003" r="5"/><circle cx="389" cy="967" r="5"/><circle cx="454" cy="1016" r="5"/><circle cx="543" cy="978" r="4"/><circle cx="599" cy="1029" r="4"/><circle cx="651" cy="963" r="5"/><circle cx="767" cy="1000" r="5"/><circle cx="814" cy="1010" r="4"/><circle cx="880" cy="1019" r="5"/><circle cx="962" cy="975" r="5"/><circle cx="1051" cy="997" r="5"/><circle cx="1189" cy="1038" r="6"/><circle cx="1270" cy="980" r="5"/><circle cx="1309" cy="1003" r="5"/><circle cx="1361" cy="982" r="4"/><circle cx="1445" cy="992" r="6"/><circle cx="1542" cy="1039" r="5"/><circle cx="1678" cy="963" r="5"/><circle cx="1688" cy="1037" r="4"/><circle cx="1760" cy="1037" r="5"/><circle cx="1917" cy="970" r="6"/><circle cx="1997" cy="1012" r="5"/><circle cx="2066" cy="1029" r="5"/><circle cx="2157" cy="991" r="6"/><circle cx="2236" cy="1010" r="5"/><circle cx="2317" cy="975" r="4"/><circle cx="2392" cy="964" r="6"/><circle cx="2475" cy="1013" r="6"/><circle cx="2481" cy="1037" r="4"/><circle cx="78" cy="1063" r="5"/><circle cx="154" cy="1049" r="6"/><circle cx="181" cy="1116" r="5"/><circle cx="241" cy="1045" r="4"/><circle cx="357" cy="1069" r="4"/><circle cx="476" cy="1079" r="5"/><circle cx="492" cy="1103" r="6"/><circle cx="631" cy="1053" r="5"/><circle cx="643" cy="1045" r="5"/><circle cx="759" cy="1085" r="5"/><circle cx="831" cy="1118" r="4"/><circle cx="939" cy="1119" r="4"/><circle cx="1030" cy="1052" r="4"/><circle cx="1055" cy="1067" r="5"/><circle cx="1155" cy="1105" r="4"/><circle cx="1220" cy="1093" r="4"/><circle cx="1339" cy="1090" r="5"/><circle cx="1423" cy="1113" r="4"/><circle cx="1511" cy="1077" r="6"/><circle cx="1598" cy="1118" r="4"/><circle cx="1639" cy="1115" r="6"/><circle cx="1714" cy="1065" r="4"/><circle cx="1763" cy="1119" r="5"/><circle cx="1885" cy="1067" r="5"/><circle cx="1938" cy="1086" r="4"/><circle cx="2018" cy="1073" r="4"/><circle cx="2130" cy="1086" r="5"/><circle cx="2172" cy="1095" r="5"/><circle cx="2267" cy="1064" r="4"/><circle cx="2390" cy="1105" r="5"/><circle cx="2439" cy="1070" r="5"/><circle cx="2526" cy="1103" r="5"/><circle cx="8" cy="1160" r="4"/><circle cx="82" cy="1189" r="6"/><circle cx="224" cy="1123" r="5"/><circle cx="294" cy="1171" r="4"/><circle cx="363" cy="1163" r="5"/><circle cx="440" cy="1194" r="4"/><circle cx="549" cy="1128" r="5"/><circle cx="584" cy="1168" r="6"/><circle cx="708" cy="1189" r="5"/><circle cx="757" cy="1130" r="4"/><circle cx="803" cy="1174" r="4"/><circle cx="902" cy="1149" r="4"/><circle cx="1021" cy="1179" r="5"/><circle cx="1052" cy="1200" r="5"/><circle cx="1197" cy="1157" r="5"/><circle cx="1205" cy="1140" r="5"/><circle cx="1324" cy="1186" r="6"/><circle cx="1401" cy="1164" r="5"/><circle cx="1453" cy="1145" r="4"/><circle cx="1549" cy="1146" r="5"/><circle cx="1669" cy="1192" r="5"/><circle cx="1714" cy="1163" r="4"/><circle cx="1795" cy="1157" r="4"/><circle cx="1864" cy="1177" r="5"/><circle cx="1934" cy="1140" r="5"/><circle cx="2076" cy="1178" r="4"/><circle cx="2099" cy="1137" r="5"/><circle cx="2219" cy="1151" r="4"/><circle cx="2294" cy="1138" r="5"/><circle cx="2330" cy="1197" r="6"/><circle cx="2428" cy="1194" r="5"/><circle cx="2516" cy="1182" r="5"/><circle cx="16" cy="1208" r="4"/><circle cx="81" cy="1225" r="5"/><circle cx="238" cy="1228" r="6"/><circle cx="252" cy="1233" r="4"/><circle cx="387" cy="1242" r="5"/><circle cx="465" cy="1221" r="4"/><circle cx="519" cy="1260" r="4"/><circle cx="585" cy="1216" r="6"/><circle cx="645" cy="1253" r="5"/><circle cx="733" cy="1248" r="6"/><circle cx="857" cy="1237" r="5"/><circle cx="940" cy="1207" r="4"/><circle cx="993" cy="1275" r="4"/><circle cx="1081" cy="1274" r="5"/><circle cx="1186" cy="1275" r="5"/><circle cx="1248" cy="1233" r="6"/><circle cx="1326" cy="1270" r="6"/><circle cx="1381" cy="1209" r="5"/><circle cx="1446" cy="1246" r="4"/><circle cx="1580" cy="1252" r="6"/><circle cx="1630" cy="1273" r="5"/><circle cx="1752" cy="1213" r="4"/><circle cx="1829" cy="1262" r="5"/><circle cx="1890" cy="1246" r="4"/><circle cx="1953" cy="1212" r="5"/><circle cx="2071" cy="1267" r="5"/><circle cx="2108" cy="1254" r="5"/><circle cx="2223" cy="1268" r="5"/><circle cx="2286" cy="1256" r="5"/><circle cx="2324" cy="1237" r="5"/><circle cx="2428" cy="1205" r="4"/><circle cx="2532" cy="1212" r="6"/><circle cx="52" cy="1347" r="5"/><circle cx="132" cy="1311" r="5"/><circle cx="226" cy="1343" r="5"/><circle cx="299" cy="1325" r="4"/><circle cx="391" cy="1285" r="6"/><circle cx="466" cy="1300" r="6"/><circle cx="548" cy="1348" r="4"/><circle cx="571" cy="1326" r="5"/><circle cx="690" cy="1345" r="5"/><circle cx="721" cy="1288" r="5"/><circle cx="823" cy="1313" r="6"/><circle cx="956" cy="1313" r="4"/><circle cx="1005" cy="1322" r="6"/><circle cx="1114" cy="1331" r="5"/><circle cx="1146" cy="1314" r="4"/><circle cx="1240" cy="1326" r="6"/><circle cx="1293" cy="1322" r="6"/><circle cx="1434" cy="1354" r="5"/><circle cx="1506" cy="1359" r="6"/><circle cx="1584" cy="1316" r="4"/><circle cx="1650" cy="1308" r="4"/><circle cx="1733" cy="1290" r="5"/><circle cx="1812" cy="1288" r="6"/><circle cx="1863" cy="1329" r="6"/><circle cx="1974" cy="1354" r="4"/><circle cx="2051" cy="1302" r="6"/><circle cx="2143" cy="1358" r="6"/><circle cx="2239" cy="1324" r="5"/><circle cx="2249" cy="1292" r="5"/><circle cx="2333" cy="1312" r="5"/><circle cx="2416" cy="1299" r="4"/><circle cx="2549" cy="1327" r="6"/><circle cx="19" cy="1383" r="4"/><circle cx="97" cy="1434" r="4"/><circle cx="238" cy="1362" r="5"/><circle cx="318" cy="1411" r="5"/><circle cx="384" cy="1373" r="5"/><circle cx="469" cy="1378" r="6"/><circle cx="528" cy="1411" r="5"/><circle cx="619" cy="1364" r="6"/><circle cx="704" cy="1406" r="5"/><circle cx="729" cy="1377" r="4"/><circle cx="860" cy="1389" r="6"/><circle cx="901" cy="1405" r="6"/><circle cx="988" cy="1413" r="6"/><circle cx="1052" cy="1362" r="6"/><circle cx="1175" cy="1428" r="4"/><circle cx="1213" cy="1367" r="6"/><circle cx="1342" cy="1365" r="4"/><circle cx="1400" cy="1413" r="5"/><circle cx="1494" cy="1433" r="5"/><circle cx="1581" cy="1432" r="6"/><circle cx="1667" cy="1406" r="4"/><circle cx="1721" cy="1392" r="6"/><circle cx="1836" cy="1367" r="6"/><circle cx="1909" cy="1402" r="6"/><circle cx="1952" cy="1415" r="5"/><circle cx="2032" cy="1366" r="6"/><circle cx="2093" cy="1417" r="5"/><circle cx="2171" cy="1408" r="5"/><circle cx="2242" cy="1395" r="5"/><circle cx="2327" cy="1431" r="6"/><circle cx="2471" cy="1433" r="5"/><circle cx="2512" cy="1423" r="4"/><path stroke="#fff" d="M14 66L87 46M14 66L-15 34M14 66L83 128M14 66L-51 113M2574 66L2545 34M2574 66L2509 113M87 46L-15 34M87 46L83 128M87 46L202 98M87 46L97 -6M2647 46L2545 34M87 1486L97 1434M192 2L202 98M192 2L97 -6M192 2L238 -78M192 1442L97 1434M192 1442L238 1362M311 15L377 1M311 15L318 -29M311 1455L318 1411M377 1L427 86M377 1L318 -29M377 1L384 -67M377 1441L318 1411M377 1441L384 1373M459 78L528 7M459 78L392 119M459 78L427 86M459 78L482 123M528 7L583 30M528 7L469 -62M528 7L528 -29M528 1447L469 1378M528 1447L528 1411M583 30L672 55M583 30L610 117M583 30L528 -29M583 1470L528 1411M672 55L725 67M672 55L610 117M672 55L704 -34M672 1495L704 1406M725 67L724 138M725 67L704 -34M725 1507L704 1406M861 67L933 28M861 67L853 154M861 67L916 148M861 67L860 -51M861 1507L860 1389M933 28L1021 29M933 28L860 -51M933 28L901 -35M933 28L988 -27M933 1468L860 1389M933 1468L901 1405M933 1468L988 1413M1021 29L1083 32M1021 29L990 117M1021 29L988 -27M1021 29L1052 -78M1021 1469L988 1413M1021 1469L1052 1362M1083 32L1175 -12M1083 1472L1175 1428M1177 77L1242 51M1177 77L1105 135M1177 77L1145 148M1177 77L1225 156M1177 77L1175 -12M1177 1517L1175 1428M1242 51L1308 40M1242 51L1175 -12M1242 1491L1175 1428M1427 37L1441 49M1427 37L1405 135M1427 37L1400 -27M1427 37L1494 -7M1427 1477L1400 1413M1427 1477L1494 1433M1441 49L1522 40M1441 49L1475 120M1441 49L1400 -27M1441 49L1494 -7M1441 1489L1400 1413M1441 1489L1494 1433M1522 40L1608 27M1522 40L1539 124M1522 40L1494 -7M1522 40L1581 -8M1522 1480L1494 1433M1522 1480L1581 1432M1608 27L1692 77M1608 27L1539 124M1608 27L1581 -8M1608 27L1667 -34M1608 1467L1581 1432M1608 1467L1667 1406M1692 77L1774 68M1692 77L1651 151M1692 77L1767 134M1774 68L1862 39M1774 68L1747 148M1774 68L1767 134M1774 68L1721 -48M1774 1508L1721 1392M1862 39L1900 126M1862 39L1909 -38M1862 1479L1909 1402M1994 17L2008 0M1994 17L2054 97M1994 17L1952 -25M1994 1457L1952 1415M2008 0L1952 -25M2008 0L2032 -74M2008 0L2093 -23M2008 1440L1952 1415M2008 1440L2032 1366M2008 1440L2093 1417M2119 61L2054 97M2119 61L2123 125M2119 61L2195 103M2119 61L2093 -23M2119 61L2171 -32M2119 1501L2093 1417M2119 1501L2171 1408M2204 2L2171 -32M2204 2L2242 -45M2204 1442L2171 1408M2204 1442L2242 1395M2307 51L2338 56M2307 51L2288 135M2307 51L2242 -45M2307 51L2327 -9M2307 1491L2242 1395M2307 1491L2327 1431M2338 56L2288 135M2338 56L2384 110M2338 56L2412 110M2338 56L2327 -9M2338 1496L2327 1431M2430 39L2384 110M2430 39L2412 110M2430 39L2327 -9M2430 39L2471 -7M2430 39L2512 -17M2430 1479L2327 1431M2430 1479L2471 1433M2430 1479L2512 1423M2545 34L2509 113M2545 34L2471 -7M2545 34L2512 -17M2545 1474L2471 1433M2545 1474L2512 1423M68 157L83 128M68 157L17 173M68 157L98 216M83 128L17 173M83 128L98 216M202 98L314 145M202 98L185 213M202 98L247 164M314 145L392 119M314 145L247 164M314 145L337 224M392 119L427 86M392 119L482 123M392 119L478 182M427 86L482 123M482 123L478 182M482 123L537 169M610 117L683 157M610 117L537 169M683 157L724 138M683 157L649 239M683 157L750 185M683 157L647 240M724 138L750 185M853 154L916 148M853 154L750 185M853 154L838 226M853 154L953 163M916 148L990 117M916 148L953 163M916 148L970 202M990 117L953 163M990 117L970 202M1105 135L1145 148M1105 135L1103 196M1145 148L1225 156M1145 148L1103 196M1225 156L1198 222M1225 156L1255 229M1225 156L1281 206M1347 157L1405 135M1347 157L1281 206M1347 157L1417 168M1405 135L1475 120M1405 135L1417 168M1405 135L1456 224M1475 120L1539 124M1475 120L1417 168M1475 120L1561 177M1539 124L1561 177M1651 151L1747 148M1651 151L1561 177M1651 151L1627 238M1651 151L1734 203M1747 148L1767 134M1747 148L1734 203M1747 148L1824 179M1767 134L1734 203M1767 134L1824 179M1900 126L1926 152M1900 126L1824 179M1900 126L1853 188M1900 126L1922 197M1926 152L1853 188M1926 152L1922 197M2054 97L2123 125M2054 97L2042 185M2123 125L2195 103M2123 125L2126 212M2123 125L2190 171M2195 103L2190 171M2195 103L2272 164M2288 135L2384 110M2288 135L2272 164M2288 135L2361 171M2384 110L2412 110M2384 110L2361 171M2412 110L2509 113M2412 110L2361 171M2509 113L2577 173M2509 113L2510 208M-51 113L17 173M17 173L98 216M17 173L-50 208M2577 173L2510 208M98 216L185 213M98 216L140 271M185 213L247 164M185 213L140 271M185 213L208 297M247 164L337 224M337 224L298 270M337 224L374 245M337 224L307 324M478 182L537 169M478 182L445 255M537 169L566 240M537 169L582 243M566 240L649 239M566 240L504 283M566 240L582 243M566 240L647 240M649 239L582 243M649 239L647 240M750 185L838 226M838 226L821 306M953 163L970 202M970 202L957 304M1103 196L1113 268M1198 222L1255 229M1198 222L1281 206M1198 222L1186 277M1198 222L1277 246M1255 229L1281 206M1255 229L1186 277M1255 229L1277 246M1281 206L1277 246M1417 168L1456 224M1417 168L1424 246M1456 224L1424 246M1456 224L1464 299M1456 224L1547 253M1561 177L1627 238M1561 177L1547 253M1627 238L1547 253M1627 238L1646 281M1627 238L1688 275M1734 203L1824 179M1734 203L1688 275M1824 179L1853 188M1853 188L1922 197M1853 188L1823 281M1922 197L1917 302M1922 197L1928 270M2042 185L2126 212M2042 185L2056 280M2042 185L2121 270M2126 212L2190 171M2126 212L2121 270M2126 212L2173 253M2190 171L2272 164M2190 171L2173 253M2272 164L2299 243M2361 171L2299 243M2361 171L2371 262M2435 239L2510 208M2435 239L2371 262M2435 239L2432 312M2510 208L2529 302M59 304L140 271M59 304L-31 302M59 304L25 354M59 304L114 380M2619 304L2529 302M140 271L208 297M140 271L180 354M208 297L298 270M208 297L180 354M208 297L307 324M298 270L374 245M298 270L307 324M298 270L388 333M374 245L445 255M374 245L388 333M445 255L504 283M445 255L388 333M445 255L406 347M504 283L582 243M504 283L526 380M582 243L647 240M647 240L724 316M724 316L821 306M724 316L713 373M724 316L758 354M821 306L758 354M821 306L856 354M821 306L834 400M957 304L1005 318M957 304L856 354M957 304L913 328M957 304L1034 346M1005 318L913 328M1005 318L1034 346M1005 318L1081 360M1113 268L1186 277M1113 268L1034 346M1113 268L1081 360M1113 268L1148 361M1186 277L1277 246M1186 277L1148 361M1277 246L1302 317M1302 317L1276 358M1302 317L1337 348M1424 246L1464 299M1464 299L1547 253M1464 299L1481 372M1464 299L1550 387M1547 253L1646 281M1646 281L1688 275M1646 281L1644 359M1688 275L1644 359M1688 275L1736 369M1823 281L1917 302M1823 281L1928 270M1823 281L1856 365M1917 302L1928 270M1917 302L1856 365M1917 302L1934 376M2056 280L2121 270M2056 280L2076 376M2056 280L2117 355M2121 270L2173 253M2121 270L2117 355M2173 253L2225 336M2299 243L2371 262M2299 243L2225 336M2299 243L2289 336M2371 262L2432 312M2371 262L2370 346M2432 312L2370 346M2432 312L2454 365M2529 302L2585 354M2529 302L2454 365M2529 302L2517 350M-31 302L25 354M25 354L114 380M25 354L-43 350M25 354L10 429M2585 354L2517 350M114 380L180 354M114 380L156 434M114 380L174 418M180 354L156 434M180 354L174 418M307 324L388 333M307 324L265 407M388 333L406 347M406 347L325 443M406 347L453 436M526 380L624 376M526 380L453 436M526 380L529 465M624 376L713 373M713 373L758 354M713 373L684 465M713 373L764 411M758 354L764 411M758 354L834 400M856 354L913 328M856 354L834 400M913 328L834 400M1034 346L1081 360M1081 360L1148 361M1081 360L1109 438M1148 361L1109 438M1148 361L1209 423M1276 358L1337 348M1276 358L1373 395M1276 358L1209 423M1337 348L1373 395M1337 348L1331 461M1373 395L1331 461M1373 395L1363 461M1481 372L1550 387M1481 372L1473 435M1550 387L1473 435M1550 387L1590 421M1644 359L1736 369M1644 359L1590 421M1644 359L1710 416M1736 369L1761 381M1736 369L1710 416M1761 381L1856 365M1761 381L1710 416M1761 381L1773 478M1856 365L1934 376M1856 365L1902 409M1934 376L1902 409M1934 376L1961 401M1934 376L2024 409M2076 376L2117 355M2076 376L1961 401M2076 376L2024 409M2076 376L2094 401M2117 355L2024 409M2117 355L2094 401M2225 336L2289 336M2225 336L2220 431M2289 336L2370 346M2289 336L2220 431M2370 346L2454 365M2370 346L2436 417M2454 365L2517 350M2454 365L2436 417M2517 350L2570 429M2517 350L2436 417M-43 350L10 429M10 429L-8 478M10 429L-5 506M2570 429L2552 478M2570 429L2555 506M156 434L174 418M156 434L116 487M156 434L232 492M174 418L116 487M174 418L232 492M265 407L325 443M265 407L232 492M325 443L232 492M325 443L271 530M325 443L327 541M453 436L529 465M529 465L589 480M529 465L540 559M589 480L684 465M589 480L540 559M589 480L617 539M684 465L764 411M684 465L701 487M764 411L834 400M764 411L701 487M932 474L1002 477M932 474L945 514M932 474L962 550M1002 477L945 514M1002 477L962 550M1002 477L1072 548M1002 477L1029 561M1109 438L1171 463M1109 438L1166 493M1171 463L1209 423M1171 463L1166 493M1171 463L1207 495M1171 463L1286 500M1209 423L1166 493M1209 423L1207 495M1331 461L1363 461M1331 461L1286 500M1331 461L1399 533M1363 461L1473 435M1363 461L1286 500M1363 461L1399 533M1473 435L1495 513M1590 421L1644 468M1644 468L1710 416M1644 468L1635 523M1710 416L1773 478M1773 478L1718 544M1773 478L1801 534M1773 478L1854 492M1902 409L1961 401M1902 409L1854 492M1961 401L2024 409M1961 401L1976 516M2024 409L2094 401M2220 431L2248 463M2220 431L2159 511M2220 431L2208 508M2248 463L2334 480M2248 463L2208 508M2248 463L2252 557M2248 463L2325 523M2334 480L2436 417M2334 480L2325 523M2334 480L2411 484M2436 417L2411 484M2552 478L2586 546M2552 478L2555 506M-8 478L26 546M26 546L116 487M26 546L-5 506M26 546L15 629M26 546L-65 579M2586 546L2555 506M2586 546L2495 579M232 492L271 530M271 530L327 541M327 541L406 553M327 541L311 633M327 541L343 628M406 553L458 579M540 559L617 539M540 559L458 579M540 559L528 635M617 539L701 487M617 539L639 626M617 539L644 591M701 487L768 524M701 487L736 582M768 524L833 539M768 524L736 582M768 524L829 601M833 539L829 601M833 539L840 642M945 514L962 550M945 514L1029 561M962 550L1029 561M1072 548L1166 493M1072 548L1029 561M1072 548L1113 614M1072 548L1042 642M1166 493L1207 495M1207 495L1286 500M1286 500L1298 618M1399 533L1439 561M1495 513L1566 524M1495 513L1439 561M1495 513L1512 582M1495 513L1546 568M1566 524L1635 523M1566 524L1512 582M1566 524L1546 568M1566 524L1628 590M1635 523L1718 544M1635 523L1546 568M1635 523L1628 590M1718 544L1801 534M1718 544L1628 590M1718 544L1717 601M1801 534L1854 492M1801 534L1797 634M1854 492L1907 593M1976 516L2079 543M1976 516L1907 593M1976 516L1951 587M1976 516L2075 570M2079 543L2159 511M2079 543L2075 570M2079 543L2127 562M2159 511L2208 508M2159 511L2127 562M2159 511L2165 617M2208 508L2252 557M2208 508L2127 562M2252 557L2325 523M2252 557L2294 616M2252 557L2325 615M2325 523L2411 484M2325 523L2325 615M2555 506L2495 579M15 629L99 625M15 629L-65 579M15 629L39 703M15 629L-55 661M2575 629L2495 579M2575 629L2505 661M99 625L206 628M99 625L39 703M99 625L156 710M99 625L182 669M206 628L156 710M206 628L182 669M311 633L343 628M311 633L299 660M311 633L384 699M311 633L403 661M343 628L299 660M343 628L384 699M343 628L403 661M458 579L528 635M458 579L403 661M528 635L538 679M639 626L644 591M639 626L736 582M639 626L630 709M639 626L669 707M644 591L736 582M736 582L778 672M829 601L914 635M829 601L778 672M829 601L840 642M914 635L840 642M914 635L903 704M914 635L981 691M914 635L908 729M1029 561L1042 642M1113 614L1167 628M1113 614L1042 642M1113 614L1194 660M1167 628L1247 626M1167 628L1194 660M1167 628L1205 705M1167 628L1173 723M1247 626L1298 618M1247 626L1194 660M1247 626L1205 705M1247 626L1301 701M1298 618L1301 701M1439 561L1512 582M1439 561L1424 658M1512 582L1546 568M1546 568L1628 590M1628 590L1717 601M1717 601L1797 634M1717 601L1677 691M1797 634L1785 701M1907 593L1951 587M1907 593L1942 657M1951 587L1942 657M2075 570L2127 562M2075 570L2165 617M2075 570L2069 687M2127 562L2165 617M2165 617L2156 655M2165 617L2201 647M2294 616L2325 615M2294 616L2201 647M2294 616L2310 649M2325 615L2419 635M2325 615L2310 649M2419 635L2425 644M2495 579L2425 644M2495 579L2505 661M39 703L-55 661M39 703L54 747M39 703L97 771M2599 703L2505 661M156 710L182 669M156 710L97 771M156 710L192 770M182 669L256 748M299 660L256 748M384 699L403 661M384 699L366 763M384 699L420 733M403 661L420 733M538 679L630 709M538 679L493 753M630 709L669 707M630 709L602 759M669 707L602 759M669 707L719 791M669 707L647 803M778 672L840 642M778 672L789 734M840 642L903 704M903 704L981 691M903 704L830 787M903 704L908 729M981 691L1042 642M981 691L908 729M981 691L1030 763M1042 642L1030 763M1194 660L1205 705M1194 660L1173 723M1205 705L1173 723M1205 705L1261 743M1301 701L1261 743M1301 701L1353 762M1301 701L1374 771M1424 658L1493 706M1424 658L1534 698M1424 658L1445 726M1493 706L1534 698M1493 706L1445 726M1534 698L1445 726M1534 698L1590 727M1677 691L1685 708M1677 691L1590 727M1677 691L1720 745M1685 708L1720 745M1785 701L1876 712M1785 701L1720 745M1785 701L1806 777M1785 701L1853 760M1876 712L1942 657M1876 712L1806 777M1876 712L1853 760M1876 712L1949 723M1942 657L2069 687M1942 657L1949 723M2069 687L2156 655M2069 687L2069 737M2069 687L2098 753M2156 655L2201 647M2310 649L2343 717M2310 649L2270 725M2310 649L2326 757M2343 717L2425 644M2343 717L2270 725M2343 717L2326 757M2343 717L2399 807M2425 644L2505 661M2425 644L2478 730M2505 661L2478 730M54 747L97 771M54 747L-29 789M54 747L34 843M2614 747L2531 789M97 771L118 819M192 770L256 748M192 770L118 819M192 770L208 813M192 770L245 823M256 748L208 813M256 748L245 823M366 763L420 733M366 763L394 829M366 763L403 818M420 733L493 753M420 733L403 818M493 753L403 818M493 753L544 822M602 759L544 822M602 759L622 853M602 759L647 803M719 791L789 734M719 791L647 803M719 791L778 826M719 791L736 888M789 734L830 787M830 787L908 729M830 787L778 826M830 787L827 871M1030 763L1041 793M1030 763L964 837M1030 763L1100 838M1041 793L946 844M1041 793L964 837M1041 793L1100 838M1173 723L1261 743M1173 723L1171 815M1261 743L1353 762M1261 743L1275 829M1353 762L1374 771M1353 762L1445 726M1353 762L1359 814M1374 771L1445 726M1374 771L1359 814M1374 771L1422 861M1590 727L1625 794M1625 794L1590 814M1625 794L1653 802M1625 794L1680 814M1625 794L1601 892M1720 745L1653 802M1720 745L1680 814M1806 777L1853 760M1806 777L1791 866M1806 777L1851 869M1853 760L1949 723M2069 737L2098 753M2069 737L2140 801M2098 753L2215 763M2098 753L2140 801M2215 763L2270 725M2215 763L2326 757M2215 763L2140 801M2215 763L2205 818M2270 725L2326 757M2270 725L2205 818M2326 757L2399 807M2478 730L2531 789M2478 730L2399 807M2478 730L2506 817M2531 789L2594 843M2531 789L2506 817M-29 789L34 843M34 843L118 819M34 843L62 890M34 843L85 902M118 819L85 902M118 819L174 883M208 813L245 823M208 813L174 883M208 813L262 914M245 823L174 883M245 823L262 914M394 829L403 818M394 829L363 934M394 829L473 894M403 818L473 894M544 822L622 853M544 822L473 894M622 853L647 803M622 853L638 921M622 853L684 894M647 803L684 894M778 826L827 871M778 826L736 888M778 826L807 927M827 871L807 927M946 844L964 837M964 837L952 958M964 837L1016 918M1100 838L1171 815M1100 838L1084 948M1171 815L1275 829M1275 829L1359 814M1275 829L1239 920M1359 814L1422 861M1359 814L1379 910M1422 861L1519 840M1422 861L1379 910M1422 861L1480 896M1519 840L1590 814M1519 840L1480 896M1519 840L1545 884M1590 814L1653 802M1590 814L1545 884M1590 814L1601 892M1653 802L1680 814M1653 802L1601 892M1680 814L1719 908M1791 866L1851 869M1791 866L1719 908M1791 866L1783 894M1791 866L1869 897M1851 869L1783 894M1851 869L1869 897M1966 867L2066 861M1966 867L1869 897M1966 867L1992 894M1966 867L1917 970M2066 861L2140 801M2066 861L1992 894M2066 861L2050 953M2066 861L2092 909M2140 801L2205 818M2205 818L2286 873M2205 818L2216 940M2286 873L2216 940M2286 873L2310 915M2286 873L2336 954M2286 873L2317 975M2399 807L2430 868M2399 807L2506 817M2430 868L2506 817M2430 868L2476 913M2430 868L2510 933M2506 817L2476 913M62 890L85 902M85 902L174 883M85 902L144 991M174 883L262 914M262 914L363 934M262 914L241 1003M363 934L389 967M473 894L531 944M473 894L389 967M531 944L638 921M531 944L454 1016M531 944L543 978M531 944L599 1029M638 921L684 894M638 921L736 888M638 921L651 963M684 894L736 888M684 894L651 963M736 888L807 927M807 927L767 1000M807 927L814 1010M952 958L1016 918M952 958L880 1019M952 958L962 975M1016 918L1084 948M1016 918L962 975M1016 918L1051 997M1084 948L1184 942M1084 948L1051 997M1084 948L1055 1067M1184 942L1239 920M1184 942L1189 1038M1239 920L1320 951M1239 920L1270 980M1239 920L1309 1003M1320 951L1379 910M1320 951L1270 980M1320 951L1309 1003M1320 951L1361 982M1379 910L1361 982M1379 910L1445 992M1480 896L1545 884M1480 896L1445 992M1545 884L1601 892M1601 892L1678 963M1719 908L1783 894M1719 908L1678 963M1783 894L1869 897M1869 897L1917 970M1992 894L2050 953M1992 894L2092 909M1992 894L1917 970M2050 953L2092 909M2050 953L1997 1012M2050 953L2066 1029M2092 909L2157 991M2216 940L2310 915M2216 940L2157 991M2216 940L2236 1010M2310 915L2336 954M2310 915L2317 975M2310 915L2392 964M2336 954L2317 975M2336 954L2392 964M2476 913L2510 933M2476 913L2392 964M2476 913L2475 1013M2510 933L2475 1013M2510 933L2481 1037M17 1039L-79 1037M17 1039L78 1063M17 1039L-34 1103M2577 1039L2481 1037M2577 1039L2526 1103M144 991L178 1011M144 991L241 1003M144 991L78 1063M144 991L154 1049M178 1011L241 1003M178 1011L154 1049M178 1011L181 1116M178 1011L241 1045M241 1003L241 1045M389 967L454 1016M389 967L357 1069M454 1016L543 978M454 1016L476 1079M454 1016L492 1103M543 978L599 1029M599 1029L651 963M599 1029L631 1053M599 1029L643 1045M651 963L631 1053M651 963L643 1045M767 1000L814 1010M767 1000L880 1019M767 1000L759 1085M814 1010L880 1019M814 1010L759 1085M880 1019L962 975M880 1019L831 1118M962 975L1051 997M962 975L1030 1052M1051 997L1030 1052M1051 997L1055 1067M1189 1038L1270 980M1189 1038L1155 1105M1189 1038L1220 1093M1189 1038L1205 1140M1270 980L1309 1003M1270 980L1361 982M1309 1003L1361 982M1309 1003L1339 1090M1361 982L1445 992M1445 992L1542 1039M1445 992L1511 1077M1542 1039L1511 1077M1542 1039L1598 1118M1678 963L1688 1037M1678 963L1760 1037M1678 963L1714 1065M1688 1037L1760 1037M1688 1037L1714 1065M1760 1037L1714 1065M1760 1037L1763 1119M1917 970L1997 1012M1917 970L1885 1067M1997 1012L2066 1029M1997 1012L1938 1086M1997 1012L2018 1073M2066 1029L2157 991M2066 1029L2018 1073M2066 1029L2130 1086M2157 991L2236 1010M2157 991L2130 1086M2236 1010L2317 975M2236 1010L2172 1095M2236 1010L2267 1064M2317 975L2392 964M2392 964L2475 1013M2475 1013L2481 1037M2475 1013L2439 1070M2481 1037L2439 1070M2481 1037L2526 1103M78 1063L154 1049M154 1049L181 1116M154 1049L241 1045M181 1116L241 1045M181 1116L82 1189M181 1116L224 1123M241 1045L224 1123M357 1069L363 1163M476 1079L492 1103M476 1079L549 1128M492 1103L440 1194M492 1103L549 1128M492 1103L584 1168M631 1053L643 1045M631 1053L549 1128M631 1053L584 1168M759 1085L831 1118M759 1085L757 1130M831 1118L757 1130M831 1118L803 1174M831 1118L902 1149M939 1119L1030 1052M939 1119L902 1149M939 1119L1021 1179M939 1119L940 1207M1030 1052L1055 1067M1055 1067L1155 1105M1155 1105L1220 1093M1155 1105L1197 1157M1155 1105L1205 1140M1220 1093L1197 1157M1220 1093L1205 1140M1339 1090L1423 1113M1339 1090L1324 1186M1423 1113L1511 1077M1423 1113L1401 1164M1423 1113L1453 1145M1511 1077L1453 1145M1511 1077L1549 1146M1598 1118L1639 1115M1598 1118L1549 1146M1639 1115L1714 1065M1639 1115L1549 1146M1639 1115L1669 1192M1639 1115L1714 1163M1714 1065L1763 1119M1763 1119L1714 1163M1763 1119L1795 1157M1885 1067L1938 1086M1885 1067L1934 1140M1938 1086L2018 1073M1938 1086L1934 1140M2018 1073L1934 1140M2018 1073L2099 1137M2130 1086L2172 1095M2130 1086L2076 1178M2130 1086L2099 1137M2172 1095L2267 1064M2172 1095L2099 1137M2172 1095L2219 1151M2267 1064L2219 1151M2267 1064L2294 1138M2390 1105L2439 1070M2390 1105L2294 1138M2390 1105L2428 1194M2390 1105L2428 1205M2439 1070L2526 1103M2526 1103L2568 1160M2526 1103L2516 1182M-34 1103L8 1160M8 1160L82 1189M8 1160L-44 1182M8 1160L16 1208M8 1160L-28 1212M2568 1160L2516 1182M2568 1160L2532 1212M82 1189L16 1208M82 1189L81 1225M82 1189L-28 1212M2642 1189L2532 1212M224 1123L294 1171M224 1123L238 1228M224 1123L252 1233M294 1171L363 1163M294 1171L238 1228M294 1171L252 1233M363 1163L440 1194M363 1163L387 1242M440 1194L387 1242M440 1194L465 1221M549 1128L584 1168M549 1128L585 1216M584 1168L585 1216M584 1168L645 1253M708 1189L757 1130M708 1189L803 1174M708 1189L645 1253M708 1189L733 1248M757 1130L803 1174M803 1174L857 1237M902 1149L857 1237M902 1149L940 1207M1021 1179L1052 1200M1021 1179L940 1207M1052 1200L1081 1274M1197 1157L1205 1140M1197 1157L1248 1233M1324 1186L1401 1164M1324 1186L1248 1233M1324 1186L1326 1270M1324 1186L1381 1209M1401 1164L1453 1145M1401 1164L1381 1209M1401 1164L1446 1246M1453 1145L1549 1146M1453 1145L1381 1209M1549 1146L1580 1252M1669 1192L1714 1163M1669 1192L1580 1252M1669 1192L1630 1273M1669 1192L1752 1213M1714 1163L1795 1157M1714 1163L1752 1213M1795 1157L1864 1177M1795 1157L1752 1213M1864 1177L1934 1140M1864 1177L1829 1262M1864 1177L1890 1246M1864 1177L1953 1212M1934 1140L1953 1212M2076 1178L2099 1137M2076 1178L2071 1267M2076 1178L2108 1254M2219 1151L2294 1138M2294 1138L2330 1197M2330 1197L2428 1194M2330 1197L2286 1256M2330 1197L2324 1237M2330 1197L2428 1205M2428 1194L2516 1182M2428 1194L2428 1205M2516 1182L2576 1208M2516 1182L2532 1212M-44 1182L16 1208M16 1208L81 1225M16 1208L-28 1212M2576 1208L2532 1212M81 1225L-28 1212M81 1225L52 1347M81 1225L132 1311M2641 1225L2532 1212M238 1228L252 1233M238 1228L226 1343M387 1242L465 1221M387 1242L391 1285M387 1242L466 1300M465 1221L519 1260M465 1221L391 1285M465 1221L466 1300M519 1260L585 1216M519 1260L466 1300M519 1260L548 1348M519 1260L571 1326M585 1216L645 1253M645 1253L733 1248M645 1253L721 1288M733 1248L690 1345M733 1248L721 1288M733 1248L823 1313M857 1237L940 1207M857 1237L823 1313M940 1207L993 1275M993 1275L956 1313M993 1275L1005 1322M1081 1274L1005 1322M1081 1274L1114 1331M1081 1274L1146 1314M1081 1274L1052 1362M1186 1275L1248 1233M1186 1275L1114 1331M1186 1275L1146 1314M1186 1275L1240 1326M1186 1275L1213 1367M1248 1233L1326 1270M1248 1233L1240 1326M1326 1270L1381 1209M1326 1270L1240 1326M1326 1270L1293 1322M1381 1209L1446 1246M1446 1246L1434 1354M1580 1252L1630 1273M1580 1252L1584 1316M1580 1252L1650 1308M1630 1273L1584 1316M1630 1273L1650 1308M1630 1273L1733 1290M1752 1213L1733 1290M1829 1262L1890 1246M1829 1262L1812 1288M1829 1262L1863 1329M1829 1262L1836 1367M1890 1246L1953 1212M1890 1246L1812 1288M1890 1246L1863 1329M2071 1267L2108 1254M2071 1267L2051 1302M2108 1254L2051 1302M2223 1268L2286 1256M2223 1268L2324 1237M2223 1268L2239 1324M2223 1268L2249 1292M2286 1256L2324 1237M2286 1256L2249 1292M2286 1256L2333 1312M2324 1237L2249 1292M2324 1237L2333 1312M2428 1205L2416 1299M52 1347L132 1311M52 1347L-11 1327M52 1347L19 1383M52 1347L97 1434M2612 1347L2549 1327M132 1311L226 1343M132 1311L238 1362M226 1343L299 1325M226 1343L238 1362M299 1325L391 1285M299 1325L238 1362M299 1325L318 1411M299 1325L384 1373M391 1285L466 1300M391 1285L384 1373M466 1300L469 1378M548 1348L571 1326M548 1348L469 1378M548 1348L528 1411M548 1348L619 1364M571 1326L619 1364M690 1345L721 1288M690 1345L619 1364M690 1345L704 1406M690 1345L729 1377M721 1288L823 1313M721 1288L729 1377M823 1313L860 1389M823 1313L901 1405M956 1313L1005 1322M956 1313L901 1405M1005 1322L988 1413M1005 1322L1052 1362M1114 1331L1146 1314M1114 1331L1052 1362M1146 1314L1213 1367M1240 1326L1293 1322M1240 1326L1213 1367M1293 1322L1213 1367M1293 1322L1342 1365M1434 1354L1506 1359M1434 1354L1342 1365M1434 1354L1400 1413M1506 1359L1584 1316M1506 1359L1494 1433M1506 1359L1581 1432M1584 1316L1650 1308M1650 1308L1733 1290M1650 1308L1721 1392M1733 1290L1812 1288M1733 1290L1721 1392M1812 1288L1863 1329M1812 1288L1836 1367M1863 1329L1836 1367M1863 1329L1909 1402M1974 1354L2051 1302M1974 1354L1909 1402M1974 1354L1952 1415M1974 1354L2032 1366M2051 1302L2143 1358M2051 1302L2032 1366M2143 1358L2239 1324M2143 1358L2093 1417M2143 1358L2171 1408M2239 1324L2249 1292M2239 1324L2333 1312M2239 1324L2242 1395M2249 1292L2333 1312M2333 1312L2416 1299M2549 1327L2579 1383M2549 1327L2471 1433M2549 1327L2512 1423M-11 1327L19 1383M19 1383L97 1434M19 1383L-48 1423M2579 1383L2512 1423M238 1362L318 1411M318 1411L384 1373M384 1373L469 1378M469 1378L528 1411M528 1411L619 1364M619 1364L704 1406M704 1406L729 1377M860 1389L901 1405M901 1405L988 1413M988 1413L1052 1362M1175 1428L1213 1367M1342 1365L1400 1413M1494 1433L1581 1432M1581 1432L1667 1406M1667 1406L1721 1392M1721 1392L1836 1367M1836 1367L1909 1402M1909 1402L1952 1415M1952 1415L2032 1366M2032 1366L2093 1417M2093 1417L2171 1408M2171 1408L2242 1395M2242 1395L2327 1431M2471 1433L2512 1423"/></svg>