<svg xmlns="http://www.w3.org/2000/svg" width="2560" height="1440" fill="#fff"><circle cx="43" cy="55" r="5"/><circle cx="150" cy="77" r="6"/><circle cx="172" cy="65" r="6"/><circle cx="240" cy="15" r="6"/><circle cx="367" cy="30" r="5"/><circle cx="463" cy="76" r="6"/><circle cx="528" cy="79" r="5"/><circle cx="585" cy="68" r="6"/><circle cx="703" cy="63" r="4"/><circle cx="778" cy="33" r="5"/><circle cx="858" cy="67" r="4"/><circle cx="959" cy="25" r="6"/><circle cx="971" cy="25" r="5"/><circle cx="1103" cy="5" r="6"/><circle cx="1103" cy="1445" r="6"/><circle cx="1173" cy="48" r="6"/><circle cx="1220" cy="39" r="5"/><circle cx="1348" cy="72" r="6"/><circle cx="1428" cy="3" r="5"/><circle cx="1428" cy="1443" r="5"/><circle cx="1490" cy="69" r="6"/><circle cx="1567" cy="22" r="6"/><circle cx="1642" cy="10" r="4"/><circle cx="1739" cy="11" r="4"/><circle cx="1766" cy="29" r="6"/><circle cx="1875" cy="44" r="4"/><circle cx="1935" cy="16" r="6"/><circle cx="2078" cy="27" r="6"/><circle cx="2105" cy="1" r="6"/><circle cx="2105" cy="1441" r="6"/><circle cx="2197" cy="7" r="6"/><circle cx="2281" cy="53" r="4"/><circle cx="2327" cy="78" r="4"/><circle cx="2447" cy="6" r="4"/><circle cx="2526" cy="78" r="5"/><circle cx="16" cy="84" r="6"/><circle cx="128" cy="106" r="6"/><circle cx="198" cy="114" r="4"/><circle cx="320" cy="94" r="4"/><circle cx="339" cy="141" r="5"/><circle cx="401" cy="133" r="5"/><circle cx="525" cy="126" r="6"/><circle cx="640" cy="152" r="4"/><circle cx="692" cy="148" r="4"/><circle cx="738" cy="83" r="6"/><circle cx="862" cy="120" r="5"/><circle cx="881" cy="117" r="4"/><circle cx="989" cy="83" r="6"/><circle cx="1119" cy="117" r="6"/><circle cx="1143" cy="81" r="4"/><circle cx="1269" cy="136" r="5"/><circle cx="1360" cy="86" r="5"/><circle cx="1435" cy="98" r="5"/><circle cx="1488" cy="104" r="5"/><circle cx="1524" cy="128" r="5"/><circle cx="1649" cy="89" r="5"/><circle cx="1700" cy="91" r="4"/><circle cx="1777" cy="105" r="6"/><circle cx="1842" cy="115" r="6"/><circle cx="1968" cy="137" r="5"/><circle cx="2006" cy="102" r="6"/><circle cx="2100" cy="150" r="6"/><circle cx="2187" cy="154" r="5"/><circle cx="2308" cy="143" r="5"/><circle cx="2355" cy="142" r="6"/><circle cx="2440" cy="151" r="5"/><circle cx="2501" cy="89" r="5"/><circle cx="29" cy="197" r="6"/><circle cx="123" cy="176" r="5"/><circle cx="215" cy="233" r="5"/><circle cx="254" cy="219" r="6"/><circle cx="369" cy="213" r="5"/><circle cx="417" cy="164" r="6"/><circle cx="521" cy="215" r="6"/><circle cx="587" cy="220" r="5"/><circle cx="713" cy="178" r="5"/><circle cx="726" cy="223" r="5"/><circle cx="869" cy="192" r="6"/><circle cx="958" cy="206" r="4"/><circle cx="967" cy="189" r="5"/><circle cx="1055" cy="184" r="5"/><circle cx="1172" cy="226" r="5"/><circle cx="1252" cy="199" r="5"/><circle cx="1286" cy="172" r="5"/><circle cx="1405" cy="213" r="5"/><circle cx="1480" cy="221" r="5"/><circle cx="1539" cy="166" r="4"/><circle cx="1670" cy="192" r="6"/><circle cx="1705" cy="196" r="5"/><circle cx="1830" cy="203" r="5"/><circle cx="1912" cy="174" r="4"/><circle cx="1949" cy="190" r="5"/><circle cx="2016" cy="164" r="5"/><circle cx="2128" cy="213" r="4"/><circle cx="2196" cy="233" r="5"/><circle cx="2286" cy="184" r="4"/><circle cx="2377" cy="185" r="4"/><circle cx="2441" cy="193" r="4"/><circle cx="2494" cy="168" r="5"/><circle cx="24" cy="244" r="6"/><circle cx="90" cy="290" r="4"/><circle cx="189" cy="269" r="4"/><circle cx="312" cy="265" r="5"/><circle cx="330" cy="270" r="5"/><circle cx="469" cy="247" r="4"/><circle cx="481" cy="284" r="5"/><circle cx="615" cy="282" r="5"/><circle cx="662" cy="311" r="5"/><circle cx="723" cy="264" r="6"/><circle cx="825" cy="262" r="5"/><circle cx="906" cy="262" r="5"/><circle cx="979" cy="250" r="5"/><circle cx="1097" cy="247" r="5"/><circle cx="1137" cy="256" r="4"/><circle cx="1251" cy="274" r="4"/><circle cx="1285" cy="279" r="5"/><circle cx="1380" cy="266" r="6"/><circle cx="1483" cy="305" r="5"/><circle cx="1523" cy="270" r="6"/><circle cx="1656" cy="281" r="4"/><circle cx="1748" cy="253" r="4"/><circle cx="1819" cy="254" r="4"/><circle cx="1882" cy="268" r="5"/><circle cx="1926" cy="273" r="4"/><circle cx="2079" cy="310" r="6"/><circle cx="2083" cy="267" r="4"/><circle cx="2213" cy="241" r="4"/><circle cx="2296" cy="265" r="5"/><circle cx="2376" cy="297" r="5"/><circle cx="2456" cy="305" r="5"/><circle cx="2544" cy="270" r="5"/><circle cx="8" cy="323" r="5"/><circle cx="155" cy="325" r="5"/><circle cx="163" cy="376" r="4"/><circle cx="269" cy="325" r="4"/><circle cx="355" cy="364" r="6"/><circle cx="458" cy="359" r="5"/><circle cx="516" cy="354" r="5"/><circle cx="589" cy="343" r="5"/><circle cx="675" cy="362" r="5"/><circle cx="725" cy="334" r="4"/><circle cx="808" cy="375" r="6"/><circle cx="911" cy="339" r="5"/><circle cx="1014" cy="327" r="4"/><circle cx="1089" cy="376" r="5"/><circle cx="1150" cy="385" r="6"/><circle cx="1238" cy="336" r="5"/><circle cx="1284" cy="392" r="5"/><circle cx="1440" cy="322" r="6"/><circle cx="1489" cy="347" r="6"/><circle cx="1586" cy="376" r="5"/><circle cx="1652" cy="375" r="4"/><circle cx="1706" cy="332" r="6"/><circle cx="1774" cy="344" r="5"/><circle cx="1897" cy="365" r="4"/><circle cx="1957" cy="372" r="5"/><circle cx="2067" cy="388" r="5"/><circle cx="2098" cy="327" r="6"/><circle cx="2218" cy="384" r="5"/><circle cx="2255" cy="367" r="4"/><circle cx="2357" cy="377" r="4"/><circle cx="2472" cy="387" r="6"/><circle cx="2501" cy="349" r="5"/><circle cx="24" cy="446" r="5"/><circle cx="147" cy="444" r="4"/><circle cx="219" cy="421" r="5"/><circle cx="287" cy="429" r="4"/><circle cx="356" cy="419" r="5"/><circle cx="439" cy="433" r="4"/><circle cx="529" cy="442" r="5"/><circle cx="606" cy="435" r="5"/><circle cx="719" cy="426" r="6"/><circle cx="758" cy="446" r="4"/><circle cx="847" cy="465" r="4"/><circle cx="937" cy="419" r="5"/><circle cx="1005" cy="472" r="4"/><circle cx="1104" cy="437" r="5"/><circle cx="1164" cy="469" r="5"/><circle cx="1209" cy="479" r="4"/><circle cx="1281" cy="478" r="5"/><circle cx="1388" cy="416" r="5"/><circle cx="1489" cy="462" r="5"/><circle cx="1587" cy="419" r="6"/><circle cx="1672" cy="450" r="4"/><circle cx="1687" cy="458" r="4"/><circle cx="1827" cy="456" r="4"/><circle cx="1858" cy="447" r="6"/><circle cx="1979" cy="412" r="6"/><circle cx="2067" cy="463" r="5"/><circle cx="2141" cy="469" r="6"/><circle cx="2213" cy="435" r="4"/><circle cx="2279" cy="467" r="5"/><circle cx="2358" cy="459" r="6"/><circle cx="2432" cy="418" r="6"/><circle cx="2525" cy="423" r="5"/><circle cx="58" cy="538" r="5"/><circle cx="96" cy="505" r="6"/><circle cx="165" cy="546" r="4"/><circle cx="286" cy="489" r="6"/><circle cx="373" cy="519" r="5"/><circle cx="431" cy="494" r="5"/><circle cx="495" cy="525" r="6"/><circle cx="588" cy="529" r="6"/><circle cx="696" cy="550" r="5"/><circle cx="767" cy="501" r="4"/><circle cx="839" cy="542" r="5"/><circle cx="913" cy="536" r="6"/><circle cx="974" cy="518" r="5"/><circle cx="1085" cy="521" r="4"/><circle cx="1155" cy="511" r="5"/><circle cx="1206" cy="546" r="4"/><circle cx="1344" cy="498" r="5"/><circle cx="1424" cy="484" r="5"/><circle cx="1477" cy="516" r="4"/><circle cx="1534" cy="516" r="4"/><circle cx="1677" cy="493" r="5"/><circle cx="1744" cy="503" r="5"/><circle cx="1805" cy="486" r="5"/><circle cx="1856" cy="495" r="5"/><circle cx="1995" cy="505" r="6"/><circle cx="2048" cy="497" r="5"/><circle cx="2134" cy="529" r="5"/><circle cx="2221" cy="489" r="5"/><circle cx="2265" cy="511" r="4"/><circle cx="2329" cy="542" r="5"/><circle cx="2417" cy="547" r="5"/><circle cx="2502" cy="499" r="6"/><circle cx="19" cy="575" r="6"/><circle cx="147" cy="585" r="5"/><circle cx="222" cy="578" r="5"/><circle cx="288" cy="598" r="6"/><circle cx="325" cy="571" r="4"/><circle cx="415" cy="634" r="5"/><circle cx="517" cy="621" r="5"/><circle cx="615" cy="626" r="5"/><circle cx="696" cy="625" r="5"/><circle cx="726" cy="578" r="5"/><circle cx="837" cy="579" r="4"/><circle cx="898" cy="606" r="4"/><circle cx="997" cy="629" r="4"/><circle cx="1097" cy="607" r="5"/><circle cx="1165" cy="599" r="4"/><circle cx="1257" cy="614" r="5"/><circle cx="1299" cy="639" r="5"/><circle cx="1436" cy="598" r="6"/><circle cx="1472" cy="613" r="4"/><circle cx="1522" cy="584" r="4"/><circle cx="1637" cy="604" r="6"/><circle cx="1735" cy="635" r="4"/><circle cx="1783" cy="584" r="6"/><circle cx="1845" cy="601" r="5"/><circle cx="1984" cy="619" r="4"/><circle cx="2048" cy="599" r="5"/><circle cx="2124" cy="621" r="6"/><circle cx="2186" cy="575" r="5"/><circle cx="2290" cy="623" r="5"/><circle cx="2349" cy="603" r="5"/><circle cx="2447" cy="600" r="5"/><circle cx="2553" cy="577" r="5"/><circle cx="23" cy="661" r="5"/><circle cx="124" cy="656" r="5"/><circle cx="185" cy="668" r="6"/><circle cx="307" cy="708" r="5"/><circle cx="344" cy="692" r="5"/><circle cx="453" cy="713" r="5"/><circle cx="481" cy="714" r="4"/><circle cx="581" cy="661" r="5"/><circle cx="701" cy="651" r="4"/><circle cx="788" cy="714" r="4"/><circle cx="875" cy="656" r="4"/><circle cx="881" cy="649" r="4"/><circle cx="962" cy="654" r="4"/><circle cx="1071" cy="709" r="6"/><circle cx="1136" cy="671" r="4"/><circle cx="1213" cy="676" r="5"/><circle cx="1315" cy="675" r="6"/><circle cx="1373" cy="686" r="4"/><circle cx="1508" cy="709" r="6"/><circle cx="1553" cy="663" r="6"/><circle cx="1619" cy="705" r="4"/><circle cx="1711" cy="672" r="4"/><circle cx="1791" cy="657" r="5"/><circle cx="1867" cy="705" r="5"/><circle cx="1988" cy="686" r="6"/><circle cx="2052" cy="664" r="4"/><circle cx="2101" cy="657" r="4"/><circle cx="2204" cy="697" r="5"/><circle cx="2248" cy="702" r="5"/><circle cx="2350" cy="703" r="4"/><circle cx="2417" cy="703" r="5"/><circle cx="2484" cy="670" r="4"/><circle cx="38" cy="729" r="4"/><circle cx="140" cy="724" r="6"/><circle cx="163" cy="721" r="5"/><circle cx="250" cy="786" r="6"/><circle cx="354" cy="725" r="6"/><circle cx="449" cy="794" r="5"/><circle cx="491" cy="758" r="4"/><circle cx="621" cy="735" r="5"/><circle cx="692" cy="787" r="5"/><circle cx="773" cy="731" r="6"/><circle cx="864" cy="741" r="6"/><circle cx="907" cy="723" r="5"/><circle cx="986" cy="729" r="5"/><circle cx="1105" cy="764" r="4"/><circle cx="1181" cy="770" r="6"/><circle cx="1206" cy="760" r="4"/><circle cx="1346" cy="788" r="5"/><circle cx="1425" cy="790" r="5"/><circle cx="1445" cy="793" r="5"/><circle cx="1563" cy="798" r="4"/><circle cx="1641" cy="763" r="5"/><circle cx="1753" cy="746" r="5"/><circle cx="1833" cy="775" r="6"/><circle cx="1857" cy="748" r="5"/><circle cx="1999" cy="768" r="6"/><circle cx="2065" cy="753" r="6"/><circle cx="2131" cy="735" r="5"/><circle cx="2194" cy="793" r="4"/><circle cx="2269" cy="773" r="6"/><circle cx="2371" cy="799" r="5"/><circle cx="2416" cy="721" r="6"/><circle cx="2516" cy="738" r="5"/><circle cx="55" cy="848" r="4"/><circle cx="139" cy="868" r="5"/><circle cx="217" cy="812" r="5"/><circle cx="251" cy="866" r="6"/><circle cx="387" cy="850" r="5"/><circle cx="450" cy="804" r="4"/><circle cx="543" cy="877" r="6"/><circle cx="631" cy="855" r="5"/><circle cx="706" cy="814" r="6"/><circle cx="762" cy="852" r="4"/><circle cx="860" cy="873" r="5"/><circle cx="955" cy="842" r="4"/><circle cx="984" cy="818" r="4"/><circle cx="1064" cy="838" r="6"/><circle cx="1172" cy="813" r="6"/><circle cx="1259" cy="820" r="5"/><circle cx="1319" cy="874" r="5"/><circle cx="1381" cy="873" r="5"/><circle cx="1452" cy="868" r="6"/><circle cx="1542" cy="805" r="5"/><circle cx="1678" cy="828" r="4"/><circle cx="1687" cy="824" r="5"/><circle cx="1799" cy="824" r="6"/><circle cx="1871" cy="867" r="4"/><circle cx="1939" cy="874" r="5"/><circle cx="2073" cy="850" r="6"/><circle cx="2102" cy="841" r="4"/><circle cx="2199" cy="817" r="6"/><circle cx="2259" cy="865" r="6"/><circle cx="2320" cy="859" r="4"/><circle cx="2436" cy="875" r="5"/><circle cx="2542" cy="841" r="6"/><circle cx="47" cy="940" r="5"/><circle cx="122" cy="958" r="4"/><circle cx="174" cy="908" r="5"/><circle cx="254" cy="886" r="5"/><circle cx="341" cy="915" r="6"/><circle cx="424" cy="928" r="4"/><circle cx="499" cy="904" r="4"/><circle cx="627" cy="906" r="5"/><circle cx="675" cy="915" r="5"/><circle cx="757" cy="934" r="4"/><circle cx="825" cy="938" r="5"/><circle cx="924" cy="936" r="5"/><circle cx="1012" cy="950" r="6"/><circle cx="1070" cy="949" r="6"/><circle cx="1153" cy="903" r="5"/><circle cx="1238" cy="950" r="5"/><circle cx="1332" cy="948" r="5"/><circle cx="1435" cy="933" r="5"/><circle cx="1441" cy="942" r="5"/><circle cx="1551" cy="890" r="5"/><circle cx="1621" cy="900" r="5"/><circle cx="1731" cy="889" r="6"/><circle cx="1785" cy="950" r="5"/><circle cx="1867" cy="886" r="5"/><circle cx="1940" cy="958" r="6"/><circle cx="2006" cy="880" r="5"/><circle cx="2109" cy="946" r="4"/><circle cx="2236" cy="883" r="6"/><circle cx="2283" cy="956" r="5"/><circle cx="2333" cy="926" r="5"/><circle cx="2463" cy="884" r="4"/><circle cx="2503" cy="913" r="6"/><circle cx="69" cy="997" r="5"/><circle cx="111" cy="997" r="6"/><circle cx="173" cy="1001" r="6"/><circle cx="269" cy="1031" r="6"/><circle cx="390" cy="1008" r="6"/><circle cx="410" cy="1010" r="5"/><circle cx="481" cy="1012" r="5"/><circle cx="567" cy="1034" r="4"/><circle cx="663" cy="980" r="5"/><circle cx="773" cy="1039" r="5"/><circle cx="853" cy="973" r="5"/><circle cx="902" cy="1020" r="5"/><circle cx="995" cy="1002" r="5"/><circle cx="1040" cy="966" r="5"/><circle cx="1126" cy="1000" r="5"/><circle cx="1227" cy="963" r="5"/><circle cx="1283" cy="965" r="4"/><circle cx="1415" cy="971" r="5"/><circle cx="1467" cy="1022" r="5"/><circle cx="1553" cy="999" r="4"/><circle cx="1623" cy="1013" r="5"/><circle cx="1702" cy="986" r="4"/><circle cx="1807" cy="1016" r="5"/><circle cx="1914" cy="1039" r="4"/><circle cx="1962" cy="1007" r="5"/><circle cx="2034" cy="1009" r="4"/><circle cx="2101" cy="963" r="4"/><circle cx="2181" cy="978" r="5"/><circle cx="2308" cy="1035" r="6"/><circle cx="2330" cy="1011" r="5"/><circle cx="2479" cy="981" r="6"/><circle cx="2548" cy="1018" r="4"/><circle cx="22" cy="1104" r="4"/><circle cx="110" cy="1098" r="5"/><circle cx="187" cy="1075" r="5"/><circle cx="302" cy="1055" r="6"/><circle cx="321" cy="1062" r="5"/><circle cx="434" cy="1108" r="4"/><circle cx="513" cy="1087" r="4"/><circle cx="617" cy="1083" r="6"/><circle cx="710" cy="1083" r="5"/><circle cx="741" cy="1067" r="6"/><circle cx="854" cy="1078" r="5"/><circle cx="892" cy="1052" r="5"/><circle cx="982" cy="1067" r="6"/><circle cx="1057" cy="1100" r="4"/><circle cx="1144" cy="1041" r="4"/><circle cx="1232" cy="1068" r="5"/><circle cx="1282" cy="1112" r="4"/><circle cx="1401" cy="1081" r="5"/><circle cx="1518" cy="1062" r="6"/><circle cx="1594" cy="1068" r="6"/><circle cx="1639" cy="1106" r="4"/><circle cx="1744" cy="1064" r="5"/><circle cx="1825" cy="1068" r="6"/><circle cx="1864" cy="1083" r="4"/><circle cx="1940" cy="1084" r="5"/><circle cx="2023" cy="1109" r="5"/><circle cx="2133" cy="1076" r="4"/><circle cx="2224" cy="1048" r="6"/><circle cx="2258" cy="1058" r="5"/><circle cx="2374" cy="1088" r="5"/><circle cx="2435" cy="1113" r="6"/><circle cx="2509" cy="1115" r="5"/><circle cx="19" cy="1138" r="4"/><circle cx="137" cy="1195" r="5"/><circle cx="175" cy="1146" r="4"/><circle cx="288" cy="1127" r="5"/><circle cx="370" cy="1187" r="5"/><circle cx="447" cy="1154" r="5"/><circle cx="548" cy="1147" r="4"/><circle cx="565" cy="1171" r="6"/><circle cx="715" cy="1129" r="6"/><circle cx="729" cy="1137" r="5"/><circle cx="853" cy="1179" r="4"/><circle cx="951" cy="1177" r="5"/><circle cx="1004" cy="1121" r="6"/><circle cx="1103" cy="1155" r="5"/><circle cx="1148" cy="1143" r="5"/><circle cx="1250" cy="1141" r="5"/><circle cx="1332" cy="1131" r="4"/><circle cx="1409" cy="1151" r="5"/><circle cx="1467" cy="1136" r="6"/><circle cx="1552" cy="1154" r="4"/><circle cx="1605" cy="1121" r="5"/><circle cx="1730" cy="1144" r="6"/><circle cx="1824" cy="1167" r="5"/><circle cx="1872" cy="1154" r="4"/><circle cx="1965" cy="1161" r="4"/><circle cx="2024" cy="1124" r="5"/><circle cx="2119" cy="1140" r="5"/><circle cx="2224" cy="1147" r="5"/><circle cx="2256" cy="1120" r="6"/><circle cx="2332" cy="1189" r="4"/><circle cx="2400" cy="1143" r="5"/><circle cx="2556" cy="1178" r="5"/><circle cx="-4" cy="1178" r="5"/><circle cx="19" cy="1217" r="4"/><circle cx="153" cy="1278" r="6"/><circle cx="182" cy="1221" r="6"/><circle cx="262" cy="1269" r="5"/><circle cx="388" cy="1278" r="6"/><circle cx="447" cy="1242" r="6"/><circle cx="543" cy="1244" r="6"/><circle cx="605" cy="1220" r="4"/><circle cx="667" cy="1218" r="4"/><circle cx="724" cy="1210" r="5"/><circle cx="836" cy="1205" r="6"/><circle cx="914" cy="1202" r="5"/><circle cx="1015" cy="1242" r="4"/><circle cx="1063" cy="1268" r="5"/><circle cx="1153" cy="1276" r="6"/><circle cx="1221" cy="1216" r="6"/><circle cx="1309" cy="1214" r="6"/><circle cx="1365" cy="1271" r="5"/><circle cx="1508" cy="1227" r="5"/><circle cx="1559" cy="1204" r="6"/><circle cx="1658" cy="1208" r="4"/><circle cx="1682" cy="1212" r="5"/><circle cx="1817" cy="1222" r="5"/><circle cx="1880" cy="1249" r="5"/><circle cx="1955" cy="1242" r="4"/><circle cx="2051" cy="1248" r="5"/><circle cx="2107" cy="1210" r="5"/><circle cx="2190" cy="1253" r="4"/><circle cx="2304" cy="1277" r="5"/><circle cx="2389" cy="1247" r="5"/><circle cx="2415" cy="1233" r="5"/><circle cx="2487" cy="1217" r="5"/><circle cx="60" cy="1345" r="5"/><circle cx="106" cy="1294" r="4"/><circle cx="195" cy="1337" r="5"/><circle cx="296" cy="1332" r="5"/><circle cx="375" cy="1284" r="6"/><circle cx="469" cy="1318" r="6"/><circle cx="517" cy="1340" r="5"/><circle cx="598" cy="1297" r="5"/><circle cx="710" cy="1324" r="6"/><circle cx="783" cy="1311" r="5"/><circle cx="874" cy="1304" r="6"/><circle cx="898" cy="1343" r="5"/><circle cx="998" cy="1347" r="5"/><circle cx="1107" cy="1337" r="5"/><circle cx="1140" cy="1285" r="5"/><circle cx="1208" cy="1290" r="6"/><circle cx="1318" cy="1297" r="4"/><circle cx="1382" cy="1358" r="6"/><circle cx="1469" cy="1326" r="5"/><circle cx="1555" cy="1286" r="6"/><circle cx="1647" cy="1316" r="5"/><circle cx="1710" cy="1293" r="5"/><circle cx="1818" cy="1299" r="5"/><circle cx="1917" cy="1295" r="6"/><circle cx="1941" cy="1308" r="6"/><circle cx="2049" cy="1300" r="5"/><circle cx="2092" cy="1317" r="4"/><circle cx="2227" cy="1300" r="4"/><circle cx="2278" cy="1334" r="5"/><circle cx="2352" cy="1351" r="4"/><circle cx="2415" cy="1355" r="4"/><circle cx="2498" cy="1299" r="4"/><circle cx="21" cy="1419" r="5"/><circle cx="110" cy="1422" r="6"/><circle cx="208" cy="1426" r="4"/><circle cx="258" cy="1414" r="5"/><circle cx="340" cy="1412" r="5"/><circle cx="442" cy="1440" r="4"/><circle cx="442" cy="-0" r="4"/><circle cx="555" cy="1428" r="6"/><circle cx="618" cy="1412" r="5"/><circle cx="659" cy="1376" r="4"/><circle cx="749" cy="1364" r="6"/><circle cx="875" cy="1378" r="4"/><circle cx="953" cy="1397" r="5"/><circle cx="1010" cy="1376" r="5"/><circle cx="1088" cy="1437" r="6"/><circle cx="1088" cy="-3" r="6"/><circle cx="1197" cy="1366" r="5"/><circle cx="1240" cy="1389" r="5"/><circle cx="1287" cy="1381" r="4"/><circle cx="1379" cy="1400" r="5"/><circle cx="1478" cy="1372" r="4"/><circle cx="1556" cy="1436" r="6"/><circle cx="1556" cy="-4" r="6"/><circle cx="1665" cy="1415" r="4"/><circle cx="1702" cy="1390" r="5"/><circle cx="1828" cy="1423" r="5"/><circle cx="1841" cy="1364" r="5"/><circle cx="1949" cy="1388" r="6"/><circle cx="2013" cy="1411" r="4"/><circle cx="2115" cy="1402" r="4"/><circle cx="2234" cy="1392" r="6"/><circle cx="2293" cy="1419" r="4"/><circle cx="2368" cy="1402" r="5"/><circle cx="2471" cy="1427" r="6"/><circle cx="2523" cy="1436" r="5"/><circle cx="2523" cy="-4" r="5"/><path stroke="#fff" d="M43 55L-34 78M43 55L16 84M43 55L128 106M43 55L21 -21M43 55L110 -18M2603 55L2526 78M43 1495L21 1419M43 1495L110 1422M150 77L172 65M150 77L128 106M150 77L198 114M150 77L123 176M150 77L110 -18M150 1517L110 1422M172 65L240 15M172 65L128 106M172 65L198 114M172 65L208 -14M172 1505L208 1426M240 15L198 114M240 15L208 -14M240 15L258 -26M240 15L340 -28M240 1455L208 1426M240 1455L258 1414M240 1455L340 1412M367 30L320 94M367 30L340 -28M367 30L442 -0M367 1470L340 1412M367 1470L442 1440M463 76L528 79M463 76L401 133M463 76L525 126M463 76L417 164M463 76L442 -0M463 1516L442 1440M528 79L585 68M528 79L525 126M528 79L442 -0M528 79L555 -12M528 1519L442 1440M528 1519L555 1428M585 68L525 126M585 68L640 152M585 68L555 -12M585 68L618 -28M585 1508L555 1428M585 1508L618 1412M703 63L778 33M703 63L692 148M703 63L738 83M778 33L858 67M778 33L738 83M778 33L862 120M778 33L749 -76M778 1473L749 1364M858 67L959 25M858 67L862 120M858 67L881 117M959 25L971 25M959 25L989 83M959 25L953 -43M959 25L1010 -64M959 1465L953 1397M959 1465L1010 1376M971 25L989 83M971 25L953 -43M971 25L1010 -64M971 1465L953 1397M971 1465L1010 1376M1103 5L1173 48M1103 5L1119 117M1103 5L1143 81M1103 5L1088 -3M1103 1445L1088 1437M1173 48L1220 39M1173 48L1119 117M1173 48L1143 81M1173 48L1088 -3M1173 1488L1088 1437M1220 39L1143 81M1220 39L1269 136M1220 39L1197 -74M1220 39L1240 -51M1220 1479L1197 1366M1220 1479L1240 1389M1348 72L1269 136M1348 72L1360 86M1348 72L1435 98M1348 72L1379 -40M1348 1512L1379 1400M1428 3L1490 69M1428 3L1382 -82M1428 3L1379 -40M1428 3L1478 -68M1428 1443L1382 1358M1428 1443L1379 1400M1428 1443L1478 1372M1490 69L1567 22M1490 69L1435 98M1490 69L1488 104M1490 69L1524 128M1567 22L1642 10M1567 22L1488 104M1567 22L1649 89M1567 22L1556 -4M1567 1462L1556 1436M1642 10L1649 89M1642 10L1556 -4M1642 10L1665 -25M1642 10L1702 -50M1642 1450L1556 1436M1642 1450L1665 1415M1642 1450L1702 1390M1739 11L1766 29M1739 11L1777 105M1739 11L1665 -25M1739 11L1702 -50M1739 11L1828 -17M1739 1451L1665 1415M1739 1451L1702 1390M1739 1451L1828 1423M1766 29L1700 91M1766 29L1777 105M1766 29L1702 -50M1766 29L1828 -17M1766 1469L1702 1390M1766 1469L1828 1423M1875 44L1935 16M1875 44L1842 115M1875 44L1828 -17M1875 1484L1828 1423M1935 16L2006 102M1935 16L1828 -17M1935 16L1949 -52M1935 16L2013 -29M1935 1456L1828 1423M1935 1456L1949 1388M1935 1456L2013 1411M2078 27L2105 1M2078 27L2006 102M2078 27L2013 -29M2078 27L2115 -38M2078 1467L2013 1411M2078 1467L2115 1402M2105 1L2197 7M2105 1L2013 -29M2105 1L2115 -38M2105 1441L2013 1411M2105 1441L2115 1402M2197 7L2281 53M2197 7L2115 -38M2197 7L2234 -48M2197 7L2293 -21M2197 1447L2115 1402M2197 1447L2234 1392M2197 1447L2293 1419M2281 53L2327 78M2281 53L2308 143M2281 53L2234 -48M2281 53L2293 -21M2281 1493L2234 1392M2281 1493L2293 1419M2327 78L2308 143M2327 78L2355 142M2447 6L2415 -85M2447 6L2368 -38M2447 6L2471 -13M2447 6L2523 -4M2447 1446L2415 1355M2447 1446L2368 1402M2447 1446L2471 1427M2447 1446L2523 1436M2526 78L2576 84M2526 78L2501 89M2526 78L2494 168M2526 78L2523 -4M-34 78L16 84M2526 1518L2523 1436M16 84L-59 89M16 84L29 197M16 84L-37 -4M2576 84L2501 89M2576 84L2523 -4M16 1524L-37 1436M2576 1524L2523 1436M128 106L198 114M128 106L123 176M198 114L123 176M320 94L339 141M320 94L401 133M339 141L401 133M339 141L254 219M339 141L369 213M339 141L417 164M401 133L369 213M401 133L417 164M525 126L521 215M640 152L692 148M640 152L587 220M640 152L713 178M692 148L738 83M692 148L713 178M692 148L726 223M738 83L862 120M738 83L713 178M862 120L881 117M862 120L869 192M881 117L869 192M989 83L967 189M1119 117L1143 81M1119 117L1055 184M1143 81L1088 -3M1143 1521L1088 1437M1269 136L1360 86M1269 136L1252 199M1269 136L1286 172M1360 86L1435 98M1360 86L1286 172M1435 98L1488 104M1435 98L1524 128M1488 104L1524 128M1488 104L1539 166M1524 128L1480 221M1524 128L1539 166M1649 89L1700 91M1649 89L1670 192M1700 91L1777 105M1700 91L1670 192M1700 91L1705 196M1777 105L1842 115M1777 105L1830 203M1842 115L1968 137M1842 115L1830 203M1842 115L1912 174M1968 137L2006 102M1968 137L1912 174M1968 137L1949 190M1968 137L2016 164M2006 102L2100 150M2006 102L2016 164M2100 150L2187 154M2100 150L2016 164M2100 150L2128 213M2187 154L2128 213M2187 154L2196 233M2187 154L2213 241M2308 143L2355 142M2308 143L2286 184M2308 143L2377 185M2355 142L2440 151M2355 142L2286 184M2355 142L2377 185M2440 151L2501 89M2440 151L2377 185M2440 151L2441 193M2440 151L2494 168M2501 89L2494 168M29 197L123 176M29 197L-66 168M29 197L24 244M29 197L-16 270M2589 197L2494 168M2589 197L2544 270M123 176L215 233M215 233L254 219M215 233L189 269M215 233L155 325M254 219L189 269M254 219L312 265M254 219L330 270M369 213L417 164M369 213L312 265M369 213L330 270M417 164L469 247M521 215L587 220M521 215L469 247M521 215L481 284M587 220L615 282M713 178L726 223M713 178L723 264M726 223L723 264M726 223L825 262M869 192L958 206M869 192L825 262M869 192L906 262M958 206L967 189M958 206L1055 184M958 206L906 262M958 206L979 250M967 189L1055 184M967 189L979 250M1055 184L979 250M1055 184L1097 247M1172 226L1252 199M1172 226L1097 247M1172 226L1137 256M1172 226L1251 274M1252 199L1286 172M1252 199L1251 274M1252 199L1285 279M1286 172L1251 274M1286 172L1285 279M1405 213L1480 221M1405 213L1380 266M1480 221L1539 166M1480 221L1483 305M1480 221L1523 270M1539 166L1523 270M1670 192L1705 196M1670 192L1656 281M1670 192L1748 253M1705 196L1656 281M1705 196L1748 253M1830 203L1912 174M1830 203L1819 254M1830 203L1882 268M1912 174L1949 190M1912 174L1882 268M1949 190L2016 164M1949 190L1882 268M1949 190L1926 273M2128 213L2196 233M2128 213L2083 267M2128 213L2213 241M2196 233L2286 184M2196 233L2213 241M2196 233L2296 265M2286 184L2377 185M2286 184L2296 265M2377 185L2441 193M2441 193L2494 168M24 244L90 290M24 244L-16 270M24 244L8 323M2584 244L2544 270M90 290L189 269M90 290L8 323M90 290L155 325M189 269L155 325M189 269L269 325M312 265L330 270M312 265L269 325M330 270L269 325M330 270L355 364M469 247L481 284M481 284L458 359M481 284L516 354M615 282L662 311M615 282L589 343M615 282L675 362M662 311L723 264M662 311L589 343M662 311L675 362M662 311L725 334M723 264L825 262M723 264L725 334M825 262L906 262M906 262L979 250M906 262L911 339M979 250L1014 327M1097 247L1137 256M1251 274L1285 279M1251 274L1238 336M1285 279L1380 266M1285 279L1238 336M1380 266L1483 305M1380 266L1440 322M1483 305L1523 270M1483 305L1440 322M1483 305L1489 347M1523 270L1440 322M1523 270L1489 347M1656 281L1706 332M1748 253L1819 254M1748 253L1706 332M1748 253L1774 344M1819 254L1882 268M1819 254L1926 273M1819 254L1774 344M1882 268L1926 273M1926 273L1897 365M1926 273L1957 372M2079 310L2083 267M2079 310L2067 388M2079 310L2098 327M2083 267L2098 327M2213 241L2296 265M2296 265L2376 297M2296 265L2255 367M2376 297L2456 305M2376 297L2357 377M2456 305L2544 270M2456 305L2472 387M2456 305L2501 349M2544 270L2568 323M2544 270L2501 349M-16 270L8 323M8 323L-59 349M2568 323L2501 349M155 325L163 376M155 325L219 421M163 376L147 444M163 376L219 421M269 325L355 364M355 364L458 359M355 364L287 429M355 364L356 419M458 359L516 354M458 359L439 433M516 354L589 343M516 354L529 442M589 343L675 362M589 343L606 435M675 362L725 334M675 362L719 426M725 334L808 375M725 334L719 426M808 375L911 339M808 375L719 426M808 375L758 446M808 375L847 465M911 339L1014 327M911 339L937 419M1014 327L1089 376M1089 376L1150 385M1089 376L1104 437M1150 385L1238 336M1150 385L1104 437M1150 385L1164 469M1150 385L1209 479M1238 336L1284 392M1284 392L1281 478M1284 392L1388 416M1284 392L1344 498M1440 322L1489 347M1440 322L1388 416M1489 347L1586 376M1586 376L1652 375M1586 376L1587 419M1652 375L1706 332M1652 375L1587 419M1652 375L1672 450M1652 375L1687 458M1706 332L1774 344M1897 365L1957 372M1897 365L1858 447M1897 365L1979 412M1957 372L1979 412M2067 388L2098 327M2067 388L1979 412M2067 388L2067 463M2218 384L2255 367M2218 384L2213 435M2255 367L2357 377M2255 367L2213 435M2357 377L2358 459M2357 377L2432 418M2472 387L2501 349M2472 387L2432 418M2472 387L2525 423M2501 349L2525 423M24 446L-35 423M24 446L58 538M24 446L96 505M24 446L-58 499M24 446L19 575M2584 446L2525 423M2584 446L2502 499M147 444L219 421M147 444L96 505M147 444L165 546M219 421L287 429M219 421L286 489M287 429L356 419M287 429L286 489M356 419L439 433M356 419L286 489M356 419L373 519M439 433L529 442M439 433L431 494M439 433L495 525M529 442L606 435M529 442L495 525M529 442L588 529M606 435L588 529M719 426L758 446M719 426L767 501M758 446L847 465M758 446L767 501M847 465L839 542M847 465L913 536M937 419L1005 472M937 419L974 518M1005 472L974 518M1005 472L1085 521M1104 437L1164 469M1104 437L1085 521M1104 437L1155 511M1164 469L1209 479M1164 469L1155 511M1164 469L1206 546M1209 479L1281 478M1209 479L1155 511M1209 479L1206 546M1281 478L1344 498M1388 416L1489 462M1388 416L1344 498M1388 416L1424 484M1489 462L1587 419M1489 462L1424 484M1489 462L1477 516M1489 462L1534 516M1587 419L1672 450M1587 419L1687 458M1672 450L1687 458M1672 450L1677 493M1672 450L1744 503M1687 458L1677 493M1687 458L1744 503M1827 456L1858 447M1827 456L1805 486M1827 456L1856 495M1858 447L1805 486M1858 447L1856 495M1979 412L1995 505M2067 463L2141 469M2067 463L1995 505M2067 463L2048 497M2067 463L2134 529M2141 469L2213 435M2141 469L2048 497M2141 469L2134 529M2141 469L2221 489M2213 435L2279 467M2213 435L2221 489M2279 467L2358 459M2279 467L2221 489M2279 467L2265 511M2279 467L2329 542M2358 459L2432 418M2358 459L2329 542M2358 459L2417 547M2432 418L2525 423M2432 418L2502 499M2525 423L2502 499M58 538L96 505M58 538L19 575M58 538L-7 577M2618 538L2553 577M96 505L165 546M96 505L147 585M165 546L147 585M165 546L222 578M286 489L373 519M286 489L325 571M373 519L431 494M373 519L325 571M431 494L495 525M495 525L588 529M495 525L517 621M588 529L696 550M588 529L615 626M696 550L767 501M696 550L696 625M696 550L726 578M696 550L701 651M767 501L839 542M767 501L726 578M839 542L913 536M839 542L837 579M913 536L974 518M913 536L837 579M913 536L898 606M974 518L1085 521M974 518L997 629M1085 521L1155 511M1085 521L1097 607M1155 511L1206 546M1206 546L1165 599M1206 546L1257 614M1344 498L1424 484M1424 484L1477 516M1424 484L1436 598M1477 516L1534 516M1477 516L1436 598M1477 516L1522 584M1534 516L1472 613M1534 516L1522 584M1677 493L1744 503M1677 493L1637 604M1744 503L1805 486M1744 503L1783 584M1805 486L1856 495M1805 486L1783 584M1856 495L1845 601M1995 505L2048 497M1995 505L1984 619M2134 529L2124 621M2134 529L2186 575M2221 489L2265 511M2221 489L2186 575M2265 511L2329 542M2265 511L2186 575M2329 542L2417 547M2329 542L2349 603M2417 547L2502 499M2417 547L2349 603M2417 547L2447 600M2502 499L2553 577M19 575L-7 577M19 575L23 661M2579 575L2553 577M147 585L222 578M147 585L124 656M147 585L185 668M222 578L288 598M222 578L325 571M222 578L185 668M288 598L325 571M288 598L307 708M288 598L344 692M415 634L517 621M415 634L344 692M415 634L453 713M517 621L615 626M517 621L481 714M517 621L581 661M615 626L696 625M615 626L581 661M615 626L701 651M696 625L726 578M696 625L701 651M726 578L701 651M837 579L898 606M837 579L875 656M898 606L875 656M898 606L881 649M898 606L962 654M997 629L1097 607M997 629L962 654M997 629L986 729M1097 607L1165 599M1097 607L1071 709M1097 607L1136 671M1165 599L1257 614M1165 599L1136 671M1257 614L1299 639M1257 614L1213 676M1257 614L1315 675M1299 639L1315 675M1299 639L1373 686M1436 598L1472 613M1436 598L1522 584M1436 598L1373 686M1472 613L1522 584M1472 613L1508 709M1472 613L1553 663M1522 584L1553 663M1637 604L1735 635M1637 604L1553 663M1637 604L1619 705M1637 604L1711 672M1735 635L1783 584M1735 635L1711 672M1735 635L1791 657M1783 584L1845 601M1783 584L1791 657M1845 601L1791 657M1845 601L1867 705M1984 619L2048 599M1984 619L1988 686M2048 599L2124 621M2048 599L1988 686M2048 599L2052 664M2048 599L2101 657M2124 621L2186 575M2124 621L2052 664M2124 621L2101 657M2186 575L2290 623M2290 623L2349 603M2290 623L2248 702M2349 603L2447 600M2349 603L2350 703M2447 600L2553 577M2447 600L2484 670M2553 577L2583 661M-7 577L23 661M23 661L124 656M23 661L38 729M23 661L-44 738M2583 661L2516 738M124 656L185 668M124 656L140 724M124 656L163 721M185 668L140 724M185 668L163 721M307 708L344 692M307 708L250 786M307 708L354 725M344 692L354 725M453 713L481 714M453 713L354 725M453 713L449 794M453 713L491 758M481 714L449 794M481 714L491 758M481 714L450 804M581 661L621 735M701 651L773 731M788 714L773 731M788 714L864 741M875 656L881 649M875 656L864 741M875 656L907 723M881 649L962 654M881 649L864 741M881 649L907 723M962 654L907 723M962 654L986 729M1071 709L1136 671M1071 709L986 729M1071 709L1105 764M1136 671L1213 676M1213 676L1315 675M1213 676L1181 770M1213 676L1206 760M1315 675L1373 686M1508 709L1553 663M1508 709L1445 793M1508 709L1563 798M1508 709L1542 805M1553 663L1619 705M1619 705L1711 672M1619 705L1641 763M1711 672L1791 657M1711 672L1753 746M1791 657L1867 705M1867 705L1833 775M1867 705L1857 748M1988 686L2052 664M1988 686L1999 768M1988 686L2065 753M2052 664L2101 657M2052 664L2065 753M2101 657L2131 735M2204 697L2248 702M2204 697L2131 735M2248 702L2350 703M2248 702L2269 773M2350 703L2417 703M2350 703L2371 799M2350 703L2416 721M2417 703L2484 670M2417 703L2416 721M2484 670L2416 721M2484 670L2516 738M38 729L140 724M38 729L-44 738M2598 729L2516 738M140 724L163 721M140 724L217 812M250 786L354 725M250 786L217 812M250 786L251 866M250 786L254 886M449 794L491 758M449 794L387 850M449 794L450 804M491 758L450 804M621 735L692 787M692 787L773 731M692 787L631 855M692 787L706 814M692 787L762 852M773 731L864 741M773 731L706 814M864 741L907 723M907 723L986 729M986 729L984 818M1105 764L1181 770M1105 764L1206 760M1105 764L1064 838M1105 764L1172 813M1181 770L1206 760M1181 770L1172 813M1181 770L1259 820M1206 760L1172 813M1206 760L1259 820M1346 788L1425 790M1346 788L1445 793M1346 788L1259 820M1346 788L1319 874M1346 788L1381 873M1425 790L1445 793M1425 790L1452 868M1445 793L1452 868M1445 793L1542 805M1563 798L1641 763M1563 798L1542 805M1563 798L1551 890M1641 763L1542 805M1641 763L1678 828M1641 763L1687 824M1753 746L1833 775M1753 746L1857 748M1753 746L1687 824M1753 746L1799 824M1833 775L1857 748M1833 775L1799 824M1833 775L1871 867M1857 748L1799 824M1999 768L2065 753M1999 768L1939 874M1999 768L2073 850M1999 768L2006 880M2065 753L2131 735M2065 753L2073 850M2131 735L2194 793M2131 735L2199 817M2194 793L2269 773M2194 793L2199 817M2269 773L2371 799M2269 773L2199 817M2269 773L2259 865M2371 799L2416 721M2371 799L2320 859M2371 799L2436 875M2416 721L2516 738M2516 738L2542 841M55 848L139 868M55 848L-18 841M55 848L47 940M2615 848L2542 841M139 868L217 812M139 868L174 908M217 812L251 866M217 812L254 886M251 866L174 908M251 866L254 886M251 866L341 915M387 850L450 804M387 850L341 915M387 850L424 928M450 804L543 877M543 877L631 855M543 877L499 904M543 877L627 906M631 855L706 814M631 855L627 906M631 855L675 915M706 814L762 852M706 814L675 915M762 852L860 873M762 852L757 934M860 873L955 842M860 873L825 938M860 873L924 936M860 873L853 973M955 842L984 818M984 818L1064 838M1064 838L1153 903M1172 813L1259 820M1172 813L1153 903M1259 820L1319 874M1319 874L1381 873M1319 874L1332 948M1319 874L1283 965M1381 873L1452 868M1381 873L1332 948M1381 873L1435 933M1452 868L1435 933M1452 868L1441 942M1542 805L1551 890M1678 828L1687 824M1678 828L1621 900M1678 828L1731 889M1687 824L1621 900M1687 824L1731 889M1799 824L1871 867M1799 824L1731 889M1871 867L1939 874M1871 867L1867 886M1939 874L1867 886M1939 874L1940 958M1939 874L2006 880M2073 850L2102 841M2073 850L2006 880M2073 850L2109 946M2102 841L2006 880M2102 841L2109 946M2199 817L2259 865M2199 817L2236 883M2259 865L2320 859M2259 865L2236 883M2259 865L2333 926M2320 859L2236 883M2320 859L2333 926M2436 875L2542 841M2436 875L2463 884M2436 875L2503 913M2436 875L2479 981M2542 841L2463 884M2542 841L2503 913M47 940L122 958M47 940L-57 913M47 940L69 997M47 940L111 997M2607 940L2503 913M122 958L174 908M122 958L69 997M122 958L111 997M122 958L173 1001M174 908L254 886M174 908L173 1001M254 886L341 915M341 915L424 928M424 928L499 904M424 928L390 1008M424 928L410 1010M627 906L675 915M627 906L663 980M675 915L757 934M675 915L663 980M757 934L825 938M757 934L663 980M825 938L924 936M825 938L853 973M924 936L1012 950M924 936L853 973M924 936L902 1020M1012 950L1070 949M1012 950L995 1002M1012 950L1040 966M1070 949L1153 903M1070 949L995 1002M1070 949L1040 966M1070 949L1126 1000M1153 903L1126 1000M1153 903L1227 963M1238 950L1332 948M1238 950L1227 963M1238 950L1283 965M1332 948L1283 965M1332 948L1415 971M1435 933L1441 942M1435 933L1415 971M1441 942L1551 890M1441 942L1415 971M1441 942L1467 1022M1551 890L1621 900M1551 890L1553 999M1731 889L1785 950M1731 889L1702 986M1785 950L1867 886M1785 950L1702 986M1785 950L1807 1016M1867 886L1940 958M1940 958L2006 880M1940 958L1914 1039M1940 958L1962 1007M2109 946L2034 1009M2109 946L2101 963M2109 946L2181 978M2236 883L2283 956M2236 883L2333 926M2283 956L2333 926M2283 956L2308 1035M2283 956L2330 1011M2333 926L2330 1011M2463 884L2503 913M2463 884L2479 981M2503 913L2479 981M69 997L111 997M69 997L-12 1018M2629 997L2548 1018M111 997L173 1001M111 997L110 1098M173 1001L269 1031M173 1001L187 1075M269 1031L187 1075M269 1031L302 1055M269 1031L321 1062M269 1031L288 1127M390 1008L410 1010M390 1008L481 1012M390 1008L302 1055M390 1008L321 1062M410 1010L481 1012M410 1010L321 1062M410 1010L434 1108M481 1012L567 1034M481 1012L434 1108M481 1012L513 1087M567 1034L513 1087M567 1034L617 1083M663 980L741 1067M773 1039L710 1083M773 1039L741 1067M773 1039L854 1078M773 1039L729 1137M853 973L902 1020M853 973L892 1052M902 1020L854 1078M902 1020L892 1052M902 1020L982 1067M995 1002L1040 966M995 1002L892 1052M995 1002L982 1067M1040 966L1126 1000M1126 1000L1227 963M1126 1000L1144 1041M1227 963L1283 965M1227 963L1232 1068M1415 971L1467 1022M1415 971L1401 1081M1467 1022L1553 999M1467 1022L1401 1081M1467 1022L1518 1062M1553 999L1623 1013M1553 999L1518 1062M1553 999L1594 1068M1623 1013L1702 986M1623 1013L1594 1068M1623 1013L1639 1106M1702 986L1744 1064M1807 1016L1744 1064M1807 1016L1825 1068M1807 1016L1864 1083M1914 1039L1962 1007M1914 1039L1825 1068M1914 1039L1864 1083M1914 1039L1940 1084M1962 1007L2034 1009M1962 1007L1940 1084M2034 1009L2101 963M2034 1009L2023 1109M2034 1009L2024 1124M2101 963L2181 978M2181 978L2133 1076M2181 978L2224 1048M2308 1035L2330 1011M2308 1035L2224 1048M2308 1035L2258 1058M2308 1035L2374 1088M2330 1011L2258 1058M2330 1011L2374 1088M2479 981L2548 1018M2548 1018L2582 1104M-12 1018L22 1104M22 1104L110 1098M22 1104L-51 1115M22 1104L19 1138M22 1104L-4 1178M2582 1104L2509 1115M2582 1104L2556 1178M110 1098L187 1075M110 1098L137 1195M110 1098L175 1146M187 1075L302 1055M187 1075L175 1146M302 1055L321 1062M302 1055L288 1127M321 1062L288 1127M434 1108L513 1087M434 1108L447 1154M513 1087L447 1154M513 1087L548 1147M617 1083L710 1083M617 1083L548 1147M617 1083L565 1171M617 1083L715 1129M710 1083L741 1067M710 1083L715 1129M710 1083L729 1137M741 1067L715 1129M741 1067L729 1137M854 1078L892 1052M854 1078L853 1179M892 1052L982 1067M982 1067L1057 1100M982 1067L1004 1121M1057 1100L1144 1041M1057 1100L1004 1121M1057 1100L1103 1155M1057 1100L1148 1143M1144 1041L1232 1068M1232 1068L1282 1112M1232 1068L1148 1143M1232 1068L1250 1141M1282 1112L1250 1141M1282 1112L1332 1131M1401 1081L1332 1131M1401 1081L1409 1151M1401 1081L1467 1136M1518 1062L1594 1068M1518 1062L1467 1136M1518 1062L1552 1154M1594 1068L1639 1106M1594 1068L1605 1121M1639 1106L1605 1121M1639 1106L1730 1144M1744 1064L1825 1068M1744 1064L1730 1144M1825 1068L1864 1083M1825 1068L1824 1167M1864 1083L1940 1084M1864 1083L1872 1154M1940 1084L2023 1109M1940 1084L1965 1161M2023 1109L1965 1161M2023 1109L2024 1124M2023 1109L2119 1140M2133 1076L2119 1140M2224 1048L2258 1058M2224 1048L2224 1147M2224 1048L2256 1120M2258 1058L2224 1147M2258 1058L2256 1120M2374 1088L2435 1113M2374 1088L2256 1120M2374 1088L2400 1143M2435 1113L2509 1115M2435 1113L2400 1143M2509 1115L2579 1138M2509 1115L2556 1178M-51 1115L19 1138M19 1138L-4 1178M19 1138L19 1217M2579 1138L2556 1178M137 1195L175 1146M137 1195L153 1278M137 1195L182 1221M137 1195L106 1294M175 1146L288 1127M175 1146L182 1221M288 1127L370 1187M370 1187L447 1154M370 1187L388 1278M370 1187L375 1284M447 1154L548 1147M447 1154L447 1242M548 1147L565 1171M565 1171L543 1244M565 1171L605 1220M565 1171L667 1218M715 1129L729 1137M715 1129L724 1210M729 1137L724 1210M853 1179L951 1177M853 1179L836 1205M853 1179L914 1202M951 1177L1004 1121M951 1177L836 1205M951 1177L914 1202M951 1177L1015 1242M1004 1121L1103 1155M1004 1121L914 1202M1103 1155L1148 1143M1250 1141L1332 1131M1250 1141L1221 1216M1250 1141L1309 1214M1332 1131L1409 1151M1332 1131L1309 1214M1409 1151L1467 1136M1409 1151L1365 1271M1467 1136L1552 1154M1467 1136L1508 1227M1552 1154L1605 1121M1552 1154L1508 1227M1552 1154L1559 1204M1605 1121L1559 1204M1605 1121L1658 1208M1730 1144L1824 1167M1730 1144L1658 1208M1730 1144L1682 1212M1824 1167L1872 1154M1824 1167L1817 1222M1872 1154L1965 1161M1872 1154L1817 1222M1965 1161L2024 1124M1965 1161L1955 1242M2024 1124L2119 1140M2119 1140L2224 1147M2119 1140L2107 1210M2224 1147L2256 1120M2224 1147L2190 1253M2256 1120L2332 1189M2332 1189L2400 1143M2332 1189L2304 1277M2332 1189L2389 1247M2332 1189L2415 1233M2400 1143L2389 1247M2400 1143L2415 1233M2556 1178L2579 1217M2556 1178L2487 1217M-4 1178L19 1217M19 1217L-73 1217M19 1217L-62 1299M2579 1217L2487 1217M2579 1217L2498 1299M153 1278L182 1221M153 1278L262 1269M153 1278L106 1294M153 1278L195 1337M182 1221L262 1269M182 1221L106 1294M262 1269L195 1337M262 1269L296 1332M388 1278L447 1242M388 1278L296 1332M388 1278L375 1284M388 1278L469 1318M447 1242L543 1244M447 1242L375 1284M447 1242L469 1318M543 1244L605 1220M543 1244L469 1318M543 1244L598 1297M605 1220L667 1218M605 1220L598 1297M667 1218L724 1210M724 1210L836 1205M724 1210L710 1324M836 1205L914 1202M836 1205L874 1304M914 1202L874 1304M1015 1242L1063 1268M1063 1268L1153 1276M1063 1268L998 1347M1063 1268L1107 1337M1063 1268L1140 1285M1153 1276L1221 1216M1153 1276L1107 1337M1153 1276L1140 1285M1153 1276L1208 1290M1221 1216L1309 1214M1221 1216L1140 1285M1221 1216L1208 1290M1309 1214L1365 1271M1309 1214L1318 1297M1365 1271L1318 1297M1365 1271L1382 1358M1365 1271L1469 1326M1508 1227L1559 1204M1508 1227L1469 1326M1508 1227L1555 1286M1559 1204L1658 1208M1559 1204L1555 1286M1658 1208L1682 1212M1658 1208L1710 1293M1682 1212L1647 1316M1682 1212L1710 1293M1817 1222L1880 1249M1817 1222L1818 1299M1880 1249L1955 1242M1880 1249L1818 1299M1880 1249L1917 1295M1880 1249L1941 1308M1955 1242L2051 1248M1955 1242L1917 1295M1955 1242L1941 1308M2051 1248L2107 1210M2051 1248L2049 1300M2051 1248L2092 1317M2107 1210L2190 1253M2107 1210L2049 1300M2107 1210L2092 1317M2190 1253L2227 1300M2304 1277L2389 1247M2304 1277L2227 1300M2304 1277L2278 1334M2304 1277L2352 1351M2389 1247L2415 1233M2389 1247L2487 1217M2415 1233L2487 1217M2415 1233L2498 1299M2487 1217L2498 1299M60 1345L106 1294M60 1345L21 1419M60 1345L110 1422M195 1337L208 1426M195 1337L258 1414M296 1332L375 1284M296 1332L258 1414M296 1332L340 1412M375 1284L469 1318M469 1318L517 1340M517 1340L598 1297M517 1340L555 1428M517 1340L618 1412M598 1297L710 1324M598 1297L659 1376M710 1324L783 1311M710 1324L659 1376M710 1324L749 1364M783 1311L874 1304M783 1311L749 1364M783 1311L875 1378M874 1304L898 1343M874 1304L875 1378M898 1343L998 1347M898 1343L875 1378M898 1343L953 1397M998 1347L953 1397M998 1347L1010 1376M1107 1337L1140 1285M1107 1337L1088 1437M1107 1337L1197 1366M1140 1285L1208 1290M1208 1290L1197 1366M1208 1290L1240 1389M1318 1297L1382 1358M1318 1297L1240 1389M1318 1297L1287 1381M1382 1358L1469 1326M1382 1358L1379 1400M1469 1326L1555 1286M1469 1326L1478 1372M1555 1286L1647 1316M1555 1286L1478 1372M1647 1316L1710 1293M1647 1316L1665 1415M1647 1316L1702 1390M1710 1293L1818 1299M1818 1299L1917 1295M1818 1299L1841 1364M1917 1295L1941 1308M1917 1295L1949 1388M1941 1308L2049 1300M1941 1308L1949 1388M2049 1300L2092 1317M2049 1300L2013 1411M2092 1317L2115 1402M2227 1300L2278 1334M2227 1300L2234 1392M2278 1334L2352 1351M2278 1334L2234 1392M2278 1334L2293 1419M2352 1351L2415 1355M2352 1351L2368 1402M2415 1355L2498 1299M2415 1355L2368 1402M2415 1355L2471 1427M21 1419L110 1422M21 1419L-89 1427M21 1419L-37 1436M2581 1419L2471 1427M2581 1419L2523 1436M110 1422L208 1426M208 1426L258 1414M258 1414L340 1412M340 1412L442 1440M442 1440L555 1428M555 1428L618 1412M618 1412L659 1376M659 1376L749 1364M749 1364L875 1378M953 1397L1010 1376M1010 1376L1088 1437M1197 1366L1240 1389M1197 1366L1287 1381M1240 1389L1287 1381M1287 1381L1379 1400M1379 1400L1478 1372M1478 1372L1556 1436M1556 1436L1665 1415M1665 1415L1702 1390M1828 1423L1841 1364M1841 1364L1949 1388M1949 1388L2013 1411M2234 1392L2293 1419M2293 1419L2368 1402M2368 1402L2471 1427M2471 1427L2523 1436"/></svg>