<svg xmlns="http://www.w3.org/2000/svg" width="2560" height="1440" fill="#fff"><circle cx="29" cy="4" r="6"/><circle cx="29" cy="1444" r="6"/><circle cx="151" cy="72" r="6"/><circle cx="161" cy="47" r="6"/><circle cx="302" cy="65" r="4"/><circle cx="329" cy="13" r="5"/><circle cx="433" cy="34" r="6"/><circle cx="506" cy="10" r="5"/><circle cx="565" cy="36" r="5"/><circle cx="677" cy="1" r="6"/><circle cx="677" cy="1441" r="6"/><circle cx="795" cy="22" r="5"/><circle cx="826" cy="70" r="5"/><circle cx="935" cy="54" r="6"/><circle cx="1037" cy="47" r="5"/><circle cx="1066" cy="13" r="5"/><circle cx="1187" cy="51" r="4"/><circle cx="1246" cy="36" r="5"/><circle cx="1336" cy="77" r="5"/><circle cx="1381" cy="41" r="6"/><circle cx="1500" cy="52" r="4"/><circle cx="1530" cy="6" r="6"/><circle cx="1530" cy="1446" r="6"/><circle cx="1638" cy="30" r="5"/><circle cx="1740" cy="23" r="4"/><circle cx="1798" cy="32" r="4"/><circle cx="1870" cy="45" r="5"/><circle cx="1987" cy="48" r="5"/><circle cx="2075" cy="38" r="5"/><circle cx="2130" cy="16" r="6"/><circle cx="2237" cy="23" r="5"/><circle cx="2244" cy="67" r="4"/><circle cx="2358" cy="80" r="5"/><circle cx="2461" cy="46" r="6"/><circle cx="2501" cy="53" r="5"/><circle cx="41" cy="126" r="6"/><circle cx="84" cy="82" r="5"/><circle cx="209" cy="83" r="5"/><circle cx="298" cy="148" r="5"/><circle cx="359" cy="137" r="5"/><circle cx="467" cy="124" r="4"/><circle cx="549" cy="115" r="5"/><circle cx="597" cy="135" r="5"/><circle cx="648" cy="102" r="6"/><circle cx="743" cy="107" r="6"/><circle cx="847" cy="124" r="4"/><circle cx="898" cy="147" r="6"/><circle cx="1015" cy="157" r="5"/><circle cx="1085" cy="107" r="4"/><circle cx="1164" cy="125" r="6"/><circle cx="1273" cy="109" r="6"/><circle cx="1348" cy="130" r="5"/><circle cx="1423" cy="91" r="5"/><circle cx="1493" cy="158" r="6"/><circle cx="1521" cy="129" r="5"/><circle cx="1637" cy="131" r="5"/><circle cx="1688" cy="118" r="5"/><circle cx="1768" cy="115" r="6"/><circle cx="1908" cy="120" r="5"/><circle cx="1956" cy="134" r="6"/><circle cx="2066" cy="101" r="5"/><circle cx="2087" cy="94" r="5"/><circle cx="2213" cy="94" r="5"/><circle cx="2294" cy="86" r="5"/><circle cx="2387" cy="133" r="4"/><circle cx="2403" cy="160" r="6"/><circle cx="2509" cy="98" r="6"/><circle cx="37" cy="195" r="4"/><circle cx="148" cy="198" r="6"/><circle cx="166" cy="176" r="5"/><circle cx="292" cy="191" r="5"/><circle cx="352" cy="168" r="6"/><circle cx="417" cy="173" r="6"/><circle cx="545" cy="223" r="6"/><circle cx="618" cy="186" r="5"/><circle cx="652" cy="221" r="4"/><circle cx="737" cy="172" r="6"/><circle cx="852" cy="217" r="5"/><circle cx="902" cy="206" r="6"/><circle cx="994" cy="186" r="6"/><circle cx="1117" cy="186" r="5"/><circle cx="1126" cy="218" r="5"/><circle cx="1273" cy="160" r="4"/><circle cx="1322" cy="218" r="6"/><circle cx="1437" cy="167" r="4"/><circle cx="1515" cy="214" r="6"/><circle cx="1561" cy="237" r="5"/><circle cx="1652" cy="211" r="5"/><circle cx="1695" cy="229" r="5"/><circle cx="1790" cy="174" r="5"/><circle cx="1895" cy="226" r="6"/><circle cx="1928" cy="186" r="5"/><circle cx="2021" cy="169" r="6"/><circle cx="2152" cy="212" r="5"/><circle cx="2191" cy="160" r="4"/><circle cx="2243" cy="174" r="4"/><circle cx="2339" cy="168" r="5"/><circle cx="2432" cy="209" r="5"/><circle cx="2558" cy="213" r="5"/><circle cx="-2" cy="213" r="5"/><circle cx="43" cy="297" r="5"/><circle cx="132" cy="287" r="5"/><circle cx="166" cy="319" r="5"/><circle cx="304" cy="311" r="5"/><circle cx="356" cy="277" r="4"/><circle cx="402" cy="266" r="4"/><circle cx="540" cy="275" r="6"/><circle cx="591" cy="295" r="5"/><circle cx="686" cy="252" r="4"/><circle cx="795" cy="289" r="6"/><circle cx="839" cy="253" r="6"/><circle cx="960" cy="314" r="5"/><circle cx="989" cy="281" r="5"/><circle cx="1067" cy="273" r="4"/><circle cx="1158" cy="245" r="5"/><circle cx="1267" cy="263" r="5"/><circle cx="1318" cy="274" r="6"/><circle cx="1409" cy="276" r="5"/><circle cx="1456" cy="266" r="4"/><circle cx="1588" cy="318" r="4"/><circle cx="1620" cy="284" r="4"/><circle cx="1699" cy="292" r="5"/><circle cx="1782" cy="301" r="6"/><circle cx="1880" cy="286" r="6"/><circle cx="1935" cy="313" r="4"/><circle cx="2030" cy="253" r="5"/><circle cx="2149" cy="260" r="4"/><circle cx="2163" cy="279" r="5"/><circle cx="2246" cy="311" r="6"/><circle cx="2399" cy="293" r="5"/><circle cx="2465" cy="243" r="4"/><circle cx="2498" cy="312" r="5"/><circle cx="77" cy="368" r="5"/><circle cx="132" cy="396" r="5"/><circle cx="237" cy="390" r="4"/><circle cx="259" cy="376" r="5"/><circle cx="349" cy="386" r="6"/><circle cx="456" cy="391" r="5"/><circle cx="492" cy="338" r="5"/><circle cx="620" cy="362" r="5"/><circle cx="678" cy="323" r="5"/><circle cx="766" cy="323" r="5"/><circle cx="841" cy="334" r="5"/><circle cx="909" cy="370" r="5"/><circle cx="1010" cy="380" r="5"/><circle cx="1079" cy="322" r="4"/><circle cx="1179" cy="365" r="4"/><circle cx="1232" cy="372" r="5"/><circle cx="1310" cy="341" r="5"/><circle cx="1419" cy="354" r="5"/><circle cx="1479" cy="384" r="5"/><circle cx="1533" cy="324" r="4"/><circle cx="1601" cy="356" r="5"/><circle cx="1731" cy="365" r="5"/><circle cx="1775" cy="366" r="6"/><circle cx="1865" cy="381" r="6"/><circle cx="1941" cy="353" r="5"/><circle cx="2036" cy="323" r="6"/><circle cx="2144" cy="399" r="4"/><circle cx="2198" cy="362" r="5"/><circle cx="2246" cy="363" r="6"/><circle cx="2368" cy="374" r="5"/><circle cx="2440" cy="350" r="4"/><circle cx="2547" cy="360" r="4"/><circle cx="34" cy="464" r="5"/><circle cx="110" cy="446" r="6"/><circle cx="217" cy="413" r="6"/><circle cx="261" cy="412" r="4"/><circle cx="361" cy="467" r="4"/><circle cx="429" cy="417" r="5"/><circle cx="509" cy="467" r="5"/><circle cx="620" cy="426" r="5"/><circle cx="682" cy="462" r="4"/><circle cx="785" cy="454" r="6"/><circle cx="802" cy="464" r="4"/><circle cx="934" cy="441" r="6"/><circle cx="964" cy="404" r="5"/><circle cx="1093" cy="433" r="5"/><circle cx="1145" cy="443" r="5"/><circle cx="1264" cy="472" r="4"/><circle cx="1296" cy="406" r="5"/><circle cx="1375" cy="462" r="5"/><circle cx="1456" cy="419" r="5"/><circle cx="1589" cy="476" r="6"/><circle cx="1617" cy="414" r="5"/><circle cx="1749" cy="468" r="6"/><circle cx="1808" cy="433" r="6"/><circle cx="1911" cy="459" r="5"/><circle cx="1984" cy="465" r="4"/><circle cx="2049" cy="450" r="5"/><circle cx="2119" cy="471" r="6"/><circle cx="2205" cy="459" r="6"/><circle cx="2283" cy="439" r="5"/><circle cx="2323" cy="475" r="6"/><circle cx="2421" cy="432" r="5"/><circle cx="2499" cy="444" r="6"/><circle cx="70" cy="520" r="5"/><circle cx="116" cy="543" r="4"/><circle cx="169" cy="559" r="6"/><circle cx="272" cy="485" r="6"/><circle cx="340" cy="502" r="5"/><circle cx="454" cy="509" r="6"/><circle cx="538" cy="554" r="6"/><circle cx="602" cy="506" r="4"/><circle cx="659" cy="548" r="5"/><circle cx="791" cy="515" r="6"/><circle cx="847" cy="534" r="5"/><circle cx="931" cy="499" r="6"/><circle cx="1031" cy="489" r="5"/><circle cx="1076" cy="505" r="4"/><circle cx="1132" cy="489" r="5"/><circle cx="1220" cy="554" r="6"/><circle cx="1350" cy="530" r="5"/><circle cx="1416" cy="537" r="5"/><circle cx="1458" cy="492" r="6"/><circle cx="1600" cy="489" r="5"/><circle cx="1636" cy="501" r="6"/><circle cx="1727" cy="538" r="6"/><circle cx="1762" cy="530" r="4"/><circle cx="1886" cy="496" r="4"/><circle cx="1949" cy="492" r="5"/><circle cx="2027" cy="548" r="4"/><circle cx="2154" cy="532" r="6"/><circle cx="2187" cy="482" r="6"/><circle cx="2264" cy="532" r="5"/><circle cx="2379" cy="509" r="6"/><circle cx="2439" cy="491" r="5"/><circle cx="2525" cy="484" r="4"/><circle cx="38" cy="611" r="5"/><circle cx="137" cy="625" r="4"/><circle cx="235" cy="599" r="6"/><circle cx="246" cy="599" r="6"/><circle cx="350" cy="620" r="5"/><circle cx="407" cy="599" r="6"/><circle cx="484" cy="600" r="4"/><circle cx="617" cy="612" r="5"/><circle cx="679" cy="629" r="5"/><circle cx="753" cy="632" r="5"/><circle cx="830" cy="582" r="5"/><circle cx="952" cy="622" r="6"/><circle cx="971" cy="578" r="6"/><circle cx="1096" cy="634" r="5"/><circle cx="1173" cy="612" r="4"/><circle cx="1203" cy="568" r="6"/><circle cx="1289" cy="626" r="5"/><circle cx="1375" cy="634" r="5"/><circle cx="1457" cy="592" r="5"/><circle cx="1529" cy="610" r="4"/><circle cx="1666" cy="574" r="4"/><circle cx="1682" cy="625" r="6"/><circle cx="1774" cy="597" r="4"/><circle cx="1910" cy="632" r="5"/><circle cx="1949" cy="625" r="5"/><circle cx="2003" cy="624" r="4"/><circle cx="2099" cy="568" r="4"/><circle cx="2210" cy="588" r="5"/><circle cx="2256" cy="580" r="4"/><circle cx="2376" cy="573" r="5"/><circle cx="2410" cy="602" r="5"/><circle cx="2560" cy="561" r="5"/><circle cx="-0" cy="561" r="5"/><circle cx="30" cy="702" r="5"/><circle cx="130" cy="704" r="6"/><circle cx="187" cy="705" r="4"/><circle cx="261" cy="679" r="4"/><circle cx="373" cy="678" r="4"/><circle cx="464" cy="641" r="5"/><circle cx="543" cy="701" r="5"/><circle cx="633" cy="715" r="6"/><circle cx="648" cy="669" r="6"/><circle cx="725" cy="649" r="5"/><circle cx="867" cy="649" r="6"/><circle cx="905" cy="702" r="6"/><circle cx="980" cy="685" r="5"/><circle cx="1076" cy="692" r="5"/><circle cx="1164" cy="718" r="6"/><circle cx="1274" cy="708" r="6"/><circle cx="1328" cy="663" r="5"/><circle cx="1416" cy="712" r="4"/><circle cx="1501" cy="651" r="4"/><circle cx="1538" cy="694" r="6"/><circle cx="1679" cy="660" r="6"/><circle cx="1736" cy="705" r="5"/><circle cx="1822" cy="666" r="5"/><circle cx="1865" cy="710" r="6"/><circle cx="1970" cy="661" r="5"/><circle cx="2055" cy="664" r="4"/><circle cx="2098" cy="706" r="5"/><circle cx="2161" cy="685" r="6"/><circle cx="2287" cy="695" r="4"/><circle cx="2343" cy="663" r="4"/><circle cx="2459" cy="682" r="5"/><circle cx="2560" cy="651" r="6"/><circle cx="-0" cy="651" r="6"/><circle cx="24" cy="786" r="4"/><circle cx="83" cy="799" r="5"/><circle cx="192" cy="728" r="5"/><circle cx="242" cy="780" r="5"/><circle cx="352" cy="770" r="5"/><circle cx="447" cy="742" r="6"/><circle cx="510" cy="789" r="5"/><circle cx="576" cy="724" r="5"/><circle cx="656" cy="729" r="5"/><circle cx="786" cy="780" r="5"/><circle cx="855" cy="784" r="6"/><circle cx="929" cy="792" r="4"/><circle cx="1029" cy="792" r="5"/><circle cx="1102" cy="788" r="4"/><circle cx="1168" cy="753" r="4"/><circle cx="1252" cy="781" r="4"/><circle cx="1310" cy="742" r="5"/><circle cx="1382" cy="794" r="5"/><circle cx="1473" cy="730" r="4"/><circle cx="1576" cy="785" r="5"/><circle cx="1680" cy="792" r="5"/><circle cx="1709" cy="770" r="6"/><circle cx="1810" cy="733" r="5"/><circle cx="1911" cy="798" r="4"/><circle cx="1980" cy="734" r="4"/><circle cx="2002" cy="751" r="4"/><circle cx="2144" cy="788" r="4"/><circle cx="2203" cy="765" r="4"/><circle cx="2318" cy="798" r="5"/><circle cx="2377" cy="774" r="6"/><circle cx="2424" cy="754" r="5"/><circle cx="2499" cy="732" r="5"/><circle cx="29" cy="836" r="5"/><circle cx="105" cy="801" r="5"/><circle cx="169" cy="810" r="5"/><circle cx="255" cy="846" r="6"/><circle cx="333" cy="861" r="5"/><circle cx="427" cy="865" r="6"/><circle cx="544" cy="879" r="6"/><circle cx="638" cy="829" r="5"/><circle cx="679" cy="830" r="6"/><circle cx="753" cy="868" r="6"/><circle cx="851" cy="810" r="5"/><circle cx="958" cy="872" r="6"/><circle cx="997" cy="862" r="6"/><circle cx="1068" cy="863" r="4"/><circle cx="1152" cy="845" r="5"/><circle cx="1242" cy="815" r="5"/><circle cx="1307" cy="862" r="6"/><circle cx="1422" cy="829" r="5"/><circle cx="1468" cy="848" r="4"/><circle cx="1578" cy="804" r="5"/><circle cx="1635" cy="872" r="5"/><circle cx="1745" cy="864" r="5"/><circle cx="1818" cy="802" r="6"/><circle cx="1887" cy="839" r="5"/><circle cx="1936" cy="816" r="5"/><circle cx="2037" cy="807" r="6"/><circle cx="2104" cy="869" r="5"/><circle cx="2197" cy="829" r="4"/><circle cx="2287" cy="819" r="6"/><circle cx="2369" cy="880" r="5"/><circle cx="2454" cy="865" r="5"/><circle cx="2544" cy="866" r="4"/><circle cx="60" cy="913" r="6"/><circle cx="109" cy="896" r="6"/><circle cx="224" cy="890" r="5"/><circle cx="249" cy="944" r="5"/><circle cx="372" cy="917" r="6"/><circle cx="424" cy="928" r="5"/><circle cx="547" cy="917" r="5"/><circle cx="614" cy="883" r="5"/><circle cx="647" cy="953" r="4"/><circle cx="727" cy="946" r="5"/><circle cx="855" cy="959" r="5"/><circle cx="898" cy="945" r="6"/><circle cx="1002" cy="940" r="5"/><circle cx="1085" cy="946" r="5"/><circle cx="1188" cy="903" r="5"/><circle cx="1246" cy="892" r="5"/><circle cx="1341" cy="925" r="4"/><circle cx="1379" cy="948" r="5"/><circle cx="1450" cy="887" r="6"/><circle cx="1566" cy="922" r="6"/><circle cx="1652" cy="898" r="4"/><circle cx="1724" cy="958" r="6"/><circle cx="1780" cy="911" r="5"/><circle cx="1919" cy="894" r="4"/><circle cx="1945" cy="953" r="4"/><circle cx="2009" cy="881" r="4"/><circle cx="2115" cy="929" r="5"/><circle cx="2225" cy="921" r="6"/><circle cx="2282" cy="920" r="6"/><circle cx="2333" cy="910" r="5"/><circle cx="2448" cy="952" r="5"/><circle cx="2521" cy="936" r="4"/><circle cx="42" cy="979" r="6"/><circle cx="122" cy="977" r="5"/><circle cx="179" cy="1028" r="5"/><circle cx="312" cy="993" r="6"/><circle cx="363" cy="1028" r="6"/><circle cx="424" cy="977" r="5"/><circle cx="547" cy="1017" r="5"/><circle cx="564" cy="1008" r="5"/><circle cx="713" cy="1010" r="5"/><circle cx="737" cy="988" r="5"/><circle cx="878" cy="965" r="5"/><circle cx="910" cy="971" r="5"/><circle cx="966" cy="984" r="6"/><circle cx="1083" cy="1018" r="5"/><circle cx="1183" cy="1018" r="6"/><circle cx="1257" cy="1001" r="5"/><circle cx="1350" cy="991" r="5"/><circle cx="1424" cy="1028" r="5"/><circle cx="1463" cy="987" r="4"/><circle cx="1583" cy="986" r="4"/><circle cx="1606" cy="972" r="6"/><circle cx="1711" cy="981" r="6"/><circle cx="1809" cy="1018" r="5"/><circle cx="1914" cy="1006" r="5"/><circle cx="1999" cy="961" r="4"/><circle cx="2074" cy="966" r="6"/><circle cx="2103" cy="962" r="6"/><circle cx="2215" cy="984" r="5"/><circle cx="2262" cy="962" r="4"/><circle cx="2331" cy="1037" r="6"/><circle cx="2475" cy="1035" r="5"/><circle cx="2557" cy="965" r="4"/><circle cx="-3" cy="965" r="4"/><circle cx="54" cy="1087" r="5"/><circle cx="111" cy="1056" r="5"/><circle cx="217" cy="1047" r="4"/><circle cx="300" cy="1045" r="5"/><circle cx="333" cy="1043" r="6"/><circle cx="448" cy="1069" r="5"/><circle cx="540" cy="1114" r="5"/><circle cx="590" cy="1065" r="5"/><circle cx="691" cy="1082" r="6"/><circle cx="749" cy="1065" r="6"/><circle cx="867" cy="1085" r="5"/><circle cx="906" cy="1067" r="4"/><circle cx="968" cy="1051" r="6"/><circle cx="1115" cy="1066" r="5"/><circle cx="1167" cy="1042" r="4"/><circle cx="1276" cy="1118" r="5"/><circle cx="1313" cy="1096" r="4"/><circle cx="1424" cy="1052" r="5"/><circle cx="1453" cy="1047" r="4"/><circle cx="1555" cy="1078" r="5"/><circle cx="1608" cy="1096" r="4"/><circle cx="1754" cy="1046" r="5"/><circle cx="1802" cy="1073" r="4"/><circle cx="1886" cy="1107" r="5"/><circle cx="1975" cy="1102" r="5"/><circle cx="2067" cy="1044" r="5"/><circle cx="2157" cy="1085" r="4"/><circle cx="2214" cy="1047" r="4"/><circle cx="2313" cy="1061" r="4"/><circle cx="2388" cy="1074" r="6"/><circle cx="2419" cy="1084" r="6"/><circle cx="2483" cy="1040" r="5"/><circle cx="20" cy="1200" r="6"/><circle cx="130" cy="1140" r="5"/><circle cx="177" cy="1167" r="5"/><circle cx="252" cy="1151" r="6"/><circle cx="388" cy="1135" r="5"/><circle cx="448" cy="1144" r="5"/><circle cx="483" cy="1129" r="5"/><circle cx="633" cy="1190" r="5"/><circle cx="703" cy="1168" r="4"/><circle cx="785" cy="1136" r="5"/><circle cx="853" cy="1143" r="5"/><circle cx="887" cy="1126" r="5"/><circle cx="1023" cy="1172" r="4"/><circle cx="1098" cy="1120" r="5"/><circle cx="1180" cy="1190" r="5"/><circle cx="1222" cy="1144" r="6"/><circle cx="1355" cy="1189" r="6"/><circle cx="1373" cy="1146" r="6"/><circle cx="1490" cy="1139" r="4"/><circle cx="1533" cy="1144" r="6"/><circle cx="1657" cy="1160" r="5"/><circle cx="1691" cy="1186" r="6"/><circle cx="1767" cy="1185" r="5"/><circle cx="1882" cy="1155" r="4"/><circle cx="1976" cy="1159" r="5"/><circle cx="2056" cy="1191" r="5"/><circle cx="2081" cy="1144" r="4"/><circle cx="2182" cy="1165" r="6"/><circle cx="2273" cy="1155" r="5"/><circle cx="2336" cy="1150" r="4"/><circle cx="2401" cy="1136" r="4"/><circle cx="2522" cy="1155" r="6"/><circle cx="7" cy="1234" r="5"/><circle cx="94" cy="1216" r="5"/><circle cx="227" cy="1253" r="5"/><circle cx="305" cy="1218" r="4"/><circle cx="385" cy="1272" r="5"/><circle cx="468" cy="1256" r="6"/><circle cx="485" cy="1261" r="5"/><circle cx="595" cy="1206" r="5"/><circle cx="709" cy="1251" r="6"/><circle cx="785" cy="1228" r="5"/><circle cx="867" cy="1234" r="5"/><circle cx="912" cy="1213" r="5"/><circle cx="964" cy="1237" r="4"/><circle cx="1101" cy="1220" r="5"/><circle cx="1194" cy="1224" r="5"/><circle cx="1253" cy="1231" r="4"/><circle cx="1288" cy="1202" r="5"/><circle cx="1392" cy="1273" r="6"/><circle cx="1471" cy="1254" r="4"/><circle cx="1564" cy="1261" r="5"/><circle cx="1662" cy="1239" r="5"/><circle cx="1708" cy="1203" r="5"/><circle cx="1810" cy="1273" r="5"/><circle cx="1874" cy="1239" r="4"/><circle cx="1950" cy="1276" r="6"/><circle cx="2007" cy="1259" r="6"/><circle cx="2110" cy="1244" r="5"/><circle cx="2188" cy="1240" r="5"/><circle cx="2246" cy="1219" r="4"/><circle cx="2392" cy="1207" r="4"/><circle cx="2432" cy="1232" r="4"/><circle cx="2542" cy="1267" r="5"/><circle cx="65" cy="1331" r="5"/><circle cx="115" cy="1317" r="5"/><circle cx="167" cy="1326" r="5"/><circle cx="263" cy="1307" r="5"/><circle cx="398" cy="1299" r="5"/><circle cx="477" cy="1334" r="5"/><circle cx="514" cy="1350" r="5"/><circle cx="573" cy="1318" r="6"/><circle cx="718" cy="1322" r="6"/><circle cx="723" cy="1301" r="5"/><circle cx="844" cy="1304" r="5"/><circle cx="888" cy="1329" r="5"/><circle cx="991" cy="1337" r="5"/><circle cx="1042" cy="1351" r="5"/><circle cx="1132" cy="1350" r="5"/><circle cx="1260" cy="1284" r="6"/><circle cx="1317" cy="1316" r="6"/><circle cx="1424" cy="1292" r="5"/><circle cx="1501" cy="1348" r="6"/><circle cx="1568" cy="1340" r="5"/><circle cx="1634" cy="1313" r="5"/><circle cx="1720" cy="1315" r="4"/><circle cx="1793" cy="1348" r="6"/><circle cx="1905" cy="1292" r="4"/><circle cx="1948" cy="1330" r="5"/><circle cx="2001" cy="1314" r="6"/><circle cx="2099" cy="1289" r="5"/><circle cx="2197" cy="1341" r="6"/><circle cx="2242" cy="1347" r="5"/><circle cx="2330" cy="1331" r="4"/><circle cx="2407" cy="1317" r="6"/><circle cx="2509" cy="1282" r="5"/><circle cx="55" cy="1365" r="4"/><circle cx="88" cy="1403" r="4"/><circle cx="232" cy="1375" r="4"/><circle cx="261" cy="1404" r="5"/><circle cx="383" cy="1386" r="5"/><circle cx="478" cy="1374" r="6"/><circle cx="558" cy="1417" r="5"/><circle cx="561" cy="1420" r="4"/><circle cx="681" cy="1409" r="5"/><circle cx="754" cy="1424" r="6"/><circle cx="814" cy="1395" r="5"/><circle cx="907" cy="1391" r="5"/><circle cx="1017" cy="1395" r="5"/><circle cx="1041" cy="1428" r="5"/><circle cx="1182" cy="1415" r="5"/><circle cx="1247" cy="1367" r="4"/><circle cx="1315" cy="1427" r="4"/><circle cx="1439" cy="1407" r="4"/><circle cx="1482" cy="1378" r="4"/><circle cx="1528" cy="1387" r="5"/><circle cx="1660" cy="1386" r="5"/><circle cx="1730" cy="1390" r="5"/><circle cx="1768" cy="1438" r="5"/><circle cx="1768" cy="-2" r="5"/><circle cx="1918" cy="1396" r="4"/><circle cx="1953" cy="1418" r="6"/><circle cx="2007" cy="1394" r="5"/><circle cx="2115" cy="1437" r="4"/><circle cx="2115" cy="-3" r="4"/><circle cx="2213" cy="1409" r="5"/><circle cx="2262" cy="1379" r="4"/><circle cx="2327" cy="1412" r="4"/><circle cx="2445" cy="1387" r="5"/><circle cx="2502" cy="1410" r="5"/><path stroke="#fff" d="M29 4L-59 53M29 4L84 82M29 4L55 -75M29 4L88 -37M29 4L-58 -30M2589 4L2501 53M2589 4L2502 -30M29 1444L55 1365M29 1444L88 1403M29 1444L-58 1410M2589 1444L2502 1410M151 72L161 47M151 72L41 126M151 72L84 82M151 72L209 83M151 72L166 176M161 47L84 82M161 47L209 83M161 47L88 -37M161 47L261 -36M161 1487L88 1403M161 1487L261 1404M302 65L329 13M302 65L209 83M302 65L298 148M302 65L359 137M329 13L433 34M329 13L232 -65M329 13L261 -36M329 13L383 -54M329 1453L232 1375M329 1453L261 1404M329 1453L383 1386M433 34L506 10M433 34L467 124M433 34L383 -54M433 1474L383 1386M506 10L565 36M506 10L478 -66M506 10L558 -23M506 10L561 -20M506 1450L478 1374M506 1450L558 1417M506 1450L561 1420M565 36L549 115M565 36L558 -23M565 36L561 -20M565 1476L558 1417M565 1476L561 1420M677 1L648 102M677 1L718 -118M677 1L681 -31M677 1L754 -16M677 1441L718 1322M677 1441L681 1409M677 1441L754 1424M795 22L826 70M795 22L743 107M795 22L754 -16M795 22L814 -45M795 1462L754 1424M795 1462L814 1395M826 70L743 107M826 70L847 124M935 54L1037 47M935 54L898 147M935 54L907 -49M935 1494L907 1391M1037 47L1066 13M1037 47L1085 107M1037 47L1017 -45M1037 47L1041 -12M1037 1487L1017 1395M1037 1487L1041 1428M1066 13L1085 107M1066 13L1042 -89M1066 13L1017 -45M1066 13L1041 -12M1066 1453L1042 1351M1066 1453L1017 1395M1066 1453L1041 1428M1187 51L1246 36M1187 51L1164 125M1187 51L1182 -25M1187 1491L1182 1415M1246 36L1336 77M1246 36L1273 109M1246 36L1182 -25M1246 36L1315 -13M1246 1476L1182 1415M1246 1476L1315 1427M1336 77L1381 41M1336 77L1273 109M1336 77L1348 130M1336 77L1423 91M1381 41L1348 130M1381 41L1423 91M1381 41L1315 -13M1381 41L1439 -33M1381 1481L1315 1427M1381 1481L1439 1407M1500 52L1530 6M1500 52L1521 129M1530 6L1501 -92M1530 6L1439 -33M1530 6L1482 -62M1530 6L1528 -53M1530 1446L1501 1348M1530 1446L1439 1407M1530 1446L1482 1378M1530 1446L1528 1387M1638 30L1740 23M1638 30L1637 131M1638 30L1688 118M1638 30L1660 -54M1638 1470L1660 1386M1740 23L1798 32M1740 23L1768 115M1740 23L1730 -50M1740 23L1768 -2M1740 1463L1730 1390M1740 1463L1768 1438M1798 32L1870 45M1798 32L1768 115M1798 32L1768 -2M1798 1472L1768 1438M1870 45L1908 120M1870 45L1918 -44M1870 45L1953 -22M1870 1485L1918 1396M1870 1485L1953 1418M1987 48L2075 38M1987 48L1956 134M1987 48L2066 101M1987 48L1953 -22M1987 48L2007 -46M1987 1488L1953 1418M1987 1488L2007 1394M2075 38L2130 16M2075 38L2066 101M2075 38L2087 94M2075 38L2115 -3M2075 1478L2115 1437M2130 16L2087 94M2130 16L2115 -3M2130 16L2213 -31M2130 1456L2115 1437M2130 1456L2213 1409M2237 23L2244 67M2237 23L2213 94M2237 23L2294 86M2237 23L2213 -31M2237 23L2262 -61M2237 1463L2213 1409M2237 1463L2262 1379M2244 67L2213 94M2244 67L2294 86M2358 80L2461 46M2358 80L2294 86M2358 80L2387 133M2358 80L2403 160M2358 80L2339 168M2461 46L2501 53M2461 46L2509 98M2461 46L2445 -53M2461 46L2502 -30M2461 1486L2445 1387M2461 1486L2502 1410M2501 53L2509 98M2501 53L2445 -53M2501 53L2502 -30M2501 1493L2445 1387M2501 1493L2502 1410M41 126L84 82M41 126L-51 98M41 126L37 195M41 126L-2 213M2601 126L2509 98M2601 126L2558 213M84 82L148 198M209 83L166 176M298 148L359 137M298 148L292 191M298 148L352 168M298 148L417 173M359 137L292 191M359 137L352 168M359 137L417 173M467 124L549 115M467 124L417 173M549 115L597 135M549 115L648 102M549 115L618 186M597 135L648 102M597 135L545 223M597 135L618 186M648 102L743 107M648 102L618 186M743 107L847 124M743 107L737 172M847 124L898 147M847 124L852 217M847 124L902 206M898 147L852 217M898 147L902 206M898 147L994 186M1015 157L1085 107M1015 157L994 186M1015 157L1117 186M1015 157L1126 218M1085 107L1164 125M1085 107L1117 186M1164 125L1273 109M1164 125L1117 186M1164 125L1126 218M1273 109L1348 130M1273 109L1273 160M1348 130L1423 91M1348 130L1322 218M1423 91L1493 158M1423 91L1437 167M1493 158L1521 129M1493 158L1437 167M1493 158L1515 214M1493 158L1561 237M1521 129L1437 167M1521 129L1515 214M1637 131L1688 118M1637 131L1652 211M1688 118L1768 115M1768 115L1790 174M1768 115L1768 -2M1768 1555L1768 1438M1908 120L1956 134M1908 120L1895 226M1908 120L1928 186M1956 134L1895 226M1956 134L1928 186M1956 134L2021 169M2066 101L2087 94M2066 101L2021 169M2066 101L2115 -3M2066 1541L2115 1437M2087 94L2021 169M2087 94L2115 -3M2087 1534L2115 1437M2213 94L2294 86M2213 94L2191 160M2213 94L2243 174M2294 86L2339 168M2387 133L2403 160M2387 133L2339 168M2387 133L2432 209M2403 160L2339 168M2403 160L2432 209M2403 160L2465 243M2509 98L2502 -30M2509 1538L2502 1410M37 195L148 198M37 195L-2 213M2597 195L2558 213M148 198L166 176M148 198L132 287M292 191L352 168M292 191L356 277M352 168L417 173M352 168L356 277M417 173L402 266M545 223L618 186M545 223L652 221M545 223L540 275M545 223L591 295M618 186L652 221M652 221L737 172M652 221L591 295M652 221L686 252M737 172L686 252M852 217L902 206M852 217L795 289M852 217L839 253M902 206L994 186M902 206L839 253M994 186L989 281M994 186L1067 273M1117 186L1126 218M1117 186L1158 245M1126 218L1067 273M1126 218L1158 245M1273 160L1322 218M1273 160L1267 263M1322 218L1267 263M1322 218L1318 274M1322 218L1409 276M1437 167L1515 214M1437 167L1456 266M1515 214L1561 237M1515 214L1456 266M1561 237L1652 211M1561 237L1588 318M1561 237L1620 284M1652 211L1695 229M1652 211L1620 284M1652 211L1699 292M1695 229L1790 174M1695 229L1699 292M1895 226L1928 186M1895 226L1880 286M1895 226L1935 313M1928 186L2021 169M2021 169L2030 253M2152 212L2191 160M2152 212L2243 174M2152 212L2149 260M2152 212L2163 279M2152 212L2246 311M2191 160L2243 174M2339 168L2432 209M2432 209L2399 293M2432 209L2465 243M2558 213L2603 297M2558 213L2465 243M-2 213L43 297M43 297L132 287M43 297L-62 312M43 297L77 368M43 297L-13 360M2603 297L2498 312M2603 297L2547 360M132 287L166 319M132 287L77 368M166 319L132 396M166 319L237 390M304 311L356 277M304 311L402 266M304 311L259 376M304 311L349 386M356 277L402 266M402 266L492 338M540 275L591 295M540 275L492 338M540 275L620 362M591 295L620 362M591 295L678 323M686 252L678 323M686 252L766 323M795 289L839 253M795 289L678 323M795 289L766 323M795 289L841 334M839 253L766 323M839 253L841 334M960 314L989 281M960 314L841 334M960 314L909 370M960 314L1010 380M960 314L964 404M989 281L1067 273M989 281L1079 322M1067 273L1158 245M1067 273L1079 322M1158 245L1267 263M1158 245L1079 322M1267 263L1318 274M1267 263L1310 341M1318 274L1409 276M1318 274L1310 341M1318 274L1296 406M1409 276L1456 266M1409 276L1419 354M1456 266L1419 354M1456 266L1533 324M1588 318L1620 284M1588 318L1533 324M1588 318L1601 356M1588 318L1617 414M1620 284L1699 292M1620 284L1601 356M1699 292L1782 301M1699 292L1731 365M1782 301L1880 286M1782 301L1731 365M1782 301L1775 366M1880 286L1935 313M1880 286L1865 381M1880 286L1941 353M1935 313L1941 353M1935 313L2036 323M2030 253L2036 323M2149 260L2163 279M2149 260L2246 311M2149 260L2036 323M2163 279L2246 311M2163 279L2198 362M2246 311L2198 362M2246 311L2246 363M2399 293L2465 243M2399 293L2498 312M2399 293L2368 374M2399 293L2440 350M2465 243L2498 312M2498 312L2440 350M2498 312L2547 360M77 368L132 396M77 368L-13 360M77 368L110 446M2637 368L2547 360M132 396L110 446M132 396L217 413M237 390L259 376M237 390L217 413M237 390L261 412M237 390L272 485M259 376L349 386M259 376L217 413M259 376L261 412M349 386L261 412M349 386L361 467M349 386L429 417M456 391L492 338M456 391L429 417M456 391L509 467M620 362L678 323M620 362L620 426M678 323L766 323M766 323L841 334M841 334L909 370M909 370L934 441M909 370L964 404M1010 380L1079 322M1010 380L934 441M1010 380L964 404M1010 380L1093 433M1179 365L1232 372M1179 365L1145 443M1232 372L1310 341M1232 372L1145 443M1232 372L1264 472M1232 372L1296 406M1310 341L1419 354M1310 341L1296 406M1419 354L1479 384M1419 354L1456 419M1479 384L1533 324M1479 384L1456 419M1533 324L1601 356M1601 356L1589 476M1601 356L1617 414M1731 365L1775 366M1731 365L1749 468M1731 365L1808 433M1775 366L1865 381M1775 366L1749 468M1775 366L1808 433M1865 381L1941 353M1865 381L1808 433M1865 381L1911 459M1941 353L2036 323M1941 353L1911 459M2036 323L2049 450M2144 399L2198 362M2144 399L2246 363M2144 399L2119 471M2144 399L2205 459M2144 399L2187 482M2198 362L2246 363M2246 363L2283 439M2368 374L2440 350M2368 374L2421 432M2440 350L2421 432M2547 360L2499 444M34 464L110 446M34 464L-61 444M34 464L70 520M34 464L-35 484M34 464L-0 561M2594 464L2499 444M2594 464L2525 484M2594 464L2560 561M110 446L70 520M110 446L116 543M217 413L261 412M217 413L272 485M261 412L272 485M361 467L429 417M361 467L272 485M361 467L340 502M429 417L509 467M429 417L454 509M509 467L454 509M509 467L538 554M509 467L602 506M620 426L682 462M620 426L602 506M682 462L785 454M682 462L602 506M682 462L659 548M785 454L802 464M785 454L791 515M785 454L847 534M802 464L791 515M802 464L847 534M934 441L964 404M934 441L931 499M934 441L1031 489M964 404L931 499M1093 433L1145 443M1093 433L1031 489M1093 433L1076 505M1093 433L1132 489M1145 443L1076 505M1145 443L1132 489M1264 472L1296 406M1264 472L1220 554M1296 406L1375 462M1375 462L1456 419M1375 462L1350 530M1375 462L1416 537M1375 462L1458 492M1456 419L1458 492M1589 476L1617 414M1589 476L1600 489M1589 476L1636 501M1617 414L1600 489M1617 414L1636 501M1749 468L1808 433M1749 468L1727 538M1749 468L1762 530M1808 433L1886 496M1911 459L1984 465M1911 459L1886 496M1911 459L1949 492M1984 465L2049 450M1984 465L1886 496M1984 465L1949 492M1984 465L2027 548M2049 450L2119 471M2049 450L1949 492M2049 450L2027 548M2119 471L2205 459M2119 471L2154 532M2119 471L2187 482M2205 459L2283 439M2205 459L2154 532M2205 459L2187 482M2283 439L2323 475M2283 439L2264 532M2323 475L2264 532M2323 475L2379 509M2323 475L2376 573M2421 432L2499 444M2421 432L2379 509M2421 432L2439 491M2499 444L2439 491M2499 444L2525 484M70 520L116 543M70 520L38 611M70 520L-0 561M2630 520L2560 561M116 543L169 559M116 543L137 625M169 559L137 625M169 559L235 599M169 559L246 599M272 485L340 502M454 509L538 554M454 509L407 599M454 509L484 600M538 554L602 506M538 554L484 600M538 554L617 612M602 506L659 548M659 548L617 612M659 548L679 629M791 515L847 534M791 515L830 582M847 534L931 499M847 534L830 582M931 499L1031 489M931 499L971 578M1031 489L1076 505M1031 489L1132 489M1076 505L1132 489M1132 489L1203 568M1220 554L1173 612M1220 554L1203 568M1220 554L1289 626M1350 530L1416 537M1350 530L1458 492M1416 537L1458 492M1416 537L1375 634M1416 537L1457 592M1458 492L1457 592M1600 489L1636 501M1600 489L1666 574M1636 501L1727 538M1636 501L1666 574M1727 538L1762 530M1727 538L1666 574M1727 538L1774 597M1762 530L1682 625M1762 530L1774 597M1886 496L1949 492M1949 492L2027 548M2027 548L2003 624M2027 548L2099 568M2154 532L2187 482M2154 532L2099 568M2154 532L2210 588M2187 482L2264 532M2264 532L2210 588M2264 532L2256 580M2379 509L2439 491M2379 509L2376 573M2379 509L2410 602M2439 491L2525 484M2439 491L2376 573M2525 484L2560 561M38 611L137 625M38 611L-0 561M38 611L30 702M38 611L-0 651M2598 611L2560 561M2598 611L2560 651M137 625L235 599M137 625L130 704M235 599L246 599M235 599L350 620M235 599L261 679M246 599L350 620M246 599L261 679M350 620L407 599M350 620L373 678M407 599L484 600M407 599L373 678M407 599L464 641M484 600L464 641M617 612L679 629M617 612L633 715M617 612L648 669M679 629L753 632M679 629L648 669M679 629L725 649M753 632L830 582M753 632L725 649M753 632L867 649M830 582L952 622M830 582L867 649M952 622L971 578M952 622L867 649M952 622L905 702M952 622L980 685M971 578L1096 634M971 578L867 649M971 578L980 685M1096 634L1173 612M1096 634L1203 568M1096 634L1076 692M1096 634L1164 718M1173 612L1203 568M1203 568L1289 626M1289 626L1375 634M1289 626L1274 708M1289 626L1328 663M1375 634L1457 592M1375 634L1328 663M1375 634L1416 712M1457 592L1529 610M1457 592L1501 651M1529 610L1501 651M1529 610L1538 694M1666 574L1682 625M1666 574L1679 660M1682 625L1774 597M1682 625L1679 660M1682 625L1736 705M1774 597L1679 660M1774 597L1822 666M1910 632L1949 625M1910 632L2003 624M1910 632L1822 666M1910 632L1865 710M1910 632L1970 661M1949 625L2003 624M1949 625L1970 661M2003 624L1970 661M2003 624L2055 664M2099 568L2210 588M2210 588L2256 580M2210 588L2161 685M2376 573L2410 602M2376 573L2343 663M2410 602L2343 663M2410 602L2459 682M2560 561L2560 651M30 702L130 704M30 702L-0 651M30 702L24 786M30 702L-61 732M2590 702L2560 651M2590 702L2499 732M130 704L187 705M130 704L192 728M187 705L261 679M187 705L192 728M187 705L242 780M261 679L192 728M261 679L242 780M373 678L464 641M373 678L352 770M373 678L447 742M464 641L543 701M464 641L447 742M543 701L633 715M543 701L447 742M543 701L510 789M543 701L576 724M633 715L648 669M633 715L576 724M633 715L656 729M648 669L725 649M648 669L656 729M867 649L905 702M905 702L980 685M905 702L855 784M905 702L929 792M980 685L1076 692M1076 692L1164 718M1076 692L1029 792M1164 718L1274 708M1164 718L1102 788M1164 718L1168 753M1274 708L1328 663M1274 708L1252 781M1274 708L1310 742M1328 663L1416 712M1328 663L1310 742M1416 712L1382 794M1416 712L1473 730M1501 651L1538 694M1501 651L1473 730M1538 694L1473 730M1538 694L1576 785M1538 694L1578 804M1679 660L1736 705M1679 660L1709 770M1736 705L1680 792M1736 705L1709 770M1736 705L1810 733M1822 666L1865 710M1822 666L1810 733M1865 710L1810 733M1865 710L1911 798M1865 710L1818 802M1970 661L2055 664M1970 661L1980 734M2055 664L2098 706M2055 664L2161 685M2055 664L2002 751M2098 706L2161 685M2098 706L2002 751M2098 706L2144 788M2161 685L2144 788M2161 685L2203 765M2287 695L2343 663M2287 695L2318 798M2459 682L2560 651M2459 682L2424 754M2459 682L2499 732M2560 651L2499 732M24 786L83 799M24 786L29 836M24 786L105 801M24 786L-16 866M2584 786L2544 866M83 799L29 836M83 799L105 801M83 799L169 810M83 799L109 896M192 728L242 780M192 728L169 810M242 780L169 810M242 780L255 846M352 770L447 742M352 770L333 861M447 742L510 789M510 789L576 724M510 789L544 879M576 724L656 729M656 729L638 829M656 729L679 830M786 780L855 784M786 780L679 830M786 780L753 868M786 780L851 810M855 784L929 792M855 784L851 810M929 792L851 810M929 792L958 872M929 792L997 862M1029 792L1102 788M1029 792L958 872M1029 792L997 862M1029 792L1068 863M1102 788L1168 753M1102 788L1068 863M1102 788L1152 845M1168 753L1252 781M1252 781L1310 742M1252 781L1242 815M1252 781L1307 862M1310 742L1382 794M1382 794L1307 862M1382 794L1422 829M1382 794L1468 848M1473 730L1576 785M1473 730L1422 829M1576 785L1680 792M1576 785L1578 804M1680 792L1709 770M1680 792L1635 872M1680 792L1745 864M1709 770L1745 864M1810 733L1818 802M1911 798L1980 734M1911 798L1818 802M1911 798L1887 839M1911 798L1936 816M1980 734L2002 751M1980 734L2037 807M2002 751L1936 816M2002 751L2037 807M2144 788L2203 765M2144 788L2104 869M2144 788L2197 829M2203 765L2197 829M2318 798L2377 774M2318 798L2424 754M2318 798L2287 819M2318 798L2369 880M2377 774L2424 754M2377 774L2287 819M2377 774L2454 865M2424 754L2499 732M29 836L105 801M29 836L-16 866M29 836L60 913M2589 836L2544 866M105 801L169 810M105 801L109 896M169 810L255 846M255 846L333 861M255 846L224 890M255 846L249 944M333 861L427 865M333 861L224 890M333 861L372 917M427 865L544 879M427 865L372 917M427 865L424 928M427 865L424 977M544 879L638 829M544 879L547 917M544 879L614 883M638 829L679 830M638 829L614 883M679 830L753 868M679 830L614 883M753 868L851 810M753 868L727 946M958 872L997 862M958 872L898 945M958 872L1002 940M997 862L1068 863M997 862L1002 940M1068 863L1152 845M1068 863L1085 946M1152 845L1242 815M1152 845L1188 903M1152 845L1246 892M1242 815L1307 862M1242 815L1188 903M1242 815L1246 892M1307 862L1246 892M1307 862L1341 925M1422 829L1468 848M1422 829L1450 887M1468 848L1578 804M1468 848L1450 887M1578 804L1635 872M1635 872L1566 922M1635 872L1652 898M1635 872L1606 972M1745 864L1818 802M1745 864L1724 958M1745 864L1780 911M1818 802L1887 839M1887 839L1936 816M1887 839L1919 894M1936 816L2037 807M1936 816L1919 894M2037 807L2104 869M2037 807L2009 881M2104 869L2115 929M2104 869L2074 966M2104 869L2103 962M2197 829L2287 819M2197 829L2225 921M2287 819L2369 880M2287 819L2282 920M2369 880L2454 865M2369 880L2333 910M2454 865L2544 866M2454 865L2448 952M2454 865L2521 936M2544 866L2521 936M60 913L109 896M60 913L42 979M60 913L122 977M60 913L-3 965M2620 913L2557 965M109 896L42 979M109 896L122 977M224 890L249 944M249 944L179 1028M249 944L312 993M372 917L424 928M372 917L312 993M372 917L424 977M424 928L424 977M547 917L614 883M547 917L547 1017M547 917L564 1008M614 883L647 953M647 953L727 946M647 953L564 1008M647 953L713 1010M647 953L737 988M727 946L713 1010M727 946L737 988M855 959L898 945M855 959L878 965M855 959L910 971M898 945L878 965M898 945L910 971M898 945L966 984M1002 940L1085 946M1002 940L966 984M1085 946L1188 903M1085 946L1083 1018M1188 903L1246 892M1188 903L1183 1018M1246 892L1257 1001M1341 925L1379 948M1341 925L1350 991M1379 948L1450 887M1379 948L1350 991M1379 948L1424 1028M1379 948L1463 987M1450 887L1566 922M1450 887L1463 987M1566 922L1652 898M1566 922L1583 986M1566 922L1606 972M1652 898L1724 958M1652 898L1606 972M1652 898L1711 981M1724 958L1780 911M1724 958L1711 981M1724 958L1754 1046M1780 911L1711 981M1780 911L1809 1018M1919 894L1945 953M1919 894L2009 881M1945 953L2009 881M1945 953L1914 1006M1945 953L1999 961M2009 881L1999 961M2115 929L2074 966M2115 929L2103 962M2115 929L2215 984M2225 921L2282 920M2225 921L2333 910M2225 921L2215 984M2225 921L2262 962M2282 920L2333 910M2282 920L2215 984M2282 920L2262 962M2333 910L2262 962M2448 952L2521 936M2448 952L2475 1035M2448 952L2483 1040M2521 936L2602 979M2521 936L2557 965M-39 936L42 979M42 979L122 977M42 979L-3 965M2602 979L2557 965M122 977L179 1028M122 977L111 1056M179 1028L111 1056M179 1028L217 1047M312 993L363 1028M312 993L300 1045M312 993L333 1043M363 1028L424 977M363 1028L300 1045M363 1028L333 1043M363 1028L448 1069M424 977L448 1069M547 1017L564 1008M547 1017L540 1114M547 1017L590 1065M564 1008L590 1065M713 1010L737 988M713 1010L691 1082M713 1010L749 1065M737 988L691 1082M737 988L749 1065M878 965L910 971M878 965L966 984M878 965L906 1067M910 971L966 984M910 971L968 1051M966 984L968 1051M1083 1018L1183 1018M1083 1018L1115 1066M1083 1018L1167 1042M1083 1018L1098 1120M1183 1018L1257 1001M1183 1018L1115 1066M1183 1018L1167 1042M1257 1001L1350 991M1257 1001L1167 1042M1350 991L1424 1028M1350 991L1424 1052M1424 1028L1463 987M1424 1028L1424 1052M1424 1028L1453 1047M1463 987L1424 1052M1463 987L1453 1047M1583 986L1606 972M1583 986L1555 1078M1606 972L1711 981M1711 981L1754 1046M1809 1018L1914 1006M1809 1018L1754 1046M1809 1018L1802 1073M1914 1006L1999 961M1914 1006L1886 1107M1914 1006L1975 1102M1999 961L2074 966M1999 961L2103 962M2074 966L2103 962M2074 966L2067 1044M2103 962L2067 1044M2215 984L2262 962M2215 984L2214 1047M2262 962L2331 1037M2331 1037L2313 1061M2331 1037L2388 1074M2331 1037L2419 1084M2331 1037L2336 1150M2475 1035L2557 965M2475 1035L2388 1074M2475 1035L2419 1084M2475 1035L2483 1040M2557 965L2483 1040M54 1087L111 1056M54 1087L130 1140M54 1087L-38 1155M2614 1087L2522 1155M111 1056L217 1047M111 1056L130 1140M217 1047L300 1045M217 1047L252 1151M300 1045L333 1043M300 1045L252 1151M333 1043L388 1135M448 1069L388 1135M448 1069L448 1144M448 1069L483 1129M540 1114L590 1065M540 1114L448 1144M540 1114L483 1129M540 1114L595 1206M590 1065L691 1082M691 1082L749 1065M691 1082L703 1168M749 1065L785 1136M867 1085L906 1067M867 1085L968 1051M867 1085L785 1136M867 1085L853 1143M867 1085L887 1126M906 1067L968 1051M906 1067L887 1126M968 1051L887 1126M1115 1066L1167 1042M1115 1066L1098 1120M1276 1118L1313 1096M1276 1118L1222 1144M1276 1118L1355 1189M1276 1118L1373 1146M1276 1118L1288 1202M1313 1096L1355 1189M1313 1096L1373 1146M1424 1052L1453 1047M1424 1052L1373 1146M1453 1047L1555 1078M1453 1047L1490 1139M1555 1078L1608 1096M1555 1078L1490 1139M1555 1078L1533 1144M1608 1096L1533 1144M1608 1096L1657 1160M1608 1096L1691 1186M1754 1046L1802 1073M1802 1073L1886 1107M1886 1107L1975 1102M1886 1107L1882 1155M1886 1107L1976 1159M1975 1102L2067 1044M1975 1102L1882 1155M1975 1102L1976 1159M2067 1044L2157 1085M2067 1044L2081 1144M2157 1085L2214 1047M2157 1085L2081 1144M2157 1085L2182 1165M2313 1061L2388 1074M2313 1061L2273 1155M2313 1061L2336 1150M2388 1074L2419 1084M2388 1074L2401 1136M2419 1084L2483 1040M2419 1084L2401 1136M2483 1040L2522 1155M20 1200L-38 1155M20 1200L7 1234M20 1200L94 1216M20 1200L-18 1267M20 1200L-51 1282M2580 1200L2522 1155M2580 1200L2542 1267M2580 1200L2509 1282M130 1140L177 1167M130 1140L94 1216M177 1167L252 1151M177 1167L94 1216M177 1167L227 1253M252 1151L227 1253M252 1151L305 1218M388 1135L448 1144M388 1135L483 1129M388 1135L305 1218M448 1144L483 1129M633 1190L703 1168M633 1190L595 1206M633 1190L709 1251M703 1168L785 1136M703 1168L709 1251M785 1136L853 1143M785 1136L785 1228M853 1143L887 1126M853 1143L867 1234M853 1143L912 1213M887 1126L912 1213M1023 1172L1098 1120M1023 1172L964 1237M1023 1172L1101 1220M1098 1120L1180 1190M1098 1120L1101 1220M1180 1190L1222 1144M1180 1190L1101 1220M1180 1190L1194 1224M1180 1190L1253 1231M1222 1144L1194 1224M1222 1144L1253 1231M1222 1144L1288 1202M1355 1189L1373 1146M1355 1189L1288 1202M1355 1189L1392 1273M1490 1139L1533 1144M1657 1160L1691 1186M1657 1160L1767 1185M1657 1160L1662 1239M1657 1160L1708 1203M1691 1186L1767 1185M1691 1186L1662 1239M1691 1186L1708 1203M1767 1185L1708 1203M1767 1185L1810 1273M1882 1155L1976 1159M1882 1155L1874 1239M1976 1159L2056 1191M2056 1191L2081 1144M2056 1191L2007 1259M2056 1191L2110 1244M2081 1144L2110 1244M2182 1165L2273 1155M2182 1165L2110 1244M2182 1165L2188 1240M2182 1165L2246 1219M2273 1155L2336 1150M2273 1155L2246 1219M2336 1150L2401 1136M2336 1150L2392 1207M2401 1136L2392 1207M2401 1136L2432 1232M2522 1155L2567 1234M2522 1155L2542 1267M-38 1155L7 1234M7 1234L94 1216M7 1234L-18 1267M7 1234L-51 1282M2567 1234L2542 1267M2567 1234L2509 1282M94 1216L115 1317M227 1253L305 1218M227 1253L167 1326M227 1253L263 1307M305 1218L385 1272M305 1218L263 1307M385 1272L468 1256M385 1272L398 1299M468 1256L485 1261M468 1256L398 1299M468 1256L477 1334M485 1261L398 1299M485 1261L477 1334M485 1261L573 1318M709 1251L785 1228M709 1251L718 1322M709 1251L723 1301M785 1228L867 1234M785 1228L723 1301M785 1228L844 1304M867 1234L912 1213M867 1234L844 1304M867 1234L888 1329M912 1213L964 1237M1101 1220L1194 1224M1194 1224L1253 1231M1194 1224L1260 1284M1253 1231L1288 1202M1253 1231L1260 1284M1288 1202L1260 1284M1392 1273L1471 1254M1392 1273L1317 1316M1392 1273L1424 1292M1471 1254L1564 1261M1471 1254L1424 1292M1564 1261L1662 1239M1564 1261L1568 1340M1564 1261L1634 1313M1662 1239L1708 1203M1662 1239L1634 1313M1810 1273L1874 1239M1810 1273L1720 1315M1810 1273L1793 1348M1810 1273L1905 1292M1874 1239L1950 1276M1874 1239L1905 1292M1950 1276L2007 1259M1950 1276L1905 1292M1950 1276L1948 1330M1950 1276L2001 1314M2007 1259L2001 1314M2007 1259L2099 1289M2110 1244L2188 1240M2110 1244L2099 1289M2188 1240L2246 1219M2188 1240L2099 1289M2188 1240L2197 1341M2392 1207L2432 1232M2392 1207L2407 1317M2432 1232L2407 1317M2432 1232L2509 1282M2542 1267L2625 1331M2542 1267L2509 1282M-18 1267L65 1331M65 1331L115 1317M65 1331L167 1326M65 1331L55 1365M65 1331L88 1403M115 1317L167 1326M115 1317L55 1365M115 1317L88 1403M167 1326L263 1307M167 1326L232 1375M263 1307L232 1375M263 1307L261 1404M398 1299L477 1334M398 1299L383 1386M477 1334L514 1350M477 1334L478 1374M514 1350L573 1318M514 1350L478 1374M514 1350L558 1417M514 1350L561 1420M573 1318L561 1420M718 1322L723 1301M718 1322L681 1409M718 1322L754 1424M723 1301L681 1409M844 1304L888 1329M844 1304L814 1395M844 1304L907 1391M888 1329L991 1337M888 1329L814 1395M888 1329L907 1391M991 1337L1042 1351M991 1337L907 1391M991 1337L1017 1395M991 1337L1041 1428M1042 1351L1132 1350M1042 1351L1017 1395M1042 1351L1041 1428M1132 1350L1182 1415M1132 1350L1247 1367M1260 1284L1317 1316M1260 1284L1247 1367M1317 1316L1424 1292M1317 1316L1247 1367M1317 1316L1315 1427M1501 1348L1568 1340M1501 1348L1439 1407M1501 1348L1482 1378M1501 1348L1528 1387M1568 1340L1634 1313M1568 1340L1482 1378M1568 1340L1528 1387M1634 1313L1720 1315M1634 1313L1660 1386M1720 1315L1793 1348M1720 1315L1660 1386M1720 1315L1730 1390M1793 1348L1730 1390M1793 1348L1768 1438M1905 1292L1948 1330M1948 1330L2001 1314M1948 1330L1918 1396M1948 1330L1953 1418M2001 1314L2099 1289M2001 1314L2007 1394M2099 1289L2197 1341M2197 1341L2242 1347M2197 1341L2213 1409M2197 1341L2262 1379M2242 1347L2330 1331M2242 1347L2213 1409M2242 1347L2262 1379M2242 1347L2327 1412M2330 1331L2407 1317M2330 1331L2327 1412M2407 1317L2509 1282M2407 1317L2445 1387M55 1365L88 1403M232 1375L261 1404M261 1404L383 1386M383 1386L478 1374M478 1374L558 1417M558 1417L561 1420M681 1409L754 1424M754 1424L814 1395M814 1395L907 1391M1017 1395L1041 1428M1182 1415L1247 1367M1247 1367L1315 1427M1439 1407L1482 1378M1439 1407L1528 1387M1482 1378L1528 1387M1660 1386L1730 1390M1730 1390L1768 1438M1918 1396L1953 1418M1918 1396L2007 1394M1953 1418L2007 1394M2213 1409L2262 1379M2262 1379L2327 1412M2327 1412L2445 1387M2445 1387L2502 1410"/></svg>