<svg xmlns="http://www.w3.org/2000/svg" width="2560" height="1440" fill="#fff"><circle cx="72" cy="41" r="5"/><circle cx="156" cy="69" r="6"/><circle cx="167" cy="46" r="4"/><circle cx="318" cy="53" r="4"/><circle cx="351" cy="18" r="6"/><circle cx="407" cy="19" r="5"/><circle cx="538" cy="7" r="5"/><circle cx="636" cy="24" r="5"/><circle cx="642" cy="17" r="6"/><circle cx="795" cy="10" r="5"/><circle cx="852" cy="48" r="5"/><circle cx="886" cy="4" r="6"/><circle cx="886" cy="1444" r="6"/><circle cx="1009" cy="45" r="5"/><circle cx="1108" cy="44" r="4"/><circle cx="1197" cy="71" r="5"/><circle cx="1252" cy="8" r="6"/><circle cx="1303" cy="75" r="5"/><circle cx="1395" cy="53" r="5"/><circle cx="1510" cy="43" r="6"/><circle cx="1572" cy="68" r="5"/><circle cx="1674" cy="3" r="5"/><circle cx="1674" cy="1443" r="5"/><circle cx="1747" cy="70" r="6"/><circle cx="1791" cy="30" r="5"/><circle cx="1844" cy="51" r="5"/><circle cx="1957" cy="60" r="4"/><circle cx="2015" cy="0" r="5"/><circle cx="2015" cy="1440" r="5"/><circle cx="2116" cy="46" r="4"/><circle cx="2168" cy="24" r="4"/><circle cx="2258" cy="17" r="5"/><circle cx="2375" cy="69" r="5"/><circle cx="2476" cy="22" r="5"/><circle cx="2527" cy="17" r="6"/><circle cx="78" cy="153" r="4"/><circle cx="82" cy="152" r="5"/><circle cx="191" cy="147" r="5"/><circle cx="293" cy="114" r="5"/><circle cx="357" cy="114" r="5"/><circle cx="446" cy="127" r="5"/><circle cx="521" cy="111" r="5"/><circle cx="630" cy="123" r="5"/><circle cx="693" cy="132" r="4"/><circle cx="767" cy="86" r="6"/><circle cx="813" cy="94" r="4"/><circle cx="933" cy="110" r="5"/><circle cx="999" cy="84" r="5"/><circle cx="1104" cy="131" r="5"/><circle cx="1147" cy="100" r="6"/><circle cx="1229" cy="112" r="5"/><circle cx="1337" cy="82" r="5"/><circle cx="1374" cy="159" r="5"/><circle cx="1469" cy="141" r="4"/><circle cx="1552" cy="154" r="6"/><circle cx="1667" cy="142" r="6"/><circle cx="1749" cy="156" r="5"/><circle cx="1772" cy="80" r="4"/><circle cx="1913" cy="99" r="5"/><circle cx="1937" cy="151" r="5"/><circle cx="2073" cy="128" r="4"/><circle cx="2111" cy="120" r="5"/><circle cx="2188" cy="95" r="4"/><circle cx="2283" cy="131" r="4"/><circle cx="2380" cy="127" r="5"/><circle cx="2452" cy="104" r="5"/><circle cx="2556" cy="153" r="6"/><circle cx="-4" cy="153" r="6"/><circle cx="9" cy="175" r="6"/><circle cx="120" cy="227" r="5"/><circle cx="203" cy="195" r="6"/><circle cx="284" cy="179" r="5"/><circle cx="323" cy="232" r="4"/><circle cx="467" cy="210" r="4"/><circle cx="520" cy="212" r="6"/><circle cx="610" cy="190" r="5"/><circle cx="656" cy="193" r="5"/><circle cx="742" cy="230" r="6"/><circle cx="868" cy="211" r="5"/><circle cx="933" cy="188" r="6"/><circle cx="993" cy="229" r="6"/><circle cx="1113" cy="189" r="4"/><circle cx="1154" cy="162" r="4"/><circle cx="1232" cy="216" r="4"/><circle cx="1329" cy="181" r="5"/><circle cx="1407" cy="180" r="5"/><circle cx="1514" cy="231" r="6"/><circle cx="1531" cy="162" r="5"/><circle cx="1601" cy="212" r="4"/><circle cx="1758" cy="200" r="5"/><circle cx="1780" cy="204" r="5"/><circle cx="1915" cy="180" r="5"/><circle cx="1923" cy="208" r="6"/><circle cx="2020" cy="203" r="4"/><circle cx="2093" cy="232" r="5"/><circle cx="2179" cy="181" r="5"/><circle cx="2268" cy="216" r="4"/><circle cx="2349" cy="234" r="6"/><circle cx="2435" cy="189" r="5"/><circle cx="2501" cy="170" r="4"/><circle cx="62" cy="300" r="5"/><circle cx="100" cy="260" r="5"/><circle cx="160" cy="305" r="4"/><circle cx="288" cy="298" r="4"/><circle cx="352" cy="281" r="6"/><circle cx="403" cy="252" r="5"/><circle cx="529" cy="264" r="6"/><circle cx="618" cy="261" r="4"/><circle cx="697" cy="243" r="5"/><circle cx="788" cy="301" r="4"/><circle cx="873" cy="317" r="4"/><circle cx="892" cy="301" r="6"/><circle cx="978" cy="259" r="4"/><circle cx="1055" cy="258" r="6"/><circle cx="1195" cy="242" r="5"/><circle cx="1273" cy="272" r="5"/><circle cx="1342" cy="282" r="5"/><circle cx="1427" cy="298" r="5"/><circle cx="1459" cy="297" r="6"/><circle cx="1556" cy="302" r="5"/><circle cx="1642" cy="295" r="6"/><circle cx="1720" cy="286" r="4"/><circle cx="1839" cy="266" r="5"/><circle cx="1863" cy="255" r="5"/><circle cx="1949" cy="302" r="6"/><circle cx="2015" cy="278" r="6"/><circle cx="2144" cy="307" r="5"/><circle cx="2203" cy="308" r="5"/><circle cx="2320" cy="304" r="5"/><circle cx="2353" cy="299" r="6"/><circle cx="2469" cy="266" r="5"/><circle cx="2535" cy="319" r="5"/><circle cx="37" cy="373" r="5"/><circle cx="122" cy="361" r="6"/><circle cx="195" cy="355" r="5"/><circle cx="301" cy="334" r="4"/><circle cx="345" cy="341" r="6"/><circle cx="469" cy="399" r="5"/><circle cx="486" cy="364" r="6"/><circle cx="589" cy="393" r="6"/><circle cx="650" cy="342" r="5"/><circle cx="794" cy="390" r="5"/><circle cx="858" cy="345" r="6"/><circle cx="950" cy="374" r="4"/><circle cx="1021" cy="344" r="6"/><circle cx="1109" cy="399" r="5"/><circle cx="1198" cy="323" r="5"/><circle cx="1265" cy="397" r="5"/><circle cx="1329" cy="363" r="5"/><circle cx="1415" cy="328" r="6"/><circle cx="1469" cy="321" r="5"/><circle cx="1543" cy="351" r="5"/><circle cx="1608" cy="398" r="5"/><circle cx="1750" cy="339" r="6"/><circle cx="1825" cy="383" r="4"/><circle cx="1841" cy="342" r="5"/><circle cx="1979" cy="384" r="5"/><circle cx="2003" cy="353" r="6"/><circle cx="2108" cy="356" r="6"/><circle cx="2238" cy="379" r="4"/><circle cx="2253" cy="379" r="5"/><circle cx="2377" cy="390" r="5"/><circle cx="2476" cy="365" r="6"/><circle cx="2522" cy="323" r="5"/><circle cx="49" cy="459" r="5"/><circle cx="159" cy="452" r="6"/><circle cx="229" cy="414" r="5"/><circle cx="316" cy="403" r="6"/><circle cx="363" cy="426" r="5"/><circle cx="411" cy="456" r="5"/><circle cx="491" cy="415" r="5"/><circle cx="580" cy="461" r="6"/><circle cx="663" cy="438" r="5"/><circle cx="773" cy="410" r="4"/><circle cx="851" cy="421" r="6"/><circle cx="917" cy="452" r="4"/><circle cx="1038" cy="462" r="6"/><circle cx="1093" cy="473" r="4"/><circle cx="1140" cy="478" r="4"/><circle cx="1268" cy="430" r="4"/><circle cx="1316" cy="437" r="5"/><circle cx="1405" cy="402" r="6"/><circle cx="1520" cy="460" r="5"/><circle cx="1574" cy="406" r="6"/><circle cx="1661" cy="443" r="5"/><circle cx="1731" cy="447" r="5"/><circle cx="1814" cy="444" r="5"/><circle cx="1846" cy="460" r="5"/><circle cx="1933" cy="444" r="5"/><circle cx="2041" cy="436" r="6"/><circle cx="2085" cy="409" r="4"/><circle cx="2161" cy="470" r="5"/><circle cx="2281" cy="412" r="6"/><circle cx="2386" cy="437" r="5"/><circle cx="2402" cy="405" r="5"/><circle cx="2484" cy="454" r="5"/><circle cx="10" cy="551" r="6"/><circle cx="135" cy="516" r="4"/><circle cx="162" cy="550" r="6"/><circle cx="272" cy="544" r="5"/><circle cx="358" cy="526" r="5"/><circle cx="432" cy="488" r="5"/><circle cx="509" cy="517" r="5"/><circle cx="588" cy="546" r="5"/><circle cx="689" cy="523" r="4"/><circle cx="791" cy="515" r="4"/><circle cx="874" cy="499" r="4"/><circle cx="954" cy="519" r="5"/><circle cx="995" cy="519" r="4"/><circle cx="1091" cy="531" r="4"/><circle cx="1199" cy="527" r="5"/><circle cx="1280" cy="547" r="5"/><circle cx="1349" cy="538" r="6"/><circle cx="1366" cy="558" r="5"/><circle cx="1488" cy="524" r="4"/><circle cx="1538" cy="489" r="4"/><circle cx="1675" cy="518" r="6"/><circle cx="1752" cy="534" r="5"/><circle cx="1788" cy="541" r="5"/><circle cx="1905" cy="495" r="5"/><circle cx="1984" cy="528" r="5"/><circle cx="2009" cy="523" r="5"/><circle cx="2145" cy="506" r="4"/><circle cx="2173" cy="552" r="5"/><circle cx="2249" cy="485" r="6"/><circle cx="2346" cy="558" r="5"/><circle cx="2448" cy="497" r="4"/><circle cx="2558" cy="550" r="5"/><circle cx="-2" cy="550" r="5"/><circle cx="6" cy="624" r="5"/><circle cx="127" cy="617" r="4"/><circle cx="190" cy="584" r="4"/><circle cx="262" cy="579" r="6"/><circle cx="387" cy="587" r="4"/><circle cx="448" cy="597" r="5"/><circle cx="546" cy="614" r="4"/><circle cx="604" cy="603" r="6"/><circle cx="678" cy="599" r="5"/><circle cx="737" cy="588" r="4"/><circle cx="819" cy="629" r="4"/><circle cx="883" cy="609" r="6"/><circle cx="961" cy="572" r="5"/><circle cx="1116" cy="578" r="5"/><circle cx="1140" cy="597" r="6"/><circle cx="1207" cy="640" r="5"/><circle cx="1328" cy="570" r="4"/><circle cx="1400" cy="616" r="6"/><circle cx="1492" cy="614" r="4"/><circle cx="1594" cy="578" r="6"/><circle cx="1627" cy="577" r="5"/><circle cx="1754" cy="573" r="4"/><circle cx="1784" cy="636" r="5"/><circle cx="1844" cy="638" r="4"/><circle cx="1932" cy="619" r="6"/><circle cx="2080" cy="563" r="4"/><circle cx="2096" cy="567" r="4"/><circle cx="2179" cy="579" r="6"/><circle cx="2318" cy="562" r="4"/><circle cx="2344" cy="575" r="5"/><circle cx="2473" cy="567" r="4"/><circle cx="2497" cy="598" r="4"/><circle cx="6" cy="658" r="6"/><circle cx="107" cy="640" r="5"/><circle cx="162" cy="680" r="6"/><circle cx="253" cy="657" r="4"/><circle cx="378" cy="667" r="4"/><circle cx="440" cy="700" r="4"/><circle cx="531" cy="696" r="4"/><circle cx="605" cy="706" r="5"/><circle cx="680" cy="673" r="4"/><circle cx="729" cy="701" r="6"/><circle cx="822" cy="677" r="5"/><circle cx="914" cy="716" r="5"/><circle cx="969" cy="656" r="5"/><circle cx="1051" cy="697" r="5"/><circle cx="1192" cy="679" r="5"/><circle cx="1244" cy="680" r="5"/><circle cx="1323" cy="665" r="4"/><circle cx="1389" cy="663" r="6"/><circle cx="1446" cy="647" r="6"/><circle cx="1591" cy="702" r="5"/><circle cx="1642" cy="663" r="4"/><circle cx="1727" cy="677" r="5"/><circle cx="1762" cy="672" r="4"/><circle cx="1872" cy="681" r="5"/><circle cx="1953" cy="699" r="5"/><circle cx="2076" cy="710" r="4"/><circle cx="2139" cy="692" r="5"/><circle cx="2231" cy="674" r="6"/><circle cx="2319" cy="649" r="5"/><circle cx="2327" cy="703" r="5"/><circle cx="2444" cy="683" r="4"/><circle cx="2497" cy="668" r="6"/><circle cx="49" cy="793" r="5"/><circle cx="140" cy="728" r="6"/><circle cx="221" cy="779" r="4"/><circle cx="284" cy="767" r="6"/><circle cx="384" cy="749" r="6"/><circle cx="462" cy="721" r="5"/><circle cx="553" cy="723" r="5"/><circle cx="637" cy="798" r="5"/><circle cx="717" cy="768" r="6"/><circle cx="768" cy="773" r="6"/><circle cx="844" cy="796" r="6"/><circle cx="925" cy="759" r="5"/><circle cx="1022" cy="774" r="5"/><circle cx="1092" cy="730" r="5"/><circle cx="1179" cy="759" r="4"/><circle cx="1241" cy="777" r="4"/><circle cx="1311" cy="781" r="4"/><circle cx="1365" cy="772" r="6"/><circle cx="1451" cy="800" r="6"/><circle cx="1588" cy="746" r="5"/><circle cx="1652" cy="733" r="6"/><circle cx="1742" cy="770" r="5"/><circle cx="1798" cy="736" r="5"/><circle cx="1886" cy="728" r="4"/><circle cx="1940" cy="772" r="5"/><circle cx="2004" cy="725" r="5"/><circle cx="2104" cy="770" r="5"/><circle cx="2230" cy="771" r="5"/><circle cx="2249" cy="750" r="5"/><circle cx="2384" cy="734" r="4"/><circle cx="2473" cy="757" r="5"/><circle cx="2506" cy="751" r="4"/><circle cx="27" cy="830" r="4"/><circle cx="157" cy="833" r="5"/><circle cx="162" cy="855" r="5"/><circle cx="268" cy="866" r="4"/><circle cx="378" cy="856" r="6"/><circle cx="416" cy="861" r="4"/><circle cx="502" cy="874" r="6"/><circle cx="567" cy="828" r="5"/><circle cx="716" cy="871" r="5"/><circle cx="764" cy="811" r="6"/><circle cx="875" cy="846" r="4"/><circle cx="957" cy="845" r="4"/><circle cx="974" cy="843" r="4"/><circle cx="1059" cy="825" r="5"/><circle cx="1198" cy="848" r="6"/><circle cx="1275" cy="874" r="4"/><circle cx="1305" cy="859" r="5"/><circle cx="1406" cy="817" r="6"/><circle cx="1474" cy="808" r="5"/><circle cx="1593" cy="864" r="5"/><circle cx="1622" cy="805" r="6"/><circle cx="1743" cy="847" r="6"/><circle cx="1801" cy="813" r="5"/><circle cx="1892" cy="808" r="5"/><circle cx="1999" cy="831" r="4"/><circle cx="2016" cy="838" r="4"/><circle cx="2139" cy="872" r="5"/><circle cx="2171" cy="831" r="6"/><circle cx="2287" cy="837" r="6"/><circle cx="2367" cy="843" r="4"/><circle cx="2479" cy="827" r="5"/><circle cx="2488" cy="853" r="5"/><circle cx="24" cy="894" r="6"/><circle cx="85" cy="950" r="5"/><circle cx="197" cy="881" r="4"/><circle cx="242" cy="960" r="6"/><circle cx="355" cy="915" r="6"/><circle cx="470" cy="955" r="4"/><circle cx="546" cy="887" r="6"/><circle cx="610" cy="923" r="5"/><circle cx="683" cy="911" r="5"/><circle cx="728" cy="904" r="5"/><circle cx="813" cy="948" r="4"/><circle cx="899" cy="942" r="5"/><circle cx="995" cy="902" r="5"/><circle cx="1107" cy="903" r="5"/><circle cx="1190" cy="919" r="4"/><circle cx="1273" cy="958" r="6"/><circle cx="1353" cy="935" r="5"/><circle cx="1393" cy="916" r="4"/><circle cx="1505" cy="936" r="6"/><circle cx="1531" cy="913" r="4"/><circle cx="1604" cy="893" r="4"/><circle cx="1714" cy="897" r="4"/><circle cx="1823" cy="950" r="6"/><circle cx="1896" cy="904" r="4"/><circle cx="1957" cy="926" r="5"/><circle cx="2041" cy="943" r="5"/><circle cx="2105" cy="934" r="5"/><circle cx="2161" cy="925" r="5"/><circle cx="2260" cy="937" r="5"/><circle cx="2321" cy="893" r="5"/><circle cx="2457" cy="931" r="5"/><circle cx="2483" cy="881" r="5"/><circle cx="6" cy="1003" r="5"/><circle cx="132" cy="987" r="4"/><circle cx="185" cy="990" r="5"/><circle cx="285" cy="970" r="5"/><circle cx="399" cy="1038" r="5"/><circle cx="403" cy="980" r="6"/><circle cx="540" cy="978" r="6"/><circle cx="596" cy="1008" r="5"/><circle cx="708" cy="976" r="6"/><circle cx="754" cy="960" r="6"/><circle cx="876" cy="996" r="6"/><circle cx="887" cy="1028" r="6"/><circle cx="1033" cy="1031" r="5"/><circle cx="1041" cy="962" r="4"/><circle cx="1135" cy="1035" r="5"/><circle cx="1202" cy="972" r="4"/><circle cx="1309" cy="1029" r="5"/><circle cx="1396" cy="1016" r="5"/><circle cx="1500" cy="1013" r="4"/><circle cx="1541" cy="961" r="5"/><circle cx="1612" cy="1007" r="4"/><circle cx="1690" cy="979" r="6"/><circle cx="1763" cy="1029" r="5"/><circle cx="1904" cy="995" r="5"/><circle cx="1926" cy="1003" r="5"/><circle cx="2004" cy="990" r="6"/><circle cx="2149" cy="972" r="4"/><circle cx="2195" cy="983" r="4"/><circle cx="2275" cy="1023" r="5"/><circle cx="2390" cy="995" r="5"/><circle cx="2438" cy="964" r="6"/><circle cx="2482" cy="1017" r="6"/><circle cx="74" cy="1090" r="6"/><circle cx="94" cy="1058" r="5"/><circle cx="237" cy="1087" r="6"/><circle cx="270" cy="1065" r="6"/><circle cx="379" cy="1106" r="6"/><circle cx="405" cy="1063" r="5"/><circle cx="488" cy="1115" r="4"/><circle cx="595" cy="1067" r="4"/><circle cx="658" cy="1086" r="5"/><circle cx="727" cy="1069" r="5"/><circle cx="853" cy="1106" r="5"/><circle cx="890" cy="1065" r="5"/><circle cx="1005" cy="1054" r="4"/><circle cx="1113" cy="1055" r="5"/><circle cx="1137" cy="1084" r="6"/><circle cx="1268" cy="1088" r="4"/><circle cx="1342" cy="1079" r="6"/><circle cx="1417" cy="1067" r="5"/><circle cx="1457" cy="1046" r="5"/><circle cx="1531" cy="1072" r="5"/><circle cx="1672" cy="1115" r="5"/><circle cx="1706" cy="1070" r="5"/><circle cx="1809" cy="1052" r="5"/><circle cx="1894" cy="1082" r="6"/><circle cx="1980" cy="1098" r="4"/><circle cx="2064" cy="1051" r="5"/><circle cx="2093" cy="1084" r="4"/><circle cx="2160" cy="1116" r="6"/><circle cx="2299" cy="1088" r="4"/><circle cx="2361" cy="1065" r="6"/><circle cx="2402" cy="1065" r="5"/><circle cx="2485" cy="1068" r="6"/><circle cx="41" cy="1126" r="5"/><circle cx="118" cy="1137" r="6"/><circle cx="221" cy="1172" r="4"/><circle cx="250" cy="1184" r="5"/><circle cx="349" cy="1162" r="4"/><circle cx="472" cy="1173" r="6"/><circle cx="495" cy="1174" r="6"/><circle cx="636" cy="1137" r="5"/><circle cx="657" cy="1134" r="5"/><circle cx="749" cy="1194" r="6"/><circle cx="854" cy="1122" r="6"/><circle cx="912" cy="1129" r="5"/><circle cx="970" cy="1158" r="6"/><circle cx="1064" cy="1163" r="5"/><circle cx="1192" cy="1197" r="6"/><circle cx="1226" cy="1167" r="6"/><circle cx="1288" cy="1183" r="5"/><circle cx="1387" cy="1163" r="4"/><circle cx="1470" cy="1127" r="4"/><circle cx="1595" cy="1168" r="5"/><circle cx="1671" cy="1178" r="5"/><circle cx="1693" cy="1138" r="4"/><circle cx="1811" cy="1151" r="5"/><circle cx="1860" cy="1162" r="5"/><circle cx="1957" cy="1179" r="5"/><circle cx="2012" cy="1195" r="5"/><circle cx="2113" cy="1120" r="5"/><circle cx="2201" cy="1186" r="4"/><circle cx="2278" cy="1170" r="4"/><circle cx="2348" cy="1129" r="4"/><circle cx="2410" cy="1148" r="6"/><circle cx="2500" cy="1123" r="6"/><circle cx="1" cy="1268" r="6"/><circle cx="2561" cy="1268" r="6"/><circle cx="153" cy="1211" r="5"/><circle cx="215" cy="1266" r="5"/><circle cx="268" cy="1236" r="5"/><circle cx="348" cy="1233" r="4"/><circle cx="442" cy="1245" r="5"/><circle cx="487" cy="1273" r="5"/><circle cx="562" cy="1264" r="4"/><circle cx="646" cy="1277" r="4"/><circle cx="747" cy="1273" r="4"/><circle cx="802" cy="1242" r="6"/><circle cx="948" cy="1222" r="4"/><circle cx="1001" cy="1230" r="4"/><circle cx="1106" cy="1205" r="4"/><circle cx="1176" cy="1267" r="5"/><circle cx="1206" cy="1217" r="6"/><circle cx="1353" cy="1241" r="5"/><circle cx="1378" cy="1246" r="4"/><circle cx="1482" cy="1276" r="5"/><circle cx="1599" cy="1216" r="5"/><circle cx="1641" cy="1262" r="5"/><circle cx="1731" cy="1207" r="5"/><circle cx="1771" cy="1205" r="4"/><circle cx="1908" cy="1205" r="5"/><circle cx="1926" cy="1268" r="6"/><circle cx="2021" cy="1225" r="4"/><circle cx="2129" cy="1267" r="5"/><circle cx="2195" cy="1225" r="5"/><circle cx="2297" cy="1264" r="4"/><circle cx="2360" cy="1208" r="5"/><circle cx="2437" cy="1251" r="6"/><circle cx="2545" cy="1267" r="4"/><circle cx="25" cy="1286" r="5"/><circle cx="141" cy="1326" r="5"/><circle cx="222" cy="1296" r="5"/><circle cx="252" cy="1308" r="5"/><circle cx="327" cy="1320" r="5"/><circle cx="461" cy="1321" r="5"/><circle cx="500" cy="1332" r="5"/><circle cx="584" cy="1281" r="4"/><circle cx="656" cy="1284" r="5"/><circle cx="734" cy="1287" r="5"/><circle cx="841" cy="1351" r="6"/><circle cx="933" cy="1359" r="6"/><circle cx="1003" cy="1337" r="5"/><circle cx="1089" cy="1330" r="5"/><circle cx="1159" cy="1314" r="5"/><circle cx="1226" cy="1328" r="5"/><circle cx="1305" cy="1324" r="4"/><circle cx="1430" cy="1353" r="6"/><circle cx="1452" cy="1315" r="5"/><circle cx="1539" cy="1333" r="4"/><circle cx="1654" cy="1285" r="5"/><circle cx="1735" cy="1339" r="4"/><circle cx="1791" cy="1305" r="4"/><circle cx="1862" cy="1326" r="4"/><circle cx="1947" cy="1330" r="5"/><circle cx="2065" cy="1358" r="5"/><circle cx="2126" cy="1321" r="5"/><circle cx="2238" cy="1345" r="4"/><circle cx="2319" cy="1343" r="6"/><circle cx="2364" cy="1330" r="5"/><circle cx="2440" cy="1329" r="5"/><circle cx="2482" cy="1291" r="5"/><circle cx="3" cy="1404" r="5"/><circle cx="2563" cy="1404" r="5"/><circle cx="98" cy="1419" r="5"/><circle cx="166" cy="1416" r="5"/><circle cx="302" cy="1391" r="5"/><circle cx="331" cy="1376" r="4"/><circle cx="479" cy="1405" r="5"/><circle cx="539" cy="1369" r="6"/><circle cx="635" cy="1428" r="5"/><circle cx="720" cy="1396" r="4"/><circle cx="798" cy="1385" r="6"/><circle cx="841" cy="1361" r="6"/><circle cx="912" cy="1418" r="5"/><circle cx="1030" cy="1433" r="5"/><circle cx="1079" cy="1424" r="4"/><circle cx="1185" cy="1400" r="6"/><circle cx="1230" cy="1416" r="5"/><circle cx="1297" cy="1378" r="5"/><circle cx="1385" cy="1406" r="5"/><circle cx="1512" cy="1372" r="4"/><circle cx="1554" cy="1386" r="5"/><circle cx="1637" cy="1362" r="4"/><circle cx="1701" cy="1376" r="6"/><circle cx="1833" cy="1426" r="5"/><circle cx="1909" cy="1410" r="5"/><circle cx="1967" cy="1363" r="6"/><circle cx="2032" cy="1362" r="4"/><circle cx="2099" cy="1385" r="5"/><circle cx="2228" cy="1396" r="5"/><circle cx="2274" cy="1408" r="5"/><circle cx="2341" cy="1429" r="6"/><circle cx="2467" cy="1435" r="4"/><circle cx="2551" cy="1365" r="5"/><path stroke="#fff" d="M72 41L156 69M72 41L167 46M72 41L-33 17M72 41L98 -21M2632 41L2527 17M72 1481L98 1419M156 69L167 46M156 69L191 147M156 69L98 -21M156 69L166 -24M156 1509L98 1419M156 1509L166 1416M167 46L166 -24M167 1486L166 1416M318 53L351 18M318 53L407 19M318 53L293 114M318 53L357 114M318 53L302 -49M318 1493L302 1391M351 18L407 19M351 18L357 114M351 18L302 -49M351 18L331 -64M351 1458L302 1391M351 1458L331 1376M407 19L446 127M407 19L479 -35M407 1459L479 1405M538 7L642 17M538 7L521 111M538 7L479 -35M538 7L539 -71M538 7L635 -12M538 1447L479 1405M538 1447L539 1369M538 1447L635 1428M636 24L642 17M636 24L630 123M636 24L635 -12M636 24L720 -44M636 1464L635 1428M636 1464L720 1396M642 17L630 123M642 17L635 -12M642 17L720 -44M642 1457L635 1428M642 1457L720 1396M795 10L852 48M795 10L886 4M795 10L767 86M795 10L813 94M795 10L798 -55M795 1450L798 1385M852 48L886 4M852 48L767 86M852 48L813 94M852 48L912 -22M852 1488L912 1418M886 4L933 -81M886 4L841 -79M886 4L912 -22M886 1444L933 1359M886 1444L841 1361M886 1444L912 1418M1009 45L933 110M1009 45L999 84M1009 45L1030 -7M1009 45L1079 -16M1009 1485L1030 1433M1009 1485L1079 1424M1108 44L1197 71M1108 44L1104 131M1108 44L1147 100M1108 44L1030 -7M1108 44L1079 -16M1108 1484L1030 1433M1108 1484L1079 1424M1197 71L1252 8M1197 71L1147 100M1197 71L1229 112M1197 71L1230 -24M1197 1511L1230 1416M1252 8L1303 75M1252 8L1185 -40M1252 8L1230 -24M1252 8L1297 -62M1252 1448L1185 1400M1252 1448L1230 1416M1252 1448L1297 1378M1303 75L1395 53M1303 75L1229 112M1303 75L1337 82M1303 75L1329 181M1395 53L1510 43M1395 53L1337 82M1395 53L1374 159M1395 53L1385 -34M1395 1493L1385 1406M1510 43L1572 68M1510 43L1469 141M1510 43L1554 -54M1510 1483L1554 1386M1572 68L1552 154M1572 68L1667 142M1572 68L1531 162M1572 68L1554 -54M1572 1508L1554 1386M1674 3L1637 -78M1674 3L1701 -64M1674 1443L1637 1362M1674 1443L1701 1376M1747 70L1791 30M1747 70L1844 51M1747 70L1667 142M1747 70L1749 156M1747 70L1772 80M1791 30L1844 51M1791 30L1772 80M1791 30L1833 -14M1791 1470L1833 1426M1844 51L1772 80M1844 51L1913 99M1844 51L1833 -14M1844 1491L1833 1426M1957 60L2015 0M1957 60L1913 99M1957 60L1937 151M1957 60L1909 -30M1957 1500L1909 1410M2015 0L2065 -82M2015 0L1967 -77M2015 0L2032 -78M2015 0L2099 -55M2015 1440L2065 1358M2015 1440L1967 1363M2015 1440L2032 1362M2015 1440L2099 1385M2116 46L2168 24M2116 46L2073 128M2116 46L2111 120M2116 46L2188 95M2116 46L2099 -55M2116 1486L2099 1385M2168 24L2258 17M2168 24L2188 95M2168 24L2228 -44M2168 1464L2228 1396M2258 17L2188 95M2258 17L2228 -44M2258 17L2274 -32M2258 17L2341 -11M2258 1457L2228 1396M2258 1457L2274 1408M2258 1457L2341 1429M2375 69L2476 22M2375 69L2283 131M2375 69L2380 127M2375 69L2452 104M2375 69L2341 -11M2375 1509L2341 1429M2476 22L2527 17M2476 22L2452 104M2476 22L2563 -36M2476 22L2467 -5M-84 22L3 -36M-84 1462L3 1404M2476 1462L2563 1404M2476 1462L2467 1435M2527 17L2563 -36M2527 17L2467 -5M2527 17L2551 -75M-33 17L3 -36M-33 1457L3 1404M2527 1457L2563 1404M2527 1457L2467 1435M2527 1457L2551 1365M78 153L82 152M78 153L-4 153M78 153L9 175M78 153L120 227M2638 153L2556 153M82 152L191 147M82 152L-4 153M82 152L9 175M82 152L120 227M2642 152L2556 153M191 147L293 114M191 147L203 195M191 147L284 179M293 114L357 114M293 114L203 195M293 114L284 179M357 114L446 127M357 114L284 179M446 127L521 111M446 127L467 210M446 127L520 212M521 111L467 210M521 111L520 212M630 123L693 132M630 123L610 190M630 123L656 193M693 132L767 86M693 132L656 193M693 132L742 230M767 86L813 94M933 110L999 84M933 110L933 188M999 84L1104 131M999 84L1030 -7M999 1524L1030 1433M1104 131L1147 100M1104 131L1113 189M1104 131L1154 162M1147 100L1229 112M1147 100L1154 162M1229 112L1337 82M1229 112L1154 162M1337 82L1374 159M1337 82L1329 181M1374 159L1329 181M1374 159L1407 180M1469 141L1552 154M1469 141L1407 180M1469 141L1531 162M1552 154L1514 231M1552 154L1531 162M1552 154L1601 212M1667 142L1749 156M1667 142L1601 212M1667 142L1758 200M1749 156L1772 80M1749 156L1758 200M1749 156L1780 204M1772 80L1833 -14M1772 1520L1833 1426M1913 99L1937 151M1913 99L1915 180M1937 151L1915 180M1937 151L1923 208M1937 151L2020 203M2073 128L2111 120M2073 128L2020 203M2111 120L2188 95M2111 120L2093 232M2111 120L2179 181M2188 95L2179 181M2283 131L2380 127M2283 131L2268 216M2380 127L2452 104M2380 127L2349 234M2380 127L2435 189M2452 104L2435 189M2452 104L2501 170M2556 153L2569 175M2556 153L2501 170M-4 153L9 175M9 175L-59 170M9 175L100 260M2569 175L2501 170M120 227L203 195M120 227L62 300M120 227L100 260M203 195L284 179M284 179L323 232M323 232L288 298M323 232L352 281M323 232L403 252M467 210L520 212M467 210L403 252M467 210L529 264M520 212L610 190M520 212L529 264M610 190L656 193M610 190L618 261M610 190L697 243M656 193L618 261M656 193L697 243M742 230L868 211M742 230L697 243M742 230L788 301M868 211L933 188M868 211L873 317M868 211L892 301M933 188L993 229M933 188L978 259M993 229L978 259M993 229L1055 258M993 229L1021 344M1113 189L1154 162M1113 189L1055 258M1113 189L1195 242M1154 162L1195 242M1232 216L1195 242M1232 216L1273 272M1232 216L1198 323M1329 181L1407 180M1329 181L1342 282M1514 231L1531 162M1514 231L1601 212M1514 231L1459 297M1514 231L1556 302M1531 162L1601 212M1601 212L1642 295M1758 200L1780 204M1758 200L1720 286M1758 200L1839 266M1780 204L1720 286M1780 204L1839 266M1915 180L1923 208M1915 180L1863 255M1923 208L2020 203M1923 208L1863 255M1923 208L1949 302M2020 203L2093 232M2020 203L2015 278M2093 232L2179 181M2093 232L2015 278M2093 232L2144 307M2179 181L2268 216M2268 216L2349 234M2349 234L2435 189M2349 234L2320 304M2349 234L2353 299M2435 189L2501 170M2435 189L2469 266M2501 170L2469 266M62 300L100 260M62 300L-25 319M62 300L37 373M62 300L122 361M2622 300L2535 319M100 260L160 305M160 305L122 361M160 305L195 355M288 298L352 281M288 298L301 334M288 298L345 341M352 281L403 252M352 281L301 334M352 281L345 341M403 252L529 264M529 264L618 261M529 264L486 364M618 261L697 243M618 261L650 342M697 243L650 342M788 301L873 317M788 301L794 390M788 301L858 345M873 317L892 301M873 317L858 345M892 301L978 259M892 301L858 345M892 301L950 374M978 259L1055 258M978 259L1021 344M1055 258L1021 344M1195 242L1273 272M1195 242L1198 323M1273 272L1342 282M1273 272L1198 323M1342 282L1427 298M1342 282L1329 363M1342 282L1415 328M1427 298L1459 297M1427 298L1415 328M1427 298L1469 321M1427 298L1405 402M1459 297L1556 302M1459 297L1415 328M1459 297L1469 321M1556 302L1642 295M1556 302L1469 321M1556 302L1543 351M1642 295L1720 286M1642 295L1608 398M1642 295L1750 339M1720 286L1750 339M1839 266L1863 255M1839 266L1841 342M1863 255L1949 302M1863 255L1841 342M1949 302L2015 278M1949 302L1979 384M1949 302L2003 353M2015 278L1979 384M2015 278L2003 353M2144 307L2203 308M2144 307L2108 356M2144 307L2085 409M2203 308L2108 356M2203 308L2238 379M2203 308L2253 379M2320 304L2353 299M2320 304L2253 379M2353 299L2377 390M2353 299L2402 405M2469 266L2535 319M2469 266L2476 365M2469 266L2522 323M2535 319L2597 373M2535 319L2476 365M2535 319L2522 323M-25 319L37 373M37 373L122 361M37 373L-38 323M37 373L49 459M2597 373L2522 323M122 361L195 355M122 361L159 452M195 355L301 334M195 355L159 452M195 355L229 414M301 334L345 341M301 334L316 403M345 341L316 403M345 341L363 426M469 399L486 364M469 399L411 456M469 399L491 415M486 364L589 393M486 364L491 415M589 393L650 342M589 393L580 461M589 393L663 438M650 342L663 438M794 390L858 345M794 390L773 410M794 390L851 421M858 345L851 421M950 374L1021 344M950 374L917 452M1021 344L1109 399M1109 399L1198 323M1109 399L1038 462M1109 399L1093 473M1109 399L1140 478M1198 323L1265 397M1265 397L1329 363M1265 397L1268 430M1265 397L1316 437M1329 363L1316 437M1329 363L1405 402M1415 328L1469 321M1415 328L1405 402M1469 321L1543 351M1543 351L1608 398M1543 351L1520 460M1543 351L1574 406M1608 398L1520 460M1608 398L1574 406M1608 398L1661 443M1750 339L1825 383M1750 339L1841 342M1750 339L1731 447M1825 383L1841 342M1825 383L1814 444M1825 383L1846 460M1979 384L2003 353M1979 384L1933 444M1979 384L2041 436M2003 353L2108 356M2003 353L2041 436M2108 356L2041 436M2108 356L2085 409M2238 379L2253 379M2238 379L2281 412M2253 379L2281 412M2253 379L2249 485M2377 390L2281 412M2377 390L2386 437M2377 390L2402 405M2476 365L2522 323M2476 365L2402 405M2476 365L2484 454M49 459L10 551M49 459L135 516M159 452L229 414M159 452L135 516M159 452L162 550M229 414L316 403M316 403L363 426M363 426L411 456M363 426L432 488M411 456L491 415M411 456L358 526M411 456L432 488M491 415L580 461M491 415L432 488M580 461L663 438M580 461L509 517M580 461L588 546M663 438L773 410M663 438L689 523M773 410L851 421M773 410L791 515M851 421L917 452M851 421L874 499M917 452L874 499M917 452L954 519M917 452L995 519M1038 462L1093 473M1038 462L954 519M1038 462L995 519M1038 462L1091 531M1093 473L1140 478M1093 473L1091 531M1140 478L1091 531M1140 478L1199 527M1140 478L1116 578M1268 430L1316 437M1316 437L1405 402M1316 437L1349 538M1520 460L1574 406M1520 460L1488 524M1520 460L1538 489M1574 406L1661 443M1574 406L1538 489M1661 443L1731 447M1661 443L1675 518M1731 447L1814 444M1731 447L1675 518M1731 447L1752 534M1814 444L1846 460M1814 444L1788 541M1846 460L1933 444M1846 460L1788 541M1846 460L1905 495M1933 444L1905 495M1933 444L1984 528M2041 436L2085 409M2041 436L2009 523M2085 409L2161 470M2161 470L2145 506M2161 470L2173 552M2161 470L2249 485M2281 412L2386 437M2281 412L2249 485M2386 437L2402 405M2386 437L2484 454M2386 437L2448 497M2402 405L2484 454M2484 454L2448 497M10 551L-2 550M10 551L6 624M10 551L-63 598M10 551L6 658M2570 551L2558 550M2570 551L2497 598M135 516L162 550M162 550L127 617M162 550L190 584M162 550L262 579M272 544L358 526M272 544L190 584M272 544L262 579M272 544L253 657M358 526L432 488M358 526L262 579M358 526L387 587M432 488L509 517M509 517L588 546M509 517L448 597M509 517L546 614M588 546L546 614M588 546L604 603M588 546L678 599M689 523L791 515M689 523L678 599M689 523L737 588M791 515L874 499M791 515L737 588M874 499L954 519M954 519L995 519M954 519L961 572M995 519L961 572M1091 531L1116 578M1091 531L1140 597M1199 527L1280 547M1199 527L1116 578M1199 527L1140 597M1199 527L1207 640M1280 547L1349 538M1280 547L1366 558M1280 547L1328 570M1349 538L1366 558M1349 538L1328 570M1349 538L1400 616M1366 558L1328 570M1366 558L1400 616M1366 558L1389 663M1488 524L1538 489M1488 524L1492 614M1538 489L1594 578M1675 518L1752 534M1675 518L1594 578M1675 518L1627 577M1752 534L1788 541M1752 534L1754 573M1788 541L1754 573M1788 541L1784 636M1905 495L1984 528M1905 495L2009 523M1984 528L2009 523M1984 528L1932 619M1984 528L2080 563M2009 523L2080 563M2009 523L2096 567M2145 506L2173 552M2145 506L2080 563M2145 506L2096 567M2145 506L2179 579M2173 552L2249 485M2173 552L2096 567M2173 552L2179 579M2346 558L2318 562M2346 558L2344 575M2346 558L2319 649M2448 497L2473 567M2558 550L2566 624M2558 550L2473 567M2558 550L2497 598M2558 550L2566 658M-2 550L6 624M-2 550L6 658M6 624L-63 598M6 624L6 658M6 624L-63 668M2566 624L2497 598M2566 624L2497 668M127 617L190 584M127 617L107 640M127 617L162 680M190 584L262 579M190 584L162 680M262 579L253 657M387 587L448 597M387 587L378 667M448 597L546 614M448 597L378 667M448 597L440 700M546 614L604 603M546 614L531 696M604 603L678 599M604 603L605 706M604 603L680 673M678 599L737 588M678 599L680 673M737 588L819 629M819 629L883 609M819 629L822 677M883 609L961 572M883 609L822 677M883 609L914 716M883 609L969 656M961 572L969 656M1116 578L1140 597M1116 578L1207 640M1140 597L1207 640M1140 597L1192 679M1207 640L1192 679M1207 640L1244 680M1328 570L1400 616M1400 616L1389 663M1400 616L1446 647M1492 614L1594 578M1492 614L1446 647M1594 578L1627 577M1594 578L1642 663M1627 577L1591 702M1627 577L1642 663M1754 573L1784 636M1784 636L1844 638M1784 636L1727 677M1784 636L1762 672M1844 638L1932 619M1844 638L1762 672M1844 638L1872 681M1932 619L1872 681M1932 619L1953 699M2080 563L2096 567M2080 563L2179 579M2096 567L2179 579M2318 562L2344 575M2318 562L2319 649M2344 575L2319 649M2473 567L2497 598M2497 598L2497 668M6 658L107 640M6 658L-63 668M2566 658L2497 668M107 640L162 680M107 640L140 728M162 680L253 657M162 680L140 728M253 657L284 767M378 667L440 700M378 667L384 749M378 667L462 721M440 700L531 696M440 700L384 749M440 700L462 721M531 696L605 706M531 696L462 721M531 696L553 723M605 706L680 673M605 706L553 723M605 706L637 798M680 673L729 701M729 701L822 677M729 701L717 768M729 701L768 773M822 677L914 716M914 716L969 656M914 716L844 796M914 716L925 759M969 656L1051 697M1051 697L1022 774M1051 697L1092 730M1192 679L1244 680M1192 679L1092 730M1192 679L1179 759M1244 680L1323 665M1244 680L1179 759M1244 680L1241 777M1323 665L1389 663M1323 665L1446 647M1389 663L1446 647M1389 663L1365 772M1591 702L1642 663M1591 702L1588 746M1591 702L1652 733M1591 702L1622 805M1642 663L1727 677M1642 663L1652 733M1727 677L1762 672M1727 677L1652 733M1727 677L1798 736M1762 672L1742 770M1762 672L1798 736M1872 681L1953 699M1872 681L1886 728M1953 699L1886 728M1953 699L1940 772M1953 699L2004 725M2076 710L2139 692M2076 710L2004 725M2076 710L2104 770M2139 692L2231 674M2139 692L2104 770M2139 692L2230 771M2231 674L2319 649M2231 674L2327 703M2231 674L2230 771M2231 674L2249 750M2319 649L2327 703M2327 703L2249 750M2327 703L2384 734M2444 683L2497 668M2444 683L2384 734M2444 683L2473 757M2444 683L2506 751M2497 668L2506 751M49 793L140 728M49 793L27 830M49 793L157 833M49 793L24 894M140 728L221 779M140 728L157 833M221 779L284 767M221 779L157 833M221 779L162 855M284 767L384 749M284 767L268 866M384 749L462 721M384 749L378 856M462 721L553 723M553 723L637 798M553 723L567 828M637 798L717 768M637 798L567 828M717 768L768 773M717 768L716 871M717 768L764 811M768 773L844 796M768 773L764 811M844 796L925 759M844 796L764 811M844 796L875 846M925 759L1022 774M925 759L957 845M925 759L974 843M1022 774L1092 730M1022 774L974 843M1022 774L1059 825M1092 730L1179 759M1092 730L1059 825M1179 759L1241 777M1179 759L1198 848M1241 777L1311 781M1241 777L1198 848M1311 781L1365 772M1311 781L1305 859M1311 781L1406 817M1365 772L1451 800M1365 772L1305 859M1365 772L1406 817M1451 800L1406 817M1451 800L1474 808M1588 746L1652 733M1588 746L1474 808M1588 746L1622 805M1652 733L1622 805M1742 770L1798 736M1742 770L1743 847M1742 770L1801 813M1798 736L1886 728M1798 736L1801 813M1886 728L1940 772M1886 728L1892 808M1940 772L2004 725M1940 772L1892 808M1940 772L1999 831M2004 725L2104 770M2004 725L1999 831M2104 770L2139 872M2104 770L2171 831M2230 771L2249 750M2230 771L2171 831M2230 771L2287 837M2249 750L2287 837M2384 734L2473 757M2473 757L2506 751M2473 757L2479 827M2473 757L2488 853M2506 751L2479 827M27 830L24 894M157 833L162 855M157 833L197 881M162 855L197 881M268 866L378 856M268 866L197 881M268 866L242 960M268 866L355 915M378 856L416 861M378 856L355 915M416 861L502 874M416 861L355 915M502 874L567 828M502 874L470 955M502 874L546 887M502 874L540 978M567 828L546 887M567 828L610 923M716 871L764 811M716 871L683 911M716 871L728 904M716 871L754 960M764 811L728 904M875 846L957 845M875 846L899 942M957 845L974 843M957 845L995 902M974 843L1059 825M974 843L995 902M1059 825L995 902M1059 825L1107 903M1198 848L1275 874M1198 848L1107 903M1198 848L1190 919M1275 874L1305 859M1275 874L1190 919M1275 874L1273 958M1305 859L1353 935M1406 817L1474 808M1406 817L1393 916M1593 864L1622 805M1593 864L1505 936M1593 864L1531 913M1593 864L1604 893M1622 805L1604 893M1743 847L1801 813M1743 847L1714 897M1743 847L1690 979M1801 813L1892 808M1892 808L1999 831M1892 808L1896 904M1999 831L2016 838M2016 838L2041 943M2139 872L2171 831M2139 872L2105 934M2139 872L2161 925M2139 872L2149 972M2171 831L2287 837M2171 831L2161 925M2287 837L2367 843M2287 837L2321 893M2367 843L2321 893M2479 827L2488 853M2479 827L2483 881M2488 853L2584 894M2488 853L2457 931M2488 853L2483 881M-72 853L24 894M24 894L85 950M24 894L-77 881M2584 894L2483 881M85 950L6 1003M85 950L132 987M85 950L185 990M197 881L242 960M242 960L185 990M242 960L285 970M242 960L270 1065M355 915L285 970M355 915L403 980M470 955L546 887M470 955L399 1038M470 955L403 980M470 955L540 978M546 887L610 923M546 887L540 978M610 923L683 911M610 923L540 978M610 923L596 1008M683 911L728 904M683 911L708 976M683 911L754 960M728 904L708 976M728 904L754 960M813 948L899 942M813 948L754 960M813 948L876 996M899 942L995 902M899 942L876 996M899 942L887 1028M995 902L1041 962M1107 903L1190 919M1107 903L1041 962M1107 903L1202 972M1190 919L1273 958M1190 919L1202 972M1273 958L1353 935M1273 958L1202 972M1273 958L1309 1029M1353 935L1393 916M1353 935L1309 1029M1353 935L1396 1016M1505 936L1531 913M1505 936L1604 893M1505 936L1500 1013M1505 936L1541 961M1531 913L1604 893M1531 913L1541 961M1604 893L1541 961M1714 897L1690 979M1823 950L1896 904M1823 950L1763 1029M1823 950L1904 995M1823 950L1926 1003M1823 950L1809 1052M1896 904L1957 926M1957 926L2041 943M1957 926L1904 995M1957 926L1926 1003M1957 926L2004 990M2041 943L2105 934M2041 943L2004 990M2041 943L2064 1051M2105 934L2161 925M2105 934L2149 972M2161 925L2149 972M2161 925L2195 983M2260 937L2321 893M2260 937L2195 983M2260 937L2275 1023M2457 931L2483 881M2457 931L2390 995M2457 931L2438 964M2457 931L2482 1017M2483 881L2438 964M6 1003L-78 1017M6 1003L74 1090M6 1003L94 1058M6 1003L-75 1068M2566 1003L2482 1017M2566 1003L2485 1068M132 987L185 990M132 987L94 1058M185 990L285 970M185 990L237 1087M285 970L270 1065M399 1038L403 980M399 1038L379 1106M399 1038L405 1063M403 980L405 1063M540 978L596 1008M596 1008L708 976M596 1008L595 1067M596 1008L658 1086M708 976L754 960M708 976L727 1069M876 996L887 1028M876 996L853 1106M876 996L890 1065M887 1028L853 1106M887 1028L890 1065M887 1028L854 1122M1033 1031L1041 962M1033 1031L1135 1035M1033 1031L1005 1054M1033 1031L1113 1055M1041 962L1005 1054M1135 1035L1202 972M1135 1035L1113 1055M1135 1035L1137 1084M1309 1029L1396 1016M1309 1029L1268 1088M1309 1029L1342 1079M1396 1016L1342 1079M1396 1016L1417 1067M1396 1016L1457 1046M1500 1013L1541 961M1500 1013L1417 1067M1500 1013L1457 1046M1500 1013L1531 1072M1541 961L1612 1007M1612 1007L1690 979M1612 1007L1531 1072M1690 979L1763 1029M1690 979L1706 1070M1763 1029L1706 1070M1763 1029L1809 1052M1904 995L1926 1003M1904 995L2004 990M1904 995L1894 1082M1926 1003L2004 990M1926 1003L1894 1082M2004 990L2064 1051M2149 972L2195 983M2195 983L2275 1023M2275 1023L2299 1088M2390 995L2438 964M2390 995L2361 1065M2390 995L2402 1065M2438 964L2482 1017M2482 1017L2402 1065M2482 1017L2485 1068M74 1090L94 1058M74 1090L41 1126M74 1090L118 1137M74 1090L-60 1123M2634 1090L2500 1123M94 1058L41 1126M94 1058L118 1137M237 1087L270 1065M237 1087L221 1172M237 1087L250 1184M270 1065L379 1106M379 1106L405 1063M379 1106L349 1162M379 1106L472 1173M405 1063L488 1115M488 1115L472 1173M488 1115L495 1174M595 1067L658 1086M595 1067L636 1137M595 1067L657 1134M658 1086L727 1069M658 1086L636 1137M658 1086L657 1134M727 1069L636 1137M727 1069L657 1134M853 1106L890 1065M853 1106L854 1122M853 1106L912 1129M890 1065L854 1122M890 1065L912 1129M1005 1054L1113 1055M1113 1055L1137 1084M1113 1055L1064 1163M1137 1084L1064 1163M1268 1088L1342 1079M1268 1088L1226 1167M1268 1088L1288 1183M1342 1079L1417 1067M1342 1079L1387 1163M1417 1067L1457 1046M1417 1067L1470 1127M1457 1046L1531 1072M1457 1046L1470 1127M1531 1072L1470 1127M1672 1115L1706 1070M1672 1115L1595 1168M1672 1115L1671 1178M1672 1115L1693 1138M1706 1070L1809 1052M1706 1070L1693 1138M1809 1052L1894 1082M1809 1052L1811 1151M1894 1082L1980 1098M1894 1082L1860 1162M1980 1098L2064 1051M1980 1098L2093 1084M1980 1098L1957 1179M1980 1098L2012 1195M2064 1051L2093 1084M2064 1051L2113 1120M2093 1084L2160 1116M2093 1084L2113 1120M2160 1116L2113 1120M2160 1116L2201 1186M2160 1116L2195 1225M2299 1088L2361 1065M2299 1088L2278 1170M2299 1088L2348 1129M2361 1065L2402 1065M2361 1065L2348 1129M2361 1065L2410 1148M2402 1065L2485 1068M2402 1065L2410 1148M2485 1068L2500 1123M41 1126L118 1137M41 1126L-60 1123M2601 1126L2500 1123M118 1137L153 1211M221 1172L250 1184M221 1172L153 1211M221 1172L268 1236M250 1184L153 1211M250 1184L215 1266M250 1184L268 1236M349 1162L348 1233M472 1173L495 1174M472 1173L442 1245M495 1174L442 1245M495 1174L487 1273M636 1137L657 1134M657 1134L749 1194M749 1194L747 1273M749 1194L802 1242M749 1194L734 1287M854 1122L912 1129M854 1122L970 1158M912 1129L970 1158M912 1129L948 1222M970 1158L1064 1163M970 1158L948 1222M970 1158L1001 1230M1064 1163L1001 1230M1064 1163L1106 1205M1192 1197L1226 1167M1192 1197L1288 1183M1192 1197L1106 1205M1192 1197L1176 1267M1192 1197L1206 1217M1226 1167L1288 1183M1226 1167L1206 1217M1288 1183L1206 1217M1288 1183L1353 1241M1387 1163L1470 1127M1387 1163L1353 1241M1387 1163L1378 1246M1595 1168L1671 1178M1595 1168L1693 1138M1595 1168L1599 1216M1595 1168L1641 1262M1671 1178L1693 1138M1671 1178L1599 1216M1671 1178L1731 1207M1693 1138L1731 1207M1811 1151L1860 1162M1811 1151L1731 1207M1811 1151L1771 1205M1811 1151L1908 1205M1860 1162L1771 1205M1860 1162L1908 1205M1957 1179L2012 1195M1957 1179L1908 1205M1957 1179L1926 1268M1957 1179L2021 1225M2012 1195L1908 1205M2012 1195L2021 1225M2113 1120L2201 1186M2201 1186L2278 1170M2201 1186L2129 1267M2201 1186L2195 1225M2278 1170L2348 1129M2278 1170L2297 1264M2278 1170L2360 1208M2348 1129L2410 1148M2348 1129L2360 1208M2410 1148L2500 1123M2410 1148L2360 1208M1 1268L-123 1251M1 1268L-15 1267M1 1268L25 1286M1 1268L-78 1291M1 1268L-9 1365M2561 1268L2437 1251M2561 1268L2545 1267M2561 1268L2482 1291M2561 1268L2551 1365M153 1211L215 1266M153 1211L222 1296M215 1266L268 1236M215 1266L222 1296M215 1266L252 1308M268 1236L222 1296M268 1236L252 1308M348 1233L442 1245M348 1233L327 1320M442 1245L487 1273M442 1245L461 1321M487 1273L562 1264M487 1273L461 1321M487 1273L500 1332M562 1264L646 1277M562 1264L500 1332M562 1264L584 1281M562 1264L656 1284M646 1277L747 1273M646 1277L584 1281M646 1277L656 1284M646 1277L734 1287M747 1273L802 1242M747 1273L656 1284M747 1273L734 1287M802 1242L734 1287M802 1242L841 1351M948 1222L1001 1230M1001 1230L1106 1205M1001 1230L1003 1337M1106 1205L1176 1267M1176 1267L1206 1217M1176 1267L1159 1314M1176 1267L1226 1328M1206 1217L1159 1314M1353 1241L1378 1246M1353 1241L1305 1324M1378 1246L1482 1276M1378 1246L1452 1315M1482 1276L1430 1353M1482 1276L1452 1315M1482 1276L1539 1333M1482 1276L1512 1372M1599 1216L1641 1262M1599 1216L1654 1285M1641 1262L1654 1285M1641 1262L1637 1362M1731 1207L1771 1205M1771 1205L1791 1305M1908 1205L1926 1268M1926 1268L1862 1326M1926 1268L1947 1330M2021 1225L2129 1267M2129 1267L2195 1225M2129 1267L2126 1321M2195 1225L2126 1321M2297 1264L2360 1208M2297 1264L2238 1345M2297 1264L2319 1343M2297 1264L2364 1330M2360 1208L2437 1251M2437 1251L2364 1330M2437 1251L2440 1329M2437 1251L2482 1291M2545 1267L2585 1286M2545 1267L2482 1291M-15 1267L25 1286M25 1286L-9 1365M2585 1286L2551 1365M141 1326L222 1296M141 1326L98 1419M141 1326L166 1416M222 1296L252 1308M252 1308L327 1320M252 1308L302 1391M327 1320L302 1391M327 1320L331 1376M461 1321L500 1332M461 1321L479 1405M461 1321L539 1369M500 1332L479 1405M500 1332L539 1369M584 1281L656 1284M584 1281L539 1369M656 1284L734 1287M841 1351L933 1359M841 1351L798 1385M841 1351L841 1361M841 1351L912 1418M933 1359L1003 1337M933 1359L841 1361M933 1359L912 1418M1003 1337L1089 1330M1003 1337L1030 1433M1089 1330L1159 1314M1089 1330L1079 1424M1089 1330L1185 1400M1159 1314L1226 1328M1159 1314L1185 1400M1226 1328L1305 1324M1226 1328L1185 1400M1226 1328L1230 1416M1305 1324L1297 1378M1305 1324L1385 1406M1430 1353L1452 1315M1430 1353L1539 1333M1430 1353L1385 1406M1430 1353L1512 1372M1452 1315L1539 1333M1452 1315L1512 1372M1539 1333L1512 1372M1539 1333L1554 1386M1654 1285L1735 1339M1654 1285L1637 1362M1654 1285L1701 1376M1735 1339L1791 1305M1735 1339L1701 1376M1791 1305L1862 1326M1791 1305L1701 1376M1862 1326L1947 1330M1862 1326L1909 1410M1947 1330L1909 1410M1947 1330L1967 1363M1947 1330L2032 1362M2065 1358L2126 1321M2065 1358L1967 1363M2065 1358L2032 1362M2065 1358L2099 1385M2126 1321L2099 1385M2238 1345L2319 1343M2238 1345L2228 1396M2238 1345L2274 1408M2319 1343L2364 1330M2319 1343L2274 1408M2319 1343L2341 1429M2364 1330L2440 1329M2364 1330L2341 1429M2440 1329L2482 1291M2440 1329L2467 1435M2482 1291L2551 1365M3 1404L98 1419M3 1404L-93 1435M3 1404L-9 1365M2563 1404L2467 1435M2563 1404L2551 1365M98 1419L166 1416M302 1391L331 1376M479 1405L539 1369M635 1428L720 1396M720 1396L798 1385M798 1385L841 1361M841 1361L912 1418M1030 1433L1079 1424M1185 1400L1230 1416M1230 1416L1297 1378M1297 1378L1385 1406M1512 1372L1554 1386M1554 1386L1637 1362M1637 1362L1701 1376M1833 1426L1909 1410M1909 1410L1967 1363M1967 1363L2032 1362M2032 1362L2099 1385M2228 1396L2274 1408M2274 1408L2341 1429"/></svg>