<svg xmlns="http://www.w3.org/2000/svg" width="2560" height="1440" fill="#fff"><circle cx="58" cy="42" r="5"/><circle cx="95" cy="29" r="5"/><circle cx="206" cy="72" r="6"/><circle cx="286" cy="37" r="6"/><circle cx="340" cy="19" r="4"/><circle cx="446" cy="68" r="5"/><circle cx="496" cy="4" r="5"/><circle cx="496" cy="1444" r="5"/><circle cx="619" cy="24" r="6"/><circle cx="669" cy="54" r="5"/><circle cx="735" cy="43" r="5"/><circle cx="873" cy="27" r="4"/><circle cx="886" cy="68" r="5"/><circle cx="980" cy="4" r="4"/><circle cx="980" cy="1444" r="4"/><circle cx="1060" cy="54" r="6"/><circle cx="1154" cy="61" r="5"/><circle cx="1269" cy="32" r="4"/><circle cx="1328" cy="44" r="6"/><circle cx="1409" cy="43" r="5"/><circle cx="1465" cy="2" r="5"/><circle cx="1465" cy="1442" r="5"/><circle cx="1585" cy="22" r="5"/><circle cx="1645" cy="79" r="4"/><circle cx="1706" cy="69" r="5"/><circle cx="1808" cy="49" r="4"/><circle cx="1901" cy="31" r="5"/><circle cx="1953" cy="57" r="5"/><circle cx="2056" cy="3" r="5"/><circle cx="2056" cy="1443" r="5"/><circle cx="2118" cy="67" r="5"/><circle cx="2224" cy="32" r="6"/><circle cx="2286" cy="18" r="5"/><circle cx="2339" cy="65" r="5"/><circle cx="2450" cy="14" r="5"/><circle cx="2482" cy="18" r="6"/><circle cx="58" cy="147" r="6"/><circle cx="114" cy="85" r="4"/><circle cx="237" cy="89" r="5"/><circle cx="274" cy="128" r="5"/><circle cx="334" cy="115" r="5"/><circle cx="400" cy="115" r="6"/><circle cx="502" cy="150" r="6"/><circle cx="589" cy="100" r="5"/><circle cx="645" cy="113" r="5"/><circle cx="773" cy="122" r="5"/><circle cx="839" cy="106" r="4"/><circle cx="960" cy="119" r="6"/><circle cx="1028" cy="84" r="5"/><circle cx="1120" cy="97" r="4"/><circle cx="1137" cy="90" r="4"/><circle cx="1237" cy="94" r="4"/><circle cx="1327" cy="129" r="6"/><circle cx="1429" cy="104" r="5"/><circle cx="1442" cy="87" r="6"/><circle cx="1567" cy="103" r="5"/><circle cx="1628" cy="107" r="5"/><circle cx="1694" cy="103" r="6"/><circle cx="1819" cy="100" r="6"/><circle cx="1915" cy="139" r="4"/><circle cx="1936" cy="107" r="5"/><circle cx="2037" cy="145" r="5"/><circle cx="2115" cy="81" r="6"/><circle cx="2184" cy="139" r="6"/><circle cx="2300" cy="83" r="5"/><circle cx="2367" cy="114" r="4"/><circle cx="2418" cy="87" r="5"/><circle cx="2503" cy="101" r="6"/><circle cx="55" cy="191" r="5"/><circle cx="155" cy="179" r="4"/><circle cx="229" cy="200" r="6"/><circle cx="314" cy="217" r="4"/><circle cx="356" cy="190" r="6"/><circle cx="404" cy="205" r="4"/><circle cx="496" cy="231" r="5"/><circle cx="577" cy="182" r="6"/><circle cx="675" cy="203" r="5"/><circle cx="798" cy="162" r="4"/><circle cx="877" cy="230" r="5"/><circle cx="908" cy="203" r="6"/><circle cx="976" cy="200" r="4"/><circle cx="1052" cy="175" r="4"/><circle cx="1196" cy="196" r="5"/><circle cx="1202" cy="215" r="6"/><circle cx="1294" cy="186" r="5"/><circle cx="1406" cy="227" r="5"/><circle cx="1508" cy="201" r="5"/><circle cx="1592" cy="212" r="5"/><circle cx="1641" cy="164" r="5"/><circle cx="1707" cy="189" r="5"/><circle cx="1803" cy="190" r="4"/><circle cx="1908" cy="196" r="4"/><circle cx="1924" cy="192" r="4"/><circle cx="2007" cy="233" r="6"/><circle cx="2103" cy="204" r="6"/><circle cx="2173" cy="172" r="4"/><circle cx="2242" cy="175" r="5"/><circle cx="2359" cy="162" r="5"/><circle cx="2400" cy="209" r="5"/><circle cx="2514" cy="216" r="5"/><circle cx="32" cy="263" r="4"/><circle cx="150" cy="299" r="5"/><circle cx="229" cy="304" r="6"/><circle cx="286" cy="252" r="5"/><circle cx="361" cy="273" r="5"/><circle cx="472" cy="304" r="5"/><circle cx="539" cy="255" r="4"/><circle cx="561" cy="302" r="5"/><circle cx="697" cy="283" r="6"/><circle cx="764" cy="275" r="5"/><circle cx="813" cy="273" r="5"/><circle cx="926" cy="278" r="5"/><circle cx="1027" cy="296" r="5"/><circle cx="1088" cy="284" r="4"/><circle cx="1187" cy="277" r="5"/><circle cx="1216" cy="251" r="6"/><circle cx="1320" cy="291" r="6"/><circle cx="1379" cy="291" r="5"/><circle cx="1498" cy="242" r="4"/><circle cx="1541" cy="314" r="5"/><circle cx="1659" cy="254" r="6"/><circle cx="1757" cy="308" r="5"/><circle cx="1821" cy="313" r="5"/><circle cx="1893" cy="269" r="4"/><circle cx="1970" cy="241" r="4"/><circle cx="2059" cy="253" r="6"/><circle cx="2151" cy="245" r="5"/><circle cx="2220" cy="304" r="4"/><circle cx="2287" cy="318" r="6"/><circle cx="2367" cy="277" r="4"/><circle cx="2469" cy="255" r="4"/><circle cx="2514" cy="306" r="5"/><circle cx="59" cy="360" r="5"/><circle cx="96" cy="342" r="5"/><circle cx="168" cy="373" r="5"/><circle cx="252" cy="361" r="5"/><circle cx="364" cy="376" r="4"/><circle cx="417" cy="339" r="4"/><circle cx="557" cy="373" r="5"/><circle cx="617" cy="382" r="4"/><circle cx="695" cy="326" r="5"/><circle cx="745" cy="388" r="5"/><circle cx="822" cy="372" r="6"/><circle cx="903" cy="323" r="5"/><circle cx="1015" cy="359" r="5"/><circle cx="1045" cy="367" r="6"/><circle cx="1155" cy="362" r="5"/><circle cx="1213" cy="376" r="5"/><circle cx="1297" cy="398" r="4"/><circle cx="1379" cy="393" r="6"/><circle cx="1444" cy="357" r="6"/><circle cx="1578" cy="350" r="5"/><circle cx="1677" cy="391" r="4"/><circle cx="1745" cy="372" r="4"/><circle cx="1784" cy="385" r="5"/><circle cx="1891" cy="320" r="6"/><circle cx="1954" cy="328" r="5"/><circle cx="2054" cy="385" r="5"/><circle cx="2095" cy="367" r="5"/><circle cx="2199" cy="374" r="5"/><circle cx="2315" cy="362" r="5"/><circle cx="2333" cy="342" r="6"/><circle cx="2468" cy="339" r="5"/><circle cx="2499" cy="361" r="4"/><circle cx="13" cy="423" r="5"/><circle cx="99" cy="411" r="6"/><circle cx="172" cy="471" r="6"/><circle cx="247" cy="447" r="5"/><circle cx="383" cy="421" r="5"/><circle cx="442" cy="435" r="5"/><circle cx="489" cy="424" r="4"/><circle cx="624" cy="477" r="6"/><circle cx="676" cy="452" r="5"/><circle cx="750" cy="465" r="4"/><circle cx="828" cy="465" r="5"/><circle cx="913" cy="478" r="4"/><circle cx="1033" cy="430" r="5"/><circle cx="1042" cy="420" r="6"/><circle cx="1138" cy="454" r="5"/><circle cx="1228" cy="434" r="5"/><circle cx="1344" cy="401" r="6"/><circle cx="1376" cy="422" r="4"/><circle cx="1445" cy="426" r="5"/><circle cx="1563" cy="429" r="5"/><circle cx="1622" cy="468" r="6"/><circle cx="1715" cy="411" r="5"/><circle cx="1833" cy="411" r="5"/><circle cx="1879" cy="468" r="4"/><circle cx="1985" cy="428" r="4"/><circle cx="2075" cy="477" r="4"/><circle cx="2155" cy="464" r="6"/><circle cx="2176" cy="472" r="5"/><circle cx="2317" cy="407" r="5"/><circle cx="2399" cy="411" r="5"/><circle cx="2433" cy="455" r="5"/><circle cx="2557" cy="454" r="5"/><circle cx="-3" cy="454" r="5"/><circle cx="56" cy="523" r="4"/><circle cx="104" cy="487" r="6"/><circle cx="218" cy="494" r="5"/><circle cx="274" cy="520" r="5"/><circle cx="390" cy="498" r="5"/><circle cx="460" cy="541" r="5"/><circle cx="487" cy="522" r="6"/><circle cx="594" cy="489" r="6"/><circle cx="716" cy="526" r="5"/><circle cx="735" cy="521" r="6"/><circle cx="820" cy="500" r="5"/><circle cx="956" cy="495" r="5"/><circle cx="990" cy="520" r="5"/><circle cx="1068" cy="547" r="6"/><circle cx="1175" cy="503" r="5"/><circle cx="1257" cy="531" r="6"/><circle cx="1297" cy="502" r="5"/><circle cx="1376" cy="491" r="5"/><circle cx="1487" cy="500" r="5"/><circle cx="1578" cy="558" r="4"/><circle cx="1669" cy="534" r="5"/><circle cx="1715" cy="518" r="5"/><circle cx="1840" cy="499" r="5"/><circle cx="1913" cy="506" r="6"/><circle cx="1924" cy="515" r="5"/><circle cx="2070" cy="490" r="5"/><circle cx="2120" cy="539" r="6"/><circle cx="2198" cy="526" r="4"/><circle cx="2288" cy="491" r="4"/><circle cx="2358" cy="520" r="5"/><circle cx="2437" cy="513" r="6"/><circle cx="2541" cy="512" r="6"/><circle cx="33" cy="594" r="5"/><circle cx="92" cy="634" r="6"/><circle cx="222" cy="590" r="5"/><circle cx="247" cy="610" r="6"/><circle cx="394" cy="614" r="5"/><circle cx="453" cy="618" r="4"/><circle cx="542" cy="616" r="6"/><circle cx="592" cy="574" r="5"/><circle cx="712" cy="587" r="5"/><circle cx="767" cy="627" r="4"/><circle cx="815" cy="584" r="5"/><circle cx="926" cy="591" r="5"/><circle cx="995" cy="635" r="6"/><circle cx="1064" cy="617" r="4"/><circle cx="1190" cy="587" r="4"/><circle cx="1219" cy="592" r="5"/><circle cx="1319" cy="587" r="4"/><circle cx="1428" cy="623" r="6"/><circle cx="1513" cy="629" r="4"/><circle cx="1537" cy="571" r="5"/><circle cx="1635" cy="577" r="5"/><circle cx="1713" cy="573" r="5"/><circle cx="1830" cy="581" r="5"/><circle cx="1850" cy="633" r="5"/><circle cx="1929" cy="599" r="4"/><circle cx="2012" cy="627" r="5"/><circle cx="2084" cy="623" r="5"/><circle cx="2169" cy="599" r="5"/><circle cx="2300" cy="601" r="6"/><circle cx="2374" cy="625" r="5"/><circle cx="2416" cy="595" r="6"/><circle cx="2511" cy="634" r="6"/><circle cx="46" cy="664" r="4"/><circle cx="153" cy="660" r="6"/><circle cx="177" cy="658" r="5"/><circle cx="251" cy="706" r="5"/><circle cx="399" cy="676" r="5"/><circle cx="424" cy="662" r="4"/><circle cx="558" cy="658" r="5"/><circle cx="603" cy="681" r="4"/><circle cx="658" cy="702" r="4"/><circle cx="753" cy="677" r="5"/><circle cx="829" cy="712" r="4"/><circle cx="937" cy="671" r="6"/><circle cx="992" cy="717" r="5"/><circle cx="1117" cy="698" r="4"/><circle cx="1162" cy="668" r="5"/><circle cx="1217" cy="650" r="5"/><circle cx="1305" cy="650" r="5"/><circle cx="1393" cy="641" r="4"/><circle cx="1480" cy="661" r="6"/><circle cx="1536" cy="660" r="5"/><circle cx="1669" cy="700" r="5"/><circle cx="1681" cy="687" r="5"/><circle cx="1772" cy="712" r="5"/><circle cx="1866" cy="706" r="6"/><circle cx="1960" cy="666" r="4"/><circle cx="2045" cy="689" r="6"/><circle cx="2092" cy="662" r="5"/><circle cx="2164" cy="666" r="4"/><circle cx="2280" cy="644" r="4"/><circle cx="2333" cy="687" r="5"/><circle cx="2466" cy="699" r="5"/><circle cx="2496" cy="706" r="5"/><circle cx="76" cy="726" r="6"/><circle cx="86" cy="766" r="4"/><circle cx="211" cy="721" r="6"/><circle cx="288" cy="728" r="4"/><circle cx="386" cy="791" r="6"/><circle cx="460" cy="739" r="5"/><circle cx="490" cy="720" r="5"/><circle cx="607" cy="738" r="6"/><circle cx="657" cy="727" r="4"/><circle cx="745" cy="750" r="4"/><circle cx="863" cy="745" r="6"/><circle cx="888" cy="731" r="6"/><circle cx="996" cy="791" r="5"/><circle cx="1055" cy="763" r="6"/><circle cx="1190" cy="797" r="6"/><circle cx="1267" cy="799" r="4"/><circle cx="1297" cy="768" r="5"/><circle cx="1403" cy="759" r="4"/><circle cx="1464" cy="769" r="6"/><circle cx="1563" cy="760" r="4"/><circle cx="1669" cy="765" r="6"/><circle cx="1756" cy="752" r="6"/><circle cx="1810" cy="775" r="4"/><circle cx="1882" cy="745" r="6"/><circle cx="1968" cy="760" r="5"/><circle cx="2070" cy="734" r="4"/><circle cx="2096" cy="743" r="5"/><circle cx="2236" cy="745" r="6"/><circle cx="2303" cy="784" r="4"/><circle cx="2399" cy="762" r="6"/><circle cx="2405" cy="773" r="5"/><circle cx="2498" cy="752" r="5"/><circle cx="50" cy="850" r="4"/><circle cx="118" cy="818" r="5"/><circle cx="221" cy="864" r="4"/><circle cx="314" cy="850" r="6"/><circle cx="347" cy="845" r="6"/><circle cx="460" cy="876" r="5"/><circle cx="486" cy="852" r="5"/><circle cx="610" cy="835" r="5"/><circle cx="664" cy="842" r="4"/><circle cx="790" cy="872" r="6"/><circle cx="862" cy="837" r="5"/><circle cx="904" cy="865" r="4"/><circle cx="977" cy="819" r="4"/><circle cx="1091" cy="831" r="5"/><circle cx="1181" cy="836" r="5"/><circle cx="1255" cy="835" r="5"/><circle cx="1308" cy="855" r="5"/><circle cx="1382" cy="879" r="5"/><circle cx="1477" cy="874" r="5"/><circle cx="1537" cy="829" r="5"/><circle cx="1615" cy="857" r="5"/><circle cx="1696" cy="851" r="5"/><circle cx="1814" cy="846" r="5"/><circle cx="1868" cy="813" r="5"/><circle cx="1950" cy="804" r="5"/><circle cx="2038" cy="804" r="5"/><circle cx="2111" cy="833" r="5"/><circle cx="2206" cy="819" r="5"/><circle cx="2243" cy="817" r="6"/><circle cx="2386" cy="838" r="4"/><circle cx="2413" cy="834" r="6"/><circle cx="2492" cy="847" r="6"/><circle cx="16" cy="893" r="5"/><circle cx="122" cy="902" r="5"/><circle cx="216" cy="909" r="6"/><circle cx="250" cy="895" r="5"/><circle cx="339" cy="900" r="5"/><circle cx="454" cy="882" r="5"/><circle cx="496" cy="910" r="5"/><circle cx="627" cy="911" r="6"/><circle cx="693" cy="884" r="5"/><circle cx="740" cy="952" r="4"/><circle cx="815" cy="919" r="5"/><circle cx="916" cy="899" r="4"/><circle cx="985" cy="952" r="6"/><circle cx="1045" cy="897" r="4"/><circle cx="1147" cy="947" r="4"/><circle cx="1254" cy="914" r="6"/><circle cx="1320" cy="946" r="5"/><circle cx="1439" cy="922" r="6"/><circle cx="1460" cy="925" r="5"/><circle cx="1555" cy="891" r="5"/><circle cx="1654" cy="940" r="4"/><circle cx="1719" cy="882" r="5"/><circle cx="1772" cy="926" r="5"/><circle cx="1866" cy="905" r="5"/><circle cx="1960" cy="916" r="6"/><circle cx="2063" cy="911" r="5"/><circle cx="2093" cy="902" r="6"/><circle cx="2188" cy="897" r="4"/><circle cx="2242" cy="927" r="5"/><circle cx="2347" cy="887" r="5"/><circle cx="2460" cy="900" r="5"/><circle cx="2480" cy="933" r="5"/><circle cx="54" cy="1006" r="5"/><circle cx="95" cy="1021" r="4"/><circle cx="173" cy="970" r="4"/><circle cx="271" cy="998" r="6"/><circle cx="355" cy="962" r="5"/><circle cx="456" cy="1003" r="5"/><circle cx="547" cy="1039" r="5"/><circle cx="583" cy="1028" r="6"/><circle cx="686" cy="996" r="6"/><circle cx="785" cy="1002" r="6"/><circle cx="879" cy="993" r="6"/><circle cx="955" cy="971" r="5"/><circle cx="1023" cy="1000" r="5"/><circle cx="1103" cy="985" r="6"/><circle cx="1143" cy="975" r="5"/><circle cx="1235" cy="1037" r="5"/><circle cx="1318" cy="1030" r="5"/><circle cx="1405" cy="987" r="5"/><circle cx="1479" cy="968" r="4"/><circle cx="1565" cy="962" r="5"/><circle cx="1613" cy="966" r="6"/><circle cx="1743" cy="976" r="5"/><circle cx="1782" cy="971" r="5"/><circle cx="1902" cy="969" r="4"/><circle cx="1997" cy="971" r="5"/><circle cx="2069" cy="1004" r="5"/><circle cx="2095" cy="1019" r="5"/><circle cx="2200" cy="974" r="5"/><circle cx="2316" cy="964" r="4"/><circle cx="2354" cy="975" r="5"/><circle cx="2427" cy="1007" r="5"/><circle cx="2543" cy="968" r="5"/><circle cx="61" cy="1053" r="5"/><circle cx="120" cy="1072" r="5"/><circle cx="197" cy="1077" r="4"/><circle cx="264" cy="1067" r="4"/><circle cx="397" cy="1086" r="5"/><circle cx="433" cy="1096" r="5"/><circle cx="528" cy="1044" r="5"/><circle cx="617" cy="1060" r="4"/><circle cx="703" cy="1060" r="4"/><circle cx="758" cy="1067" r="5"/><circle cx="860" cy="1095" r="4"/><circle cx="917" cy="1098" r="4"/><circle cx="987" cy="1042" r="5"/><circle cx="1085" cy="1051" r="5"/><circle cx="1122" cy="1076" r="6"/><circle cx="1206" cy="1098" r="6"/><circle cx="1345" cy="1117" r="6"/><circle cx="1394" cy="1054" r="5"/><circle cx="1445" cy="1096" r="5"/><circle cx="1544" cy="1114" r="5"/><circle cx="1640" cy="1043" r="6"/><circle cx="1706" cy="1106" r="6"/><circle cx="1807" cy="1094" r="4"/><circle cx="1896" cy="1101" r="5"/><circle cx="1966" cy="1053" r="6"/><circle cx="2048" cy="1041" r="4"/><circle cx="2083" cy="1065" r="6"/><circle cx="2177" cy="1099" r="4"/><circle cx="2274" cy="1060" r="5"/><circle cx="2399" cy="1116" r="5"/><circle cx="2456" cy="1088" r="5"/><circle cx="2484" cy="1108" r="5"/><circle cx="17" cy="1140" r="5"/><circle cx="99" cy="1192" r="5"/><circle cx="227" cy="1177" r="5"/><circle cx="298" cy="1175" r="4"/><circle cx="362" cy="1153" r="4"/><circle cx="400" cy="1186" r="5"/><circle cx="524" cy="1125" r="4"/><circle cx="570" cy="1150" r="5"/><circle cx="649" cy="1183" r="4"/><circle cx="751" cy="1122" r="5"/><circle cx="877" cy="1171" r="5"/><circle cx="925" cy="1138" r="5"/><circle cx="1035" cy="1174" r="4"/><circle cx="1105" cy="1170" r="6"/><circle cx="1155" cy="1162" r="5"/><circle cx="1230" cy="1173" r="4"/><circle cx="1285" cy="1194" r="6"/><circle cx="1419" cy="1147" r="6"/><circle cx="1470" cy="1133" r="4"/><circle cx="1529" cy="1165" r="5"/><circle cx="1607" cy="1149" r="4"/><circle cx="1697" cy="1158" r="5"/><circle cx="1800" cy="1138" r="5"/><circle cx="1898" cy="1156" r="6"/><circle cx="1931" cy="1185" r="4"/><circle cx="2077" cy="1175" r="4"/><circle cx="2132" cy="1165" r="5"/><circle cx="2226" cy="1158" r="6"/><circle cx="2265" cy="1145" r="5"/><circle cx="2377" cy="1138" r="5"/><circle cx="2414" cy="1127" r="5"/><circle cx="2488" cy="1195" r="4"/><circle cx="40" cy="1246" r="4"/><circle cx="126" cy="1249" r="5"/><circle cx="173" cy="1234" r="4"/><circle cx="246" cy="1221" r="5"/><circle cx="340" cy="1262" r="5"/><circle cx="472" cy="1220" r="5"/><circle cx="541" cy="1252" r="4"/><circle cx="585" cy="1267" r="4"/><circle cx="685" cy="1274" r="6"/><circle cx="744" cy="1208" r="6"/><circle cx="807" cy="1254" r="4"/><circle cx="908" cy="1213" r="5"/><circle cx="971" cy="1201" r="5"/><circle cx="1072" cy="1275" r="5"/><circle cx="1199" cy="1230" r="5"/><circle cx="1265" cy="1252" r="6"/><circle cx="1352" cy="1231" r="5"/><circle cx="1410" cy="1219" r="5"/><circle cx="1468" cy="1221" r="5"/><circle cx="1568" cy="1255" r="5"/><circle cx="1652" cy="1246" r="6"/><circle cx="1752" cy="1204" r="5"/><circle cx="1764" cy="1255" r="4"/><circle cx="1918" cy="1255" r="6"/><circle cx="1922" cy="1234" r="5"/><circle cx="2015" cy="1253" r="5"/><circle cx="2103" cy="1236" r="5"/><circle cx="2164" cy="1218" r="5"/><circle cx="2265" cy="1225" r="5"/><circle cx="2362" cy="1254" r="4"/><circle cx="2466" cy="1249" r="5"/><circle cx="2519" cy="1207" r="5"/><circle cx="28" cy="1353" r="4"/><circle cx="112" cy="1285" r="5"/><circle cx="203" cy="1298" r="5"/><circle cx="296" cy="1314" r="5"/><circle cx="350" cy="1292" r="5"/><circle cx="453" cy="1312" r="5"/><circle cx="497" cy="1359" r="4"/><circle cx="625" cy="1320" r="5"/><circle cx="695" cy="1306" r="5"/><circle cx="751" cy="1310" r="5"/><circle cx="844" cy="1353" r="6"/><circle cx="885" cy="1353" r="4"/><circle cx="978" cy="1314" r="4"/><circle cx="1089" cy="1345" r="4"/><circle cx="1157" cy="1308" r="5"/><circle cx="1207" cy="1325" r="6"/><circle cx="1344" cy="1298" r="5"/><circle cx="1402" cy="1326" r="6"/><circle cx="1501" cy="1339" r="6"/><circle cx="1552" cy="1281" r="5"/><circle cx="1671" cy="1345" r="6"/><circle cx="1690" cy="1313" r="5"/><circle cx="1820" cy="1335" r="5"/><circle cx="1916" cy="1353" r="5"/><circle cx="1955" cy="1288" r="5"/><circle cx="2014" cy="1291" r="5"/><circle cx="2082" cy="1323" r="6"/><circle cx="2222" cy="1332" r="6"/><circle cx="2298" cy="1336" r="6"/><circle cx="2368" cy="1356" r="4"/><circle cx="2409" cy="1319" r="5"/><circle cx="2552" cy="1285" r="6"/><circle cx="5" cy="1397" r="6"/><circle cx="2565" cy="1397" r="6"/><circle cx="153" cy="1429" r="4"/><circle cx="199" cy="1394" r="6"/><circle cx="269" cy="1416" r="4"/><circle cx="395" cy="1429" r="4"/><circle cx="428" cy="1422" r="5"/><circle cx="507" cy="1379" r="4"/><circle cx="578" cy="1434" r="4"/><circle cx="666" cy="1382" r="5"/><circle cx="771" cy="1423" r="5"/><circle cx="836" cy="1404" r="5"/><circle cx="885" cy="1404" r="5"/><circle cx="1007" cy="1435" r="5"/><circle cx="1007" cy="-5" r="5"/><circle cx="1089" cy="1394" r="4"/><circle cx="1122" cy="1368" r="5"/><circle cx="1237" cy="1426" r="5"/><circle cx="1339" cy="1381" r="5"/><circle cx="1415" cy="1427" r="5"/><circle cx="1479" cy="1429" r="6"/><circle cx="1563" cy="1430" r="5"/><circle cx="1658" cy="1402" r="4"/><circle cx="1737" cy="1391" r="5"/><circle cx="1771" cy="1436" r="5"/><circle cx="1771" cy="-4" r="5"/><circle cx="1849" cy="1399" r="5"/><circle cx="1978" cy="1369" r="6"/><circle cx="2064" cy="1378" r="5"/><circle cx="2086" cy="1428" r="6"/><circle cx="2212" cy="1439" r="4"/><circle cx="2212" cy="-1" r="4"/><circle cx="2304" cy="1434" r="5"/><circle cx="2356" cy="1396" r="4"/><circle cx="2477" cy="1361" r="4"/><circle cx="2552" cy="1412" r="6"/><path stroke="#fff" d="M58 42L95 29M58 42L58 147M58 42L114 85M58 42L5 -43M58 42L-8 -28M2618 42L2552 -28M58 1482L5 1397M58 1482L-8 1412M2618 1482L2552 1412M95 29L114 85M95 29L153 -11M95 1469L153 1429M206 72L286 37M206 72L114 85M206 72L237 89M206 72L274 128M206 72L153 -11M206 1512L153 1429M286 37L340 19M286 37L237 89M286 37L274 128M286 37L269 -24M286 1477L269 1416M340 19L334 115M340 19L269 -24M340 19L395 -11M340 1459L269 1416M340 1459L395 1429M446 68L496 4M446 68L400 115M446 68L502 150M446 68L395 -11M446 68L428 -18M446 1508L395 1429M446 1508L428 1422M496 4L497 -81M496 4L428 -18M496 4L507 -61M496 4L578 -6M496 1444L497 1359M496 1444L428 1422M496 1444L507 1379M496 1444L578 1434M619 24L669 54M619 24L589 100M619 24L645 113M619 24L578 -6M619 24L666 -58M619 1464L578 1434M619 1464L666 1382M669 54L735 43M669 54L589 100M669 54L645 113M669 54L578 -6M669 1494L578 1434M735 43L773 122M735 43L771 -17M735 1483L771 1423M873 27L886 68M873 27L839 106M873 27L836 -36M873 27L885 -36M873 1467L836 1404M873 1467L885 1404M886 68L839 106M886 68L960 119M886 68L885 -36M886 1508L885 1404M980 4L1007 -5M980 1444L1007 1435M1060 54L1154 61M1060 54L1028 84M1060 54L1120 97M1060 54L1137 90M1060 54L1007 -5M1060 1494L1007 1435M1154 61L1120 97M1154 61L1137 90M1154 61L1237 94M1154 61L1237 -14M1154 1501L1237 1426M1269 32L1328 44M1269 32L1237 94M1269 32L1237 -14M1269 32L1339 -59M1269 1472L1237 1426M1269 1472L1339 1381M1328 44L1409 43M1328 44L1327 129M1328 44L1237 -14M1328 44L1339 -59M1328 1484L1237 1426M1328 1484L1339 1381M1409 43L1465 2M1409 43L1429 104M1409 43L1442 87M1409 43L1415 -13M1409 1483L1415 1427M1465 2L1442 87M1465 2L1415 -13M1465 2L1479 -11M1465 2L1563 -10M1465 1442L1415 1427M1465 1442L1479 1429M1465 1442L1563 1430M1585 22L1567 103M1585 22L1563 -10M1585 1462L1563 1430M1645 79L1706 69M1645 79L1567 103M1645 79L1628 107M1645 79L1694 103M1706 69L1628 107M1706 69L1694 103M1706 69L1771 -4M1706 1509L1771 1436M1808 49L1901 31M1808 49L1819 100M1808 49L1771 -4M1808 49L1849 -41M1808 1489L1771 1436M1808 1489L1849 1399M1901 31L1953 57M1901 31L1819 100M1901 31L1936 107M1901 31L1849 -41M1901 1471L1849 1399M1953 57L1915 139M1953 57L1936 107M2056 3L2118 67M2056 3L2115 81M2056 3L1978 -71M2056 3L2064 -62M2056 3L2086 -12M2056 1443L1978 1369M2056 1443L2064 1378M2056 1443L2086 1428M2118 67L2115 81M2118 67L2184 139M2118 67L2086 -12M2118 1507L2086 1428M2224 32L2286 18M2224 32L2300 83M2224 32L2212 -1M2224 32L2304 -6M2224 1472L2212 1439M2224 1472L2304 1434M2286 18L2339 65M2286 18L2300 83M2286 18L2212 -1M2286 18L2304 -6M2286 1458L2212 1439M2286 1458L2304 1434M2339 65L2300 83M2339 65L2367 114M2339 65L2418 87M2339 65L2304 -6M2339 1505L2304 1434M2450 14L2482 18M2450 14L2418 87M2450 14L2503 101M2450 14L2477 -79M2450 1454L2477 1361M2482 18L2418 87M2482 18L2503 101M2482 18L2565 -43M2482 18L2552 -28M-78 18L5 -43M-78 1458L5 1397M2482 1458L2565 1397M2482 1458L2552 1412M58 147L114 85M58 147L-57 101M58 147L55 191M58 147L155 179M2618 147L2503 101M114 85L155 179M237 89L274 128M237 89L334 115M274 128L334 115M274 128L229 200M334 115L400 115M334 115L356 190M400 115L502 150M400 115L356 190M400 115L404 205M502 150L589 100M502 150L496 231M502 150L577 182M589 100L645 113M589 100L577 182M645 113L675 203M773 122L839 106M773 122L798 162M839 106L798 162M960 119L1028 84M960 119L908 203M960 119L976 200M960 119L1052 175M1028 84L1120 97M1028 84L1052 175M1028 84L1007 -5M1028 1524L1007 1435M1120 97L1137 90M1120 97L1052 175M1237 94L1327 129M1237 94L1196 196M1237 94L1237 -14M1237 1534L1237 1426M1327 129L1429 104M1327 129L1294 186M1429 104L1442 87M1442 87L1479 -11M1442 1527L1479 1429M1567 103L1628 107M1567 103L1592 212M1628 107L1694 103M1628 107L1641 164M1694 103L1641 164M1694 103L1707 189M1819 100L1915 139M1819 100L1803 190M1819 100L1771 -4M1819 1540L1771 1436M1915 139L1936 107M1915 139L1908 196M1915 139L1924 192M1936 107L2037 145M1936 107L1924 192M2037 145L2115 81M2037 145L2007 233M2037 145L2103 204M2037 145L2059 253M2115 81L2184 139M2115 81L2086 -12M2115 1521L2086 1428M2184 139L2173 172M2184 139L2242 175M2300 83L2367 114M2367 114L2418 87M2367 114L2359 162M2367 114L2400 209M2418 87L2503 101M2503 101L2514 216M55 191L155 179M55 191L-46 216M55 191L32 263M2615 191L2514 216M155 179L229 200M229 200L314 217M229 200L229 304M229 200L286 252M314 217L356 190M314 217L404 205M314 217L286 252M314 217L361 273M356 190L404 205M356 190L361 273M404 205L361 273M496 231L577 182M496 231L472 304M496 231L539 255M496 231L561 302M577 182L675 203M577 182L539 255M675 203L697 283M675 203L764 275M675 203L695 326M798 162L877 230M877 230L908 203M877 230L813 273M877 230L926 278M877 230L903 323M908 203L976 200M908 203L926 278M908 203L903 323M976 200L1052 175M976 200L926 278M1196 196L1202 215M1196 196L1294 186M1196 196L1187 277M1196 196L1216 251M1202 215L1294 186M1202 215L1187 277M1202 215L1216 251M1294 186L1216 251M1294 186L1320 291M1406 227L1508 201M1406 227L1320 291M1406 227L1379 291M1406 227L1498 242M1508 201L1592 212M1508 201L1498 242M1508 201L1541 314M1592 212L1641 164M1592 212L1498 242M1592 212L1659 254M1641 164L1707 189M1641 164L1659 254M1707 189L1803 190M1707 189L1659 254M1908 196L1924 192M1908 196L1893 269M1908 196L1970 241M1924 192L2007 233M1924 192L1970 241M2007 233L2103 204M2007 233L1970 241M2007 233L2059 253M2103 204L2173 172M2103 204L2059 253M2103 204L2151 245M2173 172L2242 175M2173 172L2151 245M2242 175L2359 162M2242 175L2151 245M2359 162L2400 209M2359 162L2367 277M2400 209L2367 277M2400 209L2469 255M2514 216L2592 263M2514 216L2469 255M2514 216L2514 306M-46 216L32 263M32 263L-46 306M32 263L59 360M32 263L96 342M2592 263L2514 306M150 299L229 304M150 299L96 342M150 299L168 373M229 304L286 252M229 304L168 373M229 304L252 361M286 252L361 273M286 252L252 361M361 273L417 339M472 304L539 255M472 304L561 302M472 304L417 339M472 304L557 373M539 255L561 302M561 302L557 373M697 283L764 275M697 283L813 273M697 283L695 326M697 283L745 388M764 275L813 273M764 275L695 326M764 275L822 372M813 273L822 372M813 273L903 323M926 278L1027 296M926 278L903 323M1027 296L1088 284M1027 296L1015 359M1027 296L1045 367M1088 284L1015 359M1088 284L1045 367M1088 284L1155 362M1187 277L1216 251M1187 277L1155 362M1187 277L1213 376M1216 251L1320 291M1320 291L1379 291M1379 291L1444 357M1498 242L1541 314M1541 314L1578 350M1541 314L1563 429M1659 254L1757 308M1659 254L1578 350M1757 308L1821 313M1757 308L1745 372M1757 308L1784 385M1757 308L1715 411M1821 313L1893 269M1821 313L1784 385M1821 313L1891 320M1821 313L1833 411M1893 269L1891 320M1893 269L1954 328M1970 241L2059 253M1970 241L1954 328M2059 253L2151 245M2151 245L2220 304M2220 304L2287 318M2220 304L2199 374M2287 318L2367 277M2287 318L2315 362M2287 318L2333 342M2287 318L2317 407M2367 277L2315 362M2367 277L2333 342M2469 255L2514 306M2469 255L2468 339M2514 306L2468 339M2514 306L2499 361M59 360L96 342M59 360L13 423M59 360L99 411M59 360L-3 454M2619 360L2557 454M96 342L168 373M96 342L99 411M168 373L252 361M168 373L99 411M252 361L364 376M252 361L247 447M364 376L417 339M364 376L383 421M417 339L383 421M557 373L617 382M557 373L489 424M617 382L695 326M617 382L624 477M617 382L594 489M695 326L745 388M745 388L822 372M745 388L750 465M822 372L903 323M822 372L828 465M1015 359L1045 367M1015 359L1033 430M1015 359L1042 420M1045 367L1033 430M1045 367L1042 420M1155 362L1213 376M1155 362L1138 454M1213 376L1297 398M1213 376L1228 434M1297 398L1379 393M1297 398L1228 434M1297 398L1344 401M1379 393L1444 357M1379 393L1344 401M1379 393L1376 422M1379 393L1445 426M1444 357L1344 401M1444 357L1376 422M1444 357L1445 426M1578 350L1677 391M1578 350L1563 429M1677 391L1745 372M1677 391L1622 468M1677 391L1715 411M1745 372L1784 385M1745 372L1715 411M1784 385L1715 411M1784 385L1833 411M1891 320L1954 328M1891 320L1833 411M1954 328L2054 385M1954 328L1985 428M2054 385L2095 367M2054 385L1985 428M2054 385L2075 477M2054 385L2070 490M2095 367L2199 374M2199 374L2176 472M2315 362L2333 342M2315 362L2317 407M2315 362L2399 411M2333 342L2317 407M2333 342L2399 411M2468 339L2499 361M2468 339L2399 411M2468 339L2433 455M13 423L99 411M13 423L-3 454M13 423L104 487M13 423L-19 512M2573 423L2557 454M2573 423L2541 512M99 411L104 487M172 471L247 447M172 471L104 487M172 471L218 494M172 471L274 520M247 447L218 494M247 447L274 520M383 421L442 435M383 421L489 424M383 421L390 498M442 435L489 424M442 435L390 498M442 435L487 522M624 477L676 452M624 477L594 489M624 477L716 526M624 477L592 574M676 452L750 465M676 452L594 489M676 452L716 526M676 452L735 521M750 465L828 465M750 465L716 526M750 465L735 521M828 465L913 478M828 465L820 500M913 478L820 500M913 478L956 495M913 478L990 520M1033 430L1042 420M1033 430L956 495M1033 430L990 520M1042 420L1138 454M1138 454L1228 434M1138 454L1068 547M1138 454L1175 503M1228 434L1175 503M1344 401L1376 422M1344 401L1376 491M1376 422L1445 426M1376 422L1376 491M1445 426L1376 491M1445 426L1487 500M1563 429L1622 468M1563 429L1487 500M1622 468L1715 411M1622 468L1578 558M1622 468L1669 534M1833 411L1879 468M1833 411L1840 499M1879 468L1840 499M1879 468L1913 506M1879 468L1924 515M2075 477L2155 464M2075 477L2070 490M2075 477L2120 539M2155 464L2176 472M2155 464L2070 490M2155 464L2120 539M2155 464L2198 526M2176 472L2070 490M2176 472L2198 526M2317 407L2399 411M2317 407L2288 491M2399 411L2433 455M2433 455L2358 520M2433 455L2437 513M2557 454L2616 523M2557 454L2664 487M2557 454L2541 512M-3 454L56 523M-3 454L104 487M56 523L104 487M56 523L-19 512M56 523L33 594M2616 523L2541 512M218 494L274 520M218 494L222 590M274 520L222 590M274 520L247 610M390 498L460 541M390 498L487 522M390 498L394 614M460 541L487 522M460 541L394 614M460 541L453 618M487 522L594 489M487 522L542 616M594 489L592 574M716 526L735 521M716 526L712 587M735 521L820 500M735 521L712 587M820 500L815 584M956 495L990 520M956 495L926 591M990 520L1068 547M990 520L926 591M1068 547L995 635M1068 547L1064 617M1175 503L1257 531M1175 503L1190 587M1175 503L1219 592M1257 531L1297 502M1257 531L1190 587M1257 531L1219 592M1257 531L1319 587M1297 502L1376 491M1297 502L1319 587M1376 491L1487 500M1487 500L1537 571M1578 558L1669 534M1578 558L1513 629M1578 558L1537 571M1578 558L1635 577M1669 534L1715 518M1669 534L1635 577M1669 534L1713 573M1715 518L1635 577M1715 518L1713 573M1840 499L1913 506M1840 499L1924 515M1840 499L1830 581M1913 506L1924 515M1913 506L1830 581M1913 506L1929 599M1924 515L1929 599M2070 490L2120 539M2120 539L2198 526M2120 539L2169 599M2198 526L2288 491M2198 526L2169 599M2288 491L2358 520M2358 520L2437 513M2358 520L2300 601M2358 520L2416 595M2437 513L2541 512M2437 513L2374 625M2437 513L2416 595M2541 512L2593 594M-19 512L33 594M33 594L92 634M33 594L-49 634M33 594L46 664M2593 594L2511 634M92 634L46 664M92 634L153 660M92 634L177 658M92 634L76 726M222 590L247 610M222 590L177 658M247 610L153 660M247 610L177 658M247 610L251 706M394 614L453 618M394 614L399 676M394 614L424 662M453 618L542 616M453 618L399 676M453 618L424 662M542 616L592 574M542 616L558 658M542 616L603 681M592 574L558 658M712 587L767 627M712 587L815 584M712 587L753 677M767 627L815 584M767 627L753 677M815 584L926 591M926 591L995 635M926 591L937 671M995 635L1064 617M995 635L937 671M995 635L992 717M1064 617L1117 698M1064 617L1162 668M1190 587L1219 592M1190 587L1162 668M1190 587L1217 650M1219 592L1162 668M1219 592L1217 650M1319 587L1428 623M1319 587L1305 650M1319 587L1393 641M1428 623L1513 629M1428 623L1393 641M1428 623L1480 661M1428 623L1536 660M1513 629L1537 571M1513 629L1480 661M1513 629L1536 660M1537 571L1536 660M1635 577L1713 573M1635 577L1681 687M1713 573L1830 581M1830 581L1850 633M1850 633L1929 599M1850 633L1866 706M1929 599L2012 627M1929 599L1960 666M2012 627L2084 623M2012 627L1960 666M2012 627L2045 689M2084 623L2169 599M2084 623L2045 689M2084 623L2092 662M2084 623L2164 666M2169 599L2164 666M2300 601L2374 625M2300 601L2416 595M2300 601L2280 644M2300 601L2333 687M2374 625L2416 595M2374 625L2280 644M2374 625L2333 687M2416 595L2511 634M2511 634L2606 664M2511 634L2466 699M2511 634L2496 706M-49 634L46 664M46 664L76 726M153 660L177 658M153 660L76 726M153 660L211 721M177 658L211 721M251 706L211 721M251 706L288 728M399 676L424 662M399 676L460 739M399 676L490 720M424 662L460 739M424 662L490 720M558 658L603 681M558 658L490 720M558 658L607 738M603 681L658 702M603 681L607 738M603 681L657 727M658 702L753 677M658 702L607 738M658 702L657 727M658 702L745 750M753 677L829 712M753 677L745 750M829 712L745 750M829 712L863 745M829 712L888 731M937 671L992 717M937 671L863 745M937 671L888 731M992 717L888 731M992 717L996 791M992 717L1055 763M1117 698L1162 668M1117 698L1217 650M1117 698L1055 763M1162 668L1217 650M1217 650L1305 650M1305 650L1393 641M1393 641L1480 661M1480 661L1536 660M1480 661L1464 769M1536 660L1563 760M1669 700L1681 687M1669 700L1669 765M1669 700L1756 752M1681 687L1772 712M1681 687L1669 765M1681 687L1756 752M1772 712L1866 706M1772 712L1756 752M1772 712L1810 775M1866 706L1882 745M1960 666L1968 760M2045 689L2092 662M2045 689L2070 734M2045 689L2096 743M2092 662L2164 666M2092 662L2070 734M2092 662L2096 743M2164 666L2236 745M2280 644L2333 687M2333 687L2236 745M2333 687L2399 762M2466 699L2496 706M2466 699L2399 762M2466 699L2405 773M2466 699L2498 752M2496 706L2498 752M76 726L86 766M76 726L118 818M86 766L50 850M86 766L118 818M211 721L288 728M386 791L460 739M386 791L314 850M386 791L347 845M386 791L460 876M386 791L454 882M460 739L490 720M460 739L486 852M607 738L657 727M607 738L610 835M657 727L745 750M657 727L610 835M745 750L863 745M863 745L888 731M863 745L862 837M996 791L1055 763M996 791L977 819M996 791L1091 831M1055 763L977 819M1055 763L1091 831M1190 797L1267 799M1190 797L1297 768M1190 797L1091 831M1190 797L1181 836M1190 797L1255 835M1267 799L1297 768M1267 799L1181 836M1267 799L1255 835M1267 799L1308 855M1297 768L1403 759M1403 759L1464 769M1464 769L1563 760M1464 769L1477 874M1464 769L1537 829M1563 760L1537 829M1669 765L1756 752M1669 765L1615 857M1669 765L1696 851M1756 752L1810 775M1810 775L1882 745M1810 775L1814 846M1810 775L1868 813M1882 745L1968 760M1882 745L1868 813M1882 745L1950 804M1968 760L2070 734M1968 760L1950 804M1968 760L2038 804M2070 734L2096 743M2070 734L2038 804M2096 743L2038 804M2096 743L2111 833M2236 745L2303 784M2236 745L2206 819M2236 745L2243 817M2303 784L2243 817M2399 762L2405 773M2399 762L2386 838M2399 762L2413 834M2405 773L2498 752M2405 773L2386 838M2405 773L2413 834M2498 752L2492 847M50 850L118 818M50 850L16 893M50 850L122 902M118 818L221 864M118 818L122 902M221 864L314 850M221 864L216 909M221 864L250 895M314 850L347 845M314 850L250 895M314 850L339 900M347 845L339 900M347 845L454 882M460 876L486 852M460 876L454 882M460 876L496 910M486 852L454 882M486 852L496 910M610 835L664 842M610 835L627 911M610 835L693 884M664 842L627 911M664 842L693 884M790 872L862 837M790 872L693 884M790 872L740 952M790 872L815 919M862 837L904 865M862 837L815 919M862 837L916 899M904 865L977 819M904 865L916 899M1091 831L1181 836M1091 831L1045 897M1181 836L1255 835M1181 836L1254 914M1255 835L1308 855M1255 835L1254 914M1308 855L1382 879M1308 855L1254 914M1308 855L1320 946M1382 879L1320 946M1382 879L1439 922M1382 879L1460 925M1477 874L1537 829M1477 874L1439 922M1477 874L1460 925M1477 874L1555 891M1537 829L1615 857M1537 829L1555 891M1615 857L1696 851M1615 857L1555 891M1615 857L1654 940M1696 851L1719 882M1814 846L1868 813M1814 846L1719 882M1814 846L1772 926M1814 846L1866 905M1868 813L1950 804M1868 813L1866 905M1950 804L2038 804M1950 804L1960 916M2038 804L2111 833M2111 833L2206 819M2111 833L2063 911M2111 833L2093 902M2206 819L2243 817M2206 819L2188 897M2243 817L2188 897M2243 817L2242 927M2386 838L2413 834M2386 838L2347 887M2413 834L2492 847M2413 834L2460 900M2492 847L2576 893M2492 847L2460 900M2492 847L2480 933M-68 847L16 893M16 893L122 902M16 893L-80 933M16 893L-17 968M2576 893L2480 933M2576 893L2543 968M122 902L216 909M122 902L173 970M216 909L250 895M216 909L173 970M216 909L271 998M250 895L339 900M250 895L271 998M339 900L355 962M454 882L496 910M496 910L456 1003M627 911L693 884M627 911L583 1028M627 911L686 996M693 884L740 952M740 952L815 919M740 952L686 996M740 952L785 1002M815 919L785 1002M815 919L879 993M916 899L985 952M916 899L879 993M916 899L955 971M985 952L1045 897M985 952L955 971M985 952L1023 1000M985 952L987 1042M1147 947L1103 985M1147 947L1143 975M1254 914L1320 946M1254 914L1235 1037M1320 946L1318 1030M1320 946L1405 987M1439 922L1460 925M1439 922L1405 987M1439 922L1479 968M1460 925L1405 987M1460 925L1479 968M1555 891L1565 962M1555 891L1613 966M1654 940L1719 882M1654 940L1565 962M1654 940L1613 966M1654 940L1743 976M1719 882L1772 926M1719 882L1743 976M1772 926L1866 905M1772 926L1743 976M1772 926L1782 971M1866 905L1960 916M1866 905L1902 969M1960 916L2063 911M1960 916L1902 969M1960 916L1997 971M2063 911L2093 902M2063 911L1997 971M2063 911L2069 1004M2093 902L2188 897M2188 897L2242 927M2188 897L2200 974M2242 927L2347 887M2242 927L2200 974M2242 927L2316 964M2347 887L2460 900M2347 887L2316 964M2347 887L2354 975M2460 900L2480 933M2460 900L2543 968M2480 933L2427 1007M2480 933L2543 968M54 1006L95 1021M54 1006L-17 968M54 1006L61 1053M54 1006L120 1072M2614 1006L2543 968M95 1021L173 970M95 1021L61 1053M95 1021L120 1072M173 970L271 998M271 998L355 962M271 998L264 1067M355 962L397 1086M456 1003L547 1039M456 1003L397 1086M456 1003L433 1096M456 1003L528 1044M547 1039L583 1028M547 1039L528 1044M547 1039L617 1060M547 1039L524 1125M583 1028L686 996M583 1028L528 1044M583 1028L617 1060M686 996L785 1002M686 996L703 1060M785 1002L879 993M785 1002L758 1067M879 993L955 971M879 993L860 1095M955 971L1023 1000M955 971L987 1042M1023 1000L1103 985M1023 1000L987 1042M1023 1000L1085 1051M1103 985L1143 975M1103 985L1085 1051M1103 985L1122 1076M1143 975L1235 1037M1143 975L1085 1051M1235 1037L1318 1030M1235 1037L1206 1098M1318 1030L1345 1117M1318 1030L1394 1054M1405 987L1479 968M1405 987L1394 1054M1479 968L1565 962M1565 962L1613 966M1565 962L1640 1043M1613 966L1640 1043M1743 976L1782 971M1782 971L1902 969M1902 969L1966 1053M1997 971L2069 1004M1997 971L1966 1053M1997 971L2048 1041M2069 1004L2095 1019M2069 1004L2048 1041M2069 1004L2083 1065M2095 1019L2200 974M2095 1019L2048 1041M2095 1019L2083 1065M2200 974L2316 964M2200 974L2274 1060M2316 964L2354 975M2316 964L2274 1060M2354 975L2427 1007M2427 1007L2399 1116M2427 1007L2456 1088M2543 968L2621 1053M-17 968L61 1053M61 1053L120 1072M61 1053L17 1140M120 1072L197 1077M197 1077L264 1067M197 1077L227 1177M264 1067L227 1177M397 1086L433 1096M397 1086L362 1153M397 1086L400 1186M433 1096L362 1153M433 1096L400 1186M433 1096L524 1125M528 1044L617 1060M528 1044L524 1125M617 1060L703 1060M617 1060L570 1150M703 1060L758 1067M703 1060L751 1122M758 1067L751 1122M860 1095L917 1098M860 1095L751 1122M860 1095L877 1171M860 1095L925 1138M917 1098L987 1042M917 1098L877 1171M917 1098L925 1138M917 1098L908 1213M987 1042L1085 1051M1085 1051L1122 1076M1122 1076L1206 1098M1122 1076L1105 1170M1122 1076L1155 1162M1206 1098L1155 1162M1206 1098L1230 1173M1345 1117L1394 1054M1345 1117L1445 1096M1345 1117L1285 1194M1345 1117L1419 1147M1394 1054L1445 1096M1445 1096L1544 1114M1445 1096L1419 1147M1445 1096L1470 1133M1544 1114L1640 1043M1544 1114L1470 1133M1544 1114L1529 1165M1544 1114L1607 1149M1640 1043L1706 1106M1640 1043L1607 1149M1706 1106L1807 1094M1706 1106L1697 1158M1706 1106L1800 1138M1706 1106L1752 1204M1807 1094L1896 1101M1807 1094L1800 1138M1896 1101L1966 1053M1896 1101L1800 1138M1896 1101L1898 1156M1896 1101L1931 1185M1966 1053L2048 1041M1966 1053L2083 1065M2048 1041L2083 1065M2083 1065L2177 1099M2177 1099L2274 1060M2177 1099L2132 1165M2177 1099L2226 1158M2177 1099L2265 1145M2274 1060L2265 1145M2399 1116L2456 1088M2399 1116L2484 1108M2399 1116L2377 1138M2399 1116L2414 1127M2456 1088L2484 1108M2456 1088L2377 1138M2456 1088L2414 1127M2484 1108L2577 1140M2484 1108L2414 1127M2484 1108L2488 1195M-76 1108L17 1140M17 1140L99 1192M17 1140L-72 1195M17 1140L-41 1207M2577 1140L2488 1195M2577 1140L2519 1207M99 1192L40 1246M99 1192L126 1249M99 1192L112 1285M227 1177L298 1175M227 1177L173 1234M227 1177L246 1221M298 1175L362 1153M298 1175L246 1221M298 1175L340 1262M362 1153L400 1186M400 1186L340 1262M400 1186L472 1220M524 1125L570 1150M524 1125L472 1220M570 1150L649 1183M570 1150L472 1220M570 1150L541 1252M649 1183L751 1122M649 1183L585 1267M649 1183L685 1274M649 1183L744 1208M751 1122L744 1208M877 1171L925 1138M877 1171L908 1213M877 1171L971 1201M925 1138L908 1213M925 1138L971 1201M1035 1174L1105 1170M1035 1174L971 1201M1105 1170L1155 1162M1105 1170L1072 1275M1155 1162L1230 1173M1155 1162L1199 1230M1230 1173L1285 1194M1230 1173L1199 1230M1285 1194L1199 1230M1285 1194L1265 1252M1285 1194L1352 1231M1419 1147L1470 1133M1419 1147L1410 1219M1419 1147L1468 1221M1470 1133L1529 1165M1470 1133L1468 1221M1529 1165L1607 1149M1529 1165L1468 1221M1529 1165L1568 1255M1607 1149L1697 1158M1697 1158L1652 1246M1697 1158L1752 1204M1800 1138L1898 1156M1800 1138L1752 1204M1898 1156L1931 1185M1898 1156L1922 1234M1931 1185L1918 1255M1931 1185L1922 1234M2077 1175L2132 1165M2077 1175L2103 1236M2077 1175L2164 1218M2132 1165L2226 1158M2132 1165L2103 1236M2132 1165L2164 1218M2226 1158L2265 1145M2226 1158L2164 1218M2226 1158L2265 1225M2265 1145L2377 1138M2265 1145L2265 1225M2377 1138L2414 1127M2488 1195L2466 1249M2488 1195L2519 1207M40 1246L126 1249M40 1246L-41 1207M40 1246L112 1285M40 1246L-8 1285M2600 1246L2519 1207M2600 1246L2552 1285M126 1249L173 1234M126 1249L112 1285M173 1234L246 1221M173 1234L112 1285M173 1234L203 1298M246 1221L340 1262M246 1221L203 1298M340 1262L296 1314M340 1262L350 1292M472 1220L541 1252M472 1220L453 1312M541 1252L585 1267M541 1252L625 1320M585 1267L625 1320M685 1274L744 1208M685 1274L625 1320M685 1274L695 1306M685 1274L751 1310M744 1208L807 1254M744 1208L751 1310M807 1254L908 1213M807 1254L751 1310M908 1213L971 1201M1072 1275L978 1314M1072 1275L1089 1345M1072 1275L1157 1308M1072 1275L1122 1368M1199 1230L1265 1252M1199 1230L1157 1308M1265 1252L1352 1231M1265 1252L1207 1325M1265 1252L1344 1298M1352 1231L1410 1219M1352 1231L1344 1298M1410 1219L1468 1221M1410 1219L1344 1298M1410 1219L1402 1326M1468 1221L1552 1281M1568 1255L1652 1246M1568 1255L1501 1339M1568 1255L1552 1281M1652 1246L1552 1281M1652 1246L1671 1345M1652 1246L1690 1313M1752 1204L1764 1255M1764 1255L1690 1313M1764 1255L1820 1335M1918 1255L1922 1234M1918 1255L2015 1253M1918 1255L1916 1353M1918 1255L1955 1288M1922 1234L1955 1288M2015 1253L2103 1236M2015 1253L1955 1288M2015 1253L2014 1291M2015 1253L2082 1323M2103 1236L2164 1218M2103 1236L2082 1323M2164 1218L2265 1225M2265 1225L2362 1254M2362 1254L2466 1249M2362 1254L2298 1336M2362 1254L2368 1356M2362 1254L2409 1319M2466 1249L2519 1207M2466 1249L2409 1319M2466 1249L2552 1285M2519 1207L2552 1285M28 1353L-8 1285M28 1353L5 1397M28 1353L-83 1361M28 1353L-8 1412M2588 1353L2552 1285M2588 1353L2477 1361M2588 1353L2552 1412M112 1285L203 1298M203 1298L296 1314M203 1298L199 1394M296 1314L350 1292M296 1314L199 1394M296 1314L269 1416M350 1292L453 1312M453 1312L497 1359M453 1312L507 1379M497 1359L428 1422M497 1359L507 1379M625 1320L695 1306M625 1320L666 1382M695 1306L751 1310M695 1306L666 1382M751 1310L844 1353M844 1353L885 1353M844 1353L771 1423M844 1353L836 1404M844 1353L885 1404M885 1353L978 1314M885 1353L836 1404M885 1353L885 1404M1089 1345L1157 1308M1089 1345L1207 1325M1089 1345L1089 1394M1089 1345L1122 1368M1157 1308L1207 1325M1157 1308L1122 1368M1207 1325L1122 1368M1207 1325L1237 1426M1344 1298L1402 1326M1344 1298L1339 1381M1402 1326L1501 1339M1402 1326L1339 1381M1402 1326L1415 1427M1501 1339L1552 1281M1501 1339L1479 1429M1501 1339L1563 1430M1552 1281L1671 1345M1671 1345L1690 1313M1671 1345L1658 1402M1671 1345L1737 1391M1690 1313L1658 1402M1690 1313L1737 1391M1820 1335L1916 1353M1820 1335L1737 1391M1820 1335L1849 1399M1916 1353L1955 1288M1916 1353L1849 1399M1916 1353L1978 1369M1955 1288L2014 1291M2014 1291L2082 1323M2014 1291L1978 1369M2014 1291L2064 1378M2082 1323L2064 1378M2082 1323L2086 1428M2222 1332L2298 1336M2222 1332L2212 1439M2298 1336L2368 1356M2298 1336L2304 1434M2298 1336L2356 1396M2368 1356L2409 1319M2368 1356L2356 1396M2409 1319L2356 1396M2409 1319L2477 1361M5 1397L-83 1361M5 1397L-8 1412M2565 1397L2477 1361M2565 1397L2552 1412M153 1429L199 1394M199 1394L269 1416M395 1429L428 1422M428 1422L507 1379M507 1379L578 1434M578 1434L666 1382M666 1382L771 1423M771 1423L836 1404M836 1404L885 1404M1007 1435L1089 1394M1089 1394L1122 1368M1339 1381L1415 1427M1415 1427L1479 1429M1479 1429L1563 1430M1563 1430L1658 1402M1658 1402L1737 1391M1737 1391L1771 1436M1771 1436L1849 1399M1978 1369L2064 1378M2064 1378L2086 1428M2304 1434L2356 1396M2477 1361L2552 1412"/></svg>