<svg xmlns="http://www.w3.org/2000/svg" width="2560" height="1440" fill="#fff"><circle cx="70" cy="57" r="4"/><circle cx="145" cy="44" r="4"/><circle cx="170" cy="53" r="5"/><circle cx="253" cy="49" r="6"/><circle cx="366" cy="21" r="4"/><circle cx="408" cy="72" r="5"/><circle cx="493" cy="4" r="6"/><circle cx="493" cy="1444" r="6"/><circle cx="578" cy="19" r="5"/><circle cx="686" cy="10" r="6"/><circle cx="735" cy="44" r="4"/><circle cx="826" cy="30" r="5"/><circle cx="888" cy="53" r="5"/><circle cx="980" cy="70" r="5"/><circle cx="1118" cy="61" r="6"/><circle cx="1157" cy="11" r="5"/><circle cx="1258" cy="41" r="5"/><circle cx="1348" cy="70" r="4"/><circle cx="1429" cy="15" r="5"/><circle cx="1489" cy="21" r="5"/><circle cx="1575" cy="55" r="6"/><circle cx="1677" cy="5" r="4"/><circle cx="1715" cy="62" r="5"/><circle cx="1778" cy="57" r="5"/><circle cx="1854" cy="32" r="5"/><circle cx="1951" cy="34" r="5"/><circle cx="2068" cy="28" r="4"/><circle cx="2097" cy="23" r="5"/><circle cx="2237" cy="28" r="5"/><circle cx="2270" cy="67" r="5"/><circle cx="2388" cy="62" r="6"/><circle cx="2471" cy="11" r="4"/><circle cx="2487" cy="8" r="4"/><circle cx="6" cy="100" r="5"/><circle cx="105" cy="157" r="6"/><circle cx="185" cy="104" r="6"/><circle cx="308" cy="128" r="5"/><circle cx="356" cy="131" r="5"/><circle cx="421" cy="127" r="4"/><circle cx="501" cy="88" r="6"/><circle cx="564" cy="152" r="5"/><circle cx="701" cy="127" r="4"/><circle cx="737" cy="152" r="5"/><circle cx="818" cy="138" r="5"/><circle cx="892" cy="140" r="5"/><circle cx="1025" cy="146" r="4"/><circle cx="1046" cy="89" r="6"/><circle cx="1128" cy="96" r="5"/><circle cx="1259" cy="115" r="6"/><circle cx="1311" cy="150" r="5"/><circle cx="1429" cy="109" r="6"/><circle cx="1449" cy="122" r="5"/><circle cx="1570" cy="101" r="5"/><circle cx="1680" cy="87" r="6"/><circle cx="1736" cy="138" r="4"/><circle cx="1771" cy="154" r="5"/><circle cx="1853" cy="125" r="4"/><circle cx="1979" cy="106" r="4"/><circle cx="2055" cy="105" r="6"/><circle cx="2089" cy="112" r="5"/><circle cx="2164" cy="137" r="4"/><circle cx="2254" cy="154" r="4"/><circle cx="2392" cy="146" r="5"/><circle cx="2436" cy="109" r="5"/><circle cx="2523" cy="155" r="4"/><circle cx="77" cy="168" r="4"/><circle cx="108" cy="174" r="5"/><circle cx="200" cy="236" r="5"/><circle cx="265" cy="185" r="4"/><circle cx="369" cy="217" r="5"/><circle cx="477" cy="200" r="4"/><circle cx="555" cy="193" r="4"/><circle cx="562" cy="217" r="6"/><circle cx="665" cy="167" r="6"/><circle cx="761" cy="229" r="4"/><circle cx="834" cy="220" r="6"/><circle cx="957" cy="207" r="5"/><circle cx="968" cy="172" r="5"/><circle cx="1074" cy="191" r="5"/><circle cx="1169" cy="201" r="6"/><circle cx="1237" cy="191" r="5"/><circle cx="1296" cy="228" r="5"/><circle cx="1428" cy="200" r="6"/><circle cx="1457" cy="231" r="5"/><circle cx="1571" cy="196" r="5"/><circle cx="1636" cy="167" r="4"/><circle cx="1731" cy="198" r="5"/><circle cx="1788" cy="237" r="6"/><circle cx="1907" cy="220" r="5"/><circle cx="1993" cy="227" r="6"/><circle cx="2051" cy="231" r="5"/><circle cx="2159" cy="178" r="6"/><circle cx="2190" cy="173" r="6"/><circle cx="2241" cy="182" r="5"/><circle cx="2368" cy="170" r="5"/><circle cx="2436" cy="230" r="5"/><circle cx="2515" cy="203" r="6"/><circle cx="52" cy="250" r="6"/><circle cx="147" cy="246" r="6"/><circle cx="166" cy="316" r="6"/><circle cx="297" cy="297" r="4"/><circle cx="379" cy="308" r="4"/><circle cx="404" cy="267" r="5"/><circle cx="539" cy="312" r="5"/><circle cx="566" cy="270" r="5"/><circle cx="680" cy="244" r="4"/><circle cx="775" cy="270" r="5"/><circle cx="801" cy="265" r="4"/><circle cx="902" cy="295" r="4"/><circle cx="1010" cy="245" r="5"/><circle cx="1082" cy="275" r="6"/><circle cx="1176" cy="251" r="4"/><circle cx="1232" cy="308" r="5"/><circle cx="1304" cy="268" r="6"/><circle cx="1416" cy="313" r="5"/><circle cx="1500" cy="246" r="5"/><circle cx="1590" cy="270" r="6"/><circle cx="1626" cy="294" r="4"/><circle cx="1730" cy="268" r="4"/><circle cx="1798" cy="258" r="5"/><circle cx="1846" cy="291" r="5"/><circle cx="1949" cy="285" r="4"/><circle cx="2019" cy="260" r="5"/><circle cx="2106" cy="290" r="5"/><circle cx="2222" cy="274" r="6"/><circle cx="2255" cy="245" r="4"/><circle cx="2337" cy="298" r="6"/><circle cx="2447" cy="320" r="4"/><circle cx="2494" cy="265" r="5"/><circle cx="4" cy="367" r="4"/><circle cx="2564" cy="367" r="4"/><circle cx="115" cy="380" r="6"/><circle cx="168" cy="327" r="5"/><circle cx="267" cy="384" r="6"/><circle cx="398" cy="339" r="5"/><circle cx="473" cy="389" r="5"/><circle cx="534" cy="355" r="4"/><circle cx="593" cy="353" r="6"/><circle cx="692" cy="346" r="5"/><circle cx="771" cy="330" r="5"/><circle cx="820" cy="322" r="4"/><circle cx="951" cy="332" r="4"/><circle cx="1019" cy="359" r="5"/><circle cx="1086" cy="336" r="5"/><circle cx="1195" cy="381" r="5"/><circle cx="1258" cy="329" r="4"/><circle cx="1355" cy="387" r="5"/><circle cx="1369" cy="391" r="4"/><circle cx="1485" cy="334" r="5"/><circle cx="1538" cy="328" r="6"/><circle cx="1677" cy="398" r="6"/><circle cx="1754" cy="334" r="4"/><circle cx="1761" cy="358" r="6"/><circle cx="1896" cy="356" r="5"/><circle cx="1987" cy="374" r="4"/><circle cx="2080" cy="387" r="5"/><circle cx="2101" cy="365" r="5"/><circle cx="2175" cy="376" r="5"/><circle cx="2244" cy="384" r="5"/><circle cx="2394" cy="377" r="4"/><circle cx="2406" cy="327" r="5"/><circle cx="2493" cy="364" r="5"/><circle cx="36" cy="432" r="5"/><circle cx="95" cy="444" r="4"/><circle cx="234" cy="430" r="6"/><circle cx="244" cy="476" r="6"/><circle cx="345" cy="458" r="6"/><circle cx="474" cy="479" r="4"/><circle cx="509" cy="423" r="5"/><circle cx="580" cy="456" r="5"/><circle cx="663" cy="415" r="6"/><circle cx="779" cy="451" r="6"/><circle cx="802" cy="448" r="6"/><circle cx="957" cy="444" r="6"/><circle cx="1016" cy="449" r="5"/><circle cx="1042" cy="439" r="5"/><circle cx="1145" cy="454" r="6"/><circle cx="1241" cy="421" r="5"/><circle cx="1336" cy="414" r="4"/><circle cx="1422" cy="430" r="5"/><circle cx="1450" cy="430" r="5"/><circle cx="1599" cy="441" r="5"/><circle cx="1674" cy="472" r="4"/><circle cx="1728" cy="433" r="6"/><circle cx="1769" cy="423" r="5"/><circle cx="1903" cy="418" r="5"/><circle cx="1949" cy="440" r="4"/><circle cx="2000" cy="416" r="4"/><circle cx="2139" cy="445" r="5"/><circle cx="2212" cy="422" r="5"/><circle cx="2316" cy="431" r="6"/><circle cx="2320" cy="421" r="6"/><circle cx="2452" cy="450" r="5"/><circle cx="2551" cy="451" r="5"/><circle cx="49" cy="493" r="6"/><circle cx="128" cy="492" r="5"/><circle cx="216" cy="550" r="6"/><circle cx="284" cy="541" r="4"/><circle cx="395" cy="557" r="5"/><circle cx="463" cy="527" r="5"/><circle cx="539" cy="515" r="5"/><circle cx="617" cy="515" r="4"/><circle cx="685" cy="548" r="5"/><circle cx="771" cy="500" r="6"/><circle cx="847" cy="543" r="6"/><circle cx="929" cy="498" r="4"/><circle cx="968" cy="559" r="6"/><circle cx="1097" cy="492" r="5"/><circle cx="1163" cy="499" r="5"/><circle cx="1228" cy="558" r="5"/><circle cx="1349" cy="529" r="5"/><circle cx="1411" cy="519" r="4"/><circle cx="1474" cy="496" r="5"/><circle cx="1562" cy="542" r="6"/><circle cx="1677" cy="524" r="5"/><circle cx="1700" cy="553" r="5"/><circle cx="1768" cy="486" r="4"/><circle cx="1899" cy="489" r="5"/><circle cx="1961" cy="550" r="5"/><circle cx="2036" cy="523" r="5"/><circle cx="2138" cy="495" r="5"/><circle cx="2187" cy="517" r="4"/><circle cx="2309" cy="555" r="6"/><circle cx="2381" cy="516" r="5"/><circle cx="2439" cy="528" r="4"/><circle cx="2500" cy="517" r="4"/><circle cx="33" cy="606" r="5"/><circle cx="81" cy="619" r="5"/><circle cx="208" cy="616" r="6"/><circle cx="310" cy="634" r="6"/><circle cx="321" cy="629" r="5"/><circle cx="411" cy="640" r="4"/><circle cx="549" cy="596" r="5"/><circle cx="637" cy="628" r="4"/><circle cx="696" cy="563" r="5"/><circle cx="737" cy="639" r="5"/><circle cx="832" cy="620" r="5"/><circle cx="892" cy="622" r="5"/><circle cx="976" cy="590" r="4"/><circle cx="1096" cy="640" r="5"/><circle cx="1121" cy="575" r="4"/><circle cx="1265" cy="594" r="4"/><circle cx="1339" cy="594" r="5"/><circle cx="1413" cy="628" r="4"/><circle cx="1461" cy="579" r="6"/><circle cx="1562" cy="565" r="5"/><circle cx="1622" cy="566" r="5"/><circle cx="1682" cy="568" r="4"/><circle cx="1812" cy="572" r="6"/><circle cx="1911" cy="565" r="5"/><circle cx="1970" cy="637" r="6"/><circle cx="2008" cy="589" r="4"/><circle cx="2120" cy="569" r="4"/><circle cx="2180" cy="627" r="6"/><circle cx="2309" cy="629" r="5"/><circle cx="2368" cy="602" r="5"/><circle cx="2474" cy="636" r="4"/><circle cx="2534" cy="601" r="4"/><circle cx="19" cy="701" r="5"/><circle cx="114" cy="699" r="6"/><circle cx="170" cy="640" r="5"/><circle cx="250" cy="692" r="5"/><circle cx="358" cy="701" r="5"/><circle cx="459" cy="673" r="4"/><circle cx="511" cy="686" r="4"/><circle cx="633" cy="643" r="6"/><circle cx="667" cy="651" r="6"/><circle cx="775" cy="698" r="5"/><circle cx="870" cy="673" r="4"/><circle cx="954" cy="668" r="5"/><circle cx="1017" cy="696" r="5"/><circle cx="1041" cy="663" r="4"/><circle cx="1168" cy="682" r="5"/><circle cx="1276" cy="700" r="5"/><circle cx="1327" cy="683" r="5"/><circle cx="1418" cy="709" r="6"/><circle cx="1463" cy="704" r="5"/><circle cx="1598" cy="716" r="4"/><circle cx="1669" cy="697" r="5"/><circle cx="1682" cy="677" r="4"/><circle cx="1790" cy="641" r="5"/><circle cx="1886" cy="669" r="5"/><circle cx="1935" cy="717" r="6"/><circle cx="2078" cy="647" r="4"/><circle cx="2154" cy="682" r="6"/><circle cx="2210" cy="676" r="5"/><circle cx="2304" cy="653" r="4"/><circle cx="2345" cy="648" r="5"/><circle cx="2477" cy="657" r="5"/><circle cx="2504" cy="674" r="6"/><circle cx="18" cy="747" r="4"/><circle cx="158" cy="730" r="5"/><circle cx="220" cy="777" r="4"/><circle cx="248" cy="793" r="4"/><circle cx="383" cy="799" r="5"/><circle cx="458" cy="781" r="4"/><circle cx="511" cy="720" r="4"/><circle cx="604" cy="790" r="5"/><circle cx="702" cy="745" r="5"/><circle cx="760" cy="764" r="4"/><circle cx="853" cy="768" r="5"/><circle cx="958" cy="725" r="4"/><circle cx="1011" cy="769" r="4"/><circle cx="1089" cy="720" r="5"/><circle cx="1170" cy="779" r="4"/><circle cx="1243" cy="755" r="6"/><circle cx="1325" cy="766" r="5"/><circle cx="1389" cy="760" r="6"/><circle cx="1449" cy="778" r="6"/><circle cx="1564" cy="740" r="6"/><circle cx="1675" cy="796" r="6"/><circle cx="1716" cy="782" r="4"/><circle cx="1827" cy="752" r="6"/><circle cx="1844" cy="788" r="4"/><circle cx="1962" cy="741" r="5"/><circle cx="2053" cy="741" r="6"/><circle cx="2090" cy="744" r="6"/><circle cx="2232" cy="780" r="4"/><circle cx="2304" cy="770" r="6"/><circle cx="2377" cy="756" r="6"/><circle cx="2446" cy="799" r="6"/><circle cx="2534" cy="784" r="5"/><circle cx="48" cy="861" r="4"/><circle cx="135" cy="818" r="6"/><circle cx="191" cy="849" r="6"/><circle cx="284" cy="868" r="5"/><circle cx="362" cy="840" r="6"/><circle cx="404" cy="801" r="5"/><circle cx="483" cy="828" r="5"/><circle cx="600" cy="800" r="6"/><circle cx="679" cy="845" r="5"/><circle cx="723" cy="838" r="4"/><circle cx="879" cy="819" r="5"/><circle cx="950" cy="861" r="5"/><circle cx="995" cy="847" r="6"/><circle cx="1047" cy="823" r="6"/><circle cx="1149" cy="862" r="5"/><circle cx="1275" cy="851" r="4"/><circle cx="1282" cy="846" r="5"/><circle cx="1391" cy="869" r="4"/><circle cx="1453" cy="835" r="5"/><circle cx="1524" cy="879" r="5"/><circle cx="1609" cy="846" r="6"/><circle cx="1709" cy="861" r="6"/><circle cx="1775" cy="823" r="5"/><circle cx="1848" cy="812" r="5"/><circle cx="1949" cy="874" r="5"/><circle cx="2077" cy="866" r="4"/><circle cx="2139" cy="800" r="4"/><circle cx="2208" cy="816" r="6"/><circle cx="2275" cy="878" r="6"/><circle cx="2390" cy="875" r="4"/><circle cx="2402" cy="846" r="6"/><circle cx="2497" cy="845" r="5"/><circle cx="44" cy="945" r="5"/><circle cx="125" cy="884" r="5"/><circle cx="215" cy="887" r="5"/><circle cx="299" cy="915" r="5"/><circle cx="398" cy="901" r="5"/><circle cx="435" cy="887" r="4"/><circle cx="551" cy="916" r="6"/><circle cx="581" cy="914" r="6"/><circle cx="663" cy="891" r="5"/><circle cx="771" cy="932" r="5"/><circle cx="863" cy="907" r="4"/><circle cx="893" cy="881" r="5"/><circle cx="1011" cy="901" r="6"/><circle cx="1056" cy="918" r="5"/><circle cx="1184" cy="897" r="6"/><circle cx="1218" cy="903" r="4"/><circle cx="1345" cy="911" r="5"/><circle cx="1371" cy="896" r="5"/><circle cx="1481" cy="900" r="6"/><circle cx="1523" cy="922" r="5"/><circle cx="1608" cy="958" r="5"/><circle cx="1708" cy="885" r="5"/><circle cx="1770" cy="883" r="6"/><circle cx="1895" cy="905" r="4"/><circle cx="1959" cy="888" r="5"/><circle cx="2071" cy="926" r="5"/><circle cx="2099" cy="894" r="5"/><circle cx="2173" cy="883" r="5"/><circle cx="2303" cy="882" r="5"/><circle cx="2328" cy="924" r="5"/><circle cx="2446" cy="892" r="4"/><circle cx="2487" cy="925" r="5"/><circle cx="49" cy="1016" r="4"/><circle cx="99" cy="1011" r="5"/><circle cx="165" cy="1015" r="6"/><circle cx="291" cy="968" r="6"/><circle cx="344" cy="1010" r="4"/><circle cx="467" cy="1021" r="4"/><circle cx="534" cy="1017" r="5"/><circle cx="597" cy="1016" r="5"/><circle cx="679" cy="961" r="6"/><circle cx="765" cy="1014" r="5"/><circle cx="869" cy="1030" r="5"/><circle cx="903" cy="964" r="6"/><circle cx="1012" cy="1011" r="5"/><circle cx="1092" cy="978" r="6"/><circle cx="1122" cy="980" r="5"/><circle cx="1220" cy="996" r="5"/><circle cx="1359" cy="972" r="6"/><circle cx="1365" cy="987" r="5"/><circle cx="1489" cy="971" r="5"/><circle cx="1581" cy="967" r="4"/><circle cx="1664" cy="978" r="5"/><circle cx="1759" cy="989" r="6"/><circle cx="1775" cy="969" r="5"/><circle cx="1901" cy="978" r="4"/><circle cx="1966" cy="1001" r="5"/><circle cx="2050" cy="989" r="5"/><circle cx="2108" cy="995" r="5"/><circle cx="2187" cy="995" r="4"/><circle cx="2258" cy="967" r="6"/><circle cx="2333" cy="1029" r="4"/><circle cx="2404" cy="962" r="5"/><circle cx="2556" cy="985" r="5"/><circle cx="-4" cy="985" r="5"/><circle cx="51" cy="1104" r="5"/><circle cx="93" cy="1092" r="6"/><circle cx="193" cy="1075" r="6"/><circle cx="287" cy="1046" r="5"/><circle cx="364" cy="1081" r="4"/><circle cx="401" cy="1054" r="6"/><circle cx="538" cy="1073" r="4"/><circle cx="568" cy="1060" r="5"/><circle cx="648" cy="1056" r="5"/><circle cx="735" cy="1055" r="6"/><circle cx="827" cy="1104" r="5"/><circle cx="911" cy="1093" r="4"/><circle cx="991" cy="1048" r="5"/><circle cx="1106" cy="1080" r="5"/><circle cx="1197" cy="1076" r="5"/><circle cx="1233" cy="1109" r="5"/><circle cx="1281" cy="1072" r="5"/><circle cx="1405" cy="1064" r="5"/><circle cx="1500" cy="1065" r="5"/><circle cx="1541" cy="1089" r="5"/><circle cx="1666" cy="1089" r="5"/><circle cx="1687" cy="1119" r="5"/><circle cx="1761" cy="1117" r="5"/><circle cx="1896" cy="1042" r="4"/><circle cx="1995" cy="1087" r="4"/><circle cx="2079" cy="1063" r="6"/><circle cx="2123" cy="1075" r="5"/><circle cx="2204" cy="1053" r="5"/><circle cx="2283" cy="1048" r="5"/><circle cx="2378" cy="1108" r="5"/><circle cx="2469" cy="1114" r="4"/><circle cx="2526" cy="1044" r="6"/><circle cx="79" cy="1183" r="5"/><circle cx="83" cy="1137" r="4"/><circle cx="184" cy="1148" r="6"/><circle cx="316" cy="1180" r="4"/><circle cx="384" cy="1171" r="6"/><circle cx="435" cy="1194" r="5"/><circle cx="546" cy="1150" r="4"/><circle cx="568" cy="1190" r="6"/><circle cx="664" cy="1137" r="5"/><circle cx="758" cy="1166" r="4"/><circle cx="878" cy="1139" r="5"/><circle cx="924" cy="1166" r="5"/><circle cx="1027" cy="1158" r="5"/><circle cx="1066" cy="1177" r="5"/><circle cx="1165" cy="1200" r="6"/><circle cx="1241" cy="1190" r="4"/><circle cx="1343" cy="1180" r="4"/><circle cx="1421" cy="1120" r="5"/><circle cx="1501" cy="1154" r="5"/><circle cx="1536" cy="1167" r="5"/><circle cx="1610" cy="1198" r="6"/><circle cx="1736" cy="1161" r="6"/><circle cx="1780" cy="1176" r="4"/><circle cx="1846" cy="1189" r="5"/><circle cx="1953" cy="1181" r="5"/><circle cx="2068" cy="1142" r="4"/><circle cx="2142" cy="1154" r="5"/><circle cx="2211" cy="1129" r="4"/><circle cx="2314" cy="1188" r="5"/><circle cx="2330" cy="1157" r="4"/><circle cx="2402" cy="1184" r="4"/><circle cx="2515" cy="1141" r="6"/><circle cx="14" cy="1236" r="6"/><circle cx="99" cy="1234" r="5"/><circle cx="233" cy="1200" r="5"/><circle cx="247" cy="1212" r="4"/><circle cx="351" cy="1240" r="6"/><circle cx="448" cy="1221" r="5"/><circle cx="540" cy="1228" r="5"/><circle cx="571" cy="1242" r="6"/><circle cx="705" cy="1257" r="5"/><circle cx="757" cy="1235" r="6"/><circle cx="808" cy="1247" r="5"/><circle cx="886" cy="1240" r="5"/><circle cx="1021" cy="1241" r="5"/><circle cx="1106" cy="1232" r="5"/><circle cx="1186" cy="1213" r="5"/><circle cx="1215" cy="1229" r="6"/><circle cx="1333" cy="1220" r="4"/><circle cx="1361" cy="1262" r="6"/><circle cx="1469" cy="1244" r="5"/><circle cx="1556" cy="1245" r="5"/><circle cx="1607" cy="1226" r="5"/><circle cx="1727" cy="1233" r="5"/><circle cx="1829" cy="1273" r="4"/><circle cx="1865" cy="1204" r="5"/><circle cx="1969" cy="1206" r="5"/><circle cx="2028" cy="1260" r="5"/><circle cx="2093" cy="1240" r="5"/><circle cx="2229" cy="1202" r="5"/><circle cx="2315" cy="1260" r="5"/><circle cx="2324" cy="1263" r="5"/><circle cx="2425" cy="1220" r="5"/><circle cx="2508" cy="1239" r="5"/><circle cx="9" cy="1329" r="4"/><circle cx="145" cy="1349" r="5"/><circle cx="202" cy="1310" r="4"/><circle cx="310" cy="1349" r="6"/><circle cx="369" cy="1334" r="4"/><circle cx="472" cy="1359" r="6"/><circle cx="480" cy="1280" r="5"/><circle cx="599" cy="1343" r="5"/><circle cx="688" cy="1292" r="4"/><circle cx="770" cy="1333" r="5"/><circle cx="831" cy="1285" r="5"/><circle cx="894" cy="1339" r="4"/><circle cx="994" cy="1334" r="4"/><circle cx="1047" cy="1342" r="6"/><circle cx="1189" cy="1328" r="4"/><circle cx="1264" cy="1325" r="5"/><circle cx="1336" cy="1328" r="4"/><circle cx="1387" cy="1281" r="6"/><circle cx="1464" cy="1332" r="4"/><circle cx="1540" cy="1351" r="5"/><circle cx="1607" cy="1340" r="5"/><circle cx="1755" cy="1355" r="6"/><circle cx="1825" cy="1329" r="4"/><circle cx="1845" cy="1352" r="5"/><circle cx="1926" cy="1313" r="5"/><circle cx="2039" cy="1343" r="6"/><circle cx="2133" cy="1288" r="4"/><circle cx="2215" cy="1330" r="4"/><circle cx="2313" cy="1304" r="5"/><circle cx="2375" cy="1353" r="6"/><circle cx="2448" cy="1340" r="4"/><circle cx="2537" cy="1357" r="5"/><circle cx="35" cy="1431" r="5"/><circle cx="109" cy="1414" r="5"/><circle cx="220" cy="1431" r="5"/><circle cx="294" cy="1434" r="5"/><circle cx="397" cy="1378" r="4"/><circle cx="431" cy="1376" r="5"/><circle cx="533" cy="1397" r="5"/><circle cx="620" cy="1391" r="5"/><circle cx="689" cy="1432" r="4"/><circle cx="758" cy="1396" r="4"/><circle cx="857" cy="1407" r="4"/><circle cx="946" cy="1439" r="5"/><circle cx="946" cy="-1" r="5"/><circle cx="987" cy="1389" r="5"/><circle cx="1093" cy="1433" r="4"/><circle cx="1191" cy="1423" r="6"/><circle cx="1203" cy="1384" r="6"/><circle cx="1332" cy="1400" r="5"/><circle cx="1373" cy="1372" r="5"/><circle cx="1447" cy="1424" r="6"/><circle cx="1598" cy="1386" r="6"/><circle cx="1625" cy="1437" r="4"/><circle cx="1625" cy="-3" r="4"/><circle cx="1745" cy="1410" r="6"/><circle cx="1787" cy="1380" r="5"/><circle cx="1860" cy="1437" r="5"/><circle cx="1860" cy="-3" r="5"/><circle cx="1995" cy="1379" r="5"/><circle cx="2036" cy="1440" r="5"/><circle cx="2036" cy="-0" r="5"/><circle cx="2119" cy="1370" r="5"/><circle cx="2191" cy="1377" r="5"/><circle cx="2253" cy="1389" r="5"/><circle cx="2356" cy="1374" r="4"/><circle cx="2477" cy="1367" r="5"/><circle cx="2531" cy="1439" r="6"/><circle cx="2531" cy="-1" r="6"/><path stroke="#fff" d="M70 57L145 44M70 57L6 100M70 57L35 -9M70 57L109 -26M70 1497L35 1431M70 1497L109 1414M145 44L170 53M145 44L185 104M145 44L109 -26M145 44L220 -9M145 1484L109 1414M145 1484L220 1431M170 53L253 49M170 53L185 104M170 53L109 -26M170 53L220 -9M170 1493L109 1414M170 1493L220 1431M253 49L185 104M253 49L308 128M253 49L220 -9M253 49L294 -6M253 1489L220 1431M253 1489L294 1434M366 21L408 72M366 21L294 -6M366 21L397 -62M366 1461L294 1434M366 1461L397 1378M408 72L356 131M408 72L421 127M408 72L501 88M493 4L578 19M493 4L501 88M493 4L472 -81M493 4L431 -64M493 4L533 -43M493 1444L472 1359M493 1444L431 1376M493 1444L533 1397M578 19L686 10M578 19L501 88M578 19L533 -43M578 19L620 -49M578 1459L533 1397M578 1459L620 1391M686 10L735 44M686 10L620 -49M686 10L689 -8M686 10L758 -44M686 1450L620 1391M686 1450L689 1432M686 1450L758 1396M735 44L826 30M735 44L701 127M735 44L689 -8M735 44L758 -44M735 1484L689 1432M735 1484L758 1396M826 30L888 53M826 30L818 138M826 30L758 -44M826 30L857 -33M826 1470L758 1396M826 1470L857 1407M888 53L980 70M888 53L892 140M888 53L857 -33M888 53L946 -1M888 1493L857 1407M888 1493L946 1439M980 70L1025 146M980 70L1046 89M980 70L968 172M980 70L946 -1M980 1510L946 1439M1118 61L1157 11M1118 61L1046 89M1118 61L1128 96M1118 61L1093 -7M1118 61L1191 -17M1118 1501L1093 1433M1118 1501L1191 1423M1157 11L1128 96M1157 11L1093 -7M1157 11L1191 -17M1157 11L1203 -56M1157 1451L1093 1433M1157 1451L1191 1423M1157 1451L1203 1384M1258 41L1348 70M1258 41L1259 115M1258 41L1191 -17M1258 41L1203 -56M1258 41L1332 -40M1258 1481L1191 1423M1258 1481L1203 1384M1258 1481L1332 1400M1348 70L1429 15M1348 70L1259 115M1348 70L1311 150M1348 70L1429 109M1429 15L1489 21M1429 15L1429 109M1429 15L1373 -68M1429 15L1447 -16M1429 1455L1373 1372M1429 1455L1447 1424M1489 21L1575 55M1489 21L1429 109M1489 21L1449 122M1489 21L1447 -16M1489 1461L1447 1424M1575 55L1570 101M1575 55L1680 87M1575 55L1598 -54M1575 55L1625 -3M1575 1495L1598 1386M1575 1495L1625 1437M1677 5L1715 62M1677 5L1680 87M1677 5L1598 -54M1677 5L1625 -3M1677 5L1745 -30M1677 1445L1598 1386M1677 1445L1625 1437M1677 1445L1745 1410M1715 62L1778 57M1715 62L1680 87M1715 62L1736 138M1715 62L1745 -30M1715 1502L1745 1410M1778 57L1854 32M1778 57L1771 154M1778 57L1745 -30M1778 1497L1745 1410M1854 32L1951 34M1854 32L1853 125M1854 32L1860 -3M1854 1472L1860 1437M1951 34L1979 106M1951 34L1860 -3M1951 34L1995 -61M1951 34L2036 -0M1951 1474L1860 1437M1951 1474L1995 1379M1951 1474L2036 1440M2068 28L2097 23M2068 28L2055 105M2068 28L2089 112M2068 28L2036 -0M2068 1468L2036 1440M2097 23L2055 105M2097 23L2089 112M2097 23L2036 -0M2097 23L2119 -70M2097 1463L2036 1440M2097 1463L2119 1370M2237 28L2270 67M2237 28L2191 -63M2237 28L2253 -51M2237 1468L2191 1377M2237 1468L2253 1389M2270 67L2388 62M2270 67L2254 154M2388 62L2471 11M2388 62L2392 146M2388 62L2436 109M2388 62L2368 170M2471 11L2487 8M2471 11L2477 -73M2471 11L2531 -1M2471 1451L2477 1367M2471 1451L2531 1439M2487 8L2477 -73M2487 8L2531 -1M2487 1448L2477 1367M2487 1448L2531 1439M6 100L-37 155M6 100L77 168M6 100L-45 203M2566 100L2523 155M2566 100L2515 203M105 157L185 104M105 157L77 168M105 157L108 174M105 157L52 250M185 104L108 174M308 128L356 131M308 128L265 185M308 128L369 217M356 131L421 127M356 131L265 185M356 131L369 217M421 127L501 88M421 127L369 217M421 127L477 200M501 88L564 152M564 152L477 200M564 152L555 193M564 152L562 217M564 152L665 167M701 127L737 152M701 127L665 167M737 152L818 138M737 152L665 167M737 152L761 229M818 138L892 140M818 138L834 220M892 140L834 220M892 140L957 207M892 140L968 172M1025 146L1046 89M1025 146L957 207M1025 146L968 172M1025 146L1074 191M1046 89L1128 96M1046 89L1074 191M1259 115L1311 150M1259 115L1169 201M1259 115L1237 191M1311 150L1237 191M1311 150L1296 228M1311 150L1304 268M1429 109L1449 122M1429 109L1428 200M1449 122L1570 101M1449 122L1428 200M1449 122L1457 231M1570 101L1571 196M1570 101L1636 167M1680 87L1736 138M1680 87L1636 167M1736 138L1771 154M1736 138L1731 198M1771 154L1853 125M1771 154L1731 198M1771 154L1788 237M1853 125L1907 220M1979 106L2055 105M2055 105L2089 112M2089 112L2164 137M2089 112L2159 178M2164 137L2159 178M2164 137L2190 173M2254 154L2159 178M2254 154L2190 173M2254 154L2241 182M2254 154L2255 245M2392 146L2436 109M2392 146L2368 170M2392 146L2436 230M2436 109L2523 155M2436 109L2368 170M2523 155L2515 203M77 168L108 174M77 168L52 250M108 174L52 250M108 174L147 246M200 236L265 185M200 236L147 246M200 236L166 316M200 236L297 297M200 236L168 327M369 217L379 308M369 217L404 267M477 200L555 193M477 200L562 217M477 200L404 267M555 193L562 217M555 193L665 167M555 193L566 270M562 217L539 312M562 217L566 270M665 167L680 244M761 229L834 220M761 229L680 244M761 229L775 270M761 229L801 265M834 220L775 270M834 220L801 265M957 207L968 172M957 207L902 295M957 207L1010 245M968 172L1010 245M1074 191L1169 201M1074 191L1010 245M1074 191L1082 275M1169 201L1237 191M1169 201L1082 275M1169 201L1176 251M1237 191L1296 228M1237 191L1176 251M1296 228L1232 308M1296 228L1304 268M1428 200L1457 231M1428 200L1416 313M1428 200L1500 246M1457 231L1416 313M1457 231L1500 246M1457 231L1485 334M1571 196L1636 167M1571 196L1500 246M1571 196L1590 270M1571 196L1626 294M1636 167L1590 270M1731 198L1788 237M1731 198L1730 268M1731 198L1798 258M1788 237L1730 268M1788 237L1798 258M1788 237L1846 291M1907 220L1993 227M1907 220L1846 291M1907 220L1949 285M1993 227L2051 231M1993 227L1949 285M1993 227L2019 260M2051 231L2019 260M2051 231L2106 290M2159 178L2190 173M2159 178L2241 182M2190 173L2241 182M2190 173L2222 274M2241 182L2222 274M2241 182L2255 245M2368 170L2436 230M2436 230L2515 203M2436 230L2447 320M2436 230L2494 265M2515 203L2612 250M2515 203L2494 265M-45 203L52 250M52 250L147 246M147 246L166 316M147 246L168 327M166 316L115 380M166 316L168 327M166 316L267 384M297 297L379 308M297 297L404 267M297 297L267 384M297 297L398 339M379 308L404 267M379 308L398 339M404 267L398 339M539 312L566 270M539 312L473 389M539 312L534 355M539 312L593 353M566 270L534 355M566 270L593 353M680 244L692 346M775 270L801 265M775 270L771 330M775 270L820 322M801 265L771 330M801 265L820 322M902 295L820 322M902 295L951 332M1010 245L1082 275M1010 245L951 332M1082 275L1176 251M1082 275L1086 336M1176 251L1232 308M1232 308L1304 268M1232 308L1195 381M1232 308L1258 329M1304 268L1258 329M1416 313L1355 387M1416 313L1369 391M1416 313L1485 334M1500 246L1590 270M1500 246L1538 328M1590 270L1626 294M1590 270L1538 328M1626 294L1538 328M1730 268L1798 258M1730 268L1754 334M1730 268L1761 358M1798 258L1846 291M1798 258L1754 334M1846 291L1896 356M1949 285L2019 260M1949 285L1896 356M2019 260L2106 290M2106 290L2101 365M2222 274L2255 245M2222 274L2337 298M2255 245L2337 298M2337 298L2394 377M2337 298L2406 327M2447 320L2494 265M2447 320L2394 377M2447 320L2406 327M2447 320L2493 364M2494 265L2406 327M2494 265L2493 364M4 367L-67 364M4 367L36 432M4 367L-9 451M2564 367L2493 364M2564 367L2551 451M115 380L168 327M115 380L36 432M115 380L95 444M115 380L128 492M267 384L234 430M267 384L244 476M267 384L345 458M398 339L473 389M473 389L534 355M473 389L474 479M473 389L509 423M534 355L593 353M534 355L509 423M593 353L692 346M593 353L663 415M692 346L771 330M692 346L663 415M771 330L820 322M771 330L779 451M820 322L802 448M951 332L1019 359M1019 359L1086 336M1019 359L957 444M1019 359L1016 449M1019 359L1042 439M1086 336L1195 381M1195 381L1258 329M1195 381L1145 454M1195 381L1241 421M1258 329L1241 421M1355 387L1369 391M1355 387L1336 414M1355 387L1422 430M1355 387L1450 430M1369 391L1336 414M1369 391L1422 430M1369 391L1450 430M1485 334L1538 328M1485 334L1450 430M1677 398L1761 358M1677 398L1599 441M1677 398L1674 472M1677 398L1728 433M1677 398L1769 423M1754 334L1761 358M1754 334L1769 423M1761 358L1728 433M1761 358L1769 423M1896 356L1987 374M1896 356L1903 418M1896 356L1949 440M1987 374L2080 387M1987 374L1903 418M1987 374L1949 440M1987 374L2000 416M2080 387L2101 365M2080 387L2175 376M2080 387L2000 416M2080 387L2139 445M2101 365L2175 376M2101 365L2139 445M2175 376L2244 384M2175 376L2139 445M2175 376L2212 422M2244 384L2212 422M2244 384L2316 431M2244 384L2320 421M2394 377L2406 327M2394 377L2316 431M2394 377L2320 421M2406 327L2493 364M2493 364L2452 450M36 432L95 444M36 432L-9 451M36 432L49 493M2596 432L2551 451M95 444L49 493M95 444L128 492M234 430L244 476M234 430L345 458M234 430L128 492M244 476L345 458M244 476L216 550M244 476L284 541M345 458L284 541M345 458L395 557M474 479L509 423M474 479L580 456M474 479L463 527M474 479L539 515M509 423L580 456M580 456L663 415M580 456L539 515M580 456L617 515M663 415L779 451M663 415L617 515M779 451L802 448M779 451L771 500M802 448L771 500M802 448L847 543M957 444L1016 449M957 444L1042 439M957 444L929 498M957 444L968 559M1016 449L1042 439M1016 449L929 498M1016 449L1097 492M1042 439L1145 454M1042 439L1097 492M1145 454L1241 421M1145 454L1097 492M1145 454L1163 499M1241 421L1336 414M1241 421L1163 499M1336 414L1422 430M1422 430L1450 430M1422 430L1474 496M1450 430L1474 496M1599 441L1674 472M1599 441L1562 542M1674 472L1728 433M1674 472L1677 524M1674 472L1700 553M1728 433L1769 423M1728 433L1768 486M1769 423L1768 486M1903 418L1949 440M1903 418L2000 416M1903 418L1899 489M1949 440L2000 416M1949 440L1899 489M2139 445L2212 422M2139 445L2138 495M2212 422L2316 431M2212 422L2320 421M2316 431L2320 421M2316 431L2381 516M2452 450L2551 451M2452 450L2381 516M2452 450L2439 528M2452 450L2500 517M2551 451L2609 493M2551 451L2500 517M-9 451L49 493M49 493L128 492M49 493L33 606M128 492L216 550M216 550L284 541M216 550L208 616M216 550L170 640M284 541L310 634M395 557L463 527M395 557L411 640M463 527L539 515M463 527L411 640M463 527L549 596M539 515L617 515M539 515L549 596M617 515L685 548M685 548L771 500M685 548L637 628M685 548L696 563M771 500L847 543M771 500L696 563M847 543L929 498M847 543L832 620M847 543L892 622M929 498L968 559M929 498L976 590M968 559L892 622M968 559L976 590M1097 492L1163 499M1097 492L1121 575M1163 499L1228 558M1163 499L1121 575M1228 558L1349 529M1228 558L1121 575M1228 558L1265 594M1228 558L1339 594M1349 529L1411 519M1349 529L1265 594M1349 529L1339 594M1411 519L1474 496M1411 519L1461 579M1474 496L1562 542M1474 496L1461 579M1562 542L1461 579M1562 542L1562 565M1562 542L1622 566M1677 524L1700 553M1677 524L1768 486M1677 524L1622 566M1677 524L1682 568M1700 553L1768 486M1700 553L1622 566M1700 553L1682 568M1768 486L1812 572M1899 489L1961 550M1899 489L1812 572M1899 489L1911 565M1961 550L2036 523M1961 550L1911 565M1961 550L1970 637M1961 550L2008 589M2036 523L2138 495M2036 523L2008 589M2036 523L2120 569M2138 495L2187 517M2138 495L2120 569M2187 517L2120 569M2187 517L2180 627M2309 555L2381 516M2309 555L2309 629M2309 555L2368 602M2309 555L2304 653M2309 555L2345 648M2381 516L2439 528M2381 516L2368 602M2439 528L2500 517M2500 517L2534 601M33 606L81 619M33 606L-26 601M33 606L19 701M33 606L-56 674M2593 606L2534 601M2593 606L2504 674M81 619L114 699M81 619L170 640M208 616L310 634M208 616L321 629M208 616L170 640M208 616L250 692M310 634L321 629M310 634L250 692M310 634L358 701M321 629L411 640M321 629L250 692M321 629L358 701M411 640L358 701M411 640L459 673M549 596L637 628M549 596L511 686M549 596L633 643M637 628L696 563M637 628L633 643M637 628L667 651M696 563L737 639M696 563L667 651M737 639L832 620M737 639L633 643M737 639L667 651M737 639L775 698M832 620L892 622M832 620L775 698M832 620L870 673M892 622L870 673M892 622L954 668M976 590L954 668M976 590L1041 663M1096 640L1121 575M1096 640L1041 663M1096 640L1168 682M1096 640L1089 720M1265 594L1339 594M1265 594L1276 700M1339 594L1413 628M1339 594L1327 683M1413 628L1461 579M1413 628L1418 709M1413 628L1463 704M1461 579L1562 565M1562 565L1622 566M1622 566L1682 568M1682 568L1682 677M1812 572L1911 565M1812 572L1790 641M1911 565L1970 637M1911 565L2008 589M1970 637L2008 589M1970 637L1886 669M1970 637L1935 717M2120 569L2180 627M2120 569L2078 647M2180 627L2078 647M2180 627L2154 682M2180 627L2210 676M2309 629L2368 602M2309 629L2210 676M2309 629L2304 653M2309 629L2345 648M2368 602L2304 653M2368 602L2345 648M2474 636L2534 601M2474 636L2477 657M2474 636L2504 674M2534 601L2477 657M2534 601L2504 674M19 701L114 699M19 701L-56 674M19 701L18 747M19 701L-26 784M2579 701L2504 674M2579 701L2534 784M114 699L170 640M114 699L158 730M170 640L158 730M250 692L158 730M250 692L220 777M459 673L511 686M459 673L511 720M511 686L511 720M633 643L667 651M667 651L702 745M775 698L702 745M775 698L760 764M775 698L853 768M870 673L954 668M870 673L853 768M870 673L958 725M954 668L1017 696M954 668L958 725M1017 696L1041 663M1017 696L958 725M1017 696L1011 769M1017 696L1089 720M1041 663L958 725M1041 663L1089 720M1168 682L1276 700M1168 682L1089 720M1168 682L1170 779M1168 682L1243 755M1276 700L1327 683M1276 700L1243 755M1276 700L1325 766M1327 683L1418 709M1327 683L1325 766M1327 683L1389 760M1418 709L1463 704M1418 709L1389 760M1418 709L1449 778M1463 704L1389 760M1463 704L1449 778M1463 704L1564 740M1598 716L1669 697M1598 716L1682 677M1598 716L1564 740M1669 697L1682 677M1669 697L1564 740M1669 697L1675 796M1669 697L1716 782M1682 677L1790 641M1790 641L1886 669M1886 669L1935 717M1886 669L1827 752M1886 669L1962 741M1935 717L1827 752M1935 717L1962 741M1935 717L2053 741M2078 647L2154 682M2078 647L2053 741M2078 647L2090 744M2154 682L2210 676M2154 682L2053 741M2154 682L2090 744M2210 676L2304 653M2210 676L2232 780M2304 653L2345 648M2345 648L2377 756M2477 657L2504 674M18 747L-26 784M2578 747L2534 784M158 730L220 777M158 730L135 818M220 777L248 793M220 777L135 818M220 777L191 849M248 793L191 849M248 793L284 868M383 799L458 781M383 799L362 840M383 799L404 801M383 799L483 828M383 799L398 901M458 781L511 720M458 781L404 801M458 781L483 828M604 790L600 800M604 790L679 845M702 745L760 764M702 745L679 845M702 745L723 838M760 764L853 768M760 764L723 838M853 768L879 819M958 725L1011 769M1011 769L1089 720M1011 769L995 847M1011 769L1047 823M1170 779L1243 755M1170 779L1149 862M1243 755L1325 766M1243 755L1282 846M1325 766L1389 760M1325 766L1282 846M1389 760L1449 778M1449 778L1564 740M1449 778L1453 835M1564 740L1609 846M1675 796L1716 782M1675 796L1609 846M1675 796L1709 861M1675 796L1708 885M1716 782L1709 861M1716 782L1775 823M1827 752L1844 788M1827 752L1848 812M1844 788L1775 823M1844 788L1848 812M1962 741L2053 741M1962 741L2090 744M1962 741L1949 874M2053 741L2090 744M2090 744L2139 800M2232 780L2304 770M2232 780L2208 816M2304 770L2377 756M2304 770L2208 816M2377 756L2446 799M2377 756L2402 846M2446 799L2534 784M2446 799L2402 846M2446 799L2497 845M2534 784L2608 861M2534 784L2497 845M-26 784L48 861M48 861L135 818M48 861L44 945M48 861L125 884M135 818L191 849M135 818L125 884M191 849L125 884M191 849L215 887M284 868L362 840M284 868L215 887M284 868L299 915M284 868L291 968M362 840L404 801M362 840L398 901M362 840L435 887M404 801L483 828M404 801L398 901M483 828L435 887M483 828L551 916M600 800L679 845M600 800L581 914M600 800L663 891M679 845L723 838M679 845L663 891M723 838L663 891M723 838L771 932M879 819L950 861M879 819L863 907M879 819L893 881M950 861L995 847M950 861L1047 823M950 861L893 881M950 861L1011 901M995 847L1047 823M995 847L1011 901M995 847L1056 918M1047 823L1011 901M1047 823L1056 918M1149 862L1184 897M1149 862L1218 903M1275 851L1282 846M1275 851L1184 897M1275 851L1218 903M1282 846L1218 903M1282 846L1345 911M1391 869L1453 835M1391 869L1345 911M1391 869L1371 896M1391 869L1481 900M1391 869L1359 972M1453 835L1524 879M1453 835L1481 900M1524 879L1609 846M1524 879L1481 900M1524 879L1523 922M1524 879L1489 971M1609 846L1708 885M1709 861L1775 823M1709 861L1708 885M1709 861L1770 883M1775 823L1848 812M1775 823L1770 883M1848 812L1895 905M1949 874L1895 905M1949 874L1959 888M1949 874L1901 978M2077 866L2139 800M2077 866L2071 926M2077 866L2099 894M2077 866L2173 883M2139 800L2208 816M2139 800L2173 883M2208 816L2275 878M2208 816L2173 883M2275 878L2173 883M2275 878L2303 882M2275 878L2328 924M2275 878L2258 967M2390 875L2402 846M2390 875L2303 882M2390 875L2328 924M2390 875L2446 892M2390 875L2404 962M2402 846L2497 845M2402 846L2446 892M2497 845L2446 892M2497 845L2487 925M44 945L125 884M44 945L49 1016M44 945L99 1011M44 945L-4 985M2604 945L2556 985M125 884L215 887M215 887L299 915M215 887L291 968M299 915L398 901M299 915L291 968M299 915L344 1010M398 901L435 887M551 916L581 914M551 916L534 1017M581 914L663 891M663 891L679 961M771 932L863 907M771 932L679 961M771 932L765 1014M863 907L893 881M863 907L903 964M893 881L903 964M1011 901L1056 918M1011 901L1092 978M1056 918L1092 978M1056 918L1122 980M1184 897L1218 903M1184 897L1122 980M1184 897L1220 996M1218 903L1220 996M1345 911L1371 896M1345 911L1359 972M1345 911L1365 987M1371 896L1359 972M1371 896L1365 987M1481 900L1523 922M1481 900L1489 971M1523 922L1608 958M1523 922L1489 971M1523 922L1581 967M1608 958L1581 967M1608 958L1664 978M1708 885L1770 883M1708 885L1759 989M1770 883L1759 989M1770 883L1775 969M1895 905L1959 888M1895 905L1901 978M1959 888L1901 978M1959 888L1966 1001M2071 926L2099 894M2071 926L2050 989M2071 926L2108 995M2099 894L2173 883M2099 894L2050 989M2303 882L2328 924M2303 882L2258 967M2328 924L2258 967M2328 924L2404 962M2446 892L2487 925M2446 892L2404 962M2487 925L2404 962M2487 925L2556 985M49 1016L99 1011M49 1016L-4 985M49 1016L93 1092M49 1016L-34 1044M2609 1016L2556 985M2609 1016L2526 1044M99 1011L165 1015M99 1011L-4 985M99 1011L93 1092M2659 1011L2556 985M165 1015L193 1075M291 968L344 1010M291 968L287 1046M344 1010L287 1046M344 1010L364 1081M344 1010L401 1054M467 1021L534 1017M467 1021L401 1054M467 1021L538 1073M534 1017L597 1016M534 1017L538 1073M534 1017L568 1060M597 1016L679 961M597 1016L538 1073M597 1016L568 1060M597 1016L648 1056M679 961L765 1014M679 961L648 1056M765 1014L869 1030M765 1014L735 1055M869 1030L903 964M869 1030L827 1104M869 1030L911 1093M869 1030L878 1139M903 964L1012 1011M903 964L991 1048M1012 1011L1092 978M1012 1011L991 1048M1092 978L1122 980M1092 978L1106 1080M1122 980L1220 996M1122 980L1106 1080M1220 996L1197 1076M1220 996L1281 1072M1359 972L1365 987M1359 972L1405 1064M1365 987L1281 1072M1365 987L1405 1064M1489 971L1581 967M1489 971L1500 1065M1581 967L1664 978M1664 978L1759 989M1664 978L1775 969M1664 978L1666 1089M1759 989L1775 969M1901 978L1966 1001M1901 978L1896 1042M1966 1001L2050 989M1966 1001L1896 1042M1966 1001L1995 1087M2050 989L2108 995M2050 989L2079 1063M2108 995L2187 995M2108 995L2079 1063M2108 995L2123 1075M2187 995L2258 967M2187 995L2204 1053M2258 967L2283 1048M2333 1029L2404 962M2333 1029L2283 1048M2333 1029L2378 1108M2556 985L2526 1044M51 1104L93 1092M51 1104L-34 1044M51 1104L79 1183M51 1104L83 1137M51 1104L-45 1141M2611 1104L2526 1044M2611 1104L2515 1141M93 1092L79 1183M93 1092L83 1137M193 1075L287 1046M193 1075L184 1148M193 1075L233 1200M287 1046L364 1081M287 1046L401 1054M364 1081L401 1054M364 1081L384 1171M538 1073L568 1060M538 1073L546 1150M568 1060L648 1056M568 1060L546 1150M648 1056L735 1055M648 1056L664 1137M735 1055L827 1104M735 1055L664 1137M735 1055L758 1166M827 1104L911 1093M827 1104L758 1166M827 1104L878 1139M911 1093L991 1048M911 1093L878 1139M911 1093L924 1166M1106 1080L1197 1076M1106 1080L1027 1158M1106 1080L1066 1177M1197 1076L1233 1109M1197 1076L1281 1072M1233 1109L1281 1072M1233 1109L1241 1190M1281 1072L1405 1064M1405 1064L1500 1065M1405 1064L1421 1120M1500 1065L1541 1089M1500 1065L1421 1120M1500 1065L1501 1154M1541 1089L1501 1154M1541 1089L1536 1167M1666 1089L1687 1119M1666 1089L1761 1117M1666 1089L1736 1161M1687 1119L1761 1117M1687 1119L1610 1198M1687 1119L1736 1161M1687 1119L1727 1233M1761 1117L1736 1161M1761 1117L1780 1176M1761 1117L1846 1189M1896 1042L1995 1087M1995 1087L2079 1063M1995 1087L1953 1181M1995 1087L2068 1142M2079 1063L2123 1075M2079 1063L2068 1142M2123 1075L2204 1053M2123 1075L2068 1142M2123 1075L2142 1154M2204 1053L2283 1048M2204 1053L2211 1129M2283 1048L2211 1129M2378 1108L2469 1114M2378 1108L2330 1157M2378 1108L2402 1184M2469 1114L2526 1044M2469 1114L2402 1184M2469 1114L2515 1141M2469 1114L2425 1220M2526 1044L2515 1141M79 1183L83 1137M79 1183L14 1236M79 1183L99 1234M83 1137L184 1148M83 1137L99 1234M184 1148L99 1234M184 1148L233 1200M184 1148L247 1212M316 1180L384 1171M316 1180L233 1200M316 1180L247 1212M316 1180L351 1240M384 1171L435 1194M384 1171L351 1240M384 1171L448 1221M435 1194L351 1240M435 1194L448 1221M435 1194L480 1280M546 1150L568 1190M546 1150L540 1228M546 1150L571 1242M568 1190L664 1137M568 1190L540 1228M568 1190L571 1242M664 1137L758 1166M664 1137L705 1257M758 1166L757 1235M878 1139L924 1166M878 1139L886 1240M924 1166L1027 1158M924 1166L886 1240M1027 1158L1066 1177M1027 1158L1021 1241M1066 1177L1165 1200M1066 1177L1021 1241M1066 1177L1106 1232M1165 1200L1241 1190M1165 1200L1106 1232M1165 1200L1186 1213M1165 1200L1215 1229M1241 1190L1186 1213M1241 1190L1215 1229M1241 1190L1333 1220M1343 1180L1421 1120M1343 1180L1333 1220M1343 1180L1361 1262M1421 1120L1501 1154M1501 1154L1536 1167M1501 1154L1469 1244M1536 1167L1610 1198M1536 1167L1556 1245M1536 1167L1607 1226M1610 1198L1556 1245M1610 1198L1607 1226M1610 1198L1727 1233M1736 1161L1780 1176M1736 1161L1727 1233M1780 1176L1846 1189M1780 1176L1727 1233M1780 1176L1865 1204M1846 1189L1953 1181M1846 1189L1829 1273M1846 1189L1865 1204M1953 1181L1865 1204M1953 1181L1969 1206M1953 1181L2028 1260M2068 1142L2142 1154M2068 1142L2093 1240M2142 1154L2211 1129M2142 1154L2093 1240M2142 1154L2229 1202M2211 1129L2229 1202M2314 1188L2330 1157M2314 1188L2402 1184M2314 1188L2229 1202M2314 1188L2315 1260M2314 1188L2324 1263M2330 1157L2402 1184M2402 1184L2425 1220M2515 1141L2574 1236M2515 1141L2508 1239M-45 1141L14 1236M14 1236L99 1234M14 1236L-52 1239M14 1236L9 1329M2574 1236L2508 1239M233 1200L247 1212M247 1212L202 1310M351 1240L448 1221M351 1240L369 1334M448 1221L540 1228M448 1221L480 1280M540 1228L571 1242M540 1228L480 1280M571 1242L480 1280M571 1242L599 1343M705 1257L757 1235M705 1257L808 1247M705 1257L688 1292M705 1257L770 1333M757 1235L808 1247M757 1235L688 1292M757 1235L831 1285M808 1247L886 1240M808 1247L770 1333M808 1247L831 1285M886 1240L831 1285M886 1240L894 1339M1021 1241L1106 1232M1021 1241L994 1334M1021 1241L1047 1342M1106 1232L1186 1213M1106 1232L1215 1229M1186 1213L1215 1229M1186 1213L1189 1328M1215 1229L1264 1325M1333 1220L1361 1262M1333 1220L1387 1281M1361 1262L1469 1244M1361 1262L1336 1328M1361 1262L1387 1281M1469 1244L1556 1245M1469 1244L1387 1281M1469 1244L1464 1332M1556 1245L1607 1226M1556 1245L1540 1351M1607 1226L1607 1340M1727 1233L1755 1355M1829 1273L1865 1204M1829 1273L1825 1329M1829 1273L1845 1352M1865 1204L1969 1206M1969 1206L2028 1260M1969 1206L1926 1313M2028 1260L2093 1240M2028 1260L1926 1313M2028 1260L2039 1343M2093 1240L2133 1288M2229 1202L2315 1260M2315 1260L2324 1263M2315 1260L2313 1304M2324 1263L2425 1220M2324 1263L2313 1304M2324 1263L2375 1353M2425 1220L2508 1239M2508 1239L2569 1329M-52 1239L9 1329M9 1329L-23 1357M9 1329L35 1431M2569 1329L2537 1357M145 1349L202 1310M145 1349L109 1414M310 1349L369 1334M310 1349L220 1431M310 1349L294 1434M310 1349L397 1378M369 1334L397 1378M369 1334L431 1376M472 1359L480 1280M472 1359L397 1378M472 1359L431 1376M472 1359L533 1397M599 1343L688 1292M599 1343L533 1397M599 1343L620 1391M688 1292L770 1333M770 1333L831 1285M770 1333L758 1396M831 1285L894 1339M894 1339L857 1407M894 1339L946 1439M894 1339L987 1389M994 1334L1047 1342M994 1334L987 1389M1047 1342L987 1389M1047 1342L1093 1433M1189 1328L1264 1325M1189 1328L1203 1384M1264 1325L1336 1328M1264 1325L1203 1384M1264 1325L1332 1400M1336 1328L1387 1281M1336 1328L1332 1400M1336 1328L1373 1372M1387 1281L1373 1372M1464 1332L1540 1351M1464 1332L1447 1424M1540 1351L1607 1340M1540 1351L1447 1424M1540 1351L1598 1386M1607 1340L1598 1386M1607 1340L1625 1437M1755 1355L1825 1329M1755 1355L1845 1352M1755 1355L1745 1410M1755 1355L1787 1380M1825 1329L1845 1352M1825 1329L1926 1313M1825 1329L1787 1380M1845 1352L1787 1380M1845 1352L1860 1437M1926 1313L2039 1343M1926 1313L1995 1379M2039 1343L1995 1379M2039 1343L2036 1440M2039 1343L2119 1370M2133 1288L2215 1330M2133 1288L2119 1370M2133 1288L2191 1377M2215 1330L2119 1370M2215 1330L2191 1377M2215 1330L2253 1389M2313 1304L2375 1353M2313 1304L2253 1389M2313 1304L2356 1374M2375 1353L2448 1340M2375 1353L2356 1374M2448 1340L2537 1357M2448 1340L2356 1374M2448 1340L2477 1367M2537 1357L2595 1431M2537 1357L2477 1367M2537 1357L2531 1439M-23 1357L35 1431M35 1431L109 1414M35 1431L-29 1439M2595 1431L2531 1439M220 1431L294 1434M397 1378L431 1376M533 1397L620 1391M620 1391L689 1432M689 1432L758 1396M857 1407L946 1439M946 1439L987 1389M1093 1433L1191 1423M1191 1423L1203 1384M1332 1400L1373 1372M1373 1372L1447 1424M1598 1386L1625 1437M1745 1410L1787 1380M1787 1380L1860 1437M1995 1379L2036 1440M2119 1370L2191 1377M2191 1377L2253 1389M2253 1389L2356 1374M2477 1367L2531 1439"/></svg>