<svg xmlns="http://www.w3.org/2000/svg" width="2560" height="1440" fill="#fff"><circle cx="75" cy="75" r="4"/><circle cx="100" cy="41" r="6"/><circle cx="176" cy="73" r="5"/><circle cx="278" cy="48" r="4"/><circle cx="346" cy="24" r="6"/><circle cx="451" cy="24" r="5"/><circle cx="496" cy="26" r="6"/><circle cx="572" cy="71" r="4"/><circle cx="669" cy="61" r="5"/><circle cx="737" cy="31" r="4"/><circle cx="811" cy="21" r="4"/><circle cx="919" cy="35" r="4"/><circle cx="1040" cy="73" r="5"/><circle cx="1105" cy="74" r="5"/><circle cx="1171" cy="76" r="4"/><circle cx="1222" cy="41" r="5"/><circle cx="1349" cy="28" r="6"/><circle cx="1363" cy="3" r="6"/><circle cx="1363" cy="1443" r="6"/><circle cx="1512" cy="21" r="5"/><circle cx="1565" cy="57" r="6"/><circle cx="1680" cy="72" r="4"/><circle cx="1709" cy="76" r="6"/><circle cx="1837" cy="59" r="5"/><circle cx="1853" cy="37" r="4"/><circle cx="1951" cy="34" r="5"/><circle cx="2072" cy="79" r="5"/><circle cx="2099" cy="66" r="6"/><circle cx="2168" cy="28" r="4"/><circle cx="2308" cy="7" r="5"/><circle cx="2392" cy="37" r="5"/><circle cx="2457" cy="67" r="6"/><circle cx="2549" cy="51" r="5"/><circle cx="77" cy="80" r="5"/><circle cx="135" cy="148" r="6"/><circle cx="196" cy="122" r="5"/><circle cx="308" cy="93" r="4"/><circle cx="324" cy="151" r="5"/><circle cx="442" cy="106" r="5"/><circle cx="551" cy="80" r="5"/><circle cx="615" cy="150" r="6"/><circle cx="677" cy="102" r="5"/><circle cx="792" cy="134" r="5"/><circle cx="874" cy="152" r="4"/><circle cx="950" cy="100" r="5"/><circle cx="1005" cy="99" r="4"/><circle cx="1070" cy="88" r="4"/><circle cx="1147" cy="80" r="4"/><circle cx="1238" cy="124" r="4"/><circle cx="1284" cy="152" r="6"/><circle cx="1401" cy="104" r="6"/><circle cx="1488" cy="134" r="5"/><circle cx="1529" cy="112" r="5"/><circle cx="1626" cy="96" r="6"/><circle cx="1686" cy="137" r="6"/><circle cx="1760" cy="106" r="5"/><circle cx="1917" cy="81" r="6"/><circle cx="1982" cy="98" r="6"/><circle cx="2027" cy="106" r="5"/><circle cx="2095" cy="123" r="4"/><circle cx="2173" cy="86" r="6"/><circle cx="2276" cy="103" r="5"/><circle cx="2380" cy="115" r="6"/><circle cx="2411" cy="132" r="4"/><circle cx="2517" cy="140" r="5"/><circle cx="27" cy="185" r="5"/><circle cx="104" cy="186" r="5"/><circle cx="176" cy="229" r="4"/><circle cx="269" cy="182" r="4"/><circle cx="391" cy="163" r="4"/><circle cx="471" cy="194" r="5"/><circle cx="544" cy="185" r="5"/><circle cx="608" cy="197" r="5"/><circle cx="663" cy="215" r="5"/><circle cx="755" cy="185" r="6"/><circle cx="871" cy="179" r="6"/><circle cx="930" cy="199" r="4"/><circle cx="993" cy="164" r="5"/><circle cx="1062" cy="198" r="5"/><circle cx="1132" cy="181" r="5"/><circle cx="1226" cy="195" r="5"/><circle cx="1318" cy="197" r="5"/><circle cx="1374" cy="179" r="6"/><circle cx="1510" cy="237" r="6"/><circle cx="1554" cy="170" r="6"/><circle cx="1601" cy="205" r="5"/><circle cx="1683" cy="195" r="4"/><circle cx="1769" cy="171" r="4"/><circle cx="1895" cy="166" r="4"/><circle cx="1964" cy="201" r="5"/><circle cx="2035" cy="207" r="6"/><circle cx="2151" cy="222" r="6"/><circle cx="2201" cy="201" r="4"/><circle cx="2272" cy="205" r="5"/><circle cx="2348" cy="197" r="5"/><circle cx="2454" cy="170" r="4"/><circle cx="2519" cy="235" r="5"/><circle cx="35" cy="257" r="5"/><circle cx="160" cy="257" r="5"/><circle cx="173" cy="278" r="5"/><circle cx="313" cy="280" r="5"/><circle cx="346" cy="296" r="4"/><circle cx="458" cy="302" r="4"/><circle cx="540" cy="315" r="5"/><circle cx="607" cy="263" r="6"/><circle cx="705" cy="300" r="5"/><circle cx="722" cy="285" r="5"/><circle cx="802" cy="291" r="6"/><circle cx="889" cy="273" r="5"/><circle cx="1018" cy="320" r="6"/><circle cx="1046" cy="246" r="6"/><circle cx="1178" cy="304" r="5"/><circle cx="1251" cy="291" r="5"/><circle cx="1354" cy="275" r="4"/><circle cx="1405" cy="252" r="6"/><circle cx="1482" cy="244" r="6"/><circle cx="1545" cy="301" r="6"/><circle cx="1628" cy="247" r="4"/><circle cx="1756" cy="294" r="4"/><circle cx="1775" cy="273" r="5"/><circle cx="1847" cy="266" r="4"/><circle cx="1981" cy="308" r="5"/><circle cx="2043" cy="289" r="5"/><circle cx="2087" cy="289" r="5"/><circle cx="2177" cy="289" r="5"/><circle cx="2295" cy="302" r="6"/><circle cx="2323" cy="288" r="6"/><circle cx="2472" cy="296" r="5"/><circle cx="2516" cy="317" r="5"/><circle cx="46" cy="363" r="4"/><circle cx="119" cy="393" r="5"/><circle cx="200" cy="384" r="5"/><circle cx="294" cy="389" r="4"/><circle cx="348" cy="366" r="6"/><circle cx="454" cy="388" r="4"/><circle cx="549" cy="398" r="4"/><circle cx="611" cy="393" r="6"/><circle cx="654" cy="386" r="6"/><circle cx="772" cy="328" r="5"/><circle cx="861" cy="379" r="6"/><circle cx="936" cy="366" r="4"/><circle cx="1015" cy="349" r="5"/><circle cx="1081" cy="349" r="5"/><circle cx="1123" cy="352" r="4"/><circle cx="1252" cy="393" r="4"/><circle cx="1294" cy="363" r="5"/><circle cx="1407" cy="330" r="5"/><circle cx="1444" cy="370" r="6"/><circle cx="1560" cy="322" r="6"/><circle cx="1640" cy="356" r="6"/><circle cx="1747" cy="378" r="5"/><circle cx="1815" cy="325" r="5"/><circle cx="1890" cy="382" r="5"/><circle cx="1975" cy="363" r="6"/><circle cx="2073" cy="328" r="4"/><circle cx="2148" cy="347" r="5"/><circle cx="2175" cy="345" r="6"/><circle cx="2254" cy="366" r="6"/><circle cx="2339" cy="329" r="5"/><circle cx="2412" cy="334" r="4"/><circle cx="2532" cy="338" r="5"/><circle cx="51" cy="468" r="4"/><circle cx="82" cy="446" r="4"/><circle cx="214" cy="440" r="6"/><circle cx="241" cy="456" r="5"/><circle cx="384" cy="420" r="5"/><circle cx="474" cy="472" r="4"/><circle cx="511" cy="469" r="5"/><circle cx="627" cy="468" r="5"/><circle cx="661" cy="479" r="5"/><circle cx="741" cy="452" r="5"/><circle cx="834" cy="478" r="6"/><circle cx="891" cy="422" r="4"/><circle cx="1010" cy="401" r="5"/><circle cx="1054" cy="453" r="4"/><circle cx="1181" cy="433" r="5"/><circle cx="1228" cy="464" r="5"/><circle cx="1358" cy="414" r="5"/><circle cx="1429" cy="451" r="4"/><circle cx="1479" cy="455" r="5"/><circle cx="1531" cy="479" r="5"/><circle cx="1651" cy="477" r="5"/><circle cx="1716" cy="428" r="5"/><circle cx="1796" cy="410" r="5"/><circle cx="1862" cy="426" r="5"/><circle cx="1992" cy="415" r="4"/><circle cx="2054" cy="473" r="4"/><circle cx="2125" cy="408" r="4"/><circle cx="2196" cy="440" r="6"/><circle cx="2248" cy="450" r="5"/><circle cx="2392" cy="423" r="5"/><circle cx="2440" cy="442" r="6"/><circle cx="2522" cy="464" r="5"/><circle cx="71" cy="517" r="4"/><circle cx="99" cy="517" r="5"/><circle cx="165" cy="522" r="5"/><circle cx="240" cy="506" r="6"/><circle cx="342" cy="538" r="4"/><circle cx="449" cy="554" r="5"/><circle cx="510" cy="501" r="6"/><circle cx="566" cy="508" r="6"/><circle cx="644" cy="522" r="4"/><circle cx="748" cy="524" r="4"/><circle cx="852" cy="485" r="4"/><circle cx="935" cy="485" r="4"/><circle cx="992" cy="504" r="4"/><circle cx="1100" cy="504" r="6"/><circle cx="1151" cy="559" r="5"/><circle cx="1256" cy="553" r="4"/><circle cx="1349" cy="499" r="6"/><circle cx="1417" cy="558" r="5"/><circle cx="1502" cy="527" r="4"/><circle cx="1544" cy="552" r="5"/><circle cx="1656" cy="481" r="5"/><circle cx="1728" cy="546" r="4"/><circle cx="1817" cy="510" r="4"/><circle cx="1872" cy="525" r="5"/><circle cx="1940" cy="560" r="5"/><circle cx="2074" cy="545" r="5"/><circle cx="2103" cy="514" r="6"/><circle cx="2220" cy="483" r="4"/><circle cx="2242" cy="549" r="6"/><circle cx="2348" cy="482" r="6"/><circle cx="2453" cy="540" r="5"/><circle cx="2485" cy="506" r="4"/><circle cx="17" cy="619" r="6"/><circle cx="134" cy="580" r="4"/><circle cx="187" cy="567" r="5"/><circle cx="292" cy="584" r="5"/><circle cx="382" cy="630" r="5"/><circle cx="403" cy="625" r="5"/><circle cx="498" cy="581" r="6"/><circle cx="616" cy="622" r="5"/><circle cx="641" cy="638" r="4"/><circle cx="735" cy="589" r="5"/><circle cx="802" cy="594" r="5"/><circle cx="940" cy="562" r="5"/><circle cx="978" cy="630" r="6"/><circle cx="1056" cy="563" r="6"/><circle cx="1190" cy="631" r="6"/><circle cx="1205" cy="575" r="4"/><circle cx="1336" cy="566" r="6"/><circle cx="1403" cy="608" r="6"/><circle cx="1462" cy="575" r="5"/><circle cx="1524" cy="590" r="6"/><circle cx="1611" cy="566" r="4"/><circle cx="1733" cy="629" r="5"/><circle cx="1803" cy="560" r="5"/><circle cx="1869" cy="589" r="6"/><circle cx="1988" cy="595" r="5"/><circle cx="2074" cy="585" r="5"/><circle cx="2117" cy="569" r="5"/><circle cx="2214" cy="605" r="4"/><circle cx="2276" cy="630" r="6"/><circle cx="2338" cy="600" r="5"/><circle cx="2459" cy="581" r="5"/><circle cx="2483" cy="616" r="5"/><circle cx="9" cy="682" r="4"/><circle cx="87" cy="680" r="4"/><circle cx="166" cy="679" r="5"/><circle cx="299" cy="647" r="5"/><circle cx="375" cy="668" r="4"/><circle cx="439" cy="669" r="4"/><circle cx="485" cy="708" r="4"/><circle cx="563" cy="644" r="5"/><circle cx="678" cy="709" r="4"/><circle cx="794" cy="670" r="5"/><circle cx="866" cy="675" r="6"/><circle cx="905" cy="714" r="6"/><circle cx="999" cy="717" r="4"/><circle cx="1085" cy="686" r="5"/><circle cx="1162" cy="645" r="4"/><circle cx="1267" cy="705" r="4"/><circle cx="1321" cy="662" r="4"/><circle cx="1389" cy="684" r="6"/><circle cx="1470" cy="672" r="5"/><circle cx="1538" cy="641" r="4"/><circle cx="1618" cy="659" r="4"/><circle cx="1713" cy="689" r="5"/><circle cx="1766" cy="681" r="5"/><circle cx="1895" cy="675" r="5"/><circle cx="1963" cy="707" r="5"/><circle cx="2004" cy="651" r="6"/><circle cx="2123" cy="653" r="5"/><circle cx="2215" cy="705" r="5"/><circle cx="2275" cy="655" r="5"/><circle cx="2373" cy="715" r="4"/><circle cx="2449" cy="656" r="4"/><circle cx="2537" cy="641" r="4"/><circle cx="37" cy="751" r="5"/><circle cx="100" cy="742" r="6"/><circle cx="228" cy="746" r="6"/><circle cx="290" cy="771" r="4"/><circle cx="354" cy="766" r="6"/><circle cx="464" cy="781" r="4"/><circle cx="549" cy="742" r="4"/><circle cx="635" cy="746" r="6"/><circle cx="712" cy="790" r="6"/><circle cx="745" cy="774" r="4"/><circle cx="828" cy="739" r="6"/><circle cx="912" cy="740" r="6"/><circle cx="964" cy="727" r="4"/><circle cx="1051" cy="727" r="5"/><circle cx="1153" cy="735" r="5"/><circle cx="1203" cy="799" r="4"/><circle cx="1349" cy="730" r="5"/><circle cx="1431" cy="752" r="5"/><circle cx="1487" cy="726" r="5"/><circle cx="1552" cy="779" r="5"/><circle cx="1655" cy="739" r="5"/><circle cx="1755" cy="795" r="4"/><circle cx="1813" cy="726" r="5"/><circle cx="1851" cy="781" r="5"/><circle cx="1957" cy="777" r="6"/><circle cx="2034" cy="759" r="4"/><circle cx="2082" cy="741" r="5"/><circle cx="2214" cy="787" r="5"/><circle cx="2305" cy="742" r="5"/><circle cx="2386" cy="748" r="4"/><circle cx="2440" cy="791" r="5"/><circle cx="2555" cy="759" r="6"/><circle cx="-5" cy="759" r="6"/><circle cx="36" cy="837" r="6"/><circle cx="139" cy="840" r="6"/><circle cx="175" cy="861" r="5"/><circle cx="307" cy="864" r="5"/><circle cx="364" cy="851" r="5"/><circle cx="410" cy="843" r="5"/><circle cx="532" cy="857" r="6"/><circle cx="577" cy="847" r="5"/><circle cx="657" cy="855" r="4"/><circle cx="775" cy="832" r="4"/><circle cx="840" cy="871" r="4"/><circle cx="917" cy="803" r="5"/><circle cx="1018" cy="867" r="5"/><circle cx="1042" cy="850" r="5"/><circle cx="1130" cy="865" r="4"/><circle cx="1232" cy="853" r="6"/><circle cx="1341" cy="862" r="4"/><circle cx="1409" cy="813" r="5"/><circle cx="1460" cy="835" r="6"/><circle cx="1524" cy="834" r="4"/><circle cx="1665" cy="820" r="5"/><circle cx="1715" cy="815" r="4"/><circle cx="1794" cy="808" r="5"/><circle cx="1914" cy="857" r="6"/><circle cx="1930" cy="864" r="4"/><circle cx="2039" cy="873" r="6"/><circle cx="2144" cy="817" r="5"/><circle cx="2180" cy="874" r="5"/><circle cx="2277" cy="833" r="6"/><circle cx="2365" cy="832" r="4"/><circle cx="2429" cy="803" r="5"/><circle cx="2522" cy="820" r="5"/><circle cx="41" cy="882" r="4"/><circle cx="98" cy="891" r="4"/><circle cx="230" cy="911" r="6"/><circle cx="259" cy="914" r="5"/><circle cx="352" cy="908" r="6"/><circle cx="428" cy="959" r="4"/><circle cx="512" cy="945" r="4"/><circle cx="598" cy="895" r="5"/><circle cx="685" cy="947" r="6"/><circle cx="786" cy="908" r="6"/><circle cx="807" cy="921" r="5"/><circle cx="946" cy="933" r="6"/><circle cx="978" cy="904" r="5"/><circle cx="1077" cy="933" r="6"/><circle cx="1130" cy="925" r="4"/><circle cx="1212" cy="941" r="4"/><circle cx="1351" cy="952" r="6"/><circle cx="1412" cy="885" r="5"/><circle cx="1508" cy="893" r="5"/><circle cx="1579" cy="889" r="5"/><circle cx="1646" cy="944" r="4"/><circle cx="1751" cy="917" r="5"/><circle cx="1782" cy="897" r="5"/><circle cx="1907" cy="889" r="6"/><circle cx="1954" cy="921" r="5"/><circle cx="2074" cy="940" r="4"/><circle cx="2129" cy="945" r="6"/><circle cx="2221" cy="933" r="6"/><circle cx="2305" cy="943" r="5"/><circle cx="2347" cy="923" r="4"/><circle cx="2426" cy="927" r="4"/><circle cx="2500" cy="939" r="5"/><circle cx="63" cy="989" r="5"/><circle cx="132" cy="1026" r="6"/><circle cx="217" cy="1019" r="5"/><circle cx="282" cy="1038" r="4"/><circle cx="355" cy="1029" r="4"/><circle cx="470" cy="1039" r="4"/><circle cx="518" cy="1015" r="6"/><circle cx="634" cy="1031" r="4"/><circle cx="683" cy="982" r="4"/><circle cx="750" cy="1031" r="5"/><circle cx="861" cy="991" r="5"/><circle cx="951" cy="1032" r="6"/><circle cx="1009" cy="1031" r="5"/><circle cx="1066" cy="966" r="5"/><circle cx="1176" cy="1029" r="6"/><circle cx="1221" cy="965" r="4"/><circle cx="1295" cy="1026" r="5"/><circle cx="1384" cy="1022" r="4"/><circle cx="1443" cy="1037" r="6"/><circle cx="1560" cy="1039" r="5"/><circle cx="1616" cy="1039" r="6"/><circle cx="1750" cy="996" r="4"/><circle cx="1799" cy="975" r="6"/><circle cx="1914" cy="1007" r="4"/><circle cx="1931" cy="974" r="6"/><circle cx="2004" cy="1015" r="4"/><circle cx="2104" cy="1029" r="6"/><circle cx="2219" cy="1026" r="5"/><circle cx="2290" cy="1001" r="6"/><circle cx="2358" cy="1000" r="5"/><circle cx="2464" cy="1033" r="6"/><circle cx="2530" cy="989" r="4"/><circle cx="78" cy="1092" r="4"/><circle cx="95" cy="1085" r="4"/><circle cx="181" cy="1041" r="5"/><circle cx="248" cy="1059" r="6"/><circle cx="384" cy="1084" r="6"/><circle cx="457" cy="1102" r="4"/><circle cx="500" cy="1048" r="4"/><circle cx="566" cy="1077" r="6"/><circle cx="665" cy="1051" r="6"/><circle cx="761" cy="1075" r="5"/><circle cx="868" cy="1047" r="4"/><circle cx="943" cy="1120" r="5"/><circle cx="1028" cy="1098" r="5"/><circle cx="1079" cy="1088" r="5"/><circle cx="1162" cy="1044" r="6"/><circle cx="1262" cy="1118" r="5"/><circle cx="1354" cy="1112" r="5"/><circle cx="1437" cy="1085" r="5"/><circle cx="1441" cy="1069" r="4"/><circle cx="1590" cy="1087" r="5"/><circle cx="1607" cy="1104" r="5"/><circle cx="1691" cy="1110" r="5"/><circle cx="1806" cy="1061" r="4"/><circle cx="1915" cy="1049" r="5"/><circle cx="1941" cy="1044" r="5"/><circle cx="2011" cy="1046" r="5"/><circle cx="2083" cy="1079" r="6"/><circle cx="2195" cy="1085" r="4"/><circle cx="2278" cy="1052" r="4"/><circle cx="2396" cy="1067" r="4"/><circle cx="2464" cy="1116" r="6"/><circle cx="2536" cy="1060" r="6"/><circle cx="9" cy="1158" r="6"/><circle cx="109" cy="1125" r="6"/><circle cx="230" cy="1125" r="6"/><circle cx="317" cy="1173" r="5"/><circle cx="342" cy="1195" r="4"/><circle cx="402" cy="1177" r="6"/><circle cx="509" cy="1139" r="5"/><circle cx="580" cy="1131" r="5"/><circle cx="704" cy="1143" r="6"/><circle cx="743" cy="1167" r="5"/><circle cx="821" cy="1138" r="5"/><circle cx="903" cy="1197" r="4"/><circle cx="977" cy="1187" r="4"/><circle cx="1050" cy="1144" r="6"/><circle cx="1155" cy="1154" r="5"/><circle cx="1238" cy="1180" r="5"/><circle cx="1303" cy="1158" r="5"/><circle cx="1431" cy="1198" r="5"/><circle cx="1479" cy="1187" r="6"/><circle cx="1584" cy="1170" r="6"/><circle cx="1645" cy="1139" r="5"/><circle cx="1729" cy="1132" r="5"/><circle cx="1762" cy="1192" r="5"/><circle cx="1860" cy="1166" r="5"/><circle cx="1924" cy="1164" r="4"/><circle cx="2018" cy="1191" r="6"/><circle cx="2155" cy="1138" r="4"/><circle cx="2184" cy="1157" r="4"/><circle cx="2252" cy="1136" r="5"/><circle cx="2367" cy="1148" r="6"/><circle cx="2463" cy="1181" r="5"/><circle cx="2559" cy="1168" r="4"/><circle cx="-1" cy="1168" r="4"/><circle cx="18" cy="1266" r="5"/><circle cx="110" cy="1223" r="4"/><circle cx="215" cy="1247" r="6"/><circle cx="248" cy="1202" r="5"/><circle cx="398" cy="1215" r="6"/><circle cx="410" cy="1235" r="4"/><circle cx="526" cy="1273" r="6"/><circle cx="631" cy="1217" r="5"/><circle cx="652" cy="1203" r="5"/><circle cx="730" cy="1203" r="6"/><circle cx="867" cy="1240" r="5"/><circle cx="905" cy="1238" r="4"/><circle cx="1030" cy="1247" r="5"/><circle cx="1104" cy="1255" r="5"/><circle cx="1171" cy="1235" r="5"/><circle cx="1268" cy="1236" r="6"/><circle cx="1346" cy="1261" r="6"/><circle cx="1433" cy="1206" r="5"/><circle cx="1451" cy="1224" r="5"/><circle cx="1596" cy="1230" r="6"/><circle cx="1642" cy="1254" r="6"/><circle cx="1753" cy="1226" r="6"/><circle cx="1766" cy="1225" r="5"/><circle cx="1906" cy="1221" r="5"/><circle cx="1933" cy="1265" r="4"/><circle cx="2038" cy="1279" r="4"/><circle cx="2149" cy="1269" r="5"/><circle cx="2229" cy="1202" r="4"/><circle cx="2301" cy="1272" r="6"/><circle cx="2352" cy="1227" r="6"/><circle cx="2427" cy="1259" r="5"/><circle cx="2497" cy="1263" r="6"/><circle cx="21" cy="1290" r="5"/><circle cx="109" cy="1348" r="5"/><circle cx="207" cy="1358" r="5"/><circle cx="284" cy="1283" r="4"/><circle cx="336" cy="1305" r="4"/><circle cx="439" cy="1298" r="5"/><circle cx="525" cy="1326" r="5"/><circle cx="585" cy="1318" r="4"/><circle cx="695" cy="1310" r="4"/><circle cx="766" cy="1307" r="5"/><circle cx="855" cy="1286" r="5"/><circle cx="949" cy="1349" r="6"/><circle cx="1024" cy="1318" r="5"/><circle cx="1069" cy="1309" r="4"/><circle cx="1199" cy="1290" r="4"/><circle cx="1250" cy="1310" r="5"/><circle cx="1298" cy="1354" r="4"/><circle cx="1382" cy="1341" r="4"/><circle cx="1490" cy="1349" r="4"/><circle cx="1541" cy="1290" r="5"/><circle cx="1657" cy="1327" r="5"/><circle cx="1690" cy="1283" r="5"/><circle cx="1789" cy="1311" r="6"/><circle cx="1894" cy="1320" r="4"/><circle cx="1979" cy="1345" r="5"/><circle cx="2037" cy="1327" r="4"/><circle cx="2125" cy="1345" r="4"/><circle cx="2160" cy="1305" r="5"/><circle cx="2281" cy="1328" r="6"/><circle cx="2361" cy="1340" r="5"/><circle cx="2420" cy="1329" r="6"/><circle cx="2483" cy="1294" r="4"/><circle cx="67" cy="1437" r="4"/><circle cx="67" cy="-3" r="4"/><circle cx="144" cy="1379" r="5"/><circle cx="206" cy="1398" r="4"/><circle cx="285" cy="1380" r="5"/><circle cx="366" cy="1434" r="5"/><circle cx="434" cy="1398" r="6"/><circle cx="507" cy="1431" r="6"/><circle cx="571" cy="1424" r="4"/><circle cx="716" cy="1392" r="6"/><circle cx="797" cy="1418" r="4"/><circle cx="844" cy="1379" r="5"/><circle cx="920" cy="1415" r="4"/><circle cx="1023" cy="1362" r="6"/><circle cx="1089" cy="1440" r="6"/><circle cx="1089" cy="-0" r="6"/><circle cx="1132" cy="1383" r="4"/><circle cx="1235" cy="1421" r="5"/><circle cx="1292" cy="1436" r="5"/><circle cx="1292" cy="-4" r="5"/><circle cx="1362" cy="1395" r="5"/><circle cx="1483" cy="1392" r="5"/><circle cx="1578" cy="1417" r="5"/><circle cx="1663" cy="1367" r="4"/><circle cx="1696" cy="1396" r="5"/><circle cx="1837" cy="1374" r="4"/><circle cx="1855" cy="1416" r="4"/><circle cx="1955" cy="1366" r="5"/><circle cx="2023" cy="1368" r="6"/><circle cx="2153" cy="1428" r="5"/><circle cx="2227" cy="1396" r="5"/><circle cx="2243" cy="1426" r="5"/><circle cx="2343" cy="1375" r="6"/><circle cx="2440" cy="1365" r="5"/><circle cx="2534" cy="1382" r="6"/><path stroke="#fff" d="M75 75L100 41M75 75L-11 51M75 75L77 80M75 75L67 -3M2635 75L2549 51M75 1515L67 1437M100 41L176 73M100 41L77 80M100 41L67 -3M100 1481L67 1437M176 73L278 48M176 73L135 148M176 73L196 122M278 48L346 24M278 48L308 93M278 48L366 -6M278 1488L366 1434M346 24L308 93M346 24L285 -60M346 24L366 -6M346 1464L285 1380M346 1464L366 1434M451 24L496 26M451 24L442 106M451 24L366 -6M451 24L434 -42M451 24L507 -9M451 1464L366 1434M451 1464L434 1398M451 1464L507 1431M496 26L551 80M496 26L434 -42M496 26L507 -9M496 26L571 -16M496 1466L434 1398M496 1466L507 1431M496 1466L571 1424M572 71L669 61M572 71L551 80M572 71L571 -16M572 1511L571 1424M669 61L737 31M669 61L677 102M669 61L716 -48M669 1501L716 1392M737 31L811 21M737 31L677 102M737 31L716 -48M737 31L797 -22M737 1471L716 1392M737 1471L797 1418M811 21L919 35M811 21L797 -22M811 21L844 -61M811 1461L797 1418M811 1461L844 1379M919 35L950 100M919 35L920 -25M919 1475L920 1415M1040 73L1105 74M1040 73L950 100M1040 73L1005 99M1040 73L1070 88M1040 73L1089 -0M1040 1513L1089 1440M1105 74L1171 76M1105 74L1070 88M1105 74L1147 80M1105 74L1089 -0M1105 1514L1089 1440M1171 76L1222 41M1171 76L1147 80M1171 76L1238 124M1222 41L1147 80M1222 41L1238 124M1222 41L1235 -19M1222 41L1292 -4M1222 1481L1235 1421M1222 1481L1292 1436M1349 28L1363 3M1349 28L1401 104M1349 28L1235 -19M1349 28L1292 -4M1349 28L1362 -45M1349 1468L1235 1421M1349 1468L1292 1436M1349 1468L1362 1395M1363 3L1401 104M1363 3L1382 -99M1363 3L1292 -4M1363 3L1362 -45M1363 1443L1382 1341M1363 1443L1292 1436M1363 1443L1362 1395M1512 21L1565 57M1512 21L1529 112M1512 21L1483 -48M1512 21L1578 -23M1512 1461L1483 1392M1512 1461L1578 1417M1565 57L1529 112M1565 57L1626 96M1565 57L1578 -23M1565 1497L1578 1417M1680 72L1709 76M1680 72L1626 96M1680 72L1686 137M1680 72L1760 106M1709 76L1626 96M1709 76L1686 137M1709 76L1760 106M1709 76L1696 -44M1709 1516L1696 1396M1837 59L1853 37M1837 59L1760 106M1837 59L1917 81M1837 59L1855 -24M1837 1499L1855 1416M1853 37L1951 34M1853 37L1917 81M1853 37L1837 -66M1853 37L1855 -24M1853 1477L1837 1374M1853 1477L1855 1416M1951 34L1917 81M1951 34L1982 98M1951 34L1955 -74M1951 1474L1955 1366M2072 79L2099 66M2072 79L1982 98M2072 79L2027 106M2072 79L2095 123M2072 79L2173 86M2099 66L2168 28M2099 66L2027 106M2099 66L2095 123M2099 66L2173 86M2168 28L2173 86M2168 28L2153 -12M2168 28L2227 -44M2168 28L2243 -14M2168 1468L2153 1428M2168 1468L2227 1396M2168 1468L2243 1426M2308 7L2392 37M2308 7L2276 103M2308 7L2227 -44M2308 7L2243 -14M2308 7L2343 -65M2308 1447L2227 1396M2308 1447L2243 1426M2308 1447L2343 1375M2392 37L2457 67M2392 37L2380 115M2392 37L2411 132M2457 67L2549 51M2457 67L2380 115M2457 67L2411 132M2457 67L2517 140M2549 51L2637 80M2549 51L2517 140M2549 51L2534 -58M-11 51L77 80M2549 1491L2534 1382M77 80L135 148M77 80L67 -3M77 1520L67 1437M135 148L196 122M135 148L104 186M135 148L176 229M196 122L176 229M196 122L269 182M308 93L324 151M308 93L269 182M308 93L391 163M324 151L269 182M324 151L391 163M324 151L313 280M442 106L391 163M442 106L471 194M551 80L615 150M551 80L507 -9M551 80L571 -16M551 1520L507 1431M551 1520L571 1424M615 150L677 102M615 150L544 185M615 150L608 197M615 150L663 215M792 134L874 152M792 134L755 185M792 134L871 179M874 152L950 100M874 152L871 179M874 152L930 199M950 100L1005 99M950 100L993 164M1005 99L1070 88M1005 99L993 164M1005 99L1062 198M1070 88L1147 80M1070 88L1089 -0M1070 1528L1089 1440M1238 124L1284 152M1238 124L1226 195M1284 152L1401 104M1284 152L1226 195M1284 152L1318 197M1284 152L1374 179M1401 104L1488 134M1401 104L1374 179M1488 134L1529 112M1488 134L1554 170M1529 112L1554 170M1626 96L1686 137M1686 137L1760 106M1686 137L1683 195M1760 106L1769 171M1917 81L1982 98M1917 81L1895 166M1982 98L2027 106M1982 98L1964 201M2027 106L2095 123M2027 106L2035 207M2095 123L2173 86M2095 123L2035 207M2173 86L2153 -12M2173 1526L2153 1428M2276 103L2272 205M2380 115L2411 132M2380 115L2348 197M2380 115L2454 170M2411 132L2348 197M2411 132L2454 170M2517 140L2587 185M2517 140L2454 170M2517 140L2519 235M-43 140L27 185M27 185L104 186M27 185L-41 235M27 185L35 257M2587 185L2519 235M104 186L176 229M104 186L35 257M104 186L160 257M176 229L160 257M176 229L173 278M269 182L313 280M391 163L471 194M471 194L544 185M471 194L458 302M544 185L608 197M544 185L607 263M608 197L663 215M608 197L607 263M663 215L755 185M663 215L607 263M663 215L722 285M755 185L871 179M755 185L722 285M871 179L930 199M871 179L889 273M930 199L993 164M930 199L889 273M993 164L1062 198M993 164L1046 246M1062 198L1132 181M1062 198L1046 246M1132 181L1226 195M1226 195L1318 197M1226 195L1251 291M1318 197L1374 179M1318 197L1354 275M1318 197L1405 252M1374 179L1354 275M1374 179L1405 252M1510 237L1554 170M1510 237L1601 205M1510 237L1482 244M1510 237L1545 301M1510 237L1560 322M1554 170L1601 205M1554 170L1482 244M1601 205L1683 195M1601 205L1628 247M1683 195L1769 171M1683 195L1628 247M1769 171L1775 273M1895 166L1964 201M1964 201L2035 207M1964 201L1981 308M2035 207L2043 289M2035 207L2087 289M2151 222L2201 201M2151 222L2087 289M2151 222L2177 289M2201 201L2272 205M2201 201L2177 289M2272 205L2348 197M2272 205L2295 302M2272 205L2323 288M2348 197L2295 302M2348 197L2323 288M2519 235L2595 257M2519 235L2472 296M2519 235L2516 317M-41 235L35 257M35 257L-44 317M35 257L-28 338M2595 257L2516 317M2595 257L2532 338M160 257L173 278M173 278L200 384M313 280L346 296M313 280L348 366M346 296L458 302M346 296L348 366M458 302L540 315M458 302L454 388M540 315L607 263M540 315L549 398M540 315L611 393M607 263L705 300M705 300L722 285M705 300L802 291M705 300L654 386M705 300L772 328M722 285L802 291M722 285L772 328M802 291L889 273M802 291L772 328M802 291L861 379M1018 320L1046 246M1018 320L936 366M1018 320L1015 349M1018 320L1081 349M1018 320L1010 401M1046 246L1015 349M1046 246L1081 349M1178 304L1251 291M1178 304L1123 352M1251 291L1354 275M1251 291L1252 393M1251 291L1294 363M1354 275L1405 252M1354 275L1407 330M1405 252L1482 244M1405 252L1407 330M1482 244L1545 301M1482 244L1560 322M1545 301L1628 247M1545 301L1560 322M1545 301L1640 356M1628 247L1560 322M1628 247L1640 356M1756 294L1775 273M1756 294L1847 266M1756 294L1747 378M1756 294L1815 325M1775 273L1847 266M1775 273L1815 325M1847 266L1815 325M1981 308L2043 289M1981 308L1975 363M1981 308L2073 328M2043 289L2087 289M2043 289L1975 363M2043 289L2073 328M2087 289L2073 328M2087 289L2148 347M2177 289L2148 347M2177 289L2175 345M2295 302L2323 288M2295 302L2254 366M2295 302L2339 329M2323 288L2254 366M2323 288L2339 329M2472 296L2516 317M2472 296L2412 334M2472 296L2532 338M2516 317L2606 363M2516 317L2532 338M-44 317L46 363M46 363L119 393M46 363L-28 338M46 363L82 446M2606 363L2532 338M119 393L200 384M119 393L51 468M119 393L82 446M119 393L214 440M200 384L294 389M200 384L214 440M200 384L241 456M294 389L348 366M294 389L241 456M294 389L384 420M348 366L454 388M348 366L384 420M454 388L384 420M454 388L474 472M549 398L611 393M549 398L654 386M549 398L511 469M611 393L654 386M611 393L627 468M654 386L627 468M654 386L661 479M772 328L861 379M861 379L936 366M861 379L834 478M861 379L891 422M936 366L1015 349M936 366L891 422M936 366L1010 401M1015 349L1081 349M1015 349L1010 401M1081 349L1123 352M1081 349L1010 401M1123 352L1181 433M1252 393L1294 363M1252 393L1181 433M1252 393L1228 464M1294 363L1407 330M1294 363L1358 414M1407 330L1444 370M1407 330L1358 414M1444 370L1358 414M1444 370L1429 451M1444 370L1479 455M1560 322L1640 356M1640 356L1747 378M1640 356L1716 428M1747 378L1815 325M1747 378L1716 428M1747 378L1796 410M1815 325L1796 410M1890 382L1975 363M1890 382L1796 410M1890 382L1862 426M1890 382L1992 415M1975 363L2073 328M1975 363L1992 415M2073 328L2148 347M2148 347L2175 345M2148 347L2125 408M2175 345L2254 366M2175 345L2125 408M2175 345L2196 440M2254 366L2196 440M2254 366L2248 450M2339 329L2412 334M2339 329L2392 423M2412 334L2392 423M2532 338L2522 464M51 468L82 446M51 468L-38 464M51 468L71 517M51 468L99 517M2611 468L2522 464M82 446L71 517M82 446L99 517M214 440L241 456M214 440L165 522M214 440L240 506M241 456L240 506M474 472L511 469M474 472L449 554M474 472L510 501M511 469L510 501M511 469L566 508M627 468L661 479M627 468L566 508M627 468L644 522M661 479L741 452M661 479L644 522M741 452L834 478M741 452L748 524M834 478L891 422M834 478L748 524M834 478L852 485M891 422L852 485M891 422L935 485M1010 401L1054 453M1054 453L992 504M1054 453L1100 504M1181 433L1228 464M1181 433L1100 504M1228 464L1256 553M1358 414L1429 451M1358 414L1349 499M1429 451L1479 455M1429 451L1531 479M1429 451L1349 499M1479 455L1531 479M1479 455L1502 527M1531 479L1502 527M1531 479L1544 552M1651 477L1716 428M1651 477L1656 481M1651 477L1728 546M1651 477L1611 566M1716 428L1796 410M1716 428L1656 481M1796 410L1862 426M1862 426L1817 510M1862 426L1872 525M1992 415L2054 473M2054 473L2125 408M2054 473L2074 545M2054 473L2103 514M2125 408L2196 440M2125 408L2103 514M2196 440L2248 450M2196 440L2220 483M2248 450L2220 483M2248 450L2242 549M2248 450L2348 482M2392 423L2440 442M2392 423L2348 482M2440 442L2522 464M2440 442L2348 482M2440 442L2453 540M2440 442L2485 506M2522 464L2453 540M2522 464L2485 506M71 517L99 517M71 517L134 580M99 517L165 522M99 517L134 580M165 522L240 506M165 522L134 580M165 522L187 567M240 506L187 567M240 506L292 584M342 538L292 584M449 554L510 501M449 554L403 625M449 554L498 581M510 501L566 508M510 501L498 581M566 508L644 522M566 508L498 581M644 522L616 622M644 522L735 589M748 524L735 589M748 524L802 594M852 485L935 485M852 485L802 594M935 485L992 504M935 485L940 562M992 504L1100 504M992 504L940 562M992 504L1056 563M1100 504L1151 559M1100 504L1056 563M1151 559L1056 563M1151 559L1190 631M1151 559L1205 575M1151 559L1162 645M1256 553L1190 631M1256 553L1205 575M1256 553L1336 566M1349 499L1417 558M1349 499L1336 566M1417 558L1336 566M1417 558L1403 608M1417 558L1462 575M1502 527L1544 552M1502 527L1462 575M1502 527L1524 590M1544 552L1462 575M1544 552L1524 590M1544 552L1611 566M1656 481L1728 546M1656 481L1611 566M1728 546L1817 510M1728 546L1733 629M1728 546L1803 560M1817 510L1872 525M1817 510L1803 560M1817 510L1869 589M1872 525L1940 560M1872 525L1803 560M1872 525L1869 589M1940 560L1869 589M1940 560L1988 595M1940 560L2004 651M2074 545L2103 514M2074 545L1988 595M2074 545L2074 585M2074 545L2117 569M2103 514L2074 585M2103 514L2117 569M2220 483L2242 549M2242 549L2214 605M2242 549L2276 630M2348 482L2338 600M2453 540L2485 506M2453 540L2459 581M2453 540L2483 616M2485 506L2459 581M17 619L-77 616M17 619L9 682M17 619L87 680M17 619L-23 641M2577 619L2483 616M2577 619L2537 641M134 580L187 567M134 580L166 679M187 567L292 584M187 567L166 679M292 584L382 630M292 584L299 647M382 630L403 625M382 630L299 647M382 630L375 668M382 630L439 669M403 625L498 581M403 625L375 668M403 625L439 669M498 581L563 644M616 622L641 638M616 622L563 644M616 622L678 709M641 638L735 589M641 638L563 644M641 638L678 709M641 638L635 746M735 589L802 594M735 589L794 670M802 594L794 670M802 594L866 675M940 562L978 630M940 562L1056 563M978 630L1056 563M978 630L999 717M1190 631L1205 575M1190 631L1162 645M1190 631L1153 735M1205 575L1162 645M1336 566L1403 608M1336 566L1321 662M1403 608L1462 575M1403 608L1389 684M1403 608L1470 672M1462 575L1524 590M1524 590L1611 566M1524 590L1538 641M1611 566L1618 659M1733 629L1803 560M1733 629L1713 689M1733 629L1766 681M1803 560L1869 589M1869 589L1895 675M1988 595L2074 585M1988 595L1963 707M1988 595L2004 651M2074 585L2117 569M2074 585L2123 653M2117 569L2123 653M2214 605L2276 630M2214 605L2123 653M2214 605L2275 655M2276 630L2338 600M2276 630L2215 705M2276 630L2275 655M2338 600L2275 655M2459 581L2483 616M2459 581L2449 656M2459 581L2537 641M2483 616L2449 656M2483 616L2537 641M9 682L87 680M9 682L-23 641M9 682L37 751M9 682L-5 759M2569 682L2537 641M2569 682L2555 759M87 680L166 679M87 680L37 751M87 680L100 742M166 679L100 742M166 679L228 746M299 647L375 668M375 668L439 669M375 668L354 766M439 669L485 708M485 708L563 644M485 708L464 781M485 708L549 742M563 644L549 742M678 709L635 746M678 709L712 790M678 709L745 774M794 670L866 675M794 670L828 739M866 675L905 714M866 675L828 739M866 675L912 740M905 714L828 739M905 714L912 740M905 714L964 727M905 714L917 803M999 717L1085 686M999 717L964 727M999 717L1051 727M1085 686L1162 645M1085 686L1051 727M1085 686L1153 735M1162 645L1153 735M1267 705L1321 662M1267 705L1203 799M1267 705L1349 730M1321 662L1389 684M1321 662L1349 730M1389 684L1470 672M1389 684L1349 730M1389 684L1431 752M1470 672L1538 641M1470 672L1487 726M1538 641L1618 659M1538 641L1487 726M1618 659L1713 689M1618 659L1655 739M1713 689L1766 681M1713 689L1655 739M1766 681L1813 726M1895 675L1963 707M1895 675L2004 651M1895 675L1813 726M1963 707L2004 651M1963 707L1957 777M1963 707L2034 759M2123 653L2215 705M2123 653L2082 741M2215 705L2275 655M2215 705L2214 787M2215 705L2305 742M2275 655L2305 742M2373 715L2449 656M2373 715L2305 742M2373 715L2386 748M2373 715L2440 791M2373 715L2429 803M2449 656L2537 641M37 751L100 742M37 751L-5 759M37 751L36 837M2597 751L2555 759M100 742L-5 759M100 742L139 840M2660 742L2555 759M228 746L290 771M228 746L175 861M290 771L354 766M354 766L307 864M354 766L364 851M354 766L410 843M464 781L549 742M464 781L410 843M464 781L532 857M549 742L635 746M549 742L577 847M635 746L712 790M635 746L577 847M712 790L745 774M712 790L657 855M712 790L775 832M745 774L828 739M745 774L775 832M828 739L912 740M912 740L964 727M912 740L917 803M964 727L1051 727M964 727L917 803M1051 727L1153 735M1051 727L1042 850M1153 735L1203 799M1203 799L1130 865M1203 799L1232 853M1349 730L1431 752M1349 730L1409 813M1431 752L1487 726M1431 752L1409 813M1431 752L1460 835M1487 726L1552 779M1552 779L1655 739M1552 779L1524 834M1552 779L1508 893M1655 739L1665 820M1655 739L1715 815M1755 795L1813 726M1755 795L1851 781M1755 795L1665 820M1755 795L1715 815M1755 795L1794 808M1813 726L1851 781M1813 726L1794 808M1851 781L1957 777M1851 781L1794 808M1851 781L1914 857M1957 777L2034 759M1957 777L1914 857M1957 777L1930 864M2034 759L2082 741M2082 741L2144 817M2214 787L2144 817M2214 787L2180 874M2214 787L2277 833M2305 742L2386 748M2305 742L2277 833M2386 748L2440 791M2386 748L2365 832M2386 748L2429 803M2440 791L2365 832M2440 791L2429 803M2440 791L2522 820M2555 759L2596 837M2555 759L2522 820M-5 759L36 837M36 837L-38 820M36 837L41 882M36 837L98 891M2596 837L2522 820M139 840L175 861M139 840L41 882M139 840L98 891M139 840L230 911M175 861L98 891M175 861L230 911M175 861L259 914M307 864L364 851M307 864L230 911M307 864L259 914M307 864L352 908M364 851L410 843M364 851L352 908M410 843L532 857M410 843L352 908M532 857L577 847M532 857L512 945M532 857L598 895M577 847L657 855M577 847L598 895M657 855L598 895M657 855L685 947M775 832L840 871M775 832L786 908M775 832L807 921M840 871L917 803M840 871L786 908M840 871L807 921M1018 867L1042 850M1018 867L946 933M1018 867L978 904M1018 867L1077 933M1018 867L1066 966M1042 850L1130 865M1042 850L978 904M1042 850L1077 933M1130 865L1232 853M1130 865L1077 933M1130 865L1130 925M1232 853L1341 862M1232 853L1212 941M1232 853L1221 965M1341 862L1409 813M1341 862L1351 952M1341 862L1412 885M1409 813L1460 835M1409 813L1412 885M1460 835L1524 834M1460 835L1412 885M1460 835L1508 893M1524 834L1508 893M1524 834L1579 889M1665 820L1715 815M1665 820L1579 889M1715 815L1794 808M1794 808L1782 897M1914 857L1930 864M1914 857L1907 889M1914 857L1954 921M1930 864L2039 873M1930 864L1907 889M1930 864L1954 921M2039 873L1954 921M2039 873L2074 940M2039 873L2129 945M2144 817L2180 874M2180 874L2277 833M2180 874L2129 945M2180 874L2221 933M2277 833L2365 832M2365 832L2429 803M2365 832L2347 923M2429 803L2522 820M2522 820L2601 882M-38 820L41 882M41 882L98 891M230 911L259 914M259 914L352 908M352 908L428 959M428 959L512 945M428 959L355 1029M512 945L598 895M512 945L518 1015M598 895L685 947M685 947L786 908M685 947L683 982M786 908L807 921M786 908L861 991M807 921L861 991M946 933L978 904M946 933L861 991M946 933L951 1032M978 904L1066 966M1077 933L1130 925M1077 933L1066 966M1130 925L1212 941M1130 925L1066 966M1212 941L1176 1029M1212 941L1221 965M1212 941L1162 1044M1351 952L1412 885M1351 952L1295 1026M1351 952L1384 1022M1351 952L1443 1037M1412 885L1508 893M1508 893L1579 889M1579 889L1646 944M1646 944L1751 917M1751 917L1782 897M1751 917L1750 996M1751 917L1799 975M1782 897L1907 889M1782 897L1750 996M1782 897L1799 975M1907 889L1954 921M1907 889L1931 974M1954 921L1931 974M2074 940L2129 945M2074 940L2104 1029M2129 945L2221 933M2129 945L2104 1029M2221 933L2305 943M2221 933L2219 1026M2221 933L2290 1001M2305 943L2347 923M2305 943L2290 1001M2305 943L2358 1000M2347 923L2426 927M2347 923L2358 1000M2426 927L2500 939M2500 939L2464 1033M2500 939L2530 989M63 989L132 1026M63 989L-30 989M63 989L78 1092M63 989L95 1085M63 989L-24 1060M2623 989L2530 989M2623 989L2536 1060M132 1026L217 1019M132 1026L78 1092M132 1026L95 1085M132 1026L181 1041M217 1019L282 1038M217 1019L181 1041M217 1019L248 1059M217 1019L230 1125M282 1038L355 1029M282 1038L248 1059M355 1029L248 1059M355 1029L384 1084M470 1039L518 1015M470 1039L384 1084M470 1039L457 1102M470 1039L500 1048M518 1015L500 1048M518 1015L566 1077M634 1031L683 982M634 1031L566 1077M634 1031L665 1051M683 982L750 1031M683 982L665 1051M750 1031L665 1051M750 1031L761 1075M861 991L868 1047M951 1032L1009 1031M951 1032L868 1047M951 1032L943 1120M951 1032L1028 1098M1009 1031L1066 966M1009 1031L1028 1098M1009 1031L1079 1088M1176 1029L1221 965M1176 1029L1162 1044M1221 965L1295 1026M1221 965L1162 1044M1295 1026L1384 1022M1295 1026L1262 1118M1295 1026L1354 1112M1384 1022L1443 1037M1384 1022L1437 1085M1384 1022L1441 1069M1443 1037L1560 1039M1443 1037L1437 1085M1443 1037L1441 1069M1560 1039L1616 1039M1560 1039L1590 1087M1560 1039L1607 1104M1616 1039L1590 1087M1616 1039L1607 1104M1616 1039L1691 1110M1750 996L1799 975M1750 996L1806 1061M1799 975L1806 1061M1914 1007L1931 974M1914 1007L1915 1049M1914 1007L1941 1044M1931 974L1915 1049M1931 974L1941 1044M2004 1015L2104 1029M2004 1015L1915 1049M2004 1015L1941 1044M2004 1015L2011 1046M2004 1015L2083 1079M2104 1029L2011 1046M2104 1029L2083 1079M2219 1026L2290 1001M2219 1026L2195 1085M2219 1026L2278 1052M2290 1001L2358 1000M2290 1001L2278 1052M2358 1000L2278 1052M2358 1000L2396 1067M2464 1033L2530 989M2464 1033L2396 1067M2464 1033L2464 1116M2464 1033L2536 1060M2530 989L2536 1060M78 1092L95 1085M78 1092L9 1158M78 1092L109 1125M95 1085L109 1125M181 1041L248 1059M181 1041L109 1125M181 1041L230 1125M248 1059L230 1125M384 1084L457 1102M384 1084L402 1177M457 1102L500 1048M457 1102L509 1139M500 1048L566 1077M500 1048L509 1139M566 1077L509 1139M566 1077L580 1131M665 1051L761 1075M665 1051L704 1143M761 1075L704 1143M761 1075L743 1167M761 1075L821 1138M868 1047L821 1138M943 1120L1028 1098M943 1120L903 1197M943 1120L977 1187M1028 1098L1079 1088M1028 1098L1050 1144M1079 1088L1162 1044M1079 1088L1050 1144M1079 1088L1155 1154M1162 1044L1155 1154M1262 1118L1354 1112M1262 1118L1238 1180M1262 1118L1303 1158M1354 1112L1437 1085M1354 1112L1441 1069M1354 1112L1303 1158M1437 1085L1441 1069M1437 1085L1479 1187M1590 1087L1607 1104M1590 1087L1584 1170M1590 1087L1645 1139M1607 1104L1584 1170M1607 1104L1645 1139M1691 1110L1645 1139M1691 1110L1729 1132M1691 1110L1762 1192M1915 1049L1941 1044M1915 1049L2011 1046M1941 1044L2011 1046M2011 1046L2083 1079M2083 1079L2155 1138M2195 1085L2278 1052M2195 1085L2155 1138M2195 1085L2184 1157M2195 1085L2252 1136M2278 1052L2252 1136M2396 1067L2464 1116M2396 1067L2367 1148M2464 1116L2536 1060M2464 1116L2367 1148M2464 1116L2463 1181M2536 1060L2569 1158M-24 1060L9 1158M9 1158L109 1125M9 1158L-1 1168M9 1158L18 1266M2569 1158L2559 1168M109 1125L110 1223M230 1125L317 1173M230 1125L248 1202M317 1173L342 1195M317 1173L402 1177M317 1173L248 1202M317 1173L398 1215M342 1195L402 1177M342 1195L248 1202M342 1195L398 1215M342 1195L410 1235M402 1177L398 1215M402 1177L410 1235M509 1139L580 1131M580 1131L631 1217M580 1131L652 1203M704 1143L743 1167M704 1143L652 1203M704 1143L730 1203M743 1167L821 1138M743 1167L652 1203M743 1167L730 1203M821 1138L730 1203M821 1138L867 1240M903 1197L977 1187M903 1197L867 1240M903 1197L905 1238M977 1187L1050 1144M977 1187L905 1238M977 1187L1030 1247M1050 1144L1155 1154M1050 1144L1030 1247M1155 1154L1238 1180M1155 1154L1171 1235M1238 1180L1303 1158M1238 1180L1171 1235M1238 1180L1268 1236M1303 1158L1268 1236M1431 1198L1479 1187M1431 1198L1346 1261M1431 1198L1433 1206M1431 1198L1451 1224M1479 1187L1433 1206M1479 1187L1451 1224M1584 1170L1645 1139M1584 1170L1596 1230M1584 1170L1642 1254M1645 1139L1729 1132M1729 1132L1762 1192M1729 1132L1753 1226M1729 1132L1766 1225M1762 1192L1860 1166M1762 1192L1753 1226M1762 1192L1766 1225M1860 1166L1924 1164M1860 1166L1906 1221M1924 1164L2018 1191M1924 1164L1906 1221M2018 1191L1906 1221M2018 1191L1933 1265M2018 1191L2038 1279M2155 1138L2184 1157M2155 1138L2252 1136M2155 1138L2229 1202M2184 1157L2252 1136M2184 1157L2149 1269M2184 1157L2229 1202M2252 1136L2229 1202M2367 1148L2463 1181M2367 1148L2352 1227M2463 1181L2559 1168M2463 1181L2427 1259M2463 1181L2497 1263M2559 1168L2578 1266M-1 1168L18 1266M18 1266L-63 1263M18 1266L21 1290M2578 1266L2497 1263M110 1223L215 1247M215 1247L248 1202M215 1247L207 1358M215 1247L284 1283M215 1247L336 1305M248 1202L284 1283M398 1215L410 1235M398 1215L439 1298M410 1235L336 1305M410 1235L439 1298M526 1273L631 1217M526 1273L439 1298M526 1273L525 1326M526 1273L585 1318M631 1217L652 1203M631 1217L730 1203M631 1217L695 1310M652 1203L730 1203M867 1240L905 1238M867 1240L766 1307M867 1240L855 1286M905 1238L855 1286M1030 1247L1104 1255M1030 1247L1024 1318M1030 1247L1069 1309M1104 1255L1171 1235M1104 1255L1024 1318M1104 1255L1069 1309M1104 1255L1199 1290M1171 1235L1199 1290M1268 1236L1346 1261M1268 1236L1199 1290M1268 1236L1250 1310M1346 1261L1433 1206M1346 1261L1250 1310M1346 1261L1382 1341M1433 1206L1451 1224M1451 1224L1541 1290M1596 1230L1642 1254M1596 1230L1541 1290M1596 1230L1657 1327M1642 1254L1657 1327M1642 1254L1690 1283M1753 1226L1766 1225M1753 1226L1690 1283M1753 1226L1789 1311M1766 1225L1690 1283M1766 1225L1789 1311M1906 1221L1933 1265M1906 1221L1894 1320M1933 1265L1894 1320M2038 1279L2149 1269M2038 1279L1979 1345M2038 1279L2037 1327M2038 1279L2023 1368M2149 1269L2229 1202M2149 1269L2125 1345M2149 1269L2160 1305M2229 1202L2301 1272M2301 1272L2352 1227M2301 1272L2281 1328M2301 1272L2361 1340M2352 1227L2427 1259M2427 1259L2497 1263M2427 1259L2420 1329M2427 1259L2483 1294M2497 1263L2581 1290M2497 1263L2483 1294M-63 1263L21 1290M21 1290L109 1348M21 1290L-26 1382M2581 1290L2534 1382M109 1348L207 1358M109 1348L144 1379M109 1348L206 1398M207 1358L144 1379M207 1358L206 1398M207 1358L285 1380M284 1283L336 1305M336 1305L285 1380M439 1298L525 1326M439 1298L434 1398M525 1326L585 1318M585 1318L695 1310M585 1318L571 1424M695 1310L766 1307M695 1310L716 1392M766 1307L855 1286M766 1307L716 1392M855 1286L949 1349M855 1286L844 1379M949 1349L1024 1318M949 1349L844 1379M949 1349L920 1415M949 1349L1023 1362M1024 1318L1069 1309M1024 1318L1023 1362M1069 1309L1023 1362M1069 1309L1132 1383M1199 1290L1250 1310M1250 1310L1298 1354M1250 1310L1235 1421M1298 1354L1382 1341M1298 1354L1235 1421M1298 1354L1362 1395M1382 1341L1362 1395M1382 1341L1483 1392M1490 1349L1541 1290M1490 1349L1483 1392M1541 1290L1483 1392M1657 1327L1690 1283M1657 1327L1663 1367M1657 1327L1696 1396M1690 1283L1663 1367M1789 1311L1696 1396M1789 1311L1837 1374M1894 1320L1979 1345M1894 1320L1837 1374M1894 1320L1955 1366M1979 1345L2037 1327M1979 1345L1955 1366M1979 1345L2023 1368M2037 1327L2125 1345M2037 1327L1955 1366M2037 1327L2023 1368M2125 1345L2160 1305M2125 1345L2023 1368M2125 1345L2153 1428M2281 1328L2361 1340M2281 1328L2227 1396M2281 1328L2243 1426M2281 1328L2343 1375M2361 1340L2420 1329M2361 1340L2343 1375M2361 1340L2440 1365M2420 1329L2483 1294M2420 1329L2343 1375M2420 1329L2440 1365M2483 1294L2440 1365M2483 1294L2534 1382M67 1437L144 1379M67 1437L-26 1382M2627 1437L2534 1382M144 1379L206 1398M206 1398L285 1380M285 1380L366 1434M366 1434L434 1398M434 1398L507 1431M507 1431L571 1424M716 1392L797 1418M797 1418L844 1379M844 1379L920 1415M1023 1362L1089 1440M1023 1362L1132 1383M1089 1440L1132 1383M1235 1421L1292 1436M1292 1436L1362 1395M1483 1392L1578 1417M1578 1417L1663 1367M1578 1417L1696 1396M1663 1367L1696 1396M1837 1374L1855 1416M1955 1366L2023 1368M2153 1428L2227 1396M2153 1428L2243 1426M2227 1396L2243 1426M2343 1375L2440 1365M2440 1365L2534 1382"/></svg>