<svg xmlns="http://www.w3.org/2000/svg" width="2560" height="1440" fill="#fff"><circle cx="51" cy="77" r="5"/><circle cx="98" cy="67" r="6"/><circle cx="177" cy="39" r="6"/><circle cx="244" cy="44" r="5"/><circle cx="361" cy="20" r="5"/><circle cx="468" cy="43" r="4"/><circle cx="532" cy="71" r="5"/><circle cx="614" cy="11" r="5"/><circle cx="673" cy="39" r="5"/><circle cx="739" cy="48" r="5"/><circle cx="807" cy="2" r="5"/><circle cx="807" cy="1442" r="5"/><circle cx="898" cy="9" r="5"/><circle cx="1037" cy="58" r="4"/><circle cx="1047" cy="38" r="5"/><circle cx="1169" cy="57" r="6"/><circle cx="1245" cy="8" r="6"/><circle cx="1281" cy="1" r="6"/><circle cx="1281" cy="1441" r="6"/><circle cx="1389" cy="53" r="5"/><circle cx="1462" cy="24" r="5"/><circle cx="1575" cy="11" r="5"/><circle cx="1661" cy="1" r="5"/><circle cx="1661" cy="1441" r="5"/><circle cx="1758" cy="72" r="4"/><circle cx="1790" cy="67" r="5"/><circle cx="1900" cy="35" r="5"/><circle cx="1979" cy="9" r="5"/><circle cx="2003" cy="71" r="5"/><circle cx="2112" cy="49" r="5"/><circle cx="2173" cy="79" r="4"/><circle cx="2255" cy="6" r="6"/><circle cx="2340" cy="7" r="6"/><circle cx="2441" cy="15" r="5"/><circle cx="2549" cy="71" r="6"/><circle cx="32" cy="158" r="5"/><circle cx="126" cy="122" r="4"/><circle cx="201" cy="123" r="5"/><circle cx="295" cy="105" r="5"/><circle cx="393" cy="92" r="6"/><circle cx="440" cy="135" r="6"/><circle cx="509" cy="85" r="5"/><circle cx="582" cy="89" r="6"/><circle cx="663" cy="127" r="6"/><circle cx="726" cy="137" r="4"/><circle cx="875" cy="109" r="6"/><circle cx="936" cy="98" r="5"/><circle cx="970" cy="131" r="4"/><circle cx="1068" cy="153" r="5"/><circle cx="1175" cy="98" r="5"/><circle cx="1271" cy="126" r="6"/><circle cx="1332" cy="118" r="6"/><circle cx="1378" cy="116" r="4"/><circle cx="1510" cy="83" r="6"/><circle cx="1594" cy="144" r="5"/><circle cx="1634" cy="108" r="5"/><circle cx="1710" cy="106" r="4"/><circle cx="1786" cy="108" r="4"/><circle cx="1895" cy="160" r="6"/><circle cx="1949" cy="124" r="4"/><circle cx="2053" cy="109" r="4"/><circle cx="2083" cy="106" r="5"/><circle cx="2189" cy="144" r="5"/><circle cx="2252" cy="83" r="5"/><circle cx="2394" cy="87" r="6"/><circle cx="2404" cy="147" r="4"/><circle cx="2530" cy="160" r="4"/><circle cx="34" cy="196" r="5"/><circle cx="116" cy="229" r="5"/><circle cx="227" cy="234" r="5"/><circle cx="262" cy="202" r="5"/><circle cx="384" cy="221" r="6"/><circle cx="428" cy="217" r="4"/><circle cx="514" cy="213" r="5"/><circle cx="575" cy="239" r="5"/><circle cx="682" cy="219" r="6"/><circle cx="789" cy="186" r="5"/><circle cx="810" cy="222" r="4"/><circle cx="960" cy="173" r="5"/><circle cx="1013" cy="234" r="5"/><circle cx="1095" cy="235" r="6"/><circle cx="1149" cy="205" r="5"/><circle cx="1275" cy="205" r="5"/><circle cx="1297" cy="191" r="4"/><circle cx="1381" cy="233" r="4"/><circle cx="1496" cy="204" r="6"/><circle cx="1562" cy="186" r="6"/><circle cx="1602" cy="224" r="4"/><circle cx="1759" cy="170" r="6"/><circle cx="1826" cy="164" r="4"/><circle cx="1849" cy="163" r="5"/><circle cx="1968" cy="208" r="4"/><circle cx="2028" cy="219" r="5"/><circle cx="2097" cy="177" r="6"/><circle cx="2192" cy="177" r="4"/><circle cx="2259" cy="235" r="5"/><circle cx="2398" cy="215" r="5"/><circle cx="2406" cy="213" r="5"/><circle cx="2522" cy="192" r="5"/><circle cx="4" cy="271" r="6"/><circle cx="2564" cy="271" r="6"/><circle cx="89" cy="287" r="4"/><circle cx="178" cy="256" r="4"/><circle cx="297" cy="273" r="5"/><circle cx="333" cy="297" r="5"/><circle cx="450" cy="249" r="5"/><circle cx="498" cy="301" r="5"/><circle cx="629" cy="268" r="5"/><circle cx="700" cy="265" r="5"/><circle cx="728" cy="262" r="5"/><circle cx="813" cy="260" r="4"/><circle cx="958" cy="273" r="5"/><circle cx="994" cy="297" r="5"/><circle cx="1061" cy="247" r="5"/><circle cx="1125" cy="288" r="5"/><circle cx="1239" cy="314" r="4"/><circle cx="1315" cy="301" r="5"/><circle cx="1383" cy="247" r="6"/><circle cx="1500" cy="270" r="4"/><circle cx="1541" cy="317" r="5"/><circle cx="1620" cy="246" r="6"/><circle cx="1696" cy="301" r="6"/><circle cx="1783" cy="282" r="6"/><circle cx="1893" cy="258" r="6"/><circle cx="1953" cy="272" r="5"/><circle cx="2075" cy="251" r="4"/><circle cx="2120" cy="268" r="5"/><circle cx="2168" cy="311" r="5"/><circle cx="2290" cy="298" r="5"/><circle cx="2360" cy="243" r="5"/><circle cx="2428" cy="269" r="6"/><circle cx="2544" cy="241" r="5"/><circle cx="6" cy="327" r="4"/><circle cx="139" cy="350" r="4"/><circle cx="178" cy="354" r="4"/><circle cx="256" cy="336" r="6"/><circle cx="328" cy="341" r="6"/><circle cx="407" cy="334" r="5"/><circle cx="540" cy="377" r="5"/><circle cx="608" cy="378" r="6"/><circle cx="665" cy="376" r="6"/><circle cx="764" cy="333" r="5"/><circle cx="875" cy="320" r="6"/><circle cx="941" cy="354" r="5"/><circle cx="997" cy="383" r="5"/><circle cx="1117" cy="394" r="4"/><circle cx="1191" cy="379" r="4"/><circle cx="1205" cy="339" r="5"/><circle cx="1312" cy="396" r="4"/><circle cx="1427" cy="334" r="6"/><circle cx="1495" cy="369" r="6"/><circle cx="1570" cy="383" r="5"/><circle cx="1634" cy="388" r="6"/><circle cx="1742" cy="353" r="5"/><circle cx="1839" cy="343" r="6"/><circle cx="1878" cy="335" r="5"/><circle cx="1992" cy="343" r="5"/><circle cx="2012" cy="384" r="5"/><circle cx="2099" cy="366" r="5"/><circle cx="2168" cy="389" r="4"/><circle cx="2315" cy="341" r="5"/><circle cx="2351" cy="343" r="6"/><circle cx="2403" cy="390" r="4"/><circle cx="2558" cy="320" r="4"/><circle cx="-2" cy="320" r="4"/><circle cx="23" cy="418" r="6"/><circle cx="112" cy="440" r="5"/><circle cx="181" cy="408" r="5"/><circle cx="258" cy="407" r="5"/><circle cx="394" cy="451" r="6"/><circle cx="421" cy="459" r="6"/><circle cx="525" cy="435" r="6"/><circle cx="638" cy="436" r="5"/><circle cx="688" cy="401" r="5"/><circle cx="780" cy="426" r="5"/><circle cx="831" cy="460" r="5"/><circle cx="958" cy="404" r="5"/><circle cx="1026" cy="417" r="6"/><circle cx="1076" cy="467" r="5"/><circle cx="1175" cy="434" r="6"/><circle cx="1246" cy="430" r="5"/><circle cx="1324" cy="442" r="5"/><circle cx="1384" cy="446" r="4"/><circle cx="1445" cy="401" r="5"/><circle cx="1539" cy="440" r="5"/><circle cx="1610" cy="432" r="4"/><circle cx="1745" cy="476" r="4"/><circle cx="1837" cy="426" r="6"/><circle cx="1862" cy="426" r="5"/><circle cx="1943" cy="415" r="5"/><circle cx="2073" cy="447" r="5"/><circle cx="2156" cy="408" r="4"/><circle cx="2170" cy="468" r="5"/><circle cx="2256" cy="422" r="5"/><circle cx="2374" cy="465" r="5"/><circle cx="2400" cy="469" r="4"/><circle cx="2516" cy="453" r="6"/><circle cx="22" cy="514" r="6"/><circle cx="118" cy="486" r="4"/><circle cx="186" cy="543" r="5"/><circle cx="291" cy="491" r="5"/><circle cx="395" cy="553" r="4"/><circle cx="477" cy="488" r="4"/><circle cx="517" cy="504" r="5"/><circle cx="599" cy="535" r="5"/><circle cx="682" cy="483" r="5"/><circle cx="797" cy="489" r="6"/><circle cx="829" cy="484" r="5"/><circle cx="956" cy="531" r="6"/><circle cx="993" cy="508" r="5"/><circle cx="1110" cy="546" r="6"/><circle cx="1168" cy="557" r="4"/><circle cx="1278" cy="550" r="6"/><circle cx="1319" cy="492" r="5"/><circle cx="1404" cy="502" r="4"/><circle cx="1476" cy="511" r="6"/><circle cx="1535" cy="516" r="5"/><circle cx="1674" cy="486" r="5"/><circle cx="1704" cy="557" r="5"/><circle cx="1818" cy="489" r="6"/><circle cx="1861" cy="489" r="5"/><circle cx="1972" cy="528" r="6"/><circle cx="2065" cy="492" r="4"/><circle cx="2101" cy="554" r="6"/><circle cx="2188" cy="535" r="6"/><circle cx="2267" cy="508" r="4"/><circle cx="2368" cy="519" r="4"/><circle cx="2468" cy="505" r="5"/><circle cx="2558" cy="544" r="5"/><circle cx="-2" cy="544" r="5"/><circle cx="48" cy="606" r="5"/><circle cx="82" cy="584" r="4"/><circle cx="160" cy="612" r="6"/><circle cx="243" cy="609" r="5"/><circle cx="376" cy="582" r="5"/><circle cx="430" cy="628" r="6"/><circle cx="519" cy="618" r="5"/><circle cx="571" cy="614" r="5"/><circle cx="652" cy="591" r="4"/><circle cx="746" cy="638" r="4"/><circle cx="846" cy="601" r="5"/><circle cx="932" cy="575" r="6"/><circle cx="974" cy="617" r="5"/><circle cx="1103" cy="608" r="5"/><circle cx="1123" cy="622" r="4"/><circle cx="1238" cy="584" r="5"/><circle cx="1282" cy="578" r="4"/><circle cx="1372" cy="632" r="6"/><circle cx="1511" cy="582" r="4"/><circle cx="1589" cy="621" r="5"/><circle cx="1673" cy="627" r="5"/><circle cx="1696" cy="597" r="5"/><circle cx="1806" cy="606" r="5"/><circle cx="1900" cy="607" r="5"/><circle cx="1985" cy="590" r="6"/><circle cx="2037" cy="603" r="4"/><circle cx="2129" cy="587" r="6"/><circle cx="2202" cy="566" r="4"/><circle cx="2268" cy="625" r="6"/><circle cx="2349" cy="573" r="5"/><circle cx="2461" cy="569" r="6"/><circle cx="2500" cy="608" r="6"/><circle cx="24" cy="691" r="6"/><circle cx="146" cy="717" r="6"/><circle cx="186" cy="675" r="4"/><circle cx="315" cy="690" r="6"/><circle cx="329" cy="713" r="5"/><circle cx="434" cy="677" r="5"/><circle cx="516" cy="674" r="5"/><circle cx="584" cy="718" r="5"/><circle cx="642" cy="712" r="6"/><circle cx="753" cy="718" r="6"/><circle cx="819" cy="702" r="5"/><circle cx="915" cy="661" r="5"/><circle cx="995" cy="674" r="4"/><circle cx="1111" cy="665" r="5"/><circle cx="1134" cy="682" r="5"/><circle cx="1246" cy="701" r="5"/><circle cx="1283" cy="667" r="6"/><circle cx="1400" cy="678" r="5"/><circle cx="1480" cy="692" r="5"/><circle cx="1533" cy="665" r="6"/><circle cx="1614" cy="670" r="5"/><circle cx="1733" cy="652" r="5"/><circle cx="1776" cy="652" r="5"/><circle cx="1915" cy="711" r="6"/><circle cx="1945" cy="664" r="5"/><circle cx="2029" cy="708" r="5"/><circle cx="2087" cy="675" r="6"/><circle cx="2194" cy="647" r="5"/><circle cx="2250" cy="660" r="6"/><circle cx="2389" cy="668" r="5"/><circle cx="2424" cy="681" r="5"/><circle cx="2515" cy="657" r="5"/><circle cx="13" cy="794" r="4"/><circle cx="101" cy="750" r="5"/><circle cx="186" cy="733" r="4"/><circle cx="289" cy="777" r="6"/><circle cx="365" cy="767" r="4"/><circle cx="448" cy="762" r="5"/><circle cx="559" cy="744" r="4"/><circle cx="605" cy="786" r="5"/><circle cx="688" cy="748" r="4"/><circle cx="762" cy="775" r="6"/><circle cx="852" cy="748" r="5"/><circle cx="916" cy="743" r="6"/><circle cx="966" cy="725" r="6"/><circle cx="1114" cy="796" r="5"/><circle cx="1178" cy="794" r="5"/><circle cx="1224" cy="761" r="5"/><circle cx="1357" cy="729" r="4"/><circle cx="1422" cy="766" r="4"/><circle cx="1469" cy="745" r="5"/><circle cx="1553" cy="770" r="6"/><circle cx="1669" cy="798" r="5"/><circle cx="1743" cy="785" r="5"/><circle cx="1790" cy="722" r="5"/><circle cx="1910" cy="797" r="4"/><circle cx="1950" cy="745" r="5"/><circle cx="2070" cy="779" r="4"/><circle cx="2122" cy="747" r="5"/><circle cx="2195" cy="732" r="6"/><circle cx="2246" cy="741" r="4"/><circle cx="2321" cy="740" r="4"/><circle cx="2421" cy="772" r="5"/><circle cx="2529" cy="783" r="6"/><circle cx="9" cy="801" r="6"/><circle cx="142" cy="840" r="4"/><circle cx="185" cy="878" r="5"/><circle cx="289" cy="870" r="5"/><circle cx="328" cy="843" r="6"/><circle cx="449" cy="852" r="4"/><circle cx="492" cy="835" r="5"/><circle cx="605" cy="854" r="5"/><circle cx="660" cy="841" r="5"/><circle cx="757" cy="878" r="5"/><circle cx="876" cy="812" r="5"/><circle cx="936" cy="878" r="5"/><circle cx="1023" cy="834" r="6"/><circle cx="1112" cy="826" r="6"/><circle cx="1196" cy="814" r="5"/><circle cx="1258" cy="825" r="5"/><circle cx="1358" cy="861" r="5"/><circle cx="1390" cy="866" r="5"/><circle cx="1502" cy="836" r="5"/><circle cx="1552" cy="844" r="5"/><circle cx="1674" cy="825" r="6"/><circle cx="1719" cy="800" r="4"/><circle cx="1809" cy="805" r="5"/><circle cx="1902" cy="869" r="6"/><circle cx="1976" cy="800" r="5"/><circle cx="2034" cy="806" r="5"/><circle cx="2146" cy="853" r="6"/><circle cx="2170" cy="838" r="5"/><circle cx="2318" cy="826" r="5"/><circle cx="2364" cy="818" r="4"/><circle cx="2453" cy="844" r="5"/><circle cx="2503" cy="867" r="6"/><circle cx="54" cy="910" r="5"/><circle cx="96" cy="891" r="5"/><circle cx="217" cy="950" r="5"/><circle cx="319" cy="908" r="6"/><circle cx="358" cy="936" r="6"/><circle cx="415" cy="897" r="5"/><circle cx="507" cy="922" r="5"/><circle cx="635" cy="916" r="5"/><circle cx="657" cy="893" r="5"/><circle cx="789" cy="936" r="6"/><circle cx="818" cy="960" r="6"/><circle cx="935" cy="889" r="5"/><circle cx="1035" cy="930" r="5"/><circle cx="1079" cy="920" r="5"/><circle cx="1200" cy="914" r="6"/><circle cx="1239" cy="916" r="6"/><circle cx="1282" cy="901" r="5"/><circle cx="1361" cy="895" r="5"/><circle cx="1481" cy="887" r="4"/><circle cx="1537" cy="943" r="5"/><circle cx="1606" cy="894" r="5"/><circle cx="1729" cy="885" r="6"/><circle cx="1809" cy="897" r="6"/><circle cx="1894" cy="942" r="4"/><circle cx="1949" cy="954" r="6"/><circle cx="2079" cy="946" r="5"/><circle cx="2118" cy="895" r="5"/><circle cx="2217" cy="947" r="5"/><circle cx="2300" cy="958" r="5"/><circle cx="2384" cy="911" r="5"/><circle cx="2424" cy="938" r="4"/><circle cx="2517" cy="919" r="5"/><circle cx="39" cy="1021" r="4"/><circle cx="153" cy="996" r="5"/><circle cx="193" cy="1026" r="6"/><circle cx="275" cy="1017" r="5"/><circle cx="321" cy="1006" r="5"/><circle cx="442" cy="1031" r="5"/><circle cx="539" cy="983" r="4"/><circle cx="580" cy="973" r="4"/><circle cx="683" cy="1026" r="4"/><circle cx="721" cy="979" r="5"/><circle cx="830" cy="970" r="6"/><circle cx="935" cy="1031" r="4"/><circle cx="968" cy="989" r="5"/><circle cx="1067" cy="968" r="6"/><circle cx="1160" cy="974" r="5"/><circle cx="1276" cy="980" r="6"/><circle cx="1307" cy="1036" r="5"/><circle cx="1406" cy="1022" r="5"/><circle cx="1480" cy="981" r="5"/><circle cx="1565" cy="968" r="5"/><circle cx="1653" cy="968" r="5"/><circle cx="1752" cy="966" r="5"/><circle cx="1836" cy="1010" r="6"/><circle cx="1847" cy="1012" r="5"/><circle cx="1944" cy="977" r="6"/><circle cx="2055" cy="998" r="4"/><circle cx="2160" cy="1008" r="4"/><circle cx="2171" cy="969" r="6"/><circle cx="2243" cy="968" r="5"/><circle cx="2331" cy="987" r="5"/><circle cx="2404" cy="1016" r="5"/><circle cx="2538" cy="1039" r="4"/><circle cx="52" cy="1059" r="5"/><circle cx="101" cy="1084" r="4"/><circle cx="239" cy="1070" r="5"/><circle cx="263" cy="1088" r="5"/><circle cx="369" cy="1115" r="5"/><circle cx="457" cy="1071" r="4"/><circle cx="493" cy="1114" r="6"/><circle cx="609" cy="1095" r="4"/><circle cx="675" cy="1116" r="5"/><circle cx="761" cy="1047" r="4"/><circle cx="853" cy="1070" r="4"/><circle cx="916" cy="1063" r="5"/><circle cx="1013" cy="1112" r="5"/><circle cx="1087" cy="1102" r="5"/><circle cx="1138" cy="1051" r="5"/><circle cx="1265" cy="1066" r="4"/><circle cx="1306" cy="1094" r="6"/><circle cx="1399" cy="1071" r="4"/><circle cx="1493" cy="1115" r="6"/><circle cx="1597" cy="1069" r="5"/><circle cx="1605" cy="1057" r="5"/><circle cx="1681" cy="1090" r="5"/><circle cx="1776" cy="1081" r="5"/><circle cx="1916" cy="1051" r="6"/><circle cx="1993" cy="1088" r="6"/><circle cx="2080" cy="1042" r="4"/><circle cx="2121" cy="1047" r="5"/><circle cx="2161" cy="1120" r="6"/><circle cx="2243" cy="1099" r="6"/><circle cx="2342" cy="1117" r="6"/><circle cx="2411" cy="1085" r="5"/><circle cx="2498" cy="1045" r="5"/><circle cx="28" cy="1121" r="4"/><circle cx="86" cy="1190" r="5"/><circle cx="202" cy="1163" r="5"/><circle cx="294" cy="1183" r="4"/><circle cx="326" cy="1178" r="5"/><circle cx="416" cy="1170" r="4"/><circle cx="496" cy="1149" r="5"/><circle cx="588" cy="1186" r="5"/><circle cx="657" cy="1146" r="5"/><circle cx="722" cy="1197" r="5"/><circle cx="846" cy="1192" r="5"/><circle cx="909" cy="1200" r="5"/><circle cx="995" cy="1179" r="5"/><circle cx="1062" cy="1175" r="6"/><circle cx="1126" cy="1194" r="5"/><circle cx="1252" cy="1142" r="4"/><circle cx="1348" cy="1178" r="5"/><circle cx="1384" cy="1147" r="6"/><circle cx="1469" cy="1175" r="6"/><circle cx="1588" cy="1159" r="6"/><circle cx="1661" cy="1128" r="6"/><circle cx="1692" cy="1181" r="6"/><circle cx="1834" cy="1163" r="6"/><circle cx="1851" cy="1124" r="5"/><circle cx="1936" cy="1148" r="6"/><circle cx="2076" cy="1168" r="5"/><circle cx="2113" cy="1140" r="6"/><circle cx="2169" cy="1163" r="4"/><circle cx="2288" cy="1135" r="5"/><circle cx="2350" cy="1157" r="5"/><circle cx="2413" cy="1126" r="5"/><circle cx="2511" cy="1175" r="4"/><circle cx="2" cy="1273" r="4"/><circle cx="2562" cy="1273" r="4"/><circle cx="92" cy="1200" r="5"/><circle cx="215" cy="1258" r="6"/><circle cx="262" cy="1245" r="6"/><circle cx="398" cy="1253" r="5"/><circle cx="420" cy="1215" r="4"/><circle cx="542" cy="1203" r="5"/><circle cx="624" cy="1205" r="6"/><circle cx="644" cy="1202" r="5"/><circle cx="751" cy="1255" r="5"/><circle cx="850" cy="1255" r="5"/><circle cx="880" cy="1209" r="4"/><circle cx="1018" cy="1236" r="5"/><circle cx="1117" cy="1224" r="4"/><circle cx="1134" cy="1239" r="6"/><circle cx="1232" cy="1272" r="6"/><circle cx="1284" cy="1225" r="5"/><circle cx="1402" cy="1221" r="4"/><circle cx="1484" cy="1276" r="5"/><circle cx="1583" cy="1242" r="6"/><circle cx="1634" cy="1202" r="4"/><circle cx="1686" cy="1207" r="6"/><circle cx="1793" cy="1270" r="4"/><circle cx="1913" cy="1256" r="5"/><circle cx="1984" cy="1261" r="6"/><circle cx="2037" cy="1252" r="5"/><circle cx="2123" cy="1245" r="6"/><circle cx="2160" cy="1204" r="5"/><circle cx="2287" cy="1278" r="5"/><circle cx="2329" cy="1254" r="4"/><circle cx="2408" cy="1204" r="6"/><circle cx="2490" cy="1250" r="5"/><circle cx="24" cy="1351" r="6"/><circle cx="138" cy="1302" r="4"/><circle cx="168" cy="1351" r="5"/><circle cx="247" cy="1326" r="6"/><circle cx="381" cy="1332" r="6"/><circle cx="410" cy="1340" r="5"/><circle cx="501" cy="1308" r="6"/><circle cx="613" cy="1280" r="4"/><circle cx="687" cy="1358" r="4"/><circle cx="743" cy="1288" r="5"/><circle cx="804" cy="1360" r="4"/><circle cx="905" cy="1332" r="5"/><circle cx="1019" cy="1358" r="4"/><circle cx="1114" cy="1297" r="6"/><circle cx="1164" cy="1326" r="5"/><circle cx="1248" cy="1314" r="4"/><circle cx="1316" cy="1340" r="4"/><circle cx="1403" cy="1286" r="6"/><circle cx="1504" cy="1309" r="6"/><circle cx="1564" cy="1282" r="5"/><circle cx="1674" cy="1295" r="6"/><circle cx="1704" cy="1301" r="5"/><circle cx="1781" cy="1293" r="5"/><circle cx="1868" cy="1307" r="5"/><circle cx="1983" cy="1284" r="6"/><circle cx="2052" cy="1347" r="6"/><circle cx="2094" cy="1282" r="5"/><circle cx="2196" cy="1292" r="5"/><circle cx="2290" cy="1303" r="5"/><circle cx="2365" cy="1286" r="5"/><circle cx="2449" cy="1345" r="4"/><circle cx="2495" cy="1313" r="5"/><circle cx="45" cy="1386" r="4"/><circle cx="126" cy="1418" r="5"/><circle cx="233" cy="1407" r="5"/><circle cx="259" cy="1398" r="5"/><circle cx="395" cy="1371" r="6"/><circle cx="463" cy="1436" r="5"/><circle cx="463" cy="-4" r="5"/><circle cx="547" cy="1363" r="5"/><circle cx="615" cy="1404" r="5"/><circle cx="668" cy="1427" r="5"/><circle cx="753" cy="1406" r="5"/><circle cx="840" cy="1403" r="4"/><circle cx="910" cy="1408" r="4"/><circle cx="1016" cy="1427" r="5"/><circle cx="1084" cy="1421" r="5"/><circle cx="1140" cy="1393" r="4"/><circle cx="1229" cy="1401" r="4"/><circle cx="1334" cy="1427" r="4"/><circle cx="1374" cy="1381" r="5"/><circle cx="1463" cy="1404" r="4"/><circle cx="1536" cy="1396" r="5"/><circle cx="1625" cy="1381" r="5"/><circle cx="1758" cy="1436" r="6"/><circle cx="1758" cy="-4" r="6"/><circle cx="1820" cy="1438" r="4"/><circle cx="1820" cy="-2" r="4"/><circle cx="1881" cy="1407" r="5"/><circle cx="1965" cy="1426" r="6"/><circle cx="2044" cy="1366" r="5"/><circle cx="2154" cy="1381" r="5"/><circle cx="2237" cy="1388" r="5"/><circle cx="2263" cy="1407" r="6"/><circle cx="2320" cy="1365" r="6"/><circle cx="2474" cy="1361" r="5"/><circle cx="2541" cy="1435" r="4"/><path stroke="#fff" d="M51 77L98 67M51 77L-11 71M51 77L32 158M51 77L126 122M51 77L-19 -5M2611 77L2549 71M2611 77L2541 -5M51 1517L-19 1435M2611 1517L2541 1435M98 67L177 39M98 67L-11 71M98 67L126 122M98 67L126 -22M2658 67L2549 71M98 1507L126 1418M177 39L244 44M177 39L201 123M177 39L126 -22M177 39L233 -33M177 1479L126 1418M177 1479L233 1407M244 44L201 123M244 44L295 105M244 44L233 -33M244 44L259 -42M244 1484L233 1407M244 1484L259 1398M361 20L295 105M361 20L393 92M361 20L395 -69M361 20L463 -4M361 1460L395 1371M361 1460L463 1436M468 43L532 71M468 43L393 92M468 43L440 135M468 43L509 85M468 43L463 -4M468 1483L463 1436M532 71L614 11M532 71L509 85M532 71L582 89M532 71L463 -4M532 1511L463 1436M614 11L673 39M614 11L582 89M614 11L615 -36M614 11L668 -13M614 1451L615 1404M614 1451L668 1427M673 39L739 48M673 39L663 127M673 39L615 -36M673 39L668 -13M673 1479L615 1404M673 1479L668 1427M739 48L807 2M739 48L726 137M739 48L753 -34M739 1488L753 1406M807 2L898 9M807 2L804 -80M807 2L753 -34M807 2L840 -37M807 1442L804 1360M807 1442L753 1406M807 1442L840 1403M898 9L875 109M898 9L936 98M898 9L840 -37M898 9L910 -32M898 1449L840 1403M898 1449L910 1408M1037 58L1047 38M1037 58L936 98M1037 58L1068 153M1037 58L1016 -13M1037 58L1084 -19M1037 1498L1016 1427M1037 1498L1084 1421M1047 38L1016 -13M1047 38L1084 -19M1047 1478L1016 1427M1047 1478L1084 1421M1169 57L1245 8M1169 57L1175 98M1169 57L1140 -47M1169 1497L1140 1393M1245 8L1281 1M1245 8L1271 126M1245 8L1229 -39M1245 8L1334 -13M1245 1448L1229 1401M1245 1448L1334 1427M1281 1L1229 -39M1281 1L1334 -13M1281 1L1374 -59M1281 1441L1229 1401M1281 1441L1334 1427M1281 1441L1374 1381M1389 53L1462 24M1389 53L1332 118M1389 53L1378 116M1389 53L1334 -13M1389 1493L1334 1427M1462 24L1510 83M1462 24L1463 -36M1462 24L1536 -44M1462 1464L1463 1404M1462 1464L1536 1396M1575 11L1661 1M1575 11L1510 83M1575 11L1634 108M1575 11L1536 -44M1575 11L1625 -59M1575 1451L1536 1396M1575 1451L1625 1381M1661 1L1634 108M1661 1L1625 -59M1661 1L1758 -4M1661 1441L1625 1381M1661 1441L1758 1436M1758 72L1790 67M1758 72L1710 106M1758 72L1786 108M1758 72L1759 170M1758 72L1758 -4M1758 1512L1758 1436M1790 67L1710 106M1790 67L1786 108M1790 67L1758 -4M1790 67L1820 -2M1790 1507L1758 1436M1790 1507L1820 1438M1900 35L1979 9M1900 35L1820 -2M1900 35L1881 -33M1900 35L1965 -14M1900 1475L1820 1438M1900 1475L1881 1407M1900 1475L1965 1426M1979 9L2003 71M1979 9L1881 -33M1979 9L1965 -14M1979 9L2044 -74M1979 1449L1881 1407M1979 1449L1965 1426M1979 1449L2044 1366M2003 71L1949 124M2003 71L2053 109M2003 71L2083 106M2003 71L1965 -14M2003 1511L1965 1426M2112 49L2173 79M2112 49L2053 109M2112 49L2083 106M2112 49L2154 -59M2112 1489L2154 1381M2173 79L2083 106M2173 79L2189 144M2173 79L2252 83M2255 6L2340 7M2255 6L2252 83M2255 6L2237 -52M2255 6L2263 -33M2255 1446L2237 1388M2255 1446L2263 1407M2340 7L2441 15M2340 7L2394 87M2340 7L2263 -33M2340 7L2320 -75M2340 1447L2263 1407M2340 1447L2320 1365M2441 15L2394 87M2441 15L2474 -79M2441 15L2541 -5M2441 1455L2474 1361M2441 1455L2541 1435M2549 71L2592 158M2549 71L2530 160M2549 71L2541 -5M-11 71L32 158M2549 1511L2541 1435M32 158L-30 160M32 158L34 196M32 158L-38 192M2592 158L2530 160M2592 158L2522 192M126 122L201 123M126 122L116 229M201 123L295 105M201 123L262 202M295 105L393 92M295 105L262 202M393 92L440 135M440 135L509 85M440 135L384 221M440 135L428 217M509 85L582 89M509 85L463 -4M509 1525L463 1436M582 89L663 127M663 127L726 137M663 127L682 219M726 137L682 219M726 137L789 186M875 109L936 98M875 109L970 131M875 109L789 186M875 109L960 173M936 98L970 131M936 98L960 173M970 131L960 173M1068 153L1095 235M1068 153L1149 205M1068 153L1061 247M1175 98L1271 126M1175 98L1149 205M1271 126L1332 118M1271 126L1275 205M1271 126L1297 191M1332 118L1378 116M1332 118L1275 205M1332 118L1297 191M1510 83L1594 144M1510 83L1496 204M1594 144L1634 108M1594 144L1562 186M1594 144L1602 224M1594 144L1620 246M1634 108L1710 106M1634 108L1562 186M1710 106L1786 108M1710 106L1759 170M1786 108L1759 170M1786 108L1826 164M1895 160L1949 124M1895 160L1826 164M1895 160L1849 163M1895 160L1968 208M1895 160L1893 258M1949 124L1849 163M1949 124L1968 208M2053 109L2083 106M2053 109L2097 177M2083 106L2097 177M2189 144L2252 83M2189 144L2192 177M2189 144L2259 235M2252 83L2192 177M2252 83L2263 -33M2252 1523L2263 1407M2394 87L2404 147M2394 87L2398 215M2404 147L2398 215M2404 147L2406 213M2530 160L2594 196M2530 160L2522 192M2530 160L2544 241M-30 160L34 196M34 196L-38 192M34 196L4 271M34 196L-16 241M2594 196L2522 192M2594 196L2544 241M116 229L227 234M116 229L89 287M116 229L178 256M227 234L262 202M227 234L178 256M227 234L297 273M262 202L178 256M262 202L297 273M384 221L428 217M384 221L333 297M384 221L450 249M428 217L514 213M428 217L450 249M514 213L575 239M514 213L450 249M514 213L498 301M575 239L498 301M575 239L629 268M682 219L629 268M682 219L700 265M682 219L728 262M789 186L810 222M789 186L813 260M810 222L813 260M810 222L875 320M960 173L1013 234M960 173L958 273M1013 234L1095 235M1013 234L958 273M1013 234L994 297M1013 234L1061 247M1095 235L1149 205M1095 235L1061 247M1095 235L1125 288M1149 205L1125 288M1275 205L1297 191M1275 205L1315 301M1275 205L1383 247M1297 191L1381 233M1297 191L1383 247M1381 233L1315 301M1381 233L1383 247M1381 233L1427 334M1496 204L1562 186M1496 204L1602 224M1496 204L1500 270M1562 186L1602 224M1562 186L1620 246M1602 224L1620 246M1602 224L1696 301M1759 170L1826 164M1759 170L1849 163M1826 164L1849 163M1968 208L2028 219M1968 208L1893 258M1968 208L1953 272M2028 219L2097 177M2028 219L1953 272M2028 219L2075 251M2028 219L2120 268M2097 177L2075 251M2097 177L2120 268M2192 177L2259 235M2259 235L2290 298M2398 215L2406 213M2398 215L2360 243M2398 215L2428 269M2406 213L2360 243M2406 213L2428 269M2522 192L2564 271M2522 192L2544 241M-38 192L4 271M4 271L-16 241M4 271L6 327M4 271L-2 320M2564 271L2544 241M2564 271L2558 320M89 287L178 256M89 287L6 327M89 287L139 350M89 287L-2 320M2649 287L2558 320M297 273L333 297M297 273L256 336M297 273L328 341M333 297L256 336M333 297L328 341M333 297L407 334M450 249L498 301M450 249L407 334M498 301L407 334M498 301L540 377M629 268L700 265M629 268L728 262M700 265L728 262M700 265L764 333M728 262L813 260M728 262L764 333M813 260L764 333M813 260L875 320M958 273L994 297M958 273L875 320M958 273L941 354M994 297L1061 247M994 297L941 354M994 297L997 383M1061 247L1125 288M1125 288L1205 339M1239 314L1315 301M1239 314L1191 379M1239 314L1205 339M1315 301L1383 247M1315 301L1312 396M1383 247L1427 334M1500 270L1541 317M1500 270L1427 334M1541 317L1620 246M1541 317L1495 369M1541 317L1570 383M1620 246L1696 301M1696 301L1783 282M1696 301L1634 388M1696 301L1742 353M1783 282L1742 353M1783 282L1839 343M1893 258L1953 272M1893 258L1839 343M1893 258L1878 335M1953 272L1878 335M1953 272L1992 343M2075 251L2120 268M2075 251L2168 311M2120 268L2168 311M2168 311L2099 366M2168 311L2168 389M2168 311L2156 408M2290 298L2360 243M2290 298L2315 341M2290 298L2351 343M2360 243L2428 269M2360 243L2351 343M2428 269L2351 343M2544 241L2558 320M6 327L-2 320M6 327L23 418M2566 327L2558 320M139 350L178 354M139 350L112 440M139 350L181 408M178 354L256 336M178 354L181 408M178 354L258 407M256 336L328 341M256 336L258 407M328 341L407 334M328 341L258 407M407 334L394 451M540 377L608 378M540 377L525 435M540 377L638 436M608 378L665 376M608 378L525 435M608 378L638 436M608 378L688 401M665 376L764 333M665 376L638 436M665 376L688 401M665 376L682 483M764 333L780 426M875 320L941 354M875 320L958 404M941 354L997 383M941 354L958 404M997 383L958 404M997 383L1026 417M1117 394L1191 379M1117 394L1026 417M1117 394L1076 467M1117 394L1175 434M1191 379L1205 339M1191 379L1175 434M1191 379L1246 430M1205 339L1175 434M1312 396L1246 430M1312 396L1324 442M1312 396L1384 446M1427 334L1495 369M1427 334L1445 401M1495 369L1570 383M1495 369L1445 401M1495 369L1539 440M1570 383L1634 388M1570 383L1539 440M1570 383L1610 432M1634 388L1610 432M1634 388L1674 486M1839 343L1878 335M1839 343L1837 426M1839 343L1862 426M1878 335L1837 426M1992 343L2012 384M1992 343L1943 415M2012 384L2099 366M2012 384L1943 415M2012 384L2073 447M2099 366L2168 389M2099 366L2073 447M2099 366L2156 408M2168 389L2156 408M2168 389L2170 468M2168 389L2256 422M2315 341L2351 343M2315 341L2403 390M2315 341L2256 422M2351 343L2403 390M2403 390L2374 465M2403 390L2400 469M2558 320L2583 418M-2 320L23 418M23 418L112 440M23 418L-44 453M23 418L22 514M2583 418L2516 453M112 440L181 408M112 440L118 486M181 408L258 407M181 408L118 486M258 407L291 491M394 451L421 459M394 451L291 491M394 451L395 553M394 451L477 488M421 459L525 435M421 459L395 553M421 459L477 488M421 459L517 504M525 435L477 488M525 435L517 504M638 436L688 401M638 436L682 483M688 401L780 426M688 401L682 483M780 426L831 460M780 426L797 489M780 426L829 484M831 460L797 489M831 460L829 484M958 404L1026 417M958 404L993 508M1026 417L1076 467M1026 417L993 508M1076 467L1175 434M1076 467L993 508M1076 467L1110 546M1175 434L1246 430M1246 430L1324 442M1246 430L1319 492M1324 442L1384 446M1324 442L1319 492M1384 446L1445 401M1384 446L1319 492M1384 446L1404 502M1445 401L1476 511M1539 440L1610 432M1539 440L1476 511M1539 440L1535 516M1610 432L1535 516M1610 432L1674 486M1745 476L1674 486M1745 476L1704 557M1745 476L1818 489M1837 426L1862 426M1837 426L1818 489M1837 426L1861 489M1862 426L1943 415M1862 426L1818 489M1862 426L1861 489M1943 415L1861 489M1943 415L1972 528M2073 447L2156 408M2073 447L2170 468M2073 447L2065 492M2156 408L2170 468M2170 468L2256 422M2170 468L2188 535M2256 422L2267 508M2374 465L2400 469M2374 465L2368 519M2374 465L2468 505M2374 465L2349 573M2400 469L2368 519M2400 469L2468 505M2516 453L2582 514M2516 453L2468 505M2516 453L2558 544M-44 453L22 514M22 514L-2 544M22 514L48 606M22 514L82 584M2582 514L2558 544M118 486L186 543M186 543L291 491M186 543L82 584M186 543L160 612M186 543L243 609M291 491L243 609M291 491L376 582M395 553L477 488M395 553L376 582M395 553L430 628M477 488L517 504M517 504L599 535M599 535L682 483M599 535L571 614M599 535L652 591M682 483L797 489M797 489L829 484M797 489L846 601M829 484L956 531M829 484L846 601M956 531L993 508M956 531L932 575M956 531L974 617M993 508L932 575M1110 546L1168 557M1110 546L1103 608M1110 546L1123 622M1110 546L1111 665M1168 557L1278 550M1168 557L1103 608M1168 557L1123 622M1168 557L1238 584M1278 550L1319 492M1278 550L1238 584M1278 550L1282 578M1319 492L1404 502M1404 502L1476 511M1476 511L1535 516M1476 511L1511 582M1535 516L1511 582M1674 486L1704 557M1704 557L1673 627M1704 557L1696 597M1818 489L1861 489M1818 489L1806 606M1972 528L2065 492M1972 528L1900 607M1972 528L1985 590M1972 528L2037 603M2065 492L2101 554M2101 554L2188 535M2101 554L2037 603M2101 554L2129 587M2188 535L2267 508M2188 535L2129 587M2188 535L2202 566M2267 508L2202 566M2368 519L2349 573M2468 505L2461 569M2558 544L2608 606M2558 544L2461 569M2558 544L2500 608M-2 544L48 606M48 606L82 584M48 606L-60 608M48 606L24 691M2608 606L2500 608M82 584L160 612M160 612L243 609M160 612L146 717M160 612L186 675M243 609L186 675M243 609L315 690M376 582L430 628M430 628L519 618M430 628L434 677M519 618L571 614M519 618L434 677M519 618L516 674M571 614L652 591M571 614L516 674M571 614L584 718M652 591L746 638M746 638L753 718M846 601L932 575M846 601L819 702M932 575L974 617M932 575L915 661M974 617L915 661M974 617L995 674M974 617L966 725M1103 608L1123 622M1103 608L1111 665M1103 608L1134 682M1123 622L1111 665M1123 622L1134 682M1238 584L1282 578M1238 584L1246 701M1238 584L1283 667M1282 578L1372 632M1282 578L1283 667M1372 632L1283 667M1372 632L1400 678M1372 632L1357 729M1511 582L1589 621M1511 582L1533 665M1589 621L1673 627M1589 621L1533 665M1589 621L1614 670M1673 627L1696 597M1673 627L1614 670M1673 627L1733 652M1696 597L1806 606M1696 597L1733 652M1696 597L1776 652M1806 606L1900 607M1806 606L1733 652M1806 606L1776 652M1900 607L1985 590M1900 607L1915 711M1900 607L1945 664M1985 590L2037 603M1985 590L1945 664M2037 603L2087 675M2129 587L2202 566M2129 587L2087 675M2129 587L2194 647M2202 566L2268 625M2202 566L2194 647M2268 625L2349 573M2268 625L2194 647M2268 625L2250 660M2349 573L2461 569M2349 573L2389 668M2461 569L2500 608M2461 569L2515 657M2500 608L2424 681M2500 608L2515 657M24 691L-45 657M24 691L101 750M24 691L-31 783M24 691L9 801M2584 691L2515 657M2584 691L2529 783M146 717L186 675M146 717L101 750M146 717L186 733M146 717L142 840M186 675L186 733M315 690L329 713M315 690L289 777M315 690L365 767M329 713L434 677M329 713L289 777M329 713L365 767M434 677L516 674M434 677L448 762M516 674L584 718M516 674L559 744M584 718L642 712M584 718L559 744M584 718L605 786M642 712L753 718M642 712L559 744M642 712L605 786M642 712L688 748M753 718L819 702M753 718L688 748M753 718L762 775M819 702L762 775M819 702L852 748M819 702L916 743M915 661L995 674M915 661L916 743M915 661L966 725M995 674L1111 665M995 674L966 725M1111 665L1134 682M1134 682L1246 701M1134 682L1114 796M1246 701L1283 667M1246 701L1224 761M1283 667L1357 729M1400 678L1480 692M1400 678L1357 729M1400 678L1422 766M1400 678L1469 745M1480 692L1533 665M1480 692L1422 766M1480 692L1469 745M1480 692L1553 770M1533 665L1614 670M1733 652L1776 652M1733 652L1790 722M1776 652L1790 722M1915 711L1945 664M1915 711L1910 797M1915 711L1950 745M1945 664L2029 708M1945 664L1950 745M2029 708L2087 675M2029 708L1950 745M2029 708L2070 779M2029 708L2122 747M2087 675L2122 747M2194 647L2250 660M2194 647L2195 732M2250 660L2195 732M2250 660L2246 741M2250 660L2321 740M2389 668L2424 681M2389 668L2321 740M2389 668L2421 772M2424 681L2515 657M2424 681L2421 772M13 794L101 750M13 794L-31 783M13 794L9 801M13 794L-57 867M2573 794L2529 783M2573 794L2503 867M101 750L186 733M101 750L9 801M289 777L365 767M289 777L289 870M289 777L328 843M365 767L448 762M365 767L328 843M448 762L559 744M448 762L449 852M448 762L492 835M559 744L605 786M605 786L605 854M605 786L660 841M688 748L762 775M762 775L852 748M762 775L757 878M852 748L916 743M852 748L876 812M916 743L966 725M916 743L876 812M1114 796L1178 794M1114 796L1023 834M1114 796L1112 826M1114 796L1196 814M1178 794L1224 761M1178 794L1112 826M1178 794L1196 814M1178 794L1258 825M1224 761L1196 814M1224 761L1258 825M1357 729L1422 766M1422 766L1469 745M1422 766L1502 836M1469 745L1553 770M1469 745L1502 836M1553 770L1502 836M1553 770L1552 844M1669 798L1743 785M1669 798L1674 825M1669 798L1719 800M1669 798L1729 885M1743 785L1790 722M1743 785L1674 825M1743 785L1719 800M1743 785L1809 805M1790 722L1809 805M1910 797L1950 745M1910 797L1902 869M1910 797L1976 800M1950 745L1976 800M2070 779L2122 747M2070 779L1976 800M2070 779L2034 806M2070 779L2146 853M2122 747L2195 732M2122 747L2146 853M2195 732L2246 741M2195 732L2170 838M2246 741L2321 740M2246 741L2318 826M2321 740L2318 826M2321 740L2364 818M2421 772L2364 818M2421 772L2453 844M2529 783L2569 801M2529 783L2453 844M2529 783L2503 867M-31 783L9 801M9 801L-57 867M2569 801L2503 867M142 840L185 878M142 840L54 910M142 840L96 891M185 878L289 870M185 878L96 891M185 878L217 950M185 878L153 996M289 870L328 843M289 870L319 908M289 870L358 936M328 843L319 908M328 843L358 936M449 852L492 835M449 852L415 897M449 852L507 922M492 835L415 897M492 835L507 922M605 854L660 841M605 854L635 916M605 854L657 893M660 841L757 878M660 841L635 916M660 841L657 893M757 878L657 893M757 878L789 936M757 878L818 960M876 812L936 878M876 812L935 889M936 878L1023 834M936 878L935 889M1023 834L1112 826M1023 834L935 889M1023 834L1035 930M1112 826L1196 814M1112 826L1079 920M1196 814L1258 825M1258 825L1239 916M1258 825L1282 901M1358 861L1390 866M1358 861L1361 895M1390 866L1361 895M1390 866L1481 887M1502 836L1552 844M1502 836L1481 887M1552 844L1481 887M1552 844L1537 943M1552 844L1606 894M1674 825L1719 800M1674 825L1606 894M1674 825L1729 885M1719 800L1809 805M1719 800L1729 885M1809 805L1809 897M1902 869L1976 800M1902 869L1809 897M1902 869L1894 942M1902 869L1949 954M1976 800L2034 806M2146 853L2170 838M2146 853L2118 895M2170 838L2118 895M2318 826L2364 818M2364 818L2384 911M2453 844L2503 867M2453 844L2384 911M2453 844L2517 919M2503 867L2517 919M54 910L96 891M54 910L-43 919M2614 910L2517 919M217 950L153 996M217 950L193 1026M217 950L275 1017M319 908L358 936M319 908L415 897M319 908L321 1006M358 936L415 897M358 936L321 1006M415 897L507 922M507 922L539 983M507 922L580 973M635 916L657 893M635 916L580 973M789 936L818 960M789 936L721 979M789 936L830 970M818 960L721 979M818 960L830 970M818 960L761 1047M935 889L1035 930M935 889L968 989M1035 930L1079 920M1035 930L968 989M1035 930L1067 968M1079 920L1200 914M1079 920L1067 968M1079 920L1160 974M1200 914L1239 916M1200 914L1282 901M1200 914L1160 974M1200 914L1276 980M1239 916L1282 901M1239 916L1160 974M1239 916L1276 980M1282 901L1361 895M1282 901L1276 980M1481 887L1537 943M1481 887L1480 981M1537 943L1606 894M1537 943L1480 981M1537 943L1565 968M1606 894L1565 968M1606 894L1653 968M1729 885L1809 897M1729 885L1752 966M1809 897L1894 942M1809 897L1752 966M1894 942L1949 954M1894 942L1836 1010M1894 942L1944 977M1949 954L1944 977M2079 946L2118 895M2079 946L2055 998M2079 946L2171 969M2118 895L2217 947M2118 895L2171 969M2217 947L2300 958M2217 947L2160 1008M2217 947L2171 969M2217 947L2243 968M2300 958L2384 911M2300 958L2243 968M2300 958L2331 987M2384 911L2424 938M2384 911L2331 987M2424 938L2517 919M2424 938L2331 987M2424 938L2404 1016M39 1021L-22 1039M39 1021L52 1059M39 1021L101 1084M2599 1021L2538 1039M153 996L193 1026M153 996L101 1084M193 1026L275 1017M193 1026L239 1070M193 1026L263 1088M275 1017L321 1006M275 1017L239 1070M275 1017L263 1088M321 1006L239 1070M321 1006L263 1088M442 1031L539 983M442 1031L369 1115M442 1031L457 1071M442 1031L493 1114M539 983L580 973M580 973L683 1026M683 1026L721 979M683 1026L609 1095M683 1026L761 1047M721 979L830 970M721 979L761 1047M830 970L761 1047M830 970L853 1070M935 1031L968 989M935 1031L853 1070M935 1031L916 1063M968 989L1067 968M968 989L916 1063M1067 968L1160 974M1067 968L1138 1051M1160 974L1138 1051M1276 980L1307 1036M1276 980L1265 1066M1307 1036L1406 1022M1307 1036L1265 1066M1307 1036L1306 1094M1307 1036L1399 1071M1406 1022L1480 981M1406 1022L1399 1071M1480 981L1565 968M1565 968L1653 968M1565 968L1605 1057M1653 968L1752 966M1752 966L1836 1010M1752 966L1847 1012M1836 1010L1847 1012M1836 1010L1776 1081M1836 1010L1916 1051M1847 1012L1944 977M1847 1012L1776 1081M1847 1012L1916 1051M1944 977L1916 1051M1944 977L1993 1088M2055 998L2080 1042M2055 998L2121 1047M2160 1008L2171 969M2160 1008L2243 968M2160 1008L2080 1042M2160 1008L2121 1047M2171 969L2243 968M2243 968L2331 987M2331 987L2404 1016M2404 1016L2411 1085M2404 1016L2498 1045M2538 1039L2612 1059M2538 1039L2498 1045M-22 1039L52 1059M52 1059L101 1084M52 1059L-62 1045M52 1059L28 1121M2612 1059L2498 1045M101 1084L28 1121M101 1084L86 1190M239 1070L263 1088M239 1070L202 1163M263 1088L202 1163M369 1115L457 1071M369 1115L294 1183M369 1115L326 1178M369 1115L416 1170M457 1071L493 1114M457 1071L496 1149M493 1114L416 1170M493 1114L496 1149M493 1114L542 1203M609 1095L675 1116M609 1095L588 1186M609 1095L657 1146M675 1116L657 1146M675 1116L722 1197M761 1047L853 1070M853 1070L916 1063M853 1070L846 1192M916 1063L1013 1112M1013 1112L1087 1102M1013 1112L995 1179M1087 1102L1138 1051M1087 1102L995 1179M1087 1102L1062 1175M1087 1102L1126 1194M1265 1066L1306 1094M1265 1066L1252 1142M1306 1094L1252 1142M1306 1094L1348 1178M1306 1094L1384 1147M1399 1071L1493 1115M1399 1071L1384 1147M1493 1115L1597 1069M1493 1115L1469 1175M1493 1115L1588 1159M1597 1069L1605 1057M1597 1069L1681 1090M1597 1069L1588 1159M1605 1057L1681 1090M1681 1090L1776 1081M1681 1090L1661 1128M1681 1090L1692 1181M1776 1081L1834 1163M1776 1081L1851 1124M1916 1051L1993 1088M1916 1051L1936 1148M1993 1088L2080 1042M1993 1088L1936 1148M2080 1042L2121 1047M2121 1047L2161 1120M2121 1047L2113 1140M2161 1120L2243 1099M2161 1120L2113 1140M2161 1120L2169 1163M2161 1120L2160 1204M2243 1099L2342 1117M2243 1099L2169 1163M2243 1099L2288 1135M2342 1117L2411 1085M2342 1117L2288 1135M2342 1117L2350 1157M2342 1117L2413 1126M2411 1085L2498 1045M2411 1085L2350 1157M2411 1085L2413 1126M2498 1045L2413 1126M28 1121L86 1190M28 1121L-49 1175M28 1121L92 1200M2588 1121L2511 1175M86 1190L2 1273M86 1190L92 1200M202 1163L294 1183M202 1163L215 1258M202 1163L262 1245M294 1183L326 1178M294 1183L262 1245M326 1178L262 1245M326 1178L398 1253M416 1170L496 1149M416 1170L398 1253M416 1170L420 1215M496 1149L542 1203M588 1186L542 1203M588 1186L624 1205M588 1186L644 1202M657 1146L722 1197M657 1146L624 1205M657 1146L644 1202M722 1197L644 1202M722 1197L751 1255M846 1192L909 1200M846 1192L751 1255M846 1192L850 1255M846 1192L880 1209M909 1200L995 1179M909 1200L850 1255M909 1200L880 1209M995 1179L1062 1175M995 1179L1018 1236M1062 1175L1126 1194M1062 1175L1018 1236M1062 1175L1117 1224M1126 1194L1117 1224M1126 1194L1134 1239M1126 1194L1114 1297M1252 1142L1348 1178M1252 1142L1284 1225M1348 1178L1384 1147M1348 1178L1284 1225M1348 1178L1402 1221M1384 1147L1469 1175M1384 1147L1402 1221M1469 1175L1402 1221M1469 1175L1484 1276M1588 1159L1661 1128M1588 1159L1583 1242M1588 1159L1634 1202M1661 1128L1692 1181M1661 1128L1634 1202M1661 1128L1686 1207M1692 1181L1634 1202M1692 1181L1686 1207M1834 1163L1851 1124M1834 1163L1936 1148M1834 1163L1793 1270M1834 1163L1913 1256M1851 1124L1936 1148M1936 1148L1913 1256M2076 1168L2113 1140M2076 1168L2123 1245M2076 1168L2160 1204M2113 1140L2169 1163M2113 1140L2160 1204M2169 1163L2160 1204M2288 1135L2350 1157M2350 1157L2413 1126M2350 1157L2408 1204M2413 1126L2408 1204M2511 1175L2490 1250M2 1273L92 1200M2 1273L-70 1250M2 1273L24 1351M2 1273L-65 1313M2562 1273L2490 1250M2562 1273L2495 1313M92 1200L138 1302M215 1258L262 1245M215 1258L138 1302M215 1258L168 1351M215 1258L247 1326M262 1245L247 1326M398 1253L420 1215M398 1253L381 1332M398 1253L410 1340M542 1203L624 1205M624 1205L644 1202M624 1205L613 1280M644 1202L613 1280M751 1255L850 1255M751 1255L743 1288M850 1255L880 1209M850 1255L905 1332M1018 1236L1117 1224M1117 1224L1134 1239M1117 1224L1114 1297M1134 1239L1232 1272M1134 1239L1114 1297M1134 1239L1164 1326M1232 1272L1284 1225M1232 1272L1164 1326M1232 1272L1248 1314M1284 1225L1248 1314M1402 1221L1403 1286M1484 1276L1403 1286M1484 1276L1504 1309M1484 1276L1564 1282M1583 1242L1634 1202M1583 1242L1504 1309M1583 1242L1564 1282M1583 1242L1674 1295M1634 1202L1686 1207M1686 1207L1674 1295M1686 1207L1704 1301M1793 1270L1704 1301M1793 1270L1781 1293M1793 1270L1868 1307M1913 1256L1984 1261M1913 1256L1868 1307M1913 1256L1983 1284M1984 1261L2037 1252M1984 1261L1983 1284M1984 1261L2052 1347M1984 1261L2094 1282M2037 1252L2123 1245M2037 1252L1983 1284M2037 1252L2052 1347M2037 1252L2094 1282M2123 1245L2160 1204M2123 1245L2094 1282M2123 1245L2196 1292M2287 1278L2329 1254M2287 1278L2196 1292M2287 1278L2290 1303M2287 1278L2365 1286M2329 1254L2408 1204M2329 1254L2290 1303M2329 1254L2365 1286M2408 1204L2490 1250M2408 1204L2365 1286M2490 1250L2495 1313M2490 1250L2474 1361M24 1351L-65 1313M24 1351L45 1386M24 1351L-86 1361M24 1351L-19 1435M2584 1351L2495 1313M2584 1351L2474 1361M2584 1351L2541 1435M138 1302L168 1351M168 1351L247 1326M168 1351L126 1418M168 1351L233 1407M247 1326L233 1407M247 1326L259 1398M381 1332L410 1340M381 1332L501 1308M381 1332L395 1371M410 1340L501 1308M410 1340L395 1371M501 1308L613 1280M501 1308L395 1371M501 1308L547 1363M613 1280L687 1358M613 1280L547 1363M687 1358L743 1288M687 1358L615 1404M687 1358L668 1427M687 1358L753 1406M743 1288L804 1360M804 1360L905 1332M804 1360L753 1406M804 1360L840 1403M905 1332L840 1403M905 1332L910 1408M1019 1358L1016 1427M1019 1358L1084 1421M1114 1297L1164 1326M1114 1297L1140 1393M1164 1326L1248 1314M1164 1326L1140 1393M1248 1314L1316 1340M1248 1314L1229 1401M1316 1340L1403 1286M1316 1340L1229 1401M1316 1340L1334 1427M1316 1340L1374 1381M1403 1286L1504 1309M1403 1286L1374 1381M1504 1309L1564 1282M1504 1309L1536 1396M1674 1295L1704 1301M1674 1295L1781 1293M1674 1295L1625 1381M1704 1301L1781 1293M1704 1301L1625 1381M1781 1293L1868 1307M1868 1307L1881 1407M1983 1284L2052 1347M1983 1284L2044 1366M2052 1347L2094 1282M2052 1347L2044 1366M2094 1282L2044 1366M2196 1292L2290 1303M2196 1292L2154 1381M2196 1292L2237 1388M2290 1303L2365 1286M2290 1303L2320 1365M2365 1286L2320 1365M2449 1345L2495 1313M2449 1345L2474 1361M2495 1313L2474 1361M45 1386L126 1418M45 1386L-19 1435M2605 1386L2541 1435M233 1407L259 1398M395 1371L463 1436M547 1363L615 1404M615 1404L668 1427M668 1427L753 1406M840 1403L910 1408M910 1408L1016 1427M1016 1427L1084 1421M1084 1421L1140 1393M1140 1393L1229 1401M1334 1427L1374 1381M1374 1381L1463 1404M1463 1404L1536 1396M1536 1396L1625 1381M1758 1436L1820 1438M1820 1438L1881 1407M1881 1407L1965 1426M1965 1426L2044 1366M2154 1381L2237 1388M2237 1388L2263 1407M2237 1388L2320 1365M2263 1407L2320 1365"/></svg>