<svg xmlns="http://www.w3.org/2000/svg" width="2560" height="1440" fill="#fff"><circle cx="39" cy="76" r="6"/><circle cx="127" cy="33" r="4"/><circle cx="223" cy="64" r="5"/><circle cx="249" cy="61" r="5"/><circle cx="399" cy="6" r="5"/><circle cx="412" cy="77" r="6"/><circle cx="528" cy="11" r="6"/><circle cx="589" cy="14" r="5"/><circle cx="661" cy="50" r="6"/><circle cx="792" cy="78" r="5"/><circle cx="807" cy="69" r="4"/><circle cx="905" cy="54" r="4"/><circle cx="1037" cy="54" r="5"/><circle cx="1105" cy="64" r="6"/><circle cx="1123" cy="31" r="4"/><circle cx="1250" cy="22" r="4"/><circle cx="1320" cy="22" r="5"/><circle cx="1390" cy="56" r="6"/><circle cx="1480" cy="20" r="5"/><circle cx="1595" cy="50" r="4"/><circle cx="1660" cy="12" r="6"/><circle cx="1750" cy="20" r="4"/><circle cx="1811" cy="8" r="5"/><circle cx="1880" cy="74" r="5"/><circle cx="1948" cy="58" r="4"/><circle cx="2028" cy="66" r="5"/><circle cx="2107" cy="9" r="6"/><circle cx="2176" cy="35" r="6"/><circle cx="2256" cy="4" r="6"/><circle cx="2256" cy="1444" r="6"/><circle cx="2393" cy="51" r="4"/><circle cx="2462" cy="51" r="6"/><circle cx="2493" cy="74" r="6"/><circle cx="43" cy="125" r="4"/><circle cx="160" cy="117" r="5"/><circle cx="199" cy="110" r="5"/><circle cx="247" cy="160" r="4"/><circle cx="354" cy="85" r="6"/><circle cx="465" cy="106" r="4"/><circle cx="512" cy="93" r="5"/><circle cx="604" cy="98" r="6"/><circle cx="657" cy="155" r="4"/><circle cx="732" cy="123" r="5"/><circle cx="811" cy="148" r="6"/><circle cx="932" cy="120" r="6"/><circle cx="982" cy="136" r="5"/><circle cx="1106" cy="92" r="5"/><circle cx="1169" cy="96" r="5"/><circle cx="1223" cy="158" r="6"/><circle cx="1330" cy="118" r="4"/><circle cx="1437" cy="97" r="4"/><circle cx="1469" cy="122" r="5"/><circle cx="1552" cy="100" r="4"/><circle cx="1675" cy="129" r="6"/><circle cx="1712" cy="160" r="6"/><circle cx="1820" cy="116" r="5"/><circle cx="1861" cy="137" r="5"/><circle cx="1939" cy="150" r="6"/><circle cx="2057" cy="146" r="5"/><circle cx="2151" cy="87" r="4"/><circle cx="2198" cy="89" r="4"/><circle cx="2303" cy="91" r="4"/><circle cx="2370" cy="112" r="5"/><circle cx="2408" cy="151" r="5"/><circle cx="2545" cy="145" r="5"/><circle cx="57" cy="212" r="4"/><circle cx="130" cy="170" r="4"/><circle cx="192" cy="171" r="6"/><circle cx="309" cy="171" r="4"/><circle cx="347" cy="203" r="6"/><circle cx="459" cy="176" r="5"/><circle cx="489" cy="177" r="5"/><circle cx="638" cy="179" r="5"/><circle cx="660" cy="171" r="6"/><circle cx="790" cy="236" r="5"/><circle cx="854" cy="207" r="6"/><circle cx="890" cy="207" r="5"/><circle cx="1031" cy="166" r="5"/><circle cx="1049" cy="212" r="5"/><circle cx="1166" cy="192" r="4"/><circle cx="1204" cy="234" r="4"/><circle cx="1308" cy="220" r="4"/><circle cx="1399" cy="230" r="5"/><circle cx="1464" cy="183" r="4"/><circle cx="1553" cy="191" r="5"/><circle cx="1646" cy="231" r="4"/><circle cx="1704" cy="229" r="6"/><circle cx="1824" cy="229" r="4"/><circle cx="1893" cy="179" r="6"/><circle cx="1948" cy="167" r="5"/><circle cx="2036" cy="217" r="5"/><circle cx="2142" cy="187" r="6"/><circle cx="2218" cy="164" r="5"/><circle cx="2298" cy="216" r="5"/><circle cx="2374" cy="215" r="5"/><circle cx="2413" cy="217" r="6"/><circle cx="2547" cy="174" r="5"/><circle cx="6" cy="246" r="5"/><circle cx="117" cy="293" r="5"/><circle cx="218" cy="265" r="5"/><circle cx="292" cy="248" r="5"/><circle cx="348" cy="263" r="5"/><circle cx="444" cy="269" r="5"/><circle cx="533" cy="305" r="4"/><circle cx="561" cy="275" r="5"/><circle cx="715" cy="268" r="6"/><circle cx="784" cy="298" r="4"/><circle cx="808" cy="271" r="6"/><circle cx="959" cy="298" r="5"/><circle cx="1027" cy="242" r="5"/><circle cx="1053" cy="262" r="4"/><circle cx="1179" cy="296" r="5"/><circle cx="1211" cy="292" r="5"/><circle cx="1296" cy="283" r="5"/><circle cx="1433" cy="256" r="5"/><circle cx="1467" cy="263" r="5"/><circle cx="1574" cy="282" r="5"/><circle cx="1670" cy="315" r="5"/><circle cx="1736" cy="263" r="4"/><circle cx="1787" cy="286" r="6"/><circle cx="1898" cy="271" r="4"/><circle cx="1954" cy="301" r="5"/><circle cx="2050" cy="266" r="6"/><circle cx="2115" cy="299" r="6"/><circle cx="2227" cy="284" r="5"/><circle cx="2252" cy="290" r="5"/><circle cx="2391" cy="303" r="6"/><circle cx="2411" cy="316" r="4"/><circle cx="2556" cy="288" r="6"/><circle cx="-4" cy="288" r="6"/><circle cx="25" cy="340" r="6"/><circle cx="103" cy="358" r="6"/><circle cx="232" cy="370" r="5"/><circle cx="298" cy="329" r="6"/><circle cx="322" cy="352" r="5"/><circle cx="470" cy="377" r="6"/><circle cx="513" cy="328" r="5"/><circle cx="626" cy="376" r="6"/><circle cx="680" cy="321" r="5"/><circle cx="747" cy="330" r="5"/><circle cx="853" cy="333" r="4"/><circle cx="957" cy="366" r="4"/><circle cx="995" cy="363" r="4"/><circle cx="1101" cy="387" r="4"/><circle cx="1198" cy="384" r="4"/><circle cx="1203" cy="334" r="6"/><circle cx="1293" cy="374" r="6"/><circle cx="1379" cy="393" r="5"/><circle cx="1455" cy="323" r="6"/><circle cx="1596" cy="392" r="6"/><circle cx="1626" cy="337" r="6"/><circle cx="1735" cy="349" r="4"/><circle cx="1820" cy="395" r="4"/><circle cx="1884" cy="349" r="5"/><circle cx="1931" cy="393" r="5"/><circle cx="2042" cy="393" r="5"/><circle cx="2121" cy="386" r="4"/><circle cx="2172" cy="397" r="6"/><circle cx="2312" cy="368" r="6"/><circle cx="2353" cy="346" r="5"/><circle cx="2417" cy="335" r="5"/><circle cx="2556" cy="376" r="5"/><circle cx="-4" cy="376" r="5"/><circle cx="59" cy="444" r="5"/><circle cx="111" cy="429" r="4"/><circle cx="184" cy="469" r="4"/><circle cx="275" cy="479" r="5"/><circle cx="343" cy="431" r="5"/><circle cx="467" cy="407" r="5"/><circle cx="527" cy="430" r="6"/><circle cx="590" cy="443" r="5"/><circle cx="698" cy="469" r="4"/><circle cx="757" cy="476" r="5"/><circle cx="837" cy="444" r="5"/><circle cx="914" cy="460" r="5"/><circle cx="992" cy="401" r="5"/><circle cx="1109" cy="469" r="5"/><circle cx="1198" cy="480" r="6"/><circle cx="1231" cy="446" r="4"/><circle cx="1340" cy="471" r="5"/><circle cx="1378" cy="456" r="5"/><circle cx="1450" cy="461" r="4"/><circle cx="1578" cy="407" r="5"/><circle cx="1638" cy="434" r="4"/><circle cx="1757" cy="458" r="5"/><circle cx="1780" cy="420" r="5"/><circle cx="1877" cy="469" r="5"/><circle cx="1938" cy="456" r="4"/><circle cx="2026" cy="441" r="4"/><circle cx="2097" cy="430" r="5"/><circle cx="2209" cy="476" r="6"/><circle cx="2286" cy="465" r="6"/><circle cx="2367" cy="460" r="5"/><circle cx="2451" cy="433" r="5"/><circle cx="2533" cy="437" r="4"/><circle cx="72" cy="513" r="5"/><circle cx="112" cy="559" r="5"/><circle cx="172" cy="543" r="4"/><circle cx="281" cy="485" r="6"/><circle cx="368" cy="518" r="5"/><circle cx="426" cy="550" r="6"/><circle cx="491" cy="505" r="6"/><circle cx="635" cy="494" r="6"/><circle cx="672" cy="532" r="5"/><circle cx="753" cy="540" r="5"/><circle cx="838" cy="489" r="5"/><circle cx="925" cy="539" r="5"/><circle cx="1014" cy="520" r="5"/><circle cx="1065" cy="491" r="4"/><circle cx="1127" cy="539" r="5"/><circle cx="1275" cy="520" r="6"/><circle cx="1285" cy="540" r="5"/><circle cx="1428" cy="512" r="4"/><circle cx="1465" cy="508" r="5"/><circle cx="1596" cy="482" r="5"/><circle cx="1625" cy="533" r="4"/><circle cx="1719" cy="557" r="5"/><circle cx="1836" cy="553" r="5"/><circle cx="1877" cy="500" r="5"/><circle cx="1934" cy="504" r="6"/><circle cx="2021" cy="521" r="5"/><circle cx="2148" cy="517" r="5"/><circle cx="2231" cy="548" r="5"/><circle cx="2293" cy="516" r="6"/><circle cx="2327" cy="539" r="5"/><circle cx="2470" cy="533" r="4"/><circle cx="2522" cy="526" r="5"/><circle cx="19" cy="596" r="5"/><circle cx="107" cy="590" r="4"/><circle cx="170" cy="627" r="5"/><circle cx="243" cy="563" r="4"/><circle cx="376" cy="617" r="5"/><circle cx="427" cy="621" r="5"/><circle cx="527" cy="620" r="5"/><circle cx="635" cy="627" r="5"/><circle cx="717" cy="572" r="4"/><circle cx="749" cy="631" r="6"/><circle cx="829" cy="637" r="6"/><circle cx="909" cy="622" r="5"/><circle cx="962" cy="564" r="4"/><circle cx="1049" cy="575" r="6"/><circle cx="1148" cy="607" r="5"/><circle cx="1219" cy="639" r="4"/><circle cx="1344" cy="569" r="4"/><circle cx="1379" cy="629" r="5"/><circle cx="1479" cy="572" r="4"/><circle cx="1570" cy="610" r="5"/><circle cx="1631" cy="620" r="6"/><circle cx="1713" cy="578" r="4"/><circle cx="1807" cy="563" r="5"/><circle cx="1870" cy="588" r="6"/><circle cx="1992" cy="609" r="4"/><circle cx="2058" cy="624" r="5"/><circle cx="2100" cy="612" r="4"/><circle cx="2235" cy="582" r="5"/><circle cx="2294" cy="594" r="5"/><circle cx="2388" cy="585" r="4"/><circle cx="2415" cy="638" r="4"/><circle cx="2550" cy="617" r="5"/><circle cx="32" cy="665" r="5"/><circle cx="91" cy="643" r="5"/><circle cx="195" cy="712" r="5"/><circle cx="272" cy="714" r="4"/><circle cx="324" cy="699" r="5"/><circle cx="405" cy="689" r="5"/><circle cx="514" cy="717" r="4"/><circle cx="633" cy="717" r="5"/><circle cx="678" cy="706" r="5"/><circle cx="792" cy="660" r="4"/><circle cx="822" cy="650" r="5"/><circle cx="923" cy="666" r="6"/><circle cx="1013" cy="715" r="5"/><circle cx="1071" cy="643" r="4"/><circle cx="1153" cy="711" r="4"/><circle cx="1272" cy="695" r="6"/><circle cx="1284" cy="716" r="4"/><circle cx="1390" cy="682" r="5"/><circle cx="1449" cy="697" r="5"/><circle cx="1589" cy="679" r="5"/><circle cx="1602" cy="664" r="6"/><circle cx="1719" cy="708" r="4"/><circle cx="1830" cy="717" r="4"/><circle cx="1873" cy="690" r="5"/><circle cx="1950" cy="660" r="5"/><circle cx="2021" cy="677" r="5"/><circle cx="2106" cy="650" r="4"/><circle cx="2166" cy="690" r="5"/><circle cx="2309" cy="679" r="5"/><circle cx="2339" cy="678" r="6"/><circle cx="2477" cy="686" r="5"/><circle cx="2516" cy="705" r="5"/><circle cx="40" cy="736" r="5"/><circle cx="130" cy="751" r="5"/><circle cx="175" cy="787" r="6"/><circle cx="241" cy="755" r="5"/><circle cx="395" cy="727" r="6"/><circle cx="407" cy="786" r="4"/><circle cx="553" cy="755" r="5"/><circle cx="567" cy="797" r="5"/><circle cx="673" cy="798" r="5"/><circle cx="748" cy="765" r="5"/><circle cx="833" cy="778" r="4"/><circle cx="942" cy="760" r="6"/><circle cx="1028" cy="777" r="4"/><circle cx="1093" cy="723" r="4"/><circle cx="1190" cy="786" r="5"/><circle cx="1254" cy="750" r="6"/><circle cx="1314" cy="762" r="4"/><circle cx="1415" cy="748" r="5"/><circle cx="1498" cy="754" r="6"/><circle cx="1573" cy="754" r="5"/><circle cx="1622" cy="756" r="6"/><circle cx="1717" cy="781" r="4"/><circle cx="1776" cy="724" r="5"/><circle cx="1865" cy="795" r="4"/><circle cx="1922" cy="743" r="6"/><circle cx="2011" cy="767" r="5"/><circle cx="2120" cy="774" r="5"/><circle cx="2205" cy="794" r="5"/><circle cx="2319" cy="738" r="6"/><circle cx="2393" cy="724" r="6"/><circle cx="2401" cy="786" r="4"/><circle cx="2546" cy="795" r="6"/><circle cx="52" cy="868" r="5"/><circle cx="97" cy="826" r="5"/><circle cx="204" cy="856" r="6"/><circle cx="242" cy="850" r="6"/><circle cx="338" cy="873" r="4"/><circle cx="402" cy="834" r="4"/><circle cx="557" cy="863" r="5"/><circle cx="609" cy="828" r="6"/><circle cx="647" cy="879" r="5"/><circle cx="743" cy="813" r="6"/><circle cx="867" cy="827" r="5"/><circle cx="910" cy="830" r="6"/><circle cx="1009" cy="871" r="6"/><circle cx="1103" cy="826" r="5"/><circle cx="1165" cy="836" r="4"/><circle cx="1218" cy="878" r="6"/><circle cx="1310" cy="846" r="5"/><circle cx="1439" cy="852" r="5"/><circle cx="1497" cy="872" r="5"/><circle cx="1543" cy="866" r="4"/><circle cx="1601" cy="867" r="4"/><circle cx="1758" cy="810" r="5"/><circle cx="1811" cy="876" r="5"/><circle cx="1851" cy="807" r="5"/><circle cx="1958" cy="846" r="5"/><circle cx="2071" cy="875" r="5"/><circle cx="2139" cy="837" r="6"/><circle cx="2218" cy="854" r="5"/><circle cx="2251" cy="863" r="6"/><circle cx="2338" cy="856" r="5"/><circle cx="2427" cy="811" r="5"/><circle cx="2483" cy="865" r="6"/><circle cx="23" cy="908" r="5"/><circle cx="99" cy="925" r="4"/><circle cx="161" cy="949" r="4"/><circle cx="308" cy="887" r="5"/><circle cx="394" cy="928" r="4"/><circle cx="410" cy="926" r="5"/><circle cx="496" cy="928" r="4"/><circle cx="594" cy="902" r="4"/><circle cx="680" cy="905" r="5"/><circle cx="779" cy="937" r="5"/><circle cx="870" cy="954" r="5"/><circle cx="929" cy="957" r="6"/><circle cx="1011" cy="931" r="5"/><circle cx="1094" cy="886" r="5"/><circle cx="1185" cy="891" r="6"/><circle cx="1242" cy="919" r="5"/><circle cx="1310" cy="905" r="5"/><circle cx="1420" cy="920" r="4"/><circle cx="1486" cy="939" r="5"/><circle cx="1572" cy="881" r="6"/><circle cx="1606" cy="931" r="4"/><circle cx="1715" cy="947" r="4"/><circle cx="1787" cy="919" r="6"/><circle cx="1899" cy="936" r="5"/><circle cx="1939" cy="920" r="5"/><circle cx="2075" cy="952" r="4"/><circle cx="2100" cy="951" r="6"/><circle cx="2214" cy="929" r="5"/><circle cx="2265" cy="952" r="4"/><circle cx="2395" cy="915" r="4"/><circle cx="2461" cy="924" r="5"/><circle cx="2502" cy="889" r="5"/><circle cx="32" cy="1020" r="5"/><circle cx="139" cy="973" r="6"/><circle cx="206" cy="966" r="5"/><circle cx="290" cy="971" r="5"/><circle cx="334" cy="1037" r="5"/><circle cx="405" cy="1003" r="6"/><circle cx="552" cy="973" r="5"/><circle cx="566" cy="1040" r="4"/><circle cx="657" cy="1024" r="6"/><circle cx="750" cy="990" r="5"/><circle cx="854" cy="1014" r="6"/><circle cx="958" cy="989" r="5"/><circle cx="1021" cy="999" r="4"/><circle cx="1043" cy="973" r="6"/><circle cx="1125" cy="978" r="5"/><circle cx="1263" cy="999" r="6"/><circle cx="1343" cy="993" r="4"/><circle cx="1401" cy="975" r="5"/><circle cx="1519" cy="1034" r="5"/><circle cx="1540" cy="991" r="6"/><circle cx="1671" cy="985" r="4"/><circle cx="1704" cy="1039" r="5"/><circle cx="1836" cy="992" r="5"/><circle cx="1907" cy="1020" r="5"/><circle cx="1987" cy="989" r="4"/><circle cx="2033" cy="1036" r="5"/><circle cx="2100" cy="1032" r="5"/><circle cx="2217" cy="1034" r="5"/><circle cx="2271" cy="992" r="5"/><circle cx="2387" cy="1020" r="4"/><circle cx="2461" cy="1021" r="5"/><circle cx="2520" cy="1037" r="4"/><circle cx="27" cy="1054" r="5"/><circle cx="120" cy="1046" r="4"/><circle cx="219" cy="1109" r="5"/><circle cx="283" cy="1094" r="4"/><circle cx="368" cy="1051" r="5"/><circle cx="472" cy="1119" r="5"/><circle cx="532" cy="1084" r="5"/><circle cx="564" cy="1045" r="4"/><circle cx="657" cy="1077" r="5"/><circle cx="745" cy="1084" r="5"/><circle cx="874" cy="1099" r="4"/><circle cx="928" cy="1110" r="5"/><circle cx="1005" cy="1098" r="4"/><circle cx="1098" cy="1109" r="6"/><circle cx="1166" cy="1062" r="4"/><circle cx="1256" cy="1104" r="5"/><circle cx="1351" cy="1105" r="5"/><circle cx="1414" cy="1067" r="5"/><circle cx="1493" cy="1074" r="6"/><circle cx="1534" cy="1067" r="5"/><circle cx="1674" cy="1098" r="5"/><circle cx="1745" cy="1112" r="6"/><circle cx="1837" cy="1048" r="6"/><circle cx="1902" cy="1111" r="5"/><circle cx="1967" cy="1112" r="5"/><circle cx="2076" cy="1052" r="6"/><circle cx="2082" cy="1099" r="5"/><circle cx="2183" cy="1109" r="4"/><circle cx="2261" cy="1072" r="5"/><circle cx="2381" cy="1052" r="5"/><circle cx="2404" cy="1064" r="6"/><circle cx="2528" cy="1072" r="6"/><circle cx="61" cy="1166" r="5"/><circle cx="145" cy="1145" r="4"/><circle cx="227" cy="1172" r="5"/><circle cx="269" cy="1151" r="6"/><circle cx="381" cy="1193" r="5"/><circle cx="477" cy="1125" r="4"/><circle cx="506" cy="1147" r="5"/><circle cx="578" cy="1161" r="5"/><circle cx="705" cy="1197" r="5"/><circle cx="739" cy="1175" r="6"/><circle cx="845" cy="1187" r="6"/><circle cx="891" cy="1138" r="5"/><circle cx="981" cy="1168" r="4"/><circle cx="1111" cy="1199" r="6"/><circle cx="1126" cy="1165" r="4"/><circle cx="1248" cy="1144" r="5"/><circle cx="1331" cy="1168" r="6"/><circle cx="1387" cy="1159" r="5"/><circle cx="1451" cy="1190" r="5"/><circle cx="1535" cy="1147" r="5"/><circle cx="1602" cy="1128" r="5"/><circle cx="1697" cy="1179" r="5"/><circle cx="1760" cy="1193" r="5"/><circle cx="1842" cy="1163" r="5"/><circle cx="1922" cy="1168" r="5"/><circle cx="2027" cy="1184" r="4"/><circle cx="2134" cy="1150" r="6"/><circle cx="2173" cy="1151" r="5"/><circle cx="2284" cy="1183" r="5"/><circle cx="2381" cy="1151" r="5"/><circle cx="2463" cy="1132" r="6"/><circle cx="2530" cy="1121" r="6"/><circle cx="0" cy="1270" r="5"/><circle cx="2560" cy="1270" r="5"/><circle cx="138" cy="1208" r="4"/><circle cx="226" cy="1235" r="5"/><circle cx="303" cy="1219" r="6"/><circle cx="370" cy="1263" r="5"/><circle cx="440" cy="1227" r="4"/><circle cx="490" cy="1276" r="4"/><circle cx="592" cy="1260" r="6"/><circle cx="711" cy="1213" r="4"/><circle cx="776" cy="1258" r="4"/><circle cx="877" cy="1230" r="5"/><circle cx="890" cy="1206" r="5"/><circle cx="1038" cy="1231" r="6"/><circle cx="1064" cy="1240" r="4"/><circle cx="1123" cy="1243" r="4"/><circle cx="1209" cy="1234" r="5"/><circle cx="1300" cy="1210" r="4"/><circle cx="1409" cy="1279" r="4"/><circle cx="1518" cy="1226" r="4"/><circle cx="1524" cy="1236" r="6"/><circle cx="1639" cy="1259" r="5"/><circle cx="1724" cy="1264" r="5"/><circle cx="1795" cy="1262" r="6"/><circle cx="1917" cy="1255" r="5"/><circle cx="1965" cy="1264" r="5"/><circle cx="2018" cy="1225" r="6"/><circle cx="2131" cy="1264" r="5"/><circle cx="2229" cy="1268" r="5"/><circle cx="2249" cy="1244" r="6"/><circle cx="2367" cy="1259" r="4"/><circle cx="2476" cy="1201" r="4"/><circle cx="2495" cy="1275" r="6"/><circle cx="62" cy="1350" r="4"/><circle cx="158" cy="1345" r="4"/><circle cx="162" cy="1360" r="5"/><circle cx="313" cy="1289" r="5"/><circle cx="390" cy="1330" r="5"/><circle cx="413" cy="1307" r="5"/><circle cx="486" cy="1281" r="4"/><circle cx="575" cy="1351" r="6"/><circle cx="642" cy="1290" r="5"/><circle cx="798" cy="1289" r="5"/><circle cx="862" cy="1315" r="5"/><circle cx="959" cy="1358" r="6"/><circle cx="990" cy="1288" r="5"/><circle cx="1057" cy="1320" r="5"/><circle cx="1134" cy="1352" r="5"/><circle cx="1210" cy="1339" r="4"/><circle cx="1287" cy="1308" r="5"/><circle cx="1373" cy="1304" r="5"/><circle cx="1511" cy="1351" r="5"/><circle cx="1584" cy="1342" r="5"/><circle cx="1666" cy="1324" r="6"/><circle cx="1757" cy="1307" r="5"/><circle cx="1805" cy="1347" r="4"/><circle cx="1878" cy="1348" r="4"/><circle cx="1947" cy="1283" r="6"/><circle cx="2015" cy="1295" r="6"/><circle cx="2137" cy="1336" r="6"/><circle cx="2236" cy="1356" r="6"/><circle cx="2304" cy="1306" r="6"/><circle cx="2344" cy="1294" r="4"/><circle cx="2470" cy="1285" r="5"/><circle cx="2525" cy="1316" r="4"/><circle cx="25" cy="1427" r="5"/><circle cx="148" cy="1429" r="6"/><circle cx="182" cy="1415" r="5"/><circle cx="294" cy="1379" r="5"/><circle cx="394" cy="1435" r="4"/><circle cx="410" cy="1433" r="5"/><circle cx="500" cy="1417" r="5"/><circle cx="579" cy="1363" r="4"/><circle cx="712" cy="1389" r="5"/><circle cx="790" cy="1362" r="5"/><circle cx="810" cy="1376" r="5"/><circle cx="914" cy="1432" r="6"/><circle cx="996" cy="1407" r="4"/><circle cx="1053" cy="1436" r="4"/><circle cx="1053" cy="-4" r="4"/><circle cx="1190" cy="1382" r="6"/><circle cx="1249" cy="1410" r="4"/><circle cx="1349" cy="1417" r="4"/><circle cx="1404" cy="1369" r="6"/><circle cx="1493" cy="1423" r="4"/><circle cx="1583" cy="1436" r="5"/><circle cx="1583" cy="-4" r="5"/><circle cx="1644" cy="1375" r="6"/><circle cx="1754" cy="1403" r="5"/><circle cx="1772" cy="1373" r="5"/><circle cx="1905" cy="1365" r="5"/><circle cx="1991" cy="1426" r="4"/><circle cx="2041" cy="1402" r="5"/><circle cx="2092" cy="1391" r="6"/><circle cx="2186" cy="1398" r="4"/><circle cx="2301" cy="1384" r="6"/><circle cx="2327" cy="1437" r="4"/><circle cx="2327" cy="-3" r="4"/><circle cx="2453" cy="1410" r="5"/><circle cx="2524" cy="1430" r="5"/><path stroke="#fff" d="M39 76L127 33M39 76L-67 74M39 76L43 125M39 76L-15 145M39 76L25 -13M2599 76L2493 74M2599 76L2545 145M39 1516L25 1427M127 33L160 117M127 33L148 -11M127 33L182 -25M127 1473L148 1429M127 1473L182 1415M223 64L249 61M223 64L160 117M223 64L199 110M223 64L148 -11M223 64L182 -25M223 1504L148 1429M223 1504L182 1415M249 61L199 110M399 6L412 77M399 6L354 85M399 6L394 -5M399 6L410 -7M399 1446L394 1435M399 1446L410 1433M412 77L354 85M412 77L465 106M412 77L394 -5M412 77L410 -7M412 1517L394 1435M412 1517L410 1433M528 11L589 14M528 11L512 93M528 11L500 -23M528 1451L500 1417M589 14L661 50M589 14L604 98M589 14L575 -89M589 14L500 -23M589 1454L575 1351M589 1454L500 1417M661 50L604 98M661 50L657 155M661 50L732 123M661 50L712 -51M661 1490L712 1389M792 78L807 69M792 78L905 54M792 78L732 123M792 78L811 148M807 69L905 54M807 69L811 148M905 54L932 120M905 54L914 -8M905 1494L914 1432M1037 54L1105 64M1037 54L1123 31M1037 54L982 136M1037 54L1106 92M1037 54L1053 -4M1037 1494L1053 1436M1105 64L1123 31M1105 64L1106 92M1105 64L1169 96M1105 64L1053 -4M1105 1504L1053 1436M1123 31L1106 92M1123 31L1169 96M1123 31L1053 -4M1123 1471L1053 1436M1250 22L1320 22M1250 22L1190 -58M1250 22L1249 -30M1250 22L1349 -23M1250 1462L1190 1382M1250 1462L1249 1410M1250 1462L1349 1417M1320 22L1390 56M1320 22L1330 118M1320 22L1249 -30M1320 22L1349 -23M1320 1462L1249 1410M1320 1462L1349 1417M1390 56L1480 20M1390 56L1330 118M1390 56L1437 97M1390 56L1349 -23M1390 1496L1349 1417M1480 20L1437 97M1480 20L1469 122M1480 20L1493 -17M1480 1460L1493 1423M1595 50L1660 12M1595 50L1552 100M1595 50L1675 129M1595 50L1583 -4M1595 1490L1583 1436M1660 12L1750 20M1660 12L1583 -4M1660 12L1644 -65M1660 12L1754 -37M1660 1452L1583 1436M1660 1452L1644 1375M1660 1452L1754 1403M1750 20L1811 8M1750 20L1754 -37M1750 20L1772 -67M1750 1460L1754 1403M1750 1460L1772 1373M1811 8L1880 74M1811 8L1820 116M1811 8L1754 -37M1811 8L1772 -67M1811 1448L1754 1403M1811 1448L1772 1373M1880 74L1948 58M1880 74L1820 116M1880 74L1861 137M1880 74L1939 150M1948 58L2028 66M1948 58L1939 150M1948 58L1991 -14M1948 1498L1991 1426M2028 66L2107 9M2028 66L2057 146M2028 66L1991 -14M2028 66L2041 -38M2028 1506L1991 1426M2028 1506L2041 1402M2107 9L2176 35M2107 9L2151 87M2107 9L2041 -38M2107 9L2092 -49M2107 1449L2041 1402M2107 1449L2092 1391M2176 35L2256 4M2176 35L2151 87M2176 35L2198 89M2176 35L2186 -42M2176 1475L2186 1398M2256 4L2236 -84M2256 4L2186 -42M2256 4L2301 -56M2256 4L2327 -3M2256 1444L2236 1356M2256 1444L2186 1398M2256 1444L2301 1384M2256 1444L2327 1437M2393 51L2462 51M2393 51L2370 112M2393 51L2327 -3M2393 51L2453 -30M2393 1491L2327 1437M2393 1491L2453 1410M2462 51L2493 74M2462 51L2370 112M2462 51L2453 -30M2462 51L2524 -10M2462 1491L2453 1410M2462 1491L2524 1430M2493 74L2545 145M2493 74L2453 -30M2493 74L2524 -10M2493 1514L2453 1410M2493 1514L2524 1430M43 125L-15 145M43 125L57 212M43 125L130 170M43 125L-13 174M2603 125L2545 145M2603 125L2547 174M160 117L199 110M160 117L130 170M160 117L192 171M199 110L247 160M199 110L192 171M247 160L192 171M247 160L309 171M247 160L347 203M354 85L309 171M354 85L394 -5M354 1525L394 1435M465 106L512 93M465 106L459 176M465 106L489 177M512 93L604 98M512 93L459 176M512 93L489 177M604 98L657 155M604 98L660 171M657 155L732 123M657 155L638 179M657 155L660 171M732 123L811 148M732 123L660 171M811 148L790 236M811 148L854 207M932 120L982 136M932 120L854 207M932 120L890 207M932 120L1031 166M982 136L1031 166M982 136L1049 212M982 136L1027 242M1106 92L1169 96M1169 96L1223 158M1169 96L1166 192M1223 158L1330 118M1223 158L1166 192M1223 158L1204 234M1223 158L1308 220M1330 118L1437 97M1330 118L1308 220M1437 97L1469 122M1469 122L1552 100M1469 122L1464 183M1469 122L1553 191M1552 100L1675 129M1552 100L1553 191M1675 129L1712 160M1712 160L1820 116M1712 160L1646 231M1712 160L1704 229M1712 160L1736 263M1820 116L1861 137M1820 116L1893 179M1861 137L1939 150M1861 137L1893 179M1861 137L1948 167M1939 150L1893 179M1939 150L1948 167M2057 146L1948 167M2057 146L2036 217M2057 146L2142 187M2057 146L2050 266M2151 87L2198 89M2151 87L2142 187M2151 87L2218 164M2198 89L2303 91M2198 89L2218 164M2303 91L2370 112M2303 91L2327 -3M2303 1531L2327 1437M2370 112L2408 151M2370 112L2374 215M2408 151L2374 215M2408 151L2413 217M2545 145L2547 174M2545 145L2566 246M-15 145L6 246M57 212L130 170M57 212L-13 174M57 212L6 246M57 212L-4 288M2617 212L2547 174M2617 212L2556 288M130 170L192 171M192 171L218 265M309 171L347 203M309 171L292 248M347 203L459 176M347 203L292 248M347 203L348 263M459 176L489 177M459 176L444 269M489 177L444 269M489 177L561 275M638 179L660 171M790 236L854 207M790 236L715 268M790 236L784 298M790 236L808 271M854 207L890 207M854 207L808 271M1031 166L1049 212M1031 166L1027 242M1031 166L1053 262M1049 212L1027 242M1049 212L1053 262M1166 192L1204 234M1166 192L1179 296M1204 234L1179 296M1204 234L1211 292M1308 220L1399 230M1308 220L1296 283M1399 230L1464 183M1399 230L1433 256M1399 230L1467 263M1399 230L1455 323M1464 183L1553 191M1464 183L1433 256M1464 183L1467 263M1553 191L1574 282M1646 231L1704 229M1646 231L1574 282M1646 231L1670 315M1704 229L1670 315M1704 229L1736 263M1704 229L1787 286M1824 229L1893 179M1824 229L1787 286M1824 229L1898 271M1893 179L1948 167M1948 167L2036 217M2036 217L2142 187M2036 217L2050 266M2036 217L2115 299M2142 187L2218 164M2142 187L2115 299M2218 164L2298 216M2218 164L2227 284M2298 216L2374 215M2298 216L2413 217M2298 216L2227 284M2298 216L2252 290M2374 215L2413 217M2374 215L2391 303M2413 217L2391 303M2413 217L2411 316M2547 174L2566 246M-13 174L6 246M6 246L-4 288M6 246L25 340M2566 246L2556 288M117 293L218 265M117 293L-4 288M117 293L25 340M117 293L103 358M2677 293L2556 288M218 265L292 248M218 265L232 370M218 265L298 329M292 248L348 263M292 248L298 329M348 263L444 269M348 263L298 329M348 263L322 352M444 269L470 377M444 269L513 328M533 305L561 275M533 305L470 377M533 305L513 328M561 275L513 328M561 275L626 376M561 275L680 321M715 268L784 298M715 268L680 321M715 268L747 330M784 298L808 271M784 298L747 330M784 298L853 333M808 271L747 330M808 271L853 333M959 298L1027 242M959 298L1053 262M959 298L957 366M959 298L995 363M959 298L992 401M1027 242L1053 262M1179 296L1211 292M1179 296L1198 384M1179 296L1203 334M1211 292L1296 283M1211 292L1203 334M1296 283L1203 334M1296 283L1293 374M1433 256L1467 263M1433 256L1455 323M1467 263L1574 282M1467 263L1455 323M1574 282L1596 392M1574 282L1626 337M1670 315L1736 263M1670 315L1626 337M1670 315L1735 349M1736 263L1787 286M1736 263L1735 349M1787 286L1735 349M1787 286L1884 349M1898 271L1954 301M1898 271L1884 349M1954 301L2050 266M1954 301L1884 349M1954 301L1931 393M2050 266L2115 299M2050 266L2042 393M2115 299L2121 386M2115 299L2172 397M2227 284L2252 290M2227 284L2172 397M2252 290L2312 368M2252 290L2353 346M2391 303L2411 316M2391 303L2353 346M2391 303L2417 335M2411 316L2353 346M2411 316L2417 335M2556 288L2585 340M2556 288L2556 376M-4 288L25 340M25 340L103 358M25 340L-4 376M2585 340L2556 376M103 358L-4 376M103 358L59 444M103 358L111 429M2663 358L2556 376M232 370L298 329M232 370L322 352M298 329L322 352M322 352L343 431M470 377L513 328M470 377L467 407M470 377L527 430M513 328L527 430M626 376L680 321M626 376L590 443M626 376L635 494M680 321L747 330M747 330L853 333M853 333L957 366M853 333L837 444M957 366L995 363M957 366L914 460M957 366L992 401M995 363L1101 387M995 363L992 401M1101 387L992 401M1101 387L1109 469M1198 384L1203 334M1198 384L1293 374M1198 384L1231 446M1203 334L1293 374M1293 374L1379 393M1293 374L1231 446M1379 393L1455 323M1379 393L1340 471M1379 393L1378 456M1379 393L1450 461M1596 392L1626 337M1596 392L1578 407M1596 392L1638 434M1596 392L1596 482M1626 337L1578 407M1626 337L1638 434M1735 349L1780 420M1820 395L1884 349M1820 395L1757 458M1820 395L1780 420M1884 349L1931 393M1931 393L1877 469M1931 393L1938 456M2042 393L2121 386M2042 393L2026 441M2042 393L2097 430M2121 386L2172 397M2121 386L2097 430M2172 397L2097 430M2172 397L2209 476M2312 368L2353 346M2312 368L2417 335M2312 368L2286 465M2312 368L2367 460M2353 346L2417 335M2417 335L2451 433M2556 376L2619 444M2556 376L2533 437M-4 376L59 444M59 444L111 429M59 444L-27 437M59 444L72 513M2619 444L2533 437M111 429L184 469M111 429L72 513M184 469L275 479M184 469L172 543M184 469L281 485M275 479L343 431M275 479L281 485M275 479L368 518M275 479L243 563M343 431L467 407M343 431L281 485M343 431L368 518M467 407L527 430M467 407L491 505M527 430L590 443M527 430L491 505M590 443L698 469M590 443L491 505M590 443L635 494M698 469L757 476M698 469L635 494M698 469L672 532M698 469L753 540M757 476L837 444M757 476L672 532M757 476L753 540M757 476L838 489M837 444L914 460M837 444L838 489M914 460L992 401M914 460L838 489M914 460L925 539M1109 469L1198 480M1109 469L1065 491M1109 469L1127 539M1198 480L1231 446M1198 480L1127 539M1198 480L1275 520M1198 480L1285 540M1231 446L1275 520M1231 446L1285 540M1340 471L1378 456M1340 471L1275 520M1340 471L1285 540M1340 471L1428 512M1378 456L1450 461M1378 456L1428 512M1378 456L1465 508M1450 461L1428 512M1450 461L1465 508M1450 461L1479 572M1578 407L1638 434M1578 407L1596 482M1638 434L1596 482M1757 458L1780 420M1757 458L1719 557M1757 458L1807 563M1877 469L1938 456M1877 469L1836 553M1877 469L1877 500M1877 469L1934 504M1938 456L2026 441M1938 456L1877 500M1938 456L1934 504M2026 441L2097 430M2026 441L2021 521M2097 430L2148 517M2209 476L2286 465M2209 476L2148 517M2209 476L2231 548M2209 476L2293 516M2286 465L2367 460M2286 465L2293 516M2286 465L2327 539M2367 460L2451 433M2367 460L2327 539M2451 433L2533 437M2451 433L2470 533M2451 433L2522 526M2533 437L2522 526M72 513L112 559M72 513L107 590M112 559L172 543M112 559L107 590M112 559L170 627M112 559L91 643M172 543L170 627M172 543L243 563M281 485L368 518M281 485L243 563M368 518L426 550M368 518L376 617M426 550L491 505M426 550L376 617M426 550L427 621M426 550L527 620M491 505L527 620M635 494L672 532M635 494L717 572M672 532L753 540M672 532L717 572M753 540L717 572M753 540L749 631M838 489L925 539M925 539L1014 520M925 539L909 622M925 539L962 564M1014 520L1065 491M1014 520L962 564M1014 520L1049 575M1065 491L1127 539M1065 491L1049 575M1127 539L1049 575M1127 539L1148 607M1275 520L1285 540M1275 520L1344 569M1285 540L1344 569M1428 512L1465 508M1428 512L1479 572M1465 508L1479 572M1596 482L1625 533M1625 533L1719 557M1625 533L1570 610M1625 533L1631 620M1625 533L1713 578M1719 557L1713 578M1719 557L1807 563M1836 553L1877 500M1836 553L1807 563M1836 553L1870 588M1877 500L1934 504M1877 500L1870 588M1934 504L2021 521M1934 504L1870 588M2021 521L1992 609M2021 521L2058 624M2148 517L2231 548M2148 517L2100 612M2148 517L2235 582M2231 548L2293 516M2231 548L2235 582M2231 548L2294 594M2293 516L2327 539M2293 516L2294 594M2327 539L2294 594M2327 539L2388 585M2470 533L2522 526M2470 533L2388 585M2522 526L2579 596M2522 526L2550 617M-38 526L19 596M19 596L107 590M19 596L-10 617M19 596L32 665M19 596L91 643M2579 596L2550 617M107 590L170 627M107 590L91 643M170 627L91 643M170 627L195 712M376 617L427 621M376 617L324 699M376 617L405 689M427 621L527 620M427 621L405 689M427 621L395 727M527 620L635 627M527 620L514 717M635 627L717 572M635 627L633 717M635 627L678 706M717 572L749 631M749 631L829 637M749 631L792 660M749 631L822 650M829 637L909 622M829 637L792 660M829 637L822 650M829 637L923 666M909 622L962 564M909 622L822 650M909 622L923 666M962 564L1049 575M1049 575L1071 643M1148 607L1219 639M1148 607L1071 643M1148 607L1153 711M1219 639L1153 711M1219 639L1272 695M1219 639L1284 716M1344 569L1379 629M1379 629L1479 572M1379 629L1390 682M1379 629L1449 697M1479 572L1570 610M1570 610L1631 620M1570 610L1589 679M1570 610L1602 664M1631 620L1713 578M1631 620L1589 679M1631 620L1602 664M1713 578L1807 563M1807 563L1870 588M1870 588L1873 690M1992 609L2058 624M1992 609L1950 660M1992 609L2021 677M2058 624L2100 612M2058 624L2021 677M2058 624L2106 650M2100 612L2106 650M2100 612L2166 690M2235 582L2294 594M2235 582L2309 679M2294 594L2309 679M2388 585L2415 638M2388 585L2339 678M2415 638L2339 678M2415 638L2477 686M2550 617L2592 665M2550 617L2477 686M2550 617L2516 705M-10 617L32 665M32 665L91 643M32 665L-44 705M32 665L40 736M2592 665L2516 705M195 712L272 714M195 712L130 751M195 712L175 787M195 712L241 755M272 714L324 699M272 714L241 755M324 699L405 689M324 699L395 727M405 689L395 727M405 689L407 786M514 717L553 755M514 717L567 797M633 717L678 706M633 717L553 755M633 717L567 797M633 717L673 798M678 706L748 765M792 660L822 650M792 660L748 765M822 650L923 666M923 666L1013 715M923 666L942 760M1013 715L1071 643M1013 715L942 760M1013 715L1028 777M1013 715L1093 723M1071 643L1093 723M1153 711L1093 723M1153 711L1190 786M1272 695L1284 716M1272 695L1390 682M1272 695L1254 750M1272 695L1314 762M1284 716L1254 750M1284 716L1314 762M1390 682L1449 697M1390 682L1415 748M1449 697L1415 748M1449 697L1498 754M1589 679L1602 664M1589 679L1573 754M1589 679L1622 756M1602 664L1573 754M1602 664L1622 756M1719 708L1622 756M1719 708L1717 781M1719 708L1776 724M1830 717L1873 690M1830 717L1776 724M1830 717L1865 795M1830 717L1851 807M1873 690L1950 660M1873 690L1776 724M1873 690L1922 743M1950 660L2021 677M1950 660L1922 743M2021 677L2106 650M2021 677L2011 767M2106 650L2166 690M2166 690L2120 774M2166 690L2205 794M2309 679L2339 678M2309 679L2319 738M2339 678L2319 738M2339 678L2393 724M2477 686L2516 705M2477 686L2393 724M2516 705L2600 736M2516 705L2546 795M-44 705L40 736M40 736L130 751M40 736L-14 795M40 736L97 826M2600 736L2546 795M130 751L175 787M130 751L97 826M175 787L241 755M175 787L204 856M175 787L242 850M241 755L204 856M241 755L242 850M395 727L407 786M395 727L402 834M407 786L402 834M553 755L567 797M567 797L557 863M567 797L609 828M673 798L748 765M673 798L609 828M673 798L647 879M673 798L743 813M748 765L833 778M748 765L743 813M833 778L743 813M833 778L867 827M833 778L910 830M942 760L1028 777M942 760L867 827M942 760L910 830M1028 777L1093 723M1028 777L1009 871M1028 777L1103 826M1190 786L1254 750M1190 786L1103 826M1190 786L1165 836M1190 786L1218 878M1254 750L1314 762M1254 750L1310 846M1314 762L1415 748M1314 762L1310 846M1415 748L1498 754M1415 748L1439 852M1498 754L1573 754M1573 754L1622 756M1622 756L1717 781M1717 781L1776 724M1717 781L1758 810M1776 724L1758 810M1865 795L1922 743M1865 795L1811 876M1865 795L1851 807M1865 795L1958 846M1922 743L2011 767M1922 743L1851 807M2011 767L2120 774M2011 767L1958 846M2120 774L2205 794M2120 774L2071 875M2120 774L2139 837M2205 794L2139 837M2205 794L2218 854M2205 794L2251 863M2319 738L2393 724M2319 738L2401 786M2319 738L2338 856M2393 724L2401 786M2393 724L2427 811M2401 786L2338 856M2401 786L2427 811M2546 795L2612 868M2546 795L2483 865M2546 795L2502 889M-14 795L52 868M52 868L97 826M52 868L23 908M52 868L99 925M97 826L99 925M204 856L242 850M204 856L161 949M204 856L308 887M242 850L338 873M242 850L308 887M338 873L402 834M338 873L308 887M338 873L394 928M338 873L410 926M402 834L394 928M402 834L410 926M557 863L609 828M557 863L647 879M557 863L496 928M557 863L594 902M609 828L647 879M609 828L594 902M647 879L594 902M647 879L680 905M743 813L867 827M743 813L680 905M867 827L910 830M910 830L1009 871M1009 871L1011 931M1009 871L1094 886M1009 871L1043 973M1103 826L1165 836M1103 826L1094 886M1165 836L1218 878M1165 836L1185 891M1218 878L1185 891M1218 878L1242 919M1218 878L1310 905M1310 846L1242 919M1310 846L1310 905M1439 852L1497 872M1439 852L1420 920M1497 872L1543 866M1497 872L1420 920M1497 872L1486 939M1497 872L1572 881M1543 866L1601 867M1543 866L1572 881M1543 866L1606 931M1601 867L1572 881M1601 867L1606 931M1758 810L1811 876M1758 810L1851 807M1758 810L1787 919M1811 876L1851 807M1811 876L1787 919M1958 846L2071 875M1958 846L1899 936M1958 846L1939 920M2071 875L2139 837M2071 875L2075 952M2071 875L2100 951M2139 837L2218 854M2218 854L2251 863M2218 854L2214 929M2218 854L2265 952M2251 863L2338 856M2251 863L2214 929M2251 863L2265 952M2338 856L2427 811M2338 856L2395 915M2427 811L2483 865M2427 811L2502 889M2483 865L2395 915M2483 865L2461 924M2483 865L2502 889M23 908L99 925M23 908L-58 889M2583 908L2502 889M99 925L161 949M99 925L139 973M161 949L139 973M161 949L206 966M161 949L120 1046M308 887L394 928M308 887L290 971M394 928L410 926M394 928L405 1003M410 926L496 928M410 926L405 1003M496 928L552 973M594 902L680 905M594 902L552 973M680 905L779 937M680 905L750 990M779 937L870 954M779 937L750 990M870 954L929 957M870 954L854 1014M870 954L958 989M929 957L1011 931M929 957L854 1014M929 957L958 989M1011 931L958 989M1011 931L1021 999M1011 931L1043 973M1094 886L1185 891M1094 886L1125 978M1185 891L1242 919M1185 891L1125 978M1242 919L1310 905M1242 919L1263 999M1310 905L1263 999M1310 905L1343 993M1420 920L1486 939M1420 920L1401 975M1486 939L1572 881M1486 939L1401 975M1486 939L1540 991M1572 881L1606 931M1606 931L1540 991M1606 931L1671 985M1715 947L1787 919M1715 947L1671 985M1715 947L1704 1039M1787 919L1899 936M1787 919L1836 992M1899 936L1939 920M1899 936L1836 992M1899 936L1907 1020M1939 920L1836 992M1939 920L1987 989M2075 952L2100 951M2075 952L2100 1032M2100 951L2033 1036M2100 951L2100 1032M2100 951L2076 1052M2214 929L2265 952M2214 929L2217 1034M2214 929L2271 992M2265 952L2217 1034M2265 952L2271 992M2395 915L2461 924M2395 915L2387 1020M2461 924L2502 889M2461 924L2387 1020M32 1020L139 973M32 1020L-40 1037M32 1020L27 1054M32 1020L120 1046M32 1020L-32 1072M2592 1020L2520 1037M2592 1020L2528 1072M139 973L206 966M139 973L120 1046M206 966L290 971M290 971L334 1037M290 971L405 1003M290 971L368 1051M334 1037L405 1003M334 1037L283 1094M334 1037L368 1051M405 1003L368 1051M552 973L566 1040M552 973L564 1045M566 1040L657 1024M566 1040L532 1084M566 1040L564 1045M566 1040L657 1077M657 1024L750 990M657 1024L564 1045M657 1024L657 1077M657 1024L745 1084M750 990L854 1014M750 990L745 1084M854 1014L874 1099M958 989L1021 999M958 989L1043 973M1021 999L1043 973M1021 999L1125 978M1021 999L1005 1098M1043 973L1125 978M1125 978L1166 1062M1263 999L1343 993M1263 999L1166 1062M1263 999L1256 1104M1343 993L1401 975M1343 993L1414 1067M1401 975L1414 1067M1519 1034L1540 991M1519 1034L1493 1074M1519 1034L1534 1067M1540 991L1493 1074M1540 991L1534 1067M1671 985L1704 1039M1671 985L1674 1098M1704 1039L1674 1098M1704 1039L1745 1112M1836 992L1907 1020M1836 992L1837 1048M1907 1020L1987 989M1907 1020L1837 1048M1907 1020L1902 1111M1987 989L2033 1036M2033 1036L2100 1032M2033 1036L2076 1052M2033 1036L2082 1099M2100 1032L2076 1052M2100 1032L2082 1099M2217 1034L2271 992M2217 1034L2183 1109M2217 1034L2261 1072M2271 992L2261 1072M2387 1020L2461 1021M2387 1020L2381 1052M2387 1020L2404 1064M2461 1021L2520 1037M2461 1021L2381 1052M2461 1021L2404 1064M2520 1037L2587 1054M2520 1037L2528 1072M2520 1037L2530 1121M-40 1037L27 1054M27 1054L120 1046M27 1054L-32 1072M27 1054L-30 1121M2587 1054L2528 1072M2587 1054L2530 1121M120 1046L145 1145M219 1109L283 1094M219 1109L145 1145M219 1109L227 1172M219 1109L269 1151M283 1094L368 1051M283 1094L269 1151M472 1119L532 1084M472 1119L477 1125M472 1119L506 1147M472 1119L578 1161M532 1084L564 1045M532 1084L477 1125M532 1084L506 1147M564 1045L657 1077M657 1077L745 1084M745 1084L739 1175M874 1099L928 1110M874 1099L845 1187M874 1099L891 1138M928 1110L1005 1098M928 1110L891 1138M928 1110L981 1168M928 1110L890 1206M1005 1098L1098 1109M1005 1098L981 1168M1098 1109L1166 1062M1098 1109L1111 1199M1098 1109L1126 1165M1166 1062L1256 1104M1256 1104L1351 1105M1256 1104L1248 1144M1256 1104L1331 1168M1351 1105L1414 1067M1351 1105L1248 1144M1351 1105L1331 1168M1351 1105L1387 1159M1414 1067L1493 1074M1414 1067L1387 1159M1493 1074L1534 1067M1493 1074L1535 1147M1534 1067L1535 1147M1534 1067L1602 1128M1674 1098L1745 1112M1674 1098L1602 1128M1674 1098L1697 1179M1745 1112L1837 1048M1745 1112L1697 1179M1745 1112L1760 1193M1837 1048L1902 1111M1837 1048L1842 1163M1902 1111L1967 1112M1902 1111L1842 1163M1902 1111L1922 1168M1967 1112L1922 1168M1967 1112L2027 1184M2076 1052L2082 1099M2076 1052L2134 1150M2082 1099L2134 1150M2082 1099L2173 1151M2183 1109L2261 1072M2183 1109L2134 1150M2183 1109L2173 1151M2261 1072L2284 1183M2381 1052L2404 1064M2381 1052L2381 1151M2404 1064L2381 1151M2404 1064L2463 1132M2528 1072L2463 1132M2528 1072L2530 1121M61 1166L145 1145M61 1166L-30 1121M61 1166L138 1208M2621 1166L2530 1121M145 1145L227 1172M145 1145L138 1208M227 1172L269 1151M227 1172L226 1235M269 1151L226 1235M269 1151L303 1219M381 1193L303 1219M381 1193L370 1263M381 1193L440 1227M477 1125L506 1147M477 1125L578 1161M506 1147L578 1161M506 1147L440 1227M578 1161L592 1260M705 1197L739 1175M705 1197L711 1213M705 1197L776 1258M705 1197L642 1290M739 1175L845 1187M739 1175L711 1213M739 1175L776 1258M845 1187L891 1138M845 1187L877 1230M845 1187L890 1206M891 1138L877 1230M891 1138L890 1206M981 1168L890 1206M981 1168L1038 1231M981 1168L990 1288M1111 1199L1126 1165M1111 1199L1038 1231M1111 1199L1064 1240M1111 1199L1123 1243M1126 1165L1123 1243M1126 1165L1209 1234M1248 1144L1331 1168M1248 1144L1209 1234M1248 1144L1300 1210M1331 1168L1387 1159M1331 1168L1300 1210M1387 1159L1451 1190M1387 1159L1300 1210M1451 1190L1409 1279M1451 1190L1518 1226M1451 1190L1524 1236M1535 1147L1602 1128M1535 1147L1518 1226M1535 1147L1524 1236M1697 1179L1760 1193M1697 1179L1639 1259M1697 1179L1724 1264M1760 1193L1842 1163M1760 1193L1724 1264M1760 1193L1795 1262M1842 1163L1922 1168M1842 1163L1795 1262M1922 1168L1917 1255M2027 1184L1965 1264M2027 1184L2018 1225M2134 1150L2173 1151M2134 1150L2131 1264M2284 1183L2381 1151M2284 1183L2229 1268M2284 1183L2249 1244M2381 1151L2463 1132M2381 1151L2476 1201M2463 1132L2530 1121M2463 1132L2476 1201M0 1270L-84 1201M0 1270L-65 1275M0 1270L62 1350M0 1270L-90 1285M0 1270L-35 1316M2560 1270L2476 1201M2560 1270L2495 1275M2560 1270L2470 1285M2560 1270L2525 1316M138 1208L226 1235M226 1235L303 1219M303 1219L370 1263M303 1219L313 1289M370 1263L313 1289M370 1263L390 1330M370 1263L413 1307M440 1227L490 1276M440 1227L413 1307M440 1227L486 1281M490 1276L592 1260M490 1276L413 1307M490 1276L486 1281M592 1260L575 1351M592 1260L642 1290M592 1260L579 1363M711 1213L776 1258M711 1213L642 1290M776 1258L798 1289M877 1230L890 1206M877 1230L798 1289M877 1230L862 1315M1038 1231L1064 1240M1038 1231L1123 1243M1038 1231L990 1288M1064 1240L1123 1243M1064 1240L990 1288M1064 1240L1057 1320M1123 1243L1209 1234M1209 1234L1300 1210M1209 1234L1287 1308M1300 1210L1287 1308M1409 1279L1373 1304M1409 1279L1404 1369M1518 1226L1524 1236M1524 1236L1511 1351M1639 1259L1584 1342M1639 1259L1666 1324M1724 1264L1795 1262M1724 1264L1666 1324M1724 1264L1757 1307M1795 1262L1757 1307M1795 1262L1805 1347M1917 1255L1965 1264M1917 1255L2018 1225M1917 1255L1947 1283M1917 1255L2015 1295M1965 1264L2018 1225M1965 1264L1947 1283M1965 1264L2015 1295M2018 1225L1947 1283M2018 1225L2015 1295M2131 1264L2229 1268M2131 1264L2137 1336M2229 1268L2249 1244M2229 1268L2236 1356M2229 1268L2304 1306M2249 1244L2304 1306M2249 1244L2344 1294M2367 1259L2495 1275M2367 1259L2344 1294M2367 1259L2470 1285M2476 1201L2495 1275M2476 1201L2470 1285M2495 1275L2470 1285M2495 1275L2525 1316M62 1350L158 1345M62 1350L162 1360M62 1350L25 1427M158 1345L162 1360M158 1345L148 1429M158 1345L182 1415M162 1360L148 1429M162 1360L182 1415M162 1360L294 1379M313 1289L390 1330M313 1289L294 1379M390 1330L413 1307M390 1330L394 1435M390 1330L410 1433M413 1307L486 1281M575 1351L642 1290M575 1351L500 1417M575 1351L579 1363M642 1290L579 1363M798 1289L862 1315M798 1289L790 1362M798 1289L810 1376M862 1315L959 1358M862 1315L790 1362M862 1315L810 1376M959 1358L990 1288M959 1358L1057 1320M959 1358L914 1432M959 1358L996 1407M990 1288L1057 1320M1057 1320L1134 1352M1057 1320L996 1407M1134 1352L1210 1339M1134 1352L1053 1436M1134 1352L1190 1382M1210 1339L1287 1308M1210 1339L1190 1382M1210 1339L1249 1410M1287 1308L1373 1304M1287 1308L1190 1382M1373 1304L1404 1369M1511 1351L1584 1342M1511 1351L1404 1369M1511 1351L1493 1423M1584 1342L1666 1324M1584 1342L1583 1436M1584 1342L1644 1375M1666 1324L1757 1307M1666 1324L1644 1375M1757 1307L1805 1347M1757 1307L1772 1373M1805 1347L1878 1348M1805 1347L1754 1403M1805 1347L1772 1373M1878 1348L1905 1365M1947 1283L2015 1295M1947 1283L1905 1365M2015 1295L2041 1402M2137 1336L2092 1391M2137 1336L2186 1398M2236 1356L2304 1306M2236 1356L2186 1398M2236 1356L2301 1384M2304 1306L2344 1294M2304 1306L2301 1384M2344 1294L2301 1384M2470 1285L2525 1316M2525 1316L2453 1410M2525 1316L2524 1430M25 1427L-36 1430M2585 1427L2524 1430M148 1429L182 1415M394 1435L410 1433M410 1433L500 1417M500 1417L579 1363M712 1389L790 1362M712 1389L810 1376M790 1362L810 1376M810 1376L914 1432M914 1432L996 1407M996 1407L1053 1436M1190 1382L1249 1410M1249 1410L1349 1417M1349 1417L1404 1369M1404 1369L1493 1423M1493 1423L1583 1436M1583 1436L1644 1375M1754 1403L1772 1373M1905 1365L1991 1426M1991 1426L2041 1402M1991 1426L2092 1391M2041 1402L2092 1391M2092 1391L2186 1398M2301 1384L2327 1437M2453 1410L2524 1430"/></svg>