<svg xmlns="http://www.w3.org/2000/svg" width="2560" height="1440" fill="#fff"><circle cx="63" cy="33" r="5"/><circle cx="136" cy="18" r="5"/><circle cx="176" cy="60" r="5"/><circle cx="249" cy="11" r="5"/><circle cx="366" cy="48" r="5"/><circle cx="472" cy="64" r="5"/><circle cx="530" cy="72" r="5"/><circle cx="634" cy="3" r="5"/><circle cx="634" cy="1443" r="5"/><circle cx="670" cy="29" r="4"/><circle cx="769" cy="43" r="5"/><circle cx="829" cy="6" r="4"/><circle cx="949" cy="1" r="5"/><circle cx="949" cy="1441" r="5"/><circle cx="983" cy="1" r="6"/><circle cx="983" cy="1441" r="6"/><circle cx="1049" cy="7" r="6"/><circle cx="1198" cy="46" r="5"/><circle cx="1219" cy="42" r="5"/><circle cx="1354" cy="39" r="4"/><circle cx="1411" cy="12" r="4"/><circle cx="1481" cy="70" r="5"/><circle cx="1546" cy="61" r="5"/><circle cx="1641" cy="54" r="5"/><circle cx="1757" cy="34" r="4"/><circle cx="1834" cy="38" r="5"/><circle cx="1847" cy="24" r="6"/><circle cx="1990" cy="7" r="4"/><circle cx="2020" cy="9" r="4"/><circle cx="2083" cy="58" r="5"/><circle cx="2220" cy="54" r="5"/><circle cx="2298" cy="57" r="6"/><circle cx="2334" cy="23" r="6"/><circle cx="2420" cy="15" r="6"/><circle cx="2531" cy="68" r="4"/><circle cx="15" cy="147" r="5"/><circle cx="122" cy="102" r="6"/><circle cx="216" cy="116" r="4"/><circle cx="297" cy="144" r="4"/><circle cx="356" cy="147" r="6"/><circle cx="463" cy="89" r="5"/><circle cx="549" cy="89" r="5"/><circle cx="564" cy="100" r="5"/><circle cx="669" cy="109" r="5"/><circle cx="770" cy="143" r="4"/><circle cx="843" cy="124" r="5"/><circle cx="885" cy="158" r="4"/><circle cx="1004" cy="133" r="5"/><circle cx="1074" cy="89" r="5"/><circle cx="1149" cy="107" r="5"/><circle cx="1217" cy="109" r="4"/><circle cx="1311" cy="115" r="6"/><circle cx="1381" cy="135" r="4"/><circle cx="1456" cy="121" r="5"/><circle cx="1573" cy="131" r="5"/><circle cx="1612" cy="102" r="5"/><circle cx="1708" cy="138" r="5"/><circle cx="1830" cy="127" r="5"/><circle cx="1869" cy="139" r="4"/><circle cx="1933" cy="135" r="5"/><circle cx="2064" cy="150" r="5"/><circle cx="2128" cy="109" r="5"/><circle cx="2185" cy="87" r="4"/><circle cx="2286" cy="154" r="6"/><circle cx="2321" cy="87" r="5"/><circle cx="2455" cy="112" r="5"/><circle cx="2489" cy="103" r="4"/><circle cx="6" cy="212" r="5"/><circle cx="127" cy="225" r="5"/><circle cx="194" cy="166" r="4"/><circle cx="318" cy="185" r="5"/><circle cx="358" cy="205" r="4"/><circle cx="415" cy="206" r="4"/><circle cx="537" cy="209" r="5"/><circle cx="580" cy="160" r="6"/><circle cx="682" cy="175" r="5"/><circle cx="750" cy="174" r="5"/><circle cx="808" cy="219" r="6"/><circle cx="898" cy="185" r="6"/><circle cx="1025" cy="221" r="4"/><circle cx="1083" cy="179" r="6"/><circle cx="1158" cy="194" r="5"/><circle cx="1216" cy="164" r="5"/><circle cx="1329" cy="161" r="6"/><circle cx="1415" cy="234" r="4"/><circle cx="1460" cy="173" r="4"/><circle cx="1562" cy="233" r="5"/><circle cx="1601" cy="239" r="5"/><circle cx="1697" cy="161" r="5"/><circle cx="1782" cy="238" r="5"/><circle cx="1854" cy="180" r="4"/><circle cx="1922" cy="196" r="5"/><circle cx="2042" cy="201" r="5"/><circle cx="2116" cy="170" r="5"/><circle cx="2173" cy="192" r="5"/><circle cx="2243" cy="204" r="4"/><circle cx="2360" cy="227" r="4"/><circle cx="2418" cy="214" r="6"/><circle cx="2508" cy="215" r="6"/><circle cx="4" cy="293" r="5"/><circle cx="2564" cy="293" r="5"/><circle cx="127" cy="255" r="5"/><circle cx="172" cy="288" r="6"/><circle cx="263" cy="311" r="5"/><circle cx="347" cy="315" r="4"/><circle cx="406" cy="241" r="5"/><circle cx="517" cy="255" r="5"/><circle cx="571" cy="253" r="5"/><circle cx="703" cy="306" r="6"/><circle cx="798" cy="287" r="6"/><circle cx="863" cy="302" r="6"/><circle cx="948" cy="301" r="5"/><circle cx="1013" cy="313" r="5"/><circle cx="1059" cy="256" r="5"/><circle cx="1143" cy="293" r="5"/><circle cx="1251" cy="255" r="5"/><circle cx="1287" cy="288" r="4"/><circle cx="1387" cy="252" r="6"/><circle cx="1507" cy="293" r="5"/><circle cx="1570" cy="294" r="5"/><circle cx="1671" cy="251" r="5"/><circle cx="1759" cy="276" r="6"/><circle cx="1773" cy="292" r="6"/><circle cx="1915" cy="242" r="5"/><circle cx="1969" cy="317" r="4"/><circle cx="2049" cy="248" r="4"/><circle cx="2099" cy="249" r="4"/><circle cx="2184" cy="317" r="6"/><circle cx="2245" cy="302" r="4"/><circle cx="2383" cy="294" r="4"/><circle cx="2421" cy="247" r="5"/><circle cx="2555" cy="289" r="5"/><circle cx="-5" cy="289" r="5"/><circle cx="3" cy="325" r="5"/><circle cx="2563" cy="325" r="5"/><circle cx="85" cy="322" r="6"/><circle cx="181" cy="331" r="4"/><circle cx="253" cy="348" r="6"/><circle cx="339" cy="394" r="4"/><circle cx="437" cy="368" r="6"/><circle cx="527" cy="357" r="5"/><circle cx="637" cy="350" r="5"/><circle cx="704" cy="323" r="5"/><circle cx="740" cy="396" r="5"/><circle cx="813" cy="387" r="5"/><circle cx="938" cy="322" r="6"/><circle cx="979" cy="379" r="6"/><circle cx="1042" cy="359" r="5"/><circle cx="1139" cy="366" r="5"/><circle cx="1220" cy="350" r="5"/><circle cx="1350" cy="373" r="5"/><circle cx="1385" cy="395" r="6"/><circle cx="1453" cy="321" r="5"/><circle cx="1581" cy="331" r="5"/><circle cx="1676" cy="333" r="4"/><circle cx="1723" cy="366" r="6"/><circle cx="1773" cy="322" r="5"/><circle cx="1900" cy="352" r="4"/><circle cx="1934" cy="368" r="6"/><circle cx="2061" cy="369" r="5"/><circle cx="2123" cy="375" r="5"/><circle cx="2224" cy="374" r="4"/><circle cx="2244" cy="373" r="4"/><circle cx="2369" cy="322" r="5"/><circle cx="2475" cy="347" r="5"/><circle cx="2480" cy="373" r="4"/><circle cx="11" cy="478" r="6"/><circle cx="115" cy="436" r="5"/><circle cx="168" cy="469" r="5"/><circle cx="279" cy="474" r="5"/><circle cx="387" cy="404" r="4"/><circle cx="427" cy="462" r="5"/><circle cx="508" cy="465" r="6"/><circle cx="576" cy="469" r="5"/><circle cx="661" cy="428" r="5"/><circle cx="721" cy="419" r="6"/><circle cx="831" cy="456" r="5"/><circle cx="932" cy="421" r="6"/><circle cx="996" cy="451" r="6"/><circle cx="1061" cy="471" r="5"/><circle cx="1199" cy="452" r="6"/><circle cx="1274" cy="407" r="4"/><circle cx="1322" cy="402" r="6"/><circle cx="1382" cy="433" r="5"/><circle cx="1513" cy="441" r="6"/><circle cx="1571" cy="403" r="4"/><circle cx="1678" cy="468" r="6"/><circle cx="1750" cy="441" r="6"/><circle cx="1772" cy="462" r="4"/><circle cx="1867" cy="460" r="5"/><circle cx="1970" cy="422" r="4"/><circle cx="2040" cy="445" r="5"/><circle cx="2135" cy="403" r="6"/><circle cx="2192" cy="478" r="5"/><circle cx="2253" cy="446" r="5"/><circle cx="2334" cy="431" r="4"/><circle cx="2458" cy="453" r="6"/><circle cx="2510" cy="429" r="6"/><circle cx="41" cy="526" r="5"/><circle cx="158" cy="543" r="6"/><circle cx="231" cy="482" r="4"/><circle cx="276" cy="538" r="4"/><circle cx="335" cy="515" r="5"/><circle cx="419" cy="485" r="5"/><circle cx="548" cy="551" r="5"/><circle cx="577" cy="513" r="6"/><circle cx="664" cy="541" r="5"/><circle cx="759" cy="524" r="6"/><circle cx="860" cy="529" r="5"/><circle cx="896" cy="487" r="5"/><circle cx="996" cy="491" r="6"/><circle cx="1088" cy="546" r="6"/><circle cx="1194" cy="497" r="5"/><circle cx="1217" cy="497" r="5"/><circle cx="1290" cy="552" r="5"/><circle cx="1393" cy="508" r="5"/><circle cx="1477" cy="540" r="4"/><circle cx="1525" cy="519" r="5"/><circle cx="1605" cy="514" r="5"/><circle cx="1683" cy="496" r="4"/><circle cx="1823" cy="537" r="5"/><circle cx="1860" cy="505" r="5"/><circle cx="1932" cy="487" r="4"/><circle cx="2054" cy="536" r="5"/><circle cx="2110" cy="491" r="5"/><circle cx="2208" cy="545" r="4"/><circle cx="2292" cy="485" r="5"/><circle cx="2378" cy="528" r="5"/><circle cx="2405" cy="511" r="4"/><circle cx="2548" cy="516" r="6"/><circle cx="72" cy="630" r="5"/><circle cx="154" cy="604" r="5"/><circle cx="201" cy="610" r="5"/><circle cx="317" cy="614" r="4"/><circle cx="378" cy="579" r="6"/><circle cx="464" cy="614" r="5"/><circle cx="547" cy="619" r="4"/><circle cx="564" cy="590" r="5"/><circle cx="652" cy="565" r="5"/><circle cx="796" cy="610" r="4"/><circle cx="851" cy="572" r="5"/><circle cx="903" cy="583" r="5"/><circle cx="1031" cy="633" r="5"/><circle cx="1119" cy="601" r="6"/><circle cx="1193" cy="563" r="5"/><circle cx="1236" cy="626" r="6"/><circle cx="1334" cy="617" r="5"/><circle cx="1401" cy="609" r="6"/><circle cx="1496" cy="638" r="5"/><circle cx="1597" cy="566" r="5"/><circle cx="1651" cy="565" r="4"/><circle cx="1748" cy="609" r="4"/><circle cx="1817" cy="561" r="6"/><circle cx="1882" cy="627" r="6"/><circle cx="1975" cy="576" r="4"/><circle cx="2055" cy="600" r="6"/><circle cx="2088" cy="562" r="5"/><circle cx="2189" cy="593" r="4"/><circle cx="2279" cy="628" r="4"/><circle cx="2392" cy="601" r="5"/><circle cx="2425" cy="632" r="6"/><circle cx="2498" cy="618" r="6"/><circle cx="75" cy="653" r="6"/><circle cx="159" cy="661" r="4"/><circle cx="189" cy="718" r="4"/><circle cx="280" cy="686" r="6"/><circle cx="348" cy="653" r="5"/><circle cx="404" cy="682" r="4"/><circle cx="496" cy="676" r="4"/><circle cx="605" cy="707" r="5"/><circle cx="713" cy="682" r="4"/><circle cx="755" cy="698" r="5"/><circle cx="877" cy="641" r="5"/><circle cx="899" cy="668" r="6"/><circle cx="997" cy="703" r="4"/><circle cx="1049" cy="672" r="5"/><circle cx="1169" cy="663" r="5"/><circle cx="1246" cy="707" r="4"/><circle cx="1355" cy="654" r="5"/><circle cx="1414" cy="692" r="6"/><circle cx="1462" cy="684" r="5"/><circle cx="1546" cy="679" r="5"/><circle cx="1628" cy="646" r="5"/><circle cx="1709" cy="674" r="5"/><circle cx="1826" cy="693" r="5"/><circle cx="1874" cy="698" r="5"/><circle cx="1989" cy="675" r="4"/><circle cx="2078" cy="662" r="4"/><circle cx="2115" cy="644" r="4"/><circle cx="2239" cy="695" r="4"/><circle cx="2294" cy="701" r="5"/><circle cx="2387" cy="655" r="6"/><circle cx="2406" cy="666" r="5"/><circle cx="2507" cy="710" r="4"/><circle cx="72" cy="791" r="4"/><circle cx="150" cy="765" r="4"/><circle cx="237" cy="796" r="5"/><circle cx="313" cy="755" r="5"/><circle cx="381" cy="743" r="5"/><circle cx="452" cy="753" r="6"/><circle cx="547" cy="786" r="5"/><circle cx="588" cy="796" r="5"/><circle cx="660" cy="780" r="5"/><circle cx="759" cy="782" r="5"/><circle cx="843" cy="727" r="6"/><circle cx="960" cy="766" r="6"/><circle cx="1011" cy="740" r="5"/><circle cx="1106" cy="777" r="4"/><circle cx="1152" cy="725" r="5"/><circle cx="1245" cy="784" r="5"/><circle cx="1293" cy="758" r="4"/><circle cx="1427" cy="745" r="5"/><circle cx="1489" cy="725" r="5"/><circle cx="1575" cy="782" r="6"/><circle cx="1613" cy="746" r="5"/><circle cx="1712" cy="762" r="5"/><circle cx="1824" cy="782" r="4"/><circle cx="1911" cy="725" r="4"/><circle cx="1940" cy="758" r="4"/><circle cx="2032" cy="775" r="5"/><circle cx="2088" cy="731" r="4"/><circle cx="2186" cy="726" r="5"/><circle cx="2287" cy="728" r="5"/><circle cx="2399" cy="755" r="5"/><circle cx="2412" cy="760" r="5"/><circle cx="2545" cy="734" r="4"/><circle cx="60" cy="846" r="6"/><circle cx="108" cy="812" r="5"/><circle cx="229" cy="811" r="6"/><circle cx="271" cy="800" r="6"/><circle cx="348" cy="828" r="5"/><circle cx="444" cy="847" r="4"/><circle cx="534" cy="814" r="4"/><circle cx="602" cy="846" r="6"/><circle cx="678" cy="812" r="5"/><circle cx="800" cy="867" r="5"/><circle cx="858" cy="808" r="6"/><circle cx="920" cy="840" r="4"/><circle cx="964" cy="863" r="5"/><circle cx="1099" cy="838" r="6"/><circle cx="1158" cy="864" r="5"/><circle cx="1247" cy="827" r="4"/><circle cx="1340" cy="813" r="5"/><circle cx="1374" cy="810" r="6"/><circle cx="1519" cy="872" r="4"/><circle cx="1591" cy="836" r="6"/><circle cx="1615" cy="861" r="5"/><circle cx="1752" cy="854" r="6"/><circle cx="1814" cy="863" r="5"/><circle cx="1854" cy="821" r="4"/><circle cx="1952" cy="808" r="5"/><circle cx="2037" cy="866" r="4"/><circle cx="2129" cy="870" r="5"/><circle cx="2194" cy="825" r="6"/><circle cx="2308" cy="876" r="6"/><circle cx="2351" cy="825" r="6"/><circle cx="2455" cy="859" r="4"/><circle cx="2516" cy="874" r="5"/><circle cx="31" cy="915" r="5"/><circle cx="143" cy="942" r="5"/><circle cx="171" cy="940" r="6"/><circle cx="310" cy="917" r="4"/><circle cx="344" cy="951" r="4"/><circle cx="405" cy="920" r="6"/><circle cx="531" cy="909" r="6"/><circle cx="575" cy="896" r="5"/><circle cx="719" cy="923" r="5"/><circle cx="774" cy="941" r="5"/><circle cx="871" cy="901" r="6"/><circle cx="903" cy="912" r="6"/><circle cx="978" cy="932" r="6"/><circle cx="1061" cy="959" r="6"/><circle cx="1165" cy="944" r="4"/><circle cx="1262" cy="934" r="5"/><circle cx="1358" cy="887" r="6"/><circle cx="1418" cy="900" r="4"/><circle cx="1446" cy="922" r="5"/><circle cx="1572" cy="941" r="6"/><circle cx="1633" cy="931" r="6"/><circle cx="1711" cy="908" r="4"/><circle cx="1801" cy="885" r="6"/><circle cx="1869" cy="931" r="6"/><circle cx="1978" cy="940" r="4"/><circle cx="2015" cy="945" r="4"/><circle cx="2139" cy="889" r="5"/><circle cx="2174" cy="932" r="4"/><circle cx="2246" cy="902" r="4"/><circle cx="2363" cy="920" r="6"/><circle cx="2436" cy="952" r="5"/><circle cx="2483" cy="881" r="5"/><circle cx="76" cy="1008" r="5"/><circle cx="127" cy="1036" r="5"/><circle cx="219" cy="1012" r="5"/><circle cx="305" cy="1025" r="4"/><circle cx="365" cy="995" r="4"/><circle cx="459" cy="966" r="4"/><circle cx="493" cy="1032" r="4"/><circle cx="600" cy="1015" r="5"/><circle cx="667" cy="1021" r="6"/><circle cx="729" cy="1018" r="6"/><circle cx="805" cy="1015" r="6"/><circle cx="909" cy="1008" r="6"/><circle cx="970" cy="962" r="6"/><circle cx="1049" cy="997" r="5"/><circle cx="1152" cy="996" r="5"/><circle cx="1223" cy="976" r="5"/><circle cx="1331" cy="964" r="6"/><circle cx="1420" cy="1004" r="5"/><circle cx="1509" cy="1015" r="6"/><circle cx="1549" cy="1017" r="4"/><circle cx="1614" cy="1003" r="5"/><circle cx="1750" cy="968" r="5"/><circle cx="1821" cy="1016" r="5"/><circle cx="1862" cy="978" r="5"/><circle cx="1929" cy="1019" r="5"/><circle cx="2017" cy="1011" r="6"/><circle cx="2111" cy="973" r="5"/><circle cx="2169" cy="973" r="4"/><circle cx="2293" cy="1020" r="4"/><circle cx="2382" cy="976" r="5"/><circle cx="2457" cy="1005" r="4"/><circle cx="2541" cy="992" r="6"/><circle cx="24" cy="1115" r="5"/><circle cx="103" cy="1046" r="6"/><circle cx="180" cy="1115" r="4"/><circle cx="246" cy="1067" r="5"/><circle cx="394" cy="1116" r="4"/><circle cx="426" cy="1117" r="6"/><circle cx="508" cy="1090" r="5"/><circle cx="577" cy="1118" r="4"/><circle cx="699" cy="1080" r="6"/><circle cx="774" cy="1089" r="5"/><circle cx="859" cy="1082" r="5"/><circle cx="895" cy="1088" r="5"/><circle cx="979" cy="1064" r="5"/><circle cx="1099" cy="1076" r="6"/><circle cx="1189" cy="1107" r="5"/><circle cx="1217" cy="1051" r="5"/><circle cx="1317" cy="1116" r="5"/><circle cx="1372" cy="1117" r="5"/><circle cx="1440" cy="1073" r="5"/><circle cx="1565" cy="1086" r="5"/><circle cx="1653" cy="1103" r="5"/><circle cx="1728" cy="1084" r="5"/><circle cx="1772" cy="1045" r="5"/><circle cx="1899" cy="1118" r="5"/><circle cx="1998" cy="1076" r="6"/><circle cx="2054" cy="1100" r="5"/><circle cx="2148" cy="1075" r="5"/><circle cx="2212" cy="1087" r="5"/><circle cx="2248" cy="1094" r="4"/><circle cx="2353" cy="1072" r="5"/><circle cx="2472" cy="1058" r="5"/><circle cx="2491" cy="1071" r="6"/><circle cx="26" cy="1145" r="5"/><circle cx="126" cy="1134" r="4"/><circle cx="164" cy="1156" r="5"/><circle cx="317" cy="1150" r="5"/><circle cx="351" cy="1185" r="6"/><circle cx="452" cy="1140" r="4"/><circle cx="541" cy="1168" r="4"/><circle cx="587" cy="1143" r="6"/><circle cx="678" cy="1147" r="6"/><circle cx="741" cy="1164" r="5"/><circle cx="830" cy="1125" r="4"/><circle cx="947" cy="1120" r="5"/><circle cx="1015" cy="1150" r="5"/><circle cx="1046" cy="1160" r="5"/><circle cx="1188" cy="1146" r="6"/><circle cx="1203" cy="1134" r="6"/><circle cx="1347" cy="1127" r="5"/><circle cx="1399" cy="1131" r="5"/><circle cx="1489" cy="1165" r="6"/><circle cx="1572" cy="1184" r="6"/><circle cx="1643" cy="1136" r="5"/><circle cx="1750" cy="1196" r="5"/><circle cx="1803" cy="1144" r="4"/><circle cx="1918" cy="1146" r="5"/><circle cx="1937" cy="1154" r="4"/><circle cx="2075" cy="1182" r="4"/><circle cx="2135" cy="1179" r="4"/><circle cx="2220" cy="1129" r="4"/><circle cx="2295" cy="1134" r="4"/><circle cx="2336" cy="1148" r="6"/><circle cx="2421" cy="1193" r="6"/><circle cx="2481" cy="1190" r="6"/><circle cx="27" cy="1202" r="4"/><circle cx="122" cy="1213" r="4"/><circle cx="183" cy="1209" r="5"/><circle cx="247" cy="1269" r="5"/><circle cx="325" cy="1253" r="5"/><circle cx="427" cy="1247" r="5"/><circle cx="505" cy="1276" r="6"/><circle cx="577" cy="1237" r="5"/><circle cx="674" cy="1260" r="6"/><circle cx="754" cy="1272" r="4"/><circle cx="878" cy="1242" r="5"/><circle cx="918" cy="1200" r="5"/><circle cx="1002" cy="1213" r="5"/><circle cx="1092" cy="1261" r="4"/><circle cx="1137" cy="1239" r="5"/><circle cx="1265" cy="1236" r="5"/><circle cx="1349" cy="1261" r="6"/><circle cx="1410" cy="1207" r="5"/><circle cx="1442" cy="1270" r="4"/><circle cx="1563" cy="1278" r="6"/><circle cx="1614" cy="1203" r="5"/><circle cx="1714" cy="1275" r="4"/><circle cx="1775" cy="1276" r="5"/><circle cx="1900" cy="1206" r="5"/><circle cx="1956" cy="1229" r="4"/><circle cx="2068" cy="1207" r="6"/><circle cx="2149" cy="1202" r="5"/><circle cx="2187" cy="1244" r="5"/><circle cx="2243" cy="1252" r="6"/><circle cx="2381" cy="1235" r="5"/><circle cx="2402" cy="1222" r="5"/><circle cx="2532" cy="1265" r="5"/><circle cx="2" cy="1336" r="5"/><circle cx="2562" cy="1336" r="5"/><circle cx="127" cy="1357" r="5"/><circle cx="177" cy="1317" r="4"/><circle cx="314" cy="1320" r="4"/><circle cx="363" cy="1312" r="6"/><circle cx="473" cy="1354" r="5"/><circle cx="489" cy="1295" r="6"/><circle cx="588" cy="1288" r="6"/><circle cx="696" cy="1343" r="4"/><circle cx="749" cy="1303" r="6"/><circle cx="851" cy="1337" r="5"/><circle cx="942" cy="1306" r="4"/><circle cx="998" cy="1342" r="5"/><circle cx="1091" cy="1283" r="5"/><circle cx="1188" cy="1319" r="5"/><circle cx="1207" cy="1356" r="4"/><circle cx="1323" cy="1343" r="6"/><circle cx="1435" cy="1337" r="4"/><circle cx="1450" cy="1346" r="4"/><circle cx="1531" cy="1306" r="5"/><circle cx="1624" cy="1343" r="5"/><circle cx="1693" cy="1295" r="5"/><circle cx="1820" cy="1303" r="5"/><circle cx="1886" cy="1296" r="4"/><circle cx="1941" cy="1306" r="6"/><circle cx="2031" cy="1280" r="4"/><circle cx="2096" cy="1346" r="5"/><circle cx="2183" cy="1287" r="4"/><circle cx="2246" cy="1316" r="5"/><circle cx="2397" cy="1347" r="4"/><circle cx="2468" cy="1296" r="5"/><circle cx="2548" cy="1299" r="5"/><circle cx="50" cy="1375" r="5"/><circle cx="81" cy="1400" r="5"/><circle cx="171" cy="1390" r="4"/><circle cx="301" cy="1375" r="5"/><circle cx="379" cy="1440" r="4"/><circle cx="379" cy="-0" r="4"/><circle cx="441" cy="1388" r="6"/><circle cx="502" cy="1438" r="6"/><circle cx="502" cy="-2" r="6"/><circle cx="601" cy="1407" r="6"/><circle cx="715" cy="1431" r="5"/><circle cx="737" cy="1370" r="5"/><circle cx="878" cy="1372" r="5"/><circle cx="899" cy="1389" r="5"/><circle cx="999" cy="1362" r="4"/><circle cx="1054" cy="1429" r="5"/><circle cx="1151" cy="1405" r="5"/><circle cx="1207" cy="1372" r="5"/><circle cx="1300" cy="1429" r="5"/><circle cx="1390" cy="1397" r="5"/><circle cx="1479" cy="1412" r="5"/><circle cx="1591" cy="1390" r="4"/><circle cx="1666" cy="1372" r="6"/><circle cx="1752" cy="1367" r="6"/><circle cx="1829" cy="1369" r="5"/><circle cx="1855" cy="1364" r="6"/><circle cx="1983" cy="1378" r="4"/><circle cx="2080" cy="1377" r="4"/><circle cx="2149" cy="1400" r="5"/><circle cx="2240" cy="1396" r="6"/><circle cx="2310" cy="1399" r="4"/><circle cx="2362" cy="1370" r="6"/><circle cx="2410" cy="1365" r="6"/><circle cx="2496" cy="1368" r="4"/><path stroke="#fff" d="M63 33L136 18M63 33L-29 68M63 33L122 102M63 33L50 -65M63 33L81 -40M2623 33L2531 68M63 1473L50 1375M63 1473L81 1400M136 18L176 60M136 18L122 102M136 18L81 -40M136 18L171 -50M136 1458L81 1400M136 1458L171 1390M176 60L249 11M176 60L122 102M176 60L216 116M176 60L194 166M249 11L216 116M249 11L171 -50M249 11L301 -65M249 1451L171 1390M249 1451L301 1375M366 48L356 147M366 48L379 -0M366 1488L379 1440M472 64L530 72M472 64L463 89M472 64L549 89M472 64L564 100M472 64L502 -2M472 1504L502 1438M530 72L463 89M530 72L549 89M530 72L564 100M530 72L502 -2M530 1512L502 1438M634 3L670 29M634 3L601 -33M634 3L715 -9M634 1443L601 1407M634 1443L715 1431M670 29L769 43M670 29L669 109M670 29L601 -33M670 29L715 -9M670 1469L601 1407M670 1469L715 1431M769 43L829 6M769 43L770 143M769 43L715 -9M769 43L737 -70M769 1483L715 1431M769 1483L737 1370M829 6L878 -68M829 6L899 -51M829 1446L878 1372M829 1446L899 1389M949 1L983 1M949 1L1049 7M949 1L878 -68M949 1L899 -51M949 1441L878 1372M949 1441L899 1389M983 1L1049 7M983 1L998 -98M983 1L999 -78M983 1L1054 -11M983 1441L998 1342M983 1441L999 1362M983 1441L1054 1429M1049 7L1074 89M1049 7L999 -78M1049 7L1054 -11M1049 1447L999 1362M1049 1447L1054 1429M1198 46L1219 42M1198 46L1149 107M1198 46L1217 109M1198 46L1151 -35M1198 1486L1151 1405M1219 42L1217 109M1219 42L1151 -35M1219 42L1300 -11M1219 1482L1151 1405M1219 1482L1300 1429M1354 39L1411 12M1354 39L1311 115M1354 39L1300 -11M1354 1479L1300 1429M1411 12L1481 70M1411 12L1390 -43M1411 12L1479 -28M1411 1452L1390 1397M1411 1452L1479 1412M1481 70L1546 61M1481 70L1456 121M1481 70L1460 173M1481 70L1479 -28M1481 1510L1479 1412M1546 61L1641 54M1546 61L1456 121M1546 61L1573 131M1546 61L1612 102M1641 54L1573 131M1641 54L1612 102M1641 54L1708 138M1757 34L1834 38M1757 34L1847 24M1834 38L1847 24M1834 38L1830 127M1847 24L1830 127M1847 24L1829 -71M1847 24L1855 -76M1847 1464L1829 1369M1847 1464L1855 1364M1990 7L2020 9M1990 7L1983 -62M1990 1447L1983 1378M2020 9L2083 58M2020 9L1983 -62M2020 9L2080 -63M2020 1449L1983 1378M2020 1449L2080 1377M2083 58L2064 150M2083 58L2128 109M2083 58L2149 -40M2083 1498L2149 1400M2220 54L2298 57M2220 54L2185 87M2220 54L2321 87M2220 54L2240 -44M2220 1494L2240 1396M2298 57L2334 23M2298 57L2286 154M2298 57L2321 87M2298 57L2310 -41M2298 1497L2310 1399M2334 23L2420 15M2334 23L2321 87M2334 23L2310 -41M2334 23L2362 -70M2334 1463L2310 1399M2334 1463L2362 1370M2420 15L2321 87M2420 15L2455 112M2420 15L2362 -70M2420 15L2410 -75M2420 1455L2362 1370M2420 1455L2410 1365M2531 68L2575 147M2531 68L2455 112M2531 68L2489 103M-29 68L15 147M15 147L-71 103M15 147L6 212M2575 147L2489 103M122 102L216 116M122 102L194 166M216 116L297 144M216 116L194 166M297 144L356 147M297 144L318 185M297 144L358 205M356 147L318 185M356 147L358 205M356 147L415 206M463 89L549 89M463 89L564 100M549 89L564 100M549 89L580 160M564 100L580 160M669 109L682 175M669 109L750 174M770 143L843 124M770 143L682 175M770 143L750 174M770 143L808 219M843 124L885 158M843 124L750 174M843 124L898 185M885 158L1004 133M885 158L898 185M1004 133L1074 89M1004 133L898 185M1004 133L1025 221M1004 133L1083 179M1074 89L1149 107M1074 89L1083 179M1074 89L1054 -11M1074 1529L1054 1429M1149 107L1217 109M1149 107L1158 194M1217 109L1311 115M1217 109L1216 164M1311 115L1381 135M1311 115L1216 164M1311 115L1329 161M1381 135L1456 121M1381 135L1329 161M1381 135L1460 173M1456 121L1573 131M1456 121L1460 173M1573 131L1612 102M1573 131L1562 233M1612 102L1708 138M1612 102L1697 161M1708 138L1697 161M1830 127L1869 139M1830 127L1933 135M1830 127L1854 180M1869 139L1933 135M1869 139L1854 180M1869 139L1922 196M1933 135L1922 196M1933 135L1915 242M2064 150L2128 109M2064 150L2042 201M2064 150L2116 170M2064 150L2049 248M2128 109L2185 87M2128 109L2116 170M2128 109L2173 192M2286 154L2321 87M2286 154L2173 192M2286 154L2243 204M2286 154L2360 227M2455 112L2489 103M2455 112L2418 214M6 212L-52 215M6 212L4 293M6 212L-5 289M2566 212L2508 215M2566 212L2555 289M127 225L194 166M127 225L127 255M127 225L172 288M127 225L181 331M318 185L358 205M318 185L415 206M318 185L406 241M358 205L415 206M358 205L406 241M415 206L406 241M415 206L517 255M537 209L580 160M537 209L517 255M537 209L571 253M580 160L682 175M580 160L571 253M682 175L750 174M750 174L808 219M808 219L898 185M808 219L798 287M808 219L863 302M1025 221L1083 179M1025 221L1059 256M1083 179L1158 194M1083 179L1059 256M1158 194L1216 164M1158 194L1143 293M1158 194L1251 255M1216 164L1329 161M1216 164L1251 255M1329 161L1415 234M1329 161L1387 252M1415 234L1460 173M1415 234L1387 252M1415 234L1453 321M1460 173L1387 252M1562 233L1601 239M1562 233L1507 293M1562 233L1570 294M1562 233L1581 331M1601 239L1507 293M1601 239L1570 294M1601 239L1671 251M1601 239L1581 331M1697 161L1782 238M1697 161L1671 251M1782 238L1854 180M1782 238L1759 276M1782 238L1773 292M1782 238L1773 322M1854 180L1922 196M1854 180L1915 242M1922 196L2042 201M1922 196L1915 242M2042 201L2116 170M2042 201L2049 248M2042 201L2099 249M2116 170L2173 192M2116 170L2099 249M2173 192L2243 204M2173 192L2099 249M2243 204L2245 302M2360 227L2418 214M2360 227L2383 294M2360 227L2421 247M2360 227L2369 322M2418 214L2508 215M2418 214L2383 294M2418 214L2421 247M2508 215L2564 293M2508 215L2421 247M2508 215L2555 289M-52 215L4 293M4 293L-5 289M4 293L3 325M4 293L85 322M2564 293L2555 289M127 255L172 288M127 255L85 322M127 255L181 331M172 288L263 311M172 288L85 322M172 288L181 331M263 311L347 315M263 311L181 331M263 311L253 348M347 315L406 241M347 315L253 348M347 315L339 394M406 241L517 255M517 255L571 253M517 255L527 357M571 253L527 357M703 306L798 287M703 306L637 350M703 306L704 323M703 306L740 396M798 287L863 302M798 287L704 323M798 287L813 387M863 302L948 301M863 302L813 387M863 302L938 322M948 301L1013 313M948 301L938 322M1013 313L1059 256M1013 313L938 322M1013 313L979 379M1013 313L1042 359M1059 256L1143 293M1059 256L1042 359M1143 293L1139 366M1143 293L1220 350M1251 255L1287 288M1287 288L1387 252M1287 288L1220 350M1287 288L1350 373M1287 288L1322 402M1387 252L1453 321M1507 293L1570 294M1507 293L1453 321M1507 293L1581 331M1570 294L1581 331M1671 251L1759 276M1671 251L1773 292M1671 251L1676 333M1759 276L1773 292M1759 276L1723 366M1759 276L1773 322M1773 292L1723 366M1773 292L1773 322M1915 242L1969 317M1915 242L1900 352M1969 317L1900 352M1969 317L1934 368M1969 317L2061 369M2049 248L2099 249M2184 317L2245 302M2184 317L2123 375M2184 317L2224 374M2184 317L2244 373M2184 317L2135 403M2245 302L2224 374M2245 302L2244 373M2383 294L2421 247M2383 294L2369 322M2421 247L2369 322M2555 289L2563 325M2555 289L2645 322M-5 289L3 325M-5 289L85 322M3 325L85 322M3 325L-85 347M3 325L-80 373M2563 325L2475 347M2563 325L2480 373M181 331L253 348M253 348L339 394M339 394L437 368M339 394L279 474M339 394L387 404M437 368L527 357M437 368L387 404M437 368L427 462M527 357L637 350M637 350L704 323M637 350L661 428M704 323L740 396M704 323L721 419M740 396L813 387M740 396L661 428M740 396L721 419M813 387L721 419M813 387L831 456M938 322L979 379M938 322L932 421M979 379L1042 359M979 379L932 421M979 379L996 451M1042 359L1139 366M1042 359L996 451M1139 366L1220 350M1139 366L1061 471M1139 366L1199 452M1220 350L1199 452M1220 350L1274 407M1350 373L1385 395M1350 373L1274 407M1350 373L1322 402M1350 373L1382 433M1385 395L1453 321M1385 395L1322 402M1385 395L1382 433M1385 395L1393 508M1453 321L1513 441M1581 331L1571 403M1676 333L1723 366M1676 333L1773 322M1723 366L1773 322M1723 366L1750 441M1900 352L1934 368M1900 352L1970 422M1934 368L1970 422M2061 369L2123 375M2061 369L1970 422M2061 369L2040 445M2061 369L2135 403M2123 375L2135 403M2224 374L2244 373M2224 374L2253 446M2244 373L2253 446M2369 322L2475 347M2475 347L2480 373M2475 347L2458 453M2475 347L2510 429M2480 373L2458 453M2480 373L2510 429M11 478L115 436M11 478L-50 429M11 478L41 526M11 478L-12 516M2571 478L2510 429M2571 478L2548 516M115 436L168 469M115 436L41 526M115 436L158 543M168 469L279 474M168 469L158 543M168 469L231 482M279 474L231 482M279 474L276 538M279 474L335 515M387 404L427 462M387 404L419 485M427 462L508 465M427 462L335 515M427 462L419 485M508 465L576 469M508 465L419 485M508 465L548 551M508 465L577 513M576 469L661 428M576 469L548 551M576 469L577 513M576 469L664 541M661 428L721 419M831 456L759 524M831 456L860 529M831 456L896 487M932 421L996 451M932 421L896 487M932 421L996 491M996 451L1061 471M996 451L996 491M1061 471L996 491M1061 471L1088 546M1199 452L1274 407M1199 452L1194 497M1199 452L1217 497M1274 407L1322 402M1274 407L1382 433M1322 402L1382 433M1382 433L1393 508M1513 441L1571 403M1513 441L1477 540M1513 441L1525 519M1678 468L1750 441M1678 468L1772 462M1678 468L1605 514M1678 468L1683 496M1678 468L1651 565M1750 441L1772 462M1750 441L1683 496M1772 462L1867 460M1772 462L1823 537M1772 462L1860 505M1867 460L1823 537M1867 460L1860 505M1867 460L1932 487M1867 460L1817 561M1970 422L2040 445M1970 422L1932 487M2040 445L2054 536M2040 445L2110 491M2135 403L2192 478M2135 403L2110 491M2192 478L2253 446M2192 478L2110 491M2192 478L2208 545M2192 478L2292 485M2253 446L2334 431M2253 446L2292 485M2334 431L2292 485M2334 431L2378 528M2334 431L2405 511M2458 453L2510 429M2458 453L2405 511M2458 453L2548 516M2510 429L2548 516M41 526L-12 516M41 526L72 630M2601 526L2548 516M158 543L231 482M158 543L154 604M158 543L201 610M231 482L276 538M276 538L335 515M276 538L201 610M276 538L317 614M335 515L419 485M335 515L378 579M419 485L378 579M548 551L577 513M548 551L547 619M548 551L564 590M577 513L664 541M577 513L564 590M664 541L759 524M664 541L652 565M759 524L860 529M759 524L796 610M759 524L851 572M860 529L896 487M860 529L851 572M860 529L903 583M896 487L996 491M996 491L1088 546M1088 546L1031 633M1088 546L1119 601M1194 497L1217 497M1194 497L1290 552M1194 497L1193 563M1217 497L1290 552M1217 497L1193 563M1290 552L1193 563M1290 552L1236 626M1290 552L1334 617M1393 508L1477 540M1477 540L1525 519M1525 519L1605 514M1525 519L1597 566M1605 514L1683 496M1605 514L1597 566M1605 514L1651 565M1683 496L1651 565M1823 537L1860 505M1823 537L1817 561M1823 537L1882 627M1860 505L1932 487M1860 505L1817 561M1932 487L1975 576M2054 536L2110 491M2054 536L1975 576M2054 536L2055 600M2054 536L2088 562M2110 491L2088 562M2208 545L2292 485M2208 545L2189 593M2292 485L2378 528M2378 528L2405 511M2378 528L2392 601M2378 528L2425 632M2548 516L2498 618M72 630L154 604M72 630L75 653M72 630L159 661M154 604L201 610M154 604L75 653M154 604L159 661M201 610L159 661M201 610L280 686M317 614L378 579M317 614L280 686M317 614L348 653M378 579L464 614M378 579L348 653M464 614L547 619M464 614L564 590M464 614L404 682M464 614L496 676M547 619L564 590M547 619L496 676M547 619L605 707M564 590L652 565M796 610L851 572M796 610L755 698M796 610L877 641M851 572L903 583M851 572L877 641M903 583L877 641M903 583L899 668M1031 633L1119 601M1031 633L997 703M1031 633L1049 672M1031 633L1011 740M1119 601L1193 563M1119 601L1049 672M1119 601L1169 663M1193 563L1236 626M1236 626L1334 617M1236 626L1169 663M1236 626L1246 707M1334 617L1401 609M1334 617L1355 654M1401 609L1496 638M1401 609L1355 654M1401 609L1414 692M1496 638L1462 684M1496 638L1546 679M1496 638L1489 725M1597 566L1651 565M1597 566L1628 646M1651 565L1628 646M1748 609L1817 561M1748 609L1709 674M1817 561L1882 627M1882 627L1826 693M1882 627L1874 698M1882 627L1911 725M1975 576L2055 600M1975 576L1989 675M2055 600L2088 562M2055 600L2078 662M2055 600L2115 644M2088 562L2078 662M2088 562L2115 644M2189 593L2279 628M2189 593L2115 644M2189 593L2239 695M2279 628L2239 695M2279 628L2294 701M2279 628L2287 728M2392 601L2425 632M2392 601L2387 655M2392 601L2406 666M2425 632L2498 618M2425 632L2387 655M2425 632L2406 666M2498 618L2507 710M75 653L159 661M75 653L-15 734M2635 653L2545 734M159 661L189 718M189 718L280 686M189 718L150 765M189 718L237 796M189 718L229 811M280 686L348 653M280 686L313 755M348 653L404 682M348 653L381 743M404 682L496 676M404 682L381 743M404 682L452 753M496 676L452 753M605 707L713 682M605 707L547 786M605 707L660 780M713 682L755 698M755 698L759 782M755 698L843 727M877 641L899 668M877 641L843 727M899 668L997 703M899 668L843 727M997 703L1049 672M997 703L960 766M997 703L1011 740M1049 672L1169 663M1049 672L1011 740M1169 663L1246 707M1169 663L1152 725M1246 707L1152 725M1246 707L1245 784M1246 707L1293 758M1355 654L1414 692M1414 692L1462 684M1414 692L1427 745M1414 692L1489 725M1462 684L1546 679M1462 684L1427 745M1462 684L1489 725M1546 679L1628 646M1546 679L1489 725M1546 679L1613 746M1628 646L1709 674M1628 646L1613 746M1709 674L1826 693M1709 674L1712 762M1826 693L1874 698M1826 693L1824 782M1826 693L1911 725M1874 698L1824 782M1874 698L1911 725M1874 698L1940 758M1989 675L2078 662M1989 675L1940 758M1989 675L2032 775M2078 662L2115 644M2078 662L2088 731M2115 644L2088 731M2239 695L2294 701M2239 695L2186 726M2239 695L2287 728M2294 701L2387 655M2294 701L2186 726M2294 701L2287 728M2387 655L2406 666M2387 655L2399 755M2406 666L2399 755M2406 666L2412 760M2507 710L2412 760M2507 710L2545 734M72 791L150 765M72 791L-15 734M72 791L60 846M72 791L108 812M2632 791L2545 734M150 765L237 796M150 765L108 812M150 765L229 811M237 796L313 755M237 796L229 811M237 796L271 800M313 755L381 743M313 755L271 800M313 755L348 828M381 743L452 753M381 743L348 828M452 753L547 786M452 753L444 847M547 786L588 796M547 786L534 814M547 786L602 846M588 796L660 780M588 796L534 814M588 796L602 846M588 796L678 812M660 780L678 812M759 782L843 727M759 782L678 812M759 782L800 867M843 727L858 808M960 766L1011 740M960 766L858 808M960 766L920 840M960 766L964 863M1011 740L1106 777M1106 777L1152 725M1106 777L1099 838M1106 777L1158 864M1152 725L1245 784M1152 725L1099 838M1245 784L1293 758M1245 784L1247 827M1245 784L1340 813M1293 758L1247 827M1293 758L1340 813M1293 758L1374 810M1427 745L1489 725M1427 745L1374 810M1575 782L1613 746M1575 782L1519 872M1575 782L1591 836M1575 782L1615 861M1613 746L1712 762M1613 746L1591 836M1712 762L1752 854M1824 782L1752 854M1824 782L1814 863M1824 782L1854 821M1911 725L1940 758M1911 725L1952 808M1940 758L2032 775M1940 758L1952 808M2032 775L2088 731M2032 775L1952 808M2032 775L2037 866M2088 731L2186 726M2186 726L2287 728M2186 726L2194 825M2399 755L2412 760M2399 755L2351 825M2412 760L2351 825M60 846L108 812M60 846L-44 874M60 846L31 915M2620 846L2516 874M229 811L271 800M271 800L348 828M348 828L310 917M444 847L405 920M444 847L531 909M534 814L602 846M534 814L531 909M534 814L575 896M602 846L678 812M602 846L575 896M678 812L719 923M800 867L858 808M800 867L719 923M800 867L774 941M800 867L871 901M858 808L920 840M858 808L871 901M920 840L964 863M920 840L871 901M920 840L903 912M964 863L903 912M964 863L978 932M1099 838L1158 864M1158 864L1247 827M1158 864L1165 944M1247 827L1340 813M1247 827L1262 934M1340 813L1374 810M1340 813L1358 887M1374 810L1358 887M1374 810L1418 900M1519 872L1591 836M1519 872L1615 861M1519 872L1446 922M1591 836L1615 861M1591 836L1633 931M1615 861L1572 941M1615 861L1633 931M1752 854L1814 863M1752 854L1711 908M1752 854L1801 885M1814 863L1854 821M1814 863L1801 885M1814 863L1869 931M1854 821L1952 808M1854 821L1801 885M1952 808L2037 866M2037 866L2129 870M2037 866L2015 945M2129 870L2194 825M2129 870L2139 889M2129 870L2174 932M2129 870L2111 973M2194 825L2308 876M2194 825L2139 889M2194 825L2246 902M2308 876L2351 825M2308 876L2246 902M2308 876L2363 920M2351 825L2455 859M2351 825L2363 920M2455 859L2516 874M2455 859L2363 920M2455 859L2436 952M2455 859L2483 881M2516 874L2591 915M2516 874L2483 881M-44 874L31 915M31 915L-77 881M31 915L76 1008M31 915L-19 992M2591 915L2483 881M2591 915L2541 992M143 942L171 940M143 942L76 1008M143 942L127 1036M143 942L219 1012M171 940L127 1036M171 940L219 1012M310 917L344 951M310 917L405 920M310 917L305 1025M310 917L365 995M344 951L405 920M344 951L305 1025M344 951L365 995M405 920L365 995M405 920L459 966M531 909L575 896M531 909L459 966M531 909L600 1015M719 923L774 941M719 923L667 1021M774 941L871 901M774 941L729 1018M774 941L805 1015M871 901L903 912M903 912L978 932M903 912L970 962M978 932L1061 959M978 932L909 1008M978 932L970 962M1061 959L1165 944M1061 959L970 962M1061 959L1049 997M1061 959L1152 996M1165 944L1262 934M1165 944L1152 996M1165 944L1223 976M1262 934L1223 976M1262 934L1331 964M1358 887L1418 900M1358 887L1446 922M1358 887L1331 964M1418 900L1446 922M1418 900L1331 964M1418 900L1420 1004M1446 922L1420 1004M1572 941L1633 931M1572 941L1509 1015M1572 941L1549 1017M1572 941L1614 1003M1633 931L1711 908M1633 931L1614 1003M1711 908L1750 968M1801 885L1869 931M1801 885L1750 968M1869 931L1821 1016M1869 931L1862 978M1869 931L1929 1019M1978 940L2015 945M1978 940L2017 1011M2015 945L2017 1011M2139 889L2174 932M2139 889L2111 973M2139 889L2169 973M2174 932L2246 902M2174 932L2111 973M2174 932L2169 973M2246 902L2169 973M2363 920L2436 952M2363 920L2382 976M2436 952L2483 881M2436 952L2382 976M2436 952L2457 1005M76 1008L127 1036M76 1008L-19 992M76 1008L103 1046M2636 1008L2541 992M127 1036L219 1012M127 1036L103 1046M219 1012L305 1025M219 1012L246 1067M305 1025L365 995M305 1025L246 1067M365 995L459 966M459 966L493 1032M493 1032L600 1015M493 1032L508 1090M600 1015L667 1021M600 1015L577 1118M667 1021L729 1018M667 1021L699 1080M729 1018L805 1015M729 1018L699 1080M729 1018L774 1089M805 1015L774 1089M805 1015L859 1082M909 1008L970 962M909 1008L859 1082M909 1008L895 1088M909 1008L979 1064M970 962L1049 997M1049 997L979 1064M1049 997L1099 1076M1152 996L1223 976M1152 996L1099 1076M1152 996L1217 1051M1223 976L1331 964M1223 976L1217 1051M1331 964L1420 1004M1420 1004L1509 1015M1420 1004L1440 1073M1509 1015L1549 1017M1509 1015L1440 1073M1509 1015L1565 1086M1549 1017L1614 1003M1549 1017L1565 1086M1750 968L1821 1016M1750 968L1862 978M1750 968L1772 1045M1821 1016L1862 978M1821 1016L1772 1045M1862 978L1929 1019M1862 978L1772 1045M1929 1019L2017 1011M1929 1019L1899 1118M1929 1019L1998 1076M2017 1011L1998 1076M2017 1011L2054 1100M2111 973L2169 973M2111 973L2148 1075M2293 1020L2382 976M2293 1020L2212 1087M2293 1020L2248 1094M2293 1020L2353 1072M2382 976L2457 1005M2382 976L2353 1072M2457 1005L2541 992M2457 1005L2472 1058M2457 1005L2491 1071M2541 992L2472 1058M2541 992L2491 1071M24 1115L103 1046M24 1115L-69 1071M24 1115L26 1145M24 1115L27 1202M2584 1115L2491 1071M103 1046L180 1115M103 1046L126 1134M180 1115L246 1067M180 1115L126 1134M180 1115L164 1156M180 1115L183 1209M246 1067L164 1156M246 1067L317 1150M394 1116L426 1117M394 1116L317 1150M394 1116L351 1185M394 1116L452 1140M426 1117L508 1090M426 1117L317 1150M426 1117L351 1185M426 1117L452 1140M508 1090L577 1118M508 1090L452 1140M508 1090L587 1143M577 1118L541 1168M577 1118L587 1143M577 1118L678 1147M699 1080L774 1089M699 1080L678 1147M699 1080L741 1164M774 1089L741 1164M774 1089L830 1125M859 1082L895 1088M859 1082L830 1125M859 1082L947 1120M895 1088L979 1064M895 1088L830 1125M895 1088L947 1120M979 1064L947 1120M979 1064L1015 1150M1099 1076L1189 1107M1099 1076L1046 1160M1099 1076L1188 1146M1189 1107L1217 1051M1189 1107L1188 1146M1189 1107L1203 1134M1217 1051L1188 1146M1217 1051L1203 1134M1317 1116L1372 1117M1317 1116L1203 1134M1317 1116L1347 1127M1317 1116L1399 1131M1372 1117L1440 1073M1372 1117L1347 1127M1372 1117L1399 1131M1372 1117L1410 1207M1440 1073L1399 1131M1440 1073L1489 1165M1565 1086L1653 1103M1565 1086L1572 1184M1565 1086L1643 1136M1653 1103L1728 1084M1653 1103L1643 1136M1653 1103L1614 1203M1728 1084L1772 1045M1728 1084L1643 1136M1728 1084L1750 1196M1728 1084L1803 1144M1772 1045L1803 1144M1899 1118L1918 1146M1899 1118L1937 1154M1899 1118L1900 1206M1998 1076L2054 1100M1998 1076L1918 1146M1998 1076L1937 1154M2054 1100L2148 1075M2054 1100L2075 1182M2054 1100L2068 1207M2148 1075L2212 1087M2148 1075L2220 1129M2212 1087L2248 1094M2212 1087L2220 1129M2212 1087L2295 1134M2248 1094L2220 1129M2248 1094L2295 1134M2353 1072L2472 1058M2353 1072L2295 1134M2353 1072L2336 1148M2472 1058L2491 1071M26 1145L126 1134M26 1145L27 1202M26 1145L122 1213M126 1134L164 1156M126 1134L122 1213M164 1156L122 1213M164 1156L183 1209M317 1150L351 1185M317 1150L325 1253M351 1185L325 1253M351 1185L427 1247M452 1140L541 1168M452 1140L427 1247M541 1168L587 1143M541 1168L577 1237M587 1143L678 1147M587 1143L577 1237M678 1147L741 1164M741 1164L830 1125M947 1120L1015 1150M947 1120L918 1200M1015 1150L1046 1160M1015 1150L918 1200M1015 1150L1002 1213M1046 1160L1002 1213M1046 1160L1092 1261M1046 1160L1137 1239M1188 1146L1203 1134M1188 1146L1137 1239M1203 1134L1265 1236M1347 1127L1399 1131M1399 1131L1410 1207M1489 1165L1572 1184M1489 1165L1410 1207M1489 1165L1563 1278M1572 1184L1643 1136M1572 1184L1563 1278M1572 1184L1614 1203M1643 1136L1614 1203M1750 1196L1803 1144M1750 1196L1714 1275M1750 1196L1775 1276M1918 1146L1937 1154M1918 1146L1900 1206M1918 1146L1956 1229M1937 1154L1900 1206M1937 1154L1956 1229M2075 1182L2135 1179M2075 1182L2068 1207M2075 1182L2149 1202M2135 1179L2068 1207M2135 1179L2149 1202M2135 1179L2187 1244M2220 1129L2295 1134M2295 1134L2336 1148M2336 1148L2421 1193M2336 1148L2381 1235M2336 1148L2402 1222M2421 1193L2481 1190M2421 1193L2381 1235M2421 1193L2402 1222M2481 1190L2381 1235M2481 1190L2402 1222M2481 1190L2532 1265M27 1202L122 1213M27 1202L-28 1265M2587 1202L2532 1265M122 1213L183 1209M183 1209L247 1269M183 1209L177 1317M247 1269L325 1253M247 1269L177 1317M247 1269L314 1320M325 1253L314 1320M325 1253L363 1312M427 1247L505 1276M427 1247L363 1312M427 1247L489 1295M505 1276L577 1237M505 1276L473 1354M505 1276L489 1295M505 1276L588 1288M577 1237L674 1260M577 1237L588 1288M674 1260L754 1272M674 1260L588 1288M674 1260L696 1343M674 1260L749 1303M754 1272L696 1343M754 1272L749 1303M754 1272L737 1370M878 1242L918 1200M878 1242L851 1337M878 1242L942 1306M918 1200L1002 1213M1002 1213L1092 1261M1002 1213L1091 1283M1092 1261L1137 1239M1092 1261L1091 1283M1137 1239L1091 1283M1137 1239L1188 1319M1265 1236L1349 1261M1265 1236L1323 1343M1349 1261L1410 1207M1349 1261L1442 1270M1349 1261L1323 1343M1410 1207L1442 1270M1442 1270L1435 1337M1442 1270L1450 1346M1442 1270L1531 1306M1563 1278L1614 1203M1563 1278L1531 1306M1563 1278L1624 1343M1714 1275L1775 1276M1714 1275L1693 1295M1714 1275L1666 1372M1775 1276L1693 1295M1775 1276L1820 1303M1775 1276L1752 1367M1900 1206L1956 1229M1956 1229L1941 1306M1956 1229L2031 1280M2068 1207L2149 1202M2068 1207L2031 1280M2149 1202L2187 1244M2149 1202L2183 1287M2187 1244L2243 1252M2187 1244L2183 1287M2187 1244L2246 1316M2243 1252L2183 1287M2243 1252L2246 1316M2381 1235L2402 1222M2402 1222L2468 1296M2532 1265L2562 1336M2532 1265L2468 1296M2532 1265L2548 1299M-28 1265L2 1336M2 1336L-12 1299M2 1336L50 1375M2 1336L-64 1368M2562 1336L2548 1299M2562 1336L2496 1368M127 1357L177 1317M127 1357L50 1375M127 1357L81 1400M127 1357L171 1390M177 1317L171 1390M314 1320L363 1312M314 1320L301 1375M363 1312L301 1375M363 1312L441 1388M473 1354L489 1295M473 1354L441 1388M473 1354L502 1438M489 1295L588 1288M489 1295L441 1388M588 1288L601 1407M696 1343L749 1303M696 1343L715 1431M696 1343L737 1370M749 1303L851 1337M749 1303L737 1370M851 1337L942 1306M851 1337L878 1372M851 1337L899 1389M942 1306L998 1342M942 1306L878 1372M942 1306L999 1362M998 1342L899 1389M998 1342L999 1362M1091 1283L1188 1319M1188 1319L1207 1356M1188 1319L1151 1405M1188 1319L1207 1372M1207 1356L1151 1405M1207 1356L1207 1372M1323 1343L1207 1372M1323 1343L1300 1429M1323 1343L1390 1397M1435 1337L1450 1346M1435 1337L1531 1306M1435 1337L1390 1397M1435 1337L1479 1412M1450 1346L1531 1306M1450 1346L1390 1397M1450 1346L1479 1412M1531 1306L1624 1343M1624 1343L1693 1295M1624 1343L1591 1390M1624 1343L1666 1372M1693 1295L1666 1372M1693 1295L1752 1367M1820 1303L1886 1296M1820 1303L1752 1367M1820 1303L1829 1369M1820 1303L1855 1364M1886 1296L1941 1306M1886 1296L1829 1369M1886 1296L1855 1364M1941 1306L2031 1280M1941 1306L1855 1364M1941 1306L1983 1378M2031 1280L2096 1346M2031 1280L2080 1377M2096 1346L2183 1287M2096 1346L1983 1378M2096 1346L2080 1377M2096 1346L2149 1400M2183 1287L2246 1316M2246 1316L2240 1396M2397 1347L2362 1370M2397 1347L2410 1365M2397 1347L2496 1368M2468 1296L2548 1299M2468 1296L2410 1365M2468 1296L2496 1368M2548 1299L2610 1375M2548 1299L2496 1368M-12 1299L50 1375M50 1375L81 1400M81 1400L171 1390M301 1375L379 1440M379 1440L441 1388M441 1388L502 1438M502 1438L601 1407M715 1431L737 1370M878 1372L899 1389M999 1362L1054 1429M1151 1405L1207 1372M1207 1372L1300 1429M1390 1397L1479 1412M1591 1390L1666 1372M1666 1372L1752 1367M1752 1367L1829 1369M1829 1369L1855 1364M1983 1378L2080 1377M2080 1377L2149 1400M2149 1400L2240 1396M2240 1396L2310 1399M2310 1399L2362 1370M2362 1370L2410 1365M2410 1365L2496 1368"/></svg>