<svg xmlns="http://www.w3.org/2000/svg" width="2560" height="1440" fill="#fff"><circle cx="75" cy="55" r="6"/><circle cx="118" cy="41" r="5"/><circle cx="212" cy="68" r="4"/><circle cx="287" cy="37" r="5"/><circle cx="393" cy="55" r="4"/><circle cx="423" cy="11" r="6"/><circle cx="526" cy="60" r="4"/><circle cx="632" cy="23" r="6"/><circle cx="647" cy="39" r="6"/><circle cx="777" cy="15" r="4"/><circle cx="866" cy="3" r="5"/><circle cx="866" cy="1443" r="5"/><circle cx="923" cy="26" r="5"/><circle cx="977" cy="14" r="6"/><circle cx="1103" cy="45" r="5"/><circle cx="1166" cy="40" r="4"/><circle cx="1244" cy="49" r="6"/><circle cx="1339" cy="15" r="5"/><circle cx="1383" cy="1" r="5"/><circle cx="1383" cy="1441" r="5"/><circle cx="1491" cy="33" r="6"/><circle cx="1564" cy="60" r="5"/><circle cx="1659" cy="59" r="5"/><circle cx="1716" cy="65" r="5"/><circle cx="1814" cy="25" r="5"/><circle cx="1885" cy="12" r="6"/><circle cx="1950" cy="74" r="5"/><circle cx="2066" cy="25" r="4"/><circle cx="2150" cy="16" r="5"/><circle cx="2235" cy="33" r="6"/><circle cx="2251" cy="37" r="4"/><circle cx="2393" cy="55" r="5"/><circle cx="2462" cy="71" r="6"/><circle cx="2532" cy="51" r="6"/><circle cx="76" cy="98" r="5"/><circle cx="147" cy="154" r="5"/><circle cx="211" cy="106" r="5"/><circle cx="312" cy="87" r="4"/><circle cx="353" cy="110" r="6"/><circle cx="431" cy="90" r="6"/><circle cx="555" cy="106" r="4"/><circle cx="561" cy="136" r="4"/><circle cx="689" cy="126" r="4"/><circle cx="758" cy="125" r="4"/><circle cx="846" cy="151" r="4"/><circle cx="950" cy="152" r="5"/><circle cx="969" cy="117" r="5"/><circle cx="1059" cy="115" r="6"/><circle cx="1177" cy="91" r="4"/><circle cx="1268" cy="83" r="4"/><circle cx="1305" cy="106" r="4"/><circle cx="1369" cy="146" r="5"/><circle cx="1473" cy="110" r="6"/><circle cx="1582" cy="153" r="6"/><circle cx="1637" cy="135" r="4"/><circle cx="1730" cy="117" r="5"/><circle cx="1835" cy="111" r="6"/><circle cx="1914" cy="89" r="5"/><circle cx="1944" cy="134" r="5"/><circle cx="2005" cy="154" r="5"/><circle cx="2147" cy="147" r="6"/><circle cx="2220" cy="99" r="6"/><circle cx="2254" cy="121" r="5"/><circle cx="2345" cy="101" r="5"/><circle cx="2406" cy="107" r="5"/><circle cx="2538" cy="98" r="5"/><circle cx="41" cy="169" r="4"/><circle cx="135" cy="217" r="5"/><circle cx="230" cy="186" r="5"/><circle cx="311" cy="171" r="5"/><circle cx="335" cy="163" r="4"/><circle cx="446" cy="220" r="6"/><circle cx="490" cy="178" r="4"/><circle cx="634" cy="174" r="4"/><circle cx="708" cy="168" r="5"/><circle cx="767" cy="200" r="5"/><circle cx="865" cy="238" r="4"/><circle cx="886" cy="196" r="4"/><circle cx="975" cy="171" r="5"/><circle cx="1057" cy="204" r="5"/><circle cx="1169" cy="198" r="4"/><circle cx="1229" cy="173" r="5"/><circle cx="1325" cy="225" r="5"/><circle cx="1369" cy="172" r="6"/><circle cx="1478" cy="215" r="4"/><circle cx="1579" cy="236" r="4"/><circle cx="1603" cy="184" r="5"/><circle cx="1758" cy="185" r="6"/><circle cx="1773" cy="181" r="6"/><circle cx="1879" cy="224" r="5"/><circle cx="1957" cy="214" r="5"/><circle cx="2068" cy="173" r="5"/><circle cx="2120" cy="175" r="5"/><circle cx="2201" cy="166" r="6"/><circle cx="2280" cy="228" r="5"/><circle cx="2355" cy="162" r="6"/><circle cx="2424" cy="204" r="4"/><circle cx="2530" cy="220" r="5"/><circle cx="27" cy="253" r="4"/><circle cx="105" cy="292" r="6"/><circle cx="199" cy="264" r="6"/><circle cx="304" cy="292" r="4"/><circle cx="387" cy="298" r="4"/><circle cx="464" cy="241" r="4"/><circle cx="501" cy="302" r="6"/><circle cx="563" cy="307" r="6"/><circle cx="716" cy="316" r="4"/><circle cx="773" cy="293" r="5"/><circle cx="848" cy="263" r="5"/><circle cx="902" cy="280" r="6"/><circle cx="977" cy="247" r="5"/><circle cx="1071" cy="272" r="5"/><circle cx="1166" cy="291" r="5"/><circle cx="1211" cy="265" r="5"/><circle cx="1333" cy="295" r="4"/><circle cx="1409" cy="260" r="5"/><circle cx="1489" cy="304" r="5"/><circle cx="1596" cy="303" r="4"/><circle cx="1621" cy="263" r="5"/><circle cx="1709" cy="248" r="5"/><circle cx="1799" cy="314" r="6"/><circle cx="1852" cy="266" r="5"/><circle cx="1923" cy="288" r="4"/><circle cx="2055" cy="310" r="5"/><circle cx="2087" cy="303" r="5"/><circle cx="2163" cy="311" r="5"/><circle cx="2267" cy="280" r="5"/><circle cx="2338" cy="244" r="6"/><circle cx="2480" cy="287" r="5"/><circle cx="2540" cy="297" r="5"/><circle cx="65" cy="375" r="6"/><circle cx="82" cy="346" r="5"/><circle cx="231" cy="343" r="5"/><circle cx="296" cy="343" r="6"/><circle cx="327" cy="379" r="4"/><circle cx="439" cy="324" r="5"/><circle cx="516" cy="328" r="4"/><circle cx="637" cy="328" r="5"/><circle cx="663" cy="377" r="5"/><circle cx="732" cy="329" r="5"/><circle cx="817" cy="387" r="5"/><circle cx="941" cy="400" r="4"/><circle cx="986" cy="355" r="6"/><circle cx="1048" cy="383" r="5"/><circle cx="1165" cy="383" r="5"/><circle cx="1265" cy="363" r="5"/><circle cx="1344" cy="396" r="6"/><circle cx="1369" cy="336" r="5"/><circle cx="1504" cy="375" r="5"/><circle cx="1536" cy="383" r="5"/><circle cx="1660" cy="397" r="4"/><circle cx="1699" cy="349" r="5"/><circle cx="1773" cy="349" r="4"/><circle cx="1899" cy="347" r="5"/><circle cx="1993" cy="366" r="4"/><circle cx="2073" cy="326" r="4"/><circle cx="2114" cy="327" r="6"/><circle cx="2182" cy="369" r="6"/><circle cx="2317" cy="339" r="5"/><circle cx="2381" cy="322" r="4"/><circle cx="2461" cy="363" r="5"/><circle cx="2519" cy="390" r="6"/><circle cx="3" cy="403" r="4"/><circle cx="2563" cy="403" r="4"/><circle cx="123" cy="449" r="4"/><circle cx="236" cy="451" r="5"/><circle cx="245" cy="436" r="6"/><circle cx="346" cy="471" r="6"/><circle cx="447" cy="400" r="6"/><circle cx="535" cy="439" r="4"/><circle cx="618" cy="418" r="5"/><circle cx="654" cy="464" r="5"/><circle cx="762" cy="416" r="5"/><circle cx="818" cy="451" r="5"/><circle cx="899" cy="402" r="5"/><circle cx="1030" cy="404" r="5"/><circle cx="1098" cy="452" r="4"/><circle cx="1177" cy="454" r="6"/><circle cx="1275" cy="447" r="5"/><circle cx="1281" cy="414" r="5"/><circle cx="1392" cy="447" r="6"/><circle cx="1514" cy="458" r="5"/><circle cx="1568" cy="450" r="4"/><circle cx="1644" cy="409" r="6"/><circle cx="1749" cy="437" r="6"/><circle cx="1822" cy="421" r="5"/><circle cx="1863" cy="453" r="4"/><circle cx="1922" cy="443" r="4"/><circle cx="2014" cy="403" r="5"/><circle cx="2148" cy="473" r="5"/><circle cx="2200" cy="441" r="4"/><circle cx="2303" cy="478" r="5"/><circle cx="2324" cy="442" r="5"/><circle cx="2434" cy="448" r="5"/><circle cx="2515" cy="432" r="5"/><circle cx="21" cy="540" r="5"/><circle cx="148" cy="482" r="5"/><circle cx="203" cy="537" r="6"/><circle cx="252" cy="490" r="6"/><circle cx="322" cy="536" r="5"/><circle cx="430" cy="505" r="4"/><circle cx="510" cy="530" r="5"/><circle cx="586" cy="484" r="5"/><circle cx="712" cy="552" r="5"/><circle cx="796" cy="483" r="5"/><circle cx="872" cy="491" r="5"/><circle cx="935" cy="495" r="5"/><circle cx="1007" cy="552" r="4"/><circle cx="1059" cy="553" r="6"/><circle cx="1171" cy="550" r="5"/><circle cx="1225" cy="504" r="6"/><circle cx="1302" cy="556" r="5"/><circle cx="1424" cy="555" r="6"/><circle cx="1518" cy="482" r="5"/><circle cx="1560" cy="515" r="5"/><circle cx="1639" cy="481" r="5"/><circle cx="1701" cy="534" r="6"/><circle cx="1772" cy="556" r="6"/><circle cx="1905" cy="503" r="5"/><circle cx="1965" cy="533" r="6"/><circle cx="2028" cy="557" r="4"/><circle cx="2099" cy="520" r="4"/><circle cx="2237" cy="546" r="4"/><circle cx="2248" cy="533" r="5"/><circle cx="2381" cy="527" r="4"/><circle cx="2432" cy="545" r="4"/><circle cx="2531" cy="517" r="5"/><circle cx="13" cy="591" r="4"/><circle cx="148" cy="578" r="4"/><circle cx="206" cy="639" r="5"/><circle cx="241" cy="610" r="4"/><circle cx="325" cy="585" r="4"/><circle cx="424" cy="631" r="6"/><circle cx="527" cy="622" r="4"/><circle cx="630" cy="602" r="5"/><circle cx="716" cy="579" r="5"/><circle cx="768" cy="611" r="6"/><circle cx="802" cy="631" r="5"/><circle cx="903" cy="639" r="5"/><circle cx="991" cy="633" r="5"/><circle cx="1097" cy="604" r="5"/><circle cx="1189" cy="588" r="5"/><circle cx="1273" cy="622" r="6"/><circle cx="1358" cy="594" r="5"/><circle cx="1367" cy="616" r="5"/><circle cx="1479" cy="609" r="4"/><circle cx="1553" cy="638" r="4"/><circle cx="1657" cy="613" r="5"/><circle cx="1750" cy="579" r="6"/><circle cx="1800" cy="613" r="5"/><circle cx="1897" cy="576" r="6"/><circle cx="1925" cy="611" r="5"/><circle cx="2054" cy="585" r="5"/><circle cx="2113" cy="578" r="6"/><circle cx="2200" cy="565" r="6"/><circle cx="2318" cy="562" r="4"/><circle cx="2372" cy="607" r="5"/><circle cx="2468" cy="561" r="4"/><circle cx="2505" cy="606" r="5"/><circle cx="47" cy="674" r="6"/><circle cx="82" cy="647" r="5"/><circle cx="233" cy="645" r="5"/><circle cx="310" cy="659" r="5"/><circle cx="393" cy="676" r="6"/><circle cx="408" cy="666" r="5"/><circle cx="487" cy="665" r="4"/><circle cx="604" cy="705" r="4"/><circle cx="641" cy="651" r="4"/><circle cx="794" cy="658" r="6"/><circle cx="869" cy="705" r="5"/><circle cx="924" cy="642" r="4"/><circle cx="999" cy="697" r="5"/><circle cx="1109" cy="661" r="6"/><circle cx="1192" cy="684" r="4"/><circle cx="1230" cy="713" r="6"/><circle cx="1357" cy="675" r="5"/><circle cx="1383" cy="650" r="6"/><circle cx="1485" cy="704" r="4"/><circle cx="1576" cy="653" r="5"/><circle cx="1614" cy="708" r="6"/><circle cx="1703" cy="661" r="4"/><circle cx="1781" cy="656" r="6"/><circle cx="1843" cy="716" r="5"/><circle cx="1981" cy="713" r="4"/><circle cx="2002" cy="648" r="5"/><circle cx="2107" cy="696" r="6"/><circle cx="2194" cy="716" r="5"/><circle cx="2276" cy="693" r="5"/><circle cx="2321" cy="719" r="5"/><circle cx="2436" cy="674" r="5"/><circle cx="2497" cy="662" r="6"/><circle cx="32" cy="774" r="5"/><circle cx="123" cy="793" r="6"/><circle cx="211" cy="731" r="5"/><circle cx="289" cy="761" r="5"/><circle cx="326" cy="722" r="6"/><circle cx="468" cy="783" r="5"/><circle cx="481" cy="752" r="6"/><circle cx="639" cy="742" r="6"/><circle cx="717" cy="774" r="6"/><circle cx="731" cy="743" r="5"/><circle cx="820" cy="746" r="5"/><circle cx="953" cy="748" r="5"/><circle cx="1026" cy="747" r="5"/><circle cx="1116" cy="759" r="5"/><circle cx="1177" cy="760" r="4"/><circle cx="1224" cy="792" r="6"/><circle cx="1303" cy="775" r="6"/><circle cx="1421" cy="772" r="5"/><circle cx="1517" cy="763" r="4"/><circle cx="1554" cy="797" r="6"/><circle cx="1644" cy="779" r="5"/><circle cx="1721" cy="788" r="6"/><circle cx="1804" cy="734" r="5"/><circle cx="1864" cy="733" r="5"/><circle cx="1977" cy="761" r="6"/><circle cx="2062" cy="761" r="6"/><circle cx="2095" cy="722" r="5"/><circle cx="2192" cy="791" r="5"/><circle cx="2316" cy="737" r="6"/><circle cx="2353" cy="756" r="4"/><circle cx="2402" cy="760" r="5"/><circle cx="2508" cy="766" r="5"/><circle cx="75" cy="868" r="6"/><circle cx="150" cy="859" r="5"/><circle cx="229" cy="850" r="4"/><circle cx="256" cy="869" r="5"/><circle cx="371" cy="844" r="4"/><circle cx="471" cy="838" r="6"/><circle cx="547" cy="801" r="4"/><circle cx="622" cy="830" r="6"/><circle cx="645" cy="804" r="6"/><circle cx="739" cy="802" r="5"/><circle cx="857" cy="863" r="5"/><circle cx="885" cy="849" r="4"/><circle cx="1040" cy="871" r="6"/><circle cx="1095" cy="865" r="5"/><circle cx="1187" cy="866" r="5"/><circle cx="1255" cy="805" r="5"/><circle cx="1356" cy="805" r="5"/><circle cx="1398" cy="802" r="4"/><circle cx="1506" cy="832" r="4"/><circle cx="1530" cy="858" r="5"/><circle cx="1609" cy="842" r="5"/><circle cx="1749" cy="823" r="5"/><circle cx="1798" cy="873" r="5"/><circle cx="1885" cy="826" r="5"/><circle cx="1940" cy="858" r="5"/><circle cx="2055" cy="801" r="5"/><circle cx="2105" cy="825" r="4"/><circle cx="2228" cy="811" r="5"/><circle cx="2319" cy="875" r="6"/><circle cx="2337" cy="819" r="5"/><circle cx="2413" cy="815" r="6"/><circle cx="2501" cy="852" r="4"/><circle cx="28" cy="920" r="6"/><circle cx="99" cy="905" r="6"/><circle cx="225" cy="953" r="5"/><circle cx="312" cy="934" r="4"/><circle cx="346" cy="930" r="5"/><circle cx="426" cy="922" r="6"/><circle cx="511" cy="936" r="5"/><circle cx="624" cy="892" r="5"/><circle cx="654" cy="922" r="4"/><circle cx="734" cy="929" r="5"/><circle cx="863" cy="931" r="5"/><circle cx="945" cy="926" r="6"/><circle cx="1038" cy="957" r="5"/><circle cx="1061" cy="945" r="6"/><circle cx="1141" cy="924" r="6"/><circle cx="1274" cy="912" r="6"/><circle cx="1289" cy="948" r="4"/><circle cx="1378" cy="959" r="6"/><circle cx="1493" cy="899" r="5"/><circle cx="1576" cy="953" r="4"/><circle cx="1677" cy="915" r="4"/><circle cx="1719" cy="889" r="4"/><circle cx="1796" cy="918" r="6"/><circle cx="1899" cy="893" r="5"/><circle cx="1954" cy="928" r="5"/><circle cx="2071" cy="929" r="4"/><circle cx="2103" cy="955" r="4"/><circle cx="2227" cy="928" r="6"/><circle cx="2309" cy="927" r="4"/><circle cx="2368" cy="914" r="5"/><circle cx="2437" cy="923" r="6"/><circle cx="2528" cy="886" r="5"/><circle cx="3" cy="1032" r="6"/><circle cx="2563" cy="1032" r="6"/><circle cx="122" cy="1008" r="5"/><circle cx="192" cy="974" r="5"/><circle cx="263" cy="1007" r="5"/><circle cx="379" cy="1037" r="6"/><circle cx="430" cy="1017" r="6"/><circle cx="541" cy="967" r="5"/><circle cx="593" cy="1027" r="4"/><circle cx="700" cy="966" r="6"/><circle cx="757" cy="994" r="5"/><circle cx="841" cy="991" r="5"/><circle cx="904" cy="964" r="6"/><circle cx="961" cy="1028" r="5"/><circle cx="1088" cy="1015" r="5"/><circle cx="1128" cy="996" r="4"/><circle cx="1246" cy="991" r="5"/><circle cx="1299" cy="994" r="5"/><circle cx="1416" cy="1028" r="4"/><circle cx="1459" cy="1001" r="5"/><circle cx="1571" cy="981" r="5"/><circle cx="1672" cy="1024" r="5"/><circle cx="1715" cy="983" r="5"/><circle cx="1815" cy="1003" r="5"/><circle cx="1868" cy="999" r="4"/><circle cx="1986" cy="988" r="4"/><circle cx="2039" cy="1034" r="5"/><circle cx="2156" cy="1036" r="5"/><circle cx="2192" cy="1030" r="5"/><circle cx="2255" cy="991" r="6"/><circle cx="2332" cy="961" r="5"/><circle cx="2401" cy="979" r="5"/><circle cx="2496" cy="1000" r="5"/><circle cx="56" cy="1094" r="5"/><circle cx="97" cy="1098" r="4"/><circle cx="180" cy="1086" r="5"/><circle cx="274" cy="1087" r="5"/><circle cx="387" cy="1081" r="5"/><circle cx="406" cy="1113" r="4"/><circle cx="512" cy="1108" r="5"/><circle cx="620" cy="1116" r="5"/><circle cx="701" cy="1080" r="5"/><circle cx="726" cy="1079" r="5"/><circle cx="801" cy="1060" r="5"/><circle cx="947" cy="1056" r="4"/><circle cx="1015" cy="1080" r="6"/><circle cx="1076" cy="1100" r="5"/><circle cx="1163" cy="1110" r="4"/><circle cx="1270" cy="1042" r="5"/><circle cx="1301" cy="1055" r="6"/><circle cx="1387" cy="1078" r="6"/><circle cx="1517" cy="1098" r="5"/><circle cx="1524" cy="1081" r="5"/><circle cx="1664" cy="1083" r="6"/><circle cx="1724" cy="1070" r="4"/><circle cx="1839" cy="1093" r="6"/><circle cx="1863" cy="1076" r="6"/><circle cx="1987" cy="1063" r="5"/><circle cx="2011" cy="1049" r="4"/><circle cx="2134" cy="1051" r="4"/><circle cx="2206" cy="1043" r="4"/><circle cx="2247" cy="1050" r="6"/><circle cx="2368" cy="1063" r="5"/><circle cx="2444" cy="1075" r="6"/><circle cx="2531" cy="1046" r="5"/><circle cx="63" cy="1196" r="5"/><circle cx="114" cy="1170" r="4"/><circle cx="165" cy="1171" r="6"/><circle cx="287" cy="1136" r="6"/><circle cx="338" cy="1125" r="5"/><circle cx="479" cy="1190" r="5"/><circle cx="484" cy="1141" r="5"/><circle cx="617" cy="1146" r="5"/><circle cx="652" cy="1149" r="5"/><circle cx="777" cy="1190" r="5"/><circle cx="862" cy="1160" r="5"/><circle cx="951" cy="1168" r="6"/><circle cx="988" cy="1125" r="5"/><circle cx="1118" cy="1194" r="6"/><circle cx="1124" cy="1154" r="4"/><circle cx="1267" cy="1193" r="5"/><circle cx="1297" cy="1185" r="5"/><circle cx="1383" cy="1162" r="4"/><circle cx="1477" cy="1162" r="5"/><circle cx="1530" cy="1167" r="5"/><circle cx="1640" cy="1152" r="5"/><circle cx="1681" cy="1163" r="4"/><circle cx="1811" cy="1164" r="5"/><circle cx="1845" cy="1145" r="4"/><circle cx="1952" cy="1151" r="4"/><circle cx="2001" cy="1135" r="5"/><circle cx="2109" cy="1131" r="6"/><circle cx="2213" cy="1126" r="5"/><circle cx="2241" cy="1123" r="4"/><circle cx="2377" cy="1176" r="4"/><circle cx="2409" cy="1196" r="5"/><circle cx="2500" cy="1123" r="6"/><circle cx="14" cy="1202" r="5"/><circle cx="139" cy="1220" r="4"/><circle cx="229" cy="1271" r="4"/><circle cx="292" cy="1254" r="4"/><circle cx="371" cy="1200" r="4"/><circle cx="402" cy="1252" r="4"/><circle cx="524" cy="1221" r="5"/><circle cx="636" cy="1220" r="6"/><circle cx="678" cy="1270" r="5"/><circle cx="765" cy="1274" r="5"/><circle cx="860" cy="1269" r="4"/><circle cx="910" cy="1247" r="5"/><circle cx="1012" cy="1220" r="5"/><circle cx="1074" cy="1233" r="4"/><circle cx="1139" cy="1258" r="5"/><circle cx="1244" cy="1252" r="6"/><circle cx="1325" cy="1273" r="6"/><circle cx="1412" cy="1204" r="4"/><circle cx="1451" cy="1239" r="5"/><circle cx="1544" cy="1244" r="6"/><circle cx="1638" cy="1267" r="5"/><circle cx="1700" cy="1203" r="5"/><circle cx="1775" cy="1255" r="5"/><circle cx="1862" cy="1258" r="4"/><circle cx="1984" cy="1232" r="4"/><circle cx="2037" cy="1259" r="5"/><circle cx="2151" cy="1269" r="6"/><circle cx="2197" cy="1245" r="6"/><circle cx="2259" cy="1215" r="6"/><circle cx="2355" cy="1223" r="6"/><circle cx="2474" cy="1228" r="5"/><circle cx="2557" cy="1223" r="5"/><circle cx="-3" cy="1223" r="5"/><circle cx="27" cy="1285" r="4"/><circle cx="125" cy="1305" r="6"/><circle cx="214" cy="1335" r="5"/><circle cx="317" cy="1298" r="5"/><circle cx="365" cy="1354" r="6"/><circle cx="430" cy="1347" r="6"/><circle cx="527" cy="1301" r="5"/><circle cx="608" cy="1289" r="4"/><circle cx="701" cy="1280" r="5"/><circle cx="791" cy="1327" r="5"/><circle cx="820" cy="1334" r="5"/><circle cx="944" cy="1296" r="4"/><circle cx="1011" cy="1325" r="5"/><circle cx="1107" cy="1337" r="4"/><circle cx="1165" cy="1301" r="6"/><circle cx="1252" cy="1320" r="5"/><circle cx="1338" cy="1285" r="4"/><circle cx="1423" cy="1336" r="6"/><circle cx="1457" cy="1323" r="6"/><circle cx="1544" cy="1295" r="4"/><circle cx="1650" cy="1318" r="5"/><circle cx="1706" cy="1334" r="5"/><circle cx="1839" cy="1359" r="6"/><circle cx="1862" cy="1281" r="4"/><circle cx="1963" cy="1326" r="5"/><circle cx="2013" cy="1319" r="5"/><circle cx="2123" cy="1359" r="5"/><circle cx="2168" cy="1295" r="4"/><circle cx="2310" cy="1311" r="4"/><circle cx="2391" cy="1318" r="5"/><circle cx="2474" cy="1282" r="4"/><circle cx="2557" cy="1310" r="5"/><circle cx="-3" cy="1310" r="5"/><circle cx="19" cy="1414" r="4"/><circle cx="115" cy="1409" r="6"/><circle cx="217" cy="1410" r="5"/><circle cx="301" cy="1376" r="4"/><circle cx="351" cy="1389" r="5"/><circle cx="471" cy="1389" r="5"/><circle cx="537" cy="1426" r="5"/><circle cx="626" cy="1399" r="5"/><circle cx="692" cy="1409" r="5"/><circle cx="790" cy="1408" r="5"/><circle cx="841" cy="1406" r="5"/><circle cx="958" cy="1373" r="5"/><circle cx="985" cy="1377" r="6"/><circle cx="1042" cy="1432" r="5"/><circle cx="1147" cy="1421" r="4"/><circle cx="1241" cy="1376" r="5"/><circle cx="1350" cy="1427" r="5"/><circle cx="1369" cy="1388" r="4"/><circle cx="1462" cy="1394" r="5"/><circle cx="1528" cy="1438" r="5"/><circle cx="1528" cy="-2" r="5"/><circle cx="1665" cy="1415" r="5"/><circle cx="1703" cy="1418" r="5"/><circle cx="1819" cy="1383" r="6"/><circle cx="1919" cy="1371" r="6"/><circle cx="1960" cy="1423" r="6"/><circle cx="2061" cy="1398" r="5"/><circle cx="2155" cy="1407" r="4"/><circle cx="2165" cy="1408" r="6"/><circle cx="2280" cy="1433" r="5"/><circle cx="2320" cy="1374" r="5"/><circle cx="2423" cy="1424" r="5"/><circle cx="2548" cy="1393" r="5"/><path stroke="#fff" d="M75 55L118 41M75 55L-28 51M75 55L76 98M75 55L19 -26M75 55L115 -31M2635 55L2532 51M75 1495L19 1414M75 1495L115 1409M118 41L212 68M118 41L76 98M118 41L211 106M118 41L115 -31M118 1481L115 1409M212 68L287 37M212 68L211 106M212 68L217 -30M212 1508L217 1410M287 37L211 106M287 37L312 87M287 37L217 -30M287 1477L217 1410M393 55L423 11M393 55L312 87M393 55L353 110M393 55L431 90M423 11L431 90M423 11L430 -93M423 11L351 -51M423 11L471 -51M423 1451L430 1347M423 1451L351 1389M423 1451L471 1389M526 60L632 23M526 60L431 90M526 60L555 106M526 60L561 136M526 60L537 -14M526 1500L537 1426M632 23L647 39M632 23L537 -14M632 23L626 -41M632 23L692 -31M632 1463L537 1426M632 1463L626 1399M632 1463L692 1409M647 39L555 106M647 39L689 126M647 39L626 -41M647 39L692 -31M647 1479L626 1399M647 1479L692 1409M777 15L866 3M777 15L692 -31M777 15L790 -32M777 15L841 -34M777 1455L692 1409M777 1455L790 1408M777 1455L841 1406M866 3L923 26M866 3L790 -32M866 3L841 -34M866 1443L790 1408M866 1443L841 1406M923 26L977 14M923 26L969 117M977 14L969 117M977 14L958 -67M977 14L985 -63M977 14L1042 -8M977 1454L958 1373M977 1454L985 1377M977 1454L1042 1432M1103 45L1166 40M1103 45L1059 115M1103 45L1177 91M1103 45L1042 -8M1103 45L1147 -19M1103 1485L1042 1432M1103 1485L1147 1421M1166 40L1244 49M1166 40L1177 91M1166 40L1268 83M1166 40L1147 -19M1166 1480L1147 1421M1244 49L1339 15M1244 49L1177 91M1244 49L1268 83M1244 49L1305 106M1339 15L1383 1M1339 15L1305 106M1339 15L1350 -13M1339 15L1369 -52M1339 1455L1350 1427M1339 1455L1369 1388M1383 1L1491 33M1383 1L1350 -13M1383 1L1369 -52M1383 1L1462 -46M1383 1441L1350 1427M1383 1441L1369 1388M1383 1441L1462 1394M1491 33L1564 60M1491 33L1473 110M1491 33L1462 -46M1491 33L1528 -2M1491 1473L1462 1394M1491 1473L1528 1438M1564 60L1473 110M1564 60L1582 153M1564 60L1528 -2M1564 1500L1528 1438M1659 59L1716 65M1659 59L1637 135M1659 59L1730 117M1659 59L1665 -25M1659 59L1703 -22M1659 1499L1665 1415M1659 1499L1703 1418M1716 65L1814 25M1716 65L1730 117M1716 65L1665 -25M1716 65L1703 -22M1716 1505L1665 1415M1716 1505L1703 1418M1814 25L1885 12M1814 25L1835 111M1814 25L1839 -81M1814 25L1819 -57M1814 1465L1839 1359M1814 1465L1819 1383M1885 12L1950 74M1885 12L1914 89M1885 12L1919 -69M1885 12L1960 -17M1885 1452L1919 1371M1885 1452L1960 1423M1950 74L1914 89M1950 74L1944 134M1950 74L2005 154M1950 74L1960 -17M1950 1514L1960 1423M2066 25L2150 16M2066 25L2061 -42M2066 25L2155 -33M2066 1465L2061 1398M2066 1465L2155 1407M2150 16L2235 33M2150 16L2155 -33M2150 16L2165 -32M2150 1456L2155 1407M2150 1456L2165 1408M2235 33L2251 37M2235 33L2220 99M2235 33L2254 121M2235 33L2280 -7M2235 1473L2280 1433M2251 37L2220 99M2251 37L2254 121M2251 37L2165 -32M2251 37L2280 -7M2251 1477L2165 1408M2251 1477L2280 1433M2393 55L2462 71M2393 55L2345 101M2393 55L2406 107M2393 55L2423 -16M2393 1495L2423 1424M2462 71L2532 51M2462 71L2406 107M2462 71L2538 98M2462 71L2423 -16M2462 1511L2423 1424M2532 51L2538 98M2532 51L2579 -26M2532 51L2548 -47M-28 51L19 -26M-28 1491L19 1414M2532 1491L2579 1414M2532 1491L2548 1393M76 98L147 154M76 98L-22 98M76 98L41 169M2636 98L2538 98M147 154L211 106M147 154L135 217M147 154L230 186M211 106L230 186M312 87L353 110M312 87L311 171M312 87L335 163M353 110L431 90M353 110L311 171M353 110L335 163M431 90L490 178M555 106L561 136M555 106L490 178M555 106L634 174M561 136L490 178M561 136L634 174M689 126L758 125M689 126L634 174M689 126L708 168M758 125L846 151M758 125L708 168M758 125L767 200M846 151L767 200M846 151L865 238M846 151L886 196M950 152L969 117M950 152L1059 115M950 152L886 196M950 152L975 171M950 152L977 247M969 117L1059 115M969 117L975 171M1059 115L975 171M1059 115L1057 204M1177 91L1268 83M1177 91L1229 173M1268 83L1305 106M1268 83L1229 173M1305 106L1369 146M1305 106L1369 172M1369 146L1473 110M1369 146L1325 225M1369 146L1369 172M1473 110L1582 153M1473 110L1478 215M1582 153L1637 135M1582 153L1579 236M1582 153L1603 184M1637 135L1603 184M1730 117L1835 111M1730 117L1758 185M1730 117L1773 181M1835 111L1914 89M1835 111L1758 185M1835 111L1773 181M1914 89L1944 134M1944 134L2005 154M1944 134L1879 224M1944 134L1957 214M2005 154L1957 214M2005 154L2068 173M2005 154L2120 175M2147 147L2220 99M2147 147L2068 173M2147 147L2120 175M2147 147L2201 166M2220 99L2254 121M2220 99L2201 166M2254 121L2345 101M2254 121L2201 166M2345 101L2406 107M2345 101L2355 162M2345 101L2280 -7M2345 1541L2280 1433M2406 107L2355 162M2406 107L2424 204M2538 98L2601 169M-22 98L41 169M41 169L135 217M41 169L-30 220M41 169L27 253M2601 169L2530 220M135 217L230 186M135 217L105 292M135 217L199 264M230 186L311 171M230 186L199 264M311 171L335 163M446 220L490 178M446 220L387 298M446 220L464 241M446 220L501 302M490 178L464 241M634 174L708 168M708 168L767 200M767 200L773 293M767 200L848 263M865 238L886 196M865 238L848 263M865 238L902 280M886 196L848 263M886 196L902 280M975 171L1057 204M975 171L977 247M1057 204L1169 198M1057 204L977 247M1057 204L1071 272M1169 198L1229 173M1169 198L1166 291M1169 198L1211 265M1229 173L1325 225M1229 173L1211 265M1325 225L1369 172M1325 225L1333 295M1325 225L1409 260M1369 172L1478 215M1369 172L1409 260M1478 215L1579 236M1478 215L1409 260M1478 215L1489 304M1579 236L1603 184M1579 236L1596 303M1579 236L1621 263M1603 184L1621 263M1758 185L1773 181M1758 185L1709 248M1773 181L1709 248M1773 181L1852 266M1879 224L1957 214M1879 224L1852 266M1879 224L1923 288M1957 214L1923 288M2068 173L2120 175M2120 175L2201 166M2201 166L2280 228M2280 228L2355 162M2280 228L2267 280M2280 228L2338 244M2280 228L2317 339M2355 162L2424 204M2355 162L2338 244M2424 204L2530 220M2424 204L2338 244M2424 204L2480 287M2530 220L2587 253M2530 220L2480 287M2530 220L2540 297M-30 220L27 253M27 253L105 292M27 253L-20 297M27 253L82 346M2587 253L2540 297M105 292L199 264M105 292L65 375M105 292L82 346M199 264L231 343M304 292L387 298M304 292L231 343M304 292L296 343M304 292L327 379M387 298L296 343M387 298L439 324M464 241L501 302M464 241L439 324M464 241L516 328M501 302L563 307M501 302L439 324M501 302L516 328M563 307L516 328M563 307L637 328M716 316L773 293M716 316L637 328M716 316L663 377M716 316L732 329M716 316L762 416M773 293L848 263M773 293L732 329M773 293L817 387M848 263L902 280M902 280L977 247M902 280L986 355M977 247L1071 272M1071 272L1166 291M1071 272L1048 383M1166 291L1211 265M1166 291L1165 383M1333 295L1265 363M1333 295L1369 336M1409 260L1489 304M1409 260L1369 336M1489 304L1596 303M1489 304L1504 375M1489 304L1536 383M1596 303L1621 263M1621 263L1709 248M1799 314L1852 266M1799 314L1699 349M1799 314L1773 349M1799 314L1899 347M1799 314L1822 421M1852 266L1923 288M1852 266L1899 347M1923 288L1899 347M2055 310L2087 303M2055 310L1993 366M2055 310L2073 326M2055 310L2114 327M2055 310L2014 403M2087 303L2163 311M2087 303L2073 326M2087 303L2114 327M2087 303L2182 369M2163 311L2267 280M2163 311L2073 326M2163 311L2114 327M2163 311L2182 369M2267 280L2338 244M2267 280L2317 339M2338 244L2381 322M2480 287L2540 297M2480 287L2461 363M2540 297L2519 390M65 375L82 346M65 375L-41 390M65 375L3 403M65 375L123 449M2625 375L2519 390M82 346L3 403M82 346L123 449M231 343L296 343M231 343L245 436M296 343L327 379M296 343L245 436M327 379L346 471M327 379L447 400M439 324L516 328M439 324L447 400M516 328L447 400M637 328L663 377M637 328L732 329M637 328L618 418M663 377L732 329M663 377L618 418M663 377L654 464M732 329L762 416M817 387L762 416M817 387L818 451M817 387L899 402M817 387L796 483M941 400L986 355M941 400L899 402M941 400L1030 404M941 400L935 495M986 355L1048 383M986 355L899 402M986 355L1030 404M1048 383L1165 383M1048 383L1030 404M1048 383L1098 452M1165 383L1265 363M1165 383L1098 452M1165 383L1177 454M1265 363L1344 396M1265 363L1275 447M1265 363L1281 414M1344 396L1369 336M1344 396L1275 447M1344 396L1281 414M1344 396L1392 447M1369 336L1392 447M1504 375L1536 383M1504 375L1514 458M1504 375L1518 482M1536 383L1514 458M1536 383L1568 450M1536 383L1518 482M1660 397L1699 349M1660 397L1644 409M1660 397L1639 481M1699 349L1773 349M1699 349L1644 409M1699 349L1749 437M1773 349L1749 437M1773 349L1822 421M1899 347L1993 366M1899 347L1822 421M1993 366L1922 443M1993 366L2014 403M2073 326L2114 327M2073 326L2014 403M2114 327L2182 369M2182 369L2148 473M2182 369L2200 441M2317 339L2381 322M2317 339L2324 442M2381 322L2461 363M2461 363L2519 390M2461 363L2434 448M2461 363L2515 432M2519 390L2563 403M2519 390L2515 432M-41 390L3 403M3 403L-45 432M2563 403L2515 432M123 449L148 482M236 451L245 436M236 451L148 482M236 451L203 537M236 451L252 490M245 436L346 471M245 436L252 490M346 471L252 490M346 471L322 536M346 471L430 505M447 400L535 439M447 400L430 505M535 439L618 418M535 439L510 530M535 439L586 484M618 418L654 464M618 418L586 484M654 464L586 484M654 464L712 552M762 416L818 451M762 416L796 483M818 451L899 402M818 451L796 483M818 451L872 491M899 402L872 491M1030 404L1098 452M1098 452L1177 454M1177 454L1275 447M1177 454L1171 550M1177 454L1225 504M1275 447L1281 414M1275 447L1225 504M1281 414L1392 447M1392 447L1424 555M1514 458L1568 450M1514 458L1518 482M1514 458L1560 515M1568 450L1518 482M1568 450L1560 515M1568 450L1639 481M1644 409L1749 437M1644 409L1639 481M1749 437L1822 421M1749 437L1701 534M1822 421L1863 453M1863 453L1922 443M1863 453L1905 503M1922 443L2014 403M1922 443L1905 503M2148 473L2200 441M2148 473L2099 520M2148 473L2113 578M2148 473L2200 565M2200 441L2248 533M2303 478L2324 442M2303 478L2237 546M2303 478L2248 533M2303 478L2381 527M2303 478L2318 562M2324 442L2434 448M2434 448L2515 432M2434 448L2381 527M2434 448L2432 545M2515 432L2531 517M21 540L-29 517M21 540L13 591M21 540L82 647M2581 540L2531 517M148 482L203 537M148 482L148 578M203 537L252 490M203 537L148 578M203 537L241 610M252 490L322 536M322 536L325 585M430 505L510 530M510 530L586 484M510 530L527 622M712 552L796 483M712 552L630 602M712 552L716 579M712 552L768 611M796 483L872 491M872 491L935 495M935 495L1007 552M1007 552L1059 553M1007 552L991 633M1007 552L1097 604M1059 553L1171 550M1059 553L991 633M1059 553L1097 604M1059 553L1109 661M1171 550L1225 504M1171 550L1097 604M1171 550L1189 588M1225 504L1302 556M1225 504L1189 588M1302 556L1273 622M1302 556L1358 594M1424 555L1358 594M1424 555L1367 616M1424 555L1479 609M1424 555L1383 650M1518 482L1560 515M1560 515L1639 481M1639 481L1701 534M1701 534L1772 556M1701 534L1657 613M1701 534L1750 579M1772 556L1750 579M1772 556L1800 613M1772 556L1897 576M1905 503L1965 533M1905 503L1897 576M1905 503L1925 611M1965 533L2028 557M1965 533L1897 576M1965 533L1925 611M1965 533L2054 585M2028 557L2099 520M2028 557L2054 585M2028 557L2113 578M2028 557L2002 648M2099 520L2054 585M2099 520L2113 578M2099 520L2200 565M2237 546L2248 533M2237 546L2200 565M2237 546L2318 562M2248 533L2200 565M2248 533L2318 562M2381 527L2432 545M2381 527L2318 562M2381 527L2372 607M2432 545L2372 607M2432 545L2468 561M2531 517L2573 591M2531 517L2468 561M2531 517L2505 606M-29 517L13 591M13 591L-55 606M13 591L47 674M13 591L82 647M2573 591L2505 606M148 578L206 639M148 578L82 647M206 639L241 610M206 639L233 645M206 639L211 731M241 610L325 585M241 610L233 645M241 610L310 659M325 585L310 659M424 631L527 622M424 631L393 676M424 631L408 666M424 631L487 665M527 622L630 602M527 622L487 665M630 602L716 579M630 602L604 705M630 602L641 651M716 579L768 611M716 579L802 631M768 611L802 631M768 611L794 658M802 631L903 639M802 631L794 658M903 639L991 633M903 639L869 705M903 639L924 642M991 633L924 642M991 633L999 697M1097 604L1189 588M1097 604L1109 661M1189 588L1273 622M1189 588L1109 661M1273 622L1367 616M1273 622L1230 713M1358 594L1367 616M1358 594L1357 675M1358 594L1383 650M1367 616L1357 675M1367 616L1383 650M1479 609L1553 638M1479 609L1383 650M1479 609L1485 704M1479 609L1576 653M1553 638L1485 704M1553 638L1576 653M1553 638L1614 708M1657 613L1750 579M1657 613L1576 653M1657 613L1614 708M1657 613L1703 661M1750 579L1800 613M1750 579L1781 656M1800 613L1897 576M1800 613L1781 656M1800 613L1843 716M1897 576L1925 611M1925 611L2002 648M2054 585L2113 578M2054 585L2002 648M2113 578L2200 565M2318 562L2372 607M2372 607L2468 561M2372 607L2436 674M2468 561L2505 606M2468 561L2497 662M2505 606L2436 674M2505 606L2497 662M47 674L82 647M47 674L-63 662M47 674L32 774M2607 674L2497 662M233 645L310 659M233 645L211 731M310 659L393 676M310 659L326 722M393 676L408 666M393 676L487 665M393 676L326 722M408 666L487 665M408 666L326 722M408 666L481 752M487 665L481 752M604 705L641 651M604 705L639 742M794 658L869 705M794 658L731 743M794 658L820 746M869 705L924 642M869 705L820 746M869 705L953 748M924 642L999 697M924 642L953 748M999 697L953 748M999 697L1026 747M1109 661L1192 684M1109 661L1116 759M1192 684L1230 713M1192 684L1177 760M1230 713L1177 760M1230 713L1224 792M1230 713L1303 775M1357 675L1383 650M1357 675L1421 772M1485 704L1576 653M1485 704L1421 772M1485 704L1517 763M1576 653L1614 708M1614 708L1644 779M1703 661L1781 656M1781 656L1843 716M1781 656L1804 734M1843 716L1804 734M1843 716L1864 733M1981 713L2002 648M1981 713L1977 761M2002 648L2107 696M2107 696L2194 716M2107 696L2062 761M2107 696L2095 722M2107 696L2055 801M2194 716L2276 693M2194 716L2095 722M2194 716L2192 791M2194 716L2228 811M2276 693L2321 719M2276 693L2192 791M2276 693L2316 737M2321 719L2316 737M2321 719L2353 756M2321 719L2402 760M2321 719L2337 819M2436 674L2497 662M2436 674L2402 760M2436 674L2508 766M2497 662L2508 766M32 774L123 793M32 774L-52 766M32 774L75 868M32 774L-32 886M2592 774L2508 766M2592 774L2528 886M123 793L211 731M123 793L75 868M123 793L150 859M123 793L99 905M211 731L289 761M211 731L326 722M289 761L326 722M289 761L229 850M468 783L481 752M468 783L371 844M468 783L471 838M468 783L547 801M481 752L471 838M481 752L547 801M639 742L717 774M639 742L731 743M639 742L622 830M639 742L645 804M717 774L731 743M717 774L645 804M717 774L739 802M731 743L820 746M731 743L739 802M820 746L739 802M820 746L857 863M953 748L1026 747M953 748L885 849M1026 747L1116 759M1116 759L1177 760M1177 760L1224 792M1177 760L1255 805M1224 792L1303 775M1224 792L1187 866M1224 792L1255 805M1303 775L1255 805M1303 775L1356 805M1303 775L1398 802M1421 772L1517 763M1421 772L1356 805M1421 772L1398 802M1517 763L1554 797M1517 763L1506 832M1517 763L1530 858M1554 797L1644 779M1554 797L1506 832M1554 797L1530 858M1554 797L1609 842M1644 779L1721 788M1644 779L1609 842M1721 788L1804 734M1721 788L1749 823M1721 788L1719 889M1804 734L1864 733M1804 734L1749 823M1864 733L1885 826M1977 761L2062 761M1977 761L1885 826M1977 761L1940 858M1977 761L2055 801M2062 761L2095 722M2062 761L2055 801M2062 761L2105 825M2095 722L2055 801M2095 722L2105 825M2192 791L2105 825M2192 791L2228 811M2316 737L2353 756M2316 737L2402 760M2316 737L2337 819M2353 756L2402 760M2353 756L2337 819M2353 756L2413 815M2402 760L2413 815M2508 766L2501 852M75 868L150 859M75 868L28 920M75 868L99 905M150 859L229 850M150 859L256 869M150 859L99 905M229 850L256 869M229 850L225 953M256 869L225 953M256 869L312 934M256 869L346 930M371 844L346 930M371 844L426 922M471 838L547 801M471 838L426 922M471 838L511 936M547 801L622 830M622 830L645 804M622 830L624 892M622 830L654 922M645 804L739 802M645 804L624 892M857 863L885 849M857 863L863 931M857 863L904 964M885 849L863 931M1040 871L1095 865M1040 871L945 926M1040 871L1038 957M1040 871L1061 945M1095 865L1187 866M1095 865L1061 945M1095 865L1141 924M1187 866L1255 805M1187 866L1141 924M1187 866L1274 912M1356 805L1398 802M1506 832L1530 858M1506 832L1609 842M1506 832L1493 899M1530 858L1609 842M1530 858L1493 899M1609 842L1677 915M1749 823L1798 873M1749 823L1719 889M1749 823L1796 918M1798 873L1885 826M1798 873L1719 889M1798 873L1796 918M1798 873L1899 893M1885 826L1940 858M1885 826L1899 893M1940 858L1899 893M1940 858L1954 928M2055 801L2105 825M2105 825L2071 929M2319 875L2337 819M2319 875L2227 928M2319 875L2309 927M2319 875L2368 914M2319 875L2332 961M2337 819L2413 815M2413 815L2501 852M2413 815L2437 923M2501 852L2528 886M28 920L99 905M28 920L-32 886M28 920L3 1032M2588 920L2528 886M99 905L122 1008M225 953L312 934M225 953L192 974M225 953L263 1007M312 934L346 930M312 934L263 1007M346 930L426 922M346 930L379 1037M426 922L511 936M426 922L430 1017M511 936L430 1017M511 936L541 967M624 892L654 922M624 892L734 929M624 892L700 966M654 922L734 929M654 922L700 966M734 929L700 966M734 929L757 994M734 929L841 991M863 931L945 926M863 931L841 991M863 931L904 964M945 926L1038 957M945 926L904 964M945 926L961 1028M1038 957L1061 945M1038 957L1088 1015M1061 945L1141 924M1061 945L1088 1015M1141 924L1128 996M1274 912L1289 948M1274 912L1378 959M1274 912L1246 991M1274 912L1299 994M1289 948L1378 959M1289 948L1246 991M1289 948L1299 994M1289 948L1270 1042M1378 959L1416 1028M1378 959L1459 1001M1493 899L1576 953M1493 899L1459 1001M1493 899L1571 981M1576 953L1571 981M1677 915L1719 889M1677 915L1672 1024M1677 915L1715 983M1719 889L1796 918M1796 918L1715 983M1796 918L1815 1003M1899 893L1954 928M1899 893L1868 999M1954 928L2071 929M1954 928L1868 999M1954 928L1986 988M2071 929L2103 955M2071 929L1986 988M2227 928L2309 927M2227 928L2255 991M2309 927L2368 914M2309 927L2332 961M2368 914L2437 923M2368 914L2332 961M2368 914L2401 979M2437 923L2528 886M2437 923L2401 979M2437 923L2496 1000M3 1032L-64 1000M3 1032L56 1094M3 1032L-29 1046M3 1032L-60 1123M2563 1032L2496 1000M2563 1032L2531 1046M2563 1032L2500 1123M122 1008L192 974M122 1008L97 1098M122 1008L180 1086M192 974L263 1007M263 1007L274 1087M379 1037L430 1017M379 1037L387 1081M379 1037L406 1113M430 1017L387 1081M430 1017L406 1113M541 967L593 1027M593 1027L620 1116M700 966L757 994M700 966L726 1079M757 994L841 991M757 994L726 1079M757 994L801 1060M841 991L904 964M841 991L801 1060M904 964L961 1028M961 1028L947 1056M961 1028L1015 1080M961 1028L988 1125M1088 1015L1128 996M1088 1015L1015 1080M1088 1015L1076 1100M1246 991L1299 994M1246 991L1270 1042M1246 991L1301 1055M1299 994L1270 1042M1299 994L1301 1055M1416 1028L1459 1001M1416 1028L1387 1078M1459 1001L1387 1078M1459 1001L1524 1081M1571 981L1672 1024M1571 981L1524 1081M1672 1024L1715 983M1672 1024L1664 1083M1672 1024L1724 1070M1715 983L1664 1083M1715 983L1724 1070M1815 1003L1868 999M1815 1003L1839 1093M1815 1003L1863 1076M1868 999L1839 1093M1868 999L1863 1076M1986 988L2039 1034M1986 988L1987 1063M1986 988L2011 1049M2039 1034L1987 1063M2039 1034L2011 1049M2039 1034L2134 1051M2156 1036L2192 1030M2156 1036L2134 1051M2156 1036L2206 1043M2156 1036L2109 1131M2192 1030L2255 991M2192 1030L2134 1051M2192 1030L2206 1043M2192 1030L2247 1050M2255 991L2332 961M2255 991L2206 1043M2255 991L2247 1050M2332 961L2401 979M2401 979L2496 1000M2401 979L2368 1063M2496 1000L2444 1075M2496 1000L2531 1046M56 1094L97 1098M56 1094L-29 1046M56 1094L114 1170M2616 1094L2531 1046M97 1098L180 1086M97 1098L114 1170M97 1098L165 1171M180 1086L274 1087M180 1086L165 1171M180 1086L287 1136M274 1087L287 1136M274 1087L338 1125M387 1081L406 1113M387 1081L287 1136M387 1081L338 1125M406 1113L338 1125M406 1113L484 1141M512 1108L479 1190M512 1108L484 1141M512 1108L617 1146M512 1108L524 1221M620 1116L701 1080M620 1116L617 1146M620 1116L652 1149M701 1080L726 1079M701 1080L801 1060M701 1080L617 1146M701 1080L652 1149M726 1079L801 1060M726 1079L652 1149M801 1060L862 1160M947 1056L1015 1080M947 1056L951 1168M947 1056L988 1125M1015 1080L1076 1100M1015 1080L988 1125M1076 1100L988 1125M1076 1100L1118 1194M1076 1100L1124 1154M1163 1110L1118 1194M1163 1110L1124 1154M1270 1042L1301 1055M1301 1055L1387 1078M1387 1078L1383 1162M1517 1098L1524 1081M1517 1098L1477 1162M1517 1098L1530 1167M1524 1081L1477 1162M1524 1081L1530 1167M1664 1083L1724 1070M1664 1083L1640 1152M1664 1083L1681 1163M1724 1070L1681 1163M1839 1093L1863 1076M1839 1093L1811 1164M1839 1093L1845 1145M1863 1076L1811 1164M1863 1076L1845 1145M1987 1063L2011 1049M1987 1063L1952 1151M1987 1063L2001 1135M2011 1049L2001 1135M2134 1051L2109 1131M2206 1043L2247 1050M2206 1043L2213 1126M2247 1050L2213 1126M2247 1050L2241 1123M2368 1063L2444 1075M2368 1063L2377 1176M2444 1075L2531 1046M2444 1075L2409 1196M2444 1075L2500 1123M2531 1046L2500 1123M63 1196L114 1170M63 1196L165 1171M63 1196L14 1202M63 1196L139 1220M63 1196L-3 1223M2623 1196L2557 1223M114 1170L165 1171M114 1170L139 1220M165 1171L139 1220M287 1136L338 1125M287 1136L371 1200M338 1125L371 1200M479 1190L484 1141M479 1190L371 1200M479 1190L402 1252M479 1190L524 1221M484 1141L524 1221M617 1146L652 1149M617 1146L636 1220M652 1149L636 1220M777 1190L862 1160M777 1190L765 1274M862 1160L951 1168M862 1160L860 1269M862 1160L910 1247M951 1168L988 1125M951 1168L910 1247M951 1168L1012 1220M1118 1194L1124 1154M1118 1194L1074 1233M1118 1194L1139 1258M1124 1154L1074 1233M1267 1193L1297 1185M1267 1193L1244 1252M1267 1193L1325 1273M1297 1185L1383 1162M1297 1185L1244 1252M1297 1185L1325 1273M1297 1185L1338 1285M1383 1162L1412 1204M1477 1162L1530 1167M1477 1162L1412 1204M1477 1162L1451 1239M1530 1167L1544 1244M1640 1152L1681 1163M1640 1152L1700 1203M1681 1163L1700 1203M1811 1164L1845 1145M1811 1164L1775 1255M1811 1164L1862 1258M1845 1145L1952 1151M1952 1151L2001 1135M1952 1151L1984 1232M2001 1135L2109 1131M2001 1135L1984 1232M2109 1131L2213 1126M2109 1131L2197 1245M2213 1126L2241 1123M2213 1126L2259 1215M2241 1123L2259 1215M2377 1176L2409 1196M2377 1176L2355 1223M2409 1196L2355 1223M2409 1196L2474 1228M2500 1123L2574 1202M2500 1123L2474 1228M-60 1123L14 1202M14 1202L-3 1223M14 1202L27 1285M14 1202L-3 1310M2574 1202L2557 1223M2574 1202L2557 1310M139 1220L229 1271M139 1220L125 1305M229 1271L292 1254M229 1271L125 1305M229 1271L214 1335M229 1271L317 1298M292 1254L371 1200M292 1254L317 1298M371 1200L402 1252M402 1252L430 1347M524 1221L527 1301M636 1220L678 1270M636 1220L608 1289M636 1220L701 1280M678 1270L765 1274M678 1270L608 1289M678 1270L701 1280M765 1274L701 1280M765 1274L791 1327M765 1274L820 1334M860 1269L910 1247M860 1269L820 1334M860 1269L944 1296M910 1247L1012 1220M910 1247L944 1296M1012 1220L1074 1233M1012 1220L1011 1325M1074 1233L1139 1258M1139 1258L1107 1337M1139 1258L1165 1301M1244 1252L1325 1273M1244 1252L1165 1301M1244 1252L1252 1320M1325 1273L1252 1320M1325 1273L1338 1285M1412 1204L1451 1239M1451 1239L1544 1244M1451 1239L1423 1336M1451 1239L1457 1323M1544 1244L1638 1267M1544 1244L1457 1323M1544 1244L1544 1295M1638 1267L1700 1203M1638 1267L1544 1295M1638 1267L1650 1318M1638 1267L1706 1334M1700 1203L1775 1255M1775 1255L1862 1258M1775 1255L1706 1334M1775 1255L1862 1281M1862 1258L1839 1359M1862 1258L1862 1281M1984 1232L2037 1259M1984 1232L1963 1326M1984 1232L2013 1319M2037 1259L2151 1269M2037 1259L1963 1326M2037 1259L2013 1319M2151 1269L2197 1245M2151 1269L2259 1215M2151 1269L2123 1359M2151 1269L2168 1295M2197 1245L2259 1215M2197 1245L2168 1295M2259 1215L2355 1223M2355 1223L2310 1311M2355 1223L2391 1318M2474 1228L2557 1223M2474 1228L2474 1282M2557 1223L2587 1285M2557 1223L2557 1310M-3 1223L27 1285M27 1285L125 1305M27 1285L-3 1310M27 1285L-12 1393M2587 1285L2557 1310M2587 1285L2548 1393M125 1305L214 1335M125 1305L115 1409M214 1335L217 1410M214 1335L301 1376M317 1298L365 1354M317 1298L301 1376M317 1298L351 1389M365 1354L430 1347M365 1354L301 1376M365 1354L351 1389M365 1354L471 1389M430 1347L351 1389M430 1347L471 1389M527 1301L608 1289M527 1301L471 1389M527 1301L537 1426M608 1289L701 1280M608 1289L626 1399M701 1280L791 1327M791 1327L820 1334M791 1327L790 1408M791 1327L841 1406M820 1334L790 1408M820 1334L841 1406M944 1296L1011 1325M944 1296L958 1373M944 1296L985 1377M1011 1325L1107 1337M1011 1325L958 1373M1011 1325L985 1377M1107 1337L1165 1301M1107 1337L1147 1421M1165 1301L1252 1320M1165 1301L1241 1376M1252 1320L1338 1285M1252 1320L1241 1376M1338 1285L1423 1336M1423 1336L1457 1323M1423 1336L1369 1388M1423 1336L1462 1394M1457 1323L1544 1295M1457 1323L1462 1394M1544 1295L1650 1318M1650 1318L1706 1334M1650 1318L1665 1415M1650 1318L1703 1418M1706 1334L1665 1415M1706 1334L1703 1418M1839 1359L1862 1281M1839 1359L1819 1383M1839 1359L1919 1371M1862 1281L1819 1383M1963 1326L2013 1319M1963 1326L1919 1371M1963 1326L1960 1423M2013 1319L2061 1398M2123 1359L2168 1295M2123 1359L2061 1398M2123 1359L2155 1407M2123 1359L2165 1408M2310 1311L2391 1318M2310 1311L2320 1374M2391 1318L2474 1282M2391 1318L2320 1374M2391 1318L2423 1424M2474 1282L2557 1310M2557 1310L2548 1393M19 1414L115 1409M19 1414L-12 1393M2579 1414L2548 1393M115 1409L217 1410M217 1410L301 1376M301 1376L351 1389M471 1389L537 1426M537 1426L626 1399M626 1399L692 1409M790 1408L841 1406M958 1373L985 1377M958 1373L1042 1432M985 1377L1042 1432M1042 1432L1147 1421M1147 1421L1241 1376M1241 1376L1350 1427M1350 1427L1369 1388M1462 1394L1528 1438M1665 1415L1703 1418M1819 1383L1919 1371M1919 1371L1960 1423M1960 1423L2061 1398M2061 1398L2165 1408M2155 1407L2165 1408M2280 1433L2320 1374M2320 1374L2423 1424"/></svg>