<svg xmlns="http://www.w3.org/2000/svg" width="2560" height="1440" fill="#fff"><circle cx="62" cy="53" r="5"/><circle cx="149" cy="40" r="6"/><circle cx="221" cy="6" r="6"/><circle cx="244" cy="5" r="5"/><circle cx="244" cy="1445" r="5"/><circle cx="335" cy="59" r="6"/><circle cx="465" cy="57" r="5"/><circle cx="555" cy="57" r="5"/><circle cx="569" cy="14" r="5"/><circle cx="720" cy="76" r="5"/><circle cx="731" cy="10" r="6"/><circle cx="863" cy="31" r="4"/><circle cx="920" cy="9" r="5"/><circle cx="1016" cy="59" r="6"/><circle cx="1093" cy="39" r="5"/><circle cx="1196" cy="19" r="5"/><circle cx="1235" cy="32" r="5"/><circle cx="1354" cy="4" r="6"/><circle cx="1354" cy="1444" r="6"/><circle cx="1401" cy="24" r="5"/><circle cx="1456" cy="58" r="4"/><circle cx="1595" cy="39" r="5"/><circle cx="1644" cy="6" r="6"/><circle cx="1750" cy="28" r="5"/><circle cx="1803" cy="80" r="5"/><circle cx="1892" cy="46" r="4"/><circle cx="1995" cy="44" r="5"/><circle cx="2060" cy="30" r="5"/><circle cx="2083" cy="31" r="4"/><circle cx="2207" cy="65" r="6"/><circle cx="2291" cy="33" r="5"/><circle cx="2378" cy="61" r="6"/><circle cx="2458" cy="71" r="6"/><circle cx="2535" cy="22" r="6"/><circle cx="53" cy="83" r="4"/><circle cx="124" cy="126" r="5"/><circle cx="203" cy="146" r="5"/><circle cx="274" cy="146" r="4"/><circle cx="400" cy="126" r="5"/><circle cx="407" cy="143" r="5"/><circle cx="514" cy="145" r="4"/><circle cx="605" cy="126" r="6"/><circle cx="658" cy="150" r="4"/><circle cx="724" cy="160" r="5"/><circle cx="862" cy="100" r="4"/><circle cx="948" cy="95" r="4"/><circle cx="1002" cy="106" r="5"/><circle cx="1088" cy="119" r="4"/><circle cx="1121" cy="154" r="4"/><circle cx="1209" cy="99" r="6"/><circle cx="1349" cy="92" r="4"/><circle cx="1396" cy="99" r="4"/><circle cx="1516" cy="146" r="4"/><circle cx="1587" cy="85" r="6"/><circle cx="1622" cy="127" r="5"/><circle cx="1689" cy="90" r="5"/><circle cx="1811" cy="89" r="5"/><circle cx="1905" cy="87" r="5"/><circle cx="1921" cy="127" r="6"/><circle cx="2051" cy="128" r="6"/><circle cx="2126" cy="134" r="5"/><circle cx="2205" cy="143" r="5"/><circle cx="2265" cy="152" r="4"/><circle cx="2321" cy="119" r="5"/><circle cx="2456" cy="158" r="4"/><circle cx="2552" cy="83" r="5"/><circle cx="59" cy="204" r="6"/><circle cx="113" cy="224" r="5"/><circle cx="191" cy="217" r="4"/><circle cx="313" cy="215" r="6"/><circle cx="336" cy="162" r="6"/><circle cx="470" cy="211" r="4"/><circle cx="548" cy="204" r="6"/><circle cx="580" cy="173" r="6"/><circle cx="679" cy="179" r="6"/><circle cx="731" cy="174" r="4"/><circle cx="866" cy="193" r="5"/><circle cx="944" cy="230" r="5"/><circle cx="972" cy="196" r="6"/><circle cx="1098" cy="170" r="4"/><circle cx="1163" cy="200" r="4"/><circle cx="1206" cy="237" r="5"/><circle cx="1319" cy="179" r="5"/><circle cx="1399" cy="165" r="5"/><circle cx="1513" cy="221" r="6"/><circle cx="1595" cy="182" r="6"/><circle cx="1637" cy="174" r="6"/><circle cx="1690" cy="195" r="5"/><circle cx="1800" cy="182" r="6"/><circle cx="1841" cy="162" r="4"/><circle cx="1954" cy="181" r="6"/><circle cx="2022" cy="165" r="6"/><circle cx="2117" cy="231" r="5"/><circle cx="2233" cy="228" r="5"/><circle cx="2278" cy="202" r="4"/><circle cx="2325" cy="226" r="5"/><circle cx="2420" cy="234" r="5"/><circle cx="2528" cy="236" r="5"/><circle cx="48" cy="285" r="5"/><circle cx="80" cy="290" r="6"/><circle cx="166" cy="265" r="6"/><circle cx="281" cy="269" r="5"/><circle cx="357" cy="266" r="5"/><circle cx="403" cy="319" r="5"/><circle cx="498" cy="282" r="6"/><circle cx="589" cy="309" r="6"/><circle cx="645" cy="286" r="4"/><circle cx="782" cy="290" r="4"/><circle cx="802" cy="311" r="4"/><circle cx="942" cy="296" r="5"/><circle cx="1008" cy="266" r="5"/><circle cx="1079" cy="253" r="4"/><circle cx="1200" cy="311" r="5"/><circle cx="1229" cy="284" r="5"/><circle cx="1290" cy="306" r="5"/><circle cx="1415" cy="277" r="5"/><circle cx="1476" cy="316" r="4"/><circle cx="1543" cy="282" r="5"/><circle cx="1637" cy="320" r="4"/><circle cx="1688" cy="317" r="5"/><circle cx="1769" cy="266" r="5"/><circle cx="1842" cy="305" r="6"/><circle cx="1933" cy="267" r="4"/><circle cx="2002" cy="290" r="4"/><circle cx="2083" cy="253" r="5"/><circle cx="2193" cy="312" r="4"/><circle cx="2259" cy="296" r="5"/><circle cx="2377" cy="256" r="5"/><circle cx="2413" cy="304" r="5"/><circle cx="2483" cy="260" r="4"/><circle cx="21" cy="336" r="4"/><circle cx="91" cy="397" r="5"/><circle cx="237" cy="380" r="5"/><circle cx="260" cy="378" r="4"/><circle cx="382" cy="338" r="5"/><circle cx="467" cy="329" r="5"/><circle cx="547" cy="355" r="4"/><circle cx="570" cy="395" r="5"/><circle cx="695" cy="368" r="4"/><circle cx="772" cy="374" r="6"/><circle cx="850" cy="377" r="5"/><circle cx="911" cy="357" r="5"/><circle cx="999" cy="354" r="5"/><circle cx="1045" cy="368" r="6"/><circle cx="1126" cy="333" r="6"/><circle cx="1268" cy="362" r="5"/><circle cx="1301" cy="354" r="6"/><circle cx="1428" cy="394" r="5"/><circle cx="1449" cy="356" r="6"/><circle cx="1588" cy="380" r="6"/><circle cx="1651" cy="340" r="5"/><circle cx="1738" cy="366" r="5"/><circle cx="1834" cy="350" r="5"/><circle cx="1876" cy="348" r="5"/><circle cx="1992" cy="394" r="5"/><circle cx="2051" cy="376" r="6"/><circle cx="2131" cy="334" r="6"/><circle cx="2189" cy="358" r="4"/><circle cx="2294" cy="329" r="5"/><circle cx="2369" cy="396" r="5"/><circle cx="2455" cy="328" r="5"/><circle cx="2530" cy="392" r="5"/><circle cx="47" cy="446" r="6"/><circle cx="105" cy="423" r="6"/><circle cx="220" cy="456" r="6"/><circle cx="275" cy="435" r="5"/><circle cx="360" cy="429" r="5"/><circle cx="419" cy="448" r="6"/><circle cx="530" cy="437" r="5"/><circle cx="585" cy="478" r="6"/><circle cx="648" cy="427" r="5"/><circle cx="752" cy="465" r="6"/><circle cx="838" cy="438" r="5"/><circle cx="893" cy="477" r="5"/><circle cx="969" cy="474" r="6"/><circle cx="1095" cy="478" r="4"/><circle cx="1192" cy="439" r="5"/><circle cx="1270" cy="421" r="5"/><circle cx="1321" cy="462" r="6"/><circle cx="1362" cy="472" r="4"/><circle cx="1494" cy="454" r="4"/><circle cx="1530" cy="453" r="4"/><circle cx="1611" cy="407" r="5"/><circle cx="1709" cy="457" r="6"/><circle cx="1774" cy="452" r="6"/><circle cx="1859" cy="441" r="5"/><circle cx="1976" cy="415" r="6"/><circle cx="2066" cy="427" r="5"/><circle cx="2152" cy="433" r="5"/><circle cx="2227" cy="412" r="4"/><circle cx="2257" cy="464" r="6"/><circle cx="2340" cy="463" r="4"/><circle cx="2430" cy="434" r="4"/><circle cx="2497" cy="459" r="5"/><circle cx="58" cy="545" r="6"/><circle cx="117" cy="482" r="5"/><circle cx="181" cy="512" r="5"/><circle cx="292" cy="514" r="5"/><circle cx="358" cy="546" r="4"/><circle cx="466" cy="523" r="5"/><circle cx="522" cy="503" r="5"/><circle cx="583" cy="536" r="6"/><circle cx="655" cy="496" r="5"/><circle cx="758" cy="499" r="4"/><circle cx="824" cy="503" r="6"/><circle cx="946" cy="523" r="5"/><circle cx="1012" cy="553" r="4"/><circle cx="1073" cy="540" r="5"/><circle cx="1139" cy="506" r="6"/><circle cx="1278" cy="545" r="5"/><circle cx="1312" cy="522" r="5"/><circle cx="1418" cy="550" r="6"/><circle cx="1500" cy="516" r="5"/><circle cx="1536" cy="520" r="4"/><circle cx="1675" cy="522" r="6"/><circle cx="1707" cy="510" r="5"/><circle cx="1786" cy="488" r="4"/><circle cx="1883" cy="481" r="5"/><circle cx="1949" cy="546" r="6"/><circle cx="2073" cy="550" r="6"/><circle cx="2155" cy="490" r="6"/><circle cx="2214" cy="556" r="4"/><circle cx="2313" cy="532" r="5"/><circle cx="2332" cy="499" r="5"/><circle cx="2425" cy="559" r="6"/><circle cx="2556" cy="545" r="6"/><circle cx="-4" cy="545" r="6"/><circle cx="29" cy="630" r="5"/><circle cx="125" cy="580" r="5"/><circle cx="238" cy="579" r="5"/><circle cx="252" cy="615" r="5"/><circle cx="395" cy="565" r="6"/><circle cx="448" cy="633" r="5"/><circle cx="480" cy="600" r="6"/><circle cx="587" cy="636" r="5"/><circle cx="682" cy="569" r="4"/><circle cx="761" cy="563" r="5"/><circle cx="807" cy="606" r="6"/><circle cx="922" cy="603" r="5"/><circle cx="993" cy="595" r="4"/><circle cx="1085" cy="574" r="5"/><circle cx="1167" cy="599" r="4"/><circle cx="1242" cy="635" r="4"/><circle cx="1293" cy="561" r="4"/><circle cx="1386" cy="583" r="5"/><circle cx="1515" cy="584" r="5"/><circle cx="1542" cy="628" r="6"/><circle cx="1648" cy="602" r="6"/><circle cx="1730" cy="640" r="5"/><circle cx="1819" cy="564" r="5"/><circle cx="1879" cy="614" r="6"/><circle cx="1997" cy="622" r="5"/><circle cx="2044" cy="598" r="5"/><circle cx="2130" cy="571" r="5"/><circle cx="2168" cy="598" r="5"/><circle cx="2308" cy="618" r="4"/><circle cx="2398" cy="615" r="4"/><circle cx="2456" cy="568" r="5"/><circle cx="2483" cy="571" r="5"/><circle cx="36" cy="706" r="6"/><circle cx="124" cy="672" r="5"/><circle cx="225" cy="705" r="6"/><circle cx="287" cy="674" r="6"/><circle cx="384" cy="704" r="5"/><circle cx="453" cy="704" r="6"/><circle cx="538" cy="661" r="5"/><circle cx="621" cy="685" r="6"/><circle cx="718" cy="646" r="4"/><circle cx="781" cy="714" r="4"/><circle cx="832" cy="677" r="6"/><circle cx="910" cy="691" r="5"/><circle cx="993" cy="700" r="5"/><circle cx="1097" cy="702" r="5"/><circle cx="1190" cy="644" r="4"/><circle cx="1229" cy="652" r="5"/><circle cx="1281" cy="715" r="5"/><circle cx="1369" cy="656" r="6"/><circle cx="1516" cy="710" r="5"/><circle cx="1564" cy="682" r="6"/><circle cx="1615" cy="672" r="6"/><circle cx="1688" cy="707" r="4"/><circle cx="1839" cy="657" r="6"/><circle cx="1917" cy="659" r="4"/><circle cx="1932" cy="666" r="6"/><circle cx="2064" cy="652" r="4"/><circle cx="2122" cy="704" r="5"/><circle cx="2175" cy="709" r="5"/><circle cx="2266" cy="691" r="5"/><circle cx="2365" cy="696" r="5"/><circle cx="2438" cy="668" r="6"/><circle cx="2499" cy="646" r="5"/><circle cx="36" cy="744" r="5"/><circle cx="118" cy="750" r="5"/><circle cx="180" cy="770" r="6"/><circle cx="242" cy="771" r="5"/><circle cx="325" cy="782" r="5"/><circle cx="416" cy="775" r="4"/><circle cx="548" cy="756" r="6"/><circle cx="585" cy="744" r="5"/><circle cx="679" cy="722" r="6"/><circle cx="762" cy="768" r="6"/><circle cx="827" cy="796" r="5"/><circle cx="957" cy="789" r="5"/><circle cx="990" cy="784" r="5"/><circle cx="1045" cy="769" r="5"/><circle cx="1178" cy="785" r="6"/><circle cx="1235" cy="780" r="5"/><circle cx="1343" cy="770" r="5"/><circle cx="1367" cy="784" r="5"/><circle cx="1488" cy="732" r="6"/><circle cx="1587" cy="739" r="5"/><circle cx="1612" cy="735" r="6"/><circle cx="1717" cy="765" r="4"/><circle cx="1816" cy="752" r="5"/><circle cx="1902" cy="772" r="6"/><circle cx="1965" cy="751" r="4"/><circle cx="2060" cy="749" r="5"/><circle cx="2115" cy="743" r="6"/><circle cx="2218" cy="747" r="6"/><circle cx="2276" cy="725" r="4"/><circle cx="2394" cy="742" r="5"/><circle cx="2407" cy="722" r="4"/><circle cx="2494" cy="742" r="4"/><circle cx="75" cy="801" r="4"/><circle cx="153" cy="871" r="5"/><circle cx="223" cy="857" r="4"/><circle cx="307" cy="849" r="5"/><circle cx="326" cy="872" r="4"/><circle cx="458" cy="809" r="4"/><circle cx="527" cy="838" r="6"/><circle cx="594" cy="873" r="6"/><circle cx="667" cy="850" r="4"/><circle cx="785" cy="850" r="5"/><circle cx="807" cy="845" r="6"/><circle cx="883" cy="832" r="6"/><circle cx="973" cy="862" r="5"/><circle cx="1094" cy="844" r="4"/><circle cx="1140" cy="801" r="5"/><circle cx="1242" cy="812" r="5"/><circle cx="1291" cy="800" r="6"/><circle cx="1421" cy="807" r="5"/><circle cx="1491" cy="829" r="5"/><circle cx="1561" cy="824" r="4"/><circle cx="1645" cy="850" r="5"/><circle cx="1740" cy="803" r="4"/><circle cx="1801" cy="871" r="5"/><circle cx="1880" cy="829" r="5"/><circle cx="1980" cy="868" r="5"/><circle cx="2067" cy="839" r="6"/><circle cx="2160" cy="871" r="4"/><circle cx="2200" cy="834" r="4"/><circle cx="2248" cy="803" r="5"/><circle cx="2349" cy="860" r="6"/><circle cx="2452" cy="838" r="5"/><circle cx="2481" cy="833" r="5"/><circle cx="70" cy="899" r="5"/><circle cx="129" cy="890" r="5"/><circle cx="230" cy="959" r="5"/><circle cx="302" cy="936" r="6"/><circle cx="358" cy="945" r="6"/><circle cx="442" cy="937" r="5"/><circle cx="547" cy="902" r="5"/><circle cx="613" cy="952" r="5"/><circle cx="649" cy="938" r="6"/><circle cx="787" cy="922" r="4"/><circle cx="825" cy="909" r="5"/><circle cx="934" cy="905" r="6"/><circle cx="969" cy="946" r="6"/><circle cx="1086" cy="889" r="5"/><circle cx="1188" cy="880" r="4"/><circle cx="1203" cy="881" r="5"/><circle cx="1352" cy="886" r="4"/><circle cx="1416" cy="952" r="6"/><circle cx="1471" cy="958" r="6"/><circle cx="1522" cy="952" r="5"/><circle cx="1671" cy="917" r="4"/><circle cx="1739" cy="902" r="4"/><circle cx="1814" cy="924" r="5"/><circle cx="1897" cy="912" r="5"/><circle cx="1959" cy="925" r="5"/><circle cx="2056" cy="933" r="5"/><circle cx="2129" cy="890" r="5"/><circle cx="2185" cy="908" r="6"/><circle cx="2245" cy="942" r="6"/><circle cx="2384" cy="939" r="6"/><circle cx="2466" cy="959" r="4"/><circle cx="2520" cy="932" r="6"/><circle cx="55" cy="989" r="6"/><circle cx="91" cy="992" r="5"/><circle cx="176" cy="1001" r="6"/><circle cx="260" cy="1025" r="6"/><circle cx="337" cy="993" r="4"/><circle cx="447" cy="1023" r="5"/><circle cx="511" cy="1034" r="6"/><circle cx="629" cy="1012" r="4"/><circle cx="709" cy="985" r="5"/><circle cx="770" cy="1023" r="5"/><circle cx="828" cy="1040" r="5"/><circle cx="925" cy="997" r="4"/><circle cx="973" cy="981" r="6"/><circle cx="1062" cy="980" r="5"/><circle cx="1134" cy="1035" r="5"/><circle cx="1235" cy="1035" r="6"/><circle cx="1286" cy="1025" r="5"/><circle cx="1432" cy="1036" r="5"/><circle cx="1445" cy="1004" r="6"/><circle cx="1569" cy="1003" r="6"/><circle cx="1670" cy="1030" r="5"/><circle cx="1700" cy="1031" r="5"/><circle cx="1801" cy="980" r="5"/><circle cx="1915" cy="988" r="5"/><circle cx="1942" cy="1001" r="5"/><circle cx="2010" cy="978" r="6"/><circle cx="2115" cy="967" r="4"/><circle cx="2173" cy="1027" r="4"/><circle cx="2298" cy="992" r="5"/><circle cx="2346" cy="1032" r="4"/><circle cx="2433" cy="1034" r="5"/><circle cx="2507" cy="1039" r="6"/><circle cx="50" cy="1120" r="5"/><circle cx="87" cy="1087" r="5"/><circle cx="196" cy="1115" r="6"/><circle cx="313" cy="1119" r="4"/><circle cx="396" cy="1074" r="4"/><circle cx="454" cy="1098" r="6"/><circle cx="517" cy="1110" r="6"/><circle cx="623" cy="1106" r="6"/><circle cx="647" cy="1047" r="4"/><circle cx="733" cy="1077" r="5"/><circle cx="833" cy="1091" r="4"/><circle cx="899" cy="1063" r="5"/><circle cx="972" cy="1057" r="6"/><circle cx="1046" cy="1084" r="5"/><circle cx="1161" cy="1053" r="4"/><circle cx="1253" cy="1068" r="6"/><circle cx="1298" cy="1118" r="5"/><circle cx="1378" cy="1047" r="6"/><circle cx="1457" cy="1106" r="5"/><circle cx="1581" cy="1083" r="5"/><circle cx="1647" cy="1111" r="6"/><circle cx="1681" cy="1059" r="4"/><circle cx="1781" cy="1105" r="4"/><circle cx="1905" cy="1095" r="6"/><circle cx="1949" cy="1051" r="6"/><circle cx="2012" cy="1048" r="6"/><circle cx="2153" cy="1071" r="5"/><circle cx="2237" cy="1056" r="5"/><circle cx="2243" cy="1096" r="5"/><circle cx="2335" cy="1094" r="5"/><circle cx="2402" cy="1099" r="5"/><circle cx="2526" cy="1048" r="5"/><circle cx="22" cy="1164" r="5"/><circle cx="133" cy="1185" r="5"/><circle cx="203" cy="1128" r="5"/><circle cx="254" cy="1164" r="6"/><circle cx="344" cy="1167" r="6"/><circle cx="440" cy="1144" r="5"/><circle cx="523" cy="1152" r="4"/><circle cx="568" cy="1181" r="5"/><circle cx="652" cy="1139" r="5"/><circle cx="777" cy="1194" r="5"/><circle cx="801" cy="1145" r="6"/><circle cx="896" cy="1144" r="5"/><circle cx="960" cy="1155" r="5"/><circle cx="1077" cy="1154" r="6"/><circle cx="1151" cy="1145" r="5"/><circle cx="1248" cy="1153" r="6"/><circle cx="1304" cy="1138" r="5"/><circle cx="1400" cy="1145" r="5"/><circle cx="1484" cy="1182" r="4"/><circle cx="1578" cy="1155" r="4"/><circle cx="1630" cy="1165" r="5"/><circle cx="1693" cy="1176" r="4"/><circle cx="1781" cy="1133" r="4"/><circle cx="1872" cy="1161" r="5"/><circle cx="1939" cy="1191" r="5"/><circle cx="2064" cy="1180" r="4"/><circle cx="2087" cy="1186" r="4"/><circle cx="2194" cy="1156" r="4"/><circle cx="2252" cy="1133" r="4"/><circle cx="2340" cy="1126" r="5"/><circle cx="2477" cy="1170" r="5"/><circle cx="2560" cy="1143" r="5"/><circle cx="-0" cy="1143" r="5"/><circle cx="4" cy="1225" r="5"/><circle cx="2564" cy="1225" r="5"/><circle cx="147" cy="1215" r="5"/><circle cx="201" cy="1208" r="5"/><circle cx="275" cy="1201" r="5"/><circle cx="392" cy="1266" r="5"/><circle cx="461" cy="1278" r="5"/><circle cx="514" cy="1218" r="5"/><circle cx="591" cy="1230" r="6"/><circle cx="656" cy="1220" r="6"/><circle cx="744" cy="1274" r="5"/><circle cx="849" cy="1268" r="6"/><circle cx="905" cy="1261" r="5"/><circle cx="984" cy="1233" r="4"/><circle cx="1069" cy="1225" r="5"/><circle cx="1161" cy="1256" r="6"/><circle cx="1229" cy="1210" r="4"/><circle cx="1295" cy="1235" r="5"/><circle cx="1408" cy="1264" r="6"/><circle cx="1488" cy="1205" r="5"/><circle cx="1569" cy="1262" r="4"/><circle cx="1647" cy="1270" r="4"/><circle cx="1695" cy="1273" r="5"/><circle cx="1767" cy="1245" r="4"/><circle cx="1868" cy="1208" r="4"/><circle cx="1922" cy="1202" r="5"/><circle cx="2054" cy="1258" r="5"/><circle cx="2083" cy="1246" r="5"/><circle cx="2219" cy="1261" r="6"/><circle cx="2269" cy="1221" r="6"/><circle cx="2396" cy="1240" r="5"/><circle cx="2462" cy="1220" r="4"/><circle cx="2514" cy="1236" r="5"/><circle cx="46" cy="1349" r="4"/><circle cx="101" cy="1330" r="5"/><circle cx="214" cy="1311" r="5"/><circle cx="250" cy="1318" r="5"/><circle cx="329" cy="1331" r="6"/><circle cx="425" cy="1317" r="5"/><circle cx="538" cy="1345" r="6"/><circle cx="639" cy="1339" r="6"/><circle cx="665" cy="1298" r="5"/><circle cx="785" cy="1312" r="5"/><circle cx="857" cy="1360" r="5"/><circle cx="900" cy="1349" r="5"/><circle cx="980" cy="1326" r="4"/><circle cx="1049" cy="1342" r="5"/><circle cx="1152" cy="1312" r="6"/><circle cx="1223" cy="1354" r="6"/><circle cx="1324" cy="1304" r="4"/><circle cx="1406" cy="1310" r="5"/><circle cx="1512" cy="1286" r="6"/><circle cx="1562" cy="1299" r="5"/><circle cx="1662" cy="1293" r="6"/><circle cx="1708" cy="1334" r="5"/><circle cx="1784" cy="1315" r="5"/><circle cx="1868" cy="1344" r="4"/><circle cx="1946" cy="1281" r="6"/><circle cx="2025" cy="1326" r="5"/><circle cx="2114" cy="1323" r="6"/><circle cx="2211" cy="1295" r="6"/><circle cx="2306" cy="1285" r="4"/><circle cx="2376" cy="1347" r="5"/><circle cx="2449" cy="1336" r="4"/><circle cx="2547" cy="1335" r="5"/><circle cx="59" cy="1413" r="4"/><circle cx="101" cy="1425" r="5"/><circle cx="203" cy="1393" r="5"/><circle cx="292" cy="1433" r="6"/><circle cx="334" cy="1388" r="4"/><circle cx="443" cy="1410" r="5"/><circle cx="482" cy="1381" r="4"/><circle cx="605" cy="1364" r="5"/><circle cx="656" cy="1361" r="5"/><circle cx="726" cy="1373" r="6"/><circle cx="873" cy="1392" r="5"/><circle cx="893" cy="1370" r="6"/><circle cx="993" cy="1368" r="5"/><circle cx="1048" cy="1385" r="6"/><circle cx="1121" cy="1414" r="4"/><circle cx="1225" cy="1373" r="6"/><circle cx="1325" cy="1377" r="6"/><circle cx="1387" cy="1410" r="4"/><circle cx="1491" cy="1407" r="4"/><circle cx="1540" cy="1420" r="6"/><circle cx="1676" cy="1400" r="4"/><circle cx="1723" cy="1388" r="5"/><circle cx="1778" cy="1399" r="6"/><circle cx="1903" cy="1364" r="5"/><circle cx="1987" cy="1376" r="5"/><circle cx="2029" cy="1394" r="4"/><circle cx="2126" cy="1439" r="6"/><circle cx="2126" cy="-1" r="6"/><circle cx="2215" cy="1409" r="6"/><circle cx="2254" cy="1376" r="4"/><circle cx="2365" cy="1367" r="6"/><circle cx="2456" cy="1432" r="5"/><circle cx="2534" cy="1387" r="5"/><path stroke="#fff" d="M62 53L149 40M62 53L-25 22M62 53L53 83M62 53L-8 83M62 53L101 -15M2622 53L2535 22M2622 53L2552 83M62 1493L101 1425M149 40L221 6M149 40L244 5M149 40L124 126M149 40L101 -15M149 1480L101 1425M221 6L244 5M221 6L203 -47M221 6L292 -7M221 1446L203 1393M221 1446L292 1433M244 5L335 59M244 5L203 -47M244 5L292 -7M244 1445L203 1393M244 1445L292 1433M335 59L400 126M335 59L407 143M335 59L336 162M335 59L292 -7M335 1499L292 1433M465 57L555 57M465 57L400 126M465 57L407 143M465 57L443 -30M465 1497L443 1410M555 57L569 14M555 57L514 145M555 57L605 126M569 14L482 -59M569 14L605 -76M569 1454L482 1381M569 1454L605 1364M720 76L731 10M720 76L724 160M720 76L731 174M731 10L656 -79M731 10L726 -67M731 1450L656 1361M731 1450L726 1373M863 31L920 9M863 31L862 100M863 31L873 -48M863 1471L873 1392M920 9L1016 59M920 9L948 95M920 9L873 -48M920 9L893 -70M920 1449L873 1392M920 1449L893 1370M1016 59L1093 39M1016 59L948 95M1016 59L1002 106M1016 59L1088 119M1093 39L1088 119M1093 39L1048 -55M1093 39L1121 -26M1093 1479L1048 1385M1093 1479L1121 1414M1196 19L1235 32M1196 19L1209 99M1196 19L1223 -86M1196 19L1121 -26M1196 19L1225 -67M1196 1459L1223 1354M1196 1459L1121 1414M1196 1459L1225 1373M1235 32L1209 99M1235 32L1225 -67M1235 1472L1225 1373M1354 4L1401 24M1354 4L1349 92M1354 4L1396 99M1354 4L1325 -63M1354 4L1387 -30M1354 1444L1325 1377M1354 1444L1387 1410M1401 24L1456 58M1401 24L1349 92M1401 24L1396 99M1401 24L1387 -30M1401 1464L1387 1410M1456 58L1396 99M1456 58L1491 -33M1456 58L1540 -20M1456 1498L1491 1407M1456 1498L1540 1420M1595 39L1644 6M1595 39L1587 85M1595 39L1622 127M1595 39L1540 -20M1595 1479L1540 1420M1644 6L1587 85M1644 6L1689 90M1644 6L1676 -40M1644 6L1723 -52M1644 1446L1676 1400M1644 1446L1723 1388M1750 28L1803 80M1750 28L1689 90M1750 28L1811 89M1750 28L1723 -52M1750 28L1778 -41M1750 1468L1723 1388M1750 1468L1778 1399M1803 80L1892 46M1803 80L1811 89M1803 80L1800 182M1803 80L1841 162M1892 46L1905 87M1892 46L1921 127M1995 44L2060 30M1995 44L2083 31M1995 44L1905 87M1995 44L2051 128M2060 30L2083 31M2060 30L2051 128M2060 30L2029 -46M2060 30L2126 -1M2060 1470L2029 1394M2060 1470L2126 1439M2083 31L2029 -46M2083 31L2126 -1M2083 1471L2029 1394M2083 1471L2126 1439M2207 65L2291 33M2207 65L2126 134M2207 65L2205 143M2207 65L2126 -1M2207 65L2215 -31M2207 1505L2126 1439M2207 1505L2215 1409M2291 33L2378 61M2291 33L2321 119M2291 33L2215 -31M2291 33L2254 -64M2291 1473L2215 1409M2291 1473L2254 1376M2378 61L2458 71M2378 61L2321 119M2378 61L2456 -8M2378 1501L2456 1432M2458 71L2535 22M2458 71L2456 158M2458 71L2552 83M2458 71L2456 -8M2458 1511L2456 1432M2535 22L2552 83M2535 22L2456 -8M2535 22L2534 -53M2535 1462L2456 1432M2535 1462L2534 1387M53 83L124 126M53 83L-8 83M2613 83L2552 83M124 126L203 146M124 126L59 204M203 146L274 146M203 146L191 217M203 146L313 215M203 146L166 265M274 146L313 215M274 146L336 162M400 126L407 143M400 126L336 162M407 143L336 162M407 143L470 211M514 145L470 211M514 145L548 204M514 145L580 173M605 126L658 150M605 126L548 204M605 126L580 173M605 126L679 179M658 150L724 160M658 150L580 173M658 150L679 179M658 150L731 174M724 160L679 179M724 160L731 174M862 100L948 95M862 100L866 193M948 95L1002 106M1002 106L1088 119M1002 106L972 196M1002 106L1098 170M1088 119L1121 154M1088 119L1098 170M1121 154L1209 99M1121 154L1098 170M1121 154L1163 200M1121 154L1079 253M1209 99L1163 200M1349 92L1396 99M1349 92L1319 179M1349 92L1399 165M1396 99L1399 165M1516 146L1513 221M1516 146L1595 182M1587 85L1622 127M1587 85L1595 182M1587 85L1637 174M1622 127L1689 90M1622 127L1595 182M1622 127L1637 174M1689 90L1637 174M1689 90L1690 195M1811 89L1905 87M1811 89L1800 182M1811 89L1841 162M1905 87L1921 127M1905 87L1954 181M1921 127L1841 162M1921 127L1954 181M1921 127L2022 165M2051 128L2126 134M2051 128L1954 181M2051 128L2022 165M2126 134L2205 143M2126 134L2022 165M2126 134L2117 231M2205 143L2265 152M2205 143L2233 228M2205 143L2278 202M2265 152L2321 119M2265 152L2233 228M2265 152L2278 202M2321 119L2278 202M2456 158L2420 234M2456 158L2528 236M2456 158L2483 260M59 204L113 224M59 204L-32 236M59 204L48 285M59 204L80 290M2619 204L2528 236M113 224L191 217M113 224L48 285M113 224L80 290M113 224L166 265M191 217L166 265M191 217L281 269M313 215L336 162M313 215L281 269M313 215L357 266M470 211L548 204M470 211L498 282M548 204L580 173M548 204L498 282M580 173L679 179M679 179L731 174M866 193L944 230M866 193L972 196M866 193L782 290M944 230L972 196M944 230L942 296M944 230L1008 266M972 196L942 296M972 196L1008 266M1098 170L1163 200M1098 170L1079 253M1163 200L1206 237M1206 237L1200 311M1206 237L1229 284M1206 237L1290 306M1206 237L1126 333M1319 179L1399 165M1399 165L1415 277M1513 221L1595 182M1513 221L1415 277M1513 221L1476 316M1513 221L1543 282M1595 182L1637 174M1637 174L1690 195M1690 195L1800 182M1800 182L1841 162M1800 182L1769 266M1954 181L2022 165M1954 181L1933 267M2022 165L2083 253M2117 231L2083 253M2117 231L2193 312M2233 228L2278 202M2233 228L2325 226M2233 228L2259 296M2278 202L2325 226M2325 226L2420 234M2325 226L2259 296M2325 226L2377 256M2420 234L2377 256M2420 234L2413 304M2420 234L2483 260M2528 236L2608 285M2528 236L2483 260M2528 236L2455 328M-32 236L48 285M48 285L80 290M48 285L21 336M80 290L166 265M80 290L21 336M166 265L281 269M281 269L357 266M281 269L260 378M357 266L403 319M357 266L382 338M403 319L382 338M403 319L467 329M498 282L589 309M498 282L467 329M498 282L547 355M589 309L645 286M589 309L467 329M589 309L547 355M589 309L570 395M645 286L695 368M782 290L802 311M782 290L695 368M782 290L772 374M802 311L772 374M802 311L850 377M942 296L1008 266M942 296L911 357M942 296L999 354M1008 266L1079 253M1008 266L999 354M1079 253L1045 368M1079 253L1126 333M1200 311L1229 284M1200 311L1290 306M1200 311L1126 333M1200 311L1268 362M1229 284L1290 306M1229 284L1268 362M1229 284L1301 354M1290 306L1268 362M1290 306L1301 354M1415 277L1476 316M1415 277L1428 394M1415 277L1449 356M1476 316L1543 282M1476 316L1428 394M1476 316L1449 356M1543 282L1637 320M1543 282L1449 356M1543 282L1588 380M1637 320L1688 317M1637 320L1588 380M1637 320L1651 340M1637 320L1611 407M1688 317L1769 266M1688 317L1651 340M1688 317L1738 366M1769 266L1842 305M1769 266L1834 350M1842 305L1933 267M1842 305L1834 350M1842 305L1876 348M1933 267L2002 290M1933 267L1876 348M2002 290L2083 253M2002 290L1992 394M2002 290L2051 376M2083 253L2131 334M2193 312L2259 296M2193 312L2131 334M2193 312L2189 358M2193 312L2294 329M2259 296L2189 358M2259 296L2294 329M2377 256L2413 304M2377 256L2294 329M2377 256L2455 328M2413 304L2483 260M2413 304L2369 396M2413 304L2455 328M2483 260L2455 328M21 336L91 397M21 336L-30 392M2581 336L2530 392M91 397L-30 392M91 397L47 446M91 397L105 423M91 397L117 482M2651 397L2530 392M237 380L260 378M237 380L220 456M237 380L275 435M260 378L220 456M260 378L275 435M260 378L360 429M382 338L467 329M382 338L360 429M467 329L547 355M547 355L570 395M547 355L530 437M570 395L530 437M570 395L648 427M695 368L772 374M695 368L648 427M772 374L850 377M772 374L752 465M850 377L911 357M850 377L838 438M850 377L893 477M911 357L999 354M911 357L838 438M999 354L1045 368M1045 368L1126 333M1045 368L969 474M1045 368L1095 478M1126 333L1192 439M1268 362L1301 354M1268 362L1270 421M1301 354L1270 421M1301 354L1321 462M1428 394L1449 356M1428 394L1362 472M1428 394L1494 454M1449 356L1494 454M1588 380L1651 340M1588 380L1530 453M1588 380L1611 407M1651 340L1738 366M1651 340L1611 407M1738 366L1834 350M1738 366L1709 457M1738 366L1774 452M1834 350L1876 348M1834 350L1859 441M1876 348L1859 441M1876 348L1976 415M1992 394L2051 376M1992 394L1976 415M1992 394L2066 427M2051 376L2131 334M2051 376L1976 415M2051 376L2066 427M2131 334L2189 358M2131 334L2152 433M2189 358L2152 433M2189 358L2227 412M2294 329L2369 396M2294 329L2227 412M2369 396L2340 463M2369 396L2430 434M2369 396L2332 499M2455 328L2530 392M2530 392L2607 446M2530 392L2497 459M-30 392L47 446M47 446L105 423M47 446L58 545M47 446L117 482M105 423L117 482M105 423L181 512M220 456L275 435M220 456L181 512M220 456L292 514M275 435L360 429M275 435L292 514M360 429L419 448M419 448L530 437M419 448L466 523M419 448L395 565M530 437L585 478M530 437L522 503M585 478L648 427M585 478L522 503M585 478L583 536M585 478L655 496M648 427L655 496M752 465L838 438M752 465L655 496M752 465L758 499M752 465L824 503M838 438L893 477M838 438L824 503M893 477L969 474M893 477L824 503M893 477L946 523M969 474L946 523M969 474L1012 553M1095 478L1192 439M1095 478L1073 540M1095 478L1139 506M1095 478L1085 574M1192 439L1270 421M1192 439L1139 506M1270 421L1321 462M1321 462L1362 472M1321 462L1278 545M1321 462L1312 522M1362 472L1312 522M1362 472L1418 550M1494 454L1530 453M1494 454L1500 516M1494 454L1536 520M1530 453L1611 407M1530 453L1500 516M1530 453L1536 520M1709 457L1774 452M1709 457L1675 522M1709 457L1707 510M1709 457L1786 488M1774 452L1859 441M1774 452L1707 510M1774 452L1786 488M1859 441L1786 488M1859 441L1883 481M1976 415L2066 427M1976 415L1883 481M2066 427L2152 433M2152 433L2227 412M2152 433L2155 490M2227 412L2257 464M2257 464L2340 463M2257 464L2155 490M2257 464L2313 532M2257 464L2332 499M2340 463L2430 434M2340 463L2313 532M2340 463L2332 499M2430 434L2497 459M2497 459L2556 545M58 545L117 482M58 545L-4 545M58 545L29 630M58 545L125 580M2618 545L2556 545M117 482L181 512M181 512L125 580M181 512L238 579M292 514L358 546M292 514L238 579M358 546L395 565M466 523L522 503M466 523L395 565M466 523L480 600M522 503L583 536M522 503L480 600M583 536L655 496M583 536L587 636M655 496L682 569M758 499L824 503M758 499L682 569M758 499L761 563M824 503L761 563M946 523L1012 553M946 523L922 603M946 523L993 595M1012 553L1073 540M1012 553L993 595M1012 553L1085 574M1073 540L1139 506M1073 540L993 595M1073 540L1085 574M1139 506L1085 574M1139 506L1167 599M1278 545L1312 522M1278 545L1293 561M1278 545L1386 583M1312 522L1293 561M1312 522L1386 583M1418 550L1500 516M1418 550L1386 583M1418 550L1515 584M1418 550L1369 656M1500 516L1536 520M1500 516L1515 584M1536 520L1515 584M1675 522L1707 510M1675 522L1648 602M1707 510L1786 488M1707 510L1648 602M1786 488L1819 564M1883 481L1949 546M1883 481L1819 564M1949 546L1879 614M1949 546L1997 622M1949 546L2044 598M2073 550L2155 490M2073 550L2044 598M2073 550L2130 571M2073 550L2168 598M2155 490L2214 556M2155 490L2130 571M2214 556L2313 532M2214 556L2130 571M2214 556L2168 598M2313 532L2332 499M2313 532L2308 618M2332 499L2425 559M2425 559L2398 615M2425 559L2456 568M2425 559L2483 571M2556 545L2589 630M2556 545L2483 571M-4 545L29 630M29 630L36 706M29 630L-61 646M2589 630L2499 646M125 580L124 672M238 579L252 615M252 615L225 705M252 615L287 674M395 565L448 633M395 565L480 600M448 633L480 600M448 633L384 704M448 633L453 704M480 600L538 661M587 636L538 661M587 636L621 685M587 636L585 744M682 569L761 563M682 569L718 646M761 563L807 606M761 563L718 646M807 606L922 603M807 606L718 646M807 606L781 714M807 606L832 677M922 603L993 595M922 603L910 691M1085 574L1167 599M1167 599L1242 635M1167 599L1190 644M1167 599L1229 652M1242 635L1293 561M1242 635L1190 644M1242 635L1229 652M1242 635L1281 715M1293 561L1386 583M1293 561L1369 656M1386 583L1369 656M1515 584L1542 628M1542 628L1648 602M1542 628L1516 710M1542 628L1564 682M1542 628L1615 672M1648 602L1730 640M1648 602L1615 672M1730 640L1819 564M1730 640L1688 707M1819 564L1879 614M1819 564L1839 657M1879 614L1839 657M1879 614L1917 659M1879 614L1932 666M1997 622L2044 598M1997 622L1917 659M1997 622L1932 666M1997 622L2064 652M2044 598L2130 571M2044 598L2064 652M2130 571L2168 598M2308 618L2266 691M2398 615L2456 568M2398 615L2365 696M2398 615L2438 668M2456 568L2483 571M2456 568L2499 646M2483 571L2499 646M36 706L124 672M36 706L-61 646M36 706L36 744M36 706L118 750M2596 706L2499 646M124 672L225 705M124 672L118 750M225 705L287 674M225 705L180 770M225 705L242 771M287 674L384 704M384 704L453 704M384 704L325 782M384 704L416 775M453 704L538 661M453 704L416 775M453 704L548 756M538 661L621 685M538 661L548 756M621 685L548 756M621 685L585 744M621 685L679 722M718 646L679 722M781 714L832 677M781 714L679 722M781 714L762 768M781 714L827 796M832 677L910 691M910 691L993 700M993 700L1097 702M993 700L957 789M993 700L990 784M993 700L1045 769M1097 702L1190 644M1097 702L1045 769M1190 644L1229 652M1229 652L1281 715M1281 715L1235 780M1281 715L1343 770M1281 715L1291 800M1369 656L1367 784M1516 710L1564 682M1516 710L1488 732M1516 710L1587 739M1516 710L1612 735M1564 682L1615 672M1564 682L1587 739M1564 682L1612 735M1615 672L1587 739M1615 672L1612 735M1688 707L1612 735M1688 707L1717 765M1839 657L1917 659M1839 657L1932 666M1839 657L1816 752M1917 659L1932 666M1917 659L1902 772M1932 666L1965 751M2064 652L2122 704M2064 652L2060 749M2122 704L2175 709M2122 704L2060 749M2122 704L2115 743M2175 709L2266 691M2175 709L2115 743M2175 709L2218 747M2175 709L2276 725M2266 691L2365 696M2266 691L2218 747M2266 691L2276 725M2365 696L2438 668M2365 696L2394 742M2365 696L2407 722M2438 668L2499 646M2438 668L2394 742M2438 668L2407 722M36 744L118 750M36 744L-66 742M36 744L75 801M2596 744L2494 742M118 750L180 770M118 750L75 801M180 770L242 771M180 770L153 871M180 770L223 857M242 771L325 782M242 771L223 857M325 782L416 775M325 782L307 849M325 782L326 872M416 775L458 809M548 756L585 744M548 756L527 838M585 744L679 722M585 744L527 838M679 722L762 768M762 768L827 796M762 768L785 850M762 768L807 845M827 796L785 850M827 796L807 845M827 796L883 832M957 789L990 784M957 789L1045 769M957 789L883 832M957 789L973 862M990 784L1045 769M990 784L973 862M1045 769L1094 844M1178 785L1235 780M1178 785L1140 801M1178 785L1242 812M1178 785L1188 880M1178 785L1203 881M1235 780L1140 801M1235 780L1242 812M1235 780L1291 800M1343 770L1367 784M1343 770L1291 800M1343 770L1421 807M1367 784L1291 800M1367 784L1421 807M1367 784L1352 886M1488 732L1587 739M1488 732L1421 807M1488 732L1491 829M1587 739L1612 735M1717 765L1816 752M1717 765L1645 850M1717 765L1740 803M1816 752L1902 772M1816 752L1740 803M1816 752L1880 829M1902 772L1965 751M1902 772L1880 829M1965 751L2060 749M2060 749L2115 743M2060 749L2067 839M2115 743L2067 839M2218 747L2276 725M2218 747L2200 834M2218 747L2248 803M2276 725L2248 803M2394 742L2407 722M2394 742L2494 742M2394 742L2452 838M2407 722L2494 742M2494 742L2452 838M2494 742L2481 833M75 801L153 871M75 801L129 890M153 871L223 857M153 871L70 899M153 871L129 890M223 857L307 849M223 857L129 890M307 849L326 872M307 849L302 936M307 849L358 945M326 872L302 936M326 872L358 945M458 809L527 838M527 838L594 873M527 838L547 902M594 873L667 850M594 873L547 902M594 873L613 952M594 873L649 938M667 850L649 938M785 850L807 845M785 850L787 922M785 850L825 909M807 845L883 832M807 845L825 909M883 832L973 862M883 832L934 905M973 862L934 905M973 862L969 946M1094 844L1140 801M1094 844L1086 889M1094 844L1203 881M1140 801L1188 880M1242 812L1291 800M1242 812L1188 880M1242 812L1203 881M1421 807L1491 829M1421 807L1352 886M1491 829L1561 824M1491 829L1522 952M1561 824L1645 850M1645 850L1740 803M1645 850L1671 917M1645 850L1739 902M1740 803L1801 871M1801 871L1880 829M1801 871L1739 902M1801 871L1814 924M1880 829L1980 868M1880 829L1897 912M1980 868L2067 839M1980 868L1897 912M1980 868L1959 925M1980 868L2056 933M2067 839L2056 933M2067 839L2129 890M2160 871L2200 834M2160 871L2129 890M2160 871L2185 908M2160 871L2245 942M2200 834L2248 803M2200 834L2185 908M2248 803L2349 860M2349 860L2452 838M2349 860L2384 939M2452 838L2481 833M2481 833L2520 932M70 899L129 890M70 899L-40 932M70 899L55 989M70 899L91 992M2630 899L2520 932M129 890L91 992M230 959L302 936M230 959L176 1001M230 959L260 1025M302 936L358 945M302 936L337 993M358 945L442 937M358 945L337 993M442 937L547 902M442 937L337 993M442 937L447 1023M442 937L511 1034M547 902L613 952M613 952L649 938M613 952L629 1012M649 938L629 1012M649 938L709 985M787 922L825 909M787 922L770 1023M934 905L969 946M934 905L925 997M934 905L973 981M969 946L925 997M969 946L973 981M969 946L1062 980M1086 889L1188 880M1086 889L1203 881M1086 889L1062 980M1188 880L1203 881M1352 886L1416 952M1416 952L1471 958M1416 952L1432 1036M1416 952L1445 1004M1416 952L1378 1047M1471 958L1522 952M1471 958L1432 1036M1471 958L1445 1004M1471 958L1569 1003M1522 952L1445 1004M1522 952L1569 1003M1671 917L1739 902M1739 902L1814 924M1739 902L1801 980M1814 924L1897 912M1814 924L1801 980M1897 912L1959 925M1897 912L1915 988M1959 925L1915 988M1959 925L1942 1001M1959 925L2010 978M2056 933L2129 890M2056 933L2010 978M2056 933L2115 967M2129 890L2185 908M2129 890L2115 967M2185 908L2245 942M2185 908L2115 967M2245 942L2173 1027M2245 942L2298 992M2384 939L2466 959M2384 939L2298 992M2466 959L2520 932M2466 959L2433 1034M2466 959L2507 1039M2466 959L2526 1048M2520 932L2615 989M2520 932L2507 1039M-40 932L55 989M55 989L91 992M55 989L87 1087M55 989L-34 1048M2615 989L2526 1048M91 992L176 1001M91 992L87 1087M176 1001L260 1025M260 1025L337 993M260 1025L196 1115M447 1023L511 1034M447 1023L396 1074M447 1023L454 1098M511 1034L454 1098M511 1034L517 1110M629 1012L709 985M629 1012L623 1106M629 1012L647 1047M709 985L770 1023M709 985L647 1047M709 985L733 1077M770 1023L828 1040M770 1023L733 1077M770 1023L833 1091M828 1040L833 1091M828 1040L899 1063M828 1040L801 1145M925 997L973 981M925 997L899 1063M925 997L972 1057M973 981L1062 980M973 981L972 1057M1062 980L1134 1035M1062 980L1046 1084M1134 1035L1235 1035M1134 1035L1046 1084M1134 1035L1161 1053M1235 1035L1286 1025M1235 1035L1161 1053M1235 1035L1253 1068M1235 1035L1298 1118M1286 1025L1253 1068M1286 1025L1298 1118M1286 1025L1378 1047M1432 1036L1445 1004M1432 1036L1378 1047M1432 1036L1457 1106M1445 1004L1378 1047M1569 1003L1670 1030M1569 1003L1581 1083M1670 1030L1700 1031M1670 1030L1581 1083M1670 1030L1647 1111M1670 1030L1681 1059M1700 1031L1801 980M1700 1031L1681 1059M1700 1031L1781 1105M1915 988L1942 1001M1915 988L1949 1051M1942 1001L2010 978M1942 1001L1949 1051M1942 1001L2012 1048M2010 978L1949 1051M2010 978L2012 1048M2115 967L2173 1027M2115 967L2153 1071M2173 1027L2153 1071M2173 1027L2237 1056M2298 992L2346 1032M2298 992L2237 1056M2346 1032L2433 1034M2346 1032L2335 1094M2346 1032L2402 1099M2346 1032L2340 1126M2433 1034L2507 1039M2433 1034L2402 1099M2433 1034L2526 1048M2507 1039L2526 1048M50 1120L87 1087M50 1120L22 1164M50 1120L133 1185M50 1120L-0 1143M2610 1120L2560 1143M87 1087L22 1164M196 1115L133 1185M196 1115L203 1128M196 1115L254 1164M313 1119L396 1074M313 1119L254 1164M313 1119L344 1167M313 1119L275 1201M396 1074L454 1098M396 1074L344 1167M396 1074L440 1144M454 1098L517 1110M454 1098L440 1144M517 1110L440 1144M517 1110L523 1152M517 1110L568 1181M623 1106L647 1047M623 1106L568 1181M623 1106L652 1139M647 1047L733 1077M647 1047L652 1139M733 1077L652 1139M733 1077L801 1145M833 1091L899 1063M833 1091L801 1145M833 1091L896 1144M899 1063L972 1057M899 1063L896 1144M972 1057L1046 1084M972 1057L960 1155M1046 1084L1077 1154M1161 1053L1151 1145M1253 1068L1298 1118M1253 1068L1248 1153M1253 1068L1304 1138M1298 1118L1248 1153M1298 1118L1304 1138M1378 1047L1457 1106M1457 1106L1400 1145M1457 1106L1484 1182M1457 1106L1488 1205M1581 1083L1647 1111M1581 1083L1578 1155M1581 1083L1630 1165M1647 1111L1681 1059M1647 1111L1630 1165M1647 1111L1693 1176M1681 1059L1781 1105M1781 1105L1781 1133M1905 1095L1949 1051M1905 1095L2012 1048M1905 1095L1872 1161M1905 1095L1939 1191M1905 1095L1922 1202M1949 1051L2012 1048M2153 1071L2237 1056M2153 1071L2243 1096M2153 1071L2194 1156M2237 1056L2243 1096M2237 1056L2252 1133M2243 1096L2335 1094M2243 1096L2194 1156M2243 1096L2252 1133M2335 1094L2402 1099M2335 1094L2340 1126M2402 1099L2340 1126M2402 1099L2477 1170M22 1164L-0 1143M22 1164L4 1225M22 1164L-46 1236M2582 1164L2560 1143M2582 1164L2514 1236M133 1185L203 1128M133 1185L147 1215M133 1185L201 1208M203 1128L254 1164M203 1128L147 1215M203 1128L201 1208M254 1164L201 1208M254 1164L275 1201M344 1167L440 1144M344 1167L275 1201M344 1167L392 1266M440 1144L523 1152M523 1152L568 1181M523 1152L514 1218M568 1181L514 1218M568 1181L591 1230M652 1139L591 1230M652 1139L656 1220M777 1194L801 1145M777 1194L744 1274M777 1194L849 1268M801 1145L896 1144M896 1144L960 1155M960 1155L1077 1154M960 1155L984 1233M1077 1154L1151 1145M1077 1154L1069 1225M1151 1145L1161 1256M1151 1145L1229 1210M1248 1153L1304 1138M1248 1153L1229 1210M1248 1153L1295 1235M1304 1138L1400 1145M1304 1138L1295 1235M1400 1145L1484 1182M1400 1145L1488 1205M1484 1182L1488 1205M1578 1155L1630 1165M1578 1155L1569 1262M1630 1165L1693 1176M1693 1176L1781 1133M1693 1176L1767 1245M1781 1133L1872 1161M1781 1133L1868 1208M1872 1161L1939 1191M1872 1161L1868 1208M1872 1161L1922 1202M1939 1191L1868 1208M1939 1191L1922 1202M1939 1191L1946 1281M2064 1180L2087 1186M2064 1180L2054 1258M2064 1180L2083 1246M2087 1186L2054 1258M2087 1186L2083 1246M2194 1156L2252 1133M2194 1156L2219 1261M2194 1156L2269 1221M2252 1133L2340 1126M2252 1133L2269 1221M2477 1170L2560 1143M2477 1170L2564 1225M2477 1170L2462 1220M2477 1170L2514 1236M-83 1170L4 1225M2560 1143L2564 1225M-0 1143L4 1225M4 1225L-46 1236M4 1225L-13 1335M2564 1225L2514 1236M2564 1225L2547 1335M147 1215L201 1208M147 1215L214 1311M201 1208L275 1201M392 1266L461 1278M392 1266L329 1331M392 1266L425 1317M461 1278L514 1218M461 1278L425 1317M461 1278L538 1345M461 1278L482 1381M514 1218L591 1230M591 1230L656 1220M656 1220L665 1298M744 1274L665 1298M744 1274L785 1312M849 1268L905 1261M849 1268L785 1312M849 1268L857 1360M905 1261L984 1233M905 1261L900 1349M984 1233L1069 1225M1069 1225L1161 1256M1161 1256L1229 1210M1161 1256L1152 1312M1161 1256L1223 1354M1229 1210L1295 1235M1295 1235L1408 1264M1295 1235L1324 1304M1408 1264L1488 1205M1408 1264L1324 1304M1408 1264L1406 1310M1408 1264L1512 1286M1488 1205L1512 1286M1569 1262L1647 1270M1569 1262L1512 1286M1569 1262L1562 1299M1569 1262L1662 1293M1647 1270L1695 1273M1647 1270L1562 1299M1647 1270L1662 1293M1695 1273L1767 1245M1695 1273L1662 1293M1695 1273L1708 1334M1695 1273L1784 1315M1767 1245L1784 1315M1868 1208L1922 1202M1922 1202L1946 1281M2054 1258L2083 1246M2054 1258L2025 1326M2054 1258L2114 1323M2083 1246L2114 1323M2219 1261L2269 1221M2219 1261L2211 1295M2219 1261L2306 1285M2269 1221L2211 1295M2269 1221L2306 1285M2396 1240L2462 1220M2396 1240L2306 1285M2396 1240L2376 1347M2462 1220L2514 1236M2514 1236L2547 1335M46 1349L101 1330M46 1349L-13 1335M46 1349L59 1413M46 1349L101 1425M46 1349L-26 1387M2606 1349L2547 1335M2606 1349L2534 1387M101 1330L214 1311M101 1330L59 1413M101 1330L101 1425M214 1311L250 1318M214 1311L203 1393M250 1318L329 1331M250 1318L203 1393M250 1318L334 1388M329 1331L425 1317M329 1331L334 1388M425 1317L443 1410M425 1317L482 1381M538 1345L639 1339M538 1345L443 1410M538 1345L482 1381M538 1345L605 1364M639 1339L665 1298M639 1339L605 1364M639 1339L656 1361M639 1339L726 1373M665 1298L656 1361M665 1298L726 1373M785 1312L857 1360M785 1312L726 1373M857 1360L900 1349M857 1360L873 1392M857 1360L893 1370M900 1349L980 1326M900 1349L873 1392M900 1349L893 1370M980 1326L1049 1342M980 1326L993 1368M980 1326L1048 1385M1049 1342L1152 1312M1049 1342L993 1368M1049 1342L1048 1385M1152 1312L1223 1354M1152 1312L1121 1414M1152 1312L1225 1373M1223 1354L1225 1373M1223 1354L1325 1377M1324 1304L1406 1310M1324 1304L1325 1377M1406 1310L1512 1286M1406 1310L1387 1410M1512 1286L1562 1299M1562 1299L1662 1293M1562 1299L1540 1420M1662 1293L1708 1334M1708 1334L1784 1315M1708 1334L1676 1400M1708 1334L1723 1388M1784 1315L1868 1344M1784 1315L1778 1399M1868 1344L1778 1399M1868 1344L1903 1364M1868 1344L1987 1376M1946 1281L2025 1326M1946 1281L1903 1364M1946 1281L1987 1376M2025 1326L2114 1323M2025 1326L1987 1376M2025 1326L2029 1394M2114 1323L2211 1295M2114 1323L2126 1439M2211 1295L2215 1409M2211 1295L2254 1376M2306 1285L2376 1347M2306 1285L2365 1367M2376 1347L2449 1336M2376 1347L2365 1367M2449 1336L2547 1335M2449 1336L2365 1367M2449 1336L2456 1432M2547 1335L2534 1387M59 1413L101 1425M59 1413L-26 1387M2619 1413L2534 1387M203 1393L292 1433M292 1433L334 1388M334 1388L443 1410M443 1410L482 1381M605 1364L656 1361M656 1361L726 1373M873 1392L893 1370M893 1370L993 1368M993 1368L1048 1385M1048 1385L1121 1414M1225 1373L1325 1377M1325 1377L1387 1410M1387 1410L1491 1407M1491 1407L1540 1420M1676 1400L1723 1388M1676 1400L1778 1399M1723 1388L1778 1399M1903 1364L1987 1376M1987 1376L2029 1394M2126 1439L2215 1409M2215 1409L2254 1376M2254 1376L2365 1367M2456 1432L2534 1387"/></svg>