<svg xmlns="http://www.w3.org/2000/svg" width="2560" height="1440" fill="#fff"><circle cx="69" cy="63" r="5"/><circle cx="108" cy="4" r="5"/><circle cx="108" cy="1444" r="5"/><circle cx="199" cy="63" r="4"/><circle cx="306" cy="35" r="5"/><circle cx="356" cy="30" r="6"/><circle cx="444" cy="1" r="4"/><circle cx="444" cy="1441" r="4"/><circle cx="523" cy="4" r="5"/><circle cx="523" cy="1444" r="5"/><circle cx="591" cy="60" r="4"/><circle cx="658" cy="8" r="5"/><circle cx="773" cy="22" r="5"/><circle cx="869" cy="23" r="5"/><circle cx="883" cy="59" r="4"/><circle cx="961" cy="66" r="5"/><circle cx="1100" cy="22" r="6"/><circle cx="1166" cy="16" r="5"/><circle cx="1262" cy="67" r="4"/><circle cx="1337" cy="30" r="4"/><circle cx="1369" cy="2" r="5"/><circle cx="1369" cy="1442" r="5"/><circle cx="1484" cy="16" r="6"/><circle cx="1587" cy="37" r="6"/><circle cx="1611" cy="66" r="5"/><circle cx="1744" cy="62" r="6"/><circle cx="1824" cy="13" r="5"/><circle cx="1860" cy="15" r="5"/><circle cx="1992" cy="36" r="5"/><circle cx="2020" cy="30" r="5"/><circle cx="2158" cy="14" r="5"/><circle cx="2238" cy="70" r="6"/><circle cx="2312" cy="67" r="5"/><circle cx="2351" cy="66" r="4"/><circle cx="2446" cy="60" r="5"/><circle cx="2523" cy="11" r="4"/><circle cx="16" cy="117" r="5"/><circle cx="124" cy="127" r="6"/><circle cx="238" cy="109" r="5"/><circle cx="302" cy="94" r="4"/><circle cx="396" cy="84" r="4"/><circle cx="441" cy="125" r="4"/><circle cx="505" cy="125" r="5"/><circle cx="637" cy="140" r="5"/><circle cx="652" cy="96" r="5"/><circle cx="768" cy="119" r="5"/><circle cx="836" cy="107" r="6"/><circle cx="881" cy="134" r="6"/><circle cx="1002" cy="95" r="4"/><circle cx="1107" cy="118" r="6"/><circle cx="1129" cy="144" r="4"/><circle cx="1209" cy="126" r="6"/><circle cx="1306" cy="88" r="5"/><circle cx="1413" cy="160" r="6"/><circle cx="1484" cy="101" r="6"/><circle cx="1538" cy="122" r="6"/><circle cx="1677" cy="146" r="5"/><circle cx="1703" cy="117" r="5"/><circle cx="1818" cy="102" r="5"/><circle cx="1864" cy="121" r="4"/><circle cx="1934" cy="147" r="5"/><circle cx="2011" cy="146" r="6"/><circle cx="2103" cy="156" r="5"/><circle cx="2209" cy="146" r="5"/><circle cx="2292" cy="83" r="5"/><circle cx="2338" cy="138" r="4"/><circle cx="2431" cy="108" r="5"/><circle cx="2493" cy="101" r="5"/><circle cx="74" cy="226" r="4"/><circle cx="132" cy="173" r="5"/><circle cx="188" cy="183" r="6"/><circle cx="310" cy="198" r="6"/><circle cx="338" cy="160" r="5"/><circle cx="407" cy="181" r="4"/><circle cx="528" cy="209" r="5"/><circle cx="571" cy="234" r="5"/><circle cx="703" cy="227" r="6"/><circle cx="791" cy="232" r="5"/><circle cx="872" cy="210" r="4"/><circle cx="953" cy="180" r="4"/><circle cx="1029" cy="232" r="5"/><circle cx="1093" cy="184" r="6"/><circle cx="1187" cy="203" r="5"/><circle cx="1217" cy="173" r="6"/><circle cx="1350" cy="221" r="5"/><circle cx="1386" cy="185" r="5"/><circle cx="1447" cy="176" r="5"/><circle cx="1537" cy="197" r="6"/><circle cx="1632" cy="219" r="6"/><circle cx="1713" cy="175" r="5"/><circle cx="1836" cy="183" r="5"/><circle cx="1888" cy="214" r="6"/><circle cx="1980" cy="190" r="5"/><circle cx="2040" cy="215" r="5"/><circle cx="2114" cy="214" r="6"/><circle cx="2188" cy="219" r="5"/><circle cx="2306" cy="187" r="5"/><circle cx="2354" cy="169" r="6"/><circle cx="2421" cy="223" r="4"/><circle cx="2550" cy="221" r="4"/><circle cx="51" cy="285" r="5"/><circle cx="104" cy="297" r="6"/><circle cx="173" cy="284" r="5"/><circle cx="307" cy="316" r="6"/><circle cx="385" cy="293" r="4"/><circle cx="475" cy="310" r="5"/><circle cx="520" cy="248" r="6"/><circle cx="577" cy="301" r="5"/><circle cx="649" cy="304" r="6"/><circle cx="799" cy="288" r="6"/><circle cx="871" cy="264" r="5"/><circle cx="949" cy="267" r="5"/><circle cx="1000" cy="309" r="6"/><circle cx="1102" cy="313" r="5"/><circle cx="1165" cy="309" r="4"/><circle cx="1239" cy="242" r="5"/><circle cx="1329" cy="285" r="6"/><circle cx="1414" cy="286" r="5"/><circle cx="1494" cy="267" r="5"/><circle cx="1570" cy="270" r="6"/><circle cx="1651" cy="286" r="5"/><circle cx="1758" cy="275" r="5"/><circle cx="1828" cy="266" r="5"/><circle cx="1871" cy="291" r="4"/><circle cx="1948" cy="297" r="6"/><circle cx="2053" cy="301" r="4"/><circle cx="2156" cy="314" r="4"/><circle cx="2213" cy="309" r="6"/><circle cx="2298" cy="303" r="6"/><circle cx="2388" cy="293" r="4"/><circle cx="2447" cy="318" r="4"/><circle cx="2514" cy="246" r="5"/><circle cx="25" cy="396" r="6"/><circle cx="137" cy="381" r="5"/><circle cx="178" cy="333" r="5"/><circle cx="302" cy="334" r="6"/><circle cx="373" cy="335" r="4"/><circle cx="458" cy="395" r="4"/><circle cx="526" cy="360" r="4"/><circle cx="610" cy="333" r="5"/><circle cx="696" cy="400" r="6"/><circle cx="792" cy="321" r="5"/><circle cx="864" cy="364" r="5"/><circle cx="895" cy="366" r="5"/><circle cx="966" cy="326" r="6"/><circle cx="1060" cy="378" r="6"/><circle cx="1192" cy="333" r="4"/><circle cx="1276" cy="397" r="5"/><circle cx="1312" cy="380" r="5"/><circle cx="1413" cy="345" r="6"/><circle cx="1486" cy="368" r="5"/><circle cx="1531" cy="389" r="6"/><circle cx="1661" cy="337" r="6"/><circle cx="1733" cy="386" r="5"/><circle cx="1821" cy="327" r="5"/><circle cx="1845" cy="380" r="5"/><circle cx="1938" cy="355" r="5"/><circle cx="2052" cy="356" r="5"/><circle cx="2155" cy="362" r="5"/><circle cx="2198" cy="379" r="6"/><circle cx="2301" cy="397" r="5"/><circle cx="2329" cy="384" r="5"/><circle cx="2443" cy="365" r="6"/><circle cx="2500" cy="386" r="5"/><circle cx="12" cy="405" r="6"/><circle cx="145" cy="433" r="6"/><circle cx="237" cy="423" r="5"/><circle cx="283" cy="442" r="4"/><circle cx="364" cy="409" r="5"/><circle cx="421" cy="451" r="5"/><circle cx="548" cy="419" r="4"/><circle cx="592" cy="454" r="5"/><circle cx="708" cy="423" r="5"/><circle cx="751" cy="403" r="5"/><circle cx="813" cy="461" r="4"/><circle cx="901" cy="468" r="6"/><circle cx="1004" cy="417" r="5"/><circle cx="1076" cy="408" r="5"/><circle cx="1159" cy="443" r="5"/><circle cx="1266" cy="424" r="5"/><circle cx="1325" cy="413" r="5"/><circle cx="1370" cy="421" r="5"/><circle cx="1519" cy="441" r="6"/><circle cx="1558" cy="478" r="5"/><circle cx="1644" cy="434" r="6"/><circle cx="1707" cy="437" r="5"/><circle cx="1761" cy="426" r="5"/><circle cx="1868" cy="427" r="5"/><circle cx="1986" cy="465" r="6"/><circle cx="2065" cy="462" r="5"/><circle cx="2098" cy="427" r="4"/><circle cx="2161" cy="475" r="5"/><circle cx="2310" cy="419" r="5"/><circle cx="2391" cy="465" r="6"/><circle cx="2437" cy="408" r="5"/><circle cx="2515" cy="468" r="4"/><circle cx="38" cy="502" r="5"/><circle cx="112" cy="494" r="5"/><circle cx="196" cy="555" r="4"/><circle cx="247" cy="553" r="4"/><circle cx="357" cy="489" r="6"/><circle cx="410" cy="502" r="6"/><circle cx="510" cy="539" r="5"/><circle cx="635" cy="533" r="5"/><circle cx="698" cy="530" r="4"/><circle cx="766" cy="525" r="5"/><circle cx="823" cy="544" r="6"/><circle cx="899" cy="553" r="4"/><circle cx="1038" cy="517" r="5"/><circle cx="1117" cy="527" r="5"/><circle cx="1165" cy="526" r="6"/><circle cx="1250" cy="535" r="4"/><circle cx="1352" cy="544" r="5"/><circle cx="1432" cy="496" r="5"/><circle cx="1474" cy="512" r="6"/><circle cx="1574" cy="541" r="5"/><circle cx="1657" cy="512" r="5"/><circle cx="1750" cy="556" r="6"/><circle cx="1819" cy="505" r="5"/><circle cx="1901" cy="553" r="6"/><circle cx="1931" cy="482" r="5"/><circle cx="2037" cy="537" r="6"/><circle cx="2147" cy="508" r="5"/><circle cx="2192" cy="484" r="6"/><circle cx="2280" cy="484" r="5"/><circle cx="2395" cy="523" r="6"/><circle cx="2437" cy="505" r="6"/><circle cx="2529" cy="498" r="5"/><circle cx="31" cy="598" r="5"/><circle cx="152" cy="620" r="4"/><circle cx="227" cy="595" r="4"/><circle cx="250" cy="586" r="6"/><circle cx="357" cy="613" r="5"/><circle cx="400" cy="561" r="6"/><circle cx="508" cy="632" r="4"/><circle cx="580" cy="596" r="6"/><circle cx="713" cy="621" r="5"/><circle cx="724" cy="585" r="6"/><circle cx="831" cy="570" r="4"/><circle cx="942" cy="626" r="5"/><circle cx="1033" cy="576" r="5"/><circle cx="1112" cy="579" r="6"/><circle cx="1139" cy="606" r="6"/><circle cx="1278" cy="604" r="5"/><circle cx="1324" cy="611" r="6"/><circle cx="1416" cy="563" r="4"/><circle cx="1486" cy="574" r="4"/><circle cx="1545" cy="634" r="5"/><circle cx="1659" cy="581" r="6"/><circle cx="1715" cy="570" r="6"/><circle cx="1809" cy="638" r="6"/><circle cx="1909" cy="589" r="6"/><circle cx="1926" cy="600" r="5"/><circle cx="2056" cy="576" r="5"/><circle cx="2115" cy="592" r="5"/><circle cx="2229" cy="625" r="4"/><circle cx="2304" cy="636" r="5"/><circle cx="2393" cy="574" r="6"/><circle cx="2405" cy="587" r="5"/><circle cx="2515" cy="624" r="5"/><circle cx="15" cy="696" r="6"/><circle cx="158" cy="713" r="5"/><circle cx="202" cy="654" r="5"/><circle cx="293" cy="693" r="4"/><circle cx="359" cy="649" r="4"/><circle cx="423" cy="667" r="4"/><circle cx="504" cy="715" r="5"/><circle cx="588" cy="647" r="6"/><circle cx="692" cy="704" r="5"/><circle cx="790" cy="699" r="6"/><circle cx="802" cy="668" r="6"/><circle cx="928" cy="702" r="5"/><circle cx="980" cy="655" r="4"/><circle cx="1091" cy="649" r="5"/><circle cx="1123" cy="669" r="6"/><circle cx="1202" cy="648" r="6"/><circle cx="1304" cy="673" r="5"/><circle cx="1362" cy="685" r="5"/><circle cx="1458" cy="701" r="5"/><circle cx="1544" cy="719" r="6"/><circle cx="1632" cy="662" r="5"/><circle cx="1712" cy="681" r="4"/><circle cx="1800" cy="711" r="5"/><circle cx="1863" cy="684" r="4"/><circle cx="1935" cy="720" r="6"/><circle cx="2000" cy="675" r="5"/><circle cx="2114" cy="658" r="4"/><circle cx="2173" cy="677" r="4"/><circle cx="2262" cy="696" r="5"/><circle cx="2342" cy="640" r="6"/><circle cx="2473" cy="701" r="5"/><circle cx="2492" cy="681" r="6"/><circle cx="55" cy="770" r="5"/><circle cx="116" cy="791" r="5"/><circle cx="232" cy="760" r="6"/><circle cx="270" cy="767" r="5"/><circle cx="340" cy="793" r="5"/><circle cx="431" cy="746" r="5"/><circle cx="544" cy="734" r="4"/><circle cx="604" cy="793" r="5"/><circle cx="669" cy="734" r="5"/><circle cx="773" cy="742" r="5"/><circle cx="821" cy="770" r="5"/><circle cx="927" cy="721" r="6"/><circle cx="960" cy="769" r="6"/><circle cx="1083" cy="758" r="5"/><circle cx="1135" cy="733" r="6"/><circle cx="1266" cy="776" r="6"/><circle cx="1358" cy="787" r="5"/><circle cx="1401" cy="786" r="6"/><circle cx="1517" cy="721" r="4"/><circle cx="1530" cy="762" r="4"/><circle cx="1661" cy="761" r="5"/><circle cx="1741" cy="798" r="5"/><circle cx="1802" cy="733" r="5"/><circle cx="1919" cy="732" r="6"/><circle cx="1941" cy="744" r="5"/><circle cx="2050" cy="786" r="6"/><circle cx="2120" cy="737" r="4"/><circle cx="2233" cy="756" r="4"/><circle cx="2319" cy="774" r="4"/><circle cx="2347" cy="764" r="5"/><circle cx="2427" cy="769" r="6"/><circle cx="2528" cy="721" r="5"/><circle cx="56" cy="879" r="5"/><circle cx="119" cy="863" r="5"/><circle cx="190" cy="876" r="5"/><circle cx="294" cy="801" r="6"/><circle cx="398" cy="870" r="5"/><circle cx="467" cy="849" r="4"/><circle cx="557" cy="812" r="4"/><circle cx="571" cy="802" r="6"/><circle cx="679" cy="878" r="4"/><circle cx="758" cy="855" r="5"/><circle cx="863" cy="818" r="5"/><circle cx="911" cy="813" r="5"/><circle cx="1025" cy="826" r="5"/><circle cx="1114" cy="817" r="6"/><circle cx="1143" cy="809" r="4"/><circle cx="1238" cy="826" r="5"/><circle cx="1301" cy="863" r="5"/><circle cx="1432" cy="815" r="5"/><circle cx="1503" cy="878" r="6"/><circle cx="1572" cy="838" r="6"/><circle cx="1649" cy="838" r="6"/><circle cx="1753" cy="852" r="4"/><circle cx="1778" cy="847" r="5"/><circle cx="1911" cy="804" r="5"/><circle cx="1986" cy="840" r="4"/><circle cx="2023" cy="806" r="5"/><circle cx="2156" cy="800" r="5"/><circle cx="2220" cy="824" r="4"/><circle cx="2289" cy="876" r="5"/><circle cx="2332" cy="843" r="4"/><circle cx="2424" cy="866" r="4"/><circle cx="2539" cy="850" r="4"/><circle cx="22" cy="896" r="5"/><circle cx="101" cy="949" r="5"/><circle cx="171" cy="885" r="5"/><circle cx="305" cy="937" r="4"/><circle cx="396" cy="898" r="4"/><circle cx="403" cy="946" r="4"/><circle cx="518" cy="959" r="6"/><circle cx="615" cy="951" r="5"/><circle cx="653" cy="900" r="5"/><circle cx="754" cy="947" r="5"/><circle cx="846" cy="891" r="4"/><circle cx="883" cy="925" r="5"/><circle cx="1014" cy="888" r="5"/><circle cx="1100" cy="940" r="5"/><circle cx="1199" cy="920" r="6"/><circle cx="1231" cy="905" r="5"/><circle cx="1335" cy="949" r="6"/><circle cx="1361" cy="906" r="5"/><circle cx="1477" cy="933" r="5"/><circle cx="1563" cy="911" r="6"/><circle cx="1613" cy="941" r="4"/><circle cx="1717" cy="900" r="5"/><circle cx="1771" cy="926" r="5"/><circle cx="1895" cy="915" r="5"/><circle cx="1939" cy="942" r="6"/><circle cx="2051" cy="951" r="5"/><circle cx="2117" cy="883" r="5"/><circle cx="2169" cy="959" r="5"/><circle cx="2243" cy="884" r="6"/><circle cx="2330" cy="939" r="5"/><circle cx="2460" cy="955" r="5"/><circle cx="2514" cy="920" r="5"/><circle cx="68" cy="985" r="5"/><circle cx="92" cy="967" r="6"/><circle cx="167" cy="966" r="5"/><circle cx="277" cy="965" r="5"/><circle cx="398" cy="1012" r="5"/><circle cx="405" cy="986" r="4"/><circle cx="521" cy="986" r="5"/><circle cx="581" cy="1033" r="6"/><circle cx="646" cy="1024" r="5"/><circle cx="789" cy="1022" r="5"/><circle cx="852" cy="995" r="5"/><circle cx="881" cy="970" r="6"/><circle cx="993" cy="989" r="4"/><circle cx="1091" cy="1009" r="4"/><circle cx="1133" cy="990" r="5"/><circle cx="1233" cy="1019" r="4"/><circle cx="1325" cy="978" r="6"/><circle cx="1389" cy="995" r="5"/><circle cx="1479" cy="998" r="5"/><circle cx="1532" cy="973" r="5"/><circle cx="1607" cy="983" r="6"/><circle cx="1692" cy="1038" r="4"/><circle cx="1785" cy="992" r="5"/><circle cx="1871" cy="977" r="4"/><circle cx="1941" cy="1018" r="4"/><circle cx="2016" cy="1003" r="4"/><circle cx="2099" cy="993" r="4"/><circle cx="2165" cy="1016" r="4"/><circle cx="2252" cy="969" r="5"/><circle cx="2335" cy="1017" r="5"/><circle cx="2421" cy="1021" r="5"/><circle cx="2559" cy="980" r="6"/><circle cx="-1" cy="980" r="6"/><circle cx="65" cy="1098" r="6"/><circle cx="119" cy="1062" r="5"/><circle cx="198" cy="1068" r="6"/><circle cx="258" cy="1069" r="4"/><circle cx="372" cy="1112" r="6"/><circle cx="430" cy="1090" r="5"/><circle cx="511" cy="1063" r="5"/><circle cx="638" cy="1069" r="6"/><circle cx="663" cy="1044" r="5"/><circle cx="727" cy="1083" r="5"/><circle cx="867" cy="1043" r="6"/><circle cx="948" cy="1104" r="5"/><circle cx="1022" cy="1113" r="5"/><circle cx="1084" cy="1115" r="6"/><circle cx="1195" cy="1101" r="4"/><circle cx="1202" cy="1095" r="5"/><circle cx="1350" cy="1046" r="6"/><circle cx="1381" cy="1116" r="5"/><circle cx="1506" cy="1043" r="5"/><circle cx="1540" cy="1089" r="5"/><circle cx="1653" cy="1076" r="5"/><circle cx="1689" cy="1117" r="4"/><circle cx="1779" cy="1056" r="5"/><circle cx="1914" cy="1079" r="4"/><circle cx="1972" cy="1087" r="5"/><circle cx="2065" cy="1055" r="5"/><circle cx="2107" cy="1067" r="4"/><circle cx="2181" cy="1077" r="4"/><circle cx="2247" cy="1098" r="5"/><circle cx="2399" cy="1056" r="5"/><circle cx="2463" cy="1108" r="6"/><circle cx="2493" cy="1059" r="5"/><circle cx="26" cy="1160" r="4"/><circle cx="134" cy="1156" r="5"/><circle cx="181" cy="1166" r="5"/><circle cx="282" cy="1159" r="5"/><circle cx="359" cy="1139" r="4"/><circle cx="465" cy="1152" r="5"/><circle cx="507" cy="1194" r="4"/><circle cx="624" cy="1132" r="5"/><circle cx="680" cy="1197" r="5"/><circle cx="738" cy="1181" r="5"/><circle cx="823" cy="1158" r="5"/><circle cx="904" cy="1197" r="5"/><circle cx="982" cy="1161" r="5"/><circle cx="1067" cy="1199" r="4"/><circle cx="1170" cy="1198" r="4"/><circle cx="1213" cy="1156" r="6"/><circle cx="1359" cy="1166" r="6"/><circle cx="1390" cy="1196" r="6"/><circle cx="1477" cy="1130" r="5"/><circle cx="1549" cy="1151" r="4"/><circle cx="1627" cy="1147" r="5"/><circle cx="1703" cy="1182" r="4"/><circle cx="1761" cy="1140" r="6"/><circle cx="1850" cy="1174" r="6"/><circle cx="1984" cy="1164" r="5"/><circle cx="2005" cy="1129" r="6"/><circle cx="2100" cy="1200" r="6"/><circle cx="2238" cy="1190" r="6"/><circle cx="2284" cy="1198" r="5"/><circle cx="2369" cy="1157" r="6"/><circle cx="2463" cy="1158" r="4"/><circle cx="2553" cy="1191" r="5"/><circle cx="65" cy="1254" r="5"/><circle cx="127" cy="1239" r="5"/><circle cx="170" cy="1252" r="5"/><circle cx="284" cy="1233" r="6"/><circle cx="399" cy="1232" r="4"/><circle cx="469" cy="1249" r="4"/><circle cx="541" cy="1247" r="5"/><circle cx="590" cy="1234" r="6"/><circle cx="665" cy="1275" r="4"/><circle cx="786" cy="1230" r="5"/><circle cx="831" cy="1217" r="6"/><circle cx="933" cy="1262" r="5"/><circle cx="1017" cy="1243" r="5"/><circle cx="1063" cy="1270" r="5"/><circle cx="1154" cy="1213" r="5"/><circle cx="1227" cy="1249" r="6"/><circle cx="1323" cy="1224" r="4"/><circle cx="1361" cy="1269" r="5"/><circle cx="1480" cy="1206" r="5"/><circle cx="1532" cy="1268" r="5"/><circle cx="1659" cy="1214" r="5"/><circle cx="1717" cy="1245" r="5"/><circle cx="1832" cy="1208" r="6"/><circle cx="1871" cy="1225" r="4"/><circle cx="1966" cy="1234" r="5"/><circle cx="2043" cy="1225" r="5"/><circle cx="2141" cy="1265" r="5"/><circle cx="2161" cy="1250" r="4"/><circle cx="2254" cy="1235" r="5"/><circle cx="2383" cy="1254" r="5"/><circle cx="2468" cy="1222" r="5"/><circle cx="2558" cy="1255" r="4"/><circle cx="-2" cy="1255" r="4"/><circle cx="20" cy="1293" r="5"/><circle cx="129" cy="1324" r="5"/><circle cx="217" cy="1356" r="6"/><circle cx="306" cy="1308" r="5"/><circle cx="355" cy="1287" r="5"/><circle cx="419" cy="1313" r="4"/><circle cx="515" cy="1321" r="6"/><circle cx="598" cy="1329" r="5"/><circle cx="660" cy="1320" r="4"/><circle cx="781" cy="1293" r="5"/><circle cx="818" cy="1322" r="5"/><circle cx="916" cy="1291" r="5"/><circle cx="1008" cy="1301" r="6"/><circle cx="1076" cy="1333" r="4"/><circle cx="1161" cy="1282" r="5"/><circle cx="1234" cy="1326" r="6"/><circle cx="1345" cy="1302" r="5"/><circle cx="1423" cy="1316" r="5"/><circle cx="1442" cy="1306" r="6"/><circle cx="1564" cy="1299" r="6"/><circle cx="1647" cy="1319" r="5"/><circle cx="1708" cy="1340" r="6"/><circle cx="1838" cy="1357" r="6"/><circle cx="1852" cy="1319" r="5"/><circle cx="1932" cy="1315" r="4"/><circle cx="2079" cy="1300" r="5"/><circle cx="2139" cy="1331" r="6"/><circle cx="2237" cy="1298" r="6"/><circle cx="2269" cy="1309" r="5"/><circle cx="2340" cy="1313" r="5"/><circle cx="2429" cy="1301" r="6"/><circle cx="2484" cy="1344" r="5"/><circle cx="58" cy="1410" r="5"/><circle cx="130" cy="1386" r="5"/><circle cx="187" cy="1437" r="5"/><circle cx="187" cy="-3" r="5"/><circle cx="291" cy="1370" r="5"/><circle cx="382" cy="1390" r="5"/><circle cx="406" cy="1439" r="6"/><circle cx="406" cy="-1" r="6"/><circle cx="547" cy="1382" r="5"/><circle cx="560" cy="1433" r="5"/><circle cx="645" cy="1435" r="5"/><circle cx="645" cy="-5" r="5"/><circle cx="794" cy="1425" r="4"/><circle cx="825" cy="1363" r="4"/><circle cx="947" cy="1364" r="4"/><circle cx="964" cy="1405" r="5"/><circle cx="1092" cy="1406" r="5"/><circle cx="1196" cy="1396" r="5"/><circle cx="1268" cy="1406" r="5"/><circle cx="1327" cy="1382" r="4"/><circle cx="1399" cy="1399" r="6"/><circle cx="1484" cy="1368" r="4"/><circle cx="1576" cy="1381" r="5"/><circle cx="1626" cy="1385" r="5"/><circle cx="1685" cy="1387" r="5"/><circle cx="1804" cy="1404" r="5"/><circle cx="1913" cy="1396" r="5"/><circle cx="1944" cy="1416" r="5"/><circle cx="2077" cy="1383" r="5"/><circle cx="2152" cy="1438" r="4"/><circle cx="2152" cy="-2" r="4"/><circle cx="2235" cy="1381" r="4"/><circle cx="2312" cy="1394" r="4"/><circle cx="2351" cy="1427" r="5"/><circle cx="2453" cy="1396" r="5"/><circle cx="2556" cy="1367" r="5"/><circle cx="-4" cy="1367" r="5"/><path stroke="#fff" d="M69 63L108 4M69 63L16 117M69 63L124 127M69 63L58 -30M69 1503L58 1410M108 4L58 -30M108 4L130 -54M108 4L187 -3M108 1444L58 1410M108 1444L130 1386M108 1444L187 1437M199 63L124 127M199 63L238 109M199 63L187 -3M199 1503L187 1437M306 35L356 30M306 35L238 109M306 35L302 94M306 35L291 -70M306 35L406 -1M306 1475L291 1370M306 1475L406 1439M356 30L302 94M356 30L396 84M356 30L382 -50M356 30L406 -1M356 1470L382 1390M356 1470L406 1439M444 1L523 4M444 1L382 -50M444 1L406 -1M444 1441L382 1390M444 1441L406 1439M523 4L591 60M523 4L547 -58M523 4L560 -7M523 1444L547 1382M523 1444L560 1433M591 60L658 8M591 60L652 96M591 60L560 -7M591 60L645 -5M591 1500L560 1433M591 1500L645 1435M658 8L773 22M658 8L652 96M658 8L560 -7M658 8L645 -5M658 1448L560 1433M658 1448L645 1435M773 22L869 23M773 22L768 119M773 22L836 107M773 22L794 -15M773 1462L794 1425M869 23L883 59M869 23L961 66M869 23L836 107M869 23L794 -15M869 1463L794 1425M883 59L961 66M883 59L836 107M883 59L881 134M883 59L794 -15M883 1499L794 1425M961 66L881 134M961 66L1002 95M961 66L964 -35M961 1506L964 1405M1100 22L1166 16M1100 22L1002 95M1100 22L1107 118M1100 22L1092 -34M1100 22L1196 -44M1100 1462L1092 1406M1100 1462L1196 1396M1166 16L1092 -34M1166 16L1196 -44M1166 1456L1092 1406M1166 1456L1196 1396M1262 67L1337 30M1262 67L1209 126M1262 67L1306 88M1262 67L1268 -34M1262 1507L1268 1406M1337 30L1369 2M1337 30L1306 88M1337 30L1327 -58M1337 1470L1327 1382M1369 2L1306 88M1369 2L1327 -58M1369 2L1399 -41M1369 1442L1327 1382M1369 1442L1399 1399M1484 16L1587 37M1484 16L1484 101M1484 16L1399 -41M1484 16L1484 -72M1484 1456L1399 1399M1484 1456L1484 1368M1587 37L1611 66M1587 37L1538 122M1587 37L1576 -59M1587 37L1626 -55M1587 1477L1576 1381M1587 1477L1626 1385M1611 66L1538 122M1611 66L1677 146M1611 66L1703 117M1744 62L1824 13M1744 62L1677 146M1744 62L1703 117M1744 62L1818 102M1744 62L1804 -36M1744 1502L1804 1404M1824 13L1860 15M1824 13L1818 102M1824 13L1838 -83M1824 13L1804 -36M1824 1453L1838 1357M1824 1453L1804 1404M1860 15L1838 -83M1860 15L1804 -36M1860 15L1913 -44M1860 15L1944 -24M1860 1455L1838 1357M1860 1455L1804 1404M1860 1455L1913 1396M1860 1455L1944 1416M1992 36L2020 30M1992 36L2011 146M1992 36L1944 -24M1992 1476L1944 1416M2020 30L1944 -24M2020 30L2077 -57M2020 1470L1944 1416M2020 1470L2077 1383M2158 14L2238 70M2158 14L2077 -57M2158 14L2152 -2M2158 14L2235 -59M2158 1454L2077 1383M2158 1454L2152 1438M2158 1454L2235 1381M2238 70L2312 67M2238 70L2209 146M2238 70L2292 83M2238 70L2152 -2M2238 1510L2152 1438M2312 67L2351 66M2312 67L2292 83M2312 67L2338 138M2312 67L2351 -13M2312 1507L2351 1427M2351 66L2292 83M2351 66L2338 138M2351 66L2431 108M2351 66L2351 -13M2351 1506L2351 1427M2446 60L2523 11M2446 60L2431 108M2446 60L2493 101M2446 60L2453 -44M2446 1500L2453 1396M2523 11L2493 101M2523 11L2618 -30M2523 11L2453 -44M2523 11L2556 -73M-37 11L58 -30M-37 1451L58 1410M2523 1451L2618 1410M2523 1451L2453 1396M2523 1451L2556 1367M16 117L124 127M16 117L-67 101M16 117L-10 221M2576 117L2493 101M2576 117L2550 221M124 127L132 173M124 127L188 183M238 109L302 94M238 109L188 183M302 94L310 198M302 94L338 160M396 84L441 125M396 84L338 160M396 84L407 181M396 84L406 -1M396 1524L406 1439M441 125L505 125M441 125L338 160M441 125L407 181M505 125L407 181M505 125L528 209M637 140L652 96M637 140L703 227M652 96L768 119M652 96L645 -5M652 1536L645 1435M768 119L836 107M836 107L881 134M881 134L872 210M881 134L953 180M1002 95L953 180M1107 118L1129 144M1107 118L1209 126M1107 118L1093 184M1107 118L1217 173M1129 144L1209 126M1129 144L1093 184M1129 144L1187 203M1129 144L1217 173M1209 126L1187 203M1209 126L1217 173M1413 160L1484 101M1413 160L1350 221M1413 160L1386 185M1413 160L1447 176M1484 101L1538 122M1484 101L1447 176M1538 122L1447 176M1538 122L1537 197M1677 146L1703 117M1677 146L1632 219M1677 146L1713 175M1703 117L1713 175M1818 102L1864 121M1818 102L1836 183M1864 121L1934 147M1864 121L1836 183M1934 147L2011 146M1934 147L1836 183M1934 147L1888 214M1934 147L1980 190M2011 146L2103 156M2011 146L1980 190M2011 146L2040 215M2103 156L2209 146M2103 156L2040 215M2103 156L2114 214M2103 156L2188 219M2209 146L2188 219M2209 146L2306 187M2292 83L2338 138M2292 83L2354 169M2338 138L2306 187M2338 138L2354 169M2431 108L2493 101M2431 108L2354 169M2431 108L2421 223M74 226L132 173M74 226L-10 221M74 226L51 285M74 226L104 297M2634 226L2550 221M132 173L188 183M132 173L173 284M188 183L310 198M188 183L173 284M310 198L338 160M310 198L407 181M310 198L307 316M338 160L407 181M528 209L571 234M528 209L520 248M571 234L520 248M571 234L577 301M571 234L649 304M571 234L610 333M703 227L791 232M703 227L649 304M703 227L799 288M791 232L872 210M791 232L799 288M791 232L871 264M791 232L792 321M872 210L953 180M872 210L871 264M953 180L1029 232M953 180L949 267M1029 232L1093 184M1029 232L949 267M1029 232L1000 309M1093 184L1187 203M1187 203L1217 173M1187 203L1239 242M1217 173L1239 242M1350 221L1386 185M1350 221L1329 285M1350 221L1414 286M1386 185L1447 176M1447 176L1537 197M1537 197L1632 219M1537 197L1494 267M1537 197L1570 270M1632 219L1713 175M1632 219L1570 270M1632 219L1651 286M1836 183L1888 214M1836 183L1828 266M1888 214L1980 190M1888 214L1828 266M1888 214L1871 291M1980 190L2040 215M1980 190L1948 297M2040 215L2114 214M2040 215L2053 301M2114 214L2188 219M2114 214L2053 301M2114 214L2156 314M2188 219L2156 314M2188 219L2213 309M2306 187L2354 169M2354 169L2421 223M2421 223L2388 293M2421 223L2514 246M2550 221L2611 285M2550 221L2514 246M-10 221L51 285M51 285L104 297M51 285L-46 246M51 285L25 396M2611 285L2514 246M104 297L173 284M104 297L137 381M104 297L178 333M173 284L137 381M173 284L178 333M307 316L385 293M307 316L302 334M307 316L373 335M385 293L475 310M385 293L302 334M385 293L373 335M475 310L520 248M475 310L458 395M475 310L526 360M520 248L577 301M577 301L649 304M577 301L526 360M577 301L610 333M649 304L610 333M649 304L696 400M799 288L871 264M799 288L792 321M799 288L864 364M871 264L949 267M949 267L1000 309M949 267L966 326M1000 309L1102 313M1000 309L966 326M1000 309L1060 378M1102 313L1165 309M1102 313L1060 378M1102 313L1192 333M1102 313L1076 408M1165 309L1239 242M1165 309L1192 333M1239 242L1329 285M1239 242L1192 333M1329 285L1414 286M1329 285L1312 380M1329 285L1413 345M1414 286L1494 267M1414 286L1413 345M1414 286L1486 368M1494 267L1570 270M1494 267L1486 368M1570 270L1651 286M1570 270L1661 337M1651 286L1758 275M1651 286L1661 337M1758 275L1828 266M1758 275L1821 327M1828 266L1871 291M1828 266L1821 327M1871 291L1948 297M1871 291L1821 327M1871 291L1845 380M1948 297L2053 301M1948 297L1938 355M1948 297L2052 356M2053 301L2052 356M2156 314L2213 309M2156 314L2155 362M2156 314L2198 379M2213 309L2298 303M2213 309L2155 362M2213 309L2198 379M2298 303L2388 293M2298 303L2301 397M2298 303L2329 384M2388 293L2447 318M2388 293L2443 365M2447 318L2514 246M2447 318L2443 365M2447 318L2437 408M25 396L137 381M25 396L-60 386M25 396L12 405M25 396L38 502M2585 396L2500 386M137 381L178 333M137 381L145 433M178 333L145 433M178 333L237 423M302 334L373 335M302 334L237 423M302 334L364 409M373 335L364 409M458 395L526 360M458 395L421 451M458 395L548 419M526 360L610 333M526 360L548 419M610 333L696 400M696 400L592 454M696 400L708 423M696 400L751 403M792 321L864 364M792 321L895 366M792 321L751 403M864 364L895 366M864 364L901 468M895 366L966 326M895 366L901 468M895 366L1004 417M966 326L1060 378M966 326L1004 417M1060 378L1004 417M1060 378L1076 408M1192 333L1276 397M1192 333L1159 443M1276 397L1312 380M1276 397L1266 424M1276 397L1325 413M1276 397L1370 421M1312 380L1266 424M1312 380L1325 413M1312 380L1370 421M1413 345L1486 368M1413 345L1325 413M1413 345L1370 421M1486 368L1531 389M1486 368L1519 441M1531 389L1519 441M1531 389L1558 478M1661 337L1733 386M1661 337L1644 434M1661 337L1707 437M1733 386L1821 327M1733 386L1644 434M1733 386L1707 437M1733 386L1761 426M1821 327L1845 380M1845 380L1938 355M1845 380L1761 426M1845 380L1868 427M1938 355L1868 427M1938 355L1986 465M2052 356L2155 362M2052 356L2098 427M2155 362L2198 379M2155 362L2098 427M2198 379L2161 475M2198 379L2192 484M2301 397L2329 384M2301 397L2310 419M2301 397L2280 484M2329 384L2310 419M2329 384L2391 465M2443 365L2500 386M2443 365L2437 408M2500 386L2572 405M2500 386L2437 408M2500 386L2515 468M-60 386L12 405M12 405L-45 468M12 405L38 502M12 405L-31 498M2572 405L2515 468M2572 405L2529 498M145 433L237 423M145 433L112 494M237 423L283 442M283 442L364 409M283 442L357 489M364 409L421 451M364 409L357 489M421 451L357 489M421 451L410 502M548 419L592 454M592 454L708 423M592 454L510 539M592 454L635 533M708 423L751 403M708 423L813 461M708 423L698 530M751 403L813 461M813 461L901 468M813 461L766 525M813 461L823 544M901 468L899 553M1004 417L1076 408M1004 417L1038 517M1076 408L1159 443M1076 408L1038 517M1159 443L1266 424M1159 443L1165 526M1266 424L1325 413M1325 413L1370 421M1370 421L1432 496M1519 441L1558 478M1519 441L1432 496M1519 441L1474 512M1558 478L1644 434M1558 478L1474 512M1558 478L1574 541M1644 434L1707 437M1644 434L1657 512M1707 437L1761 426M1707 437L1657 512M1761 426L1868 427M1761 426L1819 505M1868 427L1819 505M1868 427L1931 482M1986 465L2065 462M1986 465L1901 553M1986 465L1931 482M1986 465L2037 537M2065 462L2098 427M2065 462L2161 475M2065 462L2037 537M2065 462L2147 508M2098 427L2161 475M2098 427L2147 508M2161 475L2147 508M2161 475L2192 484M2310 419L2391 465M2310 419L2280 484M2391 465L2437 408M2391 465L2395 523M2391 465L2437 505M2515 468L2529 498M38 502L112 494M38 502L-31 498M38 502L31 598M2598 502L2529 498M196 555L247 553M196 555L152 620M196 555L227 595M196 555L250 586M247 553L227 595M247 553L250 586M357 489L410 502M357 489L400 561M410 502L510 539M410 502L357 613M410 502L400 561M510 539L400 561M510 539L508 632M510 539L580 596M635 533L698 530M635 533L580 596M635 533L724 585M698 530L766 525M698 530L713 621M698 530L724 585M766 525L823 544M766 525L724 585M766 525L831 570M823 544L899 553M823 544L724 585M823 544L831 570M899 553L831 570M899 553L942 626M1038 517L1117 527M1038 517L1033 576M1117 527L1165 526M1117 527L1033 576M1117 527L1112 579M1165 526L1250 535M1165 526L1112 579M1165 526L1139 606M1250 535L1352 544M1250 535L1278 604M1352 544L1432 496M1352 544L1278 604M1352 544L1324 611M1352 544L1416 563M1432 496L1474 512M1432 496L1416 563M1474 512L1416 563M1474 512L1486 574M1574 541L1657 512M1574 541L1486 574M1574 541L1545 634M1574 541L1659 581M1657 512L1659 581M1657 512L1715 570M1750 556L1819 505M1750 556L1659 581M1750 556L1715 570M1750 556L1809 638M1819 505L1901 553M1901 553L1931 482M1901 553L1909 589M1901 553L1926 600M1931 482L1909 589M2037 537L2056 576M2037 537L2115 592M2147 508L2192 484M2147 508L2115 592M2192 484L2280 484M2395 523L2437 505M2395 523L2393 574M2395 523L2405 587M2437 505L2529 498M2437 505L2393 574M2437 505L2405 587M2529 498L2591 598M-31 498L31 598M31 598L-45 624M31 598L15 696M2591 598L2515 624M152 620L227 595M152 620L250 586M152 620L158 713M152 620L202 654M227 595L250 586M227 595L202 654M250 586L202 654M357 613L400 561M357 613L293 693M357 613L359 649M357 613L423 667M400 561L359 649M508 632L580 596M508 632L423 667M508 632L504 715M508 632L588 647M580 596L588 647M713 621L724 585M713 621L692 704M713 621L790 699M713 621L802 668M831 570L802 668M942 626L1033 576M942 626L928 702M942 626L980 655M942 626L927 721M1033 576L1112 579M1033 576L1091 649M1112 579L1139 606M1112 579L1091 649M1139 606L1091 649M1139 606L1123 669M1139 606L1202 648M1278 604L1324 611M1278 604L1202 648M1278 604L1304 673M1324 611L1416 563M1324 611L1304 673M1324 611L1362 685M1416 563L1486 574M1486 574L1545 634M1545 634L1544 719M1545 634L1632 662M1545 634L1517 721M1659 581L1715 570M1659 581L1632 662M1715 570L1712 681M1809 638L1909 589M1809 638L1800 711M1809 638L1863 684M1809 638L1802 733M1909 589L1926 600M1926 600L2000 675M2056 576L2115 592M2056 576L2114 658M2115 592L2114 658M2115 592L2173 677M2229 625L2304 636M2229 625L2173 677M2229 625L2262 696M2304 636L2393 574M2304 636L2262 696M2304 636L2342 640M2393 574L2405 587M2393 574L2342 640M2405 587L2342 640M2515 624L2575 696M2515 624L2473 701M2515 624L2492 681M2515 624L2528 721M-45 624L15 696M15 696L-68 681M15 696L55 770M15 696L-32 721M2575 696L2492 681M2575 696L2528 721M158 713L202 654M158 713L55 770M158 713L116 791M158 713L232 760M202 654L232 760M293 693L359 649M293 693L232 760M293 693L270 767M293 693L294 801M359 649L423 667M423 667L431 746M504 715L588 647M504 715L431 746M504 715L544 734M504 715L571 802M588 647L544 734M588 647L669 734M692 704L790 699M692 704L669 734M692 704L773 742M790 699L802 668M790 699L773 742M790 699L821 770M802 668L773 742M802 668L821 770M928 702L980 655M928 702L927 721M928 702L960 769M980 655L927 721M1091 649L1123 669M1091 649L1135 733M1123 669L1202 648M1123 669L1083 758M1123 669L1135 733M1202 648L1304 673M1304 673L1362 685M1304 673L1266 776M1362 685L1458 701M1362 685L1358 787M1362 685L1401 786M1458 701L1544 719M1458 701L1401 786M1458 701L1517 721M1458 701L1530 762M1544 719L1632 662M1544 719L1517 721M1544 719L1530 762M1632 662L1712 681M1632 662L1661 761M1712 681L1800 711M1712 681L1661 761M1712 681L1802 733M1800 711L1863 684M1800 711L1802 733M1863 684L1935 720M1863 684L1802 733M1863 684L1919 732M1935 720L2000 675M1935 720L1919 732M1935 720L1941 744M1935 720L1911 804M2000 675L1919 732M2000 675L1941 744M2114 658L2173 677M2114 658L2120 737M2173 677L2262 696M2173 677L2120 737M2262 696L2342 640M2262 696L2233 756M2342 640L2347 764M2473 701L2492 681M2473 701L2427 769M2473 701L2528 721M2492 681L2427 769M2492 681L2528 721M55 770L116 791M55 770L-32 721M2615 770L2528 721M116 791L119 863M232 760L270 767M232 760L294 801M270 767L340 793M270 767L294 801M340 793L431 746M340 793L294 801M340 793L398 870M431 746L467 849M544 734L604 793M544 734L557 812M544 734L571 802M604 793L669 734M604 793L557 812M604 793L571 802M604 793L653 900M669 734L773 742M669 734L571 802M773 742L821 770M821 770L863 818M821 770L911 813M927 721L960 769M927 721L911 813M960 769L863 818M960 769L911 813M960 769L1025 826M1083 758L1135 733M1083 758L1025 826M1083 758L1114 817M1083 758L1143 809M1135 733L1114 817M1135 733L1143 809M1266 776L1358 787M1266 776L1238 826M1266 776L1301 863M1358 787L1401 786M1358 787L1432 815M1401 786L1432 815M1517 721L1530 762M1530 762L1432 815M1530 762L1572 838M1661 761L1741 798M1661 761L1649 838M1741 798L1802 733M1741 798L1649 838M1741 798L1753 852M1741 798L1778 847M1919 732L1941 744M1919 732L1911 804M1941 744L1911 804M1941 744L2023 806M2050 786L2120 737M2050 786L1986 840M2050 786L2023 806M2050 786L2156 800M2050 786L2117 883M2120 737L2156 800M2233 756L2319 774M2233 756L2347 764M2233 756L2156 800M2233 756L2220 824M2319 774L2347 764M2319 774L2332 843M2347 764L2427 769M2347 764L2332 843M2427 769L2424 866M56 879L119 863M56 879L-21 850M56 879L22 896M56 879L101 949M2616 879L2539 850M119 863L190 876M119 863L171 885M190 876L171 885M190 876L167 966M294 801L398 870M398 870L467 849M398 870L396 898M398 870L403 946M467 849L557 812M467 849L396 898M557 812L571 802M679 878L758 855M679 878L653 900M679 878L754 947M758 855L653 900M758 855L754 947M758 855L846 891M863 818L911 813M863 818L846 891M863 818L883 925M911 813L1025 826M1025 826L1114 817M1025 826L1014 888M1114 817L1143 809M1114 817L1014 888M1143 809L1238 826M1238 826L1301 863M1238 826L1199 920M1238 826L1231 905M1301 863L1231 905M1301 863L1335 949M1301 863L1361 906M1432 815L1503 878M1432 815L1361 906M1503 878L1572 838M1503 878L1477 933M1503 878L1563 911M1572 838L1649 838M1572 838L1563 911M1572 838L1613 941M1649 838L1717 900M1753 852L1778 847M1753 852L1717 900M1753 852L1771 926M1778 847L1717 900M1778 847L1771 926M1911 804L1986 840M1911 804L2023 806M1986 840L2023 806M1986 840L1895 915M2156 800L2220 824M2156 800L2117 883M2220 824L2289 876M2220 824L2243 884M2289 876L2332 843M2289 876L2243 884M2289 876L2330 939M2289 876L2252 969M2332 843L2330 939M2424 866L2460 955M2424 866L2514 920M2539 850L2582 896M2539 850L2514 920M-21 850L22 896M22 896L-46 920M22 896L-1 980M2582 896L2514 920M2582 896L2559 980M101 949L171 885M101 949L68 985M101 949L92 967M101 949L167 966M171 885L167 966M305 937L396 898M305 937L403 946M305 937L277 965M396 898L403 946M396 898L405 986M403 946L398 1012M403 946L405 986M518 959L615 951M518 959L405 986M518 959L521 986M518 959L511 1063M615 951L653 900M615 951L521 986M615 951L646 1024M653 900L754 947M754 947L789 1022M754 947L852 995M846 891L883 925M846 891L881 970M883 925L852 995M883 925L881 970M883 925L867 1043M1014 888L1100 940M1014 888L993 989M1100 940L1199 920M1100 940L993 989M1100 940L1091 1009M1100 940L1133 990M1199 920L1231 905M1199 920L1133 990M1199 920L1233 1019M1335 949L1361 906M1335 949L1325 978M1335 949L1389 995M1335 949L1350 1046M1361 906L1325 978M1361 906L1389 995M1477 933L1479 998M1477 933L1532 973M1563 911L1613 941M1563 911L1532 973M1563 911L1607 983M1613 941L1607 983M1717 900L1771 926M1717 900L1785 992M1771 926L1785 992M1771 926L1871 977M1895 915L1939 942M1895 915L1871 977M1939 942L2051 951M1939 942L1871 977M1939 942L1941 1018M1939 942L2016 1003M2051 951L2117 883M2051 951L2016 1003M2051 951L2099 993M2117 883L2169 959M2169 959L2243 884M2169 959L2099 993M2169 959L2165 1016M2169 959L2252 969M2243 884L2330 939M2243 884L2252 969M2330 939L2252 969M2330 939L2335 1017M2460 955L2514 920M2460 955L2421 1021M2460 955L2559 980M2460 955L2493 1059M2514 920L2559 980M68 985L92 967M68 985L167 966M68 985L-1 980M68 985L119 1062M2628 985L2559 980M92 967L167 966M92 967L-1 980M92 967L119 1062M2652 967L2559 980M277 965L258 1069M398 1012L405 986M398 1012L372 1112M398 1012L430 1090M521 986L581 1033M521 986L511 1063M581 1033L646 1024M581 1033L511 1063M581 1033L638 1069M581 1033L663 1044M646 1024L638 1069M646 1024L663 1044M646 1024L727 1083M789 1022L852 995M789 1022L881 970M789 1022L727 1083M789 1022L867 1043M852 995L881 970M852 995L867 1043M881 970L867 1043M993 989L1091 1009M1091 1009L1133 990M1091 1009L1084 1115M1133 990L1233 1019M1233 1019L1325 978M1233 1019L1195 1101M1233 1019L1202 1095M1325 978L1389 995M1325 978L1350 1046M1389 995L1479 998M1389 995L1350 1046M1479 998L1532 973M1479 998L1506 1043M1532 973L1607 983M1532 973L1506 1043M1607 983L1692 1038M1607 983L1653 1076M1692 1038L1785 992M1692 1038L1653 1076M1692 1038L1689 1117M1692 1038L1779 1056M1785 992L1871 977M1785 992L1779 1056M1871 977L1941 1018M1941 1018L2016 1003M1941 1018L1914 1079M1941 1018L1972 1087M2016 1003L2065 1055M2099 993L2165 1016M2099 993L2065 1055M2099 993L2107 1067M2165 1016L2107 1067M2165 1016L2181 1077M2252 969L2335 1017M2335 1017L2421 1021M2335 1017L2247 1098M2335 1017L2399 1056M2421 1021L2399 1056M2421 1021L2463 1108M2421 1021L2493 1059M65 1098L119 1062M65 1098L26 1160M65 1098L134 1156M119 1062L198 1068M119 1062L134 1156M198 1068L258 1069M198 1068L181 1166M258 1069L282 1159M372 1112L430 1090M372 1112L282 1159M372 1112L359 1139M372 1112L465 1152M430 1090L511 1063M430 1090L359 1139M430 1090L465 1152M511 1063L465 1152M638 1069L663 1044M638 1069L727 1083M638 1069L624 1132M663 1044L727 1083M663 1044L624 1132M727 1083L738 1181M867 1043L948 1104M948 1104L1022 1113M948 1104L982 1161M1022 1113L1084 1115M1022 1113L982 1161M1022 1113L1067 1199M1084 1115L982 1161M1084 1115L1067 1199M1195 1101L1202 1095M1195 1101L1170 1198M1195 1101L1213 1156M1202 1095L1213 1156M1350 1046L1381 1116M1350 1046L1359 1166M1381 1116L1359 1166M1381 1116L1390 1196M1381 1116L1477 1130M1381 1116L1323 1224M1506 1043L1540 1089M1506 1043L1477 1130M1506 1043L1549 1151M1540 1089L1653 1076M1540 1089L1477 1130M1540 1089L1549 1151M1653 1076L1689 1117M1653 1076L1627 1147M1689 1117L1627 1147M1689 1117L1703 1182M1689 1117L1761 1140M1779 1056L1761 1140M1914 1079L1972 1087M1914 1079L1850 1174M1972 1087L2065 1055M1972 1087L1984 1164M1972 1087L2005 1129M2065 1055L2107 1067M2065 1055L2005 1129M2107 1067L2181 1077M2181 1077L2247 1098M2247 1098L2238 1190M2247 1098L2284 1198M2399 1056L2463 1108M2399 1056L2493 1059M2399 1056L2369 1157M2463 1108L2493 1059M2463 1108L2369 1157M2463 1108L2463 1158M2493 1059L2463 1158M26 1160L-7 1191M26 1160L-2 1255M2586 1160L2553 1191M2586 1160L2558 1255M134 1156L181 1166M134 1156L127 1239M134 1156L170 1252M181 1166L282 1159M181 1166L127 1239M181 1166L170 1252M282 1159L359 1139M282 1159L284 1233M359 1139L399 1232M465 1152L507 1194M507 1194L469 1249M507 1194L541 1247M507 1194L590 1234M624 1132L680 1197M680 1197L738 1181M680 1197L590 1234M680 1197L665 1275M738 1181L823 1158M738 1181L786 1230M738 1181L831 1217M823 1158L904 1197M823 1158L786 1230M823 1158L831 1217M904 1197L982 1161M904 1197L831 1217M904 1197L933 1262M904 1197L916 1291M982 1161L1017 1243M1067 1199L1017 1243M1067 1199L1063 1270M1067 1199L1154 1213M1170 1198L1213 1156M1170 1198L1154 1213M1170 1198L1227 1249M1170 1198L1161 1282M1213 1156L1154 1213M1213 1156L1227 1249M1359 1166L1390 1196M1359 1166L1323 1224M1390 1196L1323 1224M1390 1196L1361 1269M1390 1196L1480 1206M1477 1130L1549 1151M1477 1130L1480 1206M1549 1151L1627 1147M1549 1151L1480 1206M1627 1147L1703 1182M1627 1147L1659 1214M1703 1182L1761 1140M1703 1182L1659 1214M1703 1182L1717 1245M1761 1140L1850 1174M1761 1140L1832 1208M1850 1174L1832 1208M1850 1174L1871 1225M1850 1174L1966 1234M1984 1164L2005 1129M1984 1164L1966 1234M1984 1164L2043 1225M2005 1129L2100 1200M2005 1129L2043 1225M2100 1200L2043 1225M2100 1200L2141 1265M2100 1200L2161 1250M2100 1200L2079 1300M2238 1190L2284 1198M2238 1190L2254 1235M2284 1198L2369 1157M2284 1198L2254 1235M2369 1157L2463 1158M2369 1157L2383 1254M2463 1158L2553 1191M2463 1158L2468 1222M2553 1191L2625 1254M2553 1191L2468 1222M2553 1191L2558 1255M-7 1191L65 1254M65 1254L127 1239M65 1254L-2 1255M65 1254L20 1293M65 1254L129 1324M2625 1254L2558 1255M127 1239L170 1252M127 1239L129 1324M170 1252L129 1324M284 1233L399 1232M284 1233L306 1308M284 1233L355 1287M399 1232L469 1249M399 1232L355 1287M399 1232L419 1313M469 1249L541 1247M469 1249L419 1313M469 1249L515 1321M541 1247L590 1234M541 1247L515 1321M590 1234L665 1275M590 1234L598 1329M665 1275L598 1329M665 1275L660 1320M665 1275L781 1293M786 1230L831 1217M786 1230L781 1293M786 1230L818 1322M831 1217L781 1293M933 1262L1017 1243M933 1262L916 1291M933 1262L1008 1301M933 1262L947 1364M1017 1243L1063 1270M1017 1243L1008 1301M1063 1270L1008 1301M1063 1270L1076 1333M1063 1270L1161 1282M1154 1213L1227 1249M1154 1213L1161 1282M1227 1249L1161 1282M1227 1249L1234 1326M1323 1224L1361 1269M1323 1224L1345 1302M1361 1269L1345 1302M1361 1269L1423 1316M1361 1269L1442 1306M1480 1206L1532 1268M1532 1268L1564 1299M1659 1214L1717 1245M1717 1245L1832 1208M1717 1245L1708 1340M1832 1208L1871 1225M1871 1225L1966 1234M1871 1225L1852 1319M1871 1225L1932 1315M1966 1234L2043 1225M1966 1234L1932 1315M2043 1225L2079 1300M2141 1265L2161 1250M2141 1265L2079 1300M2141 1265L2139 1331M2161 1250L2254 1235M2161 1250L2139 1331M2161 1250L2237 1298M2254 1235L2237 1298M2254 1235L2269 1309M2383 1254L2468 1222M2383 1254L2340 1313M2383 1254L2429 1301M2468 1222L2558 1255M2468 1222L2429 1301M2558 1255L2580 1293M-2 1255L20 1293M20 1293L-76 1344M20 1293L-4 1367M2580 1293L2484 1344M2580 1293L2556 1367M129 1324L217 1356M129 1324L130 1386M217 1356L306 1308M217 1356L130 1386M217 1356L187 1437M217 1356L291 1370M306 1308L355 1287M306 1308L291 1370M355 1287L419 1313M419 1313L515 1321M419 1313L382 1390M515 1321L598 1329M515 1321L547 1382M598 1329L660 1320M598 1329L547 1382M781 1293L818 1322M781 1293L825 1363M818 1322L916 1291M818 1322L794 1425M818 1322L825 1363M916 1291L1008 1301M916 1291L947 1364M1008 1301L1076 1333M1076 1333L1092 1406M1161 1282L1234 1326M1234 1326L1196 1396M1234 1326L1268 1406M1345 1302L1423 1316M1345 1302L1442 1306M1345 1302L1327 1382M1423 1316L1442 1306M1423 1316L1399 1399M1423 1316L1484 1368M1442 1306L1484 1368M1564 1299L1647 1319M1564 1299L1576 1381M1647 1319L1708 1340M1647 1319L1576 1381M1647 1319L1626 1385M1647 1319L1685 1387M1708 1340L1626 1385M1708 1340L1685 1387M1838 1357L1852 1319M1838 1357L1804 1404M1838 1357L1913 1396M1852 1319L1932 1315M1852 1319L1804 1404M1852 1319L1913 1396M1932 1315L1913 1396M1932 1315L1944 1416M2079 1300L2139 1331M2079 1300L2077 1383M2139 1331L2237 1298M2139 1331L2077 1383M2237 1298L2269 1309M2237 1298L2235 1381M2269 1309L2340 1313M2269 1309L2235 1381M2269 1309L2312 1394M2340 1313L2429 1301M2340 1313L2312 1394M2340 1313L2351 1427M2429 1301L2484 1344M2429 1301L2453 1396M2484 1344L2453 1396M2484 1344L2556 1367M58 1410L130 1386M58 1410L-4 1367M2618 1410L2556 1367M130 1386L187 1437M187 1437L291 1370M291 1370L382 1390M382 1390L406 1439M547 1382L560 1433M547 1382L645 1435M560 1433L645 1435M794 1425L825 1363M947 1364L964 1405M964 1405L1092 1406M1092 1406L1196 1396M1196 1396L1268 1406M1268 1406L1327 1382M1327 1382L1399 1399M1399 1399L1484 1368M1484 1368L1576 1381M1576 1381L1626 1385M1626 1385L1685 1387M1913 1396L1944 1416M2077 1383L2152 1438M2152 1438L2235 1381M2235 1381L2312 1394M2312 1394L2351 1427M2351 1427L2453 1396"/></svg>