<svg xmlns="http://www.w3.org/2000/svg" width="2560" height="1440" fill="#fff"><circle cx="78" cy="61" r="4"/><circle cx="117" cy="63" r="6"/><circle cx="222" cy="78" r="6"/><circle cx="266" cy="68" r="5"/><circle cx="326" cy="46" r="6"/><circle cx="419" cy="66" r="5"/><circle cx="556" cy="50" r="5"/><circle cx="610" cy="1" r="5"/><circle cx="610" cy="1441" r="5"/><circle cx="645" cy="59" r="6"/><circle cx="728" cy="70" r="5"/><circle cx="816" cy="44" r="4"/><circle cx="896" cy="18" r="5"/><circle cx="1005" cy="31" r="5"/><circle cx="1108" cy="3" r="4"/><circle cx="1108" cy="1443" r="4"/><circle cx="1159" cy="11" r="4"/><circle cx="1250" cy="45" r="4"/><circle cx="1333" cy="70" r="4"/><circle cx="1413" cy="69" r="6"/><circle cx="1509" cy="56" r="4"/><circle cx="1566" cy="47" r="6"/><circle cx="1617" cy="7" r="4"/><circle cx="1735" cy="69" r="6"/><circle cx="1760" cy="72" r="6"/><circle cx="1869" cy="19" r="6"/><circle cx="1948" cy="11" r="5"/><circle cx="2009" cy="55" r="5"/><circle cx="2140" cy="2" r="6"/><circle cx="2140" cy="1442" r="6"/><circle cx="2195" cy="57" r="6"/><circle cx="2312" cy="22" r="5"/><circle cx="2334" cy="41" r="5"/><circle cx="2442" cy="22" r="4"/><circle cx="2551" cy="25" r="5"/><circle cx="12" cy="104" r="4"/><circle cx="149" cy="109" r="4"/><circle cx="201" cy="155" r="5"/><circle cx="241" cy="96" r="6"/><circle cx="398" cy="128" r="6"/><circle cx="426" cy="120" r="5"/><circle cx="524" cy="154" r="4"/><circle cx="581" cy="83" r="5"/><circle cx="703" cy="91" r="5"/><circle cx="782" cy="102" r="4"/><circle cx="844" cy="113" r="4"/><circle cx="891" cy="124" r="5"/><circle cx="978" cy="144" r="6"/><circle cx="1104" cy="115" r="4"/><circle cx="1175" cy="131" r="5"/><circle cx="1263" cy="100" r="4"/><circle cx="1300" cy="144" r="5"/><circle cx="1427" cy="141" r="5"/><circle cx="1509" cy="90" r="5"/><circle cx="1522" cy="155" r="5"/><circle cx="1654" cy="98" r="6"/><circle cx="1696" cy="96" r="5"/><circle cx="1772" cy="139" r="4"/><circle cx="1916" cy="99" r="5"/><circle cx="1945" cy="155" r="5"/><circle cx="2076" cy="120" r="6"/><circle cx="2150" cy="124" r="4"/><circle cx="2205" cy="157" r="6"/><circle cx="2275" cy="114" r="5"/><circle cx="2376" cy="147" r="6"/><circle cx="2445" cy="124" r="4"/><circle cx="2552" cy="126" r="5"/><circle cx="44" cy="236" r="4"/><circle cx="127" cy="187" r="5"/><circle cx="217" cy="190" r="6"/><circle cx="283" cy="184" r="5"/><circle cx="329" cy="183" r="4"/><circle cx="465" cy="189" r="4"/><circle cx="525" cy="166" r="4"/><circle cx="583" cy="164" r="6"/><circle cx="649" cy="190" r="5"/><circle cx="775" cy="226" r="5"/><circle cx="813" cy="218" r="4"/><circle cx="941" cy="217" r="4"/><circle cx="1038" cy="206" r="6"/><circle cx="1092" cy="210" r="5"/><circle cx="1196" cy="163" r="5"/><circle cx="1201" cy="162" r="6"/><circle cx="1335" cy="190" r="6"/><circle cx="1402" cy="221" r="6"/><circle cx="1467" cy="173" r="6"/><circle cx="1580" cy="215" r="4"/><circle cx="1638" cy="213" r="5"/><circle cx="1719" cy="225" r="6"/><circle cx="1839" cy="197" r="5"/><circle cx="1866" cy="175" r="6"/><circle cx="1971" cy="224" r="6"/><circle cx="2067" cy="163" r="6"/><circle cx="2086" cy="224" r="5"/><circle cx="2177" cy="239" r="6"/><circle cx="2265" cy="184" r="5"/><circle cx="2340" cy="205" r="6"/><circle cx="2403" cy="165" r="6"/><circle cx="2503" cy="177" r="4"/><circle cx="7" cy="289" r="5"/><circle cx="115" cy="272" r="6"/><circle cx="200" cy="291" r="5"/><circle cx="268" cy="281" r="5"/><circle cx="352" cy="279" r="5"/><circle cx="447" cy="296" r="6"/><circle cx="546" cy="283" r="5"/><circle cx="619" cy="293" r="5"/><circle cx="711" cy="307" r="5"/><circle cx="731" cy="270" r="4"/><circle cx="801" cy="308" r="4"/><circle cx="893" cy="301" r="5"/><circle cx="1030" cy="281" r="4"/><circle cx="1041" cy="307" r="4"/><circle cx="1150" cy="294" r="5"/><circle cx="1255" cy="314" r="5"/><circle cx="1312" cy="318" r="6"/><circle cx="1432" cy="288" r="6"/><circle cx="1511" cy="277" r="5"/><circle cx="1553" cy="256" r="4"/><circle cx="1666" cy="291" r="6"/><circle cx="1745" cy="253" r="4"/><circle cx="1769" cy="299" r="5"/><circle cx="1879" cy="276" r="4"/><circle cx="1987" cy="284" r="4"/><circle cx="2071" cy="287" r="5"/><circle cx="2137" cy="310" r="5"/><circle cx="2205" cy="266" r="5"/><circle cx="2247" cy="311" r="5"/><circle cx="2328" cy="319" r="5"/><circle cx="2474" cy="268" r="6"/><circle cx="2543" cy="313" r="4"/><circle cx="48" cy="364" r="5"/><circle cx="152" cy="360" r="5"/><circle cx="162" cy="373" r="5"/><circle cx="295" cy="378" r="4"/><circle cx="365" cy="359" r="4"/><circle cx="418" cy="363" r="5"/><circle cx="500" cy="321" r="4"/><circle cx="619" cy="330" r="5"/><circle cx="673" cy="365" r="4"/><circle cx="746" cy="332" r="5"/><circle cx="823" cy="346" r="5"/><circle cx="900" cy="373" r="5"/><circle cx="985" cy="377" r="5"/><circle cx="1055" cy="392" r="4"/><circle cx="1169" cy="395" r="5"/><circle cx="1230" cy="349" r="4"/><circle cx="1325" cy="377" r="4"/><circle cx="1432" cy="364" r="6"/><circle cx="1446" cy="391" r="5"/><circle cx="1583" cy="380" r="5"/><circle cx="1611" cy="358" r="5"/><circle cx="1688" cy="346" r="5"/><circle cx="1768" cy="373" r="4"/><circle cx="1848" cy="393" r="5"/><circle cx="1998" cy="329" r="4"/><circle cx="2070" cy="396" r="5"/><circle cx="2143" cy="360" r="5"/><circle cx="2175" cy="331" r="6"/><circle cx="2309" cy="344" r="6"/><circle cx="2355" cy="327" r="5"/><circle cx="2466" cy="337" r="5"/><circle cx="2519" cy="367" r="4"/><circle cx="77" cy="434" r="5"/><circle cx="137" cy="418" r="6"/><circle cx="170" cy="433" r="4"/><circle cx="254" cy="428" r="5"/><circle cx="386" cy="472" r="5"/><circle cx="476" cy="410" r="6"/><circle cx="481" cy="463" r="5"/><circle cx="624" cy="479" r="4"/><circle cx="709" cy="454" r="5"/><circle cx="780" cy="439" r="4"/><circle cx="835" cy="407" r="4"/><circle cx="910" cy="449" r="6"/><circle cx="1023" cy="476" r="4"/><circle cx="1058" cy="470" r="6"/><circle cx="1160" cy="439" r="5"/><circle cx="1275" cy="443" r="6"/><circle cx="1303" cy="459" r="4"/><circle cx="1410" cy="458" r="5"/><circle cx="1473" cy="437" r="6"/><circle cx="1530" cy="408" r="4"/><circle cx="1642" cy="417" r="6"/><circle cx="1691" cy="465" r="5"/><circle cx="1833" cy="429" r="5"/><circle cx="1907" cy="405" r="6"/><circle cx="1968" cy="437" r="4"/><circle cx="2058" cy="452" r="5"/><circle cx="2119" cy="452" r="4"/><circle cx="2175" cy="449" r="6"/><circle cx="2292" cy="415" r="5"/><circle cx="2325" cy="452" r="6"/><circle cx="2414" cy="474" r="6"/><circle cx="2500" cy="435" r="5"/><circle cx="73" cy="493" r="5"/><circle cx="105" cy="518" r="4"/><circle cx="165" cy="504" r="5"/><circle cx="283" cy="539" r="5"/><circle cx="383" cy="551" r="5"/><circle cx="432" cy="548" r="6"/><circle cx="485" cy="512" r="5"/><circle cx="630" cy="488" r="6"/><circle cx="699" cy="511" r="4"/><circle cx="745" cy="538" r="4"/><circle cx="848" cy="485" r="6"/><circle cx="917" cy="533" r="5"/><circle cx="965" cy="480" r="4"/><circle cx="1097" cy="483" r="5"/><circle cx="1131" cy="498" r="5"/><circle cx="1269" cy="502" r="6"/><circle cx="1356" cy="517" r="6"/><circle cx="1415" cy="529" r="5"/><circle cx="1502" cy="482" r="4"/><circle cx="1581" cy="490" r="5"/><circle cx="1624" cy="516" r="4"/><circle cx="1709" cy="501" r="5"/><circle cx="1787" cy="518" r="5"/><circle cx="1895" cy="559" r="4"/><circle cx="1974" cy="513" r="5"/><circle cx="2014" cy="517" r="4"/><circle cx="2091" cy="556" r="4"/><circle cx="2235" cy="518" r="4"/><circle cx="2254" cy="494" r="4"/><circle cx="2330" cy="510" r="5"/><circle cx="2468" cy="535" r="6"/><circle cx="2524" cy="532" r="4"/><circle cx="9" cy="627" r="4"/><circle cx="108" cy="595" r="6"/><circle cx="174" cy="570" r="4"/><circle cx="312" cy="614" r="4"/><circle cx="328" cy="607" r="5"/><circle cx="426" cy="585" r="6"/><circle cx="481" cy="583" r="5"/><circle cx="566" cy="564" r="4"/><circle cx="708" cy="562" r="5"/><circle cx="748" cy="600" r="4"/><circle cx="851" cy="614" r="6"/><circle cx="944" cy="571" r="4"/><circle cx="1021" cy="604" r="6"/><circle cx="1112" cy="631" r="6"/><circle cx="1131" cy="640" r="5"/><circle cx="1252" cy="638" r="6"/><circle cx="1344" cy="568" r="5"/><circle cx="1412" cy="617" r="6"/><circle cx="1457" cy="614" r="5"/><circle cx="1577" cy="637" r="5"/><circle cx="1638" cy="612" r="5"/><circle cx="1730" cy="573" r="4"/><circle cx="1788" cy="580" r="6"/><circle cx="1881" cy="593" r="6"/><circle cx="1943" cy="561" r="5"/><circle cx="2043" cy="578" r="6"/><circle cx="2119" cy="609" r="5"/><circle cx="2238" cy="581" r="5"/><circle cx="2260" cy="585" r="4"/><circle cx="2362" cy="621" r="4"/><circle cx="2413" cy="587" r="5"/><circle cx="2552" cy="640" r="4"/><circle cx="8" cy="656" r="5"/><circle cx="134" cy="644" r="4"/><circle cx="223" cy="666" r="5"/><circle cx="241" cy="709" r="5"/><circle cx="376" cy="672" r="4"/><circle cx="455" cy="703" r="5"/><circle cx="507" cy="647" r="4"/><circle cx="632" cy="702" r="5"/><circle cx="642" cy="669" r="5"/><circle cx="724" cy="692" r="4"/><circle cx="803" cy="684" r="4"/><circle cx="883" cy="655" r="4"/><circle cx="1014" cy="706" r="4"/><circle cx="1103" cy="691" r="4"/><circle cx="1121" cy="650" r="4"/><circle cx="1255" cy="719" r="4"/><circle cx="1349" cy="667" r="5"/><circle cx="1371" cy="684" r="6"/><circle cx="1478" cy="717" r="6"/><circle cx="1555" cy="652" r="4"/><circle cx="1673" cy="647" r="4"/><circle cx="1701" cy="718" r="6"/><circle cx="1762" cy="656" r="4"/><circle cx="1855" cy="682" r="5"/><circle cx="1923" cy="688" r="5"/><circle cx="2066" cy="672" r="4"/><circle cx="2093" cy="709" r="4"/><circle cx="2184" cy="647" r="5"/><circle cx="2305" cy="690" r="5"/><circle cx="2321" cy="704" r="5"/><circle cx="2419" cy="651" r="4"/><circle cx="2507" cy="681" r="6"/><circle cx="67" cy="757" r="5"/><circle cx="136" cy="727" r="6"/><circle cx="167" cy="796" r="5"/><circle cx="243" cy="732" r="5"/><circle cx="369" cy="752" r="5"/><circle cx="421" cy="784" r="5"/><circle cx="500" cy="720" r="4"/><circle cx="577" cy="797" r="4"/><circle cx="693" cy="759" r="5"/><circle cx="744" cy="762" r="4"/><circle cx="849" cy="735" r="4"/><circle cx="931" cy="749" r="4"/><circle cx="1019" cy="761" r="6"/><circle cx="1072" cy="761" r="6"/><circle cx="1186" cy="761" r="6"/><circle cx="1227" cy="725" r="5"/><circle cx="1332" cy="774" r="6"/><circle cx="1410" cy="777" r="4"/><circle cx="1446" cy="772" r="5"/><circle cx="1579" cy="794" r="5"/><circle cx="1646" cy="788" r="6"/><circle cx="1726" cy="755" r="4"/><circle cx="1807" cy="735" r="5"/><circle cx="1862" cy="777" r="5"/><circle cx="1992" cy="763" r="6"/><circle cx="2009" cy="784" r="5"/><circle cx="2110" cy="779" r="5"/><circle cx="2170" cy="738" r="6"/><circle cx="2307" cy="767" r="4"/><circle cx="2382" cy="755" r="5"/><circle cx="2416" cy="796" r="4"/><circle cx="2495" cy="750" r="6"/><circle cx="30" cy="806" r="5"/><circle cx="128" cy="816" r="6"/><circle cx="222" cy="834" r="5"/><circle cx="280" cy="844" r="6"/><circle cx="351" cy="821" r="5"/><circle cx="445" cy="846" r="4"/><circle cx="537" cy="808" r="5"/><circle cx="621" cy="876" r="6"/><circle cx="691" cy="873" r="4"/><circle cx="736" cy="868" r="4"/><circle cx="860" cy="849" r="5"/><circle cx="936" cy="847" r="5"/><circle cx="996" cy="835" r="4"/><circle cx="1080" cy="868" r="5"/><circle cx="1188" cy="802" r="6"/><circle cx="1260" cy="857" r="4"/><circle cx="1315" cy="875" r="5"/><circle cx="1422" cy="840" r="6"/><circle cx="1466" cy="830" r="6"/><circle cx="1546" cy="831" r="5"/><circle cx="1662" cy="859" r="5"/><circle cx="1732" cy="842" r="5"/><circle cx="1784" cy="866" r="5"/><circle cx="1855" cy="868" r="4"/><circle cx="1923" cy="821" r="6"/><circle cx="2033" cy="844" r="4"/><circle cx="2149" cy="857" r="6"/><circle cx="2231" cy="857" r="5"/><circle cx="2255" cy="853" r="4"/><circle cx="2347" cy="875" r="6"/><circle cx="2446" cy="804" r="4"/><circle cx="2497" cy="814" r="5"/><circle cx="34" cy="915" r="5"/><circle cx="138" cy="902" r="4"/><circle cx="212" cy="952" r="5"/><circle cx="309" cy="926" r="6"/><circle cx="372" cy="937" r="5"/><circle cx="472" cy="893" r="6"/><circle cx="538" cy="928" r="4"/><circle cx="595" cy="905" r="6"/><circle cx="695" cy="887" r="5"/><circle cx="731" cy="909" r="5"/><circle cx="840" cy="902" r="6"/><circle cx="920" cy="927" r="4"/><circle cx="968" cy="929" r="5"/><circle cx="1057" cy="919" r="5"/><circle cx="1142" cy="893" r="5"/><circle cx="1277" cy="925" r="4"/><circle cx="1335" cy="901" r="6"/><circle cx="1437" cy="937" r="5"/><circle cx="1509" cy="926" r="4"/><circle cx="1594" cy="911" r="6"/><circle cx="1627" cy="947" r="5"/><circle cx="1726" cy="882" r="4"/><circle cx="1811" cy="933" r="5"/><circle cx="1911" cy="934" r="4"/><circle cx="1923" cy="937" r="5"/><circle cx="2072" cy="916" r="5"/><circle cx="2108" cy="899" r="5"/><circle cx="2205" cy="955" r="6"/><circle cx="2288" cy="928" r="4"/><circle cx="2353" cy="945" r="5"/><circle cx="2457" cy="907" r="5"/><circle cx="2492" cy="886" r="4"/><circle cx="25" cy="965" r="6"/><circle cx="114" cy="1019" r="6"/><circle cx="180" cy="1016" r="6"/><circle cx="258" cy="1009" r="6"/><circle cx="359" cy="1030" r="5"/><circle cx="403" cy="1033" r="6"/><circle cx="520" cy="1010" r="5"/><circle cx="602" cy="972" r="6"/><circle cx="699" cy="1033" r="5"/><circle cx="735" cy="1027" r="5"/><circle cx="833" cy="962" r="5"/><circle cx="898" cy="1010" r="4"/><circle cx="1033" cy="998" r="5"/><circle cx="1118" cy="962" r="5"/><circle cx="1147" cy="1009" r="5"/><circle cx="1250" cy="968" r="5"/><circle cx="1359" cy="1017" r="5"/><circle cx="1419" cy="978" r="5"/><circle cx="1488" cy="1039" r="4"/><circle cx="1565" cy="1025" r="5"/><circle cx="1641" cy="985" r="5"/><circle cx="1752" cy="964" r="6"/><circle cx="1792" cy="976" r="5"/><circle cx="1864" cy="1020" r="4"/><circle cx="1956" cy="993" r="6"/><circle cx="2032" cy="988" r="6"/><circle cx="2093" cy="988" r="4"/><circle cx="2236" cy="1029" r="5"/><circle cx="2243" cy="1004" r="5"/><circle cx="2372" cy="978" r="5"/><circle cx="2470" cy="1029" r="6"/><circle cx="2490" cy="962" r="5"/><circle cx="14" cy="1119" r="6"/><circle cx="121" cy="1045" r="5"/><circle cx="192" cy="1071" r="5"/><circle cx="285" cy="1087" r="5"/><circle cx="349" cy="1120" r="5"/><circle cx="429" cy="1082" r="5"/><circle cx="509" cy="1095" r="4"/><circle cx="624" cy="1068" r="6"/><circle cx="665" cy="1105" r="5"/><circle cx="755" cy="1081" r="4"/><circle cx="807" cy="1085" r="6"/><circle cx="921" cy="1046" r="5"/><circle cx="1012" cy="1075" r="6"/><circle cx="1079" cy="1082" r="5"/><circle cx="1165" cy="1064" r="6"/><circle cx="1255" cy="1087" r="5"/><circle cx="1312" cy="1102" r="5"/><circle cx="1433" cy="1047" r="6"/><circle cx="1511" cy="1040" r="5"/><circle cx="1552" cy="1097" r="5"/><circle cx="1616" cy="1055" r="5"/><circle cx="1725" cy="1068" r="5"/><circle cx="1807" cy="1101" r="4"/><circle cx="1894" cy="1095" r="5"/><circle cx="1973" cy="1056" r="6"/><circle cx="2001" cy="1060" r="6"/><circle cx="2138" cy="1077" r="5"/><circle cx="2235" cy="1099" r="5"/><circle cx="2254" cy="1048" r="5"/><circle cx="2343" cy="1040" r="5"/><circle cx="2433" cy="1094" r="4"/><circle cx="2481" cy="1052" r="4"/><circle cx="2" cy="1149" r="5"/><circle cx="2562" cy="1149" r="5"/><circle cx="107" cy="1168" r="4"/><circle cx="238" cy="1200" r="6"/><circle cx="242" cy="1158" r="6"/><circle cx="333" cy="1173" r="5"/><circle cx="476" cy="1186" r="5"/><circle cx="503" cy="1143" r="5"/><circle cx="574" cy="1164" r="5"/><circle cx="683" cy="1134" r="5"/><circle cx="796" cy="1139" r="5"/><circle cx="800" cy="1122" r="4"/><circle cx="926" cy="1158" r="5"/><circle cx="960" cy="1190" r="5"/><circle cx="1079" cy="1196" r="4"/><circle cx="1140" cy="1152" r="5"/><circle cx="1211" cy="1172" r="5"/><circle cx="1319" cy="1121" r="5"/><circle cx="1431" cy="1190" r="5"/><circle cx="1465" cy="1198" r="5"/><circle cx="1540" cy="1165" r="4"/><circle cx="1657" cy="1162" r="6"/><circle cx="1693" cy="1163" r="6"/><circle cx="1811" cy="1169" r="5"/><circle cx="1891" cy="1129" r="4"/><circle cx="1981" cy="1156" r="5"/><circle cx="2011" cy="1144" r="4"/><circle cx="2094" cy="1132" r="4"/><circle cx="2218" cy="1155" r="5"/><circle cx="2274" cy="1127" r="5"/><circle cx="2367" cy="1184" r="5"/><circle cx="2458" cy="1190" r="6"/><circle cx="2485" cy="1126" r="6"/><circle cx="61" cy="1257" r="4"/><circle cx="88" cy="1251" r="5"/><circle cx="210" cy="1207" r="5"/><circle cx="315" cy="1236" r="5"/><circle cx="352" cy="1201" r="5"/><circle cx="404" cy="1276" r="5"/><circle cx="508" cy="1264" r="4"/><circle cx="588" cy="1232" r="6"/><circle cx="661" cy="1233" r="5"/><circle cx="736" cy="1210" r="6"/><circle cx="870" cy="1265" r="4"/><circle cx="942" cy="1234" r="5"/><circle cx="995" cy="1249" r="5"/><circle cx="1064" cy="1277" r="5"/><circle cx="1158" cy="1241" r="5"/><circle cx="1220" cy="1218" r="4"/><circle cx="1328" cy="1202" r="6"/><circle cx="1369" cy="1268" r="5"/><circle cx="1443" cy="1273" r="4"/><circle cx="1595" cy="1254" r="6"/><circle cx="1618" cy="1208" r="5"/><circle cx="1757" cy="1209" r="5"/><circle cx="1823" cy="1278" r="6"/><circle cx="1843" cy="1279" r="5"/><circle cx="1992" cy="1223" r="5"/><circle cx="2072" cy="1273" r="6"/><circle cx="2105" cy="1202" r="6"/><circle cx="2168" cy="1256" r="5"/><circle cx="2245" cy="1252" r="4"/><circle cx="2365" cy="1224" r="4"/><circle cx="2443" cy="1268" r="4"/><circle cx="2551" cy="1271" r="4"/><circle cx="43" cy="1331" r="5"/><circle cx="155" cy="1357" r="5"/><circle cx="235" cy="1335" r="4"/><circle cx="294" cy="1337" r="5"/><circle cx="361" cy="1311" r="5"/><circle cx="400" cy="1350" r="4"/><circle cx="504" cy="1296" r="4"/><circle cx="615" cy="1306" r="4"/><circle cx="668" cy="1299" r="6"/><circle cx="789" cy="1295" r="4"/><circle cx="836" cy="1282" r="4"/><circle cx="886" cy="1289" r="5"/><circle cx="990" cy="1296" r="5"/><circle cx="1046" cy="1301" r="6"/><circle cx="1172" cy="1357" r="6"/><circle cx="1202" cy="1333" r="4"/><circle cx="1286" cy="1290" r="5"/><circle cx="1428" cy="1311" r="5"/><circle cx="1465" cy="1316" r="6"/><circle cx="1593" cy="1314" r="5"/><circle cx="1607" cy="1308" r="5"/><circle cx="1704" cy="1352" r="6"/><circle cx="1826" cy="1352" r="4"/><circle cx="1868" cy="1293" r="5"/><circle cx="1966" cy="1314" r="4"/><circle cx="2007" cy="1352" r="6"/><circle cx="2116" cy="1337" r="4"/><circle cx="2189" cy="1357" r="5"/><circle cx="2320" cy="1303" r="5"/><circle cx="2371" cy="1326" r="5"/><circle cx="2403" cy="1332" r="5"/><circle cx="2523" cy="1342" r="5"/><circle cx="61" cy="1392" r="5"/><circle cx="156" cy="1390" r="5"/><circle cx="231" cy="1412" r="5"/><circle cx="260" cy="1424" r="4"/><circle cx="337" cy="1421" r="5"/><circle cx="414" cy="1377" r="4"/><circle cx="547" cy="1409" r="4"/><circle cx="600" cy="1432" r="4"/><circle cx="675" cy="1392" r="6"/><circle cx="734" cy="1398" r="5"/><circle cx="867" cy="1367" r="5"/><circle cx="931" cy="1399" r="4"/><circle cx="1000" cy="1435" r="5"/><circle cx="1000" cy="-5" r="5"/><circle cx="1115" cy="1384" r="5"/><circle cx="1171" cy="1398" r="4"/><circle cx="1266" cy="1367" r="5"/><circle cx="1296" cy="1410" r="5"/><circle cx="1431" cy="1394" r="5"/><circle cx="1451" cy="1432" r="5"/><circle cx="1527" cy="1361" r="5"/><circle cx="1616" cy="1432" r="5"/><circle cx="1749" cy="1404" r="5"/><circle cx="1834" cy="1410" r="4"/><circle cx="1862" cy="1375" r="5"/><circle cx="1944" cy="1395" r="6"/><circle cx="2075" cy="1430" r="5"/><circle cx="2098" cy="1375" r="4"/><circle cx="2213" cy="1381" r="6"/><circle cx="2314" cy="1424" r="6"/><circle cx="2332" cy="1431" r="4"/><circle cx="2451" cy="1403" r="4"/><circle cx="2506" cy="1387" r="5"/><path stroke="#fff" d="M78 61L117 63M78 61L-9 25M78 61L12 104M78 61L-8 126M2638 61L2551 25M2638 61L2552 126M117 63L222 78M117 63L149 109M117 63L156 -50M117 1503L156 1390M222 78L266 68M222 78L149 109M222 78L201 155M222 78L241 96M266 68L326 46M266 68L241 96M266 68L231 -28M266 68L260 -16M266 1508L231 1412M266 1508L260 1424M326 46L419 66M326 46L241 96M326 46L260 -16M326 46L337 -19M326 1486L260 1424M326 1486L337 1421M419 66L398 128M419 66L426 120M556 50L610 1M556 50L581 83M556 50L547 -31M556 50L600 -8M556 1490L547 1409M556 1490L600 1432M610 1L645 59M610 1L547 -31M610 1L600 -8M610 1L675 -48M610 1441L547 1409M610 1441L600 1432M610 1441L675 1392M645 59L728 70M645 59L581 83M645 59L703 91M645 59L600 -8M645 1499L600 1432M728 70L816 44M728 70L703 91M728 70L782 102M728 70L734 -42M728 1510L734 1398M816 44L896 18M816 44L782 102M816 44L844 113M816 44L891 124M896 18L1005 31M896 18L891 124M896 18L867 -73M896 18L931 -41M896 1458L867 1367M896 1458L931 1399M1005 31L1108 3M1005 31L978 144M1005 31L931 -41M1005 31L1000 -5M1005 1471L931 1399M1005 1471L1000 1435M1108 3L1159 11M1108 3L1115 -56M1108 3L1171 -42M1108 1443L1115 1384M1108 1443L1171 1398M1159 11L1250 45M1159 11L1172 -83M1159 11L1115 -56M1159 11L1171 -42M1159 1451L1172 1357M1159 1451L1115 1384M1159 1451L1171 1398M1250 45L1333 70M1250 45L1263 100M1250 45L1296 -30M1250 1485L1296 1410M1333 70L1413 69M1333 70L1263 100M1333 70L1300 144M1333 70L1296 -30M1333 1510L1296 1410M1413 69L1509 56M1413 69L1427 141M1413 69L1509 90M1413 69L1451 -8M1413 1509L1451 1432M1509 56L1566 47M1509 56L1509 90M1509 56L1522 155M1509 56L1451 -8M1509 1496L1451 1432M1566 47L1617 7M1566 47L1509 90M1566 47L1654 98M1566 47L1616 -8M1566 1487L1616 1432M1617 7L1654 98M1617 7L1616 -8M1617 1447L1616 1432M1735 69L1760 72M1735 69L1654 98M1735 69L1696 96M1735 69L1772 139M1735 69L1749 -36M1735 1509L1749 1404M1760 72L1654 98M1760 72L1696 96M1760 72L1772 139M1760 72L1749 -36M1760 1512L1749 1404M1869 19L1948 11M1869 19L1916 99M1869 19L1834 -30M1869 19L1862 -65M1869 19L1944 -45M1869 1459L1834 1410M1869 1459L1862 1375M1869 1459L1944 1395M1948 11L2009 55M1948 11L1916 99M1948 11L1944 -45M1948 1451L1944 1395M2009 55L1916 99M2009 55L2076 120M2009 55L2075 -10M2009 1495L2075 1430M2140 2L2195 57M2140 2L2189 -83M2140 2L2075 -10M2140 2L2098 -65M2140 2L2213 -59M2140 1442L2189 1357M2140 1442L2075 1430M2140 1442L2098 1375M2140 1442L2213 1381M2195 57L2150 124M2195 57L2205 157M2195 57L2275 114M2195 57L2213 -59M2195 1497L2213 1381M2312 22L2334 41M2312 22L2314 -16M2312 22L2332 -9M2312 1462L2314 1424M2312 1462L2332 1431M2334 41L2275 114M2334 41L2376 147M2334 41L2314 -16M2334 41L2332 -9M2334 1481L2314 1424M2334 1481L2332 1431M2442 22L2445 124M2442 22L2451 -37M2442 22L2506 -53M2442 1462L2451 1403M2442 1462L2506 1387M2551 25L2572 104M2551 25L2552 126M2551 25L2621 -48M2551 25L2506 -53M-9 25L12 104M-9 25L61 -48M-9 1465L61 1392M2551 1465L2621 1392M2551 1465L2506 1387M12 104L-8 126M12 104L-57 177M2572 104L2552 126M2572 104L2503 177M149 109L201 155M149 109L127 187M201 155L241 96M201 155L127 187M201 155L217 190M241 96L217 190M398 128L426 120M398 128L283 184M398 128L329 183M398 128L465 189M426 120L524 154M426 120L465 189M426 120L525 166M524 154L581 83M524 154L465 189M524 154L525 166M524 154L583 164M581 83L583 164M703 91L782 102M703 91L649 190M782 102L844 113M844 113L891 124M844 113L813 218M891 124L978 144M891 124L941 217M978 144L941 217M978 144L1038 206M1104 115L1175 131M1104 115L1092 210M1104 115L1196 163M1104 115L1201 162M1175 131L1196 163M1175 131L1201 162M1263 100L1300 144M1263 100L1196 163M1263 100L1201 162M1300 144L1196 163M1300 144L1201 162M1300 144L1335 190M1427 141L1522 155M1427 141L1335 190M1427 141L1402 221M1427 141L1467 173M1509 90L1522 155M1509 90L1467 173M1522 155L1467 173M1522 155L1580 215M1654 98L1696 96M1696 96L1772 139M1772 139L1719 225M1772 139L1839 197M1916 99L1945 155M1916 99L1866 175M1945 155L1839 197M1945 155L1866 175M1945 155L1971 224M2076 120L2150 124M2076 120L2067 163M2076 120L2086 224M2150 124L2205 157M2150 124L2067 163M2205 157L2275 114M2205 157L2177 239M2205 157L2265 184M2275 114L2376 147M2275 114L2265 184M2376 147L2445 124M2376 147L2340 205M2376 147L2403 165M2445 124L2552 126M2445 124L2403 165M2445 124L2503 177M2552 126L2503 177M44 236L127 187M44 236L7 289M44 236L115 272M127 187L217 190M127 187L115 272M217 190L283 184M217 190L200 291M283 184L329 183M283 184L268 281M329 183L268 281M329 183L352 279M465 189L525 166M525 166L583 164M583 164L649 190M583 164L546 283M649 190L619 293M775 226L813 218M775 226L731 270M775 226L801 308M813 218L731 270M941 217L1038 206M941 217L893 301M941 217L1030 281M1038 206L1092 210M1038 206L1030 281M1038 206L1041 307M1092 210L1030 281M1092 210L1150 294M1196 163L1201 162M1335 190L1402 221M1335 190L1312 318M1402 221L1467 173M1402 221L1432 288M1467 173L1511 277M1580 215L1638 213M1580 215L1511 277M1580 215L1553 256M1638 213L1719 225M1638 213L1553 256M1638 213L1666 291M1719 225L1666 291M1719 225L1745 253M1719 225L1769 299M1839 197L1866 175M1839 197L1745 253M1839 197L1879 276M1866 175L1971 224M1866 175L1879 276M1971 224L2067 163M1971 224L1987 284M2067 163L2086 224M2086 224L2177 239M2086 224L2071 287M2177 239L2137 310M2177 239L2205 266M2177 239L2175 331M2265 184L2340 205M2265 184L2205 266M2340 205L2403 165M2340 205L2328 319M2340 205L2355 327M2403 165L2503 177M2403 165L2474 268M2503 177L2474 268M7 289L-86 268M7 289L-17 313M7 289L48 364M7 289L-41 367M2567 289L2474 268M2567 289L2543 313M2567 289L2519 367M115 272L200 291M115 272L152 360M115 272L162 373M200 291L268 281M200 291L152 360M200 291L162 373M268 281L352 279M268 281L295 378M352 279L447 296M352 279L365 359M352 279L418 363M447 296L546 283M447 296L365 359M447 296L418 363M447 296L500 321M546 283L619 293M546 283L500 321M546 283L619 330M619 293L711 307M619 293L619 330M619 293L673 365M711 307L731 270M711 307L619 330M711 307L673 365M711 307L746 332M731 270L801 308M731 270L746 332M801 308L893 301M801 308L746 332M801 308L823 346M893 301L823 346M893 301L900 373M1030 281L1041 307M1041 307L1150 294M1041 307L985 377M1041 307L1055 392M1150 294L1255 314M1150 294L1169 395M1150 294L1230 349M1255 314L1312 318M1255 314L1230 349M1255 314L1325 377M1312 318L1432 288M1312 318L1230 349M1312 318L1325 377M1432 288L1511 277M1432 288L1432 364M1432 288L1446 391M1511 277L1553 256M1511 277L1432 364M1666 291L1745 253M1666 291L1611 358M1666 291L1688 346M1745 253L1769 299M1769 299L1688 346M1769 299L1768 373M1769 299L1848 393M1879 276L1987 284M1879 276L1848 393M1987 284L2071 287M1987 284L1998 329M2071 287L2137 310M2071 287L1998 329M2137 310L2205 266M2137 310L2143 360M2137 310L2175 331M2205 266L2247 311M2205 266L2175 331M2247 311L2328 319M2247 311L2175 331M2247 311L2309 344M2247 311L2355 327M2328 319L2309 344M2328 319L2355 327M2328 319L2292 415M2474 268L2543 313M2474 268L2466 337M2543 313L2608 364M2543 313L2466 337M2543 313L2519 367M-17 313L48 364M48 364L-41 367M48 364L77 434M2608 364L2519 367M152 360L162 373M152 360L137 418M152 360L170 433M162 373L137 418M162 373L170 433M295 378L365 359M295 378L254 428M365 359L418 363M418 363L500 321M418 363L476 410M500 321L476 410M619 330L673 365M673 365L746 332M746 332L823 346M823 346L900 373M823 346L835 407M900 373L985 377M900 373L835 407M900 373L910 449M985 377L1055 392M1055 392L1023 476M1055 392L1058 470M1055 392L1097 483M1169 395L1230 349M1169 395L1160 439M1169 395L1131 498M1230 349L1275 443M1325 377L1275 443M1325 377L1303 459M1432 364L1446 391M1432 364L1410 458M1432 364L1473 437M1446 391L1410 458M1446 391L1473 437M1446 391L1530 408M1583 380L1611 358M1583 380L1530 408M1583 380L1642 417M1583 380L1581 490M1611 358L1688 346M1611 358L1530 408M1611 358L1642 417M1688 346L1768 373M1688 346L1642 417M1768 373L1848 393M1768 373L1833 429M1848 393L1833 429M1848 393L1907 405M1998 329L2070 396M1998 329L1907 405M1998 329L1968 437M2070 396L2143 360M2070 396L2058 452M2070 396L2119 452M2070 396L2175 449M2143 360L2175 331M2143 360L2119 452M2143 360L2175 449M2309 344L2355 327M2309 344L2292 415M2309 344L2325 452M2466 337L2519 367M2466 337L2500 435M2519 367L2500 435M77 434L137 418M77 434L73 493M77 434L105 518M137 418L170 433M137 418L165 504M170 433L254 428M170 433L165 504M254 428L283 539M386 472L476 410M386 472L481 463M386 472L383 551M386 472L432 548M476 410L481 463M476 410L485 512M481 463L485 512M624 479L709 454M624 479L630 488M624 479L699 511M624 479L566 564M709 454L780 439M709 454L630 488M709 454L699 511M709 454L745 538M780 439L835 407M780 439L848 485M835 407L910 449M835 407L848 485M910 449L848 485M910 449L917 533M910 449L965 480M1023 476L1058 470M1023 476L965 480M1023 476L1097 483M1023 476L1131 498M1058 470L965 480M1058 470L1097 483M1058 470L1131 498M1160 439L1097 483M1160 439L1131 498M1160 439L1269 502M1275 443L1303 459M1275 443L1269 502M1303 459L1269 502M1303 459L1356 517M1410 458L1473 437M1410 458L1356 517M1410 458L1415 529M1473 437L1530 408M1473 437L1502 482M1530 408L1502 482M1642 417L1691 465M1642 417L1581 490M1691 465L1581 490M1691 465L1624 516M1691 465L1709 501M1691 465L1787 518M1833 429L1907 405M1833 429L1787 518M1907 405L1968 437M1968 437L2058 452M1968 437L1974 513M2058 452L2119 452M2058 452L2014 517M2119 452L2175 449M2119 452L2091 556M2175 449L2235 518M2175 449L2254 494M2292 415L2325 452M2292 415L2330 510M2325 452L2414 474M2325 452L2254 494M2325 452L2330 510M2414 474L2500 435M2414 474L2330 510M2414 474L2468 535M2414 474L2413 587M2500 435L2468 535M2500 435L2524 532M73 493L105 518M73 493L165 504M73 493L-36 532M73 493L108 595M2633 493L2524 532M105 518L165 504M105 518L108 595M105 518L174 570M165 504L174 570M283 539L383 551M283 539L312 614M283 539L328 607M383 551L432 548M383 551L328 607M383 551L426 585M432 548L485 512M432 548L426 585M432 548L481 583M485 512L426 585M485 512L481 583M630 488L699 511M630 488L566 564M630 488L708 562M699 511L745 538M699 511L708 562M745 538L708 562M745 538L748 600M848 485L917 533M917 533L965 480M917 533L851 614M917 533L944 571M965 480L944 571M1097 483L1131 498M1269 502L1356 517M1269 502L1344 568M1356 517L1415 529M1356 517L1344 568M1415 529L1344 568M1415 529L1412 617M1415 529L1457 614M1502 482L1581 490M1581 490L1624 516M1624 516L1709 501M1624 516L1638 612M1709 501L1787 518M1709 501L1730 573M1709 501L1788 580M1787 518L1730 573M1787 518L1788 580M1895 559L1974 513M1895 559L1881 593M1895 559L1943 561M1974 513L2014 517M1974 513L1943 561M1974 513L2043 578M2014 517L2091 556M2014 517L1943 561M2014 517L2043 578M2091 556L2043 578M2091 556L2119 609M2235 518L2254 494M2235 518L2330 510M2235 518L2238 581M2235 518L2260 585M2254 494L2330 510M2254 494L2238 581M2468 535L2524 532M2468 535L2413 587M2524 532L2569 627M2524 532L2552 640M-36 532L9 627M9 627L108 595M9 627L-8 640M9 627L8 656M9 627L-53 681M2569 627L2552 640M2569 627L2507 681M108 595L174 570M108 595L134 644M174 570L134 644M312 614L328 607M312 614L223 666M312 614L376 672M328 607L426 585M328 607L376 672M426 585L481 583M481 583L566 564M481 583L507 647M566 564L507 647M708 562L748 600M708 562L642 669M748 600L851 614M748 600L803 684M851 614L944 571M851 614L803 684M851 614L883 655M944 571L1021 604M944 571L883 655M1021 604L1112 631M1021 604L1131 640M1021 604L1014 706M1021 604L1121 650M1112 631L1131 640M1112 631L1103 691M1112 631L1121 650M1131 640L1103 691M1131 640L1121 650M1252 638L1255 719M1252 638L1349 667M1252 638L1227 725M1344 568L1412 617M1344 568L1349 667M1412 617L1457 614M1412 617L1349 667M1412 617L1371 684M1457 614L1555 652M1577 637L1638 612M1577 637L1555 652M1577 637L1673 647M1638 612L1730 573M1638 612L1555 652M1638 612L1673 647M1730 573L1788 580M1730 573L1762 656M1788 580L1881 593M1788 580L1762 656M1881 593L1943 561M1881 593L1855 682M1881 593L1923 688M1943 561L2043 578M2043 578L2119 609M2119 609L2066 672M2119 609L2093 709M2119 609L2184 647M2238 581L2260 585M2238 581L2184 647M2260 585L2362 621M2260 585L2184 647M2260 585L2305 690M2362 621L2413 587M2362 621L2305 690M2362 621L2321 704M2362 621L2419 651M2413 587L2419 651M2552 640L2568 656M2552 640L2507 681M-8 640L8 656M8 656L-53 681M8 656L67 757M2568 656L2507 681M134 644L223 666M134 644L136 727M223 666L241 709M223 666L243 732M241 709L136 727M241 709L243 732M376 672L455 703M376 672L369 752M455 703L507 647M455 703L369 752M455 703L421 784M455 703L500 720M507 647L500 720M632 702L642 669M632 702L724 692M632 702L577 797M632 702L693 759M642 669L724 692M642 669L693 759M724 692L803 684M724 692L693 759M724 692L744 762M803 684L883 655M803 684L849 735M883 655L849 735M1014 706L1103 691M1014 706L931 749M1014 706L1019 761M1014 706L1072 761M1103 691L1121 650M1103 691L1072 761M1255 719L1186 761M1255 719L1227 725M1255 719L1332 774M1255 719L1188 802M1349 667L1371 684M1371 684L1478 717M1371 684L1332 774M1478 717L1555 652M1478 717L1410 777M1478 717L1446 772M1478 717L1466 830M1673 647L1701 718M1701 718L1762 656M1701 718L1646 788M1701 718L1726 755M1701 718L1807 735M1762 656L1855 682M1762 656L1807 735M1855 682L1923 688M1855 682L1807 735M1855 682L1862 777M1923 688L1862 777M1923 688L1992 763M2066 672L2093 709M2093 709L2110 779M2093 709L2170 738M2184 647L2170 738M2305 690L2321 704M2305 690L2307 767M2305 690L2382 755M2321 704L2419 651M2321 704L2307 767M2321 704L2382 755M2419 651L2507 681M2507 681L2495 750M67 757L136 727M67 757L167 796M67 757L30 806M67 757L128 816M136 727L167 796M136 727L128 816M167 796L243 732M167 796L128 816M167 796L222 834M243 732L222 834M243 732L280 844M369 752L421 784M369 752L351 821M421 784L500 720M421 784L351 821M421 784L445 846M500 720L577 797M500 720L537 808M577 797L537 808M577 797L621 876M693 759L744 762M744 762L849 735M744 762L736 868M849 735L931 749M849 735L860 849M931 749L1019 761M1019 761L1072 761M1019 761L996 835M1072 761L1186 761M1072 761L1080 868M1186 761L1227 725M1186 761L1188 802M1186 761L1260 857M1227 725L1188 802M1332 774L1410 777M1332 774L1315 875M1410 777L1446 772M1410 777L1422 840M1410 777L1466 830M1446 772L1422 840M1446 772L1466 830M1579 794L1646 788M1579 794L1546 831M1646 788L1726 755M1646 788L1662 859M1646 788L1732 842M1726 755L1807 735M1726 755L1732 842M1807 735L1862 777M1862 777L1855 868M1862 777L1923 821M1992 763L2009 784M1992 763L1923 821M1992 763L2033 844M2009 784L2110 779M2009 784L1923 821M2009 784L2033 844M2110 779L2170 738M2110 779L2033 844M2110 779L2149 857M2307 767L2382 755M2307 767L2255 853M2382 755L2416 796M2382 755L2446 804M2416 796L2495 750M2416 796L2446 804M2416 796L2497 814M2495 750L2590 806M2495 750L2446 804M2495 750L2497 814M-65 750L30 806M30 806L-63 814M30 806L34 915M2590 806L2497 814M128 816L222 834M128 816L138 902M222 834L280 844M280 844L351 821M280 844L309 926M351 821L445 846M351 821L309 926M445 846L472 893M537 808L472 893M621 876L691 873M621 876L595 905M621 876L695 887M621 876L602 972M691 873L736 868M691 873L595 905M691 873L695 887M691 873L731 909M736 868L695 887M736 868L731 909M860 849L936 847M860 849L840 902M860 849L920 927M860 849L833 962M936 847L996 835M936 847L840 902M936 847L920 927M936 847L968 929M996 835L1080 868M996 835L968 929M1080 868L1057 919M1080 868L1142 893M1080 868L1118 962M1188 802L1260 857M1188 802L1142 893M1260 857L1315 875M1260 857L1277 925M1260 857L1335 901M1315 875L1277 925M1315 875L1335 901M1422 840L1466 830M1422 840L1335 901M1422 840L1437 937M1466 830L1546 831M1546 831L1509 926M1546 831L1594 911M1662 859L1732 842M1662 859L1594 911M1662 859L1627 947M1662 859L1726 882M1732 842L1784 866M1732 842L1726 882M1784 866L1855 868M1784 866L1726 882M1784 866L1811 933M1784 866L1752 964M1855 868L1923 821M1855 868L1811 933M1855 868L1911 934M1923 821L1923 937M2033 844L2072 916M2033 844L2108 899M2149 857L2231 857M2149 857L2072 916M2149 857L2108 899M2149 857L2205 955M2231 857L2255 853M2231 857L2205 955M2255 853L2347 875M2255 853L2288 928M2347 875L2288 928M2347 875L2353 945M2347 875L2457 907M2347 875L2372 978M2446 804L2497 814M2497 814L2492 886M34 915L138 902M34 915L-68 886M34 915L25 965M2594 915L2492 886M138 902L212 952M212 952L309 926M212 952L114 1019M212 952L180 1016M212 952L258 1009M309 926L372 937M309 926L258 1009M372 937L472 893M372 937L359 1030M372 937L403 1033M472 893L538 928M538 928L595 905M538 928L520 1010M538 928L602 972M595 905L695 887M595 905L602 972M695 887L731 909M731 909L840 902M840 902L920 927M840 902L833 962M920 927L968 929M920 927L898 1010M968 929L1057 919M968 929L1033 998M1057 919L1142 893M1057 919L1033 998M1057 919L1118 962M1142 893L1118 962M1142 893L1147 1009M1277 925L1335 901M1277 925L1250 968M1335 901L1437 937M1437 937L1509 926M1437 937L1419 978M1437 937L1433 1047M1509 926L1594 911M1594 911L1627 947M1594 911L1641 985M1627 947L1641 985M1726 882L1752 964M1811 933L1911 934M1811 933L1752 964M1811 933L1792 976M1911 934L1923 937M1911 934L1864 1020M1911 934L1956 993M1923 937L1864 1020M1923 937L1956 993M2072 916L2108 899M2072 916L2032 988M2072 916L2093 988M2108 899L2093 988M2205 955L2288 928M2205 955L2236 1029M2205 955L2243 1004M2288 928L2353 945M2288 928L2243 1004M2353 945L2457 907M2353 945L2372 978M2353 945L2343 1040M2457 907L2492 886M2457 907L2372 978M2457 907L2490 962M2492 886L2490 962M25 965L114 1019M25 965L-70 962M25 965L121 1045M2585 965L2490 962M114 1019L180 1016M114 1019L121 1045M114 1019L192 1071M180 1016L258 1009M180 1016L121 1045M180 1016L192 1071M258 1009L192 1071M258 1009L285 1087M359 1030L403 1033M359 1030L285 1087M359 1030L349 1120M359 1030L429 1082M403 1033L520 1010M403 1033L429 1082M520 1010L602 972M520 1010L509 1095M602 972L624 1068M699 1033L735 1027M699 1033L624 1068M699 1033L665 1105M699 1033L755 1081M699 1033L683 1134M735 1027L665 1105M735 1027L755 1081M735 1027L807 1085M833 962L898 1010M898 1010L807 1085M898 1010L921 1046M1033 998L1118 962M1033 998L1012 1075M1033 998L1079 1082M1118 962L1147 1009M1147 1009L1250 968M1147 1009L1079 1082M1147 1009L1165 1064M1250 968L1359 1017M1250 968L1255 1087M1359 1017L1419 978M1359 1017L1312 1102M1359 1017L1433 1047M1359 1017L1319 1121M1419 978L1488 1039M1419 978L1433 1047M1488 1039L1565 1025M1488 1039L1433 1047M1488 1039L1511 1040M1488 1039L1552 1097M1565 1025L1641 985M1565 1025L1511 1040M1565 1025L1552 1097M1565 1025L1616 1055M1641 985L1616 1055M1752 964L1792 976M1752 964L1725 1068M1792 976L1864 1020M1792 976L1725 1068M1864 1020L1894 1095M1956 993L2032 988M1956 993L1973 1056M1956 993L2001 1060M2032 988L2093 988M2032 988L1973 1056M2032 988L2001 1060M2093 988L2138 1077M2236 1029L2243 1004M2236 1029L2235 1099M2236 1029L2254 1048M2236 1029L2274 1127M2243 1004L2235 1099M2243 1004L2254 1048M2372 978L2470 1029M2372 978L2343 1040M2470 1029L2490 962M2470 1029L2433 1094M2470 1029L2481 1052M2490 962L2481 1052M14 1119L121 1045M14 1119L-79 1052M14 1119L2 1149M14 1119L107 1168M14 1119L-75 1126M2574 1119L2481 1052M2574 1119L2485 1126M121 1045L192 1071M192 1071L242 1158M285 1087L349 1120M285 1087L242 1158M349 1120L429 1082M349 1120L333 1173M349 1120L352 1201M429 1082L509 1095M429 1082L503 1143M509 1095L476 1186M509 1095L503 1143M509 1095L574 1164M624 1068L665 1105M624 1068L574 1164M624 1068L683 1134M665 1105L683 1134M755 1081L807 1085M755 1081L796 1139M755 1081L800 1122M807 1085L796 1139M807 1085L800 1122M921 1046L1012 1075M921 1046L926 1158M1012 1075L1079 1082M1012 1075L926 1158M1012 1075L960 1190M1079 1082L1165 1064M1079 1082L1140 1152M1165 1064L1255 1087M1165 1064L1140 1152M1165 1064L1211 1172M1255 1087L1312 1102M1255 1087L1211 1172M1255 1087L1319 1121M1312 1102L1319 1121M1312 1102L1328 1202M1433 1047L1511 1040M1511 1040L1552 1097M1511 1040L1616 1055M1552 1097L1616 1055M1552 1097L1540 1165M1616 1055L1657 1162M1725 1068L1807 1101M1725 1068L1693 1163M1807 1101L1894 1095M1807 1101L1811 1169M1807 1101L1891 1129M1894 1095L1973 1056M1894 1095L1891 1129M1973 1056L2001 1060M1973 1056L1981 1156M2001 1060L1981 1156M2001 1060L2011 1144M2138 1077L2094 1132M2138 1077L2218 1155M2235 1099L2254 1048M2235 1099L2218 1155M2235 1099L2274 1127M2254 1048L2343 1040M2254 1048L2274 1127M2343 1040L2433 1094M2343 1040L2274 1127M2433 1094L2481 1052M2433 1094L2458 1190M2433 1094L2485 1126M2481 1052L2485 1126M2 1149L107 1168M2 1149L-75 1126M2 1149L-9 1271M2562 1149L2485 1126M2562 1149L2551 1271M107 1168L61 1257M107 1168L88 1251M107 1168L210 1207M238 1200L242 1158M238 1200L333 1173M238 1200L210 1207M238 1200L315 1236M238 1200L352 1201M242 1158L333 1173M242 1158L210 1207M333 1173L315 1236M333 1173L352 1201M476 1186L503 1143M476 1186L574 1164M476 1186L508 1264M503 1143L574 1164M574 1164L588 1232M683 1134L661 1233M683 1134L736 1210M796 1139L800 1122M796 1139L736 1210M926 1158L960 1190M926 1158L942 1234M960 1190L942 1234M960 1190L995 1249M1079 1196L1140 1152M1079 1196L1064 1277M1079 1196L1158 1241M1079 1196L1046 1301M1140 1152L1211 1172M1140 1152L1158 1241M1211 1172L1158 1241M1211 1172L1220 1218M1319 1121L1328 1202M1431 1190L1465 1198M1431 1190L1328 1202M1431 1190L1369 1268M1431 1190L1443 1273M1465 1198L1540 1165M1465 1198L1443 1273M1540 1165L1595 1254M1540 1165L1618 1208M1657 1162L1693 1163M1657 1162L1595 1254M1657 1162L1618 1208M1657 1162L1757 1209M1693 1163L1811 1169M1693 1163L1618 1208M1693 1163L1757 1209M1811 1169L1891 1129M1811 1169L1757 1209M1891 1129L1981 1156M1981 1156L2011 1144M1981 1156L1992 1223M2011 1144L2094 1132M2011 1144L1992 1223M2094 1132L2105 1202M2218 1155L2274 1127M2218 1155L2105 1202M2218 1155L2245 1252M2367 1184L2458 1190M2367 1184L2365 1224M2458 1190L2485 1126M2458 1190L2365 1224M2458 1190L2443 1268M61 1257L88 1251M61 1257L-9 1271M61 1257L43 1331M2621 1257L2551 1271M88 1251L-9 1271M88 1251L43 1331M2648 1251L2551 1271M315 1236L352 1201M315 1236L404 1276M315 1236L361 1311M352 1201L404 1276M404 1276L361 1311M404 1276L400 1350M404 1276L414 1377M508 1264L588 1232M508 1264L504 1296M588 1232L661 1233M588 1232L615 1306M588 1232L668 1299M661 1233L736 1210M661 1233L615 1306M661 1233L668 1299M736 1210L668 1299M736 1210L789 1295M870 1265L789 1295M870 1265L836 1282M870 1265L886 1289M870 1265L867 1367M942 1234L995 1249M942 1234L886 1289M942 1234L990 1296M995 1249L1064 1277M995 1249L990 1296M995 1249L1046 1301M1064 1277L1158 1241M1064 1277L990 1296M1064 1277L1046 1301M1158 1241L1220 1218M1220 1218L1286 1290M1328 1202L1369 1268M1328 1202L1286 1290M1369 1268L1443 1273M1369 1268L1286 1290M1369 1268L1428 1311M1443 1273L1428 1311M1443 1273L1465 1316M1595 1254L1618 1208M1595 1254L1593 1314M1595 1254L1607 1308M1618 1208L1607 1308M1757 1209L1823 1278M1757 1209L1843 1279M1823 1278L1843 1279M1823 1278L1826 1352M1823 1278L1868 1293M1843 1279L1826 1352M1843 1279L1868 1293M1992 1223L2072 1273M1992 1223L2105 1202M1992 1223L1966 1314M2072 1273L2105 1202M2072 1273L2168 1256M2072 1273L2007 1352M2072 1273L2116 1337M2105 1202L2168 1256M2168 1256L2245 1252M2168 1256L2116 1337M2168 1256L2189 1357M2245 1252L2320 1303M2365 1224L2443 1268M2365 1224L2320 1303M2365 1224L2371 1326M2443 1268L2371 1326M2443 1268L2403 1332M2551 1271L2603 1331M2551 1271L2523 1342M-9 1271L43 1331M43 1331L-37 1342M43 1331L61 1392M2603 1331L2523 1342M155 1357L235 1335M155 1357L61 1392M155 1357L156 1390M155 1357L231 1412M235 1335L294 1337M235 1335L156 1390M235 1335L231 1412M294 1337L361 1311M294 1337L260 1424M294 1337L337 1421M361 1311L400 1350M361 1311L414 1377M400 1350L337 1421M400 1350L414 1377M504 1296L615 1306M615 1306L668 1299M615 1306L675 1392M668 1299L675 1392M789 1295L836 1282M836 1282L886 1289M836 1282L867 1367M886 1289L990 1296M886 1289L867 1367M990 1296L1046 1301M1046 1301L1115 1384M1172 1357L1202 1333M1172 1357L1115 1384M1172 1357L1171 1398M1172 1357L1266 1367M1202 1333L1286 1290M1202 1333L1171 1398M1202 1333L1266 1367M1286 1290L1266 1367M1428 1311L1465 1316M1428 1311L1431 1394M1465 1316L1431 1394M1465 1316L1451 1432M1465 1316L1527 1361M1593 1314L1607 1308M1593 1314L1704 1352M1593 1314L1527 1361M1593 1314L1616 1432M1607 1308L1704 1352M1607 1308L1527 1361M1704 1352L1616 1432M1704 1352L1749 1404M1826 1352L1868 1293M1826 1352L1834 1410M1826 1352L1862 1375M1868 1293L1966 1314M1868 1293L1862 1375M1966 1314L2007 1352M1966 1314L1944 1395M2007 1352L1944 1395M2007 1352L2075 1430M2007 1352L2098 1375M2116 1337L2189 1357M2116 1337L2098 1375M2116 1337L2213 1381M2189 1357L2098 1375M2189 1357L2213 1381M2320 1303L2371 1326M2320 1303L2403 1332M2371 1326L2403 1332M2371 1326L2314 1424M2403 1332L2451 1403M2523 1342L2621 1392M2523 1342L2451 1403M2523 1342L2506 1387M-37 1342L61 1392M61 1392L156 1390M156 1390L231 1412M231 1412L260 1424M260 1424L337 1421M337 1421L414 1377M547 1409L600 1432M600 1432L675 1392M675 1392L734 1398M867 1367L931 1399M931 1399L1000 1435M1115 1384L1171 1398M1266 1367L1296 1410M1431 1394L1451 1432M1431 1394L1527 1361M1451 1432L1527 1361M1749 1404L1834 1410M1834 1410L1862 1375M1862 1375L1944 1395M2075 1430L2098 1375M2213 1381L2314 1424M2314 1424L2332 1431M2451 1403L2506 1387"/></svg>